<svg width="36.5" height="36.6" viewBox="0 0 36.5 36.6" xmlns="http://www.w3.org/2000/svg" xmlns:xlink="http://www.w3.org/1999/xlink" overflow="hidden"><defs></defs><g><g><defs><path d="M0 36.5 36.5 36.5 36.5 0 0 0 0 36.5Z" id="SVGID_1_" fill="#7823DC"/></defs><clipPath id="SVGID_2_"><use width="100%" height="100%" xlink:href="#SVGID_1_"></use></clipPath><path d="M25.8 11.4 28.5 18.3 6.8 18.3 6.8 11.4 25.8 11.4M27.4 9.1 4.6 9.1 4.6 20.5 32 20.5 27.4 9.1 27.4 9.1Z" fill="#7823DC" clip-path="url(#SVGID_2_)"/><path d="M10.3 13.7C9.7 13.7 9.2 14.2 9.2 14.8 9.2 15.4 9.7 15.9 10.3 15.9 10.9 15.9 11.4 15.4 11.4 14.8 11.4 14.2 10.9 13.7 10.3 13.7L10.3 13.7Z" fill="#7823DC" clip-path="url(#SVGID_2_)"/><path d="M14.8 13.7C14.2 13.7 13.7 14.2 13.7 14.8 13.7 15.4 14.2 15.9 14.8 15.9 15.4 15.9 15.9 15.4 15.9 14.8 16 14.2 15.5 13.7 14.8 13.7L14.8 13.7Z" fill="#7823DC" clip-path="url(#SVGID_2_)"/><path d="M19.4 13.7C18.8 13.7 18.3 14.2 18.3 14.8 18.3 15.4 18.8 15.9 19.4 15.9 20 15.9 20.5 15.4 20.5 14.8 20.5 14.2 20 13.7 19.4 13.7L19.4 13.7Z" fill="#7823DC" clip-path="url(#SVGID_2_)"/><path d="M23.9 13.7C23.3 13.7 22.8 14.2 22.8 14.8 22.8 15.4 23.3 15.9 23.9 15.9 24.5 15.9 25 15.4 25 14.8 25.1 14.2 24.6 13.7 23.9 13.7L23.9 13.7Z" fill="#7823DC" clip-path="url(#SVGID_2_)"/><path d="M11.4 6.9 11.4 9.2 9.1 9.2 9.1 6.9 11.4 6.9M13.7 4.6 6.8 4.6 6.8 11.5 13.6 11.5 13.6 4.6 13.7 4.6Z" fill="#7823DC" clip-path="url(#SVGID_2_)"/><path d="M3.6 25.3 2.8 20.6 34.1 20.6C33.8 22.2 33.1 23.6 32 24.8L31.7 25.2C32.6 25.4 33.6 25.3 34.5 24.9L34.9 24.7C36.1 22.8 36.7 20.5 36.5 18.3L0 18.3 1.3 24.7 1.7 24.9C2.3 25.2 3 25.3 3.6 25.3L3.6 25.3Z" fill="#7823DC" clip-path="url(#SVGID_2_)"/><path d="M11.4 0 9.1 0 9.1 6 11.4 6 11.4 0 11.4 0 11.4 0Z" fill="#7823DC" clip-path="url(#SVGID_2_)"/><path d="M0.5 26.7C2.3 27.6 4.5 27.6 6.3 26.7 7.5 26.1 8.9 26.1 10.1 26.7L10.2 26.7C12 27.6 14.1 27.6 15.9 26.7L16 26.6C17.2 26 18.6 26 19.8 26.6 21.7 27.5 23.8 27.5 25.7 26.6 26.9 26 28.3 26 29.5 26.6 31.3 27.5 33.5 27.5 35.3 26.6L36.3 26.1 36.3 23.6 34.2 24.6C33 25.2 31.6 25.2 30.3 24.6 28.5 23.7 26.3 23.7 24.5 24.6 23.3 25.2 21.9 25.2 20.7 24.6 18.9 23.7 16.7 23.7 14.9 24.6L14.8 24.7C13.6 25.3 12.2 25.3 11.1 24.7L11 24.6C9.2 23.7 7 23.7 5.2 24.6 4 25.2 2.6 25.2 1.4 24.6L0 23.9 0 26.5 0.5 26.7 0.5 26.7Z" fill="#7823DC" clip-path="url(#SVGID_2_)"/><path d="M0.5 31.3C2.3 32.2 4.5 32.2 6.3 31.3 7.5 30.7 8.9 30.7 10.1 31.3L10.2 31.3C12 32.2 14.1 32.2 15.9 31.3L16 31.2C17.2 30.6 18.6 30.6 19.8 31.2 21.7 32.1 23.8 32.1 25.7 31.2 26.9 30.6 28.3 30.6 29.5 31.2 31.3 32.1 33.5 32.1 35.3 31.2L36.3 30.7 36.3 28.2 34.2 29.2C33 29.8 31.6 29.8 30.3 29.2 28.5 28.3 26.3 28.3 24.5 29.2 23.3 29.8 21.9 29.8 20.7 29.2 18.9 28.3 16.7 28.3 14.9 29.2L14.8 29.3C13.6 29.9 12.2 29.9 11.1 29.3L11 29.2C9.2 28.3 7 28.3 5.2 29.2 4 29.8 2.6 29.8 1.4 29.2L0 28.5 0 31 0.5 31.3 0.5 31.3Z" fill="#7823DC" clip-path="url(#SVGID_2_)"/><path d="M0.5 35.9C2.3 36.8 4.5 36.8 6.3 35.9 7.5 35.3 8.9 35.3 10.1 35.9L10.2 35.9C12 36.8 14.1 36.8 15.9 35.9L16 35.8C17.2 35.2 18.6 35.2 19.8 35.8 21.7 36.7 23.8 36.7 25.7 35.8 26.9 35.2 28.3 35.2 29.5 35.8 31.3 36.7 33.5 36.7 35.3 35.8L36.3 35.3 36.3 32.8 34.2 33.8C33 34.4 31.6 34.4 30.3 33.8 28.5 32.9 26.3 32.9 24.5 33.8 23.3 34.4 21.9 34.4 20.7 33.8 18.9 32.9 16.7 32.9 14.9 33.8L14.8 33.9C13.6 34.5 12.2 34.5 11.1 33.9L11 33.8C9.2 32.9 7 32.9 5.2 33.8 4 34.4 2.6 34.4 1.4 33.8L0 33.1 0 35.7 0.5 35.9 0.5 35.9Z" fill="#7823DC" clip-path="url(#SVGID_2_)"/></g></g></svg>