<svg width="36.5" height="36.5" viewBox="0 0 36.5 36.5" xmlns="http://www.w3.org/2000/svg" xmlns:xlink="http://www.w3.org/1999/xlink" overflow="hidden"><style>
.MsftOfcResponsive_Fill_7823dc {
 fill:#7823DC; 
}
</style>
<defs></defs><g><g><defs><path d="M0 36.5 36.5 36.5 36.5 0 0 0 0 36.5Z" id="SVGID_1_" class="MsftOfcResponsive_Fill_7823dc" fill="#7823DC"/></defs><clipPath id="SVGID_2_"><use width="100%" height="100%" xlink:href="#SVGID_1_"></use></clipPath><g class="st0" clip-path="url(#SVGID_2_)"><defs><path d="M0 36.5 36.5 36.5 36.5 0 0 0 0 36.5Z" id="SVGID_3_" class="MsftOfcResponsive_Fill_7823dc" fill="#7823DC"/></defs><clipPath id="SVGID_4_"><use width="100%" height="100%" xlink:href="#SVGID_3_"></use></clipPath><path d="M8 29.7C8 30.3 7.5 30.8 6.9 30.8 6.3 30.8 5.8 30.3 5.8 29.7 5.8 29.1 6.3 28.6 6.9 28.6 7.5 28.6 8 29.1 8 29.7L8 29.7Z" class="st1 MsftOfcResponsive_Fill_7823dc" fill="#7823DC" clip-path="url(#SVGID_4_)"/><path d="M12.5 29.7C12.5 30.3 12 30.8 11.4 30.8 10.8 30.8 10.3 30.3 10.3 29.7 10.3 29.1 10.8 28.6 11.4 28.6 12 28.6 12.5 29.1 12.5 29.7L12.5 29.7Z" class="st1 MsftOfcResponsive_Fill_7823dc" fill="#7823DC" clip-path="url(#SVGID_4_)"/><path d="M17.1 29.7C17.1 30.3 16.6 30.8 16 30.8 15.4 30.8 14.9 30.3 14.9 29.7 14.9 29.1 15.4 28.6 16 28.6 16.6 28.6 17.1 29.1 17.1 29.7L17.1 29.7Z" class="st1 MsftOfcResponsive_Fill_7823dc" fill="#7823DC" clip-path="url(#SVGID_4_)"/><path d="M21.7 29.7C21.7 30.3 21.2 30.8 20.6 30.8 20 30.8 19.5 30.3 19.5 29.7 19.5 29.1 20 28.6 20.6 28.6 21.2 28.6 21.7 29.1 21.7 29.7L21.7 29.7Z" class="st1 MsftOfcResponsive_Fill_7823dc" fill="#7823DC" clip-path="url(#SVGID_4_)"/><path d="M18.3 16 20.5 16 20.5 18.3 18.3 18.3 18.3 16Z" class="st1 MsftOfcResponsive_Fill_7823dc" fill="#7823DC" clip-path="url(#SVGID_4_)"/><path d="M34.7 21.6 29.6 8.2 24.6 4.9 14.7 6 9.9 12.5 9.1 12.5 9.1 13.6 2.3 13.6 2.3 22.7 6.9 22.7 6.9 25 4.6 25C2.1 25 0 27 0 29.6 0 32.1 2 34.2 4.6 34.2L22.8 34.2C25.3 34.2 27.4 32.2 27.4 29.6 27.4 27.1 25.4 25 22.8 25L20.5 25 20.5 22.7 25.1 22.7 25.1 14.6 21.7 10.1 18.8 10.1 15.2 13.5 13.7 13.5 13.7 12.4 12.7 12.4 16 8.1 26.7 7 32.4 21.7 32.4 23.2C33.4 23.2 34.2 24 34.2 25.1 34.3 26.2 33.4 27.2 32.3 27.2 32 27.2 31.7 27.2 31.4 27.1L30.8 29.3C31.3 29.4 31.7 29.5 32.2 29.5 33.1 29.5 34.1 29.2 34.8 28.6 35.8 27.7 36.5 26.4 36.5 25.1 36.5 23.7 35.8 22.4 34.7 21.6L34.7 21.6ZM22.8 27.4C24.1 27.4 25.1 28.4 25.1 29.7 25.1 31 24.1 32 22.8 32L4.6 32C3.3 32 2.3 31 2.3 29.7 2.3 28.4 3.3 27.4 4.6 27.4L22.8 27.4ZM9.1 25.1 9.1 22.8 18.2 22.8 18.2 25.1 9.1 25.1 9.1 25.1ZM16.4 16 20 12.6 22.8 12.6 22.8 20.6 4.6 20.6 4.6 16 16.4 16 16.4 16Z" class="st1 MsftOfcResponsive_Fill_7823dc" fill="#7823DC" clip-path="url(#SVGID_4_)"/></g></g></g></svg>