<svg viewBox="0 0 32 32" xmlns="http://www.w3.org/2000/svg" xmlns:xlink="http://www.w3.org/1999/xlink" xml:space="preserve" overflow="hidden"><style>
.MsftOfcResponsive_Fill_7823dc {
 fill:#7823DC; 
}
</style>
<g id="Layer_3"></g><g id="Layer_1"></g><g id="Layer_2"><path d="M30.26 9.85 27.19 23.84 8.06 23.84 4.82 6.68 0 6.68 0 8.69 3.15 8.69 6.42 25.85 7.02 25.85 8.43 25.85 28.77 25.85 31.84 11.86Z" class="st0 MsftOfcResponsive_Fill_7823dc" fill="#7823DC"/><path d="M11.87 31.88C10.21 31.88 8.89 30.57 8.89 28.91 8.89 27.25 10.2 25.94 11.87 25.94 13.54 25.94 14.85 27.25 14.85 28.91 14.85 30.48 13.54 31.88 11.87 31.88L11.87 31.88ZM11.87 27.86C11.34 27.86 10.91 28.3 10.91 28.82 10.91 29.34 11.35 29.78 11.87 29.78 12.4 29.78 12.83 29.34 12.83 28.82 12.84 28.3 12.4 27.86 11.87 27.86L11.87 27.86Z" class="st0 MsftOfcResponsive_Fill_7823dc" fill="#7823DC"/><path d="M23.87 31.88C22.21 31.88 20.89 30.57 20.89 28.91 20.89 27.25 22.2 25.94 23.87 25.94 25.53 25.94 26.85 27.25 26.85 28.91 26.85 30.48 25.53 31.88 23.87 31.88L23.87 31.88ZM23.87 27.86C23.34 27.86 22.91 28.3 22.91 28.82 22.91 29.34 23.35 29.78 23.87 29.78 24.4 29.78 24.83 29.34 24.83 28.82 24.83 28.3 24.39 27.86 23.87 27.86L23.87 27.86Z" class="st0 MsftOfcResponsive_Fill_7823dc" fill="#7823DC"/><g><path d="M19.89 21.87 16.03 21.87 15.24 19.27C15.16 19.27 15.08 19.19 15.08 19.19L12.4 19.74 10.51 16.36 12.32 14.39C12.32 14.31 12.32 14.23 12.32 14.15L10.51 12.18 12.4 8.8 15.08 9.35C15.16 9.35 15.24 9.27 15.24 9.27L16.11 6.67 19.97 6.67 20.84 9.34C20.92 9.34 21 9.42 21 9.42L23.68 8.87 25.57 12.17 23.76 14.21 23.76 14.29C23.76 14.37 23.76 14.37 23.76 14.45L25.57 16.42 23.68 19.8 21 19.25C20.92 19.25 20.84 19.33 20.84 19.33L19.89 21.87 19.89 21.87 19.89 21.87ZM17.36 20.14 18.62 20.14 19.33 18.02 19.72 17.86C19.96 17.78 20.11 17.62 20.27 17.55L20.59 17.31 22.8 17.78 23.43 16.68 22.01 15.11 22.01 14.72C22.01 14.56 22.01 14.41 22.01 14.33L22.01 13.54 23.43 11.97 22.8 10.95 20.59 11.42 20.27 11.11C20.11 10.95 19.88 10.87 19.72 10.8L19.33 10.64 18.62 8.5 17.36 8.5 16.65 10.62 16.33 10.7C16.09 10.78 15.94 10.94 15.7 11.01L15.38 11.25 13.25 10.78 12.62 11.88 14.12 13.53 14.04 13.92C14.04 14.16 14.04 14.39 14.04 14.55L14.12 14.94 12.62 16.59 13.25 17.69 15.38 17.22 15.7 17.46C15.86 17.62 16.09 17.7 16.33 17.77L16.72 17.93 17.36 20.14 17.36 20.14 17.36 20.14Z" class="st0 MsftOfcResponsive_Fill_7823dc" fill="#7823DC"/><path d="M17.99 16.99C16.49 16.99 15.31 15.81 15.31 14.32 15.31 12.83 16.49 11.65 17.99 11.65 19.49 11.65 20.67 12.83 20.67 14.32 20.67 15.74 19.49 16.99 17.99 16.99L17.99 16.99ZM17.99 13.38C17.52 13.38 17.12 13.77 17.12 14.25 17.12 14.72 17.51 15.12 17.99 15.12 18.46 15.12 18.86 14.73 18.86 14.25 18.86 13.77 18.47 13.38 17.99 13.38L17.99 13.38Z" class="st0 MsftOfcResponsive_Fill_7823dc" fill="#7823DC"/></g></g></svg>