<svg viewBox="0 0 32 32" xmlns="http://www.w3.org/2000/svg" xmlns:xlink="http://www.w3.org/1999/xlink" id="Graphic" overflow="hidden"><g><g><defs><path d="M-0.9 32 32 32 32 0-0.9 0-0.9 32Z" id="SVGID_1_" fill="#7823DC"/></defs><defs><path d="M-0.9 0 32 0 32 32-0.9 32-0.9 0Z" id="SVGID_2_" fill="#7823DC"/></defs><clipPath id="SVGID_3_"><use width="100%" height="100%" xlink:href="#SVGID_1_" overflow="visible"></use></clipPath><clipPath id="SVGID_4_" clip-path="url(#SVGID_3_)"><use width="100%" height="100%" xlink:href="#SVGID_2_" overflow="visible"></use></clipPath><g clip-path="url(#SVGID_4_)"><defs><path d="M-0.9 32 32 32 32 0-0.9 0-0.9 32Z" id="SVGID_5_" fill="#7823DC"/></defs><clipPath id="SVGID_6_"><use width="100%" height="100%" xlink:href="#SVGID_5_" overflow="visible"></use></clipPath><path d="M29.9 4.8 29.9 20.2 2.1 20.2 2.1 4.8 29.9 4.8M27.9 2.9 0.1 2.9 0.1 22.2 31.9 22.2 31.9 6.8 27.9 2.9 27.9 2.9 27.9 2.9Z" fill="#7823DC" clip-path="url(#SVGID_6_)"/><path d="M18 22.2 18 28 14 28 14 22.2 18 22.2M20 20.3 12 20.3 12 29.9 20 29.9 20 20.3 20 20.3 20 20.3Z" fill="#7823DC" clip-path="url(#SVGID_6_)"/><path d="M25.9 28 6 28 6 29.9 25.9 29.9 25.9 28 25.9 28Z" fill="#7823DC" clip-path="url(#SVGID_6_)"/></g></g></g><path d="M10.3 9.4 10.3 13.4 14.3 13.4C14.3 15.6 12.5 17.4 10.3 17.4 8.1 17.4 6.3 15.6 6.3 13.4 6.3 11.2 8.1 9.4 10.3 9.4M12.3 7.5 10.3 7.5C7 7.5 4.3 10.2 4.3 13.5 4.3 16.8 7 19.5 10.3 19.5 13.6 19.5 16.3 16.8 16.3 13.5L16.3 11.5 12.3 11.5 12.3 7.5 12.3 7.5 12.3 7.5Z" fill="#7823DC" fill-rule="evenodd" clip-rule="evenodd"/><path d="M11.7 7.5C13.9 7.5 15.7 9.3 15.7 11.5L11.7 11.5 11.7 7.5M11.7 5.5 9.7 5.5 9.7 13.5 17.7 13.5 17.7 11.5C17.7 8.2 15 5.5 11.7 5.5L11.7 5.5Z" fill="#7823DC" fill-rule="evenodd" clip-rule="evenodd"/><g><g><path d="M25.9 10.7 25.9 13.3 27.8 11.4 27.8 7.5 23.8 7.5 22 9.3 24.5 9.3" fill="#7823DC" fill-rule="evenodd" clip-rule="evenodd"/></g><rect x="16.3" y="12.6" width="10.7" height="2" fill="#7823DC" transform="matrix(0.7071 -0.7071 0.7071 0.7071 -3.2543 19.2816)"/></g></svg>