<svg viewBox="0 0 32 32" xmlns="http://www.w3.org/2000/svg" xmlns:xlink="http://www.w3.org/1999/xlink" id="Layer_1" overflow="hidden"><style>
.MsftOfcResponsive_Fill_7823dc {
 fill:#7823DC; 
}
</style>
<defs></defs><path d="M22 31.99 22 32 18 32 18 30 20.01 30 22 31.99Z" class="MsftOfcResponsive_Fill_7823dc" fill="#7823DC"/><path d="M26 28.24 26 28.25 20.8 28.25 18.8 26.25 24 26.25 26 28.24Z" class="MsftOfcResponsive_Fill_7823dc" fill="#7823DC"/><path d="M24 24.5 15.87 24.5 13.87 22.5 22 22.5 24 24.5Z" class="MsftOfcResponsive_Fill_7823dc" fill="#7823DC"/><path d="M20.49 20.75 10 20.75 8 18.75 18.49 18.75 20.49 20.75Z" class="MsftOfcResponsive_Fill_7823dc" fill="#7823DC"/><path d="M28 17 15.74 17 13.74 15 26 15 28 17Z" class="MsftOfcResponsive_Fill_7823dc" fill="#7823DC"/><path d="M18.63 13.25 4 13.25 2 11.25 16.63 11.25 18.63 13.25Z" class="MsftOfcResponsive_Fill_7823dc" fill="#7823DC"/><path d="M29.99 9.5 11.97 9.5 9.97 7.5 27.99 7.5 29.99 9.5Z" class="MsftOfcResponsive_Fill_7823dc" fill="#7823DC"/><path d="M28 5.74 28 5.75 6 5.75 4 3.75 26.01 3.75 28 5.74Z" class="MsftOfcResponsive_Fill_7823dc" fill="#7823DC"/><path d="M32 2 2 2 0 0 30 0 32 2Z" class="MsftOfcResponsive_Fill_7823dc" fill="#7823DC"/><path d="M18.49 30 18.49 32 18 32 16 30 18.49 30Z" class="MsftOfcResponsive_Fill_7823dc" fill="#7823DC"/></svg>