<svg viewBox="0 0 32.01 32.01" xmlns="http://www.w3.org/2000/svg" xmlns:xlink="http://www.w3.org/1999/xlink" id="a" overflow="hidden"><defs><clipPath id="b"><path d="M0 32.01 32 32.01 32 0 0 0 0 32.01 0 32.01Z" fill="none" clip-rule="evenodd"/></clipPath></defs><path d="M0 12.96 1.98 12.96 1.98 25.02 0 25.02 0 12.96 0 12.96Z" fill="#7823DC" fill-rule="evenodd"/><path d="M30.02 12.96 32 12.96 32 25.02 30.02 25.02 30.02 12.96 30.02 12.96Z" fill="#7823DC" fill-rule="evenodd"/><path d="M4 20.22C4.68 20.22 5.99 22.13 5.99 25.12 5.99 28.11 4.69 30.02 4 30.02 3.31 30.02 2.01 28.11 2.01 25.12 2.01 22.13 3.31 20.22 4 20.22M4 18.22C1.79 18.22 0 21.31 0 25.11 0 28.91 1.78 32 4 32 6.22 32 8 28.91 8 25.11 8 21.31 6.22 18.22 4 18.22L4 18.22Z" fill="#7823DC" fill-rule="evenodd"/><path d="M28 20.22C28.68 20.22 29.99 22.13 29.99 25.12 29.99 28.11 28.69 30.02 28 30.02 27.31 30.02 26.01 28.11 26.01 25.12 26.01 22.13 27.31 20.22 28 20.22M28 18.22C25.79 18.22 24 21.31 24 25.11 24 28.91 25.78 32 28 32 30.22 32 32 28.91 32 25.11 32 21.31 30.22 18.22 28 18.22L28 18.22Z" fill="#7823DC" fill-rule="evenodd"/><path d="M32.01 12.99 30.01 12.99C30.01 6.93 23.74 2 16.03 2 8.32 2 2.06 6.93 2.06 12.99L0.06 12.99C0.06 5.83 7.22 0 16.03 0 24.84 0 32.01 5.83 32.01 12.99Z" fill="#7823DC"/><g clip-path="url(#b)"><path d="M32.01 16.01 30.01 16.01C30.01 9.95 23.74 5.02 16.03 5.02 8.32 5.02 2.06 9.94 2.06 16.01L0.06 16.01C0.06 8.84 7.22 3.01 16.03 3.01 24.84 3.01 32.01 8.84 32.01 16Z" fill="#7823DC"/></g></svg>