<svg viewBox="0 0 32 32" xmlns="http://www.w3.org/2000/svg" xmlns:xlink="http://www.w3.org/1999/xlink" xml:space="preserve" overflow="hidden"><style>
.MsftOfcResponsive_Fill_7823dc {
 fill:#7823DC; 
}
</style>
<g id="Layer_3"></g><g id="Layer_1"><path d="M21.54 28.33 19.35 28.33 19.35 19.4 21.54 19.4 21.54 28.33Z" class="st1 MsftOfcResponsive_Fill_7823dc" fill="#7823DC"/><path d="M8.4 28.37 6.21 28.37 6.21 19.4 8.4 19.4 8.4 28.37Z" class="st1 MsftOfcResponsive_Fill_7823dc" fill="#7823DC"/><path d="M13.88 23.26C10.07 23.26 6.22 21.95 6.22 19.44 6.22 16.93 10.07 15.62 13.88 15.62 17.69 15.62 21.54 16.93 21.54 19.44 21.54 21.95 17.68 23.26 13.88 23.26L13.88 23.26ZM13.88 17.8C10.29 17.8 8.41 19.02 8.41 19.44 8.41 19.86 10.29 21.08 13.88 21.08 17.47 21.08 19.35 19.86 19.35 19.44 19.35 19.02 17.47 17.8 13.88 17.8L13.88 17.8Z" class="st1 MsftOfcResponsive_Fill_7823dc" fill="#7823DC"/><path d="M13.88 25.41C10.29 25.41 8.41 24.19 8.41 23.77L6.21 23.77C6.21 26.28 10.06 27.59 13.87 27.59 17.68 27.59 21.53 26.28 21.53 23.77L19.34 23.77C19.35 24.19 17.47 25.41 13.88 25.41L13.88 25.41Z" class="st1 MsftOfcResponsive_Fill_7823dc" fill="#7823DC"/><path d="M13.88 29.82C10.29 29.82 8.41 28.6 8.41 28.18L6.21 28.18C6.21 30.69 10.06 32 13.87 32 17.68 32 21.53 30.69 21.53 28.18L19.34 28.18C19.35 28.6 17.47 29.82 13.88 29.82L13.88 29.82Z" class="st1 MsftOfcResponsive_Fill_7823dc" fill="#7823DC"/><path d="M20.59 2.17C22.47 2.17 23.55 2.65 25.02 3.59 25.83 4.11 27.04 5.16 28.06 6.1 27.04 7.04 25.83 8.09 25.02 8.61 23.55 9.55 22.47 10.03 20.59 10.03 20.5 10.03 20.42 10.03 20.33 10.03 19.69 10.01 16.62 9.75 15.11 6.1 16.62 2.45 19.69 2.19 20.32 2.17 20.42 2.17 20.51 2.17 20.59 2.17M20.59 0C20.49 0 20.38 0 20.28 0 18.05 0.05 14.33 1.39 12.8 6.09 14.33 10.79 18.06 12.14 20.28 12.18 20.39 12.18 20.49 12.18 20.59 12.18 22.95 12.18 24.42 11.55 26.19 10.41 28.04 9.22 31.2 6.07 31.2 6.07 31.2 6.07 28.05 2.93 26.19 1.73 24.43 0.63 22.95 0 20.59 0L20.59 0 20.59 0 20.59 0Z" class="st1 MsftOfcResponsive_Fill_7823dc" fill="#7823DC"/><path d="M9 5.74 9 5.74 9.2 5.74C9.62 5.75 11.63 5.92 12.71 8.29 11.64 10.65 9.63 10.83 9.2 10.84L9 10.84C7.66 10.84 6.92 10.51 5.84 9.82 5.36 9.52 4.66 8.92 3.96 8.29 4.65 7.67 5.36 7.08 5.84 6.76 6.91 6.08 7.66 5.74 9 5.74M9 3.58C7.19 3.58 6.04 4.07 4.67 4.95 3.23 5.86 0.8 8.29 0.8 8.29 0.8 8.29 3.23 10.72 4.67 11.64 6.04 12.52 7.18 13.01 9 13.01 9.08 13.01 9.16 13.01 9.24 13.01 10.96 12.97 13.83 11.94 15.02 8.3 13.84 4.66 10.96 3.63 9.24 3.59 9.16 3.58 9.07 3.58 9 3.58L9 3.58 9 3.58 9 3.58Z" class="st1 MsftOfcResponsive_Fill_7823dc" fill="#7823DC"/><path d="M12.79 6.47 14.96 6.47 14.96 19.85 12.79 19.85 12.79 6.47Z" class="st1 MsftOfcResponsive_Fill_7823dc" fill="#7823DC"/></g><g id="Layer_2"></g></svg>