<svg viewBox="0 0 32 32" xmlns="http://www.w3.org/2000/svg" xmlns:xlink="http://www.w3.org/1999/xlink" xml:space="preserve" overflow="hidden"><style>
.MsftOfcResponsive_Fill_7823dc {
 fill:#7823DC; 
}
</style>
<g id="Layer_3"></g><g id="Layer_1"></g><g id="Layer_2"><path d="M8 31.99 0.98 31.99 0.98 23.85C1.11 22.26 1.69 21.1 2.69 20.33 4.41 19.02 6.72 19.42 6.82 19.44 10.23 20.07 11.32 17.66 11.33 17.64L11.41 17.49C12.67 15.55 11.17 13.34 11.1 13.25 9.24 10.68 8.75 7.93 8.73 7.81 7.78 2.02 10.95-0.12 11.09-0.21L12.18 1.47 11.64 0.63 12.2 1.46C12.1 1.52 9.98 3.05 10.7 7.48 10.7 7.49 11.14 9.9 12.73 12.09 12.83 12.24 15.06 15.45 13.13 18.52 12.5 19.88 10.34 22.13 6.46 21.42 6.45 21.42 4.91 21.16 3.9 21.94 3.36 22.34 3.06 23 2.98 23.93L2.98 29.98 6 29.98 6 23.32 7.42 23.98C7.53 24.03 18.86 29.16 25.74 22.21 25.79 22.16 29.99 17.89 29.19 11.83 29.18 11.74 28.78 7.27 26.22 5.41 25.13 4.62 23.81 4.42 22.18 4.8 22.12 4.82 22.01 4.85 21.88 4.89 20.94 5.2 19.4 5.71 18.42 5.02 18.17 4.88 17.96 4.64 17.85 4.35 17.6 3.72 17.77 2.92 18.4 1.85L19.57-0.03 21.27 1.02 20.11 2.88C19.99 3.08 19.91 3.24 19.86 3.37 20.15 3.32 20.62 3.2 21.26 2.99 21.46 2.92 21.62 2.87 21.72 2.85 23.92 2.34 25.83 2.65 27.4 3.8 30.69 6.2 31.15 11.4 31.17 11.62 32.1 18.64 27.35 23.43 27.15 23.63 20.76 30.08 11.52 27.65 8 26.37L8 31.99Z" class="MsftOfcResponsive_Fill_7823dc" fill="#7823DC"/><path d="M19.61 13.4C19.12 11.57 17.32 11.11 17.24 11.09L17.13 11.06C15.94 10.63 15.01 10 14.29 9.13 12.82 7.26 13.33 4.57 13.36 4.46 13.85 1.91 15.14 0.11 15.19 0.04L16.81 1.21 16 0.63 16.81 1.21C16.8 1.23 15.72 2.74 15.32 4.85 15.22 5.38 15.12 6.95 15.85 7.88 16.14 8.23 16.67 8.77 17.77 9.17 18.24 9.3 20.79 10.1 21.54 12.89L19.61 13.4Z" class="MsftOfcResponsive_Fill_7823dc" fill="#7823DC"/><path d="M21.22 18.78C19.55 18.78 18.19 17.42 18.19 15.75 18.19 14.08 19.55 12.72 21.22 12.72 22.89 12.72 24.25 14.08 24.25 15.75 24.25 17.42 22.9 18.78 21.22 18.78ZM21.22 14.71C20.65 14.71 20.19 15.17 20.19 15.74 20.19 16.31 20.65 16.77 21.22 16.77 21.79 16.77 22.25 16.31 22.25 15.74 22.26 15.18 21.79 14.71 21.22 14.71Z" class="MsftOfcResponsive_Fill_7823dc" fill="#7823DC"/><rect x="13.95" y="18.81" width="4.16" height="2" class="MsftOfcResponsive_Fill_7823dc" fill="#7823DC" transform="matrix(0.8545 -0.5195 0.5195 0.8545 -7.9568 11.2126)"/><rect x="18.38" y="20.88" width="3.7" height="2" class="MsftOfcResponsive_Fill_7823dc" fill="#7823DC" transform="matrix(0.38 -0.925 0.925 0.38 -7.6992 32.2824)"/></g></svg>