<svg viewBox="0 0 31.99 31.99" xmlns="http://www.w3.org/2000/svg" xmlns:xlink="http://www.w3.org/1999/xlink" id="Layer_1" overflow="hidden"><style>
.MsftOfcResponsive_Fill_7823dc {
 fill:#7823DC; 
}
</style>
<defs></defs><path d="M31.73 29.33C31.28 28.77 30.6 27.92 29.29 27.92 27.98 27.92 27.3 28.77 26.85 29.33 26.43 29.86 26.28 29.99 25.97 29.99 25.66 29.99 25.51 29.86 25.09 29.33 24.64 28.77 23.96 27.92 22.65 27.92 21.34 27.92 20.66 28.77 20.21 29.33 19.79 29.86 19.64 29.99 19.33 29.99 19.02 29.99 18.87 29.86 18.45 29.33 18 28.77 17.32 27.92 16.01 27.92 14.7 27.92 14.02 28.77 13.57 29.33 13.15 29.86 13 29.99 12.69 29.99 12.38 29.99 12.23 29.86 11.81 29.33 11.36 28.77 10.68 27.92 9.36 27.92 8.04 27.92 7.37 28.77 6.91 29.33 6.48 29.86 6.34 29.99 6.03 29.99 5.72 29.99 5.57 29.86 5.14 29.33 4.69 28.77 4.01 27.92 2.69 27.92 1.38 27.92 0.69 28.77 0.24 29.33 0.16 29.43 0.1 29.5 0.04 29.57L0.04 31.9C0.91 31.67 1.43 31.04 1.8 30.58 2.23 30.05 2.38 29.92 2.69 29.92 3 29.92 3.15 30.05 3.58 30.58 4.03 31.14 4.71 31.99 6.03 31.99 7.35 31.99 8.02 31.14 8.48 30.58 8.91 30.05 9.05 29.92 9.36 29.92 9.67 29.92 9.82 30.05 10.24 30.58 10.69 31.14 11.37 31.99 12.68 31.99 13.99 31.99 14.67 31.14 15.12 30.58 15.54 30.05 15.69 29.92 16 29.92 16.31 29.92 16.46 30.05 16.88 30.58 17.33 31.14 18.01 31.99 19.32 31.99 20.63 31.99 21.31 31.14 21.76 30.58 22.18 30.05 22.33 29.92 22.64 29.92 22.95 29.92 23.1 30.05 23.52 30.58 23.97 31.14 24.65 31.99 25.96 31.99 27.27 31.99 27.95 31.14 28.4 30.58 28.82 30.05 28.97 29.92 29.28 29.92 29.59 29.92 29.74 30.05 30.16 30.58 30.53 31.05 31.07 31.7 31.99 31.92L31.99 29.65C31.91 29.56 31.83 29.46 31.72 29.33Z" class="MsftOfcResponsive_Fill_7823dc" fill="#7823DC"/><path d="M31.73 23.4C31.28 22.84 30.6 21.99 29.29 21.99 27.98 21.99 27.3 22.84 26.85 23.4 26.43 23.93 26.28 24.06 25.97 24.06 25.66 24.06 25.51 23.93 25.09 23.4 24.64 22.84 23.96 21.99 22.65 21.99 21.34 21.99 20.66 22.84 20.21 23.4 19.79 23.93 19.64 24.06 19.33 24.06 19.02 24.06 18.87 23.93 18.45 23.4 18 22.84 17.32 21.99 16.01 21.99 14.7 21.99 14.02 22.84 13.57 23.4 13.15 23.93 13 24.06 12.69 24.06 12.38 24.06 12.23 23.93 11.81 23.4 11.36 22.84 10.68 21.99 9.36 21.99 8.04 21.99 7.37 22.84 6.91 23.4 6.48 23.93 6.34 24.06 6.03 24.06 5.72 24.06 5.57 23.93 5.14 23.4 4.69 22.84 4.01 21.99 2.69 21.99 1.38 21.99 0.69 22.84 0.24 23.4 0.16 23.5 0.1 23.57 0.04 23.64L0.04 25.97C0.91 25.74 1.43 25.11 1.8 24.65 2.23 24.12 2.38 23.99 2.69 23.99 3 23.99 3.15 24.12 3.58 24.65 4.03 25.21 4.71 26.06 6.03 26.06 7.35 26.06 8.02 25.21 8.48 24.65 8.91 24.12 9.05 23.99 9.36 23.99 9.67 23.99 9.82 24.12 10.24 24.65 10.69 25.21 11.37 26.06 12.68 26.06 13.99 26.06 14.67 25.21 15.12 24.65 15.54 24.12 15.69 23.99 16 23.99 16.31 23.99 16.46 24.12 16.88 24.65 17.33 25.21 18.01 26.06 19.32 26.06 20.63 26.06 21.31 25.21 21.76 24.65 22.18 24.12 22.33 23.99 22.64 23.99 22.95 23.99 23.1 24.12 23.52 24.65 23.97 25.21 24.65 26.06 25.96 26.06 27.27 26.06 27.95 25.21 28.4 24.65 28.82 24.12 28.97 23.99 29.28 23.99 29.59 23.99 29.74 24.12 30.16 24.65 30.53 25.12 31.07 25.77 31.99 25.99L31.99 23.72C31.91 23.63 31.83 23.53 31.72 23.4Z" class="MsftOfcResponsive_Fill_7823dc" fill="#7823DC"/><path d="M31.73 17.37C31.28 16.81 30.6 15.96 29.29 15.96 27.98 15.96 27.3 16.81 26.85 17.37 26.43 17.9 26.28 18.03 25.97 18.03 25.66 18.03 25.51 17.9 25.09 17.37 24.64 16.81 23.96 15.96 22.65 15.96 21.34 15.96 20.66 16.81 20.21 17.37 19.79 17.9 19.64 18.03 19.33 18.03 19.02 18.03 18.87 17.9 18.45 17.37 18 16.81 17.32 15.96 16.01 15.96 14.7 15.96 14.02 16.81 13.57 17.37 13.15 17.9 13 18.03 12.69 18.03 12.38 18.03 12.23 17.9 11.81 17.37 11.36 16.81 10.68 15.96 9.36 15.96 8.04 15.96 7.37 16.81 6.91 17.37 6.48 17.9 6.34 18.03 6.03 18.03 5.72 18.03 5.57 17.9 5.14 17.37 4.69 16.81 4.01 15.96 2.69 15.96 1.38 15.96 0.69 16.81 0.24 17.37 0.16 17.47 0.1 17.54 0.04 17.61L0.04 19.94C0.91 19.71 1.43 19.08 1.8 18.62 2.23 18.09 2.38 17.96 2.69 17.96 3 17.96 3.15 18.09 3.58 18.62 4.03 19.18 4.71 20.03 6.03 20.03 7.35 20.03 8.02 19.18 8.48 18.62 8.91 18.09 9.05 17.96 9.36 17.96 9.67 17.96 9.82 18.09 10.24 18.62 10.69 19.18 11.37 20.03 12.68 20.03 13.99 20.03 14.67 19.18 15.12 18.62 15.54 18.09 15.69 17.96 16 17.96 16.31 17.96 16.46 18.09 16.88 18.62 17.33 19.18 18.01 20.03 19.32 20.03 20.63 20.03 21.31 19.18 21.76 18.62 22.18 18.09 22.33 17.96 22.64 17.96 22.95 17.96 23.1 18.09 23.52 18.62 23.97 19.18 24.65 20.03 25.96 20.03 27.27 20.03 27.95 19.18 28.4 18.62 28.82 18.09 28.97 17.96 29.28 17.96 29.59 17.96 29.74 18.09 30.16 18.62 30.53 19.09 31.07 19.74 31.99 19.96L31.99 17.69C31.91 17.6 31.83 17.5 31.72 17.37Z" class="MsftOfcResponsive_Fill_7823dc" fill="#7823DC"/><rect x="25.99" y="2.24" width="2" height="7.74" class="MsftOfcResponsive_Fill_7823dc" fill="#7823DC"/><path d="M29.41 5.24 26.99 2.83 24.58 5.24 23.16 3.83 26.99 0 30.82 3.83 29.41 5.24Z" class="MsftOfcResponsive_Fill_7823dc" fill="#7823DC"/><rect x="14.99" y="2.24" width="2" height="7.74" class="MsftOfcResponsive_Fill_7823dc" fill="#7823DC"/><path d="M18.41 5.24 15.99 2.83 13.58 5.24 12.16 3.83 15.99 0 19.82 3.83 18.41 5.24Z" class="MsftOfcResponsive_Fill_7823dc" fill="#7823DC"/><rect x="3.99" y="2.24" width="2" height="7.74" class="MsftOfcResponsive_Fill_7823dc" fill="#7823DC"/><path d="M7.41 5.24 4.99 2.83 2.58 5.24 1.16 3.83 4.99 0 8.82 3.83 7.41 5.24Z" class="MsftOfcResponsive_Fill_7823dc" fill="#7823DC"/></svg>