<svg viewBox="0 0 31.94 31.85" xmlns="http://www.w3.org/2000/svg" xmlns:xlink="http://www.w3.org/1999/xlink" id="Layer_1" overflow="hidden"><style>
.MsftOfcResponsive_Fill_7823dc {
 fill:#7823DC; 
}
</style>
<defs></defs><path d="M15.97 31.84C15.2 31.84 14.43 31.62 13.7 31.18L13.67 31.16C11.23 29.67 9.67 26.06 9.67 21.92 9.67 21.04 9.83 20.07 10.16 19.04L10.19 18.96C11.32 15.43 14.09 12.03 15.23 10.73L15.98 9.87 16.73 10.73C17.45 11.55 18.84 13.23 20.05 15.27L20.17 15.48C21.56 17.85 22.28 20.04 22.28 21.92 22.28 27.48 19.51 31.84 15.98 31.84ZM12.04 19.71C11.79 20.54 11.66 21.28 11.66 21.92 11.66 25.28 12.91 28.38 14.7 29.45L14.2 30.32 14.71 29.46C17.51 31.12 20.26 26.96 20.26 21.92 20.26 20.42 19.65 18.61 18.45 16.54L18.38 16.43C18.34 16.37 18.31 16.31 18.27 16.24 17.49 14.93 16.62 13.78 15.95 12.94 14.71 14.47 12.87 17.04 12.05 19.62L12.03 19.7Z" class="MsftOfcResponsive_Fill_7823dc" stroke-width="0" fill="#7823DC"/><path d="M22.27 10.18 20.27 10.18C20.27 9.01 19.67 7.53 18.53 5.87L18.47 5.82 18.41 5.7C18.41 5.7 18.35 5.62 18.33 5.57 17.53 4.46 16.65 3.48 15.97 2.78 14.81 3.98 12.87 6.19 12.05 8.36L12.02 8.44C11.78 9.1 11.67 9.67 11.67 10.17L9.67 10.17C9.67 9.39 9.84 8.57 10.18 7.67L10.21 7.58C11.37 4.59 14.14 1.74 15.28 0.65L15.97-0.01 16.66 0.65C17.38 1.34 18.78 2.75 19.99 4.46L20.05 4.5 20.12 4.65C21.54 6.7 22.27 8.56 22.27 10.17Z" class="MsftOfcResponsive_Fill_7823dc" stroke-width="0" fill="#7823DC"/><path d="M28.71 18.43 26.89 17.59C27.52 16.22 27.72 14.3 27.49 11.89 27.47 11.8 27.46 11.7 27.46 11.6 27.29 10.08 26.99 8.68 26.73 7.64 24.97 8.51 22.22 10.07 20.39 12.08L20.34 12.13C19.77 12.77 19.34 13.39 19.07 13.99L17.25 13.16C17.62 12.35 18.16 11.56 18.9 10.75L18.96 10.68C21.5 7.93 25.4 6.01 26.97 5.31L28.01 4.84 28.34 5.93C28.65 6.98 29.21 9.08 29.46 11.44L29.46 11.51C29.46 11.51 29.46 11.53 29.46 11.53L29.46 11.62C29.75 14.42 29.49 16.71 28.7 18.42Z" class="MsftOfcResponsive_Fill_7823dc" stroke-width="0" fill="#7823DC"/><path d="M3.23 18.43C2.44 16.72 2.18 14.43 2.46 11.63L2.49 11.42C2.74 9.05 3.29 6.98 3.6 5.94L3.92 4.85 4.96 5.32C6.54 6.03 10.47 7.96 12.98 10.7L13.04 10.76C13.78 11.57 14.31 12.36 14.69 13.17L12.87 14C12.6 13.41 12.17 12.79 11.61 12.16L11.5 12.04C9.71 10.07 6.97 8.51 5.2 7.64 4.93 8.68 4.63 10.09 4.47 11.6 4.47 11.7 4.47 11.79 4.44 11.88 4.21 14.29 4.41 16.21 5.04 17.59L3.22 18.43Z" class="MsftOfcResponsive_Fill_7823dc" stroke-width="0" fill="#7823DC"/><path d="M19.79 31.85C19.07 31.85 18.34 31.71 17.6 31.41L16.12 30.82 17.3 29.75C19.07 28.14 20.17 25.05 20.17 21.7 20.17 21.09 20.09 20.44 19.92 19.75L19.75 19.05 20.36 18.67C24.19 16.25 29.17 16.65 30.81 16.79L31.95 16.88 31.71 18C31.17 20.47 29.55 26.51 26.03 29.12 23.83 30.75 21.85 31.86 19.81 31.86ZM22.01 20.01C22.11 20.59 22.16 21.16 22.16 21.69 22.16 24.86 21.32 27.77 19.85 29.84 21.18 29.81 22.69 29.08 24.82 27.5L24.82 27.5C27.39 25.59 28.85 21.12 29.47 18.69 27.62 18.61 24.55 18.67 22.01 20Z" class="MsftOfcResponsive_Fill_7823dc" stroke-width="0" fill="#7823DC"/><path d="M12.15 31.85C10.11 31.85 8.13 30.75 5.93 29.11 2.4 26.5 0.78 20.47 0.24 17.99L0 16.87 1.14 16.78C2.78 16.65 7.76 16.24 11.59 18.66L12.2 19.04 12.03 19.74C11.86 20.43 11.78 21.08 11.78 21.69 11.78 25.04 12.88 28.12 14.65 29.74L15.83 30.81 14.35 31.4C13.6 31.7 12.88 31.84 12.16 31.84ZM2.46 18.7C3.08 21.12 4.54 25.6 7.11 27.51 9.24 29.09 10.75 29.82 12.08 29.85 10.61 27.78 9.77 24.87 9.77 21.7 9.77 21.16 9.82 20.6 9.92 20.02 7.38 18.69 4.31 18.62 2.46 18.71Z" class="MsftOfcResponsive_Fill_7823dc" stroke-width="0" fill="#7823DC"/></svg>