<svg viewBox="0 0 32 32" xmlns="http://www.w3.org/2000/svg" xmlns:xlink="http://www.w3.org/1999/xlink" id="Text" overflow="hidden"><style>
.MsftOfcResponsive_Fill_7823dc {
 fill:#7823DC; 
}
</style>
<defs></defs><path d="M25 29 25 29C26.1046 29 27 29.8954 27 31L27 33 27 33 25 33 25 33 25 29 25 29Z" class="MsftOfcResponsive_Fill_7823dc" fill="#7823DC" transform="matrix(6.12323e-17 1 -1 6.12323e-17 57.01 4.98)"/><path d="M20.36 14.4 21.77 12.98 26.53 17.74 25.44 19.48 20.36 14.4Z" class="MsftOfcResponsive_Fill_7823dc" fill="#7823DC"/><path d="M25 17 27 17 27 17 27 28C27 29.1046 26.1046 30 25 30L25 30 25 30 25 17 25 17Z" class="MsftOfcResponsive_Fill_7823dc" fill="#7823DC" transform="matrix(-1 1.22465e-16 -1.22465e-16 -1 52.09 47.01)"/><path d="M25 30 27 30 27 30 27 30C27 31.1046 26.1046 32 25 32L25 32 25 32 25 30 25 30Z" class="MsftOfcResponsive_Fill_7823dc" fill="#7823DC"/><path d="M31.76 14.31 30.34 12.9 25.36 17.82 26.84 19.3 31.76 14.31Z" class="MsftOfcResponsive_Fill_7823dc" fill="#7823DC"/><path d="M26 0C23.7909 0 22 1.79086 22 4 22 6.20914 23.7909 8 26 8 28.2091 8 30 6.20914 30 4 30 1.79086 28.2091 -8.88178e-16 26 -8.88178e-16ZM26 6C24.8954 6 24 5.10457 24 4 24 2.89543 24.8954 2 26 2 27.1046 2 28 2.89543 28 4 28 5.10457 27.1046 6 26 6Z" class="MsftOfcResponsive_Fill_7823dc" fill="#7823DC"/><circle cx="18.02" cy="31" r="1.01" class="MsftOfcResponsive_Fill_7823dc" fill="#7823DC"/><path d="M32 11.3 32 21.99 30 21.99 30 9.27 31 10.28 32 11.3Z" class="MsftOfcResponsive_Fill_7823dc" fill="#7823DC"/><path d="M20 11.3 20 21.99 22 21.99 22 9.27 21 10.28 20 11.3Z" class="MsftOfcResponsive_Fill_7823dc" fill="#7823DC"/><rect x="21.03" y="21.44" width="2" height="10.56" class="MsftOfcResponsive_Fill_7823dc" fill="#7823DC"/><rect x="29" y="21.44" width="2" height="10.56" class="MsftOfcResponsive_Fill_7823dc" fill="#7823DC"/><path d="M28.99 8.26 30 9.27 22 9.27 23.01 8.28 24.03 7.27 27.98 7.27 28.99 8.26Z" class="MsftOfcResponsive_Fill_7823dc" fill="#7823DC"/><rect x="0" y="4" width="2" height="28" class="MsftOfcResponsive_Fill_7823dc" fill="#7823DC"/><rect x="25" y="14.99" width="2" height="12" class="MsftOfcResponsive_Fill_7823dc" fill="#7823DC" transform="matrix(6.12323e-17 1 -1 6.12323e-17 46.99 -5.01)"/><rect x="6" y="5.99" width="2" height="14" class="MsftOfcResponsive_Fill_7823dc" fill="#7823DC" transform="matrix(6.12323e-17 1 -1 6.12323e-17 20 5.99)"/><path d="M12 7.99 0 7.99 0 5.99 9.6 5.99 12 7.99Z" class="MsftOfcResponsive_Fill_7823dc" fill="#7823DC"/><path d="M14 9.99 14 12.99 12 12.99 12 7.99 14 9.99Z" class="MsftOfcResponsive_Fill_7823dc" fill="#7823DC"/></svg>