<svg viewBox="0 0 32 32" xmlns="http://www.w3.org/2000/svg" xmlns:xlink="http://www.w3.org/1999/xlink" id="Graphic" overflow="hidden"><style>
.MsftOfcResponsive_Fill_7823dc {
 fill:#7823DC; 
}
</style>
<defs></defs><path d="M29.3988 18.0704 20.8 20.7806 20.8 17.3197 18.5762 17.5702 15.3032 17.9387 10.1393 16.0945 9.30409 15.7961 8.52223 16.215 5.29292 17.945 0 17.945 0 27.978 5.32281 27.978 15.1631 31.968 30.9445 23.7409 32 23.1754 32 17.2506ZM30 21.9779 15.0667 29.7507 5.73334 25.9779 2 25.9779 2 19.945 5.79486 19.945 9.46667 17.978 15.0667 19.978 18.8 19.5576 18.8 21.5576 17.7167 21.9087 13.9537 22.6704 13.9537 24.5261 17.9065 23.7981 17.9072 23.7894 30 19.9779Z" class="MsftOfcResponsive_Fill_7823dc" fill="#7823DC"/><path d="M2.6012 13.9296 11.2 11.2194 11.2 14.6803 13.4238 14.4298 16.6968 14.0613 21.8606 15.9055 22.6959 16.2039 23.4778 15.785 26.7071 14.055 32 14.055 32 4.02206 26.6772 4.02206 16.8369 0.032 1.05554 8.25912 0 8.82461 0 14.7494ZM2 10.0221 16.9333 2.24926 26.2667 6.02206 30 6.02206 30 12.0551 26.2051 12.0551 22.5333 14.0221 16.9333 12.0221 13.2 12.4424 13.2 10.4424 14.2832 10.0913 18.0462 9.32962 18.0462 7.47385 14.0935 8.20185 14.0928 8.21064 2 12.0221Z" class="MsftOfcResponsive_Fill_7823dc" fill="#7823DC"/></svg>