<svg viewBox="0 0 29.22 29.22" xmlns="http://www.w3.org/2000/svg" xmlns:xlink="http://www.w3.org/1999/xlink" id="Layer_5" overflow="hidden"><defs></defs><path d="M17.67 14.12 15.66 14.44C15.56 14.18 15.47 14.01 15.39 13.91 15.31 13.81 15.17 13.71 14.99 13.61L14.99 15.17C16.09 15.46 16.82 15.77 17.19 16.1 17.68 16.54 17.92 17.09 17.92 17.76 17.92 18.15 17.83 18.51 17.66 18.84 17.48 19.17 17.26 19.44 16.99 19.66 16.72 19.88 16.43 20.04 16.12 20.14 15.81 20.24 15.44 20.3 14.99 20.32L14.99 21.34 14.2 21.34 14.2 20.32C13.67 20.27 13.24 20.19 12.91 20.06 12.58 19.93 12.3 19.76 12.06 19.54 11.82 19.32 11.64 19.08 11.51 18.83 11.38 18.58 11.28 18.27 11.22 17.91L13.41 17.66C13.47 18.02 13.56 18.28 13.67 18.43 13.78 18.59 13.96 18.73 14.21 18.85L14.21 16.94C13.48 16.74 12.96 16.56 12.66 16.41 12.36 16.26 12.09 16.02 11.87 15.7 11.65 15.37 11.53 14.98 11.53 14.51 11.53 13.87 11.75 13.33 12.2 12.9 12.65 12.47 13.32 12.23 14.2 12.18L14.2 11.65 14.99 11.65 14.99 12.18C15.8 12.23 16.42 12.42 16.84 12.75 17.27 13.08 17.55 13.54 17.68 14.11ZM14.19 13.58C13.96 13.66 13.8 13.75 13.71 13.86 13.62 13.97 13.57 14.1 13.57 14.26 13.57 14.42 13.62 14.56 13.71 14.68 13.8 14.8 13.96 14.9 14.19 14.98L14.19 13.59ZM14.98 18.9C15.29 18.83 15.51 18.72 15.65 18.56 15.79 18.4 15.86 18.23 15.86 18.03 15.86 17.86 15.8 17.7 15.68 17.56 15.56 17.42 15.32 17.28 14.97 17.16L14.97 18.9Z" stroke-width="0" fill="#7823DC"/><path d="M14.56 0.05 0 6.72 0 29.21 29.22 29.21 29.22 6.72 14.56 0.05 14.56 0.05ZM27.39 27.39 1.83 27.39 1.83 7.96 14.56 2.02 27.39 7.96 27.39 27.39 27.39 27.39Z" stroke-width="0" fill="#7823DC"/></svg>