<svg viewBox="0 0 32 32" xmlns="http://www.w3.org/2000/svg" xmlns:xlink="http://www.w3.org/1999/xlink" id="Layer_1" overflow="hidden"><style>
.MsftOfcResponsive_Fill_7823dc {
 fill:#7823DC; 
}
</style>
<path d="M16.5 23C18.4 23 20 24.6 20 26.5 20 28.4 18.4 30 16.5 30 14.6 30 13 28.4 13 26.5 13 24.6 14.6 23 16.5 23M16.5 21C13.5 21 11 23.5 11 26.5 11 29.5 13.5 32 16.5 32 19.5 32 22 29.5 22 26.5 22 23.5 19.5 21 16.5 21L16.5 21Z" class="MsftOfcResponsive_Fill_7823dc" fill="#7823DC"/><path d="M5 25.8C6.2 25.8 7.1 26.8 7.1 27.9 7.1 29 6.2 30 5 30 3.8 30 2.9 29 2.9 27.9 2.9 26.8 3.9 25.8 5 25.8M5 23.8C2.7 23.8 0.9 25.6 0.9 27.9 0.9 30.2 2.8 32 5 32 7.2 32 9.1 30.2 9.1 27.9 9.1 25.6 7.3 23.8 5 23.8L5 23.8Z" class="MsftOfcResponsive_Fill_7823dc" fill="#7823DC"/><path d="M2.8 29.3 0 29.3 0 16.3 12.2 16.3 15 17.8 21.2 17.8 21.2 24 19.2 24 19.2 19.8 14.5 19.8 11.8 18.3 2 18.3 2 27.3 2.8 27.3Z" class="MsftOfcResponsive_Fill_7823dc" fill="#7823DC"/><rect x="7.2" y="27.3" width="5.8" height="2" class="MsftOfcResponsive_Fill_7823dc" fill="#7823DC"/><path d="M17.5 19.6 12.3 8.2 2.9 8.2 2.9 17.6 0.9 17.6 0.9 6.2 13.6 6.2 19.3 18.8Z" class="MsftOfcResponsive_Fill_7823dc" fill="#7823DC"/><path d="M32 26 24.5 26 14.2 2.4 16.1 1.6 25.8 24 32 24Z" class="MsftOfcResponsive_Fill_7823dc" fill="#7823DC"/></svg>