<svg viewBox="0 0 32 32" xmlns="http://www.w3.org/2000/svg" xmlns:xlink="http://www.w3.org/1999/xlink" id="Layer_2_1_" xml:space="preserve" overflow="hidden"><path d="M32 29.4 32 32 20.4 22.8 21.6 21.2Z" fill="#7823DC"/><g><path d="M12.9 2C18.9 2 23.8 6.9 23.8 12.9 23.8 18.9 18.9 23.8 12.9 23.8 6.9 23.8 2 18.9 2 12.9 2 6.9 6.9 2 12.9 2M12.9 0C5.8 0 0 5.8 0 12.9 0 20 5.8 25.8 12.9 25.8 20 25.8 25.8 20 25.8 12.9 25.8 5.8 20 0 12.9 0L12.9 0 12.9 0 12.9 0Z" fill="#7823DC" fill-rule="evenodd" clip-rule="evenodd"/><g><path d="M11.7 7.7C8.2 7.7 5.4 10.5 5.4 14 5.4 17.5 8.2 20.3 11.7 20.3 15.2 20.3 18 17.5 18 14L11.7 14 11.7 7.7 11.7 7.7Z" fill="#7823DC" fill-rule="evenodd" clip-rule="evenodd"/><path d="M20.4 11.9C20.4 8.4 17.6 5.6 14.1 5.6L14.1 11.9 20.4 11.9 20.4 11.9Z" fill="#7823DC" fill-rule="evenodd" clip-rule="evenodd"/></g></g></svg>