<svg viewBox="0 0 32 32" xmlns="http://www.w3.org/2000/svg" xmlns:xlink="http://www.w3.org/1999/xlink" id="Graphic" overflow="hidden"><defs></defs><path d="M24 2 24 8C24 12.4183 20.4183 16 16 16 11.5817 16 8 12.4183 8 8L8 2 24 2M26 0 6 0 6 8C6 13.5228 10.4772 18 16 18L16 18C21.5228 18 26 13.5228 26 8L26 0Z" fill="#7823DC"/><path d="M24.79 4 6.79 4 6.79 6 24.79 6 24.79 4 24.79 4Z" fill="#7823DC"/><path d="M17 16.55 15 16.55 15 30 17 30 17 16.55 17 16.55Z" fill="#7823DC"/><path d="M22 30 10 30 10 32 22 32 22 30 22 30Z" fill="#7823DC"/></svg>