<svg viewBox="0 0 31.99 32" xmlns="http://www.w3.org/2000/svg" xmlns:xlink="http://www.w3.org/1999/xlink" id="Layer_1" overflow="hidden"><style>
.MsftOfcThm_Text2_Fill_v2 {
 fill:#7823DC; 
}
</style>
<path d="M2 32 0 32 0 25.8C0 13.94 0 0.5 29.3 0 30.06 0 30.71 0.26 31.2 0.72 31.71 1.2 31.99 1.85 31.99 2.53 31.71 18.63 24.09 26.79 9.33 26.79L9.33 24.79C22.98 24.79 29.73 17.5 29.99 2.51 29.99 2.36 29.9 2.24 29.83 2.18 29.71 2.06 29.54 2 29.35 2 2 2.47 2 14.33 2 25.79L2 31.99Z" class="MsftOfcThm_Text2_Fill_v2" fill="#7823DC"/><path d="M2 25.8 0 25.8C0 25.69 0.16 15.58 14.22 13.95L14.45 15.94C2.22 17.36 2 25.46 2 25.8Z" class="MsftOfcThm_Text2_Fill_v2" fill="#7823DC"/></svg>