<svg viewBox="0 0 32 32" xmlns="http://www.w3.org/2000/svg" xmlns:xlink="http://www.w3.org/1999/xlink" id="Graphic" overflow="hidden"><defs></defs><path d="M16 1.5 9 5.5 9 13.5 11 14.63 16 17.5 21 14.63 23 13.5 23 5.5ZM16 3.8 19 5.5 16 7.2 13 5.5ZM11 6.63 15 8.94 15 14.64 11 12.33ZM21 12.33 17 14.63 17 8.93 21 6.63Z" fill="#7823DC"/><path d="M8 14.5 1 18.5 1 26.5 3 27.63 8 30.5 13 27.63 15 26.5 15 18.5ZM8 16.8 11 18.5 8 20.2 5 18.5ZM3 19.63 7 21.94 7 27.64 3 25.33ZM13 25.33 9 27.63 9 21.93 13 19.63Z" fill="#7823DC"/><path d="M24 14.5 17 18.5 17 26.5 19 27.63 24 30.5 29 27.63 31 26.5 31 18.5ZM24 16.8 27 18.5 24 20.2 21 18.5ZM19 19.63 23 21.94 23 27.64 19 25.33ZM29 25.33 25 27.63 25 21.93 29 19.63Z" fill="#7823DC"/></svg>