<svg viewBox="0 0 32 32" xmlns="http://www.w3.org/2000/svg" xmlns:xlink="http://www.w3.org/1999/xlink" id="Layer_1" overflow="hidden"><path d="M16 9C19.9 9 23 12.1 23 16 23 19.9 19.9 23 16 23 12.1 23 9 19.9 9 16 9 12.1 12.1 9 16 9M16 7C11 7 7 11 7 16 7 21 11 25 16 25 21 25 25 21 25 16 25 11 21 7 16 7L16 7Z" fill="#7823DC"/><rect x="15" y="5" width="2" height="3" fill="#7823DC"/><rect x="15" y="24" width="2" height="4" fill="#7823DC"/><rect x="5" y="15" width="3" height="2" fill="#7823DC"/><rect x="23.8" y="15" width="3" height="2" fill="#7823DC"/><path d="M16 16.2C14.3 16.2 13 14.9 13 13.2 13 11.5 14.3 10.2 16 10.2 17.7 10.2 19 11.5 19 13.2 19 14.9 17.7 16.2 16 16.2L16 16.2ZM16 12.2C15.4 12.2 15 12.6 15 13.2 15 13.8 15.4 14.2 16 14.2 16.6 14.2 17 13.8 17 13.2 17 12.6 16.6 12.2 16 12.2L16 12.2Z" fill="#7823DC" fill-rule="evenodd" clip-rule="evenodd"/><path d="M18 16.7 16 19.4 14 16.7 12 16.7 12 20.7 14 20.7 18 20.7 20 20.7 20 16.7 18 16.7Z" fill="#7823DC" fill-rule="evenodd" clip-rule="evenodd"/><path d="M16 6C14.3 6 13 4.7 13 3 13 1.3 14.3 0 16 0 17.7 0 19 1.3 19 3 19 4.7 17.7 6 16 6L16 6ZM16 2C15.4 2 15 2.4 15 3 15 3.6 15.4 4 16 4 16.6 4 17 3.6 17 3 17 2.4 16.6 2 16 2L16 2Z" fill="#7823DC" fill-rule="evenodd" clip-rule="evenodd"/><path d="M16 32C14.3 32 13 30.7 13 29 13 27.3 14.3 26 16 26 17.7 26 19 27.3 19 29 19 30.7 17.7 32 16 32L16 32ZM16 28C15.4 28 15 28.4 15 29 15 29.6 15.4 30 16 30 16.6 30 17 29.6 17 29 17 28.4 16.6 28 16 28L16 28Z" fill="#7823DC" fill-rule="evenodd" clip-rule="evenodd"/><path d="M3 19C1.3 19 0 17.7 0 16 0 14.3 1.3 13 3 13 4.7 13 6 14.3 6 16 6 17.7 4.7 19 3 19L3 19ZM3 15C2.4 15 2 15.4 2 16 2 16.6 2.4 17 3 17 3.6 17 4 16.6 4 16 4 15.4 3.6 15 3 15L3 15Z" fill="#7823DC" fill-rule="evenodd" clip-rule="evenodd"/><path d="M29 19C27.3 19 26 17.7 26 16 26 14.3 27.3 13 29 13 30.7 13 32 14.3 32 16 32 17.7 30.7 19 29 19L29 19ZM29 15C28.4 15 28 15.4 28 16 28 16.6 28.4 17 29 17 29.6 17 30 16.6 30 16 30 15.4 29.6 15 29 15L29 15Z" fill="#7823DC" fill-rule="evenodd" clip-rule="evenodd"/><g><rect x="7.3" y="21.7" width="3" height="2" fill="#7823DC" transform="matrix(0.7071 -0.7071 0.7071 0.7071 -13.5012 12.8574)"/><rect x="22.2" y="21.2" width="2" height="3" fill="#7823DC" transform="matrix(0.7071 -0.7071 0.7071 0.7071 -9.2664 23.081)"/><path d="M6.6 22C8.3 22 9.6 23.3 9.6 25 9.6 26.7 8.3 28 6.6 28 4.9 28 3.6 26.7 3.6 25 3.5 23.3 4.9 22 6.6 22L6.6 22ZM6.6 26C7.2 26 7.6 25.6 7.6 25 7.6 24.4 7.2 24 6.6 24 6 24 5.6 24.4 5.6 25 5.6 25.6 6 26 6.6 26L6.6 26Z" fill="#7823DC" fill-rule="evenodd" clip-rule="evenodd"/><path d="M25.4 22C27.1 22 28.4 23.3 28.4 25 28.4 26.7 27.1 28 25.4 28 23.7 28 22.4 26.7 22.4 25 22.4 23.3 23.7 22 25.4 22L25.4 22ZM25.4 26C26 26 26.4 25.6 26.4 25 26.4 24.4 26 24 25.4 24 24.8 24 24.4 24.4 24.4 25 24.4 25.6 24.8 26 25.4 26L25.4 26Z" fill="#7823DC" fill-rule="evenodd" clip-rule="evenodd"/></g><g><rect x="7.8" y="7.6" width="2" height="3" fill="#7823DC" transform="matrix(0.7071 -0.7071 0.7071 0.7071 -3.8712 8.8686)"/><rect x="21.7" y="8.1" width="3" height="2" fill="#7823DC" transform="matrix(0.7071 -0.7071 0.7071 0.7071 0.3636 19.0922)"/><path d="M6.6 9.8C8.3 9.8 9.6 8.5 9.6 6.8 9.6 5.1 8.3 3.8 6.6 3.8 4.9 3.8 3.6 5.1 3.6 6.8 3.5 8.6 4.9 9.8 6.6 9.8L6.6 9.8ZM6.6 5.9C7.2 5.9 7.6 6.3 7.6 6.9 7.6 7.5 7.2 7.9 6.6 7.9 6 7.9 5.6 7.5 5.6 6.9 5.6 6.3 6 5.9 6.6 5.9L6.6 5.9Z" fill="#7823DC" fill-rule="evenodd" clip-rule="evenodd"/><path d="M25.4 9.8C27.1 9.8 28.4 8.5 28.4 6.8 28.4 5.1 27.1 3.8 25.4 3.8 23.7 3.8 22.4 5.1 22.4 6.8 22.4 8.6 23.7 9.8 25.4 9.8L25.4 9.8ZM25.4 5.9C26 5.9 26.4 6.3 26.4 6.9 26.4 7.5 26 7.9 25.4 7.9 24.8 7.9 24.4 7.5 24.4 6.9 24.4 6.3 24.8 5.9 25.4 5.9L25.4 5.9Z" fill="#7823DC" fill-rule="evenodd" clip-rule="evenodd"/></g></svg>