<svg viewBox="0 0 32 32" xmlns="http://www.w3.org/2000/svg" xmlns:xlink="http://www.w3.org/1999/xlink" id="Layer_2_00000144328325245699140920000014890284756443101063_" xml:space="preserve" overflow="hidden"><path d="M21.8 2 30 10.2 30 21.8 21.8 30 10.2 30 2 21.8 2 10.2 10.2 2 21.8 2M22.6 0 9.4 0 0 9.4 0 22.7 9.4 32 22.7 32 32.1 22.6 32.1 9.4 22.6 0 22.6 0Z" fill="#7823DC"/><path d="M21.8 2 30 10.2 30 21.8 21.8 30 10.2 30 2 21.8 2 10.2 10.2 2 21.8 2M22.6 0 9.4 0 0 9.4 0 22.7 9.4 32 22.7 32 32.1 22.6 32.1 9.4 22.6 0 22.6 0Z" fill="#7823DC"/><path d="M21.9 11.9C21.3 10.9 20.4 10.3 19.3 10.3 18.7 10.3 18.2 10.5 17.7 10.8 17.4 11 17 11.4 16.8 11.8 16.5 12.2 16.3 12.7 16.2 13.3 16 14 15.9 14.9 15.9 16 15.9 17.7 16.2 19 16.8 20 17.4 21 18.3 21.7 19.4 21.7 20.5 21.7 21.4 21.1 22 20 22.6 19 22.9 17.7 22.9 15.9 22.8 14.2 22.5 12.9 21.9 11.9ZM20.7 15.9C20.7 17 20.5 17.8 20.2 18.4 19.7 19.3 18.8 19.3 18.3 18.4 18 17.9 17.8 17 17.8 16 17.8 14.9 17.9 14.1 18.2 13.5 18.5 12.9 18.9 12.8 19.2 12.8 19.5 12.8 19.8 12.9 20.2 13.5 20.6 14 20.7 14.8 20.7 15.9Z" fill="#7823DC"/><path d="M28.7 11.5C28.4 11 28 10.7 27.6 10.5 27.4 10.4 27 10.3 25.9 10.3L23.4 10.3 23.4 21.7 25.5 21.7 25.5 16.4 26 16.4C26.6 16.4 27.1 16.4 27.5 16.3 27.8 16.2 28.1 16 28.3 15.8 28.6 15.6 28.8 15.2 28.9 14.8 29.1 14.4 29.1 13.9 29.1 13.4 29.1 12.6 29 11.9 28.7 11.5ZM27 13.3C27 13.5 27 13.7 26.9 13.9 26.8 14 26.7 14.1 26.6 14.2 26.6 14.2 26.4 14.3 25.8 14.3L25.5 14.3 25.5 12.5 25.8 12.5C26.4 12.5 26.6 12.5 26.6 12.5 26.7 12.5 26.8 12.6 26.9 12.7 27 12.9 27 13.1 27 13.3Z" fill="#7823DC"/><rect x="11.4" y="11.7" width="2" height="10" fill="#7823DC"/><rect x="8.9" y="10.3" width="7" height="2" fill="#7823DC"/><path d="M9.5 18.3C9.5 18.3 9.5 18.3 9.5 18.3L9.5 18.3C9.5 16.4 8.1 14.9 6.4 14.9 5.3 14.9 4.6 14.4 4.6 13.8 4.6 12.9 5.2 12.2 5.9 12.2 6.5 12.2 7 12.8 7 13.6L9 13.6C9 11.7 7.6 10.2 5.9 10.2 4.1 10.2 2.6 11.8 2.6 13.8 2.6 15.5 4.3 16.8 6.4 16.8 7 16.8 7.5 17.4 7.5 18.2 7.5 19 7 19.6 6.4 19.6 5.4 19.6 4.6 18.9 4.6 18L2.6 18C2.6 20 4.3 21.6 6.4 21.6 8 21.7 9.4 20.2 9.5 18.3L9.5 18.3C9.5 18.3 9.5 18.3 9.5 18.3Z" fill="#7823DC"/></svg>