<svg viewBox="0 0 32 32" xmlns="http://www.w3.org/2000/svg" xmlns:xlink="http://www.w3.org/1999/xlink" id="Layer_5" overflow="hidden"><defs></defs><path d="M23.14 21.61C23.14 23.78 24.9 25.54 27.07 25.54 29.24 25.54 31 23.78 31 21.61 31 19.44 29.24 17.68 27.07 17.68 24.9 17.68 23.14 19.44 23.14 21.61ZM27.07 19.68C28.13 19.68 29 20.54 29 21.61 29 22.68 28.13 23.54 27.07 23.54 26.01 23.54 25.14 22.68 25.14 21.61 25.14 20.54 26 19.68 27.07 19.68Z" stroke-width="0" fill="#7823DC"/><path d="M21.99 26.81 21.96 32 23.96 32.01 23.98 28.81 30 28.81 30 31.97 32 31.97 32 26.81 21.99 26.81Z" stroke-width="0" fill="#7823DC"/><path d="M4.93 25.54C7.1 25.54 8.86 23.78 8.86 21.61 8.86 19.44 7.1 17.68 4.93 17.68 2.76 17.68 1 19.44 1 21.61 1 23.78 2.76 25.54 4.93 25.54ZM4.93 19.69C5.99 19.69 6.86 20.55 6.86 21.62 6.86 22.69 6 23.55 4.93 23.55 3.86 23.55 3 22.69 3 21.62 3 20.55 3.86 19.69 4.93 19.69Z" stroke-width="0" fill="#7823DC"/><path d="M0 32 2 32.01 2.02 28.81 8.04 28.81 8.04 31.97 10.04 31.97 10.04 26.81 0.03 26.81 0 32Z" stroke-width="0" fill="#7823DC"/><path d="M24.99 5.99 24.99 0 14.99 0 14.99 12 16.99 12 16.99 6 24.99 6ZM16.99 1.99 22.99 1.99 22.99 3.99 16.99 3.99 16.99 1.99Z" stroke-width="0" fill="#7823DC"/><g><path d="M23.27 18.53 24.57 17.22 21.15 13.83 23.53 13.82 21.69 11.99 18 12.01 18.02 15.69 19.87 17.52 19.85 15.14 23.27 18.53Z" stroke-width="0" fill="#7823DC"/><path d="M8.46 13.81 10.84 13.83 7.4 17.21 8.7 18.52 12.13 15.15 12.11 17.53 13.96 15.71 14 12.02 10.31 11.99 8.46 13.81Z" stroke-width="0" fill="#7823DC"/></g></svg>