<svg viewBox="0 0 31.1 32.01" xmlns="http://www.w3.org/2000/svg" xmlns:xlink="http://www.w3.org/1999/xlink" id="Layer_1" overflow="hidden"><style>
.MsftOfcResponsive_Fill_7823dc {
 fill:#7823DC; 
}
</style>
<defs></defs><path d="M27.55 14.01 26.2 12.86 26.36 14.87 28.91 17.05 31.09 14.5 30.93 12.49 29.6 14.05C28.56 9 24.91 4.73 20 2.97L19.33 4.85C23.44 6.32 26.53 9.83 27.55 14.02Z" class="MsftOfcResponsive_Fill_7823dc" fill="#7823DC"/><path d="M14.96 30.01C7.81 30.01 2 24.2 2 17.05 2 11.25 5.89 6.12 11.47 4.57L10.93 2.64C4.5 4.43 0 10.36 0 17.05 0 25.3 6.71 32.01 14.96 32.01 15.68 32.01 16.39 31.96 17.1 31.86L16.82 29.88C16.21 29.97 15.59 30.01 14.97 30.01Z" class="MsftOfcResponsive_Fill_7823dc" fill="#7823DC"/><path d="M18.51 29.52 19.05 31.44C20.33 31.08 21.56 30.54 22.71 29.85L21.67 28.14C20.68 28.74 19.62 29.2 18.51 29.52Z" class="MsftOfcResponsive_Fill_7823dc" fill="#7823DC"/><path d="M23.09 27.15 24.35 28.71C25.39 27.87 26.31 26.9 27.09 25.82L25.47 24.65C24.79 25.59 23.99 26.43 23.09 27.15Z" class="MsftOfcResponsive_Fill_7823dc" fill="#7823DC"/><path d="M26.39 23.17 28.15 24.11C28.49 23.48 28.78 22.82 29.02 22.15L27.14 21.47C26.93 22.05 26.68 22.62 26.38 23.16Z" class="MsftOfcResponsive_Fill_7823dc" fill="#7823DC"/><path d="M14.15 5.92 16.15 5.92 16.15 3.96 18.11 3.96 18.11 1.96 16.15 1.96 16.15 0 14.15 0 14.15 1.96 12.19 1.96 12.19 3.96 14.15 3.96 14.15 5.92Z" class="MsftOfcResponsive_Fill_7823dc" fill="#7823DC"/><path d="M13.34 26.28 21.23 18.67 20.29 16.4 13.53 16.4 17.29 12.65 17.29 8.86 9.37 16.79 10.31 19.07 17.06 19.07 13.34 22.5 13.34 26.28Z" class="MsftOfcResponsive_Fill_7823dc" fill="#7823DC"/></svg>