<svg width="28" height="32" viewBox="0 0 28 32" xmlns="http://www.w3.org/2000/svg" xmlns:xlink="http://www.w3.org/1999/xlink" overflow="hidden"><style>
.MsftOfcResponsive_Fill_7823dc {
 fill:#7823DC; 
}
</style>
<defs></defs><g><path d="M14 2.11 16.18 2.84C17.56 3.3 19.01 3.53 20.46 3.53 21.57 3.53 22.67 3.39 23.74 3.13L26 2.56C26 6.56 25.81 15.77 25.06 18.73 23.74 24 20 26.78 14 29.66 8 26.78 4.26 24 2.94 18.73 2.19 15.77 2 6.54 2 2.56L4.26 3.13C5.33 3.39 6.43 3.53 7.54 3.53 8.99 3.53 10.44 3.3 11.82 2.84L14 2.11M28 0 23.26 1.19C22.34 1.42 21.4 1.53 20.46 1.53 19.22 1.53 17.99 1.33 16.82 0.94L14 0 11.18 0.94C10.01 1.33 8.78 1.53 7.54 1.53 6.6 1.53 5.66 1.42 4.74 1.19L0 0 0 2C0 2 0 15.18 1 19.22 2.65 25.77 7.52 28.82 13.66 31.71L14 32 14.34 31.71C20.48 28.82 25.34 25.77 27 19.22 28 15.18 28 2 28 2L28 0Z" class="MsftOfcResponsive_Fill_7823dc" fill="#7823DC"/></g><g><path d="M17.05 11.99 17.05 5.99 13.04 5.99 11.04 5.99 11.04 11.99 5.04 11.99 5.04 18 11.04 18 11.04 24 17.05 24 17.05 18 23.05 18 23.05 11.99 17.05 11.99ZM21.05 15.99 17.05 15.99 15.05 15.99 15.05 17.99 15.05 21.99 13.05 21.99 13.05 17.99 13.05 15.99 11.05 15.99 7.05 15.99 7.05 13.99 11.05 13.99 13.05 13.99 13.05 11.99 13.05 7.99 15.05 7.99 15.05 11.99 15.05 13.99 17.05 13.99 21.05 13.99 21.05 15.99Z" class="MsftOfcResponsive_Fill_7823dc" fill="#7823DC"/></g></svg>