<svg viewBox="0 0 32 32" xmlns="http://www.w3.org/2000/svg" xmlns:xlink="http://www.w3.org/1999/xlink" id="Layer_1" xml:space="preserve" overflow="hidden"><g><path d="M16.1 32C14.8 32 13.6 31.7 12.4 31 11.5 31.4 10.5 31.6 9.6 31.6 4.4 31.6 0.2 25.6 0.2 18.1 0.2 10.7 4.4 4.6 9.6 4.6 10.6 4.6 11.5 4.8 12.4 5.2 14.7 3.8 17.4 3.8 19.7 5.2 20.6 4.8 21.6 4.6 22.5 4.6 27.7 4.6 31.9 10.6 31.9 18.1 31.9 25.5 27.7 31.6 22.5 31.6 21.5 31.6 20.6 31.4 19.7 31 18.6 31.7 17.4 32 16.1 32ZM12.5 28.7 13 29C14.9 30.3 17.2 30.3 19.1 29L19.6 28.7 20.1 29C20.9 29.4 21.7 29.6 22.5 29.6 26.6 29.6 29.9 24.4 29.9 18.1 29.9 11.8 26.7 6.6 22.6 6.6 21.8 6.6 21 6.8 20.2 7.2L19.7 7.5 19.2 7.2C17.3 5.9 15 5.9 13.1 7.2L12.6 7.5 12 7.3C11.2 6.9 10.4 6.7 9.6 6.7 5.5 6.7 2.2 11.9 2.2 18.2 2.2 24.5 5.5 29.7 9.6 29.7 10.4 29.7 11.2 29.5 12 29.1L12.5 28.7Z" fill="#7823DC"/><g><defs><path d="M0.2 32 32 32 32 0 0.2 0 0.2 32Z" id="SVGID_1_" fill="#7823DC"/></defs><clipPath id="SVGID_00000029018098822210325770000007539794590389555080_"><use width="100%" height="100%" xlink:href="#SVGID_1_" overflow="visible"></use></clipPath><path d="M14.4 5.9 12.5 0.2 14.6 0 16.3 5.3" fill="#7823DC" fill-rule="evenodd" clip-rule="evenodd" clip-path="url(#SVGID_00000029018098822210325770000007539794590389555080_)"/><g clip-path="url(#SVGID_00000029018098822210325770000007539794590389555080_)"><defs><path d="M0.2 32 32 32 32 0 0.2 0 0.2 32Z" id="SVGID_00000016051884778710903360000008280701010254062770_" fill="#7823DC"/></defs><clipPath id="SVGID_00000126302032662800842530000010090872989547376516_"><use width="100%" height="100%" xlink:href="#SVGID_00000016051884778710903360000008280701010254062770_" overflow="visible"></use></clipPath><g clip-path="url(#SVGID_00000126302032662800842530000010090872989547376516_)"><defs><path d="M0.2 32 32 32 32 0 0.2 0 0.2 32Z" id="SVGID_00000052787105740724325530000015397411581879414954_" fill="#7823DC"/></defs><clipPath id="SVGID_00000127736368301019372580000001227946583340264064_"><use width="100%" height="100%" xlink:href="#SVGID_00000052787105740724325530000015397411581879414954_" overflow="visible"></use></clipPath><g clip-path="url(#SVGID_00000127736368301019372580000001227946583340264064_)"><defs><path d="M0.2 32 32 32 32 0 0.2 0 0.2 32Z" id="SVGID_00000174561899538023404350000013687760464159655595_" fill="#7823DC"/></defs><clipPath id="SVGID_00000160155026422307829890000000249347165216120475_"><use width="100%" height="100%" xlink:href="#SVGID_00000174561899538023404350000013687760464159655595_" overflow="visible"></use></clipPath></g></g></g></g></g></svg>