<svg viewBox="0 0 29.22 29.22" xmlns="http://www.w3.org/2000/svg" xmlns:xlink="http://www.w3.org/1999/xlink" xml:space="preserve" overflow="hidden"><g id="Layer_3"></g><g id="Layer_1"></g><g id="Layer_2"></g><g id="Layer_4"></g><g id="Layer_5"><g><path d="M21.76 7.31 16.86 7.31 22.06-0.01 7.38-0.01 12.92 7.31 7.41 7.31 0.16 21.2 5.37 29.23 24.65 29.23 29.35 21.25 21.76 7.31ZM18.19 1.98 15.7 5.49 14.06 5.49 11.4 1.98 18.19 1.98ZM23.51 27.23 6.45 27.23 2.47 21.09 8.62 9.31 20.57 9.31 27.05 21.22 23.51 27.23Z" fill="#7823DC"/><path d="M19.35 18.26C19.35 17.34 19.09 16.46 18.57 15.65L20.12 14.13 18.78 12.75 17.23 14.3C16.46 13.77 15.57 13.51 14.6 13.51 13.64 13.51 12.75 13.78 11.97 14.3L10.42 12.75 9.09 14.13 10.64 15.65C10.12 16.46 9.86 17.34 9.86 18.26 9.86 19.19 10.12 20.07 10.64 20.88L9.08 22.4 10.41 23.78 11.96 22.22C12.74 22.75 13.63 23.02 14.59 23.02 15.56 23.02 16.45 22.75 17.22 22.22L18.77 23.78 20.11 22.4 18.56 20.88C19.09 20.07 19.35 19.19 19.35 18.26ZM17.43 18.26C17.43 19.05 17.15 19.73 16.6 20.28L16.6 20.28C16.05 20.83 15.37 21.11 14.59 21.11 13.81 21.11 13.13 20.83 12.58 20.28 12.03 19.73 11.75 19.05 11.75 18.26 11.75 17.48 12.03 16.8 12.58 16.25 13.13 15.7 13.81 15.42 14.59 15.42 15.38 15.42 16.05 15.7 16.6 16.25 17.15 16.81 17.43 17.49 17.43 18.26Z" fill="#7823DC"/></g></g></svg>