<svg viewBox="0 0 32 31.99" xmlns="http://www.w3.org/2000/svg" xmlns:xlink="http://www.w3.org/1999/xlink" id="Layer_1" overflow="hidden"><style>
.MsftOfcResponsive_Fill_7823dc {
 fill:#7823DC; 
}
</style>
<defs></defs><path d="M9.62 7.45C8.45 6.28 6.54 6.28 5.37 7.45L3.96 6.04C5.91 4.09 9.08 4.09 11.03 6.04L9.62 7.45Z" class="MsftOfcResponsive_Fill_7823dc" fill="#7823DC"/><path d="M13.28 4.39C10.09 1.2 4.91 1.2 1.72 4.39L0.31 2.97C4.27-0.99 10.73-0.99 14.69 2.97L13.28 4.38Z" class="MsftOfcResponsive_Fill_7823dc" fill="#7823DC"/><path d="M26.62 7.45C25.45 6.28 23.54 6.28 22.37 7.45L20.96 6.04C22.91 4.09 26.08 4.09 28.03 6.04L26.62 7.45Z" class="MsftOfcResponsive_Fill_7823dc" fill="#7823DC"/><path d="M30.28 4.39C27.09 1.2 21.91 1.2 18.72 4.39L17.31 2.98C21.27-0.98 27.73-0.98 31.69 2.98L30.28 4.39Z" class="MsftOfcResponsive_Fill_7823dc" fill="#7823DC"/><path d="M32 31.99 17 31.99 17 8.99 32 8.99 32 31.99ZM19 29.99 30 29.99 30 10.99 19 10.99 19 29.99Z" class="MsftOfcResponsive_Fill_7823dc" fill="#7823DC"/><path d="M24.5 31.99C22.63 31.99 21.11 30.47 21.11 28.61 21.11 26.75 22.63 25.22 24.5 25.22 26.37 25.22 27.89 26.74 27.89 28.61 27.89 30.48 26.37 31.99 24.5 31.99ZM24.5 27.22C23.74 27.22 23.11 27.84 23.11 28.61 23.11 29.38 23.73 29.99 24.5 29.99 25.27 29.99 25.89 29.37 25.89 28.61 25.89 27.85 25.27 27.22 24.5 27.22Z" class="MsftOfcResponsive_Fill_7823dc" fill="#7823DC"/><g><path d="M24.5 23.93C20.68 23.93 17.56 20.82 17.56 16.99 17.56 13.16 20.67 10.05 24.5 10.05 28.33 10.05 31.44 13.16 31.44 16.99 31.44 20.82 28.33 23.93 24.5 23.93ZM24.5 12.06C21.78 12.06 19.56 14.27 19.56 17 19.56 19.73 21.77 21.94 24.5 21.94 27.23 21.94 29.44 19.73 29.44 17 29.44 14.27 27.23 12.06 24.5 12.06Z" class="MsftOfcResponsive_Fill_7823dc" fill="#7823DC"/><path d="M24.5 19.88C22.91 19.88 21.61 18.58 21.61 16.99 21.61 15.4 22.91 14.1 24.5 14.1 26.09 14.1 27.39 15.4 27.39 16.99 27.39 18.58 26.09 19.88 24.5 19.88ZM24.5 16.1C24.01 16.1 23.61 16.5 23.61 16.99 23.61 17.48 24.01 17.88 24.5 17.88 24.99 17.88 25.39 17.48 25.39 16.99 25.39 16.5 24.99 16.1 24.5 16.1Z" class="MsftOfcResponsive_Fill_7823dc" fill="#7823DC"/></g><path d="M15 31.99 0 31.99 0 8.99 15 8.99 15 31.99ZM2 29.99 13 29.99 13 10.99 2 10.99 2 29.99Z" class="MsftOfcResponsive_Fill_7823dc" fill="#7823DC"/><path d="M7.5 31.99C5.63 31.99 4.11 30.47 4.11 28.61 4.11 26.75 5.63 25.22 7.5 25.22 9.37 25.22 10.89 26.74 10.89 28.61 10.89 30.48 9.37 31.99 7.5 31.99ZM7.5 27.22C6.74 27.22 6.11 27.84 6.11 28.61 6.11 29.38 6.73 29.99 7.5 29.99 8.27 29.99 8.89 29.37 8.89 28.61 8.89 27.85 8.27 27.22 7.5 27.22Z" class="MsftOfcResponsive_Fill_7823dc" fill="#7823DC"/><g><path d="M7.5 23.93C3.68 23.93 0.56 20.82 0.56 16.99 0.56 13.16 3.67 10.05 7.5 10.05 11.33 10.05 14.44 13.16 14.44 16.99 14.44 20.82 11.33 23.93 7.5 23.93ZM7.5 12.06C4.78 12.06 2.56 14.27 2.56 17 2.56 19.73 4.77 21.94 7.5 21.94 10.23 21.94 12.44 19.73 12.44 17 12.44 14.27 10.23 12.06 7.5 12.06Z" class="MsftOfcResponsive_Fill_7823dc" fill="#7823DC"/><path d="M7.5 19.88C5.91 19.88 4.61 18.58 4.61 16.99 4.61 15.4 5.91 14.1 7.5 14.1 9.09 14.1 10.39 15.4 10.39 16.99 10.39 18.58 9.09 19.88 7.5 19.88ZM7.5 16.1C7.01 16.1 6.61 16.5 6.61 16.99 6.61 17.48 7.01 17.88 7.5 17.88 7.99 17.88 8.39 17.48 8.39 16.99 8.39 16.5 7.99 16.1 7.5 16.1Z" class="MsftOfcResponsive_Fill_7823dc" fill="#7823DC"/></g></svg>