<svg viewBox="0 0 32 32" xmlns="http://www.w3.org/2000/svg" xmlns:xlink="http://www.w3.org/1999/xlink" id="Layer_1" overflow="hidden"><style>
.MsftOfcResponsive_Fill_7823dc {
 fill:#7823DC; 
}
</style>
<defs></defs><path d="M26.48 32 0 32 0 30 26.48 30C28.68 30 30 28.49 30 25.96L32 25.96C32 30.13 29.23 32 26.48 32Z" class="MsftOfcResponsive_Fill_7823dc" stroke-width="0" fill="#7823DC"/><path d="M5.82 2C7.22 2 8.45 3.09 8.81 4.65L10.07 10.13C10.69 12.81 12.94 14.69 15.55 14.69L22.37 14.69C25.09 14.69 27.36 12.64 27.89 9.93L30.01 9.93 30.01 18.44C30.01 20.4 28.62 21.99 26.92 21.99L5.09 21.99C3.39 21.99 2 20.4 2 18.44L2 2 5.82 2M5.82 0 0 0 0 18.45C0 21.51 2.28 24 5.09 24L26.91 24C29.72 24 32 21.51 32 18.45L32 7.93 26 7.93 26 8.72C26 10.91 24.37 12.69 22.36 12.69L15.54 12.69C13.87 12.69 12.42 11.45 12.01 9.68L10.75 4.2C10.19 1.73 8.16 0 5.82 0L5.82 0Z" class="MsftOfcResponsive_Fill_7823dc" stroke-width="0" fill="#7823DC"/><rect x="8" y="23" width="2" height="7.92" class="MsftOfcResponsive_Fill_7823dc" stroke-width="0" fill="#7823DC"/><rect x="22" y="23" width="2" height="7.92" class="MsftOfcResponsive_Fill_7823dc" stroke-width="0" fill="#7823DC"/></svg>