<svg viewBox="0 0 32 32" xmlns="http://www.w3.org/2000/svg" xmlns:xlink="http://www.w3.org/1999/xlink" overflow="hidden"><defs></defs><g id="Layer_3"><path d="M21 4.6866 21 0.0466 11 0.0466 11 4.6866 6 10.6866 6 32.0466 26 32.0466 26 10.6866ZM13 2.0466 19 2.0466 19 4.0466 13 4.0466ZM24 30.0466 8 30.0466 8 24.0466 24 24.0466ZM24 22.0466 8 22.0466 8 20.0466 24 20.0466ZM24 18.0466 8 18.0466 8 16.0466 24 16.0466ZM24 14.0466 8 14.0466 8 11.4066 12.47 6.0466 19.53 6.0466 24 11.4066Z" fill="#7823DC"/></g></svg>