<svg viewBox="0 0 32.1 31.63" xmlns="http://www.w3.org/2000/svg" xmlns:xlink="http://www.w3.org/1999/xlink" id="Outline_Final_icon" overflow="hidden"><defs></defs><g><path d="M10.79 16.54 12.05 13.7 15.51 14.01 17.11 10.81 15.35 8.27 17.12 5.77 15.4 2.33 11.78 2.82 10.83 -4.44089e-16 6.52 -4.44089e-16 5.44 2.82 2.3 2.37 0.12 5.54 2.18 8.41-0.01 11.1 2.29 14.36 5.41 14.04 6.4 16.74 10.78 16.55ZM3.26 12.25 2.51 11.19 4.71 8.49 2.57 5.52 3.25 4.53 6.74 5.03 7.9 2 9.39 2 10.41 5.02 14.25 4.5 14.8 5.59 12.92 8.26 14.81 10.98 14.35 11.89 10.83 11.57 9.49 14.58 7.8 14.65 6.78 11.87 3.28 12.23Z" fill="#7823DC"/><path d="M8.6 9.78C9.39 9.78 10.03 9.14 10.03 8.35 10.03 7.56 9.39 6.92 8.6 6.92 7.81 6.92 7.17 7.56 7.17 8.35 7.17 9.14 7.81 9.78 8.6 9.78Z" fill="#7823DC"/><path d="M28.52 16.95 32.1 13.37 29.75 9.61 24.73 10.64 22.68 9.53 20.74 4.73 18.52 4.73 18.52 6.73 19.39 6.73 21.1 10.95 24.42 12.75 28.79 11.85 29.56 13.08 26.52 16.13 26.52 20.16 29.37 23.4 28.75 24.62 24.52 23.8 21.1 25.59 19.5 29.63 17.93 29.63 16.65 25.7 13.32 23.81 8.97 24.51 8.17 23.38 11 20.08 11 18.18 9 18.18 9 19.34 5.64 23.26 8.05 26.68 12.94 25.89 14.98 27.06 16.48 31.63 20.85 31.63 22.68 27.02 24.83 25.9 29.86 26.87 31.77 23.1 28.52 19.4 28.52 16.95Z" fill="#7823DC"/></g><rect x="21.57" y="14.76" width="1.82" height="6.84" fill="#7823DC"/><path d="M16.18 14.76 14.35 21.6 16.23 21.6 16.6 20.22 18.61 20.22 18.97 21.6 20.85 21.6 19.05 14.76 16.18 14.76ZM17.09 18.41 17.58 16.58 17.66 16.58 18.14 18.41 17.09 18.41Z" fill="#7823DC"/></svg>