<svg viewBox="0 0 32.01 32" xmlns="http://www.w3.org/2000/svg" xmlns:xlink="http://www.w3.org/1999/xlink" id="Layer_1" overflow="hidden"><style>
.MsftOfcThm_Text2_Fill_v2 {
 fill:#7823DC; 
}
</style>
<defs></defs><path d="M8.91 2C10.4 2 11.95 2.41 13.54 3.23L22.17 7.54 19.74 12.3 17.48 11.15 15.68 10.23 14.78 12.04 6.23 29.29 2.67 27.44 11.23 10.2 12.11 8.43 10.35 7.53 3.54 4.06C4.58 3.11 6.46 2 8.91 2M8.91 0C5.27 0 2.58 1.95 1.4 3.41L0.37 4.69 9.44 9.31 0 28.3 7.11 32 16.57 12.94 20.61 15 24.85 6.68 23.53 6 14.43 1.45C12.43 0.41 10.57 0 8.91 0L8.91 0Z" class="MsftOfcThm_Text2_Fill_v2" stroke-width="0" fill="#7823DC"/><path d="M32.01 8 27.27 8 27.27 10 32.01 10 32.01 8 32.01 8Z" class="MsftOfcThm_Text2_Fill_v2" stroke-width="0" fill="#7823DC"/><path d="M24.64 15.26 23 16.41 25.73 20.29 27.37 19.13 24.64 15.26 24.64 15.26Z" class="MsftOfcThm_Text2_Fill_v2" stroke-width="0" fill="#7823DC"/><path d="M27.14 12.03 26.23 13.8 30.45 15.97 31.36 14.2 27.14 12.03 27.14 12.03Z" class="MsftOfcThm_Text2_Fill_v2" stroke-width="0" fill="#7823DC"/><rect x="4.93" y="22.26" width="2" height="5.92" class="MsftOfcThm_Text2_Fill_v2" stroke-width="0" fill="#7823DC" transform="matrix(0.442132 -0.89695 0.89695 0.442132 -19.31 19.38)"/></svg>