<svg viewBox="0 0 32 32" xmlns="http://www.w3.org/2000/svg" xmlns:xlink="http://www.w3.org/1999/xlink" overflow="hidden"><defs></defs><g id="Layer_3"><path d="M15.9997 7.31873C24.0125 7.31873 29.9997 10.4865 29.9997 13.3187 29.9997 16.151 24.0125 19.3187 15.9997 19.3187 7.98694 19.3187 1.99972 16.151 1.99972 13.3187 1.99972 10.4865 7.98694 7.31873 15.9997 7.31873M15.9997 5.31873C7.16316 5.31873-0.00028 8.90045-0.00028 13.3187-0.00028 17.737 7.16316 21.3187 15.9997 21.3187 24.8363 21.3187 31.9997 17.737 31.9997 13.3187 31.9997 8.90046 24.8363 5.31873 15.9997 5.31873Z" fill="#7823DC"/><rect x="29.9997" y="13.3187" width="2" height="10.6667" fill="#7823DC"/><rect x="-0.00029" y="13.3187" width="2" height="10.6667" fill="#7823DC"/><path d="M17.222 15.6899C16.847 16.2176 16.2478 16.5407 15.6009 16.5641 14.2951 16.5589 13.2339 15.0991 13.2339 13.3058 13.2339 11.5091 14.2993 10.0481 15.5933 10.0475 16.2429 10.0688 16.8452 10.3924 17.2217 10.9222L17.3264 11.0743 18.7968 11.0743 18.4687 10.5675C17.871 9.54683 16.7908 8.90497 15.6086 8.86808 13.6074 8.86808 11.9792 10.8589 11.9792 13.3057 11.9792 15.7526 13.6074 17.744 15.6086 17.744 16.7913 17.7097 17.8724 17.0665 18.4669 16.0434L18.7907 15.5378 17.3268 15.5378Z" fill="#7823DC"/><path d="M15.6084 18.1445C13.3867 18.1445 11.5791 15.9736 11.5791 13.3057 11.5791 10.6387 13.3867 8.46777 15.6084 8.46777 16.9267 8.50322 18.1341 9.21409 18.8047 10.3496L19.5322 11.4746 17.1167 11.4746 16.8921 11.1484C16.5873 10.7222 16.1009 10.4629 15.5771 10.4473 14.5312 10.4483 13.6338 11.7568 13.6338 13.3057 13.6338 14.877 14.5171 16.1592 15.603 16.1641 16.1183 16.1416 16.5944 15.8825 16.893 15.4619L17.1167 15.1377 19.5214 15.1377 18.8037 16.2598C18.1364 17.3985 16.9278 18.1114 15.6084 18.1445ZM15.6084 9.26853C13.8276 9.26853 12.3789 11.0791 12.3789 13.3056 12.3789 15.5322 13.8276 17.3437 15.6084 17.3437 16.6079 17.313 17.5263 16.786 18.0571 15.9385L17.5366 15.9385C17.0887 16.5564 16.3818 16.9344 15.6191 16.9639 14.0742 16.958 12.834 15.3164 12.834 13.3057 12.834 11.2891 14.0718 9.64746 15.5933 9.64746 16.3651 9.66994 17.0829 10.049 17.5366 10.6738L18.0591 10.6738C17.5262 9.82753 16.608 9.30098 15.6084 9.26855Z" fill="#7823DC"/><rect x="10.355" y="13.7025" width="5.41976" height="2" fill="#7823DC"/><rect x="10.355" y="10.8885" width="5.41976" height="2" fill="#7823DC"/><path d="M15.9997 29.9854C7.98696 29.9854 1.99971 26.8177 1.99971 23.9854L-0.00029 23.9854C-0.00029 28.4037 7.16317 31.9854 15.9997 31.9854 24.8363 31.9854 31.9997 28.4037 31.9997 23.9854L29.9997 23.9854C29.9997 26.8177 24.0125 29.9854 15.9997 29.9854Z" fill="#7823DC"/><path d="M15.9997 24.652C7.98696 24.652 1.99971 21.4843 1.99971 18.652L-0.00029 18.652C-0.00029 23.0703 7.16317 26.652 15.9997 26.652 24.8363 26.652 31.9997 23.0703 31.9997 18.652L29.9997 18.652C29.9997 21.4843 24.0125 24.652 15.9997 24.652Z" fill="#7823DC"/></g></svg>