<svg viewBox="0 0 32 32" xmlns="http://www.w3.org/2000/svg" xmlns:xlink="http://www.w3.org/1999/xlink" overflow="hidden"><defs></defs><g id="Layer_3"><path d="M29.9956 24.9932 29.9956 26.1236C29.9932 28.2597 28.2621 29.9908 26.126 29.9932L5.86483 29.9932C3.7287 29.9908 1.99764 28.2597 1.9952 26.1236L1.9952 24.9932 29.9956 24.9932M-0.00443 22.8555-0.0048 22.8629-0.0048 26.1236C0.0046955 29.3614 2.62706 31.9837 5.86483 31.9932L26.126 31.9932C29.3638 31.9837 31.9861 29.3614 31.9956 26.1236L31.9956 22.9932-0.00443 22.9932-0.00443 22.8555Z" fill="#7823DC"/><path d="M20.1756 16.9932C19.5037 16.9921 18.8346 17.0795 18.1856 17.2532 18.8142 17.7634 19.3754 18.3514 19.8556 19.0032 19.9556 18.9932 20.0656 18.9932 20.1756 18.9932 23.1537 18.9562 25.7273 21.0657 26.2756 23.9932L24.2155 23.9932C23.788 22.5094 22.5695 21.3873 21.0555 21.0832 21.4545 22.0086 21.7076 22.9903 21.8055 23.9932L19.7855 23.9932C19.6641 23.0117 19.3588 22.0617 18.8855 21.1932 18.5595 20.5815 18.1525 20.0164 17.6755 19.5133 17.1862 18.9939 16.6316 18.5401 16.0255 18.1632L16.0155 18.1632C15.345 17.7469 14.6125 17.4398 13.8455 17.2533 13.1964 17.0802 12.5274 16.9928 11.8555 16.9933 7.82867 17.0022 4.4341 19.9987 3.92554 23.9933L1.90554 23.9933C2.45899 18.4971 7.36323 14.4901 12.8595 15.0436 13.955 15.1539 15.0247 15.4443 16.0256 15.9031 17.3254 15.299 18.7423 14.9884 20.1756 14.9932 25.3115 14.9925 29.6126 18.883 30.1256 23.9932L28.1056 23.9932C27.6002 19.9969 24.2037 16.9988 20.1756 16.9932Z" fill="#7823DC"/><path d="M7.81783 23.9932C8.49302 21.7611 10.8499 20.4989 13.0821 21.1741 14.4342 21.5831 15.4922 22.6411 15.9012 23.9932L17.9572 23.9932C17.4073 21.0677 14.8361 18.9594 11.8596 18.9932 8.883 18.9594 6.31186 21.0677 5.7619 23.9932Z" fill="#7823DC"/><rect x="24.9956" y="-1.00676" width="2" height="12" fill="#7823DC" transform="matrix(6.12323e-17 -1 1 6.12323e-17 21.0023 30.9888)"/><path d="M15.9956 2.04451C17.1592 2.28591 17.994 3.31033 17.9956 4.49873L17.9956 5.48773C17.994 6.67614 17.1592 7.70056 15.9956 7.94196L15.9956 2.04451M15.4901-0.00676 13.9956-0.00676 13.9956 9.99324 15.4901 9.99324C17.9784 9.99322 19.9956 7.97605 19.9956 5.48774L19.9956 4.49874C19.9956 2.01043 17.9784-0.00673876 15.4901-0.0067498Z" fill="#7823DC"/><rect x="9.49557" y="4.49324" width="2" height="9" fill="#7823DC" transform="matrix(6.12323e-17 -1 1 6.12323e-17 1.50233 19.4888)"/><rect x="9.49557" y="-3.50676" width="2" height="9" fill="#7823DC" transform="matrix(6.12323e-17 -1 1 6.12323e-17 9.50233 11.4888)"/><rect x="9.49557" y="0.49324" width="2" height="9" fill="#7823DC" transform="matrix(6.12323e-17 -1 1 6.12323e-17 5.50233 15.4888)"/><rect x="7.99557" y="9.99324" width="2" height="6" fill="#7823DC"/><rect x="11.9956" y="9.99324" width="2" height="6" fill="#7823DC"/></g></svg>