<svg viewBox="0 0 32 32" xmlns="http://www.w3.org/2000/svg" xmlns:xlink="http://www.w3.org/1999/xlink" id="Layer_1" xml:space="preserve" overflow="hidden"><style>
.MsftOfcResponsive_Fill_7823dc {
 fill:#7823DC; 
}
</style>
<path d="M24.9 2C24.9 2 24.9 2 24.9 2 24.9 2 24.9 2 24.9 2M25 2C25.9 2.4 27.8 4.9 29.5 7.7L7.2 30 2.6 30C4.4 23.1 11 3.5 25 2M25.1 0C25.1 0 25 0 25.1 0 6.2 1.8 0 32 0 32L8 32 32 8C32 8 27.5 0 25.1 0L25.1 0Z" class="st0 MsftOfcResponsive_Fill_7823dc" fill="#7823DC"/><rect x="10" y="14.1" width="2" height="11.1" class="st0 MsftOfcResponsive_Fill_7823dc" fill="#7823DC" transform="matrix(0.7101 -0.7041 0.7041 0.7101 -10.6641 13.4676)"/><path d="M13.8 13 10.3 9.6 11.7 8.2 13.8 10.2 19.2 4.9 17.7 3.3 19.1 1.9 22.1 4.8Z" class="st0 MsftOfcResponsive_Fill_7823dc" fill="#7823DC"/><path d="" class="st1 MsftOfcResponsive_Fill_7823dc" stroke="#7823DC" stroke-width="2" stroke-miterlimit="10" fill="#7823DC"/><path d="" class="st1 MsftOfcResponsive_Fill_7823dc" stroke="#7823DC" stroke-width="2" stroke-miterlimit="10" fill="#7823DC"/><rect x="16.9" y="14.2" width="4.5" height="2" class="st0 MsftOfcResponsive_Fill_7823dc" fill="#7823DC" transform="matrix(0.7072 -0.707 0.707 0.7072 -5.1744 18.003)"/><rect x="14.7" y="12" width="4.5" height="2" class="st0 MsftOfcResponsive_Fill_7823dc" fill="#7823DC" transform="matrix(0.7071 -0.7071 0.7071 0.7071 -4.2395 15.7518)"/></svg>