<svg viewBox="0 0 32 32" xmlns="http://www.w3.org/2000/svg" xmlns:xlink="http://www.w3.org/1999/xlink" id="Layer_1" xml:space="preserve" overflow="hidden"><g><path d="M14.8 28 15.3 30 2.8 30 3.6 28 14.8 28 14.8 28ZM16 26 2 26 0 32 18 32 16 26 16 26 16 26Z" fill="#7823DC"/><path d="M32 29.2C30.2 27.7 30.2 27.7 30.2 27.7 29.5 27 28 25.2 24.5 22 20.3 18 20.3 18 20.3 18 17.8 20.3 17.8 20.3 17.8 20.3 8.8 11.5 8.8 11.5 8.8 11.5 11.3 9.2 11.3 9.2 11.3 9.2 11.3 8.7 11.1 8.4 11.3 7.9 11.5 6.4 13.5 4.6 14.8 4.1 15.6 4.1 15.8 4.1 16.3 4.4 18.3 2.1 18.3 2.1 18.3 2.1 27.3 10.9 27.3 10.9 27.3 10.9 25.3 12.9 25.3 12.9 25.3 12.9 32.1 19.7 32.1 19.7 32.1 19.7L32.1 29.2ZM20.2 14.9C26 20.4 26 20.4 26 20.4 27.8 22.2 29 23.4 30 24.4 30 20.6 30 20.6 30 20.6 22.2 12.8 22.2 12.8 22.2 12.8 24.2 10.8 24.2 10.8 24.2 10.8 18.2 5 18.2 5 18.2 5 16.2 7 16.2 7 16.2 7 15.2 6 15.2 6 15.2 6 14.4 6.3 13.4 7.5 13.2 8 14.2 9 14.2 9 14.2 9 11.7 11.3 11.7 11.3 11.7 11.3 17.7 17.3 17.7 17.3 17.7 17.3L20.2 14.9ZM13 7.9 13 7.9 13 7.9 13 7.9ZM15 6.2 15 6.2 15 6.2Z" fill="#7823DC"/></g><rect x="23.1" y="-1.1" width="2" height="12.6" fill="#7823DC" transform="matrix(0.6955 -0.7185 0.7185 0.6955 3.5964 18.9019)"/><rect x="10.9" y="11" width="2" height="12.6" fill="#7823DC" transform="matrix(0.6956 -0.7185 0.7185 0.6956 -8.7966 13.8301)"/></svg>