<svg viewBox="0 0 32 32" xmlns="http://www.w3.org/2000/svg" xmlns:xlink="http://www.w3.org/1999/xlink" overflow="hidden"><style>
.MsftOfcResponsive_Fill_7823dc {
 fill:#7823DC; 
}
</style>
<defs></defs><g id="Layer_3"><rect x="14.9951" y="25.0241" width="2" height="7" class="MsftOfcResponsive_Fill_7823dc" fill="#7823DC"/><rect x="7.98438" y="30.0241" width="16.0215" height="2" class="MsftOfcResponsive_Fill_7823dc" fill="#7823DC"/><path d="M16.0166 26.0241C9.4493 26.0168 4.1272 20.6949 4.1196 14.1276L6.1196 14.1276C6.12509 19.5937 10.5607 24.0204 16.0268 24.0149 21.4851 24.0094 25.9085 19.5859 25.914 14.1276L27.914 14.1276C27.9062 20.695 22.584 26.0168 16.0166 26.0241Z" class="MsftOfcResponsive_Fill_7823dc" fill="#7823DC"/><path d="M15.9951 2.11146C18.1832 2.11394 19.9563 3.88707 19.9587 6.07508L19.9587 13.9895C19.9622 16.1785 18.1905 17.9559 16.0014 17.9593 13.8124 17.9628 12.035 16.1911 12.0315 14.002 12.0315 13.9978 12.0315 13.9936 12.0315 13.9895L12.0316 6.07508C12.034 3.88706 13.8071 2.11394 15.9952 2.11146M15.9951 0.04011 15.9951 0.04011C12.6621 0.0400769 9.96018 2.74198 9.96015 6.07499 9.96015 6.07503 9.96015 6.07507 9.96015 6.07511L9.96015 13.9895C9.96015 17.3225 12.6621 20.0245 15.9951 20.0245L15.9951 20.0245C19.3282 20.0245 22.0301 17.3225 22.0301 13.9895L22.0301 6.07508C22.0302 2.74208 19.3283 0.0401186 15.9953 0.0400799 15.9952 0.0400799 15.9952 0.0400799 15.9951 0.0400799Z" class="MsftOfcResponsive_Fill_7823dc" fill="#7823DC"/><path d="M16 23.8476C10.541 23.8414 6.11717 19.4176 6.111 13.9586L4.03967 13.9586C4.03967 20.5641 9.39449 25.9189 16 25.9189 22.6055 25.9189 27.9603 20.5641 27.9603 13.9586L25.889 13.9586C25.8829 19.4176 21.459 23.8415 16 23.8476Z" class="MsftOfcResponsive_Fill_7823dc" fill="#7823DC"/></g></svg>