<svg viewBox="0 0 32 32" xmlns="http://www.w3.org/2000/svg" xmlns:xlink="http://www.w3.org/1999/xlink" id="Layer_1" overflow="hidden"><style>
.MsftOfcResponsive_Fill_7823dc {
 fill:#7823DC; 
}
</style>
<g><g><defs><path d="M4 31.9 28 31.9 28 0 4 0 4 31.9Z" id="SVGID_1_" class="MsftOfcResponsive_Fill_7823dc" fill="#7823DC"/></defs><defs><path d="M4 0 28 0 28 31.9 4 31.9 4 0Z" id="SVGID_00000132797621532022831310000013626553293148429185_" class="MsftOfcResponsive_Fill_7823dc" fill="#7823DC"/></defs><clipPath id="SVGID_00000031906711352640515800000008255054618780817545_"><use width="100%" height="100%" xlink:href="#SVGID_1_" overflow="visible"></use></clipPath><clipPath id="SVGID_00000096019677945832268950000015639440444226095489_" clip-path="url(#SVGID_00000031906711352640515800000008255054618780817545_)"><use width="100%" height="100%" xlink:href="#SVGID_00000132797621532022831310000013626553293148429185_" overflow="visible"></use></clipPath><g clip-path="url(#SVGID_00000096019677945832268950000015639440444226095489_)"><defs><path d="M4 31.9 28 31.9 28 0 4 0 4 31.9Z" id="SVGID_00000038389099561850179610000002698930979038377643_" class="MsftOfcResponsive_Fill_7823dc" fill="#7823DC"/></defs><clipPath id="SVGID_00000044177866784200771970000007753974728787339679_"><use width="100%" height="100%" xlink:href="#SVGID_00000038389099561850179610000002698930979038377643_" overflow="visible"></use></clipPath><path d="M23.1 26.1 25.5 25.5 25.5 25.4 25.5 25.4 24.4 21.2 25.5 20.9 25.5 20.9 25.5 20.9 26.7 19.3 26.7 19.3 26.7 19.3 26.7 8.5 26.7 8.5 26.7 8.5 25.4 8.2 25.4 2.5 25.4 2.5 16.2 0.1 16.2 0.1 16.2 0.1 16.2 0.1 16.2 0.1 6.8 2.5 6.8 2.5 6.8 2.5 6.8 8.1 5.5 8.5 5.5 8.5 5.5 8.5 5.5 19.3 5.5 19.3 6.7 20.9 6.7 20.9 6.7 20.9 7.8 21.2 7.2 23.6 6.7 25.5 9 26.1 4.1 31.9 6.7 31.9 11.1 26.7 16 27.9 16 27.9 16 27.9 16 27.9 16 27.9 20.9 26.7 25.3 31.9 28 31.9 23.1 26.1 23.1 26.1 23.1 26.1ZM17 2.4 23.3 4.1 23.3 7.7 17 6 17 2.4 17 2.4 17 2.4ZM8.8 4.1 15 2.4 15 6 8.8 7.6 8.8 4.1 8.8 4.1 8.8 4.1ZM7.8 19.1 7.4 18.6 7.4 10 16 7.7 24.6 10 24.6 18.7 24.3 19.2 16 21.2 7.8 19.1 7.8 19.1 7.8 19.1ZM16 25.8 9 24 9.6 21.6 16 23.2 16 23.2 16 23.2 16 23.2 16 23.2 22.4 21.6 23 24 16 25.8 16 25.8 16 25.8Z" class="MsftOfcResponsive_Fill_7823dc" fill="#7823DC" clip-path="url(#SVGID_00000044177866784200771970000007753974728787339679_)"/><path d="M19.5 12.7C19.5 10.8 18 9.2 16 9.2 14 9.2 12.5 10.7 12.5 12.7 12.5 14.7 14 16.2 16 16.2 17.9 16.1 19.5 14.6 19.5 12.7L19.5 12.7ZM16 14.1C15.2 14.1 14.5 13.4 14.5 12.6 14.5 11.8 15.2 11.1 16 11.1 16.8 11.1 17.5 11.8 17.5 12.6 17.5 13.5 16.8 14.1 16 14.1L16 14.1Z" class="MsftOfcResponsive_Fill_7823dc" fill="#7823DC" clip-path="url(#SVGID_00000044177866784200771970000007753974728787339679_)"/><path d="M10.8 16.4C10.8 17.2 10.2 17.8 9.4 17.8 8.6 17.8 8 17.1 8 16.4 8 15.6 8.6 15 9.4 15 10.2 15 10.8 15.6 10.8 16.4L10.8 16.4Z" class="MsftOfcResponsive_Fill_7823dc" fill="#7823DC" clip-path="url(#SVGID_00000044177866784200771970000007753974728787339679_)"/><path d="M24.1 16.4C24.1 17.2 23.5 17.8 22.7 17.8 21.9 17.8 21.3 17.2 21.3 16.4 21.3 15.6 21.9 15 22.7 15 23.4 15 24.1 15.6 24.1 16.4L24.1 16.4Z" class="MsftOfcResponsive_Fill_7823dc" fill="#7823DC" clip-path="url(#SVGID_00000044177866784200771970000007753974728787339679_)"/></g></g></g></svg>