<svg viewBox="0 0 32 32" xmlns="http://www.w3.org/2000/svg" xmlns:xlink="http://www.w3.org/1999/xlink" id="Layer_1" xml:space="preserve" overflow="hidden"><style>
.MsftOfcResponsive_Fill_7823dc {
 fill:#7823DC; 
}
</style>
<g><path d="M25.4 17C24.5 17 23.7 17.2 22.9 17.5L20.7 14.3 22.8 14.3 22.2 15.1 23.8 16.3 26 13.5 24.4 12.3 24.4 12.3 22.7 12.3 17.6 8.9 17.6 8.9 14.6 7.1 8.5 16.3 9.6 17 9.1 17.6C8.3 17.2 7.5 17 6.6 17 3 17 0 19.9 0 23.5 0 27.1 3 29.9 6.6 29.9 10.2 29.9 13.2 27 13.2 23.5 13.2 21.6 12.3 19.9 10.9 18.7L11.2 18.4 11.7 18.4 15.9 21.8 13.1 25.4 14.7 26.6 18.7 21.5 17.2 20.3 17.2 20.3 14.8 18.4 20.8 18.4 21 18.8C19.7 20 18.7 21.7 18.7 23.6 18.7 27.1 21.7 30 25.3 30 28.9 30 31.9 27.1 31.9 23.6 32 19.9 29 17 25.4 17L25.4 17ZM11.1 23.5C11.1 25.9 9 27.9 6.6 27.9 4.1 27.9 2.1 26 2.1 23.5 2.1 21 4.1 19 6.6 19 7 19 7.4 19.1 7.7 19.2L4.5 23.3 6.2 24.6 9.6 20.3C10.5 21 11.1 22.2 11.1 23.5L11.1 23.5ZM13.2 16.3 16.8 10.9 19 12.3 18.3 12.3 18.3 14.3 18.3 14.3 18.3 14.3 19.6 16.3 13.2 16.3 13.2 16.3 13.2 16.3ZM25.4 27.9C22.9 27.9 20.9 25.9 20.9 23.5 20.9 22.3 21.4 21.2 22.2 20.4L25 24.5 26.9 23.4 24.1 19.3C24.5 19.2 25 19.1 25.4 19.1 27.9 19.1 29.9 21.1 29.9 23.5 29.9 26 27.9 27.9 25.4 27.9L25.4 27.9Z" class="MsftOfcResponsive_Fill_7823dc" fill="#7823DC" fill-rule="evenodd" clip-rule="evenodd"/></g><path d="M18.1 7C16.2 7 14.6 5.4 14.6 3.5 14.6 1.6 16.2 0 18.1 0 20 0 21.6 1.6 21.6 3.5 21.6 5.4 20.1 7 18.1 7ZM18.1 2C17.3 2 16.6 2.7 16.6 3.5 16.6 4.3 17.3 5 18.1 5 18.9 5 19.6 4.3 19.6 3.5 19.6 2.7 19 2 18.1 2Z" class="MsftOfcResponsive_Fill_7823dc" fill="#7823DC"/></svg>