<svg width="32" height="32" viewBox="0 0 32 32" xmlns="http://www.w3.org/2000/svg" xmlns:xlink="http://www.w3.org/1999/xlink" overflow="hidden"><style>
.MsftOfcResponsive_Fill_7823dc {
 fill:#7823DC; 
}
</style>
<defs></defs><g><path d="M16.01 26.91 14.96 25.86 12.87 27.96 13.91 29.01 16.01 26.91Z" class="MsftOfcResponsive_Fill_7823dc" fill="#7823DC"/></g><g><path d="M16.01 26.91 17.05 25.86 19.15 27.96 18.1 29.01 16.01 26.91Z" class="MsftOfcResponsive_Fill_7823dc" fill="#7823DC"/></g><g><path d="M16.01 29.01 17.05 30.05 19.15 27.96 18.1 26.91 16.01 29.01Z" class="MsftOfcResponsive_Fill_7823dc" fill="#7823DC"/></g><g><path d="M16.01 29.01 14.96 30.05 12.87 27.96 13.91 26.91 16.01 29.01Z" class="MsftOfcResponsive_Fill_7823dc" fill="#7823DC"/></g><g><path d="M16.01 24.52C12.6 24.52 9.82 21.75 9.82 18.34 9.82 14.93 12.59 12.16 16.01 12.16 19.42 12.16 22.19 14.93 22.19 18.34 22.19 21.75 19.42 24.52 16.01 24.52ZM16.01 14.15C13.7 14.15 11.82 16.03 11.82 18.33 11.82 20.63 13.7 22.51 16.01 22.51 18.32 22.51 20.19 20.63 20.19 18.33 20.19 16.03 18.32 14.15 16.01 14.15Z" class="MsftOfcResponsive_Fill_7823dc" fill="#7823DC"/></g><g><path d="M14.18 25.52 6.19 28.82 5.63 27.45 13.62 24.15 13.84 24.69Z" class="MsftOfcResponsive_Fill_7823dc" fill="#7823DC"/></g><g><rect x="21.36" y="22.17" width="1.48" height="8.64" class="MsftOfcResponsive_Fill_7823dc" fill="#7823DC" transform="matrix(0.3816 -0.9243 0.9243 0.3816 -10.8163 36.8036)"/></g><g><rect x="13.03" y="24.35" width="1.49" height="2.4" class="MsftOfcResponsive_Fill_7823dc" fill="#7823DC" transform="matrix(0.7867 -0.6174 0.6174 0.7867 -12.8369 13.9517)"/></g><g><rect x="17.04" y="24.81" width="2.38" height="1.48" class="MsftOfcResponsive_Fill_7823dc" fill="#7823DC" transform="matrix(0.6185 -0.7857 0.7857 0.6185 -13.1198 24.0705)"/></g><g><path d="M6 20 2 20 2 2 15.01 2 15.01 8 17.01 10 17.01 0 0 0 0 22 8 22Z" class="MsftOfcResponsive_Fill_7823dc" fill="#7823DC"/></g><g><path d="M15 0 15 10 17 8 17 2 30 2 30 20 26 20 24 22 32 22 32 0Z" class="MsftOfcResponsive_Fill_7823dc" fill="#7823DC"/></g><g><rect x="4" y="4" width="9" height="2" class="MsftOfcResponsive_Fill_7823dc" fill="#7823DC"/></g><g><rect x="5.69" y="25.73" width="8.62" height="2" class="MsftOfcResponsive_Fill_7823dc" fill="#7823DC" transform="matrix(0.9236 -0.3833 0.3833 0.9236 -9.4814 5.8726)"/></g><g><rect x="4.35" y="28.72" width="4.55" height="2" class="MsftOfcResponsive_Fill_7823dc" fill="#7823DC" transform="matrix(-1.83697e-16 1 -1 -1.83697e-16 36.3537 23.0926)"/></g><g><rect x="23.09" y="28.72" width="4.55" height="2" class="MsftOfcResponsive_Fill_7823dc" fill="#7823DC" transform="matrix(-1.83697e-16 1 -1 -1.83697e-16 55.093 4.3533)"/></g><g><rect x="15.91" y="29.5" width="2.99" height="2" class="MsftOfcResponsive_Fill_7823dc" fill="#7823DC" transform="matrix(-1.83697e-16 1 -1 -1.83697e-16 47.9106 13.0953)"/></g><g><rect x="13.1" y="29.5" width="2.99" height="2" class="MsftOfcResponsive_Fill_7823dc" fill="#7823DC" transform="matrix(-1.83697e-16 1 -1 -1.83697e-16 45.1025 15.9034)"/></g><g><rect x="17.7" y="25.73" width="8.62" height="2" class="MsftOfcResponsive_Fill_7823dc" fill="#7823DC" transform="matrix(-0.9236 -0.3833 0.3833 -0.9236 32.0862 59.85)"/></g><g><rect x="16.28" y="26.25" width="2.97" height="2" class="MsftOfcResponsive_Fill_7823dc" fill="#7823DC" transform="matrix(-0.6998 -0.7144 0.7144 -0.6998 10.7267 59.0023)"/></g><g><rect x="16.2" y="27.49" width="3.48" height="2" class="MsftOfcResponsive_Fill_7823dc" fill="#7823DC" transform="matrix(0.7079 -0.7063 0.7063 0.7079 -14.88 20.9912)"/></g><g><rect x="12.76" y="26.25" width="2.97" height="2" class="MsftOfcResponsive_Fill_7823dc" fill="#7823DC" transform="matrix(0.6998 -0.7144 0.7144 0.6998 -15.1863 18.3592)"/></g><g><rect x="12.33" y="27.49" width="3.48" height="2" class="MsftOfcResponsive_Fill_7823dc" fill="#7823DC" transform="matrix(-0.7079 -0.7063 0.7063 -0.7079 3.9106 58.592)"/></g><g><rect x="4" y="8" width="9" height="2" class="MsftOfcResponsive_Fill_7823dc" fill="#7823DC"/></g><g><rect x="19" y="4" width="9" height="2" class="MsftOfcResponsive_Fill_7823dc" fill="#7823DC"/></g><g><rect x="19" y="8" width="9" height="2" class="MsftOfcResponsive_Fill_7823dc" fill="#7823DC"/></g><g><rect x="4" y="12" width="6" height="2" class="MsftOfcResponsive_Fill_7823dc" fill="#7823DC"/></g><g><rect x="4" y="16" width="4" height="2" class="MsftOfcResponsive_Fill_7823dc" fill="#7823DC"/></g><g><rect x="22" y="12" width="6" height="2" class="MsftOfcResponsive_Fill_7823dc" fill="#7823DC"/></g><g><rect x="24" y="16" width="4" height="2" class="MsftOfcResponsive_Fill_7823dc" fill="#7823DC"/></g><g><rect x="15.01" y="8" width="2" height="2" class="MsftOfcResponsive_Fill_7823dc" fill="#7823DC"/></g></svg>