<svg width="32" height="32" viewBox="0 0 32 32" xmlns="http://www.w3.org/2000/svg" xmlns:xlink="http://www.w3.org/1999/xlink" overflow="visible"><defs></defs><path d="M26 21.2 26 25.3 20.5 25.3 20.5 8.5 14 8.5 14 20.7 8 20.7 8 25.2 6.6 25.2 6.6 11.8 1.5 11.8 1.5 25.3 0 25.3 0 32 32 32 32 21.2 26 21.2ZM30 30 2 30 2 27.3 3.5 27.3 3.5 13.8 4.6 13.8 4.6 27.3 10 27.3 10 22.8 16 22.8 16 10.5 18.5 10.5 18.5 27.2 28 27.2 28 23.1 30 23.1 30 30Z" fill="#7823DC"/><path d="M17 0 17 10.5 18.5 10.5 18.5 26.7 25.3 26.7 25.3 0 17 0ZM19.2 2 23 2 23 24.8 19.1 24.8 19.1 2Z" fill="#7823DC"/><rect x="0.4" y="10.1" width="7.5" height="2" fill="#7823DC"/><path d="M8.6 8.8C7.8 8.8 7 8.6 6.4 8.3 4.1 8.7 2 7.5 1.8 5.9 1.1 5.3 0.7 4.7 0.7 3.9 0.7 2.4 2.4 1.2 4.5 1.2 4.7 1.2 4.9 1.2 5.1 1.2 5.8 0.5 6.9 0.2 8.1 0.2 9.8 0.2 11.2 1 11.7 2.1 13.3 2.4 14.3 3.5 14.3 4.7 14.3 5.8 13.4 6.8 12 7.2 11.5 8.1 10.2 8.8 8.6 8.8ZM6.8 6.2 7.2 6.4C7.5 6.7 8 6.8 8.6 6.8 9.7 6.8 10.3 6.3 10.4 6.1L10.5 5.4 11.2 5.3C12 5.1 12.4 4.8 12.4 4.6 12.4 4.4 11.9 4 10.9 3.9L9.9 3.8 9.9 2.8C9.9 2.6 9.2 2.1 8.1 2.1 7.2 2.1 6.5 2.4 6.4 2.7L6 3.5 5.3 3.3C5 3.2 4.8 3.2 4.5 3.2 3.4 3.2 2.7 3.7 2.7 3.9 2.7 4 2.8 4.2 3.3 4.4L4.1 4.8 3.8 5.6C3.8 5.9 4.5 6.4 5.6 6.4 5.8 6.4 6.1 6.4 6.3 6.3L6.8 6.2Z" fill="#7823DC"/></svg>