<svg viewBox="0 0 32 32" xmlns="http://www.w3.org/2000/svg" xmlns:xlink="http://www.w3.org/1999/xlink" id="Layer_5" overflow="hidden"><defs></defs><path d="M15.42 29.57C14.26 29.57 13.23 28.05 12.37 26.78 12.25 26.6 12.14 26.44 12.05 26.32 11.94 26.2 11.28 25.82 9.69 25.37 8.97 25.17 8.29 24.91 7.61 24.6L7.61 24.6 3.51 22.69C1.79 21.89 0.62 20.13 0.21 17.75-0.12 15.84 0.06 13.28 0.9 12.45 1.06 12.2 1.16 11.21 1.15 9.54 1.15 9.01 1.15 8.79 1.2 8.58L1.32 8.12 1.79 7.89C2.67 7.5 5.55 8.6 6.23 8.87 6.41 8.9 6.97 8.89 7.43 8.89 8.72 8.89 10.52 8.89 12.02 9.22 14.28 9.73 15.11 9.88 16.66 9.93 17.69 9.96 20.76 10.37 21.58 11.39 21.82 11.68 21.91 12.04 21.85 12.39 21.83 12.49 21.81 12.61 21.77 12.73 22.25 12.48 22.79 12.3 23.37 12.36 24.21 12.44 24.76 12.94 25.01 13.86 25.52 13.4 26.09 12.8 26.31 12.49 26.52 12.19 27.11 11.34 28.19 11.19 28.32 10.99 28.51 10.62 28.63 10.38 29.11 9.42 29.66 8.34 30.74 8.65 31.8 8.96 31.93 10.14 32.02 10.92 32.04 11.09 32.06 11.26 32.08 11.4 32.25 12.21 31.76 12.88 31.47 13.27 31.44 13.31 31.41 13.36 31.38 13.4 31.36 14.26 30.79 15.6 29.62 16.27 29.12 16.56 28.75 18.21 28.91 18.68 29.43 20.12 28.36 21.66 27.68 22.45 27.32 22.86 27.31 24.37 27.66 25.43 27.93 26.26 27.83 27.23 27.4 28.03 27.1 28.58 26.69 28.96 26.23 29.09 24.95 29.45 24.12 27.81 23.24 26.08 23.17 25.95 23.13 25.91 23.13 25.91 23.14 25.93 23.01 25.94 22.9 25.95 22.67 25.97 22.43 25.98 22.19 25.95 22.06 25.95 21.6 26.1 21.27 26.21 20.54 26.45 19.63 26.75 18.69 26.75 18.34 26.75 18.01 26.73 17.71 26.72 17.63 26.72 17.54 26.72 17.45 26.71 17.45 27.66 17.1 28.85 16.08 29.4 15.85 29.52 15.62 29.58 15.4 29.58ZM8.45 22.79C9.03 23.06 9.62 23.28 10.23 23.45 13 24.24 13.48 24.9 13.66 25.15 13.76 25.28 13.88 25.46 14.01 25.66 14.27 26.05 14.89 26.96 15.32 27.38 15.43 27.12 15.49 26.72 15.43 26.38 15.32 25.77 15.57 25.38 15.72 25.2 16.21 24.64 16.95 24.68 17.81 24.72 18.07 24.73 18.37 24.75 18.69 24.75 19.31 24.75 20.02 24.52 20.65 24.31 21.32 24.09 21.89 23.9 22.42 23.96 22.54 23.97 22.65 23.96 22.76 23.96 23.28 23.92 24.34 23.85 25.02 25.19 25.16 25.47 25.48 26.11 25.78 26.61 25.81 26.43 25.8 26.24 25.74 26.06 25.45 25.16 24.96 22.54 26.16 21.15 26.94 20.25 27.1 19.59 27.02 19.37 26.58 18.15 27.15 15.4 28.61 14.55 29.16 14.23 29.37 13.52 29.37 13.35 29.34 13.16 29.37 12.98 29.43 12.81 29.18 13.04 28.88 13.18 28.52 13.18 28.45 13.18 28.27 13.18 27.95 13.65 27.54 14.23 26.62 15.15 26 15.67 24.65 16.79 23.9 16.55 23.5 16.15 23.2 15.84 23.19 15.49 23.18 15.16 23.18 15.01 23.17 14.59 23.1 14.38 22.81 14.43 22.28 14.77 22.01 14.95 21.47 15.3 20.95 15.64 20.35 15.46 20.03 15.36 19.77 15.13 19.63 14.81 19.34 14.13 19.56 13.3 19.76 12.57 19.11 12.31 17.73 12 16.6 11.96 14.9 11.9 13.96 11.74 11.59 11.2 10.31 10.91 8.66 10.91 7.44 10.92 6.29 10.92 5.83 10.92 5.45 10.73 5.18 10.6 4 10.22 3.15 9.99 3.15 11.67 3.04 13.18 2.3 13.91 2.13 14.22 1.79 16.36 2.4 18.36 2.78 19.62 3.44 20.48 4.36 20.91L8.46 22.82ZM6.25 8.88C6.33 8.91 6.38 8.93 6.38 8.93 6.32 8.9 6.28 8.89 6.25 8.88Z" fill="#7823DC"/></svg>