<svg viewBox="0 0 31.79 31.79" xmlns="http://www.w3.org/2000/svg" xmlns:xlink="http://www.w3.org/1999/xlink" id="Outline_Final_icon" overflow="hidden"><defs></defs><path d="M22.44 16.01C25.98 16.01 28.85 18.89 28.85 22.42 28.85 25.95 25.97 28.83 22.44 28.83 18.91 28.83 16.03 25.95 16.03 22.42 16.03 18.89 18.91 16.01 22.44 16.01M22.44 14.18C17.89 14.18 14.2 17.87 14.2 22.42 14.2 26.97 17.89 30.66 22.44 30.66 26.99 30.66 30.68 26.97 30.68 22.42 30.68 17.87 26.99 14.18 22.44 14.18L22.44 14.18Z" fill="#7823DC"/><rect x="24.84" y="18.79" width="1.82" height="6.84" fill="#7823DC"/><path d="M17.63 25.63 19.51 25.63 19.88 24.25 21.89 24.25 22.25 25.63 24.13 25.63 22.33 18.79 19.46 18.79 17.63 25.63ZM20.85 20.61 20.93 20.61 21.41 22.44 20.36 22.44 20.85 20.61Z" fill="#7823DC"/><path d="M15.88 29.78C13.81 29.77 11.52 24.52 11.25 17.3L13.43 17.3C13.84 16.57 14.34 15.9 14.91 15.3L11.24 15.3C11.36 7.65 13.75 1.99 15.9 1.99 17.76 1.99 19.81 6.25 20.4 12.38 20.94 12.29 21.48 12.23 22.05 12.23 22.17 12.23 22.28 12.24 22.4 12.25 22.03 8.41 21.09 4.8 19.62 2.5 25.48 4.13 29.81 9.5 29.81 15.87 29.81 15.91 29.81 15.96 29.81 16 30.54 16.93 31.11 17.99 31.47 19.14 31.69 18.08 31.81 16.99 31.81 15.86 31.79 7.13 24.66 0 15.89 0 7.12 0 0 7.13 0 15.89 0 24.65 7.13 31.78 15.89 31.78 16.96 31.78 18 31.67 19.02 31.47 17.87 31.1 16.81 30.52 15.88 29.78ZM12.18 2.52C10.32 5.42 9.31 10.41 9.23 15.31L2.03 15.31C2.29 9.2 6.5 4.1 12.18 2.52ZM2.07 17.31 9.25 17.31C9.42 21.94 10.43 26.54 12.18 29.27 6.76 27.76 2.65 23.06 2.07 17.31Z" fill="#7823DC"/></svg>