<svg viewBox="0 0 32 32" xmlns="http://www.w3.org/2000/svg" xmlns:xlink="http://www.w3.org/1999/xlink" overflow="hidden"><defs></defs><g id="Layer_3"><path d="M15.9997 12.3569C24.0125 12.3569 29.9997 15.5246 29.9997 18.3569 29.9997 21.1891 24.0125 24.3569 15.9997 24.3569 7.98693 24.3569 1.99971 21.1891 1.99971 18.3569 1.99971 15.5246 7.98693 12.3569 15.9997 12.3569M15.9997 10.3569C7.16315 10.3569-0.00029 13.9386-0.00029 18.3569-0.00029 22.7751 7.16315 26.3569 15.9997 26.3569 24.8363 26.3569 31.9997 22.7752 31.9997 18.3569 31.9997 13.9386 24.8363 10.3569 15.9997 10.3569Z" fill="#7823DC"/><rect x="29.9997" y="18.3569" width="2" height="5.47836" fill="#7823DC"/><rect x="-0.00029" y="18.3569" width="2" height="5.47836" fill="#7823DC"/><path d="M17.222 20.728C16.847 21.2557 16.2478 21.5788 15.6009 21.6022 14.2951 21.597 13.2339 20.1372 13.2339 18.3439 13.2339 16.5472 14.2993 15.0862 15.5933 15.0856 16.2429 15.1069 16.8452 15.4305 17.2217 15.9604L17.3264 16.1124 18.7968 16.1124 18.4687 15.6056C17.871 14.5849 16.7908 13.9431 15.6086 13.9062 13.6074 13.9062 11.9792 15.897 11.9792 18.3439 11.9792 20.7908 13.6074 22.7821 15.6086 22.7821 16.7913 22.7478 17.8724 22.1046 18.4669 21.0816L18.7907 20.5759 17.3268 20.5759Z" fill="#7823DC"/><path d="M15.6084 23.1826C13.3867 23.1826 11.5791 21.0117 11.5791 18.3438 11.5791 15.6768 13.3867 13.5059 15.6084 13.5059 16.9267 13.5413 18.1341 14.2522 18.8047 15.3877L19.5322 16.5127 17.1167 16.5127 16.8921 16.1865C16.5873 15.7603 16.1009 15.5009 15.5771 15.4853 14.5312 15.4864 13.6338 16.7949 13.6338 18.3438 13.6338 19.915 14.5171 21.1973 15.603 21.2022 16.1181 21.1795 16.5939 20.9209 16.893 20.501L17.1157 20.1758 19.5214 20.1758 18.8037 21.2978C18.1364 22.4366 16.9278 23.1495 15.6084 23.1826ZM15.6084 14.3066C13.8276 14.3066 12.3789 16.1172 12.3789 18.3437 12.3789 20.5703 13.8276 22.3818 15.6084 22.3818 16.6079 22.3511 17.5263 21.824 18.0571 20.9765L17.5371 20.9765C17.089 21.5945 16.3819 21.9725 15.6191 22.0019 14.0742 21.9961 12.834 20.3545 12.834 18.3437 12.834 16.3271 14.0718 14.6855 15.5933 14.6855 16.3651 14.708 17.0829 15.0871 17.5366 15.7119L18.0591 15.7119C17.5262 14.8656 16.608 14.3391 15.6084 14.3066Z" fill="#7823DC"/><rect x="10.355" y="18.7406" width="5.41976" height="2" fill="#7823DC"/><rect x="10.355" y="15.9266" width="5.41976" height="2" fill="#7823DC"/><path d="M15.9997 29.6902C7.98696 29.6902 1.99971 26.5224 1.99971 23.6902L-0.00029 23.6902C-0.00029 28.1084 7.16317 31.6902 15.9997 31.6902 24.8363 31.6902 31.9997 28.1084 31.9997 23.6902L29.9997 23.6902C29.9997 26.5224 24.0125 29.6902 15.9997 29.6902Z" fill="#7823DC"/></g></svg>