<svg width="36.5" height="36.6" viewBox="0 0 36.5 36.6" xmlns="http://www.w3.org/2000/svg" xmlns:xlink="http://www.w3.org/1999/xlink" overflow="hidden"><defs></defs><g><g><defs><path d="M0 36.5 36.5 36.5 36.5 0 0 0 0 36.5Z" id="SVGID_1_" fill="#7823DC"/></defs><clipPath id="SVGID_2_"><use width="100%" height="100%" xlink:href="#SVGID_1_"></use></clipPath><g clip-path="url(#SVGID_2_)"><defs><path d="M0 36.5 36.5 36.5 36.5 0 0 0 0 36.5Z" id="SVGID_3_" fill="#7823DC"/></defs><clipPath id="SVGID_4_"><use width="100%" height="100%" xlink:href="#SVGID_3_"></use></clipPath><path d="M18.2 36.6C8.2 36.6 0 28.4 0 18.3 0 8.2 8.2 0 18.2 0 28.2 0 36.4 8.2 36.4 18.3 36.5 28.4 28.3 36.6 18.2 36.6ZM18.2 2.3C9.4 2.3 2.2 9.5 2.2 18.3 2.2 27.1 9.4 34.3 18.2 34.3 27 34.3 34.2 27.1 34.2 18.3 34.2 9.5 27 2.3 18.2 2.3Z" fill="#7823DC" clip-path="url(#SVGID_4_)"/><rect x="1.2" y="17.1" width="34.2" height="2.3" fill="#7823DC" clip-path="url(#SVGID_4_)"/><path d="M18.2 36.6C13.6 36.6 10.2 28.7 10.2 18.3 10.2 7.9 13.6 0 18.2 0 22.8 0 26.2 7.9 26.2 18.3 26.2 28.7 22.8 36.6 18.2 36.6ZM18.2 2.3C15.5 2.3 12.5 8.9 12.5 18.3 12.5 27.7 15.5 34.3 18.2 34.3 20.9 34.3 23.9 27.7 23.9 18.3 23.9 8.9 20.9 2.3 18.2 2.3Z" fill="#7823DC" clip-path="url(#SVGID_4_)"/></g></g></g></svg>