<svg viewBox="0 0 32 32" xmlns="http://www.w3.org/2000/svg" xmlns:xlink="http://www.w3.org/1999/xlink" overflow="hidden"><defs></defs><g id="Layer_3"><path d="M13.7205 2.02325C14.2728 2.02325 14.7205 2.47097 14.7205 3.02325 14.7205 3.57553 14.2728 4.02325 13.7205 4.02325 13.1682 4.02325 12.7205 3.57553 12.7205 3.02325 12.7205 2.47097 13.1682 2.02325 13.7205 2.02325M13.7205 0.02325C12.0636 0.02325 10.7205 1.3664 10.7205 3.02325 10.7205 4.6801 12.0636 6.02325 13.7205 6.02325 15.3773 6.02325 16.7205 4.6801 16.7205 3.02325 16.7186 1.36717 15.3766 0.0251183 13.7205 0.0232501Z" fill="#7823DC"/><path d="M19.725 32.023 17.725 32.023 17.725 22.483 10.668 16.438 11.604 8.023 11.201 8.023 7.784 12.299 8.711 17.859 6.738 18.187 5.665 11.748 10.24 6.023 13.838 6.023 12.773 15.608 19.725 21.563 19.725 32.023Z" fill="#7823DC"/><path d="M6.395 31.894 5.055 30.407 11.858 24.276 14.706 15.912 13.603 6.023 18.286 6.023 21.453 11.294 26.239 14.166 25.21 15.881 19.996 12.753 17.155 8.023 15.839 8.023 16.743 16.135 13.583 25.413 6.395 31.894Z" fill="#7823DC"/></g></svg>