<svg viewBox="0 0 32 32" xmlns="http://www.w3.org/2000/svg" xmlns:xlink="http://www.w3.org/1999/xlink" overflow="hidden"><defs></defs><g id="Layer_3"><path d="M18 31.047 17 31.127 16.99 31.047 18 31.047Z" fill="#7823DC"/><path d="M20 6.04659 20 0.04659 18 0.04659 18 6.04659 15 6.04659 15 4.04659 9 4.04659 9 9.04659 5 9.04659 5 13.0466 0.88 13.0466 3.11 32.0466 28 32.0466 29 32.1265 30.93 8.04659 32 8.04659 32 6.04659ZM15 11.0466 17 11.0466 17 14.0466C16.9985 15.62 16.2579 17.1013 15 18.0466ZM11 6.04659 13 6.04659 13 18.9465C12.34 19.08 11.66 19.08 11 18.9465ZM7 11.0466 9 11.0466 9 18.0466C7.74215 17.1013 7.00149 15.62 7 14.0466ZM4.89 30.0466 3.12 15.0466 5.07 15.0466C5.28011 16.5165 5.95665 17.8801 7 18.9366 7.5739 19.5312 8.25172 20.0159 9 20.3667 9.62963 20.674 10.3052 20.8766 11 20.9665 11.3302 21.0238 11.6649 21.0506 12 21.0466 12.3351 21.0506 12.6698 21.0238 13 20.9665 13.6948 20.8766 14.3704 20.674 15 20.3667 15.7483 20.0159 16.4261 19.5312 17 18.9366 18.0434 17.8801 18.7199 16.5165 18.93 15.0466L20.88 15.0466 19.11 30.0466ZM27.15 30.0466 21.12 30.0466 23.12 13.0466 19 13.0466 19 9.04659 15 9.04659 15 8.04659 28.91 8.04659Z" fill="#7823DC"/><path d="M12 29.0466C10.067 29.0466 8.5 27.4796 8.5 25.5466 8.5 23.6136 10.067 22.0466 12 22.0466 13.933 22.0466 15.5 23.6136 15.5 25.5466 15.4977 27.4786 13.932 29.0443 12 29.0466ZM12 24.0466C11.1716 24.0466 10.5 24.7182 10.5 25.5466 10.5 26.375 11.1716 27.0466 12 27.0466 12.8284 27.0466 13.5 26.375 13.5 25.5466 13.4991 24.7185 12.8281 24.0475 12 24.0466Z" fill="#7823DC"/></g></svg>