<svg viewBox="0 0 32 32" xmlns="http://www.w3.org/2000/svg" xmlns:xlink="http://www.w3.org/1999/xlink" id="a" overflow="hidden"><defs></defs><g><path d="M16.48 18.96 16.48 21.54 21.34 16.68 20.06 15.38 16.48 18.96 16.48 18.96 16.48 18.96Z" fill="#7823DC" fill-rule="evenodd"/><path d="M23.69 32C21.6 32 19.91 30.32 19.91 28.25 19.91 26.18 21.61 24.5 23.69 24.5 25.77 24.5 27.47 26.18 27.47 28.25 27.47 30.32 25.77 32 23.69 32ZM23.69 26.49C22.71 26.49 21.91 27.28 21.91 28.24 21.91 29.2 22.71 29.99 23.69 29.99 24.67 29.99 25.47 29.2 25.47 28.24 25.47 27.28 24.67 26.49 23.69 26.49Z" fill="#7823DC"/><path d="M21.87 27.81 19.99 27.81 19.99 15.38 21.87 15.38 21.87 27.81 21.87 27.81Z" fill="#7823DC" fill-rule="evenodd"/></g><g><path d="M0 18.96 0 21.54 4.86 16.68 3.58 15.38 0 18.96 0 18.96 0 18.96Z" fill="#7823DC" fill-rule="evenodd"/><path d="M7.21 32C5.12 32 3.43 30.32 3.43 28.25 3.43 26.18 5.13 24.5 7.21 24.5 9.29 24.5 10.99 26.18 10.99 28.25 10.99 30.32 9.29 32 7.21 32ZM7.21 26.49C6.23 26.49 5.43 27.28 5.43 28.24 5.43 29.2 6.23 29.99 7.21 29.99 8.19 29.99 8.99 29.2 8.99 28.24 8.99 27.28 8.19 26.49 7.21 26.49Z" fill="#7823DC"/><path d="M5.39 27.81 3.52 27.81 3.52 15.38 5.39 15.38 5.39 27.81 5.39 27.81Z" fill="#7823DC" fill-rule="evenodd"/></g><g><path d="M4.07 3.58 4.07 6.15 8.93 1.29 7.64 0 4.07 3.58 4.07 3.58 4.07 3.58Z" fill="#7823DC" fill-rule="evenodd"/><path d="M11.27 16.62C9.18 16.62 7.49 14.94 7.49 12.87 7.49 10.8 9.19 9.12 11.27 9.12 13.35 9.12 15.05 10.8 15.05 12.87 15.05 14.94 13.35 16.62 11.27 16.62ZM11.27 11.11C10.29 11.11 9.49 11.9 9.49 12.86 9.49 13.82 10.29 14.61 11.27 14.61 12.25 14.61 13.05 13.82 13.05 12.86 13.05 11.9 12.25 11.11 11.27 11.11Z" fill="#7823DC"/><path d="M9.46 12.42 7.58 12.42 7.58 0 9.46 0 9.46 12.42 9.46 12.42Z" fill="#7823DC" fill-rule="evenodd"/></g><g><path d="M21.01 3.58 21.01 6.15 25.87 1.29 24.59 0 21.01 3.58 21.01 3.58 21.01 3.58Z" fill="#7823DC" fill-rule="evenodd"/><path d="M28.22 16.62C26.13 16.62 24.44 14.94 24.44 12.87 24.44 10.8 26.14 9.12 28.22 9.12 30.3 9.12 32 10.8 32 12.87 32 14.94 30.3 16.62 28.22 16.62ZM28.22 11.11C27.24 11.11 26.44 11.9 26.44 12.86 26.44 13.82 27.24 14.61 28.22 14.61 29.2 14.61 30 13.82 30 12.86 30 11.9 29.2 11.11 28.22 11.11Z" fill="#7823DC"/><path d="M26.4 12.42 24.52 12.42 24.52 0 26.4 0 26.4 12.42 26.4 12.42Z" fill="#7823DC" fill-rule="evenodd"/></g></svg>