<svg viewBox="0 0 32 32" xmlns="http://www.w3.org/2000/svg" xmlns:xlink="http://www.w3.org/1999/xlink" id="Graphic" xml:space="preserve" overflow="hidden"><g><path d="M28.2 10 29.9 30 2.1 30 3.8 10 28.2 10M30 8 2 8 0.3 28 4.1 32 28 32 31.7 28 30 8 30 8 30 8Z" fill="#7823DC"/><path d="M8 14.3C6.8 14.3 5.7 13.3 5.7 12L10.2 12C10.2 13.2 9.2 14.2 8 14.3 8 14.3 8 14.3 8 14.3L8 14.3Z" fill="#7823DC"/><path d="M24 14.3C22.8 14.3 21.7 13.3 21.7 12L26.2 12C26.3 13.2 25.3 14.2 24 14.3 24 14.3 24 14.3 24 14.3L24 14.3Z" fill="#7823DC"/><path d="M25 12 23 12 23 7.2C23 4.3 20.7 2 17.8 2L14.2 2C11.3 2 9 4.3 9 7.2L9 12 7 12 7 7.2C7 3.2 10.2 0 14.2 0L17.8 0C21.8 0 25 3.2 25 7.2L25 12Z" fill="#7823DC"/></g></svg>