<svg viewBox="0 0 32 32" xmlns="http://www.w3.org/2000/svg" xmlns:xlink="http://www.w3.org/1999/xlink" id="Layer_2_1_" overflow="hidden"><style>
.MsftOfcResponsive_Fill_7823dc {
 fill:#7823DC; 
}
</style>
<g><defs><path d="M0 32 32 32 32 0 0 0 0 32Z" id="SVGID_1_" class="MsftOfcResponsive_Fill_7823dc" fill="#7823DC"/></defs><defs><path d="M0 0 32 0 32 32 0 32 0 0Z" id="SVGID_2_" class="MsftOfcResponsive_Fill_7823dc" fill="#7823DC"/></defs><clipPath id="SVGID_3_"><use width="100%" height="100%" xlink:href="#SVGID_1_" overflow="visible"></use></clipPath><clipPath id="SVGID_4_" class="st0" clip-path="url(#SVGID_3_)"><use width="100%" height="100%" xlink:href="#SVGID_2_" overflow="visible"></use></clipPath><g class="st1" clip-path="url(#SVGID_4_)"><defs><path d="M0 32 32 32 32 0 0 0 0 32Z" id="SVGID_5_" class="MsftOfcResponsive_Fill_7823dc" fill="#7823DC"/></defs><clipPath id="SVGID_6_"><use width="100%" height="100%" xlink:href="#SVGID_5_" overflow="visible"></use></clipPath><path d="M12.6 22.2 14.5 22.2 14.5 31.8 12.6 31.8 12.6 22.2Z" class="st2 MsftOfcResponsive_Fill_7823dc" fill="#7823DC" clip-path="url(#SVGID_6_)"/><path d="M5.8 14.5C7.4 14.5 8.7 15.8 8.7 17.4 8.7 19 7.4 20.3 5.8 20.3 4.2 20.3 2.9 19 2.9 17.4 2.9 15.8 4.2 14.5 5.8 14.5M5.8 12.5C3.1 12.5 1 14.7 1 17.3 1 19.9 3.2 22.1 5.8 22.1 8.4 22.1 10.6 19.9 10.6 17.3 10.6 14.7 8.5 12.5 5.8 12.5L5.8 12.5Z" class="st2 MsftOfcResponsive_Fill_7823dc" fill="#7823DC" clip-path="url(#SVGID_6_)"/><path d="M12.6 22.2 9.9 22.2 5.8 26.2 1.8 22.2 1 22.2 1 24.1 5.8 28.9 12.6 22.2 12.6 22.2Z" class="st2 MsftOfcResponsive_Fill_7823dc" fill="#7823DC" clip-path="url(#SVGID_6_)"/><path d="M16.4 8.7 16.4 10.6 14.5 10.6 14.5 8.7 16.4 8.7M18.4 6.7 12.6 6.7 12.6 12.5 18.4 12.5 18.4 6.7 18.4 6.7 18.4 6.7Z" class="st2 MsftOfcResponsive_Fill_7823dc" fill="#7823DC" clip-path="url(#SVGID_6_)"/><path d="M16.4 16.4 16.4 18.3 14.5 18.3 14.5 16.4 16.4 16.4M18.4 14.4 12.6 14.4 12.6 20.2 18.4 20.2 18.4 14.4 18.4 14.4 18.4 14.4Z" class="st2 MsftOfcResponsive_Fill_7823dc" fill="#7823DC" clip-path="url(#SVGID_6_)"/><path d="M31.9 1 29.9 2.9 6.8 2.9 6.8 10.6 4.9 10.6 4.9 4.8 8.7 1 31.9 1 31.9 1Z" class="st2 MsftOfcResponsive_Fill_7823dc" fill="#7823DC" clip-path="url(#SVGID_6_)"/><path d="M23.9 12.2 20.5 8.8 21.9 7.4 23.9 9.5 27.3 6 28.7 7.4Z" class="st2 MsftOfcResponsive_Fill_7823dc" fill="#7823DC" clip-path="url(#SVGID_6_)"/><path d="M23.9 19.9 20.5 16.5 21.9 15.1 23.9 17.2 27.3 13.8 28.7 15.1Z" class="st2 MsftOfcResponsive_Fill_7823dc" fill="#7823DC" clip-path="url(#SVGID_6_)"/><path d="M23.9 27.6 20.5 24.2 21.9 22.9 23.9 24.9 27.3 21.5 28.7 22.9Z" class="st2 MsftOfcResponsive_Fill_7823dc" fill="#7823DC" clip-path="url(#SVGID_6_)"/><rect x="30" y="1" width="1.9" height="30.9" class="st2 MsftOfcResponsive_Fill_7823dc" fill="#7823DC" clip-path="url(#SVGID_6_)"/><rect x="16.5" y="29.9" width="14.5" height="1.9" class="st2 MsftOfcResponsive_Fill_7823dc" fill="#7823DC" clip-path="url(#SVGID_6_)"/><path d="M16.5 24.1 16.5 26 14.6 26 14.6 24.1 16.5 24.1M18.4 22.2 12.6 22.2 12.6 28 18.4 28 18.4 22.2 18.4 22.2 18.4 22.2Z" class="st2 MsftOfcResponsive_Fill_7823dc" fill="#7823DC" clip-path="url(#SVGID_6_)"/></g></g></svg>