<svg viewBox="0 0 32 32" xmlns="http://www.w3.org/2000/svg" xmlns:xlink="http://www.w3.org/1999/xlink" id="Graphic" overflow="hidden"><defs></defs><path d="M8 24.03 10 24.03 10 26.03 8 24.03Z" fill="#7823DC"/><path d="M23.99 24.02 21.99 24.02 21.99 26.02 23.99 24.02Z" fill="#7823DC"/><path d="M29.95 18.04 27.95 18.04 27.95 20.04 29.95 18.04Z" fill="#7823DC"/><path d="M1.97 18.04 3.97 18.04 3.97 20.04 1.97 18.04Z" fill="#7823DC"/><path d="M16 12 13 15 13 17.83 15 15.83 15 32 17 32 17 15.83 19 17.83 19 15 16 12Z" fill="#7823DC"/><path d="M9 6 6 9 6 11.83 8 9.83 8 22 10 22 10 9.83 12 11.83 12 9 9 6Z" fill="#7823DC"/><path d="M23 6 20 9 20 11.83 22 9.83 22 22 24 22 24 9.83 26 11.83 26 9 23 6Z" fill="#7823DC"/><path d="M3 0 0 3 0 5.83 2 3.83 2 16 4 16 4 3.83 6 5.83 6 3 3 0Z" fill="#7823DC"/><path d="M29 0 26 3 26 5.83 28 3.83 28 16 30 16 30 3.83 32 5.83 32 3 29 0Z" fill="#7823DC"/><path d="M16 0 13 3 13 5.83 15 3.83 15 10 17 10 17 3.83 19 5.83 19 3 16 0Z" fill="#7823DC"/></svg>