<svg viewBox="0 0 32 32" xmlns="http://www.w3.org/2000/svg" xmlns:xlink="http://www.w3.org/1999/xlink" overflow="hidden"><defs></defs><g id="Layer_3"><path d="M10 10C8.89543 10 8 9.10457 8 8 8 6.89543 8.89543 6 10 6 11.1046 6 12 6.89543 12 8 11.9987 9.10405 11.104 9.99874 10 10ZM10 7.99854 10 7.99854Z" fill="#7823DC"/><path d="M27 5 5 5C4.44786 5.00014 4.00014 4.55266 4 4.00052 4 4.00035 4 4.00017 4 4L4 1C3.99986 0.447859 4.44734 0.000143613 4.99948 2.22045e-16 4.99965-4.50901e-08 4.99983-4.50901e-08 5 2.22045e-16L27 0C27.5521-0.000143613 27.9999 0.447339 28 0.99948 28 0.999653 28 0.999827 28 1L28 4C28.0001 4.55214 27.5527 4.99986 27.0005 5 27.0003 5 27.0002 5 27 5ZM6 3 26 3 26 2 6 2Z" fill="#7823DC"/><path d="M28 18 4 18C3.44786 18.0001 3.00014 17.5527 3 17.0005 3 17.0003 3 17.0002 3 17L3 14C2.99986 13.4479 3.44734 13.0001 3.99948 13 3.99965 13 3.99983 13 4 13L28 13C28.5521 12.9999 28.9999 13.4473 29 13.9995 29 13.9997 29 13.9998 29 14L29 17C29.0001 17.5521 28.5527 17.9999 28.0005 18 28.0003 18 28.0002 18 28 18ZM5 16 27 16 27 15 5 15Z" fill="#7823DC"/><path d="M25 15 7 15C6.52344 14.9999 6.11314 14.6636 6.01953 14.1963L4.01953 4.19629C3.91112 3.65475 4.26225 3.12786 4.80379 3.01945 4.86839 3.00652 4.93411 3.00001 5 3L27 3C27.5523 3.00004 28 3.44779 27.9999 4.00008 27.9999 4.06596 27.9934 4.13169 27.9805 4.19629L25.9805 14.1963C25.8869 14.6636 25.4766 14.9999 25 15ZM7.81934 13 24.1807 13 25.7803 5 6.21973 5Z" fill="#7823DC"/><path d="M26.326 32 5.674 32 8.038 23.725 9.962 24.275 8.326 30 23.674 30 22.038 24.275 23.962 23.725 26.326 32Z" fill="#7823DC"/><path d="M16 27.5C8.71 27.5 4 23.5747 4 17.5L6 17.5C6 23.3984 11.166 25.5 16 25.5 20.834 25.5 26 23.3984 26 17.5L28 17.5C28 23.5747 23.29 27.5 16 27.5Z" fill="#7823DC"/><rect x="11" y="7" width="3.00488" height="2" fill="#7823DC"/></g></svg>