<svg viewBox="0 0 32 29.98" xmlns="http://www.w3.org/2000/svg" xmlns:xlink="http://www.w3.org/1999/xlink" id="a" overflow="hidden"><style>
.MsftOfcResponsive_Fill_7823dc {
 fill:#7823DC; 
}
</style>
<path d="M27.36 5.98C28.82 5.98 30 7.17 30 8.62L30 27.98 19.08 27.98 19.08 8.63C19.08 7.17 20.27 5.99 21.72 5.99L27.35 5.99M27.35 3.99 21.72 3.99C19.17 3.99 17.08 6.08 17.08 8.63L17.08 29.98 32 29.98 32 8.63C32 6.08 29.91 3.99 27.36 3.99L27.36 3.99Z" class="MsftOfcResponsive_Fill_7823dc" fill="#7823DC"/><path d="M10.28 5.98C11.74 5.98 12.92 7.17 12.92 8.62L12.92 27.98 2 27.98 2 8.63C2 7.17 3.19 5.99 4.64 5.99L10.27 5.99M10.27 3.99 4.64 3.99C2.09 3.98 0 6.07 0 8.63L0 29.98 14.92 29.98 14.92 8.63C14.92 6.08 12.83 3.99 10.28 3.99L10.28 3.99Z" class="MsftOfcResponsive_Fill_7823dc" fill="#7823DC"/><rect x="3" y="0" width="9.42" height="2" class="MsftOfcResponsive_Fill_7823dc" fill="#7823DC"/><rect x="2" y="0" width="2" height="5.71" class="MsftOfcResponsive_Fill_7823dc" fill="#7823DC"/><rect x="11" y="0" width="2" height="5.71" class="MsftOfcResponsive_Fill_7823dc" fill="#7823DC"/><rect x="19.83" y="0" width="9.41" height="2" class="MsftOfcResponsive_Fill_7823dc" fill="#7823DC"/><rect x="18.83" y="0" width="2" height="5.71" class="MsftOfcResponsive_Fill_7823dc" fill="#7823DC"/><rect x="27.83" y="0" width="2" height="5.71" class="MsftOfcResponsive_Fill_7823dc" fill="#7823DC"/><path d="M1.97 23.79 0.03 23.3C0.33 22.1 1.57 19.89 4.1 20.15 6.03 20.34 7.61 19.27 7.62 19.25 7.7 19.19 10.34 17.26 14.18 18.43L13.6 20.34C10.72 19.46 8.81 20.86 8.8 20.87 8.69 20.95 6.6 22.4 3.91 22.14 2.49 22.01 2.02 23.61 1.98 23.79Z" class="MsftOfcResponsive_Fill_7823dc" fill="#7823DC"/><path d="M27.57 22.29C27.01 22.29 26.5 22.18 25.94 22.03 25.23 21.84 24.49 21.65 23.12 21.83 19.66 22.28 18.88 22.01 17.68 21.19 17.54 21.1 17.39 20.99 17.22 20.89L18.26 19.18C18.47 19.31 18.65 19.43 18.81 19.54 19.51 20.02 19.84 20.24 22.87 19.85 24.63 19.62 25.64 19.89 26.46 20.1 27.5 20.37 28.13 20.54 30.5 19.17L31.5 20.9C29.67 21.96 28.55 22.29 27.57 22.29Z" class="MsftOfcResponsive_Fill_7823dc" fill="#7823DC"/><path d="M3.77 14.5 5.78 14.5C5.87 15.33 6.22 16.02 7.6 16.02 8.52 16.02 9.13 15.51 9.13 14.79 9.13 14.07 8.74 13.79 7.38 13.58 5 13.27 4.03 12.55 4.03 10.76 4.03 9.17 5.36 7.99 7.41 7.99 9.46 7.99 10.73 8.93 10.89 10.77L8.95 10.77C8.82 9.92 8.33 9.53 7.4 9.53 6.47 9.53 6.01 9.96 6.01 10.58 6.01 11.24 6.31 11.56 7.74 11.76 9.99 12.05 11.15 12.66 11.15 14.58 11.15 16.23 9.8 17.54 7.6 17.54 5.05 17.54 3.88 16.34 3.77 14.48Z" class="MsftOfcResponsive_Fill_7823dc" fill="#7823DC"/><path d="M21.16 7.99 24.37 7.99C26.63 7.99 27.92 8.99 27.92 10.95L27.92 11C27.92 12.96 26.55 13.9 24.44 13.9L23.26 13.9 23.26 17.28 21.17 17.28 21.17 7.99ZM24.32 12.44C25.35 12.44 25.89 11.95 25.89 11.02L25.89 10.97C25.89 9.98 25.32 9.59 24.32 9.59L23.25 9.59 23.25 12.44 24.32 12.44Z" class="MsftOfcResponsive_Fill_7823dc" fill="#7823DC"/></svg>