<svg viewBox="0 0 32 32" xmlns="http://www.w3.org/2000/svg" xmlns:xlink="http://www.w3.org/1999/xlink" id="Layer_1" xml:space="preserve" overflow="hidden"><path d="M29.8 12 29.8 11.9C29.7 11.3 29.5 10.8 29.3 10.2L29.3 10.1C29.2 9.8 29.1 9.5 29 9.3 26.6 3.8 21.3 0 15.1 0 6.8 0 0 6.9 0 15.5 0 20.9 2.7 25.7 6.9 28.5L8.1 26.9C4.4 24.5 2 20.2 2 15.5 2 8 7.9 2 15.1 2 20.7 2 25.6 5.7 27.4 10.8 27.4 10.9 27.5 11 27.5 11.2 27.6 11.6 27.7 12 27.8 12.4L27.8 12.5C28.4 14.7 29 17.4 29.4 19.3 29.4 19.5 29.5 19.7 29.5 19.8 29.5 19.6 29.6 19.4 29.6 19.3 29.9 18.1 30.1 16.8 30.1 15.5 30.2 14.3 30.1 13.1 29.8 12Z" fill="#7823DC"/><path d="M32 22.3 26.4 22.3 26.4 32 17 32 17 30 24.3 30 24.3 20.3 29.5 20.3C29.5 20.1 29.4 19.9 29.4 19.7 29 17.8 28.3 14.6 27.7 12.2L27.7 12.1C27.6 11.7 27.5 11.3 27.4 10.9 27.4 10.8 27.3 10.6 27.3 10.5 27.2 10.2 27.1 9.8 27 9.6L28.8 8.9 28.8 9.9C28.9 10.2 29 9.5 29.1 9.8L29.1 9.9C29.3 10.4 29.4 11 29.6 11.6L29.6 11.7C30.6 15.5 31.6 20.9 31.7 21.2L32 22.3Z" fill="#7823DC"/><path d="M24.7 13.3 24.7 13.3C24.2 8.2 20 4.3 14.9 4.3 9.8 4.3 5.6 8.2 5.1 13.2 5.1 13.3 5.1 13.4 5.1 13.4 5.1 13.6 5.1 13.9 5.1 14.1 5.1 14.4 5.1 14.6 5.1 14.9 5.1 15 5.1 15 5.1 15.1 5.6 20.1 9.8 24 14.9 24 20 24 24.3 20 24.7 15L24.7 15C24.7 14.7 24.7 14.4 24.7 14.1 24.7 13.8 24.7 13.5 24.7 13.3L24.7 13.3ZM15 22.1C11.4 22.1 8.4 19.7 7.5 16.4 7.3 15.8 7.2 15.2 7.2 14.5 7.2 14.4 7.2 14.3 7.2 14.2 7.2 14.1 7.2 14 7.2 13.9 7.2 13.2 7.3 12.6 7.5 12 8.5 8.7 11.5 6.4 15 6.4 18.5 6.4 21.4 8.7 22.5 11.8 22.7 12.5 22.9 13.3 22.9 14.1L22.9 14.4C22.9 15.2 22.7 16 22.5 16.7 21.4 19.8 18.4 22.1 15 22.1L15 22.1Z" fill="#7823DC" fill-rule="evenodd" clip-rule="evenodd"/><path d="M15 22.2 13.3 32 11.3 32 13 21.8 15 22.2Z" fill="#7823DC" fill-rule="evenodd" clip-rule="evenodd"/><path d="M14.8 10.5C15.7 10.5 16.3 9.8 16.3 9 16.3 8.2 15.6 7.5 14.8 7.5 14 7.5 13.4 8.2 13.4 9 13.4 9.8 14 10.5 14.8 10.5L14.8 10.5 14.8 10.5 14.8 10.5 14.8 10.5 14.8 10.5Z" fill="#7823DC" fill-rule="evenodd" clip-rule="evenodd"/><path d="M14.9 10.8C14 10.8 13.2 10 13.2 9.1 13.2 8.1 14 7.4 14.9 7.4 15.9 7.4 16.7 8.2 16.7 9.1 16.7 10 15.9 10.8 14.9 10.8L14.9 10.8ZM14.9 7.8C14.2 7.8 13.7 8.4 13.7 9 13.7 9.7 14.3 10.2 14.9 10.2 15.6 10.2 16.2 9.7 16.2 9 16.2 8.3 15.6 7.8 14.9 7.8L14.9 7.8Z" fill="#7823DC" fill-rule="evenodd" clip-rule="evenodd"/><path d="M14.5 11.2 9.8 11.2 9.8 12.7 12.9 12.7 12.1 20.2 12.2 20.2 13.6 20.2 14.5 11.2 14.5 11.2 14.5 11.2 14.5 11.2Z" fill="#7823DC" fill-rule="evenodd" clip-rule="evenodd"/><path d="M13.9 20.4 11.8 20.4 12.6 13 9.5 13 9.5 11 14.9 11 13.9 20.4 13.9 20.4 13.9 20.4ZM12.4 19.9 13.5 19.9 14.4 11.5 10 11.5 10 12.5 13.2 12.5 12.4 19.9 12.4 19.9 12.4 19.9Z" fill="#7823DC" fill-rule="evenodd" clip-rule="evenodd"/><path d="M15.2 11.2 20.1 11.2 20.1 12.7 16.9 12.7 17.7 20.2 17.6 20.2 16.1 20.2 15.2 11.2 15.2 11.2 15.2 11.2 15.2 11.2Z" fill="#7823DC" fill-rule="evenodd" clip-rule="evenodd"/><path d="M18 20.4 16 20.4 15 11 20.3 11 20.3 13 17.2 13 18 20.4 18 20.4 18 20.4ZM16.4 19.9 17.5 19.9 16.7 12.5 19.9 12.5 19.9 11.5 15.6 11.5 16.4 19.9 16.4 19.9 16.4 19.9Z" fill="#7823DC" fill-rule="evenodd" clip-rule="evenodd"/></svg>