<svg viewBox="0 0 32 32" xmlns="http://www.w3.org/2000/svg" xmlns:xlink="http://www.w3.org/1999/xlink" id="Layer_1" xml:space="preserve" overflow="hidden"><path d="M29.3 24 27.4 24 25.4 24 16 29.8 6.7 24.1 6.6 24 4.6 24 2.7 24 2.5 24 2.5 32 4.6 32 4.6 25.1 15.9 31.9 16 32 27.4 25.1 27.4 32 29.5 32 29.5 24Z" fill="#7823DC" fill-rule="evenodd" clip-rule="evenodd"/><path d="M16 26.6C11.4 26.6 7.7 22.9 7.7 18.3 7.7 13.7 11.4 10 16 10 20.6 10 24.3 13.7 24.3 18.3 24.3 22.9 20.6 26.6 16 26.6L16 26.6ZM16 12.1C12.6 12.1 9.8 14.9 9.8 18.3 9.8 21.7 12.6 24.5 16 24.5 19.4 24.5 22.2 21.7 22.2 18.3 22.2 14.9 19.4 12.1 16 12.1L16 12.1Z" fill="#7823DC" fill-rule="evenodd" clip-rule="evenodd"/><path d="M24.7 4.9C23.9 3.1 21.8 2.1 19.9 2.5 19.9 2.5 19.9 2.5 19.8 2.5 19.1 0.9 17.8 4.44089e-16 16.1 4.44089e-16 16.1 4.44089e-16 16.1 4.44089e-16 16 4.44089e-16 14.2 4.44089e-16 12.9 0.8 12.2 2.5 11.7 2.4 11.3 2.4 10.8 2.4 8.8 2.6 7.3 4 7 5.9 6.7 7.8 7.6 9.6 9.4 10.5L9.4 13.6C10 12.8 10.8 12.1 11.6 11.5L11.6 10.8C12.1 10.7 12.3 10.3 12.4 9.9 12.4 9.6 12.3 9.4 12.1 9.2 11.9 9.1 11.6 8.9 11.2 8.9 10 8.8 9.1 8 9 7 8.9 5.9 9.7 4.7 10.9 4.6 11.3 4.5 11.8 4.6 12.3 4.8 12.8 5 13.1 4.9 13.3 4.8 13.5 4.7 13.8 4.5 13.9 4 14.1 3.1 14.5 2.5 15.5 2.2 16 2 16.6 2.1 17.1 2.4 17.6 2.7 18 3.3 18.1 4 18.2 4.5 18.5 4.7 18.7 4.9 18.9 5 19.3 5.1 19.7 4.8 20.7 4.3 21.9 4.6 22.5 5.5 23 6 23.1 6.7 22.8 7.4 22.6 8 22.1 8.5 21.4 8.7 21.3 8.7 21.1 8.8 21 8.8 20.9 8.8 20.8 8.8 20.7 8.8L20.5 8.8C20 8.9 19.7 9.4 19.7 10 19.7 10.4 20 10.8 20.4 10.9L20.4 11.6C21.2 12.1 22 12.8 22.6 13.7L22.6 10.6C23.5 10.2 24.3 9.4 24.7 8.4 25.2 7.2 25.2 5.9 24.7 4.9L24.7 4.9Z" fill="#7823DC" fill-rule="evenodd" clip-rule="evenodd"/></svg>