<svg viewBox="0 0 32 32.03" xmlns="http://www.w3.org/2000/svg" xmlns:xlink="http://www.w3.org/1999/xlink" id="Layer_1" overflow="hidden"><style>
.MsftOfcThm_Text2_Fill_v2 {
 fill:#7823DC; 
}
</style>
<defs></defs><path d="M22.78 32 13.56 26.28 13.56 15.22 22.78 9.5 32 15.22 32 26.28 22.78 32ZM15.55 25.17 22.77 29.65 29.99 25.17 29.99 16.34 22.77 11.86 15.55 16.34 15.55 25.17Z" class="MsftOfcThm_Text2_Fill_v2" stroke-width="0" fill="#7823DC"/><path d="M22.78 26.45C19.64 26.45 17.08 23.89 17.08 20.75 17.08 17.61 19.64 15.05 22.78 15.05 25.92 15.05 28.48 17.61 28.48 20.75 28.48 23.89 25.92 26.45 22.78 26.45ZM22.78 17.05C20.74 17.05 19.08 18.71 19.08 20.75 19.08 22.79 20.74 24.45 22.78 24.45 24.82 24.45 26.48 22.79 26.48 20.75 26.48 18.71 24.82 17.05 22.78 17.05Z" class="MsftOfcThm_Text2_Fill_v2" stroke-width="0" fill="#7823DC"/><rect x="6.76" y="12.99" width="8.82" height="2" class="MsftOfcThm_Text2_Fill_v2" stroke-width="0" fill="#7823DC" transform="matrix(0.768172 -0.640244 0.640244 0.768172 -6.37 10.39)"/><rect x="6.75" y="17.51" width="8.82" height="2" class="MsftOfcThm_Text2_Fill_v2" stroke-width="0" fill="#7823DC" transform="matrix(0.768172 -0.640244 0.640244 0.768172 -9.26 11.44)"/><rect x="6.75" y="22.02" width="8.82" height="2" class="MsftOfcThm_Text2_Fill_v2" stroke-width="0" fill="#7823DC" transform="matrix(0.768172 -0.640244 0.640244 0.768172 -12.15 12.49)"/><path d="M11.17 32.03 6.78 26.18 6.78 11.64 3.87 9.23C1.41 7.13 0 4.14 0 1L0 0 9.91 0 9.91 3.39 12.43 3.39 12.43 0 22.34 0 22.34 1C22.34 4.14 20.94 7.13 18.49 9.22L15.57 11.64 15.57 26.18 11.18 32.03ZM8.78 25.51 11.17 28.69 13.56 25.51 13.56 10.69 17.2 7.68C18.93 6.21 20.02 4.18 20.28 2L14.43 2 14.43 5.39 7.91 5.39 7.91 2 2.06 2C2.32 4.18 3.41 6.21 5.15 7.69L8.78 10.69 8.78 25.51Z" class="MsftOfcThm_Text2_Fill_v2" stroke-width="0" fill="#7823DC"/></svg>