<svg viewBox="0 0 32 32" xmlns="http://www.w3.org/2000/svg" xmlns:xlink="http://www.w3.org/1999/xlink" id="Layer_1" overflow="hidden"><style>
.MsftOfcResponsive_Fill_7823dc {
 fill:#7823DC; 
}
</style>
<defs></defs><path d="M22.5 0 22.5 4 14.98 4 14.98 8 7.49 8 7.49 12 0 12 0 32 12 32 12 30 9.49 30 9.49 10 14.98 10 14.98 14 15 14 15 28 17 28 17 8 16.98 8 16.98 6 22.49 6 22.49 14 24.49 14 24.49 10 24.5 10 24.5 2 30 2 30 10 32 10 32 0 22.5 0ZM7.49 30 2 30 2 14 7.49 14 7.49 30Z" class="MsftOfcResponsive_Fill_7823dc" fill="#7823DC"/><path d="M24.53 22.1 24.53 21.29C24.77 21.36 24.86 21.52 24.88 21.74L26.15 21.74C26.08 20.82 25.5 20.38 24.53 20.3L24.53 19.72 24 19.72 24 20.3C22.97 20.37 22.34 20.94 22.34 21.76 22.34 22.67 22.81 23.08 24 23.24L24 24.09C23.7 24.02 23.57 23.81 23.55 23.54L22.25 23.54C22.29 24.42 22.87 25 24 25.08L24 25.9 24.53 25.9 24.53 25.08C25.71 25 26.22 24.33 26.22 23.52 26.22 22.56 25.54 22.23 24.53 22.1ZM24 22.02C23.7 21.96 23.6 21.85 23.6 21.65 23.6 21.45 23.74 21.32 24 21.27L24 22.02ZM24.53 24.1 24.53 23.33C24.82 23.41 24.92 23.5 24.92 23.69 24.92 23.89 24.8 24.04 24.53 24.1Z" class="MsftOfcResponsive_Fill_7823dc" fill="#7823DC"/><path d="M29.11 26.27C29.62 25.55 29.99 24.73 30.15 23.84 30.42 22.26 30.07 20.67 29.15 19.36 28.22 18.04 26.85 17.17 25.27 16.89 23.7 16.62 22.1 16.97 20.79 17.89 19.48 18.82 18.6 20.19 18.33 21.77 18.05 23.35 18.4 24.94 19.33 26.25 20.25 27.56 21.62 28.44 23.2 28.71 23.55 28.77 23.9 28.81 24.25 28.81 25.47 28.81 26.66 28.43 27.68 27.71 27.69 27.71 27.7 27.7 27.71 27.69L32 31.98 32 29.15 29.11 26.27ZM28.18 23.49C27.99 24.55 27.41 25.46 26.53 26.08 25.66 26.69 24.6 26.93 23.55 26.74 22.49 26.56 21.58 25.98 20.96 25.1 20.35 24.23 20.11 23.17 20.3 22.11 20.48 21.06 21.06 20.15 21.94 19.53 22.62 19.05 23.41 18.8 24.23 18.8 24.46 18.8 24.69 18.82 24.93 18.86 25.98 19.05 26.89 19.63 27.51 20.51 28.12 21.38 28.36 22.44 28.18 23.49Z" class="MsftOfcResponsive_Fill_7823dc" fill="#7823DC"/><rect x="3.75" y="16" width="2" height="12" class="MsftOfcResponsive_Fill_7823dc" fill="#7823DC"/><rect x="11.25" y="12" width="2" height="14.01" class="MsftOfcResponsive_Fill_7823dc" fill="#7823DC"/><rect x="18.73" y="8" width="2" height="4" class="MsftOfcResponsive_Fill_7823dc" fill="#7823DC"/><rect x="26" y="4" width="2" height="4" class="MsftOfcResponsive_Fill_7823dc" fill="#7823DC"/></svg>