<svg viewBox="0 0 32 32" xmlns="http://www.w3.org/2000/svg" xmlns:xlink="http://www.w3.org/1999/xlink" id="Layer_1" overflow="hidden"><path d="M29.9 21.5 29.9 3.2C29.9 1.4 28.5 0 26.7 0L25.1 0C23.5 0 22.2 1.1 22 2.7 22 2.9 22 3 22 3.2L22 21.6C21.2 22.3 20.6 23.2 20.3 24.3 20.2 24.5 20.2 24.7 20.1 24.9 20 25.2 20 25.4 20 25.7 20 25.8 20 25.9 20 26 20 26.2 20 26.4 20 26.6 20.3 29.6 22.9 32 26 32 29.3 32 32 29.3 32 26 31.9 24.2 31.1 22.6 29.9 21.5ZM25.9 30C23.7 30 21.9 28.2 21.9 26 21.9 25.8 21.9 25.6 21.9 25.5 22 24.6 22.5 23.7 23.2 23.1L23.9 22.5 23.9 3.2C23.9 2.5 24.4 2 25.1 2L26.7 2C27.3 2 27.9 2.5 27.9 3.2L27.9 22.5 28.6 23.1C29.4 23.9 29.9 24.9 29.9 26.1 29.9 28.2 28.1 30 25.9 30Z" fill="#7823DC"/><path d="M26 24.1C24.9 24.1 24.1 25 24.1 26 24.1 27 25 27.9 26 27.9 27 27.9 27.9 27 27.9 26 27.9 25 27.1 24.1 26 24.1L26 24.1Z" fill="#7823DC"/><rect x="25" y="25.9" width="2" height="5.1" fill="#7823DC"/><path d="M5.6 8.5 4.5 7.9 3.5 8.5 0 10.4 0 12.7 4.5 10.2 9.8 13.1 9.8 18.8 4.5 21.6 0 19.2 0 21.5 3.5 23.4 4.6 24 5.7 23.4 12 20 12 12 5.6 8.5Z" fill="#7823DC"/><path d="M3.5 0 5.6 0 5.6 9.1 3.5 9.1 3.5 0Z" fill="#7823DC"/><path d="M3.5 22.8 5.6 22.8 5.6 32 3.5 32 3.5 22.8Z" fill="#7823DC"/><path d="M10.3 2 5.6 6.4 4.5 7.4 3.5 6.4 0 3.1 0 2 1.8 2 3.5 3.6 4.5 4.5 5.6 3.5 7.3 2Z" fill="#7823DC"/><path d="M10.3 29.9 7.3 29.9 5.6 28.3 4.5 27.3 3.5 28.3 1.8 29.9 0 29.9 0 28.7 3.5 25.5 4.5 24.5 5.6 25.5Z" fill="#7823DC"/><path d="M10.3 11.6 18.8 7.1 19.8 8.8 11.4 13.4 10.3 11.6Z" fill="#7823DC"/><path d="M18.8 11.2 15.1 10.2 16.1 6.7 14.6 4.3 12.4 11.6 20.3 13.6 18.8 11.2Z" fill="#7823DC"/><path d="M10.3 20.2 11.4 18.5 19.8 23 18.7 24.7 10.3 20.2Z" fill="#7823DC"/><path d="M18.8 20.7 15.1 21.6 16.1 25.1 14.6 27.6 12.4 20.2 20.3 18.2 18.8 20.7Z" fill="#7823DC"/></svg>