<svg viewBox="0 0 32 32" xmlns="http://www.w3.org/2000/svg" xmlns:xlink="http://www.w3.org/1999/xlink" overflow="hidden"><defs></defs><g id="Layer_3"><path d="M15.9927 9.01668C13.5074 9.01668 11.4927 7.00196 11.4927 4.51668 11.4927 2.0314 13.5074 0.0166798 15.9927 0.0166798 18.478 0.0166798 20.4927 2.0314 20.4927 4.51668 20.49 7.00084 18.4768 9.01397 15.9927 9.01668ZM15.9927 2.01668C14.612 2.01668 13.4927 3.13597 13.4927 4.51668 13.4927 5.89739 14.612 7.01668 15.9927 7.01668 17.3734 7.01668 18.4927 5.89739 18.4927 4.51668 18.4912 3.13657 17.3728 2.01813 15.9927 2.01668Z" fill="#7823DC"/><path d="M26.0024 7.51668C24.3456 7.51668 23.0024 6.17353 23.0024 4.51668 23.0024 2.85983 24.3456 1.51668 26.0024 1.51668 27.6593 1.51668 29.0024 2.85983 29.0024 4.51668 29.0006 6.17278 27.6585 7.51487 26.0024 7.51668ZM26.0024 3.51668C25.4502 3.51668 25.0024 3.9644 25.0024 4.51668 25.0024 5.06896 25.4502 5.51668 26.0024 5.51668 26.5547 5.51668 27.0024 5.06896 27.0024 4.51668 27.0019 3.96462 26.5545 3.51723 26.0024 3.51668Z" fill="#7823DC"/><path d="M5.99316 7.51668C4.33631 7.51668 2.99316 6.17353 2.99316 4.51668 2.99316 2.85983 4.33631 1.51668 5.99316 1.51668 7.65001 1.51668 8.99316 2.85983 8.99316 4.51668 8.99135 6.17278 7.64927 7.51487 5.99316 7.51668ZM5.99316 3.51668C5.44088 3.51668 4.99316 3.9644 4.99316 4.51668 4.99316 5.06896 5.44088 5.51668 5.99316 5.51668 6.54544 5.51668 6.99316 5.06896 6.99316 4.51668 6.99261 3.96462 6.54522 3.51723 5.99316 3.51668Z" fill="#7823DC"/><path d="M24.002 17.54 22.002 17.54 22.002 14.517 10.002 14.517 10.002 21.994 8.002 21.994 8.002 12.517 24.002 12.517 24.002 17.54Z" fill="#7823DC"/><path d="M28.027 8.517 20.002 8.517 20.002 11.517 22.002 11.517 22.002 10.517 30.002 10.517 30.002 16.517 32.002 16.517 32.002 12.477 28.027 8.517Z" fill="#7823DC"/><path d="M3.991 8.517 0.002 12.526 0.002 16.517 2.002 16.517 2.002 10.517 10.002 10.517 10.002 11.517 12.002 11.517 12.002 8.517 3.991 8.517Z" fill="#7823DC"/><path d="M28.463 17.575 25.628 17.575 13.972 29.177 8.826 24.006 6.015 24.006 6.01 24.011 13.964 32.005 28.463 17.575 28.463 17.575Z" fill="#7823DC"/></g></svg>