<svg viewBox="0 0 29.22 29.22" xmlns="http://www.w3.org/2000/svg" xmlns:xlink="http://www.w3.org/1999/xlink" id="Layer_5" overflow="hidden"><defs></defs><path d="M27.75 4.09C26.52 2.21 24.64 0.98 22.18 0.65 19.89 0.32 17.84 0.81 16.28 2.13 15.62 2.7 15.05 3.44 14.64 4.34 14.23 3.44 13.66 2.7 13 2.13 11.53 0.82 9.48 0.33 7.1 0.65 4.64 0.98 2.68 2.13 1.45 4.01-0.18 6.54-0.42 10.23 0.64 13.92 3.51 23.59 13.83 28.43 14.24 28.59 14.4 28.67 14.49 28.67 14.65 28.67L14.98 28.67C15.39 28.42 25.71 23.67 28.58 14 29.64 10.31 29.4 6.62 27.76 4.08ZM26.85 13.43C24.47 21.3 16.53 25.72 14.65 26.71 12.85 25.73 4.82 21.3 2.53 13.43 1.55 10.23 1.79 7.12 3.1 5.07 4 3.59 5.48 2.78 7.36 2.45 7.69 2.37 8.1 2.37 8.42 2.37 9.81 2.37 10.88 2.78 11.86 3.52 12.65 4.16 13.47 6.27 13.47 6.27L16 6.27C16 6.27 16.79 4.22 17.59 3.52 18.65 2.54 20.21 2.21 22.01 2.45 23.89 2.78 25.37 3.6 26.27 5.07 27.58 7.12 27.83 10.23 26.84 13.43Z" stroke-width="0" fill="#7823DC" fill-rule="evenodd"/><path d="M19.56 12.99C19.56 10.25 17.34 8.03 14.6 8.03L14.6 8.03C11.86 8.03 9.64 10.25 9.64 12.99 9.64 15.39 11.34 17.39 13.61 17.85L13.61 19.93 11.63 19.93 11.63 21.91 13.61 21.91 13.61 23.89 15.59 23.89 15.59 21.91 17.57 21.91 17.57 19.93 15.59 19.93 15.59 17.85C17.85 17.39 19.56 15.39 19.56 12.99L19.56 12.99ZM14.6 15.96 14.6 15.96C12.96 15.96 11.63 14.63 11.63 12.99 11.63 11.35 12.96 10.02 14.6 10.02L14.6 10.02C16.24 10.02 17.57 11.35 17.57 12.99 17.57 14.63 16.24 15.96 14.6 15.96Z" stroke-width="0" fill="#7823DC"/></svg>