<svg viewBox="0 0 32 32" xmlns="http://www.w3.org/2000/svg" xmlns:xlink="http://www.w3.org/1999/xlink" id="Layer_1" overflow="hidden"><style>
.MsftOfcResponsive_Fill_7823dc {
 fill:#7823DC; 
}
</style>
<path d="M2.3 25.9C2.1 25.9 2 25.9 2 25.9L0.1 25.9 0.1 23.9 2 23.9C2.1 23.9 7 24.1 8.7 20.6 11.1 15.8 19.3 17.9 19.6 17.9 21.2 18.5 25.6 19.9 27.1 19.9L31 19.9 31 21.9 27.1 21.9C25.1 21.9 19.7 20.1 19 19.9 17.1 19.4 11.8 18.8 10.4 21.5 8.5 25.6 3.6 25.9 2.3 25.9Z" class="st0 MsftOfcResponsive_Fill_7823dc" fill="#7823DC"/><g><defs><path d="M0.1 31.9 32 31.9 32 0 0.1 0 0.1 31.9Z" id="SVGID_1_" class="MsftOfcResponsive_Fill_7823dc" fill="#7823DC"/></defs><clipPath id="SVGID_00000168806799340792251460000001161413751902913928_"><use width="100%" height="100%" xlink:href="#SVGID_1_" overflow="visible"></use></clipPath><path d="M31 31.9 27.2 31.9C25 31.9 22.9 30.8 21.4 29 20.5 27.9 18.7 26.1 16.7 26 15.6 25.9 14.4 26.5 13.3 27.6 10.3 30.7 4.2 30.9 3.9 30.9L-1.33227e-15 30.9-1.33227e-15 28.9 4 28.9C4 28.9 9.6 28.7 12 26.2 13.5 24.7 15.1 23.9 16.9 24 19.5 24.1 21.7 26.1 23 27.7 24.1 29.1 25.7 29.9 27.3 29.9L31 29.9 31 31.9Z" class="MsftOfcResponsive_Fill_7823dc" fill="#7823DC" clip-path="url(#SVGID_00000168806799340792251460000001161413751902913928_)"/><g clip-path="url(#SVGID_00000168806799340792251460000001161413751902913928_)"><defs><path d="M0.1 31.9 32 31.9 32 0 0.1 0 0.1 31.9Z" id="SVGID_00000138544195711770619380000010820466701567711165_" class="MsftOfcResponsive_Fill_7823dc" fill="#7823DC"/></defs><clipPath id="SVGID_00000090281524825020429390000012789753017536871340_"><use width="100%" height="100%" xlink:href="#SVGID_00000138544195711770619380000010820466701567711165_" overflow="visible"></use></clipPath><rect x="14.6" y="0" width="2" height="5.9" class="MsftOfcResponsive_Fill_7823dc" fill="#7823DC" clip-path="url(#SVGID_00000090281524825020429390000012789753017536871340_)"/><g clip-path="url(#SVGID_00000090281524825020429390000012789753017536871340_)"><defs><path d="M0.1 31.9 32 31.9 32 0 0.1 0 0.1 31.9Z" id="SVGID_00000078742614670203929150000011455893045929474967_" class="MsftOfcResponsive_Fill_7823dc" fill="#7823DC"/></defs><clipPath id="SVGID_00000145055419511666079930000012792754152675359888_"><use width="100%" height="100%" xlink:href="#SVGID_00000078742614670203929150000011455893045929474967_" overflow="visible"></use></clipPath><rect x="5.4" y="3" width="2" height="6.8" class="MsftOfcResponsive_Fill_7823dc" fill="#7823DC" clip-path="url(#SVGID_00000145055419511666079930000012792754152675359888_)" transform="matrix(0.7225 -0.6913 0.6913 0.7225 -2.6974 6.1764)"/><g clip-path="url(#SVGID_00000145055419511666079930000012792754152675359888_)"><defs><path d="M0.1 31.9 32 31.9 32 0 0.1 0 0.1 31.9Z" id="SVGID_00000159431967725348746480000001844924137775677114_" class="MsftOfcResponsive_Fill_7823dc" fill="#7823DC"/></defs><clipPath id="SVGID_00000024715223644115514480000001297344658366319779_"><use width="100%" height="100%" xlink:href="#SVGID_00000159431967725348746480000001844924137775677114_" overflow="visible"></use></clipPath><rect x="0.1" y="13" width="5.8" height="2" class="MsftOfcResponsive_Fill_7823dc" fill="#7823DC" clip-path="url(#SVGID_00000024715223644115514480000001297344658366319779_)"/><g clip-path="url(#SVGID_00000024715223644115514480000001297344658366319779_)"><defs><path d="M0.1 31.9 32 31.9 32 0 0.1 0 0.1 31.9Z" id="SVGID_00000021808435319721044530000013904341377421885608_" class="MsftOfcResponsive_Fill_7823dc" fill="#7823DC"/></defs><clipPath id="SVGID_00000071542645915511591790000010751389410443668891_"><use width="100%" height="100%" xlink:href="#SVGID_00000021808435319721044530000013904341377421885608_" overflow="visible"></use></clipPath><rect x="25.2" y="13" width="5.8" height="2" class="MsftOfcResponsive_Fill_7823dc" fill="#7823DC" clip-path="url(#SVGID_00000071542645915511591790000010751389410443668891_)"/><g clip-path="url(#SVGID_00000071542645915511591790000010751389410443668891_)"><defs><path d="M0.1 31.9 32 31.9 32 0 0.1 0 0.1 31.9Z" id="SVGID_00000150815706455324988050000001891128424461897889_" class="MsftOfcResponsive_Fill_7823dc" fill="#7823DC"/></defs><clipPath id="SVGID_00000109028823398478800480000001101513332067563179_"><use width="100%" height="100%" xlink:href="#SVGID_00000150815706455324988050000001891128424461897889_" overflow="visible"></use></clipPath><rect x="21.4" y="5.5" width="6.8" height="2" class="MsftOfcResponsive_Fill_7823dc" fill="#7823DC" clip-path="url(#SVGID_00000109028823398478800480000001101513332067563179_)" transform="matrix(0.6913 -0.7226 0.7226 0.6913 2.9933 19.9035)"/><g clip-path="url(#SVGID_00000109028823398478800480000001101513332067563179_)"><defs><path d="M0.1 31.9 32 31.9 32 0 0.1 0 0.1 31.9Z" id="SVGID_00000098916483460735300990000007929037425728088240_" class="MsftOfcResponsive_Fill_7823dc" fill="#7823DC"/></defs><clipPath id="SVGID_00000091005042418854845150000016070285666832772263_"><use width="100%" height="100%" xlink:href="#SVGID_00000098916483460735300990000007929037425728088240_" overflow="visible"></use></clipPath><path d="M10 21.5C8.6 20 7.8 18.1 7.8 16 7.8 11.6 11.3 8 15.5 8 19.7 8 23.2 11.6 23.2 16 23.2 17.5 22.8 18.9 22.1 20.1L20.4 19.1C20.9 18.2 21.2 17.1 21.2 16 21.2 12.7 18.6 10 15.4 10 12.2 10 9.6 12.7 9.6 16 9.6 17.6 10.2 19.1 11.2 20.2L10 21.5Z" class="MsftOfcResponsive_Fill_7823dc" fill="#7823DC" clip-path="url(#SVGID_00000091005042418854845150000016070285666832772263_)"/><g clip-path="url(#SVGID_00000091005042418854845150000016070285666832772263_)"><defs><path d="M0.1 31.9 32 31.9 32 0 0.1 0 0.1 31.9Z" id="SVGID_00000054987142114013625220000018215260889330335129_" class="MsftOfcResponsive_Fill_7823dc" fill="#7823DC"/></defs><clipPath id="SVGID_00000156553083655119681790000008509798387691807421_"><use width="100%" height="100%" xlink:href="#SVGID_00000054987142114013625220000018215260889330335129_" overflow="visible"></use></clipPath><path d="M13.6 16 11.6 16C11.6 13.8 13.3 12 15.5 12L15.5 14C14.5 14 13.6 14.9 13.6 16Z" class="MsftOfcResponsive_Fill_7823dc" fill="#7823DC" clip-path="url(#SVGID_00000156553083655119681790000008509798387691807421_)"/></g></g></g></g></g></g></g></g></svg>