<svg viewBox="0 0 32 32" xmlns="http://www.w3.org/2000/svg" xmlns:xlink="http://www.w3.org/1999/xlink" id="Layer_1" overflow="hidden"><style>
.MsftOfcResponsive_Fill_7823dc {
 fill:#7823DC; 
}
</style>
<g><path d="M73.7 24.3 73.4 24.3 73.4 24.6 73.7 24.6 73.7 24.3Z" class="MsftOfcResponsive_Fill_7823dc" fill="#7823DC"/></g><path d="M0 8 0 24 8.1 24 8.1 22 2 22 2 10 30 10 30 22 23.9 22 23.9 24 32 24 32 8 0 8Z" class="MsftOfcResponsive_Fill_7823dc" fill="#7823DC"/><path d="M21.3 2 24 4.3 24 8 8 8 8 2 21.3 2M22 0 6 0 6 10 26 10 26 3.3 22 0 22 0Z" class="MsftOfcResponsive_Fill_7823dc" fill="#7823DC"/><path d="M6 17 6 32 26 32 26 17 6 17ZM23.9 30 8.1 30 8.1 19 23.9 19 23.9 30Z" class="MsftOfcResponsive_Fill_7823dc" fill="#7823DC"/><rect x="4" y="17" width="24" height="2" class="MsftOfcResponsive_Fill_7823dc" fill="#7823DC"/><path d="M28 11 26 11 26 13 28 13 28 11Z" class="MsftOfcResponsive_Fill_7823dc" fill="#7823DC"/><path d="M24 11 22 11 22 13 24 13 24 11Z" class="MsftOfcResponsive_Fill_7823dc" fill="#7823DC"/><path d="M26 3 26 5.5 20 1 18.7 0 22 0Z" class="MsftOfcResponsive_Fill_7823dc" fill="#7823DC"/><rect x="10" y="21" width="12" height="2" class="MsftOfcResponsive_Fill_7823dc" fill="#7823DC"/><rect x="10" y="25" width="12" height="2" class="MsftOfcResponsive_Fill_7823dc" fill="#7823DC"/></svg>