<svg viewBox="0 0 52.85 52.79" xmlns="http://www.w3.org/2000/svg" xmlns:xlink="http://www.w3.org/1999/xlink" id="Grid" overflow="hidden"><defs></defs><path d="M42.17 52.79 9.83 52.79 9.35 51.98C2.4 40.25 0.22 11.99 0.13 10.79L0 9.02 10.72 9.04 10.72 12.34C10.72 12.34 3.57 12.32 3.57 12.32 4.15 18.56 6.45 39.64 11.73 49.49L42.18 49.49 42.18 52.79Z" stroke-width="0" fill="#7823DC"/><path d="M43.02 52.79 10.68 52.79 10.68 49.49 41.13 49.49C46.41 39.64 48.71 18.56 49.29 12.32L42.14 12.34 42.14 9.04C42.14 9.04 52.85 9.02 52.85 9.02L52.72 10.79C52.63 11.99 50.45 40.25 43.5 51.98L43.02 52.79Z" stroke-width="0" fill="#7823DC"/><path d="M26.42 26.96C15.96 26.96 7.44 18.93 7.44 9.06L10.73 9.06C10.73 17.11 17.77 23.66 26.42 23.66 35.07 23.66 42.11 17.11 42.11 9.06L45.4 9.06C45.4 18.93 36.89 26.96 26.42 26.96Z" stroke-width="0" fill="#7823DC"/><path d="M26.95 39.67 20.52 33.23 26.95 26.79 33.37 33.23 26.95 39.67ZM25.17 33.23 26.95 35.01 28.73 33.23 26.95 31.45 25.17 33.23Z" stroke-width="0" fill="#7823DC"/><path d="M26.42 22.05C18.74 22.05 12.49 16.55 12.49 9.8L12.49 9.37 17.76 0 26.92 0 26.92 3.3 19.68 3.3 15.8 10.21C16.06 14.96 20.73 18.76 26.43 18.76 32.13 18.76 37.07 14.74 37.07 9.8L40.36 9.8C40.36 16.56 34.11 22.05 26.43 22.05Z" stroke-width="0" fill="#7823DC"/><path d="M26.42 22.05 26.42 18.75C32.12 18.75 36.79 14.95 37.05 10.2L33.17 3.29 25.93 3.29 25.93 0 35.09 0 40.35 9.36 40.35 9.79C40.35 16.55 34.1 22.04 26.42 22.04Z" stroke-width="0" fill="#7823DC"/></svg>