<svg viewBox="0 0 32 32" xmlns="http://www.w3.org/2000/svg" xmlns:xlink="http://www.w3.org/1999/xlink" overflow="hidden"><defs></defs><g id="Layer_3"><path d="M11.4775 8.00586C10.0974 8.00441 8.97899 6.88597 8.97754 5.50586L8.97754 0.00586 13.9775 0.00586 13.9775 5.50586C13.9761 6.88597 12.8577 8.00441 11.4775 8.00586ZM10.9775 2.00586 10.9775 5.50586C10.9775 5.782 11.2014 6.00586 11.4775 6.00586 11.7537 6.00586 11.9775 5.782 11.9775 5.50586L11.9775 2.00586Z" fill="#7823DC"/><path d="M4.685 31.713 3.271 30.299 10.823 22.747 16.492 26.148 15.463 27.863 11.132 25.265 4.685 31.713Z" fill="#7823DC"/><path d="M26.7476 32.0059 9.97756 32.0059 9.97756 28.3057 21.6358 24.0664 22.3194 25.9453 11.9776 29.7061 11.9776 30.0059 25.1753 30.0059C25.5601 28.0742 26.3252 22.8301 24.1455 19.5606 22.7022 17.3955 18.3633 16.251 16.813 15.9922L16.311 15.9082 11.9775 7.24219 11.9775 2.00586 7.69824 2.00586 6.69824 5.00586 3.2583 5.00586 3.7583 7.00586 7.97754 7.00586 7.97754 26.2832 4.544 32.0059-0.02246 32.0059-0.02246 30.0059 3.41113 30.0059 5.97754 25.7285 5.97754 9.00586 2.19678 9.00586 0.69678 3.00586 5.25684 3.00586 6.25684 0.00586 13.9775 0.00586 13.9775 6.76953 17.6514 14.1172C19.2222 14.4463 23.937 15.6426 25.8096 18.4512 29.0098 23.251 27.0303 30.9365 26.9443 31.2617Z" fill="#7823DC"/><path d="M30.698 32.006 25.978 32.006 25.978 30.006 29.257 30.006 29.978 27.844 29.978 20.006 31.978 20.006 31.978 28.168 30.698 32.006Z" fill="#7823DC"/></g></svg>