<svg viewBox="0 0 32 32" xmlns="http://www.w3.org/2000/svg" xmlns:xlink="http://www.w3.org/1999/xlink" overflow="hidden"><style>
.MsftOfcResponsive_Fill_7823dc {
 fill:#7823DC; 
}
</style>
<defs></defs><g id="Layer_3"><path d="M18.8651 5.65708 19.1094 7.59056 19.4399 10.2042 21.8685 9.18352 23.6652 8.42845 22.9101 10.2251 21.8894 12.6538 24.5031 12.9842 26.4366 13.2286 24.8843 14.407 22.7861 16 24.8843 17.593 26.4366 18.7714 24.5031 19.0158 21.8894 19.3462 22.9101 21.7749 23.6652 23.5716 21.8685 22.8165 19.4399 21.7958 19.1094 24.4095 18.8651 26.3429 17.6866 24.7907 16.0936 22.6924 14.5007 24.7907 13.3222 26.3429 13.0779 24.4095 12.7474 21.7958 10.3188 22.8165 8.52206 23.5716 9.27716 21.7749 10.2979 19.3462 7.6842 19.0158 5.7507 18.7714 7.303 17.5929 9.40128 16 7.303 14.407 5.75074 13.2286 7.68424 12.9842 10.2979 12.6538 9.2772 10.2251 8.5221 8.42845 10.3188 9.18352 12.7475 10.2042 13.0779 7.59056 13.3223 5.65708 14.5007 7.20932 16.0937 9.30763 17.6867 7.20932 18.8652 5.65708M20.2348 0.54518 16.0937 6 11.9525 0.54518 11.0937 7.33974 4.77994 4.6863 7.43342 11 0.63886 11.8589 6.09366 16 0.63886 20.1411 7.43342 21 4.77994 27.3137 11.0937 24.6603 11.9525 31.4548 16.0937 26 20.2348 31.4548 21.0937 24.6603 27.4074 27.3137 24.7539 21 31.5485 20.1411 26.0937 16 31.5485 11.8589 24.7539 11 27.4074 4.6863 21.0937 7.33974 20.2348 0.54518Z" class="MsftOfcResponsive_Fill_7823dc" fill="#7823DC"/></g></svg>