<svg viewBox="0 0 32 32.01" xmlns="http://www.w3.org/2000/svg" xmlns:xlink="http://www.w3.org/1999/xlink" id="Layer_1" overflow="hidden"><style>
.MsftOfcResponsive_Fill_7823dc {
 fill:#7823DC; 
}
</style>
<defs></defs><rect x="7" y="16.59" width="18" height="2" class="MsftOfcResponsive_Fill_7823dc" fill="#7823DC"/><path d="M12 30.59 10 30.59 10 26.59C10 23.65 9 20.66 7.19 18.18L8.81 17C10.87 19.82 12 23.22 12 26.59L12 30.59Z" class="MsftOfcResponsive_Fill_7823dc" fill="#7823DC"/><path d="M22 30.59 20 30.59 20 26.59C20 23.22 21.13 19.82 23.19 17L24.81 18.18C23 20.66 22 23.64 22 26.59L22 30.59Z" class="MsftOfcResponsive_Fill_7823dc" fill="#7823DC"/><path d="M32 24 21.3 24 21.3 22 30 22 30 2 2 2 2 22 10.7 22 10.7 24 0 24 0 0 32 0 32 24Z" class="MsftOfcResponsive_Fill_7823dc" fill="#7823DC"/><path d="M23 18.59 9 18.59 9 8 23 8 23 18.59ZM11 16.59 21 16.59 21 10 11 10 11 16.59Z" class="MsftOfcResponsive_Fill_7823dc" fill="#7823DC"/><path d="M13 26.01 9.49 22.5 10.3 21.69 9.39 20.78 13 17.17 17.41 21.58 13 25.99ZM11.41 21.6 13 23.19 14.59 21.6 13 20.01 11.41 21.6Z" class="MsftOfcResponsive_Fill_7823dc" fill="#7823DC"/><path d="M19 26.01 14.59 21.6 19 17.19 22.61 20.8 21.7 21.71 22.51 22.52 19 26.03ZM17.41 21.6 19 23.19 20.58 21.6 19 20.01 17.41 21.6Z" class="MsftOfcResponsive_Fill_7823dc" fill="#7823DC"/><path d="M13 32.01 10.29 29.3 11.71 27.89 13 29.18 14.59 27.59 13 26.01 11.71 27.3 10.29 25.89 13 23.18 17.41 27.59 13 32.01Z" class="MsftOfcResponsive_Fill_7823dc" fill="#7823DC"/><path d="M19 32.01 14.59 27.59 19 23.18 21.71 25.89 20.29 27.3 19 26.01 17.41 27.59 19 29.18 20.29 27.89 21.71 29.3 19 32.01Z" class="MsftOfcResponsive_Fill_7823dc" fill="#7823DC"/></svg>