<svg viewBox="0 0 32.26 32.21" xmlns="http://www.w3.org/2000/svg" xmlns:xlink="http://www.w3.org/1999/xlink" id="Outline_Final_icon" overflow="hidden"><defs></defs><path d="M9.67 6.23 8.82 3.65 7.97 6.23 5.21 6.23 7.44 7.82 6.59 10.4 8.82 8.81 11.05 10.4 10.2 7.82 12.43 6.23 9.67 6.23Z" fill="#7823DC"/><path d="M17.99 6.23 17.14 3.65 16.29 6.23 13.53 6.23 15.77 7.82 14.91 10.4 17.14 8.81 19.37 10.4 18.52 7.82 20.75 6.23 17.99 6.23Z" fill="#7823DC"/><path d="M26.32 6.23 25.47 3.65 24.62 6.23 21.86 6.23 24.09 7.82 23.24 10.4 25.47 8.81 27.69 10.4 26.84 7.82 29.07 6.23 26.32 6.23Z" fill="#7823DC"/><path d="M22.73 23.98C22.71 23 22.34 22.06 21.69 21.32 21.07 20.73 20.27 20.39 19.4 20.36L19.4 20.36C19.4 20.36 19.28 20.35 19.28 20.35L15.71 20.31 15.71 20.31C15.57 20.31 15.45 20.31 15.32 20.33L15.32 19.97C15.32 19.97 16.9 17.6 16.9 17.6 17.83 16.21 17.7 14.39 16.61 13.12L16.61 13.12C16.61 13.12 16.47 12.96 16.47 12.96L16.22 12.72 15.32 11.84 15.18 11.7 15.04 11.84 4.61 21.98 2.66 21.98C2.66 21.98 0.19 21.98 0.19 21.98L-0.01 21.98-0.01 23.96 0.19 23.96C0.19 23.96 2.67 23.96 2.67 23.96L2.86 23.96C2.86 23.96 5.31 23.96 5.31 23.96L5.39 23.99 5.49 23.9 15.12 14.54C15.52 15.12 15.54 15.89 15.14 16.48L13.23 19.35 13.2 19.4 13.2 19.46C13.2 19.46 13.19 21.27 13.19 21.27 13.19 21.27 13.17 21.28 13.17 21.29 12.5 22.05 12.12 23 12.09 23.99 10.96 24.67 10.5 26.04 11 27.24 11.2 27.7 11.51 28.09 11.93 28.38 11.64 28.94 11.57 29.58 11.73 30.2 11.91 30.89 12.35 31.47 12.99 31.83 13.11 31.9 13.23 31.96 13.35 32L13.35 32.19 21.47 32.19 21.47 32C21.6 31.95 21.72 31.89 21.84 31.83 22.47 31.47 22.92 30.89 23.1 30.2 23.26 29.58 23.19 28.95 22.9 28.38 23.31 28.09 23.63 27.7 23.83 27.24 24.35 26.01 23.87 24.63 22.71 23.97ZM15.16 14.26 5.37 23.77 15.16 14.26 15.16 14.26ZM16.35 13.1 16.35 13.1C16.35 13.1 16.35 13.1 16.35 13.1L16.1 12.86 16.35 13.1ZM11.2 27.18C11.14 27.03 11.09 26.88 11.06 26.72 11.09 26.87 11.14 27.03 11.2 27.18 11.28 27.36 11.37 27.53 11.49 27.68 11.37 27.52 11.28 27.36 11.2 27.18ZM15.68 20.51C15.68 20.51 15.7 20.51 15.71 20.51L19.28 20.55 19.28 20.55C19.28 20.55 19.28 20.55 19.28 20.55L15.71 20.51C15.51 20.51 15.31 20.53 15.12 20.56 15.3 20.53 15.49 20.51 15.68 20.51ZM14.62 22.74C14.9 22.47 15.28 22.31 15.68 22.31L19.52 22.34C20.11 22.46 20.57 22.96 20.66 23.56L18.87 23.59 14.2 23.55C14.24 23.24 14.39 22.95 14.62 22.73ZM12.21 24.18C12.21 24.18 12.27 24.14 12.3 24.12 12.3 24.12 12.3 24.12 12.3 24.12L12.3 24.12 12.57 23.99C12.44 24.04 12.32 24.11 12.21 24.18ZM12.7 26.5C12.67 26.42 12.66 26.34 12.66 26.25 12.66 26.16 12.67 26.08 12.7 26 12.68 26.08 12.66 26.16 12.66 26.25 12.66 26.34 12.67 26.42 12.7 26.5ZM13.57 31.88C13.41 31.83 13.25 31.76 13.1 31.67 13.29 31.78 13.5 31.86 13.71 31.92L13.57 31.88ZM20.49 30.2 19.25 30.2C19.25 30.2 14.38 30.2 14.38 30.2 14.02 30.2 13.73 29.92 13.73 29.57 13.73 29.22 14.02 28.94 14.38 28.94L20.49 28.94C20.85 28.94 21.14 29.22 21.14 29.57 21.14 29.92 20.85 30.2 20.49 30.2ZM21.29 31.88 21.29 31.88C21.29 31.88 21.15 31.92 21.15 31.92 21.36 31.86 21.57 31.78 21.76 31.67 21.61 31.76 21.45 31.83 21.29 31.88ZM21.34 26.88 13.52 26.88C13.16 26.88 12.87 26.6 12.87 26.25 12.87 25.9 13.16 25.62 13.52 25.62L21.29 25.62C21.29 25.62 21.29 25.62 21.29 25.62L21.34 25.62C21.7 25.62 21.99 25.9 21.99 26.25 21.99 26.6 21.7 26.88 21.34 26.88ZM22.29 23.99 22.53 24.1 22.5 24.1C22.5 24.1 22.58 24.14 22.63 24.17 22.52 24.11 22.41 24.04 22.29 24ZM23.66 27.18C23.72 27.03 23.77 26.87 23.8 26.72 23.77 26.88 23.72 27.03 23.66 27.18 23.58 27.36 23.49 27.53 23.37 27.68 23.49 27.52 23.58 27.36 23.66 27.18Z" fill="#7823DC"/><path d="M2 0 2 17.27 4 17.27 4 2 30.26 2 30.26 15.99 21.26 15.99 21.26 17.99 32.26 17.99 32.26 0 2 0Z" fill="#7823DC"/></svg>