<svg viewBox="0 0 29.22 29.22" xmlns="http://www.w3.org/2000/svg" xmlns:xlink="http://www.w3.org/1999/xlink" xml:space="preserve" overflow="hidden"><style>
.MsftOfcResponsive_Fill_7823dc {
 fill:#7823DC; 
}
</style>
<g id="Layer_3"></g><g id="Layer_1"></g><g id="Layer_2"></g><g id="Layer_4"></g><g id="Layer_5"><g><path d="M17.27 2.72C17.27 1.2 16.08 0 14.58 0 13.08 0 11.89 1.2 11.89 2.72 11.89 4.24 13.08 5.44 14.58 5.44 16.08 5.43 17.27 4.24 17.27 2.72ZM14.58 3.6C14.11 3.6 13.71 3.2 13.71 2.72 13.71 2.24 14.11 1.84 14.58 1.84 15.05 1.84 15.45 2.24 15.45 2.72 15.45 3.2 15.05 3.6 14.58 3.6Z" class="st0 MsftOfcResponsive_Fill_7823dc" fill="#7823DC"/><path d="M6.28 18.38 8.04 18.94 11.63 7.54 8.99 29.22 10.83 29.22 13.7 5.55 10.35 5.55Z" class="st0 MsftOfcResponsive_Fill_7823dc" fill="#7823DC"/><path d="M17.59 7.54 18.14 8.22 26.11 1.71 17.44-0.04 17.09 1.68 22.14 2.69 18.64 5.55 15.51 5.55 18.39 29.22 20.14 29.22 17.59 7.54Z" class="st0 MsftOfcResponsive_Fill_7823dc" fill="#7823DC"/></g></g></svg>