<svg viewBox="0 0 32 32" xmlns="http://www.w3.org/2000/svg" xmlns:xlink="http://www.w3.org/1999/xlink" id="Layer_1" overflow="hidden"><style>
.MsftOfcResponsive_Fill_7823dc {
 fill:#7823DC; 
}
</style>
<defs></defs><path d="M12.54 32C5.63 32 0 24.82 0 16 0 7.18 5.62 0 12.54 0 19.46 0 25.08 7.18 25.08 16 25.08 24.82 19.46 32 12.54 32ZM12.54 2C6.73 2 2 8.28 2 16 2 23.72 6.73 30 12.54 30 18.35 30 23.08 23.72 23.08 16 23.08 8.28 18.35 2 12.54 2Z" class="MsftOfcResponsive_Fill_7823dc" fill="#7823DC"/><path d="M12.54 26.23C8.17 26.23 4.62 21.64 4.62 16 4.62 10.36 8.17 5.77 12.54 5.77 16.91 5.77 20.46 10.36 20.46 16 20.46 21.64 16.91 26.23 12.54 26.23ZM12.54 7.77C9.27 7.77 6.62 11.46 6.62 16 6.62 20.54 9.28 24.23 12.54 24.23 15.8 24.23 18.46 20.54 18.46 16 18.46 11.46 15.8 7.77 12.54 7.77Z" class="MsftOfcResponsive_Fill_7823dc" fill="#7823DC"/><path d="M13.69 32 12.54 32C11.99 32 11.54 31.55 11.54 31 11.54 30.45 11.99 30 12.54 30L13.69 30C20.38 30 25.64 25.84 27.4 19.15 27.64 18.32 28.35 17.83 28.99 17.4 29.25 17.22 29.62 16.97 29.71 16.83 29.75 16.78 29.79 16.72 29.83 16.68 29.9 16.61 30 16.35 30 16 30 15.73 29.91 15.47 29.71 15.17 29.6 15 29.26 14.71 28.96 14.45 28.3 13.88 27.62 13.29 27.41 12.52 25.7 6.02 20.45 2 13.69 2L12.54 2C11.99 2 11.54 1.55 11.54 1 11.54 0.45 11.99 0 12.54 0L13.69 0C21.39 0 27.39 4.6 29.33 11.99 29.4 12.18 29.96 12.67 30.27 12.94 30.7 13.31 31.1 13.67 31.37 14.06 31.79 14.7 32 15.33 32 16 32 16.39 31.93 17.34 31.31 18.02 31 18.44 30.55 18.75 30.11 19.05 29.84 19.23 29.39 19.54 29.32 19.7 27.36 27.16 21.22 32.01 13.69 32.01Z" class="MsftOfcResponsive_Fill_7823dc" fill="#7823DC"/><path d="M12.54 26.23C11.99 26.23 11.54 25.78 11.54 25.23L11.54 6.77C11.54 6.22 11.99 5.77 12.54 5.77 13.09 5.77 13.54 6.22 13.54 6.77L13.54 25.23C13.54 25.78 13.09 26.23 12.54 26.23Z" class="MsftOfcResponsive_Fill_7823dc" fill="#7823DC"/><path d="M4.94 16C4.94 15.45 5.27 15 5.68 15L19.39 15C19.8 15 20.13 15.45 20.13 16 20.13 16.55 19.8 17 19.39 17L5.68 17C5.27 17 4.94 16.55 4.94 16Z" class="MsftOfcResponsive_Fill_7823dc" fill="#7823DC"/></svg>