<svg viewBox="0 0 32 32" xmlns="http://www.w3.org/2000/svg" xmlns:xlink="http://www.w3.org/1999/xlink" overflow="hidden"><defs></defs><g id="Layer_3"><path d="M16.0322 26.9258C9.9571 26.9258 5.03223 22.0009 5.03223 15.9258 5.03223 9.85065 9.9571 4.92578 16.0322 4.92578 22.1074 4.92578 27.0322 9.85065 27.0322 15.9258 27.0254 21.9981 22.1045 26.9189 16.0322 26.9258ZM16.0322 6.92578C11.0617 6.92578 7.03223 10.9552 7.03223 15.9258 7.03223 20.8963 11.0617 24.9258 16.0322 24.9258 21.0028 24.9258 25.0322 20.8963 25.0322 15.9258 25.0266 10.9575 21.0005 6.93138 16.0322 6.92578Z" fill="#7823DC"/><path d="M16.0322 22.9258C12.1662 22.9258 9.03223 19.7918 9.03223 15.9258 9.03223 12.0598 12.1662 8.92578 16.0322 8.92578 19.8982 8.92578 23.0322 12.0598 23.0322 15.9258 23.0277 19.7899 19.8964 22.9213 16.0322 22.9258ZM16.0322 10.9258C13.2708 10.9258 11.0322 13.1644 11.0322 15.9258 11.0322 18.6872 13.2708 20.9258 16.0322 20.9258 18.7937 20.9258 21.0322 18.6872 21.0322 15.9258 21.029 13.1657 18.7923 10.929 16.0322 10.9258Z" fill="#7823DC"/><circle cx="16.0325" cy="15.9257" r="2" fill="#7823DC"/><path d="M16.0322 18.9258C14.3754 18.9258 13.0322 17.5826 13.0322 15.9258 13.0322 14.2689 14.3754 12.9258 16.0322 12.9258 17.6891 12.9258 19.0322 14.2689 19.0322 15.9258 19.0304 17.5819 17.6883 18.924 16.0322 18.9258ZM16.0322 14.9258C15.4799 14.9258 15.0322 15.3735 15.0322 15.9258 15.0322 16.4781 15.4799 16.9258 16.0322 16.9258 16.5845 16.9258 17.0322 16.4781 17.0322 15.9258 17.0317 15.3737 16.5843 14.9263 16.0322 14.9258Z" fill="#7823DC"/><path d="M28.902 25.926 26.074 25.926 28.074 27.926 8.032 27.926 8.032 29.926 28.074 29.926 26.074 31.926 28.902 31.926 31.902 28.926 28.902 25.926Z" fill="#7823DC"/><path d="M6.032 27.926 4.032 27.926 4.032 29.926 6.032 29.926 6.032 27.926 6.032 27.926Z" fill="#7823DC"/><path d="M2.032 27.926 0.032 29.926 2.032 29.926 2.032 27.926 2.032 27.926Z" fill="#7823DC"/><path d="M3.163 5.926 5.991 5.926 3.991 3.926 24.032 3.926 24.032 1.926 3.991 1.926 5.991-0.074 3.163-0.074 0.163 2.926 3.163 5.926Z" fill="#7823DC"/><path d="M28.032 1.926 26.032 1.926 26.032 3.926 28.032 3.926 28.032 1.926 28.032 1.926Z" fill="#7823DC"/><path d="M32.032 1.926 30.032 1.926 30.032 3.926 32.032 1.926 32.032 1.926Z" fill="#7823DC"/></g></svg>