<svg width="32" height="32" viewBox="0 0 32 32" xmlns="http://www.w3.org/2000/svg" xmlns:xlink="http://www.w3.org/1999/xlink" overflow="visible"><defs></defs><path d="" fill="#7823DC" fill-rule="evenodd" clip-rule="evenodd"/><path d="M16 24.8C17.5 24.8 18.7 26 18.7 27.5 18.7 29 17.5 30.2 16 30.2 14.5 30.2 13.3 29 13.3 27.5 13.3 26 14.5 24.8 16 24.8M16 23C13.5 23 11.5 25 11.5 27.5 11.5 30 13.5 32 16 32 18.5 32 20.5 30 20.5 27.5 20.5 25 18.5 23 16 23L16 23Z" fill="#7823DC"/><path d="M4.5 7.3C6 7.3 7.2 8.5 7.2 10 7.2 11.5 6 12.6 4.5 12.6 3 12.6 1.8 11.4 1.8 10 1.8 8.6 3 7.3 4.5 7.3M4.5 5.5C2 5.5 0 7.5 0 10 0 12.5 2 14.5 4.5 14.5 7 14.5 9 12.4 9 10 9 7.6 7 5.5 4.5 5.5L4.5 5.5Z" fill="#7823DC"/><path d="M27.5 7.3C29 7.3 30.2 8.5 30.2 10 30.2 11.5 29 12.7 27.5 12.7 26 12.7 24.8 11.5 24.8 10 24.8 8.5 26 7.3 27.5 7.3M27.5 5.5C25 5.5 23 7.5 23 10 23 12.5 25 14.5 27.5 14.5 30 14.5 32 12.5 32 10 32 7.5 30 5.5 27.5 5.5L27.5 5.5Z" fill="#7823DC"/><g><path d="M2.7 15.3 0.1 18.3 0.3 21.1 2.9 18.1 5.9 20.7 5.7 17.9 2.7 15.3Z" fill="#7823DC"/><path d="M9.4 29.4C5 27.4 2.7 25.2 1.8 18.2L3.8 17.9C4.6 24.3 6.5 25.8 10.2 27.5L9.4 29.4Z" fill="#7823DC"/></g><g><path d="M25.2 23.4 22.7 24.8 21.7 28.6 25.5 29.6 28 28.2 24.1 27.2 25.2 23.4Z" fill="#7823DC"/><path d="M24.7 28 23.6 26.3C29 22.7 29.6 20.4 29.5 16.3L31.5 16.2C31.6 21.2 30.6 24.1 24.7 28Z" fill="#7823DC"/></g><path d="M16.9 20.5C19.2 20.2 20.7 18.8 20.7 16.7 20.7 14.1 19 13.4 16.9 12.9L16.9 9.2C17.8 9.4 18.4 10.1 18.4 10.9L18.5 11.3 20.4 11.3 20.3 10.7C20 8.9 18.7 7.5 16.9 7.4L16.9 6.3 15.1 6.3 15.1 7.4C13.4 7.7 11.7 8.9 11.7 11 11.7 13.2 13 14.1 15.1 14.5L15.1 18.7C14.1 18.4 13.3 17.6 13.2 16.5L13.2 16.5 13.2 16 11.3 16 11.4 16.6C11.6 18.6 13.1 20.4 15.2 20.5M15.1 9.2 15.1 12.5C13.8 12.1 13.6 11.6 13.6 10.8 13.6 10 14.3 9.2 15.1 9.2L15.1 9.2ZM16.9 18.7 16.9 14.9C18.4 15.2 18.8 15.8 18.8 16.8 18.8 18.1 17.9 18.5 16.9 18.7L16.9 18.7Z" fill="#7823DC" fill-rule="evenodd" clip-rule="evenodd"/><g><path d="M19.7 0 21.2 3.7 17.5 5.1 20.1 6.3 23.8 4.8 22.3 1.1 19.7 0Z" fill="#7823DC"/><path d="M9.3 5.9 8.1 4.4C11.9 1.4 14.8 0.4 21.5 2.8L20.8 4.7C14.7 2.4 12.5 3.4 9.3 5.9Z" fill="#7823DC"/></g><rect x="15" y="5.9" width="2" height="16" fill="#7823DC"/></svg>