<svg viewBox="0 0 32 32" xmlns="http://www.w3.org/2000/svg" xmlns:xlink="http://www.w3.org/1999/xlink" id="Layer_1" xml:space="preserve" overflow="hidden"><g><path d="M28.3 6.7 11.5 23.2 3.8 16 1 16 11.5 25.9 31 6.7 28.3 6.7 28.3 6.7 28.3 6.7Z" fill="#7823DC"/><g><path d="M11.2 0C6.6 0 2.9 3.7 2.9 8.3 2.9 12.9 6.6 16.6 11.2 16.6 15.8 16.6 19.5 12.9 19.5 8.3 19.5 3.7 15.8 0 11.2 0L11.2 0ZM17.7 8.3C17.7 11.8 14.8 14.7 11.2 14.7 7.6 14.7 4.7 11.8 4.7 8.3 4.7 4.8 7.6 1.9 11.2 1.9 14.8 1.9 17.7 4.8 17.7 8.3L17.7 8.3Z" fill="#7823DC"/><path d="M11.2 4.7C8.5 4.7 5.6 5.5 5.6 7.4 5.6 9.2 8.5 10.1 11.2 10.1 13.9 10.1 16.8 9.3 16.8 7.4 16.8 5.5 13.9 4.7 11.2 4.7L11.2 4.7ZM15.1 7.3C15 7.6 13.7 8.3 11.3 8.3 8.9 8.3 7.5 7.6 7.4 7.4 7.5 7.1 8.8 6.4 11.2 6.4 13.6 6.4 15 7.1 15.1 7.3L15.1 7.3Z" fill="#7823DC"/></g></g><rect x="0" y="16" width="2" height="16" fill="#7823DC"/><rect x="21" y="16" width="2" height="16" fill="#7823DC"/><rect x="14.5" y="18" width="2" height="4.9" fill="#7823DC" transform="matrix(0.7071 -0.7071 0.7071 0.7071 -9.9129 16.9823)"/></svg>