<svg viewBox="0 0 32 32" xmlns="http://www.w3.org/2000/svg" xmlns:xlink="http://www.w3.org/1999/xlink" id="Layer_1" overflow="hidden"><g><g><defs><path d="M3 31.8 29 31.8 29 0 3 0 3 31.8Z" id="SVGID_1_" fill="#7823DC"/></defs><defs><path d="M3 0 29 0 29 31.8 3 31.8 3 0Z" id="SVGID_00000051361694718784799340000000541275292688105116_" fill="#7823DC"/></defs><clipPath id="SVGID_00000023241695800774586650000013436397077556974509_"><use width="100%" height="100%" xlink:href="#SVGID_1_" overflow="visible"></use></clipPath><clipPath id="SVGID_00000098187658712372487960000000571661108544825986_" clip-path="url(#SVGID_00000023241695800774586650000013436397077556974509_)"><use width="100%" height="100%" xlink:href="#SVGID_00000051361694718784799340000000541275292688105116_" overflow="visible"></use></clipPath><g clip-path="url(#SVGID_00000098187658712372487960000000571661108544825986_)"><defs><path d="M3 31.8 29 31.8 29 0 3 0 3 31.8Z" id="SVGID_00000114046619127304884170000011151282166630795708_" fill="#7823DC"/></defs><clipPath id="SVGID_00000063611567526296904870000011437863469716751007_"><use width="100%" height="100%" xlink:href="#SVGID_00000114046619127304884170000011151282166630795708_" overflow="visible"></use></clipPath><path d="M23.2 19.9 19.3 14.3 17.6 15.5 22.2 21.8 22.2 21.9 29 21.9 29 19.9 23.2 19.9 23.2 19.9Z" fill="#7823DC" clip-path="url(#SVGID_00000063611567526296904870000011437863469716751007_)"/><path d="M22.1 27.4 15.6 29.8 8 29.8 8 29.8C6.4 29.8 5.2 28.5 5.2 26.9 5.2 26.9 5.2 26.8 5.2 26.8L5.2 26.8 5.2 21.3 5.2 21.3C5.2 21.3 5.2 21.2 5.2 21.2 5.2 20.5 5.7 20 6.4 20 6.4 20 6.4 20 6.4 20L6.4 20 6.4 20 16 20 16 15.7C20.2 13.4 21.8 8.1 19.5 3.8 18.6 2.2 17.3 0.9 15.6 0.1L15.4 0.1 15.4 0.1 13.4 0.1 13.4 0.1 13.4 0.1 13.4 2 13.4 2 13.4 6.2 11.8 7.3 10.2 6.2 10.2 2 10.2 2 10.2 0.1 10.2 0.1 10.2 0.1 8.2 0.1 8.2 0.1 8 0.1C3.7 2.2 1.9 7.4 3.9 11.8 4.7 13.4 5.9 14.7 7.5 15.6L7.5 18 6.3 18C4.5 18 3.1 19.4 3.1 21.2 3.1 21.2 3.1 21.2 3.1 21.2 3.1 21.2 3.1 21.3 3.1 21.3L3.1 21.3 3.1 26.8 3.1 26.8C3.1 26.8 3.1 26.9 3.1 26.9 3.1 29.6 5.3 31.8 8 31.8 8 31.8 8 31.8 8 31.8 8.1 31.8 8.2 31.8 8.3 31.8L15.8 31.8 15.8 31.8 15.8 31.8 22.3 29.4 29 29.4 29 27.4 22.1 27.4 22.1 27.4 22.1 27.4ZM9.5 14.4C6 13.1 4.2 9.2 5.5 5.7 6 4.4 6.9 3.2 8.2 2.4L8.2 7.2 8.2 7.2 8.2 7.2 11.8 9.7 11.8 9.7 11.8 9.7 15.4 7.2 15.4 7.2 15.4 7.2 15.4 2.4C18.6 4.4 19.5 8.6 17.5 11.7 16.7 13 15.5 14 14 14.5L14 16.5 14 16.5 14 18 9.5 18 9.5 14.4 9.5 14.4 9.5 14.4Z" fill="#7823DC" clip-path="url(#SVGID_00000063611567526296904870000011437863469716751007_)"/></g></g></g></svg>