<svg viewBox="0 0 32 32" xmlns="http://www.w3.org/2000/svg" xmlns:xlink="http://www.w3.org/1999/xlink" id="Layer_1" overflow="hidden"><style>
.MsftOfcResponsive_Fill_7823dc {
 fill:#7823DC; 
}
</style>
<defs></defs><path d="M30 10 30 30 32 28 32 10 30 10Z" class="MsftOfcResponsive_Fill_7823dc" fill="#7823DC"/><path d="M28 16.47 22 16.47 22 30 19.3 30 19.3 20 13.3 20 13.3 30 10 30 10 14 4 14 4 30 2 30 2 11.93 6.41 11.93 8.13 10.21 12.13 12.82 16.88 8.07 21.59 8.07 24.8 11.28 30 3.85 30 6.13 32 4.13 32 0.03 28.3 0.03 26.3 2.03 28.83 2.03C28.83 2.03 24.52 8.18 24.52 8.18L22.41 6.07 16.05 6.07 11.87 10.25 7.87 7.64 5.59 9.92 2.01 9.92 2.01 2 10.01 2 10.01 0 0 0 0 32 4 32C4 32 10 32 10 32L10 32C10 32 13.3 32 13.3 32L13.3 32C13.3 32 19.3 32 19.3 32L19.3 32C19.3 32 22 32 22 32L22 32C22 32 28 32 28 32L28 32C28 32 28 32 28 32L30 30 28 30 28 16.47ZM6 16.01 8 16.01 8 30.01 6 30.01 6 16.01ZM15.3 22.01 17.3 22.01 17.3 30.01 15.3 30.01 15.3 22.01ZM24 18.47 26 18.47 26 30 24 30 24 18.47Z" class="MsftOfcResponsive_Fill_7823dc" fill="#7823DC"/><rect x="12" y="0" width="4" height="2" class="MsftOfcResponsive_Fill_7823dc" fill="#7823DC"/><rect x="18" y="0" width="4" height="2" class="MsftOfcResponsive_Fill_7823dc" fill="#7823DC"/></svg>