<svg viewBox="0 0 32 32" xmlns="http://www.w3.org/2000/svg" xmlns:xlink="http://www.w3.org/1999/xlink" id="Layer_5" overflow="hidden"><defs></defs><path d="M26.58 10.57 30.49 6.13 28.99 4.81 25.96 8.25 23.77 0 8.23 0-0.3 32.06 32.3 32.06 26.58 10.58ZM26.98 19.86 21.41 19.86C21.19 19.06 20.79 18.34 20.26 17.73L24.98 12.37 26.97 19.86ZM9.77 2 22.23 2 24.37 10.05 18.72 16.47C18.19 16.18 17.61 15.98 17 15.87L17 14.02 19.02 14.02 19.02 12.02 17 12.02 17 10.04 19.02 10.04 19.02 8.04 17 8.04 17 6.03 19.02 6.03 19.02 4.03 12.85 4.03 12.85 6.03 15 6.03 15 8.04 12.85 8.04 12.85 10.04 15 10.04 15 12.02 12.85 12.02 12.85 14.02 15 14.02 15 15.92C12.99 16.34 11.33 17.87 10.8 19.86L5.01 19.86 9.77 2ZM4.48 21.87 12.54 21.87 12.62 20.96C12.78 19.19 14.31 17.8 16.1 17.8 16.53 17.8 16.95 17.88 17.34 18.03L15.32 20.32 16.82 21.64 18.93 19.24C19.29 19.73 19.53 20.31 19.59 20.95L19.67 21.86 27.51 21.86 29.69 30.05 2.3 30.05 4.48 21.86Z" fill="#7823DC"/></svg>