<svg viewBox="0 0 32 32" xmlns="http://www.w3.org/2000/svg" xmlns:xlink="http://www.w3.org/1999/xlink" id="Layer_1" overflow="hidden"><style>
.MsftOfcResponsive_Fill_7823dc {
 fill:#7823DC; 
}
</style>
<path d="M16 4.1 16.6 5.2 15.4 5.2 16 4.1M16 0 12 7.2 20 7.2 16 0 16 0Z" class="MsftOfcResponsive_Fill_7823dc" fill="#7823DC"/><path d="M18.8 10.3 19.5 11.5 12.5 11.5 13.2 10.3 18.8 10.3M20 8.3 12 8.3 9 13.5 23 13.5 20 8.3 20 8.3Z" class="MsftOfcResponsive_Fill_7823dc" fill="#7823DC"/><path d="M21.8 16.5 22.5 17.7 9.5 17.7 10.2 16.5 21.8 16.5M23 14.5 9 14.5 6 19.7 26 19.7 23 14.5 23 14.5Z" class="MsftOfcResponsive_Fill_7823dc" fill="#7823DC"/><path d="M24.8 22.6 25.5 23.8 6.5 23.8 7.2 22.6 24.8 22.6M26 20.6 6 20.6 3 25.8 29 25.8 26 20.6 26 20.6Z" class="MsftOfcResponsive_Fill_7823dc" fill="#7823DC"/><path d="M27.8 28.7 28.5 30 3.4 30 4.1 28.7 27.8 28.7M29 26.7 3 26.7 0 32 32 32 29 26.7 29 26.7Z" class="MsftOfcResponsive_Fill_7823dc" fill="#7823DC"/></svg>