<svg viewBox="0 0 29.22 29.22" xmlns="http://www.w3.org/2000/svg" xmlns:xlink="http://www.w3.org/1999/xlink" xml:space="preserve" overflow="hidden"><g id="Layer_3"></g><g id="Layer_1"></g><g id="Layer_2"></g><g id="Layer_4"></g><g id="Layer_5"><path d="M24.66 10.05 21.88 10.05 25.45 13.62 9.3 13.62 7.13 10.31 4.63 10.31 6.47 12.97 6.9 13.62 4.66 13.62 4.65 13.59 2.5 10.31 0 10.31 1.84 12.97 2.24 13.59 2.25 13.62 2.92 14.63 2.29 15.6 2.27 15.62 0.1 18.95 2.5 18.95 4.68 15.62 4.69 15.6 6.91 15.6 4.73 18.94 7.13 18.94 9.32 15.6 25.45 15.6 21.88 19.17 24.66 19.17 29.15 14.68 29.22 14.61Z" fill="#7823DC" fill-rule="evenodd" clip-rule="evenodd"/></g></svg>