<svg viewBox="0 0 32 32" xmlns="http://www.w3.org/2000/svg" xmlns:xlink="http://www.w3.org/1999/xlink" id="Layer_1" overflow="hidden"><g><g><defs><path d="M4 32 28 32 28 0 4 0 4 32Z" id="SVGID_1_" fill="#7823DC"/></defs><defs><path d="M4 0 28 0 28 32 4 32 4 0Z" id="SVGID_00000031916439910207138860000014550768699192874666_" fill="#7823DC"/></defs><clipPath id="SVGID_00000145023047027471953440000014503083642239019663_"><use width="100%" height="100%" xlink:href="#SVGID_1_" overflow="visible"></use></clipPath><clipPath id="SVGID_00000057837620561024424230000012822975424535228063_" clip-path="url(#SVGID_00000145023047027471953440000014503083642239019663_)"><use width="100%" height="100%" xlink:href="#SVGID_00000031916439910207138860000014550768699192874666_" overflow="visible"></use></clipPath><g clip-path="url(#SVGID_00000057837620561024424230000012822975424535228063_)"><defs><path d="M4 32 28 32 28 0 4 0 4 32Z" id="SVGID_00000094592477129318213950000009243427716110564242_" fill="#7823DC"/></defs><clipPath id="SVGID_00000090266187367230663170000006725413513965880466_"><use width="100%" height="100%" xlink:href="#SVGID_00000094592477129318213950000009243427716110564242_" overflow="visible"></use></clipPath><path d="M17.4 1 14.6 1 18.4 4.9 16.4 4.9C10.1 4.8 5 10 5 16.4L6.9 16.4C6.9 11.1 11.2 6.8 16.5 6.8L18.6 6.8 14.8 10.7 17.5 10.7 22.3 5.9 17.4 1 17.4 1 17.4 1Z" fill="#7823DC" clip-path="url(#SVGID_00000090266187367230663170000006725413513965880466_)"/><path d="M27.9 16.4 26 16.4C26 21.7 21.7 26 16.4 26L14.3 26 18.1 22.1 15.4 22.1 10.7 27 15.5 31.8 18.3 31.8 14.4 28 16.4 28C22.8 28 27.9 22.8 27.9 16.4L27.9 16.4Z" fill="#7823DC" clip-path="url(#SVGID_00000090266187367230663170000006725413513965880466_)"/></g></g></g></svg>