<svg viewBox="0 0 32 32" xmlns="http://www.w3.org/2000/svg" xmlns:xlink="http://www.w3.org/1999/xlink" id="Layer_1" overflow="hidden"><path d="M15.8 6C11.4 6 7.8 9.6 7.8 14 7.8 15 8 15.9 8.3 16.7 8.5 17.3 8.8 17.9 9.2 18.4 9.3 18.5 9.4 18.6 9.4 18.7 9.8 19.2 10.3 19.7 10.8 20.1L11.2 18.7 12.2 18.7C11.9 18.5 11.7 18.2 11.4 18 11.2 17.8 11 17.5 10.8 17.2 10.7 17 10.6 16.9 10.5 16.7 10.1 15.9 9.8 15 9.8 14 9.8 10.7 12.5 8 15.8 8 19.1 8 21.8 10.7 21.8 14 21.8 15 21.6 15.9 21.1 16.7 21 16.8 21 17 20.9 17.1 20.8 17.3 20.7 17.5 20.5 17.6 20.2 18 19.8 18.3 19.4 18.6L20.7 18.6 21 19.9C21.4 19.5 21.8 19.1 22.2 18.6 22.3 18.4 22.5 18.2 22.6 18 22.8 17.6 23.1 17.1 23.2 16.6 23.5 15.7 23.7 14.8 23.7 13.9 23.8 9.6 20.2 6 15.8 6ZM17 19.9C16.6 20 16.2 20 15.8 20 15.5 20 15.2 20 15 19.9L15 21.1 12.3 21.1C13.1 21.5 14 21.8 15 21.9 15.3 21.9 15.5 22 15.8 22 16.2 22 16.6 22 17 21.9 17.9 21.8 18.7 21.5 19.4 21.1L17 21.1 17 19.9ZM20.5 17.7C20.2 18.1 19.8 18.4 19.4 18.7L20.7 18.7 20.5 17.7Z" fill="#7823DC"/><path d="M29 16.8 3 16.8 0 27.9 32 27.9 29 16.8ZM2.6 25.9 3.3 23.2 3.8 21.2 4.5 18.8 27.4 18.8 28.1 21.2 28.6 23.2 29.3 25.9 2.6 25.9Z" fill="#7823DC"/><g><path d="" stroke="#7823DC" stroke-width="2" stroke-miterlimit="10" fill="#7823DC"/></g><path d="M11.5 17.5 11.4 18 11.2 18.8 10.8 20.2 10.5 21.2 10 23.2 9.3 25.9 8.8 27.8 6.8 27.3 7.2 25.9 7.9 23.2 8.5 21.2 9.1 18.8 9.2 18.5 9.6 16.9 10.8 17.3Z" fill="#7823DC"/><path d="M25 26.9 23 27.4 22.6 25.9 21.9 23.2 21.4 21.2 21.1 20 20.8 18.8 20.5 17.7 20.4 17.3 20.9 17.2 22.4 16.8 22.7 18.1 22.9 18.8 23.5 21.2 24 23.2 24.7 25.9Z" fill="#7823DC"/><rect x="15" y="17.9" width="2" height="9.8" fill="#7823DC"/><rect x="2.5" y="21.2" width="26.8" height="2" fill="#7823DC"/><g><rect x="9" y="28.8" width="6.7" height="2" fill="#7823DC" transform="matrix(0.4992 -0.8665 0.8665 0.4992 -19.6389 25.6619)"/><rect x="18.6" y="26.5" width="2" height="6.7" fill="#7823DC" transform="matrix(0.8664 -0.4993 0.4993 0.8664 -12.2692 13.7799)"/></g><rect x="22" y="4.4" width="4.1" height="2" fill="#7823DC" transform="matrix(0.7071 -0.7071 0.7071 0.7071 3.1861 18.5625)"/><rect x="6.6" y="3.4" width="2" height="4.1" fill="#7823DC" transform="matrix(0.7071 -0.7071 0.7071 0.7071 -1.6275 6.9414)"/><rect x="26" y="13" width="4.1" height="2" fill="#7823DC"/><rect x="15" y="0" width="2" height="4.1" fill="#7823DC"/><rect x="1.8" y="13" width="4.1" height="2" fill="#7823DC"/></svg>