<svg viewBox="0 0 32 32" xmlns="http://www.w3.org/2000/svg" xmlns:xlink="http://www.w3.org/1999/xlink" id="Layer_1" xml:space="preserve" overflow="hidden"><g><g><path d="M6.3 22.7 25.7 22.7 25.7 24.5 6.3 24.5Z" fill="#7823DC"/><path d="M25.8 24.6 6.2 24.6 6.2 22.6 25.8 22.6 25.8 24.6ZM6.5 24.4 25.6 24.4 25.6 22.9 6.5 22.9 6.5 24.4Z" fill="#7823DC"/></g><g><path d="M5 19.3 27 19.3 27 21 5 21Z" fill="#7823DC"/><path d="M27.1 21.1 4.9 21.1 4.9 19.1 27.1 19.1 27.1 21.1ZM5.2 20.9 26.9 20.9 26.9 19.4 5.2 19.4 5.2 20.9Z" fill="#7823DC"/></g><g><path d="M3.6 15.8 28.4 15.8 28.4 17.5 3.6 17.5Z" fill="#7823DC"/><path d="M28.5 17.6 3.5 17.6 3.5 15.6 28.6 15.6 28.6 17.6ZM3.7 17.4 28.3 17.4 28.3 15.9 3.7 15.9 3.7 17.4Z" fill="#7823DC"/></g></g><g><g><path d="M23.5 8.7 23.5 2 21.5 2 21.5 7.3 16.1 9 12.8 10.1 9 11.3 9 14 11 14 11 12.7 16.1 11.1 19.5 10Z" fill="#7823DC"/><path d="M23.5 14 23.5 11.3 19.5 10 16.1 9 16.1 9 10.5 7.3 10.5 2 8.5 2 8.5 8.7 12.8 10.1 12.8 10.1 16.1 11.1 16.1 11.1 21.5 12.7 21.5 14Z" fill="#7823DC"/></g><path d="M9.4 0 5.6 3.9 6.9 5.2 9.4 2.7 11.9 5.2 13.3 4.2 9.4 0Z" fill="#7823DC"/><path d="M22.5 0 18.7 3.9 20 5.2 22.5 2.7 25 5.2 26.4 4.2 22.5 0Z" fill="#7823DC"/></g><g><path d="M26.2 27.9 5.9 27.9 2.3 13.5 4 13.1 7.3 26.2 24.8 26.2 28 13.1 29.7 13.5Z" fill="#7823DC"/><path d="M26.3 28 5.8 28 5.8 27.9 2.2 13.4 4.2 13 7.5 26 24.9 26 28.1 13 30.1 13.4 30.1 13.5 26.3 28ZM6 27.7 26.1 27.7 29.6 13.5 28.1 13.2 24.9 26.2 7.2 26.2 7.2 26.1 3.9 13.3 2.4 13.6 6 27.7Z" fill="#7823DC"/></g><g><path d="M9.8 28.9C8.1 28.9 6.6 30.3 6.6 32L8.6 32C8.7 31.4 9.2 30.9 9.8 30.9 10.4 30.9 11 31.4 11 32L13 32C13 30.3 11.6 28.9 9.8 28.9Z" fill="#7823DC"/><path d="M22.2 28.9C20.4 28.9 19 30.3 19 32L21 32C21.1 31.4 21.6 30.9 22.2 30.9 22.8 30.9 23.4 31.4 23.4 32L25.4 32C25.3 30.3 23.9 28.9 22.2 28.9Z" fill="#7823DC"/></g></svg>