<svg viewBox="0 0 32 32" xmlns="http://www.w3.org/2000/svg" xmlns:xlink="http://www.w3.org/1999/xlink" id="Text" overflow="hidden"><style>
.MsftOfcResponsive_Fill_7823dc {
 fill:#7823DC; 
}
</style>
<defs></defs><path d="M30 29.86 2 29.86 2 0 0 2.13 0 29.86 0 32 32 32 30 29.86Z" class="MsftOfcResponsive_Fill_7823dc" fill="#7823DC"/><path d="M8 11.99 8 26 6 26 6 13.99 8 11.99Z" class="MsftOfcResponsive_Fill_7823dc" fill="#7823DC"/><path d="M12 5.99 12 26 10 26 10 7.99 12 5.99Z" class="MsftOfcResponsive_Fill_7823dc" fill="#7823DC"/><path d="M16 4 16 26 14 26 14 6 15.99 4 16 4Z" class="MsftOfcResponsive_Fill_7823dc" fill="#7823DC"/><path d="M20 9.99 20 26 18 26 18 11.99 20 9.99Z" class="MsftOfcResponsive_Fill_7823dc" fill="#7823DC"/><path d="M24 13.99 24 26 22 26 22 11.99 24 13.99Z" class="MsftOfcResponsive_Fill_7823dc" fill="#7823DC"/><path d="M28 17.99 28 26 26 26 26 15.99 28 17.99Z" class="MsftOfcResponsive_Fill_7823dc" fill="#7823DC"/></svg>