<svg width="36.5" height="36.6" viewBox="0 0 36.5 36.6" xmlns="http://www.w3.org/2000/svg" xmlns:xlink="http://www.w3.org/1999/xlink" overflow="hidden"><defs></defs><g><g><defs><path d="M0 36.5 36.5 36.5 36.5 0 0 0 0 36.5Z" id="SVGID_1_" fill="#7823DC"/></defs><clipPath id="SVGID_2_"><use width="100%" height="100%" xlink:href="#SVGID_1_"></use></clipPath><g clip-path="url(#SVGID_2_)"><defs><path d="M0 36.5 36.5 36.5 36.5 0 0 0 0 36.5Z" id="SVGID_3_" fill="#7823DC"/></defs><clipPath id="SVGID_4_"><use width="100%" height="100%" xlink:href="#SVGID_3_"></use></clipPath><path d="M18.2 27.4C10.7 27.4 4.5 21.2 4.5 13.7 4.5 6.2 10.7 0 18.2 0L18.2 2.3C12 2.3 6.8 7.4 6.8 13.7 6.8 20 12 25.1 18.2 25.1 24.5 25.1 29.6 20 29.6 13.7L31.9 13.7C31.9 21.3 25.8 27.4 18.2 27.4Z" fill="#7823DC" clip-path="url(#SVGID_4_)"/><path d="M18.2 22.9C13.2 22.9 9.1 18.8 9.1 13.8 9.1 8.8 13.2 4.7 18.2 4.7L18.2 7C14.4 7 11.4 10.1 11.4 13.9 11.4 17.7 14.5 20.8 18.2 20.8 21.9 20.8 25 17.7 25 13.9L27.3 13.9C27.4 18.8 23.3 22.9 18.2 22.9Z" fill="#7823DC" clip-path="url(#SVGID_4_)"/><path d="M31.9 4.6 27.4 4.6 27.4 0 25.1 2.3 25.1 6.9 29.6 6.8 31.9 4.6 31.9 4.6Z" fill="#7823DC" clip-path="url(#SVGID_4_)"/><path d="M25.8 4.6 18.2 12.1 18.2 13.7 19.9 13.7 27.4 6.2 25.8 4.6 25.8 4.6Z" fill="#7823DC" clip-path="url(#SVGID_4_)"/><path d="M12.6 36.6 10.3 36.6 12.6 25.2 14.9 25.7 12.6 36.6 12.6 36.6Z" fill="#7823DC" clip-path="url(#SVGID_4_)"/><path d="M24 36.6 26.3 36.6 24 25.2 21.8 25.7 24 36.6 24 36.6Z" fill="#7823DC" clip-path="url(#SVGID_4_)"/></g></g></g></svg>