<svg viewBox="0 0 32 32" xmlns="http://www.w3.org/2000/svg" xmlns:xlink="http://www.w3.org/1999/xlink" id="Layer_1" overflow="hidden"><style>
.MsftOfcResponsive_Fill_7823dc {
 fill:#7823DC; 
}
</style>
<path d="M16 15.5C20 15.5 23.2 18.7 23.2 22.7 23.2 26.7 20 30 16 30 12 30 8.8 26.8 8.8 22.8 8.8 18.8 12 15.5 16 15.5M16 13.5C10.9 13.5 6.8 17.6 6.8 22.7 6.8 27.8 10.9 32 16 32 21.1 32 25.2 27.9 25.2 22.8 25.2 17.7 21.1 13.5 16 13.5L16 13.5Z" class="MsftOfcResponsive_Fill_7823dc" fill="#7823DC"/><rect x="15" y="1.2" width="2" height="13.8" class="MsftOfcResponsive_Fill_7823dc" fill="#7823DC"/><g><path d="M16.9 3.4 20.5 7 20.5 4.5 16 0 11.5 4.5 11.5 4.5 11.5 7 15.1 3.4" class="MsftOfcResponsive_Fill_7823dc" fill="#7823DC" fill-rule="evenodd" clip-rule="evenodd"/></g></svg>