<svg viewBox="0 0 29.22 29.22" xmlns="http://www.w3.org/2000/svg" xmlns:xlink="http://www.w3.org/1999/xlink" xml:space="preserve" overflow="hidden"><g id="Layer_3"></g><g id="Layer_1"></g><g id="Layer_2"></g><g id="Layer_4"></g><g id="Layer_5"><g><path d="M19.65 9.5C18.88 9.45 18.11 9.72 17.52 10.24 16.93 10.76 16.58 11.48 16.54 12.27 16.44 13.89 17.68 15.29 19.3 15.38 19.36 15.38 19.42 15.39 19.48 15.39 20.2 15.39 20.89 15.13 21.43 14.65 22.02 14.13 22.37 13.41 22.41 12.62 22.46 11.83 22.2 11.08 21.67 10.49 21.15 9.9 20.43 9.55 19.65 9.5ZM19.42 13.38C18.9 13.35 18.5 12.9 18.53 12.38 18.54 12.13 18.66 11.9 18.84 11.73 19.01 11.58 19.23 11.49 19.46 11.49 19.48 11.49 19.5 11.49 19.52 11.49 19.77 11.5 20 11.62 20.17 11.81 20.34 12 20.42 12.24 20.41 12.49 20.38 13.02 19.92 13.41 19.42 13.38Z" fill="#7823DC"/><path d="M6.11 14.56 8.53 14.56C8.95 15.77 9.58 16.91 10.43 17.92L11.08 18.7 15.84 14.57 15.52 13.88C15.26 13.33 15.13 12.74 15.13 12.13 15.13 9.87 16.97 8.03 19.23 8.03 19.99 8.03 20.91 8.33 21.64 8.81L22.26 9.22 27.19 5.11 26.54 4.34C26.45 4.23 26.35 4.14 26.26 4.04L29.19 1.65 27.92 0.1 24.76 2.68C20.93-0.17 15.5-0.14 11.69 3.07 9.54 4.88 8.22 7.42 7.98 10.23 7.91 11.02 7.94 11.79 8.04 12.56L0 12.56 0 14.56 4.11 14.56 4.11 27.22 1.54 27.22 1.54 29.22 27.87 29.22 27.87 27.22 6.11 27.22 6.11 14.56ZM9.98 10.41C10.17 8.14 11.24 6.08 12.98 4.61 14.53 3.3 16.46 2.6 18.46 2.6 18.71 2.6 18.95 2.61 19.2 2.63 21.13 2.8 22.91 3.59 24.31 4.9L22.08 6.76C21.17 6.29 20.14 6.03 19.22 6.03 15.86 6.03 13.12 8.77 13.12 12.13 13.12 12.78 13.22 13.41 13.42 14.01L11.34 15.81C10.3 14.22 9.82 12.34 9.98 10.41Z" fill="#7823DC"/><path d="M26.63 9.35 26.82 6.62 24.69 8.39 24.55 10.31 26.1 11.45 25.02 13.04 25.8 14.8 24.07 15.64 23.86 17.55 21.94 17.42 20.8 18.97 19.21 17.88 17.45 18.66 16.61 16.93 14.7 16.72 12.56 18.5 15.29 18.8 16.49 21.27 19 20.16 21.27 21.71 22.9 19.49 25.63 19.69 25.93 16.96 28.41 15.76 27.3 13.25 28.84 10.98Z" fill="#7823DC"/></g></g></svg>