<svg viewBox="0 0 32 32" xmlns="http://www.w3.org/2000/svg" xmlns:xlink="http://www.w3.org/1999/xlink" id="Layer_1" overflow="hidden"><path d="M2.7 2.7C5.6 3.3 10.3 3.9 15.9 4L16.1 4C21.7 4 26.3 3.3 29.2 2.8 28.7 5.5 28 9.8 27.9 15 27.8 21.1 28.6 26.3 29.2 29.4 26.3 28.8 21.7 28.1 16.1 28.1L15.8 28.1C10.2 28.1 5.6 28.8 2.7 29.4 3.4 26.3 4.1 21.2 4 15 3.9 9.7 3.2 5.4 2.7 2.7M0 0C0 0 1.8 6.2 2 15 2.2 24.8 0 32 0 32 0 32 6.6 30.1 15.9 30 16 30 16.1 30 16.2 30 25.5 30 32.1 32 32.1 32 32.1 32 29.8 24.8 30 14.9 30.2 6.2 32-1.77636e-15 32-1.77636e-15 32-1.77636e-15 25.4 1.9 16.2 1.9 16.1 1.9 16.1 1.9 16 1.9 6.7 1.9 0 0 0 0L0 0Z" fill="#7823DC"/><g><rect x="18.3" y="8.7" width="7.9" height="2" fill="#7823DC" transform="matrix(0.7071 -0.7071 0.7071 0.7071 -0.3468 18.6016)"/><path d="M27 11 25 11 25 7 20.9 7 20.9 5 27 5Z" fill="#7823DC"/></g><g><rect x="8.7" y="5.8" width="2" height="7.9" fill="#7823DC" transform="matrix(0.7071 -0.7071 0.7071 0.7071 -4.0394 9.687)"/><path d="M6.9 11 4.9 11 4.9 5 11 5 11 7 6.9 7Z" fill="#7823DC"/></g><g><rect x="21.3" y="18.1" width="2" height="7.9" fill="#7823DC" transform="matrix(0.7071 -0.7071 0.7071 0.7071 -9.0847 22.221)"/><path d="M27 26.8 20.9 26.8 20.9 24.8 25 24.8 25 20.8 27 20.8Z" fill="#7823DC"/></g><g><rect x="5.7" y="21.1" width="7.9" height="2" fill="#7823DC" transform="matrix(0.7071 -0.7071 0.7071 0.7071 -12.7772 13.3064)"/><path d="M11 26.8 4.9 26.8 4.9 20.8 6.9 20.8 6.9 24.8 11 24.8Z" fill="#7823DC"/></g></svg>