<svg viewBox="0 0 32 32" xmlns="http://www.w3.org/2000/svg" xmlns:xlink="http://www.w3.org/1999/xlink" id="Layer_5" overflow="hidden"><style>
.MsftOfcResponsive_Fill_7823dc {
 fill:#7823DC; 
}
</style>
<defs></defs><path d="M15.99 13.35C14.55 13.35 13.37 14.52 13.37 15.97 13.37 17.42 14.54 18.59 15.99 18.59 17.44 18.59 18.61 17.42 18.61 15.97 18.61 14.52 17.44 13.35 15.99 13.35ZM15.99 16.58C15.65 16.58 15.37 16.3 15.37 15.96 15.37 15.62 15.65 15.34 15.99 15.34 16.33 15.34 16.61 15.62 16.61 15.96 16.61 16.3 16.33 16.58 15.99 16.58Z" class="MsftOfcResponsive_Fill_7823dc" fill="#7823DC"/><path d="M32 11.2 32 6 26.54 6 26.54 7.77 23.43 7.77 20.6 10.98 20.6 10.98C20.6 10.98 18.91 11.37 18.91 11.37L18.58 11.19 17.71 8.56 14.27 8.56 13.47 11.09 13.09 11.29 11.01 10.95 8.21 7.78 4.99 7.78 4.99 7.82C4.58 6.91 3.67 6.27 2.61 6.27 1.17 6.25 0 7.43 0 8.87 0 10.31 1.17 11.49 2.62 11.49 3.75 11.49 4.7 10.77 5.07 9.77L7.32 9.77 9.56 12.3 9.58 12.28 8.77 13.67 9.98 15.12 5.08 15.12C4.73 14.09 3.76 13.35 2.62 13.35 1.17 13.35 0 14.53 0 15.97 0 17.41 1.17 18.59 2.62 18.59 3.68 18.59 4.59 17.95 5 17.04L5 17.13 9.69 17.13 8.7 18.26 9.57 19.74 9.54 19.72 7.3 22.25 5.01 22.25C4.62 21.3 3.68 20.63 2.59 20.63 1.17 20.62 0 21.79 0 23.23 0 24.67 1.17 25.85 2.62 25.85 3.71 25.85 4.64 25.18 5.04 24.23L8.23 24.23 11.07 21.02 11.07 21.02C11.07 21.02 13.18 20.58 13.18 20.58L13.43 20.72 14.37 23.45 17.56 23.45 18.55 20.84 18.87 20.67 20.64 21.03 20.63 21.03C20.63 21.03 23.47 24.25 23.47 24.25L26.58 24.25 26.58 25.85 32.04 25.85 32.04 20.65 26.58 20.65 26.58 22.25 24.37 22.25 22.33 19.94 23.32 18.22 22.34 17.14 26.57 17.14 26.57 18.83 32.03 18.83 32.03 13.63 26.57 13.63 26.57 15.14 22.12 15.14 23.31 13.8 22.34 12.08 24.36 9.79 26.57 9.79 26.57 11.23 32.03 11.23ZM2.62 9.49C2.28 9.49 2 9.21 2 8.87 2 8.53 2.28 8.25 2.62 8.25 2.96 8.25 3.24 8.53 3.24 8.87 3.24 9.21 2.96 9.49 2.62 9.49ZM2.62 16.59C2.28 16.59 2 16.31 2 15.97 2 15.63 2.28 15.35 2.62 15.35 2.96 15.35 3.24 15.63 3.24 15.97 3.24 16.31 2.96 16.59 2.62 16.59ZM2.62 23.85C2.28 23.85 2 23.57 2 23.23 2 22.89 2.28 22.61 2.62 22.61 2.96 22.61 3.24 22.89 3.24 23.23 3.24 23.57 2.96 23.85 2.62 23.85ZM28.55 22.63 30.01 22.63 30.01 23.83 28.55 23.83 28.55 22.63ZM28.55 15.6 30.01 15.6 30.01 16.8 28.55 16.8 28.55 15.6ZM18.54 18.55 16.93 19.42 16.17 21.44 15.79 21.44 15.06 19.32 13.47 18.47 11.43 18.9 11.18 18.47 12.53 16.93 12.53 15.02 11.22 13.45 11.47 13.02 13.44 13.35 15.15 12.47 15.76 10.55 16.29 10.55 16.96 12.56 18.65 13.47 20.6 13.03 20.87 13.51 19.53 15.02 19.51 16.96 20.86 18.46 20.57 18.96 18.55 18.55ZM28.54 8 30 8 30 9.2 28.54 9.2 28.54 8Z" class="MsftOfcResponsive_Fill_7823dc" fill="#7823DC"/></svg>