<svg viewBox="0 0 32 32" xmlns="http://www.w3.org/2000/svg" xmlns:xlink="http://www.w3.org/1999/xlink" overflow="hidden"><style>
.MsftOfcResponsive_Fill_7823dc {
 fill:#7823DC; 
}
</style>
<defs></defs><g id="Layer_3"><path d="M30.0002 17.9722 30.0002 29.9444 2 29.9444 2 17.9722 30.0002 17.9722M32.0001 15.9722 0 15.9722 0 31.9444 32.0001 31.9444 32.0001 15.9722Z" class="MsftOfcResponsive_Fill_7823dc" fill="#7823DC"/><rect x="4" y="19.898" width="2" height="12.0464" class="MsftOfcResponsive_Fill_7823dc" fill="#7823DC"/><rect x="8" y="19.898" width="2" height="12.0464" class="MsftOfcResponsive_Fill_7823dc" fill="#7823DC"/><rect x="12" y="19.898" width="2" height="12.0464" class="MsftOfcResponsive_Fill_7823dc" fill="#7823DC"/><rect x="16" y="19.898" width="2" height="12.0464" class="MsftOfcResponsive_Fill_7823dc" fill="#7823DC"/><rect x="20" y="19.898" width="2" height="12.0464" class="MsftOfcResponsive_Fill_7823dc" fill="#7823DC"/><rect x="24" y="19.898" width="2" height="12.0464" class="MsftOfcResponsive_Fill_7823dc" fill="#7823DC"/><path d="M30.0002 2 30.0002 13.9722 2 13.9722 2 2 30.0002 2M32.0001 0 0 0 0 15.9722 32.0001 15.9722 32.0001 0Z" class="MsftOfcResponsive_Fill_7823dc" fill="#7823DC"/><rect x="26" y="3.92578" width="2" height="12.0464" class="MsftOfcResponsive_Fill_7823dc" fill="#7823DC"/><rect x="22" y="3.92578" width="2" height="12.0464" class="MsftOfcResponsive_Fill_7823dc" fill="#7823DC"/><rect x="18" y="3.92578" width="2" height="12.0464" class="MsftOfcResponsive_Fill_7823dc" fill="#7823DC"/><rect x="14" y="3.92578" width="2" height="12.0464" class="MsftOfcResponsive_Fill_7823dc" fill="#7823DC"/><rect x="10" y="3.92578" width="2" height="12.0464" class="MsftOfcResponsive_Fill_7823dc" fill="#7823DC"/><rect x="6" y="3.92578" width="2" height="12.0464" class="MsftOfcResponsive_Fill_7823dc" fill="#7823DC"/></g></svg>