<svg width="37.4" height="37.4" viewBox="0 0 37.4 37.4" xmlns="http://www.w3.org/2000/svg" xmlns:xlink="http://www.w3.org/1999/xlink" overflow="hidden"><style>
.MsftOfcResponsive_Fill_7823dc {
 fill:#7823DC; 
}
</style>
<defs></defs><g><g><defs><path d="M0.9 36.5 37.4 36.5 37.4 0 0.9 0 0.9 36.5Z" id="SVGID_1_" class="MsftOfcResponsive_Fill_7823dc" fill="#7823DC"/></defs><clipPath id="SVGID_2_"><use width="100%" height="100%" xlink:href="#SVGID_1_"></use></clipPath><g clip-path="url(#SVGID_2_)"><defs><path d="M0.9 36.5 37.4 36.5 37.4 0 0.9 0 0.9 36.5Z" id="SVGID_3_" class="MsftOfcResponsive_Fill_7823dc" fill="#7823DC"/></defs><clipPath id="SVGID_4_"><use width="100%" height="100%" xlink:href="#SVGID_3_"></use></clipPath><path d="M11.7 37.4 11.7 34.8 9.5 27.8 2.6 25.6 0 25.6 1.9 23.6 4.9 20.6 10.2 20.2 17 13.4 0.6 8.8 4.8 4.6 24.2 6.5 25.2 5.5C27.1 3.5 29.3 2 31.8 1 33.2 0.5 34.6 0.9 35.6 1.8 36.6 2.7 36.9 4.2 36.5 5.5 35.4 8.1 33.9 10.3 32 12.2L30.9 13.2 33 32.7 28.8 36.9 23.8 20.3 17 27.1 16.6 32.5 11.7 37.4ZM24.9 16 29.9 32.6 30.6 31.9 28.5 12.5 30.3 10.7C32 9 33.3 7 34.3 4.8 34.4 4.4 34.3 3.9 34 3.6 33.6 3.2 33.1 3.1 32.7 3.3 30.5 4 28.5 5.4 26.8 7L25 8.8 5.6 6.9 4.9 7.6 21.4 12.4 11.3 22.6 6 23 5 24 11.5 26 13.5 32.5 14.5 31.5 14.9 26.1 24.9 16Z" class="MsftOfcResponsive_Fill_7823dc" fill="#7823DC" clip-path="url(#SVGID_4_)"/></g></g></g></svg>