<svg viewBox="0 0 32 32" xmlns="http://www.w3.org/2000/svg" xmlns:xlink="http://www.w3.org/1999/xlink" id="Grid" overflow="hidden"><defs></defs><path d="M12.03 14.03 12.03 32 32 32 32 14.03 12.03 14.03ZM30 30 14.03 30 14.03 16.02 17.84 16.02 15.28 20.95 19.73 23.32 19.73 26.65 22.19 28.28 23.29 26.62 21.73 25.58 21.73 22.13 17.96 20.12 20.08 16.03 29.99 16.03 29.99 30.01Z" stroke-width="0" fill="#7823DC"/><path d="M13.29 10.89 14.13 10.61 15.26 13.95 20.49 12.18 19.36 8.84 20.2 8.56 17.29-0.02 10.38 2.31 10.95 3.98-3.68 8.93-1.91 14.16 12.72 9.22 13.29 10.89ZM17.47 9.48 17.96 10.93 16.51 11.42 16.02 9.97 17.31 9.53 17.47 9.48ZM17.66 7.31 14.54 8.37 12.92 3.57 16.04 2.51 17.66 7.31ZM-0.66 11.63-1.15 10.18 11.59 5.88 12.08 7.33-0.66 11.63Z" stroke-width="0" fill="#7823DC"/></svg>