<svg viewBox="0 0 32 32" xmlns="http://www.w3.org/2000/svg" xmlns:xlink="http://www.w3.org/1999/xlink" id="Layer_2_1_" xml:space="preserve" overflow="hidden"><style>
.MsftOfcResponsive_Fill_7823dc {
 fill:#7823DC; 
}
</style>
<g><path d="M28 24.3 30 24.3 30 26.2 28 26.2Z" class="MsftOfcResponsive_Fill_7823dc" fill="#7823DC" fill-rule="evenodd" clip-rule="evenodd"/><path d="M31.3 28.3C27 28.3 27 28.3 27 28.3 26.8 27 25.5 26 24.3 26 22.8 26 21.8 27 21.3 28.2 16 28.2 16 28.2 16 28.2 16 23 16 23 16 23 28.3 23 28.3 23 28.3 23 28.3 21.8 28.3 21.8 28.3 21.8 25.3 21.1 25.3 21.1 25.3 21.1 16 21 16 21 16 21 16 16.3 16 16.3 16 16.3 14 16.3 14 16.3 14 16.3 14 21 14 21 14 21 0 21 0 21 0 21 0 21.7 0 21.7 0 21.7 0 23 0 23 0 23 0 26 0 26 0 26 0 30.2 0 30.2 0 30.2 3.3 30.2 3.3 30.2 3.3 30.2 3.8 31.2 4.8 31.9 6.3 31.9 7.6 31.9 8.6 31.2 9.1 30.2 21.6 30.2 21.6 30.2 21.6 30.2 21.9 31.2 23.1 31.9 24.4 31.9 25.7 31.9 26.9 31.2 27.2 30.2 31.5 30.2 31.5 30.2 31.5 30.2L31.5 28.3 31.3 28.3 31.3 28.3ZM2 23C14 23 14 23 14 23 14 28.2 14 28.2 14 28.2 9 28.2 9 28.2 9 28.2 8.8 27 7.5 26 6.3 26 4.8 26 3.8 27 3.3 28.2 2 28.2 2 28.2 2 28.2L2 23 2 23 2 23ZM6.3 30C5.8 30 5.3 29.8 5.3 29 5.3 28.5 5.8 28 6.3 28 6.8 28 7.3 28.5 7.3 29 7.3 29.5 6.8 30 6.3 30L6.3 30ZM24.3 30C23.8 30 23.3 29.8 23.3 29 23.3 28.5 23.8 28 24.3 28 24.8 28 25.3 28.5 25.3 29 25.3 29.5 24.8 30 24.3 30L24.3 30Z" class="MsftOfcResponsive_Fill_7823dc" fill="#7823DC" fill-rule="evenodd" clip-rule="evenodd"/><path d="M25.8 20.3 21.5 15.3 6.8 15.3 2.5 21.5 4 22.5 7.8 17.3 20.8 17.3 24.5 22 30 23.5 30 30.2 32 30.2 32 22.2 25.8 20.3Z" class="MsftOfcResponsive_Fill_7823dc" fill="#7823DC" fill-rule="evenodd" clip-rule="evenodd"/><path d="M31.3 11.5C30.3 11.5 30.3 11.5 30.3 11.5 30.3 6 26.1 1.6 20.6 1.6 20.6 0.6 20.6 0.6 20.6 0.6 26.5 0.8 31.3 5.5 31.3 11.5L31.3 11.5Z" class="MsftOfcResponsive_Fill_7823dc" fill="#7823DC" fill-rule="evenodd" clip-rule="evenodd"/><path d="M31.7 12C29.7 12 29.7 12 29.7 12 29.7 11.5 29.7 11.5 29.7 11.5 29.7 6.3 25.7 2 20.5 2 20 2 20 2 20 2 20 0 20 0 20 0 20.5 0 20.5 0 20.5 0 26.7 0.2 31.7 5.2 31.7 11.5L31.7 12 31.7 12 31.7 12ZM30.7 11 30.7 11C30.7 8.8 29.7 6.5 28.2 4.8 29.8 6.5 30.7 8.7 30.7 11L30.7 11ZM21 1.3C22 1.3 23 1.5 24 1.8 23 1.6 22 1.3 21 1.1L21 1.3 21 1.3 21 1.3Z" class="MsftOfcResponsive_Fill_7823dc" fill="#7823DC" fill-rule="evenodd" clip-rule="evenodd"/><path d="M28.3 11.5C27.3 11.5 27.3 11.5 27.3 11.5 27.3 7.8 24.3 4.5 20.6 4.5 20.6 3.5 20.6 3.5 20.6 3.5 24.8 3.5 28.3 7.2 28.3 11.5L28.3 11.5Z" class="MsftOfcResponsive_Fill_7823dc" fill="#7823DC" fill-rule="evenodd" clip-rule="evenodd"/><path d="M28.8 12C26.8 12 26.8 12 26.8 12 26.8 11.5 26.8 11.5 26.8 11.5 26.8 8 24 5 20.5 5 20 5 20 5 20 5 20 3 20 3 20 3 20.5 3 20.5 3 20.5 3 25 3 28.8 7 28.8 11.5L28.8 12 28.8 12 28.8 12ZM27.8 11 27.8 11C27.5 7.3 24.5 4.3 21 4 21 4.2 21 4.2 21 4.2 24.5 4.5 27.6 7.3 27.8 11L27.8 11Z" class="MsftOfcResponsive_Fill_7823dc" fill="#7823DC" fill-rule="evenodd" clip-rule="evenodd"/><path d="M25.5 11.5C24.5 11.5 24.5 11.5 24.5 11.5 24.5 9.3 22.5 7.5 20.5 7.5 20.5 6.5 20.5 6.5 20.5 6.5 23.3 6.5 25.5 8.7 25.5 11.5L25.5 11.5Z" class="MsftOfcResponsive_Fill_7823dc" fill="#7823DC" fill-rule="evenodd" clip-rule="evenodd"/><path d="M26.1 12C24.1 12 24.1 12 24.1 12 24.1 11.5 24.1 11.5 24.1 11.5 24.1 9.5 22.6 8 20.6 8 20 8 20 8 20 8 20 6 20 6 20 6 20.5 6 20.5 6 20.5 6 23.5 6 26 8.5 26 11.5L26 12 26.1 12 26.1 12ZM24.8 11C25.1 11 25.1 11 25.1 11 24.8 9 23.1 7.2 21.1 7 21.1 7.3 21.1 7.3 21.1 7.3 23 7.2 24.8 9 24.8 11L24.8 11Z" class="MsftOfcResponsive_Fill_7823dc" fill="#7823DC" fill-rule="evenodd" clip-rule="evenodd"/><path d="M20.5 13.5C19.2 13.5 18.5 12.5 18.5 11.5 18.5 10.5 19.3 9.5 20.5 9.5 21.5 9.5 22.5 10.5 22.5 11.5 22.5 12.5 21.5 13.5 20.5 13.5L20.5 13.5ZM20.5 10.5C19.7 10.5 19.5 11 19.5 11.5 19.5 12 19.8 12.5 20.5 12.5 21 12.5 21.5 12 21.5 11.5 21.5 11 21 10.5 20.5 10.5L20.5 10.5Z" class="MsftOfcResponsive_Fill_7823dc" fill="#7823DC" fill-rule="evenodd" clip-rule="evenodd"/><path d="M20.6 14C19.1 14 18.1 12.8 18.1 11.5 18.1 10.2 19.1 9 20.6 9 21.8 9 23.1 10.2 23.1 11.5 23.1 12.8 21.8 14 20.6 14L20.6 14ZM20.6 10C19.6 10 19.1 10.7 19.1 11.5 19.1 12.3 19.6 13 20.6 13 21.3 13 22.1 12.3 22.1 11.5 22.1 10.7 21.3 10 20.6 10L20.6 10ZM20.6 13C19.6 13 19.1 12.3 19.1 11.5 19.1 10.7 19.6 10 20.6 10 21.3 10 22.1 10.7 22.1 11.5 22.1 12.3 21.3 13 20.6 13L20.6 13ZM20.6 11C20.1 11 20.1 11.2 20.1 11.5 20.1 11.7 20.1 12 20.6 12 20.8 12 21.1 11.8 21.1 11.5 21.1 11.2 20.8 11 20.6 11L20.6 11Z" class="MsftOfcResponsive_Fill_7823dc" fill="#7823DC" fill-rule="evenodd" clip-rule="evenodd"/></g><path d="M5.6 0.3C2.7 0.3 0.3 2.6 0.2 5.5 0.2 5.6 0.2 5.6 0.2 5.7 0.2 6.4 0.5 7.3 1 8.3 2 10.4 3.7 12.8 4.8 14.2L4.8 14.2C5.3 14.9 5.6 15.3 5.6 15.3 5.6 15.3 6.1 14.7 6.7 13.8 8.3 11.7 10.9 7.7 10.9 5.6 11 2.7 8.6 0.3 5.6 0.3L5.6 0.3ZM6 11.5C5.9 11.7 5.8 11.9 5.6 12 4.3 10.2 3.2 8.3 2.6 7 2.3 6.5 2.2 6 2.2 5.7 2.2 3.8 3.7 2.3 5.6 2.3 7.5 2.3 9 3.8 9 5.7 9 6.7 7.6 9.1 6 11.5L6 11.5Z" class="MsftOfcResponsive_Fill_7823dc" fill="#7823DC" fill-rule="evenodd" clip-rule="evenodd"/><path d="M5.5 3.3C4.1 3.3 3 4.5 3 5.9 3 7.3 4.1 8.5 5.6 8.5 7 8.5 8.2 7.3 8.2 5.9 8 4.5 6.9 3.3 5.5 3.3L5.5 3.3ZM5.5 6.4C5.1 6.4 4.9 6.2 4.9 5.9 4.9 5.5 5.1 5.3 5.5 5.3 5.8 5.3 6.1 5.5 6.1 5.9 6 6.2 5.8 6.4 5.5 6.4L5.5 6.4Z" class="MsftOfcResponsive_Fill_7823dc" fill="#7823DC" fill-rule="evenodd" clip-rule="evenodd"/></svg>