<svg viewBox="0 0 32 32" xmlns="http://www.w3.org/2000/svg" xmlns:xlink="http://www.w3.org/1999/xlink" id="Layer_1" xml:space="preserve" overflow="hidden"><g><g><defs><path d="M5.5 32 26.5 32 26.5 0 5.5 0 5.5 32Z" id="SVGID_1_" fill="#7823DC"/></defs><defs><path d="M5.5 0 26.5 0 26.5 32 5.5 32 5.5 0Z" id="SVGID_00000121266512774459931260000008839351643773428633_" fill="#7823DC"/></defs><clipPath id="SVGID_00000078759774107800543730000011029264169916807825_"><use width="100%" height="100%" xlink:href="#SVGID_1_" overflow="visible"></use></clipPath><clipPath id="SVGID_00000095305692006579472790000007773336945617119893_" clip-path="url(#SVGID_00000078759774107800543730000011029264169916807825_)"><use width="100%" height="100%" xlink:href="#SVGID_00000121266512774459931260000008839351643773428633_" overflow="visible"></use></clipPath><g clip-path="url(#SVGID_00000095305692006579472790000007773336945617119893_)"><defs><path d="M5.5 32 26.5 32 26.5 0 5.5 0 5.5 32Z" id="SVGID_00000183246657742348021370000007869894330622996625_" fill="#7823DC"/></defs><clipPath id="SVGID_00000039856392313034207820000009975946681743704231_"><use width="100%" height="100%" xlink:href="#SVGID_00000183246657742348021370000007869894330622996625_" overflow="visible"></use></clipPath><path d="M18.1 14.9 12.2 14.9 8.8 12 10 8C11.1 7.9 12.2 6.9 12.7 5.5 13.3 3.7 12.6 1.9 11.2 1.5 9.8 1.1 8.4 2.1 7.8 3.9 7.4 5.2 7.6 6.5 8.3 7.2L6.5 13.1 7.8 13.5 11.6 16.7 16.3 16.7 16.3 23.6 15.4 26.2 12.9 31.4 15 31.4 17.2 27 18.3 23.9 18.3 14.9 18.1 14.9 18.1 14.9Z" fill="#7823DC" clip-path="url(#SVGID_00000039856392313034207820000009975946681743704231_)"/><path d="M21.7 12.4 18.5 14.9 18.5 24 20.8 26.9 17.4 31.5 19.8 31.5 23.2 26.9 20.4 23.3 20.4 15.9 23.2 13.6 25 9.8 23.3 9 21.7 12.4 21.7 12.4Z" fill="#7823DC" clip-path="url(#SVGID_00000039856392313034207820000009975946681743704231_)"/><path d="M17.7 13.7C19.1 13.7 20.3 12.5 20.3 11.1 20.3 9.7 19.1 8.5 17.7 8.5 16.3 8.5 15.1 9.7 15.1 11.1 15.1 12.5 16.2 13.7 17.7 13.7L17.7 13.7ZM17.7 10.4C18.1 10.4 18.4 10.7 18.4 11.1 18.4 11.5 18.1 11.8 17.7 11.8 17.3 11.8 17 11.5 17 11.1 17 10.7 17.3 10.4 17.7 10.4L17.7 10.4Z" fill="#7823DC" clip-path="url(#SVGID_00000039856392313034207820000009975946681743704231_)"/><path d="M25.2 6.1C24.5 6.1 23.9 6.7 23.9 7.4 23.9 8.1 24.5 8.7 25.2 8.7 25.9 8.7 26.5 8.1 26.5 7.4 26.5 6.7 25.9 6.1 25.2 6.1L25.2 6.1Z" fill="#7823DC" clip-path="url(#SVGID_00000039856392313034207820000009975946681743704231_)"/></g></g></g></svg>