<svg viewBox="0 0 32 32" xmlns="http://www.w3.org/2000/svg" xmlns:xlink="http://www.w3.org/1999/xlink" id="Layer_1" overflow="hidden"><g><path d="M25.6 13.2 22.8 13.2 28.2 18.6 15.1 18.6 15.3 18.4C16.6 17.1 17.5 15.2 17.5 13.3 17.5 9.3 14.2 6 10.2 6 6.2 6 2.9 9.4 2.9 13.4 2.9 15.4 3.6 17.2 5.1 18.5L5.3 18.7 0 18.7 1 19.7 0 20.7 28.2 20.7 22.8 26.1 25.6 26.1 32 19.7 25.6 13.2 25.6 13.2 25.6 13.2ZM15.5 13.3C15.5 15.9 13.6 18 11.3 18.6L10.4 18.7 9.9 18.7 9 18.6C6.5 18.1 4.7 15.9 4.7 13.3 4.6 10.3 7 8 10 8 13 8 15.5 10.3 15.5 13.3L15.5 13.3Z" fill="#7823DC" fill-rule="evenodd" clip-rule="evenodd"/></g></svg>