<svg width="37.2" height="36.5" viewBox="0 0 37.2 36.5" xmlns="http://www.w3.org/2000/svg" xmlns:xlink="http://www.w3.org/1999/xlink" overflow="hidden"><defs></defs><g><g><defs><path d="M0.3 36.5 36.8 36.5 36.8 0 0.3 0 0.3 36.5Z" id="SVGID_1_" fill="#7823DC"/></defs><clipPath id="SVGID_2_"><use width="100%" height="100%" xlink:href="#SVGID_1_"></use></clipPath><g clip-path="url(#SVGID_2_)"><defs><path d="M0.3 36.5 36.8 36.5 36.8 0 0.3 0 0.3 36.5Z" id="SVGID_3_" fill="#7823DC"/></defs><clipPath id="SVGID_4_"><use width="100%" height="100%" xlink:href="#SVGID_3_"></use></clipPath><path d="M5.2 19.4 5.5 20C5.6 19.8 5.8 19.6 5.8 19.4L5.2 19.4Z" fill="#7823DC" clip-path="url(#SVGID_4_)"/><path d="M33.9 15.4 33.6 15.4 28.5 6.7C29.5 5.4 29.2 3.6 28 2.7 26.7 1.7 24.9 2 24 3.3 23.9 3.5 23.7 3.7 23.6 3.9L13.6 3.9C13 2.4 11.3 1.7 9.8 2.3 8.3 2.9 7.6 4.6 8.3 6 8.4 6.2 8.5 6.4 8.7 6.6L3.6 15.4 3.2 15.4C1.6 15.2 0.2 16.3 0 17.9-0.2 19.5 0.9 20.9 2.5 21.1 2.7 21.1 3 21.1 3.2 21.1L3.5 21.1 8.6 29.9C8.2 30.4 8.1 31 8.1 31.6 8.1 33.2 9.4 34.5 11 34.4 12.1 34.4 13.1 33.7 13.6 32.7L23.7 32.7C24.3 34.2 26 34.8 27.5 34.2 29 33.6 29.6 31.9 29 30.4 28.9 30.2 28.8 30 28.7 29.8L33.7 21.1 34 21.1C35.6 21.3 37 20.2 37.2 18.6 37.4 17 36.3 15.6 34.7 15.4 34.4 15.4 34.2 15.4 33.9 15.4L33.9 15.4ZM26.3 4.2C26.7 4.2 27.1 4.5 27.1 5 27.1 5.4 26.8 5.8 26.3 5.8 25.9 5.8 25.5 5.5 25.5 5 25.5 5 25.5 5 25.5 5 25.5 4.5 25.8 4.2 26.3 4.2L26.3 4.2ZM13.6 6.1 23.7 6.1C23.8 6.3 23.9 6.5 24 6.7L20.9 12C19.4 11.5 17.8 11.5 16.3 12L13.2 6.7C13.4 6.5 13.5 6.3 13.6 6.1L13.6 6.1ZM23.1 18.5C23.1 21 21.1 23.1 18.5 23.1 15.9 23.1 14 21 14 18.5 14 16 16 13.9 18.6 13.9 21.2 13.9 23.1 16 23.1 18.5L23.1 18.5ZM10.9 4.2C11.3 4.2 11.7 4.5 11.7 5 11.7 5.4 11.4 5.8 10.9 5.8 10.5 5.8 10.1 5.5 10.1 5 10.1 5 10.1 5 10.1 5 10.1 4.5 10.5 4.2 10.9 4.2L10.9 4.2ZM10.6 7.8 11 7.8 11.3 7.8 14.4 13.1C13.1 14.1 12.3 15.5 11.9 17.1L5.9 17.1C5.8 16.9 5.7 16.7 5.6 16.5L10.6 7.8ZM3.2 19.1C2.8 19.1 2.4 18.8 2.4 18.3 2.4 17.9 2.7 17.5 3.2 17.5 3.6 17.5 4 17.8 4 18.3 4 18.3 4 18.3 4 18.3 4 18.7 3.7 19.1 3.2 19.1L3.2 19.1ZM10.9 32.4C10.5 32.4 10.1 32 10.1 31.6 10.1 31.2 10.5 30.8 10.9 30.8 11.3 30.8 11.7 31.2 11.7 31.6 11.7 31.6 11.7 31.6 11.7 31.6 11.7 32 11.4 32.4 10.9 32.4 10.9 32.4 10.9 32.4 10.9 32.4L10.9 32.4ZM11.3 28.7 11 28.7C10.9 28.7 10.8 28.7 10.6 28.7L5.6 20 5.3 19.4 11.9 19.4C12.1 21.1 12.9 22.6 14.2 23.7L11.3 28.7ZM13.5 30.5C13.4 30.3 13.3 30.1 13.1 29.9L16 24.9C17.6 25.5 19.4 25.5 21 24.9L23.9 29.9C23.8 30.1 23.7 30.3 23.6 30.5L13.5 30.5ZM26.2 32.4C25.8 32.4 25.4 32.1 25.4 31.6 25.4 31.2 25.7 30.8 26.2 30.8 26.6 30.8 27 31.1 27 31.6 27 31.6 27 31.6 27 31.6 27 32 26.7 32.4 26.2 32.4L26.2 32.4ZM26.5 28.8C26.3 28.8 26 28.8 25.8 28.8L23 23.8C24.3 22.7 25.2 21.2 25.4 19.5L31.3 19.5C31.4 19.7 31.5 19.9 31.6 20.1L26.5 28.8ZM31.3 17.1 25.3 17.1C25 15.5 24.1 14.1 22.9 13.1L26 7.8 26.3 7.8 26.6 7.8 31.7 16.6C31.5 16.8 31.4 16.9 31.3 17.1L31.3 17.1ZM33.9 19.1C33.5 19.1 33.1 18.7 33.1 18.3 33.1 17.9 33.5 17.5 33.9 17.5 34.3 17.5 34.7 17.9 34.7 18.3 34.7 18.7 34.4 19.1 33.9 19.1 34 19.1 33.9 19.1 33.9 19.1L33.9 19.1Z" fill="#7823DC" clip-path="url(#SVGID_4_)"/></g></g></g></svg>