<svg viewBox="0 0 32 32" xmlns="http://www.w3.org/2000/svg" xmlns:xlink="http://www.w3.org/1999/xlink" id="Layer_1" overflow="hidden"><g><path d="M16.1 6.4 28.2 14 16.1 21.6 3.8 14 16.1 6.4M16.1 4.1 0 14 16.1 24 32 14 16.1 4.1 16.1 4.1 16.1 4.1Z" fill="#7823DC" fill-rule="evenodd" clip-rule="evenodd"/><path d="M24 16.7 24 25.1C21.5 24.5 18.9 24.6 16.5 25.6L16 25.8 15.5 25.6C13.1 24.6 10.5 24.5 8 25.1L8 16.7 6 15.7 6 27.9 7.2 27.4C9.6 26.4 12.3 26.4 14.8 27.4L16 27.9 17.2 27.4C19.6 26.4 22.3 26.4 24.8 27.4L26 27.9 26 15.5 24 16.7 24 16.7Z" fill="#7823DC" fill-rule="evenodd" clip-rule="evenodd"/><path d="M17.4 13.7C17.4 14.3 16.8 14.8 16 14.8 15.2 14.8 14.6 14.3 14.6 13.7 14.6 13.1 15.2 12.6 16 12.6 16.8 12.6 17.4 13.1 17.4 13.7L17.4 13.7Z" fill="#7823DC" fill-rule="evenodd" clip-rule="evenodd"/><path d="M16 12.7 28.6 12.7 28.6 14.7 16 14.7 16 12.7Z" fill="#7823DC" fill-rule="evenodd" clip-rule="evenodd"/><path d="M28 14.3 30 14.3 30 27.9 28 27.9 28 14.3Z" fill="#7823DC" fill-rule="evenodd" clip-rule="evenodd"/></g></svg>