<svg viewBox="0 0 32 32" xmlns="http://www.w3.org/2000/svg" xmlns:xlink="http://www.w3.org/1999/xlink" overflow="hidden"><style>
.MsftOfcResponsive_Fill_7823dc {
 fill:#7823DC; 
}
</style>
<defs></defs><g id="Layer_3"><path d="M32 8.03125 32 0.03125 0 0.03125 0 8.03125 4 8.03125 4 11.9756 3.999 11.9756 3.999 30.0312 0 30.0312 0 32.0312 3.999 32.0312 3.999 32.1289 14 32.1289 14 32.0312 32 32.0312 32 30.0312 24.2058 30.0312C25.4436 30.0505 26.5602 29.2903 26.9961 28.1317L32 28.1317 32 26.1317 27.0115 26.1317C26.6262 24.898 25.4923 24.0511 24.2 24.0317 22.8841 24.0098 21.7155 24.8691 21.344 26.1317L20 26.1317 21.2319 27.3635C21.3685 28.8916 22.6612 30.0554 24.1953 30.0312L14 30.0312 14 28.0312 17 28.0312 17 23.0312 18 23.0312 18 24.1317 20 26.1317 20 21.0317 32 21.0317 32 19.0317 22.8312 19.0317 25.8001 14.0316 32 14.0316 32 12.0316 24.8 12.0316 20.4849 19.0317 18 19.0317 18 21.0312 15 21.0312 15 26.0312 14 26.0312 14 11.9756 6 11.9756 6 8.03125ZM23.2 27.0317C23.2 26.4794 23.6477 26.0317 24.2 26.0317 24.7523 26.0317 25.2 26.4794 25.2 27.0317 25.2 27.584 24.7523 28.0317 24.2 28.0317 23.6792 28.0631 23.2315 27.6664 23.2 27.1456 23.1977 27.1076 23.1977 27.0696 23.2 27.0317ZM6.1084 20.0088 11.8906 20.0088 11.8906 30.0195 6.1084 30.0195ZM11.8906 14.085 11.8906 18.0088 6.1084 18.0088 6.1084 14.085ZM2 2.03125 30 2.03125 30 6.03125 2 6.03125Z" class="MsftOfcResponsive_Fill_7823dc" fill="#7823DC"/></g></svg>