<svg width="32" height="32" viewBox="0 0 32 32" xmlns="http://www.w3.org/2000/svg" xmlns:xlink="http://www.w3.org/1999/xlink" overflow="hidden"><defs></defs><g><g><g><defs><rect x="0" y="0" width="32" height="32" id="SVGID_1_" fill="#7823DC"/></defs><clipPath id="SVGID_2_"><use width="100%" height="100%" xlink:href="#SVGID_1_"></use></clipPath><g clip-path="url(#SVGID_2_)"><defs><rect x="0" y="0" width="32" height="32" id="SVGID_3_" fill="#7823DC"/></defs><clipPath id="SVGID_4_"><use width="100%" height="100%" xlink:href="#SVGID_3_"></use></clipPath><path d="M16 2C23.7 2 30 8.3 30 16 30 23.7 23.7 30 16 30 8.3 30 2 23.7 2 16 2 8.3 8.3 2 16 2M16 0C7.2 0 0 7.2 0 16 0 24.8 7.2 32 16 32 24.8 32 32 24.8 32 16 32 7.2 24.8 0 16 0" fill="#7823DC" clip-path="url(#SVGID_4_)"/></g></g></g><rect x="1" y="15.8" width="29.7" height="2" fill="#7823DC" transform="matrix(0.7071 -0.7071 0.7071 0.7071 -7.2003 16.1305)"/><rect x="13.1" y="0.7" width="2" height="15.5" fill="#7823DC" transform="matrix(0.9703 -0.242 0.242 0.9703 -1.6349 3.6717)"/></g></svg>