<svg viewBox="0 0 32 32" xmlns="http://www.w3.org/2000/svg" xmlns:xlink="http://www.w3.org/1999/xlink" overflow="hidden"><defs></defs><g id="Layer_3"><path d="M29.9823 7.95349 29.9823 27.9535 27.99 27.9535 27.99 7.95349 29.9823 7.95349M31.9823 5.95349 25.99 5.95349 25.99 29.9535 31.9823 29.9535 31.9823 5.95349Z" fill="#7823DC"/><path d="M21.5432 8.06091 23.3903 8.80762 15.894 27.3497 14.047 26.6029 21.5432 8.06091M20.4386 5.457 11.4431 27.7075 16.9986 29.9535 25.9941 7.70312 20.4386 5.457Z" fill="#7823DC"/><path d="M13.2806 8.13989-0.01791 22.8292-0.01791 28.4747 1.61551 29.9535 17.7229 12.1615ZM1.47513 27.1285-0.01755 25.7911 13.421 10.9648 14.898 12.3019Z" fill="#7823DC"/><path d="M6 4C7.10457 4 8 4.89543 8 6 8 7.10457 7.10457 8 6 8 4.89543 8 4 7.10457 4 6 4.00126 4.89595 4.89595 4.00126 6 4M6 2C3.79086 2 2 3.79086 2 6 2 8.20914 3.79086 10 6 10 8.20914 10 10 8.20914 10 6 10 3.79086 8.20914 2 6 2Z" fill="#7823DC"/><path d="M2.442 0.005 0.006 0.005 3.179 4.57 4.821 3.43 2.442 0.005Z" fill="#7823DC"/></g></svg>