<svg viewBox="0 0 32 32" xmlns="http://www.w3.org/2000/svg" xmlns:xlink="http://www.w3.org/1999/xlink" xml:space="preserve" overflow="hidden"><style>
.MsftOfcResponsive_Fill_7823dc {
 fill:#7823DC; 
}
</style>
<g id="Layer_3"></g><g id="Layer_1"><path d="M6.47 13.09C4.84 13.09 3.21 12.48 1.95 11.26 0.07 9.43-0.52 6.68 0.43 4.24L0.74 3.82 2.12 3.84 4.91 6.55 6.22 6.38 6.36 5.06 3.57 2.35 3.82 0.68C6.26-0.41 9.07 0.09 10.99 1.96 13.55 4.46 13.61 8.57 11.11 11.13 9.85 12.43 8.16 13.09 6.47 13.09ZM1.98 6.5C1.95 7.72 2.43 8.93 3.34 9.82 5.11 11.55 7.96 11.51 9.68 9.73 10.52 8.87 10.97 7.74 10.95 6.54 10.93 5.34 10.45 4.22 9.59 3.39 8.66 2.49 7.44 2.05 6.2 2.12L8.1 3.97 8.4 4.79 8.13 7.37 7.27 8.26 4.69 8.6 3.86 8.33 1.98 6.5Z" class="st1 MsftOfcResponsive_Fill_7823dc" fill="#7823DC"/><path d="M25.48 32.1C23.66 32.1 21.9 31.33 20.64 29.91 18.27 27.23 18.52 23.12 21.19 20.75 22.49 19.6 24.15 19.03 25.88 19.13 27.61 19.24 29.19 20.01 30.34 21.3 32.07 23.26 32.46 26.04 31.34 28.4L30.98 28.81 29.61 28.68 27.03 25.77 25.71 25.85 25.47 27.15 28.05 30.06 27.68 31.71C26.97 31.98 26.22 32.1 25.48 32.1ZM25.49 21.12C24.39 21.12 23.35 21.51 22.52 22.25 20.67 23.89 20.5 26.73 22.14 28.58 23 29.55 24.19 30.08 25.43 30.1L23.67 28.12 23.43 27.28 23.89 24.73 24.82 23.91 27.41 23.76 28.22 24.09 29.96 26.05C30.08 24.83 29.7 23.59 28.85 22.64 28.06 21.74 26.96 21.21 25.76 21.14 25.67 21.13 25.58 21.12 25.49 21.12Z" class="st1 MsftOfcResponsive_Fill_7823dc" fill="#7823DC"/><rect x="16.36" y="6.4" width="2" height="16.64" class="st1 MsftOfcResponsive_Fill_7823dc" fill="#7823DC" transform="matrix(0.7085 -0.7057 0.7057 0.7085 -5.3278 16.5384)"/><rect x="13.5" y="9.22" width="2" height="16.76" class="st1 MsftOfcResponsive_Fill_7823dc" fill="#7823DC" transform="matrix(0.7077 -0.7065 0.7065 0.7077 -8.1957 15.3896)"/></g><g id="Layer_2"></g></svg>