<svg width="36.5" height="36.5" viewBox="0 0 36.5 36.5" xmlns="http://www.w3.org/2000/svg" xmlns:xlink="http://www.w3.org/1999/xlink" overflow="hidden"><defs></defs><g><g><g><g><g><defs><path d="M0 36.5 36.5 36.5 36.5 0 0 0 0 36.5Z" id="SVGID_1_" fill="#7823DC"/></defs><clipPath id="SVGID_2_"><use width="100%" height="100%" xlink:href="#SVGID_1_"></use></clipPath><g clip-path="url(#SVGID_2_)"><g><defs><path d="M0 36.5 36.5 36.5 36.5 0 0 0 0 36.5Z" id="SVGID_3_" fill="#7823DC"/></defs><clipPath id="SVGID_4_"><use width="100%" height="100%" xlink:href="#SVGID_3_"></use></clipPath><g clip-path="url(#SVGID_4_)"></g></g></g></g></g></g><rect x="17.1" y="-6.6" width="2.3" height="25.9" fill="#7823DC" transform="matrix(0.2207 -0.9753 0.9753 0.2207 8.0764 22.7467)"/></g><g><defs><path d="M0 36.5 36.5 36.5 36.5 0 0 0 0 36.5Z" id="SVGID_5_" fill="#7823DC"/></defs><clipPath id="SVGID_6_"><use width="100%" height="100%" xlink:href="#SVGID_5_"></use></clipPath><path d="M17.2 6.2 19.4 6.2 19.4 32 17.2 32 17.2 6.2Z" fill="#7823DC" clip-path="url(#SVGID_6_)"/><path d="M22.9 32 13.7 32 13.7 34.3 22.9 34.3 22.9 32 22.9 32 22.9 32Z" fill="#7823DC" clip-path="url(#SVGID_6_)"/><path d="M25.1 34.2 11.5 34.2 9.2 36.5 27.4 36.5 25.1 34.2 25.1 34.2 25.1 34.2Z" fill="#7823DC" clip-path="url(#SVGID_6_)"/><path d="M19.4 3.5C19.4 4.1 18.9 4.6 18.3 4.6 17.7 4.6 17.2 4.1 17.2 3.5 17.2 2.9 17.7 2.4 18.3 2.4 18.9 2.3 19.4 2.8 19.4 3.5L19.4 3.5Z" fill="#7823DC" clip-path="url(#SVGID_6_)"/><path d="M6.9 5.7C6.9 6.3 6.4 6.8 5.8 6.8 5.2 6.8 4.6 6.4 4.6 5.7 4.6 5.1 5.1 4.6 5.7 4.6 6.3 4.6 6.9 5.1 6.9 5.7L6.9 5.7Z" fill="#7823DC" clip-path="url(#SVGID_6_)"/><path d="M32 10.3C32 10.9 31.5 11.4 30.9 11.4 30.3 11.4 29.8 10.9 29.8 10.3 29.8 9.7 30.3 9.2 30.9 9.2 31.5 9.2 32 9.7 32 10.3L32 10.3Z" fill="#7823DC" clip-path="url(#SVGID_6_)"/><path d="M33.4 25.7C32.1 27.1 30 27.2 28.6 25.9 28.6 25.9 28.6 25.9 28.6 25.9 28.5 25.8 28.4 25.7 28.4 25.7L33.4 25.7M36.5 23.4 25.1 23.4C25.1 26.6 27.7 29.1 30.8 29.1 33.9 29.1 36.5 26.6 36.5 23.4L36.5 23.4Z" fill="#7823DC" clip-path="url(#SVGID_6_)"/><path d="M34.2 25 30.8 16.8 27.5 25 25.4 24.1 30.8 10.7 36.3 24.1Z" fill="#7823DC" clip-path="url(#SVGID_6_)"/><path d="M8.2 21.2C6.9 22.6 4.8 22.7 3.4 21.4 3.4 21.4 3.4 21.4 3.4 21.4 3.3 21.3 3.2 21.2 3.2 21.2L8.2 21.2M11.3 18.9 0 18.9C0 22.1 2.6 24.6 5.7 24.6 8.8 24.6 11.4 22 11.4 18.9L11.3 18.9Z" fill="#7823DC" clip-path="url(#SVGID_6_)"/><path d="M9 20.4 5.6 12.2 2.3 20.4 0.2 19.5 5.6 6.2 11.1 19.5Z" fill="#7823DC" clip-path="url(#SVGID_6_)"/></g></g></svg>