<svg viewBox="0 0 32 32" xmlns="http://www.w3.org/2000/svg" xmlns:xlink="http://www.w3.org/1999/xlink" id="Layer_1" xml:space="preserve" overflow="hidden"><style>
.MsftOfcResponsive_Fill_7823dc {
 fill:#7823DC; 
}
</style>
<g id="Layer_2_00000153672027410828584440000004318808627006363015_"></g><path d="M8.7 31.9C3.9 31.9 0 28 0 23.2 0 19.8 2 16.6 5.2 15.2L5.2 0 12.4 0 12.4 15.2C15.5 16.6 17.6 19.7 17.6 23.2 17.5 28 13.5 31.9 8.7 31.9ZM7.1 2 7.1 16.6 6.4 16.8C3.7 17.8 1.9 20.3 1.9 23.1 1.9 26.8 4.9 29.8 8.6 29.8 12.3 29.8 15.3 26.8 15.3 23.1 15.3 20.3 13.5 17.7 10.8 16.8L10.1 16.6 10.1 2 7.1 2Z" class="st0 MsftOfcResponsive_Fill_7823dc" fill="#7823DC"/><rect x="22" y="0" width="10" height="2" class="st0 MsftOfcResponsive_Fill_7823dc" fill="#7823DC"/><rect x="3.7" y="0" width="10" height="2" class="st0 MsftOfcResponsive_Fill_7823dc" fill="#7823DC"/><path d="M28.6 2 28.6 28.4C28.6 29.3 27.9 30 27 30 26.1 30 25.4 29.3 25.4 28.4L25.4 2 28.6 2M30.6 0 23.4 0 23.4 28.4C23.4 30.4 25 32 27 32 29 32 30.6 30.4 30.6 28.4L30.6 0 30.6 0Z" class="st0 MsftOfcResponsive_Fill_7823dc" fill="#7823DC"/><rect x="1.7" y="22" width="14" height="2" class="st0 MsftOfcResponsive_Fill_7823dc" fill="#7823DC"/><rect x="24" y="22" width="6" height="2" class="st0 MsftOfcResponsive_Fill_7823dc" fill="#7823DC"/></svg>