<svg viewBox="0 0 32 32" xmlns="http://www.w3.org/2000/svg" xmlns:xlink="http://www.w3.org/1999/xlink" id="Layer_2_00000144328325245699140920000014890284756443101063_" xml:space="preserve" overflow="hidden"><style>
.MsftOfcResponsive_Fill_7823dc {
 fill:#7823DC; 
}
</style>
<path d="M16 2C23.7 2 30 8.3 30 16 30 23.7 23.7 30 16 30 8.3 30 2 23.7 2 16 2 8.3 8.3 2 16 2M16 0C7.2 0 0 7.2 0 16 0 24.8 7.2 32 16 32 24.8 32 32 24.8 32 16 32 7.2 24.8 0 16 0L16 0Z" class="st0 MsftOfcResponsive_Fill_7823dc" fill="#7823DC"/><path d="M22.6 24.6 8.5 24.6 13.7 16 8.5 7.4 22.6 7.4 22.6 12.1 20.4 12.1 20.4 9.6 12.5 9.6 16.3 16 12.5 22.4 20.4 22.4 20.4 19.9 22.6 19.9Z" class="st0 MsftOfcResponsive_Fill_7823dc" fill="#7823DC"/></svg>