<svg viewBox="0 0 29.22 29.22" xmlns="http://www.w3.org/2000/svg" xmlns:xlink="http://www.w3.org/1999/xlink" id="Layer_5" overflow="hidden"><defs></defs><path d="M24.66 12.06 24.66 14.25 22.98 12.67 22.98 15.05 25.54 17.51 28.1 15.05 28.1 12.58 26.43 14.25 26.43 12.06" stroke-width="0" fill="#7823DC" fill-rule="evenodd"/><path d="M28.66 3.25 26.65 3.57C26.55 3.31 26.46 3.14 26.38 3.04 26.3 2.94 26.16 2.84 25.98 2.74L25.98 4.3C27.08 4.59 27.81 4.9 28.18 5.23 28.67 5.67 28.91 6.22 28.91 6.89 28.91 7.28 28.82 7.64 28.65 7.97 28.47 8.3 28.25 8.57 27.98 8.79 27.71 9.01 27.42 9.17 27.11 9.27 26.8 9.37 26.43 9.43 25.98 9.45L25.98 10.47 25.19 10.47 25.19 9.45C24.66 9.4 24.23 9.32 23.9 9.19 23.57 9.06 23.29 8.89 23.05 8.67 22.81 8.45 22.63 8.21 22.5 7.96 22.37 7.71 22.27 7.4 22.21 7.04L24.4 6.79C24.46 7.15 24.55 7.41 24.66 7.56 24.77 7.72 24.95 7.86 25.2 7.98L25.2 6.07C24.47 5.87 23.95 5.69 23.65 5.54 23.35 5.39 23.08 5.15 22.86 4.83 22.64 4.5 22.52 4.11 22.52 3.64 22.52 3 22.74 2.46 23.19 2.03 23.64 1.6 24.31 1.36 25.19 1.31L25.19 0.78 25.98 0.78 25.98 1.31C26.79 1.36 27.41 1.55 27.83 1.88 28.26 2.21 28.54 2.67 28.67 3.24ZM25.18 2.7C24.95 2.78 24.79 2.87 24.7 2.98 24.61 3.09 24.56 3.22 24.56 3.38 24.56 3.54 24.61 3.68 24.7 3.8 24.79 3.92 24.95 4.02 25.18 4.1L25.18 2.71ZM25.97 8.03C26.28 7.96 26.5 7.85 26.64 7.69 26.78 7.53 26.85 7.36 26.85 7.16 26.85 6.99 26.79 6.83 26.67 6.69 26.55 6.55 26.31 6.41 25.96 6.29L25.96 8.03Z" stroke-width="0" fill="#7823DC"/><path d="M23.47 18.17 19.96 12.66 19.92 12.6 6.21 12.6 2.3 18.96 1.83 18.96 1.83 12.45C1.83 9 4.63 6.27 7.99 6.27L8.74 6.27C8.79 8.31 10.44 9.94 12.49 9.94L16.08 9.94 16.08 8.99 19.75 8.99 19.75 7.15 16.08 7.15 16.08 3.54 19.75 3.54 19.75 1.7 16.08 1.7 16.08 0.75 12.49 0.75C10.44 0.75 8.79 2.38 8.74 4.42L7.99 4.42C3.6 4.44 0 8.05 0 12.46L0 19.2 0 19.2 0 23.78 2.93 26.72C3.1 28.17 4.27 29.21 5.73 29.21 6.9 29.21 7.91 28.54 8.35 27.48L19.32 27.48C19.75 28.53 20.77 29.21 21.94 29.21 23.11 29.21 24.12 28.54 24.56 27.48L29.22 27.48 29.22 19.99 23.47 18.16ZM10.58 4.53C10.58 3.49 11.46 2.61 12.5 2.61L14.26 2.61 14.26 8.12 12.5 8.12C11.46 8.12 10.58 7.24 10.58 6.2L10.58 4.52ZM14.73 14.67 18.88 14.67 21.64 18.97 14.73 18.97 14.73 14.67ZM5.74 27.15C5.27 27.15 4.96 26.84 4.96 26.36 4.96 25.88 5.27 25.57 5.74 25.57 6.21 25.57 6.52 25.88 6.52 26.36 6.52 26.84 6.21 27.15 5.74 27.15ZM12.67 25.42 8.37 25.42C7.94 24.26 6.92 23.51 5.74 23.51 4.49 23.51 3.45 24.26 3.06 25.42L2.06 25.42 2.06 21.03 12.67 21.03 12.67 25.42ZM12.67 18.97 4.71 18.97 7.25 14.67 12.67 14.67 12.67 18.97ZM21.94 27.15C21.47 27.15 21.16 26.84 21.16 26.36 21.16 25.88 21.57 25.57 21.94 25.57 22.41 25.57 22.72 25.88 22.72 26.36 22.72 26.84 22.41 27.15 21.94 27.15ZM27.16 21.79 25.35 21.79 25.35 23.86 27.16 23.86 27.16 25.43 24.62 25.43C24.23 24.27 23.19 23.52 21.94 23.52 20.69 23.52 19.65 24.27 19.26 25.43L14.73 25.43 14.73 21.04 25.69 21.04C25.69 21.04 27.15 21.46 27.15 21.46L27.15 21.79Z" stroke-width="0" fill="#7823DC" fill-rule="evenodd"/></svg>