<svg viewBox="0 0 32 32" xmlns="http://www.w3.org/2000/svg" xmlns:xlink="http://www.w3.org/1999/xlink" id="Layer_1" xml:space="preserve" overflow="hidden"><g><path d="M0.1 17.1 0.1 15.1 11.4 10.4 11.4 12.4 2.4 16.1 11.4 19.8 11.4 21.9 0.1 17.1 0.1 17.1Z" fill="#7823DC" fill-rule="evenodd" clip-rule="evenodd"/><path d="M11.5 22.1 0 17.2 0 15 0.1 15 11.6 10.1 11.6 12.5 11.5 12.5 2.9 16.1 11.6 19.7 11.6 22.1ZM0.2 17 11.2 21.7 11.2 19.9 2 16.1 11.2 12.3 11.2 10.5 0.2 15.2 0.2 17Z" fill="#7823DC"/><g><path d="M12.7 24.8 17.7 7.2 19.4 7.2 14.4 24.8 12.7 24.8 12.7 24.8Z" fill="#7823DC" fill-rule="evenodd" clip-rule="evenodd"/><path d="M14.5 25 12.5 25 12.5 24.8 17.5 7 19.5 7 19.5 7.2 14.5 25ZM12.9 24.7 14.3 24.7 19.2 7.3 17.8 7.3 12.9 24.7Z" fill="#7823DC"/><g><path d="M31.9 17.1 20.6 21.9 20.6 19.8 29.5 16.1 20.6 12.4 20.6 10.4 31.9 15.1 31.9 17.1 31.9 17.1Z" fill="#7823DC" fill-rule="evenodd" clip-rule="evenodd"/><path d="M20.5 22.1 20.5 19.7 20.6 19.7 29.2 16.1 20.5 12.5 20.5 10.1 20.7 10.2 32 15 32 17.1 31.9 17.1 20.5 22.1ZM20.7 19.9 20.7 21.7 31.7 17 31.7 15.2 20.7 10.5 20.7 12.3 29.9 16.1 20.7 19.9Z" fill="#7823DC"/></g></g></g></svg>