<svg viewBox="0 0 31.94 32.09" xmlns="http://www.w3.org/2000/svg" xmlns:xlink="http://www.w3.org/1999/xlink" id="Outline_Final_icon" overflow="hidden"><defs></defs><path d="M24.72 9.15C26.21 9.15 27.41 7.94 27.41 6.46 27.41 4.98 26.2 3.77 24.72 3.77 23.24 3.77 22.02 4.98 22.02 6.46 22.02 7.94 23.23 9.15 24.72 9.15ZM24.72 5.76C25.1 5.76 25.41 6.07 25.41 6.45 25.41 6.83 25.1 7.14 24.72 7.14 24.34 7.14 24.02 6.83 24.02 6.45 24.02 6.07 24.33 5.76 24.72 5.76Z" fill="#7823DC"/><path d="M25.3 30.09 2 30.09 2 20.79 7.04 20.79 7.04 18.79 0 18.79 0 32.09 27.3 32.09 27.3 22.02 25.3 22.02 25.3 30.09Z" fill="#7823DC"/><rect x="3.91" y="22.86" width="7.34" height="2" fill="#7823DC"/><rect x="21.64" y="22.02" width="2" height="6.53" fill="#7823DC"/><rect x="3.91" y="26.21" width="8.89" height="2" fill="#7823DC"/><path d="M4.07 16.73C4.07 16.73 2.93 14.71 3.55 12.94 3.75 12.38 4.12 11.89 4.65 11.47L4.34 12.97 6.3 13.38 7.18 9.12 7.27 8.78 7.25 8.78C7.25 8.78 7.26 8.71 7.26 8.71L6.01 8.45 2.48 7.51 1.97 9.44 3.47 9.84C2.6 10.51 1.99 11.34 1.66 12.31 0.75 14.96 2.28 17.64 2.35 17.75L4.08 16.75Z" fill="#7823DC"/><path d="M16.2 28.55 16.54 27.51 18.74 27.51 19.03 28.55 20.92 28.55 19.1 22.02 16.37 22.02 16.41 22.04 14.29 28.56 16.2 28.56ZM17.71 23.86 18.13 25.37 17.22 25.37 17.71 23.86Z" fill="#7823DC"/><path d="M28.19 0 8.55 0 8.55 20.93 31.94 20.93 31.94 3.75 28.19 0ZM19.54 18.93 10.54 18.93 10.54 15.76 16.72 10.99 22.2 16.07 19.53 18.93ZM29.94 18.93 22.28 18.93 26.54 14.37 29.94 16.84 29.94 18.94ZM29.94 14.36 26.29 11.71 23.58 14.61 16.85 8.38 10.55 13.24 10.55 2 29.94 2 29.94 14.36Z" fill="#7823DC"/></svg>