<svg viewBox="0 0 32 32" xmlns="http://www.w3.org/2000/svg" xmlns:xlink="http://www.w3.org/1999/xlink" id="Graphic" xml:space="preserve" overflow="hidden"><style>
.MsftOfcResponsive_Fill_7823dc {
 fill:#7823DC; 
}
</style>
<path d="M29.3 18 20.7 20.8 20.7 19.6 20.7 17.3 18.5 17.6 15.3 18 10.4 16 9.5 15.7 8.7 16.2 5.5 18 2.3 18 0.3 18 0.3 20 0.3 26 0.3 28 2.3 28 5.5 28 15.3 32 30.8 23.7 31.8 23.2 31.8 22 31.8 20 31.8 17.2 29.3 18 29.3 18 29.3 18 29.3 18 29.3 18ZM29.8 22 15 29.8 5.9 26 2.3 26 2.3 20 6 20 9.7 18 15.1 20 18.8 19.5 18.8 21.5 17.8 22 14.1 22.8 14.1 24.5 18 23.8 18 23.8 29.8 20 29.8 22 29.8 22 29.8 22 29.8 22 29.8 22Z" class="MsftOfcResponsive_Fill_7823dc" fill="#7823DC" fill-rule="evenodd" clip-rule="evenodd"/><g><path d="M19.2 12 17.2 12 14.8 3 14.2 3 11.9 12 9.8 12 12.8 1 16.2 1Z" class="MsftOfcResponsive_Fill_7823dc" fill="#7823DC"/><rect x="11.2" y="7" width="6" height="2" class="MsftOfcResponsive_Fill_7823dc" fill="#7823DC"/><rect x="20.2" y="1" width="2" height="11" class="MsftOfcResponsive_Fill_7823dc" fill="#7823DC"/></g></svg>