<svg viewBox="0 0 32 32" xmlns="http://www.w3.org/2000/svg" xmlns:xlink="http://www.w3.org/1999/xlink" id="Layer_1" overflow="hidden"><style>
.MsftOfcResponsive_Fill_7823dc {
 fill:#7823DC; 
}
</style>
<defs></defs><path d="M23 4C20.24 4 18 6.24 18 9 18 11.76 20.24 14 23 14 25.76 14 28 11.76 28 9 28 6.24 25.75 4 23 4ZM23 12C21.34 12 20 10.65 20 9 20 7.35 21.34 6 23 6 24.66 6 26 7.35 26 9 26 10.65 24.66 12 23 12Z" class="MsftOfcResponsive_Fill_7823dc" fill="#7823DC"/><path d="M24 0.06 24 0 9 0C4.04 0 0 4.03 0 9 0 13.43 3.22 17.12 7.45 17.85L6.06 20.63C4.69 23.36 4.69 26.63 6.06 29.36L7.38 32 23.62 32 21.86 28.47C20.78 26.3 20.78 23.71 21.86 21.53L23.63 18 24.01 18 24.01 17.94C28.5 17.44 32.01 13.62 32.01 9 32.01 4.38 28.5 0.56 24 0.06ZM2 9C2 5.14 5.14 2 9 2L17.35 2C15.31 3.65 14 6.18 14 9 14 11.82 15.31 14.35 17.35 16L9 16C5.14 16 2 12.86 2 9ZM20.07 20.64C18.71 23.37 18.71 26.64 20.07 29.37L20.38 30.01 8.62 30.01 7.86 28.48C6.77 26.31 6.77 23.72 7.86 21.54L9.62 18.01 21.39 18.01 20.07 20.65ZM23 16C19.14 16 16 12.86 16 9 16 5.14 19.14 2 23 2 26.86 2 30 5.14 30 9 30 12.86 26.86 16 23 16Z" class="MsftOfcResponsive_Fill_7823dc" fill="#7823DC"/></svg>