<svg viewBox="0 0 32.07 31.92" xmlns="http://www.w3.org/2000/svg" xmlns:xlink="http://www.w3.org/1999/xlink" id="Outline_Final_icon" overflow="hidden"><defs></defs><g><rect x="18.31" y="12.19" width="2" height="7.53" fill="#7823DC"/><path d="M15.53 12.19 12.37 12.19 10.36 19.72 12.43 19.72 12.83 18.2 15.05 18.2 15.45 19.72 17.52 19.72 15.54 12.19ZM13.37 16.21 13.91 14.2 14 14.2 14.53 16.21 13.37 16.21Z" fill="#7823DC"/></g><path d="M32.03 19.27C31.92 18.45 31.47 17.07 29.84 15.9 31.34 14.75 31.77 13.43 31.87 12.64 32.07 11.06 31.39 9.38 30.12 8.36 29.6 7.94 29.02 7.65 28.41 7.47 28.58 6.77 28.55 6.03 28.31 5.33 27.97 4.35 27.28 3.57 26.35 3.12 25.61 2.76 24.81 2.66 24.05 2.79 23.63 1.2 22.18 0.01 20.46 0.01 18.42 0.01 16.76 1.66 16.74 3.69L16.74 3.69 16.74 10.3 18.74 10.3 18.74 3.73C18.74 2.78 19.52 2 20.47 2 21.42 2 22.14 2.72 22.19 3.63 22.09 3.72 21.99 3.82 21.9 3.92 21.89 3.92 21.88 3.92 21.87 3.92 21 3.92 20.3 4.63 20.3 5.49 20.3 6.35 21.01 7.06 21.87 7.06 22.73 7.06 23.44 6.35 23.44 5.49 23.44 5.4 23.43 5.31 23.41 5.22 23.96 4.72 24.77 4.57 25.48 4.91 25.93 5.13 26.26 5.51 26.42 5.98 26.57 6.41 26.55 6.87 26.38 7.28 25.33 7.4 24.32 7.86 23.51 8.62 22.65 8.62 21.95 9.33 21.95 10.19 21.95 11.05 22.66 11.76 23.52 11.76 24.38 11.76 25.09 11.05 25.09 10.19 25.09 10.09 25.08 9.99 25.06 9.9 26.15 9.05 27.73 9.01 28.86 9.92 29.46 10.41 30.01 11.36 29.88 12.38 29.77 13.21 29.24 13.94 28.32 14.53 27.98 14.13 27.47 13.87 26.9 13.87 25.86 13.87 25.02 14.71 25.02 15.75 25.02 16.79 25.86 17.63 26.9 17.63 27.36 17.63 27.79 17.45 28.11 17.17 29.25 17.8 29.91 18.61 30.03 19.53 30.16 20.56 29.61 21.51 29.01 21.99 27.88 22.9 26.3 22.87 25.21 22.01 25.23 21.92 25.24 21.82 25.24 21.72 25.24 20.85 24.53 20.15 23.67 20.15 22.81 20.15 22.1 20.86 22.1 21.72 22.1 22.58 22.79 23.27 23.63 23.29 24.44 24.06 25.46 24.51 26.52 24.63 26.69 25.05 26.71 25.5 26.56 25.93 26.4 26.4 26.06 26.78 25.62 27 25.17 27.22 24.67 27.25 24.2 27.09 23.95 27.01 23.74 26.87 23.55 26.7 23.57 26.61 23.58 26.52 23.58 26.42 23.58 25.55 22.87 24.85 22.01 24.85 21.15 24.85 20.44 25.56 20.44 26.42 20.44 27.28 21.15 27.99 22.01 27.99 22.01 27.99 22.03 27.99 22.04 27.99 22.14 28.09 22.23 28.19 22.33 28.28 22.28 29.19 21.53 29.91 20.61 29.91 19.69 29.91 18.88 29.13 18.88 28.18L18.88 21.83 16.88 21.83 16.88 28.23 16.88 28.23C16.91 30.26 18.57 31.91 20.6 31.91 22.32 31.91 23.76 30.73 24.19 29.14 24.39 29.17 24.6 29.19 24.8 29.19 25.38 29.19 25.95 29.06 26.49 28.8 27.42 28.35 28.11 27.56 28.45 26.59 28.69 25.89 28.72 25.15 28.55 24.44 29.15 24.26 29.74 23.97 30.26 23.55 31.53 22.53 32.21 20.85 32.01 19.27Z" fill="#7823DC"/><path d="M13.32 28.18C13.32 29.13 12.54 29.91 11.59 29.91 10.64 29.91 9.92 29.19 9.87 28.28 9.98 28.19 10.07 28.09 10.16 27.99 10.16 27.99 10.18 27.99 10.19 27.99 11.06 27.99 11.76 27.28 11.76 26.42 11.76 25.56 11.05 24.85 10.19 24.85 9.33 24.85 8.62 25.56 8.62 26.42 8.62 26.51 8.63 26.61 8.65 26.7 8.46 26.87 8.24 27.01 8 27.09 7.53 27.25 7.03 27.22 6.58 27 6.13 26.78 5.8 26.4 5.64 25.93 5.49 25.5 5.51 25.04 5.68 24.63 6.74 24.51 7.76 24.06 8.57 23.29 9.42 23.27 10.1 22.58 10.1 21.72 10.1 20.86 9.39 20.15 8.53 20.15 7.67 20.15 6.96 20.86 6.96 21.72 6.96 21.82 6.97 21.92 6.99 22.01 5.89 22.87 4.32 22.9 3.19 21.99 2.59 21.5 2.04 20.55 2.17 19.53 2.28 18.7 2.81 17.97 3.73 17.38 4.07 17.78 4.58 18.04 5.15 18.04 6.18 18.04 7.03 17.2 7.03 16.16 7.03 15.12 6.19 14.28 5.15 14.28 4.69 14.28 4.26 14.46 3.94 14.74 2.8 14.11 2.15 13.3 2.02 12.38 1.89 11.35 2.44 10.4 3.04 9.92 4.17 9.01 5.74 9.04 6.84 9.9 6.82 9.99 6.81 10.09 6.81 10.19 6.81 11.06 7.52 11.76 8.38 11.76 9.24 11.76 9.95 11.05 9.95 10.19 9.95 9.33 9.25 8.62 8.39 8.62 7.58 7.86 6.57 7.4 5.52 7.28 5.35 6.86 5.33 6.41 5.48 5.98 5.64 5.51 5.98 5.13 6.42 4.91 7.13 4.56 7.94 4.71 8.49 5.21 8.47 5.3 8.46 5.39 8.46 5.48 8.46 6.35 9.17 7.05 10.03 7.05 10.89 7.05 11.6 6.34 11.6 5.48 11.6 4.62 10.89 3.91 10.03 3.91 10.02 3.91 10.01 3.91 10 3.91 9.9 3.81 9.81 3.71 9.71 3.62 9.76 2.71 10.51 1.99 11.43 1.99 12.35 1.99 13.16 2.77 13.16 3.72L13.16 10.28 15.16 10.28 15.16 3.68 15.16 3.68C15.13 1.65 13.47 0 11.43 0 9.7 0 8.26 1.18 7.84 2.78 7.08 2.66 6.28 2.75 5.54 3.11 4.61 3.56 3.92 4.35 3.58 5.32 3.34 6.02 3.31 6.76 3.48 7.46 2.88 7.64 2.3 7.93 1.78 8.35 0.52 9.38-0.17 11.06 0.04 12.64 0.15 13.46 0.6 14.84 2.23 16.01 0.73 17.16 0.3 18.48 0.2 19.27 1.66533e-16 20.85 0.68 22.53 1.95 23.55 2.47 23.97 3.05 24.26 3.66 24.44 3.49 25.15 3.52 25.88 3.76 26.59 4.1 27.57 4.79 28.35 5.72 28.8 6.26 29.06 6.83 29.19 7.41 29.19 7.61 29.19 7.82 29.17 8.02 29.14 8.45 30.73 9.89 31.91 11.61 31.91 13.65 31.91 15.31 30.26 15.33 28.23L15.33 28.23 15.33 21.83 13.33 21.83 13.33 28.18Z" fill="#7823DC"/></svg>