<svg viewBox="0 0 32 32" xmlns="http://www.w3.org/2000/svg" xmlns:xlink="http://www.w3.org/1999/xlink" id="Graphic" overflow="hidden"><defs></defs><path d="M23.13 2C23.6177 1.99997 24.0145 2.39238 24.02 2.88L24.02 29.12C24.0145 29.6076 23.6177 30 23.13 30L8.9 30C8.41411 30.011 8.01127 29.6261 8.00023 29.1402 8.00007 29.1335 8 29.1267 8 29.12L8 2.88C7.99987 2.39399 8.39376 1.9999 8.87977 1.99977 8.88652 1.99977 8.89326 1.99985 8.9 2L23.13 2M23.13 0 8.9 0C7.30946-0.0110457 6.01111 1.26939 6.00007 2.85993 6.00002 2.86662 6 2.87331 6 2.88L6 29.12C5.99996 30.7106 7.28935 32 8.87993 32.0001 8.88662 32.0001 8.89331 32 8.9 32L23.13 32C24.7144 31.989 25.9946 30.7044 26 29.12L26 2.88C25.9946 1.29558 24.7144 0.0109557 23.13 1.14441e-07Z" fill="#7823DC"/><path d="M15 4 13 4C12.4477 4 12 4.44772 12 5 12 5.55228 12.4477 6 13 6L15 6C15.5523 6 16 5.55228 16 5 16 4.44772 15.5523 4 15 4Z" fill="#7823DC"/><path d="M19 4C18.4477 4 18 4.44772 18 5 18 5.55228 18.4477 6 19 6 19.5523 6 20 5.55228 20 5 20 4.44772 19.5523 4 19 4Z" fill="#7823DC"/><path d="M16 25C16.5523 25 17 25.4477 17 26 17 26.5523 16.5523 27 16 27 15.4477 27 15 26.5523 15 26 15 25.4477 15.4477 25 16 25M16 23C14.3431 23 13 24.3431 13 26 13 27.6569 14.3431 29 16 29 17.6569 29 19 27.6569 19 26 19 24.3431 17.6569 23 16 23Z" fill="#7823DC"/></svg>