<svg viewBox="0 0 32 32" xmlns="http://www.w3.org/2000/svg" xmlns:xlink="http://www.w3.org/1999/xlink" id="Layer_1" overflow="hidden"><g><path d="M2.7 11.8 4.5 17 5.5 19.5 7.5 18.1 7.7 17.8 8.4 19.6 8.7 19.9 9.2 20 12.2 22 12.4 24.5 12.6 25 12.9 25.3 13.8 27.1 11.1 29.1 10 27.5 9.8 27.2 9.5 27 3.8 23.5 2.2 12.3 2.7 11.8 2.7 11.8 2.7 11.8ZM3.7 8.6 0 11.2 2 24.7 8.4 28.7 10.7 31.9 16.5 27.2 14.4 24.2 13.9 21 10.2 18.4 8.2 15 6.4 16.2 3.7 8.6 3.7 8.6 3.7 8.6 3.7 8.6Z" fill="#7823DC" fill-rule="evenodd" clip-rule="evenodd"/><path d="M2.7 11.8 4.5 17 5.5 19.5 7.5 18.1 7.7 17.8 8.4 19.6 8.7 19.9 9.2 20 12.2 22 12.4 24.5 12.6 25 12.9 25.3 13.8 27.1 11.1 29.1 10 27.5 9.8 27.2 9.5 27 3.8 23.5 2.2 12.3 2.7 11.8M3.7 8.6 0 11.2 2 24.7 8.4 28.7 10.7 31.9 16.5 27.2 14.4 24.2 13.9 21 10.2 18.4 8.2 15 6.4 16.2 3.7 8.6 3.7 8.6" fill="#7823DC" fill-rule="evenodd" clip-rule="evenodd"/><path d="M7.5 22.8 5.2 19.3 5 18 6.9 17.5 7.1 18.5 8.9 21.8 7.5 22.8 7.5 22.8Z" fill="#7823DC" fill-rule="evenodd" clip-rule="evenodd"/><path d="M29.5 11.8 29.7 12.3 28.2 23.5 22.4 27 22.2 27.2 21.9 27.5 20.7 29 18.2 27 19.2 25.2 19.4 24.9 19.4 24.4 19.7 21.9 22.7 19.9 23.2 19.7 23.4 19.4 24.1 17.6 24.4 17.9 26.6 19.3 27.3 16.8 29.5 11.8 29.5 11.8 29.5 11.8ZM28.5 8.6 25.8 16.3 23.7 15.1 21.7 18.5 18 21 17.5 24.2 15.5 27.2 21.2 31.9 23.5 28.7 30 24.7 32 11.2 28.5 8.6 28.5 8.6 28.5 8.6 28.5 8.6Z" fill="#7823DC" fill-rule="evenodd" clip-rule="evenodd"/><path d="M29.5 11.8 29.7 12.3 28.2 23.5 22.4 27 22.2 27.2 21.9 27.5 20.7 29 18.2 27 19.2 25.2 19.4 24.9 19.4 24.4 19.7 21.9 22.7 19.9 23.2 19.7 23.4 19.4 24.1 17.6 24.4 17.9 26.6 19.3 27.3 16.8 29.5 11.8M28.5 8.6 25.8 16.3 23.7 15.1 21.7 18.5 18 21 17.5 24.2 15.5 27.2 21.2 31.9 23.5 28.7 30 24.7 32 11.2 28.5 8.6 28.5 8.6" fill="#7823DC" fill-rule="evenodd" clip-rule="evenodd"/><path d="M24.7 22.8 23 21.8 24.9 18.5 25.3 17.5 27 18 26.7 19.3 24.7 22.8 24.7 22.8Z" fill="#7823DC" fill-rule="evenodd" clip-rule="evenodd"/><g><defs><path d="M0 0.1 0 32 0 32 32 32 32 0.1" id="SVGID_1_" fill="#7823DC"/></defs><clipPath id="SVGID_00000127019143656364056830000007803677323385880752_"><use width="100%" height="100%" xlink:href="#SVGID_1_" overflow="visible"></use></clipPath><g clip-path="url(#SVGID_00000127019143656364056830000007803677323385880752_)"><defs><path d="M0 0.1 0 32 0 32 32 32 32 0.1" id="SVGID_00000142174777682771401980000015715444295107156888_" fill="#7823DC"/></defs><clipPath id="SVGID_00000026842448744228364780000004277007278889697956_"><use width="100%" height="100%" xlink:href="#SVGID_00000142174777682771401980000015715444295107156888_" overflow="visible"></use></clipPath><g clip-path="url(#SVGID_00000026842448744228364780000004277007278889697956_)"><defs><path d="M0 0.1 0 32 0 32 32 32 32 0.1" id="SVGID_00000149365359728930269770000012070566397028202152_" fill="#7823DC"/></defs><clipPath id="SVGID_00000016074571005772717020000017564307447113593268_"><use width="100%" height="100%" xlink:href="#SVGID_00000149365359728930269770000012070566397028202152_" overflow="visible"></use></clipPath><g clip-path="url(#SVGID_00000016074571005772717020000017564307447113593268_)"><defs><path d="M0 0.1 0 32 0 32 32 32 32 0.1" id="SVGID_00000085973621657166721800000008155318249866502574_" fill="#7823DC"/></defs><clipPath id="SVGID_00000058589957265915583750000017666150782637490053_"><use width="100%" height="100%" xlink:href="#SVGID_00000085973621657166721800000008155318249866502574_" overflow="visible"></use></clipPath><g clip-path="url(#SVGID_00000058589957265915583750000017666150782637490053_)"><defs><path d="M0 0.1 0 32 0 32 32 32 32 0.1" id="SVGID_00000113334081083576661960000011212684697527313062_" fill="#7823DC"/></defs><clipPath id="SVGID_00000043425149208763796620000012226575836813236401_"><use width="100%" height="100%" xlink:href="#SVGID_00000113334081083576661960000011212684697527313062_" overflow="visible"></use></clipPath><g clip-path="url(#SVGID_00000043425149208763796620000012226575836813236401_)"><defs><path d="M0 0.1 0 32 0 32 32 32 32 0.1" id="SVGID_00000071554665458226847450000006041987362631962298_" fill="#7823DC"/></defs><clipPath id="SVGID_00000108292898511576968780000006058861605746825885_"><use width="100%" height="100%" xlink:href="#SVGID_00000071554665458226847450000006041987362631962298_" overflow="visible"></use></clipPath></g></g></g></g></g></g></g><path d="M13.7 15 20.4 8.4 19.7 6.9 14.9 6.9 18 3.8 18 1 11.6 7.3 12.3 8.8 17.1 8.8 13.7 12.2 13.7 15 13.7 15 13.7 15 13.7 15Z" fill="#7823DC" fill-rule="evenodd" clip-rule="evenodd"/></svg>