<svg viewBox="0 0 32 32" xmlns="http://www.w3.org/2000/svg" xmlns:xlink="http://www.w3.org/1999/xlink" id="Layer_3" overflow="hidden"><defs></defs><g><path d="M0.01577 27.9745 9.13248 27.9745 12.5675 31.5892 14.8541 27.9745 19.9867 27.9745 19.9867 15.992 0.01577 15.992 0.01577 27.9745ZM2.01286 17.989 17.9896 17.989 17.9896 25.9774 13.7557 25.9774 12.2479 28.3539 9.98124 25.9774 2.01286 25.9774 2.01286 17.989Z" fill="#7823DC"/><path d="M9.00267 20.9847 10.9998 20.9847 10.9998 25.1885 9.00267 25.1885 9.00267 20.9847Z" fill="#7823DC"/><path d="M10.9998 19.6466C10.9998 20.1982 10.5528 20.6452 10.0012 20.6452 9.44963 20.6452 9.00268 20.1982 9.00268 19.6466 9.00268 19.095 9.44963 18.6481 10.0012 18.6481 10.5528 18.6481 10.9998 19.095 10.9998 19.6466Z" fill="#7823DC"/><path d="M22.0099 28.0071 24.007 28.0071 24.007 31.9904 22.0099 31.9904 22.0099 28.0071Z" fill="#7823DC"/><path d="M11.9826 3.98325 13.9797 3.98325 13.9797 5.9839 11.9826 5.9839 11.9826 3.98325Z" fill="#7823DC"/><path d="M11.9826 8.0065 13.9797 8.0065 13.9797 10.0071 11.9826 10.0071 11.9826 8.0065Z" fill="#7823DC"/><path d="M11.9826 11.9832 13.9797 11.9832 13.9797 13.9839 11.9826 13.9839 11.9826 11.9832Z" fill="#7823DC"/><path d="M3.95936 9.95999 5.95645 9.95999 5.95645 11.9606 3.95936 11.9606 3.95936 9.95999Z" fill="#7823DC"/><path d="M21.9942 20.0065 23.9913 20.0065 23.9913 22.0071 21.9942 22.0071 21.9942 20.0065Z" fill="#7823DC"/><path d="M21.9942 24.0065 23.9913 24.0065 23.9913 26.0071 21.9942 26.0071 21.9942 24.0065Z" fill="#7823DC"/><path d="M21.9942 16.0065 23.9913 16.0065 23.9913 18.0071 21.9942 18.0071 21.9942 16.0065Z" fill="#7823DC"/><path d="M26.0099 28.0071 28.007 28.0071 28.007 31.9904 26.0099 31.9904 26.0099 28.0071Z" fill="#7823DC"/><path d="M25.9942 20.0065 27.9913 20.0065 27.9913 22.0071 25.9942 22.0071 25.9942 20.0065Z" fill="#7823DC"/><path d="M25.9942 24.0065 27.9913 24.0065 27.9913 26.0071 25.9942 26.0071 25.9942 24.0065Z" fill="#7823DC"/><path d="M25.9942 16.0065 27.9913 16.0065 27.9913 18.0071 25.9942 18.0071 25.9942 16.0065Z" fill="#7823DC"/></g><g><path d="M18.0311 11.9978 18.0291 11.9978 18.0291 0.0152 8.02197 0.0152 8.02197 6.06641 0.05359 6.06641 0.05359 13.9949 2.05066 13.9949 2.05066 8.06348 8.02197 8.06348 8.02197 13.9949 10.019 13.9949 10.019 2.01233 16.032 2.01233 16.032 13.9949 18.0291 13.9949 18.0311 13.9949 18.0311 11.9978Z" fill="#7823DC"/><path d="M17.9371 12.0071 17.9371 13.9954 30.001 13.9954 30.001 31.997 31.9981 31.997 31.9981 12.0071 17.9371 12.0071Z" fill="#7823DC"/></g><text fill="#7823DC" font-family="Graphik-Bold,Graphik" font-weight="700" font-size="13.7032" transform="translate(19.7301 9.96777)"><tspan x="0" y="0">%</tspan></text></svg>