<svg viewBox="0 0 32 32" xmlns="http://www.w3.org/2000/svg" xmlns:xlink="http://www.w3.org/1999/xlink" id="Layer_1" xml:space="preserve" overflow="hidden"><path d="M24.7 11.9 24.6 4.4 17.4 0 10.5 4.4 10.5 12 17.7 16.3 24.7 11.9 24.7 11.9 24.7 11.9ZM22.7 10.8 18.7 13.3 18.7 8.9 22.6 6.6 22.7 10.8 22.7 10.8 22.7 10.8ZM16.7 13.4 12.6 10.9 12.6 6.6 16.7 9 16.7 13.4 16.7 13.4 16.7 13.4ZM13.5 4.9 17.4 2.4 21.5 4.9 17.6 7.2 13.5 4.9 13.5 4.9 13.5 4.9Z" fill="#7823DC" fill-rule="evenodd" clip-rule="evenodd"/><path d="M4.9 17.3 0 23.2 2.8 31.1 10.9 32 15.8 26.4 12.9 18.6 4.9 17.3 4.9 17.3 4.9 17.3ZM2.3 23.6 5 20.4 6.7 24.8 3.9 28.2 2.3 23.6 2.3 23.6 2.3 23.6ZM10 29.9 5.5 29.4 8.3 26 12.8 26.7 10 29.9 10 29.9 10 29.9ZM8.5 24 6.8 19.7 11.2 20.4 12.8 24.7 8.5 24 8.5 24 8.5 24Z" fill="#7823DC" fill-rule="evenodd" clip-rule="evenodd"/><path d="M32 25.4 32 22.5 30.2 20.6 22.4 22.5 20 30.3 21.7 32 24.6 32 23 30.4 27.4 29.4 29.9 32 32 32 32 31.1 32 31.3 29 28.1 30.4 23.6 32 25.4ZM27 27.4 22.7 28.4 24 24 28.4 23 27 27.4Z" fill="#7823DC" fill-rule="evenodd" clip-rule="evenodd"/></svg>