<svg viewBox="0 0 32 32.01" xmlns="http://www.w3.org/2000/svg" xmlns:xlink="http://www.w3.org/1999/xlink" id="Layer_1" overflow="hidden"><style>
.MsftOfcResponsive_Fill_7823dc {
 fill:#7823DC; 
}
</style>
<defs></defs><path d="M32 3.98 28.02 0 0 0 0 20.01 7.92 20.01 9 23.32 9 32.01 11 32.01 11 30.01 13 30.01 13 32.01 15 32.01 15 30.01 17 30.01 17 32.01 19 32.01 19 30.01 21.01 30.01 21.01 32.01C21.01 32.01 23 32.01 23 32.01L23 23.32 24.08 20.01 32 20.01 32 3.98ZM17 24.01 15 24.01 15 22.01 17 22.01 17 24.01ZM14.72 20.01 13.39 16.06 18.61 16.06 17.28 20.01 14.72 20.01ZM20.72 16.06 23.27 16.06 21.98 20.01 19.39 20.01 20.72 16.06ZM6 14.06 6 12.06 26 12.06 26 14.06 6 14.06ZM8.72 16.06 11.28 16.06 12.61 20.01 9.99 20.01 8.72 16.06ZM10.63 22.01 13 22.01 13 24.01 11 24.01 11 23.16 10.63 22.01ZM11 28.01 11 26.01 13 26.01 13 28.01 11 28.01ZM15 28.01 15 26.01 17 26.01 17 28.01 15 28.01ZM21.02 28.01 19 28.01 19 26.01 21.03 26.01 21.03 28.01ZM19 24.01 19 22.01 21.32 22.01 21.05 22.85 21.05 24.01 19 24.01ZM30 18.01 24.74 18.01 25.38 16.06 28.01 16.06 28.01 10.06 4 10.06 4 16.06 6.63 16.06 7.27 18.01 2 18.01 2 2 30 2 30 18.01Z" class="MsftOfcResponsive_Fill_7823dc" fill="#7823DC"/></svg>