<svg viewBox="0 0 32 32" xmlns="http://www.w3.org/2000/svg" xmlns:xlink="http://www.w3.org/1999/xlink" xml:space="preserve" overflow="hidden"><style>
.MsftOfcResponsive_Fill_7823dc {
 fill:#7823DC; 
}
</style>
<g id="Layer_3"></g><g id="Layer_1"></g><g id="Layer_2"><path d="M27.49 22.9 4.65 22.9 4.65 4.6 27.49 4.6 27.49 22.9ZM6.94 20.62 25.2 20.62 25.2 6.88 6.94 6.88 6.94 20.62Z" class="MsftOfcResponsive_Fill_7823dc" fill="#7823DC"/><rect x="6.91" y="25.15" width="2.29" height="2.29" class="MsftOfcResponsive_Fill_7823dc" fill="#7823DC"/><rect x="14.93" y="25.15" width="2.29" height="2.29" class="MsftOfcResponsive_Fill_7823dc" fill="#7823DC"/><rect x="22.92" y="25.15" width="2.29" height="2.29" class="MsftOfcResponsive_Fill_7823dc" fill="#7823DC"/><path d="M32 32 32 4.66 29.71 2.32 29.71 29.71 2.29 29.71 2.29 2.29 29.68 2.29 27.45 0 0 0 0 32Z" class="MsftOfcResponsive_Fill_7823dc" fill="#7823DC"/><g><path d="M10.43 11.61C10.43 11.09 10.61 10.64 10.98 10.28 11.35 9.91 11.79 9.73 12.31 9.73 12.83 9.73 13.27 9.91 13.64 10.28 14.01 10.65 14.19 11.09 14.19 11.61 14.19 12.13 14.01 12.57 13.64 12.94 13.27 13.31 12.83 13.49 12.31 13.49 11.79 13.49 11.35 13.31 10.98 12.94 10.61 12.57 10.43 12.12 10.43 11.61ZM11.41 11.61C11.41 11.86 11.5 12.07 11.68 12.25 11.86 12.43 12.07 12.52 12.32 12.52 12.57 12.52 12.78 12.43 12.96 12.25 13.14 12.07 13.23 11.86 13.23 11.61 13.23 11.36 13.14 11.15 12.96 10.97 12.78 10.79 12.57 10.7 12.32 10.7 12.07 10.7 11.86 10.79 11.68 10.97 11.5 11.15 11.41 11.36 11.41 11.61Z" class="MsftOfcResponsive_Fill_7823dc" stroke-width="0.25" stroke-miterlimit="10" fill="#7823DC"/><path d="M15.64 18.52 15.64 9.87 21.57 9.87 21.57 11.33 17.39 11.33 17.39 13.38 21 13.38 21 14.84 17.39 14.84 17.39 18.51 15.64 18.51Z" class="MsftOfcResponsive_Fill_7823dc" stroke-width="0.25" stroke-miterlimit="10" fill="#7823DC"/></g></g></svg>