<svg viewBox="0 0 32 32" xmlns="http://www.w3.org/2000/svg" xmlns:xlink="http://www.w3.org/1999/xlink" id="Layer_1" overflow="hidden"><style>
.MsftOfcResponsive_Fill_7823dc {
 fill:#7823DC; 
}
</style>
<path d="M25 2 25 18 2 18 2 2 25 2M27 0 0 0 0 20 27 20 27 0 27 0Z" class="MsftOfcResponsive_Fill_7823dc" fill="#7823DC"/><path d="M1.1 18 1.1 27 5.4 27C5.7 26.2 6.5 25.6 7.5 25.6 8.5 25.6 9.3 26.2 9.6 27L16 27C16.3 26.2 17.1 25.6 18.1 25.6 19.1 25.6 19.9 26.2 20.2 27L27 27 27 18 1.1 18ZM25 25 3.1 25 3.1 20 25 20 25 25Z" class="MsftOfcResponsive_Fill_7823dc" fill="#7823DC"/><path d="M30 21 30 22 27 22 27 21 30 21M32 19 25 19 25 24 32 24 32 19 32 19Z" class="MsftOfcResponsive_Fill_7823dc" fill="#7823DC"/><rect x="30" y="21" width="2" height="4" class="MsftOfcResponsive_Fill_7823dc" fill="#7823DC"/><path d="M11.7 27C11.6 26.2 11.2 25.5 10.7 25 9.9 24.1 8.8 23.6 7.5 23.6 6.2 23.6 5.1 24.1 4.3 25 3.8 25.5 3.5 26.2 3.3 27 3.2 27.2 3.2 27.5 3.2 27.8 3.2 30.1 5.1 32 7.4 32 9.7 32 11.6 30.1 11.6 27.8 11.8 27.5 11.7 27.2 11.7 27ZM7.5 30C6.3 30 5.3 29 5.3 27.8 5.3 27.5 5.3 27.3 5.4 27 5.7 26.2 6.5 25.6 7.5 25.6 8.5 25.6 9.3 26.2 9.6 27 9.7 27.2 9.7 27.5 9.7 27.8 9.8 29 8.8 30 7.5 30Z" class="MsftOfcResponsive_Fill_7823dc" fill="#7823DC"/><path d="M22.3 27C22.2 26.2 21.8 25.5 21.3 25 20.5 24.1 19.4 23.6 18.1 23.6 16.8 23.6 15.7 24.1 15 25 14.5 25.5 14.2 26.2 14 27 13.9 27.2 13.9 27.5 13.9 27.8 13.9 30.1 15.8 32 18.1 32 20.4 32 22.3 30.1 22.3 27.8 22.3 27.5 22.3 27.2 22.3 27ZM18.1 30C16.9 30 15.9 29 15.9 27.8 15.9 27.5 16 27.3 16 27 16.3 26.2 17.1 25.6 18.1 25.6 19.1 25.6 19.9 26.2 20.2 27 20.3 27.2 20.3 27.5 20.3 27.8 20.3 29 19.4 30 18.1 30Z" class="MsftOfcResponsive_Fill_7823dc" fill="#7823DC"/><rect x="4" y="4" width="2" height="12" class="MsftOfcResponsive_Fill_7823dc" fill="#7823DC"/><rect x="8.2" y="4" width="2" height="12" class="MsftOfcResponsive_Fill_7823dc" fill="#7823DC"/><rect x="12.5" y="4" width="2" height="12" class="MsftOfcResponsive_Fill_7823dc" fill="#7823DC"/><rect x="16.8" y="4" width="2" height="12" class="MsftOfcResponsive_Fill_7823dc" fill="#7823DC"/><rect x="21" y="4" width="2" height="12" class="MsftOfcResponsive_Fill_7823dc" fill="#7823DC"/><rect x="25" y="23.2" width="2" height="8.3" class="MsftOfcResponsive_Fill_7823dc" fill="#7823DC"/><rect x="24" y="30" width="4" height="2" class="MsftOfcResponsive_Fill_7823dc" fill="#7823DC"/></svg>