<svg viewBox="0 0 32 32" xmlns="http://www.w3.org/2000/svg" xmlns:xlink="http://www.w3.org/1999/xlink" id="Layer_1" overflow="hidden"><g><path d="M25.4 20.3 29.7 20.3C28.7 15.8 27.3 9.5 26.4 8.1 24 4.2 19.8 1.9 15.3 1.9 15.3 1.9 15.3 1.9 15.2 1.9 8 2 2.1 8.1 2.1 15.3L2.1 15.4C2.1 19.9 4.4 24.2 8.2 26.6L7.1 28.3C2.7 25.5 0 20.6 0 15.4L0 15.3C0 6.9 6.7 0 15.1 0 20.4 0 25.2 2.7 27.9 7.1 29.3 9.4 31.4 20 31.7 21.2L32 22.4 26.2 22.4" fill="#7823DC" fill-rule="evenodd" clip-rule="evenodd"/><path d="M26.5 32 17.2 32 17.2 30 24.5 30 24.5 20.3 26.5 20.3Z" fill="#7823DC" fill-rule="evenodd" clip-rule="evenodd"/></g><path d="M14.3 24.8 11.7 24.9 13.6 23 17.6 23 17.6 26.9 15.7 28.8 15.7 26.3" fill="#7823DC" fill-rule="evenodd" clip-rule="evenodd"/><path d="M15.9 26 10 32 7.2 32 14.5 24.7Z" fill="#7823DC" fill-rule="evenodd" clip-rule="evenodd"/><g><path d="M15 6.8C18.4 6.8 21.2 9.6 21.2 13 21.2 16.4 18.4 19.2 15 19.2 11.6 19.2 8.8 16.4 8.8 13 8.8 9.6 11.6 6.8 15 6.8M15 5.9C11.1 5.9 7.9 9.1 7.9 12.9 7.9 16.7 11.1 19.9 15 19.9 18.9 19.9 22.1 16.7 22.1 12.9 22.1 9.1 18.9 5.9 15 5.9" fill="#7823DC"/><path d="M15 20.5C10.8 20.5 7.4 17.1 7.4 13 7.4 8.9 10.8 5.5 15 5.5 19.2 5.5 22.6 8.9 22.6 13 22.6 17.1 19.2 20.5 15 20.5ZM15 7.3C11.9 7.3 9.3 9.8 9.3 13 9.3 16.2 11.8 18.7 15 18.7 18.2 18.7 20.7 16.2 20.7 13 20.7 9.8 18.2 7.3 15 7.3Z" fill="#7823DC"/></g><g><path d="M10 17.6 19.3 8.4 19.9 9 10.7 18.2 10 17.6Z" fill="#7823DC"/><path d="M10.7 18.9 9.3 17.6 19.3 7.7 20.6 9Z" fill="#7823DC"/></g><g><path d="M12.9 6.4 13.8 6.2 15.4 12.8 14.6 13 12.9 6.4Z" fill="#7823DC"/><rect x="13.2" y="5.7" width="1.9" height="7.8" fill="#7823DC" transform="matrix(0.9702 -0.2424 0.2424 0.9702 -1.9105 3.7249)"/></g><path d="" stroke="#000000" stroke-width="2" stroke-miterlimit="10" fill="#7823DC"/><path d="" stroke="#000000" stroke-width="2" stroke-miterlimit="10" fill="#7823DC"/></svg>