<svg viewBox="0 0 32 32" xmlns="http://www.w3.org/2000/svg" xmlns:xlink="http://www.w3.org/1999/xlink" id="Layer_1" overflow="hidden"><style>
.MsftOfcResponsive_Fill_7823dc {
 fill:#7823DC; 
}
</style>
<g><path d="M16 8.1 19.3 13 14.5 16.3 11.2 11.4 16 8.1M16.5 5.3 8.4 10.9 13.9 19.1 22 13.5 16.5 5.3 16.5 5.3Z" class="MsftOfcResponsive_Fill_7823dc" fill="#7823DC"/><path d="M21.8 14.6C22.8 14.6 23.7 14.9 24.4 15.5L14.9 22C14.4 20.3 14.9 18.4 16.5 17.4L19.6 15.3C20.2 14.8 21 14.6 21.8 14.6M21.8 12.6C20.6 12.6 19.5 12.9 18.4 13.7L15.3 15.8C12.6 17.7 11.8 21.5 13.7 24.2L14.2 24.9 27.2 16 26.7 15.3C25.6 13.5 23.7 12.6 21.8 12.6L21.8 12.6Z" class="MsftOfcResponsive_Fill_7823dc" fill="#7823DC"/><path d="M12.7 6.8 13.2 7.6 11.6 8.7 11.1 7.9 12.7 6.8M13.2 4 8.4 7.3 11.2 11.4 16 8.1 13.2 4 13.2 4Z" class="MsftOfcResponsive_Fill_7823dc" fill="#7823DC"/><path d="M25.5 2.8 27.7 6 20.4 11 18.2 7.8 25.5 2.8M26 0 15.5 7.3 19.9 13.9 30.5 6.6 26 0 26 0Z" class="MsftOfcResponsive_Fill_7823dc" fill="#7823DC"/><rect x="19.5" y="18.5" width="2" height="3" class="MsftOfcResponsive_Fill_7823dc" fill="#7823DC" transform="matrix(0.8283 -0.5603 0.5603 0.8283 -7.6795 14.9145)"/><path d="M21.6 23.1C21.5 23.1 21.4 23.1 21.3 23.1 20.9 23 20.6 22.8 20.3 22.5 19.8 21.8 20 20.9 20.7 20.4 21 20.2 21.4 20.1 21.8 20.2 22.2 20.3 22.5 20.5 22.8 20.8L22.8 20.8C23.3 21.5 23.1 22.4 22.4 22.9 22.2 23 21.9 23.1 21.6 23.1Z" class="MsftOfcResponsive_Fill_7823dc" fill="#7823DC"/><g><rect x="20.3" y="6" width="2" height="4" class="MsftOfcResponsive_Fill_7823dc" fill="#7823DC" transform="matrix(0.8283 -0.5602 0.5602 0.8283 -0.8314 13.3257)"/><rect x="23.6" y="3.8" width="2" height="4" class="MsftOfcResponsive_Fill_7823dc" fill="#7823DC" transform="matrix(0.8283 -0.5602 0.5602 0.8283 0.9775 14.7655)"/></g><path d="M10 13.4 12.2 16.6 4.9 21.6 2.7 18.4 10 13.4M10.6 10.6 0 17.9 4.4 24.5 15 17.2 10.6 10.6 10.6 10.6Z" class="MsftOfcResponsive_Fill_7823dc" fill="#7823DC"/><g><rect x="4.9" y="16.6" width="2" height="4" class="MsftOfcResponsive_Fill_7823dc" fill="#7823DC" transform="matrix(0.8283 -0.5603 0.5603 0.8283 -9.4247 6.49)"/><rect x="8.1" y="14.4" width="2" height="4" class="MsftOfcResponsive_Fill_7823dc" fill="#7823DC" transform="matrix(0.8284 -0.5602 0.5602 0.8284 -7.6144 7.9273)"/></g><g><path d="M20.1 31.4C20.3 30.5 20.3 30.5 20.3 30.5 25.2 31.3 29.8 28.2 30.7 23.2 31.6 23.4 31.6 23.4 31.6 23.4 30.3 28.8 25.4 32.3 20.1 31.4L20.1 31.4Z" class="MsftOfcResponsive_Fill_7823dc" fill="#7823DC" fill-rule="evenodd" clip-rule="evenodd"/><path d="M19.5 31.8C19.8 30 19.8 30 19.8 30 20.2 30.1 20.2 30.1 20.2 30.1 24.9 30.9 29.3 27.9 30.1 23.2 30.2 22.7 30.2 22.7 30.2 22.7 32 23 32 23 32 23 31.9 23.5 31.9 23.5 31.9 23.5 30.7 29.1 25.5 32.8 19.9 31.9L19.5 31.8 19.5 31.8 19.5 31.8ZM20.5 31 20.5 31C22.5 31.3 24.7 30.8 26.5 29.7 24.7 30.8 22.5 31.4 20.5 31L20.5 31ZM30.7 23.7C30.5 24.6 30.2 25.5 29.8 26.3 30.2 25.4 30.6 24.6 30.9 23.7L30.7 23.7 30.7 23.7 30.7 23.7Z" class="MsftOfcResponsive_Fill_7823dc" fill="#7823DC" fill-rule="evenodd" clip-rule="evenodd"/><path d="M20.5 28.7C20.7 27.8 20.7 27.8 20.7 27.8 24.1 28.4 27.4 26.2 28 22.8 28.9 23 28.9 23 28.9 23 28.2 26.8 24.3 29.3 20.5 28.7L20.5 28.7Z" class="MsftOfcResponsive_Fill_7823dc" fill="#7823DC" fill-rule="evenodd" clip-rule="evenodd"/><path d="M19.9 29.1C20.2 27.3 20.2 27.3 20.2 27.3 20.6 27.4 20.6 27.4 20.6 27.4 23.7 27.9 26.8 25.9 27.4 22.7 27.5 22.2 27.5 22.2 27.5 22.2 29.3 22.5 29.3 22.5 29.3 22.5 29.2 23 29.2 23 29.2 23 28.5 27.1 24.4 29.9 20.3 29.2L19.9 29.1 19.9 29.1 19.9 29.1ZM21 28.4 21 28.4C24.4 28.7 27.5 26.5 28.3 23.3 28.1 23.3 28.1 23.3 28.1 23.3 27.3 26.4 24.4 28.7 21 28.4L21 28.4Z" class="MsftOfcResponsive_Fill_7823dc" fill="#7823DC" fill-rule="evenodd" clip-rule="evenodd"/><path d="M20.9 26.2C21.1 25.3 21.1 25.3 21.1 25.3 23.1 25.6 25 24.1 25.3 22.3 26.2 22.5 26.2 22.5 26.2 22.5 25.7 25 23.4 26.6 20.9 26.2L20.9 26.2Z" class="MsftOfcResponsive_Fill_7823dc" fill="#7823DC" fill-rule="evenodd" clip-rule="evenodd"/><path d="M20.3 26.6C20.6 24.8 20.6 24.8 20.6 24.8 21.1 24.9 21.1 24.9 21.1 24.9 22.9 25.2 24.5 24.1 24.8 22.2 24.9 21.7 24.9 21.7 24.9 21.7 26.7 22 26.7 22 26.7 22 26.6 22.5 26.6 22.5 26.6 22.5 26.1 25.2 23.5 27.1 20.8 26.7L20.3 26.6 20.3 26.6 20.3 26.6ZM21.4 25.7C21.4 25.9 21.4 25.9 21.4 25.9 23.2 26 25.1 24.7 25.6 22.9 25.4 22.9 25.4 22.9 25.4 22.9 25.1 24.6 23.2 26 21.4 25.7L21.4 25.7Z" class="MsftOfcResponsive_Fill_7823dc" fill="#7823DC" fill-rule="evenodd" clip-rule="evenodd"/></g></g></svg>