<svg viewBox="0 0 32 32" xmlns="http://www.w3.org/2000/svg" xmlns:xlink="http://www.w3.org/1999/xlink" id="Layer_1" overflow="hidden"><g><path d="M26.5 13.3 29.5 24.8 2.6 24.8 5.6 13.3 26.5 13.3M28 11.3 4 11.3 0 26.8 32 26.8 28 11.3 28 11.3Z" fill="#7823DC"/><path d="M22.7 16.4 24.3 21.7 7.4 21.7 9 16.4 22.7 16.4M24.2 14.4 7.5 14.4 4.7 23.7 27 23.7 24.2 14.4 24.2 14.4Z" fill="#7823DC"/></g><path d="M17 3.1 17.7 5.3 14.2 5.3 15 3.1 17 3.1M18.5 1.1 13.5 1.1 11.5 7.3 20.5 7.3 18.5 1.1 18.5 1.1Z" fill="#7823DC"/><rect x="3" y="26.8" width="2" height="5.2" fill="#7823DC"/><rect x="6" y="26.8" width="2" height="5.2" fill="#7823DC"/><rect x="24" y="26.8" width="2" height="5.2" fill="#7823DC"/><rect x="27" y="26.8" width="2" height="5.2" fill="#7823DC"/><rect x="7" y="28.9" width="18" height="2" fill="#7823DC"/><path d="M17.1 0 14.9 0 14.9 2 17.1 2 17.1 0Z" fill="#7823DC"/><g><path d="" stroke="#7823DC" stroke-width="2" stroke-miterlimit="10" fill="#7823DC"/></g><g><path d="" stroke="#7823DC" stroke-width="2" stroke-miterlimit="10" fill="#7823DC"/></g><path d="" stroke="#7823DC" stroke-width="2" stroke-miterlimit="10" fill="#7823DC"/><path d="M7.2 12.7 5.4 12 9.6 1 15.3 1 15.3 3 11 3Z" fill="#7823DC"/><rect x="10" y="18.1" width="12" height="2" fill="#7823DC"/></svg>