<svg viewBox="0 0 31.98 31.96" xmlns="http://www.w3.org/2000/svg" xmlns:xlink="http://www.w3.org/1999/xlink" id="Layer_1" overflow="hidden"><style>
.MsftOfcResponsive_Fill_7823dc {
 fill:#7823DC; 
}
</style>
<defs></defs><path d="M4.22 20.29 3.11 19.17C3.02 19.08 2.93 19.02 2.85 18.95 2.69 18.83 2.53 18.71 2.37 18.55 0.78 16.98-0.05 14.81 0.02 12.46 0.09 10.12 1.05 7.91 2.73 6.24 6.19 2.78 11.76 2.61 15.15 5.85L15.26 5.97C15.37 6.11 15.47 6.24 15.58 6.37 15.85 6.7 16.13 7.04 16.35 7.48L16.93 8.63 11.38 9.85 11.38 15 6.13 15 4.22 20.28ZM9.26 5.52C7.43 5.52 5.57 6.24 4.15 7.65 2.84 8.96 2.08 10.69 2.03 12.52 1.98 14.1 2.46 15.57 3.39 16.71L4.73 13.01 9.39 13.01 9.39 8.25 13.76 7.29C13.76 7.29 13.74 7.26 13.73 7.25 12.5 6.1 10.9 5.53 9.27 5.53Z" class="MsftOfcResponsive_Fill_7823dc" fill="#7823DC"/><path d="M2.78 7.74C0.88 5.3 0 2.84 0 0L2 0C2 2.41 2.73 4.42 4.36 6.52L2.78 7.75Z" class="MsftOfcResponsive_Fill_7823dc" fill="#7823DC"/><path d="M21.93 31.96C19.28 31.96 16.61 30.95 14.62 28.96L3.7 17.47 5.15 16.09 16.06 27.56C19.08 30.58 24.07 30.78 27.18 28 28.91 26.49 29.92 24.33 29.98 22.08 30.03 19.88 29.21 17.84 27.65 16.34 26.47 15.16 24.83 14.36 23.13 14.13 20.33 13.71 14.22 10.85 12.11 9.36L13.26 7.73C15.32 9.18 21.12 11.81 23.41 12.15 25.52 12.43 27.58 13.44 29.05 14.91 31 16.8 32.05 19.37 31.98 22.13 31.91 24.94 30.64 27.63 28.51 29.5 26.68 31.14 24.32 31.96 21.94 31.96Z" class="MsftOfcResponsive_Fill_7823dc" fill="#7823DC"/></svg>