<svg viewBox="0 0 32 32" xmlns="http://www.w3.org/2000/svg" xmlns:xlink="http://www.w3.org/1999/xlink" xml:space="preserve" overflow="hidden"><style>
.MsftOfcResponsive_Fill_7823dc {
 fill:#7823DC; 
}
</style>
<g id="Layer_3"></g><g id="Layer_1"><path d="M10.17 32.02C9.93 32.02 9.76 32.01 9.71 32.01 9.47 32 9.21 31.96 8.97 31.9 7.48 31.47 7.19 30.11 7.24 29.45 7.32 27.59 10.59 26.76 12.53 26.43 12.7 26.39 12.84 26.27 12.93 26.06 13.17 25.48 13.03 24.16 11.86 22.36 11.78 22.24 11.69 22.1 11.62 21.96 8.9 17.09 8.5 12.48 8.45 11.81 8.12 10.1 9.14 8.78 9.8 8.26L9.97 8.15C10.11 8.08 10.33 7.8 10.46 7.57 12.2 2.05 16.76 0.14 16.96 0.06L17.72 1.91 17.34 0.98 17.72 1.9C17.56 1.97 13.78 3.59 12.35 8.25L12.29 8.4C12.2 8.57 11.75 9.42 11 9.87 10.83 10.03 10.25 10.63 10.43 11.46L10.45 11.62C10.45 11.67 10.73 16.24 13.37 20.97 13.42 21.07 13.48 21.16 13.54 21.25 14.92 23.36 15.37 25.38 14.79 26.81 14.45 27.64 13.78 28.2 12.92 28.38 11.28 28.66 9.6 29.24 9.25 29.64 9.27 29.89 9.45 29.94 9.52 29.96 9.6 29.98 9.71 30 9.82 30 10.21 30.03 11.27 30.02 11.98 29.67 12.14 29.6 14.52 28.65 16.63 29.75 17.02 29.85 17.98 30 18.48 29.59 18.63 29.46 19.04 28.98 18.46 27.92 18.21 27.56 16.88 25.46 16.71 22.42 16.7 22.29 16.59 19.61 16.86 17.65 16.86 17.64 17.19 14.61 15.88 12.75 15.52 12.24 15.08 11.88 14.54 11.65L15.33 9.81C16.21 10.19 16.94 10.79 17.51 11.6 19.27 14.09 18.86 17.76 18.84 17.91 18.6 19.7 18.7 22.3 18.7 22.33 18.85 24.99 20.11 26.81 20.12 26.83L20.17 26.92C21.39 29.08 20.4 30.65 19.7 31.18 18.26 32.35 16.16 31.73 15.93 31.65L15.75 31.57C14.46 30.85 12.8 31.5 12.78 31.51 11.89 31.95 10.78 32.02 10.17 32.02Z" class="MsftOfcResponsive_Fill_7823dc" fill="#7823DC"/><path d="M17.82 12.45 15.83 12.28C16.04 9.81 18.45 8.75 19.44 8.56 20.8 8.08 25.57 6.16 27.06 1.98L16.82 1.98 16.82-0.02 29.56-0.02 29.34 1.16C28.21 7.23 21.98 9.8 20.12 10.44 19.91 10.54 19.68 10.59 19.55 10.62L19.55 10.61C19.02 10.8 17.91 11.32 17.82 12.45Z" class="MsftOfcResponsive_Fill_7823dc" fill="#7823DC"/><path d="M17.29 8.31 15.33 7.91C15.38 7.67 15.89 5.47 19.81 3.02L20.87 4.72C17.73 6.68 17.29 8.29 17.29 8.31Z" class="MsftOfcResponsive_Fill_7823dc" fill="#7823DC"/></g><g id="Layer_2"></g></svg>