<svg viewBox="0 0 32 32" xmlns="http://www.w3.org/2000/svg" xmlns:xlink="http://www.w3.org/1999/xlink" id="Graphic" overflow="hidden"><defs></defs><path d="M19.41 25 12.59 25 11.59 24 0 24 0 22 12.41 22 13.41 23 18.59 23 19.59 22 32 22 32 24 20.41 24 19.41 25Z" fill="#7823DC"/><path d="M30 24 30 26 2 26 2 24 0 22 0 24.06 3.94 28 28.06 28 32 24.07 32 22Z" fill="#7823DC"/><path d="M3 4 3 22.3 5 22.16 5 6 27 6 27 22.16 29 22.3 29 4" fill="#7823DC"/><rect x="9" y="8" width="2" height="4.5" fill="#7823DC"/><rect x="9" y="17.5" width="2" height="2.5" fill="#7823DC"/><path d="M18.5 14.5 13.5 14.5 13.5 9.5 18.5 9.5ZM15.5 12.5 16.5 12.5 16.5 11.5 15.5 11.5Z" fill="#7823DC"/><path d="M24.5 18.5 19.5 18.5 19.5 13.5 24.5 13.5ZM21.5 16.5 22.5 16.5 22.5 15.5 21.5 15.5" fill="#7823DC"/><path d="M7.5 12.5 7.5 17.5 12.5 17.5 12.5 12.5ZM10.5 15.5 9.5 15.5 9.5 14.5 10.5 14.5Z" fill="#7823DC"/><rect x="15" y="8" width="2" height="1.5" fill="#7823DC"/><rect x="15" y="14.5" width="2" height="5.5" fill="#7823DC"/><rect x="21" y="8" width="2" height="5.5" fill="#7823DC"/><rect x="21" y="18.5" width="2" height="1.5" fill="#7823DC"/></svg>