<svg viewBox="0 0 32 32" xmlns="http://www.w3.org/2000/svg" xmlns:xlink="http://www.w3.org/1999/xlink" id="Layer_1" overflow="hidden"><path d="" stroke="#7823DC" stroke-width="1.6963" stroke-miterlimit="10" fill="#7823DC"/><g><path d="M31.6 30.3 11 30.3 11 28.1 29.4 28.1 29.4 18.3 5.2 18.3 5.2 3.6 21 3.6 21 5.8 7.4 5.8 7.4 16.2 31.6 16.2Z" fill="#7823DC"/></g><g><ellipse cx="27" cy="5.2" rx="1" ry="1" fill="#7823DC"/><path d="M31.9 4.1C31.4 1.9 30 0.6 28 0.2 26-0.2 24 0.6 22.9 2.2 21.7 3.9 21.7 5.7 22.7 7.5 23 8.3 23.5 9.1 24 9.9L24.2 10.2 26.8 10.2C25.8 8.8 25 7.6 24.3 6.3 23.9 5.5 23.9 4.5 24.3 3.7 24.8 2.8 25.6 2.2 26.6 2.1 26.7 2.1 26.8 2.1 26.9 2.1 27.8 2.1 28.6 2.5 29.2 3.2 29.9 4 30.1 5 29.7 5.8 29.2 7.3 28.2 8.6 27.2 9.9 27.2 9.9 27.1 10 27 10.2L29.6 10.2 30 9.5C30.4 8.8 30.9 8.1 31.3 7.4 32 6.2 32.2 5.1 31.9 4.1Z" fill="#7823DC"/></g><g><ellipse cx="5.2" cy="27" rx="1" ry="1" fill="#7823DC"/><path d="M10.1 25.8C9.6 23.7 8.2 22.4 6.2 21.9 4.2 21.5 2.2 22.3 1.1 23.9-0.1 25.6-0.1 27.4 0.9 29.2 1.3 30 1.8 30.8 2.3 31.6L2.4 32 5 32C4 30.6 3.2 29.4 2.5 28.1 2.1 27.3 2.1 26.3 2.5 25.5 3 24.6 3.8 24 4.8 23.9 4.9 23.9 5 23.9 5.1 23.9 6 23.9 6.8 24.3 7.4 25 8 25.8 8.2 26.7 7.9 27.6 7.4 29.1 6.4 30.4 5.4 31.7 5.4 31.7 5.3 31.8 5.2 32L7.8 32 8.2 31.4C8.6 30.7 9.1 30 9.5 29.3 10.2 28 10.4 26.9 10.1 25.8Z" fill="#7823DC"/></g></svg>