<svg viewBox="0 0 32 32" xmlns="http://www.w3.org/2000/svg" xmlns:xlink="http://www.w3.org/1999/xlink" id="Layer_1" xml:space="preserve" overflow="hidden"><path d="M27.8 6 25.8 28.1 25.8 28.3C25.8 29.3 25 30.1 24 30.1L24 30.1 8 30.1C7 30.1 6.2 29.3 6.2 28.3L6.2 28.1 4.2 6 27.8 6M30 4 2 4 4.1 28.3C4.1 30.3 5.9 32 8 32L8 32 24 32C26.1 32 27.8 30.3 27.8 28.2L30 4 30 4 30 4Z" fill="#7823DC" fill-rule="evenodd" clip-rule="evenodd"/><path d="M22 4.7 20 4.7 20 3.1C20 3 19.7 2.7 19.1 2.5 18.3 2.2 17.2 2 16 2 13.3 2 12 2.8 12 3.1L12 4.8 10 4.8 10 3.1C10 0.8 13.2 0 16 0 17.4 0 18.7 0.2 19.8 0.5 21.7 1.2 22 2.4 22 3L22 4.7 22 4.7 22 4.7Z" fill="#7823DC" fill-rule="evenodd" clip-rule="evenodd"/><path d="M0 4 32 4 32 6 0 6 0 4Z" fill="#7823DC" fill-rule="evenodd" clip-rule="evenodd"/><g><path d="M17 15.8 20.5 14.9 21.4 14.6 22.4 14.4 20.9 9 19 9.5 20 12.9 16.4 13.9 17 15.8 17 15.8 17 15.8Z" fill="#7823DC" fill-rule="evenodd" clip-rule="evenodd"/><path d="M14.2 18.1 11.8 15.6 11 14.8 10.3 14.1 6.4 18.1 7.8 19.5 10.3 17 12.8 19.5 14.2 18.1 14.2 18.1 14.2 18.1Z" fill="#7823DC" fill-rule="evenodd" clip-rule="evenodd"/><path d="M17.6 19.3 16.6 22.8 16.4 23.7 16.1 24.7 21.5 26.2 22 24.3 18.6 23.3 19.5 19.8 17.6 19.3 17.6 19.3 17.6 19.3Z" fill="#7823DC" fill-rule="evenodd" clip-rule="evenodd"/><path d="M12.6 14.3 11.1 12.9C11.7 12.2 12.4 11.7 13.3 11.3 15.8 10.1 18.9 10.6 21 12.5L19.7 14C18.7 13 17.4 12.6 16 12.7 15.4 12.7 14.8 12.9 14.2 13.1 13.6 13.4 13 13.8 12.6 14.3L12.6 14.3 12.6 14.3 12.6 14.3Z" fill="#7823DC" fill-rule="evenodd" clip-rule="evenodd"/><path d="M13.9 24.3C13.3 24.1 12.8 23.8 12.3 23.4 11.6 22.9 10.9 22.3 10.5 21.5 9.4 20 9.1 18 9.6 16.2L11.5 16.6C11.3 17.3 11.3 17.9 11.4 18.6 11.5 19.3 11.8 19.9 12.1 20.4 12.5 20.9 12.9 21.4 13.4 21.8 13.9 22.2 14.5 22.4 15.2 22.6L14.8 24.5C14.4 24.5 14.2 24.4 13.9 24.3L13.9 24.3 13.9 24.3 13.9 24.3Z" fill="#7823DC" fill-rule="evenodd" clip-rule="evenodd"/><path d="M18.4 24.4 17.8 22.5C18.4 22.3 19 22 19.6 21.5 20.1 21.1 20.6 20.5 20.8 19.9 21.1 19.3 21.2 18.7 21.3 18.1 21.4 17.5 21.3 16.8 21.1 16.2L23 15.6C23.8 18.3 23 21.2 20.8 23.1 20 23.7 19.2 24.2 18.4 24.4L18.4 24.4 18.4 24.4 18.4 24.4Z" fill="#7823DC" fill-rule="evenodd" clip-rule="evenodd"/></g></svg>