<svg width="36.5" height="36.6" viewBox="0 0 36.5 36.6" xmlns="http://www.w3.org/2000/svg" xmlns:xlink="http://www.w3.org/1999/xlink" overflow="hidden"><defs></defs><g><g><defs><path d="M0 36.5 36.5 36.5 36.5 0 0 0 0 36.5Z" id="SVGID_1_" fill="#7823DC"/></defs><clipPath id="SVGID_2_"><use width="100%" height="100%" xlink:href="#SVGID_1_"></use></clipPath><g clip-path="url(#SVGID_2_)"><defs><path d="M0 36.5 36.5 36.5 36.5 0 0 0 0 36.5Z" id="SVGID_3_" fill="#7823DC"/></defs><clipPath id="SVGID_4_"><use width="100%" height="100%" xlink:href="#SVGID_3_"></use></clipPath><path d="M29.7 4.6 29.7 18.3 22.9 18.3C20.4 18.3 18.3 16.3 18.3 13.7L18.3 9.1C18.3 6.6 20.3 4.5 22.9 4.5L29.7 4.5M31.9 2.3 22.8 2.3C19 2.3 16 5.4 16 9.1L16 13.7C16 17.5 19.1 20.6 22.8 20.6L31.9 20.6 31.9 2.3 31.9 2.3Z" fill="#7823DC" clip-path="url(#SVGID_4_)"/><path d="M31.9 0 29.7 0 29.7 22.9 31.9 22.9 31.9 0 31.9 0 31.9 0Z" fill="#7823DC" clip-path="url(#SVGID_4_)"/><path d="M36.5 4.6 29.7 4.6 29.7 6.9 36.5 6.9 36.5 4.6 36.5 4.6 36.5 4.6Z" fill="#7823DC" clip-path="url(#SVGID_4_)"/><path d="M36.5 16 29.7 16 29.7 18.3 36.5 18.3 36.5 16 36.5 16 36.5 16Z" fill="#7823DC" clip-path="url(#SVGID_4_)"/><path d="M2.3 36.6 0 36.6 0 24.2C0 15.9 6.7 9.1 15 9.1L18.2 9.1 18.2 11.4 15 11.4C8 11.4 2.3 17.1 2.3 24.2L2.3 36.6Z" fill="#7823DC" clip-path="url(#SVGID_4_)"/></g></g></g></svg>