<svg viewBox="0 0 32 32" xmlns="http://www.w3.org/2000/svg" xmlns:xlink="http://www.w3.org/1999/xlink" id="Layer_5" overflow="hidden"><style>
.MsftOfcResponsive_Fill_7823dc {
 fill:#7823DC; 
}
</style>
<defs></defs><path d="M18.72 14.84C19.92 14.84 20.95 14.14 21.46 13.14 21.67 12.72 21.8 12.26 21.8 11.76 21.8 11.55 21.78 11.34 21.74 11.14 21.45 9.73 20.21 8.67 18.72 8.67 17.23 8.67 15.98 9.73 15.7 11.14 15.66 11.34 15.64 11.55 15.64 11.76 15.64 12.26 15.77 12.72 15.98 13.14 16.49 14.15 17.52 14.84 18.72 14.84ZM18.72 10.67C19.08 10.67 19.39 10.86 19.59 11.14 19.72 11.32 19.81 11.52 19.81 11.76 19.81 12.36 19.32 12.84 18.73 12.84 18.14 12.84 17.65 12.35 17.65 11.76 17.65 11.53 17.74 11.32 17.87 11.14 18.07 10.86 18.37 10.67 18.74 10.67Z" class="MsftOfcResponsive_Fill_7823dc" fill="#7823DC"/><path d="M30.29 13.13 30.25 13.13 30.28 13.18 30.29 13.13Z" class="MsftOfcResponsive_Fill_7823dc" fill="#7823DC"/><path d="M30.28 13.18 29.85 15.13 27.51 15.13 27.77 14.67 26.38 13.13 30.24 13.13 28.63 11.13 25.76 11.13 27.76 8.88 25.77 5.36 22.43 6.11 21.81 5.78 20.72 2.48 16.71 2.48 15.71 5.65 15.03 6 11.68 5.45 9.75 8.76 11.74 11.14 6.44 11.14 4.89 3.24 0.12 3.24 0.12 5.24 3.25 5.24 7.95 29.02 28.82 29.02 31.86 15.13 30.29 13.18ZM29.41 17.13 28.97 19.13 21.26 19.13 21.75 17.83 22.35 17.51 25.75 18.2 26.36 17.14 29.41 17.14ZM28.1 23.12 8.79 23.12 8.4 21.12 28.54 21.12 28.1 23.12ZM11.69 18.12 15.12 17.4 15.64 17.68 16.14 19.13 8.01 19.13 7.62 17.13 11.11 17.13 11.69 18.12ZM12.19 8.56 12.72 7.65 15.36 8.09 17.37 7.06 18.18 4.49 19.28 4.49 20.17 7.18 22.15 8.25 24.77 7.66 25.33 8.65 23.53 10.67 23.53 11.16C23.53 11.16 23.51 12.95 23.51 12.95L23.7 13.16 25.32 14.96 25.21 15.16 24.75 15.97 22.05 15.43 20.16 16.46 19.89 17.17 19.15 19.15 18.26 19.15 17.58 17.17 17.29 16.32 15.43 15.33 12.7 15.9 12.27 15.17 12.16 14.99 13.75 13.17 13.96 12.93 13.96 10.69 12.21 8.59ZM11.07 13.14 9.68 14.73 9.92 15.14 7.22 15.14 6.83 13.14 11.07 13.14ZM9.54 27.03 9.15 25.03 27.67 25.03 27.23 27.03 9.55 27.03Z" class="MsftOfcResponsive_Fill_7823dc" fill="#7823DC"/><path d="M12.03 29.1C10.38 29.1 9.07 30.4 9.07 32.05L11.09 32.05C11.09 32.05 11.07 31.99 11.07 31.96 11.07 31.44 11.5 31.01 12.03 31.01 12.56 31.01 12.99 31.44 12.99 31.96 12.99 31.99 12.98 32.02 12.97 32.05L14.99 32.05C14.99 30.4 13.69 29.1 12.03 29.1Z" class="MsftOfcResponsive_Fill_7823dc" fill="#7823DC"/><path d="M23.94 29.1C22.29 29.1 20.98 30.4 20.98 32.05L23 32.05C23 32.05 22.98 31.99 22.98 31.96 22.98 31.44 23.41 31.01 23.94 31.01 24.47 31.01 24.9 31.44 24.9 31.96 24.9 31.99 24.89 32.02 24.88 32.05L26.9 32.05C26.9 30.4 25.6 29.1 23.94 29.1Z" class="MsftOfcResponsive_Fill_7823dc" fill="#7823DC"/></svg>