<svg viewBox="0 0 32 32" xmlns="http://www.w3.org/2000/svg" xmlns:xlink="http://www.w3.org/1999/xlink" id="Layer_1" overflow="hidden"><g><g><defs><path d="M2 32 30 32 30 0 2 0 2 32Z" id="SVGID_1_" fill="#7823DC"/></defs><defs><path d="M2 0 30 0 30 32 2 32 2 0Z" id="SVGID_00000114064358987972374720000007744674165401339269_" fill="#7823DC"/></defs><clipPath id="SVGID_00000093142003374301967740000015912223110547053964_"><use width="100%" height="100%" xlink:href="#SVGID_1_" overflow="visible"></use></clipPath><clipPath id="SVGID_00000043447685772430085620000002105585316144779906_" clip-path="url(#SVGID_00000093142003374301967740000015912223110547053964_)"><use width="100%" height="100%" xlink:href="#SVGID_00000114064358987972374720000007744674165401339269_" overflow="visible"></use></clipPath><g clip-path="url(#SVGID_00000043447685772430085620000002105585316144779906_)"><defs><path d="M2 32 30 32 30 0 2 0 2 32Z" id="SVGID_00000109018201635350320110000001625785615240886414_" fill="#7823DC"/></defs><clipPath id="SVGID_00000137844898914481924630000011898712383293569449_"><use width="100%" height="100%" xlink:href="#SVGID_00000109018201635350320110000001625785615240886414_" overflow="visible"></use></clipPath><path d="M25.1 16.4 16.4 25 7.8 16.4 3 16.4 3 31.8 4.9 31.8 4.9 16.4 6.6 17.9 6.6 17.9 16.4 27.7 26.3 17.9 26.3 17.9 28 16.4 28 31.8 29.9 31.8 29.9 16.4 25.1 16.4Z" fill="#7823DC" clip-path="url(#SVGID_00000137844898914481924630000011898712383293569449_)"/><path d="M16.6 15.8C12.9 15.8 9.8 12.7 9.8 9L11.7 9C11.7 11.7 13.9 13.9 16.6 13.9 19.3 13.9 21.5 11.7 21.5 9L23.4 9C23.3 12.8 20.3 15.8 16.6 15.8L16.6 15.8Z" fill="#7823DC" clip-path="url(#SVGID_00000137844898914481924630000011898712383293569449_)"/><path d="M24.1 8.6 22.2 8.6C22.2 5.5 19.7 2.9 16.5 2.9 13.3 2.9 10.8 5.4 10.8 8.6L9 8.6C9 4.4 12.4 1 16.6 1 20.7 1 24.1 4.4 24.1 8.6L24.1 8.6Z" fill="#7823DC" clip-path="url(#SVGID_00000137844898914481924630000011898712383293569449_)"/><path d="M8.3 7.7 24.6 7.7 24.6 9.6 8.3 9.6 8.3 7.7Z" fill="#7823DC" clip-path="url(#SVGID_00000137844898914481924630000011898712383293569449_)"/><path d="M17.8 1.9 19.7 1.9 19.7 6.5 17.8 6.5 17.8 1.9Z" fill="#7823DC" clip-path="url(#SVGID_00000137844898914481924630000011898712383293569449_)"/><path d="M13.4 1.9 15.3 1.9 15.3 6.5 13.4 6.5 13.4 1.9Z" fill="#7823DC" clip-path="url(#SVGID_00000137844898914481924630000011898712383293569449_)"/></g></g></g></svg>