<svg viewBox="0 0 32 32" xmlns="http://www.w3.org/2000/svg" xmlns:xlink="http://www.w3.org/1999/xlink" xml:space="preserve" overflow="hidden"><style>
.MsftOfcResponsive_Fill_7823dc {
 fill:#7823DC; 
}
</style>
<g id="Layer_3"></g><g id="Layer_1"><path d="M14.95 31.48C13.74 31.48 12.52 31.34 11.32 31.05 7.34 30.09 3.96 27.63 1.83 24.13 0.09 21.28-0.44 17.92 0.35 14.68 1.13 11.43 3.14 8.69 5.98 6.95 8.31 5.53 11.06 5.09 13.71 5.74 16.36 6.38 18.61 8.02 20.04 10.35 22.46 14.3 21.2 19.49 17.25 21.9 15.67 22.87 13.8 23.16 12 22.73 10.2 22.29 8.67 21.18 7.7 19.6 6.04 16.88 6.9 13.31 9.62 11.65 11.9 10.25 14.89 10.98 16.29 13.26 17.47 15.19 16.86 17.72 14.93 18.9 14.13 19.39 13.19 19.53 12.28 19.32 11.37 19.1 10.6 18.54 10.11 17.74L12.02 16.57C12.2 16.86 12.47 17.06 12.8 17.14 13.13 17.22 13.47 17.17 13.76 16.99 14.19 16.73 14.48 16.32 14.6 15.84 14.72 15.36 14.64 14.86 14.38 14.43 13.63 13.2 12.02 12.81 10.79 13.56 9.12 14.58 8.6 16.76 9.61 18.43 10.27 19.5 11.3 20.26 12.52 20.55 13.74 20.84 15.01 20.65 16.08 19.99 18.98 18.22 19.9 14.41 18.13 11.51 17.02 9.69 15.26 8.41 13.19 7.91 11.12 7.41 8.97 7.75 7.15 8.86 4.81 10.29 3.17 12.54 2.52 15.21 1.87 17.88 2.31 20.63 3.74 22.97 5.57 25.96 8.45 28.06 11.85 28.88 15.25 29.7 18.77 29.15 21.76 27.32 25.56 25 28.23 21.34 29.27 17.01 30.32 12.68 29.61 8.21 27.29 4.41L29.2 3.24C31.83 7.55 32.63 12.63 31.44 17.54 30.25 22.45 27.23 26.6 22.92 29.24 20.48 30.72 17.74 31.48 14.95 31.48Z" class="st1 MsftOfcResponsive_Fill_7823dc" fill="#7823DC"/></g><g id="Layer_2"></g></svg>