<svg viewBox="0 0 32 32" xmlns="http://www.w3.org/2000/svg" xmlns:xlink="http://www.w3.org/1999/xlink" id="Layer_1" xml:space="preserve" overflow="hidden"><g id="Layer_2_00000153672027410828584440000004318808627006363015_"></g><g id="Layer_2_00000103981120671582451330000015814750687241510044_"></g><g id="Layer_2_00000130625076427418092810000005903251686592157099_"></g><g id="Layer_2_00000085964347954184681000000000355649944892313477_"></g><path d="M22 28 22 30 2 30 2 28 22 28M24 26 0 26 0 32 24 32 24 26 24 26Z" fill="#7823DC"/><g id="Layer_2_00000018946082797421151980000008836874802702089886_"></g><g id="Layer_2_00000021804689057827181820000005630892102603028366_"></g><g id="Layer_2_00000093156637026916537620000011911187392566796989_"></g><g id="Layer_2_00000031185290306875418530000018357049157785389234_"></g><path d="M16 24 16 26 8 26 8 24 16 24M18 22 6 22 6 28 18 28 18 22 18 22Z" fill="#7823DC"/><path d="M22.2 24.6 19.5 21 5.4 21 0.4 16.8 1.6 15.2 6.1 19 20.5 19 23.8 23.4Z" fill="#7823DC"/><g><rect x="8.5" y="21" width="2" height="1" fill="#7823DC"/><rect x="13.5" y="21" width="2" height="1" fill="#7823DC"/></g><path d="M30 10 30 30 28 30 28 10 30 10M32 8 26 8 26 32 32 32 32 8 32 8Z" fill="#7823DC"/><path d="M30 9 28 9 28 2 14 2 14 9 12 9 12 0 30 0Z" fill="#7823DC"/><rect x="9" y="8" width="8" height="2" fill="#7823DC"/><path d="M14 10C14 10.6 13.6 11 13 11 12.4 11 12 10.6 12 10L14 10M16 8 10 8 10 10C10 11.7 11.3 13 13 13 14.7 13 16 11.7 16 10L16 8 16 8Z" fill="#7823DC"/></svg>