<svg viewBox="0 0 32 32" xmlns="http://www.w3.org/2000/svg" xmlns:xlink="http://www.w3.org/1999/xlink" xml:space="preserve" overflow="hidden"><style>
.MsftOfcResponsive_Fill_7823dc {
 fill:#7823DC; 
}
</style>
<g id="Layer_3"></g><g id="Layer_1"></g><g id="Layer_2"><path d="M12.14 32 10.14 32 10.14 29.19 3.82 23 5.05 13.56 10.5 13.8 10 20.63 8 20.48 8.35 15.71 6.8 15.64 5.94 22.27 12.14 28.35Z" class="st0 MsftOfcResponsive_Fill_7823dc" fill="#7823DC"/><path d="M13.98 16.94 11.98 16.77 13 4.76 11.26 4.76 10.29 16.65 8.29 16.49 9.42 2.76 15.18 2.76Z" class="st0 MsftOfcResponsive_Fill_7823dc" fill="#7823DC"/><path d="M21.78 17.24 20.54 4.76 18.65 4.76 18.65 2.76 22.36 2.76 23.77 17.05Z" class="st0 MsftOfcResponsive_Fill_7823dc" fill="#7823DC"/><path d="M16.95 17.15 16.89 2.06 15.25 2.06 15.09 3.85 13.09 3.67 13.43 0.06 18.88 0.06 18.95 17.14Z" class="st0 MsftOfcResponsive_Fill_7823dc" fill="#7823DC"/><path d="M23.77 32 21.77 32 21.77 28.29 26.08 20.95 24.4 8.17 22.57 8.17 22.57 6.17 26.15 6.17 28.16 21.37 23.77 28.83Z" class="st0 MsftOfcResponsive_Fill_7823dc" fill="#7823DC"/></g><g id="Layer_4"></g><g id="Layer_5"><rect x="21.11" y="3.72" width="2" height="13.45" class="st0 MsftOfcResponsive_Fill_7823dc" fill="#7823DC" transform="matrix(0.9952 -0.0983 0.0983 0.9952 -0.9206 2.2252)"/><rect x="16.92" y="1.06" width="2" height="15.33" class="st0 MsftOfcResponsive_Fill_7823dc" fill="#7823DC" transform="matrix(1 -0.00395078 0.00395078 1 -0.0343 0.0709)"/><rect x="1.24" y="11.16" width="16.85" height="2" class="st0 MsftOfcResponsive_Fill_7823dc" fill="#7823DC" transform="matrix(0.0791 -0.9969 0.9969 0.0791 -3.2128 20.8347)"/><path d="M12.14 32 10.14 32 10.14 29.19 3.82 23 4.94 14.47 6.92 14.72 5.94 22.27 12.14 28.35Z" class="st0 MsftOfcResponsive_Fill_7823dc" fill="#7823DC"/></g></svg>