<svg width="32" height="32" viewBox="0 0 32 32" xmlns="http://www.w3.org/2000/svg" xmlns:xlink="http://www.w3.org/1999/xlink" overflow="hidden"><style>
.MsftOfcResponsive_Fill_7823dc {
 fill:#7823DC; 
}
</style>
<defs></defs><g><path d="M6 22C8.21 22 10 23.79 10 26 10 28.21 8.21 30 6 30 3.79 30 2 28.21 2 26 2 23.79 3.8 22 6 22M6 20C2.69 20 0 22.69 0 26 0 29.31 2.69 32 6 32 9.31 32 12 29.31 12 26 12 22.69 9.32 20 6 20L6 20Z" class="MsftOfcResponsive_Fill_7823dc" fill="#7823DC"/></g><g><g><rect x="9.93" y="14" width="14.14" height="2" class="MsftOfcResponsive_Fill_7823dc" fill="#7823DC" transform="matrix(0.7071 -0.7071 0.7071 0.7071 -5.6279 16.4172)"/></g></g><g><path d="M24 16.47 24 8 15.5 8 13.51 10 22 10 22.01 18.47Z" class="MsftOfcResponsive_Fill_7823dc" fill="#7823DC"/></g><g><path d="M16 0C7.16 0 0 7.16 0 16 0 16.01 0 16.03 0 16.04L0 18 2 16 2 16C2 8.28 8.28 2 16 2 23.72 2 30 8.28 30 16 30 23.72 23.72 30 16 30L16 30 14 32 15.96 32C15.97 32 15.99 32 16 32 24.84 32 32 24.84 32 16 32 7.16 24.84 0 16 0Z" class="MsftOfcResponsive_Fill_7823dc" fill="#7823DC"/></g></svg>