<svg viewBox="0 0 32 32" xmlns="http://www.w3.org/2000/svg" xmlns:xlink="http://www.w3.org/1999/xlink" id="Layer_1" overflow="hidden"><style>
.MsftOfcResponsive_Fill_7823dc {
 fill:#7823DC; 
}
</style>
<defs></defs><path d="M31.62 32 0.38 32 6.71 22.5 25.28 22.5 31.61 32ZM4.12 30 27.88 30 24.21 24.5 7.79 24.5 4.12 30Z" class="MsftOfcResponsive_Fill_7823dc" stroke-width="0" fill="#7823DC"/><path d="M32 28.25 27.25 28.25 27.25 26.25 30 26.25 30 13.75C30 10.77 28.32 8.23 26.28 8.01 19.82 12.22 12.18 12.22 5.72 8.01 3.68 8.22 2 10.76 2 13.75L2 26.25 4.75 26.25 4.75 28.25 0 28.25 0 13.75C0 9.48 2.69 6 6 6L6.31 6 6.56 6.17C12.47 10.16 19.53 10.16 25.44 6.17L25.69 6 26 6C29.31 6 32 9.48 32 13.75L32 28.25Z" class="MsftOfcResponsive_Fill_7823dc" stroke-width="0" fill="#7823DC"/><rect x="23.5" y="17.5" width="2.5" height="2" class="MsftOfcResponsive_Fill_7823dc" stroke-width="0" fill="#7823DC"/><rect x="23.5" y="13" width="2.5" height="2" class="MsftOfcResponsive_Fill_7823dc" stroke-width="0" fill="#7823DC"/><path d="M27 7.48 25 7.48 25 2 7 2 7 7.48 5 7.48 5 0 27 0 27 7.48Z" class="MsftOfcResponsive_Fill_7823dc" stroke-width="0" fill="#7823DC"/></svg>