<svg viewBox="0 0 32 32" xmlns="http://www.w3.org/2000/svg" xmlns:xlink="http://www.w3.org/1999/xlink" id="Layer_1" xml:space="preserve" overflow="hidden"><g><g><defs><path d="M4 32 28 32 28 0 4 0 4 32Z" id="SVGID_1_" fill="#7823DC"/></defs><defs><path d="M4 0 28 0 28 32 4 32 4 0Z" id="SVGID_00000015317026779283800960000017295464341722166151_" fill="#7823DC"/></defs><clipPath id="SVGID_00000085252939421713403250000000235217794285783696_"><use width="100%" height="100%" xlink:href="#SVGID_1_" overflow="visible"></use></clipPath><clipPath id="SVGID_00000107560335388238956030000018170033440013918383_" clip-path="url(#SVGID_00000085252939421713403250000000235217794285783696_)"><use width="100%" height="100%" xlink:href="#SVGID_00000015317026779283800960000017295464341722166151_" overflow="visible"></use></clipPath><g clip-path="url(#SVGID_00000107560335388238956030000018170033440013918383_)"><defs><path d="M4 32 28 32 28 0 4 0 4 32Z" id="SVGID_00000062180697786088580530000014813999362755449503_" fill="#7823DC"/></defs><clipPath id="SVGID_00000163068525922989117800000005036379533961579710_"><use width="100%" height="100%" xlink:href="#SVGID_00000062180697786088580530000014813999362755449503_" overflow="visible"></use></clipPath><path d="M27.4 16.4C26.6 12 25.1 8 23.1 5.2 21.1 2.4 18.8 0.9 16.5 0.9 11.8 1 7 7.7 5.4 16.4 4.6 20.8 5.6 25 8.1 28 10.2 30.5 13.1 31.9 16.5 31.9 19.9 31.9 22.8 30.5 24.9 28 27.3 25 28.2 20.8 27.4 16.4L27.4 16.4ZM23.4 26.5C21.7 28.7 19.2 29.9 16.4 29.9 13.6 29.9 11.2 28.7 9.5 26.5 7.5 23.9 6.7 20.2 7.3 16.4 8.6 8.8 12.6 2.9 16.4 2.9 18.3 2.9 20.2 4.2 21.9 6.7 23.6 9.1 24.8 12.6 25.5 16.4 26.2 20.2 25.4 23.9 23.4 26.5L23.4 26.5Z" fill="#7823DC" clip-path="url(#SVGID_00000163068525922989117800000005036379533961579710_)"/><path d="M5.6 20.2 6.9 18.9 8.3 20.2 6.9 21.6 5.6 20.2Z" fill="#7823DC" clip-path="url(#SVGID_00000163068525922989117800000005036379533961579710_)"/><path d="M6.9 21.6 8.3 20.3 9.7 21.6 8.3 23 6.9 21.6Z" fill="#7823DC" clip-path="url(#SVGID_00000163068525922989117800000005036379533961579710_)"/><path d="M8.3 20.2 9.7 18.9 11 20.2 9.7 21.6 8.3 20.2Z" fill="#7823DC" clip-path="url(#SVGID_00000163068525922989117800000005036379533961579710_)"/><path d="M11 20.2 12.4 18.9 13.7 20.2 12.4 21.6 11 20.2Z" fill="#7823DC" clip-path="url(#SVGID_00000163068525922989117800000005036379533961579710_)"/><path d="M12.4 21.6 13.7 20.3 15.1 21.6 13.7 23 12.4 21.6Z" fill="#7823DC" clip-path="url(#SVGID_00000163068525922989117800000005036379533961579710_)"/><path d="M13.7 20.2 15.1 18.9 16.4 20.2 15.1 21.6 13.7 20.2Z" fill="#7823DC" clip-path="url(#SVGID_00000163068525922989117800000005036379533961579710_)"/><path d="M15.1 18.9 16.4 17.5 17.8 18.9 16.4 20.3 15.1 18.9Z" fill="#7823DC" clip-path="url(#SVGID_00000163068525922989117800000005036379533961579710_)"/><path d="M16.4 20.2 17.8 18.9 19.2 20.2 17.8 21.6 16.4 20.2Z" fill="#7823DC" clip-path="url(#SVGID_00000163068525922989117800000005036379533961579710_)"/><path d="M17.8 21.6 19.2 20.3 20.5 21.6 19.2 23 17.8 21.6Z" fill="#7823DC" clip-path="url(#SVGID_00000163068525922989117800000005036379533961579710_)"/><path d="M19.1 20.2 20.5 18.9 21.9 20.2 20.5 21.6 19.1 20.2Z" fill="#7823DC" clip-path="url(#SVGID_00000163068525922989117800000005036379533961579710_)"/><path d="M20.5 18.9 21.9 17.5 23.2 18.9 21.9 20.3 20.5 18.9Z" fill="#7823DC" clip-path="url(#SVGID_00000163068525922989117800000005036379533961579710_)"/><path d="M21.9 20.3 23.2 18.9 24.6 20.3 23.2 21.6 21.9 20.3Z" fill="#7823DC" clip-path="url(#SVGID_00000163068525922989117800000005036379533961579710_)"/><path d="M23.2 21.6 24.6 20.3 25.9 21.6 24.6 23 23.2 21.6Z" fill="#7823DC" clip-path="url(#SVGID_00000163068525922989117800000005036379533961579710_)"/><path d="M24.6 20.2 25.9 18.9 27.3 20.2 25.9 21.6 24.6 20.2Z" fill="#7823DC" clip-path="url(#SVGID_00000163068525922989117800000005036379533961579710_)"/><path d="M6.6 15 7.9 13.7 8.3 14 6.9 15.4 6.6 15Z" fill="#7823DC" clip-path="url(#SVGID_00000163068525922989117800000005036379533961579710_)"/><path d="M6.9 15.4 8.3 14 9.7 15.4 8.3 16.8 6.9 15.4Z" fill="#7823DC" clip-path="url(#SVGID_00000163068525922989117800000005036379533961579710_)"/><path d="M8.3 14 9.7 12.7 11 14 9.7 15.4 8.3 14Z" fill="#7823DC" clip-path="url(#SVGID_00000163068525922989117800000005036379533961579710_)"/><path d="M9.7 12.7 11 11.3 12.4 12.7 11 14 9.7 12.7Z" fill="#7823DC" clip-path="url(#SVGID_00000163068525922989117800000005036379533961579710_)"/><path d="M11 14 12.4 12.7 13.7 14 12.4 15.4 11 14Z" fill="#7823DC" clip-path="url(#SVGID_00000163068525922989117800000005036379533961579710_)"/><path d="M12.4 15.4 13.7 14.1 15.1 15.4 13.7 16.8 12.4 15.4Z" fill="#7823DC" clip-path="url(#SVGID_00000163068525922989117800000005036379533961579710_)"/><path d="M13.7 14 15.1 12.7 16.4 14 15.1 15.4 13.7 14Z" fill="#7823DC" clip-path="url(#SVGID_00000163068525922989117800000005036379533961579710_)"/><path d="M15.1 12.7 16.4 11.3 17.8 12.7 16.4 14 15.1 12.7Z" fill="#7823DC" clip-path="url(#SVGID_00000163068525922989117800000005036379533961579710_)"/><path d="M16.4 14 17.8 12.7 19.2 14 17.8 15.4 16.4 14Z" fill="#7823DC" clip-path="url(#SVGID_00000163068525922989117800000005036379533961579710_)"/><path d="M17.8 15.4 19.2 14 20.5 15.4 19.2 16.8 17.8 15.4Z" fill="#7823DC" clip-path="url(#SVGID_00000163068525922989117800000005036379533961579710_)"/><path d="M19.2 14 20.5 12.7 21.9 14 20.5 15.4 19.2 14Z" fill="#7823DC" clip-path="url(#SVGID_00000163068525922989117800000005036379533961579710_)"/><path d="M20.5 12.7 21.9 11.3 23.2 12.7 21.9 14 20.5 12.7Z" fill="#7823DC" clip-path="url(#SVGID_00000163068525922989117800000005036379533961579710_)"/><path d="M21.9 14 23.2 12.7 24.6 14 23.2 15.4 21.9 14Z" fill="#7823DC" clip-path="url(#SVGID_00000163068525922989117800000005036379533961579710_)"/><path d="M23.2 15.4 24.6 14 25.9 15.4 24.6 16.8 23.2 15.4Z" fill="#7823DC" clip-path="url(#SVGID_00000163068525922989117800000005036379533961579710_)"/><path d="M24.6 14 25 13.7 26.3 15 25.9 15.4 24.6 14Z" fill="#7823DC" clip-path="url(#SVGID_00000163068525922989117800000005036379533961579710_)"/><path d="M9.6 24.3 11 23 12.4 24.3 11 25.7 9.6 24.3Z" fill="#7823DC" clip-path="url(#SVGID_00000163068525922989117800000005036379533961579710_)"/><path d="M15.1 24.3 16.4 23 17.8 24.3 16.4 25.7 15.1 24.3Z" fill="#7823DC" clip-path="url(#SVGID_00000163068525922989117800000005036379533961579710_)"/><path d="M20.5 24.3 21.9 23 23.2 24.3 21.9 25.7 20.5 24.3Z" fill="#7823DC" clip-path="url(#SVGID_00000163068525922989117800000005036379533961579710_)"/></g></g></g></svg>