<svg viewBox="0 0 32 32" xmlns="http://www.w3.org/2000/svg" xmlns:xlink="http://www.w3.org/1999/xlink" id="Layer_1" overflow="hidden"><path d="M32 30 0 30 0 32 32 32 32 30Z" fill="#7823DC"/><path d="M18.1 14.3 18.3 14.6 8.4 23.7 8.2 23.4 18.1 14.3M18.2 11.5 5.3 23.2 8.2 26.4 21.1 14.6 18.2 11.5 18.2 11.5Z" fill="#7823DC"/><path d="M28.9 14.3 29.1 14.6 19.2 23.7 19 23.4 28.9 14.3M29.1 11.5 16.2 23.2 19.1 26.4 32 14.7 29.1 11.5 29.1 11.5Z" fill="#7823DC"/><rect x="23" y="20.3" width="2" height="11.7" fill="#7823DC"/><rect x="12.2" y="20.3" width="2" height="10.1" fill="#7823DC"/><path d="M6.5 0 3.7 0C5.1 1 6 2.6 6 4.5 6 7.5 3.5 10 0.5 10 0.3 10 0.2 10 0 10L0 12C0.2 12 0.3 12 0.5 12 4.6 12 8 8.6 8 4.5 8 2.8 7.4 1.2 6.5 0Z" fill="#7823DC"/><rect x="1.4" y="13.2" width="2" height="4.1" fill="#7823DC" transform="matrix(0.9813 -0.1925 0.1925 0.9813 -2.8838 0.7421)"/><rect x="7.1" y="10.3" width="2" height="4.1" fill="#7823DC" transform="matrix(0.7523 -0.6588 0.6588 0.7523 -6.1343 8.4076)"/><rect x="10.5" y="5" width="2" height="4.1" fill="#7823DC" transform="matrix(0.2524 -0.9676 0.9676 0.2524 1.7394 16.4098)"/><rect x="9.5" y="0.6" width="4.1" height="2" fill="#7823DC" transform="matrix(0.9603 -0.2788 0.2788 0.9603 0.0112178 3.2807)"/></svg>