<svg viewBox="0 0 32 32" xmlns="http://www.w3.org/2000/svg" xmlns:xlink="http://www.w3.org/1999/xlink" id="Graphic" overflow="hidden"><style>
.MsftOfcResponsive_Fill_7823dc {
 fill:#7823DC; 
}
</style>
<defs></defs><path d="M-0.01 11.976-0.002 27.991 1.998 28 1.985 25.972 1.998 14 29.998 14 29.997 25.972 29.998 27.998 31.998 27.997 31.992 11.976-0.01 11.976Z" class="MsftOfcResponsive_Fill_7823dc" fill="#7823DC"/><path d="M15.998 17.9755C21.5218 17.9964 25.9906 22.4763 25.9981 28L27.9981 28C27.9981 21.3726 22.6255 16 15.9981 16 9.37063 16 3.99805 21.3726 3.99805 28L5.99805 28C6.00547 22.4763 10.4743 17.9964 15.9981 17.9755Z" class="MsftOfcResponsive_Fill_7823dc" fill="#7823DC"/><rect x="-0.00018" y="8.01163" width="31.9918" height="1.98837" class="MsftOfcResponsive_Fill_7823dc" fill="#7823DC"/><rect x="0" y="9.97341" width="2" height="2" class="MsftOfcResponsive_Fill_7823dc" fill="#7823DC"/><rect x="6" y="9.97341" width="2" height="2" class="MsftOfcResponsive_Fill_7823dc" fill="#7823DC"/><rect x="-0.00195" y="30" width="6" height="2" class="MsftOfcResponsive_Fill_7823dc" fill="#7823DC"/><rect x="25.998" y="30" width="6" height="2" class="MsftOfcResponsive_Fill_7823dc" fill="#7823DC"/><rect x="-0.00195" y="26" width="2" height="6" class="MsftOfcResponsive_Fill_7823dc" fill="#7823DC"/><rect x="3.99805" y="28" width="2" height="4" class="MsftOfcResponsive_Fill_7823dc" fill="#7823DC"/><rect x="25.998" y="28" width="2" height="4" class="MsftOfcResponsive_Fill_7823dc" fill="#7823DC"/><rect x="29.998" y="26" width="2" height="6" class="MsftOfcResponsive_Fill_7823dc" fill="#7823DC"/><rect x="12" y="9.97341" width="2" height="2" class="MsftOfcResponsive_Fill_7823dc" fill="#7823DC"/><rect x="18" y="9.97341" width="2" height="2" class="MsftOfcResponsive_Fill_7823dc" fill="#7823DC"/><rect x="24" y="9.97341" width="2" height="2" class="MsftOfcResponsive_Fill_7823dc" fill="#7823DC"/><rect x="30" y="9.97341" width="2" height="2" class="MsftOfcResponsive_Fill_7823dc" fill="#7823DC"/><rect x="-0.00018" y="0" width="31.9918" height="1.98837" class="MsftOfcResponsive_Fill_7823dc" fill="#7823DC"/><rect x="-0.00018" y="4" width="31.9918" height="2.00674" class="MsftOfcResponsive_Fill_7823dc" fill="#7823DC"/><rect x="0" y="1.97366" width="2" height="2.02634" class="MsftOfcResponsive_Fill_7823dc" fill="#7823DC"/><rect x="6" y="1.97366" width="2" height="2.02634" class="MsftOfcResponsive_Fill_7823dc" fill="#7823DC"/><rect x="12" y="1.97366" width="2" height="2.02634" class="MsftOfcResponsive_Fill_7823dc" fill="#7823DC"/><rect x="18" y="1.97366" width="2" height="2.02634" class="MsftOfcResponsive_Fill_7823dc" fill="#7823DC"/><rect x="24" y="1.97366" width="2" height="2.02634" class="MsftOfcResponsive_Fill_7823dc" fill="#7823DC"/><rect x="30" y="1.97366" width="2" height="2.02634" class="MsftOfcResponsive_Fill_7823dc" fill="#7823DC"/></svg>