<svg viewBox="0 0 32 32" xmlns="http://www.w3.org/2000/svg" xmlns:xlink="http://www.w3.org/1999/xlink" xml:space="preserve" overflow="hidden"><style>
.MsftOfcResponsive_Fill_7823dc {
 fill:#7823DC; 
}
</style>
<g id="Layer_3"></g><g id="Layer_1"></g><g id="Layer_2"><path d="M18.55 29.79C16.61 28.23 15.97 26.23 15.94 26.14 15.03 23.76 16.65 20.15 16.84 19.74 18.44 16.39 18.28 13.64 18.28 13.61 18.28 11.59 17.54 8.63 16.54 6.65 16.13 5.84 15.73 5.1 15.36 4.47 15.09 4.01 14.87 3.66 14.69 3.4L13.3 4.05 12.44 2.21 15.33 0.85 15.83 1.5C16 1.74 16.43 2.29 17.1 3.45 17.5 4.13 17.91 4.9 18.34 5.74 19.32 7.68 20.31 10.98 20.3 13.55 20.31 13.61 20.5 16.76 18.67 20.61 18.29 21.42 17.32 24.08 17.85 25.47 17.87 25.54 18.38 27.05 19.81 28.2L18.55 29.79Z" class="MsftOfcResponsive_Fill_7823dc" fill="#7823DC"/><path d="M14.37 6.54C14.45 6.72 14.51 6.93 14.58 7.13L16.97 6.22 16.25 4.32" class="MsftOfcResponsive_Fill_7823dc" fill="#7823DC"/><path d="M15.35 10.19 18.21 9.52 17.75 7.54 14.9 8.21C15.08 8.83 15.23 9.5 15.35 10.19Z" class="MsftOfcResponsive_Fill_7823dc" fill="#7823DC"/><path d="M15.51 13.53 18.89 13.31 18.65 11.29 15.51 11.54C15.51 11.54 15.51 11.66 15.51 11.66 15.54 12.37 15.51 12.85 15.51 13.53Z" class="MsftOfcResponsive_Fill_7823dc" fill="#7823DC"/><path d="M15.51 14.8C15.51 14.82 15.51 14.84 15.5 14.85 15.5 14.89 15.43 15.64 15.11 16.8L18.58 17.22 18.82 15.2 15.51 14.8Z" class="MsftOfcResponsive_Fill_7823dc" fill="#7823DC"/><path d="M14.49 18.39C14.29 18.99 13.96 19.64 13.63 20.32L17.01 20.83 17.4 18.83 14.49 18.39Z" class="MsftOfcResponsive_Fill_7823dc" fill="#7823DC"/><path d="M12.25 24.15 16.37 24.11 16.35 22.08 12.92 22.11C12.65 22.6 12.43 23.12 12.25 24.15Z" class="MsftOfcResponsive_Fill_7823dc" fill="#7823DC"/><path d="M13.46 28.39 17.58 27.05 16.95 25.12 12.43 26.59C12.5 26.76 12.65 27.57 13.46 28.39Z" class="MsftOfcResponsive_Fill_7823dc" fill="#7823DC"/><path d="M17.46 31.17 19.34 28.76 18 27.29 15.81 30.09C15.94 30.22 16.53 30.75 17.46 31.17Z" class="MsftOfcResponsive_Fill_7823dc" fill="#7823DC"/><path d="M16.26 4.32 13.84 5.29C14.13 5.9 14.25 6.21 14.38 6.54" class="MsftOfcResponsive_Fill_7823dc" fill="#7823DC"/></g></svg>