<svg viewBox="0 0 32 32" xmlns="http://www.w3.org/2000/svg" xmlns:xlink="http://www.w3.org/1999/xlink" id="Layer_2_1_" overflow="hidden"><style>
.MsftOfcResponsive_Fill_7823dc {
 fill:#7823DC; 
}
</style>
<path d="M29.9 18C28.9 24.8 23.1 30 16 30 8.9 30 3.1 24.8 2.1 18L29.9 18M32 16 0 16C0 24.8 7.2 32 16 32 24.8 32 32 24.8 32 16L32 16Z" class="MsftOfcResponsive_Fill_7823dc" fill="#7823DC"/><path d="M20.1 30.3 18.9 26.9 21 23.7 21 20.8 22 16.8 24 17.2 23 21.1 23 24.3 21.1 27.1 21.9 29.7Z" class="MsftOfcResponsive_Fill_7823dc" fill="#7823DC"/><path d="M13 31.2 12.1 27.3 10.5 24.2 4.3 26 3.7 24 11.5 21.8 14 26.8 15 30.8Z" class="MsftOfcResponsive_Fill_7823dc" fill="#7823DC"/><g><path d="M11.1 3.9C11.6 3.9 12 4.3 12 4.8L12 10.1C12 10.6 11.6 11 11.1 11L8.9 11C8.4 11 8 10.6 8 10.1L8 4.7C8 4.2 8.4 3.8 8.9 3.8L11.1 3.8M11.1 1.9 8.9 1.9C7.3 1.9 6 3.1 6 4.7L6 10C6 11.7 7.3 13 8.9 13L11.1 13C12.7 13 14 11.7 14 10.1L14 4.7C14 3.1 12.7 1.9 11.1 1.9L11.1 1.9Z" class="MsftOfcResponsive_Fill_7823dc" fill="#7823DC"/><rect x="9" y="9" width="2" height="7" class="MsftOfcResponsive_Fill_7823dc" fill="#7823DC"/></g><g><path d="M23.1 3.9C23.6 3.9 24 4.3 24 4.8L24 10.1C24 10.6 23.6 11 23.1 11L20.9 11C20.4 11 20 10.6 20 10.1L20 4.8C20 4.3 20.4 3.9 20.9 3.9L23.1 3.9M23.1 1.9 20.9 1.9C19.3 1.9 18 3.2 18 4.8L18 10.1C18 11.7 19.3 13 20.9 13L23.1 13C24.7 13 26 11.7 26 10.1L26 4.8C26 3.2 24.7 1.9 23.1 1.9L23.1 1.9Z" class="MsftOfcResponsive_Fill_7823dc" fill="#7823DC"/><rect x="21" y="6" width="2" height="10" class="MsftOfcResponsive_Fill_7823dc" fill="#7823DC"/></g><g><path d="M17 2C17.6 2 18.1 2.5 18.1 3.1L18.1 9.8C18.1 10.4 17.6 10.9 17 10.9L15.2 10.9C14.6 10.9 14.1 10.4 14.1 9.8L14.1 3.1C14.1 2.5 14.6 2 15.2 2L17 2M17 0 15.2 0C13.5 0 12.1 1.4 12.1 3.1L12.1 9.8C12.1 11.5 13.5 12.9 15.2 12.9L17 12.9C18.7 12.9 20.1 11.5 20.1 9.8L20.1 3.1C20.1 1.4 18.7 0 17 0L17 0Z" class="MsftOfcResponsive_Fill_7823dc" fill="#7823DC"/><rect x="15.1" y="5" width="2" height="11" class="MsftOfcResponsive_Fill_7823dc" fill="#7823DC"/></g><g><path d="M-5.1 18C-6.1 24.8-11.9 30-19 30-26.1 30-31.9 24.8-32.9 18L-5.1 18M-3 16-35 16C-35 24.8-27.8 32-19 32-10.2 32-3 24.8-3 16L-3 16Z" class="MsftOfcResponsive_Fill_7823dc" fill="#7823DC"/></g><path d="M-12 17-13 21-13 24-15 27-14 30" class="MsftOfcResponsive_Fill_7823dc" stroke="#7823DC" stroke-width="2" stroke-miterlimit="10" fill="#7823DC" fill-rule="evenodd" clip-rule="evenodd"/><path d="M-31 25-24 23-22 27-21 31" class="MsftOfcResponsive_Fill_7823dc" stroke="#7823DC" stroke-width="2" stroke-miterlimit="10" fill="#7823DC" fill-rule="evenodd" clip-rule="evenodd"/><g><g><path d="M-23.9 3.9C-23.4 3.9-23 4.3-23 4.8L-23 10.1C-23 10.6-23.4 11-23.9 11L-26.1 11C-26.6 11-27 10.6-27 10.1L-27 4.7C-27 4.2-26.6 3.8-26.1 3.8L-23.9 3.8M-23.9 1.9-26.1 1.9C-27.7 1.9-29 3.2-29 4.8L-29 10.1C-29 11.7-27.7 13-26.1 13L-23.9 13C-22.3 13-21 11.7-21 10.1L-21 4.7C-21 3.1-22.3 1.9-23.9 1.9L-23.9 1.9Z" class="MsftOfcResponsive_Fill_7823dc" fill="#7823DC"/></g><g><line x1="-25" y1="9" x2="-25" y2="16" stroke="#231F20" stroke-width="2" stroke-miterlimit="10" fill="none"/></g></g><g><g><path d="M-11.9 3.9C-11.4 3.9-11 4.3-11 4.8L-11 10.1C-11 10.6-11.4 11-11.9 11L-14.1 11C-14.6 11-15 10.6-15 10.1L-15 4.8C-15 4.3-14.6 3.9-14.1 3.9L-11.9 3.9M-11.9 1.9-14.1 1.9C-15.7 1.9-17 3.2-17 4.8L-17 10.1C-17 11.7-15.7 13-14.1 13L-11.9 13C-10.3 13-9 11.7-9 10.1L-9 4.8C-9 3.2-10.3 1.9-11.9 1.9L-11.9 1.9Z" class="MsftOfcResponsive_Fill_7823dc" fill="#7823DC"/></g><g><line x1="-13" y1="6" x2="-13" y2="16" stroke="#231F20" stroke-width="2" stroke-miterlimit="10" fill="none"/></g></g><g><g><path d="M-18 2C-17.4 2-16.9 2.5-16.9 3.1L-16.9 9.8C-16.9 10.4-17.4 10.9-18 10.9L-19.8 10.9C-20.4 10.9-20.9 10.4-20.9 9.8L-20.9 3.1C-20.9 2.5-20.4 2-19.8 2L-18 2M-18 0-19.8 0C-21.5 0-22.9 1.4-22.9 3.1L-22.9 9.8C-22.9 11.5-21.5 12.9-19.8 12.9L-18 12.9C-16.3 12.9-14.9 11.5-14.9 9.8L-14.9 3.1C-14.9 1.4-16.3 0-18 0L-18 0Z" class="MsftOfcResponsive_Fill_7823dc" fill="#7823DC"/></g><g><line x1="-18.9" y1="5" x2="-18.9" y2="16" stroke="#231F20" stroke-width="2" stroke-miterlimit="10" fill="none"/></g></g></svg>