<svg viewBox="0 0 32 32" xmlns="http://www.w3.org/2000/svg" xmlns:xlink="http://www.w3.org/1999/xlink" id="Layer_1" overflow="hidden"><style>
.MsftOfcThm_Text2_Fill_v2 {
 fill:#7823DC; 
}
</style>
<defs></defs><path d="M14.18 32 13.69 32 5.82 22.02 8.18 17.07 9.98 17.93 8.16 21.75 14.65 29.98C18.85 29.8 25.27 27.34 26.72 22.25L28.64 22.8C26.83 29.14 19.09 31.99 14.17 31.99Z" class="MsftOfcThm_Text2_Fill_v2" stroke-width="0" fill="#7823DC"/><path d="M32 18.44 0 18.44 0 16.44C0 16.44 4.17 13.4 4.17 13.4 4.3 9.83 5.75 6.5 8.29 4 10.96 1.37 14.51-0.04 18.27 0 25.84 0.1 32 6.53 32 14.33L32 18.45ZM3.4 16.44 30 16.44 30 14.32C30 7.61 24.73 2.08 18.24 1.99 14.99 1.95 11.97 3.16 9.69 5.41 7.41 7.66 6.15 10.68 6.15 13.91L6.15 14.42 3.39 16.44Z" class="MsftOfcThm_Text2_Fill_v2" stroke-width="0" fill="#7823DC"/><path d="M31.79 23.54 24.29 23.54 20.6 18 22.26 16.89 25.36 21.54 28.05 21.54 25.69 18 27.36 16.89 31.79 23.54Z" class="MsftOfcThm_Text2_Fill_v2" stroke-width="0" fill="#7823DC"/><rect x="19.77" y="8.41" width="2" height="2.41" class="MsftOfcThm_Text2_Fill_v2" stroke-width="0" fill="#7823DC" transform="matrix(0.894389 -0.447291 0.447291 0.894389 -2.11 10.3)"/><rect x="24.08" y="8.41" width="2" height="2.41" class="MsftOfcThm_Text2_Fill_v2" stroke-width="0" fill="#7823DC" transform="matrix(0.894389 -0.447291 0.447291 0.894389 -1.65 12.23)"/></svg>