<svg viewBox="0 0 32 32" xmlns="http://www.w3.org/2000/svg" xmlns:xlink="http://www.w3.org/1999/xlink" id="Layer_1" xml:space="preserve" overflow="hidden"><g><path d="M20.6 15.2 19.2 13.8C20 13 20.5 11.8 20.5 10.6 20.5 8.1 18.5 6.1 16.1 6.1 13.7 6.1 11.7 8.1 11.7 10.6 11.7 11.8 12.2 12.9 13 13.8L11.6 15.2C10.4 14 9.7 12.4 9.7 10.6 9.7 7 12.6 4.1 16.1 4.1 19.7 4.1 22.5 7 22.5 10.6 22.5 12.4 21.8 14 20.6 15.2Z" fill="#7823DC"/><g><defs><path d="M0 32 32 32 32 0 0 0 0 32Z" id="SVGID_1_" fill="#7823DC"/></defs><clipPath id="SVGID_00000123439479395693633100000013513344396280583567_"><use width="100%" height="100%" xlink:href="#SVGID_1_" overflow="visible"></use></clipPath><path d="M16 32C10.6 32 6.3 27.6 6.3 22.3 6.3 18.6 8.4 15.2 11.7 13.6L12.3 13.3 12.8 13.8C13.6 14.6 14.8 15.1 15.9 15.1 17.1 15.1 18.2 14.6 19 13.8L19.5 13.3 20.1 13.6C23.4 15.2 25.5 18.6 25.5 22.3 25.7 27.7 21.4 32 16 32ZM12 15.7C9.7 17.1 8.3 19.6 8.3 22.3 8.3 26.6 11.8 30 16 30 20.2 30 23.7 26.5 23.7 22.3 23.7 19.6 22.3 17.1 20 15.7 18.9 16.6 17.5 17.1 16 17.1 14.6 17.1 13.2 16.6 12 15.7Z" fill="#7823DC" clip-path="url(#SVGID_00000123439479395693633100000013513344396280583567_)"/><g clip-path="url(#SVGID_00000123439479395693633100000013513344396280583567_)"><defs><path d="M0 32 32 32 32 0 0 0 0 32Z" id="SVGID_00000111150369944702133610000000347559799135823266_" fill="#7823DC"/></defs><clipPath id="SVGID_00000042733815928081887230000011993355017454686125_"><use width="100%" height="100%" xlink:href="#SVGID_00000111150369944702133610000000347559799135823266_" overflow="visible"></use></clipPath><path d="M15.2 20.2 17.2 20.2 17.2 22.2 15.2 22.2 15.2 20.2Z" fill="#7823DC" fill-rule="evenodd" clip-rule="evenodd" clip-path="url(#SVGID_00000042733815928081887230000011993355017454686125_)"/><g clip-path="url(#SVGID_00000042733815928081887230000011993355017454686125_)"><defs><path d="M0 32 32 32 32 0 0 0 0 32Z" id="SVGID_00000062880839340202194950000016060170226963253173_" fill="#7823DC"/></defs><clipPath id="SVGID_00000041295510712893591030000003791835411949587363_"><use width="100%" height="100%" xlink:href="#SVGID_00000062880839340202194950000016060170226963253173_" overflow="visible"></use></clipPath><path d="M15 23.5 17.1 23.5 17.1 25.5 15 25.5 15 23.5Z" fill="#7823DC" fill-rule="evenodd" clip-rule="evenodd" clip-path="url(#SVGID_00000041295510712893591030000003791835411949587363_)"/><g clip-path="url(#SVGID_00000041295510712893591030000003791835411949587363_)"><defs><path d="M0 32 32 32 32 0 0 0 0 32Z" id="SVGID_00000126301515865773954040000001900628894937428391_" fill="#7823DC"/></defs><clipPath id="SVGID_00000116925729393812238970000015327078111282137501_"><use width="100%" height="100%" xlink:href="#SVGID_00000126301515865773954040000001900628894937428391_" overflow="visible"></use></clipPath><path d="M15.3 9.8C15.3 10.4 14.9 10.8 14.3 10.8 13.8 10.8 13.3 10.3 13.3 9.8 13.3 9.2 13.7 8.8 14.3 8.8 14.9 8.8 15.3 9.2 15.3 9.8L15.3 9.8Z" fill="#7823DC" fill-rule="evenodd" clip-rule="evenodd" clip-path="url(#SVGID_00000116925729393812238970000015327078111282137501_)"/><g clip-path="url(#SVGID_00000116925729393812238970000015327078111282137501_)"><defs><path d="M0 32 32 32 32 0 0 0 0 32Z" id="SVGID_00000092414366964063827650000017886750685315021704_" fill="#7823DC"/></defs><clipPath id="SVGID_00000181078608340311048720000002794410996301744055_"><use width="100%" height="100%" xlink:href="#SVGID_00000092414366964063827650000017886750685315021704_" overflow="visible"></use></clipPath><path d="M18.9 9.8C18.9 10.4 18.5 10.8 17.9 10.8 17.4 10.8 16.9 10.3 16.9 9.8 16.9 9.2 17.3 8.8 17.9 8.8 18.4 8.8 18.9 9.2 18.9 9.8L18.9 9.8Z" fill="#7823DC" fill-rule="evenodd" clip-rule="evenodd" clip-path="url(#SVGID_00000181078608340311048720000002794410996301744055_)"/><g clip-path="url(#SVGID_00000181078608340311048720000002794410996301744055_)"><defs><path d="M0 32 32 32 32 0 0 0 0 32Z" id="SVGID_00000042003950337149299480000006594268910553180558_" fill="#7823DC"/></defs><clipPath id="SVGID_00000108991313974866442710000010876701657771847835_"><use width="100%" height="100%" xlink:href="#SVGID_00000042003950337149299480000006594268910553180558_" overflow="visible"></use></clipPath><path d="M23.7 18.2 30.6 11.3 32 12.7 25.1 19.6" fill="#7823DC" fill-rule="evenodd" clip-rule="evenodd" clip-path="url(#SVGID_00000108991313974866442710000010876701657771847835_)"/><g clip-path="url(#SVGID_00000108991313974866442710000010876701657771847835_)"><defs><path d="M0 32 32 32 32 0 0 0 0 32Z" id="SVGID_00000155145766172344457370000013064929998310370945_" fill="#7823DC"/></defs><clipPath id="SVGID_00000029027942189341787900000011892761317950078398_"><use width="100%" height="100%" xlink:href="#SVGID_00000155145766172344457370000013064929998310370945_" overflow="visible"></use></clipPath><path d="M26 10.8 28 10.8 28 16.3 26 16.3 26 10.8Z" fill="#7823DC" fill-rule="evenodd" clip-rule="evenodd" clip-path="url(#SVGID_00000029027942189341787900000011892761317950078398_)"/><g clip-path="url(#SVGID_00000029027942189341787900000011892761317950078398_)"><defs><path d="M0 32 32 32 32 0 0 0 0 32Z" id="SVGID_00000160169562502785472870000008129935569023812750_" fill="#7823DC"/></defs><clipPath id="SVGID_00000014635614699779214640000010976383226315325076_"><use width="100%" height="100%" xlink:href="#SVGID_00000160169562502785472870000008129935569023812750_" overflow="visible"></use></clipPath><path d="M8.3 18.2 1.4 11.3 0 12.7 6.9 19.6" fill="#7823DC" fill-rule="evenodd" clip-rule="evenodd" clip-path="url(#SVGID_00000014635614699779214640000010976383226315325076_)"/><g clip-path="url(#SVGID_00000014635614699779214640000010976383226315325076_)"><defs><path d="M0 32 32 32 32 0 0 0 0 32Z" id="SVGID_00000107558143649919737290000013466035653111228327_" fill="#7823DC"/></defs><clipPath id="SVGID_00000127026811362865397930000007877676167821030297_"><use width="100%" height="100%" xlink:href="#SVGID_00000107558143649919737290000013466035653111228327_" overflow="visible"></use></clipPath><path d="M4 10.8 6 10.8 6 16.2 4 16.2 4 10.8Z" fill="#7823DC" fill-rule="evenodd" clip-rule="evenodd" clip-path="url(#SVGID_00000127026811362865397930000007877676167821030297_)"/><g clip-path="url(#SVGID_00000127026811362865397930000007877676167821030297_)"><defs><path d="M0 32 32 32 32 0 0 0 0 32Z" id="SVGID_00000172414992825033448180000004511755069913547941_" fill="#7823DC"/></defs><clipPath id="SVGID_00000108271688452052636580000003926707268445516723_"><use width="100%" height="100%" xlink:href="#SVGID_00000172414992825033448180000004511755069913547941_" overflow="visible"></use></clipPath><path d="M10 4.2 22 4.2 22 6.1 10 6.1 10 4.2Z" fill="#7823DC" fill-rule="evenodd" clip-rule="evenodd" clip-path="url(#SVGID_00000108271688452052636580000003926707268445516723_)"/><g clip-path="url(#SVGID_00000108271688452052636580000003926707268445516723_)"><defs><path d="M0 32 32 32 32 0 0 0 0 32Z" id="SVGID_00000088855713339340676050000005199375378294499003_" fill="#7823DC"/></defs><clipPath id="SVGID_00000091014373788665533460000001293550884107487877_"><use width="100%" height="100%" xlink:href="#SVGID_00000088855713339340676050000005199375378294499003_" overflow="visible"></use></clipPath><path d="M12 0 19.9 0 19.9 2 12 2 12 0Z" fill="#7823DC" fill-rule="evenodd" clip-rule="evenodd" clip-path="url(#SVGID_00000091014373788665533460000001293550884107487877_)"/><g clip-path="url(#SVGID_00000091014373788665533460000001293550884107487877_)"><defs><path d="M0 32 32 32 32 0 0 0 0 32Z" id="SVGID_00000021078411307623840970000005179877272642971036_" fill="#7823DC"/></defs><clipPath id="SVGID_00000166677217168646839080000005348251131973621398_"><use width="100%" height="100%" xlink:href="#SVGID_00000021078411307623840970000005179877272642971036_" overflow="visible"></use></clipPath><path d="M12 0 14 0 14 5.5 12 5.5 12 0Z" fill="#7823DC" fill-rule="evenodd" clip-rule="evenodd" clip-path="url(#SVGID_00000166677217168646839080000005348251131973621398_)"/><g clip-path="url(#SVGID_00000166677217168646839080000005348251131973621398_)"><defs><path d="M0 32 32 32 32 0 0 0 0 32Z" id="SVGID_00000090281077288072835480000012265215313361843357_" fill="#7823DC"/></defs><clipPath id="SVGID_00000119114412528284389890000012201202886843760531_"><use width="100%" height="100%" xlink:href="#SVGID_00000090281077288072835480000012265215313361843357_" overflow="visible"></use></clipPath><path d="M18 0 20 0 20 5.5 18 5.5 18 0Z" fill="#7823DC" fill-rule="evenodd" clip-rule="evenodd" clip-path="url(#SVGID_00000119114412528284389890000012201202886843760531_)"/></g></g></g></g></g></g></g></g></g></g></g></g></g></g></svg>