<svg viewBox="0 0 32 32" xmlns="http://www.w3.org/2000/svg" xmlns:xlink="http://www.w3.org/1999/xlink" id="Layer_5" overflow="hidden"><style>
.MsftOfcResponsive_Fill_7823dc {
 fill:#7823DC; 
}
</style>
<defs></defs><path d="M32 22 31.2 22C25.46 20.86 21.3 15.85 21.3 9.96L21.3 9.9C21.04 4.43 16.53 0.05 11 0.05 5.47 0.05 0.69 4.67 0.69 10.36 0.69 15 3.77 18.93 8 20.22L8 22 0 22 0 28 2 28 2 32 30 32 30 28 32 28 32 22ZM25.93 22 14 22 14 20.22C16.72 19.39 18.96 17.46 20.21 14.96 21.3 17.87 23.31 20.34 25.92 22.01ZM2.69 10.36C2.69 5.78 6.42 2.05 11 2.05 15.58 2.05 19.31 5.78 19.31 10.36 19.31 13.88 17.1 16.89 14 18.1L14 16.45C16.24 15.34 17.79 13.03 17.79 10.36 17.79 6.61 14.74 3.57 11 3.57 7.26 3.57 4.21 6.62 4.21 10.36 4.21 13.03 5.76 15.34 8 16.45L8 18.1C4.9 16.89 2.69 13.88 2.69 10.36ZM8 14.07C6.91 13.19 6.21 11.86 6.21 10.36 6.21 7.72 8.36 5.57 11 5.57 13.64 5.57 15.79 7.72 15.79 10.36 15.79 11.86 15.08 13.19 14 14.07L14 8 8 8 8 14.07ZM10 10 12 10 12 15.04C11.68 15.11 11.34 15.15 11 15.15 10.66 15.15 10.32 15.11 10 15.04L10 10ZM11 17.15C11.34 17.15 11.67 17.12 12 17.07L12 18.6C11.67 18.64 11.34 18.67 11 18.67 10.66 18.67 10.33 18.64 10 18.6L10 17.07C10.33 17.12 10.66 17.15 11 17.15ZM10 20.61C10.33 20.64 10.66 20.66 11 20.66 11.34 20.66 11.67 20.64 12 20.61L12 22 10 22 10 20.61ZM28 30 4 30 4 28 28 28 28 30ZM30 26 2 26 2 24 30 24 30 26Z" class="MsftOfcResponsive_Fill_7823dc" fill="#7823DC"/></svg>