<svg viewBox="0 0 32 32" xmlns="http://www.w3.org/2000/svg" xmlns:xlink="http://www.w3.org/1999/xlink" id="Layer_1" overflow="hidden"><style>
.MsftOfcResponsive_Fill_7823dc {
 fill:#7823DC; 
}
</style>
<defs></defs><path d="M20.72 30 11.28 30C6.16 30 2 25.84 2 20.72L2 11.28C2 6.16 6.16 2 11.28 2L20.72 2C25.4 2 29.36 5.5 29.93 10.13L31.91 9.89C31.22 4.25 26.4 0 20.72 0L11.28 0C5.06 0 0 5.06 0 11.28L0 20.72C0 26.94 5.06 32 11.28 32L20.72 32C24.87 32 28.67 29.73 30.65 26.08L28.89 25.13C27.27 28.13 24.14 30 20.72 30Z" class="MsftOfcResponsive_Fill_7823dc" fill="#7823DC"/><rect x="4" y="13.48" width="2" height="2" class="MsftOfcResponsive_Fill_7823dc" fill="#7823DC"/><path d="M6 11.28C6 10.77 6.07 10.27 6.21 9.79L4.29 9.23C4.09 9.9 3.99 10.59 3.99 11.29L3.99 11.49 5.99 11.49 5.99 11.29Z" class="MsftOfcResponsive_Fill_7823dc" fill="#7823DC"/><path d="M9.57 6.28C10.1 6.1 10.65 6 11.22 6L11.2 4C10.42 4 9.66 4.14 8.93 4.39L9.58 6.28Z" class="MsftOfcResponsive_Fill_7823dc" fill="#7823DC"/><rect x="4" y="17.48" width="2" height="2" class="MsftOfcResponsive_Fill_7823dc" fill="#7823DC"/><path d="M22.76 6.41 23.54 4.57C22.83 4.27 22.07 4.09 21.29 4.03L21.14 6.02C21.7 6.06 22.25 6.2 22.76 6.41Z" class="MsftOfcResponsive_Fill_7823dc" fill="#7823DC"/><path d="M25.25 8.58 26.97 7.55C26.57 6.89 26.08 6.29 25.49 5.78L24.18 7.29C24.61 7.66 24.97 8.09 25.26 8.57Z" class="MsftOfcResponsive_Fill_7823dc" fill="#7823DC"/><rect x="13.21" y="4" width="2" height="2" class="MsftOfcResponsive_Fill_7823dc" fill="#7823DC"/><path d="M6.5 22.96C6.26 22.45 6.1 21.91 6.04 21.35L4.05 21.59C4.14 22.36 4.36 23.11 4.69 23.81L6.5 22.95Z" class="MsftOfcResponsive_Fill_7823dc" fill="#7823DC"/><rect x="17.21" y="4" width="2" height="2" class="MsftOfcResponsive_Fill_7823dc" fill="#7823DC"/><rect x="14.18" y="26" width="2" height="2" class="MsftOfcResponsive_Fill_7823dc" fill="#7823DC"/><rect x="18.18" y="26" width="2" height="2" class="MsftOfcResponsive_Fill_7823dc" fill="#7823DC"/><path d="M23.48 25.22C23 25.52 22.48 25.73 21.94 25.86L22.4 27.81C23.15 27.63 23.87 27.34 24.53 26.93L23.48 25.23Z" class="MsftOfcResponsive_Fill_7823dc" fill="#7823DC"/><path d="M12.18 28 12.18 26 11.28 26C10.97 26 10.66 25.97 10.35 25.92L10.01 27.89C10.43 27.96 10.86 28 11.28 28L12.18 28Z" class="MsftOfcResponsive_Fill_7823dc" fill="#7823DC"/><path d="M8.78 25.37C8.29 25.1 7.84 24.76 7.45 24.35L6 25.72C6.53 26.28 7.15 26.76 7.83 27.12L8.78 25.36Z" class="MsftOfcResponsive_Fill_7823dc" fill="#7823DC"/><path d="M6.89 5.48C6.27 5.95 5.74 6.51 5.3 7.14L6.94 8.28C7.26 7.82 7.65 7.41 8.1 7.07L6.89 5.48Z" class="MsftOfcResponsive_Fill_7823dc" fill="#7823DC"/><path d="M12 12 12 22 11.28 22C10.57 22 10 21.43 10 20.72L10 11.28C10 10.57 10.57 10 11.28 10L20.72 10C21.17 10 21.6 10.24 21.83 10.64L23.56 9.63C22.97 8.63 21.89 8 20.73 8L11.29 8C9.48 8 8.01 9.47 8.01 11.28L8.01 20.72C8.01 22.53 9.48 24 11.29 24L20.73 24 20.73 22 14.01 22 14.01 20 30.01 20 30.01 22 32.01 22 32.01 12 12 12ZM14 14 16 14 16 16 18 16 18 14 20 14 20 16 22 16 22 14 24 14 24 16 26 16 26 14 30 14 30 18 14 18 14 14Z" class="MsftOfcResponsive_Fill_7823dc" fill="#7823DC"/><rect x="18" y="16" width="2" height="2" class="MsftOfcResponsive_Fill_7823dc" fill="#7823DC"/><rect x="22" y="16" width="2" height="2" class="MsftOfcResponsive_Fill_7823dc" fill="#7823DC"/><rect x="26" y="16" width="2" height="2" class="MsftOfcResponsive_Fill_7823dc" fill="#7823DC"/></svg>