<svg viewBox="0 0 32 32" xmlns="http://www.w3.org/2000/svg" xmlns:xlink="http://www.w3.org/1999/xlink" id="Graphic" overflow="hidden"><style>
.MsftOfcResponsive_Fill_7823dc {
 fill:#7823DC; 
}
</style>
<defs></defs><path d="M30 2.02157 30 18.0216 2 18.0216 2 2.02157 30 2.02157M28.05 0.02157 0 0.02157 0 20.0216 32 20.0216 32 4.02157Z" class="MsftOfcResponsive_Fill_7823dc" fill="#7823DC"/><path d="M18 20.0216 18 30 14 30 14 20.0216 18 20.0216M20 18.0216 12 18.0216 12 32 20 32Z" class="MsftOfcResponsive_Fill_7823dc" fill="#7823DC"/><path d="M25.98 30 5.98 30 5.98 32 25.98 32 25.98 30 25.98 30Z" class="MsftOfcResponsive_Fill_7823dc" fill="#7823DC"/><path d="M16 6.772 17.059 8.919 19.428 9.263 17.714 10.934 18.119 13.293 16 12.179 13.881 13.293 14.286 10.934 12.572 9.263 14.941 8.919 16 6.772Z" class="MsftOfcResponsive_Fill_7823dc" fill="#7823DC"/><rect x="23.9865" y="9.21206" width="2.036" height="4.07199" class="MsftOfcResponsive_Fill_7823dc" fill="#7823DC"/><rect x="26.0225" y="7.17607" width="2.036" height="6.10799" class="MsftOfcResponsive_Fill_7823dc" fill="#7823DC"/><rect x="21.9505" y="11.2704" width="2.38279" height="2.01362" class="MsftOfcResponsive_Fill_7823dc" fill="#7823DC"/><path d="M9.57145 9.064C9.57145 10.3296 7.2799 13.009 7.2799 13.009 7.2799 13.009 4.98835 10.3296 4.98835 9.064 4.98835 7.79841 6.01431 6.77245 7.2799 6.77245 8.54549 6.77245 9.57145 7.79841 9.57145 9.064Z" class="MsftOfcResponsive_Fill_7823dc" fill="#7823DC"/></svg>