<svg viewBox="0 0 32.0352 32.0002" xmlns="http://www.w3.org/2000/svg" xmlns:xlink="http://www.w3.org/1999/xlink" id="Graphic" overflow="hidden"><defs></defs><path d="M26.0176 8.00391C25.4428 8.00391 24.8884 8.08979 24.3616 8.24097L21.2391 2.00238 21.0288 2.00238 21.0288 2 23.0264 2C23.5801 2 24.0312 2.45117 24.0312 3.00488L26.0312 3.00488C26.0312 1.34765 24.6836-1.33227e-15 23.0264-1.33227e-15L20.6006-1.33227e-15 20.6006 0.00684 19.0109 0.00684 19.0109 2.00238 19.0023 2.00238 19.0109 2.01959 19.0109 2.02466 19.0135 2.02466 21.0012 5.9961 13.6851 5.9961 12.189 3.00684 14.032 3.00684 14.032 1.00684 7.97735 1.00684 7.97735 3.00684 9.95214 3.00684 11.7537 6.60639 9.31798 8.99537C8.36943 8.37043 7.23613 8.00391 6.01756 8.00391 2.6992 8.00391-2e-05 10.7031-2e-05 14.0215-2e-05 14.2427 0.01383 14.4606 0.03721 14.6758L0.03611 14.6758 0.03611 19.2871C0.03611 24.1123 3.96091 28.0371 8.78611 28.0371L11.985 28.0371C12.0536 30.2358 13.8467 32.0002 16.0621 32.0002L19.9721 32.0002 19.9721 30.0181 21.9782 30.0181 21.9782 28.0181 19.9721 28.0181 19.9721 26.0413 21.9782 26.0413 21.9782 24.0413 19.9721 24.0413 19.9721 22.0002 16.0621 22.0002C13.8215 22.0002 12.0067 23.8034 11.9775 26.0371L8.78611 26.0371C5.06443 26.0371 2.03611 23.0088 2.03611 19.2871L2.03611 18.5217C3.0983 19.4625 4.49021 20.0391 6.01756 20.0391 8.24907 20.0391 10.1964 18.8156 11.2353 17.0068L15.0488 17.0068C16.705 17.0068 18.0527 15.6592 18.0527 14.0029 18.0527 13.2811 17.7866 12.6269 17.3611 12.1083L21.7129 7.41804 22.5577 9.10597C21.0133 10.1963 20 11.9912 20 14.0215 20 17.3399 22.6992 20.0391 26.0176 20.0391 29.3359 20.0391 32.0351 17.3399 32.0351 14.0215 32.0351 10.7031 29.3359 8.00392 26.0176 8.00392ZM13.9722 26.0902C13.9776 24.9382 14.9102 24.0057 16.0621 24.0002L17.9722 24.0002 17.9722 30.0002 16.0621 30.0002C14.9102 29.9947 13.9776 29.0622 13.9722 27.9102L13.9722 26.0902ZM12.694 8.48499 13.3574 9.81037 13.9518 10.998 11.2121 10.998C11.0823 10.7758 10.9388 10.5632 10.7824 10.3602L12.694 8.48499ZM6.01758 18.0391C3.80274 18.0391 2 16.2363 2 14.0215 2 11.8066 3.80273 10.0039 6.01758 10.0039 7.04144 10.0039 7.96704 10.4008 8.67743 11.0339 7.18976 11.212 6.02832 12.4673 6.02832 14.0029 6.02832 15.5518 7.21124 16.8157 8.71851 16.9751 8.00348 17.6294 7.06055 18.0391 6.01758 18.0391ZM15.0488 15.0068 9.03223 15.0068C8.47852 15.0068 8.02832 14.5566 8.02832 14.0029 8.02832 13.4492 8.47852 12.998 9.03223 12.998L15.0488 12.998C15.6025 12.998 16.0527 13.4492 16.0527 14.0029 16.0527 14.2604 15.9484 14.49 15.7886 14.6678 15.6047 14.8725 15.3451 15.0068 15.0488 15.0068ZM16.004 10.6292 15.9858 10.593 15.0451 8.71339 14.6861 7.9961 18.4482 7.9961 16.004 10.6292ZM26.0176 18.0391C23.8027 18.0391 22 16.2363 22 14.0215 22 12.7762 22.5819 11.6751 23.4745 10.9376L23.8159 11.6196 25.408 14.8008 27.1971 13.9063 25.5387 10.593 25.2812 10.0784C25.5206 10.0337 25.7654 10.0039 26.0176 10.0039 28.2324 10.0039 30.0352 11.8067 30.0352 14.0215 30.0352 16.2363 28.2324 18.0391 26.0176 18.0391Z" fill="#7823DC"/></svg>