<svg viewBox="0 0 32 32" xmlns="http://www.w3.org/2000/svg" xmlns:xlink="http://www.w3.org/1999/xlink" overflow="hidden"><defs></defs><g id="Grid"><path d="M10.01 32 8.01 32 8.01 12.3 2.01 12.3 2.01 32 0.01 32 0.01 10.37 10.01 10.37 10.01 32Z" fill="#7823DC"/><path d="M8 12.15 2 12.15 2 5.39 8 5.39ZM4 10.15 6 10.15 6 7.39 4 7.39Z" fill="#7823DC"/><path d="M9.9 7.11 0.12 7.11 5 0.28ZM4 5.11 6 5.11 5 3.76Z" fill="#7823DC"/><path d="M8.13 31.26 0.12 22.55 1.54 21.02 9.54 29.73 8.13 31.26Z" fill="#7823DC"/><path d="M1.71 31.26 0.3 29.73 8.3 21.02 9.72 22.55 1.71 31.26Z" fill="#7823DC"/><path d="M8.13 21.88 0.12 13.36 1.54 11.86 9.54 20.38 8.13 21.88Z" fill="#7823DC"/><path d="M1.71 21.88 0.3 20.38 8.3 11.86 9.72 13.36 1.71 21.88Z" fill="#7823DC"/><rect x="12.01" y="30.01" width="19.99" height="2" fill="#7823DC"/><rect x="12.01" y="27.45" width="20" height="2" fill="#7823DC"/><path d="M20.2 29.45 12 29.45 12 20.24 20.2 20.24ZM14.01 27.45 18.2 27.45 18.2 22.24 14 22.24Z" fill="#7823DC"/><path d="M27.4 26.09 21.55 26.09 21.55 20.24 27.4 20.24ZM23.55 24.09 25.4 24.09 25.4 22.24 23.55 22.24Z" fill="#7823DC"/><rect x="13.95" y="5.89" width="2" height="4.78" fill="#7823DC"/><path d="M21.18 10 14.96 10 14.96 6.25 21.1 6.25 19.98 8.14 21.18 10Z" fill="#7823DC"/><path d="M12.59 10.36 12 10.36 12 12.36 12.58 12.36C22.2 12.36 30 19.39 30 28 30 28.14 30 28.29 30 28.43L32 28.5C32 28.33 32 28.17 32 28 32 18.29 23.3 10.36 12.59 10.36Z" fill="#7823DC"/></g></svg>