<svg viewBox="0 0 32 32" xmlns="http://www.w3.org/2000/svg" xmlns:xlink="http://www.w3.org/1999/xlink" id="Layer_1" overflow="hidden"><path d="M13.2 26.2 11.3 25.7 12.4 21.6 13.5 14.7 18.3 14.8 23.8 16.2 26 14.4 27.2 16 24.2 18.4 17.9 16.7 15.2 16.7 14.3 22Z" fill="#7823DC"/><path d="M9.7 14.1 5.9 12 6.6 10.2 9.6 11.9 13 9.6 15.6 8.9 15.5 5.8 17.2 5.7 17.4 10.5 13.5 11.5Z" fill="#7823DC"/><path d="M27.8 13.5C27.6 12.7 27.4 11.9 27 11.1 26.9 11.3 26.8 11.5 26.6 11.6 25.3 9.8 24.2 7.9 23.6 6.6 22.9 6 22.1 5.5 21.2 5.1 19.7 4.4 17.9 4 16 4 9.4 4 4 9.4 4 16 4 16.4 4 16.8 4.1 17.2 4.2 17.9 4.3 18.5 4.5 19.2 4.7 19 5 19 5.4 19 5.8 19 6.2 19.1 6.6 19.2 6.3 18.5 6.1 17.8 6 17 6 16.7 6 16.3 6 16 6 14.7 6.2 13.5 6.7 12.4 6.9 11.8 7.2 11.2 7.6 10.7 9.3 8 12.2 6.2 15.6 6 15.8 6 15.9 6 16.1 6 16.5 6 16.9 6 17.3 6.1 19 6.3 20.7 7 22 8 23.9 9.4 25.3 11.5 25.8 13.9 25.8 13.9 25.8 13.9 25.8 13.9 25.8 14.1 25.9 14.3 25.9 14.5 26 15 26 15.5 26 16 26 16.3 26 16.7 26 17 25.5 22 21.2 26 16 26 15.1 26 14.2 25.9 13.3 25.6 12.7 25.4 12 25.2 11.5 24.9 11.1 24.7 10.7 24.5 10.3 24.2 9.7 23.8 9.2 23.3 8.7 22.8 8.6 23.3 8.3 24 7.8 24.8 8.3 25.3 8.8 25.7 9.4 26 11.3 27.2 13.5 27.9 15.9 27.9 22.5 27.9 27.9 22.5 27.9 15.9 28 15.2 27.9 14.3 27.8 13.5ZM7.7 21.6C7.7 21.6 7.7 21.6 7.7 21.6 7.5 21.4 7.4 21.1 7.3 20.9 6.8 20.3 6.1 20 5.3 20 5.1 20 4.9 20 4.7 20.1 4.9 20.8 5.3 21.5 5.6 22.1L5.8 22.5C6.2 23.1 6.7 23.7 7.2 24.3 7.6 23.8 7.8 23.3 7.8 22.6 7.9 22.2 7.8 21.9 7.7 21.6Z" fill="#7823DC"/><g><path d="M6 17C5.8 17 5.6 17 5.3 17 4.8 17 4.4 17.1 4 17.2 1.7 17.8 0 19.9 0 22.4 0 25.4 5.4 32 5.4 32 5.4 32 7.9 29 9.5 26.1 9.8 25.5 10.1 24.9 10.4 24.3 10.7 23.6 10.8 23 10.8 22.5 10.8 19.6 8.7 17.4 6 17ZM7.8 24.8C7.2 26 6.3 27.3 5.3 28.7 3.6 26.2 2 23.4 2 22.4 2 20.9 3 19.6 4.4 19.2 4.7 19 5 19 5.4 19 5.8 19 6.2 19.1 6.6 19.2 7.9 19.7 8.8 20.9 8.8 22.4 8.8 22.5 8.8 22.7 8.7 22.9 8.6 23.3 8.3 24 7.8 24.8Z" fill="#7823DC"/><path d="M7.7 21.6C7.7 21.6 7.7 21.6 7.7 21.6 7.6 21.3 7.4 21.1 7.3 20.9 6.8 20.3 6.1 20 5.3 20 5.1 20 4.9 20 4.7 20.1 3.6 20.4 2.8 21.4 2.8 22.6 2.8 24 3.9 25.2 5.4 25.2 6.2 25.2 6.9 24.9 7.3 24.3 7.7 23.8 7.9 23.3 7.9 22.6 7.9 22.2 7.8 21.9 7.7 21.6ZM5.9 22.6C5.9 22.9 5.6 23.2 5.3 23.2 5 23.2 4.7 23 4.7 22.6 4.8 22.2 5 22 5.3 22 5.4 22 5.5 22 5.6 22.1 5.8 22.2 5.9 22.3 5.9 22.6 5.9 22.5 5.9 22.5 5.9 22.6Z" fill="#7823DC"/></g><g><path d="M26.6 0C23.7 0 21.3 2.3 21.2 5.2 21.2 5.3 21.2 5.3 21.2 5.4 21.2 6.1 21.5 7 22 8 23 10.1 24.7 12.5 25.8 13.9 25.8 13.9 25.8 13.9 25.8 13.9 26.3 14.6 26.6 15 26.6 15 26.6 15 27.1 14.4 27.7 13.5 29.3 11.4 31.9 7.4 31.9 5.3 32 2.4 29.6 0 26.6 0ZM27 11.2C26.9 11.4 26.8 11.6 26.6 11.7 25.3 9.9 24.2 8 23.6 6.7 23.4 6.1 23.2 5.7 23.2 5.4 23.2 3.5 24.7 2 26.6 2 28.5 2 30 3.5 30 5.4 30 6.4 28.7 8.8 27 11.2Z" fill="#7823DC"/><path d="M26.6 3C25.2 3 24 4.2 24 5.6 24 7 25.1 8.2 26.6 8.2 28 8.2 29.2 7 29.2 5.6 29.1 4.2 28 3 26.6 3ZM26.6 6.1C26.3 6.1 26 5.9 26 5.5 26 5.2 26.3 5 26.6 5 26.9 5 27.2 5.2 27.2 5.6 27.1 5.9 26.9 6.1 26.6 6.1Z" fill="#7823DC"/></g></svg>