<svg viewBox="0 0 32 32" xmlns="http://www.w3.org/2000/svg" xmlns:xlink="http://www.w3.org/1999/xlink" id="Layer_2_00000144328325245699140920000014890284756443101063_" xml:space="preserve" overflow="hidden"><style>
.MsftOfcResponsive_Fill_7823dc {
 fill:#7823DC; 
}
</style>
<path d="M16.2 32C16.1 32 16 32 15.9 32 15.9 32 15.9 32 15.9 32 15.1 32 14.9 31.2 13.9 27.1 13.5 25.5 13 23.3 12.6 21.7L-1.77636e-15 21.6-1.77636e-15 15.5 13.5 12.7 14.3 5.3 9.6 4.4 8 0 16.1 0.8 24.3 0 22.5 4.5 17.8 5.3 18.5 12.7 32.2 15.8 32.2 22 19.3 21.8C17.6 31.6 16.9 32 16.2 32ZM15 30.8C15 30.8 15 30.8 15 30.8L15 30.8C15 30.8 15 30.8 15 30.8ZM1.9 19.6 14.2 19.7 14.3 20.5C14.6 22.1 15.4 25.4 16 27.7 16.5 25.5 17 22.5 17.3 20.5L17.4 19.7 30 19.9 30 17.3 16.4 14.2 16 7.9 15.3 14.3 1.9 17 1.9 19.6ZM11 2.7 16 3.6 21.1 2.8 21.3 2.3 16.1 2.8 10.9 2.3 11 2.7Z" class="MsftOfcResponsive_Fill_7823dc" fill="#7823DC"/><g><path d="M15.9 23.1C15.5 23.1 15.2 23 14.8 22.8 14.1 22.3 13.8 21.4 13.7 20.7L13.7 12.9 18.3 12.9 18.3 20.7C18.1 21.7 17.4 22.9 16.1 23 16 23.1 16 23.1 15.9 23.1ZM15.6 14.6 15.6 20.5C15.6 20.7 15.8 21 15.9 21.2 16.1 21.1 16.3 20.8 16.3 20.4L16.3 14.5 15.6 14.5Z" class="MsftOfcResponsive_Fill_7823dc" fill="#7823DC"/></g></svg>