<svg viewBox="0 0 32 32" xmlns="http://www.w3.org/2000/svg" xmlns:xlink="http://www.w3.org/1999/xlink" id="Graphic" overflow="hidden"><g><defs><path d="M0 32 32 32 32 0 0 0 0 32Z" id="SVGID_1_" fill="#7823DC"/></defs><defs><path d="M0 0 32 0 32 32 0 32 0 0Z" id="SVGID_2_" fill="#7823DC"/></defs><clipPath id="SVGID_3_"><use width="100%" height="100%" xlink:href="#SVGID_1_" overflow="visible"></use></clipPath><clipPath id="SVGID_4_" clip-path="url(#SVGID_3_)"><use width="100%" height="100%" xlink:href="#SVGID_2_" overflow="visible"></use></clipPath><g clip-path="url(#SVGID_4_)"><defs><path d="M0 32 32 32 32 0 0 0 0 32Z" id="SVGID_5_" fill="#7823DC"/></defs><clipPath id="SVGID_6_"><use width="100%" height="100%" xlink:href="#SVGID_5_" overflow="visible"></use></clipPath><path d="M9.1 11.6 24.2 11.6 24.2 13.5 9.1 13.5 9.1 11.6Z" fill="#7823DC" clip-path="url(#SVGID_6_)"/><path d="M7.9 15.6 15.4 15.6 15.4 17.6 7.9 17.6 7.9 15.6Z" fill="#7823DC" clip-path="url(#SVGID_6_)"/><path d="M6.3 19.7 13.4 19.7 13.4 21.6 6.3 21.6 6.3 19.7Z" fill="#7823DC" clip-path="url(#SVGID_6_)"/><path d="M5 23.8 11.8 23.8 11.8 25.7 5 25.7 5 23.8Z" fill="#7823DC" clip-path="url(#SVGID_6_)"/><rect x="3.2" y="27.8" width="7.8" height="1.9" fill="#7823DC" clip-path="url(#SVGID_6_)"/><path d="M17.6 15.6 25.1 15.6 25.1 17.6 17.6 17.6 17.6 15.6Z" fill="#7823DC" clip-path="url(#SVGID_6_)"/><path d="M19.7 19.7 26.8 19.7 26.8 21.6 19.7 21.6 19.7 19.7Z" fill="#7823DC" clip-path="url(#SVGID_6_)"/><path d="M21.2 23.8 28.1 23.8 28.1 25.7 21.2 25.7 21.2 23.8Z" fill="#7823DC" clip-path="url(#SVGID_6_)"/><rect x="22.1" y="27.8" width="7.8" height="1.9" fill="#7823DC" clip-path="url(#SVGID_6_)"/><path d="M3 31.8 13.5 1.3 12.6 1 11.5 1 1 31.8 3 31.8Z" fill="#7823DC" clip-path="url(#SVGID_6_)"/><path d="M10.8 31.8 21.2 1.3 20.3 1 19.3 1 8.7 31.8 10.8 31.8Z" fill="#7823DC" clip-path="url(#SVGID_6_)"/><path d="M24.1 31.8 13.6 1 12.6 1 11.6 1.3 22.1 31.8 24.1 31.8Z" fill="#7823DC" clip-path="url(#SVGID_6_)"/><path d="M31.9 31.8 21.3 1 20.3 1 19.4 1.3 29.8 31.8 31.9 31.8Z" fill="#7823DC" clip-path="url(#SVGID_6_)"/></g></g></svg>