<svg width="32" height="32" viewBox="0 0 32 32" xmlns="http://www.w3.org/2000/svg" xmlns:xlink="http://www.w3.org/1999/xlink" overflow="hidden"><defs></defs><g><g><g><defs><rect x="0" y="0" width="32" height="32" id="SVGID_1_" fill="#7823DC"/></defs><clipPath id="SVGID_2_"><use width="100%" height="100%" xlink:href="#SVGID_1_"></use></clipPath><g clip-path="url(#SVGID_2_)"><defs><rect x="0" y="0" width="32" height="32" id="SVGID_3_" fill="#7823DC"/></defs><clipPath id="SVGID_4_"><use width="100%" height="100%" xlink:href="#SVGID_3_"></use></clipPath></g><g clip-path="url(#SVGID_2_)"><defs><rect x="0" y="0" width="32" height="32" id="SVGID_5_" fill="#7823DC"/></defs><clipPath id="SVGID_6_"><use width="100%" height="100%" xlink:href="#SVGID_5_"></use></clipPath></g><rect x="13" y="10" width="2" height="2" fill="#7823DC" fill-rule="evenodd" clip-rule="evenodd" clip-path="url(#SVGID_2_)"/><rect x="13" y="6" width="2" height="2" fill="#7823DC" fill-rule="evenodd" clip-rule="evenodd" clip-path="url(#SVGID_2_)"/><rect x="17" y="10" width="2" height="2" fill="#7823DC" fill-rule="evenodd" clip-rule="evenodd" clip-path="url(#SVGID_2_)"/><rect x="13" y="14" width="2" height="2" fill="#7823DC" fill-rule="evenodd" clip-rule="evenodd" clip-path="url(#SVGID_2_)"/><rect x="17" y="14" width="2" height="2" fill="#7823DC" fill-rule="evenodd" clip-rule="evenodd" clip-path="url(#SVGID_2_)"/><rect x="13" y="18" width="2" height="2" fill="#7823DC" fill-rule="evenodd" clip-rule="evenodd" clip-path="url(#SVGID_2_)"/><rect x="7" y="12" width="2" height="2" fill="#7823DC" fill-rule="evenodd" clip-rule="evenodd" clip-path="url(#SVGID_2_)"/><rect x="7" y="16" width="2" height="2" fill="#7823DC" fill-rule="evenodd" clip-rule="evenodd" clip-path="url(#SVGID_2_)"/><rect x="17" y="18" width="2" height="2" fill="#7823DC" fill-rule="evenodd" clip-rule="evenodd" clip-path="url(#SVGID_2_)"/><rect x="13" y="22" width="2" height="2" fill="#7823DC" fill-rule="evenodd" clip-rule="evenodd" clip-path="url(#SVGID_2_)"/><rect x="17" y="22" width="2" height="2" fill="#7823DC" fill-rule="evenodd" clip-rule="evenodd" clip-path="url(#SVGID_2_)"/><rect x="6" y="24" width="2" height="2" fill="#7823DC" fill-rule="evenodd" clip-rule="evenodd" clip-path="url(#SVGID_2_)"/><rect x="6" y="28" width="2" height="2" fill="#7823DC" fill-rule="evenodd" clip-rule="evenodd" clip-path="url(#SVGID_2_)"/><rect x="23.4" y="18" width="2" height="2" fill="#7823DC" fill-rule="evenodd" clip-rule="evenodd" clip-path="url(#SVGID_2_)"/><rect x="23.4" y="22" width="2" height="2" fill="#7823DC" fill-rule="evenodd" clip-rule="evenodd" clip-path="url(#SVGID_2_)"/><rect x="13" y="26" width="2" height="2" fill="#7823DC" fill-rule="evenodd" clip-rule="evenodd" clip-path="url(#SVGID_2_)"/><rect x="17" y="26" width="2" height="2" fill="#7823DC" fill-rule="evenodd" clip-rule="evenodd" clip-path="url(#SVGID_2_)"/><rect x="23.4" y="26" width="2" height="2" fill="#7823DC" fill-rule="evenodd" clip-rule="evenodd" clip-path="url(#SVGID_2_)"/></g></g><path d="M29 30 29 18 25 14 22 14 22 4.3 10 0.7 10 8 4 8 4 20 2 20 2 30 0 30 0 32 10 32 22 32 32 32 32 30 29 30ZM6 10 10 10 10 20 6 20 6 10ZM4 30 4 22 10 22 10 30 4 30ZM12 30 12 3.3 20 5.7 20 30 12 30ZM22 16 27 16 27 30 22 30 22 16Z" fill="#7823DC"/></g></svg>