<svg viewBox="0 0 32 32" xmlns="http://www.w3.org/2000/svg" xmlns:xlink="http://www.w3.org/1999/xlink" id="Layer_1" overflow="hidden"><path d="M14 17.1 12 17.1C12 16.6 11.7 16.3 11.3 16.3 10.9 16.3 10.6 16.7 10.6 17.1L8.6 17.1C8.6 15.5 9.8 14.3 11.3 14.3 12.8 14.3 14 15.6 14 17.1Z" fill="#7823DC"/><path d="M23.3 17 21.3 17C21.3 16.5 21 16.2 20.6 16.2 20.2 16.2 19.9 16.6 19.9 17L17.9 17C17.9 15.4 19.1 14.2 20.6 14.2 22.1 14.2 23.3 15.4 23.3 17Z" fill="#7823DC"/><path d="M28.2 18.6C28.2 17.9 28.1 17.2 27.9 16.5 26.7 10.7 21.9 6.4 16.1 6.4 10.3 6.4 5.4 10.7 4.3 16.5 4.3 16.5 4.3 16.5 4.3 16.5 4 16.4 3.7 16.3 3.3 16.3 1.5 16.3 0.1 17.9 0.1 19.9 0.1 21.9 1.5 23.5 3.3 23.5 3.8 23.5 4.2 23.4 4.6 23.2 4.6 23.2 4.6 23.2 4.6 23.2 6.2 28.3 10.7 32.1 16.1 32.1 21.5 32.1 26 28.4 27.6 23.2 27.8 22.5 28 21.8 28.1 21.1 28.2 20.5 28.2 19.9 28.2 19.2 28.2 19 28.2 18.8 28.2 18.6ZM3.3 21.4C2.7 21.4 2.1 20.7 2.1 19.8 2.1 18.9 2.6 18.2 3.3 18.2 3.6 18.2 3.8 18.3 4 18.5 4 18.7 4 18.9 4 19.1 4 19.8 4 20.4 4.1 21 3.9 21.3 3.6 21.4 3.3 21.4ZM26 21.4C25 26.3 21 30.1 16.1 30.1 11.2 30.1 7.1 26.4 6.2 21.4L6 18C6 18 6 18 6 18 6.5 12.6 10.8 8.3 16.1 8.3 21.3 8.3 25.6 12.6 26.2 18 26.2 18.4 26.3 18.8 26.3 19.1 26.2 19.9 26.1 20.7 26 21.4Z" fill="#7823DC"/><path d="M28.9 16.3C28.6 16.3 28.2 16.4 27.9 16.5 27.1 16.8 26.5 17.3 26.1 18.1 26.1 18.5 26.2 18.9 26.2 19.2 26.2 20 26.1 20.7 26 21.4 26.3 22.2 26.9 22.8 27.6 23.2 28 23.4 28.4 23.5 28.9 23.5 30.7 23.5 32.1 21.9 32.1 19.9 32.1 17.9 30.7 16.3 28.9 16.3ZM28.9 21.4C28.6 21.4 28.3 21.2 28.1 21 27.9 20.7 27.7 20.3 27.7 19.8 27.7 19.3 27.9 18.8 28.2 18.5 28.4 18.3 28.6 18.2 28.9 18.2 29.5 18.2 30.1 18.9 30.1 19.8 30.1 20.7 29.5 21.4 28.9 21.4Z" fill="#7823DC"/><rect x="16" y="3.9" width="5.8" height="2" fill="#7823DC" transform="matrix(0.6595 -0.7517 0.7517 0.6595 2.7521 15.8635)"/><path d="M16 28.6C12.5 28.6 9.6 25.6 9.6 21.9L9.6 20.9 22.4 20.9 22.4 21.9C22.4 25.6 19.5 28.6 16 28.6ZM11.7 22.9C12.1 25 13.9 26.6 16 26.6 18.1 26.6 19.9 25 20.3 22.9L11.7 22.9Z" fill="#7823DC"/></svg>