<svg viewBox="0 0 32.39 32" xmlns="http://www.w3.org/2000/svg" xmlns:xlink="http://www.w3.org/1999/xlink" id="Layer_1" overflow="hidden"><defs></defs><path d="M29.03 13.43 23.2 13.43C22.67 14.14 22.1 14.82 21.53 15.43L27.36 15.43 30 30 15.24 30 15.24 28.03 24.86 28.03 24.86 21.38 9.17 21.38 9.17 18.59 16.63 18.59C16.63 18.59 17.26 18.08 17.26 18.08 18 17.48 24.53 12.08 24.53 7.91 24.53 3.74 20.99 0 16.63 0 12.27 0 8.73 3.54 8.73 7.9 8.73 10.91 12.13 14.55 14.3 16.57L7.17 16.57 7.17 23.36 22.85 23.36 22.85 26.01 13.24 26.01 13.24 29.98 2.39 29.98 5.03 15.41 11.73 15.41C11.16 14.8 10.59 14.12 10.06 13.41L3.36 13.41 0 32 32.39 32 29.03 13.43ZM10.73 7.9C10.73 4.65 13.38 2 16.63 2 19.88 2 22.53 4.65 22.53 7.9 22.53 10.36 18.71 14.17 16.63 15.99 14.12 13.83 10.73 10.14 10.73 7.9Z" fill="#7823DC"/><path d="M20.8 7.9C20.8 5.6 18.93 3.73 16.63 3.73 14.33 3.73 12.46 5.6 12.46 7.9 12.46 10.2 14.33 12.07 16.63 12.07 18.93 12.07 20.8 10.2 20.8 7.9ZM14.47 7.9C14.47 6.7 15.44 5.73 16.64 5.73 17.84 5.73 18.81 6.7 18.81 7.9 18.81 9.1 17.84 10.07 16.64 10.07 15.44 10.07 14.47 9.1 14.47 7.9Z" fill="#7823DC"/></svg>