<svg width="36.5" height="36.6" viewBox="0 0 36.5 36.6" xmlns="http://www.w3.org/2000/svg" xmlns:xlink="http://www.w3.org/1999/xlink" overflow="hidden"><defs></defs><g><g><defs><path d="M0 36.5 36.5 36.5 36.5 0 0 0 0 36.5Z" id="SVGID_1_" fill="#7823DC"/></defs><clipPath id="SVGID_2_"><use width="100%" height="100%" xlink:href="#SVGID_1_"></use></clipPath><g clip-path="url(#SVGID_2_)"><defs><path d="M0 36.5 36.5 36.5 36.5 0 0 0 0 36.5Z" id="SVGID_3_" fill="#7823DC"/></defs><clipPath id="SVGID_4_"><use width="100%" height="100%" xlink:href="#SVGID_3_"></use></clipPath><path d="M29.4 6.9 27.2 32 27.2 32.2C27.2 33.3 26.4 34.2 25.2 34.3 25.2 34.3 25.1 34.3 25.1 34.3L11.4 34.3C10.3 34.3 9.4 33.4 9.3 32.3L9.3 32.1 7.1 7 29.5 7M31.9 4.6 4.6 4.6 7 32.3C7 34.7 8.9 36.6 11.3 36.6 11.3 36.6 11.3 36.6 11.4 36.6L25.1 36.6C27.5 36.6 29.4 34.7 29.4 32.4 29.4 32.4 29.4 32.4 29.4 32.4L31.9 4.6 31.9 4.6 31.9 4.6Z" fill="#7823DC" clip-path="url(#SVGID_4_)"/><path d="M10.5 9.2 12.8 9.1 14.3 31.9 12.1 32 10.5 9.2Z" fill="#7823DC" clip-path="url(#SVGID_4_)"/><path d="M24.4 32 22.2 31.9 23.7 9.1 26 9.2 24.4 32Z" fill="#7823DC" clip-path="url(#SVGID_4_)"/><path d="M17.1 9.1 19.4 9.1 19.4 32 17.1 32 17.1 9.1Z" fill="#7823DC" clip-path="url(#SVGID_4_)"/><path d="M25.1 5.5 22.8 5.5 22.8 3.6C22.8 3.5 22.5 3.2 21.8 2.9 20.9 2.6 19.6 2.4 18.3 2.4 15.3 2.4 13.7 3.2 13.7 3.6L13.7 5.5 11.4 5.5 11.4 3.6C11.4 1 15.1 0.1 18.3 0.1 19.9 0.1 21.5 0.3 22.6 0.8 24.8 1.6 25.1 2.9 25.1 3.6L25.1 5.5Z" fill="#7823DC" clip-path="url(#SVGID_4_)"/><path d="M2.3 4.5 34.2 4.5 34.2 6.8 2.3 6.8 2.3 4.5Z" fill="#7823DC" clip-path="url(#SVGID_4_)"/></g></g></g></svg>