<svg viewBox="0 0 32 32" xmlns="http://www.w3.org/2000/svg" xmlns:xlink="http://www.w3.org/1999/xlink" id="Layer_5" overflow="hidden"><style>
.MsftOfcResponsive_Fill_7823dc {
 fill:#7823DC; 
}
</style>
<defs></defs><path d="M26 4.06 26 0 0 0 0 32 26 32 26 28 32 28 32 4.06 26 4.06ZM18 2 24 2 24 4.06 18 4.06 18 2ZM10 2 16 2 16 4.06 10 4.06 10 2ZM8 26 8 30 2 30 2 2 8 2 8 6.06 14 6.06 14 26 8 26ZM16 30 10 30 10 28 16 28 16 30ZM16 26 16 6.06 22 6.06 22 26 16 26ZM24 30 18 30 18 28 24 28 24 30ZM30 26 24 26 24 6.06 30 6.06 30 26Z" class="MsftOfcResponsive_Fill_7823dc" fill="#7823DC"/><path d="M29.45 15.53 28 15.53 28 13 26 13 26 15.53 24.55 15.53 24.55 21.53 29.45 21.53 29.45 15.53ZM27.45 19.53 26.55 19.53 26.55 17.53 27.45 17.53 27.45 19.53Z" class="MsftOfcResponsive_Fill_7823dc" fill="#7823DC"/><rect x="25.28" y="8" width="3.45" height="2" class="MsftOfcResponsive_Fill_7823dc" fill="#7823DC"/><rect x="17.28" y="8" width="3.45" height="2" class="MsftOfcResponsive_Fill_7823dc" fill="#7823DC"/><path d="M20 13 18 13 18 15.53 16.55 15.53 16.55 21.53 21.45 21.53 21.45 15.53 20 15.53 20 13ZM19.45 19.53 18.55 19.53 18.55 17.53 19.45 17.53 19.45 19.53Z" class="MsftOfcResponsive_Fill_7823dc" fill="#7823DC"/><path d="M5 26.06C4.48 26.06 4.06 26.48 4.06 27 4.06 27.52 4.48 27.94 5 27.94 5.52 27.94 5.94 27.52 5.94 27 5.94 26.48 5.52 26.06 5 26.06Z" class="MsftOfcResponsive_Fill_7823dc" fill="#7823DC"/><circle cx="5" cy="4.83" r="0.94" class="MsftOfcResponsive_Fill_7823dc" fill="#7823DC"/></svg>