<svg viewBox="0 0 32 32" xmlns="http://www.w3.org/2000/svg" xmlns:xlink="http://www.w3.org/1999/xlink" overflow="hidden"><style>
.MsftOfcResponsive_Fill_7823dc {
 fill:#7823DC; 
}
</style>
<defs></defs><g id="Layer_3"><path d="M21.0769 4.6866 21.0769 0.0466 11.0768 0.0466 11.0768 4.6866 6.07685 10.6866 6.07685 32.0466 26.0769 32.0466 26.0769 10.6866ZM13.0768 2.0466 19.0769 2.0466 19.0769 4.0466 13.0768 4.0466ZM12.5469 6.0466 19.6069 6.0466 22.9469 10.0466 9.2069 10.0466ZM24.0769 30.0466 8.07685 30.0466 8.07685 28.0466 24.0769 28.0466ZM24.0769 26.0466 8.07685 26.0466 8.07685 12.0466 24.0769 12.0466Z" class="MsftOfcResponsive_Fill_7823dc" fill="#7823DC"/><path d="M21.5369 19.8321C20.9669 16.4321 16.9169 12.7921 16.7369 12.6421L16.1069 12.0821 16.0769 12.102 16.0469 12.0821 15.4169 12.6421C15.2369 12.7921 11.1869 16.4321 10.6169 19.8321 10.2944 21.3709 10.6839 22.9731 11.6769 24.1921 12.7983 25.4306 14.4069 26.1142 16.0769 26.0621 17.7468 26.1142 19.3555 25.4306 20.4769 24.1921 21.4698 22.9731 21.8593 21.3709 21.5369 19.8321ZM18.9569 22.8921C18.2151 23.6859 17.1621 24.1137 16.0769 24.0621 14.9917 24.1137 13.9386 23.6859 13.1969 22.8921 12.5966 22.1186 12.373 21.1175 12.5869 20.1621 12.8969 18.3121 14.8369 16.0221 16.0769 14.7721 17.3169 16.0221 19.2569 18.3121 19.5669 20.1621 19.7808 21.1175 19.5571 22.1186 18.9569 22.8921Z" class="MsftOfcResponsive_Fill_7823dc" fill="#7823DC"/></g></svg>