<svg viewBox="0 0 32 32" xmlns="http://www.w3.org/2000/svg" xmlns:xlink="http://www.w3.org/1999/xlink" xml:space="preserve" overflow="hidden"><style>
.MsftOfcResponsive_Fill_7823dc {
 fill:#7823DC; 
}
</style>
<g id="Layer_3"></g><g id="Layer_1"></g><g id="Layer_2"></g><g id="Layer_4"></g><g id="Layer_5"><g><path d="M28.59 21.05 27.9 19.19 29.96 18.43C30 18.34 30.03 18.16 30.03 18.03L30.03 14.78 27 14.32 26.82 14.2C26.46 13.96 17.83 8.4 8.56 14.73L7.44 13.1C17.02 6.55 26.24 11.55 27.72 12.43L32 13.07 32 18.01C32.02 18.79 31.71 19.86 30.77 20.24L28.59 21.05Z" class="MsftOfcResponsive_Fill_7823dc" fill="#7823DC"/><path d="M3.13 21.1 0 21.1 0 16.85C-0.11 14.82 2.96 13.79 3.58 13.6 6.37 12.69 8 12.95 8.17 12.98L7.82 14.93C7.8 14.93 6.5 14.73 4.17 15.49 2.95 15.86 1.97 16.55 1.98 16.79L1.98 19.11 3.13 19.11 3.13 21.1Z" class="MsftOfcResponsive_Fill_7823dc" fill="#7823DC"/><rect x="7.99" y="19.13" width="14.82" height="1.98" class="MsftOfcResponsive_Fill_7823dc" fill="#7823DC"/><path d="M25.53 23.7C23.56 23.7 21.95 22.09 21.95 20.12 21.95 18.15 23.55 16.54 25.53 16.54 27.51 16.54 29.11 18.14 29.11 20.12 29.11 22.1 27.51 23.7 25.53 23.7ZM25.53 18.52C24.65 18.52 23.93 19.24 23.93 20.12 23.93 21 24.65 21.72 25.53 21.72 26.41 21.72 27.13 21 27.13 20.12 27.13 19.24 26.41 18.52 25.53 18.52Z" class="MsftOfcResponsive_Fill_7823dc" fill="#7823DC"/><path d="M5.59 23.7C3.62 23.7 2.01 22.09 2.01 20.12 2.01 18.15 3.62 16.54 5.59 16.54 7.56 16.54 9.17 18.14 9.17 20.12 9.17 22.1 7.57 23.7 5.59 23.7ZM5.59 18.52C4.71 18.52 3.99 19.24 3.99 20.12 3.99 21 4.71 21.72 5.59 21.72 6.47 21.72 7.19 21 7.19 20.12 7.19 19.24 6.47 18.52 5.59 18.52Z" class="MsftOfcResponsive_Fill_7823dc" fill="#7823DC"/><path d="M7.71 14.92 7.7 12.94 23.33 12.93 24.58 11.62 26.01 12.98 24.18 14.91Z" class="MsftOfcResponsive_Fill_7823dc" fill="#7823DC"/><rect x="16.51" y="10.75" width="1.98" height="9.37" class="MsftOfcResponsive_Fill_7823dc" fill="#7823DC"/><rect x="12.96" y="15.55" width="2.44" height="1.98" class="MsftOfcResponsive_Fill_7823dc" fill="#7823DC"/><rect x="28.83" y="15.55" width="2.44" height="1.98" class="MsftOfcResponsive_Fill_7823dc" fill="#7823DC"/></g></g></svg>