<svg viewBox="0 0 32 32" xmlns="http://www.w3.org/2000/svg" xmlns:xlink="http://www.w3.org/1999/xlink" overflow="hidden"><defs></defs><g id="Layer_3"><path d="M20.4268 29.9727 11.5986 29.9727 5.0127 23.3867 5.0127 12.4922 10.6621 7.97266 21.3633 7.97266 27.0127 12.4922 27.0127 23.3867ZM12.4268 27.9727 19.5986 27.9727 25.0127 22.5586 25.0127 13.4531 20.6621 9.97266 11.3633 9.97266 7.0127 13.4531 7.0127 22.5586Z" fill="#7823DC"/><path d="M7.013 12.973 5.013 12.973 5.013 1.559 11.72 8.266 10.306 9.68 7.013 6.387 7.013 12.973Z" fill="#7823DC"/><path d="M27.013 12.973 25.013 12.973 25.013 6.387 21.72 9.68 20.306 8.266 27.013 1.559 27.013 12.973Z" fill="#7823DC"/><path d="M17.013 22.973 15.013 22.973 15.013 20.973 14.013 20.973 14.013 18.973 18.013 18.973 18.013 20.973 17.013 20.973 17.013 22.973Z" fill="#7823DC"/><rect x="5.0979" y="11.3645" width="2.00049" height="11.9019" fill="#7823DC" transform="matrix(0.110441 -0.993883 0.993883 0.110441 -11.7848 21.4639)"/><rect x="0.0127" y="19.9727" width="12" height="2" fill="#7823DC"/><rect x="19.9763" y="16.3152" width="11.9019" height="2.00049" fill="#7823DC" transform="matrix(0.993896 -0.110324 0.110324 0.993896 -1.75204 2.96611)"/><rect x="20.0127" y="19.9727" width="12" height="2" fill="#7823DC"/><rect x="13.0127" y="13.9727" width="2" height="2" fill="#7823DC"/><rect x="17.0127" y="13.9727" width="2" height="2" fill="#7823DC"/></g></svg>