<svg viewBox="0 0 32.14 32" xmlns="http://www.w3.org/2000/svg" xmlns:xlink="http://www.w3.org/1999/xlink" id="Layer_1" overflow="hidden"><style>
.MsftOfcResponsive_Fill_7823dc {
 fill:#7823DC; 
}
</style>
<defs></defs><path d="M32.14 22 30.07 15.91C30.49 14.11 30.27 12.69 29.42 11.69 28.65 10.79 27.54 10.48 26.68 10.38 26.95 7.62 25.44 6.14 25.37 6.07L23.98 7.51C23.98 7.51 24.49 8.06 24.65 9.05 24.49 8.97 24.33 8.89 24.16 8.84 23.56 8.64 22.68 8.55 21.64 8.98 21.14 6.97 20.46 5.78 20.09 5.25L20.09 2 14.08 2 14.08 5.25C13.54 6.05 12.28 8.33 11.99 12.58 10.12 7.85 6.95 1 4.06 0.13 3.28-0.1 2.53 0.04 1.89 0.54-1.67 3.31 1.26 12.47 2.56 16L2.09 16 2.09 16.04 0 22 2.09 22 2.09 32 30.09 32 30.09 22 32.14 22ZM4.09 18 28.09 18 28.09 20 4.09 20 4.09 18ZM23.55 10.74C24.1 10.92 24.45 11.41 24.54 11.69L24.81 12.47 25.63 12.36C25.63 12.36 27.22 12.18 27.91 12.99 28.51 13.69 28.29 15.01 27.99 16L20.75 16C20.56 14.65 20.48 12.11 21.75 11.21 22.42 10.73 23.03 10.58 23.55 10.75ZM16.09 5.95 16.09 3.99 18.1 3.99 18.1 5.94C18.1 5.94 18.34 6.22 18.34 6.22 18.35 6.23 19.32 7.45 19.88 10.24 18.47 11.92 18.56 14.59 18.73 15.99L13.98 15.99C13.92 14.89 13.93 13.89 13.98 12.99L18.1 12.99 18.1 10.99 14.19 10.99C14.71 7.66 15.84 6.24 15.85 6.23L16.1 5.95ZM3.12 2.12C3.25 2.02 3.34 2 3.49 2.05 4.3 2.29 5.33 3.6 6.4 5.44 4.44 5.93 2.85 6.83 2.78 6.87L3.78 8.6C3.78 8.6 5.5 7.62 7.39 7.26 7.74 7.95 8.1 8.67 8.44 9.42 6.46 9.9 4.86 10.82 4.79 10.86L5.79 12.59C5.79 12.59 7.42 11.66 9.28 11.28 9.96 12.86 10.6 14.48 11.14 15.99L4.7 15.99C2.75 11.02 1.05 3.73 3.12 2.12ZM28.09 25 20.09 25 20.09 27 28.09 27 28.09 30 4.09 30 4.09 27 12.09 27 12.09 25 4.09 25 4.09 22 28.09 22 28.09 25Z" class="MsftOfcResponsive_Fill_7823dc" fill="#7823DC"/><rect x="15.09" y="0" width="4" height="2" class="MsftOfcResponsive_Fill_7823dc" fill="#7823DC"/><path d="M16.09 28.5 18.36 26.23C18.67 25.92 18.83 25.51 18.83 25.1 18.83 24.69 18.67 24.28 18.36 23.97 18.05 23.66 17.64 23.5 17.23 23.5 16.82 23.5 16.41 23.66 16.1 23.97 15.79 23.66 15.38 23.5 14.97 23.5 14.56 23.5 14.15 23.66 13.84 23.97 13.21 24.59 13.21 25.61 13.84 26.24L16.11 28.51Z" class="MsftOfcResponsive_Fill_7823dc" fill="#7823DC"/></svg>