<svg viewBox="0 0 32 32" xmlns="http://www.w3.org/2000/svg" xmlns:xlink="http://www.w3.org/1999/xlink" xml:space="preserve" overflow="hidden"><style>
.MsftOfcResponsive_Fill_7823dc {
 fill:#7823DC; 
}
</style>
<g id="Layer_3"></g><g id="Layer_1"></g><g id="Layer_2"></g><g id="Layer_4"></g><g id="Layer_5"><path d="M16.07 31.06C15.08 31.06 14.09 30.96 13.12 30.76L13.52 28.8C15.65 29.24 17.92 29.11 19.99 28.44L20.61 30.34C19.15 30.81 17.62 31.06 16.07 31.06ZM4.21 25.03C2.71 22.98 1.77 20.56 1.48 18.03L3.47 17.81C3.71 19.99 4.53 22.08 5.82 23.85L4.21 25.03ZM28.83 23.64 27.09 22.65C28.17 20.75 28.74 18.58 28.74 16.38L30.74 16.32 30.74 16.38C30.74 18.93 30.08 21.44 28.83 23.64ZM5.79 8.95 4.17 7.78C5.66 5.72 7.67 4.08 9.97 3.02L10.8 4.84C8.82 5.75 7.08 7.17 5.79 8.95ZM25.4 7.81C23.91 6.19 22.02 4.98 19.94 4.31L20.55 2.41C22.96 3.18 25.15 4.58 26.87 6.46L25.4 7.81Z" class="MsftOfcResponsive_Fill_7823dc" fill="#7823DC"/><path d="M15.19 7.26C13.34 7.26 11.83 5.75 11.83 3.9 11.83 2.05 13.34 0.54 15.19 0.54 17.04 0.54 18.55 2.05 18.55 3.9 18.55 5.75 17.05 7.26 15.19 7.26ZM15.19 2.53C14.44 2.53 13.83 3.14 13.83 3.89 13.83 4.64 14.44 5.25 15.19 5.25 15.94 5.25 16.55 4.64 16.55 3.89 16.55 3.14 15.94 2.53 15.19 2.53Z" class="MsftOfcResponsive_Fill_7823dc" fill="#7823DC"/><path d="M28.59 14.81C26.74 14.81 25.23 13.3 25.23 11.45 25.23 9.6 26.74 8.09 28.59 8.09 30.44 8.09 31.95 9.6 31.95 11.45 31.95 13.3 30.44 14.81 28.59 14.81ZM28.59 10.09C27.84 10.09 27.23 10.7 27.23 11.45 27.23 12.2 27.84 12.81 28.59 12.81 29.34 12.81 29.95 12.2 29.95 11.45 29.95 10.7 29.34 10.09 28.59 10.09Z" class="MsftOfcResponsive_Fill_7823dc" fill="#7823DC"/><path d="M24.38 29.84C22.53 29.84 21.02 28.33 21.02 26.48 21.02 24.63 22.53 23.12 24.38 23.12 26.23 23.12 27.74 24.63 27.74 26.48 27.74 28.33 26.23 29.84 24.38 29.84ZM24.38 25.12C23.63 25.12 23.02 25.73 23.02 26.48 23.02 27.23 23.63 27.84 24.38 27.84 25.13 27.84 25.74 27.23 25.74 26.48 25.74 25.73 25.13 25.12 24.38 25.12Z" class="MsftOfcResponsive_Fill_7823dc" fill="#7823DC"/><path d="M9.08 30.56C7.23 30.56 5.72 29.05 5.72 27.2 5.72 25.35 7.23 23.84 9.08 23.84 10.93 23.84 12.44 25.35 12.44 27.2 12.44 29.05 10.93 30.56 9.08 30.56ZM9.08 25.83C8.33 25.83 7.72 26.44 7.72 27.19 7.72 27.94 8.33 28.55 9.08 28.55 9.83 28.55 10.44 27.94 10.44 27.19 10.44 26.44 9.83 25.83 9.08 25.83Z" class="MsftOfcResponsive_Fill_7823dc" fill="#7823DC"/><path d="M3.41 16.41C1.56 16.41 0.05 14.9 0.05 13.05 0.05 11.2 1.56 9.69 3.41 9.69 5.26 9.69 6.77 11.2 6.77 13.05 6.77 14.9 5.27 16.41 3.41 16.41ZM3.41 11.69C2.66 11.69 2.05 12.3 2.05 13.05 2.05 13.8 2.66 14.41 3.41 14.41 4.16 14.41 4.77 13.8 4.77 13.05 4.77 12.3 4.16 11.69 3.41 11.69Z" class="MsftOfcResponsive_Fill_7823dc" fill="#7823DC"/><path d="M15.11 26.52 14.89 18.7 9.72 18.72 14.1 8.95 21.14 8.95 18.3 13.8 22.09 13.8 15.11 26.52ZM16.83 16.69 16.9 19.1 18.72 15.8 14.82 15.8 17.65 10.95 15.39 10.95 12.81 16.71 16.83 16.69Z" class="MsftOfcResponsive_Fill_7823dc" fill="#7823DC"/></g></svg>