<svg width="32" height="32" viewBox="0 0 32 32" xmlns="http://www.w3.org/2000/svg" xmlns:xlink="http://www.w3.org/1999/xlink" overflow="hidden"><defs></defs><g><g><defs><rect x="0" y="0" width="32" height="32" id="SVGID_1_" fill="#7823DC"/></defs><clipPath id="SVGID_2_"><use width="100%" height="100%" xlink:href="#SVGID_1_"></use></clipPath><path d="M21.4 6.7 19.4 6.7 19.4 7.6C18.1 7.7 17.1 8.7 17 10 17 11.5 17.7 12.2 19.4 12.5L19.4 14C19.1 13.8 18.9 13.5 18.9 13.1L16.8 13.1C16.8 14.5 17.9 15.7 19.4 15.7L19.4 16.6 21.4 16.6 21.4 15.7C22.8 15.7 24 14.5 24 13.1L24 13.1C24 11.5 23 10.9 21.4 10.7L21.4 9.3C21.6 9.5 21.8 9.7 21.8 10L23.8 10C23.7 8.7 22.7 7.6 21.3 7.6L21.3 6.7ZM19.4 10.4C19.2 10.3 19 10.1 19 9.8 19 9.6 19.1 9.3 19.3 9.2L19.4 10.4 19.4 10.4ZM21.4 14.1 21.4 12.8C21.7 12.9 21.9 13.1 21.9 13.4 21.9 13.7 21.7 14 21.4 14.1" fill="#7823DC" clip-path="url(#SVGID_2_)"/><path d="M21 23.2C19.9 26.6 17 29.2 13.4 29.8 12.9 29.9 12.3 29.9 11.8 29.9 6.5 29.9 2.2 25.6 2.2 20.3 2.2 19.8 2.3 19.2 2.3 18.7 2.9 15.1 5.4 12.2 8.9 11.1 8.9 10.6 9 10.1 9.1 9.6 9.1 9.4 9.2 9.1 9.2 8.9 2.9 10.2-1.1 16.4 0.3 22.7 1.5 28.1 6.3 32 11.8 31.9 12.4 31.9 13.1 31.8 13.7 31.7 18.4 30.9 22.1 27.4 23.1 22.8 22.9 22.9 22.6 22.9 22.4 22.9 22 23.2 21.5 23.2 21 23.2" fill="#7823DC" clip-path="url(#SVGID_2_)"/><path d="M9.9 16.5C9 16.8 8.3 17.7 8.3 18.7 8.3 20.2 9 20.9 10.7 21.2L10.7 22.7C10.4 22.5 10.2 22.2 10.2 21.8L8.2 21.8C8.2 23.2 9.4 24.4 10.8 24.4L10.8 25.3 12.8 25.3 12.8 24.4C14.2 24.4 15.3 23.3 15.4 22 13.5 21.1 12 19.7 10.8 18L10.8 19.1C10.6 19 10.4 18.8 10.5 18.5 10.5 18.3 10.6 18.1 10.8 17.9 10.4 17.5 10.2 17 9.9 16.5M12.8 22.8 12.8 21.5C13.1 21.6 13.3 21.8 13.3 22.1 13.2 22.4 13 22.7 12.8 22.8" fill="#7823DC" clip-path="url(#SVGID_2_)"/><path d="" fill="#7823DC" clip-path="url(#SVGID_2_)"/><path d="M20.4 0C15 0 10.3 3.8 9.1 9 9.1 9.2 9 9.5 9 9.7 8.9 10.2 8.9 10.7 8.8 11.2L8.8 11.7C8.8 13.4 9.2 15 9.9 16.6 10.1 17.1 10.4 17.6 10.7 18.1 11.8 19.8 13.4 21.2 15.3 22.2 16.9 23 18.7 23.4 20.5 23.4L20.9 23.4C21.4 23.4 21.9 23.3 22.4 23.2 22.6 23.2 22.8 23.1 23.1 23.1 29.3 21.6 33.2 15.4 31.7 9.1 30.5 3.8 25.8 0.1 20.4 0M23.3 20.8C22.9 20.9 22.5 21 22 21.1L21.3 21.2C21 21.2 20.7 21.2 20.4 21.2 15.1 21.2 10.8 16.9 10.8 11.6L10.8 10.7C10.8 10.4 10.9 10.2 10.9 10 11 9.6 11.1 9.1 11.2 8.7 12.8 3.6 18.2 0.9 23.3 2.5 28.4 4.1 31.1 9.5 29.5 14.6 28.6 17.6 26.3 19.9 23.3 20.8L23.3 20.8Z" fill="#7823DC" clip-path="url(#SVGID_2_)"/></g></g></svg>