<svg width="32" height="32" viewBox="0 0 32 32" xmlns="http://www.w3.org/2000/svg" xmlns:xlink="http://www.w3.org/1999/xlink" overflow="hidden"><defs></defs><g><g><defs><rect x="0" y="0" width="32" height="32" id="SVGID_1_" fill="#7823DC"/></defs><clipPath id="SVGID_2_"><use width="100%" height="100%" xlink:href="#SVGID_1_"></use></clipPath><path d="M19.6 22 18.6 23 13.4 23 12.4 22 0 22 0 24 11.6 24 12.6 25 19.4 25 20.4 24 32 24 32 22Z" fill="#7823DC" clip-path="url(#SVGID_2_)"/><path d="M30 24 30 26 2 26 2 24 0 22 0 24.1 3.9 28 28.1 28 32 24.1 32 22Z" fill="#7823DC" clip-path="url(#SVGID_2_)"/><line x1="16" y1="19.9" x2="16" y2="14.1" stroke="#6C4D9F" stroke-width="2" stroke-miterlimit="10" fill="none" clip-path="url(#SVGID_2_)"/><path d="M23.3 11.6 16 7.9 8.7 11.6 8.8 11.6 8.8 17 16 21 23.3 16.9 23.3 11.6 23.3 11.6ZM16 10.1 18.9 11.5 16 13 13.1 11.6 16 10.1ZM21.3 15.8 16 18.8 10.7 15.8 10.7 12.6 16 15.2 21.3 12.6 21.3 15.8Z" fill="#7823DC" clip-path="url(#SVGID_2_)"/><path d="M3 4 3 22.3 5 22.2 5 6 27 6 27 22.2 29 22.3 29 4" fill="#7823DC" clip-path="url(#SVGID_2_)"/></g></g></svg>