<svg width="32" height="32" viewBox="0 0 32 32" xmlns="http://www.w3.org/2000/svg" xmlns:xlink="http://www.w3.org/1999/xlink" overflow="hidden"><defs></defs><g><g><g><defs><rect x="0" y="0" width="32" height="32" id="SVGID_1_" fill="#7823DC"/></defs><clipPath id="SVGID_2_"><use width="100%" height="100%" xlink:href="#SVGID_1_"></use></clipPath><g clip-path="url(#SVGID_2_)"><defs><rect x="0" y="0" width="32" height="32" id="SVGID_3_" fill="#7823DC"/></defs><clipPath id="SVGID_4_"><use width="100%" height="100%" xlink:href="#SVGID_3_"></use></clipPath></g></g></g><path d="M16 32C7.2 32 0 24.8 0 16 0 7.2 7.2 0 16 0 24.8 0 32 7.2 32 16 32 24.8 24.8 32 16 32ZM16 2C8.3 2 2 8.3 2 16 2 23.7 8.3 30 16 30 23.7 30 30 23.7 30 16 30 8.3 23.7 2 16 2Z" fill="#7823DC"/><g><path d="M10.5 19.6 12.3 19.6C12.6 21.3 13.3 22.5 15.7 22.5 17.8 22.5 19.2 21.1 19.2 18.7 19.2 16.5 17.9 15 15.9 15 14.1 15 13 15.6 12.2 16.5L11.5 16.5 11.5 8.1 20.3 8.1 20.3 9.8 13 9.8 13 14.6C13.6 14 14.7 13.5 16.2 13.5 19 13.5 21.1 15.5 21.1 18.7 21.1 22 18.7 24 15.7 24 12.3 24.1 10.7 22.2 10.5 19.6Z" fill="#7823DC"/></g></g></svg>