<svg viewBox="0 0 32 32" xmlns="http://www.w3.org/2000/svg" xmlns:xlink="http://www.w3.org/1999/xlink" id="Layer_1" overflow="hidden"><style>
.MsftOfcThm_Text2_Fill_v2 {
 fill:#7823DC; 
}
</style>
<defs></defs><path d="M23 14 5.42 14C2.43 14 0 10.86 0 7 0 3.14 2.43 0 5.42 0L23 0 23 14ZM5.42 2C3.57 2 2 4.29 2 7 2 9.71 3.57 12 5.42 12L21 12 21 2 5.42 2Z" class="MsftOfcThm_Text2_Fill_v2" stroke-width="0" fill="#7823DC"/><path d="M25.45 12.5 21 12.5 21 1.5 25.45 1.5C27.44 1.5 29 3.06 29 5.05L29 8.8C29 10.8 27.37 12.5 25.45 12.5ZM23 10.5 25.45 10.5C26.28 10.5 27 9.71 27 8.8L27 5.05C27 4.29 26.42 3.5 25.45 3.5L23 3.5 23 10.5Z" class="MsftOfcThm_Text2_Fill_v2" stroke-width="0" fill="#7823DC"/><rect x="27.83" y="6" width="4.17" height="2" class="MsftOfcThm_Text2_Fill_v2" stroke-width="0" fill="#7823DC"/><rect x="12" y="14.76" width="2.51" height="2" class="MsftOfcThm_Text2_Fill_v2" stroke-width="0" fill="#7823DC"/><path d="M9.8 27.5 0.86 27.5 4.81 12 13.75 12 9.8 27.5ZM3.43 25.5 8.24 25.5 11.17 14 6.36 14 3.43 25.5Z" class="MsftOfcThm_Text2_Fill_v2" stroke-width="0" fill="#7823DC"/><path d="M12.57 32 0 32 0 29.2C0 27.12 1.34 25.5 3.06 25.5L7.76 25.5C9.72 25.5 11.36 26.97 11.94 29.25L12.57 32ZM2 30 10.06 30 10 29.72C9.66 28.38 8.78 27.5 7.77 27.5L3.06 27.5C2.56 27.5 2 28.2 2 29.2L2 30Z" class="MsftOfcThm_Text2_Fill_v2" stroke-width="0" fill="#7823DC"/><path d="M13.98 20 10.53 20 10.53 18 13.98 18C15.39 18 16.57 16.94 16.99 15.31L17.51 12.8 19.47 13.21 18.94 15.76C18.29 18.32 16.31 20.01 13.98 20.01Z" class="MsftOfcThm_Text2_Fill_v2" stroke-width="0" fill="#7823DC"/></svg>