<svg viewBox="0 0 32 32" xmlns="http://www.w3.org/2000/svg" xmlns:xlink="http://www.w3.org/1999/xlink" id="Layer_2_00000144328325245699140920000014890284756443101063_" xml:space="preserve" overflow="hidden"><g><path d="M32 24 32 18.7 32 18.7C32 14.3 24.8 10.7 16 10.7 7.2 10.7 0 14.3 0 18.7L0 24.2 0 24.2C0.2 28.5 7.3 32 16 32 24.7 32 31.8 28.5 32 24.2L32 24.2 32 24 32 24 32 24 32 24ZM16 12.7C24 12.7 30 15.9 30 18.7 30 21.5 24 24.7 16 24.7 8 24.7 2 21.5 2 18.7 2 15.9 8 12.7 16 12.7L16 12.7ZM16 30C8 30 2 26.8 2 24L2 22.5C4.7 25 10 26.6 16 26.6 22 26.6 27.3 24.9 30 22.5L30 24C30 26.8 24 30 16 30L16 30Z" fill="#7823DC" fill-rule="evenodd" clip-rule="evenodd"/><path d="M12.8 18.9C12.7 18.4 12.7 18 12.6 17.5L12.4 16.4 12.6 15.5C12.6 15.3 12.7 15.2 12.7 15 12.7 14.6 12.4 14.3 12.4 14.2 12.2 14.1 12.1 13.9 11.9 13.8L11 13.1 10.7 13.9C10.5 14.3 10.4 14.8 10.5 15.5 10.7 16.5 10.8 17.6 10.9 18.5L10.9 18.7C10.9 19 11 19.3 10.9 19.5 10.8 19.8 10.7 20 10.4 20.1 10.1 20.3 9.7 20.3 9.3 20.2 8.9 20.1 8.8 19.9 8.9 19.5 8.9 19.3 9 19 9.2 18.7 9.3 18.6 9.7 17.5 9.7 17.5L8 16.6 7.7 17.2C7.3 17.8 7 18.6 6.9 19.6 6.8 20.9 7.6 21.9 8.9 22.2 9.1 22.2 9.4 22.3 9.7 22.3 9.9 22.3 10 22.3 10.2 22.3 11.9 22 13.1 20.6 12.8 18.9L12.8 18.9Z" fill="#7823DC" fill-rule="evenodd" clip-rule="evenodd"/><path d="M13.8 15.7C13.9 16.3 13.9 16.9 14 17.5 14.1 17.9 14.1 18.4 14.3 19 14.4 19.5 14.8 19.9 15.3 19.9 15.9 20 16.4 20 16.9 20 17.3 20 17.7 20 18.1 19.9 18.7 19.8 19.1 19.4 19.1 18.8 19.1 18.6 19.1 18.4 19.1 18.1 19.1 17.8 19 16.7 18.1 16.1L17.5 15.6 16.6 17.2 17 17.6C17.1 17.7 17.2 17.9 17.2 18 17.2 18 17.2 18 17.1 18 16.9 18 16.6 18 16.4 18 16.3 18 16.2 18 16.1 18 16.1 18 16.1 18 16.1 17.9L16.1 17.6C16 17 16 16.5 15.9 15.9 15.9 15.5 15.8 15.1 15.8 14.7 15.8 14.4 15.7 14.1 15.6 13.8L15.4 12.8 14.3 13C14.3 13 13.6 14.1 13.8 14.9L13.8 15.7 13.8 15.7 13.8 15.7Z" fill="#7823DC" fill-rule="evenodd" clip-rule="evenodd"/><path d="M16.8 20.3 15.7 22.2 17.6 23.2 18.7 21.4 16.8 20.3 16.8 20.3Z" fill="#7823DC" fill-rule="evenodd" clip-rule="evenodd"/><path d="M13 23.4 14.8 24.5 15.9 22.7 14 21.6 13 23.4 13 23.4Z" fill="#7823DC" fill-rule="evenodd" clip-rule="evenodd"/><path d="M24 17.1 23.5 16.6 22.3 18 22.7 18.4C23.2 19 23.1 19.4 23 19.8 22.8 20.2 22.6 20.5 22.2 20.8 21.6 21.2 21.2 21.2 20.5 20.9L20.5 20.9 20.2 20.8 20.2 20.8 19.9 20.7C19.9 20.7 19.8 20.8 19.8 20.8L19.8 20.8 18.9 22 19.4 22.4C19.9 22.8 20.6 23.1 21.3 23.1L21.4 23.1C23.2 23 24.8 21.4 25 19.6 25.1 18.6 24.8 17.8 24 17.1L24 17.1Z" fill="#7823DC" fill-rule="evenodd" clip-rule="evenodd"/></g></svg>