<svg viewBox="0 0 32 32" xmlns="http://www.w3.org/2000/svg" xmlns:xlink="http://www.w3.org/1999/xlink" id="Layer_2_1_" xml:space="preserve" overflow="hidden"><path d="M32 29.4 32 32 20.4 22.8 21.6 21.2Z" fill="#7823DC"/><path d="M-28.1 2C-22.1 2-17.2 6.9-17.2 12.9-17.2 18.9-22.1 23.8-28.1 23.8-34.1 23.8-39 18.9-39 12.9-39 6.9-34.1 2-28.1 2M-28.1 0C-35.2 0-41 5.8-41 12.9-41 20-35.2 25.8-28.1 25.8-21 25.8-15.2 20-15.2 12.9-15.2 5.8-21 0-28.1 0L-28.1 0-28.1 0-28.1 0Z" fill="#7823DC" fill-rule="evenodd" clip-rule="evenodd"/><path d="M-33.7 13.3-31.6 13.3-31.6 19.3-33.7 19.3-33.7 13.3Z" fill="#7823DC" fill-rule="evenodd" clip-rule="evenodd"/><path d="M-23.3 13.3-21.2 13.3-21.2 19.3-23.3 19.3-23.3 13.3Z" fill="#7823DC" fill-rule="evenodd" clip-rule="evenodd"/><path d="M-23.3 13.3-26.3 13.3-27.5 14.5-28.7 13.3-31.6 13.3-28.9 15.9-28.9 15.9-27.5 17.3-27.5 17.3-27.5 17.3-26 15.9-26 15.9-23.3 13.3Z" fill="#7823DC" fill-rule="evenodd" clip-rule="evenodd"/><path d="M-27.5 8.1C-26.9 8.1-26.5 8.6-26.5 9.1-26.5 9.7-27 10.1-27.5 10.1-28 10.1-28.5 9.6-28.5 9.1-28.5 8.5-28 8.1-27.5 8.1M-27.5 6C-29.2 6-30.6 7.3-30.6 9-30.6 10.7-29.2 12-27.5 12-25.8 12-24.4 10.7-24.4 9-24.4 7.4-25.7 6-27.5 6L-27.5 6-27.5 6-27.5 6Z" fill="#7823DC" fill-rule="evenodd" clip-rule="evenodd"/><path d="M-11.2 29.2-19.1 21.6-20.6 23-11.2 32-11.2 29.2Z" fill="#7823DC" fill-rule="evenodd" clip-rule="evenodd"/><g><path d="M12.9 2C18.9 2 23.8 6.9 23.8 12.9 23.8 18.9 18.9 23.8 12.9 23.8 6.9 23.8 2 18.9 2 12.9 2 6.9 6.9 2 12.9 2M12.9 0C5.8 0 0 5.8 0 12.9 0 20 5.8 25.8 12.9 25.8 20 25.8 25.8 20 25.8 12.9 25.8 5.8 20 0 12.9 0L12.9 0 12.9 0 12.9 0Z" fill="#7823DC" fill-rule="evenodd" clip-rule="evenodd"/><g><g><path d="M7.8 13.3 9.9 13.3 9.9 19.3 7.8 19.3 7.8 13.3Z" fill="#7823DC" fill-rule="evenodd" clip-rule="evenodd"/><path d="M15.9 13.3 18 13.3 18 19.3 15.9 19.3 15.9 13.3Z" fill="#7823DC" fill-rule="evenodd" clip-rule="evenodd"/><path d="M17 13.3 14.1 13.3 12.9 14.4 11.6 13.3 8.7 13.3 11.4 15.9 11.4 15.9 12.9 17.3 12.9 17.3 12.9 17.3 14.3 15.9 14.3 15.9 17 13.3Z" fill="#7823DC" fill-rule="evenodd" clip-rule="evenodd"/></g><path d="M12.9 13.1C11 13.1 9.5 11.6 9.5 9.8 9.5 8 11 6.5 12.9 6.5 14.8 6.5 16.3 8 16.3 9.8 16.3 11.6 14.7 13.1 12.9 13.1ZM12.9 8.1C11.9 8.1 11.2 8.8 11.2 9.7 11.2 10.6 12 11.3 12.9 11.3 13.9 11.3 14.6 10.6 14.6 9.7 14.6 8.8 13.8 8.1 12.9 8.1Z" fill="#7823DC"/></g></g></svg>