<svg viewBox="0 0 32.05 31.97" xmlns="http://www.w3.org/2000/svg" xmlns:xlink="http://www.w3.org/1999/xlink" id="Layer_1" overflow="hidden"><style>
.MsftOfcResponsive_Fill_7823dc {
 fill:#7823DC; 
}
</style>
<defs></defs><path d="M0 31.97 32.05 31.97 32.05 25.96 0 25.96 0 31.97ZM8 29.97 5.98 29.97 5.98 27.96 8 27.96 8 29.97ZM9.99 27.96 12.01 27.96 12.01 29.97 9.99 29.97 9.99 27.96ZM30.05 29.97 14.01 29.97 14.01 27.96 30.05 27.96 30.05 29.97ZM2 27.96 3.99 27.96 3.99 29.97 2 29.97 2 27.96Z" class="MsftOfcResponsive_Fill_7823dc" fill="#7823DC"/><path d="M0 23.95 32.05 23.95 32.05 17.94 0 17.94 0 23.95ZM8 21.95 5.98 21.95 5.98 19.94 8 19.94 8 21.95ZM9.99 19.94 12.01 19.94 12.01 21.95 9.99 21.95 9.99 19.94ZM30.05 21.95 14.01 21.95 14.01 19.94 30.05 19.94 30.05 21.95ZM2 19.94 3.99 19.94 3.99 21.95 2 21.95 2 19.94Z" class="MsftOfcResponsive_Fill_7823dc" fill="#7823DC"/><path d="M29.97 9.91 29.97 5.91C31.16 5.49 32.01 4.38 32.01 3.05 32.01 1.37 30.64 0.01 28.97 0.01 27.3 0.01 25.93 1.38 25.93 3.05 25.93 4.38 26.79 5.5 27.97 5.91L27.97 9.92 21.34 9.92 21.34 5.91C22.53 5.49 23.38 4.38 23.38 3.05 23.38 1.37 22.01 0.01 20.34 0.01 18.67 0.01 17.3 1.38 17.3 3.05 17.3 4.38 18.16 5.5 19.34 5.91L19.34 9.92 12.71 9.92 12.71 5.91C13.9 5.49 14.75 4.38 14.75 3.05 14.75 1.37 13.38 0.01 11.71 0.01 10.04 0.01 8.67 1.38 8.67 3.05 8.67 4.38 9.53 5.5 10.71 5.91L10.71 9.92 4.07 9.92 4.07 5.91C5.26 5.49 6.11 4.38 6.11 3.05 6.11 1.37 4.74 0.01 3.07 0.01 1.4 0.01 0.02 1.37 0.02 3.04 0.02 4.37 0.88 5.49 2.07 5.91L2.07 9.92 0 9.92 0 15.93 32.05 15.93 32.05 9.92 29.97 9.92ZM28.97 2C29.55 2 30.01 2.47 30.01 3.04 30.01 3.61 29.54 4.08 28.97 4.08 28.4 4.08 27.93 3.61 27.93 3.04 27.93 2.47 28.4 2 28.97 2ZM20.34 2C20.92 2 21.38 2.47 21.38 3.04 21.38 3.61 20.91 4.08 20.34 4.08 19.77 4.08 19.3 3.61 19.3 3.04 19.3 2.47 19.77 2 20.34 2ZM11.71 2C12.29 2 12.75 2.47 12.75 3.04 12.75 3.61 12.28 4.08 11.71 4.08 11.14 4.08 10.67 3.61 10.67 3.04 10.67 2.47 11.14 2 11.71 2ZM3.07 2C3.65 2 4.11 2.47 4.11 3.04 4.11 3.61 3.64 4.08 3.07 4.08 2.5 4.08 2.03 3.61 2.03 3.04 2.03 2.47 2.5 2 3.07 2ZM10 11.91 12.02 11.91 12.02 13.92 10 13.92 10 11.91ZM8.01 13.92 5.99 13.92 5.99 11.91 8.01 11.91 8.01 13.92ZM2.01 11.91 4 11.91 4 13.92 2.01 13.92 2.01 11.91ZM30.06 13.92 14.01 13.92 14.01 11.91 30.05 11.91 30.05 13.92Z" class="MsftOfcResponsive_Fill_7823dc" fill="#7823DC"/></svg>