<svg viewBox="0 0 31.87 32.01" xmlns="http://www.w3.org/2000/svg" xmlns:xlink="http://www.w3.org/1999/xlink" id="Layer_1" overflow="hidden"><style>
.MsftOfcThm_Text2_Fill_v2 {
 fill:#7823DC; 
}
</style>
<defs></defs><path d="M19.69 22.94 4.35 13.69 9.1 0.67 31.87 13.47 19.69 22.93ZM6.79 12.83 19.54 20.52 28.26 13.74 10.17 3.57 6.79 12.83Z" class="MsftOfcThm_Text2_Fill_v2" stroke-width="0" fill="#7823DC"/><path d="M20.89 32.01C18.35 32.01 16.29 30 16.29 27.53 16.29 25.06 18.35 23.05 20.89 23.05 23.43 23.05 25.49 25.06 25.49 27.53 25.49 30 23.43 32.01 20.89 32.01ZM20.89 25.05C19.46 25.05 18.29 26.16 18.29 27.53 18.29 28.9 19.46 30.01 20.89 30.01 22.32 30.01 23.49 28.9 23.49 27.53 23.49 26.16 22.32 25.05 20.89 25.05Z" class="MsftOfcThm_Text2_Fill_v2" stroke-width="0" fill="#7823DC"/><rect x="4.87" y="-0.58" width="2" height="6.1" class="MsftOfcThm_Text2_Fill_v2" stroke-width="0" fill="#7823DC" transform="matrix(0.532729 -0.846286 0.846286 0.532729 0.65 6.12)"/><rect x="19.22" y="21.67" width="2" height="5.92" class="MsftOfcThm_Text2_Fill_v2" stroke-width="0" fill="#7823DC" transform="matrix(0.979258 -0.202616 0.202616 0.979258 -4.57 4.61)"/><path d="M0 25.61 4.63 12.92 6.51 13.6 3.66 21.42 12.42 16.79 13.36 18.55 0 25.61Z" class="MsftOfcThm_Text2_Fill_v2" stroke-width="0" fill="#7823DC"/></svg>