<svg viewBox="0 0 32 32" xmlns="http://www.w3.org/2000/svg" xmlns:xlink="http://www.w3.org/1999/xlink" id="Layer_2_1_" xml:space="preserve" overflow="hidden"><style>
.MsftOfcResponsive_Fill_7823dc {
 fill:#7823DC; 
}
</style>
<path d="M32 29.4 32 32 20.4 22.8 21.6 21.2Z" class="st0 MsftOfcResponsive_Fill_7823dc" fill="#7823DC"/><g><path d="M12.9 2C18.9 2 23.8 6.9 23.8 12.9 23.8 18.9 18.9 23.8 12.9 23.8 6.9 23.8 2 18.9 2 12.9 2 6.9 6.9 2 12.9 2M12.9 0C5.8 0 0 5.8 0 12.9 0 20 5.8 25.8 12.9 25.8 20 25.8 25.8 20 25.8 12.9 25.8 5.8 20 0 12.9 0L12.9 0 12.9 0 12.9 0Z" class="st1 MsftOfcResponsive_Fill_7823dc" fill="#7823DC" fill-rule="evenodd" clip-rule="evenodd"/></g></svg>