<svg viewBox="0 0 32 32" xmlns="http://www.w3.org/2000/svg" xmlns:xlink="http://www.w3.org/1999/xlink" id="Layer_1" xml:space="preserve" overflow="hidden"><g><path d="M6.5 22.7 25.8 22.7 25.8 24.5 6.5 24.5Z" fill="#7823DC"/><path d="M26 24.6 6.4 24.6 6.4 22.6 26 22.6 26 24.6ZM6.6 24.4 25.7 24.4 25.7 22.9 6.6 22.9 6.6 24.4Z" fill="#7823DC"/></g><g><path d="M5.2 19.3 27.1 19.3 27.1 21 5.2 21Z" fill="#7823DC"/><path d="M27.2 21.1 5.1 21.1 5.1 19.1 27.3 19.1 27.3 21.1ZM5.3 20.9 27 20.9 27 19.4 5.3 19.4 5.3 20.9Z" fill="#7823DC"/></g><g><path d="M3.7 15.8 28.6 15.8 28.6 17.5 3.7 17.5Z" fill="#7823DC"/><path d="M28.7 17.6 3.6 17.6 3.6 15.6 28.7 15.6 28.7 17.6ZM3.9 17.4 28.5 17.4 28.5 15.9 3.9 15.9 3.9 17.4Z" fill="#7823DC"/></g><g><g><path d="M23.7 5.3 23.7 12 21.7 12 21.7 6.7 16.3 5 13 3.9 9.2 2.7 9.2 0 11.2 0 11.2 1.3 16.3 2.9 19.7 4Z" fill="#7823DC"/><path d="M23.7 0 23.7 2.7 19.7 4 16.3 5 16.3 5 10.7 6.7 10.7 12 8.7 12 8.7 5.3 13 3.9 13 3.9 16.3 2.9 16.3 2.9 21.7 1.3 21.7 0Z" fill="#7823DC"/></g><path d="M9.6 14 5.8 10.1 7.1 8.8 9.6 11.3 12.1 8.8 13.5 9.8 9.6 14Z" fill="#7823DC"/><path d="M22.7 14 18.9 10.1 20.2 8.8 22.7 11.3 25.2 8.8 26.6 9.8 22.7 14Z" fill="#7823DC"/></g><path d="M26.3 27.9 6.1 27.9 2.5 13.5 4.2 13.1 7.4 26.2 25 26.2 28.1 13.1 29.8 13.5Z" fill="#7823DC"/><path d="M26.4 28 6 28 6 27.9 2.3 13.4 4.3 13 7.6 26 25 26 28 13 30 13.4 30 13.5 26.4 28ZM6.2 27.7 26.3 27.7 29.8 13.5 28.3 13.2 25.1 26.2 7.3 26.2 7.3 26.1 4.1 13.3 2.6 13.6 6.2 27.7Z" fill="#7823DC"/><path d="M10 28.9C8.3 28.9 6.8 30.3 6.8 32L8.8 32C8.9 31.4 9.4 30.9 10 30.9 10.6 30.9 11.2 31.4 11.2 32L13.2 32C13.2 30.3 11.7 28.9 10 28.9Z" fill="#7823DC"/><path d="M22.3 28.9C20.5 28.9 19.1 30.3 19.1 32L21.1 32C21.2 31.4 21.7 30.9 22.3 30.9 22.9 30.9 23.5 31.4 23.5 32L25.5 32C25.5 30.3 24.1 28.9 22.3 28.9Z" fill="#7823DC"/></svg>