<svg viewBox="0 0 32 32" xmlns="http://www.w3.org/2000/svg" xmlns:xlink="http://www.w3.org/1999/xlink" id="Layer_1" overflow="hidden"><g><path d="M10 16 10 20 10 27 10 27C10.1 29.8 12.3 32 15.1 32 17.9 32 20.2 29.8 20.2 27L20.2 27 20.2 17.6 20.2 17.6C20.2 17.6 20.2 17.5 20.2 17.5 20.2 15.6 18.6 14 16.7 14 14.8 14 13.2 15.6 13.2 17.5 13.2 17.5 13.2 17.5 13.2 17.5L13.2 17.5 13.2 27 15.2 27 15.2 18 15.2 18C15.2 18 15.2 18 15.2 18L15.2 17.5 15.2 17.5C15.2 17.5 15.2 17.5 15.2 17.5 15.2 16.7 15.9 16 16.7 16 17.5 16 18.2 16.7 18.2 17.5 18.2 17.5 18.2 17.6 18.2 17.6L18.2 17.6 18.2 18C18.2 18 18.2 18 18.2 18L18.2 18 18.2 27 18.2 27C18.1 28.7 16.8 30 15.1 30 13.4 30 12 28.7 12 27L12 27 12 20 12 16 12 6 10 6 10 6 10 16Z" fill="#7823DC"/><path d="M22 13 22 6 22 6C22 2.7 19.3 0 16 0 14.3 0 12.8 0.7 11.8 1.8 10.7 2.8 10 4.3 10 6L12 6C12 3.9 13.9 2.2 16 2.2 17 2.2 18 2.6 18.7 3.3 19.4 4 20 4.9 20 6L20 6 20 13 22 13Z" fill="#7823DC"/></g></svg>