<svg viewBox="0 0 32 32" xmlns="http://www.w3.org/2000/svg" xmlns:xlink="http://www.w3.org/1999/xlink" overflow="hidden"><defs></defs><g id="Layer_3"><rect x="7.98582" y="22" width="2" height="6" fill="#7823DC"/><rect x="12.6525" y="20" width="2" height="8" fill="#7823DC"/><rect x="17.3192" y="17" width="2" height="11" fill="#7823DC"/><rect x="21.9858" y="14" width="2" height="14" fill="#7823DC"/><path d="M19.319 8 19.319 12.24 17.319 14.24 17.319 11.47 9.971 18.818 8.561 17.408 15.939 10.03 15.909 10 13.079 10 15.079 8 19.319 8Z" fill="#7823DC"/><rect x="1.98584" y="14.3809" width="2" height="17.6191" fill="#7823DC"/><rect x="27.9858" y="14.3809" width="2" height="17.6191" fill="#7823DC"/><path d="M29.96 17.051 15.986 3.077 2.012 17.051 0.598 15.637 15.986 0.249 31.374 15.637 29.96 17.051Z" fill="#7823DC"/><path d="M30.0005 17.083 23.9971 11.0801 23.9722 4.38085 29.9742 4.38085ZM25.9941 10.248 27.9907 12.2451 27.978 6.38086 25.98 6.38086Z" fill="#7823DC"/><rect x="1.98582" y="30" width="28" height="2" fill="#7823DC"/></g></svg>