<svg viewBox="0 0 32 32" xmlns="http://www.w3.org/2000/svg" xmlns:xlink="http://www.w3.org/1999/xlink" id="Layer_2_00000070832704599719349970000018400451637622770863_" xml:space="preserve" overflow="hidden"><style>
.MsftOfcResponsive_Fill_7823dc {
 fill:#7823DC; 
}
</style>
<path d="M5.1 24.1 5.1 24.1Z" class="MsftOfcResponsive_Fill_7823dc" fill="#7823DC"/><path d="M28.1 16.9 25.1 12 2 12 0.1 19.1C0.1 19.1 8.32667e-17 28.6 8.32667e-17 28.8L6.1 28.8C6.1 28.7 6.1 28.7 6.1 28.6 6.1 27.8 6.8 27.2 7.5 27.2 8.3 27.2 9 27.9 9 28.6 9 28.7 9 28.7 9 28.8L24 28.8C24 28.7 24 28.7 24 28.6 24 27.8 24.7 27.2 25.5 27.2 26.3 27.2 26.9 27.9 26.9 28.6 26.9 28.7 26.9 28.7 26.9 28.8L32 28.8 32 21.6 28.1 16.9ZM30 26.7 2.1 26.7C2.1 24.6 2.1 21.4 2.1 19.9 2.1 19.7 2.1 19.5 2.1 19.3L2.5 18 3.6 14 24 14 26.5 18 26.6 18.1 26.6 18.1 26.7 18.2 28.1 19.9 30.1 22.3 30.1 26.7Z" class="MsftOfcResponsive_Fill_7823dc" fill="#7823DC"/><rect x="17" y="14" width="2" height="13.7" class="MsftOfcResponsive_Fill_7823dc" fill="#7823DC"/><path d="M10.5 26.7C9.9 25.7 8.8 25.1 7.6 25.1 6.4 25.1 5.3 25.7 4.7 26.7 4.4 27.2 4.2 27.9 4.2 28.5 4.2 28.6 4.2 28.6 4.2 28.7 4.2 30.6 5.7 32 7.5 32 9.3 32 10.8 30.6 10.9 28.8 10.9 28.7 10.9 28.7 10.9 28.6 11 27.9 10.8 27.2 10.5 26.7ZM7.5 30C6.8 30 6.2 29.5 6.1 28.8 6.1 28.7 6.1 28.7 6.1 28.6 6.1 27.8 6.8 27.2 7.5 27.2 8.3 27.2 9 27.9 9 28.6 9 28.7 9 28.7 9 28.8 8.9 29.5 8.3 30 7.5 30Z" class="MsftOfcResponsive_Fill_7823dc" fill="#7823DC"/><path d="M28 19.9 21.1 19.9 21.1 12.1 25 12.1 25 13.9 22.9 13.9 22.9 18.1 28 18.1Z" class="MsftOfcResponsive_Fill_7823dc" fill="#7823DC"/><path d="M14.9 19.9 2 19.9 2 18.1 13.1 18.1 13.1 13.9 10 13.9 10 12.1 14.9 12.1Z" class="MsftOfcResponsive_Fill_7823dc" fill="#7823DC"/><path d="M28.3 26.7C27.7 25.7 26.6 25.1 25.4 25.1 24.2 25.1 23.1 25.7 22.5 26.7 22.2 27.2 22 27.9 22 28.5 22 28.6 22 28.6 22 28.7 22.1 30.5 23.6 31.9 25.4 31.9 27.2 31.9 28.7 30.5 28.8 28.7 28.8 28.6 28.8 28.6 28.8 28.5 28.9 27.9 28.7 27.2 28.3 26.7ZM25.5 30C24.8 30 24.2 29.5 24.1 28.8 24.1 28.7 24.1 28.7 24.1 28.6 24.1 27.8 24.8 27.2 25.6 27.2 26.4 27.2 27 27.9 27 28.6 27 28.7 27 28.7 27 28.8 26.8 29.5 26.2 30 25.5 30Z" class="MsftOfcResponsive_Fill_7823dc" fill="#7823DC"/></svg>