<svg viewBox="0 0 31.98 32" xmlns="http://www.w3.org/2000/svg" xmlns:xlink="http://www.w3.org/1999/xlink" id="Layer_1" overflow="hidden"><style>
.MsftOfcResponsive_Fill_7823dc {
 fill:#7823DC; 
}
</style>
<defs></defs><path d="M16.97 14.54 14.97 14.54 14.97 13.22C14.97 11.21 16.32 9.58 17.97 9.58L19.97 9.58C20.44 9.58 20.97 8.88 20.97 7.94 20.97 7 20.44 6.3 19.97 6.3L17.97 6.3C16.32 6.3 14.97 4.67 14.97 2.66L14.97 0 16.97 0 16.97 2.64C16.97 3.58 17.5 4.28 17.97 4.28L19.97 4.28C21.62 4.28 22.97 5.91 22.97 7.92 22.97 9.93 21.62 11.56 19.97 11.56L17.97 11.56C17.5 11.56 16.97 12.26 16.97 13.2L16.97 14.52Z" class="MsftOfcResponsive_Fill_7823dc" stroke-width="0" fill="#7823DC"/><rect x="13.97" y="14.37" width="4" height="2" class="MsftOfcResponsive_Fill_7823dc" stroke-width="0" fill="#7823DC"/><path d="M7.93 32C5.79 32 3.79 31.15 2.29 29.6 0.77 28.04-0.06 25.89 0 23.71 0.13 19.46 3.84 16 8.27 16L24.09 16C26.37 16 28.54 16.98 30.02 18.68 31.52 20.4 32.2 22.71 31.89 25.03 31.49 28.49 28.71 31.39 25.28 31.92 21.45 32.43 17.79 30.2 16.56 26.61 16.52 26.49 16.37 26.12 16 26.12 15.63 26.12 15.48 26.48 15.45 26.6 14.19 29.85 11.17 32 7.92 32ZM8.28 18C4.92 18 2.1 20.59 2 23.77 1.95 25.44 2.56 27.02 3.72 28.21 4.84 29.36 6.34 30 7.93 30 10.36 30 12.63 28.36 13.58 25.93 13.93 24.86 14.9 24.13 16.01 24.13 17.12 24.13 18.09 24.85 18.46 25.98 19.38 28.66 22.13 30.33 25 29.95 27.54 29.56 29.62 27.39 29.91 24.79 30.15 23 29.66 21.3 28.52 20 27.41 18.73 25.8 18.01 24.09 18.01L8.27 18.01Z" class="MsftOfcResponsive_Fill_7823dc" stroke-width="0" fill="#7823DC"/><rect x="6.93" y="21.17" width="2" height="5.59" class="MsftOfcResponsive_Fill_7823dc" stroke-width="0" fill="#7823DC"/><rect x="5.15" y="22.97" width="5.56" height="2" class="MsftOfcResponsive_Fill_7823dc" stroke-width="0" fill="#7823DC"/><path d="M24.1 22.64C23.84 22.64 23.58 22.54 23.39 22.35 23.3 22.26 23.23 22.15 23.18 22.03 23.13 21.9 23.1 21.77 23.1 21.64 23.1 21.58 23.1 21.51 23.12 21.45 23.12 21.38 23.15 21.32 23.18 21.26 23.2 21.2 23.23 21.14 23.27 21.09 23.31 21.03 23.35 20.98 23.39 20.94 23.49 20.84 23.59 20.77 23.72 20.72 23.96 20.62 24.24 20.62 24.48 20.72 24.61 20.77 24.72 20.84 24.81 20.94 24.85 20.98 24.89 21.03 24.93 21.09 24.97 21.14 25 21.2 25.02 21.26 25.05 21.32 25.07 21.38 25.08 21.45 25.08 21.51 25.1 21.58 25.1 21.64 25.1 21.77 25.08 21.9 25.02 22.03 24.97 22.15 24.9 22.26 24.81 22.35 24.62 22.54 24.36 22.64 24.1 22.64Z" class="MsftOfcResponsive_Fill_7823dc" stroke-width="0" fill="#7823DC"/><path d="M24.1 27.29C23.97 27.29 23.84 27.26 23.72 27.21 23.6 27.16 23.49 27.09 23.39 26.99 23.35 26.95 23.31 26.9 23.27 26.84 23.23 26.79 23.2 26.73 23.18 26.67 23.15 26.61 23.13 26.55 23.12 26.48 23.11 26.42 23.1 26.35 23.1 26.29 23.1 26.16 23.13 26.03 23.18 25.9 23.23 25.78 23.3 25.67 23.39 25.58 23.77 25.21 24.43 25.21 24.81 25.58 24.9 25.67 24.97 25.78 25.02 25.9 25.08 26.03 25.1 26.16 25.1 26.29 25.1 26.35 25.09 26.42 25.08 26.48 25.07 26.55 25.05 26.61 25.02 26.67 25 26.73 24.97 26.79 24.93 26.84 24.9 26.9 24.85 26.95 24.81 26.99 24.62 27.18 24.36 27.29 24.1 27.29Z" class="MsftOfcResponsive_Fill_7823dc" stroke-width="0" fill="#7823DC"/><path d="M21.79 24.97C21.66 24.97 21.53 24.94 21.41 24.89 21.29 24.84 21.18 24.76 21.08 24.67 21.04 24.63 21 24.57 20.96 24.52 20.92 24.47 20.89 24.41 20.87 24.35 20.84 24.29 20.82 24.22 20.81 24.16 20.8 24.1 20.79 24.03 20.79 23.96 20.79 23.7 20.9 23.44 21.08 23.26 21.32 23.03 21.66 22.92 21.99 22.98L22.17 23.04C22.23 23.07 22.29 23.1 22.35 23.13 22.4 23.17 22.45 23.21 22.5 23.26 22.59 23.35 22.66 23.46 22.72 23.58 22.77 23.7 22.79 23.83 22.79 23.96 22.79 24.03 22.79 24.1 22.77 24.16 22.76 24.22 22.74 24.29 22.72 24.35 22.69 24.41 22.66 24.47 22.62 24.52 22.59 24.57 22.54 24.63 22.5 24.67 22.45 24.72 22.4 24.76 22.35 24.8 22.29 24.83 22.23 24.86 22.17 24.89L21.99 24.95C21.92 24.96 21.86 24.97 21.79 24.97Z" class="MsftOfcResponsive_Fill_7823dc" stroke-width="0" fill="#7823DC"/><path d="M26.41 24.96C26.15 24.96 25.89 24.86 25.7 24.67 25.61 24.58 25.54 24.47 25.49 24.35 25.44 24.22 25.41 24.1 25.41 23.96 25.41 23.7 25.52 23.44 25.7 23.26 25.79 23.17 25.9 23.09 26.03 23.04 26.21 22.97 26.41 22.94 26.6 22.98 26.67 23 26.73 23.02 26.79 23.04 26.85 23.07 26.91 23.1 26.96 23.13 27.02 23.17 27.07 23.21 27.12 23.26 27.3 23.44 27.41 23.7 27.41 23.96 27.41 24.1 27.38 24.22 27.33 24.35 27.28 24.47 27.21 24.58 27.12 24.67 27.07 24.72 27.02 24.76 26.96 24.8 26.91 24.83 26.85 24.86 26.79 24.89 26.73 24.91 26.67 24.93 26.6 24.94 26.54 24.96 26.47 24.96 26.41 24.96Z" class="MsftOfcResponsive_Fill_7823dc" stroke-width="0" fill="#7823DC"/></svg>