<svg viewBox="0 0 31.98 31.99" xmlns="http://www.w3.org/2000/svg" xmlns:xlink="http://www.w3.org/1999/xlink" id="Layer_1" overflow="hidden"><style>
.MsftOfcResponsive_Fill_7823dc {
 fill:#7823DC; 
}
</style>
<defs></defs><path d="M10.57 5.46 7.57 5.46C5.99 5.46 4.61 4.08 4.61 2.5L4.61 1 6.61 1 6.61 2.5C6.61 2.98 7.09 3.46 7.57 3.46L10.57 3.46C11.05 3.46 11.53 2.98 11.53 2.5L11.53 1 13.53 1 13.53 2.5C13.53 4.08 12.15 5.46 10.57 5.46Z" class="MsftOfcResponsive_Fill_7823dc" stroke-width="0" fill="#7823DC"/><path d="M14.71 31.99 3.29 31.99C1.48 31.99 0 30.51 0 28.68L0 3.31C0 1.48 1.47 0 3.29 0L14.72 0C16.53 0 18.01 1.48 18.01 3.31L18.01 5.62 16.01 5.62 16.01 3.31C16.01 2.59 15.43 2 14.72 2L3.29 2C2.58 2 2 2.59 2 3.31L2 28.69C2 29.41 2.58 30 3.29 30L14.72 30C15.43 30 16.01 29.41 16.01 28.69L16.01 26.38 18.01 26.38 18.01 28.69C18.01 30.51 16.54 32 14.72 32Z" class="MsftOfcResponsive_Fill_7823dc" stroke-width="0" fill="#7823DC"/><rect x="5.61" y="23.99" width="6.92" height="2" class="MsftOfcResponsive_Fill_7823dc" stroke-width="0" fill="#7823DC"/><path d="M20.28 22.56C18.34 22.56 16.4 21.82 14.93 20.35 11.98 17.4 11.98 12.59 14.93 9.64 17.88 6.69 22.69 6.69 25.64 9.64L25.64 9.64C25.64 9.64 25.64 9.64 25.64 9.64 27.07 11.07 27.86 12.97 27.86 14.99 27.86 17.01 27.07 18.91 25.64 20.34 24.16 21.82 22.22 22.55 20.29 22.55ZM20.28 9.42C18.85 9.42 17.43 9.96 16.34 11.05 14.17 13.22 14.17 16.76 16.34 18.93 18.51 21.1 22.05 21.1 24.22 18.93 25.27 17.88 25.85 16.48 25.85 14.99 25.85 13.5 25.27 12.1 24.22 11.05L24.22 11.05C23.13 9.96 21.71 9.42 20.28 9.42Z" class="MsftOfcResponsive_Fill_7823dc" stroke-width="0" fill="#7823DC"/><rect x="27.1" y="18.33" width="2" height="8.98" class="MsftOfcResponsive_Fill_7823dc" stroke-width="0" fill="#7823DC" transform="matrix(0.707107 -0.707107 0.707107 0.707107 -7.9 26.56)"/></svg>