<svg viewBox="0 0 32 32" xmlns="http://www.w3.org/2000/svg" xmlns:xlink="http://www.w3.org/1999/xlink" id="Layer_1" overflow="hidden"><style>
.MsftOfcResponsive_Fill_7823dc {
 fill:#7823DC; 
}
</style>
<defs></defs><path d="M22 9.99 22 3.27C19.47 4.75 18 7.17 18 9.99L16 9.99C16 6.71 17.56 3.86 20.27 2L2 2 2 30 16 30 16 23.99 18 23.99 18 30 22 30 22 27.99 24 27.99 24 32 0 32 0 3.79 3.79 0 24 0 24 9.99 22 9.99Z" class="MsftOfcResponsive_Fill_7823dc" fill="#7823DC"/><path d="M13.02 19.22C11.97 18.17 10.25 17.97 9.01 18.68 7.76 17.96 6.05 18.18 5 19.22 4.37 19.85 4.02 20.69 4.02 21.58 4.02 22.47 4.37 23.31 5 23.94L9.01 27.95 13.02 23.94C13.65 23.31 14 22.47 14 21.58 14 20.69 13.65 19.85 13.02 19.22ZM11.6 22.52 9.01 25.12 6.41 22.52C6.16 22.27 6.02 21.94 6.02 21.58 6.02 21.22 6.16 20.89 6.41 20.64 6.66 20.39 7 20.24 7.36 20.24 7.72 20.24 8.05 20.38 8.3 20.64L9.02 21.35 9.72 20.63C10.22 20.13 11.09 20.13 11.6 20.64 11.86 20.89 12 21.22 12 21.58 12 21.94 11.86 22.27 11.6 22.52Z" class="MsftOfcResponsive_Fill_7823dc" fill="#7823DC"/><path d="M5.91 6.99 6.06 11.5 3.96 15.31 12.17 15.31 14 12 14 6.99 5.91 6.99ZM12 11.48 10.99 13.31 7.35 13.31 8.08 11.98 7.98 8.99 12 8.99 12 11.48Z" class="MsftOfcResponsive_Fill_7823dc" fill="#7823DC"/><path d="M29.61 11.99 25 11.99 25 13.36C25 14.1 24.4 14.7 23.66 14.7 22.92 14.7 22.33 14.1 22.33 13.36L22.33 11.99 18.39 11.99 16 16.23 16 21.35 19 20.67 19 25.99 29 25.99 29 20.67 32 21.35 32 16.23 29.61 11.99ZM30 18.84 27 18.16 27 23.99 21 23.99 21 18.16 18 18.84 18 16.75 19.55 13.99 20.39 13.99C20.68 15.53 22.04 16.7 23.66 16.7 25.28 16.7 26.64 15.53 26.94 13.99L28.44 13.99 30 16.75 30 18.84Z" class="MsftOfcResponsive_Fill_7823dc" fill="#7823DC"/></svg>