<svg viewBox="0 0 32 32" xmlns="http://www.w3.org/2000/svg" xmlns:xlink="http://www.w3.org/1999/xlink" overflow="hidden"><defs></defs><g id="Layer_3"><path d="M13 19.4784C12.9914 21.1352 14.3276 22.4853 15.9845 22.4938 17.6413 22.5024 18.9914 21.1662 18.9999 19.5093 19.0033 18.8591 18.7953 18.2254 18.4072 17.7036L18.4188 17.7036 16 14.5116 13.6101 17.666 13.5974 17.6828 13.5816 17.7036 13.5841 17.7036C13.2029 18.2166 12.998 18.8392 13 19.4784Z" fill="#7823DC"/><path d="M26.046 27.6865 26.046 25.4878C26.7694 25.0907 27.1868 24.6461 27.1868 24.1744 27.1868 23.703 26.7705 23.2588 26.046 22.8624L26.046 10.2467C26.7694 9.84958 27.1868 9.40512 27.1868 8.93332 27.1868 8.46188 26.7705 8.01767 26.046 7.62132L26.046 5.44723 26.0465 5.44687C26.2079 5.35933 26.3632 5.26091 26.5113 5.15231L26.5403 5.13119C26.6523 5.04706 26.7567 4.9531 26.8521 4.85043 26.8672 4.8342 26.8844 4.8182 26.8986 4.80185 26.9681 4.72041 27.0275 4.6308 27.0754 4.535 27.0868 4.51254 27.1038 4.49057 27.1134 4.46811 27.1597 4.36259 27.1846 4.24896 27.1868 4.13376 27.1588 3.77683 26.9748 3.45044 26.6839 3.24167 25.8546 2.64409 24.9101 2.22548 23.9103 2.01242 23.6572 1.94455 23.3924 1.88001 23.1159 1.81881 21.5146 1.4816 19.889 1.27289 18.2545 1.19467 17.5263 1.15475 16.7723 1.13376 16 1.13376 15.7532 1.13376 15.5117 1.13949 15.2689 1.14364L15.2689 0 9.74086 0 9.74086 1.64706C6.76771 2.18625 4.81318 3.09872 4.81318 4.13376 4.8154 4.24896 4.84038 4.36259 4.88667 4.46811 4.89625 4.49057 4.91328 4.51254 4.92467 4.535 4.97256 4.63078 5.03191 4.72039 5.10143 4.80185 5.11559 4.8182 5.1328 4.8342 5.14794 4.85043 5.24338 4.95313 5.34782 5.0471 5.46 5.13119L5.48857 5.15219C5.63688 5.26093 5.79241 5.35946 5.95408 5.44711L5.95414 5.44723 5.95414 7.62289C5.23002 8.01889 4.81321 8.46237 4.81321 8.93332 4.81321 9.40512 5.23063 9.8497 5.95414 10.2468L5.95414 22.864C5.23002 23.2599 4.81321 23.7035 4.81321 24.1744 4.81321 24.6461 5.23063 25.0907 5.95414 25.4879L5.95414 27.6865C5.23063 28.0836 4.81327 28.5282 4.81327 29 4.81327 30.6569 9.82176 32 16 32 22.1784 32 27.1869 30.6569 27.1869 29 27.1868 28.5282 26.7695 28.0836 26.046 27.6865ZM7.89233 4.18686C10.5287 3.44367 13.2617 3.10069 16 3.1694 18.7383 3.10069 21.4713 3.44367 24.1077 4.18686 21.4711 4.9287 18.7381 5.27084 16 5.20187 13.2619 5.27083 10.5289 4.92869 7.89233 4.18686ZM16 7.13376C18.6979 7.17384 21.3899 6.86863 24.0103 6.22555L24.0103 9.01693C21.4025 9.73415 18.7038 10.0658 16 10.0014 13.2962 10.0658 10.5975 9.73415 7.98969 9.01693L7.98969 6.22555C10.6101 6.86863 13.3021 7.17384 16 7.13376ZM16 11.9333C18.6979 11.9734 21.3899 11.6682 24.0103 11.0251L24.0103 24.2579C21.4025 24.9752 18.7038 25.3069 16 25.2425 13.2962 25.3069 10.5975 24.9752 7.98969 24.2579L7.98969 11.0251C10.6101 11.6682 13.3021 11.9734 16 11.9333ZM7.98969 28.976 7.98969 26.2662C10.6101 26.9093 13.3021 27.2145 16 27.1744 18.6979 27.2145 21.3899 26.9093 24.0103 26.2662L24.0103 28.976C21.403 29.6957 18.7041 30.0287 16 29.9643 13.2959 30.0287 10.597 29.6957 7.98969 28.976Z" fill="#7823DC"/></g></svg>