<svg viewBox="0 0 32 32" xmlns="http://www.w3.org/2000/svg" xmlns:xlink="http://www.w3.org/1999/xlink" id="Layer_1" xml:space="preserve" overflow="hidden"><g><path d="M19.2 24.1C18.4 24.1 17.6 24 16.8 24 16.6 24.3 16.4 24.6 16.1 24.8 15.9 24.5 15.7 24.2 15.4 24 14.6 24 13.8 24 13 24.1 5.7 24.4 1.77636e-15 26.1 1.77636e-15 28 1.77636e-15 30.2 7.2 32 16.1 32 25 32 32.2 30.2 32.2 28 32.1 26.1 26.5 24.4 19.2 24.1L19.2 24.1ZM16.1 30.1C8.9 30.1 4.3 28.9 2.5 28.1 4 27.3 8.1 26.2 14.4 26.1 14.9 26.1 15.5 26.1 16 26.1 16.5 26.1 17.1 26.1 17.6 26.1 23.9 26.3 28 27.3 29.5 28.1 27.9 28.9 23.3 30.1 16.1 30.1L16.1 30.1Z" fill="#7823DC" fill-rule="evenodd" clip-rule="evenodd"/><path d="M16 9.6C15.4 9.6 14.9 10.1 14.9 10.7 14.9 11.3 15.4 11.8 16 11.8 16.6 11.8 17.1 11.3 17.1 10.7 17.2 10.1 16.7 9.6 16 9.6L16 9.6 16 9.6 16 9.6 16 9.6Z" fill="#7823DC" fill-rule="evenodd" clip-rule="evenodd"/><path d="M17.8 16.7 14.4 16.7 13.7 14.6 11.5 15 9.8 12.1 11.2 10.5 9.8 8.9 11.5 6 13.6 6.4 14.3 4.3 17.7 4.3 18.4 6.4 20.6 6 22.3 8.9 20.9 10.5 22.3 12.1 20.6 15 18.5 14.6 17.8 16.7 17.8 16.7 17.8 16.7 17.8 16.7ZM16.8 8.2 16.3 6.7 15.8 6.7 15.3 8.2C14.9 8.4 14.5 8.6 14.1 8.8L12.5 8.3 12.2 8.9 13.3 10.1C13.3 10.5 13.3 10.9 13.3 11.3L12.2 12.5 12.5 12.9 14.1 12.6C14.5 12.8 14.9 13 15.3 13.2L15.8 14.7 15.8 14.7 15.8 14.7 15.8 14.7 16.3 14.7 16.8 13.2C17.2 13 17.6 12.8 18 12.6L19.6 12.9 19.9 12.5 18.8 11.3C18.8 10.9 18.8 10.5 18.8 10.1L19.9 8.9 19.5 8.3 18 8.8" fill="#7823DC" fill-rule="evenodd" clip-rule="evenodd"/><path d="M16 2C20.5 2 24.1 5.4 24.1 9.5 24.1 12.4 19.7 19.6 16.1 24.6 12.4 19.5 7.9 12.4 7.9 9.5 7.9 5.4 11.5 2 16 2M16 0C10.4 0 5.9 4.3 5.9 9.5 5.9 14.7 16.1 28.1 16.1 28.1 16.1 28.1 26.1 14.8 26.1 9.5 26.2 4.3 21.6 0 16 0L16 0 16 0 16 0Z" fill="#7823DC" fill-rule="evenodd" clip-rule="evenodd"/></g></svg>