<svg viewBox="0 0 32 32" xmlns="http://www.w3.org/2000/svg" xmlns:xlink="http://www.w3.org/1999/xlink" overflow="hidden"><defs></defs><g id="Layer_3"><path d="M15.9997 1.98541C24.0125 1.98541 29.9997 5.15314 29.9997 7.98541 29.9997 10.8177 24.0125 13.9854 15.9997 13.9854 7.98694 13.9854 1.99972 10.8177 1.99972 7.98541 1.99972 5.15313 7.98694 1.98541 15.9997 1.98541M15.9997-0.01459C7.16315-0.01459-0.00028 3.56714-0.00028 7.98541-0.00028 12.4037 7.16315 15.9854 15.9997 15.9854 24.8363 15.9854 31.9997 12.4037 31.9997 7.98541 31.9997 3.56713 24.8363-0.01459 15.9997-0.01459Z" fill="#7823DC"/><rect x="29.9997" y="7.98541" width="2" height="16.7429" fill="#7823DC"/><rect x="-0.00029" y="7.98541" width="2" height="16.7429" fill="#7823DC"/><path d="M17.222 10.3566C16.847 10.8843 16.2478 11.2074 15.6009 11.2308 14.2951 11.2256 13.2339 9.76576 13.2339 7.97247 13.2339 6.17575 14.2993 4.71476 15.5933 4.71418 16.2429 4.73553 16.8452 5.0591 17.2217 5.58893L17.3264 5.74093 18.7968 5.74093 18.4687 5.23417C17.8711 4.21351 16.7908 3.57165 15.6086 3.53476 13.6074 3.53476 11.9792 5.52556 11.9792 7.97244 11.9792 10.4193 13.6074 12.4107 15.6086 12.4107 16.7913 12.3764 17.8724 11.7332 18.4669 10.7101L18.7907 10.2045 17.3268 10.2045Z" fill="#7823DC"/><path d="M15.6084 12.8115C13.3867 12.8115 11.5791 10.6406 11.5791 7.97266 11.5791 5.30566 13.3867 3.13477 15.6084 3.13477 16.9267 3.17021 18.1341 3.88108 18.8047 5.0166L19.5322 6.1416 17.1167 6.1416 16.8921 5.81543C16.587 5.38918 16.1006 5.12955 15.5767 5.11328 14.5312 5.11428 13.6338 6.42383 13.6338 7.97266 13.6338 9.54395 14.5171 10.8262 15.6025 10.8301 16.118 10.8083 16.5944 10.5495 16.8931 10.1289L17.1157 9.80371 19.5215 9.80371 18.8037 10.9258C18.1368 12.065 16.9281 12.7783 15.6084 12.8115ZM15.6084 3.93552C13.8276 3.93552 12.3789 5.74606 12.3789 7.97263 12.3789 10.1992 13.8276 12.0107 15.6084 12.0107 16.6081 11.9798 17.5266 11.4523 18.0571 10.6045L17.5371 10.6045C17.089 11.223 16.3814 11.6011 15.6182 11.6298 14.0747 11.625 12.834 9.9834 12.834 7.97266 12.834 5.95605 14.0718 4.31543 15.5928 4.31348 16.3648 4.33682 17.0825 4.71614 17.5366 5.34082L18.0591 5.34082C17.5262 4.49452 16.608 3.96798 15.6084 3.93555Z" fill="#7823DC"/><rect x="10.355" y="8.36913" width="5.41976" height="2" fill="#7823DC"/><rect x="10.355" y="5.55518" width="5.41976" height="2" fill="#7823DC"/><path d="M15.9997 24.6521C7.98696 24.6521 1.99971 21.4844 1.99971 18.6521L-0.00029 18.6521C-0.00029 23.0704 7.16317 26.6521 15.9997 26.6521 24.8363 26.6521 31.9997 23.0704 31.9997 18.6521L29.9997 18.6521C29.9997 21.4844 24.0125 24.6521 15.9997 24.6521Z" fill="#7823DC"/><path d="M15.9997 19.3187C7.98696 19.3187 1.99971 16.151 1.99971 13.3187L-0.00029 13.3187C-0.00029 17.737 7.16317 21.3187 15.9997 21.3187 24.8363 21.3187 31.9997 17.737 31.9997 13.3187L29.9997 13.3187C29.9997 16.151 24.0125 19.3187 15.9997 19.3187Z" fill="#7823DC"/><path d="M15.9997 29.9854C7.98696 29.9854 1.99971 26.8177 1.99971 23.9854L-0.00029 23.9854C-0.00029 28.4037 7.16317 31.9854 15.9997 31.9854 24.8363 31.9854 31.9997 28.4037 31.9997 23.9854L29.9997 23.9854C29.9997 26.8177 24.0125 29.9854 15.9997 29.9854Z" fill="#7823DC"/></g></svg>