<svg viewBox="0 0 31.92 31.92" xmlns="http://www.w3.org/2000/svg" xmlns:xlink="http://www.w3.org/1999/xlink" id="Layer_1" overflow="hidden"><style>
.MsftOfcResponsive_Fill_7823dc {
 fill:#7823DC; 
}
</style>
<defs></defs><g><circle cx="15.96" cy="15.96" r="2.49" class="MsftOfcResponsive_Fill_7823dc" fill="#7823DC"/><path d="M15.96 19.45C14.03 19.45 12.47 17.88 12.47 15.96 12.47 14.04 14.04 12.47 15.96 12.47 17.88 12.47 19.45 14.04 19.45 15.96 19.45 17.88 17.88 19.45 15.96 19.45ZM15.96 14.46C15.14 14.46 14.47 15.13 14.47 15.95 14.47 16.77 15.14 17.44 15.96 17.44 16.78 17.44 17.45 16.77 17.45 15.95 17.45 15.13 16.78 14.46 15.96 14.46Z" class="MsftOfcResponsive_Fill_7823dc" fill="#7823DC"/></g><g><circle cx="3.49" cy="15.96" r="2.49" class="MsftOfcResponsive_Fill_7823dc" fill="#7823DC"/><path d="M3.49 19.45C1.56 19.45 0 17.88 0 15.96 0 14.04 1.57 12.47 3.49 12.47 5.41 12.47 6.98 14.04 6.98 15.96 6.98 17.88 5.41 19.45 3.49 19.45ZM3.49 14.46C2.67 14.46 2 15.13 2 15.95 2 16.77 2.67 17.44 3.49 17.44 4.31 17.44 4.98 16.77 4.98 15.95 4.98 15.13 4.31 14.46 3.49 14.46Z" class="MsftOfcResponsive_Fill_7823dc" fill="#7823DC"/></g><path d="M28.42 19.45C26.49 19.45 24.93 17.88 24.93 15.96 24.93 14.04 26.5 12.47 28.42 12.47 30.34 12.47 31.91 14.04 31.91 15.96 31.91 17.88 30.34 19.45 28.42 19.45ZM28.42 14.46C27.6 14.46 26.93 15.13 26.93 15.95 26.93 16.77 27.6 17.44 28.42 17.44 29.24 17.44 29.91 16.77 29.91 15.95 29.91 15.13 29.24 14.46 28.42 14.46Z" class="MsftOfcResponsive_Fill_7823dc" fill="#7823DC"/><path d="M15.96 6.99C14.03 6.99 12.47 5.42 12.47 3.5 12.47 1.58 14.04 0.01 15.96 0.01 17.88 0.01 19.45 1.58 19.45 3.5 19.45 5.42 17.88 6.99 15.96 6.99ZM15.96 2C15.14 2 14.47 2.67 14.47 3.49 14.47 4.31 15.14 4.98 15.96 4.98 16.78 4.98 17.45 4.31 17.45 3.49 17.45 2.67 16.78 2 15.96 2Z" class="MsftOfcResponsive_Fill_7823dc" fill="#7823DC"/><g><circle cx="3.49" cy="3.49" r="2.49" class="MsftOfcResponsive_Fill_7823dc" fill="#7823DC"/><path d="M3.49 6.99C1.56 6.99 0 5.42 0 3.5 0 1.58 1.57 0 3.49 0 5.41 0 6.98 1.57 6.98 3.49 6.98 5.41 5.41 6.98 3.49 6.98ZM3.49 2C2.67 2 2 2.67 2 3.49 2 4.31 2.67 4.98 3.49 4.98 4.31 4.98 4.98 4.31 4.98 3.49 4.98 2.67 4.31 2 3.49 2Z" class="MsftOfcResponsive_Fill_7823dc" fill="#7823DC"/></g><g><circle cx="28.43" cy="3.49" r="2.49" class="MsftOfcResponsive_Fill_7823dc" fill="#7823DC"/><path d="M28.42 6.99C26.49 6.99 24.93 5.42 24.93 3.5 24.93 1.58 26.5 0.01 28.42 0.01 30.34 0.01 31.91 1.58 31.91 3.5 31.91 5.42 30.34 6.99 28.42 6.99ZM28.42 2C27.6 2 26.93 2.67 26.93 3.49 26.93 4.31 27.6 4.98 28.42 4.98 29.24 4.98 29.91 4.31 29.91 3.49 29.91 2.67 29.24 2 28.42 2Z" class="MsftOfcResponsive_Fill_7823dc" fill="#7823DC"/></g><path d="M15.96 31.92C14.03 31.92 12.47 30.35 12.47 28.43 12.47 26.51 14.04 24.94 15.96 24.94 17.88 24.94 19.45 26.51 19.45 28.43 19.45 30.35 17.88 31.92 15.96 31.92ZM15.96 26.93C15.14 26.93 14.47 27.6 14.47 28.42 14.47 29.24 15.14 29.91 15.96 29.91 16.78 29.91 17.45 29.24 17.45 28.42 17.45 27.6 16.78 26.93 15.96 26.93Z" class="MsftOfcResponsive_Fill_7823dc" fill="#7823DC"/><g><circle cx="3.49" cy="28.43" r="2.49" class="MsftOfcResponsive_Fill_7823dc" fill="#7823DC"/><path d="M3.49 31.92C1.56 31.92 0 30.35 0 28.43 0 26.51 1.57 24.94 3.49 24.94 5.41 24.94 6.98 26.51 6.98 28.43 6.98 30.35 5.41 31.92 3.49 31.92ZM3.49 26.93C2.67 26.93 2 27.6 2 28.42 2 29.24 2.67 29.91 3.49 29.91 4.31 29.91 4.98 29.24 4.98 28.42 4.98 27.6 4.31 26.93 3.49 26.93Z" class="MsftOfcResponsive_Fill_7823dc" fill="#7823DC"/></g><path d="M28.42 31.92C26.49 31.92 24.93 30.35 24.93 28.43 24.93 26.51 26.5 24.94 28.42 24.94 30.34 24.94 31.91 26.51 31.91 28.43 31.91 30.35 30.34 31.92 28.42 31.92ZM28.42 26.93C27.6 26.93 26.93 27.6 26.93 28.42 26.93 29.24 27.6 29.91 28.42 29.91 29.24 29.91 29.91 29.24 29.91 28.42 29.91 27.6 29.24 26.93 28.42 26.93Z" class="MsftOfcResponsive_Fill_7823dc" fill="#7823DC"/><path d="M3.49 29.43C3.36 29.43 3.23 29.41 3.11 29.35 2.74 29.2 2.49 28.83 2.49 28.43L2.49 3.49C2.49 2.94 2.94 2.49 3.49 2.49 4.04 2.49 4.49 2.94 4.49 3.49L4.49 26.01 27.72 2.79C28.11 2.4 28.74 2.4 29.13 2.79 29.52 3.18 29.52 3.81 29.13 4.2L4.2 29.13C4.01 29.32 3.75 29.42 3.49 29.42Z" class="MsftOfcResponsive_Fill_7823dc" fill="#7823DC"/></svg>