<svg viewBox="0 0 31.98 31.98" xmlns="http://www.w3.org/2000/svg" xmlns:xlink="http://www.w3.org/1999/xlink" id="Layer_1" overflow="hidden"><style>
.MsftOfcResponsive_Fill_7823dc {
 fill:#7823DC; 
}
</style>
<defs></defs><g><path d="M28.72 10.15 27.72 8.33C28.1 8.92 28.43 9.53 28.72 10.15Z" class="MsftOfcResponsive_Fill_7823dc" fill="#7823DC"/><rect x="24.8" y="10.66" width="2" height="2" class="MsftOfcResponsive_Fill_7823dc" fill="#7823DC" transform="matrix(0.707107 -0.707107 0.707107 0.707107 -0.69 21.66)"/><rect x="21.97" y="13.48" width="2" height="2" class="MsftOfcResponsive_Fill_7823dc" fill="#7823DC" transform="matrix(0.707107 -0.707107 0.707107 0.707107 -3.51 20.48)"/><rect x="19.14" y="16.31" width="2" height="2" class="MsftOfcResponsive_Fill_7823dc" fill="#7823DC" transform="matrix(0.707107 -0.707107 0.707107 0.707107 -6.34 19.31)"/><rect x="16.31" y="19.14" width="2" height="2" class="MsftOfcResponsive_Fill_7823dc" fill="#7823DC" transform="matrix(0.707107 -0.707107 0.707107 0.707107 -9.17 18.14)"/><rect x="13.48" y="21.97" width="2" height="2" class="MsftOfcResponsive_Fill_7823dc" fill="#7823DC" transform="matrix(0.707107 -0.707107 0.707107 0.707107 -12 16.97)"/><rect x="10.66" y="24.8" width="2" height="2" class="MsftOfcResponsive_Fill_7823dc" fill="#7823DC" transform="matrix(0.707107 -0.707107 0.707107 0.707107 -14.83 15.8)"/></g><g><rect x="19.32" y="5.18" width="2" height="2" class="MsftOfcResponsive_Fill_7823dc" fill="#7823DC" transform="matrix(0.707107 -0.707107 0.707107 0.707107 1.58 16.18)"/><rect x="16.49" y="8" width="2" height="2" class="MsftOfcResponsive_Fill_7823dc" fill="#7823DC" transform="matrix(0.707107 -0.707107 0.707107 0.707107 -1.24 15)"/><rect x="13.66" y="10.83" width="2" height="2" class="MsftOfcResponsive_Fill_7823dc" fill="#7823DC" transform="matrix(0.707107 -0.707107 0.707107 0.707107 -4.07 13.83)"/><rect x="10.83" y="13.66" width="2" height="2" class="MsftOfcResponsive_Fill_7823dc" fill="#7823DC" transform="matrix(0.707107 -0.707107 0.707107 0.707107 -6.9 12.66)"/><rect x="8" y="16.49" width="2" height="2" class="MsftOfcResponsive_Fill_7823dc" fill="#7823DC" transform="matrix(0.707107 -0.707107 0.707107 0.707107 -9.73 11.49)"/><rect x="5.18" y="19.32" width="2" height="2" class="MsftOfcResponsive_Fill_7823dc" fill="#7823DC" transform="matrix(0.707107 -0.707107 0.707107 0.707107 -12.56 10.32)"/></g><path d="M31.64 12.71C31.56 12.32 31.47 11.93 31.36 11.55 30.64 9.03 29.29 6.65 27.31 4.67 25.33 2.69 22.95 1.34 20.43 0.62 20.05 0.51 19.66 0.41 19.27 0.34 14.17-0.73 8.64 0.72 4.68 4.67 0.72 8.62-0.73 14.16 0.34 19.26 0.49 20 0.69 20.74 0.96 21.47 1.73 23.6 2.97 25.6 4.67 27.3 6.78 29.41 9.34 30.81 12.04 31.49 12.27 31.55 12.49 31.6 12.71 31.64 17.81 32.71 23.34 31.26 27.3 27.31 31.26 23.36 32.7 17.82 31.63 12.72ZM6.09 6.09C9.21 2.97 13.45 1.63 17.52 2.08L2.08 17.52C1.63 13.45 2.97 9.2 6.09 6.09ZM5.41 25.15C4.99 24.67 4.6 24.16 4.26 23.64 3.88 23.05 3.55 22.44 3.26 21.81 2.97 21.18 2.74 20.54 2.55 19.88L19.88 2.55C20.54 2.74 21.18 2.97 21.81 3.26 22.44 3.55 23.05 3.88 23.64 4.26 24.16 4.61 24.67 4.99 25.15 5.41L5.41 25.15ZM12.09 29.43C11.43 29.25 10.77 29.01 10.15 28.72 9.52 28.43 8.92 28.1 8.33 27.72 7.81 27.37 7.31 27 6.83 26.57L26.57 6.82C26.99 7.3 27.37 7.8 27.72 8.32 28.1 8.91 28.43 9.52 28.72 10.14 29.01 10.77 29.25 11.42 29.43 12.08L12.09 29.43ZM14.45 29.9 29.89 14.46C30.34 18.53 29 22.78 25.88 25.89 22.76 29 18.52 30.35 14.45 29.9Z" class="MsftOfcResponsive_Fill_7823dc" fill="#7823DC"/></svg>