<svg viewBox="0 0 32 32" xmlns="http://www.w3.org/2000/svg" xmlns:xlink="http://www.w3.org/1999/xlink" id="Layer_5" overflow="hidden"><defs></defs><path d="M19.74 6.75C19.22 5.8 18.24 5.19 17 4.98L17 2.71C17.73 3.07 17.82 3.72 17.82 3.97L18.82 3.97C18.82 3.97 19.82 4.01 19.82 4.01 19.82 3.87 19.82 2.6 18.85 1.59 18.37 1.09 17.74 0.77 17 0.61L17 0.01 15 0.01 15 0.55C13.28 0.91 12.23 2.39 12.22 3.78 12.22 5.09 13.08 6.41 15 6.78L15 9.37C14.45 9.16 13.91 8.68 13.88 7.58L11.88 7.63C11.92 9.24 12.78 10.98 15 11.44L15 11.99 17 11.99 17 11.49C18.16 11.31 19.1 10.74 19.65 9.85 20.24 8.9 20.27 7.72 19.74 6.75ZM14.22 3.79C14.22 3.35 14.51 2.9 15 2.66L15 4.73C14.5 4.55 14.22 4.23 14.22 3.79ZM17.95 8.79C17.76 9.1 17.42 9.31 17 9.43L17 7.03C17.46 7.16 17.81 7.39 17.99 7.71 18.18 8.05 18.16 8.45 17.95 8.79Z" stroke-width="0" fill="#7823DC"/><g><path d="M15.96 21.97C17.08 21.97 18.13 21.53 18.9 20.72 19.63 19.96 20.03 18.95 19.99 17.94 19.99 15.72 18.18 13.91 15.95 13.91 13.72 13.91 11.91 15.72 11.91 17.94 11.91 20.16 13.72 21.97 15.95 21.97ZM13.94 17.94C13.94 16.77 14.83 15.84 15.96 15.84 17.09 15.84 17.98 16.76 17.98 17.94 17.98 19.12 17.09 20.04 15.96 20.04 14.83 20.04 13.94 19.08 13.94 17.94Z" stroke-width="0" fill="#7823DC"/><path d="M24.78 20.6C26.26 20.6 27.51 19.35 27.51 17.87 27.51 16.39 26.31 15.14 24.78 15.14 23.25 15.14 22.05 16.34 22.05 17.87 22.05 19.4 23.25 20.6 24.78 20.6ZM24.78 17.15C25.17 17.15 25.5 17.48 25.5 17.87 25.5 18.26 25.17 18.59 24.78 18.59 24.39 18.59 24.06 18.26 24.06 17.87 24.06 17.48 24.39 17.15 24.78 17.15Z" stroke-width="0" fill="#7823DC"/><path d="M7.22 20.6C8.75 20.6 9.95 19.4 9.95 17.87 9.95 16.34 8.75 15.14 7.22 15.14 5.69 15.14 4.49 16.34 4.49 17.87 4.49 19.4 5.69 20.6 7.22 20.6ZM6.5 17.87C6.5 17.48 6.83 17.15 7.22 17.15 7.67 17.15 8.02 17.46 8.02 17.87 8.02 18.24 7.63 18.59 7.22 18.59 6.81 18.59 6.5 18.26 6.5 17.87Z" stroke-width="0" fill="#7823DC"/><path d="M8.86 33.76 10.87 33.76 10.87 26.72 21.13 26.72 21.13 33.76 23.14 33.76 23.14 24.79 8.86 24.79 8.86 33.76Z" stroke-width="0" fill="#7823DC"/><path d="M26.63 21.3 26.6 21.26 19.37 21.26 19.37 24.12 21.38 24.12 21.38 23.27 28.11 23.27 28.11 28.48 30.12 28.48 30.12 24.78 26.63 21.3Z" stroke-width="0" fill="#7823DC"/><path d="M10.62 24.12 12.64 24.12 12.64 21.26 5.48 21.26 3.71 23.02 3.64 23.02 3.64 23.1 1.88 24.86 1.88 28.48 3.89 28.48 3.89 23.27 10.62 23.27 10.62 24.12Z" stroke-width="0" fill="#7823DC"/></g></svg>