<svg viewBox="0 0 32 32.01" xmlns="http://www.w3.org/2000/svg" xmlns:xlink="http://www.w3.org/1999/xlink" id="Outline_Final_icon" overflow="hidden"><defs></defs><rect x="7.53" y="7.71" width="11.62" height="2" fill="#7823DC"/><rect x="24.38" y="17.96" width="1.82" height="6.84" fill="#7823DC"/><path d="M17.16 24.8 19.04 24.8 19.41 23.42 21.42 23.42 21.78 24.8 23.66 24.8 21.86 17.96 18.99 17.96 17.16 24.8ZM20.38 19.77 20.46 19.77 20.94 21.6 19.89 21.6 20.38 19.77Z" fill="#7823DC"/><path d="M19.15 12.19 19.15 12.03 7.53 12.03 7.53 14.03 15.75 14.03C16.74 13.21 17.89 12.58 19.15 12.19Z" fill="#7823DC"/><path d="M13.71 16.35 7.53 16.35 7.53 18.35 12.74 18.35C12.99 17.64 13.32 16.97 13.72 16.35Z" fill="#7823DC"/><path d="M12.15 21.68C12.15 21.34 12.17 21.01 12.2 20.68L7.53 20.68 7.53 22.68 12.2 22.68C12.17 22.35 12.15 22.02 12.15 21.68Z" fill="#7823DC"/><path d="M32 32.01 32 30.64 28.43 27.12C29.69 25.66 30.45 23.76 30.45 21.67 30.45 17.05 26.7 13.3 22.08 13.3 17.46 13.3 13.71 17.05 13.71 21.67 13.71 26.29 17.46 30.04 22.08 30.04 23.9 30.04 25.57 29.45 26.95 28.47L30.54 32 32 32ZM22.08 28.04C18.57 28.04 15.71 25.18 15.71 21.67 15.71 18.16 18.57 15.3 22.08 15.3 25.59 15.3 28.45 18.16 28.45 21.67 28.45 25.18 25.59 28.04 22.08 28.04Z" fill="#7823DC"/><path d="M19.48 3.6 19.48 0 3.96 0 0 3.96 0 23.64 3.7 23.64 3.7 27.4 13.98 27.4C13.54 26.78 13.17 26.11 12.88 25.4L5.69 25.4 5.69 5.6 21.69 5.6 21.69 11.78C21.82 11.78 21.94 11.76 22.07 11.76 22.62 11.76 23.16 11.82 23.69 11.9L23.69 3.6 19.47 3.6ZM17.48 3.6 3.7 3.6 3.7 21.64 2 21.64 2 2 17.48 2 17.48 3.6Z" fill="#7823DC"/></svg>