<svg viewBox="0 0 32 32" xmlns="http://www.w3.org/2000/svg" xmlns:xlink="http://www.w3.org/1999/xlink" id="Graphic" overflow="hidden"><defs></defs><path d="M26 2 26 30 6 30 6 2 26 2M24 0 4 0 4 32 28 32 28 4Z" fill="#7823DC"/><path d="M24 22 8 22 8 24 24 24 24 22 24 22Z" fill="#7823DC"/><path d="M24 26 8 26 8 28 24 28 24 26 24 26Z" fill="#7823DC"/><path d="M14 8 14 12 18 12C18 14.2091 16.2091 16 14 16 11.7909 16 10 14.2091 10 12 10 9.79086 11.7909 8 14 8M16 6 14 6C10.6863 6 8 8.68629 8 12 8 15.3137 10.6863 18 14 18 17.3137 18 20 15.3137 20 12L20 10 16 10 16 6Z" fill="#7823DC"/><path d="M16 6C18.2091 6 20 7.79086 20 10L16 10 16 6M16 4 14 4 14 12 22 12 22 10C22 6.68629 19.3137 4 16 4Z" fill="#7823DC"/><path d="M24 18 20 18 20 20 24 20 24 18 24 18Z" fill="#7823DC"/></svg>