<svg width="32" height="32" viewBox="0 0 32 32" xmlns="http://www.w3.org/2000/svg" xmlns:xlink="http://www.w3.org/1999/xlink" overflow="hidden"><style>
.MsftOfcResponsive_Fill_7823dc {
 fill:#7823DC; 
}
</style>
<defs></defs><path d="" class="MsftOfcResponsive_Fill_7823dc" fill="#7823DC"/><g><g><path d="M29.4 18.1 20.8 20.81 20.8 19.59 20.8 17.35 18.58 17.6 15.31 17.97 10.15 16.13 9.31 15.83 8.53 16.25 5.3 17.98 2 17.98 0 17.98 0 19.98 0 26.01 0 28.01 2 28.01 5.32 28.01 15.16 32 30.94 23.77 32 23.21 32 22.01 32 20.01 32 17.28 29.4 18.1ZM30 22.01 15.07 29.78 5.74 26.01 2 26.01 2 19.98 5.79 19.98 9.46 18.01 15.06 20.01 18.79 19.59 18.79 21.59 17.71 21.94 13.95 22.7 13.95 24.56 17.9 23.83 17.9 23.82 30 20.01 30 22.01Z" class="MsftOfcResponsive_Fill_7823dc" fill="#7823DC"/></g><g><g><path d="M27.18 8.97 24 12.15 20.83 8.97 18 8.97 24 14.97 30 8.97Z" class="MsftOfcResponsive_Fill_7823dc" fill="#7823DC"/></g></g><g><g><rect x="16" y="8.97" width="2" height="7" class="MsftOfcResponsive_Fill_7823dc" fill="#7823DC"/></g></g><g><g><rect x="30" y="8.97" width="2" height="7" class="MsftOfcResponsive_Fill_7823dc" fill="#7823DC"/></g></g><g><path d="M24.01 9C21.53 9 19.51 6.98 19.51 4.5 19.51 2.02 21.53 0 24.01 0 26.49 0 28.51 2.02 28.51 4.5 28.51 6.98 26.49 9 24.01 9ZM24.01 2C22.63 2 21.51 3.12 21.51 4.5 21.51 5.88 22.63 7 24.01 7 25.39 7 26.51 5.88 26.51 4.5 26.51 3.12 25.39 2 24.01 2Z" class="MsftOfcResponsive_Fill_7823dc" fill="#7823DC"/></g></g></svg>