<svg viewBox="0 0 32 32" xmlns="http://www.w3.org/2000/svg" xmlns:xlink="http://www.w3.org/1999/xlink" id="Graphic" overflow="hidden"><defs></defs><path d="M17.99 29.96 14.01 29.96 14.01 31.96 17.99 31.96 17.99 29.96 17.99 29.96Z" fill="#7823DC"/><rect x="14.87" y="15.96" width="2.26" height="6.37" fill="#7823DC"/><path d="M16 2 16.18 2 16.4 2 16.59 2 16.88 2 17 2C17.21 2 17.43 2.06 17.69 2.12L17.8 2.12C18.0094 2.16606 18.2164 2.2228 18.42 2.29L18.64 2.36 19.13 2.55 19.22 2.55 19.38 2.62 19.82 2.85 20.34 3.16 20.45 3.23 20.61 3.33C20.73 3.42 20.85 3.51 20.96 3.61L21.17 3.77 21.51 4.08 21.66 4.23 21.66 4.23 21.66 4.23 21.94 4.52 22.22 4.86 22.51 5.25C22.6 5.39 22.7 5.53 22.78 5.67L22.88 5.84 22.88 5.84C22.97 6 23.06 6.17 23.14 6.34L23.14 6.4 23.14 6.5C23.3554 6.97109 23.5196 7.4639 23.63 7.97L23.63 7.97 23.63 8.02C23.63 8.18 23.7 8.35 23.73 8.52 23.7255 8.58659 23.7255 8.65341 23.73 8.72 23.73 8.97 23.78 9.23 23.79 9.52 23.8199 9.69469 23.892 9.85945 24 10L24 10C23.9947 10.0866 23.9947 10.1734 24 10.26 24 10.62 24 10.9 23.94 11.14 23.94 11.2 23.94 11.27 23.94 11.33L23.94 11.53C23.89 11.76 23.84 12.01 23.78 12.22 23.72 12.43 23.71 12.44 23.68 12.54L23.68 12.63C23.6 12.88 23.52 13.07 23.45 13.25L23.26 13.64C23.16 13.83 23.05 14.02 22.94 14.2L22.71 14.57C22.6 14.72 22.48 14.88 22.3 15.09L22.21 15.21C22.15 15.28 22.1 15.35 22.04 15.41 21.8762 15.5863 21.7026 15.7532 21.52 15.91L21.36 16.07 21.27 16.15 21.16 16.25C19.4192 17.6613 18.3345 19.7258 18.16 21.96L14 21.96C13.8231 19.7264 12.7389 17.6628 11 16.25L10.89 16.15 10.8 16.07 10.64 15.91C10.4574 15.7532 10.2838 15.5863 10.12 15.41 10.06 15.35 10.01 15.28 9.95 15.21L9.86 15.09C9.68 14.88 9.56 14.72 9.45 14.57L9.22 14.2C9.11 14.02 9 13.83 8.9 13.64 8.8 13.45 8.77 13.38 8.71 13.24 8.65 13.1 8.56 12.88 8.48 12.63L8.48 12.54C8.48 12.44 8.41 12.33 8.38 12.22 8.35 12.11 8.27 11.77 8.22 11.53L8.22 11.33C8.22 11.27 8.22 11.2 8.22 11.14 8.22 10.9 8.17 10.63 8.16 10.26 8.11251 10.1699 8.05906 10.083 8 10 8.00498 9.93676 8.00498 9.87324 8 9.81 8 9.52 8 9.25 8.06 8.99 8.06543 8.92678 8.06543 8.86322 8.06 8.8 8.06 8.63 8.12 8.46 8.16 8.28L8.16 8.28C8.27527 7.76754 8.44282 7.26826 8.66 6.79L8.71 6.69 8.71 6.63C8.79 6.46 8.88 6.29 8.97 6.13L8.97 6.13 8.97 6.13 9.07 5.96C9.15 5.82 9.25 5.68 9.35 5.54 9.45 5.4 9.54 5.27 9.64 5.15L9.64 5.09 10 4.76C10.0848 4.66183 10.175 4.56836 10.27 4.48L10.27 4.48 10.27 4.43 10.42 4.29 10.76 3.98 10.97 3.82C11.0837 3.71881 11.2039 3.62527 11.33 3.54L11.48 3.44 11.59 3.37 12.19 3 12.63 2.77 12.79 2.7 12.88 2.7 13.37 2.51 13.59 2.44C13.79 2.37 14 2.32 14.2 2.27L14.33 2.27C14.58 2.21 14.81 2.18 15.02 2.15L15.12 2.15 15.41 2.15 15.6 2.15 15.82 2.15 16 2.15M16 0.15 15.5 0.15C15.3 0.15 15.1 0.15 14.9 0.15L14.9 0.15C14.58 0.15 14.26 0.25 13.95 0.31L13.8 0.31C13.54 0.37 13.28 0.44 13.02 0.52L12.71 0.6 12.1 0.84 11.78 1 11.23 1.28C11.01 1.4 10.79 1.53 10.58 1.67L10.25 1.89 9.8 2.23 9.54 2.44 9.12 2.82 8.88 3C8.75 3.13 8.62 3.26 8.5 3.4 8.37497 3.53632 8.2581 3.6799 8.15 3.83 8.02 3.99 7.9 4.15 7.78 4.32 7.66 4.49 7.55 4.67 7.44 4.85 7.38087 4.93296 7.32741 5.01983 7.28 5.11L7 5.79 6.86 6C6.58748 6.61086 6.37644 7.24733 6.23 7.9L6.23 7.9C6.18 8.13 6.14 8.36 6.1 8.6 6.1 8.66 6.1 8.71 6.1 8.77 6.05644 9.10161 6.03307 9.43556 6.03 9.77 6.01504 9.84594 6.00502 9.92277 6 10L6 10C6 10.1 6 10.19 6 10.29 6.00639 10.6545 6.0331 11.0184 6.08 11.38 6.08 11.55 6.15 11.71 6.18 11.88 6.22794 12.1699 6.29136 12.4569 6.37 12.74 6.42 12.91 6.49 13.08 6.55 13.26 6.61 13.44 6.73 13.77 6.84 14.02L7.08 14.52C7.20139 14.76 7.3349 14.9936 7.48 15.22 7.57 15.38 7.67 15.53 7.77 15.68 7.87 15.83 8.1 16.12 8.27 16.33 8.44 16.54 8.49 16.6 8.61 16.73 8.73 16.86 9.03 17.16 9.25 17.36L9.57 17.66 9.63 17.72C11.0991 18.8755 11.9696 20.6312 12 22.5L12 24 20 24 20 22.5C20.0259 20.6526 20.877 18.9138 22.32 17.76L22.38 17.7 22.7 17.4C22.92 17.2 23.14 16.99 23.34 16.77 23.54 16.55 23.57 16.51 23.68 16.37 23.79 16.23 24.02 15.95 24.18 15.72 24.34 15.49 24.38 15.42 24.47 15.26 24.6151 15.0336 24.7486 14.8 24.87 14.56L25.11 14.06C25.22 13.81 25.31 13.56 25.41 13.3 25.51 13.04 25.53 12.95 25.58 12.78 25.6586 12.4969 25.7221 12.2099 25.77 11.92 25.77 11.75 25.84 11.59 25.87 11.42 25.9336 11.0594 25.977 10.6955 26 10.33 26 10.23 26 10.14 26 10.04L26 10.04C26.0049 9.96341 26.0049 9.88659 26 9.81 25.9969 9.47556 25.9736 9.14161 25.93 8.81 25.93 8.75 25.93 8.7 25.93 8.64 25.93 8.4 25.85 8.17 25.8 7.94L25.8 7.94C25.6465 7.27259 25.4253 6.62257 25.14 6L25.05 5.8 24.72 5.16C24.6726 5.06983 24.6191 4.98296 24.56 4.9 24.45 4.72 24.34 4.54 24.22 4.37L23.86 3.89C23.74 3.74 23.63 3.59 23.5 3.45 23.37 3.31 23.25 3.18 23.12 3.05L22.88 2.81 22.46 2.43 22.2 2.22C22.05 2.1 21.9 1.98 21.75 1.88L21.42 1.66C21.21 1.53 20.99 1.39 20.77 1.27L20.22 1 19.9 0.84 19.29 0.6 19 0.51C18.7533 0.43 18.5 0.36 18.24 0.3L18.09 0.3C17.78 0.2 17.46 0.14 17.14 0.1L17.14 0.1 16.54 0.1 16 0Z" fill="#7823DC"/><path d="M18 15.96 14 15.96 12 13.96 20 13.96 18 15.96Z" fill="#7823DC"/><path d="M20 25.96 12 25.96 12 27.96 20 27.96 20 25.96 20 25.96Z" fill="#7823DC"/></svg>