<svg width="32" height="32" viewBox="0 0 32 32" xmlns="http://www.w3.org/2000/svg" xmlns:xlink="http://www.w3.org/1999/xlink" overflow="hidden"><defs></defs><path d="" fill="#7823DC"/><g><path d="M32 29.95 0 29.95 0 32 32 32 32 29.95Z" fill="#7823DC"/></g><g><rect x="6.4" y="16" width="27.2" height="2" fill="#7823DC" transform="matrix(0.294 -0.9558 0.9558 0.294 -2.1289 31.1177)"/></g><g><rect x="22.07" y="0.45" width="4" height="6.67" fill="#7823DC" transform="matrix(0.9558 0.2941 -0.2941 0.9558 2.1767 -6.9104)"/></g><g><path d="M4.18 32C4.07 31.35 4 30.68 4 30 4 23.38 9.38 18 16 18 22.62 18 28 23.38 28 30 28 30.68 27.93 31.35 27.82 32L29.84 32C29.93 31.35 30 30.68 30 30 30 22.27 23.73 16 16 16 8.27 16 2 22.27 2 30 2 30.68 2.07 31.35 2.16 32L4.18 32Z" fill="#7823DC"/></g><g><path d="M20.55 32C20.72 31.53 20.83 31.03 20.83 30.5 20.83 28.01 18.81 25.99 16.32 25.99 13.83 25.99 11.8 28 11.8 30.5 11.8 31.03 11.91 31.53 12.08 32L20.55 32Z" fill="#7823DC"/></g></svg>