<svg viewBox="0 0 32 32" xmlns="http://www.w3.org/2000/svg" xmlns:xlink="http://www.w3.org/1999/xlink" xml:space="preserve" overflow="hidden"><style>
.MsftOfcResponsive_Fill_7823dc {
 fill:#7823DC; 
}
</style>
<g id="Layer_3"></g><g id="Layer_1"><path d="M16.78 24.83C16.61 24.83 16.45 24.83 16.29 24.83 12.5 24.78 3.67 24.33 3.67 21.28L5.67 21.28C5.67 21.18 5.63 21.11 5.62 21.09 6.03 21.65 9.6 22.74 16.31 22.83 21.82 22.91 25.6 21.94 26.69 21.24 26.2 20.96 25.05 20.51 22.77 20.16L23.07 18.18C27.01 18.78 28.92 19.79 28.92 21.27L28.89 21.5C28.27 24.15 20.97 24.83 16.78 24.83Z" class="st1 MsftOfcResponsive_Fill_7823dc" fill="#7823DC"/><path d="M5.63 21.44C5.64 21.42 5.67 21.36 5.67 21.27L3.67 21.27C3.67 19.8 5.51 18.79 9.3 18.18L9.61 20.15C6.74 20.62 5.76 21.24 5.63 21.44Z" class="st1 MsftOfcResponsive_Fill_7823dc" fill="#7823DC"/><rect x="0.18" y="30.04" width="31.65" height="2" class="st1 MsftOfcResponsive_Fill_7823dc" fill="#7823DC"/><path d="M0.9 31.87 0.37 29.94C9.48 27.44 9.57 14.23 9.57 14.1L11.57 14.1C11.57 14.7 11.46 28.97 0.9 31.87Z" class="st1 MsftOfcResponsive_Fill_7823dc" fill="#7823DC"/><path d="M31.29 31.94 31.82 30.01C22.71 27.51 22.62 14.3 22.62 14.17L20.62 14.17C20.62 14.77 20.73 29.04 31.29 31.94Z" class="st1 MsftOfcResponsive_Fill_7823dc" fill="#7823DC"/><path d="M26.14 4.87C25.48 2.31 23.13 0.42 20.42 0.42 18.91 0.42 17.46 1.01 16.37 2.03 15.26 0.73 13.62-0.05 11.88-0.05 8.99-0.05 6.57 2.04 6.07 4.86 6.06 4.86 6.05 4.86 6.05 4.86 2.79 4.86 0.14 7.51 0.14 10.77 0.14 14.03 2.79 16.68 6.05 16.68 7.86 16.68 9.53 15.86 10.63 14.5 11.99 16.03 13.96 16.94 16.06 16.94 18.12 16.94 20.06 16.06 21.42 14.56 22.53 15.88 24.18 16.67 25.94 16.67 29.2 16.67 31.85 14.02 31.85 10.76 31.85 7.58 29.31 4.98 26.14 4.87ZM25.95 14.68C24.43 14.68 23.03 13.78 22.4 12.39L22.26 12.09 20.74 12.09 20.62 12.3C19.68 13.93 17.94 14.94 16.07 14.94 14.15 14.94 12.38 13.89 11.45 12.2L11.39 12.09 9.74 12.09 9.65 12.3C9.04 13.75 7.62 14.68 6.05 14.68 3.9 14.68 2.14 12.93 2.14 10.77 2.14 8.61 3.9 6.87 6.05 6.87 6.29 6.87 6.53 6.89 6.79 6.94L7.97 7.08 7.97 5.87C7.97 3.72 9.72 1.96 11.88 1.96 13.27 1.96 14.57 2.71 15.27 3.93L15.55 4.42 16.12 4.43C16.2 4.43 16.27 4.44 16.39 4.44L16.94 4.48 17.26 4.04C18.01 3.02 19.16 2.43 20.41 2.43 22.42 2.43 24.13 4 24.3 6L24.39 7.04 25.43 6.9C25.6 6.88 25.77 6.86 25.94 6.86 28.09 6.86 29.85 8.61 29.85 10.77 29.85 12.93 28.1 14.68 25.95 14.68Z" class="st1 MsftOfcResponsive_Fill_7823dc" fill="#7823DC"/></g><g id="Layer_2"></g></svg>