<svg viewBox="0 0 32 32" xmlns="http://www.w3.org/2000/svg" xmlns:xlink="http://www.w3.org/1999/xlink" id="Layer_1" overflow="hidden"><style>
.MsftOfcThm_Text2_Fill_v2 {
 fill:#7823DC; 
}
</style>
<rect x="14" y="18" width="4" height="2" class="MsftOfcThm_Text2_Fill_v2" fill="#7823DC"/><path d="M24 27C22.93 27 21.93 26.58 21.17 25.83 20.41 25.08 20 24.07 20 23 20 21.93 20.42 20.93 21.17 20.17 21.92 19.41 22.93 19 24 19 25.07 19 26.07 19.42 26.83 20.17 27.59 20.92 28 21.93 28 23 28 24.07 27.58 25.07 26.83 25.83 26.08 26.59 25.07 27 24 27ZM24 21C23.47 21 22.96 21.21 22.59 21.59 22.21 21.97 22 22.47 22 23 22 23.53 22.21 24.04 22.59 24.41 23.35 25.17 24.66 25.17 25.42 24.41 25.8 24.03 26.01 23.53 26.01 23 26.01 22.47 25.8 21.96 25.42 21.59 25.04 21.21 24.54 21 24.01 21Z" class="MsftOfcThm_Text2_Fill_v2" fill="#7823DC"/><path d="M8 27C6.93 27 5.93 26.58 5.17 25.83 4.41 25.08 4 24.07 4 23 4 22.47 4.1 21.96 4.3 21.47 4.5 20.98 4.79 20.55 5.17 20.17 5.54 19.8 5.98 19.5 6.47 19.3 7.44 18.9 8.56 18.9 9.53 19.3 10.02 19.5 10.45 19.79 10.83 20.17 11.2 20.54 11.5 20.98 11.7 21.47 11.9 21.96 12 22.47 12 23 12 24.07 11.58 25.07 10.83 25.83 10.08 26.59 9.07 27 8 27ZM8 21C7.74 21 7.48 21.05 7.24 21.15 7 21.25 6.78 21.4 6.59 21.58 6.4 21.77 6.26 21.99 6.16 22.23 6.06 22.47 6.01 22.73 6.01 23 6.01 23.53 6.22 24.04 6.6 24.41 7.36 25.17 8.67 25.17 9.43 24.41 9.81 24.03 10.02 23.53 10.02 23 10.02 22.74 9.97 22.48 9.87 22.24 9.77 22 9.62 21.78 9.44 21.59 9.25 21.4 9.03 21.26 8.79 21.16 8.55 21.06 8.29 21.01 8.02 21.01Z" class="MsftOfcThm_Text2_Fill_v2" fill="#7823DC"/><path d="M21.02 15.2 20.34 11.81C20.29 11.58 20.17 11.38 19.99 11.23 19.81 11.08 19.59 11 19.36 11L12.64 11C12.41 11 12.18 11.08 12.01 11.23 11.83 11.38 11.71 11.58 11.66 11.81L10.98 15.2 9.02 14.81 9.7 11.42C9.84 10.74 10.21 10.13 10.74 9.69 11.27 9.25 11.95 9.01 12.64 9.01L19.36 9.01C20.05 9.01 20.73 9.25 21.26 9.69 21.79 10.13 22.16 10.74 22.3 11.42L22.98 14.81 21.02 15.2Z" class="MsftOfcThm_Text2_Fill_v2" fill="#7823DC"/><path d="M6 9 4 9C4 7.67 4.52 6.41 5.46 5.46 6.41 4.52 7.66 4 9 4L9 6C8.2 6 7.45 6.31 6.88 6.88 6.31 7.45 6 8.2 6 9Z" class="MsftOfcThm_Text2_Fill_v2" fill="#7823DC"/><path d="M2 9 0 9C0 6.6 0.94 4.34 2.64 2.64 4.34 0.94 6.6 0 9 0L9 2C7.13 2 5.37 2.73 4.05 4.05 2.73 5.37 2 7.13 2 9Z" class="MsftOfcThm_Text2_Fill_v2" fill="#7823DC"/><path d="M28 9 26 9C26 8.2 25.69 7.45 25.12 6.88 24.55 6.31 23.8 6 23 6L23 4C24.33 4 25.59 4.52 26.54 5.46 27.48 6.41 28 7.66 28 9Z" class="MsftOfcThm_Text2_Fill_v2" fill="#7823DC"/><path d="M32 9 30 9C30 7.13 29.27 5.37 27.95 4.05 26.63 2.73 24.87 2 23 2L23 0C25.4 0 27.66 0.94 29.36 2.64 31.06 4.34 32 6.6 32 9Z" class="MsftOfcThm_Text2_Fill_v2" fill="#7823DC"/><path d="M20.11 31.45 18.38 28 13.62 28 11.89 31.45 10.11 30.55 12.38 26 19.62 26 21.89 30.55 20.11 31.45Z" class="MsftOfcThm_Text2_Fill_v2" fill="#7823DC"/><path d="M32 32 0 32 0 14 32 14 32 32ZM2 30 30 30 30 16 2 16 2 30Z" class="MsftOfcThm_Text2_Fill_v2" fill="#7823DC"/></svg>