<svg viewBox="0 0 31.96 31.99" xmlns="http://www.w3.org/2000/svg" xmlns:xlink="http://www.w3.org/1999/xlink" id="Layer_1" overflow="hidden"><style>
.MsftOfcResponsive_Fill_7823dc {
 fill:#7823DC; 
}
</style>
<defs></defs><path d="M31.06 28.86 21.08 28.86C19.55 28.86 18.07 28.31 16.8 27.28L1.55 13.3 10.03 3.88 11.93 3.88 11.93 4.88C11.93 8.38 16.18 12.23 20.05 12.23L22.21 12.23 22.19 13.25C22.08 17.67 24.76 21.05 29.17 22.07 30.13 22.29 30.97 22.9 31.48 23.74 31.94 24.52 32.08 25.4 31.85 26.23L31.06 28.85ZM4.36 13.17 18.11 25.76C18.98 26.46 20.02 26.85 21.08 26.85L29.57 26.85 29.92 25.68C29.99 25.41 29.94 25.08 29.76 24.77 29.53 24.39 29.15 24.12 28.72 24.02L28.72 24.02C23.75 22.87 20.51 19.09 20.21 14.23L20.05 14.23C15.7 14.23 11.27 10.67 10.18 6.69L4.35 13.16Z" class="MsftOfcResponsive_Fill_7823dc" fill="#7823DC"/><path d="M30.32 31.99 19.95 31.99C18.35 31.99 16.73 31.38 15.63 30.37L0 16.06 1.35 14.59 16.97 28.9C17.71 29.57 18.85 29.99 19.94 29.99L30.31 29.99 30.31 31.99Z" class="MsftOfcResponsive_Fill_7823dc" fill="#7823DC"/><rect x="17.02" y="17.46" width="5.13" height="2" class="MsftOfcResponsive_Fill_7823dc" fill="#7823DC"/><rect x="18.92" y="20.59" width="6.27" height="2" class="MsftOfcResponsive_Fill_7823dc" fill="#7823DC"/><rect x="9.85" y="3.42" width="10.5" height="2" class="MsftOfcResponsive_Fill_7823dc" fill="#7823DC" transform="matrix(0.707107 -0.707107 0.707107 0.707107 1.29 11.97)"/><rect x="15.52" y="5.92" width="17.58" height="2" class="MsftOfcResponsive_Fill_7823dc" fill="#7823DC" transform="matrix(0.707107 -0.707107 0.707107 0.707107 2.23 19.22)"/></svg>