<svg viewBox="0 0 32 32" xmlns="http://www.w3.org/2000/svg" xmlns:xlink="http://www.w3.org/1999/xlink" id="Layer_1" xml:space="preserve" overflow="hidden"><style>
.MsftOfcResponsive_Fill_7823dc {
 fill:#7823DC; 
}
</style>
<g id="Layer_2_00000012473757881523529330000012558649137292384702_" display="none"><g><path d="M15 3C14.9 3 14.7 3 14.6 3 14.4 3 14.2 3 14.1 3 13.4 3 12.7 3.1 12.1 3.2L12.7 3.8 13.8 5C14 5 14.3 5 14.6 5 15.6 5 16.7 5.1 17.7 5.4 21.2 6.3 24.1 8.6 25.7 11.7L28.8 14.8 28.8 14.4C27.4 8 21.8 3.2 15 3ZM25.9 22.9 25.9 22.9C24.3 26.2 21.3 28.7 17.6 29.6 16.6 29.8 15.6 30 14.6 30 13.5 30 12.5 29.9 11.5 29.6 6.4 28.3 2.6 23.9 2.1 18.5 2.1 18.2 2.1 17.8 2.1 17.5 2.1 17.2 2.1 16.8 2.1 16.5 2.4 12.2 5 8.5 8.6 6.5L7.1 5.1C2.9 7.6 0 12.3 0 17.5 0 25.5 6.5 32 14.5 32 20.6 32 25.8 28.2 28 22.9L25.9 22.9Z" class="MsftOfcResponsive_Fill_7823dc" fill="#7823DC"/><path d="M21.4 18.5 0.3 18.5 0.3 16.5 23.7 16.5 25.3 18.5" class="MsftOfcResponsive_Fill_7823dc" fill="#7823DC"/></g><path d="M18.1 16.5C18.1 16.8 18.1 17.1 18.1 17.5 18.1 17.8 18.1 18.2 18.1 18.5 17.9 26 15.4 29.9 14.6 29.9 13.8 29.9 11.2 26 11 18.5 11 18.2 11 17.8 11 17.5 11 17.2 11 16.8 11 16.5 11.1 13.8 11.4 11.6 11.9 9.9L10.2 8.2C9.5 10.5 9 13.3 9 16.5 9 16.8 9 17.1 9 17.5 9 17.8 9 18.2 9 18.5 9.1 23.2 10.1 27.2 11.5 29.6 12.4 31.1 13.4 32 14.6 32 15.8 32 16.8 31.1 17.7 29.6 19.1 27.2 20.1 23.1 20.2 18.5 20.2 18.2 20.2 17.8 20.2 17.5 20.2 17.2 20.2 16.8 20.2 16.5M19.6 16.5 18.5 16.5M17.6 5.4C16.9 4.1 16 4.2 15 4 14.8 4 14.7 4 14.5 4 14.3 4 14.2 4 14 4 13.5 4.1 13 3.4 12.6 3.8L13.8 5 14 5.2C14.2 5.1 14.4 5 14.5 5 14.9 5 15.7 5.9 16.4 7.6L19 10.2M18.1 16.5C18.1 16.8 18.1 17.1 18.1 17.5 18.1 17.8 18.1 18.2 18.1 18.5L20.2 18.5C20.2 18.2 20.2 17.8 20.2 17.5 20.2 17.2 20.2 16.8 20.2 16.5L19.7 16.5 19 17.1 18.4 16.5" class="MsftOfcResponsive_Fill_7823dc" fill="#7823DC"/><path d="M65.9 19.4 65.9 13.9 64.1 12.1 64.1 16.3 55.5 7.9 52.9 10.4 42.6 0 40.1 0 52.9 12.9 55.5 10.4 62.8 17.6 58.5 17.6 60.3 19.4Z" class="MsftOfcResponsive_Fill_7823dc" fill="#7823DC"/><g><path d="M32.1 21.4 32.1 15.9 30.2 14.1 30.2 18.3 21.6 9.9 19 12.4 8.7 2 6.2 2 19 14.9 21.6 12.4 29 19.6 24.7 19.6 26.5 21.4Z" class="MsftOfcResponsive_Fill_7823dc" fill="#7823DC"/><line x1="18.5" y1="16.5" x2="19.6" y2="16.5" fill="none"/></g></g><path d="M9.5 17 22.5 17 22.5 19 9.5 19 9.5 17Z" class="MsftOfcResponsive_Fill_7823dc" fill="#7823DC" fill-rule="evenodd" clip-rule="evenodd"/><path d="M9.5 21 22.5 21 22.5 23 9.5 23 9.5 21Z" class="MsftOfcResponsive_Fill_7823dc" fill="#7823DC" fill-rule="evenodd" clip-rule="evenodd"/><path d="M9.5 25 22.5 25 22.5 27 9.5 27 9.5 25Z" class="MsftOfcResponsive_Fill_7823dc" fill="#7823DC" fill-rule="evenodd" clip-rule="evenodd"/><path d="M28.5 32 3.5 32 3.5 0 28.5 0 28.5 32 28.5 32 28.5 32ZM5.5 30 26.5 30 26.5 2 5.5 2 5.5 30 5.5 30 5.5 30Z" class="MsftOfcResponsive_Fill_7823dc" fill="#7823DC" fill-rule="evenodd" clip-rule="evenodd"/><g><path d="M8.8 12.6 8.8 7.5 7.1 7.5 7.1 6.4 11.7 6.4 11.7 7.5 10 7.5 10 12.6 8.8 12.6 8.8 12.6Z" class="MsftOfcResponsive_Fill_7823dc" fill="#7823DC" fill-rule="evenodd" clip-rule="evenodd"/><path d="M10.6 13 8.7 13 8.7 7.9 7 7.9 7 6 12.3 6 12.3 7.9 10.6 7.9 10.6 13ZM9.5 12.2 9.9 12.2 9.9 7.2 11.6 7.2 11.6 7 7.8 7 7.8 7.2 9.5 7.2 9.5 12.2Z" class="MsftOfcResponsive_Fill_7823dc" fill="#7823DC"/></g><g><defs><path d="M3.6 34 28.5 34 28.5 2 3.6 2 3.6 34Z" id="SVGID_1_" class="MsftOfcResponsive_Fill_7823dc" fill="#7823DC"/></defs><clipPath id="SVGID_00000145762592080174561470000008183318398388857222_"><use width="100%" height="100%" xlink:href="#SVGID_1_" overflow="visible"></use></clipPath><g clip-path="url(#SVGID_00000145762592080174561470000008183318398388857222_)"><path d="M17.9 12.7 16.6 12.7 16.1 11.2 13.8 11.2 13.3 12.7 12.1 12.7 14.3 6.3 15.5 6.3 17.9 12.7 17.9 12.7 17.9 12.7ZM15.8 9.8 15 7.6 14.2 9.8 15.8 9.8 15.8 9.8 15.8 9.8Z" class="MsftOfcResponsive_Fill_7823dc" fill="#7823DC" fill-rule="evenodd" clip-rule="evenodd"/><path d="M18.3 13 16.5 13 16 11.5 14 11.5 13.6 13 11.8 13 14.2 6 15.8 6 18.3 13ZM16.8 12.4 17.5 12.4 15.4 6.5 14.5 6.5 12.5 12.4 13.2 12.4 13.7 10.9 16.3 10.9 16.8 12.4ZM16.1 10.1 13.8 10.1 15 6.9 16.1 10.1ZM14.6 9.6 15.4 9.6 15 8.4 14.6 9.6Z" class="MsftOfcResponsive_Fill_7823dc" fill="#7823DC"/></g><g clip-path="url(#SVGID_00000145762592080174561470000008183318398388857222_)"><defs><path d="M3.6 34 28.5 34 28.5 2 3.6 2 3.6 34Z" id="SVGID_00000127045092077660716240000005963609339208451719_" class="MsftOfcResponsive_Fill_7823dc" fill="#7823DC"/></defs><clipPath id="SVGID_00000138556413368603659830000001593737328189173909_"><use width="100%" height="100%" xlink:href="#SVGID_00000127045092077660716240000005963609339208451719_" overflow="visible"></use></clipPath><g clip-path="url(#SVGID_00000138556413368603659830000001593737328189173909_)"><path d="M19.3 12.7 21.2 9.4 19.5 6.3 20.8 6.3 22 8.4 23.1 6.3 24.4 6.3 22.6 9.4 24.6 12.7 23.2 12.7 21.9 10.5 20.7 12.7 19.3 12.7 19.3 12.7Z" class="MsftOfcResponsive_Fill_7823dc" fill="#7823DC" fill-rule="evenodd" clip-rule="evenodd"/><path d="M25.1 13 23.1 13 22 11 20.9 13 18.9 13 21 9.4 19.1 6 21 6 22 7.8 23 6 24.9 6 23 9.4 25.1 13ZM23.4 12.4 24.2 12.4 22.4 9.4 24 6.6 23.3 6.6 22 8.9 20.7 6.6 20 6.6 21.6 9.4 19.8 12.5 20.6 12.5 22 10 23.4 12.4Z" class="MsftOfcResponsive_Fill_7823dc" fill="#7823DC"/></g></g></g></svg>