<svg width="45.9" height="46" viewBox="0 0 45.9 46" xmlns="http://www.w3.org/2000/svg" xmlns:xlink="http://www.w3.org/1999/xlink" overflow="hidden"><defs></defs><g><g><defs><path d="M0 46 45.9 46 45.9 0 0 0 0 46Z" id="SVGID_1_" fill="#7823DC"/></defs><clipPath id="SVGID_2_"><use width="100%" height="100%" xlink:href="#SVGID_1_"></use></clipPath><g clip-path="url(#SVGID_2_)"><defs><path d="M0 46 45.9 46 45.9 0 0 0 0 46Z" id="SVGID_3_" fill="#7823DC"/></defs><clipPath id="SVGID_4_"><use width="100%" height="100%" xlink:href="#SVGID_3_"></use></clipPath><path d="M20.1 15.1 7.9 2.9 5.9 4.9 18 17.1 20.1 15.1 20.1 15.1 20.1 15.1Z" fill="#7823DC" clip-path="url(#SVGID_4_)"/><path d="M10.6 14.4 10.6 17.3 36.3 17.3 36.3 14.4 10.6 14.4 10.6 14.4Z" fill="#7823DC" clip-path="url(#SVGID_4_)"/><path d="M26 32C24.2 32 22.7 30.5 22.7 28.7 22.7 26.9 24.2 25.4 26 25.4 27.8 25.4 29.3 26.9 29.3 28.7 29.3 30.5 27.8 32 26 32ZM26 27.7C25.4 27.7 25 28.2 25 28.7 25 29.3 25.5 29.7 26 29.7 26.5 29.7 27 29.2 27 28.7 27 28.1 26.5 27.7 26 27.7Z" fill="#7823DC" clip-path="url(#SVGID_4_)"/><path d="M28.7 19.3C27.5 19.3 26.5 20.3 26.5 21.5 26.5 22.7 27.5 23.7 28.7 23.7 29.9 23.7 30.9 22.7 30.9 21.5 30.9 20.3 29.9 19.3 28.7 19.3L28.7 19.3Z" fill="#7823DC" clip-path="url(#SVGID_4_)"/><path d="M10.9 14.4 17.1 41.7 29.1 41.7 35.3 14.4 38.2 14.4 31.4 44.6 14.8 44.6 7.9 14.4 10.9 14.4 10.9 14.4Z" fill="#7823DC" clip-path="url(#SVGID_4_)"/></g></g></g></svg>