<svg viewBox="0 0 32 32" xmlns="http://www.w3.org/2000/svg" xmlns:xlink="http://www.w3.org/1999/xlink" xml:space="preserve" overflow="hidden"><style>
.MsftOfcResponsive_Fill_7823dc {
 fill:#7823DC; 
}
</style>
<g id="Layer_3"></g><g id="Layer_1"></g><g id="Layer_2"></g><g id="Layer_4"></g><g id="Layer_5"><path d="M27.95 16 18.74 14.09 18.64 14.09 17.93 13.99 17.93 7.63 16.91 6.72 15.89 5.72 13.87 5.72 11.85 7.73 11.85 22.02C10.44 21.11 8.92 20.71 7.3 20.82L3.77 20.82 3.77 23.04 9.74 28.17 12.78 32 17.33 32 14.29 30.29 11.46 26.77 11.16 26.47 6.61 22.64 7.42 22.64C8.54 22.54 9.75 22.94 10.76 23.55L14 21.84 14 14.29 14 12.98 14 10.05 14 8.44 14.41 8.03 14.82 7.62 15.23 7.62 15.84 8.23 15.94 8.33 15.94 13.77 16.75 14.77 16.75 19.7 18.67 19.7 18.67 16.08 20.89 16.49 20.89 19.71 22.81 19.71 22.81 16.87 22.91 16.89 25.03 17.3 25.03 19.72 27.05 19.72 27.05 17.71 29.98 20.62 29.98 26.87 29.68 31.8 31.7 31.8 32 26.87 32 20.03 27.95 16 27.95 16 27.95 16Z" class="MsftOfcResponsive_Fill_7823dc" fill="#7823DC" fill-rule="evenodd" clip-rule="evenodd"/><path d="M3.01 17.73 3.01 2.77 4.9 2.77 4.9 17.73 3.01 17.73 3.01 17.73Z" class="MsftOfcResponsive_Fill_7823dc" fill="#7823DC" fill-rule="evenodd" clip-rule="evenodd"/><path d="M7.8 6.5 7.8 3.84 3.95 0 0.19 3.84 0.19 6.6 3.95 2.76 7.8 6.5 7.8 6.5 7.8 6.5Z" class="MsftOfcResponsive_Fill_7823dc" fill="#7823DC" fill-rule="evenodd" clip-rule="evenodd"/><path d="M7.79 13.76 7.79 16.42 3.94 20.26 0.19 16.42 0.19 13.66 3.94 17.5 7.79 13.76 7.79 13.76 7.79 13.76Z" class="MsftOfcResponsive_Fill_7823dc" fill="#7823DC" fill-rule="evenodd" clip-rule="evenodd"/></g></svg>