<svg viewBox="0 0 32 32" xmlns="http://www.w3.org/2000/svg" xmlns:xlink="http://www.w3.org/1999/xlink" id="Graphic" overflow="hidden"><path d="M17.1 32C19.8 31.7 21.5 30 21.5 27.5 21.5 24.4 19.5 23.6 17.1 23.1L17.1 18.7C18.1 18.9 18.8 19.7 18.9 20.7L19 21.2 21.2 21.2 21.1 20.5C20.8 18.4 19.2 16.7 17.1 16.6L17.1 15.3 15 15.3 15 16.6C13 16.9 11 18.3 11 20.8 11 23.4 12.5 24.4 15 24.9L15 29.8C13.8 29.5 12.9 28.5 12.8 27.2L12.8 27.2 12.7 26.7 10.5 26.7 10.6 27.4C10.8 29.8 12.6 31.8 15 32M15 18.7 15 22.6C13.5 22.1 13.2 21.6 13.2 20.6 13.2 19.7 14 18.8 15 18.7L15 18.7ZM17.1 29.9 17.1 25.4C18.8 25.8 19.3 26.4 19.3 27.6 19.3 29.2 18.2 29.7 17.1 29.9L17.1 29.9Z" fill="#7823DC" fill-rule="evenodd" clip-rule="evenodd"/><g><g><path d="M3.8 9.6 5.6 11.5 5.6 8.8 2.8 6 0 8.8 0 11.4 1.8 9.6" fill="#7823DC" fill-rule="evenodd" clip-rule="evenodd"/></g><rect x="1.8" y="9.3" width="2" height="22.7" fill="#7823DC"/></g><g><g><path d="M30.2 9.6 32 11.5 32 8.8 29.2 6 26.4 8.8 26.4 11.4 28.2 9.6" fill="#7823DC" fill-rule="evenodd" clip-rule="evenodd"/></g><rect x="28.2" y="9.3" width="2" height="22.7" fill="#7823DC"/></g><g><g><path d="M12.6 3.6 14.4 5.5 14.4 2.8 11.6 0 8.8 2.8 8.8 5.4 10.6 3.6" fill="#7823DC" fill-rule="evenodd" clip-rule="evenodd"/></g><rect x="10.6" y="3.3" width="2" height="10.7" fill="#7823DC"/></g><g><g><path d="M21.4 3.6 23.2 5.5 23.2 2.8 20.4 0 17.6 2.8 17.6 5.4 19.4 3.6" fill="#7823DC" fill-rule="evenodd" clip-rule="evenodd"/></g><rect x="19.4" y="3.3" width="2" height="10.7" fill="#7823DC"/></g></svg>