<svg viewBox="0 0 32 32" xmlns="http://www.w3.org/2000/svg" xmlns:xlink="http://www.w3.org/1999/xlink" id="Graphic" overflow="hidden"><path d="M2 24 10.3 25.4 10.3 29.7 2 28.3 2 24M0 21.6 0 29.9 12.3 32 12.3 23.7 0 21.6 0 21.6Z" fill="#7823DC"/><rect x="11.7" y="28" width="16.2" height="2" fill="#7823DC" transform="matrix(0.9693 -0.246 0.246 0.9693 -6.5274 5.7741)"/><rect x="11.3" y="22.3" width="15.8" height="2" fill="#7823DC" transform="matrix(0.9788 -0.2047 0.2047 0.9788 -4.3515 4.4305)"/><path d="" stroke="#7823DC" stroke-width="2" stroke-miterlimit="10" fill="#7823DC" fill-rule="evenodd" clip-rule="evenodd"/><path d="" stroke="#7823DC" stroke-width="2" stroke-miterlimit="10" fill="#7823DC" fill-rule="evenodd" clip-rule="evenodd"/><path d="" fill="#7823DC"/><path d="M28 28 26 28 26 22.5 15.6 21-0.3 23.6-0.6 21.6 15.6 19 28 20.8Z" fill="#7823DC"/><path d="M18.1 15.9 12.7 12.3 22.7 0.1 26.2 2.5 18.1 15.9ZM15.7 11.9 17.5 13.1 23.6 3.1 23.2 2.8 15.7 11.9Z" fill="#7823DC"/><rect x="28.9" y="4.3" width="2" height="16.9" fill="#7823DC" transform="matrix(0.532 -0.8467 0.8467 0.532 3.1903 31.252)"/><rect x="27.3" y="6.5" width="2" height="16.9" fill="#7823DC" transform="matrix(0.532 -0.8467 0.8467 0.532 0.5932 30.9682)"/><rect x="4.6" y="10" width="2" height="5.4" fill="#7823DC" transform="matrix(0.8403 -0.5421 0.5421 0.8403 -6.0044 5.0687)"/><rect x="8.5" y="8.2" width="2" height="5.3" fill="#7823DC" transform="matrix(0.9603 -0.2788 0.2788 0.9603 -2.6494 3.0894)"/><rect x="1.6" y="13.3" width="2" height="5.2" fill="#7823DC" transform="matrix(0.5861 -0.8103 0.8103 0.5861 -11.7906 8.72)"/></svg>