<svg viewBox="0 0 32 32" xmlns="http://www.w3.org/2000/svg" xmlns:xlink="http://www.w3.org/1999/xlink" id="Layer_1" overflow="hidden"><style>
.MsftOfcResponsive_Fill_7823dc {
 fill:#7823DC; 
}
</style>
<defs></defs><path d="M30.84 22.99C30.75 20.03 30.02 14.12 26 10.63 26 10.58 26 10.54 26 10.48 25.96 9.62 25.91 8.31 26.61 7.57 27.08 7.08 27.89 6.84 29.01 6.84L29.01 6.8C30.69 6.58 31.99 5.16 31.99 3.42 31.99 1.53 30.45-1.77636e-15 28.57-1.77636e-15 27.19-1.77636e-15 26.01 0.82 25.47 2 9.28 2.04 2.22 8.17 2 22.4 0.82 23.01 0 24.23 0 25.65L0 28.34C0 30.36 1.64 32.01 3.67 32.01L28.33 32.01C30.35 32.01 32 30.37 32 28.34L32 25.65C32 24.6 31.55 23.66 30.84 22.99ZM28.58 2C29.36 2 30 2.64 30 3.42 30 4.2 29.36 4.84 28.58 4.84 27.8 4.84 27.16 4.2 27.16 3.42 27.16 2.64 27.8 2 28.58 2ZM25.22 4.01C25.32 4.6 25.58 5.14 25.95 5.58 25.66 5.75 25.4 5.96 25.18 6.19 24.31 7.1 24.06 8.25 24.01 9.26 22.37 8.4 20.34 7.87 17.83 7.87L17.83 9.87C26.61 9.87 28.49 17.39 28.81 22.03 28.66 22.01 28.51 21.98 28.35 21.98L4.01 21.98C4.35 9.36 10.57 4.1 25.21 4.01ZM30 28.34C30 29.26 29.25 30.01 28.33 30.01L3.67 30.01C2.75 30.01 2 29.26 2 28.34L2 25.65C2 24.73 2.75 23.98 3.67 23.98L28.33 23.98C29.25 23.98 30 24.73 30 25.65L30 28.34Z" class="MsftOfcResponsive_Fill_7823dc" fill="#7823DC"/></svg>