<svg viewBox="0 0 32 32" xmlns="http://www.w3.org/2000/svg" xmlns:xlink="http://www.w3.org/1999/xlink" xml:space="preserve" overflow="hidden"><style>
.MsftOfcResponsive_Fill_7823dc {
 fill:#7823DC; 
}
</style>
<g id="Layer_3"></g><g id="Layer_1"></g><g id="Layer_2"></g><g id="Layer_4"></g><g id="Layer_5"><path d="M3.01 20.15 5.09 15.58 10.44 8 14.74 4.96 24.81 8.33 28.54 17.94 28.31 21.37 23.66 24.26C23.72 24.26 26.66 24.07 27.86 23.98L30.23 22.55 30.56 17.64 26.32 6.74 14.41 2.75 9 6.57 3.4 14.5 0.79 20.2 2.76 24.05 2.8 24.13C3.57 24.24 4.36 24.24 5.11 24.25L3.01 20.15Z" class="st0 MsftOfcResponsive_Fill_7823dc" fill="#7823DC"/><line x1="2.42" y1="23.37" x2="0.79" y2="20.2" class="st0" fill="#6C4D9F"/><line x1="2.76" y1="24.05" x2="2.42" y2="23.37" class="st0" fill="#6C4D9F"/><path d="M9.02 16.57 7.38 15.43 11.99 8.86 14.92 7.08 15.95 8.79 13.38 10.35Z" class="st0 MsftOfcResponsive_Fill_7823dc" fill="#7823DC"/><path d="M20.56 23.37 19.52 21.66 23.78 19.09 23.89 17.62 25.89 17.78 25.69 20.27Z" class="st0 MsftOfcResponsive_Fill_7823dc" fill="#7823DC"/><path d="M4.92 24.22 23.78 24.25 27.87 23.98 24.45 26.04 3.72 26.05 2.8 24.13" class="st0 MsftOfcResponsive_Fill_7823dc" fill="#7823DC"/></g></svg>