<svg viewBox="0 0 32 32.01" xmlns="http://www.w3.org/2000/svg" xmlns:xlink="http://www.w3.org/1999/xlink" id="Layer_1" overflow="hidden"><style>
.MsftOfcResponsive_Fill_7823dc {
 fill:#7823DC; 
}
</style>
<defs></defs><g><path d="M16 18.52C15.33 18.52 14.68 18.33 14.06 17.95L13.99 17.91C11.98 16.64 10.7 13.62 10.7 10.19 10.7 9.44 10.83 8.65 11.1 7.78 12.02 4.81 14.3 1.97 15.24 0.88L16 7.77156e-16 16.76 0.88C17.35 1.56 18.48 2.95 19.47 4.64L19.54 4.77C20.71 6.79 21.3 8.62 21.3 10.2 21.3 14.87 18.97 18.53 16 18.53ZM15.12 16.26C15.42 16.43 15.71 16.52 16 16.52 17.56 16.52 19.3 13.92 19.3 10.19 19.3 8.99 18.82 7.54 17.87 5.87L17.8 5.76C17.77 5.71 17.74 5.65 17.71 5.59 17.14 4.62 16.51 3.76 16 3.1 15.05 4.32 13.64 6.35 13.02 8.35 12.81 9.04 12.7 9.65 12.7 10.19 12.7 12.9 13.68 15.39 15.08 16.24L15.12 16.27Z" class="MsftOfcResponsive_Fill_7823dc" stroke-width="0" fill="#7823DC"/><path d="M19.07 18.52C18.47 18.52 17.86 18.41 17.24 18.15L15.78 17.56 16.93 16.49C18.33 15.19 19.2 12.7 19.2 9.99 19.2 9.51 19.13 8.98 19 8.42L18.83 7.73 19.43 7.35C22.59 5.32 26.68 5.66 28.02 5.77L29.15 5.86 28.91 6.97C28.47 9.02 27.14 14.04 24.24 16.22L24.24 16.22C22.63 17.44 20.9 18.5 19.05 18.5ZM21.1 8.71C21.17 9.15 21.21 9.59 21.21 10 21.21 12.48 20.59 14.79 19.51 16.49 20.46 16.35 21.56 15.76 23.05 14.64L23.05 14.64C25.02 13.16 26.17 9.72 26.7 7.7 25.23 7.65 22.99 7.74 21.1 8.71Z" class="MsftOfcResponsive_Fill_7823dc" stroke-width="0" fill="#7823DC"/><path d="M12.93 18.52C11.08 18.52 9.36 17.45 7.74 16.24 4.83 14.06 3.5 9.04 3.07 6.99L2.83 5.88 3.96 5.79C5.3 5.68 9.39 5.34 12.55 7.37L13.15 7.75 12.98 8.44C12.85 9 12.78 9.52 12.78 10.01 12.78 12.72 13.65 15.21 15.05 16.51L16.2 17.58 14.74 18.17C14.12 18.42 13.51 18.54 12.91 18.54ZM5.3 7.7C5.83 9.71 6.98 13.15 8.95 14.64 10.45 15.76 11.54 16.36 12.49 16.49 11.41 14.78 10.79 12.48 10.79 10 10.79 9.59 10.83 9.16 10.9 8.71 9.01 7.75 6.77 7.65 5.3 7.7Z" class="MsftOfcResponsive_Fill_7823dc" stroke-width="0" fill="#7823DC"/></g><path d="M16 32.01C13.1 32.01 8.9 30.91 5.81 27.83 4.09 26.11 2.92 24.63 2.06 23.55 1.51 22.85 0.89 22.06 0.64 21.95L0.06 21.68-0.01 21.01-0.01 15.01 5.16 15.01C7.46 15.01 9.69 16.22 10.45 16.68L14.33 16.68C14.96 16.68 15.54 16.9 16 17.27 16.46 16.9 17.04 16.68 17.67 16.68L21.55 16.68C22.31 16.22 24.54 15.01 26.84 15.01L32.01 15.01 32.01 21.71 31.35 21.95C31.26 21.98 31.03 22.23 30.8 22.47 30.15 23.16 29.06 24.3 26.57 26.01 25.51 26.73 24.43 27.26 23.4 27.65 23.58 28 23.68 28.41 23.68 28.83 23.68 29.93 22.93 30.95 21.86 31.3 20.09 31.89 17.7 32.01 16.01 32.01ZM2 20.45C2.48 20.84 2.97 21.45 3.63 22.3 4.46 23.34 5.59 24.77 7.22 26.41 9.87 29.06 13.49 30.01 15.99 30.01 17.53 30.01 19.69 29.9 21.21 29.4 21.5 29.3 21.66 29.03 21.66 28.82 21.66 28.7 21.63 28.54 21.54 28.46 21.41 28.35 21.11 28.32 20.72 28.37L20.72 28.37C19.06 28.67 17.67 28.67 16.83 28.67 11.83 28.67 8.33 26.2 8.33 22.67 8.33 21 9.33 20 11 20L14.33 20C14.7 20 15 19.7 15 19.33 15 18.96 14.7 18.66 14.33 18.66L9.86 18.66 9.61 18.49C9.61 18.49 7.32 16.99 5.16 16.99L1.99 16.99 1.99 20.44ZM10.46 23.55C11.09 25.69 14.06 26.68 16.84 26.68 17.67 26.68 18.95 26.68 20.45 26.4L20.45 26.4C20.45 26.4 20.48 26.4 20.5 26.4 22.01 26.11 23.74 25.53 25.45 24.37 27.77 22.79 28.76 21.74 29.36 21.11 29.59 20.87 29.8 20.65 30.02 20.47L30.02 17.03 26.85 17.03C25.05 17.03 23.03 18.11 22.4 18.53L22.15 18.7 17.68 18.7C17.31 18.7 17.01 19 17.01 19.37 17.01 19.74 17.31 20.04 17.68 20.04L21.01 20.04C23.33 20.04 23.68 21.36 23.68 22.15 23.68 24.17 21.13 25.37 16.85 25.37 14.42 25.37 12.44 24.43 11.2 23.65 10.95 23.5 10.69 23.51 10.47 23.58ZM12.38 22.01C13.4 22.64 14.96 23.34 16.84 23.34 20.28 23.34 21.67 22.48 21.67 22.12 21.67 22.07 21.52 22.01 21 22.01L17.67 22.01C17.04 22.01 16.46 21.79 16 21.42 15.54 21.79 14.96 22.01 14.33 22.01L12.37 22.01Z" class="MsftOfcResponsive_Fill_7823dc" stroke-width="0" fill="#7823DC"/></svg>