<svg viewBox="0 0 32.45 32.38" xmlns="http://www.w3.org/2000/svg" xmlns:xlink="http://www.w3.org/1999/xlink" id="Grid" overflow="hidden"><style>
.MsftOfcResponsive_Fill_7823dc {
 fill:#7823DC; 
}
</style>
<defs></defs><path d="M31.27 15.1C31.06 15.1 26.04 15.1 22.74 18.27 21.99 19 21.41 19.81 20.95 20.66L20.95 15.16C20.95 12.54 19.29 10.22 16.9 9.32L16.9 4.87 14.65 4.87 14.65 2.32 21.13 2.32 21.13 0 6.08 0 6.08 4.87 4.05 4.87 4.05 9.32C1.65 10.21 8.88178e-16 12.53 8.88178e-16 15.16L8.88178e-16 32.39 20.94 32.39 20.94 27.87C22.35 27.79 26.22 27.33 28.93 24.72 32.23 21.53 32.41 16.52 32.41 16.31L32.44 15.13 31.26 15.13 31.26 15.11 31.26 15.11ZM8.39 2.32 12.31 2.32 12.31 4.87 8.39 4.87 8.39 2.32 8.39 2.32ZM6.36 7.19 14.57 7.19 14.57 8.81 6.37 8.81 6.37 7.19 6.37 7.19ZM18.62 30.06 2.32 30.06 2.32 15.15C2.32 13.3 3.64 11.69 5.45 11.32L6.38 11.13 14.59 11.13 15.52 11.32C17.33 11.69 18.65 13.3 18.65 15.15L18.65 20.21C18.26 19.5 17.77 18.81 17.16 18.18 13.98 14.88 8.96 14.69 8.76 14.69L7.58 14.66 7.58 15.84C7.57 16.05 7.57 21.08 10.74 24.38 13.38 27.13 17.29 27.71 18.66 27.83L18.66 30.04 18.66 30.04ZM17.88 25.41C16.41 25.16 14.01 24.49 12.37 22.78 10.71 21.07 10.15 18.64 9.95 17.17 11.41 17.41 13.8 18.07 15.46 19.8 17.1 21.51 17.68 23.94 17.88 25.41L17.88 25.41ZM27.31 23.03C25.6 24.68 23.18 25.25 21.71 25.45 21.96 23.99 22.61 21.59 24.34 19.94 26.05 18.29 28.47 17.72 29.94 17.52 29.69 18.99 29.03 21.39 27.31 23.03L27.31 23.03Z" class="MsftOfcResponsive_Fill_7823dc" stroke-width="0" fill="#7823DC" fill-rule="evenodd"/></svg>