<svg viewBox="0 0 32 32" xmlns="http://www.w3.org/2000/svg" xmlns:xlink="http://www.w3.org/1999/xlink" id="Grid" overflow="hidden"><defs></defs><path d="M23.95 12.37C23.95 12.28 23.93 12.2 23.91 12.11 23.56 9.8 22.82 4.78 22.76 4.02L22.74 4.02C22.62 2.62 21.84 1.34 20.62 0.61 19.94 0.21 19.16 0 18.37 0 15.95 0 13.98 1.97 13.98 4.39 13.98 6.02 14.88 7.42 16.2 8.18L15.76 10.05C13.27 10.86 9.59 12.75 9.59 14.87 9.59 15.64 9.89 16.35 10.37 16.93 7.66 18.05 5.37 20.53 5.37 23.59 5.37 26.32 7.29 28.9 10.04 30.14L10.04 32.04 12.04 32.04 12.04 28.72C11.35 28.55 10.67 28.26 10.04 27.87 8.54 26.92 7.37 25.38 7.37 23.6 7.37 22.33 7.97 21.18 8.86 20.27L16.85 24.54 17.13 24.64C17.35 24.68 17.56 24.7 17.78 24.7 18.83 24.7 19.8 24.21 20.44 23.41 21.39 25.38 22.31 28.97 18.79 32.16L20.13 33.64C25.01 29.22 23.27 23.77 21.46 21.13L23.84 13.65C23.96 13.26 23.99 12.87 23.96 12.48L23.97 12.48C23.97 12.48 23.96 12.4 23.95 12.36ZM21.53 9.71C21.32 9.67 21.1 9.63 20.88 9.63L17.9 9.63 18.11 8.76C18.2 8.76 18.28 8.79 18.37 8.79 19.47 8.79 20.47 8.37 21.24 7.7 21.34 8.37 21.44 9.06 21.53 9.72ZM15.98 4.39C15.98 3.07 17.05 2 18.37 2 18.8 2 19.22 2.12 19.59 2.33 20.32 2.77 20.76 3.54 20.76 4.39 20.76 5.71 19.69 6.78 18.37 6.78 17.05 6.78 15.98 5.71 15.98 4.39ZM21.93 13.06 19.14 21.71C18.93 22.35 18.3 22.76 17.65 22.69L10.69 18.97C11.42 18.61 12.21 18.38 12.98 18.31L17.41 20.48 19.22 15.81 17.35 15.09C17.35 15.09 16.33 17.73 16.33 17.73L14.7 16.93C14.19 16.68 13.67 16.44 13.16 16.17 12.71 15.93 12.23 15.67 11.98 15.22 11.86 15 11.82 14.75 11.91 14.51 11.95 14.4 12.01 14.31 12.07 14.21 13.3 13.13 16.52 11.63 17.67 11.63L20.89 11.63C21.24 11.63 21.57 11.79 21.78 12.08 21.87 12.2 21.92 12.33 21.95 12.46 21.96 12.54 21.97 12.61 21.98 12.66 21.98 12.79 21.98 12.93 21.94 13.06Z" stroke-width="0" fill="#7823DC"/></svg>