<svg viewBox="0 0 32 32" xmlns="http://www.w3.org/2000/svg" xmlns:xlink="http://www.w3.org/1999/xlink" id="Graphic" overflow="hidden"><style>
.MsftOfcResponsive_Fill_7823dc {
 fill:#7823DC; 
}
</style>
<defs></defs><path d="M15.9961 9.925C21.5119 9.93119 25.9818 14.4011 25.9881 19.9169L27.9881 19.9169C27.982 13.2939 22.6082 7.92984 15.9852 7.93589 9.37078 7.94193 4.01024 13.3025 4.0042 19.9169L6.0042 19.9169C6.01046 14.4011 10.4803 9.93125 15.9961 9.925Z" class="MsftOfcResponsive_Fill_7823dc" fill="#7823DC"/><rect x="-0.00214" y="-0.05957" width="31.9918" height="1.98837" class="MsftOfcResponsive_Fill_7823dc" fill="#7823DC"/><rect x="-0.00195" y="1.92287" width="2" height="2" class="MsftOfcResponsive_Fill_7823dc" fill="#7823DC"/><rect x="5.99805" y="1.92287" width="2" height="2" class="MsftOfcResponsive_Fill_7823dc" fill="#7823DC"/><rect x="11.998" y="1.92287" width="2" height="2" class="MsftOfcResponsive_Fill_7823dc" fill="#7823DC"/><rect x="17.998" y="1.92287" width="2" height="2" class="MsftOfcResponsive_Fill_7823dc" fill="#7823DC"/><rect x="23.998" y="1.92287" width="2" height="2" class="MsftOfcResponsive_Fill_7823dc" fill="#7823DC"/><rect x="29.998" y="1.92287" width="2" height="2" class="MsftOfcResponsive_Fill_7823dc" fill="#7823DC"/><rect x="3.99796" y="19.1726" width="1.98357" height="12.7678" class="MsftOfcResponsive_Fill_7823dc" fill="#7823DC"/><rect x="26.0146" y="19.1726" width="1.98339" height="12.7678" class="MsftOfcResponsive_Fill_7823dc" fill="#7823DC"/><rect x="0.00214" y="3.93269" width="31.9918" height="1.98837" class="MsftOfcResponsive_Fill_7823dc" fill="#7823DC"/><rect x="0.00214" y="30" width="6.51813" height="2" class="MsftOfcResponsive_Fill_7823dc" fill="#7823DC"/><rect x="25.4819" y="29.9521" width="6.51813" height="2.04794" class="MsftOfcResponsive_Fill_7823dc" fill="#7823DC"/><rect x="-15.0297" y="14.9781" width="32.0555" height="1.98837" class="MsftOfcResponsive_Fill_7823dc" fill="#7823DC" transform="matrix(6.12323e-17 1 -1 6.12323e-17 16.9703 14.9742)"/><rect x="15.0021" y="14.9462" width="31.9918" height="1.98837" class="MsftOfcResponsive_Fill_7823dc" fill="#7823DC" transform="matrix(6.12323e-17 1 -1 6.12323e-17 46.9385 -15.0576)"/><path d="M7.137 32 13.5 10.221 11.58 9.66 5.053 32 7.137 32Z" class="MsftOfcResponsive_Fill_7823dc" fill="#7823DC"/><path d="M26.112 32 27.035 31.73 20.477 9.282 18.557 9.843 25.03 32 26.112 32Z" class="MsftOfcResponsive_Fill_7823dc" fill="#7823DC"/></svg>