<svg viewBox="0 0 32 32" xmlns="http://www.w3.org/2000/svg" xmlns:xlink="http://www.w3.org/1999/xlink" overflow="hidden"><style>
.MsftOfcResponsive_Fill_7823dc {
 fill:#7823DC; 
}
</style>
<defs></defs><g id="Layer_3"><path d="M30 2.00018 30 16.0002 2 16.0002 2 2.00018 30 2.00018M32 0.00018 0 0.00018 0 18.0002 32 18.0002 32 0.00018Z" class="MsftOfcResponsive_Fill_7823dc" fill="#7823DC"/><rect x="4" y="12" width="24" height="2" class="MsftOfcResponsive_Fill_7823dc" fill="#7823DC"/><path d="M6 8 4 8 4 10 6 10 6 8 6 8Z" class="MsftOfcResponsive_Fill_7823dc" fill="#7823DC"/><path d="M10 8 8 8 8 10 10 10 10 8 10 8Z" class="MsftOfcResponsive_Fill_7823dc" fill="#7823DC"/><path d="M14 8 12 8 12 10 14 10 14 8 14 8Z" class="MsftOfcResponsive_Fill_7823dc" fill="#7823DC"/><path d="M18 8 16 8 16 10 18 10 18 8 18 8Z" class="MsftOfcResponsive_Fill_7823dc" fill="#7823DC"/><path d="M22 8 20 8 20 10 22 10 22 8 22 8Z" class="MsftOfcResponsive_Fill_7823dc" fill="#7823DC"/><path d="M28 8 24 8 24 10 28 10 28 8 28 8Z" class="MsftOfcResponsive_Fill_7823dc" fill="#7823DC"/><path d="M28 4 24 4 24 6 28 6 28 4 28 4Z" class="MsftOfcResponsive_Fill_7823dc" fill="#7823DC"/><path d="M6 4 4 4 4 6 6 6 6 4 6 4Z" class="MsftOfcResponsive_Fill_7823dc" fill="#7823DC"/><path d="M10 4 8 4 8 6 10 6 10 4 10 4Z" class="MsftOfcResponsive_Fill_7823dc" fill="#7823DC"/><path d="M14 4 12 4 12 6 14 6 14 4 14 4Z" class="MsftOfcResponsive_Fill_7823dc" fill="#7823DC"/><path d="M18 4 16 4 16 6 18 6 18 4 18 4Z" class="MsftOfcResponsive_Fill_7823dc" fill="#7823DC"/><path d="M22 4 20 4 20 6 22 6 22 4 22 4Z" class="MsftOfcResponsive_Fill_7823dc" fill="#7823DC"/><path d="M22 24.0002 22 30.0002 18 30.0002 18 24.0002 22 24.0002M24 22.0002 16 22.0002 16 32.0002 24 32.0002 24 22.0002Z" class="MsftOfcResponsive_Fill_7823dc" fill="#7823DC"/><path d="M28 30 24 30 24 28 26 28 26 21 10 21 10 28 16 28 16 30 8 30 8 19 28 19 28 30Z" class="MsftOfcResponsive_Fill_7823dc" fill="#7823DC"/></g></svg>