<svg viewBox="0 0 32 32" xmlns="http://www.w3.org/2000/svg" xmlns:xlink="http://www.w3.org/1999/xlink" overflow="hidden"><style>
.MsftOfcResponsive_Fill_7823dc {
 fill:#7823DC; 
}
</style>
<defs></defs><g id="Layer_3"><path d="M15.1721 5.93146 16.0005 6.75989 16.0005 11.9276 8.00042 11.9276 8.00042 6.76 8.82893 5.93151 15.1721 5.93151M16.0005 3.93151 8.00054 3.93151 6.00042 5.93151 6.00042 13.9276 18.0005 13.9276 18.0005 5.93146 16.0005 3.93146Z" class="MsftOfcResponsive_Fill_7823dc" fill="#7823DC"/><path d="M25.4017 13.9302 29.9991 16.9547 29.9991 19.9473 2.00219 19.9473 2.00219 16.7291 4.83492 13.9301 25.4017 13.9301M26.0005 11.9301 4.0135 11.9301 0.00218 15.8937 0.00218 21.9473 31.9992 21.9473 31.9992 15.8764 26.0006 11.9302Z" class="MsftOfcResponsive_Fill_7823dc" fill="#7823DC"/><path d="M32.001 5.947 16.001 5.947 16.001 7.947 32.001 7.947 32.001 5.947 32.001 5.947Z" class="MsftOfcResponsive_Fill_7823dc" fill="#7823DC"/><path d="M27.8673 24.9195 27.8636 24.9086 25.4289 27.3432 25.3969 27.3751 25.3225 27.4496 25.3153 27.4425C24.9537 27.7658 24.4861 27.9454 24.001 27.9473L8.00124 27.9473C7.51528 27.9474 7.04604 27.7698 6.68191 27.448L6.67416 27.4557 4.13582 24.9174C3.56802 27.0533 4.83924 29.2451 6.97517 29.8129 7.30998 29.9019 7.65493 29.9471 8.00136 29.9473L24.001 29.9473C24.7035 29.9481 25.3937 29.7629 26.0014 29.4104 26.6081 29.0584 27.1124 28.554 27.4644 27.9473 27.9937 27.031 28.1385 25.9424 27.8673 24.9196Z" class="MsftOfcResponsive_Fill_7823dc" fill="#7823DC"/><path d="M2.001 17.055 0.001 17.055 0.001 23.546 2.001 23.546 2.001 17.055 2.001 17.055Z" class="MsftOfcResponsive_Fill_7823dc" fill="#7823DC"/><path d="M32.001 17.055 30.001 17.055 30.001 23.546 32.001 23.546 32.001 17.055 32.001 17.055Z" class="MsftOfcResponsive_Fill_7823dc" fill="#7823DC"/><path d="M11.4177 23.4451C10.6095 23.4451 9.95424 24.1003 9.95423 24.9086 9.95422 25.7168 10.6094 26.372 11.4177 26.372 12.2259 26.372 12.8811 25.7168 12.8811 24.9086 12.8811 24.9086 12.8811 24.9086 12.8811 24.9086 12.8811 24.1003 12.2259 23.4451 11.4177 23.4451Z" class="MsftOfcResponsive_Fill_7823dc" fill="#7823DC"/><path d="M15.8043 23.4451C14.9961 23.4451 14.3409 24.1003 14.3408 24.9086 14.3408 25.7168 14.996 26.372 15.8043 26.372 16.6125 26.372 17.2677 25.7168 17.2677 24.9086 17.2677 24.9086 17.2677 24.9086 17.2677 24.9086 17.2677 24.1003 16.6125 23.4451 15.8043 23.4451Z" class="MsftOfcResponsive_Fill_7823dc" fill="#7823DC"/><path d="M20.1909 23.4451C19.3827 23.4451 18.7275 24.1003 18.7275 24.9086 18.7274 25.7168 19.3826 26.372 20.1909 26.372 20.9991 26.372 21.6543 25.7168 21.6543 24.9086 21.6543 24.9086 21.6543 24.9086 21.6543 24.9086 21.6543 24.1003 20.9991 23.4451 20.1909 23.4451Z" class="MsftOfcResponsive_Fill_7823dc" fill="#7823DC"/><path d="M24.5775 23.4451C23.7693 23.4451 23.1141 24.1004 23.1141 24.9086 23.1141 25.7168 23.7693 26.372 24.5776 26.372 25.3858 26.372 26.041 25.7168 26.041 24.9086 26.041 24.1003 25.3858 23.4451 24.5776 23.4451Z" class="MsftOfcResponsive_Fill_7823dc" fill="#7823DC"/><path d="M7.03107 23.4451C6.22283 23.4451 5.56762 24.1003 5.56761 24.9086 5.5676 25.7168 6.22279 26.372 7.03103 26.372 7.83927 26.372 8.49448 25.7168 8.49449 24.9086 8.49449 24.9086 8.49449 24.9086 8.49449 24.9086 8.4945 24.1003 7.8393 23.4451 7.03107 23.4451Z" class="MsftOfcResponsive_Fill_7823dc" fill="#7823DC"/><path d="M1.201 21.992 0 23.194 0 23.595 5.265 28.86 6.667 27.458 5.062 25.853 5.062 25.853 5.062 25.853 3.836 24.627 1.201 21.992 1.201 21.992Z" class="MsftOfcResponsive_Fill_7823dc" fill="#7823DC"/><path d="M30.795 21.973 25.322 27.446 26.736 28.86 32 23.596 32 23.178 30.795 21.973 30.795 21.973Z" class="MsftOfcResponsive_Fill_7823dc" fill="#7823DC"/></g></svg>