<svg viewBox="0 0 32 32" xmlns="http://www.w3.org/2000/svg" xmlns:xlink="http://www.w3.org/1999/xlink" id="Layer_1" overflow="hidden"><path d="M7 23.2C6.9 23.2 1.1 20.8 0.2 15.8-0.2 13.6 0.3 11.5 1.7 9.9 3.3 8 5.8 6.9 8.4 6.9 10.9 6.9 13.8 8.6 14.6 10.1L12.8 11C12.4 10.3 10.3 8.9 8.4 8.9 6.4 8.9 4.4 9.8 3.2 11.2 2.5 12 1.7 13.5 2.1 15.5 2.8 19.3 7.6 21.4 7.7 21.4L7 23.2Z" fill="#7823DC"/><path d="M24.6 23.2 23.8 21.4C25.5 20.8 29.4 19.1 29.9 15.9 30.3 14 29.4 12.4 28.7 11.5 27.3 9.9 25.2 8.8 23.1 8.8L23.1 6.8C25.7 6.8 28.5 8.1 30.2 10.2 31.7 12 32.3 14.1 31.9 16.2 31.2 20.4 26.5 22.5 24.6 23.2Z" fill="#7823DC"/><path d="M22.5 12.7 21.2 11.2C21.9 10.6 22.3 9.9 22.5 9.2 22.8 7.7 22.1 5.8 20.7 4.3 19.3 2.8 17.5 2 15.8 2.2 13.2 2.4 10.1 4.7 9.4 8L7.4 7.6C8.2 3.7 11.7 0.5 15.5 0.1 17.9-0.1 20.3 0.9 22.1 2.9 23.9 4.9 24.8 7.4 24.3 9.6 24.1 10.7 23.5 11.8 22.5 12.7Z" fill="#7823DC"/><path d="M16.6 28.4 16.6 30 14.7 30 14.7 28.4 16.6 28.4M18.6 26.4 12.7 26.4 12.7 32 18.6 32 18.6 26.4 18.6 26.4Z" fill="#7823DC"/><g><path d="M17.5 28.4C16.6 28.4 15.9 28.1 15.4 27.7 13.7 26 15.1 22.4 16.6 20.4 18.7 17.6 22.4 17.4 23.8 17.4 24 17.4 24.1 17.4 24.2 17.4L25 17.3 25.2 18.1C25.4 18.9 25.8 22.6 23.1 25.7 21.7 27.3 19.5 28.4 17.7 28.5 17.6 28.4 17.5 28.4 17.5 28.4ZM23.3 19.4C21.9 19.5 19.5 19.9 18.2 21.6 16.9 23.3 16.3 25.7 16.8 26.2 16.9 26.3 17.2 26.4 17.6 26.4 18.7 26.4 20.5 25.6 21.6 24.3 23.2 22.5 23.4 20.5 23.3 19.4Z" fill="#7823DC"/><path d="M13.7 28.4C13.6 28.4 13.6 28.4 13.5 28.4 11.7 28.3 9.4 27.2 8.1 25.6 5.4 22.5 5.8 18.7 6 18L6.2 17.2 7 17.3C7.1 17.3 7.2 17.3 7.4 17.3 8.8 17.4 12.5 17.6 14.6 20.3 16.1 22.3 17.5 25.9 15.8 27.6 15.3 28.2 14.6 28.4 13.7 28.4ZM7.9 19.4C7.9 20.5 8.1 22.5 9.6 24.4 10.7 25.7 12.5 26.4 13.6 26.5 14 26.5 14.3 26.5 14.4 26.3 14.9 25.8 14.3 23.4 13 21.7 11.7 19.9 9.3 19.5 7.9 19.4Z" fill="#7823DC"/></g></svg>