<svg viewBox="0 0 29.22 29.22" xmlns="http://www.w3.org/2000/svg" xmlns:xlink="http://www.w3.org/1999/xlink" xml:space="preserve" overflow="hidden"><g id="Layer_3"></g><g id="Layer_1"></g><g id="Layer_2"></g><g id="Layer_4"></g><g id="Layer_5"><g><path d="M24.62 5.16C24.18 3.63 22.78 2.49 21.11 2.49 19.44 2.49 18.04 3.62 17.6 5.16L0 5.16 0 7.16 17.6 7.16C18.04 8.69 19.44 9.82 21.11 9.82 22.78 9.82 24.18 8.69 24.62 7.16L29.22 7.16 29.22 5.16 24.62 5.16ZM21.11 7.82C20.19 7.82 19.44 7.07 19.44 6.16 19.44 5.25 20.19 4.49 21.11 4.49 22.03 4.49 22.77 5.24 22.77 6.16 22.77 7.08 22.03 7.82 21.11 7.82Z" fill="#7823DC"/><path d="M7.76 10.97C6.09 10.97 4.69 12.1 4.25 13.64L0 13.64 0 15.64 4.26 15.64C4.7 17.17 6.1 18.3 7.77 18.3 9.44 18.3 10.84 17.17 11.28 15.64L29.22 15.64 29.22 13.64 11.27 13.64C10.83 12.1 9.44 10.97 7.76 10.97ZM7.76 16.3C6.84 16.3 6.09 15.55 6.09 14.64 6.09 13.73 6.84 12.97 7.76 12.97 8.68 12.97 9.42 13.72 9.42 14.64 9.42 15.56 8.68 16.3 7.76 16.3Z" fill="#7823DC"/><path d="M16.18 19.44C14.51 19.44 13.11 20.57 12.67 22.1L0 22.1 0 24.1 12.67 24.1C13.11 25.63 14.51 26.77 16.18 26.77 17.85 26.77 19.25 25.64 19.69 24.1L29.22 24.1 29.22 22.1 19.69 22.1C19.25 20.57 17.85 19.44 16.18 19.44ZM16.18 24.77C15.26 24.77 14.51 24.02 14.51 23.1 14.51 22.18 15.26 21.44 16.18 21.44 17.1 21.44 17.84 22.19 17.84 23.1 17.84 24.01 17.1 24.77 16.18 24.77Z" fill="#7823DC"/></g></g></svg>