<svg viewBox="0 0 32 32" xmlns="http://www.w3.org/2000/svg" xmlns:xlink="http://www.w3.org/1999/xlink" id="Layer_1" overflow="hidden"><style>
.MsftOfcResponsive_Fill_7823dc {
 fill:#7823DC; 
}
</style>
<g><path d="M23 9.3 23.7 10.7 30 9.1 30 7 11.4 11.9 11.3 13.8 16.3 15.8 10 17.3C10.3 17.9 10.5 18.6 10.5 19.2L19.8 16.9 19.9 15 14.9 13 21.8 11.2 21.3 10.2 23 9.3 23 9.3Z" class="MsftOfcResponsive_Fill_7823dc" fill="#7823DC" fill-rule="evenodd" clip-rule="evenodd"/><path d="M4.9 20.7 8.5 19.8C8.5 19.8 8.5 19.7 8.5 19.7 8.5 19.1 8.3 18.4 7.9 17.9L4.3 18.8 4.9 20.7 4.9 20.7Z" class="MsftOfcResponsive_Fill_7823dc" fill="#7823DC" fill-rule="evenodd" clip-rule="evenodd"/><path d="M26.7 14.4C26.3 14.4 25.9 14.5 25.5 14.5L26.4 16.4 26.6 16.4C28.4 16.4 30 17.8 30 19.7 30 21.5 28.6 23.1 26.7 23.1 24.9 23.1 23.3 21.7 23.3 19.8 23.3 18.8 23.7 17.9 24.5 17.2L23.6 15.3C21.2 17 20.6 20.3 22.3 22.7 24 25.1 27.2 25.7 29.6 24 32 22.3 32.6 19 30.9 16.6 30 15.3 28.4 14.4 26.7 14.4L26.7 14.4Z" class="MsftOfcResponsive_Fill_7823dc" fill="#7823DC" fill-rule="evenodd" clip-rule="evenodd"/><path d="M5.2 23C3.4 23 1.9 21.6 1.9 19.7 1.9 17.9 3.3 16.4 5.1 16.4 6.2 16.4 7.3 17 7.9 17.9L9.9 17.4C8.6 14.8 5.5 13.7 2.9 15 0.3 16.3-0.8 19.4 0.5 22.1 1.8 24.7 4.9 25.8 7.5 24.5 9.3 23.6 10.4 21.8 10.4 19.7 10.4 19.6 10.4 19.5 10.4 19.3L8.4 19.8C8.4 21.6 7 23 5.2 23L5.2 23Z" class="MsftOfcResponsive_Fill_7823dc" fill="#7823DC" fill-rule="evenodd" clip-rule="evenodd"/><path d="M7.9 17.9C8.3 18.4 8.4 19.1 8.4 19.7 8.4 19.7 8.4 19.8 8.4 19.8L10.4 19.3C10.4 18.6 10.2 17.9 9.9 17.3L7.9 17.9Z" class="MsftOfcResponsive_Fill_7823dc" fill="#7823DC" fill-rule="evenodd" clip-rule="evenodd"/><path d="M23.7 10.8 21.7 11.3 23.6 15.3C24.1 14.9 24.8 14.6 25.4 14.5L23.7 10.8Z" class="MsftOfcResponsive_Fill_7823dc" fill="#7823DC" fill-rule="evenodd" clip-rule="evenodd"/><path d="M26.2 20.5 28 19.6 26.4 16.3C25.7 16.3 25.1 16.6 24.5 17.1L26.2 20.5Z" class="MsftOfcResponsive_Fill_7823dc" fill="#7823DC" fill-rule="evenodd" clip-rule="evenodd"/><path d="M23 9.4 21.2 10.2 21.7 11.3 23.7 10.7 23 9.4 23 9.4Z" class="MsftOfcResponsive_Fill_7823dc" fill="#7823DC" fill-rule="evenodd" clip-rule="evenodd"/><path d="M26.4 16.4 25.5 14.5C24.8 14.6 24.2 14.9 23.7 15.3L24.6 17.2C25.1 16.7 25.7 16.5 26.4 16.4L26.4 16.4Z" class="MsftOfcResponsive_Fill_7823dc" fill="#7823DC" fill-rule="evenodd" clip-rule="evenodd"/></g></svg>