<svg viewBox="0 0 32 32" xmlns="http://www.w3.org/2000/svg" xmlns:xlink="http://www.w3.org/1999/xlink" overflow="hidden"><defs></defs><g id="Layer_3"><g id="Layer_2-2"><g id="Layer_1-2"><g id="Graphic-2"><path d="M13.691 16.039 12.691 6.939 16.291 6.939 16.291 4.939 10.491 4.939 11.691 16.039 13.691 16.039Z" fill="#7823DC"/><path d="M9.491 4.939 3.691 4.939 3.691 6.939 7.191 6.939 6.291 16.039 6.291 16.039 8.291 16.039 9.491 4.939Z" fill="#7823DC"/><path d="M9.99051 4.43924C11.0951 4.43924 11.9905 3.54381 11.9905 2.43924 11.9905 1.33467 11.0951 0.43924 9.99051 0.43924 8.88594 0.43924 7.99051 1.33467 7.99051 2.43924 7.95684 3.51014 8.79769 4.40557 9.86859 4.43924 9.90922 4.44051 9.94986 4.44051 9.99051 4.43924Z" fill="#7823DC"/><path d="M25.391 16.039 24.391 6.939 27.991 6.939 27.991 4.939 22.191 4.939 23.391 16.039 25.291 16.039 25.391 16.039Z" fill="#7823DC"/><path d="M21.091 4.939 15.291 4.939 15.291 6.939 18.891 6.939 17.891 16.039 17.991 16.039 19.891 16.039 21.091 4.939Z" fill="#7823DC"/><path d="M21.5905 4.43924C22.6951 4.43924 23.5905 3.54381 23.5905 2.43924 23.5905 1.33467 22.6951 0.43924 21.5905 0.43924 20.4859 0.43924 19.5905 1.33467 19.5905 2.43924 19.5905 3.54381 20.4859 4.43924 21.5905 4.43924Z" fill="#7823DC"/><path d="M29.4905 16.4392C29.4905 15.3347 28.5951 14.4392 27.4905 14.4392 26.3859 14.4392 25.4905 15.3347 25.4905 16.4392 25.4905 17.5438 26.3859 18.4392 27.4905 18.4392 28.5951 18.4392 29.4905 17.5438 29.4905 16.4392Z" fill="#7823DC"/><path d="M6.19051 16.4392C6.19051 15.3347 5.29508 14.4392 4.19051 14.4392 3.08594 14.4392 2.19051 15.3347 2.19051 16.4392 2.19051 17.5438 3.08594 18.4392 4.19051 18.4392 5.29508 18.4392 6.19051 17.5438 6.19051 16.4392Z" fill="#7823DC"/><path d="M31.291 30.039 30.291 20.939 31.891 20.939 31.891 18.939 27.991 18.939 29.191 30.039 31.191 30.039 31.291 30.039Z" fill="#7823DC"/><path d="M26.991 18.939 21.191 18.939 21.191 20.939 24.791 20.939 23.791 30.039 23.891 30.039 25.791 30.039 26.991 18.939Z" fill="#7823DC"/><path d="M19.591 30.039 18.591 20.939 22.191 20.939 22.191 18.939 16.391 18.939 17.591 30.039 19.491 30.039 19.591 30.039Z" fill="#7823DC"/><path d="M15.391 18.939 9.491 18.939 9.491 20.939 13.091 20.939 12.091 30.039 12.191 30.039 14.091 30.039 15.391 18.939Z" fill="#7823DC"/><path d="M15.7905 18.4392C16.8951 18.4392 17.7905 17.5438 17.7905 16.4392 17.7905 15.3347 16.8951 14.4392 15.7905 14.4392 14.6859 14.4392 13.7905 15.3347 13.7905 16.4392 13.7905 17.5438 14.6859 18.4392 15.7905 18.4392Z" fill="#7823DC"/><path d="M7.991 30.039 6.991 20.939 10.491 20.939 10.491 18.939 4.691 18.939 5.891 30.039 7.891 30.039 7.991 30.039Z" fill="#7823DC"/><path d="M3.691 18.939-0.109 18.939-0.109 20.939 1.491 20.939 0.491 30.039 0.591 30.039 2.491 30.039 3.691 18.939Z" fill="#7823DC"/></g></g></g></g></svg>