<svg viewBox="0 0 32 32" xmlns="http://www.w3.org/2000/svg" xmlns:xlink="http://www.w3.org/1999/xlink" id="Layer_2_1_" xml:space="preserve" overflow="hidden"><style>
.MsftOfcResponsive_Fill_7823dc {
 fill:#7823DC; 
}
</style>
<g><g><g><path d="M7 26.8 21 26.8 21 28.9 7 28.9Z" class="MsftOfcResponsive_Fill_7823dc" fill="#7823DC"/></g></g></g><rect x="10.6" y="11" width="8.9" height="2" class="MsftOfcResponsive_Fill_7823dc" fill="#7823DC" transform="matrix(0.8131 -0.5821 0.5821 0.8131 -4.1392 11.0335)"/><path d="M28 26.1C29.1 26.1 30 27 30 28.1 30 29.2 29.1 30.1 28 30.1 26.9 30.1 26 29.2 26 28.1 26 27 26.9 26.1 28 26.1M28 24.1C25.8 24.1 24 25.9 24 28.1 24 30.3 25.8 32.1 28 32.1 30.2 32.1 32 30.3 32 28.1 32 25.9 30.2 24.1 28 24.1L28 24.1Z" class="MsftOfcResponsive_Fill_7823dc" fill="#7823DC"/><path d="M4 26C5.1 26 6 26.9 6 28 6 29.1 5.1 30 4 30 2.9 30 2 29.1 2 28 2 26.9 2.9 26 4 26M4 24C1.8 24 0 25.8 0 28 0 30.2 1.8 32 4 32 6.2 32 8 30.2 8 28 7.9 25.8 6.2 24 4 24L4 24Z" class="MsftOfcResponsive_Fill_7823dc" fill="#7823DC"/><g><path d="M4.6 6.8 0.8 3.7 0.8 1 2.8 1 2.8 2.7 4.6 4.2 6.2 2.8 6.2 1 8.2 1 8.2 3.8Z" class="MsftOfcResponsive_Fill_7823dc" fill="#7823DC"/><path d="M8.2 11.8 6.2 11.8 6.2 10 4.5 8.6 2.8 10.1 2.8 11.8 0.8 11.8 0.8 9.1 4.5 6 8.2 9Z" class="MsftOfcResponsive_Fill_7823dc" fill="#7823DC"/><rect x="0" y="0" width="9" height="2" class="MsftOfcResponsive_Fill_7823dc" fill="#7823DC"/><rect x="0" y="10.8" width="9" height="2" class="MsftOfcResponsive_Fill_7823dc" fill="#7823DC"/></g><g><path d="M29.7 9.7C29.1 10.6 28.3 11.1 27.5 11.1 25.8 11.1 24.4 9 24.4 6.6 24.3 4 25.7 2 27.5 2 28.3 2 29.1 2.5 29.6 3.3L31.9 3.3C31 1.3 29.4 0 27.5 0 24.7 0 22.3 3 22.3 6.5 22.3 10 24.6 13 27.5 13 29.4 13 31.1 11.6 32 9.7L29.7 9.7 29.7 9.7 29.7 9.7Z" class="st0 MsftOfcResponsive_Fill_7823dc" fill="#7823DC" fill-rule="evenodd" clip-rule="evenodd"/><path d="M21 3.4 28.3 3.4 28.3 5.4 21 5.4 21 3.4Z" class="st0 MsftOfcResponsive_Fill_7823dc" fill="#7823DC" fill-rule="evenodd" clip-rule="evenodd"/><path d="M21 6.9 28.3 6.9 28.3 9 21 9 21 6.9Z" class="st0 MsftOfcResponsive_Fill_7823dc" fill="#7823DC" fill-rule="evenodd" clip-rule="evenodd"/></g><rect x="19.2" y="10.3" width="2" height="17.5" class="MsftOfcResponsive_Fill_7823dc" fill="#7823DC" transform="matrix(0.8059 -0.5921 0.5921 0.8059 -7.3709 15.6593)"/><path d="M4.1 20.3 4.1 20.3 4 22.3 4.1 22.3C7.3 22.3 9.9 24.9 9.9 28L11.9 28C11.8 23.7 8.3 20.3 4.1 20.3Z" class="MsftOfcResponsive_Fill_7823dc" fill="#7823DC"/><path d="M22.8 21.6C20.7 23 19.3 25.4 19.3 28.1 19.3 28.4 19.3 28.6 19.3 28.9L21.3 28.9C21.3 28.6 21.2 28.4 21.2 28.1 21.2 26.6 21.8 25.2 22.7 24.2L22.7 21.6Z" class="MsftOfcResponsive_Fill_7823dc" fill="#7823DC"/></svg>