<svg viewBox="0 0 32 32" xmlns="http://www.w3.org/2000/svg" xmlns:xlink="http://www.w3.org/1999/xlink" id="Layer_2_1_" xml:space="preserve" overflow="hidden"><g><path d="M28.2 13.5 26.1 18.7 25.5 18.2 24.4 17.3 23.6 18.5 22.5 20.2 19.6 22 19.1 22.3 19 22.8 18.6 25 17.3 26.6 16.5 27.6 17.5 28.4 20.4 30.8 21.4 31.6 22.2 30.6 23.5 29 29.3 25.8 31.6 15 31.7 14.3 31.1 13.8 30.1 13 28.8 11.9 28.2 13.5 28.2 13.5ZM30.3 14.7 28.2 25 22.7 28 21.2 29.8 18.3 27.4 19.8 25.6 20.3 23.1 23.5 21.2 24.8 19.2 25.8 20 25.5 20.7 24.4 22.8 25.3 23.5 26.5 21.3 26.5 21.3 29.4 14 30.3 14.7 30.3 14.7Z" fill="#7823DC" fill-rule="evenodd" clip-rule="evenodd"/><path d="M21.5 31.9 16.2 27.7 18.4 25 18.9 22.2 22.3 20.1 24.3 17 25.9 18.3 28.6 11.5 31.9 14.1 31.8 15 29.6 26 23.7 29.2 21.5 31.9ZM16.9 27.6 21.4 31.2 23.4 28.8 29.1 25.6 31.4 14.3 28.9 12.3 26.2 19.1 24.5 17.7 22.7 20.5 19.4 22.5 18.8 25.3 16.9 27.6ZM21.3 30.2 18 27.5 19.6 25.5 20.1 22.9 23.3 20.9 24.7 18.7 26 19.8 25.7 20.6 24.7 22.6 25.2 23 26.2 21.1 29.2 13.5 30.6 14.6 28.5 25.1 22.9 28.2 21.3 30.2ZM18.7 27.4 21.3 29.4 22.7 27.7 28.1 24.7 30.1 14.7 29.5 14.2 26.8 21.1 26.8 21.1 26.7 21.3 25.4 23.8 24.1 22.8 25.3 20.5 25.5 20 24.9 19.5 23.7 21.3 20.6 23.2 20 25.8 18.7 27.4Z" fill="#7823DC"/></g><g><path d="M3.3 11.9 2 13 1 13.8 0.4 14.3 0.5 15 2.7 25.8 8.5 29 9.8 30.6 10.6 31.6 11.6 30.8 14.5 28.4 15.5 27.6 14.7 26.6 13.4 25 13 22.9 12.9 22.4 12.4 22 9.5 20.2 8.4 18.5 7.6 17.3 6.5 18.2 6 18.7 3.9 13.5 3.3 11.9 3.3 11.9ZM2.7 13.9 5.6 21.2 5.6 21.2 6.8 23.4 7.7 22.7 6.6 20.6 6.4 20 7.4 19.2 8.7 21.2 11.9 23.1 12.4 25.6 13.9 27.4 11 29.8 9.4 28 3.9 25 1.8 14.7 2.7 13.9 2.7 13.9Z" fill="#7823DC" fill-rule="evenodd" clip-rule="evenodd"/><path d="M10.6 31.9 8.4 29.2 2.5 26 0.1 14.1 3.4 11.5 6.1 18.3 7.7 17 9.7 20.1 13.1 22.2 13.6 25 15.8 27.7 10.6 31.9ZM2.9 25.6 8.7 28.8 10.6 31.2 15.1 27.6 13.1 25.1 12.6 22.4 9.2 20.3 7.5 17.6 5.8 19 3.1 12.2 0.6 14.2 0.7 14.8 2.9 25.6ZM10.8 30.2 9.2 28.2 3.6 25.1 1.5 14.6 2.9 13.5 5.9 21.2 6.9 23.1 7.4 22.7 6.4 20.8 6.1 19.9 7.4 18.8 8.8 21 12 23 12.5 25.6 14.1 27.6 10.8 30.2ZM4.1 24.8 9.6 27.8 10.9 29.4 13.5 27.4 12 25.7 11.5 23.3 8.3 21.3 7.2 19.6 6.6 20.1 6.8 20.6 8 22.8 6.7 23.8 5.3 21.2 5.3 21.2 2.6 14.3 2 14.8 4.1 24.8Z" fill="#7823DC"/></g><path d="M15 10.2 17.1 10.2 17.1 20.4 15 20.4Z" fill="#7823DC" fill-rule="evenodd" clip-rule="evenodd"/><path d="M10.9 14.3 21.2 14.3 21.2 16.3 10.9 16.3Z" fill="#7823DC" fill-rule="evenodd" clip-rule="evenodd"/><path d="M24.3 6.1 26.3 6.1 26.3 12.2 24.3 12.2Z" fill="#7823DC" fill-rule="evenodd" clip-rule="evenodd"/><path d="M22.1 8.2 28.4 8.2 28.4 10.2 22.1 10.2Z" fill="#7823DC" fill-rule="evenodd" clip-rule="evenodd"/><path d="M5.7 6.1 7.7 6.1 7.7 12.2 5.7 12.2Z" fill="#7823DC" fill-rule="evenodd" clip-rule="evenodd"/><path d="M3.6 8.2 9.9 8.2 9.9 10.2 3.6 10.2Z" fill="#7823DC" fill-rule="evenodd" clip-rule="evenodd"/><path d="M14.9 0 17.1 0 17.1 6.2 14.9 6.2Z" fill="#7823DC" fill-rule="evenodd" clip-rule="evenodd"/><path d="M12.9 2.1 19.1 2.1 19.1 4.1 12.9 4.1Z" fill="#7823DC" fill-rule="evenodd" clip-rule="evenodd"/></svg>