<svg width="512" height="512" viewBox="0 0 512 512" xmlns="http://www.w3.org/2000/svg" xmlns:xlink="http://www.w3.org/1999/xlink" id="Capa_1" overflow="hidden"><g><path d="M468.217 481.622 468.217 254.728 490.576 277.087 511.766 255.897 464.585 208.716C493.08 187.756 511.61 154 511.61 115.993 511.61 52.553 459.998 0.942 396.559 0.942 358.552 0.942 324.796 19.472 303.835 47.968L256.279 0.411 165.722 90.968 165.722 40.08 61.091 40.08 61.091 195.598-2.13163e-14 256.689 21.19 277.879 44.341 254.728 44.341 481.622 0.557 481.622 0.557 511.589 512 511.589 512 481.622ZM396.559 30.909C443.474 30.909 481.642 69.077 481.642 115.993 481.642 162.908 443.474 201.076 396.559 201.076 349.644 201.076 311.476 162.908 311.476 115.993 311.476 69.077 349.645 30.909 396.559 30.909ZM91.059 70.048 135.754 70.048 135.754 120.935 91.059 165.63ZM132.306 481.622 132.306 417.791 252.87 417.791 380.251 417.791 380.251 481.622ZM205.41 307.477C196.584 307.477 189.403 300.296 189.403 291.47 189.403 282.644 196.584 275.463 205.41 275.463 214.236 275.463 221.416 282.644 221.416 291.47 221.417 300.296 214.236 307.477 205.41 307.477ZM205.41 337.494C231.139 337.494 252.071 358.426 252.071 384.156L252.071 387.824 158.748 387.824 158.748 384.156C158.748 358.426 179.681 337.494 205.41 337.494ZM354.636 387.824 282.837 387.824 282.837 355.559 354.636 355.559ZM384.604 387.824 384.604 325.592 254.754 325.592C251.18 322.576 247.325 319.886 243.238 317.556 248.369 310.139 251.384 301.152 251.384 291.47 251.384 266.12 230.76 245.496 205.41 245.496 180.06 245.496 159.436 266.12 159.436 291.47 159.436 301.152 162.451 310.138 167.582 317.556 144.433 330.756 128.781 355.655 128.781 384.156L128.781 387.824 102.339 387.824 102.339 481.622 74.308 481.622 74.308 224.761 256.279 42.79 288.905 75.416C284.131 88.041 281.509 101.715 281.509 115.992 281.509 179.431 333.121 231.042 396.559 231.042 410.836 231.042 424.51 228.421 437.135 223.646L438.249 224.76 438.249 481.621 410.218 481.621 410.218 387.823 384.604 387.823Z" fill="#7823DC"/><path d="M451.291 98.815 430.101 77.625 387.91 119.817 364.853 96.76 343.663 117.95 387.91 162.196Z" fill="#7823DC"/></g></svg>