<svg viewBox="0 0 32 32" xmlns="http://www.w3.org/2000/svg" xmlns:xlink="http://www.w3.org/1999/xlink" id="Layer_1" overflow="hidden"><style>
.MsftOfcResponsive_Fill_7823dc {
 fill:#7823DC; 
}
</style>
<g><path d="M27 5.3 27 5.3C27 2.4 24.6 0 21.7 0L21.7 0 10.3 0 10.3 0C7.3 0.1 5 2.4 5 5.4 5 5.4 5 5.5 5 5.5L5 5.5 5 20.6C5 20.7 5 20.9 5 21 5 27.1 9.9 32 16 32 22.1 32 27 27.1 27 21 27 21 27 21 27 20.9L27 20.9 27 5.3 27 5.3ZM25 5.4C25 5.5 25 5.6 25 5.6L25 9.6 25 9.6 25 15 17 15 17 11.8C18.9 11.2 19.9 9.3 19.4 7.4 19 6.2 18.1 5.4 17 5L17 2 21.7 2 21.7 2C23.5 2 25 3.5 25 5.4L25 5.4ZM16 6.9C16.8 6.9 17.4 7.5 17.4 8.3 17.4 9.1 16.8 9.7 16 9.7 15.2 9.7 14.6 9.1 14.6 8.3 14.6 7.6 15.2 6.9 16 6.9L16 6.9ZM7 5.4C7 3.5 8.5 2 10.3 2L10.3 2 15 2 15 5C13.1 5.6 12.1 7.5 12.6 9.4 12.9 10.5 13.8 11.4 15 11.8L15 15 7 15 7 9.5 7 9.5 7 5.5C7 5.5 7 5.5 7 5.5L7 5.5 7 5.5C7 5.5 7 5.4 7 5.4L7 5.4ZM25 21.1C25 26 21 30 16 30 11 30 7 26 7 21.1 7 21.1 7 21.1 7 21L7 21 7 16.9 25 16.9 25 21.1 25 21.1C25 21 25 21.1 25 21.1L25 21.1Z" class="MsftOfcResponsive_Fill_7823dc" fill="#7823DC" fill-rule="evenodd" clip-rule="evenodd"/></g></svg>