<svg width="36.5" height="36.5" viewBox="0 0 36.5 36.5" xmlns="http://www.w3.org/2000/svg" xmlns:xlink="http://www.w3.org/1999/xlink" overflow="hidden"><defs></defs><g><g><defs><path d="M0 36.5 36.5 36.5 36.5 0 0 0 0 36.5Z" id="SVGID_1_" fill="#7823DC"/></defs><clipPath id="SVGID_2_"><use width="100%" height="100%" xlink:href="#SVGID_1_"></use></clipPath><path d="M4.6 22.9 4.6 4.6 11.4 4.6 25.1 4.6 25.1 2.3 2.3 2.3 2.3 25.1 4.6 25.1 4.6 22.9 4.6 22.9Z" fill="#7823DC" clip-path="url(#SVGID_2_)"/><path d="M25.1 11.4 11.4 11.4 11.4 34.3 34.2 34.3 34.2 11.4 25.1 11.4 25.1 11.4ZM31.9 32 13.7 32 13.7 13.7 31.9 13.7 31.9 32 31.9 32Z" fill="#7823DC" clip-path="url(#SVGID_2_)"/><path d="M23.5 3.9 25.1 2.3 34.2 11.4 32.6 13 23.5 3.9Z" fill="#7823DC" clip-path="url(#SVGID_2_)"/><path d="M2.3 25.1 3.9 23.5 13 32.7 11.4 34.3 2.3 25.1Z" fill="#7823DC" clip-path="url(#SVGID_2_)"/><path d="M2.6 4.2 4.2 2.6 13.3 11.8 11.7 13.4 2.6 4.2Z" fill="#7823DC" clip-path="url(#SVGID_2_)"/><path d="M20.5 12.6 25.1 12.6 25.1 20.6 20.5 20.6 20.5 12.6Z" fill="#7823DC" clip-path="url(#SVGID_2_)"/><path d="M20.5 11.5 25.1 11.5 17.8 4 13.7 4.2 20.5 11.5 20.5 11.5Z" fill="#7823DC" clip-path="url(#SVGID_2_)"/></g></g></svg>