<svg viewBox="0 0 31.93 32.24" xmlns="http://www.w3.org/2000/svg" xmlns:xlink="http://www.w3.org/1999/xlink" id="Outline_Final_icon" overflow="hidden"><defs></defs><path d="M27.74 17.1 31.93 15.77 29.75 8.45 25.34 9.68 24.64 8.76 27.01 4.49 20.02 0.74 17.71 4.44 16.73 4.16 15.47 0 7.5 2.23 8.57 6.49 7.67 7.28 3.64 5.32 0 12.43 4.15 14.61 5.08 12.83 2.68 11.58 4.52 7.98 7.98 9.65 10.8 7.2 9.91 3.63 14.13 2.45 15.13 5.78 18.6 6.79 20.73 3.39 24.28 5.29 22.26 8.93 24.57 11.97 28.39 10.91 29.45 14.46 25.98 15.56 25.28 19.41 28.61 21.14 26.91 24.81 23.97 23.49 23.15 25.31 27.9 27.45 31.23 20.25 27.51 18.32 27.74 17.1Z" fill="#7823DC"/><path d="M21.22 13.14 15.8 13.14 15.8 11.6 17.59 11.6 17.59 9.6 15.8 9.6 15.8 8.14 13.8 8.14 13.8 9.6 12.01 9.6 12.01 11.6 13.8 11.6 13.8 13.14 8.37 13.14 9.89 16.76 7.99 16.76 7.99 18.76 11.12 18.76C11.06 22.83 9.04 24.8 8.96 24.89L8.64 25.19 8.64 26.88 7.23 28.33 7.23 32.26 21.98 32.26 21.98 30.26 9.23 30.26 9.23 29.14 10.05 28.3 21.23 28.3 21.23 25.2C21.23 25.2 20.92 24.9 20.92 24.9 20.83 24.81 18.82 22.84 18.75 18.77L21.98 18.77 21.98 16.77 19.69 16.77 21.21 13.15ZM19.23 26 19.23 26.28 10.64 26.28 10.64 26C11.43 25.09 13.36 22.34 13.1 17.69L13.05 16.75 12.07 16.75 11.39 15.13 18.22 15.13 17.54 16.75 16.84 16.75 16.79 17.69C16.53 22.34 18.46 25.08 19.25 26Z" fill="#7823DC"/></svg>