<svg width="32" height="32" viewBox="0 0 32 32" xmlns="http://www.w3.org/2000/svg" xmlns:xlink="http://www.w3.org/1999/xlink" overflow="hidden"><defs></defs><g><path d="M0 10 0 26 5.47 26 5.47 32 17.32 26 22.01 26 22.01 14 18.02 10 0 10ZM2 12 20.01 12 20.01 24 18.38 24 16.72 24 7.47 28.3 7.47 26 7.47 24 5.47 24 2 24 2 12Z" fill="#7823DC"/></g><g><path d="" stroke="#000000" stroke-width="0.05" stroke-miterlimit="10" fill="#7823DC"/></g><g><path d="" stroke="#000000" stroke-width="0.05" stroke-miterlimit="10" fill="#7823DC"/></g><g><g><path d="M13.99 0 9.99 0 9.99 8.05 11.99 8.05 11.99 2 29.99 2 27.98 0Z" fill="#7823DC"/></g><g><path d="M30 2.01 30 13.29 28.53 13.29 26.53 13.29 26.53 15.29 26.53 18.38 23.98 15.96 23.98 18.77 28.53 23.56 28.53 15.29 32 15.29 32 4Z" fill="#7823DC"/></g><g><path d="M29.99 2 30 2.01 30 2Z" fill="#7823DC"/></g></g><g><rect x="4" y="18.8" width="1.99" height="3.21" fill="#7823DC"/></g><g><rect x="8" y="17.2" width="2.01" height="4.81" fill="#7823DC"/></g><g><rect x="12" y="15.59" width="2" height="6.42" fill="#7823DC"/></g><g><rect x="16" y="13.99" width="1.99" height="8.01" fill="#7823DC"/></g><g><path d="M23.98 5.34C22.53 5.34 21.35 6.52 21.35 7.97 21.35 9.42 22.53 10.6 23.98 10.6 25.43 10.6 26.61 9.42 26.61 7.97L23.98 7.97 23.98 5.34Z" fill="#7823DC"/></g><g><path d="M27.99 6.65C27.99 5.2 26.81 4.02 25.36 4.02L25.36 6.65 27.99 6.65Z" fill="#7823DC"/></g></svg>