<svg viewBox="0 0 32 32" xmlns="http://www.w3.org/2000/svg" xmlns:xlink="http://www.w3.org/1999/xlink" id="Graphic" overflow="hidden"><path d="M21.5 22.8C19.9 22.8 18.6 21.5 18.6 19.9 18.6 18.8 19.2 17.8 20.2 17.3L20.2 14.6C19.2 14.1 18.6 13.1 18.6 12 18.6 10.4 19.9 9.1 21.5 9.1 23 9.1 24.2 10.2 24.4 11.6L26.4 11.6C26.2 9.1 24.1 7.1 21.5 7.1 18.8 7.1 16.6 9.3 16.6 12 16.6 13.6 17.4 15 18.6 15.9 17.4 16.8 16.6 18.2 16.6 19.8 16.6 22.5 18.8 24.7 21.5 24.7 24.1 24.7 26.2 22.7 26.4 20.2L24.4 20.2C24.1 21.7 22.9 22.8 21.5 22.8Z" fill="#7823DC"/><g><rect x="24.4" y="11.7" width="12.7" height="2" fill="#7823DC"/><rect x="24.4" y="18.3" width="12.7" height="2" fill="#7823DC"/></g><g><path d="M10.5 22.8C12.1 22.8 13.4 21.5 13.4 19.9 13.4 18.8 12.8 17.8 11.8 17.3L11.8 14.6C12.8 14.1 13.4 13.1 13.4 12 13.4 10.4 12.1 9.1 10.5 9.1 9 9.1 7.8 10.2 7.6 11.6L5.6 11.6C5.8 9.2 8 7.2 10.5 7.2 13.2 7.2 15.4 9.4 15.4 12.1 15.4 13.7 14.6 15.1 13.4 16 14.6 16.9 15.4 18.3 15.4 19.9 15.4 22.6 13.2 24.8 10.5 24.8 7.9 24.8 5.8 22.8 5.6 20.3L7.6 20.3C7.9 21.7 9.1 22.8 10.5 22.8Z" fill="#7823DC"/><g><rect x="-5.1" y="11.7" width="12.7" height="2" fill="#7823DC"/><rect x="-5.1" y="18.3" width="12.7" height="2" fill="#7823DC"/></g></g><g><rect x="15" y="0" width="2" height="4.9" fill="#7823DC" transform="matrix(1 -0.00434736 0.00434736 1 -0.0105917 0.069581)"/><rect x="10" y="0.3" width="2" height="5.4" fill="#7823DC" transform="matrix(0.7657 -0.6432 0.6432 0.7657 0.5975 7.7797)"/><rect x="18.3" y="2.1" width="5.4" height="2" fill="#7823DC" transform="matrix(0.6432 -0.7657 0.7657 0.6432 5.1513 17.1934)"/></g><g><rect x="13.5" y="28.5" width="4.9" height="2" fill="#7823DC" transform="matrix(0.00390622 -1 1 0.00390622 -13.5913 45.4135)"/><rect x="8.3" y="27.9" width="5.4" height="2" fill="#7823DC" transform="matrix(0.6434 -0.7655 0.7655 0.6434 -18.2321 18.7182)"/><rect x="20" y="26.2" width="2" height="5.4" fill="#7823DC" transform="matrix(0.7657 -0.6432 0.6432 0.7657 -13.6818 20.2985)"/></g></svg>