<svg viewBox="0 0 32 32" xmlns="http://www.w3.org/2000/svg" xmlns:xlink="http://www.w3.org/1999/xlink" id="Layer_1" xml:space="preserve" overflow="hidden"><g><path d="M27.8 23.6C27.6 23.2 27.3 23 26.8 23L19.3 23 19.3 21 17.2 21 17.2 23 15.1 23 15.1 19 22.8 19 22.8 17 11.6 17 12.1 15.6 21.8 15.6 21.8 13.6 11.7 13.6 12.1 12.1 20.7 12.1 20.7 10.1 11.8 10.1 12.7 7.3 10.7 6.7 8.9 12 10 12 9 15.5 10 15.5 8.8 19 13 19 13 23 4.6 23C3.3 21 2.4 17.8 2.4 15 2.5 11.3 4 8 6.7 5.5 9.4 3 13 1.7 16.7 1.9 23.5 2.2 29.1 7.2 29.8 13.5 30.2 16.7 29.6 18.9 27.8 21.3L29.5 22.5C31.6 19.6 32.3 17 31.9 13.3 31.1 6 24.6 0.2 16.8-0.1 12.4-0.3 8.4 1.2 5.2 4.1 2.1 7 0.3 10.8 0.3 15 0.3 17.9 1.2 21.9 3.1 24.6 3.4 24.8 3.7 25 4.1 25L26.2 25 27.8 28.6C28 28.9 27.9 29.3 27.7 29.6 27.5 29.9 27.2 30.1 26.8 30.1L6.1 30.1C5.5 30 5 29.5 5 29L5 27 2.9 27 2.9 29C2.9 30.7 4.3 32 6.1 32L26.9 32C28 32 29 31.5 29.6 30.6 30.2 29.7 30.3 28.6 29.8 27.7L27.8 23.6 27.8 23.6 27.8 23.6Z" fill="#7823DC" fill-rule="evenodd" clip-rule="evenodd"/><path d="M12.3 27 20.7 27 20.7 28.9 12.3 28.9 12.3 27Z" fill="#7823DC" fill-rule="evenodd" clip-rule="evenodd"/></g><path d="M15.3 5.1 15.3 5.1C14.9 4.7 14.9 4 15.3 3.7L15.3 3.7C15.7 3.3 16.3 3.3 16.7 3.7L16.7 3.7C17.1 4.1 17.1 4.7 16.7 5.1L16.7 5.1C16.3 5.5 15.7 5.5 15.3 5.1Z" fill="#7823DC" fill-rule="evenodd" clip-rule="evenodd"/><path d="M4.9 16.1 4.9 16.1C4.5 15.7 4.5 15 4.9 14.7L4.9 14.7C5.3 14.3 5.9 14.3 6.3 14.7L6.3 14.7C6.7 15.1 6.7 15.7 6.3 16.1L6.3 16.1C5.9 16.5 5.3 16.5 4.9 16.1Z" fill="#7823DC" fill-rule="evenodd" clip-rule="evenodd"/><path d="M25.7 13.1 25.7 13.1C25.3 12.7 25.3 12 25.7 11.7L25.7 11.7C26.1 11.3 26.7 11.3 27.1 11.7L27.1 11.7C27.5 12.1 27.5 12.7 27.1 13.1L27.1 13.1C26.8 13.5 26.1 13.5 25.7 13.1Z" fill="#7823DC" fill-rule="evenodd" clip-rule="evenodd"/></svg>