<svg viewBox="0 0 32 32" xmlns="http://www.w3.org/2000/svg" xmlns:xlink="http://www.w3.org/1999/xlink" id="Layer_1" xml:space="preserve" overflow="hidden"><g><path d="M20.1 21.8 17.2 18.9 15.9 20.1 18.9 23 20.1 21.8 20.1 21.8Z" fill="#7823DC" fill-rule="evenodd" clip-rule="evenodd"/><path d="M16.2 23.5 13.3 20.6 12.1 21.9 15 24.8 16.2 23.5 16.2 23.5Z" fill="#7823DC" fill-rule="evenodd" clip-rule="evenodd"/><path d="M12.4 25.6 9.5 22.7 8.2 23.9 11.1 27 12.4 25.6 12.4 25.6Z" fill="#7823DC" fill-rule="evenodd" clip-rule="evenodd"/><path d="M17.7 32 0 32 0 26.7C0 26.1 0.4 25.9 1.3 25.6 10 22.5 16.3 19.3 20.1 16L20.3 15.8 32 15.8 32 27.8 22.6 27.8 17.7 32ZM1.7 30.3 17 30.3 22 26 30.3 26 30.3 17.5 21 17.5C17.1 20.9 10.6 24.2 1.9 27.2 1.8 27.2 1.8 27.2 1.7 27.3L1.7 30.3Z" fill="#7823DC"/><g><defs><path d="M0 32 32 32 32 15.7 0 15.7 0 32Z" id="SVGID_1_" fill="#7823DC"/></defs><clipPath id="SVGID_00000116198186394715588780000002761715245444924052_"><use width="100%" height="100%" xlink:href="#SVGID_1_" overflow="visible"></use></clipPath><path d="M32 32 22 32 22 26 32 26 32 32ZM23.7 30.3 30.2 30.3 30.2 27.8 23.7 27.8 23.7 30.3Z" fill="#7823DC" clip-path="url(#SVGID_00000116198186394715588780000002761715245444924052_)"/></g></g></svg>