<svg viewBox="0 0 32 30" xmlns="http://www.w3.org/2000/svg" xmlns:xlink="http://www.w3.org/1999/xlink" id="Graphic" overflow="hidden"><style>
.MsftOfcResponsive_Fill_7823dc {
 fill:#7823DC; 
}
</style>
<defs></defs><rect x="7.96" y="0" width="20" height="2" class="cls-1 MsftOfcResponsive_Fill_7823dc" fill="#7823DC"/><rect x="16.96" y="0.02" width="2" height="4" class="cls-1 MsftOfcResponsive_Fill_7823dc" fill="#7823DC"/><rect x="15" y="22" width="2" height="6.02" class="cls-1 MsftOfcResponsive_Fill_7823dc" fill="#7823DC"/><rect x="25" y="22" width="2" height="6.02" class="cls-1 MsftOfcResponsive_Fill_7823dc" fill="#7823DC"/><path d="M29.41 30 11 30 11 28 28.59 28 30.29 26.29 31.71 27.71 29.41 30Z" class="cls-1 MsftOfcResponsive_Fill_7823dc" fill="#7823DC"/><rect x="14.96" y="4" width="6" height="4.03" class="cls-1 MsftOfcResponsive_Fill_7823dc" fill="#7823DC"/><path d="M28.22 13.97 27.96 13.97 19 13.97 19 6.97 16.96 6.97 16.96 15.97 27.96 15.97 28.22 15.97 29.37 15.97 29.37 13.97 28.22 13.97Z" class="cls-1 MsftOfcResponsive_Fill_7823dc" fill="#7823DC"/><path d="M29.86 15.44 27 7 12.85 7 9.08 9 7.69 9 6.37 3 1.81 2.93 0 4.88 2.79 20.73 8.79 22.84 10.79 24.98 32 24.98 32 17.57ZM30 23 11.65 23 9.9 21.12 4.57 19.23 2.05 4.93 4.75 4.93 6.07 10.93 9.58 10.93 13.35 8.93 25.56 8.93 28.11 16.47 30 18.39Z" class="cls-1 MsftOfcResponsive_Fill_7823dc" fill="#7823DC" transform="matrix(1 0 0 1 0 -0.98)"/></svg>