<svg viewBox="0 0 32 32" xmlns="http://www.w3.org/2000/svg" xmlns:xlink="http://www.w3.org/1999/xlink" overflow="hidden"><g id="Layer_1" display="none"><g id="Layer_1_1_"><g><path d="M6.6 12.7C6.7 10.9 7.2 8.3 8.5 6 10.2 3.1 12.6 1.6 15.8 1.4 18.8 1.2 21.3 2.6 23.3 5.5 24.8 7.7 25.4 10.1 25.4 10.1 25.5 10.5 25.9 10.7 26.2 10.6 26.6 10.5 26.8 10.1 26.7 9.8 26.7 9.7 26.1 7.2 24.4 4.8 22.2 1.5 19.2-0.2 15.7 -8.88178e-16 12.1 0.2 9.2 2 7.3 5.3 5.9 7.8 5.3 10.7 5.2 12.6 5.1 13.6 4.9 14.4 4.4 14.9 4.1 15.2 3.8 15.2 3.7 15.3L3.7 15.3 3.8 16.7C4 16.6 6.4 16.4 6.6 12.7" fill="#7823DC" fill-rule="evenodd" clip-rule="evenodd"/><path d="M28.2 13.3C28.1 12.9 27.8 12.7 27.4 12.7 26.1 12.9 24.4 11.8 23.4 9.9 23.2 9.6 23.1 9.3 22.9 8.9 22.3 7.7 21.5 6.1 20.2 4.9 18.6 3.5 16.5 3.1 14 3.7 8.7 5 8.9 9.1 9 12 9 12.7 9.1 13.4 9 14 8.8 16.1 5.8 18.2 4.7 18.8 4.4 19 4.2 19.4 4.4 19.7 4.5 19.9 4.8 20.1 5 20.1 5.1 20.1 5.2 20.1 5.3 20 5.4 20 6.5 19.4 7.6 18.3 9.2 16.9 10.1 15.5 10.3 14 10.4 13.3 10.3 12.6 10.3 11.8 10.2 8.9 10.1 5.9 14.2 4.9 18.8 3.7 20.4 7 21.5 9.3 21.7 9.7 21.9 10.1 22 10.3 23.4 12.7 25.6 14.1 27.5 13.8 28.1 14 28.3 13.7 28.2 13.3" fill="#7823DC" fill-rule="evenodd" clip-rule="evenodd"/><path d="M13 17.9C13.1 17.5 12.9 17.1 12.5 17.1 12.1 17 11.7 17.2 11.7 17.6 11.3 19.2 9.7 20.4 8.4 21.1 6.9 21.9 5.5 22.3 5.5 22.3 5.1 22.4 4.9 22.8 5 23.2 5.1 23.5 5.4 23.7 5.7 23.7 5.8 23.7 5.8 23.7 5.9 23.7 6 23.6 12 21.9 13 17.9" fill="#7823DC" fill-rule="evenodd" clip-rule="evenodd"/><path d="M27 21.8C26.9 21.8 18.8 20.9 15.3 15.8 12.9 12.3 13.7 10.1 14.1 9.3 14.6 8.4 15.5 7.8 16.5 7.8 17.1 7.8 17.6 8.7 18.3 10.1 19.5 12.4 21.3 15.9 26.2 17 26.6 17.1 26.9 16.9 27 16.5 27.1 16.1 26.9 15.8 26.5 15.7 22.2 14.7 20.7 11.8 19.5 9.5 18.7 7.9 18 6.6 16.5 6.5 15.1 6.4 13.7 7.2 12.9 8.7 12.3 9.7 11.3 12.6 14.2 16.7 18.1 22.3 26.6 23.2 26.9 23.3L27 23.3C27.3 23.3 27.6 23 27.7 22.7 27.7 22.2 27.4 21.9 27 21.8" fill="#7823DC" fill-rule="evenodd" clip-rule="evenodd"/><path d="M19.2 15C17.8 13.2 17.2 11.5 17.2 11.4 17.1 11 16.7 10.8 16.3 11 15.9 11.1 15.7 11.5 15.9 11.9 15.9 12 16.6 13.9 18.1 15.9 20.2 18.5 22.9 20 25.9 20L25.9 20C26.3 20 26.6 19.7 26.6 19.3 26.6 18.9 26.3 18.6 25.9 18.6 23.3 18.6 21.1 17.4 19.2 15" fill="#7823DC" fill-rule="evenodd" clip-rule="evenodd"/><path d="M25.5 25.5C20.1 21.9 15.3 22.1 12.2 23 8.8 23.9 6.7 25.7 6.7 25.7 6.4 25.9 6.4 26.4 6.6 26.7 6.7 26.9 6.9 27 7.1 27 7.3 27 7.4 26.9 7.6 26.8 7.6 26.8 9.5 25.2 12.6 24.3 16.7 23.2 20.8 24 24.8 26.7 25.1 26.9 25.5 26.8 25.8 26.5 25.9 26.2 25.9 25.7 25.5 25.5" fill="#7823DC" fill-rule="evenodd" clip-rule="evenodd"/><path d="M23 27.9C18.9 25.4 15.2 25.5 12.9 26.1 10.3 26.7 8.7 28 8.6 28 8.3 28.2 8.3 28.7 8.5 29 8.6 29.2 8.8 29.3 9 29.3 9.1 29.3 9.3 29.2 9.4 29.2 9.4 29.2 10.9 28.1 13.2 27.5 16.3 26.7 19.3 27.3 22.2 29.1 22.5 29.3 23 29.2 23.2 28.9 23.4 28.5 23.3 28.1 23 27.9" fill="#7823DC" fill-rule="evenodd" clip-rule="evenodd"/><path d="M21.2 30.5C19.1 29.1 16.6 28.7 14 29.4 12 29.9 10.6 30.8 10.6 30.8 10.3 31 10.2 31.4 10.4 31.8 10.5 32 10.7 32.1 11 32.1 11.1 32.1 11.3 32.1 11.4 32 11.5 32 16.3 28.8 20.5 31.7 20.8 31.9 21.3 31.8 21.5 31.5 21.7 31.1 21.6 30.7 21.2 30.5" fill="#7823DC" fill-rule="evenodd" clip-rule="evenodd"/></g></g><g id="Layer_2_1_"><path d="" stroke="#7823DC" stroke-width="2" stroke-miterlimit="10" fill="#7823DC"/><path d="" stroke="#7823DC" stroke-width="2" stroke-miterlimit="10" fill="#7823DC"/></g></g><g id="Layer_2"><g><path d="M21.5 31 19.6 31C18.2 30.3 15.5 29.6 12.5 31.1L10.6 31.1C16.4 27 21.5 31 21.5 31Z" fill="#7823DC"/><path d="M22.1 30.3 21.5 31 20.9 31.8C20.8 31.8 20.4 31.4 19.7 31.1 18.3 30.4 15.6 29.7 12.6 31.2 12.2 31.4 11.7 31.7 11.3 32L10.7 31.2 10 30.4C16.4 25.8 22 30.2 22.1 30.3Z" fill="#7823DC"/></g><path d="M9 29.5 7.8 27.9C16.2 21.5 23.6 27.6 23.7 27.7L22.4 29.2C22.1 29 16.1 24.1 9 29.5Z" fill="#7823DC"/><path d="M7.6 26.8 6.4 25.2C17.1 17.7 26.4 24.9 26.5 24.9L25.3 26.5C24.9 26.2 17 20.2 7.6 26.8Z" fill="#7823DC"/><path d="M5.6 23.7 5.1 21.8C10.4 20.6 11.6 17.1 11.6 17L13.5 17.6C13.5 17.7 12.1 22.2 5.6 23.7Z" fill="#7823DC"/><path d="M27 22.8C26.8 22.8 21.5 22.6 17.4 19.8 13.3 17 12.1 15.2 12 12 12 9.9 12.6 8 13.6 7 14.3 6.3 15 6 16 6 18 6 19.2 8 20.3 10 20.6 10.5 20.9 11 21.2 11.4 23.2 14.4 26.9 15.3 27 15.3L26.5 17.2C26.3 17.2 21.9 16.1 19.5 12.5 19.2 12 18.9 11.5 18.6 11 17.8 9.6 16.9 8 16 8 15.6 8 15.4 8.1 15.1 8.4 14.4 9 14 10.4 14 12 14 14.2 14.7 15.6 18.5 18.2 22 20.6 26.9 20.8 27 20.8L27 22.8Z" fill="#7823DC"/><path d="M25.8 20C25.5 20 17.6 19.3 15.4 11.1L17.3 10.6C19.2 17.4 25.7 18 26 18L25.8 20Z" fill="#7823DC"/><path d="M5 20.3 3.8 18.7C4.6 18.2 6.8 16.4 7.5 14.9 7.6 14.7 7.7 13.9 7.8 13.2 8.2 10 9 4.2 14.7 3.1 19.6 2.2 21.4 5.2 23 7.9 24.2 10 25.4 12 28 12.8L27.4 14.7C24.1 13.7 22.6 11.2 21.3 8.9 19.8 6.3 18.7 4.4 15.1 5 11.2 5.7 10.4 9.5 9.8 13.4 9.7 14.4 9.6 15.2 9.3 15.7 8.2 18 5.1 20.2 5 20.3Z" fill="#7823DC"/><path d="M5.4 16 3.4 15.7 3.5 15.4C5.5 2.6 11.2-0.1 15.6-0.1 24.8-0.1 28 9.7 28 9.8L26 10.3C25.9 10 23.2 1.8 15.5 1.8 10.2 1.8 6.8 6.4 5.4 15.6L5.4 16Z" fill="#7823DC"/><path d="" stroke="#000000" stroke-width="1.9886" stroke-miterlimit="10" fill="#7823DC"/></g></svg>