<svg viewBox="0 0 32 32" xmlns="http://www.w3.org/2000/svg" xmlns:xlink="http://www.w3.org/1999/xlink" id="Layer_1" xml:space="preserve" overflow="hidden"><path d="M32 32 0 32 0 5.1 32 5.1 32 32ZM2 30 30 30 30 7.1 2 7.1 2 30Z" fill="#7823DC"/><g><g><path d="M29.1 22.1 26.4 15.4 22.7 15.4 25.2 31.9 25.2 31.9 27.3 31.9 26.8 28.8 25 17.2 27 22.1Z" fill="#7823DC" fill-rule="evenodd" clip-rule="evenodd"/><path d="M27.4 32 25.1 32 25.1 31.9 22.5 15.3 26.5 15.3 29.3 22.2 27 22.2 25.3 18.2 27.4 32ZM25.3 31.7 27.1 31.7 24.7 16.2 27.1 22 28.9 22 26.3 15.6 22.8 15.6 25.3 31.7Z" fill="#7823DC"/></g><g><path d="M15.5 22.1 18.1 15.4 21.8 15.4 19.3 31.9 19.3 31.9 17.3 31.9 17.7 28.8 19.6 17.2 17.5 22.1Z" fill="#7823DC" fill-rule="evenodd" clip-rule="evenodd"/><path d="M19.4 32 17.1 32 17.1 31.9 19.2 18.3 17.5 22.3 15.2 22.3 18 15.4 22 15.4 22 15.5 19.4 32ZM17.4 31.7 19.2 31.7 21.7 15.5 18.2 15.5 15.6 22 17.4 22 19.8 16.2 17.4 31.7Z" fill="#7823DC"/></g><g><path d="M16.5 22.1 13.9 15.4 10.2 15.4 12.7 31.9 12.7 31.9 14.7 31.9 14.3 28.8 12.4 17.2 14.5 22.1Z" fill="#7823DC" fill-rule="evenodd" clip-rule="evenodd"/><path d="M14.9 32 12.6 32 12.6 31.9 10 15.3 14 15.3 16.8 22.2 14.5 22.2 12.8 18.2 14.9 32ZM12.8 31.7 14.6 31.7 12.2 16.2 14.6 22 16.4 22 13.8 15.6 10.3 15.6 12.8 31.7Z" fill="#7823DC"/></g><g><path d="M2.9 22.1 5.6 15.4 9.3 15.4 6.8 31.9 6.8 31.9 4.7 31.9 5.2 28.8 7 17.2 5 22.1Z" fill="#7823DC" fill-rule="evenodd" clip-rule="evenodd"/><path d="M6.9 32 4.6 32 6.8 18.2 5.1 22.2 2.7 22.2 5.5 15.3 9.5 15.3 9.5 15.4 6.9 32ZM4.9 31.7 6.7 31.7 9.2 15.5 5.6 15.5 3.1 22 4.9 22 7.3 16.2 4.9 31.7Z" fill="#7823DC"/></g></g><circle cx="9.8" cy="11.4" r="2.3" fill="#7823DC" fill-rule="evenodd" clip-rule="evenodd"/><circle cx="22.3" cy="11.4" r="2.3" fill="#7823DC" fill-rule="evenodd" clip-rule="evenodd"/><g><path d="M21.3 0 16.7 3 25.9 3Z" fill="#7823DC" fill-rule="evenodd" clip-rule="evenodd"/><path d="M10.7 3 6.1 0 15.3 0Z" fill="#7823DC" fill-rule="evenodd" clip-rule="evenodd"/></g></svg>