<svg viewBox="0 0 32 32" xmlns="http://www.w3.org/2000/svg" xmlns:xlink="http://www.w3.org/1999/xlink" id="Layer_1" overflow="hidden"><style>
.MsftOfcResponsive_Fill_7823dc {
 fill:#7823DC; 
}
</style>
<path d="M20.5 2C25.7 2 30 6.3 30 11.5 30 16.7 25.7 21 20.5 21 15.3 21 11 16.7 11 11.5 11 6.3 15.3 2 20.5 2M20.5 0C14.1 0 9 5.1 9 11.5 9 17.9 14.1 23 20.5 23 26.9 23 32 17.9 32 11.5 32 5.1 26.9 0 20.5 0L20.5 0Z" class="MsftOfcResponsive_Fill_7823dc" fill="#7823DC"/><path d="M11.5 11.1C16.7 11.1 21 15.4 21 20.6 21 25.8 16.7 30.1 11.5 30.1 6.3 30.1 2 25.8 2 20.6 2 15.4 6.3 11.1 11.5 11.1M11.5 9.1C5.1 9.1 0 14.2 0 20.6 0 27 5.1 32.1 11.5 32.1 17.9 32.1 23 26.9 23 20.6 23 14.3 17.9 9.1 11.5 9.1L11.5 9.1Z" class="MsftOfcResponsive_Fill_7823dc" fill="#7823DC"/><rect x="11.8" y="15" width="8.5" height="2" class="MsftOfcResponsive_Fill_7823dc" fill="#7823DC" transform="matrix(0.7071 -0.7071 0.7071 0.7071 -6.6274 16)"/><rect x="10.2" y="12" width="5.7" height="2" class="MsftOfcResponsive_Fill_7823dc" fill="#7823DC" transform="matrix(0.7071 -0.7071 0.7071 0.7071 -5.3848 13)"/><rect x="16.2" y="18" width="5.7" height="2" class="MsftOfcResponsive_Fill_7823dc" fill="#7823DC" transform="matrix(0.7071 -0.7071 0.7071 0.7071 -7.8701 19)"/></svg>