<svg viewBox="0 0 32 32" xmlns="http://www.w3.org/2000/svg" xmlns:xlink="http://www.w3.org/1999/xlink" id="Layer_1" overflow="hidden"><style>
.MsftOfcResponsive_Fill_7823dc {
 fill:#7823DC; 
}
</style>
<path d="M32 32 0 32 0 0 2 0 2 30 32 30Z" class="st0 MsftOfcResponsive_Fill_7823dc" fill="#7823DC"/><path d="M7.5 8C5.6 8 4 6.4 4 4.5 4 2.6 5.6 1 7.5 1 9.4 1 11 2.6 11 4.5 11 6.4 9.4 8 7.5 8ZM7.5 3C6.7 3 6 3.7 6 4.5 6 5.3 6.7 6 7.5 6 8.3 6 9 5.3 9 4.5 9 3.7 8.3 3 7.5 3Z" class="st0 MsftOfcResponsive_Fill_7823dc" fill="#7823DC"/><path d="M17 10C15.3 10 14 8.7 14 7 14 5.3 15.3 4 17 4 18.7 4 20 5.3 20 7 20 8.7 18.7 10 17 10ZM17 6C16.4 6 16 6.4 16 7 16 7.6 16.4 8 17 8 17.6 8 18 7.6 18 7 18 6.4 17.6 6 17 6Z" class="st0 MsftOfcResponsive_Fill_7823dc" fill="#7823DC"/><path d="M7 18C5.3 18 4 16.7 4 15 4 13.3 5.3 12 7 12 8.7 12 10 13.3 10 15 10 16.7 8.7 18 7 18ZM7 14C6.4 14 6 14.4 6 15 6 15.6 6.4 16 7 16 7.6 16 8 15.6 8 15 8 14.4 7.6 14 7 14Z" class="st0 MsftOfcResponsive_Fill_7823dc" fill="#7823DC"/><path d="M26 28C23.8 28 22 26.2 22 24 22 21.8 23.8 20 26 20 28.2 20 30 21.8 30 24 30 26.2 28.2 28 26 28ZM26 22C24.9 22 24 22.9 24 24 24 25.1 24.9 26 26 26 27.1 26 28 25.1 28 24 28 22.9 27.1 22 26 22Z" class="st0 MsftOfcResponsive_Fill_7823dc" fill="#7823DC"/><path d="M27.5 19C26.1 19 25 17.9 25 16.5 25 15.1 26.1 14 27.5 14 28.9 14 30 15.1 30 16.5 30 17.9 28.9 19 27.5 19ZM27.5 16C27.2 16 27 16.2 27 16.5 27 16.8 27.2 17 27.5 17 27.8 17 28 16.8 28 16.5 28 16.2 27.8 16 27.5 16Z" class="st0 MsftOfcResponsive_Fill_7823dc" fill="#7823DC"/><path d="M15.5 28C14.1 28 13 26.9 13 25.5 13 24.1 14.1 23 15.5 23 16.9 23 18 24.1 18 25.5 18 26.9 16.9 28 15.5 28ZM15.5 25C15.2 25 15 25.2 15 25.5 15 25.8 15.2 26 15.5 26 15.8 26 16 25.8 16 25.5 16 25.2 15.8 25 15.5 25Z" class="st0 MsftOfcResponsive_Fill_7823dc" fill="#7823DC"/><path d="M29.4 8.5 27.5 8.2 28 4 23.8 4.5 23.5 2.6 30.4 1.6Z" class="st0 MsftOfcResponsive_Fill_7823dc" fill="#7823DC"/><rect x="-1.8" y="14.7" width="36" height="2" class="MsftOfcResponsive_Fill_7823dc" fill="#7823DC" transform="matrix(0.7071 -0.7071 0.7071 0.7071 -6.3414 16.093)"/></svg>