<svg viewBox="0 0 32.13 32.02" xmlns="http://www.w3.org/2000/svg" xmlns:xlink="http://www.w3.org/1999/xlink" id="Layer_1" overflow="hidden"><style>
.MsftOfcResponsive_Fill_7823dc {
 fill:#7823DC; 
}
</style>
<defs></defs><path d="M27.32 11.96 28.05 8.99 32.13 7.67 31.52 5.77 26.37 7.43 25.74 10.01 24.36 10.01 24.36 3.84 26.77 6.26 26.77 3.43 23.35 -4.44089e-16 20.06 3.29 20.06 6.12 22.36 3.82 22.36 10.01 14.06 10.01 14.06 3.85 16.47 6.26 16.47 3.43 13.05 -4.44089e-16 9.76 3.29 9.76 6.12 12.06 3.82 12.06 10.01 7.37 10.01 9.89 24.01 13.45 24.01 9.37 25.78 9.37 27.12C8.46 27.51 7.82 28.42 7.82 29.47 7.82 30.87 8.97 32.02 10.37 32.02 11.77 32.02 12.92 30.87 12.92 29.47 12.92 28.42 12.28 27.51 11.37 27.12L11.37 27.09 18.43 24.04 24.08 27.25C23.3 27.69 22.76 28.51 22.76 29.47 22.76 30.87 23.91 32.02 25.31 32.02 26.71 32.02 27.86 30.87 27.86 29.47 27.86 28.36 27.16 27.43 26.17 27.08L26.17 26.14 22.43 24.01 24.46 24.01 27.32 11.96ZM10.37 30.02C10.07 30.02 9.82 29.77 9.82 29.47 9.82 29.17 10.07 28.92 10.37 28.92 10.67 28.92 10.92 29.16 10.92 29.47 10.92 29.78 10.68 30.02 10.37 30.02ZM25.31 28.92C25.62 28.92 25.86 29.16 25.86 29.47 25.86 29.78 25.62 30.02 25.31 30.02 25 30.02 24.76 29.77 24.76 29.47 24.76 29.17 25.01 28.92 25.31 28.92ZM9.76 12.01 25.26 12.01 24.78 14.01 10.12 14.01 9.76 12.01ZM22.88 22.01 18.23 22.01 18.2 21.96 18.08 22.01 11.56 22.01 11.2 20.01 23.36 20.01 22.88 22.01ZM23.83 18.01 10.84 18.01 10.48 16.01 24.31 16.01 23.83 18.01Z" class="MsftOfcResponsive_Fill_7823dc" fill="#7823DC"/><path d="M6.71 3.43 6.71 6.26 4.17 3.72 4.17 32.01 2.17 32.01 2.17 3.94 0 6.12 0 3.29 3.28 0 6.71 3.43Z" class="MsftOfcResponsive_Fill_7823dc" fill="#7823DC"/></svg>