<svg viewBox="0 0 32 32" xmlns="http://www.w3.org/2000/svg" xmlns:xlink="http://www.w3.org/1999/xlink" id="Graphic" overflow="hidden"><defs></defs><path d="M19.94 0 16 2.27 12 0 0 0 0 32 32 32 32 0ZM20.48 2 24 2 24 8 26 6 28 8 28 2 30 2 30 26 19.56 26 19.12 26.24 17 27.43 17 4 17 4ZM2 2 11.44 2 15 4 15 27.39 13 26.27 12.54 26 2 26ZM2.08 28 12 28 15.46 30 2.08 30ZM30 30 16.41 30 20.08 28 30 28Z" fill="#7823DC"/><path d="M14 10.01 4 10.01 4 12.01 14 12.01 14 10.01 14 10.01Z" fill="#7823DC"/><path d="M28 10.01 18 10.01 18 12.01 28 12.01 28 10.01 28 10.01Z" fill="#7823DC"/><path d="M14 14.01 4 14.01 4 16.01 14 16.01 14 14.01 14 14.01Z" fill="#7823DC"/><path d="M28 14.01 18 14.01 18 16.01 28 16.01 28 14.01 28 14.01Z" fill="#7823DC"/><path d="M14 18.01 4 18.01 4 20.01 14 20.01 14 18.01 14 18.01Z" fill="#7823DC"/><path d="M28 18.01 18 18.01 18 20.01 28 20.01 28 18.01 28 18.01Z" fill="#7823DC"/><path d="M14 22.01 4 22.01 4 24.01 14 24.01 14 22.01 14 22.01Z" fill="#7823DC"/><path d="M28 22.01 18 22.01 18 24.01 28 24.01 28 22.01 28 22.01Z" fill="#7823DC"/></svg>