<svg viewBox="0 0 32.01 32" xmlns="http://www.w3.org/2000/svg" xmlns:xlink="http://www.w3.org/1999/xlink" id="Layer_1" overflow="hidden"><style>
.MsftOfcResponsive_Fill_7823dc {
 fill:#7823DC; 
}
</style>
<defs></defs><path d="M26.37 8 5.74 8C3.48 8 1.71 6.24 1.71 4 1.71 1.76 3.48 0 5.74 0L26.37 0C28.63 0 30.4 1.76 30.4 4 30.4 6.24 28.63 8 26.37 8ZM5.74 2C4.6 2 3.71 2.88 3.71 4 3.71 5.12 4.6 6 5.74 6L26.37 6C27.51 6 28.4 5.12 28.4 4 28.4 2.88 27.51 2 26.37 2L5.74 2Z" class="MsftOfcResponsive_Fill_7823dc" fill="#7823DC"/><path d="M6.48 14.66C5.52 14.66 4.58 14.45 3.72 14.02L4.44089e-16 12.18 4.07 6.42 5.7 7.58 2.98 11.43 4.6 12.23C5.79 12.82 7.17 12.81 8.47 12.22L8.87 12.08C10.55 11.27 12.54 11.27 14.34 12.08L14.78 12.24C15.97 12.83 17.35 12.82 18.65 12.23L19.05 12.09C20.75 11.28 22.76 11.28 24.58 12.11 25.98 12.8 27.56 12.7 28.82 11.83L29.2 11.57 26.39 7.59 28.02 6.43 32 12.06 29.96 13.48C28.09 14.76 25.76 14.92 23.73 13.91 22.45 13.33 21.07 13.32 19.88 13.91L19.44 14.07C17.64 14.87 15.65 14.87 13.97 14.07L13.57 13.93C12.26 13.33 10.89 13.33 9.7 13.92L9.26 14.08C8.36 14.48 7.42 14.68 6.49 14.68Z" class="MsftOfcResponsive_Fill_7823dc" fill="#7823DC"/><path d="M26.32 32 5.79 32 5.5 31.52C2.01 25.85 1.04 18.96 2.84 12.6L4.76 13.14C3.16 18.78 3.95 24.89 6.91 29.99L25.19 29.99C28.03 25.01 28.82 18.98 27.34 13.36L29.27 12.85C30.93 19.18 29.96 25.98 26.61 31.51L26.32 31.99Z" class="MsftOfcResponsive_Fill_7823dc" fill="#7823DC"/><g><rect x="12.05" y="16.4" width="2" height="10" class="MsftOfcResponsive_Fill_7823dc" fill="#7823DC"/><rect x="18.05" y="16.4" width="2" height="10" class="MsftOfcResponsive_Fill_7823dc" fill="#7823DC"/><rect x="14.89" y="18.59" width="2" height="5.62" class="MsftOfcResponsive_Fill_7823dc" fill="#7823DC" transform="matrix(6.12323e-17 1 -1 6.12323e-17 37.3 5.51)"/></g></svg>