<svg width="32" height="32" viewBox="0 0 32 32" xmlns="http://www.w3.org/2000/svg" xmlns:xlink="http://www.w3.org/1999/xlink" overflow="hidden"><defs></defs><g><g><defs><rect x="0" y="0" width="32" height="32" id="SVGID_1_" fill="#7823DC"/></defs><clipPath id="SVGID_2_"><use width="100%" height="100%" xlink:href="#SVGID_1_"></use></clipPath><rect x="26" y="12" width="2" height="4" fill="#7823DC" clip-path="url(#SVGID_2_)"/><rect x="26" y="18" width="2" height="4" fill="#7823DC" clip-path="url(#SVGID_2_)"/><rect x="26" y="24" width="2" height="4" fill="#7823DC" clip-path="url(#SVGID_2_)"/><rect x="22" y="12" width="2" height="4" fill="#7823DC" clip-path="url(#SVGID_2_)"/><rect x="10" y="18" width="2" height="4" fill="#7823DC" clip-path="url(#SVGID_2_)"/><rect x="6" y="18" width="2" height="4" fill="#7823DC" clip-path="url(#SVGID_2_)"/><rect x="14" y="18" width="2" height="4" fill="#7823DC" clip-path="url(#SVGID_2_)"/><rect x="10" y="24" width="2" height="4" fill="#7823DC" clip-path="url(#SVGID_2_)"/><rect x="6" y="24" width="2" height="4" fill="#7823DC" clip-path="url(#SVGID_2_)"/><rect x="14" y="24" width="2" height="4" fill="#7823DC" clip-path="url(#SVGID_2_)"/><rect x="22" y="18" width="2" height="4" fill="#7823DC" clip-path="url(#SVGID_2_)"/><rect x="22" y="24" width="2" height="4" fill="#7823DC" clip-path="url(#SVGID_2_)"/><path d="M30 8 30 4 26 4 26 0 24 0 24 4 20 4 20 8 18 8 18 14 6 14 4 16 18 16 18 30 18 30 18 30 4 30 4 16 2 18 2 30 0 30 0 32 2 32 2 32 20 32 20 32 32 32 32 8 30 8ZM22 6 28 6 28 8 22 8 22 6ZM30 30 20 30 20 10 30 10 30 30Z" fill="#7823DC" clip-path="url(#SVGID_2_)"/></g></g></svg>