<svg viewBox="0 0 32 32.09" xmlns="http://www.w3.org/2000/svg" xmlns:xlink="http://www.w3.org/1999/xlink" id="Layer_1" overflow="hidden"><style>
.MsftOfcResponsive_Fill_7823dc {
 fill:#7823DC; 
}
</style>
<defs></defs><path d="M14 32.09 4 32.09 4 5.8 8.85 0 14 5.78 14 32.09ZM6 30.09 12 30.09 12 6.54 8.9 3.06 6 6.52 6 30.09Z" class="MsftOfcResponsive_Fill_7823dc" stroke-width="0" fill="#7823DC"/><path d="M28 32.09 18 32.09 18 5.8 22.84 0 28 5.78 28 32.09ZM20 30.09 26 30.09 26 6.54 22.89 3.06 20 6.52 20 30.09Z" class="MsftOfcResponsive_Fill_7823dc" stroke-width="0" fill="#7823DC"/><path d="M6 26.09 0 26.09 0 19.88 6 19.88 6 26.09ZM2 24.09 4 24.09 4 21.88 2 21.88 2 24.09Z" class="MsftOfcResponsive_Fill_7823dc" stroke-width="0" fill="#7823DC"/><path d="M20 26.09 12 26.09 12 19.88 20 19.88 20 26.09ZM14 24.09 18 24.09 18 21.88 14 21.88 14 24.09Z" class="MsftOfcResponsive_Fill_7823dc" stroke-width="0" fill="#7823DC"/><path d="M32 26.09 26 26.09 26 19.88 32 19.88 32 26.09ZM28 24.09 30 24.09 30 21.88 28 21.88 28 24.09Z" class="MsftOfcResponsive_Fill_7823dc" stroke-width="0" fill="#7823DC"/><path d="M6 14.09 0 14.09 0 7.88 6 7.88 6 14.09ZM2 12.09 4 12.09 4 9.88 2 9.88 2 12.09Z" class="MsftOfcResponsive_Fill_7823dc" stroke-width="0" fill="#7823DC"/><path d="M20 14.09 12 14.09 12 7.88 20 7.88 20 14.09ZM14 12.09 18 12.09 18 9.88 14 9.88 14 12.09Z" class="MsftOfcResponsive_Fill_7823dc" stroke-width="0" fill="#7823DC"/><path d="M32 14.09 26 14.09 26 7.88 32 7.88 32 14.09ZM28 12.09 30 12.09 30 9.88 28 9.88 28 12.09Z" class="MsftOfcResponsive_Fill_7823dc" stroke-width="0" fill="#7823DC"/></svg>