<svg viewBox="0 0 31.97 31.97" xmlns="http://www.w3.org/2000/svg" xmlns:xlink="http://www.w3.org/1999/xlink" id="Layer_1" overflow="hidden"><style>
.MsftOfcResponsive_Fill_7823dc {
 fill:#7823DC; 
}
</style>
<defs></defs><path d="M31.97 31.97 24.13 31.97 24.13 30.97C24.13 24.78 21.73 18.97 17.36 14.6 13 10.24 7.19 7.84 1 7.84L0 7.84 0 0 1 0C9.27 0 17.05 3.22 22.9 9.07 28.75 14.92 31.97 22.7 31.97 30.97L31.97 31.97ZM26.11 29.97 29.95 29.97C29.7 22.61 26.72 15.72 21.48 10.48 16.25 5.25 9.36 2.27 2 2.02L2 5.86C8.35 6.11 14.27 8.69 18.78 13.19 23.29 17.69 25.87 23.62 26.11 29.97Z" class="MsftOfcResponsive_Fill_7823dc" fill="#7823DC"/><path d="M20.31 31.97 12.48 31.97 12.48 30.97C12.48 27.9 11.29 25.01 9.12 22.85 6.95 20.68 4.07 19.49 1 19.49L0 19.49 0 11.66 1 11.66C6.17 11.66 11.02 13.67 14.66 17.31 18.3 20.95 20.31 25.8 20.31 30.97L20.31 31.97ZM14.45 29.97 18.28 29.97C18.04 25.72 16.27 21.75 13.24 18.72 10.21 15.69 6.25 13.92 1.99 13.68L1.99 17.51C5.22 17.74 8.22 19.11 10.53 21.42 12.84 23.73 14.2 26.73 14.44 29.96Z" class="MsftOfcResponsive_Fill_7823dc" fill="#7823DC"/><path d="M8.66 31.97 0 31.97 0 23.31 1 23.31C3.05 23.31 4.97 24.11 6.42 25.55 7.86 27 8.66 28.92 8.66 30.97L8.66 31.97ZM2 29.97 6.57 29.97C6.37 28.84 5.83 27.8 5 26.97 4.17 26.14 3.13 25.6 2 25.4L2 29.97Z" class="MsftOfcResponsive_Fill_7823dc" fill="#7823DC"/></svg>