<svg viewBox="0 0 32 32" xmlns="http://www.w3.org/2000/svg" xmlns:xlink="http://www.w3.org/1999/xlink" id="Layer_1" xml:space="preserve" overflow="hidden"><g><path d="M12.2 22.6C12.2 22 11.7 21.5 11 21.5 10.3 21.5 9.8 22 9.8 22.6 9.8 23.2 10.3 23.7 11 23.7 11.7 23.7 12.2 23.2 12.2 22.6L12.2 22.6Z" fill="#7823DC" fill-rule="evenodd" clip-rule="evenodd"/><path d="M12.6 7.2C12.6 6.6 12.1 6.1 11.5 6.1 10.9 6.1 10.4 6.6 10.4 7.2 10.4 7.8 10.9 8.3 11.5 8.3 12.1 8.3 12.6 7.8 12.6 7.2L12.6 7.2Z" fill="#7823DC" fill-rule="evenodd" clip-rule="evenodd"/><path d="M22.2 7.2C22.2 6.6 21.7 6.1 21 6.1 20.3 6.1 19.8 6.6 19.8 7.2 19.8 7.8 20.3 8.3 21 8.3 21.7 8.3 22.2 7.8 22.2 7.2L22.2 7.2Z" fill="#7823DC" fill-rule="evenodd" clip-rule="evenodd"/><path d="M12.2 25.7C12.2 25.1 11.7 24.6 11 24.6 10.3 24.6 9.8 25.1 9.8 25.7 9.8 26.3 10.3 26.8 11 26.8 11.7 26.8 12.2 26.3 12.2 25.7L12.2 25.7Z" fill="#7823DC" fill-rule="evenodd" clip-rule="evenodd"/><rect x="18.1" y="21.1" width="6.3" height="2" fill="#7823DC"/><g><defs><path d="M0 32 32 32 32 0 0 0 0 32Z" id="SVGID_1_" fill="#7823DC"/></defs><clipPath id="SVGID_00000152248950263321075290000002698129717196168369_"><use width="100%" height="100%" xlink:href="#SVGID_1_" overflow="visible"></use></clipPath><path d="M5.2 29.9 0 29.9 0.1 28.8C0.1 28.6 1.1 10.6 1.2 6.1 1.2 4.9 2.1 1.6 6.1 1.6L10.9 1.6 10.9 3.6 6.2 3.6C3.4 3.6 3.3 5.8 3.3 6.1 3.2 10 2.4 23.9 2.2 27.9L5.3 27.9 5.3 29.9Z" fill="#7823DC" clip-path="url(#SVGID_00000152248950263321075290000002698129717196168369_)"/><g clip-path="url(#SVGID_00000152248950263321075290000002698129717196168369_)"><defs><path d="M0 32 32 32 32 0 0 0 0 32Z" id="SVGID_00000013904293058264541980000013829936033801979521_" fill="#7823DC"/></defs><clipPath id="SVGID_00000147915464975853505770000008541009070770341560_"><use width="100%" height="100%" xlink:href="#SVGID_00000013904293058264541980000013829936033801979521_" overflow="visible"></use></clipPath><path d="M32 29.9 26.8 29.9 26.8 27.9 29.9 27.9C29.7 23.9 28.9 10.1 28.8 6.2 28.8 5.8 28.6 3.7 25.9 3.7L21.2 3.7 21.2 1.7 25.9 1.7C29.9 1.7 30.8 4.9 30.8 6.2 30.9 10.6 31.9 28.7 31.9 28.8L32 29.9Z" fill="#7823DC" clip-path="url(#SVGID_00000147915464975853505770000008541009070770341560_)"/><g clip-path="url(#SVGID_00000147915464975853505770000008541009070770341560_)"><defs><path d="M0 32 32 32 32 0 0 0 0 32Z" id="SVGID_00000048489654710824508830000000604107861381623980_" fill="#7823DC"/></defs><clipPath id="SVGID_00000080890991157053187010000001340561774739615159_"><use width="100%" height="100%" xlink:href="#SVGID_00000048489654710824508830000000604107861381623980_" overflow="visible"></use></clipPath><path d="M27.8 32 4.3 32 5.5 2.7 7.5 2.8 6.4 30 25.7 30 24.5 2.8 26.5 2.7Z" fill="#7823DC" clip-path="url(#SVGID_00000080890991157053187010000001340561774739615159_)"/><g clip-path="url(#SVGID_00000080890991157053187010000001340561774739615159_)"><defs><path d="M0 32 32 32 32 0 0 0 0 32Z" id="SVGID_00000065041690366364895990000009435133337059854228_" fill="#7823DC"/></defs><clipPath id="SVGID_00000153706562893125015870000016714367881363488900_"><use width="100%" height="100%" xlink:href="#SVGID_00000065041690366364895990000009435133337059854228_" overflow="visible"></use></clipPath><path d="M11.2 0 8.8 7 16 21.6 16.3 20.3 11.2 0 11.2 0Z" fill="#7823DC" fill-rule="evenodd" clip-rule="evenodd" clip-path="url(#SVGID_00000153706562893125015870000016714367881363488900_)"/><g clip-path="url(#SVGID_00000153706562893125015870000016714367881363488900_)"><defs><path d="M0 32 32 32 32 0 0 0 0 32Z" id="SVGID_00000111157438252423893540000014210682676129115301_" fill="#7823DC"/></defs><clipPath id="SVGID_00000016055192477574343920000009573757483930024325_"><use width="100%" height="100%" xlink:href="#SVGID_00000111157438252423893540000014210682676129115301_" overflow="visible"></use></clipPath><path d="M20.8 0 15.7 20.3 16 21.6 23.2 7 20.8 0 20.8 0Z" fill="#7823DC" fill-rule="evenodd" clip-rule="evenodd" clip-path="url(#SVGID_00000016055192477574343920000009573757483930024325_)"/><g clip-path="url(#SVGID_00000016055192477574343920000009573757483930024325_)"><defs><path d="M0 32 32 32 32 0 0 0 0 32Z" id="SVGID_00000033358091286450471430000011712536103492312495_" fill="#7823DC"/></defs><clipPath id="SVGID_00000034779142352213592940000010824373924366044554_"><use width="100%" height="100%" xlink:href="#SVGID_00000033358091286450471430000011712536103492312495_" overflow="visible"></use></clipPath><rect x="11.3" y="0" width="9.5" height="2" fill="#7823DC" clip-path="url(#SVGID_00000034779142352213592940000010824373924366044554_)"/><g clip-path="url(#SVGID_00000034779142352213592940000010824373924366044554_)"><defs><path d="M0 32 32 32 32 0 0 0 0 32Z" id="SVGID_00000180364664708044051930000012392692385302127493_" fill="#7823DC"/></defs><clipPath id="SVGID_00000129893868087114878450000015985329258014638496_"><use width="100%" height="100%" xlink:href="#SVGID_00000180364664708044051930000012392692385302127493_" overflow="visible"></use></clipPath><rect x="15" y="18" width="2" height="13.1" fill="#7823DC" clip-path="url(#SVGID_00000129893868087114878450000015985329258014638496_)"/></g></g></g></g></g></g></g></g></svg>