<svg viewBox="0 0 32 32" xmlns="http://www.w3.org/2000/svg" xmlns:xlink="http://www.w3.org/1999/xlink" id="Layer_1" xml:space="preserve" overflow="hidden"><g><path d="M25.3 21.2 27.5 12 23.2 12 24.9 3.2 17.3 3.2 17.3 0 15.3 0 15.3 3.2 7.3 3.2 9 12 4.6 12 6.8 21.2 9.5 21.2 8.7 32 10.7 32 11.4 21.2 20.6 21.2 21.4 32 23.4 32 22.7 21.2 25.3 21.2 25.3 21.2ZM22.4 5.2 22.1 7 10 7 9.6 5.2 22.4 5.2 22.4 5.2ZM21.7 9 21.2 11.8 10.9 11.8 10.3 9 21.7 9 21.7 9ZM9.6 19.1 8.3 19.1 7.1 14 12 14 12.4 19.2 9.6 19.2 9.6 19.1ZM18.2 18.9 14.3 18.9 14 14 18.5 14 18.2 18.9 18.2 18.9ZM20.2 19.1 20.5 13.9 24.9 13.9 23.7 19.1 20.2 19.1 20.2 19.1 20.2 19.1Z" fill="#7823DC" fill-rule="evenodd" clip-rule="evenodd"/></g></svg>