<svg viewBox="0 0 32 32" xmlns="http://www.w3.org/2000/svg" xmlns:xlink="http://www.w3.org/1999/xlink" id="Graphic" overflow="hidden"><defs></defs><path d="M26 2 26 30 6 30 6 2 26 2M24 0 4 0 4 32 28 32 28 4Z" fill="#7823DC"/><path d="M24 16 8 16 8 18 24 18 24 16 24 16Z" fill="#7823DC"/><path d="M24 20 8 20 8 22 24 22 24 20 24 20Z" fill="#7823DC"/><path d="M24 24 8 24 8 26 24 26 24 24 24 24Z" fill="#7823DC"/><path d="M16 4 8 4 8 6 16 6 16 4 16 4Z" fill="#7823DC"/><path d="M16 8 8 8 8 10 16 10 16 8 16 8Z" fill="#7823DC"/><path d="M24 12 8 12 8 14 24 14 24 12 24 12Z" fill="#7823DC"/><path d="M21 4C19.3431 4 18 5.34315 18 7 18 8.65685 19.3431 10 21 10 22.6569 10 24 8.65685 24 7L21 7Z" fill="#7823DC"/></svg>