<svg viewBox="0 0 32 32" xmlns="http://www.w3.org/2000/svg" xmlns:xlink="http://www.w3.org/1999/xlink" id="Layer_1" overflow="hidden"><style>
.MsftOfcThm_Text2_Fill_v2 {
 fill:#7823DC; 
}
</style>
<path d="M32 32 0 32 0 0 32 0 32 32ZM2 30 30 30 30 2 2 2 2 30Z" class="MsftOfcThm_Text2_Fill_v2" fill="#7823DC"/><rect x="15" y="1" width="2" height="30" class="MsftOfcThm_Text2_Fill_v2" fill="#7823DC"/><rect x="1" y="15" width="30" height="2" class="MsftOfcThm_Text2_Fill_v2" fill="#7823DC"/><rect x="7.5" y="6" width="2" height="5" class="MsftOfcThm_Text2_Fill_v2" fill="#7823DC"/><rect x="6" y="7.5" width="5" height="2" class="MsftOfcThm_Text2_Fill_v2" fill="#7823DC"/><rect x="4.96" y="22.5" width="7.07" height="2" class="MsftOfcThm_Text2_Fill_v2" fill="#7823DC" transform="matrix(0.707107 -0.707107 0.707107 0.707107 -14.13 12.89)"/><rect x="7.5" y="19.96" width="2" height="7.07" class="MsftOfcThm_Text2_Fill_v2" fill="#7823DC" transform="matrix(0.707107 -0.707107 0.707107 0.707107 -14.13 12.89)"/><rect x="21" y="7.5" width="5" height="2" class="MsftOfcThm_Text2_Fill_v2" fill="#7823DC"/><g><rect x="21" y="21.5" width="5" height="2" class="MsftOfcThm_Text2_Fill_v2" fill="#7823DC"/><rect x="21" y="24.5" width="5" height="2" class="MsftOfcThm_Text2_Fill_v2" fill="#7823DC"/></g></svg>