<svg viewBox="0 0 32 32" xmlns="http://www.w3.org/2000/svg" xmlns:xlink="http://www.w3.org/1999/xlink" id="Graphic" overflow="hidden"><defs></defs><path d="M20.26 5.86 21.77 4.57C21.0988 4.75194 20.5445 5.22541 20.26 5.86Z" fill="#7823DC"/><path d="M29.51 11.51 28.21 10 26.41 7.89 25.24 6.51 23.56 4.51 21.91 2.61 21.39 2 20.68 2.6 19.18 3.89 17.06 5.69 9.63 12 4 12 2 14 2 26 6 30 26 30 26 16 28 14.29 28.07 14.23 29.29 13.23 30.29 12.4ZM21.17 4.82 22.71 6.62C22.3036 6.94488 21.8002 7.12442 21.28 7.13 20.5799 7.12706 19.9199 6.80261 19.49 6.25ZM18 7.54C19.4726 9.36068 22.1424 9.64285 23.9631 8.17023 23.9754 8.16022 23.9877 8.15015 24 8.14L24.56 8.79C23.0056 10.0469 22.5464 12.222 23.46 14L10.33 14ZM24 28 24 28 4 28 4 16 24 16 24 20 20.91 20 20.91 24 24 24 24 28ZM25.64 13.75C25.2151 13.3074 24.9847 12.7133 25 12.1 24.999 11.4012 25.32 10.741 25.87 10.31L27.33 12 27.44 12.13Z" fill="#7823DC"/></svg>