<svg viewBox="0 0 32 32" xmlns="http://www.w3.org/2000/svg" xmlns:xlink="http://www.w3.org/1999/xlink" overflow="hidden"><defs></defs><g id="Layer_3"><path d="M24.0068 32.0109 0.00684 32.0109 0.00684 26.0109 24.0068 26.0109ZM2.00684 30.0109 22.0068 30.0109 22.0068 28.0109 2.00684 28.0109Z" fill="#7823DC"/><path d="M22.0068 28.0109 2.00684 28.0109 2.00684 0.01089 22.0068 0.01089ZM4.00684 26.0109 20.0068 26.0109 20.0068 2.01089 4.00684 2.01089Z" fill="#7823DC"/><path d="M18.0068 10.0109 6.00684 10.0109 6.00684 4.01089 18.0068 4.01089ZM8.00684 8.01089 16.0068 8.01089 16.0068 6.01089 8.00684 6.01089Z" fill="#7823DC"/><path d="M29.0068 10.6115C27.3507 10.6097 26.0086 9.26758 26.0068 7.61147L26.0068 3.99233 32.0068 3.99233 32.0068 7.61147C32.005 9.26758 30.6629 10.6097 29.0068 10.6115ZM28.0068 5.99233 28.0068 7.61147C28.0068 8.16376 28.4546 8.61147 29.0068 8.61147 29.5591 8.61147 30.0068 8.16376 30.0068 7.61147L30.0068 5.99233Z" fill="#7823DC"/><rect x="21.0068" y="20.0109" width="8" height="2" fill="#7823DC"/><rect x="28.0068" y="9.61147" width="2" height="12.3994" fill="#7823DC"/><rect x="26.7744" y="1.99624" width="2" height="3.62402" fill="#7823DC"/><rect x="29.356" y="1.99624" width="2" height="3.62402" fill="#7823DC"/><rect x="8.94188" y="16.7079" width="5.99997" height="2" fill="#7823DC"/><path d="M8.938 24.719 14.942 18.714 13.528 17.3 8.938 21.89 8.938 24.719Z" fill="#7823DC"/><path d="M14.941 10.713 8.947 16.707 10.361 18.121 14.941 13.541 14.941 10.713Z" fill="#7823DC"/></g></svg>