<svg viewBox="0 0 32.06 32.01" xmlns="http://www.w3.org/2000/svg" xmlns:xlink="http://www.w3.org/1999/xlink" id="Layer_1" overflow="hidden"><style>
.MsftOfcResponsive_Fill_7823dc {
 fill:#7823DC; 
}
</style>
<defs></defs><path d="M18 9.55 20.58 7.2 18 4.63 18 0.04 0 0.04 0 13.97 18 13.97 18 9.56ZM16 8.67 16 11.97 2 11.97 2 2.04 16 2.04 16 5.47 17.68 7.14 16 8.67Z" class="MsftOfcResponsive_Fill_7823dc" fill="#7823DC"/><path d="M14.06 18.08 14.06 22.68 11.48 25.25 14.06 27.59 14.06 32 32.06 32 32.06 18.07 14.06 18.07ZM30.06 30.01 16.06 30.01 16.06 26.71 14.38 25.18 16.06 23.51 16.06 20.08 30.06 20.08 30.06 30.01Z" class="MsftOfcResponsive_Fill_7823dc" fill="#7823DC"/><path d="M27 6C28.65 6 30 4.65 30 3 30 1.35 28.65 0 27 0 25.35 0 24 1.35 24 3 24 4.65 25.35 6 27 6ZM27 2C27.55 2 28 2.45 28 3 28 3.55 27.55 4 27 4 26.45 4 26 3.55 26 3 26 2.45 26.45 2 27 2Z" class="MsftOfcResponsive_Fill_7823dc" fill="#7823DC"/><path d="M24 8.64 27 12.64 30 8.64 30 13.97 32 13.97 32 5.97 29.5 5.97 27 9.31 24.5 5.97 22 5.97 22 13.97 24 13.97 24 8.64Z" class="MsftOfcResponsive_Fill_7823dc" fill="#7823DC"/><path d="M2 21.07C2 22.72 3.35 24.07 5 24.07 6.65 24.07 8 22.72 8 21.07 8 19.42 6.65 18.07 5 18.07 3.35 18.07 2 19.42 2 21.07ZM6 21.07C6 21.62 5.55 22.07 5 22.07 4.45 22.07 4 21.62 4 21.07 4 20.52 4.45 20.07 5 20.07 5.55 20.07 6 20.52 6 21.07Z" class="MsftOfcResponsive_Fill_7823dc" fill="#7823DC"/><path d="M5 27.38 2.5 24.05 0 24.05 0 32 2 32 2 26.71 5 30.71 8 26.71 8 32 10 32 10 24.05 7.5 24.05 5 27.38Z" class="MsftOfcResponsive_Fill_7823dc" fill="#7823DC"/><circle cx="5" cy="7.03" r="1" class="MsftOfcResponsive_Fill_7823dc" fill="#7823DC"/><circle cx="9" cy="7.03" r="1" class="MsftOfcResponsive_Fill_7823dc" fill="#7823DC"/><circle cx="13" cy="7.03" r="1" class="MsftOfcResponsive_Fill_7823dc" fill="#7823DC"/><path d="M22.12 26.09 20.55 26.09C20.57 27.14 21.4 27.98 22.45 28.03L22.45 28.7 23.93 28.7 23.93 28.04C24.99 28.04 25.84 27.18 25.84 26.12L25.84 26.12C25.84 24.96 25.1 24.51 23.93 24.31L23.93 23.22C24.11 23.34 24.22 23.54 24.23 23.75L25.75 23.75C25.71 22.77 24.91 21.99 23.92 21.97L23.92 21.3 22.44 21.3 22.44 21.97C21.47 22.02 20.71 22.81 20.69 23.78 20.69 24.85 21.22 25.38 22.46 25.62L22.46 26.74C22.25 26.59 22.12 26.34 22.11 26.08ZM23.94 25.85C24.15 25.89 24.3 26.09 24.29 26.3 24.29 26.53 24.16 26.74 23.94 26.83L23.94 25.85ZM22.19 23.65C22.19 23.47 22.29 23.31 22.44 23.23L22.44 24.07C22.28 24 22.17 23.83 22.19 23.65Z" class="MsftOfcResponsive_Fill_7823dc" fill="#7823DC"/></svg>