<svg viewBox="0 0 32 32" xmlns="http://www.w3.org/2000/svg" xmlns:xlink="http://www.w3.org/1999/xlink" id="Layer_1" overflow="hidden"><g><path d="M30 22.3 30 30.1 2 30.1 2 22.3 30 22.3M32 20.3 0 20.3 0 32 32 32 32 20.3 32 20.3 32 20.3 32 20.3Z" fill="#7823DC" fill-rule="evenodd" clip-rule="evenodd"/><path d="M2 20.4 0 20.4 0 10.9C0 5.4 4.3 1 9.6 1 14.9 1 19.2 5.4 19.2 10.9L17.2 10.9C17.2 6.5 13.8 3 9.6 3 5.4 3 2 6.5 2 10.9L2 20.4Z" fill="#7823DC"/><g><defs><path d="M0 32 32 32 32 1 0 1 0 32Z" id="SVGID_1_" fill="#7823DC"/></defs><clipPath id="SVGID_00000021816249989767514150000011615125864760540068_"><use width="100%" height="100%" xlink:href="#SVGID_1_" overflow="visible"></use></clipPath><path d="M23.3 16.5C20 16.5 17.3 13.9 17.3 10.7L19.3 10.7C19.3 12.8 21.1 14.5 23.3 14.5L23.3 16.5Z" fill="#7823DC" clip-path="url(#SVGID_00000021816249989767514150000011615125864760540068_)"/><g clip-path="url(#SVGID_00000021816249989767514150000011615125864760540068_)"><defs><path d="M0 32 32 32 32 1 0 1 0 32Z" id="SVGID_00000005246081401029631430000007471869381592907951_" fill="#7823DC"/></defs><clipPath id="SVGID_00000013152205603930762980000008849762718036041893_"><use width="100%" height="100%" xlink:href="#SVGID_00000005246081401029631430000007471869381592907951_" overflow="visible"></use></clipPath><path d="M23 14.5 32 14.5 32 16.5 23 16.5 23 14.5Z" fill="#7823DC" fill-rule="evenodd" clip-rule="evenodd" clip-path="url(#SVGID_00000013152205603930762980000008849762718036041893_)"/><g clip-path="url(#SVGID_00000013152205603930762980000008849762718036041893_)"><defs><path d="M0 32 32 32 32 1 0 1 0 32Z" id="SVGID_00000175308776229536705090000005712851069432537006_" fill="#7823DC"/></defs><clipPath id="SVGID_00000163761414497649413280000002785622455227736970_"><use width="100%" height="100%" xlink:href="#SVGID_00000175308776229536705090000005712851069432537006_" overflow="visible"></use></clipPath><path d="M32 15.2 30 15.2 30 21.3 32 21.3 32 15.2 32 15.2 32 15.2Z" fill="#7823DC" fill-rule="evenodd" clip-rule="evenodd" clip-path="url(#SVGID_00000163761414497649413280000002785622455227736970_)"/><g clip-path="url(#SVGID_00000163761414497649413280000002785622455227736970_)"><defs><path d="M0 32 32 32 32 1 0 1 0 32Z" id="SVGID_00000170970254129351679220000006486181115351377030_" fill="#7823DC"/></defs><clipPath id="SVGID_00000070807909545254506780000013563963656342357685_"><use width="100%" height="100%" xlink:href="#SVGID_00000170970254129351679220000006486181115351377030_" overflow="visible"></use></clipPath><path d="M10.8 22.2 14.7 22.2 14.7 26.2 10.8 26.2 10.8 22.2Z" fill="#7823DC" fill-rule="evenodd" clip-rule="evenodd" clip-path="url(#SVGID_00000070807909545254506780000013563963656342357685_)"/><g clip-path="url(#SVGID_00000070807909545254506780000013563963656342357685_)"><defs><path d="M0 32 32 32 32 1 0 1 0 32Z" id="SVGID_00000032637631440480898020000007310433548861467833_" fill="#7823DC"/></defs><clipPath id="SVGID_00000076578578041402023210000004691487190029039291_"><use width="100%" height="100%" xlink:href="#SVGID_00000032637631440480898020000007310433548861467833_" overflow="visible"></use></clipPath><path d="M4 22.2 8 22.2 8 26.2 4 26.2 4 22.2Z" fill="#7823DC" fill-rule="evenodd" clip-rule="evenodd" clip-path="url(#SVGID_00000076578578041402023210000004691487190029039291_)"/><g clip-path="url(#SVGID_00000076578578041402023210000004691487190029039291_)"><defs><path d="M0 32 32 32 32 1 0 1 0 32Z" id="SVGID_00000048483729553549983270000012605335112773508014_" fill="#7823DC"/></defs><clipPath id="SVGID_00000154401382585530438990000010957883698313338552_"><use width="100%" height="100%" xlink:href="#SVGID_00000048483729553549983270000012605335112773508014_" overflow="visible"></use></clipPath><path d="M5 20.9 7 20.9 7 32 5 32 5 20.9Z" fill="#7823DC" fill-rule="evenodd" clip-rule="evenodd" clip-path="url(#SVGID_00000154401382585530438990000010957883698313338552_)"/><g clip-path="url(#SVGID_00000154401382585530438990000010957883698313338552_)"><defs><path d="M0 32 32 32 32 1 0 1 0 32Z" id="SVGID_00000111175536301394270250000016378703148442614677_" fill="#7823DC"/></defs><clipPath id="SVGID_00000034773003392073093420000010817838986764066715_"><use width="100%" height="100%" xlink:href="#SVGID_00000111175536301394270250000016378703148442614677_" overflow="visible"></use></clipPath><path d="M11.8 23.1 13.8 23.1 13.8 32 11.8 32 11.8 23.1Z" fill="#7823DC" fill-rule="evenodd" clip-rule="evenodd" clip-path="url(#SVGID_00000034773003392073093420000010817838986764066715_)"/><g clip-path="url(#SVGID_00000034773003392073093420000010817838986764066715_)"><defs><path d="M0 32 32 32 32 1 0 1 0 32Z" id="SVGID_00000052065102176984282960000011059644740044552840_" fill="#7823DC"/></defs><clipPath id="SVGID_00000132796880295868027490000005274589702570036407_"><use width="100%" height="100%" xlink:href="#SVGID_00000052065102176984282960000011059644740044552840_" overflow="visible"></use></clipPath><path d="M18.5 21.8 20.5 21.8 20.5 32 18.5 32 18.5 21.8Z" fill="#7823DC" fill-rule="evenodd" clip-rule="evenodd" clip-path="url(#SVGID_00000132796880295868027490000005274589702570036407_)"/><g clip-path="url(#SVGID_00000132796880295868027490000005274589702570036407_)"><defs><path d="M0 32 32 32 32 1 0 1 0 32Z" id="SVGID_00000167371021613382683030000014611551964622305669_" fill="#7823DC"/></defs><clipPath id="SVGID_00000029724503344896770720000002997416090097702323_"><use width="100%" height="100%" xlink:href="#SVGID_00000167371021613382683030000014611551964622305669_" overflow="visible"></use></clipPath><path d="M25 23.1 27 23.1 27 32 25 32 25 23.1Z" fill="#7823DC" fill-rule="evenodd" clip-rule="evenodd" clip-path="url(#SVGID_00000029724503344896770720000002997416090097702323_)"/><g clip-path="url(#SVGID_00000029724503344896770720000002997416090097702323_)"><defs><path d="M0 32 32 32 32 1 0 1 0 32Z" id="SVGID_00000036936944884749031740000002239173209391245215_" fill="#7823DC"/></defs><clipPath id="SVGID_00000094610521995448819980000013128690692495010217_"><use width="100%" height="100%" xlink:href="#SVGID_00000036936944884749031740000002239173209391245215_" overflow="visible"></use></clipPath><path d="M24 22.2 28 22.2 28 26.2 24 26.2 24 22.2Z" fill="#7823DC" fill-rule="evenodd" clip-rule="evenodd" clip-path="url(#SVGID_00000094610521995448819980000013128690692495010217_)"/></g></g></g></g></g></g></g></g></g></g></g></svg>