<svg viewBox="0 0 32 32" xmlns="http://www.w3.org/2000/svg" xmlns:xlink="http://www.w3.org/1999/xlink" overflow="hidden"><style>
.MsftOfcResponsive_Fill_7823dc {
 fill:#7823DC; 
}
</style>
<defs></defs><g id="Layer_3"><path d="M15.9705 16.0215C11.5522 16.0215 7.97047 12.4398 7.97047 8.02148 7.97047 3.6032 11.5522 0.0214806 15.9705 0.0214806 20.3887 0.0214806 23.9705 3.6032 23.9705 8.02148 23.9654 12.4377 20.3867 16.0164 15.9705 16.0215ZM15.9705 2.02148C12.6568 2.02148 9.97047 4.70777 9.97047 8.02148 9.97047 11.3352 12.6568 14.0215 15.9705 14.0215 19.2842 14.0215 21.9705 11.3352 21.9705 8.02148 21.9669 4.70927 19.2827 2.0251 15.9705 2.02148Z" class="MsftOfcResponsive_Fill_7823dc" fill="#7823DC"/><rect x="1.96041" y="20.2719" width="2" height="11.6" class="MsftOfcResponsive_Fill_7823dc" fill="#7823DC"/><path d="M13.5 17.722 2.72 22.172 1.96 20.322 12.74 15.872 13.04 16.602 13.5 17.722Z" class="MsftOfcResponsive_Fill_7823dc" fill="#7823DC"/><rect x="27.9604" y="20.2719" width="2" height="11.6" class="MsftOfcResponsive_Fill_7823dc" fill="#7823DC"/><rect x="23.1903" y="13.1956" width="2" height="11.66" class="MsftOfcResponsive_Fill_7823dc" fill="#7823DC" transform="matrix(0.381554 -0.924346 0.924346 0.381554 -2.62591 34.1265)"/><rect x="11.9444" y="16.147" width="2.00848" height="3.23366" class="MsftOfcResponsive_Fill_7823dc" fill="#7823DC" transform="matrix(0.786664 -0.617382 0.617382 0.786664 -8.20465 11.7839)"/><rect x="17.3628" y="16.7604" width="3.22" height="2" class="MsftOfcResponsive_Fill_7823dc" fill="#7823DC" transform="matrix(0.618546 -0.785749 0.785749 0.618546 -6.71799 21.6826)"/><path d="M15.978 2.01086C17.9506 1.91458 19.9158 2.31438 21.694 3.17371 19.9158 4.03291 17.9506 4.43267 15.978 4.33643 14.0055 4.43266 12.0403 4.0329 10.2621 3.17371 12.0402 2.31439 14.0054 1.91459 15.978 2.01086M15.978 0.01086C11.5597 0.01086 7.978 1.427 7.978 3.17371 7.978 4.92042 11.5597 6.33643 15.978 6.33643 20.3963 6.33643 23.978 4.92043 23.978 3.17371 23.978 1.42699 20.3963 0.01086 15.978 0.01086Z" class="MsftOfcResponsive_Fill_7823dc" fill="#7823DC"/><rect x="-1.67071" y="11.238" width="17.4025" height="1.99952" class="MsftOfcResponsive_Fill_7823dc" fill="#7823DC" transform="matrix(0.331134 -0.943584 0.943584 0.331134 -6.8449 14.8194)"/><rect x="23.8445" y="3.53663" width="1.99952" height="17.4023" class="MsftOfcResponsive_Fill_7823dc" fill="#7823DC" transform="matrix(0.943491 -0.331397 0.331397 0.943491 -2.65166 8.92487)"/></g></svg>