<svg width="29.6" height="29.4" viewBox="0 0 29.6 29.4" xmlns="http://www.w3.org/2000/svg" xmlns:xlink="http://www.w3.org/1999/xlink" overflow="hidden"><style>
.MsftOfcResponsive_Fill_7823dc {
 fill:#7823DC; 
}
</style>
<defs></defs><g><path d="M27.9 21 27.9 21 27.9 21Z" class="MsftOfcResponsive_Fill_7823dc" fill="#7823DC"/><path d="M3.6 22.7 26.1 22.7 27.9 21 1.8 21Z" class="MsftOfcResponsive_Fill_7823dc" fill="#7823DC"/><path d="M1.7 21 1.8 21 1.7 21Z" class="MsftOfcResponsive_Fill_7823dc" fill="#7823DC"/><path d="M26.8 9.7 27.9 21 29.6 19.3 28.7 9.7 29.2 9.7 29.2 7.8 3.8 7.8 0.4 7.8 0.4 9.7 0.9 9.7 0 19.3 1.7 21 2.8 9.7Z" class="MsftOfcResponsive_Fill_7823dc" fill="#7823DC"/></g><path d="M3.5 8.1 2.6 5.7 4.7 4.2 8.5 4.6 10.3 2.6 12.8 5 17.7 2.4 20.6 5.3 23.8 3.2 25.2 6.9 25.8 8.1 27.8 8.1 26.9 6.2 24.7 0.4 20.8 2.9 18.1 0.1 13.1 2.8 10.2 0 7.7 2.7 4.2 2.3 0.4 5 1.6 8.1Z" class="MsftOfcResponsive_Fill_7823dc" fill="#7823DC"/><path d="M7.7 22.6C5.8 22.6 4.3 24.1 4.3 26 4.3 27.8 5.9 29.4 7.7 29.4 9.6 29.4 11.1 27.9 11.1 26 11.1 24.1 9.6 22.6 7.7 22.6ZM7.7 27.6C6.8 27.6 6.1 26.9 6.1 26 6.1 25.1 6.8 24.4 7.7 24.4 8.6 24.4 9.3 25.1 9.3 26 9.4 26.9 8.6 27.6 7.7 27.6Z" class="MsftOfcResponsive_Fill_7823dc" fill="#7823DC"/><path d="M21.7 22.6C19.8 22.6 18.3 24.1 18.3 26 18.3 27.8 19.9 29.4 21.7 29.4 23.6 29.4 25.1 27.9 25.1 26 25.1 24.1 23.5 22.6 21.7 22.6ZM21.7 27.6C20.8 27.6 20.1 26.9 20.1 26 20.1 25.1 20.8 24.4 21.7 24.4 22.6 24.4 23.3 25.1 23.3 26 23.3 26.9 22.6 27.6 21.7 27.6Z" class="MsftOfcResponsive_Fill_7823dc" fill="#7823DC"/></svg>