<svg viewBox="0 0 32 32" xmlns="http://www.w3.org/2000/svg" xmlns:xlink="http://www.w3.org/1999/xlink" id="Layer_5" overflow="hidden"><defs></defs><path d="M32 18 30 18 30 22 23.95 22 11.41 19.01 24 16.12 24 13.89 11.96 11.01 25.04 8 29.01 8 29.01 0 3 0 3 8 16.1 8 8 9.86 8 12.11 19.99 14.97 8 17.73 8 20.24 15.34 21.99 2 21.99 2 17.99 0 17.99 0 27.99 4.03 27.99C4.03 28.08 4 28.17 4 28.26 4 30.31 5.67 31.99 7.73 31.99 9.79 31.99 11.46 30.32 11.46 28.26 11.46 28.17 11.44 28.08 11.43 27.99L20.58 27.99C20.58 28.08 20.55 28.17 20.55 28.26 20.55 30.31 22.22 31.99 24.28 31.99 26.34 31.99 28.01 30.32 28.01 28.26 28.01 28.17 27.99 28.08 27.98 27.99L32.01 27.99 32.01 17.99ZM27 6 25 6 25 2 27 2 27 6ZM23 6 21 6 21 2 23 2 23 6ZM19 6 17 6 17 2 19 2 19 6ZM5 2 7 2 7 6 5 6 5 2ZM9 2 11 2 11 6 9 6 9 2ZM13 2 15 2 15 6 13 6 13 2ZM9.45 28.27C9.45 29.22 8.68 30 7.72 30 6.76 30 5.99 29.23 5.99 28.27 5.99 28.18 6 28.09 6.02 28 6.15 27.18 6.86 26.55 7.72 26.55 8.58 26.55 9.29 27.18 9.42 28 9.43 28.09 9.45 28.18 9.45 28.27ZM26 28.27C26 29.22 25.23 30 24.27 30 23.31 30 22.54 29.23 22.54 28.27 22.54 28.18 22.55 28.09 22.57 28 22.7 27.18 23.41 26.55 24.27 26.55 25.13 26.55 25.84 27.18 25.97 28 25.98 28.09 26 28.18 26 28.27ZM30 26 27.2 26C26.52 25.12 25.46 24.55 24.27 24.55 23.08 24.55 22.02 25.13 21.34 26L10.65 26C9.97 25.12 8.91 24.55 7.72 24.55 6.53 24.55 5.47 25.13 4.79 26L1.99 26 1.99 24 29.99 24 29.99 26Z" fill="#7823DC"/></svg>