<svg viewBox="0 0 32 32" xmlns="http://www.w3.org/2000/svg" xmlns:xlink="http://www.w3.org/1999/xlink" id="Layer_1" overflow="hidden"><g><g><path d="M24 15 7 15 7 20.3 24 20.3C24.6 20.3 25 19.9 25 19.3L25 16C25 15.4 24.6 15 24 15ZM23 18.3 9 18.3 9 17 23 17 23 18.3Z" fill="#7823DC"/></g><g><path d="M13 20.2 13 20.3 12.2 24 10.5 32 8.4 32 10.9 20.3 11 19.8Z" fill="#7823DC"/></g><g><path d="M22.6 32 20.6 32 18.8 24 18 20.3 18 20.2 20 19.8 20.1 20.3Z" fill="#7823DC"/></g><rect x="11" y="24" width="9" height="2" fill="#7823DC"/><path d="M12.6 15.9 10.7 16.1 10.5 15 9.2 0.3 9.2 0 9.2 0 9.2 0 11.2 0 12.6 15Z" fill="#7823DC"/><path d="" stroke="#7823DC" stroke-width="2" stroke-linejoin="bevel" stroke-miterlimit="10" fill="#7823DC"/><path d="M9.2 0 9.2 0.3 9 15 9 16 7 16 7 16 7.2 0 9.2 0 9.2 0Z" fill="#7823DC"/></g><path d="M11.2 0 9.2 0 9.2 0 9.2 0Z" fill="#7823DC"/></svg>