<svg viewBox="0 0 32 32" xmlns="http://www.w3.org/2000/svg" xmlns:xlink="http://www.w3.org/1999/xlink" id="Layer_1" overflow="hidden"><style>
.MsftOfcResponsive_Fill_7823dc {
 fill:#7823DC; 
}
</style>
<path d="M16 27.71C9.54 27.71 4.29 22.46 4.29 16 4.29 9.54 9.54 4.29 16 4.29 22.46 4.29 27.71 9.54 27.71 16 27.71 22.46 22.46 27.71 16 27.71ZM16 6.29C10.64 6.29 6.29 10.65 6.29 16 6.29 21.35 10.65 25.71 16 25.71 21.35 25.71 25.71 21.35 25.71 16 25.71 10.65 21.35 6.29 16 6.29Z" class="MsftOfcResponsive_Fill_7823dc" fill="#7823DC"/><path d="M16 32C7.18 32 0 24.82 0 16 0 7.18 7.18 0 16 0 24.82 0 32 7.18 32 16 32 24.82 24.82 32 16 32ZM16 2C8.28 2 2 8.28 2 16 2 23.72 8.28 30 16 30 23.72 30 30 23.72 30 16 30 8.28 23.72 2 16 2Z" class="MsftOfcResponsive_Fill_7823dc" fill="#7823DC"/><rect x="15" y="1" width="2" height="4.29" class="MsftOfcResponsive_Fill_7823dc" fill="#7823DC"/><rect x="5.89" y="4.77" width="2" height="4.24" class="MsftOfcResponsive_Fill_7823dc" fill="#7823DC" transform="matrix(0.707107 -0.707107 0.707107 0.707107 -2.85 6.89)"/><rect x="1" y="15" width="4.29" height="2" class="MsftOfcResponsive_Fill_7823dc" fill="#7823DC"/><rect x="4.77" y="24.11" width="4.24" height="2" class="MsftOfcResponsive_Fill_7823dc" fill="#7823DC" transform="matrix(0.707107 -0.707107 0.707107 0.707107 -15.73 12.23)"/><rect x="15" y="26.71" width="2" height="4.29" class="MsftOfcResponsive_Fill_7823dc" fill="#7823DC"/><rect x="24.11" y="22.99" width="2" height="4.24" class="MsftOfcResponsive_Fill_7823dc" fill="#7823DC" transform="matrix(0.707107 -0.707107 0.707107 0.707107 -10.4 25.11)"/><rect x="26.71" y="15" width="4.29" height="2" class="MsftOfcResponsive_Fill_7823dc" fill="#7823DC"/><rect x="22.99" y="5.89" width="4.24" height="2" class="MsftOfcResponsive_Fill_7823dc" fill="#7823DC" transform="matrix(0.707107 -0.707107 0.707107 0.707107 2.48 19.77)"/><path d="M16 22.96 10.43 16 16 9.04 21.57 16 16 22.96ZM13 16 16 19.76 19 16 16 12.24 13 16Z" class="MsftOfcResponsive_Fill_7823dc" fill="#7823DC"/></svg>