<svg viewBox="0 0 32 32" xmlns="http://www.w3.org/2000/svg" xmlns:xlink="http://www.w3.org/1999/xlink" id="Layer_1" overflow="hidden"><g><path d="M25.4 20.3 29.7 20.3C28.7 15.8 27.3 9.5 26.4 8.1 24 4.2 19.8 1.9 15.3 1.9 15.3 1.9 15.3 1.9 15.2 1.9 8 2 2.1 8.1 2.1 15.3L2.1 15.4C2.1 19.9 4.4 24.2 8.2 26.6L7.1 28.3C2.7 25.5 0 20.6 0 15.4L0 15.3C0 6.9 6.7 0 15.1 0 20.4 0 25.2 2.7 27.9 7.1 29.3 9.4 31.4 20 31.7 21.2L32 22.4 26.2 22.4 25.4 20.3 25.4 20.3 25.4 20.3Z" fill="#7823DC" fill-rule="evenodd" clip-rule="evenodd"/><path d="M26.5 32 17.2 32 17.2 30 24.5 30 24.5 20.3 26.5 20.3 26.5 32Z" fill="#7823DC" fill-rule="evenodd" clip-rule="evenodd"/></g><g><path d="M13 24.3 9.2 22.1 9.8 18.9C9.7 18.8 9.7 18.7 9.6 18.6L6.6 17.6 6.6 13 9.6 11.9C9.6 11.9 9.7 11.8 9.7 11.7 9.7 11.7 9.8 11.6 9.8 11.5L9.1 8.3 12.9 6.2 15.4 8.4C15.5 8.4 15.6 8.4 15.7 8.4L18 6.2 21.8 8.4 21.2 11.6C21.3 11.7 21.3 11.8 21.4 11.9L24.4 12.9 24.4 17.4 21.4 18.4C21.4 18.4 21.3 18.5 21.3 18.6L21.3 18.6C21.3 18.6 21.2 18.7 21.2 18.8L21.9 22 18.1 24.2 15.6 22C15.5 22 15.4 22 15.3 22L13 24.3 13 24.3 13 24.3 13 24.3 13 24.3ZM11.3 21.1 12.7 21.9 14.7 20.1 15 20.1C15.3 20.1 15.6 20.1 15.9 20.1L16.3 20.1 18.3 21.9 19.7 21.1 19.1 18.5 19.3 18.2C19.4 18.1 19.5 18 19.5 17.8 19.6 17.7 19.6 17.5 19.7 17.4L19.9 17 22.5 16.1 22.5 14.4 19.9 13.6 19.7 13.2C19.6 12.9 19.4 12.7 19.3 12.5L19.1 12.2 19.6 9.5 18.2 8.7 16.2 10.5 15.8 10.5C15.5 10.5 15.2 10.5 14.9 10.5L14.5 10.5 12.5 8.7 11.1 9.5 11.7 12.1 11.5 12.4C11.4 12.5 11.3 12.6 11.3 12.8 11.2 12.9 11.2 13.1 11.1 13.2L11 13.5 8.4 14.4 8.4 16.1 11 16.9 11.2 17.3C11.3 17.6 11.5 17.8 11.6 18L11.8 18.3 11.3 21.1 11.3 21.1 11.3 21.1 11.3 21.1 11.3 21.1Z" fill="#7823DC" fill-rule="evenodd" clip-rule="evenodd"/><circle cx="15.5" cy="15.2" r="1.5" fill="#7823DC" fill-rule="evenodd" clip-rule="evenodd"/></g></svg>