<svg width="30.05" height="32" viewBox="0 0 30.05 32" xmlns="http://www.w3.org/2000/svg" xmlns:xlink="http://www.w3.org/1999/xlink" overflow="hidden"><style>
.MsftOfcResponsive_Fill_7823dc {
 fill:#7823DC; 
}
</style>
<defs></defs><g><path d="M12 8.03 12 30 2 30 2 8.03 12 8.03M14 6.03 0 6.03 0 32 14 32 14 6.03 14 6.03Z" class="MsftOfcResponsive_Fill_7823dc" fill="#7823DC"/></g><g><path d="M8 16 6 16 6 22 8 22 8 16Z" class="MsftOfcResponsive_Fill_7823dc" fill="#7823DC"/></g><g><path d="M10 18 4 18 4 20 10 20 10 18Z" class="MsftOfcResponsive_Fill_7823dc" fill="#7823DC"/></g><g><path d="M8 2 6 2 6 8 8 8 8 2Z" class="MsftOfcResponsive_Fill_7823dc" fill="#7823DC"/></g><g><path d="M21 0 2 0 2 2 23.21 2 21 0Z" class="MsftOfcResponsive_Fill_7823dc" fill="#7823DC"/></g><g><path d="M21.2 0 19.79 1.41 22.62 4.24 24.03 2.83 21.2 0Z" class="MsftOfcResponsive_Fill_7823dc" fill="#7823DC"/></g><g><g><path d="M23.04 22.03C21.25 22.03 19.46 21.35 18.09 19.98 15.68 17.57 15.35 13.81 17.3 11.02L18.93 12.16C17.65 14.2 17.79 16.85 19.51 18.57 21.46 20.52 24.63 20.52 26.58 18.57 28.32 16.83 28.54 14.11 27.11 12.12L28.73 10.95C30.74 13.75 30.43 17.54 27.99 19.98 26.62 21.35 24.83 22.03 23.04 22.03Z" class="MsftOfcResponsive_Fill_7823dc" fill="#7823DC"/></g></g><g><path d="" class="MsftOfcResponsive_Fill_7823dc" fill="#7823DC"/></g><g><path d="" class="MsftOfcResponsive_Fill_7823dc" stroke="#7823DC" stroke-width="2" stroke-miterlimit="10" fill="#7823DC"/></g><g><g><path d="M17.08 11.36 18.8 12.37 23.11 6 20.55 6Z" class="MsftOfcResponsive_Fill_7823dc" fill="#7823DC"/></g><g><path d="M23.11 6 27.43 12.63 29.15 11.62 25.57 6Z" class="MsftOfcResponsive_Fill_7823dc" fill="#7823DC"/></g></g></svg>