<svg viewBox="0 0 32 32" xmlns="http://www.w3.org/2000/svg" xmlns:xlink="http://www.w3.org/1999/xlink" id="Layer_2_1_" overflow="hidden"><style>
.MsftOfcResponsive_Fill_7823dc {
 fill:#7823DC; 
}
</style>
<g><path d="" class="st0 MsftOfcResponsive_Fill_7823dc" fill="#7823DC" fill-rule="evenodd" clip-rule="evenodd"/></g><rect x="6.2" y="10" width="2" height="6.5" class="MsftOfcResponsive_Fill_7823dc" fill="#7823DC" transform="matrix(0.4961 -0.8682 0.8682 0.4961 -7.8707 12.9784)"/><rect x="23" y="-1.9" width="2" height="7" class="MsftOfcResponsive_Fill_7823dc" fill="#7823DC" transform="matrix(0.1853 -0.9827 0.9827 0.1853 17.9464 24.909)"/><rect x="24.5" y="4.3" width="2" height="7" class="MsftOfcResponsive_Fill_7823dc" fill="#7823DC" transform="matrix(0.4961 -0.8682 0.8682 0.4961 6.0219 26.0461)"/><rect x="22.2" y="8.7" width="2" height="8.5" class="MsftOfcResponsive_Fill_7823dc" fill="#7823DC" transform="matrix(0.4961 -0.8682 0.8682 0.4961 0.4396 26.723)"/><rect x="3.5" y="1.1" width="2" height="7" class="MsftOfcResponsive_Fill_7823dc" fill="#7823DC" transform="matrix(0.4961 -0.8682 0.8682 0.4961 -1.7483 6.1969)"/><rect x="27.4" y="1.7" width="2" height="7" class="MsftOfcResponsive_Fill_7823dc" fill="#7823DC" transform="matrix(0.1672 -0.9859 0.9859 0.1672 18.5472 32.2799)"/><rect x="24.8" y="10.2" width="7" height="2" class="MsftOfcResponsive_Fill_7823dc" fill="#7823DC" transform="matrix(0.9645 -0.2642 0.2642 0.9645 -1.9553 7.8684)"/><rect x="0.1" y="8.4" width="6.9" height="2.2" class="MsftOfcResponsive_Fill_7823dc" fill="#7823DC" transform="matrix(0.9648 -0.2631 0.2631 0.9648 -2.3825 1.2629)"/><rect x="11.2" y="7" width="2.2" height="6.9" class="MsftOfcResponsive_Fill_7823dc" fill="#7823DC" transform="matrix(0.263 -0.9648 0.9648 0.263 -1.0201 19.5862)"/><rect x="12" y="12.6" width="7" height="2" class="MsftOfcResponsive_Fill_7823dc" fill="#7823DC" transform="matrix(0.9648 -0.2631 0.2631 0.9648 -3.0196 4.5592)"/><rect x="6.9" y="1.9" width="7" height="2" class="MsftOfcResponsive_Fill_7823dc" fill="#7823DC" transform="matrix(0.9648 -0.2631 0.2631 0.9648 -0.3942 2.8276)"/><rect x="17.3" y="0.2" width="2" height="7" class="MsftOfcResponsive_Fill_7823dc" fill="#7823DC" transform="matrix(0.2332 -0.9724 0.9724 0.2332 10.4674 20.5757)"/><rect x="9.8" y="5.3" width="7" height="2" class="MsftOfcResponsive_Fill_7823dc" fill="#7823DC" transform="matrix(0.9648 -0.2631 0.2631 0.9648 -1.1964 3.7163)"/><rect x="14.8" y="7.2" width="7" height="2" class="MsftOfcResponsive_Fill_7823dc" fill="#7823DC" transform="matrix(0.9972 -0.0745249 0.0745249 0.9972 -0.5624 1.3852)"/><g><path d="M27 23.3 27 26.2 25 26.2 25 23.3 27 23.3M29 21.4 23 21.4 23 28.2 29 28.2 29 21.4 29 21.4 29 21.4 29 21.4Z" class="st1 MsftOfcResponsive_Fill_7823dc" fill="#7823DC" fill-rule="evenodd" clip-rule="evenodd"/><path d="M7 23.3 7 26.2 5 26.2 5 23.3 7 23.3M9 21.4 3 21.4 3 28.2 9 28.2 9 21.4 9 21.4 9 21.4 9 21.4Z" class="st1 MsftOfcResponsive_Fill_7823dc" fill="#7823DC" fill-rule="evenodd" clip-rule="evenodd"/><path d="M28 15.9C29.1 15.9 30 16.8 30 17.8L30 19.3C30 20.4 29.1 21.2 28 21.2L4 21.2C2.9 21.2 2 20.3 2 19.3L2 17.8C2 16.7 2.9 15.9 4 15.9L28 15.9M28 14 4 14C1.8 14 0 15.7 0 17.9L0 19.4C0 21.5 1.8 23.3 4 23.3L28 23.3C30.2 23.3 32 21.6 32 19.4L32 17.9C32 15.7 30.2 14 28 14L28 14 28 14 28 14Z" class="st1 MsftOfcResponsive_Fill_7823dc" fill="#7823DC" fill-rule="evenodd" clip-rule="evenodd"/><path d="M6.5 17.5 25.5 17.5 25.5 19.4 6.5 19.4 6.5 17.5Z" class="st1 MsftOfcResponsive_Fill_7823dc" fill="#7823DC" fill-rule="evenodd" clip-rule="evenodd"/><path d="M29 18.5C29 19 28.6 19.5 28 19.5 27.4 19.5 27 19.1 27 18.5 27 18 27.4 17.5 28 17.5 28.6 17.5 29 17.9 29 18.5L29 18.5Z" class="st1 MsftOfcResponsive_Fill_7823dc" fill="#7823DC" fill-rule="evenodd" clip-rule="evenodd"/><path d="M5 18.5C5 19 4.6 19.5 4 19.5 3.4 19.5 3 19.1 3 18.5 3 18 3.4 17.5 4 17.5 4.6 17.5 5 17.9 5 18.5L5 18.5Z" class="st1 MsftOfcResponsive_Fill_7823dc" fill="#7823DC" fill-rule="evenodd" clip-rule="evenodd"/><path d="M30 28.1 30 30 2 30 2 28.1 30 28.1M32 26.2 0 26.2 0 32 32 32 32 26.2 32 26.2 32 26.2 32 26.2Z" class="st1 MsftOfcResponsive_Fill_7823dc" fill="#7823DC" fill-rule="evenodd" clip-rule="evenodd"/></g></svg>