<svg viewBox="0 0 29.22 29.22" xmlns="http://www.w3.org/2000/svg" xmlns:xlink="http://www.w3.org/1999/xlink" id="Layer_5" overflow="hidden"><defs></defs><path d="M28.08 4.38 8.94 4.38C8.47 2.55 6.72 1.24 4.54 1.24 1.97 1.24 0 3.13 0 5.38 0 7.63 2.07 9.52 4.54 9.52 6.59 9.52 8.36 8.28 8.9 6.52L18.01 6.52 18.01 7.45 20.28 9.52 20.28 6.52 22.48 6.52 22.48 9.52 24.75 9.52 24.75 6.52 26.95 6.52 26.95 9.52 29.22 9.52 29.22 4.38 28.09 4.38ZM4.54 7.54C3.26 7.54 2.27 6.64 2.27 5.47 2.27 4.3 3.26 3.4 4.54 3.4 5.82 3.4 6.81 4.3 6.81 5.47 6.81 6.55 5.82 7.54 4.54 7.54Z" stroke-width="0" fill="#7823DC" fill-rule="evenodd"/><path d="M23.47 18.17 19.96 12.66 19.92 12.6 6.21 12.6 2.3 18.96 0 18.96 0 23.77 1.81 25.59 1.81 25.66 1.88 25.66 2.93 26.71C3.1 28.16 4.27 29.2 5.73 29.2 6.9 29.2 7.91 28.53 8.35 27.47L19.32 27.47C19.75 28.52 20.77 29.2 21.94 29.2 23.11 29.2 24.12 28.53 24.56 27.47L29.22 27.47 29.22 19.98 23.47 18.15ZM2.06 21.04 12.67 21.04 12.67 25.43 8.37 25.43C7.94 24.27 6.92 23.52 5.74 23.52 4.49 23.52 3.45 24.27 3.06 25.43L2.06 25.43 2.06 21.04ZM5.74 25.58C6.21 25.58 6.52 25.89 6.52 26.37 6.52 26.85 6.21 27.16 5.74 27.16 5.27 27.16 4.96 26.85 4.96 26.37 4.96 25.89 5.27 25.58 5.74 25.58ZM12.67 14.67 12.67 18.97 4.71 18.97 7.25 14.67 12.67 14.67ZM27.16 23.85 27.16 25.42 24.62 25.42C24.23 24.26 23.19 23.51 21.94 23.51 20.69 23.51 19.65 24.26 19.26 25.42L14.73 25.42 14.73 21.03 25.69 21.03C25.69 21.03 27.15 21.45 27.15 21.45L27.15 21.78 25.34 21.78 25.34 23.85 27.15 23.85ZM14.73 18.97 14.73 14.67 18.88 14.67 21.64 18.97 14.73 18.97ZM21.94 25.58C22.41 25.58 22.72 25.89 22.72 26.37 22.72 26.85 22.41 27.16 21.94 27.16 21.47 27.16 21.16 26.85 21.16 26.37 21.16 25.89 21.57 25.58 21.94 25.58Z" stroke-width="0" fill="#7823DC"/></svg>