<svg viewBox="0 0 32 32" xmlns="http://www.w3.org/2000/svg" xmlns:xlink="http://www.w3.org/1999/xlink" id="Layer_1" overflow="hidden"><path d="M29.4 29 29.6 30 2.4 30 2.6 29 29.4 29M31 27 1 27 0 32 32 32 31 27 31 27Z" fill="#7823DC"/><rect x="1" y="24" width="30" height="2" fill="#7823DC"/><path d="M30 24 28 24 28 23.1C28 16.4 22.6 11 16 11 9.4 11 4 16.4 4 23.1L4 24 2 24 2 23.1C2 15.3 8.3 9 16 9 23.7 9 30 15.3 30 23.1L30 24Z" fill="#7823DC"/><path d="" stroke="#7823DC" stroke-width="2" stroke-miterlimit="10" fill="#7823DC"/><path d="M8 22 6 22 6 21.5C6 16.8 9.8 13 14.4 13L14.4 15C10.9 15 8 17.9 8 21.5L8 22Z" fill="#7823DC"/><rect x="15" y="8" width="2" height="2" fill="#7823DC"/><rect x="13" y="6" width="6" height="2" fill="#7823DC"/></svg>