<svg viewBox="0 0 29.22 29.22" xmlns="http://www.w3.org/2000/svg" xmlns:xlink="http://www.w3.org/1999/xlink" id="Layer_5" overflow="hidden"><defs></defs><path d="M26.84 16.51 18.99 18.99 18.99 15.83 16.96 16.06 13.97 16.4 9.26 14.71 8.5 14.44 7.79 14.82 4.84 16.4 0 16.4 0 25.57 4.86 25.57 13.84 29.22 28.25 21.7 29.21 21.18 29.21 15.76 26.84 16.51 26.84 16.51ZM27.39 20.08 13.76 27.19 5.24 23.74 1.83 23.74 1.83 18.22 5.29 18.22 8.64 16.42 13.75 18.25 17.16 17.87 17.16 19.7 16.17 20.02 12.73 20.72 12.73 22.42 16.34 21.75 16.34 21.75C16.34 21.75 27.38 18.26 27.38 18.26L27.38 20.09 27.38 20.09Z" stroke-width="0" fill="#7823DC" fill-rule="evenodd"/><g><path d="M13.07 7.89C12.98 7.1 12.87 6.3 12.76 5.51L12.65 4.69C12.59 4.25 12.53 3.8 12.46 3.35L12.46 3.26C12.46 3.26 12.73 3.33 12.73 3.33L12.83 2.65C12.87 2.42 12.91 2.19 12.92 1.96 12.93 1.65 12.68 1.41 12.61 1.34 12.36 1.12 12.1 0.91 11.84 0.7L11.14 0.13 10.94 0.58C10.72 1.08 10.48 1.76 10.63 2.6 10.9 4.14 11.11 5.73 11.3 7.27L11.32 7.45C11.38 7.94 11.44 8.42 11.35 8.82 11.23 9.39 10.87 9.88 10.34 10.2 9.7 10.59 8.9 10.68 8.16 10.45 7.33 10.2 6.92 9.56 7.08 8.74 7.17 8.26 7.34 7.79 7.52 7.3 7.6 7.09 7.67 6.88 7.74 6.67 7.76 6.61 7.79 6.55 7.82 6.49L8.03 6.04 6.62 5.26 6.44 5.59C5.94 6.49 5.43 7.58 5.39 8.86 5.34 10.52 6.3 11.76 7.89 12.09 8.21 12.16 8.56 12.19 8.92 12.19 9.15 12.19 9.39 12.18 9.63 12.15 11.83 11.88 13.3 10.05 13.06 7.89Z" stroke-width="0" fill="#7823DC"/><path d="M13.39 3.94C13.48 4.81 13.56 5.67 13.67 6.54 13.75 7.19 13.88 7.89 14.08 8.74 14.2 9.28 14.54 9.62 15.02 9.7 15.85 9.83 16.64 9.89 17.38 9.89 17.96 9.89 18.52 9.85 19.07 9.77 19.72 9.68 20.03 9.35 20.1 8.67 20.13 8.36 20.16 8.06 20.14 7.76 20.09 7 19.9 5.9 18.87 5.13L18.53 4.87 17.73 6.26 17.93 6.46C18.37 6.91 18.47 7.45 18.47 8.17 18.24 8.17 18.01 8.17 17.79 8.17 17.37 8.17 16.97 8.19 16.57 8.16 16.33 8.14 16.13 8.13 15.97 8.13 15.8 8.13 15.61 8.12 15.6 8.13 15.56 8.07 15.52 7.79 15.49 7.51L15.43 7.09C15.31 6.24 15.22 5.39 15.14 4.54 15.08 3.95 15.02 3.35 14.95 2.76 14.9 2.33 14.81 1.9 14.73 1.47 14.69 1.28 14.65 1.09 14.62 0.89L14.56 0.55 14.21 0.59 13.86 0.7 13.76 0.83C13.36 1.37 12.87 2.03 13.31 2.91L13.41 3.94Z" stroke-width="0" fill="#7823DC"/><path d="M22.99 6.85 22.71 6.59 21.64 7.79 21.87 8.04C22.88 9.12 22.69 10.04 22.38 10.81 22.09 11.51 21.63 12.08 21 12.52 19.87 13.31 18.87 13.36 17.85 12.68 17.75 12.62 17.65 12.62 17.58 12.61L17.37 12.59 16.53 13.7 16.8 13.93C17.45 14.49 18.33 14.8 19.24 14.8 19.3 14.8 19.36 14.8 19.41 14.8 21.77 14.7 24.04 12.52 24.25 10.14 24.37 8.85 23.94 7.74 22.98 6.85Z" stroke-width="0" fill="#7823DC"/><rect x="15.04" y="10.62" width="1.92" height="1.92" stroke-width="0" fill="#7823DC" transform="matrix(0.498034 -0.867158 0.867158 0.498034 -2.01 19.69)"/><rect x="12.53" y="11.66" width="1.92" height="1.92" stroke-width="0" fill="#7823DC" transform="matrix(0.498185 -0.867071 0.867071 0.498185 -4.17 18.03)"/></g></svg>