<svg viewBox="0 0 32.3 32.3" xmlns="http://www.w3.org/2000/svg" xmlns:xlink="http://www.w3.org/1999/xlink" id="Layer_1" overflow="hidden"><style>
.MsftOfcResponsive_Fill_7823dc {
 fill:#7823DC; 
}
</style>
<path d="M6.83 32.13C6.26 32.13 5.7 31.97 5.21 31.65 4.54 31.22 4.07 30.53 3.9 29.76L0.07 12.09C-0.1 11.3 0.05 10.5 0.48 9.82 0.91 9.15 1.59 8.68 2.37 8.51L8.82 7.12 9.24 9.08 2.8 10.47C2.54 10.53 2.31 10.69 2.17 10.91 2.03 11.13 1.98 11.41 2.03 11.67L5.86 29.34C5.92 29.6 6.08 29.83 6.3 29.97 6.53 30.12 6.8 30.17 7.06 30.11L16.45 28.07 16.87 30.03 7.47 32.07C7.26 32.12 7.04 32.14 6.83 32.14Z" class="MsftOfcResponsive_Fill_7823dc" fill="#7823DC"/><path d="M24.06 32.3C23.82 32.3 23.59 32.26 23.35 32.19L10.61 28.13C9.38 27.74 8.69 26.41 9.09 25.18L14.97 6.69C15.16 6.09 15.57 5.61 16.13 5.32 16.69 5.03 17.32 4.98 17.92 5.17L30.66 9.23C31.89 9.62 32.58 10.94 32.18 12.18L26.29 30.67C25.97 31.67 25.05 32.3 24.05 32.3ZM17.21 7.06C17.14 7.06 17.08 7.08 17.05 7.1 17 7.12 16.92 7.18 16.88 7.3L10.99 25.79C10.93 25.97 11.03 26.17 11.21 26.23L23.95 30.29C24.13 30.35 24.33 30.25 24.39 30.07L30.28 11.58C30.34 11.4 30.24 11.2 30.05 11.14L30.05 11.14 17.31 7.08C17.31 7.08 17.24 7.06 17.2 7.06Z" class="MsftOfcResponsive_Fill_7823dc" fill="#7823DC"/><path d="M18.91 24.09 16.58 17.38 22.37 13.26 24.71 19.97 18.92 24.09ZM18.95 18.14 19.91 20.92 22.3 19.21 21.33 16.43 18.94 18.14Z" class="MsftOfcResponsive_Fill_7823dc" fill="#7823DC"/><path d="M10.68 24.07C9.95 23.98 9.27 23.63 8.78 23.07 8.29 22.52 8.02 21.8 8.03 21.06L8.03 3C8.08 2.14 8.43 1.39 9.02 0.84 9.61 0.29 10.4 -1.11022e-16 11.19 -1.11022e-16L23.09 -1.11022e-16C23.91 0.03 24.65 0.35 25.2 0.9 25.76 1.45 26.08 2.19 26.11 2.97L26.11 8.51C26.11 8.51 24.11 8.51 24.11 8.51L24.11 3.01C24.11 2.77 23.99 2.51 23.79 2.32 23.59 2.12 23.33 2.01 23.06 2L11.18 2C10.84 2 10.6 2.1 10.39 2.3 10.18 2.5 10.05 2.76 10.04 3.05L10.04 21.07C10.04 21.32 10.13 21.56 10.29 21.75 10.45 21.94 10.68 22.05 10.93 22.08L10.69 24.06Z" class="MsftOfcResponsive_Fill_7823dc" fill="#7823DC"/><circle cx="18" cy="10" r="1" class="MsftOfcResponsive_Fill_7823dc" fill="#7823DC"/><circle cx="23" cy="28" r="1" class="MsftOfcResponsive_Fill_7823dc" fill="#7823DC"/><circle cx="12" cy="4" r="1" class="MsftOfcResponsive_Fill_7823dc" fill="#7823DC"/><circle cx="4" cy="12" r="1" class="MsftOfcResponsive_Fill_7823dc" fill="#7823DC"/></svg>