<svg viewBox="0 0 32 32" xmlns="http://www.w3.org/2000/svg" xmlns:xlink="http://www.w3.org/1999/xlink" overflow="hidden"><defs></defs><g id="Layer_3"><path d="M9.47852 20.2607 8.17383 20.2607C3.66173 20.2555 0.00526259 16.599 3.23486e-08 12.0869L0 3.6084C0.0017308 2.33643 1.03272 1.30588 2.30469 1.30469L3.6084 1.30469C4.16069 1.30469 4.6084 1.75241 4.6084 2.30469 4.6084 2.85697 4.16069 3.30469 3.6084 3.30469L2.30469 3.30469C2.13684 3.30479 2.00064 3.44055 2 3.6084L2 12.0869C2.00382 15.495 4.7657 18.2569 8.17383 18.2607L9.47852 18.2607C12.8866 18.2569 15.6485 15.495 15.6523 12.0869L15.6523 3.6084C15.6517 3.44055 15.5155 3.30479 15.3477 3.30469L14.044 3.30469C13.4917 3.30469 13.044 2.85697 13.044 2.30469 13.044 1.75241 13.4917 1.30469 14.044 1.30469L15.3477 1.30469C16.6197 1.30591 17.6506 2.33645 17.6523 3.6084L17.6523 12.0869C17.6471 16.599 13.9906 20.2555 9.47852 20.2607Z" fill="#7823DC"/><path d="M27.0869 13.0869C24.3735 13.0869 22.1738 10.8872 22.1738 8.17382 22.1738 5.4604 24.3735 3.26073 27.0869 3.26073 29.8003 3.26073 32 5.4604 32 8.17382 31.9969 10.8859 29.799 13.0838 27.0869 13.0869ZM27.0869 5.26074C25.4781 5.26074 24.1738 6.56497 24.1738 8.17383 24.1738 9.78269 25.4781 11.0869 27.0869 11.0869 28.6958 11.0869 30 9.78269 30 8.17383 29.9983 6.56568 28.6951 5.26244 27.0869 5.26074Z" fill="#7823DC"/><path d="M27.0869 9.82617C26.1743 9.82617 25.4346 9.08639 25.4346 8.17382 25.4346 7.26125 26.1743 6.52147 27.0869 6.52147 27.9995 6.52147 28.7393 7.26125 28.7393 8.17382 28.7382 9.08597 27.9991 9.82515 27.0869 9.82616ZM27.0869 7.82617C26.8949 7.82617 26.7393 7.98182 26.7393 8.17383 26.7393 8.36584 26.8949 8.52149 27.0869 8.52149 27.2789 8.52149 27.4346 8.36584 27.4346 8.17383 27.4341 7.982 27.2787 7.82659 27.0869 7.82617Z" fill="#7823DC"/><path d="M12.7393 4.6084C11.4667 4.6081 10.4353 3.57623 10.4356 2.30366 10.4359 1.03109 11.4678-0.000298231 12.7403 3.12991e-08 14.0129 0.000298289 15.0443 1.03214 15.044 2.30469 15.0423 3.57668 14.0112 4.60724 12.7393 4.6084ZM12.7393 2C12.5713 2.00027 12.4353 2.13669 12.4356 2.30469 12.4358 2.47269 12.5722 2.60867 12.7402 2.6084 12.9079 2.60813 13.0437 2.47231 13.044 2.30469 13.0437 2.1365 12.9074 2.00021 12.7393 2Z" fill="#7823DC"/><path d="M4.91309 4.6084C3.64052 4.60813 2.60911 3.57629 2.60937 2.30372 2.60964 1.03115 3.64148-0.000265264 4.91405-1.38916e-07 6.18662 0.000264987 7.21804 1.03211 7.21777 2.30468 7.21604 3.57664 6.18506 4.60719 4.91309 4.60839ZM4.91309 2C4.74509 2.00027 4.60911 2.13668 4.60937 2.30468 4.60964 2.47268 4.74605 2.60866 4.91405 2.6084 5.08168 2.60813 5.2175 2.47232 5.21777 2.30469 5.21756 2.13651 5.08127 2.00022 4.91309 2Z" fill="#7823DC"/><path d="M28.3916 32 14.6953 32C10.9032 31.996 7.83015 28.9229 7.82617 25.1309L7.82617 19.2607C7.82617 18.7085 8.27388 18.2607 8.82617 18.2607 9.37846 18.2607 9.82617 18.7085 9.82617 19.2607L9.82617 25.1309C9.8294 27.8187 12.0075 29.9968 14.6953 30L28.3916 30C29.2802 29.9978 29.9987 29.2757 29.9965 28.3871 29.9943 27.5017 29.277 26.7844 28.3916 26.7822L20.2393 26.7822C18.4265 26.7822 16.957 25.3127 16.957 23.5 16.957 21.6873 18.4265 20.2178 20.2393 20.2178L24.4785 20.2178C25.3667 20.2165 26.0862 19.4966 26.0869 18.6084L26.0869 12.0869C26.0869 11.5346 26.5346 11.0869 27.0869 11.0869 27.6392 11.0869 28.0869 11.5346 28.0869 12.0869L28.0869 18.6084C28.0848 20.6005 26.4707 22.2151 24.4785 22.2178L20.2393 22.2178C19.5311 22.2178 18.957 22.7918 18.957 23.5 18.957 24.2082 19.5311 24.7822 20.2393 24.7822L28.3916 24.7822C30.3847 24.7855 31.9978 26.404 31.9945 28.3971 31.9912 30.3856 30.38 31.9967 28.3916 32Z" fill="#7823DC"/></g></svg>