<svg viewBox="0 0 32 32" xmlns="http://www.w3.org/2000/svg" xmlns:xlink="http://www.w3.org/1999/xlink" id="Layer_1" xml:space="preserve" overflow="hidden"><path d="M30.4 4C29 1.9 27 0.5 24.3 0.1 21.8-0.3 19.5 0.3 17.8 1.8 17.1 2.4 16.4 3.3 16 4.3 15.6 3.3 14.9 2.4 14.2 1.8 12.6 0.3 10.3-0.3 7.7 0.1 5.1 0.5 3 1.8 1.6 3.9-0.2 6.8-0.5 11 0.7 15.2 0.9 15.8 1.1 16.4 1.3 17L3.6 17C3.3 16.2 3 15.5 2.8 14.7 1.7 11 2 7.5 3.4 5.1 4.4 3.4 6 2.5 8.1 2.1 8.5 2 8.9 2 9.3 2 10.8 2 12 2.5 13.1 3.3 14.5 4.5 15.3 5.1 15.3 7.9 15.3 8.5 15.7 8.9 16.3 8.9 16.8 8.9 17.3 8.4 17.3 7.9 17.3 5.1 18 4.6 19.5 3.3 20.7 2.2 22.4 1.8 24.3 2.1 26.4 2.5 28 3.4 29 5.1 30.4 7.4 30.7 11 29.6 14.6 29 16.5 28.2 18.3 27.2 19.8L27.2 23.3C29 21.1 30.6 18.3 31.5 15.2 32.5 11.1 32.2 6.9 30.4 4Z" fill="#7823DC" fill-rule="evenodd" clip-rule="evenodd"/><path d="M14 21.1 10.4 14.4 4.5 14.4 4.5 12.4 11.6 12.4 14 16.9 17.3 11.2 20 14.9 27.3 13.1 27.7 15.1 19.2 17.1 17.5 14.8Z" fill="#7823DC"/><path d="M3 22 3 29 2 29 2 22 3 22M5 20 0 20 0 31 5 31 5 20 5 20Z" fill="#7823DC"/><path d="M6 21 6 30 5 30 5 21 6 21M8 19 3 19 3 32 8 32 8 19 8 19Z" fill="#7823DC"/><path d="M23.3 22.1 23.3 29 22.1 29 22.1 22.1 23.3 22.1M25.3 20 20 20 20 31 25.3 31 25.3 20 25.3 20Z" fill="#7823DC"/><path d="M20.3 21 20.3 30 19 30 19 21 20.3 21M22.3 19 17 19 17 32 22.3 32 22.3 19 22.3 19Z" fill="#7823DC"/><path d="M17 25 17 27 8 27 8 25 17 25M19 23 6 23 6 29 19 29 19 23 19 23Z" fill="#7823DC"/></svg>