<svg viewBox="0 0 31.91 31.92" xmlns="http://www.w3.org/2000/svg" xmlns:xlink="http://www.w3.org/1999/xlink" id="Layer_1" overflow="hidden"><style>
.MsftOfcResponsive_Fill_7823dc {
 fill:#7823DC; 
}
</style>
<defs></defs><path d="M26.05 14.13C25.23 14.13 24.39 14 23.59 13.65L23.59 13.65C20.21 12.16 19.29 7.37 19.26 7.17L19.13 6.47 19.74 6.12C19.92 6.02 24.09 3.66 27.45 5.13 30.83 6.62 31.75 11.41 31.78 11.61L31.91 12.31 31.3 12.66C31.17 12.74 28.7 14.13 26.05 14.13ZM24.4 11.81C26.07 12.55 28.36 11.83 29.64 11.25 29.3 10.06 28.42 7.73 26.64 6.95 24.97 6.21 22.68 6.93 21.4 7.51 21.74 8.7 22.62 11.03 24.4 11.81L24.4 11.81Z" class="MsftOfcResponsive_Fill_7823dc" fill="#7823DC"/><path d="M7.87 20.95 5.87 20.95C5.87 9.4 15.26 0 26.81 0L26.81 2C16.37 2 7.87 10.5 7.87 20.95Z" class="MsftOfcResponsive_Fill_7823dc" fill="#7823DC"/><path d="M21.18 24.94C15.61 19.37 13.39 11.06 15.53 3.77L17.45 4.33C15.52 10.93 17.54 18.46 22.6 23.53L21.19 24.94Z" class="MsftOfcResponsive_Fill_7823dc" fill="#7823DC"/><path d="M6.87 28.99C3.02 28.99 0 25.97 0 22.12 0 18.61 2.63 16.43 6.87 16.43 11.11 16.43 13.74 18.61 13.74 22.12 13.74 25.97 10.72 28.99 6.87 28.99ZM6.87 18.43C5.05 18.43 2 18.91 2 22.12 2 24.85 4.14 26.99 6.87 26.99 9.6 26.99 11.74 24.85 11.74 22.12 11.74 18.91 8.69 18.43 6.87 18.43Z" class="MsftOfcResponsive_Fill_7823dc" fill="#7823DC"/><path d="M22.71 31.92C20.46 31.92 18.25 30.8 16.91 28.74 16.07 27.45 15.78 26.06 16.09 24.71 16.46 23.08 17.7 21.56 19.58 20.41 23.04 18.15 26.4 18.58 28.33 21.54 29.33 23.08 29.66 24.92 29.25 26.72 28.85 28.5 27.78 29.99 26.25 30.92 25.14 31.59 23.92 31.92 22.72 31.92ZM23.82 21C22.54 21 21.3 21.67 20.63 22.11 19.19 22.99 18.28 24.06 18.03 25.16 17.85 25.97 18.03 26.81 18.58 27.65 20.05 29.9 22.95 30.59 25.2 29.22 26.27 28.57 27.01 27.53 27.29 26.28 27.58 25.01 27.35 23.72 26.64 22.64L26.64 22.64C25.84 21.41 24.81 21 23.82 21Z" class="MsftOfcResponsive_Fill_7823dc" fill="#7823DC"/></svg>