<svg viewBox="0 0 32 32" xmlns="http://www.w3.org/2000/svg" xmlns:xlink="http://www.w3.org/1999/xlink" id="Layer_1" overflow="hidden"><style>
.MsftOfcResponsive_Fill_7823dc {
 fill:#7823DC; 
}
</style>
<g><path d="" class="st0 MsftOfcResponsive_Fill_7823dc" fill="#7823DC"/></g><path d="" class="st1 MsftOfcResponsive_Fill_7823dc" stroke="#FF0000" stroke-width="2" stroke-miterlimit="10" fill="#7823DC"/><path d="M17 3.7 18.9 5.6 18.9 2.8 16 0 13.1 2.8 13.1 5.5 15 3.7" class="st2 MsftOfcResponsive_Fill_7823dc" fill="#7823DC" fill-rule="evenodd" clip-rule="evenodd"/><path d="M15 3.4 17 3.4 17 8 15 8 15 3.4Z" class="st2 MsftOfcResponsive_Fill_7823dc" fill="#7823DC" fill-rule="evenodd" clip-rule="evenodd"/><path d="M15 28.3 13.1 26.4 13.1 29.2 16 32 18.9 29.2 18.9 26.5 17 28.3" class="st2 MsftOfcResponsive_Fill_7823dc" fill="#7823DC" fill-rule="evenodd" clip-rule="evenodd"/><path d="M17 28.6 15 28.6 15 24 17 24 17 28.6Z" class="st2 MsftOfcResponsive_Fill_7823dc" fill="#7823DC" fill-rule="evenodd" clip-rule="evenodd"/><path d="M28.3 17 26.4 18.9 29.2 18.9 32 16 29.2 13.1 26.5 13.1 28.3 15" class="st2 MsftOfcResponsive_Fill_7823dc" fill="#7823DC" fill-rule="evenodd" clip-rule="evenodd"/><path d="M28.6 15 28.6 17 22 17 22 15 28.6 15Z" class="st2 MsftOfcResponsive_Fill_7823dc" fill="#7823DC" fill-rule="evenodd" clip-rule="evenodd"/><path d="M3.7 15 5.6 13.1 2.8 13.1 0 16 2.8 18.9 5.5 18.9 3.7 17" class="st2 MsftOfcResponsive_Fill_7823dc" fill="#7823DC" fill-rule="evenodd" clip-rule="evenodd"/><path d="M3.4 17 3.4 15 10 15 10 17 3.4 17Z" class="st2 MsftOfcResponsive_Fill_7823dc" fill="#7823DC" fill-rule="evenodd" clip-rule="evenodd"/><path d="M25.5 8 25.4 10.7 27.3 8.7 27.3 4.7 23.3 4.7 21.4 6.5 24 6.5" class="st2 MsftOfcResponsive_Fill_7823dc" fill="#7823DC" fill-rule="evenodd" clip-rule="evenodd"/><path d="M24.2 6.4 25.6 7.8 21.7 11.7 20.3 10.3 24.2 6.4Z" class="st2 MsftOfcResponsive_Fill_7823dc" fill="#7823DC" fill-rule="evenodd" clip-rule="evenodd"/><path d="M6.5 24 6.6 21.3 4.7 23.3 4.7 27.3 8.7 27.3 10.6 25.5 8 25.5" class="st2 MsftOfcResponsive_Fill_7823dc" fill="#7823DC" fill-rule="evenodd" clip-rule="evenodd"/><path d="M7.8 25.6 6.4 24.2 10.3 20.3 11.7 21.7 7.8 25.6Z" class="st2 MsftOfcResponsive_Fill_7823dc" fill="#7823DC" fill-rule="evenodd" clip-rule="evenodd"/><path d="M6.5 8 6.6 10.7 4.7 8.7 4.7 4.7 8.7 4.7 10.6 6.5 8 6.5" class="st2 MsftOfcResponsive_Fill_7823dc" fill="#7823DC" fill-rule="evenodd" clip-rule="evenodd"/><path d="M7.8 6.4 6.4 7.8 10.3 11.7 11.7 10.3 7.8 6.4Z" class="st2 MsftOfcResponsive_Fill_7823dc" fill="#7823DC" fill-rule="evenodd" clip-rule="evenodd"/><path d="M25.5 24 25.4 21.3 27.3 23.3 27.3 27.3 23.3 27.3 21.4 25.5 24 25.5" class="st2 MsftOfcResponsive_Fill_7823dc" fill="#7823DC" fill-rule="evenodd" clip-rule="evenodd"/><path d="M24.2 25.6 25.6 24.2 21.7 20.3 20.3 21.7 24.2 25.6Z" class="st2 MsftOfcResponsive_Fill_7823dc" fill="#7823DC" fill-rule="evenodd" clip-rule="evenodd"/><path d="M18.1 24.9 13.7 24.9 12.7 21.8C12.6 21.7 12.5 21.7 12.4 21.6L9.2 22.2 7.1 18.6 9.3 16.2C9.3 16.1 9.3 16.1 9.3 16 9.3 15.9 9.3 15.9 9.3 15.8L7.1 13.4 9.3 9.7 12.5 10.4C12.6 10.3 12.7 10.3 12.8 10.2L13.8 7.1 18.2 7.1 19.2 10.2C19.3 10.3 19.4 10.3 19.5 10.4L22.7 9.8 24.9 13.5 22.7 15.9C22.7 16 22.7 16 22.7 16.1L22.7 16.1C22.7 16.2 22.7 16.2 22.7 16.3L24.8 18.7 22.6 22.4 19.4 21.7C19.3 21.8 19.2 21.8 19.1 21.9L18.1 24.9 18.1 24.9 18.1 24.9 18.1 24.9 18.1 24.9ZM15.1 23 16.7 23 17.6 20.5 18 20.3C18.3 20.2 18.5 20 18.7 19.9L19 19.7 21.6 20.2 22.4 18.8 20.6 16.8 20.6 16.4C20.6 16.3 20.6 16.1 20.6 16 20.6 15.9 20.6 15.7 20.6 15.6L20.6 15.2 22.4 13.2 21.5 12 19 12.4 18.7 12.2C18.5 12 18.2 11.9 18 11.8L17.6 11.6 16.8 9.1 15.2 9.1 14.3 11.6 14 11.8C13.7 11.9 13.5 12.1 13.3 12.2L13 12.4 10.4 11.9 9.4 13.3 11.2 15.3 11.2 15.7C11.2 15.8 11.2 16 11.2 16.1 11.2 16.2 11.2 16.4 11.2 16.5L11.2 16.9 9.4 18.9 10.2 20.3 12.8 19.8 13.1 20C13.3 20.2 13.6 20.3 13.8 20.4L14.2 20.6 15.1 23 15.1 23 15.1 23 15.1 23 15.1 23Z" class="st3 MsftOfcResponsive_Fill_7823dc" fill="#7823DC" fill-rule="evenodd" clip-rule="evenodd"/><path d="M16 19.2C14.2 19.2 12.8 17.8 12.8 16.1 12.8 15.2 13.1 14.4 13.7 13.8 14.3 13.2 15.1 12.8 16 12.8 16.9 12.8 17.7 13.1 18.3 13.7 18.9 14.3 19.3 15.1 19.3 16L19.3 16C19.2 17.6 17.8 19.1 16 19.2L16 19.2 16 19.2ZM16 14.8 16 14.8C15.6 14.8 15.3 14.9 15.1 15.2 14.9 15.4 14.7 15.8 14.8 16.1 14.8 16.8 15.4 17.3 16.1 17.3 16.8 17.3 17.3 16.7 17.3 16L17.3 16C17.3 15.7 17.2 15.4 16.9 15.1 16.5 14.9 16.2 14.8 16 14.8L16 14.8Z" class="st3 MsftOfcResponsive_Fill_7823dc" fill="#7823DC" fill-rule="evenodd" clip-rule="evenodd"/></svg>