<svg viewBox="0 0 31.86 32.05" xmlns="http://www.w3.org/2000/svg" xmlns:xlink="http://www.w3.org/1999/xlink" id="Layer_1" overflow="hidden"><style>
.MsftOfcThm_Text2_Fill_v2 {
 fill:#7823DC; 
}
</style>
<defs></defs><path d="M24.21 32.02 23.95 31.07C23.73 30.28 23.28 29.73 22.84 29.73 22.49 29.73 21.97 30.24 21.72 31.1L21.45 32.01 20.52 31.78C18.99 31.4 17.67 30.63 16.47 29.44L15.81 28.78 16.43 28.08C16.97 27.46 17.22 26.72 17.01 26.35 16.71 25.81 15.61 25.97 15.28 26.03L14.28 26.21 14.11 25.21C13.99 24.49 13.87 23.74 13.87 22.97 13.87 22.03 14.06 21.21 14.44 20.44L14.78 19.76 15.53 19.91C16.32 20.07 17.04 19.93 17.24 19.59 17.45 19.22 17.2 18.47 16.66 17.86L16.08 17.2 16.67 16.54C17.69 15.39 19.1 14.57 20.76 14.15L21.71 13.91 21.97 14.85C22.19 15.64 22.64 16.19 23.08 16.19 23.43 16.19 23.95 15.68 24.2 14.82L24.47 13.91 25.4 14.14C26.93 14.52 28.25 15.29 29.45 16.48L30.11 17.14 29.49 17.84C28.95 18.46 28.7 19.2 28.91 19.58 29.22 20.11 30.31 19.96 30.64 19.9L31.64 19.72 31.81 20.72C31.91 21.29 31.88 21.84 31.85 22.33 31.84 22.54 31.83 22.75 31.83 22.97 31.83 23.7 31.83 24.52 31.55 25.37L31.27 26.21 30.4 26.04C29.61 25.88 28.89 26.02 28.69 26.36 28.48 26.73 28.73 27.48 29.27 28.09L29.85 28.75 29.27 29.41C28.25 30.56 26.84 31.38 25.18 31.8L24.23 32.04ZM18.51 28.59C19.04 29.02 19.59 29.34 20.19 29.58 20.8 28.44 21.79 27.73 22.84 27.73 23.89 27.73 24.92 28.43 25.51 29.58 26.14 29.34 26.7 29.01 27.18 28.62 26.51 27.5 26.41 26.28 26.94 25.35 27.45 24.45 28.48 23.95 29.73 23.95L29.78 23.95C29.81 23.63 29.81 23.3 29.81 22.96 29.81 22.71 29.82 22.46 29.84 22.21 29.84 22.13 29.84 22.04 29.85 21.96 28.62 21.94 27.68 21.45 27.17 20.57 26.64 19.65 26.75 18.44 27.4 17.33 26.87 16.9 26.32 16.58 25.72 16.34 25.11 17.48 24.12 18.19 23.07 18.19 22.02 18.19 20.99 17.49 20.4 16.34 19.77 16.58 19.21 16.91 18.73 17.3 19.4 18.42 19.5 19.64 18.97 20.57 18.43 21.52 17.32 22 15.98 21.97 15.9 22.27 15.86 22.6 15.86 22.97 15.86 23.3 15.89 23.63 15.93 23.97L15.95 23.97C17.22 23.97 18.21 24.46 18.73 25.37 19.26 26.29 19.16 27.49 18.5 28.61Z" class="MsftOfcThm_Text2_Fill_v2" stroke-width="0" fill="#7823DC"/><path d="M22.95 26.27C21.12 26.27 19.64 24.78 19.64 22.96 19.64 21.14 21.13 19.65 22.95 19.65 24.77 19.65 26.26 21.14 26.26 22.96 26.26 24.78 24.77 26.27 22.95 26.27ZM22.95 21.65C22.23 21.65 21.64 22.24 21.64 22.96 21.64 23.68 22.23 24.27 22.95 24.27 23.67 24.27 24.26 23.68 24.26 22.96 24.26 22.24 23.67 21.65 22.95 21.65Z" class="MsftOfcThm_Text2_Fill_v2" stroke-width="0" fill="#7823DC"/><rect x="3" y="10.41" width="19.08" height="2" class="MsftOfcThm_Text2_Fill_v2" stroke-width="0" fill="#7823DC"/><path d="M16.4 7.17 14.48 6.62 15.63 2.59C13.67 1.81 11.43 1.81 9.47 2.59L10.62 6.62 8.7 7.17 7.09 1.53 7.81 1.15C10.77-0.4 14.32-0.4 17.28 1.15L18 1.53 16.39 7.17Z" class="MsftOfcThm_Text2_Fill_v2" stroke-width="0" fill="#7823DC"/><path d="M21.41 11.41 19.41 11.41 19.41 10.02C19.41 7.54 18.17 5.31 16.08 4.06L17.11 2.35C19.8 3.97 21.41 6.83 21.41 10.02L21.41 11.41Z" class="MsftOfcThm_Text2_Fill_v2" stroke-width="0" fill="#7823DC"/><path d="M5.7 11.41 3.7 11.41 3.7 10.02C3.7 6.83 5.31 3.96 8 2.35L9.03 4.06C6.95 5.31 5.7 7.54 5.7 10.02L5.7 11.41Z" class="MsftOfcThm_Text2_Fill_v2" stroke-width="0" fill="#7823DC"/><rect x="0" y="30.05" width="12.55" height="2" class="MsftOfcThm_Text2_Fill_v2" stroke-width="0" fill="#7823DC"/><path d="M1.96 30.46 0 30.05C0.67 26.86 2.85 24.39 5.7 23.61 7.3 23.19 8.45 21.74 8.63 20 6.83 18.62 5.77 16.32 5.77 13.72L5.77 11.41 7.77 11.41 7.77 13.72C7.77 15.86 8.67 17.7 10.19 18.65L10.66 18.94 10.66 19.49C10.66 22.36 8.83 24.85 6.22 25.54 4.11 26.12 2.47 28 1.96 30.46Z" class="MsftOfcThm_Text2_Fill_v2" stroke-width="0" fill="#7823DC"/></svg>