<svg viewBox="0 0 32 32" xmlns="http://www.w3.org/2000/svg" xmlns:xlink="http://www.w3.org/1999/xlink" id="Graphic" xml:space="preserve" overflow="hidden"><g><g><path d="M29.8 15.9C30 15.9 30.3 16.1 30.3 16.4L30.3 26.1 1.8 26.1 1.8 25.5C1.8 25.5 1.8 23.3 3 22.6 4.1 22.3 10.5 20.3 14.6 17.9 14.7 17.8 15.1 17.7 15.9 17.7 17.2 17.7 19 18.1 20.6 18.5 22.3 18.9 24 19.3 25.4 19.3 28.1 19.3 28.9 17.8 29.1 16.9 29.3 16.2 29.6 15.9 29.8 15.9M29.8 14.2C28.9 14.2 27.9 14.8 27.5 16.5 27.3 17.3 26.5 17.6 25.5 17.6 23 17.6 18.9 16 16 16 15.2 16 14.4 16.1 13.9 16.5 9.5 18.9 2.4 21 2.4 21 0 22.1 0.1 25.6 0.1 25.6L0.1 27.9 32.1 27.9C32.1 27.9 32.1 17.4 32.1 16.5 32 15.2 30.9 14.2 29.8 14.2L29.8 14.2Z" fill="#7823DC"/></g><g><path d="M1.8 27.5 30.3 27.5 30.3 30.3 1.8 30.3 1.8 27.5M0.1 25.8 0.1 32.1 32.1 32.1 32.1 25.8 0.1 25.8 0.1 25.8Z" fill="#7823DC"/></g><g><path d="M15.2 21.1 12.2 18.1 11 19.4 13.9 22.3Z" fill="#7823DC"/><path d="M12 22.5 9 19.6 7.8 20.9 10.7 23.8Z" fill="#7823DC"/></g><line x1="2.3" y1="25.2" x2="31.7" y2="25.2" fill="none"/><path d="M18.7 25.9C24.6 23.3 25 18.3 25 18.3L27.5 18.8C27.5 18.8 26.6 23.5 21.4 26.8L18.7 25.9Z" fill="#7823DC"/></g></svg>