<svg viewBox="0 0 32 32" xmlns="http://www.w3.org/2000/svg" xmlns:xlink="http://www.w3.org/1999/xlink" id="Layer_1" overflow="hidden"><style>
.MsftOfcResponsive_Fill_7823dc {
 fill:#7823DC; 
}
</style>
<path d="M8.4 16.1 14.8 22 14.8 30 2 30 2 22 8.4 16.1M8.4 13.3 0 21.1 0 32 16.9 32 16.9 21.1 8.4 13.3 8.4 13.3Z" class="MsftOfcResponsive_Fill_7823dc" fill="#7823DC"/><rect x="16" y="21" width="16" height="2" class="MsftOfcResponsive_Fill_7823dc" fill="#7823DC"/><rect x="16" y="30.1" width="16" height="2" class="MsftOfcResponsive_Fill_7823dc" fill="#7823DC"/><rect x="30" y="22.2" width="2" height="8.9" class="MsftOfcResponsive_Fill_7823dc" fill="#7823DC"/><path d="M30.4 21.8 22.4 14.1 24.1 13.4 32 21Z" class="MsftOfcResponsive_Fill_7823dc" fill="#7823DC"/><rect x="8.4" y="13.4" width="15.7" height="2" class="MsftOfcResponsive_Fill_7823dc" fill="#7823DC"/><path d="M25.9 22.4 17.7 14.8 19.1 13.3 27.3 21Z" class="MsftOfcResponsive_Fill_7823dc" fill="#7823DC"/><path d="M20.9 22.4 12.7 14.8 14.1 13.3 22.3 21Z" class="MsftOfcResponsive_Fill_7823dc" fill="#7823DC"/><rect x="12.4" y="17.1" width="15.2" height="2" class="MsftOfcResponsive_Fill_7823dc" fill="#7823DC"/><path d="M23 13.6 23 13.6" class="st0 MsftOfcResponsive_Fill_7823dc" fill="#7823DC"/><g><path d="M25.7 5.4C26.2 5.4 26.6 5.8 26.6 6.3 26.6 6.8 26.2 7.2 25.7 7.2 25.2 7.2 24.8 6.8 24.8 6.3 24.8 5.8 25.2 5.4 25.7 5.4M25.7 3.4C24.1 3.4 22.8 4.7 22.8 6.3 22.8 7.9 24.1 9.2 25.7 9.2 27.3 9.2 28.6 7.9 28.6 6.3 28.6 4.7 27.3 3.4 25.7 3.4L25.7 3.4Z" class="st0 MsftOfcResponsive_Fill_7823dc" fill="#7823DC"/><g><rect x="24.7" y="10.4" width="2" height="2.2" class="st0 MsftOfcResponsive_Fill_7823dc" fill="#7823DC"/><rect x="24.7" y="0" width="2" height="2.2" class="st0 MsftOfcResponsive_Fill_7823dc" fill="#7823DC"/></g><g><rect x="21" y="9.1" width="2.2" height="2" class="st0 MsftOfcResponsive_Fill_7823dc" fill="#7823DC" transform="matrix(0.6901 -0.7238 0.7238 0.6901 -0.4371 19.121)"/><rect x="28.2" y="1.5" width="2.2" height="2" class="st0 MsftOfcResponsive_Fill_7823dc" fill="#7823DC" transform="matrix(0.6901 -0.7238 0.7238 0.6901 7.2509 21.9855)"/></g><g><rect x="28.3" y="9" width="2" height="2.2" class="st0 MsftOfcResponsive_Fill_7823dc" fill="#7823DC" transform="matrix(0.7239 -0.6899 0.6899 0.7239 1.1396 22.9894)"/><rect x="21.1" y="1.4" width="2" height="2.2" class="st0 MsftOfcResponsive_Fill_7823dc" fill="#7823DC" transform="matrix(0.7239 -0.6899 0.6899 0.7239 4.3594 15.9478)"/></g><g><rect x="19.4" y="5.3" width="2.2" height="2" class="st0 MsftOfcResponsive_Fill_7823dc" fill="#7823DC"/><rect x="29.8" y="5.3" width="2.2" height="2" class="st0 MsftOfcResponsive_Fill_7823dc" fill="#7823DC"/></g></g><g><path d="M6.3 23.1 10.6 23.1 10.6 25.2 6.3 25.2 6.3 23.1Z" class="st1 MsftOfcResponsive_Fill_7823dc" fill="#7823DC" fill-rule="evenodd" clip-rule="evenodd"/><path d="M6.3 29.4 10.6 25.2 9.1 23.7 6.3 26.5 6.3 29.4 6.3 29.4Z" class="st1 MsftOfcResponsive_Fill_7823dc" fill="#7823DC" fill-rule="evenodd" clip-rule="evenodd"/><path d="M10.6 18.9 6.3 23.1 7.8 24.6 10.6 21.8 10.6 18.9 10.6 18.9Z" class="st1 MsftOfcResponsive_Fill_7823dc" fill="#7823DC" fill-rule="evenodd" clip-rule="evenodd"/></g></svg>