<svg viewBox="0 0 32 32" xmlns="http://www.w3.org/2000/svg" xmlns:xlink="http://www.w3.org/1999/xlink" id="Layer_5" overflow="hidden"><defs></defs><path d="M29.02 24.39 30 24.57C30.02 24.48 30.4 22.32 29.03 20.45 28.04 19.1 26.44 18.27 24.27 18L7.85 18C7.85 18 7.73 18 7.73 18 5.56 18.27 3.96 19.1 2.97 20.45 1.6 22.32 1.98 24.48 2 24.57L3.97 24.21C3.97 24.21 3.74 22.79 4.59 21.63 5.21 20.78 6.29 20.25 7.77 20.02 7.91 21.12 8.17 22.12 8.56 23.01 7.66 23.05 6.89 23.41 6.34 24.08 5.15 25.54 5.26 28.13 5.54 29.95L3.02 29.95 3.02 31.95 6.37 31.95C6.75 31.95 7.12 31.78 7.36 31.48 7.61 31.18 7.71 30.78 7.63 30.39 7.17 28.07 7.26 26.09 7.87 25.34 8 25.18 8.21 25 8.67 24.99L9.74 24.99C11.2 26.76 13.36 27.76 16.05 27.76 18.74 27.76 20.84 26.76 22.31 24.99L23.39 24.99C23.87 24.99 24.08 25.19 24.22 25.35 25.02 26.38 24.74 29.18 24.38 30.71L24.08 31.94 29.06 31.94 29.06 29.94 26.55 29.94C26.79 28.34 26.97 25.63 25.79 24.12 25.24 23.42 24.47 23.05 23.54 23.01 23.93 22.12 24.21 21.13 24.35 20.04 25.75 20.27 26.78 20.79 27.38 21.6 28.24 22.76 28.01 24.19 28.01 24.2L28.99 24.37ZM16.07 25.77C11.52 25.77 10.17 22.39 9.79 19.99L22.35 19.99C21.85 23.03 20.02 25.77 16.07 25.77Z" fill="#7823DC"/><path d="M6.33 14.92C6.9 15.62 7.72 16 8.68 16L23.41 16C24.4 16 25.22 15.6 25.8 14.87 26.99 13.35 26.81 10.64 26.56 9.05L29.07 9.05 29.07 7.05 24.09 7.05C24.09 7.05 24.38 8.28 24.38 8.28 24.75 9.81 25.03 12.61 24.22 13.64 24.22 13.64 24.22 13.64 24.22 13.64 23.73 11.8 22.6 10.22 21.06 9.12 20.84 7.42 20.08 5.94 19.02 4.97 19.16 4.48 19.48 3.73 20.19 3.2 21.04 2.56 22.28 2.4 23.85 2.71L24.24 0.75C22.08 0.32 20.32 0.61 18.99 1.59 18.05 2.29 17.54 3.2 17.25 3.94 16.86 3.82 16.46 3.75 16.05 3.75 15.64 3.75 15.24 3.82 14.85 3.94 14.57 3.2 14.05 2.29 13.11 1.59 11.78 0.6 10.02 0.32 7.86 0.75L8.25 2.71C9.82 2.4 11.04 2.56 11.9 3.19 12.61 3.71 12.94 4.48 13.09 4.97 12.02 5.94 11.27 7.42 11.05 9.12 9.5 10.23 8.37 11.82 7.88 13.68 7.88 13.68 7.86 13.66 7.86 13.66 7.25 12.91 7.16 10.93 7.62 8.61 7.7 8.22 7.6 7.82 7.35 7.52 7.1 7.22 6.74 7.05 6.36 7.05L3.02 7.05 3.02 9.05 5.53 9.05C5.25 10.87 5.14 13.46 6.33 14.92ZM16.07 5.76C17.17 5.76 18.15 6.64 18.69 7.93 17.86 7.67 16.98 7.52 16.07 7.52 15.16 7.52 14.27 7.67 13.45 7.93 14 6.65 14.97 5.76 16.07 5.76ZM16.07 9.52C19.02 9.52 21.5 11.42 22.26 14L9.88 14C10.64 11.42 13.12 9.52 16.07 9.52Z" fill="#7823DC"/></svg>