<svg viewBox="0 0 32.01 31.98" xmlns="http://www.w3.org/2000/svg" xmlns:xlink="http://www.w3.org/1999/xlink" id="Layer_1" overflow="hidden"><style>
.MsftOfcResponsive_Fill_7823dc {
 fill:#7823DC; 
}
</style>
<defs></defs><path d="M28.35 7.17 26.35 7.17C26.35 4.45 27.97 1.9 30.92 0L32 1.68C29.64 3.2 28.34 5.15 28.34 7.17Z" class="MsftOfcResponsive_Fill_7823dc" fill="#7823DC"/><path d="M15.21 31.98C14.86 31.98 14.52 31.79 14.34 31.47 14.1 31.05 14.2 30.51 14.58 30.2 18.99 26.6 21.62 20.99 21.62 15.19L21.62 11.91C21.62 8.9 23.87 6.54 26.75 6.54 29.63 6.54 32 8.95 32 11.91 32 21.01 23.53 29.01 15.55 31.92 15.44 31.96 15.32 31.98 15.21 31.98ZM26.75 8.54C25 8.54 23.62 10.02 23.62 11.91L23.62 15.19C23.62 19.67 22.2 24.05 19.67 27.64 25.29 24.04 30 18.09 30 11.91 30 10.05 28.54 8.54 26.75 8.54Z" class="MsftOfcResponsive_Fill_7823dc" fill="#7823DC"/><path d="M30.75 14.12C30.65 14.12 30.54 14.1 30.44 14.07 28.02 13.29 25.46 13.29 23.04 14.07 22.51 14.24 21.95 13.95 21.78 13.43 21.61 12.91 21.9 12.34 22.42 12.17 25.24 11.26 28.23 11.26 31.05 12.17 31.58 12.34 31.86 12.9 31.69 13.43 31.55 13.85 31.16 14.12 30.74 14.12Z" class="MsftOfcResponsive_Fill_7823dc" fill="#7823DC"/><path d="M14.15 7.17 12.15 7.17C12.15 4.45 13.77 1.9 16.72 0L17.8 1.68C15.44 3.2 14.14 5.15 14.14 7.17Z" class="MsftOfcResponsive_Fill_7823dc" fill="#7823DC"/><path d="M1 31.98C0.65 31.98 0.31 31.79 0.13 31.47-0.11 31.05-0.01 30.51 0.37 30.2 4.78 26.6 7.41 20.99 7.41 15.19L7.41 11.91C7.41 8.9 9.66 6.54 12.54 6.54 15.42 6.54 17.79 8.95 17.79 11.91 17.79 21.01 9.32 29.01 1.34 31.92 1.23 31.96 1.11 31.98 1 31.98ZM12.54 8.54C10.79 8.54 9.41 10.02 9.41 11.91L9.41 15.19C9.41 19.67 7.98 24.05 5.46 27.64 11.08 24.04 15.79 18.09 15.79 11.91 15.79 10.05 14.33 8.54 12.54 8.54Z" class="MsftOfcResponsive_Fill_7823dc" fill="#7823DC"/><path d="M16.55 14.12C16.45 14.12 16.34 14.1 16.24 14.07 13.82 13.29 11.26 13.29 8.84 14.07 8.31 14.24 7.75 13.95 7.58 13.43 7.41 12.9 7.7 12.34 8.22 12.17 11.04 11.26 14.03 11.26 16.85 12.17 17.38 12.34 17.66 12.9 17.49 13.43 17.35 13.85 16.96 14.12 16.54 14.12Z" class="MsftOfcResponsive_Fill_7823dc" fill="#7823DC"/></svg>