<svg viewBox="0 0 32 32" xmlns="http://www.w3.org/2000/svg" xmlns:xlink="http://www.w3.org/1999/xlink" id="Layer_1" overflow="hidden"><g><path d="M7.6 20.4 9.3 21.1 12.9 8.9 10.3 32 12.1 32 15 6.7 11.7 6.7 7.6 20.4Z" fill="#7823DC" fill-rule="evenodd" clip-rule="evenodd"/><path d="M24.4 20.4 20.3 6.7 17 6.7 19.9 32 21.7 32 19.1 8.9 22.7 21.1 24.4 20.4Z" fill="#7823DC" fill-rule="evenodd" clip-rule="evenodd"/><path d="M16.2 0C14.6 0 13.4 1.3 13.4 3 13.4 4.5 14.8 6 16.2 6 17.8 6 19 4.7 19 3 19 1.3 17.7 0 16.2 0L16.2 0ZM16.9 3.6C16.6 3.9 16 4 15.5 3.6 15.3 3.4 15.3 3.2 15.3 2.9 15.3 2.7 15.4 2.5 15.5 2.2 15.8 1.9 16.4 1.8 16.9 2.2 17.2 2.5 17.3 3.2 16.9 3.6L16.9 3.6Z" fill="#7823DC" fill-rule="evenodd" clip-rule="evenodd"/></g></svg>