<svg viewBox="0 0 32 32" xmlns="http://www.w3.org/2000/svg" xmlns:xlink="http://www.w3.org/1999/xlink" id="Layer_2_1_" xml:space="preserve" overflow="hidden"><g><g><defs><path d="M-1 32 32 32 32 5.2-1 5.2-1 32Z" id="SVGID_1_" fill="#7823DC"/></defs><defs><path d="M-1 5.2 32 5.2 32 32-1 32-1 5.2Z" id="SVGID_00000124846899274580586960000003364148943141767833_" fill="#7823DC"/></defs><clipPath id="SVGID_00000004533758318221591470000013383222358213185166_"><use width="100%" height="100%" xlink:href="#SVGID_1_" overflow="visible"></use></clipPath><clipPath id="SVGID_00000110436601566297351870000001121047405109963710_" clip-path="url(#SVGID_00000004533758318221591470000013383222358213185166_)"><use width="100%" height="100%" xlink:href="#SVGID_00000124846899274580586960000003364148943141767833_" overflow="visible"></use></clipPath><g clip-path="url(#SVGID_00000110436601566297351870000001121047405109963710_)"><defs><path d="M-1 32 32 32 32 5.2-1 5.2-1 32Z" id="SVGID_00000047758248784381718260000002261122996827714690_" fill="#7823DC"/></defs><clipPath id="SVGID_00000113350792631746990920000015935094633445909412_"><use width="100%" height="100%" xlink:href="#SVGID_00000047758248784381718260000002261122996827714690_" overflow="visible"></use></clipPath><path d="M8.5 28.3C6.6 28.3 5 26.7 5 24.8 5 22.9 6.6 21.3 8.5 21.3 10.4 21.3 12 22.9 12 24.8 12 26.7 10.4 28.3 8.5 28.3L8.5 28.3ZM8.5 23.3C7.6 23.3 7 24 7 24.8 7 25.6 7.7 26.3 8.5 26.3 9.3 26.3 10 25.6 10 24.8 9.9 24 9.3 23.3 8.5 23.3L8.5 23.3Z" fill="#7823DC" clip-path="url(#SVGID_00000113350792631746990920000015935094633445909412_)"/><path d="M31.9 32 22 32 22 30 29.9 30 29.9 18.5 31.9 18.5 31.9 32 31.9 32Z" fill="#7823DC" clip-path="url(#SVGID_00000113350792631746990920000015935094633445909412_)"/><path d="M16 32 0 32 0 18.5 2 18.5 2 30 16 30 16 32 16 32Z" fill="#7823DC" clip-path="url(#SVGID_00000113350792631746990920000015935094633445909412_)"/><path d="M18.4 19.5 1 19.5C0.6 19.5 0.2 19.2 0 18.8-0.1 18.4 0 17.9 0.4 17.7L17.9 6.3C18.1 6.2 18.2 6.1 18.4 6.1 25.8 6.1 31.8 11.7 31.8 18.5L29.8 18.5C29.8 12.9 24.8 8.2 18.6 8.1L4.3 17.6 18.4 17.6 18.4 19.5 18.4 19.5 18.4 19.5Z" fill="#7823DC" clip-path="url(#SVGID_00000113350792631746990920000015935094633445909412_)"/><path d="M22.1 23.3C19.5 23.3 17.4 21.2 17.4 18.6 17.4 16 19.5 13.9 22.1 13.9 24.7 13.9 26.8 16 26.8 18.6 26.8 21.2 24.8 23.3 22.1 23.3L22.1 23.3ZM22.1 15.8C20.6 15.8 19.4 17 19.4 18.5 19.4 20 20.6 21.2 22.1 21.2 23.6 21.2 24.8 20 24.8 18.5 24.9 17 23.7 15.8 22.1 15.8L22.1 15.8Z" fill="#7823DC" clip-path="url(#SVGID_00000113350792631746990920000015935094633445909412_)"/><path d="M23.5 32 21.5 32C21.5 30.7 20.5 29.7 19.2 29.7 17.9 29.7 16.9 30.7 16.9 32L14.9 32C14.9 29.6 16.8 27.7 19.2 27.7 21.6 27.7 23.5 29.6 23.5 32L23.5 32Z" fill="#7823DC" clip-path="url(#SVGID_00000113350792631746990920000015935094633445909412_)"/></g></g></g></svg>