<svg viewBox="0 0 32 32" xmlns="http://www.w3.org/2000/svg" xmlns:xlink="http://www.w3.org/1999/xlink" id="Layer_1" overflow="hidden"><style>
.MsftOfcResponsive_Fill_7823dc {
 fill:#7823DC; 
}
</style>
<defs></defs><path d="M14 0 0 0 0 24 14 24 14 0ZM12 2 12 3 2 3 2 2 12 2ZM2 22 2 21 12 21 12 22 2 22ZM12 19 2 19 2 13 3.53 13 3.53 16 5.53 16 5.53 13 8 13 8 11 5.53 11 5.53 8 3.53 8 3.53 11 2 11 2 5 12 5 12 19Z" class="MsftOfcResponsive_Fill_7823dc" fill="#7823DC"/><path d="M32 11 32 11 32 8 18 8 18 32 32 32 32 13 32 13 32 11ZM30 10 30 11 20 11 20 10 30 10ZM20 30 20 29 30 29 30 30 20 30ZM30 19.52 24 19.52 24 21.52 30 21.52 30 27 20 27 20 13 30 13 30 19.52Z" class="MsftOfcResponsive_Fill_7823dc" fill="#7823DC"/></svg>