<svg width="36.5" height="36.6" viewBox="0 0 36.5 36.6" xmlns="http://www.w3.org/2000/svg" xmlns:xlink="http://www.w3.org/1999/xlink" overflow="hidden"><defs></defs><g><g><defs><path d="M0 36.5 36.5 36.5 36.5 0 0 0 0 36.5Z" id="SVGID_1_" fill="#7823DC"/></defs><clipPath id="SVGID_2_"><use width="100%" height="100%" xlink:href="#SVGID_1_"></use></clipPath><g clip-path="url(#SVGID_2_)"><g><defs><path d="M0 36.6 36.5 36.6 36.5 0 0 0 0 36.6Z" id="SVGID_3_" fill="#7823DC"/></defs><clipPath id="SVGID_4_"><use width="100%" height="100%" xlink:href="#SVGID_3_"></use></clipPath><g clip-path="url(#SVGID_4_)"><defs><path d="M0 36.6 36.5 36.6 36.5 0 0 0 0 36.6Z" id="SVGID_5_" fill="#7823DC"/></defs><clipPath id="SVGID_6_"><use width="100%" height="100%" xlink:href="#SVGID_5_"></use></clipPath><path d="M17.2 23.4 16 20.3 12.1 19 12.3 16.8 14.5 16.5 16.9 16.1 16.8 14.8 9.1 15.9 8.7 13.7 17.7 12.4 19 13.4 19.3 17 18.3 18.2 17.3 18.4 18 19 19.3 22.6Z" fill="#7823DC" clip-path="url(#SVGID_6_)"/><path d="M17.2 14.8 23.8 14.8 23.8 17.1 17.2 17.1 17.2 14.8Z" fill="#7823DC" clip-path="url(#SVGID_6_)"/><path d="M13.8 5.1 22.3 5.1 22.3 7.3 13.8 7.3 13.8 5.1Z" fill="#7823DC" clip-path="url(#SVGID_6_)"/><path d="M7.8 8.5 13.8 5 14.9 7 8.9 10.5 7.8 8.5Z" fill="#7823DC" clip-path="url(#SVGID_6_)"/><path d="M22.3 5 28.3 8.5 27.2 10.5 21.2 7 22.3 5Z" fill="#7823DC" clip-path="url(#SVGID_6_)"/><path d="M28.3 14.4 23.6 17.1 22.4 15.1 27.1 12.4 28.3 14.4Z" fill="#7823DC" clip-path="url(#SVGID_6_)"/><path d="M19.2 7.3 19.2 15 16.9 15 16.9 7.3 19.2 7.3Z" fill="#7823DC" clip-path="url(#SVGID_6_)"/><path d="M23.7 7.3 23.7 15.7 21.5 15.7 21.5 7.3 23.7 7.3Z" fill="#7823DC" clip-path="url(#SVGID_6_)"/><path d="M12.3 15.3 12.3 7.3 14.6 7.3 14.6 14.7 12.3 15.3 12.3 15.3Z" fill="#7823DC" clip-path="url(#SVGID_6_)"/><path d="M10.1 8.5 10.1 15.9 7.8 15.9 7.8 8.5 10.1 8.5Z" fill="#7823DC" clip-path="url(#SVGID_6_)"/><path d="M28.3 8.5 28.3 15.9 26 15.9 26 8.5 28.3 8.5Z" fill="#7823DC" clip-path="url(#SVGID_6_)"/><path d="M16.3 25.6 10 22 10 13.6 7.8 13.6 7.8 23.3 7.9 23.3 15.2 27.5 16.3 25.6 16.3 25.6Z" fill="#7823DC" clip-path="url(#SVGID_6_)"/><path d="M23.7 23.6 26 22.2 26 13.9 28.3 13.9 28.3 23.6 28.2 23.6 24.9 25.5 23.7 23.6 23.7 23.6Z" fill="#7823DC" clip-path="url(#SVGID_6_)"/><path d="M14.6 35.4 12.3 35.4 12.3 24 13 24 14.6 25.5 14.6 35.4 14.6 35.4Z" fill="#7823DC" clip-path="url(#SVGID_6_)"/><path d="M23.7 23.6 26 23.6 26 35.4 23.7 35.4 23.7 23.6Z" fill="#7823DC" clip-path="url(#SVGID_6_)"/><path d="M0 12.6 4.6 12.6 4.6 14.9 0 14.9 0 12.6Z" fill="#7823DC" clip-path="url(#SVGID_6_)"/><path d="M31.9 12.6 36.5 12.6 36.5 14.8 31.9 14.8 31.9 12.6Z" fill="#7823DC" clip-path="url(#SVGID_6_)"/><path d="M4 2.8 5.6 1.2 8.5 4.2 7 5.8 4 2.8Z" fill="#7823DC" clip-path="url(#SVGID_6_)"/><path d="M27.9 25.6 29.5 24 32.6 27.1 30.9 28.7 27.9 25.6Z" fill="#7823DC" clip-path="url(#SVGID_6_)"/><path d="M27.8 4.5 31 1.2 32.6 2.8 29.4 6.1 27.8 4.5Z" fill="#7823DC" clip-path="url(#SVGID_6_)"/><path d="M3.9 27.1 7 24 8.6 25.6 5.5 28.7 3.9 27.1Z" fill="#7823DC" clip-path="url(#SVGID_6_)"/></g></g></g></g></g></svg>