<svg viewBox="0 0 32 32" xmlns="http://www.w3.org/2000/svg" xmlns:xlink="http://www.w3.org/1999/xlink" xml:space="preserve" overflow="hidden"><style>
.MsftOfcResponsive_Fill_7823dc {
 fill:#7823DC; 
}
</style>
<g id="Layer_3"></g><g id="Layer_1"><g><path d="M8.6 32.07 0.2 27.22 0.2 17.52 8.6 12.67 17 17.52 17 27.22 8.6 32.07ZM2.19 26.07 8.59 29.77 14.99 26.07 14.99 18.68 8.59 14.98 2.19 18.68 2.19 26.07Z" class="st1 MsftOfcResponsive_Fill_7823dc" fill="#7823DC"/><path d="M23.4 32.07 15 27.22 15 17.52 23.4 12.67 31.8 17.52 31.8 27.22 23.4 32.07ZM17 26.07 23.4 29.77 29.8 26.07 29.8 18.68 23.4 14.98 17 18.68 17 26.07Z" class="st1 MsftOfcResponsive_Fill_7823dc" fill="#7823DC"/><path d="M16 19.46 7.6 14.61 7.6 4.91 16 0.06 24.4 4.91 24.4 14.61 16 19.46ZM9.6 13.46 16 17.16 22.4 13.46 22.4 6.06 16 2.37 9.6 6.07 9.6 13.46Z" class="st1 MsftOfcResponsive_Fill_7823dc" fill="#7823DC"/></g></g><g id="Layer_2"></g></svg>