<svg viewBox="0 0 32 32" xmlns="http://www.w3.org/2000/svg" xmlns:xlink="http://www.w3.org/1999/xlink" id="Layer_2_1_" overflow="hidden"><path d="M27.2 24.2C28.8 24.2 30.1 25.5 30.1 27.1 30.1 28.7 28.8 30 27.2 30 25.6 30 24.3 28.7 24.3 27.1 24.3 25.5 25.6 24.2 27.2 24.2L27.2 24.2ZM27.2 22.2C24.5 22.2 22.3 24.4 22.3 27.1 22.3 29.8 24.5 32 27.2 32 29.9 32 32.1 29.8 32.1 27.1 32.1 24.4 29.9 22.2 27.2 22.2L27.2 22.2Z" fill="#7823DC"/><path d="M23.9 26.6 23.3 28.5 9 23.7 4.8 16.2 0 14.2 0 12.1 6.2 14.7 10.3 22.1Z" fill="#7823DC"/><path d="M13.5 32 9.4 32 8.7 23 10.6 22.8 11.3 30 12.5 30 15.6 25.9 15.6 25.2 17.6 25.2 17.6 26.5Z" fill="#7823DC"/><path d="M25.1 16.3 21.2 22.3 12.5 19.5 10.9 16.3 25.1 16.3 25.1 16.3ZM28.8 14.3 7.6 14.3 11.1 21.2 22 24.7 28.8 14.3 28.8 14.3Z" fill="#7823DC"/><g><path d="M18.3 9.9C19.7 9.9 21 10.3 21.5 11L21.6 11.2 21.8 11.2C23.2 11.2 24.5 11.6 25 12.3L25.1 12.7 25.7 12.7C27.3 12.9 28.5 13.6 28.5 14.4 28.5 15.4 26.9 16.1 25 16.1 23.6 16.1 22.3 15.7 21.8 15L21.7 14.6 21.6 14.6 21.5 15C21 15.6 19.7 16.1 18.3 16.1 16.9 16.1 15.6 15.7 15.1 15L15 14.8 14.9 15C14.4 15.6 13.1 16.1 11.7 16.1 9.8 16.1 8.2 15.3 8.2 14.4 8.2 13.5 9.8 12.7 11.7 12.7L12 12.7 12.2 12.3C12.6 11.8 13.6 11.4 14.7 11.3L15.4 11.3 15 11C15.6 10.4 16.8 9.9 18.3 9.9L18.3 9.9Z" fill="#7823DC" fill-rule="evenodd" clip-rule="evenodd"/></g></svg>