<svg viewBox="0 0 29.22 29.22" xmlns="http://www.w3.org/2000/svg" xmlns:xlink="http://www.w3.org/1999/xlink" xml:space="preserve" overflow="hidden"><style>
.MsftOfcResponsive_Fill_7823dc {
 fill:#7823DC; 
}
</style>
<g id="Layer_3"></g><g id="Layer_1"></g><g id="Layer_2"></g><g id="Layer_4"></g><g id="Layer_5"><path d="M18.99 28.21 16.99 28.21 16.99 21.81C16.99 20.5 15.92 19.43 14.61 19.43 13.3 19.43 12.23 20.5 12.23 21.81L12.23 28.21 10.23 28.21 10.23 21.81C10.23 19.4 12.19 17.43 14.61 17.43 17.03 17.43 18.99 19.39 18.99 21.81L18.99 28.21Z" class="st0 MsftOfcResponsive_Fill_7823dc" fill="#7823DC"/><rect x="13.6" y="22.66" width="2" height="5.55" class="st0 MsftOfcResponsive_Fill_7823dc" fill="#7823DC"/><rect x="13.61" y="0.13" width="2" height="6.72" class="st0 MsftOfcResponsive_Fill_7823dc" fill="#7823DC"/><rect x="11.95" y="1.79" width="5.31" height="2" class="st0 MsftOfcResponsive_Fill_7823dc" fill="#7823DC"/><path d="M24.14 29.21 5.08 29.21 5.08 13.21 14.61 5.57 24.14 13.21 24.14 29.21ZM7.08 27.21 22.14 27.21 22.14 14.17 14.61 8.13 7.08 14.17 7.08 27.21Z" class="st0 MsftOfcResponsive_Fill_7823dc" fill="#7823DC"/><path d="M14.61 16.05C13.12 16.05 11.91 14.84 11.91 13.35 11.91 11.86 13.12 10.66 14.61 10.66 16.1 10.66 17.31 11.87 17.31 13.35 17.3 14.84 16.09 16.05 14.61 16.05ZM14.61 12.66C14.23 12.66 13.91 12.97 13.91 13.35 13.91 13.73 14.22 14.05 14.61 14.05 15 14.05 15.31 13.74 15.31 13.35 15.3 12.97 14.99 12.66 14.61 12.66Z" class="st0 MsftOfcResponsive_Fill_7823dc" fill="#7823DC"/><rect x="11.23" y="21.66" width="6.76" height="2" class="st0 MsftOfcResponsive_Fill_7823dc" fill="#7823DC"/></g></svg>