<svg viewBox="0 0 32 32" xmlns="http://www.w3.org/2000/svg" xmlns:xlink="http://www.w3.org/1999/xlink" id="Layer_1" overflow="hidden"><style>
.MsftOfcResponsive_Fill_7823dc {
 fill:#7823DC; 
}
</style>
<defs></defs><path d="M22.96 32C17.98 32 13.92 27.95 13.92 22.96 13.92 17.97 17.97 13.92 22.96 13.92 27.95 13.92 32 17.97 32 22.96 32 27.95 27.95 32 22.96 32ZM22.96 15.93C19.08 15.93 15.92 19.09 15.92 22.97 15.92 26.85 19.08 30.01 22.96 30.01 26.84 30.01 30 26.85 30 22.97 30 19.09 26.84 15.93 22.96 15.93Z" class="MsftOfcResponsive_Fill_7823dc" fill="#7823DC"/><g><rect x="21.96" y="18.16" width="2" height="9.61" class="MsftOfcResponsive_Fill_7823dc" fill="#7823DC" transform="matrix(0.707107 -0.707107 0.707107 0.707107 -9.51 22.96)"/><rect x="18.16" y="21.96" width="9.61" height="2" class="MsftOfcResponsive_Fill_7823dc" fill="#7823DC" transform="matrix(0.707107 -0.707107 0.707107 0.707107 -9.51 22.96)"/></g><path d="M27.02 12 2.84 12 5.41 4.12C6.21 1.62 8.1 0 10.21 0L19.53 0C21.61 0 23.49 1.56 24.43 4.08L27.01 12ZM5.59 10 24.26 10 22.54 4.74C21.92 3.09 20.73 2 19.53 2L10.21 2C9 2 7.83 3.1 7.31 4.73L5.59 10Z" class="MsftOfcResponsive_Fill_7823dc" fill="#7823DC"/><path d="M6.36 28.93 4.22 28.93C2.49 28.93 1.08 27.52 1.08 25.79L1.08 22.65 9.51 22.65 9.51 25.79C9.51 27.52 8.1 28.93 6.37 28.93ZM3.07 24.64 3.07 25.78C3.07 26.41 3.58 26.92 4.21 26.92L6.35 26.92C6.98 26.92 7.49 26.41 7.49 25.78L7.49 24.64 3.07 24.64Z" class="MsftOfcResponsive_Fill_7823dc" fill="#7823DC"/><rect x="1" y="7" width="3.64" height="2" class="MsftOfcResponsive_Fill_7823dc" fill="#7823DC"/><rect x="24.71" y="7" width="4.15" height="2" class="MsftOfcResponsive_Fill_7823dc" fill="#7823DC"/><rect x="4.21" y="17.29" width="3.21" height="2" class="MsftOfcResponsive_Fill_7823dc" fill="#7823DC"/><path d="M10.47 24.07 8.67 23.21 10.28 19.84C10.72 18.73 11.81 17.99 13.11 17.99L16.41 17.99 16.41 19.99 13.11 19.99C12.64 19.99 12.27 20.22 12.11 20.63L10.48 24.06Z" class="MsftOfcResponsive_Fill_7823dc" fill="#7823DC"/><path d="M15.38 24.64 3.14 24.64C1.41 24.64 0 23.06 0 21.11L0 16.05C0 12.71 2.37 9.99 5.29 9.99L24.58 9.99C27.29 9.99 29.57 12.32 30 15.53L30 15.66C30 15.66 30 17.83 30 17.83L28 17.83 28 15.73C27.68 13.56 26.25 11.98 24.57 11.98L5.29 11.98C3.48 11.98 2 13.8 2 16.04L2 21.1C2 21.93 2.52 22.63 3.14 22.63L15.37 22.63 15.37 24.63Z" class="MsftOfcResponsive_Fill_7823dc" fill="#7823DC"/></svg>