<svg viewBox="0 0 32 32" xmlns="http://www.w3.org/2000/svg" xmlns:xlink="http://www.w3.org/1999/xlink" id="Layer_2_1_" xml:space="preserve" overflow="hidden"><style>
.MsftOfcResponsive_Fill_7823dc {
 fill:#7823DC; 
}
</style>
<path d="M32 29.4 32 32 20.4 22.8 21.6 21.2Z" class="st0 MsftOfcResponsive_Fill_7823dc" fill="#7823DC"/><path d="M12.9 2C18.9 2 23.8 6.9 23.8 12.9 23.8 18.9 18.9 23.8 12.9 23.8 6.9 23.8 2 18.9 2 12.9 2 6.9 6.9 2 12.9 2M12.9 0C5.8 0 0 5.8 0 12.9 0 20 5.8 25.8 12.9 25.8 20 25.8 25.8 20 25.8 12.9 25.8 5.8 20 0 12.9 0L12.9 0 12.9 0 12.9 0Z" class="st1 MsftOfcResponsive_Fill_7823dc" fill="#7823DC" fill-rule="evenodd" clip-rule="evenodd"/><g><path d="M12.3 18.1C12.7 18.1 13 18.3 13.3 18.5 13.6 18.8 13.7 19.1 13.7 19.5 13.7 19.9 13.5 20.2 13.3 20.5 13 20.8 12.7 20.9 12.3 20.9 11.9 20.9 11.6 20.7 11.3 20.5 11 20.2 10.9 19.9 10.9 19.5 10.9 19.1 11.1 18.8 11.3 18.5 11.6 18.3 12 18.1 12.3 18.1L12.3 18.1 12.3 18.1 12.3 18.1ZM13.1 4.9C14.6 4.9 15.6 5.3 16.3 6 17 6.7 17.3 7.6 17.3 8.5 17.3 9.3 17 10 16.6 10.6 16.2 11.2 15.6 11.7 15.1 12.2 14.6 12.6 14.1 13.2 13.8 13.7 13.4 14.2 13.2 14.7 13.2 15.4L13.2 16.4 11.5 16.4 11.5 15.3C11.5 14.4 11.8 13.6 12.2 13 12.6 12.4 13.2 11.8 13.8 11.3 14.2 10.9 14.6 10.4 14.9 10 15.3 9.6 15.3 9.1 15.3 8.6 15.3 7.9 15.1 7.4 14.8 7 14.4 6.7 13.8 6.4 13 6.4 12.2 6.4 11.5 6.7 11 7.2 10.5 7.7 10.2 8.4 10.1 9.3L8.5 9.3C8.6 8 9 6.9 9.9 6.1 10.8 5.3 11.8 4.9 13.1 4.9L13.1 4.9 13.1 4.9 13.1 4.9Z" class="st1 MsftOfcResponsive_Fill_7823dc" fill="#7823DC" fill-rule="evenodd" clip-rule="evenodd"/><path d="M12.3 21C11.8 21 11.5 20.8 11.2 20.5 10.9 20.2 10.7 19.8 10.7 19.5 10.7 19 10.9 18.7 11.2 18.5 11.5 18.2 11.9 18 12.3 18 12.8 18 13.1 18.2 13.4 18.5 13.7 18.8 13.9 19.2 13.9 19.5 13.9 20 13.7 20.3 13.4 20.5 13.1 20.8 12.7 21 12.3 21ZM12.3 18.2C12 18.2 11.7 18.3 11.4 18.6 11.2 18.8 11 19.1 11 19.5 11 19.8 11.1 20.1 11.4 20.4 11.6 20.6 11.9 20.8 12.3 20.8 12.6 20.8 12.9 20.7 13.2 20.4 13.4 20.2 13.6 19.9 13.6 19.5 13.6 19.2 13.5 18.9 13.2 18.6 13 18.4 12.7 18.2 12.3 18.2ZM13.3 16.6 11.4 16.6 11.4 15.3C11.4 14.4 11.7 13.6 12.1 13 12.6 12.3 13.1 11.7 13.7 11.2 14.1 10.8 14.5 10.3 14.8 9.9 15.1 9.5 15.2 9.1 15.2 8.6 15.2 7.9 15 7.4 14.7 7.1 14.3 6.7 13.7 6.5 13 6.5 12.2 6.5 11.6 6.8 11.1 7.3 10.6 7.8 10.3 8.4 10.3 9.3L10.3 9.4 8.3 9.4 8.3 9.3C8.4 7.9 8.9 6.8 9.8 6 10.7 5.2 11.8 4.7 13.1 4.7 14.5 4.7 15.7 5.1 16.4 5.9 17.1 6.6 17.4 7.4 17.4 8.5 17.4 9.3 17.2 10 16.7 10.7 16.3 11.3 15.8 11.8 15.2 12.3 14.7 12.7 14.3 13.2 13.9 13.8 13.6 14.3 13.3 14.8 13.3 15.5L13.3 16.6ZM11.7 16.3 13.1 16.3 13.1 15.5C13.1 14.7 13.4 14.2 13.7 13.7 14.1 13.1 14.6 12.6 15 12.2 15.6 11.7 16.1 11.2 16.5 10.7 17 10.1 17.2 9.4 17.2 8.7 17.2 7.7 16.9 6.9 16.3 6.3 15.5 5.4 14.5 5 13.1 5 11.9 5 10.8 5.4 9.9 6.2 9.2 6.9 8.7 7.9 8.6 9.2L10.1 9.2C10.2 8.3 10.5 7.6 11 7.1 11.5 6.6 12.3 6.3 13.1 6.3 13.9 6.3 14.5 6.5 14.9 6.9 15.3 7.3 15.5 7.8 15.5 8.6 15.5 9.1 15.4 9.6 15 10.1 14.6 10.5 14.3 11 13.9 11.4 13.3 11.9 12.8 12.5 12.3 13.1 11.9 13.7 11.6 14.5 11.6 15.3L11.6 16.3Z" class="MsftOfcResponsive_Fill_7823dc" fill="#7823DC"/></g></svg>