<svg width="27.3" height="30" viewBox="0 0 27.3 30" xmlns="http://www.w3.org/2000/svg" xmlns:xlink="http://www.w3.org/1999/xlink" overflow="hidden"><style>
.MsftOfcResponsive_Fill_7823dc {
 fill:#7823DC; 
}
</style>
<defs></defs><path d="M11.9 28.6C11.7 27.4 11.5 26.2 11.4 25 11.3 24.3 10.8 23.8 10.3 23.8 10 23.8 9.6 23.8 9.3 23.8L9.1 23.8C8.7 22.6 7.9 22.6 7.2 22.7 7 22.7 6.9 22.7 6.7 22.7L6.7 0 5.3 0 5.3 22.6C5.2 22.6 5.1 22.6 5 22.6 4.7 22.6 4.4 22.6 4.1 22.7 3.8 22.8 3.2 23 3.1 23.4 3 23.8 2.8 23.8 2.3 23.8 2.1 23.8 1.9 23.8 1.7 23.8 1 23.9 0.5 24.4 0.5 25.3 0.5 25.5 0.5 25.7 0.4 25.8L0.3 27C0.2 27.6 0.1 28.2 0 28.9 0 29.2-0.1 29.5 0.1 29.8 0.3 30 0.6 30 0.8 30 0.8 30 0.8 30 0.8 30 4.2 30 7.6 30 11 30 11.3 30 11.6 30 11.8 29.7 12 29.4 11.9 29 11.9 28.6ZM4.1 25.1C4.2 24.9 4.2 24.7 4.3 24.4 4.3 24.3 4.3 24.3 4.3 24.3 4.3 24.3 4.3 24.3 4.4 24.3 5.5 24.3 6.5 24.3 7.6 24.3 7.6 24.3 7.6 24.3 7.6 24.3 7.7 24.3 7.7 24.3 7.7 24.3 7.7 24.3 7.7 24.4 7.7 24.4 7.7 24.7 7.7 24.9 7.9 25.1L4.1 25.1ZM2.5 28.4C2 28.4 1.6 28 1.7 27.5L1.7 27.4C1.7 27 2 26.7 2.5 26.7L9.5 26.7C9.9 26.7 10.3 27 10.3 27.4L10.3 27.4C10.4 27.9 10 28.4 9.5 28.4" class="MsftOfcResponsive_Fill_7823dc" fill="#7823DC"/><path d="M27.3 16.6C27.3 15.3 26.4 14.2 25.2 14.2L13.7 14.2C12.5 14.2 11.6 15.3 11.6 16.6L11.6 16.8C11.6 17.3 11.7 17.8 12 18.2L12 18.2C12.2 19.7 12.6 21.1 13.4 22.3 13.5 22.5 13.7 22.9 13.7 23.3 13.8 24.2 13.9 25 14 25.9 14.1 26.7 14.2 27.5 14.2 28.2 14.3 29.2 15 29.9 15.9 29.9 17.1 29.9 18.3 29.9 19.5 29.9 20.7 29.9 22 29.9 23.2 29.9 24.1 29.9 24.8 29.1 24.9 28.1 25 27.5 25 27 25.1 26.4 25.2 25.6 25.3 24.7 25.4 23.9 25.4 23.8 25.4 23.6 25.4 23.4 25.4 23 25.4 22.6 25.7 22.3 26.5 21.1 27 19.7 27.1 18.1L27.1 18.1C27.3 17.7 27.5 17.2 27.5 16.7L27.5 16.6ZM23.5 27.4C23.4 28.5 23.4 28.5 22.4 28.5L16.3 28.5C15.6 28.5 15.5 28.4 15.4 27.6L15.1 24.4 15.2 24.5C15.6 24.8 16.1 25.1 16.5 25.3 16.6 25.4 16.7 25.4 16.8 25.4 16.9 25.4 17 25.5 17 25.5 17.2 25.6 17.3 25.7 17.4 25.9 17.6 26.2 17.9 26.6 18.5 26.6 18.5 26.6 18.5 26.6 18.5 26.6 19.1 26.6 19.6 26.6 20.2 26.6 20.7 26.6 21.1 26.4 21.4 25.8 21.5 25.6 21.5 25.6 21.5 25.6 22.3 25.3 23.1 24.9 23.7 24.4L23.5 27.4 23.5 27.4ZM24.1 21.5C24.1 22.1 23.8 22.4 23.4 22.8 22.7 23.4 22 23.9 21.3 24.1 21.2 24.1 21.2 24.1 21.2 24.1 20.8 23.7 20.4 23.7 19.9 23.8 19.7 23.8 19.6 23.8 19.4 23.8 19.1 23.8 18.9 23.8 18.6 23.8 18.4 23.8 18.1 23.8 17.9 24 17.7 24.2 17.6 24.1 17.3 24 16.4 23.6 15.6 23 14.9 22.2 14.8 22.1 14.8 22 14.8 22 14.7 21.1 14.6 20.2 14.5 19.3L24.2 19.3C24.2 20 24.1 20.7 24.1 21.5ZM13.3 16.6C13.3 16.3 13.5 16.1 13.7 16.1L25.2 16.1C25.4 16.1 25.6 16.3 25.6 16.6L25.6 16.8C25.6 17.1 25.4 17.3 25.2 17.3L13.7 17.3C13.5 17.3 13.3 17.1 13.3 16.8L13.3 16.6Z" class="MsftOfcResponsive_Fill_7823dc" fill="#7823DC"/></svg>