<svg viewBox="0 0 32 32" xmlns="http://www.w3.org/2000/svg" xmlns:xlink="http://www.w3.org/1999/xlink" overflow="hidden"><defs></defs><g id="Layer_3"><path d="M23.9209 0.50964 23.9209 5.99864 7.97219 5.99864 7.97219 3.99864 9.9363 3.99864 13.4813 0.50964 10.9356 0 8.9363 1.99865 5.97219 1.99865 5.97219 9.96881 9.97207 13.9686 25.9209 13.9686 25.9209 0.50964ZM23.9209 11.9686 7.97219 11.9686 7.97219 7.99864 23.9209 7.99864Z" fill="#7823DC"/><rect x="10.935" y="0" width="14.9859" height="2" fill="#7823DC"/><path d="M4.94647 20.0049 4.94647 20.0055 2.95135 22-0.01636 22.0036-0.01636 27.9737 3.98352 31.9736 13.9908 31.9736 13.9908 20.0049ZM11.9908 29.9736 1.98364 29.9736 2.00403 24.0036 11.9908 24Z" fill="#7823DC"/><path d="M22.9593 20.0049 22.9593 20.0055 20.9641 22 17.9964 22.0036 17.9964 27.9737 21.9963 31.9736 32.0036 31.9736 32.0036 20.0049ZM30.0036 29.9736 19.9964 29.9736 20.0168 24.0036 30.0036 24Z" fill="#7823DC"/><rect x="6" y="16" width="20" height="2" fill="#7823DC"/><rect x="6" y="16" width="2" height="4" fill="#7823DC"/><rect x="24" y="16" width="2" height="4" fill="#7823DC"/><rect x="14.9465" y="14" width="2" height="4" fill="#7823DC"/></g></svg>