<svg viewBox="0 0 29.22 29.22" xmlns="http://www.w3.org/2000/svg" xmlns:xlink="http://www.w3.org/1999/xlink" id="Layer_5" overflow="hidden"><defs></defs><path d="M27.49 14.27 27.43 5.16 21.93 5.16 21.93 8.71 14.57 1.36 0.41 15.58 1.7 16.87 1.7 29.23 27.51 29.23 27.51 16.87 28.8 15.58 27.49 14.27ZM23.87 7.1 25.73 7.1 25.73 12.51 23.87 10.65 23.87 7.1ZM25.65 27.37 3.56 27.37 3.56 15.01 14.57 4.03 21.93 11.33 21.93 11.38 25.65 15.09 25.65 27.37Z" stroke-width="0" fill="#7823DC"/><path d="M17.72 16.39 15.71 16.71C15.61 16.45 15.52 16.28 15.44 16.18 15.36 16.08 15.22 15.98 15.04 15.88L15.04 17.44C16.14 17.73 16.87 18.04 17.24 18.37 17.73 18.81 17.97 19.36 17.97 20.03 17.97 20.42 17.88 20.78 17.71 21.11 17.53 21.44 17.31 21.71 17.04 21.93 16.77 22.15 16.48 22.31 16.17 22.41 15.86 22.51 15.49 22.57 15.04 22.59L15.04 23.61 14.25 23.61 14.25 22.59C13.72 22.54 13.29 22.46 12.96 22.33 12.63 22.2 12.35 22.03 12.11 21.81 11.87 21.59 11.69 21.35 11.56 21.1 11.43 20.85 11.33 20.54 11.27 20.18L13.46 19.93C13.52 20.29 13.61 20.55 13.72 20.7 13.83 20.86 14.01 21 14.26 21.12L14.26 19.21C13.53 19.01 13.01 18.83 12.71 18.68 12.41 18.53 12.14 18.29 11.92 17.97 11.7 17.64 11.58 17.25 11.58 16.78 11.58 16.14 11.8 15.6 12.25 15.17 12.7 14.74 13.37 14.5 14.25 14.45L14.25 13.92 15.04 13.92 15.04 14.45C15.85 14.5 16.47 14.69 16.89 15.02 17.32 15.35 17.6 15.81 17.73 16.38ZM14.25 15.85C14.02 15.93 13.86 16.02 13.77 16.13 13.68 16.24 13.63 16.37 13.63 16.53 13.63 16.69 13.68 16.83 13.77 16.95 13.86 17.07 14.02 17.17 14.25 17.25L14.25 15.86ZM15.04 21.18C15.35 21.11 15.57 21 15.71 20.84 15.85 20.68 15.92 20.51 15.92 20.31 15.92 20.14 15.86 19.98 15.74 19.84 15.62 19.7 15.38 19.56 15.03 19.44L15.03 21.18Z" stroke-width="0" fill="#7823DC"/></svg>