<svg viewBox="0 0 32 32" xmlns="http://www.w3.org/2000/svg" xmlns:xlink="http://www.w3.org/1999/xlink" id="Layer_2_1_" xml:space="preserve" overflow="hidden"><style>
.MsftOfcResponsive_Fill_7823dc {
 fill:#7823DC; 
}
</style>
<path d="M32 29.4 32 32 20.4 22.8 21.6 21.2Z" class="st0 MsftOfcResponsive_Fill_7823dc" fill="#7823DC"/><g><path d="M12.9 2C18.9 2 23.8 6.9 23.8 12.9 23.8 18.9 18.9 23.8 12.9 23.8 6.9 23.8 2 18.9 2 12.9 2 6.9 6.9 2 12.9 2M12.9 0C5.8 0 0 5.8 0 12.9 0 20 5.8 25.8 12.9 25.8 20 25.8 25.8 20 25.8 12.9 25.8 5.8 20 0 12.9 0L12.9 0 12.9 0 12.9 0Z" class="st1 MsftOfcResponsive_Fill_7823dc" fill="#7823DC" fill-rule="evenodd" clip-rule="evenodd"/><g><path d="M7.4 17 17 7.3 18.4 8.7 8.8 18.4 7.4 17 7.4 17Z" class="st2 MsftOfcResponsive_Fill_7823dc" fill="#7823DC" fill-rule="evenodd" clip-rule="evenodd"/><path d="M16.4 15.4C17 15.4 17.4 15.8 17.4 16.4 17.4 17 17 17.4 16.4 17.4 15.8 17.4 15.4 17 15.4 16.4 15.4 15.8 15.8 15.4 16.4 15.4M16.4 13.4C14.7 13.4 13.4 14.7 13.4 16.4 13.4 18.1 14.7 19.4 16.4 19.4 18.1 19.4 19.4 18.1 19.4 16.4 19.3 14.7 18 13.4 16.4 13.4L16.4 13.4 16.4 13.4 16.4 13.4Z" class="st2 MsftOfcResponsive_Fill_7823dc" fill="#7823DC" fill-rule="evenodd" clip-rule="evenodd"/><path d="M9.4 8.4C10 8.4 10.4 8.8 10.4 9.4 10.4 10 10 10.4 9.4 10.4 8.8 10.4 8.4 10 8.4 9.4 8.5 8.8 8.8 8.4 9.4 8.4M9.4 6.4C7.7 6.4 6.4 7.7 6.4 9.4 6.4 11.1 7.7 12.4 9.4 12.4 11.1 12.4 12.4 11.1 12.4 9.4 12.4 7.7 11.1 6.4 9.4 6.4L9.4 6.4 9.4 6.4 9.4 6.4Z" class="st2 MsftOfcResponsive_Fill_7823dc" fill="#7823DC" fill-rule="evenodd" clip-rule="evenodd"/></g></g></svg>