<svg viewBox="0 0 32 32" xmlns="http://www.w3.org/2000/svg" xmlns:xlink="http://www.w3.org/1999/xlink" id="Layer_1" xml:space="preserve" overflow="hidden"><g><defs><path d="M0 31.9 32 31.9 32 0 0 0 0 31.9Z" id="SVGID_1_" fill="#7823DC"/></defs><defs><path d="M0 0 32 0 32 31.9 0 31.9 0 0Z" id="SVGID_00000029021757200618005060000005779842976255819655_" fill="#7823DC"/></defs><clipPath id="SVGID_00000041994438799034538320000009014103018951682216_"><use width="100%" height="100%" xlink:href="#SVGID_1_" overflow="visible"></use></clipPath><clipPath id="SVGID_00000111182752896918974640000007691771813513097397_" clip-path="url(#SVGID_00000041994438799034538320000009014103018951682216_)"><use width="100%" height="100%" xlink:href="#SVGID_00000029021757200618005060000005779842976255819655_" overflow="visible"></use></clipPath><g clip-path="url(#SVGID_00000111182752896918974640000007691771813513097397_)"><defs><path d="M0 31.9 32 31.9 32 0 0 0 0 31.9Z" id="SVGID_00000133528034320673156140000000199960631813673383_" fill="#7823DC"/></defs><clipPath id="SVGID_00000157988348499043464340000001067253506566867076_"><use width="100%" height="100%" xlink:href="#SVGID_00000133528034320673156140000000199960631813673383_" overflow="visible"></use></clipPath><path d="M29.8 12.5 29.8 12.5C29.7 11.8 29.5 11.3 29.3 10.8L29.3 10.7C29.2 10.4 29.1 10.1 29 9.9 26.7 4.6 21.6 0.9 15.6 0.9 7.5 1 1 7.6 1 15.9 1 21.1 3.6 25.7 7.7 28.4L8.9 26.9C5.3 24.6 3 20.4 3 15.9 3 8.7 8.7 2.9 15.7 2.9 21.1 2.9 25.8 6.5 27.6 11.4 27.6 11.5 27.7 11.6 27.7 11.8 27.8 12.2 27.9 12.6 28 13L28 13C28.6 15.1 29.2 17.7 29.5 19.5 29.5 19.7 29.6 19.9 29.6 20 29.6 19.8 29.7 19.6 29.7 19.5 30 18.3 30.2 17.1 30.2 15.8 30.2 14.7 30.1 13.6 29.8 12.5L29.8 12.5Z" fill="#7823DC" clip-path="url(#SVGID_00000157988348499043464340000001067253506566867076_)"/><path d="M31.9 22.4 26.5 22.4 26.5 31.7 17.4 31.7 17.4 29.8 24.5 29.8 24.5 20.5 29.5 20.5C29.5 20.3 29.4 20.1 29.4 19.9 29 18.1 28.3 15 27.8 12.7L27.8 12.6C27.7 12.2 27.6 11.8 27.5 11.4 27.5 11.3 27.4 11.1 27.4 11 27.3 10.7 27.2 10.3 27.1 10.1L28.8 9.4 28.8 10.4C28.9 10.7 29 10 29.1 10.3L29.1 10.4C29.3 10.9 29.4 11.5 29.6 12L29.6 12.1C30.6 15.8 31.5 21 31.6 21.2L31.9 22.4 31.9 22.4 31.9 22.4Z" fill="#7823DC" clip-path="url(#SVGID_00000157988348499043464340000001067253506566867076_)"/><path d="M2.5 15.5 6.2 15.5 6.2 17.5 2.5 17.5 2.5 15.5 2.5 15.5Z" fill="#7823DC" fill-rule="evenodd" clip-rule="evenodd" clip-path="url(#SVGID_00000157988348499043464340000001067253506566867076_)"/><path d="M14.2 2.6 16.1 2.6 16.1 6.5 14.2 6.5 14.2 2.6 14.2 2.6Z" fill="#7823DC" fill-rule="evenodd" clip-rule="evenodd" clip-path="url(#SVGID_00000157988348499043464340000001067253506566867076_)"/><path d="M25.7 15.5 29.4 15.5 29.4 17.5 25.7 17.5 25.7 15.5 25.7 15.5Z" fill="#7823DC" fill-rule="evenodd" clip-rule="evenodd" clip-path="url(#SVGID_00000157988348499043464340000001067253506566867076_)"/></g></g><path d="M10.8 24.6 9.2 23.4 14.8 15 12.1 10.5 13.9 9.5 17.2 15Z" fill="#7823DC"/></svg>