<svg width="36.5" height="36.6" viewBox="0 0 36.5 36.6" xmlns="http://www.w3.org/2000/svg" xmlns:xlink="http://www.w3.org/1999/xlink" overflow="hidden"><defs></defs><g><g><defs><path d="M0 36.5 36.5 36.5 36.5 0 0 0 0 36.5Z" id="SVGID_1_" fill="#7823DC"/></defs><clipPath id="SVGID_2_"><use width="100%" height="100%" xlink:href="#SVGID_1_"></use></clipPath><g clip-path="url(#SVGID_2_)"><defs><path d="M0 36.5 36.5 36.5 36.5 0 0 0 0 36.5Z" id="SVGID_3_" fill="#7823DC"/></defs><clipPath id="SVGID_4_"><use width="100%" height="100%" xlink:href="#SVGID_3_"></use></clipPath><path d="M28.5 11.4 19.4 11.4 19.4 3.4 28.5 3.4 28.5 11.4ZM21.7 9.1 26.3 9.1 26.3 5.7 21.7 5.7 21.7 9.1Z" fill="#7823DC" clip-path="url(#SVGID_4_)"/><path d="M16 11.4 9.1 11.4 9.1 4.6 16 4.6 16 11.4ZM11.4 9.1 13.7 9.1 13.7 6.8 11.4 6.8 11.4 9.1Z" fill="#7823DC" clip-path="url(#SVGID_4_)"/><path d="M21.7 11.4 13.7 11.4 13.7 0 21.7 0 21.7 11.4ZM16 9.1 19.4 9.1 19.4 2.3 16 2.3 16 9.1Z" fill="#7823DC" clip-path="url(#SVGID_4_)"/><path d="M31.9 36.6 4.6 36.6 4.6 9.1 32 9.1 32 36.6 31.9 36.6ZM6.8 34.3 29.6 34.3 29.6 11.4 6.8 11.4 6.8 34.3 6.8 34.3Z" fill="#7823DC" clip-path="url(#SVGID_4_)"/><path d="M29 35.2 24.7 32 11.8 32 7.5 35.2 6.2 33.3 11 29.7 25.5 29.7 30.3 33.3Z" fill="#7823DC" clip-path="url(#SVGID_4_)"/></g></g></g></svg>