<svg viewBox="0 0 32 32" xmlns="http://www.w3.org/2000/svg" xmlns:xlink="http://www.w3.org/1999/xlink" id="Layer_2" overflow="hidden"><path d="M22.4 33.5 14 16.8 5.7 33.5 3.9 32.6 13.1 14.1 14.9 14.1 24.2 32.6Z" fill="#7823DC"/><path d="M10.2 8.9 29.3 19.9 28.5 21.3 9.4 10.3 10.2 8.9M9.5 6.1 6.7 11 29.2 24 32 19.2 9.5 6.1 9.5 6.1Z" fill="#7823DC"/><path d="M9.7 2C9.8 2 10 2 10.1 2.1L10.5 2.3C10.7 2.4 10.8 2.7 10.9 2.8 10.9 2.9 11 3.2 10.8 3.4L3.9 15.4C3.8 15.6 3.5 15.8 3.2 15.8 3.1 15.8 2.9 15.8 2.8 15.7L2.4 15.5C2.1 15.3 2.1 15.1 2 15 2 14.9 1.9 14.6 2.1 14.4L9 2.4C9.2 2.1 9.4 2 9.7 2M9.7 0C8.7 0 7.8 0.5 7.3 1.4L0.4 13.4C-0.4 14.7 0.1 16.4 1.4 17.2L1.8 17.4C2.2 17.7 2.7 17.8 3.2 17.8 4.2 17.8 5.1 17.3 5.6 16.4L12.5 4.4C13.3 3.1 12.8 1.4 11.5 0.6L11.1 0.4C10.7 0.1 10.2 0 9.7 0L9.7 0Z" fill="#7823DC"/><rect x="27.3" y="22.3" width="2" height="5.7" fill="#7823DC"/><rect x="1.5" y="17" width="2" height="15" fill="#7823DC"/><rect x="6.8" y="28.5" width="15" height="2" fill="#7823DC"/><rect x="8.9" y="24.4" width="10.9" height="2" fill="#7823DC"/><rect x="10.3" y="20.4" width="7.5" height="2" fill="#7823DC"/><path d="M29.9 28.1 29.9 30 26.5 30 26.5 28.1 29.9 28.1M31.9 26.1 24.5 26.1 24.5 32 31.9 32 31.9 26.1 31.9 26.1Z" fill="#7823DC"/></svg>