<svg viewBox="0 0 32 32" xmlns="http://www.w3.org/2000/svg" xmlns:xlink="http://www.w3.org/1999/xlink" id="Layer_1" overflow="hidden"><style>
.MsftOfcResponsive_Fill_7823dc {
 fill:#7823DC; 
}
</style>
<path d="M16 31.9C7.2 31.9 0 24.4 0 15.2 0 12.8 0.5 11.6 1.3 9.6L1.6 9 2.3 9 30.5 9 30.8 9.6 29.8 10 30.7 9.6C31.5 11.6 32 12.8 32 15.2 32 24.4 24.8 31.9 16 31.9ZM2.9 11C2.3 12.5 2 13.4 2 15.2 2 23.3 8.3 29.9 16 29.9 23.7 29.9 30 23.3 30 15.2 30 13.4 29.7 12.5 29.1 11L2.9 11Z" class="MsftOfcResponsive_Fill_7823dc" fill="#7823DC"/><g><path d="M28 17.4 26 17.4C26 16 25.7 14.7 25.2 13.4L27 12.6C27.7 14.1 28 15.7 28 17.4Z" class="MsftOfcResponsive_Fill_7823dc" fill="#7823DC"/><g><path d="M16 28C9.4 28 4 22.6 4 16L6 16C6 21.5 10.5 26 16 26L16 28Z" class="MsftOfcResponsive_Fill_7823dc" fill="#7823DC"/><g><path d="M22.4 11 20.5 10.3 23.2 2.2 29.7 0 30.3 1.9 24.8 3.8Z" class="MsftOfcResponsive_Fill_7823dc" fill="#7823DC"/><g><path d="M12 6 2 6 2 5C2 2.3 4.3 0 7 0 9.7 0 12 2.3 12 5L12 6ZM4.2 4 9.8 4C9.4 2.8 8.3 2 7 2 5.7 2 4.6 2.8 4.2 4Z" class="MsftOfcResponsive_Fill_7823dc" fill="#7823DC"/><g><rect x="6" y="4" width="2" height="6.1" class="MsftOfcResponsive_Fill_7823dc" fill="#7823DC"/></g></g></g></g></g></svg>