<svg viewBox="0 0 32 32" xmlns="http://www.w3.org/2000/svg" xmlns:xlink="http://www.w3.org/1999/xlink" id="Layer_1" xml:space="preserve" overflow="hidden"><g><path d="M0 12 0 32 20 32 20 12 0 12 0 12 0 12ZM18.1 30 2 30 2 14 18.1 14 18.1 30 18.1 30 18.1 30Z" fill="#7823DC" fill-rule="evenodd" clip-rule="evenodd"/><path d="M23.8 0.3C23.5 2.3 23.5 2.3 23.5 2.3 24.8 2.6 26 3.1 27 3.8 28.3 2.3 28.3 2.3 28.3 2.3 27.1 1.3 25.6 0.5 23.8 0.3L23.8 0.3ZM29.9 3.8C28.4 5 28.4 5 28.4 5 29.2 6 29.7 7.3 29.9 8.5 31.9 8.2 31.9 8.2 31.9 8.2 31.6 6.5 30.9 5 29.9 3.8L29.9 3.8ZM30.1 10C30.1 11.5 29.8 12.8 29.1 14 30.9 15 30.9 15 30.9 15 31.2 14.5 31.4 14 31.4 13.7L31.4 13.7 31.4 13.7 31.4 13.7 31.4 13.7 31.4 13.7 31.4 13.7 31.4 13.7 31.4 13.7C31.4 13.7 31.4 13.7 31.4 13.4L31.4 13.4 31.4 13.4 31.4 13.4 31.4 13.4 31.4 13.4 31.4 13.4 31.4 13.4 31.4 13.4 31.4 13.4 31.4 13.4 31.4 13.4 31.4 13.4 31.4 13.4 31.4 13.4 31.4 13.4C31.4 13.4 31.4 13.4 31.7 13.4L31.7 13.4 31.7 13.4 31.7 13.4 31.7 13.4 31.7 13.4 31.7 13.4 31.7 13.4 31.7 13.4 31.7 13.4 31.7 13.4 31.7 13.4C31.7 13.4 31.7 13.4 31.7 13.1L31.7 13.1 31.7 13.1 31.7 13.1 31.7 13.1 31.7 13.1 31.7 13.1 31.7 13.1 31.7 13.1 31.7 13.1 31.7 13.1 31.7 13.1 31.7 13.1 31.7 13.1 31.7 13.1 31.7 13.1 31.7 13.1 31.7 13.1 31.7 13.1 31.7 13.1 31.7 13.1 31.7 13.1 31.7 13.1 31.7 13.1 31.7 13.1 31.7 13.1C31.7 12.8 31.7 12.8 31.7 12.8L31.7 12.8 31.7 12.8 31.7 12.8C32 11.8 32.2 11 32.2 10L30.1 10 30.1 10 30.1 10ZM28.1 15.3C27.3 16.3 26.1 17.1 24.8 17.6 25.6 19.4 25.6 19.4 25.6 19.4 25.6 19.4 25.6 19.4 25.9 19.4L25.9 19.4 25.9 19.4 25.9 19.4 25.9 19.4 25.9 19.4 25.9 19.4 25.9 19.4 25.9 19.4 25.9 19.4 25.9 19.4 25.9 19.4 25.9 19.4 25.9 19.4 25.9 19.4 25.9 19.4 25.9 19.4 25.9 19.4 25.9 19.4C25.9 19.4 25.9 19.4 26.2 19.4L26.2 19.4 26.2 19.4 26.2 19.4 26.2 19.4 26.2 19.4 26.2 19.4 26.2 19.4 26.2 19.4 26.2 19.4 26.2 19.4 26.2 19.4 26.2 19.4 26.2 19.4 26.2 19.4 26.2 19.4 26.2 19.4 26.2 19.4 26.2 19.4 26.2 19.4 26.2 19.4 26.2 19.4 26.2 19.4 26.2 19.4C26.2 19.4 26.2 19.4 26.2 19.1L26.2 19.1 26.2 19.1C26.5 19.1 26.5 19.1 26.5 19.1L26.5 19.1 26.5 19.1 26.5 19.1C27.8 18.6 28.8 17.8 29.8 16.8L29.8 16.8 29.8 16.8 29.8 16.8 29.8 16.8 29.8 16.8C29.8 16.5 29.8 16.5 29.8 16.5L29.8 16.5 29.8 16.5 29.8 16.5 29.8 16.5 29.8 16.5 29.8 16.5 29.8 16.5 29.8 16.5 29.8 16.5 29.8 16.5 28.1 15.3 28.1 15.3 28.1 15.3ZM23.3 18C22.8 18 22.5 18 22 18 21.2 18 20.7 18 20 17.7 19.7 17.7 19.5 17.4 19.2 17.4 18.7 19.4 18.7 19.4 18.7 19.4 19 19.4 19.5 19.7 20 19.7 20.3 19.7 20.8 20 21 20L21 20 21 20 21 20 21 20 21 20 21 20 21 20 21.3 20 21.3 20 21.3 20 21.3 20 21.3 20 21.3 20 21.3 20 21.3 20 21.3 20 21.3 20 21.3 20 21.3 20 21.3 20 21.3 20 21.3 20 21.3 20 21.3 20 21.3 20C21.3 20 21.3 20 21.6 20L21.6 20 21.6 20 21.6 20 21.6 20 21.6 20 21.6 20 21.6 20 21.6 20 21.6 20 21.6 20 21.6 20 21.6 20 21.6 20 21.6 20 21.6 20 21.6 20 21.6 20 21.6 20 21.6 20 21.6 20 21.6 20C21.9 20 21.9 20 21.9 20L21.9 20 21.9 20 21.9 20 21.9 20 21.9 20 21.9 20 21.9 20 21.9 20 21.9 20 21.9 20 21.9 20 21.9 20 21.9 20 21.9 20 21.9 20 21.9 20 21.9 20 21.9 20 21.9 20 21.9 20 21.9 20 21.9 20 21.9 20 21.9 20C22.2 20 22.2 20 22.2 20L22.2 20 22.2 20 22.2 20 22.2 20 22.2 20 22.2 20 22.2 20 22.2 20 22.2 20 22.2 20 22.2 20 22.2 20 22.2 20 22.2 20 22.2 20 22.2 20 22.2 20 22.2 20 22.2 20 22.2 20 22.2 20 22.2 20 22.2 20 22.2 20C22.5 20 22.5 20 22.5 20L22.5 20 22.5 20 22.5 20 22.5 20 22.5 20 22.5 20 22.5 20 22.5 20 22.5 20 22.5 20 22.5 20 22.5 20 22.5 20 22.5 20 22.5 20 22.5 20 22.5 20 22.5 20 22.5 20 22.5 20 22.5 20 22.5 20 22.5 20C22.8 20 22.8 20 22.8 20L22.8 20 22.8 20C23.1 20 23.6 20 23.8 20L23.3 18 23.3 18 23.3 18ZM14.3 12C14 11.3 14 10.8 14 10 14 9.5 14 9 14 8.7 12.2 8.2 12.2 8.2 12.2 8.2L12.2 8.2 12.2 8.2 12.2 8.2 12.2 8.2 12.2 8.2C12.2 8.2 12.2 8.2 12.2 8.5L12.2 8.5 12.2 8.5 12.2 8.5C11.9 8.5 11.9 8.5 11.9 8.5L11.9 8.5 11.9 8.5C11.9 8.8 11.9 9.3 11.9 9.8L11.9 9.8 11.9 9.8 11.9 9.8 11.9 9.8 11.9 9.8 11.9 9.8 11.9 9.8 11.9 9.8 11.9 9.8 11.9 9.8 11.9 9.8 11.9 9.8C11.9 10.1 11.9 10.1 11.9 10.1L11.9 10.1 11.9 10.1 11.9 10.1 11.9 10.1 11.9 10.1 11.9 10.1 11.9 10.1 11.9 10.1 11.9 10.1 11.9 10.1 11.9 10.1 11.9 10.1 11.9 10.1 11.9 10.1 11.9 10.1 11.9 10.1 11.9 10.1 11.9 10.1 11.9 10.1 11.9 10.1 11.9 10.1 11.9 10.1 11.9 10.1C11.9 10.4 11.9 10.4 11.9 10.4L11.9 10.4 11.9 10.4 11.9 10.4 11.9 10.4 11.9 10.4 11.9 10.4 11.9 10.4 11.9 10.4 11.9 10.4 11.9 10.4 11.9 10.4 11.9 10.4 11.9 10.4 11.9 10.4 11.9 10.4 11.9 10.4 11.9 10.4 11.9 10.4 11.9 10.4 11.9 10.4 11.9 10.4 11.9 10.4 11.9 10.4C11.9 10.7 11.9 10.7 11.9 10.7L11.9 10.7 11.9 10.7 11.9 10.7 11.9 10.7 11.9 10.7 11.9 10.7 11.9 10.7 11.9 10.7 11.9 10.7 11.9 10.7 11.9 10.7 11.9 10.7 11.9 10.7 11.9 10.7 11.9 10.7 11.9 10.7 11.9 10.7 11.9 10.7 11.9 10.7 11.9 10.7 11.9 10.7 11.9 10.7 11.9 10.7 11.9 10.7 11.9 10.7C11.9 10.7 11.9 10.7 11.9 11L11.9 11 11.9 11 11.9 11 11.9 11 11.9 11 11.9 11 11.9 11 11.9 11 11.9 11 11.9 11 11.9 11 11.9 11 11.9 11 11.9 11 11.9 11 11.9 11 11.9 11 11.9 11 11.9 11 11.9 11 11.9 11 11.9 11 11.9 11 11.9 11C11.9 11.3 11.9 11.3 11.9 11.3L11.9 11.3 11.9 11.3 11.9 11.3 11.9 11.3 11.9 11.3 11.9 11.3 11.9 11.3 11.9 11.3 11.9 11.3 11.9 11.3 11.9 11.3 11.9 11.3 11.9 11.3 11.9 11.3 11.9 11.3 11.9 11.3 11.9 11.3 11.9 11.3 11.9 11.3 11.9 11.3 11.9 11.3 11.9 11.3C11.9 11.6 11.9 11.6 11.9 11.6L11.9 11.6 11.9 11.6 11.9 11.6 11.9 11.6 11.9 11.6 11.9 11.6 11.9 11.6 11.9 11.6 11.9 11.6 11.9 11.6 11.9 11.6 11.9 11.6 11.9 11.6 11.9 11.6 11.9 11.6 11.9 11.6 11.9 11.6 11.9 11.6 11.9 11.6 11.9 11.6C11.9 11.9 11.9 11.9 11.9 11.9L11.9 11.9 11.9 11.9 11.9 11.9 11.9 11.9 11.9 11.9 11.9 11.9 11.9 11.9 11.9 11.9 11.9 11.9 11.9 11.9 11.9 11.9C11.9 11.9 11.9 11.9 12.2 11.9L12.2 11.9 12.2 11.9C12.2 12.2 12.2 12.2 12.2 12.2L12.2 12.2 12.2 12.2 12.2 12.2 12.2 12.2 12.2 12.2 12.2 12.2 12.2 12.2 12.2 12C12.2 12.5 12.5 12.8 12.5 13.3 14.5 12.5 14.5 12.5 14.5 12.5 14.3 12.5 14.3 12.3 14.3 12L14.3 12ZM15.5 2.3C15.2 2.8 14.7 3.1 14.5 3.6L14.5 3.6 14.5 3.6 14.5 3.6 14.5 3.6 14.5 3.6 14.5 3.6 14.5 3.6 14.2 3.6 14.2 3.6 14.2 3.6 14.2 3.6 14.2 3.6 14.2 3.6 14.2 3.6 14.2 3.6 14.2 3.6 14.2 3.6 14.2 3.6 14.2 3.6 14.2 3.6C14.2 3.9 14.2 3.9 14.2 3.9L14.2 3.9 14.2 3.9 14.2 3.9 14.2 3.9 14.2 3.9 14.2 3.9 14.2 3.9 14.2 3.9 14.2 3.9 14.2 3.9 14.2 3.9 14.2 3.9 14.2 3.9 14.2 3.9 14.2 3.9 14.2 3.9 14.2 3.9 14.2 3.9 14.2 3.9 14.2 3.9 14.2 3.9 14.2 3.9 14.2 3.9 14.2 3.9 14.2 3.9 14.2 3.9 14.2 3.9 14.2 3.9 14.2 3.9 14.2 3.9C13.9 3.9 13.9 3.9 13.9 3.9L13.9 3.9 13.9 3.9 13.9 3.9C13.9 3.9 13.9 3.9 13.9 4.2L13.9 4.2 13.9 4.2 13.9 4.2 13.9 4.2 13.9 4.2 13.9 4.2 13.9 4.2 13.9 4.2 13.9 4.2 13.9 4.2 13.9 4.2 13.9 4.2 13.9 4.2 13.9 4.2C13.4 5 12.9 5.7 12.6 6.5 14.5 7 14.5 7 14.5 7 15 5.7 15.8 4.7 16.8 4L15.5 2.3 15.5 2.3 15.5 2.3ZM22.1 0 22.1 0 22.1 0 22.1 0 22.1 0 22.1 0 22.1 0 22.1 0 22.1 0 22.1 0 22.1 0 22.1 0C21.8 0 21.8 0 21.8 0L21.8 0 21.8 0 21.8 0 21.8 0 21.8 0 21.8 0 21.8 0 21.8 0 21.8 0 21.8 0 21.8 0 21.8 0 21.8 0 21.8 0 21.8 0 21.8 0 21.8 0 21.8 0 21.8 0 21.8 0 21.8 0C21.5 0 21.5 0 21.5 0L21.5 0 21.5 0 21.5 0 21.5 0 21.5 0 21.5 0 21.5 0 21.5 0 21.5 0 21.5 0 21.5 0 21.5 0 21.5 0 21.5 0 21.5 0 21.5 0 21.5 0 21.5 0 21.5 0 21.5 0 21.5 0 21.5 0 21.5 0 21.5 0 21.5 0C21.5 0 21.5 0 21.2 0L21.2 0 21.2 0 21.2 0 21.2 0 21.2 0 21.2 0 21.2 0 21.2 0 21.2 0 21.2 0 21.2 0 21.2 0 21.2 0 21.2 0 21.2 0 21.2 0 21.2 0 21.2 0 21.2 0 21.2 0 21.2 0 21.2 0 21.2 0C20.9 0 20.9 0 20.9 0L20.9 0 20.9 0 20.9 0 20.9 0 20.9 0 20.9 0 20.9 0 20.9 0 20.9 0 20.9 0 20.9 0 20.9 0 20.9 0 20.9 0 20.9 0 20.9 0 20.9 0 20.9 0 20.9 0 20.9 0 20.9 0 20.9 0 20.9 0 20.9 0C20.6 0 20.6 0 20.6 0L20.6 0 20.6 0 20.6 0 20.6 0 20.6 0 20.6 0 20.6 0 20.6 0 20.6 0 20.6 0 20.6 0 20.6 0 20.6 0 20.6 0 20.6 0 20.6 0 20.6 0 20.6 0 20.6 0 20.6 0 20.6 0 20.6 0 20.6 0 20.6 0 20.6 0 20.6 0C20.3 0 20.3 0 20.3 0L20.3 0 20.3 0 20.3 0 20.3 0 20.3 0 20.3 0 20.3 0 20.3 0 20.3 0 20.3 0 20.3 0 20.3 0 20.3 0 20.3 0 20.3 0 20.3 0 20.3 0 20.3 0 20.3 0 20.3 0C20.3 0.3 20.3 0.3 20.3 0.3L20.3 0.3 20.3 0.3 20.3 0.3C20 0.3 20 0.3 20 0.3L20 0.3 20 0.3 20 0.3 20 0.3 20 0.3 20 0.3 20 0.3 20 0.3 20 0.3 20 0.3 20 0.3 20 0.3 20 0.3C19.7 0.3 19.7 0.3 19.7 0.3L19.7 0.3C19.4 0.3 19.2 0.3 18.9 0.6 18.9 0.6 18.9 0.6 18.6 0.6L18.6 0.6 18.6 0.6 18.6 0.6 18.6 0.6 18.6 0.6 18.6 0.6 18.6 0.6 18.6 0.6 18.6 0.6C18.3 0.6 18.3 0.6 18.3 0.6L18.3 0.6 18.3 0.6 18.3 0.6 18.3 0.6 18.3 0.6 18.3 0.6 18.3 0.6 18.3 0.6 18.3 0.6 18.3 0.6 18.3 0.6 18.3 0.6 18.3 0.6 18.3 0.6 18.3 0.6 18.3 0.6 18.3 0.6 18.3 0.6 18.3 0.6 18.3 0.6 18.3 0.6C18 0.6 18 0.6 18 0.6L18 0.6 18 0.6 18 0.6 18 0.6 18 0.6 18 0.6 18 0.6 18 0.6 18 0.6 18 0.6 18 0.9 18 0.9 18 0.9 18 0.9 18 0.9 18 0.9 18 0.9 18 0.9 18 0.9 18 0.9 18 0.9 18 0.9 18 0.9 18 0.9 18 0.9 18 0.9C18 0.9 18 0.9 17.7 0.9L17.7 0.9 17.7 0.9 17.7 0.9 17.7 0.9 17.7 0.9 17.7 0.9 17.7 0.9 17.7 0.9 17.7 0.9 17.7 0.9 17.7 0.9 17.7 0.9 17.7 0.9 17.7 0.9 17.7 0.9 17.7 0.9 17.7 0.9 17.7 0.9 17.7 0.9 17.7 0.9 17.7 0.9 17.7 0.9 17.7 0.9 17.7 0.9 17.7 0.9 17.7 0.9 17.7 0.9 17.7 0.9 17.7 0.9 17.7 0.9 17.7 0.9C17.4 0.9 17.4 0.9 17.4 0.9L17.4 0.9 17.4 0.9 17.4 0.9 17.4 0.9 17.4 0.9 17.4 0.9 17.4 0.9 17.4 0.9 17.4 0.9 17.4 0.9 17.4 0.9C17.8 1 17.6 1 17.3 1.3 18.3 3.1 18.3 3.1 18.3 3.1 19.3 2.3 20.8 2.1 22.1 2.1 22.1 0 22.1 0 22.1 0L22.1 0 22.1 0Z" fill="#7823DC" fill-rule="evenodd" clip-rule="evenodd"/></g></svg>