<svg viewBox="0 0 32 32" xmlns="http://www.w3.org/2000/svg" xmlns:xlink="http://www.w3.org/1999/xlink" id="Graphic" overflow="hidden"><defs></defs><path d="M22.49 10 29.63 23.29 25.7 30 6.7 30 2.49 23.4 2.49 22.94 9.16 10 22.49 10M23.69 8 7.94 8 0.1 23.2 0 23.2 5.55 32 26.85 32 32 23.2 31.86 23.2 23.69 8Z" fill="#7823DC"/><path d="M19.8 2 17 6 15 6 11.9 2 19.8 2M23.73 0 7.8 0 14 8 18 8 23.67 0 23.73 0Z" fill="#7823DC"/><path d="M17.54 22.13C17.7066 21.9793 17.8012 21.7647 17.8 21.54 17.8211 21.3283 17.7203 21.1229 17.54 21.01Z" fill="#7823DC"/><path d="M15.54 18.36 15.54 17.19C15.3538 17.3112 15.2411 17.5179 15.24 17.74 15.2108 17.9874 15.3278 18.2294 15.54 18.36Z" fill="#7823DC"/><path d="M17.54 21 17.54 22.12C17.7066 21.9693 17.8012 21.7547 17.8 21.53 17.8211 21.3183 17.7203 21.1129 17.54 21Z" fill="#7823DC"/><path d="M15.54 18.36 15.54 17.19C15.3538 17.3112 15.2411 17.5179 15.24 17.74 15.2108 17.9874 15.3278 18.2294 15.54 18.36Z" fill="#7823DC"/><path d="M17 15.36 15 15.36 15 16.27C13.6946 16.3272 12.6555 17.3838 12.62 18.69 12.62 20.14 13.34 20.85 15 21.17L15 22.73C14.7172 22.5193 14.5445 22.1923 14.53 21.84L12.46 21.84C12.4943 23.2419 13.5998 24.3822 15 24.46L15 25.36 17 25.36 17 24.47C18.4304 24.459 19.581 23.2905 19.57 21.8602 19.57 21.8601 19.57 21.8601 19.57 21.86L19.57 21.86C19.57 20.32 18.57 19.71 17 19.44L17 17.94C17.2469 18.0979 17.4002 18.3671 17.41 18.66L19.41 18.66C19.3633 17.3505 18.3097 16.3013 17 16.26L17 15.36ZM15 19.1C14.7768 18.9965 14.6413 18.7653 14.66 18.52 14.6829 18.302 14.8095 18.1084 15 18ZM17 22.81 17 21.49C17.2885 21.545 17.4904 21.807 17.47 22.1 17.4759 22.4113 17.2888 22.6938 17 22.81Z" fill="#7823DC"/></svg>