<svg viewBox="0 0 32 32" xmlns="http://www.w3.org/2000/svg" xmlns:xlink="http://www.w3.org/1999/xlink" overflow="hidden"><defs></defs><g id="Graphic"><path d="M2.166 32.9382 2.166 32.9147C2.1242 32.3519 2.54661 31.8617 3.1095 31.8199 3.13155 31.8182 3.15365 31.8173 3.17576 31.8171 3.61001 31.7722 3.99906 32.0863 4.04686 32.5202L3.78906 32.5202C3.76621 32.2217 3.50573 31.9983 3.20726 32.0212 3.19772 32.0219 3.1882 32.0229 3.17871 32.0241 2.7334 32.0241 2.43652 32.3698 2.43652 32.9108L2.43652 32.9352C2.43652 33.4821 2.71289 33.8132 3.17578 33.8132 3.49987 33.8452 3.78938 33.6105 3.8252 33.2868L4.06836 33.2868C4.02346 33.7385 3.62185 34.069 3.16992 34.0261 2.63157 34.0455 2.17944 33.6248 2.16005 33.0864 2.15827 33.0369 2.16026 32.9874 2.166 32.9382Z" fill="#7823DC"/><path d="M15.0713 31.9343C15.071 31.8429 15.1449 31.7685 15.2363 31.7682 15.3277 31.7679 15.4021 31.8418 15.4023 31.9332 15.4026 32.0246 15.3288 32.099 15.2373 32.0993 15.2373 32.0993 15.2373 32.0993 15.2373 32.0993 15.1462 32.0988 15.0723 32.0253 15.0713 31.9343ZM15.1162 32.4274 15.3662 32.4274 15.3662 33.9997 15.1162 33.9997Z" fill="#7823DC"/><path d="M20.1113 31.9343C20.111 31.8429 20.1849 31.7685 20.2763 31.7682 20.3677 31.7679 20.4421 31.8418 20.4424 31.9332 20.4427 32.0246 20.3688 32.099 20.2774 32.0993 20.2774 32.0993 20.2773 32.0993 20.2773 32.0993 20.1862 32.0988 20.1124 32.0253 20.1113 31.9343ZM20.1562 32.4274 20.4062 32.4274 20.4062 33.9997 20.1562 33.9997Z" fill="#7823DC"/></g><g id="Layer_3"><path d="M5.94629 11.9011C5.24784 11.9011 4.68164 11.3349 4.68164 10.6364 4.68164 9.93797 5.24784 9.37177 5.94629 9.37177 6.64474 9.37177 7.21094 9.93797 7.21094 10.6364 7.21011 11.3345 6.64439 11.9002 5.94629 11.9011Z" fill="#7823DC"/><path d="M5.94635 10.0044C6.29454 10.0054 6.57603 10.2884 6.57506 10.6366 6.5741 10.9848 6.29105 11.2663 5.94286 11.2653 5.59467 11.2644 5.31319 10.9813 5.31415 10.6331 5.31434 10.5625 5.3264 10.4924 5.34982 10.4258 5.43941 10.1732 5.67835 10.0044 5.94635 10.0044M5.94635 8.74C4.89886 8.74001 4.04971 9.58916 4.04972 10.6367 4.04973 11.6841 4.89888 12.5333 5.94637 12.5333 6.99386 12.5333 7.84301 11.6841 7.843 10.6366 7.843 10.6366 7.843 10.6366 7.843 10.6366 7.84255 9.5893 6.99365 8.74042 5.94635 8.74Z" fill="#7823DC"/><path d="M5.946 7.497 7.476 9.515 4.417 9.515 5.946 7.497Z" fill="#7823DC"/><path d="M9.97791 5.9892 9.97791 30 1.99823 30 1.99823 5.9892 9.97791 5.9892M11.9779 3.9892-0.00177 3.9892-0.00177 32 11.9779 32 11.9779 3.9892Z" fill="#7823DC"/><path d="M18 23.168 14 23.168 14 16 10.82 16 10.82 14 16 14 16 21.168 18 21.168 18 23.168Z" fill="#7823DC"/><path d="M31.977 21.058 31.977 19.058 22.808 19.058 25.777 14.058 31.977 14.058 31.977 12.058 24.777 12.058 20.462 19.058 17.977 19.058 17.977 19.758 17.977 21.058 17.977 24.158 19.977 26.158 19.977 21.058 31.977 21.058Z" fill="#7823DC"/><path d="M31.9767 26.158 26.9883 26.158C26.6029 24.9243 25.4691 24.0774 24.1768 24.058 22.8608 24.0361 21.6922 24.8954 21.3208 26.158L19.9768 26.158 21.2086 27.3899C21.389 29.0339 22.8679 30.2205 24.5119 30.0402 25.6183 29.9188 26.566 29.1939 26.9729 28.158L31.9768 28.158ZM24.1767 28.058C23.6245 28.058 23.1767 27.6103 23.1767 27.058 23.1767 26.5057 23.6245 26.058 24.1767 26.058 24.729 26.058 25.1767 26.5057 25.1767 27.058 25.2082 27.5788 24.8114 28.0266 24.2906 28.058 24.2527 28.0603 24.2147 28.0603 24.1768 28.058Z" fill="#7823DC"/><rect x="1.05295" y="13.9997" width="10.2151" height="2" fill="#7823DC"/><rect x="3.94375" y="22.0005" width="4.05359" height="2" fill="#7823DC"/><path d="M3.944 28.061 7.997 24.007 6.583 22.593 3.944 25.232 3.944 28.061Z" fill="#7823DC"/><path d="M7.997 17.951 3.949 22 5.363 23.414 7.997 20.78 7.997 17.951Z" fill="#7823DC"/></g></svg>