<svg viewBox="0 0 32 32" xmlns="http://www.w3.org/2000/svg" xmlns:xlink="http://www.w3.org/1999/xlink" id="Layer_1" xml:space="preserve" overflow="hidden"><style>
.MsftOfcResponsive_Fill_7823dc {
 fill:#7823DC; 
}
</style>
<g id="Layer_2_00000153672027410828584440000004318808627006363015_"></g><g id="Layer_2_00000103981120671582451330000015814750687241510044_"></g><path d="M20.3 32 2.7 32C1.6 32 0.6 31.3 0.2 30.3-0.2 29.3 1.66533e-16 28.1 0.8 27.3L7.9 20.4 7.9 4 15 4 15 20.5 22.1 27.4C22.9 28.2 23.1 29.3 22.7 30.4 22.4 31.3 21.4 32 20.3 32ZM10 6.1 10 21.4 2.2 28.9C2 29.1 2 29.4 2.1 29.5 2.1 29.6 2.3 29.9 2.7 29.9L20.3 29.9C20.7 29.9 20.9 29.6 20.9 29.5 21 29.4 21 29.1 20.7 28.8L13 21.4 13 6.1 10 6.1Z" class="MsftOfcResponsive_Fill_7823dc" fill="#7823DC"/><rect x="6.5" y="4" width="10" height="2" class="MsftOfcResponsive_Fill_7823dc" fill="#7823DC"/><rect x="22" y="0" width="10" height="2" class="MsftOfcResponsive_Fill_7823dc" fill="#7823DC"/><path d="M28.6 1.8 28.6 25C28.6 25.8 27.9 26.4 27 26.4 26.1 26.4 25.4 25.8 25.4 25L25.4 1.8 28.6 1.8M30.6 0 23.4 0 23.4 25C23.4 26.8 25 28.2 27 28.2 29 28.2 30.6 26.8 30.6 25L30.6 0 30.6 0Z" class="MsftOfcResponsive_Fill_7823dc" fill="#7823DC"/><rect x="6" y="23" width="4.6" height="2" class="MsftOfcResponsive_Fill_7823dc" fill="#7823DC"/><rect x="3" y="26" width="4.6" height="2" class="MsftOfcResponsive_Fill_7823dc" fill="#7823DC"/><rect x="24" y="4" width="3" height="2" class="MsftOfcResponsive_Fill_7823dc" fill="#7823DC"/><rect x="24" y="8" width="3" height="2" class="MsftOfcResponsive_Fill_7823dc" fill="#7823DC"/><rect x="24" y="12" width="3" height="2" class="MsftOfcResponsive_Fill_7823dc" fill="#7823DC"/></svg>