<svg viewBox="0 0 31.93 31.98" xmlns="http://www.w3.org/2000/svg" xmlns:xlink="http://www.w3.org/1999/xlink" id="Layer_1" overflow="hidden"><style>
.MsftOfcResponsive_Fill_7823dc {
 fill:#7823DC; 
}
</style>
<defs></defs><g id="layer1"><g id="g18462"><g id="g18448"><path d="M3.49 14.99C1.57 14.99 0 16.57 0 18.49 0 20.41 1.58 21.99 3.49 21.99L28.43 21.99C30.35 21.99 31.92 20.41 31.92 18.49 31.92 16.57 30.35 14.99 28.43 14.99L3.49 14.99ZM3.49 16.99 28.43 16.99C29.28 16.99 29.93 17.64 29.93 18.49 29.93 19.34 29.28 19.99 28.43 19.99L3.49 19.99C2.64 19.99 1.99 19.34 1.99 18.49 1.99 17.64 2.64 16.99 3.49 16.99Z" id="path867" class="MsftOfcResponsive_Fill_7823dc" fill="#7823DC" fill-rule="evenodd"/><path d="M5.99 19.99C4.07 19.99 2.5 21.57 2.5 23.49 2.5 25.41 4.07 26.99 5.99 26.99L25.95 26.99C27.87 26.99 29.44 25.41 29.44 23.49 29.44 21.57 27.87 19.99 25.95 19.99L5.99 19.99ZM5.99 21.99 25.95 21.99C26.8 21.99 27.45 22.64 27.45 23.49 27.45 24.34 26.8 24.99 25.95 24.99L5.99 24.99C5.14 24.99 4.49 24.34 4.49 23.49 4.49 22.64 5.14 21.99 5.99 21.99Z" id="path871" class="MsftOfcResponsive_Fill_7823dc" fill="#7823DC" fill-rule="evenodd"/><path d="M8.48 24.98C6.56 24.98 4.99 26.56 4.99 28.48 4.99 30.4 6.56 31.98 8.48 31.98L23.45 31.98C25.37 31.98 26.94 30.4 26.94 28.48 26.94 26.56 25.36 24.98 23.45 24.98L8.48 24.98ZM8.48 26.98 23.45 26.98C24.3 26.98 24.95 27.63 24.95 28.48 24.95 29.33 24.3 29.98 23.45 29.98L8.48 29.98C7.63 29.98 6.98 29.33 6.98 28.48 6.98 27.63 7.63 26.98 8.48 26.98Z" id="path875" class="MsftOfcResponsive_Fill_7823dc" fill="#7823DC" fill-rule="evenodd"/><path d="M5.99 16.99C4.07 16.99 2.5 15.41 2.5 13.49 2.5 11.57 4.07 9.99 5.99 9.99L25.95 9.99C27.87 9.99 29.44 11.57 29.44 13.49 29.44 15.41 27.87 16.99 25.95 16.99L5.99 16.99ZM5.99 14.99 25.95 14.99C26.8 14.99 27.45 14.34 27.45 13.49 27.45 12.64 26.8 11.99 25.95 11.99L5.99 11.99C5.14 11.99 4.49 12.64 4.49 13.49 4.49 14.34 5.14 14.99 5.99 14.99Z" id="path879" class="MsftOfcResponsive_Fill_7823dc" fill="#7823DC" fill-rule="evenodd"/><path d="M8.48 11.99C6.56 11.99 4.99 10.41 4.99 8.49 4.99 6.57 6.56 4.99 8.48 4.99L23.45 4.99C25.37 4.99 26.94 6.57 26.94 8.49 26.94 10.41 25.36 11.99 23.45 11.99L8.48 11.99ZM8.48 9.99 23.45 9.99C24.3 9.99 24.95 9.34 24.95 8.49 24.95 7.64 24.3 6.99 23.45 6.99L8.48 6.99C7.63 6.99 6.98 7.64 6.98 8.49 6.98 9.34 7.63 9.99 8.48 9.99Z" id="path883" class="MsftOfcResponsive_Fill_7823dc" fill="#7823DC" fill-rule="evenodd"/></g><path d="M1 0C0.45 0 0 0.45 0 1L0 1C0 1.55 0.45 2 1 2 1 2 1 2 1 2L30.93 2C31.48 2 31.93 1.55 31.93 1L31.93 1C31.93 0.45 31.48 0 30.93 0 30.93 0 30.93 0 30.93 0L1 0Z" id="path887" class="MsftOfcResponsive_Fill_7823dc" fill="#7823DC" fill-rule="evenodd"/><path d="M15.96 0.33C15.41 0.33 14.96 0.78 14.96 1.33L14.96 1.33 14.96 5.33C14.96 5.88 15.41 6.33 15.96 6.33L15.96 6.33C16.51 6.33 16.96 5.88 16.96 5.33L16.96 5.33 16.96 1.33C16.96 0.78 16.51 0.33 15.96 0.33 15.96 0.33 15.96 0.33 15.96 0.33Z" id="path891" class="MsftOfcResponsive_Fill_7823dc" fill="#7823DC" fill-rule="evenodd"/></g></g><rect x="0.01" y="0" width="31.92" height="2" class="MsftOfcResponsive_Fill_7823dc" fill="#7823DC"/><circle cx="26" cy="18.49" r="1" class="MsftOfcResponsive_Fill_7823dc" fill="#7823DC"/><circle cx="9.91" cy="13.49" r="1" class="MsftOfcResponsive_Fill_7823dc" fill="#7823DC"/><circle cx="20" cy="28.57" r="1" class="MsftOfcResponsive_Fill_7823dc" fill="#7823DC"/></svg>