<svg viewBox="0 0 31.75 31.99" xmlns="http://www.w3.org/2000/svg" xmlns:xlink="http://www.w3.org/1999/xlink" id="Layer_1" overflow="hidden"><style>
.MsftOfcResponsive_Fill_7823dc {
 fill:#7823DC; 
}
</style>
<defs></defs><path d="M10.57 5.46 7.57 5.46C5.99 5.46 4.61 4.08 4.61 2.5L4.61 1 6.61 1 6.61 2.5C6.61 2.98 7.09 3.46 7.57 3.46L10.57 3.46C11.05 3.46 11.53 2.98 11.53 2.5L11.53 1 13.53 1 13.53 2.5C13.53 4.08 12.15 5.46 10.57 5.46Z" class="MsftOfcResponsive_Fill_7823dc" stroke-width="0" fill="#7823DC"/><path d="M14.71 31.99 3.29 31.99C1.48 31.99 0 30.51 0 28.68L0 3.31C0 1.48 1.47 0 3.29 0L14.72 0C16.53 0 18.01 1.48 18.01 3.31L18.01 5.62 16.01 5.62 16.01 3.31C16.01 2.59 15.43 2 14.72 2L3.29 2C2.58 2 2 2.59 2 3.31L2 28.69C2 29.41 2.58 30 3.29 30L14.72 30C15.43 30 16.01 29.41 16.01 28.69L16.01 26.38 18.01 26.38 18.01 28.69C18.01 30.51 16.54 32 14.72 32Z" class="MsftOfcResponsive_Fill_7823dc" stroke-width="0" fill="#7823DC"/><rect x="5.61" y="23.99" width="6.92" height="2" class="MsftOfcResponsive_Fill_7823dc" stroke-width="0" fill="#7823DC"/><g><path d="M24.97 25.35 19.29 25.35 18.46 22.62 15.51 23.11 12.73 18.15 14.71 16 12.73 13.85 15.51 8.89 18.49 9.38 19.41 6.65 25.11 6.65 26.03 9.46 28.99 8.97 31.77 13.82 29.78 16.06 31.77 18.22 28.99 23.18 25.98 22.68 24.98 25.35ZM20.76 23.35 23.57 23.35 24.66 20.44 27.91 20.98 29.29 18.51 27.52 16.59 27.52 15.64 27.77 15.27 29.28 13.57 27.9 11.17 24.61 11.71 23.61 8.65 20.81 8.65 20.08 10.82 18.97 11.49 16.54 11.09 15.16 13.56 16.93 15.48 16.93 16.52 15.16 18.44 16.54 20.91 19.84 20.37 20.75 23.36Z" class="MsftOfcResponsive_Fill_7823dc" stroke-width="0" fill="#7823DC"/><path d="M22.19 19.99C19.98 19.99 18.24 18.26 18.24 16.06 18.24 13.86 19.98 12.13 22.19 12.13 24.4 12.13 26.14 13.86 26.14 16.06 26.13 18.2 24.32 19.99 22.19 19.99ZM22.19 14.12C21.1 14.12 20.24 14.97 20.24 16.05 20.24 17.13 21.1 17.98 22.19 17.98 23.28 17.98 24.13 17.09 24.14 16.04 24.14 14.96 23.28 14.11 22.19 14.11Z" class="MsftOfcResponsive_Fill_7823dc" stroke-width="0" fill="#7823DC"/></g></svg>