<svg viewBox="0 0 32 32" xmlns="http://www.w3.org/2000/svg" xmlns:xlink="http://www.w3.org/1999/xlink" xml:space="preserve" overflow="hidden"><style>
.MsftOfcResponsive_Fill_7823dc {
 fill:#7823DC; 
}
</style>
<g id="Layer_3"></g><g id="Layer_1"></g><g id="Layer_2"></g><g id="Layer_4"></g><g id="Layer_5"><g><g id="g1771" transform="translate(256 257.603)"><path d="M-240-225.67C-245.87-225.67-251.21-228.66-254.29-233.66L-254.61-234.18-254.29-234.7C-251.21-239.7-245.87-242.69-240-242.69-234.13-242.69-228.79-239.7-225.71-234.7L-225.39-234.18-225.71-233.66C-228.79-228.66-234.13-225.67-240-225.67ZM-252.25-234.19C-249.5-230.1-244.96-227.67-240-227.67-235.04-227.67-230.5-230.09-227.75-234.19-230.51-238.28-235.04-240.71-240-240.71-244.96-240.71-249.5-238.28-252.25-234.19Z" class="MsftOfcResponsive_Fill_7823dc" fill="#7823DC"/></g><g id="g1775" transform="translate(256 33.0005)"><path d="M-240-2.18C-244.08-2.18-247.4-5.5-247.4-9.58-247.4-13.66-244.08-16.98-240-16.98-235.92-16.98-232.6-13.66-232.6-9.58-232.6-5.5-235.92-2.18-240-2.18ZM-240-14.98C-242.98-14.98-245.4-12.56-245.4-9.58-245.4-6.6-242.98-4.18-240-4.18-237.02-4.18-234.6-6.6-234.6-9.58-234.6-12.56-237.02-14.98-240-14.98Z" class="MsftOfcResponsive_Fill_7823dc" fill="#7823DC"/></g><g id="g1779" transform="translate(256 106.302)"><path d="M-240-80.02C-241.58-80.02-242.86-81.3-242.86-82.88-242.86-84.46-241.58-85.74-240-85.74-238.42-85.74-237.14-84.46-237.14-82.88-237.14-81.31-238.42-80.02-240-80.02ZM-240-83.74C-240.47-83.74-240.86-83.36-240.86-82.88-240.86-82.4-240.47-82.02-240-82.02-239.53-82.02-239.14-82.41-239.14-82.88-239.14-83.35-239.53-83.74-240-83.74Z" class="MsftOfcResponsive_Fill_7823dc" fill="#7823DC"/></g><g id="g1783" transform="translate(256 179.001)"><rect x="-241" y="-170.03" width="2" height="12.8" class="MsftOfcResponsive_Fill_7823dc" fill="#7823DC"/></g><g id="g1787" transform="translate(204 496.998)"><path d="M-186.22-490.1-189.78-490.1-192.22-492.55-192.22-496.93-190.22-496.93-190.22-493.37-188.95-492.1-187.05-492.1-185.78-493.37-185.78-496.93-183.78-496.93-183.78-492.55Z" class="MsftOfcResponsive_Fill_7823dc" fill="#7823DC"/></g><path d="M18.86 10.62 13.14 10.62 13.14 4.9 18.86 4.9 18.86 10.62ZM15.14 8.62 16.86 8.62 16.86 6.9 15.14 6.9 15.14 8.62Z" class="MsftOfcResponsive_Fill_7823dc" fill="#7823DC"/></g></g></svg>