<svg viewBox="0 0 32.01 31.91" xmlns="http://www.w3.org/2000/svg" xmlns:xlink="http://www.w3.org/1999/xlink" id="Layer_1" overflow="hidden"><style>
.MsftOfcResponsive_Fill_7823dc {
 fill:#7823DC; 
}
</style>
<defs></defs><path d="M2.72 13.14C2.16 13.14 1.59 13.09 1.02 13 0.82 12.97 0.63 12.87 0.48 12.72 0.15 12.39 0.06 11.88 0.05 11.55-0.24 10.03 0.68 8.41 2.32 7.42 1.29 5.65 1.29 3.7 2.42 2.56 3.53 1.45 5.52 1.48 7.33 2.52 8.32 0.67 9.93-0.3 11.54 0.08 12.07 0.1 12.38 0.42 12.5 0.53 12.65 0.68 12.74 0.86 12.78 1.07 13.34 4.38 12.33 7.71 10.06 9.97L9.95 10.08C7.96 12.07 5.4 13.14 2.73 13.14ZM2.05 11.54C2.05 11.54 2.05 11.54 2.05 11.54 2.05 11.54 2.05 11.54 2.05 11.54ZM2.01 11.1C4.41 11.32 6.75 10.44 8.53 8.66L8.64 8.55C10.31 6.88 11.13 4.46 10.89 2 10.09 2 9.19 2.92 8.71 4.36 8.61 4.68 8.35 4.92 8.03 5.01 7.71 5.1 7.36 5.02 7.11 4.8 5.85 3.71 4.35 3.47 3.84 3.97 3.33 4.48 3.51 5.91 4.58 7.15 4.8 7.4 4.88 7.74 4.79 8.06 4.71 8.38 4.47 8.64 4.16 8.75 2.83 9.22 1.9 10.26 2.01 11.11Z" class="MsftOfcResponsive_Fill_7823dc" fill="#7823DC"/><path d="M28.94 31.91C23.08 31.91 10.63 22.7 8.36 20.44 5.92 18 5 14.43 6.01 11.33 6.18 10.81 6.75 10.52 7.27 10.69 7.79 10.86 8.08 11.43 7.91 11.95 7.13 14.34 7.86 17.11 9.77 19.02 13.88 23.13 27.74 31.74 29.75 29.73 30.28 29.2 30.2 26.61 26.54 20.3 24.02 15.95 20.63 11.34 19.04 9.75 18.33 9.04 17.4 8.44 16.34 8.01 15.3 7.66 13.62 7.35 11.89 7.98 11.37 8.17 10.8 7.91 10.61 7.39 10.42 6.87 10.68 6.3 11.2 6.11 13.48 5.27 15.63 5.66 17.03 6.14 18.38 6.69 19.55 7.44 20.44 8.34 22.11 10.01 25.57 14.67 28.25 19.3 33.66 28.63 31.77 30.53 31.15 31.15 30.62 31.68 29.85 31.91 28.92 31.91Z" class="MsftOfcResponsive_Fill_7823dc" fill="#7823DC"/><rect x="9.44" y="17.36" width="6.04" height="2" class="MsftOfcResponsive_Fill_7823dc" fill="#7823DC" transform="matrix(0.707107 -0.707107 0.707107 0.707107 -9.33 14.19)"/><rect x="20.97" y="15.61" width="3.49" height="2" class="MsftOfcResponsive_Fill_7823dc" fill="#7823DC" transform="matrix(0.707107 -0.707107 0.707107 0.707107 -5.09 20.93)"/><rect x="20.12" y="24.57" width="4.53" height="2" class="MsftOfcResponsive_Fill_7823dc" fill="#7823DC" transform="matrix(0.707107 -0.707107 0.707107 0.707107 -11.52 23.32)"/></svg>