<svg viewBox="0 0 32 32" xmlns="http://www.w3.org/2000/svg" xmlns:xlink="http://www.w3.org/1999/xlink" id="Layer_1" overflow="hidden"><style>
.MsftOfcResponsive_Fill_7823dc {
 fill:#7823DC; 
}
</style>
<defs></defs><g><g><path d="M3.93 4.68C3.93 4.68 3.84 4.77 3.81 4.81L2.4 3.39C2.4 3.39 2.48 3.31 2.52 3.27 4.15 1.57 4.11 0.21 4.11 0.15L4.11 0 6.11 0 6.11 0.09C6.12 0.24 6.22 2.32 3.93 4.68Z" class="MsftOfcResponsive_Fill_7823dc" fill="#7823DC"/><path d="M2.02 9.99 0.02 9.99 0.02 8.19C0.02 8.06 0.11 5.68 2.52 3.27L3.93 4.68C2.12 6.49 2.02 8.15 2.02 8.22L2.02 9.98Z" class="MsftOfcResponsive_Fill_7823dc" fill="#7823DC"/></g><path d="M9.81 4.79 8.4 3.38C10.15 1.62 10.11 0.19 10.11 0.13L10.11 -1.11022e-16 12.11 -1.11022e-16 12.11 0.07C12.12 0.23 12.22 2.38 9.81 4.79Z" class="MsftOfcResponsive_Fill_7823dc" fill="#7823DC"/><path d="M8.02 10 6.02 10 6.02 8.17C6.02 8.04 6.11 5.66 8.52 3.25L9.93 4.66C8.12 6.47 8.02 8.13 8.02 8.2L8.02 10Z" class="MsftOfcResponsive_Fill_7823dc" fill="#7823DC"/></g><path d="M9.85 26.17C8.63 26.17 7.42 26 6.25 25.66 2.33 24.47-0.01 21.66-0.01 18.15-0.01 13.58 7.68 10 17.49 10 22.31 10 26.72 10.84 29.92 12.36 31.45 13.08 32.22 14.59 31.89 16.21 31.6 17.67 30.32 19.18 28.14 19.27L26.6 19.27C24.74 19.27 22.87 19.95 21.35 21.19 19.39 22.77 17.01 24.5 14.22 25.41 12.82 25.92 11.33 26.17 9.84 26.17ZM17.5 12C8.37 12 2 15.24 2 18.15 2 20.73 3.81 22.83 6.83 23.74 8.97 24.37 11.44 24.29 13.58 23.52 16.09 22.7 18.28 21.09 20.1 19.63 21.98 18.11 24.29 17.27 26.61 17.27L28.11 17.27C29.24 17.22 29.81 16.46 29.94 15.82 29.99 15.55 30.09 14.65 29.07 14.18L29.07 14.18C26.14 12.78 22.03 12.01 17.5 12.01Z" class="MsftOfcResponsive_Fill_7823dc" fill="#7823DC"/><path d="M10.81 21.53C7.98 21.53 5.77 20.04 5.77 18.15 5.77 16.26 7.98 14.77 10.81 14.77 13.64 14.77 15.85 16.26 15.85 18.15 15.85 20.04 13.64 21.53 10.81 21.53ZM10.81 16.77C8.98 16.77 7.77 17.6 7.77 18.15 7.77 18.7 8.98 19.53 10.81 19.53 12.64 19.53 13.85 18.7 13.85 18.15 13.85 17.6 12.64 16.77 10.81 16.77Z" class="MsftOfcResponsive_Fill_7823dc" fill="#7823DC"/><path d="M9.92 32C8.71 32 7.52 31.83 6.37 31.49 2.39 30.43 0 27.67 0 24.1L0 18.15 2 18.15 2 24.1C2 25.35 2.48 28.39 6.91 29.56 9.09 30.2 11.44 30.13 13.71 29.34 15.91 28.62 17.97 27.39 20.19 25.48 21.9 23.99 24.34 23.09 26.73 23.09L28.23 23.09C29.29 23.09 29.93 22.33 30 21.61L30 15.75C30 15.75 32 15.75 32 15.75L32 21.7C31.84 23.39 30.47 25.08 28.23 25.08L26.73 25.08C24.82 25.08 22.86 25.79 21.5 26.98 19.07 29.07 16.79 30.42 14.35 31.23 12.89 31.73 11.39 31.99 9.92 31.99Z" class="MsftOfcResponsive_Fill_7823dc" fill="#7823DC"/></svg>