<svg viewBox="0 0 32 32" xmlns="http://www.w3.org/2000/svg" xmlns:xlink="http://www.w3.org/1999/xlink" overflow="hidden"><defs></defs><g id="Grid"><path d="M5.6 22.62C5.90419 22.6117 6.20855 22.6285 6.51 22.67 6.89261 22.711 7.24764 22.8885 7.51 23.17L25.73 4.79 27.15 6.2 8 25.51C8.2478 25.9629 8.58859 26.3582 9 26.67 9.12293 26.7943 9.25316 26.9112 9.39 27.02L30 6.18 25.72 2 5.24 22.63Z" fill="#7823DC"/><path d="M28.84 7.87 24.06 3.13 27.25-0.09 32 4.65ZM26.89 3.12 28.83 5 29.21 4.62 27.27 2.74Z" fill="#7823DC"/><path d="M12.23 32 0 32 0 26.13 12.23 26.13ZM2 30 10.26 30 10.26 28.13 2 28.13Z" fill="#7823DC"/><path d="M8.92 28.13 1.5 28.13 1.5 22.26 8.92 22.26ZM3.5 26.13 6.92 26.13 6.92 24.26 3.5 24.26Z" fill="#7823DC"/><path d="M22.35 13.02 20.5 13.78 27.97 32 30.13 32 22.35 13.02Z" fill="#7823DC"/></g></svg>