<svg viewBox="0 0 32 32" xmlns="http://www.w3.org/2000/svg" xmlns:xlink="http://www.w3.org/1999/xlink" overflow="hidden"><defs></defs><g id="Grid"><path d="M16 0.5C7.43959 0.5 0.5 7.43959 0.5 16 0.5 24.5604 7.43959 31.5 16 31.5 24.5604 31.5 31.5 24.5604 31.5 16 31.4945 7.44187 24.5581 0.505516 16 0.5ZM16 29.5C8.54416 29.5 2.5 23.4558 2.5 16 2.5 8.54416 8.54416 2.5 16 2.5 23.4558 2.5 29.5 8.54416 29.5 16 29.489 23.4513 23.4513 29.489 16 29.5Z" fill="#7823DC"/><path d="M18.25 25 23 25 23 7 18.25 7ZM20.25 9 21 9 21 23 20.25 23Z" fill="#7823DC"/><path d="M9 25 13.75 25 13.75 7 9 7ZM11 9 11.75 9 11.75 23 11 23Z" fill="#7823DC"/></g></svg>