<svg viewBox="0 0 32 32" xmlns="http://www.w3.org/2000/svg" xmlns:xlink="http://www.w3.org/1999/xlink" id="Layer_1" overflow="hidden"><g><g><rect x="0" y="16" width="2.1" height="16" fill="#7823DC"/><path d="M28.6 14.9 29.1 14.9C29.3 14.9 29.6 14.9 29.8 14.9L30.3 14.9 32 13.5 32 11 31.7 10.9 29.5 12.8 29.4 12.8 27.1 10.9 23.4 13 24 15.8 24 15.8 21.2 16.7 21.2 18.7 21.2 18.7 21.2 19.1 14.8 25.2 5.1 16 2.1 16 14.7 28 22 21.1 22.3 21.2 22.3 21.2 24 21.7 24.1 21.8 23.5 24.6 27.1 26.6 27.2 26.7 27.2 26.7 27.3 26.6 27.3 32 29.4 32 29.4 24.7 29.5 24.7 31.8 26.6 32 26.5 32 23.9 30.4 22.5 29.9 22.5C29.8 22.5 29.8 22.5 29.7 22.5L29.5 22.5 29.4 22.5 29.2 22.5 29.2 22.5C29.2 22.5 29.2 22.5 29.1 22.5L28.6 22.5 27.6 23.4 27.6 23.4 26.9 24 26 23.5 26.4 21.3 26.1 20.9C26 20.7 25.8 20.5 25.7 20.3L25.5 19.9 24 19.4 24 19.4 23.3 19.2 23.3 18.2 25.5 17.5 25.7 17C25.7 16.9 25.8 16.8 25.8 16.7 25.8 16.6 25.9 16.6 25.9 16.5L26.2 16.1 26.2 15.9 26.1 15.6 26.1 15.6 25.9 14 26.8 13.5 28.6 14.9Z" fill="#7823DC"/></g><path d="M14.4 2.6 14.4 3.1 15.9 3.1 15.9 2.6C15.7 2.6 15.4 2.6 15.2 2.6 15 2.6 14.6 2.6 14.4 2.6Z" fill="#7823DC"/><g><rect x="4" y="7.6" width="21.4" height="2" fill="#7823DC"/><path d="M21.7 9.5C21.7 9.7 21.7 9.9 21.7 10 21.7 13.4 18.7 16.1 15.1 16.1 11.5 16.1 8.5 13.4 8.5 10 8.5 9.8 8.5 9.6 8.5 9.5L6.3 9.5C6.3 9.7 6.3 9.9 6.3 10 6.3 14.5 10.3 18.2 15.1 18.2 19.9 18.2 23.9 14.5 23.9 10 23.9 9.8 23.9 9.6 23.9 9.5L21.7 9.5Z" fill="#7823DC"/><path d="M17.9 0.5C17.2 0.3 16.5 0.1 15.8 0.1 15.6 0.1 15.3 0.1 15.1 0.1 14.9 0.1 14.6 0.1 14.4 0.1 13.7 0.2 13 0.3 12.3 0.5 8.8 1.6 6.3 4.8 6.3 8.4 6.3 8.4 6.3 8.5 6.3 8.5L8.5 8.5C8.5 8.5 8.5 8.4 8.5 8.4 8.5 5.9 10.1 3.7 12.3 2.7L12.3 4.6 18 4.6 18 2.7C20.2 3.7 21.8 5.9 21.8 8.4 21.8 8.4 21.8 8.5 21.8 8.5L24 8.5C24 8.5 24 8.4 24 8.4 23.9 4.7 21.4 1.6 17.9 0.5ZM15.8 2.7 14.3 2.7 14.3 2.2C14.5 2.2 14.8 2.2 15 2.2 15.2 2.2 15.5 2.2 15.7 2.2L15.7 2.7Z" fill="#7823DC"/></g></g></svg>