<svg viewBox="0 0 366.23 368.63" xmlns="http://www.w3.org/2000/svg" xmlns:xlink="http://www.w3.org/1999/xlink" id="Layer_2" overflow="hidden"><style>
.MsftOfcResponsive_Fill_7823dc {
 fill:#7823DC; 
}
</style>
<defs></defs><path d="M479.9 289.83C445.768 329.381 394.485 349.791 342.51 344.51L395.05 386.13 395.12 386.23C400.995 390.693 406.325 395.832 411 401.54 421.614 414.37 428.507 429.865 430.93 446.34 401.316 491.448 350.96 518.59 297 518.53 208.62 518.53 137 447.14 137 359.07 137 357.64 137 356.22 137.06 354.8L137.18 354.8 137.18 351.85C137.18 351.06 137.25 350.26 137.29 349.47L137.18 349.47 137.18 347.05C141.88 263.93 210.02 197.05 294.25 195.93 297.47 195.93 300.57 195.49 303.75 195.63L303.75 195.71 414.75 195.71 414.75 195.71 445.54 195.71 445.71 195.71 448 195.71 448.18 195.71 449.69 195.71 449.76 195.71C454.21 197.125 457.213 201.281 457.16 205.95 457.16 206.818 457.046 207.682 456.82 208.52L456.82 208.52C455.914 223.904 451.159 238.813 442.99 251.88 418.8 291.33 371 306 336.11 284.68 315.92 272.33 304.53 250.59 303.19 226.83L281.57 239.29C284.316 256.563 291.726 272.758 303 286.13 292.637 288.925 282.866 293.573 274.16 299.85 255.26 313.47 243.16 333.28 238.4 355.25L238.4 355.33C236.47 380.18 243.79 406.52 260.18 429.27 281.53 458.91 313.93 475.27 345.84 476L353.31 452.82C326.31 454.74 297.55 441.46 279 415.71 266.027 397.876 260.146 375.857 262.5 353.93L262.56 353.93C270.885 325.354 297.107 305.73 326.87 305.8 372.32 331.61 432.61 313.31 462.8 263.99 472.815 247.746 478.604 229.254 479.64 210.2 479.836 208.741 479.936 207.272 479.94 205.8 479.83 188.666 466.674 174.443 449.6 173L449.6 172.85 114.26 172.85 114.26 345.33C114.02 349.45 113.91 353.62 113.95 357.81 113.95 358.23 113.95 358.65 113.95 359.07 113.95 459.8 195.9 541.47 296.95 541.47 398 541.47 479.95 459.8 479.95 359.07 479.95 358.22 480 357.58 479.95 356.73L479.95 356.53 479.95 322.27 480.04 322.19ZM137.13 195.71 208.7 195.71C178.663 212.281 153.869 236.936 137.13 266.88ZM457.19 349.47 457.13 350.47C457.32 353.64 456.99 355.84 456.99 359.07 457.009 378.683 453.387 398.129 446.31 416.42 437.284 394.565 421.832 375.967 402 363.09 421.572 358.338 440.221 350.377 457.19 339.53Z" class="MsftOfcResponsive_Fill_7823dc" fill="#7823DC" transform="translate(-113.93 -172.84)"/><circle cx="243.2" cy="51.83" r="14.71" class="MsftOfcResponsive_Fill_7823dc" fill="#7823DC"/></svg>