<svg viewBox="0 0 512 512" xmlns="http://www.w3.org/2000/svg" xmlns:xlink="http://www.w3.org/1999/xlink" id="Capa_1" overflow="hidden"><style>
.MsftOfcResponsive_Fill_7823dc {
 fill:#7823DC; 
}
</style>
<g><g><g><path d="M480 384 480 336C479.958 297.996 453.226 265.249 416 257.6L416 128 448 128 448 192 480 192 480 96 416 96 416 0 384 0 384 64 128 64 128 0 96 0 96 96 32 96 32 192 64 192 64 128 96 128 96 257.6C58.774 265.249 32.042 297.996 32 336L32 384 0 384 0 416 64 416 64 464C64 490.51 85.49 512 112 512 138.51 512 160 490.51 160 464L160 416 352 416 352 464C352 490.51 373.49 512 400 512 426.51 512 448 490.51 448 464L448 416 512 416 512 384 480 384ZM128 96 384 96 384 192 128 192 128 96ZM128 464C128 472.837 120.837 480 112 480 103.163 480 96 472.837 96 464L96 416 128 416 128 464ZM416 464C416 472.837 408.837 480 400 480 391.163 480 384 472.837 384 464L384 416 416 416 416 464ZM448 384 64 384 64 336C64 309.49 85.49 288 112 288L128 288 128 224 384 224 384 288 400 288C426.51 288 448 309.49 448 336L448 384Z" class="MsftOfcResponsive_Fill_7823dc" fill="#7823DC"/><rect x="160" y="256" width="192" height="32" class="MsftOfcResponsive_Fill_7823dc" fill="#7823DC"/><rect x="160" y="320" width="192" height="32" class="MsftOfcResponsive_Fill_7823dc" fill="#7823DC"/><rect x="96" y="320" width="32" height="32" class="MsftOfcResponsive_Fill_7823dc" fill="#7823DC"/><rect x="384" y="320" width="32" height="32" class="MsftOfcResponsive_Fill_7823dc" fill="#7823DC"/></g></g></g><g></g><g></g><g></g><g></g><g></g><g></g><g></g><g></g><g></g><g></g><g></g><g></g><g></g><g></g><g></g></svg>