<svg viewBox="0 0 32 32" xmlns="http://www.w3.org/2000/svg" xmlns:xlink="http://www.w3.org/1999/xlink" id="Layer_1" xml:space="preserve" overflow="hidden"><style>
.MsftOfcResponsive_Fill_7823dc {
 fill:#7823DC; 
}
</style>
<g><path d="M22 14 30 14 30 22 28.2 22 28.2 24 32 24 32 15.9 28.1 12 22 12 22 14 22 14 22 14Z" class="MsftOfcResponsive_Fill_7823dc" fill="#7823DC" fill-rule="evenodd" clip-rule="evenodd"/><path d="M4 24 4 22 1.9 22 1.9 8 22 8 22 22 8.1 22 8.1 24 23.9 24 23.9 9.9 20 6 0 6 0 24 4 24 4 24 4 24Z" class="MsftOfcResponsive_Fill_7823dc" fill="#7823DC" fill-rule="evenodd" clip-rule="evenodd"/><path d="M26 18 31 18 31 20 26 20 26 18Z" class="MsftOfcResponsive_Fill_7823dc" fill="#7823DC" fill-rule="evenodd" clip-rule="evenodd"/><path d="M22 22 25.4 22 25.4 24 22 24 22 22Z" class="MsftOfcResponsive_Fill_7823dc" fill="#7823DC" fill-rule="evenodd" clip-rule="evenodd"/><path d="M26.7 26C25.2 26 24.1 24.8 24.1 23.4 24.1 21.9 25.3 20.8 26.7 20.8 28.1 20.8 29.3 22 29.3 23.4 29.4 24.8 28.2 26 26.7 26L26.7 26ZM26.7 22.7C26.3 22.7 26 23 26 23.4 26 23.8 26.3 24.1 26.7 24.1 27.1 24.1 27.4 23.8 27.4 23.4 27.4 22.9 27.1 22.7 26.7 22.7L26.7 22.7Z" class="MsftOfcResponsive_Fill_7823dc" fill="#7823DC" fill-rule="evenodd" clip-rule="evenodd"/><path d="M5.9 26C4.4 26 3.3 24.8 3.3 23.4 3.3 21.9 4.5 20.8 5.9 20.8 7.3 20.8 8.5 22 8.5 23.4 8.7 24.8 7.4 26 5.9 26L5.9 26ZM5.9 22.7C5.5 22.7 5.2 23 5.2 23.4 5.2 23.8 5.5 24.1 5.9 24.1 6.3 24.1 6.6 23.8 6.6 23.4 6.6 22.9 6.3 22.7 5.9 22.7L5.9 22.7Z" class="MsftOfcResponsive_Fill_7823dc" fill="#7823DC" fill-rule="evenodd" clip-rule="evenodd"/><path d="M22 13.3 24 13.3 24 24 22 24 22 13.3Z" class="MsftOfcResponsive_Fill_7823dc" fill="#7823DC" fill-rule="evenodd" clip-rule="evenodd"/><path d="M12 18.1 3.9 18.1 3.9 10.1 11.9 10.1 12 18.1 12 18.1 12 18.1ZM5.9 16.1 10 16.1 10 12.1 5.9 12.1 5.9 16.1 5.9 16.1 5.9 16.1Z" class="MsftOfcResponsive_Fill_7823dc" fill="#7823DC" fill-rule="evenodd" clip-rule="evenodd"/><path d="M20 18.1 13.9 18.1 13.9 12.1 19.9 12.1 20 18.1 20 18.1 20 18.1ZM15.9 16.1 17.9 16.1 17.9 14.1 15.9 14.1 15.9 16.1 15.9 16.1 15.9 16.1Z" class="MsftOfcResponsive_Fill_7823dc" fill="#7823DC" fill-rule="evenodd" clip-rule="evenodd"/></g></svg>