<svg viewBox="0 0 32 32" xmlns="http://www.w3.org/2000/svg" xmlns:xlink="http://www.w3.org/1999/xlink" id="Graphic" overflow="hidden"><defs></defs><path d="M29.3988 18.1024 20.8 20.8126 20.8 17.3517 18.5762 17.6022 15.3032 17.9707 10.1393 16.1265 9.30409 15.8281 8.52223 16.247 5.29292 17.977 0 17.977 0 28.01 5.32281 28.01 15.1631 32 30.9445 23.7729 32 23.2074 32 17.2826ZM30 22.01 15.0667 29.7828 5.73334 26.01 2 26.01 2 19.977 5.79486 19.977 9.46667 18.01 15.0667 20.01 18.8 19.5896 18.8 21.5896 17.7167 21.9407 13.9537 22.7024 13.9537 24.5582 17.9065 23.8302 17.9072 23.8214 30 20.01Z" fill="#7823DC"/><path d="M12.8872 10.6016 12.8188 10.1514 10.8076 10.1514 10.8652 10.7344C11.0466 12.9143 12.7703 14.6475 14.9492 14.8408L14.9492 16.0107 16.9512 16.0107 16.9512 14.8906C19.4864 14.6299 21.0377 13.1191 21.0377 10.8594 21.0377 8.11523 19.1534 7.39453 16.9512 6.96289L16.9512 3.05762C17.8447 3.25216 18.5241 3.98002 18.6568 4.88477L18.7491 5.30077 20.7657 5.30077 20.6637 4.68358C20.4295 2.77119 18.8732 1.29282 16.9513 1.15722L16.9513-0.0166 14.9493-0.0166 14.9493 1.13086C13.0933 1.42386 11.2681 2.64844 11.2681 4.84473 11.2681 7.16992 12.6646 8.02637 14.9493 8.54785L14.9493 12.9258C13.823 12.6933 12.9839 11.7475 12.8872 10.6016ZM14.9492 3.02056 14.9492 6.54492C13.5156 6.1416 13.2422 5.63379 13.2422 4.79785 13.2838 3.86064 14.0144 3.09986 14.9492 3.02051ZM16.9512 13.0245 16.9512 8.96973C18.5513 9.36035 19.0122 9.84473 19.0122 10.958 19.0122 12.3496 17.9902 12.8623 16.9512 13.0244Z" fill="#7823DC"/></svg>