<svg viewBox="0 0 32 32" xmlns="http://www.w3.org/2000/svg" xmlns:xlink="http://www.w3.org/1999/xlink" id="Layer_1" overflow="hidden"><style>
.MsftOfcResponsive_Fill_7823dc {
 fill:#7823DC; 
}
</style>
<path d="M14 32 0 32 0 12 8 12 8 24 14 24 14 32ZM2 30 12 30 12 26 6 26 6 14 2 14 2 30Z" class="MsftOfcResponsive_Fill_7823dc" fill="#7823DC"/><path d="M32 20 24 20 24 14 18 14 18 0 26 0 26 6 32 6 32 20ZM26 18 30 18 30 8 24 8 24 2 20 2 20 12 26 12 26 18Z" class="MsftOfcResponsive_Fill_7823dc" fill="#7823DC"/><path d="M26 32 12 32 12 26 14 26 14 30 24 30 24 26 18 26 18 20 8 20 8 24 6 24 6 18 20 18 20 24 26 24 26 32Z" class="MsftOfcResponsive_Fill_7823dc" fill="#7823DC"/><rect x="8" y="24" width="4" height="2" class="MsftOfcResponsive_Fill_7823dc" fill="#7823DC"/></svg>