<svg viewBox="0 0 32 32" xmlns="http://www.w3.org/2000/svg" xmlns:xlink="http://www.w3.org/1999/xlink" id="Layer_2_1_" xml:space="preserve" overflow="hidden"><g><g><path d="M16.1 16.1C15.5 17 14.7 17.5 13.9 17.5 12.2 17.5 10.8 15.4 10.8 13 10.7 10.4 12.1 8.4 13.9 8.4 14.7 8.4 15.5 8.9 16 9.7L18.3 9.7C17.4 7.7 15.8 6.4 13.9 6.4 11.1 6.4 8.7 9.4 8.7 12.9 8.7 16.4 11 19.4 13.9 19.4 15.8 19.4 17.5 18 18.4 16.1L16.1 16.1 16.1 16.1 16.1 16.1Z" fill="#7823DC" fill-rule="evenodd" clip-rule="evenodd"/><path d="M7.4 9.8 14.7 9.8 14.7 11.8 7.4 11.8Z" fill="#7823DC" fill-rule="evenodd" clip-rule="evenodd"/><path d="M7.4 13.3 14.7 13.3 14.7 15.4 7.4 15.4Z" fill="#7823DC" fill-rule="evenodd" clip-rule="evenodd"/></g><path d="M12.9 2C18.9 2 23.8 6.9 23.8 12.9 23.8 18.9 18.9 23.8 12.9 23.8 6.9 23.8 2 18.9 2 12.9 2 6.9 6.9 2 12.9 2M12.9 0C5.8 0 0 5.8 0 12.9 0 20 5.8 25.8 12.9 25.8 20 25.8 25.8 20 25.8 12.9 25.8 5.8 20 0 12.9 0L12.9 0 12.9 0 12.9 0Z" fill="#7823DC" fill-rule="evenodd" clip-rule="evenodd"/></g><path d="M32 29.4 32 32 20.4 22.8 21.6 21.2Z" fill="#7823DC"/></svg>