<svg viewBox="0 0 32 32" xmlns="http://www.w3.org/2000/svg" xmlns:xlink="http://www.w3.org/1999/xlink" id="Graphic" overflow="hidden"><defs></defs><path d="M16 22.8203C14.9669 22.8215 13.9763 22.4094 13.249 21.6758 11.1814 22.2364 9.05078 21.0147 8.49019 18.9471 8.48823 18.9398 8.48628 18.9326 8.48436 18.9253 6.41423 18.3775 5.18013 16.2552 5.72793 14.1851 5.73005 14.1771 5.73219 14.1691 5.73436 14.1611 4.21517 12.6516 4.20733 10.1964 5.71684 8.67719 5.72266 8.67133 5.7285 8.66549 5.73436 8.65967 5.17315 6.59301 6.39356 4.4627 8.46023 3.90149 8.46826 3.89931 8.47631 3.89715 8.48436 3.89502 9.03293 1.82418 11.1564 0.590127 13.2272 1.1387 13.2345 1.14062 13.2418 1.14257 13.249 1.14453 14.7589-0.374804 17.2145-0.38249 18.7338 1.12736 18.7396 1.13307 18.7453 1.13879 18.751 1.14453 20.8179 0.583549 22.9483 1.80436 23.5093 3.8713 23.5114 3.87919 23.5135 3.88709 23.5156 3.895 25.5859 4.44288 26.82 6.56528 26.2721 8.63552 26.27 8.64357 26.2678 8.65161 26.2656 8.65965 27.7848 10.1692 27.7927 12.6244 26.2831 14.1436 26.2773 14.1494 26.2715 14.1553 26.2656 14.1611 26.8267 16.2277 25.6062 18.3578 23.5396 18.9188 23.5316 18.921 23.5236 18.9232 23.5156 18.9253 22.9671 20.9961 20.8436 22.2302 18.7728 21.6816 18.7655 21.6797 18.7582 21.6777 18.751 21.6758 18.0237 22.4094 17.0331 22.8215 16 22.8203ZM13.918 19.1772 14.4102 19.9438C14.9645 20.8219 16.1257 21.0843 17.0037 20.53 17.2403 20.3806 17.4405 20.1804 17.5899 19.9438L18.0821 19.1772 18.8916 19.5957C19.8101 20.0786 20.9463 19.7255 21.4292 18.807 21.5594 18.5594 21.6326 18.2859 21.6436 18.0063L21.6856 17.0962 22.5958 17.0537C23.6326 17.013 24.4401 16.1395 24.3994 15.1027 24.3885 14.8229 24.3151 14.5491 24.1847 14.3013L23.7666 13.4917 24.5342 12.9995C25.4119 12.4453 25.6741 11.2846 25.1199 10.407 24.9707 10.1706 24.7706 9.97054 24.5342 9.82129L23.7666 9.32959 24.1847 8.51953C24.6681 7.60128 24.3156 6.46498 23.3974 5.98152 23.1495 5.85102 22.8756 5.77759 22.5957 5.7666L21.6856 5.72412 21.6436 4.81396C21.6028 3.77702 20.7292 2.96944 19.6922 3.01018 19.4127 3.02117 19.1392 3.09442 18.8916 3.22461L18.082 3.64307 17.5898 2.87646C17.0355 1.99842 15.8743 1.73599 14.9963 2.29032 14.7597 2.43966 14.5595 2.63991 14.4101 2.87646L13.9179 3.64307 13.1083 3.22461C12.1894 2.74197 11.0531 3.09569 10.5705 4.01466 10.4406 4.2619 10.3675 4.53496 10.3565 4.814L10.3145 5.72416 9.4043 5.7666C8.36736 5.80734 7.55977 6.68097 7.60051 7.71792 7.61151 7.9978 7.68494 8.27168 7.81543 8.51953L8.23343 9.32959 7.46585 9.82129C6.58821 10.3755 6.32598 11.5362 6.88015 12.4138 7.0294 12.6502 7.22949 12.8503 7.46585 12.9995L8.23343 13.4917 7.81543 14.3013C7.33213 15.2195 7.68468 16.3556 8.60288 16.8389 8.85068 16.9693 9.12449 17.0427 9.4043 17.0537L10.3145 17.0962 10.3565 18.0063C10.3972 19.0433 11.2709 19.8509 12.3078 19.8101 12.5873 19.7991 12.8608 19.7259 13.1084 19.5957Z" fill="#7823DC"/><path d="M16 17.8633C12.436 17.8633 9.54687 14.9741 9.54686 11.4102 9.54685 7.84619 12.436 4.95702 16 4.95702 19.5639 4.95701 22.4531 7.84617 22.4531 11.4101 22.4492 14.9725 19.5623 17.8593 16 17.8633ZM16 6.957C13.5406 6.95699 11.5469 8.95072 11.5469 11.4101 11.5469 13.8695 13.5406 15.8633 16 15.8633 18.4594 15.8633 20.4531 13.8695 20.4531 11.4101 20.4502 8.95194 18.4582 6.95989 16 6.95701Z" fill="#7823DC"/><path d="M10.545 32.067 8.591 25.686 2.212 27.639 8.071 16.596 9.838 17.533 6.241 24.314 9.917 23.188 11.043 26.862 14.44 20.457 16.207 21.394 10.545 32.067Z" fill="#7823DC"/><path d="M21.455 32.067 15.793 21.394 17.56 20.457 20.957 26.862 22.083 23.188 25.759 24.314 22.162 17.533 23.929 16.596 29.788 27.639 23.409 25.686 21.455 32.067Z" fill="#7823DC"/></svg>