<svg viewBox="0 0 32 32" xmlns="http://www.w3.org/2000/svg" xmlns:xlink="http://www.w3.org/1999/xlink" overflow="hidden"><defs></defs><g id="a"></g><g id="b"><g id="c"></g><path d="M29.8619 28.1381 29.8619 29.8619 2.13809 29.8619 2.13809 28.1381 29.8619 28.1381M32 26 0 26 0 32 32 32 32 26 32 26Z" fill="#7823DC"/><path d="M24 4 24 26 8 26 8 4 24 4M26 2 6 2 6 28 26 28 26 2 26 2Z" fill="#7823DC"/><path d="M30 10 30 30 26 30 26 10 30 10M32 8 24 8 24 32 32 32 32 8 32 8Z" fill="#7823DC"/><path d="M6 10 6 30 2 30 2 10 6 10M8 8 0 8 0 32 8 32 8 8 8 8Z" fill="#7823DC"/><path d="M32 29.9697 0 29.9697 0 32 32 32 32 29.9697 32 29.9697Z" fill="#7823DC"/><path d="M28 0 4 0 4 2.03032 28 2.03032 28 0 28 0Z" fill="#7823DC"/><path d="M8 18 6 18 6 22 8 22 8 18 8 18Z" fill="#7823DC"/><path d="M9.11627 26 7.11627 26 7.11627 30 9.11627 30 9.11627 26 9.11627 26Z" fill="#7823DC"/><path d="M8 12 6 12 6 16 8 16 8 12 8 12Z" fill="#7823DC"/><path d="M8 6 6 6 6 10 8 10 8 6 8 6Z" fill="#7823DC"/><path d="M13.1163 26 11.1163 26 11.1163 30 13.1163 30 13.1163 26 13.1163 26Z" fill="#7823DC"/><path d="M22 6 10 6 10 8 22 8 22 6 22 6Z" fill="#7823DC"/><path d="M22 10 10 10 10 12 22 12 22 10 22 10Z" fill="#7823DC"/><path d="M22 14 10 14 10 16 22 16 22 14 22 14Z" fill="#7823DC"/><path d="M22 18 10 18 10 20 22 20 22 18 22 18Z" fill="#7823DC"/><path d="M22 22 10 22 10 24 22 24 22 22 22 22Z" fill="#7823DC"/><path d="M17.1163 26 15.1163 26 15.1163 30 17.1163 30 17.1163 26 17.1163 26Z" fill="#7823DC"/><path d="M21.1163 26 19.1163 26 19.1163 30 21.1163 30 21.1163 26 21.1163 26Z" fill="#7823DC"/><path d="M25.1163 26 23.1163 26 23.1163 30 25.1163 30 25.1163 26 25.1163 26Z" fill="#7823DC"/></g></svg>