<svg width="36.5" height="36.6" viewBox="0 0 36.5 36.6" xmlns="http://www.w3.org/2000/svg" xmlns:xlink="http://www.w3.org/1999/xlink" overflow="hidden"><defs></defs><g><g><defs><path d="M0 36.5 36.5 36.5 36.5 0 0 0 0 36.5Z" id="SVGID_1_" fill="#7823DC"/></defs><clipPath id="SVGID_2_"><use width="100%" height="100%" xlink:href="#SVGID_1_"></use></clipPath><g clip-path="url(#SVGID_2_)"><defs><path d="M0 36.5 36.5 36.5 36.5 0 0 0 0 36.5Z" id="SVGID_3_" fill="#7823DC"/></defs><clipPath id="SVGID_4_"><use width="100%" height="100%" xlink:href="#SVGID_3_"></use></clipPath><path d="M18.2 2.4 20.7 3.2C22.3 3.8 24 4 25.6 4 26.9 4 28.1 3.8 29.3 3.5L31.9 2.8C31.9 7.4 31.7 17.9 30.8 21.3 29.3 27.3 25 30.5 18.2 33.8 11.4 30.5 7.1 27.3 5.6 21.3 4.8 18 4.6 7.5 4.6 2.9L7.2 3.6C8.4 3.9 9.6 4 10.9 4 12.6 4 14.2 3.7 15.8 3.2L18.2 2.4M34.2 0 28.8 1.4C27.8 1.7 26.7 1.8 25.6 1.8 24.2 1.8 22.8 1.6 21.4 1.1L18.2 0 15 1.1C13.7 1.5 12.3 1.8 10.8 1.8 9.7 1.8 8.7 1.7 7.6 1.4L2.3 0 2.3 2.3C2.3 2.3 2.3 17.4 3.4 22 5.3 29.5 10.8 33 17.8 36.3L18.2 36.6 18.6 36.3C25.6 33 31.1 29.5 33 22 34.1 17.4 34.1 2.3 34.1 2.3L34.1 0Z" fill="#7823DC" clip-path="url(#SVGID_4_)"/><path d="M18.3 25 11.7 17 13.4 15.5 18.1 21.2 26.4 8.7 28.3 10Z" fill="#7823DC" clip-path="url(#SVGID_4_)"/></g></g></g></svg>