<svg viewBox="0 0 32 32" xmlns="http://www.w3.org/2000/svg" xmlns:xlink="http://www.w3.org/1999/xlink" overflow="hidden"><style>
.MsftOfcResponsive_Fill_7823dc {
 fill:#7823DC; 
}
</style>
<defs></defs><g id="Layer_3"><path d="M16 0 0.04953 7.32 0.04953 32 32.0495 32 32.0495 7.32ZM30.0495 30 2.04953 30 2.04953 8.68 16 2.16 30.0495 8.68Z" class="MsftOfcResponsive_Fill_7823dc" fill="#7823DC"/><path d="M21.5495 17 21.5495 8 10.5495 8 10.5495 17 6.04953 17 6.04953 28 26.0495 28 26.0495 17ZM12.5495 10 14.5495 10 14.5495 12 17.5495 12 17.5495 10 19.5495 10 19.5495 17 12.5495 17ZM15.0495 26 8.04953 26 8.04953 19 10.0495 19 10.0495 21 13.0495 21 13.0495 19 15.0495 19ZM24.0495 26 17.0495 26 17.0495 19 19.0495 19 19.0495 21 22.0495 21 22.0495 19 24.0495 19Z" class="MsftOfcResponsive_Fill_7823dc" fill="#7823DC"/></g></svg>