<svg viewBox="0 0 32 32" xmlns="http://www.w3.org/2000/svg" xmlns:xlink="http://www.w3.org/1999/xlink" id="Layer_1" xml:space="preserve" overflow="hidden"><g><path d="M112 101.6 131.8 101.6 127.6 106.2 115.7 106.2 115.7 119.4 112 123.5 112 101.6Z" fill="#7823DC" fill-rule="evenodd" clip-rule="evenodd"/><path d="M112 156.9 131.8 156.9 127.6 152.2 115.7 152.2 115.7 139 112 134.9 112 156.9Z" fill="#7823DC" fill-rule="evenodd" clip-rule="evenodd"/><path d="M172 101.6 152.2 101.6 156.4 106.2 168.3 106.2 168.3 119.4 172 123.5 172 101.6Z" fill="#7823DC" fill-rule="evenodd" clip-rule="evenodd"/><path d="M172 156.9 152.2 156.9 156.4 152.2 168.3 152.2 168.3 139 172 134.9 172 156.9Z" fill="#7823DC" fill-rule="evenodd" clip-rule="evenodd"/><path d="M133.4 130.1C133.4 125 137.1 120.9 141.7 120.9 146.3 120.9 150 125 150 130.1 150 135.2 146.3 139.3 141.7 139.3 137.1 139.3 133.4 135.2 133.4 130.1L133.4 130.1ZM137.5 130.1C137.5 132.9 139.4 135.2 141.7 135.2 144 135.2 145.9 132.9 145.9 130.1 145.9 127.3 144 125 141.7 125 139.4 125.1 137.5 127.3 137.5 130.1L137.5 130.1Z" fill="#7823DC" fill-rule="evenodd" clip-rule="evenodd"/></g><g><path d="M0 4 10.6 4 8.3 6.1 2 6.1 2 11.8 0 13.5 0 4Z" fill="#7823DC" fill-rule="evenodd" clip-rule="evenodd"/><path d="M0 28 10.6 28 8.3 25.9 2 25.9 2 20.2 0 18.5 0 28Z" fill="#7823DC" fill-rule="evenodd" clip-rule="evenodd"/><path d="M32.1 4 21.5 4 23.7 6.1 30.1 6.1 30.1 11.8 32.1 13.5 32.1 4Z" fill="#7823DC" fill-rule="evenodd" clip-rule="evenodd"/><path d="M32.1 28 21.5 28 23.7 25.9 30.1 25.9 30.1 20.2 32.1 18.5 32.1 28Z" fill="#7823DC" fill-rule="evenodd" clip-rule="evenodd"/></g><path d="M16 20.8C13.4 20.8 11.2 18.7 11.2 16 11.2 13.4 13.3 11.2 16 11.2 18.7 11.2 20.8 13.3 20.8 16 20.8 18.6 18.6 20.8 16 20.8ZM16 13.2C14.5 13.2 13.2 14.5 13.2 16 13.2 17.5 14.5 18.8 16 18.8 17.5 18.8 18.8 17.5 18.8 16 18.8 14.5 17.5 13.2 16 13.2Z" fill="#7823DC"/></svg>