<svg viewBox="0 0 32 32" xmlns="http://www.w3.org/2000/svg" xmlns:xlink="http://www.w3.org/1999/xlink" id="Layer_2_1_" xml:space="preserve" overflow="hidden"><style>
.MsftOfcResponsive_Fill_7823dc {
 fill:#7823DC; 
}
</style>
<path d="M32 29.4 32 32 20.4 22.8 21.6 21.2Z" class="st0 MsftOfcResponsive_Fill_7823dc" fill="#7823DC"/><g><g><path d="M12.9 2C18.9 2 23.8 6.9 23.8 12.9 23.8 18.9 18.9 23.8 12.9 23.8 6.9 23.8 2 18.9 2 12.9 2 6.9 6.9 2 12.9 2M12.9 0C5.8 0 0 5.8 0 12.9 0 20 5.8 25.8 12.9 25.8 20 25.8 25.8 20 25.8 12.9 25.8 5.8 20 0 12.9 0L12.9 0 12.9 0 12.9 0Z" class="st1 MsftOfcResponsive_Fill_7823dc" fill="#7823DC" fill-rule="evenodd" clip-rule="evenodd"/></g><path d="M12.9 9.5C11 9.5 9.4 11 9.4 12.9 9.4 14.8 11 16.3 12.9 16.3 14.8 16.3 16.4 14.8 16.4 12.9 16.4 11 14.8 9.5 12.9 9.5L12.9 9.5ZM12.9 14.3C12.1 14.3 11.4 13.7 11.4 12.9 11.4 12.1 12.1 11.5 12.9 11.5 13.7 11.5 14.4 12.1 14.4 12.9 14.4 13.7 13.7 14.3 12.9 14.3L12.9 14.3Z" class="st2 MsftOfcResponsive_Fill_7823dc" fill="#7823DC" fill-rule="evenodd" clip-rule="evenodd"/><path d="M7 8.5C6.1 9.1 5.3 9.9 4.6 10.8L4.6 15.2C7.9 19.5 14.2 20.5 18.7 17.4 19.6 16.8 20.4 16 21.1 15.1L21.1 10.8C17.9 6.4 11.6 5.4 7 8.5L7 8.5ZM12.9 17.1C9.8 17.1 7 15.4 5.5 12.9 6.9 10.3 9.8 8.7 12.9 8.7 16 8.7 18.8 10.4 20.3 12.9 18.8 15.5 16 17.2 12.9 17.1L12.9 17.1Z" class="st2 MsftOfcResponsive_Fill_7823dc" fill="#7823DC" fill-rule="evenodd" clip-rule="evenodd"/></g></svg>