<svg viewBox="0 0 32 32" xmlns="http://www.w3.org/2000/svg" xmlns:xlink="http://www.w3.org/1999/xlink" xml:space="preserve" overflow="hidden"><style>
.MsftOfcResponsive_Fill_7823dc {
 fill:#7823DC; 
}
</style>
<g id="Layer_3"></g><g id="Layer_1"></g><g id="Layer_2"></g><g id="Layer_4"></g><g id="Layer_5"><path d="M12.2 32.02C12.19 31.52 11.77 19.87 0.34 19.65 0.09 19.66-0.05 19.65-0.07 19.65L-1.11022e-16 17.65C0.19 17.65 0.38 17.65 0.57 17.66 2.67 17.61 10.58 16.68 12.27 5.38L14.25 5.43C14.3 5.93 15.54 17.56 26.54 17.65L26.6 19.65C26.09 19.68 14.2 20.58 14.2 32L12.2 32.02ZM5.45 18.55C9.81 20.17 12 23.68 13.1 26.7 14.77 22.23 18.49 19.95 21.58 18.8 16.78 17.05 14.42 12.92 13.28 9.75 11.51 14.88 8.29 17.36 5.45 18.55Z" class="MsftOfcResponsive_Fill_7823dc" fill="#7823DC"/><path d="M25.02 12C25.01 11.49 24.75 7.06 20.21 6.99 20.1 6.99 20.04 6.99 20.03 6.99L20.1 4.99C20.2 4.99 20.29 4.99 20.39 4.99 21.31 4.97 24.37 4.54 25.06-0.05L27.05 0.01C27.07 0.21 27.59 4.96 32.02 4.99L32.07 6.99C31.87 7 27.03 7.39 27.03 11.98L25.02 12ZM23.77 5.93C24.78 6.54 25.51 7.39 26.01 8.3 26.65 7.29 27.53 6.55 28.46 6.04 27.37 5.37 26.59 4.41 26.05 3.42 25.42 4.6 24.6 5.39 23.77 5.93Z" class="MsftOfcResponsive_Fill_7823dc" fill="#7823DC"/></g></svg>