<svg width="29.68" height="32" viewBox="0 0 29.68 32" xmlns="http://www.w3.org/2000/svg" xmlns:xlink="http://www.w3.org/1999/xlink" overflow="hidden"><style>
.MsftOfcResponsive_Fill_7823dc {
 fill:#7823DC; 
}
</style>
<defs></defs><g><g><path d="M14.85 24.03 7.9 20.02 7.9 11.99 14.85 7.98 21.8 11.99 21.8 20.02 14.85 24.03ZM9.89 18.86 14.84 21.72 19.79 18.86 19.79 13.14 14.84 10.28 9.89 13.14 9.89 18.86Z" class="MsftOfcResponsive_Fill_7823dc" fill="#7823DC"/></g><g><rect x="13.85" y="0" width="2" height="9.13" class="MsftOfcResponsive_Fill_7823dc" fill="#7823DC"/></g><g><rect x="13.85" y="22.88" width="2" height="9.13" class="MsftOfcResponsive_Fill_7823dc" fill="#7823DC"/></g><g><path d="M17.43 1.98 14.84 4.58 12.26 1.98 9.43 1.98 14.85 7.41 20.24 1.98Z" class="MsftOfcResponsive_Fill_7823dc" fill="#7823DC"/></g><g><path d="M12.26 30.02 14.84 27.42 17.43 30.02 20.25 30.02 14.85 24.59 9.44 30.02Z" class="MsftOfcResponsive_Fill_7823dc" fill="#7823DC"/></g><g><rect x="20.19" y="9.29" width="9.13" height="2" class="MsftOfcResponsive_Fill_7823dc" fill="#7823DC" transform="matrix(0.8661 -0.4999 0.4999 0.8661 -1.8273 13.7505)"/></g><g><rect x="0.38" y="20.72" width="9.12" height="2" class="MsftOfcResponsive_Fill_7823dc" fill="#7823DC" transform="matrix(0.8661 -0.4999 0.4999 0.8661 -10.1979 5.379)"/></g><g><path d="M28.27 11.23 24.73 10.29 25.69 6.75 24.28 4.31 22.28 11.71 29.68 13.67Z" class="MsftOfcResponsive_Fill_7823dc" fill="#7823DC"/></g><g><path d="M1.41 20.77 4.95 21.71 3.99 25.25 5.41 27.7 7.41 20.3 0 18.33Z" class="MsftOfcResponsive_Fill_7823dc" fill="#7823DC"/></g><g><rect x="3.93" y="5.72" width="2" height="9.13" class="MsftOfcResponsive_Fill_7823dc" fill="#7823DC" transform="matrix(0.5001 -0.866 0.866 0.5001 -6.4413 9.4133)"/></g><g><rect x="23.74" y="17.16" width="2" height="9.13" class="MsftOfcResponsive_Fill_7823dc" fill="#7823DC" transform="matrix(0.5 -0.866 0.866 0.5 -6.4406 32.2904)"/></g><g><path d="M1.41 11.23 4.95 10.29 3.99 6.75 5.41 4.31 7.4 11.71 0 13.67Z" class="MsftOfcResponsive_Fill_7823dc" fill="#7823DC"/></g><g><path d="M28.27 20.77 24.73 21.71 25.69 25.25 24.28 27.7 22.28 20.3 29.68 18.33Z" class="MsftOfcResponsive_Fill_7823dc" fill="#7823DC"/></g></g></svg>