<svg width="27.94" height="31.3" viewBox="0 0 27.94 31.3" xmlns="http://www.w3.org/2000/svg" xmlns:xlink="http://www.w3.org/1999/xlink" overflow="hidden"><defs></defs><g><path d="M21.83 20.78 17.57 20.78 17.57 18.78 21.83 18.78C24.1 18.78 25.94 17 25.94 14.81 25.94 12.63 24.1 10.85 21.85 10.84L20.56 10.84 20.89 9.59C21.01 9.14 21.07 8.67 21.07 8.19 21.06 4.78 18 2 14.24 2 10.88 2 7.97 4.27 7.49 7.28L7.38 7.98 6.68 8.1C3.96 8.57 2 10.76 2 13.3 2 16.27 4.64 18.78 7.76 18.78L10.62 18.78 10.62 20.78 7.76 20.78C3.48 20.78 0 17.42 0 13.3 0 10 2.34 7.14 5.66 6.28 6.59 2.66 10.16 0 14.24 0 19.1 0 23.06 3.67 23.06 8.19 23.06 8.45 23.05 8.7 23.02 8.95 25.82 9.49 27.94 11.92 27.94 14.81 27.94 18.1 25.2 20.78 21.83 20.78Z" fill="#7823DC"/></g><g><path d="M8.85 16.87C6.89 16.87 5.31 15.14 5.31 13.02 5.31 10.9 6.9 9.17 8.85 9.17 10.19 9.17 11.4 9.97 12.01 11.27L10.2 12.12C9.93 11.54 9.41 11.17 8.85 11.17 8 11.17 7.31 12 7.31 13.02 7.31 14.04 8 14.87 8.85 14.87 9.48 14.87 10.06 14.4 10.29 13.69L12.19 14.31C11.69 15.84 10.35 16.87 8.85 16.87Z" fill="#7823DC"/></g><g><path d="M16.35 16.87C14.43 16.87 12.86 15.14 12.86 13.02 12.86 10.9 14.42 9.17 16.35 9.17 18.28 9.17 19.84 10.9 19.84 13.02 19.83 15.15 18.27 16.87 16.35 16.87ZM16.35 11.18C15.53 11.18 14.86 12.01 14.86 13.03 14.86 14.05 15.53 14.88 16.35 14.88 17.17 14.88 17.84 14.05 17.84 13.03 17.84 12.01 17.17 11.18 16.35 11.18Z" fill="#7823DC"/></g><g><g><path d="M22.23 17.24 22.23 17.88 19.8 17.88C19.83 17.64 19.9 17.41 20.04 17.19 20.17 16.97 20.43 16.68 20.82 16.33 21.13 16.04 21.32 15.84 21.39 15.74 21.48 15.6 21.53 15.46 21.53 15.32 21.53 15.17 21.49 15.05 21.41 14.96 21.33 14.88 21.21 14.84 21.07 14.84 20.93 14.84 20.81 14.88 20.73 14.97 20.64 15.06 20.59 15.2 20.58 15.4L19.89 15.33C19.93 14.95 20.06 14.68 20.28 14.51 20.5 14.34 20.77 14.26 21.09 14.26 21.45 14.26 21.73 14.36 21.93 14.55 22.13 14.74 22.23 14.98 22.23 15.27 22.23 15.43 22.2 15.59 22.14 15.73 22.08 15.88 21.99 16.03 21.86 16.19 21.78 16.3 21.63 16.45 21.41 16.65 21.19 16.85 21.05 16.98 21 17.05 20.94 17.12 20.89 17.18 20.86 17.24L22.23 17.24Z" fill="#7823DC"/><path d="M22.48 18.13 19.53 18.13 19.56 17.85C19.59 17.57 19.68 17.31 19.83 17.06 19.98 16.82 20.25 16.52 20.65 16.14 21.04 15.78 21.15 15.64 21.19 15.59 21.26 15.49 21.29 15.4 21.29 15.31 21.29 15.23 21.27 15.17 21.24 15.13 21.22 15.11 21.19 15.08 21.07 15.08 20.97 15.08 20.93 15.11 20.9 15.14 20.88 15.16 20.83 15.23 20.82 15.41L20.8 15.67 19.6 15.55 19.63 15.3C19.68 14.85 19.84 14.52 20.11 14.31 20.37 14.11 20.69 14.01 21.07 14.01 21.49 14.01 21.83 14.13 22.08 14.37 22.33 14.61 22.46 14.91 22.46 15.27 22.46 15.47 22.42 15.65 22.36 15.83 22.29 16 22.19 16.18 22.05 16.35 21.96 16.47 21.8 16.63 21.57 16.84 21.51 16.9 21.45 16.95 21.4 17L22.47 17 22.47 18.13ZM20.11 17.63 21.98 17.63 21.98 17.49 20.42 17.49 20.64 17.11C20.68 17.03 20.74 16.96 20.81 16.88 20.87 16.81 21.01 16.67 21.24 16.46 21.45 16.27 21.59 16.12 21.67 16.03 21.78 15.89 21.86 15.76 21.91 15.63 21.96 15.52 21.98 15.39 21.98 15.26 21.98 15.04 21.91 14.87 21.75 14.73 21.59 14.58 21.38 14.51 21.08 14.51 20.81 14.51 20.59 14.57 20.42 14.71 20.31 14.8 20.23 14.93 20.18 15.11L20.36 15.13C20.4 14.99 20.46 14.88 20.54 14.79 20.81 14.52 21.32 14.52 21.58 14.78 21.71 14.91 21.78 15.09 21.78 15.31 21.78 15.5 21.72 15.69 21.6 15.87 21.55 15.95 21.43 16.1 20.99 16.51 20.62 16.85 20.37 17.12 20.26 17.32 20.19 17.42 20.15 17.52 20.11 17.63Z" fill="#7823DC"/></g></g><g><g><g><rect x="13.01" y="18.75" width="2" height="11.13" fill="#7823DC"/></g></g><g><g><path d="M13.93 31.3 10.47 27.73 10.45 24.87 13.97 28.46 17.58 24.89 17.56 27.73Z" fill="#7823DC"/></g></g></g></svg>