<svg viewBox="0 0 32 32" xmlns="http://www.w3.org/2000/svg" xmlns:xlink="http://www.w3.org/1999/xlink" id="Layer_1" overflow="hidden"><style>
.MsftOfcResponsive_Fill_7823dc {
 fill:#7823DC; 
}
</style>
<defs></defs><path d="M16 32C7.18 32 0 24.82 0 16 0 7.18 7.18 0 16 0 24.82 0 32 7.18 32 16 32 24.82 24.82 32 16 32ZM16 2C8.28 2 2 8.28 2 16 2 23.72 8.28 30 16 30 23.72 30 30 23.72 30 16 30 8.28 23.72 2 16 2Z" class="MsftOfcResponsive_Fill_7823dc" fill="#7823DC"/><path d="M16 17C15.45 17 15 16.55 15 16 15 10.96 12.38 6.41 7.99 3.82 7.51 3.54 7.36 2.93 7.64 2.45 7.92 1.97 8.53 1.82 9.01 2.1 14.01 5.05 17 10.25 17 16 17 16.55 16.55 17 16 17Z" class="MsftOfcResponsive_Fill_7823dc" fill="#7823DC"/><path d="M8.5 30.04C7.95 30.04 7.5 29.59 7.5 29.04 7.5 23.28 10.57 17.95 15.5 15.13 15.98 14.85 16.59 15.02 16.86 15.5 17.13 15.98 16.97 16.59 16.49 16.86 12.17 19.33 9.49 23.99 9.49 29.03 9.49 29.58 9.04 30.03 8.49 30.03Z" class="MsftOfcResponsive_Fill_7823dc" fill="#7823DC"/><path d="M23.48 19C20.73 19 17.99 18.29 15.51 16.87 15.03 16.6 14.86 15.99 15.14 15.51 15.41 15.03 16.02 14.86 16.5 15.14 20.86 17.63 26.1 17.63 30.51 15.14 30.99 14.87 31.6 15.04 31.87 15.52 32.14 16 31.97 16.61 31.49 16.88 28.97 18.3 26.22 19.01 23.48 19.01Z" class="MsftOfcResponsive_Fill_7823dc" fill="#7823DC"/><path d="M24.08 18.96C23.53 18.96 23.08 18.51 23.08 17.96L23.08 16.58C23.08 9.75 18.7 3.75 12.66 2.32 12.12 2.19 11.79 1.65 11.92 1.12 12.05 0.59 12.58 0.25 13.12 0.38 20.05 2.02 25.08 8.83 25.08 16.59L25.08 17.97C25.08 18.52 24.63 18.97 24.08 18.97Z" class="MsftOfcResponsive_Fill_7823dc" fill="#7823DC"/><path d="M4.92 27.04C4.49 27.04 4.1 26.76 3.96 26.33 1.83 19.45 5.23 11.68 12.04 7.85 12.4 7.61 12.94 7.34 13.37 7.2 13.89 7.03 14.46 7.31 14.63 7.83 14.8 8.35 14.52 8.92 14 9.09 13.74 9.18 13.36 9.37 13.08 9.55 7.02 12.95 4.02 19.74 5.87 25.73 6.03 26.26 5.74 26.82 5.21 26.98 5.11 27.01 5.01 27.02 4.92 27.02Z" class="MsftOfcResponsive_Fill_7823dc" fill="#7823DC"/><path d="M19.84 25.99C16.85 25.99 13.77 25.19 10.99 23.55 10.79 23.42 10.61 23.32 10.43 23.21 10.21 23.08 9.98 22.95 9.79 22.82 9.33 22.51 9.21 21.89 9.51 21.43 9.82 20.97 10.44 20.85 10.9 21.15 11.06 21.25 11.24 21.36 11.42 21.46 11.64 21.59 11.86 21.71 12.05 21.84 17.92 25.3 25.31 24.5 29.57 19.92 29.94 19.51 30.58 19.49 30.98 19.87 31.38 20.25 31.41 20.88 31.03 21.28 28.16 24.37 24.07 25.98 19.83 25.98Z" class="MsftOfcResponsive_Fill_7823dc" fill="#7823DC"/></svg>