<svg width="36.7" height="36.6" viewBox="0 0 36.7 36.6" xmlns="http://www.w3.org/2000/svg" xmlns:xlink="http://www.w3.org/1999/xlink" overflow="hidden"><defs></defs><g><g><defs><path d="M0 36.5 36.5 36.5 36.5 0 0 0 0 36.5Z" id="SVGID_1_" fill="#7823DC"/></defs><clipPath id="SVGID_2_"><use width="100%" height="100%" xlink:href="#SVGID_1_"></use></clipPath><g clip-path="url(#SVGID_2_)"><defs><path d="M0 36.5 36.5 36.5 36.5 0 0 0 0 36.5Z" id="SVGID_3_" fill="#7823DC"/></defs><clipPath id="SVGID_4_"><use width="100%" height="100%" xlink:href="#SVGID_3_"></use></clipPath><path d="M15.4 36.6 16.3 21.2 18.5 22.5 17.7 36.6 15.4 36.6 15.4 36.6Z" fill="#7823DC" clip-path="url(#SVGID_4_)"/><path d="M21.4 36.6 20.6 22.1 18.4 22.2 19.1 36.6 21.4 36.6 21.4 36.6Z" fill="#7823DC" clip-path="url(#SVGID_4_)"/><path d="M18.4 16.3 18.4 2.3 18.4 2.3 20.4 13.9 19.2 16.4C20 16.6 20.6 17.1 21 17.8L22.8 14.2 20.3 0 16 0 16 17.1C16.2 16.8 16.5 16.6 16.9 16.5 17.4 16.3 17.9 16.2 18.4 16.3L18.4 16.3Z" fill="#7823DC" clip-path="url(#SVGID_4_)"/><path d="M21.3 18.7C21.5 19.5 21.3 20.4 20.8 21L33.5 27.9 33.5 27.9 22.4 24.1 20.5 21.4C20.3 21.7 20 21.9 19.6 22.1 19.2 22.3 18.8 22.4 18.4 22.4L21 26 34.7 30.6 36.7 26.9 21.3 18.7 21.3 18.7Z" fill="#7823DC" clip-path="url(#SVGID_4_)"/><path d="M16.1 21.5 14.2 24.2 3.1 27.9 3.1 27.9 15.8 21.1C15.7 21 15.6 20.8 15.5 20.7 15.2 20.1 15.1 19.4 15.3 18.8L0 26.9 2 30.7 15.7 26.1 18.3 22.4C17.4 22.4 16.7 22.1 16.1 21.5L16.1 21.5Z" fill="#7823DC" clip-path="url(#SVGID_4_)"/><path d="M18.2 23.7C17.8 23.7 17.5 23.7 17.1 23.6L16.8 23.5C15.8 23.2 14.9 22.4 14.4 21.5 14.3 21.3 14.2 21.1 14.1 20.8 14 20.6 14 20.4 13.9 20.2 13.8 19.3 13.9 18.4 14.3 17.6 14.7 16.9 15.3 16.3 16 15.9 16.4 15.7 16.9 15.5 17.4 15.4 18.1 15.3 18.8 15.4 19.4 15.6 19.7 15.7 20 15.8 20.3 16 21.2 16.6 21.8 17.4 22.1 18.5 22.2 18.7 22.2 18.9 22.2 19.1 22.3 19.4 22.3 19.8 22.2 20.1 22.1 21.2 21.5 22.3 20.6 23 20.4 23.1 20.2 23.3 20 23.4 19.6 23.6 19.1 23.8 18.6 23.9 18.7 23.6 18.4 23.7 18.2 23.7ZM17.8 21.3C18 21.4 18.3 21.4 18.6 21.3 18.8 21.3 19 21.2 19.2 21.1 19.3 21 19.4 21 19.5 20.9 19.9 20.6 20.2 20.1 20.2 19.6 20.2 19.4 20.2 19.3 20.2 19.2L20.2 19C20.1 18.5 19.8 18.1 19.3 17.8 19.2 17.7 19.1 17.7 18.9 17.6 18.6 17.5 18.3 17.5 18 17.5 17.8 17.5 17.6 17.6 17.4 17.7 17.1 17.9 16.8 18.2 16.6 18.5 16.4 18.9 16.3 19.3 16.4 19.7 16.4 19.8 16.4 19.9 16.5 20 16.5 20.1 16.6 20.2 16.6 20.3 16.8 20.8 17.2 21.1 17.7 21.3L17.8 21.3ZM20.1 19 21.2 19 20.1 19C20.1 18.9 20.1 18.9 20.1 19Z" fill="#7823DC" clip-path="url(#SVGID_4_)"/></g></g></g></svg>