<svg width="36.5" height="36.6" viewBox="0 0 36.5 36.6" xmlns="http://www.w3.org/2000/svg" xmlns:xlink="http://www.w3.org/1999/xlink" overflow="hidden"><defs></defs><g><g><defs><path d="M0 36.5 36.5 36.5 36.5 0 0 0 0 36.5Z" id="SVGID_1_" fill="#7823DC"/></defs><clipPath id="SVGID_2_"><use width="100%" height="100%" xlink:href="#SVGID_1_"></use></clipPath><g clip-path="url(#SVGID_2_)"><defs><path d="M0 36.5 36.5 36.5 36.5 0 0 0 0 36.5Z" id="SVGID_3_" fill="#7823DC"/></defs><clipPath id="SVGID_4_"><use width="100%" height="100%" xlink:href="#SVGID_3_"></use></clipPath><path d="M17.1 3.4 14.8 3.4C14.2 3.4 13.7 3.9 13.7 4.5 13.7 5.1 14.2 5.6 14.8 5.6L17.1 5.6C17.7 5.6 18.2 5.1 18.2 4.5 18.2 3.9 17.7 3.4 17.1 3.4L17.1 3.4Z" fill="#7823DC" clip-path="url(#SVGID_4_)"/><path d="M21.7 3.4C21.1 3.4 20.6 3.9 20.6 4.5 20.6 5.1 21.1 5.6 21.7 5.6 22.3 5.6 22.8 5.1 22.8 4.5 22.8 3.9 22.3 3.4 21.7 3.4L21.7 3.4Z" fill="#7823DC" clip-path="url(#SVGID_4_)"/><path d="M19.4 32C19.4 32.6 18.9 33.1 18.3 33.1 17.7 33.1 17.2 32.6 17.2 32 17.2 31.4 17.7 30.9 18.3 30.9 18.9 30.9 19.4 31.4 19.4 32L19.4 32Z" fill="#7823DC" clip-path="url(#SVGID_4_)"/><path d="M27.4 6.9 8.8 6.9 8.8 9.1 27.4 9.1 27.4 6.9 27.4 6.9 27.4 6.9Z" fill="#7823DC" clip-path="url(#SVGID_4_)"/><path d="M27.4 33.3C27.4 33.9 26.9 34.3 26.4 34.3L10.1 34.3C9.5 34.3 9.1 33.8 9.1 33.3L9.1 3.3C9.1 2.7 9.6 2.3 10.1 2.3L27.3 2.3 25.1 0 10.1 0C8.3 0 6.8 1.5 6.8 3.3L6.8 33.3C6.8 35.1 8.3 36.6 10.1 36.6L26.3 36.6C28.1 36.6 29.6 35.1 29.6 33.3L29.6 4.6 27.3 2.3 27.3 33.3 27.4 33.3Z" fill="#7823DC" clip-path="url(#SVGID_4_)"/></g></g></g></svg>