<svg viewBox="0 0 32 32" xmlns="http://www.w3.org/2000/svg" xmlns:xlink="http://www.w3.org/1999/xlink" id="Layer_1" xml:space="preserve" overflow="hidden"><g><path d="M16 24.8C17.5 24.8 18.7 26 18.7 27.5 18.7 29 17.5 30.2 16 30.2 14.5 30.2 13.3 29 13.3 27.5 13.3 26 14.5 24.8 16 24.8M16 23C13.5 23 11.5 25 11.5 27.5 11.5 30 13.5 32 16 32 18.5 32 20.5 30 20.5 27.5 20.5 25 18.5 23 16 23L16 23 16 23 16 23Z" fill="#7823DC" fill-rule="evenodd" clip-rule="evenodd"/><path d="M4.5 7.3C6 7.3 7.2 8.5 7.2 10 7.2 11.5 6 12.6 4.5 12.6 3 12.6 1.8 11.4 1.8 10 1.8 8.6 3 7.3 4.5 7.3M4.5 5.5C2 5.5 0 7.5 0 10 0 12.5 2 14.5 4.5 14.5 7 14.5 9 12.4 9 10 9 7.6 7 5.5 4.5 5.5L4.5 5.5 4.5 5.5 4.5 5.5Z" fill="#7823DC" fill-rule="evenodd" clip-rule="evenodd"/><path d="M27.5 7.3C29 7.3 30.2 8.5 30.2 10 30.2 11.5 29 12.7 27.5 12.7 26 12.7 24.8 11.5 24.8 10 24.8 8.5 26 7.3 27.5 7.3M27.5 5.5C25 5.5 23 7.5 23 10 23 12.5 25 14.5 27.5 14.5 30 14.5 32 12.5 32 10 32 7.5 30 5.5 27.5 5.5L27.5 5.5 27.5 5.5 27.5 5.5Z" fill="#7823DC" fill-rule="evenodd" clip-rule="evenodd"/><path d="M2.7 15.3 0.1 18.3 0.3 21.1 2.9 18.1 5.9 20.7 5.7 17.9 2.7 15.3 2.7 15.3Z" fill="#7823DC" fill-rule="evenodd" clip-rule="evenodd"/><path d="M9.4 29.4C5 27.4 2.7 25.2 1.8 18.2L3.8 17.9C4.6 24.3 6.5 25.8 10.2 27.5L9.4 29.4 9.4 29.4 9.4 29.4Z" fill="#7823DC" fill-rule="evenodd" clip-rule="evenodd"/><path d="M25.2 23.4 22.7 24.8 21.7 28.6 25.5 29.6 28 28.2 24.1 27.2 25.2 23.4 25.2 23.4Z" fill="#7823DC" fill-rule="evenodd" clip-rule="evenodd"/><path d="M24.7 28 23.6 26.3C29 22.7 29.6 20.4 29.5 16.3L31.5 16.2C31.6 21.2 30.6 24.1 24.7 28L24.7 28Z" fill="#7823DC" fill-rule="evenodd" clip-rule="evenodd"/><path d="M19.7 0 21.2 3.7 17.5 5.1 20.1 6.3 23.8 4.8 22.3 1.1 19.7 0 19.7 0Z" fill="#7823DC" fill-rule="evenodd" clip-rule="evenodd"/><path d="M9.3 5.9 8.1 4.4C11.9 1.4 14.8 0.4 21.5 2.8L20.8 4.7C14.7 2.4 12.5 3.4 9.3 5.9L9.3 5.9Z" fill="#7823DC" fill-rule="evenodd" clip-rule="evenodd"/><path d="M19.1 17.6C18.5 18.5 17.7 19 16.9 19 15.2 19 13.8 16.9 13.8 14.4 13.8 11.9 15.2 9.8 16.9 9.8 17.7 9.8 18.5 10.3 19 11.1L21.3 11.1C20.4 9.1 18.8 7.8 16.9 7.8 14.1 7.8 11.8 10.8 11.8 14.4 11.8 18 14.1 21 16.9 21 18.8 21 20.5 19.6 21.4 17.6L19.1 17.6 19.1 17.6 19.1 17.6Z" fill="#7823DC" fill-rule="evenodd" clip-rule="evenodd"/><path d="M10.5 11.3 17.7 11.3 17.7 13.2 10.5 13.2 10.5 11.3Z" fill="#7823DC" fill-rule="evenodd" clip-rule="evenodd"/><path d="M10.5 14.8 17.7 14.8 17.7 16.9 10.5 16.9 10.5 14.8Z" fill="#7823DC" fill-rule="evenodd" clip-rule="evenodd"/></g></svg>