<svg width="32.1" height="29.2" viewBox="0 0 32.1 29.2" xmlns="http://www.w3.org/2000/svg" xmlns:xlink="http://www.w3.org/1999/xlink" overflow="hidden"><style>
.MsftOfcResponsive_Fill_7823dc {
 fill:#7823DC; 
}
</style>
<defs></defs><path d="M14.5 18.6 16.1 19.2 19.6 8.1 17.1 29.2 18.8 29.2 21.6 6.1 18.4 6.1Z" class="MsftOfcResponsive_Fill_7823dc" fill="#7823DC"/><path d="M30.6 18.6 26.7 6.1 23.5 6.1 26.3 29.2 28 29.2 25.5 8.1 29 19.2Z" class="MsftOfcResponsive_Fill_7823dc" fill="#7823DC"/><path d="M8 0C6.5 0 5.4 1.2 5.4 2.7 5.4 4.1 6.7 5.4 8.1 5.4 9.6 5.4 10.8 4.2 10.8 2.7 10.8 1.2 9.5 0 8 0ZM8.7 3.3C8.4 3.6 7.8 3.7 7.4 3.3 7.2 3.1 7.2 2.9 7.2 2.6 7.2 2.4 7.3 2.2 7.4 2 7.7 1.7 8.3 1.6 8.7 2 9 2.3 9 2.9 8.7 3.3Z" class="MsftOfcResponsive_Fill_7823dc" fill="#7823DC"/><path d="M22.7 0C21.2 0 20 1.2 20 2.7 20 4.1 21.3 5.4 22.7 5.4 24.2 5.4 25.4 4.2 25.4 2.7 25.4 1.2 24.2 0 22.7 0ZM23.4 3.3C23.1 3.6 22.5 3.7 22.1 3.3 21.9 3.1 21.9 2.9 21.9 2.7 21.9 2.5 22 2.3 22.1 2.1 22.4 1.8 23 1.7 23.4 2.1 23.7 2.3 23.8 2.9 23.4 3.3Z" class="MsftOfcResponsive_Fill_7823dc" fill="#7823DC"/><path d="M5.1 7.9 4.4 13.5 6.3 13.5 7.2 6 3.8 6 1.4 13.5 3.3 13.5Z" class="MsftOfcResponsive_Fill_7823dc" fill="#7823DC"/><path d="M10.9 7.9 12.6 13.5 14.5 13.5 12.2 6 8.9 6 9.8 13.5 11.6 13.5Z" class="MsftOfcResponsive_Fill_7823dc" fill="#7823DC"/><rect x="27.8" y="11.7" width="4.3" height="2" class="MsftOfcResponsive_Fill_7823dc" fill="#7823DC"/><g><rect x="0" y="11.7" width="16.6" height="2" class="MsftOfcResponsive_Fill_7823dc" fill="#7823DC"/></g></svg>