<svg viewBox="0 0 32 32" xmlns="http://www.w3.org/2000/svg" xmlns:xlink="http://www.w3.org/1999/xlink" id="Graphic" overflow="hidden"><defs></defs><rect x="4" y="14" width="2" height="2" fill="#7823DC"/><rect x="8" y="14" width="2" height="2" fill="#7823DC"/><rect x="12" y="14" width="2" height="2" fill="#7823DC"/><rect x="20" y="14" width="2" height="2" fill="#7823DC"/><rect x="24" y="14" width="2" height="2" fill="#7823DC"/><rect x="28" y="14" width="2" height="2" fill="#7823DC"/><path d="M32 32 0 32 0 0 2 0 2 30 32 30 32 32Z" fill="#7823DC"/><path d="M12.079 21.355 30 3.414 30 6.241 32 4.242 32 0 27.752 0 25.752 2 28.586 2 10.237 20.369" fill="#7823DC"/><path d="M11.408 22.008 5.682 22.008 0.008 22.008 0.008 21.008 0.008 20.008 10.598 20.008 12.008 20.008 12.079 21.355 11.408 22.008Z" fill="#7823DC"/></svg>