<svg viewBox="0 0 32 32" xmlns="http://www.w3.org/2000/svg" xmlns:xlink="http://www.w3.org/1999/xlink" id="Graphic" overflow="hidden"><defs></defs><path d="M2.77 9.85C2.28988 10.1762 1.91471 10.6348 1.69 11.17 1.91471 10.6348 2.28988 10.1762 2.77 9.85Z" fill="#7823DC"/><path d="M1.69 13.51C1.91471 14.0452 2.28988 14.5038 2.77 14.83 2.28988 14.5038 1.91471 14.0452 1.69 13.51Z" fill="#7823DC"/><path d="M4.45 9.34C3.85167 9.33866 3.26661 9.51627 2.77 9.85 2.28988 10.1762 1.91471 10.6348 1.69 11.17 1.37326 11.9178 1.37326 12.7622 1.69 13.51 1.91471 14.0452 2.28988 14.5038 2.77 14.83 3.26661 15.1637 3.85167 15.3413 4.45 15.34 6.10685 15.34 7.45 13.9969 7.45 12.34 7.45 10.6831 6.10685 9.34 4.45 9.34ZM4.45 13.34C3.89772 13.34 3.45 12.8923 3.45 12.34 3.45 11.7877 3.89772 11.34 4.45 11.34 5.00228 11.34 5.45 11.7877 5.45 12.34 5.45 12.8923 5.00228 13.34 4.45 13.34Z" fill="#7823DC"/><path d="M18.51 31.12C18.2874 31.0583 18.0726 30.971 17.87 30.86 18.0733 30.9697 18.2879 31.0568 18.51 31.12Z" fill="#7823DC"/><path d="M19.36 25.23C19.5794 25.2347 19.7976 25.2649 20.01 25.32 19.7976 25.2649 19.5794 25.2347 19.36 25.23Z" fill="#7823DC"/><path d="M20.05 25.32C20.2721 25.3832 20.4867 25.4704 20.69 25.58 20.4867 25.4704 20.2721 25.3832 20.05 25.32Z" fill="#7823DC"/><path d="M18.65 25.3C18.8153 25.2702 18.9823 25.2501 19.15 25.24 18.9823 25.2501 18.8153 25.2702 18.65 25.3Z" fill="#7823DC"/><path d="M17.13 30.3C16.956 30.1265 16.8048 29.9316 16.68 29.72 16.8048 29.9316 16.956 30.1265 17.13 30.3Z" fill="#7823DC"/><path d="M20.78 30.82C20.5678 30.9379 20.343 31.0318 20.11 31.1 20.343 31.0318 20.5678 30.9379 20.78 30.82Z" fill="#7823DC"/><path d="M17.78 25.62C17.9899 25.507 18.2111 25.4165 18.44 25.35 18.2111 25.4165 17.9899 25.507 17.78 25.62Z" fill="#7823DC"/><path d="M17.7 30.76C17.5495 30.6679 17.4087 30.5607 17.28 30.44 17.4087 30.5607 17.5495 30.6679 17.7 30.76Z" fill="#7823DC"/><path d="M19.91 31.14C19.7457 31.178 19.5784 31.2014 19.41 31.21 19.5784 31.2014 19.7457 31.178 19.91 31.14Z" fill="#7823DC"/><path d="M19.2 31.21C18.981 31.2087 18.7628 31.1818 18.55 31.13 18.7628 31.1818 18.981 31.2087 19.2 31.21Z" fill="#7823DC"/><path d="M21.43 26.15C21.6015 26.322 21.7526 26.5132 21.88 26.72 21.7526 26.5132 21.6015 26.322 21.43 26.15Z" fill="#7823DC"/><path d="M20.86 25.69C21.0081 25.7819 21.1485 25.8856 21.28 26 21.1511 25.8825 21.0103 25.7786 20.86 25.69Z" fill="#7823DC"/><path d="M20.11 31.1 19.91 31.1Z" fill="#7823DC"/><path d="M18.55 31.13 18.55 31.13Z" fill="#7823DC"/><path d="M19.28 31.22 19.28 31.22Z" fill="#7823DC"/><path d="M17.87 30.86 17.7 30.76Z" fill="#7823DC"/><path d="M21.28 26 21.43 26.15Z" fill="#7823DC"/><path d="M20.69 25.58 20.86 25.69Z" fill="#7823DC"/><path d="M20.78 30.82C21.1264 30.6187 21.4291 30.3501 21.67 30.03 21.4291 30.3501 21.1264 30.6187 20.78 30.82Z" fill="#7823DC"/><path d="M21.67 30C22.0256 29.5387 22.2346 28.9814 22.27 28.4 22.2346 28.9814 22.0256 29.5387 21.67 30Z" fill="#7823DC"/><path d="M18.44 25.35 18.65 25.3Z" fill="#7823DC"/><path d="M20 25.32 20 25.32Z" fill="#7823DC"/><path d="M17.28 30.44 17.13 30.3Z" fill="#7823DC"/><path d="M19.28 25.22 19.15 25.22 19.28 25.22Z" fill="#7823DC"/><path d="M21.88 26.72C21.7526 26.5132 21.6015 26.322 21.43 26.15L21.28 26C21.1485 25.8856 21.0081 25.7819 20.86 25.69L20.69 25.58C20.4867 25.4704 20.2721 25.3832 20.05 25.32L20.05 25.32C19.8376 25.2649 19.6194 25.2347 19.4 25.23L19.19 25.23C19.0223 25.2401 18.8553 25.2602 18.69 25.29L18.48 25.34C18.2511 25.4065 18.0299 25.497 17.82 25.61 16.3844 26.4372 15.8912 28.2715 16.7183 29.7071 16.7189 29.7081 16.7194 29.709 16.72 29.71 16.8448 29.9216 16.996 30.1165 17.17 30.29L17.32 30.43C17.4487 30.5507 17.5895 30.6579 17.74 30.75L17.91 30.85C18.1126 30.961 18.3274 31.0483 18.55 31.11L18.55 31.11C18.7628 31.1618 18.981 31.1887 19.2 31.19L19.41 31.19C19.5784 31.1814 19.7457 31.158 19.91 31.12L20.11 31.12C20.343 31.0518 20.5678 30.9579 20.78 30.84 21.1264 30.6387 21.4291 30.3701 21.67 30.05 22.0256 29.5887 22.2346 29.0314 22.27 28.45 22.3173 27.8472 22.1814 27.2442 21.88 26.72ZM19.78 29.09C19.3021 29.3668 18.6903 29.2039 18.4134 28.726 18.4123 28.724 18.4111 28.722 18.41 28.72 18.1386 28.242 18.3039 27.6346 18.78 27.36 18.9314 27.2701 19.1039 27.2218 19.28 27.22 19.8323 27.2161 20.2831 27.6607 20.287 28.213 20.2895 28.5756 20.0955 28.9112 19.78 29.09Z" fill="#7823DC"/><path d="M25.49 10.42C25.3219 10.4148 25.1546 10.3948 24.99 10.36 25.1546 10.3948 25.3219 10.4148 25.49 10.42Z" fill="#7823DC"/><path d="M24.78 10.31C24.5511 10.2435 24.3299 10.153 24.12 10.04 24.3299 10.153 24.5511 10.2435 24.78 10.31Z" fill="#7823DC"/><path d="M23.62 5.22C23.7385 5.10399 23.8655 4.99703 24 4.9 23.8655 4.99703 23.7385 5.10399 23.62 5.22Z" fill="#7823DC"/><path d="M24.21 4.8C24.4133 4.69035 24.6279 4.60317 24.85 4.54 24.6279 4.60317 24.4133 4.69035 24.21 4.8Z" fill="#7823DC"/><path d="M23 5.94C23.1248 5.72839 23.276 5.53349 23.45 5.36 23.276 5.53349 23.1248 5.72839 23 5.94Z" fill="#7823DC"/><path d="M28.22 8.94C28.0902 9.14816 27.9394 9.34251 27.77 9.52 27.9417 9.34451 28.0927 9.14991 28.22 8.94Z" fill="#7823DC"/><path d="M27.62 9.66C27.4911 9.77754 27.3503 9.88142 27.2 9.97 27.3503 9.88142 27.4911 9.77754 27.62 9.66Z" fill="#7823DC"/><path d="M26.35 10.34C26.1376 10.3951 25.9194 10.4253 25.7 10.43 25.9194 10.4253 26.1376 10.3951 26.35 10.34Z" fill="#7823DC"/><path d="M27 10.08C26.7967 10.1896 26.5821 10.2768 26.36 10.34 26.5821 10.2768 26.7967 10.1896 27 10.08Z" fill="#7823DC"/><path d="M26.46 4.57C26.6904 4.63221 26.9121 4.72291 27.12 4.84 26.9121 4.72291 26.6904 4.63221 26.46 4.57Z" fill="#7823DC"/><path d="M24.89 4.53C25.1028 4.47818 25.321 4.45133 25.54 4.45 25.321 4.45133 25.1028 4.47818 24.89 4.53Z" fill="#7823DC"/><path d="M25.75 4.45C25.9184 4.4586 26.0857 4.48202 26.25 4.52 26.0857 4.48202 25.9184 4.4586 25.75 4.45Z" fill="#7823DC"/><path d="M22.64 7.07C22.5913 7.45156 22.6185 7.83898 22.72 8.21 22.6185 7.83898 22.5913 7.45156 22.64 7.07Z" fill="#7823DC"/><path d="M26.39 10.34 26.39 10.34Z" fill="#7823DC"/><path d="M27.77 9.52 27.62 9.66Z" fill="#7823DC"/><path d="M27.2 10 27.03 10.11Z" fill="#7823DC"/><path d="M26.25 4.52 26.46 4.57Z" fill="#7823DC"/><path d="M23.47 5.36 23.62 5.22Z" fill="#7823DC"/><path d="M25.62 10.44 25.49 10.44Z" fill="#7823DC"/><path d="M24.85 4.54 24.85 4.54Z" fill="#7823DC"/><path d="M24 4.9 24.17 4.8Z" fill="#7823DC"/><path d="M25.62 4.44 25.62 4.44Z" fill="#7823DC"/><path d="M25 10.36 24.79 10.36Z" fill="#7823DC"/><path d="M27.12 4.84C26.9121 4.72291 26.6904 4.63221 26.46 4.57L26.25 4.52C26.0857 4.48202 25.9184 4.4586 25.75 4.45L25.54 4.45C25.321 4.45133 25.1028 4.47818 24.89 4.53L24.89 4.53C24.6679 4.59317 24.4533 4.68035 24.25 4.79L24 4.9C23.8517 4.99535 23.7113 5.10235 23.58 5.22L23.43 5.36C23.256 5.53349 23.1048 5.72839 22.98 5.94 22.779 6.28745 22.6498 6.6717 22.6 7.07 22.5513 7.45156 22.5785 7.83898 22.68 8.21 22.9035 8.9741 23.4215 9.61803 24.12 10 24.3299 10.113 24.5511 10.2035 24.78 10.27L24.99 10.27C25.1546 10.3048 25.3219 10.3248 25.49 10.33L25.7 10.33C25.9194 10.3253 26.1376 10.2951 26.35 10.24L26.35 10.24C26.5721 10.1768 26.7867 10.0896 26.99 9.98L27.2 10C27.3503 9.91142 27.4911 9.80754 27.62 9.69L27.77 9.55C27.9394 9.37251 28.0902 9.17816 28.22 8.97 29.0612 7.54256 28.5859 5.70348 27.1585 4.8623 27.1457 4.85477 27.1329 4.84734 27.12 4.84ZM26.49 7.94C26.3107 8.25063 25.9787 8.44142 25.62 8.44 25.4439 8.43817 25.2714 8.38988 25.12 8.3 24.6439 8.02539 24.4786 7.41798 24.75 6.94 24.9293 6.62937 25.2613 6.43858 25.62 6.44 25.7952 6.43879 25.9676 6.48362 26.12 6.57 26.5998 6.84354 26.767 7.45423 26.4934 7.93402 26.4923 7.93602 26.4912 7.93801 26.49 7.94Z" fill="#7823DC"/><path d="M6.39 8.67C8.99 8.67 13.51 9.67 18.45 12.54 25.86 16.81 28.62 21.83 28.56 23 27.9134 23.2871 27.2051 23.4074 26.5 23.35 23.91 23.35 19.39 22.35 14.5 19.48 11.7825 17.9335 9.31454 15.9848 7.18 13.7 7.3935 13.2858 7.50331 12.826 7.5 12.36 7.5 10.7031 6.15685 9.36 4.5 9.36L4.39 9.36C4.37972 9.25024 4.37972 9.13976 4.39 9.03 5.02034 8.75989 5.70582 8.64336 6.39 8.69M6.39 6.69C4.48 6.69 3.1 7.14 2.59 8.02 2.08 8.9 2.37 10.2 3.23 11.77 3.27898 11.8427 3.36245 11.8844 3.45 11.88 3.52728 11.884 3.60174 11.8505 3.65 11.79 3.83244 11.5269 4.12987 11.367 4.45 11.36 5.00229 11.2937 5.50373 11.6877 5.57 12.24 5.63627 12.7923 5.24228 13.2937 4.69 13.36 4.54909 13.4736 4.51102 13.6724 4.6 13.83 7.06354 16.8315 10.0648 19.3478 13.45 21.25 18.29 24 23.2 25.33 26.5 25.33 28.42 25.33 29.8 24.88 30.31 24 31.69 21.61 27.1 15.22 19.45 10.8 14.61 8 9.7 6.67 6.39 6.67Z" fill="#7823DC"/><path d="M16.45 2C17.45 2.5 20.45 7.41 20.45 16 20.4763 19.1277 20.0209 22.2408 19.1 25.23 18.6353 25.2533 18.1828 25.387 17.78 25.62 17.0883 26.0193 16.5845 26.678 16.38 27.45 16.1759 28.2166 16.2838 29.0328 16.68 29.72L16.68 29.77C16.5993 29.8484 16.5085 29.9157 16.41 29.97 15.41 29.45 12.41 24.55 12.41 15.97 12.41 7.39 15.41 2.49 16.41 1.97M16.41-0.03C13.65-0.03 10.41 7.13 10.41 15.97 10.41 24.81 13.65 31.97 16.41 31.97 17.33 31.97 18.31 31.17 19.2 29.77 19.33 29.57 18.98 29.17 18.86 29.12 18.6532 29.0354 18.4807 28.884 18.37 28.69 18.0986 28.212 18.2639 27.6046 18.74 27.33 18.8914 27.2401 19.0639 27.1918 19.24 27.19 19.4045 27.1882 19.5665 27.2296 19.71 27.31 19.8199 27.3594 19.9396 27.3833 20.06 27.38 20.24 27.38 20.42 27.33 20.47 27.19 21.8046 23.6113 22.4756 19.8193 22.45 16 22.45 7.16 19.21 0 16.45 0Z" fill="#7823DC"/><path d="M28.25 8.89C28.3565 8.9254 28.4601 8.96886 28.56 9.02 28.62 10.18 25.85 15.19 18.45 19.46 13.51 22.31 9 23.33 6.39 23.33 5.70476 23.3782 5.01813 23.2581 4.39 22.98 4.28 21.83 7 16.81 14.45 12.54 17.1455 10.9585 20.0654 9.79531 23.11 9.09 23.6659 9.93406 24.6093 10.4415 25.62 10.44 26.6925 10.4407 27.6838 9.8688 28.22 8.94L28.22 8.94M27.19 6.7C26.89 6.7 26.62 7.7 26.49 7.94 26.3107 8.25063 25.9787 8.44142 25.62 8.44 25.4439 8.43817 25.2714 8.38988 25.12 8.3 24.6439 8.02539 24.4786 7.41798 24.75 6.94 24.75 6.94 24.67 6.94 24.51 6.94 24.0858 6.92867 23.6613 6.94873 23.24 7 19.7931 7.72013 16.4865 8.99684 13.45 10.78 5.8 15.22 1.21 21.61 2.59 24 3.1 24.88 4.48 25.33 6.39 25.33 9.7 25.33 14.61 23.99 19.45 21.2 27.1 16.78 31.69 10.39 30.31 8 29.86 7.23 28.75 6.79 27.2 6.7Z" fill="#7823DC"/></svg>