<svg viewBox="0 0 32 32" xmlns="http://www.w3.org/2000/svg" xmlns:xlink="http://www.w3.org/1999/xlink" id="Layer_2" overflow="hidden"><path d="M31.3 3.3 28.7 0.7C27.7-0.2 26.2-0.2 25.2 0.7L19.9 5.9 21.6 7.6 26.9 2.4 29.6 5 20.4 14 19.1 12.7 17.4 14.4 18.7 15.7C19.7 16.6 21.2 16.6 22.2 15.7L31.4 6.7C32.2 5.8 32.2 4.2 31.3 3.3Z" fill="#7823DC"/><path d="M3.2 31.3 0.6 28.8C-0.3 27.9-0.3 26.4 0.6 25.5L6 20.3 7.7 22 2.4 27.2 5 29.6 14.1 20.7 12.8 19.4 14.5 17.7 15.8 19C16.7 19.9 16.7 21.4 15.8 22.3L6.7 31.2C5.7 32.2 4.2 32.2 3.2 31.3Z" fill="#7823DC"/><path d="M11.7 20.9 10 19.3 19.2 10.3 20.4 11.5 22.1 9.8 20.9 8.6C19.9 7.7 18.4 7.7 17.4 8.6L8.2 17.6C7.2 18.5 7.2 20.1 8.2 21L10 22.7" fill="#7823DC"/></svg>