<svg viewBox="0 0 32 32" xmlns="http://www.w3.org/2000/svg" xmlns:xlink="http://www.w3.org/1999/xlink" id="Graphic" overflow="hidden"><defs></defs><path d="M9.55 31.21C6.86136 31.2828 4.62278 29.1622 4.55 26.4736 4.54762 26.3857 4.54762 26.2978 4.55 26.21 4.60596 24.6157 5.28022 23.1058 6.43 22L21.94 6.63C23.1485 5.35409 25.1539 5.27423 26.46 6.45 27.6556 7.76026 27.5753 9.78829 26.28 11L11.52 25.87 10.1 24.46 24.86 9.56C25.3496 9.124 25.4112 8.38062 25 7.87 24.4807 7.46321 23.732 7.54295 23.31 8.05L7.84 23.39C7.06224 24.1369 6.61267 25.1619 6.59 26.24 6.57739 27.0331 6.87941 27.799 7.43 28.37 8.90883 29.6488 11.1444 29.4867 12.4232 28.0079 12.4255 28.0053 12.4277 28.0026 12.43 28L27.79 12.73C29.0759 11.4892 29.8137 9.78673 29.84 8 29.8718 6.6546 29.3599 5.3532 28.42 4.39 27.3578 3.35563 25.8967 2.83693 24.42 2.97 22.7849 3.08991 21.2493 3.80082 20.1 4.97L1.41 23.75 0 22.33 18.72 3.61C20.2128 2.08437 22.2113 1.15626 24.34 1 26.374 0.834521 28.379 1.56493 29.83 3 31.1367 4.33329 31.8567 6.13332 31.83 8 31.7871 10.3044 30.8387 12.4994 29.19 14.11L13.79 29.42C12.6646 30.5474 11.1428 31.1898 9.55 31.21Z" fill="#7823DC"/></svg>