<svg viewBox="0 0 32 31.96" xmlns="http://www.w3.org/2000/svg" xmlns:xlink="http://www.w3.org/1999/xlink" id="Layer_1" overflow="hidden"><style>
.MsftOfcResponsive_Fill_7823dc {
 fill:#7823DC; 
}
</style>
<defs></defs><path d="M22.08 25.96 7.92 25.96 7.92 16.96 22.08 16.96 22.08 25.96ZM9.92 23.96 20.08 23.96 20.08 18.96 9.92 18.96 9.92 23.96Z" class="MsftOfcResponsive_Fill_7823dc" fill="#7823DC"/><path d="M22.08 31.96 7.92 31.96 7.92 16.96C7.92 14.76 9.33 12.75 11.57 11.7L11.57 9.96 13.57 9.96 13.57 13.06 12.91 13.3C11.09 13.96 9.92 15.4 9.92 16.96L9.92 29.96 20.08 29.96 20.08 16.96C20.08 15.4 18.91 13.96 17.09 13.3L16.43 13.06 16.43 9.96 18.43 9.96 18.43 11.7C20.67 12.76 22.08 14.76 22.08 16.96L22.08 31.96Z" class="MsftOfcResponsive_Fill_7823dc" fill="#7823DC"/><path d="M15 11.9C12.28 11.9 10.06 9.68 10.06 6.96 10.06 4.24 12.28 2.02 15 2.02 17.72 2.02 19.94 4.24 19.94 6.96 19.94 9.68 17.72 11.9 15 11.9ZM15 4.02C13.38 4.02 12.06 5.34 12.06 6.96 12.06 8.58 13.38 9.9 15 9.9 16.62 9.9 17.94 8.58 17.94 6.96 17.94 5.34 16.62 4.02 15 4.02Z" class="MsftOfcResponsive_Fill_7823dc" fill="#7823DC"/><path d="M9.9 8.8 0.87 4.24C0.08 3.61-0.2 2.51 0.15 1.44L0.2 1.31C0.71 0.3 1.87-0.21 3.01 0.08L15.5 2.03 15.19 4.01 2.53 2.02C2.32 1.96 2.13 2.02 2.03 2.15 1.99 2.32 2 2.51 2.08 2.63L10.8 7.01 9.9 8.8Z" class="MsftOfcResponsive_Fill_7823dc" fill="#7823DC"/><rect x="4" y="7.92" width="7.27" height="2" class="MsftOfcResponsive_Fill_7823dc" fill="#7823DC"/><path d="M29 15.9 27 15.9 27 12.9C27 10.14 24.76 7.9 22 7.9L22 5.9C25.86 5.9 29 9.04 29 12.9L29 15.9Z" class="MsftOfcResponsive_Fill_7823dc" fill="#7823DC"/><path d="M28 25.9C26.89 25.9 25.77 25.76 24.74 25.47L24 25.27 24 24.51C24 19.91 25.25 14.96 28 14.96 30.75 14.96 32 19.91 32 24.51L32 25.27 31.26 25.47C30.22 25.75 29.11 25.9 28 25.9ZM26.01 23.72C27.3 23.97 28.69 23.97 29.99 23.72 29.85 19.26 28.57 16.96 28 16.96 27.43 16.96 26.15 19.26 26.01 23.72Z" class="MsftOfcResponsive_Fill_7823dc" fill="#7823DC"/><rect x="19.8" y="5.9" width="2.2" height="2" class="MsftOfcResponsive_Fill_7823dc" fill="#7823DC"/></svg>