<svg viewBox="0 0 32.03 32.02" xmlns="http://www.w3.org/2000/svg" xmlns:xlink="http://www.w3.org/1999/xlink" id="a" overflow="hidden"><defs><clipPath id="b"><path d="M0.03 32.01 32 32.01 32 0 0.03 0 0.03 32.01 0.03 32.01Z" fill="none" clip-rule="evenodd"/></clipPath></defs><path d="M15.98 5.97C18.19 5.97 19.99 7.76 19.99 9.96 19.99 12.16 18.19 13.95 15.98 13.95 13.77 13.95 11.97 12.16 11.97 9.96 11.97 7.76 13.77 5.97 15.98 5.97M15.98 3.98C12.66 3.98 9.96 6.65 9.96 9.96 9.96 13.27 12.65 15.94 15.98 15.94 19.31 15.94 22 13.27 22 9.96 22 6.65 19.31 3.98 15.98 3.98L15.98 3.98Z" fill="#7823DC" fill-rule="evenodd"/><path d="M27 20.97C27 21.52 26.56 21.96 26.01 21.96 25.46 21.96 25.02 21.52 25.02 20.97 25.02 20.42 25.46 19.98 26.01 19.98 26.56 19.98 27 20.42 27 20.97L27 20.97Z" fill="#7823DC" fill-rule="evenodd"/><path d="M27 24.94C27 25.49 26.56 25.93 26.01 25.93 25.46 25.93 25.02 25.49 25.02 24.94 25.02 24.39 25.46 23.95 26.01 23.95 26.56 23.95 27 24.39 27 24.94L27 24.94Z" fill="#7823DC" fill-rule="evenodd"/><path d="M6.82 32.02C3.96 31.97 1.78 30.21 0.66 27.06-0.43 24.05-0.16 20.91 1.43 18 1.82 17.27 2.31 16.63 2.78 16.01L3.07 15.62C4.18 14.17 4.42 12.63 3.82 10.9L3.68 10.5C3.49 9.96 3.3 9.42 3.13 8.86 2.43 6.68 2.81 4.17 4.11 2.31 5.08 0.93 6.42 0.12 7.89 0.02 8.22 0 9.39 0 11.32 0.02L20.72 0.02C22.31 0.01 23.77 0 24.13 0.02 25.6 0.12 26.94 0.93 27.91 2.31 29.22 4.17 29.59 6.68 28.89 8.87 28.67 9.56 28.43 10.23 28.2 10.89 27.58 12.62 27.83 14.15 28.94 15.6L29.2 15.94C29.69 16.57 30.2 17.23 30.6 18.01 32.19 20.89 32.45 24.03 31.36 27.06 30.24 30.21 28.06 31.97 25.22 32.02L6.82 32.02ZM9.08 2C8.57 2 8.16 2 8.03 2.01 7.2 2.07 6.41 2.57 5.81 3.43 4.87 4.77 4.59 6.67 5.1 8.27 5.27 8.81 5.45 9.33 5.63 9.84L5.77 10.24C6.59 12.57 6.23 14.84 4.73 16.79L4.43 17.18C3.99 17.76 3.57 18.31 3.24 18.91 1.9 21.36 1.68 23.87 2.59 26.38 3.43 28.75 4.86 29.97 6.83 30L25.22 30C27.17 29.97 28.59 28.75 29.44 26.38 30.35 23.85 30.13 21.34 28.8 18.91 28.47 18.27 28.04 17.71 27.58 17.12L27.31 16.77C25.8 14.81 25.45 12.55 26.27 10.22 26.5 9.57 26.72 8.92 26.94 8.25 27.45 6.66 27.17 4.76 26.23 3.41 25.62 2.55 24.83 2.04 24.01 1.99 23.7 1.97 21.71 1.99 20.75 1.99L11.31 1.99C10.78 1.99 9.83 1.99 9.09 1.99Z" fill="#7823DC"/><g clip-path="url(#b)"><rect x="9.99" y="24" width="12.04" height="2" fill="#7823DC"/></g></svg>