<svg viewBox="0 0 32 32" xmlns="http://www.w3.org/2000/svg" xmlns:xlink="http://www.w3.org/1999/xlink" overflow="hidden"><defs></defs><g id="a"></g><g id="b"><g id="c"></g><path d="M17.8604 2.01161C18.4503 2.29286 19.8604 4.71046 19.8604 9 19.8604 13.2895 18.4503 15.7071 17.8604 15.9884 17.2705 15.7071 15.8604 13.2895 15.8604 9 15.8604 4.71046 17.2705 2.29286 17.8604 2.01161M17.8604 0C15.6513 0 13.8604 4.02943 13.8604 9 13.8604 13.9706 15.6513 18 17.8604 18 20.0696 18 21.8604 13.9706 21.8604 9 21.8604 4.02943 20.0696 0 17.8604 0L17.8604 0Z" fill="#7823DC"/><path d="M11.8604 6.01161C12.4503 6.29286 13.8604 8.71046 13.8604 13 13.8604 17.2895 12.4503 19.7071 11.8604 19.9884 11.2705 19.7071 9.86044 17.2895 9.86044 13 9.86044 8.71046 11.2705 6.29286 11.8604 6.01161M11.8604 4C9.6513 4 7.86044 8.02943 7.86044 13 7.86044 17.9706 9.6513 22 11.8604 22 14.0696 22 15.8604 17.9706 15.8604 13 15.8604 8.02943 14.0696 4 11.8604 4L11.8604 4Z" fill="#7823DC"/><rect x="10.8604" y="20" width="2" height="10" fill="#7823DC"/><rect x="26.9531" y="16.1396" width="2" height="14.0815" fill="#7823DC"/><rect x="3.25586" y="22.4009" width="2" height="7.59912" fill="#7823DC"/><rect x="16.8604" y="16" width="2" height="14" fill="#7823DC"/><rect x="24.9648" y="14.6743" width="6" height="2" fill="#7823DC"/><rect x="22.0928" y="26" width="2" height="4" fill="#7823DC"/><rect x="0" y="29.9956" width="32" height="2" fill="#7823DC"/><path d="M25.813 16.3105 27.8702 7.94651 29.9274 16.3105 30.0169 16.6744 31.9846 16.6744 29.9274 8.31046 27.8702-0.05349 25.813 8.31046 23.7558 16.6744 25.7234 16.6744 25.813 16.3105Z" fill="#7823DC"/><path d="M4.25404 15.7156 4.36912 16.1835 5.8169 22.0698 2.69117 22.0698 4.13895 16.1835 4.25403 15.7156M4.25403 7.34186 2.19685 15.7058 0.13966 24.0698 8.36842 24.0698 6.31123 15.7058 4.25404 7.34186 4.25404 7.34186Z" fill="#7823DC"/><path d="M22.9786 19.6459 23.0937 20.1137 24.5415 26 21.4158 26 22.8636 20.1137 22.9786 19.6459M22.9786 11.2721 20.9214 19.636 18.8643 28 27.093 28 25.0358 19.636 22.9786 11.2721 22.9786 11.2721Z" fill="#7823DC"/></g></svg>