<svg viewBox="0 0 32 31.98" xmlns="http://www.w3.org/2000/svg" xmlns:xlink="http://www.w3.org/1999/xlink" id="Layer_1" overflow="hidden"><style>
.MsftOfcResponsive_Fill_7823dc {
 fill:#7823DC; 
}
</style>
<defs></defs><g><path d="M0 16C0 17.18 0.13 18.32 0.38 19.42 0.56 20.27 0.82 21.1 1.15 21.89 1.38 22.48 1.65 23.05 1.96 23.61 4.68 28.58 9.97 31.97 16.01 31.97 24.81 31.97 32.01 24.78 32.01 16L0 16ZM16 29.97C10.59 29.97 5.93 26.96 3.59 22.52 3.26 21.92 2.99 21.29 2.76 20.65 2.46 19.8 2.23 18.91 2.1 17.99L29.9 17.99C28.9 24.78 23.1 29.97 16 29.97Z" class="MsftOfcResponsive_Fill_7823dc" fill="#7823DC"/><path d="M20.1 30.28 18.9 26.88 21 23.69 21 20.79 22 16.8 24 17.2 23 21.09 23 24.29 21.1 27.08 21.9 29.68 20.1 30.28 20.1 30.28Z" class="MsftOfcResponsive_Fill_7823dc" fill="#7823DC"/><path d="M20.45 28.33 17.2 26.78 16.43 23.04 14.38 20.99 12.27 17.46 13.96 16.33 16.01 19.79 18.27 22.05 18.9 25.37 21.3 26.63 20.45 28.33 20.45 28.33Z" class="MsftOfcResponsive_Fill_7823dc" fill="#7823DC"/><path d="M7.08 27.98 8.5 25.16 11.96 24.94 13.85 23.31 17.11 21.81 18.16 23.55 14.96 24.99 12.88 26.79 9.81 26.93 8.65 29 7.08 27.98 7.08 27.98Z" class="MsftOfcResponsive_Fill_7823dc" fill="#7823DC"/><path d="M20.1 25.3 21.52 22.86 24.69 23.23 26.48 22 29.52 21.12 30.4 22.94 27.43 23.77 25.45 25.13 22.64 24.76 21.49 26.53 20.1 25.3 20.1 25.3Z" class="MsftOfcResponsive_Fill_7823dc" fill="#7823DC"/><path d="M8.26 17.01 9.95 19.25 8.37 22.01 8.81 24.13 8.43 27.25 6.41 27.36 6.8 24.31 6.32 21.98 7.76 19.55 6.59 17.81 8.26 17.01 8.26 17.01Z" class="MsftOfcResponsive_Fill_7823dc" fill="#7823DC"/><path d="M7.96 22.65 4.91 22.26 3.59 22.53 2.57 22.74 1.95 22.37 1.14 21.9C0.81 21.11 0.55 20.28 0.37 19.43L1.94 20.32 2.6 20.7 2.75 20.67 4.71 20.27 7.83 20.65 7.95 22.67Z" class="MsftOfcResponsive_Fill_7823dc" fill="#7823DC"/></g><rect x="15.05" y="3.02" width="2" height="13.96" class="MsftOfcResponsive_Fill_7823dc" fill="#7823DC" transform="matrix(-1 -1.22465e-16 1.22465e-16 -1 32.11 20)"/><path d="M17.05 3.02 15.05 3.02C15.05 2.46 14.59 2 14.03 2 13.47 2 13.01 2.46 13.01 3.02L11.01 3.02C11.01 1.35 12.36 0 14.03 0 15.7 0 17.05 1.35 17.05 3.02Z" class="MsftOfcResponsive_Fill_7823dc" fill="#7823DC"/><path d="M17.05 8.02 15.05 8.02C15.05 5.81 16.85 4.01 19.06 4.01L19.06 6.01C17.95 6.01 17.05 6.91 17.05 8.02Z" class="MsftOfcResponsive_Fill_7823dc" fill="#7823DC"/><path d="M9.36 11.6 9.03 9.49C9 9.32 8.38 5.31 9.05 3.02L9.05 3.02C9.42 1.77 10.77 1.18 12.27 1.61 12.88 1.79 13.42 2.12 13.78 2.55 14.26 3.12 14.43 3.84 14.23 4.53 13.57 6.79 10.89 9.86 10.78 9.99L9.37 11.6ZM10.97 3.58 10.97 3.58C10.73 4.4 10.71 5.63 10.77 6.75 11.43 5.82 12.07 4.77 12.31 3.96 12.31 3.93 12.32 3.91 12.26 3.84 12.15 3.71 11.94 3.59 11.71 3.53 11.48 3.46 11.24 3.45 11.08 3.5 10.99 3.53 10.99 3.55 10.98 3.57Z" class="MsftOfcResponsive_Fill_7823dc" fill="#7823DC"/><path d="M26.88 10.87 24.83 10.29C24.67 10.24 20.77 9.12 18.97 7.55 18.43 7.08 18.18 6.38 18.28 5.65 18.36 5.1 18.63 4.53 19.05 4.05 19.47 3.57 20 3.22 20.53 3.07 21.25 2.86 21.97 3.02 22.51 3.49 24.28 5.04 25.94 8.76 26.01 8.92L26.87 10.87ZM21.15 4.97C21.15 4.97 21.11 4.97 21.07 4.98 20.91 5.03 20.71 5.17 20.55 5.35 20.29 5.65 20.21 5.97 20.28 6.03L20.28 6.03C20.92 6.59 22.03 7.13 23.07 7.55 22.5 6.56 21.82 5.54 21.19 4.98 21.18 4.97 21.17 4.96 21.14 4.96Z" class="MsftOfcResponsive_Fill_7823dc" fill="#7823DC"/><path d="M17.06 12.88 15.06 12.88C15.06 10.67 16.86 8.87 19.07 8.87L19.07 10.87C17.96 10.87 17.06 11.77 17.06 12.88Z" class="MsftOfcResponsive_Fill_7823dc" fill="#7823DC"/><path d="M17.05 16 15.05 16C15.05 14.89 14.15 13.99 13.04 13.99L13.04 11.99C15.25 11.99 17.05 13.79 17.05 16Z" class="MsftOfcResponsive_Fill_7823dc" fill="#7823DC"/></svg>