<svg viewBox="0 0 32 32" xmlns="http://www.w3.org/2000/svg" xmlns:xlink="http://www.w3.org/1999/xlink" id="Layer_1" overflow="hidden"><style>
.MsftOfcResponsive_Fill_7823dc {
 fill:#7823DC; 
}
</style>
<g><path d="M25.4 20.3 29.7 20.3C28.7 15.8 27.3 9.5 26.4 8.1 24 4.2 19.8 1.9 15.3 1.9 15.3 1.9 15.3 1.9 15.2 1.9 8 2 2.1 8.1 2.1 15.3L2.1 15.4C2.1 19.9 4.4 24.2 8.2 26.6L7.1 28.3C2.7 25.5 0 20.6 0 15.4L0 15.3C0 6.9 6.7 0 15.1 0 20.4 0 25.2 2.7 27.9 7.1 29.3 9.4 31.4 20 31.7 21.2L32 22.4 26.2 22.4" class="MsftOfcResponsive_Fill_7823dc" fill="#7823DC" fill-rule="evenodd" clip-rule="evenodd"/><path d="M26.5 32 17.2 32 17.2 30 24.5 30 24.5 20.3 26.5 20.3Z" class="MsftOfcResponsive_Fill_7823dc" fill="#7823DC" fill-rule="evenodd" clip-rule="evenodd"/></g><path d="" class="MsftOfcResponsive_Fill_7823dc" stroke="#000000" stroke-width="2" stroke-miterlimit="10" fill="#7823DC"/><path d="" class="MsftOfcResponsive_Fill_7823dc" stroke="#000000" stroke-width="2" stroke-miterlimit="10" fill="#7823DC"/><g><g><path d="M18.4 5.8C17.2 5.8 16.1 6 15.1 6.3 14.4 6.5 13.7 6.8 13.1 7 10.4 8.2 8.3 10.4 7 13 6.7 13.6 6.5 14.4 6.3 15 6 16.1 5.8 17.2 5.8 18.3L5.8 23 10.4 23C17.4 23 23 17.4 23 10.4L23 5.8 18.4 5.8ZM17.6 18.4C17.1 18.9 16.4 19.4 15.7 19.8 14.2 20.7 12.4 21.2 10.4 21.2L7.6 21.2 7.6 18.4C7.6 17 7.9 15.7 8.3 14.5 8.5 14 8.8 13.5 8.9 13.1 9.3 12.5 9.7 11.8 10.3 11.2L10.3 11.2 10.3 11.2C10.6 10.9 10.8 10.7 11.1 10.4 11.5 10 11.9 9.8 12.3 9.5 12.8 9.1 13.4 8.9 13.9 8.6 14.1 8.5 14.3 8.4 14.4 8.4 15.6 7.9 16.9 7.7 18.3 7.7L21.2 7.7 21.2 10.5C21.2 11.9 20.9 13.4 20.4 14.7 20.1 15.2 19.9 15.8 19.5 16.3 18.9 17 18.3 17.7 17.6 18.4Z" class="MsftOfcResponsive_Fill_7823dc" fill="#7823DC"/><path d="M10.4 23.1 5.7 23.1 5.7 18.4C5.7 17.3 5.8 16.3 6.2 15 6.4 14.4 6.6 13.7 6.9 13 8.2 10.3 10.4 8.2 13 6.9 13.6 6.6 14.3 6.4 15 6.2 16.2 5.9 17.3 5.7 18.4 5.7L23.1 5.7 23.1 10.4C23.1 17.4 17.4 23.1 10.4 23.1ZM6 22.8 10.5 22.8C17.4 22.8 23 17.2 23 10.3L23 5.9 18.5 5.9C17.5 5.9 16.4 6 15.2 6.3 14.5 6.5 13.8 6.8 13.2 7 10.6 8.3 8.5 10.4 7.2 13 6.9 13.7 6.6 14.4 6.5 15 6.1 16.3 6 17.3 6 18.4L6 22.8ZM10.4 21.3 7.5 21.3 7.5 18.4C7.5 17.1 7.8 15.7 8.2 14.5 8.4 14 8.7 13.5 8.8 13.1 9.2 12.5 9.6 11.8 10.2 11.2L11 10.4C11.3 10.1 11.6 9.9 11.9 9.7 12 9.6 12.1 9.5 12.2 9.5 12.8 9.1 13.3 8.9 13.8 8.6 14 8.5 14.2 8.4 14.3 8.4 15.5 7.9 16.9 7.7 18.2 7.7L21.2 7.7 21.2 10.6C21.2 12.1 20.9 13.6 20.4 14.8 20.1 15.3 19.9 15.9 19.5 16.4 19 17.1 18.3 17.9 17.6 18.6L17.6 18.6C17.1 19.1 16.4 19.6 15.7 20 14.2 20.8 12.4 21.3 10.4 21.3ZM7.8 21 10.4 21C12.4 21 14.2 20.5 15.7 19.7 16.4 19.3 17 18.9 17.6 18.4 18.3 17.7 19 17 19.5 16.2 19.9 15.7 20.1 15.1 20.4 14.6 20.9 13.4 21.2 12 21.2 10.5L21.2 7.8 18.4 7.8C17.1 7.8 15.8 8 14.6 8.5L14.6 8.5C14.5 8.5 14.3 8.6 14.2 8.7 13.5 9 13 9.2 12.4 9.6 12.3 9.7 12.2 9.8 12.1 9.8 11.8 10 11.5 10.2 11.3 10.5L10.5 11.3C10 11.9 9.5 12.5 9.2 13.2 9 13.6 8.8 14.1 8.6 14.5 8.1 15.7 7.9 17 7.9 18.3L7.9 21Z" class="MsftOfcResponsive_Fill_7823dc" fill="#7823DC"/></g><g><rect x="4.6" y="13" width="20.5" height="1.8" class="MsftOfcResponsive_Fill_7823dc" fill="#7823DC" transform="matrix(0.7071 -0.7071 0.7071 0.7071 -5.4837 14.5952)"/><path d="M8.3 22 6.8 20.5 6.9 20.4 21.5 5.9 23 7.4 22.9 7.5 8.3 22ZM7.2 20.5 8.3 21.6 22.6 7.3 21.5 6.2 7.2 20.5Z" class="MsftOfcResponsive_Fill_7823dc" fill="#7823DC"/></g><g><path d="M12.2 17.3 10.4 17.8 10.3 17.3 9.4 14.1 9 13.1 8.8 12.3 8.5 11.5 10.4 10.9 10.4 11.2 10.4 11.2 10.9 13.1 11.7 15.8 12 16.8Z" class="MsftOfcResponsive_Fill_7823dc" fill="#7823DC"/><path d="M10.3 18 10.2 17.3 9.3 14.1 8.9 13.1 8.7 12.3 8.4 11.4 10.5 10.8 10.5 11.2 11 13.1 11.8 15.8 12.1 16.8 12.3 17.4 10.3 18ZM8.7 11.6 8.9 12.3 9.1 13.1 9.5 14.1 10.4 17.3 10.5 17.7 12 17.2 11.9 16.9 11.6 15.9 10.8 13.2 10.3 11.3 10.3 11.2 8.7 11.6Z" class="MsftOfcResponsive_Fill_7823dc" fill="#7823DC"/></g><g><path d="M15.8 13.6 14 14.2 13.8 13.6 13 11.1 12.4 9.4 12.3 8.9 12.2 8.8 12.3 8.8 14 8.2 14.2 9 15.2 12.2 15.6 13.2Z" class="MsftOfcResponsive_Fill_7823dc" fill="#7823DC"/><path d="M13.9 14.3 13.7 13.6 12.3 9.3 12.1 9 12 8.6 12.4 8.6 14.1 8 14.4 9 15.4 12.2 16 13.8 13.9 14.3ZM12.4 8.9 12.4 8.9 12.6 9.4 14.1 14.1 15.7 13.6 15.6 13.3 15.2 12.3 14 8.4 12.4 8.9Z" class="MsftOfcResponsive_Fill_7823dc" fill="#7823DC"/></g><g><rect x="13.6" y="15.2" width="1.8" height="6.6" class="MsftOfcResponsive_Fill_7823dc" fill="#7823DC" transform="matrix(0.2747 -0.9615 0.9615 0.2747 -7.2523 27.2948)"/><path d="M17.5 20.4 10.9 18.5 11.5 16.5 18.1 18.4 17.5 20.4ZM11.2 18.3 17.3 20 17.7 18.5 11.6 16.8 11.2 18.3Z" class="MsftOfcResponsive_Fill_7823dc" fill="#7823DC"/></g><g><rect x="17.2" y="11.5" width="1.8" height="6.6" class="MsftOfcResponsive_Fill_7823dc" fill="#7823DC" transform="matrix(0.2747 -0.9615 0.9615 0.2747 -1.1459 28.1501)"/><path d="M21.1 16.8 14.5 14.9 15.1 12.9 21.7 14.8 21.1 16.8ZM14.8 14.7 20.9 16.4 21.3 14.9 15.2 13.2 14.8 14.7Z" class="MsftOfcResponsive_Fill_7823dc" fill="#7823DC"/></g></g></svg>