<svg viewBox="0 0 32 32" xmlns="http://www.w3.org/2000/svg" xmlns:xlink="http://www.w3.org/1999/xlink" id="Grid" overflow="hidden"><style>
.MsftOfcResponsive_Fill_7823dc {
 fill:#7823DC; 
}
</style>
<defs></defs><path d="M32 0 32 2 2 2 2 0 32 0 32 0Z" class="MsftOfcResponsive_Fill_7823dc" fill="#7823DC"/><path d="M32 30 32 32 2.03 32 2.03 30 32 30 32 30Z" class="MsftOfcResponsive_Fill_7823dc" fill="#7823DC"/><path d="M24 16 24 18 6 18 6 16 24 16 24 16Z" class="MsftOfcResponsive_Fill_7823dc" fill="#7823DC"/><path d="M20 20 20 22 6 22 6 20 20 20 20 20Z" class="MsftOfcResponsive_Fill_7823dc" fill="#7823DC"/><path d="M16 24 16 26 6 26 6 24 16 24 16 24Z" class="MsftOfcResponsive_Fill_7823dc" fill="#7823DC"/><path d="M0 14.1 1.99 14.1 1.99 32 0 32 0 14.1 0 14.1Z" class="MsftOfcResponsive_Fill_7823dc" fill="#7823DC"/><path d="M0 0 2 0 2 3.94 0 3.94 0 0 0 0Z" class="MsftOfcResponsive_Fill_7823dc" fill="#7823DC"/><path d="M30 0 32 0 32 31.88 30 31.88 30 0 30 0Z" class="MsftOfcResponsive_Fill_7823dc" fill="#7823DC"/><path d="M0.03 9 3.02 6 5.84 6 3.84 8 15.97 8 15.97 10 3.84 10 5.84 12 3.02 12 0.03 9 0.03 9 0.03 9Z" class="MsftOfcResponsive_Fill_7823dc" fill="#7823DC"/><path d="M25.44 31.72 24.09 30.25 30.56 24.28 31.91 25.75 25.44 31.72 25.44 31.72Z" class="MsftOfcResponsive_Fill_7823dc" fill="#7823DC"/></svg>