<svg viewBox="0 0 32 32" xmlns="http://www.w3.org/2000/svg" xmlns:xlink="http://www.w3.org/1999/xlink" id="Graphic" xml:space="preserve" overflow="hidden"><g><g><path d="M2.6 10.9 4.4 16.1 5.3 18.6 7.5 17 7.6 16.9 8.5 18.5 8.7 18.9 9.1 19.2 12.1 21.2 12.5 23.6 12.6 24 12.8 24.4 13.8 26 11.1 28.2 9.9 26.7 9.7 26.4 9.3 26.1 3.6 22.6 2.1 11.2 2.6 10.9M3.6 7.7 0 10.3 2 23.8 8.4 27.8 10.8 31 16.5 26.4 14.5 23.3 13.8 20 10 17.5 8 14 6.1 15.4 3.6 7.7 3.6 7.7Z" fill="#7823DC"/><path d="M7.2 21.9 5.2 18.4 4.8 17 6.7 16.6 7 17.6 9 20.8Z" fill="#7823DC"/></g><g><path d="M29.3 10.9 29.8 11.2 28.1 22.6 22.4 26.1 22.1 26.3 21.9 26.6 20.8 28.1 18.1 25.9 19.1 24.3 19.3 23.9 19.4 23.5 19.8 21.1 22.8 19.1 23.2 18.8 23.4 18.4 24.3 16.8 24.4 16.9 26.6 18.5 27.5 16 29.3 10.9M28.3 7.7 25.6 15.4 23.7 14 21.7 17.5 17.9 20 17.4 23.3 15.4 26.4 21.1 31 23.5 27.8 29.9 23.8 31.9 10.3 28.3 7.7 28.3 7.7Z" fill="#7823DC"/><path d="M24.6 21.9 22.9 20.8 24.8 17.6 25 16.6 27 17 26.7 18.4Z" fill="#7823DC"/></g></g><g><path d="M19.2 12 17.2 12 14.8 3 14.2 3 11.9 12 9.8 12 12.8 1 16.2 1Z" fill="#7823DC"/><rect x="11.2" y="7" width="6" height="2" fill="#7823DC"/><rect x="20.2" y="1" width="2" height="11" fill="#7823DC"/></g></svg>