<svg width="32" height="32" viewBox="0 0 32 32" xmlns="http://www.w3.org/2000/svg" xmlns:xlink="http://www.w3.org/1999/xlink" overflow="hidden"><defs></defs><g><g><g><defs><rect x="0" y="0" width="32" height="32" id="SVGID_1_" fill="#7823DC"/></defs><clipPath id="SVGID_2_"><use width="100%" height="100%" xlink:href="#SVGID_1_"></use></clipPath><path d="M10 10 8 10 8 8 10 8 10 10ZM12 6 6 6 6 12 12 12 12 6Z" fill="#7823DC" clip-path="url(#SVGID_2_)"/><path d="M10 18 8 18 8 16 10 16 10 18ZM12 14 6 14 6 20 12 20 12 14Z" fill="#7823DC" clip-path="url(#SVGID_2_)"/><path d="M10 26 8 26 8 24 10 24 10 26ZM12 22 6 22 6 28 12 28 12 22Z" fill="#7823DC" clip-path="url(#SVGID_2_)"/><path d="M4 2.1 28 2.1 28 30.1 4 30.1 4 2.1ZM6 0.1 2 4 2 32 30 32 30 4.1 30 1.9 30 0.1 6 0.1Z" fill="#7823DC" clip-path="url(#SVGID_2_)"/></g></g><path d="M17.7 11.7 14.2 8.1 15.6 6.7 17.7 8.8 21.3 5.3 22.7 6.7Z" fill="#7823DC"/><path d="M17.7 19.7 14.2 16.1 15.6 14.7 17.7 16.8 21.3 13.3 22.7 14.7Z" fill="#7823DC"/><path d="M17.7 27.7 14.2 24.1 15.6 22.7 17.7 24.8 21.3 21.3 22.7 22.7Z" fill="#7823DC"/></g></svg>