<svg viewBox="0 0 32 32" xmlns="http://www.w3.org/2000/svg" xmlns:xlink="http://www.w3.org/1999/xlink" id="Layer_5" overflow="hidden"><defs></defs><path d="M32.02 7.99 26.03 2.02 24 2.02 24 0 22.06 0 22.06 2.02 20.03 2.02 19.8 2.24 11.65 4.13-0.15 23.27 13.95 31.97 13.95 32.05 14.07 32.05 14.21 32.14 14.26 32.05 32.01 32.05 32.01 7.99ZM13.6 29.32 2.58 22.56 12.98 5.88 17.05 4.94 13.94 7.99 13.94 12.24C13.01 12.46 12.23 13.03 11.79 13.77 11.12 14.92 11.22 16.53 12.73 17.84L11.39 20.17C10.88 19.54 10.84 18.81 11.29 17.98L9.52 17.02C8.74 18.47 8.61 20.44 10.35 21.98L10.06 22.48 11.8 23.48 12.06 23.02C12.58 23.22 13.1 23.33 13.6 23.33 13.71 23.33 13.81 23.3 13.92 23.29L13.92 28.76 13.57 29.33ZM13.95 15.73 13.77 16.04C13.4 15.61 13.31 15.17 13.54 14.77 13.63 14.61 13.78 14.48 13.95 14.37L13.95 15.72ZM13.95 19.76 13.95 21.26C13.69 21.31 13.41 21.3 13.11 21.22L13.95 19.76ZM30.08 30.11 15.98 30.11 15.98 8.87 20.92 4.04 22.07 4.04 22.07 4.51C20.16 4.95 18.72 6.66 18.72 8.69 18.72 11.06 20.66 12.99 23.04 12.99 25.42 12.99 27.36 11.06 27.36 8.69 27.36 6.65 25.92 4.95 24.01 4.51L24.01 4.04 25.24 4.04 30.09 8.87 30.09 30.12ZM24 6.64C24.77 7.01 25.32 7.8 25.32 8.69 25.32 9.92 24.26 10.97 23.03 10.97 21.8 10.97 20.74 9.92 20.74 8.69 20.74 7.8 21.29 7.02 22.06 6.64L22.06 10.01 24 10.01 24 6.64Z" stroke-width="0" fill="#7823DC"/><path d="M24.37 20.67 24.37 18.29C25.16 18.65 25.25 19.35 25.25 19.62L26.25 19.62C26.25 19.62 27.25 19.66 27.25 19.66 27.25 19.52 27.25 18.23 26.27 17.2 25.78 16.69 25.13 16.37 24.37 16.19L24.37 15.56 22.36 15.56 22.36 16.13C20.6 16.49 19.53 18 19.52 19.42 19.52 20.76 20.4 22.1 22.36 22.48L22.36 25.17C21.79 24.96 21.21 24.47 21.18 23.31L19.17 23.36C19.21 25 20.09 26.77 22.36 27.24L22.36 27.82 24.37 27.82 24.37 27.29C25.56 27.1 26.52 26.53 27.08 25.61 27.68 24.65 27.71 23.44 27.17 22.46 26.64 21.49 25.64 20.87 24.37 20.66ZM22.36 20.42C21.82 20.23 21.52 19.89 21.53 19.44 21.53 18.98 21.84 18.5 22.36 18.25L22.36 20.43ZM25.37 24.57C25.17 24.89 24.81 25.11 24.36 25.24L24.36 22.74C24.84 22.88 25.22 23.11 25.41 23.45 25.6 23.8 25.59 24.22 25.37 24.57Z" stroke-width="0" fill="#7823DC"/></svg>