<svg viewBox="0 0 32 31.41" xmlns="http://www.w3.org/2000/svg" xmlns:xlink="http://www.w3.org/1999/xlink" id="Layer_1" overflow="hidden"><style>
.MsftOfcThm_Text2_Fill_v2 {
 fill:#7823DC; 
}
</style>
<path d="M7.11 24.83C5.13 23.43 3.19 21.6 1.34 19.41 0.48 18.39 6.66134e-16 17.07 6.66134e-16 15.71 6.66134e-16 14.35 0.48 13.03 1.35 12 4.67 8.06 9.91 3.37 16 3.37 18.9 3.37 21.89 4.45 24.89 6.59L23.73 8.22C21.07 6.33 18.47 5.37 16 5.37 10.4 5.37 5.38 10.33 2.88 13.29 2.31 13.96 2 14.82 2 15.71 2 16.6 2.31 17.46 2.87 18.12 4.61 20.19 6.43 21.9 8.27 23.2L7.11 24.83Z" class="MsftOfcThm_Text2_Fill_v2" fill="#7823DC"/><path d="M1.71 31.41 0.3 30 11.21 19.09C10.5 18.09 10.12 16.9 10.13 15.65 10.14 14.08 10.76 12.62 11.88 11.52 13.93 9.5 17.11 9.3 19.38 10.92L30.29 0 31.7 1.41 1.71 31.41ZM15.99 11.83C15.01 11.83 14.03 12.2 13.28 12.94 12 14.2 11.78 16.15 12.65 17.64L17.93 12.36C17.33 12.01 16.66 11.83 15.98 11.83ZM16 28.05C14.8 28.05 13.62 27.87 12.47 27.53L13.04 25.61C14 25.9 15 26.04 16 26.05 21.6 26.05 26.62 21.09 29.12 18.13 29.69 17.46 30 16.6 30 15.71 30 14.81 29.68 13.94 29.09 13.25 28.6 12.67 28.08 12.09 27.55 11.54L28.99 10.15C29.55 10.73 30.1 11.34 30.62 11.95 31.51 13 32 14.34 32.01 15.7 32.01 17.06 31.53 18.38 30.66 19.41 27.34 23.35 22.1 28.04 16.01 28.04Z" class="MsftOfcThm_Text2_Fill_v2" fill="#7823DC"/></svg>