<svg viewBox="0 0 32 32" xmlns="http://www.w3.org/2000/svg" xmlns:xlink="http://www.w3.org/1999/xlink" overflow="hidden"><defs></defs><g id="a"></g><g id="b"><g id="c"></g><path d="M28 28 28 30 4 30 4 28 28 28M30 26 2 26 2 32 30 32 30 26 30 26Z" fill="#7823DC"/><path d="M28 4 28 26 4 26 4 4 28 4M30 2 2 2 2 28 30 28 30 2 30 2Z" fill="#7823DC"/><path d="M32 29.9697 0 29.9697 0 32 32 32 32 29.9697 32 29.9697Z" fill="#7823DC"/><path d="M32 0 0 0 0 2.03031 32 2.03031 32 0 32 0Z" fill="#7823DC"/><path d="M8 18 6 18 6 22 8 22 8 18 8 18Z" fill="#7823DC"/><path d="M9.11627 26 7.11627 26 7.11627 30 9.11627 30 9.11627 26 9.11627 26Z" fill="#7823DC"/><path d="M8 12 6 12 6 16 8 16 8 12 8 12Z" fill="#7823DC"/><path d="M8 6 6 6 6 10 8 10 8 6 8 6Z" fill="#7823DC"/><path d="M12 18 10 18 10 22 12 22 12 18 12 18Z" fill="#7823DC"/><path d="M13.1163 26 11.1163 26 11.1163 30 13.1163 30 13.1163 26 13.1163 26Z" fill="#7823DC"/><path d="M12 12 10 12 10 16 12 16 12 12 12 12Z" fill="#7823DC"/><path d="M12 6 10 6 10 10 12 10 12 6 12 6Z" fill="#7823DC"/><path d="M16 18 14 18 14 22 16 22 16 18 16 18Z" fill="#7823DC"/><path d="M17.1163 26 15.1163 26 15.1163 30 17.1163 30 17.1163 26 17.1163 26Z" fill="#7823DC"/><path d="M16 12 14 12 14 16 16 16 16 12 16 12Z" fill="#7823DC"/><path d="M16 6 14 6 14 10 16 10 16 6 16 6Z" fill="#7823DC"/><path d="M20 18 18 18 18 22 20 22 20 18 20 18Z" fill="#7823DC"/><path d="M21.1163 26 19.1163 26 19.1163 30 21.1163 30 21.1163 26 21.1163 26Z" fill="#7823DC"/><path d="M20 12 18 12 18 16 20 16 20 12 20 12Z" fill="#7823DC"/><path d="M20 6 18 6 18 10 20 10 20 6 20 6Z" fill="#7823DC"/><path d="M24 18 22 18 22 22 24 22 24 18 24 18Z" fill="#7823DC"/><path d="M25.1163 26 23.1163 26 23.1163 30 25.1163 30 25.1163 26 25.1163 26Z" fill="#7823DC"/><path d="M24 12 22 12 22 16 24 16 24 12 24 12Z" fill="#7823DC"/><path d="M24 6 22 6 22 10 24 10 24 6 24 6Z" fill="#7823DC"/></g></svg>