<svg viewBox="0 0 32 32" xmlns="http://www.w3.org/2000/svg" xmlns:xlink="http://www.w3.org/1999/xlink" id="Layer_2_00000144328325245699140920000014890284756443101063_" xml:space="preserve" overflow="hidden"><style>
.MsftOfcResponsive_Fill_7823dc {
 fill:#7823DC; 
}
</style>
<path d="M21.3 14 9.9 14 14 7.1 9.9 0.1 21.3 0.1 21.3 4.1 19.3 4.1 19.3 2.1 13.4 2.1 16.3 7.1 13.4 12 19.3 12 19.3 10 21.3 10Z" class="st0 MsftOfcResponsive_Fill_7823dc" fill="#7823DC"/><g><path d="M29.4 18.1 20.8 20.8 20.8 19.6 20.8 17.4 18.6 17.7 15.3 18.1 10.1 16.3 9.3 16 8.5 16.4 5.3 18 2 18 0 18 0 20 0 26 0 28 2 28 5.3 28 15.1 32 30.9 23.8 32 23.2 32 22 32 20 32 17.3 29.4 18.1 29.4 18.1 29.4 18.1ZM30 22 15.1 29.8 5.7 26 2 26 2 20 5.8 20 9.5 18 15.1 20 18.8 19.6 18.8 21.6 17.7 22 13.9 22.8 13.9 24.7 17.9 24 17.9 24 30 20 30 22 30 22 30 22Z" class="st1 MsftOfcResponsive_Fill_7823dc" fill="#7823DC" fill-rule="evenodd" clip-rule="evenodd"/></g></svg>