<svg viewBox="0 0 29.22 29.22" xmlns="http://www.w3.org/2000/svg" xmlns:xlink="http://www.w3.org/1999/xlink" xml:space="preserve" overflow="hidden"><g id="Layer_3"></g><g id="Layer_1"></g><g id="Layer_2"></g><g id="Layer_4"></g><g id="Layer_5"><g><path d="M8.15 19.17 20.95 19.17 20.95 21 8.15 21 8.15 19.17Z" fill="#7823DC"/><path d="M8.15 22.84 20.95 22.84 20.95 24.66 8.15 24.66 8.15 22.84Z" fill="#7823DC"/><path d="M20.95 8.36 19.22 8.36 19.22 8.02C19.22 5.5 17.1 3.45 14.5 3.45 11.92 3.45 9.82 5.52 9.82 8.06L9.82 8.35 8.15 8.35 8.15 16.7 18.93 16.7 20.83 14.87 20.78 14.87 20.95 14.7 20.95 8.36ZM19.09 14.87 10.01 14.87 10.01 10.14 19.09 10.14 19.09 14.87ZM11.64 8.36 11.64 8.02C11.64 6.51 12.92 5.28 14.5 5.28 16.05 5.28 17.36 6.53 17.36 8.02L17.36 8.35 11.64 8.35Z" fill="#7823DC"/><path d="M25.97 25.57 25.97 0.02 3.15 0.02 3.15 29.22 22.32 29.22 25.97 25.57ZM4.98 1.84 24.14 1.84 24.14 27.39 4.98 27.39 4.98 1.84Z" fill="#7823DC"/></g></g></svg>