<svg viewBox="0 0 32 32" xmlns="http://www.w3.org/2000/svg" xmlns:xlink="http://www.w3.org/1999/xlink" id="Layer_1" overflow="hidden"><style>
.MsftOfcThm_Text2_Fill_v2 {
 fill:#7823DC; 
}
</style>
<path d="M6 9.51C5.17 9.51 4.5 8.84 4.5 8.01 4.5 7.18 5.17 6.51 6 6.51L6 9.51Z" class="MsftOfcThm_Text2_Fill_v2" fill="#7823DC"/><path d="M6 9.51 6 6.51C6.83 6.51 7.5 7.18 7.5 8.01 7.5 8.84 6.83 9.51 6 9.51Z" class="MsftOfcThm_Text2_Fill_v2" fill="#7823DC"/><path d="M14.33 32 7 32 7 16.61C6.67 16.65 6.33 16.66 6 16.67 3.87 16.66 1.85 15.84 0.31 14.37L-3.88578e-16 14.07 -3.88578e-16 2.54 0.32 2.24C1.86 0.8 3.87 0 5.98 0 7.1-0.02 8.16 0.21 9.18 0.63 10.2 1.05 11.11 1.66 11.88 2.44 12.66 3.22 13.27 4.13 13.69 5.14 14.11 6.16 14.32 7.23 14.32 8.33L14.32 32ZM9 30 12.33 30 12.33 8.33C12.33 7.49 12.17 6.68 11.85 5.91 11.53 5.14 11.07 4.45 10.48 3.86 9.89 3.27 9.2 2.81 8.43 2.49 7.66 2.17 6.84 2.01 6.01 2.01L6 2.01C4.53 2.01 3.14 2.51 2.01 3.43L2.01 13.2C3.13 14.14 4.54 14.66 6.02 14.67 6.6 14.65 7.18 14.59 7.74 14.43L9.02 14.06 9.02 30Z" class="MsftOfcThm_Text2_Fill_v2" fill="#7823DC"/><rect x="7" y="12" width="2" height="3.39" class="MsftOfcThm_Text2_Fill_v2" fill="#7823DC"/><path d="M26 9.51C25.17 9.51 24.5 8.84 24.5 8.01 24.5 7.18 25.17 6.51 26 6.51L26 9.51Z" class="MsftOfcThm_Text2_Fill_v2" fill="#7823DC"/><path d="M26 9.51 26 6.51C26.83 6.51 27.5 7.18 27.5 8.01 27.5 8.84 26.83 9.51 26 9.51Z" class="MsftOfcThm_Text2_Fill_v2" fill="#7823DC"/><path d="M25 32 17.67 32 17.67 8.33C17.67 6.1 18.54 4.01 20.11 2.44 21.68 0.87 23.77 0 26 0 28.08-0.02 30.14 0.79 31.68 2.24L32 2.54 32 14.07 31.68 14.37C30.14 15.82 28.13 16.61 26.01 16.61 25.99 16.61 25.98 16.61 25.96 16.61 25.64 16.61 25.31 16.59 24.99 16.55L24.99 32ZM19.67 30 23 30 23 14 24.28 14.37C24.84 14.53 25.39 14.59 26 14.61L26.02 14.61C27.49 14.61 28.89 14.11 30.01 13.19L30.01 3.43C28.89 2.51 27.49 2.01 26.03 2.01L26.02 2.01C24.33 2.01 22.74 2.67 21.54 3.86 20.34 5.05 19.69 6.65 19.69 8.34L19.69 30.01Z" class="MsftOfcThm_Text2_Fill_v2" fill="#7823DC"/><rect x="23" y="12" width="2" height="3.39" class="MsftOfcThm_Text2_Fill_v2" fill="#7823DC"/></svg>