<svg width="512" height="512" viewBox="0 0 512 512" xmlns="http://www.w3.org/2000/svg" xmlns:xlink="http://www.w3.org/1999/xlink" id="Capa_1" overflow="hidden"><style>
.MsftOfcResponsive_Fill_7823dc {
 fill:#7823DC; 
}
</style>
<g><path d="M512 135C512 110.187 491.813 90 467 90L452 90 452 46C452 20.636 431.364 0 406 0L106 0C80.636 0 60 20.636 60 46L60 90 45 90C20.187 90 0 110.187 0 135L0 210.28 60 210.28 60 441.72 80 441.72 80 467C80 491.813 100.187 512 125 512L145.28 512C170.093 512 190.28 491.813 190.28 467L190.28 441.72 321.721 441.72 321.721 467C321.721 491.813 341.908 512 366.721 512L387 512C411.813 512 432 491.813 432 467L432 441.72 452 441.72 452 210.28 512 210.28ZM106 30 406 30C414.822 30 422 37.178 422 46L422 60 90 60 90 46C90 37.178 97.178 30 106 30ZM30 180.28 30 135C30 126.729 36.729 120 45 120L60 120 60 180.28ZM422 381.72 422 411.72 326.58 411.72 326.58 351.72 185.419 351.72 185.419 411.72 90 411.72 90 381.72 150.419 381.72 150.419 351.72 90 351.72 90 294.216C145.122 302.349 200.56 306.431 256 306.431 311.44 306.431 366.877 302.349 422 294.216L422 351.72 361.58 351.72 361.58 381.72ZM296.58 411.72 215.419 411.72 215.419 381.72 296.58 381.72ZM160.28 467C160.28 475.271 153.551 482 145.28 482L125 482C116.729 482 110 475.271 110 467L110 441.72 160.28 441.72ZM402 467C402 475.271 395.271 482 387 482L366.721 482C358.45 482 351.721 475.271 351.721 467L351.721 441.72 402 441.72ZM422 263.891C311.78 280.602 200.221 280.602 90 263.891L90 210.28 90 90 422 90 422 210.28ZM482 180.28 452 180.28 452 120 467 120C475.271 120 482 126.729 482 135Z" class="MsftOfcResponsive_Fill_7823dc" fill="#7823DC"/></g></svg>