<svg viewBox="0 0 32 32" xmlns="http://www.w3.org/2000/svg" xmlns:xlink="http://www.w3.org/1999/xlink" overflow="hidden"><style>
.MsftOfcResponsive_Fill_7823dc {
 fill:#7823DC; 
}
</style>
<defs></defs><g id="Layer_3"><path d="M29.9665 4 29.9665 22.01 1.96654 22.01 1.96654 4 29.9665 4M28.0165 2-0.03346 2-0.03346 24.01 31.9665 24.01 31.9665 6Z" class="MsftOfcResponsive_Fill_7823dc" fill="#7823DC"/><path d="M17.9665 24.01 17.9665 30.01 13.9665 30.01 13.9665 24.01 17.9665 24.01M19.9665 22.01 11.9665 22.01 11.9665 32.01 19.9665 32.01Z" class="MsftOfcResponsive_Fill_7823dc" fill="#7823DC"/><path d="M25.947 30.01 5.947 30.01 5.947 32.01 25.947 32.01 25.947 30.01 25.947 30.01Z" class="MsftOfcResponsive_Fill_7823dc" fill="#7823DC"/><path d="M7.96715 8 7.96715 18.0293 5.96452 18.0293 5.96452 8 7.96715 8M9.96715 6 3.96452 6 3.96452 20.0293 9.96715 20.0293 9.96715 6Z" class="MsftOfcResponsive_Fill_7823dc" fill="#7823DC"/><path d="M23.5407 7.44958 25.5015 17.2853 23.5375 17.6769 21.5766 7.84113 23.5406 7.44958M25.111 5.09717 19.2242 6.27075 21.9671 20.0293 27.8539 18.8557 25.111 5.09717Z" class="MsftOfcResponsive_Fill_7823dc" fill="#7823DC"/><path d="M11.9671 10 11.9671 18.0293 9.96715 18.0293 9.96715 10 11.9671 10M13.9671 8 7.96715 8 7.96715 20.0293 13.9671 20.0293 13.9671 8Z" class="MsftOfcResponsive_Fill_7823dc" fill="#7823DC"/><path d="M17.9671 12 17.9671 18.0293 15.9671 18.0293 15.9671 12 17.9671 12M19.9671 10 13.9671 10 13.9671 20.0293 19.9671 20.0293 19.9671 10Z" class="MsftOfcResponsive_Fill_7823dc" fill="#7823DC"/><path d="M15.947 8 11.967 8 11.967 20.029 15.947 20.029 15.947 8 15.947 8Z" class="MsftOfcResponsive_Fill_7823dc" fill="#7823DC"/><rect x="5.96715" y="10" width="2" height="2" class="MsftOfcResponsive_Fill_7823dc" fill="#7823DC"/><rect x="22.1425" y="9.57399" width="2" height="2" class="MsftOfcResponsive_Fill_7823dc" fill="#7823DC" transform="matrix(0.9807 -0.19551 0.19551 0.9807 -1.62073 4.72872)"/><rect x="5.96715" y="14" width="2" height="2" class="MsftOfcResponsive_Fill_7823dc" fill="#7823DC"/></g></svg>