<svg width="31.95" height="31.97" viewBox="0 0 31.95 31.97" xmlns="http://www.w3.org/2000/svg" xmlns:xlink="http://www.w3.org/1999/xlink" overflow="hidden"><defs></defs><rect x="9.97" y="0" width="2" height="4.01" fill="#7823DC"/><rect x="13.97" y="0" width="2" height="4.01" fill="#7823DC"/><rect x="17.98" y="0" width="2" height="4.01" fill="#7823DC"/><rect x="21.99" y="0" width="2" height="4.01" fill="#7823DC"/><rect x="5.96" y="8" width="4.01" height="4.01" fill="#7823DC"/><rect x="11.95" y="8" width="4.01" height="4.01" fill="#7823DC"/><rect x="17.95" y="8" width="4.01" height="4.01" fill="#7823DC"/><rect x="17.95" y="14" width="4.01" height="4.01" fill="#7823DC"/><rect x="23.95" y="8" width="4.01" height="4.01" fill="#7823DC"/><rect x="23.95" y="14" width="4.01" height="4.01" fill="#7823DC"/><rect x="23.95" y="20" width="4.01" height="4.01" fill="#7823DC"/><g><path d="M8.94 16.09C12.77 16.09 15.88 19.2 15.88 23.03 15.88 26.86 12.77 29.97 8.94 29.97 5.11 29.97 2 26.85 2 23.03 2 19.2 5.11 16.09 8.94 16.09M8.94 14.09C4 14.09 0 18.09 0 23.03 0 27.97 4 31.97 8.94 31.97 13.88 31.97 17.88 27.97 17.88 23.03 17.88 18.09 13.88 14.09 8.94 14.09L8.94 14.09Z" fill="#7823DC"/></g><g><path d="M3.96 11.99 3.96 2 7.96 2 7.96 0 1.96 0 1.96 11.99 1.96 13.97Z" fill="#7823DC"/><path d="M25.94 0 25.94 2 29.95 2 29.95 25.99 19.94 25.99 17.93 27.99 31.95 27.99 31.95 0Z" fill="#7823DC"/></g><path d="M13.33 26.01 10.36 23.03 13.42 20 10.58 20 7.52 23.02 10.5 26.01Z" fill="#7823DC"/></svg>