<svg viewBox="0 0 32 32" xmlns="http://www.w3.org/2000/svg" xmlns:xlink="http://www.w3.org/1999/xlink" overflow="hidden"><defs></defs><g id="Layer_3"><path d="M16.0119 2.18819 27.0133 7.005 16.018 11.8173 5.00008 6.99165 16.0119 2.18819M16.0134 0.00557 0.00644 6.98787 16.0178 14.0007 32.0006 7.00533 16.0134 0.00557Z" fill="#7823DC"/><path d="M31.994 10.835 16.018 17.823 0.012 10.805 0.012 12.988 16.017 20.007 31.994 13.018 31.994 10.835Z" fill="#7823DC"/><path d="M16.018 23.816 0.012 16.797 0.012 18.981 16.017 25.999 32.001 19.007 32.001 16.824 16.018 23.816Z" fill="#7823DC"/><path d="M16.018 29.808-0.005 22.781-0.005 24.965 16.017 31.991 31.997 25.001 31.997 22.818 16.018 29.808Z" fill="#7823DC"/></g></svg>