<svg viewBox="0 0 32 32" xmlns="http://www.w3.org/2000/svg" xmlns:xlink="http://www.w3.org/1999/xlink" id="Layer_1" xml:space="preserve" overflow="hidden"><g><path d="M23.3 32 2.1 32 2.1 0.8 9.5 0.8 9.5 2.7 4.1 2.7 4.1 30 22 30 28 17.8 25.9 6 25.9 2.7 13.9 2.7 13.9 0.8 27.9 0.8 27.9 5.9 30 18.1Z" fill="#7823DC"/><g><defs><path d="M1.9 32 30.1 32 30.1 0 1.9 0 1.9 32Z" id="SVGID_1_" fill="#7823DC"/></defs><clipPath id="SVGID_00000155824619027164582650000005205142550381544372_"><use width="100%" height="100%" xlink:href="#SVGID_1_" overflow="visible"></use></clipPath><rect x="3.8" y="6.3" width="5.7" height="2" fill="#7823DC" clip-path="url(#SVGID_00000155824619027164582650000005205142550381544372_)"/><g clip-path="url(#SVGID_00000155824619027164582650000005205142550381544372_)"><defs><path d="M1.9 32 30.1 32 30.1 0 1.9 0 1.9 32Z" id="SVGID_00000090994796073135645680000013896370576692633239_" fill="#7823DC"/></defs><clipPath id="SVGID_00000021115837904198552220000015609847779384055473_"><use width="100%" height="100%" xlink:href="#SVGID_00000090994796073135645680000013896370576692633239_" overflow="visible"></use></clipPath><rect x="13.9" y="6.3" width="12.6" height="2" fill="#7823DC" clip-path="url(#SVGID_00000021115837904198552220000015609847779384055473_)"/><g clip-path="url(#SVGID_00000021115837904198552220000015609847779384055473_)"><defs><path d="M1.9 32 30.1 32 30.1 0 1.9 0 1.9 32Z" id="SVGID_00000081630395869016173550000009649500969036186533_" fill="#7823DC"/></defs><clipPath id="SVGID_00000176010345649859153010000017652230995147143090_"><use width="100%" height="100%" xlink:href="#SVGID_00000081630395869016173550000009649500969036186533_" overflow="visible"></use></clipPath><rect x="2.9" y="10.2" width="24.8" height="2" fill="#7823DC" clip-path="url(#SVGID_00000176010345649859153010000017652230995147143090_)"/><g clip-path="url(#SVGID_00000176010345649859153010000017652230995147143090_)"><defs><path d="M1.9 32 30.1 32 30.1 0 1.9 0 1.9 32Z" id="SVGID_00000133519070304208563030000015789749591379235487_" fill="#7823DC"/></defs><clipPath id="SVGID_00000080908842609454737050000015372171202690997667_"><use width="100%" height="100%" xlink:href="#SVGID_00000133519070304208563030000015789749591379235487_" overflow="visible"></use></clipPath><rect x="9.5" y="19.4" width="10.9" height="2" fill="#7823DC" clip-path="url(#SVGID_00000080908842609454737050000015372171202690997667_)"/><g clip-path="url(#SVGID_00000080908842609454737050000015372171202690997667_)"><defs><path d="M1.9 32 30.1 32 30.1 0 1.9 0 1.9 32Z" id="SVGID_00000153663475731929461410000005907097424775591584_" fill="#7823DC"/></defs><clipPath id="SVGID_00000136387423759897948980000002227586978499405704_"><use width="100%" height="100%" xlink:href="#SVGID_00000153663475731929461410000005907097424775591584_" overflow="visible"></use></clipPath><rect x="21.2" y="1" width="2" height="7" fill="#7823DC" clip-path="url(#SVGID_00000136387423759897948980000002227586978499405704_)"/><g clip-path="url(#SVGID_00000136387423759897948980000002227586978499405704_)"><defs><path d="M1.9 32 30.1 32 30.1 0 1.9 0 1.9 32Z" id="SVGID_00000033360623676363642470000000916819312194390417_" fill="#7823DC"/></defs><clipPath id="SVGID_00000121271242962298549960000011513212640718891693_"><use width="100%" height="100%" xlink:href="#SVGID_00000033360623676363642470000000916819312194390417_" overflow="visible"></use></clipPath><path d="M15 26.9 8.5 24.9 8.6 15.4 21.3 15.4 21.3 24.8 15 26.9ZM10.5 23.4 15 24.8 19.4 23.3 19.4 17.3 10.6 17.3 10.5 23.4Z" fill="#7823DC" clip-path="url(#SVGID_00000121271242962298549960000011513212640718891693_)"/><g clip-path="url(#SVGID_00000121271242962298549960000011513212640718891693_)"><defs><path d="M1.9 32 30.1 32 30.1 0 1.9 0 1.9 32Z" id="SVGID_00000173839212875247822630000006311887564370094269_" fill="#7823DC"/></defs><clipPath id="SVGID_00000182495651995717555680000008849315249987754142_"><use width="100%" height="100%" xlink:href="#SVGID_00000173839212875247822630000006311887564370094269_" overflow="visible"></use></clipPath><path d="M14.8 9.3 8.5 9.3 8.5 0 14.9 0 14.9 9.3ZM10.4 7.3 12.8 7.3 12.8 2 10.4 2 10.4 7.3Z" fill="#7823DC" clip-path="url(#SVGID_00000182495651995717555680000008849315249987754142_)"/></g></g></g></g></g></g></g></g></svg>