<svg viewBox="0 0 32 32" xmlns="http://www.w3.org/2000/svg" xmlns:xlink="http://www.w3.org/1999/xlink" id="Layer_1" overflow="hidden"><style>
.MsftOfcThm_Text2_Fill_v2 {
 fill:#7823DC; 
}
</style>
<defs></defs><path d="M9.86 13.09 7.07 2.05 7.84 1.71C13.03-0.57 18.97-0.57 24.15 1.71L24.92 2.05 22.13 13.09 20.19 12.6 22.56 3.22C18.34 1.6 13.64 1.6 9.42 3.22L11.79 12.6 9.85 13.09Z" class="MsftOfcThm_Text2_Fill_v2" stroke-width="0" fill="#7823DC"/><rect x="0" y="18.71" width="32" height="2" class="MsftOfcThm_Text2_Fill_v2" stroke-width="0" fill="#7823DC"/><path d="M31 19.71 29 19.71 29 15.11C29 11.04 26.64 7.39 22.69 5.32L23.62 3.55C28.17 5.93 31 10.36 31 15.11L31 19.71Z" class="MsftOfcThm_Text2_Fill_v2" stroke-width="0" fill="#7823DC"/><path d="M3 19.71 1 19.71 1 15.11C1 10.36 3.83 5.93 8.38 3.55L9.31 5.32C5.36 7.38 3 11.04 3 15.11L3 19.71Z" class="MsftOfcThm_Text2_Fill_v2" stroke-width="0" fill="#7823DC"/><path d="M13.83 32 12.98 31.74C11.35 31.24 9.83 30.34 8.71 29.22L8.1 28.61 8.62 27.92C9.08 27.31 9.14 26.49 8.77 25.83 8.27 24.83 7.3 24.82 6.91 24.86L5.98 24.95 5.83 24.03C5.71 23.31 5.59 22.58 5.59 21.71 5.59 20.94 5.72 20.06 5.83 19.39L7.8 19.72C7.7 20.32 7.59 21.09 7.59 21.71 7.59 22.12 7.63 22.5 7.68 22.88 8.93 23.04 9.99 23.76 10.55 24.89 11.13 25.93 11.17 27.21 10.7 28.31 11.33 28.82 12.06 29.25 12.86 29.57 13.61 28.58 14.77 27.97 16.02 27.97 17.27 27.97 18.43 28.58 19.18 29.57 19.92 29.26 20.63 28.84 21.33 28.29 20.86 27.19 20.91 25.92 21.51 24.86 22.08 23.83 23.19 23.1 24.36 22.9 24.41 22.5 24.45 22.08 24.45 21.71 24.45 21 24.35 20.38 24.24 19.72L26.21 19.39C26.33 20.1 26.45 20.83 26.45 21.71 26.45 22.49 26.32 23.36 26.21 24.03L26.05 24.97 25.11 24.86C24.51 24.79 23.64 25.14 23.26 25.83 22.89 26.49 22.95 27.31 23.41 27.92L23.96 28.65 23.28 29.26C21.94 30.47 20.55 31.28 19.05 31.74L18.2 32 17.84 31.19C17.59 30.63 16.96 29.97 16.03 29.97 15.26 29.97 14.55 30.45 14.22 31.19L13.86 32Z" class="MsftOfcThm_Text2_Fill_v2" stroke-width="0" fill="#7823DC"/><path d="M16 26.24C13.53 26.24 11.59 24.3 11.59 21.83 11.59 20.68 12.02 19.63 12.79 18.85L14.2 20.26C13.8 20.66 13.58 21.21 13.58 21.82 13.58 23.19 14.61 24.23 15.99 24.23 17.37 24.23 18.4 23.2 18.4 21.82 18.4 21.21 18.18 20.65 17.78 20.26L19.19 18.85C19.96 19.62 20.39 20.68 20.39 21.83 20.39 24.3 18.45 26.24 15.98 26.24Z" class="MsftOfcThm_Text2_Fill_v2" stroke-width="0" fill="#7823DC"/></svg>