<svg viewBox="0 0 32 32" xmlns="http://www.w3.org/2000/svg" xmlns:xlink="http://www.w3.org/1999/xlink" id="Layer_1" overflow="hidden"><path d="M27 2 27 22 5 22 5 2 27 2M29 0 3 0 3 24 29 24 29 0 29 0Z" fill="#7823DC"/><path d="M24 24 24 30 8 30 8 24 24 24M26 22 6 22 6 32 26 32 26 22 26 22Z" fill="#7823DC"/><path d="M24 5 24 19 8 19 8 5 24 5M26 3 6 3 6 21 26 21 26 3 26 3Z" fill="#7823DC"/><circle cx="10" cy="17" r="1" fill="#7823DC"/><circle cx="13" cy="17" r="1" fill="#7823DC"/><circle cx="16" cy="17" r="1" fill="#7823DC"/><circle cx="19" cy="17" r="1" fill="#7823DC"/><circle cx="22" cy="17" r="1" fill="#7823DC"/><g><path d="M15 14.4 19 10.4 18.7 9.5 15.7 9.5 17.6 7.7 17.6 6 13.8 9.8 14.2 10.7 17.1 10.7 15 12.8 15 14.4 15 14.4 15 14.4 15 14.4Z" fill="#7823DC" fill-rule="evenodd" clip-rule="evenodd"/><path d="M14.6 15.3 14.6 12.6 16.1 11.1 13.8 11.1 13.2 9.7 18 5.1 18 7.8 16.7 9.1 19 9.1 19.6 10.5 14.6 15.3ZM15.4 12.9 15.4 13.5 18.6 10.3 18.4 9.8 14.8 9.8 17.2 7.4 17.2 6.8 14.2 9.8 14.4 10.3 18 10.3 15.4 12.9Z" fill="#7823DC"/></g><rect x="9" y="24" width="2" height="3" fill="#7823DC"/><rect x="12" y="24" width="2" height="3" fill="#7823DC"/><rect x="15" y="24" width="2" height="3" fill="#7823DC"/><rect x="18" y="24" width="2" height="3" fill="#7823DC"/><rect x="21" y="24" width="2" height="3" fill="#7823DC"/><rect x="1" y="6" width="2" height="2" fill="#7823DC"/><rect x="29" y="6" width="2" height="2" fill="#7823DC"/></svg>