<svg width="36.5" height="36.5" viewBox="0 0 36.5 36.5" xmlns="http://www.w3.org/2000/svg" xmlns:xlink="http://www.w3.org/1999/xlink" overflow="hidden"><defs></defs><g><g><defs><path d="M0 36.5 36.5 36.5 36.5 0 0 0 0 36.5Z" id="SVGID_1_" fill="#7823DC"/></defs><clipPath id="SVGID_2_"><use width="100%" height="100%" xlink:href="#SVGID_1_"></use></clipPath><g clip-path="url(#SVGID_2_)"><defs><path d="M0 36.5 36.5 36.5 36.5 0 0 0 0 36.5Z" id="SVGID_3_" fill="#7823DC"/></defs><clipPath id="SVGID_4_"><use width="100%" height="100%" xlink:href="#SVGID_3_"></use></clipPath><path d="M18.2 18.9C15.4 18.9 13.1 16.6 13.1 13.8 13.1 11 15.4 8.7 18.2 8.7 21 8.7 23.3 11 23.3 13.8 23.4 16.5 21.1 18.9 18.2 18.9ZM18.2 10.9C16.6 10.9 15.4 12.2 15.4 13.8 15.4 15.4 16.7 16.7 18.2 16.7 19.8 16.7 21 15.4 21 13.8 21 12.2 19.8 10.9 18.2 10.9Z" fill="#7823DC" clip-path="url(#SVGID_4_)"/><path d="M29.7 17.1C27.8 17.1 26.3 15.6 26.3 13.7 26.3 11.8 27.8 10.3 29.7 10.3 31.6 10.3 33.1 11.8 33.1 13.7 33.1 15.6 31.5 17.1 29.7 17.1ZM29.7 12.6C29.1 12.6 28.6 13.1 28.6 13.7 28.6 14.3 29.1 14.8 29.7 14.8 30.3 14.8 30.8 14.3 30.8 13.7 30.8 13.1 30.3 12.6 29.7 12.6Z" fill="#7823DC" clip-path="url(#SVGID_4_)"/><path d="M6.8 17.1C4.9 17.1 3.4 15.6 3.4 13.7 3.4 11.8 4.9 10.3 6.8 10.3 8.7 10.3 10.2 11.8 10.2 13.7 10.2 15.6 8.7 17.1 6.8 17.1ZM6.8 12.6C6.2 12.6 5.7 13.1 5.7 13.7 5.7 14.3 6.2 14.8 6.8 14.8 7.4 14.8 8 14.3 8 13.7 8 13.1 7.5 12.6 6.8 12.6Z" fill="#7823DC" clip-path="url(#SVGID_4_)"/><path d="M27.4 34.3 25.1 34.3 25.1 25.1 11.4 25.1 11.4 34.3 9.1 34.3 9.1 22.9 27.4 22.9 27.4 34.3 27.4 34.3Z" fill="#7823DC" clip-path="url(#SVGID_4_)"/><path d="M32 18.3 22.8 18.3 22.8 21.7 25.1 21.7 25.1 20.6 34.2 20.6 34.2 27.4 36.5 27.4 36.5 22.8 32 18.3 32 18.3Z" fill="#7823DC" clip-path="url(#SVGID_4_)"/><path d="M4.6 18.3 0 22.9 0 27.4 2.3 27.4 2.3 20.6 11.4 20.6 11.4 21.7 13.7 21.7 13.7 18.3 4.6 18.3 4.6 18.3Z" fill="#7823DC" clip-path="url(#SVGID_4_)"/></g></g></g></svg>