<svg viewBox="0 0 32 32" xmlns="http://www.w3.org/2000/svg" xmlns:xlink="http://www.w3.org/1999/xlink" id="Layer_2_00000144328325245699140920000014890284756443101063_" xml:space="preserve" overflow="hidden"><g><path d="M16 21.4C8.2 21.4 0 19.2 0 15.1 0 11 8.2 8.8 16 8.8 23.8 8.8 32 11 32 15.1 32 19.2 23.8 21.4 16 21.4L16 21.4ZM16 10.8C7.3 10.8 2 13.3 2 15.1 2 16.9 7.3 19.4 16 19.4 24.7 19.4 30 16.9 30 15.1 30 13.3 24.7 10.8 16 10.8L16 10.8Z" fill="#7823DC" fill-rule="evenodd" clip-rule="evenodd"/><path d="M16 23.2C15.5 23.2 15 23.1 14.6 22.8 13.2 22 12.7 20.2 13.5 18.8 14.3 17.4 16.1 16.9 17.5 17.7 18.9 18.5 19.4 20.3 18.6 21.7 18 22.7 17 23.2 16 23.2L16 23.2ZM16 19.4C15.7 19.4 15.4 19.6 15.2 19.9 15 20.3 15.1 20.9 15.5 21.1 15.9 21.4 16.5 21.2 16.7 20.8 16.9 20.4 16.8 19.8 16.4 19.6 16.3 19.4 16.2 19.4 16 19.4L16 19.4Z" fill="#7823DC" fill-rule="evenodd" clip-rule="evenodd"/><path d="M12 18.2 10 16.2 11.4 14.8 13.4 16.8 12 18.2 12 18.2Z" fill="#7823DC" fill-rule="evenodd" clip-rule="evenodd"/><path d="M20.1 18.2 18.6 16.8 20.6 14.8 22.1 16.2 20.1 18.2 20.1 18.2Z" fill="#7823DC" fill-rule="evenodd" clip-rule="evenodd"/><path d="M15 13.5 17 13.5 17 16.4 15 16.4 15 13.5Z" fill="#7823DC" fill-rule="evenodd" clip-rule="evenodd"/></g></svg>