<svg viewBox="0 0 32 32" xmlns="http://www.w3.org/2000/svg" xmlns:xlink="http://www.w3.org/1999/xlink" id="Layer_1" overflow="hidden"><style>
.MsftOfcResponsive_Fill_7823dc {
 fill:#7823DC; 
}
</style>
<defs></defs><path d="M31.97 32C29.04 32 26.27 30.68 23.59 28.87 23.06 30.68 21.39 32 19.42 32L13.4 32 13.4 29.37C12.82 30.84 11.46 32 9.38 32L0.14 32 2.14 28.12C1.1 27.48 0 26.26 0 24.29 0 21.3 2.53 18.28 8.18 18.28 13.39 18.28 16.52 20.82 19.28 23.06L19.85 23.52C23.81 26.7 27.9 30 31.97 30L31.97 32ZM15.39 30 19.41 30C20.7 30 21.76 28.95 21.76 27.65L21.76 27.57C20.69 26.77 19.64 25.92 18.6 25.08L18.02 24.61C15.4 22.48 12.68 20.28 8.18 20.28 4.42 20.28 2 21.86 2 24.29 2 25.91 3.26 26.5 3.67 26.65L8.59 26.65 8.59 28.65 4.12 28.65 3.42 30 9.37 30C11.22 30 11.72 28.52 11.72 27.65 11.72 26.22 10.8 25.3 9.37 25.3L5.18 25.3 5.18 23.3 9.37 23.3C11.6 23.3 13.29 24.73 13.65 26.81L15.39 26.81 15.39 30Z" class="MsftOfcResponsive_Fill_7823dc" stroke-width="0" fill="#7823DC"/><path d="M23.79 13.72C18.58 13.72 15.45 11.18 12.69 8.94L12.12 8.48C8.16 5.29 4.07 2 0 2L0 0C2.93 0 5.7 1.32 8.38 3.13 8.91 1.33 10.58 0 12.55 0L18.57 0 18.57 2.63C19.15 1.16 20.51 0 22.59 0L31.82 0 29.82 3.88C30.86 4.52 31.96 5.74 31.96 7.71 31.96 10.7 29.43 13.72 23.78 13.72ZM10.21 4.43C11.28 5.23 12.33 6.08 13.37 6.92L13.95 7.39C16.57 9.52 19.29 11.72 23.79 11.72 27.55 11.72 29.97 10.14 29.97 7.71 29.97 6.06 28.69 5.49 28.31 5.35L23.39 5.35 23.39 3.35 27.86 3.35 28.56 2 22.61 2C20.76 2 20.26 3.48 20.26 4.35 20.26 5.78 21.18 6.7 22.61 6.7L26.8 6.7 26.8 8.7 22.61 8.7C20.38 8.7 18.69 7.27 18.33 5.19L16.59 5.19 16.59 2 12.57 2C11.28 2 10.22 3.05 10.22 4.35L10.22 4.43Z" class="MsftOfcResponsive_Fill_7823dc" stroke-width="0" fill="#7823DC"/><path d="M6 18C2.69 18 0 15.31 0 12 0 8.69 2.69 6 6 6 9.31 6 12 8.69 12 12 12 15.31 9.31 18 6 18ZM6 8C3.79 8 2 9.79 2 12 2 14.21 3.79 16 6 16 8.21 16 10 14.21 10 12 10 9.79 8.21 8 6 8Z" class="MsftOfcResponsive_Fill_7823dc" stroke-width="0" fill="#7823DC"/><path d="M26 26C22.69 26 20 23.31 20 20 20 16.69 22.69 14 26 14 29.31 14 32 16.69 32 20 32 23.31 29.31 26 26 26ZM26 16C23.79 16 22 17.79 22 20 22 22.21 23.79 24 26 24 28.21 24 30 22.21 30 20 30 17.79 28.21 16 26 16Z" class="MsftOfcResponsive_Fill_7823dc" stroke-width="0" fill="#7823DC"/></svg>