<svg viewBox="0 0 32 32" xmlns="http://www.w3.org/2000/svg" xmlns:xlink="http://www.w3.org/1999/xlink" overflow="hidden"><defs></defs><g id="Layer_3"><path d="M8 2 8 8 2 8 2 2 8 2M10 0 0 0 0 10 10 10 10 0Z" fill="#7823DC"/><path d="M5 24C6.65685 24 8 25.3431 8 27 8 28.6569 6.65685 30 5 30 3.34315 30 2 28.6569 2 27 2.00186 25.3439 3.34392 24.0019 5 24M5 22C2.23858 22 8.88178e-16 24.2386 1.77636e-15 27 1.77636e-15 29.7614 2.23858 32 5 32 7.76142 32 10 29.7614 10 27 10 24.2386 7.76142 22 5 22Z" fill="#7823DC"/><path d="M26.2679 26.0718 27.4019 28.0359 28.5359 30 24 30 25.134 28.0359 26.268 26.0718M26.268 22.0718 23.402 27.0359 20.5359 32 32 32 29.134 27.0359 26.268 22.0718Z" fill="#7823DC"/><path d="M29.419 0.028 23.379 6.928 21.513 4.697 18.92 4.697 18.905 4.71 23.379 10.028 32.037 0.028 29.419 0.028Z" fill="#7823DC"/><rect x="4.00043" y="12" width="1.9995" height="6.00067" fill="#7823DC"/><path d="M5.003 17.169 2 14.17 2 16.997 5.003 20 8 17.001 8 14.174 5.003 17.169Z" fill="#7823DC"/><rect x="12" y="26.0001" width="6.00067" height="1.9995" fill="#7823DC"/><path d="M17.169 26.997 14.17 30 16.997 30 20 26.997 17.001 24 14.174 24 17.169 26.997Z" fill="#7823DC"/><rect x="25.268" y="13.9993" width="1.9995" height="6.00067" fill="#7823DC"/><path d="M26.265 14.831 29.268 17.83 29.268 15.003 26.265 12 23.268 14.999 23.268 17.826 26.265 14.831Z" fill="#7823DC"/></g></svg>