<svg viewBox="0 0 32 32" xmlns="http://www.w3.org/2000/svg" xmlns:xlink="http://www.w3.org/1999/xlink" id="Layer_1" overflow="hidden"><g><path d="M17 15 0 15 0 20.3 17 20.3C17.6 20.3 18 19.9 18 19.3L18 16C18 15.4 17.6 15 17 15ZM16 18.3 2 18.3 2 17 16 17 16 18.3Z" fill="#7823DC"/></g><g><path d="M17 7.7C16.4 7.7 16 8.1 16 8.7L16 12C16 12.6 16.4 13 17 13L32 13 32 7.7 17 7.7ZM32 11 18 11 18 9.7 32 9.7 32 11Z" fill="#7823DC"/></g><g><path d="M6 20.2 6 20.3 5.2 24 3.5 32 1.4 32 3.9 20.3 4 19.8Z" fill="#7823DC"/></g><g><path d="M15.6 32 13.6 32 11.8 24 11 20.3 11 20.2 13 19.8 13.1 20.3Z" fill="#7823DC"/></g><rect x="4" y="24" width="9" height="2" fill="#7823DC"/><path d="M5.6 15.9 3.7 16.1 3.5 15 2.2 0.3 2.2 0 2.2 0 2.2 0 4.2 0 5.6 15Z" fill="#7823DC"/><path d="" stroke="#7823DC" stroke-width="2" stroke-linejoin="bevel" stroke-miterlimit="10" fill="#7823DC"/><path d="M2.2 0 2.2 0.3 2 15 2 16 0 16 0 16 0.2 0 2.2 0Z" fill="#7823DC"/><path d="M28.2 13 28.2 13.9 24.4 13.9 24.4 13 28.2 13M30.2 11 22.4 11 22.4 15.9 30.2 15.9 30.2 11 30.2 11Z" fill="#7823DC"/><rect x="25.3" y="15.1" width="2" height="16.9" fill="#7823DC"/><rect x="22" y="30.1" width="8.7" height="2" fill="#7823DC"/></svg>