<svg viewBox="0 0 32 29.71" xmlns="http://www.w3.org/2000/svg" xmlns:xlink="http://www.w3.org/1999/xlink" id="Text" overflow="hidden"><style>
.MsftOfcResponsive_Fill_7823dc {
 fill:#7823DC; 
}
</style>
<defs></defs><path d="M24 8.22 13.96 18.26 10.32 14.62 10.32 17.86 12.35 19.88 12.35 19.88 13.96 21.5 15.59 19.88 15.58 19.88 24.01 11.46 24 8.22 24 8.22Z" class="MsftOfcResponsive_Fill_7823dc" fill="#7823DC"/><path d="M364.3 1.14C356.104 1.11025 349.436 7.73019 349.406 15.926 349.396 18.788 350.213 21.592 351.76 24L347.16 28.62 347.16 30.91 364.3 30.91C372.507 30.91 379.16 24.257 379.16 16.05 379.16 7.84305 372.507 1.19 364.3 1.19ZM350.41 28.57 353.15 25.82 354.77 24.22C350.23 18.9533 350.82 11.0035 356.086 6.46377 361.353 1.92399 369.303 2.51329 373.842 7.78 378.382 13.0467 377.793 20.9965 372.526 25.5362 370.239 27.5077 367.32 28.5915 364.3 28.59L364.3 28.59 350.41 28.59Z" class="MsftOfcResponsive_Fill_7823dc" fill="#7823DC" transform="translate(-347.16 -1.14)"/></svg>