<svg viewBox="0 0 32 32" xmlns="http://www.w3.org/2000/svg" xmlns:xlink="http://www.w3.org/1999/xlink" id="Layer_1" overflow="hidden"><style>
.MsftOfcResponsive_Fill_7823dc {
 fill:#7823DC; 
}
</style>
<g><path d="M18 2 18 7 2 7 2 2 18 2M20 0 0 0 0 9 20 9 20 0 20 0Z" class="MsftOfcResponsive_Fill_7823dc" fill="#7823DC"/><rect x="3" y="3.5" width="6" height="2" class="MsftOfcResponsive_Fill_7823dc" fill="#7823DC"/><rect x="15" y="3.5" width="2" height="2" class="MsftOfcResponsive_Fill_7823dc" fill="#7823DC"/><rect x="12" y="3.5" width="2" height="2" class="MsftOfcResponsive_Fill_7823dc" fill="#7823DC"/></g><g><path d="M18 25 18 30 2 30 2 25 18 25M20 23 0 23 0 32 20 32 20 23 20 23Z" class="MsftOfcResponsive_Fill_7823dc" fill="#7823DC"/><rect x="3" y="26.5" width="6" height="2" class="MsftOfcResponsive_Fill_7823dc" fill="#7823DC"/><rect x="15" y="26.5" width="2" height="2" class="MsftOfcResponsive_Fill_7823dc" fill="#7823DC"/><rect x="12" y="26.5" width="2" height="2" class="MsftOfcResponsive_Fill_7823dc" fill="#7823DC"/></g><g><path d="M18 13.5 18 18.5 2 18.5 2 13.5 18 13.5M20 11.5 0 11.5 0 20.5 20 20.5 20 11.5 20 11.5Z" class="MsftOfcResponsive_Fill_7823dc" fill="#7823DC"/><rect x="3" y="15" width="6" height="2" class="MsftOfcResponsive_Fill_7823dc" fill="#7823DC"/><rect x="15" y="15" width="2" height="2" class="MsftOfcResponsive_Fill_7823dc" fill="#7823DC"/><rect x="12" y="15" width="2" height="2" class="MsftOfcResponsive_Fill_7823dc" fill="#7823DC"/></g><path d="M28.6 14.5C29.4 14.5 30.1 15.2 30.1 16 30.1 16.8 29.4 17.5 28.6 17.5 27.8 17.5 27.1 16.8 27.1 16 27.1 15.2 27.7 14.5 28.6 14.5M28.6 12.5C26.7 12.5 25.1 14.1 25.1 16 25.1 17.9 26.7 19.5 28.6 19.5 30.5 19.5 32.1 17.9 32.1 16 32.1 14.1 30.5 12.5 28.6 12.5L28.6 12.5Z" class="MsftOfcResponsive_Fill_7823dc" fill="#7823DC"/><path d="M28.6 5.8C29.4 5.8 30.1 6.5 30.1 7.3 30.1 8.1 29.4 8.8 28.6 8.8 27.8 8.8 27.1 8.1 27.1 7.3 27.1 6.5 27.7 5.8 28.6 5.8M28.6 3.8C26.7 3.8 25.1 5.4 25.1 7.3 25.1 9.2 26.7 10.8 28.6 10.8 30.5 10.8 32.1 9.2 32.1 7.3 32.1 5.4 30.5 3.8 28.6 3.8L28.6 3.8Z" class="MsftOfcResponsive_Fill_7823dc" fill="#7823DC"/><path d="M28.5 23.1C29.3 23.1 30 23.8 30 24.6 30 25.4 29.3 26.1 28.5 26.1 27.7 26.1 27 25.4 27 24.6 27 23.7 27.7 23.1 28.5 23.1M28.5 21.1C26.6 21.1 25 22.7 25 24.6 25 26.5 26.6 28.1 28.5 28.1 30.4 28.1 32 26.5 32 24.6 32 22.7 30.4 21.1 28.5 21.1L28.5 21.1Z" class="MsftOfcResponsive_Fill_7823dc" fill="#7823DC"/><path d="M29.6 5 27.6 5 27.6 2.9 20 2.9 20 0.9 29.6 0.9Z" class="MsftOfcResponsive_Fill_7823dc" fill="#7823DC"/><path d="M29.5 31.1 19.8 31.1 19.8 29.1 27.5 29.1 27.5 27 29.5 27Z" class="MsftOfcResponsive_Fill_7823dc" fill="#7823DC"/><rect x="27.6" y="10" width="2" height="3.3" class="MsftOfcResponsive_Fill_7823dc" fill="#7823DC"/><rect x="27.6" y="19.1" width="2" height="2.4" class="MsftOfcResponsive_Fill_7823dc" fill="#7823DC"/></svg>