<svg viewBox="0 0 31.99 31.98" xmlns="http://www.w3.org/2000/svg" xmlns:xlink="http://www.w3.org/1999/xlink" id="Layer_1" overflow="hidden"><style>
.MsftOfcResponsive_Fill_7823dc {
 fill:#7823DC; 
}
</style>
<defs></defs><path d="M20 31.98 0 31.98 0 6.32 13.64 0.23C14.7-0.19 15.38 0.04 15.76 0.3 16.15 0.57 16.62 1.12 16.62 2.22L16.62 5.96 20 5.96 20 31.97ZM2 29.98 18 29.98 18 7.97 2 7.97 2 29.98ZM5.69 5.97 14.62 5.97 14.62 2.23C14.62 2.14 14.62 2.07 14.61 2.02 14.56 2.03 14.5 2.05 14.42 2.08L5.69 5.97Z" class="MsftOfcResponsive_Fill_7823dc" fill="#7823DC"/><path d="M28 27.09 26 27.09C26 24.97 26.87 23.26 28.52 22.13 29.47 21.49 29.99 20.23 29.99 18.59L29.99 10.01 31.99 10.01 31.99 18.59C31.99 20.91 31.16 22.75 29.64 23.78 28.53 24.53 27.99 25.61 27.99 27.08Z" class="MsftOfcResponsive_Fill_7823dc" fill="#7823DC"/><path d="M28 27.09 26 27.09C26 25.65 25.5 24.65 24.31 23.76 22.77 22.57 22 20.84 22 18.6L22 9.98 24 9.98 24 18.6C24 20.21 24.5 21.38 25.52 22.17 27.18 23.42 27.99 25.03 27.99 27.09Z" class="MsftOfcResponsive_Fill_7823dc" fill="#7823DC"/><rect x="26" y="10.01" width="2" height="9.17" class="MsftOfcResponsive_Fill_7823dc" fill="#7823DC"/><rect x="26" y="26.93" width="2" height="5.04" class="MsftOfcResponsive_Fill_7823dc" fill="#7823DC"/><path d="M16 17.98 4 17.98 4 9.98 16 9.98 16 17.98ZM6 15.98 14 15.98 14 11.98 6 11.98 6 15.98Z" class="MsftOfcResponsive_Fill_7823dc" fill="#7823DC"/></svg>