<svg viewBox="0 0 32 32" xmlns="http://www.w3.org/2000/svg" xmlns:xlink="http://www.w3.org/1999/xlink" overflow="hidden"><style>
.MsftOfcResponsive_Fill_7823dc {
 fill:#7823DC; 
}
</style>
<defs></defs><g id="Layer_3"><path d="M9.00026 9.92994C9.55255 9.92994 10.0003 10.3777 10.0003 10.9299 10.0003 11.4822 9.55255 11.9299 9.00026 11.9299 8.44798 11.9299 8.00026 11.4822 8.00026 10.9299 8.00026 10.3777 8.44798 9.92994 9.00026 9.92994M9.00026 7.92994C7.34341 7.92994 6.00026 9.27309 6.00026 10.9299 6.00026 12.5868 7.34341 13.9299 9.00026 13.9299 10.6571 13.9299 12.0003 12.5868 12.0003 10.9299 11.9984 9.27386 10.6563 7.93181 9.00026 7.92994Z" class="MsftOfcResponsive_Fill_7823dc" fill="#7823DC"/><path d="M9.00026 9.92994C9.55255 9.92994 10.0003 10.3777 10.0003 10.9299 10.0003 11.4822 9.55255 11.9299 9.00026 11.9299 8.44798 11.9299 8.00026 11.4822 8.00026 10.9299 8.00026 10.3777 8.44798 9.92994 9.00026 9.92994M9.00026 7.92994C7.34341 7.92994 6.00026 9.27309 6.00026 10.9299 6.00026 12.5868 7.34341 13.9299 9.00026 13.9299 10.6571 13.9299 12.0003 12.5868 12.0003 10.9299 11.9984 9.27386 10.6563 7.93181 9.00026 7.92994Z" class="MsftOfcResponsive_Fill_7823dc" fill="#7823DC"/><path d="M9 1.9997C9.55203 2.00032 9.99938 2.44767 10 2.9997L10 3.9997 8 3.9997 8 2.9997C8.00062 2.44767 8.44797 2.00032 9 1.9997M9-0.0003C7.34315-0.0003 6 1.34285 6 2.9997L6 5.9997 12 5.9997 12 2.9997C12 1.34285 10.6569-0.000299931 9-0.000299931Z" class="MsftOfcResponsive_Fill_7823dc" fill="#7823DC"/><path d="M30 15.9958 30 29.9997 18 29.9997 18 15.9958 30 15.9958M32 13.9958 16 13.9958 16 31.9997 32 31.9997 32 13.9958Z" class="MsftOfcResponsive_Fill_7823dc" fill="#7823DC"/><path d="M28 17.973 20 17.973 20 21.982 28 21.982 28 17.973 28 17.973Z" class="MsftOfcResponsive_Fill_7823dc" fill="#7823DC"/><path d="M25 24 23 24 23 26 25 26 25 24 25 24Z" class="MsftOfcResponsive_Fill_7823dc" fill="#7823DC"/><path d="M28 24 26 24 26 26 28 26 28 24 28 24Z" class="MsftOfcResponsive_Fill_7823dc" fill="#7823DC"/><path d="M22 24 20 24 20 26 22 26 22 24 22 24Z" class="MsftOfcResponsive_Fill_7823dc" fill="#7823DC"/><path d="M2 32 2 6 16 6 16 32 18 32 18 3.973 0 3.973 0 32 2 32Z" class="MsftOfcResponsive_Fill_7823dc" fill="#7823DC"/><path d="M5.712 16.145 3.809 32 5.826 32 7.993 13.996 4.295 13.996 1.695 22.21 1.695 28.612 1.76 28.633 5.712 16.145Z" class="MsftOfcResponsive_Fill_7823dc" fill="#7823DC"/><path d="M12.281 16.145 14.185 32 12.167 32 10 13.996 13.698 13.996 16.298 22.21 16.298 28.612 16.234 28.633 12.281 16.145Z" class="MsftOfcResponsive_Fill_7823dc" fill="#7823DC"/></g></svg>