<svg viewBox="0 0 32 32" xmlns="http://www.w3.org/2000/svg" xmlns:xlink="http://www.w3.org/1999/xlink" id="Layer_2_1_" overflow="hidden"><style>
.MsftOfcResponsive_Fill_7823dc {
 fill:#7823DC; 
}
</style>
<path d="M16 0C9.6 0 4.4 5.2 4.4 11.6 4.4 14 5.1 16.2 6.4 18.1 6.8 18.6 7.2 19.1 7.6 19.6L9.4 18.6C8.9 18.1 8.5 17.6 8.1 17.1 7 15.5 6.4 13.6 6.4 11.6 6.4 6.3 10.7 2 16 2 20.6 2 24.5 5.2 25.4 9.5 25.6 10.2 25.6 10.9 25.6 11.6 25.6 11.9 25.6 12.1 25.6 12.4 25.3 15.7 23.4 18.5 20.6 20.1 20 20.4 19.3 20.7 18.7 20.9L18.7 21.9 17.7 22.2 14 23 14 23.1C14.6 23.2 15.3 23.3 16 23.3 19.1 23.3 21.8 22.1 23.9 20.2 26.2 18.1 27.6 15.1 27.6 11.7 27.6 5.2 22.4 0 16 0Z" class="st0 MsftOfcResponsive_Fill_7823dc" fill="#7823DC"/><path d="M11.5 10.3 5.6 7.9 6.4 6.1 10.5 7.7 12.4 4 16 4 16 1 18 1 18 6 13.6 6Z" class="st0 MsftOfcResponsive_Fill_7823dc" fill="#7823DC"/><path d="M27.1 10.6 25.6 12.4 23.2 15.3 17.9 12.1 16.3 12.6 18.1 18.1 18 18.2 17 20.2 15.1 20.4 14.7 20.3 15.9 17.9 13.7 11.4 18.1 9.9 22.8 12.7 25.4 9.5 25.6 9.3Z" class="MsftOfcResponsive_Fill_7823dc" fill="#7823DC"/><path d="M18.5 18.1 18 18.2 17 20.3 18.7 20.1 18.7 21C19.4 20.8 20 20.5 20.6 20.2L20.6 18 18.5 18.1ZM29 18.6 24 20.2 20.7 21.2 20.7 17.9 18.6 18.1 18 18.2 15.6 18.5 15.3 18.5 10.3 16.7 9.5 16.4 8.7 16.8 8 17.2 6.2 18.2 5.5 18.6 0.5 18.6 0.5 28.3 5.6 28.3 15.1 32.1 30.4 24.2 31.4 23.7 31.4 18 29 18.6ZM29.5 22.4 15.1 29.9 6.1 26.3 2.5 26.3 2.5 20.5 6.2 20.5 7.6 19.7 9.4 18.7 9.7 18.5 14.7 20.3 15.1 20.4 17 20.2 18.7 20 18.7 22 17.7 22.3 14 23 14 24.8 17.8 24.1 17.8 24.1 29.5 20.4 29.5 22.4Z" class="st1 MsftOfcResponsive_Fill_7823dc" fill="#7823DC"/></svg>