<svg viewBox="0 0 32 32" xmlns="http://www.w3.org/2000/svg" xmlns:xlink="http://www.w3.org/1999/xlink" overflow="hidden"><defs></defs><g id="Layer_3"><path d="M14.0863 19.0649 14.0863 19.0651C14.0863 20.1696 13.1909 21.0651 12.0863 21.0651 10.9818 21.0651 10.0863 20.1696 10.0863 19.0651L10.0863 19.0649 14.0863 19.0649M16.0863 17.0649 8.08632 17.0649 8.08632 19.0651C8.08634 21.2742 9.87718 23.065 12.0863 23.0649 12.0863 23.0649 12.0863 23.0649 12.0863 23.0649L12.0863 23.0649C14.2954 23.065 16.0863 21.2742 16.0863 19.0651 16.0863 19.0651 16.0863 19.0651 16.0863 19.0651L16.0863 17.0649Z" fill="#7823DC"/><path d="M22.0863 19.0649 22.0863 19.0651C22.0863 20.1696 21.1909 21.0651 20.0863 21.0651 18.9818 21.0651 18.0863 20.1696 18.0863 19.0651L18.0863 19.0649 22.0863 19.0649M24.0863 17.0649 16.0863 17.0649 16.0863 19.0651C16.0863 21.2742 17.8772 23.065 20.0863 23.0649 20.0863 23.0649 20.0863 23.0649 20.0863 23.0649L20.0863 23.0649C22.2954 23.065 24.0863 21.2742 24.0863 19.0651 24.0863 19.0651 24.0863 19.0651 24.0863 19.0651L24.0863 17.0649Z" fill="#7823DC"/><path d="M22.086 14.065 10.086 14.065 10.086 16.065 22.086 16.065 22.086 14.065 22.086 14.065Z" fill="#7823DC"/><path d="M20.086 11.065 12.086 11.065 12.086 13.065 20.086 13.065 20.086 11.065 20.086 11.065Z" fill="#7823DC"/><rect x="6.58653" y="14.4441" width="1.99979" height="4.24264" fill="#7823DC" transform="matrix(0.707107 -0.707107 0.707107 0.707107 -9.49151 10.2163)"/><rect x="22.4651" y="15.5655" width="4.24264" height="1.99979" fill="#7823DC" transform="matrix(0.707107 -0.707107 0.707107 0.707107 -4.51233 22.2371)"/><path d="M0.07 31.98 11.417 28.009 10.756 26.121 0.07 29.861 0.07 31.98Z" fill="#7823DC"/><path d="M32.023 29.879 21.42 26.123 20.752 28.007 32.023 32 32.023 29.879Z" fill="#7823DC"/><path d="M28.133 8 4.133 8 4.133 10 28.133 10 28.133 8 28.133 8Z" fill="#7823DC"/><path d="M23.549 10 20.439 10C24.8945 12.4039 26.5576 17.9645 24.1537 22.42 21.7498 26.8755 16.1892 28.5386 11.7337 26.1347 7.27826 23.7308 5.61512 18.1702 8.01901 13.7147 8.86832 12.1406 10.1596 10.8493 11.7337 10L8.62366 10C4.16044 14.1215 3.88344 21.0808 8.00496 25.544 12.1265 30.0073 19.0858 30.2843 23.549 26.1627 28.0122 22.0412 28.2892 15.0819 24.1677 10.6187 23.9698 10.4043 23.7634 10.1979 23.549 10Z" fill="#7823DC"/><path d="M11.026 6 11.017 6 12.366 2.626 15.294 3.846 16.063 4.167 16.832 3.846 19.76 2.626 21.109 6 21.105 6 21.914 8 24.063 8 20.863 0 16.063 2 11.263 0 8.063 8 10.213 8 11.026 6Z" fill="#7823DC"/></g></svg>