<svg viewBox="0 0 32 32" xmlns="http://www.w3.org/2000/svg" xmlns:xlink="http://www.w3.org/1999/xlink" overflow="hidden"><defs></defs><g id="Layer_3"><rect x="1.91016" y="14.4092" width="2" height="17.6191" fill="#7823DC"/><rect x="27.9102" y="14.4092" width="2" height="17.6191" fill="#7823DC"/><path d="M1.938 17.076 0.523 15.662 15.911 0.274 18.908 3.271 17.494 4.686 15.911 3.103 1.938 17.076Z" fill="#7823DC"/><rect x="28.2757" y="13.1944" width="1.99979" height="3.71956" fill="#7823DC" transform="matrix(0.707041 -0.707172 0.707172 0.707041 -2.06936 25.1132)"/><rect x="1.91028" y="30.0284" width="28" height="2" fill="#7823DC"/><path d="M1.90527 17.1113 1.93164 4.40918 7.93364 4.40918 7.90874 11.1084ZM3.92773 6.40918 3.915 12.2734 5.91158 10.2764 5.92574 6.40918Z" fill="#7823DC"/><rect x="5.91064" y="24.0293" width="2" height="5.99902" fill="#7823DC"/><rect x="6.91064" y="24.0293" width="2" height="2" fill="#7823DC"/><rect x="16.9106" y="24.0293" width="8" height="2" fill="#7823DC"/><rect x="23.9106" y="24.0293" width="2" height="6" fill="#7823DC"/><path d="M12.9106 21.0293C11.2538 21.0293 9.91064 19.6862 9.91064 18.0293 9.91064 16.3724 11.2538 15.0293 12.9106 15.0293 14.5675 15.0293 15.9106 16.3724 15.9106 18.0293 15.9088 19.6854 14.5667 21.0275 12.9106 21.0293ZM12.9106 17.0293C12.3584 17.0293 11.9106 17.477 11.9106 18.0293 11.9106 18.5816 12.3584 19.0293 12.9106 19.0293 13.4629 19.0293 13.9106 18.5816 13.9106 18.0293 13.9101 17.4772 13.4627 17.0299 12.9106 17.0293Z" fill="#7823DC"/><path d="M17.9106 26.0293 7.91064 26.0293 7.91064 25.0293C7.91064 22.2679 10.1492 20.0293 12.9106 20.0293 15.6721 20.0293 17.9106 22.2679 17.9106 25.0293ZM10.082 24.0293 15.7393 24.0293C15.1868 22.4671 13.4726 21.6485 11.9104 22.201 11.0561 22.5031 10.3841 23.175 10.082 24.0293Z" fill="#7823DC"/><path d="M23.9106 16.0293C19.4926 16.029 15.9113 12.4473 15.9116 8.0293 15.9118 3.61128 19.4936 0.0299803 23.9116 0.0302412 28.3296 0.030502 31.9109 3.61223 31.9106 8.03024 31.9105 10.6229 30.6538 13.0548 28.5391 14.5547 27.1861 15.5135 25.5689 16.0288 23.9106 16.0293ZM23.9106 2.0293C20.5968 2.02922 17.9104 4.71551 17.9103 8.0293 17.9103 11.3431 20.5965 14.0295 23.9103 14.0296 27.2241 14.0297 29.9106 11.3434 29.9106 8.0296 29.9106 8.0295 29.9106 8.0294 29.9106 8.0293 29.905 4.71794 27.222 2.03496 23.9106 2.0293Z" fill="#7823DC"/><rect x="14.6494" y="20.0293" width="9.26123" height="2" fill="#7823DC"/><rect x="21.898" y="21.0293" width="2" height="4" fill="#7823DC"/><path d="M23.259 11.252 19.763 8.043 21.115 6.57 23.199 8.482 26.675 5.007 28.089 6.421 23.259 11.252Z" fill="#7823DC"/></g></svg>