<svg viewBox="0 0 32 31.99" xmlns="http://www.w3.org/2000/svg" xmlns:xlink="http://www.w3.org/1999/xlink" id="Layer_1" overflow="hidden"><style>
.MsftOfcResponsive_Fill_7823dc {
 fill:#7823DC; 
}
</style>
<defs></defs><path d="M32 15 32 16C32 24.82 24.82 31.99 16 31.99 7.18 31.99 0 24.82 0 16 0 7.18 7.17 0 16 0 20.27 0 24.29 1.67 27.31 4.69L27.88 5.26 16 23.58 8.86 12.6 11.25 12.6 16 19.91 25.31 5.55C22.74 3.26 19.47 2 16 2 8.28 2 2 8.28 2 16 2 23.72 8.28 29.99 16 29.99 23.72 29.99 30 23.71 30 16L30 15 32 15Z" class="MsftOfcResponsive_Fill_7823dc" fill="#7823DC"/></svg>