<svg width="32" height="32" viewBox="0 0 32 32" xmlns="http://www.w3.org/2000/svg" xmlns:xlink="http://www.w3.org/1999/xlink" overflow="visible"><defs></defs><g><g><path d="M18.2 13.7 18.3 17.9 14.8 20 11.1 18 11.1 13.9 14.7 11.7 18.2 13.7M20.5 12.3 14.5 9 8.7 12.6 8.9 19.4 15 22.7 20.8 19.1 20.5 12.3 20.5 12.3Z" fill="#7823DC"/></g><g><path d="M23.1 22 23.2 26.2 19.6 28.4 15.9 26.4 15.9 22.3 19.4 20.1 23.1 22M25.5 20.6 19.4 17.3 13.6 20.9 13.8 27.7 19.9 31 25.7 27.4 25.5 20.6 25.5 20.6Z" fill="#7823DC"/></g></g><path d="M29.3 15C29.7 15 30 15.3 30 15.7 30 16.1 29.7 16.4 29.3 16.4 28.9 16.4 28.6 16.1 28.6 15.7 28.6 15.3 28.9 15 29.3 15M29.3 13C27.8 13 26.6 14.2 26.6 15.7 26.6 17.2 27.8 18.4 29.3 18.4 30.8 18.4 32 17.2 32 15.7 32 14.2 30.8 13 29.3 13L29.3 13Z" fill="#7823DC"/><rect x="23.3" y="18" width="5.5" height="2" fill="#7823DC" transform="matrix(0.7071 -0.7071 0.7071 0.7071 -5.8216 23.9428)"/><g><path d="M10.4 2C10.8 2 11.1 2.3 11.1 2.7 11.1 3.1 10.8 3.4 10.4 3.4 10 3.4 9.7 3.1 9.7 2.7 9.7 2.3 10 2 10.4 2M10.4 0C8.9 0 7.7 1.2 7.7 2.7 7.7 4.2 8.9 5.4 10.4 5.4 11.9 5.4 13.1 4.2 13.1 2.7 13.1 1.2 11.9 0 10.4 0L10.4 0Z" fill="#7823DC"/><path d="M19 2C19.4 2 19.7 2.3 19.7 2.7 19.7 3.1 19.4 3.4 19 3.4 18.6 3.4 18.3 3.1 18.3 2.7 18.3 2.3 18.6 2 19 2M19 0C17.5 0 16.3 1.2 16.3 2.7 16.3 4.2 17.5 5.4 19 5.4 20.5 5.4 21.7 4.2 21.7 2.7 21.7 1.2 20.5 0 19 0L19 0Z" fill="#7823DC"/><rect x="12.3" y="3.3" width="2" height="5.5" fill="#7823DC" transform="matrix(0.7071 -0.7071 0.7071 0.7071 -0.3569 11.1573)"/><rect x="13" y="5" width="5.5" height="2" fill="#7823DC" transform="matrix(0.7071 -0.7071 0.7071 0.7071 0.3498 12.8634)"/><rect x="13.5" y="7.2" width="2" height="3.9" fill="#7823DC"/></g><path d="M2.7 28.6C3.1 28.6 3.4 28.9 3.4 29.3 3.4 29.7 3.1 30 2.7 30 2.3 30 2 29.7 2 29.3 2 28.9 2.3 28.6 2.7 28.6M2.7 26.6C1.2 26.6 0 27.8 0 29.3 0 30.8 1.2 32 2.7 32 4.2 32 5.4 30.8 5.4 29.3 5.4 27.8 4.2 26.6 2.7 26.6L2.7 26.6Z" fill="#7823DC"/><path d="M2.7 20C3.1 20 3.4 20.3 3.4 20.7 3.4 21.1 3.1 21.4 2.7 21.4 2.3 21.4 2 21 2 20.7 2 20.4 2.3 20 2.7 20M2.7 18C1.2 18 0 19.2 0 20.7 0 22.2 1.2 23.4 2.7 23.4 4.2 23.4 5.4 22.2 5.4 20.7 5.4 19.2 4.2 18 2.7 18L2.7 18Z" fill="#7823DC"/><rect x="3.3" y="25.4" width="5.5" height="2" fill="#7823DC" transform="matrix(0.7071 -0.7071 0.7071 0.7071 -16.9 11.9785)"/><rect x="5" y="21.2" width="2" height="5.5" fill="#7823DC" transform="matrix(0.7071 -0.7071 0.7071 0.7071 -15.1937 11.2717)"/><rect x="7.2" y="24.2" width="6.7" height="2" fill="#7823DC"/></svg>