<svg width="29.2" height="28.9" viewBox="0 0 29.2 28.9" xmlns="http://www.w3.org/2000/svg" xmlns:xlink="http://www.w3.org/1999/xlink" overflow="hidden"><style>
.MsftOfcResponsive_Fill_7823dc {
 fill:#7823DC; 
}
</style>
<defs></defs><path d="M23.6 0 5.6 0 0 9.5C0.1 10.7 0.9 11.7 2 12.2L2 28.9 9.3 28.9 19.6 28.9 26.8 28.9 26.8 12.3C28.1 12 29.1 10.9 29.3 9.5L23.6 0ZM22.6 2 26 7.5 24 7.5 21.8 2 22.6 2ZM19.7 2 21.9 7.5 19.2 7.5 17 2 19.7 2ZM21.5 9.5C21.4 10 20.9 10.4 20.3 10.4L20.2 10.4C19.6 10.4 19.2 10 19 9.5L21.5 9.5ZM14.8 2 17 7.5 12.6 7.5 14.8 2 14.8 2ZM15.8 9.5C15.7 10 15.2 10.4 14.6 10.4L14.5 10.4C13.9 10.4 13.5 10 13.3 9.5L15.8 9.5ZM12.6 2 10.4 7.5 7.6 7.5 9.7 2 12.6 2ZM10.2 9.5C10 10.1 9.6 10.4 9 10.4L8.9 10.4C8.3 10.4 7.9 10 7.7 9.5L10.2 9.5ZM6.5 2 7.6 2 5.4 7.5 3.2 7.5 6.5 2ZM3.2 10.4C2.6 10.4 2.2 10 2 9.5L4.5 9.5C4.4 10 3.9 10.4 3.3 10.4L3.2 10.4ZM17.6 26.9 11.3 26.9 11.3 17.7 17.6 17.7 17.6 26.9ZM24.7 26.9 19.5 26.9 19.5 15.7 9.3 15.7 9.3 26.9 4 26.9 4 12.3C4.9 12.1 5.6 11.5 6.1 10.8 6.7 11.8 7.7 12.4 8.9 12.4L9 12.4C10.2 12.4 11.2 11.8 11.8 10.8 12.4 11.8 13.4 12.4 14.6 12.4L14.7 12.4C15.9 12.4 16.9 11.8 17.5 10.8 18.1 11.8 19.1 12.4 20.3 12.4L20.4 12.4C21.6 12.4 22.6 11.8 23.2 10.8 23.6 11.4 24.1 11.9 24.8 12.2L24.8 26.9ZM26 10.4 25.9 10.4C25.3 10.4 24.9 10 24.7 9.5L27.2 9.5C27 10.1 26.6 10.4 26 10.4Z" class="MsftOfcResponsive_Fill_7823dc" fill="#7823DC"/></svg>