<svg viewBox="0 0 32 32" xmlns="http://www.w3.org/2000/svg" xmlns:xlink="http://www.w3.org/1999/xlink" overflow="hidden"><style>
.MsftOfcResponsive_Fill_7823dc {
 fill:#7823DC; 
}
</style>
<defs></defs><g id="Layer_3"><path d="M10.0938-0.69727 9.47754-2.10742 9.74512-2.10742 10.2256-0.97949 10.6611-2.10742 10.917-2.10742 10.0488 0.01172 9.7959 0.01172Z" class="MsftOfcResponsive_Fill_7823dc" fill="#7823DC"/><path d="M22.02 20.015 30 20.015 30 28.067 28.27 28.067 28.27 30.078 32 30.078 32 21.956 28.06 18.003 22.05 18.003 22.02 20.015Z" class="MsftOfcResponsive_Fill_7823dc" fill="#7823DC"/><path d="M22.542 28.008 6 28.008 6 30.008 24 30.008 22.542 28.008Z" class="MsftOfcResponsive_Fill_7823dc" fill="#7823DC"/><rect x="26.0201" y="24.0184" width="5" height="2" class="MsftOfcResponsive_Fill_7823dc" fill="#7823DC"/><path d="M4 32.0088C2.34315 32.0088 1 30.6656 1 29.0088 1 27.3519 2.34315 26.0088 4 26.0088 5.65685 26.0088 7 27.3519 7 29.0088 6.99819 30.6649 5.65611 32.007 4 32.0088ZM4 28.0088C3.44772 28.0088 3 28.4565 3 29.0088 3 29.5611 3.44772 30.0088 4 30.0088 4.55228 30.0088 5 29.5611 5 29.0088 4.99963 28.4567 4.55213 28.0092 4 28.0088Z" class="MsftOfcResponsive_Fill_7823dc" fill="#7823DC"/><path d="M26.0205 32.0088C24.3637 32.0088 23.0205 30.6656 23.0205 29.0088 23.0205 27.3519 24.3637 26.0088 26.0205 26.0088 27.6774 26.0088 29.0205 27.3519 29.0205 29.0088 29.0187 30.6649 27.6766 32.007 26.0205 32.0088ZM26.0205 28.0088C25.4682 28.0088 25.0205 28.4565 25.0205 29.0088 25.0205 29.5611 25.4682 30.0088 26.0205 30.0088 26.5728 30.0088 27.0205 29.5611 27.0205 29.0088 27.0201 28.4567 26.5726 28.0092 26.0205 28.0088Z" class="MsftOfcResponsive_Fill_7823dc" fill="#7823DC"/><rect x="21.9901" y="18.0028" width="2.01" height="12.0056" class="MsftOfcResponsive_Fill_7823dc" fill="#7823DC"/><rect x="0.00011" y="24.0084" width="21.99" height="2.02" class="MsftOfcResponsive_Fill_7823dc" fill="#7823DC"/><rect x="8.00011" y="25.7584" width="2" height="3.26" class="MsftOfcResponsive_Fill_7823dc" fill="#7823DC"/><rect x="18.0001" y="25.6884" width="2" height="3.26" class="MsftOfcResponsive_Fill_7823dc" fill="#7823DC"/><path d="M16.0001 12.0284 16.0001 20.0284 8.00011 20.0284 8.00011 12.0284 16.0001 12.0284M18.0001 10.0284 6.00011 10.0284 6.00011 22.0284 18.0001 22.0284Z" class="MsftOfcResponsive_Fill_7823dc" fill="#7823DC"/><rect x="11.0001" y="2.0109" width="1.91369" height="19.971" class="MsftOfcResponsive_Fill_7823dc" fill="#7823DC"/><path d="M12.008 6.272 14.008 3.97 14.008 2.011 9.992 2.011 9.992 4.141 12.008 6.272Z" class="MsftOfcResponsive_Fill_7823dc" fill="#7823DC"/><rect x="-8e-05" y="0" width="32.0002" height="2.30435" class="MsftOfcResponsive_Fill_7823dc" fill="#7823DC"/></g></svg>