<svg viewBox="0 0 29.22 29.22" xmlns="http://www.w3.org/2000/svg" xmlns:xlink="http://www.w3.org/1999/xlink" xml:space="preserve" overflow="hidden"><g id="Layer_3"></g><g id="Layer_1"></g><g id="Layer_2"></g><g id="Layer_4"></g><g id="Layer_5"><g><path d="M26.85 16.62 18.97 19.1 18.97 15.94 16.93 16.17 13.93 16.51 9.2 14.82 8.44 14.55 7.72 14.93 4.76 16.51-0.09 16.51-0.09 25.68 4.8 25.68 13.81 29.33 28.26 21.81 29.23 21.29 29.23 15.87 26.85 16.62 26.85 16.62ZM27.4 20.19 13.72 27.3 5.17 23.85 1.75 23.85 1.75 18.33 5.23 18.33 8.59 16.53 13.72 18.36 17.14 17.98 17.14 19.81 16.15 20.13 12.7 20.83 12.7 22.53 16.32 21.86 16.32 21.85 27.4 18.37 27.4 20.19 27.4 20.19Z" fill="#7823DC"/><path d="M18.92 9.38 18.96 9.31C19.55 8.4 19.85 7.41 19.85 6.37 19.85 5.34 19.55 4.35 18.96 3.44L18.92 3.37 20.67 1.66 19.34 0.29 17.59 2.04 17.52 1.99C16.65 1.4 15.66 1.09 14.57 1.09 13.49 1.09 12.49 1.39 11.62 1.99L11.55 2.04 11.49 1.98 9.8 0.29 8.48 1.66 10.23 3.37 10.19 3.44C9.6 4.35 9.3 5.34 9.3 6.37 9.3 7.41 9.6 8.4 10.19 9.31L10.23 9.38 8.48 11.09 9.8 12.46 11.55 10.7 11.62 10.75C12.5 11.35 13.49 11.66 14.57 11.66 15.66 11.66 16.65 11.35 17.52 10.75L17.59 10.7 19.34 12.46 20.67 11.09 18.92 9.38ZM16.95 8.77C16.29 9.43 15.49 9.76 14.56 9.76 13.63 9.76 12.83 9.43 12.17 8.77 11.51 8.11 11.18 7.3 11.18 6.36 11.18 5.43 11.51 4.63 12.17 3.97 12.83 3.31 13.63 2.98 14.56 2.98 15.5 2.98 16.31 3.31 16.96 3.97 17.61 4.63 17.95 5.43 17.95 6.36 17.94 7.31 17.61 8.12 16.95 8.77Z" fill="#7823DC"/></g></g></svg>