<svg viewBox="0 0 29.72 32.06" xmlns="http://www.w3.org/2000/svg" xmlns:xlink="http://www.w3.org/1999/xlink" xml:space="preserve" overflow="hidden"><style>
.MsftOfcResponsive_Fill_7823dc {
 fill:#7823DC; 
}
</style>
<g id="Layer_3"></g><g id="Layer_1"></g><g id="Layer_2"></g><g id="Layer_4"></g><g id="Layer_5"><path d="M14.86 28.38 4.96 19.77 9.29 19.77 9.29 3.08 20.43 3.08 20.43 19.77 24.76 19.77 14.86 28.38M14.86 30.84 14.86 30.84 29.72 17.91 22.29 17.91 22.29 1.22 7.43 1.22 7.43 17.91 0 17.91 14.86 30.84 14.86 30.84Z" class="st0 MsftOfcResponsive_Fill_7823dc" fill="#7823DC"/><g><path d="M16.3 18.17 16.07 19.14 14.46 19.14C14.67 19.8 15.12 20.14 15.82 20.14 16.59 20.14 17.3 19.89 17.97 19.39L17.97 21.38C17.42 21.76 16.75 21.95 15.96 21.95 14.69 21.95 13.75 21.66 13.15 21.08 12.55 20.5 12.17 19.85 12.04 19.14L11.07 19.14 11.33 18.17 11.92 18.17C11.91 18.12 11.91 18.02 11.91 17.89 11.91 17.75 11.91 17.64 11.92 17.58L11.21 17.58 11.46 16.61 12.04 16.61C12.5 14.78 13.77 13.87 15.84 13.87 16.52 13.87 17.21 14.05 17.9 14.41L17.42 16.34C16.94 15.9 16.43 15.67 15.91 15.67 15.22 15.67 14.76 15.98 14.51 16.6L16.43 16.6 16.2 17.57 14.33 17.57C14.32 17.64 14.32 17.75 14.32 17.88L14.32 18.16 16.3 18.16Z" class="st0 MsftOfcResponsive_Fill_7823dc" fill="#7823DC"/></g></g></svg>