<svg viewBox="0 0 32 32" xmlns="http://www.w3.org/2000/svg" xmlns:xlink="http://www.w3.org/1999/xlink" id="Layer_1" overflow="hidden"><style>
.MsftOfcResponsive_Fill_7823dc {
 fill:#7823DC; 
}
</style>
<defs></defs><path d="M27.99 4.01 29.99 6.01 17.99 6.01 17.99 4.01 27.99 4.01Z" class="MsftOfcResponsive_Fill_7823dc" fill="#7823DC"/><rect x="0" y="18" width="32" height="2" class="MsftOfcResponsive_Fill_7823dc" fill="#7823DC"/><path d="M30 6.02 32 8.01 32 18 30 18 30 6.02Z" class="MsftOfcResponsive_Fill_7823dc" fill="#7823DC"/><rect x="0" y="0" width="2" height="17.99" class="MsftOfcResponsive_Fill_7823dc" fill="#7823DC"/><rect x="2" y="0" width="12.81" height="2" class="MsftOfcResponsive_Fill_7823dc" fill="#7823DC"/><rect x="275.61" y="-0.24" width="2" height="6.49" class="MsftOfcResponsive_Fill_7823dc" fill="#7823DC" transform="matrix(0.707107 -0.707107 0.707107 0.707107 -181.32 196.47)"/><rect x="28.99" y="18" width="2" height="4" class="MsftOfcResponsive_Fill_7823dc" fill="#7823DC"/><rect x="21.02" y="18" width="2" height="4" class="MsftOfcResponsive_Fill_7823dc" fill="#7823DC"/><rect x="4.99" y="26" width="2" height="6" class="MsftOfcResponsive_Fill_7823dc" fill="#7823DC"/><rect x="20.97" y="28" width="2" height="4" class="MsftOfcResponsive_Fill_7823dc" fill="#7823DC"/><rect x="28.99" y="28" width="2" height="4" class="MsftOfcResponsive_Fill_7823dc" fill="#7823DC"/><rect x="8.99" y="29.8" width="2" height="2.19" class="MsftOfcResponsive_Fill_7823dc" fill="#7823DC"/><rect x="25.01" y="29.98" width="2" height="2" class="MsftOfcResponsive_Fill_7823dc" fill="#7823DC"/><rect x="21.02" y="24" width="2" height="2" class="MsftOfcResponsive_Fill_7823dc" fill="#7823DC"/><rect x="24.98" y="24" width="2" height="4" class="MsftOfcResponsive_Fill_7823dc" fill="#7823DC"/><rect x="28.99" y="24" width="2" height="2" class="MsftOfcResponsive_Fill_7823dc" fill="#7823DC"/><rect x="16.99" y="18" width="2" height="6" class="MsftOfcResponsive_Fill_7823dc" fill="#7823DC"/><rect x="4.99" y="22" width="2" height="2" class="MsftOfcResponsive_Fill_7823dc" fill="#7823DC"/><rect x="8.99" y="18" width="2" height="4.01" class="MsftOfcResponsive_Fill_7823dc" fill="#7823DC"/><rect x="8.99" y="23.99" width="2" height="4.01" class="MsftOfcResponsive_Fill_7823dc" fill="#7823DC"/><rect x="16.99" y="28" width="2" height="3.98" class="MsftOfcResponsive_Fill_7823dc" fill="#7823DC"/><rect x="1" y="18" width="2" height="6" class="MsftOfcResponsive_Fill_7823dc" fill="#7823DC"/><rect x="1" y="28" width="2" height="3.98" class="MsftOfcResponsive_Fill_7823dc" fill="#7823DC"/><rect x="12.99" y="22" width="2" height="2" class="MsftOfcResponsive_Fill_7823dc" fill="#7823DC"/><rect x="12.99" y="25.98" width="2" height="6" class="MsftOfcResponsive_Fill_7823dc" fill="#7823DC"/></svg>