<svg viewBox="0 0 32 32" xmlns="http://www.w3.org/2000/svg" xmlns:xlink="http://www.w3.org/1999/xlink" id="Graphic" overflow="hidden"><defs></defs><path d="M30 4 30 20 2 20 2 4 30 4M28.05 2 0 2 0 22 32 22 32 6Z" fill="#7823DC"/><path d="M18 22 18 28 14 28 14 22 18 22M20 20 12 20 12 30 20 30Z" fill="#7823DC"/><path d="M26.04 28 6.04 28 6.04 30 26.04 30 26.04 28 26.04 28Z" fill="#7823DC"/><rect x="9" y="6" width="2" height="4.5" fill="#7823DC"/><rect x="9" y="15.5" width="2" height="2.5" fill="#7823DC"/><path d="M18.5 12.5 13.5 12.5 13.5 7.5 18.5 7.5ZM15.5 10.5 16.5 10.5 16.5 9.5 15.5 9.5Z" fill="#7823DC"/><path d="M24.5 16.5 19.5 16.5 19.5 11.5 24.5 11.5ZM21.5 14.5 22.5 14.5 22.5 13.5 21.5 13.5" fill="#7823DC"/><path d="M7.5 10.5 7.5 15.5 12.5 15.5 12.5 10.5ZM10.5 13.5 9.5 13.5 9.5 12.5 10.5 12.5Z" fill="#7823DC"/><rect x="15" y="6" width="2" height="1.5" fill="#7823DC"/><rect x="15" y="12.5" width="2" height="5.5" fill="#7823DC"/><rect x="21" y="6" width="2" height="5.5" fill="#7823DC"/><rect x="21" y="16.5" width="2" height="1.5" fill="#7823DC"/></svg>