<svg viewBox="0 0 32 32" xmlns="http://www.w3.org/2000/svg" xmlns:xlink="http://www.w3.org/1999/xlink" id="Layer_5" overflow="hidden"><defs></defs><path d="M30.41 7.5 30.41 1.22 23.21 1.22 23.21 0.43 21.21 0.43 21.21 9.39C19.58 9.53 18.09 10.02 17.45 10.9L6.5 10.9C3.54 10.9 1.13 13.31 1.13 16.27 1.13 19.23 3.48 21.59 6.4 21.64L18.37 21.64C20.23 21.64 21.74 23.15 21.74 25.01 21.74 26.74 20.43 28.15 18.76 28.34 17.97 27.3 15.99 26.83 14.03 26.83 11.49 26.83 8.93 27.62 8.93 29.38 8.93 31.14 11.49 31.93 14.03 31.93 16.05 31.93 18.08 31.43 18.83 30.33 21.58 30.1 23.75 27.81 23.75 25 23.75 22.04 21.34 19.63 18.38 19.63L6.5 19.63C4.64 19.63 3.13 18.12 3.13 16.26 3.13 14.4 4.64 12.89 6.5 12.89L17.45 12.89C18.22 13.95 20.22 14.44 22.21 14.44 24.75 14.44 27.31 13.65 27.31 11.89 27.31 10.36 25.38 9.56 23.21 9.38L23.21 7.49 30.41 7.49ZM23.21 3.22 28.41 3.22 28.41 5.5 23.21 5.5 23.21 3.22ZM14.02 29.95C12.57 29.95 11.55 29.64 11.11 29.4 11.56 29.15 12.57 28.85 14.02 28.85 15.47 28.85 16.49 29.16 16.93 29.4 16.48 29.65 15.47 29.95 14.02 29.95ZM25.13 11.9C24.68 12.15 23.67 12.45 22.22 12.45 20.77 12.45 19.76 12.14 19.31 11.9 19.65 11.71 20.3 11.49 21.22 11.4L21.22 11.9 23.22 11.9 23.22 11.4C24.14 11.5 24.8 11.72 25.13 11.9Z" fill="#7823DC"/></svg>