<svg viewBox="0 0 32 32" xmlns="http://www.w3.org/2000/svg" xmlns:xlink="http://www.w3.org/1999/xlink" id="Layer_1" overflow="hidden"><style>
.MsftOfcResponsive_Fill_7823dc {
 fill:#7823DC; 
}
</style>
<path d="M16 26.64C10.13 26.64 5.36 21.87 5.36 16 5.36 10.13 10.13 5.36 16 5.36 21.87 5.36 26.64 10.13 26.64 16 26.64 21.87 21.87 26.64 16 26.64ZM16 7.36C11.23 7.36 7.36 11.24 7.36 16 7.36 20.76 11.24 24.64 16 24.64 20.76 24.64 24.64 20.76 24.64 16 24.64 11.24 20.76 7.36 16 7.36Z" class="MsftOfcResponsive_Fill_7823dc" fill="#7823DC"/><path d="M16 32C7.18 32 0 24.82 0 16 0 7.18 7.18 0 16 0 24.82 0 32 7.18 32 16 32 24.82 24.82 32 16 32ZM16 2C8.28 2 2 8.28 2 16 2 23.72 8.28 30 16 30 23.72 30 30 23.72 30 16 30 8.28 23.72 2 16 2Z" class="MsftOfcResponsive_Fill_7823dc" fill="#7823DC"/><rect x="15" y="1" width="2" height="5.36" class="MsftOfcResponsive_Fill_7823dc" fill="#7823DC"/><rect x="10.29" y="1.95" width="2" height="5.37" class="MsftOfcResponsive_Fill_7823dc" fill="#7823DC" transform="matrix(0.91706 -0.398749 0.398749 0.91706 -0.92 4.88)"/><rect x="6.27" y="4.62" width="2" height="5.3" class="MsftOfcResponsive_Fill_7823dc" fill="#7823DC" transform="matrix(0.707107 -0.707107 0.707107 0.707107 -3.01 7.27)"/><rect x="3.64" y="8.6" width="2" height="5.37" class="MsftOfcResponsive_Fill_7823dc" fill="#7823DC" transform="matrix(0.398749 -0.91706 0.91706 0.398749 -7.56 11.04)"/><rect x="1" y="15" width="5.36" height="2" class="MsftOfcResponsive_Fill_7823dc" fill="#7823DC"/><rect x="1.96" y="19.71" width="5.37" height="2" class="MsftOfcResponsive_Fill_7823dc" fill="#7823DC" transform="matrix(0.91699 -0.398909 0.398909 0.91699 -7.88 3.57)"/><rect x="4.62" y="23.73" width="5.3" height="2" class="MsftOfcResponsive_Fill_7823dc" fill="#7823DC" transform="matrix(0.707107 -0.707107 0.707107 0.707107 -15.36 12.38)"/><rect x="8.6" y="26.36" width="5.37" height="2" class="MsftOfcResponsive_Fill_7823dc" fill="#7823DC" transform="matrix(0.398589 -0.91713 0.91713 0.398589 -18.3 26.81)"/><rect x="15" y="25.64" width="2" height="5.36" class="MsftOfcResponsive_Fill_7823dc" fill="#7823DC"/><rect x="19.71" y="24.67" width="2" height="5.37" class="MsftOfcResponsive_Fill_7823dc" fill="#7823DC" transform="matrix(0.91706 -0.398749 0.398749 0.91706 -9.19 10.53)"/><path d="M26.61 26.61 22.86 22.86 24.89 19.64 29.82 21.79 26.61 26.61Z" class="MsftOfcResponsive_Fill_7823dc" fill="#7823DC"/><rect x="25.64" y="15" width="5.36" height="2" class="MsftOfcResponsive_Fill_7823dc" fill="#7823DC"/><rect x="24.67" y="10.29" width="5.37" height="2" class="MsftOfcResponsive_Fill_7823dc" fill="#7823DC" transform="matrix(0.91699 -0.398909 0.398909 0.91699 -2.23 11.85)"/><rect x="22.08" y="6.27" width="5.3" height="2" class="MsftOfcResponsive_Fill_7823dc" fill="#7823DC" transform="matrix(0.707107 -0.707107 0.707107 0.707107 2.1 19.62)"/><rect x="18.03" y="3.64" width="5.37" height="2" class="MsftOfcResponsive_Fill_7823dc" fill="#7823DC" transform="matrix(0.398589 -0.91713 0.91713 0.398589 8.2 21.79)"/><circle cx="16" cy="10.64" r="2.02" class="MsftOfcResponsive_Fill_7823dc" fill="#7823DC"/><path d="M16 18.07C14.86 18.07 13.93 17.14 13.93 16 13.93 14.86 14.86 13.93 16 13.93 17.14 13.93 18.07 14.86 18.07 16 18.07 17.14 17.14 18.07 16 18.07ZM16 15.93C16 15.93 15.93 15.96 15.93 16 15.93 16.08 16.07 16.08 16.07 16 16.07 15.96 16.04 15.93 16 15.93Z" class="MsftOfcResponsive_Fill_7823dc" fill="#7823DC"/><circle cx="21.36" cy="16" r="2" class="MsftOfcResponsive_Fill_7823dc" fill="#7823DC"/><circle cx="10.64" cy="16" r="1.99" class="MsftOfcResponsive_Fill_7823dc" fill="#7823DC"/><circle cx="16" cy="21.36" r="2.02" class="MsftOfcResponsive_Fill_7823dc" fill="#7823DC"/><rect x="10.64" y="15" width="10.71" height="2" class="MsftOfcResponsive_Fill_7823dc" fill="#7823DC"/><rect x="14.99" y="10.64" width="2" height="10.71" class="MsftOfcResponsive_Fill_7823dc" fill="#7823DC"/></svg>