<svg viewBox="0 0 32 32" xmlns="http://www.w3.org/2000/svg" xmlns:xlink="http://www.w3.org/1999/xlink" id="Grid" overflow="hidden"><defs></defs><rect x="16.78" y="9.81" width="2" height="6.52" fill="#7823DC"/><path d="M11.87 15.36 6.12 9.81 8.96 9.77 11.85 12.56 14.63 9.81 17.47 9.81 11.87 15.36Z" fill="#7823DC"/><rect x="4.88" y="9.81" width="2" height="6.52" fill="#7823DC"/><path d="M38.26 547.51C36.2331 547.51 34.59 545.867 34.59 543.84 34.59 541.813 36.2331 540.17 38.26 540.17 40.2869 540.17 41.93 541.813 41.93 543.84 41.93 543.843 41.93 543.847 41.93 543.85 41.93 545.871 40.2914 547.51 38.27 547.51 38.2667 547.51 38.2633 547.51 38.26 547.51ZM38.26 542.18C37.3377 542.18 36.59 542.928 36.59 543.85 36.59 544.772 37.3377 545.52 38.26 545.52 39.1823 545.52 39.93 544.772 39.93 543.85 39.9355 542.933 39.1968 542.185 38.2801 542.18 38.2734 542.18 38.2667 542.18 38.26 542.18Z" fill="#7823DC" transform="translate(-26.36 -537.34)"/><path d="M56.08 564.94 28.65 564.94C27.3875 564.935 26.3655 563.912 26.36 562.65L26.36 557.11C26.3655 555.849 27.3892 554.83 28.65 554.83L56.08 554.83C57.3392 554.83 58.36 555.851 58.36 557.11L58.36 562.65C58.36 563.911 57.3408 564.935 56.08 564.94ZM28.65 556.83C28.4955 556.825 28.3657 556.945 28.3602 557.1 28.3601 557.103 28.36 557.107 28.36 557.11L28.36 562.65C28.36 562.81 28.4898 562.94 28.65 562.94L56.08 562.94C56.2346 562.94 56.3601 562.815 56.3602 562.66 56.3602 562.657 56.3601 562.653 56.36 562.65L56.36 557.11C56.3656 556.961 56.2494 556.836 56.1004 556.83 56.0936 556.83 56.0868 556.83 56.08 556.83Z" fill="#7823DC" transform="translate(-26.36 -537.34)"/><path d="M52.36 562.88C50.7031 562.88 49.36 561.537 49.36 559.88 49.36 558.223 50.7031 556.88 52.36 556.88 54.0169 556.88 55.36 558.223 55.36 559.88 55.36 561.537 54.0169 562.88 52.36 562.88ZM52.36 558.88C51.8077 558.88 51.36 559.328 51.36 559.88 51.36 560.432 51.8077 560.88 52.36 560.88 52.9123 560.88 53.36 560.432 53.36 559.88 53.36 559.328 52.9123 558.88 52.36 558.88Z" fill="#7823DC" transform="translate(-26.36 -537.34)"/><path d="M32.36 562.88C30.7031 562.88 29.36 561.537 29.36 559.88 29.36 558.223 30.7031 556.88 32.36 556.88 34.0169 556.88 35.36 558.223 35.36 559.88 35.36 561.537 34.0169 562.88 32.36 562.88ZM32.36 558.88C31.8077 558.88 31.36 559.328 31.36 559.88 31.36 560.432 31.8077 560.88 32.36 560.88 32.9123 560.88 33.36 560.432 33.36 559.88 33.36 559.328 32.9123 558.88 32.36 558.88Z" fill="#7823DC" transform="translate(-26.36 -537.34)"/><path d="M48.36 564.94 36.36 564.94 36.36 557.62 48.36 557.62ZM38.36 562.94 46.36 562.94 46.36 559.62 38.36 559.62Z" fill="#7823DC" transform="translate(-26.36 -537.34)"/><rect x="24.86" y="26.59" rx="1.25" width="5.14" height="5.41" fill="#7823DC"/><rect x="2" y="26.59" rx="1.25" width="5.14" height="5.41" fill="#7823DC"/><path d="M56.65 555.34 28.07 555.34 28.07 545.75C28.081 541.11 31.8398 537.351 36.48 537.34L48.24 537.34C52.8824 537.346 56.6445 541.108 56.65 545.75ZM30.07 553.34 54.65 553.34 54.65 545.75C54.6445 542.212 51.7779 539.346 48.24 539.34L36.48 539.34C32.9421 539.346 30.0755 542.212 30.07 545.75Z" fill="#7823DC" transform="translate(-26.36 -537.34)"/></svg>