<svg viewBox="0 0 32 32" xmlns="http://www.w3.org/2000/svg" xmlns:xlink="http://www.w3.org/1999/xlink" id="Layer_2_1_" overflow="hidden"><style>
.MsftOfcResponsive_Fill_7823dc {
 fill:#7823DC; 
}
</style>
<g><path d="" class="MsftOfcResponsive_Fill_7823dc" fill="#7823DC" fill-rule="evenodd" clip-rule="evenodd"/></g><path d="M17.5 10C17.5 10 17.5 10.1 17.5 10 18 10.7 18.5 11.3 18.8 12L20.3 12C20.4 11.9 20.5 11.8 20.5 11.7 20.6 11.8 20.7 11.9 20.8 12L29.7 12 28.2 25 3.8 25 2.2 12 14.7 12C15.1 11.4 15.5 10.8 15.6 10.1 15.6 10.1 15.6 10 15.6 10L13.6 10C13.6 10 13.6 10.1 13.6 10.1 13.4 10.6 13.1 11 12.8 11.4 12.5 11 12.2 10.6 12 10.1 12 10.1 12 10 12 10L0 10 2 27 30 27 32 10 17.5 10Z" class="MsftOfcResponsive_Fill_7823dc" fill="#7823DC"/><path d="M6.5 27C7.3 27 8 27.7 8 28.5 8 29.3 7.3 30 6.5 30 5.7 30 5 29.3 5 28.5 5 27.7 5.7 27 6.5 27M6.5 25C4.6 25 3 26.6 3 28.5 3 30.4 4.6 32 6.5 32 8.4 32 10 30.4 10 28.5 10 26.6 8.4 25 6.5 25L6.5 25Z" class="MsftOfcResponsive_Fill_7823dc" fill="#7823DC"/><path d="M25.5 27C26.3 27 27 27.7 27 28.5 27 29.3 26.3 30 25.5 30 24.7 30 24 29.3 24 28.5 24 27.7 24.7 27 25.5 27M25.5 25C23.6 25 22 26.6 22 28.5 22 30.4 23.6 32 25.5 32 27.4 32 29 30.4 29 28.5 29 26.6 27.4 25 25.5 25L25.5 25Z" class="MsftOfcResponsive_Fill_7823dc" fill="#7823DC"/><path d="M28 11.1 27.2 4.8 24 7.3 19 3.1 13.9 5.1 11.1 3.3 8.3 6.1 5.4 5.2 4 7.6 4 10.9 2 10.9 2 7 4.6 2.8 7.7 3.9 10.9 0.7 14.1 2.9 19.4 0.9 24 4.7 28.8 1.2 30 10.9Z" class="MsftOfcResponsive_Fill_7823dc" fill="#7823DC"/><rect x="10" y="10" width="15" height="2" class="MsftOfcResponsive_Fill_7823dc" fill="#7823DC"/></svg>