<svg viewBox="0 0 29.22 29.22" xmlns="http://www.w3.org/2000/svg" xmlns:xlink="http://www.w3.org/1999/xlink" xml:space="preserve" overflow="hidden"><g id="Layer_3"></g><g id="Layer_1"></g><g id="Layer_2"></g><g id="Layer_4"></g><g id="Layer_5"><g><path d="M26.87 16.62 19 19.1 19 15.94 16.96 16.17 13.96 16.51 9.23 14.82 8.47 14.55 7.75 14.93 4.79 16.51-0.06 16.51-0.06 25.68 4.82 25.68 13.83 29.33 28.28 21.81 29.25 21.29 29.25 15.87 26.87 16.62 26.87 16.62ZM27.42 20.19 13.75 27.3 5.2 23.85 1.78 23.85 1.78 18.33 5.26 18.33 8.62 16.53 13.75 18.36 17.17 17.98 17.17 19.81 16.18 20.13 12.73 20.83 12.73 22.53 16.35 21.86 16.35 21.85 27.43 18.37 27.43 20.19 27.42 20.19Z" fill="#7823DC"/><path d="M22.61 1.99C25.27 1.99 27.42 4.14 27.42 6.79 27.42 9.44 25.26 11.59 22.61 11.59 19.95 11.59 17.8 9.44 17.8 6.79 17.8 4.14 19.95 1.99 22.61 1.99M22.61 0.16C18.94 0.16 15.96 3.13 15.96 6.79 15.96 10.45 18.94 13.42 22.61 13.42 26.28 13.42 29.26 10.45 29.26 6.79 29.26 3.13 26.28 0.16 22.61 0.16L22.61 0.16Z" fill="#7823DC"/><path d="M16.44 11.44C13.87 10.81 12.3 8.22 12.93 5.65 13.36 3.92 14.71 2.57 16.44 2.15L16.44 0.27C12.83 0.91 10.42 4.35 11.06 7.95 11.55 10.69 13.69 12.83 16.44 13.32L16.44 11.44Z" fill="#7823DC"/><path d="M10.92 11.41C8.34 10.79 6.76 8.21 7.38 5.64 7.8 3.89 9.17 2.52 10.92 2.1L10.92 0.23C7.31 0.85 4.89 4.28 5.51 7.89 5.99 10.65 8.15 12.81 10.92 13.29L10.92 11.41Z" fill="#7823DC"/></g></g></svg>