<svg viewBox="0 0 31.92 31.98" xmlns="http://www.w3.org/2000/svg" xmlns:xlink="http://www.w3.org/1999/xlink" id="Layer_1" overflow="hidden"><style>
.MsftOfcResponsive_Fill_7823dc {
 fill:#7823DC; 
}
</style>
<defs></defs><path d="M17.34 31.98 15.34 31.98 15.34 16.07 17.34 16.07C17.34 16.84 17.62 17.6 18.1 18.21 18.58 18.81 19.33 19.28 20.02 19.42L19.64 21.38C18.84 21.23 18.02 20.82 17.34 20.26L17.34 31.97Z" class="MsftOfcResponsive_Fill_7823dc" fill="#7823DC"/><path d="M28 23 19.62 21.39 20 19.42 27.29 20.83 30.36 17.51 31.83 18.87 28 23Z" class="MsftOfcResponsive_Fill_7823dc" fill="#7823DC"/><path d="M30.52 20.3 23.81 13.69 23.12 0.69 25.11 0.58 25.76 12.81 31.92 18.88 30.52 20.3Z" class="MsftOfcResponsive_Fill_7823dc" fill="#7823DC"/><path d="M21.69 12.16 20.69 11.8C19.89 11.51 19.48 11.49 19.3 11.51L19.15 9.52C19.5 9.49 19.9 9.52 20.35 9.63L23.2 0 25.12 0.57 21.7 12.17Z" class="MsftOfcResponsive_Fill_7823dc" fill="#7823DC"/><path d="M4.25 26.95 0 17.51 6.15 11.36 6.85 10.56C10.13 6.85 15.22 6.57 21.18 9.77L21.37 9.87 21.01 10.61 20.81 11.77C20.62 11.74 20.51 11.68 20.23 11.53 19.93 11.37 19.62 11.21 19.3 11.06L19.34 11.52 16.98 11.71C14.37 11.92 12.04 13.32 10.76 15.46 10.69 15.57 10.63 15.68 10.57 15.79L4.26 26.95ZM2.39 17.95 4.46 22.53 8.82 14.82C8.89 14.7 8.97 14.56 9.05 14.42 10.51 11.99 13.02 10.31 15.9 9.82 13.24 9.21 10.47 9.48 8.36 11.88L7.62 12.72 2.4 17.95Z" class="MsftOfcResponsive_Fill_7823dc" fill="#7823DC"/></svg>