<svg viewBox="0 0 32 32" xmlns="http://www.w3.org/2000/svg" xmlns:xlink="http://www.w3.org/1999/xlink" id="Layer_1" overflow="hidden"><path d="M16 14.3C15.7 14.1 15.4 14 15 14L4 14C2.9 14 2 14.9 2 16L2 19 4 19 4 16 15 16 15 24 17 24 17 16C17 15.3 16.6 14.6 16 14.3Z" fill="#7823DC"/><path d="" fill="#7823DC"/><path d="M27 24 28 24 28 16 17 16 17 24 15 24 15 16C15 15.3 15.4 14.6 16 14.3 16.3 14.1 16.6 14 17 14L28 14C29.1 14 30 14.9 30 16L30 20 29 20" fill="#7823DC"/><rect x="3" y="22" width="26" height="2" fill="#7823DC"/><rect x="3" y="28" width="26" height="2" fill="#7823DC"/><g><path d="M8 29 5 29 5 32 8 32Z" fill="#7823DC"/></g><g><path d="M27 28 24 28 24 32 27 32Z" fill="#7823DC"/></g><path d="M30 18 29 18C28.6 18 28.3 18.1 27.9 18.3 27.3 18.7 26.9 19.3 26.9 20L26.9 30 28.9 30C30.6 30 31.9 28.6 31.9 27L31.9 20C32 18.9 31.1 18 30 18ZM30 27C30 27.5 29.6 28 29 28L29 20 30 20 30 27Z" fill="#7823DC"/><path d="M4 18.3C3.7 18.1 3.3 18 3 18L2 18C0.9 18 0 18.9 0 20L0 27C0 28.6 1.3 30 3 30L5 30 5 20C5 19.3 4.6 18.7 4 18.3ZM3 28C2.5 28 2 27.5 2 27L2 20 3 20 3 28Z" fill="#7823DC"/></svg>