<svg width="32" height="32" viewBox="0 0 32 32" xmlns="http://www.w3.org/2000/svg" xmlns:xlink="http://www.w3.org/1999/xlink" overflow="hidden"><defs></defs><g><g><g><defs><rect x="0" y="0" width="32" height="32" id="SVGID_1_" fill="#7823DC"/></defs><clipPath id="SVGID_2_"><use width="100%" height="100%" xlink:href="#SVGID_1_"></use></clipPath><g clip-path="url(#SVGID_2_)"><defs><rect x="0" y="0" width="32" height="32" id="SVGID_3_" fill="#7823DC"/></defs><clipPath id="SVGID_4_"><use width="100%" height="100%" xlink:href="#SVGID_3_"></use></clipPath></g></g></g><path d="M16 32C7.2 32 0 24.8 0 16 0 7.2 7.2 0 16 0 24.8 0 32 7.2 32 16 32 24.8 24.8 32 16 32ZM16 2C8.3 2 2 8.3 2 16 2 23.7 8.3 30 16 30 23.7 30 30 23.7 30 16 30 8.3 23.7 2 16 2Z" fill="#7823DC"/><g><path d="M10.6 19.4C10.6 17.3 11.9 15.9 13.6 15.3 12.1 14.7 11.2 13.5 11.2 12 11.2 9.4 13.6 7.9 16 7.9 18.4 7.9 20.8 9.5 20.8 11.9 20.8 13.5 19.8 14.6 18.4 15.2 20.2 15.9 21.4 17.2 21.4 19.2 21.4 22.3 18.6 23.9 16 23.9 13.4 24.1 10.6 22.5 10.6 19.4ZM19.4 19.3C19.4 17.2 17.9 16.2 16 16.2 14.1 16.2 12.5 17.3 12.5 19.4 12.5 21.5 14.2 22.6 16 22.6 17.9 22.5 19.4 21.4 19.4 19.3ZM18.9 12C18.9 10.5 17.6 9.4 16 9.4 14.4 9.4 13.1 10.4 13.1 12 13.1 13.7 14.5 14.6 16.1 14.6 17.7 14.6 18.9 13.7 18.9 12Z" fill="#7823DC"/></g></g></svg>