<svg viewBox="0 0 32 32" xmlns="http://www.w3.org/2000/svg" xmlns:xlink="http://www.w3.org/1999/xlink" id="Graphic" overflow="hidden"><defs></defs><rect x="4" y="28" width="2" height="4" fill="#7823DC"/><rect x="8.40039" y="26" width="2" height="6" fill="#7823DC"/><rect x="12.7998" y="28" width="2" height="4" fill="#7823DC"/><rect x="17.2002" y="28" width="2" height="4" fill="#7823DC"/><rect x="21.5996" y="26" width="2" height="6" fill="#7823DC"/><rect x="26" y="28" width="2" height="4" fill="#7823DC"/><rect x="26" y="6" width="2" height="4" fill="#7823DC"/><rect x="21.5996" y="4" width="2" height="6" fill="#7823DC"/><rect x="17.2002" y="6" width="2" height="4" fill="#7823DC"/><rect x="12.7998" y="6" width="2" height="4" fill="#7823DC"/><rect x="8.40039" y="4" width="2" height="6" fill="#7823DC"/><path d="M0 32.0005 0 21.9692 19.9678 21.9663 0 13.707 0 0.0083 32-0.00049 32 10.0308 10.4941 10.0342 32 18.2734 32 31.9917ZM2 23.9692 2 29.9995 30 29.9927 30 23.9644ZM2 12.3701 30 23.9512 30 19.6494 4 9.688 4 6 6 6 6 8.03467 30 8.03076 30 2.00049 2 2.00732Z" fill="#7823DC"/></svg>