<svg viewBox="0 0 32 32" xmlns="http://www.w3.org/2000/svg" xmlns:xlink="http://www.w3.org/1999/xlink" id="Layer_5" overflow="hidden"><defs></defs><path d="M16.95 30 2 30 2 28 15.88 28C15.63 27.36 15.46 26.69 15.35 26L2.02 26C2.16 24.55 3 21.72 7.25 20.51 11.63 19.26 13.84 17.56 14.92 16.39 15.47 16.98 16.31 17.71 17.58 18.45 18.05 17.92 18.57 17.44 19.15 17.02 16.99 15.88 16.16 14.78 15.92 14.42L15.92 10.93C16.02 10.93 16.11 10.94 16.21 10.94 17.71 10.94 19.06 10.34 20.05 9.36L18.62 7.95C17.99 8.56 17.14 8.94 16.2 8.94 14.28 8.94 12.73 7.38 12.73 5.46 12.73 4.54 13.1 3.71 13.68 3.08L12.25 1.67C11.31 2.65 10.72 3.98 10.72 5.45 10.72 7.65 12.03 9.54 13.9 10.41L13.9 14.4C13.53 14.97 11.86 17.08 6.68 18.56 1.21 20.16 0.16 24.07 0 26.01L0 32C0 32 18.85 32 18.85 32 18.12 31.43 17.48 30.76 16.95 30Z" stroke-width="0" fill="#7823DC"/><path d="M23.87 24.03 26.5 21.4 23.56 21.53 20.93 24.15 25.27 27.79 28.31 27.79 23.87 24.03Z" stroke-width="0" fill="#7823DC"/><path d="M24.62 17.24C20.55 17.24 17.24 20.55 17.24 24.62 17.24 28.69 20.55 32 24.62 32 28.69 32 32 28.69 32 24.62 32 20.55 28.69 17.24 24.62 17.24ZM24.62 30C21.65 30 19.24 27.59 19.24 24.62 19.24 21.65 21.65 19.24 24.62 19.24 27.59 19.24 30 21.65 30 24.62 30 27.59 27.59 30 24.62 30Z" stroke-width="0" fill="#7823DC"/></svg>