<svg viewBox="0 0 29.22 29.22" xmlns="http://www.w3.org/2000/svg" xmlns:xlink="http://www.w3.org/1999/xlink" xml:space="preserve" overflow="hidden"><style>
.MsftOfcResponsive_Fill_7823dc {
 fill:#7823DC; 
}
</style>
<g id="Layer_3"></g><g id="Layer_1"></g><g id="Layer_2"></g><g id="Layer_4"></g><g id="Layer_5"><path d="M0.01 14.63 1.82 14.63 1.82 29.13 0.01 29.13 0.01 14.63Z" class="MsftOfcResponsive_Fill_7823dc" fill="#7823DC"/><path d="M20.01 14.63 21.82 14.63 21.82 29.13 20.01 29.13 20.01 14.63Z" class="MsftOfcResponsive_Fill_7823dc" fill="#7823DC"/><path d="M26.49 5.58 10.9 21.13 4.4 14.64 1.83 14.64 10.9 23.69 29.05 5.58 26.49 5.58 26.49 5.58Z" class="MsftOfcResponsive_Fill_7823dc" fill="#7823DC"/><path d="M22.78 6.75 24.06 5.47 25.35 6.75 24.07 8.03 22.78 6.75Z" class="MsftOfcResponsive_Fill_7823dc" fill="#7823DC"/><path d="M10.82 15.95C9.94 15.95 7.25 15.95 7.25 13.93 7.25 12.55 8.84 10.88 10.82 10.88 12.8 10.88 14.39 12.55 14.39 13.93 14.39 15.95 11.7 15.95 10.82 15.95ZM9.3 13.79C9.49 13.86 9.93 13.95 10.82 13.95 11.71 13.95 12.15 13.86 12.34 13.79 12.17 13.45 11.58 12.88 10.82 12.88 10.06 12.88 9.47 13.46 9.3 13.79Z" class="MsftOfcResponsive_Fill_7823dc" fill="#7823DC"/><path d="M10.82 0.08C6.15 0.08 2.34 3.88 2.34 8.56L2.34 12.41 4.34 12.41 4.34 8.56C4.34 4.99 7.25 2.08 10.82 2.08 14.39 2.08 17.3 4.99 17.3 8.56L17.3 12.41 19.3 12.41 19.3 8.56C19.29 3.88 15.49 0.08 10.82 0.08Z" class="MsftOfcResponsive_Fill_7823dc" fill="#7823DC"/><rect x="11.61" y="6.4" width="4.18" height="2" class="MsftOfcResponsive_Fill_7823dc" fill="#7823DC" transform="matrix(0.8328 -0.5536 0.5536 0.8328 -1.8047 8.8219)"/><rect x="7.02" y="5.15" width="2" height="4.43" class="MsftOfcResponsive_Fill_7823dc" fill="#7823DC" transform="matrix(0.5348 -0.845 0.845 0.5348 -2.4955 10.2078)"/><rect x="10.54" y="17.48" width="3.94" height="6.49" class="MsftOfcResponsive_Fill_7823dc" fill="#7823DC" transform="matrix(0.7071 0.7071 -0.7071 0.7071 18.3179 -2.7782)"/></g></svg>