<svg viewBox="0 0 32 32" xmlns="http://www.w3.org/2000/svg" xmlns:xlink="http://www.w3.org/1999/xlink" xml:space="preserve" overflow="hidden"><style>
.MsftOfcResponsive_Fill_7823dc {
 fill:#7823DC; 
}
</style>
<g id="Layer_3"></g><g id="Layer_1"></g><g id="Layer_2"></g><g id="Layer_4"></g><g id="Layer_5"><path d="M26.51 16.37 24.97 15.09C25.8 14.09 25.99 12.17 26 11.52 26 6.28 21.73 2.01 16.49 2.01L15.78 2.01C10.54 2.01 6.27 6.28 6.27 11.52 6.27 12.17 6.46 14.09 7.3 15.09L5.76 16.37C4.31 14.63 4.27 11.83 4.27 11.52 4.27 5.17 9.43 0.01 15.78 0.01L16.49 0.01C22.84 0.01 28 5.17 28 11.52 28 11.83 27.96 14.63 26.51 16.37Z" class="st0 MsftOfcResponsive_Fill_7823dc" fill="#7823DC"/><path d="M20.55 17.99C18.63 17.99 17.07 16.43 17.07 14.51 17.07 12.59 18.63 11.03 20.55 11.03 22.47 11.03 24.03 12.59 24.03 14.51 24.03 16.43 22.47 17.99 20.55 17.99ZM20.55 13.02C19.73 13.02 19.07 13.69 19.07 14.5 19.07 15.31 19.74 15.98 20.55 15.98 21.36 15.98 22.03 15.31 22.03 14.5 22.03 13.69 21.37 13.02 20.55 13.02Z" class="st0 MsftOfcResponsive_Fill_7823dc" fill="#7823DC"/><path d="M11.59 18.15C9.67 18.15 8.11 16.59 8.11 14.67 8.11 12.75 9.67 11.19 11.59 11.19 13.51 11.19 15.07 12.75 15.07 14.67 15.07 16.59 13.51 18.15 11.59 18.15ZM11.59 13.18C10.77 13.18 10.11 13.85 10.11 14.66 10.11 15.47 10.78 16.14 11.59 16.14 12.4 16.14 13.07 15.47 13.07 14.66 13.07 13.85 12.41 13.18 11.59 13.18Z" class="st0 MsftOfcResponsive_Fill_7823dc" fill="#7823DC"/><path d="M18.13 22.67 14.07 22.67 13.15 21.27 15.19 16.58 17.02 16.58 19.04 21.27 18.13 22.67ZM15.6 20.67 16.62 20.67 16.12 19.5 15.6 20.67Z" class="st0 MsftOfcResponsive_Fill_7823dc" fill="#7823DC"/><path d="M22.18 25.35 10.1 25.35 10.1 21.36 7.61 21.36 5.67 19.5 5.67 18.01 7.67 18.01 7.67 18.64 8.42 19.36 12.1 19.36 12.1 23.35 20.18 23.35 20.18 19.36 24 19.36 24.47 18.73 24.49 18.04 26.49 18.1 26.45 19.41 25.01 21.36 22.18 21.36Z" class="st0 MsftOfcResponsive_Fill_7823dc" fill="#7823DC"/><rect x="11.96" y="24.35" width="2" height="3.3" class="st0 MsftOfcResponsive_Fill_7823dc" fill="#7823DC"/><rect x="15" y="24.35" width="2" height="3.3" class="st0 MsftOfcResponsive_Fill_7823dc" fill="#7823DC"/><rect x="18" y="24.35" width="2" height="3.3" class="st0 MsftOfcResponsive_Fill_7823dc" fill="#7823DC"/><path d="M19.92 31.99 12.24 31.99 7.16 27.58 7.16 23.04 9.16 23.04 9.16 26.66 12.99 29.99 19.18 29.99 23.12 26.61 23.12 22.93 25.12 22.93 25.13 27.53Z" class="st0 MsftOfcResponsive_Fill_7823dc" fill="#7823DC"/></g></svg>