<svg viewBox="0 0 29.22 29.22" xmlns="http://www.w3.org/2000/svg" xmlns:xlink="http://www.w3.org/1999/xlink" xml:space="preserve" overflow="hidden"><style>
.MsftOfcResponsive_Fill_7823dc {
 fill:#7823DC; 
}
</style>
<g id="Layer_3"></g><g id="Layer_1"></g><g id="Layer_2"></g><g id="Layer_4"></g><g id="Layer_5"><path d="M24.82 29.06 4.39 29.06 4.39 9.37 24.82 9.37 24.82 29.06ZM6.39 27.06 22.82 27.06 22.82 11.37 6.39 11.37 6.39 27.06Z" class="st0 MsftOfcResponsive_Fill_7823dc" fill="#7823DC"/><g id="g603" transform="translate(256 496.544)"><path d="M-231.18-485.17-251.61-485.17-251.61-486.17C-251.61-491.8-247.03-496.39-241.39-496.39-235.75-496.39-231.17-491.81-231.17-486.17L-231.17-485.17ZM-249.55-487.17-233.24-487.17C-233.74-491.23-237.2-494.39-241.4-494.39-245.6-494.39-249.05-491.23-249.55-487.17Z" class="st0 MsftOfcResponsive_Fill_7823dc" fill="#7823DC"/></g><g id="g607" transform="translate(256 331.767)"></g><g id="g615" transform="translate(256 331.767)"><rect x="-242.39" y="-330.61" width="2" height="9.22" class="st0 MsftOfcResponsive_Fill_7823dc" fill="#7823DC"/></g><g id="g619" transform="translate(256 331.767)"><rect x="-242.39" y="-321.4" width="2" height="17.69" class="st0 MsftOfcResponsive_Fill_7823dc" fill="#7823DC"/></g><g id="g623" transform="translate(91.2227 173.611)"><rect x="-85.83" y="-155.4" width="18.43" height="2" class="st0 MsftOfcResponsive_Fill_7823dc" fill="#7823DC"/></g></g></svg>