<svg viewBox="0 0 32 32" xmlns="http://www.w3.org/2000/svg" xmlns:xlink="http://www.w3.org/1999/xlink" id="Layer_1" xml:space="preserve" overflow="hidden"><style>
.MsftOfcResponsive_Fill_7823dc {
 fill:#7823DC; 
}
</style>
<g id="Layer_2_00000153672027410828584440000004318808627006363015_"></g><g id="Layer_2_00000103981120671582451330000015814750687241510044_"></g><path d="M23.9 14.5C23.6 13.9 23.3 13.3 22.9 12.7L21.1 13.6C21.5 14.1 21.8 14.7 22.1 15.4 22.6 16.7 23 18.1 23 19.5 23 25.3 18.3 30 12.5 30 6.7 30 2 25.3 2 19.5 2 13.7 6.7 9 12.5 9 14.4 9 16.2 9.5 17.7 10.4 18.3 10.7 18.9 11.1 19.4 11.6L20.3 9.7C19.8 9.3 19.2 8.9 18.6 8.6 16.8 7.6 14.7 7 12.5 7 5.6 7 0 12.6 0 19.5 0 26.4 5.6 32 12.5 32 19.4 32 25 26.4 25 19.5 25 17.7 24.6 16 23.9 14.5Z" class="MsftOfcResponsive_Fill_7823dc" fill="#7823DC"/><g><circle cx="10.5" cy="12.5" r="1.5" class="MsftOfcResponsive_Fill_7823dc" fill="#7823DC"/></g><g><circle cx="18.5" cy="23.5" r="1.5" class="MsftOfcResponsive_Fill_7823dc" fill="#7823DC"/></g><g><circle cx="11.5" cy="26.5" r="1.5" class="MsftOfcResponsive_Fill_7823dc" fill="#7823DC"/></g><path d="M7 17C5.3 17 4 18.3 4 20 4 21.7 5.3 23 7 23 8.7 23 10 21.7 10 20 10 18.3 8.7 17 7 17ZM7 21C6.5 21 6 20.5 6 20 6 19.5 6.5 19 7 19 7.5 19 8 19.5 8 20 8 20.5 7.5 21 7 21Z" class="MsftOfcResponsive_Fill_7823dc" fill="#7823DC"/><path d="M25.2 11.2C24.7 11.8 24 12.2 23.3 12.6L23 12.7 21.2 13.6 19.7 14.3 17.3 16.8C17.1 17.1 16.6 17 16.3 16.8 16 16.5 16 16.1 16.2 15.8L18.6 13.3 19.4 11.6 20.3 9.7 20.5 9.3C20.7 8.8 21.1 8.3 21.5 7.8L29.2 0 26.4 0 20 6.5C19.4 7.1 18.9 7.8 18.6 8.5L18.6 8.6 17.7 10.4 16.9 12.1 14.7 14.3C13.7 15.3 13.7 17.1 14.8 18.1 15.4 18.6 16 18.9 16.8 18.9 17.5 18.9 18.2 18.6 18.7 18.1L20.9 15.9 22.2 15.3 24 14.4 24.3 14.3C25.2 13.9 26 13.3 26.7 12.5L32 7.1 32 4.2 25.2 11.2Z" class="MsftOfcResponsive_Fill_7823dc" fill="#7823DC"/></svg>