<svg viewBox="0 0 32 32" xmlns="http://www.w3.org/2000/svg" xmlns:xlink="http://www.w3.org/1999/xlink" xml:space="preserve" overflow="hidden"><style>
.MsftOfcResponsive_Fill_7823dc {
 fill:#7823DC; 
}
</style>
<g id="Layer_3"></g><g id="Layer_1"></g><g id="Layer_2"><path d="M26.86 6.39 26.86 3.3 23.19 3.3C21.89 0.86 19.31 0.18 17.98 0.18L17.98 0.18C16.1 0.18 14.55 0.87 13.38 2.17L13.38 2.13C13.38 1 12.14 0.18 10.44 0.18 8.74 0.18 7.5 1 7.5 2.13L7.5 8.46C7.2 8.68 6.92 8.94 6.67 9.28 6.35 9.65 4.42 12.04 4.55 15.33 4.55 15.51 4.58 19.77 7.75 21.68 8.14 23.11 8.78 24.54 9.83 25.81 10.01 26.04 14.23 31.57 19.03 31.8 19.05 31.8 19.14 31.81 19.29 31.81 20.15 31.81 22.94 31.46 24.92 27.24 25 27.06 26.89 22.85 26.18 18.55 26.17 18.41 25.87 15.01 21.79 12.83 21.35 12.59 20.78 12.14 20.67 11.88 20.63 11.79 20.58 11.62 20.69 11.45 20.79 11.31 21.42 10.61 24.27 10.83L27.41 11.08 27.67 7.78 27.68 7.64C27.68 7.32 27.56 6.77 26.86 6.39ZM11.38 3.98 11.38 6.33C11.21 7.1 11.12 7.78 11.08 8.27 11.06 8.28 11.04 8.3 11.02 8.31 10.62 8.12 10.09 7.94 9.5 7.9L9.5 3.98C9.79 4.04 10.1 4.08 10.44 4.08 10.78 4.08 11.09 4.04 11.38 3.98ZM6.55 15.29C6.44 12.58 8.18 10.59 8.19 10.57L8.26 10.48C8.5 10.14 8.77 9.95 9.09 9.9 9.19 9.88 9.29 9.9 9.39 9.91 8.63 10.9 7.95 12.22 7.53 14.01 7.5 14.15 7.14 15.9 7.22 18.17 6.57 16.8 6.55 15.34 6.55 15.29ZM25.58 8.92 24.42 8.83C21.67 8.62 19.86 9.12 19.04 10.31 18.55 11.02 18.48 11.93 18.85 12.73 19.31 13.71 20.57 14.44 20.83 14.59 23.91 16.24 24.17 18.61 24.19 18.79 24.81 22.57 23.11 26.38 23.1 26.41 21.44 29.96 19.34 29.83 19.2 29.82 17.94 29.76 16.69 29.2 15.57 28.48 15.08 26.99 13.14 19.93 18.34 14.83L16.94 13.4C12.58 17.68 12.52 23.08 13.04 26.4 12.05 25.43 11.43 24.61 11.4 24.58 8.19 20.71 9.47 14.51 9.48 14.47 10.19 11.49 11.73 10.14 12.89 9.52L13.11 9.42C13.11 9.42 13.05 9.16 13.06 8.65 13.15 7.16 13.76 2.2 17.98 2.2 18 2.2 19.54 2.22 20.71 3.32L18.5 3.32C18.03 3.28 16.65 3.33 15.49 5.3L17.21 6.31C17.74 5.41 18.19 5.32 18.23 5.3L24.85 5.32 24.85 5.98 19.17 5.98 19.17 5.99C17.79 6.06 15.87 6.97 15.8 9.34L17.8 9.4C17.84 8.11 18.99 7.99 19.35 7.98L24.67 7.98C25.16 7.98 25.46 8.02 25.64 8.07L25.58 8.92Z" class="MsftOfcResponsive_Fill_7823dc" fill="#7823DC"/></g></svg>