<svg viewBox="0 0 32 32" xmlns="http://www.w3.org/2000/svg" xmlns:xlink="http://www.w3.org/1999/xlink" id="Layer_1" xml:space="preserve" overflow="hidden"><g><g><defs><path d="M2 32 30 32 30 0 2 0 2 32Z" id="SVGID_1_" fill="#7823DC"/></defs><defs><path d="M2 0 30 0 30 32 2 32 2 0Z" id="SVGID_00000023979719434327120230000013495697474999996817_" fill="#7823DC"/></defs><clipPath id="SVGID_00000096044811011084288840000002001413687779671209_"><use width="100%" height="100%" xlink:href="#SVGID_1_" overflow="visible"></use></clipPath><clipPath id="SVGID_00000059993672998950014220000002943457933878085042_" clip-path="url(#SVGID_00000096044811011084288840000002001413687779671209_)"><use width="100%" height="100%" xlink:href="#SVGID_00000023979719434327120230000013495697474999996817_" overflow="visible"></use></clipPath><g clip-path="url(#SVGID_00000059993672998950014220000002943457933878085042_)"><defs><path d="M2 32 30 32 30 0 2 0 2 32Z" id="SVGID_00000155142912947098760290000013020690827560180895_" fill="#7823DC"/></defs><clipPath id="SVGID_00000161614114875389121980000011655209493348412312_"><use width="100%" height="100%" xlink:href="#SVGID_00000155142912947098760290000013020690827560180895_" overflow="visible"></use></clipPath><path d="M15.6 8.1 17.3 8.1 17.3 11.5 15.6 11.5 15.6 8.1 15.6 8.1 15.6 8.1Z" fill="#7823DC" clip-path="url(#SVGID_00000161614114875389121980000011655209493348412312_)"/><path d="M15.6 13.3 17.3 13.3 17.3 18.3 15.6 18.3 15.6 13.3 15.6 13.3 15.6 13.3Z" fill="#7823DC" clip-path="url(#SVGID_00000161614114875389121980000011655209493348412312_)"/><path d="M11.7 11.9 13.2 11 17 17.4 15.6 18.3 11.7 11.9 11.7 11.9 11.7 11.9Z" fill="#7823DC" clip-path="url(#SVGID_00000161614114875389121980000011655209493348412312_)"/><path d="M6.3 17.4 9.7 17.4 9.7 19.1 6.3 19.1 6.3 17.4 6.3 17.4 6.3 17.4Z" fill="#7823DC" clip-path="url(#SVGID_00000161614114875389121980000011655209493348412312_)"/><path d="M15.6 25 17.3 25 17.3 28.3 15.6 28.3 15.6 25 15.6 25 15.6 25Z" fill="#7823DC" clip-path="url(#SVGID_00000161614114875389121980000011655209493348412312_)"/><path d="M23.2 17.4 26.6 17.4 26.6 19.1 23.2 19.1 23.2 17.4 23.2 17.4 23.2 17.4Z" fill="#7823DC" clip-path="url(#SVGID_00000161614114875389121980000011655209493348412312_)"/><path d="M16.4 31.8C9 31.8 2.9 25.7 2.9 18.3 2.9 10.9 9 4.8 16.4 4.8 23.8 4.8 29.9 10.9 29.9 18.3 29.9 25.7 23.9 31.8 16.4 31.8L16.4 31.8 16.4 31.8 16.4 31.8ZM16.4 6.5C9.9 6.5 4.6 11.8 4.6 18.3 4.6 24.8 9.9 30.1 16.4 30.1 22.9 30.1 28.2 24.8 28.2 18.3 28.2 11.8 22.9 6.5 16.4 6.5L16.4 6.5 16.4 6.5 16.4 6.5Z" fill="#7823DC" clip-path="url(#SVGID_00000161614114875389121980000011655209493348412312_)"/><path d="M7 2.4 8.5 1.5 10.6 5.1 9.2 5.9 7 2.4 7 2.4 7 2.4Z" fill="#7823DC" clip-path="url(#SVGID_00000161614114875389121980000011655209493348412312_)"/><path d="M5.5 4.6 7 3.8 8.5 6.3 7.1 7.2 5.5 4.6 5.5 4.6 5.5 4.6Z" fill="#7823DC" clip-path="url(#SVGID_00000161614114875389121980000011655209493348412312_)"/><path d="M9.6 1.9 11.1 1 12.7 3.8 11.3 4.7 9.6 1.9 9.6 1.9 9.6 1.9Z" fill="#7823DC" clip-path="url(#SVGID_00000161614114875389121980000011655209493348412312_)"/></g></g></g></svg>