<svg viewBox="0 0 32 32" xmlns="http://www.w3.org/2000/svg" xmlns:xlink="http://www.w3.org/1999/xlink" id="Layer_1" overflow="hidden"><rect x="1" y="26" width="30" height="2" fill="#7823DC"/><path d="" stroke="#7823DC" stroke-width="2" stroke-miterlimit="10" fill="#7823DC"/><rect x="15" y="2" width="2" height="2" fill="#7823DC"/><rect x="13" y="0" width="6" height="2" fill="#7823DC"/><path d="M5 28C5.6 28 6 28.4 6 29 6 29.6 5.6 30 5 30 4.4 30 4 29.6 4 29 4 28.4 4.4 28 5 28M5 26C3.3 26 2 27.3 2 29 2 30.7 3.3 32 5 32 6.7 32 8 30.7 8 29 8 27.3 6.7 26 5 26L5 26Z" fill="#7823DC"/><path d="M27 28C27.6 28 28 28.4 28 29 28 29.6 27.6 30 27 30 26.4 30 26 29.6 26 29 26 28.4 26.4 28 27 28M27 26C25.3 26 24 27.3 24 29 24 30.7 25.3 32 27 32 28.7 32 30 30.7 30 29 30 27.3 28.7 26 27 26L27 26Z" fill="#7823DC"/><path d="M28 27 26 27 26 15.5C26 9.7 21.5 5 16 5 10.5 5 6 9.7 6 15.5L6 27 4 27 4 15.5C4 8.6 9.4 3 16 3 22.6 3 28 8.6 28 15.5L28 27Z" fill="#7823DC"/><path d="M22 22 22 26 10 26 10 22 22 22M24 20 8 20 8 28 24 28 24 20 24 20Z" fill="#7823DC"/><path d="M22 18 22 20 10 20 10 18 22 18M24 16 8 16 8 22 24 22 24 16 24 16Z" fill="#7823DC"/><path d="M17.5 14 17.5 16 14.5 16 14.5 14 17.5 14M19.5 12 12.5 12 12.5 18 19.5 18 19.5 12 19.5 12Z" fill="#7823DC"/><path d="M18 19.3 14 19.3 14 23 18 23 18 19.3Z" fill="#7823DC"/></svg>