<svg width="54.7" height="54.8" viewBox="0 0 54.7 54.8" xmlns="http://www.w3.org/2000/svg" xmlns:xlink="http://www.w3.org/1999/xlink" overflow="hidden"><defs></defs><g><g><defs><path d="M0 54.8 54.7 54.8 54.7 0 0 0 0 54.8Z" id="SVGID_1_" fill="#7823DC"/></defs><clipPath id="SVGID_3_"><use width="100%" height="100%" xlink:href="#SVGID_1_"></use></clipPath><g clip-path="url(#SVGID_3_)"><defs><path d="M0 54.8 54.7 54.8 54.7 0 0 0 0 54.8Z" id="SVGID_2_" fill="#7823DC"/></defs><clipPath id="SVGID_4_"><use width="100%" height="100%" xlink:href="#SVGID_2_"></use></clipPath><path d="M27.5 41.1C26.3 43.8 25 45.2 24.2 45.2 22.5 45.2 18.3 38.5 18 26L22.8 26 21.7 22.6 18 22.6C18.4 10.1 22.5 3.4 24.2 3.4 25.9 3.4 30.1 10.1 30.4 22.5L24.6 22.5 27.6 23.5 35.5 26 45 26C44.9 26.9 44.7 27.9 44.5 28.8L46.5 29.5 47.7 29.9C48 28.6 48.2 27.4 48.3 26.1L48.3 25C48.3 24.8 48.3 24.6 48.3 24.4 48.3 24.2 48.3 24 48.3 23.8L48.3 22.7C47.4 9.2 35.8-0.9 22.5 0.1 10.4 0.9 0.9 10.5 0 22.6L0 23.7C0 23.9 0 24.1 0 24.3 0 24.5 0 24.7 0 24.9L0 26C0.9 38.7 11.5 48.6 24.2 48.6 26 48.6 27.8 48.4 29.6 48L29.2 46.8 27.5 41.1 27.5 41.1ZM45 22.6 33.9 22.6C33.7 14.9 32 8.2 29.7 4.2 38.1 6.5 44.2 13.8 45 22.6L45 22.6ZM18.8 4.2C16.4 8.3 14.8 14.9 14.6 22.6L3.5 22.6C4.2 13.8 10.3 6.5 18.8 4.2L18.8 4.2ZM3.5 26 14.6 26C14.8 33.7 16.4 40.3 18.8 44.4 10.3 42.1 4.2 34.7 3.5 26L3.5 26Z" fill="#7823DC" clip-path="url(#SVGID_4_)"/><path d="M36.7 45 37.4 44.7 37.1 44.4 36.7 45Z" fill="#7823DC" clip-path="url(#SVGID_4_)"/><path d="M44.4 37.7 45 36.9 44.1 37.4 44.4 37.7Z" fill="#7823DC" clip-path="url(#SVGID_4_)"/><path d="M48.6 41.9 44.4 37.6 44.1 37.3 45 36.9 47.2 35.7 54.5 31.8 47.9 29.7 46.7 29.3 44.5 28.6 35.5 26 27.6 23.5 24.6 22.5 21.4 21.5 21.7 22.5 22.8 25.9 23.4 27.7 27.6 41 29.3 46.7 29.7 47.9 31.8 54.6 35.6 47.3 36.8 45 37.1 44.3 37.4 44.6 42.7 49.9 45.1 52.3 47.5 49.9 48.6 48.8 49.6 47.8 52 45.4 49.6 43 48.6 41.9 48.6 41.9ZM46.2 46.4 45.1 47.5 40.1 42.5 37.7 40.1 37.7 40.1 36.2 38.6 35.2 40.5 34.1 42.4 32.4 45.6 31.8 43.5 31.1 41.1 29.3 35.3 26.6 26.7 30.3 27.9 33.7 28.9 43.5 32 45.5 32.6 42.4 34.1 40.3 35.2 38.4 36.2 39.9 37.7 39.9 37.7 42.3 40.1 46.2 44 47.2 45 46.2 46.4 46.2 46.4Z" fill="#7823DC" clip-path="url(#SVGID_4_)"/></g></g></g></svg>