<svg viewBox="0 0 32 32" xmlns="http://www.w3.org/2000/svg" xmlns:xlink="http://www.w3.org/1999/xlink" id="Layer_5" overflow="hidden"><style>
.MsftOfcResponsive_Fill_7823dc {
 fill:#7823DC; 
}
</style>
<defs></defs><path d="M16.58 23.98C17.22 21.82 17.12 19.2 16.22 16.76 15.03 13.51 12.64 11.16 10.06 10.32L28.76 0 24.62 0 5.56 10.52 5.55 10.52C5.55 10.52 5.55 10.52 5.55 10.52 2.98 11.78 1.49 15.36 2.07 19.02 1.63 19.5 1.38 20.17 1.36 20.96 1.34 21.86 1.62 22.85 2.14 23.75 2.66 24.66 3.38 25.39 4.17 25.83 4.68 26.11 5.19 26.25 5.68 26.25 5.89 26.25 6.1 26.22 6.3 26.17 6.33 26.2 6.37 26.23 6.41 26.25 7.71 27.28 9.16 28.43 11.21 28.43 11.59 28.43 11.98 28.39 12.41 28.31 13.04 28.18 13.62 27.93 14.15 27.58L32 17.89 32 15.61 16.58 23.98ZM8.05 23.52C8.05 22.64 7.78 21.68 7.27 20.79 6.75 19.88 6.03 19.15 5.24 18.71 5.13 18.65 5.02 18.62 4.91 18.57L6.94 16.36C7.5 16.18 9.28 15.89 10.67 18.89 11.77 21.28 10.87 22.79 10.44 23.31 9.61 23.38 8.76 23.45 8.05 23.51ZM5.13 24.08C4.67 23.82 4.21 23.34 3.87 22.76 3.53 22.17 3.34 21.53 3.35 21.01 3.35 20.68 3.45 20.41 3.58 20.34 3.62 20.32 3.67 20.31 3.73 20.31 3.87 20.31 4.07 20.37 4.27 20.48 4.73 20.73 5.19 21.22 5.53 21.8 5.87 22.39 6.06 23.03 6.05 23.55 6.05 23.88 5.95 24.15 5.82 24.22 5.69 24.3 5.42 24.24 5.13 24.08ZM12.01 26.35C10.66 26.62 9.69 26.19 8.69 25.48 9.55 25.41 10.43 25.33 10.99 25.28L11.31 25.25 11.55 25.04C11.67 24.94 14.49 22.43 12.48 18.06 11.63 16.21 10.49 15.02 9.09 14.52 7.43 13.93 6.07 14.55 5.92 14.62L5.75 14.7 3.96 16.64C4.18 14.38 5.35 12.67 6.67 12.19 9.46 11.17 12.9 13.52 14.33 17.43 15.25 19.96 15.19 22.78 14.16 24.62 13.63 25.58 12.9 26.15 12 26.33Z" class="MsftOfcResponsive_Fill_7823dc" fill="#7823DC"/></svg>