<svg viewBox="0 0 32 32" xmlns="http://www.w3.org/2000/svg" xmlns:xlink="http://www.w3.org/1999/xlink" id="Layer_1" xml:space="preserve" overflow="hidden"><g><defs><path d="M3.6 32.2 28.4 32.2 28.4-0.9 3.6-0.9 3.6 32.2Z" id="SVGID_1_"/></defs><defs><path d="M3.6-0.9 28.4-0.9 28.4 32.2 3.6 32.2 3.6-0.9Z" id="SVGID_00000041275756725070909160000012332850958895715758_"/></defs><clipPath id="SVGID_00000026133967666603647060000008377015699301057964_"><use width="100%" height="100%" xlink:href="#SVGID_1_" overflow="visible"></use></clipPath><clipPath id="SVGID_00000073688440159680885280000001609302751398784157_" clip-path="url(#SVGID_00000026133967666603647060000008377015699301057964_)"><use width="100%" height="100%" xlink:href="#SVGID_00000041275756725070909160000012332850958895715758_" overflow="visible"></use></clipPath><g clip-path="url(#SVGID_00000073688440159680885280000001609302751398784157_)"><defs><path d="M3.6 32.2 28.4 32.2 28.4-0.9 3.6-0.9 3.6 32.2Z" id="SVGID_00000182492687191035571320000018397476015651737266_"/></defs><clipPath id="SVGID_00000118374853726504985520000007354492263104803226_"><use width="100%" height="100%" xlink:href="#SVGID_00000182492687191035571320000018397476015651737266_" overflow="visible"></use></clipPath><path d="M10.5 18 12.5 18 12.5 24 10.5 24 10.5 18Z" fill="#7823DC" clip-path="url(#SVGID_00000118374853726504985520000007354492263104803226_)"/><path d="M8.5 20 14.5 20 14.5 22 8.5 22 8.5 20Z" fill="#7823DC" clip-path="url(#SVGID_00000118374853726504985520000007354492263104803226_)"/><path d="M22.9 21C22.1 21 21.4 20.3 21.4 19.5 21.4 18.7 22.1 18 22.9 18L22.9 21 22.9 21 22.9 21Z" fill="#7823DC" clip-path="url(#SVGID_00000118374853726504985520000007354492263104803226_)"/><path d="M22.9 21 22.9 18C23.7 18 24.4 18.7 24.4 19.5 24.4 20.4 23.7 21 22.9 21L22.9 21Z" fill="#7823DC" clip-path="url(#SVGID_00000118374853726504985520000007354492263104803226_)"/><path d="M18.9 24C18.1 24 17.4 23.3 17.4 22.5 17.4 21.7 18.1 21 18.9 21L18.9 24 18.9 24 18.9 24Z" fill="#7823DC" clip-path="url(#SVGID_00000118374853726504985520000007354492263104803226_)"/><path d="M18.9 24 18.9 21C19.7 21 20.4 21.7 20.4 22.5 20.4 23.4 19.7 24 18.9 24L18.9 24Z" fill="#7823DC" clip-path="url(#SVGID_00000118374853726504985520000007354492263104803226_)"/><path d="M24.4 16 8.5 16 8.5 4 24.3 4 24.3 16 24.4 16 24.4 16ZM10.5 14 22.4 14 22.4 6 10.5 6 10.5 14 10.5 14 10.5 14Z" fill="#7823DC" clip-path="url(#SVGID_00000118374853726504985520000007354492263104803226_)"/><path d="M19.2 32 4.6 32 4.6 0.1 28.4 0.1 28.4 27.5 23.8 32 19.2 32 19.2 32 19.2 32ZM6.6 30 23 30 26.4 26.6 26.4 2.1 6.6 2.1 6.6 30 6.6 30 6.6 30Z" fill="#7823DC" clip-path="url(#SVGID_00000118374853726504985520000007354492263104803226_)"/></g></g></svg>