<svg viewBox="0 0 32 32" xmlns="http://www.w3.org/2000/svg" xmlns:xlink="http://www.w3.org/1999/xlink" id="Layer_1" overflow="hidden"><g><g><path d="M2.5 11.9 4.4 17.1 5.3 19.6 7.5 18 7.6 17.9 8.5 19.5 8.7 19.9 9.1 20.2 12.1 22.2 12.5 24.6 12.6 25 12.8 25.4 13.8 27 11.1 29.2 9.9 27.6 9.7 27.3 9.4 27.1 3.7 23.6 2.1 12.2 2.5 11.9M3.5 8.7-0.1 11.3 1.9 24.8 8.4 28.8 10.8 32 16.6 27.4 14.6 24.3 13.9 21 10.1 18.5 8.1 15 6.2 16.4 3.5 8.7 3.5 8.7Z" fill="#7823DC"/><path d="M7.2 22.9 5.1 19.4 4.8 18 6.8 17.6 7 18.6 9 21.8Z" fill="#7823DC"/></g><g><path d="M29.3 11.9 29.8 12.2 28.1 23.6 22.4 27.1 22.1 27.3 21.9 27.6 20.8 29.1 18.1 26.9 19.1 25.3 19.3 24.9 19.4 24.5 19.8 22.1 22.8 20.1 23.2 19.8 23.4 19.4 24.3 17.8 24.4 17.9 26.6 19.5 27.5 17 29.3 11.9M28.3 8.7 25.5 16.4 23.6 15 21.6 18.5 17.9 21 17.4 24.3 15.4 27.4 21.2 32 23.6 28.8 30.1 24.8 32.1 11.3 28.3 8.7 28.3 8.7Z" fill="#7823DC"/><path d="M24.6 22.9 22.9 21.8 24.8 18.6 25 17.6 27 18 26.7 19.4Z" fill="#7823DC"/></g></g><path d="M22.6 41.7 22.5 41.7 22.5 41.6Z" fill="#7823DC"/><g><path d="M21.6 18.3 21.6 18.3 21.6 18.2Z" fill="#7823DC"/></g><g><path d="M17.1 17.2 14.9 17.2 14.9 18.3 17.1 18.3 17.1 17.2 17.1 17.2Z" fill="#7823DC"/><path d="M17.5 18.7 14.5 18.7 14.5 16.8 17.5 16.8 17.5 18.7ZM15.2 17.9 16.7 17.9 16.7 17.5 15.2 17.5 15.2 17.9Z" fill="#7823DC"/></g><g><path d="M15.4 8.9 16.6 8.9 16.6 12.5 15.4 12.5Z" fill="#7823DC"/><path d="M17 12.9 15 12.9 15 8.6 17 8.6 17 12.9ZM15.7 12.1 16.2 12.1 16.2 9.3 15.7 9.3 15.7 12.1Z" fill="#7823DC"/></g><g><path d="M17.1 8 14.9 8 13.7 6 18.2 6 17.1 8Z" fill="#7823DC"/></g><g><path d="M18.2 14.8 13.7 14.8 13.7 15.9 18.2 15.9 18.2 14.8 18.2 14.8Z" fill="#7823DC"/><path d="M18.6 16.3 13.4 16.3 13.4 14.4 18.6 14.4 18.6 16.3ZM14.1 15.6 17.8 15.6 17.8 15.2 14.1 15.2 14.1 15.6Z" fill="#7823DC"/></g><g><path d="M15.9 0.4C12.7 0.4 10.2 2.9 10.2 5.9 10.2 7.9 11.3 9.6 12.9 10.6L12.9 9.2C11.9 8.4 11.4 7.2 11.4 5.9 11.4 3.5 13.5 1.5 16 1.5 18.5 1.5 20.6 3.5 20.6 5.9 20.6 7 20.1 8.1 19.5 8.8L20.3 9.6C21.2 8.6 21.8 7.3 21.8 5.8 21.7 2.9 19.1 0.4 15.9 0.4Z" fill="#7823DC"/><path d="M13.3 11.3 12.7 10.9C10.9 9.8 9.8 7.9 9.8 5.9 9.8 2.6 12.5 0 15.9 0 19.3 0 22 2.6 22 5.9 22 7.4 21.4 8.8 20.4 9.9L20.1 10.2 18.8 8.8 19 8.5C19.7 7.7 20.1 6.8 20.1 5.8 20.1 3.6 18.2 1.7 15.9 1.7 13.6 1.7 11.7 3.5 11.7 5.8 11.7 7 12.2 8.1 13.1 8.8L13.2 8.9 13.2 11.3ZM15.9 0.7C13 0.7 10.6 3 10.6 5.9 10.6 7.4 11.3 8.9 12.5 9.9L12.5 9.4C11.5 8.5 11 7.3 11 5.9 11 3.2 13.2 1.1 16 1.1 18.7 1.1 21 3.3 21 5.9 21 6.9 20.6 8 20 8.8L20.3 9.1C21 8.2 21.4 7.1 21.4 5.9 21.3 3.1 18.9 0.7 15.9 0.7Z" fill="#7823DC"/></g><g><path d="M18.2 13.2 17.1 13.1C17.1 13 17.4 10.8 19.3 8.9L20.1 9.7C18.4 11.3 18.2 13.2 18.2 13.2Z" fill="#7823DC"/><path d="M18.6 13.6 16.8 13.4 16.8 13.1C16.8 13.1 17 10.7 19.2 8.6L19.5 8.3 20.8 9.6 20.4 10C18.8 11.5 18.6 13.3 18.6 13.3L18.6 13.6ZM17.5 12.8 17.9 12.8C18 12.2 18.4 10.9 19.6 9.7L19.3 9.4C18.1 10.8 17.7 12.2 17.5 12.8Z" fill="#7823DC"/></g><g><path d="M13.7 13.2 14.8 13.1C14.8 13 14.5 10.8 12.6 8.9L11.8 9.7C13.5 11.3 13.7 13.2 13.7 13.2Z" fill="#7823DC"/><path d="M13.4 13.7 13.4 13.3C13.4 13.2 13.1 11.5 11.6 10L11.3 9.7 12.6 8.4 12.9 8.7C15 10.8 15.3 13.1 15.3 13.2L15.3 13.5 13.4 13.7ZM12.4 9.7C13.5 10.9 13.9 12.2 14.1 12.8L14.5 12.8C14.4 12.2 13.9 10.8 12.7 9.5L12.4 9.7Z" fill="#7823DC"/></g><g><rect x="13.7" y="12.7" width="4.5" height="0.8" fill="#7823DC"/><g><rect x="13.7" y="12.5" width="4.5" height="1.1" fill="#7823DC"/><path d="M18.6 14 13.3 14 13.3 12.1 18.6 12.1 18.6 14ZM14.1 13.3 17.9 13.3 17.9 12.9 14.1 12.9 14.1 13.3Z" fill="#7823DC"/></g></g></svg>