<svg viewBox="0 0 32 32" xmlns="http://www.w3.org/2000/svg" xmlns:xlink="http://www.w3.org/1999/xlink" id="Layer_1" overflow="hidden"><style>
.MsftOfcResponsive_Fill_7823dc {
 fill:#7823DC; 
}
</style>
<g><path d="" class="st0 MsftOfcResponsive_Fill_7823dc" fill="#7823DC"/></g><path d="" class="st1 MsftOfcResponsive_Fill_7823dc" stroke="#FF0000" stroke-width="2" stroke-miterlimit="10" fill="#7823DC"/><path d="M16 9.9C19.4 9.9 22.1 12.6 22.1 16 22.1 19.4 19.4 22.1 16 22.1 12.6 22.1 9.9 19.4 9.9 16 9.9 12.6 12.6 9.9 16 9.9M16 7.9C11.5 7.9 7.9 11.5 7.9 16 7.9 20.5 11.5 24.1 16 24.1 20.5 24.1 24.1 20.5 24.1 16 24.1 11.5 20.5 7.9 16 7.9L16 7.9Z" class="MsftOfcResponsive_Fill_7823dc" fill="#7823DC"/><g><path d="M9 15.6 8.9 13.9 11.3 13.8 13.1 11.4 14.2 11.4 14.4 8.9 16 9 15.7 13 13.9 13.1 12.2 15.5 9 15.6Z" class="st2 MsftOfcResponsive_Fill_7823dc" fill="#7823DC" fill-rule="evenodd" clip-rule="evenodd"/><path d="M8.9 15.8 8.8 13.9 11.3 13.7 13.1 11.3 14.1 11.3 14.3 8.8 16.2 9 15.8 13.2 14 13.2 12.2 15.6 12.1 15.6 8.9 15.8ZM9 14 9.1 15.4 12.1 15.2 13.9 12.8 15.6 12.7 15.9 9 14.5 9 14.3 11.5 13.2 11.5 11.4 13.9 9 14Z" class="MsftOfcResponsive_Fill_7823dc" fill="#7823DC"/></g><g><path d="M13.7 23.1 12.7 21.7 14.7 20.4 15.5 15.3 18.7 15.2 20.7 15.6 22.8 13.8 23.9 15 21.2 17.3 18.5 16.9 16.9 17 16.3 21.4 13.7 23.1Z" class="st2 MsftOfcResponsive_Fill_7823dc" fill="#7823DC" fill-rule="evenodd" clip-rule="evenodd"/><path d="M13.7 23.3 12.5 21.7 14.6 20.3 15.4 15.2 18.7 15.1 20.7 15.4 22.9 13.6 24.2 15.1 21.4 17.5 18.5 17 17 17.1 16.4 21.4 13.7 23.3ZM12.9 21.7 13.8 22.9 16.3 21.2 16.9 16.8 18.6 16.7 21.3 17.1 23.9 14.9 22.8 14 20.7 15.7 18.6 15.4 15.5 15.5 14.7 20.5 14.7 20.5 12.9 21.7Z" class="MsftOfcResponsive_Fill_7823dc" fill="#7823DC"/></g><g><path d="M70.3 32.2C73 31.9 74.8 30.2 74.8 27.6 74.8 24.5 72.8 23.6 70.3 23.1L70.3 18.6C71.3 18.8 72 19.6 72.1 20.6L72.2 21.1 74.4 21.1 74.3 20.4C74 18.3 72.4 16.5 70.2 16.4L70.2 15.1 68.1 15.1 68.1 16.4C66.1 16.7 64 18.1 64 20.7 64 23.3 65.5 24.4 68.1 24.9L68.1 29.9C66.9 29.6 66 28.6 65.9 27.3L65.9 27.3 65.8 26.8 63.6 26.8 63.7 27.5C63.9 29.9 65.7 32 68.2 32.2M68.2 18.7 68.2 22.7C66.7 22.2 66.4 21.7 66.4 20.7 66.4 19.7 67.2 18.8 68.2 18.7L68.2 18.7 68.2 18.7 68.2 18.7ZM70.3 30 70.3 25.4C72 25.8 72.5 26.4 72.5 27.6 72.6 29.3 71.5 29.8 70.3 30L70.3 30 70.3 30 70.3 30Z" class="st3 MsftOfcResponsive_Fill_7823dc" fill="#7823DC" fill-rule="evenodd" clip-rule="evenodd"/><path d="M56.8 9.5 58.6 11.4 58.6 8.6 55.8 5.8 53 8.6 53 11.3 54.8 9.5" class="st3 MsftOfcResponsive_Fill_7823dc" fill="#7823DC" fill-rule="evenodd" clip-rule="evenodd"/><path d="M54.8 9.1 56.8 9.1 56.8 32.2 54.8 32.2 54.8 9.1Z" class="st3 MsftOfcResponsive_Fill_7823dc" fill="#7823DC" fill-rule="evenodd" clip-rule="evenodd"/><path d="M83.6 9.5 85.5 11.4 85.5 8.6 82.6 5.8 79.7 8.6 79.7 11.3 81.6 9.5" class="st3 MsftOfcResponsive_Fill_7823dc" fill="#7823DC" fill-rule="evenodd" clip-rule="evenodd"/><path d="M81.6 9.1 83.6 9.1 83.6 32.2 81.6 32.2 81.6 9.1Z" class="st3 MsftOfcResponsive_Fill_7823dc" fill="#7823DC" fill-rule="evenodd" clip-rule="evenodd"/><path d="M65.8 3.4 67.6 5.3 67.6 2.5 64.8-0.3 62 2.5 62 5.2 63.8 3.4" class="st3 MsftOfcResponsive_Fill_7823dc" fill="#7823DC" fill-rule="evenodd" clip-rule="evenodd"/><path d="M63.8 3.1 65.8 3.1 65.8 13.9 63.8 13.9 63.8 3.1Z" class="st3 MsftOfcResponsive_Fill_7823dc" fill="#7823DC" fill-rule="evenodd" clip-rule="evenodd"/><path d="M74.7 3.4 76.6 5.3 76.6 2.5 73.7-0.3 70.9 2.5 70.9 5.2 72.7 3.4" class="st3 MsftOfcResponsive_Fill_7823dc" fill="#7823DC" fill-rule="evenodd" clip-rule="evenodd"/><path d="M72.7 3.1 74.7 3.1 74.7 13.9 72.7 13.9 72.7 3.1Z" class="st3 MsftOfcResponsive_Fill_7823dc" fill="#7823DC" fill-rule="evenodd" clip-rule="evenodd"/></g><path d="M17 3.7 18.9 5.6 18.9 2.8 16 0 13.1 2.8 13.1 5.5 15 3.7" class="st2 MsftOfcResponsive_Fill_7823dc" fill="#7823DC" fill-rule="evenodd" clip-rule="evenodd"/><path d="M15 3.4 17 3.4 17 8 15 8 15 3.4Z" class="st2 MsftOfcResponsive_Fill_7823dc" fill="#7823DC" fill-rule="evenodd" clip-rule="evenodd"/><path d="M15 28.3 13.1 26.4 13.1 29.2 16 32 18.9 29.2 18.9 26.5 17 28.3" class="st2 MsftOfcResponsive_Fill_7823dc" fill="#7823DC" fill-rule="evenodd" clip-rule="evenodd"/><path d="M17 28.6 15 28.6 15 24 17 24 17 28.6Z" class="st2 MsftOfcResponsive_Fill_7823dc" fill="#7823DC" fill-rule="evenodd" clip-rule="evenodd"/><g><path d="M28.3 17 26.4 18.9 29.2 18.9 32 16 29.2 13.1 26.5 13.1 28.3 15" class="st2 MsftOfcResponsive_Fill_7823dc" fill="#7823DC" fill-rule="evenodd" clip-rule="evenodd"/><path d="M28.6 15 28.6 17 24 17 24 15 28.6 15Z" class="st2 MsftOfcResponsive_Fill_7823dc" fill="#7823DC" fill-rule="evenodd" clip-rule="evenodd"/><path d="M3.7 15 5.6 13.1 2.8 13.1 0 16 2.8 18.9 5.5 18.9 3.7 17" class="st2 MsftOfcResponsive_Fill_7823dc" fill="#7823DC" fill-rule="evenodd" clip-rule="evenodd"/><path d="M3.4 17 3.4 15 8 15 8 17 3.4 17Z" class="st2 MsftOfcResponsive_Fill_7823dc" fill="#7823DC" fill-rule="evenodd" clip-rule="evenodd"/></g><g><path d="M25.5 8 25.4 10.7 27.3 8.7 27.3 4.7 23.3 4.7 21.4 6.5 24 6.5" class="st2 MsftOfcResponsive_Fill_7823dc" fill="#7823DC" fill-rule="evenodd" clip-rule="evenodd"/><path d="M24.2 6.4 25.6 7.8 22.4 11.1 20.9 9.6 24.2 6.4Z" class="st2 MsftOfcResponsive_Fill_7823dc" fill="#7823DC" fill-rule="evenodd" clip-rule="evenodd"/><path d="M6.5 24 6.6 21.3 4.7 23.3 4.7 27.3 8.7 27.3 10.6 25.5 8 25.5" class="st2 MsftOfcResponsive_Fill_7823dc" fill="#7823DC" fill-rule="evenodd" clip-rule="evenodd"/><path d="M7.8 25.6 6.4 24.2 9.6 20.9 11.1 22.4 7.8 25.6Z" class="st2 MsftOfcResponsive_Fill_7823dc" fill="#7823DC" fill-rule="evenodd" clip-rule="evenodd"/></g><g><path d="M6.5 8 6.6 10.7 4.7 8.7 4.7 4.7 8.7 4.7 10.6 6.5 8 6.5" class="st2 MsftOfcResponsive_Fill_7823dc" fill="#7823DC" fill-rule="evenodd" clip-rule="evenodd"/><path d="M7.8 6.4 6.4 7.8 9.6 11.1 11.1 9.6 7.8 6.4Z" class="st2 MsftOfcResponsive_Fill_7823dc" fill="#7823DC" fill-rule="evenodd" clip-rule="evenodd"/><path d="M25.5 24 25.4 21.3 27.3 23.3 27.3 27.3 23.3 27.3 21.4 25.5 24 25.5" class="st2 MsftOfcResponsive_Fill_7823dc" fill="#7823DC" fill-rule="evenodd" clip-rule="evenodd"/><path d="M24.2 25.6 25.6 24.2 22.4 20.9 20.9 22.4 24.2 25.6Z" class="st2 MsftOfcResponsive_Fill_7823dc" fill="#7823DC" fill-rule="evenodd" clip-rule="evenodd"/></g></svg>