<svg viewBox="0 0 32 32" xmlns="http://www.w3.org/2000/svg" xmlns:xlink="http://www.w3.org/1999/xlink" id="Layer_1" overflow="hidden"><style>
.MsftOfcResponsive_Fill_7823dc {
 fill:#7823DC; 
}
</style>
<g><path d="M25 18 25 7.5 25 7.5 25 7.5 21.1 3.7 21.1 3.7 21.1 3.7 11.3 3.7 11.3 0 3.7 0 3.7 3.7 0 3.7 0 9.5 3.7 9.5 3.7 30 0 30 0 32 15.8 32 15.8 30 11.3 30 11.3 9.5 23 9.5 23 18M3.7 7.5 2 7.5 2 5.7 3.8 5.7 3.8 7.5 3.7 7.5ZM5.7 10.8 8.9 14 5.7 17.2 5.7 10.8 5.7 10.8ZM5.7 22.6 8.5 25.4 5.7 28.2 5.7 22.6 5.7 22.6ZM9.3 30 6.7 30 9.3 27.4 9.3 30 9.3 30ZM9.3 23.4 5.8 19.9 9.3 16.4 9.3 23.4 9.3 23.4ZM9.3 11.6 7.3 9.5 9.3 9.5 9.3 11.6 9.3 11.6ZM9.3 7.5 5.7 7.5 5.7 5.7 9.3 5.7 9.3 7.5 9.3 7.5ZM9.3 3.7 5.7 3.7 5.7 2 9.3 2 9.3 3.7 9.3 3.7ZM11.3 7.5 11.3 5.7 20.3 5.7 22.2 7.5 11.3 7.5 11.3 7.5Z" class="MsftOfcResponsive_Fill_7823dc" fill="#7823DC" fill-rule="evenodd" clip-rule="evenodd"/></g><g><path d="M30 20 30 26 18 26 18 20 30 20M32 18 16 18 16 28 32 28 32 18 32 18Z" class="MsftOfcResponsive_Fill_7823dc" fill="#7823DC"/><rect x="17.5" y="22" width="8.9" height="2" class="MsftOfcResponsive_Fill_7823dc" fill="#7823DC" transform="matrix(0.4472 -0.8944 0.8944 0.4472 -8.4105 32.3915)"/><rect x="25" y="18.5" width="2" height="8.9" class="MsftOfcResponsive_Fill_7823dc" fill="#7823DC" transform="matrix(0.8944 -0.4472 0.4472 0.8944 -7.541 14.0557)"/></g></svg>