<svg viewBox="0 0 31.98 31.98" xmlns="http://www.w3.org/2000/svg" xmlns:xlink="http://www.w3.org/1999/xlink" id="Text" overflow="hidden"><style>
.MsftOfcResponsive_Fill_7823dc {
 fill:#7823DC; 
}
</style>
<path d="M5.72 2C6.7102 1.99646 7.66072 2.38892 8.36 3.09L28.9 23.63C30.3636 25.0718 30.3813 27.4271 28.9395 28.8907 28.2332 29.6077 27.2665 30.008 26.26 30 25.2741 30.0069 24.3266 29.6178 23.63 28.92L3.09 8.36C1.63747 6.89923 1.64416 4.53753 3.10494 3.085 3.80015 2.39371 4.73959 2.00393 5.72 2M5.72 0C4.21943 0.0114165 2.78322 0.611035 1.72 1.67L1.72 1.67C-0.509911 3.90958-0.509911 7.53042 1.72 9.77L22.21 30.31C24.4518 32.5344 28.0682 32.5344 30.31 30.31L30.31 30.31C32.5399 28.0704 32.5399 24.4496 30.31 22.21L9.77 1.67C8.69511 0.597941 7.23812-0.0028387 5.72-4.29153e-08Z" class="MsftOfcResponsive_Fill_7823dc" fill="#7823DC"/><path d="M26.26 2C28.32 2.00276 29.9878 3.67497 29.985 5.73499 29.9837 6.71884 29.5937 7.66233 28.9 8.36L8.36 28.9C6.84122 30.2918 4.48176 30.1888 3.09 28.67 1.78333 27.2441 1.78333 25.0559 3.09 23.63L23.63 3.09C24.3256 2.38949 25.2728 1.99691 26.26 2M26.26 0C24.7421-0.00174028 23.2855 0.598873 22.21 1.67L1.67 22.21C-0.559911 24.4496-0.559911 28.0704 1.67 30.31L1.67 30.31C3.91184 32.5344 7.52816 32.5344 9.77 30.31L30.31 9.77C32.5399 7.53042 32.5399 3.90958 30.31 1.67L30.31 1.67C29.2474 0.610126 27.8108 0.0103459 26.31-4.29153e-08Z" class="MsftOfcResponsive_Fill_7823dc" fill="#7823DC"/><path d="M16 18C15.4477 18 15 18.4477 15 19 15 19.5523 15.4477 20 16 20 16.5523 20 17 19.5523 17 19 17 18.4477 16.5523 18 16 18Z" class="MsftOfcResponsive_Fill_7823dc" fill="#7823DC"/><path d="M16 12C15.4477 12 15 12.4477 15 13 15 13.5523 15.4477 14 16 14 16.5523 14 17 13.5523 17 13 17 12.4477 16.5523 12 16 12Z" class="MsftOfcResponsive_Fill_7823dc" fill="#7823DC"/><path d="M13 15C12.4477 15 12 15.4477 12 16 12 16.5523 12.4477 17 13 17 13.5523 17 14 16.5523 14 16 14 15.4477 13.5523 15 13 15Z" class="MsftOfcResponsive_Fill_7823dc" fill="#7823DC"/><path d="M19 15C18.4477 15 18 15.4477 18 16 18 16.5523 18.4477 17 19 17 19.5523 17 20 16.5523 20 16 20 15.4477 19.5523 15 19 15Z" class="MsftOfcResponsive_Fill_7823dc" fill="#7823DC"/><path d="M16 15C15.4477 15 15 15.4477 15 16 15 16.5523 15.4477 17 16 17 16.5523 17 17 16.5523 17 16 17 15.4477 16.5523 15 16 15Z" class="MsftOfcResponsive_Fill_7823dc" fill="#7823DC"/></svg>