<svg viewBox="0 0 32 32" xmlns="http://www.w3.org/2000/svg" xmlns:xlink="http://www.w3.org/1999/xlink" id="Layer_1" overflow="hidden"><style>
.MsftOfcResponsive_Fill_7823dc {
 fill:#7823DC; 
}
</style>
<g><path d="M1.5 14.3 3.6 14.3 3.6 32 1.5 32 1.5 14.3Z" class="st0 MsftOfcResponsive_Fill_7823dc" fill="#7823DC"/><path d="M28.5 14.3 30.5 14.3 30.5 32 28.5 32 28.5 14.3Z" class="st0 MsftOfcResponsive_Fill_7823dc" fill="#7823DC"/><path d="M30.5 17 16 2.9 1.5 17 0 15.5 16 0.1 32 15.5 30.5 17 30.5 17Z" class="st0 MsftOfcResponsive_Fill_7823dc" fill="#7823DC"/><path d="M1.5 30 30.5 30 30.5 32 1.5 32 1.5 30Z" class="st0 MsftOfcResponsive_Fill_7823dc" fill="#7823DC"/></g><g><g><path d="M20 11.7C18.8 11.7 17.7 11.9 16.7 12.2 16 12.4 15.3 12.7 14.7 12.9 12 14.1 9.9 16.3 8.6 18.9 8.3 19.5 8.1 20.3 7.9 20.9 7.6 22 7.4 23.1 7.4 24.2L7.4 28.9 12 28.9C19 28.9 24.6 23.3 24.6 16.3L24.6 11.7 20 11.7ZM19.2 24.3C18.7 24.8 18 25.3 17.3 25.7 15.8 26.6 14 27.1 12 27.1L9.2 27.1 9.2 24.3C9.2 22.9 9.5 21.6 9.9 20.4 10.1 19.9 10.4 19.4 10.5 19 10.9 18.4 11.3 17.7 11.9 17.1L11.9 17.1 11.9 17.1C12.2 16.8 12.4 16.6 12.7 16.3 13.1 15.9 13.5 15.7 13.9 15.4 14.4 15 15 14.8 15.5 14.5 15.7 14.4 15.9 14.3 16 14.3 17.2 13.8 18.5 13.6 19.9 13.6L22.8 13.6 22.8 16.4C22.8 17.8 22.5 19.3 22 20.6 21.7 21.1 21.5 21.7 21.1 22.2 20.5 22.9 19.9 23.6 19.2 24.3Z" class="st0 MsftOfcResponsive_Fill_7823dc" fill="#7823DC"/><path d="M12 29 7.3 29 7.3 24.3C7.3 23.2 7.4 22.2 7.8 20.9 8 20.3 8.2 19.6 8.5 18.9 9.8 16.2 12 14.1 14.6 12.8 15.2 12.5 15.9 12.3 16.6 12.1 17.8 11.8 18.9 11.6 20 11.6L24.7 11.6 24.7 16.3C24.7 23.3 19 29 12 29ZM7.6 28.7 12.1 28.7C19 28.7 24.6 23.1 24.6 16.2L24.6 11.8 20.1 11.8C19.1 11.8 18 11.9 16.8 12.2 16.1 12.4 15.4 12.7 14.8 12.9 12.2 14.2 10.1 16.3 8.8 18.9 8.5 19.6 8.2 20.3 8.1 20.9 7.7 22.2 7.6 23.2 7.6 24.3L7.6 28.7ZM12 27.2 9.1 27.2 9.1 24.3C9.1 23 9.4 21.6 9.8 20.4 10 19.9 10.3 19.4 10.4 19 10.8 18.4 11.2 17.7 11.8 17.1L12.6 16.3C12.9 16 13.2 15.8 13.5 15.6 13.6 15.5 13.7 15.4 13.8 15.4 14.4 15 14.9 14.8 15.4 14.5 15.6 14.4 15.8 14.3 15.9 14.3 17.1 13.8 18.5 13.6 19.8 13.6L22.8 13.6 22.8 16.5C22.8 18 22.5 19.5 22 20.7 21.7 21.2 21.5 21.8 21.1 22.3 20.6 23 19.9 23.8 19.2 24.5L19.2 24.5C18.7 25 18 25.5 17.3 25.9 15.8 26.7 14 27.2 12 27.2ZM9.4 26.9 12 26.9C14 26.9 15.8 26.4 17.3 25.6 18 25.2 18.6 24.8 19.2 24.3 19.9 23.6 20.6 22.9 21.1 22.1 21.5 21.6 21.7 21 22 20.5 22.5 19.3 22.8 17.9 22.8 16.4L22.8 13.7 20 13.7C18.7 13.7 17.4 13.9 16.2 14.4L16.2 14.4C16.1 14.4 15.9 14.5 15.8 14.6 15.1 14.9 14.6 15.1 14 15.5 13.9 15.6 13.8 15.7 13.7 15.7 13.4 15.9 13.1 16.1 12.9 16.4L12.1 17.2C11.6 17.8 11.1 18.4 10.8 19.1 10.6 19.5 10.4 20 10.2 20.4 9.7 21.6 9.5 22.9 9.5 24.2L9.4 26.9 9.4 26.9Z" class="MsftOfcResponsive_Fill_7823dc" fill="#7823DC"/></g><g><rect x="6.2" y="18.9" width="20.5" height="1.8" class="st0 MsftOfcResponsive_Fill_7823dc" fill="#7823DC" transform="matrix(0.7071 -0.7071 0.7071 0.7071 -9.2065 17.4508)"/><path d="M9.9 27.9 8.4 26.4 8.5 26.3 23.1 11.8 24.6 13.3 24.5 13.4 9.9 27.9ZM8.8 26.4 9.9 27.5 24.2 13.2 23.1 12.1 8.8 26.4Z" class="MsftOfcResponsive_Fill_7823dc" fill="#7823DC"/></g><g><path d="M13.8 23.2 12 23.7 11.9 23.2 11 20 10.6 19 10.4 18.2 10.1 17.4 12 16.8 12 17.1 12 17.1 12.5 19 13.3 21.7 13.6 22.7Z" class="st0 MsftOfcResponsive_Fill_7823dc" fill="#7823DC"/><path d="M11.9 23.9 11.8 23.2 10.9 20 10.5 19 10.3 18.2 10 17.3 12.1 16.7 12.1 17.1 12.6 19 13.4 21.7 13.7 22.7 13.9 23.3 11.9 23.9ZM10.3 17.5 10.5 18.2 10.7 19 11.1 20 12 23.2 12.1 23.6 13.6 23.1 13.5 22.8 13.2 21.8 12.4 19.1 11.9 17.2 11.9 17.1 10.3 17.5Z" class="MsftOfcResponsive_Fill_7823dc" fill="#7823DC"/></g><g><path d="M17.4 19.5 15.6 20.1 15.4 19.5 14.6 17 14 15.3 13.9 14.8 13.8 14.7 13.9 14.7 15.6 14.1 15.8 14.9 16.8 18.1 17.2 19.1Z" class="st0 MsftOfcResponsive_Fill_7823dc" fill="#7823DC"/><path d="M15.5 20.2 15.3 19.5 13.9 15.2 13.7 14.9 13.6 14.5 14 14.5 15.7 13.9 16 14.9 17 18.1 17.6 19.7 15.5 20.2ZM14 14.8 14 14.8 14.2 15.3 15.7 20 17.3 19.5 17.2 19.2 16.8 18.2 15.6 14.3 14 14.8Z" class="MsftOfcResponsive_Fill_7823dc" fill="#7823DC"/></g><g><rect x="15.2" y="21.1" width="1.8" height="6.6" class="st0 MsftOfcResponsive_Fill_7823dc" fill="#7823DC" transform="matrix(0.2747 -0.9615 0.9615 0.2747 -11.7109 33.1752)"/><path d="M19.1 26.3 12.5 24.4 13.1 22.4 19.7 24.3 19.1 26.3ZM12.8 24.2 18.9 25.9 19.3 24.4 13.2 22.7 12.8 24.2Z" class="MsftOfcResponsive_Fill_7823dc" fill="#7823DC"/></g><g><rect x="18.8" y="17.4" width="1.8" height="6.6" class="st0 MsftOfcResponsive_Fill_7823dc" fill="#7823DC" transform="matrix(0.2747 -0.9615 0.9615 0.2747 -5.6618 33.9495)"/><path d="M22.7 22.7 16.1 20.8 16.7 18.8 23.3 20.7 22.7 22.7ZM16.4 20.6 22.5 22.3 22.9 20.8 16.8 19.1 16.4 20.6Z" class="MsftOfcResponsive_Fill_7823dc" fill="#7823DC"/></g></g></svg>