<svg viewBox="0 0 32 32" xmlns="http://www.w3.org/2000/svg" xmlns:xlink="http://www.w3.org/1999/xlink" id="Graphic" overflow="hidden"><defs></defs><path d="M16.15 2C17.2529 2.06127 18.0973 3.00498 18.036 4.10785 18.0011 4.73575 17.6729 5.31068 17.15 5.66L17.15 28.2C21.3725 27.6909 24.7271 24.4101 25.33 20.2L24.33 21.2 23.08 20 26.08 17 29.08 20 27.86 21.22 27 20.33C26.1387 26.4051 20.5156 30.6318 14.4405 29.7705 9.54294 29.0761 5.69435 25.2275 5 20.33L4.07 21.26 2.85 20 5.85 17 8.85 20 7.7 21.22 6.7 20.22C7.33421 24.5089 10.8138 27.811 15.13 28.22L15.13 5.66C14.2115 5.04645 13.9643 3.80448 14.5779 2.88599 14.9272 2.36306 15.5021 2.03488 16.13 2M16.13 0C13.9212 0.0402867 12.1633 1.86351 12.2036 4.07228 12.2202 4.9828 12.547 5.86039 13.13 6.56L13.13 25.71C11.5318 25.0423 10.2212 23.8309 9.43 22.29L10.3 21.42 11.75 20 10.33 18.59 7.33 15.59 5.89 14.14 4.47 15.56 1.47 18.56 0 20 1.41 21.42 2.63 22.63 3.9 23.88C6.65524 30.5757 14.3168 33.7701 21.0125 31.0149 24.2751 29.6723 26.859 27.0714 28.18 23.8L29.34 22.63 30.56 21.42 32 20 30.59 18.59 27.59 15.59 26.17 14.17 24.7 15.56 21.7 18.56 20.25 20 21.67 21.42 22.57 22.32C21.8169 23.7512 20.6156 24.8962 19.15 25.58L19.15 6.58C20.5642 4.88286 20.3349 2.36061 18.6377 0.946389 17.9381 0.36341 17.0605 0.0366072 16.15 0.0199999Z" fill="#7823DC"/></svg>