<svg viewBox="0 0 32 32" xmlns="http://www.w3.org/2000/svg" xmlns:xlink="http://www.w3.org/1999/xlink" id="Layer_1" overflow="hidden"><style>
.MsftOfcResponsive_Fill_7823dc {
 fill:#7823DC; 
}
</style>
<rect x="15" y="0" width="2" height="5.7" class="MsftOfcResponsive_Fill_7823dc" fill="#7823DC"/><g><path d="M17 29 17 30 15 30 15 29 17 29M19 27 13 27 13 32 19 32 19 27 19 27Z" class="MsftOfcResponsive_Fill_7823dc" fill="#7823DC"/></g><g><path d="M20 24 20 27 12 27 12 24 20 24M22 22 10 22 10 29 22 29 22 22 22 22Z" class="MsftOfcResponsive_Fill_7823dc" fill="#7823DC"/></g><g><path d="M14.5 10C14.8 10 15 10.2 15 10.5L15 22 14 22 14 10.5C14 10.2 14.2 10 14.5 10M14.5 8C13.1 8 12 9.1 12 10.5L12 24 17 24 17 10.5C17 9.1 15.9 8 14.5 8L14.5 8Z" class="MsftOfcResponsive_Fill_7823dc" fill="#7823DC"/></g><g><path d="M17.5 10C17.8 10 18 10.2 18 10.5L18 22 17 22 17 10.5C17 10.2 17.2 10 17.5 10M17.5 8C16.1 8 15 9.1 15 10.5L15 24 20 24 20 10.5C20 9.1 18.9 8 17.5 8L17.5 8Z" class="MsftOfcResponsive_Fill_7823dc" fill="#7823DC"/></g><rect x="18.9" y="3.7" width="5.7" height="2" class="MsftOfcResponsive_Fill_7823dc" fill="#7823DC" transform="matrix(0.7071 -0.7071 0.7071 0.7071 3.0231 16.7432)"/><rect x="9.3" y="1.9" width="2" height="5.7" class="MsftOfcResponsive_Fill_7823dc" fill="#7823DC" transform="matrix(0.7071 -0.7071 0.7071 0.7071 -0.329 8.6505)"/></svg>