<svg viewBox="0 0 32 32" xmlns="http://www.w3.org/2000/svg" xmlns:xlink="http://www.w3.org/1999/xlink" id="Graphic" xml:space="preserve" overflow="hidden"><path d="M29.2 18 20.6 20.8 20.6 19.6 20.6 17.3 18.4 17.6 15.3 18 10.4 16 9.5 15.7 8.7 16.2 5.5 18 2.3 18 0.3 18 0.3 20 0.3 26 0.3 28 2.3 28 5.5 28 15.3 32 30.8 23.7 31.8 23.2 31.8 22 31.8 20 31.8 17.2 29.2 18 29.2 18 29.2 18 29.2 18 29.2 18ZM29.8 22 15 29.8 5.9 26 2.3 26 2.3 20 6 20 9.7 18 15.1 20 18.8 19.5 18.8 21.5 17.8 22 14.1 22.8 14.1 24.5 18 23.8 18 23.8 29.8 20 29.8 22 29.8 22 29.8 22 29.8 22 29.8 22Z" fill="#7823DC" fill-rule="evenodd" clip-rule="evenodd"/><g><path d="M20.2 5.6C20.7 5.6 21 6 21 6.4L21 8.6 11 8.6 11 6.4C11 5.9 11.4 5.6 11.8 5.6L20.2 5.6M20.2 3.6 11.8 3.6C10.2 3.6 9 4.9 9 6.4L9 10.6 23 10.6 23 6.4C23 4.8 21.7 3.6 20.2 3.6L20.2 3.6Z" fill="#7823DC"/><path d="M19 6.1C18.4 6.1 18 6.5 18 7.1 18 7.7 18.4 8.1 19 8.1 19.6 8.1 20 7.7 20 7.1 20 6.5 19.6 6.1 19 6.1L19 6.1Z" fill="#7823DC"/><path d="M13 6.1C12.4 6.1 12 6.5 12 7.1 12 7.7 12.4 8.1 13 8.1 13.6 8.1 14 7.7 14 7.1 14 6.5 13.6 6.1 13 6.1L13 6.1Z" fill="#7823DC"/><path d="M20 5.2 19.2 2 12.8 2 12 5.2 10 4.7 11.2 0 20.8 0 22 4.7Z" fill="#7823DC"/><rect x="11" y="9.2" width="2" height="3" fill="#7823DC" fill-rule="evenodd" clip-rule="evenodd"/><rect x="19" y="9.2" width="2" height="3" fill="#7823DC" fill-rule="evenodd" clip-rule="evenodd"/></g></svg>