<svg width="32" height="32.03" viewBox="0 0 32 32.03" xmlns="http://www.w3.org/2000/svg" xmlns:xlink="http://www.w3.org/1999/xlink" overflow="hidden"><style>
.MsftOfcResponsive_Fill_7823dc {
 fill:#7823DC; 
}
</style>
<defs></defs><g><path d="M29.96 27.98 2 27.98 2 30.01 29.96 30.01 29.96 27.98Z" class="MsftOfcResponsive_Fill_7823dc" fill="#7823DC"/></g><g><path d="M29.96 12 2 12 2 14.02 29.96 14.02 29.96 12Z" class="MsftOfcResponsive_Fill_7823dc" fill="#7823DC"/></g><g><g><path d="M6.04 12.92 4.02 12.92 4.02 27.98 6.04 27.98 6.04 12.92Z" class="MsftOfcResponsive_Fill_7823dc" fill="#7823DC"/></g><g><path d="M10.02 12.92 8 12.92 8 27.98 10.02 27.98 10.02 12.92Z" class="MsftOfcResponsive_Fill_7823dc" fill="#7823DC"/></g></g><g><g><path d="M15.02 12.92 13 12.92 13 27.98 15.02 27.98 15.02 12.92Z" class="MsftOfcResponsive_Fill_7823dc" fill="#7823DC"/></g><g><path d="M19.02 12.92 17 12.92 17 27.98 19.02 27.98 19.02 12.92Z" class="MsftOfcResponsive_Fill_7823dc" fill="#7823DC"/></g></g><g><g><path d="M24.02 12.92 22 12.92 22 27.98 24.02 27.98 24.02 12.92Z" class="MsftOfcResponsive_Fill_7823dc" fill="#7823DC"/></g><g><path d="M28 12.92 25.98 12.92 25.98 27.98 28 27.98 28 12.92Z" class="MsftOfcResponsive_Fill_7823dc" fill="#7823DC"/></g></g><g><path d="M31.96 30.01 0 30.01 0 32.03 31.96 32.03 31.96 30.01Z" class="MsftOfcResponsive_Fill_7823dc" fill="#7823DC"/></g><g><g><path d="M32 9.98 32 7.75 16 0 0 7.75 0 9.98 16 2.22Z" class="MsftOfcResponsive_Fill_7823dc" fill="#7823DC"/></g><g><rect x="0" y="10" width="32" height="2" class="MsftOfcResponsive_Fill_7823dc" fill="#7823DC"/></g></g></svg>