<svg viewBox="0 0 32 32" xmlns="http://www.w3.org/2000/svg" xmlns:xlink="http://www.w3.org/1999/xlink" id="Layer_2_1_" xml:space="preserve" overflow="hidden"><g><path d="M16.7 21.9 16.7 22C16.6 22.6 16.2 22.7 15.9 22.7 15.1 22.7 14.9 21.9 14.9 21.4L14.9 21.3C14.9 20.5 15.2 20 15.8 20 16.2 20 16.5 20.2 16.5 20.7L16.5 20.8 18.3 20.8 18.3 20.7C18.2 19.4 17.3 18.5 15.7 18.5 14.1 18.5 12.9 19.6 12.9 21.3L12.9 21.4C12.9 23.2 13.9 24.2 15.8 24.2 17.3 24.2 18.3 23.4 18.4 22L18.4 21.9 16.7 21.9 16.7 21.9 16.7 21.9Z" fill="#7823DC" fill-rule="evenodd" clip-rule="evenodd"/><path d="M21.5 18.4C19.9 18.4 18.6 19.5 18.6 21.2L18.6 21.3C18.6 23 19.7 24.1 21.5 24.1 23.2 24.1 24.4 23 24.4 21.2L24.4 21.1C24.4 19.6 23.2 18.4 21.5 18.4L21.5 18.4ZM20.4 21.3C20.4 20.5 20.8 20 21.4 20 22.1 20 22.4 20.5 22.4 21.3L22.4 21.4C22.4 22.2 22 22.7 21.4 22.7 20.8 22.7 20.4 22.2 20.4 21.3L20.4 21.3 20.4 21.3 20.4 21.3Z" fill="#7823DC" fill-rule="evenodd" clip-rule="evenodd"/><path d="M26.4 23.1 26.4 23.1C26.8 22.8 27 22.5 27 22 27 21.5 26.7 21 25.8 21 25 21 24.4 21.4 24.4 22.2L24.4 22.3 25.5 22.3 25.5 22.2C25.5 21.9 25.6 21.9 25.7 21.9 25.8 21.9 25.8 21.9 25.8 22 25.8 22.2 25.6 22.3 25.4 22.6L24.5 23.6 24.5 23.9 27.2 23.9 27.2 23 26.4 23 26.4 23.1 26.4 23.1Z" fill="#7823DC" fill-rule="evenodd" clip-rule="evenodd"/><path d="M26.5 14.5C26.5 14.4 26.5 14.4 26.5 14.3 26.5 8.6 21.9 4 16.3 4L16.3 4C11.7 4 7.7 7.1 6.5 11.5 2 12.5-0.8 17 0.3 21.5 1 25.2 4.3 27.9 8.1 28L25.2 28C29 28 32 24.9 32 21.1 32 17.8 29.6 15.1 26.5 14.5L26.5 14.5ZM2 19.4C2.1 16.5 4.1 14 6.9 13.4L8 13 8.3 11.9C9.3 8.3 12.5 6 16.2 6 17.9 6 19.6 6.5 20.9 7.4L3.9 24.2C2.7 23 2 21.3 2 19.4L2 19.4ZM30 22C29.6 24.3 27.5 25.9 25.3 25.9L8.2 25.9C7.3 25.9 6.5 25.7 5.6 25.3L22.5 8.8C23.7 10.2 24.5 12.1 24.5 14.1 24.5 14.2 24.5 14.2 24.5 14.3L24.5 16 26.1 16.3C28.7 16.9 30.5 19.4 30 22L30 22Z" fill="#7823DC" fill-rule="evenodd" clip-rule="evenodd"/></g></svg>