<svg width="31.99" height="31.99" viewBox="0 0 31.99 31.99" xmlns="http://www.w3.org/2000/svg" xmlns:xlink="http://www.w3.org/1999/xlink" overflow="hidden"><defs></defs><g><path d="M25.73 2.03 29.96 6.26 9.68 26.54 5.45 22.31 25.73 2.03M25.73 0C25.24 0 24.74 0.19 24.37 0.56L2.62 22.31 9.68 29.37 31.43 7.62C32.18 6.87 32.18 5.65 31.43 4.89L27.1 0.56C26.72 0.19 26.23 0 25.73 0L25.73 0Z" fill="#7823DC"/></g><g><rect x="24.79" y="1.96" width="2" height="8.49" fill="#7823DC" transform="matrix(0.7071 -0.7071 0.7071 0.7071 3.1688 20.0526)"/></g><g><rect x="2.08" y="15.02" width="27.78" height="2" fill="#7823DC" transform="matrix(0.7071 -0.7071 0.7071 0.7071 -6.6519 15.9849)"/></g><g><g><path d="M0 31.99 2.62 22.31 4.51 22.89 2.83 29.16 9.1 27.48 9.68 29.37Z" fill="#7823DC"/></g></g></svg>