<svg viewBox="0 0 32.02 32.02" xmlns="http://www.w3.org/2000/svg" xmlns:xlink="http://www.w3.org/1999/xlink" id="Outline_Final_icon" overflow="hidden"><defs></defs><path d="M32.02 18.55C32.02 13.74 28.12 9.83 23.3 9.83 21.18 9.83 19.24 10.59 17.73 11.85L14.35 7.17 12.39 14.34 10.41 11.62 8.43 15 6.73 15 6.73 17 9.58 17 10.6 15.26 13.23 18.87 15.18 11.72 16.34 13.32C15.25 14.78 14.59 16.58 14.59 18.54 14.59 23.02 17.96 26.7 22.31 27.2L22.31 32.02 24.31 32.02 24.31 27.2C28.65 26.7 32.03 23.02 32.03 18.54ZM23.3 11.83C27 11.83 30.02 14.84 30.02 18.55 30.02 18.92 29.98 19.28 29.92 19.64L25.47 13.71 22.88 19.04 19.72 14.62 18.91 15.2 19.72 14.61 18.9 13.48C20.08 12.46 21.61 11.83 23.3 11.83ZM23.3 25.26C19.6 25.26 16.58 22.25 16.58 18.54 16.58 17.26 16.95 16.06 17.57 15.04L18.09 15.77 18.09 15.77C18.09 15.77 23.2 22.92 23.2 22.92L25.83 17.52 29.11 21.89C27.95 23.9 25.78 25.26 23.29 25.26Z" fill="#7823DC"/><path d="M27.89 4.03 27.89 0 3.68 0 0 3.68 0 20.91 4.02 20.91 4.02 24.07 13.95 24.07 13.95 22.07 6.02 22.07 6.02 6.03 28.06 6.03 28.06 9.83 30.06 9.83 30.06 4.03 27.9 4.03ZM25.89 4.03 4.02 4.03 4.02 18.9 2 18.9 2 2 25.89 2 25.89 4.03Z" fill="#7823DC"/></svg>