<svg viewBox="0 0 32 32" xmlns="http://www.w3.org/2000/svg" xmlns:xlink="http://www.w3.org/1999/xlink" xml:space="preserve" overflow="hidden"><style>
.MsftOfcResponsive_Fill_7823dc {
 fill:#7823DC; 
}
</style>
<g id="Layer_3"></g><g id="Layer_1"></g><g id="Layer_2"></g><g id="Layer_4"></g><g id="Layer_5"><path d="M15.64 14.68C9.32 14.68 2.93 12.93 2.93 9.57 2.93 6.22 9.32 4.46 15.64 4.46 21.96 4.46 28.35 6.21 28.35 9.57 28.35 12.92 21.96 14.68 15.64 14.68ZM15.64 6.46C9.2 6.46 4.93 8.33 4.93 9.57 4.93 10.81 9.2 12.68 15.64 12.68 22.08 12.68 26.35 10.81 26.35 9.57 26.35 8.33 22.08 6.46 15.64 6.46Z" class="st0 MsftOfcResponsive_Fill_7823dc" fill="#7823DC"/><path d="M15.64 19.22C9.32 19.22 2.93 17.47 2.93 14.11 2.93 10.76 9.33 9 15.64 9 21.96 9 28.35 10.75 28.35 14.11 28.35 17.47 21.96 19.22 15.64 19.22ZM15.64 11C9.2 11 4.93 12.88 4.93 14.11 4.93 15.35 9.2 17.22 15.64 17.22 22.08 17.22 26.35 15.35 26.35 14.11 26.35 12.88 22.08 11 15.64 11Z" class="st0 MsftOfcResponsive_Fill_7823dc" fill="#7823DC"/><path d="M15.64 23.97C9.32 23.97 2.93 22.22 2.93 18.86 2.93 15.51 9.32 13.75 15.64 13.75 21.96 13.75 28.35 15.5 28.35 18.86 28.35 22.21 21.96 23.97 15.64 23.97ZM15.64 15.75C9.2 15.75 4.93 17.62 4.93 18.86 4.93 20.1 9.2 21.97 15.64 21.97 22.08 21.97 26.35 20.1 26.35 18.86 26.35 17.62 22.08 15.75 15.64 15.75Z" class="st0 MsftOfcResponsive_Fill_7823dc" fill="#7823DC"/><path d="M15.78 28.48C9.46 28.48 3.07 26.73 3.07 23.37 3.07 20.02 9.46 18.26 15.78 18.26 22.1 18.26 28.49 20.01 28.49 23.37 28.49 26.73 22.09 28.48 15.78 28.48ZM15.78 20.26C9.34 20.26 5.07 22.13 5.07 23.37 5.07 24.61 9.34 26.48 15.78 26.48 22.22 26.48 26.49 24.61 26.49 23.37 26.49 22.13 22.21 20.26 15.78 20.26Z" class="st0 MsftOfcResponsive_Fill_7823dc" fill="#7823DC"/><path d="M4.67 24.52C6.94 22.84 11.42 21.97 15.86 21.97L15.86 23.97C11.47 23.97 8.09 24.84 6.38 25.78" class="st0 MsftOfcResponsive_Fill_7823dc" fill="#7823DC"/><path d="M28.24 10.03 26.47 9.11C26.5 9.04 27.28 7.46 26.35 5.92 25.42 4.38 22.61 2.52 14.5 2.4L14.53 0.4C21.81 0.51 26.37 2.03 28.08 4.92 29.57 7.43 28.29 9.93 28.24 10.03Z" class="st0 MsftOfcResponsive_Fill_7823dc" fill="#7823DC"/><path d="M28.24 31.6 26.47 30.68C26.5 30.61 27.28 29.03 26.35 27.49 25.42 25.95 22.61 24.09 14.5 23.97L14.53 21.97C21.81 22.08 26.37 23.6 28.08 26.49 29.57 29 28.29 31.5 28.24 31.6Z" class="st0 MsftOfcResponsive_Fill_7823dc" fill="#7823DC"/></g></svg>