<svg width="365.99" height="365.99" viewBox="0 0 365.99 365.99" xmlns="http://www.w3.org/2000/svg" xmlns:xlink="http://www.w3.org/1999/xlink" overflow="visible"><style>
.MsftOfcResponsive_Fill_7823dc {
 fill:#7823DC; 
}
</style>
<defs></defs><g><path d="M228.69 0 228.69 22.85 343.14 22.85 343.14 279.6 302.52 279.6 302.52 233.79C313.96 231.61 322.69 221.49 322.69 209.44L322.69 159.23C322.69 151.66 319.25 144.85 313.85 140.29 320.04 134.33 323.91 125.97 323.91 116.7 323.91 98.62 309.25 83.97 291.18 83.97 273.11 83.97 258.45 98.63 258.45 116.7 258.45 125.89 262.24 134.18 268.33 140.13 262.82 144.69 259.3 151.57 259.3 159.23L259.3 209.44C259.3 221.57 268.13 231.73 279.68 233.83L279.68 279.6 228.7 279.6 228.7 285.92 228.7 302.45 228.7 343.14 228.7 365.99 251.55 365.99 343.15 365.99 366 365.99 366 343.14 366 302.45 366 279.6 366 22.85 366 17.58 366 0 228.69 0ZM291.17 106.81C296.63 106.81 301.05 111.23 301.05 116.69 301.05 122.15 296.63 126.57 291.17 126.57 285.71 126.57 281.29 122.15 281.29 116.69 281.29 111.24 285.71 106.81 291.17 106.81ZM300.2 157.9 300.2 209.82C300.2 213.93 296.84 217.29 292.73 217.29L289.61 217.29C285.5 217.29 282.14 213.93 282.14 209.82L282.14 157.9C282.14 153.79 285.5 150.43 289.61 150.43L292.73 150.43C296.84 150.43 300.2 153.79 300.2 157.9ZM343.14 343.14 251.54 343.14 251.54 302.45 343.14 302.45 343.14 343.14Z" class="st0 MsftOfcResponsive_Fill_7823dc" fill="#7823DC"/><path d="M171.55 145.87 171.55 129.49 171.55 68.6 171.55 54.47 171.55 45.75 44.41 45.75 44.41 54.47 44.41 68.6 44.41 129.49 44.41 145.87 44.41 152.34 171.55 152.34 171.55 145.87ZM148.7 129.49 67.26 129.49 67.26 68.6 148.7 68.6 148.7 129.49Z" class="st0 MsftOfcResponsive_Fill_7823dc" fill="#7823DC"/><rect x="44.41" y="171.53" width="22.85" height="22.85" class="st0 MsftOfcResponsive_Fill_7823dc" fill="#7823DC"/><rect x="148.69" y="171.53" width="22.85" height="22.85" class="st0 MsftOfcResponsive_Fill_7823dc" fill="#7823DC"/><path d="M193.11 190.38 193.11 213.23 170.26 213.23 45.7 213.23 22.85 213.23 22.85 190.38 22.85 22.89 0 45.74 0 213.23C0 225.85 10.23 236.08 22.85 236.08L34.66 236.08 7.74 365.99 31.08 365.99 38.19 331.66 174.95 331.66 182.06 365.99 205.4 365.99 178.48 236.08 193.11 236.08C205.73 236.08 215.96 225.85 215.96 213.23L215.96 45.74 193.11 22.9 193.11 190.38ZM58 236.08 155.15 236.08 159.89 258.98 53.25 258.98 58 236.08ZM42.93 308.81 48.52 281.83 164.63 281.83 170.22 308.81 42.93 308.81Z" class="st0 MsftOfcResponsive_Fill_7823dc" fill="#7823DC"/><path d="M170.21 0 45.75 0 22.89 22.85 193.06 22.85Z" class="st0 MsftOfcResponsive_Fill_7823dc" fill="#7823DC"/></g></svg>