<svg viewBox="0 0 32 32" xmlns="http://www.w3.org/2000/svg" xmlns:xlink="http://www.w3.org/1999/xlink" id="Layer_1" xml:space="preserve" overflow="hidden"><style>
.MsftOfcResponsive_Fill_7823dc {
 fill:#7823DC; 
}
</style>
<g><path d="M28.2 16.7 28.2 16.7 28.2 16.7C28 16.6 28 16.5 27.9 16.4L23.9 13.4 23.9 7.5 28.6 7.5 28.6 0 6.6 0 2.5 3.9 2.5 3.9 2.5 7.5 7.2 7.5 7.2 20.6 7.2 20.6C7.2 20.6 7.2 20.6 7.2 20.7 7.2 22.3 8.4 23.7 10 24.1 9.3 25.3 8.9 26.7 8.9 28.3 8.9 29.6 9.2 30.8 9.7 31.9L12.1 31.9C11.4 31 11 29.7 11 28.2 11 26.3 11.7 24.7 12.7 23.9L12.7 21.7 12.7 21.7 12.7 17.4 12.7 17.4 12.7 14.2 12.7 14.2C12.7 14.2 12.7 14.2 12.7 14.2 12.7 13.3 13.4 12.6 14.4 12.6 15.3 12.6 16.1 13.3 16.1 14.2 16.1 14.2 16.1 14.2 16.1 14.2L16.1 14.2 16.1 24.1 20.3 24.1C22.4 24.1 24 22.5 24 20.6 24 20.6 24 20.6 24 20.6L24 20.6 24 16 27 18.3 27 18.3C27.3 18.8 27.4 19.7 27.3 20.8 27.2 21.3 27.1 21.8 27 22.2L27 22.2 22.6 32 24.9 32 28.9 23 28.9 23C29.2 22.3 29.4 21.6 29.5 20.9 29.6 19.1 29.1 17.5 28.2 16.7L28.2 16.7ZM21.8 5.5 21.8 18.8 21.8 20.6 21.8 20.6C21.8 20.6 21.8 20.6 21.8 20.6 21.8 21.5 21.1 22.1 20.2 22.1L20.2 22.1 18.2 22.1 18.2 14.2 18.2 14.2C18.2 14.2 18.2 14.2 18.2 14.2 18.2 12.2 16.5 10.6 14.4 10.7 12.4 10.7 10.7 12.3 10.7 14.2 10.7 14.3 10.7 14.4 10.7 14.5L10.7 22.1C10 21.9 9.4 21.3 9.4 20.6 9.4 20.6 9.4 20.6 9.4 20.6L9.4 20.6 9.4 18.2 9.4 7.5 9.4 7.5 9.4 5.5 9.4 5.5 9.4 4.8 21.9 4.8 21.9 5.5 21.8 5.5ZM6.2 2.8 6.2 4.8 7.2 4.8 7.2 5.6 4.6 5.6 4.6 2 26.5 2 26.5 5.5 23.9 5.5 23.9 4.8 24.9 4.8 24.9 2.8 6.2 2.8 6.2 2.8Z" class="st0 MsftOfcResponsive_Fill_7823dc" fill="#7823DC" fill-rule="evenodd" clip-rule="evenodd"/><rect x="11.5" y="7" width="8" height="2" class="st1 MsftOfcResponsive_Fill_7823dc" fill="#7823DC"/></g></svg>