<svg width="32" height="32" viewBox="0 0 32 32" xmlns="http://www.w3.org/2000/svg" xmlns:xlink="http://www.w3.org/1999/xlink" overflow="visible"><defs></defs><path d="M16 8C20.4 8 24 11.6 24 16 24 20.4 20.4 24 16 24 11.6 24 8 20.4 8 16 8 11.6 11.6 8 16 8M16 6C10.5 6 6 10.5 6 16 6 21.5 10.5 26 16 26 21.5 26 26 21.5 26 16 26 10.5 21.5 6 16 6L16 6Z" fill="#7823DC"/><path d="M29.5 12C29.8 12 30 12.2 30 12.5 30 12.8 29.8 13 29.5 13 29.2 13 29 12.8 29 12.5 29 12.2 29.2 12 29.5 12M29.5 10C28.1 10 27 11.1 27 12.5 27 13.9 28.1 15 29.5 15 30.9 15 32 13.9 32 12.5 32 11.1 30.9 10 29.5 10L29.5 10Z" fill="#7823DC"/><path d="M26.5 3C26.8 3 27 3.2 27 3.5 27 3.8 26.8 4 26.5 4 26.2 4 26 3.8 26 3.5 26 3.2 26.2 3 26.5 3M26.5 1C25.1 1 24 2.1 24 3.5 24 4.9 25.1 6 26.5 6 27.9 6 29 4.9 29 3.5 29 2.1 27.9 1 26.5 1L26.5 1Z" fill="#7823DC"/><path d="M12.5 2C12.8 2 13 2.2 13 2.5 13 2.8 12.8 3 12.5 3 12.2 3 12 2.8 12 2.5 12 2.2 12.2 2 12.5 2M12.5 0C11.1 0 10 1.1 10 2.5 10 3.9 11.1 5 12.5 5 13.9 5 15 3.9 15 2.5 15 1.1 13.9 0 12.5 0L12.5 0Z" fill="#7823DC"/><path d="M2.5 8.6C2.8 8.6 3 8.8 3 9.1 3 9.4 2.8 9.6 2.5 9.6 2.2 9.6 2 9.4 2 9.1 2 8.8 2.2 8.6 2.5 8.6M2.5 6.6C1.1 6.6 0 7.7 0 9.1 0 10.5 1.1 11.6 2.5 11.6 3.9 11.6 5 10.5 5 9.1 5 7.7 3.9 6.6 2.5 6.6L2.5 6.6Z" fill="#7823DC"/><path d="M2.5 21.2C2.8 21.2 3 21.4 3 21.7 3 22 2.8 22.2 2.5 22.2 2.2 22.2 2 22 2 21.7 2 21.4 2.2 21.2 2.5 21.2M2.5 19.2C1.1 19.2 0 20.3 0 21.7 0 23.1 1.1 24.2 2.5 24.2 3.9 24.2 5 23.1 5 21.7 5 20.3 3.9 19.2 2.5 19.2L2.5 19.2Z" fill="#7823DC"/><path d="M8.5 29C8.8 29 9 29.2 9 29.5 9 29.8 8.8 30 8.5 30 8.2 30 8 29.8 8 29.5 8 29.2 8.2 29 8.5 29M8.5 27C7.1 27 6 28.1 6 29.5 6 30.9 7.1 32 8.5 32 9.9 32 11 30.9 11 29.5 11 28.1 9.9 27 8.5 27L8.5 27Z" fill="#7823DC"/><path d="M21.8 29C22.1 29 22.3 29.2 22.3 29.5 22.3 29.8 22 30 21.8 30 21.6 30 21.3 29.8 21.3 29.5 21.3 29.2 21.5 29 21.8 29M21.8 27C20.4 27 19.3 28.1 19.3 29.5 19.3 30.9 20.4 32 21.8 32 23.2 32 24.3 30.9 24.3 29.5 24.3 28.1 23.1 27 21.8 27L21.8 27Z" fill="#7823DC"/><path d="M29.5 24.6C29.8 24.6 30 24.8 30 25.1 30 25.4 29.8 25.6 29.5 25.6 29.2 25.6 29 25.3 29 25.1 29 24.8 29.2 24.6 29.5 24.6M29.5 22.6C28.1 22.6 27 23.7 27 25.1 27 26.5 28.1 27.6 29.5 27.6 30.9 27.6 32 26.5 32 25.1 32 23.7 30.9 22.6 29.5 22.6L29.5 22.6Z" fill="#7823DC"/><path d="M13 10C11.9 10 11 10.9 11 12 11 13.1 11.9 14 13 14 14.1 14 15 13.1 15 12 15 10.9 14.1 10 13 10L13 10Z" fill="#7823DC"/><path d="M18.9 14C19.2 14 19.5 14.3 19.5 14.6 19.5 14.9 19.2 15.2 18.9 15.2 18.6 15.2 18.3 14.9 18.3 14.6 18.3 14.3 18.5 14 18.9 14M18.9 12C17.5 12 16.3 13.2 16.3 14.6 16.3 16 17.5 17.2 18.9 17.2 20.3 17.2 21.5 16 21.5 14.6 21.5 13.2 20.3 12 18.9 12L18.9 12Z" fill="#7823DC"/><path d="M15.2 19.1C15.4 19.1 15.5 19.2 15.5 19.4 15.5 19.6 15.4 19.7 15.2 19.7 15 19.7 14.9 19.6 14.9 19.4 14.9 19.2 15.1 19.1 15.2 19.1M15.2 17.1C13.9 17.1 12.9 18.1 12.9 19.4 12.9 20.7 13.9 21.7 15.2 21.7 16.5 21.7 17.5 20.7 17.5 19.4 17.5 18.1 16.5 17.1 15.2 17.1L15.2 17.1Z" fill="#7823DC"/><rect x="12.4" y="4.2" width="2" height="2.8" fill="#7823DC" transform="matrix(0.9494 -0.314 0.314 0.9494 -1.098 4.4874)"/><rect x="21.1" y="6" width="5.2" height="2" fill="#7823DC" transform="matrix(0.6442 -0.7648 0.7648 0.6442 3.0728 20.6056)"/><rect x="24.9" y="12.5" width="3.2" height="2" fill="#7823DC" transform="matrix(0.9486 -0.3164 0.3164 0.9486 -2.9099 9.0774)"/><rect x="5.5" y="8.3" width="2" height="5.4" fill="#7823DC" transform="matrix(0.3714 -0.9285 0.9285 0.3714 -6.1273 12.9498)"/><rect x="4.4" y="19.5" width="2.7" height="2" fill="#7823DC" transform="matrix(0.9365 -0.3506 0.3506 0.9365 -6.8164 3.3056)"/><rect x="9" y="25.1" width="4.6" height="2" fill="#7823DC" transform="matrix(0.5488 -0.8359 0.8359 0.5488 -16.7403 21.1788)"/><rect x="19" y="23.8" width="2" height="4.5" fill="#7823DC" transform="matrix(0.8944 -0.4472 0.4472 0.8944 -9.5161 11.6892)"/><rect x="25" y="20" width="2" height="5" fill="#7823DC" transform="matrix(0.6 -0.8 0.8 0.6 -7.6 29.8)"/><rect x="3.9" y="19.6" width="3.2" height="2" fill="#7823DC" transform="matrix(0.9365 -0.3506 0.3506 0.9365 -6.8616 3.2297)"/><rect x="5.5" y="8.3" width="2" height="5.4" fill="#7823DC" transform="matrix(0.3714 -0.9285 0.9285 0.3714 -6.1273 12.9498)"/></svg>