<svg width="36.5" height="36.5" viewBox="0 0 36.5 36.5" xmlns="http://www.w3.org/2000/svg" xmlns:xlink="http://www.w3.org/1999/xlink" overflow="hidden"><defs></defs><g><g><defs><path d="M0 36.5 36.5 36.5 36.5 0 0 0 0 36.5Z" id="SVGID_1_" fill="#7823DC"/></defs><clipPath id="SVGID_2_"><use width="100%" height="100%" xlink:href="#SVGID_1_"></use></clipPath><g clip-path="url(#SVGID_2_)"><defs><path d="M0 36.5 36.5 36.5 36.5 0 0 0 0 36.5Z" id="SVGID_3_" fill="#7823DC"/></defs><clipPath id="SVGID_4_"><use width="100%" height="100%" xlink:href="#SVGID_3_"></use></clipPath><path d="M17.7 29.6 12.9 24.8 24.2 13.5 29 18.3 17.7 29.6ZM16 24.8 17.6 26.4 25.7 18.3 24.1 16.7 16 24.8Z" fill="#7823DC" clip-path="url(#SVGID_4_)"/><path d="M15.9 25 8.2 13.4 12.7 8.8 24.3 16.5 15.9 25ZM11.1 13.7 16.2 21.4 20.7 16.9 13 11.8 11.1 13.7Z" fill="#7823DC" clip-path="url(#SVGID_4_)"/><path d="M7.2 17.6 2.4 12.8 12.1 3 16.9 7.8 7.2 17.6ZM5.6 12.7 7.2 14.3 13.7 7.8 12.1 6.2 5.6 12.7Z" fill="#7823DC" clip-path="url(#SVGID_4_)"/><path d="M30.6 32.9 33.8 32.9 23.3 22.4 21.7 24 30.6 32.9 30.6 32.9Z" fill="#7823DC" clip-path="url(#SVGID_4_)"/></g></g></g></svg>