<svg viewBox="0 0 32 32" xmlns="http://www.w3.org/2000/svg" xmlns:xlink="http://www.w3.org/1999/xlink" id="Layer_1" xml:space="preserve" overflow="hidden"><g><path d="M0 23.2 0 25.2 14.5 25.2 14.5 29.2 0 29.2 0 31.2 16.5 31.2 16.5 23.2 0 23.2 0 23.2Z" fill="#7823DC" fill-rule="evenodd" clip-rule="evenodd"/><path d="M0 30.3 14.3 30.3 14.3 32 0 32 0 30.3Z" fill="#7823DC" fill-rule="evenodd" clip-rule="evenodd"/><path d="M0 19.9 0 21.9 3.7 21.9 3.7 23.1 0 23.1 0 25.1 5.7 25.1 5.7 19.9 0 19.9Z" fill="#7823DC" fill-rule="evenodd" clip-rule="evenodd"/><path d="M0.5 0C0.3 0 0.2 0 0 0L0 2C0.2 2 0.3 2 0.5 2 2.2 2 3.6 3.4 3.6 5L3.6 5.4 3.2 9.3C4.4 8.5 5.3 7.2 5.5 5.6L5.5 5.3 5.5 5.1 5.5 5C5.5 2.3 3.3 0 0.5 0L0.5 0Z" fill="#7823DC" fill-rule="evenodd" clip-rule="evenodd"/><path d="M5.5 5.1 5.5 5.3 5.5 5.7 4.3 20.3 2.3 20.1 3.2 9.3 3.6 5.4 3.6 5 3.6 5 5.5 5.1Z" fill="#7823DC" fill-rule="evenodd" clip-rule="evenodd"/><path d="M21 2C26 2 30 6 30 11 30 16 26 20 21 20 16 20 12 16 12 11 12 6 16 2 21 2M21 0C14.9 0 10 4.9 10 11 10 17.1 14.9 22 21 22 27.1 22 32 17.1 32 11 32 4.9 27.1 0 21 0L21 0 21 0 21 0Z" fill="#7823DC" fill-rule="evenodd" clip-rule="evenodd"/><path d="M26.9 5.6 19.9 17.1 15.3 10.9 18 10.9 19.7 13.3 24.3 5.6 26.9 5.6 26.9 5.6Z" fill="#7823DC" fill-rule="evenodd" clip-rule="evenodd"/></g></svg>