<svg viewBox="0 0 32 32" xmlns="http://www.w3.org/2000/svg" xmlns:xlink="http://www.w3.org/1999/xlink" id="Layer_1" overflow="hidden"><path d="M5.6 15.8 4 14.6 8.4 8.7 14.3 6.9 20.2 10.4 25.4 6 26.7 7.5 20.5 12.8 14.1 9.1 9.6 10.4 5.6 15.8Z" fill="#7823DC" fill-rule="evenodd" clip-rule="evenodd"/><path d="M0.7 28.6 0 26.7 7.7 23.7 11.5 19 15.8 9.7 17.6 10.5 13.2 20.1 9 25.4 0.7 28.6Z" fill="#7823DC" fill-rule="evenodd" clip-rule="evenodd"/><path d="M18 32 17.3 23.9 8.6 19.2 14.1 9 15.9 10 11.3 18.4 19.2 22.6 20 31.8 18 32Z" fill="#7823DC" fill-rule="evenodd" clip-rule="evenodd"/><path d="M18.8 8.2C16.6 8.2 14.7 6.3 14.7 4.1 14.7 1.8 16.5 0 18.8 0 21 0 22.9 1.9 22.9 4.1 22.9 6.4 21.1 8.2 18.8 8.2L18.8 8.2ZM18.8 2C17.7 2 16.7 2.9 16.7 4.1 16.7 5.3 17.6 6.2 18.8 6.2 19.9 6.2 20.9 5.3 20.9 4.1 20.9 3 20 2 18.8 2L18.8 2Z" fill="#7823DC" fill-rule="evenodd" clip-rule="evenodd"/><rect x="24.3" y="9.3" width="2" height="22.9" fill="#7823DC" transform="matrix(0.9889 -0.1487 0.1487 0.9889 -2.7967 3.9923)"/></svg>