<svg viewBox="0 0 32 32" xmlns="http://www.w3.org/2000/svg" xmlns:xlink="http://www.w3.org/1999/xlink" id="Layer_5" overflow="hidden"><defs></defs><path d="M32.99 26.76 34.36 25.31 26.76 18.13C27.15 17.61 27.36 17 27.36 16.34 27.36 15.54 27.05 14.78 26.48 14.22 26.03 13.77 25.46 13.48 24.85 13.38 25 12.58 24.85 11.77 24.23 11.06 23.69 10.44 22.87 10.17 22.2 10.13 22.18 9.39 21.89 8.65 21.33 8.09 20.62 7.38 19.54 7.08 18.57 7.28 18.52 6.73 18.32 6.22 17.92 5.82 16.8 4.69 14.81 4.69 13.67 5.82L13.51 5.98 12.94 5.41C11.81 4.28 9.83 4.28 8.7 5.41 8.13 5.98 7.82 6.73 7.82 7.53 7.82 7.89 7.89 8.24 8.01 8.57 7.6 8.71 7.22 8.94 6.89 9.27 6.12 10.04 5.87 11.12 6.11 12.11 5.63 12.24 5.18 12.49 4.81 12.86 4.18 13.49 3.9 14.32 3.95 15.14 3.32 15.22 2.71 15.49 2.25 15.95 1.68 16.52 1.37 17.27 1.37 18.07 1.37 18.87 1.68 19.62 2.25 20.19L2.76 20.7-4.62 28.08C-5.19 28.65-5.51 29.4-5.51 30.21-5.51 31.02-5.19 31.77-4.62 32.33L0.12 37.06C0.69 37.63 1.44 37.94 2.24 37.94 3.04 37.94 3.8 37.63 4.36 37.06L14.26 27.16C15.27 27.88 16.7 27.86 17.72 27.16L25.7 34.7 27.07 33.25 19.17 25.78 25.37 19.58 32.98 26.77ZM15.1 7.23C15.29 7.04 15.54 6.93 15.8 6.93 16.06 6.93 16.33 7.03 16.51 7.23 16.79 7.53 16.56 8.16 16.22 8.75 16.12 8.61 16.02 8.48 15.9 8.35L14.94 7.39 15.1 7.23ZM10.12 6.82C10.31 6.63 10.56 6.53 10.83 6.53 11.1 6.53 11.35 6.63 11.54 6.82L12.11 7.39 13.52 8.8 14.48 9.76C14.87 10.15 14.87 10.79 14.48 11.17 14.09 11.56 13.46 11.56 13.06 11.17L12.1 10.21 10.69 8.8 10.12 8.23 10.12 8.23C9.93 8.04 9.83 7.79 9.83 7.52 9.83 7.25 9.93 7 10.12 6.81ZM7.67 17.11 7.45 16.89C7.45 16.89 7.45 16.88 7.43 16.87L6.51 15.95 6.51 15.95C6.51 15.95 6.5 15.94 6.49 15.93L6.24 15.68C5.85 15.29 5.85 14.66 6.24 14.27 6.44 14.07 6.69 13.98 6.95 13.98 7.21 13.98 7.46 14.08 7.66 14.27L7.87 14.48 9.09 15.7C9.48 16.09 9.48 16.72 9.09 17.11 8.71 17.49 8.05 17.49 7.68 17.11ZM10.54 14.31 9.28 13.05 8.32 12.09C8.15 11.92 8.06 11.69 8.04 11.46 8.02 11.18 8.1 10.89 8.32 10.67 8.54 10.45 8.83 10.37 9.11 10.39 9.34 10.41 9.56 10.49 9.74 10.67L10.7 11.63 11.96 12.89C12.15 13.08 12.25 13.33 12.25 13.6 12.25 13.87 12.15 14.12 11.96 14.31 11.57 14.7 10.94 14.7 10.54 14.31ZM3.68 18.77 3.68 18.77C3.49 18.58 3.39 18.33 3.39 18.06 3.39 17.79 3.49 17.54 3.68 17.35 3.87 17.16 4.12 17.06 4.39 17.06 4.45 17.06 4.5 17.08 4.56 17.09 4.76 17.12 4.94 17.2 5.09 17.34L6.03 18.29C6.21 18.48 6.32 18.72 6.32 18.99 6.32 19.26 6.22 19.51 6.03 19.7 5.65 20.08 4.99 20.08 4.62 19.7L4.21 19.28 3.7 18.77ZM16.71 25.42C16.33 25.8 15.68 25.81 15.29 25.42 15.23 25.36 15.19 25.3 15.15 25.24 15 24.97 14.72 24.79 14.41 24.74 14.1 24.7 13.79 24.8 13.57 25.02L2.95 35.64C2.57 36.02 1.91 36.02 1.53 35.64L-3.21 30.91C-3.4 30.72-3.5 30.47-3.5 30.21-3.5 29.95-3.39 29.69-3.2 29.5L4.44 21.85C4.72 21.93 5 21.99 5.3 21.99 6.1 21.99 6.85 21.68 7.42 21.11 7.89 20.64 8.17 20.04 8.26 19.39 8.29 19.39 8.33 19.4 8.36 19.4 9.16 19.4 9.91 19.09 10.48 18.52 11.02 17.98 11.29 17.29 11.34 16.59 12.07 16.56 12.8 16.28 13.35 15.72 13.92 15.15 14.23 14.4 14.23 13.6 14.23 13.54 14.22 13.49 14.21 13.43 14.82 13.34 15.41 13.07 15.88 12.6 16.37 12.11 16.64 11.49 16.72 10.84 16.92 10.82 17.12 10.75 17.28 10.6L18.49 9.5C18.67 9.32 18.92 9.21 19.19 9.21 19.38 9.21 19.67 9.26 19.9 9.5 20.29 9.89 20.29 10.52 19.94 10.88L19.45 11.31C19.37 11.38 19.3 11.44 19.24 11.5 18.86 11.88 18.85 12.5 19.22 12.89 19.59 13.28 20.21 13.31 20.61 12.95L20.8 12.78C21.15 12.5 21.76 12.15 21.95 12.11 22.25 12.11 22.57 12.22 22.7 12.36 23.32 13.07 22.08 14.3 22.07 14.32 21.71 14.67 21.67 15.24 21.98 15.64 22.29 16.04 22.85 16.15 23.28 15.89 23.72 15.63 24.27 15.36 24.34 15.33 24.6 15.33 24.85 15.44 25.04 15.63 25.23 15.82 25.33 16.07 25.33 16.34 25.33 16.61 25.23 16.86 25.04 17.05L16.67 25.42Z" stroke-width="0" fill="#7823DC"/></svg>