<svg viewBox="0 0 32 32" xmlns="http://www.w3.org/2000/svg" xmlns:xlink="http://www.w3.org/1999/xlink" xml:space="preserve" overflow="hidden"><style>
.MsftOfcResponsive_Fill_7823dc {
 fill:#7823DC; 
}
</style>
<g id="Layer_3"></g><g id="Layer_1"></g><g id="Layer_2"></g><g id="Layer_4"></g><g id="Layer_5"><path d="M7.59 9.82C5.57 9.82 3.93 8.18 3.93 6.16 3.93 4.14 5.57 2.5 7.59 2.5 9.61 2.5 11.25 4.14 11.25 6.16 11.25 8.18 9.6 9.82 7.59 9.82ZM7.59 4.5C6.68 4.5 5.93 5.24 5.93 6.16 5.93 7.08 6.67 7.82 7.59 7.82 8.51 7.82 9.25 7.08 9.25 6.16 9.25 5.24 8.5 4.5 7.59 4.5Z" class="MsftOfcResponsive_Fill_7823dc" fill="#7823DC"/><path d="M13.45 17.83 8.06 8.97 9.76 7.93 14.42 15.56 22.16 13.84 22.59 15.8Z" class="MsftOfcResponsive_Fill_7823dc" fill="#7823DC"/><path d="M22.33 29.02 13.19 29.02 9.07 22 0.22 7.43 1.93 6.39 10.42 20.36 27.32 17.02 22.33 29.02ZM14.34 27.02 21 27.02 24.03 19.72 11.5 22.19 14.34 27.02Z" class="MsftOfcResponsive_Fill_7823dc" fill="#7823DC"/><rect x="27.72" y="21.63" width="2" height="7.57" class="MsftOfcResponsive_Fill_7823dc" fill="#7823DC" transform="matrix(0.8123 -0.5833 0.5833 0.8123 -9.4344 21.5229)"/></g></svg>