<svg viewBox="0 0 32 32" xmlns="http://www.w3.org/2000/svg" xmlns:xlink="http://www.w3.org/1999/xlink" id="Layer_1" overflow="hidden"><style>
.MsftOfcResponsive_Fill_7823dc {
 fill:#7823DC; 
}
</style>
<path d="M31 26.1 29 25.4 27 24.8 25 24.2 22.7 23.5 22 23.2 20.7 23.7 16.3 25.4 12.2 23.7 11 23.2 10.3 23.4 10.3 23.4 7 24.4 3 25.6 1 26.2 8.88178e-16 26.5 8.88178e-16 32 32 32 32 26.4 31 26.1ZM30 30 2 30 2 27.9 7 26.4 10.9 25.2 15.6 27.1 16.3 27.4 17.1 27.1 22.1 25.1 25 26.1 30 27.7 30 30Z" class="st0 MsftOfcResponsive_Fill_7823dc" fill="#7823DC"/><path d="M0 3 0 10 13 11.8 15 11.8C15.1 11.3 15.6 11 16.1 11L16.8 11C17.3 11 17.8 11.4 17.9 11.8L19.9 11.8 32 10 32 3 0 3ZM30 8 19 9.8 14 9.8 2 8 2 5 30 5 30 8Z" class="st0 MsftOfcResponsive_Fill_7823dc" fill="#7823DC"/><path d="M6.9 15.5C6.7 14.5 5.7 13.7 4.7 13.7L3.3 13.7C2 13.7 1 14.7 1 16L1 28 2 28 2 27.9 7 26.4 7 16.1C7 15.9 7 15.7 6.9 15.5ZM5 26 3 26 3 16.1C3 15.9 3.1 15.8 3.3 15.8L4.7 15.8C4.9 15.8 5 15.9 5 16.1L5 26Z" class="st0 MsftOfcResponsive_Fill_7823dc" fill="#7823DC"/><path d="M20 11.6C19.9 10.9 19.6 10.2 19 9.8 18.4 9.3 17.7 9 16.8 9L16.1 9C15.3 9 14.5 9.3 14 9.8 13.5 10.3 13.1 10.9 13 11.6 13 11.7 13 11.8 13 11.9L13 15 20 15 20 11.9C20 11.8 20 11.7 20 11.6ZM18 13.2 15 13.2 15 12C15 11.9 15 11.8 15 11.7 15.1 11.3 15.6 10.9 16.1 10.9L16.8 10.9C17.3 10.9 17.8 11.2 17.9 11.7 17.9 11.8 17.9 11.9 17.9 12L17.9 13.2Z" class="st0 MsftOfcResponsive_Fill_7823dc" fill="#7823DC"/><path d="M28.7 13.8 27.3 13.8C26.2 13.8 25.3 14.6 25.1 15.6 25.1 15.8 25 16 25 16.1L25 26.3 30 27.9 30 28 31 28 31 16.1C31 14.8 29.9 13.8 28.7 13.8ZM29 26 27 26 27 16.1C27 15.9 27.1 15.8 27.3 15.8L28.7 15.8C28.9 15.8 29 15.9 29 16.1L29 26Z" class="st0 MsftOfcResponsive_Fill_7823dc" fill="#7823DC"/><path d="M21 24.7 18.9 17.2 20.1 15.3 12.9 15.3 14.1 17.2 12 24.7 10 24.2 11.9 17.5 9.1 13.3 23.9 13.3 21.1 17.5 23 24.2Z" class="st0 MsftOfcResponsive_Fill_7823dc" fill="#7823DC"/><rect x="5" y="15.6" width="7" height="2" class="st0 MsftOfcResponsive_Fill_7823dc" fill="#7823DC"/><rect x="21" y="15.6" width="6" height="2" class="st0 MsftOfcResponsive_Fill_7823dc" fill="#7823DC"/><rect x="0" y="1.6" width="2" height="3.3" class="st0 MsftOfcResponsive_Fill_7823dc" fill="#7823DC"/><rect x="30" y="1.6" width="2" height="3.3" class="st0 MsftOfcResponsive_Fill_7823dc" fill="#7823DC"/></svg>