<svg viewBox="0 0 32 32" xmlns="http://www.w3.org/2000/svg" xmlns:xlink="http://www.w3.org/1999/xlink" id="Layer_1" overflow="hidden"><path d="M21.3 19.3 29.8 19.3 29.8 27.7 28 27.7 28 29.9 31.9 29.9 31.9 21.3 27.7 17.1 21.3 17.1Z" fill="#7823DC"/><rect x="25.6" y="23.5" width="5.3" height="2.1" fill="#7823DC"/><rect x="21.3" y="27.7" width="3.7" height="2.1" fill="#7823DC"/><g><path d="M26.4 32C24.8 32 23.6 30.7 23.6 29.2 23.6 27.6 24.9 26.4 26.4 26.4 28 26.4 29.2 27.7 29.2 29.2 29.2 30.7 28 32 26.4 32ZM26.4 28.5C26 28.5 25.7 28.8 25.7 29.2 25.7 29.6 26 29.9 26.4 29.9 26.8 29.9 27.1 29.6 27.1 29.2 27.1 28.8 26.8 28.5 26.4 28.5Z" fill="#7823DC"/></g><g><path d="M5.3 32C3.7 32 2.5 30.7 2.5 29.2 2.5 27.6 3.8 26.4 5.3 26.4 6.8 26.4 8.1 27.7 8.1 29.2 8.1 30.7 6.9 32 5.3 32ZM5.3 28.5C4.9 28.5 4.6 28.8 4.6 29.2 4.6 29.6 4.9 29.9 5.3 29.9 5.7 29.9 6 29.6 6 29.2 6 28.8 5.7 28.5 5.3 28.5Z" fill="#7823DC"/></g><rect x="21.3" y="18.5" width="2.1" height="11.3" fill="#7823DC"/><path d="M19.2 10.8 7.7 10.8 6.1 12.9 21.3 12.9 21.3 27.7 6.4 27.7 6.4 29.9 23.4 29.9 23.4 15Z" fill="#7823DC"/><path d="M23.5 24.6 23.5 22.4 0 22.4 0 24.6 0 24.6 0 29.9 4.3 29.9 4.3 28.1 2.1 28.1 2.1 24.6Z" fill="#7823DC"/><g><rect x="1.5" y="19.3" width="2.1" height="4.6" fill="#7823DC" transform="matrix(0.7333 -0.6799 0.6799 0.7333 -13.9736 7.5201)"/></g><g><path d="M2 21.9 0.3 20.6 7.6 10.8 9.3 12.1Z" fill="#7823DC"/></g><g><path d="M10 17.4C9.8 17.3 9.7 17.2 9.5 17.1 9.5 17.1 9.6 17.1 9.6 17.1 10.1 17.1 10.7 17.1 11.2 17.1 11.3 17.1 11.3 17.1 11.3 17.2 11.6 17.7 11.9 18.1 12.1 18.6 12.1 18.6 12.1 18.6 12.1 18.7 11.9 18.6 11.7 18.5 11.6 18.4 11.5 18.6 11.4 18.8 11.3 19 11.1 19.4 10.9 19.7 10.7 20.1 10.6 20.3 10.6 20.3 10.6 20.6 10.6 20.5 10.5 20.5 10.5 20.5 10.2 20 9.9 19.4 9.6 18.9 9.5 18.8 9.5 18.7 9.6 18.5 9.7 18 9.8 17.7 10 17.4Z" fill="#7823DC"/><path d="M14.4 18.8C14.4 19 14.4 19.2 14.4 19.4 14.4 19.4 14.5 19.4 14.5 19.4 15.1 19.4 15.7 19.4 16.3 19.4 16.5 19.4 16.6 19.4 16.7 19.3 16.7 19.3 16.7 19.3 16.7 19.4 16.4 20 16 20.5 15.7 21.1 15.6 21.2 15.6 21.3 15.4 21.3 15.1 21.3 14.8 21.3 14.4 21.3 14.4 21.3 14.3 21.3 14.3 21.3 14.3 21.5 14.3 21.7 14.3 21.9 14.3 21.9 14.3 21.9 14.3 21.9 14.3 21.9 14.3 21.8 14.3 21.8 14 21.3 13.8 20.9 13.5 20.4 13.5 20.4 13.5 20.3 13.5 20.3 13.8 19.8 14.1 19.4 14.4 18.8 14.4 18.9 14.4 18.9 14.4 18.8Z" fill="#7823DC"/><path d="M15.6 15.5C15.8 15.4 15.9 15.3 16.1 15.2 16.1 15.2 16.1 15.3 16.1 15.3 15.8 15.8 15.6 16.2 15.3 16.7 15.3 16.7 15.2 16.8 15.2 16.8 14.6 16.8 14.1 16.8 13.5 16.8 13.5 16.8 13.5 16.8 13.4 16.8 13.6 16.7 13.8 16.6 13.9 16.5 13.8 16.3 13.7 16.1 13.6 15.9 13.4 15.6 13.2 15.2 13 14.9 12.9 14.7 12.8 14.6 12.6 14.5 12.9 14.5 13.3 14.5 13.6 14.5 13.9 14.5 14.3 14.5 14.6 14.5 14.7 14.5 14.8 14.5 14.9 14.7 15.2 14.9 15.4 15.2 15.6 15.5Z" fill="#7823DC"/><path d="M12.3 17.1C11.8 16.8 11.3 16.5 10.7 16.2 10.8 16.1 10.9 15.9 10.9 15.8 11.1 15.5 11.2 15.2 11.4 15 11.7 14.6 12.2 14.4 12.6 14.6 12.7 14.7 12.8 14.7 12.9 14.8 13 15 13.1 15.2 13.2 15.3 13.2 15.3 13.2 15.4 13.2 15.4 12.9 16 12.6 16.6 12.3 17.1 12.3 17.1 12.3 17.1 12.3 17.1Z" fill="#7823DC"/><path d="M14.7 17.6C15.2 17.3 15.7 17 16.2 16.7 16.2 16.7 16.2 16.7 16.2 16.8 16.4 17.2 16.7 17.6 16.9 18 17.2 18.5 17.1 18.9 16.7 19.2 16.6 19.3 16.5 19.3 16.3 19.3 16.1 19.3 15.9 19.3 15.7 19.3 15.7 19.3 15.6 19.3 15.6 19.3 15.3 18.7 15 18.2 14.7 17.6 14.7 17.6 14.7 17.6 14.7 17.6Z" fill="#7823DC"/><path d="M13.1 21.3C12.9 21.3 12.7 21.3 12.5 21.3 12.2 21.3 11.9 21.3 11.6 21.3 11 21.3 10.6 20.9 10.7 20.3 10.7 20.2 10.7 20.2 10.8 20.1 10.9 19.9 11 19.7 11.1 19.5 11.1 19.5 11.2 19.4 11.2 19.4 11.8 19.4 12.5 19.4 13.1 19.4 13.1 19.4 13.1 19.4 13.1 19.4 13.1 20.1 13.1 20.6 13.1 21.3Z" fill="#7823DC"/></g></svg>