<svg viewBox="0 0 32 32" xmlns="http://www.w3.org/2000/svg" xmlns:xlink="http://www.w3.org/1999/xlink" id="Graphic" overflow="hidden"><defs></defs><path d="M26 4 26 20 28 22 28 28 4 28 4 20 24 20 24 4 26 4M28 2 22 2 22 18 2 18 2 30 30 30 30 21.15 29.41 20.56 28 19.15 28 2Z" fill="#7823DC"/><path d="M7.71 13.27 7.71 18 4 18 4 15.2 7.72 13.27M9.72 9.98 2 14 2 20 9.71 20 9.71 10Z" fill="#7823DC"/><path d="M12.85 13.39 12.85 18 9.69 18 9.69 15.16 12.85 13.39M14.85 9.98 7.69 14 7.69 20 14.85 20 14.85 10Z" fill="#7823DC"/><path d="M18 13.4 18 18 14.88 18 14.88 15.15 18 13.4M20 10 12.89 14 12.89 20 20 20 20 10Z" fill="#7823DC"/><path d="M7.99 21.98 5.99 21.98 5.99 23.98 7.99 23.98 7.99 21.98 7.99 21.98Z" fill="#7823DC"/><path d="M11.99 21.98 9.99 21.98 9.99 23.98 11.99 23.98 11.99 21.98 11.99 21.98Z" fill="#7823DC"/><path d="M15.99 21.98 13.99 21.98 13.99 23.98 15.99 23.98 15.99 21.98 15.99 21.98Z" fill="#7823DC"/><path d="M19.99 21.98 17.99 21.98 17.99 23.98 19.99 23.98 19.99 21.98 19.99 21.98Z" fill="#7823DC"/></svg>