<svg viewBox="0 0 31.9 32.03" xmlns="http://www.w3.org/2000/svg" xmlns:xlink="http://www.w3.org/1999/xlink" id="Layer_1" overflow="hidden"><style>
.MsftOfcResponsive_Fill_7823dc {
 fill:#7823DC; 
}
</style>
<defs></defs><path d="M15.78 8.96C13.33 8.96 11.32 6.94 11.32 4.48 11.32 2.02 13.33 0 15.78 0 18.23 0 20.24 2.02 20.24 4.48 20.33 6.94 18.31 8.96 15.78 8.96L15.78 8.96ZM15.78 1.93C14.38 1.93 13.33 3.07 13.33 4.48 13.33 5.89 14.47 6.94 15.78 6.94 17.18 6.94 18.23 5.8 18.23 4.39 18.23 2.98 17.18 1.93 15.78 1.93L15.78 1.93Z" class="MsftOfcResponsive_Fill_7823dc" fill="#7823DC" fill-rule="evenodd"/><path d="M19.82 30.97 11.84 30.97C10.17 30.97 8.86 29.65 8.86 27.99 8.86 26.33 10.18 25.01 11.84 25.01L21.84 25.01C22.37 25.01 22.8 24.57 22.8 24.04 22.8 23.51 22.36 23.07 21.84 23.07L9.82 23.07C9.29 23.07 8.86 23.51 8.86 24.04L6.84 24.04C6.84 22.37 8.16 21.06 9.82 21.06L21.84 21.06C23.51 21.06 24.82 22.38 24.82 24.04 24.82 25.7 23.5 27.02 21.84 27.02L11.84 27.02C11.31 27.02 10.88 27.46 10.88 27.99 10.88 28.52 11.32 28.96 11.84 28.96L19.82 28.96 19.82 30.98 19.82 30.98Z" class="MsftOfcResponsive_Fill_7823dc" fill="#7823DC" fill-rule="evenodd"/><path d="M22.85 32.03 20.85 32.03C20.85 31.43 20.43 31 19.85 31L19.85 29C21.53 29 22.85 30.33 22.85 32.03Z" class="MsftOfcResponsive_Fill_7823dc" fill="#7823DC"/><path d="M22.85 32.03 20.85 32.03C20.85 31.43 20.43 31 19.85 31L19.85 29C21.53 29 22.85 30.33 22.85 32.03Z" class="MsftOfcResponsive_Fill_7823dc" fill="#7823DC"/><g><path d="M31.82 1.77 31.64 0.89 21.31 0.89C21.66 1.5 22.01 2.21 22.19 2.91 22.28 3.44 22.37 3.87 22.37 4.4 22.37 8 19.48 10.89 15.89 10.89L15.89 12.91C20.62 12.91 24.38 9.05 24.38 4.4 24.38 3.87 24.29 3.44 24.2 2.91L29.89 2.91C29.89 3.96 29.63 4.93 29.01 5.72 28.22 6.6 27 7.04 25.86 6.86L24.9 8.88C25.25 8.88 26.56 8.88 26.91 8.79 26.91 9.49 26.65 10.11 26.3 10.72 25.42 11.6 24.2 12.04 22.97 11.86L21.83 13.96C22.18 13.96 23.49 13.96 23.84 13.87 23.84 14.57 23.58 15.19 23.23 15.71 22.35 16.59 21.13 17.03 19.9 16.85L15.87 16.85 15.87 18.87 19.9 18.87C22.18 18.87 23.84 18.26 24.8 16.94 25.59 15.89 26.03 14.57 25.85 13.34 26.64 13.08 27.25 12.55 27.78 11.94 28.57 10.89 28.92 9.57 28.74 8.26 29.35 8 29.97 7.56 30.4 7.03 31.63 5.54 32.06 3.61 31.8 1.77L31.8 1.77Z" class="MsftOfcResponsive_Fill_7823dc" fill="#7823DC" fill-rule="evenodd"/><g><path d="M14.81 7.91 16.84 7.91 16.84 31.93 14.81 31.93 14.81 7.91 14.81 7.91Z" class="MsftOfcResponsive_Fill_7823dc" fill="#7823DC" fill-rule="evenodd"/><g><path d="M1.14 7.02C1.58 7.63 2.19 7.98 2.81 8.33 2.63 9.64 2.99 10.96 3.78 12.01 4.31 12.62 5.01 13.15 5.8 13.41 5.71 14.72 6.06 15.95 6.77 17 7.74 18.31 9.49 18.93 11.77 18.93L15.81 18.93 15.81 16.91 11.77 16.91C10.54 17.09 9.22 16.65 8.35 15.77 7.91 15.24 7.74 14.54 7.74 13.93L9.85 13.93 8.88 11.91C7.65 12.09 6.33 11.65 5.46 10.77 5.02 10.24 4.85 9.54 4.85 8.84 5.11 8.93 6.43 8.93 6.87 8.93L5.82 6.91C4.68 7 3.54 6.56 2.66 5.77 2.05 4.98 1.69 3.93 1.78 2.97L0.02 4.72C0.2 5.51 0.55 6.38 1.16 7L1.16 7Z" class="MsftOfcResponsive_Fill_7823dc" fill="#7823DC" fill-rule="evenodd"/><path d="M15.8 12.99 15.8 10.97C12.2 10.97 9.31 8.08 9.31 4.49 9.31 3.96 9.4 3.44 9.49 3 9.67 2.3 9.93 1.6 10.37 0.98L3.78 0.98 1.76 2.91 7.46 2.91C7.37 3.44 7.37 3.96 7.37 4.4 7.37 9.13 11.14 12.9 15.79 12.99L15.79 12.99Z" class="MsftOfcResponsive_Fill_7823dc" fill="#7823DC" fill-rule="evenodd"/></g></g></g></svg>