<svg viewBox="0 0 32 32.01" xmlns="http://www.w3.org/2000/svg" xmlns:xlink="http://www.w3.org/1999/xlink" id="Layer_1" overflow="hidden"><style>
.MsftOfcResponsive_Fill_7823dc {
 fill:#7823DC; 
}
</style>
<defs></defs><path d="M32 32.01 17 32.01 17 0 32 0 32 32.01ZM19 30.01 30 30.01 30 2 19 2 19 30.01Z" class="MsftOfcResponsive_Fill_7823dc" fill="#7823DC"/><g><path d="M24.5 15.26C20.68 15.26 17.56 12.15 17.56 8.32 17.56 4.49 20.67 1.38 24.5 1.38 28.33 1.38 31.44 4.49 31.44 8.32 31.44 12.15 28.33 15.26 24.5 15.26ZM24.5 3.39C21.78 3.39 19.56 5.6 19.56 8.33 19.56 11.06 21.77 13.27 24.5 13.27 27.23 13.27 29.44 11.06 29.44 8.33 29.44 5.6 27.23 3.39 24.5 3.39Z" class="MsftOfcResponsive_Fill_7823dc" fill="#7823DC"/><path d="M24.5 11.21C22.91 11.21 21.61 9.91 21.61 8.32 21.61 6.73 22.91 5.43 24.5 5.43 26.09 5.43 27.39 6.73 27.39 8.32 27.39 9.91 26.09 11.21 24.5 11.21ZM24.5 7.43C24.01 7.43 23.61 7.83 23.61 8.32 23.61 8.81 24.01 9.21 24.5 9.21 24.99 9.21 25.39 8.81 25.39 8.32 25.39 7.83 24.99 7.43 24.5 7.43Z" class="MsftOfcResponsive_Fill_7823dc" fill="#7823DC"/></g><path d="M24.5 31C22.62 31 21.09 29.47 21.09 27.59 21.09 25.71 22.62 24.18 24.5 24.18 26.38 24.18 27.91 25.71 27.91 27.59 27.91 29.47 26.38 31 24.5 31ZM24.5 26.18C23.72 26.18 23.09 26.81 23.09 27.59 23.09 28.37 23.72 29 24.5 29 25.28 29 25.91 28.37 25.91 27.59 25.91 26.81 25.28 26.18 24.5 26.18Z" class="MsftOfcResponsive_Fill_7823dc" fill="#7823DC"/><path d="M24.5 23.42C22.62 23.42 21.09 21.89 21.09 20.01 21.09 18.13 22.62 16.6 24.5 16.6 26.38 16.6 27.91 18.13 27.91 20.01 27.91 21.89 26.38 23.42 24.5 23.42ZM24.5 18.6C23.72 18.6 23.09 19.23 23.09 20.01 23.09 20.79 23.72 21.42 24.5 21.42 25.28 21.42 25.91 20.79 25.91 20.01 25.91 19.23 25.28 18.6 24.5 18.6Z" class="MsftOfcResponsive_Fill_7823dc" fill="#7823DC"/><g><path d="M15 32.01 0 32.01 0 0 15 0 15 32.01ZM2 30.01 13 30.01 13 2 2 2 2 30.01Z" class="MsftOfcResponsive_Fill_7823dc" fill="#7823DC"/><g><g><path d="M7.5 14.88C3.68 14.88 0.56 11.77 0.56 7.94 0.56 4.11 3.68 1.01 7.5 1.01 11.32 1.01 14.44 4.12 14.44 7.95 14.44 11.78 11.33 14.89 7.5 14.89ZM7.5 3.01C4.78 3.01 2.56 5.22 2.56 7.95 2.56 10.68 4.77 12.89 7.5 12.89 10.23 12.89 12.44 10.68 12.44 7.95 12.44 5.22 10.23 3.01 7.5 3.01Z" class="MsftOfcResponsive_Fill_7823dc" fill="#7823DC"/><path d="M7.5 10.84C5.91 10.84 4.61 9.54 4.61 7.95 4.61 6.36 5.91 5.06 7.5 5.06 9.09 5.06 10.39 6.36 10.39 7.95 10.39 9.54 9.09 10.84 7.5 10.84ZM7.5 7.06C7.01 7.06 6.61 7.46 6.61 7.95 6.61 8.44 7.01 8.84 7.5 8.84 7.99 8.84 8.39 8.44 8.39 7.95 8.39 7.46 7.99 7.06 7.5 7.06Z" class="MsftOfcResponsive_Fill_7823dc" fill="#7823DC"/></g><path d="M7.5 30.63C5.62 30.63 4.09 29.1 4.09 27.22 4.09 25.34 5.62 23.81 7.5 23.81 9.38 23.81 10.91 25.34 10.91 27.22 10.91 29.1 9.38 30.63 7.5 30.63ZM7.5 25.81C6.72 25.81 6.09 26.44 6.09 27.22 6.09 28 6.72 28.63 7.5 28.63 8.28 28.63 8.91 28 8.91 27.22 8.91 26.44 8.28 25.81 7.5 25.81Z" class="MsftOfcResponsive_Fill_7823dc" fill="#7823DC"/><path d="M7.5 23.05C5.62 23.05 4.09 21.52 4.09 19.64 4.09 17.76 5.62 16.23 7.5 16.23 9.38 16.23 10.91 17.76 10.91 19.64 10.91 21.52 9.38 23.05 7.5 23.05ZM7.5 18.23C6.72 18.23 6.09 18.86 6.09 19.64 6.09 20.42 6.72 21.05 7.5 21.05 8.28 21.05 8.91 20.42 8.91 19.64 8.91 18.86 8.28 18.23 7.5 18.23Z" class="MsftOfcResponsive_Fill_7823dc" fill="#7823DC"/></g></g></svg>