<svg viewBox="0 0 32 32" xmlns="http://www.w3.org/2000/svg" xmlns:xlink="http://www.w3.org/1999/xlink" id="Layer_1" xml:space="preserve" overflow="hidden"><g><path d="M19.8 14 19.8 0 12.2 3.7 12.2 13.9C11 14.2 10 15.3 10 16.6L10 29.4C10 30.8 11.2 32.1 12.6 32.1L19.2 32.1C20.6 32.1 21.8 30.9 21.8 29.4L21.8 16.6C22 15.3 21 14.2 19.8 14L19.8 14ZM17.8 3.3 17.8 13.9 14.2 13.9 14.2 5 17.8 3.3 17.8 3.3 17.8 3.3ZM19.9 29.3C19.9 29.6 19.6 29.9 19.3 29.9L12.7 29.9C12.4 29.9 12.1 29.6 12.1 29.3L12.1 16.6C12.1 16.3 12.4 16 12.7 16L19.3 16C19.6 16 19.9 16.3 19.9 16.6L19.9 29.3 19.9 29.3 19.9 29.3Z" fill="#7823DC" fill-rule="evenodd" clip-rule="evenodd"/></g></svg>