<svg viewBox="0 0 32 32" xmlns="http://www.w3.org/2000/svg" xmlns:xlink="http://www.w3.org/1999/xlink" id="Graphic" overflow="hidden"><defs></defs><path d="M16 8C23.4628 7.94306 29.6407 13.7856 30 21.24L26.64 20.11 26.34 20.01 5.67 20.01 5.37 20.11 2 21.24C2.34913 13.781 8.5331 7.9327 16 8M16 6C7.24111 5.92243 0.0777406 12.96 0.000172606 21.7189 0.000110405 21.726 5.28693e-05 21.733 6.2137e-12 21.74L0 21.74 0 24 6 22 26 22 32 24 32 21.74C31.923 12.9774 24.7626 5.93344 16 6Z" fill="#7823DC"/><path d="M16 16C14.8954 16 14 16.8954 14 18 14 19.1046 14.8954 20 16 20 17.1046 20 18 19.1046 18 18 18 16.8954 17.1046 16 16 16Z" fill="#7823DC"/><path d="M18.27 10.98 14.74 18.4 16.55 19.26 20.07 11.84 18.27 10.98 18.27 10.98Z" fill="#7823DC"/><path d="M17 6.01 15 6.01 15 10.01 17 10.01 17 6.01 17 6.01Z" fill="#7823DC"/><path d="M4.77 10.98 3.77 12.71 7.23 14.71 8.23 12.98 4.77 10.98 4.77 10.98Z" fill="#7823DC"/><path d="M27.23 10.98 23.77 12.98 24.77 14.71 28.23 12.71 27.23 10.98 27.23 10.98Z" fill="#7823DC"/><path d="M26 24 6 24 4.02 26 28 26 26 24 26 24Z" fill="#7823DC"/></svg>