<svg viewBox="0 0 32 32" xmlns="http://www.w3.org/2000/svg" xmlns:xlink="http://www.w3.org/1999/xlink" id="Layer_2_00000144328325245699140920000014890284756443101063_" xml:space="preserve" overflow="hidden"><style>
.MsftOfcResponsive_Fill_7823dc {
 fill:#7823DC; 
}
</style>
<path d="" class="MsftOfcResponsive_Fill_7823dc" fill="#7823DC"/><path d="M4.4 30 2 30.9 0 31.7 0 29.6 4 28 4 30Z" class="MsftOfcResponsive_Fill_7823dc" fill="#7823DC"/><path d="M13.5 20.4 13.5 26.5 7.1 29 7 29 5.1 29.7 5.1 27.6 7 26.8 7 26.8 11.5 25.1 11.5 22.8 0 24.5 0 16 2 16 2 22.2Z" class="MsftOfcResponsive_Fill_7823dc" fill="#7823DC"/><path d="M32 16 32 24.5 20.5 22.8 20.5 25.1 25 26.8 25.3 26.9 27 27.6 27 29.7 25.2 29.1 25 29 18.5 26.5 18.5 20.4 30 22.2 30 16Z" class="MsftOfcResponsive_Fill_7823dc" fill="#7823DC"/><path d="M32 29.6 32 31.7 30.2 31 30 30.9 27.6 30 28.2 30 28.2 28.1 30 28.8 30.2 28.9Z" class="MsftOfcResponsive_Fill_7823dc" fill="#7823DC"/><rect x="0" y="30" width="32" height="2" class="MsftOfcResponsive_Fill_7823dc" fill="#7823DC"/><path d="M32 19.5 32 21.7 30 20.7 18 14.3 18 6 16 3.3 14 6 14 14.3 2 20.7 0 21.7 0 19.5 2 18.4 12 13.1 12 5.3 16 0 20 5.3 20 13.1 30 18.4Z" class="MsftOfcResponsive_Fill_7823dc" fill="#7823DC"/><path d="M27.5 24C26.2 24 25.2 25.6 25 26.8 25 26.9 25 27 25 27.1L25 32 30 32 30 27.1C30 25.9 28.9 24 27.5 24ZM27 30 27 27.1C27 26.8 27.3 26.3 27.5 26.1 27.7 26.3 28 26.9 28 27.1L28 30 27 30Z" class="MsftOfcResponsive_Fill_7823dc" fill="#7823DC"/><path d="M7 26.8C6.8 25.6 5.8 24 4.5 24 3.1 24 2 25.9 2 27.1L2 32 7 32 7 27.1C7 27 7 26.9 7 26.8ZM4 30 4 27.1C4 26.8 4.3 26.3 4.5 26.1 4.7 26.3 5 26.9 5 27.1L5 30 4 30Z" class="MsftOfcResponsive_Fill_7823dc" fill="#7823DC"/></svg>