<svg viewBox="0 0 29.22 29.22" xmlns="http://www.w3.org/2000/svg" xmlns:xlink="http://www.w3.org/1999/xlink" xml:space="preserve" overflow="hidden"><g id="Layer_3"></g><g id="Layer_1"></g><g id="Layer_2"></g><g id="Layer_4"></g><g id="Layer_5"><g><path d="M0 0 0 29.17 25.29 29.17 29.25 25.22 29.25 0 0 0ZM27.25 1.99 27.25 8.16 2 8.16 2 1.99 27.25 1.99ZM2 27.17 2 10.15 27.25 10.15 27.25 27.17 2 27.17Z" fill="#7823DC"/><path d="M4.05 24.82 25.22 24.82 25.22 12.15 4.05 12.15 4.05 24.82ZM6.05 14.15 23.22 14.15 23.22 22.82 6.05 22.82 6.05 14.15Z" fill="#7823DC"/><rect x="4.04" y="4.14" width="2" height="2" fill="#7823DC"/><rect x="10.41" y="4.14" width="2" height="2" fill="#7823DC"/><rect x="16.78" y="4.14" width="2" height="2" fill="#7823DC"/><rect x="23.15" y="4.14" width="2" height="2" fill="#7823DC"/></g></g></svg>