<svg viewBox="0 0 32 32" xmlns="http://www.w3.org/2000/svg" xmlns:xlink="http://www.w3.org/1999/xlink" id="Layer_1" overflow="hidden"><style>
.MsftOfcResponsive_Fill_7823dc {
 fill:#7823DC; 
}
</style>
<g><path d="M26.9 18 26.2 4 26.2 4C26.2 4 26.2 4 26.2 4 26.2 1.1 21.7 0 16 0 10.3 0 5.8 1.1 5.8 4 5.8 4 5.8 4 5.8 4L5.8 4 5.1 17.9 5.1 17.9C5.1 17.9 5.1 18 5.1 18 5.1 18 5.1 18 5.1 18L5.1 18 5.1 18C5.1 19.1 5.9 20.1 7.2 20.8L7.7 24.8 7.8 24.8 7.8 24.9C8.3 25.1 8.8 25.3 9.4 25.5L8 32 10 32 11.2 26C12.6 26.3 14.2 26.4 15.9 26.4 17.5 26.4 19 26.3 20.4 26L21.6 32 23.6 32 22.3 25.6C23 25.4 23.6 25.1 24.2 24.9L24.2 24.8 24.3 24.8 24.8 20.9C26.1 20.1 26.9 19.2 26.9 18 26.9 18 26.9 18 26.9 18L26.9 18 26.9 18 26.9 18ZM16 2C19.2 2 22 2.3 23.3 3L20 15.2 20 15.2C19.7 16.2 18 17 16.1 17 14.1 17 12.5 16.2 12.2 15.2L12.2 15.2 8.8 3C10.2 2.3 12.9 2 16 2L16 2ZM7.7 6.5 10.1 15.1 10.1 15.1C10.1 15.3 10.2 15.6 10.3 15.8L10.4 16 10.4 16C11.2 17.7 13.5 18.9 16.1 18.9 18.8 18.9 21 17.7 21.8 16L21.8 16 21.9 15.7C22 15.5 22 15.4 22 15.2L24.3 6.8 24.8 17.8 24.8 17.8C24.8 17.9 24.8 17.9 24.8 18 24.8 19.6 20.9 20.6 16 20.6 11.2 20.6 7.1 19.6 7.1 18 7.1 17.9 7.1 17.9 7.1 17.8L7.1 17.8 7.7 6.5 7.7 6.5 7.7 6.5ZM22.5 23.6C20.9 24.1 18.6 24.4 16 24.4 13.5 24.4 11.3 24.1 9.6 23.6L9.4 21.7C11.3 22.3 13.6 22.6 16.2 22.6 18.7 22.6 21 22.3 22.8 21.7L22.5 23.6 22.5 23.6 22.5 23.6Z" class="MsftOfcResponsive_Fill_7823dc" fill="#7823DC" fill-rule="evenodd" clip-rule="evenodd"/></g></svg>