<svg viewBox="0 0 32 32" xmlns="http://www.w3.org/2000/svg" xmlns:xlink="http://www.w3.org/1999/xlink" id="Layer_1" xml:space="preserve" overflow="hidden"><g id="Layer_2_00000153672027410828584440000004318808627006363015_"></g><g id="Layer_2_00000103981120671582451330000015814750687241510044_"></g><g id="Layer_2_00000130625076427418092810000005903251686592157099_"></g><g id="Layer_2_00000085964347954184681000000000355649944892313477_"></g><g id="Layer_2_00000018946082797421151980000008836874802702089886_"></g><g id="Layer_2_00000021804689057827181820000005630892102603028366_"></g><g id="Layer_2_00000093156637026916537620000011911187392566796989_"></g><g id="Layer_2_00000031185290306875418530000018357049157785389234_"></g><g><g><defs><path d="M5 32 27 32 27 0 5 0 5 32Z" id="SVGID_1_" fill="#7823DC"/></defs><defs><path d="M5 0 27 0 27 32 5 32 5 0Z" id="SVGID_00000005261222291958770190000003089679376535004306_" fill="#7823DC"/></defs><clipPath id="SVGID_00000061444672251750562460000010231721471057376411_"><use width="100%" height="100%" xlink:href="#SVGID_1_" overflow="visible"></use></clipPath><clipPath id="SVGID_00000047021788108268392740000010270207793103800733_" clip-path="url(#SVGID_00000061444672251750562460000010231721471057376411_)"><use width="100%" height="100%" xlink:href="#SVGID_00000005261222291958770190000003089679376535004306_" overflow="visible"></use></clipPath><g clip-path="url(#SVGID_00000047021788108268392740000010270207793103800733_)"><defs><path d="M5 32 27 32 27 0 5 0 5 32Z" id="SVGID_00000085952309897200724930000015575231422194733466_" fill="#7823DC"/></defs><clipPath id="SVGID_00000036971195660025822700000001673957343291991193_"><use width="100%" height="100%" xlink:href="#SVGID_00000085952309897200724930000015575231422194733466_" overflow="visible"></use></clipPath><path d="M9.6 26.2 8.1 27.8 6.9 26.2 8.3 24.8 9.6 26.2 9.6 26.2Z" fill="#7823DC" clip-path="url(#SVGID_00000036971195660025822700000001673957343291991193_)"/><path d="M8.3 24.8 9.6 23.4 11 24.8 9.6 26.2 8.3 24.8Z" fill="#7823DC" clip-path="url(#SVGID_00000036971195660025822700000001673957343291991193_)"/><path d="M9.6 23.4 11 22.1 12.3 23.4 11 24.8 9.6 23.4Z" fill="#7823DC" clip-path="url(#SVGID_00000036971195660025822700000001673957343291991193_)"/><path d="M11 24.8 12.3 23.4 13.7 24.8 12.3 26.2 11 24.8Z" fill="#7823DC" clip-path="url(#SVGID_00000036971195660025822700000001673957343291991193_)"/><path d="M12.3 26.2 13.7 24.8 15 26.2 13.7 27.6 12.3 26.2Z" fill="#7823DC" clip-path="url(#SVGID_00000036971195660025822700000001673957343291991193_)"/><path d="M13.7 24.8 15 23.4 16.4 24.8 15 26.2 13.7 24.8Z" fill="#7823DC" clip-path="url(#SVGID_00000036971195660025822700000001673957343291991193_)"/><path d="M15 23.4 16.4 22.1 17.7 23.4 16.4 24.8 15 23.4Z" fill="#7823DC" clip-path="url(#SVGID_00000036971195660025822700000001673957343291991193_)"/><path d="M16.4 24.8 17.7 23.4 19.1 24.8 17.7 26.2 16.4 24.8Z" fill="#7823DC" clip-path="url(#SVGID_00000036971195660025822700000001673957343291991193_)"/><path d="M17.7 26.2 19.1 24.8 20.4 26.2 19.1 27.6 17.7 26.2Z" fill="#7823DC" clip-path="url(#SVGID_00000036971195660025822700000001673957343291991193_)"/><path d="M19.1 24.8 20.4 23.4 21.8 24.8 20.4 26.2 19.1 24.8Z" fill="#7823DC" clip-path="url(#SVGID_00000036971195660025822700000001673957343291991193_)"/><path d="M20.4 23.4 21.8 22.1 23.1 23.4 21.8 24.8 20.4 23.4Z" fill="#7823DC" clip-path="url(#SVGID_00000036971195660025822700000001673957343291991193_)"/><path d="M21.8 24.8 23.1 23.4 24.5 24.8 23.1 26.2 21.8 24.8Z" fill="#7823DC" clip-path="url(#SVGID_00000036971195660025822700000001673957343291991193_)"/><path d="M23.2 26.2 24.5 24.8 25.9 26.2 24.5 27.6 23.2 26.2Z" fill="#7823DC" clip-path="url(#SVGID_00000036971195660025822700000001673957343291991193_)"/><path d="M17.3 23.3 15.4 23.3 15.4 1 17.3 1 17.3 23.3 17.3 23.3 17.3 23.3Z" fill="#7823DC" clip-path="url(#SVGID_00000036971195660025822700000001673957343291991193_)"/><path d="M6.1 10.7 6.1 8.8 26.7 8.8 26.7 10.7 6.1 10.7 6.1 10.7 6.1 10.7Z" fill="#7823DC" clip-path="url(#SVGID_00000036971195660025822700000001673957343291991193_)"/><path d="M6.9 5.4 8.1 3.9 11.2 6.4 10 7.9 6.9 5.4 6.9 5.4 6.9 5.4Z" fill="#7823DC" clip-path="url(#SVGID_00000036971195660025822700000001673957343291991193_)"/><path d="M9.9 2.2 11.5 1.1 13.6 4.5 12 5.6 9.9 2.2 9.9 2.2 9.9 2.2Z" fill="#7823DC" clip-path="url(#SVGID_00000036971195660025822700000001673957343291991193_)"/><path d="M21 1.2 22.6 2.3 20.3 5.6 18.7 4.5 21 1.2 21 1.2 21 1.2Z" fill="#7823DC" clip-path="url(#SVGID_00000036971195660025822700000001673957343291991193_)"/><path d="M24.3 3.9 25.5 5.5 22.4 7.9 21.2 6.4 24.3 3.9 24.3 3.9 24.3 3.9Z" fill="#7823DC" clip-path="url(#SVGID_00000036971195660025822700000001673957343291991193_)"/><path d="M24.5 24.8C24.2 25.4 23.8 25.9 23.4 26.5 21.7 28.7 19.2 29.9 16.4 29.9 13.6 29.9 11.2 28.7 9.5 26.5 9 26 8.6 25.4 8.3 24.8 7.9 25.4 7.4 25.9 6.9 26.2 7.2 26.8 7.6 27.5 8 28 10.1 30.5 13 31.9 16.4 31.9 19.8 31.9 22.7 30.5 24.8 28 25.2 27.5 25.6 26.9 25.9 26.3L24.5 24.8 24.5 24.8 24.5 24.8Z" fill="#7823DC" clip-path="url(#SVGID_00000036971195660025822700000001673957343291991193_)"/></g></g></g></svg>