<svg viewBox="0 0 32.11 31.76" xmlns="http://www.w3.org/2000/svg" xmlns:xlink="http://www.w3.org/1999/xlink" id="Outline_Final_icon" overflow="hidden"><defs></defs><path d="M15.76 24.97 13.02 22.46 10.19 22.66 7.56 25.01 5.96 23.91 6.64 20.45 5.16 17.94 2 16.8 2 14.92 5.48 13.72 6.52 11.15 6.05 7.61 7.67 6.76 10.4 9.34 12.96 9.34 15.72 6.8 17.98 8.21 19.05 6.52 15.49 4.29 12.18 7.34 11.2 7.34 8 4.33 3.89 6.49 4.46 10.89 3.97 12.13 0 13.5 0 18.21 3.81 19.57 4.53 20.81 3.75 24.81 7.71 27.55 11.01 24.61 12.31 24.52 15.46 27.41 19.17 25.41 18.22 23.65 15.76 24.97Z" fill="#7823DC"/><path d="M23.71 5.71 22.14 9.05 19.51 9.05 19.51 11.05 23.41 11.05 25.79 5.97C27.13 5.65 28.13 4.46 28.13 3.02 28.13 1.35 26.77-0.01 25.1-0.01 23.43-0.01 22.07 1.35 22.07 3.02 22.07 4.19 22.74 5.19 23.71 5.7ZM25.1 2C25.67 2 26.13 2.46 26.13 3.03 26.13 3.6 25.67 4.06 25.1 4.06 24.53 4.06 24.07 3.6 24.07 3.03 24.07 2.46 24.53 2 25.1 2Z" fill="#7823DC"/><path d="M26.88 10.06C26.88 10.51 27 10.92 27.2 11.29L24.98 12.91 19.52 12.91 19.52 14.91 25.63 14.91 28.83 12.58C29.04 12.64 29.26 12.68 29.49 12.68 30.93 12.68 32.1 11.51 32.1 10.07 32.1 8.63 30.93 7.46 29.49 7.46 28.05 7.46 26.88 8.63 26.88 10.07ZM29.5 9.44C29.84 9.44 30.11 9.71 30.11 10.05 30.11 10.39 29.84 10.66 29.5 10.66 29.16 10.66 28.89 10.39 28.89 10.05 28.89 9.71 29.16 9.44 29.5 9.44Z" fill="#7823DC"/><path d="M29.31 16.97C28.57 16.97 27.9 17.29 27.42 17.79L24.93 16.8 19.52 16.8 19.52 18.8 24.55 18.8 26.7 19.66C26.74 21.07 27.89 22.2 29.3 22.2 30.71 22.2 31.91 21.03 31.91 19.59 31.91 18.15 30.74 16.98 29.3 16.98ZM29.31 20.19C28.97 20.19 28.7 19.92 28.7 19.58 28.7 19.24 28.97 18.97 29.31 18.97 29.65 18.97 29.92 19.24 29.92 19.58 29.92 19.92 29.65 20.19 29.31 20.19Z" fill="#7823DC"/><path d="M25.85 25.69C25.85 25.69 25.79 25.69 25.76 25.69L23.42 20.69 19.52 20.69 19.52 22.69 22.15 22.69 23.9 26.42C23.25 26.98 22.82 27.79 22.82 28.72 22.82 30.39 24.18 31.75 25.85 31.75 27.52 31.75 28.88 30.39 28.88 28.72 28.88 27.05 27.52 25.69 25.85 25.69ZM25.85 29.76C25.28 29.76 24.82 29.3 24.82 28.73 24.82 28.16 25.28 27.7 25.85 27.7 26.42 27.7 26.88 28.16 26.88 28.73 26.88 29.3 26.42 29.76 25.85 29.76Z" fill="#7823DC"/><g><rect x="15.75" y="12.5" width="2" height="7.53" fill="#7823DC"/><path d="M9.82 12.5 7.81 20.03 9.88 20.03 10.28 18.51 12.5 18.51 12.9 20.03 14.97 20.03 12.99 12.5 9.83 12.5ZM10.81 16.51 11.35 14.5 11.44 14.5 11.97 16.51 10.81 16.51Z" fill="#7823DC"/></g></svg>