<svg viewBox="0 0 32 32" xmlns="http://www.w3.org/2000/svg" xmlns:xlink="http://www.w3.org/1999/xlink" id="Layer_1" overflow="hidden"><style>
.MsftOfcResponsive_Fill_7823dc {
 fill:#7823DC; 
}
</style>
<g><g><defs><path d="M-1 28.4 32 28.4 32 3.6-1 3.6-1 28.4Z" id="SVGID_1_" class="MsftOfcResponsive_Fill_7823dc" fill="#7823DC"/></defs><defs><path d="M-1 3.6 32 3.6 32 28.4-1 28.4-1 3.6Z" id="SVGID_00000093893527399979510210000009766199198061937854_" class="MsftOfcResponsive_Fill_7823dc" fill="#7823DC"/></defs><clipPath id="SVGID_00000103259721005950985280000006702408177181352895_"><use width="100%" height="100%" xlink:href="#SVGID_1_" overflow="visible"></use></clipPath><clipPath id="SVGID_00000038386574262678048760000000869544446579128479_" clip-path="url(#SVGID_00000103259721005950985280000006702408177181352895_)"><use width="100%" height="100%" xlink:href="#SVGID_00000093893527399979510210000009766199198061937854_" overflow="visible"></use></clipPath><g clip-path="url(#SVGID_00000038386574262678048760000000869544446579128479_)"><defs><path d="M-1 28.4 32 28.4 32 3.6-1 3.6-1 28.4Z" id="SVGID_00000086681979067871929540000010131291094203365519_" class="MsftOfcResponsive_Fill_7823dc" fill="#7823DC"/></defs><clipPath id="SVGID_00000176727486278574171590000013693835686742448822_"><use width="100%" height="100%" xlink:href="#SVGID_00000086681979067871929540000010131291094203365519_" overflow="visible"></use></clipPath><path d="M31.9 12.5 31.9 4.6 23.9 4.6 21.9 6.6 28.5 6.6 16.3 18.7 12.3 14.7 12.3 14.7 12.3 14.7 0 26.9 1.4 28.2 12.3 17.5 16.3 21.4 17.7 20 17.7 20 29.9 8 29.9 14.5 31.9 12.5Z" class="MsftOfcResponsive_Fill_7823dc" fill="#7823DC" clip-path="url(#SVGID_00000176727486278574171590000013693835686742448822_)"/></g></g></g></svg>