<svg viewBox="0 0 32 32" xmlns="http://www.w3.org/2000/svg" xmlns:xlink="http://www.w3.org/1999/xlink" id="Layer_5" overflow="hidden"><defs></defs><path d="M18.8 5.93 18.8 3.97 17 3.97 17 1.99 19.33 1.99 19.33 0 12.68 0 12.68 1.99 15.01 1.99 15.01 3.97 13.21 3.97 13.21 5.93 6.99 5.93 6.99 32 25.01 32 25.01 5.93 18.8 5.93ZM23.01 30 8.99 30 8.99 7.93 23.02 7.93 23.02 30Z" fill="#7823DC"/><g><path d="M13.01 18.59 16.03 18.59 16.03 21.8 18.03 21.8 18.03 13.34 16.03 13.34 16.03 16.59 13.01 16.59 13.01 13.31 11.01 13.31 11.01 21.76 13.01 21.76 13.01 18.59Z" fill="#7823DC"/><path d="M19.28 21.66C19.3 21.28 19.45 21.28 19.54 21.28 19.64 21.28 19.69 21.31 19.72 21.34 19.77 21.39 19.78 21.48 19.78 21.55 19.78 21.66 19.74 21.77 19.66 21.89 19.62 21.94 19.5 22.1 19.11 22.48 18.69 22.89 18.41 23.22 18.26 23.48 18.11 23.75 18.01 24.04 17.98 24.34L17.95 24.62 20.99 24.62 20.99 23.41 19.84 23.41C19.9 23.35 19.98 23.27 20.07 23.18 20.33 22.93 20.52 22.72 20.63 22.55 20.75 22.38 20.84 22.2 20.9 22.03 20.96 21.85 20.99 21.67 20.99 21.48 20.99 21.13 20.87 20.82 20.63 20.55 20.38 20.28 20.02 20.14 19.56 20.14 19.14 20.14 18.8 20.26 18.54 20.49 18.28 20.72 18.12 21.07 18.07 21.54L18.04 21.79 19.26 21.92 19.28 21.66Z" fill="#7823DC"/></g></svg>