<svg viewBox="0 0 32 32" xmlns="http://www.w3.org/2000/svg" xmlns:xlink="http://www.w3.org/1999/xlink" id="Layer_2" overflow="hidden"><path d="M24.3 26.8 10.7 26.8 7.8 29.5 7.8 32 27.7 32 27.7 29.7 24.3 26.8ZM9.7 30.3 11.6 28.5 23.5 28.5 25.6 30.3 9.7 30.3Z" fill="#7823DC"/><path d="M23.9 26C23.9 26 23.9 26 23.9 26L11.7 26C11.2 26 10.7 25.6 10.7 25L10.7 21.1C10.7 20.9 10.7 20.7 10.8 20.6L14.3 14.5C14.1 14.6 14 14.6 13.8 14.6L11.6 14.4 7.7 16.2C7.2 16.4 6.6 16.2 6.4 15.7L4.5 11.6C4.3 11.1 4.5 10.6 4.9 10.3L9 8 9.7 6.1C9.8 5.9 10 5.6 10.2 5.5L14.3 3.5 14.6 0.8C14.6 0.4 14.9 0.1 15.2 -2.22045e-16 15.5-0.1 15.9-0.1 16.2 0.1L20.2 3.2C20.2 3.2 20.3 3.2 20.3 3.3L23.8 6.7C23.9 6.9 23.9 7 24 7.2L26.4 13.9C26.5 14 26.5 14.2 26.4 14.4L24.9 25.1C24.8 25.6 24.4 26 23.9 26ZM12.7 23.9 23 24 24.4 14.4 22.2 8.1 18.9 4.9 16.3 2.9 16.1 4.4C16.1 4.7 15.9 5 15.6 5.2L11.4 7.2 10.7 9C10.6 9.2 10.5 9.4 10.3 9.5L6.7 11.6 7.8 14 11.1 12.5C11.3 12.4 11.4 12.4 11.6 12.4L13.8 12.6 16.5 11.3C16.9 11.1 17.4 11.2 17.7 11.5 18 11.8 18 12.3 17.8 12.7L12.8 21.3 12.7 23.9Z" fill="#7823DC"/><path d="" stroke="#7823DC" stroke-width="2.0394" stroke-linejoin="round" stroke-miterlimit="10" fill="#7823DC"/></svg>