<svg viewBox="0 0 32 32" xmlns="http://www.w3.org/2000/svg" xmlns:xlink="http://www.w3.org/1999/xlink" id="Layer_2_00000170983774880003330580000013561790806384835735_" overflow="hidden"><style>
.MsftOfcResponsive_Fill_7823dc {
 fill:#7823DC; 
}
</style>
<path d="M26 21.2 26 25.3 20.5 25.3 20.5 8.5 14 8.5 14 20.7 8 20.7 8 25.2 6.6 25.2 6.6 13.8 1.5 13.8 1.5 25.3 0 25.3 0 32 32 32 32 21.2 26 21.2ZM30 30 2 30 2 27.3 3.5 27.3 3.5 13.8 4.6 13.8 4.6 27.3 10 27.3 10 22.8 16 22.8 16 10.5 18.5 10.5 18.5 27.2 28 27.2 28 23.1 30 23.1 30 30Z" class="MsftOfcResponsive_Fill_7823dc" fill="#7823DC"/><path d="M17 0 17 10.5 18.5 10.5 18.5 26.7 25.3 26.7 25.3 0 17 0ZM19.2 2 23 2 23 24.8 19.1 24.8 19.1 2 19.2 2Z" class="MsftOfcResponsive_Fill_7823dc" fill="#7823DC"/><rect x="0.4" y="13.8" width="7.5" height="2" class="MsftOfcResponsive_Fill_7823dc" fill="#7823DC"/><g><path d="M5.9 2.7C7.9 1.6 10.7 1.9 12.6 2.5 12.1 4.3 11.1 7 9 8.2 7 9.3 4.2 9 2.3 8.4 2.8 6.7 3.8 3.9 5.9 2.7M4.9 1C0.8 3.4 0 9.8 0 9.8 0 9.8 5.9 12.3 10 10 14.1 7.7 14.9 1.2 14.9 1.2 14.9 1.2 9-1.4 4.9 1L4.9 1Z" class="MsftOfcResponsive_Fill_7823dc" fill="#7823DC"/><rect x="0.5" y="4.4" width="14" height="2" class="MsftOfcResponsive_Fill_7823dc" fill="#7823DC" transform="matrix(0.866 -0.5 0.5 0.866 -1.7039 4.4919)"/><rect x="4" y="2.7" width="2" height="4.1" class="MsftOfcResponsive_Fill_7823dc" fill="#7823DC" transform="matrix(0.9615 -0.2749 0.2749 0.9615 -1.1221 1.5513)"/><rect x="7.3" y="0.8" width="2" height="4.1" class="MsftOfcResponsive_Fill_7823dc" fill="#7823DC" transform="matrix(0.9615 -0.2749 0.2749 0.9615 -0.4639 2.3944)"/><rect x="6" y="6.1" width="2" height="4.1" class="MsftOfcResponsive_Fill_7823dc" fill="#7823DC" transform="matrix(0.7189 -0.6951 0.6951 0.7189 -3.698 7.1552)"/><rect x="9.3" y="4.2" width="2" height="4.1" class="MsftOfcResponsive_Fill_7823dc" fill="#7823DC" transform="matrix(0.7189 -0.6951 0.6951 0.7189 -1.4209 8.9331)"/></g></svg>