<svg viewBox="0 0 32 32" xmlns="http://www.w3.org/2000/svg" xmlns:xlink="http://www.w3.org/1999/xlink" id="Layer_3" overflow="hidden"><defs></defs><g><path d="M32 16 32 18 28 18 28 22.93C28 23.09 27.99 23.24 27.98 23.4 27.67 28.19 23.67 32 18.8 32L13.2 32C8.2 32 4.11 27.98 4 23L4.01 23C4.01 23 4 22.95 4 22.93L4 18 0 18 0 16 6 16 6 22.88C6 23 6.01 23.12 6.02 23.23 6.12 25.06 6.91 26.7 8.13 27.91 9.44 29.2 11.23 30 13.2 30L18.8 30C20.77 30 22.56 29.2 23.87 27.91 25.09 26.7 25.88 25.06 25.98 23.23 26 23.09 26 22.95 26 22.8L26 16 32 16Z" stroke-width="0" fill="#7823DC"/><path d="M27.99 12C27.86 9.77 26 8 23.74 8L17 8 17 6 18.86 6C20.04 6 21 5.04 21 3.86L21 2.2C21 1.02 20.04 0.06 18.86 0.06L13.14 0.06C11.96 0.06 11 1.02 11 2.2L11 3.86C11 5.04 11.96 6 13.14 6L15 6 15 8 8.26 8C6 8 4.14 9.77 4.01 12L0 12 0 14 6 14 6 13.12C6 12.72 6.07 12.35 6.21 12 6.65 10.87 7.73 10.05 9 10.01 9.04 10 9.08 10 9.12 10L15 10 15 21.37C13.65 20.74 11.9 20 11.06 20 9.4 20 8.06 21.35 8.06 23 8.06 24.65 9.4 26 11.06 26 12.13 26 14.7 24.79 16 24.15 17.3 24.79 19.87 26 20.94 26 22.6 26 23.94 24.65 23.94 23 23.94 21.35 22.6 20 20.94 20 20.1 20 18.35 20.74 17 21.37L17 10 22.88 10C24.2 10 25.34 10.83 25.79 12 25.93 12.35 26 12.72 26 13.12L26 14 32 14 32 12 27.99 12ZM11.06 24C10.5 24 10.06 23.55 10.06 23 10.06 22.45 10.5 22 11.05 22 11.41 22.01 12.53 22.44 13.76 23 12.53 23.56 11.41 23.99 11.06 24ZM20.94 22C21.5 22 21.94 22.45 21.94 23 21.94 23.55 21.5 24 20.95 24 20.59 23.99 19.47 23.56 18.24 23 19.47 22.44 20.59 22.01 20.94 22ZM13.14 4C13.06 4 13 3.94 13 3.86L13 2.2C13 2.13 13.06 2.06 13.14 2.06L18.86 2.06C18.94 2.06 19 2.13 19 2.2L19 3.86C19 3.94 18.94 4 18.86 4L13.14 4Z" stroke-width="0" fill="#7823DC"/></g><path d="M8.3 3.03 5.82 6 3.21 6 4.89 3.99 0 3.99 0 2 4.85 2 3.2 0 5.79 0 8.3 3.03Z" stroke-width="0" fill="#7823DC"/><path d="M32 3.03 29.52 6 26.91 6 28.59 3.99 23.7 3.99 23.7 2 28.55 2 26.9 0 29.49 0 32 3.03Z" stroke-width="0" fill="#7823DC"/></svg>