<svg viewBox="0 0 32 32" xmlns="http://www.w3.org/2000/svg" xmlns:xlink="http://www.w3.org/1999/xlink" overflow="hidden"><style>
.MsftOfcResponsive_Fill_7823dc {
 fill:#7823DC; 
}
</style>
<defs></defs><g id="a"></g><g id="b"></g><g id="c"><g><path d="M28.3 19.04 17 19.04 17 9.04 20.8 9.04 20.8 0.03 11.3 0.03 11.3 9.04 15 9.04 15 19.04 3.8 19.04 3.8 23.04 0 23.04 0 32.04 9.5 32.04 9.5 23.04 5.8 23.04 5.8 21.04 15 21.04 15 23.04 11.3 23.04 11.3 32.04 20.8 32.04 20.8 23.04 17 23.04 17 21.04 26.3 21.04 26.3 23.04 22.5 23.04 22.5 32.04 32 32.04 32 23.04 28.3 23.04 28.3 19.04ZM13.3 2.03 18.8 2.03 18.8 7.04 13.3 7.04 13.3 2.03ZM7.5 30.05 2 30.05 2 25.05 7.5 25.05 7.5 30.05ZM18.8 30.05 13.3 30.05 13.3 25.05 18.8 25.05 18.8 30.05ZM30 30.05 24.5 30.05 24.5 25.05 30 25.05 30 30.05Z" class="e MsftOfcResponsive_Fill_7823dc" fill="#7823DC"/><path d="M8.3 11.84 6.7 10.64 5.09 12.82 5.09 0.03 3.1 0.03 3.1 12.61 1.6 10.64 0 11.84 4.2 17.44 8.3 11.84Z" class="e MsftOfcResponsive_Fill_7823dc" fill="#7823DC"/><path d="M32.01 11.84 30.4 10.64 28.9 12.61 28.9 0.03 26.91 0.03 26.91 12.82 25.3 10.64 23.7 11.84 27.8 17.44 32.01 11.84Z" class="e MsftOfcResponsive_Fill_7823dc" fill="#7823DC"/></g></g><g id="d"></g></svg>