<svg viewBox="0 0 32 32" xmlns="http://www.w3.org/2000/svg" xmlns:xlink="http://www.w3.org/1999/xlink" overflow="hidden"><defs></defs><g id="Grid"><path d="M23.32 32 15.7 32C13.9382 32 12.51 30.5718 12.51 28.81L12.51 15.39 26.51 15.39 26.51 28.79C26.521 30.5518 25.1018 31.9889 23.3401 31.9999 23.3334 32 23.3267 32 23.32 32ZM14.51 17.39 14.51 28.79C14.499 29.4471 15.0227 29.9888 15.6798 29.9998 15.6866 29.9999 15.6933 30 15.7 30L23.32 30C23.9772 30 24.51 29.4672 24.51 28.81L24.51 17.39Z" fill="#7823DC"/><rect x="21" y="9.33" width="2" height="4.65" fill="#7823DC"/><rect x="17" y="8.36" width="2" height="4.75" fill="#7823DC"/><path d="M14.04 13.1 7.82 13.1 7.82 11.1 12.04 11.1 12.04 4.98 14.04 4.98 14.04 13.1Z" fill="#7823DC"/><path d="M29.39 28 25 28 25 26 29.43 26C29.7392 26.0056 29.9944 25.7594 30 25.4502 30.0001 25.4435 30.0001 25.4367 30 25.43L30 20.38C30 20.0707 29.7494 19.82 29.4401 19.8199 29.4367 19.8199 29.4334 19.8199 29.43 19.82L25 19.82 25 17.82 29.43 17.82C30.8455 17.82 31.9945 18.9645 32 20.38L32 25.43C32.0002 26.8494 30.8497 28.0001 29.4303 28.0003 29.4169 28.0003 29.4034 28.0002 29.39 28Z" fill="#7823DC"/><path d="M21.74 4.33C17.3095-0.841311 9.52573-1.44187 4.35442 2.98861-0.816893 7.41909-1.41746 15.2029 3.01303 20.3742 4.93299 22.6152 7.59302 24.0933 10.51 24.54L10.51 22.54C4.90171 21.4934 1.2037 16.0986 2.25025 10.4903 3.29681 4.88205 8.69163 1.18403 14.2999 2.23059 16.6015 2.66009 18.6889 3.85871 20.22 5.63L20.87 6.39 22.39 5.09Z" fill="#7823DC"/></g></svg>