<svg viewBox="0 0 32 32" xmlns="http://www.w3.org/2000/svg" xmlns:xlink="http://www.w3.org/1999/xlink" id="Layer_1" overflow="hidden"><g><path d="M13.8 2 14.8 3.9 13.8 5.8 2 5.8 2 2 13.8 2M15 0 0 0 0 7.9 15 7.9 17 4 15 0 15 0Z" fill="#7823DC"/></g><g><path d="M17.5 7.9 18.5 10 17.5 12.1 2 12.1 2 7.9 17.5 7.9M18.8 5.9 0 5.9 0 14 18.8 14 20.8 9.9 18.8 5.9 18.8 5.9Z" fill="#7823DC"/></g><g><path d="M21.3 14 22.3 16 21.3 18 2 18 2 14 21.3 14M22.5 12 0 12 0 20 22.5 20 24.5 16 22.5 12 22.5 12Z" fill="#7823DC"/></g><g><path d="M25 20 26 22 25 24 2 24 2 20 25 20M26.2 18 0 18 0 26 26.2 26 28.2 22 26.2 18 26.2 18Z" fill="#7823DC"/></g><g><path d="M28.8 26 29.8 28 28.8 30 2 30 2 26 28.8 26M30 24 0 24 0 32 30 32 32 28 30 24 30 24Z" fill="#7823DC"/></g></svg>