<svg viewBox="0 0 32 32" xmlns="http://www.w3.org/2000/svg" xmlns:xlink="http://www.w3.org/1999/xlink" id="Layer_1" overflow="hidden"><style>
.MsftOfcResponsive_Fill_7823dc {
 fill:#7823DC; 
}
</style>
<image width="64" height="64" xlink:href="1FF3B947.jpg" overflow="visible" transform="translate(-7232 -7652)"></image><path d="M32 32 0 32 0 26 25.5 26 25.5 28 2 28 2 30 30 30 30 27.6C30 26.6 29.5 25.7 28.6 25.2L12.8 18.3 10.8 21.8 0 21.8 0 19.8 9.7 19.8 12 15.8 29.6 23.5C31.1 24.3 32 25.9 32 27.7L32 32Z" class="MsftOfcResponsive_Fill_7823dc" fill="#7823DC"/><path d="M32 16 23 16 23 14 30 14 30 7.4 24.6 2 22.5 2C21.4 3.4 18.3 7 16 7 13.7 7 10.6 3.4 9.5 2L7.4 2 2 7.4 2 14 8 14 8 16 0 16 0 6.6 6.6 0 10.5 0 10.8 0.4C12.5 2.6 14.9 5 16 5 17.1 5 19.5 2.6 21.2 0.4L21.5 0 25.4 0 32 6.6 32 16Z" class="MsftOfcResponsive_Fill_7823dc" fill="#7823DC"/><rect x="13" y="17.7" width="6.5" height="2" class="MsftOfcResponsive_Fill_7823dc" fill="#7823DC" transform="matrix(0.537 -0.8436 0.8436 0.537 -8.2934 22.3894)"/><rect x="18" y="19.7" width="6.5" height="2" class="MsftOfcResponsive_Fill_7823dc" fill="#7823DC" transform="matrix(0.537 -0.8436 0.8436 0.537 -7.6656 27.5333)"/></svg>