<svg width="32" height="32" viewBox="0 0 32 32" xmlns="http://www.w3.org/2000/svg" xmlns:xlink="http://www.w3.org/1999/xlink" overflow="hidden"><defs></defs><g><g><defs><rect x="0" y="0" width="32" height="32" id="SVGID_1_" fill="#7823DC"/></defs><clipPath id="SVGID_2_"><use width="100%" height="100%" xlink:href="#SVGID_1_"></use></clipPath><path d="M28 13 20 13 20 6 28 6 28 13ZM22 11 26 11 26 8 22 8 22 11Z" fill="#7823DC" clip-path="url(#SVGID_2_)"/><path d="M2 4 30 4 30 20 2 20 2 4ZM0 2 0 22 32 22 32 6 28.1 2 0 2Z" fill="#7823DC" clip-path="url(#SVGID_2_)"/><path d="M18 28 14 28 14 22 18 22 18 28ZM20 20 12 20 12 30 20 30 20 20Z" fill="#7823DC" clip-path="url(#SVGID_2_)"/><rect x="6" y="28" width="20" height="2" fill="#7823DC" clip-path="url(#SVGID_2_)"/><path d="M15.2 13 12 16.2 8.9 13 6 13 12 19 18 13Z" fill="#7823DC" clip-path="url(#SVGID_2_)"/><rect x="4" y="13" width="2" height="7" fill="#7823DC" clip-path="url(#SVGID_2_)"/><rect x="18" y="13" width="2" height="7" fill="#7823DC" clip-path="url(#SVGID_2_)"/><g clip-path="url(#SVGID_2_)"><defs><rect x="0" y="0" width="32" height="32" id="SVGID_3_" fill="#7823DC"/></defs><clipPath id="SVGID_4_"><use width="100%" height="100%" xlink:href="#SVGID_3_"></use></clipPath><path d="M12 13C9.5 13 7.5 11 7.5 8.5 7.5 6 9.6 4 12 4 14.4 4 16.5 6 16.5 8.5 16.5 11 14.5 13 12 13ZM12 6C10.6 6 9.5 7.1 9.5 8.5 9.5 9.9 10.7 11 12 11 13.3 11 14.5 9.9 14.5 8.5 14.5 7.1 13.4 6 12 6Z" fill="#7823DC" clip-path="url(#SVGID_4_)"/></g></g></g></svg>