<svg viewBox="0 0 32 32" xmlns="http://www.w3.org/2000/svg" xmlns:xlink="http://www.w3.org/1999/xlink" id="Layer_1" overflow="hidden"><g><defs><path d="M32.5 32.7 32.5-0.7-0.8-0.7-0.8 32.7-0.8 32.7" id="SVGID_1_" fill="#7823DC"/></defs><defs><path d="M-0.8 32.7-0.8-0.7-0.8-0.7 32.5-0.7 32.5 32.7" id="SVGID_2_" fill="#7823DC"/></defs><clipPath id="SVGID_3_"><use width="100%" height="100%" xlink:href="#SVGID_1_" overflow="visible"></use></clipPath><clipPath id="SVGID_4_" clip-path="url(#SVGID_3_)"><use width="100%" height="100%" xlink:href="#SVGID_2_" overflow="visible"></use></clipPath><g clip-path="url(#SVGID_4_)"><defs><path d="M32.5 32.7 32.5-0.7-0.8-0.7-0.8 32.7-0.8 32.7" id="SVGID_5_" fill="#7823DC"/></defs><clipPath id="SVGID_6_"><use width="100%" height="100%" xlink:href="#SVGID_5_" overflow="visible"></use></clipPath><line x1="26.4" y1="30.5" x2="26.4" y2="30.5" fill="#7823DC" clip-path="url(#SVGID_6_)"/></g></g><path d="M26.5 32 17.1 32 17.1 30 24.5 30 24.5 20.3 26.5 20.3Z" fill="#7823DC"/><path d="M13 19C14.1 19 15 19.9 15 21 15 22.1 14.1 23 13 23 11.9 23 11 22.1 11 21 11 19.9 11.9 19 13 19M13 17C10.8 17 9 18.8 9 21 9 23.2 10.8 25 13 25 15.2 25 17 23.2 17 21 17 18.8 15.2 17 13 17L13 17Z" fill="#7823DC"/><path d="M20.9 2.4C21.5 2.4 22 2.9 22 3.5 22 4.1 21.5 4.6 20.9 4.6 20.3 4.6 19.8 4.1 19.8 3.5 19.8 2.9 20.2 2.4 20.9 2.4M20.9 0.4C19.2 0.4 17.8 1.8 17.8 3.5 17.8 5.2 19.2 6.6 20.9 6.6 22.6 6.6 24 5.2 24 3.5 24 1.8 22.6 0.4 20.9 0.4L20.9 0.4Z" fill="#7823DC"/><path d="M14.5 9C14.8 9 15 9.2 15 9.5 15 9.8 14.8 10 14.5 10 14.2 10 14 9.8 14 9.5 14 9.2 14.2 9 14.5 9M14.5 7C13.1 7 12 8.1 12 9.5 12 10.9 13.1 12 14.5 12 15.9 12 17 10.9 17 9.5 17 8.1 15.9 7 14.5 7L14.5 7Z" fill="#7823DC"/><path d="M23 14C23.6 14 24 14.4 24 15 24 15.6 23.6 16 23 16 22.4 16 22 15.6 22 15 22 14.4 22.4 14 23 14M23 12C21.3 12 20 13.3 20 15 20 16.7 21.3 18 23 18 24.7 18 26 16.7 26 15 26 13.3 24.7 12 23 12L23 12Z" fill="#7823DC"/><path d="M5.5 4C5.8 4 6 4.2 6 4.5 6 4.8 5.8 5 5.5 5 5.2 5 5 4.8 5 4.5 5 4.2 5.2 4 5.5 4M5.5 2C4.1 2 3 3.1 3 4.5 3 5.9 4.1 7 5.5 7 6.9 7 8 5.9 8 4.5 8 3.1 6.9 2 5.5 2L5.5 2Z" fill="#7823DC"/><path d="M8.2 26.4 7.1 28.1C2.7 25.3 0 20.5 0 15.3L0 15.2C0 12 1 9 2.7 6.6 3.1 7.2 3.7 7.6 4.3 7.8 2.9 9.9 2 12.5 2 15.2L2 15.3C2 19.8 4.3 24 8.2 26.4Z" fill="#7823DC"/><path d="M15.1 0C16.1 0 17.1 0.1 18.1 0.3 17.6 0.8 17.1 1.4 16.9 2.1 16.3 2 15.8 2 15.2 2 15.2 2 15.2 2 15.1 2 12.8 2 10.7 2.6 8.8 3.7 8.7 2.9 8.3 2.3 7.8 1.9 10 0.7 12.4 0 15.1 0Z" fill="#7823DC"/><path d="M32 22.3 26.2 22.3 25.3 20.3 29.6 20.3C28.6 15.8 27.2 9.6 26.3 8.2 25.8 7.3 25.1 6.5 24.4 5.8 24.8 5.2 25 4.5 25 3.8 26.1 4.8 27.1 5.9 27.9 7.2 29.3 9.5 31.4 20 31.7 21.2L32 22.3Z" fill="#7823DC"/><rect x="7.7" y="5.4" width="2" height="13.2" fill="#7823DC" transform="matrix(0.9111 -0.4122 0.4122 0.9111 -4.1717 4.6591)"/><rect x="10.9" y="13.7" width="6.7" height="2" fill="#7823DC" transform="matrix(0.0752027 -0.9972 0.9972 0.0752027 -1.4459 27.7725)"/><rect x="15.2" y="5.8" width="4.8" height="2" fill="#7823DC" transform="matrix(0.7446 -0.6675 0.6675 0.7446 -0.0420032 13.5045)"/><rect x="15.2" y="16.9" width="6.6" height="2" fill="#7823DC" transform="matrix(0.8209 -0.571 0.571 0.8209 -6.8965 13.8024)"/><path d="M13.9 24.4 10.9 32 8.7 32 12.1 23.6Z" fill="#7823DC"/></svg>