<svg viewBox="0 0 32 32" xmlns="http://www.w3.org/2000/svg" xmlns:xlink="http://www.w3.org/1999/xlink" id="Layer_1" overflow="hidden"><g><path d="M32 13.6 32 15.5 23.6 15.5 18.4 19.9 12.4 10.9 8.2 15.9 4.2 16.1 4.2 14.2 7.3 14.1 12.6 7.7 18.8 17 23 13.6Z" fill="#7823DC" fill-rule="evenodd" clip-rule="evenodd"/></g><path d="M29.8 11.9C29.7 11.3 29.5 10.8 29.3 10.2 29.3 10.2 29.3 10.1 29.3 10.1 29.2 9.8 29.1 9.5 29 9.3 26.6 3.8 21.3 0 15.1 0 6.8 0 0 6.9 0 15.5 0 20.9 2.7 25.7 6.9 28.5L8.1 26.9C4.5 24.5 2 20.2 2 15.5 2 8 7.9 2 15.1 2 20.8 2 25.6 5.7 27.4 10.8 27.4 10.9 27.5 11 27.5 11.2 27.6 11.4 27.7 11.7 27.7 12L29.7 12 29.8 11.9C29.8 11.9 29.8 11.9 29.8 11.9Z" fill="#7823DC"/><path d="M32 22.3 26.4 22.3 26.4 32 17 32 17 30 24.3 30 24.3 20.3 29.5 20.3C29.5 20.1 29.4 19.9 29.4 19.7 29.3 19 29.1 18.1 28.9 17.1L31 17.1C31.5 19.3 31.8 21 31.8 21.1L32 22.3Z" fill="#7823DC"/></svg>