<svg viewBox="0 0 32 32" xmlns="http://www.w3.org/2000/svg" xmlns:xlink="http://www.w3.org/1999/xlink" xml:space="preserve" overflow="hidden"><style>
.MsftOfcResponsive_Fill_7823dc {
 fill:#7823DC; 
}
</style>
<g id="Layer_3"></g><g id="Layer_1"><path d="M28.24 32 26.24 32 26.24 11.52C26.24 8.37 24.84 6.99 24.78 6.94L24.7 6.85C23.87 5.86 21.76 5.64 21.01 5.64L0 5.64 0 3.64 21.01 3.64C21.38 3.64 24.62 3.69 26.2 5.53 26.55 5.88 28.24 7.78 28.24 11.53L28.24 32Z" class="st1 MsftOfcResponsive_Fill_7823dc" fill="#7823DC"/><path d="M23.84 13.48C20.36 13.33 18.89 9.34 18.83 9.17L20.71 8.49C20.72 8.52 21.79 11.39 23.93 11.48L23.84 13.48Z" class="st1 MsftOfcResponsive_Fill_7823dc" fill="#7823DC"/><path d="M20.47 32.12 18.47 32.1C18.5 29.65 16.62 26.44 16.6 26.41 15.07 23.35 15.66 19.01 16.23 16.42 11.2 18.41 0.7 20.55 0.2 20.65L-0.2 18.69C-0.06 18.66 13.55 15.89 16.97 13.88 17.06 13.83 17.14 13.78 17.2 13.73L18.72 14.86C18.7 14.93 16.5 21.71 18.36 25.44 18.42 25.54 20.51 29.1 20.47 32.12Z" class="st1 MsftOfcResponsive_Fill_7823dc" fill="#7823DC"/></g><g id="Layer_2"></g></svg>