<svg viewBox="0 0 32 32" xmlns="http://www.w3.org/2000/svg" xmlns:xlink="http://www.w3.org/1999/xlink" id="Layer_1" overflow="hidden"><path d="M22 0 15.2 8 12.9 5.3 11.1 5.3 10.8 5.9 15.2 11.1 24.5 0Z" fill="#7823DC"/><path d="M0 2.3 0 4.3 5.7 4.3 5.7 13 0 13 0 15 7.7 15 7.7 2.3Z" fill="#7823DC"/><path d="M32 2.3 32 4.3 26.4 4.3 26.4 13 32 13 32 15 24.4 15 24.4 2.3Z" fill="#7823DC"/><path d="" fill="#7823DC"/><path d="M0 8.9 0 8.4 1.2 7.3 4 4.5 5.4 5.9 2.6 8.7 0 11.3 0 9" fill="#7823DC"/><path d="M5.4 11.5 4 12.9 1.2 10.1 0 8.9 0 6.1 1.2 7.3 2.6 8.7Z" fill="#7823DC"/><path d="M32 6.2 32 9 28.1 12.9 26.7 11.5Z" fill="#7823DC"/><path d="M32 8.4 32 11.2 30.9 10.1 29.5 8.7 26.7 5.9 28.1 4.5 30.9 7.3Z" fill="#7823DC"/><g><path d="M20.9 4.3 20.9 13 18.1 13 18.1 12.7 17.5 12 16.9 11.3 16.3 10.7 15.5 10.7 14.9 10.7 14 10.7 13.4 11.3 12.7 12 12.1 12.6 12.1 13 11 13 11 4.3 20.9 4.3M22.9 2.3 9.1 2.3 9.1 15 14.2 15 14.2 13.5 14.9 12.8 15.5 12.8 16.1 13.5 16.1 15 22.9 15 22.9 2.3 22.9 2.3Z" fill="#7823DC"/></g><path d="M31.6 24.2 31.6 31.6 31.5 32 29.3 32 29.6 31.1 29.6 25.1 26.1 22 16.3 20.2 16.2 20.2 16.6 18.2 18.1 18.5 27 20.1Z" fill="#7823DC"/><path d="M18.1 12.6 18.1 20.2 16.1 20.2 16.1 13.4 15.5 12.8 14.9 12.8 14.2 13.5 14.2 26.8 11.7 28 5.3 26.1 11.3 30.3 12.8 32 12.7 32 10.2 32 9.9 31.7 3.8 27.5 3.8 23.7 11.5 25.8 12.2 25.5 12.2 12.6 14 10.8 16.3 10.8Z" fill="#7823DC"/></svg>