<svg viewBox="0 0 32 32" xmlns="http://www.w3.org/2000/svg" xmlns:xlink="http://www.w3.org/1999/xlink" id="Layer_2_00000144328325245699140920000014890284756443101063_" xml:space="preserve" overflow="hidden"><g><path d="M5 24.1C6.7 24.1 8 22.7 8 21.1 8 19.4 6.6 18.1 5 18.1 3.3 18.1 2 19.5 2 21.1 2 22.7 3.3 24.1 5 24.1L5 24.1ZM5 20.1C5.6 20.1 6 20.6 6 21.1 6 21.7 5.5 22.1 5 22.1 4.4 22.1 4 21.6 4 21.1 4 20.5 4.4 20.1 5 20.1L5 20.1Z" fill="#7823DC" fill-rule="evenodd" clip-rule="evenodd"/><path d="M5 27.3 2.5 24 0 24 0 32 2 32 2 26.7 5 30.7 8 26.7 8 32 10 32 10 24 7.5 24 5 27.3 5 27.3Z" fill="#7823DC" fill-rule="evenodd" clip-rule="evenodd"/></g><g><path d="M16 24.1C17.7 24.1 19 22.7 19 21.1 19 19.4 17.6 18.1 16 18.1 14.3 18.1 13 19.5 13 21.1 13 22.7 14.3 24.1 16 24.1L16 24.1ZM16 20.1C16.6 20.1 17 20.6 17 21.1 17 21.7 16.5 22.1 16 22.1 15.4 22.1 15 21.6 15 21.1 15 20.5 15.4 20.1 16 20.1L16 20.1Z" fill="#7823DC" fill-rule="evenodd" clip-rule="evenodd"/><path d="M16 27.3 13.5 24 11 24 11 32 13 32 13 26.7 16 30.7 19 26.7 19 32 21 32 21 24 18.5 24 16 27.3 16 27.3Z" fill="#7823DC" fill-rule="evenodd" clip-rule="evenodd"/></g><g><path d="M27 24.1C28.7 24.1 30 22.7 30 21.1 30 19.4 28.6 18.1 27 18.1 25.3 18.1 24 19.5 24 21.1 24 22.7 25.4 24.1 27 24.1L27 24.1ZM27 20.1C27.6 20.1 28 20.6 28 21.1 28 21.7 27.5 22.1 27 22.1 26.4 22.1 26 21.6 26 21.1 26 20.5 26.5 20.1 27 20.1L27 20.1Z" fill="#7823DC" fill-rule="evenodd" clip-rule="evenodd"/><path d="M27 27.3 24.5 24 22 24 22 32 24 32 24 26.7 27 30.7 30 26.7 30 32 32 32 32 24 29.5 24 27 27.3 27 27.3Z" fill="#7823DC" fill-rule="evenodd" clip-rule="evenodd"/></g><path d="M17.8 5.6 17.8 2.8 0 2.8 0 13.3 3.4 13.3 3.4 16.9 7.3 13.3 9 13.3 9 16 19.4 16 23.3 19.6 23.3 16 25.4 16 25.4 5.6 17.8 5.6ZM15.8 7.6 15.8 11.3 11 11.3 11 7.6 15.8 7.6ZM5.4 12.3 5.4 11.2 2 11.2 2 4.8 15.8 4.8 15.8 5.6 9 5.6 9 11.3 6.4 11.3 5.4 12.3ZM21.4 14 21.4 15.1 20.2 14 11 14 11 13.2 17.7 13.2 17.7 7.6 23.5 7.6 23.5 14 21.4 14Z" fill="#7823DC"/><path d="M28 15.1 26.6 9.7 24.6 9.7 24.6 7.7 28.1 7.7 28.6 9.5 29.5 7.7 30 7.7 30 2 16.2 2 16.2 4 14.2 4 14.2 0 32 0 32 9.7 30.7 9.7Z" fill="#7823DC"/></svg>