<svg viewBox="0 0 31.95 32" xmlns="http://www.w3.org/2000/svg" xmlns:xlink="http://www.w3.org/1999/xlink" id="Layer_1" overflow="hidden"><style>
.MsftOfcResponsive_Fill_7823dc {
 fill:#7823DC; 
}
</style>
<defs></defs><path d="M31.95 17.39C31.95 14.64 29.71 12.4 26.96 12.4L15.39 12.4 17.68 10.11C18.93 8.86 19.63 7.19 19.63 5.41 19.63 3.63 18.94 1.97 17.68 0.71L16.97 -8.88178e-16 4.56 12.41C2.01 12.63 0 14.78 0 17.38 0 20.13 2.24 22.37 4.99 22.37L24.54 22.37 20.97 25.94C18.37 24.03 14.69 24.24 12.33 26.59L8.34 30.58 9.75 31.99 13.74 28C15.31 26.43 17.73 26.22 19.53 27.37L16.32 30.58 17.73 31.99 22.43 27.29 22.43 27.29 27.38 22.34C29.93 22.12 31.94 19.97 31.94 17.37ZM16.9 2.9C17.37 3.64 17.63 4.5 17.63 5.41 17.63 6.65 17.15 7.82 16.27 8.7L12.57 12.4 7.4 12.4 16.9 2.9ZM2 17.39C2 15.74 3.34 14.4 4.99 14.4L26.95 14.4C28.6 14.4 29.94 15.74 29.94 17.39 29.94 19.04 28.6 20.38 26.95 20.38L4.99 20.38C3.34 20.38 2 19.04 2 17.39Z" class="MsftOfcResponsive_Fill_7823dc" fill="#7823DC"/></svg>