<svg viewBox="0 0 32 32.01" xmlns="http://www.w3.org/2000/svg" xmlns:xlink="http://www.w3.org/1999/xlink" id="Layer_1" overflow="hidden"><style>
.MsftOfcThm_Text2_lumMod_100_Fill_v2 {
 fill:#7823DC; 
}
</style>
<defs></defs><path d="M23.55 24.01 21.71 24.01 20 22.03 20 16.94 22 16.94 22 13.94 24 13.94 24 7.98 17.44 7.98 17.44 8.98 14.55 9.01 14.55 7.98 8 7.98 8 13.94 9.88 13.94 9.88 16.94 12 16.94 12 22.03 10.28 24.01 8.44 24.01 8.44 27.01 6.5 27.01 6.5 32.01 25.5 32.01 25.5 27.01 23.55 27.01 23.55 24.01ZM10 9.98 12.55 9.98 12.55 11.01 19.44 11.01 19.44 10.01 22 9.98 22 11.94 10 11.94 10 9.98ZM11.88 14.94 11.88 13.94 20 13.94 20 14.94 11.88 14.94ZM19.06 24.01 12.93 24.01 14 22.78 14 16.94 18 16.94 18 22.78 19.06 24.01ZM10.44 26.01 21.55 26.01 21.55 27 10.44 27 10.44 26.01ZM23.5 30.01 8.5 30.01 8.5 29.01 23.5 29.01 23.5 30.01ZM32 12.98 32 19.02 29.25 20 28.19 22.55 28.77 23.76 27.2 25.33 26 22.6 27.74 18.41 30 17.61 30 14.39 27.74 13.59 26 9.4 27.03 7.24 24.76 4.96 22.6 5.99 18.41 4.25 17.6 2 14.4 2 13.59 4.25 9.4 5.99 7.24 4.96 4.97 7.24 6 9.4 4.26 13.59 2 14.39 2 17.61 4.26 18.41 6 22.6 4.8 25.33 3.23 23.76 3.81 22.55 2.75 20 5.77316e-15 19.02 5.77316e-15 12.98 2.75 12 3.81 9.45 2.56 6.82 6.83 2.55 9.46 3.8 12.01 2.75 12.98 0 19.02 0 19.99 2.75 22.54 3.8 25.17 2.55 29.44 6.82 28.19 9.45 29.25 12 32 12.98Z" class="MsftOfcThm_Text2_lumMod_100_Fill_v2" stroke-width="0" fill="#7823DC"/></svg>