<svg viewBox="0 0 32 32" xmlns="http://www.w3.org/2000/svg" xmlns:xlink="http://www.w3.org/1999/xlink" id="Layer_1" overflow="hidden"><style>
.MsftOfcResponsive_Fill_7823dc {
 fill:#7823DC; 
}
</style>
<defs></defs><path d="M31.69 0 19.69 0 19.69 5 12.31 5 12.31 0 0 0 0 12 12.31 12 12.31 7 19.69 7 19.69 10.91 10.59 20 0 20 0 32 12.31 32 12.31 27 19.69 27 19.69 32 32 32 32 20 19.69 20 19.69 25 12.31 25 12.31 21.11 21.42 12 32 12 32 0ZM10.31 10 2 10 2 2 10.31 2ZM21.69 22 30 22 30 30 21.69 30ZM10.31 30 2 30 2 22 10.31 22ZM30 10 21.69 10 21.69 2 30 2Z" class="MsftOfcResponsive_Fill_7823dc" fill="#7823DC"/></svg>