<svg viewBox="0 0 31.87 31.97" xmlns="http://www.w3.org/2000/svg" xmlns:xlink="http://www.w3.org/1999/xlink" id="Layer_2" overflow="hidden"><style>
.MsftOfcResponsive_Fill_7823dc {
 fill:#7823DC; 
}
</style>
<defs></defs><path d="M21.87 24C23.52 24 24.87 22.65 24.87 21 24.87 19.35 23.52 18 21.87 18 20.22 18 18.87 19.35 18.87 21 18.87 22.65 20.22 24 21.87 24ZM21.87 20C22.42 20 22.87 20.45 22.87 21 22.87 21.55 22.42 22 21.87 22 21.32 22 20.87 21.55 20.87 21 20.87 20.45 21.32 20 21.87 20Z" class="MsftOfcResponsive_Fill_7823dc" fill="#7823DC"/><path d="M21.87 27.31 19.37 23.97 16.87 23.97 16.87 31.97 18.87 31.97 18.87 26.64 21.87 30.64 24.87 26.64 24.87 31.97 26.87 31.97 26.87 23.97 24.37 23.97 21.87 27.31Z" class="MsftOfcResponsive_Fill_7823dc" fill="#7823DC"/><path d="M9.87 24C11.52 24 12.87 22.65 12.87 21 12.87 19.35 11.52 18 9.87 18 8.22 18 6.87 19.35 6.87 21 6.87 22.65 8.22 24 9.87 24ZM9.87 20C10.42 20 10.87 20.45 10.87 21 10.87 21.55 10.42 22 9.87 22 9.32 22 8.87 21.55 8.87 21 8.87 20.45 9.32 20 9.87 20Z" class="MsftOfcResponsive_Fill_7823dc" fill="#7823DC"/><path d="M9.87 27.31 7.37 23.97 4.87 23.97 4.87 31.97 6.87 31.97 6.87 26.64 9.87 30.64 12.87 26.64 12.87 31.97 14.87 31.97 14.87 23.97 12.37 23.97 9.87 27.31Z" class="MsftOfcResponsive_Fill_7823dc" fill="#7823DC"/><path d="M21.46 3.77 21.46 0 0 0 0 13.37 2.88 13.37 2.88 17.78 7.72 13.37 10.4 13.37 10.4 17.1 24.15 17.1 28.99 21.49 28.99 17.1 31.87 17.1 31.87 3.77 21.47 3.77ZM6.94 11.37 4.88 13.25 4.88 11.37 2 11.37 2 2 19.46 2 19.46 3.77 10.4 3.77 10.4 10.02 12.4 10.02 12.4 5.77 19.46 5.77 19.46 11.36 6.94 11.36ZM29.86 15.1 26.98 15.1 26.98 16.98 24.91 15.1 12.4 15.1 12.4 13.37 21.46 13.37 21.46 5.77 29.86 5.77 29.86 15.1Z" class="MsftOfcResponsive_Fill_7823dc" fill="#7823DC"/><path d="M15.29 8.32 14.32 7.35 12.9 8.76 15.29 11.15 18.94 7.5 17.53 6.09 15.29 8.32Z" class="MsftOfcResponsive_Fill_7823dc" fill="#7823DC"/></svg>