<svg viewBox="0 0 32 32" xmlns="http://www.w3.org/2000/svg" xmlns:xlink="http://www.w3.org/1999/xlink" id="Layer_1" overflow="hidden"><style>
.MsftOfcResponsive_Fill_7823dc {
 fill:#7823DC; 
}
</style>
<defs></defs><path d="M32 6.82 32 6.82 32 4.91 32 4.91 19.4 1 16 0 12.59 1 0 4.91 0 4.91 0 6.82 0 6.82 0 25.18 0 25.18 0 27.09 0 27.09 12.6 31 16 32 19.41 31 32 27.09 32 27.09 32 25.19 32 25.19 32 6.82ZM16 2.09 28.3 5.86 16 9.64 3.7 5.86ZM2 7.43 12.6 10.69 15 11.42 15 20.58 12.59 21.31 2 24.57ZM3.7 26.14 15 22.67 15 29.6ZM17 29.6 17 22.67 28.3 26.14ZM30 24.6 19.4 21.31 17 20.58 17 11.42 19.41 10.69 30 7.43Z" class="MsftOfcResponsive_Fill_7823dc" fill="#7823DC"/></svg>