<svg viewBox="0 0 32 32" xmlns="http://www.w3.org/2000/svg" xmlns:xlink="http://www.w3.org/1999/xlink" id="Layer_1" overflow="hidden"><style>
.MsftOfcResponsive_Fill_7823dc {
 fill:#7823DC; 
}
</style>
<defs></defs><path d="M30 32 23.87 32 23.87 24.66C22.51 24.58 19.91 24.49 18.04 24.72 16.19 24.95 8.78 29.21 4.54 31.85L4.3 32 0.04 32 1.36 30.37C1.52 30.18 5.21 25.64 12.96 18.73 12.96 17.72 13.01 16.81 13.04 15.99 13.12 14.24 13.19 12.58 12.78 12.16 12.68 12.05 12.46 12 12.13 12L0 12 0 10 12.14 10C13.03 10 13.74 10.26 14.23 10.78 15.22 11.82 15.15 13.51 15.04 16.08 15 17 14.96 18.04 14.96 19.19L14.96 19.64 14.62 19.94C10.17 23.89 7.01 27.11 5.1 29.17 8.39 27.17 15.46 23.03 17.79 22.75 20.62 22.4 24.77 22.73 24.94 22.75L25.86 22.83 25.86 30.02 26.75 30.02C27.04 27.48 27.55 22.86 27.55 21.87 27.55 21.53 27.49 21.14 26.74 20.98 24.05 20.38 21.15 20.09 21.12 20.08L20.22 19.99 20.22 19.08C20.22 17.15 20.31 15.95 20.38 15.07 20.42 14.56 20.45 14.15 20.45 13.74 20.45 13.46 20.45 12.89 18.98 12.2 16.19 10.87 14.77 9.63 14.77 6.47L14.77 3.74C14.77 1.68 16.44 0.01 18.5 0.01 20.56 0.01 22.23 1.68 22.23 3.74L22.23 7.01 32 7.01 32 9.01 20.23 9.01 20.23 3.73C20.23 2.78 19.45 2 18.5 2 17.55 2 16.77 2.78 16.77 3.73L16.77 6.46C16.77 8.49 17.31 9.18 19.83 10.38 20.48 10.69 22.45 11.62 22.45 13.73 22.45 14.19 22.42 14.64 22.37 15.21 22.31 15.95 22.25 16.84 22.23 18.18 23.34 18.32 25.28 18.59 27.18 19.01 28.66 19.34 29.55 20.4 29.55 21.85 29.55 22.99 29.02 27.78 28.76 30L29.99 30 29.99 32Z" class="MsftOfcResponsive_Fill_7823dc" stroke-width="0" fill="#7823DC"/></svg>