<svg viewBox="0 0 31.93 32" xmlns="http://www.w3.org/2000/svg" xmlns:xlink="http://www.w3.org/1999/xlink" id="Layer_1" overflow="hidden"><style>
.MsftOfcResponsive_Fill_7823dc {
 fill:#7823DC; 
}
</style>
<defs></defs><rect x="10.23" y="2" width="11.64" height="2" class="MsftOfcResponsive_Fill_7823dc" fill="#7823DC"/><path d="M29.35 32 2.59 32C1.16 32 0 30.68 0 29.05L0 4.95C0 3.32 1.16 2 2.59 2L5.96 2 5.96 4 2.59 4C2.31 4 2 4.41 2 4.95L2 29.05C2 29.59 2.31 30 2.59 30L29.35 30C29.63 30 29.93 29.59 29.93 29.05L29.93 4.95C29.93 4.41 29.62 4 29.35 4L25.96 4 25.96 2 29.35 2C30.78 2 31.93 3.32 31.93 4.95L31.93 29.05C31.93 30.68 30.77 32 29.35 32Z" class="MsftOfcResponsive_Fill_7823dc" fill="#7823DC"/><path d="M14.98 28 8.62 28 8.62 20.34 8.37 20.68 4.42 17.2 9.61 10.02 14.98 10.02 14.98 27.99ZM10.62 26 12.98 26 12.98 12.03 10.64 12.03 7.11 16.91 8.04 17.73 10.62 14.17 10.62 26.01Z" class="MsftOfcResponsive_Fill_7823dc" fill="#7823DC"/><path d="M20.97 28C17.5 28 14.78 24.05 14.78 19.01 14.78 13.97 17.5 10.02 20.97 10.02 24.44 10.02 27.16 13.97 27.16 19.01 27.16 24.05 24.44 28 20.97 28ZM20.97 12.03C18.7 12.03 16.78 15.23 16.78 19.02 16.78 22.81 18.7 26.01 20.97 26.01 23.24 26.01 25.16 22.81 25.16 19.02 25.16 15.23 23.24 12.03 20.97 12.03Z" class="MsftOfcResponsive_Fill_7823dc" fill="#7823DC"/><path d="M20.97 24.17C19.13 24.17 18.29 21.5 18.29 19.01 18.29 16.52 19.13 13.85 20.97 13.85 22.81 13.85 23.65 16.52 23.65 19.01 23.65 21.5 22.81 24.17 20.97 24.17ZM20.97 15.95C20.7 16.31 20.29 17.37 20.29 19.01 20.29 20.65 20.71 21.72 20.97 22.07 21.24 21.71 21.65 20.65 21.65 19.01 21.65 17.37 21.23 16.3 20.97 15.95Z" class="MsftOfcResponsive_Fill_7823dc" fill="#7823DC"/><path d="M27.96 8 20.46 8 20.46 0 27.96 0 27.96 8ZM22.46 6 25.96 6 25.96 2 22.46 2 22.46 6Z" class="MsftOfcResponsive_Fill_7823dc" fill="#7823DC"/><path d="M11.46 8 3.96 8 3.96 0 11.46 0 11.46 8ZM5.96 6 9.46 6 9.46 2 5.96 2 5.96 6Z" class="MsftOfcResponsive_Fill_7823dc" fill="#7823DC"/></svg>