<svg width="32" height="32" viewBox="0 0 32 32" xmlns="http://www.w3.org/2000/svg" xmlns:xlink="http://www.w3.org/1999/xlink" overflow="hidden"><style>
.MsftOfcResponsive_Fill_7823dc {
 fill:#7823DC; 
}
</style>
<defs></defs><g><g><path d="M3.7 0.1 3.64 0 1.38 0 2.02 1 0 1 0 3 6.2 3 6.2 2.97 8 3.5 8 4.1 6 4.1 6 6.1 8 6.1 8 8.1 4.96 8.1C4.59 6.87 3.48 6 2.1 6 1.26 6 0.53 6.32 0 6.85L0 11.17C0.53 11.68 1.27 12 2.1 12 3.41 12 4.47 11.23 4.9 10.1L8 10.1 9.2 10.1 10 10.1 10 2.1 3.7 0.1ZM2.1 10C1.5 10 1.1 9.6 1.1 9 1.1 8.4 1.6 8 2.1 8 2.7 8 3.1 8.4 3.1 9 3.1 9.6 2.7 10 2.1 10Z" class="MsftOfcResponsive_Fill_7823dc" fill="#7823DC"/></g><g><path d="M13.7 20.1 9.8 14 0 14 0 16 2 16 2 21 0 21 0 23 2 23 2 28.1 0 28.1 0 30.1 9.3 30.1C9.73 31.23 10.79 32 12.1 32 13.41 32 14.47 31.23 14.9 30.1L18 30.1 19.2 30.1 20 30.1 20 22.1 13.7 20.1ZM4 16 8.8 16 12.02 21 4 21 4 16ZM12.1 30C11.5 30 11.1 29.6 11.1 29 11.1 28.4 11.6 28 12.1 28 12.7 28 13.1 28.4 13.1 29 13.1 29.6 12.7 30 12.1 30ZM18 24.1 16 24.1 16 26.1 18 26.1 18 28.1 14.96 28.1C14.59 26.87 13.49 26 12.1 26 10.71 26 9.61 26.87 9.24 28.1L4 28.1 4 23 16.2 23 16.2 22.97 18 23.5 18 24.1Z" class="MsftOfcResponsive_Fill_7823dc" fill="#7823DC"/></g><g><path d="M32 14.1 29.47 14.1 29.47 9 32 9 32 7 29.47 7 29.47 2 32 2 32 0 20.27 0 15.95 7 13.47 7 13.47 7.7 13.47 9 13.47 12.1 15.47 14.1 15.47 9 27.47 9 27.47 14.1 22.48 14.1C22.06 12.87 20.97 12 19.67 12 18.29 12 17.18 12.87 16.81 14.1L15.47 14.1 16.7 15.33C16.86 16.86 18.08 18 19.67 18 20.98 18 22.04 17.23 22.47 16.1L32 16.1 32 14.1ZM19.67 16C19.07 16 18.67 15.6 18.67 15 18.67 14.4 19.07 14 19.67 14 20.27 14 20.67 14.4 20.67 15 20.67 15.6 20.27 16 19.67 16ZM27.47 7 18.3 7 21.27 2 27.47 2 27.47 7Z" class="MsftOfcResponsive_Fill_7823dc" fill="#7823DC"/></g><g><path d="M32 25 26.83 25 29.8 20 32 20 32 18 28.8 18 24.48 25 22 25 22 25.7 22 27 22 30.1 23.9 32 24 32 24 27 32 27Z" class="MsftOfcResponsive_Fill_7823dc" fill="#7823DC"/></g><g><path d="M28.82 30C27.48 30 26.4 30.82 26 32L31.59 32C31.14 30.82 30.08 30 28.82 30Z" class="MsftOfcResponsive_Fill_7823dc" fill="#7823DC"/></g></g></svg>