<svg viewBox="0 0 31.99 31.99" xmlns="http://www.w3.org/2000/svg" xmlns:xlink="http://www.w3.org/1999/xlink" id="Layer_1" overflow="hidden"><style>
.MsftOfcResponsive_Fill_7823dc {
 fill:#7823DC; 
}
</style>
<defs></defs><path d="M29.45 2.52C27.85 0.91 25.67 0 23.4 0L23.4 0C21.11 0 18.91 0.91 17.3 2.54 17.22 2.62 17.15 2.7 17.08 2.78 14.78 2.02 12.31 3.27 11.55 5.57 11.18 6.7 11.28 7.94 11.84 8.99L0.11 30.51C-0.14 31.01 0.05 31.62 0.55 31.88 0.84 32.03 1.18 32.03 1.47 31.88L22.03 20.64 22.03 26.03C22.1 27.65 23.47 28.92 25.09 28.85 26.62 28.79 27.84 27.56 27.91 26.03L27.91 24.7C29.42 25.15 31 24.3 31.46 22.8 31.54 22.53 31.58 22.25 31.58 21.97L31.58 11.29C31.58 11.29 31.58 11.22 31.58 11.19 32.54 8.12 31.72 4.78 29.43 2.51ZM14.04 5.25C14.79 4.5 15.95 4.35 16.87 4.87L16.87 4.87C16.87 4.87 16.97 4.92 17.02 4.94L17.05 4.94C17.11 4.96 17.16 4.97 17.22 4.98L17.22 4.98C17.28 4.98 17.34 4.98 17.4 4.98L17.4 4.98C17.46 4.98 17.53 4.97 17.59 4.95L17.59 4.95C17.65 4.93 17.71 4.91 17.77 4.88L17.77 4.88C17.83 4.85 17.88 4.82 17.93 4.78L17.93 4.78C17.93 4.78 18.01 4.71 18.05 4.66L18.08 4.63 18.13 4.58C18.33 4.35 18.54 4.14 18.78 3.94 20 2.71 21.67 2.02 23.4 2.01L23.4 2.01C27.02 2.01 29.95 4.96 29.94 8.58 29.94 10.31 29.25 11.96 28.03 13.19 27.83 13.39 27.61 13.58 27.38 13.75L27.34 13.79 27.29 13.83C27.29 13.83 27.22 13.9 27.19 13.94L27.16 13.98C27.16 13.98 27.1 14.07 27.08 14.11L27.08 14.14C27.08 14.14 27.04 14.24 27.02 14.29L27.02 14.32C27.01 14.37 27 14.43 26.99 14.48L26.99 14.51C26.99 14.56 26.99 14.62 26.99 14.67L26.99 14.7C26.99 14.75 27.01 14.81 27.03 14.86L27.03 14.9C27.05 14.95 27.07 15 27.1 15.05L27.1 15.05C27.75 16.17 27.37 17.6 26.25 18.25 25.45 18.72 24.45 18.67 23.7 18.12L23.08 17.5 23.05 17.47 14.41 8.83 14.38 8.8 13.79 8.23C13.13 7.3 13.23 6.02 14.04 5.21ZM4.84 27.15 13.28 10.64 21.35 18.71 4.84 27.15ZM25.89 26.04C25.85 26.54 25.42 26.92 24.91 26.88 24.46 26.85 24.1 26.49 24.07 26.04L24.07 20.55C24.66 20.7 25.28 20.72 25.88 20.6L25.88 26.04ZM29.56 14.58 29.56 21.98C29.56 22.43 29.19 22.8 28.74 22.8 28.29 22.8 27.92 22.43 27.92 21.98L27.92 21.98 27.92 19.63C28.01 19.55 28.09 19.48 28.17 19.4 29.34 18.22 30.08 16.16 29.55 14.58" class="MsftOfcResponsive_Fill_7823dc" fill="#7823DC"/><path d="M24.25 5.88 24.25 5.88C25.74 7.37 25.74 9.79 24.25 11.28 24.7567 11.7867 25.2367 12.2667 25.69 12.72 25.69 12.72 25.69 12.72 25.69 12.72 27.97 10.43 27.97 6.73 25.69 4.44" class="MsftOfcResponsive_Fill_7823dc" fill="#7823DC"/><rect x="0" y="30.9" width="1.02" height="1.09" class="MsftOfcResponsive_Fill_7823dc" fill="#7823DC"/><rect x="17.16" y="3.4" width="1.11" height="1.66" class="MsftOfcResponsive_Fill_7823dc" fill="#7823DC" transform="matrix(0.739866 0.672754 -0.672754 0.739866 7.45 -10.82)"/><rect x="16.5" y="3.53" width="1.11" height="1.66" class="MsftOfcResponsive_Fill_7823dc" fill="#7823DC" transform="matrix(0.421511 -0.906823 0.906823 0.421511 5.91 17.98)"/><g><rect x="27.19" y="13.38" width="1.11" height="1.66" class="MsftOfcResponsive_Fill_7823dc" fill="#7823DC" transform="matrix(-0.662751 -0.74884 0.74884 -0.662751 35.49 44.4)"/><rect x="27.05" y="14.04" width="1.11" height="1.66" class="MsftOfcResponsive_Fill_7823dc" fill="#7823DC" transform="matrix(0.912406 -0.409286 0.409286 0.912406 -3.67 12.6)"/></g></svg>