<svg viewBox="0 0 32 32" xmlns="http://www.w3.org/2000/svg" xmlns:xlink="http://www.w3.org/1999/xlink" overflow="hidden"><defs></defs><g id="Layer_3"><path d="M16.0894 9.9997C13.3279 9.9997 11.0894 7.76112 11.0894 4.9997 11.0894 2.23828 13.3279-0.000300407 16.0894-0.000300407 18.8508-0.000300407 21.0894 2.23828 21.0894 4.9997 21.0861 7.75978 18.8494 9.99646 16.0894 9.9997ZM16.0894 1.9997C14.4325 1.9997 13.0894 3.34285 13.0894 4.9997 13.0894 6.65655 14.4325 7.9997 16.0894 7.9997 17.7462 7.9997 19.0894 6.65655 19.0894 4.9997 19.0876 3.3436 17.7455 2.00151 16.0894 1.9997Z" fill="#7823DC"/><rect x="15.0894" y="8.9997" width="2" height="23" fill="#7823DC"/><rect x="10.0895" y="29.9997" width="5.99988" height="2" fill="#7823DC"/><rect x="10.0894" y="21.9997" width="5.99988" height="2" fill="#7823DC"/><path d="M10.089 28 12.089 26 15.089 26 15.089 28 10.089 28Z" fill="#7823DC"/></g></svg>