<svg viewBox="0 0 32 31.99" xmlns="http://www.w3.org/2000/svg" xmlns:xlink="http://www.w3.org/1999/xlink" id="Layer_1" overflow="hidden"><style>
.MsftOfcResponsive_Fill_7823dc {
 fill:#7823DC; 
}
</style>
<defs></defs><path d="M16 11.67 16 11.67C13.77 11.67 11.95 9.85 11.95 7.62 11.95 5.71 14.65 1.87 15.19 1.12L16 0 16.81 1.12C17.35 1.87 20.05 5.7 20.05 7.62L20.05 7.62C20.05 9.85 18.23 11.67 16 11.67ZM16 3.47C14.91 5.14 13.95 6.94 13.95 7.61 13.95 8.74 14.87 9.66 16 9.66L16 9.66C17.13 9.66 18.05 8.74 18.05 7.61 18.05 6.93 17.09 5.13 16 3.46Z" class="MsftOfcResponsive_Fill_7823dc" stroke-width="0" fill="#7823DC"/><path d="M24.98 26.92 24.23 26.92 24.02 26.2C23.99 26.09 23.23 23.42 24.76 20.98 25.9 19.16 27.94 17.99 30.83 17.49L32 17.29 32 20.76C32 24.15 28.85 26.91 24.98 26.91ZM30 19.72C28.33 20.18 27.15 20.95 26.47 22.02 25.83 23.03 25.77 24.14 25.82 24.86 28.19 24.53 30 22.82 30 20.77L30 19.73Z" class="MsftOfcResponsive_Fill_7823dc" stroke-width="0" fill="#7823DC"/><path d="M7.77 26.92 7.02 26.92C3.15 26.92 0 24.16 0 20.77L0 17.3 1.17 17.5C4.06 18 6.1 19.17 7.24 20.99 8.77 23.43 8.01 26.1 7.98 26.21L7.77 26.93ZM2 19.73 2 20.77C2 22.82 3.81 24.53 6.18 24.86 6.23 24.14 6.18 23.03 5.53 22.02 4.85 20.95 3.67 20.18 2 19.72Z" class="MsftOfcResponsive_Fill_7823dc" stroke-width="0" fill="#7823DC"/><rect x="15" y="9.95" width="2" height="22.04" class="MsftOfcResponsive_Fill_7823dc" stroke-width="0" fill="#7823DC"/><g><path d="M12.19 18.92 11.44 18.92C7.57 18.92 4.42 16.16 4.42 12.77L4.42 9.32 5.59 9.52C8.49 10.01 10.53 11.19 11.66 13 13.18 15.43 12.43 18.09 12.4 18.2L12.19 18.92ZM6.43 11.75 6.43 12.77C6.43 14.82 8.24 16.53 10.61 16.86 10.66 16.14 10.61 15.05 9.97 14.04 9.3 12.97 8.11 12.2 6.44 11.75Z" class="MsftOfcResponsive_Fill_7823dc" stroke-width="0" fill="#7823DC"/><path d="M17 23.46 15 23.46C15 19.26 11.76 18.94 11.39 18.91L11.49 16.91C13.39 17 17 18.49 17 23.45Z" class="MsftOfcResponsive_Fill_7823dc" stroke-width="0" fill="#7823DC"/></g><g><path d="M20.56 18.92 19.81 18.92 19.6 18.2C19.57 18.09 18.82 15.44 20.34 13 21.47 11.18 23.52 10.01 26.41 9.52L27.58 9.32 27.58 12.77C27.58 16.16 24.43 18.92 20.56 18.92ZM25.58 11.75C23.9 12.21 22.71 12.99 22.03 14.06 21.41 15.06 21.35 16.15 21.4 16.86 23.77 16.53 25.58 14.82 25.58 12.77L25.58 11.75Z" class="MsftOfcResponsive_Fill_7823dc" stroke-width="0" fill="#7823DC"/><path d="M17 23.46 15 23.46C15 18.5 18.6 17.01 20.51 16.92L20.61 18.92 20.56 17.92 20.62 18.92C20.25 18.94 17.01 19.27 17.01 23.47Z" class="MsftOfcResponsive_Fill_7823dc" stroke-width="0" fill="#7823DC"/></g><path d="M17 28.99 15 28.99C15 28.18 15.33 27.43 15.95 26.84 18.25 24.65 24.34 24.89 25.03 24.92L24.93 26.92C22.67 26.81 18.6 27.08 17.33 28.29 17.04 28.57 17 28.81 17 28.99Z" class="MsftOfcResponsive_Fill_7823dc" stroke-width="0" fill="#7823DC"/><path d="M17 28.99 15 28.99C15 28.81 14.96 28.57 14.67 28.29 13.4 27.08 9.33 26.8 7.07 26.92L6.97 24.92C7.66 24.89 13.75 24.65 16.05 26.84 16.67 27.43 17 28.18 17 28.99Z" class="MsftOfcResponsive_Fill_7823dc" stroke-width="0" fill="#7823DC"/></svg>