<svg viewBox="0 0 32 32" xmlns="http://www.w3.org/2000/svg" xmlns:xlink="http://www.w3.org/1999/xlink" overflow="hidden"><defs></defs><g id="Grid"><path d="M20.41 20.8 18.46 20.39 17 27.38 17 20.69 15 20.69 15 27.31 13.56 20.39 11.6 20.8 11.64 20.99 2 25.11 2 31.95 4 31.95 4 26.43 12.05 22.98 13.93 31.95 18.09 31.95 19.96 22.99 28 26.43 28 31.95 30 31.95 30 25.11 20.37 20.99 20.41 20.8Z" fill="#7823DC"/><rect x="24.8" y="16.63" width="2" height="9.65" fill="#7823DC" transform="matrix(0.398109 -0.917338 0.917338 0.398109 -4.15 36.58)"/><rect x="1.37" y="20.46" width="9.65" height="2" fill="#7823DC" transform="matrix(0.917269 -0.398269 0.398269 0.917269 -8.03 4.24)"/><path d="M8.56 10.31C8.56 15.13 11.91 19 16 19 20.09 19 23.47 15.09 23.47 10.27 23.4698 9.10709 23.2668 7.95313 22.87 6.86L25.6 2.1 21.51 0 10.51 0 6.46 2.1 9.16 6.89C8.7621 7.98629 8.55904 9.14373 8.56 10.31ZM16 17C13 17 10.54 14 10.54 10.27 10.5248 9.98687 10.5248 9.70313 10.54 9.42 11.2813 10.0958 12.2575 10.4547 13.26 10.42 14.01 10.42 14.71 10.42 15.36 10.42L16.98 10.42C18.1688 10.5203 19.3622 10.292 20.43 9.76 20.7634 9.55312 21.0635 9.29688 21.32 9 21.3835 9.41034 21.4169 9.82478 21.42 10.24 21.49 14 19 17 16 17ZM11.49 7 20.39 7C20.1963 7.46995 19.8696 7.87312 19.45 8.16 18.78 8.58 17.26 8.53 15.45 8.49 14.78 8.49 14.05 8.49 13.29 8.49 12.7794 8.5215 12.2779 8.3447 11.9 8 11.6569 7.72093 11.5128 7.36939 11.49 7ZM11 2 21 2 22.82 3 21.68 5 10.37 5 9.23 3Z" fill="#7823DC"/></g></svg>