<svg viewBox="0 0 32 32" xmlns="http://www.w3.org/2000/svg" xmlns:xlink="http://www.w3.org/1999/xlink" id="Layer_1" overflow="hidden"><style>
.MsftOfcResponsive_Fill_7823dc {
 fill:#7823DC; 
}
</style>
<defs></defs><path d="M30.78 20.81 19.04 20.81 19.04 19.82C18.9 8 17.88 2 16 2 14.12 2 13.1 8 12.97 19.82L12.97 20.81 1.22 20.81 1.22 18.81 10.98 18.81C11.15 7.17 12.1 0 16 0 19.9 0 20.85 7.17 21.02 18.81L30.78 18.81 30.78 20.81Z" class="MsftOfcResponsive_Fill_7823dc" stroke-width="0" fill="#7823DC"/><rect x="30" y="7.92" width="2" height="20.15" class="MsftOfcResponsive_Fill_7823dc" stroke-width="0" fill="#7823DC"/><path d="M22.78 32 19.03 32 19.03 29.31 12.97 29.31 12.97 32 9.3 32 0.54 23.87 1.9 22.4 10.08 30 10.97 30 10.97 27.31 21.03 27.31 21.03 30 21.99 30 30.09 22.41 31.46 23.88 22.78 32Z" class="MsftOfcResponsive_Fill_7823dc" stroke-width="0" fill="#7823DC"/><rect x="0" y="7.92" width="2" height="20.15" class="MsftOfcResponsive_Fill_7823dc" stroke-width="0" fill="#7823DC"/><rect x="10.97" y="18" width="2" height="10.31" class="MsftOfcResponsive_Fill_7823dc" stroke-width="0" fill="#7823DC"/><rect x="19.03" y="18" width="2" height="10.31" class="MsftOfcResponsive_Fill_7823dc" stroke-width="0" fill="#7823DC"/><rect x="12.58" y="8" width="6.83" height="2" class="MsftOfcResponsive_Fill_7823dc" stroke-width="0" fill="#7823DC"/></svg>