<svg width="56.1" height="56.2" viewBox="0 0 56.1 56.2" xmlns="http://www.w3.org/2000/svg" xmlns:xlink="http://www.w3.org/1999/xlink" overflow="hidden"><defs></defs><g><g><defs><path d="M0 56.1 56.1 56.1 56.1 0 0 0 0 56.1Z" id="SVGID_1_" fill="#7823DC"/></defs><clipPath id="SVGID_3_"><use width="100%" height="100%" xlink:href="#SVGID_1_"></use></clipPath><g clip-path="url(#SVGID_3_)"><defs><path d="M0 56.1 56.1 56.1 56.1 0 0 0 0 56.1Z" id="SVGID_2_" fill="#7823DC"/></defs><clipPath id="SVGID_4_"><use width="100%" height="100%" xlink:href="#SVGID_2_"></use></clipPath><path d="M24.5 3.5 24.5 49.2 3.5 52 3.5 3.5 24.5 3.5M28 0 0 0 0 56.2 28 52.4 28 0 28 0 28 0Z" fill="#7823DC" clip-path="url(#SVGID_4_)"/><path d="M8.8 24.6C7.8 24.6 7 25.4 7 26.4 7 27.4 7.8 28.2 8.8 28.2 9.8 28.2 10.6 27.4 10.6 26.4 10.5 25.4 9.7 24.6 8.8 24.6L8.8 24.6Z" fill="#7823DC" clip-path="url(#SVGID_4_)"/><path d="M52.5 49.1 28 49.1 28 0.1 24.5 0.1 24.5 52.6 56 52.6 56 0.1 52.5 0.1 52.5 49.1 52.5 49.1Z" fill="#7823DC" clip-path="url(#SVGID_4_)"/><path d="M54.3 0 27.3 0 27.3 3.5 54.3 3.5 54.3 0 54.3 0 54.3 0Z" fill="#7823DC" clip-path="url(#SVGID_4_)"/></g></g></g></svg>