<svg viewBox="0 0 32 32" xmlns="http://www.w3.org/2000/svg" xmlns:xlink="http://www.w3.org/1999/xlink" id="Layer_1" xml:space="preserve" overflow="hidden"><path d="M29.8 12 29.8 11.9C29.7 11.3 29.5 10.8 29.3 10.2L29.3 10.1C29.2 9.8 29.1 9.5 29 9.3 26.6 3.8 21.3 0 15.1 0 6.8 0 0 6.9 0 15.5 0 20.9 2.7 25.7 6.9 28.5L8.1 26.9C4.4 24.5 2 20.2 2 15.5 2 8 7.9 2 15.1 2 20.7 2 25.6 5.7 27.4 10.8 27.4 10.9 27.5 11 27.5 11.2 27.6 11.6 27.7 12 27.8 12.4L27.8 12.5C28.4 14.7 29 17.4 29.4 19.3 29.4 19.5 29.5 19.7 29.5 19.8 29.5 19.6 29.6 19.4 29.6 19.3 29.9 18.1 30.1 16.8 30.1 15.5 30.2 14.3 30.1 13.1 29.8 12Z" fill="#7823DC"/><path d="M32 22.3 26.4 22.3 26.4 32 17 32 17 30 24.3 30 24.3 20.3 29.5 20.3C29.5 20.1 29.4 19.9 29.4 19.7 29 17.8 28.3 14.6 27.7 12.2L27.7 12.1C27.6 11.7 27.5 11.3 27.4 10.9 27.4 10.8 27.3 10.6 27.3 10.5 27.2 10.2 27.1 9.8 27 9.6L28.8 8.9 28.8 9.9C28.9 10.2 29 9.5 29.1 9.8L29.1 9.9C29.3 10.4 29.4 11 29.6 11.6L29.6 11.7C30.6 15.5 31.6 20.9 31.7 21.2L32 22.3Z" fill="#7823DC"/><path d="M18.4 19.5C19.4 20.2 19.9 21.2 19.9 22.5 19.9 23.7 19.4 24.7 18.2 25.5 17.5 26.2 16.5 26.5 15.2 26.5 13 26.5 11.5 25.5 10.2 23.8 11.7 22.6 11.7 22.6 11.7 22.6 12.4 24.1 13.7 24.8 15.2 24.8 16.2 24.8 16.7 24.6 17.2 24.1 17.4 23.6 17.7 23.4 17.7 22.6 17.7 22.1 17.5 21.4 16.7 21.1 16.5 20.9 15.7 20.6 14.7 20.1 13 19.6 12 19.1 11.2 18.6 10 17.9 9.2 16.9 9.2 15.4 9.2 13.9 10.2 12.9 11.7 12.2 11 11.5 10.5 10.5 10.5 9.2 10.5 8 11 7 12 6.2 13 5.5 14 5.2 15 5.2 17.2 5.2 19 5.9 20 7.7 18.5 8.9 18.5 8.9 18.5 8.9 17.5 7.7 16.5 6.9 15 6.9 14.3 6.9 13.5 7.1 13 7.6 12.8 8.1 12.5 8.3 12.5 8.8 12.5 9.5 13 10.3 13.5 10.5 14 10.7 14.7 11 15.7 11.5 17.2 12 18.4 12.2 18.9 12.7 20.4 13.4 20.9 14.7 20.9 16.2 20.9 17.7 20.1 18.7 18.4 19.5L18.4 19.5ZM16.6 18.5C18.1 18.3 18.6 17.5 18.6 16.3 18.6 15.6 18.1 14.8 16.9 14.3 16.2 13.8 14.9 13.6 13.4 13.1 12.2 13.3 11.4 14.1 11.4 15.3 11.4 16 11.9 16.8 12.9 17.3 13.6 17.5 14.9 18 16.6 18.5L16.6 18.5Z" fill="#7823DC" fill-rule="evenodd" clip-rule="evenodd"/></svg>