<svg viewBox="0 0 32 32" xmlns="http://www.w3.org/2000/svg" xmlns:xlink="http://www.w3.org/1999/xlink" id="Text" overflow="hidden"><style>
.MsftOfcResponsive_Fill_7823dc {
 fill:#7823DC; 
}
</style>
<defs></defs><path d="M16 3.17C23.72 3.17 30 9.17 30 16.59 30 24.01 23.72 30 16 30 8.28 30 2 24 2 16.59 2 9.18 8.28 3.17 16 3.17M16 1.17C7.16 1.17 0 8.07 0 16.59 0 25.11 7.16 32 16 32 24.84 32 32 25.1 32 16.59 32 8.08 24.84 1.17 16 1.17Z" class="MsftOfcResponsive_Fill_7823dc" fill="#7823DC"/><path d="M10.05 12 12.38 14.26C10.893 14.885 9.21699 14.885 7.73 14.26L10.05 12M10.05 9.22 4.58 14.56C7.66504 17.4807 12.495 17.4807 15.58 14.56L10 9.25Z" class="MsftOfcResponsive_Fill_7823dc" fill="#7823DC"/><path d="M22 12 24.31 14.25C22.823 14.875 21.147 14.875 19.66 14.25L22 12M22 9.22 16.5 14.56C19.585 17.4807 24.415 17.4807 27.5 14.56L22 9.25Z" class="MsftOfcResponsive_Fill_7823dc" fill="#7823DC"/><path d="M25.6 21C21.1959 26.3019 13.3276 27.0298 8.02564 22.6256 7.4349 22.1349 6.89071 21.5907 6.4 21L9.15 21 11.44 23.59 11.44 21 20.6 21 20.6 23.59 22.89 21Z" class="MsftOfcResponsive_Fill_7823dc" fill="#7823DC"/><path d="M29.76 0 27.47 1.98 27.47 8.05 29.76 9.93 29.76 0 29.76 0Z" class="MsftOfcResponsive_Fill_7823dc" fill="#7823DC"/><path d="M29.76 0 16.02 3.08 29.76 2.21 29.76 0 29.76 0Z" class="MsftOfcResponsive_Fill_7823dc" fill="#7823DC"/><path d="M2.29 0 2.29 9.56 4.58 8.05 4.58 1.98 2.29 0 2.29 0Z" class="MsftOfcResponsive_Fill_7823dc" fill="#7823DC"/><path d="M2.29 0 2.29 2.21 16.02 2.91 2.29 0 2.29 0Z" class="MsftOfcResponsive_Fill_7823dc" fill="#7823DC"/><path d="M5.87 4.72C5.85925 4.6979 5.85925 4.67209 5.87 4.65L5.87 4.99 5.87 4.89 5.75 5.18C5.82152 5.04279 5.90518 4.91227 6 4.79L5.79 5C5.88221 4.88912 5.98615 4.78853 6.1 4.7L5.85 4.9 5.92 4.9 5.62 5 5.94 4.9 5.6 4.9C5.77971 4.91436 5.96029 4.91436 6.14 4.9L6.38 4.84 6.05 4.89C6.24508 4.87809 6.43898 4.85135 6.63 4.81 6.71182 4.78416 6.79536 4.76411 6.88 4.75L6.55 4.75 6.8 4.75C6.97139 4.73311 7.14167 4.7064 7.31 4.67L7 4.74 7.18 4.74 7.55 4.74C7.67434 4.70536 7.79245 4.65137 7.9 4.58 8.17468 4.40507 8.37978 4.13985 8.48 3.83 8.57415 3.49284 8.52722 3.13189 8.35 2.83 7.99862 2.23808 7.23723 2.03772 6.64 2.38L6.64 2.38 6.94 2.26 6.94 2.26 7.27 2.26C7.20677 2.26502 7.14323 2.26502 7.08 2.26 6.91 2.26 6.75 2.32 6.58 2.34L6.91 2.34C6.70044 2.32073 6.48956 2.32073 6.28 2.34L5.96 2.42 6.29 2.37C6.10886 2.38351 5.9286 2.40688 5.75 2.44L5.56 2.44 5.9 2.44C5.71871 2.4368 5.53762 2.45356 5.36 2.49L5 2.55C4.73866 2.6239 4.49644 2.75354 4.29 2.93L4.11 3.12C3.93047 3.31437 3.76975 3.52531 3.63 3.75 3.41737 4.03861 3.31135 4.392 3.33 4.75 3.32965 5.44036 3.889 6.00029 4.57936 6.00064 4.59291 6.00065 4.60646 6.00043 4.62 6 4.95384 5.98473 5.26899 5.84149 5.5 5.6 5.73678 5.36844 5.87017 5.05118 5.87 4.72Z" class="MsftOfcResponsive_Fill_7823dc" fill="#7823DC"/><path d="M24.76 4.67 24.89 4.67 24.55 4.67C24.81 4.67 25.05 4.76 25.31 4.79L25 4.7 26 4.83 25.67 4.83 26.14 4.93C26.3 4.93 26.45 4.93 26.61 4.93L26.28 4.93 26.35 4.93 26 4.76 26.05 4.76 25.8 4.6C25.941 4.73082 26.0914 4.85115 26.25 4.96L26 4.77 26.07 4.83 25.87 4.58C25.8752 4.60305 25.8752 4.62695 25.87 4.65L25.74 4.35 25.74 4.35 25.74 4.02 25.74 4.1 25.74 3.77C25.7227 3.87227 25.6959 3.9727 25.66 4.07 25.5901 4.35241 25.5901 4.64759 25.66 4.93 25.7664 5.31358 25.9776 5.65989 26.27 5.93 26.5068 6.15767 26.8215 6.28642 27.15 6.29 27.4793 6.2906 27.7955 6.16123 28.03 5.93 28.2872 5.68848 28.4352 5.35279 28.44 5 28.4369 4.66949 28.304 4.35345 28.07 4.12 28.0107 4.08388 27.9539 4.04379 27.9 4L28.09 4.25C28.0513 4.18761 28.021 4.12035 28 4.05L28.12 4.34C28.12 4.34 28.12 4.34 28.12 4.28L28.12 4.61C28.11 4.57742 28.11 4.54258 28.12 4.51L28.12 4.84C28.1353 4.7556 28.1553 4.67213 28.18 4.59 28.2366 4.41573 28.2637 4.23321 28.26 4.05 28.2477 3.67827 28.1022 3.32335 27.85 3.05 27.7304 2.92726 27.596 2.81978 27.45 2.73L27.7 2.92C27.4931 2.70808 27.2398 2.54718 26.96 2.45 26.8032 2.40974 26.6419 2.38958 26.48 2.39L26.26 2.39 26.59 2.39 26.29 2.32C26.09 2.32 25.89 2.32 25.69 2.25L26.02 2.25 25.2 2.12 25.53 2.12C25.2843 2.05823 25.0331 2.02138 24.78 2.01 24.0952 2.00078 23.5326 2.54842 23.5234 3.2332 23.5188 3.5744 23.655 3.90242 23.9 4.14 24.1346 4.37219 24.4499 4.50476 24.78 4.51Z" class="MsftOfcResponsive_Fill_7823dc" fill="#7823DC"/><path d="M23.55 4.43 23.6 4.43 23.27 4.43C23.6461 4.49841 24.0277 4.53188 24.41 4.53 24.8143 4.53972 25.2187 4.51966 25.62 4.47L25.28 4.47C25.5213 4.47176 25.7623 4.45168 26 4.41L25.67 4.41C26.3463 4.485 27.0307 4.40287 27.67 4.17L27.38 4.29C27.5159 4.24796 27.6467 4.19094 27.77 4.12 28.3619 3.76862 28.5623 3.00723 28.22 2.41 27.8452 1.8401 27.0916 1.66045 26.5 2L26.45 2 26.75 1.88C26.5984 1.92704 26.4511 1.98727 26.31 2.06L26.61 1.94 26.56 1.94 26.89 1.89C26.3382 1.89142 25.7871 1.92816 25.24 2L25.57 2C25.34 2 25.13 2 24.9 2.06L25.23 2.06C24.9769 2.07498 24.7231 2.07498 24.47 2.06 24.2302 2.07499 23.9898 2.07499 23.75 2.06L24.08 2.11C23.9074 2.05982 23.7295 2.02963 23.55 2.02 22.8933 2.0183 22.3473 2.52502 22.3 3.18 22.3158 3.86369 22.8663 4.41416 23.55 4.43Z" class="MsftOfcResponsive_Fill_7823dc" fill="#7823DC"/><path d="M5 4.33 5.06 4.33 4.73 4.33C4.98448 4.37317 5.24191 4.39658 5.5 4.4L6 4.4C6.33 4.4 6.67 4.4 7 4.4L6.67 4.4C7.17014 4.51505 7.68987 4.51505 8.19 4.4L7.85 4.45C8.04501 4.42724 8.23863 4.39385 8.43 4.35L8.09 4.35 8.4 4.35 8.07 4.35C8.25807 4.38533 8.44869 4.4054 8.64 4.41 9.3414 4.41107 9.91086 3.84333 9.91193 3.14193 9.91196 3.11794 9.91132 3.09395 9.91 3.07 9.89928 2.38413 9.34587 1.83072 8.66 1.82L8.47 1.82 8.8 1.82C8.59816 1.78845 8.39428 1.77174 8.19 1.77 7.98713 1.78292 7.7861 1.81642 7.59 1.87L7.92 1.87C7.71455 1.90273 7.51094 1.94612 7.31 2L7.64 2 7.07 2 7.4 2C7.01 1.95 6.61 1.94 6.21 1.92 5.81 1.9 5.54 1.92 5.21 1.92L5.55 1.92C5.36872 1.87856 5.18503 1.8485 5 1.83 4.32365 1.85146 3.78503 2.40333 3.78 3.08 3.79503 3.75251 4.32805 4.29864 5 4.33Z" class="MsftOfcResponsive_Fill_7823dc" fill="#7823DC"/></svg>