<svg width="32" height="32" viewBox="0 0 32 32" xmlns="http://www.w3.org/2000/svg" xmlns:xlink="http://www.w3.org/1999/xlink" overflow="hidden"><style>
.MsftOfcResponsive_Fill_7823dc {
 fill:#7823DC; 
}
</style>
<defs></defs><g><path d="M8 10 6 10 6 16 8 16 8 10Z" class="MsftOfcResponsive_Fill_7823dc" fill="#7823DC"/></g><g><path d="M10 12 4 12 4 14 10 14 10 12Z" class="MsftOfcResponsive_Fill_7823dc" fill="#7823DC"/></g><g><path d="M8 2 6 2 6 8 8 8 8 2Z" class="MsftOfcResponsive_Fill_7823dc" fill="#7823DC"/></g><g><path d="M20.59 0 4 0 4 2 22.59 2 20.59 0Z" class="MsftOfcResponsive_Fill_7823dc" fill="#7823DC"/></g><g><path d="M20.59 0 19.17 1.41 22 4.24 23.41 2.83 20.59 0Z" class="MsftOfcResponsive_Fill_7823dc" fill="#7823DC"/></g><g><path d="M2 32 2 8.03 12 8.03 12 14 14 16 14 14 14 6.03 0 6.03 0 32Z" class="MsftOfcResponsive_Fill_7823dc" fill="#7823DC"/></g><g><g><path d="M23 13C21.9 13 21 12.1 21 11 21 10.77 21.04 10.55 21.11 10.33 21.4 9.54 22.15 9 23 9 24.1 9 25 9.9 25 11 25 12.1 24.1 13 23 13Z" class="MsftOfcResponsive_Fill_7823dc" fill="#7823DC"/></g><g><path d="M23 10C23.55 10 24 10.45 24 11 24 11.55 23.55 12 23 12 22.45 12 22 11.55 22 11 22 10.88 22.02 10.77 22.06 10.67 22.17 10.33 22.51 10 23 10M23 8C21.69 8 20.58 8.83 20.17 10 20.06 10.31 20 10.65 20 11 20 12.66 21.34 14 23 14 24.66 14 26 12.66 26 11 26 9.34 24.66 8 23 8L23 8Z" class="MsftOfcResponsive_Fill_7823dc" fill="#7823DC"/></g></g><g><path d="M23 6.03 25.42 9.23 20.58 9.23Z" class="MsftOfcResponsive_Fill_7823dc" fill="#7823DC"/></g><path d="M14 32 0 32 0 29.99 12 29.99Z" class="MsftOfcResponsive_Fill_7823dc" fill="#7823DC"/><g><path d="M32 26.01 30.27 26.01 20.93 29.78 6 22.01 6 20.01 18.09 23.82 18.09 23.83 22.05 24.56 22.05 22.7 18.28 21.94 17.2 21.59 17.2 19.59 20.93 20.01 26.53 18.01 30.2 19.98 32 19.98 32 17.98 30.71 17.98 27.48 16.25 26.7 15.83 25.86 16.13 20.7 17.97 17.42 17.6 15.2 17.35 15.2 19.59 15.2 20.81 6.6 18.1 4 17.28 4 20.01 4 22.01 4 23.21 5.06 23.77 20.84 32 30.68 28.01 32 28.01Z" class="MsftOfcResponsive_Fill_7823dc" fill="#7823DC"/></g><g><rect x="30" y="18" width="2" height="9.62" class="MsftOfcResponsive_Fill_7823dc" fill="#7823DC"/></g></svg>