<svg viewBox="0 0 32 32" xmlns="http://www.w3.org/2000/svg" xmlns:xlink="http://www.w3.org/1999/xlink" id="Layer_1" overflow="hidden"><g><path d="M25.4 20.3 29.7 20.3C28.7 15.8 27.3 9.5 26.4 8.1 24 4.2 19.8 1.9 15.3 1.9 15.3 1.9 15.3 1.9 15.2 1.9 8 2 2.1 8.1 2.1 15.3L2.1 15.4C2.1 19.9 4.4 24.2 8.2 26.6L7.1 28.3C2.7 25.5 0 20.6 0 15.4L0 15.3C0 6.9 6.7 0 15.1 0 20.4 0 25.2 2.7 27.9 7.1 29.3 9.4 31.4 20 31.7 21.2L32 22.4 26.2 22.4 25.4 20.3 25.4 20.3 25.4 20.3Z" fill="#7823DC" fill-rule="evenodd" clip-rule="evenodd"/><path d="M26.5 32 17.2 32 17.2 30 24.5 30 24.5 20.3 26.5 20.3Z" fill="#7823DC" fill-rule="evenodd" clip-rule="evenodd"/></g><path d="M15.3 23 19.8 17C20.3 16.2 20.5 15.3 20.3 14.4L20.3 14.3C20.1 13.3 20.6 12.3 21.5 11.8L21.3 12.1C20.9 12.6 20.8 13.2 20.9 13.7 21 14.3 21.3 14.8 21.8 15.2 22.8 16 24.2 15.8 25 14.8L25.2 14.5C25.1 14.8 25 15.1 24.8 15.3 24.4 15.9 23.8 16.2 23.1 16.3L23 16.3C22.1 16.3 21.2 16.8 20.6 17.5L13.9 26 16.3 26 21.9 18.6C22.2 18.3 22.6 18.1 23 18.1L23.2 18.1C23.8 18 24.4 17.8 24.9 17.5 25.9 16.9 26.6 16 26.9 14.9 27.2 13.8 27 12.7 26.5 11.7L26.4 11.6 25 11.5 23.4 13.6C23.3 13.7 23.3 13.7 23.2 13.8 23.1 13.8 23 13.8 22.9 13.7 22.8 13.6 22.8 13.6 22.8 13.5 22.8 13.4 22.8 13.3 22.9 13.2L24.5 11.1 24 9.8 23.9 9.8C23.3 9.6 22.7 9.6 22.1 9.7 20.9 9.9 19.9 10.6 19.3 11.5 18.7 12.4 18.4 13.6 18.6 14.7L18.6 14.9C18.7 15.3 18.7 15.7 18.5 16L12.9 23 15.3 23Z" fill="#7823DC"/><path d="M12.4 18.1C10.5 18.1 8.9 16.5 8.9 14.6 8.9 12.7 10.5 11.1 12.4 11.1 14.3 11.1 15.9 12.7 15.9 14.6 15.9 16.5 14.3 18.1 12.4 18.1ZM12.4 13.1C11.6 13.1 10.9 13.8 10.9 14.6 10.9 15.4 11.6 16.1 12.4 16.1 13.2 16.1 13.9 15.4 13.9 14.6 13.9 13.8 13.2 13.1 12.4 13.1Z" fill="#7823DC"/><path d="M17.2 7.2 15.3 8.5C15.1 8.4 14.9 8.3 14.7 8.3L14.3 6 10.5 6 10.2 8.3C9.9 8.4 9.7 8.5 9.5 8.6L7.7 7.2 5 9.9 6.3 11.8C6.2 12 6.1 12.2 6.1 12.4L3.8 12.8 3.8 16.6 6.1 17C6.2 17.2 6.3 17.4 6.3 17.6L5 19.4 7.7 22.1 9.6 20.8C9.7 20.8 9.8 20.9 9.9 20.9L10 23 12 23 11.6 19.4 11.6 19.4 11.2 19.3C10.8 19.2 10.3 19 9.9 18.8L9.4 18.5 7.9 19.6 7.5 19.2 8.6 17.7 8.3 17.2C8.1 16.8 7.9 16.4 7.8 15.9L7.6 15.3 5.7 15 5.7 14.4 7.6 14 7.8 13.4C7.8 13 8 12.6 8.2 12.2L8.5 11.7 7.4 10.1 7.8 9.7 9.4 10.8 9.9 10.5C10.3 10.3 10.7 10.1 11.2 10L11.8 9.8 12.1 7.9 12.7 7.9 13 9.8 13.6 10C14.1 10.1 14.5 10.3 14.9 10.5L15.4 10.8 17 9.7 18.1 10.7 19.4 9.3 17.2 7.2Z" fill="#7823DC"/><line x1="15.5" y1="23" x2="13.2" y2="23" fill="none"/></svg>