<svg viewBox="0 0 32 32" xmlns="http://www.w3.org/2000/svg" xmlns:xlink="http://www.w3.org/1999/xlink" id="Layer_1" overflow="hidden"><style>
.MsftOfcThm_Text2_Fill_v2 {
 fill:#7823DC; 
}
</style>
<defs></defs><path d="M4.46 32C2 32 0 30 0 27.54 0 25.08 2 23.08 4.46 23.08 6.92 23.08 8.92 25.08 8.92 27.54 8.92 30 6.92 32 4.46 32ZM4.46 25.08C3.1 25.08 2 26.18 2 27.54 2 28.9 3.1 30 4.46 30 5.82 30 6.92 28.9 6.92 27.54 6.92 26.18 5.82 25.08 4.46 25.08Z" class="MsftOfcThm_Text2_Fill_v2" stroke-width="0" fill="#7823DC"/><path d="M19.83 23.23 19.28 23.23C15.72 23.23 11.69 21.95 8.24 19.72 4.63 17.4 1.8 14.43 0.27 11.37L0.02 10.87 6.84 0 7.39 0C11.06 0 14.88 1.21 18.43 3.51 22.04 5.84 24.87 8.8 26.4 11.86L26.65 12.36 19.83 23.23ZM2.32 10.97C3.73 13.51 6.26 16.07 9.32 18.05 12.28 19.96 15.68 21.1 18.73 21.22L24.35 12.26C22.93 9.71 20.41 7.16 17.35 5.18 14.34 3.24 11.02 2.12 7.94 2.01L2.32 10.97Z" class="MsftOfcThm_Text2_Fill_v2" stroke-width="0" fill="#7823DC"/><rect x="1.85" y="8.48" width="16.28" height="2" class="MsftOfcThm_Text2_Fill_v2" stroke-width="0" fill="#7823DC" transform="matrix(0.531103 -0.847307 0.847307 0.531103 -3.35 12.91)"/><rect x="23.54" y="19.05" width="2" height="14.52" class="MsftOfcThm_Text2_Fill_v2" stroke-width="0" fill="#7823DC" transform="matrix(0.678673 -0.734441 0.734441 0.678673 -11.44 26.48)"/><rect x="2.8" y="22.79" width="10.13" height="2" class="MsftOfcThm_Text2_Fill_v2" stroke-width="0" fill="#7823DC" transform="matrix(0.672108 -0.740453 0.740453 0.672108 -15.04 13.62)"/><path d="M20.04 26.23 6.77 26.23 6.77 24.23 20.04 24.23C22.81 24.23 25.35 22.67 26.65 20.15L26.93 19.61 32 19.61 32 21.61 28.12 21.61C26.4 24.47 23.35 26.23 20.04 26.23Z" class="MsftOfcThm_Text2_Fill_v2" stroke-width="0" fill="#7823DC"/></svg>