<svg width="32" height="31.97" viewBox="0 0 32 31.97" xmlns="http://www.w3.org/2000/svg" xmlns:xlink="http://www.w3.org/1999/xlink" overflow="hidden"><defs></defs><g><rect x="10.02" y="0" width="2" height="4.01" fill="#7823DC"/></g><g><rect x="14.02" y="0" width="2" height="4.01" fill="#7823DC"/></g><g><rect x="18.03" y="0" width="2" height="4.01" fill="#7823DC"/></g><g><rect x="22.03" y="0" width="2" height="4.01" fill="#7823DC"/></g><g><rect x="6.01" y="8" width="4.01" height="4.01" fill="#7823DC"/></g><g><rect x="12" y="8" width="4.01" height="4.01" fill="#7823DC"/></g><g><rect x="18" y="8" width="4.01" height="4.01" fill="#7823DC"/></g><g><rect x="18" y="14" width="4.01" height="4.01" fill="#7823DC"/></g><g><rect x="24" y="8" width="4.01" height="4.01" fill="#7823DC"/></g><g><rect x="24" y="14" width="4.01" height="4.01" fill="#7823DC"/></g><g><rect x="24" y="20" width="4.01" height="4.01" fill="#7823DC"/></g><g><g><path d="M4.01 11.99 4.01 2 8.01 2 8.01 0 2 0 2 11.99 2 13.97Z" fill="#7823DC"/></g><g><path d="M25.99 0 25.99 2 30 2 30 25.99 19.99 25.99 17.98 27.99 32 27.99 32 0Z" fill="#7823DC"/></g></g><g><g><path d="M8.88 15.97 9.47 17.73 9.74 18.55 10.52 18.91C10.77 19.02 11 19.16 11.21 19.3L11.92 19.8 12.77 19.63 14.59 19.26 14.84 19.69 13.61 21.08 13.04 21.72 13.12 22.58C13.13 22.71 13.14 22.84 13.14 22.98 13.14 23.11 13.13 23.25 13.12 23.38L13.04 24.24 13.61 24.88 14.84 26.27 14.59 26.7 12.77 26.33 11.92 26.16 11.21 26.66C11 26.81 10.77 26.94 10.52 27.05L9.74 27.41 9.47 28.2 8.88 29.96 8.39 29.96 7.81 28.2 7.54 27.38 6.76 27.02C6.51 26.9 6.28 26.77 6.07 26.63L5.36 26.13 4.51 26.3 2.7 26.68 2.45 26.25 3.68 24.86 4.25 24.22 4.17 23.36C4.16 23.23 4.15 23.1 4.15 22.96 4.15 22.83 4.16 22.69 4.17 22.56L4.25 21.7 3.68 21.06 2.45 19.67 2.7 19.24 4.52 19.61 5.37 19.78 6.08 19.28C6.29 19.13 6.52 19 6.77 18.89L7.55 18.53 7.82 17.71 8.41 15.95 8.88 15.95M10.33 13.97 6.95 13.97 5.91 17.1C5.56 17.26 5.23 17.45 4.92 17.67L1.69 17 0 19.93 2.19 22.39C2.17 22.58 2.16 22.77 2.16 22.96 2.16 23.15 2.17 23.34 2.19 23.53L0 26 1.69 28.92 4.92 28.26C5.23 28.48 5.56 28.67 5.91 28.83L6.95 31.96 10.33 31.96 11.37 28.83C11.72 28.67 12.05 28.48 12.36 28.26L15.59 28.92 17.28 26 15.09 23.53C15.11 23.34 15.12 23.15 15.12 22.96 15.12 22.77 15.11 22.58 15.09 22.39L17.28 19.93 15.59 17 12.36 17.66C12.05 17.44 11.72 17.25 11.37 17.09L10.33 13.97 10.33 13.97Z" fill="#7823DC"/></g><g><path d="M8.64 21.39C9.51 21.39 10.22 22.1 10.22 22.97 10.22 23.84 9.51 24.55 8.64 24.55 7.77 24.55 7.06 23.84 7.06 22.97 7.06 22.1 7.77 21.39 8.64 21.39M8.64 19.39C6.67 19.39 5.06 21 5.06 22.97 5.06 24.94 6.67 26.55 8.64 26.55 10.61 26.55 12.22 24.94 12.22 22.97 12.22 21 10.61 19.39 8.64 19.39L8.64 19.39Z" fill="#7823DC"/></g></g></svg>