<svg viewBox="0 0 32 32" xmlns="http://www.w3.org/2000/svg" xmlns:xlink="http://www.w3.org/1999/xlink" id="Layer_1" overflow="hidden"><style>
.MsftOfcResponsive_Fill_7823dc {
 fill:#7823DC; 
}
</style>
<defs></defs><path d="M16 32C7.18 32 0 24.82 0 16 0 7.18 7.18 0 16 0 24.82 0 32 7.18 32 16 32 24.82 24.82 32 16 32ZM16 2C8.28 2 2 8.28 2 16 2 23.72 8.28 30 16 30 23.72 30 30 23.72 30 16 30 8.28 23.72 2 16 2Z" class="MsftOfcResponsive_Fill_7823dc" fill="#7823DC"/><path d="M16 27.84C9.47 27.84 4.16 22.53 4.16 16 4.16 9.47 9.47 4.16 16 4.16 22.53 4.16 27.84 9.47 27.84 16 27.84 22.53 22.53 27.84 16 27.84ZM16 6.15C10.57 6.15 6.16 10.57 6.16 15.99 6.16 21.41 10.58 25.83 16 25.83 21.42 25.83 25.84 21.41 25.84 15.99 25.84 10.57 21.42 6.15 16 6.15Z" class="MsftOfcResponsive_Fill_7823dc" fill="#7823DC"/><g><path d="M9.39 23.61C9.13 23.61 8.88 23.51 8.68 23.32 8.35 22.99 8.29 22.47 8.54 22.07L13.69 13.99C13.77 13.87 13.87 13.76 14 13.68L22.08 8.53C22.48 8.28 22.99 8.33 23.33 8.67 23.66 9 23.72 9.52 23.47 9.92L18.32 18C18.24 18.12 18.14 18.23 18.01 18.31L9.93 23.46C9.76 23.57 9.58 23.62 9.39 23.62ZM15.27 15.26 12.67 19.34 16.75 16.74 19.35 12.66 15.27 15.26Z" class="MsftOfcResponsive_Fill_7823dc" fill="#7823DC"/><path d="M17.46 18.46C17.2 18.46 16.95 18.36 16.75 18.17L13.83 15.25C13.44 14.86 13.44 14.23 13.83 13.84 14.22 13.45 14.85 13.45 15.24 13.84L18.16 16.76C18.55 17.15 18.55 17.78 18.16 18.17 17.96 18.37 17.71 18.46 17.45 18.46Z" class="MsftOfcResponsive_Fill_7823dc" fill="#7823DC"/></g><rect x="15" y="5.16" width="2" height="3.57" class="MsftOfcResponsive_Fill_7823dc" fill="#7823DC"/><rect x="15" y="23.27" width="2" height="3.5" class="MsftOfcResponsive_Fill_7823dc" fill="#7823DC"/><rect x="5.16" y="15" width="3.57" height="2" class="MsftOfcResponsive_Fill_7823dc" fill="#7823DC"/><rect x="23.27" y="15" width="3.44" height="2" class="MsftOfcResponsive_Fill_7823dc" fill="#7823DC"/></svg>