<svg viewBox="0 0 32 32" xmlns="http://www.w3.org/2000/svg" xmlns:xlink="http://www.w3.org/1999/xlink" overflow="hidden"><defs></defs><g id="a"></g><g id="b"><g id="c"></g><g><rect x="-0.0162" y="16.0118" width="28.0406" height="3.97197" fill="#7823DC"/><rect x="3.97624" y="-0.00454" width="28.0075" height="4.01" fill="#7823DC"/><path d="M14.1001 31.9839 12.1001 31.9839C12.1001 25.3799 6.66455 20.0068-0.01611 20.0068L-0.01611 18.0068C7.76758 18.0068 14.1001 24.2769 14.1001 31.9839Z" fill="#7823DC"/><path d="M15.9082 31.9839 13.9082 31.9839C13.9082 24.2769 20.2407 18.0068 28.0244 18.0068L28.0244 20.0068C21.3438 20.0068 15.9082 25.3799 15.9082 31.9839Z" fill="#7823DC"/><path d="M21.0705 10.5824 19.0705 10.5824C19.0705 9.97697 18.5778 9.4843 17.9718 9.4843 17.3659 9.4843 16.8732 9.97698 16.8732 10.5824L14.8732 10.5824C14.8732 8.87394 16.2633 7.4843 17.9718 7.4843 19.6803 7.4843 21.0705 8.87395 21.0705 10.5824Z" fill="#7823DC"/><rect x="14.8791" y="10.5771" width="2" height="2.08398" fill="#7823DC"/><rect x="19.0709" y="10.5654" width="2" height="2.78662" fill="#7823DC"/><g><rect x="19.067" y="12.019" width="12.9312" height="2" fill="#7823DC"/><rect x="29.9955" y="3.70476" width="2" height="9.30249" fill="#7823DC"/></g><g><rect x="3.98062" y="12.019" width="12.9043" height="2" fill="#7823DC"/><rect x="3.98013" y="3.9257" width="2" height="9.08154" fill="#7823DC"/></g></g></g></svg>