<svg viewBox="0 0 32 32" xmlns="http://www.w3.org/2000/svg" xmlns:xlink="http://www.w3.org/1999/xlink" id="Layer_1" overflow="hidden"><style>
.MsftOfcThm_Text2_Fill_v2 {
 fill:#7823DC; 
}
</style>
<path d="M2 12 0 12 0 11C0 9.07 0.51 7.17 1.48 5.5 2.44 3.83 3.84 2.44 5.5 1.48 7.17 0.51 9.07 0 11 0L11.02 0C12.94 0 14.84 0.51 16.5 1.46L15.5 3.19C14.13 2.4 12.59 1.95 11 1.99 9.42 1.99 7.87 2.41 6.5 3.2 5.14 3.99 4 5.13 3.21 6.49 2.42 7.86 2 9.41 2 10.99L2 11.99Z" class="MsftOfcThm_Text2_Fill_v2" fill="#7823DC"/><path d="M19.99 10.6C19.95 9.49 19.7 8.42 19.26 7.4L21.09 6.6C21.63 7.84 21.93 9.16 21.99 10.52L19.99 10.6Z" class="MsftOfcThm_Text2_Fill_v2" fill="#7823DC"/><path d="M4.51 30.66C3.43 29.83 2.51 28.81 1.78 27.62 0.61 25.73 0 23.54 0 21.29L0 16 2 16 2 21.29C2 23.17 2.51 25 3.48 26.57 4.08 27.55 4.84 28.39 5.73 29.07L4.51 30.66Z" class="MsftOfcThm_Text2_Fill_v2" fill="#7823DC"/><path d="M18 14 16 14 16 11C16 10.12 15.77 9.26 15.33 8.5 14.89 7.74 14.26 7.11 13.5 6.67 11.98 5.79 10.02 5.79 8.5 6.67L7.5 4.94C9.62 3.71 12.37 3.71 14.5 4.94 15.56 5.55 16.45 6.44 17.06 7.5 17.67 8.56 18 9.77 18 11L18 14Z" class="MsftOfcThm_Text2_Fill_v2" fill="#7823DC"/><path d="M12 28 11 28C9.13 28 7.37 27.27 6.05 25.95 4.73 24.63 4 22.87 4 21L4 10 6 10 6 21C6 22.33 6.52 23.59 7.46 24.54 8.4 25.48 9.66 26 11 26L12 26 12 28Z" class="MsftOfcThm_Text2_Fill_v2" fill="#7823DC"/><path d="M14 16 12 16 12 11C12 10.74 11.89 10.48 11.71 10.29 11.33 9.91 10.67 9.91 10.3 10.29 10.11 10.48 10.01 10.73 10.01 11L10.01 16 8.01 16 8.01 11C8.01 10.2 8.32 9.44 8.89 8.88 10.02 7.75 12 7.75 13.13 8.88 13.7 9.45 14.01 10.2 14.01 11L14.01 16Z" class="MsftOfcThm_Text2_Fill_v2" fill="#7823DC"/><path d="M12 24 11 24C10.2 24 9.45 23.69 8.88 23.12 8.31 22.55 8 21.8 8 21L8 18 10 18 10 21C10 21.27 10.1 21.52 10.29 21.71 10.48 21.9 10.73 22 11 22L12 22 12 24Z" class="MsftOfcThm_Text2_Fill_v2" fill="#7823DC"/><path d="M23 32C20.6 32 18.34 31.06 16.64 29.36 14.94 27.66 14 25.4 14 23 14 20.6 14.94 18.34 16.64 16.64 18.34 14.94 20.6 14 23 14 25.4 14 27.66 14.94 29.36 16.64 31.06 18.34 32 20.6 32 23 32 25.4 31.06 27.66 29.36 29.36 27.66 31.06 25.4 32 23 32ZM23 16C21.13 16 19.37 16.73 18.05 18.05 16.73 19.37 16 21.13 16 23 16 24.87 16.73 26.63 18.05 27.95 19.37 29.27 21.13 30 23 30 24.87 30 26.63 29.27 27.95 27.95 29.27 26.63 30 24.87 30 23 30 21.13 29.27 19.37 27.95 18.05 26.63 16.73 24.87 16 23 16Z" class="MsftOfcThm_Text2_Fill_v2" fill="#7823DC"/><path d="M21.95 27.41 18.47 23.98 19.88 22.56 21.77 24.42 25.77 19.33 27.35 20.57 21.95 27.41Z" class="MsftOfcThm_Text2_Fill_v2" fill="#7823DC"/><rect x="9.27" y="30" width="4" height="2" class="MsftOfcThm_Text2_Fill_v2" fill="#7823DC"/></svg>