<svg viewBox="0 0 32 32" xmlns="http://www.w3.org/2000/svg" xmlns:xlink="http://www.w3.org/1999/xlink" id="Layer_1" overflow="hidden"><path d="M12.3 0 0 0 0 6.8 12.3 6.8 12.3 0ZM10 4.5 2.2 4.5 2.2 2.3 10 2.3 10 4.5Z" fill="#7823DC"/><path d="M26 0 13.7 0 13.7 6.8 26 6.8 26 0ZM23.8 4.5 16 4.5 16 2.3 23.8 2.3 23.8 4.5Z" fill="#7823DC"/><path d="M18.3 8.9 6 8.9 6 15.7 18.3 15.7 18.3 8.9ZM16 13.4 8.2 13.4 8.2 11.2 16 11.2 16 13.4Z" fill="#7823DC"/><path d="M19.7 8.9 19.7 15.7 32 15.7 32 8.9 19.7 8.9ZM29.8 13.4 22 13.4 22 11.2 29.8 11.2 29.8 13.4Z" fill="#7823DC"/><path d="M22.3 21 23.7 19.6 25.8 21.7 28 19.5 29.4 20.9 25.8 24.5Z" fill="#7823DC" fill-rule="evenodd" clip-rule="evenodd"/><rect x="24.9" y="16.8" width="2" height="5.9" fill="#7823DC"/><path d="M30 27 30 30 2 30 2 27 30 27M32 25 0 25 0 32 32 32 32 25 32 25Z" fill="#7823DC"/></svg>