<svg viewBox="0 0 32 31.99" xmlns="http://www.w3.org/2000/svg" xmlns:xlink="http://www.w3.org/1999/xlink" id="Layer_1" overflow="hidden"><style>
.MsftOfcResponsive_Fill_7823dc {
 fill:#7823DC; 
}
</style>
<defs></defs><path d="M10.57 5.46 7.57 5.46C5.99 5.46 4.61 4.08 4.61 2.5L4.61 1 6.61 1 6.61 2.5C6.61 2.98 7.09 3.46 7.57 3.46L10.57 3.46C11.06 3.46 11.53 2.98 11.53 2.5L11.53 1 13.53 1 13.53 2.5C13.53 4.08 12.15 5.46 10.57 5.46Z" class="MsftOfcResponsive_Fill_7823dc" stroke-width="0" fill="#7823DC"/><path d="M14.71 31.99 3.29 31.99C1.48 31.99 0 30.51 0 28.68L0 3.31C0 1.48 1.47 0 3.29 0L14.72 0C16.53 0 18.01 1.48 18.01 3.31L18.01 5.62 16.01 5.62 16.01 3.31C16.01 2.59 15.43 2 14.72 2L3.29 2C2.58 2 2 2.59 2 3.31L2 28.69C2 29.41 2.58 30 3.29 30L14.72 30C15.43 30 16.01 29.41 16.01 28.69L16.01 26.38 18.01 26.38 18.01 28.69C18.01 30.51 16.54 32 14.72 32Z" class="MsftOfcResponsive_Fill_7823dc" stroke-width="0" fill="#7823DC"/><rect x="5.61" y="23.99" width="6.92" height="2" class="MsftOfcResponsive_Fill_7823dc" stroke-width="0" fill="#7823DC"/><path d="M14 23.7 14 7.99 32 7.99 32 19.93 23.91 19.93 14 23.69ZM16 9.99 16 20.8 23.54 17.93 30 17.93 30 9.99 16 9.99Z" class="MsftOfcResponsive_Fill_7823dc" stroke-width="0" fill="#7823DC"/><rect x="19" y="11.49" width="8" height="2" class="MsftOfcResponsive_Fill_7823dc" stroke-width="0" fill="#7823DC"/><rect x="19" y="14.49" width="4.36" height="2" class="MsftOfcResponsive_Fill_7823dc" stroke-width="0" fill="#7823DC"/></svg>