<svg viewBox="0 0 32 32" xmlns="http://www.w3.org/2000/svg" xmlns:xlink="http://www.w3.org/1999/xlink" id="Layer_1" overflow="hidden"><style>
.MsftOfcResponsive_Fill_7823dc {
 fill:#7823DC; 
}
</style>
<image width="137" height="120" xlink:href="E01DF6AC.jpg" overflow="visible" transform="matrix(0.7499 0 0 0.7499 40.1314 -39.4835)"></image><path d="M10 13.8 10 30 5 30 5 13.8 10 13.8M12 11.8 3 11.8 3 32 12 32 12 11.8 12 11.8Z" class="MsftOfcResponsive_Fill_7823dc" fill="#7823DC"/><g><path d="M73.7 24.3 73.4 24.3 73.4 24.6 73.7 24.6 73.7 24.3Z" class="MsftOfcResponsive_Fill_7823dc" fill="#7823DC"/></g><path d="M30 22 30 25 12 25 12 22 30 22M32 20 10 20 10 27 32 27 32 20 32 20Z" class="MsftOfcResponsive_Fill_7823dc" fill="#7823DC"/><path d="M30 27 30 30 12 30 12 27 30 27M32 25 10 25 10 32 32 32 32 25 32 25Z" class="MsftOfcResponsive_Fill_7823dc" fill="#7823DC"/><path d="M13.3 11 13.3 14.9 13.3 16.9 15.3 16.9 30 16.9 30 20 12 20 12 16.5 12 14.9 12 11 13.3 11M15.3 9 10 9 10 14.9 10 16.5 10 22 32 22 32 14.9 15.3 14.9 15.3 9 15.3 9Z" class="MsftOfcResponsive_Fill_7823dc" fill="#7823DC"/><rect x="13.3" y="11.2" width="15.4" height="2" class="MsftOfcResponsive_Fill_7823dc" fill="#7823DC" transform="matrix(0.9098 -0.4151 0.4151 0.9098 -3.184 9.8207)"/><g><path d="" class="MsftOfcResponsive_Fill_7823dc" stroke="#000000" stroke-width="2" stroke-miterlimit="10" fill="#7823DC"/></g><rect x="1" y="14" width="2" height="3.1" class="MsftOfcResponsive_Fill_7823dc" fill="#7823DC" transform="matrix(0.2039 -0.979 0.979 0.2039 -13.6407 14.3596)"/><rect x="1" y="18.2" width="2" height="3.1" class="MsftOfcResponsive_Fill_7823dc" fill="#7823DC" transform="matrix(0.2039 -0.979 0.979 0.2039 -17.7239 17.6799)"/><path d="M22.5 16 19.5 16 19.5 19 22.5 19 22.5 16Z" class="MsftOfcResponsive_Fill_7823dc" fill="#7823DC"/><path d="M22.5 21 19.5 21 19.5 24 22.5 24 22.5 21Z" class="MsftOfcResponsive_Fill_7823dc" fill="#7823DC"/><path d="M22.5 26 19.5 26 19.5 29 22.5 29 22.5 26Z" class="MsftOfcResponsive_Fill_7823dc" fill="#7823DC"/></svg>