<svg viewBox="0 0 32 32" xmlns="http://www.w3.org/2000/svg" xmlns:xlink="http://www.w3.org/1999/xlink" xml:space="preserve" overflow="hidden"><style>
.MsftOfcResponsive_Fill_7823dc {
 fill:#7823DC; 
}
</style>
<g id="Layer_3"></g><g id="Layer_1"></g><g id="Layer_2"></g><g id="Layer_4"></g><g id="Layer_5"><path d="M25.49 0 25.49 1.88 30.19 1.88 30.19 6.58 32.07 6.58 32.07 0 25.49 0Z" class="st0 MsftOfcResponsive_Fill_7823dc" fill="#7823DC"/><path d="M1.88 1.88 6.58 1.88 6.58 0 0 0 0 6.58 1.88 6.58 1.88 1.88Z" class="st0 MsftOfcResponsive_Fill_7823dc" fill="#7823DC"/><path d="M30.19 30.19 25.49 30.19 25.49 32.07 32.07 32.07 32.07 25.49 30.19 25.49 30.19 30.19Z" class="st0 MsftOfcResponsive_Fill_7823dc" fill="#7823DC"/><path d="M1.88 25.49 0 25.49 0 32.07 6.58 32.07 6.58 30.19 1.88 30.19 1.88 25.49Z" class="st0 MsftOfcResponsive_Fill_7823dc" fill="#7823DC"/><path d="M24.9 5.14 7.91 5.14 7.91 7.16 15.22 7.16 15.22 26.73 17.56 26.73 17.56 7.16 24.9 7.16Z" class="st0 MsftOfcResponsive_Fill_7823dc" fill="#7823DC"/></g></svg>