<svg viewBox="0 0 32 32" xmlns="http://www.w3.org/2000/svg" xmlns:xlink="http://www.w3.org/1999/xlink" id="Layer_1" overflow="hidden"><path d="" stroke="#4E2B83" stroke-width="2" stroke-miterlimit="10" fill="#7823DC"/><g><g><path d="M2.6 11.8 4.5 17 5.4 19.5 7.6 17.9 7.7 17.8 8.6 19.4 8.8 19.8 9.2 20.1 12.2 22.1 12.6 24.5 12.7 24.9 12.9 25.3 13.9 26.9 11.2 29.1 10 27.5 9.8 27.2 9.5 27 3.8 23.5 2.2 12.1 2.6 11.8M3.6 8.6 0 11.2 2 24.7 8.5 28.7 10.9 31.9 16.7 27.3 14.7 24.2 14 20.9 10.2 18.4 8.2 14.9 6.3 16.3 3.6 8.6 3.6 8.6Z" fill="#7823DC"/><path d="M7.3 22.8 5.2 19.3 4.9 17.9 6.9 17.5 7.1 18.5 9.1 21.7Z" fill="#7823DC"/></g><g><path d="M29.4 11.8 29.9 12.1 28.2 23.5 22.5 27 22.2 27.2 22 27.5 20.9 29 18.2 26.8 19.2 25.2 19.4 24.8 19.5 24.4 19.9 22 22.9 20 23.3 19.7 23.5 19.3 24.4 17.7 24.5 17.8 26.7 19.4 27.6 16.9 29.4 11.8M28.4 8.6 25.6 16.3 23.7 14.9 21.7 18.4 18 20.9 17.5 24.2 15.5 27.3 21.3 31.9 23.7 28.7 30.2 24.7 32.2 11.2 28.4 8.6 28.4 8.6Z" fill="#7823DC"/><path d="M24.7 22.8 23 21.7 24.9 18.5 25.1 17.5 27.1 17.9 26.8 19.3Z" fill="#7823DC"/></g></g><g><path d="M9 2C9.9 2 10.6 2.7 10.6 3.6 10.6 4.5 9.9 5.2 9 5.2 8.1 5.2 7.4 4.5 7.4 3.6 7.4 2.7 8.1 2 9 2M9 0C7 0 5.4 1.6 5.4 3.6 5.4 5.6 7 7.2 9 7.2 11 7.2 12.6 5.6 12.6 3.6 12.6 1.6 11 0 9 0L9 0Z" fill="#7823DC"/><path d="M21.5 8.8C22.4 8.8 23.1 9.5 23.1 10.4 23.1 11.3 22.3 12 21.5 12 20.7 12 19.9 11.3 19.9 10.4 19.9 9.5 20.6 8.8 21.5 8.8M21.5 6.8C19.5 6.8 17.9 8.4 17.9 10.4 17.9 12.4 19.5 14 21.5 14 23.5 14 25.1 12.4 25.1 10.4 25.1 8.4 23.4 6.8 21.5 6.8L21.5 6.8Z" fill="#7823DC"/><path d="M13.3 14.4C13.7 14.4 14.1 14.7 14.1 15.2 14.1 15.7 13.8 16 13.3 16 12.8 16 12.5 15.7 12.5 15.2 12.5 14.7 12.8 14.4 13.3 14.4M13.3 12.4C11.8 12.4 10.5 13.6 10.5 15.2 10.5 16.8 11.7 18 13.3 18 14.9 18 16.1 16.8 16.1 15.2 16.1 13.6 14.8 12.4 13.3 12.4L13.3 12.4Z" fill="#7823DC"/><path d="M19.9 2C20.3 2 20.7 2.3 20.7 2.8 20.7 3.3 20.4 3.6 19.9 3.6 19.4 3.6 19.1 3.3 19.1 2.8 19.1 2.3 19.5 2 19.9 2M19.9 0C18.4 0 17.1 1.2 17.1 2.8 17.1 4.4 18.3 5.6 19.9 5.6 21.5 5.6 22.7 4.4 22.7 2.8 22.7 1.2 21.4 0 19.9 0L19.9 0Z" fill="#7823DC"/><rect x="19.5" y="4.4" width="2" height="2.9" fill="#7823DC" transform="matrix(0.9822 -0.1879 0.1879 0.9822 -0.7237 3.9514)"/><rect x="10.2" y="5.9" width="2" height="7.6" fill="#7823DC" transform="matrix(0.9273 -0.3744 0.3744 0.9273 -2.8168 4.887)"/><rect x="14.8" y="11.8" width="4.7" height="2" fill="#7823DC" transform="matrix(0.858 -0.5137 0.5137 0.858 -4.1296 10.6401)"/></g></svg>