<svg viewBox="0 0 32 32" xmlns="http://www.w3.org/2000/svg" xmlns:xlink="http://www.w3.org/1999/xlink" id="Graphic" overflow="hidden"><defs></defs><path d="M7.67871 31.4141 0.58594 24.3213 24.6328 0.28564 31.7256 7.37793ZM3.41406 24.3213 7.67871 28.5859 28.8975 7.37794 24.6328 3.11377Z" fill="#7823DC"/><rect x="4.53526" y="20.2004" width="1.99979" height="3.99957" fill="#7823DC" transform="matrix(0.707107 -0.707107 0.707107 0.707107 -14.0767 10.4162)"/><rect x="8.0714" y="17.079" width="1.99979" height="5.9997" fill="#7823DC" transform="matrix(0.707148 -0.707066 0.707066 0.707148 -11.5405 12.2942)"/><rect x="10.1925" y="14.5437" width="1.99979" height="3.99957" fill="#7823DC" transform="matrix(0.707107 -0.707107 0.707107 0.707107 -8.41982 12.7597)"/><rect x="13.7281" y="11.4219" width="1.99979" height="6.00039" fill="#7823DC" transform="matrix(0.707066 -0.707148 0.707148 0.707066 -5.88423 14.6396)"/><rect x="15.8498" y="8.88655" width="1.99961" height="4.00009" fill="#7823DC" transform="matrix(0.707168 -0.707046 0.707046 0.707168 -2.76321 15.1014)"/><rect x="19.3849" y="5.76546" width="1.99979" height="5.99936" fill="#7823DC" transform="matrix(0.707107 -0.707107 0.707107 0.707107 -0.22733 16.9815)"/><rect x="21.506" y="3.22971" width="1.99979" height="3.99957" fill="#7823DC" transform="matrix(0.707107 -0.707107 0.707107 0.707107 2.894 17.4457)"/></svg>