<svg viewBox="0 0 32 32" xmlns="http://www.w3.org/2000/svg" xmlns:xlink="http://www.w3.org/1999/xlink" id="Graphic" xml:space="preserve" overflow="hidden"><path d="M29.3 18 20.7 20.8 20.7 19.6 20.7 17.3 18.5 17.6 15.3 18 10.4 16 9.5 15.7 8.7 16.2 5.5 18 2.3 18 0.3 18 0.3 20 0.3 26 0.3 28 2.3 28 5.5 28 15.3 32 30.8 23.7 31.8 23.2 31.8 22 31.8 20 31.8 17.2 29.3 18 29.3 18 29.3 18 29.3 18 29.3 18ZM29.8 22 15 29.8 5.9 26 2.3 26 2.3 20 6 20 9.7 18 15.1 20 18.8 19.5 18.8 21.5 17.8 22 14.1 22.8 14.1 24.5 18 23.8 18 23.8 29.8 20 29.8 22 29.8 22 29.8 22 29.8 22 29.8 22Z" fill="#7823DC" fill-rule="evenodd" clip-rule="evenodd"/><g><path d="M10.5 10.6 20.1 0.9 21.5 2.3 11.9 12Z" fill="#7823DC" fill-rule="evenodd" clip-rule="evenodd"/><path d="M19.5 9C20.1 9 20.5 9.4 20.5 10 20.5 10.6 20.1 11 19.5 11 18.9 11 18.5 10.6 18.5 10 18.5 9.4 18.9 9 19.5 9M19.5 7C17.8 7 16.5 8.3 16.5 10 16.5 11.7 17.8 13 19.5 13 21.2 13 22.5 11.7 22.5 10 22.4 8.3 21.1 7 19.5 7L19.5 7 19.5 7 19.5 7Z" fill="#7823DC" fill-rule="evenodd" clip-rule="evenodd"/><path d="M12.5 2C13.1 2 13.5 2.4 13.5 3 13.5 3.6 13.1 4 12.5 4 11.9 4 11.5 3.6 11.5 3 11.6 2.4 11.9 2 12.5 2M12.5 0C10.8 0 9.5 1.3 9.5 3 9.5 4.7 10.8 6 12.5 6 14.2 6 15.5 4.7 15.5 3 15.5 1.3 14.2 0 12.5 0L12.5 0 12.5 0 12.5 0Z" fill="#7823DC" fill-rule="evenodd" clip-rule="evenodd"/></g></svg>