<svg viewBox="0 0 32 32" xmlns="http://www.w3.org/2000/svg" xmlns:xlink="http://www.w3.org/1999/xlink" id="Layer_1" overflow="hidden"><g><path d="M3 14.8 0 17.8 0 20.6 2 18.6 4 18.6 6 20.6 6 17.8 3 14.8 3 14.8Z" fill="#7823DC" fill-rule="evenodd" clip-rule="evenodd"/><path d="M17.2 3 14.2 0 11.3 0 13.3 2 13.3 4 11.3 6 14.2 6 17.2 3 17.2 3Z" fill="#7823DC" fill-rule="evenodd" clip-rule="evenodd"/><path d="M29 17.2 32 14.2 32 11.3 30 13.4 28 13.4 26 11.3 26 14.2 29 17.2 29 17.2Z" fill="#7823DC" fill-rule="evenodd" clip-rule="evenodd"/><path d="M14.8 29 17.8 32 20.6 32 18.6 30 18.6 28 20.6 26 17.8 26 14.8 29 14.8 29Z" fill="#7823DC" fill-rule="evenodd" clip-rule="evenodd"/><path d="M18.4 28.2 18.4 30.2C23.9 29.4 28.5 25.4 30 20L27.9 20C26.5 24.3 22.8 27.4 18.4 28.2L18.4 28.2Z" fill="#7823DC" fill-rule="evenodd" clip-rule="evenodd"/><path d="M3.8 18.4 1.8 18.4C2.5 23.9 6.6 28.5 12 30L12 27.9C7.7 26.5 4.5 22.8 3.8 18.4L3.8 18.4Z" fill="#7823DC" fill-rule="evenodd" clip-rule="evenodd"/><path d="M2 12 4.1 12C5.5 7.7 9.2 4.5 13.6 3.8L13.6 1.8C8 2.5 3.5 6.6 2 12L2 12Z" fill="#7823DC" fill-rule="evenodd" clip-rule="evenodd"/><path d="M20 2 20 4.1C24.3 5.5 27.5 9.2 28.2 13.7L30.2 13.7C29.4 8.1 25.4 3.5 20 2L20 2Z" fill="#7823DC" fill-rule="evenodd" clip-rule="evenodd"/></g><g><path d="M13.6 15 18.4 15 18.4 17 13.6 17 13.6 15Z" fill="#7823DC" fill-rule="evenodd" clip-rule="evenodd"/><path d="M18.4 10.2 13.6 15 14.9 16.4 18.4 12.9 18.4 10.2" fill="#7823DC" fill-rule="evenodd" clip-rule="evenodd"/><path d="M13.6 21.8 18.4 17 17.1 15.6 13.6 19.1 13.6 21.8" fill="#7823DC" fill-rule="evenodd" clip-rule="evenodd"/></g></svg>