<svg viewBox="0 0 32 32" xmlns="http://www.w3.org/2000/svg" xmlns:xlink="http://www.w3.org/1999/xlink" xml:space="preserve" overflow="hidden"><style>
.MsftOfcResponsive_Fill_7823dc {
 fill:#7823DC; 
}
</style>
<g id="Layer_3"></g><g id="Layer_1"><path d="M29.71 7 29.71 25.22 2.29 25.22 2.29 6.98 29.68 6.98 27.4 4.7 0.01 4.7 0.01 27.5 31.99 27.5 31.99 9.28 29.71 7 29.71 7Z" class="MsftOfcResponsive_Fill_7823dc" fill="#7823DC"/></g><g id="Layer_2"><g><path d="M7.06 12.79C7.06 11.99 7.34 11.31 7.9 10.76 8.46 10.21 9.14 9.92 9.93 9.92 10.72 9.92 11.4 10.2 11.96 10.76 12.52 11.32 12.8 12 12.8 12.79 12.8 13.58 12.52 14.26 11.96 14.82 11.4 15.38 10.72 15.66 9.93 15.66 9.14 15.66 8.46 15.38 7.9 14.82 7.34 14.26 7.06 13.58 7.06 12.79ZM8.55 12.79C8.55 13.17 8.68 13.49 8.95 13.76 9.22 14.03 9.54 14.16 9.92 14.16 10.3 14.16 10.62 14.03 10.89 13.76 11.16 13.49 11.29 13.17 11.29 12.79 11.29 12.41 11.16 12.09 10.89 11.82 10.62 11.55 10.3 11.42 9.92 11.42 9.54 11.42 9.22 11.55 8.95 11.82 8.68 12.09 8.55 12.42 8.55 12.79Z" class="MsftOfcResponsive_Fill_7823dc" stroke-width="0.25" stroke-miterlimit="10" fill="#7823DC"/><path d="M22.64 17.56 24.94 18.29C24.59 19.57 24 20.53 23.18 21.15 22.36 21.77 21.32 22.08 20.06 22.08 18.5 22.08 17.22 21.55 16.21 20.48 15.21 19.41 14.7 17.96 14.7 16.11 14.7 14.15 15.21 12.63 16.22 11.55 17.23 10.47 18.56 9.93 20.2 9.93 21.64 9.93 22.81 10.35 23.7 11.2 24.24 11.7 24.64 12.42 24.9 13.36L22.55 13.92C22.41 13.31 22.12 12.83 21.68 12.48 21.24 12.13 20.7 11.95 20.07 11.95 19.2 11.95 18.49 12.26 17.95 12.89 17.41 13.52 17.14 14.53 17.14 15.93 17.14 17.42 17.41 18.47 17.94 19.1 18.48 19.73 19.17 20.05 20.02 20.05 20.65 20.05 21.19 19.85 21.65 19.45 22.12 19.05 22.45 18.42 22.64 17.56Z" class="MsftOfcResponsive_Fill_7823dc" fill="#7823DC"/></g></g></svg>