<svg viewBox="0 0 32.01 32.07" xmlns="http://www.w3.org/2000/svg" xmlns:xlink="http://www.w3.org/1999/xlink" id="a" overflow="hidden"><defs><clipPath id="b"><path d="M0 32.06 32.01 32.06 32.01 0 0 0 0 32.06 0 32.06Z" fill="none" clip-rule="evenodd"/></clipPath><clipPath id="c"><path d="M0 32.06 32.01 32.06 32.01 0 0 0 0 32.06 0 32.06Z" fill="none" clip-rule="evenodd"/></clipPath><clipPath id="d"><path d="M0 32.06 32.01 32.06 32.01 0 0 0 0 32.06 0 32.06Z" fill="none" clip-rule="evenodd"/></clipPath><clipPath id="e"><path d="M0 32.06 32.01 32.06 32.01 0 0 0 0 32.06 0 32.06Z" fill="none" clip-rule="evenodd"/></clipPath><clipPath id="f"><path d="M0 32.06 32.01 32.06 32.01 0 0 0 0 32.06 0 32.06Z" fill="none" clip-rule="evenodd"/></clipPath></defs><path d="M22.1 32.07C18.79 32.07 16.1 29.38 16.1 26.07 16.1 22.76 18.79 20.07 22.1 20.07 25.41 20.07 28.1 22.76 28.1 26.07 28.1 29.38 25.41 32.07 22.1 32.07ZM22.1 22.07C19.89 22.07 18.1 23.86 18.1 26.07 18.1 28.28 19.89 30.07 22.1 30.07 24.31 30.07 26.1 28.28 26.1 26.07 26.1 23.86 24.31 22.07 22.1 22.07Z" fill="#7823DC"/><g clip-path="url(#b)"><path d="M26.11 0 28.09 0 28.09 26.04 26.11 26.04 26.11 0 26.11 0Z" fill="#7823DC" fill-rule="evenodd"/><g clip-path="url(#c)"><path d="M32.01 3.95 32.01 6.8 26.68 1.43 28.09 0 32.01 3.95 32.01 3.95 32.01 3.95Z" fill="#7823DC" fill-rule="evenodd"/><g clip-path="url(#d)"><path d="M6 32.07C2.69 32.07 0 29.38 0 26.07 0 22.76 2.69 20.07 6 20.07 9.31 20.07 12 22.76 12 26.07 12 29.38 9.31 32.07 6 32.07ZM6 22.07C3.79 22.07 2 23.86 2 26.07 2 28.28 3.8 30.07 6 30.07 8.2 30.07 10 28.28 10 26.07 10 23.86 8.2 22.07 6 22.07Z" fill="#7823DC"/><g clip-path="url(#e)"><path d="M9.95 0 12 0 12 26.04 9.95 26.04 9.95 0 9.95 0Z" fill="#7823DC" fill-rule="evenodd"/><g clip-path="url(#f)"><path d="M15.97 4.03 15.97 6.86 10.52 1.42 11.94 0 15.97 4.03 15.97 4.03 15.97 4.03Z" fill="#7823DC" fill-rule="evenodd"/></g></g></g></g></g></svg>