<svg viewBox="0 0 32 32" xmlns="http://www.w3.org/2000/svg" xmlns:xlink="http://www.w3.org/1999/xlink" overflow="hidden"><style>
.MsftOfcResponsive_Fill_7823dc {
 fill:#7823DC; 
}
</style>
<defs></defs><g id="Layer_3"><rect x="0" y="30" width="32" height="2" class="MsftOfcResponsive_Fill_7823dc" fill="#7823DC"/><path d="M29.824 22C29.9197 22.0036 29.9964 22.0803 30 22.176L30.0252 26 2.15485 26C2.74174 23.6517 4.85021 22.0031 7.27078 22L29.824 22M29.824 20 7.27078 20C3.26012 20.0117 0.0117529 23.2601 8.65173e-08 27.2708 5.6081e-06 27.6735 0.326474 28 0.72921 28L30.0252 28C31.1145 27.9968 31.9968 27.1145 32 26.0252L32 22.176C31.9965 20.9757 31.0243 20.0035 29.824 20Z" class="MsftOfcResponsive_Fill_7823dc" fill="#7823DC"/><path d="M6 12C8.2081 12.0025 9.9975 13.7919 10 16L12 16C12 12.6863 9.31371 10 6 10 2.68629 10 -8.88178e-16 12.6863 0 16L2 16C2.0025 13.7919 3.7919 12.0025 6 12Z" class="MsftOfcResponsive_Fill_7823dc" fill="#7823DC"/><path d="M16 12C18.2081 12.0025 19.9975 13.7919 20 16L22 16C22 12.6863 19.3137 10 16 10 12.6863 10 10 12.6863 10 16L12 16C12.0025 13.7919 13.7919 12.0025 16 12Z" class="MsftOfcResponsive_Fill_7823dc" fill="#7823DC"/><path d="M26 12C28.2081 12.0025 29.9975 13.7919 30 16L32 16C32 12.6863 29.3137 10 26 10 22.6863 10 20 12.6863 20 16L22 16C22.0025 13.7919 23.7919 12.0025 26 12Z" class="MsftOfcResponsive_Fill_7823dc" fill="#7823DC"/><rect x="0" y="16" width="2" height="2" class="MsftOfcResponsive_Fill_7823dc" fill="#7823DC"/><rect x="10" y="16" width="2" height="2" class="MsftOfcResponsive_Fill_7823dc" fill="#7823DC"/><rect x="20" y="16" width="2" height="2" class="MsftOfcResponsive_Fill_7823dc" fill="#7823DC"/><rect x="30" y="16" width="2" height="2" class="MsftOfcResponsive_Fill_7823dc" fill="#7823DC"/><circle cx="3" cy="29" r="1" class="MsftOfcResponsive_Fill_7823dc" fill="#7823DC"/><circle cx="5" cy="29" r="1" class="MsftOfcResponsive_Fill_7823dc" fill="#7823DC"/><circle cx="15" cy="29" r="1" class="MsftOfcResponsive_Fill_7823dc" fill="#7823DC"/><circle cx="16.9964" cy="29" r="1" class="MsftOfcResponsive_Fill_7823dc" fill="#7823DC"/><circle cx="27" cy="29" r="1" class="MsftOfcResponsive_Fill_7823dc" fill="#7823DC"/><circle cx="29" cy="29" r="1" class="MsftOfcResponsive_Fill_7823dc" fill="#7823DC"/><path d="M12 20 10 20 10 28 12 28 12 20 12 20Z" class="MsftOfcResponsive_Fill_7823dc" fill="#7823DC"/><path d="M22 20 20 20 20 28 22 28 22 20 22 20Z" class="MsftOfcResponsive_Fill_7823dc" fill="#7823DC"/><path d="M29 11.587 27 11.587 27 2.017 5 2.017 5 11.587 3 11.587 3 0.017 29 0.017 29 11.587Z" class="MsftOfcResponsive_Fill_7823dc" fill="#7823DC"/><rect x="12" y="3.5814" width="8" height="2" class="MsftOfcResponsive_Fill_7823dc" fill="#7823DC"/><rect x="12" y="6.46512" width="8" height="2" class="MsftOfcResponsive_Fill_7823dc" fill="#7823DC"/></g></svg>