<svg viewBox="0 0 32.03 32.01" xmlns="http://www.w3.org/2000/svg" xmlns:xlink="http://www.w3.org/1999/xlink" id="Layer_1" overflow="hidden"><style>
.MsftOfcResponsive_Fill_7823dc {
 fill:#7823DC; 
}
</style>
<defs></defs><path d="M32.02 28.03C30.61 28.03 29.87 28.77 29.32 29.31 28.82 29.8 28.54 30.03 28.02 30.01 27.54 30.01 27.29 29.84 26.92 29.49 29.19 26.93 29.64 23.89 29.66 23.72L30.04 19.74 28.97 19.43 28.97 12.9 29.96 12.9 29.96 9.01 29.98 7.99C29.98 6.25 27.32 4.77 25.6 4.66L19.42 4.25 19.42 3.65 22.85 4.11 23.12 2.13 19.08 1.59C18.59 0.65 17.62 0.01 16.49 0.01L15.52 0.01C14.39 0.01 13.42 0.66 12.93 1.59L8.88 2.13 9.15 4.11 12.59 3.65 12.59 4.25 6.39 4.66C4.69 4.77 2.08 6.25 2.08 7.95L2.04 12.9 3.38 12.9 3.38 19.34 1.96 19.75 2.52 23.44C2.52 23.44 2.55 23.51 2.56 23.55 2.56 23.6 2.54 23.65 2.54 23.71 2.55 23.84 2.85 26.87 5.09 29.45 4.74 29.77 4.49 29.93 4.03 29.93L4.03 29.93C3.47 29.93 3.23 29.71 2.74 29.22 2.2 28.67 1.45 27.92 0.04 27.92L0.04 29.92C0.6 29.92 0.84 30.14 1.33 30.63 1.87 31.18 2.62 31.93 4.03 31.93L4.04 31.93C5.45 31.93 6.19 31.19 6.74 30.65 7.23 30.16 7.48 29.97 8.04 29.95 8.6 29.95 8.84 30.17 9.33 30.66 9.87 31.21 10.62 31.96 12.03 31.96L12.04 31.96C13.44 31.96 14.19 31.22 14.74 30.68 15.23 30.19 15.5 29.97 16.04 29.98 16.6 29.98 16.84 30.2 17.33 30.69 17.87 31.24 18.62 31.99 20.03 31.99 21.42 32.02 22.2 31.25 22.74 30.71 23.23 30.22 23.47 30.01 24.03 30.01L24.03 30.01C24.59 30.01 24.83 30.23 25.32 30.72 25.86 31.27 26.61 32.02 28.03 32.02L28.04 32.02C29.45 32.02 30.19 31.28 30.74 30.74 31.23 30.25 31.47 30.04 32.03 30.04L32.03 30.04 32.03 28.04 32.03 28.04ZM4.05 8.01C4.15 7.63 5.43 6.72 6.5 6.64L12.57 6.24 12.57 8.97 14.57 8.97 14.57 2.94C14.57 2.42 14.99 2 15.51 2L16.48 2C17 2 17.42 2.42 17.42 2.94L17.42 8.98 19.42 8.98 19.42 6.25 25.47 6.65C26.55 6.72 27.88 7.64 27.98 7.97L27.96 10.9 4.02 10.9 4.02 9.03 4.06 8.02ZM5.35 12.89 26.97 12.89 26.97 18.84 25.74 18.48 25.74 16.06C25.74 14.87 24.77 13.91 23.59 13.91L19.88 13.91C18.69 13.91 17.73 14.88 17.73 16.06L17.73 16.16 16.02 15.66 14.31 16.16 14.31 16.06C14.31 14.87 13.34 13.91 12.16 13.91L8.45 13.91C7.26 13.91 6.3 14.88 6.3 16.06L6.3 18.48 5.37 18.75 5.37 12.89ZM23.73 17.9 19.71 16.74 19.71 16.06C19.71 15.98 19.78 15.91 19.86 15.91L23.57 15.91C23.65 15.91 23.72 15.98 23.72 16.06L23.72 17.9ZM12.29 16.74 8.27 17.9 8.27 16.06C8.27 15.98 8.34 15.91 8.42 15.91L12.13 15.91C12.21 15.91 12.28 15.98 12.28 16.06L12.28 16.74ZM23.99 28C22.58 28 21.84 28.74 21.29 29.28 20.8 29.77 20.56 29.98 20 29.98L20 29.98C19.44 29.98 19.2 29.76 18.71 29.27 18.31 28.87 17.8 28.36 17.01 28.12L17.01 24.98 15.01 24.98 15.01 28.11C14.21 28.35 13.7 28.85 13.3 29.25 12.81 29.74 12.57 29.95 12.01 29.95L12.01 29.95C11.45 29.95 11.21 29.73 10.72 29.24 10.18 28.69 9.43 27.94 8.02 27.94L8.01 27.94C7.47 27.94 7.03 28.05 6.66 28.21 4.8 26.14 4.53 23.58 4.53 23.53 4.53 23.47 4.5 23.42 4.48 23.36 4.48 23.29 4.5 23.21 4.49 23.14L4.19 21.18 16.02 17.75 27.9 21.2 27.68 23.49C27.68 23.49 27.27 26.16 25.34 28.27 24.98 28.11 24.54 28.01 24.02 28L24.01 28Z" class="MsftOfcResponsive_Fill_7823dc" fill="#7823DC"/><rect x="15.01" y="19" width="2" height="3.95" class="MsftOfcResponsive_Fill_7823dc" fill="#7823DC"/><rect x="21.99" y="24.98" width="2" height="2.01" class="MsftOfcResponsive_Fill_7823dc" fill="#7823DC"/><rect x="7.99" y="24.98" width="2" height="2.01" class="MsftOfcResponsive_Fill_7823dc" fill="#7823DC"/></svg>