<svg viewBox="0 0 32 32" xmlns="http://www.w3.org/2000/svg" xmlns:xlink="http://www.w3.org/1999/xlink" id="Layer_2_00000070832704599719349970000018400451637622770863_" xml:space="preserve" overflow="hidden"><style>
.MsftOfcResponsive_Fill_7823dc {
 fill:#7823DC; 
}
</style>
<g><path d="M23.7 3.5C19.4-0.5 12.7-0.6 8.4 3.6L8.4 3.6C9.1 4.3 9.1 4.3 9.1 4.3 13 0.4 19.1 0.3 23 4.2" class="MsftOfcResponsive_Fill_7823dc" fill="#7823DC" fill-rule="evenodd" clip-rule="evenodd"/><path d="M24.2 3.2C19.7-1.1 12.6-1.1 8.2 3.4L7.8 3.7 7.8 3.7 7.8 3.7C9.2 5.1 9.2 5.1 9.2 5.1 9.6 4.7 9.6 4.7 9.6 4.7 13.3 1 19.1 0.8 22.8 4.5" class="MsftOfcResponsive_Fill_7823dc" fill="#7823DC" fill-rule="evenodd" clip-rule="evenodd"/><path d="M9.2 3.7 9.2 3.7C10.8 2.1 13.1 1.2 15.4 1.1 13 1.2 10.8 2.1 9.2 3.7L9.2 3.7Z" class="MsftOfcResponsive_Fill_7823dc" fill="#7823DC" fill-rule="evenodd" clip-rule="evenodd"/><path d="M10.6 5.8C11.3 6.5 11.3 6.5 11.3 6.5 13.9 3.9 18.4 3.7 21 6.3 21.7 5.6 21.7 5.6 21.7 5.6 18.7 2.6 13.6 2.7 10.6 5.8L10.6 5.8Z" class="MsftOfcResponsive_Fill_7823dc" fill="#7823DC" fill-rule="evenodd" clip-rule="evenodd"/><path d="M9.8 5.8C11.2 7.2 11.2 7.2 11.2 7.2 11.6 6.8 11.6 6.8 11.6 6.8 14.1 4.3 18.2 4.2 20.7 6.7 21 7 21 7 21 7 22.4 5.6 22.4 5.6 22.4 5.6 22 5.2 22 5.2 22 5.2 18.8 2 13.3 2.2 10.1 5.3L9.8 5.8 9.8 5.8 9.8 5.8ZM11.3 5.8 11.3 5.8C14.1 3.4 18.4 3.4 21.1 5.7 21 5.8 21 5.8 21 5.8 18.2 3.5 14 3.3 11.3 5.8L11.3 5.8Z" class="MsftOfcResponsive_Fill_7823dc" fill="#7823DC" fill-rule="evenodd" clip-rule="evenodd"/><path d="M12.5 7.8C13.2 8.5 13.2 8.5 13.2 8.5 14.8 6.9 17.4 7.1 18.9 8.5 19.6 7.8 19.6 7.8 19.6 7.8 17.6 5.8 14.5 5.8 12.5 7.8L12.5 7.8Z" class="MsftOfcResponsive_Fill_7823dc" fill="#7823DC" fill-rule="evenodd" clip-rule="evenodd"/><path d="M11.8 7.7C13.2 9.1 13.2 9.1 13.2 9.1 13.6 8.7 13.6 8.7 13.6 8.7 15 7.3 17.1 7.3 18.5 8.7 18.9 9.1 18.9 9.1 18.9 9.1 20.3 7.7 20.3 7.7 20.3 7.7 20 7.4 20 7.4 20 7.4 17.9 5.3 14.3 5.3 12.2 7.4L11.8 7.7 11.8 7.7 11.8 7.7ZM13.4 7.9C13.2 7.7 13.2 7.7 13.2 7.7 14.8 6.5 17.3 6.4 18.9 7.7 18.7 7.9 18.7 7.9 18.7 7.9 17.3 6.5 14.8 6.5 13.4 7.9L13.4 7.9Z" class="MsftOfcResponsive_Fill_7823dc" fill="#7823DC" fill-rule="evenodd" clip-rule="evenodd"/></g><circle cx="16" cy="10.5" r="1.5" class="MsftOfcResponsive_Fill_7823dc" fill="#7823DC" fill-rule="evenodd" clip-rule="evenodd"/><g><path d="M25.4 32C23.9 32 22.8 30.8 22.8 29.3 22.8 27.9 24 26.6 25.4 26.6 26.8 26.6 28 27.8 28 29.3 28 30.8 26.8 32 25.4 32L25.4 32ZM25.4 28.6C25 28.6 24.7 28.9 24.7 29.3 24.7 29.7 25 30 25.4 30 25.8 30 26.1 29.7 26.1 29.3 26.1 28.9 25.7 28.6 25.4 28.6L25.4 28.6Z" class="MsftOfcResponsive_Fill_7823dc" fill="#7823DC" fill-rule="evenodd" clip-rule="evenodd"/><path d="M7.1 32C5.6 32 4.5 30.8 4.5 29.3 4.5 27.9 5.7 26.6 7.1 26.6 8.5 26.6 9.7 27.8 9.7 29.3 9.8 30.8 8.6 32 7.1 32L7.1 32ZM7.1 28.6C6.7 28.6 6.4 28.9 6.4 29.3 6.4 29.7 6.7 30 7.1 30 7.5 30 7.8 29.6 7.8 29.3 7.8 29 7.5 28.6 7.1 28.6L7.1 28.6Z" class="MsftOfcResponsive_Fill_7823dc" fill="#7823DC" fill-rule="evenodd" clip-rule="evenodd"/><path d="M0 28 6 28 6 30 0 30 0 28Z" class="MsftOfcResponsive_Fill_7823dc" fill="#7823DC" fill-rule="evenodd" clip-rule="evenodd"/><path d="M26.1 28 32 28 32 30 26.1 30 26.1 28Z" class="MsftOfcResponsive_Fill_7823dc" fill="#7823DC" fill-rule="evenodd" clip-rule="evenodd"/><path d="M28 21.9 32 21.9 32 23.9 28 23.9 28 21.9Z" class="MsftOfcResponsive_Fill_7823dc" fill="#7823DC" fill-rule="evenodd" clip-rule="evenodd"/><path d="M8.3 28 24 28 24 30 8.3 30 8.3 28Z" class="MsftOfcResponsive_Fill_7823dc" fill="#7823DC" fill-rule="evenodd" clip-rule="evenodd"/><path d="M0 16.4 2 16.4 2 29.3 0 29.3 0 16.4Z" class="MsftOfcResponsive_Fill_7823dc" fill="#7823DC" fill-rule="evenodd" clip-rule="evenodd"/><path d="M28 14.4 0 14.4 0 16.4 30 16.4 30 29.3 32 29.3 32 18.3 28 14.4 28 14.4 28 14.4Z" class="MsftOfcResponsive_Fill_7823dc" fill="#7823DC" fill-rule="evenodd" clip-rule="evenodd"/><path d="M0.7 19.9 24 19.9 24 21.9 0.7 21.9 0.7 19.9Z" class="MsftOfcResponsive_Fill_7823dc" fill="#7823DC" fill-rule="evenodd" clip-rule="evenodd"/><path d="M24 19.9 25.9 19.9 25.9 28 24 28 24 19.9Z" class="MsftOfcResponsive_Fill_7823dc" fill="#7823DC" fill-rule="evenodd" clip-rule="evenodd"/></g></svg>