<svg viewBox="0 0 32 32" xmlns="http://www.w3.org/2000/svg" xmlns:xlink="http://www.w3.org/1999/xlink" overflow="hidden"><defs></defs><g id="Layer_3"><rect x="0" y="12" width="32" height="2" fill="#7823DC"/><path d="M29.9604 14 21.9604 14 21.9604 4C21.9604 1.79086 23.7513 -4.44089e-16 25.9604 -4.44089e-16 28.1696-1.33227e-15 29.9604 1.79086 29.9604 4ZM23.9604 12 27.9604 12 27.9604 4C27.9604 2.89543 27.065 2 25.9604 2 24.8559 2 23.9604 2.89543 23.9604 4Z" fill="#7823DC"/><rect x="25.9605" y="5" width="3" height="2" fill="#7823DC"/><rect x="25.9605" y="9" width="3" height="2" fill="#7823DC"/><path d="M13.0332 14 1.96826 14 2.03174 8.82129 3.82861 6.25586 3.82861 3 11.2319 3 11.2319 6.25586 13.0332 8.82715ZM3.99268 12 11.0332 12 11.0332 9.458 9.23193 6.88672 9.23193 5 5.82861 5 5.82861 6.88672 4.02393 9.46387Z" fill="#7823DC"/><path d="M12.0332 5 3.0332 5 3.0332 0 12.0332 0ZM5.0332 3 10.0332 3 10.0332 2 5.0332 2Z" fill="#7823DC"/><path d="M20.7022 12.6885 19.8799 12.6728C19.7495 12.6699 16.6611 12.5889 15.0601 10.5645 13.458 8.54 14.0894 5.5166 14.1167 5.38867L14.291 4.585 15.1133 4.60063C15.2436 4.60356 18.3315 4.68463 19.9336 6.70805 21.5351 8.73246 20.9038 11.7569 20.8764 11.8848ZM15.9736 6.71191C15.8875 7.63188 16.1186 8.55363 16.6284 9.32422 17.2648 9.99225 18.1066 10.4279 19.0195 10.5615 19.0996 9.64209 18.8693 8.72234 18.3652 7.94922 17.7286 7.28126 16.8866 6.84568 15.9736 6.71191Z" fill="#7823DC"/><path d="M2.004 29.995 4.004 31.996 9.195 31.998 9.195 32.003 16.005 32.001 22.814 32.003 22.814 31.998 28.006 31.996 30.005 29.995 16.005 30 2.004 29.995Z" fill="#7823DC"/><path d="M2 29.995 2.004 29.995 2 29.991 2 29.995Z" fill="#7823DC"/><path d="M4.067 13.486 2.086 13.207 0.01 27.964 0.01 27.999 2 29.991 2 28.174 4.067 13.486Z" fill="#7823DC"/><path d="M32 27.964 29.923 13.207 27.943 13.486 30.01 28.174 30.01 29.991 32 27.999 32 27.964Z" fill="#7823DC"/><path d="M30.01 29.991 30.005 29.995 30.01 29.995 30.01 29.991Z" fill="#7823DC"/></g></svg>