<svg viewBox="0 0 32 32" xmlns="http://www.w3.org/2000/svg" xmlns:xlink="http://www.w3.org/1999/xlink" id="Layer_1" xml:space="preserve" overflow="hidden"><g><path d="M32 0.1 32 2.1 16 2.1 16 0.1 32 0.1 32 0.1 32 0.1Z" fill="#7823DC" fill-rule="evenodd" clip-rule="evenodd"/><path d="M32 4 32 6 16 6 16 4 32 4 32 4 32 4Z" fill="#7823DC" fill-rule="evenodd" clip-rule="evenodd"/><path d="M16 0.5 17.9 0.5 17.9 14.8 16 14.8 16 0.5 16 0.5 16 0.5Z" fill="#7823DC" fill-rule="evenodd" clip-rule="evenodd"/><path d="M30 0.5 32 0.5 32 20.1 30 20.1 30 0.5 30 0.5 30 0.5Z" fill="#7823DC" fill-rule="evenodd" clip-rule="evenodd"/><path d="M6.4 32C5.7 32 5.1 31.9 4.5 31.7 3 31.2 1.9 30.1 1.2 28.7L0.7 27.7C-0.7 24.8 0.4 21.3 3.3 19.9L17.2 13.1 18.1 14.9 4 21.7C2.2 22.6 1.4 24.9 2.3 26.8L2.8 27.8C3.3 28.7 4 29.4 5 29.8 6 30.1 7 30.1 7.9 29.7L21.8 22.9 22.7 24.7 8.8 31.4C8 31.8 7.2 32 6.4 32Z" fill="#7823DC"/><g><defs><path d="M0 32 32.6 32 32.6 0.1 0 0.1 0 32Z" id="SVGID_1_" fill="#7823DC"/></defs><clipPath id="SVGID_00000104667893271020159830000004211425500012654726_"><use width="100%" height="100%" xlink:href="#SVGID_1_" overflow="visible"></use></clipPath><rect x="15.2" y="22" width="17.3" height="2" fill="#7823DC" clip-path="url(#SVGID_00000104667893271020159830000004211425500012654726_)" transform="matrix(0.8981 -0.4398 0.4398 0.8981 -7.6882 12.8139)"/><g clip-path="url(#SVGID_00000104667893271020159830000004211425500012654726_)"><defs><path d="M0 32 32.6 32 32.6 0.1 0 0.1 0 32Z" id="SVGID_00000130620639058048422250000016693303098620973992_" fill="#7823DC"/></defs><clipPath id="SVGID_00000083769586036068794130000000066285853540766117_"><use width="100%" height="100%" xlink:href="#SVGID_00000130620639058048422250000016693303098620973992_" overflow="visible"></use></clipPath><path d="M23.9 23.3C23.3 22.2 22.9 20.9 22.9 19.6 22.9 15.5 26.2 12.2 30.3 12.2 30.6 12.2 31 12.2 31.3 12.3" fill="#7823DC" fill-rule="evenodd" clip-rule="evenodd" clip-path="url(#SVGID_00000083769586036068794130000000066285853540766117_)"/><path d="M23.1 23.8C22.4 22.5 22 21.1 22 19.6 22 15 25.8 11.2 30.4 11.2 30.8 11.2 31.2 11.2 31.6 11.3L31.3 13.3C31 13.3 30.8 13.2 30.4 13.2 26.9 13.2 24 16.1 24 19.6 24 20.7 24.3 21.8 24.8 22.8L23.1 23.8Z" fill="#7823DC" clip-path="url(#SVGID_00000083769586036068794130000000066285853540766117_)"/></g></g></g></svg>