<svg width="32" height="32" viewBox="0 0 32 32" xmlns="http://www.w3.org/2000/svg" xmlns:xlink="http://www.w3.org/1999/xlink" overflow="hidden"><defs></defs><g><g><g><defs><rect x="0" y="0" width="32" height="32" id="SVGID_1_" fill="#7823DC"/></defs><clipPath id="SVGID_2_"><use width="100%" height="100%" xlink:href="#SVGID_1_"></use></clipPath><g clip-path="url(#SVGID_2_)"><defs><rect x="0" y="0" width="32" height="32" id="SVGID_3_" fill="#7823DC"/></defs><clipPath id="SVGID_4_"><use width="100%" height="100%" xlink:href="#SVGID_3_"></use></clipPath></g><rect x="10" y="10" width="12" height="2" fill="#7823DC" clip-path="url(#SVGID_2_)"/><rect x="6" y="10" width="2" height="2" fill="#7823DC" clip-path="url(#SVGID_2_)"/><rect x="10" y="14" width="12" height="2" fill="#7823DC" clip-path="url(#SVGID_2_)"/><rect x="6" y="14" width="2" height="2" fill="#7823DC" clip-path="url(#SVGID_2_)"/><rect x="10" y="18" width="12" height="2" fill="#7823DC" clip-path="url(#SVGID_2_)"/><rect x="6" y="18" width="2" height="2" fill="#7823DC" clip-path="url(#SVGID_2_)"/><rect x="10" y="22" width="12" height="2" fill="#7823DC" clip-path="url(#SVGID_2_)"/><rect x="6" y="22" width="2" height="2" fill="#7823DC" clip-path="url(#SVGID_2_)"/><rect x="10" y="26" width="12" height="2" fill="#7823DC" clip-path="url(#SVGID_2_)"/><rect x="6" y="26" width="2" height="2" fill="#7823DC" clip-path="url(#SVGID_2_)"/><path d="M28 4.9 28 32 30 32 30 4.9 29 0Z" fill="#7823DC" clip-path="url(#SVGID_2_)"/></g></g><path d="M18.5 5 7.5 5 5.2 1.6 6.8 0.4 8.5 3 17.5 3 19.2 0.4 20.8 1.6Z" fill="#7823DC"/><path d="M4 2 24.1 2 24.1 30 4 30 4 2ZM2 32 26.1 32 26.1 0 2 0 2 32Z" fill="#7823DC"/></g></svg>