<svg viewBox="0 0 32 32" xmlns="http://www.w3.org/2000/svg" xmlns:xlink="http://www.w3.org/1999/xlink" id="Layer_1" overflow="hidden"><g><g><defs><path d="M-1 32 32 32 32-1-1-1-1 32Z" id="SVGID_1_" fill="#7823DC"/></defs><defs><path d="M-1-1 32-1 32 32-1 32-1-1Z" id="SVGID_00000068647025164593607360000001789663190454408344_" fill="#7823DC"/></defs><clipPath id="SVGID_00000050623331164861092640000008601115519146352561_"><use width="100%" height="100%" xlink:href="#SVGID_1_" overflow="visible"></use></clipPath><clipPath id="SVGID_00000009579438377317311970000009897570700887811220_" clip-path="url(#SVGID_00000050623331164861092640000008601115519146352561_)"><use width="100%" height="100%" xlink:href="#SVGID_00000068647025164593607360000001789663190454408344_" overflow="visible"></use></clipPath><g clip-path="url(#SVGID_00000009579438377317311970000009897570700887811220_)"><defs><path d="M-1 32 32 32 32-1-1-1-1 32Z" id="SVGID_00000140716987861753422270000016231238954844750476_" fill="#7823DC"/></defs><clipPath id="SVGID_00000095300621600443950370000001531069045006975889_"><use width="100%" height="100%" xlink:href="#SVGID_00000140716987861753422270000016231238954844750476_" overflow="visible"></use></clipPath><path d="M4 13.9 6 13.9 6 32 4 32 4 13.9Z" fill="#7823DC" clip-path="url(#SVGID_00000095300621600443950370000001531069045006975889_)"/><path d="M8 9.9C7.8 11.1 6.7 11.9 5.5 11.9L4.5 11.9C3.3 11.9 2.3 11.1 2 9.9L8 9.9M10 8 0 8 0 9.5C0 12 2 14 4.5 14 4.5 14 4.5 14 4.5 14L5.5 14C8 14 10 12 10 9.5L10 8 10 8 10 8Z" fill="#7823DC" clip-path="url(#SVGID_00000095300621600443950370000001531069045006975889_)"/><path d="M0 0 2 0 2 8.9 0 8.9 0 0Z" fill="#7823DC" clip-path="url(#SVGID_00000095300621600443950370000001531069045006975889_)"/><path d="M8 0 10 0 10 8.9 8 8.9 8 0Z" fill="#7823DC" clip-path="url(#SVGID_00000095300621600443950370000001531069045006975889_)"/><path d="M4 0 6 0 6 8.9 4 8.9 4 0Z" fill="#7823DC" clip-path="url(#SVGID_00000095300621600443950370000001531069045006975889_)"/><path d="M26 2 28 2 28 32 26 32 26 2Z" fill="#7823DC" clip-path="url(#SVGID_00000095300621600443950370000001531069045006975889_)"/><path d="M28 4.7C29 6.9 29.6 9.2 29.9 11.5 30.1 12.8 30 14.2 29.5 15.4 29.2 16.2 28.7 16.8 28 17.3L28 4.7M26.3 0 26 0 26 19.9 26.3 19.9C28.6 19.8 30.5 18.3 31.3 16.2 31.9 14.6 32.1 13 31.9 11.3 31.4 6.6 28.8 0 26.3 0L26.3 0Z" fill="#7823DC" clip-path="url(#SVGID_00000095300621600443950370000001531069045006975889_)"/></g></g></g><path d="M16 18C15.2 18 14.5 18.7 14.5 19.5 14.5 20.3 15.2 21 16 21 16.8 21 17.5 20.3 17.5 19.5 17.5 18.7 16.8 18 16 18L16 18Z" fill="#7823DC"/><rect x="15" y="20" width="2" height="3" fill="#7823DC"/><path d="M16.5 11.4C17.8 11.4 18.9 12.5 18.9 13.8L18.9 15 13.1 15 13.1 13.7C13.1 12.4 14.2 11.3 15.5 11.3L16.5 11.3M16.5 9.4 15.4 9.4C13 9.4 11 11.4 11 13.8L11 17 20.8 17 20.8 13.7C20.9 11.3 19 9.4 16.5 9.4L16.5 9.4Z" fill="#7823DC"/><path d="M22 17 22 24 10 24 10 17 22 17M24 15 8 15 8 26 24 26 24 15 24 15Z" fill="#7823DC"/></svg>