<svg viewBox="0 0 32 32" xmlns="http://www.w3.org/2000/svg" xmlns:xlink="http://www.w3.org/1999/xlink" id="Layer_1" overflow="hidden"><style>
.MsftOfcThm_Text2_Fill_v2 {
 fill:#7823DC; 
}
</style>
<path d="M15.61 14.52 3.09 14.52C1.85 14.52 0 13.7 0 11.43L0 3.09C0 1.85 0.82 0 3.09 0L15.61 0C16.85 0 18.7 0.82 18.7 3.09L18.7 11.44C18.7 12.68 17.88 14.53 15.61 14.53ZM15.59 2 3.09 2C2.17 2 2.01 2.69 2 3.1L2 11.43C2 12.35 2.69 12.51 3.1 12.52L15.61 12.52C16.53 12.52 16.69 11.83 16.7 11.42L16.7 3.09C16.7 2.17 16.01 2.01 15.6 2Z" class="MsftOfcThm_Text2_Fill_v2" fill="#7823DC"/><rect x="4.59" y="14.61" width="4.3" height="2" class="MsftOfcThm_Text2_Fill_v2" fill="#7823DC" transform="matrix(0.242599 -0.970127 0.970127 0.242599 -10.04 18.36)"/><rect x="10.95" y="13.45" width="2" height="4.3" class="MsftOfcThm_Text2_Fill_v2" fill="#7823DC" transform="matrix(0.970127 -0.242599 0.242599 0.970127 -3.43 3.37)"/><path d="M29.6 18.69 22.04 18.69 22.04 11.13 29.6 11.13 29.6 18.69ZM24.04 16.69 27.6 16.69 27.6 13.13 24.04 13.13 24.04 16.69Z" class="MsftOfcThm_Text2_Fill_v2" fill="#7823DC"/><rect x="24.85" y="8.87" width="4.73" height="2" class="MsftOfcThm_Text2_Fill_v2" fill="#7823DC" transform="matrix(0.29404 -0.955793 0.955793 0.29404 9.78 32.98)"/><rect x="4" y="22.56" width="2" height="9.44" class="MsftOfcThm_Text2_Fill_v2" fill="#7823DC"/><rect x="7" y="22.56" width="2" height="7.44" class="MsftOfcThm_Text2_Fill_v2" fill="#7823DC"/><rect x="23" y="22.56" width="2" height="7.44" class="MsftOfcThm_Text2_Fill_v2" fill="#7823DC"/><rect x="25.96" y="22.56" width="2" height="9.44" class="MsftOfcThm_Text2_Fill_v2" fill="#7823DC"/><path d="M26 24 6 24C2.69 24 0 21.31 0 18L0 17 32 17 32 18C32 21.31 29.31 24 26 24ZM2.13 19C2.58 20.72 4.14 22 6 22L26 22C27.86 22 29.43 20.72 29.87 19L2.13 19Z" class="MsftOfcThm_Text2_Fill_v2" fill="#7823DC"/></svg>