<svg viewBox="0 0 32 32" xmlns="http://www.w3.org/2000/svg" xmlns:xlink="http://www.w3.org/1999/xlink" id="Layer_1" xml:space="preserve" overflow="hidden"><style>
.MsftOfcResponsive_Fill_7823dc {
 fill:#7823DC; 
}
</style>
<g id="Layer_2_00000153672027410828584440000004318808627006363015_"></g><g id="Layer_2_00000103981120671582451330000015814750687241510044_"></g><path d="M28.4 1.8 18.2 15.2 14 15.2 3.9 1.8 28.4 1.8M32.1 0 0.1 0 13.1 17 19.1 17 32.1 0 32.1 0Z" class="MsftOfcResponsive_Fill_7823dc" fill="#7823DC"/><g id="Layer_2_00000130625076427418092810000005903251686592157099_"></g><g id="Layer_2_00000085964347954184681000000000355649944892313477_"></g><path d="M13.1 25.5 13.1 17 15.1 17 15.1 22.5 17.1 21.6 17.1 17 19.1 17 19.1 22.9Z" class="MsftOfcResponsive_Fill_7823dc" fill="#7823DC"/><path d="M16 26 14.3 29.3C13.7 30.6 14.6 32 16 32L16 32C17.4 32 18.3 30.6 17.7 29.3L16 26 16 26Z" class="MsftOfcResponsive_Fill_7823dc" fill="#7823DC"/><rect x="5" y="4" width="22" height="2" class="MsftOfcResponsive_Fill_7823dc" fill="#7823DC"/><path d="M13 8C12.4 8 12 8.4 12 9 12 9.6 12.4 10 13 10 13.6 10 14 9.6 14 9 14 8.4 13.6 8 13 8L13 8Z" class="MsftOfcResponsive_Fill_7823dc" fill="#7823DC"/><path d="M20 7C19.4 7 19 7.4 19 8 19 8.6 19.4 9 20 9 20.6 9 21 8.6 21 8 21 7.4 20.6 7 20 7L20 7Z" class="MsftOfcResponsive_Fill_7823dc" fill="#7823DC"/><path d="M16 11C15.4 11 15 11.4 15 12 15 12.6 15.4 13 16 13 16.6 13 17 12.6 17 12 17 11.4 16.6 11 16 11L16 11Z" class="MsftOfcResponsive_Fill_7823dc" fill="#7823DC"/></svg>