<svg viewBox="0 0 32 32" xmlns="http://www.w3.org/2000/svg" xmlns:xlink="http://www.w3.org/1999/xlink" id="Layer_2_00000144328325245699140920000014890284756443101063_" xml:space="preserve" overflow="hidden"><g><rect x="6" y="21" width="20" height="2" fill="#7823DC"/></g><g><rect x="19.6" y="26" width="4" height="2" fill="#7823DC"/></g><path d="M12.8 2.2 11.5 3.7C11.9 4.1 12.3 4.7 12.5 5.2L13.9 3.6C13.6 3.1 13.2 2.6 12.8 2.2ZM14.7 5.3 13 7.1C13 7.2 13 7.3 13 7.5 13 10.5 10.5 13 7.5 13 4.5 13 2 10.5 2 7.5 2 4.5 4.5 2 7.5 2 8.5 2 9.4 2.3 10.2 2.7L11.6 1.2C10.4 0.4 9 0 7.5 0 3.4 0 0 3.4 0 7.5 0 11.6 3.4 15 7.5 15 11.6 15 15 11.6 15 7.5 15 6.7 14.9 6 14.7 5.3Z" fill="#7823DC"/><path d="M26.2 13C23.7 13 21.7 10.5 21.7 7.5 21.7 4.5 23.7 2 26.2 2 27.7 2 29 2.9 29.8 4.2L32 4.2C31 1.7 28.7 0 26.2 0 22.6 0 19.7 3.4 19.7 7.5 19.7 11.6 22.6 15 26.2 15 28.8 15 31 13.3 32 10.8L29.8 10.8C29 12.1 27.7 13 26.2 13Z" fill="#7823DC"/><rect x="18.7" y="5" width="9" height="2" fill="#7823DC"/><path d="M15.3 2 13.9 3.6 12.5 5.3 8.8 9.6 6.2 7.2 6.6 6.8 7.7 8.1 11.5 3.7 12.8 2.2 13 2Z" fill="#7823DC"/><rect x="18.7" y="8" width="9" height="2" fill="#7823DC"/><path d="M15.3 2 13.9 3.6 12.5 5.3 8.8 9.6 7.7 10.8 3.7 6.2 6 6.2 6.6 6.8 7.7 8.1 11.5 3.7 12.8 2.2 13 2Z" fill="#7823DC" fill-rule="evenodd" clip-rule="evenodd"/><path d="M28 32 4 32 4 17 28 17 28 32ZM6 30 26 30 26 19 6 19 6 30Z" fill="#7823DC"/></svg>