<svg viewBox="0 0 32 32" xmlns="http://www.w3.org/2000/svg" xmlns:xlink="http://www.w3.org/1999/xlink" overflow="hidden"><defs></defs><g id="Graphic"><path d="M16 0C10.3907-0.00616286 4.87927 1.46966 0.02362 4.27808L1.02148 6.02368C10.2917 0.655851 21.7255 0.658971 30.9928 6.03186L31.9995 4.2915C27.1384 1.47443 21.6184-0.0061796 16 9.15527e-08Z" fill="#7823DC"/><path d="M3.38135 8.79248C11.3065 5.1036 20.4492 5.06791 28.4029 8.69482L29.4269 6.95374C20.8175 2.97458 10.8868 3.01776 2.31233 7.07166Z" fill="#7823DC"/><path d="M29.705 4.287 19.053 22.726 19.048 22.721 16 28 9.732 17.144 4.693 8.417 3.464 6.287 3.474 6.287 2.323 4.287 0 4.287 8 18.144 16 32 24 18.144 32 4.287 29.705 4.287Z" fill="#7823DC"/></g><g id="Layer_3"><path d="M9.29093 16.3953C7.08179 16.3953 5.29093 14.6044 5.29093 12.3953 5.29093 10.1861 7.08179 8.39527 9.29093 8.39527 11.5001 8.39527 13.2909 10.1861 13.2909 12.3953 13.2886 14.6034 11.4991 16.3929 9.29093 16.3953ZM9.29093 10.3953C8.18636 10.3953 7.29093 11.2907 7.29093 12.3953 7.29093 13.4998 8.18636 14.3953 9.29093 14.3953 10.3955 14.3953 11.2909 13.4998 11.2909 12.3953 11.2897 11.2912 10.395 10.3965 9.29093 10.3953Z" fill="#7823DC"/><path d="M20.6863 12.4302C18.4771 12.4302 16.6863 10.6393 16.6863 8.43016 16.6863 6.22102 18.4771 4.43016 20.6863 4.43016 22.8954 4.43016 24.6863 6.22102 24.6863 8.43016 24.6839 10.6383 22.8944 12.4278 20.6863 12.4302ZM20.6863 6.43016C19.5817 6.43016 18.6863 7.32559 18.6863 8.43016 18.6863 9.53473 19.5817 10.4302 20.6863 10.4302 21.7908 10.4302 22.6863 9.53473 22.6863 8.43016 22.685 7.32612 21.7903 6.43143 20.6863 6.43016Z" fill="#7823DC"/><path d="M18.4886 23.6801C16.2794 23.6801 14.4886 21.8893 14.4886 19.6801 14.4886 17.471 16.2794 15.6801 18.4886 15.6801 20.6977 15.6801 22.4886 17.471 22.4886 19.6801 22.4862 21.8883 20.6967 23.6778 18.4886 23.6801ZM18.4886 17.6801C17.384 17.6801 16.4886 18.5756 16.4886 19.6801 16.4886 20.7847 17.384 21.6801 18.4886 21.6801 19.5932 21.6801 20.4886 20.7847 20.4886 19.6801 20.4873 18.5761 19.5926 17.6814 18.4886 17.6801Z" fill="#7823DC"/></g></svg>