<svg viewBox="0 0 30.03 32" xmlns="http://www.w3.org/2000/svg" xmlns:xlink="http://www.w3.org/1999/xlink" id="a" overflow="hidden"><style>
.MsftOfcResponsive_Fill_7823dc {
 fill:#7823DC; 
}
</style>
<defs></defs><path d="M30.03 32 0.03 32 0.03 30 28.03 30 30.03 32Z" class="MsftOfcResponsive_Fill_7823dc" fill="#7823DC"/><rect x="13.17" y="15.17" width="21.74" height="1.94" class="MsftOfcResponsive_Fill_7823dc" fill="#7823DC" transform="matrix(0.448695 0.893685 -0.893685 0.448695 27.68 -12.58)"/><rect x="-6.52" y="17.44" width="26.78" height="1.94" class="MsftOfcResponsive_Fill_7823dc" fill="#7823DC" transform="matrix(-0.448695 0.893685 -0.893685 -0.448695 26.41 20.52)"/><rect x="14.77" y="14.16" width="19.47" height="1.94" class="MsftOfcResponsive_Fill_7823dc" fill="#7823DC" transform="matrix(-0.448695 0.893685 -0.893685 -0.448695 49.02 0.03)"/><rect x="11.04" y="3.99" width="9.98" height="2" class="MsftOfcResponsive_Fill_7823dc" fill="#7823DC" transform="matrix(6.12323e-17 1 -1 6.12323e-17 21.02 -11.04)"/><rect x="12.03" y="6" width="8" height="2" class="MsftOfcResponsive_Fill_7823dc" fill="#7823DC" transform="matrix(-1 1.22465e-16 -1.22465e-16 -1 32.06 14)"/></svg>