<svg viewBox="0 0 32 32" xmlns="http://www.w3.org/2000/svg" xmlns:xlink="http://www.w3.org/1999/xlink" id="Layer_2_1_" xml:space="preserve" overflow="hidden"><style>
.MsftOfcResponsive_Fill_7823dc {
 fill:#7823DC; 
}
</style>
<path d="M32 29.4 32 32 20.4 22.8 21.6 21.2Z" class="st0 MsftOfcResponsive_Fill_7823dc" fill="#7823DC"/><g><g><path d="M12.9 2C18.9 2 23.8 6.9 23.8 12.9 23.8 18.9 18.9 23.8 12.9 23.8 6.9 23.8 2 18.9 2 12.9 2 6.9 6.9 2 12.9 2M12.9 0C5.8 0 0 5.8 0 12.9 0 20 5.8 25.8 12.9 25.8 20 25.8 25.8 20 25.8 12.9 25.8 5.8 20 0 12.9 0L12.9 0 12.9 0 12.9 0Z" class="st1 MsftOfcResponsive_Fill_7823dc" fill="#7823DC" fill-rule="evenodd" clip-rule="evenodd"/></g><g><path d="M10.5 21.1 15.3 21.1 15.3 23 10.5 23 10.5 21.1Z" class="st2 MsftOfcResponsive_Fill_7823dc" fill="#7823DC" fill-rule="evenodd" clip-rule="evenodd"/><path d="M6.5 12.2 6.6 12.4C7 13.3 7.5 14 8.2 14.6L8.5 14.9C9.5 15.7 10.2 16.9 10.3 18.2L10.4 19.1 15.3 19.1 15.4 18.2C15.4 17.9 15.5 17.5 15.6 17.2 15.8 16.7 16 16.2 16.4 15.7 16.7 15.4 17 15.1 17.3 14.9L17.9 14.4C18.2 14.2 18.4 13.9 18.6 13.6 18.8 13.3 19 13 19.2 12.7 19.6 11.8 19.8 10.8 19.8 9.8 19.9 6.1 17 2.9 13.3 2.8 9.6 2.7 6.4 5.6 6.3 9.3 6.3 9.5 6.3 9.6 6.3 9.8 6.1 10.6 6.2 11.4 6.5 12.2L6.5 12.2ZM12.9 5C15.6 5 17.7 7.2 17.7 9.8 17.7 10.5 17.5 11.2 17.2 11.9 17.1 12 16.9 12.4 16.8 12.5 16.7 12.7 16.5 12.9 16.3 13 16.1 13.2 16 13.3 15.8 13.4 15.4 13.7 15 14.1 14.7 14.5 14.3 15 13.9 15.6 13.7 16.3L13.7 13.1 14 13.1 16.2 11.1 9.5 11.1 11.7 13.1 11.9 13.1 11.9 16C11.5 15 10.8 14.1 9.9 13.4L9.6 13.2C9.1 12.8 8.7 12.3 8.5 11.7L8.4 11.5 8.4 11.5 8.4 11.5 8.4 11.5 8.4 11.5C8.2 11 8.1 10.4 8.1 9.9 8.1 7.2 10.2 5 12.9 5 12.9 5 12.9 5 12.9 5L12.9 5Z" class="st2 MsftOfcResponsive_Fill_7823dc" fill="#7823DC" fill-rule="evenodd" clip-rule="evenodd"/></g></g></svg>