<svg viewBox="0 0 32 32" xmlns="http://www.w3.org/2000/svg" xmlns:xlink="http://www.w3.org/1999/xlink" id="Layer_1" xml:space="preserve" overflow="hidden"><path d="M2 12C0 12 0 12 0 12 0 5.5 5.5 0 12 0 12 2 12 2 12 2 6.5 2 2 6.5 2 12L2 12Z" fill="#7823DC"/><path d="M5.2 12C3.2 12 3.2 12 3.2 12 3.2 7.2 7.2 3.2 12 3.2 12 5.2 12 5.2 12 5.2 8.2 5.3 5.2 8.3 5.2 12L5.2 12Z" fill="#7823DC"/><path d="M8.2 12C6.2 12 6.2 12 6.2 12 6.2 8.7 8.7 6.2 12 6.2 12 8.2 12 8.2 12 8.2 10 8.3 8.2 10 8.2 12L8.2 12Z" fill="#7823DC"/><path d="M19.7 9.5C25.4 9.5 29.9 14.1 29.9 19.7 29.9 25.3 25.4 30 19.7 30 14 30 9.5 25.4 9.5 19.8 9.5 14.2 14.1 9.5 19.7 9.5M19.7 7.5C13 7.5 7.5 13 7.5 19.8 7.5 26.6 13 32 19.7 32 26.4 32 32 26.5 32 19.8 32 13.1 26.5 7.5 19.7 7.5L19.7 7.5Z" fill="#7823DC"/><g><circle cx="19.7" cy="19.8" r="2.3" fill="#7823DC" fill-rule="evenodd" clip-rule="evenodd"/></g><rect x="8.9" y="18.1" width="21.7" height="2" fill="#7823DC"/><rect x="18.7" y="19.5" width="2" height="10.7" fill="#7823DC"/></svg>