<svg viewBox="0 0 32 32" xmlns="http://www.w3.org/2000/svg" xmlns:xlink="http://www.w3.org/1999/xlink" overflow="hidden"><style>
.MsftOfcResponsive_Fill_7823dc {
 fill:#7823DC; 
}
</style>
<defs></defs><g id="Layer_3"><path d="M15.9997 1.98541C24.0125 1.98541 29.9997 5.15314 29.9997 7.98541 29.9997 10.8177 24.0125 13.9854 15.9997 13.9854 7.98694 13.9854 1.99972 10.8177 1.99972 7.98541 1.99972 5.15313 7.98694 1.98541 15.9997 1.98541M15.9997-0.01459C7.16315-0.01459-0.00028 3.56714-0.00028 7.98541-0.00028 12.4037 7.16315 15.9854 15.9997 15.9854 24.8363 15.9854 31.9997 12.4037 31.9997 7.98541 31.9997 3.56713 24.8363-0.01459 15.9997-0.01459Z" class="MsftOfcResponsive_Fill_7823dc" fill="#7823DC"/><rect x="29.9997" y="7.98541" width="2" height="16.7429" class="MsftOfcResponsive_Fill_7823dc" fill="#7823DC"/><rect x="-0.00029" y="7.98541" width="2" height="16.7429" class="MsftOfcResponsive_Fill_7823dc" fill="#7823DC"/><path d="M15.9997 24.6521C7.98696 24.6521 1.99971 21.4844 1.99971 18.6521L-0.00029 18.6521C-0.00029 23.0704 7.16317 26.6521 15.9997 26.6521 24.8363 26.6521 31.9997 23.0704 31.9997 18.6521L29.9997 18.6521C29.9997 21.4844 24.0125 24.6521 15.9997 24.6521Z" class="MsftOfcResponsive_Fill_7823dc" fill="#7823DC"/><path d="M15.9997 19.3187C7.98696 19.3187 1.99971 16.151 1.99971 13.3187L-0.00029 13.3187C-0.00029 17.737 7.16317 21.3187 15.9997 21.3187 24.8363 21.3187 31.9997 17.737 31.9997 13.3187L29.9997 13.3187C29.9997 16.151 24.0125 19.3187 15.9997 19.3187Z" class="MsftOfcResponsive_Fill_7823dc" fill="#7823DC"/><path d="M15.9997 29.9854C7.98696 29.9854 1.99971 26.8177 1.99971 23.9854L-0.00029 23.9854C-0.00029 28.4037 7.16317 31.9854 15.9997 31.9854 24.8363 31.9854 31.9997 28.4037 31.9997 23.9854L29.9997 23.9854C29.9997 26.8177 24.0125 29.9854 15.9997 29.9854Z" class="MsftOfcResponsive_Fill_7823dc" fill="#7823DC"/><path d="M17.0842 2.99541 15.0843 2.99541 15.0843 3.90541C13.7813 3.97816 12.7535 5.04079 12.7243 6.34541 12.7242 7.79541 13.4443 8.50541 15.1042 8.83541L15.1042 10.3454C14.8168 10.1387 14.6429 9.80932 14.6342 9.45541L12.5243 9.45541C12.5545 10.8666 13.6741 12.0125 15.0843 12.0754L15.0843 12.9754 17.0842 12.9754 17.0842 12.0854C18.5091 12.08 19.6598 10.9205 19.6544 9.4956L19.6542 9.47541C19.6542 7.92541 18.6542 7.31541 17.0842 7.04541L17.0842 5.57541C17.3262 5.73791 17.4779 6.00443 17.4942 6.29541L19.5443 6.29541C19.4913 4.96925 18.4113 3.91559 17.0843 3.89541ZM15.0843 6.73541C14.8489 6.64325 14.7024 6.40717 14.7243 6.15541 14.7269 5.9181 14.8567 5.70046 15.0643 5.58541L15.0642 6.73541ZM17.0842 10.4454 17.0842 9.12541C17.3703 9.18438 17.5702 9.44377 17.5542 9.73541 17.5631 10.0475 17.375 10.3316 17.0842 10.4454Z" class="MsftOfcResponsive_Fill_7823dc" fill="#7823DC"/></g></svg>