<svg viewBox="0 0 31.91 31.99" xmlns="http://www.w3.org/2000/svg" xmlns:xlink="http://www.w3.org/1999/xlink" id="Layer_1" overflow="hidden"><style>
.MsftOfcResponsive_Fill_7823dc {
 fill:#7823DC; 
}
</style>
<defs></defs><path d="M10.57 5.46 7.57 5.46C5.99 5.46 4.61 4.08 4.61 2.5L4.61 1 6.61 1 6.61 2.5C6.61 2.98 7.09 3.46 7.57 3.46L10.57 3.46C11.06 3.46 11.53 2.98 11.53 2.5L11.53 1 13.53 1 13.53 2.5C13.53 4.08 12.15 5.46 10.57 5.46Z" class="MsftOfcResponsive_Fill_7823dc" stroke-width="0" fill="#7823DC"/><path d="M14.71 31.99 3.29 31.99C1.48 31.99 0 30.51 0 28.68L0 3.31C0 1.48 1.47 0 3.29 0L14.72 0C16.53 0 18.01 1.48 18.01 3.31L18.01 5.62 16.01 5.62 16.01 3.31C16.01 2.59 15.43 2 14.72 2L3.29 2C2.58 2 2 2.59 2 3.31L2 28.69C2 29.41 2.58 30 3.29 30L14.72 30C15.43 30 16.01 29.41 16.01 28.69L16.01 26.38 18.01 26.38 18.01 28.69C18.01 30.51 16.54 32 14.72 32Z" class="MsftOfcResponsive_Fill_7823dc" stroke-width="0" fill="#7823DC"/><g><path d="M31.91 20.18 12.82 20.18 15.28 16.63C16.24 15.12 16.78 13.3 16.78 11.55 16.78 8.42 19.23 5.97 22.36 5.97 25.49 5.97 27.94 8.42 27.94 11.55 27.94 13.3 28.48 15.12 29.46 16.66L31.9 20.18ZM16.64 18.18 28.1 18.18 27.81 17.76C26.6 15.87 25.95 13.67 25.95 11.54 25.95 9.41 24.41 7.96 22.37 7.96 20.33 7.96 18.79 9.5 18.79 11.54 18.79 13.58 18.14 15.87 16.95 17.73L16.64 18.18Z" class="MsftOfcResponsive_Fill_7823dc" stroke-width="0" fill="#7823DC"/><path d="M22.36 26.02C20.12 26.02 18.31 24.2 18.31 21.97L20.31 21.97C20.31 23.1 21.23 24.02 22.36 24.02 23.49 24.02 24.41 23.1 24.41 21.97L26.41 21.97C26.41 24.21 24.59 26.02 22.36 26.02Z" class="MsftOfcResponsive_Fill_7823dc" stroke-width="0" fill="#7823DC"/></g><rect x="5.61" y="23.99" width="6.92" height="2" class="MsftOfcResponsive_Fill_7823dc" stroke-width="0" fill="#7823DC"/></svg>