<svg viewBox="0 0 32.01 32" xmlns="http://www.w3.org/2000/svg" xmlns:xlink="http://www.w3.org/1999/xlink" id="Layer_1" overflow="hidden"><style>
.MsftOfcResponsive_Fill_7823dc {
 fill:#7823DC; 
}
</style>
<defs></defs><path d="M21.13 25.84C20.89 25.84 20.66 25.76 20.46 25.59 20.05 25.22 20.01 24.59 20.38 24.18 21.48 22.95 22.27 21.52 22.6 20.16 22.66 19.93 22.8 19.72 23 19.58L27.07 16.71C27.4 16.48 27.83 16.47 28.17 16.68 28.55 16.91 28.96 16.91 29.33 16.68 29.9 16.29 30.25 15.14 29.79 14.28 29.62 13.96 29.47 13.78 29.22 13.57 28.99 13.38 28.86 13.1 28.86 12.8 28.86 12.55 28.79 12.13 28.68 11.71 28.51 11.37 28.24 11.14 27.94 11.05 27.75 11 27.47 10.98 27.16 11.19 26.71 11.56 26.43 12.15 26.43 12.8 26.43 13.13 26.27 13.43 26.01 13.62L21.94 16.49C21.68 16.67 21.35 16.72 21.05 16.62 19.84 16.22 17.61 16.36 15.33 18.05 13.63 19.31 12.42 20.75 11.82 22.21 11.61 22.72 11.03 22.97 10.52 22.76 10.01 22.55 9.76 21.97 9.97 21.46 10.7 19.65 12.14 17.92 14.14 16.44 16.39 14.78 19.03 14.09 21.18 14.58L24.48 12.26C24.62 11.22 25.14 10.27 25.97 9.59 26.76 9.04 27.65 8.89 28.49 9.13 29.39 9.38 30.13 10.05 30.55 10.96 30.57 11.01 30.59 11.06 30.6 11.11 30.68 11.39 30.79 11.86 30.84 12.34 31.12 12.62 31.35 12.94 31.56 13.33 32.47 15.01 31.95 17.32 30.43 18.36 29.58 18.89 28.63 18.99 27.76 18.69L24.46 21.02C24.01 22.57 23.11 24.16 21.89 25.52 21.69 25.74 21.42 25.85 21.14 25.85Z" class="MsftOfcResponsive_Fill_7823dc" fill="#7823DC"/><path d="M12.68 32 12.64 32C9.52 32 0.01 32 0.01 22.83 0.01 16.25 5.01 12 12.75 12 15.89 12 17.09 12.48 19.72 13.52 20.38 13.78 21.15 14.09 22.07 14.44 22.59 14.63 22.85 15.21 22.65 15.73 22.46 16.25 21.88 16.51 21.36 16.31 20.42 15.96 19.65 15.65 18.97 15.38 16.45 14.38 15.5 14 12.74 14 7.55 14 2 16.32 2 22.83 2 27.85 5.18 30 12.64 30L12.68 30C19.7 30 21.21 28.79 22.95 27.38 24.35 26.26 25.92 24.99 29.85 24.07 29.31 23.18 27.35 21.49 23.81 21.09 23.26 21.03 22.87 20.53 22.93 19.99 22.99 19.44 23.49 19.05 24.03 19.11 29.02 19.66 31.91 22.56 32 24.35 32.04 25.12 31.58 25.74 30.86 25.89 26.96 26.72 25.56 27.84 24.2 28.93 22.24 30.5 20.39 31.99 12.67 31.99ZM30.01 24.46 30.01 24.46 30.01 24.46Z" class="MsftOfcResponsive_Fill_7823dc" fill="#7823DC"/><path d="M17.83 14.5C17.53 14.5 17.23 14.36 17.03 14.1 16.7 13.66 16.78 13.03 17.22 12.7L20.55 10.18C20.68 9.14 21.21 8.18 22.05 7.49 22.84 6.94 23.74 6.79 24.57 7.03 25.47 7.28 26.21 7.95 26.63 8.86 26.65 8.91 26.67 8.96 26.68 9.01 26.78 9.38 26.95 10.09 26.95 10.7 26.95 11.25 26.5 11.7 25.95 11.7 25.4 11.7 24.95 11.25 24.95 10.7 24.95 10.45 24.88 10.03 24.77 9.61 24.6 9.27 24.33 9.04 24.03 8.95 23.84 8.9 23.56 8.88 23.25 9.09 22.81 9.46 22.52 10.05 22.52 10.7 22.52 11.01 22.37 11.31 22.12 11.5L18.43 14.3C18.25 14.44 18.04 14.5 17.83 14.5Z" class="MsftOfcResponsive_Fill_7823dc" fill="#7823DC"/><g><path d="M9.86 4.68C9.86 4.68 9.77 4.77 9.74 4.81L8.33 3.39C8.33 3.39 8.41 3.31 8.45 3.27 10.08 1.57 10.04 0.21 10.04 0.15L10.04 -5.27356e-16 12.04 -5.27356e-16 12.04 0.09C12.05 0.24 12.15 2.32 9.86 4.68Z" class="MsftOfcResponsive_Fill_7823dc" fill="#7823DC"/><path d="M7.96 9.99 5.96 9.99 5.96 8.19C5.96 8.06 6.05 5.68 8.46 3.27L9.87 4.68C8.06 6.49 7.96 8.15 7.96 8.22L7.96 9.98Z" class="MsftOfcResponsive_Fill_7823dc" fill="#7823DC"/></g><path d="M15.74 4.79 14.33 3.38C16.08 1.62 16.04 0.19 16.04 0.13L16.04 -1.11022e-16 18.04 -1.11022e-16 18.04 0.07C18.05 0.23 18.15 2.38 15.74 4.79Z" class="MsftOfcResponsive_Fill_7823dc" fill="#7823DC"/><path d="M13.96 10 11.96 10 11.96 8.17C11.96 8.04 12.05 5.66 14.46 3.25L15.87 4.66C14.06 6.47 13.96 8.13 13.96 8.2L13.96 10Z" class="MsftOfcResponsive_Fill_7823dc" fill="#7823DC"/></svg>