<svg viewBox="0 0 32 32" xmlns="http://www.w3.org/2000/svg" xmlns:xlink="http://www.w3.org/1999/xlink" id="Layer_1" xml:space="preserve" overflow="hidden"><g><path d="M12.1 10.1 13.5 11.6 9.3 15.3 8 13.8 12.1 10.1Z" fill="#7823DC" fill-rule="evenodd" clip-rule="evenodd"/><path d="M23.9 9.5 25.8 10.2 23.8 15.1 22 14.3 23.9 9.5Z" fill="#7823DC" fill-rule="evenodd" clip-rule="evenodd"/><path d="M25.7 10.2 24.6 11.9 9.1 1.6 10.2 0 25.7 10.2 25.7 10.2Z" fill="#7823DC" fill-rule="evenodd" clip-rule="evenodd"/><path d="M16 32C6.9 32 0 29 0 25 0 22 3.4 19.6 9 18.5L9.4 20.5C5 21.3 2 23.1 2 25 2 27.4 7.8 30 16 30 24.3 30 30 27.3 30 25 30 23.3 27.2 21.6 23.1 20.7L23.5 18.7C28.8 19.9 32 22.2 32 25 32 29 25.1 32 16 32Z" fill="#7823DC"/><g><defs><path d="M0 32 32 32 32 0 0 0 0 32Z" id="SVGID_1_" fill="#7823DC"/></defs><clipPath id="SVGID_00000052078021782916644690000004019717884382124723_"><use width="100%" height="100%" xlink:href="#SVGID_1_" overflow="visible"></use></clipPath><path d="M9.9 24.1 8 24.1 8 23.2 8 13.7 9.9 13.7 9.9 24.1 9.9 24.1Z" fill="#7823DC" fill-rule="evenodd" clip-rule="evenodd" clip-path="url(#SVGID_00000052078021782916644690000004019717884382124723_)"/><g clip-path="url(#SVGID_00000052078021782916644690000004019717884382124723_)"><defs><path d="M0 32 32 32 32 0 0 0 0 32Z" id="SVGID_00000016761105039186771470000010918995612283308471_" fill="#7823DC"/></defs><clipPath id="SVGID_00000063601360739419548830000004358895221012053663_"><use width="100%" height="100%" xlink:href="#SVGID_00000016761105039186771470000010918995612283308471_" overflow="visible"></use></clipPath><path d="M22 14.4 24 14.4 24 24.1 22 24.1 22 14.4Z" fill="#7823DC" fill-rule="evenodd" clip-rule="evenodd" clip-path="url(#SVGID_00000063601360739419548830000004358895221012053663_)"/><g clip-path="url(#SVGID_00000063601360739419548830000004358895221012053663_)"><defs><path d="M0 32 32 32 32 0 0 0 0 32Z" id="SVGID_00000176043943515769045250000007711574842153462678_" fill="#7823DC"/></defs><clipPath id="SVGID_00000091723901901971344810000013170262717224660106_"><use width="100%" height="100%" xlink:href="#SVGID_00000176043943515769045250000007711574842153462678_" overflow="visible"></use></clipPath><path d="M13.5 11.7 11.5 12.1 8.8 0 10.2 0 10.9 0.5 13.5 11.7 13.5 11.7Z" fill="#7823DC" fill-rule="evenodd" clip-rule="evenodd" clip-path="url(#SVGID_00000091723901901971344810000013170262717224660106_)"/><g clip-path="url(#SVGID_00000091723901901971344810000013170262717224660106_)"><defs><path d="M0 32 32 32 32 0 0 0 0 32Z" id="SVGID_00000075860985065695826540000002560349378121710996_" fill="#7823DC"/></defs><clipPath id="SVGID_00000067223968700991939440000006001695999957043841_"><use width="100%" height="100%" xlink:href="#SVGID_00000075860985065695826540000002560349378121710996_" overflow="visible"></use></clipPath><path d="M15.8 27.5C14.2 27.5 12.7 26.8 11.3 26.1 10.1 25.4 9 24.9 8 24.9L8 22.9C9.5 22.9 10.9 23.6 12.2 24.2 13.5 24.8 14.7 25.4 15.8 25.4 17 25.4 18.3 24.8 19.6 24.2 21 23.5 22.5 22.9 23.9 22.9L23.9 24.9C22.9 24.9 21.7 25.5 20.4 26 19 26.7 17.5 27.5 15.8 27.5Z" fill="#7823DC" clip-path="url(#SVGID_00000067223968700991939440000006001695999957043841_)"/></g></g></g></g></g></svg>