<svg viewBox="0 0 32 32" xmlns="http://www.w3.org/2000/svg" xmlns:xlink="http://www.w3.org/1999/xlink" id="Layer_1" overflow="hidden"><g><g><defs><path d="M-1 29 32 29 32 3-1 3-1 29Z" id="SVGID_1_" fill="#7823DC"/></defs><defs><path d="M-1 3 32 3 32 29-1 29-1 3Z" id="SVGID_00000111185455689275258330000018369575958693597075_" fill="#7823DC"/></defs><clipPath id="SVGID_00000170999353791189671790000006467136460434376865_"><use width="100%" height="100%" xlink:href="#SVGID_1_" overflow="visible"></use></clipPath><clipPath id="SVGID_00000052091399211530493750000002675608798255079562_" clip-path="url(#SVGID_00000170999353791189671790000006467136460434376865_)"><use width="100%" height="100%" xlink:href="#SVGID_00000111185455689275258330000018369575958693597075_" overflow="visible"></use></clipPath><g clip-path="url(#SVGID_00000052091399211530493750000002675608798255079562_)"><defs><path d="M-1 29 32 29 32 3-1 3-1 29Z" id="SVGID_00000049944496240114855380000017207264261080472752_" fill="#7823DC"/></defs><clipPath id="SVGID_00000040576819042015359580000012790375451759950724_"><use width="100%" height="100%" xlink:href="#SVGID_00000049944496240114855380000017207264261080472752_" overflow="visible"></use></clipPath><path d="M29.9 6.8 29.9 26.7 27.9 26.7 27.9 6.8 29.9 6.8M31.9 4.8 25.9 4.8 25.9 28.7 31.9 28.7 31.9 4.8 31.9 4.8 31.9 4.8 31.9 4.8Z" fill="#7823DC" clip-path="url(#SVGID_00000040576819042015359580000012790375451759950724_)"/><path d="M21.5 6.9 23.3 7.6 15.9 26 14 25.3 21.5 6.9M20.4 4.3 11.4 26.4 16.9 28.6 25.9 6.5 20.4 4.3 20.4 4.3 20.4 4.3 20.4 4.3Z" fill="#7823DC" clip-path="url(#SVGID_00000040576819042015359580000012790375451759950724_)"/><path d="M13.3 6.9 0 21.6 0 27.2 1.6 28.7 17.7 11 13.3 6.9 13.3 6.9 13.3 6.9ZM1.5 25.8 0 24.5 13.4 9.8 14.9 11.1 1.5 25.8 1.5 25.8 1.5 25.8Z" fill="#7823DC" clip-path="url(#SVGID_00000040576819042015359580000012790375451759950724_)"/></g></g></g></svg>