<svg viewBox="0 0 29.72 32.06" xmlns="http://www.w3.org/2000/svg" xmlns:xlink="http://www.w3.org/1999/xlink" xml:space="preserve" overflow="hidden"><style>
.MsftOfcResponsive_Fill_7823dc {
 fill:#7823DC; 
}
</style>
<g id="Layer_3"></g><g id="Layer_1"></g><g id="Layer_2"></g><g id="Layer_4"></g><g id="Layer_5"><path d="M13.23 17.02 11.48 15.86 11.98 11.06 10.96 8.66 12.85 4.61 16.11 4.92 21.91 8.77 24.75 9.2 27.73 11.13 25.97 14.36 20.99 14.98 13.23 17.02ZM13.15 8.69 14.03 10.74 13.6 14.85 20.67 13 24.7 12.5 25.08 11.8 24.02 11.11 21.17 10.67 15.42 6.85 14.06 6.72 13.15 8.69Z" class="st0 MsftOfcResponsive_Fill_7823dc" fill="#7823DC"/><path d="M6.03 27.87 1.58 25.17 1.19 18.53 3.44 11.75 8.19 7.82 13.01 4.52 14.14 6.17 9.39 9.41 5.15 12.92 3.21 18.79 3.52 24.01 6.4 25.76 13.95 24.26 20.23 19.63 26.72 17.65 25.76 11.31 27.74 11.01 28.96 19.06 21.15 21.44 14.78 26.14Z" class="st0 MsftOfcResponsive_Fill_7823dc" fill="#7823DC"/><rect x="2.22" y="19.71" width="13.28" height="2" class="st0 MsftOfcResponsive_Fill_7823dc" fill="#7823DC" transform="matrix(0.6239 -0.7815 0.7815 0.6239 -12.8548 14.7182)"/></g></svg>