<svg viewBox="0 0 32 32" xmlns="http://www.w3.org/2000/svg" xmlns:xlink="http://www.w3.org/1999/xlink" id="Layer_5" overflow="hidden"><defs></defs><path d="M16 0.01-1.6 13.14-0.4 14.74 16 2.51 32.48 14.8 33.68 13.2 16 0.01Z" stroke-width="0" fill="#7823DC"/><path d="M2 16 0 16 0 40.47 32 40.47 32 26 2 26 2 16ZM30 28 30 38.47 2 38.47 2 28 30 28Z" stroke-width="0" fill="#7823DC"/><path d="M4 24 30 24 30 18.07 10 16.58 10 21.99 4 21.99 4 23.99ZM12 18.74 28 19.93 28 22 12 22 12 18.74Z" stroke-width="0" fill="#7823DC"/><path d="M6.33 15.53C4.79 15.53 3.54 16.78 3.54 18.32 3.54 19.86 4.79 21.11 6.33 21.11 7.87 21.11 9.12 19.86 9.12 18.32 9.12 16.78 7.87 15.53 6.33 15.53ZM6.33 19.11C5.89 19.11 5.54 18.76 5.54 18.32 5.54 17.88 5.89 17.53 6.33 17.53 6.77 17.53 7.12 17.88 7.12 18.32 7.12 18.76 6.77 19.11 6.33 19.11Z" stroke-width="0" fill="#7823DC"/></svg>