<svg viewBox="0 0 32 32" xmlns="http://www.w3.org/2000/svg" xmlns:xlink="http://www.w3.org/1999/xlink" overflow="hidden"><defs></defs><g id="a"></g><g id="b"><g id="c"></g><path d="M30 17.9948 30 30 2 30 2 17.9948 30 17.9948M32 15.9948 0 15.9948 0 32 32 32 32 15.9948 32 15.9948Z" fill="#7823DC"/><path d="M4 13.9984 4 30 2 30 2 13.9984 4 13.9984M6 11.9984 0 11.9984 0 32 6 32 6 11.9984 6 11.9984Z" fill="#7823DC"/><path d="M30 14 30 30 28 30 28 14 30 14M32 12 26 12 26 32 32 32 32 12 32 12Z" fill="#7823DC"/><path d="M20 8 20 30 12 30 12 8 20 8M22 6 10 6 10 32 22 32 22 6 22 6Z" fill="#7823DC"/><path d="M16 10C14.8954 10 14 10.8954 14 12 14 13.1046 14.8954 14 16 14 17.1046 14 18 13.1046 18 12 18 10.8954 17.1046 10 16 10L16 10Z" fill="#7823DC"/><rect x="15" y="0" width="2" height="6" fill="#7823DC"/><path d="M22 0 16 0 16 4 22 4 19.9952 2.0071 22 0 22 0Z" fill="#7823DC"/><path d="M16 26 14 26 14 30 16 30 16 26 16 26Z" fill="#7823DC"/><path d="M18 26 16 26 16 30 18 30 18 26 18 26Z" fill="#7823DC"/></g></svg>