<svg viewBox="0 0 32 32" xmlns="http://www.w3.org/2000/svg" xmlns:xlink="http://www.w3.org/1999/xlink" overflow="hidden"><g fill="#7823DC"><path d="M19.5516 31.9998 16.6516 5.89978 20.2516 5.89978 25.0516 11.6998 19.8516 16.6998 21.5516 31.9998ZM18.8516 7.89978 19.5516 14.1998 22.3516 11.5998 19.2516 7.89978Z"/><path d="M10.6516 31.9998 12.3516 16.6998 7.15161 11.6998 11.9516 5.89978 15.5516 5.89978 12.6516 31.9998ZM12.9516 7.89978 9.85161 11.5998 12.6516 14.1998 13.3516 7.89978Z"/><circle cx="16.0516" cy="2.59978" r="2.6"/><path d="M2.05161 10.7998 5.85161 10.7998 5.85161 12.7998 2.05161 12.7998Z"/><path d="M26.1516 10.7998 29.9516 10.7998 29.9516 12.7998 26.1516 12.7998Z"/><path d="M6.43545 1.13515 8.43545 1.13515 8.43545 4.93515 6.43545 4.93515Z" transform="matrix(0.707107 -0.707107 0.707107 0.707107 0.03162 6.14663)"/><path d="M23.5673 18.1715 25.5673 18.1715 25.5673 21.9715 23.5673 21.9715Z" transform="matrix(0.707107 -0.707107 0.707107 0.707107 -6.99711 23.2505)"/><path d="M22.6075 1.99241 26.4075 1.99241 26.4075 3.99241 22.6075 3.99241Z" transform="matrix(0.707107 -0.707107 0.707107 0.707107 5.06212 18.2059)"/><path d="M5.57819 19.1172 9.37819 19.1172 9.37819 21.1172 5.57819 21.1172Z" transform="matrix(0.707107 -0.707107 0.707107 0.707107 -12.0347 11.1801)"/></g></svg>