<svg viewBox="0 0 32 32" xmlns="http://www.w3.org/2000/svg" xmlns:xlink="http://www.w3.org/1999/xlink" xml:space="preserve" overflow="hidden"><style>
.MsftOfcResponsive_Fill_7823dc {
 fill:#7823DC; 
}
</style>
<g id="Layer_3"></g><g id="Layer_1"></g><g id="Layer_2"></g><g id="Layer_4"></g><g id="Layer_5"><g id="g1437_00000034800271560181723630000010739181247771454637_" transform="translate(406 316)"><path d="M-390-295.21C-390.14-295.21-390.29-295.24-390.42-295.3-392.08-296.08-400.34-300.13-400.34-303.68-400.34-308.42-393.09-308.42-390-308.42-386.91-308.42-379.66-308.42-379.66-303.68-379.66-300.13-387.92-296.08-389.58-295.3-389.71-295.24-389.86-295.21-390-295.21ZM-390-306.42C-395.69-306.42-398.34-305.55-398.34-303.68-398.34-302.21-394.09-299.29-390-297.31-385.91-299.29-381.66-302.21-381.66-303.68-381.66-305.55-384.31-306.42-390-306.42Z" class="st0 MsftOfcResponsive_Fill_7823dc" fill="#7823DC"/></g><g id="g1441_00000125571146291460397440000005450902174039199676_" transform="translate(106 316)"><path d="M-80.66-302.68C-81.21-302.68-81.66-303.13-81.66-303.68-81.66-308.44-88.16-312.69-90-313.8-91.84-312.69-98.34-308.45-98.34-303.68-98.34-303.13-98.79-302.68-99.34-302.68-99.89-302.68-100.34-303.13-100.34-303.68-100.34-310.39-90.88-315.61-90.47-315.83-90.17-315.99-89.81-315.99-89.51-315.83-89.11-315.61-79.64-310.39-79.64-303.68-79.66-303.13-80.1-302.68-80.66-302.68Z" class="st0 MsftOfcResponsive_Fill_7823dc" fill="#7823DC"/></g><g id="g1445_00000101784267105370563200000013199776857095672246_" transform="translate(346 368.897)"><path d="M-329.91-352.6C-333.22-352.6-335.91-355.29-335.91-358.6L-335.91-359.87C-335.91-360.42-335.46-360.87-334.91-360.87-334.36-360.87-333.91-360.42-333.91-359.87L-333.91-358.6C-333.91-356.4-332.12-354.6-329.91-354.6-327.7-354.6-325.91-356.39-325.91-358.6L-325.91-359.87C-325.91-360.42-325.46-360.87-324.91-360.87-324.36-360.87-323.91-360.42-323.91-359.87L-323.91-358.6C-323.92-355.29-326.61-352.6-329.91-352.6Z" class="st0 MsftOfcResponsive_Fill_7823dc" fill="#7823DC"/></g><g id="g1449_00000041994742375804760390000004468687839674558381_" transform="translate(123.338 273.002)"><path d="M-95.1-240.94-119.57-240.94-123.42-246.1-115.98-259.37-114.24-258.39-121.04-246.26-118.57-242.94-96.11-242.94-93.63-246.26-100.44-258.39-98.69-259.37-91.25-246.1Z" class="st0 MsftOfcResponsive_Fill_7823dc" fill="#7823DC"/></g><path d="M6.7 31.17 5.72 22.03 26.44 22.03 25.62 31.15 23.63 30.98 24.25 24.03 7.94 24.03 8.69 30.96Z" class="st0 MsftOfcResponsive_Fill_7823dc" fill="#7823DC"/></g></svg>