<svg viewBox="0 0 32.15 31.91" xmlns="http://www.w3.org/2000/svg" xmlns:xlink="http://www.w3.org/1999/xlink" id="Layer_1" overflow="hidden"><style>
.MsftOfcResponsive_Fill_7823dc {
 fill:#7823DC; 
}
</style>
<defs></defs><path d="M26.54 21.92 23.54 21.92C22.24 21.92 21.41 21.27 21.41 20.82L21.41 19.82 19.41 19.82 19.41 20.82C19.41 22.56 21.22 23.92 23.54 23.92L26.54 23.92C28.67 23.92 30.16 25.03 30.16 26.02L30.16 29.46C30.14 29.57 29.74 29.92 28.99 29.92L17.08 29.92 17.08 21.21 15.08 21.21 15.08 29.92 3.17 29.92C2.42 29.92 2.02 29.57 2 29.46L2 26.02C2 25.03 3.48 23.92 5.61 23.92L8.57 23.92C10.88 23.92 12.7 22.56 12.7 20.82L12.7 19.82 10.7 19.82 10.7 20.82C10.7 21.27 9.87 21.92 8.57 21.92L5.61 21.92C2.46 21.92 0 23.72 0 26.02L0 29.46C0 30.84 1.39 31.92 3.17 31.92L28.98 31.92C30.76 31.92 32.15 30.84 32.15 29.46L32.15 26.02C32.15 23.72 29.68 21.92 26.53 21.92Z" class="MsftOfcResponsive_Fill_7823dc" fill="#7823DC"/><path d="M11.2 12.97C12.04 12.97 12.83 12.65 13.43 12.07L14.4 11.13C15.4 10.16 17.11 10.16 18.11 11.13L19.08 12.07C19.68 12.65 20.47 12.97 21.31 12.97 21.45 12.97 21.59 12.95 21.73 12.93 21.68 13.57 21.52 14.17 21.26 14.73L18.47 14.7C18.3 14.28 17.97 13.99 17.59 13.99L14.86 13.99C14.31 13.99 13.86 14.6 13.86 15.34 13.86 16.08 14.31 16.69 14.86 16.69L17.6 16.69 19.73 16.71C18.79 17.48 17.6 17.94 16.3 17.94 14.66 17.94 13.13 17.3 11.97 16.14L11.42 15.59 10 17 10.55 17.55C12.08 19.09 14.13 19.94 16.3 19.94 18.82 19.94 21.05 18.67 22.4 16.74L23.19 16.74C25.66 16.74 27.68 14.95 27.68 12.73L27.68 1.28 25.68 1.28 25.68 12.73C25.68 13.79 24.66 14.65 23.39 14.73 23.62 14.02 23.74 13.26 23.74 12.48L23.74 11.83C24.19 11.29 24.47 10.62 24.47 9.87L24.47 8.7C24.47 6.99 23.05 5.6 21.3 5.6L11.2 5.6C11.2 5.6 11.17 5.6 11.16 5.6 11.55 3.21 12.95 2 15.35 2L18.93 2C20.32 2 21.45 3.14 21.45 4.53L23.45 4.53C23.45 2.03 21.42 8.88178e-16 18.93 8.88178e-16L15.35 8.88178e-16C11.58 8.88178e-16 9.31 2.3 9.06 6.33L9.06 6.43C8.43 7 8.03 7.8 8.03 8.7L8.03 9.87C8.03 11.58 9.45 12.97 11.2 12.97ZM21.32 7.6C21.97 7.6 22.49 8.1 22.49 8.7L22.49 9.87C22.49 10.48 21.97 10.97 21.32 10.97 21.01 10.97 20.7 10.85 20.48 10.64L19.51 9.7C18.63 8.85 17.48 8.38 16.26 8.38 15.04 8.38 13.89 8.85 13.01 9.7L12.04 10.64C11.82 10.85 11.52 10.97 11.2 10.97 10.55 10.97 10.03 10.48 10.03 9.87L10.03 8.7C10.03 8.09 10.55 7.6 11.2 7.6L21.32 7.6Z" class="MsftOfcResponsive_Fill_7823dc" fill="#7823DC"/></svg>