<svg viewBox="0 0 32 32" xmlns="http://www.w3.org/2000/svg" xmlns:xlink="http://www.w3.org/1999/xlink" id="Layer_1" xml:space="preserve" overflow="hidden"><path d="" stroke="#7823DC" stroke-width="2" stroke-miterlimit="10" fill="#7823DC"/><path d="" stroke="#7823DC" stroke-width="2" stroke-miterlimit="10" fill="#7823DC"/><path d="M16 12C23.6 12 28.6 13.5 29.8 14.6 28.6 15.6 23.5 17.2 16 17.2 8.5 17.2 3.4 15.6 2.2 14.5 3.4 13.5 8.4 12 16 12M16 10C7.2 10 0 12 0 14.6 0 17.2 7.2 19.2 16 19.2 24.8 19.2 32 17.2 32 14.6 32 12 24.8 10 16 10L16 10Z" fill="#7823DC"/><path d="M16 32C10.1 32 0 31.1 0 27.5L2 27.5C2.3 28.3 7.4 30 16 30 24.6 30 29.7 28.3 30 27.5L32 27.5C32 31.1 21.9 32 16 32Z" fill="#7823DC"/><path d="M11.5 25.5C12.1 25.5 12.8 25.6 13.5 25.6L13.5 27.6C12.8 27.6 12.2 27.5 11.5 27.5 6 27.1 0 26 0 23.2L2 23.2C2.2 23.9 5.7 25.1 11.5 25.5Z" fill="#7823DC"/><path d="M32 23.2C32 26 26 27.1 20.5 27.5 19.8 27.5 19.2 27.6 18.5 27.6L18.5 25.6C19.2 25.6 19.9 25.5 20.5 25.5 26.3 25.1 29.8 23.8 30 23.1L32 23.2Z" fill="#7823DC"/><path d="M32 18.9C32 21.7 25.9 22.9 20.4 23.2 19.7 23.3 19 23.3 18.4 23.3 18.2 22.7 17.7 22.3 17 22.3L15 22.3C14.4 22.3 13.8 22.7 13.6 23.3 12.9 23.3 12.3 23.2 11.6 23.2 6 22.8 0 21.7 0 18.9L2 18.9C2.3 19.6 6.1 20.9 12.6 21.3 13.7 21.4 14.8 21.4 16 21.4 17.2 21.4 18.3 21.4 19.4 21.3 25.9 20.9 29.7 19.6 30 18.8L32 18.9Z" fill="#7823DC"/><rect x="0" y="14.1" width="2" height="13.5" fill="#7823DC"/><rect x="30" y="14.1" width="2" height="13.5" fill="#7823DC"/><rect x="15" y="6" width="2" height="5.6" fill="#7823DC"/><path d="M20.5 23.2C20.4 22.4 20 21.8 19.5 21.3 18.9 20.7 18 20.3 17.1 20.3L15 20.3C14.1 20.3 13.2 20.7 12.6 21.3 12.1 21.8 11.7 22.5 11.6 23.2 11.6 23.4 11.6 23.6 11.6 23.8L11.6 31.7 20.6 31.7M18.5 30.7 13.5 30.7 13.5 23.8C13.5 23.6 13.5 23.5 13.6 23.4 13.8 22.8 14.3 22.4 15 22.4L17 22.4C17.6 22.4 18.2 22.8 18.4 23.4 18.4 23.5 18.5 23.7 18.5 23.8L18.5 30.7Z" fill="#7823DC"/><rect x="26" y="1.2" width="2" height="11.1" fill="#7823DC"/><path d="M26 1.8 26 7.6 32 4.7Z" fill="#7823DC"/><rect x="4" y="1" width="2" height="11.1" fill="#7823DC"/><path d="M6 1.6 0 4.6 6 7.5Z" fill="#7823DC"/><path d="M18.8 3 18.8 5.6 13 5.6 13 3 18.8 3M20.8 1 11 1 11 7.6 20.8 7.6 20.8 1 20.8 1Z" fill="#7823DC"/></svg>