<svg viewBox="0 0 32 32" xmlns="http://www.w3.org/2000/svg" xmlns:xlink="http://www.w3.org/1999/xlink" id="Layer_2_1_" overflow="hidden"><g><g><defs><path d="M0 32 32 32 32 0 0 0 0 32Z" id="SVGID_1_" fill="#7823DC"/></defs><defs><path d="M0 0 32 0 32 32 0 32 0 0Z" id="SVGID_2_" fill="#7823DC"/></defs><clipPath id="SVGID_3_"><use width="100%" height="100%" xlink:href="#SVGID_1_" overflow="visible"></use></clipPath><clipPath id="SVGID_4_" clip-path="url(#SVGID_3_)"><use width="100%" height="100%" xlink:href="#SVGID_2_" overflow="visible"></use></clipPath><g clip-path="url(#SVGID_4_)"><defs><path d="M0 32 32 32 32 0 0 0 0 32Z" id="SVGID_5_" fill="#7823DC"/></defs><clipPath id="SVGID_6_"><use width="100%" height="100%" xlink:href="#SVGID_5_" overflow="visible"></use></clipPath><path d="M18.5 24.6 14.4 24.6 13.5 21.8C13.4 21.8 13.4 21.7 13.3 21.7L10.4 22.3 8.3 18.7 10.3 16.5C10.3 16.5 10.3 16.4 10.3 16.4 10.3 16.4 10.3 16.3 10.3 16.3L8.3 14.1 10.4 10.5 13.3 11.1C13.4 11.1 13.4 11 13.5 11L14.4 8.2 18.5 8.2 19.4 11C19.5 11 19.5 11.1 19.6 11.1L22.5 10.5 24.6 14.1 22.6 16.3C22.6 16.3 22.6 16.4 22.6 16.4 22.6 16.4 22.6 16.5 22.6 16.5L24.6 18.7 22.5 22.3 19.6 21.7C19.5 21.7 19.5 21.8 19.4 21.8L18.5 24.6ZM15.8 22.7 17.1 22.7 17.9 20.4 18.3 20.2C18.5 20.1 18.7 20 19 19.8L19.3 19.6 21.6 20.1 22.3 19 20.7 17.2 20.7 16.8C20.7 16.7 20.7 16.6 20.7 16.4 20.7 16.2 20.7 16.1 20.7 16L20.7 15.6 22.3 13.8 21.6 12.7 19.3 13.2 19 13C18.8 12.9 18.6 12.7 18.3 12.6L17.9 12.4 17.1 10.1 15.8 10.1 15 12.4 14.6 12.6C14.4 12.7 14.2 12.8 13.9 13L13.6 13.2 11.3 12.7 10.6 13.8 12.2 15.6 12.2 16C12.2 16.1 12.2 16.2 12.2 16.4 12.2 16.5 12.2 16.7 12.2 16.8L12.2 17.2 10.7 19 11.4 20.1 13.7 19.6 14 19.8C14.2 19.9 14.4 20.1 14.7 20.2L15.1 20.4 15.8 22.7Z" fill="#7823DC" clip-path="url(#SVGID_6_)"/><path d="M16.4 19.3C14.8 19.3 13.5 18 13.5 16.4 13.5 14.8 14.8 13.5 16.4 13.5 18 13.5 19.3 14.8 19.3 16.4 19.3 18 18 19.3 16.4 19.3ZM16.4 15.4C15.9 15.4 15.4 15.8 15.4 16.4 15.4 16.9 15.8 17.4 16.4 17.4 17 17.4 17.4 17 17.4 16.4 17.4 15.9 17 15.4 16.4 15.4Z" fill="#7823DC" clip-path="url(#SVGID_6_)"/><path d="M17.4 1 17.4 4.9C17.1 4.9 16.8 4.9 16.4 4.9 11.1 4.9 6.5 8.5 5.2 13.6L3.2 13.6C4.5 7.7 9.5 3.4 15.5 2.9L15.5 1 17.4 1 17.4 1Z" fill="#7823DC" clip-path="url(#SVGID_6_)"/><path d="M13.5 27.6 13.5 29.6C7.7 28.3 3.4 23.3 2.9 17.4L1 17.4 1 15.5 4.9 15.5C4.9 15.8 4.9 16.1 4.9 16.5 4.8 21.7 8.4 26.3 13.5 27.6L13.5 27.6Z" fill="#7823DC" clip-path="url(#SVGID_6_)"/><path d="M29.6 19.3C28.3 25.1 23.3 29.4 17.4 29.9L17.4 31.9 15.5 31.9 15.5 28C15.8 28 16.1 28 16.5 28 21.8 28 26.4 24.4 27.7 19.3L29.6 19.3Z" fill="#7823DC" clip-path="url(#SVGID_6_)"/><path d="M31.9 15.4 31.9 17.3 28 17.3C28 17 28 16.7 28 16.3 28 11 24.4 6.4 19.3 5.1L19.3 3.1C25.2 4.4 29.5 9.4 29.9 15.3L31.9 15.3Z" fill="#7823DC" clip-path="url(#SVGID_6_)"/></g></g></g></svg>