<svg viewBox="0 0 32 32" xmlns="http://www.w3.org/2000/svg" xmlns:xlink="http://www.w3.org/1999/xlink" id="Layer_1" overflow="hidden"><path d="" fill="#7823DC"/><path d="M27.4 3.1 29.1 4.8 28.3 5.6 26.9 7 28.3 8.4 29.1 9.2 28.3 10 26.9 11.4 28.3 12.8 29.1 13.6 28.3 14.4 26.9 15.8 28.3 17.2 29.1 18 28.3 18.8 26.9 20.2 28.3 21.6 29.1 22.4 28.3 23.2 26.9 24.6 28.3 26 29.1 26.8 27.4 28.5 26.6 27.7 25.2 26.3 23.8 27.7 23 28.5 22 28.3 20.6 26.9 19.2 28.3 18.4 29.1 17.6 28.3 16 26.9 14.6 28.3 13.8 29.1 13 28.3 11.6 26.9 10 28.3 9.2 29.1 8.4 28.3 7 26.9 5.6 28.3 4.8 29.1 3.1 27.4 3.9 26.6 5.3 25.2 3.9 23.8 3.1 23 3.9 22.2 5.3 20.8 3.9 19.4 3.1 18.6 3.9 17.8 5.3 16.4 3.9 15 3.1 14.2 3.7 13 5.1 11.6 3.7 10.2 2.9 9.3 3.7 8.5 5.1 7.1 3.7 5.6 2.9 4.8 4.6 3.1 5.4 3.9 6.8 5.3 8.2 3.9 9 3.1 10 3.9 11.4 5.3 12.8 3.9 13.6 3.1 14.4 3.9 16 5.4 17.4 4 18.2 3.2 19 4 20.4 5.4 22 3.9 22.8 3.1 23.6 3.9 25 5.3 26.4 3.9 27.4 3.1M27.4 0.3 25.1 2.6 22.8 0.3 20.5 2.6 18.2 0.3 16 2.5 13.7 0.2 11.4 2.5 9.1 0.3 6.9 2.5 4.6 0.3 0 4.8 2.3 7.1 0 9.3 2.3 11.6 0 13.9 2.3 16.2 0 18.4 2.3 20.7 0 22.9 2.3 25.2 0 27.5 4.6 32 6.9 29.7 9.1 32 11.4 29.7 13.7 32 16 29.7 18.3 32 20.6 29.7 22.9 32 25.2 29.7 27.5 32 32.1 27.5 29.8 25.2 32.1 22.9 29.8 20.6 32.1 18.3 29.8 16 32.1 13.7 29.8 11.4 32 9.3 29.7 7 32 4.8 27.4 0.3 27.4 0.3Z" fill="#7823DC"/></svg>