<svg viewBox="0 0 32 32" xmlns="http://www.w3.org/2000/svg" xmlns:xlink="http://www.w3.org/1999/xlink" id="Layer_1" xml:space="preserve" overflow="hidden"><path d="M25.3 2.3 32 2.3 32 4.4 25.3 4.4 25.3 2.3Z" fill="#7823DC" fill-rule="evenodd" clip-rule="evenodd"/><path d="M4.4 6.7 4.4 4.4 6.7 4.4 6.7 2.4 4.4 2.4 4.4 0 2.4 0 2.4 2.4 0 2.4 0 4.4 2.4 4.4 2.4 6.7 4.4 6.7 4.4 6.7Z" fill="#7823DC" fill-rule="evenodd" clip-rule="evenodd"/><path d="M0 16 0 32 32 32 32 16 0 16ZM30 30 2 30 2 18 30 18 30 30Z" fill="#7823DC"/><path d="M31.2 22.9C30.7 23 30.4 23.1 30 23.2 29.3 23.4 28.9 23.7 28.5 24 28.4 24.1 28.2 24.2 28.1 24.2 27.6 24.5 27 24.8 26.1 24.9L26 24.9C24.8 24.9 23.8 24.4 23 23.9 23 23.9 22.9 23.9 22.9 23.8 22.2 23.3 21.7 23 21 23L20.9 23C20.1 23 19.6 23.4 18.9 23.8 18.1 24.3 17.2 24.9 15.8 24.9 14.4 24.9 13.5 24.3 12.7 23.7 12 23.3 11.6 23 11 22.9 10.9 22.9 10.8 22.9 10.7 22.9 10.1 22.9 9.7 23.2 9 23.7 9 23.7 9 23.7 9 23.7 8.4 24.3 7.5 25 6.2 25L6.2 25C6.1 25 6 25 6 25 5.2 25 4.5 24.7 4 24.4 3.8 24.3 3.7 24.2 3.5 24.1 3 23.8 2.6 23.6 2 23.3 1.7 23.2 1.3 23.1 0.8 22.9L1.1 20.9C1.4 21 1.7 21.1 1.9 21.1 2.7 21.4 3.4 21.7 3.9 21.9 4 22 4.2 22.1 4.3 22.1 5 22.6 5.4 22.9 6 23 6.1 23 6.1 23 6.2 23 6.9 23 7.3 22.7 8 22.2 8.3 22 8.6 21.7 9 21.5 9.5 21.2 10.1 21 10.8 21 10.9 21 10.9 21 11 21 12.2 21 13.1 21.6 13.8 22.1 14.5 22.6 15 22.9 15.8 22.9 16.6 22.9 17.1 22.5 17.8 22.1 18.6 21.6 19.5 21 20.9 21 20.9 21 20.9 21 20.9 21 21.7 21 22.4 21.2 22.9 21.5 23.3 21.7 23.7 21.9 24 22.1 24.7 22.5 25.2 22.9 25.9 22.9L26 22.9C26.4 22.9 26.8 22.7 27.3 22.3 27.5 22.2 27.7 22.1 28 21.9 28.5 21.6 29.1 21.3 30 21.1 30.3 21 30.5 21 30.8 20.9L31.2 22.9Z" fill="#7823DC"/><g><path d="M13.8 3.2 13.8 10 22 10 22 3.2 13.8 3.2ZM20 8 15.8 8 15.8 5.2 20 5.2 20 8Z" fill="#7823DC"/><path d="M10 3.2 10 10 16 10 16 3.2 10 3.2ZM14 8 12 8 12 5.2 14 5.2 14 8Z" fill="#7823DC"/></g><g><path d="M4 12 4 24.4C4.5 24.7 5.2 25 6 25L6 14 9 14 9 23.8C9 23.8 9 23.8 9 23.8 9.7 23.3 10.1 23 10.7 23 10.8 23 10.9 23 11 23L11 12 4 12Z" fill="#7823DC"/><rect x="6.5" y="5.6" width="2" height="7.3" fill="#7823DC"/><rect x="8.1" y="5.6" width="2.8" height="2" fill="#7823DC"/></g><g><path d="M21 12 21 23C21.7 23 22.2 23.3 22.9 23.8 22.9 23.8 23 23.8 23 23.9L23 14 26 14 26 24.9C26.9 24.9 27.5 24.6 28 24.2L28 12 21 12Z" fill="#7823DC"/><rect x="23.5" y="5.6" width="2" height="7.3" fill="#7823DC"/><rect x="21.1" y="5.6" width="2.8" height="2" fill="#7823DC"/></g></svg>