<svg viewBox="0 0 32 32" xmlns="http://www.w3.org/2000/svg" xmlns:xlink="http://www.w3.org/1999/xlink" id="Outline_Final_icon" overflow="hidden"><defs></defs><path d="M16 7.97C18.2 7.97 19.99 6.19 19.99 3.98 19.99 1.77 18.21-0.01 16-0.01 13.79-0.01 12.01 1.77 12.01 3.98 12.01 6.19 13.79 7.97 16 7.97ZM16 2C17.1 2 17.99 2.89 17.99 3.99 17.99 5.09 17.1 5.98 16 5.98 14.9 5.98 14.01 5.09 14.01 3.99 14.01 2.89 14.9 2 16 2Z" fill="#7823DC"/><path d="M30 13.5 30 15.42 15.79 17.82 2 15.42 2 13.5 0 13.5 0 32 2 32 2 17.45 15.78 19.85 30 17.45 30 32 32 32 32 13.5 30 13.5Z" fill="#7823DC"/><path d="M21.95 22.14 10.06 22.14 10.06 19.64 8.06 19.29 8.06 24.14 12.49 24.14 13.32 26.74 10.92 28.66 12.17 30.22 15.65 27.44 14.59 24.14 18.34 24.14 20.68 28.84 18.63 32 21.01 32 22.98 28.96 20.57 24.14 23.95 24.14 23.95 19.29 21.95 19.64 21.95 22.14Z" fill="#7823DC"/><path d="M8.06 12.55 8.06 15.56 10.06 16 10.06 11.73 21.95 11.73 21.95 16.03 23.95 15.73 23.95 12.55 26.33 12.55 30.28 7.27 28.68 6.07 25.33 10.55 23.95 10.55 23.95 9.73 8.06 9.73 8.06 10.55 6.68 10.55 3.32 6.07 1.72 7.27 5.67 12.55 8.06 12.55Z" fill="#7823DC"/></svg>