<svg viewBox="0 0 32 31.99" xmlns="http://www.w3.org/2000/svg" xmlns:xlink="http://www.w3.org/1999/xlink" id="Layer_1" overflow="hidden"><style>
.MsftOfcResponsive_Fill_7823dc {
 fill:#7823DC; 
}
</style>
<defs></defs><rect x="22.57" y="0" width="1.86" height="2" class="MsftOfcResponsive_Fill_7823dc" fill="#7823DC"/><rect x="18.85" y="0" width="1.86" height="2" class="MsftOfcResponsive_Fill_7823dc" fill="#7823DC"/><rect x="26.28" y="0" width="1.86" height="2" class="MsftOfcResponsive_Fill_7823dc" fill="#7823DC"/><rect x="30" y="0" width="2" height="2" class="MsftOfcResponsive_Fill_7823dc" fill="#7823DC"/><rect x="30" y="11.28" width="2" height="1.86" class="MsftOfcResponsive_Fill_7823dc" fill="#7823DC"/><rect x="30" y="3.86" width="2" height="1.86" class="MsftOfcResponsive_Fill_7823dc" fill="#7823DC"/><rect x="30" y="7.57" width="2" height="1.86" class="MsftOfcResponsive_Fill_7823dc" fill="#7823DC"/><path d="M26.26 14.99 26.26 15.99C26.26 17.1 25.42 17.99 24.39 17.99 23.36 17.99 22.53 17.1 22.53 15.99L22.53 14.99 17 14.99 17 12.48C18.72 12.05 20 10.54 20 8.74 20 6.94 18.72 5.43 17 5L17 0 16 0 16 0.03 4 0.03 2 2.03 15 2.03 15 6.88 16 6.88C17.1 6.88 18 7.71 18 8.74 18 9.77 17.1 10.6 16 10.6L15 10.6 15 15 11.34 15C10.91 13.27 9.4 12 7.6 12 5.8 12 4.29 13.27 3.86 15L2 15 2 2.03 0 4.03 0 31.99 28 31.99 30 29.99 17 29.99 17 26.25 16 26.25C14.9 26.25 14 25.42 14 24.39 14 23.36 14.9 22.53 16 22.53L17 22.53 17 16.99 20.65 16.99C21.08 18.72 22.6 19.99 24.39 19.99 26.18 19.99 27.71 18.72 28.14 16.99L30 16.99 30 29.99 32 27.99 32 14.99 26.26 14.99ZM15 20.65C13.28 21.08 12 22.59 12 24.39 12 26.19 13.28 27.7 15 28.13L15 29.99 2 29.99 2 17 5.74 17 5.74 16C5.74 14.89 6.57 14 7.6 14 8.63 14 9.46 14.89 9.46 16L9.46 17 15 17 15 20.65Z" class="MsftOfcResponsive_Fill_7823dc" fill="#7823DC"/></svg>