<svg viewBox="0 0 32 32" xmlns="http://www.w3.org/2000/svg" xmlns:xlink="http://www.w3.org/1999/xlink" id="Layer_1" overflow="hidden"><path d="M8 16.2C3.6 16.2 0 12.6 0 8.2 0 3.8 3.6 0.2 8 0.2 12.4 0.2 16 3.8 16 8.2 16 12.6 12.4 16.1 8 16.2ZM8 2.2C4.7 2.2 2 4.9 2 8.2 2 11.5 4.7 14.2 8 14.2 11.3 14.2 14 11.5 14 8.2 14 4.8 11.3 2.2 8 2.2Z" fill="#7823DC"/><path d="M5 18.2 0.1 20.7 0.1 18.9 4.3 16.7 4.6 16.9Z" fill="#7823DC"/><path d="M32 6.1 22 6.1 22 8.1 32 8.1 32 6.1Z" fill="#7823DC"/><path d="M28 10.1 28 19.1C28 19.7 27.6 20.1 27 20.1 26.4 20.1 26 19.7 26 19.1L26 10.1 28 10.1M30 8.1 24 8.1 24 19.1C24 20.8 25.3 22.1 27 22.1 28.7 22.1 30 20.8 30 19.1L30 8.1Z" fill="#7823DC"/><circle cx="26.6" cy="5" r="1" fill="#7823DC"/><circle cx="28.6" cy="3" r="1" fill="#7823DC"/><circle cx="26.6" cy="1" r="1" fill="#7823DC"/><g><g><path d="M7.3 19.8 6 18.5 3.2 21.3 4.5 22.6 7.3 19.8Z" fill="#7823DC"/><path d="M2.9 17.8 4.4 16.6 6.4 19 4.7 20.2Z" fill="#7823DC"/></g><g><path d="M8.1 19.8 9.4 18.5 12.2 21.3 10.9 22.6 8.1 19.8Z" fill="#7823DC"/><path d="M21.5 21 19.5 21 19.5 32 21.5 32Z" fill="#7823DC"/><path d="M10.2 18.4 20.8 22.7 21.5 20.9 11 16.6 10.7 17.3Z" fill="#7823DC"/><path d="M12.5 17.8 11 16.6 9 19 10.7 20.2Z" fill="#7823DC"/></g></g><rect x="6.9" y="23.7" width="2" height="8.3" fill="#7823DC"/><path d="M15.8 25.7 15.8 27.6 12.8 27.6 12.8 25.7 15.8 25.7M17.8 23.7 10.8 23.7 10.8 29.6 17.8 29.6 17.8 23.7 17.8 23.7Z" fill="#7823DC"/></svg>