<svg viewBox="0 0 32 32" xmlns="http://www.w3.org/2000/svg" xmlns:xlink="http://www.w3.org/1999/xlink" id="Graphic" overflow="hidden"><defs></defs><rect x="0" y="13.9131" width="4.0249" height="2" fill="#7823DC"/><path d="M27.5322 15.9131 7 15.9131 7 13.9131 27.5322 13.9131C28.8957 13.9131 30.001 12.8078 30.001 11.4443 30.001 10.0809 28.8957 8.97559 27.5322 8.97559 26.1688 8.97559 25.0635 10.0809 25.0635 11.4443L23.0635 11.4443C23.0638 8.97659 25.0645 6.9763 27.5322 6.97657 30 6.97684 32.0003 8.97757 32 11.4453 31.9997 13.9127 29.9996 15.9128 27.5322 15.9131Z" fill="#7823DC"/><rect x="0" y="17.9131" width="8" height="2" fill="#7823DC"/><path d="M21.771 26.3721C19.4362 26.3692 17.5443 24.4769 17.542 22.1421L19.542 22.1421C19.542 23.3731 20.54 24.3711 21.771 24.3711 23.002 24.3711 24 23.3731 24 22.1421 24 20.911 23.002 19.9131 21.771 19.9131L11 19.9131 11 17.9131 21.771 17.9131C24.1069 17.9131 26.0005 19.8067 26.0005 22.1426 26.0005 24.4785 24.1069 26.3721 21.771 26.3721Z" fill="#7823DC"/><path d="M12.8394 27.9795C11.165 27.9775 9.80815 26.6207 9.80615 24.9463L11.8062 24.9463C11.8063 25.5168 12.2688 25.9792 12.8394 25.9791 13.4099 25.979 13.8723 25.5164 13.8722 24.9459 13.872 24.3755 13.4097 23.9132 12.8394 23.9131L6.34766 23.9131 6.34766 21.9131 12.8394 21.9131C14.5146 21.9131 15.8726 23.2711 15.8726 24.9463 15.8726 26.6215 14.5146 27.9795 12.8394 27.9795Z" fill="#7823DC"/><path d="M16.9136 11.9131 3.87109 11.9131 3.87109 9.91309 16.9136 9.91309C17.5845 9.91282 18.1282 9.3687 18.1279 8.69776 18.1277 8.02682 17.5836 7.48312 16.9126 7.48339 16.242 7.48365 15.6985 8.02719 15.6982 8.69775L13.6982 8.69775C13.6982 6.92197 15.1378 5.48241 16.9136 5.48241 18.6894 5.48241 20.1289 6.92197 20.1289 8.69775 20.1289 10.4735 18.6894 11.9131 16.9136 11.9131Z" fill="#7823DC"/></svg>