<svg viewBox="0 0 32 32" xmlns="http://www.w3.org/2000/svg" xmlns:xlink="http://www.w3.org/1999/xlink" overflow="hidden"><style>
.MsftOfcResponsive_Fill_7823dc {
 fill:#7823DC; 
}
</style>
<defs></defs><g id="Layer_3"><circle cx="26" cy="16" r="2" class="MsftOfcResponsive_Fill_7823dc" fill="#7823DC"/><path d="M8.6 30.905 3.502 17 0 17 2 15 4.898 15 8.6 25.095 17.4 1.095 22.498 15 26 15 26 17 21.102 17 17.4 6.905 8.6 30.905Z" class="MsftOfcResponsive_Fill_7823dc" fill="#7823DC"/><path d="M26.0117 10.0232 26 10.0239 26 12.0244 26.0117 12.0232C28.2144 12.0267 29.9972 13.8152 29.9937 16.0179 29.9902 18.2157 28.2094 19.9965 26.0117 20L26 19.9988 26 21.9994 26.0117 22C29.3189 21.9957 31.9966 19.3112 31.9923 16.0039 31.988 12.7026 29.3129 10.0275 26.0117 10.0233Z" class="MsftOfcResponsive_Fill_7823dc" fill="#7823DC"/></g></svg>