<svg viewBox="0 0 32 32" xmlns="http://www.w3.org/2000/svg" xmlns:xlink="http://www.w3.org/1999/xlink" id="Layer_1" overflow="hidden"><style>
.MsftOfcResponsive_Fill_7823dc {
 fill:#7823DC; 
}
</style>
<defs></defs><rect x="15.38" y="12.04" width="2" height="7.17" class="MsftOfcResponsive_Fill_7823dc" fill="#7823DC" transform="matrix(-0.707107 0.707107 -0.707107 -0.707107 39.01 15.09)"/><path d="M13.64 25.86C11.74 25.86 9.84 25.12 8.36 23.64 5.4 20.68 5.4 16.05 8.36 13.09L11.1 10.35C14.01 7.44 18.74 7.44 21.65 10.35 24.56 13.26 24.56 17.99 21.65 20.9L18.91 23.64C17.43 25.12 15.53 25.86 13.63 25.86ZM16.38 10.16C14.98 10.16 13.58 10.69 12.52 11.76L9.78 14.5C7.61 16.67 7.61 20.06 9.78 22.22 11.95 24.39 15.34 24.39 17.5 22.22L20.24 19.48C22.37 17.35 22.37 13.89 20.24 11.76 19.18 10.7 17.78 10.16 16.38 10.16Z" class="MsftOfcResponsive_Fill_7823dc" fill="#7823DC"/><path d="M11.6 11.26 4.58 4.24 4.58 1C4.58 1 4.58 1 4.58 0.99L4.58 0 2.58 0 2.58 6.24 3.75 6.24 10.18 12.67C10.38 12.87 10.63 12.96 10.89 12.96 11.15 12.96 11.4 12.86 11.6 12.67 11.99 12.28 11.99 11.65 11.6 11.26Z" class="MsftOfcResponsive_Fill_7823dc" fill="#7823DC"/><path d="M20.74 20.4 27.76 27.42 31 27.42C31 27.42 31 27.42 31.01 27.42L32 27.42 32 29.42 25.76 29.42 25.76 28.25C25.76 28.25 19.33 21.82 19.33 21.82 19.13 21.62 19.04 21.37 19.04 21.11 19.04 20.85 19.14 20.6 19.33 20.4 19.72 20.01 20.35 20.01 20.74 20.4Z" class="MsftOfcResponsive_Fill_7823dc" fill="#7823DC"/><path d="M3.58 11.9C2.62 11.9 1.72 11.53 1.05 10.85 0.38 10.17 0 9.27 0 8.31 0 7.35 0.37 6.45 1.05 5.78 2.4 4.42 4.76 4.43 6.12 5.78L6.12 5.78C6.8 6.46 7.17 7.36 7.17 8.31 7.17 9.26 6.8 10.17 6.12 10.84 5.44 11.51 4.54 11.89 3.59 11.89ZM3.58 6.73C3.16 6.73 2.76 6.9 2.46 7.19 2.16 7.49 2 7.89 2 8.31 2 8.73 2.17 9.13 2.46 9.43 3.06 10.03 4.1 10.03 4.7 9.43 5 9.13 5.16 8.73 5.16 8.31 5.16 7.89 4.99 7.49 4.7 7.19 4.7 7.19 4.7 7.19 4.7 7.19 4.4 6.89 4 6.73 3.58 6.73Z" class="MsftOfcResponsive_Fill_7823dc" fill="#7823DC"/><path d="M23.69 32C22.77 32 21.85 31.65 21.16 30.95 19.76 29.55 19.76 27.28 21.16 25.88 22.56 24.48 24.83 24.48 26.23 25.88 27.63 27.28 27.63 29.55 26.23 30.95 25.53 31.65 24.61 32 23.7 32ZM23.69 26.83C23.28 26.83 22.88 26.98 22.57 27.29 21.95 27.91 21.95 28.91 22.57 29.53 23.19 30.15 24.19 30.15 24.81 29.53 25.43 28.91 25.43 27.91 24.81 27.29 24.5 26.98 24.1 26.83 23.69 26.83Z" class="MsftOfcResponsive_Fill_7823dc" fill="#7823DC"/><rect x="22.08" y="5.77" width="2" height="6.31" class="MsftOfcResponsive_Fill_7823dc" fill="#7823DC" transform="matrix(0.707107 0.707107 -0.707107 0.707107 13.07 -13.71)"/><rect x="12.87" y="5.01" width="2" height="5.26" class="MsftOfcResponsive_Fill_7823dc" fill="#7823DC" transform="matrix(-0.707107 0.707107 -0.707107 -0.707107 29.08 3.23)"/><rect x="23.33" y="15.46" width="2" height="5.26" class="MsftOfcResponsive_Fill_7823dc" fill="#7823DC" transform="matrix(-0.707107 0.707107 -0.707107 -0.707107 54.33 13.68)"/></svg>