<svg viewBox="0 0 32 32" xmlns="http://www.w3.org/2000/svg" xmlns:xlink="http://www.w3.org/1999/xlink" id="Graphic" overflow="hidden"><defs></defs><path d="M22 2 22 4 10.09 4 10.09 2 22 2M24 0 8.09 0 8.09 6 24 6 24 0Z" fill="#7823DC"/><path d="M21.48 6 24 10.55 24 28.06C24 29.1314 23.1314 30 22.06 30L9.85 30C8.82827 30 8 29.1717 8 28.15L8 10.55 10.52 6 21.52 6M22.71 4 9.33 4 6 10 6 28.15C6 30.2763 7.7237 32 9.85 32L22.06 32C24.2305 32.0055 25.9945 30.2505 26 28.08 26 28.0733 26 28.0667 26 28.06L26 10 22.67 4Z" fill="#7823DC"/><path d="M24 14 24 24 12 24 12 14 24 14M26 12 10 12 10 26 26 26 26 12Z" fill="#7823DC"/><path d="M18 15.98 16 15.98 16 21.98 18 21.98 18 15.98 18 15.98Z" fill="#7823DC"/><path d="M20 17.98 14 17.98 14 19.98 20 19.98 20 17.98 20 17.98Z" fill="#7823DC"/></svg>