<svg viewBox="0 0 29.22 29.22" xmlns="http://www.w3.org/2000/svg" xmlns:xlink="http://www.w3.org/1999/xlink" xml:space="preserve" overflow="hidden"><style>
.MsftOfcResponsive_Fill_7823dc {
 fill:#7823DC; 
}
</style>
<g id="Layer_3"></g><g id="Layer_1"></g><g id="Layer_2"></g><g id="Layer_4"></g><g id="Layer_5"><path d="M29.22 22.99 25.46 22.99 25.46 15.48 29.22 15.48 29.22 13.48 25.46 13.48 25.46 5.96 29.22 5.96 29.22 3.96 25.46 3.96 25.46 0 23.46 0 23.46 3.96 15.95 3.96 15.95 0 13.95 0 13.95 3.96 6.43 3.96 6.43 0 4.43 0 4.43 3.96 0 3.96 0 5.96 4.43 5.96 4.43 13.47 0 13.47 0 15.47 4.43 15.47 4.43 22.98 0 22.98 0 24.98 4.43 24.98 4.43 29.21 6.43 29.21 6.43 24.98 13.94 24.98 13.94 29.21 15.94 29.21 15.94 24.98 23.45 24.98 23.45 29.21 25.45 29.21 25.45 24.98 29.21 24.98 29.21 22.99ZM15.94 13.48 15.94 5.96 23.45 5.96 23.45 13.47 15.94 13.47ZM13.94 13.48 6.43 13.48 6.43 5.96 13.94 5.96 13.94 13.48ZM13.94 15.48 13.94 22.99 6.43 22.99 6.43 15.48 13.94 15.48ZM15.94 15.48 23.45 15.48 23.45 22.99 15.94 22.99 15.94 15.48Z" class="st0 MsftOfcResponsive_Fill_7823dc" fill="#7823DC"/></g></svg>