<svg viewBox="0 0 32 32" xmlns="http://www.w3.org/2000/svg" xmlns:xlink="http://www.w3.org/1999/xlink" id="Layer_2_1_" xml:space="preserve" overflow="hidden"><path d="M32 29.4 32 32 20.4 22.8 21.6 21.2Z" fill="#7823DC"/><g><path d="M12.9 2C18.9 2 23.8 6.9 23.8 12.9 23.8 18.9 18.9 23.8 12.9 23.8 6.9 23.8 2 18.9 2 12.9 2 6.9 6.9 2 12.9 2M12.9 0C5.8 0 0 5.8 0 12.9 0 20 5.8 25.8 12.9 25.8 20 25.8 25.8 20 25.8 12.9 25.8 5.8 20 0 12.9 0L12.9 0 12.9 0 12.9 0Z" fill="#7823DC" fill-rule="evenodd" clip-rule="evenodd"/><g><g><path d="M10.7 20.6 7.4 18.7 8 16C8 15.9 7.9 15.9 7.9 15.8L5.2 14.9 5.2 11 7.8 10.1C7.8 10.1 7.8 10 7.9 10 7.9 10 7.9 9.9 8 9.9L7.4 7.2 10.7 5.3 12.8 7.1C12.9 7.1 13 7.1 13.1 7.1L15.2 5.3 18.5 7.2 17.9 9.9C17.9 10 18 10 18 10.1L20.6 11 20.6 14.8 18 15.7C18 15.7 18 15.8 17.9 15.8L17.9 15.8C17.9 15.8 17.9 15.9 17.8 15.9L18.4 18.6 15.1 20.5 13 18.7C12.9 18.7 12.8 18.7 12.7 18.7L10.7 20.6 10.7 20.6 10.7 20.6ZM9.3 17.8 10.5 18.5 12.2 17 12.6 17C12.8 17 13.1 17 13.3 17L13.7 17 15.4 18.5 16.6 17.8 16 15.5 16.2 15.2C16.3 15.1 16.3 15 16.4 14.9 16.5 14.8 16.5 14.7 16.6 14.6L16.8 14.3 18.9 13.6 18.9 12.3 16.8 11.6 16.6 11.3C16.5 11.1 16.4 10.9 16.2 10.7L16 10.3 16.5 8 15.4 7.4 13.7 8.9 13.3 8.9C13.1 8.9 12.8 8.9 12.6 8.9L12.2 8.9 10.5 7.4 9.3 8.1 9.8 10.3 9.6 10.6C9.5 10.7 9.5 10.8 9.4 10.9 9.3 11 9.3 11.1 9.2 11.2L9 11.5 6.9 12.2 6.9 13.5 9 14.3 9.2 14.6C9.3 14.8 9.4 15 9.6 15.2L9.8 15.5 9.3 17.8 9.3 17.8 9.3 17.8Z" fill="#7823DC"/></g></g><circle cx="12.9" cy="12.9" r="1.5" fill="#7823DC"/></g></svg>