<svg viewBox="0 0 32 32" xmlns="http://www.w3.org/2000/svg" xmlns:xlink="http://www.w3.org/1999/xlink" id="a" overflow="hidden"><style>
.MsftOfcResponsive_Fill_7823dc {
 fill:#7823DC; 
}
</style>
<g><path d="M2 6.78 7.55 11 2 15.22 2 6.78M0 2.75 0 19.25 10.85 11 0 2.75 0 2.75Z" class="MsftOfcResponsive_Fill_7823dc" fill="#7823DC"/><path d="M21.98 2.53 29.54 8.44C29.27 9.26 29.13 10.13 29.13 11 29.13 11.87 29.27 12.74 29.54 13.56L21.98 19.47 10.84 11 21.98 2.53M22 0 7.54 11 22 22 32 14.18C31.45 13.26 31.13 12.17 31.13 11 31.13 9.83 31.45 8.74 32 7.82L22 0 22 0Z" class="MsftOfcResponsive_Fill_7823dc" fill="#7823DC"/></g><g><path d="M3.98 25.33 4.94 26 3.98 26.67 3.98 25.34M1.98 21.51 1.98 30.51 8.43 26.01 1.98 21.5 1.98 21.5Z" class="MsftOfcResponsive_Fill_7823dc" fill="#7823DC"/><path d="M13.43 22.45 16.98 24.99C16.91 25.32 16.88 25.66 16.88 26 16.88 26.34 16.91 26.68 16.98 27.01L13.43 29.55 8.34 26 13.43 22.45M13.45 20 4.85 26 13.45 32 19.4 27.73C19.07 27.23 18.88 26.64 18.88 26 18.88 25.36 19.07 24.77 19.4 24.27L13.45 20 13.45 20Z" class="MsftOfcResponsive_Fill_7823dc" fill="#7823DC"/></g><path d="M15.56 1.01 11.11 4.27 11.1 4.28 11.11 4.29 15.93 6.99 20.27 3.72 15.56 1.01 15.56 1.01Z" class="MsftOfcResponsive_Fill_7823dc" fill="#7823DC"/><path d="M13.06 27.13 9.29 27.17 7.22 30.4 7.22 30.41 7.23 30.41 11.07 30.33 13.06 27.13 13.06 27.13Z" class="MsftOfcResponsive_Fill_7823dc" fill="#7823DC"/><path d="M13.43 18.72 12.66 16.86 19.44 9.61 24.92 14.09 13.42 18.72ZM19.63 12.34 17.04 15.11 21.05 13.5 19.63 12.34Z" class="MsftOfcResponsive_Fill_7823dc" fill="#7823DC"/><circle cx="25" cy="7" r="1" class="MsftOfcResponsive_Fill_7823dc" fill="#7823DC"/><circle cx="14.4" cy="25" r="1" class="MsftOfcResponsive_Fill_7823dc" fill="#7823DC"/></svg>