<svg width="32" height="32" viewBox="0 0 32 32" xmlns="http://www.w3.org/2000/svg" xmlns:xlink="http://www.w3.org/1999/xlink" overflow="hidden"><defs></defs><g><path d="M16 32C7.2 32 0 24.8 0 16 0 7.2 7.2 0 16 0 24.8 0 32 7.2 32 16 32 24.8 24.8 32 16 32ZM16 2C8.3 2 2 8.3 2 16 2 23.7 8.3 30 16 30 23.7 30 30 23.7 30 16 30 8.3 23.7 2 16 2Z" fill="#7823DC"/><g><path d="M16.9 20.5 9 20.5 9 19.9 16.2 8.1 18.8 8.1 18.8 19 21 19 21 20.6 18.8 20.6 18.8 23.9 16.9 23.9 16.9 20.5ZM16.9 19 16.9 9.5 11.5 19 16.9 19Z" fill="#7823DC"/></g></g></svg>