<svg viewBox="0 0 32 32" xmlns="http://www.w3.org/2000/svg" xmlns:xlink="http://www.w3.org/1999/xlink" id="Layer_1" xml:space="preserve" overflow="hidden"><path d="M25.9 5.7 25.9 5.7C25.4 5.1 24.8 4.7 24 4.5 23.9 4.5 23.8 4.5 23.7 4.5L20.3 4C20.2 4 20.1 4 20 4L19.9 4C19.2 4 18.5 4.2 17.9 4.7L17.9 4.7C16.8 5.5 15.9 6.9 15.5 8.7L13.9 17 13.5 19 13.3 20 13.1 20.8 12.8 22 12.6 21.8C13.3 21.8 14 21.8 14.6 21.8L14.8 22 15 20.8 15.2 20 15.4 19 15.8 17 17.4 9.1C17.9 7.2 19.1 6 20 6L20.1 6 23.5 6.4C24.4 6.5 25.3 8 25.2 10.1L24.8 17.3 24.7 19.3 24.7 19.9 24.7 20.4 24.5 22 24.5 22.5C25.2 22.4 25.9 22.4 26.5 22.3L26.5 22 26.6 20.3 26.6 20.3 26.6 20.1 26.6 19.7 26.7 17.7 27.1 10.4C27.3 8.4 26.8 6.8 25.9 5.7Z" fill="#7823DC"/><path d="M25.9 5.8 23.9 5.5 24.3 2.5 20.3 2 19.9 5 17.9 4.7 18.3 1.5C18.4 0.5 19.4-0.2 20.5 0L24.5 0.5C25.6 0.6 26.4 1.6 26.3 2.5L25.9 5.8Z" fill="#7823DC"/><path d="M26.8 17.6C26.2 17.5 25.5 17.4 24.8 17.4L24.7 19.4C25.4 19.5 26.1 19.5 26.7 19.6 27.5 19.7 28.2 19.8 28.8 19.9 28.7 19.9 28.6 19.9 28.4 20 27.9 20.1 27.3 20.2 26.7 20.3 26.1 20.4 25.4 20.4 24.7 20.5L24.6 20.5C24 20.6 23.3 20.6 22.6 20.7 22.4 20.7 22.1 20.7 21.9 20.7 20.2 20.8 18.3 20.9 16.2 20.9 15.9 20.9 15.6 20.9 15.3 20.9L15.3 20.9C14.6 20.9 14 20.9 13.3 20.9L13.3 20.9C12.3 20.9 11.5 20.8 10.6 20.8 10.3 20.8 10 20.8 9.7 20.8 8.9 20.8 8.2 20.7 7.5 20.6 6 20.5 4.8 20.3 3.9 20.1 3.8 20.1 3.6 20.1 3.5 20 4.4 19.8 5.6 19.6 7.1 19.5 7.7 19.4 8.4 19.4 9.2 19.3 10.5 19.2 12 19.1 13.7 19.1 14.4 19.1 14 19.1 14.7 19.1L15.1 17.1C14.4 17.1 14.7 17.1 14.1 17.1 12.2 17.1 10.3 17.2 8.5 17.3 7.8 17.4 7.1 17.4 6.4 17.5 2.6 17.8 0 18.6 0 19.9 0 19.9 0 19.9 0 20L0 20.1 0 20.1C0.3 21 1.6 21.6 3.6 22 4.9 22.3 6.4 22.4 8 22.6 8.7 22.7 9.4 22.7 10.2 22.7 11 22.7 11.9 22.8 12.7 22.8 13.4 22.8 14.1 22.8 14.7 22.8 15.1 22.8 15.6 22.8 16 22.8 18.8 22.8 21.8 22.7 24.5 22.5 25.2 22.4 25.9 22.4 26.5 22.3 27.2 22.2 27.8 22.1 28.4 22 30.4 21.6 31.7 21 31.9 20.2L31.9 20.2 31.9 20.1C31.9 20.1 31.9 20.1 31.9 20 32 18.7 29.8 18 26.8 17.6Z" fill="#7823DC"/><path d="M0 20 0 20.1 0 20.1 3 32 5 32 2.4 21.5" fill="#7823DC"/><path d="M32 20.2 29.1 32 27.1 32 29.6 21.5" fill="#7823DC"/><g><path d="M4.3 2.5 5.9 7 3.8 7.8 2.2 3.3 4.3 2.5M5.6 0 0.8 1.7C0.2 1.9-0.1 2.5 0.1 3.1L2.6 10.3 8.5 8.3 5.6 0 5.6 0Z" fill="#7823DC"/><path d="M8.6 21.8 6.7 22.4 0.8 5.3 2.7 4.7Z" fill="#7823DC"/></g></svg>