<svg viewBox="0 0 32 32" xmlns="http://www.w3.org/2000/svg" xmlns:xlink="http://www.w3.org/1999/xlink" xml:space="preserve" overflow="hidden"><style>
.MsftOfcResponsive_Fill_7823dc {
 fill:#7823DC; 
}
</style>
<g id="Layer_3"></g><g id="Layer_1"><path d="M15.92 31.95C11.84 31.95 7.98 30.58 5.02 28.06 1.92 25.43 0.17 21.87 0.08 18.03 0.02 15.55 0.94 13.19 2.65 11.4 4.37 9.6 6.68 8.58 9.16 8.53L12.09 8.46C12.91 8.44 13.56 7.76 13.55 6.94 13.54 6.57 13.41 6.23 13.16 5.96 12.57 5.35 12.23 4.52 12.21 3.65 12.17 1.73 13.7 0.13 15.62 0.08 15.74 0.08 15.87 0.08 15.99 0.08 24.61 0.08 31.72 6.99 31.92 15.65 32.02 19.9 30.45 23.94 27.51 27.02 24.57 30.1 20.61 31.85 16.35 31.94 16.19 31.95 16.05 31.95 15.92 31.95ZM15.98 2.08C15.87 2.08 15.76 2.08 15.65 2.08 14.83 2.1 14.18 2.78 14.2 3.6 14.21 3.98 14.35 4.32 14.6 4.58 15.19 5.22 15.52 6.03 15.54 6.89 15.56 7.82 15.22 8.71 14.58 9.38 13.94 10.05 13.07 10.44 12.13 10.46L9.2 10.53C7.25 10.57 5.44 11.38 4.09 12.79 2.74 14.2 2.03 16.05 2.07 18 2.14 21.26 3.65 24.29 6.3 26.55 8.99 28.83 12.49 30.04 16.28 29.96 20 29.88 23.47 28.35 26.04 25.66 28.61 22.97 29.98 19.44 29.9 15.72 29.82 12 28.29 8.53 25.6 5.96 22.98 3.44 19.58 2.08 15.98 2.08Z" class="MsftOfcResponsive_Fill_7823dc" fill="#7823DC"/><path d="M24.9 20.15C23.01 20.15 21.46 18.64 21.41 16.74 21.37 14.82 22.9 13.22 24.82 13.17L24.82 13.17C25.78 13.14 26.64 13.49 27.31 14.13 27.98 14.77 28.37 15.64 28.39 16.58 28.43 18.5 26.9 20.1 24.98 20.15 24.96 20.15 24.93 20.15 24.9 20.15ZM24.91 15.17C24.9 15.17 24.89 15.17 24.87 15.17L24.87 15.17C24.05 15.19 23.4 15.87 23.42 16.69 23.44 17.5 24.1 18.15 24.91 18.15 24.92 18.15 24.93 18.15 24.94 18.15 25.76 18.13 26.41 17.45 26.4 16.63 26.39 16.23 26.23 15.86 25.94 15.59 25.66 15.32 25.29 15.17 24.91 15.17Z" class="MsftOfcResponsive_Fill_7823dc" fill="#7823DC"/><path d="M20.54 27.28C19.64 27.28 18.78 26.94 18.13 26.31 17.46 25.67 17.07 24.8 17.05 23.86 17.01 21.94 18.54 20.34 20.46 20.29L20.46 20.29C21.42 20.28 22.28 20.61 22.95 21.25 23.62 21.89 24.01 22.76 24.03 23.7 24.07 25.62 22.54 27.22 20.62 27.27 20.59 27.28 20.57 27.28 20.54 27.28ZM20.51 22.3C19.69 22.32 19.04 23 19.06 23.82 19.07 24.22 19.23 24.59 19.52 24.86 19.81 25.14 20.18 25.3 20.58 25.27 21.4 25.25 22.05 24.57 22.04 23.75 22.02 22.94 21.36 22.29 20.55 22.29 20.53 22.3 20.52 22.3 20.51 22.3L20.51 22.3Z" class="MsftOfcResponsive_Fill_7823dc" fill="#7823DC"/><path d="M12.03 27.8C10.14 27.8 8.58 26.29 8.54 24.39 8.5 22.47 10.03 20.87 11.95 20.82 12.89 20.81 13.77 21.14 14.44 21.78 15.11 22.42 15.5 23.29 15.52 24.23 15.56 26.15 14.03 27.75 12.11 27.8 12.08 27.8 12.05 27.8 12.03 27.8ZM12.03 22.82C12.02 22.82 12.01 22.82 11.99 22.82 11.17 22.84 10.52 23.52 10.53 24.34 10.55 25.15 11.21 25.8 12.02 25.8 12.03 25.8 12.04 25.8 12.05 25.8 12.87 25.78 13.52 25.1 13.5 24.28 13.49 23.88 13.33 23.51 13.04 23.24 12.78 22.97 12.41 22.82 12.03 22.82Z" class="MsftOfcResponsive_Fill_7823dc" fill="#7823DC"/><path d="M7.05 21.15C5.16 21.15 3.61 19.64 3.56 17.74 3.52 15.82 5.05 14.22 6.97 14.17L6.97 14.17C8.87 14.1 10.49 15.66 10.54 17.58 10.56 18.51 10.22 19.4 9.58 20.07 8.94 20.74 8.07 21.13 7.13 21.15 7.1 21.15 7.07 21.15 7.05 21.15ZM7.02 16.17 7.02 16.17C6.2 16.19 5.55 16.87 5.56 17.69 5.58 18.5 6.24 19.15 7.05 19.15 7.06 19.15 7.07 19.15 7.08 19.15 7.48 19.14 7.85 18.98 8.12 18.69 8.39 18.4 8.54 18.02 8.53 17.63 8.52 16.81 7.83 16.19 7.02 16.17Z" class="MsftOfcResponsive_Fill_7823dc" fill="#7823DC"/></g><g id="Layer_2"></g><g id="Layer_4"></g><g id="Layer_5"></g></svg>