<svg viewBox="0 0 32 32" xmlns="http://www.w3.org/2000/svg" xmlns:xlink="http://www.w3.org/1999/xlink" id="Layer_1" overflow="hidden"><style>
.MsftOfcResponsive_Fill_7823dc {
 fill:#7823DC; 
}
</style>
<path d="M30 7.5 30 24.5 8.3 24.5 2.4 16 8.2 7.5 30 7.5M32 5.5 7.2 5.5 0 16 7.2 26.5 32 26.5 32 5.5 32 5.5Z" class="MsftOfcResponsive_Fill_7823dc" fill="#7823DC"/><path d="M25 23 22.8 23 21.1 19 20.2 17 17.7 11 16 11 13.4 17 12.6 19 10.9 23 8.7 23 14.7 9 19 9Z" class="MsftOfcResponsive_Fill_7823dc" fill="#7823DC"/><rect x="12.3" y="17" width="9" height="2" class="MsftOfcResponsive_Fill_7823dc" fill="#7823DC"/><g><rect x="25" y="8.8" width="2" height="6" class="MsftOfcResponsive_Fill_7823dc" fill="#7823DC"/><rect x="23" y="10.8" width="6" height="2" class="MsftOfcResponsive_Fill_7823dc" fill="#7823DC"/></g></svg>