<svg viewBox="0 0 32 32" xmlns="http://www.w3.org/2000/svg" xmlns:xlink="http://www.w3.org/1999/xlink" id="Graphic" overflow="hidden"><style>
.MsftOfcResponsive_Fill_7823dc {
 fill:#7823DC; 
}
</style>
<defs></defs><path d="M29.3988 18.1024 20.8 20.8127 20.8 17.3518 18.5762 17.6022 15.3032 17.9707 10.1393 16.1265 9.30409 15.8282 8.52223 16.247 5.29292 17.977 0 17.977 0 28.01 5.32281 28.01 15.1631 32 30.9445 23.7729 32 23.2074 32 17.2826ZM30 22.01 15.0667 29.7828 5.73334 26.01 2 26.01 2 19.977 5.79486 19.977 9.46667 18.01 15.0667 20.01 18.8 19.5896 18.8 21.5896 17.7167 21.9408 13.9537 22.7024 13.9537 24.5582 17.9065 23.8302 17.9072 23.8214 30 20.01Z" class="MsftOfcResponsive_Fill_7823dc" fill="#7823DC"/><path d="M19.5202 11.5684C18.9471 12.449 17.9857 13.0005 16.9362 13.0508 14.8547 13.042 13.1633 10.5664 13.1633 7.52539 13.1633 4.47852 14.8615 2.001 16.924 2 17.9779 2.0468 18.9444 2.59917 19.5197 3.4834L19.6867 3.74121 22.0305 3.74121 21.5075 2.88184C20.6055 1.18156 18.8713 0.0853366 16.9484-9.38415e-09 13.7585 0 11.1633 3.376 11.1633 7.52539 11.1633 11.6748 13.7585 15.0518 16.9484 15.0518 18.8724 14.9706 20.6079 13.8721 21.5046 12.168L22.0207 11.3106 19.6872 11.3106Z" class="MsftOfcResponsive_Fill_7823dc" fill="#7823DC"/><rect x="8.98795" y="4.00488" width="8.09033" height="2.00098" class="MsftOfcResponsive_Fill_7823dc" fill="#7823DC"/><rect x="8.98795" y="7.99325" width="8.09033" height="2.00098" class="MsftOfcResponsive_Fill_7823dc" fill="#7823DC"/></svg>