<svg width="36.5" height="36.6" viewBox="0 0 36.5 36.6" xmlns="http://www.w3.org/2000/svg" xmlns:xlink="http://www.w3.org/1999/xlink" overflow="hidden"><defs></defs><g><g><defs><path d="M0 36.5 36.5 36.5 36.5 0 0 0 0 36.5Z" id="SVGID_1_" fill="#7823DC"/></defs><clipPath id="SVGID_2_"><use width="100%" height="100%" xlink:href="#SVGID_1_"></use></clipPath><g clip-path="url(#SVGID_2_)"><defs><path d="M0 36.5 36.5 36.5 36.5 0 0 0 0 36.5Z" id="SVGID_3_" fill="#7823DC"/></defs><clipPath id="SVGID_4_"><use width="100%" height="100%" xlink:href="#SVGID_3_"></use></clipPath><path d="M11.3 29.7 5.5 0 0 0 0 2.3 3.6 2.3 9 29.7 11.3 29.7 11.3 29.7Z" fill="#7823DC" clip-path="url(#SVGID_4_)"/><path d="M33 29.7 9 29.7 9 27.4 32.8 27.4 33 29.7 33 29.7Z" fill="#7823DC" clip-path="url(#SVGID_4_)"/><path d="M7 13.7 35.1 13.7 35.1 16 7 16 7 13.7Z" fill="#7823DC" clip-path="url(#SVGID_4_)"/><path d="M7.4 18.3 34.6 18.3 34.6 20.6 7.4 20.6 7.4 18.3Z" fill="#7823DC" clip-path="url(#SVGID_4_)"/><path d="M8.3 22.9 33.1 22.9 33.1 25.1 8.3 25.1 8.3 22.9Z" fill="#7823DC" clip-path="url(#SVGID_4_)"/><path d="M32.8 9.1 6.5 9.1 7.4 11.4 34.7 11.4 30.8 29.2 33 29.7 36.5 13.7 32.8 9.1 32.8 9.1Z" fill="#7823DC" clip-path="url(#SVGID_4_)"/><path d="M13.7 36.6C11.8 36.6 10.3 35.1 10.3 33.2 10.3 31.3 11.8 29.8 13.7 29.8 15.6 29.8 17.1 31.3 17.1 33.2 17.1 35 15.6 36.6 13.7 36.6ZM13.7 32C13.1 32 12.6 32.5 12.6 33.1 12.6 33.7 13.1 34.2 13.7 34.2 14.3 34.2 14.8 33.7 14.8 33.1 14.8 32.5 14.3 32 13.7 32Z" fill="#7823DC" clip-path="url(#SVGID_4_)"/><path d="M27.4 36.6C25.5 36.6 24 35.1 24 33.2 24 31.3 25.5 29.8 27.4 29.8 29.3 29.8 30.8 31.3 30.8 33.2 30.8 35 29.3 36.6 27.4 36.6ZM27.4 32C26.8 32 26.3 32.5 26.3 33.1 26.3 33.7 26.8 34.2 27.4 34.2 28 34.2 28.5 33.7 28.5 33.1 28.5 32.5 28 32 27.4 32Z" fill="#7823DC" clip-path="url(#SVGID_4_)"/></g></g></g></svg>