<svg viewBox="0 0 31.98 32" xmlns="http://www.w3.org/2000/svg" xmlns:xlink="http://www.w3.org/1999/xlink" id="Layer_1" overflow="hidden"><style>
.MsftOfcResponsive_Fill_7823dc {
 fill:#7823DC; 
}
</style>
<defs></defs><path d="M15.18 8.72 6.98 0.21 0 7.46 0 31.16 6.98 23.91 14.78 32.01 31.97 23.09 31.97 0 15.18 8.72ZM7.98 4.18 13.98 10.41 13.98 28.23 7.98 22 7.98 4.18ZM2 8.32 5.98 4.18 5.98 22 2 26.14 2 8.32ZM29.98 21.8 15.98 29.07 15.98 10.62 29.98 3.35 29.98 21.79Z" class="MsftOfcResponsive_Fill_7823dc" fill="#7823DC"/><rect x="22.45" y="11.22" width="2" height="9.54" class="MsftOfcResponsive_Fill_7823dc" fill="#7823DC" transform="matrix(0.413104 -0.910684 0.910684 0.413104 -0.8 30.74)"/><rect x="22.43" y="10.01" width="2" height="12" class="MsftOfcResponsive_Fill_7823dc" fill="#7823DC" transform="matrix(0.910684 0.413104 -0.413104 0.910684 8.71 -8.25)"/></svg>