<svg viewBox="0 0 32 32" xmlns="http://www.w3.org/2000/svg" xmlns:xlink="http://www.w3.org/1999/xlink" id="Layer_1" overflow="hidden"><g><defs><path d="M-0.8 32 32 32 32-0.8-0.8-0.8-0.8 32Z" id="SVGID_1_" fill="#7823DC"/></defs><defs><path d="M-0.8-0.8 32-0.8 32 32-0.8 32-0.8-0.8Z" id="SVGID_00000062193994235167683820000014886766538298818446_" fill="#7823DC"/></defs><clipPath id="SVGID_00000150083616347681231970000016518028555517726344_"><use width="100%" height="100%" xlink:href="#SVGID_1_" overflow="visible"></use></clipPath><clipPath id="SVGID_00000145738009587476528720000006038624581011999633_" clip-path="url(#SVGID_00000150083616347681231970000016518028555517726344_)"><use width="100%" height="100%" xlink:href="#SVGID_00000062193994235167683820000014886766538298818446_" overflow="visible"></use></clipPath><g clip-path="url(#SVGID_00000145738009587476528720000006038624581011999633_)"><defs><path d="M-0.8 32 32 32 32-0.8-0.8-0.8-0.8 32Z" id="SVGID_00000053537516912835799160000004633108422033486217_" fill="#7823DC"/></defs><clipPath id="SVGID_00000060023119857247532320000010377642123423439037_"><use width="100%" height="100%" xlink:href="#SVGID_00000053537516912835799160000004633108422033486217_" overflow="visible"></use></clipPath><path d="M29.4 18.1 20.8 20.8 20.8 17.4 18.6 17.6 15.3 18 10.1 16.2 9.3 15.9 8.5 16.3 5.3 18 0 18 0 27.9 5.3 27.9 15.1 31.8 30.9 23.7 32 23.1 32 17.2 29.4 18.1 29.4 18.1ZM30 22 15.1 29.7 5.8 26 2 26 2 20 5.8 20 9.5 18 15.1 20 18.8 19.6 18.8 21.6 17.7 21.9 14 22.6 14 24.4 18 23.7 18 23.7 30 20 30 22 30 22Z" fill="#7823DC" clip-path="url(#SVGID_00000060023119857247532320000010377642123423439037_)"/></g></g><rect x="13" y="1.4" width="2" height="12.2" fill="#7823DC"/><path d="M16.5 8.5 13.6 8.5 13.6 6.5 16.5 6.5C17.8 6.5 19 5.7 19 4.6L19 4.2C19 3.3 18 2.6 16.8 2.6L12 2.6 12 0.6 16.8 0.6C19.1 0.6 21 2.2 21 4.2L21 4.6C21 6.8 19 8.5 16.5 8.5Z" fill="#7823DC"/><path d="M16.8 14.5 12 14.5 12 12.5 16.8 12.5C18 12.5 19 11.8 19 10.9L19 10.5C19 9.5 17.9 8.6 16.5 8.6L13.6 8.6 13.6 6.6 16.5 6.6C19 6.6 21 8.3 21 10.5L21 10.9C21 12.8 19.1 14.5 16.8 14.5Z" fill="#7823DC"/><rect x="13.5" y="0" width="2" height="1.6" fill="#7823DC"/><rect x="17" y="0" width="2" height="1.6" fill="#7823DC"/><rect x="13.5" y="13.5" width="2" height="1.6" fill="#7823DC"/><rect x="17" y="13.5" width="2" height="1.6" fill="#7823DC"/></svg>