<svg viewBox="0 0 32 32" xmlns="http://www.w3.org/2000/svg" xmlns:xlink="http://www.w3.org/1999/xlink" id="Graphic" overflow="hidden"><defs></defs><rect x="15" y="6" width="2" height="26.02" fill="#7823DC"/><rect x="12" y="30.02" width="8" height="2" fill="#7823DC"/><rect x="10" y="8.02" width="12" height="2" fill="#7823DC"/><rect x="10" y="16.02" width="12" height="2" fill="#7823DC"/><path d="M3.64 16.4C1.55789 14.4519 1.44604 11.1859 3.39 9.1 3.57639 8.90173 3.78058 8.72097 4 8.56L4 6.2C0.453511 7.92399-1.02392 12.1966 0.700068 15.743 1.08748 16.54 1.61986 17.2579 2.27 17.86 2.78591 18.325 3.36917 18.7094 4 19L4 16.68C3.88 16.59 3.75 16.5 3.64 16.4Z" fill="#7823DC"/><path d="M28.36 16.4C30.4428 14.5121 30.6008 11.2931 28.7129 9.21031 28.4964 8.97145 28.2577 8.7537 28 8.56L28 6.2C28.7777 6.57923 29.4793 7.0978 30.07 7.73 32.7691 10.6245 32.6125 15.1587 29.72 17.86 29.2076 18.3248 28.6277 18.7092 28 19L28 16.68Z" fill="#7823DC"/><path d="M10 2 10 26 8 26 8 2 10 2M12 0 6 0 6 28 12 28 12 0Z" fill="#7823DC"/><path d="M24 2 24 26 22 26 22 2 24 2M26 0 20 0 20 28 26 28 26 0Z" fill="#7823DC"/></svg>