<svg viewBox="0 0 31.89 32" xmlns="http://www.w3.org/2000/svg" xmlns:xlink="http://www.w3.org/1999/xlink" id="Layer_1" overflow="hidden"><style>
.MsftOfcResponsive_Fill_7823dc {
 fill:#7823DC; 
}
</style>
<defs></defs><path d="M17.04 20.77 17.04 18.77 14.98 18.77 15.04 20.77 17.04 20.77Z" class="MsftOfcResponsive_Fill_7823dc" fill="#7823DC"/><path d="M15.04 24.21 17.04 24.21 17.04 22.21 14.98 22.21 15.04 24.21Z" class="MsftOfcResponsive_Fill_7823dc" fill="#7823DC"/><path d="M26.29 28.19 23.9 28.19 21.39 16.14 21.39 11.21 19.39 11.21 19.39 15.08 10.92 15.08 7.76 28.14 5.74 28.14-0.01 30.11 0.64 32 6.07 30.13 13.55 30.13 13.55 31.99 15.55 31.99 15.55 27.56 16.43 27.56 16.43 31.99 18.43 31.99 18.43 30.13 25.8 30.13 31.25 31.91 31.87 30.01 26.27 28.18ZM13.57 25.57 13.57 28.14 9.83 28.14 12.5 17.08 19.57 17.08 21.86 28.17 18.45 28.15 18.45 25.57 13.57 25.57Z" class="MsftOfcResponsive_Fill_7823dc" fill="#7823DC"/><rect x="26.69" y="7.23" width="2" height="4.32" class="MsftOfcResponsive_Fill_7823dc" fill="#7823DC" transform="matrix(0.292372 -0.956305 0.956305 0.292372 10.62 33.13)"/><rect x="25.53" y="0.59" width="4.32" height="2" class="MsftOfcResponsive_Fill_7823dc" fill="#7823DC" transform="matrix(0.956305 -0.292372 0.292372 0.956305 0.75 8.17)"/><rect x="25.95" y="4.49" width="4.33" height="2" class="MsftOfcResponsive_Fill_7823dc" fill="#7823DC"/><rect x="2" y="8.39" width="4.33" height="2" class="MsftOfcResponsive_Fill_7823dc" fill="#7823DC" transform="matrix(0.956305 -0.292372 0.292372 0.956305 -2.56 1.63)"/><rect x="3.16" y="-0.57" width="2" height="4.33" class="MsftOfcResponsive_Fill_7823dc" fill="#7823DC" transform="matrix(0.292372 -0.956305 0.956305 0.292372 1.43 5.11)"/><rect x="1.58" y="4.49" width="4.32" height="2" class="MsftOfcResponsive_Fill_7823dc" fill="#7823DC"/><path d="M10.72 13.25 12.72 13.25 12.72 9.41 22.97 9.41 22.97 7.41 21.29 7.41 21.29 7.2C21.29 4.63 19.44 2.49 17.01 2.02L17.01 0.04 15.01 0.04 15.01 2.03C12.57 2.5 10.73 4.64 10.73 7.21L10.73 7.42 9.05 7.42 9.05 9.42 10.73 9.42 10.73 13.26ZM12.72 7.21C12.72 5.4 14.19 3.93 16 3.93 17.81 3.93 19.28 5.4 19.28 7.21L19.28 7.42 12.71 7.42 12.71 7.21Z" class="MsftOfcResponsive_Fill_7823dc" fill="#7823DC"/></svg>