<svg viewBox="0 0 32 32" xmlns="http://www.w3.org/2000/svg" xmlns:xlink="http://www.w3.org/1999/xlink" overflow="hidden"><g><g id="Layer_2" display="none"><image width="225" height="225" xlink:href="5514D98B.jpg" overflow="visible" transform="matrix(0.177 0 0 0.1956 -4 -6)"></image></g><g id="Layer_1"><path d="M30 29 30 30 2 30 2 29 30 29M32 27 0 27 0 32 32 32 32 27 32 27Z" fill="#7823DC"/><path d="M29 28 27 28 27 2 2 2 2 10 8.5 10 11 7 21 7 21 20 19 20 19 9 12 9 9.5 12 0 12 0 0 29 0Z" fill="#7823DC"/><path d="" stroke="#F400B2" stroke-width="2" stroke-miterlimit="10" fill="#7823DC"/><rect x="3.1" y="20" width="24.9" height="2" fill="#7823DC"/><path d="M8 16 1 16 1 11 3 11 3 14 6 14 6 11 8 11Z" fill="#7823DC"/><rect x="4" y="7" width="10" height="2" fill="#7823DC"/><path d="M32 14 28 14 28 12 30 12 30 9 28 9 28 7 32 7Z" fill="#7823DC"/><rect x="3" y="23" width="2" height="5" fill="#7823DC"/><rect x="3.5" y="15" width="2" height="3" fill="#7823DC"/></g></g></svg>