<svg viewBox="0 0 32.01 32" xmlns="http://www.w3.org/2000/svg" xmlns:xlink="http://www.w3.org/1999/xlink" id="Layer_1" overflow="hidden"><style>
.MsftOfcResponsive_Fill_7823dc {
 fill:#7823DC; 
}
</style>
<defs></defs><path d="M32.01 18 0 18 0 0.06 2 0.06 2 8 32 8 32 18ZM2.01 16 30.01 16 30.01 10 2.01 10 2.01 16Z" class="MsftOfcResponsive_Fill_7823dc" fill="#7823DC"/><path d="M4.01 32C1.8 32 0 30.21 0 28 0 25.79 1.79 24 4 24 6.21 24 8 25.79 8 28 8 30.21 6.21 32 4 32ZM4.01 26C2.91 26 2.01 26.9 2.01 28 2.01 29.1 2.91 30 4.01 30 5.11 30 6.01 29.1 6.01 28 6.01 26.9 5.11 26 4.01 26Z" class="MsftOfcResponsive_Fill_7823dc" fill="#7823DC"/><rect x="5.83" y="21.5" width="26.95" height="2" class="MsftOfcResponsive_Fill_7823dc" fill="#7823DC" transform="matrix(0.912905 -0.408171 0.408171 0.912905 -7.5 9.84)"/><path d="M28.01 32C25.8 32 24.01 30.21 24.01 28 24.01 25.79 25.8 24 28.01 24 30.22 24 32.01 25.79 32.01 28 32.01 30.21 30.22 32 28.01 32ZM28.01 26C26.91 26 26.01 26.9 26.01 28 26.01 29.1 26.91 30 28.01 30 29.11 30 30.01 29.1 30.01 28 30.01 26.9 29.11 26 28.01 26Z" class="MsftOfcResponsive_Fill_7823dc" fill="#7823DC"/><rect x="11.71" y="9.03" width="2" height="26.95" class="MsftOfcResponsive_Fill_7823dc" fill="#7823DC" transform="matrix(0.408171 -0.912905 0.912905 0.408171 -13.02 24.91)"/><rect x="30.01" y="4.02" width="2" height="4.75" class="MsftOfcResponsive_Fill_7823dc" fill="#7823DC"/><path d="M12.12 9 10.12 9C10.12 5.14 6.98 2 3.12 2L1.01 2 1.01 0 3.13 0C8.09 0 12.13 4.04 12.13 9Z" class="MsftOfcResponsive_Fill_7823dc" fill="#7823DC"/></svg>