<svg width="32" height="32.2" viewBox="0 0 32 32.2" xmlns="http://www.w3.org/2000/svg" xmlns:xlink="http://www.w3.org/1999/xlink" overflow="visible"><defs></defs><g><g><path d="M17 3.6 18.8 5.5 18.8 2.8 16 0 13.2 2.8 13.2 5.4 15 3.6" fill="#7823DC" fill-rule="evenodd" clip-rule="evenodd"/></g></g><path d="M4.8 15.4C6.4 15.4 7.6 16.7 7.6 18.2 7.6 19.8 6.3 21 4.8 21 3.3 21 2 19.8 2 18.2 2 16.6 3.3 15.4 4.8 15.4M4.8 13.4C2.1 13.4 0 15.6 0 18.2 0 20.8 2.2 23 4.8 23 7.4 23 9.6 20.8 9.6 18.2 9.6 15.6 7.5 13.4 4.8 13.4L4.8 13.4Z" fill="#7823DC"/><path d="M27.2 15.4C28.8 15.4 30 16.7 30 18.2 30 19.8 28.7 21 27.2 21 25.7 21 24.4 19.7 24.4 18.2 24.3 16.6 25.6 15.4 27.2 15.4M27.2 13.4C24.5 13.4 22.4 15.6 22.4 18.2 22.4 20.8 24.6 23 27.2 23 29.8 23 32 20.8 32 18.2 32 15.6 29.8 13.4 27.2 13.4L27.2 13.4Z" fill="#7823DC"/><path d="M16 24.5C17.6 24.5 18.8 25.8 18.8 27.3 18.8 28.9 17.5 30.1 16 30.1 14.5 30.1 13.2 28.8 13.2 27.3 13.2 25.8 14.4 24.5 16 24.5M16 22.5C13.3 22.5 11.2 24.7 11.2 27.3 11.2 29.9 13.4 32.1 16 32.1 18.6 32.1 20.8 29.9 20.8 27.3 20.8 24.7 18.7 22.5 16 22.5L16 22.5Z" fill="#7823DC"/><path d="M23.9 17.9C23.8 17.9 15 15.6 15 3.2L17 3.2C17 14 24.3 15.9 24.4 16L23.9 17.9Z" fill="#7823DC"/><path d="M8.1 17.9 7.6 16C7.9 15.9 15 14 15 3.3L17 3.3C17 15.6 8.2 17.9 8.1 17.9Z" fill="#7823DC"/><rect x="15" y="3.2" width="2" height="19.8" fill="#7823DC"/></svg>