<svg viewBox="0 0 32 32" xmlns="http://www.w3.org/2000/svg" xmlns:xlink="http://www.w3.org/1999/xlink" id="Layer_1" xml:space="preserve" overflow="hidden"><g><path d="M6 8.4C5.3 8.4 4.7 7.8 4.7 7 4.7 6.3 5.3 5.6 6 5.6 6.7 5.6 7.3 6.2 7.3 7 7.3 7.8 6.7 8.4 6 8.4L6 8.4Z" fill="#7823DC" fill-rule="evenodd" clip-rule="evenodd"/><path d="M6 6.4C6.3 6.4 6.6 6.7 6.6 7.1 6.6 7.5 6.3 7.8 6 7.8 5.6 7.7 5.3 7.4 5.3 7 5.3 6.9 5.3 6.9 5.3 6.8 5.4 6.5 5.7 6.4 6 6.4M6 5C5 5 4.1 5.9 4.1 7 4.1 8.1 5 9 6 9 7 9 7.9 8.1 7.9 7L7.9 7C7.9 5.9 7 5 6 5L6 5Z" fill="#7823DC" fill-rule="evenodd" clip-rule="evenodd"/><path d="M6 3.7 7.5 5.9 4.4 5.9 6 3.7 6 3.7Z" fill="#7823DC" fill-rule="evenodd" clip-rule="evenodd"/><path d="M10 2.1 10 30 2 30 2 2.1 10 2.1M12 0 0 0 0 32.1 12 32.1 12 0 12 0 12 0Z" fill="#7823DC" fill-rule="evenodd" clip-rule="evenodd"/><path d="M18 25.2 14 25.2 14 17.7 10.9 17.7 10.9 15.6 16 15.6 16 23.1 18 23.1 18 25.2 18 25.2Z" fill="#7823DC" fill-rule="evenodd" clip-rule="evenodd"/><path d="M32 22.5 32 20.4 22.8 20.4 25.8 15.1 32 15.1 32 13 24.8 13 20.5 20.4 18 20.9 18 21.6 18 23 18 26.3 20 27.9 20 22.5 32 22.5 32 22.5Z" fill="#7823DC" fill-rule="evenodd" clip-rule="evenodd"/><path d="M32 27.9 27 27.9C26.6 26.6 25.5 25.7 24.2 25.7 22.9 25.7 21.7 26.6 21.3 27.9L20 27.9 21.2 29.2C21.4 30.9 22.9 32.2 24.5 32 25.6 31.9 26.5 31.1 27 30L32 30 32 27.9 32 27.9ZM24.2 29.9C23.6 29.9 23.2 29.4 23.2 28.8 23.2 28.2 23.6 27.7 24.2 27.7 24.8 27.7 25.2 28.2 25.2 28.8 25.2 29.3 24.8 29.8 24.3 29.9 24.3 29.9 24.3 29.9 24.2 29.9L24.2 29.9Z" fill="#7823DC" fill-rule="evenodd" clip-rule="evenodd"/><path d="M1.1 10.6 11.3 10.6 11.3 12.7 1.1 12.7 1.1 10.6Z" fill="#7823DC" fill-rule="evenodd" clip-rule="evenodd"/><path d="M4 19 8 19 8 21.1 4 21.1 4 19Z" fill="#7823DC" fill-rule="evenodd" clip-rule="evenodd"/><path d="M4 25.4 8 21.1 6.6 19.6 4 22.4 4 25.4 4 25.4Z" fill="#7823DC" fill-rule="evenodd" clip-rule="evenodd"/><path d="M8 14.7 4 19 5.4 20.5 8 17.7 8 14.7 8 14.7Z" fill="#7823DC" fill-rule="evenodd" clip-rule="evenodd"/></g></svg>