<svg width="36.5" height="36.5" viewBox="0 0 36.5 36.5" xmlns="http://www.w3.org/2000/svg" xmlns:xlink="http://www.w3.org/1999/xlink" overflow="hidden"><defs></defs><g><g><defs><path d="M0 36.5 36.5 36.5 36.5 0 0 0 0 36.5Z" id="SVGID_1_" fill="#7823DC"/></defs><clipPath id="SVGID_2_"><use width="100%" height="100%" xlink:href="#SVGID_1_"></use></clipPath><g clip-path="url(#SVGID_2_)"><defs><path d="M0 36.5 36.5 36.5 36.5 0 0 0 0 36.5Z" id="SVGID_3_" fill="#7823DC"/></defs><clipPath id="SVGID_4_"><use width="100%" height="100%" xlink:href="#SVGID_3_"></use></clipPath><path d="M25.1 16.6 34.2 16.6 34.2 25.7 32.2 25.7 32.2 28 36.5 28 36.5 18.8 32 14.3 25.1 14.3 25.1 16.6 25.1 16.6Z" fill="#7823DC" clip-path="url(#SVGID_4_)"/><path d="M4.6 28 4.6 25.7 2.3 25.7 2.3 9.8 25.1 9.8 25.1 25.7 9.2 25.7 9.2 28 27.4 28 27.4 12 22.9 7.5 0 7.5 0 28 4.6 28 4.6 28Z" fill="#7823DC" clip-path="url(#SVGID_4_)"/><path d="M29.7 21.1 35.4 21.1 35.4 23.4 29.7 23.4 29.7 21.1Z" fill="#7823DC" clip-path="url(#SVGID_4_)"/><path d="M25.1 25.7 29 25.7 29 28 25.1 28 25.1 25.7Z" fill="#7823DC" clip-path="url(#SVGID_4_)"/><path d="M30.6 30.2C28.9 30.2 27.6 28.8 27.6 27.2 27.6 25.5 29 24.2 30.6 24.2 32.2 24.2 33.6 25.6 33.6 27.2 33.6 28.9 32.2 30.2 30.6 30.2ZM30.6 26.5C30.2 26.5 29.8 26.8 29.8 27.3 29.8 27.8 30.1 28.1 30.6 28.1 31.1 28.1 31.4 27.8 31.4 27.3 31.4 26.8 31 26.5 30.6 26.5Z" fill="#7823DC" clip-path="url(#SVGID_4_)"/><path d="M6.9 30.2C5.2 30.2 3.9 28.8 3.9 27.2 3.9 25.5 5.3 24.2 6.9 24.2 8.5 24.2 9.9 25.6 9.9 27.2 9.9 28.9 8.5 30.2 6.9 30.2ZM6.9 26.5C6.5 26.5 6.1 26.8 6.1 27.3 6.1 27.8 6.5 28 6.9 28 7.3 28 7.7 27.7 7.7 27.2 7.7 26.7 7.3 26.5 6.9 26.5Z" fill="#7823DC" clip-path="url(#SVGID_4_)"/><path d="M25.2 15.8 27.4 15.8 27.4 28 25.2 28 25.2 15.8Z" fill="#7823DC" clip-path="url(#SVGID_4_)"/></g></g></g></svg>