<svg viewBox="0 0 32 32" xmlns="http://www.w3.org/2000/svg" xmlns:xlink="http://www.w3.org/1999/xlink" id="Layer_2_1_" xml:space="preserve" overflow="hidden"><style>
.MsftOfcResponsive_Fill_7823dc {
 fill:#7823DC; 
}
</style>
<g><g><g><path d="M7 26.8 21 26.8 21 28.9 7 28.9Z" class="MsftOfcResponsive_Fill_7823dc" fill="#7823DC"/></g></g></g><rect x="10.6" y="11" width="8.9" height="2" class="MsftOfcResponsive_Fill_7823dc" fill="#7823DC" transform="matrix(0.8131 -0.5821 0.5821 0.8131 -4.1839 11.0283)"/><path d="M28 26.1C29.1 26.1 30 27 30 28.1 30 29.2 29.1 30.1 28 30.1 26.9 30.1 26 29.2 26 28.1 26 27 26.9 26.1 28 26.1M28 24.1C25.8 24.1 24 25.9 24 28.1 24 30.3 25.8 32.1 28 32.1 30.2 32.1 32 30.3 32 28.1 32 25.9 30.2 24.1 28 24.1L28 24.1Z" class="MsftOfcResponsive_Fill_7823dc" fill="#7823DC"/><path d="M4 26C5.1 26 6 26.9 6 28 6 29.1 5.1 30 4 30 2.9 30 2 29.1 2 28 2 26.9 2.9 26 4 26M4 24C1.8 24 0 25.8 0 28 0 30.2 1.8 32 4 32 6.2 32 8 30.2 8 28 7.9 25.8 6.2 24 4 24L4 24Z" class="MsftOfcResponsive_Fill_7823dc" fill="#7823DC"/><g><path d="M4.6 6.8 0.8 3.7 0.8 1 2.8 1 2.8 2.7 4.6 4.2 6.2 2.8 6.2 1 8.2 1 8.2 3.8Z" class="MsftOfcResponsive_Fill_7823dc" fill="#7823DC"/><path d="M8.2 11.8 6.2 11.8 6.2 10 4.5 8.6 2.8 10.1 2.8 11.8 0.8 11.8 0.8 9.1 4.5 6 8.2 9Z" class="MsftOfcResponsive_Fill_7823dc" fill="#7823DC"/><rect x="0" y="0" width="9" height="2" class="MsftOfcResponsive_Fill_7823dc" fill="#7823DC"/><rect x="0" y="10.8" width="9" height="2" class="MsftOfcResponsive_Fill_7823dc" fill="#7823DC"/></g><rect x="19.2" y="10.3" width="2" height="17.5" class="MsftOfcResponsive_Fill_7823dc" fill="#7823DC" transform="matrix(0.8059 -0.5921 0.5921 0.8059 -7.361 15.6511)"/><path d="M4.1 20.3 4.1 20.3 4 22.3 4.1 22.3C7.3 22.3 9.9 24.9 9.9 28L11.9 28C11.8 23.7 8.3 20.3 4.1 20.3Z" class="MsftOfcResponsive_Fill_7823dc" fill="#7823DC"/><path d="M22.8 21.6C20.7 23 19.3 25.4 19.3 28.1 19.3 28.4 19.3 28.6 19.3 28.9L21.3 28.9C21.3 28.6 21.2 28.4 21.2 28.1 21.2 26.6 21.8 25.2 22.7 24.2L22.7 21.6 22.8 21.6Z" class="MsftOfcResponsive_Fill_7823dc" fill="#7823DC"/><g><defs><path d="M-50.5 32-18.3 32-18.3-0.1-50.5-0.1-50.5 32Z" id="SVGID_1_" class="MsftOfcResponsive_Fill_7823dc" fill="#7823DC"/></defs><defs><path d="M-50.5-0.1-18.3-0.1-18.3 32-50.5 32-50.5-0.1Z" id="SVGID_00000138565236880382730500000010912632628478711191_" class="MsftOfcResponsive_Fill_7823dc" fill="#7823DC"/></defs><clipPath id="SVGID_00000000940360876395362090000004808623406215592605_"><use width="100%" height="100%" xlink:href="#SVGID_1_" overflow="visible"></use></clipPath><clipPath id="SVGID_00000024712771275932055530000014253950109984688573_" clip-path="url(#SVGID_00000000940360876395362090000004808623406215592605_)"><use width="100%" height="100%" xlink:href="#SVGID_00000138565236880382730500000010912632628478711191_" overflow="visible"></use></clipPath><g clip-path="url(#SVGID_00000024712771275932055530000014253950109984688573_)"><defs><path d="M-50.5 32-18.3 32-18.3-0.1-50.5-0.1-50.5 32Z" id="SVGID_00000156567647044243587710000015967860959819545476_" class="MsftOfcResponsive_Fill_7823dc" fill="#7823DC"/></defs><clipPath id="SVGID_00000018939849195545366930000010456710274291628464_"><use width="100%" height="100%" xlink:href="#SVGID_00000156567647044243587710000015967860959819545476_" overflow="visible"></use></clipPath><path d="M-32.4 22.3-32.4 20C-32 20.2-31.8 20.5-31.7 21L-31.6 21.5-29.7 21.5-29.8 20.8C-30 19.3-31 18.4-32.5 18.1L-32.5 17.2-34.4 17.2-34.4 18C-36 18.3-37.1 19.5-37.1 20.9-37.1 22.7-36.1 23.4-34.4 23.8L-34.4 26.5C-35 26.3-35.3 25.8-35.4 25.1L-35.5 24.6-37.4 24.6-37.3 25.3C-37.1 27-36 28.1-34.4 28.5L-34.4 29.4-32.5 29.4-32.5 28.6C-30.7 28.3-29.5 27.1-29.5 25.5-29.5 23.2-30.9 22.6-32.4 22.3L-32.4 22.3ZM-32.4 26.6-32.4 24.3C-31.5 24.6-31.4 24.9-31.4 25.4-31.4 26-31.8 26.4-32.4 26.6L-32.4 26.6ZM-34.4 19.9-34.4 21.8C-35.1 21.5-35.1 21.3-35.1 20.9-35.1 20.4-34.8 20.1-34.4 19.9L-34.4 19.9Z" class="MsftOfcResponsive_Fill_7823dc" fill="#7823DC" clip-path="url(#SVGID_00000018939849195545366930000010456710274291628464_)"/></g></g><path d="M28.9 5.4 28.9 3C29.3 3.2 29.6 3.5 29.7 4.1L29.8 4.6 31.8 4.6 31.7 3.8C31.4 2.3 30.5 1.3 28.9 0.9L28.9 0 26.9 0 26.9 0.9C25.2 1.2 24.1 2.4 24.1 3.9 24.1 5.8 25.2 6.5 26.9 6.9L26.9 9.7C26.3 9.5 26 9 25.9 8.3L25.8 7.7 23.8 7.7 23.9 8.4C24.1 10.1 25.2 11.3 27 11.7L27 12.6 29 12.6 29 11.7C30.9 11.4 32.1 10.2 32.1 8.4 32 6.3 30.5 5.7 28.9 5.4L28.9 5.4ZM28.9 9.8 28.9 7.4C29.8 7.7 29.9 8 29.9 8.6 29.9 9.2 29.6 9.7 28.9 9.8L28.9 9.8ZM26.9 2.9 26.9 4.9C26.2 4.6 26.1 4.3 26.1 3.9 26.1 3.4 26.4 3.1 26.9 2.9L26.9 2.9Z" class="MsftOfcResponsive_Fill_7823dc" fill="#7823DC"/></svg>