<svg viewBox="0 0 32 32" xmlns="http://www.w3.org/2000/svg" xmlns:xlink="http://www.w3.org/1999/xlink" id="Graphic" xml:space="preserve" overflow="hidden"><g><g><defs><path d="M0 32 32 32 32-0.1 0-0.1 0 32Z" id="SVGID_1_" fill="#7823DC"/></defs><defs><path d="M0-0.1 32-0.1 32 32 0 32 0-0.1Z" id="SVGID_00000101093319737137523130000016517252029632099728_" fill="#7823DC"/></defs><clipPath id="SVGID_00000016777337612722977010000003568918766919627141_"><use width="100%" height="100%" xlink:href="#SVGID_1_" overflow="visible"></use></clipPath><clipPath id="SVGID_00000139982580535842984390000014517262594848991664_" clip-path="url(#SVGID_00000016777337612722977010000003568918766919627141_)"><use width="100%" height="100%" xlink:href="#SVGID_00000101093319737137523130000016517252029632099728_" overflow="visible"></use></clipPath><g clip-path="url(#SVGID_00000139982580535842984390000014517262594848991664_)"><defs><path d="M0 32 32 32 32-0.1 0-0.1 0 32Z" id="SVGID_00000164513420309248321930000012078150065473577149_" fill="#7823DC"/></defs><clipPath id="SVGID_00000163795096663185354050000011812343201927201982_"><use width="100%" height="100%" xlink:href="#SVGID_00000164513420309248321930000012078150065473577149_" overflow="visible"></use></clipPath><path d="M31.9 11.8 31.9 11.8 31.9 11.8 27.8 2 27.8 2 22 0 22 0 10.1 0 10.1 0 10.1 0 4.3 2 4.3 2 0.2 11.8 0.2 11.8 0.2 11.9 7.7 15C8.5 19.8 7.7 22.4 7.7 22.4L6.1 29.7C6.1 29.7 13.1 32.2 15.9 32.1 18.7 32 21.2 31.4 26 29.7L24.4 22.4C24.4 22.4 23.6 19.8 24.4 15L31.9 11.8 31.9 11.8 31.9 11.8ZM20.5 2 16 6.5 11.6 2 20.5 2 20.5 2 20.5 2ZM22.4 22.8 22.5 23.4 23.6 28.3C20.2 29.4 18.7 29.7 16.2 29.8 14.3 29.9 10.6 28.8 8.4 28.1L9.4 23.4 9.5 22.8C10.6 17.7 9.2 13.4 9.2 13.4L7.5 6.2 5.6 6.7 7.1 12.5 2.7 10.6 5.7 3.5 9.2 2.3 14.7 8 16 9.4 22.8 2.4 26.3 3.6 29.3 10.7 25 12.6 26.5 6.8 24.6 6.3 22.7 13.5C22.7 13.4 21.3 17.7 22.4 22.8L22.4 22.8Z" fill="#7823DC" clip-path="url(#SVGID_00000163795096663185354050000011812343201927201982_)"/></g></g></g></svg>