<svg viewBox="0 0 32 31.95" xmlns="http://www.w3.org/2000/svg" xmlns:xlink="http://www.w3.org/1999/xlink" id="Layer_1" overflow="hidden"><style>
.MsftOfcThm_Text2_Fill_v2 {
 fill:#7823DC; 
}
</style>
<path d="M26.41 31.95 7 31.95 7 2.68 16.07 2.68C16.23 2.08 16.52 1.53 16.94 1.07 18.33-0.37 20.71-0.34 22.02 1.07 22.45 1.53 22.76 2.09 22.92 2.69L31.99 2.69 31.99 26.38 26.4 31.97ZM9 29.95 25.59 29.95 30 25.54 30 4.68 21.06 4.68 21.06 3.68C21.06 3.21 20.89 2.76 20.58 2.43 20.01 1.82 19.01 1.82 18.41 2.43 18.12 2.74 17.95 3.2 17.95 3.67L17.95 4.67 9.01 4.67 9.01 29.94Z" class="MsftOfcThm_Text2_Fill_v2" fill="#7823DC"/><path d="M15.38 27.95C14.8 27.95 14.23 27.84 13.7 27.61 13.17 27.39 12.69 27.07 12.28 26.65 11.87 26.24 11.55 25.76 11.33 25.22 11.11 24.68 11 24.12 11 23.54 11 22.36 11.46 21.26 12.28 20.43 13.11 19.6 14.21 19.14 15.38 19.14 16.55 19.14 17.65 19.6 18.48 20.43 19.31 21.26 19.76 22.37 19.76 23.54 19.76 24.12 19.65 24.69 19.43 25.22 19.21 25.76 18.89 26.24 18.48 26.65 18.07 27.06 17.59 27.38 17.06 27.61 16.53 27.83 15.96 27.95 15.38 27.95ZM15.38 21.14C14.74 21.14 14.15 21.39 13.7 21.84 13.25 22.3 13 22.9 13 23.54 13 23.86 13.06 24.17 13.18 24.46 13.3 24.75 13.48 25.02 13.7 25.24 13.92 25.46 14.18 25.64 14.47 25.76 15.05 26 15.71 26 16.29 25.76 16.58 25.64 16.84 25.46 17.06 25.24 17.28 25.02 17.46 24.75 17.58 24.46 17.7 24.17 17.76 23.86 17.76 23.54 17.76 22.9 17.51 22.29 17.06 21.84 16.61 21.39 16.01 21.14 15.38 21.14Z" class="MsftOfcThm_Text2_Fill_v2" fill="#7823DC"/><rect x="24" y="12.47" width="2" height="8.15" class="MsftOfcThm_Text2_Fill_v2" fill="#7823DC" transform="matrix(0.715083 -0.69904 0.69904 0.715083 -4.45 22.19)"/><rect x="20.92" y="15.55" width="8.15" height="2" class="MsftOfcThm_Text2_Fill_v2" fill="#7823DC" transform="matrix(0.69904 -0.715083 0.715083 0.69904 -4.31 22.86)"/><path d="M12 16.13 10.1 15.52C10.73 13.56 12 11.85 13.69 10.71 15.38 9.57 17.43 9.04 19.45 9.23L19.27 11.22C17.71 11.08 16.12 11.48 14.81 12.37 13.49 13.26 12.5 14.59 12 16.13Z" class="MsftOfcThm_Text2_Fill_v2" fill="#7823DC"/><path d="M18.3 13.57 16.65 12.45 18.1 10.31 16.36 8.34 17.86 7.02 20.62 10.15 18.3 13.57Z" class="MsftOfcThm_Text2_Fill_v2" fill="#7823DC"/><path d="M2.5 31.88 0 30.08 0 5.95 5 5.95 5 30.08 2.5 31.88ZM2 29.06 2.5 29.42 3 29.06 3 7.95 2 7.95 2 29.06Z" class="MsftOfcThm_Text2_Fill_v2" fill="#7823DC"/><path d="M5 7.09 3 7.09 3 4.71 2 4.71 2 7.09 0 7.09 0 2.71 5 2.71 5 7.09Z" class="MsftOfcThm_Text2_Fill_v2" fill="#7823DC"/></svg>