<svg viewBox="0 0 32 32" xmlns="http://www.w3.org/2000/svg" xmlns:xlink="http://www.w3.org/1999/xlink" overflow="hidden"><defs></defs><g id="Layer_3"><path d="M25.999 27.5068C25.4451 27.5059 24.9965 27.0568 24.9961 26.5029 24.9959 26.3894 25.0154 26.2768 25.0537 26.1699 25.238 25.6474 25.811 25.3733 26.3335 25.5576 26.8559 25.742 27.1301 26.3149 26.9458 26.8374 26.8042 27.2388 26.4247 27.5072 25.999 27.5068Z" fill="#7823DC"/><path d="M25.9994 26.0016C26.2755 26.0025 26.4987 26.227 26.4979 26.5031 26.4971 26.7793 26.2726 27.0025 25.9964 27.0016 25.7203 27.0008 25.4971 26.7763 25.4979 26.5002 25.4981 26.4442 25.5076 26.3886 25.5262 26.3358 25.5973 26.1355 25.7868 26.0016 25.9994 26.0016M25.9994 24.9987C25.1686 24.9987 24.495 25.6722 24.495 26.503 24.495 27.3339 25.1685 28.0074 25.9994 28.0074 26.8302 28.0074 27.5037 27.3339 27.5037 26.5031 27.5037 26.5031 27.5037 26.5031 27.5037 26.5031 27.5033 25.6724 26.8301 24.9991 25.9994 24.9987Z" fill="#7823DC"/><path d="M25.999 24.012 27.212 25.613 24.787 25.613 25.999 24.012Z" fill="#7823DC"/><path d="M5.998 6.01471 5.998 30.0175 2.002 30.0175 2.002 6.01471 5.998 6.01471M7.99988 4.01282 0.00012 4.01282 0.00012 32.0193 7.99988 32.0193 7.99988 4.01282Z" fill="#7823DC"/><path d="M15.9979 6.01471 15.9979 30.0175 12.0019 30.0175 12.0019 6.01471 15.9979 6.01471M17.9998 4.01282 10 4.01282 10 32.0193 17.9998 32.0193 17.9998 4.01282Z" fill="#7823DC"/><path d="M5 0.019 3 0.019 3 5.42 5 5.42 5 0.019 5 0.019Z" fill="#7823DC"/><path d="M15 0.019 13 0.019 13 5.42 15 5.42 15 0.019 15 0.019Z" fill="#7823DC"/><path d="M14 0.019 3.495 0.019 3.495 2.01 14 2.01 14 0.019 14 0.019Z" fill="#7823DC"/><path d="M14 12.014 4 12.014 4 14.005 14 14.005 14 12.014 14 12.014Z" fill="#7823DC"/><text fill="#7823DC" font-family="Graphik-Regular,Graphik" font-size="3" transform="translate(0.31717 -1.98047)">Liquefaction, factory, industry</text><path d="M29.4139 21.9971C30.1997 24.6148 30.2016 27.4053 29.4193 30.0241L22.5805 30.0241C21.7982 27.4053 21.8001 24.6148 22.5858 21.9971L29.4139 21.9971M30.7839 20.0018 21.2159 20.0018C20.3919 21.8998 19.9775 23.9503 19.9999 26.0194 19.9779 28.0819 20.3895 30.1261 21.2081 32.0193L30.7917 32.0193C31.6103 30.1261 32.0219 28.0819 31.9999 26.0193 32.0222 23.9503 31.6078 21.8998 30.7839 20.0018Z" fill="#7823DC"/><path d="M25.002 20.734 25.002 14.058 18 14.058 18 12.062 26.996 12.062 26.998 20.734 25.002 20.734Z" fill="#7823DC"/></g></svg>