<svg viewBox="0 0 32 32" xmlns="http://www.w3.org/2000/svg" xmlns:xlink="http://www.w3.org/1999/xlink" xml:space="preserve" overflow="hidden"><style>
.MsftOfcResponsive_Fill_7823dc {
 fill:#7823DC; 
}
</style>
<g id="Layer_3"></g><g id="Layer_1"></g><g id="Layer_2"></g><g id="Layer_4"></g><g id="Layer_5"><g><path d="M2.84 31.82 1.57 30.3C1.59 30.27 3.84 27.62 3.72 23.39 3.7 23.03 3.28 13.94 10.76 8.61 11.2 8.3 21.46 1.5 27.45 5.57 27.67 5.72 33.21 9.53 25.49 21.99 25.27 22.35 19.89 30.99 10.37 30.11L10.22 30.08C10.08 30.05 6.94 29.34 2.84 31.82ZM22.81 6.26C17.92 6.26 11.97 10.2 11.89 10.25 5.36 14.91 5.71 23.22 5.72 23.3 5.79 25.5 5.32 27.32 4.76 28.7 7.84 27.63 10.12 28.01 10.61 28.12 18.82 28.84 23.74 21.01 23.78 20.93 30.38 10.29 26.36 7.25 26.32 7.22 25.31 6.54 24.09 6.26 22.81 6.26Z" class="st0 MsftOfcResponsive_Fill_7823dc" fill="#7823DC"/><path d="M4.83 30.41 2.97 29.66 3.34 28.73C11.45 8.52 24.25 5.94 26.67 5.63L30.52 1.93 31.91 3.37 27.81 7.31 27.18 7.59C27.05 7.6 13.49 8.81 5.2 29.49L4.83 30.41Z" class="st0 MsftOfcResponsive_Fill_7823dc" fill="#7823DC"/><path d="M3.04 31.74 2.24 29.91C23.96 20.48 26.11 6.6 26.12 6.46L28.1 6.72C28.03 7.33 25.87 21.82 3.04 31.74Z" class="st0 MsftOfcResponsive_Fill_7823dc" fill="#7823DC"/><path d="M12.44 9.68C6.87 9.68 2.23 6.22 2.04 6.08L1.02 5.3 2.01 4.5C14.27-5.47 25.11 4.44 25.22 4.55L23.85 6.01C23.47 5.66 14.77-2.23 4.36 5.21 5.97 6.16 9.14 7.73 12.52 7.68L12.54 9.68C12.52 9.68 12.48 9.68 12.44 9.68Z" class="st0 MsftOfcResponsive_Fill_7823dc" fill="#7823DC"/></g></g></svg>