<svg viewBox="0 0 29.72 32.06" xmlns="http://www.w3.org/2000/svg" xmlns:xlink="http://www.w3.org/1999/xlink" xml:space="preserve" overflow="hidden"><style>
.MsftOfcResponsive_Fill_7823dc {
 fill:#7823DC; 
}
</style>
<g id="Layer_3"></g><g id="Layer_1"></g><g id="Layer_2"></g><g id="Layer_4"></g><g id="Layer_5"><path d="M14.99 32.02 1.14 24.02 1.14 8.03 14.99 0.03 28.84 8.03 28.84 24.02 14.99 32.02ZM3.14 22.87 14.99 29.71 26.84 22.87 26.84 9.19 14.99 2.34 3.14 9.19 3.14 22.87Z" class="MsftOfcResponsive_Fill_7823dc" fill="#7823DC"/><g><path d="M9.15 16.34 6.61 12.2 4.81 12.2 4.81 19.86 6.65 19.86 6.65 15.82 9.15 19.86 10.99 19.86 10.99 12.2 9.15 12.2Z" class="MsftOfcResponsive_Fill_7823dc" fill="#7823DC"/><path d="M13.12 19.86 15.07 19.86 15.07 16.82 18.06 16.82 18.06 15.11 15.07 15.11 15.07 13.91 18.53 13.91 18.53 12.2 13.12 12.2Z" class="MsftOfcResponsive_Fill_7823dc" fill="#7823DC"/><path d="M19.8 12.2 19.8 13.91 21.92 13.91 21.92 19.86 23.87 19.86 23.87 13.91 25.99 13.91 25.99 12.2Z" class="MsftOfcResponsive_Fill_7823dc" fill="#7823DC"/></g></g></svg>