<svg viewBox="0 0 32 32" xmlns="http://www.w3.org/2000/svg" xmlns:xlink="http://www.w3.org/1999/xlink" id="Layer_1" overflow="hidden"><style>
.MsftOfcResponsive_Fill_7823dc {
 fill:#7823DC; 
}
</style>
<path d="M15 32 9 32 9 26.4 15 26.4 15 32ZM11 30 13 30 13 28.4 11 28.4 11 30Z" class="MsftOfcResponsive_Fill_7823dc" fill="#7823DC"/><path d="M11.5 5 6.5 5 6.5 0 11.5 0 11.5 5ZM8.5 3 9.5 3 9.5 2 8.5 2 8.5 3Z" class="MsftOfcResponsive_Fill_7823dc" fill="#7823DC"/><path d="M26 5 21 5 21 0 26 0 26 5ZM23 3 24 3 24 2 23 2 23 3Z" class="MsftOfcResponsive_Fill_7823dc" fill="#7823DC"/><path d="M23 32 17 32 17 26.4 23 26.4 23 32ZM19 30 21 30 21 28.4 19 28.4 19 30Z" class="MsftOfcResponsive_Fill_7823dc" fill="#7823DC"/><path d="M27 28.4 21 28.4 21 24.8 11 24.8 11 28.4 5 28.4 5 21.2 0 21.2 0 15.6 3 15.6 3 12 6 12 6 7 9 7 9 3 14 3 14 7 18 7 18 3 23 3 23 7 26 7 26 12 29 12 29 15.6 32 15.6 32 21.2 27 21.2 27 28.4ZM23 26.4 25 26.4 25 19.2 30 19.2 30 17.6 27 17.6 27 14 24 14 24 9 21 9 21 5 20 5 20 9 12 9 12 5 11 5 11 9 8 9 8 14 5 14 5 17.6 2 17.6 2 19.2 7 19.2 7 26.4 9 26.4 9 22.8 23 22.8 23 26.4Z" class="MsftOfcResponsive_Fill_7823dc" fill="#7823DC"/><path d="M14 19.5 9 19.5 9 14.5 14 14.5 14 19.5ZM11 17.5 12 17.5 12 16.5 11 16.5 11 17.5Z" class="MsftOfcResponsive_Fill_7823dc" fill="#7823DC"/><path d="M23 19.5 18 19.5 18 14.5 23 14.5 23 19.5ZM20 17.5 21 17.5 21 16.5 20 16.5 20 17.5Z" class="MsftOfcResponsive_Fill_7823dc" fill="#7823DC"/><rect x="0" y="21.2" width="2" height="7.2" class="MsftOfcResponsive_Fill_7823dc" fill="#7823DC"/><rect x="30" y="21.2" width="2" height="7.2" class="MsftOfcResponsive_Fill_7823dc" fill="#7823DC"/></svg>