<svg viewBox="0 0 32 32" xmlns="http://www.w3.org/2000/svg" xmlns:xlink="http://www.w3.org/1999/xlink" id="Layer_1" xml:space="preserve" overflow="hidden"><g><path d="M19 8.1C19 4.8 16.3 2 12.9 2 9.6 2 6.7 4.7 6.7 8 6.7 10.4 8.2 12.7 10.5 13.6L10.5 11.3C8.6 10.1 8.2 7.6 9.5 5.7 10.8 3.9 13.4 3.4 15.2 4.7 17.1 6 17.5 8.5 16.2 10.4 15.8 11 15.1 11.5 14.4 11.8L14.4 13.9C17.1 13.2 19 10.8 19 8.1L19 8.1 19 8.1 19 8.1Z" fill="#7823DC" fill-rule="evenodd" clip-rule="evenodd"/><path d="M14 12.4 16 12.4 16 19.9 14 19.9 14 12.4Z" fill="#7823DC" fill-rule="evenodd" clip-rule="evenodd"/><path d="M18 15.5 20 15.5 20 19.9 18 19.9 18 15.5Z" fill="#7823DC" fill-rule="evenodd" clip-rule="evenodd"/><path d="M22 16 24 16 24 19.9 22 19.9 22 16Z" fill="#7823DC" fill-rule="evenodd" clip-rule="evenodd"/><path d="M2.8 7.9C2.8 12.3 5.7 16.2 10 17.5L10 15.4C5.9 13.9 3.8 9.2 5.3 5.1 6.4 2.4 8.9 0.4 11.8 0L6.8 0C4.2 1.9 2.8 4.9 2.8 7.9L2.8 7.9 2.8 7.9 2.8 7.9Z" fill="#7823DC" fill-rule="evenodd" clip-rule="evenodd"/><path d="M21 7.9C21 10.5 19.8 12.9 17.7 14.4L17.7 16.1C17.7 16.1 18.1 16.5 18.4 16.4 23.2 13.4 24.6 7.3 21.6 2.6 21 1.6 20.1 0.7 19.2 1.33227e-15L14.3 1.33227e-15C18.1 0.6 21 4 21 7.9L21 7.9 21 7.9 21 7.9Z" fill="#7823DC" fill-rule="evenodd" clip-rule="evenodd"/><path d="M12.3 30.3 9.5 26.8 9.2 26.5 4.7 22.8 5.4 22.8C6.5 22.7 7.8 23.1 8.7 23.7L12 22 12 14.4 12.1 8.7 12.5 8.3 12.9 7.9 13.3 7.9 14.1 8.7 14.1 14 15.7 16 25.1 17.8 28.1 20.8 28.1 27 27.8 31.9 29.8 31.9 30 27 30 20.2 26 16.2 16 14.2 16 7.9 14 6 12 6 10 8 10 14.5 10 22.2C8.6 21.3 7 20.9 5.5 21L2 21 2 23.2 8 28.2 11 31.9 15.5 31.9 12.3 30.3 12.3 30.3 12.3 30.3 12.3 30.3Z" fill="#7823DC" fill-rule="evenodd" clip-rule="evenodd"/></g></svg>