<svg viewBox="0 0 32 32" xmlns="http://www.w3.org/2000/svg" xmlns:xlink="http://www.w3.org/1999/xlink" id="Layer_1" overflow="hidden"><style>
.MsftOfcResponsive_Fill_7823dc {
 fill:#7823DC; 
}
</style>
<defs></defs><path d="M31.94 24.33C31.92 23.85 31.9 23.31 31.88 22.72 31.82 20.92 31.82 19.07 31.88 17.2 31.88 9.16 25.29 2.58 17 2.06L17 0 15 0 15 2.05C6.66 2.52 0.02 9.12 0.02 17.18-0.01 19.03-0.01 20.9 0.02 22.76 0.04 24.45 0.09 26.11 0.15 27.69 0.15 31.38 2.49 31.74 3.95 31.96 4.11 31.98 4.27 32 4.42 32 5.61 32 6.52 31.28 7.41 30.58 7.7 30.35 8.01 30.11 8.35 29.87 11.91 27.4 17.77 26.78 21.15 28.52 22.06 28.99 22.65 29.6 23.22 30.19 24.08 31.08 24.96 31.99 26.6 31.99L26.62 31.99C28.35 31.99 30.15 31.01 31.2 29.51 32.13 28.18 32.07 26.81 31.96 24.32ZM29.88 17.16C29.85 17.99 29.84 18.83 29.84 19.66 28.57 18.49 27.15 17.52 25.61 16.8L25.61 10.16C25.61 9.1 25.39 8.09 24.99 7.16 27.98 9.58 29.88 13.16 29.88 17.15ZM14.67 4.25 17.33 4.25C20.79 4.25 23.61 6.9 23.61 10.17L23.61 16.05C22.03 15.56 20.38 15.28 18.68 15.28L12.93 15.28C11.38 15.28 9.86 15.52 8.4 15.93L8.4 10.18C8.4 6.92 11.22 4.26 14.68 4.26ZM12.92 17.27 18.67 17.27C20.97 17.27 23.18 17.82 25.17 18.82L25.17 22.69C23.03 21.47 19.77 20.15 15.62 20.23 11.59 20.31 8.42 21.69 6.36 22.94 6.34 22.44 6.32 21.98 6.3 21.51 6.26 20.7 6.23 19.89 6.19 18.93 8.24 17.86 10.54 17.27 12.93 17.27ZM7.07 7.04C6.64 8 6.39 9.06 6.39 10.17L6.39 16.62C4.8 17.3 3.33 18.23 2.02 19.37 2.02 18.64 2.01 17.92 2.02 17.19 2.02 13.11 3.99 9.45 7.07 7.03ZM29.54 28.38C29 29.16 27.84 30 26.6 30.01L26.6 30.01C25.85 30.01 25.46 29.64 24.66 28.82 24.04 28.18 23.27 27.38 22.06 26.76 20.48 25.95 18.49 25.56 16.41 25.56 13.19 25.56 9.74 26.5 7.21 28.25 6.84 28.51 6.5 28.78 6.17 29.03 5.29 29.73 4.79 30.08 4.2 30 2.79 29.79 2.15 29.69 2.15 27.68 2.09 26.07 2.04 24.43 2.02 22.76 2.02 22.58 2.02 22.39 2.02 22.2 2.69 21.44 3.43 20.75 4.24 20.16 4.26 20.67 4.28 21.15 4.31 21.62 4.35 22.6 4.4 23.58 4.44 24.83L4.51 26.76 6.05 25.6C7.65 24.39 11.02 22.34 15.68 22.25 15.79 22.25 15.89 22.25 16 22.25 20.6 22.25 23.98 24.18 25.61 25.35L27.19 26.49 27.19 20.07C28.18 20.79 29.09 21.64 29.89 22.61 29.89 22.67 29.89 22.73 29.89 22.79 29.91 23.39 29.93 23.93 29.95 24.42 30.05 26.79 30.06 27.64 29.55 28.38Z" class="MsftOfcResponsive_Fill_7823dc" fill="#7823DC"/><rect x="12" y="11" width="8" height="2" class="MsftOfcResponsive_Fill_7823dc" fill="#7823DC"/></svg>