<svg viewBox="0 0 32 32" xmlns="http://www.w3.org/2000/svg" xmlns:xlink="http://www.w3.org/1999/xlink" id="Layer_2_00000144328325245699140920000014890284756443101063_" xml:space="preserve" overflow="hidden"><path d="M4 32.1 2 32.1 8 18 10 18Z" fill="#7823DC"/><path d="M30 32.1 28 32.1 22 18 24 18Z" fill="#7823DC"/><rect x="15" y="30" width="2" height="2" fill="#7823DC"/><rect x="15" y="26.7" width="2" height="2" fill="#7823DC"/><rect x="15" y="23.5" width="2" height="2" fill="#7823DC"/><rect x="15" y="20.2" width="2" height="2" fill="#7823DC"/><path d="M16 15.6C12.8 15.6 10.3 13 10.3 9.9 10.3 6.8 12.9 4.2 16 4.2 19.2 4.2 21.7 6.8 21.7 9.9 21.7 13 19.2 15.6 16 15.6ZM16 6.1C13.9 6.1 12.3 7.8 12.3 9.8 12.3 11.8 14 13.5 16 13.5 18.1 13.5 19.7 11.8 19.7 9.8 19.7 7.8 18.1 6.1 16 6.1Z" fill="#7823DC"/><path d="M11 11 0 9.9 0 7.9 12.7 6 12.8 7.2 12 10.2 11 11Z" fill="#7823DC"/><path d="M21 11 20 10.3 19.2 7.3 19.3 6 32 7.9 32 9.9 21 11Z" fill="#7823DC"/><rect x="0" y="17" width="32" height="2" fill="#7823DC"/><circle cx="29.6" cy="10.6" r="1.4" fill="#7823DC"/><circle cx="2.4" cy="10.6" r="1.4" fill="#7823DC"/><path d="M16 0C15 0 15.1 5 15.1 5L17.1 5C17 5.1 17 0 16 0Z" fill="#7823DC"/><path d="M17.2 10.2 14.9 10.2C14.3 10.2 13.9 9.8 13.9 9.2 13.9 8.6 14.3 8.2 14.9 8.2L17.2 8.2C17.8 8.2 18.2 8.6 18.2 9.2 18.2 9.8 17.7 10.2 17.2 10.2Z" fill="#7823DC"/></svg>