<svg viewBox="0 0 32 32" xmlns="http://www.w3.org/2000/svg" xmlns:xlink="http://www.w3.org/1999/xlink" id="Graphic" overflow="hidden"><defs></defs><path d="M16.23 2C20.763 2.00541 24.4425 5.66709 24.47 10.2 24.465 10.2632 24.465 10.3268 24.47 10.39L24.47 12.07 26.12 12.39C28.7489 12.9034 30.4639 15.4507 29.9506 18.0796 29.508 20.3459 27.529 21.9859 25.22 22L8.09 22C4.57332 21.9018 1.8021 18.9713 1.9003 15.4547 1.98152 12.5465 4.02269 10.063 6.86 9.42L8 9.15 8.31 8C9.31749 4.45822 12.5477 2.01106 16.23 2M16.23 0C11.6442 0.00602857 7.62273 3.06301 6.39 7.48 1.88635 8.52202-0.919855 13.0177 0.122163 17.5213 0.977065 21.2162 4.20953 23.8746 8 24L25.15 24C28.9331 23.99 31.9919 20.9151 31.9819 17.132 31.9733 13.8676 29.6624 11.0629 26.46 10.43 26.46 10.36 26.46 10.3 26.46 10.24 26.4655 4.59013 21.8899 0.00552751 16.24 4.6587e-06 16.2367 1.39872e-06 16.2333-2.30475e-07 16.23-2.28882e-07Z" fill="#7823DC"/></svg>