<svg viewBox="0 0 32 32" xmlns="http://www.w3.org/2000/svg" xmlns:xlink="http://www.w3.org/1999/xlink" overflow="hidden"><defs></defs><g id="Layer_3"><text fill="#7823DC" font-family="Graphik-Regular,Graphik" font-size="3" transform="translate(-0.00014 -1.86938)">Transport, delivery, truck 1</text><path d="M22.02 14.003 30 14.003 30 22.055 28.27 22.055 28.27 24.067 32 24.067 32 15.944 28.06 11.991 22.05 11.991 22.02 14.003Z" fill="#7823DC"/><path d="M22.71 21.989 6 21.989 6 23.989 24 23.989 22.71 21.989Z" fill="#7823DC"/><rect x="26.0201" y="18.0065" width="5" height="2" fill="#7823DC"/><path d="M4 25.9961C2.34315 25.9961 1 24.6529 1 22.9961 1 21.3392 2.34315 19.9961 4 19.9961 5.65685 19.9961 7 21.3392 7 22.9961 6.99819 24.6522 5.65611 25.9943 4 25.9961ZM4 21.9961C3.44772 21.9961 3 22.4438 3 22.9961 3 23.5484 3.44772 23.9961 4 23.9961 4.55228 23.9961 5 23.5484 5 22.9961 4.99945 22.444 4.55206 21.9966 4 21.9961Z" fill="#7823DC"/><path d="M26.02 25.9961C24.3631 25.9961 23.02 24.6529 23.02 22.9961 23.02 21.3392 24.3631 19.9961 26.02 19.9961 27.6769 19.9961 29.02 21.3392 29.02 22.9961 29.0182 24.6522 27.6761 25.9943 26.02 25.9961ZM26.02 21.9961C25.4677 21.9961 25.02 22.4438 25.02 22.9961 25.02 23.5484 25.4677 23.9961 26.02 23.9961 26.5723 23.9961 27.02 23.5484 27.02 22.9961 27.0194 22.444 26.5721 21.9966 26.02 21.9961Z" fill="#7823DC"/><rect x="21.9901" y="11.9909" width="2.01" height="12.0056" fill="#7823DC"/><rect x="-0.00011" y="17.9965" width="22.3143" height="2.02" fill="#7823DC"/><rect x="8.00011" y="19.7465" width="2" height="3.26" fill="#7823DC"/><rect x="14.0001" y="19.6765" width="2" height="3.26" fill="#7823DC"/><path d="M18.053 9.98645C20.2344 9.98888 22.0022 11.7566 22.0046 13.9381L22.0046 14.0594C22.0022 16.2408 20.2344 18.0086 18.053 18.011L5.94723 18.011C3.76584 18.0085 1.99809 16.2408 1.99563 14.0594L1.99563 13.9381C1.99805 11.7567 3.76583 9.98888 5.94723 9.98646L18.053 9.98646M18.053 7.99092 5.94723 7.99092C2.66274 7.99091 0.000120908 10.6535 0.000109862 13.938L0.00011 14.0594C0.000115523 17.3439 2.66273 20.0065 5.94723 20.0065L18.053 20.0065C21.3375 20.0065 24.0001 17.3439 24.0001 14.0594L24.0001 13.9381C24.0001 10.6536 21.3375 7.99093 18.053 7.99091Z" fill="#7823DC"/><path d="M13.996 6.001 9.996 6.001 9.996 8.001 13.996 8.001 13.996 6.001 13.996 6.001Z" fill="#7823DC"/></g></svg>