<svg viewBox="0 0 29.9 29.78" xmlns="http://www.w3.org/2000/svg" xmlns:xlink="http://www.w3.org/1999/xlink" id="Layer_1" overflow="hidden"><style>
.MsftOfcResponsive_Fill_7823dc {
 fill:#7823DC; 
}
</style>
<defs></defs><path d="M25.91 0 24.28 0 24.28 1.86 25.91 1.86C27.08 1.86 28.03 2.74 28.03 3.83L28.03 6.31 29.89 6.31 29.89 3.83C29.89 1.72 28.1 0 25.91 0Z" class="MsftOfcResponsive_Fill_7823dc" fill="#7823DC"/><path d="M1.86 3.83C1.86 2.74 2.81 1.86 3.98 1.86L5.61 1.86 5.61 0 3.98 0C1.79 0 0 1.72 0 3.83L0 6.31 1.86 6.31 1.86 3.83Z" class="MsftOfcResponsive_Fill_7823dc" fill="#7823DC"/><path d="M28.04 25.95C28.04 27.04 27.09 27.92 25.92 27.92L24.29 27.92 24.29 29.78 25.92 29.78C28.12 29.78 29.9 28.06 29.9 25.95L29.9 23.47 28.04 23.47 28.04 25.95Z" class="MsftOfcResponsive_Fill_7823dc" fill="#7823DC"/><path d="M1.86 25.95 1.86 23.47 0 23.47 0 25.95C0 28.06 1.79 29.78 3.98 29.78L5.61 29.78 5.61 27.92 3.98 27.92C2.81 27.92 1.86 27.04 1.86 25.95Z" class="MsftOfcResponsive_Fill_7823dc" fill="#7823DC"/><path d="M24.68 23.28 24.72 23.31 25.29 22.57 25.86 21.83 25.83 21.81C26.91 20.17 27.59 18.33 27.85 16.38 27.86 16.38 27.88 16.38 27.89 16.38 28.53 16.36 29.03 15.83 29.01 15.19L28.98 14.06C28.96 13.44 28.46 12.95 27.84 12.94 27.07 7.15 22.49 2.56 16.7 1.78 16.7 1.78 16.7 1.77 16.7 1.76 16.68 1.12 16.15 0.62 15.51 0.64L14.38 0.67C13.77 0.69 13.3 1.18 13.27 1.77 7.45 2.54 2.84 7.14 2.07 12.95 1.44 12.98 0.94 13.5 0.96 14.14L0.99 15.27C1.01 15.87 1.47 16.3 2.07 16.37 2.83 22.19 7.45 26.8 13.26 27.56L13.26 27.56C13.28 28.21 13.81 28.72 14.45 28.7L15.58 28.67C16.19 28.65 16.63 28.17 16.69 27.56 19.79 27.15 22.6 25.65 24.68 23.28ZM14.95 3.52C17.71 3.52 20.24 4.54 22.19 6.21L17.44 10.96C16.73 10.48 15.87 10.2 14.95 10.2 14.08 10.2 13.28 10.46 12.59 10.89L7.81 6.11C9.75 4.49 12.23 3.52 14.95 3.52ZM12.75 13.28 13.56 12.47C13.96 12.21 14.44 12.06 14.95 12.06 16.39 12.06 17.56 13.23 17.56 14.67 17.56 16.11 16.39 17.28 14.95 17.28 14.44 17.28 13.97 17.13 13.56 16.87L12.75 16.06C12.5 15.66 12.34 15.18 12.34 14.67 12.34 14.16 12.49 13.68 12.75 13.28ZM12.59 18.45C13.28 18.88 14.08 19.14 14.95 19.14 15.87 19.14 16.73 18.86 17.44 18.38L22.19 23.13C20.19 24.85 17.65 25.82 14.94 25.82 12.23 25.82 9.74 24.84 7.8 23.23L12.57 18.46ZM23.81 21.44C23.71 21.57 23.6 21.68 23.5 21.8L18.73 17.03C19.16 16.34 19.42 15.54 19.42 14.67 19.42 13.8 19.16 12.99 18.73 12.31L23.51 7.54C25.13 9.48 26.1 11.96 26.1 14.68 26.1 17.15 25.31 19.49 23.81 21.45ZM6.49 7.43 11.24 12.18C10.76 12.89 10.48 13.75 10.48 14.67 10.48 15.59 10.76 16.45 11.24 17.16L6.49 21.91C4.82 19.96 3.8 17.43 3.8 14.67 3.8 11.91 4.82 9.38 6.49 7.43Z" class="MsftOfcResponsive_Fill_7823dc" fill="#7823DC"/></svg>