<svg viewBox="0 0 32 32" xmlns="http://www.w3.org/2000/svg" xmlns:xlink="http://www.w3.org/1999/xlink" id="Layer_1" xml:space="preserve" overflow="hidden"><path d="" stroke="#4E2B83" stroke-width="2" stroke-miterlimit="10" fill="#7823DC"/><g><g><path d="M2.7 11.8 4.5 17 5.4 19.5 7.6 17.9 7.7 17.8 8.6 19.4 8.8 19.8 9.2 20.1 12.2 22.1 12.6 24.5 12.7 24.9 12.9 25.3 13.9 26.9 11.2 29.1 10.1 27.6 9.9 27.3 9.5 27 3.8 23.5 2.2 12.1 2.7 11.8M3.7 8.6 0.1 11.2 2.1 24.7 8.5 28.7 10.9 31.9 16.6 27.3 14.6 24.2 14 20.9 10.2 18.4 8.2 14.9 6.3 16.3 3.7 8.6 3.7 8.6Z" fill="#7823DC"/><path d="M7.4 22.8 5.3 19.3 5 17.9 6.9 17.5 7.2 18.5 9.1 21.7Z" fill="#7823DC"/></g><g><path d="M29.4 11.8 29.9 12.1 28.2 23.5 22.5 27 22.2 27.2 22 27.5 20.9 29 18.2 26.8 19.2 25.2 19.4 24.8 19.5 24.4 19.9 22 22.9 20 23.3 19.7 23.5 19.3 24.4 17.7 24.5 17.8 26.7 19.4 27.6 16.9 29.4 11.8M28.4 8.6 25.7 16.3 23.8 14.9 21.8 18.4 18 20.9 17.5 24.2 15.5 27.3 21.2 31.9 23.6 28.7 30 24.7 32 11.2 28.4 8.6 28.4 8.6Z" fill="#7823DC"/><path d="M24.7 22.8 23 21.7 24.9 18.5 25.1 17.5 27.1 17.9 26.8 19.3Z" fill="#7823DC"/></g></g><path d="" fill="#7823DC"/><path d="" stroke="#231F20" stroke-width="2" stroke-miterlimit="10" fill="#7823DC"/><g><path d="M16.1 17.9 7.4 4.8 9.9 0 22.3 0 24.9 4.8 16.1 17.9 16.1 17.9 16.1 17.9ZM9.7 4.7 16.2 14.4 22.7 4.7 21.2 2 11.1 2 9.7 4.7 9.7 4.7 9.7 4.7Z" fill="#7823DC" fill-rule="evenodd" clip-rule="evenodd"/><path d="M8.5 3.8 23.8 3.8 23.8 5.7 8.5 5.7Z" fill="#7823DC" fill-rule="evenodd" clip-rule="evenodd"/><path d="M12.3 5 14.2 4.5 17.1 15.9 15.2 16.4Z" fill="#7823DC" fill-rule="evenodd" clip-rule="evenodd"/><path d="M15.2 15.9 18.1 4.5 20 5 17.1 16.4Z" fill="#7823DC" fill-rule="evenodd" clip-rule="evenodd"/><path d="M12.5 4.2 15.4 0.4 16.9 1.6 14 5.4Z" fill="#7823DC" fill-rule="evenodd" clip-rule="evenodd"/><path d="M15.4 1.6 16.9 0.4 19.8 4.2 18.3 5.4Z" fill="#7823DC" fill-rule="evenodd" clip-rule="evenodd"/></g></svg>