<svg viewBox="0 0 32 32" xmlns="http://www.w3.org/2000/svg" xmlns:xlink="http://www.w3.org/1999/xlink" id="Layer_1" overflow="hidden"><path d="M0 0 0 30 32 30 32 0 0 0ZM30 28.1 2 28.1 2 1.9 30 1.9 30 28.1Z" fill="#7823DC"/><path d="M28 4.6 28 25.4 5.8 25.4 5.8 4.6 28 4.6ZM5.9 9.4 5.9 10.3 7.8 10.3 7.8 19.7 5.9 19.7 5.9 20.6 7.8 20.6 7.8 23.5 26 23.5 26 6.5 7.8 6.5 7.8 9.4 5.9 9.4Z" fill="#7823DC"/><path d="M9.9 7.5 9.9 12.2 3.9 12.2 3.9 7.5 9.9 7.5ZM5.9 10.3 7.9 10.3 7.9 9.4 5.9 9.4 5.9 10.3Z" fill="#7823DC"/><path d="M9.9 17.8 9.9 22.5 3.9 22.5 3.9 17.8 9.9 17.8ZM5.9 20.6 7.9 20.6 7.9 19.7 5.9 19.7 5.9 20.6Z" fill="#7823DC"/><path d="M17.5 20.2C14.5 20.2 12 17.9 12 15 12 12.2 14.5 9.8 17.5 9.8 20.5 9.8 23 12.1 23 15 23 17.8 20.5 20.2 17.5 20.2ZM17.5 11.7C15.6 11.7 14 13.2 14 15 14 16.8 15.6 18.3 17.5 18.3 19.4 18.3 21 16.8 21 15 21 13.2 19.4 11.7 17.5 11.7Z" fill="#7823DC"/><rect x="4" y="30" width="6.6" height="2" fill="#7823DC"/><rect x="21.4" y="30" width="6.6" height="2" fill="#7823DC"/></svg>