<svg viewBox="0 0 32 32" xmlns="http://www.w3.org/2000/svg" xmlns:xlink="http://www.w3.org/1999/xlink" id="Layer_1" xml:space="preserve" overflow="hidden"><path d="M18 28 14 28C12.3 28 11 26.7 11 25L2 25 2 23 13 23 13 25C13 25.6 13.4 26 14 26L18 26C18.6 26 19 25.6 19 25L19 23 30 23 30 25 21 25C21 26.7 19.7 28 18 28Z" fill="#7823DC"/><path d="M32 32 0 32 0 23.7 4.5 8 27.4 8 32 24 32 32ZM2 30 30 30 30 24.1 26 10 6 10 2 24.1 2 30Z" fill="#7823DC"/><rect x="14.9" y="0" width="2" height="5" fill="#7823DC"/><rect x="19.7" y="2.2" width="5" height="2" fill="#7823DC" transform="matrix(0.7071 -0.7071 0.7071 0.7071 4.2262 16.6674)"/><rect x="8.8" y="0.7" width="2" height="5" fill="#7823DC" transform="matrix(0.7071 -0.7071 0.7071 0.7071 0.5754 7.8536)"/></svg>