<svg viewBox="0 0 32 32" xmlns="http://www.w3.org/2000/svg" xmlns:xlink="http://www.w3.org/1999/xlink" id="Layer_1" overflow="hidden"><style>
.MsftOfcResponsive_Fill_7823dc {
 fill:#7823DC; 
}
</style>
<path d="M7.1 27 8 30 2.7 30 3.6 27 7.1 27M8.5 25 2.1 25 0 32 10.7 32 8.5 25 8.5 25Z" class="MsftOfcResponsive_Fill_7823dc" fill="#7823DC"/><path d="M17.7 27 18.6 30 13.3 30 14.2 27 17.7 27M19.2 25 12.8 25 10.7 32 21.4 32 19.2 25 19.2 25Z" class="MsftOfcResponsive_Fill_7823dc" fill="#7823DC"/><path d="M28.4 27 29.3 30 24 30 24.9 27 28.4 27M29.9 25 23.5 25 21.4 32 32 32 29.9 25 29.9 25Z" class="MsftOfcResponsive_Fill_7823dc" fill="#7823DC"/><path d="M12.1 20 13 23 7.7 23 8.6 20 12.1 20M13.5 18 7.1 18 5 25 15.7 25 13.5 18 13.5 18Z" class="MsftOfcResponsive_Fill_7823dc" fill="#7823DC"/><path d="M22.7 20 23.6 23 18.3 23 19.2 20 22.7 20M24.2 18 17.8 18 15.7 25 26.4 25 24.2 18 24.2 18Z" class="MsftOfcResponsive_Fill_7823dc" fill="#7823DC"/><path d="M17.7 13 18.6 16 13.3 16 14.2 13 17.7 13M19.2 11 12.8 11 10.7 18 21.4 18 19.2 11 19.2 11Z" class="MsftOfcResponsive_Fill_7823dc" fill="#7823DC"/><rect x="9.5" y="2.2" width="2" height="7.1" class="MsftOfcResponsive_Fill_7823dc" fill="#7823DC" transform="matrix(0.9062 -0.4229 0.4229 0.9062 -1.4616 4.983)"/><rect x="18" y="4.8" width="7.1" height="2" class="MsftOfcResponsive_Fill_7823dc" fill="#7823DC" transform="matrix(0.4228 -0.9062 0.9062 0.4228 7.1661 22.8228)"/><rect x="15" y="0" width="2" height="7.7" class="MsftOfcResponsive_Fill_7823dc" fill="#7823DC"/></svg>