<svg viewBox="0 0 29.72 32.06" xmlns="http://www.w3.org/2000/svg" xmlns:xlink="http://www.w3.org/1999/xlink" xml:space="preserve" overflow="hidden"><style>
.MsftOfcResponsive_Fill_7823dc {
 fill:#7823DC; 
}
</style>
<g id="Layer_3"></g><g id="Layer_1"></g><g id="Layer_2"></g><g id="Layer_4"></g><g id="Layer_5"><path d="M14.86 28.38 4.96 19.77 9.29 19.77 9.29 3.08 20.43 3.08 20.43 19.77 24.76 19.77 14.86 28.38M14.86 30.84 14.86 30.84 29.72 17.91 22.29 17.91 22.29 1.22 7.43 1.22 7.43 17.91 0 17.91 14.86 30.84 14.86 30.84Z" class="st0 MsftOfcResponsive_Fill_7823dc" fill="#7823DC"/><g><path d="M17.98 15.54 15.97 15.86C15.87 15.6 15.78 15.43 15.7 15.33 15.62 15.23 15.48 15.13 15.3 15.03L15.3 16.59C16.4 16.88 17.13 17.19 17.5 17.52 17.99 17.96 18.23 18.51 18.23 19.18 18.23 19.57 18.14 19.93 17.97 20.26 17.79 20.59 17.57 20.86 17.3 21.08 17.03 21.3 16.74 21.46 16.43 21.56 16.12 21.66 15.75 21.72 15.3 21.74L15.3 22.76 14.5 22.76 14.5 21.74C13.97 21.69 13.54 21.61 13.21 21.48 12.88 21.35 12.6 21.18 12.36 20.96 12.12 20.74 11.94 20.5 11.81 20.25 11.68 20 11.58 19.69 11.52 19.33L13.71 19.08C13.77 19.44 13.86 19.7 13.97 19.85 14.08 20.01 14.26 20.15 14.51 20.27L14.51 18.36C13.78 18.16 13.26 17.98 12.96 17.83 12.66 17.68 12.39 17.44 12.17 17.12 11.95 16.79 11.83 16.4 11.83 15.93 11.83 15.29 12.05 14.75 12.5 14.32 12.95 13.89 13.62 13.65 14.5 13.6L14.5 13.07 15.29 13.07 15.29 13.6C16.1 13.65 16.72 13.84 17.14 14.17 17.57 14.5 17.85 14.96 17.98 15.54ZM14.5 14.99C14.27 15.07 14.11 15.16 14.02 15.27 13.93 15.38 13.88 15.51 13.88 15.67 13.88 15.83 13.93 15.97 14.02 16.09 14.11 16.21 14.27 16.31 14.5 16.39L14.5 14.99ZM15.29 20.32C15.6 20.25 15.82 20.14 15.96 19.98 16.1 19.82 16.17 19.65 16.17 19.45 16.17 19.28 16.11 19.12 15.99 18.98 15.87 18.84 15.63 18.7 15.28 18.58L15.28 20.32Z" class="st0 MsftOfcResponsive_Fill_7823dc" fill="#7823DC"/></g></g></svg>