<svg width="36.5" height="36.6" viewBox="0 0 36.5 36.6" xmlns="http://www.w3.org/2000/svg" xmlns:xlink="http://www.w3.org/1999/xlink" overflow="hidden"><defs></defs><g><g><defs><path d="M0 36.5 36.5 36.5 36.5 0 0 0 0 36.5Z" id="SVGID_1_" fill="#7823DC"/></defs><clipPath id="SVGID_2_"><use width="100%" height="100%" xlink:href="#SVGID_1_"></use></clipPath><g clip-path="url(#SVGID_2_)"><defs><path d="M0 36.5 36.5 36.5 36.5 0 0 0 0 36.5Z" id="SVGID_3_" fill="#7823DC"/></defs><clipPath id="SVGID_4_"><use width="100%" height="100%" xlink:href="#SVGID_3_"></use></clipPath><path d="M18.2 2.3C27 2.3 34.2 9.5 34.2 18.3 34.2 27.1 27.1 34.3 18.2 34.3 9.4 34.3 2.2 27.1 2.2 18.3 2.2 9.5 9.4 2.3 18.2 2.3M18.2 0C8.2 0 0 8.2 0 18.3 0 28.4 8.2 36.6 18.2 36.6 28.3 36.6 36.4 28.4 36.4 18.3 36.5 8.2 28.3 0 18.2 0L18.2 0Z" fill="#7823DC" clip-path="url(#SVGID_4_)"/><path d="M18.2 16C19.5 16 20.5 17 20.5 18.3 20.5 19.6 19.5 20.6 18.2 20.6 16.9 20.6 15.9 19.6 15.9 18.3 16 17 17 16 18.2 16M18.2 13.7C15.7 13.7 13.6 15.7 13.6 18.3 13.6 20.8 15.6 22.9 18.2 22.9 20.8 22.9 22.8 20.9 22.8 18.3 22.8 15.8 20.8 13.7 18.2 13.7L18.2 13.7Z" fill="#7823DC" clip-path="url(#SVGID_4_)"/><rect x="7.3" y="9.2" width="2.3" height="13.5" fill="#7823DC" clip-path="url(#SVGID_4_)" transform="matrix(0.342 -0.9397 0.9397 0.342 -9.4356 18.4635)"/><rect x="21.1" y="14.8" width="13.5" height="2.3" fill="#7823DC" clip-path="url(#SVGID_4_)" transform="matrix(0.9398 -0.3417 0.3417 0.9398 -3.7807 10.4795)"/><rect x="17.1" y="21.3" width="2.3" height="14.5" fill="#7823DC" clip-path="url(#SVGID_4_)"/></g></g></g></svg>