<svg viewBox="0 0 29.22 29.22" xmlns="http://www.w3.org/2000/svg" xmlns:xlink="http://www.w3.org/1999/xlink" id="Layer_5" overflow="hidden"><defs></defs><path d="M23.47 18.17 19.96 12.66 19.92 12.6 6.21 12.6 2.3 18.96 0 18.96 0 23.77 2.93 26.71C3.1 28.16 4.27 29.2 5.73 29.2 6.9 29.2 7.91 28.53 8.35 27.47L19.32 27.47C19.75 28.52 20.77 29.2 21.94 29.2 23.11 29.2 24.12 28.53 24.56 27.47L29.22 27.47 29.22 19.98 23.47 18.15ZM2.06 21.04 12.67 21.04 12.67 25.43 8.37 25.43C7.94 24.27 6.92 23.52 5.74 23.52 4.49 23.52 3.45 24.27 3.06 25.43L2.06 25.43 2.06 21.04ZM5.74 25.58C6.21 25.58 6.52 25.89 6.52 26.37 6.52 26.85 6.21 27.16 5.74 27.16 5.27 27.16 4.96 26.85 4.96 26.37 4.96 25.89 5.27 25.58 5.74 25.58ZM12.67 14.67 12.67 18.97 4.71 18.97 7.25 14.67 12.67 14.67ZM27.16 23.85 27.16 25.42 24.62 25.42C24.23 24.26 23.19 23.51 21.94 23.51 20.69 23.51 19.65 24.26 19.26 25.42L14.73 25.42 14.73 21.03 25.69 21.03C25.69 21.03 27.15 21.45 27.15 21.45L27.15 21.78 25.34 21.78 25.34 23.85 27.15 23.85ZM14.73 18.97 14.73 14.67 18.88 14.67 21.64 18.97 14.73 18.97ZM21.94 25.58C22.41 25.58 22.72 25.89 22.72 26.37 22.72 26.85 22.41 27.16 21.94 27.16 21.47 27.16 21.16 26.85 21.16 26.37 21.16 25.89 21.57 25.58 21.94 25.58Z" stroke-width="0" fill="#7823DC"/><path d="M16.88 2.47 14.87 2.79C14.77 2.53 14.68 2.36 14.6 2.26 14.52 2.16 14.38 2.06 14.2 1.96L14.2 3.52C15.3 3.81 16.03 4.12 16.4 4.45 16.89 4.89 17.13 5.44 17.13 6.11 17.13 6.5 17.04 6.86 16.87 7.19 16.69 7.52 16.47 7.79 16.2 8.01 15.93 8.23 15.64 8.39 15.33 8.49 15.02 8.59 14.65 8.65 14.2 8.67L14.2 9.69 13.41 9.69 13.41 8.67C12.88 8.62 12.45 8.54 12.12 8.41 11.79 8.28 11.51 8.11 11.27 7.89 11.03 7.67 10.85 7.43 10.72 7.18 10.59 6.93 10.49 6.62 10.43 6.26L12.62 6.01C12.68 6.37 12.77 6.63 12.88 6.78 12.99 6.94 13.17 7.08 13.42 7.2L13.42 5.29C12.69 5.09 12.17 4.91 11.87 4.76 11.57 4.61 11.3 4.37 11.08 4.05 10.86 3.72 10.74 3.33 10.74 2.86 10.74 2.22 10.96 1.68 11.41 1.25 11.86 0.82 12.53 0.58 13.41 0.53L13.41 6.66134e-16 14.2 6.66134e-16 14.2 0.53C15.01 0.58 15.63 0.77 16.05 1.1 16.48 1.43 16.76 1.89 16.89 2.46ZM13.4 1.93C13.17 2.01 13.01 2.1 12.92 2.21 12.83 2.32 12.78 2.45 12.78 2.61 12.78 2.77 12.83 2.91 12.92 3.03 13.01 3.15 13.17 3.25 13.4 3.33L13.4 1.94ZM14.19 7.26C14.5 7.19 14.72 7.08 14.86 6.92 15 6.76 15.07 6.59 15.07 6.39 15.07 6.22 15.01 6.06 14.89 5.92 14.77 5.78 14.53 5.64 14.18 5.52L14.18 7.26Z" stroke-width="0" fill="#7823DC"/></svg>