<svg viewBox="0 0 32 32" xmlns="http://www.w3.org/2000/svg" xmlns:xlink="http://www.w3.org/1999/xlink" id="Grid" overflow="hidden"><defs></defs><path d="M20.5 12 20.5 10 21.5 10 21.5 0 13.5 0 13.5 2-4 2-4 8 13.5 8 13.5 10 14.5 10 14.5 12 10 12 10 32 32 32 32 12 20.5 12ZM19.5 2 19.5 8 15.5 8 15.5 2 19.5 2ZM-2 6-2 4 13.5 4 13.5 6-2 6ZM16.5 10 18.5 10 18.5 12 16.5 12 16.5 10ZM30 30 12 30 12 14 16.54 14 13.66 19.62 18.57 22.27 18.57 26.03 21.25 27.83 22.37 26.17 20.58 24.96 20.58 21.08 16.34 18.79 18.79 14 30 14 30 30Z" stroke-width="0" fill="#7823DC"/></svg>