<svg viewBox="0 0 32 32" xmlns="http://www.w3.org/2000/svg" xmlns:xlink="http://www.w3.org/1999/xlink" id="Layer_1" overflow="hidden"><style>
.MsftOfcResponsive_Fill_7823dc {
 fill:#7823DC; 
}
</style>
<path d="M19 2C19.6 2 20 2.4 20 3L20 5C20 5.6 19.6 6 19 6 18.4 6 18 5.6 18 5L18 3C18 2.4 18.5 2 19 2M19 0C17.3 0 16 1.3 16 3L16 5C16 6.7 17.3 8 19 8 20.7 8 22 6.7 22 5L22 3C22 1.3 20.7 0 19 0" class="MsftOfcResponsive_Fill_7823dc" fill="#7823DC"/><path d="M12 0 14 0 14 8 12 8 12 0Z" class="MsftOfcResponsive_Fill_7823dc" fill="#7823DC"/><path d="M7 2C7.6 2 8 2.4 8 3L8 5C8 5.6 7.6 6 7 6 6.5 6 6 5.6 6 5L6 3C6 2.4 6.5 2 7 2M7 0C5.4 0 4 1.3 4 3L4 5C4 6.7 5.3 8 7 8 8.7 8 10 6.7 10 5L10 3C10 1.3 8.7 0 7 0" class="MsftOfcResponsive_Fill_7823dc" fill="#7823DC"/><path d="M0 0 2 0 2 8 0 8 0 0Z" class="MsftOfcResponsive_Fill_7823dc" fill="#7823DC"/><path d="M24 0 26 0 26 8 24 8 24 0Z" class="MsftOfcResponsive_Fill_7823dc" fill="#7823DC"/><path d="M31 6C30.4 6 30 5.6 30 5L30 3C30 2.4 30.4 2 31 2 31.6 2 32 2.4 32 3L32 0.2C30.4-0.4 28.7 0.5 28.2 2 28.1 2.3 28 2.7 28 3L28 5C28 6.7 29.4 8 31 8 31.3 8 31.7 7.9 32 7.8L32 5C32 5.6 31.6 6 31 6" class="MsftOfcResponsive_Fill_7823dc" fill="#7823DC"/><path d="M13 11.9C13.6 11.9 14 12.3 14 12.9L14 14.9C14 15.5 13.6 15.9 13 15.9 12.4 15.9 12 15.5 12 14.9L12 12.9C12 12.3 12.5 11.9 13 11.9M13 9.9C11.3 9.9 10 11.2 10 12.9L10 14.9C10 16.6 11.3 17.9 13 17.9 14.7 17.9 16 16.6 16 14.9L16 12.9C16 11.2 14.7 9.9 13 9.9" class="MsftOfcResponsive_Fill_7823dc" fill="#7823DC"/><path d="M18 9.9 20 9.9 20 17.9 18 17.9 18 9.9Z" class="MsftOfcResponsive_Fill_7823dc" fill="#7823DC"/><path d="M25 11.9C25.6 11.9 26 12.3 26 12.9L26 14.9C26 15.5 25.6 15.9 25 15.9 24.4 15.9 24 15.5 24 14.9L24 12.9C24 12.3 24.5 11.9 25 11.9M25 9.9C23.3 9.9 22 11.2 22 12.9L22 14.9C22 16.6 23.3 17.9 25 17.9 26.7 17.9 28 16.6 28 14.9L28 12.9C28 11.2 26.7 9.9 25 9.9" class="MsftOfcResponsive_Fill_7823dc" fill="#7823DC"/><path d="M30 9.9 32 9.9 32 17.9 30 17.9 30 9.9Z" class="MsftOfcResponsive_Fill_7823dc" fill="#7823DC"/><path d="M6 9.9 8 9.9 8 17.9 6 17.9 6 9.9Z" class="MsftOfcResponsive_Fill_7823dc" fill="#7823DC"/><path d="M1 15.9C1.6 15.9 2 15.5 2 14.9L2 12.9C2 12.3 1.6 11.9 1 11.9 0.4 11.9 0 12.3 0 12.9L0 10.1C0.4 10 0.7 9.9 1 9.9 2.7 9.9 4 11.2 4 12.9L4 14.9C4 16.6 2.7 17.9 1 17.9 0.7 17.9 0.3 17.8 0 17.7L0 14.9C0 15.5 0.5 15.9 1 15.9" class="MsftOfcResponsive_Fill_7823dc" fill="#7823DC"/><path d="M9 25.4 32 25.4 32 27.7 9 27.7 9 25.4Z" class="MsftOfcResponsive_Fill_7823dc" fill="#7823DC" fill-rule="evenodd" clip-rule="evenodd"/><line x1="20.4" y1="26.3" x2="20.4" y2="32" fill="#7823DC" fill-rule="evenodd" clip-rule="evenodd"/><path d="M25.7 25.4 28 25.4 28 30 25.7 30 25.7 25.4Z" class="MsftOfcResponsive_Fill_7823dc" fill="#7823DC" fill-rule="evenodd" clip-rule="evenodd"/><path d="M21.7 25.4 24 25.4 24 31 21.7 31 21.7 25.4Z" class="MsftOfcResponsive_Fill_7823dc" fill="#7823DC" fill-rule="evenodd" clip-rule="evenodd"/><path d="M32 32 29.9 29.3 29.9 25.4 32 25.4 32 32 32 32 32 32Z" class="MsftOfcResponsive_Fill_7823dc" fill="#7823DC" fill-rule="evenodd" clip-rule="evenodd"/><path d="M5.4 23.1C7.3 23.1 8.8 24.6 8.8 26.5 8.8 28.4 7.3 30 5.4 30 3.5 30 2 28.5 2 26.6 2 24.7 3.5 23.1 5.4 23.1M5.4 21.1C2.4 21.1 0 23.5 0 26.5 0 29.5 2.4 32 5.4 32 8.4 32 10.8 29.6 10.8 26.6 10.8 23.6 8.4 21.1 5.4 21.1L5.4 21.1Z" class="MsftOfcResponsive_Fill_7823dc" fill="#7823DC"/></svg>