<svg viewBox="0 0 29.22 29.22" xmlns="http://www.w3.org/2000/svg" xmlns:xlink="http://www.w3.org/1999/xlink" id="Layer_5" overflow="hidden"><defs><clipPath id="clippath"><rect x="22.13" y="6.86" width="8.26" height="10.95" stroke-width="0" fill="none"/></clipPath></defs><path d="M23.47 18.17 19.96 12.66 19.92 12.6 6.21 12.6 2.3 18.96 1.84 18.96 1.84 12.45C1.84 9 4.64 6.27 8 6.27L8.75 6.27C8.8 8.31 10.45 9.94 12.5 9.94L16.09 9.94 16.09 8.99 19.76 8.99 19.76 7.15 16.09 7.15 16.09 3.54 19.76 3.54 19.76 1.7 16.09 1.7 16.09 0.75 12.5 0.75C10.45 0.75 8.8 2.38 8.75 4.42L8 4.42C3.6 4.44 0 8.05 0 12.46L0 19.2 0 19.2 0 23.78 2.93 26.72C3.1 28.17 4.27 29.21 5.74 29.21 6.91 29.21 7.92 28.54 8.36 27.48L19.33 27.48C19.76 28.53 20.78 29.21 21.95 29.21 23.12 29.21 24.13 28.54 24.57 27.48L29.23 27.48 29.23 19.99 23.48 18.16ZM10.58 4.53C10.58 3.49 11.46 2.61 12.5 2.61L14.26 2.61 14.26 8.12 12.5 8.12C11.46 8.12 10.58 7.24 10.58 6.2L10.58 4.52ZM14.73 14.67 18.88 14.67 21.64 18.97 14.73 18.97 14.73 14.67ZM5.74 27.15C5.27 27.15 4.96 26.84 4.96 26.36 4.96 25.88 5.27 25.57 5.74 25.57 6.21 25.57 6.52 25.88 6.52 26.36 6.52 26.84 6.21 27.15 5.74 27.15ZM12.67 25.42 8.36 25.42C7.93 24.26 6.91 23.51 5.73 23.51 4.48 23.51 3.44 24.26 3.05 25.42L2.05 25.42 2.05 21.03 12.67 21.03 12.67 25.42ZM12.67 18.97 4.71 18.97 7.25 14.67 12.67 14.67 12.67 18.97ZM21.94 27.15C21.47 27.15 21.16 26.84 21.16 26.36 21.16 25.88 21.57 25.57 21.94 25.57 22.41 25.57 22.72 25.88 22.72 26.36 22.72 26.84 22.41 27.15 21.94 27.15ZM27.16 21.79 25.35 21.79 25.35 23.86 27.16 23.86 27.16 25.43 24.62 25.43C24.23 24.27 23.19 23.52 21.94 23.52 20.69 23.52 19.65 24.27 19.26 25.43L14.73 25.43 14.73 21.04 25.69 21.04C25.69 21.04 27.15 21.46 27.15 21.46L27.15 21.79Z" stroke-width="0" fill="#7823DC" fill-rule="evenodd"/><g clip-path="url(#clippath)"><path d="M28.6 9.33 26.59 9.65C26.49 9.39 26.4 9.22 26.32 9.12 26.24 9.02 26.1 8.92 25.92 8.82L25.92 10.38C27.02 10.67 27.75 10.98 28.12 11.31 28.61 11.75 28.85 12.3 28.85 12.97 28.85 13.36 28.76 13.72 28.59 14.05 28.41 14.38 28.19 14.65 27.92 14.87 27.65 15.09 27.36 15.25 27.05 15.35 26.74 15.45 26.37 15.51 25.92 15.53L25.92 16.55 25.13 16.55 25.13 15.53C24.6 15.48 24.17 15.4 23.84 15.27 23.51 15.14 23.23 14.97 22.99 14.75 22.75 14.53 22.57 14.29 22.44 14.04 22.31 13.79 22.21 13.48 22.15 13.12L24.34 12.87C24.4 13.23 24.49 13.49 24.6 13.64 24.71 13.8 24.89 13.94 25.14 14.06L25.14 12.15C24.41 11.95 23.89 11.77 23.59 11.62 23.29 11.47 23.02 11.23 22.8 10.91 22.58 10.58 22.46 10.19 22.46 9.72 22.46 9.08 22.68 8.54 23.13 8.11 23.58 7.68 24.25 7.44 25.13 7.39L25.13 6.86 25.92 6.86 25.92 7.39C26.73 7.44 27.35 7.63 27.77 7.96 28.2 8.29 28.48 8.75 28.61 9.32ZM25.12 8.79C24.89 8.87 24.73 8.96 24.64 9.07 24.55 9.18 24.5 9.31 24.5 9.47 24.5 9.63 24.55 9.77 24.64 9.89 24.73 10.01 24.89 10.11 25.12 10.19L25.12 8.8ZM25.91 14.12C26.22 14.05 26.44 13.94 26.58 13.78 26.72 13.62 26.79 13.45 26.79 13.25 26.79 13.08 26.73 12.92 26.61 12.78 26.49 12.64 26.25 12.5 25.9 12.38L25.9 14.12Z" stroke-width="0" fill="#7823DC"/></g><path d="M24.66 5.46 26.43 5.45 26.43 3.26 28.1 4.93 28.1 2.47 25.54 0 22.98 2.47 22.98 4.85 24.66 3.26 24.66 5.46Z" stroke-width="0" fill="#7823DC" fill-rule="evenodd"/></svg>