<svg viewBox="0 0 32 32" xmlns="http://www.w3.org/2000/svg" xmlns:xlink="http://www.w3.org/1999/xlink" id="Layer_1" xml:space="preserve" overflow="hidden"><style>
.MsftOfcResponsive_Fill_7823dc {
 fill:#7823DC; 
}
</style>
<g><path d="M3.6 4 23.9 4 23.9 5.9 3.6 5.9 3.6 4Z" class="MsftOfcResponsive_Fill_7823dc" fill="#7823DC" fill-rule="evenodd" clip-rule="evenodd"/><path d="M3.6 18 23.9 18 23.9 20 3.6 20 3.6 18Z" class="MsftOfcResponsive_Fill_7823dc" fill="#7823DC" fill-rule="evenodd" clip-rule="evenodd"/><path d="M22.5 23.8 5 23.8 5 0 22.5 0 22.5 23.8 22.5 23.8 22.5 23.8 22.5 23.8ZM6.9 21.8 20.6 21.8 20.6 2.1 6.9 2.1 6.9 21.8 6.9 21.8 6.9 21.8 6.9 21.8Z" class="MsftOfcResponsive_Fill_7823dc" fill="#7823DC" fill-rule="evenodd" clip-rule="evenodd"/><path d="M11.6 11.1 16.1 11.1 16.1 13 11.6 13 11.6 11.1 11.6 11.1 11.6 11.1Z" class="MsftOfcResponsive_Fill_7823dc" fill="#7823DC" fill-rule="evenodd" clip-rule="evenodd"/><path d="M16.1 6.5 11.6 11.1 12.8 12.5 16.1 9.1 16.1 6.5" class="MsftOfcResponsive_Fill_7823dc" fill="#7823DC" fill-rule="evenodd" clip-rule="evenodd"/><path d="M11.6 17.7 16.1 13 14.8 11.7 11.6 15.1 11.6 17.7" class="MsftOfcResponsive_Fill_7823dc" fill="#7823DC" fill-rule="evenodd" clip-rule="evenodd"/><path d="M7 23.4 7.9 23.3 20.1 30.2 19.3 31.9 7 25 7 23.4Z" class="MsftOfcResponsive_Fill_7823dc" fill="#7823DC" fill-rule="evenodd" clip-rule="evenodd"/><path d="M7.3 30.2 19.4 23.5 20.1 25.1 8.2 31.9 7.3 28.6 7.3 30.2Z" class="MsftOfcResponsive_Fill_7823dc" fill="#7823DC" fill-rule="evenodd" clip-rule="evenodd"/><path d="M6.9 22.9 8.9 22.9 8.9 31.9 6.9 31.9 6.9 22.9Z" class="MsftOfcResponsive_Fill_7823dc" fill="#7823DC" fill-rule="evenodd" clip-rule="evenodd"/><path d="M18.7 22.9 20.7 22.9 20.7 31.9 18.7 31.9 18.7 22.9Z" class="MsftOfcResponsive_Fill_7823dc" fill="#7823DC" fill-rule="evenodd" clip-rule="evenodd"/><path d="M28.4 32 26.4 32 26.4 12.4 21.5 12.4 21.5 10.5 28.4 10.5 28.4 32Z" class="MsftOfcResponsive_Fill_7823dc" fill="#7823DC" fill-rule="evenodd" clip-rule="evenodd"/></g></svg>