<svg viewBox="0 0 32 32" xmlns="http://www.w3.org/2000/svg" xmlns:xlink="http://www.w3.org/1999/xlink" id="Layer_1" xml:space="preserve" overflow="hidden"><g><path d="M4.8 13.1C4.9 13.1 5 13.2 5 13.3L5 30 3 30 3 13.3C3 13.2 3.1 13.1 3.2 13.1L4.8 13.1M4.8 11.1 3.2 11.1C2 11.1 1 12.1 1 13.3L1 32 6.9 32 6.9 13.3C6.9 12.1 5.9 11.1 4.8 11.1L4.8 11.1 4.8 11.1 4.8 11.1Z" fill="#7823DC" fill-rule="evenodd" clip-rule="evenodd"/><path d="M3 7.1 4.9 7.1 4.9 13.1 3 13.1 3 7.1Z" fill="#7823DC" fill-rule="evenodd" clip-rule="evenodd"/><path d="M4 8.1C1.8 8.1 0 6.3 0 4.1 0 1.9 1.8 0.1 4 0.1 6.2 0.1 8 1.9 8 4.1 8 6.3 6.2 8.1 4 8.1L4 8.1ZM4 2.2C2.9 2.2 2 3.1 2 4.2 2 5.3 2.9 6.2 4 6.2 5.1 6.2 6 5.3 6 4.2 6 3.1 5.1 2.2 4 2.2L4 2.2Z" fill="#7823DC" fill-rule="evenodd" clip-rule="evenodd"/><path d="M16.5 13.1C16.6 13.1 16.7 13.2 16.7 13.3L16.7 30 14.7 30 14.7 13.3C14.7 13.2 14.8 13.1 14.9 13.1L16.5 13.1M16.5 11.2 14.8 11.2C13.7 11.2 12.7 12.2 12.7 13.4L12.7 32 18.7 32 18.7 13.3C18.7 12.2 17.7 11.2 16.5 11.2L16.5 11.2 16.5 11.2 16.5 11.2Z" fill="#7823DC" fill-rule="evenodd" clip-rule="evenodd"/><path d="M14.7 7.1 16.7 7.1 16.7 13.1 14.7 13.1 14.7 7.1Z" fill="#7823DC" fill-rule="evenodd" clip-rule="evenodd"/><path d="M16.7 8.1C13.9 8.1 11.8 6.3 11.8 4.1 11.8 1.9 14 0.1 16.7 0.1L16.7 2.1C15.1 2.1 13.7 3 13.7 4.1 13.7 5.2 15.1 6.1 16.7 6.1L16.7 8.1 16.7 8.1 16.7 8.1Z" fill="#7823DC" fill-rule="evenodd" clip-rule="evenodd"/><path d="M25.8 8C29.2 8 31.8 6.2 31.8 4 31.8 1.8 29.2 0 25.8 0L25.8 2C28.1 2 29.8 3.1 29.8 4 29.8 4.9 28.1 6 25.8 6L25.8 8 25.8 8 25.8 8Z" fill="#7823DC" fill-rule="evenodd" clip-rule="evenodd"/><path d="M25.8 0 23.9 0 23.9 8 25.8 8 25.8 0Z" fill="#7823DC" fill-rule="evenodd" clip-rule="evenodd"/><path d="M27.1 13.1C27 13.1 26.9 13.2 26.9 13.3L26.9 30 28.9 30 28.9 13.3C28.9 13.2 28.8 13.1 28.7 13.1L27.1 13.1M27.1 11.1 28.8 11.1C29.9 11.1 30.9 12.1 30.9 13.3L30.9 32 24.9 32 24.9 13.3C24.9 12.1 25.9 11.1 27.1 11.1L27.1 11.1 27.1 11.1 27.1 11.1Z" fill="#7823DC" fill-rule="evenodd" clip-rule="evenodd"/><path d="M28.9 6.9 26.9 6.9 26.9 12.9 28.9 12.9 28.9 6.9Z" fill="#7823DC" fill-rule="evenodd" clip-rule="evenodd"/><path d="M24.9 2.9 21.9 2.9 21.9 4.9 24.9 4.9 24.9 2.9Z" fill="#7823DC" fill-rule="evenodd" clip-rule="evenodd"/></g></svg>