<svg width="36.5" height="36.6" viewBox="0 0 36.5 36.6" xmlns="http://www.w3.org/2000/svg" xmlns:xlink="http://www.w3.org/1999/xlink" overflow="hidden"><defs></defs><g><g><defs><path d="M0 36.5 36.5 36.5 36.5 0 0 0 0 36.5Z" id="SVGID_1_" fill="#7823DC"/></defs><clipPath id="SVGID_2_"><use width="100%" height="100%" xlink:href="#SVGID_1_"></use></clipPath><g clip-path="url(#SVGID_2_)"><defs><path d="M0 36.5 36.5 36.5 36.5 0 0 0 0 36.5Z" id="SVGID_3_" fill="#7823DC"/></defs><clipPath id="SVGID_4_"><use width="100%" height="100%" xlink:href="#SVGID_3_"></use></clipPath><path d="M8 16C8.6 16 9.1 16.5 9.1 17.1 9.1 17.7 8.6 18.2 8 18.2 7.4 18.2 6.9 17.7 6.9 17.1 6.8 16.5 7.4 16 8 16M8 13.7C6.1 13.7 4.6 15.2 4.6 17.1 4.6 19 6.1 20.5 8 20.5 9.9 20.5 11.4 19 11.4 17.1 11.4 15.2 9.9 13.7 8 13.7L8 13.7Z" fill="#7823DC" clip-path="url(#SVGID_4_)"/><path d="M31.9 17.1C31.9 15.2 30.4 13.7 28.5 13.7 26.6 13.7 25.1 15.2 25.1 17.1 25.1 19 26.6 20.5 28.5 20.5 30.4 20.5 31.9 19 31.9 17.1L31.9 17.1ZM28.5 18.3C27.9 18.3 27.4 17.8 27.4 17.2 27.4 16.6 27.9 16.1 28.5 16.1 29.1 16.1 29.6 16.6 29.6 17.2 29.6 17.8 29.1 18.3 28.5 18.3L28.5 18.3Z" fill="#7823DC" clip-path="url(#SVGID_4_)"/><path d="M31.9 17.1C31.9 15.2 30.4 13.7 28.5 13.7 26.6 13.7 25.1 15.2 25.1 17.1 25.1 19 26.6 20.5 28.5 20.5 30.4 20.5 31.9 19 31.9 17.1L31.9 17.1ZM28.5 18.3C27.9 18.3 27.4 17.8 27.4 17.2 27.4 16.6 27.9 16.1 28.5 16.1 29.1 16.1 29.6 16.6 29.6 17.2 29.6 17.8 29.1 18.3 28.5 18.3L28.5 18.3Z" fill="#7823DC" clip-path="url(#SVGID_4_)"/><path d="M17.1 14.9C17.1 15.2 17.2 15.5 17.4 15.7 17.2 15.5 17.1 15.2 17.1 14.9L17.1 14.9Z" fill="#7823DC" clip-path="url(#SVGID_4_)"/><path d="M17.1 14.9C17.1 14.6 17.2 14.3 17.4 14.1 17.2 14.3 17.1 14.6 17.1 14.9L17.1 14.9Z" fill="#7823DC" clip-path="url(#SVGID_4_)"/><path d="M17.4 14C17.6 13.8 17.9 13.7 18.2 13.7 17.9 13.7 17.7 13.8 17.4 14L17.4 14Z" fill="#7823DC" clip-path="url(#SVGID_4_)"/><path d="M18.2 16C17.9 16 17.6 15.9 17.4 15.7 17.7 15.9 17.9 16 18.2 16L18.2 16Z" fill="#7823DC" clip-path="url(#SVGID_4_)"/><path d="M18.2 18.3C20.1 18.3 21.6 16.8 21.6 14.9 21.6 13 20.1 11.5 18.2 11.5 16.3 11.5 14.8 13 14.8 14.9 14.8 16.7 16.4 18.3 18.2 18.3L18.2 18.3ZM17.4 14C17.8 13.6 18.6 13.5 19 14 19.4 14.4 19.5 15.2 19 15.6 18.6 16 17.8 16.1 17.4 15.6 17.2 15.4 17.1 15.1 17.1 14.8 17.1 14.6 17.2 14.3 17.4 14L17.4 14Z" fill="#7823DC" clip-path="url(#SVGID_4_)"/><path d="M17.1 18.4 12.9 18.4 7.8 34.4 10 35.1 14.5 20.8 12.6 36.6 14.9 36.6 17.1 18.4 17.1 18.4Z" fill="#7823DC" clip-path="url(#SVGID_4_)"/><path d="M22 20.8 26.5 35.1 28.7 34.4 23.6 18.4 19.4 18.4 21.6 36.6 23.9 36.6 22 20.8 22 20.8Z" fill="#7823DC" clip-path="url(#SVGID_4_)"/><path d="M17.1 3.4C17.1 3.1 17.2 2.8 17.4 2.6 17.2 2.8 17.1 3.1 17.1 3.4L17.1 3.4Z" fill="#7823DC" clip-path="url(#SVGID_4_)"/><path d="M17.4 2.6C17.6 2.4 17.9 2.3 18.2 2.3 17.9 2.3 17.7 2.4 17.4 2.6L17.4 2.6Z" fill="#7823DC" clip-path="url(#SVGID_4_)"/><path d="M17.1 3.4C17.1 3.7 17.2 4 17.4 4.2 17.2 4 17.1 3.7 17.1 3.4L17.1 3.4Z" fill="#7823DC" clip-path="url(#SVGID_4_)"/><path d="M18.2 4.6C17.9 4.6 17.6 4.5 17.4 4.3 17.7 4.5 17.9 4.6 18.2 4.6L18.2 4.6Z" fill="#7823DC" clip-path="url(#SVGID_4_)"/><path d="M18.2 6.9C20.1 6.9 21.6 5.4 21.6 3.5 21.6 1.6 20.1 0 18.2 0 16.3 0 14.8 1.5 14.8 3.4 14.8 5.3 16.4 6.9 18.2 6.9L18.2 6.9ZM17.4 2.6C17.8 2.2 18.6 2.1 19 2.6 19.4 3 19.5 3.8 19 4.2 18.6 4.6 17.8 4.7 17.4 4.2 17.2 4 17.1 3.7 17.1 3.4 17.1 3.1 17.2 2.8 17.4 2.6L17.4 2.6Z" fill="#7823DC" clip-path="url(#SVGID_4_)"/><path d="M17.1 6.9 12.9 6.9 10.8 13.7 13.1 13.7 14.5 9.4 14.3 11.5 16.6 11.5 17.1 6.9 17.1 6.9Z" fill="#7823DC" clip-path="url(#SVGID_4_)"/><path d="M22 9.4 23.4 13.7 25.7 13.7 23.6 6.9 19.4 6.9 19.9 11.5 22.2 11.5 22 9.4 22 9.4Z" fill="#7823DC" clip-path="url(#SVGID_4_)"/><path d="M8 16C8.6 16 9.1 16.5 9.1 17.1 9.1 17.7 8.6 18.2 8 18.2 7.4 18.2 6.9 17.7 6.9 17.1 6.8 16.5 7.4 16 8 16M8 13.7C6.1 13.7 4.6 15.2 4.6 17.1 4.6 19 6.1 20.5 8 20.5 9.9 20.5 11.4 19 11.4 17.1 11.4 15.2 9.9 13.7 8 13.7L8 13.7Z" fill="#7823DC" clip-path="url(#SVGID_4_)"/><path d="M6.8 20.6 2.6 20.6 0 28.9 0 36.5 4.2 23 2.6 36.6 4.9 36.6 6.8 20.6 6.8 20.6Z" fill="#7823DC" clip-path="url(#SVGID_4_)"/><path d="M7.3 4.6C7.9 4.6 8.4 5.1 8.4 5.7 8.4 6.3 7.9 6.8 7.3 6.8 6.7 6.8 6.2 6.3 6.2 5.7 6.2 5.1 6.7 4.6 7.3 4.6M7.3 2.3C5.4 2.3 3.9 3.8 3.9 5.7 3.9 7.6 5.4 9.1 7.3 9.1 9.2 9.1 10.7 7.6 10.7 5.7 10.8 3.8 9.2 2.3 7.3 2.3L7.3 2.3Z" fill="#7823DC" clip-path="url(#SVGID_4_)"/><path d="M6.2 9.2 2 9.2 0 15.4 0 23 3.6 11.6 3.3 13.7 5.6 13.7 6.2 9.2 6.2 9.2Z" fill="#7823DC" clip-path="url(#SVGID_4_)"/><path d="M32.3 23 36.5 36.4 36.5 28.8 33.9 20.6 29.7 20.6 31.6 36.6 33.9 36.6 32.3 23 32.3 23Z" fill="#7823DC" clip-path="url(#SVGID_4_)"/><path d="M32.6 5.7C32.6 3.8 31.1 2.3 29.2 2.3 27.3 2.3 25.8 3.8 25.8 5.7 25.8 7.6 27.3 9.1 29.2 9.1 31.1 9.1 32.6 7.6 32.6 5.7L32.6 5.7ZM29.2 6.9C28.6 6.9 28.1 6.4 28.1 5.8 28.1 5.2 28.6 4.7 29.2 4.7 29.8 4.7 30.3 5.2 30.3 5.8 30.3 6.3 29.8 6.9 29.2 6.9L29.2 6.9Z" fill="#7823DC" clip-path="url(#SVGID_4_)"/><path d="M32.9 11.6 36.5 23 36.5 15.4 34.5 9.2 30.3 9.2 30.9 13.7 33.2 13.7 32.9 11.6 32.9 11.6Z" fill="#7823DC" clip-path="url(#SVGID_4_)"/></g></g></g></svg>