<svg width="31.33" height="30.1" viewBox="0 0 31.33 30.1" xmlns="http://www.w3.org/2000/svg" xmlns:xlink="http://www.w3.org/1999/xlink" overflow="hidden"><style>
.MsftOfcResponsive_Fill_7823dc {
 fill:#7823DC; 
}
</style>
<defs></defs><g><path d="M15.67 30.1C15.53 30.1 15.39 30.07 15.26 30.01 14.79 29.8 3.8 24.7 0.71 14.39-0.47 10.45-0.16 6.49 1.55 3.81 2.86 1.77 4.92 0.49 7.52 0.11 10.05-0.25 12.25 0.3 13.88 1.71 14.62 2.35 15.22 3.15 15.67 4.09 16.12 3.15 16.72 2.35 17.46 1.71 19.09 0.3 21.29-0.25 23.82 0.11 26.42 0.48 28.49 1.76 29.79 3.81 31.5 6.49 31.82 10.44 30.63 14.39 27.53 24.7 16.55 29.8 16.08 30.01 15.95 30.07 15.81 30.1 15.67 30.1ZM8.99 2C8.61 2 8.21 2.03 7.81 2.09 5.77 2.38 4.23 3.32 3.24 4.88 1.84 7.08 1.61 10.41 2.63 13.81 5.14 22.17 13.68 26.97 15.67 27.98 17.66 26.96 26.2 22.17 28.71 13.81 29.73 10.41 29.5 7.08 28.1 4.88 27.1 3.32 25.56 2.38 23.53 2.09 21.59 1.81 19.94 2.2 18.77 3.22 17.4 4.41 16.67 6.44 16.67 9.1 16.67 9.65 16.22 10.1 15.67 10.1 15.12 10.1 14.67 9.65 14.67 9.1 14.67 6.44 13.95 4.41 12.57 3.22 11.64 2.41 10.42 2 8.99 2Z" class="MsftOfcResponsive_Fill_7823dc" fill="#7823DC"/></g><g><path d="M20.67 18.1C20.65 18.1 20.62 18.1 20.6 18.1 20.2 18.07 19.85 17.8 19.72 17.42L18.67 14.27 17.62 17.42C17.48 17.83 17.1 18.1 16.67 18.1L10.67 18.1C10.29 18.1 9.95 17.89 9.78 17.55L8.67 15.34 7.56 17.55C7.39 17.89 7.04 18.1 6.67 18.1L3.67 18.1C3.12 18.1 2.67 17.65 2.67 17.1 2.67 16.55 3.12 16.1 3.67 16.1L6.05 16.1 7.77 12.65C8.11 11.97 9.22 11.97 9.56 12.65L11.28 16.1 15.94 16.1 17.71 10.78C17.85 10.37 18.23 10.1 18.66 10.1 19.09 10.1 19.47 10.38 19.61 10.78L20.85 14.49 21.77 12.65C22.11 11.97 23.22 11.97 23.56 12.65L25.28 16.1 27.66 16.1C28.21 16.1 28.66 16.55 28.66 17.1 28.66 17.65 28.21 18.1 27.66 18.1L24.66 18.1C24.28 18.1 23.94 17.89 23.77 17.55L22.66 15.34 21.55 17.55C21.39 17.89 21.04 18.1 20.67 18.1Z" class="MsftOfcResponsive_Fill_7823dc" fill="#7823DC"/></g></svg>