<svg width="32" height="32" viewBox="0 0 32 32" xmlns="http://www.w3.org/2000/svg" xmlns:xlink="http://www.w3.org/1999/xlink" overflow="hidden"><defs></defs><g><g><rect x="26.99" y="3.05" width="1.3" height="3.91" fill="#7823DC" transform="matrix(0.7071 0.7071 -0.7071 0.7071 11.6302 -18.0777)"/></g><g><rect x="24.95" y="4.28" width="1.52" height="1.29" fill="#7823DC" transform="matrix(0.7071 0.7071 -0.7071 0.7071 11.0142 -16.7379)"/></g></g><g><g><rect x="15.89" y="3.1" width="1.3" height="3.91" fill="#7823DC" transform="matrix(0.7071 0.7071 -0.7071 0.7071 8.417 -10.2148)"/></g><g><rect x="13.85" y="4.34" width="1.52" height="1.29" fill="#7823DC" transform="matrix(0.7071 0.7071 -0.7071 0.7071 7.801 -8.8749)"/></g></g><g><g><rect x="4.93" y="3.05" width="1.3" height="3.91" fill="#7823DC" transform="matrix(0.7071 0.7071 -0.7071 0.7071 5.1707 -2.4831)"/></g><g><rect x="2.9" y="4.28" width="1.52" height="1.29" fill="#7823DC" transform="matrix(0.7071 0.7071 -0.7071 0.7071 4.5547 -1.1432)"/></g></g><g><path d="M8 2 8 8 2 8 2 2 8 2M10 0 0 0 0 10 10 10 10 0 10 0Z" fill="#7823DC"/></g><g><path d="M19 2 19 8 13 8 13 2 19 2M21 0 11 0 11 10 21 10 21 0 21 0Z" fill="#7823DC"/></g><g><path d="M30 2 30 8 24 8 24 2 30 2M32 0 22 0 22 10 32 10 32 0 32 0Z" fill="#7823DC"/></g><g><rect x="15" y="12.01" width="2" height="5.93" fill="#7823DC"/></g><g><g><rect x="6.05" y="11.82" width="2" height="5.93" fill="#7823DC" transform="matrix(0.7071 -0.7071 0.7071 0.7071 -8.3943 9.3158)"/></g><g><rect x="21.94" y="13.79" width="5.93" height="2" fill="#7823DC" transform="matrix(0.7071 -0.7071 0.7071 0.7071 -3.1641 21.9443)"/></g></g><g><path d="M21.54 21 10.46 21 8.17 17.55 9.83 16.44 11.54 19 20.46 19 22.17 16.44 23.83 17.55Z" fill="#7823DC"/></g><g><rect x="9.97" y="24" width="16.03" height="2" fill="#7823DC" transform="matrix(-1 -2.81363e-11 2.81363e-11 -1 35.9669 49.9991)"/></g><g><rect x="6" y="24" width="2" height="2" fill="#7823DC" transform="matrix(-1 -4.63844e-11 4.63844e-11 -1 13.9999 49.9991)"/></g><g><rect x="9.97" y="28" width="16.03" height="2" fill="#7823DC" transform="matrix(-1 -2.81363e-11 2.81363e-11 -1 35.9669 57.9991)"/></g><g><rect x="6" y="28" width="2" height="2" fill="#7823DC" transform="matrix(-1 -4.63844e-11 4.63844e-11 -1 13.9999 57.9991)"/></g><g><path d="M4 32 4 18 28.1 18 28.1 32 30.1 32 30.1 16 2 16 2 32Z" fill="#7823DC"/></g></svg>