<svg viewBox="0 0 32 32" xmlns="http://www.w3.org/2000/svg" xmlns:xlink="http://www.w3.org/1999/xlink" id="Layer_3" overflow="hidden"><style>
.MsftOfcResponsive_Fill_7823dc {
 fill:#7823DC; 
}
</style>
<defs></defs><path d="M29.7575 2.24243 29.7575 19.7576 2.24245 19.7576 2.24245 2.24243 29.7575 2.24243M32 0-1e-05 0-1e-05 22 32 22 32 0 32 0Z" class="MsftOfcResponsive_Fill_7823dc" fill="#7823DC"/><path d="M21 6C23.757 6 26 8.24304 26 11 26 13.757 23.757 16 21 16 18.243 16 16 13.757 16 11 16 8.24304 18.243 6 21 6M21 4C17.134 4 14 7.13403 14 11 14 14.866 17.134 18 21 18 24.866 18 28 14.866 28 11 28 7.13403 24.866 4 21 4L21 4Z" class="MsftOfcResponsive_Fill_7823dc" fill="#7823DC"/><rect x="19.9764" y="6" width="2" height="3.04867" class="MsftOfcResponsive_Fill_7823dc" fill="#7823DC"/><rect x="23.084" y="10.7749" width="2" height="4.04528" class="MsftOfcResponsive_Fill_7823dc" fill="#7823DC" transform="matrix(0.53046 -0.84771 0.84771 0.53046 0.45983 26.4252)"/><rect x="16.7373" y="11.0963" width="2" height="3.62517" class="MsftOfcResponsive_Fill_7823dc" fill="#7823DC" transform="matrix(-0.53046 -0.84771 0.84771 -0.53046 16.2032 34.7927)"/><path d="M20.9364 10.2845C21.3977 10.2845 21.7729 10.6598 21.7729 11.1211 21.7729 11.5824 21.3977 11.9577 20.9364 11.9577 20.4751 11.9577 20.0998 11.5824 20.0998 11.1211 20.0998 10.6598 20.4751 10.2845 20.9364 10.2845M20.9364 8.28455C19.3698 8.28455 18.0998 9.55457 18.0998 11.1211 18.0998 12.6876 19.3698 13.9577 20.9364 13.9577 22.503 13.9577 23.7729 12.6876 23.7729 11.1211 23.7729 9.55457 22.503 8.28455 20.9364 8.28455L20.9364 8.28455Z" class="MsftOfcResponsive_Fill_7823dc" fill="#7823DC"/><path d="M11.9764 4 3.97643 4 3.97643 6 11.9764 6 11.9764 4 11.9764 4Z" class="MsftOfcResponsive_Fill_7823dc" fill="#7823DC"/><path d="M11.9764 8 3.97643 8 3.97643 10 11.9764 10 11.9764 8 11.9764 8Z" class="MsftOfcResponsive_Fill_7823dc" fill="#7823DC"/><path d="M11.9764 12 3.97643 12 3.97643 14 11.9764 14 11.9764 12 11.9764 12Z" class="MsftOfcResponsive_Fill_7823dc" fill="#7823DC"/><path d="M11.9764 16 3.97643 16 3.97643 18 11.9764 18 11.9764 16 11.9764 16Z" class="MsftOfcResponsive_Fill_7823dc" fill="#7823DC"/><path d="M5.97643 22 3.97643 22 3.97643 30 5.97643 30 5.97643 22 5.97643 22Z" class="MsftOfcResponsive_Fill_7823dc" fill="#7823DC"/><path d="M32 30-1e-05 30-1e-05 32 32 32 32 30 32 30Z" class="MsftOfcResponsive_Fill_7823dc" fill="#7823DC"/><path d="M28.0061 22 26.0061 22 26.0061 30 28.0061 30 28.0061 22 28.0061 22Z" class="MsftOfcResponsive_Fill_7823dc" fill="#7823DC"/></svg>