<svg viewBox="0 0 29.22 29.22" xmlns="http://www.w3.org/2000/svg" xmlns:xlink="http://www.w3.org/1999/xlink" id="Layer_5" overflow="hidden"><defs></defs><path d="M28.08 5.22 8.94 5.22C8.47 3.39 6.72 2.08 4.54 2.08 1.97 2.08 0 3.97 0 6.22 0 8.47 2.07 10.36 4.54 10.36 6.59 10.36 8.36 9.12 8.9 7.36L18.01 7.36 18.01 8.29 20.28 10.36 20.28 7.36 22.48 7.36 22.48 10.36 24.75 10.36 24.75 7.36 26.95 7.36 26.95 10.36 29.22 10.36 29.22 5.22 28.09 5.22ZM4.53 8.37C3.25 8.37 2.26 7.47 2.26 6.3 2.26 5.13 3.25 4.23 4.53 4.23 5.81 4.23 6.8 5.13 6.8 6.3 6.8 7.38 5.81 8.37 4.53 8.37Z" stroke-width="0" fill="#7823DC" fill-rule="evenodd"/><path d="M20.36 20.99 20.36 29.22 22.43 29.22 22.43 19.66 18.76 19.66 14.58 24.69 10.45 19.66 6.78 19.66 6.78 29.22 8.85 29.22 8.85 21 14.58 28.05 20.36 20.99Z" stroke-width="0" fill="#7823DC"/><path d="M14.64 11.37C12.17 11.37 10.24 13.3 10.24 15.76 10.24 18.22 12.21 20.21 14.64 20.21 17.07 20.21 19.04 18.24 19.04 15.82 19.04 13.4 17.07 11.37 14.64 11.37ZM14.64 18.2C13.32 18.2 12.25 17.13 12.25 15.82 12.25 14.51 13.34 13.44 14.64 13.44 15.94 13.44 17.03 14.53 17.03 15.82 17.03 17.11 15.96 18.2 14.64 18.2Z" stroke-width="0" fill="#7823DC"/></svg>