<svg viewBox="0 0 32 32" xmlns="http://www.w3.org/2000/svg" xmlns:xlink="http://www.w3.org/1999/xlink" id="Layer_1" overflow="hidden"><style>
.MsftOfcResponsive_Fill_7823dc {
 fill:#7823DC; 
}
</style>
<path d="M26 32C24.84 32 23.66 31.64 22.68 31L18.29 31C17.21 31.66 16.1 32 15 32 11.64 32 9 29.36 9 26 9 22.64 11.64 20 15 20 16.16 20 17.35 20.36 18.32 21L22.71 21C23.79 20.34 24.9 20 26 20 29.36 20 32 22.64 32 26 32 29.36 29.36 32 26 32ZM17.7 29 23.34 29 23.61 29.2C24.28 29.7 25.17 30 26.01 30 28.25 30 30.01 28.24 30.01 26 30.01 22.95 26.74 20.71 23.56 22.83L23.31 23 17.67 23 17.4 22.8C16.73 22.3 15.84 22 15 22 12.76 22 11 23.76 11 26 11 29.05 14.27 31.29 17.45 29.17L17.7 29Z" class="MsftOfcResponsive_Fill_7823dc" fill="#7823DC"/><path d="M10 27.6C9.9 27.6 9.79 27.58 9.69 27.55 4.07 25.7 0 20 0 14 0 6.28 6.28 0 14 0 21.72 0 28 6.28 28 14 28 15.24 27.85 19.45 25.92 21.52 25.54 21.93 24.91 21.95 24.51 21.57 24.11 21.19 24.08 20.56 24.46 20.16 25.53 19.01 26.01 16.24 26.01 14 26.01 7.38 20.63 2 14.01 2 7.39 2 2 7.38 2 14 2 19.85 6.18 24.29 10.31 25.65 10.83 25.82 11.12 26.39 10.95 26.91 10.81 27.33 10.42 27.6 10 27.6Z" class="MsftOfcResponsive_Fill_7823dc" fill="#7823DC"/><path d="M10 24.7C9.63 24.7 9.28 24.5 9.1 24.15 7.74 21.43 6.99 17.83 6.99 14 7 6.15 10.07 0 14 0 17.93 0 21 6.15 21 14 21 16.2 20.57 20.19 19.76 21.97 19.53 22.47 18.94 22.69 18.43 22.46 17.93 22.23 17.71 21.64 17.94 21.13 18.54 19.82 19 16.22 19 14 19 6.93 16.36 2 14 2 11.64 2 9 6.93 9 14 9 17.52 9.67 20.81 10.89 23.25 11.14 23.74 10.94 24.34 10.44 24.59 10.3 24.66 10.14 24.7 9.99 24.7Z" class="MsftOfcResponsive_Fill_7823dc" fill="#7823DC"/><path d="M27 15 1 15C0.45 15 0 14.55 0 14 0 13.45 0.45 13 1 13L27 13C27.55 13 28 13.45 28 14 28 14.55 27.55 15 27 15Z" class="MsftOfcResponsive_Fill_7823dc" fill="#7823DC"/><rect x="13.96" y="23.86" width="2" height="4.27" class="MsftOfcResponsive_Fill_7823dc" fill="#7823DC"/><rect x="12.82" y="25" width="4.27" height="2" class="MsftOfcResponsive_Fill_7823dc" fill="#7823DC"/><circle cx="27.28" cy="26" r="1" class="MsftOfcResponsive_Fill_7823dc" fill="#7823DC"/><circle cx="24.72" cy="26" r="1" class="MsftOfcResponsive_Fill_7823dc" fill="#7823DC"/></svg>