<svg width="31.4" height="31.4" viewBox="0 0 31.4 31.4" xmlns="http://www.w3.org/2000/svg" xmlns:xlink="http://www.w3.org/1999/xlink" overflow="visible"><defs></defs><rect x="14.8" y="10.6" width="2" height="10.1" fill="#7823DC" transform="matrix(0.7071 -0.7071 0.7071 0.7071 -6.4126 15.7432)"/><rect x="12.1" y="13.7" width="2" height="9.1" fill="#7823DC" transform="matrix(0.7071 -0.7071 0.7071 0.7071 -9.076 14.6398)"/><rect x="17.3" y="8.3" width="2" height="9.6" fill="#7823DC" transform="matrix(0.7071 -0.7071 0.7071 0.7071 -3.9226 16.7746)"/><rect x="5.5" y="19.9" width="2" height="10.1" fill="#7823DC" transform="matrix(0.7071 -0.7071 0.7071 0.7071 -15.7245 11.8861)"/><rect x="24.1" y="1.2" width="2" height="10.1" fill="#7823DC" transform="matrix(0.7071 -0.7071 0.7071 0.7071 2.9179 19.608)"/><path d="M22.7 11C22.4 11 22.1 10.9 21.8 10.9 21.4 10.9 21 10.8 20.7 10.8 17.9 10.6 15.3 10.5 13.4 12.2 13.2 12.4 13 12.6 12.8 12.8 12.6 13 12.5 13.2 12.3 13.4L12.2 13.4 10.6 12.3C10.8 12 11.1 11.7 11.3 11.4L11.3 11.4C13.8 8.7 17.2 8.6 20.4 8.9 20.9 8.9 21.4 9 21.9 9 22.1 9 22.2 9 22.4 9 25.5 9.3 28.2 9.5 29.9 7.4L31.3 8.8C29.2 11.4 25.8 11.3 22.7 11Z" fill="#7823DC"/><g><path d="M8.8 31.4 7.4 30C9.5 28.3 9.3 25.6 9 22.5 9 22.3 9 22.2 9 22 9 21.5 8.9 21 8.9 20.5 8.6 16.9 8.7 13.2 12.4 10.7L13.5 12.3C10.6 14.3 10.6 17.4 10.9 20.7 10.9 21.1 11 21.5 11 21.9 11 22.2 11 22.5 11.1 22.8 11.3 25.8 11.4 29.2 8.8 31.4Z" fill="#7823DC"/><path d="M20.1 20.1 20.1 20.1C19.8 20.4 19.5 20.6 19.2 20.8L18.1 19.2 18.1 19.1C18.3 18.9 18.5 18.8 18.7 18.6L18.7 18.6C18.9 18.4 19.1 18.2 19.3 18L20.9 19.1C20.6 19.5 20.4 19.8 20.1 20.1Z" fill="#7823DC"/></g><path d="M20.1 20.1C17.6 22.8 14.2 22.9 11 22.6 11 22.3 11 22 10.9 21.7 10.9 21.3 10.8 20.9 10.8 20.5 13.6 20.8 16.2 20.8 18.1 19.1L19.2 20.7C19.5 20.6 19.8 20.4 20.1 20.1Z" fill="#7823DC"/><path d="M20.6 10.8C20.6 10.4 20.5 10 20.5 9.7 20.5 9.4 20.4 9.1 20.4 8.8 20.1 5.6 20 2.2 22.6 0L24 1.4C21.9 3.1 22.1 5.8 22.4 8.9 22.4 9.1 22.4 9.2 22.4 9.4 22.4 9.9 22.5 10.4 22.5 10.9 22.8 14.1 22.7 17.5 20 20 20.2 19.7 20.5 19.4 20.7 19.1L19.1 18C20.9 16.2 20.9 13.5 20.6 10.8Z" fill="#7823DC"/><path d="M10.9 21.8C10.9 22.1 10.9 22.4 11 22.7 10.5 22.7 10 22.6 9.5 22.6 9.3 22.6 9.2 22.6 9 22.6 5.8 22.1 3.1 22 1.4 24L0 22.6C2.2 20 5.6 20.1 8.8 20.4 9.1 20.4 9.4 20.5 9.7 20.5 10.1 20.5 10.5 20.6 10.8 20.6 10.8 21 10.9 21.4 10.9 21.8Z" fill="#7823DC"/><path d="M20.1 20.1 20.1 20.1C19.8 20.4 19.5 20.6 19.2 20.8L18.1 19.2C18.3 19 18.5 18.8 18.7 18.6L18.7 18.6C18.9 18.4 19 18.2 19.2 18L19.3 18 20.9 19.1C20.6 19.5 20.4 19.8 20.1 20.1Z" fill="#7823DC"/><path d="" stroke="#231F20" stroke-width="2" stroke-miterlimit="10" fill="#7823DC"/></svg>