<svg viewBox="0 0 31.86 31.86" xmlns="http://www.w3.org/2000/svg" xmlns:xlink="http://www.w3.org/1999/xlink" id="Grid" overflow="hidden"><style>
.MsftOfcResponsive_Fill_7823dc {
 fill:#7823DC; 
}
</style>
<defs></defs><path d="M15.93 13.08C14.36 13.08 13.08 14.36 13.08 15.93 13.08 17.5 14.36 18.78 15.93 18.78 17.5 18.78 18.78 17.5 18.78 15.93 18.78 14.36 17.5 13.08 15.93 13.08ZM15.93 16.8C15.45 16.8 15.06 16.41 15.06 15.93 15.06 15.45 15.45 15.06 15.93 15.06 16.41 15.06 16.8 15.45 16.8 15.93 16.8 16.41 16.41 16.8 15.93 16.8Z" class="MsftOfcResponsive_Fill_7823dc" stroke-width="0" fill="#7823DC"/><path d="M27.19 4.67C24.18 1.66 20.18 0 15.93 0 11.68 0 7.67 1.66 4.67 4.67 1.66 7.67 0 11.67 0 15.93 0 20.19 1.66 24.18 4.67 27.19 7.68 30.2 11.68 31.86 15.93 31.86 20.18 31.86 24.19 30.2 27.19 27.19 30.19 24.18 31.86 20.18 31.86 15.93 31.86 11.68 30.2 7.68 27.19 4.67ZM27.2 10.75 27.2 7.72C28.5 9.5 29.37 11.59 29.7 13.77L27.56 11.63C27.44 11.51 27.31 11.39 27.18 11.28 27.19 11.11 27.2 10.93 27.2 10.76ZM22.38 14.71C22.21 13.82 21.87 12.99 21.35 12.24 22.51 11.68 23.86 11.66 24.98 12.19 24.56 13.35 23.6 14.29 22.38 14.72ZM24.98 19.68C23.86 20.21 22.51 20.19 21.35 19.63 21.86 18.88 22.21 18.05 22.38 17.16 23.6 17.59 24.56 18.52 24.98 19.69ZM23.34 9.81C22.86 9.79 22.38 9.85 21.9 9.95 22 9.47 22.05 8.99 22.05 8.51 22.04 7.87 21.93 7.23 21.72 6.63L25.23 6.63 25.23 10.14C24.62 9.93 23.99 9.82 23.34 9.81ZM24.14 4.65 21.11 4.65C20.94 4.65 20.76 4.65 20.59 4.67 20.48 4.54 20.36 4.41 20.24 4.29L18.1 2.15C20.28 2.49 22.37 3.35 24.15 4.66ZM15.93 20.52C13.4 20.52 11.34 18.46 11.34 15.93 11.34 13.4 13.4 11.34 15.93 11.34 18.46 11.34 20.52 13.4 20.52 15.93 20.52 18.46 18.46 20.52 15.93 20.52ZM20.07 23.31C20.07 23.9 19.93 24.46 19.68 24.98 18.52 24.56 17.58 23.6 17.15 22.38 18.04 22.21 18.88 21.86 19.63 21.35 19.93 21.96 20.08 22.63 20.07 23.31ZM14.71 22.38C14.28 23.6 13.35 24.56 12.18 24.98 11.93 24.46 11.8 23.9 11.79 23.31 11.78 22.63 11.93 21.96 12.23 21.35 12.98 21.86 13.81 22.21 14.71 22.38ZM12.18 6.87C13.34 7.29 14.28 8.25 14.71 9.47 13.82 9.64 12.99 9.98 12.24 10.5 11.68 9.34 11.66 7.99 12.19 6.87ZM17.16 9.47C17.59 8.25 18.53 7.29 19.69 6.87 19.94 7.39 20.07 7.95 20.08 8.54 20.09 9.21 19.94 9.89 19.64 10.5 18.89 9.99 18.06 9.64 17.16 9.47ZM18.42 5.26C17.84 5.54 17.31 5.91 16.85 6.36 16.51 6.69 16.2 7.07 15.94 7.48 15.68 7.07 15.37 6.69 15.02 6.36 14.56 5.91 14.03 5.54 13.45 5.26L15.93 2.78 18.41 5.26ZM13.77 2.14 11.63 4.28C11.51 4.4 11.39 4.53 11.28 4.66 11.11 4.65 10.93 4.64 10.76 4.64L7.73 4.64C9.51 3.34 11.59 2.47 13.78 2.13ZM9.48 14.7C8.26 14.27 7.3 13.34 6.88 12.17 8 11.64 9.35 11.66 10.51 12.22 10 12.97 9.65 13.8 9.48 14.69ZM10.51 19.62C9.35 20.18 8 20.2 6.88 19.67 7.3 18.51 8.26 17.57 9.48 17.14 9.65 18.03 9.99 18.86 10.51 19.61ZM6.64 6.62 10.15 6.62C9.94 7.23 9.82 7.87 9.82 8.52 9.82 9 9.86 9.47 9.97 9.94 9.5 9.84 9.02 9.79 8.54 9.8 7.89 9.8 7.25 9.92 6.64 10.13L6.64 6.62ZM4.66 7.7 4.66 10.73C4.66 10.9 4.66 11.07 4.68 11.25 4.55 11.36 4.42 11.48 4.3 11.6L2.16 13.74C2.5 11.56 3.36 9.48 4.66 7.69ZM4.66 21.1 4.66 24.13C3.36 22.35 2.49 20.26 2.16 18.08L4.3 20.22C4.42 20.34 4.55 20.46 4.68 20.57 4.67 20.74 4.66 20.92 4.66 21.09ZM5.27 18.4 2.79 15.92 5.27 13.44C5.55 14.02 5.92 14.55 6.37 15.01 6.7 15.36 7.08 15.66 7.49 15.93 7.08 16.19 6.7 16.5 6.37 16.85 5.92 17.31 5.55 17.84 5.27 18.42ZM6.64 21.7C7.25 21.91 7.88 22.02 8.53 22.03 8.56 22.03 8.6 22.03 8.63 22.03 9.08 22.03 9.53 21.98 9.97 21.88 9.87 22.36 9.82 22.84 9.82 23.32 9.83 23.96 9.94 24.6 10.15 25.2L6.64 25.2 6.64 21.69ZM7.72 27.19 10.75 27.19C10.92 27.19 11.1 27.19 11.27 27.17 11.38 27.3 11.5 27.43 11.62 27.55L13.76 29.69C11.58 29.35 9.5 28.49 7.71 27.18ZM13.45 26.58C14.03 26.3 14.56 25.93 15.02 25.48 15.36 25.15 15.67 24.77 15.94 24.36 16.2 24.77 16.51 25.15 16.85 25.48 17.31 25.93 17.84 26.3 18.42 26.58L15.94 29.06 13.46 26.58ZM18.1 29.7 20.24 27.56C20.36 27.44 20.48 27.31 20.59 27.18 20.76 27.19 20.94 27.2 21.11 27.2L24.14 27.2C22.36 28.5 20.28 29.37 18.09 29.71ZM25.23 25.22 21.72 25.22C21.93 24.61 22.04 23.98 22.05 23.34 22.05 22.86 22.01 22.37 21.9 21.9 22.34 22 22.79 22.05 23.24 22.05 23.27 22.05 23.31 22.05 23.34 22.05 23.98 22.05 24.62 21.93 25.23 21.72L25.23 25.23ZM25.5 16.84C25.17 16.5 24.79 16.19 24.38 15.93 24.79 15.67 25.17 15.36 25.5 15.01 25.95 14.55 26.32 14.02 26.6 13.44L29.08 15.92 26.6 18.4C26.32 17.82 25.95 17.29 25.5 16.83ZM27.21 24.14 27.21 21.11C27.21 20.94 27.21 20.77 27.19 20.59 27.32 20.48 27.45 20.36 27.57 20.24L29.71 18.1C29.37 20.28 28.51 22.36 27.21 24.15Z" class="MsftOfcResponsive_Fill_7823dc" stroke-width="0" fill="#7823DC"/></svg>