<svg viewBox="0 0 32 32" xmlns="http://www.w3.org/2000/svg" xmlns:xlink="http://www.w3.org/1999/xlink" id="Layer_1" overflow="hidden"><path d="M16.9 19C17 19 17 19.1 17 19.1L17 19.9C17 20 16.9 20 16.9 20L2.1 20C2.1 20 2 19.9 2 19.9L2 19.1C2 19.1 2.1 19 2.1 19L16.9 19M16.9 17 2.1 17C0.9 17 0 17.9 0 19.1L0 19.9C0 21.1 0.9 22 2.1 22L16.9 22C18.1 22 19 21.1 19 19.9L19 19.1C19 17.9 18.1 17 16.9 17L16.9 17Z" fill="#7823DC"/><path d="M6.7 14 6.3 17 4.7 17 4.3 14 6.7 14M9 12 2 12 3 19 8 19 9 12 9 12Z" fill="#7823DC"/><path d="M5 13.1C4.6 13.1 4.2 12.9 4.1 12.5L1.6 6.6C1.4 6.1 1.6 5.5 2.1 5.3 2.6 5.1 3.2 5.3 3.4 5.8L5.9 11.7C6.1 12.2 5.9 12.8 5.4 13 5.3 13 5.2 13.1 5 13.1Z" fill="#7823DC"/><path d="M5.9 13.9C5.4 13.9 4.9 13.5 4.9 12.9L4.8 4.5C4.8 3.9 5.2 3.5 5.8 3.5 5.8 3.5 5.8 3.5 5.8 3.5 6.3 3.5 6.8 3.9 6.8 4.5L6.9 12.9C6.9 13.5 6.4 13.9 5.9 13.9 5.9 13.9 5.9 13.9 5.9 13.9Z" fill="#7823DC"/><path d="M5.9 13.1C5.8 13.1 5.6 13.1 5.5 13 5 12.8 4.8 12.2 5 11.7L7.4 6.7C7.6 6.2 8.2 6 8.7 6.2 9.2 6.4 9.4 7 9.2 7.5L6.8 12.5C6.6 12.9 6.2 13.1 5.9 13.1Z" fill="#7823DC"/><path d="M30 2 30 13 18.2 13 18.2 2 30 2M32 0 16.2 0 16.2 15 32 15 32 0 32 0Z" fill="#7823DC"/><rect x="3" y="21" width="2" height="11" fill="#7823DC"/><rect x="14" y="21" width="2" height="11" fill="#7823DC"/><path d="M29 12 24 12 24 10 27 10 27 5 20 5 20 3 29 3Z" fill="#7823DC"/><circle cx="21" cy="11" r="1" fill="#7823DC"/><circle cx="24" cy="8" r="1" fill="#7823DC"/></svg>