<svg width="32" height="32" viewBox="0 0 32 32" xmlns="http://www.w3.org/2000/svg" xmlns:xlink="http://www.w3.org/1999/xlink" overflow="hidden"><defs></defs><g><g><g><defs><rect x="0" y="0" width="32" height="32" id="SVGID_1_" fill="#7823DC"/></defs><clipPath id="SVGID_2_"><use width="100%" height="100%" xlink:href="#SVGID_1_"></use></clipPath><g clip-path="url(#SVGID_2_)"><defs><rect x="0" y="0" width="32" height="32" id="SVGID_3_" fill="#7823DC"/></defs><clipPath id="SVGID_4_"><use width="100%" height="100%" xlink:href="#SVGID_3_"></use></clipPath></g><path d="M30 9 30 9 30 9Z" fill="#7823DC" clip-path="url(#SVGID_2_)"/><g clip-path="url(#SVGID_2_)"><defs><rect x="0" y="0" width="32" height="32" id="SVGID_5_" fill="#7823DC"/></defs><clipPath id="SVGID_6_"><use width="100%" height="100%" xlink:href="#SVGID_5_"></use></clipPath></g></g></g><path d="M30 9 30 29 2 29 2 9 9 9 23 9 30 9 28 7 23 7 23 2 9 2 9 7 0 7 0 31 32 31 32 11 30 9ZM11 4 21 4 21 7 11 7 11 4Z" fill="#7823DC"/><rect x="0.9" y="14" width="12.1" height="2" fill="#7823DC"/><rect x="19" y="14" width="12.1" height="2" fill="#7823DC"/><path d="M20 18 12 18 12 12 20 12 20 18ZM14 16 18 16 18 14 14 14 14 16Z" fill="#7823DC"/></g></svg>