<svg viewBox="0 0 32 32" xmlns="http://www.w3.org/2000/svg" xmlns:xlink="http://www.w3.org/1999/xlink" id="Layer_1" xml:space="preserve" overflow="hidden"><style>
.MsftOfcResponsive_Fill_7823dc {
 fill:#7823DC; 
}
</style>
<g id="Layer_2_00000013912985461116041430000015904895619479836035_" display="none"><g><path d="M15 3C14.9 3 14.7 3 14.6 3 14.4 3 14.2 3 14.1 3 13.4 3 12.7 3.1 12.1 3.2L12.7 3.8 13.8 5C14 5 14.3 5 14.6 5 15.6 5 16.7 5.1 17.7 5.4 21.2 6.3 24.1 8.6 25.7 11.7L28.8 14.8 28.8 14.4C27.4 8 21.8 3.2 15 3ZM25.9 22.9 25.9 22.9C24.3 26.2 21.3 28.7 17.6 29.6 16.6 29.8 15.6 30 14.6 30 13.5 30 12.5 29.9 11.5 29.6 6.4 28.3 2.6 23.9 2.1 18.5 2.1 18.2 2.1 17.8 2.1 17.5 2.1 17.2 2.1 16.8 2.1 16.5 2.4 12.2 5 8.5 8.6 6.5L7.1 5.1C2.9 7.6 0 12.3 0 17.5 0 25.5 6.5 32 14.5 32 20.6 32 25.8 28.2 28 22.9L25.9 22.9Z" class="MsftOfcResponsive_Fill_7823dc" fill="#7823DC"/><path d="M21.4 18.5 0.3 18.5 0.3 16.5 23.7 16.5 25.3 18.5" class="MsftOfcResponsive_Fill_7823dc" fill="#7823DC"/></g><path d="M18.1 16.5C18.1 16.8 18.1 17.1 18.1 17.5 18.1 17.8 18.1 18.2 18.1 18.5 17.9 26 15.4 29.9 14.6 29.9 13.8 29.9 11.2 26 11 18.5 11 18.2 11 17.8 11 17.5 11 17.2 11 16.8 11 16.5 11.1 13.8 11.4 11.6 11.9 9.9L10.2 8.2C9.5 10.5 9 13.3 9 16.5 9 16.8 9 17.1 9 17.5 9 17.8 9 18.2 9 18.5 9.1 23.2 10.1 27.2 11.5 29.6 12.4 31.1 13.4 32 14.6 32 15.8 32 16.8 31.1 17.7 29.6 19.1 27.2 20.1 23.1 20.2 18.5 20.2 18.2 20.2 17.8 20.2 17.5 20.2 17.2 20.2 16.8 20.2 16.5M19.6 16.5 18.5 16.5M17.6 5.4C16.9 4.1 16 4.2 15 4 14.8 4 14.7 4 14.5 4 14.3 4 14.2 4 14 4 13.5 4.1 13 3.4 12.6 3.8L13.8 5 14 5.2C14.2 5.1 14.4 5 14.5 5 14.9 5 15.7 5.9 16.4 7.6L19 10.2M18.1 16.5C18.1 16.8 18.1 17.1 18.1 17.5 18.1 17.8 18.1 18.2 18.1 18.5L20.2 18.5C20.2 18.2 20.2 17.8 20.2 17.5 20.2 17.2 20.2 16.8 20.2 16.5L19.7 16.5 19 17.1 18.4 16.5" class="MsftOfcResponsive_Fill_7823dc" fill="#7823DC"/><path d="M65.9 19.4 65.9 13.9 64.1 12.1 64.1 16.3 55.5 7.9 52.9 10.4 42.6 0 40.1 0 52.9 12.9 55.5 10.4 62.8 17.6 58.5 17.6 60.3 19.4Z" class="MsftOfcResponsive_Fill_7823dc" fill="#7823DC"/><g><path d="M32.1 21.4 32.1 15.9 30.2 14.1 30.2 18.3 21.6 9.9 19 12.4 8.7 2 6.2 2 19 14.9 21.6 12.4 29 19.6 24.7 19.6 26.5 21.4Z" class="MsftOfcResponsive_Fill_7823dc" fill="#7823DC"/><line x1="18.5" y1="16.5" x2="19.6" y2="16.5" fill="none"/></g></g><circle cx="16" cy="12.1" r="1.9" class="MsftOfcResponsive_Fill_7823dc" fill="#7823DC" fill-rule="evenodd" clip-rule="evenodd"/><line x1="16" y1="16" x2="16" y2="13.2" stroke="#7823DC" stroke-width="2" stroke-miterlimit="10" fill="none"/><g><ellipse cx="13" cy="18.8" rx="1" ry="1" class="MsftOfcResponsive_Fill_7823dc" fill="#7823DC" fill-rule="evenodd" clip-rule="evenodd"/><ellipse cx="19" cy="18.8" rx="1" ry="1" class="MsftOfcResponsive_Fill_7823dc" fill="#7823DC" fill-rule="evenodd" clip-rule="evenodd"/><path d="M16 23C14 23 12.4 21.9 12.4 20.5L14.4 20.5C14.5 20.6 15 21 16 21 16.9 21 17.4 20.6 17.5 20.5L19.5 20.5C19.5 22 18 23 16 23Z" class="MsftOfcResponsive_Fill_7823dc" fill="#7823DC"/></g><path d="M23.9 17.5 24.7 17.5C25.1 17.5 25.5 17.7 25.5 18L25.5 21.6C25.5 21.9 25.1 22.1 24.7 22.1L23.9 22.1 23.9 17.5Z" class="MsftOfcResponsive_Fill_7823dc" fill="#7823DC"/><path d="M8.1 17.5 7.3 17.5C6.9 17.5 6.5 17.7 6.5 18L6.5 21.6C6.5 21.9 6.9 22.1 7.3 22.1L8.1 22.1 8.1 17.5Z" class="MsftOfcResponsive_Fill_7823dc" fill="#7823DC"/><path d="M21.8 26.2 10.2 26.2C8.8 26.2 7.6 25 7.6 23.6L7.6 17.3C7.6 15.9 8.8 14.7 10.2 14.7L21.8 14.7C23.2 14.7 24.4 15.9 24.4 17.3L24.4 23.6C24.4 25 23.3 26.2 21.8 26.2ZM15.5 24.2 21.8 24.2C22.1 24.2 22.4 23.9 22.4 23.6L22.4 17.3C22.4 17 22.1 16.7 21.8 16.7L10.2 16.7C9.9 16.7 9.6 17 9.6 17.3L9.6 23.6C9.6 23.9 9.9 24.2 10.2 24.2 10.2 24.2 15.5 24.2 15.5 24.2Z" class="MsftOfcResponsive_Fill_7823dc" fill="#7823DC"/><path d="M31.5 12 29.4 12C29.8 13.3 30 14.6 30 16 30 23.7 23.7 30 16 30 8.3 30 2 23.7 2 16 2 9.3 6.7 3.7 13 2.3L13 0.3C5.6 1.7 0 8.2 0 16 0 24.8 7.2 32 16 32 24.8 32 32 24.8 32 16 32 14.6 31.8 13.3 31.5 12Z" class="MsftOfcResponsive_Fill_7823dc" fill="#7823DC"/><g><path d="M28 2C29.1 2 30 2.9 30 4L30 5.9C30 7 29.1 7.9 28 7.9L24.9 7.9 23.9 7.9 23.3 8.7 22.7 9.6 22.6 9.3 22.1 7.9 20.6 7.9 19 7.9C17.9 7.9 17 7 17 5.9L17 4C17 2.9 17.9 2 19 2L28 2M28 0 19 0C16.8 0 15 1.8 15 4L15 5.9C15 8.1 16.8 9.9 19 9.9L20.7 9.9 22 14 24.9 9.9 28 9.9C30.2 9.9 32 8.1 32 5.9L32 4C32 1.8 30.2 0 28 0L28 0Z" class="MsftOfcResponsive_Fill_7823dc" fill="#7823DC"/></g><g><circle cx="20.5" cy="5.1" r="0.9" class="MsftOfcResponsive_Fill_7823dc" fill="#7823DC" fill-rule="evenodd" clip-rule="evenodd"/><circle cx="23.5" cy="5.1" r="0.9" class="MsftOfcResponsive_Fill_7823dc" fill="#7823DC" fill-rule="evenodd" clip-rule="evenodd"/><circle cx="26.5" cy="5.1" r="0.9" class="MsftOfcResponsive_Fill_7823dc" fill="#7823DC" fill-rule="evenodd" clip-rule="evenodd"/></g></svg>