<svg viewBox="0 0 32 32" xmlns="http://www.w3.org/2000/svg" xmlns:xlink="http://www.w3.org/1999/xlink" xml:space="preserve" overflow="hidden"><style>
.MsftOfcResponsive_Fill_7823dc {
 fill:#7823DC; 
}
</style>
<g id="Layer_3"></g><g id="Layer_1"></g><g id="Layer_2"></g><g id="Layer_4"></g><g id="Layer_5"><path d="M32.1 28.38-0.02 28.38-0.02 8.32 32.1 8.32 32.1 28.38ZM1.98 26.38 30.1 26.38 30.1 10.32 1.98 10.32 1.98 26.38Z" class="st0 MsftOfcResponsive_Fill_7823dc" fill="#7823DC"/><path d="M9.76 24.26C6.5 24.26 3.84 21.61 3.84 18.34 3.84 15.07 6.5 12.42 9.76 12.42 13.02 12.42 15.68 15.08 15.68 18.34 15.68 21.6 13.02 24.26 9.76 24.26ZM9.76 14.43C7.6 14.43 5.84 16.19 5.84 18.35 5.84 20.51 7.6 22.27 9.76 22.27 11.92 22.27 13.68 20.51 13.68 18.35 13.68 16.19 11.92 14.43 9.76 14.43Z" class="st0 MsftOfcResponsive_Fill_7823dc" fill="#7823DC"/><rect x="18.52" y="13.22" width="8.94" height="2" class="st0 MsftOfcResponsive_Fill_7823dc" fill="#7823DC"/><rect x="18.52" y="17.35" width="8.94" height="2" class="st0 MsftOfcResponsive_Fill_7823dc" fill="#7823DC"/><rect x="18.52" y="21.47" width="8.94" height="2" class="st0 MsftOfcResponsive_Fill_7823dc" fill="#7823DC"/><rect x="0.23" y="4.93" width="15.97" height="2" class="st0 MsftOfcResponsive_Fill_7823dc" fill="#7823DC" transform="matrix(0.9053 -0.4248 0.4248 0.9053 -1.7391 4.0506)"/></g></svg>