<svg viewBox="0 0 32.35 32" xmlns="http://www.w3.org/2000/svg" xmlns:xlink="http://www.w3.org/1999/xlink" id="Layer_1" overflow="hidden"><style>
.MsftOfcThm_Text2_lumMod_100_Fill_v2 {
 fill:#7823DC; 
}
</style>
<defs></defs><path d="M29.25 10.95C31.83 8.54 32.85 6.24 32.11 4.4 31.12 1.96 27.42 1.12 21.94 2.06 20.8 1.14 19.45 0.46 17.97 0.18 15.25-0.34 12.49 0.33 10.37 2.04 4.88 1.05 1.19 1.84 0.23 4.22-0.52 6.05 0.58 8.36 3.29 10.78 0.79 13.15-0.2 15.42 0.54 17.23 1.26 19.01 3.5 19.94 6.78 19.94 7.83 19.94 8.98 19.84 10.22 19.65L10.22 25.99 11.91 25.99 11.91 29.48 13.46 29.48C13.55 30.88 14.7 31.99 16.12 31.99 17.54 31.99 18.7 30.87 18.78 29.48L20.33 29.48 20.33 25.99 22.02 25.99 22.02 21.69C22.02 20.75 22.03 19.97 22.06 19.3 23.44 19.53 24.7 19.64 25.83 19.64 29 19.64 31.1 18.75 31.79 17.04 32.48 15.33 31.57 13.19 29.23 10.94ZM30.26 5.15C30.67 6.16 29.7 7.85 27.74 9.63 26.98 9.03 26.15 8.44 25.24 7.86 25.22 7.7 25.2 7.53 25.17 7.37 24.92 6.07 24.37 4.87 23.62 3.83 27.6 3.36 29.84 4.13 30.25 5.15ZM20.05 24 17.02 24 17.02 16.84 18.95 16.84 18.95 14.84 13.13 14.84 13.13 16.84 15.01 16.84 15.01 24 12.22 24 12.22 17.7C12.22 16.37 11.72 15.1 10.82 14.12 9.59 12.78 8.91 11.04 8.91 9.22 8.91 9.17 8.91 9.13 8.91 9.08 10.63 8.04 12.5 7.11 14.47 6.31 15.03 6.09 15.58 5.88 16.12 5.68 16.66 5.88 17.21 6.09 17.76 6.3 19.74 7.11 21.6 8.04 23.32 9.05 23.36 10.93 22.7 12.73 21.41 14.13 20.44 15.18 20.03 16.46 20.03 21.69L20.03 23.99ZM6.99 10.34C7.03 10.64 7.08 10.94 7.15 11.24 6.91 11.08 6.67 10.91 6.44 10.75 6.62 10.61 6.8 10.48 6.99 10.34ZM10.96 4.19C11.67 4.34 12.39 4.51 13.13 4.72 11.86 5.26 10.64 5.84 9.47 6.48 9.82 5.64 10.31 4.86 10.96 4.2ZM21.34 4.2C21.96 4.85 22.46 5.62 22.81 6.46 21.64 5.84 20.42 5.26 19.15 4.72 19.89 4.52 20.62 4.35 21.34 4.2ZM25.28 10.3C25.58 10.51 25.87 10.73 26.16 10.94 25.79 11.21 25.41 11.49 25.01 11.75 25.14 11.28 25.23 10.79 25.28 10.3ZM17.59 2.14C18.14 2.25 18.65 2.43 19.15 2.66 18.16 2.92 17.16 3.22 16.14 3.56 15.13 3.21 14.13 2.91 13.16 2.65 14.52 2.03 16.06 1.84 17.59 2.14ZM2.08 4.97C2.48 3.98 4.7 3.28 8.69 3.79 7.81 5 7.23 6.41 7.02 7.9 6.22 8.42 5.48 8.94 4.82 9.45 2.76 7.66 1.68 5.94 2.08 4.96ZM2.39 16.48C1.99 15.49 2.93 13.82 4.85 12.05 5.95 12.87 7.18 13.68 8.54 14.44 8.79 14.8 9.05 15.15 9.35 15.47 9.89 16.06 10.19 16.81 10.21 17.61 5.5 18.39 2.85 17.61 2.38 16.47ZM16.14 30C15.82 30 15.57 29.78 15.49 29.49L16.78 29.49C16.7 29.78 16.45 30 16.13 30ZM18.35 27.48 13.92 27.48 13.92 25.99 18.35 25.99 18.35 27.48ZM29.96 16.3C29.52 17.38 26.93 18.11 22.24 17.31 22.4 16.16 22.63 15.77 22.89 15.49 22.98 15.4 23.05 15.29 23.13 15.2 24.84 14.28 26.37 13.29 27.71 12.25 29.46 13.88 30.31 15.4 29.95 16.3Z" class="MsftOfcThm_Text2_lumMod_100_Fill_v2" stroke-width="0" fill="#7823DC"/><path d="M5.65 25.49 4.5 27.59 2.4 28.74 4.5 29.89 5.65 31.99 6.8 29.89 8.9 28.74 6.8 27.59 5.65 25.49Z" class="MsftOfcThm_Text2_lumMod_100_Fill_v2" stroke-width="0" fill="#7823DC"/><path d="M27.78 24.53 26.77 26.38 24.91 27.4 26.77 28.41 27.78 30.27 28.8 28.41 30.65 27.4 28.8 26.38 27.78 24.53Z" class="MsftOfcThm_Text2_lumMod_100_Fill_v2" stroke-width="0" fill="#7823DC"/></svg>