<svg width="32" height="32" viewBox="0 0 32 32" xmlns="http://www.w3.org/2000/svg" xmlns:xlink="http://www.w3.org/1999/xlink" overflow="hidden"><defs></defs><g><path d="M24 8 24 24 8 24 8 8 24 8M26 6 6 6 6 26 26 26 26 6 26 6Z" fill="#7823DC"/></g><g><rect x="26" y="0" width="6" height="6" fill="#7823DC"/></g><g><rect x="25.97" y="26" width="6" height="6" fill="#7823DC"/></g><g><rect x="0" y="0" width="6" height="6" fill="#7823DC"/></g><g><rect x="0" y="26" width="6" height="6" fill="#7823DC"/></g><g><g><rect x="9" y="2" width="2" height="4" fill="#7823DC"/></g></g><g><g><rect x="13" y="2" width="2" height="4" fill="#7823DC"/></g></g><g><g><rect x="17" y="2" width="2" height="4" fill="#7823DC"/></g></g><g><g><rect x="21" y="2" width="2" height="4" fill="#7823DC"/></g></g><g><g><rect x="9" y="26" width="2" height="4" fill="#7823DC"/></g></g><g><g><rect x="13" y="26" width="2" height="4" fill="#7823DC"/></g></g><g><g><rect x="17" y="26" width="2" height="4" fill="#7823DC"/></g></g><g><g><rect x="21" y="26" width="2" height="4" fill="#7823DC"/></g></g><g><g><rect x="25.99" y="9.01" width="3.97" height="2" fill="#7823DC"/></g></g><g><g><rect x="25.99" y="13.01" width="3.97" height="2" fill="#7823DC"/></g></g><g><g><rect x="25.99" y="17.01" width="3.97" height="2" fill="#7823DC"/></g></g><g><g><rect x="25.99" y="21.01" width="3.97" height="2" fill="#7823DC"/></g></g><g><g><rect x="2" y="9.01" width="4" height="2" fill="#7823DC"/></g></g><g><g><rect x="2" y="13.01" width="4" height="2" fill="#7823DC"/></g></g><g><g><rect x="2" y="17.01" width="4" height="2" fill="#7823DC"/></g></g><g><g><rect x="2" y="21.01" width="4" height="2" fill="#7823DC"/></g></g></svg>