<svg viewBox="0 0 29.22 29.22" xmlns="http://www.w3.org/2000/svg" xmlns:xlink="http://www.w3.org/1999/xlink" id="Layer_5" overflow="hidden"><defs></defs><path d="M15.61 8.12 0 8.12 0-0.01 15.6-0.01 15.6 8.12ZM2.01 6.12 13.61 6.12 13.61 1.99 2.01 1.99 2.01 6.12Z" stroke-width="0" fill="#7823DC"/><path d="M15.61 11.79 15.61 11.59 15.61 10.34 15.61 10.13 13.61 10.13 13.61 10.34 13.61 11.59 13.61 11.79 13.61 11.79 13.61 12.03 13.61 13.54 13.61 13.79 15.61 13.79 15.61 13.54 15.61 12.03 15.61 11.79 15.61 11.79Z" stroke-width="0" fill="#7823DC"/><path d="M29.29 18.64 18.37 18.64C17.93 17.01 16.45 15.8 14.68 15.8 12.91 15.8 11.43 17.01 10.99 18.64L0 18.64 0 20.64 10.99 20.64C11.43 22.27 12.91 23.48 14.68 23.48 16.45 23.48 17.93 22.27 18.37 20.64L29.29 20.64 29.29 18.64ZM14.69 21.48C13.67 21.48 12.85 20.65 12.85 19.64 12.85 19.39 12.9 19.16 12.99 18.95 13.01 18.91 13.02 18.88 13.04 18.85 13.34 18.23 13.96 17.8 14.69 17.8 15.7 17.8 16.53 18.63 16.53 19.64 16.53 20.65 15.7 21.48 14.69 21.48Z" stroke-width="0" fill="#7823DC"/></svg>