<svg viewBox="0 0 32 32" xmlns="http://www.w3.org/2000/svg" xmlns:xlink="http://www.w3.org/1999/xlink" id="Layer_2_1_" xml:space="preserve" overflow="hidden"><style>
.MsftOfcResponsive_Fill_7823dc {
 fill:#7823DC; 
}
</style>
<path d="M30 2 30 18 2 18 2 2 30 2M32 0 0 0 0 20 32 20 32 0 32 0Z" class="MsftOfcResponsive_Fill_7823dc" fill="#7823DC"/><path d="M19.5 20 12.5 20 12.5 22 19.5 22 19.5 20Z" class="MsftOfcResponsive_Fill_7823dc" fill="#7823DC"/><rect x="15" y="22" width="2" height="10" class="MsftOfcResponsive_Fill_7823dc" fill="#7823DC"/><path d="M2 27 5 30 7.9 30 5.8 28 12 28 12 26 5.8 26 7.9 24 5 24 2 27 2 27Z" class="MsftOfcResponsive_Fill_7823dc" fill="#7823DC" fill-rule="evenodd" clip-rule="evenodd"/><path d="M30 27 27 30 24.1 30 26.2 28 20 28 20 26 26.2 26 24.1 24 27 24 30 27 30 27Z" class="MsftOfcResponsive_Fill_7823dc" fill="#7823DC" fill-rule="evenodd" clip-rule="evenodd"/><g><g><path d="M9 6.5 9 8.5 7 8.5 7 6.5 9 6.5M11 4.5 5 4.5 5 10.5 11 10.5 11 4.5 11 4.5Z" class="MsftOfcResponsive_Fill_7823dc" fill="#7823DC"/><rect x="5" y="9.5" width="2" height="6" class="MsftOfcResponsive_Fill_7823dc" fill="#7823DC"/></g><g><path d="M20 4.5 20 10.5 26 10.5 26 4.5 20 4.5ZM24 8.5 22 8.5 22 6.5 24 6.5 24 8.5Z" class="MsftOfcResponsive_Fill_7823dc" fill="#7823DC"/><rect x="20" y="9.5" width="2" height="6" class="MsftOfcResponsive_Fill_7823dc" fill="#7823DC"/><path d="M26 13.8 26 15.5 24.8 15.5 22 12.2 20.5 10.5 20.2 10.1 21 9.5 21.8 8.8 23.2 10.5Z" class="MsftOfcResponsive_Fill_7823dc" fill="#7823DC"/></g><g><rect x="14.5" y="8" width="2" height="5" class="MsftOfcResponsive_Fill_7823dc" fill="#7823DC"/><rect x="13" y="9.5" width="5" height="2" class="MsftOfcResponsive_Fill_7823dc" fill="#7823DC"/></g></g></svg>