<svg viewBox="0 0 32 32" xmlns="http://www.w3.org/2000/svg" xmlns:xlink="http://www.w3.org/1999/xlink" id="Graphic" overflow="hidden"><style>
.MsftOfcResponsive_Fill_7823dc {
 fill:#7823DC; 
}
</style>
<defs></defs><path d="M20 31 0 31 0 4.577 4.577 0 20 0 20 7 18 7 18 2 5.405 2 2 5.405 2 29 18 29 18 25.5 20 25.5 20 31Z" class="MsftOfcResponsive_Fill_7823dc" fill="#7823DC"/><path d="M32 32 23.8408 32 23.8408 0 32 0ZM25.8408 30 30 30 30 2 25.8408 2Z" class="MsftOfcResponsive_Fill_7823dc" fill="#7823DC"/><rect x="27.8408" y="25" width="4.15918" height="2" class="MsftOfcResponsive_Fill_7823dc" fill="#7823DC"/><rect x="27.8408" y="21" width="4.15918" height="2" class="MsftOfcResponsive_Fill_7823dc" fill="#7823DC"/><rect x="27.8408" y="17" width="4.15918" height="2" class="MsftOfcResponsive_Fill_7823dc" fill="#7823DC"/><rect x="27.8408" y="13" width="4.15918" height="2" class="MsftOfcResponsive_Fill_7823dc" fill="#7823DC"/><rect x="27.8408" y="9" width="4.15918" height="2" class="MsftOfcResponsive_Fill_7823dc" fill="#7823DC"/><rect x="27.8408" y="5" width="4.15918" height="2" class="MsftOfcResponsive_Fill_7823dc" fill="#7823DC"/><path d="M20 8 20 11.5 7 11.5 7 8 20 8M22 6 5 6 5 13.5 22 13.5 22 6Z" class="MsftOfcResponsive_Fill_7823dc" fill="#7823DC"/><path d="M10 13.5 10 16 7 16 7 13.5 10 13.5M12 11.5 5 11.5 5 18 12 18 12 11.5Z" class="MsftOfcResponsive_Fill_7823dc" fill="#7823DC"/><path d="M20 13.5 20 16 17 16 17 13.5 20 13.5M22 11.5 15 11.5 15 18 22 18 22 11.5Z" class="MsftOfcResponsive_Fill_7823dc" fill="#7823DC"/><path d="M15 13.5 15 16 12 16 12 13.5 15 13.5M17 11.5 10 11.5 10 18 17 18 17 11.5Z" class="MsftOfcResponsive_Fill_7823dc" fill="#7823DC"/><path d="M10 18 10 20.5 7 20.5 7 18 10 18M12 16 5 16 5 22.5 12 22.5 12 16Z" class="MsftOfcResponsive_Fill_7823dc" fill="#7823DC"/><path d="M20 18 20 25 17 25 17 18 20 18M22 16 15 16 15 27 22 27 22 16Z" class="MsftOfcResponsive_Fill_7823dc" fill="#7823DC"/><path d="M15 18 15 20.5 12 20.5 12 18 15 18M17 16 10 16 10 22.5 17 22.5 17 16Z" class="MsftOfcResponsive_Fill_7823dc" fill="#7823DC"/><path d="M10 22.5 10 25 7 25 7 22.5 10 22.5M12 20.5 5 20.5 5 27 12 27 12 20.5Z" class="MsftOfcResponsive_Fill_7823dc" fill="#7823DC"/><path d="M15 22.5 15 25 12 25 12 22.5 15 22.5M17 20.5 10 20.5 10 27 17 27 17 20.5Z" class="MsftOfcResponsive_Fill_7823dc" fill="#7823DC"/></svg>