<svg viewBox="0 0 32 32" xmlns="http://www.w3.org/2000/svg" xmlns:xlink="http://www.w3.org/1999/xlink" id="Graphic" overflow="hidden"><defs></defs><path d="M29.5 8.2C29.7 8 29.8 7.9 29.9 7.8 30.2 7.3 30.4 6.8 30.2 6.2 30 5.2 29.6 4.1 27.5 3.9 27.3 3.9 27 3.9 26.6 3.9 26.2 1.1 22.4 0.2 20.5 0.1L20.5 0.1C18.8 0.1 16.3 2.7 15 4.2L8.2 4.2 8.2 2.4 1.7 2.4 1.7 17 8.3 17 8.3 15.6 14.6 15.6C15.3 16.1 16.6 17.1 17.4 17.3 17.4 17.3 17.6 17.3 17.8 17.3L18.1 17.3 18.1 21.7C16.6 22.7 15.5 24.4 15.5 26.4 15.5 29.5 18 32 21.1 32 24.2 32 26.7 29.5 26.7 26.4 26.7 23.3 25.7 22.7 24.1 21.7L24.1 18C24.5 18 24.8 18 24.9 18L25 18C25.8 18 27.2 17.6 27.6 16.2 27.8 15.5 27.7 14.9 27.6 14.5 28.5 14 28.8 13.3 28.9 13 29.1 12.4 28.9 11.9 28.7 11.4 29.5 10.9 29.7 10.3 29.8 10 30 9.4 29.8 8.8 29.5 8.3 29.5 8.3 29.4 8.1 29.3 8L29.3 8ZM6.3 14.8 3.7 14.8 3.7 4.3 6.3 4.3 6.3 14.9 6.3 14.9ZM23.9 26 22.7 27.1 23 28.7C23 28.9 22.8 29.1 22.6 29L21.2 28.3 19.8 29C19.6 29.1 19.4 29 19.4 28.7L19.7 27.1 18.5 26C18.3 25.8 18.5 25.6 18.7 25.5L20.3 25.2 21 23.7C21.1 23.5 21.4 23.5 21.5 23.7L22.2 25.2 23.8 25.5C24 25.5 24.1 25.8 24 26L24 26ZM22.3 20.9C22 20.9 21.6 20.8 21.3 20.8 21 20.8 20.6 20.8 20.3 20.9L20.3 17.5 22.4 17.7 22.4 20.8 22.4 20.8ZM27.6 9C28 9 28.2 9.4 28.2 9.7 28.2 10 27.9 10.3 27.5 10.3L26.5 10.3C26.5 10.3 26 12 26 12L26.6 12C27 12 27.2 12.4 27.2 12.8 27.2 13.1 26.9 13.4 26.5 13.4L25.6 13.4C25.6 13.4 25.2 15 25.2 15L25.5 15C25.9 15 26.1 15.4 26.1 15.8 26.1 16.1 25.8 16.4 25.4 16.4L25.4 16.4 21.7 16C21.7 16 21.7 16 21.6 16 19.8 15.8 18.2 15.6 17.9 15.5 17.6 15.5 16.5 14.7 15.6 13.9L14.9 13.7 8.2 13.7C8.2 13.7 8.2 6.2 8.2 6.2L15.9 6.2 16.2 5.8C17.9 3.8 19.9 2.1 20.5 2.1 21.8 2.1 24 2.8 24.6 3.9 22.8 3.9 20.8 4.1 20.5 4.2L20.5 6.2C22.1 6 26.1 5.8 27.3 6 27.3 6 27.4 6 27.5 6L27.8 6C28.2 6 28.4 6.4 28.4 6.7 28.4 7 28.1 7.3 27.7 7.3L27 7.3C27 7.3 26.7 9.1 26.7 9.1L27.5 9.1C27.5 9.1 27.5 9.1 27.5 9.1L27.5 9.1Z" fill="#7823DC" fill-rule="evenodd"/></svg>