<svg viewBox="0 0 32 32" xmlns="http://www.w3.org/2000/svg" xmlns:xlink="http://www.w3.org/1999/xlink" id="Layer_1" overflow="hidden"><rect x="0" y="4" width="2" height="28" fill="#7823DC"/><rect x="14" y="18" width="2" height="26" fill="#7823DC" transform="matrix(-1.83697e-16 1 -1 -1.83697e-16 46 16)"/><path d="M26 0 22 0 22 2 26 2 26 0 26 0ZM20 0 16 0 16 2 20 2 20 0 20 0ZM14 0 10 0 10 2 14 2 14 0 14 0ZM8 0 4 0 4 2 8 2 8 0 8 0ZM2 0 0 0 0 2 2 2 2 2 2 2 2 0 2 0ZM6 30 2 30 2 32 6 32 6 30 6 30ZM12 30 8 30 8 32 12 32 12 30 12 30ZM18 30 14 30 14 32 18 32 18 30 18 30ZM20 30 20 32M30 32 30 30 30 30M32 28 30 28 30 32 32 32 32 28 32 28ZM32 22 30 22 30 26 32 26 32 22 32 22ZM32 16 30 16 30 20 32 20 32 16 32 16ZM32 10 30 10 30 14 32 14 32 10 32 10ZM32 4 30 4 30 8 32 8 32 4 32 4ZM32 0 28 0 28 2 32 2 32 0 32 0Z" fill="#7823DC"/><path d="M22 16 22 30 2 30 2 16 22 16M24 14 0 14 0 32 24 32 24 14 24 14Z" fill="#7823DC"/><path d="M2 30.5 0.6 29 3.2 26.4 4.4 26.9 8.1 22.8 11.9 23.5 13.8 21.2 16.6 21.2 19.5 18.1 22 18.1 22 20.1 20.3 20.1 17.5 23.2 14.8 23.2 12.7 25.7 8.8 25 4.9 29.2 3.7 28.8Z" fill="#7823DC"/></svg>