<svg viewBox="0 0 32.05 32.09" xmlns="http://www.w3.org/2000/svg" xmlns:xlink="http://www.w3.org/1999/xlink" id="Layer_1" overflow="hidden"><style>
.MsftOfcResponsive_Fill_7823dc {
 fill:#7823DC; 
}
</style>
<defs></defs><path d="M32.05 30.07 29 30.07 29 16.91C30.72 16.46 32 14.91 32 13.05L32 7.05C32 4.84 30.21 3.05 28 3.05 25.79 3.05 24 4.84 24 7.05L24 13.05C24 14.91 25.28 16.46 27 16.91L27 30.07 24 30.07 24 20 22 20 22 0 12 0 12 20 10 20 10 30.07 5 30.07 5 26.94C6.72 26.49 8 24.94 8 23.08L8 17.08C8 14.87 6.21 13.08 4 13.08 1.79 13.08 0 14.88 0 17.09L0 23.09C0 24.95 1.28 26.5 3 26.95L3 30.08 0.05 30.08 0.05 32.08 10 32.08 10 32.1 24 32.1 24 32.08 32.05 32.08 32.05 30.08ZM26 13.05 26 7.05C26 5.95 26.9 5.05 28 5.05 29.1 5.05 30 5.95 30 7.05L30 13.05C30 13.79 29.59 14.42 29 14.77L29 11.08 27 11.08 27 14.77C26.41 14.42 26 13.79 26 13.05ZM2 23.09 2 17.09C2 15.99 2.9 15.09 4 15.09 5.1 15.09 6 15.99 6 17.09L6 23.09C6 23.83 5.59 24.46 5 24.81L5 21.17 3 21.17 3 24.81C2.41 24.46 2 23.83 2 23.09ZM14 2 20 2 20 20 14 20 14 2ZM12 22 22 22 22 30.07 18 30.07 18 26 19.95 26 19.95 24 14.05 24 14.05 26 16 26 16 30.07 12 30.07 12 22Z" class="MsftOfcResponsive_Fill_7823dc" fill="#7823DC"/><rect x="16" y="4" width="2" height="2" class="MsftOfcResponsive_Fill_7823dc" fill="#7823DC"/><rect x="16" y="8" width="2" height="2" class="MsftOfcResponsive_Fill_7823dc" fill="#7823DC"/><rect x="16" y="12" width="2" height="2" class="MsftOfcResponsive_Fill_7823dc" fill="#7823DC"/><rect x="16" y="16" width="2" height="2" class="MsftOfcResponsive_Fill_7823dc" fill="#7823DC"/></svg>