<svg width="32" height="32" viewBox="0 0 32 32" xmlns="http://www.w3.org/2000/svg" xmlns:xlink="http://www.w3.org/1999/xlink" overflow="hidden"><defs></defs><g><g><defs><rect x="0" y="0" width="32" height="32" id="SVGID_1_" fill="#7823DC"/></defs><clipPath id="SVGID_2_"><use width="100%" height="100%" xlink:href="#SVGID_1_"></use></clipPath><rect x="7" y="26" width="2" height="2" fill="#7823DC" clip-path="url(#SVGID_2_)"/><rect x="7" y="30" width="2" height="2" fill="#7823DC" clip-path="url(#SVGID_2_)"/><rect x="3.5" y="17.9" width="2" height="4" fill="#7823DC" clip-path="url(#SVGID_2_)"/><rect x="4.7" y="20.6" width="2" height="4" fill="#7823DC" clip-path="url(#SVGID_2_)" transform="matrix(0.7071 -0.7071 0.7071 0.7071 -14.2935 10.6104)"/><rect x="8.3" y="21.6" width="4" height="2" fill="#7823DC" clip-path="url(#SVGID_2_)" transform="matrix(0.7071 -0.7071 0.7071 0.7071 -12.9238 13.9175)"/><rect x="10.5" y="17.9" width="2" height="4" fill="#7823DC" clip-path="url(#SVGID_2_)"/><rect x="0" y="8" width="2" height="10.2" fill="#7823DC" clip-path="url(#SVGID_2_)"/><rect x="14" y="8" width="2" height="10.2" fill="#7823DC" clip-path="url(#SVGID_2_)"/><g clip-path="url(#SVGID_2_)"><defs><rect x="0" y="0" width="32" height="32" id="SVGID_3_" fill="#7823DC"/></defs><clipPath id="SVGID_4_"><use width="100%" height="100%" xlink:href="#SVGID_3_"></use></clipPath><path d="M8 16.2C3.6 16.2 0 12.6 0 8.2 0 3.8 3.6 0.2 8 0.2 12.4 0.2 16 3.8 16 8.2 16 12.6 12.4 16.2 8 16.2ZM8 2.2C4.7 2.2 2 4.9 2 8.2 2 11.5 4.7 14.2 8 14.2 11.3 14.2 14 11.5 14 8.2 14 4.9 11.3 2.2 8 2.2Z" fill="#7823DC" clip-path="url(#SVGID_4_)"/><path d="M5.5 17.9 0 20.1 0 18 4.8 16 5.1 16.7Z" fill="#7823DC" clip-path="url(#SVGID_4_)"/><rect x="20" y="20.4" width="2" height="11.6" fill="#7823DC" clip-path="url(#SVGID_4_)"/><rect x="15.2" y="13.3" width="2" height="11.7" fill="#7823DC" clip-path="url(#SVGID_4_)" transform="matrix(0.3816 -0.9243 0.9243 0.3816 -7.6693 26.8487)"/><path d="M15 9C11.7 9 9.3 8.1 8 6.3 6.2 4 7 1 7 0.9L9 1.4C9 1.4 8.4 3.6 9.6 5.1 10.6 6.4 12.4 7 15 7L15 9Z" fill="#7823DC" clip-path="url(#SVGID_4_)"/><path d="M30 16 22 16 22 8 30 8 30 16ZM32 6 20 6 20 18 32 18 32 6Z" fill="#7823DC" clip-path="url(#SVGID_4_)"/><path d="M28 6 24 6 24 2 28 2 28 6ZM28 0 24 0 22 2 22 8 30 8 30 2 28 0Z" fill="#7823DC" clip-path="url(#SVGID_4_)"/></g></g></g></svg>