<svg viewBox="0 0 32 32" xmlns="http://www.w3.org/2000/svg" xmlns:xlink="http://www.w3.org/1999/xlink" id="Layer_1" xml:space="preserve" overflow="hidden"><path d="M16 2C16.5 2 17 2.4 17 3 17 3.5 16.6 4 16 4 15.5 4 15 3.6 15 3 15 2.5 15.5 2 16 2M16 0C14.3 0 13 1.3 13 3 13 4.7 14.3 6 16 6 17.7 6 19 4.7 19 3 19 1.3 17.7 0 16 0L16 0 16 0 16 0Z" fill="#7823DC" fill-rule="evenodd" clip-rule="evenodd"/><path d="M5 18C5.5 18 6 18.4 6 19 6 19.5 5.6 20 5 20 4.5 20 4 19.6 4 19 4 18.5 4.4 18 5 18M5 16C3.3 16 2 17.3 2 19 2 20.7 3.3 22 5 22 6.7 22 8 20.7 8 19 7.9 17.3 6.6 16 5 16L5 16 5 16 5 16Z" fill="#7823DC" fill-rule="evenodd" clip-rule="evenodd"/><rect x="0" y="21" width="32" height="2" fill="#7823DC"/><path d="M23 23 8 23 8 19.6C8 18.5 8.8 17.6 9.9 17.6L21.2 17.6C22.2 17.6 23.1 18.5 23.1 19.6L23.1 23 23 23ZM10 21 21 21 21 19.6 10 19.6 10 21Z" fill="#7823DC"/><g><g><path d="M8.2 13.4 10.1 14 12.7 7.8 11.2 16.3 13.2 16.3 15.2 6 11.5 6 8.2 13.4 8.2 13.4Z" fill="#7823DC" fill-rule="evenodd" clip-rule="evenodd"/></g><g><path d="M23.8 13.4 21.9 14 19.3 7.8 20.8 16.3 18.8 16.3 16.8 6 20.5 6 23.8 13.4 23.8 13.4Z" fill="#7823DC" fill-rule="evenodd" clip-rule="evenodd"/></g></g><path d="M32 6 32 8 29.7 8 29.7 12.4 27.7 12.4 27.7 6.6 26.4 7.9 23 7.9 23 5.9 25.5 5.9 29.7 1.8 29.7 6Z" fill="#7823DC"/><path d="M9 6 9 8 7.5 8 5.8 11.5 3.8 6 2.7 9 0 9 0 7 1.3 7 3.7 0 6.1 6.4 6.3 6Z" fill="#7823DC"/><rect x="22" y="19" width="10" height="3" fill="#7823DC"/><rect x="10" y="22.8" width="2" height="9.2" fill="#7823DC"/><rect x="20" y="22.8" width="2" height="9.2" fill="#7823DC"/></svg>