<svg viewBox="0 0 32 32" xmlns="http://www.w3.org/2000/svg" xmlns:xlink="http://www.w3.org/1999/xlink" id="Layer_1" overflow="hidden"><style>
.MsftOfcResponsive_Fill_7823dc {
 fill:#7823DC; 
}
</style>
<g><g><defs><path d="M-1 32 32 32 32-1-1-1-1 32Z" id="SVGID_1_" class="MsftOfcResponsive_Fill_7823dc" fill="#7823DC"/></defs><defs><path d="M-1-1 32-1 32 32-1 32-1-1Z" id="SVGID_00000069380163460396206710000006727777149717945775_" class="MsftOfcResponsive_Fill_7823dc" fill="#7823DC"/></defs><clipPath id="SVGID_00000163754631282382492330000006849440667452019122_"><use width="100%" height="100%" xlink:href="#SVGID_1_" overflow="visible"></use></clipPath><clipPath id="SVGID_00000026164618670589944200000012392477249005588901_" clip-path="url(#SVGID_00000163754631282382492330000006849440667452019122_)"><use width="100%" height="100%" xlink:href="#SVGID_00000069380163460396206710000006727777149717945775_" overflow="visible"></use></clipPath><g clip-path="url(#SVGID_00000026164618670589944200000012392477249005588901_)"><defs><path d="M-1 32 32 32 32-1-1-1-1 32Z" id="SVGID_00000074403041834533868140000004427785469355881100_" class="MsftOfcResponsive_Fill_7823dc" fill="#7823DC"/></defs><clipPath id="SVGID_00000178175011432011789360000008610260018514541750_"><use width="100%" height="100%" xlink:href="#SVGID_00000074403041834533868140000004427785469355881100_" overflow="visible"></use></clipPath><path d="M3 14.7 0 17.7 0 20.5 2 18.5 4 18.5 6 20.5 6 17.7 3 14.7 3 14.7Z" class="MsftOfcResponsive_Fill_7823dc" fill="#7823DC" clip-path="url(#SVGID_00000178175011432011789360000008610260018514541750_)"/><path d="M17.1 3 14.1 0 11.3 0 13.3 2 13.3 4 11.3 6 14.1 6 17.1 3 17.1 3Z" class="MsftOfcResponsive_Fill_7823dc" fill="#7823DC" clip-path="url(#SVGID_00000178175011432011789360000008610260018514541750_)"/><path d="M28.9 17.1 31.9 14.1 31.9 11.3 29.9 13.3 27.9 13.3 25.9 11.3 25.9 14.1 28.9 17.1 28.9 17.1Z" class="MsftOfcResponsive_Fill_7823dc" fill="#7823DC" clip-path="url(#SVGID_00000178175011432011789360000008610260018514541750_)"/><path d="M14.8 28.8 17.7 31.8 20.6 31.8 18.6 29.8 18.6 27.8 20.6 25.9 17.7 25.9 14.8 28.8 14.8 28.8Z" class="MsftOfcResponsive_Fill_7823dc" fill="#7823DC" clip-path="url(#SVGID_00000178175011432011789360000008610260018514541750_)"/><path d="M18.3 28 18.3 30C23.8 29.2 28.4 25.3 29.9 19.9L27.8 19.9C26.4 24.2 22.8 27.3 18.3 28L18.3 28Z" class="MsftOfcResponsive_Fill_7823dc" fill="#7823DC" clip-path="url(#SVGID_00000178175011432011789360000008610260018514541750_)"/><path d="M3.8 18.3 1.8 18.3C2.6 23.8 6.6 28.4 12 29.8L12 27.7C7.7 26.4 4.5 22.7 3.8 18.3L3.8 18.3Z" class="MsftOfcResponsive_Fill_7823dc" fill="#7823DC" clip-path="url(#SVGID_00000178175011432011789360000008610260018514541750_)"/><path d="M2 11.9 4.1 11.9C5.5 7.6 9.2 4.5 13.6 3.8L13.6 1.8C8 2.6 3.5 6.5 2 11.9L2 11.9Z" class="MsftOfcResponsive_Fill_7823dc" fill="#7823DC" clip-path="url(#SVGID_00000178175011432011789360000008610260018514541750_)"/><path d="M19.9 2 19.9 4.1C24.2 5.5 27.3 9.1 28.1 13.6L30.1 13.6C29.3 8 25.3 3.5 19.9 2L19.9 2Z" class="MsftOfcResponsive_Fill_7823dc" fill="#7823DC" clip-path="url(#SVGID_00000178175011432011789360000008610260018514541750_)"/></g></g></g><g><g><path d="M19.5 8.5C18.5 8.5 17.5 8.7 16.6 8.9 16 9.1 15.4 9.3 14.9 9.5 12.6 10.6 10.7 12.5 9.6 14.8 9.4 15.4 9.1 16 9 16.5 8.8 17.4 8.6 18.4 8.6 19.4L8.6 23.4 12.6 23.4C18.7 23.4 23.6 18.5 23.6 12.4L23.6 8.4 19.5 8.4ZM18.8 19.6C18.3 20.1 17.8 20.5 17.1 20.8 15.8 21.6 14.2 22 12.4 22L10 22 10 19.6C10 18.4 10.2 17.2 10.6 16.2 10.8 15.8 11 15.3 11.2 15 11.5 14.4 11.9 13.9 12.4 13.3L12.4 13.3 12.4 13.3C12.6 13.1 12.9 12.8 13.1 12.6 13.4 12.3 13.8 12 14.1 11.8 14.6 11.5 15 11.2 15.5 11 15.7 10.9 15.8 10.8 15.9 10.8 16.9 10.4 18.1 10.2 19.3 10.2L21.8 10.2 21.8 12.6C21.8 13.9 21.6 15.1 21.1 16.2 20.9 16.7 20.6 17.1 20.3 17.6 19.9 18.3 19.4 18.9 18.8 19.6Z" class="MsftOfcResponsive_Fill_7823dc" fill="#7823DC"/><path d="M12.5 23.8 8.2 23.8 8.2 19.5C8.2 18.6 8.3 17.6 8.6 16.5 8.8 16 9 15.3 9.3 14.7 10.4 12.3 12.4 10.4 14.7 9.3 15.3 9.1 15.8 8.8 16.5 8.7 17.6 8.4 18.5 8.3 19.5 8.3L23.8 8.3 23.8 12.6C23.8 18.7 18.7 23.8 12.5 23.8ZM8.8 23.2 12.6 23.2C18.5 23.2 23.3 18.4 23.3 12.5L23.3 8.8 19.5 8.8C18.6 8.8 17.7 8.9 16.6 9.2 16 9.4 15.5 9.6 14.9 9.8 12.7 10.9 10.8 12.7 9.7 15 9.4 15.6 9.2 16.2 9.1 16.7 8.8 17.7 8.7 18.7 8.7 19.6L8.7 23.2ZM12.4 22.2 9.8 22.2 9.8 19.5C9.8 18.3 10 17.1 10.4 16 10.6 15.6 10.8 15.1 11 14.8 11.3 14.2 11.7 13.6 12.2 13.1L12.9 12.4C13.1 12.2 13.4 12 13.7 11.8 13.8 11.7 13.9 11.7 14 11.6 14.5 11.3 15 11 15.5 10.8 15.7 10.7 15.8 10.6 15.9 10.6 17 10.2 18.2 10 19.4 10L22.2 10 22.2 12.7C22.2 14 21.9 15.3 21.5 16.4 21.3 16.9 21 17.4 20.7 17.9 20.2 18.6 19.6 19.2 19 19.8 18.5 20.3 17.9 20.7 17.3 21 15.9 21.8 14.2 22.2 12.4 22.2ZM10.3 21.7 12.4 21.7C14.1 21.7 15.6 21.3 16.9 20.6 17.5 20.3 18.1 19.9 18.5 19.5 19.1 18.9 19.7 18.3 20.1 17.6 20.4 17.2 20.6 16.7 20.9 16.2 21.4 15.1 21.6 13.9 21.6 12.7L21.6 10.5 19.3 10.5C18.2 10.5 17 10.7 16 11.1L16 11C16 11 15.8 11.1 15.7 11.1 15.2 11.3 14.8 11.6 14.3 11.9 14.2 12 14.1 12 14 12.1 13.8 12.3 13.5 12.4 13.3 12.7L12.6 13.4C12.2 13.9 11.8 14.5 11.5 15 11.3 15.3 11.1 15.8 11 16.2 10.6 17.2 10.4 18.4 10.4 19.5L10.4 21.7Z" class="MsftOfcResponsive_Fill_7823dc" fill="#7823DC"/></g><g><rect x="7.5" y="14.8" width="17.8" height="1.6" class="MsftOfcResponsive_Fill_7823dc" fill="#7823DC" transform="matrix(0.7071 -0.7071 0.7071 0.7071 -6.2327 16.1633)"/><path d="M10.6 22.8 9.1 21.3 22.1 8.3 23.6 9.8 10.6 22.8ZM9.9 21.4 10.7 22.2 22.9 9.9 22.1 9.1 9.9 21.4Z" class="MsftOfcResponsive_Fill_7823dc" fill="#7823DC"/></g><g><path d="M14 18.5 12.4 19 12.4 18.5 11.6 15.8 11.3 14.9 11.1 14.2 10.9 13.5 12.4 13 12.4 13.2 12.4 13.2 12.9 14.9 13.6 17.3 13.9 18.1Z" class="MsftOfcResponsive_Fill_7823dc" fill="#7823DC"/><path d="M12.2 19.3 12.1 18.5 11.3 15.8 11 15 10.8 14.3 10.5 13.4 12.6 12.8 12.6 13.3 13.1 14.9 14 18.1 14.2 18.7 12.2 19.3ZM11.2 13.6 11.4 14.1 11.6 14.8 11.9 15.6 12.7 18.6 13.7 18.3 13.6 18.2 13.4 17.3 12.2 13.3 11.2 13.6Z" class="MsftOfcResponsive_Fill_7823dc" fill="#7823DC"/></g><g><path d="M17.2 15.4 15.6 15.8 15.4 15.4 14.7 13.2 14.3 11.7 14.1 11.3 14 11.1 14.2 11.1 15.6 10.6 15.8 11.3 16.7 14.1 17 15Z" class="MsftOfcResponsive_Fill_7823dc" fill="#7823DC"/><path d="M15.4 16.2 13.8 11.3 13.6 10.9 14.1 10.9 15.7 10.4 16 11.3 16.9 14.1 17.5 15.6 15.4 16.2ZM14.4 11.3 14.5 11.6 15.8 15.6 16.9 15.3 16.5 14.3 15.5 11.1 14.4 11.3Z" class="MsftOfcResponsive_Fill_7823dc" fill="#7823DC"/></g><g><rect x="15.2" y="16.7" width="1.6" height="5.8" class="MsftOfcResponsive_Fill_7823dc" fill="#7823DC" transform="matrix(0.2747 -0.9615 0.9615 0.2747 -7.1792 29.6093)"/><path d="M18.8 21.4 12.8 19.7 13.4 17.7 19.4 19.4 18.8 21.4ZM13.4 19.4 18.5 20.8 18.8 19.8 13.7 18.4 13.4 19.4Z" class="MsftOfcResponsive_Fill_7823dc" fill="#7823DC"/></g><g><rect x="18.4" y="13.5" width="1.6" height="5.8" class="MsftOfcResponsive_Fill_7823dc" fill="#7823DC" transform="matrix(0.2747 -0.9615 0.9615 0.2747 -1.8526 30.3554)"/><path d="M21.9 18.3 15.9 16.6 16.5 14.6 22.5 16.3 21.9 18.3ZM16.5 16.2 21.6 17.6 21.9 16.6 16.8 15.2 16.5 16.2Z" class="MsftOfcResponsive_Fill_7823dc" fill="#7823DC"/></g></g></svg>