<svg viewBox="0 0 32 32" xmlns="http://www.w3.org/2000/svg" xmlns:xlink="http://www.w3.org/1999/xlink" id="Graphic" xml:space="preserve" overflow="hidden"><g><g><path d="M2.6 10.9 4.4 16.1 5.3 18.6 7.5 17 7.6 16.9 8.5 18.5 8.7 18.9 9.1 19.2 12.1 21.2 12.5 23.6 12.6 24 12.8 24.4 13.8 26 11.1 28.2 9.9 26.7 9.7 26.4 9.3 26.1 3.6 22.6 2.1 11.2 2.6 10.9M3.6 7.7 0 10.3 2 23.8 8.4 27.8 10.8 31 16.5 26.4 14.5 23.3 13.8 20 10 17.5 8 14 6.1 15.4 3.6 7.7 3.6 7.7Z" fill="#7823DC"/><path d="M7.2 21.9 5.2 18.4 4.8 17 6.7 16.6 7 17.6 9 20.8Z" fill="#7823DC"/></g><g><path d="M29.3 10.9 29.8 11.2 28.1 22.6 22.4 26.1 22.1 26.3 21.9 26.6 20.8 28.1 18.1 25.9 19.1 24.3 19.3 23.9 19.4 23.5 19.8 21.1 22.8 19.1 23.2 18.8 23.4 18.4 24.3 16.8 24.4 16.9 26.6 18.5 27.5 16 29.3 10.9M28.3 7.7 25.6 15.4 23.7 14 21.7 17.5 17.9 20 17.4 23.3 15.4 26.4 21.1 31 23.5 27.8 29.9 23.8 31.9 10.3 28.3 7.7 28.3 7.7Z" fill="#7823DC"/><path d="M24.6 21.9 22.9 20.8 24.8 17.6 25 16.6 27 17 26.7 18.4Z" fill="#7823DC"/></g></g><g><path d="M15.6 19.9 16 20.1 16.4 19.9C21.6 17.3 24.8 12.1 24.8 6.3L24.8 5.6 24.4 5.3C22.1 3.8 16.7 0.5 16.5 0.3L16 0 15.5 0.3C15.3 0.4 9.8 3.7 7.6 5.3L7.1 5.6 7.1 6.3C7.1 12.1 10.3 17.3 15.6 19.9L15.6 19.9ZM16 2.3C17.3 3.1 20.9 5.3 22.9 6.6 22.8 11.3 20.2 15.5 16 17.8 11.8 15.5 9.2 11.3 9.1 6.6 11.1 5.4 14.7 3.2 16 2.3L16 2.3Z" fill="#7823DC" fill-rule="evenodd" clip-rule="evenodd"/><path d="M19.8 8.6 18.4 7.2 14.8 10.9 13.6 9.7 12.2 11.1 14.8 13.7 19.8 8.6 19.8 8.6Z" fill="#7823DC" fill-rule="evenodd" clip-rule="evenodd"/></g></svg>