<svg width="32" height="32" viewBox="0 0 32 32" xmlns="http://www.w3.org/2000/svg" xmlns:xlink="http://www.w3.org/1999/xlink" overflow="hidden"><defs></defs><g><g><defs><rect x="0" y="0" width="32" height="32" id="SVGID_1_" fill="#7823DC"/></defs><clipPath id="SVGID_2_"><use width="100%" height="100%" xlink:href="#SVGID_1_"></use></clipPath><path d="M6.2 2 15.7 2 18.5 6 3.7 6 6.2 2ZM5.1 0 0 8 22.4 8 16.9 0 5.1 0Z" fill="#7823DC" clip-path="url(#SVGID_2_)"/><path d="M15.9 2 25.4 2 28.2 6 13.3 6 15.9 2ZM14.8 0 9.6 8 32 8 26.5 0 14.8 0Z" fill="#7823DC" clip-path="url(#SVGID_2_)"/><path d="M12.2 8 19.8 8 16.2 23.6 12.2 8ZM9.6 6 16.3 32 16.3 32 22.3 6 9.6 6Z" fill="#7823DC" clip-path="url(#SVGID_2_)"/><path d="M29.5 8 16.3 28.2 2.6 8 0.1 8 16.3 31.8 31.9 8Z" fill="#7823DC" clip-path="url(#SVGID_2_)"/></g></g></svg>