<svg viewBox="0 0 32 32.07" xmlns="http://www.w3.org/2000/svg" xmlns:xlink="http://www.w3.org/1999/xlink" id="Layer_1" overflow="hidden"><style>
.MsftOfcResponsive_Fill_7823dc {
 fill:#7823DC; 
}
</style>
<defs></defs><path d="M32 20 32 14 27.92 14 27.92 9.92 24.75 5.47 23.12 6.63 25.92 10.55 25.92 13.99 22 13.99 22 7.42 16 9.59 10 7.42 10 13.99 6 13.99 6 10.55 8.8 6.63 7.17 5.47 4 9.92 4 14 0 14 0 20 6 20 6 30.07 0 30.07 0 32.07 32 32.07 32 30.07 26 30.07 26 20 32 20ZM12 10.28 16 11.72 20 10.28 20 14 12 14 12 10.28ZM24 30 8 30 8 20 24 20 24 30ZM6 18 2 18 2 16 30 16 30 18 6 18Z" class="MsftOfcResponsive_Fill_7823dc" fill="#7823DC"/><path d="M22 22 10 22 10 28 22 28 22 22ZM20 26 12 26 12 24 20 24 20 26Z" class="MsftOfcResponsive_Fill_7823dc" fill="#7823DC"/><path d="M16 7.45C18.05 7.45 19.73 5.78 19.73 3.72 19.73 1.66 18.06-0.01 16-0.01 13.94-0.01 12.27 1.66 12.27 3.72 12.27 5.78 13.94 7.45 16 7.45ZM16 2C16.95 2 17.73 2.77 17.73 3.73 17.73 4.69 16.96 5.46 16 5.46 15.04 5.46 14.27 4.69 14.27 3.73 14.27 2.77 15.04 2 16 2Z" class="MsftOfcResponsive_Fill_7823dc" fill="#7823DC"/></svg>