<svg viewBox="0 0 32 32" xmlns="http://www.w3.org/2000/svg" xmlns:xlink="http://www.w3.org/1999/xlink" id="Layer_5" overflow="hidden"><defs></defs><path d="M18.12 32.16C18.02 32.16 17.92 32.15 17.82 32.13 17.28 32.01 16.87 31.58 16.78 31.03 16.49 29.27 16.21 28.34 16.05 28.09 15.75 27.59 15.5 27.05 15.3 26.62 15.21 26.43 15.13 26.26 15.07 26.14 14.03 25.41 10.85 22.78 11.13 20.33 11.28 19.03 11.7 18.46 12.17 18.1 12.13 17.37 12.42 16.76 12.63 16.33 12.68 16.22 12.74 16.11 12.77 16.02 12.77 15.88 12.77 15.69 12.77 15.46 12.79 14.79 12.84 13.41 12.4 12.82L12.21 12.56C11.42 11.5 10.67 10.49 11.29 9.37 11.29 9.37 11.28 9.34 11.27 9.32 11.21 9.12 11.11 8.78 11.17 8.33 11.21 8.01 11.32 7.73 11.41 7.49 11.58 7.07 11.59 6.97 11.52 6.81L11.44 6.64C11.23 6.2 10.92 5.55 11.25 4.83 11.56 4.18 12.26 3.77 13.68 3.42 15.1 3.07 15.58 3.04 15.99 3.19 16.32 3.14 16.39 3.09 16.45 3.06 16.6 2.98 16.87 2.82 17.31 2.86 17.58 2.88 17.83 2.98 18.11 3.09 18.28 3.16 18.61 3.28 18.73 3.29 19.14 3.23 19.76 2.96 19.97 2.86L20.12 2.8C20.85 2.58 21.47 2.71 21.82 3.16 21.97 3.35 22.25 3.84 21.9 4.55 22.62 4.86 22.94 5.79 22.75 6.49 22.58 7.12 21.94 7.68 20.95 7.44 20.56 7.34 20.09 7.33 19.76 7.36 19.9 7.57 20.1 7.82 20.24 8.01 20.32 8.12 20.41 8.23 20.48 8.34 20.51 8.28 20.55 8.22 20.59 8.17 20.83 7.86 21.18 7.68 21.58 7.66 21.66 7.66 21.73 7.65 21.8 7.64 22.13 7.61 22.69 7.55 23.15 7.96 23.61 8.36 23.67 8.96 23.69 9.38 23.69 9.47 23.69 9.56 23.69 9.65 24.29 9.38 24.91 9.29 25.32 10.02L26.02 11.27 24.6 11.49C24.52 11.5 24.43 11.52 24.34 11.55 24.26 11.59 24.16 11.65 24.05 11.71L23.82 11.83C23.82 11.83 23.76 11.86 23.74 11.87 23.66 12.64 23.12 13.04 22.69 13.25 22.73 13.49 22.71 13.71 22.63 13.91 22.77 14.18 23.01 14.7 22.66 15.23 22.63 15.31 22.57 15.54 22.56 15.68 23.62 16.43 22.96 17.78 22.67 18.37 22.59 18.54 22.46 18.8 22.44 18.89 22.44 19.31 22.3 19.77 22.16 20.22 22.07 20.51 21.97 20.82 21.96 21.02 21.95 21.17 21.92 21.55 21.88 22.04 21.77 23.35 21.48 26.82 21.5 27.27 21.55 27.79 21.66 29.04 20.59 29.7L20.59 29.7C20.59 29.7 20.26 30 19.21 31.54L19.21 31.54C18.95 31.92 18.54 32.13 18.1 32.13ZM18.76 30.7 18.76 30.7ZM16.26 24.54C16.63 24.74 16.8 25.1 17.12 25.77 17.3 26.16 17.53 26.64 17.77 27.05 17.87 27.22 18.14 27.66 18.47 29.18 19.16 28.26 19.4 28.11 19.55 28.02 19.53 28.02 19.55 27.87 19.52 27.46 19.49 27.09 19.58 25.68 19.9 21.9 19.94 21.41 19.97 21.05 19.98 20.9 20.01 20.46 20.15 20.03 20.27 19.64 20.36 19.35 20.46 19.02 20.46 18.84 20.46 18.37 20.68 17.93 20.89 17.5 20.95 17.38 21.03 17.21 21.09 17.07 20.86 16.84 20.71 16.56 20.63 16.22 20.5 15.65 20.63 15.07 20.77 14.65 20.63 14.36 20.45 13.85 20.64 13.37 20.6 13.24 20.56 13.1 20.54 12.94 20.45 12.17 21.02 11.81 21.4 11.64 20.98 11.69 20.54 11.57 20.21 11.41 19.62 11.11 19.26 10.61 19.23 10.04 19.15 9.87 18.86 9.48 18.66 9.22 18.11 8.49 17.59 7.8 17.59 7.05 17.59 6.58 17.8 6.16 18.18 5.86 18.66 5.49 19.35 5.36 20.01 5.35 20 5.32 19.99 5.3 19.98 5.27 19.95 5.2 19.93 5.13 19.91 5.06 19.63 5.15 19.32 5.24 19.02 5.28 18.44 5.36 17.87 5.14 17.41 4.96 17.36 4.94 17.32 4.92 17.28 4.91 17.07 5.01 16.79 5.11 16.35 5.18 15.96 5.24 15.69 5.23 15.43 5.13 15.3 5.14 14.97 5.19 14.18 5.39 13.67 5.51 13.38 5.62 13.22 5.69 13.24 5.73 13.25 5.76 13.27 5.79L13.37 5.99C13.81 6.95 13.49 7.75 13.31 8.23 13.26 8.36 13.2 8.51 13.19 8.58 13.19 8.62 13.19 8.64 13.23 8.78 13.31 9.07 13.46 9.6 13.11 10.28 13.19 10.5 13.55 10.98 13.84 11.37L14.04 11.64C14.89 12.79 14.83 14.58 14.79 15.54 14.79 15.71 14.78 15.85 14.79 15.94 14.84 16.41 14.64 16.81 14.46 17.2 14.32 17.5 14.16 17.83 14.2 18.04 14.4 19.09 13.71 19.51 13.49 19.65 13.39 19.71 13.24 19.81 13.15 20.57 13.01 21.77 15.4 23.98 16.29 24.56ZM15.15 26.19C15.21 26.24 15.28 26.29 15.38 26.34 15.35 26.33 15.26 26.28 15.15 26.19ZM12.78 16.11 12.78 16.11ZM21.01 14.13C21.01 14.13 20.97 14.19 20.95 14.23 20.97 14.19 20.99 14.16 21.01 14.13ZM13.05 10.34 13.05 10.34ZM19.23 10.07 19.23 10.07ZM19.22 9.95 19.22 9.95ZM21.24 6.46 21.24 6.46Z" fill="#7823DC"/><path d="M10.06 13.44C9.79 13.44 9.49 13.37 9.14 13.28 8.98 13.24 8.74 13.18 8.59 13.16 8.16 13.33 7.16 13.64 6.44 13.22 6.04 12.99 5.8 12.59 5.76 12.12L5.74 11.85C5.73 11.63 5.71 11.38 5.69 11.28 5.25 10.52 5.52 8.75 6.51 7.65 7.19 6.9 8.34 6.18 9.38 6.28 9.96 6.33 10.43 6.63 10.72 7.1L10.95 7.48 10.82 7.91C10.6 8.62 10.39 9.6 10.43 9.93 10.46 10.19 10.67 10.75 10.81 11.12 11.14 11.98 11.42 12.72 10.71 13.23 10.5 13.38 10.29 13.43 10.06 13.43ZM8.8 13.07 8.77 13.09 8.8 13.07ZM5.73 11.35 5.73 11.35ZM7.48 10.38C7.63 10.67 7.68 10.98 7.71 11.35 7.79 11.33 7.86 11.3 7.91 11.28 8.15 11.16 8.41 11.13 8.69 11.16 8.57 10.82 8.47 10.47 8.44 10.17 8.38 9.7 8.48 9.05 8.6 8.49 8.4 8.61 8.18 8.77 7.99 8.99 7.57 9.46 7.47 10.13 7.48 10.38Z" fill="#7823DC"/><path d="M26.05 6.96C25.96 6.86 25.66 6.68 25.47 6.6L25.15 6.68 24.68 6.29C24.02 5.68 23.94 3.8 24 3.41 24.02 3.28 23.99 2.99 23.94 2.76 23.73 2.64 23.59 2.49 23.5 2.4 23.42 2.32 23.36 2.25 23.28 2.2 23.15 2.38 22.98 2.71 22.88 2.98L20.99 2.33C21.42 1.08 22.39-0.23 23.7 0.2 24.31 0.4 24.66 0.72 24.87 0.94 25.04 0.98 25.19 1.07 25.33 1.19 25.97 1.76 26.05 3.23 25.98 3.71 25.96 3.89 26.02 4.37 26.09 4.7 26.61 4.88 27.06 5.2 27.13 5.26 27.65 5.64 27.93 6.08 27.96 6.55L25.96 6.68C25.97 6.84 26.03 6.94 26.05 6.97ZM25.2 4.61 25.2 4.61ZM25.2 4.61 25.2 4.61ZM25.2 4.61 25.2 4.61ZM25.2 4.61 25.2 4.61ZM25.2 4.61 25.2 4.61ZM25.2 4.61 25.2 4.61ZM25.2 4.61 25.2 4.61Z" fill="#7823DC"/><path d="M23.36 7.22C23.36 7.14 23.22 5.21 24.08 2.9L25.95 3.6C25.25 5.48 25.35 7.06 25.35 7.07L23.36 7.22Z" fill="#7823DC"/></svg>