<svg viewBox="0 0 32 32.01" xmlns="http://www.w3.org/2000/svg" xmlns:xlink="http://www.w3.org/1999/xlink" id="a" overflow="hidden"><style>
.MsftOfcResponsive_Fill_7823dc {
 fill:#7823DC; 
}
</style>
<defs></defs><path d="M22.68 11.8 21.32 10.34 25.96 5.99 21.41 1.73 22.78 0.27 28.89 5.99 22.68 11.8Z" class="MsftOfcResponsive_Fill_7823dc" fill="#7823DC"/><path d="M15.68 11.99 14.32 10.53 19.16 5.99 14.61 1.73 15.97 0.27 22.09 5.99 15.68 11.99Z" class="MsftOfcResponsive_Fill_7823dc" fill="#7823DC"/><path d="M8.68 11.63 7.32 10.17 11.8 5.97 7.79 2.03 9.19 0.6 14.68 6.01 8.68 11.63Z" class="MsftOfcResponsive_Fill_7823dc" fill="#7823DC"/><rect x="0" y="0" width="32" height="2" class="MsftOfcResponsive_Fill_7823dc" fill="#7823DC"/><rect x="0" y="10" width="32" height="2" class="MsftOfcResponsive_Fill_7823dc" fill="#7823DC"/><rect x="0" y="30" width="32" height="2" class="MsftOfcResponsive_Fill_7823dc" fill="#7823DC"/><path d="M11.49 26.7 11.49 15.25 21.51 21.15 11.49 26.69ZM13.49 18.75 13.49 23.3 17.47 21.1 13.49 18.75Z" class="MsftOfcResponsive_Fill_7823dc" fill="#7823DC"/><rect x="0" y="1.55" width="2" height="10.45" class="MsftOfcResponsive_Fill_7823dc" fill="#7823DC"/><rect x="4" y="1.44" width="2" height="8.99" class="MsftOfcResponsive_Fill_7823dc" fill="#7823DC"/><rect x="30" y="0.48" width="2" height="31.53" class="MsftOfcResponsive_Fill_7823dc" fill="#7823DC"/><rect x="0" y="0.48" width="2" height="31.53" class="MsftOfcResponsive_Fill_7823dc" fill="#7823DC"/></svg>