<svg viewBox="0 0 29.22 29.22" xmlns="http://www.w3.org/2000/svg" xmlns:xlink="http://www.w3.org/1999/xlink" id="Layer_5" overflow="hidden"><defs></defs><path d="M23.47 18.17 19.96 12.66 19.92 12.6 6.21 12.6 2.3 18.96 1.84 18.96 1.84 12.45C1.84 9 4.64 6.27 8 6.27L8.75 6.27C8.8 8.31 10.45 9.94 12.5 9.94L16.09 9.94 16.09 8.99 19.76 8.99 19.76 7.15 16.09 7.15 16.09 3.54 19.76 3.54 19.76 1.7 16.09 1.7 16.09 0.75 12.5 0.75C10.45 0.75 8.8 2.38 8.75 4.42L8 4.42C3.6 4.44 0 8.05 0 12.46L0 19.2 0 19.2 0 23.78 2.93 26.72C3.1 28.17 4.27 29.21 5.74 29.21 6.91 29.21 7.92 28.54 8.36 27.48L19.33 27.48C19.76 28.53 20.78 29.21 21.95 29.21 23.12 29.21 24.13 28.54 24.57 27.48L29.23 27.48 29.23 19.99 23.48 18.16ZM10.58 4.53C10.58 3.49 11.46 2.61 12.5 2.61L14.26 2.61 14.26 8.12 12.5 8.12C11.46 8.12 10.58 7.24 10.58 6.2L10.58 4.52ZM14.73 14.67 18.88 14.67 21.64 18.97 14.73 18.97 14.73 14.67ZM5.74 27.15C5.27 27.15 4.96 26.84 4.96 26.36 4.96 25.88 5.27 25.57 5.74 25.57 6.21 25.57 6.52 25.88 6.52 26.36 6.52 26.84 6.21 27.15 5.74 27.15ZM12.67 25.42 8.37 25.42C7.94 24.26 6.92 23.51 5.74 23.51 4.49 23.51 3.45 24.26 3.06 25.42L2.06 25.42 2.06 21.03 12.67 21.03 12.67 25.42ZM12.67 18.97 4.71 18.97 7.25 14.67 12.67 14.67 12.67 18.97ZM21.94 27.15C21.47 27.15 21.16 26.84 21.16 26.36 21.16 25.88 21.57 25.57 21.94 25.57 22.41 25.57 22.72 25.88 22.72 26.36 22.72 26.84 22.41 27.15 21.94 27.15ZM27.16 21.79 25.35 21.79 25.35 23.86 27.16 23.86 27.16 25.43 24.62 25.43C24.23 24.27 23.19 23.52 21.94 23.52 20.69 23.52 19.65 24.27 19.26 25.43L14.73 25.43 14.73 21.04 25.69 21.04C25.69 21.04 27.15 21.46 27.15 21.46L27.15 21.79Z" stroke-width="0" fill="#7823DC"/><path d="M24.31 11.05 24.31 13.25 22.64 11.66 22.64 14.04 25.2 16.51 27.76 14.04 27.76 11.57 26.08 13.25 26.08 11.06 24.31 11.05Z" stroke-width="0" fill="#7823DC"/><path d="M21.1 6.35 22.07 6.35C22.2 7.06 22.58 7.71 23.18 8.29 23.79 8.87 24.72 9.16 25.99 9.16 26.77 9.16 27.44 8.97 28 8.59L28 6.6C27.33 7.1 26.62 7.35 25.85 7.35 25.15 7.35 24.7 7.02 24.49 6.35L26.1 6.35 26.33 5.38 24.35 5.38 24.35 5.1C24.35 4.97 24.35 4.86 24.35 4.79L26.23 4.79 26.46 3.82 24.54 3.82C24.78 3.2 25.25 2.89 25.94 2.89 26.47 2.89 26.97 3.11 27.45 3.56L27.93 1.63C27.23 1.27 26.55 1.09 25.87 1.09 23.8 1.09 22.53 2 22.07 3.83L21.49 3.83 21.24 4.8 21.95 4.8C21.95 4.86 21.94 4.97 21.94 5.11 21.94 5.25 21.94 5.34 21.95 5.39L21.36 5.39 21.1 6.36Z" stroke-width="0" fill="#7823DC"/></svg>