<svg viewBox="0 0 32 32" xmlns="http://www.w3.org/2000/svg" xmlns:xlink="http://www.w3.org/1999/xlink" id="Graphic" overflow="hidden"><defs></defs><path d="M15 2.8C16.8977 4.70209 18.6494 6.74455 20.24 8.91L20.3 9C21.2914 10.3302 22.1395 11.7615 22.83 13.27 22.8781 13.4264 22.9349 13.5799 23 13.73L23.2 14.37C23.4847 15.4909 23.6259 16.6435 23.62 17.8 23.6347 18.2013 23.6112 18.6031 23.55 19 23.0921 23.9988 19.7459 28.2647 15 29.9 10.7941 28.4439 7.65196 24.9 6.71 20.55L6.71 20.36C6.73471 20.2548 6.73471 20.1452 6.71 20.04L6.71 19.86C6.67952 19.5511 6.63279 19.244 6.57 18.94L6.57 17.79C6.56413 16.6335 6.70526 15.4809 6.99 14.36 7.05 14.14 7.12 13.93 7.18 13.72 7.24 13.51 7.33 13.35 7.37 13.22 8.03371 11.7622 8.83749 10.3723 9.77 9.07L9.77 9 9.77 8.92C11.3643 6.75717 13.1121 4.71189 15 2.8M15 0 15 0 14.55 0.44C12.2184 2.68133 10.0777 5.11308 8.15 7.71L8 7.91C6.97532 9.32568 6.08797 10.8359 5.35 12.42 5.26 12.62 5.17 12.85 5.09 13.09 5.01 13.33 4.93 13.59 4.86 13.85 4.53073 15.1575 4.36943 16.5017 4.38 17.85 4.3553 18.1361 4.3553 18.4239 4.38 18.71 4.41125 18.8651 4.41125 19.0249 4.38 19.18L4.38 19.18C4.40598 19.5989 4.47296 20.0142 4.58 20.42 4.56503 20.6177 4.59583 20.8162 4.67 21 5.84113 26.2806 9.80327 30.4998 15 32L15 32C20.8234 30.2945 25.0066 25.1945 25.54 19.15 25.54 18.71 25.61 18.26 25.62 17.82 25.6306 16.4717 25.4693 15.1275 25.14 13.82 25.07 13.56 24.99 13.3 24.91 13.06 24.83 12.82 24.74 12.59 24.65 12.39 23.8998 10.7725 22.9885 9.23475 21.93 7.8L21.86 7.68C19.932 5.09267 17.7912 2.67091 15.46 0.44Z" fill="#7823DC"/><path d="M16 2 14.01 2 14.01 30.64 16 30.64 16 2 16 2Z" fill="#7823DC"/><path d="M15.01 27.28 4.83 19.06 6.08 17.5 15.01 24.72 23.95 17.59 25.18 19.16 15.01 27.28Z" fill="#7823DC"/><path d="M15.01 21.61 5.38 13.83 6.63 12.28 15.01 19.05 23.18 12.54 24.41 14.1 15.01 21.61Z" fill="#7823DC"/><path d="M15.01 15.94 7.71 10.05 8.97 8.5 15.01 13.38 21.29 8.37 22.54 9.94 15.01 15.94Z" fill="#7823DC"/><path d="M15.01 10.56 10.01 6.52 11.27 4.97 15.01 7.99 18.93 4.87 20.16 6.44 15.01 10.56Z" fill="#7823DC"/></svg>