<svg viewBox="0 0 32 32" xmlns="http://www.w3.org/2000/svg" xmlns:xlink="http://www.w3.org/1999/xlink" id="Layer_2_1_" xml:space="preserve" overflow="hidden"><path d="M32 29.4 32 32 20.4 22.8 21.6 21.2Z" fill="#7823DC"/><g><path d="M12.9 2C18.9 2 23.8 6.9 23.8 12.9 23.8 18.9 18.9 23.8 12.9 23.8 6.9 23.8 2 18.9 2 12.9 2 6.9 6.9 2 12.9 2M12.9 0C5.8 0 0 5.8 0 12.9 0 20 5.8 25.8 12.9 25.8 20 25.8 25.8 20 25.8 12.9 25.8 5.8 20 0 12.9 0L12.9 0 12.9 0 12.9 0Z" fill="#7823DC" fill-rule="evenodd" clip-rule="evenodd"/><g><path d="M12.9 8.6C15.2 8.6 17.2 10.5 17.2 12.9 17.2 15.2 15.3 17.2 12.9 17.2 10.6 17.2 8.6 15.3 8.6 12.9 8.6 10.6 10.6 8.6 12.9 8.6M12.9 6.5C9.4 6.5 6.5 9.3 6.5 12.9 6.5 16.4 9.3 19.3 12.9 19.3 16.5 19.3 19.3 16.5 19.3 12.9 19.2 9.4 16.4 6.5 12.9 6.5L12.9 6.5 12.9 6.5 12.9 6.5Z" fill="#7823DC" fill-rule="evenodd" clip-rule="evenodd"/><path d="M11.9 4.5 14 4.5 14 9.8 11.9 9.8 11.9 4.5Z" fill="#7823DC" fill-rule="evenodd" clip-rule="evenodd"/><path d="M16.1 11.8 21.3 11.8 21.3 13.9 16.1 13.9 16.1 11.8Z" fill="#7823DC" fill-rule="evenodd" clip-rule="evenodd"/><path d="M11.8 16.1 13.8 16.1 13.8 21.3 11.8 21.3 11.8 16.1Z" fill="#7823DC" fill-rule="evenodd" clip-rule="evenodd"/><path d="M4.4 11.8 9.7 11.8 9.7 13.9 4.4 13.9 4.4 11.8Z" fill="#7823DC" fill-rule="evenodd" clip-rule="evenodd"/></g></g></svg>