<svg viewBox="0 0 32 32" xmlns="http://www.w3.org/2000/svg" xmlns:xlink="http://www.w3.org/1999/xlink" id="Layer_2_00000144328325245699140920000014890284756443101063_" xml:space="preserve" overflow="hidden"><g><path d="M14.8 6.9 14.8 20.8 9.1 15.1 9.1 18.3 15.9 25.2 22.8 18.3 22.8 15.1 17.1 20.8 17.1 6.9 14.8 6.9 14.8 6.9Z" fill="#7823DC" fill-rule="evenodd" clip-rule="evenodd"/><path d="M6.8 0 2.3 4.6 2.3 32 29.8 32 29.8 0 6.8 0 6.8 0ZM9.1 2.3 9.1 6.9 4.6 6.9 4.6 2.3 9.1 2.3 9.1 2.3ZM27.4 29.7 4.6 29.7 4.6 9.1 11.5 9.1 11.5 2.3 27.5 2.3 27.5 29.7 27.4 29.7Z" fill="#7823DC" fill-rule="evenodd" clip-rule="evenodd"/></g></svg>