<svg viewBox="0 0 31.99 32" xmlns="http://www.w3.org/2000/svg" xmlns:xlink="http://www.w3.org/1999/xlink" id="Layer_1" overflow="hidden"><style>
.MsftOfcResponsive_Fill_7823dc {
 fill:#7823DC; 
}
</style>
<defs></defs><path d="M22.91 25.08C17.82 25.08 13.83 21.09 13.83 16L13.83 6.77C13.83 4.95 15.31 3.46 17.14 3.46L28.68 3.46C30.5 3.46 31.99 4.94 31.99 6.77L31.99 16C31.99 21.09 28 25.08 22.91 25.08ZM17.14 5.46C16.42 5.46 15.83 6.05 15.83 6.77L15.83 16C15.83 19.97 18.94 23.08 22.91 23.08 26.88 23.08 29.99 19.97 29.99 16L29.99 6.77C29.99 6.05 29.4 5.46 28.68 5.46L17.14 5.46Z" class="MsftOfcResponsive_Fill_7823dc" fill="#7823DC"/><path d="M26.22 4.46 24.22 4.46 24.22 3.31C24.22 2.59 23.63 2 22.91 2 22.19 2 21.6 2.59 21.6 3.31L21.6 4.46 19.6 4.46 19.6 3.31C19.6 1.49 21.08 0 22.91 0 24.74 0 26.22 1.48 26.22 3.31L26.22 4.46Z" class="MsftOfcResponsive_Fill_7823dc" fill="#7823DC"/><path d="M0 32 0 30C2.15 30 4.48 29.56 6.56 28.75 9.61 27.57 11.82 28.25 15.18 29.29L16.45 29.68C17.56 30.01 19.11 30.24 20.21 29.42 21.32 28.59 21.91 26.75 21.91 24.08L23.91 24.08C23.91 27.45 23.07 29.79 21.4 31.03 20 32.07 18.09 32.26 15.87 31.6L14.58 31.21C11.31 30.2 9.67 29.7 7.27 30.63 4.97 31.52 2.38 32.01-0.01 32.01Z" class="MsftOfcResponsive_Fill_7823dc" fill="#7823DC"/><path d="M18.06 18.15 14.83 18.15 14.83 16.15 18.06 16.15C19.71 16.15 21.14 15.81 22.43 15.12 24.38 14.07 26.4 13.85 27.75 13.85L30.98 13.85 30.98 15.85 27.75 15.85C26.17 15.85 24.62 16.22 23.38 16.88 21.79 17.74 20.05 18.15 18.06 18.15Z" class="MsftOfcResponsive_Fill_7823dc" fill="#7823DC"/><rect x="3.99" y="7.17" width="2.01" height="9.99" class="MsftOfcResponsive_Fill_7823dc" fill="#7823DC" transform="matrix(6.12323e-17 1 -1 6.12323e-17 17.15 7.17)"/><rect x="3.99" y="7.17" width="2.01" height="9.99" class="MsftOfcResponsive_Fill_7823dc" fill="#7823DC" transform="matrix(-1 1.22465e-16 -1.22465e-16 -1 9.99 24.32)"/></svg>