<svg viewBox="0 0 32 32" xmlns="http://www.w3.org/2000/svg" xmlns:xlink="http://www.w3.org/1999/xlink" id="Layer_1" xml:space="preserve" overflow="hidden"><g><path d="M17.2 25.6C10.9 22.3 8.4 14.2 11.6 7.6 13.4 3.8 16.7 1.4 20.3 0.6 19.7 0.9 19.3 1.4 19.2 2.1 18.7 2.5 18.2 3 18 3.7L16.5 3.7 16.5 5 15.4 5 15.4 21.7 16.5 21.7 16.5 22.8 18 22.8C18.3 23.4 18.7 23.9 19.3 24.2 19.7 24.4 19.9 24.7 20.1 25.1L21 26.7 21.9 25.1C22.1 24.8 22.4 24.5 22.7 24.2 23.2 23.9 23.7 23.4 24 22.8L25.6 22.8 25.6 21.7 26.7 21.7 26.7 5 25.6 5 25.6 3.7 24.1 3.7C23.9 3.1 23.5 2.6 23 2.2 22.9 1.2 22.1 0.5 21.2 0.5L21.1 0.5C21.1 0.5 21.1 0.5 21.1 0.5 19.7 0.2 18.5 0 17.3 0 11.7 0 6.4 3.2 3.7 8.8-0.1 16.7 2.9 26.3 10.4 30.3 12.6 31.5 14.9 32 17.2 32 22.2 32 27 29.4 29.9 24.9 27.8 26.3 25.4 27.1 22.9 27.1 21 27.1 19 26.6 17.2 25.6L17.2 25.6 17.2 25.6 17.2 25.6ZM17.3 10.3 18.2 10.3 18.2 16.1 17.3 16.1 17.3 10.3 17.3 10.3 17.3 10.3 17.3 10.3ZM21.6 22.5C21.4 22.6 21.1 22.8 20.9 23 20.7 22.8 20.5 22.6 20.2 22.5 19.9 22.3 19.7 22 19.6 21.7L22.1 21.7C22.1 22 21.9 22.3 21.6 22.5L21.6 22.5 21.6 22.5 21.6 22.5ZM24.6 19.7 17.3 19.7 17.3 18.2 24.6 18.2 24.6 19.7 24.6 19.7 24.6 19.7 24.6 19.7ZM20.2 16.1 20.2 10.3 21.7 10.3 21.7 16.1 20.2 16.1 20.2 16.1 20.2 16.1ZM24.6 16.1 23.7 16.1 23.7 10.3 24.6 10.3 24.6 16.1 24.6 16.1 24.6 16.1 24.6 16.1ZM24.6 7 24.6 8.3 17.3 8.3 17.3 7 24.6 7 24.6 7 24.6 7ZM21 3.4 21.4 3.6C21.8 3.8 22.1 4.3 22.3 4.9L22.3 5 19.7 5 19.7 4.9C19.8 4.3 20.2 3.8 20.6 3.6L21 3.4 21 3.4 21 3.4 21 3.4ZM17.3 30C15.2 30 13.2 29.5 11.4 28.5 4.8 25 2.2 16.6 5.5 9.7 7 6.6 9.4 4.2 12.4 3 11.4 4.1 10.5 5.4 9.8 6.8 6.2 14.3 9.1 23.6 16.3 27.4 18.1 28.4 20.1 28.9 22.1 29 20.6 29.7 19 30 17.3 30L17.3 30 17.3 30 17.3 30Z" fill="#7823DC" fill-rule="evenodd" clip-rule="evenodd"/></g></svg>