<svg viewBox="0 0 32 32" xmlns="http://www.w3.org/2000/svg" xmlns:xlink="http://www.w3.org/1999/xlink" overflow="hidden"><defs></defs><g id="Layer_3"><path d="M9.87061 28.5983C8.27262 28.7351 6.79115 27.7525 6.29541 26.2272L4.95508 21.6784 12.7681 19.5446 14.1103 24.28C14.3443 25.1907 14.1523 26.1584 13.5883 26.9109 12.9804 27.6942 12.1146 28.2367 11.1445 28.4421 10.7276 28.5447 10.2999 28.5971 9.87061 28.5983ZM7.4502 23.071 8.22656 25.7077C8.38428 26.3513 9.42139 26.8073 10.6709 26.4987 11.182 26.399 11.6431 26.1262 11.9766 25.7263 12.1825 25.4609 12.2562 25.1161 12.1768 24.7897L11.3843 21.9958Z" fill="#7823DC"/><path d="M3.81006 20.0769 3.47168 19.2477C3.35059 18.9519 0.50391 11.9616 0.10449 9.49287-0.215672 7.17285 0.383598 4.81957 1.77441 2.93525 3.04445 1.27057 4.9559 0.216603 7.0415 0.0310003 7.97376-0.0829958 8.91083 0.201743 9.62207 0.81513 11.3926 2.31513 11.9346 5.654 12.0772 8.19013 12.2134 10.613 12.0942 16.7272 12.0894 16.986L12.0747 17.7263ZM7.44482 2.00849C7.38234 2.00875 7.31992 2.01233 7.25782 2.01923 5.71652 2.14204 4.30065 2.91604 3.36523 4.14716 2.3072 5.59503 1.84668 7.39442 2.0791 9.17255 2.85469 12.0653 3.82701 14.9016 4.98926 17.6618L10.1025 16.2077C10.1304 14.4763 10.1851 10.1647 10.0801 8.30341 9.91208 5.31416 9.27393 3.1413 8.32908 2.34052 8.0859 2.12369 7.77062 2.00531 7.44482 2.00849Z" fill="#7823DC"/><path d="M21.6577 31.9284C21.1513 31.9271 20.6478 31.8527 20.1626 31.7077L20.1626 31.7077C19.204 31.4546 18.3661 30.8698 17.7978 30.0573 17.2766 29.2896 17.1287 28.328 17.395 27.4392L18.98 22.7399 26.6787 25.2575 25.1011 29.778C24.7877 30.6934 24.0548 31.4032 23.1299 31.6872 22.6562 31.8499 22.1585 31.9315 21.6577 31.9284ZM20.7319 29.7897C21.296 29.9712 21.9022 29.9746 22.4683 29.7995 22.796 29.711 23.0651 29.4771 23.1983 29.1647L24.1187 26.5251 20.2417 25.2575 19.3008 28.0436C19.2179 28.3566 19.2785 28.6901 19.4663 28.9538 19.7794 29.3698 20.2264 29.665 20.7319 29.7897Z" fill="#7823DC"/><path d="M27.5083 23.6755 19.3696 20.9206 19.3916 20.1813C19.3994 19.9226 19.5816 13.8083 19.8369 11.3962 20.105 8.86982 20.8106 5.56219 22.6529 4.15107 23.3932 3.5725 24.3439 3.33442 25.2696 3.4958 27.343 3.78384 29.1998 4.93031 30.3862 6.655 31.6825 8.60552 32.1651 10.9854 31.731 13.2868 31.2105 15.7341 28.0225 22.5739 27.8873 22.864ZM21.4141 19.5017 26.4497 21.2058C27.7462 18.5062 28.8571 15.7214 29.7749 12.8708 30.0944 11.106 29.7229 9.28604 28.7373 7.78776 27.8642 6.51207 26.4886 5.66913 24.9556 5.47038 24.5716 5.3981 24.1752 5.49609 23.8691 5.73893 22.8862 6.49186 22.1416 8.63053 21.8261 11.6071 21.6294 13.4616 21.4717 17.7702 21.4141 19.5017Z" fill="#7823DC"/></g></svg>