<svg viewBox="0 0 32 32" xmlns="http://www.w3.org/2000/svg" xmlns:xlink="http://www.w3.org/1999/xlink" xml:space="preserve" overflow="hidden"><style>
.MsftOfcResponsive_Fill_7823dc {
 fill:#7823DC; 
}
</style>
<g id="Layer_3"></g><g id="Layer_1"></g><g id="Layer_2"></g><g id="Layer_4"></g><g id="Layer_5"><path d="M16.25 18.74C12.31 18.74 9.1 15.53 9.1 11.59 9.1 7.65 12.31 4.44 16.25 4.44 20.19 4.44 23.4 7.65 23.4 11.59 23.4 15.54 20.19 18.74 16.25 18.74ZM16.25 6.45C13.41 6.45 11.1 8.76 11.1 11.6 11.1 14.44 13.41 16.75 16.25 16.75 19.09 16.75 21.4 14.44 21.4 11.6 21.4 8.75 19.09 6.45 16.25 6.45Z" class="MsftOfcResponsive_Fill_7823dc" fill="#7823DC"/><path d="M16.25 23.17C8.86 23.17 2.84 17.98 2.84 11.59L4.84 11.59C4.84 16.87 9.96 21.17 16.25 21.17 22.54 21.17 27.66 16.87 27.66 11.59L29.66 11.59C29.66 17.98 23.64 23.17 16.25 23.17Z" class="MsftOfcResponsive_Fill_7823dc" fill="#7823DC"/><path d="M16.25 27.55C8.6 27.55 2.84 24.69 2.84 20.89L4.84 20.89C4.84 23.1 9.53 25.55 16.25 25.55 22.97 25.55 27.66 23.09 27.66 20.89L29.66 20.89C29.66 24.69 23.89 27.55 16.25 27.55Z" class="MsftOfcResponsive_Fill_7823dc" fill="#7823DC"/></g></svg>