<svg viewBox="0 0 32 32" xmlns="http://www.w3.org/2000/svg" xmlns:xlink="http://www.w3.org/1999/xlink" id="Layer_1" overflow="hidden"><g id="Graphic" display="none"><rect x="-52.7" y="-13.5" width="2" height="20.9" fill="#7823DC" transform="matrix(0.6899 -0.7239 0.7239 0.6899 -13.8179 -38.4046)"/><path d="" stroke="#7823DC" stroke-width="2" stroke-miterlimit="10" fill="#7823DC"/><path d="" stroke="#7823DC" stroke-width="2" stroke-miterlimit="10" fill="#7823DC"/><path d="" stroke="#7823DC" stroke-width="2" stroke-miterlimit="10" fill="#7823DC"/><circle cx="-64.9" cy="-16" r="8.1" stroke="#7823DC" stroke-width="2" stroke-miterlimit="10" fill="#7823DC"/><line x1="-84" y1="-32" x2="-52" y2="-32" stroke="#7823DC" stroke-width="2" stroke-miterlimit="10" fill="none"/><line x1="-84" y1="-28.1" x2="-52" y2="-28.1" stroke="#7823DC" stroke-width="2" stroke-miterlimit="10" fill="none"/><line x1="-84" y1="-24.1" x2="-72" y2="-24.1" stroke="#7823DC" stroke-width="2" stroke-miterlimit="10" fill="none"/><line x1="-84" y1="-20.1" x2="-75" y2="-20.1" stroke="#7823DC" stroke-width="2" stroke-miterlimit="10" fill="none"/><line x1="-84" y1="-16.1" x2="-76" y2="-16.1" stroke="#7823DC" stroke-width="2" stroke-miterlimit="10" fill="none"/><line x1="-84" y1="-12.1" x2="-75" y2="-12.1" stroke="#7823DC" stroke-width="2" stroke-miterlimit="10" fill="none"/><line x1="-69" y1="-12.1" x2="-61" y2="-12.1" stroke="#7823DC" stroke-width="2" stroke-miterlimit="10" fill="none"/><line x1="-84" y1="-8.1" x2="-72" y2="-8.1" stroke="#7823DC" stroke-width="2" stroke-miterlimit="10" fill="none"/><line x1="-84" y1="-4.1" x2="-56.9" y2="-4.1" stroke="#7823DC" stroke-width="2" stroke-miterlimit="10" fill="none"/><line x1="-58" y1="-24.1" x2="-52" y2="-24.1" stroke="#7823DC" stroke-width="2" stroke-miterlimit="10" fill="none"/><line x1="-69" y1="-20.1" x2="-61" y2="-20.1" stroke="#7823DC" stroke-width="2" stroke-miterlimit="10" fill="none"/><line x1="-70" y1="-16.1" x2="-60" y2="-16.1" stroke="#7823DC" stroke-width="2" stroke-miterlimit="10" fill="none"/><line x1="-55" y1="-20.1" x2="-52" y2="-20.1" stroke="#7823DC" stroke-width="2" stroke-miterlimit="10" fill="none"/><line x1="-55" y1="-16.1" x2="-52" y2="-16.1" stroke="#7823DC" stroke-width="2" stroke-miterlimit="10" fill="none"/><line x1="-55" y1="-12.1" x2="-52" y2="-12.1" stroke="#7823DC" stroke-width="2" stroke-miterlimit="10" fill="none"/><line x1="-54" y1="-9.1" x2="-52" y2="-9.1" stroke="#7823DC" stroke-width="2" stroke-miterlimit="10" fill="none"/><g><g><defs><rect x="39" y="0" width="33" height="33" id="SVGID_1_" fill="#7823DC"/></defs><clipPath id="SVGID_2_"><use width="100%" height="100%" xlink:href="#SVGID_1_" overflow="visible"></use></clipPath></g><g><defs><rect x="39" y="0" width="33" height="33" id="SVGID_3_" fill="#7823DC"/></defs><defs><rect x="39" y="0" width="33" height="33" id="SVGID_4_" fill="#7823DC"/></defs><clipPath id="SVGID_5_"><use width="100%" height="100%" xlink:href="#SVGID_3_" overflow="visible"></use></clipPath><clipPath id="SVGID_6_" clip-path="url(#SVGID_5_)"><use width="100%" height="100%" xlink:href="#SVGID_4_" overflow="visible"></use></clipPath></g></g><image width="225" height="225" xlink:href="../../images.png" overflow="visible" transform="scale(0.1422 0.1422)"></image></g><path d="M15.7 2C19.7 2 22.4 2.8 23.5 3.4 22.4 4 19.7 4.8 15.7 4.8 11.7 4.8 9 4.1 8 3.4 9 2.8 11.7 2 15.7 2M15.7 0C10.2 0 5.6 1.5 5.6 3.4 5.6 5.3 10.1 6.8 15.7 6.8 21.3 6.8 25.8 5.3 25.8 3.4 25.8 1.5 21.3 0 15.7 0L15.7 0Z" fill="#7823DC"/><path d="M23.6 27.6 23.5 28.9 24.2 28.9C22.4 29.6 19.3 30.1 15.8 30.1 12.3 30.1 9.2 29.6 7.4 28.9L8 28.6 8.1 27.6C7.3 27.8 7.2 28.1 6.7 28.3 6.6 28.3 6.5 28.4 6.5 28.4 6 28.7 5.8 29 5.8 29.4 5.8 30.8 10.3 32 15.9 32 21.5 32 26 30.8 26 29.4 26 29.1 25.7 28.7 25.3 28.4 25.2 28.4 25.2 28.3 25.1 28.3 24.4 28 24.3 27.8 23.6 27.6L23.6 27.6Z" fill="#7823DC"/><g><path d="M24.3 10.5C23.4 11.1 21.9 11.5 19.9 11.8 19.7 11.8 19.6 11.8 19.4 11.9 19 12 18.6 12 18.2 12 17.4 12.1 16.5 12.1 15.7 12.1 14.9 12.1 14 12.1 13.2 12 12.8 12 12.3 11.9 12 11.9 11.8 11.9 11.7 11.9 11.5 11.8 9.5 11.5 8 11.1 7.1 10.5 6.6 10.8 6.3 11.2 6.3 11.5 6.3 12.9 10.5 14.1 15.7 14.1 20.9 14.1 25.1 12.9 25.1 11.5 25.1 11.2 24.8 10.8 24.3 10.5Z" fill="#7823DC"/><path d="M24.3 20.3C23.4 20.9 21.9 21.3 19.9 21.6 19.7 21.6 19.6 21.6 19.4 21.7 19 21.8 18.6 21.8 18.2 21.8 17.4 21.9 16.5 21.9 15.7 21.9 14.9 21.9 14 21.9 13.2 21.8 12.8 21.8 12.3 21.7 12 21.7 11.8 21.7 11.7 21.7 11.5 21.6 9.5 21.3 8 20.9 7.1 20.3 6.6 20.6 6.3 21 6.3 21.3 6.3 22.7 10.5 23.9 15.7 23.9 20.9 23.9 25.1 22.7 25.1 21.3 25.1 21 24.8 20.7 24.3 20.3Z" fill="#7823DC"/><rect x="6.2" y="3.8" width="2" height="26.3" fill="#7823DC"/><rect x="23.2" y="3.8" width="2" height="26.3" fill="#7823DC"/></g><path d="M12.6 2.6C12 2.6 11.6 2.9 11.6 3.2 11.6 3.5 12.1 3.8 12.6 3.8 13.1 3.8 13.6 3.5 13.6 3.2 13.6 2.9 13.1 2.6 12.6 2.6L12.6 2.6Z" fill="#7823DC"/></svg>