<svg width="36.5" height="36.5" viewBox="0 0 36.5 36.5" xmlns="http://www.w3.org/2000/svg" xmlns:xlink="http://www.w3.org/1999/xlink" overflow="hidden"><defs></defs><g><g><defs><path d="M0 36.5 36.5 36.5 36.5 0 0 0 0 36.5Z" id="SVGID_1_" fill="#7823DC"/></defs><clipPath id="SVGID_2_"><use width="100%" height="100%" xlink:href="#SVGID_1_"></use></clipPath><g clip-path="url(#SVGID_2_)"><defs><path d="M0 36.5 36.5 36.5 36.5 0 0 0 0 36.5Z" id="SVGID_3_" fill="#7823DC"/></defs><clipPath id="SVGID_4_"><use width="100%" height="100%" xlink:href="#SVGID_3_"></use></clipPath><path d="M32.6 31.4C29.3 31.4 26.9 28.9 25.6 26.7 21 30.5 13 28.6 12.6 28.5 12 28.3 11.6 27.7 11.8 27.1 12 26.5 12.6 26.1 13.2 26.3 13.3 26.3 21.8 28.3 25.1 24.1 25.4 23.8 25.8 23.6 26.2 23.7 26.6 23.8 26.9 24 27.1 24.4 27.2 24.7 29.7 30.7 34.7 28.8 35.3 28.6 35.9 28.9 36.2 29.5 36.4 30.1 36.1 30.8 35.5 31 34.4 31.3 33.5 31.4 32.6 31.4Z" fill="#7823DC" clip-path="url(#SVGID_4_)"/><path d="M26.6 31.3 26.1 30.2 25.1 30.7C20.3 32.8 11.3 31.6 6.6 29.9 4.1 29 3 28.2 2.8 27.7 1.2 23.8 3.2 17.1 4.5 14.6 5.5 12.7 6.3 10.7 6.8 8.6 6.9 8.1 7 7.6 7.2 7.1 8.4 4.7 12.9 2.1 17.5 2.1 19.4 2.1 20.8 2.6 21.5 3.5 22.2 4.4 22.5 6.2 21.9 8.6 21.9 8.7 21.8 8.9 21.7 9 21.5 9.1 21.4 9.1 21.2 9 21.2 9 21.1 9 21 8.9L20.5 8.4 19.8 8.7C17.9 9.4 16.3 9.6 15.5 9.2 14.8 8.8 14 8.6 13.2 8.6L12.6 8.6 12.3 9.1C11.5 10.5 11.3 12.2 11.6 13.8 11.8 15.4 12.2 17 12.6 18.6L13 20.3 14.4 19.3C15.7 18.4 17.3 17.9 18.9 17.9 20.6 17.8 22.3 18.5 23.6 19.7L24.5 20.4 25.3 19.6C26.7 18.3 30.7 14.4 36.5 16.7L36.5 14.3C32.3 12.9 28.2 13.9 24.4 17.4 22.8 16.3 20.9 15.7 18.9 15.7 17.4 15.7 15.9 16.1 14.5 16.7 14.2 15.4 14 14.6 13.9 13.6 13.8 12.8 13.8 11.9 14 11.1L14.6 11.3C16.2 12.1 18.4 11.6 20.1 11 20.3 11.1 20.5 11.2 20.7 11.2 21.5 11.4 22.3 11.4 23 11 23.6 10.6 24.1 10 24.3 9.3 25 6.2 24.8 4 23.5 2.3 22.2 0.6 20.2 0 17.6 0 11.9 0 6.8 3.2 5.2 6.3 5 6.9 4.7 7.6 4.6 8.2 4.1 10.1 3.5 11.9 2.5 13.7 1.4 16-1.3 23.6 0.8 28.7 1.3 30 3 31.1 5.9 32.1 10.5 33.7 19.4 35.1 25.1 33.2 26.2 34.9 28.4 36.4 32.5 36.4 33.8 36.4 35.2 36.3 36.5 36L36.5 33.7C32.7 34.5 28 34.6 26.6 31.3L26.6 31.3Z" fill="#7823DC" clip-path="url(#SVGID_4_)"/></g></g></g></svg>