<svg viewBox="0 0 29.22 29.22" xmlns="http://www.w3.org/2000/svg" xmlns:xlink="http://www.w3.org/1999/xlink" xml:space="preserve" overflow="hidden"><style>
.MsftOfcResponsive_Fill_7823dc {
 fill:#7823DC; 
}
</style>
<g id="Layer_3"></g><g id="Layer_1"></g><g id="Layer_2"></g><g id="Layer_4"></g><g id="Layer_5"><path d="M26.84 16.51 18.99 18.99 18.99 15.83 16.96 16.06 13.97 16.4 9.26 14.71 8.5 14.44 7.79 14.82 4.83 16.4 0 16.4 0 25.57 4.86 25.57 13.84 29.22 28.25 21.7 29.21 21.18 29.21 15.76 26.84 16.51 26.84 16.51ZM27.39 20.08 13.76 27.19 5.24 23.74 1.83 23.74 1.83 18.22 5.29 18.22 8.64 16.42 13.75 18.25 17.16 17.87 17.16 19.7 16.17 20.02 12.73 20.72 12.73 22.42 16.34 21.75 16.34 21.74 27.38 18.26 27.38 20.08 27.39 20.08Z" class="st1 MsftOfcResponsive_Fill_7823dc" fill="#7823DC" fill-rule="evenodd" clip-rule="evenodd"/><path d="M26.95 14.17 16.3 14.17 16.3-0.01 26.95-0.01 26.95 14.17ZM18.3 12.17 24.95 12.17 24.95 1.99 18.3 1.99 18.3 12.17Z" class="st0 MsftOfcResponsive_Fill_7823dc" fill="#7823DC"/><rect x="20.37" y="8.14" width="2.5" height="5.03" class="st1 MsftOfcResponsive_Fill_7823dc" fill="#7823DC" fill-rule="evenodd" clip-rule="evenodd"/><rect x="19.06" y="4.15" width="2.01" height="2" class="st1 MsftOfcResponsive_Fill_7823dc" fill="#7823DC" fill-rule="evenodd" clip-rule="evenodd"/><rect x="22.18" y="4.15" width="2.01" height="2" class="st1 MsftOfcResponsive_Fill_7823dc" fill="#7823DC" fill-rule="evenodd" clip-rule="evenodd"/></g></svg>