<svg viewBox="0 0 32 32" xmlns="http://www.w3.org/2000/svg" xmlns:xlink="http://www.w3.org/1999/xlink" id="Layer_1" overflow="hidden"><path d="M18.8 11C18.4 12.2 17.3 13 16 13L29.8 13 29.5 16 29.3 18 28.2 30 3.8 30 2.7 18.2 2.5 16.2 2.2 13 16 13C14.7 13 13.6 12.2 13.2 11L0 11 2 32 30 32 32 11 18.8 11Z" fill="#7823DC"/><circle cx="8" cy="24" r="1" fill="#7823DC"/><circle cx="14" cy="22" r="1" fill="#7823DC"/><circle cx="14" cy="27" r="1" fill="#7823DC"/><circle cx="18" cy="23" r="1" fill="#7823DC"/><circle cx="19" cy="27" r="1" fill="#7823DC"/><circle cx="24.1" cy="27.6" r="1" fill="#7823DC"/><circle cx="25.4" cy="24.1" r="1" fill="#7823DC"/><circle cx="22.6" cy="21.9" r="1" fill="#7823DC"/><circle cx="6.4" cy="28.1" r="1" fill="#7823DC"/><circle cx="5.1" cy="21.6" r="1" fill="#7823DC"/><path d="M16 0C16 0 11 7.2 11 10 11 10.3 11 10.7 11.1 11 11.3 11.7 11.6 12.4 12 13 12.9 14.2 14.4 15 16 15 17.6 15 19.1 14.2 20 13 20.4 12.4 20.8 11.7 20.9 11 21 10.7 21 10.3 21 10 21 7.2 16 0 16 0ZM16 13C14.7 13 13.6 12.2 13.2 11 13.1 10.7 13 10.3 13 10 13 9 14.4 6.3 16 3.7 17.6 6.4 19 9.1 19 10 19 10.3 18.9 10.7 18.8 11 18.4 12.2 17.3 13 16 13Z" fill="#7823DC"/><path d="M6.3 20C6.3 20 6.2 20 6.2 20 5 20 4.2 19.5 3.5 19.1 2.8 18.7 2.1 18.3 0.9 18L1.2 16C2.8 16.4 3.7 16.9 4.4 17.3 5.1 17.7 5.5 18 6.2 18 6.9 18 7.3 17.7 8 17.2 8.7 16.7 9.6 16 10.9 16 10.9 16 10.9 16 10.9 16 12.2 16 13.1 16.6 13.9 17.1 14.6 17.6 15.1 17.9 15.9 17.9 15.9 17.9 15.9 17.9 15.9 17.9 16.7 17.9 17.2 17.5 17.9 17.1 18.7 16.6 19.6 16 21 16 22.4 16 23.3 16.6 24.1 17.1 24.8 17.5 25.3 17.9 26 17.9 26.5 17.9 26.8 17.7 27.4 17.3 28.1 16.9 29.1 16.2 30.9 15.9L31.2 17.9C29.8 18.1 29.1 18.6 28.5 19 27.8 19.4 27.2 19.9 26 19.9 24.7 19.9 23.7 19.3 22.9 18.8 22.2 18.3 21.7 18 20.9 18 20.1 18 19.6 18.4 18.9 18.8 18.1 19.3 17.2 19.9 15.8 19.9 15.8 19.9 15.8 19.9 15.8 19.9 14.4 19.9 13.5 19.3 12.7 18.7 12 18.3 11.5 17.9 10.8 17.9 10.2 17.9 9.8 18.2 9.1 18.7 8.5 19.3 7.6 20 6.3 20Z" fill="#7823DC"/></svg>