<svg viewBox="0 0 32 32" xmlns="http://www.w3.org/2000/svg" xmlns:xlink="http://www.w3.org/1999/xlink" overflow="hidden"><style>
.MsftOfcResponsive_Fill_7823dc {
 fill:#7823DC; 
}
</style>
<defs></defs><g id="Layer_3"><path d="M5.96361 20.6929 6.71161 23.2643 4.14015 24.0123 3.39215 21.4409 5.9636 20.6929M7.32537 18.2138 0.91312 20.0791 2.7784 26.4913 9.19066 24.626 7.32538 18.2138Z" class="MsftOfcResponsive_Fill_7823dc" fill="#7823DC"/><path d="M5.182 25.453 7.049 24.909 10.086 30.275 8.219 30.818 5.182 25.453Z" class="MsftOfcResponsive_Fill_7823dc" fill="#7823DC"/><path d="M7.53 23.728 3.688 24.845 7.738 32 11.579 30.883 7.53 23.728 7.53 23.728Z" class="MsftOfcResponsive_Fill_7823dc" fill="#7823DC"/><rect x="0.50542" y="21.2983" width="2.67752" height="4.00053" class="MsftOfcResponsive_Fill_7823dc" fill="#7823DC" transform="matrix(0.9602 -0.279314 0.279314 0.9602 -6.43423 1.4424)"/><path d="M12.9424 15.7783 15.2401 23.6772 10.7645 22.876 9.5929 18.8484 12.9424 15.7783M13.9638 12.1292 7.32538 18.2138 9.19066 24.626 18.0609 26.2139 13.9638 12.1292Z" class="MsftOfcResponsive_Fill_7823dc" fill="#7823DC"/><path d="M27.886 0.028 0 0.028 0 16 8 16 10 14 3.163 14 2 14 2 2.028 29.88 2.028 29.88 14.001 28.248 14.001 26.33 14.001 19.817 17.452 19.817 16 19.817 14 16 14 16 16 17.817 16 17.817 20.703 26.925 16 31.88 16 31.88 4.028 27.886 0.028Z" class="MsftOfcResponsive_Fill_7823dc" fill="#7823DC"/><rect x="4" y="4" width="24" height="2" class="MsftOfcResponsive_Fill_7823dc" fill="#7823DC"/><rect x="4" y="8" width="18" height="2" class="MsftOfcResponsive_Fill_7823dc" fill="#7823DC"/></g></svg>