<svg viewBox="0 0 32 32" xmlns="http://www.w3.org/2000/svg" xmlns:xlink="http://www.w3.org/1999/xlink" id="Layer_1" xml:space="preserve" overflow="hidden"><style>
.MsftOfcResponsive_Fill_7823dc {
 fill:#7823DC; 
}
</style>
<g><g><defs><path d="M-0.4 31.5 31.6 31.5 32 0 0 0-0.4 31.5Z" id="SVGID_1_" class="MsftOfcResponsive_Fill_7823dc" fill="#7823DC"/></defs><clipPath id="SVGID_00000133531592557994995370000016998701638549958321_"><use width="100%" height="100%" xlink:href="#SVGID_1_" overflow="visible"></use></clipPath><g clip-path="url(#SVGID_00000133531592557994995370000016998701638549958321_)"><defs><path d="M-0.4 31.5 31.6 31.5 32 0 0 0-0.4 31.5Z" id="SVGID_00000023995243477869398900000002696179560897701021_" class="MsftOfcResponsive_Fill_7823dc" fill="#7823DC"/></defs><clipPath id="SVGID_00000019664154372065459810000012374673431626682510_"><use width="100%" height="100%" xlink:href="#SVGID_00000023995243477869398900000002696179560897701021_" overflow="visible"></use></clipPath><path d="M7.7 28.4C3.8 28.4 0.6 25.3 0.6 21.4 0.6 17.5 3.7 14.3 7.6 14.3 7.6 14.3 7.6 14.3 7.6 14.3L7.6 16.2C4.8 16.2 2.5 18.5 2.5 21.4 2.5 24.2 4.8 26.5 7.7 26.5 8.7 26.5 9.6 26.2 10.4 25.7 10.7 25.5 10.9 25.4 11.1 25.1L12.4 26.5C11.2 27.7 9.5 28.4 7.7 28.4L7.7 28.4Z" class="MsftOfcResponsive_Fill_7823dc" fill="#7823DC" clip-path="url(#SVGID_00000019664154372065459810000012374673431626682510_)"/><path d="M12.7 26.7C11 26.7 9.6 25.3 9.6 23.6 9.6 23 9.8 22.4 10.1 21.9L11.7 22.9C11.5 23.2 11.5 23.5 11.6 23.9 11.8 24.5 12.5 24.9 13.1 24.7L13.6 26.6C13.3 26.7 13 26.7 12.7 26.7L12.7 26.7Z" class="MsftOfcResponsive_Fill_7823dc" fill="#7823DC" clip-path="url(#SVGID_00000019664154372065459810000012374673431626682510_)"/><path d="M24.4 28.4C22.6 28.4 20.9 27.7 19.6 26.6L20.9 25.2C21.1 25.4 21.4 25.6 21.6 25.8 24 27.3 27.2 26.6 28.7 24.2 29.2 23.4 29.5 22.5 29.5 21.5 29.5 18.7 27.2 16.4 24.3 16.4L24.3 14.5C28.2 14.5 31.4 17.6 31.4 21.5 31.5 25.2 28.4 28.3 24.4 28.4 24.4 28.4 24.4 28.4 24.4 28.4L24.4 28.4Z" class="MsftOfcResponsive_Fill_7823dc" fill="#7823DC" clip-path="url(#SVGID_00000019664154372065459810000012374673431626682510_)"/><path d="M19.3 26.7C19 26.7 18.7 26.7 18.4 26.6L18.9 24.7C19.5 24.9 20.2 24.5 20.4 23.9 20.5 23.6 20.4 23.2 20.3 22.9L21.9 21.9C22.8 23.3 22.4 25.3 21 26.2 20.5 26.6 19.9 26.7 19.3 26.7L19.3 26.7Z" class="MsftOfcResponsive_Fill_7823dc" fill="#7823DC" clip-path="url(#SVGID_00000019664154372065459810000012374673431626682510_)"/><path d="M20 29.4C18.9 29.4 17.8 29 17 28.3L17 24.5 15.1 24.5 15.1 28.3C13.1 30 10.1 29.7 8.4 27.7 8.2 27.4 8 27.1 7.8 26.8L6.1 27.7C7.7 31 11.7 32.3 15 30.6 15.4 30.4 15.7 30.2 16 30 18.9 32.2 23.1 31.6 25.3 28.7 25.5 28.4 25.8 28 25.9 27.7L24.2 26.8C23.4 28.4 21.8 29.4 20 29.4L20 29.4Z" class="MsftOfcResponsive_Fill_7823dc" fill="#7823DC" clip-path="url(#SVGID_00000019664154372065459810000012374673431626682510_)"/><path d="M29.8 10.2C29.9 9.9 29.9 9.6 29.9 9.3 29.9 6.4 27.8 4 24.9 3.7 23.9 1.8 22 0.6 19.8 0.6 18.4 0.6 17 1.1 16 2.1 13.7-0.2 10.1 0 8 2.3 7.6 2.7 7.4 3.1 7.1 3.6 4.3 4 2.1 6.4 2.1 9.2 2.1 9.5 2.1 9.8 2.2 10.1 1.1 11.2 0.5 12.6 0.5 14.1 0.5 15.4 1 16.7 1.8 17.7L3.3 16.5C2 14.9 2.2 12.6 3.8 11.3 3.8 11.3 3.9 11.3 3.9 11.2L4.4 10.8 4.2 10.2C4.1 9.9 4 9.5 4 9.2 4 7.1 5.6 5.5 7.7 5.4L8.3 5.4 8.5 4.8C9.2 2.8 11.4 1.9 13.4 2.6 14 2.8 14.5 3.2 14.9 3.6L14.9 7 17 7 17 3.7C18.4 2.1 20.8 2 22.3 3.3 22.8 3.7 23.1 4.2 23.3 4.8L23.5 5.4 24.1 5.4C26.1 5.4 27.8 7 27.8 9.1 27.8 9.5 27.7 9.8 27.6 10.2L27.4 10.8 27.9 11.2C29.5 12.5 29.8 14.8 28.5 16.4 28.5 16.4 28.5 16.5 28.4 16.5L29.9 17.7C30.7 16.7 31.2 15.4 31.2 14.1 31.5 12.7 30.9 11.2 29.8 10.2L29.8 10.2Z" class="MsftOfcResponsive_Fill_7823dc" fill="#7823DC" clip-path="url(#SVGID_00000019664154372065459810000012374673431626682510_)"/></g></g></g><g id="Layer_2_00000013912985461116041430000015904895619479836035_" display="none"><g><path d="M15 3C14.9 3 14.7 3 14.6 3 14.4 3 14.2 3 14.1 3 13.4 3 12.7 3.1 12.1 3.2L12.7 3.8 13.8 5C14 5 14.3 5 14.6 5 15.6 5 16.7 5.1 17.7 5.4 21.2 6.3 24.1 8.6 25.7 11.7L28.8 14.8 28.8 14.4C27.4 8 21.8 3.2 15 3ZM25.9 22.9 25.9 22.9C24.3 26.2 21.3 28.7 17.6 29.6 16.6 29.8 15.6 30 14.6 30 13.5 30 12.5 29.9 11.5 29.6 6.4 28.3 2.6 23.9 2.1 18.5 2.1 18.2 2.1 17.8 2.1 17.5 2.1 17.2 2.1 16.8 2.1 16.5 2.4 12.2 5 8.5 8.6 6.5L7.1 5.1C2.9 7.6 0 12.3 0 17.5 0 25.5 6.5 32 14.5 32 20.6 32 25.8 28.2 28 22.9L25.9 22.9Z" class="MsftOfcResponsive_Fill_7823dc" fill="#7823DC"/><path d="M21.4 18.5 0.3 18.5 0.3 16.5 23.7 16.5 25.3 18.5" class="MsftOfcResponsive_Fill_7823dc" fill="#7823DC"/></g><path d="M18.1 16.5C18.1 16.8 18.1 17.1 18.1 17.5 18.1 17.8 18.1 18.2 18.1 18.5 17.9 26 15.4 29.9 14.6 29.9 13.8 29.9 11.2 26 11 18.5 11 18.2 11 17.8 11 17.5 11 17.2 11 16.8 11 16.5 11.1 13.8 11.4 11.6 11.9 9.9L10.2 8.2C9.5 10.5 9 13.3 9 16.5 9 16.8 9 17.1 9 17.5 9 17.8 9 18.2 9 18.5 9.1 23.2 10.1 27.2 11.5 29.6 12.4 31.1 13.4 32 14.6 32 15.8 32 16.8 31.1 17.7 29.6 19.1 27.2 20.1 23.1 20.2 18.5 20.2 18.2 20.2 17.8 20.2 17.5 20.2 17.2 20.2 16.8 20.2 16.5M19.6 16.5 18.5 16.5M17.6 5.4C16.9 4.1 16 4.2 15 4 14.8 4 14.7 4 14.5 4 14.3 4 14.2 4 14 4 13.5 4.1 13 3.4 12.6 3.8L13.8 5 14 5.2C14.2 5.1 14.4 5 14.5 5 14.9 5 15.7 5.9 16.4 7.6L19 10.2M18.1 16.5C18.1 16.8 18.1 17.1 18.1 17.5 18.1 17.8 18.1 18.2 18.1 18.5L20.2 18.5C20.2 18.2 20.2 17.8 20.2 17.5 20.2 17.2 20.2 16.8 20.2 16.5L19.7 16.5 19 17.1 18.4 16.5" class="MsftOfcResponsive_Fill_7823dc" fill="#7823DC"/><path d="M65.9 19.4 65.9 13.9 64.1 12.1 64.1 16.3 55.5 7.9 52.9 10.4 42.6 0 40.1 0 52.9 12.9 55.5 10.4 62.8 17.6 58.5 17.6 60.3 19.4Z" class="MsftOfcResponsive_Fill_7823dc" fill="#7823DC"/><g><path d="M32.1 21.4 32.1 15.9 30.2 14.1 30.2 18.3 21.6 9.9 19 12.4 8.7 2 6.2 2 19 14.9 21.6 12.4 29 19.6 24.7 19.6 26.5 21.4Z" class="MsftOfcResponsive_Fill_7823dc" fill="#7823DC"/><line x1="18.5" y1="16.5" x2="19.6" y2="16.5" fill="none"/></g></g><g><path d="M19 20.6 17 20.6 14.5 11.6 14 11.6 11.6 20.6 9.5 20.6 12.5 9.6 16 9.6Z" class="MsftOfcResponsive_Fill_7823dc" fill="#7823DC"/><rect x="11" y="15.6" width="6" height="2" class="MsftOfcResponsive_Fill_7823dc" fill="#7823DC"/><rect x="20" y="9.6" width="2" height="11" class="MsftOfcResponsive_Fill_7823dc" fill="#7823DC"/></g><circle cx="25.1" cy="15" r="1.5" class="MsftOfcResponsive_Fill_7823dc" fill="#7823DC"/><circle cx="8" cy="15" r="1.5" class="MsftOfcResponsive_Fill_7823dc" fill="#7823DC"/><circle cx="16" cy="6.6" r="1.5" class="MsftOfcResponsive_Fill_7823dc" fill="#7823DC"/><circle cx="16" cy="25.4" r="1.5" class="MsftOfcResponsive_Fill_7823dc" fill="#7823DC"/><circle cx="21.5" cy="23.3" r="1.5" class="MsftOfcResponsive_Fill_7823dc" fill="#7823DC"/><circle cx="10.6" cy="23.3" r="1.5" class="MsftOfcResponsive_Fill_7823dc" fill="#7823DC"/></svg>