<svg viewBox="0 0 32 32" xmlns="http://www.w3.org/2000/svg" xmlns:xlink="http://www.w3.org/1999/xlink" id="Layer_2_1_" xml:space="preserve" overflow="hidden"><g><path d="M24.7 0 23.9 2C22.9 2.3 21.9 2.9 21.2 3.7 21 3.9 20.9 4.1 20.7 4.3 19.3 3.4 17.7 2.9 16 2.9L16 2.9C14.3 2.9 12.7 3.4 11.3 4.3 11.1 4.1 11 3.9 10.8 3.7 10 3 9.1 2.4 8.1 2L7.3 0 0 0 0 7.7 1 8.4 3.4 18.9 7.9 28.3 7.9 28.3 8.7 28C10.3 30.5 13.1 32 16 32L16 32C18.3 32 20.6 31.1 22.2 29.4 22.6 29 23 28.5 23.4 28L24.2 28.4 28.7 18.9 31 8.5 32 7.7 32 7.7 32 0 24.7 0 24.7 0 24.7 0ZM16 4.9 16 4.9C17.4 4.9 18.7 5.3 19.8 6.1 19.5 6.9 19.4 7.8 19.4 8.7L19.4 11.6 19.3 11.6C18 11.6 17 10.6 17 9.3L17 9.2 15 9.2 15 9.3C15 10.6 14 11.6 12.7 11.6L12.6 11.6 12.6 8.7C12.6 7.8 12.5 6.9 12.2 6.1 13.3 5.3 14.6 4.9 16 4.9L16 4.9ZM8.7 25.6 5.2 18.3 2.8 7.3 2.8 7.3 2 6.7 2 2 5.9 2 6.6 3.7 7.1 3.8C8 4 8.7 4.5 9.4 5.1 9.5 5.2 9.6 5.3 9.8 5.7 10.3 6.6 10.6 7.6 10.6 8.7L10.6 12.6C10.6 13.1 10.2 13.5 9.7 13.5 9.2 13.5 8.8 13.1 8.8 12.6L8.8 8.9 6.8 8.9 6.8 16.9 9.3 22.4C9.8 23.4 9.6 24.7 8.7 25.6L8.7 25.6ZM20.8 25.2C21 25.8 21.3 26.4 21.8 26.8 21.5 27.2 21.2 27.6 20.9 28 19.6 29.3 17.9 30 16.1 30L16.1 30C13.8 30 11.6 28.8 10.4 26.8 10.8 26.3 11.1 25.8 11.4 25.2 11.8 24 11.8 22.7 11.3 21.5L9 16.4 9 15.3C9.3 15.4 9.6 15.4 9.9 15.4 11.1 15.4 12.2 14.6 12.6 13.5L12.9 13.5C14.2 13.5 15.4 12.9 16.2 12 17 13 18.2 13.5 19.5 13.5L19.8 13.5C20.2 14.7 21.3 15.4 22.5 15.4 22.8 15.4 23.1 15.4 23.4 15.3L23.4 16.4 21.1 21.5C20.4 22.7 20.3 24 20.8 25.2L20.8 25.2ZM30 6.7 29.3 7.3 29.3 7.3 26.8 18.2 23.3 25.5C22.5 24.6 22.2 23.3 22.7 22.2L25.2 16.8 25.2 8.8 23.2 8.8 23.2 12.5C23.2 13 22.8 13.4 22.3 13.4 21.8 13.4 21.4 13 21.4 12.5L21.4 8.7C21.4 7.6 21.7 6.6 22.2 5.7 22.4 5.4 22.5 5.2 22.6 5.1 23.3 4.5 24 4 24.9 3.8L25.4 3.7 26.1 2 30 2 30 6.7 30 6.7 30 6.7Z" fill="#7823DC" fill-rule="evenodd" clip-rule="evenodd"/><path d="M15.7 24.5C14.9 24.4 14.2 23.7 14 22.8L12 23.2C12.3 24.9 13.7 26.2 15.4 26.5 15.6 26.5 15.8 26.5 16 26.5 17.8 26.5 19.5 25.2 20 23.3L18 22.9C17.8 23.9 16.7 24.7 15.7 24.5L15.7 24.5Z" fill="#7823DC" fill-rule="evenodd" clip-rule="evenodd"/><path d="M17.5 17 20.4 17 20.4 19 17.5 19 17.5 17Z" fill="#7823DC" fill-rule="evenodd" clip-rule="evenodd"/><path d="M11.4 17 14.3 17 14.3 19 11.4 19 11.4 17Z" fill="#7823DC" fill-rule="evenodd" clip-rule="evenodd"/></g></svg>