<svg viewBox="0 0 32 32" xmlns="http://www.w3.org/2000/svg" xmlns:xlink="http://www.w3.org/1999/xlink" id="Layer_1" xml:space="preserve" overflow="hidden"><path d="M29.8 12 29.8 11.9C29.7 11.3 29.5 10.8 29.3 10.2L29.3 10.1C29.2 9.8 29.1 9.5 29 9.3 26.6 3.8 21.3 0 15.1 0 6.8 0 0 6.9 0 15.5 0 20.9 2.7 25.7 6.9 28.5L8.1 26.9C4.4 24.5 2 20.2 2 15.5 2 8 7.9 2 15.1 2 20.7 2 25.6 5.7 27.4 10.8 27.4 10.9 27.5 11 27.5 11.2 27.6 11.6 27.7 12 27.8 12.4L27.8 12.5C28.4 14.7 29 17.4 29.4 19.3 29.4 19.5 29.5 19.7 29.5 19.8 29.5 19.6 29.6 19.4 29.6 19.3 29.9 18.1 30.1 16.8 30.1 15.5 30.2 14.3 30.1 13.1 29.8 12Z" fill="#7823DC"/><path d="M32 22.3 26.4 22.3 26.4 32 17 32 17 30 24.3 30 24.3 20.3 29.5 20.3C29.5 20.1 29.4 19.9 29.4 19.7 29 17.8 28.3 14.6 27.7 12.2L27.7 12.1C27.6 11.7 27.5 11.3 27.4 10.9 27.4 10.8 27.3 10.6 27.3 10.5 27.2 10.2 27.1 9.8 27 9.6L28.8 8.9 28.8 9.9C28.9 10.2 29 9.5 29.1 9.8L29.1 9.9C29.3 10.4 29.4 11 29.6 11.6L29.6 11.7C30.6 15.5 31.6 20.9 31.7 21.2L32 22.3Z" fill="#7823DC"/><path d="M22.2 13.6C22 12.8 21.7 12.1 21.4 11.5 21 10.8 20.6 10.2 19.9 9.6L19.8 9.5C19.5 9.2 19.1 8.9 18.7 8.6L18.4 8.4 18.2 8.8C18.1 8.9 18 9.1 18 9.3 17.5 8.7 17.2 8.1 16.6 7.7 15.4 6.5 14.2 5.7 12.9 5.5L12.4 5.4 12.4 5.9C12.4 6.5 12.5 7.1 12.5 7.7 12.5 8.4 12.4 9 12.2 9.5L12.2 9.6C12 10.1 11.7 10.5 11.4 10.9 11.1 10.5 10.8 10.1 10.6 9.6L10.6 9.5C10.5 9.3 10.4 9.1 10.3 8.9L10.1 8.4 9.7 8.7C9.3 8.9 9 9.2 8.6 9.5L8.5 9.6C7.9 10.2 7.4 10.8 7.1 11.5 6.1 13.2 5.9 15.3 6.4 17.4 6.8 19.2 7.7 20.5 9 21.7 10.2 22.7 11.6 23.3 13.3 23.5L13.7 23.5 13.7 21.6 13.3 21.6C12.8 21.6 12.3 21.4 12.1 21.1 11.8 20.7 11.6 20.2 11.6 19.7 12 20.1 12.4 20.4 12.9 20.8L13.2 21 13.4 20.8C14.4 19.7 15.1 18.8 15.3 17.9 15.6 18.3 15.8 18.7 15.9 19.2L16.1 19.7 16.8 19C17 19.5 17 20.2 16.7 20.7 16.4 21.3 15.7 21.7 15.2 21.7L14.9 21.7 14.9 23.6 15.3 23.6C16.8 23.5 18.3 22.8 19.5 21.8 20 21.4 20.5 20.9 20.8 20.4 22.2 18.2 22.7 15.8 22.2 13.6L22.2 13.6ZM11.1 13.1 11.3 13.3 11.5 13.1C12.2 12.6 12.7 12 13.1 11.4 13.5 10.8 13.9 10.2 13.9 9.5L13.9 9.4C14.2 8.9 14.3 8.5 14.3 8 14.8 8.4 15.3 8.8 15.8 9.4 15.8 9.4 15.8 9.5 15.9 9.5 16.4 10.1 16.9 10.7 17.2 11.4 17.3 11.6 17.4 11.8 17.5 12.1L17.7 12.6 18.1 12.2C18.3 12 18.5 11.7 18.7 11.4 18.8 11.3 18.9 11.2 18.9 11.1 19 11.2 19.1 11.3 19.2 11.4 20.3 12.7 20.7 14.2 20.4 15.9 20.2 17.3 19.6 18.5 18.7 19.6 18.8 18.2 18.1 16.9 16.9 16L16.6 15.8 16.5 16C15.9 15.3 15.1 14.7 14.2 14.5L13.7 14.5 13.7 15C13.8 16.2 13.5 17.3 12.9 18.4 12.4 17.9 11.8 17.2 11.6 16.5L11.4 16 11 16.4C10 17.3 9.7 18.4 9.8 19.6 9.6 19.4 9.4 19.2 9.3 19 7.5 16.8 7.6 13.5 9.4 11.4 9.4 11.3 9.5 11.3 9.5 11.2 9.5 11.2 9.6 11.3 9.6 11.4 10 12 10.6 12.6 11.1 13.1L11.1 13.1Z" fill="#7823DC" fill-rule="evenodd" clip-rule="evenodd"/></svg>