<svg viewBox="0 0 32 32" xmlns="http://www.w3.org/2000/svg" xmlns:xlink="http://www.w3.org/1999/xlink" overflow="hidden"><defs></defs><g id="Layer_3"><path d="M18 32.0166 0 32.0166 0 6.0166C0.00180771 4.3605 1.3439 3.01841 3 3.0166L15 3.0166C16.6561 3.01841 17.9982 4.3605 18 6.0166ZM2 30.0166 16 30.0166 16 6.0166C15.9996 5.46447 15.5521 5.01697 15 5.0166L3 5.0166C2.44787 5.01697 2.00037 5.46447 2 6.0166Z" fill="#7823DC"/><path d="M13 5.0166 5 5.0166 5 0.0166 13 0.0166ZM7 3.0166 11 3.0166 11 2.0166 7 2.0166Z" fill="#7823DC"/><rect x="0.95605" y="7.0166" width="16.0439" height="2" fill="#7823DC"/><path d="M32 32.0166 22 32.0166 22 8.0166 32 8.0166ZM24 30.0166 30 30.0166 30 10.0166 24 10.0166Z" fill="#7823DC"/><rect x="26" y="9.0166" width="2" height="22" fill="#7823DC"/><rect x="18" y="12.0166" width="5" height="2" fill="#7823DC"/><path d="M14.4159 19.993C13.8459 16.593 9.7959 12.953 9.61585 12.803L8.9859 12.243 8.9559 12.263 8.9259 12.243 8.2959 12.803C8.1159 12.953 4.0659 16.593 3.4959 19.993 3.17345 21.5318 3.56296 23.134 4.5559 24.353 5.67733 25.5915 7.28596 26.2751 8.9559 26.223 10.6258 26.2751 12.2345 25.5915 13.3559 24.353 14.3488 23.134 14.7383 21.5318 14.4159 19.993ZM11.8359 23.053C11.0941 23.8468 10.0411 24.2746 8.9559 24.223 7.87071 24.2746 6.81766 23.8468 6.0759 23.053 5.47566 22.2795 5.25198 21.2784 5.4659 20.323 5.7759 18.473 7.7159 16.1831 8.9559 14.933 10.1959 16.183 12.1359 18.473 12.4459 20.323 12.6598 21.2784 12.4361 22.2795 11.8359 23.053Z" fill="#7823DC"/></g></svg>