<svg viewBox="0 0 32 32" xmlns="http://www.w3.org/2000/svg" xmlns:xlink="http://www.w3.org/1999/xlink" id="Layer_1" overflow="hidden"><g><path d="M-131.1 14.3C-131.1 10-134.6 6.4-138.9 6.4-143.2 6.4-146.8 9.9-146.8 14.2-146.8 17.4-144.9 20.3-141.9 21.4L-141.9 18.5C-144.3 16.9-144.8 13.6-143.1 11.3-141.4 8.9-138.1 8.4-135.7 10.1-133.3 11.8-132.8 15.1-134.5 17.4-135.1 18.2-135.9 18.9-136.8 19.2L-136.8 21.9C-133.4 20.9-131.1 17.8-131.1 14.3L-131.1 14.3-131.1 14.3-131.1 14.3Z" fill="#7823DC" fill-rule="evenodd" clip-rule="evenodd"/><path d="M-137.5 19.9-134.9 19.9-134.9 29.6-137.5 29.6-137.5 19.9Z" fill="#7823DC" fill-rule="evenodd" clip-rule="evenodd"/><path d="M-132.3 23.9-129.8 23.9-129.8 29.6-132.3 29.6-132.3 23.9Z" fill="#7823DC" fill-rule="evenodd" clip-rule="evenodd"/><path d="M-127.2 24.6-124.6 24.6-124.6 29.6-127.2 29.6-127.2 24.6Z" fill="#7823DC" fill-rule="evenodd" clip-rule="evenodd"/><path d="M-151.8 14.1C-151.8 19.9-148.1 25-142.6 26.6L-142.6 23.9C-147.9 21.9-150.6 15.8-148.6 10.5-147.3 7-144.1 4.4-140.4 3.8L-146.8 3.8C-150 6.3-151.8 10.1-151.8 14.1L-151.8 14.1-151.8 14.1-151.8 14.1Z" fill="#7823DC" fill-rule="evenodd" clip-rule="evenodd"/><path d="M-128.4 14.1C-128.4 17.5-130 20.7-132.7 22.6L-132.7 24.9C-132.7 24.9-132.1 25.5-131.8 25.2-125.7 21.4-123.8 13.3-127.7 7.2-128.5 5.8-129.6 4.7-130.8 3.8L-137.2 3.8C-132.2 4.6-128.4 9-128.4 14.1L-128.4 14.1-128.4 14.1-128.4 14.1Z" fill="#7823DC" fill-rule="evenodd" clip-rule="evenodd"/><path d="M-139.6 43.1-143.2 38.6-143.5 38.3-149.3 33.4-148.4 33.4C-146.9 33.3-145.3 33.7-144.1 34.5L-140 32.4-140 22.6-139.9 15.1-139.3 14.5-138.7 13.9-138.2 13.9-137.2 14.9-137.2 21.9-135.2 24.5-123.1 26.9-119.3 30.7-119.3 38.7-119.6 45-117 45-116.7 38.7-116.7 30-121.9 24.8-134.8 22.2-134.8 14-137.4 11.5-140 11.5-142.6 14.1-142.6 22.6-142.6 32.6C-144.3 31.5-146.3 30.9-148.4 31L-152.9 31-152.9 33.8-145.2 40.4-141.4 45.3-135.6 45.3-139.6 43.1-139.6 43.1-139.6 43.1-139.6 43.1Z" fill="#7823DC" fill-rule="evenodd" clip-rule="evenodd"/></g><g><path d="M21 15.5 22.9 15.5 22.9 19.9 21 19.9 21 15.5Z" fill="#7823DC" fill-rule="evenodd" clip-rule="evenodd"/><path d="M16.9 14.3 18.8 14.3 18.8 19.9 16.9 19.9 16.9 14.3Z" fill="#7823DC" fill-rule="evenodd" clip-rule="evenodd"/><path d="M25.1 16.1 27.1 16.1 27.1 19.9 25.1 19.9 25.1 16.1Z" fill="#7823DC" fill-rule="evenodd" clip-rule="evenodd"/><path d="M32 20.2 32 27 31.7 31.9 29.7 31.9 30 27 30 20.8 27.1 17.9 27 17.9 25.1 17.5 23 17.1 21 16.7 18.8 16.3 17.7 16 16.9 15 16.1 14 16.1 8.6 16 8.5 15.4 7.9 15 7.9 14.6 8.3 14.2 8.7 14.2 10.3 14.2 13.2 14.2 14.5 14.2 22 11 23.7C10 23.1 8.8 22.7 7.7 22.8L6.9 22.8 11.4 26.6 11.7 26.9 14.5 30.4 17.5 32.1 13 32.1 10 28.3 4.1 23.2 4.1 21 7.6 21C9.2 20.9 10.7 21.3 12.1 22.2L12.1 8 14.1 6 16.1 6 17.1 7 18.1 7.9 18.1 14.2 18.8 14.3 18.9 14.3 28 16.2 32 20.2Z" fill="#7823DC" fill-rule="evenodd" clip-rule="evenodd"/></g><g><path d="" fill="#7823DC"/></g><path d="" fill="#7823DC"/><path d="" fill="#7823DC"/><path d="M17.7 1.6C16.7 0.5 15.2 0 13.8 0 12.3 0 10.8 0.6 9.7 1.8 8.6 0.6 7.1 0 5.6 0 4.1 0 2.7 0.5 1.6 1.6-0.6 3.8-0.5 7.5 1.8 9.6L9.7 17.5C10.5 16.7 11.3 15.9 12 15.2L14 13.2 14 10.3 10.8 13.5 9.6 14.7 3.1 8.2C2.4 7.5 2 6.6 2 5.6 2 4.6 2.3 3.7 3 3 3.7 2.3 4.6 2 5.5 2 6.5 2 7.5 2.4 8.1 3.1L9.6 4.7 11.1 3.1C11.8 2.4 12.8 2 13.8 2 14.8 2 15.7 2.4 16.3 3 17 3.7 17.3 4.6 17.3 5.6 17.3 6.1 17.2 6.5 17 7 16.8 7.5 16.5 7.9 16.2 8.2L16.2 8.2 16.2 8.2 16 8.5 16.2 8.7 16.2 11.2C16.7 10.7 17.2 10.2 17.7 9.7 17.9 9.5 18 9.4 18.2 9.2 19.9 7 19.8 3.7 17.7 1.6Z" fill="#7823DC"/></svg>