<svg viewBox="0 0 32 32" xmlns="http://www.w3.org/2000/svg" xmlns:xlink="http://www.w3.org/1999/xlink" id="Layer_1" overflow="hidden"><style>
.MsftOfcResponsive_Fill_7823dc {
 fill:#7823DC; 
}
</style>
<defs></defs><path d="M22.37 16.03 15.95 23.76 9.62 16.03 6.98 16.03 15.95 27.1 25.01 16.03 22.37 16.03 22.37 16.03 22.37 16.03 22.37 16.03Z" class="MsftOfcResponsive_Fill_7823dc" fill="#7823DC"/><path d="M22.98 16.03 25.01 16.03 25.01 25.08 22.98 25.08 22.98 16.03 22.98 16.03 22.98 16.03Z" class="MsftOfcResponsive_Fill_7823dc" fill="#7823DC"/><path d="M6.98 16.03 9.01 16.03 9.01 25.08 6.98 25.08 6.98 16.03 6.98 16.03 6.98 16.03Z" class="MsftOfcResponsive_Fill_7823dc" fill="#7823DC"/><path d="M16.04 16.03C12.7 16.03 10.06 13.31 10.06 9.97 10.06 6.63 12.7 4 16.04 4 19.38 4 22.02 6.72 22.02 10.06 22.02 13.4 19.29 16.03 16.04 16.03L16.04 16.03ZM16.04 6.02C13.84 6.02 11.99 7.86 11.99 10.06 11.99 12.26 13.75 14.1 16.04 14.1 18.33 14.1 20.09 12.26 20.09 10.06 20.09 7.86 18.24 6.02 16.04 6.02L16.04 6.02Z" class="MsftOfcResponsive_Fill_7823dc" fill="#7823DC"/><path d="M16 0 18.17 2.17C24.86 3.21 30 9.02 30 16 30 23.72 23.72 30 16 30 8.28 30 2 23.72 2 16 2 13.03 2.93 10.27 4.53 8L2.15 8C0.78 10.35 0 13.08 0 16 0 24.84 7.16 32 16 32 24.84 32 32 24.84 32 16 32 7.16 24.83 0 16 0Z" class="MsftOfcResponsive_Fill_7823dc" fill="#7823DC"/><path d="M5.47 11.85 3.47 11.85 3.63 7.01 5.47 6.2 5.47 11.85Z" class="MsftOfcResponsive_Fill_7823dc" fill="#7823DC"/><path d="M5.47 6.2 4.66 8.04 0 8.18 0 6.2 5.47 6.2Z" class="MsftOfcResponsive_Fill_7823dc" fill="#7823DC"/></svg>