<svg viewBox="0 0 32 32" xmlns="http://www.w3.org/2000/svg" xmlns:xlink="http://www.w3.org/1999/xlink" xml:space="preserve" overflow="hidden"><style>
.MsftOfcResponsive_Fill_7823dc {
 fill:#7823DC; 
}
</style>
<g id="Layer_3"></g><g id="Layer_1"></g><g id="Layer_2"></g><g id="Layer_4"></g><g id="Layer_5"><g><path d="M8.01 32.01C3.58 32.01 0.1 24.98 0.1 16.01 0.1 7.04 3.57 0.01 8.01 0.01 12.44 0.01 15.92 7.04 15.92 16.01 15.92 24.98 12.44 32.01 8.01 32.01ZM8.01 2.01C5.22 2.01 2.1 7.76 2.1 16.01 2.1 24.26 5.21 30.01 8.01 30.01 10.8 30.01 13.92 24.26 13.92 16.01 13.92 7.76 10.8 2.01 8.01 2.01Z" class="st0 MsftOfcResponsive_Fill_7823dc" fill="#7823DC"/><path d="M24.05 32.01 24.05 30.01C26.84 30.01 29.96 24.26 29.96 16.01 29.96 7.76 26.85 2.01 24.05 2.01L24.05 0.01C28.48 0.01 31.96 7.04 31.96 16.01 31.96 24.98 28.48 32.01 24.05 32.01Z" class="st0 MsftOfcResponsive_Fill_7823dc" fill="#7823DC"/><path d="M8.01 24.32C5.57 24.32 3.72 20.82 3.72 16.18 3.72 11.54 5.56 8.04 8.01 8.04 10.45 8.04 12.3 11.54 12.3 16.18 12.3 20.83 10.46 24.32 8.01 24.32ZM8.01 10.05C7.08 10.05 5.72 12.44 5.72 16.19 5.72 19.94 7.07 22.33 8.01 22.33 8.95 22.33 10.3 19.94 10.3 16.19 10.3 12.44 8.94 10.05 8.01 10.05Z" class="st0 MsftOfcResponsive_Fill_7823dc" fill="#7823DC"/><rect x="8.01" y="0.01" width="16.04" height="2" class="st0 MsftOfcResponsive_Fill_7823dc" fill="#7823DC"/><rect x="8.01" y="30.01" width="16.33" height="2" class="st0 MsftOfcResponsive_Fill_7823dc" fill="#7823DC"/></g></g></svg>