<svg viewBox="0 0 32 32" xmlns="http://www.w3.org/2000/svg" xmlns:xlink="http://www.w3.org/1999/xlink" id="Layer_1" overflow="hidden"><style>
.MsftOfcResponsive_Fill_7823dc {
 fill:#7823DC; 
}
</style>
<defs></defs><path d="M27.71 23.43 4.29 23.43 4.29 4.29 27.72 4.29 27.72 23.43ZM6.28 21.43 25.71 21.43 25.71 6.29 6.29 6.29 6.29 21.43Z" class="MsftOfcResponsive_Fill_7823dc" fill="#7823DC"/><rect x="24.22" y="8.26" width="4.31" height="2" class="MsftOfcResponsive_Fill_7823dc" fill="#7823DC"/><rect x="24.22" y="16.83" width="4.31" height="2" class="MsftOfcResponsive_Fill_7823dc" fill="#7823DC"/><path d="M32 30 26.39 30C25.57 30 24.78 29.67 24.18 29.06L23.32 28.2C23.09 27.97 22.82 27.85 22.53 27.85L9.35 27.85C9.06 27.85 8.79 27.97 8.56 28.2L7.7 29.06C7.1 29.67 6.31 30 5.49 30L0 30 0 0 32 0 32 30ZM9.36 25.85 22.54 25.85C23.36 25.85 24.15 26.18 24.75 26.79L25.61 27.65C25.84 27.88 26.11 28 26.4 28L30.01 28 30.01 2 2 2 2 28 5.5 28C5.79 28 6.06 27.88 6.29 27.65L7.15 26.79C7.75 26.18 8.54 25.85 9.36 25.85Z" class="MsftOfcResponsive_Fill_7823dc" fill="#7823DC"/><path d="M9.57 12.79C9.25 12.79 9.03 12.68 8.82 12.47 8.61 12.26 8.5 12.04 8.5 11.72 8.5 11.4 8.61 11.18 8.82 10.97 9.25 10.54 9.89 10.54 10.32 10.97 10.53 11.18 10.64 11.4 10.64 11.72 10.64 12.04 10.53 12.26 10.32 12.47 10.11 12.68 9.89 12.79 9.57 12.79Z" class="MsftOfcResponsive_Fill_7823dc" fill="#7823DC"/><path d="M12.79 12.79C12.47 12.79 12.25 12.68 12.04 12.47 11.83 12.26 11.72 12.04 11.72 11.72 11.72 11.4 11.83 11.18 12.04 10.97 12.47 10.54 13.11 10.54 13.54 10.97 13.75 11.18 13.86 11.4 13.86 11.72 13.86 12.04 13.75 12.26 13.54 12.47 13.33 12.68 13.11 12.79 12.79 12.79Z" class="MsftOfcResponsive_Fill_7823dc" fill="#7823DC"/><path d="M16 12.79C15.68 12.79 15.46 12.68 15.25 12.47 15.04 12.26 14.93 12.04 14.93 11.72 14.93 11.4 15.04 11.18 15.25 10.97 15.68 10.54 16.32 10.54 16.75 10.97 16.96 11.18 17.07 11.4 17.07 11.72 17.07 12.04 16.96 12.26 16.75 12.47 16.54 12.68 16.32 12.79 16 12.79Z" class="MsftOfcResponsive_Fill_7823dc" fill="#7823DC"/><path d="M9.57 16C9.25 16 9.03 15.89 8.82 15.68 8.61 15.47 8.5 15.25 8.5 14.93 8.5 14.61 8.61 14.39 8.82 14.18 9.25 13.75 9.89 13.75 10.32 14.18 10.53 14.39 10.64 14.61 10.64 14.93 10.64 15.25 10.53 15.47 10.32 15.68 10.11 15.89 9.89 16 9.57 16Z" class="MsftOfcResponsive_Fill_7823dc" fill="#7823DC"/><path d="M12.79 16C12.47 16 12.25 15.89 12.04 15.68 11.83 15.47 11.72 15.25 11.72 14.93 11.72 14.61 11.83 14.39 12.04 14.18 12.47 13.75 13.11 13.75 13.54 14.18 13.75 14.39 13.86 14.61 13.86 14.93 13.86 15.25 13.75 15.47 13.54 15.68 13.33 15.89 13.11 16 12.79 16Z" class="MsftOfcResponsive_Fill_7823dc" fill="#7823DC"/><path d="M16 16C15.68 16 15.46 15.89 15.25 15.68 15.04 15.47 14.93 15.25 14.93 14.93 14.93 14.61 15.04 14.39 15.25 14.18 15.68 13.75 16.32 13.75 16.75 14.18 16.96 14.39 17.07 14.61 17.07 14.93 17.07 15.25 16.96 15.47 16.75 15.68 16.54 15.89 16.32 16 16 16Z" class="MsftOfcResponsive_Fill_7823dc" fill="#7823DC"/><path d="M9.57 19.21C9.25 19.21 9.03 19.1 8.82 18.89 8.61 18.68 8.5 18.46 8.5 18.14 8.5 17.82 8.61 17.6 8.82 17.39 9.25 16.96 9.89 16.96 10.32 17.39 10.53 17.6 10.64 17.82 10.64 18.14 10.64 18.46 10.53 18.68 10.32 18.89 10.11 19.1 9.89 19.21 9.57 19.21Z" class="MsftOfcResponsive_Fill_7823dc" fill="#7823DC"/><path d="M12.79 19.21C12.47 19.21 12.25 19.1 12.04 18.89 11.83 18.68 11.72 18.46 11.72 18.14 11.72 17.82 11.83 17.6 12.04 17.39 12.47 16.96 13.11 16.96 13.54 17.39 13.75 17.6 13.86 17.82 13.86 18.14 13.86 18.46 13.75 18.68 13.54 18.89 13.33 19.1 13.11 19.21 12.79 19.21Z" class="MsftOfcResponsive_Fill_7823dc" fill="#7823DC"/><path d="M16 19.21C15.68 19.21 15.46 19.1 15.25 18.89 15.04 18.68 14.93 18.46 14.93 18.14 14.93 17.82 15.04 17.6 15.25 17.39 15.68 16.96 16.32 16.96 16.75 17.39 16.96 17.6 17.07 17.82 17.07 18.14 17.07 18.46 16.96 18.68 16.75 18.89 16.54 19.1 16.32 19.21 16 19.21Z" class="MsftOfcResponsive_Fill_7823dc" fill="#7823DC"/><rect x="8.5" y="7.5" width="8.57" height="2" class="MsftOfcResponsive_Fill_7823dc" fill="#7823DC"/><rect x="2" y="29" width="2" height="3" class="MsftOfcResponsive_Fill_7823dc" fill="#7823DC"/><rect x="28" y="29" width="2" height="3" class="MsftOfcResponsive_Fill_7823dc" fill="#7823DC"/></svg>