<svg viewBox="0 0 32 32" xmlns="http://www.w3.org/2000/svg" xmlns:xlink="http://www.w3.org/1999/xlink" xml:space="preserve" overflow="hidden"><style>
.MsftOfcResponsive_Fill_7823dc {
 fill:#7823DC; 
}
</style>
<g id="Layer_3"></g><g id="Layer_1"></g><g id="Layer_2"></g><g id="Layer_4"></g><g id="Layer_5"><path d="M16.02 31.98 16 31.98C14.61 31.98 13.22 31.8 11.89 31.44L12.4 29.51C13.57 29.82 14.78 29.98 16 29.98L16.02 31.98ZM20.14 31.43 19.62 29.5C20.79 29.19 21.93 28.72 22.98 28.1L23.98 29.83C22.78 30.54 21.49 31.08 20.14 31.43ZM8.03 29.85C6.82 29.15 5.71 28.3 4.72 27.32L6.13 25.9C6.99 26.76 7.97 27.51 9.02 28.12L8.03 29.85ZM27.29 27.3 25.88 25.89C26.74 25.03 27.49 24.05 28.1 23L29.83 24C29.13 25.2 28.28 26.31 27.29 27.3ZM2.19 24.02C1.49 22.81 0.95 21.52 0.59 20.17L2.52 19.65C2.84 20.82 3.31 21.96 3.92 23.01L2.19 24.02ZM31.42 20.14 29.49 19.62C29.8 18.45 29.96 17.23 29.96 16.01L31.96 15.95 31.96 16.01C31.96 17.41 31.78 18.8 31.42 20.14ZM0.04 16.04 0.04 16.01C0.04 14.62 0.22 13.24 0.57 11.91L2.5 12.42C2.19 13.58 2.04 14.79 2.04 16.01L0.04 16.04ZM29.48 12.34C29.16 11.16 28.69 10.03 28.07 8.98L29.8 7.97C30.5 9.17 31.05 10.47 31.41 11.81L29.48 12.34ZM3.89 9.06 2.16 8.06C2.85 6.85 3.7 5.74 4.68 4.75L6.1 6.16C5.24 7.03 4.5 8 3.89 9.06ZM25.84 6.1C24.97 5.24 24 4.5 22.94 3.89L23.94 2.16C25.15 2.85 26.26 3.7 27.25 4.69L25.84 6.1ZM8.98 3.93 7.98 2.2C9.19 1.5 10.48 0.96 11.82 0.59L12.34 2.52C11.17 2.85 10.04 3.32 8.98 3.93ZM19.57 2.51C18.41 2.2 17.21 2.05 16 2.05L15.96 0.05 16.07 0.05C17.44 0.04 18.76 0.22 20.09 0.57L19.57 2.51Z" class="MsftOfcResponsive_Fill_7823dc" fill="#7823DC"/><path d="M15.98 13.39C13.49 13.39 11.47 11.37 11.47 8.88 11.47 6.39 13.49 4.37 15.98 4.37 18.47 4.37 20.49 6.39 20.49 8.88 20.49 11.37 18.46 13.39 15.98 13.39ZM15.98 6.38C14.6 6.38 13.47 7.5 13.47 8.89 13.47 10.28 14.59 11.4 15.98 11.4 17.37 11.4 18.49 10.28 18.49 8.89 18.49 7.5 17.36 6.38 15.98 6.38Z" class="MsftOfcResponsive_Fill_7823dc" fill="#7823DC"/><path d="M15.98 27.21C13.49 27.21 11.47 25.19 11.47 22.7 11.47 20.21 13.49 18.19 15.98 18.19 18.47 18.19 20.49 20.21 20.49 22.7 20.49 25.19 18.46 27.21 15.98 27.21ZM15.98 20.2C14.6 20.2 13.47 21.32 13.47 22.71 13.47 24.1 14.59 25.22 15.98 25.22 17.37 25.22 18.49 24.1 18.49 22.71 18.49 21.32 17.36 20.2 15.98 20.2Z" class="MsftOfcResponsive_Fill_7823dc" fill="#7823DC"/><path d="M22.88 20.4C20.39 20.4 18.37 18.38 18.37 15.89 18.37 13.41 20.39 11.38 22.88 11.38 25.36 11.38 27.39 13.4 27.39 15.89 27.38 18.38 25.36 20.4 22.88 20.4ZM22.88 13.39C21.5 13.39 20.37 14.51 20.37 15.9 20.37 17.29 21.49 18.41 22.88 18.41 24.27 18.41 25.39 17.29 25.39 15.9 25.39 14.51 24.26 13.39 22.88 13.39Z" class="MsftOfcResponsive_Fill_7823dc" fill="#7823DC"/><path d="M9.12 20.2C6.63 20.2 4.61 18.18 4.61 15.69 4.61 13.2 6.63 11.18 9.12 11.18 11.61 11.18 13.63 13.2 13.63 15.69 13.63 18.17 11.61 20.2 9.12 20.2ZM9.12 13.18C7.74 13.18 6.61 14.3 6.61 15.69 6.61 17.08 7.73 18.2 9.12 18.2 10.51 18.2 11.63 17.08 11.63 15.69 11.63 14.3 10.51 13.18 9.12 13.18Z" class="MsftOfcResponsive_Fill_7823dc" fill="#7823DC"/></g></svg>