<svg viewBox="0 0 32 32" xmlns="http://www.w3.org/2000/svg" xmlns:xlink="http://www.w3.org/1999/xlink" id="Layer_5" overflow="hidden"><defs></defs><path d="M30.67 12.35 28.57 10.7 28.41 10.7 28.08 10.08 24.48 8.46 23.74 8.46 21.64 6.91 20.69 7.16 19.62 6.97 17.37 7.59 15.67 7.94 13.2 8.6 11.08 8.71 9.09 8.2 7.88 8.6 6.93 8.4 6.6 8.57 5.19 8.29 4.71 10.1 3.89 10.2 1.93 13.11 1.56 14.04 0.57 15.65 0.57 16.25-0.1 17.42 0.91 18.96 0.74 20.6 2.63 21.86 3.39 23.28 5.23 23.1 7.52 24.56 10.5 24.79C13.2 26.17 13.23 26.16 13.63 26.03 13.75 26 14.26 25.91 14.55 25.85L17.12 26.48 19.28 26.27 20.26 26.51 22.68 25.6 24.38 25.3 27.1 22.92 27.36 22.22 28.26 21.81 28.85 20.87 30.5 19.89 30.5 18.23 30.73 17.61 31.54 16.87 32.05 15.2 30.64 12.33ZM29.82 15.78 29.05 16.48 28.53 17.89 28.53 18.76 27.44 19.4 26.91 20.24 25.8 20.74 25.42 21.74 23.49 23.43 22.25 23.65 20.14 24.42 19.42 24.25 17.26 24.46 14.6 23.81 14.39 23.85C13.94 23.93 13.65 23.99 13.46 24.03 13.02 23.83 12.06 23.35 11.23 22.93L11.05 22.84 8.17 22.62 5.72 21.05 4.53 21.16 4.16 20.47 2.86 19.6 2.98 18.46 2.25 17.35 2.58 16.78 2.58 16.22 3.33 15.01 3.67 14.13 5.05 12.08 6.3 11.93 6.65 10.63 6.91 10.68 7.22 10.52 8 10.69 9.16 10.3 10.88 10.74 13.41 10.61 16.13 9.91 17.84 9.56 19.72 9.04 20.78 9.23 21.22 9.11 23.07 10.47 24.04 10.47 26.63 11.63 27.21 12.71 27.81 12.71 29.06 13.64 29.93 15.43 29.82 15.8Z" stroke-width="0" fill="#7823DC"/><path d="M23.03 11.45 22.85 11.4C21.67 11.21 20.34 10.97 19.52 10.81L19.33 11.32 19.36 11.32C19.36 11.32 19.33 11.32 19.33 11.32L18.79 12.71C19.51 12.87 20.64 13.06 22.43 13.36L24.86 14.24 27.09 16.08 28.36 14.54 25.87 12.48 23.03 11.44Z" stroke-width="0" fill="#7823DC"/><path d="M6.31 17.02 5.15 14.98 3.42 15.97 4.65 18.14 6.53 19.96 9.47 21.13 10.21 19.27 7.62 18.25 6.31 17.02Z" stroke-width="0" fill="#7823DC"/></svg>