<svg viewBox="0 0 32 32" xmlns="http://www.w3.org/2000/svg" xmlns:xlink="http://www.w3.org/1999/xlink" id="Graphic" overflow="hidden"><defs></defs><path d="M19.66 10.34 18 8.67 18 11.51 18.25 11.75C20.5944 14.0918 20.5966 17.8908 18.2547 20.2353 18.2531 20.2369 18.2516 20.2384 18.25 20.24L12.25 26.24C9.90746 28.5796 6.11254 28.5796 3.77 26.24 1.43037 23.8975 1.43037 20.1025 3.77 17.76L6 15.52 6 12.71 5.34 13.35 2.34 16.35C-0.780409 19.478-0.774276 24.5433 2.3537 27.6637 3.85252 29.1589 5.88291 29.999 8 30 10.1204 30.0068 12.1553 29.164 13.65 27.66L19.65 21.66C22.7787 18.5403 22.786 13.475 19.6663 10.3463 19.6642 10.3442 19.6621 10.3421 19.66 10.34Z" fill="#7823DC"/><path d="M29.66 2.33C26.5362-0.791723 21.4738-0.791723 18.35 2.33L12.35 8.33C9.22828 11.4538 9.22828 16.5162 12.35 19.64L14 21.32 14 18.48 13.76 18.23C11.4204 15.8875 11.4204 12.0925 13.76 9.75L19.76 3.75C22.1044 1.40555 25.9056 1.40555 28.25 3.75 30.5944 6.09445 30.5944 9.89555 28.25 12.24L26 14.45 26 17.3 29.66 13.64C32.7817 10.5162 32.7817 5.45377 29.66 2.33Z" fill="#7823DC"/></svg>