<svg viewBox="0 0 32 32" xmlns="http://www.w3.org/2000/svg" xmlns:xlink="http://www.w3.org/1999/xlink" overflow="hidden"><defs></defs><g id="Layer_3"><path d="M26.1667 4.9997C24.7805 3.30053 23.0171 1.94805 21.0167 1.0497 20.6867 0.9097 20.3567 0.7797 20.0167 0.6697 19.6895 0.550072 19.3556 0.449897 19.0167 0.3697 17.0471-0.123633 14.9862-0.123633 13.0167 0.3697 12.6777 0.449894 12.3438 0.550069 12.0167 0.6697 11.6767 0.7797 11.3467 0.9097 11.0167 1.0497 9.01624 1.94805 7.25288 3.30053 5.86667 4.9997 5.33667 5.6197 7.94667 5.5997 8.59667 4.9997 9.32625 4.32497 10.1396 3.74689 11.0167 3.2797 11.6511 2.93103 12.3218 2.65273 13.0167 2.44975L13.0167 1.99975 19.0167 1.99975 19.0167 2.44975C19.7116 2.65274 20.3822 2.93104 21.0167 3.2797 21.8938 3.74689 22.7071 4.32497 23.4367 4.9997 24.0867 5.59968 26.6966 5.6197 26.1667 4.9997Z" fill="#7823DC"/><path d="M5.86662 4.9997C5.33662 5.6197 7.94662 5.5997 8.59662 4.9997ZM26.1667 4.9997 23.4367 4.9997C24.0867 5.59968 26.6966 5.6197 26.1667 4.9997Z" fill="#7823DC"/><path d="M26.1667 4.9997C26.6967 5.6197 24.0867 5.5997 23.4367 4.9997L8.59667 4.9997C7.94667 5.5997 5.33667 5.6197 5.86667 4.9997L0.01667 4.9997 0.01667 18.9997 2.26667 18.9997C3.49667 26.3897 9.19667 31.9997 16.0167 31.9997 22.8367 31.9997 28.5367 26.3897 29.7667 18.9997L32.0167 18.9997 32.0167 4.9997ZM16.0167 29.9997C10.2767 29.9997 5.47667 25.2797 4.29667 18.9997L12.2567 18.9997 16.0167 17.1197 19.8067 18.9997 27.7367 18.9997C26.5566 25.2797 21.7566 29.9997 16.0166 29.9997ZM30.0167 16.9997 20.2767 16.9997 16.0167 14.8797 11.7767 16.9997 2.01667 16.9997 2.01667 6.9997 30.0167 6.9997Z" fill="#7823DC"/><rect x="11.0167" y="-0.0003" width="2" height="6" fill="#7823DC"/><rect x="19.0166" y="-0.0003" width="2" height="6" fill="#7823DC"/><rect x="12.0167" y="-0.0003" width="8" height="2" fill="#7823DC"/><rect x="13.0166" y="21.9997" width="6" height="2" fill="#7823DC"/></g></svg>