<svg viewBox="0 0 32 32.1" xmlns="http://www.w3.org/2000/svg" xmlns:xlink="http://www.w3.org/1999/xlink" id="Layer_1" overflow="hidden"><defs></defs><path d="M30 24.06 30 18.05 28 18.05 28 12.03 26 12.03 26 6.01 24 6.01 24 0 8 0 8 6.01 6 6.01 6 12.03 4 12.03 4 18.05 2 18.05 2 24.06 0 24.06 0 32.1 32 32.1 32 24.06 30 24.06ZM21.82 30.06 10.18 30.06 10.84 26.08 10.84 26.06C10.84 26.06 11.18 24.08 11.18 24.08L11.18 24.06 11.84 20.06 11.84 20.06C11.84 20.06 12.17 18.06 12.17 18.06L12.17 18.06C12.17 18.06 12.83 14.05 12.83 14.05L12.83 14.03C12.83 14.03 13.17 12.05 13.17 12.05L13.17 12.03 13.84 8.03 18.14 8.03 18.81 12.03 18.81 12.05 19.14 14.03 19.14 14.05C19.14 14.05 19.81 18.05 19.81 18.05L19.81 18.05C19.81 18.05 20.14 20.05 20.14 20.05L20.15 20.05C20.15 20.05 20.81 24.06 20.81 24.06L20.81 24.08 21.14 26.06 21.14 26.08C21.14 26.08 21.81 30.06 21.81 30.06ZM22.85 24.06 22.19 20.06 28 20.06 28 24.06 22.85 24.06ZM21.85 18.05 21.19 14.05 26 14.05 26 18.05 21.85 18.05ZM20.85 12.03 20.19 8.03 24 8.03 24 12.03 20.85 12.03ZM10 2 22 2 22 6.01 10 6.01 10 2ZM8 8.03 11.81 8.03 11.15 12.03 8 12.03 8 8.03ZM6 14.05 10.81 14.05 10.15 18.05 6 18.05 6 14.05ZM4 20.06 9.81 20.06 9.15 24.06 4 24.06 4 20.06ZM2 26.08 8.81 26.08 8.15 30.1 2 30.1 2 26.08ZM30 30.1 23.85 30.1 23.19 26.08 30 26.08 30 30.1Z" fill="#7823DC"/></svg>