<svg viewBox="0 0 32 31.96" xmlns="http://www.w3.org/2000/svg" xmlns:xlink="http://www.w3.org/1999/xlink" id="Layer_1" overflow="hidden"><style>
.MsftOfcThm_Text2_Fill_v2 {
 fill:#7823DC; 
}
</style>
<defs></defs><path d="M18.86 23.52C14.59 23.52 11.12 20.05 11.12 15.78 11.12 11.51 14.59 8.04 18.86 8.04 23.13 8.04 26.6 11.51 26.6 15.78 26.6 20.05 23.13 23.52 18.86 23.52ZM18.86 10.04C15.69 10.04 13.12 12.62 13.12 15.78 13.12 18.94 15.7 21.52 18.86 21.52 22.02 21.52 24.6 18.94 24.6 15.78 24.6 12.62 22.02 10.04 18.86 10.04Z" class="MsftOfcThm_Text2_Fill_v2" stroke-width="0" fill="#7823DC"/><path d="M18.86 28.92 5.11 28.92 8 23.15C6.53 20.95 5.73 18.35 5.73 15.78 5.73 8.54 11.62 2.64 18.87 2.64 26.12 2.64 32.01 8.53 32.01 15.78 32.01 23.03 26.12 28.92 18.87 28.92ZM8.34 26.92 18.86 26.92C25 26.92 30 21.92 30 15.78 30 9.64 25 4.64 18.86 4.64 12.72 4.64 7.73 9.64 7.73 15.78 7.73 18.13 8.52 20.51 9.96 22.47L10.32 22.96 8.34 26.91Z" class="MsftOfcThm_Text2_Fill_v2" stroke-width="0" fill="#7823DC"/><path d="M2 31.96 0 31.96 0 26.92 8.07 26.92 8.07 28.92 2 28.92 2 31.96Z" class="MsftOfcThm_Text2_Fill_v2" stroke-width="0" fill="#7823DC"/><path d="M6.52 15.97 1.61 15.63 1.68 14.63C2.1 8.67 5.72 3.24 11.12 0.46L12.02 0 14.23 4.41 12.44 5.3 11.15 2.73C7.14 5.13 4.41 9.23 3.78 13.77L6.66 13.97 6.52 15.97Z" class="MsftOfcThm_Text2_Fill_v2" stroke-width="0" fill="#7823DC"/></svg>