<svg viewBox="0 0 32 32" xmlns="http://www.w3.org/2000/svg" xmlns:xlink="http://www.w3.org/1999/xlink" xml:space="preserve" overflow="hidden"><style>
.MsftOfcResponsive_Fill_7823dc {
 fill:#7823DC; 
}
</style>
<g id="Layer_3"></g><g id="Layer_1"></g><g id="Layer_2"></g><g id="Layer_4"></g><g id="Layer_5"><path d="M16.41 32.04 14.83 31.94C14.38 31.26 11.71 28.48 10.14 26.9 6.46 23.6 6.13 17.42 6.12 17.16 6.1 12 7.32 8.2 9.74 5.83 12.23 3.39 15.06 3.43 15.18 3.44 15.33 3.45 24.3 4.31 24.65 17.17 24.66 17.39 24.78 22.68 21.23 26.63L21.23 26.63C18.51 29.64 16.41 32.03 16.41 32.04ZM15.06 5.41C15.04 5.41 12.96 5.41 11.09 7.27 9.09 9.25 8.09 12.56 8.11 17.09 8.11 17.1 8.41 22.66 11.51 25.43 11.88 25.81 14.32 28.27 15.68 29.82 16.53 28.85 18.01 27.18 19.73 25.26L19.73 25.26C22.73 21.92 22.64 17.24 22.64 17.19 22.34 6.21 15.36 5.44 15.06 5.41ZM20.48 25.94 20.48 25.94 20.48 25.94Z" class="st0 MsftOfcResponsive_Fill_7823dc" fill="#7823DC"/><path d="M14.93 31.73 14.43 30.86C5.43 15.12 13.1 4.87 13.43 4.44L14.04 3.65 15.62 4.87 15.01 5.66C14.71 6.05 7.85 15.34 16.16 29.87L16.66 30.74 14.93 31.73Z" class="st0 MsftOfcResponsive_Fill_7823dc" fill="#7823DC"/><path d="M16.3 32.19 14.57 31.19 15.07 30.32C22.83 16.82 15.76 6.06 15.46 5.61L14.9 4.78 16.55 3.66 17.11 4.49C17.19 4.61 25.2 16.71 16.8 31.32L16.3 32.19Z" class="st0 MsftOfcResponsive_Fill_7823dc" fill="#7823DC"/><rect x="14.15" y="0.08" width="2" height="5.34" class="st0 MsftOfcResponsive_Fill_7823dc" fill="#7823DC"/><path d="M23.96 12.09C23.4 12.09 22.8 12.04 22.17 11.91L22.56 9.95C25.01 10.44 26.74 9.55 27.53 9.01 26.65 6.61 25.28 4.98 23.44 4.16 19.86 2.56 15.57 4.48 15.52 4.5L14.69 2.68C14.9 2.58 19.82 0.36 24.24 2.33 26.79 3.46 28.61 5.72 29.66 9.05L29.84 9.63 29.41 10.06C29.31 10.16 27.31 12.09 23.96 12.09Z" class="st0 MsftOfcResponsive_Fill_7823dc" fill="#7823DC"/></g></svg>