<svg viewBox="0 0 29.22 29.22" xmlns="http://www.w3.org/2000/svg" xmlns:xlink="http://www.w3.org/1999/xlink" id="Layer_5" overflow="hidden"><defs></defs><path d="M14.56 0.05 0 6.72 0 29.21 29.22 29.21 29.22 6.72 14.56 0.05 14.56 0.05ZM27.39 27.39 1.83 27.39 1.83 7.96 14.56 2.02 27.39 7.96 27.39 27.39 27.39 27.39Z" stroke-width="0" fill="#7823DC"/><path d="M17.42 12.06 17.07 13.68C16.74 13.35 16.25 13.18 15.62 13.18 14.99 13.18 14.47 13.41 14.07 13.87 13.85 14.13 13.69 14.45 13.6 14.84L16.82 14.84 16.63 15.75 13.48 15.75C13.48 15.84 13.48 15.96 13.48 16.1 13.48 16.24 13.48 16.38 13.49 16.53L16.47 16.53 16.28 17.44 13.61 17.44C13.71 17.86 13.86 18.19 14.06 18.42 14.45 18.88 14.96 19.11 15.58 19.11 16.33 19.11 16.93 18.88 17.37 18.42L17.37 20.21C16.86 20.46 16.27 20.59 15.59 20.59 14.45 20.59 13.51 20.2 12.78 19.42 12.28 18.89 11.95 18.23 11.79 17.43L10.92 17.43 11.11 16.52 11.68 16.52C11.68 16.43 11.68 16.33 11.68 16.22 11.68 16.04 11.68 15.88 11.69 15.75L10.92 15.75 11.11 14.84 11.81 14.84C11.97 14.06 12.3 13.41 12.79 12.89 13.53 12.1 14.5 11.71 15.7 11.71 16.36 11.71 16.93 11.83 17.41 12.07Z" stroke-width="0" fill="#7823DC"/></svg>