<svg viewBox="0 0 32 32" xmlns="http://www.w3.org/2000/svg" xmlns:xlink="http://www.w3.org/1999/xlink" id="Layer_1" overflow="hidden"><style>
.MsftOfcResponsive_Fill_7823dc {
 fill:#7823DC; 
}
</style>
<path d="M27.5 18 4.5 18 4.5 5 27.5 5 27.5 18ZM6.5 16 25.5 16 25.5 7 6.5 7 6.5 16Z" class="MsftOfcResponsive_Fill_7823dc" fill="#7823DC"/><path d="M31.65 24 0.35 24 4.5 16 27.49 16 31.64 24ZM3.65 22 28.36 22 26.29 18 5.72 18 3.65 22Z" class="MsftOfcResponsive_Fill_7823dc" fill="#7823DC"/><path d="M32 32 0 32 0 25.5C0 23.59 1.55 22.04 3.46 22.04L28.54 22.04C30.45 22.04 32 23.59 32 25.5L32 32ZM2 30 30 30 30 25.5C30 24.7 29.35 24.04 28.54 24.04L3.46 24.04C2.66 24.04 2 24.69 2 25.5L2 30Z" class="MsftOfcResponsive_Fill_7823dc" fill="#7823DC"/><rect x="9" y="14.5" width="2" height="6.5" class="MsftOfcResponsive_Fill_7823dc" fill="#7823DC"/><path d="M10 15.62C8.4 15.62 7.1 14.32 7.1 12.72 7.1 11.12 8.4 9.82 10 9.82 11.6 9.82 12.9 11.12 12.9 12.72 12.9 14.32 11.6 15.62 10 15.62ZM10 11.82C9.5 11.82 9.1 12.22 9.1 12.72 9.1 13.22 9.5 13.62 10 13.62 10.5 13.62 10.9 13.21 10.9 12.72 10.9 12.23 10.5 11.82 10 11.82Z" class="MsftOfcResponsive_Fill_7823dc" fill="#7823DC"/><rect x="16.5" y="16" width="2" height="1" class="MsftOfcResponsive_Fill_7823dc" fill="#7823DC"/><rect x="21" y="16" width="2" height="1" class="MsftOfcResponsive_Fill_7823dc" fill="#7823DC"/><rect x="23" y="19" width="2" height="2" class="MsftOfcResponsive_Fill_7823dc" fill="#7823DC"/><rect x="19" y="19" width="2" height="2" class="MsftOfcResponsive_Fill_7823dc" fill="#7823DC"/><rect x="15" y="19" width="2" height="2" class="MsftOfcResponsive_Fill_7823dc" fill="#7823DC"/><path d="M27.41 16.41 25.59 15.59 30 5.79 30 2 2 2 2 5.79 6.41 15.59 4.59 16.41 0 6.21 0 0 32 0 32 6.21 27.41 16.41Z" class="MsftOfcResponsive_Fill_7823dc" fill="#7823DC"/></svg>