<svg viewBox="0 0 32 32" xmlns="http://www.w3.org/2000/svg" xmlns:xlink="http://www.w3.org/1999/xlink" id="Graphic" overflow="hidden"><defs></defs><path d="M28 2 28 30 4 30 4 2 28 2M26 0 2 0 2 32 30 32 30 4Z" fill="#7823DC"/><path d="M18 6 6 6 6 8 18 8 18 6 18 6Z" fill="#7823DC"/><path d="M18 10 6 10 6 12 18 12 18 10 18 10Z" fill="#7823DC"/><path d="M18 14 6 14 6 16 18 16 18 14 18 14Z" fill="#7823DC"/><path d="M26 6 22 6 22 8 26 8 26 6 26 6Z" fill="#7823DC"/><path d="M26 10 22 10 22 12 26 12 26 10 26 10Z" fill="#7823DC"/><path d="M26 14 22 14 22 16 26 16 26 14 26 14Z" fill="#7823DC"/><path d="M24.08 24.77C24.2466 24.6193 24.3412 24.4047 24.34 24.18 24.3543 23.9696 24.2552 23.7675 24.08 23.65Z" fill="#7823DC"/><path d="M22.08 21 22.08 19.83C21.8938 19.9512 21.7811 20.1579 21.78 20.38 21.7426 20.6288 21.8617 20.875 22.08 21Z" fill="#7823DC"/><path d="M24.08 23.65 24.08 24.77C24.2466 24.6193 24.3412 24.4047 24.34 24.18 24.3543 23.9696 24.2552 23.7675 24.08 23.65Z" fill="#7823DC"/><path d="M22.08 21 22.08 19.83C21.8938 19.9512 21.7811 20.1579 21.78 20.38 21.7426 20.6288 21.8617 20.875 22.08 21Z" fill="#7823DC"/><path d="M23.56 18 21.56 18 21.56 18.91C20.2546 18.9672 19.2155 20.0238 19.18 21.33 19.18 22.78 19.9 23.49 21.56 23.81L21.56 25.37C21.2726 25.1633 21.0986 24.8339 21.09 24.48L19 24.48C19.0302 25.8912 20.1498 27.0371 21.56 27.1L21.56 28 23.56 28 23.56 27.11C24.9904 27.0991 26.141 25.9306 26.1301 24.5003 26.1301 24.4968 26.13 24.4934 26.13 24.49 26.13 22.95 25.13 22.34 23.56 22.07L23.56 20.58C23.8019 20.7425 23.9537 21.009 23.97 21.3L26 21.3C25.9471 19.9738 24.8671 18.9202 23.54 18.9L23.54 18ZM21.56 21.74C21.3347 21.6388 21.1983 21.406 21.22 21.16 21.2226 20.9227 21.3524 20.7051 21.56 20.59L21.56 21.74ZM23.56 25.45 23.56 24.13C23.8461 24.189 24.0459 24.4484 24.03 24.74 24.0359 25.0513 23.8488 25.3338 23.56 25.45Z" fill="#7823DC"/></svg>