<svg width="36.5" height="36.5" viewBox="0 0 36.5 36.5" xmlns="http://www.w3.org/2000/svg" xmlns:xlink="http://www.w3.org/1999/xlink" overflow="hidden"><style>
.MsftOfcResponsive_Fill_7823dc {
 fill:#7823DC; 
}
</style>
<defs></defs><g><g><defs><path d="M0 36.5 36.5 36.5 36.5 0 0 0 0 36.5Z" id="SVGID_1_" class="MsftOfcResponsive_Fill_7823dc" fill="#7823DC"/></defs><clipPath id="SVGID_3_"><use width="100%" height="100%" xlink:href="#SVGID_1_"></use></clipPath><g class="st0" clip-path="url(#SVGID_3_)"><defs><path d="M0 36.5 36.5 36.5 36.5 0 0 0 0 36.5Z" id="SVGID_2_" class="MsftOfcResponsive_Fill_7823dc" fill="#7823DC"/></defs><clipPath id="SVGID_4_"><use width="100%" height="100%" xlink:href="#SVGID_2_"></use></clipPath><path d="M29 32C27.3 32 26 30.6 26 29 26 27.4 27.4 26 29 26 30.6 26 32 27.4 32 29 32 30.6 30.6 32 29 32ZM29 28.2C28.6 28.2 28.2 28.5 28.2 29 28.2 29.5 28.5 29.8 29 29.8 29.4 29.8 29.8 29.5 29.8 29 29.8 28.5 29.4 28.2 29 28.2Z" class="st1 MsftOfcResponsive_Fill_7823dc" fill="#7823DC" clip-path="url(#SVGID_4_)"/><path d="M8.2 32C6.5 32 5.2 30.6 5.2 29 5.2 27.4 6.6 26 8.2 26 9.8 26 11.2 27.4 11.2 29 11.2 30.6 9.9 32 8.2 32ZM8.2 28.2C7.8 28.2 7.4 28.5 7.4 29 7.4 29.5 7.7 29.8 8.2 29.8 8.7 29.8 9 29.4 9 29 9 28.6 8.6 28.2 8.2 28.2Z" class="st1 MsftOfcResponsive_Fill_7823dc" fill="#7823DC" clip-path="url(#SVGID_4_)"/><path d="M0 27.4 6.8 27.4 6.8 29.7 0 29.7 0 27.4Z" class="st1 MsftOfcResponsive_Fill_7823dc" fill="#7823DC" clip-path="url(#SVGID_4_)"/><path d="M29.8 27.4 36.5 27.4 36.5 29.7 29.8 29.7 29.8 27.4Z" class="st1 MsftOfcResponsive_Fill_7823dc" fill="#7823DC" clip-path="url(#SVGID_4_)"/><path d="M31.9 20.6 36.5 20.6 36.5 22.9 31.9 22.9 31.9 20.6Z" class="st1 MsftOfcResponsive_Fill_7823dc" fill="#7823DC" clip-path="url(#SVGID_4_)"/><path d="M9.5 27.4 27.4 27.4 27.4 29.7 9.5 29.7 9.5 27.4Z" class="st1 MsftOfcResponsive_Fill_7823dc" fill="#7823DC" clip-path="url(#SVGID_4_)"/><path d="M0 14.4 2.3 14.4 2.3 29 0 29 0 14.4Z" class="st1 MsftOfcResponsive_Fill_7823dc" fill="#7823DC" clip-path="url(#SVGID_4_)"/><path d="M31.9 12.1 0 12.1 0 14.4 34.2 14.4 34.2 29 36.5 29 36.5 16.6 31.9 12.1 31.9 12.1Z" class="st1 MsftOfcResponsive_Fill_7823dc" fill="#7823DC" clip-path="url(#SVGID_4_)"/><path d="M0.8 18.3 27.4 18.3 27.4 20.6 0.8 20.6 0.8 18.3Z" class="st1 MsftOfcResponsive_Fill_7823dc" fill="#7823DC" clip-path="url(#SVGID_4_)"/><path d="M27.4 18.3 29.6 18.3 29.6 27.4 27.4 27.4 27.4 18.3Z" class="st1 MsftOfcResponsive_Fill_7823dc" fill="#7823DC" clip-path="url(#SVGID_4_)"/></g></g></g></svg>