<svg viewBox="0 0 32 32" xmlns="http://www.w3.org/2000/svg" xmlns:xlink="http://www.w3.org/1999/xlink" id="Layer_5" overflow="hidden"><defs></defs><rect x="11.89" y="26.69" width="2" height="2" stroke-width="0" fill="#7823DC"/><rect x="15" y="26.69" width="2" height="2" stroke-width="0" fill="#7823DC"/><rect x="18.12" y="26.69" width="2" height="2" stroke-width="0" fill="#7823DC"/><path d="M7 0 7 18 14.99 18 14.99 13.52 17.01 13.52 17.01 18 25 18 25 0 7 0ZM23 16 19.01 16 19.01 11.52 12.99 11.52 12.99 16 9 16 9 2 23 2 23 16Z" stroke-width="0" fill="#7823DC"/><rect x="18.99" y="4" width="2" height="2" stroke-width="0" fill="#7823DC"/><rect x="14.99" y="4" width="2" height="2" stroke-width="0" fill="#7823DC"/><rect x="10.99" y="4" width="2" height="2" stroke-width="0" fill="#7823DC"/><rect x="18.99" y="8" width="2" height="2" stroke-width="0" fill="#7823DC"/><rect x="14.99" y="8" width="2" height="2" stroke-width="0" fill="#7823DC"/><rect x="10.99" y="8" width="2" height="2" stroke-width="0" fill="#7823DC"/><path d="M16.99 18 14.99 18 14.99 23.21 8.3 23.21 8.3 34.91 15.31 34.91 15.31 32.19 16.68 32.19 16.68 34.91 23.69 34.91 23.69 23.21 16.99 23.21 16.99 18ZM21.7 32.91 18.69 32.91 18.69 30.19 13.32 30.19 13.32 32.91 10.31 32.91 10.31 25.21 21.7 25.21 21.7 32.91Z" stroke-width="0" fill="#7823DC"/></svg>