<svg viewBox="0 0 32 32" xmlns="http://www.w3.org/2000/svg" xmlns:xlink="http://www.w3.org/1999/xlink" xml:space="preserve" overflow="hidden"><style>
.MsftOfcResponsive_Fill_7823dc {
 fill:#7823DC; 
}
</style>
<g id="Layer_3"></g><g id="Layer_1"><path d="M16 32C7.18 32 0 24.83 0 16 0 7.18 7.18 0 16 0 24.82 0 32 7.18 32 16 32 24.83 24.82 32 16 32ZM16 2.01C8.28 2.01 2 8.29 2 16.01 2 23.73 8.28 30.01 16 30.01 23.72 30.01 30 23.73 30 16.01 30 8.29 23.72 2.01 16 2.01Z" class="st1 MsftOfcResponsive_Fill_7823dc" fill="#7823DC"/></g><g id="Layer_2"><g><line x1="16" y1="26.04" x2="15.91" y2="11.03" class="st38" fill="#6C4EA0"/><rect x="14.95" y="11.03" width="2" height="15.01" class="st1 MsftOfcResponsive_Fill_7823dc" fill="#7823DC" transform="matrix(1 -0.00617915 0.00617915 1 -0.1142 0.0989)"/></g><g><rect x="14.91" y="5.28" width="2" height="2.88" class="st1 MsftOfcResponsive_Fill_7823dc" fill="#7823DC"/></g></g></svg>