<svg width="36.5" height="36.5" viewBox="0 0 36.5 36.5" xmlns="http://www.w3.org/2000/svg" xmlns:xlink="http://www.w3.org/1999/xlink" overflow="hidden"><defs></defs><g><g><defs><path d="M0 36.5 36.5 36.5 36.5 0 0 0 0 36.5Z" id="SVGID_1_" fill="#7823DC"/></defs><clipPath id="SVGID_2_"><use width="100%" height="100%" xlink:href="#SVGID_1_"></use></clipPath><g clip-path="url(#SVGID_2_)"><defs><path d="M0 36.5 36.5 36.5 36.5 0 0 0 0 36.5Z" id="SVGID_3_" fill="#7823DC"/></defs><clipPath id="SVGID_4_"><use width="100%" height="100%" xlink:href="#SVGID_3_"></use></clipPath><path d="M27.4 20.1 34.2 17 29.5 6.3 13.6 13.7 4.6 13.7 2.3 16 2.3 29.7 6.9 34.3 27.4 34.3 27.4 27.4 29.7 27.4 29.7 22.8 27.4 22.8 27.4 20.1 27.4 20.1ZM25.1 18.6 25.1 22.8 22.8 22.8 22.8 27.4 25.1 27.4 25.1 32 4.6 32 4.6 18.3 25.1 18.3 25.1 18.6 25.1 18.6ZM14.1 15.9 28.3 9.3 31.2 15.9 27.4 17.6 27.4 15.9 14.1 15.9 14.1 15.9Z" fill="#7823DC" clip-path="url(#SVGID_4_)"/><path d="M20.7 5.6 24.2 8.9 23.6 9.6 27.3 8.7 20.6 2.3 7.3 16.4 10.1 16.7 20.7 5.6 20.7 5.6Z" fill="#7823DC" clip-path="url(#SVGID_4_)"/></g></g></g></svg>