<svg viewBox="0 0 31.94 32.01" xmlns="http://www.w3.org/2000/svg" xmlns:xlink="http://www.w3.org/1999/xlink" id="Layer_1" overflow="hidden"><style>
.MsftOfcThm_Text2_Fill_v2 {
 fill:#7823DC; 
}
</style>
<path d="M3.99 32.01C2.93 32.01 1.92 31.6 1.17 30.84 0.42 30.09 4.44089e-16 29.09 4.44089e-16 28.02 4.44089e-16 26.95 0.41 25.95 1.17 25.2 2.67 23.7 5.3 23.69 6.81 25.2 7.56 25.95 7.98 26.96 7.98 28.02 7.98 29.08 7.57 30.09 6.81 30.84 6.06 31.59 5.05 32.01 3.99 32.01ZM3.99 26.03C3.46 26.03 2.96 26.24 2.58 26.61 2.2 26.98 2 27.48 2 28.02 2 28.56 2.21 29.05 2.58 29.43 3.33 30.18 4.64 30.18 5.39 29.43 5.77 29.05 5.97 28.56 5.97 28.03 5.97 27.5 5.76 27 5.39 26.62 5.02 26.24 4.52 26.04 3.99 26.04Z" class="MsftOfcThm_Text2_Fill_v2" fill="#7823DC"/><path d="M20 32.01 12 32.01 12 24.01 20 24.01 20 32.01ZM14 30.01 18 30.01 18 26.01 14 26.01 14 30.01Z" class="MsftOfcThm_Text2_Fill_v2" fill="#7823DC"/><path d="M31.94 32.01 23.12 32.01 27.53 23.92 31.94 32.01ZM26.49 30.01 28.58 30.01 27.54 28.1 26.5 30.01Z" class="MsftOfcThm_Text2_Fill_v2" fill="#7823DC"/><path d="M19 15.01 13 15.01 13 11.2C12.26 10.77 11.62 10.19 11.12 9.5 10.49 8.62 10.11 7.59 10.02 6.51 9.93 5.43 10.13 4.35 10.61 3.38 11.08 2.41 11.81 1.58 12.72 0.99 13.62 0.39 14.67 0.05 15.75 0 16.83-0.05 17.9 0.2 18.86 0.72 19.81 1.24 20.61 2 21.16 2.93 21.71 3.86 22 4.92 22 6.01 22 7.18 21.66 8.31 21.02 9.29 20.5 10.08 19.81 10.73 19 11.2L19 15.01ZM15 13.01 17 13.01 17 9.93 17.6 9.67C18.31 9.36 18.92 8.85 19.34 8.2 19.77 7.55 19.99 6.79 20 6.01L20 6.01C20 5.29 19.81 4.58 19.44 3.96 19.07 3.34 18.54 2.83 17.91 2.49 17.28 2.15 16.56 1.99 15.84 2.01 15.12 2.04 14.42 2.26 13.82 2.66 13.22 3.05 12.73 3.61 12.41 4.25 12.09 4.9 11.96 5.62 12.02 6.34 12.08 7.06 12.33 7.75 12.75 8.33 13.17 8.92 13.74 9.38 14.4 9.67L15 9.93 15 13.01Z" class="MsftOfcThm_Text2_Fill_v2" fill="#7823DC"/><path d="M29 21.54 27 21.54 27 19.21 5 19.21 5 21.54 3 21.54 3 17.21 29 17.21 29 21.54Z" class="MsftOfcThm_Text2_Fill_v2" fill="#7823DC"/><rect x="1.96" y="6.51" width="4.06" height="2" class="MsftOfcThm_Text2_Fill_v2" fill="#7823DC"/><rect x="5.03" y="0.41" width="2" height="4.06" class="MsftOfcThm_Text2_Fill_v2" fill="#7823DC" transform="matrix(0.707107 -0.707107 0.707107 0.707107 0.04 4.98)"/><rect x="4" y="11.57" width="4.06" height="2" class="MsftOfcThm_Text2_Fill_v2" fill="#7823DC" transform="matrix(0.707107 -0.707107 0.707107 0.707107 -7.12 7.95)"/><g><rect x="25.95" y="6.51" width="4.06" height="2" class="MsftOfcThm_Text2_Fill_v2" fill="#7823DC"/><rect x="23.9" y="1.45" width="4.06" height="2" class="MsftOfcThm_Text2_Fill_v2" fill="#7823DC" transform="matrix(0.707107 -0.707107 0.707107 0.707107 5.87 19.05)"/><rect x="24.93" y="10.54" width="2" height="4.06" class="MsftOfcThm_Text2_Fill_v2" fill="#7823DC" transform="matrix(0.707107 -0.707107 0.707107 0.707107 -1.3 22.02)"/></g><rect x="15" y="14.01" width="2" height="7.53" class="MsftOfcThm_Text2_Fill_v2" fill="#7823DC"/></svg>