<svg viewBox="0 0 32 32" xmlns="http://www.w3.org/2000/svg" xmlns:xlink="http://www.w3.org/1999/xlink" id="Layer_1" xml:space="preserve" overflow="hidden"><path d="" stroke="#7823DC" stroke-width="2" stroke-miterlimit="10" fill="none"/><path d="" stroke="#7823DC" stroke-width="2" stroke-linecap="square" stroke-miterlimit="10" fill="none"/><g><g><path d="" stroke="#7823DC" stroke-width="2" stroke-miterlimit="10" fill="none"/><path d="M25 16.4 20.4 14.2 16.3 7.6 16.4 2.5 20.6 0 25.9 1.7 30 8.4 29.1 13.9 25 16.4ZM21.8 12.7 24.9 14.2 27.3 12.7 27.9 8.9 24.5 3.4 20.8 2.2 18.4 3.7 18.3 7.1 21.8 12.7Z" fill="#7823DC"/><path d="M28.2 14.1 24.3 11.8 20.3 5.3 20 0.8 22 0.6 22.2 4.6 25.7 10.3 29.2 12.3Z" fill="#7823DC"/><rect x="16.7" y="4.9" width="5.8" height="2" fill="#7823DC" transform="matrix(0.8522 -0.5232 0.5232 0.8522 -0.2026 11.1193)"/><rect x="20.5" y="11" width="5.8" height="2" fill="#7823DC" transform="matrix(0.8523 -0.523 0.523 0.8523 -2.8199 13.9939)"/></g><path d="M4.7 24.8 0.2 22.4 0.1 17.3 17.9 6.3 22.5 13.8 4.7 24.8ZM2.1 21.2 4.6 22.5 19.8 13.2 17.3 9.1 2.1 18.4 2.1 21.2Z" fill="#7823DC"/><path d="" stroke="#7823DC" stroke-width="2" stroke-linecap="square" stroke-miterlimit="10" fill="none"/><rect x="3.9" y="15.4" width="2" height="7.7" fill="#7823DC"/><path d="M8 13.5 10 12.5 10 20.3 8 21.3Z" fill="#7823DC"/><path d="M11.9 10.2 13.9 10.2 13.9 17.9 11.9 18.9Z" fill="#7823DC"/><path d="M15.9 7.8 17.9 7.8 17.9 15.7 15.9 16.7Z" fill="#7823DC"/></g><g><g><path d="M26.7 32 17.1 32 11.8 29 11.8 23.7 17 19.8 26.8 19.8 32 23.7 32 29 26.7 32ZM17.6 30 26.2 30 30 27.9 30 24.7 26.1 21.8 17.7 21.8 13.8 24.7 13.8 27.9 17.6 30Z" fill="#7823DC"/><path d="M26.5 26.9 17 26.9 12.2 24.7 13.1 22.9 17.4 24.9 26.1 24.9 30.4 22.9 31.2 24.7Z" fill="#7823DC"/><g><rect x="25.1" y="24.9" width="2" height="6.3" fill="#7823DC"/><rect x="16.7" y="25.5" width="2" height="5.4" fill="#7823DC"/></g></g></g></svg>