<svg viewBox="0 0 32.01 31.99" xmlns="http://www.w3.org/2000/svg" xmlns:xlink="http://www.w3.org/1999/xlink" id="Layer_1" overflow="hidden"><style>
.MsftOfcResponsive_Fill_7823dc {
 fill:#7823DC; 
}
</style>
<defs></defs><path d="M12.16 26.99 4.29 26.99C2.92 26.99 1.61 26.32 0.8 25.19 0 24.07-0.22 22.67 0.22 21.37 1.82 15.86 7.07 11.99 12.97 11.99L14.89 11.99C16.8 11.99 18.36 13.25 18.79 14.99L25.98 14.99C27.64 14.99 29 16.34 29 17.99 29 19.64 27.65 20.99 25.98 20.99L20.53 20.99C18.74 20.99 17.21 22.1 16.64 23.81 16 25.71 14.2 26.99 12.16 26.99ZM12.97 13.99C7.95 13.99 3.49 17.27 2.13 21.97 1.89 22.69 2 23.43 2.44 24.03 2.88 24.64 3.56 25 4.3 25L12.17 25C13.35 25 14.39 24.27 14.75 23.18 15.59 20.68 17.92 19 20.54 19L25.99 19C26.55 19 27.01 18.55 27.01 18 27.01 17.45 26.55 17 25.99 17L16.92 17 16.92 16C16.92 14.86 16.05 14 14.89 14L12.97 14Z" class="MsftOfcResponsive_Fill_7823dc" fill="#7823DC"/><path d="M26 23.99C23.62 23.99 21.46 22.58 20.49 20.4L22.32 19.59C22.97 21.05 24.42 22 26.01 22 28.25 22 30.01 20.24 30.01 18 30.01 15.76 28.25 14 26.01 14 24.37 14 22.99 14.9 22.32 16.41L20.49 15.6C21.47 13.38 23.59 12.01 26 12.01 29.36 12.01 32 14.65 32 18.01 32 21.37 29.36 24.01 26 24.01Z" class="MsftOfcResponsive_Fill_7823dc" fill="#7823DC"/><rect x="15.01" y="0" width="2" height="12.99" class="MsftOfcResponsive_Fill_7823dc" fill="#7823DC"/><rect x="4.01" y="2" width="24" height="2" class="MsftOfcResponsive_Fill_7823dc" fill="#7823DC"/><rect x="0" y="6" width="32" height="2" class="MsftOfcResponsive_Fill_7823dc" fill="#7823DC"/><path d="M8.5 22.99 1.2 22.99 1.2 20.99 8.5 20.99C9.85 20.99 11 19.84 11 18.49 11 17.14 9.85 15.99 8.5 15.99L6.4 15.99 6.4 13.99 8.5 13.99C10.94 13.99 13 16.05 13 18.49 13 20.93 10.94 22.99 8.5 22.99Z" class="MsftOfcResponsive_Fill_7823dc" fill="#7823DC"/><path d="M24.01 31.99 4.28 31.99C2.54 31.99 0.83 30.97 0.04 29.45L1.81 28.52C2.26 29.38 3.28 29.98 4.28 29.98L24.01 29.98 24.01 31.98Z" class="MsftOfcResponsive_Fill_7823dc" fill="#7823DC"/><rect x="4.59" y="27.49" width="5.83" height="2" class="MsftOfcResponsive_Fill_7823dc" fill="#7823DC" transform="matrix(0.514589 -0.857437 0.857437 0.514589 -20.79 20.26)"/><rect x="16" y="24.39" width="2" height="7.21" class="MsftOfcResponsive_Fill_7823dc" fill="#7823DC" transform="matrix(0.832051 -0.554699 0.554699 0.832051 -12.67 14.13)"/></svg>