<svg viewBox="0 0 32 32" xmlns="http://www.w3.org/2000/svg" xmlns:xlink="http://www.w3.org/1999/xlink" overflow="hidden"><defs></defs><g id="Layer_3"><path d="M13.7246 2.02325C14.2769 2.02325 14.7246 2.47097 14.7246 3.02325 14.7246 3.57553 14.2769 4.02325 13.7246 4.02325 13.1723 4.02325 12.7246 3.57553 12.7246 3.02325 12.7246 2.47097 13.1723 2.02325 13.7246 2.02325M13.7246 0.02325C12.0678 0.02325 10.7246 1.3664 10.7246 3.02325 10.7246 4.6801 12.0678 6.02325 13.7246 6.02325 15.3815 6.02325 16.7246 4.6801 16.7246 3.02325 16.7227 1.36717 15.3807 0.0251238 13.7246 0.0232501Z" fill="#7823DC"/><path d="M23.856 23.52 20.145 17.023 10.607 17.023 11.607 8.023 11.139 8.023 4.432 14.73 3.018 13.316 10.311 6.023 13.842 6.023 12.842 15.023 21.305 15.023 25.593 22.527 23.856 23.52Z" fill="#7823DC"/><path d="M15.461 31.897 13.631 31.091 17.62 22.05 14.75 16.312 13.607 6.023 18.139 6.023 21.359 9.244 22.796 5.652 24.653 6.395 22.09 12.803 17.311 8.023 15.842 8.023 16.699 15.735 19.829 21.997 15.461 31.897Z" fill="#7823DC"/></g></svg>