<svg viewBox="0 0 32 32" xmlns="http://www.w3.org/2000/svg" xmlns:xlink="http://www.w3.org/1999/xlink" id="Layer_1" overflow="hidden"><style>
.MsftOfcResponsive_Fill_7823dc {
 fill:#7823DC; 
}
</style>
<defs></defs><path d="M18.56 2.6C18.56 4.04 17.39 5.2 15.96 5.2 14.53 5.2 13.36 4.04 13.36 2.6 13.36 1.16 14.53 0 15.96 0 17.39 0 18.56 1.16 18.56 2.6L18.56 2.6Z" class="MsftOfcResponsive_Fill_7823dc" fill="#7823DC"/><rect x="4" y="18" width="25" height="2" class="MsftOfcResponsive_Fill_7823dc" fill="#7823DC"/><path d="M11.74 5.9 8.22 10.15 4.06 6 2.65 7.42 6.94 11.7 6.94 11.7 8.39 13.1 9.63 11.6 9.87 11.32 12.74 7.9 13.14 7.9 12.49 13.75 12.44 14.2 12.14 16.7 12.12 16.9 10.44 32 12.44 32 15.35 5.9 11.74 5.9Z" class="MsftOfcResponsive_Fill_7823dc" fill="#7823DC"/><path d="M20.26 5.9 23.79 10.15 27.94 6 29.35 7.42 25.07 11.7 25.07 11.7 23.61 13.1 22.37 11.6 22.13 11.32 19.26 7.9 18.86 7.9 19.51 13.75 19.56 14.2 19.86 16.7 19.88 16.9 21.56 32 19.56 32 16.65 5.9 20.26 5.9Z" class="MsftOfcResponsive_Fill_7823dc" fill="#7823DC"/><path d="M4 22 0 32 0 16 4 16 4 22Z" class="MsftOfcResponsive_Fill_7823dc" fill="#7823DC"/><rect x="0" y="20.33" width="2" height="11.67" class="MsftOfcResponsive_Fill_7823dc" fill="#7823DC"/><rect x="30" y="20.71" width="2" height="11.29" class="MsftOfcResponsive_Fill_7823dc" fill="#7823DC"/><path d="M32 32 28 22 28 16 32 16 32 32Z" class="MsftOfcResponsive_Fill_7823dc" fill="#7823DC"/></svg>