<svg viewBox="0 0 32 32" xmlns="http://www.w3.org/2000/svg" xmlns:xlink="http://www.w3.org/1999/xlink" id="Graphic" overflow="hidden"><defs></defs><path d="M30.12 14 32 9 30.12 4 19 4 19 3C19 1.34315 17.6569 0 16 0 14.3431 -4.44089e-16 13 1.34315 13 3L13 4 2 4 2 14 13 14 13 15.27 1.87 15.27 0 20.29 1.85 25.29 13 25.29 13 32 19 32 19 25.29 30 25.29 30 15.29 19 15.29 19 14ZM15 3C15 2.44772 15.4477 2 16 2 16.5523 2 17 2.44772 17 3L17 4 15 4ZM4 12 4 6 28.73 6 29.85 9 28.73 12 4 12ZM15 14 17 14 17 15.27 15 15.27ZM17 30 15 30 15 26.29 17 26.29ZM28 23.29 3.26 23.29 2.15 20.29 3.26 17.29 28 17.29Z" fill="#7823DC"/></svg>