<svg viewBox="0 0 32 32" xmlns="http://www.w3.org/2000/svg" xmlns:xlink="http://www.w3.org/1999/xlink" id="Layer_1" overflow="hidden"><style>
.MsftOfcResponsive_Fill_7823dc {
 fill:#7823DC; 
}
</style>
<path d="M16.6 2C17.6 2 18.5 2.6 18.5 3.3L17.4 15 14.5 15 13.5 3.3C13.5 2.6 14.4 2 15.4 2L16.6 2M16.6 0 15.5 0C13.3 0 11.6 1.5 11.6 3.4L12.6 17 19.1 17 20.4 3.4C20.5 1.5 18.7 0 16.6 0L16.6 0Z" class="MsftOfcResponsive_Fill_7823dc" fill="#7823DC"/><path d="M30 17.1 30 19 2 19 2 17.1 30 17.1M30 15.1 2 15.1C0.9 15.1 0 16 0 17.1L0 21 32 21 32 17.1C32 16 31.1 15.1 30 15.1L30 15.1Z" class="MsftOfcResponsive_Fill_7823dc" fill="#7823DC"/><path d="M32 32 25.2 32 25.1 30.8 24.6 32 18.3 32 17.3 29.3 16.8 32 8.4 32 7.3 29.1 6.7 32 0 32 0 20 2 20 2 30 5 30 6.8 21.9 9.8 30 15.1 30 16.7 21.7 19.7 30 23.3 30 26.9 22 27.1 30 30 30 30 20 32 20Z" class="MsftOfcResponsive_Fill_7823dc" fill="#7823DC"/></svg>