<svg viewBox="0 0 32 32" xmlns="http://www.w3.org/2000/svg" xmlns:xlink="http://www.w3.org/1999/xlink" id="Layer_1" overflow="hidden"><style>
.MsftOfcResponsive_Fill_7823dc {
 fill:#7823DC; 
}
</style>
<defs></defs><path d="M15.3 4.06 14.49 3.25C13.59 2.35 12.72 2.02 11.24 2.03L11.24 0C13.27 0 14.43 0.37 15.69 1.62L20.9 6.82C20.78 6.88 20.66 6.95 20.57 7.01 20.27 7.2 20.08 7.3 19.64 7.3 19.2 7.3 19.01 7.19 18.71 7.01 18.34 6.79 17.84 6.49 16.94 6.49 16.04 6.49 15.54 6.79 15.16 7.01 14.86 7.2 14.68 7.3 14.23 7.3 13.78 7.3 13.6 7.19 13.3 7.01 13.13 6.91 12.93 6.79 12.67 6.69L15.31 4.05Z" class="MsftOfcResponsive_Fill_7823dc" fill="#7823DC" fill-rule="evenodd"/><path d="M5.37 7.31C4.49 7.31 4.12 7.44 3.53 7.67 2.78 7.94 1.78 8.31 0.01 8.31L0.01 6.31C0.91 6.31 1.26 6.18 1.85 5.95 2.57 5.68 3.56 5.31 5.34 5.31 7.12 5.31 8.11 5.68 8.83 5.95 9.42 6.17 9.79 6.31 10.67 6.31 11.55 6.31 11.92 6.18 12.51 5.95 13.23 5.68 14.22 5.31 16 5.31 17.78 5.31 18.77 5.68 19.49 5.95 20.08 6.17 20.45 6.31 21.33 6.31 22.21 6.31 22.58 6.18 23.17 5.95 23.89 5.68 24.88 5.31 26.66 5.31 28.44 5.31 29.43 5.68 30.15 5.95 30.74 6.17 31.11 6.31 31.99 6.31L31.99 8.31C30.23 8.3 29.25 7.94 28.53 7.67 27.94 7.45 27.57 7.31 26.69 7.31 25.81 7.31 25.44 7.44 24.85 7.67 24.13 7.94 23.14 8.31 21.36 8.31 19.58 8.31 18.59 7.94 17.87 7.67 17.28 7.45 16.91 7.31 16.03 7.31 15.15 7.31 14.78 7.44 14.19 7.67 13.47 7.94 12.48 8.31 10.7 8.31 8.92 8.31 7.93 7.94 7.21 7.67 6.62 7.45 6.25 7.31 5.37 7.31Z" class="MsftOfcResponsive_Fill_7823dc" fill="#7823DC" fill-rule="evenodd"/><path d="M26.67 21.11C28.45 21.11 29.44 21.48 30.16 21.75 30.75 21.98 31.1 22.11 32 22.11L32 24.11C30.22 24.11 29.23 23.74 28.51 23.47 27.92 23.25 27.55 23.11 26.67 23.11 25.79 23.11 25.42 23.24 24.83 23.47 24.09 23.74 23.12 24.11 21.34 24.11 19.56 24.11 18.57 23.74 17.85 23.47 17.26 23.25 16.89 23.11 16.01 23.11 15.13 23.11 14.76 23.24 14.17 23.47 13.43 23.74 12.44 24.11 10.67 24.11 8.9 24.11 7.9 23.74 7.18 23.47 6.59 23.24 6.22 23.11 5.34 23.11 4.46 23.11 4.09 23.24 3.5 23.47 2.76 23.74 1.77 24.11 1.77636e-15 24.11L1.77636e-15 22.11C0.9 22.11 1.25 21.98 1.84 21.75 2.58 21.48 3.57 21.11 5.34 21.11 7.11 21.11 8.11 21.48 8.83 21.75 9.42 21.98 9.77 22.11 10.67 22.11 11.57 22.11 11.92 21.98 12.51 21.75 13.25 21.48 14.24 21.11 16.01 21.11 17.78 21.11 18.78 21.48 19.5 21.75 20.09 21.97 20.46 22.11 21.34 22.11 22.22 22.11 22.59 21.98 23.18 21.75 23.9 21.48 24.89 21.11 26.67 21.11Z" class="MsftOfcResponsive_Fill_7823dc" fill="#7823DC" fill-rule="evenodd"/><path d="M26.67 13.21C28.45 13.21 29.44 13.58 30.16 13.85 30.75 14.08 31.1 14.21 32 14.21L32 16.21C30.22 16.21 29.23 15.84 28.51 15.57 27.92 15.35 27.55 15.21 26.67 15.21 25.79 15.21 25.42 15.34 24.83 15.57 24.09 15.84 23.12 16.21 21.34 16.21 19.56 16.21 18.57 15.84 17.85 15.57 17.26 15.35 16.89 15.21 16.01 15.21 15.13 15.21 14.76 15.34 14.17 15.57 13.43 15.84 12.44 16.21 10.67 16.21 8.9 16.21 7.9 15.84 7.18 15.57 6.59 15.34 6.22 15.21 5.34 15.21 4.46 15.21 4.09 15.34 3.5 15.57 2.76 15.84 1.77 16.21 1.77636e-15 16.21L1.77636e-15 14.21C0.9 14.21 1.25 14.08 1.84 13.85 2.58 13.58 3.57 13.21 5.34 13.21 7.11 13.21 8.11 13.58 8.83 13.85 9.42 14.08 9.77 14.21 10.67 14.21 11.57 14.21 11.92 14.08 12.51 13.85 13.25 13.58 14.24 13.21 16.01 13.21 17.78 13.21 18.78 13.58 19.5 13.85 20.09 14.07 20.46 14.21 21.34 14.21 22.22 14.21 22.59 14.08 23.18 13.85 23.9 13.58 24.89 13.21 26.67 13.21Z" class="MsftOfcResponsive_Fill_7823dc" fill="#7823DC" fill-rule="evenodd"/><path d="M26.67 29C28.45 29 29.44 29.37 30.16 29.64 30.75 29.87 31.1 30 32 30L32 32C30.22 32 29.23 31.63 28.51 31.36 27.92 31.14 27.55 31 26.67 31 25.79 31 25.42 31.13 24.83 31.36 24.09 31.63 23.12 32 21.34 32 19.56 32 18.57 31.63 17.85 31.36 17.26 31.14 16.89 31 16.01 31 15.13 31 14.76 31.13 14.17 31.36 13.43 31.63 12.44 32 10.67 32 8.9 32 7.9 31.63 7.18 31.36 6.59 31.13 6.22 31 5.34 31 4.46 31 4.09 31.13 3.5 31.36 2.76 31.63 1.77 32 1.77636e-15 32L1.77636e-15 30C0.9 30 1.25 29.87 1.84 29.64 2.58 29.37 3.57 29 5.34 29 7.11 29 8.11 29.37 8.83 29.64 9.42 29.87 9.77 30 10.67 30 11.57 30 11.92 29.87 12.51 29.64 13.25 29.37 14.24 29 16.01 29 17.78 29 18.78 29.37 19.5 29.64 20.09 29.86 20.46 30 21.34 30 22.22 30 22.59 29.87 23.18 29.64 23.9 29.37 24.89 29 26.67 29Z" class="MsftOfcResponsive_Fill_7823dc" fill="#7823DC" fill-rule="evenodd"/><circle cx="20.01" cy="2.01" r="2.01" class="MsftOfcResponsive_Fill_7823dc" fill="#7823DC"/><path d="M19.8 20.27 18.99 19.46C18.09 18.56 17.22 18.23 15.74 18.24L15.74 16.21C17.77 16.21 18.93 16.58 20.19 17.83L25.4 23.03C25.28 23.09 25.16 23.16 25.07 23.22 24.77 23.41 24.58 23.51 24.14 23.51 23.7 23.51 23.51 23.4 23.21 23.22 22.84 23 22.34 22.7 21.44 22.7 20.54 22.7 20.04 23 19.66 23.22 19.36 23.41 19.18 23.51 18.73 23.51 18.28 23.51 18.1 23.4 17.8 23.22 17.63 23.12 17.43 23 17.17 22.9L19.81 20.26Z" class="MsftOfcResponsive_Fill_7823dc" fill="#7823DC" fill-rule="evenodd"/><circle cx="24.51" cy="18.22" r="2.01" class="MsftOfcResponsive_Fill_7823dc" fill="#7823DC"/><path d="M9.02 12.41 8.21 11.6C7.31 10.7 6.44 10.37 4.96 10.38L4.96 8.35C6.99 8.35 8.15 8.72 9.41 9.97L14.62 15.17C14.5 15.23 14.38 15.3 14.29 15.36 13.99 15.55 13.8 15.65 13.36 15.65 12.92 15.65 12.73 15.54 12.43 15.36 12.06 15.14 11.56 14.84 10.66 14.84 9.76 14.84 9.26 15.14 8.88 15.36 8.58 15.55 8.4 15.65 7.95 15.65 7.5 15.65 7.32 15.54 7.02 15.36 6.85 15.26 6.65 15.14 6.39 15.04L9.03 12.4Z" class="MsftOfcResponsive_Fill_7823dc" fill="#7823DC" fill-rule="evenodd"/><circle cx="13.73" cy="10.35" r="2.01" class="MsftOfcResponsive_Fill_7823dc" fill="#7823DC"/><path d="M9.02 28.17 8.21 27.36C7.31 26.46 6.44 26.13 4.96 26.14L4.96 24.11C6.99 24.11 8.15 24.48 9.41 25.73L14.62 30.93C14.5 30.99 14.38 31.06 14.29 31.12 13.99 31.31 13.8 31.41 13.36 31.41 12.92 31.41 12.73 31.3 12.43 31.12 12.06 30.9 11.56 30.6 10.66 30.6 9.76 30.6 9.26 30.9 8.88 31.12 8.58 31.31 8.4 31.41 7.95 31.41 7.5 31.41 7.32 31.3 7.02 31.12 6.85 31.02 6.65 30.9 6.39 30.8L9.03 28.16Z" class="MsftOfcResponsive_Fill_7823dc" fill="#7823DC" fill-rule="evenodd"/><circle cx="13.73" cy="26.12" r="2.01" class="MsftOfcResponsive_Fill_7823dc" fill="#7823DC"/></svg>