<svg width="32.1" height="32.7" viewBox="0 0 32.1 32.7" xmlns="http://www.w3.org/2000/svg" xmlns:xlink="http://www.w3.org/1999/xlink" overflow="visible"><defs></defs><g><path d="M21.6 16.8 30.7 6.3 25.6 1.7 16.5 12.2 21.6 16.8 21.6 16.8ZM28.3 6.5 21.4 14.4 18.8 12.1 25.7 4.2 28.3 6.5 28.3 6.5Z" fill="#7823DC"/><path d="M21.6 17 21.6 17 16.3 12.2 16.4 12.1 25.6 1.5 25.7 1.6 30.9 6.3 30.8 6.4 21.6 17ZM16.7 12.2 21.7 16.6 30.6 6.3 25.6 1.9 16.7 12.2ZM21.5 14.6 18.7 12.1 18.8 12 25.7 4 28.5 6.5 28.4 6.6 21.5 14.6ZM19.1 12.1 21.5 14.2 28.2 6.5 25.8 4.4 19.1 12.1Z" fill="#7823DC"/></g><g><path d="M29 7.1 32 3.7 28.2 0.2 25.2 3.7 29 7.1 29 7.1ZM29.5 3.8 28.8 4.6 27.5 3.5 28.2 2.7 29.5 3.8 29.5 3.8Z" fill="#7823DC"/><path d="M29 7.3 25 3.7 28.1 0 28.2 0.1 32.1 3.7 29 7.3ZM25.3 3.6 29 6.9 31.8 3.7 28.2 0.4 25.3 3.6ZM28.8 4.8 27.3 3.5 28.2 2.5 29.7 3.8 28.8 4.8ZM27.7 3.5 28.8 4.5 29.3 3.9 28.2 2.9 27.7 3.5Z" fill="#7823DC"/></g><g><path d="M21.9 21.9 13.4 21.9 13.4 23.7 21.9 23.7 21.9 21.9Z" fill="#7823DC"/><path d="M22.1 23.8 13.3 23.8 13.3 21.8 22.1 21.8 22.1 23.8ZM13.5 23.6 21.8 23.6 21.8 22.1 13.5 22.1 13.5 23.6Z" fill="#7823DC"/></g><g><path d="M30.2 30.2 13.1 30.2 13.1 31.9 30.2 31.9 30.2 30.2Z" fill="#7823DC"/><path d="M30.3 32 12.9 32 12.9 30 30.3 30 30.3 32ZM13.2 31.8 30.1 31.8 30.1 30.3 13.2 30.3 13.2 31.8Z" fill="#7823DC"/></g><g><path d="M22.6 31C27 31 30.6 25.8 30.6 19.3 30.6 15.7 29.4 12.3 27.5 10L26.7 11.5C28.4 13.3 29.3 16.2 29.3 19.2 29.4 24.6 26.4 29 22.7 29.1 19.9 29.2 17.3 26.6 16.3 22.8L15.1 23.5C16.3 28.1 19.3 31 22.6 31L22.6 31Z" fill="#7823DC"/><path d="M22.6 31.4C22.6 31.4 22.6 31.4 22.6 31.4L22.6 31.4C19.1 31.4 16 28.4 14.7 23.7L14.6 23.4 16.5 22.3 16.6 22.8C17.5 26.4 19.9 28.9 22.5 28.9 22.5 28.9 22.6 28.9 22.6 28.9 26.1 28.8 28.9 24.6 28.8 19.4 28.8 16.5 27.9 13.7 26.3 11.9L26.1 11.7 27.3 9.4 27.7 9.8C29.8 12.1 30.9 15.6 30.9 19.3 30.9 22.5 30 25.5 28.5 27.8 27 30.1 24.8 31.4 22.6 31.4ZM22.6 30.7C22.6 30.7 22.6 30.7 22.6 30.7 24.6 30.7 26.5 29.5 28 27.5 29.5 25.4 30.3 22.5 30.3 19.5 30.3 16.2 29.3 13 27.6 10.9L27.2 11.7C28.8 13.6 29.7 16.5 29.7 19.5 29.8 25.1 26.6 29.7 22.8 29.7 19.9 29.8 17.3 27.3 16.2 23.5L15.6 23.8C16.7 28 19.5 30.7 22.6 30.7L22.6 30.7Z" fill="#7823DC"/></g><g id="Layer_3_1_"><rect x="1.2" y="15" width="10" height="2" fill="#7823DC"/><rect x="1.7" y="18.7" width="9" height="2" fill="#7823DC"/><rect x="1.4" y="11.4" width="9.6" height="2" fill="#7823DC"/><rect x="1.2" y="28.1" width="10" height="2" fill="#7823DC"/><rect x="1.2" y="1.8" width="10" height="2" fill="#7823DC"/></g><g id="Layer_2_1_"><path d="M7.8 7.8C7.6 8 7.3 8.2 7.1 8.4 6.8 8.6 6.5 8.9 6.2 9.1 4.1 10.9 2.2 12.7 2 15.2 2 15.5 2 15.7 2 16 2 16.3 2 16.5 2.1 16.8L2 16.8 0.1 17.1C0.1 16.8 0 16.5 0 16.1-0.2 12.4 2.2 9.9 4.6 7.8 5 7.5 5.4 7.2 5.8 6.8 6 6.7 6.1 6.6 6.2 6.5 8.6 4.5 10.7 2.7 10.4 0L12.4 0C12.7 3.5 10.2 5.8 7.8 7.8Z" fill="#7823DC"/><g><path d="M12.4 32 10.4 32C10.6 29.4 8.6 27.6 6.2 25.6 6.1 25.5 5.9 25.4 5.8 25.3 5.4 25 5 24.7 4.6 24.3 2.1 22.2-0.2 19.8 0 16.1 0 15.7 0.1 15.3 0.1 14.9L2 15.2 2.1 15.2C2.1 15.5 2 15.8 2 16L2 16C2 16.3 2 16.5 2 16.8 2.2 19.3 4.1 21.1 6.2 22.9 6.5 23.1 6.8 23.4 7.1 23.6 7.3 23.8 7.6 24 7.8 24.2 10.2 26.3 12.7 28.6 12.4 32Z" fill="#7823DC"/><path d="M12.4 16.1C12.4 16.5 12.3 16.9 12.3 17.3L10.4 17 10.3 17C10.3 16.7 10.4 16.4 10.4 16.2 10.4 15.9 10.4 15.6 10.4 15.4 10.2 12.9 8.3 11.1 6.2 9.3 5.9 8.9 5.7 8.6 5.4 8.4 5.1 8.2 4.9 8 4.7 7.8 2.2 5.8-0.2 3.5 0.1 0L2.1 0C1.8 2.7 3.8 4.5 6.2 6.5 6.3 6.6 6.5 6.7 6.6 6.8 7 7.1 7.4 7.4 7.8 7.8 10.3 9.9 12.6 12.4 12.4 16.1Z" fill="#7823DC"/></g><path d="M7.8 24.3C7.4 24.6 7 25 6.6 25.3 6.5 25.4 6.3 25.5 6.2 25.6 3.8 27.6 1.8 29.4 2 32L0 32C-0.2 28.6 2.2 26.3 4.6 24.3 4.8 24.1 5.1 23.9 5.3 23.7 5.6 23.5 5.9 23.2 6.2 23 8.3 21.2 10.2 19.4 10.4 16.9 10.4 16.6 10.4 16.4 10.4 16.1L10.4 16.1C10.4 15.8 10.4 15.6 10.3 15.3L10.4 15.3 12.3 15C12.4 15.4 12.4 15.8 12.4 16.2 12.6 19.8 10.3 22.2 7.8 24.3Z" fill="#7823DC"/><path d="" stroke="#231F20" stroke-width="2" stroke-miterlimit="10" fill="#7823DC"/></g></svg>