<svg width="36.5" height="36.5" viewBox="0 0 36.5 36.5" xmlns="http://www.w3.org/2000/svg" xmlns:xlink="http://www.w3.org/1999/xlink" overflow="hidden"><defs></defs><g><g><defs><path d="M0 36.5 36.5 36.5 36.5 0 0 0 0 36.5Z" id="SVGID_1_" fill="#7823DC"/></defs><clipPath id="SVGID_2_"><use width="100%" height="100%" xlink:href="#SVGID_1_"></use></clipPath><g clip-path="url(#SVGID_2_)"><defs><path d="M0 36.5 36.5 36.5 36.5 0 0 0 0 36.5Z" id="SVGID_3_" fill="#7823DC"/></defs><clipPath id="SVGID_4_"><use width="100%" height="100%" xlink:href="#SVGID_3_"></use></clipPath><path d="M29 2.3 33.6 21.7 2.9 21.7 7.5 2.3 29 2.3M30.8 0 5.7 0 0 24 36.5 24 30.8 0 30.8 0 30.8 0Z" fill="#7823DC" clip-path="url(#SVGID_4_)"/><rect x="17.1" y="2.2" width="2.3" height="20.6" fill="#7823DC" clip-path="url(#SVGID_4_)"/><rect x="9.7" y="28" width="12.6" height="2.3" fill="#7823DC" clip-path="url(#SVGID_4_)" transform="matrix(0.0905743 -0.9959 0.9959 0.0905743 -14.5354 42.4296)"/><rect x="19.4" y="22.9" width="2.3" height="12.6" fill="#7823DC" clip-path="url(#SVGID_4_)" transform="matrix(0.9959 -0.09033 0.09033 0.9959 -2.5513 1.9733)"/><rect x="3.6" y="10.3" width="29.1" height="2.3" fill="#7823DC" clip-path="url(#SVGID_4_)"/><path d="M27.6 36.5 8.9 36.5 11.2 34.3 25.3 34.3 27.6 36.5 27.6 36.5Z" fill="#7823DC" clip-path="url(#SVGID_4_)"/></g></g></g></svg>