<svg viewBox="0 0 32 32" xmlns="http://www.w3.org/2000/svg" xmlns:xlink="http://www.w3.org/1999/xlink" id="Graphic" xml:space="preserve" overflow="hidden"><g><path d="M32 25.7 31.7 22.4 31.2 15.9C31.1 14.6 30.2 13.6 29.2 13.6L28 13.6 26.2 18C26.1 18.5 25.7 18.8 25.3 18.8L25.3 18.8 21.8 18.7C21.3 18.7 20.9 18.3 20.8 17.7L20 13.6 16.8 13.6C16.3 13.6 15.8 13.8 15.3 14L2.5 20.5C1 21.3 0 23.2 0 25.3L0 27.7 32 27.7M29.8 25.7 29.8 25.7 2.1 25.7 2.1 25.4C2.1 24.1 2.7 22.8 3.5 22.4L6.2 21 8.1 20 8.9 19.6 10.8 18.6 11.6 18.2 11.6 18.2 13.5 17.2 16.3 15.8C16.5 15.6 16.7 15.6 16.9 15.6L18.5 15.6 19 18C19.3 19.6 20.5 20.7 21.9 20.7L25.4 20.8C26.7 20.8 27.8 20 28.2 18.7L29.2 16.1 29.6 21.7 29.7 23.7 29.8 25.7 29.8 25.7Z" fill="#7823DC"/><path d="M15.1 19.5 11.8 16.2 10.4 17.6 13.7 20.9 15.1 19.5Z" fill="#7823DC"/><path d="M11.5 21.1 8.2 17.8 6.8 19.2 10.1 22.6 11.5 21.1Z" fill="#7823DC"/><path d="M0 27.7 0 32 32 32 32 27.7 30 27.7 30 30 2 30 2 27.7 0 27.7Z" fill="#7823DC"/><path d="M31.7 22.4C31.1 22 30.4 21.7 29.6 21.7L29.5 21.7C27.6 21.7 26 23.3 26.1 25.2 26.1 25.4 26.1 25.5 26.1 25.7 26.2 26.5 26.6 27.2 27.1 27.7L30 27.7 30 28.7C30.7 28.6 31.4 28.2 31.9 27.7L32 27.6 32 26.7M29.5 26.7C28.8 26.7 28.3 26.3 28.1 25.7 28 25.5 28 25.4 28 25.2 28 24.4 28.7 23.7 29.5 23.7 29.6 23.7 29.6 23.7 29.7 23.7 30.4 23.8 31 24.4 31 25.2 31 26 30.3 26.7 29.5 26.7L29.5 26.7Z" fill="#7823DC"/></g></svg>