<svg viewBox="0 0 32 32" xmlns="http://www.w3.org/2000/svg" xmlns:xlink="http://www.w3.org/1999/xlink" overflow="hidden"><defs></defs><g id="Layer_5"><rect x="1" y="8" width="30" height="2" fill="#7823DC"/><path d="M0 0 0 32 32 32 32 0ZM2 2 8 2 8 30 2 30ZM30 30 10 30 10 2 30 2Z" fill="#7823DC"/><path d="M16.09 28 18.48 28 15.75 25.18C18.1277 25.2028 20.4217 24.3031 22.15 22.67 23.9177 20.7638 24.9154 18.2695 24.95 15.67L28 18.78 28 16.3 23.76 12 19.46 16.26 19.46 18.65 22.9 15.25 23 15.2C23.0459 17.4089 22.2526 19.553 20.78 21.2 19.1963 22.665 17.0541 23.3694 14.91 23.13L15.26 22.78 18.73 19.4 16.25 19.4 11.91 23.61Z" fill="#7823DC"/></g></svg>