<svg viewBox="0 0 31.96 32.04" xmlns="http://www.w3.org/2000/svg" xmlns:xlink="http://www.w3.org/1999/xlink" id="Layer_1" overflow="hidden"><style>
.MsftOfcResponsive_Fill_7823dc {
 fill:#7823DC; 
}
</style>
<defs></defs><path d="M15.98 11.16C13.59 11.16 11.65 9.22 11.65 6.83L11.65 4.33C11.65 1.94 13.59 0 15.98 0 18.37 0 20.31 1.94 20.31 4.33L20.31 6.83C20.31 9.22 18.37 11.16 15.98 11.16ZM15.98 2C14.69 2 13.65 3.04 13.65 4.33L13.65 6.83C13.65 8.12 14.69 9.16 15.98 9.16 17.27 9.16 18.31 8.12 18.31 6.83L18.31 4.33C18.31 3.04 17.26 2 15.98 2Z" class="MsftOfcResponsive_Fill_7823dc" stroke-width="0" fill="#7823DC"/><path d="M8.29 28.77 7.74 26.84 18.05 23.91 24.32 26.9 23.45 28.71 17.87 26.04 8.29 28.77Z" class="MsftOfcResponsive_Fill_7823dc" stroke-width="0" fill="#7823DC"/><path d="M7.22 32.04C4.96 32.04 3.32 30.43 3.32 28.21 3.32 25.4 5.49 24.27 6.78 23.59 7.81 23.05 9.93 22.08 10.9 21.64L11.65 16.66 13.63 16.96 12.71 23.01 12.21 23.23C12.21 23.23 8.98 24.69 7.7 25.35 6.3 26.08 5.31 26.71 5.31 28.2 5.31 29.31 6.06 30.03 7.21 30.03 8.57 30.03 11.8 29.15 14.65 28.38L15.7 28.09C18.97 27.21 22.12 26.18 22.15 26.17L22.77 28.07C22.77 28.07 19.54 29.13 16.22 30.02L15.17 30.3C11.91 31.19 8.83 32.02 7.21 32.02Z" class="MsftOfcResponsive_Fill_7823dc" stroke-width="0" fill="#7823DC"/><path d="M24.74 31.97C23.04 31.97 19.79 31.13 15.72 30.03L16.24 28.1C19.16 28.89 23.17 29.97 24.74 29.97 25.89 29.97 26.64 29.25 26.64 28.14 26.64 26.65 25.65 26.01 24.25 25.28 22.96 24.61 19.77 23.15 19.73 23.13L19.24 22.91 18.32 16.96 20.3 16.66 21.05 21.54C22.01 21.98 24.14 22.97 25.17 23.51 26.47 24.19 28.64 25.32 28.64 28.14 28.64 30.36 27 31.97 24.74 31.97Z" class="MsftOfcResponsive_Fill_7823dc" stroke-width="0" fill="#7823DC"/><path d="M1.16 27.06 0 25.43C0 25.43 3.55 22.89 5.09 20.42 5.84 19.21 6.6 17.76 7.27 16.48 8.09 14.91 8.8 13.56 9.38 12.86 10.3 11.74 13.3 10.94 14.98 10.56L14.98 9.72 16.98 9.72 16.98 12.2 16.17 12.36C14.03 12.78 11.35 13.62 10.92 14.14 10.47 14.68 9.78 16.01 9.04 17.42 8.35 18.73 7.58 20.21 6.78 21.48 5.03 24.3 1.31 26.96 1.15 27.07Z" class="MsftOfcResponsive_Fill_7823dc" stroke-width="0" fill="#7823DC"/><path d="M30.8 27.06C30.64 26.95 26.92 24.29 25.17 21.47 24.38 20.19 23.6 18.71 22.91 17.4 22.17 15.99 21.47 14.66 21.03 14.12 20.6 13.6 17.92 12.77 15.78 12.34L14.97 12.18 14.97 9.41 16.97 9.41 16.97 10.55C18.65 10.93 21.66 11.73 22.57 12.85 23.14 13.55 23.85 14.9 24.68 16.47 25.35 17.75 26.11 19.19 26.87 20.41 28.41 22.88 31.92 25.4 31.96 25.42L30.8 27.05Z" class="MsftOfcResponsive_Fill_7823dc" stroke-width="0" fill="#7823DC"/></svg>