<svg viewBox="0 0 32 32" xmlns="http://www.w3.org/2000/svg" xmlns:xlink="http://www.w3.org/1999/xlink" id="Layer_5" overflow="hidden"><defs></defs><path d="M17.63 14.8C16.58 14 15.21 13.79 13.78 14.21 12.45 14.59 11.2 15.48 10.26 16.71 9.32 17.94 8.8 19.38 8.78 20.77 8.76 22.27 9.33 23.53 10.37 24.33 11.07 24.86 11.9 25.13 12.81 25.13 13.27 25.13 13.74 25.06 14.22 24.92 15.55 24.54 16.8 23.65 17.74 22.42 18.68 21.19 19.2 19.75 19.22 18.36 19.24 16.86 18.67 15.6 17.63 14.8ZM11.84 17.92C12.52 17.03 13.4 16.39 14.32 16.13 14.84 15.98 15.32 15.98 15.74 16.09 15.77 16.57 15.66 17.64 14.11 18.14 12.34 18.71 11.35 20.03 10.8 21.19 10.79 21.06 10.77 20.94 10.77 20.8 10.78 19.84 11.16 18.82 11.84 17.93ZM16.15 21.2C15.47 22.09 14.59 22.73 13.67 22.99 13.15 23.14 12.67 23.14 12.25 23.03 12.47 22.22 13.1 20.56 14.74 20.03 16.01 19.62 16.78 18.93 17.22 18.18 17.22 18.23 17.23 18.28 17.23 18.33 17.22 19.29 16.84 20.31 16.16 21.2Z" fill="#7823DC"/><path d="M22 10.68 22 5.31C24.18 5.84 25.88 7.02 26.85 8.72 27.41 9.71 27.7 10.81 27.71 12.01L29.71 12.01C29.71 10.45 29.32 9.02 28.59 7.73 27.27 5.41 24.95 3.85 22.01 3.27L22.01 0 2.71 0 5.99 8 6 8 6 10.68C2.27 12.68 0 15.97 0 19.52 0 23.71 3.12 27.46 8 29.23L8 32 20.18 32 20.18 29.17C24.92 27.38 28 23.66 28 19.52 28 15.99 25.73 12.68 22 10.69ZM5.69 2 20 2 20 6 7.33 6 5.69 2ZM20 8 20 10.01 8 10.01 8 8 20 8ZM18.18 30 10 30 10 29.47 18.18 29.47 18.18 30ZM19 27.47 9.01 27.47C4.75 26.04 2 22.94 2 19.52 2 16.46 4.24 13.6 7.85 12.02L20.2 12.02C23.78 13.62 26 16.49 26 19.52 26 22.95 23.23 26.05 19 27.47Z" fill="#7823DC"/></svg>