<svg viewBox="0 0 31.92 31.99" xmlns="http://www.w3.org/2000/svg" xmlns:xlink="http://www.w3.org/1999/xlink" id="Layer_1" overflow="hidden"><style>
.MsftOfcResponsive_Fill_7823dc {
 fill:#7823DC; 
}
</style>
<defs></defs><path d="M23.93 20 7.93 20 7.93 9.17 23.93 9.17 23.93 20ZM9.93 18 21.93 18 21.93 11.17 9.93 11.17 9.93 18Z" class="MsftOfcResponsive_Fill_7823dc" fill="#7823DC"/><path d="M20.93 11.17 10.93 11.17 10.93 5.59C10.93 2.51 13.17 0.01 15.93 0.01 18.69 0.01 20.93 2.51 20.93 5.59L20.93 11.17ZM12.93 9.17 18.93 9.17 18.93 5.59C18.93 3.61 17.58 2.01 15.93 2.01 14.28 2.01 12.93 3.62 12.93 5.59L12.93 9.17Z" class="MsftOfcResponsive_Fill_7823dc" fill="#7823DC"/><rect x="14.93" y="13.58" width="2" height="2" class="MsftOfcResponsive_Fill_7823dc" fill="#7823DC"/><g><rect x="3.71" y="23.17" width="2" height="4.57" class="MsftOfcResponsive_Fill_7823dc" fill="#7823DC"/><rect x="1.5" y="24.74" width="2" height="4.62" class="MsftOfcResponsive_Fill_7823dc" fill="#7823DC" transform="matrix(0.296208 -0.955123 0.955123 0.296208 -24.08 21.43)"/><rect x="1.06" y="28.57" width="4.57" height="2" class="MsftOfcResponsive_Fill_7823dc" fill="#7823DC" transform="matrix(0.599862 -0.800104 0.800104 0.599862 -22.32 14.51)"/><rect x="5.08" y="27.28" width="2" height="4.57" class="MsftOfcResponsive_Fill_7823dc" fill="#7823DC" transform="matrix(0.799999 -0.600001 0.600001 0.799999 -16.52 9.56)"/><rect x="4.61" y="26.05" width="4.63" height="2" class="MsftOfcResponsive_Fill_7823dc" fill="#7823DC" transform="matrix(0.955227 -0.295875 0.295875 0.955227 -7.7 3.26)"/></g><g><rect x="14.93" y="23.17" width="2" height="4.57" class="MsftOfcResponsive_Fill_7823dc" fill="#7823DC"/><rect x="12.72" y="24.74" width="2" height="4.63" class="MsftOfcResponsive_Fill_7823dc" fill="#7823DC" transform="matrix(0.296208 -0.955123 0.955123 0.296208 -16.18 32.14)"/><rect x="12.27" y="28.57" width="4.57" height="2" class="MsftOfcResponsive_Fill_7823dc" fill="#7823DC" transform="matrix(0.599862 -0.800104 0.800104 0.599862 -17.83 23.48)"/><rect x="16.3" y="27.28" width="2" height="4.57" class="MsftOfcResponsive_Fill_7823dc" fill="#7823DC" transform="matrix(0.799999 -0.600001 0.600001 0.799999 -14.28 16.29)"/><rect x="15.82" y="26.05" width="4.63" height="2" class="MsftOfcResponsive_Fill_7823dc" fill="#7823DC" transform="matrix(0.955227 -0.295875 0.295875 0.955227 -7.19 6.58)"/></g><g><rect x="26.2" y="23.17" width="2" height="4.57" class="MsftOfcResponsive_Fill_7823dc" fill="#7823DC"/><rect x="23.99" y="24.74" width="2" height="4.63" class="MsftOfcResponsive_Fill_7823dc" fill="#7823DC" transform="matrix(0.296208 -0.955123 0.955123 0.296208 -8.25 42.91)"/><rect x="23.55" y="28.57" width="4.57" height="2" class="MsftOfcResponsive_Fill_7823dc" fill="#7823DC" transform="matrix(0.599862 -0.800104 0.800104 0.599862 -13.32 32.5)"/><rect x="27.57" y="27.28" width="2" height="4.57" class="MsftOfcResponsive_Fill_7823dc" fill="#7823DC" transform="matrix(0.799999 -0.600001 0.600001 0.799999 -12.02 23.06)"/><rect x="27.1" y="26.05" width="4.62" height="2" class="MsftOfcResponsive_Fill_7823dc" fill="#7823DC" transform="matrix(0.955227 -0.295875 0.295875 0.955227 -6.69 9.92)"/></g></svg>