<svg viewBox="0 0 32.01 32" xmlns="http://www.w3.org/2000/svg" xmlns:xlink="http://www.w3.org/1999/xlink" id="Outline_Final_icon" overflow="hidden"><defs></defs><path d="M7.91 11.18C11 11.18 13.5 8.68 13.5 5.59 13.5 2.5 11 0 7.91 0 4.82 0 2.32 2.5 2.32 5.59 2.32 8.68 4.82 11.18 7.91 11.18ZM7.91 2C9.89 2 11.5 3.61 11.5 5.59 11.5 7.57 9.89 9.18 7.91 9.18 5.93 9.18 4.32 7.57 4.32 5.59 4.32 3.61 5.93 2 7.91 2Z" fill="#7823DC"/><path d="M20.98 26.05C21.76 25.27 22.16 24.24 22.16 23.22 22.16 22.2 21.77 21.16 20.98 20.38 20.19 19.6 19.17 19.2 18.14 19.2 17.11 19.2 16.08 19.59 15.3 20.38L15.15 20.53 15 20.38C14.22 19.6 13.19 19.2 12.16 19.2 11.13 19.2 10.1 19.59 9.32 20.38 8.54 21.17 8.14 22.19 8.14 23.22 8.14 24.25 8.53 25.27 9.32 26.05L15.16 31.89 20.85 26.21 21 26.05ZM19.56 24.64 19.54 24.66 19.52 24.68 19.39 24.82 15.14 29.07 10.71 24.64C10.33 24.26 10.12 23.75 10.12 23.22 10.12 22.69 10.33 22.17 10.71 21.79 11.09 21.41 11.6 21.2 12.14 21.2 12.68 21.2 13.19 21.41 13.57 21.79L13.72 21.94 15.13 23.35 16.54 21.94 16.69 21.79C17.07 21.41 17.58 21.2 18.12 21.2 18.66 21.2 19.17 21.41 19.55 21.79 19.93 22.17 20.14 22.68 20.14 23.22 20.14 23.76 19.93 24.26 19.55 24.64Z" fill="#7823DC"/><path d="M8.24 27.18 2 27.18 2 17.81 4.51 15.12 11.12 15.12 12.93 17.05 14.39 15.69 11.99 13.12 3.64 13.12 0 17.02 0 29.18 3.94 29.18 3.94 32 5.94 32 5.94 29.18 9.99 29.18 8.24 27.18Z" fill="#7823DC"/><path d="M32.01 18.66 27.11 15.78 27.11 10.62 27.09 10.62C27.19 10.41 27.29 10.19 27.36 9.97 27.38 9.92 27.4 9.87 27.41 9.82 27.54 9.39 27.61 8.91 27.61 8.43 27.61 5.68 25.39 3.46 22.63 3.46 22.33 3.46 22.03 3.49 21.74 3.54 21.64 3.56 21.55 3.58 21.45 3.61 19.27 4.13 17.66 6.09 17.66 8.43 17.66 9.44 17.97 10.39 18.49 11.18L18.49 15.45 16.56 16.44 17.47 18.22 22.15 15.83 21.24 14.05 20.48 14.44 20.48 12.92C21.13 13.23 21.85 13.42 22.62 13.42 23.53 13.42 24.37 13.17 25.1 12.74L25.1 14.61 24.19 14.08 23.18 15.8 30 19.81 30 27.18 22.11 27.18 20.36 29.18 25.88 29.18 25.88 32 27.88 32 27.88 29.18 32 29.18 32 18.67ZM23.89 5.75C24 5.8 24.11 5.86 24.22 5.93 24.27 5.96 24.32 6 24.37 6.03 24.47 6.1 24.56 6.18 24.65 6.26 24.69 6.3 24.73 6.33 24.77 6.37 24.89 6.49 25 6.63 25.1 6.77 25.1 6.77 25.1 6.79 25.11 6.8 25.2 6.94 25.28 7.08 25.35 7.23 25.37 7.28 25.39 7.33 25.41 7.39 25.45 7.51 25.49 7.62 25.52 7.74 25.53 7.8 25.55 7.86 25.56 7.92 25.56 7.96 25.56 8 25.57 8.05 24.35 7.79 23.4 6.78 23.23 5.53 23.41 5.57 23.57 5.62 23.74 5.69 23.79 5.71 23.84 5.74 23.89 5.76ZM22.63 11.42C20.99 11.42 19.66 10.08 19.66 8.44 19.66 7.3 20.3 6.3 21.28 5.81 21.56 7.9 23.12 9.58 25.15 10.01 24.62 10.87 23.68 11.42 22.63 11.42Z" fill="#7823DC"/></svg>