<svg viewBox="0 0 32 32" xmlns="http://www.w3.org/2000/svg" xmlns:xlink="http://www.w3.org/1999/xlink" id="Grid" overflow="hidden"><defs></defs><path d="M16 11.63C18.33 11.63 20.22 9.74 20.22 7.41 20.22 5.08 18.33 3.19 16 3.19 13.67 3.19 11.78 5.08 11.78 7.41 11.78 9.74 13.67 11.63 16 11.63ZM16 5.19C17.22 5.19 18.22 6.19 18.22 7.41 18.22 8.63 17.22 9.63 16 9.63 14.78 9.63 13.78 8.63 13.78 7.41 13.78 6.19 14.78 5.19 16 5.19Z" stroke-width="0" fill="#7823DC"/><path d="M32 18.83 32.11 18.76 20.98 14.36 22.41 12.13C23.93 9.76 24.09 6.82 22.84 4.27 21.66 1.85 19.39 0.27 16.78 0.03 16.27-0.02 15.74-0.02 15.23 0.03 12.61 0.27 10.35 1.85 9.16 4.26 7.91 6.81 8.07 9.75 9.59 12.12L11.14 14.54-0.13 19.65 0.08 19.75 0 19.75 0 23.51 0.02 23.51-0.03 23.62 18.46 31.98 32.07 22.55 32 22.45 32 18.83ZM30 21.55 19 29.17 19 27.83 30 20.21 30 21.54ZM10.96 5.14C11.84 3.33 13.46 2.2 15.41 2.02 15.8 1.98 16.21 1.98 16.6 2.02 18.54 2.2 20.16 3.33 21.05 5.14 21.99 7.06 21.87 9.27 20.73 11.05L16.01 18.41 11.29 11.05 11.29 11.05C10.15 9.27 10.03 7.06 10.97 5.14ZM12.24 16.25 16 22.11 19.87 16.07 27.89 19.24 18.25 25.91 4.68 19.66 12.23 16.24ZM17 27.54 17 29.13 2 22.35 2 20.64 17 27.55Z" stroke-width="0" fill="#7823DC"/></svg>