<svg width="32" height="32" viewBox="0 0 32 32" xmlns="http://www.w3.org/2000/svg" xmlns:xlink="http://www.w3.org/1999/xlink" overflow="hidden"><defs></defs><g><g><g><defs><rect x="0" y="0" width="32" height="32" id="SVGID_1_" fill="#7823DC"/></defs><clipPath id="SVGID_2_"><use width="100%" height="100%" xlink:href="#SVGID_1_"></use></clipPath><rect x="26" y="6" width="2" height="2" fill="#7823DC" clip-path="url(#SVGID_2_)"/><rect x="26" y="10" width="2" height="2" fill="#7823DC" clip-path="url(#SVGID_2_)"/><rect x="18" y="8" width="2" height="2" fill="#7823DC" clip-path="url(#SVGID_2_)"/><rect x="18" y="12" width="2" height="2" fill="#7823DC" clip-path="url(#SVGID_2_)"/><rect x="14" y="8" width="2" height="2" fill="#7823DC" clip-path="url(#SVGID_2_)"/><rect x="14" y="12" width="2" height="2" fill="#7823DC" clip-path="url(#SVGID_2_)"/><rect x="8" y="4" width="2" height="2" fill="#7823DC" clip-path="url(#SVGID_2_)"/><rect x="8" y="8" width="2" height="2" fill="#7823DC" clip-path="url(#SVGID_2_)"/><rect x="4" y="4" width="2" height="2" fill="#7823DC" clip-path="url(#SVGID_2_)"/><rect x="4" y="8" width="2" height="2" fill="#7823DC" clip-path="url(#SVGID_2_)"/><rect x="8" y="12" width="2" height="2" fill="#7823DC" clip-path="url(#SVGID_2_)"/><g clip-path="url(#SVGID_2_)"><defs><rect x="0" y="0" width="32" height="32" id="SVGID_3_" fill="#7823DC"/></defs><clipPath id="SVGID_4_"><use width="100%" height="100%" xlink:href="#SVGID_3_"></use></clipPath><path d="M18 19.8C18 18.7 17.1 17.8 16 17.8 14.9 17.8 14 18.7 14 19.8 14 20.9 14.9 21.8 16 21.8 17.1 21.7 18 20.9 18 19.8" fill="#7823DC" clip-path="url(#SVGID_4_)"/><path d="M27.9 19.8C27.9 18.7 27 17.8 25.9 17.8 24.8 17.8 23.9 18.7 23.9 19.8 23.9 20.9 24.8 21.8 25.9 21.8 27 21.7 27.9 20.9 27.9 19.8" fill="#7823DC" clip-path="url(#SVGID_4_)"/><path d="M8.1 19.8C8.1 18.7 7.2 17.8 6.1 17.8 5 17.8 4.1 18.7 4.1 19.8 4.1 20.9 5 21.8 6.1 21.8 7.2 21.7 8.1 20.9 8.1 19.8" fill="#7823DC" clip-path="url(#SVGID_4_)"/><path d="M28.7 27.6 30 32 30.1 32 32 31.4 29.2 22.1 26 22.1 27.3 32 29.3 32Z" fill="#7823DC" clip-path="url(#SVGID_4_)"/><path d="M8.9 27.9 10.1 32 12 32 13.2 27.9 12.7 32 14.7 32 16 22.1 12.8 22.1 11.1 28.1 9.3 22.1 6.1 22.1 7.4 32 9.5 32Z" fill="#7823DC" clip-path="url(#SVGID_4_)"/><path d="M18.8 27.9 20 32 22 32 23.1 27.9 22.6 32 24.6 32 25.9 22.1 22.7 22.1 21 28.1 19.2 22.1 16.1 22.1 17.4 32 19.4 32Z" fill="#7823DC" clip-path="url(#SVGID_4_)"/><path d="M3.3 27.6 2.7 32 4.8 32 6.1 22.1 2.9 22.1 0.1 31.4 1.9 32 2 32Z" fill="#7823DC" clip-path="url(#SVGID_4_)"/></g></g></g><path d="M22 2 22 4 14 4 14 0 0 0 0 18.1 2 18.1 2 2 12 2 12 18 14 18 14 6 22 6 22 18 24 18 24 4 30 4 30 18 32 18 32 2Z" fill="#7823DC"/></g></svg>