<svg viewBox="0 0 32 32" xmlns="http://www.w3.org/2000/svg" xmlns:xlink="http://www.w3.org/1999/xlink" overflow="hidden"><defs></defs><g id="Layer_3"><path d="M5 31.9824C2.23858 31.9824 0 29.7438 0 26.9824 -8.88178e-16 24.221 2.23858 21.9824 5 21.9824 7.76142 21.9824 10 24.221 10 26.9824 9.99676 29.7425 7.76008 31.9792 5 31.9824ZM5 23.9824C3.34315 23.9824 2 25.3256 2 26.9824 2 28.6393 3.34315 29.9824 5 29.9824 6.65685 29.9824 8 28.6393 8 26.9824 7.99819 25.3263 6.65611 23.9842 5 23.9824Z" fill="#7823DC"/><path d="M28 31.9824C25.7909 31.9824 24 30.1916 24 27.9824 24 25.7733 25.7909 23.9824 28 23.9824 30.2091 23.9824 32 25.7733 32 27.9824 31.9977 30.1906 30.2082 31.9801 28 31.9824ZM28 25.9824C26.8954 25.9824 26 26.8778 26 27.9824 26 29.087 26.8954 29.9824 28 29.9824 29.1046 29.9824 30 29.087 30 27.9824 29.9987 26.8784 29.104 25.9837 28 25.9824Z" fill="#7823DC"/><path d="M29 24.982 27 24.982 27 1.982 22 1.982 22-0.018 29-0.018 29 24.982Z" fill="#7823DC"/><path d="M6 16.982 4 16.982 4 1.982 2 1.982 2-0.018 6-0.018 6 16.982Z" fill="#7823DC"/><rect x="9" y="25.9883" width="16.167" height="2" fill="#7823DC"/><path d="M28.707 12.689 27.293 11.275 30 8.568 30 5.982 28 5.982 28 3.982 32 3.982 32 9.396 28.707 12.689Z" fill="#7823DC"/><path d="M0 14.983 0 3.982 16.428 3.982 16.428 5.982 2 5.982 2 12.981 18 12.966 18 10.982 5 10.982 5 8.982 20 8.982 20 14.964 0 14.983Z" fill="#7823DC"/><path d="M2 27.326 0 27.326 0 16.982 9.333 16.982 14 20.482 14 26.994 12 26.994 12 21.482 8.667 18.982 2 18.982 2 27.326Z" fill="#7823DC"/></g></svg>