<svg viewBox="0 0 32 32" xmlns="http://www.w3.org/2000/svg" xmlns:xlink="http://www.w3.org/1999/xlink" id="Layer_1" overflow="hidden"><path d="M14 2C14.6 2 15 2.4 15 3L15 29C15 29.6 14.6 30 14 30L3 30C2.4 30 2 29.6 2 29L2 3C2 2.4 2.4 2 3 2L14 2M14 0 3 0C1.3 0 0 1.3 0 3L0 29C0 30.7 1.3 32 3 32L14 32C15.7 32 17 30.7 17 29L17 3C17 1.3 15.7 0 14 0L14 0Z" fill="#7823DC"/><path d="M29 2C29.6 2 30 2.4 30 3L30 29C30 29.6 29.6 30 29 30L17.1 30C17 30 17 30 17 29.9L17 3C17 2.4 17.4 2 18 2L29 2M29 0 18 0C16.3 0 15 1.3 15 3L15 29.9C15 31.1 15.9 32 17.1 32L29 32C30.7 32 32 30.7 32 29L32 3C32 1.3 30.7 0 29 0L29 0Z" fill="#7823DC"/><rect x="2" y="26" width="28" height="2" fill="#7823DC"/><g><g><path d="M21.6 11.6 20.4 10 23.8 7.4 20.4 4.8 21.6 3.2 27.2 7.4Z" fill="#7823DC"/><rect x="6.5" y="6.2" width="17.7" height="2" fill="#7823DC"/></g><g><path d="M10.4 24.3 4.8 20.2 10.4 16 11.6 17.6 8.2 20.2 11.6 22.7Z" fill="#7823DC"/><rect x="7.8" y="19" width="17.7" height="2" fill="#7823DC"/></g></g></svg>