<svg viewBox="0 0 32 32" xmlns="http://www.w3.org/2000/svg" xmlns:xlink="http://www.w3.org/1999/xlink" id="Layer_1" xml:space="preserve" overflow="hidden"><g><path d="M27 19.9 27 22.9 25 22.9 25 19.9 27 19.9M29 18 23 18 23 25 29 25 29 18 29 18 29 18 29 18 29 18 29 18Z" fill="#7823DC" fill-rule="evenodd" clip-rule="evenodd"/><path d="M7 19.9 7 22.9 5 22.9 5 19.9 7 19.9M9 18 3 18 3 25 9 25 9 18 9 18 9 18 9 18 9 18 9 18Z" fill="#7823DC" fill-rule="evenodd" clip-rule="evenodd"/><path d="M28 12.2C29.1 12.2 30 13.1 30 14.2L30 15.8C30 16.9 29.1 17.8 28 17.8L4 17.8C2.9 17.8 2 16.9 2 15.8L2 14.2C2 13.1 2.9 12.2 4 12.2L28 12.2M28 10.3 4 10.3C1.8 10.3 0 12.1 0 14.4L0 16C0 18.1 1.8 20 4 20L28 20C30.2 20 32 18.2 32 15.9L32 14.3C32 12 30.2 10.3 28 10.3L28 10.3 28 10.3 28 10.3 28 10.3 28 10.3Z" fill="#7823DC" fill-rule="evenodd" clip-rule="evenodd"/><path d="M6.5 14 25.5 14 25.5 15.9 6.5 15.9 6.5 14Z" fill="#7823DC" fill-rule="evenodd" clip-rule="evenodd"/><path d="M29 15C29 15.5 28.6 16 28 16 27.4 16 27 15.6 27 15 27 14.5 27.4 14 28 14 28.6 14 29 14.4 29 15L29 15 29 15 29 15Z" fill="#7823DC" fill-rule="evenodd" clip-rule="evenodd"/><path d="M5 15C5 15.5 4.6 16 4 16 3.4 16 3 15.6 3 15 3 14.5 3.4 14 4 14 4.6 14 5 14.4 5 15L5 15 5 15 5 15Z" fill="#7823DC" fill-rule="evenodd" clip-rule="evenodd"/><path d="M30 25 30 27 2 27 2 25 30 25M32 23 0 23 0 29 32 29 32 23 32 23 32 23 32 23 32 23 32 23Z" fill="#7823DC" fill-rule="evenodd" clip-rule="evenodd"/><path d="M8 5.1C8.8 5.1 9.5 5.8 9.5 6.7 9.5 7.5 8.8 8.3 8 8.3 7.2 8.3 6.5 7.5 6.5 6.6 6.5 5.8 7.2 5.1 8 5.1M8 3C6.1 3 4.5 4.7 4.5 6.6 4.5 8.6 6.1 10.2 8 10.2 9.9 10.2 11.5 8.5 11.5 6.6 11.5 4.7 9.9 3 8 3L8 3 8 3 8 3Z" fill="#7823DC" fill-rule="evenodd" clip-rule="evenodd"/><path d="M16 5.1C16.8 5.1 17.5 5.8 17.5 6.7 17.5 7.5 16.8 8.3 16 8.3 15.2 8.3 14.5 7.6 14.5 6.7 14.5 5.8 15.2 5.1 16 5.1M16 3C14.1 3 12.5 4.7 12.5 6.6 12.5 8.6 14.1 10.2 16 10.2 17.9 10.2 19.5 8.5 19.5 6.6 19.5 4.7 17.9 3 16 3L16 3 16 3 16 3Z" fill="#7823DC" fill-rule="evenodd" clip-rule="evenodd"/><path d="M24 5.1C24.8 5.1 25.5 5.8 25.5 6.7 25.5 7.5 24.8 8.3 24 8.3 23.2 8.3 22.5 7.6 22.5 6.7 22.5 5.8 23.2 5.1 24 5.1M24 3C22.1 3 20.5 4.7 20.5 6.6 20.5 8.6 22.1 10.2 24 10.2 25.9 10.2 27.5 8.5 27.5 6.6 27.5 4.7 25.9 3 24 3L24 3 24 3 24 3Z" fill="#7823DC" fill-rule="evenodd" clip-rule="evenodd"/></g></svg>