<svg width="32.3" height="32" viewBox="0 0 32.3 32" xmlns="http://www.w3.org/2000/svg" xmlns:xlink="http://www.w3.org/1999/xlink" overflow="visible"><defs></defs><rect x="0.3" y="30" width="32" height="2" fill="#7823DC"/><path d="M30.1 20.6 30.1 29.9 24.4 29.9 24.4 20.6 30.1 20.6M32.3 18.4 22.3 18.4 22.3 32 32.3 32 32.3 18.4 32.3 18.4Z" fill="#7823DC"/><path d="M17.7 2.2C18.1 2.2 18.5 2.5 18.5 3L18.5 29.8 14.6 29.8 14.6 3C14.6 2.6 14.9 2.2 15.4 2.2L17.7 2.2M17.7 0 15.3 0C13.6 0 12.3 1.3 12.3 3L12.3 32 20.7 32 20.7 3C20.7 1.3 19.3 0 17.7 0L17.7 0Z" fill="#7823DC"/><path d="M5.6 17.1C7.6 17.1 9.3 18.7 9.3 20.8 9.3 22.9 7.7 24.5 5.6 24.5 3.5 24.5 2 22.7 2 20.7 2 18.7 3.6 17.1 5.6 17.1M5.6 15.1C2.5 15.1 0 17.6 0 20.7 0 23.8 2.5 26.3 5.6 26.3 8.7 26.3 11.2 23.8 11.2 20.7 11.2 17.6 8.8 15.1 5.6 15.1L5.6 15.1Z" fill="#7823DC"/><g><rect x="7.7" y="24.3" width="2" height="6.7" fill="#7823DC"/><rect x="1.6" y="24.3" width="2" height="6.7" fill="#7823DC"/></g><rect x="14.3" y="5.9" width="5.2" height="2.2" fill="#7823DC"/><rect x="14.3" y="12.2" width="5.2" height="2.2" fill="#7823DC"/><rect x="13.9" y="18.4" width="5.2" height="2.2" fill="#7823DC"/><rect x="1" y="19.7" width="9" height="2.2" fill="#7823DC"/><rect x="23.8" y="24.1" width="7.6" height="2.2" fill="#7823DC"/><path d="M28.3 19 26.3 19 26.3 11 19.6 11 19.6 9 28.3 9Z" fill="#7823DC"/><path d="M6.6 16 4.6 16 4.6 5.9 14.3 5.9 14.3 7.9 6.6 7.9Z" fill="#7823DC"/></svg>