<svg viewBox="0 0 32 32" xmlns="http://www.w3.org/2000/svg" xmlns:xlink="http://www.w3.org/1999/xlink" overflow="hidden"><defs></defs><g id="Layer_3"><path d="M19 8.64656 19 0.04656 13 0.04656 13 8.64656C9.97998 9.86248 8.00128 12.7909 8 16.0466L8 32.0466 24 32.0466 24 16.0466C23.9987 12.7909 22.02 9.86248 19 8.64656ZM15 2.04656 17 2.04656 17 4.04656 15 4.04656ZM22 30.0466 10 30.0466 10 24.0466 22 24.0466ZM22 22.0466 10 22.0466 10 18.0466 22 18.0466ZM10 16.0466C10.0058 13.1221 12.1169 10.6268 15 10.1366L15 6.04656 17 6.04656 17 10.1366C19.8831 10.6268 21.9942 13.1221 22 16.0466Z" fill="#7823DC"/></g></svg>