<svg viewBox="0 0 32 32" xmlns="http://www.w3.org/2000/svg" xmlns:xlink="http://www.w3.org/1999/xlink" xml:space="preserve" overflow="hidden"><style>
.MsftOfcResponsive_Fill_7823dc {
 fill:#7823DC; 
}
</style>
<g id="Layer_3"></g><g id="Layer_1"></g><g id="Layer_2"></g><g id="Layer_4"></g><g id="Layer_5"><rect x="14.9" y="20.83" width="2" height="10.17" class="MsftOfcResponsive_Fill_7823dc" fill="#7823DC"/><rect x="0.9" y="0" width="30" height="2" class="MsftOfcResponsive_Fill_7823dc" fill="#7823DC"/><path d="M15.9 22.24 12.36 18.7 12.36 12.17 10.03 12.17 7.3 1.24 9.24 0.76 11.6 10.17 14.36 10.17 14.36 17.87 15.9 19.42 17.44 17.87 17.44 10.17 20.2 10.17 22.56 0.76 24.49 1.24 21.76 12.17 19.44 12.17 19.44 18.7Z" class="MsftOfcResponsive_Fill_7823dc" fill="#7823DC"/><rect x="0.9" y="30" width="30" height="2" class="MsftOfcResponsive_Fill_7823dc" fill="#7823DC"/><rect x="9.54" y="5.09" width="3.81" height="2" class="MsftOfcResponsive_Fill_7823dc" fill="#7823DC"/><rect x="18.44" y="5.09" width="3.81" height="2" class="MsftOfcResponsive_Fill_7823dc" fill="#7823DC"/><rect x="13.36" y="10.17" width="5.08" height="2" class="MsftOfcResponsive_Fill_7823dc" fill="#7823DC"/><rect x="25.31" y="24.4" width="3.06" height="2" class="MsftOfcResponsive_Fill_7823dc" fill="#7823DC" transform="matrix(0.8711 -0.4912 0.4912 0.8711 -9.0126 16.4597)"/><rect x="20.97" y="20.38" width="3.31" height="2" class="MsftOfcResponsive_Fill_7823dc" fill="#7823DC" transform="matrix(0.5429 -0.8398 0.8398 0.5429 -7.6128 28.7745)"/><rect x="8.18" y="19.72" width="2" height="3.38" class="MsftOfcResponsive_Fill_7823dc" fill="#7823DC" transform="matrix(0.8424 -0.5388 0.5388 0.8424 -10.0915 8.3218)"/><rect x="4.02" y="23.8" width="2" height="3.16" class="MsftOfcResponsive_Fill_7823dc" fill="#7823DC" transform="matrix(0.4682 -0.8836 0.8836 0.4682 -19.7617 17.9313)"/></g></svg>