<svg width="36.5" height="36.6" viewBox="0 0 36.5 36.6" xmlns="http://www.w3.org/2000/svg" xmlns:xlink="http://www.w3.org/1999/xlink" overflow="hidden"><defs></defs><g><g><defs><path d="M0 36.5 36.5 36.5 36.5 0 0 0 0 36.5Z" id="SVGID_1_" fill="#7823DC"/></defs><clipPath id="SVGID_2_"><use width="100%" height="100%" xlink:href="#SVGID_1_"></use></clipPath><g clip-path="url(#SVGID_2_)"><defs><path d="M0 36.5 36.5 36.5 36.5 0 0 0 0 36.5Z" id="SVGID_3_" fill="#7823DC"/></defs><clipPath id="SVGID_4_"><use width="100%" height="100%" xlink:href="#SVGID_3_"></use></clipPath><path d="M28.7 18.3 18.2 28.8 7.8 18.3 4.6 18.3 18.2 32 31.9 18.3 28.7 18.3 28.7 18.3Z" fill="#7823DC" clip-path="url(#SVGID_4_)"/><path d="M2.3 18.3 4.6 18.3 4.6 36.6 2.3 36.6 2.3 18.3Z" fill="#7823DC" clip-path="url(#SVGID_4_)"/><path d="M31.9 18.3 34.2 18.3 34.2 36.6 31.9 36.6 31.9 18.3Z" fill="#7823DC" clip-path="url(#SVGID_4_)"/><path d="M18.3 18.3C13.3 18.3 9.2 14.2 9.2 9.2 9.2 4.2 13.2 0 18.3 0 23.3 0 27.4 4.1 27.4 9.1 27.4 14.1 23.3 18.3 18.3 18.3ZM18.3 2.3C14.5 2.3 11.5 5.4 11.5 9.2 11.5 13 14.6 16.1 18.3 16.1 22.1 16.1 25.1 13 25.1 9.2 25.1 5.4 22 2.3 18.3 2.3Z" fill="#7823DC" clip-path="url(#SVGID_4_)"/></g></g></g></svg>