<svg viewBox="0 0 32 32" xmlns="http://www.w3.org/2000/svg" xmlns:xlink="http://www.w3.org/1999/xlink" id="Layer_1" xml:space="preserve" overflow="hidden"><style>
.MsftOfcResponsive_Fill_7823dc {
 fill:#7823DC; 
}
</style>
<path d="M35 3.5 35 26 67 26 67 3.5 35 3.5 35 3.5 35 3.5 35 3.5 35 3.5ZM64.8 23.8 37.3 23.8 37.3 7.7 46.6 18C46.3 17 46.3 15.7 46.6 14.6L38.6 5.8 63.4 5.8 55.6 14.2C56 15.1 56.1 16.3 55.9 17.3L64.7 7.7 64.7 23.8 64.8 23.8 64.8 23.8 64.8 23.8 64.8 23.8Z" class="st0 MsftOfcResponsive_Fill_7823dc" fill="#7823DC" fill-rule="evenodd" clip-rule="evenodd"/><g><g><path d="M19 15C19.5 15 19.9 15.2 20.2 15.5 20.5 15.8 20.7 16.3 20.7 16.7 20.7 17.2 20.5 17.6 20.2 17.9L19.9 18.2 16 22.2 11.8 18C11.5 17.7 11.3 17.2 11.3 16.8 11.3 16.5 11.4 16 11.8 15.6 12.1 15.3 12.6 15.1 13 15.1 13.5 15.1 13.9 15.3 14.2 15.6L14.5 15.9 15.9 17.3 17.3 15.9 17.6 15.6C18.1 15.2 18.5 15 19 15M19 13C18 13 17.1 13.4 16.4 14.1L16 14.4 15.7 14.1C14.9 13.4 14 13 13 13 12 13 11.1 13.4 10.4 14.1 9.7 14.8 9.3 15.8 9.3 16.7 9.3 17.6 9.7 18.6 10.4 19.3L16 25 21.3 19.7 21.6 19.4C22.3 18.7 22.7 17.7 22.7 16.8 22.7 15.8 22.3 14.9 21.6 14.2 20.9 13.4 19.9 13 19 13L19 13Z" class="MsftOfcResponsive_Fill_7823dc" fill="#7823DC"/></g><path d="M30 7 30 25 2 25 2 7 30 7M32 5 0 5 0 27 32 27 32 5 32 5Z" class="MsftOfcResponsive_Fill_7823dc" fill="#7823DC"/><rect x="4.8" y="4" width="2" height="13.4" class="MsftOfcResponsive_Fill_7823dc" fill="#7823DC" transform="matrix(0.7071 -0.7071 0.7071 0.7071 -5.9174 7.2145)"/><rect x="19.5" y="9.8" width="13.4" height="2" class="MsftOfcResponsive_Fill_7823dc" fill="#7823DC" transform="matrix(0.7071 -0.7071 0.7071 0.7071 0.0869196 21.7102)"/></g></svg>