<svg viewBox="0 0 32.11 32" xmlns="http://www.w3.org/2000/svg" xmlns:xlink="http://www.w3.org/1999/xlink" id="Layer_1" overflow="hidden"><style>
.MsftOfcResponsive_Fill_7823dc {
 fill:#7823DC; 
}
</style>
<defs></defs><path d="M6.11 6.19C7.82 6.19 9.21 4.8 9.21 3.09 9.21 1.38 7.82 0 6.11 0 4.4 0 3.01 1.39 3.01 3.1 3.01 4.81 4.4 6.2 6.11 6.2ZM6.11 2C6.72 2 7.21 2.49 7.21 3.1 7.21 3.71 6.72 4.2 6.11 4.2 5.5 4.2 5.01 3.71 5.01 3.1 5.01 2.49 5.5 2 6.11 2Z" class="MsftOfcResponsive_Fill_7823dc" fill="#7823DC"/><path d="M30.48 27.85C31.44 27.46 32.11 26.52 32.11 25.42 32.11 23.97 30.93 22.79 29.48 22.79 28.03 22.79 26.85 23.97 26.85 25.42 26.85 26.52 27.52 27.46 28.48 27.85L28.48 30 8.14 30 9.78 24.9 5.88 17.66 6.84 15.05 12.72 20.9 13.34 19.7 20.06 27.99 24.1 27.99 24.1 25.99 21.02 25.99 14.35 17.76 14.9 16.69 8.16 6.35 4.01 6.35 0 17.9 3.38 25.11 2.32 29.99 0.11 29.99 0.11 31.99 32.11 31.99 32.11 29.99 30.48 29.99 30.48 27.84ZM29.48 24.79C29.83 24.79 30.11 25.07 30.11 25.42 30.11 25.77 29.83 26.05 29.48 26.05 29.13 26.05 28.85 25.77 28.85 25.42 28.85 25.07 29.13 24.79 29.48 24.79ZM4.37 30 5.48 24.88 2.16 17.79 5.44 8.36 7.08 8.36 12.6 16.82 12.21 17.57 6.05 11.45 3.7 17.83 7.63 25.11 6.05 30.01 4.38 30.01Z" class="MsftOfcResponsive_Fill_7823dc" fill="#7823DC"/></svg>