<svg viewBox="0 0 32 32" xmlns="http://www.w3.org/2000/svg" xmlns:xlink="http://www.w3.org/1999/xlink" id="Layer_1" xml:space="preserve" overflow="hidden"><g><g><path d="M2.7 11.9 4.5 17.1 5.4 19.6 7.6 18 7.7 17.9 8.6 19.5 8.8 19.9 9.2 20.2 12.2 22.2 12.6 24.6 12.7 25 12.9 25.4 13.9 27 11.2 29.2 10 27.7 9.8 27.4 9.4 27.1 3.7 23.6 2.2 12.2 2.7 11.9M3.7 8.7 0.1 11.3 2.1 24.8 8.5 28.8 10.9 32 16.6 27.4 14.6 24.3 13.9 21 10.1 18.5 8.1 15 6.2 16.4 3.7 8.7 3.7 8.7Z" fill="#7823DC"/><path d="M7.3 22.9 5.3 19.4 4.9 18 6.8 17.6 7.1 18.6 9.1 21.8Z" fill="#7823DC"/></g><g><path d="M29.4 11.9 29.9 12.2 28.2 23.6 22.5 27.1 22.2 27.3 22 27.6 20.9 29.1 18.2 26.9 19.2 25.3 19.4 24.9 19.5 24.5 19.9 22.1 22.9 20.1 23.3 19.8 23.5 19.4 24.4 17.8 24.5 17.9 26.7 19.5 27.6 17 29.4 11.9M28.4 8.7 25.7 16.4 23.8 15 21.8 18.5 18 21 17.5 24.3 15.5 27.4 21.2 32 23.6 28.8 30 24.8 32 11.3 28.4 8.7 28.4 8.7Z" fill="#7823DC"/><path d="M24.7 22.9 23 21.8 24.9 18.6 25.1 17.6 27.1 18 26.8 19.4Z" fill="#7823DC"/></g></g><g><path d="M16 2C19.3 2 22 4.7 22 8 22 11.3 19.3 14 16 14 12.7 14 10 11.3 10 8 10 4.7 12.7 2 16 2M16 0C11.6 0 8 3.6 8 8 8 12.4 11.6 16 16 16 20.4 16 24 12.4 24 8 24 3.6 20.4 0 16 0L16 0Z" fill="#7823DC"/></g><g><path d="M14.2 13.3 19.4 8.2 18.9 7.1 15.1 7.1 17.5 4.7 17.5 2.6 12.5 7.4 13 8.6 16.9 8.6 14.2 11.2 14.2 13.3 14.2 13.3 14.2 13.3Z" fill="#7823DC" fill-rule="evenodd" clip-rule="evenodd"/></g></svg>