<svg viewBox="0 0 32 32" xmlns="http://www.w3.org/2000/svg" xmlns:xlink="http://www.w3.org/1999/xlink" overflow="hidden"><style>
.MsftOfcResponsive_Fill_7823dc {
 fill:#7823DC; 
}
</style>
<defs></defs><g id="Graphic"><path d="M23.0734 19.2291C23.2039 19.2291 23.3386 19.239 23.4816 19.2534L23.5292 19.2589 23.5057 19.3007C23.327 19.6965 23.0063 20.0108 22.607 20.1815 22.4779 20.2364 22.3389 20.2639 22.1986 20.2623 22.0436 20.2621 21.8903 20.2306 21.7477 20.1698 21.8038 19.875 21.9832 19.6181 22.2407 19.464 22.4905 19.3086 22.7792 19.2272 23.0734 19.2291M23.0734 17.2291C22.448 17.2264 21.8331 17.3901 21.2918 17.7034 20.0819 18.4079 19.4644 19.8122 19.763 21.1801 20.3936 21.8575 21.2732 22.2483 22.1986 22.2623 22.6394 22.2646 23.0753 22.1694 23.475 21.9834 24.2336 21.639 24.8535 21.0482 25.234 20.307 25.6199 19.5275 25.9463 18.72 26.2104 17.8912 25.3844 17.6185 24.5391 17.4087 23.6815 17.2634 23.4682 17.2421 23.2676 17.2291 23.0733 17.2291Z" class="MsftOfcResponsive_Fill_7823dc" fill="#7823DC"/><path d="M7.68835 8.14527 7.72535 8.17554C8.08485 8.41937 8.3398 8.7892 8.4398 9.21192 8.5087 9.50313 8.45018 9.8099 8.27893 10.0553 7.99897 9.94938 7.77748 9.72909 7.67004 9.44971 7.514 9.04439 7.51571 8.59529 7.67482 8.19117L7.6883 8.14527M6.79919 5.26978C6.3893 6.03691 6.03801 6.83394 5.74834 7.65406 5.48238 8.44363 5.49117 9.29993 5.77328 10.0839 6.26057 11.3963 7.53864 12.2448 8.93735 12.1845 10.126 11.4448 10.7021 10.023 10.3635 8.66456 10.1538 7.8582 9.67774 7.1464 9.01249 6.64478 8.31044 6.1313 7.57056 5.67165 6.79917 5.26978Z" class="MsftOfcResponsive_Fill_7823dc" fill="#7823DC"/><path d="M5.702 11.7684C5.82441 11.7698 5.94657 11.78 6.06749 11.7991 6.36152 11.8566 6.61706 12.0368 6.76996 12.2944 6.5699 12.4886 6.30291 12.5984 6.02417 12.6012 6.00501 12.6013 5.98586 12.6004 5.9668 12.5985 5.53315 12.5735 5.12469 12.3866 4.82221 12.0748L4.786 12.0436 4.82874 12.0224C5.09408 11.8662 5.39429 11.7789 5.702 11.7685M5.702 9.76845C5.09558 9.77774 4.50018 9.93197 3.96552 10.2183 3.20808 10.6459 2.48407 11.1302 1.79969 11.667 2.32935 12.3569 2.91043 13.0058 3.53794 13.608 4.1474 14.1761 4.93102 14.5215 5.76153 14.588 5.84878 14.5969 5.93643 14.6013 6.02413 14.6012 7.32644 14.5766 8.489 13.7789 8.98054 12.5727 8.79725 11.1847 7.73987 10.0733 6.36275 9.82106 6.14411 9.78717 5.92325 9.76959 5.702 9.76845Z" class="MsftOfcResponsive_Fill_7823dc" fill="#7823DC"/></g><g id="Layer_3"><path d="M11.4188 25.0612C12.7803 25.0612 13.8839 26.1648 13.8839 27.5263 13.8839 28.8877 12.7802 29.9914 11.4188 29.9914 10.0574 29.9914 8.95372 28.8877 8.95372 27.5263 8.95526 26.1655 10.058 25.0627 11.4188 25.0612M11.4188 23.0612C8.95282 23.0612 6.95374 25.0603 6.95376 27.5263 6.95378 29.9923 8.95288 31.9914 11.4189 31.9914 13.8849 31.9913 15.8839 29.9923 15.8839 27.5263 15.884 25.0603 13.8849 23.0612 11.4189 23.0612 11.4189 23.0612 11.4189 23.0612 11.4188 23.0612Z" class="MsftOfcResponsive_Fill_7823dc" fill="#7823DC"/><path d="M4.477 25.0612C5.83843 25.0612 6.94209 26.1648 6.94208 27.5263 6.94207 28.8877 5.83841 29.9914 4.47698 29.9914 3.11555 29.9914 2.0119 28.8877 2.0119 27.5263 2.01344 26.1655 3.1162 25.0627 4.477 25.0612M4.477 23.0612C2.011 23.0612 0.0119147 25.0603 0.0119202 27.5263 0.0119258 29.9923 2.01102 31.9914 4.47702 31.9914 6.94302 31.9914 8.9421 29.9923 8.9421 27.5263 8.94212 25.0603 6.94306 23.0612 4.47707 23.0612 4.47705 23.0612 4.47702 23.0612 4.477 23.0612Z" class="MsftOfcResponsive_Fill_7823dc" fill="#7823DC"/><path d="M7.9072 19.0321C9.26863 19.0321 10.3723 20.1358 10.3723 21.4972 10.3723 22.8587 9.26859 23.9623 7.90716 23.9623 6.54574 23.9623 5.44209 22.8586 5.44209 21.4972 5.44363 20.1364 6.5464 19.0337 7.9072 19.0321M7.9072 17.0321C5.4412 17.0321 3.44211 19.0312 3.44212 21.4972 3.44213 23.9632 5.44122 25.9623 7.90722 25.9623 10.3732 25.9623 12.3723 23.9632 12.3723 21.4972 12.3723 19.0312 10.3733 17.0321 7.90727 17.0321 7.90725 17.0321 7.90722 17.0321 7.9072 17.0321Z" class="MsftOfcResponsive_Fill_7823dc" fill="#7823DC"/><rect x="5.8122" y="14.0541" width="21.5238" height="1.99606" class="MsftOfcResponsive_Fill_7823dc" fill="#7823DC" transform="matrix(0.537192 -0.84346 0.84346 0.537192 -5.02526 20.9459)"/><path d="M5.713 20.345 0.542 25.438 4.193 18.997 15.625 1.785 17.309 2.857 5.713 20.345Z" class="MsftOfcResponsive_Fill_7823dc" fill="#7823DC"/><path d="M15.127 30.017 13.444 28.945 24.742 11.878 26.425 12.95 15.127 30.017Z" class="MsftOfcResponsive_Fill_7823dc" fill="#7823DC"/><path d="M19.1863 0.00881C16.7189 0.0101906 14.7198 2.01151 14.7212 4.47889 14.7215 5.07418 14.8408 5.6634 15.0721 6.21194L17.106 3.16421C17.1319 3.12307 17.1583 3.08303 17.1865 3.0436L17.2508 2.94717 17.2585 2.95644C18.091 1.88622 19.6335 1.69353 20.7037 2.52606 21.3044 2.99336 21.6545 3.71284 21.6514 4.4739 21.6505 4.94659 21.5106 5.40859 21.2491 5.80239L20.5607 6.93531 21.6006 8.22109C23.6733 6.89088 24.2752 4.13229 22.945 2.05959 22.1237 0.779863 20.7069 0.00684705 19.1863 0.00881022Z" class="MsftOfcResponsive_Fill_7823dc" fill="#7823DC"/><path d="M20.2159 8.83376 20.6484 9.13662C21.3961 8.00205 22.9219 7.68839 24.0565 8.43604 25.191 9.18369 25.5047 10.7095 24.7571 11.8441 24.7317 11.8825 24.7053 11.9202 24.6779 11.9572L26.3149 13.1032C27.759 11.1142 27.3173 8.3312 25.3284 6.88711 24.0306 5.94487 22.3263 5.77372 20.8671 6.43912L18.7498 9.7477Z" class="MsftOfcResponsive_Fill_7823dc" fill="#7823DC"/><path d="M0.774 25.043 4.029 19.273 4.704 19.973 5.169 23.973 0.774 25.043Z" class="MsftOfcResponsive_Fill_7823dc" fill="#7823DC"/></g></svg>