<svg viewBox="0 0 32 32" xmlns="http://www.w3.org/2000/svg" xmlns:xlink="http://www.w3.org/1999/xlink" id="Layer_1" overflow="hidden"><style>
.MsftOfcResponsive_Fill_7823dc {
 fill:#7823DC; 
}
</style>
<path d="M0 25 0 32 32 32 32 25 0 25ZM30 29.8 2 29.8 2 27.2 30 27.2 30 29.8Z" class="st0 MsftOfcResponsive_Fill_7823dc" fill="#7823DC"/><path d="M10.6 32 10.6 32 7.2 32 4.3 30 2 28.3 0 26.9 0 25.7 1.7 25.7 2.2 26 4.5 27.7 7.8 30Z" class="st0 MsftOfcResponsive_Fill_7823dc" fill="#7823DC"/><path d="M16.1 32 12.6 32 9.8 30 6.5 27.7 4.2 26 4.2 26 4.4 25.7 7.1 25.7 7.6 26 10 27.7 13.2 30Z" class="st0 MsftOfcResponsive_Fill_7823dc" fill="#7823DC"/><path d="M21.8 32 18.3 32 15.5 30 12.2 27.7 9.9 26 9.9 26 10.2 25.7 12.9 25.7 13.3 26 15.7 27.7 19 30Z" class="st0 MsftOfcResponsive_Fill_7823dc" fill="#7823DC"/><path d="M27.6 32 24.1 32 21.3 30 18 27.7 15.7 26 15.7 26 15.9 25.7 18.6 25.7 19.1 26 21.5 27.7 24.8 30Z" class="st0 MsftOfcResponsive_Fill_7823dc" fill="#7823DC"/><path d="M32 31.1 32 32 29.8 32 27 30 26.7 29.8 23.8 27.7 23.1 27.2 21.4 26 21.4 26 21.7 25.7 24.4 25.7 24.8 26 26.6 27.2 27.2 27.7 30 29.7Z" class="st0 MsftOfcResponsive_Fill_7823dc" fill="#7823DC"/><g><path d="M9 13.6C6.5 13.6 4.4 11.5 4.4 9 4.4 6.5 6.5 4.4 9 4.4 11.5 4.4 13.6 6.5 13.6 9 13.6 11.5 11.5 13.6 9 13.6ZM9 6.4C7.6 6.4 6.4 7.6 6.4 9 6.4 10.4 7.6 11.6 9 11.6 10.4 11.6 11.6 10.4 11.6 9 11.6 7.6 10.4 6.4 9 6.4Z" class="st0 MsftOfcResponsive_Fill_7823dc" fill="#7823DC"/><g><rect x="8" y="14.4" width="2" height="12.2" class="st0 MsftOfcResponsive_Fill_7823dc" fill="#7823DC"/><rect x="8" y="0" width="2" height="3.6" class="st0 MsftOfcResponsive_Fill_7823dc" fill="#7823DC"/></g><g><rect x="0" y="8" width="3.6" height="2" class="st0 MsftOfcResponsive_Fill_7823dc" fill="#7823DC"/><rect x="14.4" y="8" width="3.6" height="2" class="st0 MsftOfcResponsive_Fill_7823dc" fill="#7823DC"/></g><g><rect x="2.1" y="13.1" width="3.6" height="2" class="st0 MsftOfcResponsive_Fill_7823dc" fill="#7823DC" transform="matrix(0.7071 -0.7071 0.7071 0.7071 -8.8279 6.8948)"/><rect x="12.3" y="2.9" width="3.6" height="2" class="st0 MsftOfcResponsive_Fill_7823dc" fill="#7823DC" transform="matrix(0.7071 -0.7071 0.7071 0.7071 1.372 11.105)"/></g><g><rect x="2.9" y="2.1" width="2" height="3.6" class="st0 MsftOfcResponsive_Fill_7823dc" fill="#7823DC" transform="matrix(0.7071 -0.7071 0.7071 0.7071 -1.6228 3.9)"/><rect x="13.1" y="12.3" width="2" height="3.6" class="st0 MsftOfcResponsive_Fill_7823dc" fill="#7823DC" transform="matrix(0.7071 -0.7071 0.7071 0.7071 -5.8331 14.0999)"/></g></g><g><path d="M30.7 16.6 28.8 16.1 29.6 12.2 25.7 11.4 26.1 9.4 32 10.7Z" class="st0 MsftOfcResponsive_Fill_7823dc" fill="#7823DC"/></g><rect x="6.4" y="17.7" width="26.5" height="2" class="MsftOfcResponsive_Fill_7823dc" fill="#7823DC" transform="matrix(0.8405 -0.5418 0.5418 0.8405 -6.9809 13.6218)"/></svg>