<svg width="32" height="32" viewBox="0 0 32 32" xmlns="http://www.w3.org/2000/svg" xmlns:xlink="http://www.w3.org/1999/xlink" overflow="hidden"><defs></defs><g><g><defs><rect x="0" y="0" width="32" height="32" id="SVGID_1_" fill="#7823DC"/></defs><clipPath id="SVGID_2_"><use width="100%" height="100%" xlink:href="#SVGID_1_"></use></clipPath><path d="M2 4 30 4 30 20 2 20 2 4ZM0 2 0 22 32 22 32 6 28 2 0 2Z" fill="#7823DC" clip-path="url(#SVGID_2_)"/><path d="M18 28 14 28 14 22 18 22 18 28ZM20 20 12 20 12 30 20 30 20 20Z" fill="#7823DC" clip-path="url(#SVGID_2_)"/><rect x="6" y="28" width="20" height="2" fill="#7823DC" clip-path="url(#SVGID_2_)"/><path d="M19.2 13 16 16.2 12.8 13 10 13 16 19 22 13Z" fill="#7823DC" clip-path="url(#SVGID_2_)"/><rect x="8" y="13" width="2" height="7" fill="#7823DC" clip-path="url(#SVGID_2_)"/><rect x="22" y="13" width="2" height="7" fill="#7823DC" clip-path="url(#SVGID_2_)"/><g clip-path="url(#SVGID_2_)"><defs><rect x="0" y="0" width="32" height="32" id="SVGID_3_" fill="#7823DC"/></defs><clipPath id="SVGID_4_"><use width="100%" height="100%" xlink:href="#SVGID_3_"></use></clipPath><path d="M16 13C13.5 13 11.5 11 11.5 8.5 11.5 6 13.5 4 16 4 18.5 4 20.5 6 20.5 8.5 20.5 11 18.5 13 16 13ZM16 6C14.6 6 13.5 7.1 13.5 8.5 13.5 9.9 14.6 11 16 11 17.4 11 18.5 9.9 18.5 8.5 18.5 7.1 17.4 6 16 6Z" fill="#7823DC" clip-path="url(#SVGID_4_)"/></g></g></g></svg>