<svg viewBox="0 0 32 32" xmlns="http://www.w3.org/2000/svg" xmlns:xlink="http://www.w3.org/1999/xlink" id="Layer_1" overflow="hidden"><style>
.MsftOfcResponsive_Fill_7823dc {
 fill:#7823DC; 
}
</style>
<g><path d="M20.6 11 18.4 11C17.3 11 16.5 10.1 16.5 9.1L16.5 6.9C16.5 5.8 17.4 5 18.4 5L20.6 5C21.7 5 22.5 5.9 22.5 6.9L22.5 9.1C22.5 10.1 21.6 11 20.6 11ZM18.5 9 20.5 9 20.5 7 18.5 7 18.5 9Z" class="MsftOfcResponsive_Fill_7823dc" fill="#7823DC"/><path d="M13.6 11 11.4 11C10.3 11 9.5 10.1 9.5 9.1L9.5 6.9C9.5 5.8 10.4 5 11.4 5L13.6 5C14.7 5 15.5 5.9 15.5 6.9L15.5 9.1C15.5 10.1 14.6 11 13.6 11ZM11.5 9 13.5 9 13.5 7 11.5 7 11.5 9Z" class="MsftOfcResponsive_Fill_7823dc" fill="#7823DC"/><path d="M13.6 11 11.4 11C10.3 11 9.5 10.1 9.5 9.1L9.5 6.9C9.5 5.8 10.4 5 11.4 5L13.6 5C14.7 5 15.5 5.9 15.5 6.9L15.5 9.1C15.5 10.1 14.6 11 13.6 11ZM11.5 9 13.5 9 13.5 7 11.5 7 11.5 9Z" class="MsftOfcResponsive_Fill_7823dc" fill="#7823DC"/></g><path d="M20.6 19.5 18.4 19.5C17.3 19.5 16.5 18.6 16.5 17.6L16.5 15.4C16.5 14.3 17.4 13.5 18.4 13.5L20.6 13.5C21.7 13.5 22.5 14.4 22.5 15.4L22.5 17.6C22.5 18.6 21.6 19.5 20.6 19.5ZM18.5 17.5 20.5 17.5 20.5 15.5 18.5 15.5 18.5 17.5Z" class="MsftOfcResponsive_Fill_7823dc" fill="#7823DC"/><path d="M13.6 19.5 11.4 19.5C10.3 19.5 9.5 18.6 9.5 17.6L9.5 15.4C9.5 14.3 10.4 13.5 11.4 13.5L13.6 13.5C14.7 13.5 15.5 14.4 15.5 15.4L15.5 17.6C15.5 18.6 14.6 19.5 13.6 19.5ZM11.5 17.5 13.5 17.5 13.5 15.5 11.5 15.5 11.5 17.5Z" class="MsftOfcResponsive_Fill_7823dc" fill="#7823DC"/><path d="M13.6 28 11.4 28C10.3 28 9.5 27.1 9.5 26.1L9.5 23.9C9.5 22.8 10.4 22 11.4 22L13.6 22C14.7 22 15.5 22.9 15.5 23.9L15.5 26.1C15.5 27.1 14.6 28 13.6 28ZM11.5 26 13.5 26 13.5 24 11.5 24 11.5 26Z" class="MsftOfcResponsive_Fill_7823dc" fill="#7823DC"/><path d="M23 2C23.6 2 24 2.4 24 3L24 29C24 29.6 23.6 30 23 30L9 30C8.4 30 8 29.6 8 29L8 3C8 2.4 8.4 2 9 2L23 2M23 0 9 0C7.3 0 6 1.3 6 3L6 29C6 30.7 7.3 32 9 32L23 32C24.7 32 26 30.7 26 29L26 3C26 1.3 24.7 0 23 0L23 0Z" class="MsftOfcResponsive_Fill_7823dc" fill="#7823DC"/><path d="M20 28C19.4 28 19 27.6 19 27L19 23C19 22.4 19.4 22 20 22 20.6 22 21 22.4 21 23L21 27C21 27.6 20.6 28 20 28Z" class="MsftOfcResponsive_Fill_7823dc" fill="#7823DC"/><path d="M22 26 18 26C17.4 26 17 25.6 17 25 17 24.4 17.4 24 18 24L22 24C22.6 24 23 24.4 23 25 23 25.6 22.6 26 22 26Z" class="MsftOfcResponsive_Fill_7823dc" fill="#7823DC"/><path d="M20.5 3 11.5 3C10.9 3 10.5 2.6 10.5 2 10.5 1.4 10.9 1 11.5 1L20.5 1C21.1 1 21.5 1.4 21.5 2 21.5 2.6 21.1 3 20.5 3Z" class="MsftOfcResponsive_Fill_7823dc" fill="#7823DC"/><g><path d="M59.6 9 57.4 9C56.9 9 56.5 8.6 56.5 8.1L56.5 5.9C56.5 5.4 56.9 5 57.4 5L59.6 5C60.1 5 60.5 5.4 60.5 5.9L60.5 8.1C60.5 8.6 60.1 9 59.6 9Z" class="MsftOfcResponsive_Fill_7823dc" stroke="#000000" stroke-width="2" stroke-miterlimit="10" fill="#7823DC"/><path d="M52.6 9 50.4 9C49.9 9 49.5 8.6 49.5 8.1L49.5 5.9C49.5 5.4 49.9 5 50.4 5L52.6 5C53.1 5 53.5 5.4 53.5 5.9L53.5 8.1C53.5 8.6 53.1 9 52.6 9Z" class="MsftOfcResponsive_Fill_7823dc" stroke="#000000" stroke-width="2" stroke-miterlimit="10" fill="#7823DC"/><path d="M52.6 9 50.4 9C49.9 9 49.5 8.6 49.5 8.1L49.5 5.9C49.5 5.4 49.9 5 50.4 5L52.6 5C53.1 5 53.5 5.4 53.5 5.9L53.5 8.1C53.5 8.6 53.1 9 52.6 9Z" class="MsftOfcResponsive_Fill_7823dc" stroke="#000000" stroke-width="2" stroke-miterlimit="10" fill="#7823DC"/></g><path d="M59.6 17 57.4 17C56.9 17 56.5 16.6 56.5 16.1L56.5 13.9C56.5 13.4 56.9 13 57.4 13L59.6 13C60.1 13 60.5 13.4 60.5 13.9L60.5 16.1C60.5 16.6 60.1 17 59.6 17Z" class="MsftOfcResponsive_Fill_7823dc" stroke="#000000" stroke-width="2" stroke-miterlimit="10" fill="#7823DC"/><path d="M52.6 17 50.4 17C49.9 17 49.5 16.6 49.5 16.1L49.5 13.9C49.5 13.4 49.9 13 50.4 13L52.6 13C53.1 13 53.5 13.4 53.5 13.9L53.5 16.1C53.5 16.6 53.1 17 52.6 17Z" class="MsftOfcResponsive_Fill_7823dc" stroke="#000000" stroke-width="2" stroke-miterlimit="10" fill="#7823DC"/><path d="M52.6 17 50.4 17C49.9 17 49.5 16.6 49.5 16.1L49.5 13.9C49.5 13.4 49.9 13 50.4 13L52.6 13C53.1 13 53.5 13.4 53.5 13.9L53.5 16.1C53.5 16.6 53.1 17 52.6 17Z" class="MsftOfcResponsive_Fill_7823dc" stroke="#000000" stroke-width="2" stroke-miterlimit="10" fill="#7823DC"/><path d="M52.6 25 50.4 25C49.9 25 49.5 24.6 49.5 24.1L49.5 21.9C49.5 21.4 49.9 21 50.4 21L52.6 21C53.1 21 53.5 21.4 53.5 21.9L53.5 24.1C53.5 24.6 53.1 25 52.6 25Z" class="MsftOfcResponsive_Fill_7823dc" stroke="#000000" stroke-width="2" stroke-miterlimit="10" fill="#7823DC"/><path d="M52.6 25 50.4 25C49.9 25 49.5 24.6 49.5 24.1L49.5 21.9C49.5 21.4 49.9 21 50.4 21L52.6 21C53.1 21 53.5 21.4 53.5 21.9L53.5 24.1C53.5 24.6 53.1 25 52.6 25Z" class="MsftOfcResponsive_Fill_7823dc" stroke="#000000" stroke-width="2" stroke-miterlimit="10" fill="#7823DC"/><g><path d="M62 1C62.6 1 63 1.4 63 2L63 28C63 28.6 62.6 29 62 29L48 29C47.4 29 47 28.6 47 28L47 2C47 1.4 47.4 1 48 1L62 1M62-1 48-1C46.3-1 45 0.3 45 2L45 28C45 29.7 46.3 31 48 31L62 31C63.7 31 65 29.7 65 28L65 2C65 0.3 63.7-1 62-1L62-1Z" class="MsftOfcResponsive_Fill_7823dc" fill="#7823DC"/></g><g><path d="M55 28C54.4 28 54 28.4 54 29 54 29.6 54.4 30 55 30 55.6 30 56 29.6 56 29 56 28.4 55.6 28 55 28L55 28Z" class="MsftOfcResponsive_Fill_7823dc" fill="#7823DC"/></g><g><line x1="59" y1="21" x2="59" y2="25" stroke="#000000" stroke-width="2" stroke-miterlimit="10" fill="none"/></g><g><line x1="61" y1="23" x2="57" y2="23" stroke="#000000" stroke-width="2" stroke-miterlimit="10" fill="none"/></g><g><line x1="50.5" y1="1" x2="59.5" y2="1" stroke="#000000" stroke-width="2" stroke-miterlimit="10" fill="none"/></g></svg>