<svg viewBox="0 0 32 32" xmlns="http://www.w3.org/2000/svg" xmlns:xlink="http://www.w3.org/1999/xlink" id="Graphic" xml:space="preserve" overflow="hidden"><path d="M29.2 18 20.6 20.8 20.6 19.6 20.6 17.3 18.4 17.6 15.3 18 10.4 16 9.5 15.7 8.7 16.2 5.5 18 2.3 18 0.3 18 0.3 20 0.3 26 0.3 28 2.3 28 5.5 28 15.3 32 30.8 23.7 31.8 23.2 31.8 22 31.8 20 31.8 17.2 29.2 18 29.2 18 29.2 18 29.2 18 29.2 18ZM29.8 22 15 29.8 5.9 26 2.3 26 2.3 20 6 20 9.7 18 15.1 20 18.8 19.5 18.8 21.5 17.8 22 14.1 22.8 14.1 24.5 18 23.8 18 23.8 29.8 20 29.8 22 29.8 22 29.8 22 29.8 22 29.8 22Z" fill="#7823DC" fill-rule="evenodd" clip-rule="evenodd"/><g><rect x="8" y="11.1" width="16" height="1.9" fill="#7823DC"/><path d="M13 2 13 11 11 11 11 2 13 2M15 0 9 0 9 13 15 13 15 0 15 0Z" fill="#7823DC"/><path d="M17 8 17 11 15 11 15 8 17 8M19 6 13 6 13 13 19 13 19 6 19 6Z" fill="#7823DC"/><path d="M21 5 21 11 19 11 19 5 21 5M23 3 17 3 17 13 23 13 23 3 23 3Z" fill="#7823DC"/></g></svg>