<svg viewBox="0 0 52.59 52.82" xmlns="http://www.w3.org/2000/svg" xmlns:xlink="http://www.w3.org/1999/xlink" id="Grid" overflow="hidden"><defs></defs><path d="M26.31 38.56 22.28 35.73 22.28 30.72 26.27 27.92 30.26 30.72 30.26 35.55 26.31 38.56ZM25.56 34.02 26.23 34.49 26.97 33.93 26.97 32.45 26.27 31.96 25.56 32.46 25.56 34.03Z" stroke-width="0" fill="#7823DC"/><path d="M26.31 52.82 20.94 49.05 20.94 42.14 26.3 38.5 31.6 42.15 31.6 48.79 26.31 52.82ZM24.23 47.33 26.23 48.74 28.31 47.15 28.31 43.88 26.29 42.49 24.23 43.89 24.23 47.34Z" stroke-width="0" fill="#7823DC"/><path d="M26.3 28.01C11.8 28.01 0 15.45 0 0L3.29 0C3.29 13.63 13.61 24.72 26.3 24.72 38.99 24.72 49.31 13.63 49.31 0L52.6 0C52.6 15.45 40.8 28.01 26.3 28.01Z" stroke-width="0" fill="#7823DC"/></svg>