<svg viewBox="0 0 31.99 31.95" xmlns="http://www.w3.org/2000/svg" xmlns:xlink="http://www.w3.org/1999/xlink" id="Layer_1" overflow="hidden"><style>
.MsftOfcThm_Text2_Fill_v2 {
 fill:#7823DC; 
}
</style>
<defs></defs><path d="M15.98 25.62C11.48 25.62 8.08 23.6 8.08 20.91L8.12 20.63 14.11 0 17.85 0 23.88 20.91C23.88 23.51 20.34 25.62 15.98 25.62ZM10.09 21.03C10.23 22.28 12.61 23.62 15.98 23.62 19.35 23.62 21.72 22.25 21.87 21.03L16.35 2 15.61 2 10.08 21.03Z" class="MsftOfcThm_Text2_Fill_v2" stroke-width="0" fill="#7823DC"/><path d="M20.63 13.97 20.17 13.97C17.31 13.97 14.49 13.05 12 11.32L13.15 9.68C15.3 11.18 17.72 11.97 20.17 11.97L20.63 11.97 20.63 13.97Z" class="MsftOfcThm_Text2_Fill_v2" stroke-width="0" fill="#7823DC"/><path d="M21.78 18.92 18.79 18.92C15.66 18.92 12.62 18.04 9.76 16.3L10.8 14.59C13.34 16.13 16.03 16.92 18.79 16.92L21.78 16.92 21.78 18.92Z" class="MsftOfcThm_Text2_Fill_v2" stroke-width="0" fill="#7823DC"/><path d="M15.99 31.95 0 21.7 10.12 15.21 11.2 16.89 3.71 21.7 15.99 29.58 28.28 21.7 21.24 17.18 22.32 15.5 31.99 21.7 15.99 31.95Z" class="MsftOfcThm_Text2_Fill_v2" stroke-width="0" fill="#7823DC"/></svg>