<svg viewBox="0 0 32 32" xmlns="http://www.w3.org/2000/svg" xmlns:xlink="http://www.w3.org/1999/xlink" xml:space="preserve" overflow="hidden"><style>
.MsftOfcResponsive_Fill_7823dc {
 fill:#7823DC; 
}
</style>
<g id="Layer_3"></g><g id="Layer_1"></g><g id="Layer_2"><g><path d="M8.56 24.52C3.88 24.52 0.07 20.71 0.07 16.03L0.07 15.03 17.05 15.03 17.05 16.03C17.05 20.71 13.24 24.52 8.56 24.52ZM2.15 17.02C2.63 20.13 5.32 22.51 8.56 22.51 11.8 22.51 14.49 20.13 14.97 17.02L2.15 17.02Z" class="st1 MsftOfcResponsive_Fill_7823dc" fill="#7823DC"/><path d="M32.03 17.02 15.05 17.02 15.05 16.02C15.05 11.34 18.86 7.53 23.54 7.53 28.22 7.53 32.03 11.34 32.03 16.02L32.03 17.02ZM17.13 15.02 29.96 15.02C29.48 11.91 26.79 9.53 23.55 9.53 20.3 9.53 17.61 11.92 17.13 15.02Z" class="st1 MsftOfcResponsive_Fill_7823dc" fill="#7823DC"/><path d="M17.05 17.02 16.05 17.02C11.37 17.02 7.56 13.21 7.56 8.53 7.56 3.85 11.37 0.04 16.05 0.04L17.05 0.04 17.05 17.02ZM15.05 2.12C11.95 2.6 9.56 5.3 9.56 8.53 9.56 11.77 11.94 14.46 15.05 14.94L15.05 2.12Z" class="st1 MsftOfcResponsive_Fill_7823dc" fill="#7823DC"/><path d="M16.05 32.01 15.05 32.01 15.05 15.02 16.05 15.02C20.73 15.02 24.54 18.83 24.54 23.51 24.54 28.19 20.73 32.01 16.05 32.01ZM17.05 17.1 17.05 29.93C20.16 29.45 22.54 26.76 22.54 23.52 22.54 20.28 20.16 17.58 17.05 17.1Z" class="st1 MsftOfcResponsive_Fill_7823dc" fill="#7823DC"/></g></g></svg>