<svg viewBox="0 0 32 32" xmlns="http://www.w3.org/2000/svg" xmlns:xlink="http://www.w3.org/1999/xlink" id="Graphic" overflow="hidden"><defs></defs><path d="M4 21.88C5.06591 21.88 5.93 22.7441 5.93 23.81 5.93 24.8759 5.06591 25.74 4 25.74 2.93409 25.74 2.07 24.8759 2.07 23.81 2.06446 22.7496 2.91957 21.8855 3.97995 21.88 3.98663 21.88 3.99332 21.88 4 21.88M4 19.88C1.82952 19.88 0.07 21.6395 0.07 23.81 0.07 25.9805 1.82952 27.74 4 27.74 6.17048 27.74 7.93 25.9805 7.93 23.81 7.93 21.6395 6.17048 19.88 4 19.88Z" fill="#7823DC"/><path d="M10 8.92C11.0659 8.92 11.93 9.78409 11.93 10.85 11.93 11.9159 11.0659 12.78 10 12.78 8.93409 12.78 8.07 11.9159 8.07 10.85 8.07 9.78409 8.93409 8.92 10 8.92M10 6.92C7.82952 6.92 6.07 8.67952 6.07 10.85 6.07 13.0205 7.82952 14.78 10 14.78 12.1705 14.78 13.93 13.0205 13.93 10.85 13.93 8.67952 12.1705 6.92 10 6.92Z" fill="#7823DC"/><path d="M20.07 26C21.1359 26.0007 21.9994 26.8654 21.9987 27.9313 21.998 28.9972 21.1334 29.8607 20.0675 29.86 19.0293 29.8593 18.1777 29.0375 18.14 28 18.0958 26.9405 18.9188 26.0458 19.9783 26.0016 20.0088 26.0004 20.0394 25.9998 20.07 26M20.07 24C17.8995 24.0003 16.1403 25.7601 16.1406 27.9306 16.141 30.1011 17.9008 31.8603 20.0712 31.86 22.2142 31.8597 23.9618 30.1426 24 28 24.0331 25.8243 22.2962 24.0336 20.1205 24.0004 20.1036 24.0002 20.0868 24 20.07 24Z" fill="#7823DC"/><path d="M28 2.1C29.0659 2.10013 29.9299 2.96432 29.9298 4.03023 29.9296 5.09614 29.0654 5.96013 27.9995 5.96 26.9336 5.95987 26.0696 5.09568 26.0698 4.02977 26.0698 4.01984 26.0698 4.00992 26.07 4 26.0864 2.94582 26.9457 2.09987 28 2.1M28 0.1C25.8295 0.100063 24.0701 1.85964 24.0701 4.03011 24.0702 6.20059 25.8298 7.96006 28.0002 7.96 30.1707 7.95994 31.9302 6.20036 31.9301 4.02989 31.9301 4.01992 31.9301 4.00996 31.93 4 31.9081 1.84353 30.1566 0.105363 28 0.1Z" fill="#7823DC"/><rect x="14.13" y="15.16" width="20.4" height="2" fill="#7823DC" transform="matrix(0.277985 -0.960585 0.960585 0.277985 2.05 35.04)"/><rect x="14" y="12.78" width="2" height="14" fill="#7823DC" transform="matrix(0.87 -0.5 0.5 0.87 -7.88 10.15)"/><rect x="2.74" y="15.85" width="8.53" height="2" fill="#7823DC" transform="matrix(0.5 -0.866025 0.866025 0.5 -11.09 14.49)"/></svg>