<svg viewBox="0 0 29.22 29.22" xmlns="http://www.w3.org/2000/svg" xmlns:xlink="http://www.w3.org/1999/xlink" xml:space="preserve" overflow="hidden"><style>
.MsftOfcResponsive_Fill_7823dc {
 fill:#7823DC; 
}
</style>
<g id="Layer_3"></g><g id="Layer_1"></g><g id="Layer_2"></g><g id="Layer_4"></g><g id="Layer_5"><path d="M14.61 16.57C12.7 16.57 11.16 18.17 11.16 19.49 11.16 21.39 13.75 21.39 14.61 21.39 15.47 21.39 18.06 21.39 18.06 19.49 18.06 18.17 16.52 16.57 14.61 16.57ZM16.17 19.47C15.95 19.55 15.49 19.64 14.61 19.64 13.73 19.64 13.27 19.55 13.05 19.47L12.91 19.42 12.98 19.29C13.19 18.88 13.83 18.31 14.61 18.31 15.39 18.31 16.03 18.88 16.24 19.29L16.31 19.42 16.17 19.47Z" class="MsftOfcResponsive_Fill_7823dc" fill="#7823DC"/><path d="M19.6 9.47C18.96 9.47 18.14 9.78 17.17 10.41 15.35 11.58 14.75 12.69 15.41 13.71 15.83 14.37 16.8 14.81 17.83 14.81 18.49 14.81 19.13 14.63 19.66 14.29 21.18 13.32 21.58 11.25 20.91 10.19 20.6 9.7 20.16 9.47 19.6 9.47ZM19.47 11.38C19.47 11.73 19.31 12.42 18.71 12.8 18.42 12.98 18.12 13.05 17.84 13.05 17.54 13.05 17.27 12.98 17.1 12.9L16.94 12.83 17.06 12.7C17.21 12.54 17.51 12.27 18.12 11.87 18.74 11.48 19.11 11.32 19.31 11.25L19.47 11.2 19.47 11.38Z" class="MsftOfcResponsive_Fill_7823dc" fill="#7823DC"/><path d="M8.14 12.29C8.38 13.12 8.88 13.82 9.57 14.26 10.1 14.6 10.74 14.78 11.4 14.78 12.42 14.78 13.4 14.34 13.82 13.68 14.47 12.66 13.88 11.55 12.06 10.38 11.34 9.92 10.78 9.65 10.28 9.52 10.06 9.46 9.86 9.44 9.68 9.44 8.89 9.44 8.48 9.92 8.33 10.16 7.98 10.69 7.91 11.49 8.14 12.29ZM9.91 11.24C10.12 11.3 10.49 11.46 11.11 11.86 11.72 12.25 12.03 12.53 12.17 12.69L12.28 12.82 12.12 12.89C11.95 12.96 11.69 13.04 11.38 13.04 11.1 13.04 10.79 12.98 10.51 12.79 9.91 12.41 9.75 11.71 9.75 11.36L9.75 11.19 9.91 11.24Z" class="MsftOfcResponsive_Fill_7823dc" fill="#7823DC"/><path d="M22.54 20.76 20.6 20.29C20.68 19.98 20.83 19.55 21.05 18.96 21.61 17.45 22.55 14.93 22.55 12.83 22.55 6.88 18.99 2.04 14.61 2.04 10.23 2.04 6.67 6.88 6.67 12.83 6.67 15.12 7.47 17.21 8.18 19.05 8.3 19.36 8.41 19.65 8.52 19.94L6.64 20.64C6.54 20.36 6.43 20.07 6.31 19.77 5.58 17.87 4.66 15.5 4.66 12.83 4.66 5.78 9.12 0.04 14.6 0.04 20.08 0.04 24.54 5.78 24.54 12.83 24.54 15.29 23.52 18.03 22.91 19.66 22.75 20.13 22.59 20.57 22.54 20.76Z" class="MsftOfcResponsive_Fill_7823dc" fill="#7823DC"/><path d="M6.06 29.16 5.27 27.33C8.52 25.92 6.56 20.41 6.54 20.35L8.42 19.66C8.52 19.96 11.04 27.01 6.06 29.16Z" class="MsftOfcResponsive_Fill_7823dc" fill="#7823DC"/><path d="M23.15 29.16C18.18 27 20.71 19.86 20.82 19.56L22.7 20.24C22.68 20.3 20.7 25.92 23.95 27.33L23.15 29.16Z" class="MsftOfcResponsive_Fill_7823dc" fill="#7823DC"/></g></svg>