<svg viewBox="0 0 32 32" xmlns="http://www.w3.org/2000/svg" xmlns:xlink="http://www.w3.org/1999/xlink" xml:space="preserve" overflow="hidden"><style>
.MsftOfcResponsive_Fill_7823dc {
 fill:#7823DC; 
}
</style>
<g id="Layer_3"></g><g id="Layer_1"></g><g id="Layer_2"></g><g id="Layer_4"></g><g id="Layer_5"><path d="M22.39 7.44C20.35 7.44 18.69 5.78 18.69 3.74 18.69 1.7 20.35 0.04 22.39 0.04 24.43 0.04 26.09 1.7 26.09 3.74 26.09 5.78 24.43 7.44 22.39 7.44ZM22.39 2.03C21.45 2.03 20.69 2.79 20.69 3.73 20.69 4.67 21.45 5.43 22.39 5.43 23.33 5.43 24.09 4.67 24.09 3.73 24.09 2.79 23.33 2.03 22.39 2.03Z" class="st0 MsftOfcResponsive_Fill_7823dc" fill="#7823DC"/><path d="M13.72 31.9C12.89 31.9 9.71 31.74 7.33 29.48 5.57 27.8 4.68 25.4 4.68 22.34L4.67 14.62 11.59 21.53 10.18 22.95 6.68 19.46 6.68 22.35C6.68 24.83 7.36 26.74 8.7 28.02 10.79 30.02 13.85 29.9 13.88 29.9 21.26 29.9 21.38 23.38 21.38 23.1L21.4 6.44 23.4 6.44 23.37 23.1C23.37 23.25 23.35 26.82 20.78 29.39 19.12 31.06 16.81 31.9 13.92 31.9 13.91 31.9 13.84 31.9 13.72 31.9Z" class="st0 MsftOfcResponsive_Fill_7823dc" fill="#7823DC"/></g></svg>