<svg viewBox="0 0 32.04 32.21" xmlns="http://www.w3.org/2000/svg" xmlns:xlink="http://www.w3.org/1999/xlink" id="Outline_Final_icon" overflow="hidden"><defs></defs><path d="M16.25 9.36C15.58 9.36 15.04 9.9 15.04 10.57 15.04 11.24 15.58 11.78 16.25 11.78 16.92 11.78 17.46 11.24 17.46 10.57 17.46 9.9 16.92 9.36 16.25 9.36Z" fill="#7823DC"/><path d="M22.53 12.28 21.32 10.54 22.53 8.82 21.15 6.07 18.66 6.4 18.01 4.46 14.58 4.46 13.84 6.4 11.71 6.09 9.96 8.63 11.39 10.62 9.87 12.49 11.71 15.09 13.83 14.87 14.51 16.74 17.98 16.59 18.85 14.64 21.25 14.86 22.54 12.29ZM20.07 12.73 17.6 12.51 16.65 14.64 15.88 14.67 15.16 12.72 12.66 12.98 12.37 12.57 13.9 10.69 12.4 8.61 12.65 8.25 15.14 8.61 15.96 6.47 16.57 6.47 17.29 8.61 20 8.25 20.2 8.66 18.87 10.55 20.2 12.47 20.05 12.76Z" fill="#7823DC"/><path d="M12.19 22.45C12.19 24.62 13.95 26.38 16.12 26.38 18.29 26.38 20.05 24.62 20.05 22.45 20.05 20.28 18.29 18.52 16.12 18.52 13.95 18.52 12.19 20.28 12.19 22.45ZM18.06 22.45C18.06 23.52 17.19 24.38 16.13 24.38 15.07 24.38 14.2 23.51 14.2 22.45 14.2 21.39 15.07 20.52 16.13 20.52 17.19 20.52 18.06 21.39 18.06 22.45Z" fill="#7823DC"/><path d="M23.75 22.45C23.75 23.95 24.97 25.17 26.47 25.17 27.97 25.17 29.19 23.95 29.19 22.45 29.19 20.95 27.97 19.73 26.47 19.73 24.97 19.73 23.75 20.95 23.75 22.45ZM27.2 22.45C27.2 22.85 26.88 23.17 26.48 23.17 26.08 23.17 25.76 22.85 25.76 22.45 25.76 22.05 26.08 21.73 26.48 21.73 26.88 21.73 27.2 22.05 27.2 22.45Z" fill="#7823DC"/><path d="M5.56 25.17C7.06 25.17 8.28 23.95 8.28 22.45 8.28 20.95 7.06 19.73 5.56 19.73 4.06 19.73 2.84 20.95 2.84 22.45 2.84 23.95 4.06 25.17 5.56 25.17ZM5.56 21.73C5.96 21.73 6.28 22.05 6.28 22.45 6.28 22.85 5.96 23.17 5.56 23.17 5.16 23.17 4.84 22.85 4.84 22.45 4.84 22.05 5.16 21.73 5.56 21.73Z" fill="#7823DC"/><path d="M9.77 19.7 11.71 19.2C11.69 19.11 11.15 17.07 9.45 15.38 9.42 15.35 6.28 12.16 7.76 7.47 9.32 2.53 14.26 2 16.31 2 19.8 2 22.31 3.47 23.97 6.49 25.63 9.51 25.27 11.57 24.22 13.73 24.16 13.86 23.84 14.29 23.59 14.63 22.32 16.37 21.17 18.04 21.12 19.32L23.12 19.4C23.15 18.62 24.59 16.65 25.2 15.81 25.65 15.2 25.89 14.86 26.01 14.6 27.1 12.36 27.91 9.52 25.71 5.52 23.71 1.86 20.54 0 16.32 0 13.83 0 7.82 0.67 5.86 6.87 4.38 11.54 6.64 15.41 8.04 16.81 9.33 18.09 9.76 19.69 9.77 19.71Z" fill="#7823DC"/><path d="M7.5 32.13 9.5 32.13 9.5 30.8 22.21 30.8 22.21 32.13 24.21 32.13 24.21 28.8 7.5 28.8 7.5 32.13Z" fill="#7823DC"/><path d="M11.12 28.05 11.12 27.72 11.12 26.04 0 26.04 0 32.13 2 32.13 2 28.04 10.12 28.04 11.12 28.05Z" fill="#7823DC"/><path d="M28.21 26.12 20.91 26.12 20.91 27.79 20.91 28.13 21.91 28.12 30.04 28.12 30.04 32.21 32.04 32.21 32.04 29.95 28.21 26.12Z" fill="#7823DC"/></svg>