<svg viewBox="0 0 32 32" xmlns="http://www.w3.org/2000/svg" xmlns:xlink="http://www.w3.org/1999/xlink" id="Layer_5" overflow="hidden"><defs></defs><path d="M5.25 19.98 7.98 19.98 7.98 31.98 9.98 31.98 9.98 17.98 5.25 17.98 5.25 19.98Z" fill="#7823DC"/><path d="M2.01 19.67 3.06 22.56 4.94 21.87 2.8 16 1.99 16 1.99 15.98 0.09 15.99-0.01 15.99 0.03 23.96 0.09 23.98 3.97 25.02 3.97 31.98 5.97 31.98 5.97 23.48 2.02 22.42 2.01 19.67Z" fill="#7823DC"/><path d="M3.51 12.47C3.51 11.03 2.34 9.85 0.89 9.85 0.58 9.85 0.28 9.91 -3.33067e-16 10.02L-3.33067e-16 14.93C0.28 15.03 0.57 15.1 0.89 15.1 2.33 15.1 3.51 13.93 3.51 12.48ZM0.27 12.47C0.27 12.13 0.55 11.85 0.89 11.85 1.23 11.85 1.51 12.13 1.51 12.47 1.51 12.81 1.23 13.09 0.89 13.09 0.55 13.09 0.27 12.81 0.27 12.47Z" fill="#7823DC"/><path d="M17.27 19.98 20 19.98 20 31.98 22 31.98 22 17.98 17.27 17.98 17.27 19.98Z" fill="#7823DC"/><path d="M14.03 19.67 15.08 22.56 16.96 21.87 14.82 16 14.01 16 14.01 15.98 12.01 15.99 12.05 23.96 15.99 25.02 15.99 31.98 17.99 31.98 17.99 23.48 14.04 22.42 14.03 19.67Z" fill="#7823DC"/><path d="M15.62 12.47C15.62 11.03 14.45 9.85 13 9.85 11.55 9.85 10.38 11.02 10.38 12.47 10.38 13.92 11.55 15.09 13 15.09 14.45 15.09 15.62 13.92 15.62 12.47ZM12.38 12.47C12.38 12.13 12.66 11.85 13 11.85 13.34 11.85 13.62 12.13 13.62 12.47 13.62 12.81 13.34 13.09 13 13.09 12.66 13.09 12.38 12.81 12.38 12.47Z" fill="#7823DC"/><rect x="29.25" y="17.98" width="2.74" height="2" fill="#7823DC"/><path d="M26 19.67 27.05 22.56 28.93 21.87 26.79 16 25.98 16 25.98 15.98 23.98 15.99 24.02 23.96 27.97 25.02 27.97 31.98 29.97 31.98 29.97 23.48 26.02 22.42 26 19.67Z" fill="#7823DC"/><path d="M27.6 12.47C27.6 11.03 26.43 9.85 24.98 9.85 23.53 9.85 22.36 11.02 22.36 12.47 22.36 13.92 23.53 15.09 24.98 15.09 26.43 15.09 27.6 13.92 27.6 12.47ZM24.36 12.47C24.36 12.13 24.64 11.85 24.98 11.85 25.32 11.85 25.6 12.13 25.6 12.47 25.6 12.81 25.32 13.09 24.98 13.09 24.64 13.09 24.36 12.81 24.36 12.47Z" fill="#7823DC"/></svg>