<svg viewBox="0 0 32 32" xmlns="http://www.w3.org/2000/svg" xmlns:xlink="http://www.w3.org/1999/xlink" id="Layer_1" overflow="hidden"><style>
.MsftOfcThm_Text2_Fill_v2 {
 fill:#7823DC; 
}
</style>
<defs></defs><path d="M3.14 31.53 1.26 30.85C1.98 28.88 2.98 27.1 4.25 25.54L2.44 24.48 3.41 23.57C4.84 22.23 6.59 21.15 8.62 20.36L7.54 18.52 8.89 18.23C10.84 17.81 12.85 17.76 15 18.1L15 15.88 16.34 16.37C18.31 17.09 20.09 18.09 21.65 19.36L22.71 17.55 23.62 18.52C24.96 19.95 26.04 21.7 26.83 23.73L28.67 22.65 28.96 24C29.46 26.31 29.43 28.71 28.86 31.33L26.9 30.91C27.29 29.1 27.4 27.43 27.23 25.82L25.71 26.72 25.33 25.53C24.77 23.78 24 22.24 23.03 20.95L22.11 22.51 21.2 21.65C19.97 20.49 18.56 19.54 16.99 18.81L16.99 20.56 15.78 20.3C13.98 19.91 12.3 19.8 10.69 19.97L11.59 21.49 10.4 21.87C8.65 22.43 7.11 23.2 5.82 24.17L7.38 25.09 6.52 26C5.04 27.57 3.9 29.44 3.13 31.56Z" class="MsftOfcThm_Text2_Fill_v2" stroke-width="0" fill="#7823DC"/><path d="M25.1 31.08 23.1 31.08C23.1 27.16 19.92 23.98 16 23.98 12.08 23.98 8.9 27.17 8.9 31.08L6.9 31.08C6.9 26.06 10.98 21.98 16 21.98 21.02 21.98 25.1 26.06 25.1 31.08Z" class="MsftOfcThm_Text2_Fill_v2" stroke-width="0" fill="#7823DC"/><path d="M19 30.08 17 30.08C17 29.66 16.57 29.18 16 29.18 15.5 29.18 15 29.49 15 30.08L13 30.08C13 28.45 14.32 27.18 16 27.18 17.68 27.18 19 28.51 19 30.08Z" class="MsftOfcThm_Text2_Fill_v2" stroke-width="0" fill="#7823DC"/><rect x="0" y="30" width="32" height="2" class="MsftOfcThm_Text2_Fill_v2" stroke-width="0" fill="#7823DC"/><rect x="15" y="5.08" width="2" height="4" class="MsftOfcThm_Text2_Fill_v2" stroke-width="0" fill="#7823DC"/><rect x="15" y="10" width="2" height="2" class="MsftOfcThm_Text2_Fill_v2" stroke-width="0" fill="#7823DC"/><path d="M24.14 15 7.86 15C7.32 15 6.83 14.7 6.57 14.23 6.32 13.75 6.35 13.18 6.65 12.73L14.79 0.64C15.06 0.24 15.51 0 16 0L16 0C16.49 0 16.94 0.24 17.21 0.65L25.35 12.73C25.65 13.18 25.68 13.75 25.43 14.23 25.18 14.71 24.68 15 24.14 15ZM8.88 13 23.12 13 16 2.43 8.88 13ZM15.55 1.76C15.55 1.76 15.55 1.76 15.55 1.76L15.55 1.76Z" class="MsftOfcThm_Text2_Fill_v2" stroke-width="0" fill="#7823DC"/></svg>