<svg viewBox="0 0 32.15 31.98" xmlns="http://www.w3.org/2000/svg" xmlns:xlink="http://www.w3.org/1999/xlink" id="Layer_1" overflow="hidden"><style>
.MsftOfcResponsive_Fill_7823dc {
 fill:#7823DC; 
}
</style>
<defs></defs><path d="M32.15 8.46 32.15 6.35 29.05 6.35C26.71 1.07 20.58-1.41 15.22 0.81 16.38 3.6 18.59 5.64 21.2 6.66 19.88 7.04 18.67 7.74 17.68 8.73L17.57 8.84C15.38 7.62 11.98 8.45 9.45 10.98 6.56 13.87 5.89 17.89 7.96 19.95 10.03 22.02 14.04 21.35 16.94 18.45 19.47 15.92 20.3 12.52 19.08 10.33L19.19 10.22C20.33 9.08 21.85 8.45 23.46 8.45L25.81 8.45 25.81 10.71C23.39 11.4 21.58 14.38 21.58 17.97 21.58 22.06 23.95 25.37 26.87 25.37 29.79 25.37 32.16 22.06 32.16 17.97 32.16 14.39 30.34 11.4 27.93 10.72L27.93 8.45 32.16 8.45ZM15.44 16.96C14.14 18.26 12.52 19.03 11.11 19.03 10.62 19.03 9.94 18.93 9.46 18.45 8.4 17.39 8.75 14.67 10.96 12.47 12.26 11.17 13.88 10.39 15.3 10.39 15.79 10.39 16.47 10.49 16.95 10.97 18.01 12.03 17.66 14.75 15.45 16.95ZM25.09 5.28C22.47 5.28 20.06 4.1 18.47 2.15 18.75 2.12 19.03 2.11 19.31 2.11 21.93 2.11 24.34 3.29 25.93 5.24 25.65 5.27 25.37 5.28 25.09 5.28ZM30.03 17.97C30.03 21.08 28.36 23.26 26.86 23.26 25.36 23.26 23.69 21.09 23.69 17.97 23.69 14.85 25.36 12.68 26.86 12.68 28.36 12.68 30.03 14.85 30.03 17.97Z" class="MsftOfcResponsive_Fill_7823dc" fill="#7823DC"/><path d="M7.02 31.98C3.08 31.98 0 30.03 0 27.55 0 25.07 3.08 23.12 7.02 23.12 10.96 23.12 14.04 25.07 14.04 27.55 14.04 30.03 10.96 31.98 7.02 31.98ZM7.02 25.12C4.15 25.12 2 26.4 2 27.55 2 28.7 4.15 29.98 7.02 29.98 9.89 29.98 12.04 28.7 12.04 27.55 12.04 26.4 9.89 25.12 7.02 25.12Z" class="MsftOfcResponsive_Fill_7823dc" fill="#7823DC"/></svg>