<svg viewBox="0 0 512 512" xmlns="http://www.w3.org/2000/svg" xmlns:xlink="http://www.w3.org/1999/xlink" id="Capa_1" overflow="hidden"><g><g><path d="M497 0 406 0C381.187 0 361 20.187 361 45 361 69.813 381.187 90 406 90L421 90C437.262 90 451 104.196 451 121 451 137.804 437.262 152 421 152L406.037 152C364.37 96.675 299.242 62 226 62 101.383 62 0 162.935 0 287 0 411.065 101.383 512 226 512 350.724 512 451 410.744 451 287 451 249.738 441.995 213.862 425.029 181.846 456.106 179.729 481 153.024 481 121 481 88.104 454.416 60 421 60L406 60C397.729 60 391 53.271 391 45 391 36.729 397.729 30 406 30L497 30C505.284 30 512 23.284 512 15 512 6.716 505.284 0 497 0ZM30 287C30 179.477 117.925 92 226 92 240.356 92 254.35 93.574 267.831 96.532 151.462 118.659 61 221.161 61 347 61 364.975 62.921 382.91 66.664 400.428 43.599 368.448 30 329.276 30 287ZM114.575 447.33C98.946 416.042 91 382.31 91 347 91 222.935 191.935 122 316 122 320.842 122 325.722 122.162 330.557 122.47 343.79 130.909 355.942 140.899 366.754 152.183 211.732 157.672 96.444 299.985 125.39 454.287 121.704 452.084 118.099 449.761 114.575 447.33ZM226 482C202.904 482 180.734 477.993 160.14 470.662 148.037 429.552 147.644 384.286 160.796 341.297 220.212 362.042 262.29 414.334 269.795 476.951 255.605 480.259 240.928 482 226 482ZM330.353 451.499C320.374 457.833 309.821 463.274 298.826 467.735 288.044 395.619 237.609 336.726 171.48 313.265 177.806 299.518 185.479 286.518 194.327 274.426 272.824 287.968 331 356.393 331 437 331 441.835 330.771 446.687 330.353 451.499ZM390.319 391.972C381.884 405.094 371.94 417.071 360.781 427.709 356.755 342.362 297.559 270.162 216.398 248.568 229.021 235.853 243.148 224.635 258.487 215.202 335.598 230.52 391 297.695 391 377 391 381.992 390.763 387.011 390.319 391.972ZM415.751 332.116C400.853 269.133 356.235 219.028 298.248 195.854 322.491 186.898 348.684 182 376 182 380.843 182 385.712 182.169 390.552 182.478 409.821 212.707 421 248.571 421 287 421 302.215 419.252 317.346 415.751 332.116Z" fill="#7823DC"/></g></g><g></g><g></g><g></g><g></g><g></g><g></g><g></g><g></g><g></g><g></g><g></g><g></g><g></g><g></g><g></g></svg>