<svg viewBox="0 0 32 32" xmlns="http://www.w3.org/2000/svg" xmlns:xlink="http://www.w3.org/1999/xlink" id="Layer_1" overflow="hidden"><g><path d="" fill="#7823DC"/></g><path d="" stroke="#FF0000" stroke-width="2" stroke-miterlimit="10" fill="#7823DC"/><path d="M16.5 3.8C17.1 3.8 17.5 4.2 17.5 4.8L17.5 8.6 16 9.5 14.5 8.6 14.5 4.8C14.5 4.2 14.9 3.8 15.5 3.8L16.5 3.8M16.5 1.8 15.5 1.8C13.8 1.8 12.5 3.1 12.5 4.8L12.5 9.8 16 11.8 19.5 9.8 19.5 4.8C19.5 3.2 18.2 1.8 16.5 1.8L16.5 1.8Z" fill="#7823DC"/><path d="M16 4.8C15.4 4.8 15 5.2 15 5.8 15 6.4 15.4 6.8 16 6.8 16.6 6.8 17 6.4 17 5.8 17 5.3 16.6 4.8 16 4.8L16 4.8Z" fill="#7823DC"/><g><path d="M8.1 29.7 4.9 32.2 14.1 9 16 9.7Z" fill="#7823DC"/><path d="M23.9 29.7 27.1 32.2 17.9 9 16 9.7Z" fill="#7823DC"/></g><path d="M16 16.7C15 16.7 14.1 16.3 13.5 15.7 12.9 15.1 12.5 14.3 12.5 13.4L14.5 13.4C14.5 13.7 14.6 14 14.9 14.2 15.2 14.5 15.6 14.7 16.1 14.7 16.9 14.7 17.5 14.1 17.6 13.5L19.6 13.6C19.4 15.3 17.9 16.7 16 16.7 16 16.7 16 16.7 16 16.7Z" fill="#7823DC"/><rect x="15" y="0" width="2" height="2.1" fill="#7823DC"/></svg>