<svg width="32" height="32" viewBox="0 0 32 32" xmlns="http://www.w3.org/2000/svg" xmlns:xlink="http://www.w3.org/1999/xlink" overflow="hidden"><defs></defs><g><g><defs><rect x="0" y="0" width="32" height="32" id="SVGID_1_" fill="#7823DC"/></defs><clipPath id="SVGID_2_"><use width="100%" height="100%" xlink:href="#SVGID_1_"></use></clipPath><path d="M4.9 32 6.9 32 6.9 23 4.9 21Z" fill="#7823DC" clip-path="url(#SVGID_2_)"/><path d="M9 23 9 32 11 32 11 21Z" fill="#7823DC" clip-path="url(#SVGID_2_)"/><rect x="3.9" y="19.4" width="4" height="2" fill="#7823DC" clip-path="url(#SVGID_2_)" transform="matrix(0.7071 -0.7071 0.7071 0.7071 -12.7253 10.1494)"/><rect x="9.1" y="18.4" width="2" height="4" fill="#7823DC" clip-path="url(#SVGID_2_)" transform="matrix(0.7074 -0.7069 0.7069 0.7074 -11.48 13.1419)"/><rect x="8.1" y="20.8" width="4" height="2" fill="#7823DC" clip-path="url(#SVGID_2_)" transform="matrix(0.7071 -0.7071 0.7071 0.7071 -12.4827 13.5638)"/><rect x="4.9" y="19.8" width="2" height="4" fill="#7823DC" clip-path="url(#SVGID_2_)" transform="matrix(0.7069 -0.7074 0.7074 0.7069 -13.7294 10.5706)"/><g clip-path="url(#SVGID_2_)"><defs><rect x="0" y="0" width="32" height="32" id="SVGID_3_" fill="#7823DC"/></defs><clipPath id="SVGID_4_"><use width="100%" height="100%" xlink:href="#SVGID_3_"></use></clipPath><path d="M8 16.2C3.6 16.2 0 12.6 0 8.2 0 3.8 3.6 0.2 8 0.2 12.4 0.2 16 3.8 16 8.2 16 12.6 12.4 16.2 8 16.2ZM8 2.2C4.7 2.2 2 4.9 2 8.2 2 11.5 4.7 14.2 8 14.2 11.3 14.2 14 11.5 14 8.2 14 4.9 11.3 2.2 8 2.2Z" fill="#7823DC" clip-path="url(#SVGID_4_)"/><path d="M5.5 17.8 0 20.1 0 18 4.8 16 5.1 16.7Z" fill="#7823DC" clip-path="url(#SVGID_4_)"/><rect x="20" y="20.4" width="2" height="11.6" fill="#7823DC" clip-path="url(#SVGID_4_)"/><rect x="15.2" y="13.3" width="2" height="11.7" fill="#7823DC" clip-path="url(#SVGID_4_)" transform="matrix(0.3816 -0.9243 0.9243 0.3816 -7.6674 26.8471)"/><rect x="4" y="16.3" width="2" height="3.2" fill="#7823DC" clip-path="url(#SVGID_4_)" transform="matrix(0.7867 -0.6174 0.6174 0.7867 -9.9822 6.8967)"/><rect x="9.4" y="16.9" width="3.2" height="2" fill="#7823DC" clip-path="url(#SVGID_4_)" transform="matrix(0.6184 -0.7859 0.7859 0.6184 -9.8558 15.4808)"/><path d="M28.8 8.2 28.3 13.1 19.9 13.1 19.4 8.2 28.8 8.2ZM31 6.2 17.1 6.2 18.1 15.1 30.1 15.1 31 6.2Z" fill="#7823DC" clip-path="url(#SVGID_4_)"/><rect x="17.7" y="9.7" width="12.6" height="2" fill="#7823DC" clip-path="url(#SVGID_4_)"/><rect x="21.3" y="6.5" width="2" height="8.1" fill="#7823DC" clip-path="url(#SVGID_4_)"/><rect x="24.8" y="6.4" width="2" height="8.1" fill="#7823DC" clip-path="url(#SVGID_4_)"/><rect x="16.8" y="3.8" width="7.3" height="2" fill="#7823DC" clip-path="url(#SVGID_4_)" transform="matrix(0.7071 -0.7071 0.7071 0.7071 2.6082 15.8657)"/><rect x="26.6" y="1.1" width="2" height="7.3" fill="#7823DC" clip-path="url(#SVGID_4_)" transform="matrix(0.7071 -0.7071 0.7071 0.7071 4.6996 20.9149)"/></g></g></g></svg>