<svg viewBox="0 0 32 31.99" xmlns="http://www.w3.org/2000/svg" xmlns:xlink="http://www.w3.org/1999/xlink" id="Layer_1" overflow="hidden"><style>
.MsftOfcResponsive_Fill_7823dc {
 fill:#7823DC; 
}
</style>
<defs></defs><path d="M10.57 5.46 7.57 5.46C5.99 5.46 4.61 4.08 4.61 2.5L4.61 1 6.61 1 6.61 2.5C6.61 2.98 7.09 3.46 7.57 3.46L10.57 3.46C11.06 3.46 11.53 2.98 11.53 2.5L11.53 1 13.53 1 13.53 2.5C13.53 4.08 12.15 5.46 10.57 5.46Z" class="MsftOfcResponsive_Fill_7823dc" stroke-width="0" fill="#7823DC"/><path d="M14.71 31.99 3.29 31.99C1.48 31.99 0 30.51 0 28.68L0 3.31C0 1.48 1.47 0 3.29 0L14.72 0C16.53 0 18.01 1.48 18.01 3.31L18.01 5.62 16.01 5.62 16.01 3.31C16.01 2.59 15.43 2 14.72 2L3.29 2C2.58 2 2 2.59 2 3.31L2 28.69C2 29.41 2.58 30 3.29 30L14.72 30C15.43 30 16.01 29.41 16.01 28.69L16.01 26.38 18.01 26.38 18.01 28.69C18.01 30.51 16.54 32 14.72 32Z" class="MsftOfcResponsive_Fill_7823dc" stroke-width="0" fill="#7823DC"/><rect x="5.61" y="23.99" width="6.92" height="2" class="MsftOfcResponsive_Fill_7823dc" stroke-width="0" fill="#7823DC"/><path d="M21.94 26.2 15.65 19.51 13.38 17C11.52 15.08 11.52 11.66 13.4 9.72 14.3 8.78 15.58 8.25 16.9 8.25L16.9 8.25C18.22 8.25 19.5 8.79 20.4 9.72L21.94 11.42 23.45 9.75C24.38 8.79 25.65 8.25 26.97 8.25 28.29 8.25 29.55 8.78 30.45 9.71 31.43 10.64 31.99 11.98 31.99 13.38 31.99 14.78 31.42 16.14 30.44 17.07L28.24 19.5 21.94 26.21ZM16.91 10.24C16.12 10.24 15.39 10.55 14.85 11.1 13.73 12.26 13.73 14.46 14.85 15.63L17.13 18.15 21.95 23.28 26.78 18.14 29.02 15.66C29.66 15.05 30 14.24 30 13.37 30 12.5 29.66 11.69 29.07 11.14L29.04 11.11C27.97 10 25.99 10 24.92 11.11L21.95 14.4 18.95 11.09C18.44 10.56 17.7 10.25 16.91 10.25L16.91 10.25Z" class="MsftOfcResponsive_Fill_7823dc" stroke-width="0" fill="#7823DC"/></svg>