<svg viewBox="0 0 32 32" xmlns="http://www.w3.org/2000/svg" xmlns:xlink="http://www.w3.org/1999/xlink" id="Layer_1" overflow="hidden"><style>
.MsftOfcResponsive_Fill_7823dc {
 fill:#7823DC; 
}
</style>
<g><path d="M49-1 49 5 37 5 37-1 49-1M51-3 35-3 35 7 51 7 51-3 51-3Z" class="MsftOfcResponsive_Fill_7823dc" fill="#7823DC"/><rect x="36.5" y="1" width="8.9" height="2" class="MsftOfcResponsive_Fill_7823dc" fill="#7823DC" transform="matrix(0.4472 -0.8944 0.8944 0.4472 20.8851 37.7711)"/><path d="M46 11 42.1-1.6 43.9-2.5 47.9 5.5Z" class="MsftOfcResponsive_Fill_7823dc" fill="#7823DC"/></g><g><g><defs><path d="M0 32 32 32 32 0 0 0 0 32Z" id="SVGID_1_" class="MsftOfcResponsive_Fill_7823dc" fill="#7823DC"/></defs><defs><path d="M0 0 32 0 32 32 0 32 0 0Z" id="SVGID_00000100354575364582705450000017102027720135073421_" class="MsftOfcResponsive_Fill_7823dc" fill="#7823DC"/></defs><clipPath id="SVGID_00000147922044720076137100000006836737666969327243_"><use width="100%" height="100%" xlink:href="#SVGID_1_" overflow="visible"></use></clipPath><clipPath id="SVGID_00000007391562740253312040000009702606542477956486_" clip-path="url(#SVGID_00000147922044720076137100000006836737666969327243_)"><use width="100%" height="100%" xlink:href="#SVGID_00000100354575364582705450000017102027720135073421_" overflow="visible"></use></clipPath><g clip-path="url(#SVGID_00000007391562740253312040000009702606542477956486_)"><defs><path d="M0 32 32 32 32 0 0 0 0 32Z" id="SVGID_00000081627736748975870350000006126498387787303068_" class="MsftOfcResponsive_Fill_7823dc" fill="#7823DC"/></defs><clipPath id="SVGID_00000047743420054173306140000006386452899948471445_"><use width="100%" height="100%" xlink:href="#SVGID_00000081627736748975870350000006126498387787303068_" overflow="visible"></use></clipPath><path d="M32 23.2 30.3 22.4 31 18.5 31 18.5 31 18.5 31 18.5 31 18.5 31 13 27.8 13 27.8 8 26.1 8 24.1 4.7 24.1 2.2C24.1 2.1 24.1 2.1 24.1 2 24.1 0.9 23.3 0.1 22.2 0.1 21.4 0.1 20.8 0.6 20.5 1.3L6.6 9.5 4 9.5 0.2 13.6 0.2 16.2 3.5 16.2 3.5 24.5 0.1 24.5 0.1 26.5 11.4 26.5 11.4 32 13.4 32 13.4 24.5 10.7 24.5 10.7 13.5 21.6 3.8C21.7 3.8 21.9 3.9 22 3.9L22 4.9 20.1 8 18 8 18 12.9 14.8 12.9 14.8 18.5 14.8 18.5 15.5 22.4 13.8 23.2 14.6 25 14.6 25 17.6 31.9 17.6 31.9 17.6 31.9 17.6 31.9 17.6 31.9 28.1 31.9 28.1 31.8 28.2 31.8 31.2 24.9 31.2 24.9 32 23.2 32 23.2ZM7.5 11.5 7.5 11.2 15.5 6.5 7.5 13.6 7.5 11.5 7.5 11.5ZM2.1 11.5 5.6 11.5 5.6 14.2 2.1 14.2 2.1 11.5 2.1 11.5ZM8.8 24.5 5.4 24.5 5.4 16.2 7.6 16.2 7.6 16.2 7.6 16.3 8.8 15.3 8.8 24.5 8.8 24.5ZM23.1 7 23.7 8 22.4 8 23.1 7 23.1 7ZM20 10 25.8 10 25.8 12.9 20 12.9 20 10 20 10ZM16.9 14.9 29 14.9 29 16.4 16.9 16.4 16.9 14.9 16.9 14.9ZM16.9 18.5 29 18.5 28.5 21.5 22.9 19 22.9 19 17.4 21.5 16.9 18.5 16.9 18.5ZM26.9 29.9 19 29.9 16.5 24.2 23 21.2 29.4 24.1 26.9 29.9 26.9 29.9Z" class="MsftOfcResponsive_Fill_7823dc" fill="#7823DC" clip-path="url(#SVGID_00000047743420054173306140000006386452899948471445_)"/></g></g></g><g><path d="M5.6 11.5 5.6 14.2 2 14.2 2 11.5 5.6 11.5M7.6 9.5 0 9.5 0 16.2 7.6 16.2 7.6 9.5 7.6 9.5Z" class="MsftOfcResponsive_Fill_7823dc" fill="#7823DC"/></g></svg>