<svg viewBox="0 0 32.08 32" xmlns="http://www.w3.org/2000/svg" xmlns:xlink="http://www.w3.org/1999/xlink" id="Layer_1" overflow="hidden"><style>
.MsftOfcResponsive_Fill_7823dc {
 fill:#7823DC; 
}
</style>
<defs></defs><path d="M30.68 10 1.41 10 1.13 9.47C-0.38 6.68-0.38 3.32 1.13 0.53L1.41 0 30.68 0 30.96 0.53C32.46 3.32 32.46 6.68 30.96 9.47L30.68 10ZM2.63 8 29.44 8C30.23 6.14 30.23 3.86 29.44 2L2.63 2C1.84 3.86 1.84 6.14 2.63 8Z" class="MsftOfcResponsive_Fill_7823dc" fill="#7823DC"/><rect x="4.04" y="4" width="23.13" height="2" class="MsftOfcResponsive_Fill_7823dc" fill="#7823DC"/><path d="M1.38 8 1.38 13.5C1.38 18.67 4.12 23.21 8.25 25.77 9.08 26.3 9.97 26.74 10.91 27.08 10.44 26.32 10.15 25.46 10.08 24.52 9.37 24.15 8.71 23.71 8.09 23.22 5.22 20.93 3.38 17.42 3.38 13.5L3.38 10 28.72 10 28.72 13.5C28.72 17.42 26.88 20.93 24 23.22 23.38 23.71 22.72 24.15 22.01 24.52 21.94 25.46 21.65 26.32 21.18 27.08 22.11 26.74 23.01 26.3 23.84 25.78 27.97 23.22 30.72 18.67 30.72 13.5L30.72 8 1.38 8ZM12.35 25.46C12.93 26.94 14.37 27.98 16.05 27.98 17.73 27.98 19.16 26.94 19.74 25.46 18.57 25.81 17.33 26 16.05 26 14.77 26 13.52 25.81 12.35 25.46Z" class="MsftOfcResponsive_Fill_7823dc" fill="#7823DC"/><path d="M24 23.22C23.61 19.17 20.19 16.01 16.05 16.01 11.91 16.01 8.48 19.17 8.09 23.22 8.06 23.47 8.05 23.74 8.05 24 8.05 24.61 8.12 25.2 8.25 25.77 9.06 29.33 12.25 32 16.05 32 19.85 32 23.03 29.34 23.84 25.78 23.97 25.21 24.04 24.61 24.04 24 24.04 23.74 24.03 23.47 24 23.22ZM16.05 30C13.87 30 11.95 28.83 10.91 27.08 10.44 26.32 10.15 25.46 10.08 24.52 10.06 24.35 10.05 24.18 10.05 24 10.05 20.7 12.74 18.01 16.05 18.01 19.36 18.01 22.04 20.7 22.04 24 22.04 24.18 22.03 24.35 22.01 24.52 21.94 25.46 21.65 26.32 21.18 27.08 20.14 28.83 18.23 30 16.05 30Z" class="MsftOfcResponsive_Fill_7823dc" fill="#7823DC"/><path d="M16.05 20.02C13.85 20.02 12.07 21.81 12.07 24 12.07 24.52 12.17 25.01 12.35 25.46 12.93 26.94 14.37 27.98 16.05 27.98 17.73 27.98 19.16 26.94 19.74 25.46 19.92 25.01 20.02 24.52 20.02 24 20.02 21.81 18.24 20.02 16.05 20.02ZM16.05 22.02C17.14 22.02 18.02 22.91 18.02 24 18.02 25.09 17.14 25.98 16.05 25.98 14.96 25.98 14.07 25.09 14.07 24 14.07 22.91 14.96 22.02 16.05 22.02Z" class="MsftOfcResponsive_Fill_7823dc" fill="#7823DC"/></svg>