<svg viewBox="0 0 32 32" xmlns="http://www.w3.org/2000/svg" xmlns:xlink="http://www.w3.org/1999/xlink" id="Layer_1" overflow="hidden"><style>
.MsftOfcResponsive_Fill_7823dc {
 fill:#7823DC; 
}
</style>
<defs></defs><path d="M18.3 32 13.7 32C9.45 32 6 27.04 6 20.95L6 17.05C6 10.96 9.45 6 13.7 6L18.3 6C22.55 6 26 10.96 26 17.05L26 20.95C26 27.04 22.55 32 18.3 32ZM13.7 8C10.61 8 8 12.14 8 17.05L8 20.95C8 25.86 10.61 30 13.7 30L18.3 30C21.39 30 24 25.86 24 20.95L24 17.05C24 12.14 21.39 8 18.3 8L13.7 8Z" class="MsftOfcResponsive_Fill_7823dc" fill="#7823DC"/><path d="M24.3 32 7.7 32C3.45 32 0 27.04 0 20.95L0 17.05C0 10.96 3.45 6 7.7 6L24.3 6C28.55 6 32 10.96 32 17.05L32 20.95C32 27.04 28.55 32 24.3 32ZM7.7 8C4.61 8 2 12.14 2 17.05L2 20.95C2 25.86 4.61 30 7.7 30L24.3 30C27.39 30 30 25.86 30 20.95L30 17.05C30 12.14 27.39 8 24.3 8L7.7 8Z" class="MsftOfcResponsive_Fill_7823dc" fill="#7823DC"/><path d="M17 31 15 31 15 7C15 3.14 17.24 0 20 0L20 2C18.4 2 17 4.34 17 7L17 31Z" class="MsftOfcResponsive_Fill_7823dc" fill="#7823DC"/></svg>