<svg viewBox="0 0 32 32" xmlns="http://www.w3.org/2000/svg" xmlns:xlink="http://www.w3.org/1999/xlink" id="Graphic" overflow="hidden"><defs></defs><path d="M29 5.1 26.2 0.4 26.2 0 13.2 0C13.2 0.1 11.1 3.8 11.1 3.8L2.9 3.8 2.9 5.9 9.9 5.9 9.6 6.5 11.4 7.5 14.5 2 19.7 2 20.5 7.7 19.5 7.7C19.5 7.7 19.2 5.8 19.2 5.8L18.9 3.9 16.9 3.7 15.8 7 13.1 8 13.8 9.9 17 8.8 17 8.8 17.4 8.3 17.6 9 18.5 9.7 18.5 13.6 18.5 13.6C18.5 13.6 18.5 13.6 18.5 13.6L18.5 13.6C18.5 13.6 18.5 13.6 18.5 13.6L19.6 15.4 14.4 15.4 13.2 13.5 13.2 13.5C13.2 13.5 13.2 13.5 13.2 13.5L2.9 13.5 2.9 15.6 12 15.6 13 17.4 13 17.4C13 17.5 17.4 17.5 17.4 17.5L17.4 21C16.3 21.7 15.5 22.7 15 23.9 14.4 25.4 14.5 26.9 15.1 28.4 15.7 29.8 16.9 30.9 18.4 31.5 19.1 31.8 19.8 31.9 20.5 31.9 21.2 31.9 22.1 31.7 22.9 31.4 24.3 30.8 25.4 29.6 26 28.2 27.1 25.4 25.9 22.3 23.2 20.9L23.2 17.6 26.1 17.6 26.1 17.2 28.9 12.5 28.9 12.5 28.9 5 28.9 5ZM19.6 20.4 19.6 17.7 21.3 17.7 21.3 20.4C20.7 20.4 20.2 20.4 19.6 20.4L19.6 20.4ZM22.1 15.6 20.8 13.5 20.8 9.8 21.8 9.8C21.8 9.8 22.7 8.6 22.7 8.6L22.7 8.6C22.7 8.6 21.7 2 21.7 2L24.7 2 26.9 5.8 26.9 11.8 24.7 15.6 22 15.6ZM24.2 27.5C23.8 28.5 23.1 29.2 22.2 29.6 21.3 30 20.2 30 19.3 29.6 18.3 29.2 17.6 28.5 17.2 27.6 16.8 26.7 16.8 25.6 17.2 24.7 17.8 23.2 19.2 22.3 20.8 22.3 22.4 22.3 21.7 22.3 22.2 22.6 23.2 23 23.9 23.7 24.3 24.6 24.7 25.5 24.7 26.6 24.3 27.5L24.3 27.5Z" fill="#7823DC" fill-rule="evenodd"/><path d="M18.9 24.4 18.9 25.7 20 25.2 20 28.6 21.8 28.6 21.8 23.6 20.2 23.6 18.9 24.4 18.9 24.4 18.9 24.4Z" fill="#7823DC" fill-rule="evenodd"/></svg>