<svg viewBox="0 0 32.06 31.91" xmlns="http://www.w3.org/2000/svg" xmlns:xlink="http://www.w3.org/1999/xlink" id="Layer_1" overflow="hidden"><style>
.MsftOfcResponsive_Fill_7823dc {
 fill:#7823DC; 
}
</style>
<defs></defs><path d="M32.06 26.94 32.06 19.96 0.06 19.96 0.06 26.94 8.9 26.94 8.9 29.91 0 29.91 0 31.91 32 31.91 32 29.91 10.9 29.91 10.9 26.94 32.06 26.94ZM2.06 24.94 2.06 21.96 30.06 21.96 30.06 24.94 2.06 24.94Z" class="MsftOfcResponsive_Fill_7823dc" fill="#7823DC"/><path d="M31.98 6.98 31.98 3.64 28.34 0 0.06 0 0.06 6.98 8.9 6.98 8.9 9.98 0.06 9.98 0.06 16.96 8.9 16.96 8.9 19.95 10.9 19.95 10.9 16.96 16.27 16.96 16.27 9.98 10.9 9.98 10.9 6.98 31.98 6.98ZM14.27 11.98 14.27 14.96 2.06 14.96 2.06 11.98 14.27 11.98ZM2.06 4.98 2.06 2 29.98 2 29.98 4.98 2.06 4.98Z" class="MsftOfcResponsive_Fill_7823dc" fill="#7823DC"/><rect x="4.01" y="2.49" width="1.93" height="2" class="MsftOfcResponsive_Fill_7823dc" fill="#7823DC"/><rect x="8.05" y="2.49" width="1.93" height="2" class="MsftOfcResponsive_Fill_7823dc" fill="#7823DC"/><rect x="4.01" y="12.61" width="1.93" height="2" class="MsftOfcResponsive_Fill_7823dc" fill="#7823DC"/><rect x="8.05" y="12.61" width="1.93" height="2" class="MsftOfcResponsive_Fill_7823dc" fill="#7823DC"/><rect x="4.01" y="22.42" width="1.93" height="2" class="MsftOfcResponsive_Fill_7823dc" fill="#7823DC"/><rect x="8.05" y="22.42" width="1.93" height="2" class="MsftOfcResponsive_Fill_7823dc" fill="#7823DC"/><path d="M28.98 10.92C27.68 10.92 26.57 11.76 26.15 12.92L23.43 12.92 23.43 12.22 21.43 12.22 21.43 12.92 20.01 12.92 20.01 10.95 18.01 10.95 18.01 14.93 26.14 14.93C26.55 16.1 27.67 16.96 28.98 16.96 30.65 16.96 32 15.6 32 13.94 32 12.28 30.65 10.92 28.98 10.92ZM28.98 14.96C28.42 14.96 27.96 14.5 27.96 13.94 27.96 13.38 28.42 12.92 28.98 12.92 29.54 12.92 30 13.38 30 13.94 30 14.5 29.54 14.96 28.98 14.96Z" class="MsftOfcResponsive_Fill_7823dc" fill="#7823DC"/></svg>