<svg viewBox="0 0 32 32" xmlns="http://www.w3.org/2000/svg" xmlns:xlink="http://www.w3.org/1999/xlink" id="Graphic" overflow="hidden"><defs></defs><rect x="6.26758" y="15" width="19.4648" height="2" fill="#7823DC"/><path d="M21.756 20 24.563 20 28.563 16.007 24.563 12.008 21.714 12 25.732 15.994 21.756 20Z" fill="#7823DC"/><path d="M10.244 20 7.437 20 3.437 16.007 7.437 12.008 10.286 12 6.268 15.994 10.244 20Z" fill="#7823DC"/><rect x="0" y="4" width="2" height="24" fill="#7823DC"/><rect x="30" y="4" width="2" height="24" fill="#7823DC"/><rect x="15" y="6.26807" width="2" height="19.4639" fill="#7823DC"/><path d="M20 10.244 20 7.437 16.007 3.437 12.008 7.437 12 10.286 15.994 6.268 20 10.244Z" fill="#7823DC"/><path d="M20 21.756 20 24.563 16.007 28.563 12.008 24.563 12 21.714 15.994 25.732 20 21.756Z" fill="#7823DC"/><rect x="4" y="30" width="24" height="2" fill="#7823DC"/><rect x="4" y="0" width="24" height="2" fill="#7823DC"/></svg>