<svg viewBox="0 0 29.22 29.22" xmlns="http://www.w3.org/2000/svg" xmlns:xlink="http://www.w3.org/1999/xlink" id="Layer_5" overflow="hidden"><defs></defs><path d="M27.49 14.27 27.43 5.16 21.93 5.16 21.93 8.71 14.57 1.36 0.41 15.58 1.7 16.87 1.7 29.23 27.51 29.23 27.51 16.87 28.8 15.58 27.49 14.27ZM23.87 7.1 25.73 7.1 25.73 12.51 23.87 10.65 23.87 7.1ZM25.65 27.37 3.56 27.37 3.56 15.01 14.57 4.03 21.93 11.33 21.93 11.38 25.65 15.09 25.65 27.37Z" stroke-width="0" fill="#7823DC"/><path d="M17.44 14.82 17.09 16.44C16.76 16.11 16.27 15.94 15.64 15.94 15.01 15.94 14.49 16.17 14.09 16.63 13.87 16.89 13.71 17.21 13.62 17.6L16.84 17.6 16.65 18.51 13.5 18.51C13.5 18.6 13.5 18.72 13.5 18.86 13.5 19 13.5 19.14 13.51 19.29L16.49 19.29 16.3 20.2 13.63 20.2C13.73 20.62 13.88 20.95 14.08 21.18 14.47 21.64 14.98 21.87 15.6 21.87 16.35 21.87 16.95 21.64 17.39 21.18L17.39 22.97C16.88 23.22 16.29 23.35 15.61 23.35 14.47 23.35 13.53 22.96 12.8 22.18 12.3 21.65 11.97 20.99 11.81 20.19L10.94 20.19 11.13 19.28 11.7 19.28C11.7 19.19 11.7 19.09 11.7 18.98 11.7 18.8 11.7 18.64 11.71 18.51L10.94 18.51 11.13 17.6 11.83 17.6C11.99 16.82 12.32 16.17 12.81 15.65 13.55 14.86 14.52 14.47 15.72 14.47 16.38 14.47 16.95 14.59 17.43 14.83Z" stroke-width="0" fill="#7823DC"/></svg>