<svg viewBox="0 0 32 32" xmlns="http://www.w3.org/2000/svg" xmlns:xlink="http://www.w3.org/1999/xlink" overflow="hidden"><defs></defs><g id="a"></g><g id="b"></g><g id="c"></g><g id="d"><g><path d="M27.82 22.18C27.65 21.84 27.3 21.62 26.92 21.62L26.92 21.62C26.54 21.62 26.19 21.84 26.02 22.18 24.77 24.72 22.83 25.84 20.26 25.52 19.34 25.4 18.4 24.79 17.6 24.09 17.17 23.71 16.78 23.31 16.45 22.95 16.14 22.6 15.89 22.28 15.74 22.05 15.54 21.76 15.2 21.59 14.83 21.63 14.47 21.66 14.16 21.89 14.01 22.21 14.01 22.22 13.81 22.64 13.43 23.19L13.43 23.19C12.67 24.29 11.18 25.9 9.04 25.63 6.23 25.28 5.07 23.92 3.73 22.04 3.51 21.73 3.15 21.57 2.77 21.63 2.4 21.69 2.09 21.95 1.97 22.3 1.57 23.51 0.97 25.01 0 26.01L0 28.5C1.56 27.68 2.55 26.16 3.22 24.65 4.48 26.13 6.04 27.27 8.8 27.61 11.96 28 14.02 25.86 15.05 24.37 16.11 25.56 17.94 27.24 20.01 27.5 22.86 27.86 25.26 26.82 26.91 24.56 28.64 26.99 30.74 27.54 32 27.63L32 25.63C30.99 25.52 29.17 24.91 27.82 22.17Z" fill="#7823DC"/><path d="M3.22 18.81C3.77 19.45 4.39 20.03 5.13 20.51 6.08 21.13 7.25 21.58 8.8 21.77 9.44 21.85 10.03 21.82 10.58 21.72 11.33 21.58 11.99 21.3 12.57 20.95 12.65 20.9 12.73 20.85 12.81 20.8 13.81 20.13 14.55 19.26 15.05 18.53 15.12 18.61 15.2 18.69 15.27 18.77 15.74 19.27 16.32 19.83 16.99 20.32 17.88 20.97 18.91 21.52 20.01 21.66 20.03 21.66 20.05 21.66 20.07 21.66 20.78 21.74 21.47 21.74 22.12 21.66 24.05 21.4 25.69 20.4 26.92 18.72 28.65 21.15 30.75 21.7 32.01 21.79L32.01 19.79C31 19.68 29.18 19.07 27.83 16.33 27.66 15.99 27.31 15.77 26.93 15.77L26.93 15.77C26.55 15.77 26.2 15.99 26.03 16.33 25.19 18.03 24.04 19.09 22.59 19.5L23.32 16.14C24.67 15.68 25.96 14.88 26.97 13.61 28.76 16.2 30.85 16.68 32 16.72L32 14.73C31.17 14.68 29.36 14.2 27.9 11.25 27.73 10.91 27.38 10.69 27 10.69L27 10.69C26.62 10.69 26.27 10.91 26.1 11.25 25.95 11.56 25.77 11.82 25.59 12.08L17.59 2.81 5.4 8.37 6.23 10.19 7.47 9.62 6.46 14.3C4.82 13.69 3.89 12.56 2.86 11.12 2.64 10.81 2.27 10.65 1.9 10.71 1.53 10.77 1.22 11.03 1.1 11.38 0.84 12.18 0.48 13.1 0 13.93L0 17.01C1.07 16.15 1.82 14.94 2.35 13.73 3.29 14.83 4.4 15.74 6.04 16.28L5.59 18.35C4.9 17.76 4.33 17.04 3.74 16.2 3.52 15.89 3.16 15.73 2.78 15.79 2.41 15.85 2.1 16.11 1.98 16.46 1.57 17.67 0.97 19.17 0 20.17L0 22.66C1.56 21.84 2.55 20.32 3.22 18.81ZM16.02 15.16 15.79 16.27C15.79 16.27 15.76 16.23 15.75 16.21 15.55 15.92 15.21 15.75 14.84 15.79 14.48 15.82 14.17 16.05 14.02 16.37 14.02 16.38 13.86 16.71 13.56 17.16L14.3 13.57 14.34 13.37 16.3 13.78 16.02 15.16ZM8 16.7 8.43 14.72 9.76 8.59 17.07 5.26 22.33 11.36 21.64 14.53 21.19 16.62 20.52 19.7C20.44 19.7 20.36 19.7 20.28 19.69 19.3 19.57 18.3 18.88 17.47 18.13L17.86 16.23 18.27 14.22 18.68 12.23 15.17 11.5 13.28 11.11 12.8 11.01 12.52 12.35 11.81 15.82 11.06 19.48C10.48 19.74 9.81 19.88 9.07 19.79 8.45 19.71 7.91 19.58 7.43 19.41L8.02 16.7Z" fill="#7823DC"/></g></g></svg>