<svg viewBox="0 0 32 32" xmlns="http://www.w3.org/2000/svg" xmlns:xlink="http://www.w3.org/1999/xlink" id="Graphic" xml:space="preserve" overflow="hidden"><path d="M29.3 18 20.7 20.8 20.7 19.6 20.7 17.3 18.5 17.6 15.3 18 10.4 16 9.5 15.7 8.7 16.2 5.5 18 2.3 18 0.3 18 0.3 20 0.3 26 0.3 28 2.3 28 5.5 28 15.3 32 30.8 23.7 31.8 23.2 31.8 22 31.8 20 31.8 17.2 29.3 18 29.3 18 29.3 18 29.3 18 29.3 18ZM29.8 22 15 29.8 5.9 26 2.3 26 2.3 20 6 20 9.7 18 15.1 20 18.8 19.5 18.8 21.5 17.8 22 14.1 22.8 14.1 24.5 18 23.8 18 23.8 29.8 20 29.8 22 29.8 22 29.8 22 29.8 22 29.8 22Z" fill="#7823DC" fill-rule="evenodd" clip-rule="evenodd"/><g><g><path d="M15.8 3.1C16.7 3.1 17.3 3.3 17.7 3.7 18.1 4.1 18.3 4.6 18.3 5.1 18.3 5.6 18.1 6 17.9 6.3 17.6 6.7 17.3 7 17 7.3 16.7 7.5 16.4 7.9 16.2 8.2 16 8.5 15.8 8.8 15.8 9.2L15.8 9.8 14.8 9.8 14.8 9.1C14.8 8.6 15 8.1 15.2 7.8 15.4 7.5 15.8 7.1 16.2 6.8 16.4 6.6 16.7 6.3 16.9 6 17.1 5.8 17.1 5.5 17.1 5.2 17.1 4.8 17 4.5 16.8 4.3 16.6 4.1 16.2 4 15.7 4 15.2 4 14.8 4.2 14.5 4.5 14.2 4.8 14 5.2 14 5.7L13 5.7C13.1 4.9 13.3 4.3 13.8 3.9 14.4 3.3 15 3.1 15.8 3.1L15.8 3.1 15.8 3.1 15.8 3.1Z" fill="#7823DC" fill-rule="evenodd" clip-rule="evenodd"/><path d="M16.2 10.1 14.4 10.1 14.4 9.1C14.4 8.6 14.6 8 14.9 7.6 15.2 7.2 15.6 6.8 15.9 6.5 16.1 6.3 16.3 6.1 16.5 5.8 16.7 5.6 16.7 5.5 16.7 5.2 16.7 4.9 16.6 4.7 16.5 4.5 16 4.1 15.2 4.2 14.8 4.6 14.6 4.8 14.4 5.2 14.4 5.6L14.4 5.9 12.7 5.9 12.7 5.5C12.8 4.6 13.1 3.9 13.7 3.4 14.3 3 15 2.7 15.8 2.7 16.7 2.7 17.5 2.9 18 3.4 18.5 3.8 18.7 4.5 18.7 5.1 18.7 5.6 18.5 6.1 18.2 6.5 18 6.8 17.7 7 17.5 7.3L17.3 7.5C17 7.7 16.8 8 16.6 8.3 16.4 8.6 16.3 8.8 16.3 9.1L16.3 10.1ZM15.2 9.4 15.5 9.4 15.5 9.2C15.5 8.7 15.6 8.4 15.9 8 16.1 7.7 16.4 7.3 16.7 7.1L17 6.8C17.2 6.6 17.5 6.4 17.6 6.2 17.8 5.9 17.9 5.5 17.9 5.2 17.9 4.9 17.8 4.4 17.4 4 17 3.6 16.5 3.5 15.8 3.5 15.1 3.5 14.6 3.7 14.1 4.1 13.8 4.4 13.5 4.8 13.4 5.3L13.6 5.3C13.7 4.8 13.9 4.5 14.2 4.2 15 3.5 16.2 3.4 17 4L17.1 4.1C17.4 4.4 17.5 4.8 17.5 5.3 17.5 5.6 17.5 6 17.1 6.4 16.9 6.7 16.7 6.9 16.4 7.2 16 7.5 15.7 7.8 15.5 8.1 15.3 8.4 15.1 8.8 15.1 9.2L15.1 9.4Z" fill="#7823DC"/></g><g><path d="M16 9.9 14.9 9.9 14.9 9.1C14.9 8.6 15.1 8.1 15.3 7.8 15.6 7.4 15.9 7 16.3 6.8 16.5 6.6 16.8 6.3 17 6 17.2 5.7 17.2 5.5 17.2 5.2 17.2 4.8 17.1 4.5 16.9 4.3 16.7 4.1 16.3 4 15.9 4 15.4 4 15.1 4.2 14.8 4.5 14.5 4.8 14.3 5.1 14.3 5.7L14.3 5.8 13 5.8 13 5.6C13.1 4.8 13.4 4.2 13.9 3.7 14.4 3.2 15.1 2.9 15.9 2.9 16.7 2.9 17.4 3.1 17.9 3.6 18.3 4 18.5 4.5 18.5 5.1 18.5 5.6 18.4 6 18.1 6.4 17.9 6.7 17.6 7 17.2 7.3 16.8 7.5 16.6 7.8 16.4 8.2 16.2 8.5 16 8.8 16 9.2 16 9.2 16 9.9 16 9.9ZM15 9.7 15.8 9.7 15.8 9.2C15.8 8.7 16 8.4 16.2 8.2 16.4 7.9 16.7 7.6 17 7.3 17.4 7 17.7 6.7 17.9 6.4 18.2 6.1 18.3 5.6 18.3 5.2 18.3 4.6 18.1 4.2 17.8 3.8 17.3 3.3 16.7 3 15.9 3 15.2 3 14.5 3.2 14 3.7 13.6 4.1 13.3 4.7 13.2 5.4L14 5.4C14.1 4.9 14.2 4.5 14.5 4.2 14.8 3.9 15.3 3.7 15.7 3.7 16.1 3.7 16.5 3.8 16.8 4 17 4.2 17.2 4.5 17.2 5 17.2 5.3 17.1 5.6 16.9 5.9 16.7 6.1 16.5 6.4 16.2 6.7 15.8 7 15.5 7.3 15.2 7.7 15 8 14.8 8.5 14.8 9L15 9.7 15 9.7Z" fill="#7823DC"/><path d="M16.4 10.2 14.5 10.2 14.5 9.1C14.5 8.6 14.7 8 15 7.6 15.4 7.1 15.7 6.8 16 6.5 16.2 6.3 16.4 6.1 16.6 5.8 16.7 5.7 16.8 5.5 16.8 5.3 16.8 5 16.7 4.8 16.6 4.7 16.4 4.5 16.2 4.5 15.8 4.5 15.5 4.5 15.2 4.6 14.9 4.9 14.6 5.2 14.5 5.4 14.5 5.8L14.5 6 14.1 6.1 12.5 6.1 12.5 5.7C12.6 4.7 12.9 4 13.5 3.5 14.1 2.9 14.9 2.7 15.7 2.7 16.7 2.7 17.5 3 17.9 3.5 18.4 4 18.6 4.5 18.6 5.3 18.6 5.9 18.4 6.3 18.1 6.8 17.9 7.1 17.6 7.4 17.1 7.8 16.8 8 16.6 8.3 16.3 8.6 16.2 8.8 16 9 16 9.3 16.1 9.5 16.1 9.7 16.1 10L16.1 10.2ZM15.3 9.3 15.4 9.3 15.4 9.2C15.4 8.6 15.6 8.3 15.8 8 16.1 7.6 16.4 7.3 16.6 7.1 17 6.8 17.2 6.5 17.5 6.3 17.7 6 17.8 5.7 17.8 5.4 17.8 4.9 17.7 4.6 17.4 4.3 17 3.8 16.5 3.7 15.8 3.7 15.2 3.7 14.6 3.9 14.1 4.3 13.8 4.6 13.6 4.9 13.5 5.4L13.6 5.4C13.7 4.9 13.9 4.6 14.2 4.3 14.6 3.9 15.1 3.7 15.7 3.7 16.3 3.7 16.7 3.9 17 4.2 17.3 4.5 17.5 4.9 17.5 5.5 17.5 5.8 17.5 6.2 17.1 6.6 17 6.7 16.9 6.9 16.8 7 16.7 7.1 16.6 7.3 16.4 7.4 16 7.7 15.8 8 15.5 8.4 15.3 8.7 15.2 9.1 15.2 9.4L15.3 9.3Z" fill="#7823DC"/></g></g><path d="M15.9 2C19.1 2 21.8 4.7 21.8 8 21.8 11.3 19.1 13.7 15.9 13.7 12.7 13.7 10 11.2 10 8 10 4.8 12.7 2 15.9 2M15.9 0C11.7 0 8 3.5 8 8 8 12.2 11.7 15.7 15.9 15.7 20.1 15.7 23.8 12.2 23.8 8 23.8 3.5 20.1 0 15.9 0L15.9 0Z" fill="#7823DC" fill-rule="evenodd" clip-rule="evenodd"/><circle cx="15.4" cy="11.8" r="1" fill="#7823DC"/></svg>