<svg viewBox="0 0 29.22 29.22" xmlns="http://www.w3.org/2000/svg" xmlns:xlink="http://www.w3.org/1999/xlink" id="Layer_5" overflow="hidden"><defs></defs><path d="M26.85 16.51 18.97 18.99 18.97 15.83 16.93 16.06 13.93 16.4 9.2 14.71 8.44 14.44 7.72 14.82 4.76 16.4-0.08 16.4-0.08 25.57 4.8 25.57 13.81 29.22 28.26 21.7 29.23 21.18 29.23 15.76 26.85 16.51 26.85 16.51ZM27.4 20.08 13.72 27.19 5.17 23.74 1.75 23.74 1.75 18.22 5.23 18.22 8.59 16.42 13.72 18.25 17.14 17.87 17.14 19.7 16.15 20.02 12.7 20.72 12.7 22.42 16.32 21.75 16.32 21.75C16.32 21.75 27.4 18.26 27.4 18.26L27.4 20.09 27.4 20.09Z" stroke-width="0" fill="#7823DC"/><path d="M28.08 5.75 8.94 5.75C8.47 3.92 6.72 2.61 4.54 2.61 1.97 2.61 0 4.5 0 6.75 0 9 2.07 10.89 4.54 10.89 6.59 10.89 8.36 9.65 8.9 7.89L18.01 7.89 18.01 8.82 20.28 10.89 20.28 7.89 22.48 7.89 22.48 10.89 24.75 10.89 24.75 7.89 26.95 7.89 26.95 10.89 29.22 10.89 29.22 5.75 28.09 5.75ZM4.53 8.9C3.25 8.9 2.26 8 2.26 6.83 2.26 5.66 3.25 4.76 4.53 4.76 5.81 4.76 6.8 5.66 6.8 6.83 6.8 7.91 5.81 8.9 4.53 8.9Z" stroke-width="0" fill="#7823DC" fill-rule="evenodd"/></svg>