<svg viewBox="0 0 32 31.98" xmlns="http://www.w3.org/2000/svg" xmlns:xlink="http://www.w3.org/1999/xlink" id="Layer_1" overflow="hidden"><style>
.MsftOfcResponsive_Fill_7823dc {
 fill:#7823DC; 
}
</style>
<defs></defs><path d="M32 31.98 28.18 31.98C25.83 31.96 23.64 30.91 22.09 29.08 21.16 27.99 19.3 26.14 17.22 26.05 16.02 26 14.84 26.55 13.71 27.68 10.63 30.76 4.3 30.97 4.03 30.97L0 30.97C0 30.97 0 28.97 0 28.97L4 28.97C4 28.97 9.78 28.77 12.29 26.26 13.83 24.72 15.54 23.98 17.29 24.04 19.99 24.15 22.21 26.13 23.61 27.77 24.78 29.15 26.42 29.95 28.11 29.96L32 29.96 32 31.96Z" class="MsftOfcResponsive_Fill_7823dc" fill="#7823DC"/><path d="M32 24.49C29.55 24.49 27.24 23.53 25.31 21.71 22.82 19.36 18.95 17.29 14.62 20.76 10.87 23.76 5.25 23.97 5.01 23.98L0 23.98C0 23.98 0 21.98 0 21.98L4.99 21.98C4.99 21.98 10.16 21.78 13.37 19.2 17.56 15.84 22.42 16.22 26.68 20.25 27.76 21.27 29.56 22.48 31.99 22.48L31.99 24.48Z" class="MsftOfcResponsive_Fill_7823dc" fill="#7823DC"/><path d="M21.3 11.94 11.38 2.73 1.45 11.94 0.09 10.47 11.38 0 22.66 10.47 21.3 11.94Z" class="MsftOfcResponsive_Fill_7823dc" fill="#7823DC"/><rect x="19.38" y="9.98" width="2" height="7.84" class="MsftOfcResponsive_Fill_7823dc" fill="#7823DC"/><rect x="13.38" y="13.98" width="2" height="5.43" class="MsftOfcResponsive_Fill_7823dc" fill="#7823DC"/><rect x="9.7" y="11.66" width="2" height="6.64" class="MsftOfcResponsive_Fill_7823dc" fill="#7823DC" transform="matrix(6.12323e-17 1 -1 6.12323e-17 25.68 4.28)"/><rect x="7.38" y="13.98" width="2" height="7.8" class="MsftOfcResponsive_Fill_7823dc" fill="#7823DC"/><rect x="1.38" y="9.49" width="2" height="12.92" class="MsftOfcResponsive_Fill_7823dc" fill="#7823DC"/><rect x="26" y="4.24" width="2" height="8" class="MsftOfcResponsive_Fill_7823dc" fill="#7823DC"/><path d="M29.41 7.24 27 4.82 24.58 7.24 23.17 5.82 27 2 30.83 5.82 29.41 7.24Z" class="MsftOfcResponsive_Fill_7823dc" fill="#7823DC"/></svg>