<svg viewBox="0 0 32 32" xmlns="http://www.w3.org/2000/svg" xmlns:xlink="http://www.w3.org/1999/xlink" xml:space="preserve" overflow="hidden"><style>
.MsftOfcResponsive_Fill_7823dc {
 fill:#7823DC; 
}
</style>
<g id="Layer_3"></g><g id="Layer_1"></g><g id="Layer_2"></g><g id="Layer_4"></g><g id="Layer_5"><path d="M15.75 29.91C3.51 29.91 3.51 29.91 3.51 29.91 3.51 12.24 3.51 12.24 3.51 12.24 3.76 11 6.32 7.51 8.61 4.77 10.65 4.77 10.65 4.77 10.65 4.77 12.95 7.51 15.5 10.99 15.75 12.24 15.75 14.45 15.75 16.39 15.75 18.08 16.3 17.5 16.95 17.67 17.79 17.54 17.79 12.52 17.79 11.98 17.79 11.98 17.79 9.99 11.67 2.77 11.67 2.77 7.59 2.77 7.59 2.77 7.59 2.77 7.59 2.77 1.46 10 1.46 11.99 1.46 31.9 1.46 31.9 1.46 31.9 17.79 31.9 17.79 31.9 17.79 31.9 17.79 30.83 15.75 29.91 15.75 29.91Z" class="MsftOfcResponsive_Fill_7823dc" fill="#7823DC" fill-rule="evenodd" clip-rule="evenodd"/><path d="M5.58 0.1 13.74 0.1 13.74 4.28 5.58 4.28 5.58 0.1Z" class="MsftOfcResponsive_Fill_7823dc" fill="#7823DC" fill-rule="evenodd" clip-rule="evenodd"/><path d="M11.7 2.05 11.7 2.32 7.62 2.32 7.62 2.05 11.7 2.05 11.7 2.05 11.7 2.05ZM13.74 0.1 5.58 0.1 5.58 4.28 13.74 4.28 13.74 0.1 13.74 0.1 13.74 0.1 13.74 0.1Z" class="MsftOfcResponsive_Fill_7823dc" fill="#7823DC" fill-rule="evenodd" clip-rule="evenodd"/><path d="M11.7 2.05 11.7 2.32 7.62 2.32 7.62 2.05 11.7 2.05M13.74 0.1 5.58 0.1 5.58 4.28 13.74 4.28 13.74 0.1 13.74 0.1" class="MsftOfcResponsive_Fill_7823dc" fill="#7823DC" fill-rule="evenodd" clip-rule="evenodd"/><path d="M2.77 12.25 16.29 12.25 16.29 14.2 2.77 14.2 2.77 12.25Z" class="MsftOfcResponsive_Fill_7823dc" fill="#7823DC" fill-rule="evenodd" clip-rule="evenodd"/><path d="M2.77 22.95 2.77 24.97 8.79 24.97C8.59 24.35 8.03 23.66 8.01 22.95L2.77 22.95Z" class="MsftOfcResponsive_Fill_7823dc" fill="#7823DC" fill-rule="evenodd" clip-rule="evenodd"/><path d="M18.52 31.95C11.08 31.95 5.02 25.92 5.02 18.51L5.02 17.51 32.02 17.51 32.02 18.51C32.02 25.92 25.97 31.95 18.52 31.95ZM7.07 19.51C7.58 25.35 12.52 29.95 18.52 29.95 24.52 29.95 29.46 25.35 29.98 19.51L7.07 19.51Z" class="MsftOfcResponsive_Fill_7823dc" fill="#7823DC"/><rect x="19.44" y="13.92" width="10.92" height="2" class="MsftOfcResponsive_Fill_7823dc" fill="#7823DC" transform="matrix(0.7867 -0.6173 0.6173 0.7867 -3.9008 18.5539)"/></g></svg>