<svg width="30.78" height="31.75" viewBox="0 0 30.78 31.75" xmlns="http://www.w3.org/2000/svg" xmlns:xlink="http://www.w3.org/1999/xlink" overflow="hidden"><style>
.MsftOfcResponsive_Fill_7823dc {
 fill:#7823DC; 
}
</style>
<defs></defs><g><rect x="1.39" y="14.13" width="2" height="17.62" class="MsftOfcResponsive_Fill_7823dc" fill="#7823DC"/></g><g><rect x="27.39" y="14.13" width="2" height="17.62" class="MsftOfcResponsive_Fill_7823dc" fill="#7823DC"/></g><g><path d="M29.36 16.8 15.39 2.83 1.41 16.8 0 15.39 15.39 0 30.78 15.39Z" class="MsftOfcResponsive_Fill_7823dc" fill="#7823DC"/></g><g><path d="M29.4 16.83 23.4 10.83 23.38 4.13 29.38 4.13 29.4 16.83ZM25.4 10 27.4 12 27.39 6.14 25.39 6.14 25.4 10Z" class="MsftOfcResponsive_Fill_7823dc" fill="#7823DC"/></g><g><path d="M23.39 17.75 23.39 25.75 7.41 25.75 7.41 17.75 23.39 17.75M25.39 15.75 5.41 15.75 5.41 27.75 25.39 27.75 25.39 15.75 25.39 15.75Z" class="MsftOfcResponsive_Fill_7823dc" fill="#7823DC"/></g><g><path d="M17.39 13.75 17.39 15.75 13.28 15.75 13.28 13.75 17.39 13.75M19.39 11.75 11.28 11.75 11.28 17.75 19.39 17.75 19.39 11.75 19.39 11.75Z" class="MsftOfcResponsive_Fill_7823dc" fill="#7823DC"/></g><g><rect x="1.39" y="29.75" width="28" height="2" class="MsftOfcResponsive_Fill_7823dc" fill="#7823DC"/></g><g><rect x="5.39" y="19.75" width="20" height="2" class="MsftOfcResponsive_Fill_7823dc" fill="#7823DC"/></g><g><rect x="13.39" y="21.75" width="4" height="2" class="MsftOfcResponsive_Fill_7823dc" fill="#7823DC"/></g></svg>