<svg viewBox="0 0 32 32" xmlns="http://www.w3.org/2000/svg" xmlns:xlink="http://www.w3.org/1999/xlink" id="Layer_1" overflow="hidden"><style>
.MsftOfcResponsive_Fill_7823dc {
 fill:#7823DC; 
}
</style>
<g><path d="M28.1 19.3 26.9 12.8 28.8 12.8 28.8 10.9 26.6 10.9 26.2 9 18.9 9 18.9 10.9 20.9 10.9 22.5 23 17.2 23 15.4 18.8C16.3 18.3 16.9 17.4 16.9 16.2 16.9 14.6 15.6 13.3 14.1 13.3L11.9 13.3 11.9 3.2 0 3.2 0 15.4 3.1 15.4 3.1 19.2 6.3 19.2C5.1 20.4 4.3 22.1 4.3 24L4.3 25 6.3 25C6.7 27.2 8.6 28.8 10.9 28.8 13.2 28.8 15.1 27.1 15.5 25L22.7 25C23.1 27.2 25 28.8 27.3 28.8 29.9 28.8 32 26.6 32 24 32 21.6 30.3 19.7 28.1 19.3L28.1 19.3ZM1.9 13.5 1.9 5.1 10 5.1 10 13.4 1.9 13.4 1.9 13.5ZM5 17.3 5 15.4 14.1 15.4C14.6 15.4 15 15.8 15 16.4 15 16.9 14.6 17.4 14.1 17.4L5 17.4ZM11 19.2 13.5 19.2 15.2 23 6.4 23C6.8 20.9 8.7 19.2 11 19.2L11 19.2ZM11 26.9C9.8 26.9 8.7 26.1 8.3 25L13.6 25C13.2 26.1 12.2 26.9 11 26.9L11 26.9ZM24.7 10.9 26.2 19.3C25.4 19.5 24.6 19.9 24 20.5L22.7 10.8 24.7 10.9 24.7 10.9 24.7 10.9ZM27.3 26.9C25.7 26.9 24.5 25.6 24.5 24 24.5 22.4 25.8 21.1 27.3 21.1 28.9 21.1 30.1 22.4 30.1 24 30.1 25.6 28.9 26.9 27.3 26.9L27.3 26.9Z" class="MsftOfcResponsive_Fill_7823dc" fill="#7823DC" fill-rule="evenodd" clip-rule="evenodd"/></g></svg>