<svg viewBox="0 0 32 32" xmlns="http://www.w3.org/2000/svg" xmlns:xlink="http://www.w3.org/1999/xlink" xml:space="preserve" overflow="hidden"><style>
.MsftOfcResponsive_Fill_7823dc {
 fill:#7823DC; 
}
</style>
<g id="Layer_3"></g><g id="Layer_1"></g><g id="Layer_2"><path d="M25.32 32 20.5 26.87 18.71 26.87 18.71 24.87 21.38 24.87 27.97 32Z" class="MsftOfcResponsive_Fill_7823dc" fill="#7823DC"/><path d="M32 29.6 25.11 22.17 25.21 21.67C25.35 20.91 25.39 19.58 25 19.11L26.53 17.82C27.43 18.88 27.37 20.61 27.26 21.52L32.01 26.62 32.01 29.6Z" class="MsftOfcResponsive_Fill_7823dc" fill="#7823DC"/><path d="M26.49 13.2 24.55 13.2 24.49 10.71 32 3.24 32 6.04 26.49 11.54Z" class="MsftOfcResponsive_Fill_7823dc" fill="#7823DC"/><path d="M25.49 0 20.81 4.84C19.94 4.59 18.77 4.45 17.55 4.63 17.56 4.96 17.67 6.56 17.66 6.65 19.24 6.36 20.61 6.88 20.7 6.92L21.32 7.18 28.45 0 25.49 0Z" class="MsftOfcResponsive_Fill_7823dc" fill="#7823DC"/></g><g id="Layer_4"></g><g id="Layer_5"><path d="M6.14 32 3.32 32 12.22 23.13 17.42 22.08 21.64 17.7 20.22 16.21 21.67 14.83 24.41 17.71 18.42 23.91 13.21 24.97Z" class="MsftOfcResponsive_Fill_7823dc" fill="#7823DC"/><g><path d="M12.93 6.59 10.78 6.12 4.35 0 7.22 0 11.8 4.29 13.36 4.63Z" class="MsftOfcResponsive_Fill_7823dc" fill="#7823DC"/></g><g><path d="M7.7 11.97 5.7 11.97 5.7 10.84 0 5.35 0 2.62 7.7 10Z" class="MsftOfcResponsive_Fill_7823dc" fill="#7823DC"/></g><path d="M18.08 20.46 16.66 19.04 21.12 14.57 19.71 12.98 21.2 11.65 23.87 14.64Z" class="MsftOfcResponsive_Fill_7823dc" fill="#7823DC"/><path d="M16.15 18.52 14.76 17.09 20.4 11.62 19.94 11.2 14.3 16.72 12.9 15.29 19.9 8.44 23.31 11.58Z" class="MsftOfcResponsive_Fill_7823dc" fill="#7823DC"/><path d="M11.17 16.24 9.77 14.81 17.04 7.74 19.13 9.66 17.78 11.13 17.08 10.49Z" class="MsftOfcResponsive_Fill_7823dc" fill="#7823DC"/><path d="M0 29.01 0 26.24 6.95 19.08 6.9 14.07 10.87 9.99 13.12 12.24 11.71 13.65 10.89 12.84 8.9 14.88 8.92 20.08Z" class="MsftOfcResponsive_Fill_7823dc" fill="#7823DC"/></g></svg>