<svg viewBox="0 0 29.22 29.22" xmlns="http://www.w3.org/2000/svg" xmlns:xlink="http://www.w3.org/1999/xlink" xml:space="preserve" overflow="hidden"><style>
.MsftOfcResponsive_Fill_7823dc {
 fill:#7823DC; 
}
</style>
<g id="Layer_3"></g><g id="Layer_1"></g><g id="Layer_2"></g><g id="Layer_4"></g><g id="Layer_5"><path d="M19.93 14.2 9.28 14.2 9.28 0.01 19.93 0.01 19.93 14.2ZM11.28 12.2 17.93 12.2 17.93 2.01 11.28 2.01 11.28 12.2Z" class="MsftOfcResponsive_Fill_7823dc" fill="#7823DC"/><rect x="13.36" y="8.17" width="2.5" height="5.03" class="MsftOfcResponsive_Fill_7823dc" fill="#7823DC" fill-rule="evenodd" clip-rule="evenodd"/><rect x="12.04" y="4.18" width="2.01" height="2" class="MsftOfcResponsive_Fill_7823dc" fill="#7823DC" fill-rule="evenodd" clip-rule="evenodd"/><rect x="15.16" y="4.18" width="2.01" height="2" class="MsftOfcResponsive_Fill_7823dc" fill="#7823DC" fill-rule="evenodd" clip-rule="evenodd"/><g><path d="M2.47 10.76 4.08 15.56 5.03 17.82 6.83 16.5 7.02 16.22 7.68 17.82 7.96 18.1 8.43 18.29 11.18 20.08 11.37 22.34 11.56 22.81 11.84 23.09 12.69 24.69 10.22 26.48 9.1 25.17 8.91 24.89 8.63 24.7 3.42 21.5 1.99 11.23 2.47 10.76 2.47 10.76 2.47 10.76ZM3.41 7.84 0 10.29 1.8 22.63 7.68 26.3 9.77 29.22 15.08 24.89 13.18 22.16 12.71 19.24 9.3 16.88 7.5 13.77 5.88 14.9 3.41 7.84 3.41 7.84 3.41 7.84 3.41 7.84Z" class="MsftOfcResponsive_Fill_7823dc" fill="#7823DC" fill-rule="evenodd" clip-rule="evenodd"/><path d="M2.47 10.76 4.08 15.56 5.03 17.82 6.83 16.5 7.02 16.22 7.68 17.82 7.96 18.1 8.43 18.29 11.18 20.08 11.37 22.34 11.56 22.81 11.84 23.09 12.69 24.69 10.22 26.48 9.1 25.17 8.91 24.89 8.63 24.7 3.42 21.5 1.99 11.23 2.47 10.76M3.41 7.84 0 10.29 1.8 22.63 7.68 26.3 9.77 29.22 15.08 24.89 13.18 22.16 12.71 19.24 9.3 16.88 7.5 13.77 5.88 14.9 3.41 7.84 3.41 7.84" class="MsftOfcResponsive_Fill_7823dc" fill="#7823DC" fill-rule="evenodd" clip-rule="evenodd"/><path d="M6.81 20.87 4.75 17.64 4.56 16.49 6.34 16.02 6.53 16.87 8.12 19.92 6.81 20.87 6.81 20.87Z" class="MsftOfcResponsive_Fill_7823dc" fill="#7823DC" fill-rule="evenodd" clip-rule="evenodd"/><path d="M26.94 10.76 27.13 11.23 25.8 21.5 20.49 24.7 20.3 24.89 20.02 25.17 18.88 26.49 16.6 24.7 17.55 23.1 17.74 22.82 17.74 22.35 18.02 20.09 20.77 18.3 21.24 18.11 21.43 17.83 22.09 16.23 22.37 16.51 24.36 17.83 25.02 15.57 26.94 10.76 26.94 10.76 26.94 10.76ZM25.99 7.84 23.52 14.91 21.62 13.78 19.82 16.89 16.41 19.25 15.94 22.17 14.14 24.9 19.35 29.23 21.44 26.31 27.41 22.64 29.21 10.3 25.99 7.84 25.99 7.84 25.99 7.84 25.99 7.84Z" class="MsftOfcResponsive_Fill_7823dc" fill="#7823DC" fill-rule="evenodd" clip-rule="evenodd"/><path d="M26.94 10.76 27.13 11.23 25.8 21.5 20.49 24.7 20.3 24.89 20.02 25.17 18.88 26.49 16.6 24.7 17.55 23.1 17.74 22.82 17.74 22.35 18.02 20.09 20.77 18.3 21.24 18.11 21.43 17.83 22.09 16.23 22.37 16.51 24.36 17.83 25.02 15.57 26.94 10.76M25.99 7.84 23.52 14.91 21.62 13.78 19.82 16.89 16.41 19.25 15.94 22.17 14.14 24.9 19.35 29.23 21.44 26.31 27.41 22.64 29.21 10.3 25.99 7.84 25.99 7.84" class="MsftOfcResponsive_Fill_7823dc" fill="#7823DC" fill-rule="evenodd" clip-rule="evenodd"/><path d="M22.58 20.87 20.98 19.92 22.77 16.87 23.05 16.02 24.66 16.49 24.38 17.64 22.58 20.87 22.58 20.87Z" class="MsftOfcResponsive_Fill_7823dc" fill="#7823DC" fill-rule="evenodd" clip-rule="evenodd"/><line x1="16.19" y1="12.86" x2="16.19" y2="12.86" stroke="#231F20" stroke-width="2.375" stroke-miterlimit="8" fill="none"/></g></g></svg>