<svg viewBox="0 0 32 32" xmlns="http://www.w3.org/2000/svg" xmlns:xlink="http://www.w3.org/1999/xlink" id="Layer_1" overflow="hidden"><path d="M16.1 0C12.1 0 8.3 1.6 5.5 4.1 5 4.6 4.6 5 4.1 5.5 1.7 8.4 0.3 12 0.3 16 0.3 24.8 7.4 32 16.2 32 20.2 32 23.9 30.5 26.7 28 27.2 27.5 27.7 27.1 28.1 26.6 30.6 23.8 32.1 20.1 32.1 16 32 7.2 24.9 0 16.1 0ZM26.6 25.2C26.2 25.7 25.7 26.2 25.2 26.6 22.8 28.7 19.6 30 16.2 30 8.5 30 2.3 23.7 2.3 16 2.3 12.6 3.5 9.4 5.6 7 6 6.5 6.5 6 7 5.5 9.4 3.3 12.6 2 16.1 2 23.8 2 30 8.3 30 16 30 19.5 28.7 22.7 26.6 25.2Z" fill="#7823DC"/><path d="M5 18 5 23.3 27 23.3 27 18 5 18ZM25 21.3 7 21.3 7 20 25 20 25 21.3Z" fill="#7823DC"/><path d="M20.4 16.4C19.5 14.6 19.3 13.2 19.7 12 20 11.3 20.4 10.9 20.7 10.7 20.9 10.5 21 10.5 21 10.4 21 10.3 21.1 9.8 19.9 8.6L21.3 7.2C22.6 8.5 23.1 9.7 22.9 10.7 22.8 11.5 22.3 11.9 21.9 12.1 21.7 12.3 21.5 12.4 21.5 12.6 21.4 12.9 21.3 13.7 22.1 15.3L20.4 16.4Z" fill="#7823DC"/><path d="M24.6 16.4C23.7 14.6 23.5 13.2 23.9 12 24.2 11.3 24.6 10.9 24.9 10.7 25.1 10.5 25.2 10.5 25.2 10.4 25.2 10.3 25.3 9.8 24.1 8.6L25.5 7.2C26.8 8.5 27.3 9.7 27.1 10.7 27 11.5 26.5 11.9 26.1 12.1 25.9 12.3 25.7 12.4 25.7 12.6 25.6 12.9 25.5 13.7 26.3 15.4L24.6 16.4Z" fill="#7823DC"/><path d="M32 30.6 32 32 30.6 32 26.6 28 25.2 26.6 0 1.4 0 0 1.4 0 5.5 4.1 7 5.5 21.4 20 22.8 21.3 24.8 23.3 26.6 25.2 28 26.6Z" fill="#7823DC"/></svg>