<svg viewBox="0 0 32 32" xmlns="http://www.w3.org/2000/svg" xmlns:xlink="http://www.w3.org/1999/xlink" id="Layer_1" xml:space="preserve" overflow="hidden"><g><path d="M16 12.2C14.4 12.2 13.1 13.5 13.1 15.1 13.1 16.7 14.4 18 16 18 17.6 18 18.9 16.7 18.9 15.1 18.9 13.5 17.6 12.2 16 12.2L16 12.2ZM16 15.9C15.5 15.9 15.2 15.5 15.2 15.1 15.2 14.6 15.6 14.3 16 14.3 16.5 14.3 16.8 14.7 16.8 15.1 16.8 15.5 16.4 15.9 16 15.9L16 15.9Z" fill="#7823DC" fill-rule="evenodd" clip-rule="evenodd"/><path d="M32 22.9 31.9 22.9 31.9 22.9M24 19.7 25.4 17 27.2 18.4 28.4 16.8 25.4 14.5 25.4 14.4 25.3 14.4 17 8 17 4 19 4 19 2 17 2 17 0 15 0 15 2 13 2 13 4 15 4 15 8 6.6 14.3 6.5 14.3 6.5 14.4 3.4 16.8 4.6 18.4 6.5 17 7.5 19.7 7 22.9 7 22.9 7 32 6.5 32 8.6 32 11.2 32 15 32 17 32 20.7 32 23.3 32 24 32M13.3 29.9 13.3 25.7C13.3 24.6 14 23.6 15 23.2L15 29.8 13.3 29.8 13.3 29.9 13.3 29.9ZM17 29.9 17 23.3C18 23.7 18.7 24.7 18.7 25.8L18.7 30 17 30 17 29.9 17 29.9ZM20.8 29.9 20.8 25.7C20.8 23.1 18.7 20.9 16 20.9 13.4 20.9 11.2 23 11.2 25.7L11.2 29.9 8.6 29.9 8.6 15.4 16 9.8 23.4 15.4 23.4 29.9 20.8 29.9 20.8 29.9 20.8 29.9Z" fill="#7823DC" fill-rule="evenodd" clip-rule="evenodd"/></g><rect x="6.6" y="15.3" width="2" height="16.7" fill="#7823DC"/><rect x="23.3" y="15.3" width="2" height="16.7" fill="#7823DC"/></svg>