<svg viewBox="0 0 29.22 29.22" xmlns="http://www.w3.org/2000/svg" xmlns:xlink="http://www.w3.org/1999/xlink" xml:space="preserve" overflow="hidden"><g id="Layer_3"></g><g id="Layer_1"></g><g id="Layer_2"></g><g id="Layer_4"></g><g id="Layer_5"><g><path d="M21.43 23.19 21.43 19.48C24.43 19 26.74 16.39 26.74 13.26 26.74 9.78 23.91 6.95 20.43 6.95 19.52 6.95 18.66 7.15 17.88 7.49L7.19 3.13 7.19 3.13C7.08 3.07 6.96 3.01 6.84 2.97L6.84 1.17 4.84 1.17 4.84 2.96C3.75 3.37 2.98 4.41 2.98 5.63 2.98 6.85 3.75 7.9 4.84 8.3L4.84 9.04C3.76 9.45 2.98 10.49 2.98 11.71 2.98 12.93 3.76 13.97 4.84 14.38L4.84 15.11C3.76 15.52 2.98 16.56 2.98 17.78 2.98 19 3.76 20.04 4.84 20.45L4.84 23.18 0.01 23.18 0.01 29.22 29.25 29.22 29.25 23.18 21.43 23.18ZM24.74 13.25C24.74 15.63 22.81 17.56 20.43 17.56 18.05 17.56 16.12 15.63 16.12 13.25 16.12 10.87 18.05 8.94 20.43 8.94 22.81 8.94 24.74 10.87 24.74 13.25ZM5.84 4.78C6.31 4.78 6.7 5.17 6.7 5.64 6.7 6.11 6.31 6.49 5.84 6.49 5.37 6.49 4.98 6.11 4.98 5.63 4.98 5.15 5.36 4.78 5.84 4.78ZM5.84 10.85C6.31 10.85 6.7 11.24 6.7 11.71 6.7 12.18 6.31 12.57 5.84 12.57 5.37 12.57 4.98 12.18 4.98 11.71 4.98 11.23 5.36 10.85 5.84 10.85ZM8.7 11.71C8.7 11.66 8.69 11.61 8.68 11.55L14.13 12.93C14.12 13.04 14.11 13.14 14.11 13.25 14.11 13.72 14.17 14.17 14.26 14.61L6.83 14.88 6.83 14.37C7.92 13.97 8.7 12.93 8.7 11.71ZM5.84 16.92C6.31 16.92 6.7 17.31 6.7 17.78 6.7 18.25 6.31 18.64 5.84 18.64 5.37 18.64 4.98 18.25 4.98 17.78 4.98 17.31 5.36 16.92 5.84 16.92ZM14.55 10.97 6.84 9.02 6.84 8.3C7.84 7.93 8.57 7 8.67 5.89L15.92 8.84C15.33 9.45 14.86 10.17 14.55 10.97ZM6.84 20.45C7.92 20.04 8.7 19 8.7 17.78 8.7 17.44 8.63 17.12 8.52 16.82L15.08 16.58C16.03 18.09 17.6 19.18 19.43 19.47L19.43 23.18 6.84 23.18 6.84 20.45ZM27.25 27.22 2.01 27.22 2.01 25.18 27.25 25.18 27.25 27.22Z" fill="#7823DC"/><path d="M20.43 14.69C21.23 14.69 21.87 14.04 21.87 13.25 21.87 12.46 21.22 11.81 20.43 11.81 19.63 11.81 18.99 12.46 18.99 13.25 18.99 14.04 19.63 14.69 20.43 14.69Z" fill="#7823DC"/></g></g></svg>