<svg viewBox="0 0 31.91 32" xmlns="http://www.w3.org/2000/svg" xmlns:xlink="http://www.w3.org/1999/xlink" id="Layer_1" overflow="hidden"><style>
.MsftOfcResponsive_Fill_7823dc {
 fill:#7823DC; 
}
</style>
<defs></defs><path d="M15.58 2C15.81 2 16.02 2.04 16.2 2.11 16.38 2.19 16.55 2.3 16.71 2.47 16.87 2.64 16.99 2.81 17.07 2.99 17.15 3.18 17.18 3.38 17.18 3.6 17.18 3.83 17.14 4.04 17.07 4.23 16.99 4.42 16.88 4.59 16.71 4.76 16.55 4.93 16.38 5.04 16.19 5.12 16.01 5.2 15.8 5.23 15.57 5.23 15.34 5.23 15.14 5.19 14.95 5.11 14.77 5.04 14.61 4.92 14.45 4.77L14.39 4.72 14.39 4.72C14.24 4.56 14.13 4.4 14.06 4.22 13.98 4.03 13.94 3.83 13.94 3.6 13.94 3.37 13.98 3.19 14.06 3 14.13 2.84 14.23 2.68 14.36 2.54L14.43 2.47C14.59 2.31 14.76 2.19 14.95 2.11 15.14 2.03 15.35 1.99 15.58 1.99M24.72 5.83C25.31 5.83 25.76 6.02 26.17 6.43 26.38 6.64 26.53 6.86 26.63 7.1 26.73 7.35 26.78 7.61 26.78 7.91 26.78 8.21 26.73 8.46 26.63 8.7 26.53 8.94 26.38 9.15 26.17 9.36L26.09 9.44C25.91 9.61 25.71 9.73 25.5 9.82 25.26 9.92 25 9.97 24.71 9.97 24.12 9.97 23.67 9.78 23.25 9.37 23.04 9.16 22.89 8.94 22.79 8.7 22.69 8.46 22.64 8.2 22.64 7.91 22.64 7.62 22.69 7.35 22.79 7.1 22.89 6.86 23.04 6.64 23.25 6.42L23.3 6.36C23.49 6.19 23.69 6.06 23.91 5.96 24.15 5.86 24.41 5.81 24.7 5.81M6.34 6.26C6.5 6.26 6.64 6.29 6.77 6.34 6.9 6.39 7.01 6.47 7.13 6.59 7.24 6.7 7.32 6.82 7.37 6.94 7.42 7.07 7.45 7.21 7.45 7.38 7.45 7.55 7.42 7.68 7.37 7.81 7.32 7.93 7.24 8.05 7.12 8.17 7.01 8.28 6.89 8.36 6.76 8.42 6.63 8.47 6.49 8.5 6.33 8.5 6.18 8.5 6.04 8.48 5.92 8.42 5.79 8.37 5.67 8.28 5.56 8.17 5.45 8.06 5.37 7.94 5.31 7.81 5.26 7.68 5.23 7.54 5.23 7.38 5.23 7.22 5.26 7.07 5.31 6.94 5.36 6.81 5.44 6.7 5.55 6.59 5.67 6.47 5.79 6.39 5.91 6.34 6.03 6.29 6.17 6.26 6.32 6.26M28.43 15.37C28.64 15.37 28.82 15.4 28.99 15.47 29.16 15.54 29.31 15.64 29.46 15.79 29.61 15.94 29.71 16.09 29.78 16.26 29.85 16.43 29.88 16.61 29.88 16.82 29.88 17.03 29.85 17.21 29.78 17.38 29.71 17.55 29.61 17.7 29.46 17.85 29.31 18 29.16 18.1 28.99 18.17 28.82 18.24 28.64 18.27 28.43 18.27 28.22 18.27 28.04 18.24 27.87 18.17 27.7 18.1 27.55 18 27.4 17.85 27.25 17.7 27.15 17.55 27.08 17.38 27.01 17.21 26.98 17.03 26.98 16.82 26.98 16.61 27.01 16.43 27.08 16.26 27.15 16.09 27.26 15.94 27.4 15.79 27.55 15.64 27.7 15.54 27.87 15.47 28.04 15.4 28.22 15.37 28.43 15.37M2.57 15.9C2.69 15.9 2.77 15.92 2.81 15.94 2.85 15.96 2.91 15.99 3 16.08 3.06 16.14 3.11 16.21 3.13 16.27 3.16 16.34 3.17 16.41 3.17 16.5 3.17 16.59 3.16 16.66 3.13 16.73 3.1 16.8 3.06 16.87 2.99 16.93 2.91 17.01 2.85 17.04 2.81 17.06 2.74 17.09 2.66 17.1 2.57 17.1 2.49 17.1 2.42 17.09 2.35 17.06 2.29 17.03 2.23 16.99 2.15 16.92L2.15 16.92C2.08 16.85 2.03 16.78 2 16.71 1.97 16.64 1.96 16.57 1.96 16.49 1.96 16.41 1.97 16.34 2 16.27 2.03 16.2 2.07 16.14 2.15 16.06 2.22 15.99 2.28 15.95 2.35 15.92 2.42 15.89 2.49 15.88 2.57 15.88M24.52 24.92C24.63 24.92 24.7 24.94 24.74 24.96 24.79 24.98 24.84 25.02 24.9 25.06L24.95 25.11C25.1 25.26 25.13 25.37 25.13 25.52 25.13 25.64 25.11 25.71 25.09 25.76 25.07 25.8 25.04 25.86 24.96 25.95 24.89 26.02 24.83 26.06 24.76 26.09 24.69 26.12 24.61 26.13 24.53 26.13 24.44 26.13 24.36 26.12 24.29 26.09 24.22 26.06 24.16 26.02 24.1 25.96 24.04 25.9 24 25.84 23.97 25.77 23.94 25.7 23.93 25.62 23.93 25.52 23.93 25.43 23.94 25.36 23.97 25.29 24 25.22 24.04 25.16 24.11 25.09 24.24 24.95 24.34 24.91 24.53 24.91M6.33 25.13C6.43 25.13 6.49 25.15 6.53 25.17 6.59 25.19 6.64 25.23 6.69 25.28 6.76 25.35 6.78 25.4 6.8 25.43L6.82 25.47C6.82 25.47 6.84 25.55 6.84 25.61 6.84 25.71 6.82 25.77 6.81 25.8 6.8 25.83 6.77 25.88 6.7 25.95 6.63 26.02 6.58 26.04 6.54 26.06 6.5 26.08 6.44 26.1 6.33 26.1 6.26 26.1 6.2 26.09 6.15 26.07 6.12 26.06 6.06 26.03 5.99 25.95 5.92 25.88 5.9 25.84 5.89 25.81 5.88 25.78 5.86 25.72 5.86 25.62 5.86 25.55 5.87 25.5 5.89 25.45 5.9 25.42 5.93 25.37 5.99 25.3L6.03 25.26C6.03 25.26 6.12 25.19 6.16 25.17 6.19 25.16 6.24 25.14 6.33 25.14M15.52 28.72C15.65 28.72 15.72 28.74 15.76 28.76 15.8 28.78 15.86 28.81 15.95 28.89 16.02 28.96 16.06 29.02 16.09 29.09 16.12 29.16 16.13 29.24 16.13 29.32 16.13 29.4 16.12 29.48 16.09 29.55 16.07 29.59 16.04 29.66 15.95 29.75 15.82 29.88 15.72 29.93 15.52 29.93 15.44 29.93 15.37 29.92 15.3 29.89 15.23 29.86 15.16 29.81 15.09 29.75 15.02 29.68 14.98 29.62 14.95 29.54 14.92 29.47 14.91 29.41 14.91 29.32 14.91 29.24 14.92 29.18 14.95 29.11L14.97 29.07C15 29.01 15.04 28.96 15.1 28.9 15.17 28.83 15.24 28.78 15.31 28.75 15.38 28.72 15.44 28.71 15.53 28.71M15.56-0.07C15.07-0.07 14.6 0.02 14.17 0.2 13.74 0.38 13.35 0.64 13 0.99L13 0.99C12.65 1.34 12.39 1.72 12.21 2.15 12.03 2.58 11.94 3.04 11.94 3.53 11.94 4.02 12.03 4.49 12.21 4.92 12.39 5.35 12.66 5.74 13.01 6.09 13.02 6.1 13.03 6.11 13.05 6.13 13.39 6.46 13.77 6.72 14.18 6.89 14.61 7.07 15.08 7.16 15.57 7.16 16.06 7.16 16.53 7.07 16.96 6.89 17.39 6.71 17.78 6.44 18.13 6.09 18.48 5.74 18.74 5.35 18.91 4.92 19.09 4.49 19.17 4.03 19.17 3.54 19.17 3.05 19.08 2.6 18.9 2.17 18.72 1.74 18.46 1.36 18.12 1 17.77 0.65 17.38 0.38 16.95 0.2 16.52 0.02 16.06-0.07 15.56-0.07L15.56-0.07ZM24.7 3.77C24.15 3.77 23.63 3.87 23.14 4.07 22.65 4.27 22.22 4.57 21.82 4.96L21.82 4.96C21.82 4.96 21.82 4.96 21.82 4.96 21.43 5.36 21.13 5.8 20.93 6.28 20.73 6.77 20.63 7.29 20.63 7.85 20.63 8.41 20.73 8.92 20.93 9.41 21.13 9.89 21.43 10.33 21.82 10.73 22.61 11.52 23.57 11.92 24.69 11.92 25.24 11.92 25.76 11.82 26.25 11.62 26.73 11.42 27.17 11.12 27.56 10.73L27.56 10.73C27.96 10.34 28.25 9.9 28.45 9.42 28.65 8.94 28.75 8.42 28.75 7.86 28.75 7.3 28.65 6.77 28.45 6.29 28.25 5.8 27.95 5.36 27.56 4.97 26.77 4.18 25.81 3.78 24.69 3.78L24.69 3.78ZM6.34 4.22C5.92 4.22 5.53 4.3 5.16 4.45 4.79 4.6 4.46 4.83 4.16 5.13 3.86 5.43 3.63 5.77 3.48 6.14 3.33 6.51 3.25 6.91 3.25 7.34 3.25 7.77 3.33 8.16 3.48 8.54 3.63 8.91 3.86 9.25 4.16 9.55 4.46 9.85 4.8 10.08 5.16 10.23 5.53 10.38 5.92 10.46 6.34 10.46 6.76 10.46 7.16 10.38 7.54 10.23 7.91 10.08 8.25 9.85 8.55 9.55 8.85 9.25 9.08 8.91 9.23 8.54 9.38 8.17 9.46 7.77 9.46 7.34 9.46 6.91 9.38 6.51 9.23 6.14 9.08 5.77 8.85 5.43 8.54 5.13L8.54 5.13C8.24 4.83 7.9 4.6 7.53 4.45 7.16 4.3 6.76 4.22 6.33 4.22L6.33 4.22ZM28.45 13.33C27.98 13.33 27.54 13.42 27.13 13.59 26.72 13.76 26.34 14.01 26.01 14.34 25.68 14.67 25.43 15.05 25.26 15.46 25.09 15.87 25 16.31 25 16.78 25 17.25 25.09 17.69 25.26 18.1 25.43 18.51 25.68 18.88 26.01 19.21 26.34 19.54 26.72 19.79 27.13 19.96 27.54 20.13 27.98 20.22 28.45 20.22 28.92 20.22 29.36 20.13 29.77 19.96 30.18 19.79 30.55 19.54 30.88 19.21 31.21 18.88 31.46 18.51 31.63 18.1 31.8 17.69 31.89 17.25 31.89 16.78 31.89 16.31 31.8 15.87 31.63 15.46 31.46 15.05 31.21 14.67 30.88 14.34 30.55 14.01 30.18 13.76 29.77 13.59 29.36 13.42 28.92 13.33 28.45 13.33L28.45 13.33ZM2.59 13.86C2.24 13.86 1.91 13.93 1.59 14.06 1.28 14.19 1 14.38 0.75 14.63 0.5 14.88 0.31 15.16 0.18 15.47 0.05 15.78-0.02 16.12-0.02 16.47-0.02 16.82 0.05 17.15 0.18 17.47 0.31 17.78 0.5 18.06 0.75 18.31L0.75 18.31C0.75 18.31 0.75 18.31 0.75 18.31L0.75 18.31C1 18.56 1.28 18.75 1.59 18.88 1.9 19.01 2.23 19.08 2.58 19.08 2.93 19.08 3.28 19.01 3.59 18.88 3.9 18.75 4.18 18.56 4.44 18.3 4.69 18.05 4.87 17.77 5 17.46 5.13 17.15 5.19 16.82 5.19 16.47 5.19 16.12 5.13 15.79 5 15.48 4.87 15.17 4.69 14.9 4.44 14.65 4.19 14.39 3.91 14.2 3.59 14.07 3.28 13.94 2.94 13.87 2.58 13.87L2.58 13.87ZM24.54 22.9C23.81 22.9 23.19 23.16 22.69 23.68L22.69 23.68C22.44 23.93 22.26 24.21 22.13 24.52 22 24.83 21.94 25.16 21.94 25.51 21.94 25.86 22 26.2 22.13 26.51 22.26 26.83 22.45 27.11 22.7 27.36 22.95 27.61 23.23 27.8 23.55 27.93 23.86 28.06 24.2 28.12 24.55 28.12 24.9 28.12 25.23 28.06 25.54 27.93 25.85 27.8 26.13 27.62 26.38 27.37 26.64 27.12 26.83 26.84 26.96 26.52 27.09 26.21 27.16 25.87 27.16 25.51 27.16 24.8 26.9 24.19 26.39 23.68L26.39 23.68C26.14 23.43 25.86 23.23 25.55 23.1 25.24 22.97 24.91 22.9 24.55 22.9L24.55 22.9ZM6.34 23.12C6 23.12 5.69 23.18 5.39 23.31 5.1 23.43 4.83 23.62 4.59 23.86 4.58 23.87 4.56 23.89 4.55 23.9 4.33 24.13 4.16 24.38 4.05 24.66 3.92 24.96 3.86 25.28 3.86 25.61 3.86 25.94 3.92 26.27 4.05 26.57 4.17 26.87 4.36 27.14 4.6 27.37L4.6 27.37C4.84 27.61 5.1 27.78 5.4 27.9 5.7 28.02 6.01 28.08 6.34 28.08 6.67 28.08 7 28.02 7.3 27.9 7.6 27.78 7.86 27.6 8.11 27.36 8.35 27.12 8.54 26.85 8.66 26.56 8.78 26.26 8.85 25.94 8.85 25.6 8.85 25.26 8.79 24.95 8.66 24.65 8.66 24.63 8.64 24.61 8.63 24.59 8.51 24.32 8.33 24.07 8.11 23.85 7.87 23.61 7.6 23.43 7.3 23.3 7 23.18 6.68 23.11 6.34 23.11L6.34 23.11ZM15.53 26.7C15.18 26.7 14.85 26.77 14.54 26.9 14.23 27.03 13.95 27.22 13.7 27.47L13.7 27.47C13.7 27.47 13.7 27.47 13.7 27.47L13.7 27.47C13.45 27.73 13.25 28.01 13.13 28.31 13.13 28.33 13.11 28.35 13.11 28.37 12.99 28.67 12.94 28.98 12.94 29.31 12.94 29.66 13.01 29.99 13.14 30.3 13.27 30.61 13.46 30.89 13.71 31.14 13.96 31.39 14.24 31.58 14.55 31.71 14.86 31.84 15.19 31.91 15.54 31.91 16.27 31.91 16.89 31.65 17.4 31.13 17.65 30.88 17.83 30.6 17.96 30.29 18.09 29.98 18.15 29.65 18.15 29.3 18.15 28.95 18.09 28.62 17.96 28.31 17.83 28 17.65 27.72 17.4 27.47 17.15 27.21 16.87 27.02 16.55 26.89 16.24 26.76 15.9 26.69 15.54 26.69L15.54 26.69Z" class="MsftOfcResponsive_Fill_7823dc" fill="#7823DC"/></svg>