<svg width="36.5" height="36.5" viewBox="0 0 36.5 36.5" xmlns="http://www.w3.org/2000/svg" xmlns:xlink="http://www.w3.org/1999/xlink" overflow="hidden"><defs></defs><g><g><defs><path d="M0 36.5 36.5 36.5 36.5 0 0 0 0 36.5Z" id="SVGID_1_" fill="#7823DC"/></defs><clipPath id="SVGID_2_"><use width="100%" height="100%" xlink:href="#SVGID_1_"></use></clipPath><g clip-path="url(#SVGID_2_)"><defs><path d="M0 36.5 36.5 36.5 36.5 0 0 0 0 36.5Z" id="SVGID_3_" fill="#7823DC"/></defs><clipPath id="SVGID_4_"><use width="100%" height="100%" xlink:href="#SVGID_3_"></use></clipPath><path d="M8 20.6C11.1 20.6 13.7 23.2 13.7 26.3 13.7 29.4 11.1 32 8 32 4.9 32 2.3 29.4 2.3 26.3 2.3 23.2 4.8 20.6 8 20.6M8 18.3C3.6 18.3 0 21.9 0 26.3 0 30.7 3.6 34.3 8 34.3 12.4 34.3 16 30.7 16 26.3 16 21.9 12.4 18.3 8 18.3L8 18.3Z" fill="#7823DC" clip-path="url(#SVGID_4_)"/><path d="M2.6 24.4 0.3 24.1 1.8 10.5C2.4 6.5 6 3.1 10.4 2.3 11 2.2 11.5 2.2 12.1 2.2L13.6 2.2 13.6 4.5 12.1 4.5C11.6 4.5 11.2 4.5 10.8 4.6 7.5 5.2 4.6 7.8 4.1 10.8L2.6 24.4Z" fill="#7823DC" clip-path="url(#SVGID_4_)"/><path d="M14.4 26.3 14.2 24 18.3 23.5 22.1 24 21.8 26.3 18.3 25.8Z" fill="#7823DC" clip-path="url(#SVGID_4_)"/><path d="M28.5 20.6C31.6 20.6 34.2 23.2 34.2 26.3 34.2 29.4 31.7 32 28.5 32 25.3 32 22.8 29.4 22.8 26.3 22.8 23.2 25.4 20.6 28.5 20.6M28.5 18.3C24.1 18.3 20.5 21.9 20.5 26.3 20.5 30.7 24.1 34.3 28.5 34.3 32.9 34.3 36.5 30.7 36.5 26.3 36.5 21.9 32.9 18.3 28.5 18.3L28.5 18.3Z" fill="#7823DC" clip-path="url(#SVGID_4_)"/><path d="M33.9 24.4 32.4 10.8C32 7.9 29.1 5.2 25.7 4.6 25.3 4.5 24.9 4.5 24.4 4.5L22.8 4.5 22.8 2.3 24.3 2.3C24.8 2.3 25.4 2.3 25.9 2.4 30.3 3.1 33.9 6.6 34.5 10.5L36 24.1 33.9 24.4Z" fill="#7823DC" clip-path="url(#SVGID_4_)"/></g></g></g></svg>