<svg viewBox="0 0 29.22 29.22" xmlns="http://www.w3.org/2000/svg" xmlns:xlink="http://www.w3.org/1999/xlink" xml:space="preserve" overflow="hidden"><style>
.MsftOfcResponsive_Fill_7823dc {
 fill:#7823DC; 
}
</style>
<g id="Layer_3"></g><g id="Layer_1"></g><g id="Layer_2"></g><g id="Layer_4"></g><g id="Layer_5"><g><path d="M14.51 9.96C12.96 9.96 11.7 11.22 11.7 12.77 11.7 14.32 12.96 15.58 14.51 15.58 16.06 15.58 17.32 14.32 17.32 12.77 17.32 11.22 16.06 9.96 14.51 9.96ZM14.51 13.58C14.06 13.58 13.7 13.22 13.7 12.77 13.7 12.32 14.06 11.96 14.51 11.96 14.96 11.96 15.32 12.32 15.32 12.77 15.32 13.22 14.96 13.58 14.51 13.58Z" class="st0 MsftOfcResponsive_Fill_7823dc" fill="#7823DC"/><path d="M27.62 20.34 23.65 17.26 23.65 14.66 25.38 15.98 26.59 14.39 23.64 12.15 23.64 12.09 23.57 12.09 15.5 5.94 15.5 3.81 17.6 3.81 17.6 1.81 15.5 1.81 15.5-0.06 13.5-0.06 13.5 1.81 11.61 1.81 11.61 3.81 13.5 3.81 13.5 5.93 5.43 12.08 5.36 12.08 5.36 12.14 2.33 14.45 3.54 16.04 5.36 14.65 5.36 17.25 1.37 20.34 1.29 20.34 1.29 29.21 5.36 29.21 7.36 29.21 9.89 29.21 13.51 29.21 15.51 29.21 19.13 29.21 21.66 29.21 23.66 29.21 27.73 29.21 27.73 20.34 27.62 20.34ZM3.29 27.21 3.29 21.39 5.36 19.79 5.36 27.22 3.29 27.22ZM11.89 27.21 11.89 23.18C11.89 22.09 12.56 21.15 13.51 20.76L13.51 27.21 11.89 27.21ZM15.51 27.21 15.51 20.76C16.46 21.15 17.13 22.09 17.13 23.18L17.13 27.21 15.51 27.21ZM19.13 27.21 19.13 23.18C19.13 20.63 17.06 18.56 14.51 18.56 11.96 18.56 9.89 20.63 9.89 23.18L9.89 27.21 7.36 27.21 7.36 13.13 14.5 7.69 21.65 13.13 21.65 27.21 19.13 27.21ZM23.65 27.21 23.65 19.79 25.72 21.4 25.72 27.21 23.65 27.21Z" class="st0 MsftOfcResponsive_Fill_7823dc" fill="#7823DC"/></g></g></svg>