<svg viewBox="0 0 32 32" xmlns="http://www.w3.org/2000/svg" xmlns:xlink="http://www.w3.org/1999/xlink" overflow="hidden"><style>
.MsftOfcResponsive_Fill_7823dc {
 fill:#7823DC; 
}
</style>
<defs></defs><g id="a"></g><g id="b"></g><g id="c"><path d="M16.01 0.12C7.22 0.12 0.07 7.26 0.07 16.04 0.07 24.82 7.22 31.96 16.01 31.96 24.8 31.96 31.95 24.82 31.95 16.04 31.95 7.26 24.8 0.12 16.01 0.12ZM28.12 9.17 17.02 9.17 17.02 2.17C21.78 2.51 25.88 5.24 28.12 9.17ZM29.95 16.04C29.95 17.48 29.73 18.88 29.32 20.19L17.02 20.19 17.02 11.17 29.06 11.17C29.63 12.69 29.96 14.32 29.96 16.04ZM15.02 2.17 15.02 15.05 2.12 15.05C2.61 8.17 8.13 2.66 15.02 2.17ZM2.12 17.05 15.02 17.05 15.02 29.91C8.13 29.42 2.62 23.93 2.12 17.05ZM17.02 29.9 17.02 22.18 28.5 22.18C26.36 26.49 22.06 29.53 17.02 29.9Z" class="e MsftOfcResponsive_Fill_7823dc" fill="#7823DC"/></g><g id="d"></g></svg>