<svg width="36.5" height="36.6" viewBox="0 0 36.5 36.6" xmlns="http://www.w3.org/2000/svg" xmlns:xlink="http://www.w3.org/1999/xlink" overflow="hidden"><defs></defs><g><g><defs><path d="M0 36.5 36.5 36.5 36.5 0 0 0 0 36.5Z" id="SVGID_1_" fill="#7823DC"/></defs><clipPath id="SVGID_2_"><use width="100%" height="100%" xlink:href="#SVGID_1_"></use></clipPath><g clip-path="url(#SVGID_2_)"><defs><path d="M0 36.5 36.5 36.5 36.5 0 0 0 0 36.5Z" id="SVGID_3_" fill="#7823DC"/></defs><clipPath id="SVGID_4_"><use width="100%" height="100%" xlink:href="#SVGID_3_"></use></clipPath><path d="M29.5 4.6C29.5 2.7 28 1.2 26.1 1.2 24.2 1.2 22.7 2.7 22.7 4.6 22.7 6.5 24.2 8 26.1 8 28 8 29.5 6.5 29.5 4.6L29.5 4.6ZM27.2 4.6C27.2 5.2 26.7 5.7 26.1 5.7 25.5 5.7 25 5.2 25 4.6 25 4 25.5 3.5 26.1 3.5 26.7 3.5 27.2 3.9 27.2 4.6L27.2 4.6Z" fill="#7823DC" clip-path="url(#SVGID_4_)"/><path d="M28.7 19.6 27.2 9.1 31.4 9.1 34.2 18.3 32 19 29.8 11.6 31.1 20 31.2 21.2 29 21.9 23.9 23.6 23.9 36.6 21.7 36.6 21.7 22 28.7 19.6 28.7 19.6Z" fill="#7823DC" clip-path="url(#SVGID_4_)"/><path d="M22.6 9.1 24.9 9.1 24.1 14.9 21.8 14.9 22.6 9.1 22.6 9.1Z" fill="#7823DC" clip-path="url(#SVGID_4_)"/><path d="M11.4 16 25.1 16 25.1 18.3 11.4 18.3 11.4 16Z" fill="#7823DC" clip-path="url(#SVGID_4_)"/><path d="M17.1 16.3 19.4 16.3 19.4 36.6 17.1 36.6 17.1 16.3Z" fill="#7823DC" clip-path="url(#SVGID_4_)"/><path d="M10.4 8C12.3 8 13.8 6.5 13.8 4.6 13.8 2.7 12.3 1.2 10.4 1.2 8.5 1.1 7 2.7 7 4.6 7 6.5 8.5 8 10.4 8L10.4 8ZM10.4 3.4C11 3.4 11.5 3.9 11.5 4.5 11.5 5.1 11 5.6 10.4 5.6 9.8 5.6 9.3 5.1 9.3 4.5 9.3 3.9 9.8 3.4 10.4 3.4L10.4 3.4Z" fill="#7823DC" clip-path="url(#SVGID_4_)"/><path d="M7.8 19.6 9.3 9.1 5.1 9.1 2.3 18.3 4.5 19 6.7 11.6 5.4 20 5.3 21.2 7.5 21.9 12.5 23.6 12.5 36.6 14.8 36.6 14.8 22 7.8 19.6 7.8 19.6Z" fill="#7823DC" clip-path="url(#SVGID_4_)"/><path d="M13.9 9.1 11.6 9.1 12.4 14.9 14.7 14.9 13.9 9.1 13.9 9.1Z" fill="#7823DC" clip-path="url(#SVGID_4_)"/></g></g></g></svg>