<svg width="36.5" height="36.6" viewBox="0 0 36.5 36.6" xmlns="http://www.w3.org/2000/svg" xmlns:xlink="http://www.w3.org/1999/xlink" overflow="hidden"><style>
.MsftOfcThm_Text2_Fill_v2 {
 fill:#7823DC; 
}
</style>
<defs></defs><g><g><defs><path d="M0 36.5 36.5 36.5 36.5 0 0 0 0 36.5Z" id="SVGID_1_" class="MsftOfcThm_Text2_Fill_v2" fill="#7823DC"/></defs><clipPath id="SVGID_2_"><use width="100%" height="100%" xlink:href="#SVGID_1_"></use></clipPath><g clip-path="url(#SVGID_2_)"><defs><path d="M0 36.5 36.5 36.5 36.5 0 0 0 0 36.5Z" id="SVGID_3_" class="MsftOfcThm_Text2_Fill_v2" fill="#7823DC"/></defs><clipPath id="SVGID_4_"><use width="100%" height="100%" xlink:href="#SVGID_3_"></use></clipPath><path d="M18.2 36.6C8.2 36.6 0 28.4 0 18.3 0 8.2 8.2 0 18.2 0L18.2 2.3C9.4 2.3 2.2 9.5 2.2 18.3 2.2 27.1 9.4 34.3 18.2 34.3 27 34.3 34.2 27.1 34.2 18.3L36.5 18.3C36.5 28.4 28.3 36.6 18.2 36.6Z" class="MsftOfcThm_Text2_Fill_v2" fill="#7823DC" clip-path="url(#SVGID_4_)"/><path d="M18.2 27.4C13.2 27.4 9.1 23.3 9.1 18.3 9.1 13.3 13.2 9.2 18.2 9.2L18.2 11.5C14.4 11.5 11.4 14.6 11.4 18.4 11.4 22.2 14.5 25.3 18.2 25.3 22 25.3 25 22.2 25 18.4L27.3 18.4C27.4 23.3 23.3 27.4 18.2 27.4Z" class="MsftOfcThm_Text2_Fill_v2" fill="#7823DC" clip-path="url(#SVGID_4_)"/><path d="M31.9 11.4 25.1 11.4 25.1 4.6 22.8 6.9 22.8 13.7 29.7 13.7 31.9 11.4 31.9 11.4Z" class="MsftOfcThm_Text2_Fill_v2" fill="#7823DC" clip-path="url(#SVGID_4_)"/><path d="M23.5 11.4 18.2 16.7 18.2 18.3 19.9 18.3 25.1 13.1 23.5 11.4 23.5 11.4Z" class="MsftOfcThm_Text2_Fill_v2" fill="#7823DC" clip-path="url(#SVGID_4_)"/></g></g></g></svg>