<svg viewBox="0 0 32 32" xmlns="http://www.w3.org/2000/svg" xmlns:xlink="http://www.w3.org/1999/xlink" id="Layer_1" overflow="hidden"><style>
.MsftOfcResponsive_Fill_7823dc {
 fill:#7823DC; 
}
</style>
<defs></defs><path d="M18.2 21.4C17.75 21.64 17.37 21.95 17.03 22.28L17.03 21.19 22.25 15.96C23.18 15.04 23.69 13.81 23.69 12.49 23.69 11.17 23.18 9.95 22.25 9.03 21.32 8.11 20.09 7.59 18.79 7.59 17.78 7.59 16.83 7.89 16.02 8.44 15.21 7.89 14.26 7.59 13.26 7.59 11.95 7.59 10.72 8.1 9.79 9.03 8.86 9.95 8.35 11.19 8.35 12.5 8.35 13.81 8.86 15.04 9.79 15.97L15.03 21.21 15.03 25.81 14.99 25.97C14.53 25.36 13.94 24.77 13.18 24.36 10.85 23.08 8 23.96 7.88 24L6.97 24.29 7.21 25.21C7.24 25.33 8.02 28.21 10.35 29.49 11.32 30.02 12.38 30.18 13.3 30.18 13.99 30.18 14.6 30.09 15.02 30L15.02 32.03 17.02 32.03 17.02 27.18C17.33 27.22 17.68 27.25 18.06 27.25 18.98 27.25 20.04 27.09 21.01 26.56 23.34 25.28 24.12 22.4 24.15 22.28L24.39 21.36 23.48 21.07C23.36 21.03 20.51 20.15 18.18 21.43ZM11.32 27.71 11.32 27.71C10.46 27.23 9.89 26.37 9.55 25.68 10.31 25.59 11.35 25.61 12.21 26.09 13.07 26.57 13.64 27.43 13.98 28.12 13.22 28.2 12.18 28.19 11.32 27.71ZM10.35 12.49C10.35 11.71 10.65 10.98 11.2 10.44 11.75 9.89 12.48 9.59 13.26 9.59 14.04 9.59 14.77 9.89 15.32 10.44L16.03 11.15 16.74 10.44C17.82 9.35 19.74 9.33 20.84 10.44 21.39 10.99 21.69 11.72 21.69 12.49 21.69 13.26 21.39 14 20.84 14.55L16.03 19.37 11.21 14.55C10.66 14 10.36 13.28 10.36 12.5ZM20.05 24.78 20.05 24.78C19.19 25.25 18.15 25.27 17.39 25.19 17.73 24.5 18.3 23.63 19.16 23.16 20.03 22.68 21.06 22.67 21.82 22.75 21.48 23.44 20.91 24.31 20.05 24.78Z" class="MsftOfcResponsive_Fill_7823dc" stroke-width="0" fill="#7823DC"/><rect x="15" y="0" width="2" height="4" class="MsftOfcResponsive_Fill_7823dc" stroke-width="0" fill="#7823DC"/><rect x="8" y="1.88" width="2" height="4" class="MsftOfcResponsive_Fill_7823dc" stroke-width="0" fill="#7823DC" transform="matrix(0.866025 -0.5 0.5 0.866025 -0.73 5.02)"/><rect x="2.88" y="7" width="2" height="4" class="MsftOfcResponsive_Fill_7823dc" stroke-width="0" fill="#7823DC" transform="matrix(0.499849 -0.866113 0.866113 0.499849 -5.86 7.86)"/><rect x="0" y="15" width="4" height="2" class="MsftOfcResponsive_Fill_7823dc" stroke-width="0" fill="#7823DC"/><rect x="21" y="2.88" width="4" height="2" class="MsftOfcResponsive_Fill_7823dc" stroke-width="0" fill="#7823DC" transform="matrix(0.499849 -0.866113 0.866113 0.499849 8.15 21.86)"/><rect x="26.12" y="8" width="4" height="2" class="MsftOfcResponsive_Fill_7823dc" stroke-width="0" fill="#7823DC" transform="matrix(0.866025 -0.5 0.5 0.866025 -0.73 15.27)"/><rect x="28" y="15" width="4" height="2" class="MsftOfcResponsive_Fill_7823dc" stroke-width="0" fill="#7823DC"/></svg>