<svg viewBox="0 0 31.94 32" xmlns="http://www.w3.org/2000/svg" xmlns:xlink="http://www.w3.org/1999/xlink" id="Outline_Final_icon" overflow="hidden"><defs></defs><rect x="14.12" y="30" width="14.9" height="2" fill="#7823DC"/><path d="M2.07 28.01 14.66 28.01 14.41 26.01 5.66 26.01 7.9 16.72 13.37 16.58 13.89 14.57 7.89 14.72 7.89 12.19 14.5 12.19 15.01 10.19 6.89 10.19 2 6.11 2 2 5.98 2 5.98 6.01 11.99 6.01 11.99 2 15.21 2 15.21 5.61 19.01 5.55 21.05 3.53 20.69 3.52 17.21 3.58 17.21 0 9.99 0 9.99 4.01 7.98 4.01 7.98 0 0 0 0 7.05 5.89 11.96 5.89 16.53 3.6 26.01 0.07 26.01 0.07 32 12.03 32 12.03 30 2.07 30 2.07 28.01Z" fill="#7823DC"/><path d="M28.43 11.57 27.73 9.28 24.24 7.46 23.98 2.61 16.38 10.22 14.55 17.44 15.85 28 26.76 28 26.93 23.19 24.18 17.67 26.19 17.53 29.94 19.36 31.92 14.02 28.42 11.57ZM28.85 16.6 26.61 15.5 24.63 15.64 23.39 14.85 21.5 16.74 24.93 23.64 24.84 26.01 17.62 26.01 16.58 17.57 18.19 11.25 22.23 7.2 22.31 8.7 26.06 10.66 26.71 12.81 29.51 14.77 28.83 16.59Z" fill="#7823DC"/></svg>