<svg width="32" height="32" viewBox="0 0 32 32" xmlns="http://www.w3.org/2000/svg" xmlns:xlink="http://www.w3.org/1999/xlink" overflow="hidden"><style>
.MsftOfcResponsive_Fill_7823dc {
 fill:#7823DC; 
}
</style>
<defs></defs><g><g><defs><rect x="0" y="0" width="32" height="32" id="SVGID_1_" class="MsftOfcResponsive_Fill_7823dc" fill="#7823DC"/></defs><clipPath id="SVGID_2_"><use width="100%" height="100%" xlink:href="#SVGID_1_"></use></clipPath><g clip-path="url(#SVGID_2_)"><defs><rect x="0" y="0" width="32" height="32" id="SVGID_3_" class="MsftOfcResponsive_Fill_7823dc" fill="#7823DC"/></defs><clipPath id="SVGID_4_"><use width="100%" height="100%" xlink:href="#SVGID_3_"></use></clipPath><path d="M19 2C19.6 2 20 2.4 20 3L20 5C20 5.6 19.6 6 19 6 18.4 6 18 5.6 18 5L18 3C18 2.4 18.5 2 19 2M19 0C17.3 0 16 1.3 16 3L16 5C16 6.7 17.3 8 19 8 20.7 8 22 6.7 22 5L22 3C22 1.3 20.7 0 19 0" class="MsftOfcResponsive_Fill_7823dc" fill="#7823DC" clip-path="url(#SVGID_4_)"/><rect x="12" y="0" width="2" height="8" class="MsftOfcResponsive_Fill_7823dc" fill="#7823DC" clip-path="url(#SVGID_4_)"/><path d="M7 2C7.6 2 8 2.4 8 3L8 5C8 5.6 7.6 6 7 6 6.5 6 6 5.6 6 5L6 3C6 2.4 6.5 2 7 2M7 0C5.4 0 4 1.3 4 3L4 5C4 6.7 5.3 8 7 8 8.7 8 10 6.7 10 5L10 3C10 1.3 8.7 0 7 0" class="MsftOfcResponsive_Fill_7823dc" fill="#7823DC" clip-path="url(#SVGID_4_)"/><rect x="0" y="0" width="2" height="8" class="MsftOfcResponsive_Fill_7823dc" fill="#7823DC" clip-path="url(#SVGID_4_)"/><rect x="24" y="0" width="2" height="8" class="MsftOfcResponsive_Fill_7823dc" fill="#7823DC" clip-path="url(#SVGID_4_)"/><path d="M31 6C30.4 6 30 5.6 30 5L30 3C30 2.4 30.4 2 31 2 31.6 2 32 2.4 32 3L32 0.2C30.4-0.4 28.7 0.5 28.2 2 28.1 2.3 28 2.7 28 3L28 5C28 6.7 29.4 8 31 8 31.3 8 31.7 7.9 32 7.8L32 5C32 5.6 31.6 6 31 6" class="MsftOfcResponsive_Fill_7823dc" fill="#7823DC" clip-path="url(#SVGID_4_)"/><path d="M13 12C13.6 12 14 12.4 14 13L14 15C14 15.6 13.6 16 13 16 12.4 16 12 15.6 12 15L12 13C12 12.4 12.5 12 13 12M13 10C11.3 10 10 11.3 10 13L10 15C10 16.7 11.3 18 13 18 14.7 18 16 16.7 16 15L16 13C16 11.3 14.7 10 13 10" class="MsftOfcResponsive_Fill_7823dc" fill="#7823DC" clip-path="url(#SVGID_4_)"/><rect x="18" y="10" width="2" height="8" class="MsftOfcResponsive_Fill_7823dc" fill="#7823DC" clip-path="url(#SVGID_4_)"/><path d="M25 12C25.6 12 26 12.4 26 13L26 15C26 15.6 25.6 16 25 16 24.4 16 24 15.6 24 15L24 13C24 12.4 24.5 12 25 12M25 10C23.3 10 22 11.3 22 13L22 15C22 16.7 23.3 18 25 18 26.7 18 28 16.7 28 15L28 13C28 11.3 26.7 10 25 10" class="MsftOfcResponsive_Fill_7823dc" fill="#7823DC" clip-path="url(#SVGID_4_)"/><rect x="30" y="10" width="2" height="8" class="MsftOfcResponsive_Fill_7823dc" fill="#7823DC" clip-path="url(#SVGID_4_)"/><rect x="6" y="10" width="2" height="8" class="MsftOfcResponsive_Fill_7823dc" fill="#7823DC" clip-path="url(#SVGID_4_)"/><path d="M1 16C1.6 16 2 15.6 2 15L2 13C2 12.4 1.6 12 1 12 0.4 12 0 12.4 0 13L0 10.2C0.4 10.1 0.7 10 1 10 2.7 10 4 11.3 4 13L4 15C4 16.7 2.7 18 1 18 0.7 18 0.3 17.9 0 17.8L0 15C0 15.6 0.5 16 1 16" class="MsftOfcResponsive_Fill_7823dc" fill="#7823DC" clip-path="url(#SVGID_4_)"/><path d="M19 22C19.6 22 20 22.4 20 23L20 25C20 25.6 19.6 26 19 26 18.4 26 18 25.6 18 25L18 23C18 22.4 18.5 22 19 22M19 20C17.3 20 16 21.3 16 23L16 25C16 26.7 17.3 28 19 28 20.7 28 22 26.7 22 25L22 23C22 21.3 20.7 20 19 20" class="MsftOfcResponsive_Fill_7823dc" fill="#7823DC" clip-path="url(#SVGID_4_)"/><rect x="12" y="20" width="2" height="8" class="MsftOfcResponsive_Fill_7823dc" fill="#7823DC" clip-path="url(#SVGID_4_)"/><path d="M7 22C7.6 22 8 22.4 8 23L8 25C8 25.6 7.6 26 7 26 6.4 26 6 25.6 6 25L6 23C6 22.4 6.5 22 7 22M7 20C5.3 20 4 21.3 4 23L4 25C4 26.7 5.3 28 7 28 8.7 28 10 26.7 10 25L10 23C10 21.3 8.7 20 7 20" class="MsftOfcResponsive_Fill_7823dc" fill="#7823DC" clip-path="url(#SVGID_4_)"/><rect x="0" y="20" width="2" height="8" class="MsftOfcResponsive_Fill_7823dc" fill="#7823DC" clip-path="url(#SVGID_4_)"/><rect x="24" y="20" width="2" height="8" class="MsftOfcResponsive_Fill_7823dc" fill="#7823DC" clip-path="url(#SVGID_4_)"/><path d="M31 26C30.4 26 30 25.6 30 25L30 23C30 22.4 30.4 22 31 22 31.6 22 32 22.4 32 23L32 20.2C30.4 19.6 28.7 20.5 28.2 22 28.1 22.3 28 22.7 28 23L28 25C28 26.7 29.4 28 31 28 31.3 28 31.7 27.9 32 27.8L32 25C32 25.6 31.6 26 31 26" class="MsftOfcResponsive_Fill_7823dc" fill="#7823DC" clip-path="url(#SVGID_4_)"/><path d="M13 30C11.7 30 10.6 30.8 10.2 32L15.8 32C15.4 30.8 14.3 30 13 30" class="MsftOfcResponsive_Fill_7823dc" fill="#7823DC" clip-path="url(#SVGID_4_)"/><rect x="18" y="30" width="2" height="2" class="MsftOfcResponsive_Fill_7823dc" fill="#7823DC" clip-path="url(#SVGID_4_)"/><path d="M25 30C23.7 30 22.6 30.8 22.2 32L27.8 32C27.4 30.8 26.3 30 25 30" class="MsftOfcResponsive_Fill_7823dc" fill="#7823DC" clip-path="url(#SVGID_4_)"/><rect x="30" y="30" width="2" height="2" class="MsftOfcResponsive_Fill_7823dc" fill="#7823DC" clip-path="url(#SVGID_4_)"/><rect x="6" y="30" width="2" height="2" class="MsftOfcResponsive_Fill_7823dc" fill="#7823DC" clip-path="url(#SVGID_4_)"/><path d="M3.9 32C3.5 30.8 2.3 30 1.1 30 0.8 30 0.4 30.1 0.1 30.2L0.1 32 3.9 32Z" class="MsftOfcResponsive_Fill_7823dc" fill="#7823DC" clip-path="url(#SVGID_4_)"/></g></g></g></svg>