<svg viewBox="0 0 32 32" xmlns="http://www.w3.org/2000/svg" xmlns:xlink="http://www.w3.org/1999/xlink" id="Layer_1" xml:space="preserve" overflow="hidden"><g><path d="M16 8.9 8.8 18.4 9.8 19.2 7.5 21.7 8.4 22.5 4.7 26.7 12.7 26.7 12.7 32 19.1 32 19.1 26.6 27.2 26.6 27.2 26.6 27.2 26.6 23.4 22.5 24.4 21.7 22.1 19.2 23.1 18.2 16 8.9M9.2 24.6 11.3 22.3 10.4 21.5 12.8 18.9 11.7 17.9 15.9 12.1 20.2 17.8 19.1 18.9 21.5 21.5 20.6 22.4 22.8 24.7 9.2 24.6 9.2 24.6 9.2 24.6ZM17.2 30 14.8 30 14.8 26.6 17.2 26.6 17.2 30 17.2 30 17.2 30Z" fill="#7823DC" fill-rule="evenodd" clip-rule="evenodd"/><path d="M14 3 18 3 18 5 14 5 14 3Z" fill="#7823DC" fill-rule="evenodd" clip-rule="evenodd"/><path d="M2 5 4.1 5 4.1 3 0 3 0 32 10 32 10 30 2 30 2 5 2 5Z" fill="#7823DC" fill-rule="evenodd" clip-rule="evenodd"/><path d="M28 3 28 5 30 5 30 30 22 30 22 32 32 32 32 3 28 3 28 3Z" fill="#7823DC" fill-rule="evenodd" clip-rule="evenodd"/><path d="M12.1-0.1 6-0.1 6 9.1 12.1 9.1 12.1-0.1 12.1-0.1 12.1-0.1ZM10.1 7.1 8 7.1 8 1.9 10.1 1.9 10.1 7.1 10.1 7.1 10.1 7.1Z" fill="#7823DC" fill-rule="evenodd" clip-rule="evenodd"/><path d="M26.1-0.1 20-0.1 20 9.1 26.1 9.1 26.1-0.1 26.1-0.1 26.1-0.1ZM24.1 7.1 22 7.1 22 1.9 24.1 1.9 24.1 7.1 24.1 7.1 24.1 7.1Z" fill="#7823DC" fill-rule="evenodd" clip-rule="evenodd"/></g></svg>