<svg viewBox="0 0 31.96 32" xmlns="http://www.w3.org/2000/svg" xmlns:xlink="http://www.w3.org/1999/xlink" id="Layer_1" overflow="hidden"><style>
.MsftOfcThm_Text2_Fill_v2 {
 fill:#7823DC; 
}
</style>
<path d="M22.79 21.07C19.61 21.07 17.03 18.49 17.03 15.31 17.03 12.13 19.61 9.55 22.79 9.55 25.97 9.55 28.55 12.13 28.55 15.31 28.55 18.49 25.97 21.07 22.79 21.07ZM22.79 11.54C20.72 11.54 19.03 13.23 19.03 15.3 19.03 17.37 20.72 19.06 22.79 19.06 24.86 19.06 26.55 17.37 26.55 15.3 26.55 13.23 24.86 11.54 22.79 11.54Z" class="MsftOfcThm_Text2_Fill_v2" fill="#7823DC"/><path d="M12.14 27.68C11.21 27.68 10.46 26.93 10.46 26 10.46 25.07 11.21 24.32 12.14 24.32L12.14 27.68Z" class="MsftOfcThm_Text2_Fill_v2" fill="#7823DC"/><path d="M12.14 27.68 12.14 24.32C13.07 24.32 13.82 25.07 13.82 26 13.82 26.93 13.07 27.68 12.14 27.68Z" class="MsftOfcThm_Text2_Fill_v2" fill="#7823DC"/><path d="M12.71 9.27C10.46 7.56 7.1 7.56 4.85 9.27L3.64 7.68C5.11 6.56 6.94 5.95 8.78 5.95 10.62 5.95 12.45 6.56 13.92 7.68L12.71 9.27Z" class="MsftOfcThm_Text2_Fill_v2" fill="#7823DC"/><path d="M16.36 4.52C14.19 2.89 11.49 2 8.78 2 6.07 2 3.37 2.9 1.2 4.52L-6.66134e-16 2.92C2.52 1.04 5.64 0 8.78 0 11.92 0 15.04 1.04 17.56 2.92L16.36 4.52Z" class="MsftOfcThm_Text2_Fill_v2" fill="#7823DC"/><path d="M6.66 32 3.19 22.3C3.1 22.05 3.07 21.77 3.1 21.51 3.13 21.25 3.23 20.98 3.37 20.76 3.52 20.53 3.73 20.34 3.97 20.21 4.21 20.08 4.49 20.01 4.77 20.01L15.97 20.01C16.46 20.01 16.93 20.16 17.33 20.46 17.72 20.74 18.02 21.14 18.18 21.6L21.91 32.01 6.66 32.01ZM5.2 22 8.06 30 19.06 30C19.06 30 16.29 22.26 16.29 22.26 16.26 22.18 16.21 22.11 16.14 22.06 16.08 22.02 16.02 22 15.95 22L5.2 22Z" class="MsftOfcThm_Text2_Fill_v2" fill="#7823DC"/><path d="M23.96 32 23.96 30 29.89 30C29.68 28.45 28.97 27.02 27.85 25.9 26.49 24.54 24.69 23.8 22.77 23.8L22.77 21.8C25.22 21.8 27.53 22.76 29.26 24.49 30.99 26.22 31.95 28.53 31.95 30.98L31.95 31.96 29.77 32 23.95 32Z" class="MsftOfcThm_Text2_Fill_v2" fill="#7823DC"/><path d="M10.21 14.21C9.29 13.57 8.28 13.57 7.36 14.21L6.23 12.56C7.83 11.45 9.75 11.45 11.36 12.57L10.22 14.21Z" class="MsftOfcThm_Text2_Fill_v2" fill="#7823DC"/></svg>