<svg viewBox="0 0 32 32" xmlns="http://www.w3.org/2000/svg" xmlns:xlink="http://www.w3.org/1999/xlink" overflow="hidden"><defs></defs><g id="Layer_3"><rect x="2.0203" y="7.19636" width="1.99342" height="4.80334" fill="#7823DC"/><rect x="12.0137" y="7.19636" width="2" height="4.80334" fill="#7823DC"/><path d="M12.011 7.196 9.183 7.196 8.013 8.366 6.843 7.196 4.015 7.196 6.599 9.78 6.598 9.781 8.012 11.195 8.013 11.194 8.015 11.196 9.429 9.782 9.427 9.78 12.011 7.196Z" fill="#7823DC"/><path d="M8.03152 2.00776C8.58381 2.00776 9.03152 2.45548 9.03152 3.00776 9.03152 3.56004 8.58381 4.00776 8.03152 4.00776 7.47924 4.00776 7.03152 3.56004 7.03152 3.00776 7.03215 2.45574 7.4795 2.00839 8.03152 2.00776M8.03152 0.00776C6.37467 0.00776 5.03152 1.35091 5.03152 3.00776 5.03152 4.66461 6.37467 6.00776 8.03152 6.00776 9.68837 6.00776 11.0315 4.66461 11.0315 3.00776 11.0315 1.35091 9.68837 0.00776005 8.03152 0.00776005Z" fill="#7823DC"/><rect x="18.0058" y="7.19636" width="1.99342" height="4.80334" fill="#7823DC"/><rect x="27.9992" y="7.19636" width="2" height="4.80334" fill="#7823DC"/><path d="M27.996 7.196 25.168 7.196 23.998 8.366 22.829 7.196 20 7.196 22.584 9.78 22.584 9.781 23.998 11.195 23.998 11.194 24 11.196 25.415 9.782 25.413 9.78 27.996 7.196Z" fill="#7823DC"/><path d="M24.017 2.00776C24.5693 2.00776 25.017 2.45548 25.017 3.00776 25.017 3.56004 24.5693 4.00776 24.017 4.00776 23.4647 4.00776 23.017 3.56004 23.017 3.00776 23.0176 2.45574 23.465 2.00839 24.017 2.00776M24.017 0.00776C22.3601 0.00776 21.017 1.35091 21.017 3.00776 21.017 4.66461 22.3601 6.00776 24.017 6.00776 25.6739 6.00776 27.017 4.66461 27.017 3.00776 27.017 1.35091 25.6739 0.00776005 24.017 0.00776005Z" fill="#7823DC"/><rect x="2.01305" y="27.1883" width="1.99342" height="4.81174" fill="#7823DC"/><rect x="12.0065" y="27.1883" width="2" height="4.81174" fill="#7823DC"/><path d="M12.004 27.188 9.175 27.188 8.006 28.358 6.836 27.188 4.008 27.188 6.591 29.772 6.591 29.773 8.005 31.187 8.006 31.186 8.008 31.188 9.422 29.774 9.42 29.772 12.004 27.188Z" fill="#7823DC"/><path d="M8.02426 21.9996C8.57654 21.9996 9.02426 22.4474 9.02426 22.9996 9.02426 23.5519 8.57654 23.9996 8.02426 23.9996 7.47197 23.9996 7.02426 23.5519 7.02426 22.9996 7.02489 22.4476 7.47224 22.0003 8.02426 21.9996M8.02426 19.9996C6.36741 19.9996 5.02426 21.3428 5.02426 22.9996 5.02426 24.6565 6.36741 25.9996 8.02426 25.9996 9.68111 25.9996 11.0243 24.6565 11.0243 22.9996 11.0243 21.3428 9.68111 19.9996 8.02426 19.9996Z" fill="#7823DC"/><rect x="17.9985" y="27.1883" width="1.99342" height="4.81174" fill="#7823DC"/><rect x="27.992" y="27.1883" width="2" height="4.81174" fill="#7823DC"/><path d="M27.989 27.188 25.161 27.188 23.991 28.358 22.822 27.188 19.993 27.188 22.577 29.772 22.576 29.773 23.991 31.187 23.991 31.186 23.993 31.188 25.407 29.774 25.405 29.772 27.989 27.188Z" fill="#7823DC"/><path d="M24.0098 21.9996C24.5621 21.9996 25.0098 22.4474 25.0098 22.9996 25.0098 23.5519 24.5621 23.9996 24.0098 23.9996 23.4575 23.9996 23.0098 23.5519 23.0098 22.9996 23.0104 22.4476 23.4577 22.0003 24.0098 21.9996M24.0098 19.9996C22.3529 19.9996 21.0098 21.3428 21.0098 22.9996 21.0098 24.6565 22.3529 25.9996 24.0098 25.9996 25.6666 25.9996 27.0098 24.6565 27.0098 22.9996 27.0098 21.3428 25.6666 19.9996 24.0098 19.9996Z" fill="#7823DC"/><path d="M32.003 30 30.003 30 30.003 14 2.003 14 2.003 30 0.003 30 0.003 12 32.003 12 32.003 30Z" fill="#7823DC"/><rect x="13.0029" y="27.9997" width="6" height="2" fill="#7823DC"/></g></svg>