<svg viewBox="0 0 32 32" xmlns="http://www.w3.org/2000/svg" xmlns:xlink="http://www.w3.org/1999/xlink" id="Layer_5" overflow="hidden"><defs></defs><path d="M32.06 15.8 22.84 10.1C23.17 9.27 23.35 8.36 23.35 7.42 23.36 3.36 20.06 0.06 16 0.06 11.94 0.06 8.64 3.36 8.64 7.42 8.64 8.37 8.83 9.28 9.16 10.12L-0.06 15.85 6 18.82 6 29.48 6.56 29.75C9.52 31.2 12.76 31.93 16 31.93 19.24 31.93 22.49 31.2 25.44 29.75L26 29.48 26 18.79 28 17.81 28 25.86 30 25.86 30 16.83 32.06 15.82ZM16 2.06C18.95 2.06 21.36 4.46 21.36 7.42 21.36 10.38 18.96 12.78 16 12.78 13.04 12.78 10.64 10.38 10.64 7.42 10.64 4.46 13.04 2.06 16 2.06ZM24 28.22C18.95 30.5 13.05 30.5 8 28.22L8 19.8 16 23.71 24 19.77 24 28.22ZM16 21.49 4.06 15.64 10.15 11.86C10.76 12.66 11.52 13.33 12.39 13.82L11.46 13.82 11.46 15.82 20.54 15.82 20.54 13.82 19.61 13.82C20.49 13.32 21.25 12.65 21.86 11.85L27.94 15.61 16 21.49Z" fill="#7823DC"/><path d="M14.48 8.88 12.36 8.88C12.36 10.29 13.47 11.51 14.99 11.51L14.99 12.42 17.01 12.42 17.01 11.51C18.43 11.51 19.64 10.3 19.64 8.88 19.64 7.26 18.63 6.66 17.01 6.46L17.01 5.05C17.21 5.25 17.41 5.45 17.41 5.76L19.43 5.76C19.33 4.45 18.32 3.34 16.9 3.34L16.9 2.43 14.98 2.43 14.98 3.34C13.66 3.44 12.65 4.45 12.55 5.76 12.55 7.27 13.26 7.98 14.98 8.28L14.98 9.79C14.68 9.59 14.47 9.29 14.47 8.88ZM17.01 8.58C17.31 8.68 17.52 8.88 17.52 9.19 17.52 9.5 17.32 9.8 17.01 9.9L17.01 8.59ZM14.58 5.55C14.58 5.35 14.68 5.05 14.88 4.94L14.98 6.15C14.78 6.05 14.58 5.85 14.58 5.54Z" fill="#7823DC"/></svg>