<svg viewBox="0 0 32 32" xmlns="http://www.w3.org/2000/svg" xmlns:xlink="http://www.w3.org/1999/xlink" id="Layer_5" xml:space="preserve" overflow="hidden"><g><path d="M9.6 17.7 9.6 17.8C9.5 18.4 9.1 18.5 8.8 18.5 8 18.5 7.8 17.7 7.8 17.2L7.8 17C7.8 16.2 8.1 15.7 8.7 15.7 9.1 15.7 9.4 15.9 9.4 16.4L9.4 16.5 11.3 16.5 11.3 16.4C11.2 15.1 10.3 14.3 8.7 14.3 7 14.3 5.9 15.4 5.9 17L5.9 17.1C5.9 18.8 6.9 19.8 8.8 19.8 10.4 19.8 11.3 19 11.4 17.7L11.4 17.6 9.6 17.6 9.6 17.7 9.6 17.7Z" fill="#7823DC" fill-rule="evenodd" clip-rule="evenodd"/><path d="M14.5 14.3C12.8 14.3 11.6 15.4 11.6 17L11.6 17.1C11.6 18.7 12.8 19.8 14.5 19.8 16.2 19.8 17.4 18.7 17.4 17L17.4 16.9C17.4 15.4 16.3 14.3 14.5 14.3L14.5 14.3ZM13.4 17.1C13.4 16.3 13.8 15.8 14.4 15.8 15.1 15.8 15.4 16.3 15.4 17.1L15.4 17.2C15.4 18 15 18.5 14.4 18.5 13.8 18.5 13.4 18 13.4 17.1L13.4 17.1 13.4 17.1 13.4 17.1Z" fill="#7823DC" fill-rule="evenodd" clip-rule="evenodd"/><path d="M19.5 18.9 19.5 18.9C19.9 18.6 20.1 18.3 20.1 17.8 20.1 17.3 19.8 16.8 18.9 16.8 18.1 16.8 17.6 17.2 17.6 18L17.6 18 18.7 18 18.7 17.9C18.7 17.6 18.8 17.6 18.9 17.6 19 17.6 19 17.6 19 17.7 19 17.9 18.8 18 18.6 18.3L17.7 19.3 17.7 19.6 20.4 19.6 20.4 18.7 19.6 18.7 19.6 18.9 19.5 18.9Z" fill="#7823DC" fill-rule="evenodd" clip-rule="evenodd"/><path d="M13.1 32C9.8 32 6.6 30.7 4.1 28.2 1.5 25.5 0 21.8 0 18L2 18C2 21.3 3.3 24.4 5.5 26.6 7.6 28.7 10.2 29.8 13.1 29.8 19.1 29.8 24.1 24.4 24.1 18L26.1 18C26.1 25.7 20.3 32 13.1 32L13.1 32 13.1 32Z" fill="#7823DC" fill-rule="evenodd" clip-rule="evenodd"/><path d="M2 18.7 0 18.7 0 11.1 4.2 5.7 5.9 6.9 2 11.9 2 18.7Z" fill="#7823DC" fill-rule="evenodd" clip-rule="evenodd"/><path d="M24.2 17.6 32.3 17.6 32.3 19.6 24.2 19.6 24.2 17.6Z" fill="#7823DC" fill-rule="evenodd" clip-rule="evenodd"/><path d="M32.3 12.5 24.7 12.5 20.4 6.9 22 5.7 25.7 10.4 32.3 10.4 32.3 12.5Z" fill="#7823DC" fill-rule="evenodd" clip-rule="evenodd"/></g></svg>