<svg viewBox="0 0 32 32" xmlns="http://www.w3.org/2000/svg" xmlns:xlink="http://www.w3.org/1999/xlink" id="Layer_2_00000047049931527376604040000014475774611771997086_" xml:space="preserve" overflow="hidden"><style>
.MsftOfcResponsive_Fill_7823dc {
 fill:#7823DC; 
}
</style>
<g><path d="M17.2 20.6C14 20.6 12.6 20.5 11.2 20.4 10.3 20.3 9.5 20.3 8.2 20.2L8 20.2C7.7 20.1 7.4 20 7 20 5.9 19.8 4.6 19.6 3.6 18.9L3.2 18.6 3.1 14.1 4 13.9C4.6 13.8 5.2 13.7 5.7 13.6 6.6 13.4 7.5 13.3 9 13.2 10.6 11.7 15 8.6 22.4 13.5 23.1 13.6 25.4 13.5 26.7 12.9L27.2 9.2 31.2 9.2 31.9 19.8 19.9 20.6C18.9 20.6 18 20.6 17.2 20.6ZM8.4 18.2C9.7 18.2 10.5 18.3 11.4 18.4 13.1 18.5 14.8 18.7 19.8 18.6L29.8 17.9 29.4 11.2 29 11.2 28.6 14.2 28.2 14.5C26.4 15.7 22.3 16 21.4 15.4 14.9 11 11.4 13.7 10.1 15L9.8 15.3 9.4 15.3C7.8 15.3 7 15.5 6 15.7 5.7 15.8 5.4 15.8 5.1 15.9L5.1 17.6C5.7 17.9 6.4 18 7.2 18.1 7.7 18.1 8.1 18.1 8.4 18.2Z" class="MsftOfcResponsive_Fill_7823dc" fill="#7823DC"/><g><path d="M22.1 22.1 21.7 22.1C16.5 22.1 13.6 21.7 10.5 20.6L9.7 20.3 9.9 19.4C10.1 18.5 10.1 18.1 21.7 16.8L22 16.8 27.9 17.1 22.1 22.1ZM15.3 19.7C17 19.9 18.9 20.1 21.4 20.1L22.8 18.9 22.1 18.9 22 18.9C19 19.2 16.9 19.5 15.3 19.7Z" class="MsftOfcResponsive_Fill_7823dc" fill="#7823DC"/></g><path d="M12.2 16.4C12 16.4 11.8 16.4 11.6 16.3L9.1 15.2 9.9 13.4 12.3 14.5 18.3 14.1 18.5 13.1 20.5 13.5 20.2 14.9C20.1 15.5 19.5 16 18.8 16.1L12.2 16.4C12.3 16.4 12.3 16.4 12.2 16.4ZM18.3 14.4 18.3 14.4 18.3 14.4Z" class="MsftOfcResponsive_Fill_7823dc" fill="#7823DC"/><path d="M4.9 21.6 3.9 22.8 3.1 21.6 3.1 11 3.9 9.8 4.9 11Z" class="MsftOfcResponsive_Fill_7823dc" fill="#7823DC"/><path d="M3.4 18.7 0.1 16 3.8 13.9 4.8 15.6 3.6 16.3 4.7 17.1Z" class="MsftOfcResponsive_Fill_7823dc" fill="#7823DC"/></g></svg>