<svg viewBox="0 0 52.46 52.92" xmlns="http://www.w3.org/2000/svg" xmlns:xlink="http://www.w3.org/1999/xlink" id="Grid" overflow="hidden"><defs></defs><path d="M32.57 52.92 5.04 52.92 4.25 51.95C2.88 50.28 1.82 48.39 1.09 46.34 0.37 44.31 -2.22045e-16 42.17 -2.22045e-16 40 -2.22045e-16 36.94 0.75 33.89 2.17 31.18 3.6 28.47 5.69 26.13 8.22 24.38L8.66 24.17 9.71 23.92 11.84 23.92 11.84 11.28 17.35 11.28 17.35 9.28 11.84 9.28 11.84 6.33 7.41 6.33 7.41 3.03 11.84 3.03 11.84 0.09 26.15 0.09 26.15 3.03 33.31 3.03C35.41 0.05 40.22-0.9 45.04 0.94 47.53 1.89 49.64 3.46 50.98 5.36 52.45 7.46 52.85 9.72 52.09 11.73L52.09 11.73C51.33 13.74 49.54 15.17 47.05 15.76 44.79 16.29 42.18 16.07 39.69 15.12 35.13 13.39 32.22 9.79 32.27 6.34L26.17 6.34 26.17 9.29 20.66 9.29 20.66 11.29 26.17 11.29 26.17 23.93 28.38 24 29.38 24.39C31.91 26.13 34 28.48 35.43 31.18 36.85 33.88 37.6 36.93 37.6 40 37.6 42.17 37.23 44.3 36.51 46.34 35.8 48.36 34.73 50.25 33.36 51.95L32.57 52.93ZM6.6 49.62 31 49.62C32.05 48.28 32.86 46.81 33.41 45.23 34.01 43.55 34.31 41.79 34.31 39.99 34.31 38.76 34.16 37.53 33.88 36.34L3.72 36.34C3.43 37.54 3.29 38.76 3.29 39.99 3.29 41.78 3.59 43.55 4.19 45.22 4.76 46.81 5.57 48.29 6.61 49.61ZM4.91 33.04 32.69 33.04C32.63 32.93 32.58 32.82 32.52 32.71 31.38 30.55 29.72 28.66 27.71 27.23L27.63 27.2 9.88 27.23C7.87 28.65 6.22 30.54 5.07 32.71 5.01 32.82 4.96 32.93 4.9 33.04ZM15.13 23.91 22.87 23.91 22.87 14.56 15.13 14.56 15.13 23.91ZM40.16 3.31C38 3.31 36.24 4.09 35.71 5.5 34.89 7.67 37.24 10.66 40.85 12.04 42.71 12.74 44.69 12.93 46.29 12.55 47.1 12.36 48.53 11.85 49.01 10.56L49.01 10.56C49.5 9.27 48.77 7.94 48.29 7.26 47.34 5.91 45.73 4.73 43.88 4.02 42.61 3.54 41.33 3.31 40.16 3.31ZM15.13 5.99 22.81 5.99 22.81 3.39 15.13 3.39 15.13 5.99ZM24.54 41.29 14.97 41.29 14.97 37.99 24.54 37.99 24.54 41.29Z" stroke-width="0" fill="#7823DC"/></svg>