<svg viewBox="0 0 32 32" xmlns="http://www.w3.org/2000/svg" xmlns:xlink="http://www.w3.org/1999/xlink" id="Layer_1" overflow="hidden"><g><path d="M25 32 32 32 32 0 25 0 25 32ZM29.8 2 29.8 30 27.2 30 27.2 2 29.8 2Z" fill="#7823DC"/><path d="M32 21.4 32 21.4 32 24.8 30 27.7 28.3 30 26.9 32 25.7 32 25.7 30.3 26 29.8 27.7 27.5 30 24.2Z" fill="#7823DC"/><path d="M32 15.9 32 19.4 30 22.2 27.7 25.5 26 27.8 26 27.8 25.7 27.6 25.7 24.9 26 24.4 27.7 22 30 18.8Z" fill="#7823DC"/><path d="M32 10.2 32 13.7 30 16.5 27.7 19.8 26 22.1 26 22.1 25.7 21.8 25.7 19.1 26 18.7 27.7 16.3 30 13Z" fill="#7823DC"/><path d="M32 4.4 32 7.9 30 10.7 27.7 14 26 16.3 26 16.3 25.7 16.1 25.7 13.4 26 12.9 27.7 10.5 30 7.2Z" fill="#7823DC"/><path d="M31.1 0 32 0 32 2.2 30 5 29.8 5.3 27.7 8.2 27.2 8.9 26 10.6 26 10.6 25.7 10.3 25.7 7.6 26 7.2 27.2 5.4 27.7 4.8 29.7 2Z" fill="#7823DC"/></g><g><path d="M19.8 15.2 0 15.2 0 13.3 19.8 13.3C21.1 13.3 22.2 12.2 22.2 10.9 22.2 9.6 21.1 8.5 19.8 8.5 18.5 8.5 17.4 9.6 17.4 10.9L15.5 10.9C15.5 8.5 17.4 6.6 19.8 6.6 22.2 6.6 24.1 8.5 24.1 10.9 24.1 13.3 22.2 15.2 19.8 15.2L19.8 15.2Z" fill="#7823DC"/><path d="M14.3 25.3C12 25.3 10.2 23.5 10.2 21.2L12.1 21.2C12.1 22.4 13.1 23.3 14.2 23.3 15.4 23.3 16.3 22.3 16.3 21.2 16.3 20 15.3 19.1 14.2 19.1L3.9 19.1 3.9 17.2 14.3 17.2C16.6 17.2 18.4 19 18.4 21.3 18.3 23.5 16.5 25.3 14.3 25.3L14.3 25.3Z" fill="#7823DC"/><path d="M6.3 26.8C4.7 26.8 3.4 25.5 3.4 23.9L5.3 23.9C5.3 24.4 5.7 24.9 6.3 24.9 6.9 24.9 7.3 24.5 7.3 23.9 7.3 23.4 6.9 22.9 6.3 22.9L0 22.9 0 21 6.3 21C7.9 21 9.2 22.3 9.2 23.9 9.2 25.5 7.9 26.8 6.3 26.8L6.3 26.8Z" fill="#7823DC"/><path d="M12.7 8.3C12.7 10 11.3 11.4 9.6 11.4L0 11.4 0 9.4 9.6 9.4C10.2 9.4 10.8 8.9 10.8 8.2 10.8 7.6 10.3 7 9.6 7 9 7 8.4 7.5 8.4 8.2L6.5 8.2C6.5 6.5 7.9 5.1 9.6 5.1 11.3 5.2 12.7 6.6 12.7 8.3Z" fill="#7823DC"/></g></svg>