<svg viewBox="0 0 26.88 26.73" xmlns="http://www.w3.org/2000/svg" xmlns:xlink="http://www.w3.org/1999/xlink" id="Grid" overflow="hidden"><style>
.MsftOfcResponsive_Fill_7823dc {
 fill:#7823DC; 
}
</style>
<defs></defs><path d="M21.04 18.59 21.04 18.52C21.04 17.09 21.04 14.71 19.66 12.83 18.85 11.74 17.96 11.05 17.23 10.61L17.23 8.05 19.13 8.05 19.13 6.14 16.76 6.14 19.57 1.14 17.9 0.2 14.56 6.13 14.34 6.13 14.34 0 12.42 0 12.42 6.13 12.2 6.13 8.84 0.2 7.17 1.14 9.98 6.14 7.61 6.14 7.61 8.05 9.52 8.05 9.52 10.61C8.78 11.05 7.89 11.74 7.08 12.84 5.69 14.74 5.7 17.13 5.7 18.56L5.7 18.58C4.02 18.69 2.69 19.21 2.59 19.25L1.84 19.55 2 20.33C2.04 20.49 2.9 24.44 5.88 26.01 6.91 26.56 8.02 26.74 9.06 26.74 11.02 26.74 12.67 26.09 12.77 26.05L13.36 25.81 13.95 26.05C14.06 26.09 15.71 26.74 17.66 26.74 18.69 26.74 19.81 26.56 20.84 26.01 23.81 24.43 24.68 20.5 24.72 20.33L24.88 19.55 24.13 19.25C24.03 19.21 22.71 18.69 21.02 18.58L21.02 18.58ZM15.31 8.05 15.31 8.95 11.43 8.95 11.43 8.05 15.31 8.05ZM7.62 18.56C7.62 17.29 7.62 15.36 8.64 13.97 9.76 12.44 11.08 11.93 11.45 11.82L11.45 11.82 11.45 10.87 15.33 10.87 15.33 11.82 15.33 11.82C15.7 11.93 17.01 12.44 18.12 13.96 19.14 15.34 19.14 17.25 19.14 18.53L19.14 18.68C18.52 18.79 17.88 18.98 17.28 19.29 17.09 19.4 16.91 19.5 16.73 19.62 15.99 17.52 14.32 16.04 14.23 15.96L13.63 15.43 13.01 15.94C12.91 16.02 11.02 17.56 10.27 19.78 10.03 19.6 9.78 19.44 9.51 19.28 8.91 18.96 8.27 18.77 7.65 18.67L7.65 18.56 7.65 18.56ZM6.79 24.33C5.31 23.55 4.51 21.81 4.14 20.78 5.2 20.5 7.1 20.2 8.58 20.98 10.06 21.76 10.86 23.51 11.23 24.54 10.17 24.82 8.28 25.12 6.79 24.34L6.79 24.34ZM13.39 24.96 13.37 25.06 13.35 24.96C13.33 24.85 12.94 23.12 11.84 21.5 11.88 20.05 12.87 18.75 13.55 18.04 14.14 18.73 14.98 19.9 15.1 21.2 13.83 22.9 13.4 24.86 13.37 24.97L13.37 24.97ZM19.95 24.33C18.46 25.11 16.57 24.81 15.51 24.53 15.87 23.5 16.68 21.75 18.16 20.97 19.64 20.19 21.54 20.49 22.6 20.77 22.24 21.8 21.43 23.55 19.95 24.33L19.95 24.33Z" class="MsftOfcResponsive_Fill_7823dc" stroke-width="0" fill="#7823DC" fill-rule="evenodd"/><path d="M3.69 0 5.68 0 5.68 1.84 3.69 1.84 3.69 0 3.69 0Z" class="MsftOfcResponsive_Fill_7823dc" stroke-width="0" fill="#7823DC" fill-rule="evenodd"/><path d="M0 3.84 1.84 3.84 1.84 5.68 0 5.68 0 3.84 0 3.84Z" class="MsftOfcResponsive_Fill_7823dc" stroke-width="0" fill="#7823DC" fill-rule="evenodd"/><path d="M24.89 1.84 26.88 1.84 26.88 3.84 24.89 3.84 24.89 1.84 24.89 1.84Z" class="MsftOfcResponsive_Fill_7823dc" stroke-width="0" fill="#7823DC" fill-rule="evenodd"/><path d="M21.05 3.84 23.04 3.84 23.04 5.68 21.05 5.68 21.05 3.84 21.05 3.84Z" class="MsftOfcResponsive_Fill_7823dc" stroke-width="0" fill="#7823DC" fill-rule="evenodd"/></svg>