<svg viewBox="0 0 32 32" xmlns="http://www.w3.org/2000/svg" xmlns:xlink="http://www.w3.org/1999/xlink" id="Layer_1" overflow="hidden"><style>
.MsftOfcResponsive_Fill_7823dc {
 fill:#7823DC; 
}
</style>
<g><path d="M21 16C18.2 16 16 13.8 16 11 16 8.2 18.2 6 21 6 23.8 6 26 8.2 26 11 26 13.7 23.8 16 21 16ZM21 8C19.3 8 18 9.3 18 11 18 12.7 19.3 14 21 14 22.7 14 24 12.7 24 11 24 9.3 22.7 8 21 8Z" class="st0 MsftOfcResponsive_Fill_7823dc" fill="#7823DC"/><g><defs><path d="M0 32 32 32 32 0 0 0 0 32Z" id="SVGID_1_" class="MsftOfcResponsive_Fill_7823dc" fill="#7823DC"/></defs><clipPath id="SVGID_00000139254508645927514730000010215010023766845093_"><use width="100%" height="100%" xlink:href="#SVGID_1_" overflow="visible"></use></clipPath><path d="M16 32C7.2 32 0 24.8 0 16 0 7.2 7.2 0 16 0 24.8 0 32 7.2 32 16 32 24.8 24.8 32 16 32ZM16 2C8.3 2 2 8.3 2 16 2 23.7 8.3 30 16 30 23.7 30 30 23.7 30 16 30 8.3 23.7 2 16 2Z" class="MsftOfcResponsive_Fill_7823dc" fill="#7823DC" clip-path="url(#SVGID_00000139254508645927514730000010215010023766845093_)"/><g clip-path="url(#SVGID_00000139254508645927514730000010215010023766845093_)"><defs><path d="M0 32 32 32 32 0 0 0 0 32Z" id="SVGID_00000155108279432528676260000006565826315003762328_" class="MsftOfcResponsive_Fill_7823dc" fill="#7823DC"/></defs><clipPath id="SVGID_00000087374453186573330590000005219098673408153784_"><use width="100%" height="100%" xlink:href="#SVGID_00000155108279432528676260000006565826315003762328_" overflow="visible"></use></clipPath><path d="M3.7 23.8 2 22.7C5.8 17.4 10.8 13.1 16.7 10.3L17.6 12.1C12 14.7 7.2 18.8 3.7 23.8Z" class="MsftOfcResponsive_Fill_7823dc" fill="#7823DC" clip-path="url(#SVGID_00000087374453186573330590000005219098673408153784_)"/><g clip-path="url(#SVGID_00000087374453186573330590000005219098673408153784_)"><defs><path d="M0 32 32 32 32 0 0 0 0 32Z" id="SVGID_00000136376042720204891710000000540848173459362214_" class="MsftOfcResponsive_Fill_7823dc" fill="#7823DC"/></defs><clipPath id="SVGID_00000039831807105277667430000000417110483126387622_"><use width="100%" height="100%" xlink:href="#SVGID_00000136376042720204891710000000540848173459362214_" overflow="visible"></use></clipPath><path d="M24.4 9.5 24 7.6C25.6 7.2 27.2 6.9 28.8 6.7L29 8.7C27.5 8.9 25.9 9.2 24.4 9.5Z" class="MsftOfcResponsive_Fill_7823dc" fill="#7823DC" clip-path="url(#SVGID_00000039831807105277667430000000417110483126387622_)"/><g clip-path="url(#SVGID_00000039831807105277667430000000417110483126387622_)"><defs><path d="M0 32 32 32 32 0 0 0 0 32Z" id="SVGID_00000113349110898854214610000010142453788345737137_" class="MsftOfcResponsive_Fill_7823dc" fill="#7823DC"/></defs><clipPath id="SVGID_00000033331779883106562340000012215372390224800144_"><use width="100%" height="100%" xlink:href="#SVGID_00000113349110898854214610000010142453788345737137_" overflow="visible"></use></clipPath><path d="M20.5 30.9 18.6 30.1C20.4 25.7 21.3 21 21.3 16.1 21.3 15.7 21.3 15.4 21.3 15L22.3 14.9 23.3 14.9 22.3 14.9 23.3 15C23.3 15.4 23.3 15.7 23.3 16.1 23.4 21.2 22.4 26.2 20.5 30.9Z" class="MsftOfcResponsive_Fill_7823dc" fill="#7823DC" clip-path="url(#SVGID_00000033331779883106562340000012215372390224800144_)"/><g clip-path="url(#SVGID_00000033331779883106562340000012215372390224800144_)"><defs><path d="M0 32 32 32 32 0 0 0 0 32Z" id="SVGID_00000074408400721204571320000005223817808055074742_" class="MsftOfcResponsive_Fill_7823dc" fill="#7823DC"/></defs><clipPath id="SVGID_00000086667556754440080790000009252379040407661196_"><use width="100%" height="100%" xlink:href="#SVGID_00000074408400721204571320000005223817808055074742_" overflow="visible"></use></clipPath><path d="M20.3 7.2C19.8 5.2 19.1 3.3 18.3 1.4L20.1 0.6C21 2.6 21.7 4.7 22.2 6.7L20.3 7.2Z" class="MsftOfcResponsive_Fill_7823dc" fill="#7823DC" clip-path="url(#SVGID_00000086667556754440080790000009252379040407661196_)"/><g clip-path="url(#SVGID_00000086667556754440080790000009252379040407661196_)"><defs><path d="M0 32 32 32 32 0 0 0 0 32Z" id="SVGID_00000137810884663512750690000000497083550856314549_" class="MsftOfcResponsive_Fill_7823dc" fill="#7823DC"/></defs><clipPath id="SVGID_00000134237905102172759030000001653133152534585267_"><use width="100%" height="100%" xlink:href="#SVGID_00000137810884663512750690000000497083550856314549_" overflow="visible"></use></clipPath><path d="M30.6 16.3C28.7 14.8 26.8 13.4 24.7 12.3L25.7 10.5C27.9 11.7 30 13.1 32 14.7L30.6 16.3Z" class="MsftOfcResponsive_Fill_7823dc" fill="#7823DC" clip-path="url(#SVGID_00000134237905102172759030000001653133152534585267_)"/><g clip-path="url(#SVGID_00000134237905102172759030000001653133152534585267_)"><defs><path d="M0 32 32 32 32 0 0 0 0 32Z" id="SVGID_00000044883331312757872680000011911910614825791901_" class="MsftOfcResponsive_Fill_7823dc" fill="#7823DC"/></defs><clipPath id="SVGID_00000159462306184207746410000010307107714836506791_"><use width="100%" height="100%" xlink:href="#SVGID_00000044883331312757872680000011911910614825791901_" overflow="visible"></use></clipPath><path d="M17.4 9.4C13 8.1 8.4 7.7 3.6 8.2L3.4 6.2C8.4 5.7 13.4 6.1 18 7.5L17.4 9.4Z" class="MsftOfcResponsive_Fill_7823dc" fill="#7823DC" clip-path="url(#SVGID_00000159462306184207746410000010307107714836506791_)"/></g></g></g></g></g></g></g></g></svg>