<svg width="36.5" height="36.5" viewBox="0 0 36.5 36.5" xmlns="http://www.w3.org/2000/svg" xmlns:xlink="http://www.w3.org/1999/xlink" overflow="hidden"><defs></defs><g><g><defs><path d="M0 36.5 36.5 36.5 36.5 0 0 0 0 36.5Z" id="SVGID_1_" fill="#7823DC"/></defs><clipPath id="SVGID_2_"><use width="100%" height="100%" xlink:href="#SVGID_1_"></use></clipPath><g clip-path="url(#SVGID_2_)"><defs><path d="M0 36.5 36.5 36.5 36.5 0 0 0 0 36.5Z" id="SVGID_3_" fill="#7823DC"/></defs><clipPath id="SVGID_4_"><use width="100%" height="100%" xlink:href="#SVGID_3_"></use></clipPath><path d="M18.2 19.5C14.4 19.5 11.4 16.4 11.4 12.6 11.4 8.8 14.5 5.7 18.2 5.7 21.9 5.7 25 8.8 25 12.6 25 16.4 22 19.5 18.2 19.5ZM18.2 8.1C15.7 8.1 13.6 10.2 13.6 12.7 13.6 15.2 15.6 17.3 18.2 17.3 20.8 17.3 22.8 15.2 22.8 12.7 22.8 10.1 20.8 8.1 18.2 8.1Z" fill="#7823DC" clip-path="url(#SVGID_4_)"/><path d="M18.2 36.5C16.5 36.5 8 36.3 8 33 8 29.7 16.6 29.6 18.3 29.6 20 29.6 28.6 29.8 28.6 33 28.5 36.3 20 36.5 18.2 36.5ZM10.6 33C11.6 33.5 14.2 34.1 18.3 34.1 22.4 34.1 25 33.4 26 33 25 32.5 22.4 31.9 18.3 31.9 14.2 31.9 11.6 32.5 10.6 33Z" fill="#7823DC" clip-path="url(#SVGID_4_)"/><path d="M9.8 18.5C6.6 13.8 7.7 7.4 12.4 4.2 14.1 3 16.2 2.4 18.3 2.4L18.3 2.4 18.3 0.1C11.4 0.1 5.8 5.8 5.8 12.7 5.8 15.3 6.6 17.8 8.1 19.9L14.4 28.1 17.2 28.1 9.8 18.5 9.8 18.5 9.8 18.5Z" fill="#7823DC" clip-path="url(#SVGID_4_)"/><path d="M28.5 19.8C32.5 14.1 31.1 6.3 25.4 2.3 23.3 0.8 20.8 0.1 18.3 0.1L18.3 2.4 18.3 2.4C24 2.4 28.6 7 28.6 12.7 28.6 14.8 28 16.8 26.8 18.6L19.5 28.2 22.4 28.2 28.6 20.1 28.6 19.8 28.5 19.8Z" fill="#7823DC" clip-path="url(#SVGID_4_)"/></g></g></g></svg>