<svg viewBox="0 0 32 32" xmlns="http://www.w3.org/2000/svg" xmlns:xlink="http://www.w3.org/1999/xlink" id="Graphic" xml:space="preserve" overflow="hidden"><g><g><defs><path d="M-0.9 32.2 32.1 32.2 32.1-0.9-0.9-0.9-0.9 32.2Z" id="SVGID_1_" fill="#7823DC"/></defs><defs><path d="M-0.9-0.9 32.1-0.9 32.1 32.2-0.9 32.2-0.9-0.9Z" id="SVGID_00000018203386899190155730000008664571025048851364_" fill="#7823DC"/></defs><clipPath id="SVGID_00000135656220888668904070000013866943422257153981_"><use width="100%" height="100%" xlink:href="#SVGID_1_" overflow="visible"></use></clipPath><clipPath id="SVGID_00000137842211373774799040000013148591406871814043_" clip-path="url(#SVGID_00000135656220888668904070000013866943422257153981_)"><use width="100%" height="100%" xlink:href="#SVGID_00000018203386899190155730000008664571025048851364_" overflow="visible"></use></clipPath><g clip-path="url(#SVGID_00000137842211373774799040000013148591406871814043_)"><defs><path d="M-0.9 32.2 32.1 32.2 32.1-0.9-0.9-0.9-0.9 32.2Z" id="SVGID_00000071519028154570454460000010725888982928299178_" fill="#7823DC"/></defs><clipPath id="SVGID_00000180364356151359813150000005378809677749388169_"><use width="100%" height="100%" xlink:href="#SVGID_00000071519028154570454460000010725888982928299178_" overflow="visible"></use></clipPath><path d="M30.8 23C30.7 20.1 30 14.2 26 10.7 26 10.7 26 10.6 26 10.6 26 9.7 25.9 8.4 26.6 7.7 27.1 7.2 27.9 7 29 7L29 7C30.7 6.8 32 5.4 32 3.6 32 1.7 30.5 0.2 28.6 0.2 27.2 0.2 26 1 25.5 2.2 9.3 2.1 2.3 8.2 2 22.4 0.8 23 0 24.2 0 25.6L0 28.3C0 30.3 1.6 32 3.7 32L28.3 32C30.3 32 32 30.4 32 28.3L32 25.6C32 24.6 31.5 23.7 30.8 23L30.8 23ZM28.6 2.1C29.4 2.1 30 2.7 30 3.5 30 4.3 29.4 4.9 28.6 4.9 27.8 4.9 27.2 4.3 27.2 3.5 27.2 2.7 27.8 2.1 28.6 2.1L28.6 2.1ZM25.2 4.1C25.3 4.7 25.6 5.2 25.9 5.7 25.6 5.9 25.4 6.1 25.1 6.3 24.2 7.2 24 8.4 23.9 9.4 22.3 8.5 20.2 8 17.7 8L17.7 10C26.5 10 28.3 17.5 28.7 22.1 28.6 22.1 28.4 22.1 28.2 22.1L4.1 22.1C4.4 9.4 10.6 4.2 25.2 4.1L25.2 4.1ZM30 28.3C30 29.2 29.3 30 28.3 30L3.7 30C2.8 30 2 29.3 2 28.3L2 25.6C2 24.7 2.8 24 3.7 24L28.3 24C29.2 24 30 24.7 30 25.7L30 28.3 30 28.3 30 28.3Z" fill="#7823DC" clip-path="url(#SVGID_00000180364356151359813150000005378809677749388169_)"/></g></g></g></svg>