<svg viewBox="0 0 32 32" xmlns="http://www.w3.org/2000/svg" xmlns:xlink="http://www.w3.org/1999/xlink" id="Layer_1" overflow="hidden"><g><rect x="1" y="4.1" width="16.1" height="2" fill="#7823DC"/><rect x="5.5" y="7.3" width="2" height="9.4" fill="#7823DC" transform="matrix(0.848 -0.53 0.53 0.848 -5.372 5.269)"/></g><path d="M8.8 32.1C5.7 32.1 2.7 31.7 2.1 30.2 0 25.2 0 2 0 1L0 0 21.2 0 21.3 0.9C21.3 1.4 22.2 12 21.3 15.6 21.1 16.4 20.7 17.5 20.3 18.8 19.2 22 17.2 27.9 18.1 29.5 18.2 29.6 18.3 29.7 18.4 29.7 20.4 30.2 25.7 22.1 29.7 13.9L22.8 11.8 23.4 9.9 32.5 12.6 32 13.6C29.9 18.1 22.6 32.7 17.9 31.5 17.2 31.3 16.7 30.9 16.4 30.3 15.2 28.1 16.6 23.4 18.4 18 18.8 16.7 19.2 15.6 19.4 15 20.1 12.3 19.6 4.5 19.4 1.9L2 1.9C2 9.2 2.4 25.7 3.9 29.3 4.5 29.9 9.1 30.1 13.7 29.7L13.9 31.7C12.5 31.9 10.6 32.1 8.8 32.1Z" fill="#7823DC"/></svg>