<svg viewBox="0 0 32 32" xmlns="http://www.w3.org/2000/svg" xmlns:xlink="http://www.w3.org/1999/xlink" id="Layer_1" xml:space="preserve" overflow="hidden"><g><path d="M8.6 29.8C6.3 29.8 4.3 28.1 4.3 25.9 4.3 23.7 6.2 22 8.6 22 11 22 12.9 23.7 12.9 25.9 12.9 28.1 11 29.8 8.6 29.8L8.6 29.8ZM8.6 23.9C7.4 23.9 6.4 24.8 6.4 25.9 6.4 27 7.3 27.9 8.6 27.9 9.8 27.9 10.8 27 10.8 25.9 10.8 24.7 9.7 23.9 8.6 23.9L8.6 23.9Z" fill="#7823DC" fill-rule="evenodd" clip-rule="evenodd"/><path d="M11.8 24.9 31 24.9 31 26.8 11.8 26.8 11.8 24.9Z" fill="#7823DC" fill-rule="evenodd" clip-rule="evenodd"/><path d="M21.4 24.9 23.5 24.9 23.5 29.8 21.4 29.8 21.4 24.9Z" fill="#7823DC" fill-rule="evenodd" clip-rule="evenodd"/><path d="M25.6 24.9 27.8 24.9 27.8 29.8 25.6 29.8 25.6 24.9Z" fill="#7823DC" fill-rule="evenodd" clip-rule="evenodd"/><path d="M32 29.8 29.9 27.8 29.9 24.9 32 24.9 32 29.8 32 29.8 32 29.8Z" fill="#7823DC" fill-rule="evenodd" clip-rule="evenodd"/><path d="M6.5 20C4.2 20 2.2 18.3 2.2 16.1 2.2 13.9 4.1 12.2 6.5 12.2 8.9 12.2 10.8 14 10.8 16.1 10.8 18.2 8.8 20 6.5 20L6.5 20ZM6.5 14.1C5.3 14.1 4.3 15 4.3 16.1 4.3 17.2 5.2 18.1 6.5 18.1 7.8 18.1 8.7 17.2 8.7 16.1 8.6 15 7.6 14.1 6.5 14.1L6.5 14.1Z" fill="#7823DC" fill-rule="evenodd" clip-rule="evenodd"/><path d="M9.6 15 28.8 15 28.8 17 9.6 17 9.6 15Z" fill="#7823DC" fill-rule="evenodd" clip-rule="evenodd"/><path d="M27.8 15 29.9 15 29.9 20 27.8 20 27.8 15Z" fill="#7823DC" fill-rule="evenodd" clip-rule="evenodd"/><path d="M19.3 15 21.4 15 21.4 20 19.3 20 19.3 15Z" fill="#7823DC" fill-rule="evenodd" clip-rule="evenodd"/><path d="M25.6 20 23.5 18 23.5 15 25.6 15 25.6 20 25.6 20 25.6 20Z" fill="#7823DC" fill-rule="evenodd" clip-rule="evenodd"/><path d="M4.3 10.1C2 10.1 0 8.3 0 6.2 0 4 1.9 2.2 4.3 2.2 6.7 2.2 8.6 4 8.6 6.2 8.6 8.4 6.7 10.1 4.3 10.1L4.3 10.1ZM4.3 4.3C3.1 4.3 2.1 5.2 2.1 6.3 2.1 7.4 3 8.3 4.3 8.3 5.6 8.3 6.5 7.4 6.5 6.3 6.5 5.2 5.5 4.3 4.3 4.3L4.3 4.3Z" fill="#7823DC" fill-rule="evenodd" clip-rule="evenodd"/><path d="M7.5 5.2 26.7 5.2 26.7 7.3 7.5 7.3 7.5 5.2Z" fill="#7823DC" fill-rule="evenodd" clip-rule="evenodd"/><path d="M25.6 5.2 27.8 5.2 27.8 10.1 25.6 10.1 25.6 5.2Z" fill="#7823DC" fill-rule="evenodd" clip-rule="evenodd"/><path d="M21.4 5.2 23.5 5.2 23.5 10.1 21.4 10.1 21.4 5.2Z" fill="#7823DC" fill-rule="evenodd" clip-rule="evenodd"/><path d="M19.3 10.1 17.1 8.1 17.1 5.2 19.3 5.2 19.3 10.1 19.3 10.1 19.3 10.1Z" fill="#7823DC" fill-rule="evenodd" clip-rule="evenodd"/></g></svg>