<svg width="36.5" height="36.6" viewBox="0 0 36.5 36.6" xmlns="http://www.w3.org/2000/svg" xmlns:xlink="http://www.w3.org/1999/xlink" overflow="hidden"><defs></defs><g><g><defs><path d="M0 36.5 36.5 36.5 36.5 0 0 0 0 36.5Z" id="SVGID_1_" fill="#7823DC"/></defs><clipPath id="SVGID_2_"><use width="100%" height="100%" xlink:href="#SVGID_1_"></use></clipPath><path d="M11.4 6.9 11.4 9C11.4 10.3 10.3 11.4 9 11.4L6.9 11.4C5.6 11.4 4.5 10.3 4.5 9L4.5 6.9 11.4 6.9M13.7 4.6 2.3 4.6 2.3 9C2.3 11.6 4.4 13.7 7 13.7L9 13.7C11.6 13.7 13.7 11.6 13.7 9L13.7 4.6Z" fill="#7823DC" clip-path="url(#SVGID_2_)"/><path d="M16 4.6 0 4.6 0 6.9 16 6.9 16 4.6 16 4.6 16 4.6Z" fill="#7823DC" clip-path="url(#SVGID_2_)"/><path d="M5.7 0 3.4 0 3.4 5.7 5.7 5.7 5.7 0 5.7 0 5.7 0Z" fill="#7823DC" clip-path="url(#SVGID_2_)"/><path d="M12.5 0 10.3 0 10.3 5.7 12.5 5.7 12.5 0 12.5 0 12.5 0Z" fill="#7823DC" clip-path="url(#SVGID_2_)"/><path d="M24.3 3.2C26.5 5.4 28.5 7.7 30.3 10.2L30.4 10.3C31.5 11.8 32.5 13.5 33.3 15.2 33.4 15.4 33.4 15.5 33.5 15.7 33.6 15.9 33.6 16.2 33.7 16.4 34 17.7 34.2 19 34.2 20.3 34.2 20.8 34.2 21.2 34.1 21.7 33.6 27.5 29.8 32.4 24.4 34.3 19.6 32.6 16 28.6 14.9 23.6L14.9 22.8C14.8 22.4 14.8 22.1 14.7 21.7 14.7 21.6 14.7 21.6 14.7 21.5L14.7 20.4C14.7 19.1 14.8 17.8 15.2 16.5 15.3 16.2 15.3 16 15.4 15.8 15.5 15.6 15.5 15.4 15.6 15.2 16.4 13.5 17.3 11.9 18.4 10.4L18.3 10.2 18.4 10.1C20.2 7.7 22.2 5.4 24.3 3.2M24.3 0 24.3 0 23.8 0.5C21.1 3.1 18.7 5.8 16.5 8.8L16.4 9C15.2 10.6 14.2 12.3 13.4 14.2 13.3 14.4 13.2 14.7 13.1 15 13 15.3 12.9 15.6 12.8 15.9 12.4 17.4 12.2 18.9 12.3 20.5 12.3 20.8 12.3 21.2 12.4 21.5 12.4 21.7 12.4 21.9 12.4 22L12.4 22C12.4 22.5 12.5 23 12.6 23.4 12.6 23.6 12.6 23.9 12.7 24.1 14 30.1 18.5 34.9 24.4 36.6L24.4 36.6C31.1 34.7 35.8 28.8 36.5 21.9 36.5 21.4 36.6 20.9 36.6 20.4 36.6 18.9 36.4 17.3 36 15.8 35.9 15.5 35.8 15.2 35.7 14.9 35.6 14.6 35.5 14.4 35.4 14.1 34.5 12.3 33.5 10.5 32.3 8.9 32.3 8.9 32.2 8.8 32.2 8.8 30 5.8 27.6 3.1 24.9 0.5L24.3 0 24.3 0 24.3 0Z" fill="#7823DC" clip-path="url(#SVGID_2_)"/><path d="M25.5 2.3 23.2 2.3 23.2 35 25.5 35 25.5 2.3 25.5 2.3 25.5 2.3Z" fill="#7823DC" clip-path="url(#SVGID_2_)"/><path d="M24.3 31.2 12.7 21.8 14.2 20 24.3 28.2 34.5 20.1 36 21.9 24.3 31.2 24.3 31.2Z" fill="#7823DC" clip-path="url(#SVGID_2_)"/><path d="M24.3 24.7 13.4 15.8 14.8 14 24.3 21.8 33.7 14.3 35.1 16.1 24.3 24.7 24.3 24.7Z" fill="#7823DC" clip-path="url(#SVGID_2_)"/><path d="M24.3 18.2 16 11.5 17.5 9.7 24.3 15.3 31.5 9.6 32.9 11.4 24.3 18.2 24.3 18.2Z" fill="#7823DC" clip-path="url(#SVGID_2_)"/><path d="M24.3 12.1 18.6 7.5 20.1 5.7 24.3 9.1 28.8 5.6 30.2 7.4 24.3 12.1 24.3 12.1Z" fill="#7823DC" clip-path="url(#SVGID_2_)"/><path d="M24.7 36.6 18.6 36.6C12.1 36.6 6.9 31 6.9 24.2L6.9 11.6 9.2 11.6 9.2 24.2C9.2 29.8 13.4 34.3 18.6 34.3L24.7 34.3 24.7 36.6Z" fill="#7823DC" clip-path="url(#SVGID_2_)"/></g></g></svg>