<svg viewBox="0 0 32 32" xmlns="http://www.w3.org/2000/svg" xmlns:xlink="http://www.w3.org/1999/xlink" id="Layer_1" overflow="hidden"><g><path d="M27.7 10C28.3 9.5 28.9 9.1 29.5 8.6 32.7 12.8 32.9 18.9 29.5 23.4 28.9 22.9 28.3 22.5 27.7 22 30.4 18.1 30.4 14.1 27.7 10Z" fill="#7823DC"/><path d="M24 12.8C24.6 12.4 25.2 11.9 25.8 11.5 27.8 13.8 28 18 25.8 20.7 25.2 20.2 24.6 19.8 24 19.3 25.4 17.1 25.4 15 24 12.8Z" fill="#7823DC"/><g><path d="M11.7 22.1 0 22.1 0 10.4 11.7 10.4 11.7 22.1ZM2.1 20 9.7 20 9.7 12.4 2.1 12.4 2.1 20Z" fill="#7823DC"/></g><g><g><path d="" stroke="#7823DC" stroke-width="2" stroke-miterlimit="10" fill="#7823DC"/></g><g><path d="M21.9 32 9.1 20.8 10.5 19.2 19.9 27.5 19.9 4.6 10.5 12.9 9.1 11.3 21.9 0.1Z" fill="#7823DC"/></g></g></g></svg>