<svg viewBox="0 0 32 32" xmlns="http://www.w3.org/2000/svg" xmlns:xlink="http://www.w3.org/1999/xlink" id="Layer_1" xml:space="preserve" overflow="hidden"><g><defs><path d="M5.7 32 26.3 32 26.3-1 5.7-1 5.7 32Z" id="SVGID_1_" fill="#7823DC"/></defs><defs><path d="M5.7-1 26.3-1 26.3 32 5.7 32 5.7-1Z" id="SVGID_00000008111490679286445960000002435668467486643131_" fill="#7823DC"/></defs><clipPath id="SVGID_00000155122256693084963470000004715120204076734094_"><use width="100%" height="100%" xlink:href="#SVGID_1_" overflow="visible"></use></clipPath><clipPath id="SVGID_00000067214508305829694600000005640887384293530806_" clip-path="url(#SVGID_00000155122256693084963470000004715120204076734094_)"><use width="100%" height="100%" xlink:href="#SVGID_00000008111490679286445960000002435668467486643131_" overflow="visible"></use></clipPath><g clip-path="url(#SVGID_00000067214508305829694600000005640887384293530806_)"><defs><path d="M5.7 32 26.3 32 26.3-1 5.7-1 5.7 32Z" id="SVGID_00000001647835774691433290000003557633112624343954_" fill="#7823DC"/></defs><clipPath id="SVGID_00000011721595015329025070000014243296864098570658_"><use width="100%" height="100%" xlink:href="#SVGID_00000001647835774691433290000003557633112624343954_" overflow="visible"></use></clipPath><path d="M17.5 31.8 15.5 31.8 15.5 0 17.5 0 17.5 31.8 17.5 31.8 17.5 31.8Z" fill="#7823DC" clip-path="url(#SVGID_00000011721595015329025070000014243296864098570658_)"/><path d="M6.7 10 6.7 8 26.3 8 26.3 10 6.7 10 6.7 10 6.7 10Z" fill="#7823DC" clip-path="url(#SVGID_00000011721595015329025070000014243296864098570658_)"/></g></g></svg>