<svg viewBox="0 0 32 32" xmlns="http://www.w3.org/2000/svg" xmlns:xlink="http://www.w3.org/1999/xlink" id="Layer_1" overflow="hidden"><path d="M0 0 0 6 6 6 6 0 0 0ZM4 4 2 4 2 2 4 2 4 4Z" fill="#7823DC"/><path d="M26 0 26 6 32 6 32 0 26 0ZM30 4 28 4 28 2 30 2 30 4Z" fill="#7823DC"/><path d="M0 26 0 32 6 32 6 26 0 26ZM4 30 2 30 2 28 4 28 4 30Z" fill="#7823DC"/><path d="M26 26 26 32 32 32 32 26 26 26ZM30 30 28 30 28 28 30 28 30 30Z" fill="#7823DC"/><rect x="2" y="7" width="2" height="2" fill="#7823DC"/><rect x="2" y="11" width="2" height="2" fill="#7823DC"/><rect x="2" y="15" width="2" height="2" fill="#7823DC"/><rect x="2" y="19" width="2" height="2" fill="#7823DC"/><rect x="2" y="23" width="2" height="2" fill="#7823DC"/><g><rect x="28" y="7" width="2" height="2" fill="#7823DC"/><rect x="28" y="11" width="2" height="2" fill="#7823DC"/><rect x="28" y="15" width="2" height="2" fill="#7823DC"/><rect x="28" y="19" width="2" height="2" fill="#7823DC"/><rect x="28" y="23" width="2" height="2" fill="#7823DC"/></g><g><rect x="23" y="28" width="2" height="2" fill="#7823DC" transform="matrix(-1.83697e-16 1 -1 -1.83697e-16 53 5)"/><rect x="19" y="28" width="2" height="2" fill="#7823DC" transform="matrix(-1.83697e-16 1 -1 -1.83697e-16 49 9)"/><rect x="15" y="28" width="2" height="2" fill="#7823DC" transform="matrix(-1.83697e-16 1 -1 -1.83697e-16 45 13)"/><rect x="11" y="28" width="2" height="2" fill="#7823DC" transform="matrix(-1.83697e-16 1 -1 -1.83697e-16 41 17)"/><rect x="7" y="28" width="2" height="2" fill="#7823DC" transform="matrix(-1.83697e-16 1 -1 -1.83697e-16 37 21)"/></g><g><rect x="23" y="2" width="2" height="2" fill="#7823DC" transform="matrix(-1.83697e-16 1 -1 -1.83697e-16 27 -21)"/><rect x="19" y="2" width="2" height="2" fill="#7823DC" transform="matrix(-1.83697e-16 1 -1 -1.83697e-16 23 -17)"/><rect x="15" y="2" width="2" height="2" fill="#7823DC" transform="matrix(-1.83697e-16 1 -1 -1.83697e-16 19 -13)"/><rect x="11" y="2" width="2" height="2" fill="#7823DC" transform="matrix(-1.83697e-16 1 -1 -1.83697e-16 15 -9)"/><rect x="7" y="2" width="2" height="2" fill="#7823DC" transform="matrix(-1.83697e-16 1 -1 -1.83697e-16 11 -5)"/></g></svg>