<svg viewBox="0 0 32 32" xmlns="http://www.w3.org/2000/svg" xmlns:xlink="http://www.w3.org/1999/xlink" xml:space="preserve" overflow="hidden"><style>
.MsftOfcResponsive_Fill_7823dc {
 fill:#7823DC; 
}
</style>
<g id="Layer_3"></g><g id="Layer_1"></g><g id="Layer_2"></g><g id="Layer_4"></g><g id="Layer_5"><path d="M12.47 28.37C12.47 26.37 14.09 24.74 16.1 24.74 18.11 24.74 19.73 26.36 19.73 28.37 19.73 30.38 18.09 32 16.09 32 14.09 32 12.47 30.38 12.47 28.37L12.47 28.37Z" class="MsftOfcResponsive_Fill_7823dc" fill="#7823DC" fill-rule="evenodd" clip-rule="evenodd"/><path d="M15.2 15.9 15.2 2.8 17.11 2.8 17.11 15.9 15.2 15.9 15.2 15.9Z" class="MsftOfcResponsive_Fill_7823dc" fill="#7823DC" fill-rule="evenodd" clip-rule="evenodd"/><path d="M20.04 6.58 20.04 3.89 16.17 0 12.4 3.89 12.4 6.68 16.17 2.79 20.04 6.58 20.04 6.58 20.04 6.58Z" class="MsftOfcResponsive_Fill_7823dc" fill="#7823DC" fill-rule="evenodd" clip-rule="evenodd"/><path d="M31.99 13.05 32 7.56 26.59 7.62 24.61 9.59 28.67 9.54 20.06 18.12 21.41 19.47 30.04 10.88 30.09 14.94Z" class="MsftOfcResponsive_Fill_7823dc" fill="#7823DC" fill-rule="evenodd" clip-rule="evenodd"/><path d="M11.91 18.13 2.67 8.81 1.32 10.15 10.55 19.47 11.91 18.13 11.91 18.13Z" class="MsftOfcResponsive_Fill_7823dc" fill="#7823DC" fill-rule="evenodd" clip-rule="evenodd"/><path d="M1.95 14.93 0.04 13.05 0 7.57 5.41 7.6 7.39 9.56 1.98 9.52 1.95 14.93 1.95 14.93 1.95 14.93Z" class="MsftOfcResponsive_Fill_7823dc" fill="#7823DC" fill-rule="evenodd" clip-rule="evenodd"/></g></svg>