<svg viewBox="0 0 32 32" xmlns="http://www.w3.org/2000/svg" xmlns:xlink="http://www.w3.org/1999/xlink" id="Layer_1" overflow="hidden"><g><path d="M16 2C23 2 26.8 4.4 26.8 5.3 26.8 6.3 23 8.6 16 8.6 9 8.6 5.2 6.3 5.2 5.3 5.2 4.3 9 2 16 2M16 0C8.9 0 3.2 2.4 3.2 5.3 3.2 8.2 8.9 10.6 16 10.6 23.1 10.6 28.8 8.2 28.8 5.3 28.8 2.4 23.1 0 16 0L16 0Z" fill="#7823DC" fill-rule="evenodd" clip-rule="evenodd"/><path d="M16 23.3C23 23.3 26.8 25.7 26.8 26.6 26.8 27.6 23 30 16 30 9 30 5.2 27.6 5.2 26.7 5.2 25.7 9 23.3 16 23.3M16 21.3C8.9 21.3 3.2 23.7 3.2 26.6 3.2 29.6 8.9 32 16 32 23.1 32 28.8 29.6 28.8 26.7 28.8 23.7 23.1 21.3 16 21.3L16 21.3Z" fill="#7823DC" fill-rule="evenodd" clip-rule="evenodd"/><path d="M16 2C18.4 2 19.9 2.8 20.3 3.2 19.9 3.6 18.4 4.4 16 4.4 13.6 4.4 12.1 3.6 11.7 3.2 12.1 2.8 13.6 2 16 2M16 0C12.5 0 9.6 1.4 9.6 3.2 9.6 5 12.5 6.4 16 6.4 19.5 6.4 22.4 5 22.4 3.2 22.4 1.4 19.5 0 16 0L16 0Z" fill="#7823DC" fill-rule="evenodd" clip-rule="evenodd"/><path d="M16 27.6C18.4 27.6 19.9 28.4 20.3 28.8 19.9 29.2 18.4 30 16 30 13.6 30 12.1 29.2 11.7 28.8 12.1 28.4 13.6 27.6 16 27.6M16 25.6C12.5 25.6 9.6 27 9.6 28.8 9.6 30.6 12.5 32 16 32 19.5 32 22.4 30.6 22.4 28.8 22.4 27 19.5 25.6 16 25.6L16 25.6Z" fill="#7823DC" fill-rule="evenodd" clip-rule="evenodd"/><path d="M26.7 28.8 28.8 26.9 28.8 5.4 26.7 3.9 26.7 28.8 26.7 28.8Z" fill="#7823DC" fill-rule="evenodd" clip-rule="evenodd"/><path d="M20.3 30.9 22.4 28.7 22.4 3.2 20.3 1.4 20.3 30.9 20.3 30.9Z" fill="#7823DC" fill-rule="evenodd" clip-rule="evenodd"/><path d="M11.7 31 9.6 28.7 9.6 3.2 11.7 1.4 11.7 31 11.7 31Z" fill="#7823DC" fill-rule="evenodd" clip-rule="evenodd"/><path d="M3.2 26.9 5.3 28.8 5.3 3.5 3.2 5.3 3.2 26.9 3.2 26.9Z" fill="#7823DC" fill-rule="evenodd" clip-rule="evenodd"/></g></svg>