<svg viewBox="0 0 32 32" xmlns="http://www.w3.org/2000/svg" xmlns:xlink="http://www.w3.org/1999/xlink" id="Layer_1" overflow="hidden"><g><g><defs><path d="M3 32 29 32 29 0 3 0 3 32Z" id="SVGID_1_" fill="#7823DC"/></defs><defs><path d="M3 0 29 0 29 32 3 32 3 0Z" id="SVGID_00000042702942014632664350000005717568399086220932_" fill="#7823DC"/></defs><clipPath id="SVGID_00000111182577853367359780000017428079781771456142_"><use width="100%" height="100%" xlink:href="#SVGID_1_" overflow="visible"></use></clipPath><clipPath id="SVGID_00000041979465550988754860000006533764154060520093_" clip-path="url(#SVGID_00000111182577853367359780000017428079781771456142_)"><use width="100%" height="100%" xlink:href="#SVGID_00000042702942014632664350000005717568399086220932_" overflow="visible"></use></clipPath><g clip-path="url(#SVGID_00000041979465550988754860000006533764154060520093_)"><defs><path d="M3 32 29 32 29 0 3 0 3 32Z" id="SVGID_00000051357352730432406650000010057486722070429585_" fill="#7823DC"/></defs><clipPath id="SVGID_00000116945252817079881090000008844336483462880133_"><use width="100%" height="100%" xlink:href="#SVGID_00000051357352730432406650000010057486722070429585_" overflow="visible"></use></clipPath><path d="M21.1 7.7C21.1 6.1 20.3 4.8 19.2 4.2L19.2 3.9C19.2 2.3 17.9 1 16.3 1 14.7 1 13.4 2.3 13.4 3.9L13.4 4.3C12.3 4.9 11.5 6.2 11.5 7.8L11.6 7.8C7.1 9.6 4 14.1 4 19.3 4 26.2 9.6 31.8 16.4 31.8 23.2 31.8 28.8 26.2 28.8 19.3 28.8 14.1 25.6 9.6 21.1 7.7L21.1 7.7ZM16.3 2.9C16.8 2.9 17.3 3.3 17.3 3.9L17.3 3.9 15.4 3.9 15.4 3.9C15.4 3.3 15.8 2.9 16.3 2.9L16.3 2.9ZM14.8 5.8 17.9 5.8C18.5 5.8 19 6.3 19.1 7.1 18.2 6.9 17.3 6.8 16.4 6.8 15.5 6.8 14.5 6.9 13.6 7.1 13.7 6.4 14.2 5.8 14.8 5.8L14.8 5.8ZM16.4 8.7C21.7 8.7 26.1 12.7 26.8 17.9L25 19.1 22.1 17.2 19.2 19.1 16.3 17.2 13.4 19.1 10.5 17.2 7.6 19.1 6 17.9C6.7 12.7 11.1 8.7 16.4 8.7L16.4 8.7ZM16.4 29.9C10.9 29.9 6.4 25.6 5.9 20.2L7.8 21.5 10.7 19.6 13.6 21.5 16.5 19.6 19.4 21.5 22.3 19.6 25.2 21.5 27.1 20.2C26.4 25.6 21.9 29.9 16.4 29.9L16.4 29.9Z" fill="#7823DC" clip-path="url(#SVGID_00000116945252817079881090000008844336483462880133_)"/><path d="M9.3 23.9 10.6 22.5 12 23.9 10.6 25.2 9.3 23.9Z" fill="#7823DC" clip-path="url(#SVGID_00000116945252817079881090000008844336483462880133_)"/><path d="M15 23.9 16.4 22.5 17.7 23.9 16.4 25.2 15 23.9Z" fill="#7823DC" clip-path="url(#SVGID_00000116945252817079881090000008844336483462880133_)"/><path d="M20.7 23.9 22.1 22.5 23.4 23.9 22.1 25.2 20.7 23.9Z" fill="#7823DC" clip-path="url(#SVGID_00000116945252817079881090000008844336483462880133_)"/><path d="M9.3 14.8 10.6 13.4 12 14.8 10.6 16.1 9.3 14.8Z" fill="#7823DC" clip-path="url(#SVGID_00000116945252817079881090000008844336483462880133_)"/><path d="M15 14.8 16.3 13.4 17.7 14.8 16.3 16.1 15 14.8Z" fill="#7823DC" clip-path="url(#SVGID_00000116945252817079881090000008844336483462880133_)"/></g></g></g></svg>