<svg viewBox="0 0 32 32" xmlns="http://www.w3.org/2000/svg" xmlns:xlink="http://www.w3.org/1999/xlink" id="Layer_5" overflow="hidden"><defs></defs><path d="M16 0C7.18 0 0 7.18 0 16 0 16.61 0.05 17.22 0.12 17.81L2.06 17.34 2.06 17.34C2.02 16.9 1.99 16.45 1.99 16 2 8.28 8.28 2 16 2 23.72 2 30 8.28 30 16 30 23.72 23.72 30 16 30 14.53 30 13.11 29.76 11.78 29.33L10.83 31.11C12.46 31.67 14.19 32 16.01 32 24.83 32 32.01 24.82 32.01 16 32.01 7.18 24.82 0 16 0Z" stroke-width="0" fill="#7823DC"/><path d="M17.99 12 14 15.99 22 24 24.82 24 16.83 16 20.82 12 17.99 12Z" stroke-width="0" fill="#7823DC"/><path d="M6.2 23.9 6.2 20.81C7.39 21.22 7.52 22.2 7.52 22.56L8.52 22.56C8.52 22.56 9.52 22.6 9.52 22.6 9.52 22.44 9.52 21.02 8.43 19.89 7.86 19.3 7.11 18.93 6.2 18.75L6.2 17.91 4.2 17.91 4.2 18.7C2.18 19.05 0.94 20.75 0.93 22.34 0.93 23.84 1.94 25.35 4.2 25.73L4.2 29.15C3.13 28.84 2.56 28.06 2.53 26.82L0.53 26.87C0.58 28.72 1.59 30.71 4.2 31.2L4.2 32 6.2 32 6.2 31.26C7.58 31.08 8.7 30.43 9.34 29.39 10.01 28.32 10.04 27.02 9.44 25.93 8.83 24.83 7.67 24.12 6.2 23.91ZM4.2 23.69C3.39 23.47 2.93 23.01 2.93 22.35 2.93 21.7 3.41 21.02 4.2 20.75L4.2 23.69ZM7.64 28.33C7.36 28.79 6.85 29.08 6.2 29.22L6.2 25.94C6.9 26.09 7.43 26.42 7.69 26.89 7.94 27.34 7.92 27.88 7.64 28.33Z" stroke-width="0" fill="#7823DC"/></svg>