<svg viewBox="0 0 32 32" xmlns="http://www.w3.org/2000/svg" xmlns:xlink="http://www.w3.org/1999/xlink" id="Layer_5" overflow="hidden"><defs></defs><path d="M26-0.02 2-0.02 2 1.98 6.06 1.98C6.35 3.9 8 5.37 10 5.37L12 5.37 12 5.83 11.88 5.83C6.43 5.83 2 10.75 2 16.8L2 23.49C2 27.14 4.69 30.11 8 30.11L8 28.11C5.79 28.11 4 26.04 4 23.49L4 16.8C4 11.85 7.54 7.83 11.88 7.83L12.46 7.83C13.13 9.11 14.45 10 16 10 17.55 10 18.87 9.11 19.54 7.83L20.12 7.83C24.46 7.83 28 11.85 28 16.8L28 23.49C28 26.03 26.21 28.11 24 28.11L24 30.11C27.31 30.11 30 27.14 30 23.49L30 16.8C30 10.75 25.57 5.83 20.12 5.83L20 5.83 20 5.37 22 5.37C24 5.37 25.64 3.89 25.94 1.98L30 1.98 30-0.02 26-0.02ZM18 6C18 6.82 17.51 7.52 16.8 7.83L15.2 7.83C14.5 7.52 14 6.82 14 6L14 5.83 18 5.83 18 6ZM22 3.37 10 3.37C9.11 3.37 8.35 2.78 8.09 1.98L23.9 1.98C23.64 2.79 22.89 3.37 21.99 3.37Z" stroke-width="0" fill="#7823DC"/><path d="M22.61 25.48 21.99 25.25C21.99 25.25 21.82 25.19 21.66 25.14 22.7 23.87 22.65 21.95 22.64 21.7L22.61 21.04 21.99 20.81C21.91 20.78 21.61 20.68 21.21 20.59 21.3 20.51 21.39 20.45 21.47 20.36 22.86 18.92 22.36 16.45 22.29 16.18L22.15 15.54 21.5 15.42C21.3 15.38 19.93 15.16 18.67 15.59 18.79 15.18 18.86 14.73 18.86 14.26 18.86 12.26 16.78 10.84 16.54 10.68L15.99 10.32 15.44 10.68C15.2 10.84 13.12 12.26 13.12 14.26 13.12 14.73 13.19 15.18 13.31 15.59 12.05 15.16 10.68 15.39 10.48 15.42L9.83 15.54 9.69 16.18C9.63 16.46 9.12 18.93 10.51 20.36 10.59 20.45 10.69 20.51 10.78 20.59 10.38 20.68 10.08 20.78 10 20.81L9.38 21.04 9.35 21.7C9.34 21.95 9.29 23.87 10.33 25.14 10.17 25.19 10.04 25.23 10 25.25L9.38 25.48 9.35 26.14C9.34 26.42 9.27 28.94 10.89 30.12 11.64 30.67 12.51 30.98 13.34 31.01 13.38 31.01 13.41 31.01 13.44 31.01 14.03 31.01 14.55 30.84 14.99 30.56L14.99 33.24 16.99 33.24 16.99 30.56C17.43 30.85 17.96 31.01 18.54 31.01 19.37 31.01 20.27 30.71 21.09 30.12 22.71 28.95 22.64 26.43 22.63 26.14L22.6 25.48ZM14 24.38C13.91 24.5 13.68 24.57 13.41 24.56 12.99 24.55 12.5 24.36 12.07 24.05 11.67 23.76 11.47 23.07 11.4 22.49 11.98 22.38 12.69 22.36 13.09 22.65 13.52 22.96 13.84 23.36 13.99 23.76 14.08 24.02 14.09 24.25 13.99 24.37ZM18.01 24.38C17.92 24.26 17.92 24.03 18.01 23.77 18.15 23.37 18.48 22.97 18.91 22.66 19.14 22.49 19.49 22.43 19.85 22.43 20.1 22.43 20.37 22.46 20.61 22.51 20.53 23.09 20.34 23.78 19.93 24.07 19.08 24.69 18.21 24.67 18.01 24.39ZM18.8 17.76C19.14 17.41 19.82 17.31 20.4 17.31L20.44 17.31C20.46 17.9 20.39 18.61 20.05 18.96 19.32 19.72 18.46 19.85 18.21 19.61 17.96 19.37 18.07 18.51 18.8 17.75ZM16.01 12.78C16.44 13.19 16.88 13.75 16.88 14.24 16.88 15.29 16.36 15.99 16.01 15.99 15.66 15.99 15.14 15.29 15.14 14.24 15.14 13.75 15.58 13.18 16.01 12.78ZM13.22 17.76 13.22 17.76C13.59 18.14 13.84 18.6 13.91 19.01 13.96 19.28 13.91 19.51 13.81 19.62 13.56 19.86 12.7 19.72 11.97 18.97 11.63 18.62 11.55 17.91 11.58 17.32 12.17 17.32 12.87 17.41 13.22 17.77ZM14.01 28.82C13.92 28.94 13.71 29.01 13.42 29 13 28.99 12.51 28.8 12.08 28.49 11.68 28.2 11.48 27.51 11.41 26.93 11.99 26.82 12.7 26.8 13.1 27.09 13.53 27.4 13.85 27.81 14 28.2 14.09 28.46 14.1 28.69 14 28.81ZM19.94 28.5C19.09 29.12 18.22 29.1 18.02 28.82 17.93 28.7 17.93 28.47 18.02 28.21 18.16 27.81 18.49 27.41 18.92 27.1 19.32 26.81 20.03 26.84 20.61 26.94 20.53 27.52 20.34 28.21 19.94 28.5Z" stroke-width="0" fill="#7823DC"/></svg>