<svg viewBox="0 0 31.98 31.98" xmlns="http://www.w3.org/2000/svg" xmlns:xlink="http://www.w3.org/1999/xlink" id="Layer_1" overflow="hidden"><style>
.MsftOfcResponsive_Fill_7823dc {
 fill:#7823DC; 
}
</style>
<defs></defs><path d="M25.99 0 25.99 6 19.99 6 19.99 0 13.99 0 13.99 9.99 6.99 9.99C3.13 9.99-0.01 13.13-0.01 16.99-0.01 20.85 3.13 23.99 6.99 23.99L13.99 23.99 13.99 31.99 31.98 31.99 31.98 0 25.98 0ZM7 11.99 7.92 11.99C7.49 15.02 5.11 17.42 2.09 17.89 2.04 17.6 2.01 17.3 2.01 16.99 2.01 14.24 4.25 11.99 7.01 11.99ZM16 27.98 29.99 27.98 29.99 29.98 16 29.98 16 27.98ZM16 25.98 16 23.98 20 23.98 20 18.3 18 18.3 18 21.98 7 21.98C5.28 21.98 3.77 21.11 2.87 19.79 6.62 19 9.52 15.86 9.95 11.99L16 11.99 16 2 18 2 18 8 27.99 8 27.99 2 29.99 2 29.99 25.99 16 25.99Z" class="MsftOfcResponsive_Fill_7823dc" fill="#7823DC"/><rect x="17.98" y="10.99" width="4" height="4" class="MsftOfcResponsive_Fill_7823dc" fill="#7823DC"/><rect x="23.98" y="10.99" width="4" height="4" class="MsftOfcResponsive_Fill_7823dc" fill="#7823DC"/></svg>