<svg viewBox="0 0 32.01 32" xmlns="http://www.w3.org/2000/svg" xmlns:xlink="http://www.w3.org/1999/xlink" id="Layer_1" overflow="hidden"><style>
.MsftOfcThm_Text2_lumMod_100_Fill_v2 {
 fill:#7823DC; 
}
</style>
<defs></defs><path d="M28.99 21.32C27.62 20.28 25.68 19.42 23.35 18.83 21.99 18.48 20.51 18.24 19 18.09L19 9.99 29.93 9.99 32.01 6.99 29.93 3.99 19 3.99 19 1.99 20.5 1.99 20.5 0 11.5 0 11.5 2 13 2 13 10 2.09 10 0.02 13 2.09 16 13 16 13 18.08C11.41 18.22 9.87 18.47 8.44 18.84 6.01 19.45 4 20.36 2.63 21.45 2.37 21.65 2.14 21.86 1.9 22.09 1.89 22.1 1.88 22.11 1.87 22.12 1.86 22.13 1.84 22.15 1.83 22.16L1.83 22.16C1.25 22.7 0.77 23.36 0.45 24.13 0.16 24.81 0.01 25.55 0.01 26.33 0.01 29.46 2.56 32.01 5.69 32.01 6.91 32.01 8.11 31.61 9.05 30.9L9.15 30.83C9.37 30.66 9.56 30.5 9.73 30.32 10.28 29.77 10.71 29.09 11 28.34L11 28.34C11 28.34 11.04 28.27 11.06 28.24 11.55 27.36 12.29 26.63 13.17 26.12 14.06 25.63 15.04 25.37 16 25.37 18.12 25.37 20.04 26.53 21.02 28.4L21.02 28.42C21.11 28.65 21.22 28.87 21.33 29.07 21.66 29.67 22.1 30.2 22.58 30.61 22.65 30.68 22.73 30.75 22.77 30.79 23.76 31.58 25.01 32.01 26.29 32.01 29.42 32.01 31.97 29.46 31.97 26.33 31.97 24.17 30.76 22.29 28.98 21.33ZM19 6 28.88 6 29.57 7 28.88 8 19 8 19 6ZM12.99 14 3.14 14 2.45 13 3.14 12 12.99 12 12.99 14ZM17.71 21.65C17.71 22.59 16.94 23.36 16 23.36 15.61 23.36 15.24 23.23 14.97 23.03L14.89 22.96C14.72 22.82 14.59 22.66 14.48 22.46 14.46 22.43 14.45 22.41 14.44 22.38L14.4 22.29C14.32 22.08 14.28 21.86 14.28 21.65 14.28 21.47 14.31 21.3 14.36 21.12 14.39 21.02 14.44 20.91 14.51 20.8 14.66 20.54 14.87 20.32 15.15 20.17 15.4 20.03 15.68 19.95 15.97 19.95 16.01 19.95 16.05 19.95 16.08 19.95 16.99 19.99 17.71 20.74 17.71 21.66ZM15 2 17 2 17 17.97C16.69 17.96 16.39 17.94 16.08 17.94 16.05 17.94 16.03 17.94 16 17.94 15.98 17.94 15.96 17.94 15.94 17.94 15.92 17.94 15.91 17.94 15.89 17.94 15.59 17.94 15.29 17.96 15 17.97L15 2ZM8.28 28.92C8.16 29.04 8.04 29.14 7.86 29.27 7.24 29.74 6.46 29.99 5.68 29.99 3.65 29.99 2 28.34 2 26.31 2 25.81 2.09 25.33 2.28 24.89 2.86 23.52 4.19 22.63 5.67 22.63 7.25 22.63 8.65 23.63 9.16 25.14 9.29 25.51 9.36 25.9 9.36 26.31 9.36 26.72 9.28 27.16 9.15 27.55 8.96 28.06 8.67 28.52 8.28 28.91ZM11.2 25.05C11.16 24.86 11.12 24.67 11.05 24.49 10.52 22.91 9.33 21.7 7.84 21.09 8.2 20.98 8.55 20.87 8.93 20.77 10.09 20.47 11.34 20.26 12.63 20.12 12.57 20.25 12.5 20.38 12.45 20.52 12.34 20.89 12.28 21.27 12.28 21.65 12.28 22.05 12.35 22.45 12.47 22.83L12.53 23.01C12.59 23.17 12.66 23.32 12.73 23.44 12.83 23.62 12.95 23.79 13.07 23.94 12.76 24.06 12.46 24.21 12.17 24.37 11.82 24.57 11.49 24.8 11.18 25.05ZM18.9 23.94C19.4 23.31 19.72 22.52 19.72 21.65 19.72 21.11 19.6 20.61 19.39 20.14 20.6 20.28 21.76 20.49 22.86 20.77 23.28 20.88 23.67 21 24.06 21.12 23.87 21.2 23.68 21.29 23.5 21.39 22.6 21.9 21.87 22.63 21.38 23.5 21.18 23.85 21.01 24.21 20.9 24.59 20.85 24.74 20.83 24.89 20.8 25.04 20.23 24.58 19.59 24.22 18.91 23.94ZM26.3 30C25.46 30 24.67 29.73 24.03 29.22L23.93 29.13C23.58 28.83 23.29 28.49 23.07 28.08 23.03 28.01 22.99 27.95 22.96 27.87L22.89 27.69C22.71 27.24 22.62 26.78 22.62 26.32 22.62 25.94 22.68 25.56 22.79 25.19 22.86 24.96 22.96 24.74 23.1 24.5 23.42 23.94 23.89 23.46 24.47 23.13 25.03 22.81 25.66 22.64 26.29 22.64 28.32 22.64 29.97 24.29 29.97 26.32 29.97 28.35 28.32 30 26.29 30Z" class="MsftOfcThm_Text2_lumMod_100_Fill_v2" stroke-width="0" fill="#7823DC"/><path d="M26.3 23.46C25.81 23.46 25.32 23.59 24.88 23.84 24.43 24.1 24.05 24.47 23.82 24.9 23.72 25.08 23.63 25.27 23.57 25.46 23.48 25.74 23.44 26.04 23.44 26.33 23.44 26.62 23.48 26.91 23.57 27.19L23.63 27.37C23.68 27.5 23.74 27.62 23.79 27.71 23.95 28 24.17 28.27 24.42 28.49L24.51 28.57C25.01 28.97 25.64 29.19 26.29 29.19 27.87 29.19 29.15 27.91 29.15 26.33 29.15 24.75 27.87 23.47 26.29 23.47ZM25.79 27.02 25.74 26.98C25.66 26.91 25.59 26.83 25.51 26.69L25.49 26.65C25.45 26.54 25.43 26.43 25.43 26.33 25.43 26.24 25.44 26.15 25.47 26.06 25.49 26.01 25.51 25.97 25.55 25.9 25.62 25.77 25.73 25.66 25.87 25.59 26.43 25.27 27.16 25.71 27.16 26.34 27.16 26.97 26.4 27.46 25.79 27.04Z" class="MsftOfcThm_Text2_lumMod_100_Fill_v2" stroke-width="0" fill="#7823DC"/><path d="M5.68 23.46C5.19 23.46 4.7 23.59 4.26 23.84 3.81 24.1 3.43 24.47 3.19 24.9 3.09 25.08 3 25.27 2.94 25.46 2.85 25.74 2.81 26.03 2.81 26.33 2.81 26.63 2.85 26.91 2.94 27.19L3 27.37C3.05 27.5 3.11 27.62 3.16 27.71 3.33 28.01 3.55 28.28 3.76 28.46L3.89 28.57C4.39 28.97 5.02 29.19 5.67 29.19 7.25 29.19 8.53 27.91 8.53 26.33 8.53 24.75 7.25 23.47 5.67 23.47ZM5.12 26.98C5.04 26.91 4.97 26.83 4.89 26.69L4.87 26.65C4.83 26.54 4.81 26.43 4.81 26.33 4.81 26.24 4.82 26.15 4.85 26.06 4.86 26.01 4.89 25.96 4.93 25.9 5 25.77 5.11 25.66 5.25 25.59 5.82 25.26 6.54 25.71 6.54 26.34 6.54 27.02 5.71 27.48 5.12 27Z" class="MsftOfcThm_Text2_lumMod_100_Fill_v2" stroke-width="0" fill="#7823DC"/></svg>