<svg viewBox="0 0 32 32" xmlns="http://www.w3.org/2000/svg" xmlns:xlink="http://www.w3.org/1999/xlink" overflow="hidden"><style>
.MsftOfcResponsive_Fill_7823dc {
 fill:#7823DC; 
}
</style>
<defs></defs><g id="Layer_5"><path d="M29.53 21.19 23.22 10.87 22.85 10.87 22.85 9.7 20.85 9.7 20.85 10.87 7.78 10.87 1.64 21.21C1.52279 21.4016 1.47348 21.627 1.5 21.85L1.5 27.74C1.49448 28.9826 2.49735 29.9945 3.73998 30 3.74332 30 3.74666 30 3.75 30L27.43 30C28.6726 30 29.68 28.9926 29.68 27.75L29.68 21.85C29.6729 21.6224 29.622 21.3983 29.53 21.19ZM8.92 12.87 22.1 12.87 26.9 20.72 4.26 20.72ZM27.68 27.74C27.68 27.8781 27.5681 27.99 27.43 27.99L3.75 27.99C3.61193 27.99 3.5 27.8781 3.5 27.74L3.5 22.74 27.68 22.74Z" class="MsftOfcResponsive_Fill_7823dc" fill="#7823DC"/><rect x="24.05" y="24.43" width="2.45" height="2" class="MsftOfcResponsive_Fill_7823dc" fill="#7823DC"/><rect x="20.68" y="24.43" width="2.45" height="2" class="MsftOfcResponsive_Fill_7823dc" fill="#7823DC"/><path d="M23.35 0.36 23.35 0.36C23.23 0.82 23.06 1.51 22.85 2.3L22.85 2.3C29.85 3.07 29.47 9.91 29.43 10.51L31.43 10.51C31.66 7.24 30.24 1.28 23.35 0.36Z" class="MsftOfcResponsive_Fill_7823dc" fill="#7823DC"/><path d="M25.13 6.69C25.9696 7.78546 26.3979 9.141 26.34 10.52L28.34 10.52C28.4008 8.65929 27.7982 6.83754 26.64 5.38 25.5889 4.22859 24.1432 3.51466 22.59 3.38L22.59 3.38C22.43 4.02 22.26 4.68 22.09 5.32L22.09 5.32C23.2453 5.35364 24.3395 5.84675 25.13 6.69Z" class="MsftOfcResponsive_Fill_7823dc" fill="#7823DC"/><path d="M23.53 10.52 25.53 10.52C25.3964 8.46916 23.8365 6.79634 21.8 6.52L21.8 6.52C21.6 7.31 21.43 8 21.32 8.45L21.32 8.45C22.4623 8.51019 23.3953 9.3841 23.53 10.52Z" class="MsftOfcResponsive_Fill_7823dc" fill="#7823DC"/></g></svg>