<svg viewBox="0 0 32 32" xmlns="http://www.w3.org/2000/svg" xmlns:xlink="http://www.w3.org/1999/xlink" id="Graphic" xml:space="preserve" overflow="hidden"><path d="M29.2 18 20.6 20.8 20.6 19.6 20.6 17.3 18.4 17.6 15.3 18 10.4 16 9.5 15.7 8.7 16.2 5.5 18 2.3 18 0.3 18 0.3 20 0.3 26 0.3 28 2.3 28 5.5 28 15.3 32 30.8 23.7 31.8 23.2 31.8 22 31.8 20 31.8 17.2 29.2 18 29.2 18 29.2 18 29.2 18 29.2 18ZM29.8 22 15 29.8 5.9 26 2.3 26 2.3 20 6 20 9.7 18 15.1 20 18.8 19.5 18.8 21.5 17.8 22 14.1 22.8 14.1 24.5 18 23.8 18 23.8 29.8 20 29.8 22 29.8 22 29.8 22 29.8 22 29.8 22Z" fill="#7823DC" fill-rule="evenodd" clip-rule="evenodd"/><g><path d="M14.8 2.1C11.3 2.1 8.5 4.9 8.5 8.4 8.5 11.9 11.3 14.7 14.8 14.7 18.3 14.7 21.1 11.9 21.1 8.4L14.8 8.4 14.8 2.1 14.8 2.1Z" fill="#7823DC" fill-rule="evenodd" clip-rule="evenodd"/><path d="M23.5 6.3C23.5 2.8 20.7 0 17.2 0L17.2 6.3 23.5 6.3 23.5 6.3Z" fill="#7823DC" fill-rule="evenodd" clip-rule="evenodd"/></g></svg>