<svg viewBox="0 0 32 32" xmlns="http://www.w3.org/2000/svg" xmlns:xlink="http://www.w3.org/1999/xlink" id="Graphic" overflow="hidden"><defs></defs><path d="M24.391 32 22.391 32 22.391 27 9.891 27 9.891 32 7.891 32 7.891 25 24.391 25 24.391 32Z" fill="#7823DC"/><rect x="11.3906" y="18.4844" width="2" height="7.51563" fill="#7823DC"/><rect x="18.8906" y="18.4844" width="2" height="7.51563" fill="#7823DC"/><rect x="15.1406" y="16.936" width="2" height="9.06396" fill="#7823DC"/><path d="M20.127 4.731 18.17 0 16.141 0 18.822 6.484 25.516 7.162 20.48 11.847 21.935 18.75 16.141 15.162 10.346 18.75 11.801 11.847 6.766 7.162 13.459 6.484 16.141 0 14.111 0 12.154 4.731 6.576 5.296 2.457 5.714 5.488 8.535 9.748 12.498 8.512 18.363 7.608 22.651 11.334 20.344 16.141 17.367 20.947 20.344 24.673 22.651 23.769 18.363 22.533 12.498 26.793 8.535 29.824 5.714 25.705 5.296 20.127 4.731Z" fill="#7823DC"/><rect x="3" y="30" width="26" height="2" fill="#7823DC"/></svg>