<svg viewBox="0 0 32 32" xmlns="http://www.w3.org/2000/svg" xmlns:xlink="http://www.w3.org/1999/xlink" id="Layer_1" xml:space="preserve" overflow="hidden"><g><defs><rect x="4.1" y="0" width="23.8" height="32" id="SVGID_1_"/></defs><clipPath id="SVGID_00000119802976342009306680000007965286996655064967_"><use width="100%" height="100%" xlink:href="#SVGID_1_" overflow="visible"></use></clipPath><path d="M15 22C14.4 22 14 22.4 14 23 14 23.6 14.4 24 15 24 15.6 24 16 23.6 16 23 16 22.5 15.6 22 15 22" fill="#7823DC" clip-path="url(#SVGID_00000119802976342009306680000007965286996655064967_)"/><path d="M17.3 5.7C15.2 5.7 13.5 7.4 13.5 9.5 13.5 11.6 15.2 13.3 17.3 13.3 19.4 13.3 21.1 11.6 21.1 9.5 21.1 7.4 19.5 5.7 17.3 5.7M17.3 11.4C16.3 11.4 15.5 10.6 15.5 9.6 15.5 8.6 16.3 7.8 17.3 7.8 18.3 7.8 19.1 8.6 19.1 9.6 19.2 10.6 18.4 11.4 17.3 11.4" fill="#7823DC" clip-path="url(#SVGID_00000119802976342009306680000007965286996655064967_)"/><path d="M27.9 12.2 27.9 10.2 25.2 10.2C25.1 9.5 24.9 8.8 24.7 8.1L27 6.6 26 5 23.9 6.4C23.4 5.6 22.7 4.8 21.9 4.2L23.4 2.2 21.8 1 20.2 3C19.2 2.5 18.1 2.2 17 2L17 0 15 0 15 2.1C13.9 2.2 12.8 2.6 11.8 3.1L10.2 1 8.6 2.1 10.1 4.1C9.3 4.7 8.7 5.5 8.1 6.3L6 5 4.9 6.7 7.2 8.2C7 8.8 6.8 9.5 6.8 10.2L4.1 10.2 4.1 12.2 6.7 12.2 6.7 15 4.1 15 4.1 17 6.7 17 6.7 19.8 4.1 19.8 4.1 21.8 6.8 21.8C6.9 22.5 7.1 23.2 7.3 23.9L5 25.4 6 27 8.1 25.6C8.6 26.4 9.3 27.2 10.1 27.8L8.6 29.8 10.2 31 11.8 28.9C12.8 29.4 13.9 29.7 15 29.9L15 32 17 32 17 29.9C18.1 29.8 19.2 29.4 20.2 28.9L21.8 31 23.4 29.8 21.9 27.8C22.7 27.2 23.3 26.4 23.9 25.6L26 27 27.1 25.3 24.8 23.8C25 23.1 25.2 22.4 25.3 21.7L28 21.7 28 19.7 25.4 19.7 25.4 17 28 17 28 15 25.4 15 25.4 12.2 27.9 12.2ZM23.3 20.7C23.3 24.7 20 28 16 28 12 28 8.7 24.7 8.7 20.7L8.7 11.3C8.7 7.3 12 4 16 4 20 4 23.3 7.3 23.3 11.3L23.3 20.7Z" fill="#7823DC" clip-path="url(#SVGID_00000119802976342009306680000007965286996655064967_)"/><path d="M11 14C10.4 14 10 14.5 10 15 10 15.6 10.5 16 11 16 11.5 16 12 15.5 12 15 12 14.5 11.5 14 11 14" fill="#7823DC" clip-path="url(#SVGID_00000119802976342009306680000007965286996655064967_)"/><path d="M20 17C20 16.4 19.5 16 19 16 18.4 16 18 16.4 18 17 18 17.6 18.5 18 19 18 19.5 18 20 17.5 20 17" fill="#7823DC" clip-path="url(#SVGID_00000119802976342009306680000007965286996655064967_)"/><rect x="12.9" y="17.3" width="2" height="3.6" fill="#7823DC" clip-path="url(#SVGID_00000119802976342009306680000007965286996655064967_)" transform="matrix(0.8083 -0.5888 0.5888 0.8083 -8.5548 11.8204)"/><rect x="17.6" y="22.1" width="3.6" height="2" fill="#7823DC" clip-path="url(#SVGID_00000119802976342009306680000007965286996655064967_)" transform="matrix(0.4879 -0.8729 0.8729 0.4879 -10.2394 28.7911)"/></g></svg>