<svg viewBox="0 0 32 32" xmlns="http://www.w3.org/2000/svg" xmlns:xlink="http://www.w3.org/1999/xlink" id="Layer_2_1_" xml:space="preserve" overflow="hidden"><g><path d="M26.7 0 26.7 0 15.7 0 15.7 4 14.4 4C8.7 4 4 8.8 4 14.7 4 16.4 4.4 18 5.1 19.5L7.1 23.7C7.6 24.7 7.9 25.9 7.9 27L7.9 32 9.9 32 9.9 28 11.9 28 11.9 32 25.6 32 25.6 19C25.6 16.2 24 13.8 21.7 12.7L21.7 6 26 6 28 6 28 0 26.7 0 26.7 0 26.7 0ZM17.7 2 19.7 2 19.7 12.1C19.4 12.1 19.1 12 18.7 12 18.4 12 18 12 17.7 12.1L17.7 2 17.7 2 17.7 2ZM11.8 26 9.8 26C9.8 25.2 9.6 24.4 9.3 23.7L6.8 18.6C6.2 17.4 5.9 16.1 5.9 14.7 5.9 9.9 9.8 6 14.5 6L15.8 6 15.8 12.7C13.5 13.8 11.9 16.2 11.9 19L11.9 26 11.8 26 11.8 26ZM23.6 30 13.8 30 13.8 28 23.6 28 23.6 30 23.6 30 23.6 30ZM23.6 19 23.6 26 13.8 26 13.8 19C13.8 16.2 16 14 18.7 14 21.4 14 23.6 16.2 23.6 19L23.6 19ZM21.6 4 21.6 2 26 2 26 4 21.6 4 21.6 4 21.6 4Z" fill="#7823DC" fill-rule="evenodd" clip-rule="evenodd"/></g></svg>