<svg viewBox="0 0 32 32" xmlns="http://www.w3.org/2000/svg" xmlns:xlink="http://www.w3.org/1999/xlink" id="Layer_1" overflow="hidden"><style>
.MsftOfcThm_Text2_Fill_v2 {
 fill:#7823DC; 
}
</style>
<g><path d="M16.01 32C14.68 32 13.35 31.84 12.06 31.51 9.54 30.87 7.18 29.6 5.25 27.85 3.32 26.1 1.84 23.88 0.95 21.43 0.07 18.97-0.2 16.31 0.17 13.73 0.54 11.15 1.55 8.68 3.08 6.57 4.62 4.46 6.66 2.75 9.01 1.61 11.35 0.47 13.97-0.08 16.57 0.01 19.04 0.1 23.51 1.17 25.7 3.28L24.31 4.72C22.76 3.23 18.95 2.09 16.5 2.01 14.22 1.93 11.93 2.42 9.88 3.41 7.83 4.41 6.04 5.91 4.69 7.75 3.35 9.59 2.47 11.76 2.14 14.01 1.82 16.27 2.05 18.59 2.83 20.74 3.6 22.88 4.9 24.83 6.59 26.36 8.28 27.89 10.34 29 12.55 29.56 14.76 30.12 17.1 30.14 19.31 29.6L19.78 31.54C18.54 31.84 17.27 31.99 16.01 31.99Z" class="MsftOfcThm_Text2_Fill_v2" fill="#7823DC"/><rect x="1.84" y="19.99" width="16.26" height="2" class="MsftOfcThm_Text2_Fill_v2" fill="#7823DC"/><rect x="1.84" y="9.99" width="30.16" height="2" class="MsftOfcThm_Text2_Fill_v2" fill="#7823DC"/><path d="M12.95 31.19C9.43 21.46 9.03 11.05 11.79 1.08L13.72 1.61C11.07 11.18 11.45 21.17 14.83 30.5L12.95 31.18Z" class="MsftOfcThm_Text2_Fill_v2" fill="#7823DC"/><path d="M19.51 7.55C19.22 5.55 18.8 3.55 18.26 1.61L20.19 1.07C20.75 3.09 21.19 5.18 21.49 7.26L19.51 7.55Z" class="MsftOfcThm_Text2_Fill_v2" fill="#7823DC"/></g><rect x="0" y="30" width="31" height="2" class="MsftOfcThm_Text2_Fill_v2" fill="#7823DC"/><path d="M32 32 18 32 18 11.64C18.02 11.17 18.2 10.76 18.51 10.46 18.82 10.15 19.26 9.98 19.69 10L30.34 10C30.78 10 31.18 10.16 31.5 10.46 31.81 10.76 31.99 11.17 32.01 11.6L32.01 32ZM20 30 30 30 30 11.99 20 11.99 20 30ZM19.68 11.99 19.67 11.99C19.67 11.99 19.67 11.99 19.68 11.99ZM30.34 11.99 30.35 11.99 30.34 11.99Z" class="MsftOfcThm_Text2_Fill_v2" fill="#7823DC"/><rect x="24" y="0" width="2" height="7" class="MsftOfcThm_Text2_Fill_v2" fill="#7823DC"/><rect x="23" y="15.12" width="4" height="2" class="MsftOfcThm_Text2_Fill_v2" fill="#7823DC"/><rect x="23" y="19.97" width="4" height="2" class="MsftOfcThm_Text2_Fill_v2" fill="#7823DC"/><rect x="23" y="24.83" width="4" height="2" class="MsftOfcThm_Text2_Fill_v2" fill="#7823DC"/><path d="M30.5 11.99 19.5 11.99 19.5 5 30.5 5 30.5 11.99ZM21.5 9.99 28.5 9.99 28.5 7 21.5 7 21.5 9.99Z" class="MsftOfcThm_Text2_Fill_v2" fill="#7823DC"/></svg>