<svg viewBox="0 0 32 32" xmlns="http://www.w3.org/2000/svg" xmlns:xlink="http://www.w3.org/1999/xlink" id="Layer_1" overflow="hidden"><style>
.MsftOfcResponsive_Fill_7823dc {
 fill:#7823DC; 
}
</style>
<g><path d="M10.1 2 10.1 30 1.9 30 1.9 2 10.1 2M12.1 0-0.1 0-0.1 32 12.1 32 12.1 0 12.1 0Z" class="MsftOfcResponsive_Fill_7823dc" fill="#7823DC"/><rect x="3" y="3" width="6" height="2" class="MsftOfcResponsive_Fill_7823dc" fill="#7823DC"/><rect x="3" y="6" width="6" height="2" class="MsftOfcResponsive_Fill_7823dc" fill="#7823DC"/><rect x="3" y="24" width="6" height="2" class="MsftOfcResponsive_Fill_7823dc" fill="#7823DC"/><rect x="3" y="27" width="6" height="2" class="MsftOfcResponsive_Fill_7823dc" fill="#7823DC"/><rect x="7" y="13.3" width="2" height="5" class="MsftOfcResponsive_Fill_7823dc" fill="#7823DC"/></g><g><path d="M30 2 30 30 21.8 30 21.8 2 30 2M32 0 19.8 0 19.8 32 32 32 32 0 32 0Z" class="MsftOfcResponsive_Fill_7823dc" fill="#7823DC"/><rect x="22.9" y="3" width="6" height="2" class="MsftOfcResponsive_Fill_7823dc" fill="#7823DC"/><rect x="22.9" y="6" width="6" height="2" class="MsftOfcResponsive_Fill_7823dc" fill="#7823DC"/><rect x="22.9" y="24" width="6" height="2" class="MsftOfcResponsive_Fill_7823dc" fill="#7823DC"/><rect x="22.9" y="27" width="6" height="2" class="MsftOfcResponsive_Fill_7823dc" fill="#7823DC"/><rect x="26.9" y="13.3" width="2" height="5" class="MsftOfcResponsive_Fill_7823dc" fill="#7823DC"/></g><g><path d="M19.8 24.4 19.8 30 12.2 30 12.2 24.4 19.8 24.4M21.8 22.4 10.1 22.4 10.1 32 21.7 32 21.7 22.4 21.8 22.4Z" class="MsftOfcResponsive_Fill_7823dc" fill="#7823DC"/></g><g><path d="M19.8 16.9 19.8 22.5 12.2 22.5 12.2 16.9 19.8 16.9M21.8 14.9 10.1 14.9 10.1 24.5 21.7 24.5 21.7 14.9 21.8 14.9Z" class="MsftOfcResponsive_Fill_7823dc" fill="#7823DC"/></g><g><path d="M19.8 9.8 19.8 15.4 12.2 15.4 12.2 9.8 19.8 9.8M21.8 7.8 10.1 7.8 10.1 17.4 21.7 17.4 21.7 7.8 21.8 7.8Z" class="MsftOfcResponsive_Fill_7823dc" fill="#7823DC"/></g><g><path d="M19.8 2 19.8 7.6 12.2 7.6 12.2 2 19.8 2M21.8 0 10.1 0 10.1 9.6 21.7 9.6 21.7 0 21.8 0Z" class="MsftOfcResponsive_Fill_7823dc" fill="#7823DC"/></g><circle cx="18" cy="6" r="1" class="MsftOfcResponsive_Fill_7823dc" fill="#7823DC"/><circle cx="18" cy="13.5" r="1" class="MsftOfcResponsive_Fill_7823dc" fill="#7823DC"/><circle cx="18" cy="28.4" r="1" class="MsftOfcResponsive_Fill_7823dc" fill="#7823DC"/><circle cx="18" cy="20.9" r="1" class="MsftOfcResponsive_Fill_7823dc" fill="#7823DC"/></svg>