<svg viewBox="0 0 32 32" xmlns="http://www.w3.org/2000/svg" xmlns:xlink="http://www.w3.org/1999/xlink" id="Icon" overflow="hidden"><style>
.MsftOfcResponsive_Fill_7823dc {
 fill:#7823DC; 
}
</style>
<defs></defs><path d="M24 17.03 24 19.89 23.92 19.96 16 11.01 8.08 19.96 8 19.89 8 17.03 16 7.99 24 17.03Z" class="MsftOfcResponsive_Fill_7823dc" fill="#7823DC"/><path d="M16.06 4.06C22.64 4.06 28 9.42 28 16 28 22.58 22.64 27.94 16.06 27.94 9.48 27.94 4.12 22.58 4.12 16 4.12 9.42 9.47 4.06 16.06 4.06M16.06 2.06C8.36 2.06 2.12 8.3 2.12 16 2.12 23.7 8.36 29.94 16.06 29.94 23.76 29.94 30 23.7 30 16 30 8.3 23.76 2.06 16.06 2.06L16.06 2.06Z" class="MsftOfcResponsive_Fill_7823dc" fill="#7823DC"/><rect x="15" y="0" width="2" height="6" class="MsftOfcResponsive_Fill_7823dc" fill="#7823DC"/><rect x="15" y="26" width="2" height="6" class="MsftOfcResponsive_Fill_7823dc" fill="#7823DC"/><rect x="10" y="18.89" width="2" height="9.52" class="MsftOfcResponsive_Fill_7823dc" fill="#7823DC"/><rect x="8" y="18" width="4" height="2" class="MsftOfcResponsive_Fill_7823dc" fill="#7823DC"/><rect x="20.01" y="18" width="4" height="2" class="MsftOfcResponsive_Fill_7823dc" fill="#7823DC"/><rect x="20" y="18.89" width="2" height="9.52" class="MsftOfcResponsive_Fill_7823dc" fill="#7823DC"/><rect x="0" y="15" width="6" height="2" class="MsftOfcResponsive_Fill_7823dc" fill="#7823DC"/><rect x="26" y="15" width="6" height="2" class="MsftOfcResponsive_Fill_7823dc" fill="#7823DC"/></svg>