<svg viewBox="0 0 32 31.99" xmlns="http://www.w3.org/2000/svg" xmlns:xlink="http://www.w3.org/1999/xlink" id="Layer_1" overflow="hidden"><style>
.MsftOfcResponsive_Fill_7823dc {
 fill:#7823DC; 
}
</style>
<defs></defs><path d="M10.57 5.46 7.57 5.46C5.99 5.46 4.61 4.08 4.61 2.5L4.61 1 6.61 1 6.61 2.5C6.61 2.98 7.09 3.46 7.57 3.46L10.57 3.46C11.06 3.46 11.53 2.98 11.53 2.5L11.53 1 13.53 1 13.53 2.5C13.53 4.08 12.15 5.46 10.57 5.46Z" class="MsftOfcResponsive_Fill_7823dc" stroke-width="0" fill="#7823DC"/><path d="M14.71 31.99 3.29 31.99C1.48 31.99 0 30.51 0 28.68L0 3.31C0 1.48 1.47 0 3.29 0L14.72 0C16.53 0 18.01 1.48 18.01 3.31L18.01 5.62 16.01 5.62 16.01 3.31C16.01 2.59 15.43 2 14.72 2L3.29 2C2.58 2 2 2.59 2 3.31L2 28.69C2 29.41 2.58 30 3.29 30L14.72 30C15.43 30 16.01 29.41 16.01 28.69L16.01 26.38 18.01 26.38 18.01 28.69C18.01 30.51 16.54 32 14.72 32Z" class="MsftOfcResponsive_Fill_7823dc" stroke-width="0" fill="#7823DC"/><rect x="5.61" y="23.99" width="6.92" height="2" class="MsftOfcResponsive_Fill_7823dc" stroke-width="0" fill="#7823DC"/><path d="M23 26.9 22.29 26.19C21.81 25.71 21.27 25.21 20.7 24.68 17.71 21.9 14 18.45 14 14.16L14 9.37 23 6.43 32 9.37 32 14.16C32 18.47 28.83 21.41 25.76 24.24 25.07 24.88 24.37 25.53 23.7 26.19L22.99 26.9ZM16 10.83 16 14.17C16 17.58 19.36 20.71 22.06 23.22 22.38 23.52 22.7 23.81 23 24.1 23.46 23.66 23.94 23.22 24.41 22.78 27.29 20.12 30 17.61 30 14.17L30 10.83 23 8.54 16 10.83Z" class="MsftOfcResponsive_Fill_7823dc" stroke-width="0" fill="#7823DC"/></svg>