<svg viewBox="0 0 32 32" xmlns="http://www.w3.org/2000/svg" xmlns:xlink="http://www.w3.org/1999/xlink" id="Layer_1" overflow="hidden"><style>
.MsftOfcResponsive_Fill_7823dc {
 fill:#7823DC; 
}
</style>
<path d="M13.8 8 15.8 8 15.8 17.7 13.8 17.7Z" class="st0 MsftOfcResponsive_Fill_7823dc" fill="#7823DC"/><path d="M2 9 2 17.7 0 17.7 0 8 1.9 8Z" class="st0 MsftOfcResponsive_Fill_7823dc" fill="#7823DC"/><path d="M15.5 6C14.6 2.7 11.5 0.2 7.9 0.2 4.3 0.2 1.1 2.7 0.2 6 0.1 6.4 0 6.9 0 7.4 0 7.6 0 7.8 0 8L0 8.1C0 8.3 0 8.4 0 8.6 0.1 10.4 0.8 12 2 13.3 3.4 14.9 5.5 16 7.9 16 12.2 16 15.8 12.5 15.8 8.1 15.8 7.4 15.7 6.7 15.5 6ZM7.8 14C4.9 14 2.4 11.9 2 9 1.9 8.7 1.9 8.4 1.9 8.1L1.9 8C1.9 7.3 2 6.6 2.3 6 3.1 3.8 5.3 2.2 7.9 2.2 10.4 2.2 12.6 3.8 13.4 6 13.6 6.6 13.8 7.3 13.7 8.1 13.7 11.3 11 14 7.8 14Z" class="st0 MsftOfcResponsive_Fill_7823dc" fill="#7823DC"/><g><rect x="0" y="22" width="16.6" height="2" class="st0 MsftOfcResponsive_Fill_7823dc" fill="#7823DC"/><path d="M9.1 26 9.1 28 7.1 28 7.1 26Z" class="st0 MsftOfcResponsive_Fill_7823dc" fill="#7823DC"/><line x1="0" y1="19.6" x2="0.2" y2="19.6" class="st0" fill="#231F20"/><rect x="16" y="19.3" width="2" height="4.7" class="st0 MsftOfcResponsive_Fill_7823dc" fill="#7823DC"/><rect x="20" y="20.3" width="2" height="11.7" class="st0 MsftOfcResponsive_Fill_7823dc" fill="#7823DC"/><rect x="15.9" y="15" width="2" height="10.1" class="st0 MsftOfcResponsive_Fill_7823dc" fill="#7823DC" transform="matrix(0.2427 -0.9701 0.9701 0.2427 -6.6839 31.5382)"/><path d="M4.2 19.8 0.2 20.9 0 20.9 0 18.8 3.8 17.9Z" class="st0 MsftOfcResponsive_Fill_7823dc" fill="#7823DC"/></g><path d="M9.1 30 9.1 32 7.1 32 7.1 30Z" class="st0 MsftOfcResponsive_Fill_7823dc" fill="#7823DC"/><g><rect x="8.4" y="22" width="23.6" height="2" class="MsftOfcResponsive_Fill_7823dc" fill="#7823DC" transform="matrix(0.3592 -0.9332 0.9332 0.3592 -8.4875 33.6137)"/><rect x="23.5" y="5.2" width="2" height="13.6" class="MsftOfcResponsive_Fill_7823dc" fill="#7823DC" transform="matrix(0.2987 -0.9544 0.9544 0.2987 5.733 31.7519)"/><path d="" class="st1 MsftOfcResponsive_Fill_7823dc" stroke="#000000" stroke-width="2" stroke-miterlimit="10" fill="#7823DC"/><path d="" class="st1 MsftOfcResponsive_Fill_7823dc" stroke="#000000" stroke-width="2" stroke-miterlimit="10" fill="#7823DC"/><rect x="28.8" y="11" width="3.4" height="2" class="MsftOfcResponsive_Fill_7823dc" fill="#7823DC" transform="matrix(0.2984 -0.9544 0.9544 0.2984 9.9173 37.5558)"/><rect x="25.2" y="9.9" width="3.4" height="2" class="MsftOfcResponsive_Fill_7823dc" fill="#7823DC" transform="matrix(0.2989 -0.9543 0.9543 0.2989 8.398 33.3078)"/><rect x="21.4" y="8.8" width="3.4" height="2" class="MsftOfcResponsive_Fill_7823dc" fill="#7823DC" transform="matrix(0.2989 -0.9543 0.9543 0.2989 6.8788 28.8778)"/><rect x="17.8" y="7.5" width="3.4" height="2" class="MsftOfcResponsive_Fill_7823dc" fill="#7823DC" transform="matrix(0.2984 -0.9544 0.9544 0.2984 5.5229 24.5716)"/></g><line x1="18" y1="5" x2="18" y2="7"/><line x1="0" y1="7" x2="0" y2="5"/><path d="M0 7.4 0 17.7 0 17.7 0 8 0 8C0 7.8 0 7.6 0 7.4Z" class="MsftOfcResponsive_Fill_7823dc" fill="#7823DC"/><g><path d="M14.9 9.4C11.5 9.4 9.1 8.5 7.7 6.6 6.6 5 6.3 2.9 6.7 1L8.7 1.6 7.7 1.3 8.7 1.6C8.4 2.9 8.6 4.3 9.4 5.4 10.4 6.7 12.2 7.3 15 7.3L15 9.4Z" class="st2 MsftOfcResponsive_Fill_7823dc" fill="#7823DC" fill-rule="evenodd" clip-rule="evenodd"/></g></svg>