<svg viewBox="0 0 60.72 60.72" xmlns="http://www.w3.org/2000/svg" xmlns:xlink="http://www.w3.org/1999/xlink" id="Layer_1" overflow="hidden"><style>
.MsftOfcResponsive_Fill_7823dc {
 fill:#7823DC; 
}
</style>
<defs><clipPath id="clippath"><path d="M0 60.72 60.72 60.72 60.72 0 0 0 0 60.72 0 60.72Z" fill="none" clip-rule="evenodd"/></clipPath><clipPath id="clippath-1"><path d="M0 0 60.72 0 60.72 60.72 0 60.72 0 0 0 0Z" fill="none" clip-rule="evenodd" clip-path="url(#clippath)"/></clipPath><clipPath id="clippath-2"><path d="M0 60.72 60.72 60.72 60.72 0 0 0 0 60.72 0 60.72Z" fill="none"/></clipPath></defs><g clip-path="url(#clippath-1)"><g clip-path="url(#clippath-2)"><path d="M33.01 9.19C33.01 10.2 32.19 11.02 31.18 11.02 30.17 11.02 29.35 10.2 29.35 9.19 29.35 8.18 30.17 7.36 31.18 7.36 32.19 7.36 33.01 8.18 33.01 9.19L33.01 9.19Z" class="MsftOfcResponsive_Fill_7823dc" fill="#7823DC"/><path d="M56.85 28.26 56.85 42.14 42.18 42.14C39.15 42.14 36.68 39.67 36.68 36.65L36.68 28.3 33.01 28.3 33.01 36.65C33.01 41.7 37.12 45.8 42.18 45.8L56.85 45.8C56.85 48.82 54.37 51.29 51.35 51.29L33.86 51.29 31.18 55.32 28.5 51.29 11 51.29C7.97 51.29 5.5 48.82 5.5 45.8L20.17 45.8C25.23 45.8 29.34 41.7 29.34 36.65L29.34 22.96 51.35 22.96 51.35 19.3 35.69 19.3 35.69 15.64C35.69 14.94 35.98 14.29 36.5 13.81 37.51 12.89 38.19 11.69 38.41 10.42 38.58 9.49 38.54 8.52 38.34 7.55 37.73 4.84 35.61 2.68 32.89 2.06 30.65 1.55 28.38 2.06 26.62 3.47 24.86 4.88 23.85 6.95 23.85 9.2 23.85 9.8 23.92 10.41 24.07 10.98 24.33 12.01 24.93 12.98 25.87 13.82 26.38 14.28 26.68 14.95 26.68 15.65L26.68 17.48 30.35 17.48 30.35 15.65C30.35 13.93 29.62 12.28 28.31 11.07 28.07 10.85 27.74 10.5 27.65 10.1 27.58 9.81 27.54 9.51 27.54 9.2 27.54 8.08 28.05 7.04 28.92 6.34 29.82 5.63 30.94 5.39 32.09 5.64 33.41 5.93 34.49 7.03 34.77 8.35 34.88 8.84 34.9 9.34 34.81 9.83 34.74 10.29 34.46 10.75 34.06 11.13 32.78 12.28 32.04 13.95 32.04 15.67L32.04 19.33 11 19.33 11 22.99 25.67 22.99 25.67 36.68C25.67 39.7 23.19 42.17 20.17 42.17L5.5 42.17 5.5 28.31 1.83 28.31 1.83 45.83C1.83 50.88 5.94 54.98 11 54.98L26.51 54.98 29.59 59.59 30.2 60.41 31.15 60.41 32.2 60.37 35.79 54.97 51.3 54.97C56.36 54.97 60.47 50.87 60.47 45.82L60.47 28.3 56.8 28.3 56.84 28.26 56.84 28.26Z" class="MsftOfcResponsive_Fill_7823dc" fill="#7823DC"/></g></g></svg>