<svg viewBox="0 0 32.03 31.97" xmlns="http://www.w3.org/2000/svg" xmlns:xlink="http://www.w3.org/1999/xlink" id="Layer_1" overflow="hidden"><style>
.MsftOfcResponsive_Fill_7823dc {
 fill:#7823DC; 
}
</style>
<defs></defs><path d="M29.93 29.16 27.97 28.79 30 18.02 30 17.91 27.48 18.35C27.16 18.41 26.87 18.57 26.64 18.81L22.84 22.82 6.85 22.82 4.52 20.36 2.6 20.36C2.31 20.36 2.08 20.59 2.08 20.88L2.08 25.02 0.07 25.02 0.07 20.88C0.07 19.49 1.2 18.36 2.59 18.36L5.37 18.36 7.7 20.82 21.96 20.82 25.17 17.43C25.68 16.89 26.35 16.52 27.08 16.38L29.51 15.92C30.22 15.78 30.93 16.02 31.43 16.54 31.92 17.05 32.1 17.77 31.93 18.45L29.91 29.17Z" class="MsftOfcResponsive_Fill_7823dc" fill="#7823DC"/><path d="M22.92 18.77 10.09 18.77 10.09 16.77 21.58 16.77C22.55 14.22 22.57 12.04 21.64 10.01L17.47 10.01 17.47 8.01 22.85 8.01 23.13 8.53C24.7 11.41 24.71 14.56 23.17 18.16L22.91 18.77Z" class="MsftOfcResponsive_Fill_7823dc" fill="#7823DC"/><path d="M7.94 18.08 6.04 17.46C7.23 13.77 7.26 11.4 6.13 9.52L5.22 8 12.75 8 12.75 6.36 5.62 6.36 8.83 3.25 5.56 0 14.76 0 14.76 10.01 8.54 10.01C9.42 12.72 8.72 15.68 7.94 18.08ZM10.56 4.37 12.76 4.37 12.76 2 10.39 2 11.68 3.29 10.56 4.37Z" class="MsftOfcResponsive_Fill_7823dc" fill="#7823DC"/><rect x="15.1" y="18.66" width="2" height="3.11" class="MsftOfcResponsive_Fill_7823dc" fill="#7823DC"/><path d="M32.03 31.97C30.79 31.97 30.17 31.12 29.76 30.56 29.4 30.07 29.29 29.97 29.11 29.97 28.93 29.97 28.82 30.07 28.46 30.56 28.05 31.12 27.43 31.97 26.19 31.97 24.95 31.97 24.34 31.12 23.93 30.56 23.57 30.07 23.47 29.97 23.28 29.97 23.09 29.97 22.99 30.07 22.63 30.56 22.22 31.12 21.6 31.97 20.37 31.97 19.14 31.97 18.52 31.12 18.11 30.56 17.75 30.07 17.65 29.97 17.46 29.97 17.27 29.97 17.17 30.07 16.81 30.56 16.4 31.12 15.78 31.97 14.55 31.97 13.32 31.97 12.7 31.12 12.29 30.56 11.93 30.07 11.83 29.97 11.64 29.97 11.45 29.97 11.35 30.07 10.99 30.56 10.58 31.12 9.96 31.97 8.73 31.97 7.5 31.97 6.88 31.12 6.47 30.56 6.11 30.07 6.01 29.97 5.82 29.97 5.63 29.97 5.53 30.07 5.17 30.56 4.76 31.12 4.14 31.97 2.91 31.97 1.68 31.97 1.06 31.12 0.65 30.56 0.29 30.07 0.19 29.97 1.63203e-14 29.97L1.63203e-14 27.97C1.24 27.97 1.85 28.82 2.26 29.38 2.62 29.87 2.72 29.97 2.91 29.97 3.1 29.97 3.2 29.87 3.56 29.38 3.97 28.82 4.59 27.97 5.82 27.97 7.05 27.97 7.67 28.82 8.08 29.38 8.44 29.87 8.54 29.97 8.73 29.97 8.92 29.97 9.02 29.87 9.38 29.38 9.79 28.82 10.41 27.97 11.64 27.97 12.87 27.97 13.5 28.82 13.9 29.38 14.26 29.87 14.36 29.97 14.55 29.97 14.74 29.97 14.84 29.87 15.2 29.38 15.61 28.82 16.23 27.97 17.46 27.97 18.69 27.97 19.31 28.82 19.72 29.38 20.08 29.87 20.18 29.97 20.37 29.97 20.56 29.97 20.66 29.87 21.02 29.38 21.43 28.82 22.05 27.97 23.28 27.97 24.51 27.97 25.14 28.82 25.54 29.38 25.9 29.87 26 29.97 26.19 29.97 26.38 29.97 26.48 29.87 26.84 29.38 27.25 28.82 27.87 27.97 29.11 27.97 30.35 27.97 30.97 28.82 31.38 29.38 31.74 29.87 31.85 29.97 32.03 29.97L32.03 31.97Z" class="MsftOfcResponsive_Fill_7823dc" fill="#7823DC"/><g><rect x="23.04" y="24.79" width="1.98" height="1.98" class="MsftOfcResponsive_Fill_7823dc" fill="#7823DC"/><rect x="14.04" y="24.79" width="1.98" height="1.98" class="MsftOfcResponsive_Fill_7823dc" fill="#7823DC"/><rect x="5.04" y="24.79" width="1.98" height="1.98" class="MsftOfcResponsive_Fill_7823dc" fill="#7823DC"/></g></svg>