<svg width="36.5" height="36.5" viewBox="0 0 36.5 36.5" xmlns="http://www.w3.org/2000/svg" xmlns:xlink="http://www.w3.org/1999/xlink" overflow="hidden"><defs></defs><g><g><defs><path d="M0 36.5 36.5 36.5 36.5 0 0 0 0 36.5Z" id="SVGID_1_" fill="#7823DC"/></defs><clipPath id="SVGID_2_"><use width="100%" height="100%" xlink:href="#SVGID_1_"></use></clipPath><g clip-path="url(#SVGID_2_)"><defs><path d="M0 36.5 36.5 36.5 36.5 0 0 0 0 36.5Z" id="SVGID_3_" fill="#7823DC"/></defs><clipPath id="SVGID_4_"><use width="100%" height="100%" xlink:href="#SVGID_3_"></use></clipPath><path d="M18.3 13.7C14.5 13.7 11.5 10.6 11.5 6.8 11.5 3 14.5 0 18.3 0 22.1 0 25.1 3.1 25.1 6.9 25.1 10.7 22.1 13.7 18.3 13.7ZM18.3 2.3C15.8 2.3 13.7 4.4 13.7 6.9 13.7 9.4 15.7 11.5 18.3 11.5 20.9 11.5 22.9 9.4 22.9 6.9 22.8 4.3 20.8 2.3 18.3 2.3Z" fill="#7823DC" clip-path="url(#SVGID_4_)"/><path d="M25.1 34.2 11.4 34.2 11.4 36.5 25.1 36.5 25.1 34.2 25.1 34.2 25.1 34.2Z" fill="#7823DC" clip-path="url(#SVGID_4_)"/><path d="M17.2 8 17.2 34.3 19.4 34.3 19.4 5.7 17.2 8 17.2 8 17.2 8Z" fill="#7823DC" clip-path="url(#SVGID_4_)"/><path d="M8 23.7 18.3 34 18.3 30.8 8 20.5 8 23.7 8 23.7 8 23.7Z" fill="#7823DC" clip-path="url(#SVGID_4_)"/><path d="M8 28.1C4.9 28.1 2.3 25.5 2.3 22.4 2.3 19.3 4.9 16.7 8 16.7 11.1 16.7 13.7 19.3 13.7 22.4 13.7 25.5 11.1 28.1 8 28.1ZM8 19C6.1 19 4.6 20.5 4.6 22.4 4.6 24.3 6.1 25.8 8 25.8 9.9 25.8 11.4 24.3 11.4 22.4 11.4 20.5 9.9 19 8 19Z" fill="#7823DC" clip-path="url(#SVGID_4_)"/><path d="M28.6 19.1 18.3 29.5 18.3 26.2 28.6 15.9 28.6 19.1 28.6 19.1 28.6 19.1Z" fill="#7823DC" clip-path="url(#SVGID_4_)"/><path d="M28.6 23.5C25.5 23.5 22.9 20.9 22.9 17.8 22.9 14.7 25.5 12.1 28.6 12.1 31.7 12.1 34.3 14.7 34.3 17.8 34.3 20.9 31.8 23.5 28.6 23.5ZM28.6 14.4C26.7 14.4 25.2 15.9 25.2 17.8 25.2 19.7 26.7 21.2 28.6 21.2 30.5 21.2 32 19.7 32 17.8 32 15.9 30.5 14.4 28.6 14.4Z" fill="#7823DC" clip-path="url(#SVGID_4_)"/></g></g></g></svg>