<svg width="31.82" height="31.96" viewBox="0 0 31.82 31.96" xmlns="http://www.w3.org/2000/svg" xmlns:xlink="http://www.w3.org/1999/xlink" overflow="hidden"><style>
.MsftOfcResponsive_Fill_7823dc {
 fill:#7823DC; 
}
</style>
<defs></defs><g><g><rect x="14.91" y="16.29" width="2" height="14.66" class="MsftOfcResponsive_Fill_7823dc" fill="#7823DC"/></g><g><path d="M15.85 31.96 2.72 29.94 3.02 27.96 15.85 29.94 28.67 27.96 28.97 29.94Z" class="MsftOfcResponsive_Fill_7823dc" fill="#7823DC"/></g><g><rect x="1.87" y="21.95" width="2" height="8" class="MsftOfcResponsive_Fill_7823dc" fill="#7823DC"/></g><g><rect x="27.82" y="21.95" width="2" height="8" class="MsftOfcResponsive_Fill_7823dc" fill="#7823DC"/></g><g><path d="M28.26 17.95 29.33 21.31 19.01 22.67 17.06 17.94 28.26 17.94M29.82 15.95 13.82 15.95 17.82 24.95 31.82 22.95 29.82 15.95Z" class="MsftOfcResponsive_Fill_7823dc" fill="#7823DC"/></g><g><path d="M3.56 17.95 14.76 17.95 12.81 22.68 2.49 21.31 3.56 17.95M0 22.95 14 24.95 18 15.95 2 15.95 0 22.95Z" class="MsftOfcResponsive_Fill_7823dc" fill="#7823DC"/></g></g><g><path d="M21.45 5.05 10.38 5.05 8.09 1.61 9.75 0.5 11.45 3.05 20.38 3.05 22.09 0.5 23.75 1.61Z" class="MsftOfcResponsive_Fill_7823dc" fill="#7823DC"/></g><g><rect x="11.88" y="8" width="12.03" height="2" class="MsftOfcResponsive_Fill_7823dc" fill="#7823DC" transform="matrix(-1 -3.74897e-11 3.74897e-11 -1 35.7871 18)"/></g><g><rect x="7.91" y="8" width="2" height="2" class="MsftOfcResponsive_Fill_7823dc" fill="#7823DC" transform="matrix(-1 -4.36559e-11 4.36559e-11 -1 17.82 18)"/></g><g><rect x="11.88" y="12" width="12.03" height="2" class="MsftOfcResponsive_Fill_7823dc" fill="#7823DC" transform="matrix(-1 -3.74897e-11 3.74897e-11 -1 35.7871 26)"/></g><g><rect x="7.91" y="12" width="2" height="2" class="MsftOfcResponsive_Fill_7823dc" fill="#7823DC" transform="matrix(-1 -4.36559e-11 4.36559e-11 -1 17.82 26)"/></g><g><path d="M5.91 14 5.91 2 25.91 2 25.91 14 27.91 14 27.91 0 3.91 0 3.91 14Z" class="MsftOfcResponsive_Fill_7823dc" fill="#7823DC"/></g></svg>