<svg viewBox="0 0 32 32" xmlns="http://www.w3.org/2000/svg" xmlns:xlink="http://www.w3.org/1999/xlink" overflow="hidden"><style>
.MsftOfcResponsive_Fill_7823dc {
 fill:#7823DC; 
}
</style>
<defs></defs><g id="a"></g><g id="b"></g><g id="c"><path d="M32 6.88 18.05 6.88 18.05 6.26 32 6.26 32 0.11 26.3 0.11 16.06 3.58 16.06 4.26 14.06 4.26 14.06 8.88 16.06 8.88 16.06 11.33 14.64 11.33 14.64 13.13 13.41 13.13 13.41 19.04 20.71 19.04 20.71 13.13 19.48 13.13 19.48 11.33 18.06 11.33 18.06 8.88 26.12 8.88 23.53 26.11 21.56 26.11 21.56 28.99 20.98 29.28C20.36 29.59 19.63 29.59 19.01 29.28 18.9 29.23 18.79 29.19 18.68 29.14L22.13 22.11 9.96 22.11 9.96 17.37 2.04 17.37 2.04 22.11 0 22.11 0 24.11 18.91 24.11 16.67 28.68C15.68 28.63 14.67 28.82 13.77 29.28 13.17 29.58 12.45 29.58 11.84 29.28 10.22 28.48 8.27 28.48 6.62 29.3L6.58 29.32C5.97 29.63 5.23 29.63 4.62 29.32 3.19 28.61 1.51 28.52 0.01 29.05L0.01 31.2C0.09 31.17 0.18 31.15 0.26 31.11 1.34 30.57 2.64 30.57 3.72 31.11 4.88 31.69 6.27 31.7 7.45 31.12L7.53 31.08C8.6 30.55 9.88 30.55 10.95 31.08 12.11 31.66 13.5 31.65 14.66 31.08 15.74 30.54 17.04 30.54 18.12 31.08 18.71 31.38 19.36 31.52 20 31.52 20.53 31.52 21.06 31.39 21.56 31.19L21.56 32.12 32.01 32.12 32.01 30.12 23.56 30.12 23.56 28.12 32.01 28.12 32.01 26.12 25.56 26.12 26.12 22.39 32.01 25.47 32.01 23.21 27.64 20.93 32.01 19 32.01 15.19 28.66 13.6 31.91 11.9 31.91 11.9 32.01 11.85 32.01 6.88ZM30.01 0.96 30.01 4.26 20.27 4.26 30.01 0.96ZM18.7 15.13 18.7 17.04 15.4 17.04 15.4 15.13 18.7 15.13ZM7.96 22.11 4.05 22.11 4.05 19.37 7.96 19.37 7.96 22.11ZM31.36 17.08 26.6 19.19 27.21 15.12 31.36 17.09ZM27.7 11.83 28.04 9.54 30.3 10.46 27.7 11.83Z" class="MsftOfcResponsive_Fill_7823dc" fill="#7823DC"/></g><g id="d"></g></svg>