<svg viewBox="0 0 32 32" xmlns="http://www.w3.org/2000/svg" xmlns:xlink="http://www.w3.org/1999/xlink" id="Layer_1" overflow="hidden"><style>
.MsftOfcResponsive_Fill_7823dc {
 fill:#7823DC; 
}
</style>
<path d="M29.9 27.4C29.5 25.9 28.1 24.8 26.4 24.8 24.8 24.8 23.5 25.8 23 27.2L23 27.3C22.9 27.6 22.8 28 22.8 28.4 22.8 28.7 22.8 29.1 22.9 29.4 23.3 30.9 24.7 32 26.4 32 28 32 29.4 30.9 29.9 29.4 30 29.1 30 28.7 30 28.4 30 28 30 27.7 29.9 27.4ZM26.4 30C25.9 30 25.4 29.8 25.2 29.4 25 29.1 24.8 28.8 24.8 28.4 24.8 28 24.9 27.7 25.2 27.4 25.5 27 25.9 26.8 26.4 26.8 26.9 26.8 27.3 27 27.6 27.4 27.8 27.7 28 28 28 28.4 28 28.8 27.9 29.1 27.6 29.4 27.3 29.8 26.9 30 26.4 30Z" class="MsftOfcResponsive_Fill_7823dc" fill="#7823DC"/><path d="M11.9 27.4C11.5 25.9 10.1 24.8 8.4 24.8 6.8 24.8 5.4 25.9 4.9 27.4 4.8 27.7 4.8 28 4.8 28.4 4.8 28.7 4.8 29.1 4.9 29.4 5.4 30.9 6.8 32 8.4 32 10 32 11.4 30.9 11.9 29.4 12 29.1 12 28.7 12 28.4 12 28 12 27.7 11.9 27.4ZM8.4 30C7.5 30 6.8 29.3 6.8 28.4 6.8 27.5 7.5 26.8 8.4 26.8 9.3 26.8 10 27.5 10 28.4 10 29.3 9.3 30 8.4 30Z" class="MsftOfcResponsive_Fill_7823dc" fill="#7823DC"/><path d="M23 29.4 11.1 29.4 11.1 27.4 21 27.4 21 24 2 24 2 27.4 5.1 27.4 5.1 29.4 0 29.4 0 22 23 22Z" class="MsftOfcResponsive_Fill_7823dc" fill="#7823DC"/><path d="M29.7 12.4 21 12.4 21 29.4 25.2 29.4C25 29.1 24.8 28.8 24.8 28.4 24.8 28 24.9 27.7 25.2 27.4L23 27.4 23 14.4 28.3 14.4 28.5 15 29.2 17 29.9 19 30.1 19.6 30.1 27.4 27.7 27.4C27.9 27.7 28.1 28 28.1 28.4 28.1 28.8 28 29.1 27.7 29.4L32 29.4 32 19.2 29.7 12.4Z" class="MsftOfcResponsive_Fill_7823dc" fill="#7823DC"/><path d="M31 21 25 21 25 15 30 15 30 17 27 17 27 19 31 19Z" class="MsftOfcResponsive_Fill_7823dc" fill="#7823DC"/><path d="M70.4 26.2 64.3 26.2 64.3 35.8 63.7 35.8 63.7 28 65.1 23.6 58 19.3 46.7 17.9 43.2 28.5 44.7 29.3 46.9 35.8 45.9 35.8 45.9 41.5 47.8 41.5C47.8 43.6 49.5 45.3 51.6 45.3 53.7 45.3 55.4 43.6 55.4 41.5L65.6 41.5C65.6 43.6 67.3 45.3 69.4 45.3 71.5 45.3 73.2 43.6 73.2 41.5L75.1 41.5 75.1 33 70.4 26.2ZM73.3 32.6 69.4 32.6 69.4 29.4 71 29.4 73.3 32.6ZM62.4 35.8 56.7 35.8 56.7 34.2 61.6 34.6 62.4 32 62.4 35.8ZM54.1 30C54.8 30 55.4 30.6 55.4 31.3L55.4 35.8 52.9 35.8 52.9 31.3C52.9 30.6 53.4 30 54.1 30ZM60.7 33.2 56.7 32.9 56.7 31.4C56.7 30.5 56.2 29.7 55.5 29.2L58.1 20.9 63.5 24.2 60.7 33.2ZM47.6 19.3 56.9 20.5 54.2 28.8C54.2 28.8 54.1 28.8 54.1 28.8 52.7 28.8 51.6 29.9 51.6 31.3L51.6 31.5 44.7 27.8 47.6 19.3ZM46.3 30.1 51.5 32.9 51.5 35.7 48.1 35.7 46.3 30.1ZM51.6 44.1C50.2 44.1 49.1 43 49.1 41.6 49.1 40.2 50.2 39.1 51.6 39.1 53 39.1 54.1 40.2 54.1 41.6 54.1 42.9 53 44.1 51.6 44.1ZM64.3 40.2 55.2 40.2C54.7 38.7 53.3 37.7 51.6 37.7 49.9 37.7 48.5 38.8 48 40.2L47.1 40.2 47.1 37 64.3 37 64.3 40.2ZM69.4 44.1C68 44.1 66.9 43 66.9 41.6 66.9 40.2 68 39.1 69.4 39.1 70.8 39.1 71.9 40.2 71.9 41.6 72 42.9 70.8 44.1 69.4 44.1ZM73 40.2C72.5 38.7 71.1 37.7 69.4 37.7 67.7 37.7 66.3 38.8 65.8 40.2L65.6 40.2 65.6 27.5 69.7 27.5 70.1 28.1 68.1 28.1 68.1 33.8 73.8 33.8 73.8 40.2 73 40.2Z" class="MsftOfcResponsive_Fill_7823dc" fill="#7823DC"/><path d="M42.8 28.5C41.7 28.5 40.9 29.4 40.9 30.4 40.9 31.5 41.8 32.3 42.8 32.3 43.9 32.3 44.7 31.4 44.7 30.4 44.8 29.3 43.9 28.5 42.8 28.5ZM42.8 31C42.4 31 42.2 30.7 42.2 30.4 42.2 30 42.5 29.8 42.8 29.8 43.1 29.8 43.4 30.1 43.4 30.4 43.5 30.7 43.2 31 42.8 31Z" class="MsftOfcResponsive_Fill_7823dc" fill="#7823DC"/><path d="M60.7 28.5C59.6 28.5 58.8 29.4 58.8 30.4 58.8 31.5 59.7 32.3 60.7 32.3 61.8 32.3 62.6 31.4 62.6 30.4 62.6 29.3 61.7 28.5 60.7 28.5ZM60.7 31C60.3 31 60.1 30.7 60.1 30.4 60.1 30 60.4 29.8 60.7 29.8 61 29.8 61.3 30.1 61.3 30.4 61.3 30.7 61 31 60.7 31Z" class="MsftOfcResponsive_Fill_7823dc" fill="#7823DC"/><path d="M12.5 15C12.1 14.8 11.6 14.6 11.1 14.6 10.9 14.6 10.7 14.6 10.5 14.7 9.6 14.9 8.9 15.5 8.5 16.3 8.3 16.7 8.2 17.1 8.2 17.5L8.2 24 14 24 14 17.6C14 16.5 13.4 15.5 12.5 15ZM12 22 10.2 22 10.2 17.6C10.2 17.5 10.2 17.4 10.3 17.3 10.4 17 10.7 16.8 11.1 16.8 11.5 16.8 11.8 17 11.9 17.3L11.9 17.3C12 17.4 12 17.5 12 17.6L12 22Z" class="MsftOfcResponsive_Fill_7823dc" fill="#7823DC"/><path d="M14.2 5.1 3.5 3.7 0.1 14.2 1.7 15 1.7 15 4.3 16.3 8.2 18.3 10.2 19.3 10.2 17.4C10.2 17.3 10.2 17.2 10.3 17.1L9.9 17 8.5 16.3 2.5 13.3 4.9 6 12.6 7 13.6 7.1 14.5 7.7 18.9 10.5 16.6 18 14 17.8 12 17.6 12 19.6 14 19.7 18 20 18.3 18.9 20.3 12.4 21.2 9.4 14.2 5.1Z" class="MsftOfcResponsive_Fill_7823dc" fill="#7823DC"/><path d="M14.8 6.3 14.4 7.6 12.4 15 11.8 17.2C11.7 16.9 11.4 16.7 11 16.7 10.6 16.7 10.3 16.9 10.2 17.2 10.1 17.3 10.1 17.4 10.1 17.5L10.1 18.5 9.4 18.3 9.9 17 10.5 14.7 12.6 6.9 12.9 5.8 14.8 6.3Z" class="MsftOfcResponsive_Fill_7823dc" fill="#7823DC"/><rect x="3" y="13.8" width="2" height="9.3" class="MsftOfcResponsive_Fill_7823dc" fill="#7823DC" transform="matrix(0.9407 -0.3394 0.3394 0.9407 -6.0269 2.4492)"/><rect x="15.4" y="19.1" width="2" height="3.5" class="MsftOfcResponsive_Fill_7823dc" fill="#7823DC"/></svg>