<svg viewBox="0 0 31.96 32.03" xmlns="http://www.w3.org/2000/svg" xmlns:xlink="http://www.w3.org/1999/xlink" id="Layer_1" overflow="hidden"><style>
.MsftOfcResponsive_Fill_7823dc {
 fill:#7823DC; 
}
</style>
<defs></defs><g><path d="M12 28.02C7.41 28.02 3.67 23.97 3.67 18.99L3.67 17.99 20.34 17.99 20.34 18.99C20.34 23.97 16.6 28.02 12.01 28.02ZM5.73 19.99C6.17 23.39 8.81 26.02 12 26.02 15.19 26.02 17.83 23.4 18.27 19.99L5.73 19.99Z" class="MsftOfcResponsive_Fill_7823dc" fill="#7823DC"/><path d="M12 32.03C5.38 32.03 0 26.18 0 18.99L0 17.99 10.17 17.99 10.17 19.99 2.04 19.99C2.5 25.61 6.79 30.03 12 30.03 17.21 30.03 21.5 25.61 21.96 19.99L10.56 19.99 10.56 17.99 24 17.99 24 18.99C24 26.18 18.62 32.03 12 32.03Z" class="MsftOfcResponsive_Fill_7823dc" fill="#7823DC"/><rect x="12.46" y="19.6" width="2" height="6.04" class="MsftOfcResponsive_Fill_7823dc" fill="#7823DC" transform="matrix(0.885312 -0.464997 0.464997 0.885312 -8.97 8.85)"/><rect x="6.66" y="21.99" width="7.17" height="2" class="MsftOfcResponsive_Fill_7823dc" fill="#7823DC" transform="matrix(0.507238 -0.861806 0.861806 0.507238 -14.77 20.15)"/></g><path d="M18.85 9.75C18.06 9.75 17.52 9.68 17.45 9.67L16.71 9.56 16.6 8.82C16.57 8.63 15.98 4.26 18.38 1.86 20.78-0.54 25.15 0.06 25.34 0.08L26.08 0.19 26.19 0.93C26.22 1.12 26.81 5.49 24.41 7.89L24.41 7.89C22.83 9.47 20.38 9.75 18.85 9.75ZM18.53 7.74C19.68 7.78 21.8 7.66 23 6.47 24.13 5.34 24.32 3.28 24.28 2 23.13 1.96 21.01 2.07 19.81 3.27 18.61 4.47 18.5 6.59 18.54 7.74Z" class="MsftOfcResponsive_Fill_7823dc" fill="#7823DC"/><path d="M18.28 32.03C16.75 32.03 15.56 31.87 14.51 31.52L15.14 29.62C15.98 29.9 16.98 30.03 18.28 30.03 24.72 30.03 29.95 24.79 29.95 18.36 29.95 13.94 27.41 9.81 23.47 7.85L24.36 6.06C28.97 8.36 31.94 13.19 31.94 18.36 31.94 25.9 25.81 32.03 18.27 32.03Z" class="MsftOfcResponsive_Fill_7823dc" fill="#7823DC"/><path d="M6.82 16.23 4.85 15.87C5.97 9.75 11.3 5.05 17.53 4.68L17.65 6.68C12.33 6.99 7.78 11.01 6.82 16.23Z" class="MsftOfcResponsive_Fill_7823dc" fill="#7823DC"/></svg>