<svg viewBox="0 0 32 32" xmlns="http://www.w3.org/2000/svg" xmlns:xlink="http://www.w3.org/1999/xlink" id="Layer_2_00000144328325245699140920000014890284756443101063_" xml:space="preserve" overflow="hidden"><style>
.MsftOfcResponsive_Fill_7823dc {
 fill:#7823DC; 
}
</style>
<path d="M30 28 30 30 2 30 2 28 30 28M32 26 0 26 0 32 32 32 32 26 32 26Z" class="MsftOfcResponsive_Fill_7823dc" fill="#7823DC"/><path d="M26.5 24 26.5 26 5.5 26 5.5 24 26.5 24M28.5 22 3.5 22 3.5 28 28.5 28 28.5 22 28.5 22Z" class="MsftOfcResponsive_Fill_7823dc" fill="#7823DC"/><g><g><g><path d="M29.5 11.9 17.1 7.5 19.7 0 32.1 4.4 27.8 7.1 29.5 11.9ZM19.6 6.3 26.2 8.6 25.4 6.2 27.5 4.9 21 2.6 19.6 6.3Z" class="MsftOfcResponsive_Fill_7823dc" fill="#7823DC"/></g><rect x="4.6" y="11.1" width="23.2" height="2" class="MsftOfcResponsive_Fill_7823dc" fill="#7823DC" transform="matrix(0.3594 -0.9332 0.9332 0.3594 -0.8985 22.8542)"/></g><g><path d="M2.5 11.9 4.1 7.1-0.2 4.4 12.3 0 15 7.5 2.5 11.9ZM4.4 4.9 6.5 6.2 5.7 8.6 12.3 6.3 11 2.6 4.4 4.9Z" class="MsftOfcResponsive_Fill_7823dc" fill="#7823DC"/></g><rect x="14.8" y="0.5" width="2" height="23.2" class="MsftOfcResponsive_Fill_7823dc" fill="#7823DC" transform="matrix(0.9333 -0.3591 0.3591 0.9333 -3.2842 6.4798)"/></g></svg>