<svg viewBox="0 0 32 32" xmlns="http://www.w3.org/2000/svg" xmlns:xlink="http://www.w3.org/1999/xlink" id="Layer_1" overflow="hidden"><style>
.MsftOfcResponsive_Fill_7823dc {
 fill:#7823DC; 
}
</style>
<g><path d="M30 2 30 22 2 22 2 2 30 2M28 0 0 0 0 24 32 24 32 4 28 0 28 0Z" class="st0 MsftOfcResponsive_Fill_7823dc" fill="#7823DC" fill-rule="evenodd" clip-rule="evenodd"/><path d="M18 24 18 30 14 30 14 24 18 24M20 22 12 22 12 32 20 32 20 22 20 22Z" class="st0 MsftOfcResponsive_Fill_7823dc" fill="#7823DC" fill-rule="evenodd" clip-rule="evenodd"/><path d="M25.9 30 6 30 6 32 25.9 32 25.9 30 25.9 30 25.9 30Z" class="st0 MsftOfcResponsive_Fill_7823dc" fill="#7823DC" fill-rule="evenodd" clip-rule="evenodd"/></g><path d="M16.8 10 14.6 10C13.5 10 12.7 9.1 12.7 8.1L12.7 5.9C12.7 4.8 13.6 4 14.6 4L16.8 4C17.9 4 18.7 4.9 18.7 5.9L18.7 8.1C18.8 9.1 17.9 10 16.8 10ZM14.8 8 16.8 8 16.8 6 14.8 6 14.8 8Z" class="MsftOfcResponsive_Fill_7823dc" fill="#7823DC"/><path d="M8.1 10 5.9 10C4.9 10 4 9.1 4 8.1L4 5.9C4 4.9 4.9 4 5.9 4L8.1 4C9.1 4 10 4.9 10 5.9L10 8.1C10 9.1 9.1 10 8.1 10ZM6 8 8 8 8 6 6 6 6 8Z" class="MsftOfcResponsive_Fill_7823dc" fill="#7823DC"/><path d="M16.8 20 14.6 20C13.5 20 12.7 19.1 12.7 18.1L12.7 15.9C12.7 14.8 13.6 14 14.6 14L16.8 14C17.9 14 18.7 14.9 18.7 15.9L18.7 18.1C18.8 19.1 17.9 20 16.8 20ZM14.8 18 16.8 18 16.8 16 14.8 16 14.8 18Z" class="MsftOfcResponsive_Fill_7823dc" fill="#7823DC"/><path d="M8.1 20 5.9 20C4.9 20 4 19.1 4 18.1L4 15.9C4 14.9 4.9 14 5.9 14L8.1 14C9.2 14 10 14.9 10 15.9L10 18.1C10 19.1 9.1 20 8.1 20ZM6 18 8 18 8 16 6 16 6 18Z" class="MsftOfcResponsive_Fill_7823dc" fill="#7823DC"/><path d="M8.1 20 5.9 20C4.9 20 4 19.1 4 18.1L4 15.9C4 14.9 4.9 14 5.9 14L8.1 14C9.2 14 10 14.9 10 15.9L10 18.1C10 19.1 9.1 20 8.1 20ZM6 18 8 18 8 16 6 16 6 18Z" class="MsftOfcResponsive_Fill_7823dc" fill="#7823DC"/><path d="M25 20C24.4 20 24 19.6 24 19L24 15C24 14.4 24.4 14 25 14 25.6 14 26 14.4 26 15L26 19C26 19.6 25.6 20 25 20Z" class="MsftOfcResponsive_Fill_7823dc" fill="#7823DC"/><path d="M27 18 23 18C22.4 18 22 17.6 22 17 22 16.4 22.4 16 23 16L27 16C27.6 16 28 16.4 28 17 28 17.6 27.6 18 27 18Z" class="MsftOfcResponsive_Fill_7823dc" fill="#7823DC"/><path d="M26.1 10 23.9 10C22.9 10 22 9.1 22 8.1L22 5.9C22 4.9 22.9 4 23.9 4L26.1 4C27.1 4 28 4.9 28 5.9L28 8.1C28 9.1 27.1 10 26.1 10ZM24 8 26 8 26 6 24 6 24 8Z" class="MsftOfcResponsive_Fill_7823dc" fill="#7823DC"/></svg>