<svg width="36.5" height="36.6" viewBox="0 0 36.5 36.6" xmlns="http://www.w3.org/2000/svg" xmlns:xlink="http://www.w3.org/1999/xlink" overflow="hidden"><defs></defs><g><g><defs><path d="M0 36.5 36.5 36.5 36.5 0 0 0 0 36.5Z" id="SVGID_1_" fill="#7823DC"/></defs><clipPath id="SVGID_2_"><use width="100%" height="100%" xlink:href="#SVGID_1_"></use></clipPath><g clip-path="url(#SVGID_2_)"><defs><path d="M0 36.5 36.5 36.5 36.5 0 0 0 0 36.5Z" id="SVGID_3_" fill="#7823DC"/></defs><clipPath id="SVGID_4_"><use width="100%" height="100%" xlink:href="#SVGID_3_"></use></clipPath><path d="M26.3 22.9 10.3 22.9 10.3 16 26.3 16 26.3 22.9ZM12.6 20.6 24 20.6 24 18.3 12.6 18.3 12.6 20.6Z" fill="#7823DC" clip-path="url(#SVGID_4_)"/><path d="M24.3 18.3 12.3 18.3 15 4.7 21.4 4.7 24.3 18.3ZM15.1 16 21.4 16 19.6 6.9 17 6.9 15.1 16Z" fill="#7823DC" clip-path="url(#SVGID_4_)"/><path d="M25.1 6.9 11.5 6.9 11.5 0.1 25.2 0.1 25.2 6.9ZM13.7 4.6 22.8 4.6 22.8 2.4 13.7 2.4 13.7 4.6Z" fill="#7823DC" clip-path="url(#SVGID_4_)"/><path d="M19.4 34.3 17.2 36.6 17.2 21.7 19.4 21.7 19.4 34.3 19.4 34.3Z" fill="#7823DC" clip-path="url(#SVGID_4_)"/></g></g></g></svg>