<svg viewBox="0 0 32 32" xmlns="http://www.w3.org/2000/svg" xmlns:xlink="http://www.w3.org/1999/xlink" overflow="hidden"><defs></defs><g id="Layer_3"><path d="M24.106 31.9548 7.894 31.9548 10 11.0954 10 4.71941 16-0.03545 22 4.71943 22 11.0954ZM10.106 29.9548 21.894 29.9548 20 11.1462 20 5.68619 16 2.51728 12 5.68628 11.9951 11.2468Z" fill="#7823DC"/><rect x="8" y="9.95478" width="16" height="2" fill="#7823DC"/><rect x="15" y="13.9547" width="2" height="2" fill="#7823DC"/><rect x="15" y="18.9547" width="2" height="2" fill="#7823DC"/><rect x="15" y="25.9547" width="2" height="4" fill="#7823DC"/><rect x="1.99988" y="4.71871" width="2.00023" height="4.47214" fill="#7823DC" transform="matrix(0.447214 -0.894427 0.894427 0.447214 -4.56219 6.52779)"/><rect x="0" y="9.95478" width="4" height="2" fill="#7823DC"/><rect x="0.76393" y="13.9547" width="4.47214" height="2.00023" fill="#7823DC" transform="matrix(0.894427 -0.447214 0.447214 0.894427 -6.37126 2.92046)"/><rect x="26.7639" y="5.95466" width="4.47214" height="2.00023" fill="#7823DC" transform="matrix(0.894427 -0.447214 0.447214 0.894427 -0.04866 13.7034)"/><rect x="28" y="9.95478" width="4" height="2" fill="#7823DC"/><rect x="27.9999" y="12.7187" width="2.00023" height="4.47214" fill="#7823DC" transform="matrix(0.447214 -0.894427 0.894427 0.447214 2.65484 34.2052)"/></g></svg>