<svg viewBox="0 0 32 32" xmlns="http://www.w3.org/2000/svg" xmlns:xlink="http://www.w3.org/1999/xlink" overflow="hidden"><style>
.MsftOfcResponsive_Fill_7823dc {
 fill:#7823DC; 
}
</style>
<defs></defs><g id="a"></g><g id="b"></g><g id="c"></g><g id="d"><g><path d="M16.5 18.03C17.03 18.03 17.46 17.6 17.46 17.07 17.46 16.54 17.03 16.11 16.5 16.11 15.97 16.11 15.54 16.54 15.54 17.07 15.54 17.6 15.97 18.03 16.5 18.03Z" class="e MsftOfcResponsive_Fill_7823dc" fill="#7823DC"/><circle cx="9.55" cy="22.27" r="0.96" class="e MsftOfcResponsive_Fill_7823dc" fill="#7823DC"/><path d="M11.96 19.57C12.49 19.57 12.92 19.14 12.92 18.61 12.92 18.08 12.49 17.65 11.96 17.65 11.43 17.65 11 18.08 11 18.61 11 19.14 11.43 19.57 11.96 19.57Z" class="e MsftOfcResponsive_Fill_7823dc" fill="#7823DC"/><path d="M23.54 23.23C24.07 23.23 24.5 22.8 24.5 22.27 24.5 21.74 24.07 21.31 23.54 21.31 23.01 21.31 22.58 21.74 22.58 22.27 22.58 22.8 23.01 23.23 23.54 23.23Z" class="e MsftOfcResponsive_Fill_7823dc" fill="#7823DC"/><circle cx="21.03" cy="18.61" r="0.96" class="e MsftOfcResponsive_Fill_7823dc" fill="#7823DC"/><path d="M27.52 8.1 26.82 10.91 28.17 13.12 29.71 6.77 28.65 5.13 27 6.14 27.68 3.4 26.33 1.19 24.7 7.54 25.76 9.18 27.52 8.1Z" class="e MsftOfcResponsive_Fill_7823dc" fill="#7823DC"/><path d="M5.43 8.13 4.73 10.91 6.08 13.12 7.72 6.77 6.66 5.13 4.9 6.21 5.6 3.4 4.34 1.19 2.7 7.54 3.67 9.18 5.43 8.13Z" class="e MsftOfcResponsive_Fill_7823dc" fill="#7823DC"/><path d="M28.75 29.49C27.59 30.55 25.76 30.55 24.6 29.49 22.77 27.85 19.87 27.85 18.14 29.49 17.08 30.55 15.15 30.55 14.09 29.49 12.26 27.85 9.36 27.85 7.63 29.49 6.57 30.55 4.64 30.55 3.58 29.49 2.71 28.62 1.46 28.24 0.3 28.24L0 28.24 0 29.97 0.29 29.97C1.16 29.97 1.83 30.26 2.41 30.74 4.24 32.38 7.14 32.38 8.87 30.74 10.03 29.68 11.86 29.68 13.02 30.74 14.85 32.38 17.75 32.38 19.48 30.74 20.64 29.68 22.57 29.68 23.63 30.74 24.5 31.51 25.66 31.99 26.91 31.99 28.07 31.99 29.22 31.51 30 30.74 30.48 30.26 31.16 29.97 31.93 29.97L32.03 29.97 32.03 28.24 31.93 28.24C30.68 28.24 29.62 28.72 28.75 29.49Z" class="e MsftOfcResponsive_Fill_7823dc" fill="#7823DC"/><path d="M31.93 23.76C30.77 23.76 29.62 24.24 28.75 25.01 28.39 25.37 27.94 25.56 27.48 25.66 27.48 25.66 27.48 25.64 27.49 25.63 27.59 25.15 27.59 24.67 27.59 24.19 27.59 23.76 27.56 23.34 27.51 22.93L29.31 22.79 29.15 20.79 27.11 20.95C26.97 20.48 26.78 20.02 26.58 19.57L28.42 18.39 27.34 16.7 25.59 17.82C25.2 17.26 24.77 16.74 24.29 16.27L25.62 14.87 24.16 13.49 22.75 14.98C22.27 14.65 21.76 14.36 21.23 14.11L21.88 12.3 19.99 11.62 19.35 13.41C18.75 13.25 18.14 13.13 17.5 13.07L17.5 11.19 15.5 11.19 15.5 13.07C14.87 13.13 14.25 13.24 13.65 13.4L13.01 11.62 11.12 12.3 11.77 14.09C11.22 14.35 10.69 14.65 10.19 14.99L8.85 13.5 7.36 14.84 8.64 16.27C8.17 16.74 7.74 17.26 7.36 17.81L5.66 16.7 4.56 18.38 6.37 19.56C6.16 20.03 5.98 20.51 5.84 21.01L3.88 20.78 3.64 22.77 5.45 22.99C5.41 23.35 5.39 23.72 5.39 24.09 5.39 24.57 5.39 25.15 5.49 25.63 5.49 25.65 5.49 25.67 5.49 25.68 5.46 25.68 5.42 25.68 5.39 25.68 4.71 25.68 4.04 25.39 3.56 24.91 2.69 24.04 1.53 23.66 0.28 23.66L0 23.66 0 25.39 0.29 25.39C1.06 25.39 1.74 25.68 2.32 26.16 3.28 27.03 4.44 27.41 5.7 27.41 6.38 27.41 6.95 27.22 7.63 26.93 8.02 26.74 8.4 26.45 8.79 26.16 9.56 25.49 10.53 25.2 11.49 25.39 12.07 25.49 12.55 25.68 12.94 26.16 13.18 26.39 13.45 26.58 13.73 26.74 15.47 27.82 17.89 27.64 19.49 26.21 19.62 26.08 19.78 25.96 19.95 25.85 20.05 25.79 20.14 25.73 20.25 25.68 20.29 25.66 20.32 25.64 20.36 25.63 20.65 25.5 20.95 25.42 21.26 25.41 22.12 25.32 22.98 25.61 23.55 26.18 24.03 26.57 24.51 26.85 25 27.05 25.58 27.24 26.16 27.44 26.74 27.44L26.84 27.44C28 27.44 28.96 26.96 29.73 26.19 30.21 25.71 30.89 25.42 31.76 25.42L32.05 25.42 32.05 23.78 31.95 23.78ZM19.49 24.05C19.01 24.24 18.53 24.53 18.14 24.92 17.08 25.98 15.15 25.98 14.09 24.92 13.87 24.78 13.7 24.63 13.51 24.49L13.51 24.3C13.51 22.57 14.96 21.22 16.6 21.22 18.24 21.22 19.55 22.45 19.66 23.99 19.6 24.01 19.54 24.03 19.49 24.06ZM16.5 14.86C21.52 14.86 25.66 18.9 25.66 24.01 25.66 24.49 25.66 24.88 25.56 25.26L25.56 25.54C25.56 25.54 25.49 25.52 25.46 25.5 25.17 25.4 24.88 25.21 24.59 24.92 23.75 24.17 22.63 23.79 21.5 23.68L21.5 23.62C21.31 21.02 19.09 19.1 16.48 19.1 13.87 19.1 11.66 21.12 11.46 23.72L11.46 23.78C11.46 23.78 11.4 23.78 11.36 23.78 10.01 23.68 8.66 24.07 7.69 24.94 7.62 25.01 7.53 25.08 7.42 25.15 7.41 25.13 7.41 25.11 7.4 25.08 7.4 24.79 7.3 24.41 7.3 24.02 7.3 19.01 11.35 14.87 16.46 14.87Z" class="e MsftOfcResponsive_Fill_7823dc" fill="#7823DC"/></g></g></svg>