<svg viewBox="0 0 32 32" xmlns="http://www.w3.org/2000/svg" xmlns:xlink="http://www.w3.org/1999/xlink" id="Layer_1" overflow="hidden"><style>
.MsftOfcResponsive_Fill_7823dc {
 fill:#7823DC; 
}
</style>
<defs></defs><path d="M7.66 7.2 6.57 5.52C8.31 4.39 10.49 3.77 12.71 3.77 14.93 3.77 17.11 4.39 18.85 5.52L17.76 7.2C16.34 6.28 14.55 5.77 12.71 5.77 10.87 5.77 9.08 6.28 7.66 7.2Z" class="MsftOfcResponsive_Fill_7823dc" stroke-width="0" fill="#7823DC"/><path d="M20.87 4.32C18.57 2.83 15.68 2 12.71 2 9.74 2 6.84 2.82 4.55 4.32L3.46 2.64C6.07 0.94 9.36 0 12.71 0 16.06 0 19.35 0.94 21.96 2.64L20.87 4.32Z" class="MsftOfcResponsive_Fill_7823dc" stroke-width="0" fill="#7823DC"/><path d="M15.42 10.3C13.9 9.31 11.5 9.31 9.99 10.3L8.9 8.62C11.06 7.21 14.35 7.21 16.52 8.62L15.43 10.3Z" class="MsftOfcResponsive_Fill_7823dc" stroke-width="0" fill="#7823DC"/><path d="M16.89 18.44 8.52 18.44 9.61 12 15.8 12 16.89 18.44ZM10.89 16.44 14.52 16.44 14.11 14 11.3 14 10.89 16.44Z" class="MsftOfcResponsive_Fill_7823dc" stroke-width="0" fill="#7823DC"/><path d="M15.81 32 9.61 32 8.53 25.44 16.89 25.44 15.81 32ZM11.31 30 14.11 30 14.53 27.44 10.89 27.44 11.31 30Z" class="MsftOfcResponsive_Fill_7823dc" stroke-width="0" fill="#7823DC"/><path d="M15.71 27.44 9.71 27.44C8.71 27.44 7.21 26.77 7.21 24.94L7.21 18.94C7.21 17.94 7.88 16.44 9.71 16.44L15.71 16.44C16.71 16.44 18.21 17.11 18.21 18.94L18.21 24.94C18.21 25.94 17.54 27.44 15.71 27.44ZM15.69 18.44 9.71 18.44C9.54 18.44 9.23 18.44 9.21 18.96L9.21 24.94C9.21 25.11 9.21 25.42 9.73 25.44L15.71 25.44C15.88 25.44 16.19 25.44 16.21 24.92L16.21 18.94C16.21 18.77 16.21 18.46 15.69 18.44Z" class="MsftOfcResponsive_Fill_7823dc" stroke-width="0" fill="#7823DC"/><rect x="0" y="13.47" width="10" height="2" class="MsftOfcResponsive_Fill_7823dc" stroke-width="0" fill="#7823DC"/><rect x="0" y="28.49" width="10.2" height="2" class="MsftOfcResponsive_Fill_7823dc" stroke-width="0" fill="#7823DC"/><rect x="28" y="24" width="2" height="6" class="MsftOfcResponsive_Fill_7823dc" stroke-width="0" fill="#7823DC" transform="matrix(0.00122173 -0.999999 0.999999 0.00122173 1.97 55.97)"/><path d="M19.22 15.47 15 15.47 15 13.47 18.58 13.47 20.32 12.22C21.45 11.41 22.72 10.98 24.01 10.98L32 10.98 32 12.98 24.01 12.98C23.14 12.98 22.29 13.27 21.49 13.84L19.23 15.47Z" class="MsftOfcResponsive_Fill_7823dc" stroke-width="0" fill="#7823DC"/><path d="M25.95 31.94 25.84 31.94C24.47 31.94 23.1 31.7 21.87 31.25L19.7 30.44 15.33 30.44 15.33 28.44 20.06 28.44 22.57 29.37C23.58 29.74 24.71 29.94 25.84 29.94L25.95 29.94C26.8 29.94 27.63 29.69 28.21 29.26 28.71 28.89 28.99 28.42 28.99 27.94L30.99 27.94C30.99 29.05 30.41 30.12 29.4 30.86 28.46 31.55 27.24 31.94 25.94 31.94Z" class="MsftOfcResponsive_Fill_7823dc" stroke-width="0" fill="#7823DC"/></svg>