<svg viewBox="0 0 32 32" xmlns="http://www.w3.org/2000/svg" xmlns:xlink="http://www.w3.org/1999/xlink" id="Layer_2_1_" overflow="hidden"><path d="M22.1 22.2C19.4 22.2 17.2 24.4 17.2 27.1 17.2 27.4 17.2 27.7 17.3 28 17.7 30.3 19.7 32 22.1 32 24.5 32 26.5 30.3 26.9 28 27 27.7 27 27.4 27 27.1 27 24.4 24.8 22.2 22.1 22.2ZM22.1 30C20.8 30 19.7 29.2 19.3 28 19.2 27.7 19.2 27.4 19.2 27.1 19.2 25.5 20.5 24.2 22.1 24.2 23.7 24.2 25 25.5 25 27.1 25 27.4 25 27.7 24.9 28 24.5 29.2 23.4 30 22.1 30Z" fill="#7823DC"/><path d="M9.7 22.2C7 22.2 4.8 24.4 4.8 27.1 4.8 27.4 4.8 27.7 4.9 28 5.3 30.3 7.3 32 9.7 32 12.1 32 14.1 30.3 14.5 28 14.6 27.7 14.6 27.4 14.6 27.1 14.6 24.4 12.4 22.2 9.7 22.2ZM9.7 30C8.4 30 7.3 29.2 6.9 28 6.8 27.7 6.8 27.4 6.8 27.1 6.8 25.5 8.1 24.2 9.7 24.2 11.3 24.2 12.6 25.5 12.6 27.1 12.6 27.4 12.6 27.7 12.5 28 12.1 29.2 11 30 9.7 30Z" fill="#7823DC"/><g><path d="M29.6 14 27.4 26 26.9 26C26.4 23.8 24.4 22.2 22.1 22.2 19.8 22.2 17.8 23.8 17.3 26L14.5 26C14 23.8 12 22.2 9.7 22.2 7.4 22.2 5.4 23.8 4.9 26L4.7 26 2.4 14 29.6 14M32 12 0 12 3 28 7 28C6.9 27.7 6.9 27.4 6.9 27.1 6.9 25.5 8.2 24.2 9.8 24.2 11.4 24.2 12.7 25.5 12.7 27.1 12.7 27.4 12.7 27.7 12.6 28L19.5 28C19.4 27.7 19.4 27.4 19.4 27.1 19.4 25.5 20.7 24.2 22.3 24.2 23.9 24.2 25.2 25.5 25.2 27.1 25.2 27.4 25.2 27.7 25.1 28L29 28 32 12 32 12Z" fill="#7823DC"/></g><g><path d="M16.1 7.2C18.2 7.2 19.9 7.7 20.7 8.4L20.8 8.6 21.1 8.6C23.2 8.6 24.9 9.1 25.7 9.8L25.9 10.2 26.7 10.2C29 10.4 30.7 11.2 30.7 12.1 30.7 13.2 28.5 14 25.7 14 23.6 14 21.9 13.5 21.1 12.8L20.9 12.4 20.7 12.4 20.5 12.8C19.8 13.5 18 14 15.9 14 13.8 14 12.1 13.5 11.3 12.8L11.1 12.5 10.9 12.8C10.1 13.5 8.4 14 6.3 14 3.5 14 1.3 13.1 1.3 12.1 1.3 11.1 3.5 10.2 6.3 10.2L6.7 10.2 6.9 9.8C7.5 9.2 8.9 8.8 10.5 8.7L11.4 8.7 11.5 8.5C12.2 7.7 14 7.2 16.1 7.2L16.1 7.2Z" fill="#7823DC" fill-rule="evenodd" clip-rule="evenodd"/></g></svg>