<svg viewBox="0 0 32 32" xmlns="http://www.w3.org/2000/svg" xmlns:xlink="http://www.w3.org/1999/xlink" xml:space="preserve" overflow="hidden"><style>
.MsftOfcResponsive_Fill_7823dc {
 fill:#7823DC; 
}
</style>
<g id="Layer_3"></g><g id="Layer_1"></g><g id="Layer_2"><path d="M32 17 20.57 17 20.57 16C20.57 15.79 20.56 15.57 20.53 15.35 20.33 13.95 19.51 12.75 18.28 12.04L17.41 11.54 23.12 1.64 24 2.14C28.29 4.62 31.16 8.85 31.86 13.73 31.95 14.41 32 15.13 32 16L32 17ZM22.5 15 29.97 15C29.95 14.65 29.92 14.32 29.87 14.01 29.3 10.07 27.13 6.61 23.84 4.4L20.11 10.87C21.4 11.9 22.25 13.35 22.5 15Z" class="st1 MsftOfcResponsive_Fill_7823dc" fill="#7823DC"/><path d="M11.43 17 0 17 0 16C-0.01 10.3 3.06 4.99 8 2.13L8.87 1.63 14.59 11.54 13.72 12.04C12.31 12.85 11.43 14.37 11.43 16L11.43 17ZM2.03 15 9.5 15C9.75 13.38 10.6 11.9 11.88 10.87L8.15 4.4C4.6 6.8 2.34 10.73 2.03 15Z" class="st1 MsftOfcResponsive_Fill_7823dc" fill="#7823DC"/><path d="M15.98 32C13.18 32 10.42 31.26 8 29.86L7.13 29.36 12.84 19.45 13.71 19.95C14.4 20.35 15.19 20.56 15.99 20.56 16.18 20.52 16.43 20.55 16.65 20.52 17.22 20.44 17.77 20.25 18.28 19.95L19.15 19.45 24.87 29.36 24 29.87C22.22 30.9 20.29 31.57 18.27 31.86 17.59 31.96 16.83 32.02 15.98 32ZM9.88 28.6C11.77 29.52 13.86 30 15.98 30 15.99 30 15.99 30 16 30 16.77 30 17.4 29.96 17.99 29.88 19.43 29.67 20.81 29.25 22.12 28.61L18.38 22.13C17.91 22.31 17.43 22.44 16.93 22.51 16.61 22.55 16.28 22.57 15.99 22.57 15.18 22.57 14.37 22.42 13.62 22.13L9.88 28.6Z" class="st1 MsftOfcResponsive_Fill_7823dc" fill="#7823DC"/><path d="M16 19.18C15.45 19.18 14.9 19.03 14.42 18.75 13.44 18.18 12.82 17.13 12.82 16 12.82 14.88 13.43 13.82 14.41 13.25 15.41 12.67 16.59 12.67 17.58 13.25L17.58 13.25C18.56 13.82 19.17 14.87 19.17 16 19.17 17.13 18.56 18.18 17.57 18.75 17.1 19.03 16.55 19.18 16 19.18ZM16 14.82C15.8 14.82 15.61 14.88 15.42 14.99 15.05 15.21 14.82 15.59 14.82 16.01 14.82 16.43 15.04 16.81 15.42 17.03 15.8 17.25 16.21 17.25 16.59 17.03 16.97 16.81 17.19 16.43 17.19 16.01 17.19 15.59 16.97 15.21 16.59 14.99L16.59 14.99C16.4 14.87 16.2 14.82 16 14.82Z" class="st1 MsftOfcResponsive_Fill_7823dc" fill="#7823DC"/></g></svg>