<svg viewBox="0 0 32 32" xmlns="http://www.w3.org/2000/svg" xmlns:xlink="http://www.w3.org/1999/xlink" xml:space="preserve" overflow="hidden"><style>
.MsftOfcResponsive_Fill_7823dc {
 fill:#7823DC; 
}
</style>
<g id="Layer_3"></g><g id="Layer_1"><path d="M24.74-21.03 47.62-43.84 70.48-21.01 47.6 1.81 24.74-21.03Z" class="st3 MsftOfcResponsive_Fill_7823dc" fill="#7823DC"/><path d="M23.73-20.6 46.59-43.42 69.46-20.6 46.59 2.22 23.73-20.6Z" class="st3 MsftOfcResponsive_Fill_7823dc" fill="#7823DC"/><path d="M28.55-7.29 40.79-37.55 70.45-25.06 58.21 5.2 28.55-7.29Z" class="st3 MsftOfcResponsive_Fill_7823dc" fill="#7823DC"/></g><g id="Layer_2"><g><rect x="15.38" y="26.25" width="1.95" height="1.86" class="st0 MsftOfcResponsive_Fill_7823dc" fill="#7823DC"/><rect x="15.38" y="30.06" width="1.95" height="1.95" class="st0 MsftOfcResponsive_Fill_7823dc" fill="#7823DC"/><path d="M13.94 21.34 13.94 18.3 13.51 17.2 13.26 16.52 3.04 20.75 2.83 20.75 2.83 32.01 4.78 32.01 4.78 22.09 12.07 19.07 12.07 22.19 14.78 24.9 16.14 23.54Z" class="st0 MsftOfcResponsive_Fill_7823dc" fill="#7823DC"/><path d="M31.61 18.58C30.53 14.57 26.74 13.66 26.49 13.6 26.08 13.54 24.04 13.09 24.3 10.12 24.59 6.83 23.84 4.28 22.06 2.54 19.22-0.24 14.86 0.19 14.62 0.22L14.62 0.22C10.42 0.49 7.06 4 7.06 8.26 7.06 12.6 10.54 16.16 14.85 16.31 14.85 15.63 14.85 15.01 14.85 14.29 11.65 14.13 9.08 11.48 9.08 8.25 9.08 6.43 9.89 4.8 11.17 3.69 11.11 4.45 11.17 5.32 11.53 6.18 12.04 7.4 13.02 8.31 14.43 8.87L14.59 8.92C14.91 8.99 17.66 9.72 16.98 13.05 16.91 13.39 16.86 13.73 16.82 14.05 16.29 14.21 15.73 14.31 15.15 14.31 15.05 14.31 14.95 14.3 14.85 14.29 14.85 15.01 14.85 15.63 14.85 16.31 14.95 16.31 15.05 16.33 15.15 16.33 15.72 16.33 16.27 16.26 16.8 16.14 17.06 18.74 18.36 20.32 19.09 21.02L16.56 23.55 17.92 24.9 20.57 22.26C21.64 23.29 23.13 25.2 22.55 27.5 22.21 28.88 22.36 30.01 23.01 30.84 23.91 31.99 25.35 32.03 25.51 32.03 25.51 32.03 25.52 32.03 25.52 32.03 28.32 32.03 30.07 28.59 30.28 28.16 32.06 24.05 32.13 20.52 31.61 18.58ZM28.47 27.32C28.13 28.02 26.85 30.03 25.53 30.03 25.53 30.03 25.53 30.03 25.52 30.03 25.51 30.03 24.87 30 24.57 29.6 24.27 29.2 24.35 28.5 24.48 27.98 25.68 23.16 20.89 19.91 20.71 19.79 20.6 19.71 18.04 17.8 18.92 13.45 19.78 9.25 16.84 7.4 15.08 6.99 14.21 6.63 13.65 6.12 13.36 5.43 12.83 4.17 13.35 2.69 13.44 2.47 13.85 2.34 14.44 2.2 14.82 2.2L14.82 2.2C14.91 2.19 18.5 1.87 20.66 4 21.98 5.3 22.53 7.31 22.3 9.97 21.95 13.93 24.63 15.37 26.15 15.6 26.5 15.69 28.94 16.44 29.66 19.13 30.09 20.64 30.02 23.73 28.47 27.32Z" class="st0 MsftOfcResponsive_Fill_7823dc" fill="#7823DC"/></g></g></svg>