<svg viewBox="0 0 32 32" xmlns="http://www.w3.org/2000/svg" xmlns:xlink="http://www.w3.org/1999/xlink" overflow="hidden"><defs></defs><g id="Layer_3"><path d="M8.00873 27.9954 8.00873 30.0047 1.99533 30.0047 1.99533 27.9954 8.00873 27.9954M10.0041 26 0 26 0 32 10.0041 32 10.0041 26Z" fill="#7823DC"/><path d="M16.0047 27.9867 16.0047 29.996 9.99128 29.996 9.99128 27.9867 16.0047 27.9867M18 25.9914 7.996 25.9914 7.996 31.9914 18 31.9914 18 25.9914Z" fill="#7823DC"/><path d="M10.6134 23.9867 10.6134 25.996 4.6 25.996 4.6 23.9867 10.6134 23.9867M12.6087 21.9914 2.60464 21.9914 2.60464 27.9914 12.6087 27.9914 12.6087 21.9914Z" fill="#7823DC"/><path d="M32.005 10.001 30.009 10.001 30.009 4.999 24.741 4.999 24.741 2.018 16.669 2.018 16.669 0.022 26.737 0.022 26.737 3.003 32.005 3.003 32.005 10.001Z" fill="#7823DC"/><rect x="-6.33463" y="12.5356" width="30.9076" height="1.99546" fill="#7823DC" transform="matrix(0.538331 -0.842733 0.842733 0.538331 -7.19498 13.9329)"/><rect x="5.03423" y="10.5558" width="26.0702" height="1.99606" fill="#7823DC" transform="matrix(0.537192 -0.84346 0.84346 0.537192 -1.38258 20.588)"/><rect x="6.47751" y="14.0441" width="26.0723" height="1.99606" fill="#7823DC" transform="matrix(0.537192 -0.84346 0.84346 0.537192 -3.65636 23.4206)"/><rect x="10.4078" y="14.6022" width="26.072" height="1.99606" fill="#7823DC" transform="matrix(0.537192 -0.84346 0.84346 0.537192 -2.30818 26.9939)"/><rect x="11.1234" y="19.4508" width="26.0715" height="1.99606" fill="#7823DC" transform="matrix(0.537192 -0.84346 0.84346 0.537192 -6.06675 29.8412)"/><path d="M1.007 26.031 2.594 24.305 3.431 26.188 2.419 27.026 1.007 26.031Z" fill="#7823DC"/></g></svg>