<svg viewBox="0 0 32 32" xmlns="http://www.w3.org/2000/svg" xmlns:xlink="http://www.w3.org/1999/xlink" id="Layer_1" overflow="hidden"><g><path d="" fill="#7823DC"/></g><path d="" stroke="#FF0000" stroke-width="2" stroke-miterlimit="10" fill="#7823DC"/><path d="M29.5 13.8C29.4 6.1 23.4 0 16 0 8.6 0 2.6 6.1 2.5 13.8 2.5 13.9 2.5 14 2.5 14 2.5 14.4 2.5 14.8 2.5 15.2L4 15.2 4 20.4C4.5 21.5 5.2 22.5 6 23.4L6 19.9C5 18.1 4.5 16.1 4.5 14L4.5 13.8C4.6 7.2 9.7 2 16 2 22.3 2 27.4 7.2 27.5 13.8L27.5 14C27.5 16.1 27 18.1 26.1 19.8L26.1 23.3C26.9 22.4 27.6 21.4 28.1 20.3L28.1 15.1 29.5 15.1C29.5 14.7 29.5 14.3 29.5 13.9 29.5 13.9 29.5 13.8 29.5 13.8Z" fill="#7823DC"/><path d="M4 16 4 22.2 2 22.2 2 16 4 16M6 14 2 14C0.9 14 0 14.9 0 16L0 22.2C0 23.3 0.9 24.2 2 24.2L6 24.2 6 14 6 14Z" fill="#7823DC"/><path d="M30 16 30 22.2 28 22.2 28 16 30 16M30 14 26 14 26 24.2 30 24.2C31.1 24.2 32 23.3 32 22.2L32 16C32 14.9 31.1 14 30 14L30 14Z" fill="#7823DC"/><path d="M20 29 20 30 15.5 30 15.5 29 20 29M20.3 27 15.1 27C14.2 27 13.4 27.7 13.4 28.7L13.4 30.4C13.4 31.3 14.1 32.1 15.1 32.1L20.3 32.1C21.2 32.1 22 31.4 22 30.4L22 28.7C22 27.7 21.3 27 20.3 27L20.3 27Z" fill="#7823DC"/><rect x="21" y="28.5" width="7" height="2" fill="#7823DC"/><rect x="27.5" y="23" width="2" height="7.5" fill="#7823DC"/><g><path d="M13.8 24.3 11.4 19.6 8.5 19.6 8.5 8.5 23.5 8.5 23.5 19.6 17.5 19.6 13.8 24.3ZM10.5 17.6 12.6 17.6 14.2 20.6 16.5 17.6 21.5 17.6 21.5 10.5 10.5 10.5 10.5 17.6Z" fill="#7823DC"/><g><circle cx="13" cy="14.2" r="1" fill="#7823DC"/><circle cx="16" cy="14.2" r="1" fill="#7823DC"/><circle cx="19" cy="14.2" r="1" fill="#7823DC"/></g></g></svg>