<svg viewBox="0 0 32 32" xmlns="http://www.w3.org/2000/svg" xmlns:xlink="http://www.w3.org/1999/xlink" id="Layer_1" overflow="hidden"><style>
.MsftOfcResponsive_Fill_7823dc {
 fill:#7823DC; 
}
</style>
<path d="M30.4 0 28.4 2 30 2 30 3.3 32 1.3 32 0 30.4 0ZM18 12.5 16 14.5 16 15 18.3 15 20.3 13 18 13 18 12.5Z" class="MsftOfcResponsive_Fill_7823dc" fill="#7823DC"/><path d="M32 12.3 32 15.2 16 32 16 32 13.2 32 16 29.1 29.4 15Z" class="MsftOfcResponsive_Fill_7823dc" fill="#7823DC"/><path d="M18.7 0 16 2.9 2.7 17 0 19.9 0 17 16 0Z" class="MsftOfcResponsive_Fill_7823dc" fill="#7823DC"/><path d="M32 0 32 1.3 30 3.3 20.3 13 18.3 15 14 19.3 14 19 11.5 19 13.5 17 16 14.5 18 12.5 28.4 2 30.4 0Z" class="MsftOfcResponsive_Fill_7823dc" fill="#7823DC"/><path d="M20.1 15.8 20.1 22.5 18.3 24.4 18.1 24.4 18.1 17.9Z" class="MsftOfcResponsive_Fill_7823dc" fill="#7823DC"/><path d="M24.1 11.6 24.1 18.3 22.1 20.4 22.1 13.7Z" class="MsftOfcResponsive_Fill_7823dc" fill="#7823DC"/><path d="M28.1 7.5 28.1 14.1 26.1 16.2 26.1 9.5 28 7.5Z" class="MsftOfcResponsive_Fill_7823dc" fill="#7823DC"/><path d="M0 17 0 32 16 32 16 17 0 17ZM14 30 2 30 2 19 14 19 14 30Z" class="MsftOfcResponsive_Fill_7823dc" fill="#7823DC"/><rect x="7" y="18" width="2" height="13" class="MsftOfcResponsive_Fill_7823dc" fill="#7823DC"/><rect x="5" y="24" width="6" height="2" class="MsftOfcResponsive_Fill_7823dc" fill="#7823DC"/><path d="M32 15 30 15 30 2 16 2 16 0 32 0Z" class="MsftOfcResponsive_Fill_7823dc" fill="#7823DC"/></svg>