<svg width="38.1" height="36.5" viewBox="0 0 38.1 36.5" xmlns="http://www.w3.org/2000/svg" xmlns:xlink="http://www.w3.org/1999/xlink" overflow="hidden"><defs></defs><g><g><defs><path d="M0 36.5 36.5 36.5 36.5 0 0 0 0 36.5Z" id="SVGID_1_" fill="#7823DC"/></defs><clipPath id="SVGID_2_"><use width="100%" height="100%" xlink:href="#SVGID_1_"></use></clipPath><g clip-path="url(#SVGID_2_)"><defs><path d="M0 36.5 36.5 36.5 36.5 0 0 0 0 36.5Z" id="SVGID_3_" fill="#7823DC"/></defs><clipPath id="SVGID_4_"><use width="100%" height="100%" xlink:href="#SVGID_3_"></use></clipPath><path d="M20.5 29 16 24.5 11.4 29 6.9 24.5 3.1 28.2 1.5 26.6 6.9 21.2 11.4 25.8 16 21.2 20.5 25.8 24.3 22 25.9 23.7Z" fill="#7823DC" clip-path="url(#SVGID_4_)"/><path d="M35.9 16 20.5 0.7 11.7 9.5 13.4 11.1 20.5 3.9 32.6 16 35.9 16 35.9 16Z" fill="#7823DC" clip-path="url(#SVGID_4_)"/><path d="M38.1 34.3 9.1 5.2 0.7 13.7 3.9 13.7 9.1 8.5 34.9 34.3 38.1 34.3 38.1 34.3Z" fill="#7823DC" clip-path="url(#SVGID_4_)"/></g></g></g></svg>