<svg viewBox="0 0 32 32" xmlns="http://www.w3.org/2000/svg" xmlns:xlink="http://www.w3.org/1999/xlink" id="Layer_1" overflow="hidden"><style>
.MsftOfcResponsive_Fill_7823dc {
 fill:#7823DC; 
}
</style>
<path d="M0 0 0 6 11 6 11 0 0 0ZM2 4 2 2 9 2 9 4 2 4Z" class="MsftOfcResponsive_Fill_7823dc" fill="#7823DC"/><path d="M0 8 0 14 11 14 11 8 0 8ZM9 12 2 12 2 10 9 10 9 12Z" class="MsftOfcResponsive_Fill_7823dc" fill="#7823DC"/><path d="M0 16 0 22 11 22 11 16 0 16ZM9 20 2 20 2 18 9 18 9 20Z" class="MsftOfcResponsive_Fill_7823dc" fill="#7823DC"/><path d="M0 24 0 30 11 30 11 24 0 24ZM2 28 2 26 9 26 9 28 2 28Z" class="MsftOfcResponsive_Fill_7823dc" fill="#7823DC"/><path d="M11 4 11 6 13 6 13 4 11 4ZM11 4 11 6 13 6 13 4 11 4ZM11 4 11 6 13 6 13 4 11 4ZM11 4 11 6 13 6 13 4 11 4ZM11 4 11 6 13 6 13 4 11 4ZM11 4 11 6 13 6 13 4 11 4ZM11 4 11 6 13 6 13 4 11 4ZM11 4 11 6 13 6 13 4 11 4ZM11 4 11 6 13 6 13 4 11 4ZM9 0 9 6 20 6 20 0 9 0ZM11 4 11 2 18 2 18 4 11 4ZM11 4 11 6 13 6 13 4 11 4ZM11 4 11 6 13 6 13 4 11 4ZM11 4 11 6 13 6 13 4 11 4ZM11 4 11 6 13 6 13 4 11 4ZM11 4 11 6 13 6 13 4 11 4ZM11 4 11 6 13 6 13 4 11 4ZM11 4 11 6 13 6 13 4 11 4ZM11 4 11 6 13 6 13 4 11 4Z" class="MsftOfcResponsive_Fill_7823dc" fill="#7823DC"/><path d="M0 4 0 6 4 6 4 8 0 8 0 10 6 10 6 4 0 4Z" class="MsftOfcResponsive_Fill_7823dc" fill="#7823DC"/><path d="M0 12 0 14 4 14 4 16 0 16 0 18 6 18 6 12 0 12Z" class="MsftOfcResponsive_Fill_7823dc" fill="#7823DC"/><path d="M13 4 13 10 24 10 24 4 13 4ZM22 8 15 8 15 6 22 6 22 8Z" class="MsftOfcResponsive_Fill_7823dc" fill="#7823DC"/><path d="M6 4 6 6 9 6 9 4 6 4ZM4 4 4 10 15 10 15 4 4 4ZM13 8 6 8 6 6 13 6 13 8Z" class="MsftOfcResponsive_Fill_7823dc" fill="#7823DC"/><path d="M0 20 0 22 4 22 4 24 0 24 0 26 6 26 6 20 0 20Z" class="MsftOfcResponsive_Fill_7823dc" fill="#7823DC"/><path d="" class="MsftOfcResponsive_Fill_7823dc" stroke="#7823DC" stroke-width="2" stroke-miterlimit="10" fill="#7823DC" fill-rule="evenodd" clip-rule="evenodd"/><path d="" class="MsftOfcResponsive_Fill_7823dc" stroke="#7823DC" stroke-width="2" stroke-miterlimit="10" fill="#7823DC" fill-rule="evenodd" clip-rule="evenodd"/><path d="M4 28 4 32 6 32 6 30 13 30 13 32 15 32 15 28 4 28Z" class="MsftOfcResponsive_Fill_7823dc" fill="#7823DC"/><path d="M0 28 0 30 4 30 4 32 6 32 6 28 0 28Z" class="MsftOfcResponsive_Fill_7823dc" fill="#7823DC"/><path d="M22 4 22 10 32 10 32 4 22 4ZM31 8 24 8 24 6 31 6 31 8Z" class="MsftOfcResponsive_Fill_7823dc" fill="#7823DC"/><path d="M17.9 0 17.9 6 28.9 6 28.9 0 17.9 0ZM19.9 4 19.9 2 26.9 2 26.9 4 19.9 4Z" class="MsftOfcResponsive_Fill_7823dc" fill="#7823DC"/><path d="M32 2 32 0 27 0 27 6 32 6 32 4 29 4 29 2 32 2Z" class="MsftOfcResponsive_Fill_7823dc" fill="#7823DC"/><path d="M29.3 12.8C27.5 13.3 26.2 13.1 25 12.7L24.8 12.6 21.9 12.6 21.6 12.6C20.7 12.9 19.9 13 19.1 13 18.4 13 17.8 12.9 17.3 12.8L14.6 12.1 14.6 13.4C14.6 13.7 14.6 21.6 15.2 24 16.2 27.8 18.8 29.8 22.8 31.7L23.2 31.9 23.6 31.7C27.6 29.8 30.3 27.8 31.2 24 32 21.7 32 14.3 32 13.4L32 12.1 29.3 12.8ZM29.4 23.6C28.7 26.5 26.6 28.1 23.3 29.8 20 28.1 17.9 26.6 17.2 23.6 16.9 22.2 16.7 17.9 16.7 14.8L16.9 14.9C17.6 15.1 18.3 15.1 19.2 15.1 20.1 15.1 21.1 15 22.1 14.7L24.6 14.7C25.5 15 26.4 15.1 27.5 15.1 28.2 15.1 29 15 29.8 14.8L30 14.8C30 17.9 29.8 22.2 29.4 23.6Z" class="MsftOfcResponsive_Fill_7823dc" fill="#7823DC"/><path d="M28.7 16.7 23.1 26.8 17.8 22.5 21 22.5 22.5 23.7 26.4 16.7Z" class="MsftOfcResponsive_Fill_7823dc" fill="#7823DC"/></svg>