<svg viewBox="0 0 32 32" xmlns="http://www.w3.org/2000/svg" xmlns:xlink="http://www.w3.org/1999/xlink" id="Layer_5" overflow="hidden"><defs></defs><path d="M21.8 11.66 22.24 9.71 20.75 9.37 20.75 7.19C20.75 6.24 21.1 5.33 21.74 4.62L25.91 0 16 0 16 1.91 14 1.91 14 0 4.09 0 8.26 4.63C8.79 5.22 9.11 5.97 9.21 6.75L7.96 6.47 7.52 8.42 9.26 8.82 9.26 10.07 7.97 9.78 7.53 11.73 9.27 12.13 9.27 13.38 7.98 13.09 7.54 15.04 9.28 15.44 9.28 16.69 7.99 16.4 7.55 18.35 9.29 18.75 9.29 20 8 19.71 7.56 21.66 9.3 22.06 9.3 25.25C9.3 25.73 9.47 26.2 9.82 26.65L15.05 32.11 20.33 26.58C20.63 26.2 20.8 25.73 20.8 25.25L20.8 24.67 21.85 24.91 22.29 22.96 20.8 22.62 20.8 21.37 21.85 21.61 22.29 19.66 20.8 19.32 20.8 18.07 21.85 18.31 22.29 16.36 20.8 16.02 20.8 14.77 21.85 15.01 22.29 13.06 20.8 12.72 20.8 11.47 21.85 11.71ZM9.75 3.29 8.59 2 12 2 12 3.91 18 3.91 18 2 21.41 2 20.25 3.29C19.28 4.36 18.75 5.75 18.75 7.2L18.75 8.92C18.75 8.92 11.25 7.21 11.25 7.21L11.25 7.19C11.25 5.74 10.72 4.35 9.75 3.28ZM18.78 25.21 15 29.16 11.25 25.2 11.25 22.46 18.78 24.17 18.78 25.21ZM18.77 22.11 11.24 20.4 11.24 19.15 18.76 20.86 18.76 22.11ZM18.77 18.81 11.25 17.1 11.25 15.85 18.77 17.56 18.77 18.81ZM18.76 15.51 11.25 13.8 11.25 12.55 18.76 14.26 18.76 15.51ZM18.76 12.22 11.25 10.51 11.25 9.26 18.76 10.97 18.76 12.22Z" stroke-width="0" fill="#7823DC"/></svg>