<svg width="32" height="32" viewBox="0 0 32 32" xmlns="http://www.w3.org/2000/svg" xmlns:xlink="http://www.w3.org/1999/xlink" overflow="visible"><defs></defs><path d="M22.6 2 23.9 4.2 22.6 6.4 20.1 6.4 18.8 4.2 20.1 2 22.6 2M23.8 0 19 0 16.6 4.2 19 8.4 23.8 8.4 26.2 4.2 23.8 0 23.8 0Z" fill="#7823DC"/><path d="M28.4 5.7 29.7 7.9 28.4 10 25.9 10 24.6 7.8 25.9 5.6 28.4 5.6M29.6 3.7 24.8 3.7 22.4 7.9 24.8 12.1 29.6 12.1 32 7.8 29.6 3.7 29.6 3.7Z" fill="#7823DC"/><path d="M26.4 19.9C26.8 19.9 27.2 20.3 27.2 20.7 27.2 21.1 26.8 21.5 26.4 21.5 26 21.5 25.6 21.1 25.6 20.7 25.6 20.3 25.9 19.9 26.4 19.9M26.4 17.9C24.9 17.9 23.6 19.1 23.6 20.7 23.6 22.3 24.8 23.5 26.4 23.5 28 23.5 29.2 22.3 29.2 20.7 29.2 19.1 27.9 17.9 26.4 17.9L26.4 17.9Z" fill="#7823DC"/><path d="M20.8 14.8C21.2 14.8 21.6 15.2 21.6 15.6 21.6 16 21.2 16.4 20.8 16.4 20.4 16.4 20 16 20 15.6 20 15.2 20.4 14.8 20.8 14.8M20.8 12.8C19.3 12.8 18 14 18 15.6 18 17.1 19.2 18.4 20.8 18.4 22.4 18.4 23.6 17.2 23.6 15.6 23.6 14 22.3 12.8 20.8 12.8L20.8 12.8Z" fill="#7823DC"/><path d="M11.5 2C11.9 2 12.3 2.4 12.3 2.8 12.3 3.2 11.9 3.6 11.5 3.6 11.1 3.6 10.7 3.2 10.7 2.8 10.7 2.4 11 2 11.5 2M11.5 0C9.9 0 8.7 1.2 8.7 2.8 8.7 4.4 9.9 5.6 11.5 5.6 13.1 5.6 14.3 4.4 14.3 2.8 14.3 1.2 13 0 11.5 0L11.5 0Z" fill="#7823DC"/><rect x="21.4" y="11.8" width="4.4" height="2" fill="#7823DC" transform="matrix(0.7071 -0.7071 0.7071 0.7071 -2.1106 20.4596)"/><rect x="14.3" y="1.5" width="2" height="4.3" fill="#7823DC" transform="matrix(0.226 -0.9741 0.9741 0.226 8.2832 17.7998)"/><rect x="22.6" y="16.1" width="2" height="3.5" fill="#7823DC" transform="matrix(0.6926 -0.7213 0.7213 0.6926 -5.595 22.4882)"/><path d="M13.6 12.4 13.6 16.3 13.6 16.7 13.8 17.1 19.6 29.4 19.6 29.5 19.6 29.6C19.6 29.6 19.7 29.7 19.6 29.8 19.7 30 19.6 30 19.5 30L2.3 30C2.2 30 2.1 30 2 29.9 1.9 29.8 2 29.7 2 29.7L2 29.6 2 29.5 8 17.3 8.2 16.9 8.2 16.4 8.2 12.4 13.6 12.4M15.6 10.4 6.2 10.4 6.2 16.4 0.3 28.7C-0.6 30.2 0.5 32 2.3 32L19.5 32C21.2 32 22.3 30.1 21.5 28.7L15.7 16.4 15.7 10.4 15.6 10.4Z" fill="#7823DC"/><rect x="3.4" y="22.2" width="15" height="2" fill="#7823DC"/><path d="M14.4 9.2 14.4 9.8 7.3 9.8 7.3 9.2 14.4 9.2M16.5 7.2 5.3 7.2 5.3 11.9 16.5 11.9 16.5 7.2 16.5 7.2Z" fill="#7823DC"/></svg>