<svg viewBox="0 0 31.96 31.94" xmlns="http://www.w3.org/2000/svg" xmlns:xlink="http://www.w3.org/1999/xlink" id="Outline_Final_icon" overflow="hidden"><defs></defs><path d="M31.96 21.4 31.96 14.88 27.01 14.88 27.01 16.88 29.96 16.88 29.96 19.4 26.01 19.4 25.07 22.46 27.25 24.96 24.25 27.36 21.56 24.98 17.7 25.81 17.7 29.94 13.83 29.94 13.83 25.83 10.25 24.97 7.45 27.32 5.09 25.05 7.58 22.39 6.01 19.4 2 19.4 2 16.88 5.41 16.88 5.41 14.88 0 14.88 0 21.4 4.8 21.4 5.15 22.06 2.28 25.13 7.37 30.01 10.76 27.15 11.83 27.41 11.83 31.94 19.7 31.94 19.7 27.43 20.99 27.15 24.19 29.98 30.13 25.22 27.31 21.98 27.49 21.4 31.96 21.4Z" fill="#7823DC"/><path d="M27.46 10.89 18.67 13.79C18.05 13.02 17.1 12.51 16.03 12.51 14.15 12.51 12.62 14.04 12.62 15.92 12.62 17.8 14.15 19.33 16.03 19.33 17.91 19.33 19.44 17.8 19.44 15.92 19.44 15.84 19.42 15.76 19.42 15.68L28.17 12.79 27.47 10.88ZM16.03 17.33C15.25 17.33 14.62 16.7 14.62 15.92 14.62 15.14 15.25 14.51 16.03 14.51 16.81 14.51 17.44 15.14 17.44 15.92 17.44 16.7 16.81 17.33 16.03 17.33Z" fill="#7823DC"/><path d="M16.05 2C22.65 2 28.26 6.72 29.47 13.11L31.5 13.11C30.26 5.59 23.74 0 16.05 0 8.36 0 1.83 5.57 0.6 13.11L2.62 13.11C3.82 6.7 9.38 2 16.05 2Z" fill="#7823DC"/><path d="M4.13 13.11 6.18 13.11C6.31 12.59 6.48 12.08 6.69 11.6L4.92 10.61C4.57 11.4 4.3 12.24 4.13 13.11Z" fill="#7823DC"/><path d="M9.83 7.51 8.59 5.93C7.53 6.74 6.61 7.73 5.87 8.86L7.64 9.84C8.24 8.94 8.98 8.15 9.83 7.51Z" fill="#7823DC"/><path d="M16.91 5.43 17.12 3.44C16.77 3.41 16.41 3.39 16.05 3.39 13.96 3.39 11.99 3.91 10.27 4.83L11.54 6.44C12.9 5.76 14.43 5.39 16.05 5.39 16.34 5.39 16.62 5.39 16.91 5.43Z" fill="#7823DC"/><path d="M26.76 9.79C25.17 6.83 22.39 4.63 19.1 3.78L18.89 5.8C21.44 6.54 23.59 8.26 24.88 10.55L26.76 9.79Z" fill="#7823DC"/></svg>