<svg viewBox="0 0 32 32" xmlns="http://www.w3.org/2000/svg" xmlns:xlink="http://www.w3.org/1999/xlink" xml:space="preserve" overflow="hidden"><style>
.MsftOfcResponsive_Fill_7823dc {
 fill:#7823DC; 
}
</style>
<g id="Layer_3"></g><g id="Layer_1"><g><path d="M16 29.08C8.11 29.08 0.13 27.02 0.13 23.08 0.13 19.14 8.11 17.08 16 17.08 23.89 17.08 31.87 19.14 31.87 23.08 31.87 27.02 23.89 29.08 16 29.08ZM16 19.08C7.53 19.08 2.13 21.45 2.13 23.08 2.13 24.71 7.53 27.08 16 27.08 24.47 27.08 29.87 24.71 29.87 23.08 29.87 21.45 24.47 19.08 16 19.08Z" class="st1 MsftOfcResponsive_Fill_7823dc" fill="#7823DC"/><g><defs><path d="M0 29.21 32 29.21 32 2.56 0 2.56 0 29.21Z" id="SVGID_00000173866328692963850650000016850019671578599830_" class="MsftOfcResponsive_Fill_7823dc" fill="#7823DC"/></defs><clipPath id="SVGID_00000096762813160080393410000008549947931148289932_"><use width="100%" height="100%" xlink:href="#SVGID_00000173866328692963850650000016850019671578599830_" overflow="visible"></use></clipPath><path d="M16.06 26.1C12.51 26.1 8.93 25.15 8.93 23.02 8.93 20.89 12.51 19.94 16.06 19.94 19.61 19.94 23.19 20.89 23.19 23.02 23.19 25.15 19.61 26.1 16.06 26.1ZM11 23.02C11.42 23.4 13.13 24.1 16.06 24.1 18.99 24.1 20.71 23.4 21.12 23.02 20.7 22.64 18.99 21.94 16.06 21.94 13.13 21.94 11.41 22.64 11 23.02Z" class="MsftOfcResponsive_Fill_7823dc" fill="#7823DC" clip-path="url(#SVGID_00000096762813160080393410000008549947931148289932_)"/><g clip-path="url(#SVGID_00000096762813160080393410000008549947931148289932_)"><defs><path d="M0 29.21 32 29.21 32 2.56 0 2.56 0 29.21Z" id="SVGID_00000072247903001099170340000008948599582057164219_" class="MsftOfcResponsive_Fill_7823dc" fill="#7823DC"/></defs><clipPath id="SVGID_00000039836307748128567750000007239779052464096959_"><use width="100%" height="100%" xlink:href="#SVGID_00000072247903001099170340000008948599582057164219_" overflow="visible"></use></clipPath><path d="M16 14.68C8.11 14.68 0.13 12.62 0.13 8.68 0.13 4.74 8.11 2.68 16 2.68 23.89 2.68 31.87 4.74 31.87 8.68 31.87 12.62 23.89 14.68 16 14.68ZM16 4.69C7.53 4.69 2.13 7.06 2.13 8.69 2.13 10.32 7.53 12.69 16 12.69 24.47 12.69 29.87 10.32 29.87 8.69 29.87 7.06 24.47 4.69 16 4.69Z" class="MsftOfcResponsive_Fill_7823dc" fill="#7823DC" clip-path="url(#SVGID_00000039836307748128567750000007239779052464096959_)"/><g clip-path="url(#SVGID_00000039836307748128567750000007239779052464096959_)"><defs><path d="M0 29.21 32 29.21 32 2.56 0 2.56 0 29.21Z" id="SVGID_00000108293453920030809230000002226106766583897768_" class="MsftOfcResponsive_Fill_7823dc" fill="#7823DC"/></defs><clipPath id="SVGID_00000078011462827169250400000003342671516273544071_"><use width="100%" height="100%" xlink:href="#SVGID_00000108293453920030809230000002226106766583897768_" overflow="visible"></use></clipPath><path d="M16.06 11.71C12.51 11.71 8.93 10.78 8.93 8.69 8.93 6.6 12.51 5.67 16.06 5.67 19.61 5.67 23.19 6.6 23.19 8.69 23.19 10.77 19.61 11.71 16.06 11.71ZM11.02 8.69C11.49 9.07 13.21 9.71 16.06 9.71 18.9 9.71 20.62 9.06 21.1 8.69 20.63 8.31 18.91 7.67 16.06 7.67 13.21 7.66 11.5 8.31 11.02 8.69Z" class="MsftOfcResponsive_Fill_7823dc" fill="#7823DC" clip-path="url(#SVGID_00000078011462827169250400000003342671516273544071_)"/></g></g></g></g></g><g id="Layer_2"></g></svg>