<svg viewBox="0 0 32 32" xmlns="http://www.w3.org/2000/svg" xmlns:xlink="http://www.w3.org/1999/xlink" id="Layer_1" overflow="hidden"><path d="M32 32 0 32 0 0 2 0 2 30 32 30Z" fill="#7823DC"/><path d="M32 8.2 32 10.8 25.9 15.3 22.3 11.7 18.2 21.1 13.5 13.6 11.8 20.8 8.2 22 4.3 22 1.5 23.8 0.5 22.2 3.7 20 7.8 20 10.2 19.2 12.5 8.4 17.8 16.9 21.7 8.3 26.1 12.7Z" fill="#7823DC"/><rect x="1" y="16" width="9" height="2" fill="#7823DC"/><g><rect x="2" y="3" width="2" height="2" fill="#7823DC"/><rect x="6" y="3" width="2" height="2" fill="#7823DC"/><rect x="10" y="3" width="2" height="2" fill="#7823DC"/><rect x="14" y="3" width="2" height="2" fill="#7823DC"/><rect x="18" y="3" width="2" height="2" fill="#7823DC"/><rect x="22" y="3" width="2" height="2" fill="#7823DC"/><rect x="26" y="3" width="2" height="2" fill="#7823DC"/><rect x="30" y="3" width="2" height="2" fill="#7823DC"/></g><g><rect x="2" y="25" width="2" height="2" fill="#7823DC"/><rect x="6" y="25" width="2" height="2" fill="#7823DC"/><rect x="10" y="25" width="2" height="2" fill="#7823DC"/><rect x="14" y="25" width="2" height="2" fill="#7823DC"/><rect x="18" y="25" width="2" height="2" fill="#7823DC"/><rect x="22" y="25" width="2" height="2" fill="#7823DC"/><rect x="26" y="25" width="2" height="2" fill="#7823DC"/><rect x="30" y="25" width="2" height="2" fill="#7823DC"/></g><rect x="21" y="16" width="11" height="2" fill="#7823DC" transform="matrix(1 -0.00390622 0.00390622 1 -0.0661182 0.1036)"/><rect x="13.3" y="16" width="1.4" height="2" fill="#7823DC"/></svg>