<svg viewBox="0 0 32 32" xmlns="http://www.w3.org/2000/svg" xmlns:xlink="http://www.w3.org/1999/xlink" overflow="hidden"><defs></defs><g id="Layer_3"><path d="M12.0938 16.5635C9.60847 16.5635 7.59375 14.5488 7.59375 12.0635 7.59375 9.5782 9.60847 7.56348 12.0938 7.56348 14.579 7.56348 16.5938 9.5782 16.5938 12.0635 16.591 14.5476 14.5779 16.5608 12.0938 16.5635ZM12.0938 9.56348C10.713 9.56348 9.59375 10.6828 9.59375 12.0635 9.59375 13.4442 10.713 14.5635 12.0938 14.5635 13.4745 14.5635 14.5938 13.4442 14.5938 12.0635 14.5921 10.6834 13.4738 9.5651 12.0938 9.56348Z" fill="#7823DC"/><path d="M22.1011 21.0396C20.4442 21.0396 19.1011 19.6964 19.1011 18.0396 19.1011 16.3827 20.4442 15.0396 22.1011 15.0396 23.7579 15.0396 25.1011 16.3827 25.1011 18.0396 25.0993 19.6957 23.7572 21.0377 22.1011 21.0396ZM22.1011 17.0396C21.5488 17.0396 21.1011 17.4873 21.1011 18.0396 21.1011 18.5918 21.5488 19.0396 22.1011 19.0396 22.6534 19.0396 23.1011 18.5918 23.1011 18.0396 23.1004 17.4876 22.6531 17.0403 22.1011 17.0396Z" fill="#7823DC"/><path d="M12.1011 25.0396C10.4442 25.0396 9.10107 23.6964 9.10107 22.0396 9.10107 20.3827 10.4442 19.0396 12.1011 19.0396 13.7579 19.0396 15.1011 20.3827 15.1011 22.0396 15.0993 23.6957 13.7572 25.0377 12.1011 25.0396ZM12.1011 21.0396C11.5488 21.0396 11.1011 21.4873 11.1011 22.0396 11.1011 22.5918 11.5488 23.0396 12.1011 23.0396 12.6534 23.0396 13.1011 22.5918 13.1011 22.0396 13.1004 21.4876 12.6531 21.0403 12.1011 21.0396Z" fill="#7823DC"/><path d="M12.0937 2.03961C13.9009 2.0376 15.6122 2.85302 16.749 4.25794L17.7937 5.54194 19.2504 4.75569C20.1231 4.28246 21.1009 4.03624 22.0937 4.03969 25.4062 4.0385 28.0925 6.72287 28.0937 10.0354 28.0941 11.0505 27.8368 12.0491 27.3459 12.9377L26.6097 14.268 27.6948 15.3332C30.8508 18.419 30.9077 23.479 27.8219 26.635 25.1819 29.335 21.0123 29.8188 17.8242 27.795L16.5466 26.9853 15.4197 27.9942C12.1376 30.9423 7.0871 30.6715 4.13903 27.3894 2.10543 25.1254 1.5349 21.9026 2.66767 19.0781L2.9838 18.2866 2.6318 17.5104C2.27734 16.7349 2.09379 15.8923 2.09362 15.0396 2.10053 12.8975 3.24498 10.9204 5.09905 9.84743L6.10868 9.26332 6.09742 8.097C6.09708 8.06117 6.09583 8.02574 6.09386 7.98976 6.12487 4.69715 8.80091 2.04328 12.0937 2.03965M12.0937 0.03965C7.67538 0.03965 4.09366 3.62137 4.09366 8.03965 4.09366 8.06553 4.09727 8.09044 4.09751 8.11631 0.529504 10.165-0.894324 14.5917 0.81034 18.3363-1.2416 23.4567 1.24587 29.271 6.36624 31.3229 9.89638 32.7376 13.9236 32.0248 16.7536 29.4843 21.4162 32.4372 27.5897 31.0513 30.5427 26.3888 33.0643 22.4073 32.4614 17.2051 29.0959 13.9059 31.2314 10.0382 29.8271 5.17165 25.9594 3.03615 23.5791 1.72194 20.6943 1.70669 18.3003 2.99567 16.7835 1.12422 14.5026 0.0378962 12.0937 0.0396106Z" fill="#7823DC"/><rect x="16.6427" y="12.1901" width="1.9997" height="6.37418" fill="#7823DC" transform="matrix(0.512704 -0.858566 0.858566 0.512704 -4.60517 22.6406)"/><rect x="11.0938" y="15.5635" width="2" height="4.47607" fill="#7823DC"/></g></svg>