<svg viewBox="0 0 32 32" xmlns="http://www.w3.org/2000/svg" xmlns:xlink="http://www.w3.org/1999/xlink" id="Layer_1" overflow="hidden"><path d="M26.2 27.4 26.2 27.4Z" fill="#7823DC"/><path d="M26.2 27.4 26.2 27.4Z" fill="#7823DC"/><g><path d="M18.5 22.5 13.8 23.3 13.5 21.3 18.2 20.5" fill="#7823DC" fill-rule="evenodd" clip-rule="evenodd"/><path d="M17.4 15.8 13.5 21.3 15 22.5 17.9 18.4" fill="#7823DC" fill-rule="evenodd" clip-rule="evenodd"/><path d="M18.5 22.5 17 21.3 14.1 25.3 14.6 28" fill="#7823DC" fill-rule="evenodd" clip-rule="evenodd"/><line x1="14.6" y1="28" x2="18.5" y2="22.5" fill="#7823DC" fill-rule="evenodd" clip-rule="evenodd"/></g><path d="M13.7 13.5C13.4 12.8 13.1 12 12.7 11.3 10.3 15.4 7.5 20.9 7.5 23.6 7.5 23.8 7.5 24 7.5 24.2 7.8 24.2 8.1 24.3 8.5 24.3 8.8 24.3 9.2 24.3 9.5 24.2 9.5 24 9.5 23.8 9.5 23.6 9.5 21.6 11.5 17.5 13.7 13.5 13.7 13.5 13.7 13.5 13.7 13.5ZM13.7 13.5C13.4 12.8 13.1 12 12.7 11.3 10.3 15.4 7.5 20.9 7.5 23.6 7.5 23.8 7.5 24 7.5 24.2 7.8 24.2 8.1 24.3 8.5 24.3 8.8 24.3 9.2 24.3 9.5 24.2 9.5 24 9.5 23.8 9.5 23.6 9.5 21.6 11.5 17.5 13.7 13.5 13.7 13.5 13.7 13.5 13.7 13.5ZM19.3 11.2C18.9 10.5 18.5 9.8 18.1 9.2 16.9 7.2 16 5.8 16 5.8 16 5.8 15.1 7.2 13.9 9.2 13.5 9.8 13.1 10.5 12.7 11.2 10.3 15.3 7.5 20.8 7.5 23.5 7.5 23.7 7.5 23.9 7.5 24.1 7.5 24.8 7.7 25.5 7.9 26.2 9 29.5 12.2 32 16 32 19.8 32 23 29.5 24.1 26.1 24.3 25.4 24.4 24.8 24.5 24 24.5 23.8 24.5 23.6 24.5 23.4 24.5 20.8 21.7 15.4 19.3 11.2ZM16 30C13.3 30 11 28.3 10 26 9.8 25.4 9.6 24.7 9.5 24 9.5 23.8 9.5 23.6 9.5 23.4 9.5 21.5 11.5 17.4 13.7 13.4 13.7 13.4 13.7 13.4 13.7 13.4 14.1 12.7 14.5 12 14.9 11.3 15.2 10.7 15.6 10.1 15.9 9.6 16.2 10.2 16.6 10.7 16.9 11.3 17.3 12 17.7 12.7 18.1 13.4 18.1 13.4 18.1 13.4 18.1 13.4 20.3 17.4 22.3 21.6 22.3 23.4 22.3 23.6 22.3 23.8 22.3 24 22.3 24.7 22.1 25.3 21.8 26 21 28.3 18.7 30 16 30ZM13.7 13.5C13.4 12.8 13.1 12 12.7 11.3 10.3 15.4 7.5 20.9 7.5 23.6 7.5 23.8 7.5 24 7.5 24.2 7.8 24.2 8.1 24.3 8.5 24.3 8.8 24.3 9.2 24.3 9.5 24.2 9.5 24 9.5 23.8 9.5 23.6 9.5 21.6 11.5 17.5 13.7 13.5 13.7 13.5 13.7 13.5 13.7 13.5ZM13.7 13.5C13.4 12.8 13.1 12 12.7 11.3 10.3 15.4 7.5 20.9 7.5 23.6 7.5 23.8 7.5 24 7.5 24.2 7.8 24.2 8.1 24.3 8.5 24.3 8.8 24.3 9.2 24.3 9.5 24.2 9.5 24 9.5 23.8 9.5 23.6 9.5 21.6 11.5 17.5 13.7 13.5 13.7 13.5 13.7 13.5 13.7 13.5Z" fill="#7823DC"/><path d="M23.5 0C23.5 0 20.5 4.5 18.1 9.2 17.7 9.9 17.4 10.6 17 11.3 17.4 12 17.8 12.7 18.2 13.4 18.5 12.7 18.8 11.9 19.2 11.2 20.4 8.7 22 6 23.4 3.7 26.4 8.6 29.9 15.1 29.9 17.6 29.9 20.9 27.5 23.5 24.4 24 24.1 24 23.8 24.1 23.4 24.1 23.1 24.1 22.7 24.1 22.4 24 22.4 24.7 22.2 25.3 21.9 26 22.4 26.1 22.9 26.1 23.4 26.1 23.6 26.1 23.8 26.1 24 26.1 28.4 25.8 31.9 22.1 31.9 17.6 32 13 23.5 0 23.5 0Z" fill="#7823DC"/><path d="M13.9 9.2C11.5 4.5 8.5 0 8.5 0 8.5 0 0 13 0 17.7 0 22.2 3.5 25.9 7.9 26.2 8.1 26.2 8.3 26.2 8.5 26.2 9 26.2 9.5 26.1 10 26.1 9.8 25.5 9.6 24.8 9.5 24.1 9.2 24.2 8.8 24.2 8.5 24.2 8.2 24.2 7.8 24.2 7.5 24.1 4.4 23.6 2 20.9 2 17.7 2 15.2 5.5 8.7 8.5 3.8 9.9 6.1 11.5 8.8 12.7 11.3 13.1 12.1 13.4 12.8 13.7 13.5 14.1 12.8 14.5 12.1 14.9 11.4 14.6 10.6 14.3 9.9 13.9 9.2Z" fill="#7823DC"/></svg>