<svg viewBox="0 0 32 32" xmlns="http://www.w3.org/2000/svg" xmlns:xlink="http://www.w3.org/1999/xlink" id="Layer_5" overflow="hidden"><style>
.MsftOfcResponsive_Fill_7823dc {
 fill:#7823DC; 
}
</style>
<defs></defs><g><path d="M1.49 31.8 1.49 31.64 1.41 31.8 1.49 31.8Z" class="MsftOfcResponsive_Fill_7823dc" fill="#7823DC"/><path d="M23.84 13.11 26.6 10.22 22.26 6.07 18.11 10.41 18.11 10.41C18.11 10.41 1.54 27.76 1.54 27.76L5.88 31.91 23.84 13.11 23.84 13.11ZM22.33 8.9 23.78 10.28 22.4 11.73 20.95 10.35 22.33 8.9ZM5.81 29.07 4.36 27.69 19.56 11.79 21.01 13.17 5.81 29.07Z" class="MsftOfcResponsive_Fill_7823dc" fill="#7823DC"/><path d="M26.89 16.95 25.92 19.9 23.02 21 25.96 21.97 27.06 24.87 28.04 21.93 30.94 20.82 27.99 19.85 26.89 16.95Z" class="MsftOfcResponsive_Fill_7823dc" fill="#7823DC"/><path d="M28.2 8.81 29 6.39 31.39 5.48 28.96 4.68 28.05 2.3 27.25 4.72 24.88 5.62 27.29 6.42 28.2 8.81Z" class="MsftOfcResponsive_Fill_7823dc" fill="#7823DC"/></g><path d="M8.89 1.61 7.68 5.27 4.07 6.65 7.74 7.86 9.11 11.47 10.32 7.8 13.93 6.43 10.26 5.22 8.89 1.61Z" class="MsftOfcResponsive_Fill_7823dc" fill="#7823DC"/></svg>