<svg width="30.97" height="32.02" viewBox="0 0 30.97 32.02" xmlns="http://www.w3.org/2000/svg" xmlns:xlink="http://www.w3.org/1999/xlink" overflow="hidden"><defs></defs><g><g><path d="M5.54 15.55 3.94 14.35 8.31 8.56 14.23 6.87 20.13 10.24 25.26 5.93 26.55 7.46 20.36 12.66 13.97 9.03 9.5 10.3Z" fill="#7823DC"/></g><g><path d="M0.73 28.21 0 26.35 7.71 23.34 11.49 18.68 15.74 9.53 17.56 10.37 13.12 19.85 8.93 25.01Z" fill="#7823DC"/></g><g><path d="M17.91 31.57 17.18 23.58 8.54 18.94 14.02 8.89 15.78 9.85 11.26 18.13 19.07 22.32 19.9 31.39Z" fill="#7823DC"/></g><g><path d="M18.68 8.14C16.44 8.14 14.61 6.31 14.61 4.07 14.61 1.83 16.44 0 18.68 0 20.92 0 22.75 1.83 22.75 4.07 22.75 6.31 20.93 8.14 18.68 8.14ZM18.68 2C17.54 2 16.61 2.93 16.61 4.07 16.61 5.21 17.54 6.14 18.68 6.14 19.82 6.14 20.75 5.21 20.75 4.07 20.75 2.93 19.83 2 18.68 2Z" fill="#7823DC"/></g><g><path d="M26.76 32.02C24.43 32.02 22.54 30.13 22.54 27.8 22.54 25.47 24.43 23.58 26.76 23.58 29.09 23.58 30.98 25.47 30.98 27.8 30.98 30.13 29.08 32.02 26.76 32.02ZM26.76 25.59C25.54 25.59 24.54 26.58 24.54 27.81 24.54 29.03 25.53 30.03 26.76 30.03 27.99 30.03 28.98 29.04 28.98 27.81 28.97 26.58 27.98 25.59 26.76 25.59Z" fill="#7823DC"/></g></g></svg>