<svg viewBox="0 0 32 32" xmlns="http://www.w3.org/2000/svg" xmlns:xlink="http://www.w3.org/1999/xlink" id="Layer_1" xml:space="preserve" overflow="hidden"><g><g><defs><path d="M1.5 32 30.5 32 30.5 0 1.5 0 1.5 32Z" id="SVGID_1_" fill="#7823DC"/></defs><defs><path d="M1.5 0 30.5 0 30.5 32 1.5 32 1.5 0Z" id="SVGID_00000173120268349181857070000006007673433479750318_" fill="#7823DC"/></defs><clipPath id="SVGID_00000176003877038960017910000015304473774309232543_"><use width="100%" height="100%" xlink:href="#SVGID_1_" overflow="visible"></use></clipPath><clipPath id="SVGID_00000106115322843138408250000012568347931348992416_" clip-path="url(#SVGID_00000176003877038960017910000015304473774309232543_)"><use width="100%" height="100%" xlink:href="#SVGID_00000173120268349181857070000006007673433479750318_" overflow="visible"></use></clipPath><g clip-path="url(#SVGID_00000106115322843138408250000012568347931348992416_)"><defs><path d="M1.5 32 30.5 32 30.5 0 1.5 0 1.5 32Z" id="SVGID_00000033368452173920250440000013501847317487901103_" fill="#7823DC"/></defs><clipPath id="SVGID_00000021836001276156207150000013239008405977950609_"><use width="100%" height="100%" xlink:href="#SVGID_00000033368452173920250440000013501847317487901103_" overflow="visible"></use></clipPath><path d="M28.1 6.4C26.1 4.4 23 3.8 19.7 4.8L20.2 6.6C22.8 5.8 25.2 6.3 26.7 7.8 28 9 28.5 10.9 28.2 13 27.9 15.2 26.7 17.5 24.8 19.3 21.1 23 15.9 23.9 13.2 21.3 12 20.1 11.5 18.4 11.7 16.4L9.8 16.2C9.7 17.2 9.7 18.1 9.9 19 9.9 21.7 8.6 23.3 8 23.9 7.4 23.9 6.7 24.2 6.2 24.6L3.4 27.4C2.4 28.4 2.4 30 3.4 31L3.4 31C3.9 31.5 4.5 31.7 5.2 31.7 5.9 31.7 6.5 31.4 7 31L9.8 28.2C10.3 27.7 10.5 27.1 10.5 26.4 11.1 25.8 12.8 24.5 15.5 24.5 16 24.6 16.6 24.7 17.1 24.7 20.1 24.7 23.4 23.3 26 20.7 30.7 16.3 31.5 9.8 28.1 6.4L28.1 6.4ZM8.5 26.9 5.7 29.7C5.5 29.9 5.1 29.9 4.8 29.7L4.1 30.4 4.8 29.7C4.6 29.5 4.6 29.1 4.8 28.8L7.6 26C7.7 25.9 7.9 25.8 8 25.8 8.1 25.8 8.3 25.9 8.4 26 8.7 26.3 8.7 26.7 8.5 26.9L8.5 26.9ZM10.1 24.4C10.5 23.8 11 23.1 11.3 22.1 11.5 22.3 11.6 22.5 11.8 22.7 12 22.9 12.2 23.1 12.4 23.2 11.5 23.6 10.7 24 10.1 24.4L10.1 24.4Z" fill="#7823DC" clip-path="url(#SVGID_00000021836001276156207150000013239008405977950609_)"/><path d="M11.3 14C13 14 14.6 13.4 15.9 12.1 18.4 9.6 18.4 5.4 15.9 2.9 14.7 1.6 13.1 1 11.3 1 9.5 1 7.9 1.6 6.7 2.9 5.5 4.2 4.8 5.7 4.8 7.5 4.8 9.2 5.5 10.9 6.7 12.1 8 13.4 9.7 14 11.3 14L11.3 14ZM6.7 7.5C6.7 6.9 6.8 6.3 7.1 5.7 8.3 6.7 9.7 7.2 11.3 7.2 12.9 7.2 14.4 6.6 15.5 5.6 16.1 7 16 8.7 15.2 10 13 8 9.7 7.9 7.2 9.5 6.9 8.9 6.7 8.2 6.7 7.5L6.7 7.5ZM8.4 11C10 10 12.2 10.1 13.7 11.3 12.1 12.4 10 12.3 8.4 11L8.4 11ZM14.4 4.1C13.6 4.9 12.5 5.3 11.3 5.3 10.1 5.3 9.1 4.9 8.3 4.1 9.1 3.3 10.2 2.9 11.4 2.9 12.6 2.9 13.5 3.3 14.4 4.1L14.4 4.1Z" fill="#7823DC" clip-path="url(#SVGID_00000021836001276156207150000013239008405977950609_)"/></g></g></g></svg>