<svg viewBox="0 0 32 32" xmlns="http://www.w3.org/2000/svg" xmlns:xlink="http://www.w3.org/1999/xlink" id="Layer_1" overflow="hidden"><path d="M16.2 2C20.5 2 23.9 5.5 23.9 9.7 23.9 11.1 23.5 12.4 22.8 13.6L22.7 13.7 22.7 13.8 18.1 24 14.2 24 9.6 13.9 9.6 13.8 9.5 13.7C8.8 12.5 8.4 11.1 8.4 9.8 8.4 5.5 11.9 2 16.2 2M16.2 0C10.8 0 6.5 4.4 6.5 9.7 6.5 11.5 7 13.2 7.9 14.7L12.9 26 19.4 26 24.5 14.7C25.4 13.2 25.9 11.6 25.9 9.7 25.9 4.4 21.5 0 16.2 0L16.2 0Z" fill="#7823DC"/><rect x="13.2" y="27" width="6" height="2" fill="#7823DC"/><rect x="14.1" y="30" width="4" height="2" fill="#7823DC"/><g><path d="M14.1 5.6C13.5 6.2 13 6.8 12.6 7.4 12.4 7.9 12.1 8.3 11.9 8.7 11.1 10.6 11.1 12.8 11.7 14.8 11.9 15.3 12.1 15.8 12.3 16.1 12.7 16.7 13.1 17.5 13.7 18.1L15.9 20.5 18.3 18.3C21.9 14.9 22.1 9.3 18.8 5.6L16.6 3.2 14.1 5.6 14.1 5.6 14.1 5.6ZM19.8 12.6C19.8 13.2 19.7 13.7 19.5 14.3 19.2 15.5 18.4 16.6 17.4 17.6L16 18.9 14.7 17.5C14 16.8 13.5 16 13.2 15.1 13.1 14.8 12.9 14.3 12.9 14.1 12.7 13.6 12.7 13.1 12.7 12.4L12.7 12.4 12.7 12.4C12.7 12.2 12.7 11.8 12.7 11.6 12.7 11.3 12.8 10.9 12.9 10.6 13 10.1 13.1 9.7 13.3 9.3 13.4 9.1 13.4 9 13.4 9 13.8 8.2 14.4 7.4 15.1 6.8L16.6 5.4 17.9 6.8C18.6 7.6 19.2 8.4 19.5 9.3 19.7 9.7 19.7 10.1 19.8 10.6 19.8 11.3 19.8 11.9 19.8 12.6L19.8 12.6Z" fill="#7823DC" fill-rule="evenodd" clip-rule="evenodd"/><path d="M18.4 18.6 15.8 21 13.4 18.4C12.9 17.9 12.4 17.2 12 16.4 11.8 16 11.6 15.5 11.4 14.9 10.7 12.9 10.9 10.6 11.6 8.7 11.8 8.2 12 7.8 12.3 7.3 12.8 6.5 13.3 6 13.9 5.4L16.5 3 18.9 5.6C22.3 9.3 22.1 15.2 18.4 18.6L18.4 18.6ZM15.9 20.3 18.2 18.2C21.7 14.9 21.9 9.4 18.6 5.9L16.5 3.7 14.2 5.8C13.7 6.3 13.2 6.9 12.7 7.6 12.5 8.1 12.3 8.4 12 8.9 11.3 10.8 11.2 12.9 11.8 14.9 12 15.4 12.2 15.9 12.4 16.2 12.8 17 13.3 17.6 13.8 18.2L15.9 20.3 15.9 20.3 15.9 20.3ZM17.4 17.7 15.9 19.1 14.4 17.5C13.7 16.8 13.2 16 12.8 15.1 12.7 14.8 12.5 14.3 12.5 14.1 12.3 13.6 12.3 13 12.3 12.4L12.3 11.6C12.3 11.4 12.4 11.1 12.4 10.8 12.4 10.7 12.5 10.6 12.5 10.5 12.6 10 12.8 9.6 12.9 9.2 13 9 13 8.9 13.1 8.9 13.5 8.1 14.1 7.3 14.9 6.6L16.5 5 18 6.6C18.7 7.4 19.3 8.3 19.6 9.2 19.8 9.6 19.9 10.1 20 10.5 20.1 11.2 20.1 11.9 20 12.6 20 13.2 19.8 13.7 19.7 14.3 19.3 15.5 18.5 16.7 17.4 17.7L17.4 17.7ZM15.9 18.6 17.2 17.4C18.2 16.5 18.9 15.4 19.3 14.3 19.5 13.8 19.6 13.2 19.6 12.8 19.6 12.1 19.6 11.4 19.5 10.8 19.5 10.4 19.3 10 19.2 9.5 18.9 8.6 18.3 7.7 17.7 7L16.5 5.7 15.1 7C14.4 7.6 13.8 8.4 13.5 9.2L13.4 9C13.4 9 13.3 9.2 13.3 9.2 13.1 9.6 13 10 12.9 10.5 12.9 10.6 12.8 10.7 12.8 10.8 12.8 11 12.7 11.3 12.7 11.5L12.7 12.3C12.7 12.8 12.8 13.4 12.9 13.9 12.9 14.2 13.1 14.6 13.3 14.9 13.6 15.7 14.2 16.5 14.8 17.2L15.9 18.6 15.9 18.6 15.9 18.6Z" fill="#7823DC" fill-rule="evenodd" clip-rule="evenodd"/><path d="M15.2 18.8 15.8 4.3 17.1 4.3 16.5 18.8 15.2 18.8Z" fill="#7823DC" fill-rule="evenodd" clip-rule="evenodd"/><path d="M16.7 19.1 15 19 15.5 4 17.2 4.1 16.7 19.1 16.7 19.1 16.7 19.1ZM15.5 18.6 16.4 18.6 16.8 4.5 15.9 4.5 15.5 18.6 15.5 18.6 15.5 18.6Z" fill="#7823DC" fill-rule="evenodd" clip-rule="evenodd"/><path d="M16.3 14.6 15.7 15.8 15.4 15.5 13.4 14.3 12.7 14 12.2 13.7 11.7 13.3 12.3 12.2 12.4 12.3 12.4 12.3 13.7 13.1 15.4 14.1 16 14.5 16.3 14.6Z" fill="#7823DC" fill-rule="evenodd" clip-rule="evenodd"/><path d="M15.7 16.1 15.2 15.7 13.2 14.5 12.6 14.2 12.1 13.9 11.4 13.5 12.3 12 12.6 12.3 13.8 13 16.1 14.4 16.6 14.7 15.7 16.1 15.7 16.1 15.7 16.1ZM12 13.2 12.4 13.4 12.9 13.7 13.5 14 15.6 15.4 16 14.7 15.9 14.7 15.3 14.3 12.4 12.6 12 13.2 12 13.2 12 13.2Z" fill="#7823DC" fill-rule="evenodd" clip-rule="evenodd"/><path d="M16.5 11 15.8 12.1 15.4 12 13.8 11.1 12.7 10.4 12.4 10.3 12.2 10.2 12.3 10.1 12.9 9 13.4 9.3 15.5 10.5 16.2 10.9 16.5 11Z" fill="#7823DC" fill-rule="evenodd" clip-rule="evenodd"/><path d="M15.9 12.5 12.2 10.5 11.9 10.4 12.2 10.1 12.9 8.9 13.6 9.3 15.7 10.5 16.9 11.1 15.9 12.5 15.9 12.5 15.9 12.5ZM12.6 10.1 12.8 10.2 15.8 11.8 16.3 11 15.5 10.6 13.1 9.3 12.6 10.1 12.6 10.1 12.6 10.1Z" fill="#7823DC" fill-rule="evenodd" clip-rule="evenodd"/><path d="M16.4 15.8 15.8 14.6 20 12.5 20.6 13.7 16.4 15.8Z" fill="#7823DC" fill-rule="evenodd" clip-rule="evenodd"/><path d="M20.8 13.7 16.3 16 15.5 14.5 20 12.2 20.8 13.7 20.8 13.7 20.8 13.7ZM16.5 15.5 20.3 13.5 20 12.7 16.2 14.7 16.5 15.5 16.5 15.5 16.5 15.5Z" fill="#7823DC" fill-rule="evenodd" clip-rule="evenodd"/><path d="M16.5 12.1 15.9 11 20.1 8.8 20.7 10 16.5 12.1Z" fill="#7823DC" fill-rule="evenodd" clip-rule="evenodd"/><path d="M20.9 10.1 16.4 12.4 15.6 10.9 20.1 8.6 20.9 10.1 20.9 10.1 20.9 10.1ZM16.5 11.9 20.3 9.9 20 9.1 16.2 11.1 16.5 11.9 16.5 11.9 16.5 11.9Z" fill="#7823DC" fill-rule="evenodd" clip-rule="evenodd"/></g><g><path d="M43.3 3C47.6 3 51 6.5 51 10.7 51 12.1 50.6 13.4 49.9 14.6L49.8 14.7 49.8 14.8 45.2 25 41.3 25 36.7 14.9 36.7 14.8 36.6 14.7C35.9 13.5 35.5 12.1 35.5 10.8 35.5 6.5 39 3 43.3 3M43.3 1C37.9 1 33.6 5.4 33.6 10.7 33.6 12.5 34.1 14.2 35 15.7L40 27 46.5 27 51.6 15.7C52.5 14.2 53 12.6 53 10.7 53 5.4 48.6 1 43.3 1L43.3 1Z" fill="#7823DC"/></g><line x1="40.3" y1="29" x2="46.3" y2="29" stroke="#7823DC" stroke-width="2" stroke-miterlimit="10" fill="none"/><line x1="41.3" y1="32" x2="45.3" y2="32" stroke="#7823DC" stroke-width="2" stroke-miterlimit="10" fill="none"/><g><path d="M41.2 6.6C40.6 7.2 40.1 7.8 39.7 8.4 39.5 8.9 39.2 9.3 39 9.7 38.2 11.6 38.2 13.8 38.8 15.8 39 16.3 39.2 16.8 39.4 17.1 39.8 17.7 40.2 18.5 40.8 19.1L43 21.5 45.4 19.3C49 15.9 49.2 10.3 45.9 6.6L43.7 4.2 41.2 6.6 41.2 6.6 41.2 6.6ZM46.9 13.6C46.9 14.2 46.8 14.7 46.6 15.3 46.3 16.5 45.5 17.6 44.5 18.6L43 19.9 41.7 18.5C41 17.8 40.5 17 40.2 16.1 40.1 15.8 39.9 15.3 39.9 15.1 39.7 14.6 39.7 14.1 39.7 13.4L39.7 13.4 39.7 13.4C39.7 13.2 39.7 12.8 39.7 12.6 39.7 12.3 39.8 11.9 39.9 11.6 40 11.1 40.1 10.7 40.3 10.3 40.4 10.1 40.4 10 40.4 10 40.8 9.2 41.4 8.4 42.1 7.8L43.6 6.4 44.9 7.8C45.6 8.6 46.2 9.4 46.5 10.3 46.7 10.7 46.7 11.1 46.8 11.6 46.9 12.3 46.9 12.9 46.9 13.6L46.9 13.6Z" fill="#7823DC" fill-rule="evenodd" clip-rule="evenodd"/><path d="M45.5 19.6 43 22 40.6 19.4C40.1 18.9 39.6 18.2 39.2 17.4 39 17 38.7 16.5 38.6 16 37.9 14 38.1 11.7 38.8 9.8 39 9.3 39.2 8.9 39.5 8.4 40 7.6 40.5 7.1 41.1 6.5L43.7 4.1 46 6.7C49.4 10.3 49.2 16.2 45.5 19.6L45.5 19.6ZM43 21.3 45.3 19.2C48.8 15.9 49 10.4 45.7 6.9L43.6 4.7 41.3 6.8C40.8 7.3 40.3 7.9 39.8 8.6 39.6 9.1 39.4 9.4 39.1 9.9 38.4 11.8 38.3 13.9 38.9 15.9 39.1 16.4 39.3 16.9 39.5 17.2 39.9 18 40.4 18.6 40.9 19.2L43 21.3 43 21.3 43 21.3ZM44.6 18.7 43 20.2 41.5 18.6C40.8 17.9 40.3 17.1 39.9 16.2 39.8 15.9 39.6 15.4 39.6 15.2 39.4 14.7 39.4 14.1 39.4 13.5L39.4 12.7C39.4 12.5 39.5 12.2 39.5 11.9 39.5 11.8 39.6 11.7 39.6 11.6 39.7 11.1 39.9 10.7 40 10.3 40.1 10.1 40.1 10 40.1 10 40.5 9.2 41.1 8.4 41.9 7.7L43.6 6 45.1 7.6C45.8 8.4 46.4 9.3 46.7 10.2 46.9 10.6 47 11.1 47.1 11.5 47.2 12.2 47.2 12.9 47.1 13.6 47.1 14.2 46.9 14.7 46.8 15.3 46.4 16.5 45.6 17.7 44.6 18.7L44.6 18.7ZM43 19.6 44.3 18.4C45.3 17.5 46 16.4 46.4 15.3 46.6 14.8 46.7 14.2 46.7 13.8 46.7 13.1 46.7 12.4 46.6 11.8 46.6 11.4 46.4 11 46.3 10.5 46 9.5 45.4 8.7 44.8 8L43.6 6.7 42.2 8C41.5 8.6 40.9 9.4 40.6 10.2L40.5 10C40.5 10 40.4 10.2 40.4 10.2 40.2 10.6 40.1 11 40 11.5 40 11.6 39.9 11.7 39.9 11.8 39.9 12 39.8 12.3 39.8 12.5L39.8 13.3C39.8 13.8 39.9 14.4 40 14.9 40 15.2 40.2 15.6 40.4 15.9 40.7 16.7 41.3 17.5 41.9 18.2L43 19.6 43 19.6 43 19.6Z" fill="#7823DC" fill-rule="evenodd" clip-rule="evenodd"/><path d="M42.4 19.8 42.9 5.3 44.2 5.3 43.7 19.8 42.4 19.8Z" fill="#7823DC" fill-rule="evenodd" clip-rule="evenodd"/><path d="M43.8 20.1 42.1 20 42.6 5 44.3 5.1 43.8 20.1 43.8 20.1 43.8 20.1ZM42.7 19.6 43.6 19.6 44 5.6 43.1 5.6 42.7 19.6 42.7 19.6 42.7 19.6Z" fill="#7823DC" fill-rule="evenodd" clip-rule="evenodd"/><path d="M43.4 15.6 42.8 16.8 42.5 16.5 40.5 15.3 39.8 15 39.3 14.7 38.8 14.3 39.4 13.2 39.6 13.3 39.6 13.3 40.8 14.1 42.5 15.1 43.2 15.5 43.4 15.6Z" fill="#7823DC" fill-rule="evenodd" clip-rule="evenodd"/><path d="M42.8 17.1 42.3 16.7 40.3 15.5 39.7 15.2 39.2 14.9 38.5 14.5 39.4 13 39.7 13.3 40.9 14 43.2 15.4 43.7 15.7 42.8 17.1 42.8 17.1 42.8 17.1ZM39.1 14.2 39.5 14.4 40 14.7 40.6 15 42.7 16.4 43.1 15.7 43 15.7 42.4 15.3 39.5 13.6 39.1 14.2 39.1 14.2 39.1 14.2Z" fill="#7823DC" fill-rule="evenodd" clip-rule="evenodd"/><path d="M43.6 12 42.9 13.1 42.6 13 40.9 12.1 39.9 11.4 39.5 11.3 39.3 11.2 39.5 11.1 40 10 40.5 10.3 42.6 11.5 43.3 11.9 43.6 12Z" fill="#7823DC" fill-rule="evenodd" clip-rule="evenodd"/><path d="M43 13.5 39.3 11.5 39 11.3 39.3 11 40 9.9 40.7 10.3 42.8 11.5 44 12.1 43 13.5 43 13.5 43 13.5ZM39.7 11.1 39.9 11.2 42.9 12.8 43.4 12 42.6 11.6 40.2 10.3 39.7 11.1 39.7 11.1 39.7 11.1Z" fill="#7823DC" fill-rule="evenodd" clip-rule="evenodd"/><path d="M43.5 16.8 42.9 15.6 47.1 13.5 47.7 14.7 43.5 16.8Z" fill="#7823DC" fill-rule="evenodd" clip-rule="evenodd"/><path d="M48 14.7 43.4 17 42.6 15.5 47.1 13.2 48 14.7 48 14.7 48 14.7ZM43.6 16.5 47.4 14.5 47 13.7 43.2 15.7 43.6 16.5 43.6 16.5 43.6 16.5Z" fill="#7823DC" fill-rule="evenodd" clip-rule="evenodd"/><path d="M43.6 13.1 43 12 47.2 9.8 47.8 11 43.6 13.1Z" fill="#7823DC" fill-rule="evenodd" clip-rule="evenodd"/><path d="M48.1 11.1 43.6 13.4 42.8 11.9 47.3 9.6 48.1 11.1 48.1 11.1 48.1 11.1ZM43.7 12.9 47.5 10.9 47.1 10.1 43.3 12.1 43.7 12.9 43.7 12.9 43.7 12.9Z" fill="#7823DC" fill-rule="evenodd" clip-rule="evenodd"/></g></svg>