<svg viewBox="0 0 32 32" xmlns="http://www.w3.org/2000/svg" xmlns:xlink="http://www.w3.org/1999/xlink" id="Layer_1" xml:space="preserve" overflow="hidden"><style>
.MsftOfcResponsive_Fill_7823dc {
 fill:#7823DC; 
}
</style>
<g id="Layer_2_00000013912985461116041430000015904895619479836035_" display="none"><g><path d="M15 3C14.9 3 14.7 3 14.6 3 14.4 3 14.2 3 14.1 3 13.4 3 12.7 3.1 12.1 3.2L12.7 3.8 13.8 5C14 5 14.3 5 14.6 5 15.6 5 16.7 5.1 17.7 5.4 21.2 6.3 24.1 8.6 25.7 11.7L28.8 14.8 28.8 14.4C27.4 8 21.8 3.2 15 3ZM25.9 22.9 25.9 22.9C24.3 26.2 21.3 28.7 17.6 29.6 16.6 29.8 15.6 30 14.6 30 13.5 30 12.5 29.9 11.5 29.6 6.4 28.3 2.6 23.9 2.1 18.5 2.1 18.2 2.1 17.8 2.1 17.5 2.1 17.2 2.1 16.8 2.1 16.5 2.4 12.2 5 8.5 8.6 6.5L7.1 5.1C2.9 7.6 0 12.3 0 17.5 0 25.5 6.5 32 14.5 32 20.6 32 25.8 28.2 28 22.9L25.9 22.9Z" class="MsftOfcResponsive_Fill_7823dc" fill="#7823DC"/><path d="M21.4 18.5 0.3 18.5 0.3 16.5 23.7 16.5 25.3 18.5" class="MsftOfcResponsive_Fill_7823dc" fill="#7823DC"/></g><path d="M18.1 16.5C18.1 16.8 18.1 17.1 18.1 17.5 18.1 17.8 18.1 18.2 18.1 18.5 17.9 26 15.4 29.9 14.6 29.9 13.8 29.9 11.2 26 11 18.5 11 18.2 11 17.8 11 17.5 11 17.2 11 16.8 11 16.5 11.1 13.8 11.4 11.6 11.9 9.9L10.2 8.2C9.5 10.5 9 13.3 9 16.5 9 16.8 9 17.1 9 17.5 9 17.8 9 18.2 9 18.5 9.1 23.2 10.1 27.2 11.5 29.6 12.4 31.1 13.4 32 14.6 32 15.8 32 16.8 31.1 17.7 29.6 19.1 27.2 20.1 23.1 20.2 18.5 20.2 18.2 20.2 17.8 20.2 17.5 20.2 17.2 20.2 16.8 20.2 16.5M19.6 16.5 18.5 16.5M17.6 5.4C16.9 4.1 16 4.2 15 4 14.8 4 14.7 4 14.5 4 14.3 4 14.2 4 14 4 13.5 4.1 13 3.4 12.6 3.8L13.8 5 14 5.2C14.2 5.1 14.4 5 14.5 5 14.9 5 15.7 5.9 16.4 7.6L19 10.2M18.1 16.5C18.1 16.8 18.1 17.1 18.1 17.5 18.1 17.8 18.1 18.2 18.1 18.5L20.2 18.5C20.2 18.2 20.2 17.8 20.2 17.5 20.2 17.2 20.2 16.8 20.2 16.5L19.7 16.5 19 17.1 18.4 16.5" class="MsftOfcResponsive_Fill_7823dc" fill="#7823DC"/><path d="M65.9 19.4 65.9 13.9 64.1 12.1 64.1 16.3 55.5 7.9 52.9 10.4 42.6 0 40.1 0 52.9 12.9 55.5 10.4 62.8 17.6 58.5 17.6 60.3 19.4Z" class="MsftOfcResponsive_Fill_7823dc" fill="#7823DC"/><g><path d="M32.1 21.4 32.1 15.9 30.2 14.1 30.2 18.3 21.6 9.9 19 12.4 8.7 2 6.2 2 19 14.9 21.6 12.4 29 19.6 24.7 19.6 26.5 21.4Z" class="MsftOfcResponsive_Fill_7823dc" fill="#7823DC"/><line x1="18.5" y1="16.5" x2="19.6" y2="16.5" fill="none"/></g></g><g><path d="M18.6 21.6 16.6 21.6 14.2 12.6 13.6 12.6 11.3 21.6 9.2 21.6 12.2 10.6 15.6 10.6Z" class="MsftOfcResponsive_Fill_7823dc" fill="#7823DC"/><rect x="10.6" y="16.6" width="6" height="2" class="MsftOfcResponsive_Fill_7823dc" fill="#7823DC"/><rect x="19.6" y="10.6" width="2" height="11" class="MsftOfcResponsive_Fill_7823dc" fill="#7823DC"/></g><path d="" class="MsftOfcResponsive_Fill_7823dc" fill="#7823DC"/><g><rect x="7" y="0" width="2" height="4.2" class="MsftOfcResponsive_Fill_7823dc" fill="#7823DC"/><rect x="11" y="0" width="2" height="4.2" class="MsftOfcResponsive_Fill_7823dc" fill="#7823DC"/><rect x="15" y="0" width="2" height="4.2" class="MsftOfcResponsive_Fill_7823dc" fill="#7823DC"/><rect x="19" y="0" width="2" height="4.2" class="MsftOfcResponsive_Fill_7823dc" fill="#7823DC"/><rect x="23" y="0" width="2" height="4.2" class="MsftOfcResponsive_Fill_7823dc" fill="#7823DC"/></g><rect x="7" y="27.6" width="2" height="4.4" class="MsftOfcResponsive_Fill_7823dc" fill="#7823DC"/><rect x="11" y="27.6" width="2" height="4.4" class="MsftOfcResponsive_Fill_7823dc" fill="#7823DC"/><rect x="15" y="27.6" width="2" height="4.4" class="MsftOfcResponsive_Fill_7823dc" fill="#7823DC"/><rect x="19" y="27.6" width="2" height="4.4" class="MsftOfcResponsive_Fill_7823dc" fill="#7823DC"/><g><rect x="0" y="7" width="4.2" height="2" class="MsftOfcResponsive_Fill_7823dc" fill="#7823DC"/><rect x="0" y="11" width="4.2" height="2" class="MsftOfcResponsive_Fill_7823dc" fill="#7823DC"/><rect x="0" y="15" width="4.2" height="2" class="MsftOfcResponsive_Fill_7823dc" fill="#7823DC"/><rect x="0" y="19" width="4.2" height="2" class="MsftOfcResponsive_Fill_7823dc" fill="#7823DC"/><rect x="0" y="23" width="4.2" height="2" class="MsftOfcResponsive_Fill_7823dc" fill="#7823DC"/></g><rect x="27.5" y="7" width="4.5" height="2" class="MsftOfcResponsive_Fill_7823dc" fill="#7823DC"/><rect x="27.5" y="11" width="4.5" height="2" class="MsftOfcResponsive_Fill_7823dc" fill="#7823DC"/><rect x="27.5" y="15" width="4.5" height="2" class="MsftOfcResponsive_Fill_7823dc" fill="#7823DC"/><path d="M27.5 19 32 19 32 21 29.64 21Z" class="MsftOfcResponsive_Fill_7823dc" fill="#7823DC"/><path d="M32 25.3 32 25.3 31.99 22C31.99 21.99 32 21.96 32 21.95 32 20.04 29.4 18.6 25.97 18.6 22.54 18.6 19.94 20.04 19.94 21.95L19.94 28.87 20.04 29.19C20.48 30.82 22.88 31.99 25.97 31.99 29.06 31.99 31.45 30.81 31.9 29.19L31.99 28.69 31.99 28.69C31.99 28.68 32 28.65 32 28.64L31.99 28.64 31.99 25.34C31.99 25.34 32 25.31 32 25.3ZM25.97 20.28C28.58 20.28 30.32 21.29 30.32 21.96L30.31 21.96 30.31 21.98C30.26 22.65 28.54 23.62 25.97 23.62 23.36 23.62 21.62 22.61 21.62 21.94 21.62 21.28 23.36 20.28 25.97 20.28ZM21.63 24.31C22.71 24.93 24.24 25.3 25.98 25.3 27.72 25.3 29.23 24.92 30.32 24.31L30.32 25.32C30.27 25.99 28.55 26.96 25.98 26.96 23.37 26.96 21.63 25.95 21.63 25.28L21.63 24.31ZM25.97 30.32C23.36 30.32 21.62 29.31 21.62 28.64L21.62 27.65C22.7 28.27 24.23 28.64 25.97 28.64 27.71 28.64 29.22 28.26 30.31 27.65L30.31 28.66C30.27 29.35 28.55 30.32 25.97 30.32Z" class="MsftOfcResponsive_Fill_7823dc" fill="#7823DC"/><g><path d="M25.2 6C25.6 6 26 6.4 26 6.8L26 19.92 27.9 20.06 27.9 6.8C28 5.3 26.7 4 25.2 4L25.2 4 6.8 4C5.3 4 4 5.3 4 6.8L4 25.1C4 26.7 5.3 28 6.8 28L21 28 21 25.9 6.8 25.9C6.4 26 6 25.6 6 25.2L6 6.8C6 6.4 6.4 6 6.8 6L25.2 6" class="MsftOfcResponsive_Fill_7823dc" fill="#7823DC"/></g></svg>