<svg viewBox="0 0 32 32" xmlns="http://www.w3.org/2000/svg" xmlns:xlink="http://www.w3.org/1999/xlink" id="Layer_1" xml:space="preserve" overflow="hidden"><path d="M29.8 12 29.8 11.9C29.7 11.3 29.5 10.8 29.3 10.2L29.3 10.1C29.2 9.8 29.1 9.5 29 9.3 26.6 3.8 21.3 0 15.1 0 6.8 0 0 6.9 0 15.5 0 20.9 2.7 25.7 6.9 28.5L8.1 26.9C4.4 24.5 2 20.2 2 15.5 2 8 7.9 2 15.1 2 20.7 2 25.6 5.7 27.4 10.8 27.4 10.9 27.5 11 27.5 11.2 27.6 11.6 27.7 12 27.8 12.4L27.8 12.5C28.4 14.7 29 17.4 29.4 19.3 29.4 19.5 29.5 19.7 29.5 19.8 29.5 19.6 29.6 19.4 29.6 19.3 29.9 18.1 30.1 16.8 30.1 15.5 30.2 14.3 30.1 13.1 29.8 12Z" fill="#7823DC"/><path d="M32 22.3 26.4 22.3 26.4 32 17 32 17 30 24.3 30 24.3 20.3 29.5 20.3C29.5 20.1 29.4 19.9 29.4 19.7 29 17.8 28.3 14.6 27.7 12.2L27.7 12.1C27.6 11.7 27.5 11.3 27.4 10.9 27.4 10.8 27.3 10.6 27.3 10.5 27.2 10.2 27.1 9.8 27 9.6L28.8 8.9 28.8 9.9C28.9 10.2 29 9.5 29.1 9.8L29.1 9.9C29.3 10.4 29.4 11 29.6 11.6L29.6 11.7C30.6 15.5 31.6 20.9 31.7 21.2L32 22.3Z" fill="#7823DC"/><path d="M-32.9 19.4C-35.2 19.4-37.2 17.5-37.2 15.1-37.2 12.7-35.3 10.8-32.9 10.8-30.5 10.8-28.6 12.8-28.6 15.1-28.6 17.5-30.5 19.4-32.9 19.4L-32.9 19.4ZM-32.9 13C-34.1 13-35.1 13.9-35.1 15.2-35.1 16.4-34.2 17.4-32.9 17.4-31.7 17.4-30.7 16.5-30.7 15.2-30.7 13.9-31.7 13-32.9 13L-32.9 13Z" fill="#7823DC" fill-rule="evenodd" clip-rule="evenodd"/><path d="M-35 8.7C-37.3 8.7-39.3 6.7-39.3 4.4-39.3 2.1-37.4 0.1-35 0.1-32.6 0.1-30.7 2-30.7 4.4-30.7 6.8-32.7 8.7-35 8.7L-35 8.7ZM-35 2.3C-36.2 2.3-37.2 3.2-37.2 4.4-37.2 5.6-36.3 6.5-35 6.5-33.7 6.5-32.8 5.5-32.8 4.4-32.9 3.3-33.8 2.3-35 2.3L-35 2.3Z" fill="#7823DC" fill-rule="evenodd" clip-rule="evenodd"/><path d="M11 8.2C11 5.9 12.9 3.9 15.3 3.9 17.7 3.9 19.6 5.8 19.6 8.2 19.6 10.6 17.7 12.5 15.3 12.5 12.9 12.5 11 10.5 11 8.2L11 8.2ZM17.4 8.2C17.4 7 16.5 6 15.3 6 14.1 6 13.2 6.9 13.2 8.2 13.2 9.5 14.1 10.4 15.3 10.4 16.5 10.3 17.4 9.3 17.4 8.2L17.4 8.2Z" fill="#7823DC" fill-rule="evenodd" clip-rule="evenodd"/><path d="M16.3 11.4 16.3 27.2 14.2 27.2 14.2 11.4 16.3 11.4Z" fill="#7823DC" fill-rule="evenodd" clip-rule="evenodd"/><path d="M16.3 16.6 16.3 18.8 11 18.8 11 16.6 16.3 16.6Z" fill="#7823DC" fill-rule="evenodd" clip-rule="evenodd"/><path d="M16.3 20.9 16.3 23.1 11 23.1 11 20.9 16.3 20.9Z" fill="#7823DC" fill-rule="evenodd" clip-rule="evenodd"/><path d="M11 27.2 13.1 25.2 16.3 25.2 16.3 27.2 11 27.2 11 27.2 11 27.2Z" fill="#7823DC" fill-rule="evenodd" clip-rule="evenodd"/></svg>