<svg viewBox="0 0 31.66 32.17" xmlns="http://www.w3.org/2000/svg" xmlns:xlink="http://www.w3.org/1999/xlink" id="Outline_Final_icon" overflow="hidden"><defs></defs><path d="M8.28 16.75 6.28 16.75 6.28 2.42C6.28 1.09 7.36 0 8.7 0L22.76 0C24.09 0 25.18 1.08 25.18 2.42L25.18 5.81 23.18 5.81 23.18 2.42C23.18 2.19 22.99 2 22.76 2L8.7 2C8.47 2 8.28 2.19 8.28 2.42L8.28 16.75Z" fill="#7823DC"/><path d="M22.76 32.17 8.7 32.17C7.37 32.17 6.28 31.09 6.28 29.75L6.28 29.23 8.28 29.23 8.28 29.75C8.28 29.98 8.47 30.17 8.7 30.17L22.76 30.17C22.99 30.17 23.18 29.98 23.18 29.75L23.18 18.24 25.18 18.24 25.18 29.75C25.18 31.08 24.1 32.17 22.76 32.17Z" fill="#7823DC"/><path d="M16.53 29.31 0 29.31 0 18.23 9.15 18.23 11.41 15.55 13.98 18.23 16.54 18.23 16.54 29.31ZM2 27.31 14.53 27.31 14.53 20.23 13.11 20.23 11.49 18.54 10.06 20.23 2 20.23 2 27.31Z" fill="#7823DC"/><rect x="12.53" y="1.84" width="6.39" height="2" fill="#7823DC"/><path d="M5.26 22.58C4.71 22.58 4.26 23.03 4.26 23.58 4.26 24.13 4.71 24.58 5.26 24.58 5.81 24.58 6.26 24.13 6.26 23.58 6.26 23.03 5.81 22.58 5.26 22.58Z" fill="#7823DC"/><path d="M8.61 22.58C8.06 22.58 7.61 23.03 7.61 23.58 7.61 24.13 8.06 24.58 8.61 24.58 9.16 24.58 9.61 24.13 9.61 23.58 9.61 23.03 9.16 22.58 8.61 22.58Z" fill="#7823DC"/><path d="M11.78 22.58C11.23 22.58 10.78 23.03 10.78 23.58 10.78 24.13 11.23 24.58 11.78 24.58 12.33 24.58 12.78 24.13 12.78 23.58 12.78 23.03 12.33 22.58 11.78 22.58Z" fill="#7823DC"/><path d="M24.19 9.09C23.82 9.09 23.5 9.24 23.26 9.48 23.2 9.54 23.15 9.6 23.1 9.67 23.06 9.62 23.02 9.57 22.98 9.52 22.74 9.26 22.39 9.1 22.01 9.1 21.28 9.1 20.68 9.69 20.68 10.43 20.68 10.81 20.84 11.16 21.1 11.4L23.13 13.6 25.13 11.36C25.37 11.12 25.52 10.79 25.52 10.43 25.52 9.7 24.92 9.1 24.19 9.1Z" fill="#7823DC"/><path d="M27.86 5.72 14.53 5.72 14.53 16.8 17.86 16.8 19.65 19.37 22.16 16.8 31.66 16.8 31.66 9.53 27.86 5.73ZM29.66 14.8 21.31 14.8 19.9 16.24 18.9 14.8 16.53 14.8 16.53 7.72 29.66 7.72 29.66 14.8Z" fill="#7823DC"/></svg>