<svg viewBox="0 0 32 32" xmlns="http://www.w3.org/2000/svg" xmlns:xlink="http://www.w3.org/1999/xlink" id="Layer_1" xml:space="preserve" overflow="hidden"><style>
.MsftOfcResponsive_Fill_7823dc {
 fill:#7823DC; 
}
</style>
<path d="M14.8 10 17.2 10 17.2 18 14.8 18 14.8 10Z" class="MsftOfcResponsive_Fill_7823dc" fill="#7823DC" fill-rule="evenodd" clip-rule="evenodd"/><g><path d="M24.6 7 24.6 19.9C24.6 22.1 22.9 23.9 20.7 23.9L20.2 23.9 20.2 21.8 20.7 21.8C21.7 21.8 22.5 21 22.5 19.9L22.5 7C22.5 6.2 22 5.5 21.4 5.2 21.4 5 21.4 4.8 21.4 4.6 21.4 4.5 21.4 4.5 21.4 4.4 21.4 3.9 21.3 3.4 21.2 2.9 21.8 3 22.3 3.1 22.8 3.4 24 4.2 24.8 5.5 24.6 7Z" class="MsftOfcResponsive_Fill_7823dc" fill="#7823DC" fill-rule="evenodd" clip-rule="evenodd"/><path d="M29 0 29 2.1 24.7 2.1 22.9 3.5 21.5 4.6C21.5 4.5 21.5 4.5 21.5 4.4 21.5 3.9 21.4 3.4 21.3 2.9L21.1 2.4 24.2 0 29 0Z" class="MsftOfcResponsive_Fill_7823dc" fill="#7823DC" fill-rule="evenodd" clip-rule="evenodd"/></g><g><path d="M11.8 21.9 11.8 24 11.3 24C9.2 24 7.4 22.2 7.4 20L7.4 7C7.2 5.6 8 4.3 9.1 3.6 9.6 3.3 10.1 3.1 10.7 3.1 10.6 3.6 10.5 4.1 10.5 4.6 10.5 4.7 10.5 4.7 10.5 4.8 10.5 5 10.5 5.2 10.5 5.4 9.9 5.5 9.4 6.2 9.4 7L9.4 20C9.4 21 10.2 21.9 11.2 21.9L11.8 21.9Z" class="MsftOfcResponsive_Fill_7823dc" fill="#7823DC" fill-rule="evenodd" clip-rule="evenodd"/><path d="M10.7 3C10.6 3.5 10.5 4 10.5 4.5 10.5 4.6 10.5 4.6 10.5 4.7L9.1 3.6 7.3 2.2 3 2.2 3 0 7.8 0 10.8 2.4C10.8 2.7 10.8 2.8 10.7 3Z" class="MsftOfcResponsive_Fill_7823dc" fill="#7823DC" fill-rule="evenodd" clip-rule="evenodd"/></g><path d="M16 2C17.1 2 18 2.9 18 4 18 5.1 17.1 6 16 6 14.9 6 14 5.1 14 4 14 2.9 14.9 2 16 2M16 0C13.8 0 12 1.8 12 4 12 6.2 13.8 8 16 8 18.2 8 20 6.2 20 4 20 1.8 18.2 0 16 0L16 0Z" class="MsftOfcResponsive_Fill_7823dc" fill="#7823DC"/><path d="M16 22C16.7 22 17.3 22.6 17.3 23.3L17.3 28.8C17.3 29.5 16.7 30.1 16 30.1 15.3 30.1 14.7 29.5 14.7 28.8L14.7 23.3C14.7 22.6 15.3 22 16 22L16 22M16 20 16 20C14.2 20 12.7 21.5 12.7 23.3L12.7 28.8C12.7 30.6 14.2 32.1 16 32.1L16 32.1C17.8 32.1 19.3 30.6 19.3 28.8L19.3 23.3C19.3 21.5 17.8 20 16 20L16 20Z" class="MsftOfcResponsive_Fill_7823dc" fill="#7823DC"/></svg>