<svg viewBox="0 0 32 32" xmlns="http://www.w3.org/2000/svg" xmlns:xlink="http://www.w3.org/1999/xlink" id="Graphic" xml:space="preserve" overflow="hidden"><path d="M29.2 18 20.6 20.8 20.6 19.6 20.6 17.3 18.4 17.6 15.3 18 10.4 16 9.5 15.7 8.7 16.2 5.5 18 2.3 18 0.3 18 0.3 20 0.3 26 0.3 28 2.3 28 5.5 28 15.3 32 30.7 23.7 31.7 23.2 31.7 22 31.7 20 31.7 17.2 29.2 18 29.2 18 29.2 18 29.2 18 29.2 18ZM29.8 22 15 29.8 5.9 26 2.3 26 2.3 20 6 20 9.7 18 15.1 20 18.8 19.5 18.8 21.5 17.8 22 14.1 22.8 14.1 24.5 18 23.8 18 23.8 29.8 20 29.8 22 29.8 22 29.8 22 29.8 22 29.8 22Z" fill="#7823DC" fill-rule="evenodd" clip-rule="evenodd"/><g><path d="M9.5 9.4 9.6 9.6C10 10.5 10.5 11.2 11.2 11.8L11.5 12.1C12.5 12.9 13.2 14.1 13.3 15.4L13.4 16.3 18.3 16.3 18.4 15.4C18.4 15.1 18.5 14.7 18.6 14.4 18.8 13.9 19 13.4 19.4 12.9 19.7 12.6 20 12.3 20.3 12.1L20.9 11.6C21.2 11.4 21.4 11.1 21.6 10.8 21.8 10.5 22 10.2 22.2 9.9 22.6 9 22.8 8 22.8 7 22.9 3.3 20 0.1 16.3 0 12.6-0.1 9.4 2.8 9.3 6.5 9.3 6.7 9.3 6.8 9.3 7 9.1 7.8 9.2 8.6 9.5 9.4L9.5 9.4ZM15.9 2.2C18.6 2.2 20.7 4.4 20.7 7 20.7 7.7 20.5 8.4 20.2 9.1 20.1 9.2 19.9 9.6 19.8 9.7 19.7 9.9 19.5 10.1 19.3 10.2 19.1 10.4 19 10.5 18.8 10.6 18.4 10.9 18 11.3 17.7 11.7 17.3 12.2 16.9 12.8 16.7 13.5L16.7 10.3 17 10.3 19.2 8.3 12.5 8.3 14.7 10.3 14.9 10.3 14.9 13.2C14.5 12.2 13.8 11.3 12.9 10.6L12.6 10.4C12.1 10 11.7 9.5 11.5 8.9L11.4 8.7 11.4 8.7 11.4 8.7 11.4 8.7 11.4 8.7C11.2 8.2 11.1 7.6 11.1 7.1 11.1 4.4 13.2 2.2 15.9 2.2L15.9 2.2 15.9 2.2Z" fill="#7823DC" fill-rule="evenodd" clip-rule="evenodd"/></g></svg>