<svg viewBox="0 0 32 32" xmlns="http://www.w3.org/2000/svg" xmlns:xlink="http://www.w3.org/1999/xlink" xml:space="preserve" overflow="hidden"><style>
.MsftOfcResponsive_Fill_7823dc {
 fill:#7823DC; 
}
</style>
<g id="Layer_3"></g><g id="Layer_1"><path d="M29.7 6.73 29.7 24.96 2.28 24.96 2.28 6.71 29.68 6.71 27.4 4.43-0.01 4.43-0.01 27.25 31.99 27.25 31.99 9.02 29.7 6.73 29.7 6.73Z" class="MsftOfcResponsive_Fill_7823dc" fill="#7823DC"/><path d="M19.68 18.51 21.38 21.9C21.47 22.05 21.59 22.17 21.74 22.26 22.23 22.55 22.86 22.39 23.15 21.9L24.85 18.51 27.2 18.51C27.74 18.51 28.19 18.07 28.19 17.53 28.19 16.99 27.75 16.55 27.2 16.55L24.24 16.55C23.87 16.55 23.52 16.76 23.36 17.09L22.27 19.27 21.18 17.09C21.01 16.76 20.67 16.55 20.3 16.55L17.8 16.55C17.8 17.24 17.8 17.84 17.8 18.52L19.68 18.52Z" class="MsftOfcResponsive_Fill_7823dc" fill="#7823DC"/><path d="M17.53 16.55 15.18 16.55 13.48 13.16C13.39 13.01 13.27 12.89 13.12 12.8 12.63 12.51 12 12.67 11.71 13.16L10.8 14.97 9.58 11.32C9.48 11.03 9.25 10.8 8.96 10.7 8.44 10.53 7.89 10.81 7.71 11.32L5.96 16.55 3.26 16.55C3.26 17.22 3.26 17.83 3.26 18.52L6.69 18.52C7.11 18.52 7.49 18.25 7.63 17.85L8.67 14.74 9.71 17.85C9.84 18.23 10.18 18.49 10.57 18.52 10.59 18.52 10.62 18.52 10.64 18.52 11.01 18.52 11.36 18.31 11.52 17.98L12.61 15.8 13.7 17.98C13.87 18.31 14.21 18.52 14.58 18.52L17.54 18.52C18.08 18.52 18.53 18.08 18.53 17.54 18.52 16.99 18.08 16.55 17.53 16.55Z" class="MsftOfcResponsive_Fill_7823dc" fill="#7823DC"/><path d="M2.27 16.55 4.24 16.55 4.24 18.51 2.27 18.51 2.27 16.55Z" class="MsftOfcResponsive_Fill_7823dc" fill="#7823DC"/><path d="M25.94 16.55 29.89 16.55 29.89 18.51 25.94 18.51 25.94 16.55Z" class="MsftOfcResponsive_Fill_7823dc" fill="#7823DC"/></g><g id="Layer_2"></g></svg>