<svg viewBox="0 0 32 32" xmlns="http://www.w3.org/2000/svg" xmlns:xlink="http://www.w3.org/1999/xlink" xml:space="preserve" overflow="hidden"><style>
.MsftOfcResponsive_Fill_7823dc {
 fill:#7823DC; 
}
</style>
<g id="Layer_3"></g><g id="Layer_1"></g><g id="Layer_2"></g><g id="Layer_4"></g><g id="Layer_5"><path d="M24.36 0 27.48 0C29.13 0 29.84 0.75 29.84 1.84L29.84 1.88C29.88 2.61 29.38 3.26 28.66 3.39 29.5 3.45 30.12 4.19 30.06 5.03 30.06 5.03 30.06 5.03 30.06 5.03L30.06 5.07C30.06 6.33 29.25 7.02 27.52 7.02L24.37 7.02 24.36 0 24.36 0ZM27.08 2.79C27.71 2.79 27.94 2.57 27.94 2.07L27.94 2.03C27.94 1.55 27.69 1.33 27.08 1.33L26.32 1.33 26.32 2.78 27.08 2.78 27.08 2.79ZM27.14 5.67C27.78 5.67 28.07 5.38 28.07 4.86L28.07 4.82C28.07 4.29 27.79 4.02 27.08 4.02L26.31 4.02 26.31 5.68 27.14 5.67 27.14 5.67Z" class="st1 MsftOfcResponsive_Fill_7823dc" fill="#7823DC" fill-rule="evenodd" clip-rule="evenodd"/><path d="M3.37 0 5.95 0 8.16 7.02 6.05 7.02 5.68 5.71 3.37 5.71 3 7.02 1.14 7.02 3.37 0 3.37 0ZM3.76 4.33 5.29 4.33 4.53 1.63 3.76 4.33 3.76 4.33Z" class="st1 MsftOfcResponsive_Fill_7823dc" fill="#7823DC" fill-rule="evenodd" clip-rule="evenodd"/><path d="M22.8 18.88 16.34 26.65 9.97 18.88 7.32 18.88 16.34 30 25.45 18.88 22.8 18.88 22.8 18.88 22.8 18.88Z" class="st0 MsftOfcResponsive_Fill_7823dc" fill="#7823DC"/><path d="M5.29 18.88 7.32 18.88 7.32 32.03 5.29 32.03 5.29 18.88 5.29 18.88Z" class="st0 MsftOfcResponsive_Fill_7823dc" fill="#7823DC"/><path d="M25.45 18.88 27.49 18.88 27.49 32.03 25.45 32.03 25.45 18.88 25.45 18.88Z" class="st0 MsftOfcResponsive_Fill_7823dc" fill="#7823DC"/><path d="M16.43 18.88C13.07 18.88 10.42 16.14 10.42 12.79 10.42 9.44 13.07 6.79 16.43 6.79 19.79 6.79 22.44 9.53 22.44 12.88 22.44 16.23 19.7 18.88 16.43 18.88L16.43 18.88ZM16.43 8.81C14.22 8.81 12.36 10.66 12.36 12.87 12.36 15.08 14.13 16.93 16.43 16.93 18.73 16.93 20.5 15.08 20.5 12.87 20.5 10.67 18.64 8.81 16.43 8.81L16.43 8.81Z" class="st0 MsftOfcResponsive_Fill_7823dc" fill="#7823DC"/></g></svg>