<svg viewBox="0 0 28 32" xmlns="http://www.w3.org/2000/svg" xmlns:xlink="http://www.w3.org/1999/xlink" id="Layer_1" overflow="hidden"><style>
.MsftOfcResponsive_Fill_7823dc {
 fill:#7823DC; 
}
</style>
<defs></defs><path d="M28 22 28 0 26 0 26 20 2 20 2 0 0 0 0 22 13 22 13 26 12 26 12 32 16 32 16 26 15 26 15 22 28 22Z" class="MsftOfcResponsive_Fill_7823dc" fill="#7823DC"/><rect x="22" y="0" width="2" height="10" class="MsftOfcResponsive_Fill_7823dc" fill="#7823DC"/><path d="M24 18 24 14 22 14 22 16 10.12 16 6 16 6 8 4 8 4 18 10.12 18 24 18Z" class="MsftOfcResponsive_Fill_7823dc" fill="#7823DC"/><rect x="4" y="0" width="2" height="4" class="MsftOfcResponsive_Fill_7823dc" fill="#7823DC"/></svg>