<svg viewBox="0 0 32 32" xmlns="http://www.w3.org/2000/svg" xmlns:xlink="http://www.w3.org/1999/xlink" id="Layer_1" xml:space="preserve" overflow="hidden"><g><path d="M12.2 17.9 10.2 17.9 10.2 16 13.2 11.6 13.1 5.5 11 5.5 11 3.5 15 3.6 15.2 12.2 12.2 16.6Z" fill="#7823DC"/><g><defs><path d="M-0.1 32 32 32 32 0-0.1 0-0.1 32Z" id="SVGID_1_" fill="#7823DC"/></defs><clipPath id="SVGID_00000011732576429757691760000018428585500761588379_"><use width="100%" height="100%" xlink:href="#SVGID_1_" overflow="visible"></use></clipPath><path d="M10.5 10 10.5 3.7 8.4 3.6 8.5 1.6 12.5 1.8 12.5 10Z" fill="#7823DC" clip-path="url(#SVGID_00000011732576429757691760000018428585500761588379_)"/><g clip-path="url(#SVGID_00000011732576429757691760000018428585500761588379_)"><defs><path d="M-0.1 32 32 32 32 0-0.1 0-0.1 32Z" id="SVGID_00000075869344117633152170000010948713414865238944_" fill="#7823DC"/></defs><clipPath id="SVGID_00000133506552378639418130000008453079915926886329_"><use width="100%" height="100%" xlink:href="#SVGID_00000075869344117633152170000010948713414865238944_" overflow="visible"></use></clipPath><path d="M7.2 10 5.2 10 5.3 0.1 9.9 0.1 9.8 10 7.8 9.9 7.9 2 7.3 2Z" fill="#7823DC" clip-path="url(#SVGID_00000133506552378639418130000008453079915926886329_)"/><g clip-path="url(#SVGID_00000133506552378639418130000008453079915926886329_)"><defs><path d="M-0.1 32 32 32 32 0-0.1 0-0.1 32Z" id="SVGID_00000104707496662806605620000011365874463683698821_" fill="#7823DC"/></defs><clipPath id="SVGID_00000083062682260178841680000001612053268762856068_"><use width="100%" height="100%" xlink:href="#SVGID_00000104707496662806605620000011365874463683698821_" overflow="visible"></use></clipPath><path d="M4.6 11.9 2.7 11.8 2.8 1.8 5.6 1.6 5.7 3.6 4.8 3.7Z" fill="#7823DC" clip-path="url(#SVGID_00000083062682260178841680000001612053268762856068_)"/><g clip-path="url(#SVGID_00000083062682260178841680000001612053268762856068_)"><defs><path d="M-0.1 32 32 32 32 0-0.1 0-0.1 32Z" id="SVGID_00000140702746105235446560000004088194781258463619_" fill="#7823DC"/></defs><clipPath id="SVGID_00000164472687217254146270000017390808819690494638_"><use width="100%" height="100%" xlink:href="#SVGID_00000140702746105235446560000004088194781258463619_" overflow="visible"></use></clipPath><path d="M3.8 17.4 3.7 17 0.1 13.3 0.1 7.7 3.2 7.7 3.2 9.7 2 9.7 2 12.5 5.5 16 5.7 16.9Z" fill="#7823DC" clip-path="url(#SVGID_00000164472687217254146270000017390808819690494638_)"/><g clip-path="url(#SVGID_00000164472687217254146270000017390808819690494638_)"><defs><path d="M-0.1 32 32 32 32 0-0.1 0-0.1 32Z" id="SVGID_00000021107658547548649740000003582451242500500124_" fill="#7823DC"/></defs><clipPath id="SVGID_00000141455238501750417840000002279344615176044161_"><use width="100%" height="100%" xlink:href="#SVGID_00000021107658547548649740000003582451242500500124_" overflow="visible"></use></clipPath><path d="M20.9 28.5 17 28.4 16.8 19.8 19.7 15.4 19.7 14.2 21.7 14.3 21.7 16 18.8 20.4 18.9 26.5 20.9 26.5Z" fill="#7823DC" clip-path="url(#SVGID_00000141455238501750417840000002279344615176044161_)"/><g clip-path="url(#SVGID_00000141455238501750417840000002279344615176044161_)"><defs><path d="M-0.1 32 32 32 32 0-0.1 0-0.1 32Z" id="SVGID_00000094600101287542785460000006806937041631699124_" fill="#7823DC"/></defs><clipPath id="SVGID_00000007396290058141267940000014934818681585821058_"><use width="100%" height="100%" xlink:href="#SVGID_00000094600101287542785460000006806937041631699124_" overflow="visible"></use></clipPath><path d="M23.5 30.4 19.5 30.2 19.5 22 21.5 22 21.5 28.3 23.6 28.4Z" fill="#7823DC" clip-path="url(#SVGID_00000007396290058141267940000014934818681585821058_)"/><g clip-path="url(#SVGID_00000007396290058141267940000014934818681585821058_)"><defs><path d="M-0.1 32 32 32 32 0-0.1 0-0.1 32Z" id="SVGID_00000041267649935240108150000006929313127841361800_" fill="#7823DC"/></defs><clipPath id="SVGID_00000018217890246295971970000003526870121074491538_"><use width="100%" height="100%" xlink:href="#SVGID_00000041267649935240108150000006929313127841361800_" overflow="visible"></use></clipPath><path d="M26.6 31.9 22.1 31.9 22.2 22 24.2 22 24.1 30 24.7 30 24.8 22 26.7 22Z" fill="#7823DC" clip-path="url(#SVGID_00000018217890246295971970000003526870121074491538_)"/><g clip-path="url(#SVGID_00000018217890246295971970000003526870121074491538_)"><defs><path d="M-0.1 32 32 32 32 0-0.1 0-0.1 32Z" id="SVGID_00000165925316850819131260000003082586492528188576_" fill="#7823DC"/></defs><clipPath id="SVGID_00000011729637207425196910000014748225775696192936_"><use width="100%" height="100%" xlink:href="#SVGID_00000165925316850819131260000003082586492528188576_" overflow="visible"></use></clipPath><path d="M26.4 30.4 26.3 28.4 27.2 28.3 27.4 20.1 29.3 20.1 29.2 30.2Z" fill="#7823DC" clip-path="url(#SVGID_00000011729637207425196910000014748225775696192936_)"/><g clip-path="url(#SVGID_00000011729637207425196910000014748225775696192936_)"><defs><path d="M-0.1 32 32 32 32 0-0.1 0-0.1 32Z" id="SVGID_00000163752358742630790540000011492663908647979947_" fill="#7823DC"/></defs><clipPath id="SVGID_00000063631499997547376470000012705796842889689728_"><use width="100%" height="100%" xlink:href="#SVGID_00000163752358742630790540000011492663908647979947_" overflow="visible"></use></clipPath><path d="M28.8 24.3 28.8 22.3 30 22.3 30 19.4 26.4 15.8 26.3 13.5 28.3 13.5 28.4 15 31.9 18.6 31.9 24.3Z" fill="#7823DC" clip-path="url(#SVGID_00000063631499997547376470000012705796842889689728_)"/><g clip-path="url(#SVGID_00000063631499997547376470000012705796842889689728_)"><defs><path d="M-0.1 32 32 32 32 0-0.1 0-0.1 32Z" id="SVGID_00000137822190143384001750000005376860073849905792_" fill="#7823DC"/></defs><clipPath id="SVGID_00000137852344814409480020000011448247211657095586_"><use width="100%" height="100%" xlink:href="#SVGID_00000137822190143384001750000005376860073849905792_" overflow="visible"></use></clipPath><path d="M18.2 21.7 16 21.7 11.6 18.8 5.5 18.9 5.5 20.9 3.5 20.9 3.6 17 12.2 16.8 16.6 19.7 18.2 19.7Z" fill="#7823DC" clip-path="url(#SVGID_00000137852344814409480020000011448247211657095586_)"/><g clip-path="url(#SVGID_00000137852344814409480020000011448247211657095586_)"><defs><path d="M-0.1 32 32 32 32 0-0.1 0-0.1 32Z" id="SVGID_00000160182964452236044370000005298632685469696408_" fill="#7823DC"/></defs><clipPath id="SVGID_00000051385626168985215270000012296706960303111306_"><use width="100%" height="100%" xlink:href="#SVGID_00000160182964452236044370000005298632685469696408_" overflow="visible"></use></clipPath><path d="M3.6 23.6 1.6 23.5 1.8 19.5 9.9 19.5 9.9 21.5 3.7 21.5Z" fill="#7823DC" clip-path="url(#SVGID_00000051385626168985215270000012296706960303111306_)"/><g clip-path="url(#SVGID_00000051385626168985215270000012296706960303111306_)"><defs><path d="M-0.1 32 32 32 32 0-0.1 0-0.1 32Z" id="SVGID_00000104691626058489809430000005801925396871771034_" fill="#7823DC"/></defs><clipPath id="SVGID_00000077289816046778703400000007750351894535716781_"><use width="100%" height="100%" xlink:href="#SVGID_00000104691626058489809430000005801925396871771034_" overflow="visible"></use></clipPath><path d="M10 26.7 0 26.6 0 22.1 10 22.2 10 24.2 2 24.1 2 24.7 10 24.8Z" fill="#7823DC" clip-path="url(#SVGID_00000077289816046778703400000007750351894535716781_)"/><g clip-path="url(#SVGID_00000077289816046778703400000007750351894535716781_)"><defs><path d="M-0.1 32 32 32 32 0-0.1 0-0.1 32Z" id="SVGID_00000025438494616376612520000011443461193744955524_" fill="#7823DC"/></defs><clipPath id="SVGID_00000093134584514159424240000002199449439023689395_"><use width="100%" height="100%" xlink:href="#SVGID_00000025438494616376612520000011443461193744955524_" overflow="visible"></use></clipPath><path d="M11.8 29.3 1.7 29.2 1.6 26.4 3.6 26.3 3.6 27.2 11.9 27.4Z" fill="#7823DC" clip-path="url(#SVGID_00000093134584514159424240000002199449439023689395_)"/><g clip-path="url(#SVGID_00000093134584514159424240000002199449439023689395_)"><defs><path d="M-0.1 32 32 32 32 0-0.1 0-0.1 32Z" id="SVGID_00000016756757648508729330000010089144761355240627_" fill="#7823DC"/></defs><clipPath id="SVGID_00000120556925077925649510000000362358109213478826_"><use width="100%" height="100%" xlink:href="#SVGID_00000016756757648508729330000010089144761355240627_" overflow="visible"></use></clipPath><path d="M13.3 31.9 7.7 31.9 7.7 28.8 9.7 28.8 9.7 30 12.5 30 16.1 26.5 17.5 26.3 17.7 28.3 17 28.3Z" fill="#7823DC" clip-path="url(#SVGID_00000120556925077925649510000000362358109213478826_)"/><g clip-path="url(#SVGID_00000120556925077925649510000000362358109213478826_)"><defs><path d="M-0.1 32 32 32 32 0-0.1 0-0.1 32Z" id="SVGID_00000173150953827207397350000013450123818800115590_" fill="#7823DC"/></defs><clipPath id="SVGID_00000071522292955941849330000002436321463865521816_"><use width="100%" height="100%" xlink:href="#SVGID_00000173150953827207397350000013450123818800115590_" overflow="visible"></use></clipPath><path d="M19.8 15.2 15.4 12.3 13.4 12.3 13.4 10.3 16 10.3 20.4 13.2 26.5 13.1 26.5 11.1 28.5 11.1 28.4 15Z" fill="#7823DC" clip-path="url(#SVGID_00000071522292955941849330000002436321463865521816_)"/><g clip-path="url(#SVGID_00000071522292955941849330000002436321463865521816_)"><defs><path d="M-0.1 32 32 32 32 0-0.1 0-0.1 32Z" id="SVGID_00000016791444318881311450000005432883131399499421_" fill="#7823DC"/></defs><clipPath id="SVGID_00000136395341469350326160000008272116245066509721_"><use width="100%" height="100%" xlink:href="#SVGID_00000016791444318881311450000005432883131399499421_" overflow="visible"></use></clipPath><path d="M22 12.5 22 10.5 28.3 10.5 28.4 8.4 30.4 8.5 30.2 12.5Z" fill="#7823DC" clip-path="url(#SVGID_00000136395341469350326160000008272116245066509721_)"/><g clip-path="url(#SVGID_00000136395341469350326160000008272116245066509721_)"><defs><path d="M-0.1 32 32 32 32 0-0.1 0-0.1 32Z" id="SVGID_00000037652384391879389690000012406609292621978025_" fill="#7823DC"/></defs><clipPath id="SVGID_00000026856389270722018100000003098845071421484195_"><use width="100%" height="100%" xlink:href="#SVGID_00000037652384391879389690000012406609292621978025_" overflow="visible"></use></clipPath><path d="M31.9 9.9 22 9.8 22.1 7.8 30 7.9 30 7.3 22 7.2 22 5.2 31.9 5.3Z" fill="#7823DC" clip-path="url(#SVGID_00000026856389270722018100000003098845071421484195_)"/><g clip-path="url(#SVGID_00000026856389270722018100000003098845071421484195_)"><defs><path d="M-0.1 32 32 32 32 0-0.1 0-0.1 32Z" id="SVGID_00000155854492150064160710000000641246344761183623_" fill="#7823DC"/></defs><clipPath id="SVGID_00000034090434812445233370000013248225867484361897_"><use width="100%" height="100%" xlink:href="#SVGID_00000155854492150064160710000000641246344761183623_" overflow="visible"></use></clipPath><path d="M28.4 5.7 28.3 4.8 20.1 4.6 20.2 2.7 30.2 2.8 30.4 5.6Z" fill="#7823DC" clip-path="url(#SVGID_00000034090434812445233370000013248225867484361897_)"/><g clip-path="url(#SVGID_00000034090434812445233370000013248225867484361897_)"><defs><path d="M-0.1 32 32 32 32 0-0.1 0-0.1 32Z" id="SVGID_00000033333422560182842500000012543736140810846343_" fill="#7823DC"/></defs><clipPath id="SVGID_00000020369226730848946070000009938732215484517764_"><use width="100%" height="100%" xlink:href="#SVGID_00000033333422560182842500000012543736140810846343_" overflow="visible"></use></clipPath><path d="M14 5.7 13.8 3.7 15 3.6 18.7 0.1 24.3 0.1 24.3 3.2 22.3 3.2 22.3 2 19.5 2 15.9 5.5Z" fill="#7823DC" clip-path="url(#SVGID_00000020369226730848946070000009938732215484517764_)"/></g></g></g></g></g></g></g></g></g></g></g></g></g></g></g></g></g></g></g></g></svg>