<svg viewBox="0 0 32 32" xmlns="http://www.w3.org/2000/svg" xmlns:xlink="http://www.w3.org/1999/xlink" id="Graphic" overflow="hidden"><defs></defs><path d="M28 3.22 28 30 4 30 4 3.72 6.93 5.67 7.76 6.22 8.7 5.89 13.75 4.11 18.84 7.64 20 8.42 21.14 7.66 27 3.73 28 3.22M30 0 26 2 20 6 14.05 1.88 8 4 2 0 2 32 30 32 30 0Z" fill="#7823DC"/><path d="M16 16 6 16 6 18 16 18 16 16 16 16Z" fill="#7823DC"/><path d="M16 20 6 20 6 22 16 22 16 20 16 20Z" fill="#7823DC"/><path d="M16 24 6 24 6 26 16 26 16 24 16 24Z" fill="#7823DC"/><path d="M16 12 6 12 6 14 16 14 16 12 16 12Z" fill="#7823DC"/><path d="M23.43 16 21.43 16 21.43 16.91C20.1246 16.9672 19.0855 18.0238 19.05 19.33 19.05 20.78 19.77 21.49 21.43 21.81L21.43 23.37C21.1426 23.1633 20.9686 22.8339 20.96 22.48L18.87 22.48C18.9002 23.8912 20.0198 25.0371 21.43 25.1L21.43 26 23.43 26 23.43 25.11C24.8604 25.0991 26.011 23.9306 26.0001 22.5003 26.0001 22.4968 26 22.4934 26 22.49 26 20.95 25 20.34 23.43 20.07L23.43 18.58C23.6719 18.7425 23.8237 19.009 23.84 19.3L25.89 19.3C25.8371 17.9738 24.7571 16.9202 23.43 16.9L23.43 16ZM21.43 19.74C21.2026 19.6412 21.0651 19.4067 21.09 19.16 21.0926 18.9227 21.2224 18.7051 21.43 18.59L21.43 19.74ZM23.43 23.45 23.43 22.13C23.7161 22.189 23.9159 22.4484 23.9 22.74 23.9003 23.0496 23.7152 23.3294 23.43 23.45Z" fill="#7823DC"/></svg>