<svg viewBox="0 0 32 32" xmlns="http://www.w3.org/2000/svg" xmlns:xlink="http://www.w3.org/1999/xlink" id="Text" overflow="hidden"><style>
.MsftOfcResponsive_Fill_7823dc {
 fill:#7823DC; 
}
</style>
<defs></defs><path d="M19.75 2 26.25 5.75 30 12.25 30 19.75 26.25 26.25 19.75 30 12.25 30 5.75 26.25 2 19.75 2 12.25 5.75 5.75 12.25 2 19.75 2M20.29 0 11.71 0 4.29 4.29 0 11.71 0 20.29 4.29 27.71 11.71 32 20.29 32 27.71 27.71 32 20.29 32 11.71 27.71 4.29 20.29 0Z" class="MsftOfcResponsive_Fill_7823dc" fill="#7823DC"/><path d="M18.53 6.7 22.9 9.22 25.43 13.6 25.43 18.6 22.9 23 18.53 25.52 13.47 25.52 9.1 23 6.57 18.65 6.57 13.65 9.1 9.22 13.47 6.7 18.53 6.7M19.06 4.7 12.94 4.7 7.63 7.76 4.57 13.06 4.57 19.19 7.63 24.49 12.94 27.55 19.06 27.55 24.37 24.49 27.43 19.19 27.43 13.06 24.37 7.76 19.06 4.7Z" class="MsftOfcResponsive_Fill_7823dc" fill="#7823DC"/><path d="M17.17 10.01 15.32 10.01 11.53 12.75 11.53 14.6 15.18 11.97 15.18 22.24 17.17 22.24 17.17 10.01 17.17 10.01Z" class="MsftOfcResponsive_Fill_7823dc" fill="#7823DC"/></svg>