<svg viewBox="0 0 32 32" xmlns="http://www.w3.org/2000/svg" xmlns:xlink="http://www.w3.org/1999/xlink" id="Graphic" xml:space="preserve" overflow="hidden"><g><g><defs><path d="M7.7 32.2 24.3 32.2 24.3-1 7.7-1 7.7 32.2Z" id="SVGID_1_" fill="#7823DC"/></defs><defs><path d="M7.7-1 24.3-1 24.3 32.2 7.7 32.2 7.7-1Z" id="SVGID_00000096050330926493996600000015731525918866958490_" fill="#7823DC"/></defs><clipPath id="SVGID_00000020362271707080467200000000989071414326008242_"><use width="100%" height="100%" xlink:href="#SVGID_1_" overflow="visible"></use></clipPath><clipPath id="SVGID_00000013886683664246602740000011381449034940089776_" clip-path="url(#SVGID_00000020362271707080467200000000989071414326008242_)"><use width="100%" height="100%" xlink:href="#SVGID_00000096050330926493996600000015731525918866958490_" overflow="visible"></use></clipPath><g clip-path="url(#SVGID_00000013886683664246602740000011381449034940089776_)"><defs><path d="M7.7 32.2 24.3 32.2 24.3-1 7.7-1 7.7 32.2Z" id="SVGID_00000085212847461585159150000013436317647791638677_" fill="#7823DC"/></defs><clipPath id="SVGID_00000031177294019505961470000002791835339596209792_"><use width="100%" height="100%" xlink:href="#SVGID_00000085212847461585159150000013436317647791638677_" overflow="visible"></use></clipPath><path d="M19.6 2 18.9 4 13.9 4 13.2 2 19.6 2M22.3 0 10.6 0 12.5 6 20.3 6 22.3 0 22.3 0 22.3 0 22.3 0Z" fill="#7823DC" clip-path="url(#SVGID_00000031177294019505961470000002791835339596209792_)"/><path d="M18.8 6 22.2 23.3 16.5 29.1 10.8 23.3 14.2 6 18.8 6M20.3 4 12.5 4 8.7 24 16.5 32 24.3 24 20.3 4 20.3 4 20.3 4 20.3 4Z" fill="#7823DC" clip-path="url(#SVGID_00000031177294019505961470000002791835339596209792_)"/><path d="M21.2 25.5 11.1 15.3 11.7 13 22.6 24.1 21.2 25.5Z" fill="#7823DC" clip-path="url(#SVGID_00000031177294019505961470000002791835339596209792_)"/><path d="M18.9 28.9 9.9 19.6 10.6 17.5 20.3 27.5 18.9 28.9Z" fill="#7823DC" clip-path="url(#SVGID_00000031177294019505961470000002791835339596209792_)"/><path d="M21.6 14.7 12.6 5.5 14 4.1 21 11.2 21.6 14.7Z" fill="#7823DC" clip-path="url(#SVGID_00000031177294019505961470000002791835339596209792_)"/><path d="M22.3 21 12.2 10.7 12.6 8.3 22.6 18.5 22.3 21Z" fill="#7823DC" clip-path="url(#SVGID_00000031177294019505961470000002791835339596209792_)"/></g></g></g></svg>