<svg viewBox="0 0 31.88 32" xmlns="http://www.w3.org/2000/svg" xmlns:xlink="http://www.w3.org/1999/xlink" id="Layer_1" overflow="hidden"><style>
.MsftOfcResponsive_Fill_7823dc {
 fill:#7823DC; 
}
</style>
<defs></defs><path d="M15.94 32C12.56 32 9.75 30.61 8.02 28.08 6.02 25.14 6.17 21.23 8.41 18.1L9.17 17.09 10.77 18.29 10.02 19.29C8.29 21.71 8.15 24.73 9.67 26.96 11.01 28.93 13.24 30.01 15.94 30.01 17.96 30.01 20.68 29.51 22.19 27.11 23.31 25.48 23.54 23.25 22.83 21.11L22.46 19.99 24.36 19.36 24.73 20.48C25.64 23.21 25.31 26.09 23.86 28.21 22.3 30.68 19.55 32 15.94 32Z" class="MsftOfcResponsive_Fill_7823dc" fill="#7823DC"/><path d="M22.71 29.25 22.36 27.28C24.43 26.91 26.19 26.08 27.58 24.79 29.07 23.3 29.87 21.44 29.87 19.43 29.87 15.96 27.62 12.42 24 10.2 22.1 8.93 20.17 7.65 18.49 6.1 17.3 5.03 16.5 3.55 16.26 2.01L15.61 2.01C15.36 3.55 14.56 5.03 13.37 6.11 11.7 7.65 9.77 8.94 7.9 10.18 4.25 12.42 2 15.91 2 19.31 2 21.32 2.8 23.18 4.32 24.7 5.82 26.08 7.64 26.94 9.57 27.15L9.35 29.14C6.99 28.88 4.77 27.84 2.93 26.14 1.03 24.24-0.01 21.82-0.01 19.31-0.01 15.16 2.54 11.12 6.82 8.5 8.59 7.32 10.45 6.08 12.02 4.63 13.07 3.69 13.69 2.34 13.69 1.01L13.69 0 18.18 0 18.18 1C18.18 2.33 18.8 3.68 19.84 4.61 21.41 6.06 23.28 7.3 25.08 8.51 29.26 11.07 31.87 15.26 31.87 19.43 31.87 21.95 30.84 24.36 28.96 26.24 27.25 27.82 25.16 28.82 22.7 29.26Z" class="MsftOfcResponsive_Fill_7823dc" fill="#7823DC"/></svg>