<svg viewBox="0 0 31.94 32" xmlns="http://www.w3.org/2000/svg" xmlns:xlink="http://www.w3.org/1999/xlink" id="Layer_1" overflow="hidden"><style>
.MsftOfcResponsive_Fill_7823dc {
 fill:#7823DC; 
}
</style>
<defs></defs><path d="M24.72 32C23.7 32 22.68 31.69 21.91 31.08 21.09 30.43 19.59 30.43 18.77 31.08 17.22 32.31 14.7 32.31 13.15 31.08 12.33 30.43 10.83 30.43 10.01 31.08 8.46 32.31 5.94 32.31 4.39 31.08 3.57 30.43 2.07 30.43 1.25 31.08L0.01 29.51C1.56 28.28 4.08 28.28 5.63 29.51 6.45 30.16 7.95 30.16 8.77 29.51 10.32 28.28 12.84 28.28 14.39 29.51 15.21 30.16 16.71 30.16 17.53 29.51 19.08 28.28 21.6 28.28 23.15 29.51 23.97 30.16 25.47 30.16 26.29 29.51 27.84 28.28 30.36 28.28 31.91 29.51L30.67 31.08C29.85 30.43 28.35 30.43 27.53 31.08 26.75 31.69 25.74 32 24.72 32Z" class="MsftOfcResponsive_Fill_7823dc" fill="#7823DC"/><path d="M24.72 26.7C23.7 26.7 22.68 26.39 21.91 25.78 21.09 25.13 19.59 25.13 18.77 25.78 17.22 27.01 14.7 27 13.15 25.78 12.33 25.13 10.83 25.13 10.01 25.78 8.46 27.01 5.94 27 4.39 25.78 3.57 25.13 2.07 25.13 1.25 25.78L0.01 24.21C1.56 22.98 4.08 22.98 5.63 24.21 6.45 24.86 7.95 24.86 8.77 24.21 10.32 22.99 12.84 22.98 14.39 24.21 15.21 24.86 16.71 24.86 17.53 24.21 19.08 22.99 21.6 22.98 23.15 24.21 23.97 24.86 25.47 24.86 26.29 24.21 27.84 22.99 30.36 22.98 31.91 24.21L30.67 25.78C29.85 25.13 28.35 25.13 27.53 25.78 26.75 26.39 25.74 26.7 24.72 26.7Z" class="MsftOfcResponsive_Fill_7823dc" fill="#7823DC"/><path d="M10.87 24.41 8.87 24.41 8.87 5.1C8.87 2.34 11.2 0 13.97 0 16.74 0 19.07 2.33 19.07 5.1L19.07 6.86 17.07 6.86 17.07 5.1C17.07 3.42 15.65 2 13.97 2 12.29 2 10.87 3.42 10.87 5.1L10.87 24.41Z" class="MsftOfcResponsive_Fill_7823dc" fill="#7823DC"/><path d="M23.74 25.42 21.74 25.42 21.74 5.1C21.74 2.34 24.07 0 26.84 0 29.61 0 31.94 2.33 31.94 5.1L31.94 6.86 29.94 6.86 29.94 5.1C29.94 3.42 28.52 2 26.84 2 25.16 2 23.74 3.42 23.74 5.1L23.74 25.43Z" class="MsftOfcResponsive_Fill_7823dc" fill="#7823DC"/><rect x="13.38" y="10.54" width="9.36" height="2" class="MsftOfcResponsive_Fill_7823dc" fill="#7823DC"/><rect x="13.38" y="15.22" width="9.36" height="2" class="MsftOfcResponsive_Fill_7823dc" fill="#7823DC"/><rect x="13.38" y="19.9" width="9.36" height="2" class="MsftOfcResponsive_Fill_7823dc" fill="#7823DC"/></svg>