<svg viewBox="0 0 32 32" xmlns="http://www.w3.org/2000/svg" xmlns:xlink="http://www.w3.org/1999/xlink" xml:space="preserve" overflow="hidden"><style>
.MsftOfcResponsive_Fill_7823dc {
 fill:#7823DC; 
}
</style>
<g id="Layer_3"></g><g id="Layer_1"></g><g id="Layer_2"><path d="M32.04 32.02 0 32.02 0 0.02 32.04 0.02 32.04 32.02ZM2 30.02 30.04 30.02 30.04 2.02 2 2.02 2 30.02Z" class="MsftOfcResponsive_Fill_7823dc" fill="#7823DC"/><g><path d="M3.91 13.16 5.68 13.16 5.68 17.48 8.44 17.48 8.44 18.89 3.91 18.89 3.91 13.16Z" class="MsftOfcResponsive_Fill_7823dc" fill="#7823DC"/><path d="M8.88 16.02C8.88 15.09 9.14 14.36 9.66 13.84 10.18 13.32 10.91 13.06 11.84 13.06 12.79 13.06 13.53 13.32 14.04 13.83 14.55 14.34 14.81 15.06 14.81 15.98 14.81 16.65 14.7 17.2 14.47 17.63 14.24 18.06 13.92 18.39 13.49 18.63 13.06 18.87 12.53 18.99 11.9 18.99 11.25 18.99 10.72 18.89 10.3 18.68 9.88 18.47 9.53 18.15 9.27 17.7 9.01 17.25 8.88 16.69 8.88 16.02ZM10.65 16.03C10.65 16.61 10.76 17.02 10.97 17.28 11.18 17.54 11.48 17.66 11.85 17.66 12.23 17.66 12.52 17.54 12.73 17.29 12.94 17.04 13.04 16.6 13.04 15.96 13.04 15.42 12.93 15.03 12.71 14.78 12.49 14.53 12.2 14.41 11.83 14.41 11.47 14.41 11.19 14.54 10.97 14.79 10.75 15.04 10.65 15.45 10.65 16.03Z" class="MsftOfcResponsive_Fill_7823dc" fill="#7823DC"/><path d="M18.65 16.81 18.65 15.62 21.38 15.62 21.38 18.06C20.86 18.42 20.39 18.66 19.99 18.79 19.59 18.92 19.11 18.98 18.56 18.98 17.88 18.98 17.33 18.86 16.9 18.63 16.47 18.4 16.14 18.05 15.9 17.59 15.66 17.13 15.55 16.61 15.55 16.01 15.55 15.39 15.68 14.84 15.94 14.38 16.2 13.92 16.58 13.57 17.07 13.33 17.46 13.15 17.98 13.05 18.64 13.05 19.27 13.05 19.75 13.11 20.06 13.22 20.37 13.33 20.63 13.51 20.84 13.75 21.05 13.99 21.2 14.3 21.31 14.67L19.6 14.97C19.53 14.75 19.41 14.59 19.24 14.47 19.07 14.35 18.86 14.3 18.6 14.3 18.21 14.3 17.9 14.43 17.67 14.7 17.44 14.97 17.32 15.4 17.32 15.98 17.32 16.6 17.44 17.04 17.67 17.31 17.9 17.58 18.23 17.71 18.64 17.71 18.84 17.71 19.03 17.68 19.21 17.62 19.39 17.56 19.6 17.46 19.83 17.33L19.83 16.79 18.65 16.79Z" class="MsftOfcResponsive_Fill_7823dc" fill="#7823DC"/><path d="M22.21 16.02C22.21 15.09 22.47 14.36 22.99 13.84 23.51 13.32 24.24 13.06 25.17 13.06 26.12 13.06 26.86 13.32 27.37 13.83 27.88 14.34 28.14 15.06 28.14 15.98 28.14 16.65 28.03 17.2 27.8 17.63 27.57 18.06 27.25 18.39 26.82 18.63 26.39 18.87 25.86 18.99 25.23 18.99 24.58 18.99 24.05 18.89 23.63 18.68 23.21 18.47 22.86 18.15 22.6 17.7 22.34 17.25 22.21 16.69 22.21 16.02ZM23.98 16.03C23.98 16.61 24.09 17.02 24.3 17.28 24.51 17.54 24.81 17.66 25.18 17.66 25.56 17.66 25.85 17.54 26.06 17.29 26.27 17.04 26.37 16.6 26.37 15.96 26.37 15.42 26.26 15.03 26.04 14.78 25.82 14.53 25.53 14.41 25.16 14.41 24.8 14.41 24.52 14.54 24.3 14.79 24.08 15.04 23.98 15.45 23.98 16.03Z" class="MsftOfcResponsive_Fill_7823dc" fill="#7823DC"/></g></g></svg>