<svg viewBox="0 0 32 32" xmlns="http://www.w3.org/2000/svg" xmlns:xlink="http://www.w3.org/1999/xlink" id="Graphic" xml:space="preserve" overflow="hidden"><path d="M29.2 18 20.6 20.8 20.6 19.6 20.6 17.3 18.4 17.6 15.3 18 10.4 16 9.5 15.7 8.7 16.2 5.5 18 2.3 18 0.3 18 0.3 20 0.3 26 0.3 28 2.3 28 5.5 28 15.3 32 30.8 23.7 31.8 23.2 31.8 22 31.8 20 31.8 17.2 29.2 18 29.2 18 29.2 18 29.2 18 29.2 18ZM29.8 22 15 29.8 5.9 26 2.3 26 2.3 20 6 20 9.7 18 15.1 20 18.8 19.5 18.8 21.5 17.8 22 14.1 22.8 14.1 24.5 18 23.8 18 23.8 29.8 20 29.8 22 29.8 22 29.8 22 29.8 22 29.8 22Z" fill="#7823DC" fill-rule="evenodd" clip-rule="evenodd"/><g><path d="M16 2C19.2 2 21.9 4.7 21.9 8 21.9 11.3 19.2 13.7 16 13.7 12.8 13.7 10.1 11.2 10.1 8 10.1 4.8 12.8 2 16 2M16 0C11.8 0 8.1 3.5 8.1 8 8.1 12.2 11.8 15.7 16 15.7 20.2 15.7 23.9 12.2 23.9 8 23.9 3.5 20.2 0 16 0L16 0Z" fill="#7823DC" fill-rule="evenodd" clip-rule="evenodd"/><g><path d="M11.8 6.8 20.2 6.8 20.2 8.9 11.8 8.9Z" fill="#7823DC"/><path d="M17 3.6 17 12.1 15 12.1 15 3.6Z" fill="#7823DC"/></g></g></svg>