<svg viewBox="0 0 32 32" xmlns="http://www.w3.org/2000/svg" xmlns:xlink="http://www.w3.org/1999/xlink" id="Layer_1" xml:space="preserve" overflow="hidden"><path d="M29.8 12 29.8 11.9C29.7 11.3 29.5 10.8 29.3 10.2L29.3 10.1C29.2 9.8 29.1 9.5 29 9.3 26.6 3.8 21.3 0 15.1 0 6.8 0 0 6.9 0 15.5 0 20.9 2.7 25.7 6.9 28.5L8.1 26.9C4.4 24.5 2 20.2 2 15.5 2 8 7.9 2 15.1 2 20.7 2 25.6 5.7 27.4 10.8 27.4 10.9 27.5 11 27.5 11.2 27.6 11.6 27.7 12 27.8 12.4L27.8 12.5C28.4 14.7 29 17.4 29.4 19.3 29.4 19.5 29.5 19.7 29.5 19.8 29.5 19.6 29.6 19.4 29.6 19.3 29.9 18.1 30.1 16.8 30.1 15.5 30.2 14.3 30.1 13.1 29.8 12Z" fill="#7823DC"/><path d="M32 22.3 26.4 22.3 26.4 32 17 32 17 30 24.3 30 24.3 20.3 29.5 20.3C29.5 20.1 29.4 19.9 29.4 19.7 29 17.8 28.3 14.6 27.7 12.2L27.7 12.1C27.6 11.7 27.5 11.3 27.4 10.9 27.4 10.8 27.3 10.6 27.3 10.5 27.2 10.2 27.1 9.8 27 9.6L28.8 8.9 28.8 9.9C28.9 10.2 29 9.5 29.1 9.8L29.1 9.9C29.3 10.4 29.4 11 29.6 11.6L29.6 11.7C30.6 15.5 31.6 20.9 31.7 21.2L32 22.3Z" fill="#7823DC"/><path d="M20.9 17.4C20.9 17.4 20.9 17.4 20.9 17.4 20.4 17.4 20 17.1 19.8 16.7L18.6 13.4 17.4 16.7C17.2 17.1 16.8 17.4 16.3 17.4L9.6 17.4C9.2 17.4 8.8 17.2 8.6 16.8L7.3 14.5 6 16.8C5.8 17.2 5.4 17.4 5 17.4L1.6 17.4C1 17.4 0.5 16.9 0.5 16.3 0.5 15.7 1 15.2 1.6 15.2L4.3 15.2 6.3 11.6C6.6 11.1 7.4 10.9 7.9 11.2 8.1 11.3 8.2 11.4 8.3 11.6L10.3 15.2 15.6 15.2 17.6 9.6C17.8 9.1 18.4 8.8 19 9 19.3 9.1 19.6 9.4 19.7 9.7L21.1 13.6 22.1 11.7C22.4 11.2 23.2 11 23.7 11.3 23.9 11.4 24 11.5 24.1 11.7L26.1 15.3 28.8 15.3C29.4 15.3 29.9 15.8 29.9 16.4 29.9 17 29.4 17.5 28.8 17.5L25.4 17.5C25 17.5 24.6 17.3 24.4 16.9L23.1 14.6 21.8 16.9C21.7 17.2 21.4 17.4 20.9 17.4L20.9 17.4Z" fill="#7823DC" fill-rule="evenodd" clip-rule="evenodd"/></svg>