<svg viewBox="0 0 52.52 52.66" xmlns="http://www.w3.org/2000/svg" xmlns:xlink="http://www.w3.org/1999/xlink" id="Layer_6" overflow="hidden"><defs></defs><path d="M52.52 46.07 26.22 46.07 26.22 42.77 49.23 42.77 49.23 3.3 3.29 3.3 3.29 42.77 6.5 42.77 6.5 46.07 0 46.07 0 0 52.52 0 52.52 46.07Z" stroke-width="0" fill="#7823DC"/><path d="M45.94 19.7 6.57 19.7 6.57 6.52 45.94 6.52 45.94 19.7ZM9.86 16.4 42.65 16.4 42.65 9.81 9.86 9.81 9.86 16.4Z" stroke-width="0" fill="#7823DC"/><path d="M24.63 52.66 8.16 52.66 8.16 23.05 24.63 23.05 24.63 52.66ZM11.45 49.36 21.35 49.36 21.35 26.34 11.45 26.34 11.45 49.36Z" stroke-width="0" fill="#7823DC"/><rect x="6.54" y="23.03" width="19.72" height="3.3" stroke-width="0" fill="#7823DC"/><rect x="29.51" y="23" width="3.29" height="3.3" stroke-width="0" fill="#7823DC"/><rect x="29.51" y="23.05" width="3.29" height="3.3" stroke-width="0" fill="#7823DC"/><rect x="36.08" y="23.05" width="3.29" height="3.3" stroke-width="0" fill="#7823DC"/><rect x="42.66" y="23.05" width="3.29" height="3.3" stroke-width="0" fill="#7823DC"/><rect x="29.51" y="29.64" width="3.29" height="3.3" stroke-width="0" fill="#7823DC"/><rect x="36.08" y="29.64" width="3.29" height="3.3" stroke-width="0" fill="#7823DC"/><rect x="42.66" y="29.64" width="3.29" height="3.3" stroke-width="0" fill="#7823DC"/><rect x="29.51" y="36.12" width="3.29" height="3.3" stroke-width="0" fill="#7823DC"/><rect x="36.08" y="36.12" width="3.29" height="3.3" stroke-width="0" fill="#7823DC"/><rect x="42.66" y="36.12" width="3.29" height="3.3" stroke-width="0" fill="#7823DC"/></svg>