<svg viewBox="0 0 32 32" xmlns="http://www.w3.org/2000/svg" xmlns:xlink="http://www.w3.org/1999/xlink" id="Layer_2_1_" xml:space="preserve" overflow="hidden"><path d="M32 29.4 32 32 20.4 22.8 21.6 21.2Z" fill="#7823DC"/><g><path d="M12.9 2C18.9 2 23.8 6.9 23.8 12.9 23.8 18.9 18.9 23.8 12.9 23.8 6.9 23.8 2 18.9 2 12.9 2 6.9 6.9 2 12.9 2M12.9 0C5.8 0 0 5.8 0 12.9 0 20 5.8 25.8 12.9 25.8 20 25.8 25.8 20 25.8 12.9 25.8 5.8 20 0 12.9 0L12.9 0 12.9 0 12.9 0Z" fill="#7823DC" fill-rule="evenodd" clip-rule="evenodd"/><g><path d="M17.1 12.4C17.6 12.4 17.9 12.8 17.9 13.2L17.9 15.4 7.9 15.4 7.9 13.2C7.9 12.7 8.3 12.4 8.7 12.4L17.1 12.4M17.1 10.4 8.7 10.4C7.1 10.4 5.9 11.7 5.9 13.2L5.9 17.4 19.9 17.4 19.9 13.2C19.9 11.6 18.6 10.4 17.1 10.4L17.1 10.4Z" fill="#7823DC"/><path d="M15.9 12.9C15.3 12.9 14.9 13.3 14.9 13.9 14.9 14.5 15.3 14.9 15.9 14.9 16.5 14.9 16.9 14.5 16.9 13.9 16.9 13.3 16.5 12.9 15.9 12.9L15.9 12.9Z" fill="#7823DC"/><path d="M9.9 12.9C9.3 12.9 8.9 13.3 8.9 13.9 8.9 14.5 9.3 14.9 9.9 14.9 10.5 14.9 10.9 14.5 10.9 13.9 10.9 13.3 10.5 12.9 9.9 12.9L9.9 12.9Z" fill="#7823DC"/><path d="M16.9 12 16.1 8.8 9.7 8.8 8.9 12 6.9 11.5 8.1 6.8 17.7 6.8 18.9 11.5Z" fill="#7823DC"/><rect x="7.9" y="16" width="2" height="3" fill="#7823DC" fill-rule="evenodd" clip-rule="evenodd"/><rect x="15.9" y="16" width="2" height="3" fill="#7823DC" fill-rule="evenodd" clip-rule="evenodd"/></g></g></svg>