<svg viewBox="0 0 32 32" xmlns="http://www.w3.org/2000/svg" xmlns:xlink="http://www.w3.org/1999/xlink" id="Layer_1" xml:space="preserve" overflow="hidden"><style>
.MsftOfcResponsive_Fill_7823dc {
 fill:#7823DC; 
}
</style>
<g><path d="M14.7 22 2.6 29.7C5.3 30.6 10.8 29.4 13.6 27.7L20 23.2C20 22.9 19.9 22.5 19.9 22.3L19.4 21.5 22.6 19.3 24.3 18.2 29.3 14.8 30.4 16.5 22 22.3C22.1 22.9 22.1 23.8 21.8 24.3 21.6 24.6 21.3 24.9 21 25L14.8 29.4C12.4 30.8 8.3 32 5 32 3.3 32 1.9 31.7 0.8 31 0.4 30.7 0.1 30.2 0.1 29.7 0.1 29.2 0.4 28.7 0.8 28.4L13.6 20.2 32 8 32 10.4 23.1 16.4 21.4 17.5 14.7 22Z" class="MsftOfcResponsive_Fill_7823dc" fill="#7823DC"/><rect x="21.6" y="15.4" width="2" height="4.2" class="MsftOfcResponsive_Fill_7823dc" fill="#7823DC" transform="matrix(0.8429 -0.5381 0.5381 0.8429 -5.8938 14.9468)"/></g><path d="M8.5 2C12.1 2 15 4.9 15 8.5 15 12.1 12.1 15 8.5 15 4.9 15 2 12.1 2 8.5 2 4.9 4.9 2 8.5 2M8.5 0C3.8 0 0 3.8 0 8.5 0 13.2 3.8 17 8.5 17 13.2 17 17 13.2 17 8.5 17 3.8 13.2 0 8.5 0L8.5 0Z" class="MsftOfcResponsive_Fill_7823dc" fill="#7823DC"/><path d="M9.5 4 7.5 4 7.5 13 9.5 13 9.5 4Z" class="MsftOfcResponsive_Fill_7823dc" fill="#7823DC"/><path d="M13 7.5 4 7.5 4 9.5 13 9.5 13 7.5Z" class="MsftOfcResponsive_Fill_7823dc" fill="#7823DC"/><rect x="0" y="30" width="32" height="2" class="MsftOfcResponsive_Fill_7823dc" fill="#7823DC"/></svg>