<svg viewBox="0 0 32 32" xmlns="http://www.w3.org/2000/svg" xmlns:xlink="http://www.w3.org/1999/xlink" overflow="hidden"><defs></defs><g id="Layer_5"><path d="M28.02 23.85 24.41 20.25 27.97 16.71 26.55 15.29 23 18.84 19.45 15.29 18.03 16.71 21.58 20.25 17.98 23.85 19.4 25.27 23 21.67 26.6 25.27 28.02 23.85Z" fill="#7823DC"/><path d="M15.16 4 17.05 4 17.05 2 15.14 2C13.2228 2.01578 11.5983 3.41605 11.3 5.31L10.3 12 6.32 12 6.32 14 10 14 8.06 26.36C7.91656 27.3038 7.10465 28.0009 6.15 28L4 28 4 30 6.15 30C8.08067 29.996 9.71783 28.5799 10 26.67L12 14 15.9 14 15.9 12 12.29 12 13.29 5.61C13.444 4.6929 14.2302 4.01606 15.16 4Z" fill="#7823DC"/></g></svg>