<svg viewBox="0 0 32 32" xmlns="http://www.w3.org/2000/svg" xmlns:xlink="http://www.w3.org/1999/xlink" id="Layer_1" xml:space="preserve" overflow="hidden"><g><path d="M29.4 18.1 20.8 20.8 20.8 19.6 20.8 17.4 18.6 17.7 15.3 18.1 10.1 16.3 9.3 16 8.5 16.4 5.3 18 2 18 0 18 0 20 0 26 0 28 2 28 5.3 28 15.1 32 30.9 23.8 32 23.2 32 22 32 20 32 17.3 29.4 18.1 29.4 18.1 29.4 18.1ZM30 22 15.1 29.8 5.7 26 2 26 2 20 5.8 20 9.5 18 15.1 20 18.8 19.6 18.8 21.6 17.7 22 13.9 22.8 13.9 24.7 17.9 24 17.9 24 30 20 30 22 30 22 30 22Z" fill="#7823DC" fill-rule="evenodd" clip-rule="evenodd"/><path d="M23 18.1 14.1 4.9 16.7 0 29.4 0 32 4.9 23 18.1 23 18.1 23 18.1ZM16.4 4.7 23 14.5 29.6 4.7 28.1 2 17.9 2 16.4 4.7 16.4 4.7 16.4 4.7Z" fill="#7823DC" fill-rule="evenodd" clip-rule="evenodd"/><path d="M15.2 3.8 30.8 3.8 30.8 5.8 15.2 5.8 15.2 3.8Z" fill="#7823DC" fill-rule="evenodd" clip-rule="evenodd"/><path d="M19.1 5.1 21 4.6 24 16.1 22 16.6 19.1 5.1Z" fill="#7823DC" fill-rule="evenodd" clip-rule="evenodd"/><path d="M22 16.1 25 4.6 26.9 5.1 24 16.6 22 16.1Z" fill="#7823DC" fill-rule="evenodd" clip-rule="evenodd"/><path d="M19.3 4.2 22.2 0.4 23.8 1.6 20.8 5.4 19.3 4.2Z" fill="#7823DC" fill-rule="evenodd" clip-rule="evenodd"/><path d="M22.2 1.6 23.8 0.4 26.8 4.2 25.2 5.4 22.2 1.6Z" fill="#7823DC" fill-rule="evenodd" clip-rule="evenodd"/></g></svg>