<svg viewBox="0 0 32 32" xmlns="http://www.w3.org/2000/svg" xmlns:xlink="http://www.w3.org/1999/xlink" overflow="hidden"><defs></defs><g id="Grid"><path d="M16 31.8C7.2739 31.8 0.2 24.7261 0.2 16 0.2 7.2739 7.2739 0.199999 16 0.199999 24.7261 0.199999 31.8 7.2739 31.8 16 31.789 24.7215 24.7215 31.789 16 31.8ZM16 2.2C8.37847 2.2 2.2 8.37847 2.2 16 2.2 23.6215 8.37847 29.8 16 29.8 23.6215 29.8 29.8 23.6215 29.8 16 29.7945 8.38076 23.6192 2.20551 16 2.2Z" fill="#7823DC"/><path d="M25.1 23.62 6.26 23.62 6.46 22.45C7.09 18.77 11.05 16 15.69 16 20.33 16 24.28 18.77 24.9 22.45ZM8.81 21.62 22.56 21.62C21.56 19.49 18.81 18 15.69 18 12.57 18 9.84 19.49 8.81 21.62Z" fill="#7823DC"/><rect x="7.45" y="21.62" width="16.47" height="2" fill="#7823DC"/><path d="M21 13.71C19 13.71 17.68 12.59 17.68 11L19.68 11C19.68 11.7 20.95 11.71 21 11.71 21.05 11.71 22.32 11.71 22.32 11L24.32 11C24.33 12.59 23 13.71 21 13.71Z" fill="#7823DC"/><path d="M11 13.71C9.05 13.71 7.68 12.59 7.68 11L9.68 11C9.68 11.7 10.95 11.71 11 11.71 11.05 11.71 12.32 11.71 12.32 11L14.32 11C14.32 12.59 13 13.71 11 13.71Z" fill="#7823DC"/></g></svg>