<svg viewBox="0 0 32 32.1" xmlns="http://www.w3.org/2000/svg" xmlns:xlink="http://www.w3.org/1999/xlink" id="Grid" overflow="hidden"><defs></defs><path d="M116.51 150.11C117.233 149.128 117.901 148.106 118.51 147.05 120.51 143.57 120.84 141.05 119.51 139.64 117.11 137.14 111.65 140.31 108.26 142.72 107.663 142.608 107.057 142.551 106.45 142.55 100.701 142.578 96.0589 147.251 96.07 153 96.0701 153.442 96.1002 153.883 96.16 154.32 94.27 156.81 90.27 162.74 92.74 165.32 93.3667 165.927 94.2193 166.242 95.09 166.19 97.19 166.19 100.09 164.9 103.16 162.87 108.595 164.727 114.507 161.826 116.364 156.39 117.054 154.368 117.106 152.182 116.51 150.13ZM118.1 141C118.59 141.51 118.37 143.26 116.79 146 116.45 146.6 116.04 147.23 115.61 147.87 114.516 145.896 112.811 144.331 110.75 143.41 115.08 140.64 117.5 140.39 118.1 141ZM106.49 144.53C109.901 144.533 112.975 146.589 114.28 149.74 112.682 151.781 110.938 153.703 109.06 155.49 107.146 157.341 105.089 159.04 102.91 160.57 98.7234 158.546 96.9705 153.511 98.9947 149.324 100.387 146.444 103.291 144.602 106.49 144.57ZM94.18 163.91C93.63 163.34 93.95 160.91 96.81 156.81 97.6401 158.885 99.1162 160.639 101.02 161.81 97.49 164 94.89 164.66 94.18 163.91ZM106.49 161.4C106.102 161.4 105.714 161.37 105.33 161.31 107.117 159.962 108.824 158.509 110.44 156.96 112.012 155.462 113.494 153.872 114.88 152.2 114.88 152.46 114.88 152.71 114.88 152.98 114.869 157.614 111.124 161.373 106.49 161.4Z" fill="#7823DC" transform="translate(-91.95 -137.13)"/><path d="M96.67 144.49C98.7024 144.496 100.354 142.852 100.36 140.82 100.366 138.788 98.7224 137.136 96.69 137.13 94.6576 137.125 93.0055 138.768 93 140.8 93 140.803 93 140.807 93 140.81 93 142.839 94.6415 144.484 96.67 144.49ZM96.67 139.13C97.5978 139.124 98.3544 139.872 98.36 140.8 98.3655 141.728 97.6178 142.484 96.69 142.49 95.7622 142.495 95.0056 141.748 95 140.82 95 140.817 95 140.813 95 140.81 95 139.886 95.7461 139.136 96.67 139.13Z" fill="#7823DC" transform="translate(-91.95 -137.13)"/><path d="M122.42 157.62C122.942 157.622 123.459 157.713 123.95 157.89L123.95 155.8C123.449 155.679 122.935 155.618 122.42 155.62 118.662 155.764 115.732 158.928 115.876 162.686 116.012 166.242 118.864 169.094 122.42 169.23 122.935 169.226 123.448 169.166 123.95 169.05L123.95 167C123.46 167.18 122.942 167.275 122.42 167.28 119.766 167.159 117.713 164.909 117.834 162.256 117.948 159.772 119.936 157.783 122.42 157.67Z" fill="#7823DC" transform="translate(-91.95 -137.13)"/></svg>