<svg width="36.5" height="36.6" viewBox="0 0 36.5 36.6" xmlns="http://www.w3.org/2000/svg" xmlns:xlink="http://www.w3.org/1999/xlink" overflow="hidden"><defs></defs><g><g><defs><path d="M0 36.5 36.5 36.5 36.5 0 0 0 0 36.5Z" id="SVGID_1_" fill="#7823DC"/></defs><clipPath id="SVGID_2_"><use width="100%" height="100%" xlink:href="#SVGID_1_"></use></clipPath><g clip-path="url(#SVGID_2_)"><defs><path d="M0 36.5 36.5 36.5 36.5 0 0 0 0 36.5Z" id="SVGID_3_" fill="#7823DC"/></defs><clipPath id="SVGID_4_"><use width="100%" height="100%" xlink:href="#SVGID_3_"></use></clipPath><path d="M24.2 6.9C26 6.9 27.4 8.4 27.4 10.2L27.4 26.6C27.4 28.4 26 29.8 24.2 29.8L10.1 29.8C8.3 29.8 6.9 28.4 6.9 26.6L6.9 26.6 6.9 10.1C6.9 8.3 8.3 6.9 10.1 6.8 10.1 6.8 10.1 6.8 10.1 6.8L24.2 6.8M24.2 4.6 10.1 4.6C7.1 4.6 4.6 7.1 4.6 10.1 4.6 10.1 4.6 10.1 4.6 10.1L4.6 26.5C4.6 29.5 7.1 32 10.1 32L24.2 32C27.2 32 29.7 29.5 29.7 26.5L29.7 10.1C29.7 7.1 27.2 4.6 24.2 4.6 24.2 4.6 24.2 4.6 24.2 4.6L24.2 4.6Z" fill="#7823DC" clip-path="url(#SVGID_4_)"/><path d="M20.9 2.3 21.8 4.6 12.5 4.6 13.4 2.3 20.9 2.3M22.4 0 11.8 0 9.1 6.9 25.1 6.9 22.4 0 22.4 0 22.4 0Z" fill="#7823DC" clip-path="url(#SVGID_4_)"/><path d="M21.8 32 20.9 34.3 13.4 34.3 12.5 32 21.8 32M25.1 29.7 9.1 29.7 11.8 36.6 22.5 36.6 25.1 29.7 25.1 29.7 25.1 29.7Z" fill="#7823DC" clip-path="url(#SVGID_4_)"/><path d="M29.4 9.1 27.4 9.1 27.4 18.2 29.3 18.2C30.7 18.2 31.9 17.1 31.9 15.7 31.9 15.7 31.9 15.7 31.9 15.7L31.9 11.7C31.9 10.3 30.8 9.1 29.4 9.1L29.4 9.1 29.4 9.1Z" fill="#7823DC" clip-path="url(#SVGID_4_)"/><path d="M29.7 20.6 27.4 20.6 27.4 27.5 29.7 27.5C30.9 27.5 31.9 26.6 32 25.4 32 25.4 32 25.3 32 25.3L32 23C32 21.6 31 20.6 29.7 20.6 29.8 20.6 29.7 20.6 29.7 20.6L29.7 20.6Z" fill="#7823DC" clip-path="url(#SVGID_4_)"/><path d="M21.1 20.6C21.1 20.6 21.1 20.6 21.1 20.6 20.6 20.6 20.2 20.3 20 19.8L18.8 16.2 17.6 19.8C17.4 20.3 17 20.6 16.5 20.6L14.2 20.6C13.8 20.6 13.4 20.4 13.2 20L12 17.4 10.7 19.9C10.5 20.3 10.1 20.5 9.7 20.5L6.3 20.5C5.7 20.5 5.2 20 5.2 19.4 5.2 18.8 5.7 18.3 6.3 18.3L9 18.3 11 14.4C11.2 14 11.6 13.8 12 13.8 12.4 13.8 12.8 14 13 14.4L15 18.3 15.7 18.3 17.7 12.2C17.9 11.7 18.3 11.4 18.8 11.4 19.3 11.4 19.7 11.7 19.9 12.2L21.3 16.4 22.3 14.3C22.5 13.9 23 13.6 23.4 13.7 23.9 13.8 24.3 14.1 24.4 14.6L25.3 18.3 28 18.3C28.6 18.3 29.1 18.8 29.1 19.4 29.1 20 28.6 20.5 28 20.5L24.6 20.5C24.1 20.5 23.6 20.1 23.5 19.6L23 18.1 22.1 19.9C21.9 20.3 21.5 20.6 21.1 20.6Z" fill="#7823DC" clip-path="url(#SVGID_4_)"/></g></g></g></svg>