<svg viewBox="0 0 32 32" xmlns="http://www.w3.org/2000/svg" xmlns:xlink="http://www.w3.org/1999/xlink" id="Graphic" xml:space="preserve" overflow="hidden"><path d="M30.1 30 30.1 30 30.1 26C30.1 24.9 29.2 24 28.1 24L27.1 24 27.1 7C27.1 1.2 23.1 0 18.1 0 13.1 0 9.1 1.2 9.1 7L9.1 7 9.1 11.2 8.1 10C7 8.9 4.7 9 3.1 10.5 1.5 12 1.5 14.3 2.6 15.4L9.2 22 9.2 24 8.2 24C7.1 24 6.2 24.9 6.2 26L6.2 26 6.2 32 8.2 30 8.2 26 28.1 26 28.1 30 8.3 30 6.3 32 30.2 32 30.1 30 30.1 30ZM11.2 24 11.2 22C11.2 21.5 11 20.9 10.6 20.6L4.1 14C3.7 13.3 3.8 12.3 4.4 11.8 5 11.1 5.9 11 6.7 11.4L9.6 14.3C9.7 14.4 9.8 14.4 9.9 14.5L10 14.5C10.4 14.7 10.8 14.6 11.1 14.3L11.1 14.3C11.3 14.1 11.4 13.9 11.4 13.6L11.4 7 11.4 7C11.4 2.6 14.5 1.7 18.4 1.7 22.3 1.7 25.4 2.6 25.4 7L25.4 24 11.2 24 11.2 24Z" fill="#7823DC"/></svg>