<svg viewBox="0 0 33.14 33.14" xmlns="http://www.w3.org/2000/svg" xmlns:xlink="http://www.w3.org/1999/xlink" id="Grid" overflow="hidden"><style>
.MsftOfcResponsive_Fill_7823dc {
 fill:#7823DC; 
}
</style>
<defs></defs><path d="M25.6 0 24.79 2.12C23.74 2.46 22.77 3.06 21.98 3.84 21.81 4.01 21.65 4.21 21.47 4.45 20.01 3.51 18.33 3 16.59 3L16.56 3C14.8 3 13.11 3.5 11.65 4.44 11.48 4.2 11.32 4.01 11.15 3.84 10.36 3.06 9.39 2.46 8.34 2.12L7.53 -8.88178e-16 0 -8.88178e-16 0 7.98 1.01 8.75 3.45 19.58 8.08 29.33 8.11 29.38 8.97 28.98C10.66 31.57 13.49 33.12 16.55 33.13L16.58 33.13C19.01 33.13 21.3 32.19 23.02 30.47 23.47 30.03 23.88 29.52 24.22 28.99L25.05 29.38 29.71 19.57 32.15 8.75 33.13 8 33.15 7.98 33.15 0 25.61 0ZM21.52 26.1C21.75 26.73 22.1 27.3 22.54 27.78 22.26 28.22 21.93 28.64 21.56 29.01 20.23 30.34 18.46 31.08 16.57 31.08L16.55 31.08C14.14 31.08 11.93 29.84 10.62 27.78 11.05 27.29 11.39 26.74 11.62 26.12 12.08 24.86 12.02 23.5 11.48 22.28L9.09 17.04 9.09 15.89C9.4 15.99 9.72 16.04 10.05 16.04 11.32 16.04 12.46 15.24 12.89 14.05L13.17 14.05C14.48 14.05 15.72 13.47 16.57 12.46 17.42 13.47 18.65 14.05 19.97 14.05L20.25 14.05C20.68 15.25 21.82 16.04 23.09 16.04 23.42 16.04 23.74 15.99 24.05 15.89L24.05 17.04 21.66 22.28C21.1 23.5 21.05 24.86 21.52 26.12L21.52 26.12ZM2.06 2.06 6.13 2.06 6.81 3.84 7.34 3.96C8.24 4.18 9.05 4.64 9.72 5.29 9.8 5.37 9.96 5.55 10.15 5.88 10.72 6.8 11.02 7.87 11.02 8.99L11.02 13C11.02 13.53 10.59 13.96 10.06 13.96 9.53 13.96 9.1 13.53 9.1 13L9.1 9.19 7.04 9.19 7.04 17.45 9.61 23.11C10.13 24.25 9.89 25.59 9.01 26.48L5.42 18.91 2.86 7.59 2.86 7.57 2.06 6.96 2.06 2.06 2.05 2.06ZM20.07 9 20.07 11.97 19.97 11.97C18.67 11.97 17.6 10.91 17.6 9.61L17.6 9.55 15.54 9.55 15.54 9.61C15.54 10.91 14.48 11.97 13.17 11.97L13.07 11.97 13.07 9C13.07 8.06 12.92 7.15 12.61 6.28 13.78 5.48 15.15 5.06 16.57 5.06L16.59 5.06C17.99 5.06 19.36 5.49 20.53 6.29 20.22 7.15 20.08 8.06 20.08 8.99L20.08 8.99ZM23.54 23.12 26.1 17.49 26.1 9.21 24.04 9.21 24.04 13.02C24.04 13.55 23.61 13.98 23.08 13.98 22.55 13.98 22.12 13.55 22.12 13.02L22.12 9.01C22.12 7.89 22.42 6.82 22.99 5.9 23.2 5.57 23.34 5.39 23.43 5.31 24.09 4.65 24.91 4.19 25.81 3.98L26.34 3.86 27.02 2.08 31.09 2.08 31.09 6.99 30.32 7.58 30.3 7.58 27.75 18.92 24.16 26.5C23.28 25.61 23.04 24.27 23.56 23.13L23.55 23.13Z" class="MsftOfcResponsive_Fill_7823dc" stroke-width="0" fill="#7823DC" fill-rule="evenodd"/><path d="M16.26 25.4C15.41 25.28 14.69 24.53 14.5 23.59L12.48 23.98C12.83 25.79 14.23 27.17 15.96 27.43 16.16 27.46 16.35 27.47 16.54 27.47 18.42 27.47 20.17 26.11 20.67 24.15L18.67 23.63C18.38 24.77 17.32 25.53 16.26 25.38L16.26 25.38Z" class="MsftOfcResponsive_Fill_7823dc" stroke-width="0" fill="#7823DC" fill-rule="evenodd"/><path d="M18.14 17.6 21.11 17.6 21.11 19.67 18.14 19.67 18.14 17.6 18.14 17.6Z" class="MsftOfcResponsive_Fill_7823dc" stroke-width="0" fill="#7823DC" fill-rule="evenodd"/><path d="M11.82 17.6 14.83 17.6 14.83 19.67 11.82 19.67 11.82 17.6 11.82 17.6Z" class="MsftOfcResponsive_Fill_7823dc" stroke-width="0" fill="#7823DC" fill-rule="evenodd"/></svg>