<svg viewBox="0 0 32 32" xmlns="http://www.w3.org/2000/svg" xmlns:xlink="http://www.w3.org/1999/xlink" overflow="hidden"><defs></defs><g id="Layer_3"><path d="M11.97 16.7863C7.83434 16.7861 4.48192 13.4333 4.48216 9.2976 4.4824 5.16194 7.83522 1.80952 11.9709 1.80976 16.1064 1.81 19.4587 5.16252 19.4587 9.298 19.454 13.4319 16.1039 16.7818 11.97 16.7863ZM11.97 3.80976C8.93891 3.81 6.48192 6.26739 6.48216 9.29848 6.4824 12.3296 8.93979 14.7866 11.9709 14.7863 15.0018 14.7861 17.4587 12.3289 17.4587 9.298 17.4554 6.26813 14.9999 3.81286 11.97 3.80976Z" fill="#7823DC"/><rect x="-0.01109" y="15.9955" width="2" height="15.9651" fill="#7823DC"/><rect x="21.9818" y="15.9881" width="2" height="15.9725" fill="#7823DC"/><path d="M29.111 6.016 11.97 23.149 4.822 15.999 1.993 15.999 11.967 25.976 31.929 6.016 29.111 6.016Z" fill="#7823DC"/><rect x="25.4536" y="6.31017" width="1.98655" height="1.99859" fill="#7823DC" transform="matrix(0.707107 -0.707107 0.707107 0.707107 2.57754 20.8417)"/><path d="M20.5486 10.5842 2.50856 10.5842 2.50856 9.58417C2.48019 4.32563 6.72009 0.0397428 11.9786 0.0113757 17.2372-0.0169914 21.5231 4.2229 21.5514 9.48144 21.5515 9.49681 21.5515 9.51217 21.5516 9.52753L21.5471 9.633 21.4753 10.5549ZM4.56467 8.58417 19.4988 8.58417C18.9759 4.46024 15.2089 1.54102 11.0849 2.06391 7.67876 2.4958 4.99656 5.178 4.56467 8.58417Z" fill="#7823DC"/><path d="M3.38879 9.22806 4.15623 6.01877 6.52832 2.5304 10.6446 0.99552 13.0864 1.20482 16.9934 2.3211 19.1562 5.11179 20.6213 8.60016C20.6213 8.60016 17.3423 9.5769 17.1329 9.5769 16.9237 9.5769 4.8539 9.29783 4.8539 9.29783Z" fill="#7823DC"/></g></svg>