<svg viewBox="0 0 31.98 32" xmlns="http://www.w3.org/2000/svg" xmlns:xlink="http://www.w3.org/1999/xlink" id="Layer_1" overflow="hidden"><style>
.MsftOfcResponsive_Fill_7823dc {
 fill:#7823DC; 
}
</style>
<defs></defs><path d="M2 32 0 32 0 23.81C0 22.22 0.64 20.59 1.75 19.34 3.15 17.93 5.11 17.36 7.02 17.74L8.34 17.85C10.26 18.06 12.01 17.75 13.55 16.93L13.74 16.83C15.83 15.38 17.3 13.17 17.9 10.56 16.01 8.06 14.98 4.96 14.98 1.78L14.98 0 16.98 0 16.98 1.79C16.98 4.68 17.97 7.48 19.76 9.69L20.05 10.05 19.96 10.51C19.32 13.86 17.49 16.7 14.81 18.53L14.46 18.71C12.58 19.72 10.44 20.1 8.14 19.85L6.66 19.72C5.37 19.44 4.11 19.81 3.19 20.72 2.44 21.57 1.98 22.71 1.98 23.82L1.98 32.01Z" class="MsftOfcResponsive_Fill_7823dc" fill="#7823DC"/><path d="M6.61 32 4.61 32 4.61 27.04C4.61 26.06 5.16 25.2 6.06 24.8 6.98 24.39 8.03 24.56 8.81 25.26 10.67 26.81 13.14 27.79 15.72 28.01 21.12 28.62 25.99 26.25 28.49 21.83 29.46 20 29.98 17.97 29.98 15.98 29.98 12.6 27.33 9.95 23.95 9.95L22.5 9.95 22.21 9.66C22.1 9.55 19.61 7 19.61 1.34L19.61 0 21.61 0 21.61 1.32C21.61 5.08 22.86 7.2 23.39 7.93L23.95 7.93C28.46 7.93 31.98 11.46 31.98 15.96 31.98 18.28 31.38 20.63 30.25 22.77 27.34 27.93 21.71 30.69 15.53 29.98 12.56 29.73 9.7 28.59 7.51 26.76 7.22 26.5 6.97 26.57 6.88 26.61 6.78 26.65 6.61 26.77 6.61 27.03L6.61 31.99Z" class="MsftOfcResponsive_Fill_7823dc" fill="#7823DC"/></svg>