<svg viewBox="0 0 32 32.12" xmlns="http://www.w3.org/2000/svg" xmlns:xlink="http://www.w3.org/1999/xlink" id="Layer_1" overflow="hidden"><style>
.MsftOfcResponsive_Fill_7823dc {
 fill:#7823DC; 
}
</style>
<defs></defs><path d="M32 32.12 23.53 32.12C19.4 32.12 15 29.46 15 24.53L15 6.65C15 5.06 16.29 3.77 17.88 3.77 19.14 3.77 20.14 4.3 20.25 4.36L20.76 4.65 20.76 20.12 18.76 20.12 18.76 5.9C18.52 5.83 18.21 5.76 17.88 5.76 17.39 5.76 17 6.16 17 6.64L17 24.52C17 28.59 21 30.11 23.53 30.11L32 30.11 32 32.11Z" class="MsftOfcResponsive_Fill_7823dc" stroke-width="0" fill="#7823DC"/><path d="M32 22.7 24.47 22.7C23.88 22.7 22.8 22.47 22.29 20.96 20.9 16.84 18.83 9.82 18.81 9.75L18.77 9.47 18.77 2.14C18.53 2.07 18.22 2 17.89 2 17.4 2 17.01 2.4 17.01 2.88L17.01 6.64 15.01 6.64 15.01 2.88C15.01 1.29 16.3 0 17.89 0 19.15 0 20.15 0.53 20.26 0.59L20.77 0.88 20.77 9.32C21.07 10.32 22.92 16.55 24.19 20.32 24.32 20.7 24.42 20.7 24.48 20.7L32.01 20.7 32.01 22.7Z" class="MsftOfcResponsive_Fill_7823dc" stroke-width="0" fill="#7823DC"/><path d="M20.76 17.35 18.76 17.35 18.76 10.02C18.52 9.95 18.21 9.88 17.88 9.88 17.39 9.88 17 10.28 17 10.76L17 14.52 15 14.52 15 10.76C15 9.17 16.29 7.88 17.88 7.88 19.14 7.88 20.14 8.41 20.25 8.47L20.76 8.76 20.76 17.35Z" class="MsftOfcResponsive_Fill_7823dc" stroke-width="0" fill="#7823DC"/><path d="M13.24 17.35 11.24 17.35 11.24 8.76 11.75 8.47C11.86 8.41 12.86 7.88 14.12 7.88 15.71 7.88 17 9.17 17 10.76L17 14.52 15 14.52 15 10.76C15 10.27 14.6 9.88 14.12 9.88 13.79 9.88 13.48 9.95 13.24 10.02L13.24 17.35Z" class="MsftOfcResponsive_Fill_7823dc" stroke-width="0" fill="#7823DC"/><path d="M8.47 32.12 0 32.12 0 30.12 8.47 30.12C10.99 30.12 15 28.6 15 24.53L15 6.65C15 6.16 14.6 5.77 14.12 5.77 13.79 5.77 13.48 5.84 13.24 5.91L13.24 20.12 11.24 20.12 11.24 4.65 11.75 4.36C11.86 4.3 12.86 3.77 14.12 3.77 15.71 3.77 17 5.06 17 6.65L17 24.53C17 29.46 12.61 32.12 8.47 32.12Z" class="MsftOfcResponsive_Fill_7823dc" stroke-width="0" fill="#7823DC"/><path d="M7.53 22.7 0 22.7 0 20.7 7.53 20.7C7.58 20.7 7.69 20.7 7.82 20.31 9.09 16.55 10.94 10.32 11.24 9.32L11.24 0.88 11.75 0.59C11.86 0.53 12.86 1.11022e-16 14.12 1.11022e-16 15.71 1.11022e-16 17 1.29 17 2.88L17 6.64 15 6.64 15 2.88C15 2.39 14.6 2 14.12 2 13.79 2 13.48 2.07 13.24 2.14L13.2 9.75C13.18 9.82 11.11 16.84 9.72 20.96 9.21 22.48 8.13 22.7 7.54 22.7Z" class="MsftOfcResponsive_Fill_7823dc" stroke-width="0" fill="#7823DC"/></svg>