<svg viewBox="0 0 31.66 31.98" xmlns="http://www.w3.org/2000/svg" xmlns:xlink="http://www.w3.org/1999/xlink" id="Outline_Final_icon" overflow="hidden"><defs></defs><path d="M22.81 10.34 26.67 6.46C27.14 6.7 27.66 6.85 28.22 6.85 30.11 6.85 31.64 5.32 31.64 3.43 31.64 1.54 30.11 0.01 28.22 0.01 26.33 0.01 24.8 1.54 24.8 3.43 24.8 4.03 24.97 4.58 25.24 5.07L21.38 8.95C19.85 7.74 17.92 7.02 15.82 7.02 14.35 7.02 12.97 7.38 11.74 8L10.41 6.02C10.78 5.47 11 4.81 11 4.1 11 2.21 9.47 0.68 7.58 0.68 5.69 0.68 4.16 2.21 4.16 4.1 4.16 5.99 5.69 7.52 7.58 7.52 8.03 7.52 8.45 7.43 8.85 7.27L10.07 9.09C8.33 10.54 7.14 12.64 6.88 15.01L5.12 15.01C4.75 14.48 4.13 14.13 3.42 14.13 2.28 14.13 1.36 15.05 1.36 16.19 1.36 17.33 2.28 18.25 3.42 18.25 4.26 18.25 4.98 17.75 5.3 17.03L6.89 17.03C7.08 18.74 7.76 20.32 8.79 21.61L4.92 25.5C4.47 25.28 3.97 25.14 3.43 25.14 1.54 25.14 0.01 26.67 0.01 28.56 0.01 30.45 1.54 31.98 3.43 31.98 5.32 31.98 6.85 30.45 6.85 28.56 6.85 27.94 6.67 27.36 6.38 26.86L10.2 23.02C11.57 24.12 13.27 24.83 15.12 24.97L15.05 26.29C14.39 26.63 13.94 27.31 13.94 28.11 13.94 29.25 14.86 30.17 16 30.17 17.14 30.17 18.06 29.25 18.06 28.11 18.06 27.36 17.65 26.71 17.05 26.35L17.12 24.91C18.75 24.67 20.24 24.01 21.46 23.03L22.76 24.31C22.53 24.77 22.39 25.28 22.39 25.83 22.39 27.72 23.92 29.25 25.81 29.25 27.7 29.25 29.23 27.72 29.23 25.83 29.23 23.94 27.7 22.41 25.81 22.41 25.2 22.41 24.63 22.58 24.14 22.86L22.87 21.6C23.89 20.32 24.57 18.75 24.76 17.03L26.74 17.03C27.09 17.65 27.76 18.09 28.54 18.09 29.68 18.09 30.6 17.17 30.6 16.03 30.6 14.89 29.68 13.97 28.54 13.97 27.78 13.97 27.12 14.39 26.76 15.01L24.77 15.01C24.58 13.26 23.88 11.64 22.81 10.33ZM6.16 4.1C6.16 3.32 6.8 2.68 7.58 2.68 8.36 2.68 9 3.32 9 4.1 9 4.88 8.36 5.52 7.58 5.52 6.8 5.52 6.16 4.88 6.16 4.1ZM28.23 2C29.01 2 29.65 2.64 29.65 3.42 29.65 4.2 29.01 4.84 28.23 4.84 27.45 4.84 26.81 4.2 26.81 3.42 26.81 2.64 27.45 2 28.23 2ZM15.83 9.01C19.69 9.01 22.83 12.15 22.83 16.01 22.83 19.87 19.69 23.01 15.83 23.01 11.97 23.01 8.83 19.87 8.83 16.01 8.83 12.15 11.97 9.01 15.83 9.01ZM3.42 16.25C3.42 16.25 3.36 16.22 3.36 16.19 3.36 16.16 3.39 16.13 3.42 16.13 3.45 16.13 3.48 16.16 3.48 16.19 3.48 16.22 3.45 16.25 3.42 16.25ZM3.42 29.98C2.64 29.98 2 29.34 2 28.56 2 27.78 2.64 27.14 3.42 27.14 4.2 27.14 4.84 27.78 4.84 28.56 4.84 29.34 4.2 29.98 3.42 29.98ZM16 28.17C16 28.17 15.94 28.14 15.94 28.11 15.94 28.08 15.97 28.05 16 28.05 16.03 28.05 16.06 28.08 16.06 28.11 16.06 28.14 16.03 28.17 16 28.17ZM27.23 25.83C27.23 26.61 26.59 27.25 25.81 27.25 25.03 27.25 24.39 26.61 24.39 25.83 24.39 25.05 25.03 24.41 25.81 24.41 26.59 24.41 27.23 25.05 27.23 25.83ZM28.54 15.98C28.54 15.98 28.6 16.01 28.6 16.04 28.6 16.07 28.57 16.1 28.54 16.1 28.51 16.1 28.48 16.07 28.48 16.04 28.48 16.01 28.51 15.98 28.54 15.98Z" fill="#7823DC"/><rect x="18.01" y="12.38" width="1.82" height="6.84" fill="#7823DC"/><path d="M13.04 17.84 15.05 17.84 15.41 19.22 17.29 19.22 15.49 12.38 12.62 12.38 10.79 19.22 12.67 19.22 13.04 17.84ZM14.01 14.2 14.09 14.2 14.57 16.03 13.52 16.03 14.01 14.2Z" fill="#7823DC"/></svg>