<svg viewBox="0 0 32 28.85" xmlns="http://www.w3.org/2000/svg" xmlns:xlink="http://www.w3.org/1999/xlink" id="Outline_Final_icon" overflow="hidden"><defs></defs><rect x="15.05" y="20.86" width="2" height="4.16" fill="#7823DC"/><g><path d="M24.17 16.23C23.47 16.78 23.29 16.93 21.78 16.38L21.69 16.35 20.99 18.31 21.08 18.34C21.94 18.65 22.64 18.8 23.22 18.8 24.18 18.8 24.8 18.38 25.44 17.87 25.61 17.74 25.79 17.59 26.01 17.44L26.09 17.38 24.94 15.66 24.86 15.72C24.59 15.91 24.36 16.09 24.17 16.23Z" fill="#7823DC"/><path d="M6.15 17.44C6.36 17.59 6.55 17.73 6.71 17.86L6.71 17.86C7.36 18.38 7.97 18.8 8.93 18.8 9.51 18.8 10.21 18.65 11.07 18.34L11.16 18.31 10.46 16.35 10.37 16.38C8.86 16.93 8.67 16.78 7.98 16.23 7.79 16.08 7.56 15.9 7.29 15.72L7.21 15.66 6.06 17.38 6.14 17.44ZM6.78 17.79 6.78 17.79C6.78 17.79 6.78 17.79 6.78 17.79L6.78 17.79Z" fill="#7823DC"/><rect x="14.97" y="0" width="2.06" height="4.94" fill="#7823DC"/><path d="M22.36 4.93 20.91 3.46 17.17 7.23 18.63 8.7 22.36 4.93Z" fill="#7823DC"/><path d="M14.53 7.23 10.79 3.46 9.33 4.93 13.07 8.7 14.53 7.23Z" fill="#7823DC"/><path d="M31.05 18.17C31.12 17.05 31.28 14.42 31.25 13.5 31.21 11.86 29.18 10.76 28.77 10.56L28.2 10.27 26.16 11.84C25.13 12.63 24.87 14.07 25.54 15.18L26.71 17.1 28.98 15.27 27.69 13.65 27.25 14.01C27.19 13.83 27.25 13.63 27.4 13.51L28.38 12.76C28.9 13.12 29.18 13.46 29.19 13.57 29.21 14.37 29.07 16.79 29 17.85L22.9 21.65C20.86 19.36 18.67 16.49 18.58 15.62 18.48 14.53 18.84 13.97 19.12 13.64 19.31 13.42 19.71 13.25 20.11 13.08 20.4 12.96 20.71 12.83 20.98 12.65 21.25 12.48 21.5 12.25 21.75 12.03 22.17 11.66 22.61 11.28 23.11 11.1 23.86 10.83 24.42 10.83 24.84 11.1 24.88 11.12 24.9 11.14 24.92 11.15 24.94 11.18 24.97 11.21 25 11.26L25.19 11.52 26.86 10.3 26.72 10.1C26.43 9.7 26.34 9.59 25.95 9.34 24.98 8.72 23.8 8.66 22.43 9.14 21.55 9.45 20.91 10.02 20.4 10.47 20.21 10.64 20.01 10.81 19.88 10.9 19.75 10.98 19.53 11.07 19.32 11.16 18.77 11.39 18.08 11.68 17.57 12.27 16.75 13.22 16.41 14.41 16.54 15.81 16.74 17.86 20.7 22.31 21.9 23.61L25.16 28.77 25.21 28.85 31.96 24.65 32.01 24.62 32.01 19.69 31.06 18.18ZM27.42 24.55 26.34 22.78 24.52 23.91 24.14 23.31 29.67 19.87 31.37 22.56 25.84 26 25.63 25.66 27.42 24.55Z" fill="#7823DC"/><path d="M12.85 11.15C12.65 11.07 12.41 10.97 12.29 10.89 12.15 10.8 11.95 10.63 11.76 10.46 11.25 10.01 10.61 9.45 9.73 9.13 8.36 8.64 7.18 8.71 6.21 9.33 5.82 9.58 5.72 9.69 5.44 10.09L5.3 10.29 6.97 11.51 7.12 11.3C7.17 11.22 7.21 11.17 7.23 11.14 7.25 11.13 7.27 11.11 7.3 11.1L7.33 11.08C7.74 10.82 8.31 10.82 9.06 11.08 9.57 11.26 10 11.64 10.43 12.02 10.69 12.25 10.93 12.46 11.2 12.63 11.47 12.81 11.78 12.93 12.09 13.06 12.48 13.22 12.88 13.39 13.07 13.61 13.35 13.94 13.71 14.49 13.6 15.59 13.52 16.46 11.33 19.33 9.28 21.62L3.18 17.82C3.11 16.76 2.97 14.34 2.99 13.54 2.99 13.43 3.28 13.08 3.8 12.73L4.78 13.48C4.93 13.6 4.99 13.79 4.93 13.98L4.49 13.62 3.2 15.24 5.47 17.07 6.64 15.15C7.32 14.04 7.06 12.6 6.02 11.81L3.98 10.24 3.41 10.53C3 10.73 0.97 11.83 0.93 13.47 0.91 14.39 1.06 17.01 1.13 18.13L0.02 19.89 0.02 24.47 6.9 28.75 6.98 28.8 10.28 23.57C11.83 21.89 15.46 17.75 15.65 15.76 15.78 14.36 15.44 13.17 14.62 12.22 14.11 11.63 13.42 11.34 12.87 11.1ZM4.74 24.55 6.53 25.66 6.32 26 0.79 22.56 2.49 19.87 8.02 23.31 7.64 23.91 5.82 22.78 4.74 24.55Z" fill="#7823DC"/></g></svg>