<svg viewBox="0 0 32 32" xmlns="http://www.w3.org/2000/svg" xmlns:xlink="http://www.w3.org/1999/xlink" id="Layer_2" overflow="hidden"><path d="M23.4 32 0 32 0 8.4 23.4 8.4 23.4 32ZM2 30 21.4 30 21.4 10.4 2 10.4 2 30Z" fill="#7823DC"/><rect x="30" y="0" width="2" height="23.6" fill="#7823DC"/><rect x="21.1" y="26.2" width="12" height="2" fill="#7823DC" transform="matrix(0.7052 -0.7091 0.7091 0.7052 -11.2964 27.2023)"/><rect x="20.7" y="4.6" width="12" height="2" fill="#7823DC" transform="matrix(0.7052 -0.7091 0.7091 0.7052 3.906 20.5899)"/><path d="M1.4 9.9 0 8.4 8.4 0 9.8 1.5Z" fill="#7823DC"/><rect x="8.4" y="0" width="21.8" height="2" fill="#7823DC"/><g><ellipse cx="11.3" cy="3.8" rx="2.3" ry="1.2" fill="#7823DC"/></g><g><ellipse cx="20.2" cy="6.4" rx="2.3" ry="1.2" fill="#7823DC"/></g><g><ellipse cx="27.1" cy="16" rx="1.2" ry="2.3" fill="#7823DC"/></g><g><g><circle cx="6.3" cy="26" r="2.3" fill="#7823DC"/></g><g><circle cx="5.9" cy="14.4" r="2.3" fill="#7823DC"/></g><g><circle cx="17.5" cy="26" r="2.3" fill="#7823DC"/></g><g><circle cx="17.5" cy="14.4" r="2.3" fill="#7823DC"/></g></g></svg>