<svg viewBox="0 0 32 32" xmlns="http://www.w3.org/2000/svg" xmlns:xlink="http://www.w3.org/1999/xlink" id="Layer_5" overflow="hidden"><style>
.MsftOfcResponsive_Fill_7823dc {
 fill:#7823DC; 
}
</style>
<defs></defs><path d="M32.06 15.81 17.98 7.1C17.81 3.19 14.59 0.07 10.64 0.07 6.69 0.07 3.29 3.37 3.29 7.42 3.29 9.39 4.07 11.18 5.34 12.5L-0.06 15.86 6 18.83 6 29.49 6.56 29.76C9.52 31.21 12.76 31.94 16 31.94 19.24 31.94 22.49 31.21 25.44 29.76L26 29.49 26 18.8 28 17.82 28 25.87 30 25.87 30 16.84 32.06 15.83ZM10.64 2.07C13.59 2.07 16 4.47 16 7.43 16 10.39 13.6 12.79 10.64 12.79 7.68 12.79 5.28 10.39 5.28 7.43 5.28 4.47 7.69 2.07 10.64 2.07ZM24 28.23C18.95 30.51 13.05 30.51 8 28.23L8 19.81 16 23.72 24 19.78 24 28.23ZM16 21.5 4.06 15.65 7.01 13.82C8.08 14.43 9.32 14.79 10.64 14.79 14.04 14.79 16.91 12.46 17.74 9.32L27.93 15.62 15.99 21.5Z" class="MsftOfcResponsive_Fill_7823dc" fill="#7823DC"/><path d="M9.13 8.89 7.01 8.89C7.01 10.3 8.12 11.52 9.64 11.52L9.64 12.43 11.66 12.43 11.66 11.52C13.08 11.52 14.29 10.31 14.29 8.89 14.29 7.27 13.28 6.67 11.66 6.47L11.66 5.06C11.86 5.26 12.06 5.46 12.06 5.77L14.08 5.77C13.98 4.46 12.97 3.35 11.55 3.35L11.55 2.44 9.63 2.44 9.63 3.35C8.31 3.45 7.3 4.46 7.2 5.77 7.2 7.28 7.91 7.99 9.63 8.29L9.63 9.8C9.33 9.6 9.12 9.3 9.12 8.89ZM11.66 8.59C11.96 8.69 12.17 8.89 12.17 9.2 12.17 9.51 11.97 9.81 11.66 9.91L11.66 8.6ZM9.23 5.56C9.23 5.36 9.33 5.06 9.53 4.95L9.63 6.16C9.43 6.06 9.23 5.86 9.23 5.55Z" class="MsftOfcResponsive_Fill_7823dc" fill="#7823DC"/></svg>