<svg viewBox="0 0 29.22 29.22" xmlns="http://www.w3.org/2000/svg" xmlns:xlink="http://www.w3.org/1999/xlink" xml:space="preserve" overflow="hidden"><g id="Layer_3"></g><g id="Layer_1"></g><g id="Layer_2"></g><g id="Layer_4"></g><g id="Layer_5"><g><path d="M29.27 17.1 25.64 17.1C25.18 15.16 23.45 13.71 21.38 13.71L20.69 13.71 20.69 7.04C22.07 6.14 22.38 5.14 22.38 4.43 22.38 1.55 17.62 0.04 12.91 0.04 8.2 0.04 3.44 1.55 3.44 4.43 3.44 5.14 3.75 6.13 5.13 7.03L5.13 13.7 4.44 13.7C2.02 13.7 0.05 15.67 0.05 18.09L0.05 29.26 25.77 29.26 25.77 19.1 29.27 19.1 29.27 17.1ZM6.61 5.58C5.75 5.12 5.44 4.69 5.44 4.43 5.44 3.62 8.08 2.04 12.91 2.04 17.74 2.04 20.38 3.62 20.38 4.43 20.38 4.69 20.07 5.12 19.22 5.58L18.69 5.86 18.69 13.7 7.14 13.7 7.14 5.86 6.61 5.58ZM23.77 27.26 2.05 27.26 2.05 18.1C2.05 16.78 3.12 15.71 4.44 15.71L5.13 15.71 7.13 15.71 18.68 15.71 20.68 15.71 21.37 15.71C22.69 15.71 23.76 16.78 23.76 18.1L23.76 19.1 23.76 27.26Z" fill="#7823DC"/><rect x="8.35" y="6.62" width="6.31" height="2" fill="#7823DC" transform="matrix(0.7202 -0.6938 0.6938 0.7202 -2.0689 10.1128)"/><rect x="11.75" y="8.87" width="4.16" height="2" fill="#7823DC" transform="matrix(0.7201 -0.6938 0.6938 0.7201 -2.9744 12.3574)"/><rect x="16.79" y="17.88" width="4.94" height="2" fill="#7823DC"/></g></g></svg>