<svg width="30.7" height="31.98" viewBox="0 0 30.7 31.98" xmlns="http://www.w3.org/2000/svg" xmlns:xlink="http://www.w3.org/1999/xlink" overflow="hidden"><defs></defs><g><path d="M18.75 11.98 14.26 16.96 13.39 15.99 10.7 15.99 14.29 19.99 21.38 11.98Z" fill="#7823DC"/></g><g><path d="M13.79 2 16.9 2 18.3 6.19 18.57 7.01 19.35 7.37C19.87 7.61 20.36 7.9 20.81 8.21L21.52 8.71 22.37 8.54 26.7 7.66 28.26 10.36 25.33 13.66 24.76 14.3 24.84 15.16C24.87 15.51 24.88 15.77 24.88 16 24.88 16.24 24.87 16.5 24.84 16.84L24.77 17.7 25.34 18.34 28.27 21.64 26.72 24.33 22.4 23.44 21.55 23.27 20.84 23.77C20.4 24.08 19.91 24.36 19.38 24.61L18.6 24.97 18.33 25.79 16.94 29.98 13.83 29.98 12.43 25.79 12.16 24.97 11.38 24.61C10.86 24.37 10.37 24.08 9.92 23.77L9.21 23.27 8.36 23.44 4.03 24.32 2.47 21.62 5.4 18.32 5.97 17.68 5.89 16.82C5.86 16.47 5.85 16.21 5.85 15.98 5.85 15.74 5.86 15.48 5.89 15.14L5.97 14.28 5.4 13.64 2.47 10.34 4.02 7.65 8.34 8.54 9.18 8.7 9.89 8.2C10.33 7.89 10.82 7.61 11.35 7.36L12.13 7 12.4 6.18 13.79 2M12.35 0 10.5 5.56C9.88 5.84 9.29 6.18 8.73 6.57L3 5.39 0 10.58 3.89 14.96C3.86 15.3 3.84 15.63 3.84 15.98 3.84 16.32 3.86 16.66 3.89 17L0 21.38 3 26.57 8.74 25.4C9.29 25.79 9.88 26.13 10.5 26.42L12.36 31.98 18.36 31.98 20.21 26.42C20.83 26.13 21.42 25.8 21.97 25.41L27.71 26.59 30.71 21.4 26.82 17.02C26.85 16.68 26.87 16.35 26.87 16 26.87 15.66 26.85 15.32 26.82 14.98L30.7 10.6 27.7 5.41 21.96 6.58C21.41 6.19 20.82 5.85 20.2 5.56L18.34 0 12.35 0 12.35 0Z" fill="#7823DC"/></g><g><path d="" stroke="#7823DC" stroke-width="2" stroke-linecap="round" stroke-linejoin="round" stroke-miterlimit="10" fill="#7823DC"/></g></svg>