<svg viewBox="0 0 31.86 32.13" xmlns="http://www.w3.org/2000/svg" xmlns:xlink="http://www.w3.org/1999/xlink" id="Outline_Final_icon" overflow="hidden"><defs></defs><path d="M28.42 14.53 31.86 10.01 29.06 5.13 23.43 6.31 21.86 5.33 19.87 0 13.85 0 12.13 5.34 10.2 6.41 4.61 5.32 1.69 10.29 2.88 11.87 4.48 10.67 4.09 10.15 5.61 7.56 10.54 8.51 13.79 6.7 15.31 2 18.49 2 20.22 6.66 23.05 8.43 28.05 7.39 29.47 9.85 26.42 13.86 26.42 17.53 29.48 21.23 28.28 23.7 23.31 22.89 22.99 24.87 29.43 25.92 31.84 20.94 28.42 16.81 28.42 14.53Z" fill="#7823DC"/><path d="M11.17 9.78C5 9.78 0 14.78 0 20.95 0 27.12 5 32.12 11.17 32.12 17.34 32.12 22.34 27.12 22.34 20.95 22.34 14.78 17.34 9.78 11.17 9.78ZM12.17 30.07 12.17 28.85 10.17 28.85 10.17 30.07C5.91 29.61 2.52 26.21 2.05 21.95L3.58 21.95 3.58 19.95 2.05 19.95C2.51 15.69 5.91 12.3 10.17 11.83L10.17 12.78 12.17 12.78 12.17 11.83C16.43 12.29 19.82 15.69 20.29 19.95L18.87 19.95 18.87 21.95 20.29 21.95C19.83 26.21 16.43 29.6 12.17 30.07Z" fill="#7823DC"/><path d="M15.22 17.49 13.66 16.24 9.98 20.86 15.5 26.89 16.97 25.54 12.61 20.77 15.22 17.49Z" fill="#7823DC"/></svg>