<svg viewBox="0 0 32 32" xmlns="http://www.w3.org/2000/svg" xmlns:xlink="http://www.w3.org/1999/xlink" id="Graphic" xml:space="preserve" overflow="hidden"><g><path d="M30 18 20 18 20 12 30 12 30 18 30 18ZM22 16 28 16 28 14 22 14 22 16 22 16Z" fill="#7823DC"/><path d="M18.7 11.3 16 7.7 13.3 11.3 7 7.6 7 0 25 0 25 7.6 18.7 11.3 18.7 11.3ZM16 4.4 19.3 8.7 23 6.5 23 2 9 2 9 6.4 12.7 8.6 16 4.4 16 4.4Z" fill="#7823DC"/><path d="M7.6 1.9 8.4 0.1 16.4 4.1 15.6 5.9 7.6 1.9Z" fill="#7823DC"/><path d="M15.6 4.1 23.6 0.1 24.5 1.9 16.4 5.9 15.6 4.1Z" fill="#7823DC"/><path d="M30 32 2 32 2 3.1 8 3.1 8 5.1 4 5.1 4 30 28 30 28 5.1 24 5.1 24 3.1 30 3.1 30 32 30 32Z" fill="#7823DC"/><path d="M15 5 17 5 17 32 15 32 15 5Z" fill="#7823DC"/></g></svg>