<svg viewBox="0 0 32 32" xmlns="http://www.w3.org/2000/svg" xmlns:xlink="http://www.w3.org/1999/xlink" id="Layer_2" overflow="hidden"><style>
.MsftOfcResponsive_Fill_7823dc {
 fill:#7823DC; 
}
</style>
<defs></defs><path d="M22 24.03C23.65 24.03 25 22.68 25 21.03 25 19.38 23.65 18.03 22 18.03 20.35 18.03 19 19.38 19 21.03 19 22.68 20.35 24.03 22 24.03ZM22 20.03C22.55 20.03 23 20.48 23 21.03 23 21.58 22.55 22.03 22 22.03 21.45 22.03 21 21.58 21 21.03 21 20.48 21.45 20.03 22 20.03Z" class="MsftOfcResponsive_Fill_7823dc" fill="#7823DC"/><path d="M22 27.33 19.5 24 17 24 17 32 19 32 19 26.67 22 30.67 25 26.67 25 32 27 32 27 24 24.5 24 22 27.33Z" class="MsftOfcResponsive_Fill_7823dc" fill="#7823DC"/><path d="M10 24.03C11.65 24.03 13 22.68 13 21.03 13 19.38 11.65 18.03 10 18.03 8.35 18.03 7 19.38 7 21.03 7 22.68 8.35 24.03 10 24.03ZM10 20.03C10.55 20.03 11 20.48 11 21.03 11 21.58 10.55 22.03 10 22.03 9.45 22.03 9 21.58 9 21.03 9 20.48 9.45 20.03 10 20.03Z" class="MsftOfcResponsive_Fill_7823dc" fill="#7823DC"/><path d="M10 27.33 7.5 24 5 24 5 32 7 32 7 26.67 10 30.67 13 26.67 13 32 15 32 15 24 12.5 24 10 27.33Z" class="MsftOfcResponsive_Fill_7823dc" fill="#7823DC"/><path d="M0 0 0 13 7.04 13 9.98 16.98 13.08 13 18.97 13 21.99 16.97 25.04 13 31.99 13 31.99 0 0 0ZM30 11 24.06 11 22 13.68 19.96 11 12.1 11 10.02 13.67 8.05 11 2 11 2 2 30 2 30 11Z" class="MsftOfcResponsive_Fill_7823dc" fill="#7823DC"/><rect x="24" y="5.5" width="2" height="2" class="MsftOfcResponsive_Fill_7823dc" fill="#7823DC"/><rect x="18" y="5.5" width="2" height="2" class="MsftOfcResponsive_Fill_7823dc" fill="#7823DC"/><rect x="12" y="5.5" width="2" height="2" class="MsftOfcResponsive_Fill_7823dc" fill="#7823DC"/><rect x="6" y="5.5" width="2" height="2" class="MsftOfcResponsive_Fill_7823dc" fill="#7823DC"/></svg>