<svg viewBox="0 0 32.11 32.02" xmlns="http://www.w3.org/2000/svg" xmlns:xlink="http://www.w3.org/1999/xlink" id="Layer_1" overflow="hidden"><style>
.MsftOfcThm_Text2_Fill_v2 {
 fill:#7823DC; 
}
</style>
<path d="M23.92 21.39C23.75 21.16 19.73 15.59 19.73 11.08L19.73 10.08 24.15 10.08 16.06 2.71 7.97 10.08 12.39 10.08 12.39 11.08C12.39 15.58 8.37 21.15 8.2 21.39L6.58 20.21C6.58 20.21 9.78 15.77 10.31 12.08L2.81 12.08 16.06 0 29.31 12.08 21.81 12.08C22.34 15.77 25.51 20.16 25.54 20.21L23.92 21.39Z" class="MsftOfcThm_Text2_Fill_v2" fill="#7823DC"/><path d="M4.62 27.35C3.42 27.35 2.29 26.88 1.44 26.03 0.59 25.18 0.12 24.05 0.12 22.85 0.12 21.65 0.59 20.52 1.44 19.67 2.29 18.82 3.42 18.35 4.62 18.35 5.82 18.35 6.95 18.82 7.8 19.67 8.65 20.52 9.12 21.65 9.12 22.85 9.12 24.05 8.65 25.18 7.8 26.03 6.95 26.88 5.82 27.35 4.62 27.35ZM4.62 20.35C3.95 20.35 3.32 20.61 2.85 21.08 2.38 21.55 2.12 22.18 2.12 22.85 2.12 23.52 2.39 24.15 2.85 24.62 3.79 25.56 5.44 25.56 6.39 24.62 6.86 24.15 7.12 23.52 7.12 22.85 7.12 22.18 6.86 21.55 6.39 21.08 5.92 20.61 5.29 20.35 4.62 20.35Z" class="MsftOfcThm_Text2_Fill_v2" fill="#7823DC"/><path d="M23.74 32.02 21.57 32.02 21.27 31.63C20.64 30.82 19.84 30.15 18.94 29.7 17.15 28.81 14.97 28.81 13.19 29.7 12.29 30.15 11.49 30.82 10.86 31.63L10.56 32.02 8.39 32.02 8.14 31.39C7.86 30.7 7.44 30.08 6.92 29.59 6.4 29.11 5.78 28.75 5.12 28.55 4.47 28.36 3.77 28.32 3.1 28.45 2.43 28.58 1.78 28.87 1.22 29.3L-2.44249e-15 27.71C0.8 27.09 1.74 26.67 2.72 26.49 3.7 26.3 4.72 26.36 5.68 26.64 6.63 26.92 7.53 27.44 8.27 28.13 8.82 28.64 9.29 29.26 9.65 29.93 10.39 29.09 11.29 28.4 12.28 27.9 14.62 26.73 17.48 26.73 19.82 27.9 20.81 28.39 21.71 29.09 22.45 29.93 22.81 29.25 23.28 28.64 23.83 28.13 24.57 27.44 25.47 26.92 26.42 26.64 27.38 26.35 28.4 26.3 29.38 26.49 30.36 26.68 31.3 27.1 32.1 27.71L30.88 29.3C30.32 28.87 29.68 28.58 29.01 28.45 28.34 28.32 27.65 28.36 26.99 28.55 26.33 28.75 25.71 29.1 25.19 29.59 24.67 30.08 24.25 30.7 23.97 31.39L23.72 32.02Z" class="MsftOfcThm_Text2_Fill_v2" fill="#7823DC"/><path d="M27.49 27.35C26.9 27.35 26.32 27.23 25.77 27.01 25.22 26.78 24.73 26.45 24.31 26.03 23.89 25.61 23.56 25.12 23.33 24.57 23.1 24.02 22.99 23.44 22.99 22.85 22.99 22.26 23.11 21.68 23.33 21.13 23.56 20.58 23.89 20.09 24.31 19.67 24.73 19.25 25.22 18.92 25.77 18.69 26.87 18.23 28.11 18.23 29.21 18.69 29.76 18.92 30.25 19.25 30.67 19.67 31.09 20.09 31.42 20.58 31.65 21.13 31.88 21.68 31.99 22.26 31.99 22.85 31.99 23.44 31.87 24.02 31.65 24.57 31.42 25.12 31.09 25.61 30.67 26.03 30.25 26.45 29.76 26.78 29.21 27.01 28.66 27.24 28.08 27.35 27.49 27.35ZM27.49 20.35C27.16 20.35 26.84 20.41 26.53 20.54 26.22 20.67 25.95 20.85 25.72 21.08 25.49 21.31 25.3 21.59 25.18 21.89 25.05 22.19 24.99 22.52 24.99 22.85 24.99 23.18 25.05 23.5 25.18 23.81 25.31 24.11 25.49 24.39 25.72 24.62 25.95 24.85 26.23 25.04 26.53 25.16 27.14 25.41 27.83 25.41 28.44 25.16 28.74 25.03 29.02 24.85 29.25 24.62 29.48 24.39 29.67 24.11 29.79 23.81 29.92 23.5 29.98 23.18 29.98 22.85 29.98 22.52 29.92 22.2 29.79 21.89 29.66 21.59 29.48 21.31 29.25 21.08 29.02 20.85 28.74 20.66 28.44 20.54 28.13 20.41 27.81 20.35 27.48 20.35Z" class="MsftOfcThm_Text2_Fill_v2" fill="#7823DC"/><path d="M16.06 28.35C14.59 28.35 13.21 27.78 12.17 26.74 11.13 25.7 10.56 24.32 10.56 22.85 10.56 21.38 11.13 20 12.17 18.96 13.21 17.92 14.59 17.35 16.06 17.35 17.53 17.35 18.91 17.92 19.95 18.96 20.99 20 21.56 21.38 21.56 22.85 21.56 24.32 20.99 25.7 19.95 26.74 18.91 27.78 17.53 28.35 16.06 28.35ZM16.06 19.35C15.12 19.35 14.25 19.71 13.59 20.38 12.93 21.04 12.56 21.92 12.56 22.85 12.56 23.78 12.93 24.67 13.58 25.33 14.9 26.65 17.21 26.65 18.53 25.33 19.18 24.68 19.56 23.78 19.56 22.85 19.56 21.92 19.2 21.04 18.53 20.38 17.87 19.72 16.99 19.35 16.06 19.35Z" class="MsftOfcThm_Text2_Fill_v2" fill="#7823DC"/></svg>