<svg width="32" height="32.1" viewBox="0 0 32 32.1" xmlns="http://www.w3.org/2000/svg" xmlns:xlink="http://www.w3.org/1999/xlink" overflow="hidden"><defs></defs><g><g><defs><rect x="0" y="0" width="32" height="32" id="SVGID_1_" fill="#7823DC"/></defs><clipPath id="SVGID_2_"><use width="100%" height="100%" xlink:href="#SVGID_1_"></use></clipPath><rect x="15" y="4" width="2" height="4" fill="#7823DC" clip-path="url(#SVGID_2_)"/><rect x="4" y="15" width="4" height="2" fill="#7823DC" clip-path="url(#SVGID_2_)"/><rect x="15" y="24" width="2" height="4" fill="#7823DC" clip-path="url(#SVGID_2_)"/><rect x="24" y="15" width="4" height="2" fill="#7823DC" clip-path="url(#SVGID_2_)"/><g clip-path="url(#SVGID_2_)"><defs><rect x="0" y="0" width="32" height="32" id="SVGID_3_" fill="#7823DC"/></defs><clipPath id="SVGID_4_"><use width="100%" height="100%" xlink:href="#SVGID_3_"></use></clipPath><path d="M16 32.1C7.2 32.1 0 24.9 0 16.1 0 7.3 7.2 0.1 16 0.1 24.8 0.1 32 7.3 32 16.1 32 24.9 24.8 32.1 16 32.1ZM16 2.1C8.3 2.1 2 8.4 2 16.1 2 23.8 8.3 30.1 16 30.1 23.7 30.1 30 23.8 30 16.1 30 8.4 23.7 2.1 16 2.1Z" fill="#7823DC" clip-path="url(#SVGID_4_)"/><path d="M24.8 24.1 16.8 16.1 20.8 12.1 18 12.1 14 16.1 22 24.1Z" fill="#7823DC" clip-path="url(#SVGID_4_)"/></g></g></g></svg>