<svg viewBox="0 0 32 32" xmlns="http://www.w3.org/2000/svg" xmlns:xlink="http://www.w3.org/1999/xlink" id="Layer_1" overflow="hidden"><rect x="9.4" y="3" width="2" height="26" fill="#7823DC"/><path d="M16.5 17 11 17 11 15 16.4 15C19.4 15 21.8 12.7 21.8 9.9L21.8 9C21.8 6.5 19.6 4.4 16.9 4.4L8.1 4.4 8.1 2.4 17 2.4C20.8 2.4 23.9 5.4 23.9 9L23.9 9.9C23.9 13.8 20.6 17 16.5 17Z" fill="#7823DC"/><path d="M17.1 29.6 8.2 29.6 8.2 27.6 17.1 27.6C19.8 27.6 22 25.5 22 23L22 22.1C22 19.3 19.6 17 16.6 17L11.1 17 11.1 15 16.5 15C20.6 15 23.9 18.2 23.9 22.1L23.9 23C24 26.6 20.9 29.6 17.1 29.6Z" fill="#7823DC"/><g><rect x="11.4" y="0" width="2" height="3.4" fill="#7823DC"/><rect x="16.9" y="0" width="2" height="3.4" fill="#7823DC"/><rect x="11.4" y="28.6" width="2" height="3.4" fill="#7823DC"/><rect x="16.9" y="28.6" width="2" height="3.4" fill="#7823DC"/></g></svg>