<svg viewBox="0 0 32 32" xmlns="http://www.w3.org/2000/svg" xmlns:xlink="http://www.w3.org/1999/xlink" id="Layer_1" overflow="hidden"><style>
.MsftOfcThm_Text2_Fill_v2 {
 fill:#7823DC; 
}
</style>
<defs></defs><path d="M32 22.67 0 22.67 0 9.05 32 9.05 32 22.67ZM2 20.67 30 20.67 30 11.05 2 11.05 2 20.67Z" class="MsftOfcThm_Text2_Fill_v2" stroke-width="0" fill="#7823DC"/><rect x="4.94" y="14.85" width="4.61" height="2" class="MsftOfcThm_Text2_Fill_v2" stroke-width="0" fill="#7823DC" transform="matrix(0.542295 -0.840188 0.840188 0.542295 -10 13.35)"/><rect x="13.69" y="14.85" width="4.61" height="2" class="MsftOfcThm_Text2_Fill_v2" stroke-width="0" fill="#7823DC" transform="matrix(0.542295 -0.840188 0.840188 0.542295 -6 20.7)"/><rect x="22.44" y="14.85" width="4.61" height="2" class="MsftOfcThm_Text2_Fill_v2" stroke-width="0" fill="#7823DC" transform="matrix(0.542295 -0.840188 0.840188 0.542295 -1.99 28.05)"/><path d="M3.5 7.17C1.57 7.17 0 5.56 0 3.59 0 1.62 1.57 0 3.5 0 5.43 0 7 1.61 7 3.58 7 5.55 5.43 7.16 3.5 7.16ZM3.5 2C2.67 2 2 2.71 2 3.58 2 4.45 2.67 5.16 3.5 5.16 4.33 5.16 5 4.45 5 3.58 5 2.71 4.33 2 3.5 2Z" class="MsftOfcThm_Text2_Fill_v2" stroke-width="0" fill="#7823DC"/><path d="M28.5 7.17C26.57 7.17 25 5.56 25 3.59 25 1.62 26.57 0.01 28.5 0.01 30.43 0.01 32 1.62 32 3.59 32 5.56 30.43 7.17 28.5 7.17ZM28.5 2C27.67 2 27 2.71 27 3.58 27 4.45 27.67 5.16 28.5 5.16 29.33 5.16 30 4.45 30 3.58 30 2.71 29.33 2 28.5 2Z" class="MsftOfcThm_Text2_Fill_v2" stroke-width="0" fill="#7823DC"/><rect x="2.5" y="6.17" width="2" height="3.88" class="MsftOfcThm_Text2_Fill_v2" stroke-width="0" fill="#7823DC"/><rect x="27.5" y="6.17" width="2" height="3.88" class="MsftOfcThm_Text2_Fill_v2" stroke-width="0" fill="#7823DC"/><rect x="2.5" y="21.67" width="2" height="10.33" class="MsftOfcThm_Text2_Fill_v2" stroke-width="0" fill="#7823DC"/><rect x="27.5" y="21.67" width="2" height="10.33" class="MsftOfcThm_Text2_Fill_v2" stroke-width="0" fill="#7823DC"/></svg>