<svg viewBox="0 0 31.99 31.99" xmlns="http://www.w3.org/2000/svg" xmlns:xlink="http://www.w3.org/1999/xlink" id="Layer_1" overflow="hidden"><style>
.MsftOfcResponsive_Fill_7823dc {
 fill:#7823DC; 
}
</style>
<defs></defs><path d="M31.59 14.96C30.59 11.45 27.85 8.84 24.77 8.45 24.11 8.37 23.5 8.39 22.93 8.45 26.76 3.52 24.81 0.9 24.52 0.56L24.03-0.01 23.35 0.29C20.56 1.54 19.11 4.04 18.36 6.33 16.6 2.59 13.43 0.21 13.24 0.06L12.05 1.67C12.1 1.71 16.46 5.02 17.37 9.7 16.19 8.87 14.5 8.17 12.29 8.45 10.01 8.74 7.53 10.19 6.17 12.81L2.88 12.81C2.02 12.81 1.31 13.07 0.76 13.58 0.28 14.03 0.04 14.63 0.01 15.26L-0.02 15.26-0.02 25.99 1.98 25.99 1.98 25.96 8.86 25.96 8.86 25.98C9.67 27.52 11.54 29.98 12.5 30.75 13.49 31.55 14.7 31.99 15.9 31.99 16.08 31.99 16.26 31.99 16.44 31.96 17.21 31.87 17.9 31.62 18.52 31.22 19.14 31.62 19.83 31.88 20.6 31.96 20.78 31.98 20.96 31.99 21.13 31.99 22.32 31.99 23.54 31.55 24.53 30.75 33 23.92 32.28 17.43 31.58 14.96ZM23.23 2.66C23.33 3.71 22.94 5.79 19.78 9.02 20.12 7.03 20.99 4.2 23.23 2.66ZM2.15 15.03C2.21 14.97 2.39 14.81 2.89 14.81L5.42 14.81C5.32 15.2 5.26 15.61 5.21 16.04L2.72 16.04C2.35 16.04 2.12 15.78 2.04 15.57 1.96 15.36 2 15.18 2.15 15.04ZM2 17.93C2.22 17.99 2.46 18.03 2.7 18.04L20 18 20 23.97 18 23.97 18 20 16 20 16 23.97 13.99 23.97 13.99 22 11.99 22 11.99 23.97 10 23.97 10 20 8 20 8 23.97 6 23.97 6 22 4 22 4 23.97 2 23.97 2 17.94ZM23.29 29.2C22.56 29.79 21.66 30.06 20.84 29.98 20.21 29.91 19.69 29.67 19.23 29.24L18.58 28.55 18.53 28.59 18.48 28.55 17.83 29.24C17.37 29.66 16.85 29.91 16.22 29.98 15.39 30.07 14.49 29.79 13.77 29.21 13.21 28.76 12.02 27.27 11.19 25.98L21.99 25.98 21.99 16.01 7.24 16.05C7.74 12.6 10.19 10.75 12.54 10.46 15.89 10.05 17.61 12.7 17.68 12.81 17.86 13.1 18.18 13.28 18.53 13.28L18.53 13.28C18.87 13.28 19.19 13.1 19.38 12.81 19.45 12.7 21.18 10.04 24.52 10.45 26.78 10.73 28.9 12.82 29.67 15.52 30.93 19.94 28.6 24.93 23.29 29.21Z" class="MsftOfcResponsive_Fill_7823dc" fill="#7823DC"/></svg>