<svg width="36.5" height="36.6" viewBox="0 0 36.5 36.6" xmlns="http://www.w3.org/2000/svg" xmlns:xlink="http://www.w3.org/1999/xlink" overflow="hidden"><defs></defs><g><g><defs><path d="M0 36.5 36.5 36.5 36.5 0 0 0 0 36.5Z" id="SVGID_1_" fill="#7823DC"/></defs><clipPath id="SVGID_2_"><use width="100%" height="100%" xlink:href="#SVGID_1_"></use></clipPath><g clip-path="url(#SVGID_2_)"><defs><path d="M0 36.5 36.5 36.5 36.5 0 0 0 0 36.5Z" id="SVGID_3_" fill="#7823DC"/></defs><clipPath id="SVGID_4_"><use width="100%" height="100%" xlink:href="#SVGID_3_"></use></clipPath><path d="M5.9 8.2 5.9 5 10.7 9.8 9.1 11.4 5.9 8.2 5.9 8.2Z" fill="#7823DC" clip-path="url(#SVGID_4_)"/><path d="M8.2 30.7 5 30.7 9.8 25.8 11.4 27.4 8.2 30.7 8.2 30.7Z" fill="#7823DC" clip-path="url(#SVGID_4_)"/><path d="M30.6 28.4 30.6 31.6 25.8 26.8 27.4 25.1 30.6 28.4 30.6 28.4Z" fill="#7823DC" clip-path="url(#SVGID_4_)"/><path d="M28.3 5.9 31.5 5.9 26.7 10.8 25.1 9.1 28.3 5.9 28.3 5.9Z" fill="#7823DC" clip-path="url(#SVGID_4_)"/><path d="M19.4 34.3 17.1 36.6 17.1 29.7 19.4 29.7 19.4 34.3 19.4 34.3Z" fill="#7823DC" clip-path="url(#SVGID_4_)"/><path d="M2.3 19.4 0 17.2 6.8 17.1 6.8 19.4 2.3 19.4 2.3 19.4Z" fill="#7823DC" clip-path="url(#SVGID_4_)"/><path d="M18.2 27.4C13.2 27.4 9.1 23.3 9.1 18.3 9.1 13.3 13.2 9.2 18.2 9.2 23.2 9.2 27.3 13.3 27.3 18.3 27.3 23.3 23.3 27.4 18.2 27.4ZM18.2 11.4C14.4 11.4 11.4 14.5 11.4 18.3 11.4 22.1 14.5 25.2 18.2 25.2 21.9 25.2 25 22.1 25 18.3 25 14.5 22 11.4 18.2 11.4Z" fill="#7823DC" clip-path="url(#SVGID_4_)"/><path d="M17.1 2.3 19.4 0 19.4 6.9 17.1 6.9 17.1 2.3 17.1 2.3Z" fill="#7823DC" clip-path="url(#SVGID_4_)"/><path d="M34.2 17.1 36.5 19.4 29.6 19.4 29.6 17.1 34.2 17.1 34.2 17.1Z" fill="#7823DC" clip-path="url(#SVGID_4_)"/></g></g></g></svg>