<svg viewBox="0 0 32 32" xmlns="http://www.w3.org/2000/svg" xmlns:xlink="http://www.w3.org/1999/xlink" id="Layer_5" overflow="hidden"><defs></defs><path d="M24.6 13.07C26.47 13.07 28.27 12.38 29.66 11.14 30.11 10.74 30.65 10.41 31.07 10.17L33 9.08 34.97 7.05 33.51 5.68 31.87 7.42 30.07 8.44C29.56 8.73 28.9 9.13 28.31 9.65 27.28 10.57 25.96 11.07 24.59 11.07L20.5 11.07C20.21 11.07 19.97 10.83 19.97 10.54 19.97 10.25 20.21 10.01 20.5 10.01L24.02 10.01 24.02 8.01 17.74 8.01 19.88 5.6C20.83 4.54 22.24 4.01 23.64 4.18L26.41 4.52C27.33 4.63 28.25 4.57 29.13 4.34 31.1 3.82 33.56 0.24 33.74-0.18L33.72-1.08 32.75-0.57 31.93-1.01C31.62-0.43 29.58 2.15 28.63 2.41 27.99 2.58 27.33 2.62 26.67 2.54L23.9 2.2C21.83 1.94 19.78 2.72 18.4 4.27L15.07 8.01 8 8.01 8 14.01 3.05 14.01-0.78 24 0 24 0 32 32 32 32 24 32.82 24 28.98 14 24 14 24 13.07 24.6 13.07ZM30 30 2 30 2 24 30 24 30 30ZM27.61 16 29.91 22 2.13 22 4.43 16 8 16 8 18 7 18 7 20 25 20 25 18 24 18 24 16 27.61 16ZM22 18 10 18 10 10 18.03 10C17.99 10.17 17.97 10.35 17.97 10.53 17.97 11.93 19.11 13.06 20.5 13.06L21.99 13.06 21.99 17.99Z" stroke-width="0" fill="#7823DC"/></svg>