<svg viewBox="0 0 32 32" xmlns="http://www.w3.org/2000/svg" xmlns:xlink="http://www.w3.org/1999/xlink" id="Layer_3" overflow="hidden"><defs></defs><path d="M12.084 8 12.084 4.00549 10.864 4.00549 10.864 0.0044 3.12 0.0044 3.12 4.00549 1.9 4.00549 1.9 8 0 8 0 32 14.001 32 14.001 8C14.001 8 12.084 8 12.084 8ZM5.12 2.0044 8.86401 2.0044 8.86401 4.00549 5.12 4.00549 5.12 2.0044ZM3.9 6.00549 10.094 6.00549 10.094 8 3.9 8 3.9 6.00549ZM12.011 25.9889 8.04006 25.9889 8.04006 14.0047 12.011 14.0047 12.011 25.9889ZM6.03007 12.0147 6.03007 27.9989 12.001 27.9989 12.001 30.01 2 30.01 2 10 12.001 10 12.001 12.0047 6.03007 12.0047 6.03007 12.0147Z" stroke-width="0" fill="#7823DC"/><rect x="14.0116" y="2.01164" width="2" height="2" stroke-width="0" fill="#7823DC"/><rect x="18.0116" y="2.01164" width="2" height="2" stroke-width="0" fill="#7823DC"/><rect x="22.0116" y="2.01164" width="2" height="2" stroke-width="0" fill="#7823DC"/><rect x="26.0116" y="2.01164" width="2" height="2" stroke-width="0" fill="#7823DC"/><rect x="29.9884" y="2.01164" width="2" height="2" stroke-width="0" fill="#7823DC"/><rect x="16.0374" y="5.21184" width="2" height="2" stroke-width="0" fill="#7823DC" transform="matrix(0.707107 0.707107 -0.707107 0.707107 9.38258 -10.2279)"/><rect x="18.8658" y="8.04027" width="2" height="2" stroke-width="0" fill="#7823DC" transform="matrix(0.707107 0.707107 -0.707107 0.707107 12.211 -11.3994)"/><rect x="21.6943" y="10.8687" width="2" height="2" stroke-width="0" fill="#7823DC" transform="matrix(0.707107 0.707107 -0.707107 0.707107 15.0394 -12.571)"/><rect x="24.5227" y="13.6971" width="2" height="2" stroke-width="0" fill="#7823DC" transform="matrix(0.707107 0.707107 -0.707107 0.707107 17.8679 -13.7426)"/><rect x="27.3347" y="16.5091" width="2" height="2" stroke-width="0" fill="#7823DC" transform="matrix(0.707107 0.707107 -0.707107 0.707107 20.6798 -14.9073)"/></svg>