<svg viewBox="0 0 31.98 32.07" xmlns="http://www.w3.org/2000/svg" xmlns:xlink="http://www.w3.org/1999/xlink" id="Layer_1" overflow="hidden"><style>
.MsftOfcResponsive_Fill_7823dc {
 fill:#7823DC; 
}
</style>
<defs></defs><path d="M8.33 3.91C8.37 4.28 8.41 4.65 8.43 5.02L7 5.02C6.45 5.02 6 5.47 6 6.02 6 6.02 6 6.02 6 6.02 6 6.57 6.45 7.02 7 7.02 7 7.02 7 7.02 7 7.02L8.45 7.02C8.38 7.91 8.21 8.45 8 9.1 7.76 9.85 7.48 10.78 7.48 12.22 7.48 12.93 7.55 13.52 7.66 14.02L1 14.02C0.45 14.02 0 14.47 0 15.02L0 17.02C0 22.74 4.4 27.46 9.99 27.96L9.99 31.01C9.99 31.56 10.44 32.01 10.99 32.01L20.99 32.01C21.54 32.01 21.99 31.56 21.99 31.01L21.99 27.96C27.58 27.45 31.98 22.74 31.98 17.02L31.98 15.02C31.98 14.47 31.53 14.02 30.98 14.02L17.72 14.02C17.59 13.54 17.49 13.04 17.49 12.22 17.49 11.02 17.67 10.45 17.91 9.71 18.12 9.04 18.38 8.22 18.45 7.02L30.98 7.02C31.53 7.02 31.98 6.57 31.98 6.02L31.98 6.02C31.98 5.47 31.53 5.02 30.98 5.02L18.44 5.02C18.4 4.36 18.34 3.69 18.27 3.08M16.27 3.25C16.33 3.81 16.39 4.43 16.43 5.02L14.44 5.02C14.41 4.47 14.36 3.94 14.3 3.41M12.3 3.58C12.35 4.05 12.4 4.54 12.43 5.02L10.43 5.02C10.4 4.58 10.36 4.17 10.32 3.75L12.3 3.59ZM10.44 7.02 12.45 7.02C12.38 7.91 12.21 8.45 12 9.1 11.76 9.85 11.48 10.78 11.48 12.22 11.48 12.93 11.55 13.52 11.66 14.02L9.7 14.02C9.56 13.54 9.47 13.04 9.47 12.22 9.47 11.02 9.65 10.45 9.89 9.71 10.1 9.04 10.36 8.22 10.43 7.02ZM14.45 7.02 16.45 7.02C16.38 7.91 16.21 8.45 16 9.1 15.76 9.85 15.49 10.78 15.49 12.22 15.49 12.93 15.56 13.52 15.67 14.02L13.72 14.02C13.58 13.54 13.49 13.03 13.49 12.22 13.49 11.02 13.67 10.45 13.91 9.71 14.12 9.04 14.37 8.22 14.45 7.02ZM2 16.01 12.87 16.01C12.95 16.02 13.04 16.02 13.12 16.01L29.98 16.01 29.98 17.01C29.98 21.99 25.97 26 20.99 26L10.99 26C6.01 26 2 21.99 2 17.01L2 16.01Z" id="path53" class="MsftOfcResponsive_Fill_7823dc" fill="#7823DC" fill-rule="evenodd"/><rect x="9.99" y="27.04" width="12" height="5.03" class="MsftOfcResponsive_Fill_7823dc" fill="#7823DC"/><rect x="0" y="14.01" width="31.98" height="1.99" class="MsftOfcResponsive_Fill_7823dc" fill="#7823DC"/><rect x="5.95" y="5.02" width="26.03" height="1.99" class="MsftOfcResponsive_Fill_7823dc" fill="#7823DC"/><rect x="5.82" y="1.18" width="26.12" height="1.99" class="MsftOfcResponsive_Fill_7823dc" fill="#7823DC" transform="matrix(0.995853 -0.0909802 0.0909802 0.995853 -0.12 1.73)"/></svg>