<svg viewBox="0 0 32 32" xmlns="http://www.w3.org/2000/svg" xmlns:xlink="http://www.w3.org/1999/xlink" id="Layer_2_1_" overflow="hidden"><style>
.MsftOfcResponsive_Fill_7823dc {
 fill:#7823DC; 
}
</style>
<g><path d="" class="MsftOfcResponsive_Fill_7823dc" fill="#7823DC" fill-rule="evenodd" clip-rule="evenodd"/></g><g><path d="M23.5 14.3C23.3 13.5 23 12.7 22.6 12 22.2 11.3 21.6 10.7 21 10.1 21 10.1 20.9 10 20.9 10 20.7 9.8 20.4 9.6 20.1 9.4 20 9.5 19.9 9.8 19.8 10 19.8 10 19.8 10.1 19.8 10.1 19.7 10.2 19.7 10.3 19.6 10.4 19.5 10.3 19.4 10.2 19.4 10.1 19.4 10.1 19.4 10 19.3 10 18.8 9.3 18.3 8.6 17.6 8.1 16.7 7.2 15.6 6.6 14.4 6.3 14.4 6.9 14.5 7.5 14.5 8.1 14.5 8.7 14.4 9.4 14.2 10 14.2 10 14.2 10.1 14.2 10.1 14 10.8 13.6 11.4 13 11.9 12.5 11.4 12.1 10.8 11.8 10.1 11.8 10.1 11.8 10 11.8 10 11.7 9.8 11.7 9.7 11.6 9.5 11.2 9.7 11 9.8 10.8 10 10.8 10 10.7 10.1 10.7 10.1 10 10.7 9.5 11.3 9.1 12 7.2 15.3 8.1 19.9 11.2 22.2 12.2 23 13.4 23.5 14.9 23.6L14.9 22.5C14.5 22.5 14.1 22.4 13.8 22.1 13 21.5 12.7 20.3 12.8 19.3 13.3 19.9 14 20.5 14.7 20.9 15.8 19.7 16.7 18.4 16.7 17.2 17.2 17.8 17.6 18.5 17.9 19.3L18.5 18.7C18.8 19.1 18.9 19.6 18.9 20 18.9 20.8 18.5 21.6 17.8 22.1 17.5 22.3 17.1 22.4 16.7 22.5L16.7 23.6C18.1 23.5 19.3 23 20.4 22.2 22.8 20.4 24.1 17.3 23.5 14.3ZM18.4 17 18.2 17.3C17.7 16.4 16.8 15.8 15.8 15.5 16 16.9 15.5 18.4 14.6 19.5 13.9 18.9 13.3 18.1 12.9 17.3 11.9 18.4 11.5 19.9 12 21.4 11.5 21 11 20.5 10.6 20 9.7 18.8 9.2 17.4 9.2 15.9 9.2 14.5 9.6 13.1 10.5 12 10.7 11.7 10.9 11.5 11.1 11.2 11.3 11.5 11.4 11.7 11.6 12 12 12.5 12.4 13 12.9 13.4 13.4 12.9 13.9 12.5 14.3 12 14.8 11.4 15.1 10.8 15.3 10.1 15.3 10.1 15.3 10 15.3 10 15.5 9.4 15.5 8.8 15.5 8.1L15.5 7.9C15.7 8 15.8 8 15.9 8.1 16.7 8.6 17.4 9.3 18 10 18 10 18 10.1 18.1 10.1 18.6 10.7 19 11.3 19.3 12 19.4 12.2 19.5 12.3 19.6 12.5 19.8 12.3 19.9 12.2 20 12 20.2 11.7 20.4 11.4 20.6 11.1 20.9 11.4 21.2 11.7 21.4 12 22.4 13.3 22.8 15 22.5 16.6 22.3 18.4 21.4 20.1 19.9 21.2 20.3 19.7 19.7 17.9 18.4 17Z" class="MsftOfcResponsive_Fill_7823dc" fill="#7823DC"/><path d="M21.8 12C21.5 11.6 21.2 11.2 20.8 10.8L20.5 10.5 20.3 10.9C20.1 11.2 19.9 11.5 19.7 11.8 19.4 11.2 19 10.6 18.6 10.1 18.6 10.1 18.6 10 18.5 10 17.9 9.2 17.3 8.6 16.6 8.1 16.4 7.9 16.1 7.7 15.9 7.6L15.3 7.3 15.3 8 15.3 8.2C15.3 8.9 15.2 9.5 15 10.1 15 10.1 15 10.2 15 10.2 14.8 10.9 14.4 11.5 13.9 12.1 13.7 12.4 13.4 12.7 13 13 12.7 12.7 12.4 12.4 12.1 12.1 11.9 11.8 11.6 11.5 11.4 11.1L11.2 10.7 10.8 11C10.5 11.3 10.2 11.7 10 12 8.4 14.5 8.4 17.8 10.2 20.2 10.6 20.8 11.1 21.2 11.7 21.7L12.4 22.2 12.6 22.4 12.5 22.2 12.2 21.3C11.8 20.2 12 18.9 12.7 18 13.1 18.7 13.6 19.3 14.2 19.9L14.5 20.1 14.7 19.8C15.5 18.7 16 17.4 16 16.1 16.7 16.4 17.3 16.9 17.7 17.6L18 18.1 18.3 17.6C19.3 18.5 19.7 19.9 19.3 21.2L19 22.2 19 22.2 19.1 22.2 20 21.6C21.6 20.4 22.6 18.6 22.8 16.7 23.1 15 22.7 13.3 21.8 12ZM22.1 16.5 22.1 16.5C21.9 17.9 21.3 19.2 20.4 20.2 20.5 18.8 19.8 17.4 18.6 16.6L18.3 16.4 18.2 16.6C17.6 15.9 16.8 15.3 15.9 15.1L15.4 15 15.4 15.5C15.5 16.7 15.2 17.9 14.5 18.9 14 18.4 13.5 17.7 13.2 17L13 16.6 12.6 17C11.7 17.9 11.3 19.1 11.4 20.3 11.2 20.1 11 19.9 10.9 19.7 9.1 17.4 9.2 14.2 11 12 11 11.9 11.1 11.9 11.1 11.8 11.1 11.8 11.2 11.9 11.2 12 11.6 12.6 12.2 13.2 12.7 13.7L12.9 13.9 13.1 13.7C13.8 13.2 14.3 12.6 14.7 12 15.1 11.4 15.5 10.8 15.6 10.1 15.6 10.1 15.6 10 15.6 10 15.9 9.5 16 9.1 16 8.6 16.5 9 17 9.4 17.5 10 17.5 10 17.5 10.1 17.6 10.1 18.1 10.7 18.5 11.3 18.9 12 19 12.2 19.1 12.4 19.2 12.7L19.4 13.2 19.8 12.8C20 12.6 20.2 12.3 20.4 12 20.5 11.9 20.6 11.8 20.6 11.7 20.7 11.8 20.8 11.9 20.9 12 21.9 13.3 22.4 14.9 22.1 16.5ZM21.8 12C21.5 11.6 21.2 11.2 20.8 10.8L20.5 10.5 20.3 10.9C20.1 11.2 19.9 11.5 19.7 11.8 19.4 11.2 19 10.6 18.6 10.1 18.6 10.1 18.6 10 18.5 10 17.9 9.2 17.3 8.6 16.6 8.1 16.4 7.9 16.1 7.7 15.9 7.6L15.3 7.3 15.3 8 15.3 8.2C15.3 8.9 15.2 9.5 15 10.1 15 10.1 15 10.2 15 10.2 14.8 10.9 14.4 11.5 13.9 12.1 13.7 12.4 13.4 12.7 13 13 12.7 12.7 12.4 12.4 12.1 12.1 11.9 11.8 11.6 11.5 11.4 11.1L11.2 10.7 10.8 11C10.5 11.3 10.2 11.7 10 12 8.4 14.5 8.4 17.8 10.2 20.2 10.6 20.8 11.1 21.2 11.7 21.7L12.4 22.2 12.6 22.4 12.5 22.2 12.2 21.3C11.8 20.2 12 18.9 12.7 18 13.1 18.7 13.6 19.3 14.2 19.9L14.5 20.1 14.7 19.8C15.5 18.7 16 17.4 16 16.1 16.7 16.4 17.3 16.9 17.7 17.6L18 18.1 18.3 17.6C19.3 18.5 19.7 19.9 19.3 21.2L19 22.2 19 22.2 19.1 22.2 20 21.6C21.6 20.4 22.6 18.6 22.8 16.7 23.1 15 22.7 13.3 21.8 12ZM22.1 16.5 22.1 16.5C21.9 17.9 21.3 19.2 20.4 20.2 20.5 18.8 19.8 17.4 18.6 16.6L18.3 16.4 18.2 16.6C17.6 15.9 16.8 15.3 15.9 15.1L15.4 15 15.4 15.5C15.5 16.7 15.2 17.9 14.5 18.9 14 18.4 13.5 17.7 13.2 17L13 16.6 12.6 17C11.7 17.9 11.3 19.1 11.4 20.3 11.2 20.1 11 19.9 10.9 19.7 9.1 17.4 9.2 14.2 11 12 11 11.9 11.1 11.9 11.1 11.8 11.1 11.8 11.2 11.9 11.2 12 11.6 12.6 12.2 13.2 12.7 13.7L12.9 13.9 13.1 13.7C13.8 13.2 14.3 12.6 14.7 12 15.1 11.4 15.5 10.8 15.6 10.1 15.6 10.1 15.6 10 15.6 10 15.9 9.5 16 9.1 16 8.6 16.5 9 17 9.4 17.5 10 17.5 10 17.5 10.1 17.6 10.1 18.1 10.7 18.5 11.3 18.9 12 19 12.2 19.1 12.4 19.2 12.7L19.4 13.2 19.8 12.8C20 12.6 20.2 12.3 20.4 12 20.5 11.9 20.6 11.8 20.6 11.7 20.7 11.8 20.8 11.9 20.9 12 21.9 13.3 22.4 14.9 22.1 16.5ZM21.8 12C21.5 11.6 21.2 11.2 20.8 10.8L20.5 10.5 20.3 10.9C20.1 11.2 19.9 11.5 19.7 11.8 19.4 11.2 19 10.6 18.6 10.1 18.6 10.1 18.6 10 18.5 10 17.9 9.2 17.3 8.6 16.6 8.1 16.4 7.9 16.1 7.7 15.9 7.6L15.3 7.3 15.3 8 15.3 8.2C15.3 8.9 15.2 9.5 15 10.1 15 10.1 15 10.2 15 10.2 14.8 10.9 14.4 11.5 13.9 12.1 13.7 12.4 13.4 12.7 13 13 12.7 12.7 12.4 12.4 12.1 12.1 11.9 11.8 11.6 11.5 11.4 11.1L11.2 10.7 10.8 11C10.5 11.3 10.2 11.7 10 12 8.4 14.5 8.4 17.8 10.2 20.2 10.6 20.8 11.1 21.2 11.7 21.7L12.4 22.2 12.6 22.4 12.5 22.2 12.2 21.3C11.8 20.2 12 18.9 12.7 18 13.1 18.7 13.6 19.3 14.2 19.9L14.5 20.1 14.7 19.8C15.5 18.7 16 17.4 16 16.1 16.7 16.4 17.3 16.9 17.7 17.6L18 18.1 18.3 17.6C19.3 18.5 19.7 19.9 19.3 21.2L19 22.2 19 22.2 19.1 22.2 20 21.6C21.6 20.4 22.6 18.6 22.8 16.7 23.1 15 22.7 13.3 21.8 12ZM22.1 16.5 22.1 16.5C21.9 17.9 21.3 19.2 20.4 20.2 20.5 18.8 19.8 17.4 18.6 16.6L18.3 16.4 18.2 16.6C17.6 15.9 16.8 15.3 15.9 15.1L15.4 15 15.4 15.5C15.5 16.7 15.2 17.9 14.5 18.9 14 18.4 13.5 17.7 13.2 17L13 16.6 12.6 17C11.7 17.9 11.3 19.1 11.4 20.3 11.2 20.1 11 19.9 10.9 19.7 9.1 17.4 9.2 14.2 11 12 11 11.9 11.1 11.9 11.1 11.8 11.1 11.8 11.2 11.9 11.2 12 11.6 12.6 12.2 13.2 12.7 13.7L12.9 13.9 13.1 13.7C13.8 13.2 14.3 12.6 14.7 12 15.1 11.4 15.5 10.8 15.6 10.1 15.6 10.1 15.6 10 15.6 10 15.9 9.5 16 9.1 16 8.6 16.5 9 17 9.4 17.5 10 17.5 10 17.5 10.1 17.6 10.1 18.1 10.7 18.5 11.3 18.9 12 19 12.2 19.1 12.4 19.2 12.7L19.4 13.2 19.8 12.8C20 12.6 20.2 12.3 20.4 12 20.5 11.9 20.6 11.8 20.6 11.7 20.7 11.8 20.8 11.9 20.9 12 21.9 13.3 22.4 14.9 22.1 16.5ZM21.8 12C21.5 11.6 21.2 11.2 20.8 10.8L20.5 10.5 20.3 10.9C20.1 11.2 19.9 11.5 19.7 11.8 19.4 11.2 19 10.6 18.6 10.1 18.6 10.1 18.6 10 18.5 10 17.9 9.2 17.3 8.6 16.6 8.1 16.4 7.9 16.1 7.7 15.9 7.6L15.3 7.3 15.3 8 15.3 8.2C15.3 8.9 15.2 9.5 15 10.1 15 10.1 15 10.2 15 10.2 14.8 10.9 14.4 11.5 13.9 12.1 13.7 12.4 13.4 12.7 13 13 12.7 12.7 12.4 12.4 12.1 12.1 11.9 11.8 11.6 11.5 11.4 11.1L11.2 10.7 10.8 11C10.5 11.3 10.2 11.7 10 12 8.4 14.5 8.4 17.8 10.2 20.2 10.6 20.8 11.1 21.2 11.7 21.7L12.4 22.2 12.6 22.4 12.5 22.2 12.2 21.3C11.8 20.2 12 18.9 12.7 18 13.1 18.7 13.6 19.3 14.2 19.9L14.5 20.1 14.7 19.8C15.5 18.7 16 17.4 16 16.1 16.7 16.4 17.3 16.9 17.7 17.6L18 18.1 18.3 17.6C19.3 18.5 19.7 19.9 19.3 21.2L19 22.2 19 22.2 19.1 22.2 20 21.6C21.6 20.4 22.6 18.6 22.8 16.7 23.1 15 22.7 13.3 21.8 12ZM22.1 16.5 22.1 16.5C21.9 17.9 21.3 19.2 20.4 20.2 20.5 18.8 19.8 17.4 18.6 16.6L18.3 16.4 18.2 16.6C17.6 15.9 16.8 15.3 15.9 15.1L15.4 15 15.4 15.5C15.5 16.7 15.2 17.9 14.5 18.9 14 18.4 13.5 17.7 13.2 17L13 16.6 12.6 17C11.7 17.9 11.3 19.1 11.4 20.3 11.2 20.1 11 19.9 10.9 19.7 9.1 17.4 9.2 14.2 11 12 11 11.9 11.1 11.9 11.1 11.8 11.1 11.8 11.2 11.9 11.2 12 11.6 12.6 12.2 13.2 12.7 13.7L12.9 13.9 13.1 13.7C13.8 13.2 14.3 12.6 14.7 12 15.1 11.4 15.5 10.8 15.6 10.1 15.6 10.1 15.6 10 15.6 10 15.9 9.5 16 9.1 16 8.6 16.5 9 17 9.4 17.5 10 17.5 10 17.5 10.1 17.6 10.1 18.1 10.7 18.5 11.3 18.9 12 19 12.2 19.1 12.4 19.2 12.7L19.4 13.2 19.8 12.8C20 12.6 20.2 12.3 20.4 12 20.5 11.9 20.6 11.8 20.6 11.7 20.7 11.8 20.8 11.9 20.9 12 21.9 13.3 22.4 14.9 22.1 16.5ZM23.8 14.2 23.8 14.2C23.6 13.4 23.3 12.7 23 12 22.6 11.3 22.1 10.7 21.5 10.1 21.5 10.1 21.4 10 21.4 10 21.1 9.7 20.7 9.4 20.3 9.1L20 8.9 19.8 9.3C19.7 9.4 19.6 9.6 19.6 9.8 19.1 9.2 18.7 8.6 18.2 8.2 17 7 15.8 6.2 14.5 5.9L14 5.8 14 6.3C14 6.9 14.1 7.5 14.1 8.1 14.1 8.8 14 9.4 13.8 10 13.8 10 13.8 10.1 13.8 10.1 13.6 10.6 13.3 11 13 11.4 12.7 11 12.4 10.6 12.2 10.1 12.2 10.1 12.2 10 12.2 10 12.1 9.8 12 9.6 11.9 9.4L11.7 8.9 11.3 9.2C10.9 9.4 10.6 9.7 10.2 10 10.2 10 10.1 10.1 10.1 10.1 9.5 10.7 9 11.3 8.7 12 7.8 13.7 7.5 15.8 8 17.9 8.4 19.7 9.3 21.1 10.6 22.2 11.8 23.2 13.2 23.8 14.9 24L15 24 15.3 24 15.3 22.1 14.9 22.1C14.4 22.1 14 21.9 13.7 21.6 13.4 21.2 13.2 20.7 13.2 20.2 13.6 20.6 14.1 20.9 14.5 21.3L14.8 21.5 15 21.3C16 20.2 16.7 19.2 16.9 18.3 17.2 18.7 17.4 19.1 17.5 19.6L17.7 20.1 18.4 19.4C18.6 19.9 18.6 20.6 18.3 21.1 18 21.7 17.4 22.1 16.8 22.1L16.5 22.1 16.5 24 16.8 24 16.9 24C18.4 23.9 19.9 23.2 21.1 22.2 21.6 21.8 22 21.3 22.4 20.8 23.8 18.8 24.3 16.4 23.8 14.2ZM21.8 20.3C21.2 21.1 20.6 21.7 19.8 22.1 19 22.6 18.1 23 17.2 23.1L17.2 22.8C17.7 22.7 18.1 22.5 18.5 22.1 18.7 21.9 18.9 21.7 19 21.4 19.5 20.5 19.4 19.3 18.8 18.5L18.6 18.2 18 18.7C17.8 18.1 17.4 17.6 17 17.1L16.4 16.4 16.4 17.3C16.3 18.2 15.8 19.3 14.7 20.5 14.1 20.1 13.6 19.6 13.2 19.1L12.7 18.5 12.6 19.3C12.4 20.3 12.7 21.4 13.3 22.1 13.3 22.1 13.4 22.2 13.4 22.2 13.8 22.6 14.2 22.8 14.7 22.9L14.7 23.2C13.7 23.1 12.8 22.7 12 22.2 10.3 21.1 9.3 19.4 8.9 17.8 8.4 15.8 8.7 13.7 9.7 12.1 10.1 11.4 10.7 10.7 11.4 10.2 11.4 10.2 11.4 10.2 11.5 10.2 11.5 10.2 11.5 10.2 11.5 10.2 11.8 10.9 12.2 11.5 12.7 12.1 12.7 12.1 12.8 12.2 12.8 12.3L13 12.5 13.3 12.3C13.4 12.2 13.4 12.2 13.5 12.1 14.1 11.6 14.5 10.9 14.7 10.2 14.7 10.2 14.7 10.1 14.7 10.1 14.9 9.5 15 8.8 15 8.2 15 7.7 15 7.3 15 6.9 15.6 7 16.3 7.5 17 8.1 17.6 8.6 18.2 9.2 18.8 10 18.8 10 18.8 10.1 18.9 10.1 19 10.3 19.1 10.5 19.3 10.6L19.6 11.1 20.1 10.1C20.1 10.1 20.1 10 20.1 10 20.1 10 20.1 9.9 20.1 9.9 20.1 9.9 20.1 9.9 20.1 9.8 20.1 9.8 20.2 9.8 20.2 9.9 20.2 9.9 20.3 10 20.3 10 21 10.5 21.6 11.2 22 11.9 22.5 12.6 22.8 13.4 23 14.3 23.5 16.4 23 18.5 21.8 20.3ZM20.7 10.8 20.4 10.5 20.2 10.9C20 11.2 19.8 11.5 19.6 11.8 19.3 11.2 18.9 10.6 18.5 10.1 18.5 10.1 18.5 10 18.4 10 17.8 9.2 17.2 8.6 16.5 8.1 16.3 7.9 16 7.7 15.8 7.6L15.2 7.3 15.2 8 15.2 8.2C15.2 8.9 15.1 9.5 14.9 10.1 14.9 10.1 14.9 10.2 14.9 10.2 14.7 10.9 14.3 11.5 13.8 12.1 13.6 12.4 13.3 12.7 12.9 13 12.6 12.7 12.3 12.4 12 12.1 11.8 11.8 11.5 11.5 11.3 11.1L11.1 10.7 10.8 11C10.5 11.3 10.2 11.7 10 12 8.4 14.5 8.4 17.8 10.2 20.2 10.6 20.8 11.1 21.2 11.7 21.7L12.4 22.2 12.6 22.4 12.5 22.2 12.2 21.3C11.8 20.2 12 18.9 12.7 18 13.1 18.7 13.6 19.3 14.2 19.9L14.5 20.1 14.7 19.8C15.5 18.7 16 17.4 16 16.1 16.7 16.4 17.3 16.9 17.7 17.6L18 18.1 18.3 17.6C19.3 18.5 19.7 19.9 19.3 21.2L19 22.2 19 22.2 19.1 22.2 20 21.6C21.6 20.4 22.6 18.6 22.8 16.7 23 15.1 22.7 13.4 21.7 12.1 21.5 11.6 21.2 11.2 20.7 10.8ZM22.1 16.5 22.1 16.5C21.9 17.9 21.3 19.2 20.4 20.2 20.5 18.8 19.8 17.4 18.6 16.6L18.3 16.4 18.2 16.6C17.6 15.9 16.8 15.3 15.9 15.1L15.4 15 15.4 15.5C15.5 16.7 15.2 17.9 14.5 18.9 14 18.4 13.5 17.7 13.2 17L13 16.6 12.6 17C11.7 17.9 11.3 19.1 11.4 20.3 11.2 20.1 11 19.9 10.9 19.7 9.1 17.4 9.2 14.2 11 12 11 11.9 11.1 11.9 11.1 11.8 11.1 11.8 11.2 11.9 11.2 12 11.6 12.6 12.2 13.2 12.7 13.7L12.9 13.9 13.1 13.7C13.8 13.2 14.3 12.6 14.7 12 15.1 11.4 15.5 10.8 15.6 10.1 15.6 10.1 15.6 10 15.6 10 15.9 9.5 16 9.1 16 8.6 16.5 9 17 9.4 17.5 10 17.5 10 17.5 10.1 17.6 10.1 18.1 10.7 18.5 11.3 18.9 12 19 12.2 19.1 12.4 19.2 12.7L19.4 13.2 19.8 12.8C20 12.6 20.2 12.3 20.4 12 20.5 11.9 20.6 11.8 20.6 11.7 20.7 11.8 20.8 11.9 20.9 12 21.9 13.3 22.4 14.9 22.1 16.5ZM21.8 12C21.5 11.6 21.2 11.2 20.8 10.8L20.5 10.5 20.3 10.9C20.1 11.2 19.9 11.5 19.7 11.8 19.4 11.2 19 10.6 18.6 10.1 18.6 10.1 18.6 10 18.5 10 17.9 9.2 17.3 8.6 16.6 8.1 16.4 7.9 16.1 7.7 15.9 7.6L15.3 7.3 15.3 8 15.3 8.2C15.3 8.9 15.2 9.5 15 10.1 15 10.1 15 10.2 15 10.2 14.8 10.9 14.4 11.5 13.9 12.1 13.7 12.4 13.4 12.7 13 13 12.7 12.7 12.4 12.4 12.1 12.1 11.9 11.8 11.6 11.5 11.4 11.1L11.2 10.7 10.8 11C10.5 11.3 10.2 11.7 10 12 8.4 14.5 8.4 17.8 10.2 20.2 10.6 20.8 11.1 21.2 11.7 21.7L12.4 22.2 12.6 22.4 12.5 22.2 12.2 21.3C11.8 20.2 12 18.9 12.7 18 13.1 18.7 13.6 19.3 14.2 19.9L14.5 20.1 14.7 19.8C15.5 18.7 16 17.4 16 16.1 16.7 16.4 17.3 16.9 17.7 17.6L18 18.1 18.3 17.6C19.3 18.5 19.7 19.9 19.3 21.2L19 22.2 19 22.2 19.1 22.2 20 21.6C21.6 20.4 22.6 18.6 22.8 16.7 23.1 15 22.7 13.3 21.8 12ZM22.1 16.5 22.1 16.5C21.9 17.9 21.3 19.2 20.4 20.2 20.5 18.8 19.8 17.4 18.6 16.6L18.3 16.4 18.2 16.6C17.6 15.9 16.8 15.3 15.9 15.1L15.4 15 15.4 15.5C15.5 16.7 15.2 17.9 14.5 18.9 14 18.4 13.5 17.7 13.2 17L13 16.6 12.6 17C11.7 17.9 11.3 19.1 11.4 20.3 11.2 20.1 11 19.9 10.9 19.7 9.1 17.4 9.2 14.2 11 12 11 11.9 11.1 11.9 11.1 11.8 11.1 11.8 11.2 11.9 11.2 12 11.6 12.6 12.2 13.2 12.7 13.7L12.9 13.9 13.1 13.7C13.8 13.2 14.3 12.6 14.7 12 15.1 11.4 15.5 10.8 15.6 10.1 15.6 10.1 15.6 10 15.6 10 15.9 9.5 16 9.1 16 8.6 16.5 9 17 9.4 17.5 10 17.5 10 17.5 10.1 17.6 10.1 18.1 10.7 18.5 11.3 18.9 12 19 12.2 19.1 12.4 19.2 12.7L19.4 13.2 19.8 12.8C20 12.6 20.2 12.3 20.4 12 20.5 11.9 20.6 11.8 20.6 11.7 20.7 11.8 20.8 11.9 20.9 12 21.9 13.3 22.4 14.9 22.1 16.5ZM21.8 12C21.5 11.6 21.2 11.2 20.8 10.8L20.5 10.5 20.3 10.9C20.1 11.2 19.9 11.5 19.7 11.8 19.4 11.2 19 10.6 18.6 10.1 18.6 10.1 18.6 10 18.5 10 17.9 9.2 17.3 8.6 16.6 8.1 16.4 7.9 16.1 7.7 15.9 7.6L15.3 7.3 15.3 8 15.3 8.2C15.3 8.9 15.2 9.5 15 10.1 15 10.1 15 10.2 15 10.2 14.8 10.9 14.4 11.5 13.9 12.1 13.7 12.4 13.4 12.7 13 13 12.7 12.7 12.4 12.4 12.1 12.1 11.9 11.8 11.6 11.5 11.4 11.1L11.2 10.7 10.8 11C10.5 11.3 10.2 11.7 10 12 8.4 14.5 8.4 17.8 10.2 20.2 10.6 20.8 11.1 21.2 11.7 21.7L12.4 22.2 12.6 22.4 12.5 22.2 12.2 21.3C11.8 20.2 12 18.9 12.7 18 13.1 18.7 13.6 19.3 14.2 19.9L14.5 20.1 14.7 19.8C15.5 18.7 16 17.4 16 16.1 16.7 16.4 17.3 16.9 17.7 17.6L18 18.1 18.3 17.6C19.3 18.5 19.7 19.9 19.3 21.2L19 22.2 19 22.2 19.1 22.2 20 21.6C21.6 20.4 22.6 18.6 22.8 16.7 23.1 15 22.7 13.3 21.8 12ZM22.1 16.5 22.1 16.5C21.9 17.9 21.3 19.2 20.4 20.2 20.5 18.8 19.8 17.4 18.6 16.6L18.3 16.4 18.2 16.6C17.6 15.9 16.8 15.3 15.9 15.1L15.4 15 15.4 15.5C15.5 16.7 15.2 17.9 14.5 18.9 14 18.4 13.5 17.7 13.2 17L13 16.6 12.6 17C11.7 17.9 11.3 19.1 11.4 20.3 11.2 20.1 11 19.9 10.9 19.7 9.1 17.4 9.2 14.2 11 12 11 11.9 11.1 11.9 11.1 11.8 11.1 11.8 11.2 11.9 11.2 12 11.6 12.6 12.2 13.2 12.7 13.7L12.9 13.9 13.1 13.7C13.8 13.2 14.3 12.6 14.7 12 15.1 11.4 15.5 10.8 15.6 10.1 15.6 10.1 15.6 10 15.6 10 15.9 9.5 16 9.1 16 8.6 16.5 9 17 9.4 17.5 10 17.5 10 17.5 10.1 17.6 10.1 18.1 10.7 18.5 11.3 18.9 12 19 12.2 19.1 12.4 19.2 12.7L19.4 13.2 19.8 12.8C20 12.6 20.2 12.3 20.4 12 20.5 11.9 20.6 11.8 20.6 11.7 20.7 11.8 20.8 11.9 20.9 12 21.9 13.3 22.4 14.9 22.1 16.5ZM21.8 12C21.5 11.6 21.2 11.2 20.8 10.8L20.5 10.5 20.3 10.9C20.1 11.2 19.9 11.5 19.7 11.8 19.4 11.2 19 10.6 18.6 10.1 18.6 10.1 18.6 10 18.5 10 17.9 9.2 17.3 8.6 16.6 8.1 16.4 7.9 16.1 7.7 15.9 7.6L15.3 7.3 15.3 8 15.3 8.2C15.3 8.9 15.2 9.5 15 10.1 15 10.1 15 10.2 15 10.2 14.8 10.9 14.4 11.5 13.9 12.1 13.7 12.4 13.4 12.7 13 13 12.7 12.7 12.4 12.4 12.1 12.1 11.9 11.8 11.6 11.5 11.4 11.1L11.2 10.7 10.8 11C10.5 11.3 10.2 11.7 10 12 8.4 14.5 8.4 17.8 10.2 20.2 10.6 20.8 11.1 21.2 11.7 21.7L12.4 22.2 12.6 22.4 12.5 22.2 12.2 21.3C11.8 20.2 12 18.9 12.7 18 13.1 18.7 13.6 19.3 14.2 19.9L14.5 20.1 14.7 19.8C15.5 18.7 16 17.4 16 16.1 16.7 16.4 17.3 16.9 17.7 17.6L18 18.1 18.3 17.6C19.3 18.5 19.7 19.9 19.3 21.2L19 22.2 19 22.2 19.1 22.2 20 21.6C21.6 20.4 22.6 18.6 22.8 16.7 23.1 15 22.7 13.3 21.8 12ZM22.1 16.5 22.1 16.5C21.9 17.9 21.3 19.2 20.4 20.2 20.5 18.8 19.8 17.4 18.6 16.6L18.3 16.4 18.2 16.6C17.6 15.9 16.8 15.3 15.9 15.1L15.4 15 15.4 15.5C15.5 16.7 15.2 17.9 14.5 18.9 14 18.4 13.5 17.7 13.2 17L13 16.6 12.6 17C11.7 17.9 11.3 19.1 11.4 20.3 11.2 20.1 11 19.9 10.9 19.7 9.1 17.4 9.2 14.2 11 12 11 11.9 11.1 11.9 11.1 11.8 11.1 11.8 11.2 11.9 11.2 12 11.6 12.6 12.2 13.2 12.7 13.7L12.9 13.9 13.1 13.7C13.8 13.2 14.3 12.6 14.7 12 15.1 11.4 15.5 10.8 15.6 10.1 15.6 10.1 15.6 10 15.6 10 15.9 9.5 16 9.1 16 8.6 16.5 9 17 9.4 17.5 10 17.5 10 17.5 10.1 17.6 10.1 18.1 10.7 18.5 11.3 18.9 12 19 12.2 19.1 12.4 19.2 12.7L19.4 13.2 19.8 12.8C20 12.6 20.2 12.3 20.4 12 20.5 11.9 20.6 11.8 20.6 11.7 20.7 11.8 20.8 11.9 20.9 12 21.9 13.3 22.4 14.9 22.1 16.5ZM21.8 12C21.5 11.6 21.2 11.2 20.8 10.8L20.5 10.5 20.3 10.9C20.1 11.2 19.9 11.5 19.7 11.8 19.4 11.2 19 10.6 18.6 10.1 18.6 10.1 18.6 10 18.5 10 17.9 9.2 17.3 8.6 16.6 8.1 16.4 7.9 16.1 7.7 15.9 7.6L15.3 7.3 15.3 8 15.3 8.2C15.3 8.9 15.2 9.5 15 10.1 15 10.1 15 10.2 15 10.2 14.8 10.9 14.4 11.5 13.9 12.1 13.7 12.4 13.4 12.7 13 13 12.7 12.7 12.4 12.4 12.1 12.1 11.9 11.8 11.6 11.5 11.4 11.1L11.2 10.7 10.8 11C10.5 11.3 10.2 11.7 10 12 8.4 14.5 8.4 17.8 10.2 20.2 10.6 20.8 11.1 21.2 11.7 21.7L12.4 22.2 12.6 22.4 12.5 22.2 12.2 21.3C11.8 20.2 12 18.9 12.7 18 13.1 18.7 13.6 19.3 14.2 19.9L14.5 20.1 14.7 19.8C15.5 18.7 16 17.4 16 16.1 16.7 16.4 17.3 16.9 17.7 17.6L18 18.1 18.3 17.6C19.3 18.5 19.7 19.9 19.3 21.2L19 22.2 19 22.2 19.1 22.2 20 21.6C21.6 20.4 22.6 18.6 22.8 16.7 23.1 15 22.7 13.3 21.8 12ZM22.1 16.5 22.1 16.5C21.9 17.9 21.3 19.2 20.4 20.2 20.5 18.8 19.8 17.4 18.6 16.6L18.3 16.4 18.2 16.6C17.6 15.9 16.8 15.3 15.9 15.1L15.4 15 15.4 15.5C15.5 16.7 15.2 17.9 14.5 18.9 14 18.4 13.5 17.7 13.2 17L13 16.6 12.6 17C11.7 17.9 11.3 19.1 11.4 20.3 11.2 20.1 11 19.9 10.9 19.7 9.1 17.4 9.2 14.2 11 12 11 11.9 11.1 11.9 11.1 11.8 11.1 11.8 11.2 11.9 11.2 12 11.6 12.6 12.2 13.2 12.7 13.7L12.9 13.9 13.1 13.7C13.8 13.2 14.3 12.6 14.7 12 15.1 11.4 15.5 10.8 15.6 10.1 15.6 10.1 15.6 10 15.6 10 15.9 9.5 16 9.1 16 8.6 16.5 9 17 9.4 17.5 10 17.5 10 17.5 10.1 17.6 10.1 18.1 10.7 18.5 11.3 18.9 12 19 12.2 19.1 12.4 19.2 12.7L19.4 13.2 19.8 12.8C20 12.6 20.2 12.3 20.4 12 20.5 11.9 20.6 11.8 20.6 11.7 20.7 11.8 20.8 11.9 20.9 12 21.9 13.3 22.4 14.9 22.1 16.5Z" class="MsftOfcResponsive_Fill_7823dc" fill="#7823DC"/></g><path d="M17.5 10C17.5 10 17.5 10.1 17.5 10 18 10.7 18.5 11.3 18.8 12L20.3 12C20.4 11.9 20.5 11.8 20.5 11.7 20.6 11.8 20.7 11.9 20.8 12L29.7 12 28.2 25 3.8 25 2.2 12 14.7 12C15.1 11.4 15.5 10.8 15.6 10.1 15.6 10.1 15.6 10 15.6 10L13.6 10C13.6 10 13.6 10.1 13.6 10.1 13.4 10.6 13.1 11 12.8 11.4 12.5 11 12.2 10.6 12 10.1 12 10.1 12 10 12 10L0 10 2 27 30 27 32 10 17.5 10Z" class="MsftOfcResponsive_Fill_7823dc" fill="#7823DC"/><path d="M6.5 27C7.3 27 8 27.7 8 28.5 8 29.3 7.3 30 6.5 30 5.7 30 5 29.3 5 28.5 5 27.7 5.7 27 6.5 27M6.5 25C4.6 25 3 26.6 3 28.5 3 30.4 4.6 32 6.5 32 8.4 32 10 30.4 10 28.5 10 26.6 8.4 25 6.5 25L6.5 25Z" class="MsftOfcResponsive_Fill_7823dc" fill="#7823DC"/><path d="M25.5 27C26.3 27 27 27.7 27 28.5 27 29.3 26.3 30 25.5 30 24.7 30 24 29.3 24 28.5 24 27.7 24.7 27 25.5 27M25.5 25C23.6 25 22 26.6 22 28.5 22 30.4 23.6 32 25.5 32 27.4 32 29 30.4 29 28.5 29 26.6 27.4 25 25.5 25L25.5 25Z" class="MsftOfcResponsive_Fill_7823dc" fill="#7823DC"/><path d="M28 11.1 27.2 4.8 24 7.3 19 3.1 13.9 5.1 11.1 3.3 8.3 6.1 5.4 5.2 4 7.6 4 10.9 2 10.9 2 7 4.6 2.8 7.7 3.9 10.9 0.7 14.1 2.9 19.4 0.9 24 4.7 28.8 1.2 30 10.9Z" class="MsftOfcResponsive_Fill_7823dc" fill="#7823DC"/></svg>