<svg viewBox="0 0 32 32" xmlns="http://www.w3.org/2000/svg" xmlns:xlink="http://www.w3.org/1999/xlink" overflow="hidden"><defs></defs><g id="a"></g><g id="b"><g id="c"></g><path d="M20.8872 18.9665 11.895 18.9665 16.3911 11.1789 20.8872 18.9665ZM15.3589 16.9665 17.4233 16.9665 16.3911 15.1789 15.3589 16.9665Z" fill="#7823DC"/><path d="M31.9836 9.51691 27.5327 3.76282 23.0337 9.37463 16.0381 0.03137-0.0163 23.6004-0.0163 27.1536 16.1152 3.47083 22.98 12.6393 27.5044 6.99524 31.9836 12.7858 31.9836 9.51691Z" fill="#7823DC"/><path d="M-0.0163 32.0422C3.24475 29.5553 7.74627 27.2811 12.8667 25.7529 17.1245 24.4824 21.3081 23.876 24.9492 23.876 27.6931 23.876 30.1224 24.2244 32.0476 24.8894L32.0476 22.8116C27.1293 21.3128 19.9597 21.5493 12.2944 23.8369 7.48242 25.2729 3.26904 27.2777-0.0163 29.5481L-0.0163 32.0422Z" fill="#7823DC"/><path d="M21.0219 22.8977 18.7522 18.9663 16.443 18.9663 18.4165 22.3848 14.4346 22.3848 16.4086 18.9663 14.0991 18.9663 10.9707 24.3848 17.7412 24.3848C18.4821 23.6609 19.6467 23.1218 21.0219 22.8977Z" fill="#7823DC"/></g></svg>