<svg viewBox="0 0 32 32" xmlns="http://www.w3.org/2000/svg" xmlns:xlink="http://www.w3.org/1999/xlink" id="Layer_1" xml:space="preserve" overflow="hidden"><g><path d="M27.9 11 27.9 4 19.9 4 19.9 11 17.9 11 17.9 19 19.9 19 19.9 11 27.9 11 27.9 11ZM22 6 26 6 26 9 22 9 22 6 22 6Z" fill="#7823DC" fill-rule="evenodd" clip-rule="evenodd"/><path d="M32 21 32 4 28.1 0 0 0 0 21 12 21 12 30 6 30 6 32 26 32 26 30 20 30 20 21 32 21 32 21ZM2 19 2 2 30 2 30 19 2 19 2 19 2 19ZM18 30 14 30 14 21 18 21 18 30 18 30Z" fill="#7823DC" fill-rule="evenodd" clip-rule="evenodd"/><path d="M12 14.1 8.8 11 6 11 12 17 18 11 15.2 11 12 14.1 12 14.1Z" fill="#7823DC" fill-rule="evenodd" clip-rule="evenodd"/><path d="M4 11 6 11 6 19 4 19 4 11Z" fill="#7823DC" fill-rule="evenodd" clip-rule="evenodd"/><path d="M12 11C14.5 11 16.5 9 16.5 6.5 16.5 4 14.5 2 12 2 9.5 2 7.5 4 7.5 6.5 7.5 9 9.5 11 12 11L12 11ZM12 4C13.4 4 14.5 5.1 14.5 6.5 14.5 7.9 13.4 9 12 9 10.6 9 9.5 7.9 9.5 6.5 9.5 5.1 10.6 4 12 4L12 4Z" fill="#7823DC" fill-rule="evenodd" clip-rule="evenodd"/></g></svg>