<svg viewBox="0 0 32 32" xmlns="http://www.w3.org/2000/svg" xmlns:xlink="http://www.w3.org/1999/xlink" id="Layer_1" xml:space="preserve" overflow="hidden"><path d="M29.9 21.5 29.9 3.2C29.9 1.4 28.5 0 26.7 0L25.1 0C23.5 0 22.2 1.1 22 2.7 22 2.9 22 3 22 3.2L22 21.6C21.2 22.3 20.6 23.2 20.3 24.3 20.2 24.5 20.2 24.7 20.1 24.9 20 25.2 20 25.4 20 25.7 20 25.8 20 25.9 20 26 20 26.2 20 26.4 20 26.6 20.3 29.6 22.9 32 26 32 29.3 32 32 29.3 32 26 31.9 24.2 31.1 22.6 29.9 21.5L29.9 21.5ZM25.9 30C23.7 30 21.9 28.2 21.9 26 21.9 25.8 21.9 25.6 21.9 25.5 22 24.6 22.5 23.7 23.2 23.1L24 22.5 24 3.2C24 2.5 24.4 2 25.1 2L26.7 2C27.3 2 28 2.5 28 3.2L28 22.5 28.6 23.1C29.4 23.9 29.9 24.9 29.9 26.1 29.9 28.2 28.1 30 25.9 30L25.9 30Z" fill="#7823DC" fill-rule="evenodd" clip-rule="evenodd"/><path d="M26 24.1C24.9 24.1 24.1 25 24.1 26 24.1 27 25 27.9 26 27.9 27 27.9 27.9 27 27.9 26 27.9 25 27.1 24.1 26 24.1L26 24.1 26 24.1 26 24.1Z" fill="#7823DC" fill-rule="evenodd" clip-rule="evenodd"/><path d="M25 4 27 4 27 25.9 25 25.9 25 4Z" fill="#7823DC" fill-rule="evenodd" clip-rule="evenodd"/><path d="M5.2 7.2 5.2 4.4 9.4 8.6 8 10 5.2 7.2 5.2 7.2 5.2 7.2 5.2 7.2Z" fill="#7823DC" fill-rule="evenodd" clip-rule="evenodd"/><path d="M7.2 26.8 4.4 26.8 8.6 22.6 10 24 7.2 26.8 7.2 26.8 7.2 26.8 7.2 26.8Z" fill="#7823DC" fill-rule="evenodd" clip-rule="evenodd"/><path d="M17 30 15 32 15 26 17 26 17 30 17 30 17 30 17 30Z" fill="#7823DC" fill-rule="evenodd" clip-rule="evenodd"/><path d="M2 17 0 15 6 15 6 17 2 17 2 17 2 17 2 17Z" fill="#7823DC" fill-rule="evenodd" clip-rule="evenodd"/><path d="M15.9 24C11.5 24 7.9 20.4 7.9 16 7.9 11.6 11.5 8 15.9 8 20.3 8 23.9 11.6 23.9 16 23.8 20.4 20.3 24 15.9 24L15.9 24 15.9 24 15.9 24ZM15.9 10C12.6 10 9.9 12.7 9.9 16 9.9 19.3 12.6 22 15.9 22 19.2 22 21.9 19.3 21.9 16 21.8 12.7 19.2 10 15.9 10L15.9 10 15.9 10 15.9 10Z" fill="#7823DC" fill-rule="evenodd" clip-rule="evenodd"/><path d="M15 2 17 0 17 6 15 6 15 2 15 2 15 2 15 2Z" fill="#7823DC" fill-rule="evenodd" clip-rule="evenodd"/></svg>