<svg viewBox="0 0 32 32" xmlns="http://www.w3.org/2000/svg" xmlns:xlink="http://www.w3.org/1999/xlink" id="Graphic" overflow="hidden"><defs></defs><rect x="18.271" y="16.041" width="8.08545" height="2" fill="#7823DC"/><rect x="11.3565" y="16.041" width="4.91455" height="2" fill="#7823DC"/><rect x="18" y="14.9443" width="2" height="5.5874" fill="#7823DC"/><path d="M19 13.0737C16.7194 13.0735 14.8708 11.2245 14.8711 8.94385 14.8713 6.66325 16.7204 4.81467 19.001 4.81493 21.2812 4.8152 23.1296 6.66362 23.1299 8.94385 23.1274 11.2237 21.2798 13.0712 19 13.0737ZM19 6.81494C17.824 6.81521 16.8708 7.76878 16.8711 8.94482 16.8713 10.1209 17.8249 11.074 19.001 11.0737 20.177 11.0735 21.1301 10.1199 21.1299 8.94386 21.1282 7.7684 20.1755 6.81607 19 6.81495Z" fill="#7823DC"/><path d="M21.321 6.036 19.321 6.036 19.321 2 18.679 2 18.679 6.036 16.679 6.036 16.679 0 21.321 0 21.321 6.036Z" fill="#7823DC"/><path d="M19 10.2798C18.2622 10.2798 17.6641 9.68167 17.6641 8.94385 17.6641 8.20603 18.2622 7.60791 19 7.60791 19.7378 7.60791 20.3359 8.20603 20.3359 8.94385 20.3359 8.94401 20.3359 8.94418 20.3359 8.94434 20.335 9.6817 19.7374 10.2791 19 10.2798ZM19 8.27979C18.6332 8.27979 18.3359 8.5771 18.3359 8.94385 18.3359 9.3106 18.6332 9.60791 19 9.60791 19.3666 9.60791 19.6638 9.3109 19.6641 8.94434 19.6637 8.57765 19.3667 8.2804 19 8.27979Z" fill="#7823DC"/><path d="M24.747 23.977 22.992 19.661 24.846 18.907 28.532 27.97 24.747 23.977Z" fill="#7823DC"/><rect x="20.8547" y="11.3961" width="2.00048" height="5.81228" fill="#7823DC" transform="matrix(0.925102 -0.379719 0.379719 0.925102 -3.79394 9.36995)"/><path d="M13.222 24.053 9.469 27.97 13.154 18.907 15.008 19.661 13.222 24.053Z" fill="#7823DC"/><rect x="13.2389" y="13.302" width="5.81228" height="2.00048" fill="#7823DC" transform="matrix(0.379792 -0.925072 0.925072 0.379792 -3.21734 23.8057)"/><rect x="7.00049" y="8" width="6" height="2" fill="#7823DC"/><path d="M32 32 6.17676 32C2.76706 31.9961 0.0039403 29.2329 1.96686e-07 25.8232L0 9.82373C-0.0611529 6.66529 2.4497 4.05529 5.60814 3.99414 5.73895 3.9916 5.86981 3.99356 6.00049 4L9.00049 4 9.00049 23.8442 8.18604 23.9981C6.03613 24.4043 5.99704 26.7212 6.00004 26.9844L6.00981 27.9785 4.02104 28.0156 4 27.021C3.92021 24.966 5.11246 23.0736 7.00049 22.2583L7.00049 6 6.00049 6C3.9367 5.85866 2.14908 7.41712 2.00775 9.48091 1.99993 9.595 1.99735 9.7094 2 9.82373L2 25.8232C2.0025 28.129 3.87104 29.9975 6.17676 30L30 30 30 10 25 10 25 8 32 8Z" fill="#7823DC"/></svg>