<svg viewBox="0 0 32 32" xmlns="http://www.w3.org/2000/svg" xmlns:xlink="http://www.w3.org/1999/xlink" xml:space="preserve" overflow="hidden"><style>
.MsftOfcResponsive_Fill_7823dc {
 fill:#7823DC; 
}
</style>
<g id="Layer_3"></g><g id="Layer_1"></g><g id="Layer_2"></g><g id="Layer_4"></g><g id="Layer_5"><rect x="11.21" y="14.38" width="1.68" height="1.68" class="st0 MsftOfcResponsive_Fill_7823dc" fill="#7823DC"/><rect x="19.21" y="14.38" width="1.68" height="1.68" class="st0 MsftOfcResponsive_Fill_7823dc" fill="#7823DC"/><path d="M16.04 25.28 11.81 20.07 16.03 14.87 20.36 20.01 16.04 25.28ZM14.39 20.07 16.05 22.12 17.76 20.04 16.06 18.02 14.39 20.07Z" class="st0 MsftOfcResponsive_Fill_7823dc" fill="#7823DC"/><path d="M13.3 32.09 10.03 29.35 9.82 26.56 13.45 20.98 15.13 22.08 11.86 27.08 11.96 28.36 13.84 29.93 15.82 29.5 17.77 29.93 19.89 28.35 19.89 27.03 16.96 22.03 18.69 21.02 21.89 26.49 21.89 29.36 18.23 32.09 15.81 31.55Z" class="st0 MsftOfcResponsive_Fill_7823dc" fill="#7823DC"/><path d="M22.47 8.88 20.88 7.67 22.07 6.09 22.07 4.95 20.33 3.3 18.6 3.29 17.48 1.99 14.62 1.99 13.57 3.27 11.97 3.27 9.96 4.97 9.96 6.09 10.87 7.31 9.26 8.5 7.96 6.76 7.96 4.05 11.23 1.27 12.63 1.27 13.68-0.01 18.4-0.01 19.53 1.3 21.14 1.31 24.07 4.09 24.07 6.76Z" class="st0 MsftOfcResponsive_Fill_7823dc" fill="#7823DC"/><path d="M25.71 28.82 21.23 28.82 21.23 26.82 23.71 26.82 23.71 13.69C23.71 11.79 23.14 10.28 22.02 9.2 19.82 7.08 16.14 7.18 16.12 7.18 15.99 7.18 12.44 7.03 10.19 9.1 9 10.19 8.36 11.73 8.29 13.69L8.29 26.83 10.84 26.83 10.84 28.83 6.29 28.83 6.29 13.65C6.39 11.09 7.25 9.07 8.85 7.61 11.73 4.98 15.95 5.17 16.14 5.18 16.22 5.18 20.58 5.03 23.41 7.74 24.94 9.21 25.72 11.21 25.72 13.68L25.72 28.82Z" class="st0 MsftOfcResponsive_Fill_7823dc" fill="#7823DC"/></g></svg>