<svg viewBox="0 0 32 32" xmlns="http://www.w3.org/2000/svg" xmlns:xlink="http://www.w3.org/1999/xlink" id="Layer_2_1_" xml:space="preserve" overflow="hidden"><style>
.MsftOfcResponsive_Fill_7823dc {
 fill:#7823DC; 
}
</style>
<g><path d="" class="MsftOfcResponsive_Fill_7823dc" fill="#7823DC" fill-rule="evenodd" clip-rule="evenodd"/></g><path d="M16 9C20.9 9 25.7 9.6 28.6 10.1 28.7 13.5 29 16.8 29.3 20.1 29.6 23.2 29.9 26.4 30 29.5 26.5 29.8 21.1 30 17.5 30 17 30 16.5 30 16 30 11 30 5.5 29.7 2 29.5 2.1 26.4 2.4 23.2 2.7 20.1 3 16.8 3.3 13.5 3.4 10.1 6.3 9.6 11.1 9 16 9M16 7C9.9 7 3.8 7.9 1.5 8.5 1.5 16.1 0 23.7 0 31.3 3.5 31.7 10.3 32 15.9 32 16.4 32 16.9 32 17.4 32 21.9 31.9 28.8 31.6 31.9 31.3 31.9 23.7 30.4 16.1 30.4 8.5 28.2 7.9 22.1 7 16 7L16 7Z" class="MsftOfcResponsive_Fill_7823dc" fill="#7823DC"/><path d="M22.9 19.3C22.7 18.5 22.4 17.7 22 17.1 21.6 16.4 21.1 15.8 20.5 15.2L20.4 15.1C20.2 14.9 19.9 14.7 19.6 14.5 19.5 14.6 19.4 14.9 19.3 15.1L19.3 15.2C19.2 15.3 19.2 15.4 19.1 15.5 19 15.4 18.9 15.3 18.9 15.2 18.9 15.2 18.9 15.1 18.8 15.1 18.3 14.4 17.9 13.7 17.2 13.3 16.4 12.4 15.3 11.8 14.2 11.5 14.2 12.1 14.3 12.7 14.3 13.3 14.3 13.9 14.2 14.6 14 15.1L14 15.2C13.8 15.9 13.4 16.5 12.9 17 12.4 16.5 12 15.9 11.8 15.2L11.8 15.1C11.7 14.9 11.7 14.8 11.6 14.6 11.2 14.8 11 14.9 10.8 15.1L10.7 15.2C10 15.8 9.6 16.4 9.2 17.1 7.4 20.3 8.2 24.8 11.2 27.1 12.1 27.9 13.3 28.4 14.7 28.5L14.7 27.4C14.3 27.4 13.9 27.3 13.7 27 12.9 26.4 12.7 25.2 12.8 24.3 13.3 24.9 13.9 25.5 14.6 25.9 15.6 24.7 16.5 23.5 16.5 22.3 17 22.9 17.3 23.6 17.6 24.3L18.2 23.7C18.5 24.1 18.6 24.6 18.6 25 18.6 25.8 18.2 26.6 17.6 27 17.3 27.2 16.9 27.3 16.6 27.4L16.6 28.5C17.9 28.4 19.1 27.9 20.1 27.1 22.2 25.2 23.5 22.2 22.9 19.3ZM18.1 21.9 17.9 22.2C17.4 21.3 16.6 20.7 15.6 20.4 15.8 21.8 15.3 23.2 14.5 24.3 13.8 23.7 13.3 22.9 12.9 22.2 12 23.3 11.6 24.7 12.1 26.2 11.6 25.8 11.2 25.3 10.8 24.8 10 23.6 9.5 22.3 9.5 20.8 9.5 19.4 9.9 18.1 10.7 17 10.9 16.7 11.1 16.5 11.3 16.2 11.5 16.5 11.6 16.7 11.8 17 12.2 17.5 12.6 18 13 18.4 13.5 17.9 14 17.5 14.3 17 14.8 16.4 15.1 15.8 15.2 15.1L15.2 15C15.4 14.4 15.4 13.8 15.4 13.2L15.4 13C15.6 13.1 15.7 13.1 15.8 13.2 16.6 13.7 17.2 14.4 17.8 15 17.8 15 17.8 15.1 17.9 15.1 18.4 15.7 18.7 16.3 19 17 19.1 17.2 19.2 17.3 19.3 17.5 19.5 17.3 19.6 17.2 19.7 17 19.9 16.7 20.1 16.4 20.3 16.1 20.6 16.4 20.9 16.7 21.1 17 22.1 18.3 22.4 19.9 22.1 21.5 21.9 23.3 21.1 24.9 19.6 26 19.9 24.6 19.3 22.8 18.1 21.9Z" class="MsftOfcResponsive_Fill_7823dc" fill="#7823DC"/><path d="M21.3 17C21 16.6 20.7 16.2 20.4 15.8L20.1 15.5 20.1 15.6 19.9 16C19.7 16.3 19.5 16.6 19.3 16.9 19.3 16.9 19.3 16.9 19.3 16.8 19 16.3 18.6 15.7 18.3 15.2 18.3 15.2 18.3 15.1 18.2 15.1 17.6 14.3 17.1 13.7 16.4 13.3 16.2 13.1 15.9 12.9 15.7 12.8L15.1 12.5 15.1 13.4C15.1 14.1 15 14.7 14.8 15.3L14.8 15.4C14.6 16.1 14.2 16.7 13.8 17.3 13.6 17.6 13.3 17.9 13 18.2L13 18.2C12.7 17.9 12.5 17.7 12.2 17.4 12 17.1 11.7 16.8 11.5 16.4L11.3 16 11.2 16.1 10.9 16.3C10.6 16.6 10.3 17 10.1 17.3 8.6 19.7 8.6 22.9 10.3 25.3 10.7 25.9 11.2 26.3 11.7 26.8L12.4 27.3 12.6 27.5 12.5 27 12.2 26.1C11.8 25 12 23.8 12.7 22.9 13.1 23.6 13.6 24.2 14.1 24.8L14.4 25 14.6 24.7C15.4 23.6 15.8 22.4 15.8 21.1 16.5 21.4 17 21.9 17.4 22.6L17.7 23.1 18 22.6C18.9 23.5 19.3 24.8 18.9 26.1L18.6 27.1 18.7 27.1 19.6 26.5C21.1 25.3 22.1 23.6 22.2 21.7 22.5 20 22.1 18.3 21.3 17ZM21.6 21.4C21.4 22.8 20.8 24 20 25 20.1 23.6 19.4 22.3 18.3 21.5L18 21.3 17.9 21.5C17.3 20.8 16.6 20.2 15.7 20L15.2 20 15.2 20.5C15.3 21.7 15 22.8 14.4 23.8 13.9 23.3 13.4 22.6 13.2 21.9L13 21.5 12.6 21.9C11.7 22.8 11.4 23.9 11.5 25.1 11.3 24.9 11.1 24.7 11 24.5 9.3 22.3 9.4 19.1 11.1 17 11.1 16.9 11.2 16.9 11.2 16.8 11.2 16.8 11.3 16.9 11.3 17 11.7 17.6 12.2 18.2 12.7 18.7L12.9 18.9 13.1 18.7C13.8 18.2 14.2 17.6 14.6 17 15 16.4 15.4 15.8 15.4 15.1L15.4 15C15.7 14.5 15.8 14.1 15.8 13.6 16.3 14 16.7 14.4 17.2 15 17.2 15 17.2 15.1 17.3 15.1 17.8 15.7 18.2 16.3 18.5 17 18.6 17.2 18.7 17.4 18.8 17.7L19 18.2 19.4 17.8C19.6 17.6 19.8 17.3 20 17 20.1 16.9 20.2 16.8 20.2 16.7 20.3 16.8 20.4 16.9 20.5 17 21.4 18.3 21.9 19.9 21.6 21.4Z" class="MsftOfcResponsive_Fill_7823dc" fill="#7823DC"/><path d="M21.3 17C21 16.6 20.7 16.2 20.4 15.8L20.1 15.5 20.1 15.6 19.9 16C19.7 16.3 19.5 16.6 19.3 16.9 19.3 16.9 19.3 16.9 19.3 16.8 19 16.3 18.6 15.7 18.3 15.2 18.3 15.2 18.3 15.1 18.2 15.1 17.6 14.3 17.1 13.7 16.4 13.3 16.2 13.1 15.9 12.9 15.7 12.8L15.1 12.5 15.1 13.4C15.1 14.1 15 14.7 14.8 15.3L14.8 15.4C14.6 16.1 14.2 16.7 13.8 17.3 13.6 17.6 13.3 17.9 13 18.2L13 18.2C12.7 17.9 12.5 17.7 12.2 17.4 12 17.1 11.7 16.8 11.5 16.4L11.3 16 11.2 16.1 10.9 16.3C10.6 16.6 10.3 17 10.1 17.3 8.6 19.7 8.6 22.9 10.3 25.3 10.7 25.9 11.2 26.3 11.7 26.8L12.4 27.3 12.6 27.5 12.5 27 12.2 26.1C11.8 25 12 23.8 12.7 22.9 13.1 23.6 13.6 24.2 14.1 24.8L14.4 25 14.6 24.7C15.4 23.6 15.8 22.4 15.8 21.1 16.5 21.4 17 21.9 17.4 22.6L17.7 23.1 18 22.6C18.9 23.5 19.3 24.8 18.9 26.1L18.6 27.1 18.7 27.1 19.6 26.5C21.1 25.3 22.1 23.6 22.2 21.7 22.5 20 22.1 18.3 21.3 17ZM21.6 21.4C21.4 22.8 20.8 24 20 25 20.1 23.6 19.4 22.3 18.3 21.5L18 21.3 17.9 21.5C17.3 20.8 16.6 20.2 15.7 20L15.2 20 15.2 20.5C15.3 21.7 15 22.8 14.4 23.8 13.9 23.3 13.4 22.6 13.2 21.9L13 21.5 12.6 21.9C11.7 22.8 11.4 23.9 11.5 25.1 11.3 24.9 11.1 24.7 11 24.5 9.3 22.3 9.4 19.1 11.1 17 11.1 16.9 11.2 16.9 11.2 16.8 11.2 16.8 11.3 16.9 11.3 17 11.7 17.6 12.2 18.2 12.7 18.7L12.9 18.9 13.1 18.7C13.8 18.2 14.2 17.6 14.6 17 15 16.4 15.4 15.8 15.4 15.1L15.4 15C15.7 14.5 15.8 14.1 15.8 13.6 16.3 14 16.7 14.4 17.2 15 17.2 15 17.2 15.1 17.3 15.1 17.8 15.7 18.2 16.3 18.5 17 18.6 17.2 18.7 17.4 18.8 17.7L19 18.2 19.4 17.8C19.6 17.6 19.8 17.3 20 17 20.1 16.9 20.2 16.8 20.2 16.7 20.3 16.8 20.4 16.9 20.5 17 21.4 18.3 21.9 19.9 21.6 21.4Z" class="MsftOfcResponsive_Fill_7823dc" fill="#7823DC"/><path d="M21.3 17C21 16.6 20.7 16.2 20.4 15.8L20.1 15.5 20.1 15.6 19.9 16C19.7 16.3 19.5 16.6 19.3 16.9 19.3 16.9 19.3 16.9 19.3 16.8 19 16.3 18.6 15.7 18.3 15.2 18.3 15.2 18.3 15.1 18.2 15.1 17.6 14.3 17.1 13.7 16.4 13.3 16.2 13.1 15.9 12.9 15.7 12.8L15.1 12.5 15.1 13.4C15.1 14.1 15 14.7 14.8 15.3L14.8 15.4C14.6 16.1 14.2 16.7 13.8 17.3 13.6 17.6 13.3 17.9 13 18.2L13 18.2C12.7 17.9 12.5 17.7 12.2 17.4 12 17.1 11.7 16.8 11.5 16.4L11.3 16 11.2 16.1 10.9 16.3C10.6 16.6 10.3 17 10.1 17.3 8.6 19.7 8.6 22.9 10.3 25.3 10.7 25.9 11.2 26.3 11.7 26.8L12.4 27.3 12.6 27.5 12.5 27 12.2 26.1C11.8 25 12 23.8 12.7 22.9 13.1 23.6 13.6 24.2 14.1 24.8L14.4 25 14.6 24.7C15.4 23.6 15.8 22.4 15.8 21.1 16.5 21.4 17 21.9 17.4 22.6L17.7 23.1 18 22.6C18.9 23.5 19.3 24.8 18.9 26.1L18.6 27.1 18.7 27.1 19.6 26.5C21.1 25.3 22.1 23.6 22.2 21.7 22.5 20 22.1 18.3 21.3 17ZM21.6 21.4C21.4 22.8 20.8 24 20 25 20.1 23.6 19.4 22.3 18.3 21.5L18 21.3 17.9 21.5C17.3 20.8 16.6 20.2 15.7 20L15.2 20 15.2 20.5C15.3 21.7 15 22.8 14.4 23.8 13.9 23.3 13.4 22.6 13.2 21.9L13 21.5 12.6 21.9C11.7 22.8 11.4 23.9 11.5 25.1 11.3 24.9 11.1 24.7 11 24.5 9.3 22.3 9.4 19.1 11.1 17 11.1 16.9 11.2 16.9 11.2 16.8 11.2 16.8 11.3 16.9 11.3 17 11.7 17.6 12.2 18.2 12.7 18.7L12.9 18.9 13.1 18.7C13.8 18.2 14.2 17.6 14.6 17 15 16.4 15.4 15.8 15.4 15.1L15.4 15C15.7 14.5 15.8 14.1 15.8 13.6 16.3 14 16.7 14.4 17.2 15 17.2 15 17.2 15.1 17.3 15.1 17.8 15.7 18.2 16.3 18.5 17 18.6 17.2 18.7 17.4 18.8 17.7L19 18.2 19.4 17.8C19.6 17.6 19.8 17.3 20 17 20.1 16.9 20.2 16.8 20.2 16.7 20.3 16.8 20.4 16.9 20.5 17 21.4 18.3 21.9 19.9 21.6 21.4Z" class="MsftOfcResponsive_Fill_7823dc" fill="#7823DC"/><path d="M21.3 17C21 16.6 20.7 16.2 20.4 15.8L20.1 15.5 20.1 15.6 19.9 16C19.7 16.3 19.5 16.6 19.3 16.9 19.3 16.9 19.3 16.9 19.3 16.8 19 16.3 18.6 15.7 18.3 15.2 18.3 15.2 18.3 15.1 18.2 15.1 17.6 14.3 17.1 13.7 16.4 13.3 16.2 13.1 15.9 12.9 15.7 12.8L15.1 12.5 15.1 13.4C15.1 14.1 15 14.7 14.8 15.3L14.8 15.4C14.6 16.1 14.2 16.7 13.8 17.3 13.6 17.6 13.3 17.9 13 18.2L13 18.2C12.7 17.9 12.5 17.7 12.2 17.4 12 17.1 11.7 16.8 11.5 16.4L11.3 16 11.2 16.1 10.9 16.3C10.6 16.6 10.3 17 10.1 17.3 8.6 19.7 8.6 22.9 10.3 25.3 10.7 25.9 11.2 26.3 11.7 26.8L12.4 27.3 12.6 27.5 12.5 27 12.2 26.1C11.8 25 12 23.8 12.7 22.9 13.1 23.6 13.6 24.2 14.1 24.8L14.4 25 14.6 24.7C15.4 23.6 15.8 22.4 15.8 21.1 16.5 21.4 17 21.9 17.4 22.6L17.7 23.1 18 22.6C18.9 23.5 19.3 24.8 18.9 26.1L18.6 27.1 18.7 27.1 19.6 26.5C21.1 25.3 22.1 23.6 22.2 21.7 22.5 20 22.1 18.3 21.3 17ZM21.6 21.4C21.4 22.8 20.8 24 20 25 20.1 23.6 19.4 22.3 18.3 21.5L18 21.3 17.9 21.5C17.3 20.8 16.6 20.2 15.7 20L15.2 20 15.2 20.5C15.3 21.7 15 22.8 14.4 23.8 13.9 23.3 13.4 22.6 13.2 21.9L13 21.5 12.6 21.9C11.7 22.8 11.4 23.9 11.5 25.1 11.3 24.9 11.1 24.7 11 24.5 9.3 22.3 9.4 19.1 11.1 17 11.1 16.9 11.2 16.9 11.2 16.8 11.2 16.8 11.3 16.9 11.3 17 11.7 17.6 12.2 18.2 12.7 18.7L12.9 18.9 13.1 18.7C13.8 18.2 14.2 17.6 14.6 17 15 16.4 15.4 15.8 15.4 15.1L15.4 15C15.7 14.5 15.8 14.1 15.8 13.6 16.3 14 16.7 14.4 17.2 15 17.2 15 17.2 15.1 17.3 15.1 17.8 15.7 18.2 16.3 18.5 17 18.6 17.2 18.7 17.4 18.8 17.7L19 18.2 19.4 17.8C19.6 17.6 19.8 17.3 20 17 20.1 16.9 20.2 16.8 20.2 16.7 20.3 16.8 20.4 16.9 20.5 17 21.4 18.3 21.9 19.9 21.6 21.4Z" class="MsftOfcResponsive_Fill_7823dc" fill="#7823DC"/><path d="M23.2 19.2C23 18.4 22.7 17.7 22.4 17.1 22 16.4 21.6 15.8 21 15.2L20.9 15.1C20.6 14.8 20.2 14.5 19.9 14.2L19.6 14 19.4 14.4C19.3 14.5 19.2 14.7 19.2 14.9 18.7 14.3 18.4 13.7 17.9 13.3 16.8 12.1 15.6 11.3 14.4 11.1L13.9 11 13.9 11.5C13.9 12.1 14 12.7 14 13.3 14 14 13.9 14.6 13.7 15.1L13.7 15.2C13.5 15.7 13.2 16.1 12.9 16.5 12.6 16.1 12.3 15.7 12.1 15.2L12.1 15.1C12 14.9 11.9 14.7 11.8 14.5L11.7 14 11.3 14.3C10.9 14.5 10.6 14.8 10.3 15.1L10.2 15.2C9.6 15.8 9.2 16.4 8.9 17.1 8 18.8 7.8 20.8 8.2 22.9 8.6 24.7 9.4 26 10.7 27.1 11.8 28.1 13.2 28.7 14.8 28.9L15.2 28.9 15.2 27 14.8 27C14.3 27 13.9 26.8 13.7 26.5 13.4 26.1 13.2 25.6 13.2 25.1 13.6 25.5 14 25.8 14.4 26.2L14.7 26.4 14.9 26.2C15.8 25.1 16.5 24.2 16.7 23.3 17 23.7 17.2 24.1 17.3 24.6L17.5 25.1 18.2 24.4C18.4 24.9 18.4 25.6 18.1 26.1 17.8 26.7 17.2 27.1 16.7 27.1L16.4 27.1 16.4 29 16.8 29C18.2 28.9 19.6 28.2 20.8 27.2 21.3 26.8 21.7 26.3 22 25.8 23.2 23.7 23.6 21.3 23.2 19.2ZM12.7 18.7 12.9 18.9 13.1 18.7C13.8 18.2 14.2 17.6 14.6 17 15 16.4 15.4 15.8 15.4 15.1L15.4 15C15.7 14.5 15.8 14.1 15.8 13.6 16.3 14 16.7 14.4 17.2 15 17.2 15 17.2 15.1 17.3 15.1 17.8 15.7 18.2 16.3 18.5 17 18.6 17.2 18.7 17.4 18.8 17.7L19 18.2 19.4 17.8C19.6 17.6 19.8 17.3 20 17 20.1 16.9 20.2 16.8 20.2 16.7 20.3 16.8 20.4 16.9 20.5 17 21.5 18.3 21.9 19.8 21.6 21.4 21.4 22.8 20.8 24 20 25 20.1 23.6 19.4 22.3 18.3 21.5L18 21.3 17.9 21.5C17.3 20.8 16.6 20.2 15.7 20L15.2 20 15.2 20.5C15.3 21.7 15 22.8 14.4 23.8 13.9 23.3 13.4 22.6 13.2 21.9L13 21.5 12.6 21.9C11.7 22.8 11.4 23.9 11.5 25.1 11.3 24.9 11.1 24.7 11 24.5 9.3 22.3 9.4 19.1 11.1 17 11.1 16.9 11.2 16.9 11.2 16.8 11.2 16.8 11.3 16.9 11.3 17 11.6 17.6 12.2 18.2 12.7 18.7Z" class="MsftOfcResponsive_Fill_7823dc" fill="#7823DC"/><path d="M22.4 19.3C22.2 18.4 21.9 17.6 21.5 17 21.1 16.3 20.6 15.6 19.9 15.2L19.7 15C19.7 14.9 19.6 14.9 19.6 14.9 19.6 15 19.6 15 19.6 15L19.6 15.2 19.1 16.2 18.8 15.7C18.6 15.6 18.5 15.4 18.4 15.2 18.3 15.2 18.3 15.1 18.3 15.1 17.7 14.3 17.2 13.7 16.6 13.3 15.9 12.7 15.3 12.2 14.7 12.1L14.7 13.4C14.7 14 14.6 14.7 14.4 15.3L14.4 15.4C14.2 16.1 13.8 16.8 13.3 17.3 13.2 17.4 13.2 17.4 13.1 17.5L12.8 17.7 12.6 17.5C12.6 17.4 12.5 17.3 12.5 17.3 12 16.7 11.7 16.1 11.4 15.4 11.3 15.4 11.3 15.4 11.3 15.4 10.6 15.9 10.1 16.6 9.7 17.3 8.7 18.9 8.5 20.9 8.9 22.8 9.3 24.4 10.2 26 11.8 27.1 12.6 27.6 13.4 28 14.4 28.1L14.4 27.8C13.9 27.7 13.5 27.5 13.2 27.1L13.1 27C12.5 26.3 12.3 25.2 12.4 24.3L12.5 23.5 13 24.1C13.4 24.6 13.8 25.1 14.4 25.5 15.4 24.3 15.9 23.3 16 22.4L16 21.5 16.6 22.2C17 22.7 17.4 23.2 17.6 23.8L18.2 23.3 18.4 23.6C19 24.4 19.1 25.6 18.6 26.4 18.5 26.7 18.3 26.9 18.1 27.1 17.7 27.5 17.3 27.7 16.9 27.8L16.9 28.1C17.8 28 18.6 27.6 19.4 27.1 20.2 26.7 20.7 26.1 21.3 25.3 22.4 23.4 22.8 21.3 22.4 19.3ZM18.2 21.5 17.9 21.3 17.8 21.5C17.2 20.8 16.5 20.2 15.6 20L15.2 20 15.2 20.5C15.3 21.7 15 22.8 14.4 23.8 13.9 23.3 13.4 22.6 13.2 21.9L13 21.5 12.6 21.9C11.7 22.8 11.4 23.9 11.5 25.1 11.3 24.9 11.1 24.7 11 24.5 9.2 22.3 9.3 19.2 11 17 11 16.9 11.1 16.9 11.1 16.8 11.1 16.8 11.2 16.9 11.2 17 11.6 17.6 12.1 18.2 12.6 18.7L12.8 18.9 13 18.7C13.7 18.2 14.1 17.6 14.5 17 14.9 16.4 15.3 15.8 15.3 15.1L15.3 15C15.6 14.5 15.7 14.1 15.7 13.6 16.2 14 16.6 14.4 17.1 15 17.1 15 17.1 15.1 17.2 15.1 17.7 15.7 18.1 16.3 18.4 17 18.5 17.2 18.6 17.4 18.7 17.7L18.9 18.2 19.3 17.8C19.5 17.6 19.7 17.3 19.9 17 20 16.9 20.1 16.8 20.1 16.7 20.2 16.8 20.3 16.9 20.4 17 21.4 18.3 21.8 19.8 21.5 21.4 21.3 22.8 20.7 24 19.9 25 20 23.7 19.3 22.3 18.2 21.5Z" class="MsftOfcResponsive_Fill_7823dc" fill="#7823DC"/><path d="M21.2 17.1C21 16.6 20.7 16.2 20.2 15.8L20 15.6 20 15.6 19.8 16C19.6 16.3 19.4 16.5 19.3 16.8 19.3 16.8 19.3 16.9 19.2 16.9 18.9 16.3 18.5 15.7 18.2 15.2 18.2 15.2 18.2 15.1 18.1 15.1 17.5 14.3 17 13.7 16.3 13.3 16.1 13.1 15.8 12.9 15.6 12.8L15.1 12.6 15 12.6 15 13.5C15 14.2 14.9 14.8 14.7 15.4L14.7 15.5C14.5 16.2 14.1 16.8 13.7 17.4 13.5 17.7 13.3 17.9 12.9 18.2 12.9 18.2 12.9 18.2 12.8 18.2 12.5 17.9 12.2 17.6 12 17.3 11.8 17 11.5 16.7 11.3 16.3L11.1 16 11.1 15.9 10.8 16.2C10.5 16.5 10.2 16.9 10 17.2 8.5 19.6 8.5 22.8 10.2 25.2 10.6 25.8 11.1 26.2 11.6 26.7L12.3 27.2 12.5 27.4 12.5 27 12.2 26.1C11.8 25 12 23.8 12.7 22.9 13.1 23.6 13.6 24.2 14.1 24.8L14.4 25 14.6 24.7C15.4 23.6 15.8 22.4 15.8 21.1 16.5 21.4 17 21.9 17.4 22.6L17.7 23.1 18 22.6C18.9 23.5 19.3 24.8 18.9 26.1L18.6 27.1 18.7 27.1 19.6 26.5C21.1 25.3 22.1 23.6 22.2 21.7 22.4 20.1 22.2 18.4 21.2 17.1ZM21.6 21.4C21.4 22.8 20.8 24 20 25 20.1 23.6 19.4 22.3 18.3 21.5L18 21.3 17.9 21.5C17.3 20.8 16.6 20.2 15.7 20L15.3 20 15.3 20.5C15.4 21.7 15.1 22.8 14.5 23.8 14 23.3 13.5 22.6 13.3 21.9L13 21.5 12.6 21.9C11.7 22.8 11.4 23.9 11.5 25.1 11.3 24.9 11.1 24.7 11 24.5 9.3 22.3 9.4 19.1 11.1 17 11.1 16.9 11.2 16.9 11.2 16.8 11.2 16.8 11.3 16.9 11.3 17 11.7 17.6 12.2 18.2 12.7 18.7L12.9 18.9 13.1 18.7C13.8 18.2 14.2 17.6 14.6 17 15 16.4 15.4 15.8 15.4 15.1L15.4 15C15.7 14.5 15.8 14.1 15.8 13.6 16.3 14 16.7 14.4 17.2 15 17.2 15 17.2 15.1 17.3 15.1 17.8 15.7 18.2 16.3 18.5 17 18.6 17.2 18.7 17.4 18.8 17.7L19 18.2 19.4 17.8C19.6 17.6 19.8 17.3 20 17 20.1 16.9 20.2 16.8 20.2 16.7 20.3 16.8 20.4 16.9 20.5 17 21.4 18.3 21.9 19.9 21.6 21.4Z" class="MsftOfcResponsive_Fill_7823dc" fill="#7823DC"/><path d="M21.3 17C21 16.6 20.7 16.2 20.4 15.8L20.1 15.5 20.1 15.6 19.9 16C19.7 16.3 19.5 16.6 19.3 16.9 19.3 16.9 19.3 16.9 19.3 16.8 19 16.3 18.6 15.7 18.3 15.2 18.3 15.2 18.3 15.1 18.2 15.1 17.6 14.3 17.1 13.7 16.4 13.3 16.2 13.1 15.9 12.9 15.7 12.8L15.1 12.5 15.1 13.4C15.1 14.1 15 14.7 14.8 15.3L14.8 15.4C14.6 16.1 14.2 16.7 13.8 17.3 13.6 17.6 13.3 17.9 13 18.2L13 18.2C12.7 17.9 12.5 17.7 12.2 17.4 12 17.1 11.7 16.8 11.5 16.4L11.3 16 11.2 16.1 10.9 16.3C10.6 16.6 10.3 17 10.1 17.3 8.6 19.7 8.6 22.9 10.3 25.3 10.7 25.9 11.2 26.3 11.7 26.8L12.4 27.3 12.6 27.5 12.5 27 12.2 26.1C11.8 25 12 23.8 12.7 22.9 13.1 23.6 13.6 24.2 14.1 24.8L14.4 25 14.6 24.7C15.4 23.6 15.8 22.4 15.8 21.1 16.5 21.4 17 21.9 17.4 22.6L17.7 23.1 18 22.6C18.9 23.5 19.3 24.8 18.9 26.1L18.6 27.1 18.7 27.1 19.6 26.5C21.1 25.3 22.1 23.6 22.2 21.7 22.5 20 22.1 18.3 21.3 17ZM21.6 21.4C21.4 22.8 20.8 24 20 25 20.1 23.6 19.4 22.3 18.3 21.5L18 21.3 17.9 21.5C17.3 20.8 16.6 20.2 15.7 20L15.2 20 15.2 20.5C15.3 21.7 15 22.8 14.4 23.8 13.9 23.3 13.4 22.6 13.2 21.9L13 21.5 12.6 21.9C11.7 22.8 11.4 23.9 11.5 25.1 11.3 24.9 11.1 24.7 11 24.5 9.3 22.3 9.4 19.1 11.1 17 11.1 16.9 11.2 16.9 11.2 16.8 11.2 16.8 11.3 16.9 11.3 17 11.7 17.6 12.2 18.2 12.7 18.7L12.9 18.9 13.1 18.7C13.8 18.2 14.2 17.6 14.6 17 15 16.4 15.4 15.8 15.4 15.1L15.4 15C15.7 14.5 15.8 14.1 15.8 13.6 16.3 14 16.7 14.4 17.2 15 17.2 15 17.2 15.1 17.3 15.1 17.8 15.7 18.2 16.3 18.5 17 18.6 17.2 18.7 17.4 18.8 17.7L19 18.2 19.4 17.8C19.6 17.6 19.8 17.3 20 17 20.1 16.9 20.2 16.8 20.2 16.7 20.3 16.8 20.4 16.9 20.5 17 21.4 18.3 21.9 19.9 21.6 21.4Z" class="MsftOfcResponsive_Fill_7823dc" fill="#7823DC"/><path d="M21.3 17C21 16.6 20.7 16.2 20.4 15.8L20.1 15.5 20.1 15.6 19.9 16C19.7 16.3 19.5 16.6 19.3 16.9 19.3 16.9 19.3 16.9 19.3 16.8 19 16.3 18.6 15.7 18.3 15.2 18.3 15.2 18.3 15.1 18.2 15.1 17.6 14.3 17.1 13.7 16.4 13.3 16.2 13.1 15.9 12.9 15.7 12.8L15.1 12.5 15.1 13.4C15.1 14.1 15 14.7 14.8 15.3L14.8 15.4C14.6 16.1 14.2 16.7 13.8 17.3 13.6 17.6 13.3 17.9 13 18.2L13 18.2C12.7 17.9 12.5 17.7 12.2 17.4 12 17.1 11.7 16.8 11.5 16.4L11.3 16 11.2 16.1 10.9 16.3C10.6 16.6 10.3 17 10.1 17.3 8.6 19.7 8.6 22.9 10.3 25.3 10.7 25.9 11.2 26.3 11.7 26.8L12.4 27.3 12.6 27.5 12.5 27 12.2 26.1C11.8 25 12 23.8 12.7 22.9 13.1 23.6 13.6 24.2 14.1 24.8L14.4 25 14.6 24.7C15.4 23.6 15.8 22.4 15.8 21.1 16.5 21.4 17 21.9 17.4 22.6L17.7 23.1 18 22.6C18.9 23.5 19.3 24.8 18.9 26.1L18.6 27.1 18.7 27.1 19.6 26.5C21.1 25.3 22.1 23.6 22.2 21.7 22.5 20 22.1 18.3 21.3 17ZM21.6 21.4C21.4 22.8 20.8 24 20 25 20.1 23.6 19.4 22.3 18.3 21.5L18 21.3 17.9 21.5C17.3 20.8 16.6 20.2 15.7 20L15.2 20 15.2 20.5C15.3 21.7 15 22.8 14.4 23.8 13.9 23.3 13.4 22.6 13.2 21.9L13 21.5 12.6 21.9C11.7 22.8 11.4 23.9 11.5 25.1 11.3 24.9 11.1 24.7 11 24.5 9.3 22.3 9.4 19.1 11.1 17 11.1 16.9 11.2 16.9 11.2 16.8 11.2 16.8 11.3 16.9 11.3 17 11.7 17.6 12.2 18.2 12.7 18.7L12.9 18.9 13.1 18.7C13.8 18.2 14.2 17.6 14.6 17 15 16.4 15.4 15.8 15.4 15.1L15.4 15C15.7 14.5 15.8 14.1 15.8 13.6 16.3 14 16.7 14.4 17.2 15 17.2 15 17.2 15.1 17.3 15.1 17.8 15.7 18.2 16.3 18.5 17 18.6 17.2 18.7 17.4 18.8 17.7L19 18.2 19.4 17.8C19.6 17.6 19.8 17.3 20 17 20.1 16.9 20.2 16.8 20.2 16.7 20.3 16.8 20.4 16.9 20.5 17 21.4 18.3 21.9 19.9 21.6 21.4Z" class="MsftOfcResponsive_Fill_7823dc" fill="#7823DC"/><path d="M21.3 17C21 16.6 20.7 16.2 20.4 15.8L20.1 15.5 20.1 15.6 19.9 16C19.7 16.3 19.5 16.6 19.3 16.9 19.3 16.9 19.3 16.9 19.3 16.8 19 16.3 18.6 15.7 18.3 15.2 18.3 15.2 18.3 15.1 18.2 15.1 17.6 14.3 17.1 13.7 16.4 13.3 16.2 13.1 15.9 12.9 15.7 12.8L15.1 12.5 15.1 13.4C15.1 14.1 15 14.7 14.8 15.3L14.8 15.4C14.6 16.1 14.2 16.7 13.8 17.3 13.6 17.6 13.3 17.9 13 18.2L13 18.2C12.7 17.9 12.5 17.7 12.2 17.4 12 17.1 11.7 16.8 11.5 16.4L11.3 16 11.2 16.1 10.9 16.3C10.6 16.6 10.3 17 10.1 17.3 8.6 19.7 8.6 22.9 10.3 25.3 10.7 25.9 11.2 26.3 11.7 26.8L12.4 27.3 12.6 27.5 12.5 27 12.2 26.1C11.8 25 12 23.8 12.7 22.9 13.1 23.6 13.6 24.2 14.1 24.8L14.4 25 14.6 24.7C15.4 23.6 15.8 22.4 15.8 21.1 16.5 21.4 17 21.9 17.4 22.6L17.7 23.1 18 22.6C18.9 23.5 19.3 24.8 18.9 26.1L18.6 27.1 18.7 27.1 19.6 26.5C21.1 25.3 22.1 23.6 22.2 21.7 22.5 20 22.1 18.3 21.3 17ZM21.6 21.4C21.4 22.8 20.8 24 20 25 20.1 23.6 19.4 22.3 18.3 21.5L18 21.3 17.9 21.5C17.3 20.8 16.6 20.2 15.7 20L15.2 20 15.2 20.5C15.3 21.7 15 22.8 14.4 23.8 13.9 23.3 13.4 22.6 13.2 21.9L13 21.5 12.6 21.9C11.7 22.8 11.4 23.9 11.5 25.1 11.3 24.9 11.1 24.7 11 24.5 9.3 22.3 9.4 19.1 11.1 17 11.1 16.9 11.2 16.9 11.2 16.8 11.2 16.8 11.3 16.9 11.3 17 11.7 17.6 12.2 18.2 12.7 18.7L12.9 18.9 13.1 18.7C13.8 18.2 14.2 17.6 14.6 17 15 16.4 15.4 15.8 15.4 15.1L15.4 15C15.7 14.5 15.8 14.1 15.8 13.6 16.3 14 16.7 14.4 17.2 15 17.2 15 17.2 15.1 17.3 15.1 17.8 15.7 18.2 16.3 18.5 17 18.6 17.2 18.7 17.4 18.8 17.7L19 18.2 19.4 17.8C19.6 17.6 19.8 17.3 20 17 20.1 16.9 20.2 16.8 20.2 16.7 20.3 16.8 20.4 16.9 20.5 17 21.4 18.3 21.9 19.9 21.6 21.4Z" class="MsftOfcResponsive_Fill_7823dc" fill="#7823DC"/><path d="M21.3 17C21 16.6 20.7 16.2 20.4 15.8L20.1 15.5 20.1 15.6 19.9 16C19.7 16.3 19.5 16.6 19.3 16.9 19.3 16.9 19.3 16.9 19.3 16.8 19 16.3 18.6 15.7 18.3 15.2 18.3 15.2 18.3 15.1 18.2 15.1 17.6 14.3 17.1 13.7 16.4 13.3 16.2 13.1 15.9 12.9 15.7 12.8L15.1 12.5 15.1 13.4C15.1 14.1 15 14.7 14.8 15.3L14.8 15.4C14.6 16.1 14.2 16.7 13.8 17.3 13.6 17.6 13.3 17.9 13 18.2L13 18.2C12.7 17.9 12.5 17.7 12.2 17.4 12 17.1 11.7 16.8 11.5 16.4L11.3 16 11.2 16.1 10.9 16.3C10.6 16.6 10.3 17 10.1 17.3 8.6 19.7 8.6 22.9 10.3 25.3 10.7 25.9 11.2 26.3 11.7 26.8L12.4 27.3 12.6 27.5 12.5 27 12.2 26.1C11.8 25 12 23.8 12.7 22.9 13.1 23.6 13.6 24.2 14.1 24.8L14.4 25 14.6 24.7C15.4 23.6 15.8 22.4 15.8 21.1 16.5 21.4 17 21.9 17.4 22.6L17.7 23.1 18 22.6C18.9 23.5 19.3 24.8 18.9 26.1L18.6 27.1 18.7 27.1 19.6 26.5C21.1 25.3 22.1 23.6 22.2 21.7 22.5 20 22.1 18.3 21.3 17ZM21.6 21.4C21.4 22.8 20.8 24 20 25 20.1 23.6 19.4 22.3 18.3 21.5L18 21.3 17.9 21.5C17.3 20.8 16.6 20.2 15.7 20L15.2 20 15.2 20.5C15.3 21.7 15 22.8 14.4 23.8 13.9 23.3 13.4 22.6 13.2 21.9L13 21.5 12.6 21.9C11.7 22.8 11.4 23.9 11.5 25.1 11.3 24.9 11.1 24.7 11 24.5 9.3 22.3 9.4 19.1 11.1 17 11.1 16.9 11.2 16.9 11.2 16.8 11.2 16.8 11.3 16.9 11.3 17 11.7 17.6 12.2 18.2 12.7 18.7L12.9 18.9 13.1 18.7C13.8 18.2 14.2 17.6 14.6 17 15 16.4 15.4 15.8 15.4 15.1L15.4 15C15.7 14.5 15.8 14.1 15.8 13.6 16.3 14 16.7 14.4 17.2 15 17.2 15 17.2 15.1 17.3 15.1 17.8 15.7 18.2 16.3 18.5 17 18.6 17.2 18.7 17.4 18.8 17.7L19 18.2 19.4 17.8C19.6 17.6 19.8 17.3 20 17 20.1 16.9 20.2 16.8 20.2 16.7 20.3 16.8 20.4 16.9 20.5 17 21.4 18.3 21.9 19.9 21.6 21.4Z" class="MsftOfcResponsive_Fill_7823dc" fill="#7823DC"/><path d="M27 2 27 7 26 7 26 2 27 2M29 0 24 0 24 9 29 9 29 0 29 0Z" class="MsftOfcResponsive_Fill_7823dc" fill="#7823DC"/></svg>