<svg viewBox="0 0 32 32" xmlns="http://www.w3.org/2000/svg" xmlns:xlink="http://www.w3.org/1999/xlink" xml:space="preserve" overflow="hidden"><style>
.MsftOfcResponsive_Fill_7823dc {
 fill:#7823DC; 
}
</style>
<g id="Layer_3"></g><g id="Layer_1"></g><g id="Layer_2"></g><g id="Layer_4"></g><g id="Layer_5"><g><g><path d="M31.32 17.31C31.22 17.25 29.02 15.89 26.23 15.44 26.67 12.67 26.08 10.18 26.05 10.02L25.86 9.24 25.06 9.3C24.94 9.31 22.41 9.52 19.92 10.78 18.65 8.32 16.74 6.67 16.62 6.56L16.01 6.04 15.4 6.56C15.28 6.66 13.37 8.31 12.1 10.78 9.64 9.53 7.11 9.32 6.99 9.31L6.19 9.25 6 10.02C5.96 10.17 5.38 12.67 5.82 15.44 3.04 15.89 0.84 17.25 0.73 17.31L0.05 17.73 0.36 18.47C0.45 18.69 2.65 23.83 7.1 25.24 7.96 25.51 8.84 25.63 9.69 25.63 12.37 25.63 14.81 24.53 15.91 23.95L16.02 24.04 16.13 23.95C17.23 24.53 19.67 25.63 22.35 25.63 23.2 25.63 24.08 25.52 24.94 25.24 29.39 23.83 31.59 18.68 31.68 18.47L32 17.74 31.32 17.31ZM7.68 23.46C4.97 22.6 3.2 19.85 2.47 18.5 3.28 18.1 4.69 17.5 6.27 17.27 6.53 18.03 6.9 18.78 7.41 19.48 8.89 21.52 11.19 22.6 13.04 23.16 11.52 23.67 9.52 24.05 7.68 23.46ZM8.92 18.38C7.25 16.08 7.46 12.82 7.67 11.3 8.55 11.46 10.01 11.8 11.4 12.53 11.15 13.32 11 14.17 11 15.05 11 17.55 12.21 19.75 13.37 21.29 11.85 20.8 10.05 19.93 8.92 18.38ZM16.03 21.52C14.97 20.42 12.89 17.91 12.89 15.06 12.89 12.22 14.97 9.7 16.04 8.6 17.1 9.7 19.18 12.21 19.18 15.06 19.17 17.89 17.09 20.41 16.03 21.52ZM21.05 15.05C21.05 14.17 20.9 13.32 20.65 12.53 22.04 11.8 23.5 11.46 24.38 11.3 24.6 12.81 24.81 16.07 23.13 18.38 22.01 19.93 20.2 20.81 18.68 21.3 19.84 19.76 21.05 17.55 21.05 15.05ZM24.38 23.46C22.54 24.05 20.55 23.67 19.03 23.15 20.87 22.59 23.17 21.51 24.65 19.47 25.15 18.78 25.52 18.03 25.78 17.26 27.36 17.49 28.77 18.09 29.58 18.5 28.86 19.85 27.1 22.59 24.38 23.46Z" class="MsftOfcResponsive_Fill_7823dc" fill="#7823DC"/></g></g></g></svg>