<svg viewBox="0 0 32 32" xmlns="http://www.w3.org/2000/svg" xmlns:xlink="http://www.w3.org/1999/xlink" id="Layer_1" overflow="hidden"><g><path d="M22.1 7.2 24.1 7.2 24.1 17.7 22.1 17.7 22.1 7.2Z" fill="#7823DC"/><path d="M7.9 7.2 9.9 7.2 9.9 17.7 7.9 17.7 7.9 7.2Z" fill="#7823DC"/><path d="M16 15.8C11.6 15.8 8.1 12.2 8.1 7.9 8 3.6 11.6 0 16 0 20.4 0 23.9 3.6 23.9 7.9 23.9 12.3 20.3 15.8 16 15.8L16 15.8ZM16 2C12.7 2 10 4.6 10 7.9 10 11.2 12.7 13.8 15.9 13.8 19.1 13.8 21.8 11.1 21.8 7.9 21.9 4.6 19.2 2 16 2L16 2Z" fill="#7823DC"/></g><rect x="4" y="6.3" width="24.1" height="2" fill="#7823DC"/><g><path d="M24.5 22 24.5 24 7.1 24 7.1 22 24.5 22Z" fill="#7823DC"/><path d="M17 26 17 28 15 28 15 26 17 26Z" fill="#7823DC"/><rect x="6.1" y="19.6" width="2" height="6.4" fill="#7823DC"/><rect x="23.9" y="19.3" width="2" height="6.7" fill="#7823DC"/><rect x="27.9" y="20.3" width="2" height="11.7" fill="#7823DC"/><rect x="23.8" y="15" width="2" height="10.1" fill="#7823DC" transform="matrix(0.2427 -0.9701 0.9701 0.2427 -0.6668 39.2425)"/><rect x="1.9" y="20.3" width="2" height="11.7" fill="#7823DC"/><rect x="2" y="19.1" width="10.1" height="2" fill="#7823DC" transform="matrix(0.9701 -0.2427 0.2427 0.9701 -4.665 2.3151)"/></g><path d="M17 30 17 32 15 32 15 30 17 30Z" fill="#7823DC"/></svg>