<svg viewBox="0 0 32 32" xmlns="http://www.w3.org/2000/svg" xmlns:xlink="http://www.w3.org/1999/xlink" id="Layer_2_1_" xml:space="preserve" overflow="hidden"><path d="M12.9 2C18.9 2 23.8 6.9 23.8 12.9 23.8 18.9 18.9 23.8 12.9 23.8 6.9 23.8 2 18.9 2 12.9 2 6.9 6.9 2 12.9 2M12.9 0C5.8 0 0 5.8 0 12.9 0 20 5.8 25.8 12.9 25.8 20 25.8 25.8 20 25.8 12.9 25.8 5.8 20 0 12.9 0L12.9 0 12.9 0 12.9 0Z" fill="#7823DC" fill-rule="evenodd" clip-rule="evenodd"/><path d="M32 29.4 32 32 20.4 22.8 21.6 21.2Z" fill="#7823DC"/><path d="M13.9 12.1 13.9 9.8C14.3 10 14.5 10.3 14.6 10.8L14.7 11.3 16.6 11.3 16.5 10.6C16.3 9.1 15.3 8.2 13.8 7.9L13.8 7 11.9 7 11.9 7.9C10.4 8.2 9.3 9.3 9.3 10.8 9.3 12.6 10.3 13.3 12 13.7L12 16.3C11.4 16.1 11.1 15.6 11 14.9L10.9 14.4 9 14.4 9.1 15.1C9.3 16.8 10.4 17.9 12 18.3L12 19.2 13.9 19.2 13.9 18.3C15.7 18 16.9 16.8 16.9 15.2 16.9 13.1 15.5 12.4 13.9 12.1L13.9 12.1ZM13.9 16.4 13.9 14.1C14.8 14.4 14.9 14.7 14.9 15.2 14.9 15.8 14.6 16.2 13.9 16.4L13.9 16.4ZM12 9.8 12 11.7C11.3 11.4 11.3 11.2 11.3 10.8 11.2 10.2 11.5 9.9 12 9.8L12 9.8Z" fill="#7823DC"/></svg>