<svg width="32" height="32" viewBox="0 0 32 32" xmlns="http://www.w3.org/2000/svg" xmlns:xlink="http://www.w3.org/1999/xlink" overflow="hidden"><defs></defs><g><g><defs><rect x="0" y="0" width="32" height="32" id="SVGID_1_" fill="#7823DC"/></defs><clipPath id="SVGID_2_"><use width="100%" height="100%" xlink:href="#SVGID_1_"></use></clipPath><path d="M23 30 17 30 17 10 23 10 23 30ZM19 28 21 28 21 12 19 12 19 28Z" fill="#7823DC" clip-path="url(#SVGID_2_)"/><path d="M15 30 9 30 9 18 15 18 15 30ZM11 28 13 28 13 20 11 20 11 28Z" fill="#7823DC" clip-path="url(#SVGID_2_)"/><path d="M7 30 1 30 1 22 7 22 7 30ZM3 28 5 28 5 24 3 24 3 28Z" fill="#7823DC" clip-path="url(#SVGID_2_)"/><path d="M29 28 27 28 27 6 29 6 27 4 25 4 25 30 31 30 31 8 29 6Z" fill="#7823DC" clip-path="url(#SVGID_2_)"/><path d="M29 6 29 6 29 6Z" fill="#7823DC" clip-path="url(#SVGID_2_)"/><path d="M19.8 0 17.8 2 20.6 2 4.1 18.4 5.6 19.8 22 3.4 22 6.2 24 4.2 24 0Z" fill="#7823DC" clip-path="url(#SVGID_2_)"/></g></g></svg>