<svg viewBox="0 0 32 31.26" xmlns="http://www.w3.org/2000/svg" xmlns:xlink="http://www.w3.org/1999/xlink" id="Layer_1" overflow="hidden"><style>
.MsftOfcResponsive_Fill_7823dc {
 fill:#7823DC; 
}
</style>
<defs></defs><path d="M31.86 13.26 31.93 13.23 28.09 3.26 20 3.26 20 5.26 26.72 5.26 29.8 13.26 2.18 13.26 5.66 5.26 12 5.26 12 3.26 4.34 3.26 0.04 13.15 0.27 13.25 0 13.25 0 31.25 32 31.25 32 13.26 31.86 13.26ZM30 29.26 2 29.26 2 15.26 30 15.26 30 29.26Z" class="MsftOfcResponsive_Fill_7823dc" fill="#7823DC"/><rect x="10" y="9.26" width="12" height="2" class="MsftOfcResponsive_Fill_7823dc" fill="#7823DC"/><path d="M16 27.18 20.1 23.07C20.75 22.43 21.1 21.57 21.1 20.66 21.1 19.75 20.75 18.9 20.1 18.25 19.02 17.17 17.26 16.97 15.99 17.71 14.71 16.97 12.95 17.18 11.88 18.25 11.23 18.89 10.88 19.75 10.88 20.66 10.88 21.57 11.24 22.43 11.88 23.07L15.99 27.18ZM13.3 19.66C13.57 19.39 13.92 19.25 14.3 19.25 14.68 19.25 15.03 19.4 15.3 19.66L16.01 20.37 16.72 19.66C17.24 19.13 18.17 19.13 18.7 19.66 18.97 19.93 19.11 20.28 19.11 20.65 19.11 21.02 18.96 21.38 18.7 21.65L16.01 24.35 13.31 21.65C13.04 21.39 12.9 21.03 12.9 20.66 12.9 20.29 13.05 19.93 13.31 19.67Z" class="MsftOfcResponsive_Fill_7823dc" fill="#7823DC"/><path d="M14.83 5.36 13.13 5.36C13.15 6.49 14.06 7.41 15.19 7.46L15.19 8.25 16.8 8.25 16.8 7.47C17.95 7.47 18.87 6.53 18.87 5.39L18.87 5.37C18.87 4.12 18.07 3.63 16.8 3.42L16.8 2.24C16.99 2.37 17.12 2.58 17.13 2.82L18.78 2.82C18.74 1.75 17.87 0.91 16.8 0.89L16.8 3.33067e-16 15.19 3.33067e-16 15.19 0.9C14.14 0.96 13.31 1.81 13.29 2.86 13.29 4.02 13.87 4.6 15.21 4.86L15.21 6.07C14.98 5.9 14.84 5.64 14.83 5.35ZM16.8 5.09C17.03 5.14 17.19 5.35 17.18 5.58 17.18 5.83 17.04 6.06 16.8 6.15L16.8 5.09ZM14.9 2.7C14.9 2.51 15.01 2.33 15.17 2.24L15.17 3.15C14.99 3.07 14.88 2.89 14.9 2.7Z" class="MsftOfcResponsive_Fill_7823dc" fill="#7823DC"/><path d="M28 22.26 28 17.26 22 17.26 22 19.26 26 19.26 26 22.26 26 25.26 22 25.26 22 27.26 28 27.26 28 22.26Z" class="MsftOfcResponsive_Fill_7823dc" fill="#7823DC"/><path d="M10 25.26 6 25.26 6 22.26 6 19.26 10 19.26 10 17.26 4 17.26 4 22.26 4 27.26 10 27.26 10 25.26Z" class="MsftOfcResponsive_Fill_7823dc" fill="#7823DC"/></svg>