<svg viewBox="0 0 31.97 32.23" xmlns="http://www.w3.org/2000/svg" xmlns:xlink="http://www.w3.org/1999/xlink" id="Outline_Final_icon" overflow="hidden"><defs></defs><path d="M25.63 19.34 25.63 18.2C25.75 18.32 25.84 18.48 25.87 18.66L25.96 19.08 27.45 19.08 27.35 18.48C27.24 17.55 26.54 16.8 25.63 16.62L25.63 16.04 24.14 16.04 24.14 16.63C23.3 16.84 22.43 17.45 22.43 18.6 22.43 19.9 23.28 20.33 24.14 20.55L24.14 21.95C23.91 21.79 23.77 21.54 23.74 21.24L23.67 20.79 22.19 20.79 22.25 21.37C22.34 22.44 23.11 23.3 24.15 23.51L24.15 24.1 25.64 24.1 25.64 23.54C26.81 23.33 27.54 22.52 27.54 21.41 27.54 20.01 26.6 19.58 25.64 19.36ZM26.02 21.43C26.02 21.73 25.89 21.92 25.63 22.03L25.63 20.88C25.98 21.02 26.02 21.16 26.02 21.43ZM23.91 18.56C23.91 18.38 24.01 18.22 24.14 18.12L24.14 18.96C23.91 18.84 23.91 18.72 23.91 18.56Z" fill="#7823DC"/><rect x="12.22" y="6.33" width="15.19" height="2" fill="#7823DC"/><rect x="12.22" y="9.87" width="12.2" height="2" fill="#7823DC"/><path d="M28.3 2.42 25.73 0.74 22.52 2.45 19.86 0.75 16.46 2.47 13.39 0.71 11.1 2.37 7.65 0 7.65 13.21 0 20.53 0 32.23 2 32.23 2 21.39 7.65 15.99 7.65 20.46 5.4 22.7 6.81 24.11 14.76 16.16C14.76 16.16 15.88 15.26 16.94 15.5 17.44 15.61 17.9 15.98 18.29 16.61L10.88 24.02 10.82 24.04 10.82 24.08C10.82 24.08 10.81 24.1 10.81 24.1L10.85 24.14 11.4 26.1 11.72 27.24 11.72 27.24 12.18 28.89 9.9 32.22 12.32 32.22 14.35 29.25 13.79 27.24 16.4 27.24 16.8 28.87 14.51 32.22 16.93 32.22 18.95 29.26 18.45 27.24 31.96 27.24 31.96 0.08 28.29 2.42ZM29.97 25.24 13.24 25.24 13.08 24.66 20.75 16.99 20.45 16.35C19.7 14.77 18.66 13.82 17.38 13.54 15.36 13.1 13.58 14.56 13.44 14.68L9.67 18.45 9.67 3.8 11.16 4.82 13.55 3.09 16.44 4.75 19.78 3.05 22.46 4.77 25.65 3.06 28.3 4.8 29.99 3.72 29.99 25.24Z" fill="#7823DC"/></svg>