<svg viewBox="0 0 32 32" xmlns="http://www.w3.org/2000/svg" xmlns:xlink="http://www.w3.org/1999/xlink" id="Layer_5" overflow="hidden"><defs></defs><path d="M9.7 32.23C9.49 32.23 9.27 32.19 9.07 32.11 8.63 31.94 8.28 31.58 8.11 31.15L5.86 25.4C5.69 24.97 5.7 24.49 5.89 24.07 6.08 23.65 6.42 23.33 6.86 23.17 8.49 22.57 12.57 21.07 13.78 20.62 14.15 19.74 14.99 17.08 15.21 16.09L15.18 16.06C14.67 15.58 13.33 14.31 14.36 12.61 14.69 12.06 14.89 11.69 14.99 11.46 14.39 10.52 14.48 10.04 14.65 9.7 14.84 9.32 15.23 9.08 15.67 9.08 15.69 9.08 15.72 9.08 15.75 9.08 15.6 7.16 16.17 6.77 16.4 6.61 16.79 6.34 17.28 6.31 17.74 6.55 18.31 6.19 18.8 6.45 18.94 6.55 19.24 6.75 19.36 7 19.81 7.92 19.99 8.29 20.3 8.92 20.48 9.23 20.65 9.29 20.85 9.38 21.11 9.49 21.45 9.64 22.23 9.99 22.5 9.99L22.5 9.99C23.59 9.85 24.8 10.56 25.16 10.99L25.27 11.12C26.5 12.66 27.02 13.13 27.2 13.26 27.77 13.33 28.28 13.66 28.56 14.16 28.86 14.7 28.84 15.34 28.51 15.88 28.42 16.02 28.24 16.42 28.09 16.76 27.53 17.99 27.16 18.77 26.69 19.15 26.55 19.26 26.42 19.35 26.3 19.44 26.21 19.5 26.09 19.58 26.06 19.62L26.06 19.62C26.06 19.62 26.05 19.66 26.04 19.75 25.94 21.05 24.76 22.03 23.78 22.03 23.57 22.03 23.39 21.98 23.22 21.91 23.18 22.15 23.16 22.37 23.18 22.5 23.4 22.92 24.22 24.58 23.76 25.4L23.47 25.91 22.82 25.95C22.76 25.95 22.67 25.95 22.54 25.94 21.42 25.88 20.68 25.94 20.34 26.13 20.37 26.14 20.34 26.41 20.34 26.57 20.31 27.1 20.23 28.19 19.12 28.48 18.76 28.57 18.34 28.62 17.94 28.66 17.63 28.69 17.13 28.74 16.89 28.82 16.85 28.99 16.82 29.33 16.81 29.53 16.76 30.13 16.68 31.05 15.76 31.16 15.76 31.16 15.63 31.23 15.47 31.29 14.51 31.68 13.75 32 13.14 31.48L13.14 31.48C13.14 31.48 12.36 31.17 10.42 32.08 10.19 32.19 9.94 32.24 9.69 32.24ZM9.97 30.41 9.97 30.41ZM7.82 24.94 9.86 30.13C12.11 29.14 13.4 29.39 14.04 29.69 14.25 29.62 14.55 29.5 14.71 29.43L14.82 29.39 14.82 29.34C14.87 28.78 14.94 28.07 15.29 27.57 15.8 26.85 16.79 26.75 17.75 26.65 17.96 26.63 18.17 26.61 18.35 26.58 18.35 26.53 18.35 26.47 18.36 26.43 18.4 25.89 18.46 24.89 19.39 24.37 20.02 24.02 20.83 23.92 21.65 23.91 21.57 23.71 21.49 23.53 21.42 23.42 20.88 22.52 21.45 20.17 21.93 19.62 22.15 19.37 22.45 19.24 22.77 19.24L22.77 19.24C23.33 19.24 23.67 19.64 23.9 19.9 23.97 19.82 24.03 19.72 24.04 19.59 24.12 18.49 24.75 18.06 25.17 17.78 25.25 17.72 25.34 17.67 25.43 17.59 25.6 17.4 26.06 16.4 26.27 15.92 26.4 15.63 26.51 15.38 26.61 15.18 26.03 15 25.29 14.34 23.7 12.35L23.62 12.25C23.51 12.17 22.98 11.92 22.72 11.95 22.02 12.04 21.24 11.72 20.28 11.29 20.09 11.21 19.93 11.13 19.81 11.09 19.09 11.01 18.73 10.28 17.99 8.76 17.96 8.7 17.93 8.64 17.9 8.58 17.84 8.58 17.78 8.58 17.72 8.58 17.72 8.9 17.76 9.29 17.81 9.64L17.93 10.42 17.2 10.72C17.2 10.72 17.08 10.77 16.96 10.81L17.11 11.01 17.08 11.39C17.05 11.81 16.7 12.57 16.04 13.65 15.91 13.86 15.85 13.96 16.52 14.6 16.83 14.89 17.15 15.2 17.22 15.67 17.22 15.72 15.94 21.93 14.79 22.36 14.6 22.43 9.87 24.17 7.79 24.94ZM14.44 29.94 14.44 29.94ZM23.13 22.39 23.15 22.43C23.15 22.43 23.14 22.41 23.13 22.39ZM14.12 20.49 14.12 20.49ZM19.96 11.11 19.96 11.11ZM17.87 6.6 17.87 6.6Z" fill="#7823DC"/><path d="M18.24 5.03C18.17 5.03 18.1 5.03 18.03 5.02 17.29 4.93 16.96 4.57 16.82 4.29 16.74 4.13 16.7 3.98 16.7 3.82 16.37 2.88 16.33 1.65 17.24 0.94L17.68 0.59C18.18 0.18 18.55-0.11 19.11 0.05L19.61 0.2 19.8 0.72C19.8 0.72 20.35 2.51 19.93 3.4 19.9 3.47 19.87 3.55 19.84 3.63 19.71 3.99 19.34 5.04 18.25 5.04ZM18.59 4.15 18.59 4.15Z" fill="#7823DC"/></svg>