<svg viewBox="0 0 32 32" xmlns="http://www.w3.org/2000/svg" xmlns:xlink="http://www.w3.org/1999/xlink" id="Graphic" overflow="hidden"><style>
.MsftOfcResponsive_Fill_7823dc {
 fill:#7823DC; 
}
</style>
<defs></defs><path d="M30 6 30 8 2 8 2 6 30 6M32 4 0 4 0 10 32 10 32 4Z" class="MsftOfcResponsive_Fill_7823dc" fill="#7823DC"/><path d="M30 10 30 30 2 30 2 10 30 10M32 8 0 8 0 32 28 32 32 28 32 8Z" class="MsftOfcResponsive_Fill_7823dc" fill="#7823DC"/><rect x="2" y="26" width="28" height="2" class="MsftOfcResponsive_Fill_7823dc" fill="#7823DC"/><path d="M12 14 6 14 6 16 12 16 12 14 12 14Z" class="MsftOfcResponsive_Fill_7823dc" fill="#7823DC"/><path d="M26 14 20 14 20 16 26 16 26 14 26 14Z" class="MsftOfcResponsive_Fill_7823dc" fill="#7823DC"/><path d="M24 12 22 12 22 18 24 18 24 12 24 12Z" class="MsftOfcResponsive_Fill_7823dc" fill="#7823DC"/><path d="M6 2 6 4 4 4 4 2 6 2M8 0 2 0 2 6 8 6 8 0Z" class="MsftOfcResponsive_Fill_7823dc" fill="#7823DC"/><path d="M28 2 28 4 26 4 26 2 28 2M30 0 24 0 24 6 30 6 30 0Z" class="MsftOfcResponsive_Fill_7823dc" fill="#7823DC"/></svg>