<svg viewBox="0 0 32 32" xmlns="http://www.w3.org/2000/svg" xmlns:xlink="http://www.w3.org/1999/xlink" id="Layer_1" overflow="hidden"><style>
.MsftOfcResponsive_Fill_7823dc {
 fill:#7823DC; 
}
</style>
<defs></defs><rect x="22.95" y="7.99" width="2" height="18.54" class="MsftOfcResponsive_Fill_7823dc" stroke-width="0" fill="#7823DC" transform="matrix(0.605294 -0.796002 0.796002 0.605294 -4.29 25.88)"/><path d="M16 13.01C14.95 13.01 14.09 12.11 14.09 11.01 14.09 9.91 14.95 9.01 16 9.01 17.05 9.01 17.91 9.91 17.91 11.01 17.91 12.11 17.05 13.01 16 13.01Z" class="MsftOfcResponsive_Fill_7823dc" stroke-width="0" fill="#7823DC"/><path d="M15.4 6C9.79 6 6.07 4.34 3.35 3.13 1.94 2.5 0.82 2 -4.44089e-16 2L-4.44089e-16 0 32 0 32 2C30.76 2 29.31 2.58 27.48 3.31 24.48 4.51 20.74 6 15.4 6ZM5.77 2C8.15 2.99 11.23 4 15.4 4 19.57 4 22.75 3 25.34 2L5.77 2Z" class="MsftOfcResponsive_Fill_7823dc" stroke-width="0" fill="#7823DC"/><path d="M27.77 32 4.23 32 0 1.14 1.99 0.86 5.98 30 26.02 30 30.01 0.86 31.99 1.14 27.77 32Z" class="MsftOfcResponsive_Fill_7823dc" stroke-width="0" fill="#7823DC"/></svg>