<svg viewBox="0 0 32 32" xmlns="http://www.w3.org/2000/svg" xmlns:xlink="http://www.w3.org/1999/xlink" id="Layer_1" xml:space="preserve" overflow="hidden"><g><path d="M289.2-28 284.9-14.9 297.8 12.6 298.3 10.1 289.2-28 289.2-28Z" fill="#7823DC" fill-rule="evenodd" clip-rule="evenodd"/><path d="M306.4-28 297.2 10.1 297.8 12.6 310.7-14.9 306.4-28 306.4-28Z" fill="#7823DC" fill-rule="evenodd" clip-rule="evenodd"/><line x1="289.3" y1="-26" x2="306.4" y2="-26" stroke="#7823DC" stroke-width="3.7031" stroke-miterlimit="8" fill="none"/><g><defs><path d="M272 32 323.4 32 323.4-28 272-28 272 32Z" id="SVGID_1_" fill="#7823DC"/></defs><clipPath id="SVGID_00000005226242785068743180000017384164141744921748_"><use width="100%" height="100%" xlink:href="#SVGID_1_" overflow="visible"></use></clipPath><line x1="297.9" y1="30.1" x2="297.9" y2="5.7" stroke="#7823DC" stroke-width="3.7031" stroke-miterlimit="8" fill="none" clip-path="url(#SVGID_00000005226242785068743180000017384164141744921748_)"/><g clip-path="url(#SVGID_00000005226242785068743180000017384164141744921748_)"><defs><path d="M272 32 323.4 32 323.4-28 272-28 272 32Z" id="SVGID_00000003100468703290282830000017423798641643159198_" fill="#7823DC"/></defs><clipPath id="SVGID_00000137125316657521000150000014431392644511200923_"><use width="100%" height="100%" xlink:href="#SVGID_00000003100468703290282830000017423798641643159198_" overflow="visible"></use></clipPath><line x1="309.7" y1="17.4" x2="302.9" y2="17.4" stroke="#7823DC" stroke-width="3.7031" stroke-miterlimit="8" fill="none" clip-path="url(#SVGID_00000137125316657521000150000014431392644511200923_)"/><g clip-path="url(#SVGID_00000137125316657521000150000014431392644511200923_)"><defs><path d="M272 32 323.4 32 323.4-28 272-28 272 32Z" id="SVGID_00000015318101143338348490000012694690811152609977_" fill="#7823DC"/></defs><clipPath id="SVGID_00000084514345468679081180000011557830872009988506_"><use width="100%" height="100%" xlink:href="#SVGID_00000015318101143338348490000012694690811152609977_" overflow="visible"></use></clipPath><line x1="292.9" y1="17.4" x2="286.1" y2="17.4" stroke="#7823DC" stroke-width="3.7031" stroke-miterlimit="8" fill="none" clip-path="url(#SVGID_00000084514345468679081180000011557830872009988506_)"/><g clip-path="url(#SVGID_00000084514345468679081180000011557830872009988506_)"><defs><path d="M272 32 323.4 32 323.4-28 272-28 272 32Z" id="SVGID_00000077308160497312534550000006365262204471106952_" fill="#7823DC"/></defs><clipPath id="SVGID_00000148634199326240794190000006612364747364043698_"><use width="100%" height="100%" xlink:href="#SVGID_00000077308160497312534550000006365262204471106952_" overflow="visible"></use></clipPath><line x1="290.3" y1="-15.2" x2="287.2" y2="-15.2" stroke="#7823DC" stroke-width="3.7031" stroke-miterlimit="8" fill="none" clip-path="url(#SVGID_00000148634199326240794190000006612364747364043698_)"/><g clip-path="url(#SVGID_00000148634199326240794190000006612364747364043698_)"><defs><path d="M272 32 323.4 32 323.4-28 272-28 272 32Z" id="SVGID_00000145766597970211270730000000650790274780355246_" fill="#7823DC"/></defs><clipPath id="SVGID_00000059289087444215231410000017797840675099111076_"><use width="100%" height="100%" xlink:href="#SVGID_00000145766597970211270730000000650790274780355246_" overflow="visible"></use></clipPath><line x1="308" y1="-15.2" x2="304.6" y2="-15.2" stroke="#7823DC" stroke-width="3.7031" stroke-miterlimit="8" fill="none" clip-path="url(#SVGID_00000059289087444215231410000017797840675099111076_)"/><g clip-path="url(#SVGID_00000059289087444215231410000017797840675099111076_)"><defs><path d="M272 32 323.4 32 323.4-28 272-28 272 32Z" id="SVGID_00000060007808488210371160000004507972825677529272_" fill="#7823DC"/></defs><clipPath id="SVGID_00000031190611059559695680000010533440932740793750_"><use width="100%" height="100%" xlink:href="#SVGID_00000060007808488210371160000004507972825677529272_" overflow="visible"></use></clipPath><path d="M305.5-22.5 313.9-22.5C320.8-22.5 321-16.1 321-16.1 321.7-8.6 321.6 24.1 321.6 24.1L314.7 24.1" stroke="#7823DC" stroke-width="3.7031" stroke-miterlimit="8" fill="#7823DC" clip-path="url(#SVGID_00000031190611059559695680000010533440932740793750_)"/><g clip-path="url(#SVGID_00000031190611059559695680000010533440932740793750_)"><defs><path d="M272 32 323.4 32 323.4-28 272-28 272 32Z" id="SVGID_00000157305688109634355560000012377919778544621213_" fill="#7823DC"/></defs><clipPath id="SVGID_00000038405442227907627650000005342850060185625011_"><use width="100%" height="100%" xlink:href="#SVGID_00000157305688109634355560000012377919778544621213_" overflow="visible"></use></clipPath><path d="M279.5 24 273.9 24C273.9 24 273.7-8.7 274.5-16.2 274.5-16.2 274.5-22.6 281.6-22.6L288.9-22.6" stroke="#7823DC" stroke-width="3.7031" stroke-miterlimit="8" fill="#7823DC" clip-path="url(#SVGID_00000038405442227907627650000005342850060185625011_)"/><g clip-path="url(#SVGID_00000038405442227907627650000005342850060185625011_)"><defs><path d="M272 32 323.4 32 323.4-28 272-28 272 32Z" id="SVGID_00000066491024473160995490000003482724131629433226_" fill="#7823DC"/></defs><clipPath id="SVGID_00000070092787265424144600000000864790293578292136_"><use width="100%" height="100%" xlink:href="#SVGID_00000066491024473160995490000003482724131629433226_" overflow="visible"></use></clipPath><path d="M285.1-22.5C285.1-22.5 279.1-14.7 281-6.6L282.5-1.2C284 7.6 282.5 12.4 282.5 12.4L279.5 25.8C279.5 25.8 292.4 30.5 297.6 30.1 302.8 29.9 307.3 28.8 316.1 25.8L313.1 12.4C313.1 12.4 311.6 7.7 313.1-1.2L314.6-6.6C316.5-14.6 310.5-22.5 310.5-22.5" stroke="#7823DC" stroke-width="3.7031" stroke-miterlimit="8" fill="#7823DC" clip-path="url(#SVGID_00000070092787265424144600000000864790293578292136_)"/></g></g></g></g></g></g></g></g></g><g><path d="M22.3 31.9 21.3 9.6 25 5.9 27.4 24.5 28.6 24.4 26.7 5.6C26.3 5.2 25.4 4.3 24.3 4 22.8 3.6 20.9 2.9 19.7 2.1 15.9 3.9 13.3 2.8 12.2 2.1 11.2 2.6 9.2 3.6 7.7 4 6.6 4.3 5.7 5.2 5.3 5.6L3.4 24.5 4.6 24.6 7.3 5.9 11 9.6 10 31.9 8 31.8 9 10.4 8.7 10.1 6.3 26.6 1.3 26.3 3.4 4.8 3.6 4.6C3.7 4.5 5.1 2.7 7.2 2.2 8.9 1.7 11.8 0.2 11.8 0.2L12.4-0.1 12.9 0.4C13 0.5 15.2 2.4 19.3 0.2L19.9-0.1 20.4 0.3C21.2 0.9 23 1.7 24.9 2.2 27 2.8 28.5 4.6 28.5 4.6L28.7 4.8 30.8 26.3 25.7 26.6 23.5 10.1 23.2 10.4 24.2 31.8 22.3 31.9Z" fill="#7823DC"/><g><defs><path d="M1.2 32 30.8 32 30.8 0 1.2 0 1.2 32Z" id="SVGID_00000181062291829989875200000004076241060813967291_" fill="#7823DC"/></defs><clipPath id="SVGID_00000092445602714096638350000018215644540129743791_"><use width="100%" height="100%" xlink:href="#SVGID_00000181062291829989875200000004076241060813967291_" overflow="visible"></use></clipPath><path d="M19.2 20.9 13.2 20.9 13.2 2.1 15.2 2.1 15.2 18.9 17.2 18.9 17.2 2.1 19.2 2.1Z" fill="#7823DC" clip-path="url(#SVGID_00000092445602714096638350000018215644540129743791_)"/><g clip-path="url(#SVGID_00000092445602714096638350000018215644540129743791_)"><defs><path d="M1.2 32 30.8 32 30.8 0 1.2 0 1.2 32Z" id="SVGID_00000045615426563215868580000010977146531798353050_" fill="#7823DC"/></defs><clipPath id="SVGID_00000075878427202802786740000009354494946726280846_"><use width="100%" height="100%" xlink:href="#SVGID_00000045615426563215868580000010977146531798353050_" overflow="visible"></use></clipPath><path d="M17 13.1C17 12.6 16.6 12.2 16.1 12.2 15.6 12.2 15.2 12.6 15.2 13.1 15.2 13.6 15.6 14 16.1 14 16.6 14 17 13.5 17 13.1L17 13.1Z" fill="#7823DC" fill-rule="evenodd" clip-rule="evenodd" clip-path="url(#SVGID_00000075878427202802786740000009354494946726280846_)"/><g clip-path="url(#SVGID_00000075878427202802786740000009354494946726280846_)"><defs><path d="M1.2 32 30.8 32 30.8 0 1.2 0 1.2 32Z" id="SVGID_00000088095253802764504360000004066538034396105372_" fill="#7823DC"/></defs><clipPath id="SVGID_00000078723522613711920070000003562875571427324078_"><use width="100%" height="100%" xlink:href="#SVGID_00000088095253802764504360000004066538034396105372_" overflow="visible"></use></clipPath><path d="M17 17.2C17 16.7 16.6 16.3 16.1 16.3 15.6 16.3 15.2 16.7 15.2 17.2 15.2 17.7 15.6 18.1 16.1 18.1 16.6 18.1 17 17.7 17 17.2L17 17.2Z" fill="#7823DC" fill-rule="evenodd" clip-rule="evenodd" clip-path="url(#SVGID_00000078723522613711920070000003562875571427324078_)"/><g clip-path="url(#SVGID_00000078723522613711920070000003562875571427324078_)"><defs><path d="M1.2 32 30.8 32 30.8 0 1.2 0 1.2 32Z" id="SVGID_00000042697401405859908780000015544129282251195326_" fill="#7823DC"/></defs><clipPath id="SVGID_00000096761574650030389580000005440139297312255625_"><use width="100%" height="100%" xlink:href="#SVGID_00000042697401405859908780000015544129282251195326_" overflow="visible"></use></clipPath><path d="M17 8.9C17 8.4 16.6 8 16.1 8 15.6 8 15.2 8.4 15.2 8.9 15.2 9.4 15.6 9.8 16.1 9.8 16.6 9.8 17 9.4 17 8.9L17 8.9Z" fill="#7823DC" fill-rule="evenodd" clip-rule="evenodd" clip-path="url(#SVGID_00000096761574650030389580000005440139297312255625_)"/><g clip-path="url(#SVGID_00000096761574650030389580000005440139297312255625_)"><defs><path d="M1.2 32 30.8 32 30.8 0 1.2 0 1.2 32Z" id="SVGID_00000005951667531560362390000000620264461568021148_" fill="#7823DC"/></defs><clipPath id="SVGID_00000103955136535632870140000012830984319966165414_"><use width="100%" height="100%" xlink:href="#SVGID_00000005951667531560362390000000620264461568021148_" overflow="visible"></use></clipPath><path d="M17 4.8C17 4.3 16.6 3.9 16.1 3.9 15.6 3.9 15.2 4.3 15.2 4.8 15.2 5.3 15.6 5.7 16.1 5.7 16.6 5.7 17 5.3 17 4.8L17 4.8Z" fill="#7823DC" fill-rule="evenodd" clip-rule="evenodd" clip-path="url(#SVGID_00000103955136535632870140000012830984319966165414_)"/></g></g></g></g></g></g></svg>