<svg viewBox="0 0 32 32" xmlns="http://www.w3.org/2000/svg" xmlns:xlink="http://www.w3.org/1999/xlink" id="Graphic" overflow="hidden"><defs></defs><path d="M22.0423 20 22.0423 26 18.0423 26 18.0423 20 22.0423 20M24.0423 18 16.0423 18 16.0423 28 24.0423 28 24.0423 18Z" fill="#7823DC"/><path d="M30.0223 26 13.0744 26 13.0744 28 30.0223 28 30.0223 26 30.0223 26Z" fill="#7823DC"/><path d="M31.9873 2 31.9873 0 1.9873 0 1.9873 12 3.9873 12 3.9873 2 31.9873 2Z" fill="#7823DC"/><rect x="11.9873" y="18" width="20" height="2" fill="#7823DC"/><rect x="11.9873" y="23" width="2" height="9" fill="#7823DC"/><path d="M4.9873 15C6.64415 15 7.9873 16.3431 7.9873 18 7.9873 19.6569 6.64415 21 4.9873 21 3.33045 21 1.9873 19.6569 1.9873 18 1.9873 16.3431 3.33045 15 4.9873 15M4.9873 13C2.22588 13-0.0127 15.2386-0.0127 18-0.0127 20.7614 2.22588 23 4.9873 23 7.74872 23 9.9873 20.7614 9.9873 18 9.9873 15.2386 7.74872 13 4.9873 13Z" fill="#7823DC"/><path d="M11.9873 23 9.1573 23 4.9873 27.17 0.8173 23-0.0127 23-0.0127 25 4.9873 30 11.9873 23Z" fill="#7823DC"/><path d="M14.8601 10.0281 16.0103 8.88374 16.0103 6.06245 12.032 10.0203 16.0103 14.0178 16.0103 11.1838 14.8601 10.0281Z" fill="#7823DC"/><path d="M25.1845 10.0521 24.0343 11.1965 24.0343 14.0178 28.0126 10.0599 24.0343 6.06245 24.0343 8.89643 25.1845 10.0521Z" fill="#7823DC"/><path d="M20.8472 3.995 16.9117 15.988 19.0166 15.988 22.9521 3.995 20.8472 3.995Z" fill="#7823DC"/></svg>