<svg viewBox="0 0 32 32" xmlns="http://www.w3.org/2000/svg" xmlns:xlink="http://www.w3.org/1999/xlink" id="Graphic" overflow="hidden"><defs></defs><path d="M21.21 6C22.7651 6.02194 24.0111 7.29474 24 8.85L24 23.18C23.9947 24.7236 22.7534 25.9782 21.21 26L8.84 26C7.27704 26.0055 6.00553 24.743 6 23.18 6 23.18 6 23.18 6 23.18L6 8.85C5.98894 7.28707 7.24698 6.01111 8.80991 6.00005 8.81994 5.99998 8.82997 5.99996 8.84 6L21.21 6M21.21 4 8.84 4C6.17801 3.9889 4.01105 6.13788 3.99995 8.79986 3.99988 8.81658 3.9999 8.83329 4 8.85L4 23.18C4.00552 25.8475 6.17245 28.0055 8.83998 28L21.21 28C23.858 27.9781 25.9946 25.8281 26 23.18L26 8.85C26.0111 6.19021 23.8697 4.022 21.21 4Z" fill="#7823DC"/><path d="M18.32 2 19.09 4 10.94 4 11.72 2 18.32 2M19.68 0 10.35 0 8 6 22 6 19.68 0Z" fill="#7823DC"/><path d="M19.09 28 18.32 30 11.72 30 10.94 28 19.09 28M22 26 8 26 10.33 32 19.66 32 22 26Z" fill="#7823DC"/><path d="M25.75 8 24 8 24 16 25.71 16C26.9524 16.0221 27.9776 15.0328 27.9997 13.7904 27.9998 13.7803 28 13.7701 28 13.76L28 10.24C27.9945 9.00127 26.9887 7.99999 25.75 8Z" fill="#7823DC"/><path d="M26.06 18 24 18 24 24 26 24C27.0709 24.0337 27.9663 23.1928 28 22.1219 28.0013 22.0813 28.0013 22.0406 28 22L28 20C28.0331 18.9291 27.1918 18.0341 26.1209 18.0009 26.1006 18.0003 26.0803 18 26.06 18Z" fill="#7823DC"/><path d="M12 10 12 12 10 12 10 10 12 10M12.33 8 9.69 8C8.76775 7.98894 8.01115 8.7276 8.00009 9.64985 7.99997 9.6599 7.99994 9.66995 8 9.68L8 12.34C7.99985 13.2568 8.74294 14.0001 9.65973 14.0003 9.66982 14.0003 9.67991 14.0002 9.69 14L12.35 14C13.2606 13.9891 13.9946 13.2507 14 12.34L14 9.68C14.0056 8.76155 13.2684 8.01098 12.35 8Z" fill="#7823DC"/><path d="M20 10 20 12 18 12 18 10 20 10M20.33 8 17.69 8C16.7678 7.98894 16.0112 8.7276 16.0001 9.64985 16 9.6599 15.9999 9.66995 16 9.68L16 12.34C15.9999 13.2568 16.7429 14.0001 17.6597 14.0003 17.6698 14.0003 17.6799 14.0002 17.69 14L20.35 14C21.2606 13.9891 21.9946 13.2507 22 12.34L22 9.68C22.0056 8.76155 21.2684 8.01098 20.35 8Z" fill="#7823DC"/><path d="M12 18 12 20 10 20 10 18 12 18M12.33 16 9.69 16C8.76775 15.9889 8.01115 16.7276 8.00009 17.6499 8.00005 17.6532 8.00002 17.6566 8 17.66L8 20.32C7.9888 21.2367 8.72288 21.989 9.6396 22.0001 9.6564 22.0004 9.6732 22.0003 9.69 22L12.35 22C13.2684 21.989 14.0056 21.2385 14 20.32L14 17.66C13.9946 16.7493 13.2606 16.0109 12.35 16Z" fill="#7823DC"/><path d="M20 18 20 20 18 20 18 18 20 18M20.33 16 17.69 16C16.7734 15.9834 16.0168 16.713 16.0002 17.6296 15.9998 17.6464 15.9998 17.6632 16 17.68L16 20.34C16.0055 21.2623 16.7576 22.0055 17.6799 22.0001 17.6832 22.0001 17.6866 22 17.69 22L20.35 22C21.2606 21.9891 21.9946 21.2507 22 20.34L22 17.68C22.0056 16.7615 21.2684 16.011 20.35 16Z" fill="#7823DC"/></svg>