<svg viewBox="0 0 32 31.74" xmlns="http://www.w3.org/2000/svg" xmlns:xlink="http://www.w3.org/1999/xlink" id="Outline_Final_icon" overflow="hidden"><defs></defs><path d="M4.28 26.12C5.78 26.12 7 24.9 7 23.4 7 21.9 5.78 20.68 4.28 20.68 2.78 20.68 1.56 21.9 1.56 23.4 1.56 24.9 2.78 26.12 4.28 26.12ZM4.28 22.68C4.68 22.68 5 23 5 23.4 5 23.8 4.68 24.12 4.28 24.12 3.88 24.12 3.56 23.8 3.56 23.4 3.56 23 3.88 22.68 4.28 22.68Z" fill="#7823DC"/><path d="M12.84 20.15C12.84 21.89 14.25 23.31 16 23.31 17.75 23.31 19.16 21.9 19.16 20.15 19.16 18.4 17.75 16.99 16 16.99 14.25 16.99 12.84 18.4 12.84 20.15ZM17.16 20.15C17.16 20.79 16.64 21.31 16 21.31 15.36 21.31 14.84 20.79 14.84 20.15 14.84 19.51 15.36 18.99 16 18.99 16.64 18.99 17.16 19.51 17.16 20.15Z" fill="#7823DC"/><path d="M16 7.41C18.04 7.41 19.7 5.75 19.7 3.71 19.7 1.67 18.04 0.01 16 0.01 13.96 0.01 12.3 1.67 12.3 3.71 12.3 5.75 13.96 7.41 16 7.41ZM16 2C16.94 2 17.7 2.76 17.7 3.7 17.7 4.64 16.94 5.4 16 5.4 15.06 5.4 14.3 4.64 14.3 3.7 14.3 2.76 15.06 2 16 2Z" fill="#7823DC"/><path d="M9.31 21.5 11.21 20.88 8.99 14.04 23 14.04 20.78 20.88 22.68 21.5 25.1 14.04 27.97 14.04 27.97 12.04 23.46 12.04 23.46 8.64 8.48 8.64 8.48 12.04 3.98 12.04 3.98 14.04 6.89 14.04 9.31 21.5ZM10.49 10.64 21.47 10.64 21.47 12.04 10.49 12.04 10.49 10.64Z" fill="#7823DC"/><path d="M24.78 23.4C24.78 24.9 26 26.12 27.5 26.12 29 26.12 30.22 24.9 30.22 23.4 30.22 21.9 29 20.68 27.5 20.68 26 20.68 24.78 21.9 24.78 23.4ZM28.22 23.4C28.22 23.8 27.9 24.12 27.5 24.12 27.1 24.12 26.78 23.8 26.78 23.4 26.78 23 27.1 22.68 27.5 22.68 27.9 22.68 28.22 23 28.22 23.4Z" fill="#7823DC"/><path d="M22.82 26.92 21.64 29.85 20.36 24.62 11.67 24.62 10.35 29.84 9.22 26.92 0 26.92 0 29.13 0.09 28.92 7.85 28.92 8.94 31.74 9.86 31.74 11.08 31.74 11.93 31.74 13.23 26.62 18.79 26.62 20.05 31.74 20.89 31.74 22.11 31.74 23.04 31.74 24.17 28.92 31.94 28.92 32 29.08 32 26.92 22.82 26.92Z" fill="#7823DC"/></svg>