<svg viewBox="0 0 31.94 32.17" xmlns="http://www.w3.org/2000/svg" xmlns:xlink="http://www.w3.org/1999/xlink" id="Outline_Final_icon" overflow="hidden"><defs></defs><path d="M10.34 11.32C12.51 11.32 14.27 9.56 14.27 7.39 14.27 5.22 12.51 3.46 10.34 3.46 8.17 3.46 6.41 5.22 6.41 7.39 6.41 9.56 8.17 11.32 10.34 11.32ZM10.34 5.45C11.41 5.45 12.27 6.32 12.27 7.38 12.27 8.44 11.4 9.31 10.34 9.31 9.28 9.31 8.41 8.44 8.41 7.38 8.41 6.32 9.28 5.45 10.34 5.45Z" fill="#7823DC"/><path d="M5.88 20.23 5.88 20.16 5.97 20.16 5.97 14.34 15.02 14.34 15.02 20.16 16.98 20.16 16.98 12.34 4.01 12.34 4.01 20.16 4.03 20.16 4.03 20.23 5.88 20.23Z" fill="#7823DC"/><path d="M23.16 0 0 0 0 32.17 31.94 32.17 31.94 7.22 23.16 0ZM23.8 3.11 28.25 6.77 23.8 6.77 23.8 3.11ZM1.99 30.17 1.99 2 21.82 2 21.82 8.77 29.96 8.77 29.96 30.17 1.99 30.17Z" fill="#7823DC"/><rect x="4.01" y="22.58" width="23.91" height="2" fill="#7823DC"/><rect x="19.48" y="14.44" width="8.45" height="2" fill="#7823DC"/><rect x="19.48" y="17.78" width="8.45" height="2" fill="#7823DC"/><rect x="4.01" y="26.28" width="23.91" height="2" fill="#7823DC"/><path d="M8.81 14.94 7.51 19.19 10.5 21.54 13.11 19.17 12.12 15 10.37 15.42 8.81 14.94ZM10.89 18.49 10.41 18.93 9.82 18.47 10.42 16.51 10.89 18.49Z" fill="#7823DC"/></svg>