<svg viewBox="0 0 32 32" xmlns="http://www.w3.org/2000/svg" xmlns:xlink="http://www.w3.org/1999/xlink" overflow="hidden"><style>
.MsftOfcResponsive_Fill_7823dc {
 fill:#7823DC; 
}
</style>
<defs></defs><g id="Layer_3"><path d="M4.801 25.991 4.03 25.991-0.001 22.006-0.001 5.991 22.999 5.991 22.999 7.991 1.999 7.991 1.999 23.991 4.801 23.991 4.801 25.991Z" class="MsftOfcResponsive_Fill_7823dc" fill="#7823DC"/><path d="M6.85254 27.9912C5.19569 27.9912 3.85254 26.6481 3.85254 24.9912 3.85254 23.3344 5.19569 21.9912 6.85254 21.9912 8.50939 21.9912 9.85254 23.3344 9.85254 24.9912 9.85073 26.6473 8.50865 27.9894 6.85254 27.9912ZM6.85254 23.9912C6.30026 23.9912 5.85254 24.4389 5.85254 24.9912 5.85254 25.5435 6.30026 25.9912 6.85254 25.9912 7.40482 25.9912 7.85254 25.5435 7.85254 24.9912 7.85199 24.4392 7.4046 23.9918 6.85254 23.9912Z" class="MsftOfcResponsive_Fill_7823dc" fill="#7823DC"/><path d="M31.999 25.991 27.999 25.991 27.999 23.991 29.999 23.991 29.999 16.357 26.606 14.911 27.391 13.071 31.999 15.036 31.999 25.991Z" class="MsftOfcResponsive_Fill_7823dc" fill="#7823DC"/><rect x="27.9985" y="17.9912" width="2" height="2" class="MsftOfcResponsive_Fill_7823dc" fill="#7823DC"/><path d="M25.9985 27.9912C24.3417 27.9912 22.9985 26.6481 22.9985 24.9912 22.9985 23.3344 24.3417 21.9912 25.9985 21.9912 27.6554 21.9912 28.9985 23.3344 28.9985 24.9912 28.9967 26.6473 27.6546 27.9894 25.9985 27.9912ZM25.9985 23.9912C25.4463 23.9912 24.9985 24.4389 24.9985 24.9912 24.9985 25.5435 25.4463 25.9912 25.9985 25.9912 26.5508 25.9912 26.9985 25.5435 26.9985 24.9912 26.998 24.4392 26.5506 23.9918 25.9985 23.9912Z" class="MsftOfcResponsive_Fill_7823dc" fill="#7823DC"/><rect x="7.99854" y="23.9912" width="16" height="2" class="MsftOfcResponsive_Fill_7823dc" fill="#7823DC"/><path d="M28.2793 14.9912 18.9985 14.9912 18.9985 5.99121 26.0293 5.99121ZM20.9985 12.9912 25.7178 12.9912 24.4678 7.99121 20.9985 7.99121Z" class="MsftOfcResponsive_Fill_7823dc" fill="#7823DC"/><path d="M20.9985 25.9912 10.9985 25.9912 10.9985 5.99121 20.9985 5.99121ZM12.9985 23.9912 18.9985 23.9912 18.9985 7.99121 12.9985 7.99121Z" class="MsftOfcResponsive_Fill_7823dc" fill="#7823DC"/><rect x="14.9985" y="6.99121" width="2" height="17" class="MsftOfcResponsive_Fill_7823dc" fill="#7823DC"/><rect x="0.99854" y="12.9912" width="11" height="2" class="MsftOfcResponsive_Fill_7823dc" fill="#7823DC"/><rect x="5.49854" y="7.99121" width="2" height="6" class="MsftOfcResponsive_Fill_7823dc" fill="#7823DC"/></g></svg>