<svg viewBox="0 0 32 32" xmlns="http://www.w3.org/2000/svg" xmlns:xlink="http://www.w3.org/1999/xlink" id="Graphic" overflow="hidden"><defs></defs><path d="M29.12 10C29.6038 10.0054 29.9946 10.3962 30 10.88L30 25.12C29.9946 25.6038 29.6038 25.9946 29.12 26L2.88 26C2.39625 25.9946 2.00541 25.6038 2 25.12L2 10.88C2.00541 10.3962 2.39625 10.0054 2.88 10L29.12 10M29.12 8 2.88 8C1.28942 8 1.14441e-07 9.28942 1.14441e-07 10.88L0 25.12C4.44089e-16 26.7106 1.28942 28 2.88 28L29.12 28C30.7106 28 32 26.7106 32 25.12L32 10.88C32 9.28942 30.7106 8 29.12 8Z" fill="#7823DC"/><path d="M8 6 4 6 4 9 8 9 8 6 8 6Z" fill="#7823DC"/><path d="M20 6 20 8 12 8 12 6 20 6M22 4 10 4 10 10 22 10 22 4Z" fill="#7823DC"/><path d="M28 12 24 12 24 14 28 14 28 12 28 12Z" fill="#7823DC"/><path d="M16 14C18.2091 14 20 15.7909 20 18 20 20.2091 18.2091 22 16 22 13.7909 22 12 20.2091 12 18 12 15.7909 13.7909 14 16 14M16 12C12.6863 12 10 14.6863 10 18 10 21.3137 12.6863 24 16 24 19.3137 24 22 21.3137 22 18 22 14.6863 19.3137 12 16 12Z" fill="#7823DC"/></svg>