<svg viewBox="0 0 32 32" xmlns="http://www.w3.org/2000/svg" xmlns:xlink="http://www.w3.org/1999/xlink" id="Layer_2_1_" xml:space="preserve" overflow="hidden"><g><path d="M20.3 26 11.8 26 11.8 24.6C11.8 22.9 11.2 21.3 10.2 20.2 8.6 18.4 7.9 16.1 8.2 13.7 8.8 10.3 11.6 7.6 15.1 7.1 17.4 6.8 19.6 7.5 21.3 9 23 10.5 23.9 12.6 23.9 14.9 23.9 16.8 23.3 18.5 22.1 19.9 21.3 20.9 20.3 22.5 20.3 24.5L20.3 26ZM13.8 24 18.3 24C18.4 22.2 19.2 20.3 20.5 18.7 21.4 17.6 21.9 16.3 21.9 14.9 21.9 13.2 21.2 11.6 19.9 10.5 18.6 9.4 17 8.9 15.3 9.1 12.7 9.4 10.6 11.5 10.2 14 10 15.8 10.5 17.5 11.7 18.9 12.9 20.2 13.7 22 13.8 24Z" fill="#7823DC"/><rect x="12.5" y="27" width="7" height="2" fill="#7823DC"/><rect x="13.5" y="30" width="5" height="2" fill="#7823DC"/></g><rect x="15" y="0" width="2" height="5" fill="#7823DC"/><rect x="26.2" y="8.3" width="5" height="2" fill="#7823DC" transform="matrix(0.8643 -0.503 0.503 0.8643 -0.7646 15.6664)"/><rect x="25.5" y="21.1" width="2" height="5" fill="#7823DC" transform="matrix(0.5311 -0.8473 0.8473 0.5311 -7.5614 33.5411)"/><rect x="3.2" y="22.6" width="5" height="2" fill="#7823DC" transform="matrix(0.8473 -0.5311 0.5311 0.8473 -11.6747 6.599)"/><rect x="27" y="16" width="5" height="2" fill="#7823DC"/><g><rect x="21.5" y="3.2" width="5" height="2" fill="#7823DC" transform="matrix(0.5026 -0.8645 0.8645 0.5026 8.3499 22.8128)"/><rect x="7" y="1.7" width="2" height="5" fill="#7823DC" transform="matrix(0.8645 -0.5026 0.5026 0.8645 -1.002 4.5834)"/></g><rect x="2.7" y="6.8" width="2" height="5" fill="#7823DC" transform="matrix(0.5026 -0.8645 0.8645 0.5026 -6.1802 7.7581)"/><rect x="0" y="16" width="5" height="2" fill="#7823DC"/></svg>