<svg viewBox="0 0 32 32" xmlns="http://www.w3.org/2000/svg" xmlns:xlink="http://www.w3.org/1999/xlink" id="Layer_1" xml:space="preserve" overflow="hidden"><path d="M10.9 11.9 6.4 11.9 8.8 24.7 12.2 24.7 8.3 26.3 8.3 27.5C7.4 27.9 6.9 28.6 6.9 29.7 6.9 31 8 32 9.3 32 10.6 32 11.7 31 11.7 29.7 11.7 28.8 11.1 27.9 10.3 27.5L10.3 27.5 17.1 24.8 22.5 27.7C21.7 28.1 21.2 28.8 21.2 29.7 21.2 30.9 22.3 32 23.6 32 25 32 26 31 26 29.7 26 28.7 25.3 27.8 24.4 27.5L24.4 26.6 20.8 24.7 22.7 24.7 25.4 13.7 25.4 13.7 25.4 13.7 26.1 11 30 9.8 29.4 8.1 24.5 9.6 23.9 12 22.5 12M20.8 11.9 12.9 11.9M9.3 30.2C9 30.2 8.8 30 8.8 29.7 8.8 29.4 9 29.2 9.3 29.2 9.6 29.2 9.8 29.4 9.8 29.7 9.8 29.9 9.6 30.2 9.3 30.2L9.3 30.2 9.3 30.2 9.3 30.2ZM23.6 29.2C23.9 29.2 24.1 29.4 24.1 29.7 24.1 30 23.9 30.2 23.6 30.2 23.3 30.2 23.1 30 23.1 29.7 23.1 29.3 23.3 29.2 23.6 29.2L23.6 29.2 23.6 29.2 23.6 29.2ZM8.7 13.8 23.6 13.8 23.1 15.6 9 15.6 8.7 13.8 8.7 13.8 8.7 13.8 8.7 13.8 8.7 13.8ZM21.3 22.9 16.9 22.9 16.9 22.9 16.8 22.9 10.5 22.9 10.1 21.1 21.8 21.1 21.3 22.9 21.3 22.9 21.3 22.9 21.3 22.9 21.3 22.9ZM22.3 19.2 9.8 19.2 9.4 17.4 22.6 17.4 22.3 19.2 22.3 19.2 22.3 19.2 22.3 19.2 22.3 19.2Z" fill="#7823DC"/><g><path d="M22.2 6.6 21.1 8.2 19.5 7.1 15.5 4.2 13.8 3 9.6 0 13 0 15.5 1.8 17.2 3 21 5.7Z" fill="#7823DC"/><path d="M23 9.1 17.9 9.1 17.9 7.1 21 7.1 21 4.2 23 4.2Z" fill="#7823DC"/></g><g><path d="M21.4 0 17.2 3 15.5 4.2 11.5 7.1 9.9 8.2 8.7 6.6 10 5.7 13.8 3 15.5 1.8 18 0Z" fill="#7823DC"/><path d="M13.1 9.1 8 9.1 8 4.2 10 4.2 10 7.1 13.1 7.1Z" fill="#7823DC"/></g></svg>