<svg viewBox="0 0 32 32" xmlns="http://www.w3.org/2000/svg" xmlns:xlink="http://www.w3.org/1999/xlink" id="Layer_1" xml:space="preserve" overflow="hidden"><style>
.MsftOfcResponsive_Fill_7823dc {
 fill:#7823DC; 
}
</style>
<path d="M8.1 26.9 6.9 28.5C3.1 26 0.5 21.8 0.1 17L2.1 17C2.5 21.1 4.8 24.8 8.1 26.9Z" class="st0 MsftOfcResponsive_Fill_7823dc" fill="#7823DC"/><path d="M30.1 15.5C30.1 16.8 29.9 18.1 29.6 19.3 29.6 19.4 29.5 19.6 29.5 19.8 29.5 19.7 29.4 19.5 29.4 19.3 29 17.4 28.4 14.7 27.8 12.5L27.8 12.4C27.7 12 27.6 11.6 27.5 11.2 27.5 11 27.4 10.9 27.4 10.8 25.8 6.3 21.8 2.9 17 2.1L17 0.1C22.4 0.8 26.8 4.3 29 9.3 29.1 9.5 29.2 9.8 29.3 10.1L29.3 10.2C29.5 10.8 29.7 11.3 29.8 11.9L29.8 12C30.1 13.1 30.2 14.3 30.1 15.5Z" class="st0 MsftOfcResponsive_Fill_7823dc" fill="#7823DC"/><path d="M32 22.3 26.4 22.3 26.4 32 17 32 17 30 24.3 30 24.3 20.3 29.5 20.3C29.5 20.1 29.4 19.9 29.4 19.7 29 17.8 28.3 14.6 27.7 12.2L27.7 12.1C27.6 11.7 27.5 11.3 27.4 10.9 27.4 10.8 27.3 10.6 27.3 10.5 27.2 10.2 27.1 9.8 27 9.6L28.8 8.9 28.8 9.9C28.9 10.2 29 9.5 29.1 9.8L29.1 9.9C29.3 10.4 29.4 11 29.6 11.6L29.6 11.7C30.6 15.5 31.6 20.9 31.7 21.2L32 22.3Z" class="st0 MsftOfcResponsive_Fill_7823dc" fill="#7823DC"/><path d="M8.5 2C12.1 2 15 4.9 15 8.5 15 12.1 12.1 15 8.5 15 4.9 15 2 12.1 2 8.5 2 4.9 4.9 2 8.5 2M8.5 0C3.8 0 0 3.8 0 8.5 0 13.2 3.8 17 8.5 17 13.2 17 17 13.2 17 8.5 17 3.8 13.2 0 8.5 0L8.5 0Z" class="MsftOfcResponsive_Fill_7823dc" fill="#7823DC"/><rect x="4" y="7.5" width="9" height="2" class="MsftOfcResponsive_Fill_7823dc" fill="#7823DC"/><rect x="7.5" y="4" width="2" height="9" class="MsftOfcResponsive_Fill_7823dc" fill="#7823DC"/></svg>