<svg viewBox="0 0 32 32" xmlns="http://www.w3.org/2000/svg" xmlns:xlink="http://www.w3.org/1999/xlink" id="Layer_1" xml:space="preserve" overflow="hidden"><path d="M29.8 12 29.8 11.9C29.7 11.3 29.5 10.8 29.3 10.2L29.3 10.1C29.2 9.8 29.1 9.5 29 9.3 26.6 3.8 21.3 0 15.1 0 6.8 0 0 6.9 0 15.5 0 20.9 2.7 25.7 6.9 28.5L8.1 26.9C4.4 24.5 2 20.2 2 15.5 2 8 7.9 2 15.1 2 20.7 2 25.6 5.7 27.4 10.8 27.4 10.9 27.5 11 27.5 11.2 27.6 11.6 27.7 12 27.8 12.4L27.8 12.5C28.4 14.7 29 17.4 29.4 19.3 29.4 19.5 29.5 19.7 29.5 19.8 29.5 19.6 29.6 19.4 29.6 19.3 29.9 18.1 30.1 16.8 30.1 15.5 30.2 14.3 30.1 13.1 29.8 12Z" fill="#7823DC"/><path d="M32 22.3 26.4 22.3 26.4 32 17 32 17 30 24.3 30 24.3 20.3 29.5 20.3C29.5 20.1 29.4 19.9 29.4 19.7 29 17.8 28.3 14.6 27.7 12.2L27.7 12.1C27.6 11.7 27.5 11.3 27.4 10.9 27.4 10.8 27.3 10.6 27.3 10.5 27.2 10.2 27.1 9.8 27 9.6L28.8 8.9 28.8 9.9C28.9 10.2 29 9.5 29.1 9.8L29.1 9.9C29.3 10.4 29.4 11 29.6 11.6L29.6 11.7C30.6 15.5 31.6 20.9 31.7 21.2L32 22.3Z" fill="#7823DC"/><g><path d="M16.2 21.2C18.5 20.9 20 19.5 20 17.4 20 14.8 18.3 14.1 16.2 13.6L16.2 10C17.1 10.2 17.7 10.9 17.7 11.7L17.8 12.1 19.7 12.1 19.6 11.5C19.3 9.7 18 8.3 16.2 8.2L16.3 8.9 15.3 8.9 14.4 8.2C12.7 8.4 11 9.6 11 11.8 11 14 12.3 14.9 14.4 15.3L14.4 19.5C13.4 19.2 12.6 18.4 12.5 17.3L12.5 17.3 12.5 16.8 10.6 16.8 10.7 17.4C10.9 19.4 12.4 21.2 14.5 21.3M14.4 9.9 14.4 13.2C13.1 12.8 12.9 12.3 12.9 11.5 12.9 10.7 13.6 9.9 14.4 9.9L14.4 9.9 14.4 9.9 14.4 9.9ZM16.2 19.4 16.2 15.6C17.7 15.9 18.1 16.5 18.1 17.5 18.1 18.8 17.2 19.2 16.2 19.4L16.2 19.4 16.2 19.4 16.2 19.4Z" fill="#7823DC" fill-rule="evenodd" clip-rule="evenodd"/><path d="M14.2 6.4 16.3 6.4 16.3 23 14.2 23Z" fill="#7823DC" fill-rule="evenodd" clip-rule="evenodd"/></g></svg>