<svg viewBox="0 0 32 32" xmlns="http://www.w3.org/2000/svg" xmlns:xlink="http://www.w3.org/1999/xlink" id="Layer_1" overflow="hidden"><style>
.MsftOfcResponsive_Fill_7823dc {
 fill:#7823DC; 
}
</style>
<defs></defs><path d="M21.19 16.64C18.41 16.64 16.15 14.47 16.15 11.8 16.15 9.13 18.41 6.96 21.19 6.96 23.97 6.96 26.23 9.13 26.23 11.8 26.23 14.47 23.97 16.64 21.19 16.64ZM21.19 8.96C19.51 8.96 18.15 10.23 18.15 11.8 18.15 13.37 19.51 14.64 21.19 14.64 22.87 14.64 24.23 13.37 24.23 11.8 24.23 10.23 22.87 8.96 21.19 8.96Z" class="MsftOfcResponsive_Fill_7823dc" fill="#7823DC"/><path d="M13.23 18.07C12.41 18.07 11.59 17.76 10.93 17.14L7.7 14.07C7.05 13.46 6.7 12.65 6.7 11.81 6.7 10.97 7.06 10.16 7.7 9.55L15.99 1.69 21.94 7.29 20.57 8.75 16 4.44 9.08 10.99C8.83 11.23 8.7 11.51 8.7 11.8 8.7 12.09 8.83 12.37 9.08 12.61L12.31 15.68C12.85 16.19 13.63 16.19 14.16 15.68L16.91 12.95 18.32 14.37 15.55 17.11C14.88 17.74 14.05 18.06 13.23 18.06Z" class="MsftOfcResponsive_Fill_7823dc" fill="#7823DC"/><path d="M19.46 32 0 32 0 28.81C0 27.05 1.48 25.62 3.31 25.62L15.25 25.62 19.86 30C25.49 29.8 30.01 25.41 30.01 20.04 30.01 16.39 27.92 13.03 24.55 11.27L25.47 9.5C29.5 11.6 32.01 15.64 32.01 20.04 32.01 26.64 26.39 32.01 19.47 32.01ZM2 30 16.96 30 14.45 27.61 3.31 27.61C2.59 27.61 2 28.15 2 28.8L2 29.99Z" class="MsftOfcResponsive_Fill_7823dc" fill="#7823DC"/><path d="M19.46 27.61 14.84 27.61 14.84 25.61 19.46 25.61C22.91 25.61 25.61 23.16 25.61 20.03 25.61 18.17 24.76 16.51 23.27 15.47L24.41 13.83C26.41 15.23 27.61 17.54 27.61 20.03 27.61 24.28 24.03 27.61 19.46 27.61Z" class="MsftOfcResponsive_Fill_7823dc" fill="#7823DC"/><path d="M9.06 20.08 4.4 15.64 7.7 12.5 9.07 13.95 7.3 15.64 9.09 17.35 10.94 15.67 12.29 17.15 9.06 20.08Z" class="MsftOfcResponsive_Fill_7823dc" fill="#7823DC"/><path d="M22.11 7.81 20.73 6.36 21.93 5.22 19.35 2.76 18.07 3.97 16.7 2.52 19.35 0 24.84 5.22 22.11 7.81Z" class="MsftOfcResponsive_Fill_7823dc" fill="#7823DC"/></svg>