<svg viewBox="0 0 32 32" xmlns="http://www.w3.org/2000/svg" xmlns:xlink="http://www.w3.org/1999/xlink" overflow="hidden"><defs></defs><g id="Layer_3"><path d="M16 2.1097 18.18 2.8397C19.5602 3.2986 21.0055 3.5316 22.46 3.5297 23.5654 3.52735 24.6665 3.39307 25.74 3.1297L28 2.5597C28 6.5597 27.81 15.7697 27.06 18.7297 25.74 23.9997 22 26.7797 16 29.6597 10 26.7797 6.26 23.9997 4.94 18.7297 4.19 15.7697 4 6.5397 4 2.5597L6.26 3.1297C7.33352 3.39307 8.43465 3.52735 9.54 3.5297 10.9945 3.5316 12.4398 3.2986 13.82 2.8397L16 2.1097M30-0.0003 25.26 1.1897C24.3441 1.4171 23.4037 1.53129 22.46 1.5297 21.223 1.52821 19.9942 1.32903 18.82 0.9397L16-0.0003 13.18 0.9397C12.0058 1.32903 10.777 1.52821 9.54 1.5297 8.59628 1.53129 7.65592 1.4171 6.74 1.1897L2-0.0003 2 1.9997C2 1.9997 2 15.1797 3 19.2197 4.65 25.7697 9.52 28.8197 15.66 31.7097L16 31.9997 16.34 31.7097C22.48 28.8197 27.34 25.7697 29 19.2197 30 15.1797 30 1.9997 30 1.9997Z" fill="#7823DC"/><path d="M16.007 24.911 14.96 23.863 12.865 25.958 13.912 27.006 16.007 24.911 16.007 24.911Z" fill="#7823DC"/><path d="M16.007 24.911 17.055 23.863 19.15 25.958 18.102 27.006 16.007 24.911 16.007 24.911Z" fill="#7823DC"/><path d="M16.007 27.006 17.055 28.053 19.15 25.958 18.102 24.911 16.007 27.006 16.007 27.006Z" fill="#7823DC"/><path d="M16.007 27.006 14.96 28.053 12.865 25.958 13.912 24.911 16.007 27.006 16.007 27.006Z" fill="#7823DC"/><path d="M16.0068 22.5192C13.0445 22.519 10.6433 20.1173 10.6435 17.155 10.6438 14.1927 13.0455 11.7914 16.0078 11.7917 18.9698 11.792 21.3708 14.193 21.3711 17.155 21.3679 20.1163 18.9681 22.5161 16.0068 22.5192ZM16.0068 13.7917C14.1491 13.792 12.6433 15.2982 12.6435 17.156 12.6438 19.0137 14.15 20.5195 16.0078 20.5192 17.8656 20.519 19.3713 19.0128 19.3711 17.155 19.369 15.298 17.8638 13.7933 16.0068 13.7917Z" fill="#7823DC"/><rect x="13.0253" y="22.3528" width="1.48764" height="2.39511" fill="#7823DC" transform="matrix(0.786664 -0.617382 0.617382 0.786664 -11.6021 13.5249)"/><rect x="17.0386" y="22.8071" width="2.38499" height="1.48136" fill="#7823DC" transform="matrix(0.618546 -0.785749 0.785749 0.618546 -11.5483 23.3075)"/><rect x="7.58947" y="23.3489" width="6.64025" height="2" fill="#7823DC" transform="matrix(0.923626 -0.383295 0.383295 0.923626 -8.49959 6.04121)"/><rect x="15.9104" y="27.5029" width="2.99417" height="2" fill="#7823DC" transform="matrix(6.12323e-17 1 -1 6.12323e-17 45.9104 11.0954)"/><rect x="13.1023" y="27.5029" width="2.99417" height="2" fill="#7823DC" transform="matrix(6.12323e-17 1 -1 6.12323e-17 43.1023 13.9035)"/><rect x="17.7715" y="23.3487" width="6.63919" height="2" fill="#7823DC" transform="matrix(-0.923626 -0.383295 0.383295 -0.923626 31.2386 54.9219)"/><rect x="16.2755" y="24.247" width="2.9721" height="2" fill="#7823DC" transform="matrix(-0.699778 -0.71436 0.71436 -0.699778 12.1552 55.6025)"/><rect x="16.2015" y="25.4874" width="3.47858" height="2" fill="#7823DC" transform="matrix(0.707941 -0.706271 0.706271 0.707941 -13.4675 20.407)"/><rect x="12.7629" y="24.247" width="2.9721" height="2" fill="#7823DC" transform="matrix(0.699778 -0.71436 0.71436 0.699778 -13.7576 17.7586)"/><rect x="12.3304" y="25.4874" width="3.47858" height="2" fill="#7823DC" transform="matrix(-0.707941 -0.706271 0.706271 -0.707941 5.32294 55.1759)"/><path d="M24.867 11.3621C24.492 11.8898 23.8928 12.2129 23.2459 12.2363 21.9401 12.2311 20.8789 10.7713 20.8789 8.97801 20.8789 7.18128 21.9443 5.72029 23.2382 5.71972 23.8878 5.74107 24.4902 6.06463 24.8667 6.59447L24.9714 6.74647 26.4418 6.74647 26.1137 6.2397C25.516 5.21905 24.4358 4.57719 23.2535 4.5403 21.2523 4.5403 19.6242 6.53109 19.6242 8.97798 19.6242 11.4249 21.2523 13.4162 23.2535 13.4162 24.4363 13.3819 25.5173 12.7387 26.1119 11.7157L26.4357 11.2101 24.9718 11.2101Z" fill="#7823DC"/><path d="M23.2539 13.8171C21.0322 13.8171 19.2236 11.6462 19.2236 8.97822 19.2236 6.31122 21.0322 4.14033 23.2539 4.14033 24.5719 4.17605 25.7788 4.88689 26.4492 6.02216L27.1768 7.14716 24.7608 7.14716 24.5371 6.821C24.2323 6.39447 23.7457 6.13477 23.2217 6.11885 22.1768 6.11985 21.2793 7.4294 21.2793 8.97823 21.2793 10.5495 22.1621 11.8317 23.2481 11.8357 23.7633 11.8139 24.2395 11.555 24.5381 11.1345L24.7607 10.8093 27.166 10.8093 26.4492 11.9313C25.7821 13.0704 24.5735 13.7836 23.2539 13.8171ZM23.2539 4.94109C21.4727 4.94109 20.0244 6.75164 20.0244 8.9782 20.0244 11.2048 21.4727 13.0163 23.2539 13.0163 24.2534 12.9851 25.1716 12.4577 25.7022 11.61L25.1816 11.61C24.734 12.2286 24.0266 12.6068 23.2636 12.6354 21.7197 12.6305 20.4785 10.9889 20.4785 8.9782 20.4785 6.9616 21.7168 5.32097 23.2383 5.31902 24.0101 5.34237 24.7276 5.7217 25.1816 6.34636L25.7031 6.34636C25.1707 5.50027 24.253 4.97372 23.2539 4.94111Z" fill="#7823DC"/><rect x="18" y="9.37467" width="5.41976" height="2" fill="#7823DC"/><rect x="18" y="6.56071" width="5.41976" height="2" fill="#7823DC"/></g></svg>