<svg viewBox="0 0 32 32" xmlns="http://www.w3.org/2000/svg" xmlns:xlink="http://www.w3.org/1999/xlink" id="Layer_1" overflow="hidden"><style>
.MsftOfcResponsive_Fill_7823dc {
 fill:#7823DC; 
}
</style>
<g id="Layer_1_00000160157830235988455980000016090380772114234553_" class="st0" display="none"><path d="M66.9 27.4C66.5 25.9 65.1 24.8 63.4 24.8 61.8 24.8 60.5 25.8 60 27.2 60 27.2 60 27.2 60 27.3 59.9 27.6 59.8 28 59.8 28.4 59.8 28.7 59.8 29.1 59.9 29.4 60.3 30.9 61.7 32 63.4 32 65 32 66.4 30.9 66.9 29.4 67 29.1 67 28.7 67 28.4 67 28 67 27.7 66.9 27.4ZM63.4 30C62.9 30 62.4 29.8 62.2 29.4 62 29.1 61.8 28.8 61.8 28.4 61.8 28 61.9 27.7 62.2 27.4 62.5 27 62.9 26.8 63.4 26.8 63.9 26.8 64.3 27 64.6 27.4 64.8 27.7 65 28 65 28.4 65 28.8 64.9 29.1 64.6 29.4 64.3 29.8 63.9 30 63.4 30Z" class="st1 MsftOfcResponsive_Fill_7823dc" fill="#7823DC"/><path d="M48.9 27.4C48.5 25.9 47.1 24.8 45.4 24.8 43.8 24.8 42.4 25.9 41.9 27.4 41.8 27.7 41.8 28 41.8 28.4 41.8 28.7 41.8 29.1 41.9 29.4 42.3 30.9 43.7 32 45.4 32 47 32 48.4 30.9 48.9 29.4 49 29.1 49 28.7 49 28.4 49 28 49 27.7 48.9 27.4ZM45.4 30C44.5 30 43.8 29.3 43.8 28.4 43.8 27.5 44.5 26.8 45.4 26.8 46.3 26.8 47 27.5 47 28.4 47 29.3 46.3 30 45.4 30Z" class="st1 MsftOfcResponsive_Fill_7823dc" fill="#7823DC"/><path d="M60 29.4 48.1 29.4 48.1 27.4 58 27.4 58 24 39 24 39 27.4 42.1 27.4 42.1 29.4 37 29.4 37 22 60 22Z" class="st1 MsftOfcResponsive_Fill_7823dc" fill="#7823DC"/><path d="M53.5 6 50.5 10 37 10 37 19.2 39.4 24 54.8 24 55.3 22 57 15.2 57 11 61 11 61 6 53.5 6ZM59 9 55 9 55 14.9 53.2 22 40.6 22 39 18.8 39 12 51.5 12 54.5 8 59 8 59 9Z" class="st1 MsftOfcResponsive_Fill_7823dc" fill="#7823DC"/><path d="M66.7 12.4 58 12.4 58 29.4 62.2 29.4C62 29.1 61.8 28.8 61.8 28.4 61.8 28 61.9 27.7 62.2 27.4L60 27.4 60 14.4 65.3 14.4 65.5 15 66.2 17 66.9 19 67.1 19.6 67.1 27.4 64.7 27.4C64.9 27.7 65.1 28 65.1 28.4 65.1 28.8 65 29.1 64.7 29.4L69 29.4 69 19.2 66.7 12.4Z" class="st1 MsftOfcResponsive_Fill_7823dc" fill="#7823DC"/><path d="M68 21 62 21 62 15 67 15 67 17 64 17 64 19 68 19Z" class="st1 MsftOfcResponsive_Fill_7823dc" fill="#7823DC"/><rect x="41" y="13" width="2" height="7.9" class="st1 MsftOfcResponsive_Fill_7823dc" fill="#7823DC"/><rect x="44" y="13" width="2" height="7.9" class="st1 MsftOfcResponsive_Fill_7823dc" fill="#7823DC"/><rect x="47" y="13" width="2" height="7.9" class="st1 MsftOfcResponsive_Fill_7823dc" fill="#7823DC"/><rect x="50" y="13" width="2" height="7.9" class="st1 MsftOfcResponsive_Fill_7823dc" fill="#7823DC"/><path d="M18.7 19.4 21.7 9.2 27.7 9.2 28.7 6 16.1 6 14.9 7.9 0 7.9 3.4 17.4 18.7 19.4ZM15.6 9.2 16.8 7.3 27 7.3 26.8 7.9 20.8 7.9 18.1 17.1 16.1 11.7 17.6 11.7 17.6 10.4 14.3 10.4 17 17.9 13.3 17.4 11.2 11.7 12.7 11.7 12.7 10.4 9.6 10.4 12.1 17.2 8.4 16.7 6.6 11.7 8.1 11.7 8.1 10.4 4.8 10.4 7 16.5 4.3 16.1 1.7 9.1 15.6 9.2 15.6 9.2Z" class="st2 MsftOfcResponsive_Fill_7823dc" fill="#7823DC"/><path d="M32 16.1 30.6 16.1 29.3 11.7 23.3 11.7 20.1 21.8 12.7 21.8C11.7 21 10.5 20.5 9.1 20.5 6 20.5 3.4 23.1 3.4 26.2 3.4 29.3 6 31.9 9.1 31.9 12 31.9 14.5 29.7 14.8 26.8L18.7 26.8C19 29.6 21.4 31.9 24.4 31.9 27.5 31.9 30.1 29.3 30.1 26.2 30.1 26.1 30.1 26.1 30.1 26L32 25.4C32 25.4 32 16.1 32 16.1ZM29.3 16.1 27 16.1 27 12.9 28.4 12.9 29.3 16.1ZM13.9 23.1 19.6 23.1C19.1 23.8 18.8 24.7 18.7 25.6L14.8 25.6C14.7 24.7 14.4 23.8 13.9 23.1ZM9.2 30.7C6.8 30.7 4.8 28.7 4.8 26.3 4.8 23.9 6.8 21.9 9.2 21.9 11.6 21.9 13.6 23.9 13.6 26.3 13.6 28.7 11.6 30.7 9.2 30.7ZM24.4 30.7C22 30.7 20 28.7 20 26.3 20 23.9 22 21.9 24.4 21.9 26.8 21.9 28.8 23.9 28.8 26.3 28.8 28.7 26.8 30.7 24.4 30.7ZM30.7 24.5 29.9 24.8C29.3 22.4 27 20.5 24.4 20.5 23.4 20.5 22.4 20.8 21.6 21.2L24.2 12.9 25.6 12.9 25.6 17.3 30.7 17.3C30.7 17.3 30.7 24.5 30.7 24.5Z" class="st2 MsftOfcResponsive_Fill_7823dc" fill="#7823DC"/><path d="M39 23.4C37.5 23.4 36.3 24.6 36.3 26.1 36.3 27.6 37.5 28.8 39 28.8 40.5 28.8 41.7 27.6 41.7 26.1 41.7 24.6 40.5 23.4 39 23.4ZM39 27.5C38.2 27.5 37.6 26.9 37.6 26.1 37.6 25.3 38.2 24.7 39 24.7 39.8 24.7 40.4 25.3 40.4 26.1 40.4 26.9 39.8 27.5 39 27.5Z" class="st1 MsftOfcResponsive_Fill_7823dc" fill="#7823DC"/><path d="M54.4 23.4C52.9 23.4 51.7 24.6 51.7 26.1 51.7 27.6 52.9 28.8 54.4 28.8 55.9 28.8 57.1 27.6 57.1 26.1 57.1 24.6 55.9 23.4 54.4 23.4ZM54.4 27.5C53.6 27.5 53 26.9 53 26.1 53 25.3 53.6 24.7 54.4 24.7 55.2 24.7 55.8 25.3 55.8 26.1 55.8 26.9 55.2 27.5 54.4 27.5Z" class="st1 MsftOfcResponsive_Fill_7823dc" fill="#7823DC"/></g><g id="Layer_2_00000116215132170797342940000016440699430216358530_"><g><path d="M14.7 24.9C14.6 24.3 14.3 23.7 14 23.2 13.5 22.4 12.8 21.7 12 21.2 11.1 20.7 10.1 20.4 9 20.4 5.8 20.4 3.2 23 3.2 26.2 3.2 29.4 5.8 32 9 32 12 32 14.4 29.8 14.8 26.9 14.8 26.7 14.8 26.4 14.8 26.2 14.9 25.8 14.8 25.3 14.7 24.9ZM9.1 30C7 30 5.3 28.3 5.3 26.2 5.3 24.1 7 22.4 9.1 22.4 11.2 22.4 12.9 24.1 12.9 26.2 12.9 28.3 11.2 30 9.1 30Z" class="MsftOfcResponsive_Fill_7823dc" fill="#7823DC"/><path d="M29.7 24.1C28.9 21.9 26.8 20.4 24.3 20.4 23.5 20.4 22.8 20.6 22.1 20.8 20.9 21.3 20 22.1 19.3 23.2 19 23.7 18.8 24.3 18.6 24.9 18.5 25.3 18.5 25.7 18.5 26.2 18.5 26.4 18.5 26.7 18.5 26.9 18.8 29.8 21.3 32 24.3 32 27.5 32 30 29.5 30.1 26.3L30.1 26.2C30.1 25.5 29.9 24.7 29.7 24.1ZM24.3 30C22.4 30 20.9 28.7 20.6 26.9 20.5 26.7 20.5 26.4 20.5 26.2 20.5 25.7 20.6 25.3 20.7 24.9 21.2 23.4 22.6 22.4 24.3 22.4 25.9 22.4 27.3 23.5 27.9 24.9 28 25.3 28.1 25.7 28.1 26.2 28.1 26.4 28.1 26.7 28 26.9 27.7 28.7 26.1 30 24.3 30Z" class="MsftOfcResponsive_Fill_7823dc" fill="#7823DC"/><path d="M19.8 24.4C19.6 24.8 19.6 25.2 19.6 25.7 19.6 25.9 19.6 26.2 19.7 26.4L14 26.4 14 24.4 19.8 24.4Z" class="MsftOfcResponsive_Fill_7823dc" fill="#7823DC"/><path d="M32 15 32 24.3 30.1 25.8 29.3 26.4 29 26.4C29.1 26.2 29.1 25.9 29.1 25.7 29.1 25.2 29 24.8 28.9 24.4L28.7 24.4 29.8 23.6 30.1 23.4 30.1 17 28.2 17 27.2 12.5 23.4 12.5 22 20.3 21.6 22.7 11 22.7 10 20.7 19.6 20.7 21.5 10.5 28.7 10.5 29.7 15C29.7 15 32 15 32 15Z" class="MsftOfcResponsive_Fill_7823dc" fill="#7823DC"/><path d="M31.3 17.4 24 17.4 24 11.4 26 11.4 26 15.4 31.3 15.4Z" class="MsftOfcResponsive_Fill_7823dc" fill="#7823DC"/><path d="M26.5 6.4 26.3 7.4 21.5 7.4 20 7.4 19.6 8.8 16.9 18.1 4.9 17.2 2.7 8.9 16.1 8.9 17.4 8.9 17.9 7.7 18.5 6.4 26.5 6.4M29 4.4 17.2 4.4 16.1 6.9 0 6.9 3.2 19 18.2 20.4 21.4 9.4 27.8 9.4 29 4.4 29 4.4Z" class="MsftOfcResponsive_Fill_7823dc" fill="#7823DC"/><g><path d="M9.1 3.4C10.2 3.4 11.1 3.8 11.6 4.3L11.7 4.5 11.9 4.5C13 4.5 13.9 4.9 14.4 5.4L14.5 5.7 14.9 5.7C16.1 5.9 17 6.5 17 7.2 17 8.1 15.8 8.7 14.3 8.7 13.2 8.7 12.3 8.3 11.8 7.8L11.7 7.5 11.6 7.5 11.5 7.8C11.1 8.4 10.1 8.8 9 8.8 7.9 8.8 7 8.4 6.5 7.9L6.4 7.6 6.3 7.8C5.9 8.4 5 8.8 3.9 8.8 2.4 8.8 1.2 8.1 1.2 7.3 1.2 6.5 2.4 5.8 3.9 5.8L4.1 5.8 4.2 5.5C4.5 5 5.3 4.7 6.1 4.6L6.6 4.6 6.7 4.4C7 3.8 8 3.4 9.1 3.4L9.1 3.4 9.1 3.4 9.1 3.4Z" class="st3 MsftOfcResponsive_Fill_7823dc" fill="#7823DC" fill-rule="evenodd" clip-rule="evenodd"/></g><path d="M24.3 28.7C22.9 28.7 21.8 27.6 21.8 26.2 21.8 24.8 22.9 23.7 24.3 23.7 25.7 23.7 26.8 24.8 26.8 26.2 26.8 27.6 25.7 28.7 24.3 28.7ZM24.3 25.7C24 25.7 23.8 25.9 23.8 26.2 23.8 26.5 24 26.7 24.3 26.7 24.6 26.7 24.8 26.5 24.8 26.2 24.8 25.9 24.6 25.7 24.3 25.7Z" class="MsftOfcResponsive_Fill_7823dc" fill="#7823DC"/><path d="M9.1 28.7C7.7 28.7 6.6 27.6 6.6 26.2 6.6 24.8 7.7 23.7 9.1 23.7 10.5 23.7 11.6 24.8 11.6 26.2 11.6 27.6 10.5 28.7 9.1 28.7ZM9.1 25.7C8.8 25.7 8.6 25.9 8.6 26.2 8.6 26.5 8.8 26.7 9.1 26.7 9.4 26.7 9.6 26.5 9.6 26.2 9.6 25.9 9.4 25.7 9.1 25.7Z" class="MsftOfcResponsive_Fill_7823dc" fill="#7823DC"/></g><rect x="5.5" y="10" width="2" height="6" class="MsftOfcResponsive_Fill_7823dc" fill="#7823DC"/><rect x="10" y="10" width="2" height="6" class="MsftOfcResponsive_Fill_7823dc" fill="#7823DC"/><rect x="14.5" y="10" width="2" height="6" class="MsftOfcResponsive_Fill_7823dc" fill="#7823DC"/></g></svg>