<svg viewBox="0 0 32 32" xmlns="http://www.w3.org/2000/svg" xmlns:xlink="http://www.w3.org/1999/xlink" id="Graphic" overflow="hidden"><style>
.MsftOfcResponsive_Fill_7823dc {
 fill:#7823DC; 
}
</style>
<defs></defs><path d="M18.6076 11.5684C18.0345 12.449 17.0731 13.0005 16.0236 13.0508 13.942 13.042 12.2506 10.5664 12.2506 7.52539 12.2506 4.47852 13.9489 2.00098 16.0114 2 17.0652 2.0468 18.0318 2.59917 18.6071 3.4834L18.7741 3.74121 21.1178 3.74121 20.5948 2.88184C19.6928 1.18155 17.9586 0.0853337 16.0358-9.38416e-09 12.8459 0 10.2506 3.376 10.2506 7.52539 10.2506 11.6748 12.8459 15.0518 16.0358 15.0518 17.9597 14.9706 19.6953 13.8721 20.592 12.168L21.1081 11.3106 18.7746 11.3106Z" class="MsftOfcResponsive_Fill_7823dc" fill="#7823DC"/><rect x="8.07531" y="4.00488" width="8.09033" height="2.00098" class="MsftOfcResponsive_Fill_7823dc" fill="#7823DC"/><rect x="8.07531" y="7.99325" width="8.09033" height="2.00098" class="MsftOfcResponsive_Fill_7823dc" fill="#7823DC"/><path d="M23.133 18.0785C23.3365 18.0785 23.545 18.0835 23.7601 18.0922 24.9681 18.198 26.1667 18.3919 27.3464 18.6722 27.018 19.8395 26.6048 20.9812 26.1102 22.0884 25.5067 23.5184 24.4224 24.6925 23.0448 25.4077 22.3039 25.8018 21.4763 26.0048 20.637 25.9983 19.3375 25.98 18.0811 25.5294 17.066 24.7178 16.635 22.5688 17.5449 20.3723 19.3693 19.1576 20.4791 18.411 21.7962 18.0334 23.133 18.0785M23.133 16.0785C21.4243 16.0339 19.743 16.5151 18.3166 17.457 15.5878 19.2733 14.3415 22.642 15.2311 25.797 16.694 27.1816 18.6231 27.9671 20.6371 27.9983 21.8173 28.004 22.9802 27.7138 24.0194 27.1543 25.7442 26.243 27.1103 24.7752 27.8957 22.9895 28.6884 21.1136 29.338 19.1804 29.839 17.2064 27.8704 16.6848 25.8651 16.3128 23.8404 16.0937 23.5979 16.084 23.3626 16.0785 23.1331 16.0785Z" class="MsftOfcResponsive_Fill_7823dc" fill="#7823DC"/><path d="M8.86716 18.0785C10.2039 18.0334 11.5209 18.411 12.6307 19.1576 14.4551 20.3723 15.365 22.5688 14.934 24.7178 13.9189 25.5294 12.6625 25.98 11.3629 25.9983 10.5237 26.0048 9.69607 25.8018 8.95509 25.4077 7.57754 24.6925 6.49325 23.5183 5.88975 22.0883 5.39515 20.9812 4.98199 19.8395 4.65357 18.6723 5.83334 18.3919 7.032 18.198 8.24 18.0922 8.45494 18.0835 8.66352 18.0785 8.86714 18.0785M8.86695 16.0785C8.63743 16.0785 8.40211 16.084 8.15965 16.0938 6.1349 16.3128 4.12963 16.6848 2.161 17.2064 2.66201 19.1804 3.31164 21.1136 4.10431 22.9895 4.88971 24.7752 6.25579 26.243 7.98065 27.1543 9.01985 27.7138 10.1827 28.004 11.3629 27.9983 13.3769 27.9671 15.306 27.1816 16.7689 25.797 17.6586 22.642 16.4123 19.2733 13.6834 17.457 12.257 16.5151 10.5758 16.0339 8.867 16.0785Z" class="MsftOfcResponsive_Fill_7823dc" fill="#7823DC"/><rect x="14.9687" y="13.0195" width="2.00009" height="18.9805" class="MsftOfcResponsive_Fill_7823dc" fill="#7823DC"/></svg>