<svg viewBox="0 0 32 32" xmlns="http://www.w3.org/2000/svg" xmlns:xlink="http://www.w3.org/1999/xlink" id="Layer_1" overflow="hidden"><style>
.MsftOfcResponsive_Fill_7823dc {
 fill:#7823DC; 
}
</style>
<defs></defs><path d="M28.15 5.58C25.94 3.01 22.98 1.23 19.74 0.45 19.47 0.39 19.2 0.33 18.92 0.28 18.66 0.23 18.4 0.18 18.13 0.15 17.82 0.11 17.51 0.07 17.19 0.05 16.94 0.03 16.68 0.02 16.43 0.01L16.24 0.01C16.07 1.56125e-17 15.89 1.56125e-17 15.73 0.01L15.54 0.01C11.05 0.14 6.79 2.17 3.85 5.58 1.37 8.47 0 12.17 0 16 0 19.83 1.37 23.52 3.85 26.41 6.79 29.84 11.05 31.87 15.54 31.99L15.74 31.99C15.83 31.99 15.92 31.99 16 31.99 16.08 31.99 16.16 31.99 16.23 31.99L16.43 31.99C20.92 31.88 25.19 29.85 28.15 26.41 30.63 23.52 32 19.82 32 16 32 12.18 30.63 8.47 28.15 5.58ZM26.63 25.11C26.15 25.67 25.62 26.2 25.06 26.67 24.87 26.83 24.68 26.98 24.48 27.13 24.11 27.41 23.74 27.67 23.35 27.91 22.91 28.18 22.46 28.43 22 28.64 21.78 28.74 21.56 28.84 21.33 28.93 21.12 29.02 20.91 29.1 20.7 29.18 22.52 27.7 24.03 25.85 25.11 23.73 25.91 22.17 26.46 20.52 26.74 18.81 26.41 18.93 26.06 19 25.69 19 25.34 19 25.01 18.94 24.7 18.84 24.44 20.22 23.98 21.55 23.33 22.82 21.76 25.91 19.16 28.35 15.99 29.74 13.94 28.85 12.13 27.51 10.69 25.85 10.21 26.18 9.63 26.38 9 26.38 8.83 26.38 8.67 26.38 8.51 26.34 9.31 27.39 10.23 28.34 11.25 29.17 11.08 29.11 10.91 29.05 10.75 28.98 9.27 28.38 7.9 27.53 6.7 26.47 6.41 26.21 6.13 25.94 5.86 25.66 5.69 25.47 5.53 25.29 5.37 25.11 5.23 24.95 5.1 24.79 4.98 24.63 4.59 24.14 4.24 23.62 3.93 23.09 3.82 22.91 3.72 22.73 3.63 22.55 3.54 22.39 3.46 22.23 3.38 22.06 3.02 21.32 2.73 20.54 2.51 19.74 2.41 19.39 2.33 19.03 2.26 18.66 2.19 18.3 2.13 17.93 2.09 17.56 2.07 17.37 2.05 17.19 2.04 17L5.03 17C5.14 18.82 5.53 20.61 6.2 22.28 6.49 21.56 7.04 20.98 7.74 20.65 7.35 19.47 7.12 18.24 7.04 17L22.87 17C22.75 16.69 22.69 16.35 22.69 16 22.69 15.65 22.75 15.31 22.87 15L7.04 15C7.12 13.64 7.39 12.32 7.84 11.05 7.14 10.84 6.55 10.37 6.18 9.77 5.52 11.44 5.13 13.19 5.03 15L2.04 15C2.05 14.81 2.07 14.63 2.09 14.44 2.13 14.07 2.19 13.7 2.26 13.34 2.32 12.99 2.4 12.65 2.49 12.31 2.98 10.52 3.82 8.84 4.98 7.37 5.1 7.21 5.23 7.05 5.37 6.89 5.53 6.71 5.69 6.53 5.86 6.35 6.02 6.17 6.2 6 6.37 5.84 6.48 5.74 6.59 5.63 6.71 5.53 7.88 4.5 9.21 3.67 10.64 3.08 10.84 3 11.03 2.92 11.23 2.85 10.37 3.55 9.58 4.34 8.87 5.2 9.61 5.23 10.3 5.54 10.8 6.02 12.23 4.42 13.99 3.13 15.98 2.27 19.17 3.65 21.76 6.1 23.33 9.19 23.98 10.46 24.44 11.79 24.7 13.17 25.01 13.06 25.34 13 25.69 13 26.06 13 26.41 13.07 26.74 13.2 26.46 11.49 25.91 9.84 25.11 8.28 24.03 6.15 22.53 4.3 20.7 2.82 20.88 2.88 21.06 2.95 21.23 3.02 23.29 3.85 25.15 5.17 26.63 6.88 28.58 9.16 29.75 12.01 29.96 15L28.51 15C28.63 15.31 28.69 15.65 28.69 16 28.69 16.35 28.63 16.69 28.51 17L29.96 17C29.75 19.99 28.58 22.83 26.63 25.11Z" class="MsftOfcResponsive_Fill_7823dc" fill="#7823DC"/><path d="M9 21.38C8.67 21.38 8.36 21.46 8.09 21.6 7.44 21.93 7 22.6 7 23.38 7 24.48 7.89 25.38 9 25.38 9.38 25.38 9.74 25.27 10.05 25.07 10.62 24.73 11 24.1 11 23.38 11 22.27 10.1 21.38 9 21.38Z" class="MsftOfcResponsive_Fill_7823dc" fill="#7823DC"/><path d="M26.89 14.41C26.55 14.15 26.13 14 25.68 14 25.39 14 25.11 14.06 24.86 14.18 24.48 14.35 24.16 14.64 23.96 15 23.78 15.29 23.68 15.64 23.68 16 23.68 16.36 23.78 16.71 23.96 17 24.16 17.37 24.48 17.65 24.86 17.83 25.11 17.94 25.39 18 25.68 18 26.13 18 26.55 17.85 26.89 17.6 27.1 17.44 27.28 17.24 27.41 17 27.58 16.71 27.68 16.36 27.68 16 27.68 15.64 27.58 15.29 27.41 15 27.28 14.77 27.1 14.57 26.89 14.41Z" class="MsftOfcResponsive_Fill_7823dc" fill="#7823DC"/><path d="M8.73 6.19C8.48 6.19 8.24 6.23 8.02 6.32 7.26 6.6 6.73 7.33 6.73 8.19 6.73 8.29 6.74 8.39 6.75 8.49 6.87 9.28 7.45 9.91 8.2 10.12 8.37 10.17 8.55 10.19 8.73 10.19 9.83 10.19 10.73 9.29 10.73 8.19 10.73 7.64 10.52 7.15 10.16 6.79 9.8 6.42 9.29 6.19 8.73 6.19Z" class="MsftOfcResponsive_Fill_7823dc" fill="#7823DC"/></svg>