<svg viewBox="0 0 32 32" xmlns="http://www.w3.org/2000/svg" xmlns:xlink="http://www.w3.org/1999/xlink" id="Layer_1" overflow="hidden"><g><path d="M16 22C12.7 22 10 19.3 10 15.9 10 12.6 12.7 9.8 16 9.8 19.3 9.8 22 12.5 22 15.9 22 19.3 19.3 22 16 22L16 22ZM16 11.9C13.8 11.9 12 13.7 12 15.9 12 18.1 13.8 19.9 16 19.9 18.2 19.9 20 18.1 20 15.9 20 13.8 18.3 11.9 16 11.9L16 11.9Z" fill="#7823DC" fill-rule="evenodd" clip-rule="evenodd"/><path d="M32 12.5C28.4 7.2 22.4 4.1 16.1 4 9.6 4 3.6 7.2 0 12.5L0 16C4.3 7.2 15 3.5 23.8 7.8 27.4 9.6 30.3 12.4 32 16L32 12.5 32 12.5 32 12.5Z" fill="#7823DC" fill-rule="evenodd" clip-rule="evenodd"/><path d="M0 19.5C3.6 24.8 9.6 27.9 16 28 22.4 27.9 28.4 24.8 31.9 19.5L31.9 16C27.6 24.8 16.9 28.5 8.2 24.2 4.6 22.5 1.7 19.6 0 16L0 19.5 0 19.5 0 19.5Z" fill="#7823DC" fill-rule="evenodd" clip-rule="evenodd"/></g></svg>