<svg viewBox="0 0 32 32" xmlns="http://www.w3.org/2000/svg" xmlns:xlink="http://www.w3.org/1999/xlink" overflow="hidden"><style>
.MsftOfcResponsive_Fill_7823dc {
 fill:#7823DC; 
}
</style>
<defs></defs><g id="Layer_3"><path d="M21.1683 7.98022C21.6809 7.9803 22.1876 8.08932 22.6549 8.30005 22.704 8.32205 22.7537 8.34191 22.804 8.35962L29.9835 11.6836 29.9835 13.0977C29.9835 13.1696 29.9874 13.2415 29.9951 13.313L29.9951 17.2344C23.8307 24.953 12.5763 26.2129 4.85768 20.0485 3.80005 19.2038 2.84172 18.2418 2.0011 17.181L2.0011 13.2504C2.0049 13.2 2.00681 13.149 2.00684 13.0977L2.00684 11.6654 9.14633 8.36C9.19688 8.34205 9.24688 8.32207 9.29633 8.30006 11.1307 7.47589 13.2859 8.29484 14.1101 10.1292 14.1196 10.1503 14.1288 10.1714 14.1379 10.1926 14.5737 11.2076 15.7497 11.6771 16.7647 11.2413 17.2357 11.0391 17.6111 10.6637 17.8134 10.1926 18.3881 8.85019 19.708 7.9798 21.1683 7.98023M21.1683 5.98023C18.9086 5.98034 16.8663 7.32678 15.9756 9.40357 14.7506 6.53884 11.4353 5.20957 8.57055 6.43455 8.54013 6.44756 8.50981 6.46084 8.47962 6.47438L8.47932 6.46485 0.00684 10.3875 0.00684 13.0977 0.0011 13.0977 0.0011 17.8588C6.51188 26.7054 18.9615 28.5989 27.8081 22.0882 29.4038 20.9138 30.815 19.5076 31.9951 17.9161L31.9951 13.0977 31.9835 13.0977 31.9835 10.4057 23.4718 6.46486 23.4715 6.47439C22.7473 6.14892 21.9623 5.98051 21.1683 5.98024Z" class="MsftOfcResponsive_Fill_7823dc" fill="#7823DC"/><path d="M15.9888 18.1074C10.5036 18.1258 5.10719 16.7231 0.3252 14.0361L1.31641 12.2998C10.2261 17.3828 21.856 17.3877 30.2573 12.3125L31.2915 14.0234C26.6547 16.7459 21.3655 18.1575 15.9888 18.1074Z" class="MsftOfcResponsive_Fill_7823dc" fill="#7823DC"/></g></svg>