<svg width="36.5" height="36.5" viewBox="0 0 36.5 36.5" xmlns="http://www.w3.org/2000/svg" xmlns:xlink="http://www.w3.org/1999/xlink" overflow="hidden"><defs></defs><g><g><defs><path d="M0 36.5 36.5 36.5 36.5 0 0 0 0 36.5Z" id="SVGID_1_" fill="#7823DC"/></defs><clipPath id="SVGID_2_"><use width="100%" height="100%" xlink:href="#SVGID_1_"></use></clipPath><g clip-path="url(#SVGID_2_)"><defs><path d="M0 36.5 36.5 36.5 36.5 0 0 0 0 36.5Z" id="SVGID_3_" fill="#7823DC"/></defs><clipPath id="SVGID_4_"><use width="100%" height="100%" xlink:href="#SVGID_3_"></use></clipPath><path d="M18.2 16.1C14.4 16.1 11.4 13 11.4 9.2 11.4 5.4 14.5 2.3 18.2 2.3 21.9 2.3 25 5.4 25 9.2 25 13 22 16.1 18.2 16.1ZM18.2 4.6C15.7 4.6 13.6 6.7 13.6 9.2 13.6 11.7 15.6 13.8 18.2 13.8 20.8 13.8 22.8 11.7 22.8 9.2 22.8 6.7 20.8 4.6 18.2 4.6Z" fill="#7823DC" clip-path="url(#SVGID_4_)"/><path d="M19.4 6.4C18.5 6.4 17.7 7.2 17.7 8.1 17.7 9 18.5 9.8 19.4 9.8 20.3 9.8 21.1 9 21.1 8.1 21.1 7.2 20.3 6.4 19.4 6.4L19.4 6.4Z" fill="#7823DC" clip-path="url(#SVGID_4_)"/><path d="M19.4 32 17.1 34.3 17.1 14.9 19.4 14.9 19.4 32 19.4 32Z" fill="#7823DC" clip-path="url(#SVGID_4_)"/></g></g></g></svg>