<svg viewBox="0 0 32 32" xmlns="http://www.w3.org/2000/svg" xmlns:xlink="http://www.w3.org/1999/xlink" xml:space="preserve" overflow="hidden"><style>
.MsftOfcResponsive_Fill_7823dc {
 fill:#7823DC; 
}
</style>
<g id="Layer_3"></g><g id="Layer_1"><path d="M27.76 32 4.24 32 4.24 13.52C3.33 13.36 2.08 12.96 1.14 11.95 0.21 10.94-0.17 9.6 0.01 7.96 0.01 7.92 0.72 0.07 12.82 0.01L19.02 0.01C30.81 0.01 31.9 7.35 31.97 7.96L31.97 7.96C32.15 9.6 31.77 10.95 30.84 11.95 29.91 12.96 28.66 13.36 27.75 13.52L27.75 32ZM6.54 29.71 25.47 29.71 25.47 11.29 26.65 11.32C26.66 11.34 28.31 11.34 29.18 10.38 29.64 9.87 29.81 9.16 29.71 8.19L29.71 8.16C29.67 7.88 29 2.29 19.03 2.29L12.84 2.29C2.95 2.34 2.32 7.93 2.3 8.17 2.19 9.16 2.37 9.88 2.83 10.38 3.7 11.34 5.35 11.32 5.37 11.32L6.53 11.3 6.54 12.46 6.54 29.71Z" class="st1 MsftOfcResponsive_Fill_7823dc" fill="#7823DC"/><rect x="8.93" y="15.33" width="14.71" height="2.29" class="st1 MsftOfcResponsive_Fill_7823dc" fill="#7823DC" transform="matrix(0.6115 -0.7912 0.7912 0.6115 -6.7123 19.2891)"/><rect x="15.67" y="18.71" width="8.54" height="2.29" class="st1 MsftOfcResponsive_Fill_7823dc" fill="#7823DC" transform="matrix(0.6115 -0.7912 0.7912 0.6115 -7.9656 23.4974)"/><rect x="7.78" y="12.62" width="8.54" height="2.29" class="st1 MsftOfcResponsive_Fill_7823dc" fill="#7823DC" transform="matrix(0.6115 -0.7912 0.7912 0.6115 -6.2057 14.8846)"/></g><g id="Layer_2"></g></svg>