<svg viewBox="0 0 369.89 363.47" xmlns="http://www.w3.org/2000/svg" xmlns:xlink="http://www.w3.org/1999/xlink" id="Layer_2" overflow="hidden"><style>
.MsftOfcResponsive_Fill_7823dc {
 fill:#7823DC; 
}
</style>
<defs></defs><path d="M451.29 406C443.434 405.989 435.86 408.93 430.07 414.24L388.61 390.3C391.955 379.312 393.64 367.886 393.61 356.4 393.61 356.04 393.61 355.69 393.61 355.33L393.68 355.33 393.68 351.47 421.52 351.47 421.52 351.29 441.12 327.29C457.568 332.906 475.455 324.126 481.071 307.678 486.687 291.23 477.907 273.343 461.459 267.727 445.011 262.11 427.124 270.891 421.508 287.339 418.641 295.736 419.451 304.953 423.74 312.72L410.62 328.77 393.69 328.77 393.69 283.33 393.53 283.33 393.53 267.66C389.211 267.631 384.936 266.786 380.93 265.17L409.32 233.35C425.74 239.015 443.643 230.296 449.307 213.876 454.972 197.456 446.253 179.554 429.833 173.889 413.414 168.224 395.511 176.943 389.846 193.363 386.954 201.747 387.736 210.963 392 218.74L363.9 250.24C360.964 245.077 359.424 239.239 359.43 233.3 359.43 233 359.43 232.7 359.43 232.4L295.56 232.4 259.37 191.84 259.13 192.06 219.37 192.06C212.843 175.964 194.503 168.206 178.407 174.734 162.31 181.261 154.553 199.601 161.08 215.697 167.607 231.793 185.947 239.551 202.044 233.023 210.254 229.694 216.68 223.055 219.74 214.74L249.41 214.74 265.17 232.4 236 232.4C236 232.7 236 233 236 233.3 235.995 252.189 220.748 267.534 201.86 267.66L201.86 292.86 176.36 292.86 175.09 291.86 174.24 292.86 174.1 292.86 174.1 293 154.5 317C138.044 311.372 120.142 320.149 114.514 336.604 108.885 353.06 117.663 370.962 134.118 376.591 150.574 382.219 168.476 373.442 174.104 356.986 176.883 348.863 176.224 339.956 172.28 332.33L186 315.54 201.91 315.54 201.91 355.33 202 355.33C202 355.69 202 356.04 202 356.4 201.97 367.886 203.655 379.312 207 390.3L165.54 414.24C152.713 402.521 132.814 403.419 121.094 416.246 109.375 429.073 110.273 448.972 123.1 460.692 135.927 472.411 155.826 471.513 167.546 458.686 172.842 452.889 175.779 445.322 175.78 437.47 175.78 436.47 175.73 435.54 175.64 434.59L216 411.3C220.987 420.265 227.405 428.354 235 435.25L202 474.49C185.631 468.663 167.638 477.208 161.811 493.577 155.984 509.945 164.529 527.939 180.898 533.766 197.266 539.593 215.26 531.048 221.087 514.679 224.06 506.327 223.371 497.108 219.19 489.29L253.25 448.85 278.25 466.48 278.25 466.48 297.88 480.38 297.88 480.38 298 480.46 317.54 466.46 317.54 466.46 355.22 439.84 355.22 439.78C356.74 438.627 358.227 437.417 359.68 436.15L370.9 442.63 369.53 473.9C352.832 478.703 343.189 496.132 347.991 512.83 352.794 529.528 370.224 539.171 386.922 534.369 403.62 529.566 413.263 512.136 408.46 495.439 405.996 486.872 400.014 479.753 392 475.85L394 429.95 393.86 429.95 393.86 429.85 374.86 418.85C376.52 416.43 378.087 413.913 379.56 411.3L420 434.59C419.92 435.59 419.87 436.49 419.87 437.47 419.87 454.85 433.96 468.94 451.34 468.94 468.72 468.94 482.81 454.85 482.81 437.47 482.81 420.09 468.72 406 451.34 406 451.323 406 451.307 406 451.29 406ZM451.29 286.86C457.183 286.854 461.964 291.627 461.97 297.52 461.976 303.413 457.203 308.194 451.31 308.2 445.417 308.206 440.636 303.433 440.63 297.54 440.63 297.537 440.63 297.533 440.63 297.53 440.63 291.641 445.401 286.865 451.29 286.86ZM190.2 214.53C184.307 214.53 179.53 209.753 179.53 203.86 179.53 197.967 184.307 193.19 190.2 193.19 196.093 193.19 200.87 197.967 200.87 203.86 200.87 203.863 200.87 203.867 200.87 203.87 200.864 209.759 196.089 214.53 190.2 214.53ZM144.33 357.47C138.437 357.47 133.66 352.693 133.66 346.8 133.66 340.907 138.437 336.13 144.33 336.13 150.223 336.13 155 340.907 155 346.8 155 352.693 150.223 357.47 144.33 357.47ZM144.33 448.13C138.437 448.13 133.66 443.353 133.66 437.46 133.66 431.567 138.437 426.79 144.33 426.79 150.223 426.79 155 431.567 155 437.46 155 437.463 155 437.467 155 437.47 155 443.357 150.227 448.13 144.34 448.13 144.337 448.13 144.333 448.13 144.33 448.13ZM419.56 192.93C425.453 192.93 430.23 197.707 430.23 203.6 430.23 209.493 425.453 214.27 419.56 214.27 413.667 214.27 408.89 209.493 408.89 203.6 408.89 197.707 413.667 192.93 419.56 192.93ZM191.4 514.8C185.507 514.8 180.73 510.023 180.73 504.13 180.73 498.237 185.507 493.46 191.4 493.46 197.293 493.46 202.07 498.237 202.07 504.13 202.07 510.023 197.293 514.8 191.4 514.8ZM297.81 452.59 255.09 422.41 255.09 422.36C236.81 409.13 224.5 384.46 224.5 356.2 224.5 355.91 224.5 355.62 224.5 355.33L224.56 355.33 224.56 285.67C238.118 279.721 248.849 268.76 254.51 255.08L340.9 255.08C346.586 268.813 357.376 279.807 371 285.75L371 355.33 371.06 355.33C371.06 355.62 371.06 355.91 371.06 356.2 371.06 384.46 358.75 409.13 340.46 422.36L340.46 422.41ZM378.23 514.8C372.337 514.805 367.556 510.033 367.55 504.14 367.544 498.247 372.317 493.466 378.21 493.46 384.103 493.454 388.884 498.227 388.89 504.12 388.89 504.123 388.89 504.127 388.89 504.13 388.89 510.019 384.119 514.794 378.23 514.8ZM451.29 448.13C445.397 448.108 440.638 443.313 440.66 437.42 440.682 431.527 445.477 426.768 451.37 426.79 457.251 426.812 462.005 431.589 462 437.47 462 443.357 457.228 448.13 451.34 448.13 451.323 448.13 451.307 448.13 451.29 448.13Z" class="MsftOfcResponsive_Fill_7823dc" fill="#7823DC" transform="translate(-112.87 -172.13)"/><path d="M333.2 303.53 333.3 303.53 333.3 303.53C333.3 285.084 318.346 270.13 299.9 270.13 281.454 270.13 266.5 285.084 266.5 303.53L266.5 303.53 266.56 303.53 266.56 322.2 259.47 322.2 259.47 407.68 339.4 407.68 339.4 322.2 333.2 322.2ZM289.9 303.53 289.9 303.53C289.9 297.847 294.507 293.24 300.19 293.24 305.873 293.24 310.48 297.847 310.48 303.53L310.48 303.53 310.48 322.2 289.9 322.2ZM316.72 385 282.15 385 282.15 344.88 316.72 344.88Z" class="MsftOfcResponsive_Fill_7823dc" fill="#7823DC" transform="translate(-112.87 -172.13)"/></svg>