<svg viewBox="0 0 32 32.01" xmlns="http://www.w3.org/2000/svg" xmlns:xlink="http://www.w3.org/1999/xlink" id="Layer_1" overflow="hidden"><style>
.MsftOfcResponsive_Fill_7823dc {
 fill:#7823DC; 
}
</style>
<path d="M26 32.01 0 32.01 0 7.93C0 3.56 3.14 0 7 0L19 0C22.86 0 26 3.55 26 7.92L26 32ZM2 30.01 24 30.01 24 7.93C24 4.66 21.76 2.01 19 2.01L7 2.01C4.24 2.01 2 4.67 2 7.93L2 30.01Z" class="MsftOfcResponsive_Fill_7823dc" fill="#7823DC"/><g><path d="M18 20.01 8 20.01 8 8.01 18 8.01 18 20.01ZM10 18.01 16 18.01 16 10.01 10 10.01 10 18.01Z" class="MsftOfcResponsive_Fill_7823dc" fill="#7823DC"/><path d="M10 20.01 0 20.01 0 8.01 10 8.01 10 20.01ZM2 18.01 8 18.01 8 10.01 2 10.01 2 18.01Z" class="MsftOfcResponsive_Fill_7823dc" fill="#7823DC"/><path d="M26 20.01 16 20.01 16 8.01 26 8.01 26 20.01ZM18 18.01 24 18.01 24 10.01 18 10.01 18 18.01Z" class="MsftOfcResponsive_Fill_7823dc" fill="#7823DC"/></g><path d="M28.99 6.03C27.33 6.03 25.98 4.68 25.98 3.02 25.98 1.36 27.33 0.01 28.99 0.01 30.65 0.01 32 1.36 32 3.02 32 4.68 30.65 6.03 28.99 6.03ZM28.99 2C28.43 2 27.98 2.46 27.98 3.01 27.98 3.56 28.44 4.02 28.99 4.02 29.54 4.02 30 3.56 30 3.01 30 2.46 29.54 2 28.99 2Z" class="MsftOfcResponsive_Fill_7823dc" fill="#7823DC"/><path d="M29.99 18.12 24.96 18.12 24.96 16.12 27.99 16.12 27.99 5.03 29.99 5.03 29.99 18.12Z" class="MsftOfcResponsive_Fill_7823dc" fill="#7823DC"/><path d="M10 28.01 4 28.01 4 22.01 10 22.01 10 28.01ZM6 26.01 8 26.01 8 24.01 6 24.01 6 26.01Z" class="MsftOfcResponsive_Fill_7823dc" fill="#7823DC"/><rect x="13.95" y="24.01" width="6" height="2" class="MsftOfcResponsive_Fill_7823dc" fill="#7823DC"/></svg>