<svg viewBox="0 0 32 32" xmlns="http://www.w3.org/2000/svg" xmlns:xlink="http://www.w3.org/1999/xlink" id="Layer_1" overflow="hidden"><style>
.MsftOfcResponsive_Fill_7823dc {
 fill:#7823DC; 
}
</style>
<defs></defs><path d="M5.73 16.77 4.45 15.23 5.11 14.68C7.77 12.81 11.24 13.09 13.44 15.29L12.03 16.7C10.52 15.19 8.12 15.01 6.33 16.27L5.74 16.77Z" class="MsftOfcResponsive_Fill_7823dc" stroke-width="0" fill="#7823DC"/><g><path d="M16 28C9.38 28 4 22.62 4 16.01 4 9.4 9.38 4.02 16 4.02 22.62 4.02 28 9.4 28 16.01 28 22.62 22.62 28 16 28ZM16 6.02C10.49 6.02 6 10.5 6 16.01 6 21.52 10.49 26 16 26 21.51 26 26 21.52 26 16.01 26 10.5 21.51 6.02 16 6.02Z" class="MsftOfcResponsive_Fill_7823dc" stroke-width="0" fill="#7823DC"/><path d="M16 20.31C13.63 20.31 11.7 18.38 11.7 16.01 11.7 13.64 13.63 11.71 16 11.71 18.37 11.71 20.3 13.64 20.3 16.01 20.3 18.38 18.37 20.31 16 20.31ZM16 13.71C14.73 13.71 13.7 14.74 13.7 16.01 13.7 17.28 14.73 18.31 16 18.31 17.27 18.31 18.3 17.28 18.3 16.01 18.3 14.74 17.27 13.71 16 13.71Z" class="MsftOfcResponsive_Fill_7823dc" stroke-width="0" fill="#7823DC"/><path d="M15.32 13.4 13.38 12.91C13.92 10.76 12.88 8.61 10.86 7.69L10.11 7.37 10.9 5.53 11.67 5.86C14.56 7.17 16.09 10.34 15.33 13.4Z" class="MsftOfcResponsive_Fill_7823dc" stroke-width="0" fill="#7823DC"/><path d="M9.51 25.7 9.4 24.82C9 21.65 11.03 18.67 14.11 17.9L14.59 19.84C12.49 20.36 11.11 22.4 11.38 24.57L11.49 25.45 9.51 25.7Z" class="MsftOfcResponsive_Fill_7823dc" stroke-width="0" fill="#7823DC"/><path d="M21.11 26.49 20.34 26.16C17.45 24.85 15.92 21.68 16.68 18.62L18.62 19.11C18.08 21.26 19.12 23.41 21.14 24.33L21.89 24.65 21.1 26.49Z" class="MsftOfcResponsive_Fill_7823dc" stroke-width="0" fill="#7823DC"/><path d="M23.1 18.57C21.44 18.57 19.82 17.94 18.6 16.71L20.01 15.29C21.53 16.81 23.96 17 25.77 15.73L26.36 15.23 27.64 16.77 26.98 17.32C25.79 18.16 24.43 18.57 23.1 18.57Z" class="MsftOfcResponsive_Fill_7823dc" stroke-width="0" fill="#7823DC"/><path d="M17.89 14.12 17.41 12.18C19.51 11.66 20.89 9.62 20.62 7.45L20.51 6.57 22.49 6.32 22.6 7.2C23 10.37 20.97 13.35 17.89 14.12Z" class="MsftOfcResponsive_Fill_7823dc" stroke-width="0" fill="#7823DC"/></g><path d="M30 2 30 30 2 30 2 2 30 2M32 0 0 0 0 32 32 32 32 0 32 0Z" class="MsftOfcResponsive_Fill_7823dc" stroke-width="0" fill="#7823DC"/><rect x="4" y="4" width="2" height="2" class="MsftOfcResponsive_Fill_7823dc" stroke-width="0" fill="#7823DC"/><rect x="26" y="4" width="2" height="2" class="MsftOfcResponsive_Fill_7823dc" stroke-width="0" fill="#7823DC"/><rect x="4" y="26" width="2" height="2" class="MsftOfcResponsive_Fill_7823dc" stroke-width="0" fill="#7823DC"/><rect x="26" y="26" width="2" height="2" class="MsftOfcResponsive_Fill_7823dc" stroke-width="0" fill="#7823DC"/></svg>