<svg viewBox="0 0 32 32" xmlns="http://www.w3.org/2000/svg" xmlns:xlink="http://www.w3.org/1999/xlink" id="Layer_2_1_" overflow="hidden"><style>
.MsftOfcResponsive_Fill_7823dc {
 fill:#7823DC; 
}
</style>
<path d="M32 32 0 32 0 30 30 30 30 0 32 0Z" class="MsftOfcResponsive_Fill_7823dc" fill="#7823DC"/><path d="M2.8 31.6 1.2 30.4 6.6 24 16.3 24.9 17.2 22.4 24.7 17 27.2 4 31 4 31 6 28.8 6 26 21.2 24 21 24 19.9 18.8 23.6 17.7 27.1 7.4 26Z" class="MsftOfcResponsive_Fill_7823dc" fill="#7823DC"/><path d="M7.7 2.8 16.5 10.1 17.1 12.4 10.3 6.8 6.8 3.9 7.7 2.8M7.5 0 4 4.2 9 8.3 18.2 15.9 19.6 14.2 18.3 9 7.5 0 7.5 0Z" class="MsftOfcResponsive_Fill_7823dc" fill="#7823DC"/><rect x="-7.6" y="15.3" width="21.3" height="2" class="MsftOfcResponsive_Fill_7823dc" fill="#7823DC" transform="matrix(0.6584 -0.7527 0.7527 0.6584 -11.2612 7.834)"/><rect x="-5.6" y="17.3" width="21.3" height="2" class="MsftOfcResponsive_Fill_7823dc" fill="#7823DC" transform="matrix(0.6584 -0.7527 0.7527 0.6584 -12.0833 10.0225)"/><rect x="19.2" y="7.4" width="6.8" height="2" class="MsftOfcResponsive_Fill_7823dc" fill="#7823DC" transform="matrix(0.1547 -0.988 0.988 0.1547 10.8286 29.4173)"/><rect x="9.8" y="17.6" width="7.3" height="2" class="MsftOfcResponsive_Fill_7823dc" fill="#7823DC" transform="matrix(0.9996 -0.0268458 0.0268458 0.9996 -0.495 0.3687)"/></svg>