<svg viewBox="0 0 31.99 31.95" xmlns="http://www.w3.org/2000/svg" xmlns:xlink="http://www.w3.org/1999/xlink" id="Outline_Final_icon" overflow="hidden"><defs></defs><path d="M1.54 24.61C1.54 26.11 2.76 27.33 4.26 27.33 5.76 27.33 6.98 26.11 6.98 24.61 6.98 23.11 5.76 21.89 4.26 21.89 2.76 21.89 1.54 23.11 1.54 24.61ZM4.99 24.61C4.99 25.01 4.67 25.33 4.27 25.33 3.87 25.33 3.55 25.01 3.55 24.61 3.55 24.21 3.87 23.89 4.27 23.89 4.67 23.89 4.99 24.21 4.99 24.61Z" fill="#7823DC"/><path d="M3.32 5.85C3.32 7.35 4.54 8.57 6.04 8.57 7.54 8.57 8.76 7.35 8.76 5.85 8.76 4.35 7.54 3.13 6.04 3.13 4.54 3.13 3.32 4.35 3.32 5.85ZM6.77 5.85C6.77 6.25 6.45 6.57 6.05 6.57 5.65 6.57 5.33 6.25 5.33 5.85 5.33 5.45 5.65 5.13 6.05 5.13 6.45 5.13 6.77 5.45 6.77 5.85Z" fill="#7823DC"/><path d="M24.77 24.61C24.77 26.11 25.99 27.33 27.49 27.33 28.99 27.33 30.21 26.11 30.21 24.61 30.21 23.11 28.99 21.89 27.49 21.89 25.99 21.89 24.77 23.11 24.77 24.61ZM28.21 24.61C28.21 25.01 27.89 25.33 27.49 25.33 27.09 25.33 26.77 25.01 26.77 24.61 26.77 24.21 27.09 23.89 27.49 23.89 27.89 23.89 28.21 24.21 28.21 24.61Z" fill="#7823DC"/><path d="M12.83 21.36C12.83 23.1 14.24 24.52 15.99 24.52 17.74 24.52 19.15 23.11 19.15 21.36 19.15 19.61 17.74 18.2 15.99 18.2 14.24 18.2 12.83 19.61 12.83 21.36ZM17.15 21.36C17.15 22 16.63 22.52 15.99 22.52 15.35 22.52 14.83 22 14.83 21.36 14.83 20.72 15.35 20.2 15.99 20.2 16.63 20.2 17.15 20.72 17.15 21.36Z" fill="#7823DC"/><g><path d="M19.41 8.56C20.01 8.56 20.49 8.08 20.49 7.48 20.49 6.88 20.01 6.4 19.41 6.4 18.81 6.4 18.33 6.88 18.33 7.48 18.33 8.08 18.81 8.56 19.41 8.56Z" fill="#7823DC"/><path d="M23.01 8.56C23.61 8.56 24.09 8.08 24.09 7.48 24.09 6.88 23.61 6.4 23.01 6.4 22.41 6.4 21.93 6.88 21.93 7.48 21.93 8.08 22.41 8.56 23.01 8.56Z" fill="#7823DC"/><path d="M26.65 8.56C27.25 8.56 27.73 8.08 27.73 7.48 27.73 6.88 27.25 6.4 26.65 6.4 26.05 6.4 25.57 6.88 25.57 7.48 25.57 8.08 26.05 8.56 26.65 8.56Z" fill="#7823DC"/></g><path d="M31.96 3.09 14.13 3.09 14.13 4.35 10.86 4.45 14.13 8.75 14.13 11.87 31.96 11.87 31.96 3.09ZM29.96 9.88 16.13 9.88 16.13 8.09 14.8 6.34 16.13 6.3 16.13 5.1 29.96 5.1 29.96 9.88Z" fill="#7823DC"/><path d="M22.8 28.13 21.63 31.06 20.35 25.84 11.66 25.84 10.33 31.05 9.21 28.13 0 28.13 0 30.31 0.07 30.13 7.84 30.13 8.54 31.95 12.17 31.95 13.22 27.84 18.78 27.84 19.79 31.95 23.43 31.95 24.16 30.13 31.92 30.13 31.99 30.3 31.99 28.13 22.8 28.13Z" fill="#7823DC"/><path d="M20.61 16.39 20.61 13.27 18.61 13.27 18.61 14.39 10.79 14.39 10.79 9.66 2.06 9.66 2.06 2 19.61 2 19.61 0 3.69 0 0.06 3.63 0.06 16.38 20.61 16.38ZM2.06 14.39 2.06 11.66 8.79 11.66 8.79 14.39 2.06 14.39Z" fill="#7823DC"/></svg>