<svg viewBox="0 0 32.04 32" xmlns="http://www.w3.org/2000/svg" xmlns:xlink="http://www.w3.org/1999/xlink" id="Layer_1" overflow="hidden"><style>
.MsftOfcResponsive_Fill_7823dc {
 fill:#7823DC; 
}
</style>
<defs></defs><path d="M17.82 32 9.22 32 8.98 31.85C3.44 28.35 0 21.92 0 15.07L0 14.07 27.04 14.07 27.04 15.07C27.04 21.92 23.6 28.35 18.07 31.85L17.83 32ZM9.8 30 17.24 30C21.79 27.01 24.71 21.76 25.01 16.07L2.03 16.07C2.34 21.76 5.25 27.01 9.81 30Z" class="MsftOfcResponsive_Fill_7823dc" fill="#7823DC"/><path d="M22.64 27.26C22.13 27.26 21.7 26.87 21.65 26.36 21.6 25.81 22 25.32 22.55 25.27 26.67 24.86 29.25 22.82 29.9 21.09 30.08 20.61 30.2 19.93 29.71 19.41 29.45 19.13 29.17 19 28.84 19 27.87 19.04 26.71 19.98 26.37 20.32 25.98 20.72 25.35 20.72 24.96 20.34 24.56 19.96 24.55 19.32 24.94 18.93 25.13 18.73 26.87 17 28.83 17 28.83 17 28.85 17 28.86 17 29.74 17 30.55 17.37 31.18 18.05 32.09 19.02 32.31 20.39 31.78 21.8 30.89 24.16 27.76 26.77 22.76 27.26 22.73 27.26 22.69 27.26 22.66 27.26Z" class="MsftOfcResponsive_Fill_7823dc" fill="#7823DC"/><g><path d="M12.83 6.79 11.42 5.38C13.17 3.63 13.13 2.2 13.13 2.14L13.13 0C13.13 0 15.13 0 15.13 0L15.13 2.07C15.15 2.23 15.25 4.38 12.84 6.79Z" class="MsftOfcResponsive_Fill_7823dc" fill="#7823DC"/><path d="M11.04 11.97 9.04 11.97 9.04 10.17C9.04 10.04 9.13 7.66 11.54 5.25L12.95 6.66C11.14 8.47 11.04 10.13 11.04 10.2L11.04 11.96Z" class="MsftOfcResponsive_Fill_7823dc" fill="#7823DC"/><path d="M18.79 6.79 17.38 5.38C19.13 3.63 19.09 2.2 19.09 2.14L19.09 0C19.09 0 21.09 0 21.09 0L21.09 2.07C21.11 2.23 21.21 4.38 18.8 6.79Z" class="MsftOfcResponsive_Fill_7823dc" fill="#7823DC"/><path d="M17 12 15 12 15 10.17C15 10.04 15.09 7.66 17.5 5.25L18.91 6.66C17.1 8.47 17 10.13 17 10.2L17 12Z" class="MsftOfcResponsive_Fill_7823dc" fill="#7823DC"/></g></svg>