<svg viewBox="0 0 32 32" xmlns="http://www.w3.org/2000/svg" xmlns:xlink="http://www.w3.org/1999/xlink" overflow="hidden"><defs></defs><g id="Grid"><path d="M26.27 4C23.85 1.38 20.41 0.05 16.05 0L16 0C11.49 0 8 1.35 5.53 4 1.4 8.58 2 15.18 2 15.46L2.2 17.46 3.69 16.1C3.78611 16.017 3.88992 15.9433 4 15.88L11 22 9 22 9 24 10 24 10 26 9 26 9 28 10 28 10 30 9 30 9 32 23 32 23 30 22 30 22 28 23 28 23 26 22 26 22 24 23 24 23 22 20.29 22 27.56 15.52C27.86 15.74 28.13 15.95 28.33 16.13L29.86 17.52 30.01 15.52C30 15.19 30.46 8.52 26.27 4ZM16.75 16C17.2691 15.8295 17.7345 15.5261 18.1 15.12 18.49 14.74 18.65 14.6 19.1 14.62 19.4333 14.6198 19.7544 14.7447 20 14.97L16.88 20.47ZM14.75 15.71 14.85 20.86 11.56 15.38C11.72 15.26 11.87 15.13 11.99 15.02 12.2328 14.7134 12.5991 14.5303 12.99 14.52 13.39 14.52 13.55 14.64 13.93 15.04 14.1786 15.2804 14.4537 15.4918 14.75 15.67ZM9.47 15.78 12.4 20.65 5.68 14.73C6.05231 14.5352 6.46085 14.4195 6.88 14.39L6.88 14.39C7.37405 14.4081 7.8411 14.6201 8.18 14.98 8.54819 15.326 8.98887 15.5857 9.47 15.74ZM20 30 12 30 12 28 20 28ZM12 26 12 24.09 20 24.09 20 26ZM19.25 20.24 21.75 15.85 21.95 15.85C22.6718 15.8393 23.3622 15.5531 23.88 15.05 24.2367 14.7007 24.7111 14.4973 25.21 14.48L25.21 14.48C25.3553 14.4816 25.4998 14.5018 25.64 14.54ZM25.25 12.5 25.25 12.5C24.3054 12.5057 23.3967 12.8621 22.7 13.5 22.34 13.78 22.2 13.89 22.02 13.87 21.84 13.85 21.8 13.87 21.5 13.57 20.8893 12.9491 20.0607 12.5904 19.19 12.57 18.2568 12.5397 17.3599 12.933 16.75 13.64 16.41 13.98 16.31 14.05 16.1 14.05L16.1 14.05 16.1 14.71 16.1 14.71 16.1 14C15.93 14 15.83 13.94 15.47 13.57 14.8659 12.8358 13.9495 12.4314 13 12.48 12.1202 12.4853 11.2799 12.8459 10.67 13.48 10.36 13.78 10.31 13.8 10.17 13.8L10.17 13.8C10 13.8 9.86 13.69 9.52 13.41 8.82714 12.7398 7.90389 12.3605 6.94 12.35L6.94 12.35C5.91145 12.4223 4.92077 12.7675 4.07 13.35 4.14861 10.4232 5.20472 7.60685 7.07 5.35 9 3.17 12.06 2 16 2L16 2C19.78 2 22.72 3.12 24.75 5.31 26.6911 7.57734 27.8331 10.4199 28 13.4 27.1648 12.861 26.2027 12.5507 25.21 12.5Z" fill="#7823DC"/></g></svg>