<svg viewBox="0 0 32 32" xmlns="http://www.w3.org/2000/svg" xmlns:xlink="http://www.w3.org/1999/xlink" id="Layer_5" overflow="hidden"><defs></defs><path d="M32 14 32 0-0.16 0-0.16 14 3.45 14 3.45 26.22 0 26.22 0 32 32 32 32 26.22 28.46 26.22 28.46 14 32 14ZM1.84 12 1.84 2 30 2 30 12 1.84 12ZM15.42 15.88 16.69 15.88 16.69 16.6 15.42 16.6 15.42 15.88ZM29.99 28.21 29.99 29.99 2 29.99 2 28.21 30 28.21ZM13.14 21.18 19.67 21.18 18.95 26.21 13.86 26.21 13.14 21.18ZM21.51 22.46 22.44 22.46 22.44 23.76 21.33 23.76 21.52 22.46ZM26.45 26.21 20.98 26.21 21.04 25.76 24.44 25.76 24.44 20.46 21.8 20.46 21.98 19.18 10.85 19.18 11.85 26.21 5.45 26.21 5.45 14 12.13 14C12.34 14.68 12.81 15.24 13.43 15.57L13.43 18.61 18.7 18.61 18.7 15.68C19.43 15.38 19.98 14.76 20.22 14L26.46 14 26.46 26.22Z" fill="#7823DC"/><path d="M28 4 21.44 4 21.44 10 28 10 28 4ZM26 8 23.44 8 23.44 6 26 6 26 8Z" fill="#7823DC"/><path d="M4 10 10.56 10 10.56 4 4 4 4 10ZM6 6 8.56 6 8.56 8 6 8 6 6Z" fill="#7823DC"/><path d="M15.92 11.12C18.36 11.12 20.35 9.13 20.35 6.69 20.35 4.25 18.36 2.26 15.92 2.26 13.48 2.26 11.49 4.25 11.49 6.69 11.49 9.13 13.48 11.12 15.92 11.12ZM15.92 4.27C17.26 4.27 18.35 5.36 18.35 6.7 18.35 8.04 17.26 9.13 15.92 9.13 14.58 9.13 13.49 8.04 13.49 6.7 13.49 5.36 14.58 4.27 15.92 4.27Z" fill="#7823DC"/><rect x="14.17" y="5.7" width="3.33" height="2" fill="#7823DC" transform="matrix(0.69904 -0.715083 0.715083 0.69904 -0.02 13.34)"/></svg>