<svg viewBox="0 0 32 32" xmlns="http://www.w3.org/2000/svg" xmlns:xlink="http://www.w3.org/1999/xlink" id="Graphic" overflow="hidden"><defs></defs><path d="M16 18C9.73047 18 6.875 10.8076 6.875 4.125L6.875 0 25.125 0 25.125 4.125C25.125 10.8076 22.2695 18 16 18ZM8.875 2 8.875 4.125C8.875 11.1167 11.8047 16 16 16 20.1953 16 23.125 11.1167 23.125 4.125L23.125 2Z" fill="#7823DC"/><path d="M24.5 32 7.5 32 7.5 23.75 24.5 23.75ZM9.5 30 22.5 30 22.5 25.75 9.5 25.75Z" fill="#7823DC"/><path d="M10.75 25.75 8.75 25.75 8.75 24.125C8.70854 22.9238 9.64869 21.9165 10.8499 21.875 10.8999 21.8733 10.95 21.8733 11 21.875 12.3516 21.875 13.75 20.3789 13.75 17.875L13.75 16.1147 15.75 16.1147 15.75 17.875C15.75 21.6309 13.335 23.875 11 23.875 10.8535 23.875 10.75 23.8931 10.75 24.125Z" fill="#7823DC"/><path d="M23.25 25.75 21.25 25.75 21.25 24.125C21.25 23.8931 21.1465 23.875 21 23.875 18.665 23.875 16.25 21.6309 16.25 17.875L16.25 16.1147 18.25 16.1147 18.25 17.875C18.25 20.3789 19.6484 21.875 21 21.875 22.2012 21.8335 23.2085 22.7737 23.25 23.9749 23.2517 24.0249 23.2517 24.075 23.25 24.125Z" fill="#7823DC"/><path d="M7.875 17C6.63292 16.9986 5.62636 15.9921 5.625 14.75L5.625 13.75 7.625 13.75 7.625 14.75C7.62526 14.888 7.73704 14.9997 7.875 15 8.10693 15 8.125 14.8965 8.125 14.75 8.125 13.938 6.42383 12.4194 5.05664 11.1992 2.68652 9.0835 0 6.68555 0 3.8125-0.0224163 1.72933 1.64815 0.0224163 3.73132 -4.44089e-16 3.75838-0.000291164 3.78544-0.000291164 3.8125 -4.44089e-16 5.91706 0.00247968 7.62252 1.70794 7.625 3.8125L7.625 5.125 5.625 5.125 5.625 3.8125C5.62394 2.81192 4.81308 2.00106 3.8125 2 2.84492 1.96656 2.03344 2.72383 2 3.69141 1.99861 3.73176 1.99861 3.77215 2 3.8125 2 5.79 4.33154 7.87109 6.38818 9.707 8.39355 11.4966 10.125 13.0425 10.125 14.75 10.1665 15.9512 9.22631 16.9585 8.02513 17 7.9751 17.0017 7.92503 17.0017 7.875 17Z" fill="#7823DC"/><path d="M24.125 17C22.9238 17.0415 21.9165 16.1013 21.875 14.9001 21.8733 14.8501 21.8733 14.8 21.875 14.75 21.875 13.0425 23.6064 11.4966 25.6118 9.707 27.6685 7.87109 30 5.79 30 3.8125 30.0334 2.84492 29.2762 2.03344 28.3086 2 28.2682 1.99861 28.2279 1.99861 28.1875 2 27.1869 2.00106 26.3761 2.81192 26.375 3.8125L26.375 5.125 24.375 5.125 24.375 3.8125C24.3775 1.70794 26.0829 0.00247968 28.1875-1.33227e-15 30.2707-0.0224163 31.9776 1.64815 32 3.73132 32.0003 3.75838 32.0003 3.78544 32 3.8125 32 6.68555 29.3135 9.0835 26.9434 11.1992 25.5762 12.4194 23.875 13.938 23.875 14.75 23.875 14.8965 23.8931 15 24.125 15 24.263 14.9997 24.3747 14.888 24.375 14.75L24.375 13.75 26.375 13.75 26.375 14.75C26.3736 15.9921 25.3671 16.9986 24.125 17Z" fill="#7823DC"/></svg>