<svg viewBox="0 0 32.05 31.91" xmlns="http://www.w3.org/2000/svg" xmlns:xlink="http://www.w3.org/1999/xlink" id="Layer_1" overflow="hidden"><style>
.MsftOfcResponsive_Fill_7823dc {
 fill:#7823DC; 
}
</style>
<defs></defs><path d="M0 26.94 15.01 26.94 15.01 29.91 0.05 29.91 0.05 31.91 32.05 31.91 32.05 29.91 17.01 29.91 17.01 26.94 32.05 26.94 32.05 19.96 0 19.96 0 26.94ZM2 21.96 30.05 21.96 30.05 24.94 2 24.94 2 21.96Z" class="MsftOfcResponsive_Fill_7823dc" fill="#7823DC"/><path d="M32.05 6.98 32.05 0 0 0 0 6.98 15.01 6.98 15.01 9.98 0 9.98 0 16.96 15.01 16.96 15.01 19.95 17.01 19.95 17.01 16.96 32.05 16.96 32.05 9.98 17.01 9.98 17.01 6.98 32.05 6.98ZM30.05 14.96 2 14.96 2 11.98 30.05 11.98 30.05 14.96ZM2 2 30.05 2 30.05 4.98 2 4.98 2 2Z" class="MsftOfcResponsive_Fill_7823dc" fill="#7823DC"/><rect x="4.06" y="2.49" width="3.97" height="2" class="MsftOfcResponsive_Fill_7823dc" fill="#7823DC"/><rect x="8.76" y="2.49" width="3.97" height="2" class="MsftOfcResponsive_Fill_7823dc" fill="#7823DC"/><rect x="13.46" y="2.49" width="3.97" height="2" class="MsftOfcResponsive_Fill_7823dc" fill="#7823DC"/><rect x="26.05" y="2.49" width="1.97" height="2" class="MsftOfcResponsive_Fill_7823dc" fill="#7823DC"/><rect x="4.06" y="12.5" width="3.97" height="2" class="MsftOfcResponsive_Fill_7823dc" fill="#7823DC"/><rect x="8.76" y="12.5" width="3.97" height="2" class="MsftOfcResponsive_Fill_7823dc" fill="#7823DC"/><rect x="13.46" y="12.5" width="3.97" height="2" class="MsftOfcResponsive_Fill_7823dc" fill="#7823DC"/><rect x="26.05" y="12.5" width="1.97" height="2" class="MsftOfcResponsive_Fill_7823dc" fill="#7823DC"/><rect x="4.06" y="22.52" width="3.97" height="2" class="MsftOfcResponsive_Fill_7823dc" fill="#7823DC"/><rect x="8.76" y="22.52" width="3.97" height="2" class="MsftOfcResponsive_Fill_7823dc" fill="#7823DC"/><rect x="13.46" y="22.52" width="3.97" height="2" class="MsftOfcResponsive_Fill_7823dc" fill="#7823DC"/><rect x="26.05" y="22.52" width="1.97" height="2" class="MsftOfcResponsive_Fill_7823dc" fill="#7823DC"/></svg>