<svg viewBox="0 0 32 32" xmlns="http://www.w3.org/2000/svg" xmlns:xlink="http://www.w3.org/1999/xlink" overflow="hidden"><defs></defs><g id="Layer_3"><path d="M4.693 31.713 3.279 30.299 10.832 22.747 16.501 26.148 15.472 27.863 11.141 25.265 4.693 31.713Z" fill="#7823DC"/><path d="M26.7563 32.0059 9.98635 32.0059 9.98635 28.3057 21.6446 24.0664 22.3281 25.9453 11.9863 29.7061 11.9863 30.0059 25.1841 30.0059C25.5684 28.0742 26.334 22.8301 24.1543 19.5606 22.6611 17.3203 15.5015 13.3935 12.6802 11.9707 11.8477 11.7754 10.9863 10.6836 10.9863 7.00586 10.9863 5.94336 9.15918 5.11719 8.66992 4.9541L8.1958 4.79687 8.0376 4.32227C7.80553 3.66208 7.44862 3.0527 6.98633 2.52734L6.98633 5.541 3.98633 7.541 3.98633 9.22461 7.98633 10.2246 7.98633 26.2832 4.55273 32.0059-0.01367 32.0059-0.01367 30.0059 3.41992 30.0059 5.98633 25.7285 5.98633 11.7871 1.98633 10.7871 1.98633 6.4707 4.98633 4.4707 4.98633 0.00586 5.98633 0.00586C8.15088 0.00586 9.33301 2.2207 9.76025 3.23242 10.771 3.65918 12.9863 4.8418 12.9863 7.00586 12.8928 8.05347 13.0343 9.10874 13.4004 10.0947L13.4336 10.1113C14.4815 10.6357 23.7314 15.3203 25.8184 18.4512 29.0181 23.251 27.0391 30.9365 26.9531 31.2617Z" fill="#7823DC"/><path d="M30.707 32.006 25.986 32.006 25.986 30.006 29.266 30.006 29.986 27.844 29.986 14.006 31.986 14.006 31.986 28.168 30.707 32.006Z" fill="#7823DC"/></g></svg>