<svg viewBox="0 0 31.94 32" xmlns="http://www.w3.org/2000/svg" xmlns:xlink="http://www.w3.org/1999/xlink" id="Layer_1" overflow="hidden"><style>
.MsftOfcResponsive_Fill_7823dc {
 fill:#7823DC; 
}
</style>
<defs></defs><path d="M8.01 1.93C8.54 1.93 8.98 2.36 8.98 2.9 8.98 3.44 8.55 3.87 8.01 3.87 7.47 3.87 7.04 3.44 7.04 2.9 7.04 2.36 7.47 1.93 8.01 1.93M8.01 4.44089e-16C6.41 4.44089e-16 5.11 1.3 5.11 2.9 5.11 4.5 6.41 5.8 8.01 5.8 9.61 5.8 10.91 4.5 10.91 2.9 10.91 1.3 9.61 8.88178e-16 8.01 8.88178e-16L8.01 8.88178e-16Z" class="MsftOfcResponsive_Fill_7823dc" fill="#7823DC"/><path d="M2.62 32 4.55 32 4.55 21.91 11.32 15.9 10.48 7.93 10.87 7.93 14.18 12.07 13.28 18.12 15.19 18.43 16.23 11.53 11.8 6 8.32 6 9.35 15.26 2.62 21.02 2.62 31.13 2.62 31.13 2.62 32Z" class="MsftOfcResponsive_Fill_7823dc" fill="#7823DC"/><path d="M11.32 15.9 8.26 25.74 1.3 32 1.3 32 1.3 32 0 30.56 6.59 24.64 9.35 15.68" class="MsftOfcResponsive_Fill_7823dc" fill="#7823DC"/><path d="M22.16 14.44C26.45 14.44 29.94 17.93 29.94 22.22 29.94 26.51 26.45 30 22.16 30 17.87 30 14.38 26.51 14.38 22.22 14.38 17.93 17.87 14.44 22.16 14.44M22.16 12.44C16.76 12.44 12.38 16.82 12.38 22.22 12.38 27.62 16.76 32 22.16 32 27.56 32 31.94 27.62 31.94 22.22 31.94 16.82 27.56 12.44 22.16 12.44L22.16 12.44Z" class="MsftOfcResponsive_Fill_7823dc" fill="#7823DC"/><path d="M18.51 19.72 21.36 22.57 22.77 21.15 21.34 19.72 18.51 19.72 18.51 19.72Z" class="MsftOfcResponsive_Fill_7823dc" fill="#7823DC"/><path d="M22.22 20.6 17.16 25.66 19.98 25.66 23.63 22.01 22.22 20.6 22.22 20.6Z" class="MsftOfcResponsive_Fill_7823dc" fill="#7823DC"/><rect x="21.13" y="10" width="2.05" height="3.53" class="MsftOfcResponsive_Fill_7823dc" fill="#7823DC"/><rect x="21.13" y="7.75" width="2.05" height="4.49" class="MsftOfcResponsive_Fill_7823dc" fill="#7823DC" transform="matrix(6.12323e-17 1 -1 6.12323e-17 32.16 -12.16)"/><rect x="21.16" y="14" width="2" height="2" class="MsftOfcResponsive_Fill_7823dc" fill="#7823DC"/><rect x="21.16" y="28" width="2" height="2" class="MsftOfcResponsive_Fill_7823dc" fill="#7823DC"/><rect x="28" y="21" width="2" height="2" class="MsftOfcResponsive_Fill_7823dc" fill="#7823DC"/><rect x="14" y="21" width="2" height="2" class="MsftOfcResponsive_Fill_7823dc" fill="#7823DC"/></svg>