<svg viewBox="0 0 32 32" xmlns="http://www.w3.org/2000/svg" xmlns:xlink="http://www.w3.org/1999/xlink" id="Layer_2_00000144328325245699140920000014890284756443101063_" xml:space="preserve" overflow="hidden"><g><g><path d="M20.7 4.7C19 4.7 17.5 5.1 16 5.7 15.2 6 14.5 6.5 13.8 7 14.6 7.2 15.3 7.5 16 7.9 16.7 7.5 17.4 7.2 18.2 7 19 6.8 19.8 6.7 20.7 6.7 25.8 6.7 30 10.9 30 16 30 21.1 25.8 25.3 20.7 25.3 19.9 25.3 19 25.2 18.2 25 17.4 24.8 16.7 24.5 16 24.1 13.9 22.9 12.3 20.8 11.6 18.4L9.6 18.4C10.2 21.1 11.7 23.4 13.8 25.1 14.5 25.6 15.2 26.1 16 26.4 17.4 27.1 19 27.4 20.7 27.4 26.9 27.3 32 22.3 32 16 32 9.7 26.9 4.7 20.7 4.7Z" fill="#7823DC"/><path d="M15.2 20.8 10.8 18.9 8.9 23.4 7 22.6 9.7 16.3 16 19Z" fill="#7823DC" fill-rule="evenodd" clip-rule="evenodd"/></g><g><path d="M11.3 27.3C13 27.3 14.5 26.9 16 26.3 16.8 26 17.5 25.5 18.2 25 17.4 24.8 16.7 24.5 16 24.1 15.3 24.5 14.6 24.8 13.8 25 13 25.2 12.2 25.3 11.3 25.3 6.2 25.3 2 21.1 2 16 2 10.9 6.2 6.7 11.3 6.7 12.1 6.7 13 6.8 13.8 7 14.6 7.2 15.3 7.5 16 7.9 18.1 9.1 19.7 11.2 20.4 13.6L22.5 13.6C21.9 10.9 20.4 8.6 18.3 6.9 17.6 6.4 16.9 5.9 16.1 5.6 14.7 4.9 13.1 4.6 11.4 4.6 5.1 4.7 0 9.7 0 16 0 22.3 5.1 27.3 11.3 27.3Z" fill="#7823DC"/><path d="M16.8 11.2 21.2 13.1 23.1 8.6 25 9.4 22.3 15.7 16 13Z" fill="#7823DC" fill-rule="evenodd" clip-rule="evenodd"/></g></g></svg>