<svg viewBox="0 0 32 32" xmlns="http://www.w3.org/2000/svg" xmlns:xlink="http://www.w3.org/1999/xlink" overflow="hidden"><style>
.MsftOfcResponsive_Fill_7823dc {
 fill:#7823DC; 
}
</style>
<defs></defs><g id="Layer_3"><path d="M15.9997 7.31873C24.0125 7.31873 29.9997 10.4865 29.9997 13.3187 29.9997 16.151 24.0125 19.3187 15.9997 19.3187 7.98694 19.3187 1.99972 16.151 1.99972 13.3187 1.99972 10.4865 7.98694 7.31873 15.9997 7.31873M15.9997 5.31873C7.16316 5.31873-0.00028 8.90045-0.00028 13.3187-0.00028 17.737 7.16316 21.3187 15.9997 21.3187 24.8363 21.3187 31.9997 17.737 31.9997 13.3187 31.9997 8.90046 24.8363 5.31873 15.9997 5.31873Z" class="MsftOfcResponsive_Fill_7823dc" fill="#7823DC"/><rect x="29.9997" y="13.3187" width="2" height="10.6667" class="MsftOfcResponsive_Fill_7823dc" fill="#7823DC"/><rect x="-0.00029" y="13.3187" width="2" height="10.6667" class="MsftOfcResponsive_Fill_7823dc" fill="#7823DC"/><path d="M15.9997 29.9854C7.98696 29.9854 1.99971 26.8177 1.99971 23.9854L-0.00029 23.9854C-0.00029 28.4037 7.16317 31.9854 15.9997 31.9854 24.8363 31.9854 31.9997 28.4037 31.9997 23.9854L29.9997 23.9854C29.9997 26.8177 24.0125 29.9854 15.9997 29.9854Z" class="MsftOfcResponsive_Fill_7823dc" fill="#7823DC"/><path d="M15.9997 24.652C7.98696 24.652 1.99971 21.4843 1.99971 18.652L-0.00029 18.652C-0.00029 23.0703 7.16317 26.652 15.9997 26.652 24.8363 26.652 31.9997 23.0703 31.9997 18.652L29.9997 18.652C29.9997 21.4843 24.0125 24.652 15.9997 24.652Z" class="MsftOfcResponsive_Fill_7823dc" fill="#7823DC"/><path d="M16.9946 8.32872 14.9946 8.32872 14.9946 9.23872C13.6917 9.31147 12.6639 10.3741 12.6346 11.6787 12.6346 13.1287 13.3546 13.8387 15.0146 14.1687L15.0146 15.6787C14.7272 15.4721 14.5532 15.1426 14.5446 14.7887L12.4346 14.7887C12.4648 16.1999 13.5845 17.3458 14.9946 17.4087L14.9946 18.3087 16.9946 18.3087 16.9946 17.4187C18.4195 17.4133 19.5702 16.2538 19.5648 14.8289L19.5646 14.8087C19.5646 13.2587 18.5646 12.6487 16.9946 12.3787L16.9946 10.9087C17.2366 11.0712 17.3883 11.3377 17.4046 11.6287L19.4546 11.6287C19.4017 10.3026 18.3217 9.2489 16.9946 9.22872ZM14.9946 12.0687C14.7593 11.9766 14.6128 11.7405 14.6346 11.4887 14.6372 11.2514 14.7671 11.0338 14.9746 10.9187L14.9746 12.0687ZM16.9946 15.7787 16.9946 14.4587C17.2807 14.5177 17.4805 14.7771 17.4646 15.0687 17.4734 15.3808 17.2854 15.6649 16.9946 15.7787Z" class="MsftOfcResponsive_Fill_7823dc" fill="#7823DC"/></g></svg>