<svg viewBox="0 0 32 32" xmlns="http://www.w3.org/2000/svg" xmlns:xlink="http://www.w3.org/1999/xlink" id="Graphic" overflow="hidden"><defs></defs><path d="M16 15.3333C20.0501 15.3333 23.3333 18.6166 23.3333 22.6667 23.3333 26.7168 20.0501 30 16 30 11.9499 30 8.66666 26.7168 8.66666 22.6667 8.67124 18.6185 11.9518 15.3379 16 15.3333M16 13.3333C10.8453 13.3333 6.66667 17.512 6.66667 22.6667 6.66667 27.8213 10.8453 32 16 32 21.1547 32 25.3333 27.8213 25.3333 22.6667 25.3333 17.512 21.1547 13.3333 16 13.3333Z" fill="#7823DC"/><path d="M16 16.667 17.526 20.355 21.333 20.741 18.469 23.406 19.296 27.333 16 25.292 12.704 27.333 13.531 23.406 10.667 20.741 14.474 20.355 16 16.667Z" fill="#7823DC"/><path d="M13 16 11 16 11 9 21 9 21 16 19 16 19 11 13 11 13 16Z" fill="#7823DC"/><path d="M19.844 11.406 20 11.281 19.288 10.711 19.844 11.406Z" fill="#7823DC"/><path d="M20.156 11.406 20.712 10.711 20 11.281 20.156 11.406Z" fill="#7823DC"/><path d="M18.594 10.156 19.288 10.711 18.719 10 18.594 10.156Z" fill="#7823DC"/><path d="M20 8.399 18.719 10 19.288 10.711 20 11.281 20.712 10.711 21.281 10 20 8.399Z" fill="#7823DC"/><path d="M11.844 11.406 13.406 10.156 5.281 0 2.719 0 11.844 11.406Z" fill="#7823DC"/><path d="M21.281 0 18.719 0 16 3.399 13.281 0 10.719 0 14.719 5 15.287 5.71 18.719 10 20 8.399 17.281 5 21.281 0Z" fill="#7823DC"/><path d="M26.719 0 20 8.399 21.281 10 29.281 0 26.719 0Z" fill="#7823DC"/></svg>