<svg viewBox="0 0 32 32" xmlns="http://www.w3.org/2000/svg" xmlns:xlink="http://www.w3.org/1999/xlink" id="Graphic" overflow="hidden"><path d="M17.2 20.6 8 27.8 8 20.6 2 20.6 2 0 0 0 0 22.9 6 22.9 6 32 17.8 22.9 20 22.9 20 20.6 17.2 20.6Z" fill="#7823DC"/><path d="M24.6 0 0 0 0 2.3 26.4 2.3 24.6 0Z" fill="#7823DC"/><path d="M26 1.8 26 13.3 28 13.3 28 4.1 26 1.8Z" fill="#7823DC"/><path d="M30.6 27.6 20 16.6 21.4 15.1 32 26.1Z" fill="#7823DC"/><path d="M21.4 27.6 20 26.1 30.6 15.1 32 16.6Z" fill="#7823DC"/></svg>