<svg viewBox="0 0 32.08 32.03" xmlns="http://www.w3.org/2000/svg" xmlns:xlink="http://www.w3.org/1999/xlink" id="Grid" overflow="hidden"><defs></defs><path d="M0 6.01 2.01 6.01 2.01 32.01 0 32.01" fill="#7823DC"/><path d="M30.08 6 32.08 6 32.08 32.01 30.08 32.01 30.08 10.01 30.08 6Z" fill="#7823DC"/><path d="M0 30.03 32 30.03 32 32.03 0 32.03 0 30.03 0 30.03Z" fill="#7823DC"/><path d="M0 6.01 32 6.01 32 8.01 0 8.01 0 6.01 0 6.01Z" fill="#7823DC"/><path d="M6 20.01 8 20.01 8 27.99 6 27.99" fill="#7823DC"/><path d="M24 20.01 26 20.01 26 27.99 24 27.99" fill="#7823DC"/><path d="M6 26.02 26 26.02 26 28.02 6 28.02" fill="#7823DC"/><path d="M6 20.01 26 20.01 26 22.01 6 22.01" fill="#7823DC"/><path d="M18.19 0 14.21 0 10.23 3.97 10.23 6 22.18 6 22.18 3.97 18.2 0 18.2 0ZM20.18 5.01 12.22 5.01 12.22 1.99 20.18 1.99" fill="#7823DC"/><g><path d="M0 6.02 0 13.01 13.01 14.81 15.01 14.81C15.11 14.31 15.61 14.01 16.11 14.01L16.81 14.01C17.31 14.01 17.81 14.41 17.91 14.81L19.91 14.81 32.02 13.01 32.02 6.02 0 6.02ZM30.03 11.02 19.02 12.82 14.02 12.82 2.01 11.02 2.01 8.02 30.03 8.02 30.03 11.02 30.03 11.02Z" fill="#7823DC"/><path d="M20.02 14.61C19.92 13.91 19.62 13.21 19.02 12.81 18.42 12.31 17.72 12.01 16.82 12.01L16.12 12.01C15.32 12.01 14.52 12.31 14.02 12.81 13.52 13.31 13.12 13.91 13.02 14.61L13.02 18.01 20.03 18.01 20.03 14.61 20.03 14.61ZM18.02 16.21 15.02 16.21 15.02 14.71C15.12 14.31 15.62 13.91 16.12 13.91L16.82 13.91C17.32 13.91 17.82 14.21 17.92 14.71L17.92 16.21 18.02 16.21Z" fill="#7823DC"/></g></svg>