<svg viewBox="0 0 32 32" xmlns="http://www.w3.org/2000/svg" xmlns:xlink="http://www.w3.org/1999/xlink" id="Layer_5" overflow="hidden"><defs></defs><path d="M20.23 20.36C20.65 20.37 21.08 20.31 21.5 20.17 23.44 19.52 24.48 17.41 23.83 15.48 23.51 14.54 22.85 13.78 21.97 13.34 21.08 12.9 20.08 12.83 19.14 13.15 17.2 13.8 16.16 15.9 16.81 17.84L16.81 17.84C17.32 19.36 18.72 20.33 20.23 20.36ZM19.77 15.02C20.21 14.87 20.68 14.9 21.09 15.11 21.5 15.32 21.81 15.67 21.96 16.11 22.26 17.01 21.78 18 20.87 18.3 19.96 18.61 18.98 18.11 18.68 17.21 18.38 16.31 18.87 15.32 19.77 15.02Z" stroke-width="0" fill="#7823DC"/><path d="M26.98 13.86 26.77 13.23 30.52 8.57 25.61 9.78 25.45 9.32 23.52 3.74 22.18 5.87 22.58 6.97 23.54 9.83 25.33 15.17 27.21 20.76C25.72 21.57 24.93 23.28 25.29 24.95L21.4 26.26C20.67 24.71 19.01 23.82 17.33 24.08L15.56 18.8 14.32 21.3 14.69 22.41 15.32 24.27 17.17 29.77 30.8 25.19 27 13.87ZM18.4 27.25 17.98 25.99C18.6 26.01 19.18 26.34 19.52 26.88L18.41 27.25ZM27.86 22.67 28.28 23.93 27.17 24.3C27.11 23.67 27.38 23.06 27.86 22.67Z" stroke-width="0" fill="#7823DC"/><path d="M11.3 12.34 15.82 3.59 9.12 5.84 10.56 10.14 11.3 12.34Z" stroke-width="0" fill="#7823DC"/><path d="M8.15 18.43 10.65 13.57 7.93 14.5C7.47 13.78 6.82 13.22 6.01 12.9 3.94 12.09 1.59 13.11 0.78 15.18-0.03 17.25 0.99 19.6 3.06 20.41 3.76 20.68 4.49 20.75 5.18 20.64 6.43 20.43 7.56 19.63 8.15 18.43ZM6.53 17.15C6.51 17.24 6.49 17.32 6.46 17.41 6.05 18.47 4.85 18.99 3.79 18.57 2.73 18.15 2.21 16.96 2.62 15.9 3.03 14.84 4.23 14.32 5.29 14.73 5.8 14.93 6.21 15.32 6.43 15.82 6.52 16.03 6.57 16.25 6.59 16.46L6.54 17.14Z" stroke-width="0" fill="#7823DC"/><path d="M12.92 21.83 20.29 6.99 20.9 6.02 21.83 4.54 22.14 4.05 24.41 0.44 17.18 3.14 15.83 5.75 14.87 7.61 14.33 8.66 9.67 17.66 9.07 21.11C7.1 21.77 5.92 23.83 6.42 25.89L6.42 25.89C6.93 27.94 8.94 29.24 10.99 28.9 11.1 28.88 11.2 28.86 11.31 28.83 12.36 28.57 13.24 27.92 13.8 27 14.36 26.08 14.52 24.99 14.26 23.95 14.05 23.11 13.58 22.38 12.93 21.84ZM11.49 18.42 18.58 4.71 19.63 4.32 18.59 5.98 11.15 20.95 11.08 20.95C11.08 20.95 11.49 18.42 11.49 18.42ZM12.1 25.98C11.82 26.45 11.37 26.78 10.83 26.92 9.72 27.19 8.61 26.52 8.33 25.41 8.06 24.31 8.73 23.19 9.83 22.92 9.92 22.9 10.01 22.89 10.1 22.88L10.77 22.91C10.99 22.96 11.2 23.03 11.4 23.15 11.87 23.43 12.2 23.88 12.34 24.42 12.47 24.95 12.39 25.51 12.1 25.98Z" stroke-width="0" fill="#7823DC"/></svg>