<svg viewBox="0 0 32 32" xmlns="http://www.w3.org/2000/svg" xmlns:xlink="http://www.w3.org/1999/xlink" id="Layer_1" overflow="hidden"><style>
.MsftOfcResponsive_Fill_7823dc {
 fill:#7823DC; 
}
</style>
<defs></defs><path d="M32 25 0 25 0 12.3C0 10.97 0.87 10 2.07 10L29.93 10C31.13 10 32 10.97 32 12.3L32 25ZM2 23 30 23 30 12.3C30 12.1 29.95 12.01 29.93 11.99L2.07 11.99C2.07 11.99 2 12.1 2 12.3L2 23Z" class="MsftOfcResponsive_Fill_7823dc" fill="#7823DC"/><path d="M23 8C20.79 8 19 6.21 19 4 19 1.79 20.79 0 23 0 25.21 0 27 1.79 27 4 27 6.21 25.21 8 23 8ZM23 2C21.9 2 21 2.9 21 4 21 5.1 21.9 6 23 6 24.1 6 25 5.1 25 4 25 2.9 24.1 2 23 2Z" class="MsftOfcResponsive_Fill_7823dc" fill="#7823DC"/><rect x="0" y="24" width="2" height="8" class="MsftOfcResponsive_Fill_7823dc" fill="#7823DC"/><rect x="30" y="24" width="2" height="8" class="MsftOfcResponsive_Fill_7823dc" fill="#7823DC"/><rect x="1" y="16.5" width="30" height="2" class="MsftOfcResponsive_Fill_7823dc" fill="#7823DC"/><rect x="7" y="11" width="2" height="13" class="MsftOfcResponsive_Fill_7823dc" fill="#7823DC"/><rect x="23" y="11" width="2" height="13" class="MsftOfcResponsive_Fill_7823dc" fill="#7823DC"/><rect x="15" y="11" width="2" height="13" class="MsftOfcResponsive_Fill_7823dc" fill="#7823DC"/></svg>