<svg viewBox="0 0 29.22 29.22" xmlns="http://www.w3.org/2000/svg" xmlns:xlink="http://www.w3.org/1999/xlink" id="Layer_5" overflow="hidden"><defs></defs><path d="M26.88 16.51 19 18.99 19 15.83 16.96 16.06 13.96 16.4 9.23 14.71 8.47 14.44 7.75 14.82 4.79 16.4-0.05 16.4-0.05 25.57 4.83 25.57 13.84 29.22 28.29 21.7 29.26 21.18 29.26 15.76 26.88 16.51 26.88 16.51ZM27.43 20.08 13.75 27.19 5.2 23.74 1.79 23.74 1.79 18.22 5.27 18.22 8.63 16.42 13.76 18.25 17.18 17.87 17.18 19.7 16.19 20.02 12.74 20.72 12.74 22.42 16.36 21.75 16.36 21.75C16.36 21.75 27.44 18.26 27.44 18.26L27.44 20.09 27.44 20.09Z" stroke-width="0" fill="#7823DC"/><path d="M27.76 4.96C27.76 2.22 25.54 0 22.8 0L22.8 0C20.06 0 17.84 2.22 17.84 4.96 17.84 7.36 19.54 9.36 21.81 9.82L21.81 11.9 19.83 11.9 19.83 13.88 21.81 13.88 21.81 15.86 23.79 15.86 23.79 13.88 25.77 13.88 25.77 11.9 23.79 11.9 23.79 9.82C26.05 9.36 27.76 7.36 27.76 4.96L27.76 4.96ZM22.8 7.93 22.8 7.93C21.16 7.93 19.83 6.6 19.83 4.96 19.83 3.32 21.16 1.99 22.8 1.99L22.8 1.99C24.44 1.99 25.77 3.32 25.77 4.96 25.77 6.6 24.44 7.93 22.8 7.93Z" stroke-width="0" fill="#7823DC"/></svg>