<svg viewBox="0 0 32.02 31.95" xmlns="http://www.w3.org/2000/svg" xmlns:xlink="http://www.w3.org/1999/xlink" id="Outline_Final_icon" overflow="hidden"><defs></defs><path d="M16.68 21.96C16.68 23.46 17.9 24.68 19.4 24.68 20.9 24.68 22.12 23.46 22.12 21.96 22.12 20.46 20.9 19.24 19.4 19.24 17.9 19.24 16.68 20.46 16.68 21.96ZM20.13 21.96C20.13 22.36 19.81 22.68 19.41 22.68 19.01 22.68 18.69 22.36 18.69 21.96 18.69 21.56 19.01 21.24 19.41 21.24 19.81 21.24 20.13 21.56 20.13 21.96Z" fill="#7823DC"/><path d="M14.4 13.08C14.4 10.95 12.96 10.3 11.36 9.96L11.36 7.59C11.77 7.79 12.06 8.19 12.13 8.66L12.24 9.17 14.23 9.17 14.11 8.43C13.93 6.96 12.79 5.8 11.35 5.59L11.35 4.69 9.36 4.69 9.36 5.59C8.05 5.86 6.62 6.79 6.62 8.58 6.62 10.55 7.91 11.19 9.36 11.55L9.36 14.29C8.79 14.05 8.38 13.5 8.32 12.85L8.24 12.3 6.26 12.3 6.33 13.01C6.47 14.69 7.73 16.04 9.37 16.29L9.37 17.2 11.36 17.2 11.36 16.33C13.24 16.05 14.4 14.83 14.4 13.09ZM9.37 9.51C8.66 9.25 8.6 8.95 8.6 8.55 8.62 8.07 8.94 7.66 9.37 7.51L9.37 9.5ZM11.36 14.4 11.36 12C12.24 12.26 12.39 12.58 12.39 13.16 12.39 13.81 12.05 14.22 11.36 14.4Z" fill="#7823DC"/><path d="M2 11.29C2 6.17 6.17 2 11.29 2 14.3 2 17.13 3.47 18.87 5.92L20.5 4.76C18.39 1.78 14.94 0 11.29 0 5.06 0 0 5.06 0 11.29 0 17.52 5.06 22.58 11.29 22.58L11.29 20.58C6.17 20.58 2 16.41 2 11.29Z" fill="#7823DC"/><path d="M32.02 28.13 32.02 26.13C32.02 26.13 15.5 26.15 15.5 26.15L15.5 17.51 17.36 16.15 31.99 16.15 31.99 14.15 19.4 14.15 22.47 9.59 31.99 9.59 31.99 7.59 21.41 7.59 17.27 13.74 13.5 16.49 13.5 28.15 15.21 28.15C15.21 28.15 15.21 31.95 15.21 31.95L22.39 31.95 22.39 28.14 32.01 28.14ZM20.4 29.95 17.22 29.95 17.22 28.15 20.4 28.15C20.4 28.15 20.4 29.95 20.4 29.95Z" fill="#7823DC"/><path d="M32.01 20.04 32 18.04 28.35 18.06 22.84 24.22 32 24.22 32 22.22 27.31 22.22 29.25 20.06 32.01 20.04Z" fill="#7823DC"/></svg>