<svg viewBox="0 0 32 32" xmlns="http://www.w3.org/2000/svg" xmlns:xlink="http://www.w3.org/1999/xlink" id="Layer_1" xml:space="preserve" overflow="hidden"><g id="Layer_2_00000153672027410828584440000004318808627006363015_"></g><path d="M6.6 18C6 18 5.5 18 5 18L5 15.8C7.1 15.9 10.3 15.9 13.1 14.8 15 14 17.5 12.2 18.7 11.3 19.7 10.6 19.8 10.5 20.2 10.5L20.4 10.5C21.6 10.7 21.7 11.9 21.8 12.5 21.9 13.2 22 13.6 22.4 13.8 23 14.1 24.2 14.3 26.8 13.7L27.3 15.8C24.6 16.4 22.7 16.4 21.5 15.7 20.3 15 20 14 19.9 13.2 18.5 14.2 16.1 16 13.9 16.9 11.4 17.8 8.8 18 6.6 18Z" fill="#7823DC"/><path d="M26.1 14.8 24 15.1C24.1 15.7 24.1 16.3 24.1 16.9 24.1 20.9 22 24.3 19.1 25.8 18.8 25.9 18.6 26 18.3 26.1 18.1 26.2 17.9 26.2 17.8 26.3L17.8 28.5C18 28.5 18.2 28.4 18.3 28.4 18.9 28.3 19.4 28.1 19.9 27.8 23.6 26.1 26.2 21.9 26.2 16.9 26.2 16.2 26.2 15.5 26.1 14.8ZM14 26.1C13.7 26 13.5 25.9 13.2 25.8 10.4 24.4 8.3 21.2 8.2 17.4L6.1 17.7C6.3 22.3 8.9 26.2 12.4 27.9 12.9 28.1 13.4 28.3 14 28.5 14.2 28.5 14.4 28.6 14.5 28.6L14.5 26.4C14.4 26.2 14.2 26.1 14 26.1Z" fill="#7823DC"/><g><path d="M14.6 26.2 14.6 32 12.5 32 12.5 25.7 13.3 25.7C13.6 25.8 13.8 25.9 14.1 26 14.2 26.1 14.4 26.1 14.6 26.2Z" fill="#7823DC"/><path d="M19.9 25.7 19.9 32 17.8 32 17.8 26.2C18 26.2 18.2 26.1 18.3 26.1 18.6 26 18.9 25.9 19.1 25.8L19.9 25.8C19.9 25.8 19.9 25.7 19.9 25.7Z" fill="#7823DC"/></g><path d="M5.2 28.8C4 28.8 3 27.8 3 26.6L3 14.1 1 14.1 1 26.6C1 28.9 2.9 30.8 5.2 30.8L6 30.8 6 28.7 5.2 28.7 5.2 28.8Z" fill="#7823DC"/><path d="M31.1 14.9 31.1 26.6C31.1 28.9 29.2 30.8 26.9 30.8L26.1 30.8 26.1 28.7 26.9 28.7C28.1 28.7 29.1 27.7 29.1 26.5L29.1 14.9C29.1 8 23.8 2.5 17 2.1L17 0C25 0.4 31.1 6.9 31.1 14.9Z" fill="#7823DC"/><path d="M14 26.1 14 29 14.5 29 14.5 26.3C14.4 26.2 14.2 26.1 14 26.1ZM17.8 26.2 17.8 28.9 18.3 28.9 18.3 26C18.1 26.1 17.9 26.2 17.8 26.2Z" fill="#7823DC"/><path d="M5.1 2.7 3.8 6.6 0 8 3.9 9.3 5.3 13.1 6.6 9.2 10.4 7.8 6.5 6.5Z" fill="#7823DC" fill-rule="evenodd" clip-rule="evenodd"/><path d="M12 6.8 12.8 4.3 15.3 3.3 12.8 2.5 11.8 0 11 2.5 8.5 3.5 11 4.3Z" fill="#7823DC" fill-rule="evenodd" clip-rule="evenodd"/><g><g><path d="M12.5 21C11.2 21 10.2 20.2 9.9 19.9L10.5 18.2C10.8 18.5 11.6 19.2 12.7 19.1 13.6 19 14.3 18.5 14.6 18.2L15.2 19.9C14.8 20.3 14 21 12.8 21 12.7 21 12.6 21 12.5 21Z" fill="#7823DC"/></g><g><path d="M20 21C18.7 21 17.7 20.2 17.4 19.9L18 18.2C18.3 18.5 19.1 19.2 20.2 19.1 21.1 19 21.8 18.5 22.1 18.2L22.7 19.9C22.3 20.3 21.5 21 20.3 21 20.2 21 20.1 21 20 21Z" fill="#7823DC"/></g><g><path d="M16 25C14.7 25 13.7 24.2 13.4 23.9L14 22.2C14.3 22.5 15.1 23.2 16.2 23.1 17.1 23 17.8 22.5 18.1 22.2L18.7 23.9C18.3 24.3 17.5 25 16.3 25 16.2 25 16.1 25 16 25Z" fill="#7823DC"/></g></g></svg>