<svg viewBox="0 0 32 32" xmlns="http://www.w3.org/2000/svg" xmlns:xlink="http://www.w3.org/1999/xlink" id="Layer_2_1_" xml:space="preserve" overflow="hidden"><style>
.MsftOfcResponsive_Fill_7823dc {
 fill:#7823DC; 
}
</style>
<path d="M32 29.4 32 32 20.4 22.8 21.6 21.2Z" class="MsftOfcResponsive_Fill_7823dc" fill="#7823DC"/><line x1="17.7" y1="18.8" x2="17.7" y2="18.8" stroke="#231F20" stroke-width="1.2718" stroke-miterlimit="8" fill="none"/><g><path d="M12.9 2C18.9 2 23.8 6.9 23.8 12.9 23.8 18.9 18.9 23.8 12.9 23.8 6.9 23.8 2 18.9 2 12.9 2 6.9 6.9 2 12.9 2M12.9 0C5.8 0 0 5.8 0 12.9 0 20 5.8 25.8 12.9 25.8 20 25.8 25.8 20 25.8 12.9 25.8 5.8 20 0 12.9 0L12.9 0 12.9 0 12.9 0Z" class="MsftOfcResponsive_Fill_7823dc" fill="#7823DC" fill-rule="evenodd" clip-rule="evenodd"/><g><path d="M13.5 6.2 12.9 14.4 12.3 6.2 13.5 6.2M15.9 4 9.9 4 10.9 17 14.9 17 15.9 4 15.9 4Z" class="MsftOfcResponsive_Fill_7823dc" fill="#7823DC"/></g><g><path d="M12.9 18C11.8 18 10.9 18.9 10.9 20 10.9 21.1 11.8 22 12.9 22 14 22 14.9 21.1 14.9 20 14.9 18.9 14 18 12.9 18L12.9 18Z" class="MsftOfcResponsive_Fill_7823dc" fill="#7823DC"/></g></g></svg>