<svg viewBox="0 0 32 32" xmlns="http://www.w3.org/2000/svg" xmlns:xlink="http://www.w3.org/1999/xlink" xml:space="preserve" overflow="hidden"><style>
.MsftOfcResponsive_Fill_7823dc {
 fill:#7823DC; 
}
</style>
<g id="Layer_3"></g><g id="Layer_1"></g><g id="Layer_2"><g><path d="M24.29 16.4 20.43 16.4 19.64 13.8C19.56 13.8 19.48 13.72 19.48 13.72L16.8 14.27 14.91 10.89 16.72 8.92C16.72 8.84 16.72 8.76 16.72 8.68L14.91 6.71 16.8 3.33 19.48 3.88C19.56 3.88 19.64 3.8 19.64 3.8L20.51 1.2 24.37 1.2 25.24 3.87C25.32 3.87 25.4 3.95 25.4 3.95L28.08 3.4 29.97 6.7 28.16 8.74 28.16 8.82C28.16 8.9 28.16 8.9 28.16 8.98L29.97 10.95 28.08 14.33 25.4 13.78C25.32 13.78 25.24 13.86 25.24 13.86L24.29 16.4 24.29 16.4 24.29 16.4ZM21.77 14.67 23.03 14.67 23.74 12.55 24.13 12.39C24.37 12.31 24.52 12.15 24.68 12.08L25 11.84 27.21 12.31 27.84 11.21 26.42 9.64 26.42 9.24C26.42 9.08 26.42 8.93 26.42 8.85L26.42 8.06 27.84 6.49 27.2 5.47 25 5.94 24.68 5.63C24.52 5.47 24.29 5.39 24.13 5.32L23.74 5.16 23.03 3.04 21.77 3.04 21.06 5.16 20.74 5.24C20.5 5.32 20.35 5.48 20.11 5.55L19.8 5.78 17.67 5.31 17.04 6.41 18.54 8.06 18.46 8.45C18.46 8.69 18.46 8.92 18.46 9.08L18.54 9.47 17.04 11.12 17.67 12.22 19.8 11.75 20.12 11.99C20.28 12.15 20.51 12.23 20.75 12.3L21.14 12.46 21.77 14.67 21.77 14.67 21.77 14.67Z" class="MsftOfcResponsive_Fill_7823dc" fill="#7823DC"/><path d="M22.4 11.52C20.9 11.52 19.72 10.34 19.72 8.85 19.72 7.36 20.9 6.18 22.4 6.18 23.9 6.18 25.08 7.36 25.08 8.85 25.07 10.26 23.89 11.52 22.4 11.52L22.4 11.52ZM22.4 7.9C21.93 7.9 21.53 8.29 21.53 8.77 21.53 9.24 21.92 9.64 22.4 9.64 22.87 9.64 23.27 9.25 23.27 8.77 23.26 8.3 22.87 7.9 22.4 7.9L22.4 7.9Z" class="MsftOfcResponsive_Fill_7823dc" fill="#7823DC"/></g><path d="M29.38 18.43 21.07 21.04 21.07 19.86 21.07 17.7 18.92 17.94 15.76 18.3 10.77 16.53 9.96 16.24 9.21 16.65 6.09 18.32 2.9 18.32 0.97 18.32 0.97 20.25 0.97 26.07 0.97 28 2.9 28 6.11 28 15.62 31.85 30.87 23.91 31.89 23.37 31.89 22.2 31.89 20.27 31.89 17.64 29.38 18.43 29.38 18.43 29.38 18.43ZM29.96 22.2 15.53 29.7 6.51 26.06 2.9 26.06 2.9 20.24 6.56 20.24 10.11 18.34 15.52 20.27 19.12 19.86 19.12 21.79 18.08 22.13 14.45 22.86 14.45 24.65 18.27 23.95 18.27 23.94 29.96 20.26 29.96 22.2 29.96 22.2 29.96 22.2Z" class="MsftOfcResponsive_Fill_7823dc" fill="#7823DC"/></g></svg>