<svg width="32" height="31.95" viewBox="0 0 32 31.95" xmlns="http://www.w3.org/2000/svg" xmlns:xlink="http://www.w3.org/1999/xlink" overflow="hidden"><style>
.MsftOfcResponsive_Fill_7823dc {
 fill:#7823DC; 
}
</style>
<defs></defs><path d="M29.4 18.05 20.8 20.76 20.8 19.54 20.8 17.3 18.58 17.55 15.31 17.92 10.15 16.08 9.31 15.78 8.53 16.2 5.3 17.93 2 17.93 0 17.93 0 19.93 0 25.96 0 27.96 2 27.96 5.32 27.96 15.16 31.95 30.94 23.72 32 23.15 32 21.95 32 19.95 32 17.22 29.4 18.05ZM30 21.96 15.07 29.73 5.74 25.96 2 25.96 2 19.93 5.79 19.93 9.46 17.96 15.06 19.96 18.79 19.54 18.79 21.54 17.71 21.89 13.95 22.65 13.95 24.51 17.9 23.78 17.9 23.77 30 19.96 30 21.96Z" class="MsftOfcResponsive_Fill_7823dc" fill="#7823DC"/><path d="M23.35 14.3 23.35 17.65C25.21 15.78 26.36 13.2 26.36 10.36 26.36 4.65 21.71 0 16 0 10.29 0 5.64 4.65 5.64 10.36 5.64 12.05 6.05 13.64 6.77 15.05L8.54 14.09C8.12 13.25 7.82 12.33 7.7 11.36L11.27 11.36C11.31 12.34 11.41 13.31 11.57 14.23L13.78 15.01C13.52 13.97 13.34 12.74 13.27 11.36L18.71 11.36C18.64 13.01 18.38 14.44 18.04 15.6L20.18 15.37C20.47 14.12 20.66 12.75 20.71 11.36L24.28 11.36C24.17 12.41 23.84 13.4 23.35 14.3ZM11.28 9.36 7.71 9.36C8.07 6.35 10.04 3.82 12.73 2.67 11.87 4.43 11.38 6.86 11.28 9.36ZM13.28 9.36C13.48 4.9 14.98 2 16 2 17.02 2 18.52 4.9 18.72 9.36L13.28 9.36ZM20.72 9.36C20.62 6.86 20.13 4.43 19.27 2.67 21.96 3.82 23.93 6.35 24.29 9.36L20.72 9.36Z" class="MsftOfcResponsive_Fill_7823dc" fill="#7823DC"/><path d="" class="MsftOfcResponsive_Fill_7823dc" fill="#7823DC"/><g><path d="M24.11 12.23C23.86 13.3 23.41 14.3 22.79 15.17L22.79 18.14C24.51 16.63 25.72 14.56 26.15 12.23L24.11 12.23Z" class="MsftOfcResponsive_Fill_7823dc" fill="#7823DC"/></g></svg>