<svg viewBox="0 0 32 31.96" xmlns="http://www.w3.org/2000/svg" xmlns:xlink="http://www.w3.org/1999/xlink" id="Layer_2" overflow="hidden"><defs></defs><path d="M25.7 27.71 25.13 24.81 26.48 21.49 25.94 16.72 26.82 18.23 26.82 21.13 28.82 21.13 28.82 17.69 26.87 14.34 25 14.34C25.4 14.27 25.79 14.12 26.14 13.86 27.3 12.99 27.54 11.36 26.68 10.19 25.81 9.03 24.16 8.79 23 9.65 22.44 10.07 22.07 10.68 21.97 11.38 21.87 12.08 22.05 12.77 22.46 13.33 22.91 13.93 23.56 14.26 24.25 14.35L22.17 14.35 20.6 16.62 16.99 14.37 16.99 7.27 25.69 7.27 23.53 3.64 25.69 0.01 15 0.01 15 0.04 14.99 0.04 14.99 12.83 12.3 14.22 10.69 11.91 8.71 11.91C9.39 11.8 9.99 11.44 10.4 10.89 11.27 9.73 11.02 8.09 9.86 7.23 8.7 6.37 7.05 6.6 6.19 7.77 5.77 8.33 5.6 9.02 5.7 9.71 5.8 10.41 6.17 11.02 6.73 11.44 7.07 11.69 7.46 11.86 7.86 11.92L6 11.92 4.05 15.27 4.05 19.33 6.05 19.33 6.05 15.8 6.93 14.3 6.39 19.07 7.75 22.38 6.73 27.62 0 29.86 0 31.87 0.03 31.96 16 26.51 31.98 31.92 32 31.86 32 29.82 25.7 27.7ZM17 2 22.18 2 21.21 3.63 22.18 5.26 17 5.26 17 2ZM7.93 9.81C7.65 9.6 7.6 9.21 7.8 8.93L7.81 8.93C7.93 8.77 8.12 8.68 8.31 8.68 8.44 8.68 8.57 8.72 8.68 8.8 8.96 9.01 9.01 9.4 8.81 9.68 8.6 9.96 8.21 10.01 7.93 9.81ZM8.9 26.84 9.82 22.14 8.43 18.74 8.44 18.74 8.69 16.56 9.35 18.74 11.58 20.72 11.73 25.88 8.9 26.83ZM15 24.79 13.72 25.22 13.56 19.81 11.11 17.63 10.22 14.69 11.68 16.79 15 15.06 15 24.78ZM19.21 25.52 17 24.78 17 16.71 21.17 19.3 22.67 17.14 21.78 20.08 19.33 22.26 19.21 25.52ZM23.51 26.98 21.18 26.2 21.29 23.2 23.52 21.21 23.52 21.21 24.18 19.02 24.43 21.21 23.04 24.6 23.5 26.98ZM24.06 12.14C23.85 11.86 23.91 11.47 24.19 11.26L24.2 11.26C24.31 11.18 24.44 11.14 24.57 11.14 24.76 11.14 24.95 11.23 25.07 11.39 25.28 11.67 25.22 12.06 24.94 12.27 24.66 12.48 24.27 12.42 24.06 12.14Z" fill="#7823DC"/></svg>