<svg width="32" height="31.9" viewBox="0 0 32 31.9" xmlns="http://www.w3.org/2000/svg" xmlns:xlink="http://www.w3.org/1999/xlink" overflow="visible"><defs></defs><path d="M0 0 12 19.5 12 31.9 19.9 26.3 19.9 19.7 22.6 15.4 23.6 13.7 26.7 8.6 27.7 6.9 32 0 0 0ZM25.9 6.1 24.7 8 22.2 12.1 21 14 18.2 18.6 17.9 19.1 17.9 25.2 14 28 14 18.9 13.7 18.4 3.6 2 28.4 2 25.9 6.1Z" fill="#7823DC"/><path d="M27.8 6.8C27.2 6.4 26.6 6.2 25.9 6L24.7 8C24.8 8 24.9 8 25 8 25.6 8 26.2 8.2 26.7 8.5 27.5 9.1 28 10 28 11 28 12.7 26.7 14 25 14 24.5 14 24 13.9 23.6 13.7 23 13.4 22.5 12.8 22.2 12.1L21 14C21.4 14.5 21.9 15 22.5 15.3 23.2 15.7 24.1 15.9 25 15.9 27.8 15.9 30 13.7 30 10.9 30 9.3 29.1 7.8 27.8 6.8Z" fill="#7823DC"/></svg>