<svg viewBox="0 0 32 31.87" xmlns="http://www.w3.org/2000/svg" xmlns:xlink="http://www.w3.org/1999/xlink" id="Grid" overflow="hidden"><defs></defs><path d="M28.18 0 27.93 1.99 3.93 1.99 3.82 0" fill="#7823DC"/><path d="M28.18 4 27.93 5.99 3.93 5.99 3.82 4" fill="#7823DC"/><path d="M3.82 0.02 5.8 0.27 1.98 30.17 0 29.92 3.82 0.02 3.82 0.02Z" fill="#7823DC"/><path d="M28.18 0.02 26.2 0.27 30.02 30.17 32 29.92 28.18 0.02 28.18 0.02Z" fill="#7823DC"/><path d="M21.18 15.13 23.16 15.22 21 31.87 19.02 31.87" fill="#7823DC"/><path d="M23.15 15.15 21.17 15.11 23.35 31.87 25.33 31.87" fill="#7823DC"/><g><path d="M21 31.82 21 29.88 0 29.88 0 31.87 21 31.87 21 31.87 21 31.82Z" fill="#7823DC"/><path d="M32 29.88 23.35 29.88 23.35 31.87 23.35 31.87 23.35 31.87 32 31.87 32 29.88Z" fill="#7823DC"/></g></svg>