<svg width="60.5" height="32" viewBox="0 0 60.5 32" xmlns="http://www.w3.org/2000/svg" xmlns:xlink="http://www.w3.org/1999/xlink" overflow="hidden"><defs></defs><g><g><defs><rect x="28.5" y="0" width="32" height="32" id="SVGID_1_" fill="#7823DC"/></defs><clipPath id="SVGID_2_"><use width="100%" height="100%" xlink:href="#SVGID_1_"></use></clipPath><g clip-path="url(#SVGID_2_)"><defs><rect x="28.5" y="0" width="32" height="32" id="SVGID_3_" fill="#7823DC"/></defs><clipPath id="SVGID_4_"><use width="100%" height="100%" xlink:href="#SVGID_3_"></use></clipPath><g clip-path="url(#SVGID_4_)"><text fill="#7823DC" font-family="Graphik-Regular" font-size="22" transform="matrix(1 0 0 1 0 23.8594)">5</text></g><path d="M6.2 24.1C9.2 24.1 11.6 22.1 11.6 18.8 11.6 15.6 9.5 13.6 6.7 13.6 5.2 13.6 4.1 14.1 3.5 14.7L3.5 9.8 10.8 9.8 10.8 8.1 1.9 8.1 1.9 16.5 2.6 16.5C3.4 15.6 4.5 15 6.3 15 8.3 15 9.6 16.5 9.6 18.7 9.6 21.1 8.3 22.5 6.1 22.5 3.7 22.5 3 21.3 2.7 19.6L0.9 19.6C1.2 22.2 2.8 24.1 6.2 24.1Z" stroke="#6C4D9F" stroke-width="0.3" stroke-miterlimit="10" fill="#7823DC" clip-path="url(#SVGID_4_)"/></g></g></g><g><path d="M44.5 32C35.7 32 28.5 24.8 28.5 16 28.5 7.2 35.7 0 44.5 0 53.3 0 60.5 7.2 60.5 16 60.5 24.8 53.3 32 44.5 32ZM44.5 2C36.8 2 30.5 8.3 30.5 16 30.5 23.7 36.8 30 44.5 30 52.2 30 58.5 23.7 58.5 16 58.5 8.3 52.2 2 44.5 2Z" fill="#7823DC"/><g><path d="M38.7 16.9 38.7 16.5C38.7 10.8 41.3 7.9 44.9 7.9 47.3 7.9 49.1 9.2 49.5 11.7L47.7 11.7C47.3 10.2 46.6 9.5 44.8 9.5 42.4 9.5 40.8 11.6 40.7 15.8 41.4 14.5 42.9 13.7 44.7 13.7 47.8 13.7 49.8 16 49.8 18.8 49.8 21.9 47.7 24.1 44.4 24.1 40.1 24.1 38.7 20.8 38.7 16.9ZM47.9 18.9C47.9 16.6 46.5 15.2 44.4 15.2 42.3 15.2 40.8 16.6 40.8 18.7 40.8 21.3 42.3 22.6 44.4 22.6 46.5 22.6 47.9 21.1 47.9 18.9Z" fill="#7823DC"/></g></g></svg>