<svg viewBox="0 0 32 32" xmlns="http://www.w3.org/2000/svg" xmlns:xlink="http://www.w3.org/1999/xlink" id="Layer_1" overflow="hidden"><style>
.MsftOfcThm_Text2_Fill_v2 {
 fill:#7823DC; 
}
</style>
<defs></defs><rect x="26.83" y="12" width="5.17" height="2" class="MsftOfcThm_Text2_Fill_v2" stroke-width="0" fill="#7823DC"/><path d="M22.91 19 19.19 19C16.69 19 14.32 17.83 12.88 15.9L9.27 15.9 9.27 13.9 13.95 13.9 14.24 14.37C15.25 15.97 17.19 17 19.18 17L22.9 17 22.9 19Z" class="MsftOfcThm_Text2_Fill_v2" stroke-width="0" fill="#7823DC"/><path d="M4.62 32C2.07 32 0 29.93 0 27.38 0 24.83 2.07 22.76 4.62 22.76 7.17 22.76 9.24 24.83 9.24 27.38 9.24 29.93 7.17 32 4.62 32ZM4.62 24.77C3.18 24.77 2 25.94 2 27.39 2 28.84 3.17 30.01 4.62 30.01 6.07 30.01 7.24 28.84 7.24 27.39 7.24 25.94 6.07 24.77 4.62 24.77Z" class="MsftOfcThm_Text2_Fill_v2" stroke-width="0" fill="#7823DC"/><path d="M18.05 32C16.07 32 14.47 30.39 14.47 28.42 14.47 26.45 16.08 24.84 18.05 24.84 20.02 24.84 21.63 26.45 21.63 28.42 21.63 30.39 20.02 32 18.05 32ZM18.05 26.83C17.18 26.83 16.47 27.54 16.47 28.41 16.47 29.28 17.18 29.99 18.05 29.99 18.92 29.99 19.63 29.28 19.63 28.41 19.63 27.54 18.92 26.83 18.05 26.83Z" class="MsftOfcThm_Text2_Fill_v2" stroke-width="0" fill="#7823DC"/><rect x="8.23" y="26.9" width="7.34" height="2" class="MsftOfcThm_Text2_Fill_v2" stroke-width="0" fill="#7823DC"/><rect x="15.47" y="5" width="5.17" height="2" class="MsftOfcThm_Text2_Fill_v2" stroke-width="0" fill="#7823DC"/><path d="M27.83 27.87 22.7 27.87 22.7 25.87 25.83 25.87 25.83 23.73 22.7 23.73 22.7 21.73 27.83 21.73 27.83 27.87Z" class="MsftOfcThm_Text2_Fill_v2" stroke-width="0" fill="#7823DC"/><path d="M32 29.93 25.83 29.93 25.83 0 27.83 0 27.83 27.93 32 27.93 32 29.93Z" class="MsftOfcThm_Text2_Fill_v2" stroke-width="0" fill="#7823DC"/><path d="M3.03 24.9 1.03 24.9 1.03 19.67 7 19.67 7 21.67 3.03 21.67 3.03 24.9Z" class="MsftOfcThm_Text2_Fill_v2" stroke-width="0" fill="#7823DC"/><path d="M10.27 16.45 8.27 16.45 8.27 5 19.25 5 19.25 7 10.27 7 10.27 16.45Z" class="MsftOfcThm_Text2_Fill_v2" stroke-width="0" fill="#7823DC"/><path d="M10.27 21.67 4.51 21.67 4.51 19.67 8.27 19.67 8.27 14.56 10.27 14.56 10.27 21.67Z" class="MsftOfcThm_Text2_Fill_v2" stroke-width="0" fill="#7823DC"/><path d="M22.9 28.9 20.94 28.9 20.94 26.9 21.39 26.9C23.13 20.01 20.88 12.65 15.53 7.97L14.18 6.74 15.53 5.26 16.87 6.48C22.97 11.82 25.43 20.35 23.12 28.19L22.91 28.91Z" class="MsftOfcThm_Text2_Fill_v2" stroke-width="0" fill="#7823DC"/></svg>