<svg viewBox="0 0 32.06 32.06" xmlns="http://www.w3.org/2000/svg" xmlns:xlink="http://www.w3.org/1999/xlink" id="Layer_1" overflow="hidden"><style>
.MsftOfcResponsive_Fill_7823dc {
 fill:#7823DC; 
}
</style>
<defs></defs><path d="M3 28 0 28 0 26 3 26C5.9 26 8 23.48 8 20L8 8.26C8 3.47 11.13 0 15.45 0L16.66 0C21.21 0 24.92 3.7 24.92 8.26L24.92 15.4 22.92 15.4 22.92 8.26C22.92 4.81 20.11 2 16.66 2L15.45 2C12.24 2 10 4.57 10 8.26L10 20C10 24.64 7.06 28 3 28Z" class="MsftOfcResponsive_Fill_7823dc" fill="#7823DC"/><g><path d="M24.03 32.06C19.6 32.06 16 28.46 16 24.03L16 15.49C16 11.06 19.6 7.46 24.03 7.46 28.46 7.46 32.06 11.06 32.06 15.49L32.06 24.03C32.06 28.46 28.46 32.06 24.03 32.06ZM24.03 9.46C20.71 9.46 18 12.16 18 15.49L18 24.03C18 27.35 20.71 30.06 24.03 30.06 27.35 30.06 30.06 27.36 30.06 24.03L30.06 15.49C30.06 12.17 27.35 9.46 24.03 9.46Z" class="MsftOfcResponsive_Fill_7823dc" fill="#7823DC"/><path d="M22.38 19.27 17 19.27C16.45 19.27 16 18.82 16 18.27 16 17.72 16.45 17.27 17 17.27L22.38 17.27C22.93 17.27 23.38 17.72 23.38 18.27 23.38 18.82 22.93 19.27 22.38 19.27Z" class="MsftOfcResponsive_Fill_7823dc" fill="#7823DC"/><path d="M31.06 19.27 25.68 19.27C25.13 19.27 24.68 18.82 24.68 18.27 24.68 17.72 25.13 17.27 25.68 17.27L31.06 17.27C31.61 17.27 32.06 17.72 32.06 18.27 32.06 18.82 31.61 19.27 31.06 19.27Z" class="MsftOfcResponsive_Fill_7823dc" fill="#7823DC"/><path d="M24.03 23.57C22.57 23.57 21.38 22.38 21.38 20.92L21.38 16.23C21.38 14.77 22.57 13.58 24.03 13.58 25.49 13.58 26.68 14.77 26.68 16.23L26.68 20.92C26.68 22.38 25.49 23.57 24.03 23.57ZM24.03 15.58C23.67 15.58 23.38 15.87 23.38 16.23L23.38 20.92C23.38 21.28 23.67 21.57 24.03 21.57 24.39 21.57 24.68 21.28 24.68 20.92L24.68 16.23C24.68 15.87 24.39 15.58 24.03 15.58Z" class="MsftOfcResponsive_Fill_7823dc" fill="#7823DC"/></g></svg>