<svg viewBox="0 0 31.99 31.98" xmlns="http://www.w3.org/2000/svg" xmlns:xlink="http://www.w3.org/1999/xlink" id="Layer_1" overflow="hidden"><style>
.MsftOfcResponsive_Fill_7823dc {
 fill:#7823DC; 
}
</style>
<defs></defs><path d="M27.31 4.68C21.07-1.56 10.92-1.56 4.68 4.68-1.56 10.92-1.56 21.07 4.68 27.31 7.8 30.43 11.9 31.99 15.99 31.99 20.08 31.99 24.19 30.43 27.3 27.31 33.54 21.07 33.54 10.92 27.3 4.68ZM23.22 25.97 25.81 25.97C24.78 26.98 23.64 27.8 22.42 28.43L23.22 25.97ZM22.97 23.97 20.28 20.65 21.92 15.6 26.37 13.77 29.97 16.39C29.9 19.05 29.07 21.7 27.49 23.97L22.96 23.97ZM8.79 25.97 9.59 28.43C8.37 27.8 7.22 26.98 6.19 25.97L8.79 25.97ZM9.04 23.97 4.51 23.97C2.93 21.69 2.1 19.04 2.03 16.38L5.63 13.76 10.09 15.6 11.73 20.65 9.04 23.97ZM4.32 12.24 2.2 13.78C2.42 12.38 2.85 11.01 3.5 9.71L4.32 12.24ZM13.57 19.85 12.07 15.23 16 12.37 19.93 15.23 18.43 19.85 13.57 19.85ZM27.68 12.24 28.5 9.71C29.15 11.01 29.58 12.38 29.81 13.79L27.68 12.24ZM27.11 7.5 25.69 11.87 21.24 13.7 17 10.62 17 5.5 20.69 2.82C22.59 3.49 24.38 4.57 25.9 6.09 26.35 6.54 26.74 7.01 27.11 7.5ZM15.99 2C16.72 2 17.44 2.07 18.16 2.18L16 3.75 13.84 2.18C14.56 2.07 15.28 2 16 2ZM11.3 2.82 14.99 5.5 14.99 10.63 10.75 13.71 6.3 11.88 4.88 7.51C5.25 7.02 5.65 6.55 6.1 6.1 7.62 4.58 9.41 3.5 11.31 2.83ZM11.99 29.41 10.62 25.18 13.31 21.86 18.67 21.86 21.36 25.19 19.99 29.42C17.38 30.19 14.6 30.19 11.99 29.42Z" class="MsftOfcResponsive_Fill_7823dc" fill="#7823DC"/></svg>