<svg viewBox="0 0 32 32" xmlns="http://www.w3.org/2000/svg" xmlns:xlink="http://www.w3.org/1999/xlink" xml:space="preserve" overflow="hidden"><style>
.MsftOfcResponsive_Fill_7823dc {
 fill:#7823DC; 
}
</style>
<g id="Layer_3"></g><g id="Layer_1"><path d="M15.39 24.27C15.19 23.47 13.8 16.27 12.81 14.67 11.02 11.67 7.75 9.87 4.17 9.87 2.68 9.87 1.19 10.17 0 10.77L0 12.37C1.29 11.57 2.78 11.17 4.27 11.17 4.37 11.17 4.37 11.17 4.37 11.17 7.45 11.17 10.23 12.77 11.81 15.37 12.41 16.37 13.4 20.57 13.99 23.67L11.11 23.67 11.21 23.97 11.51 24.87 11.61 25.07 15.58 25.07 15.39 24.27 15.39 24.27 15.39 24.27Z" class="MsftOfcResponsive_Fill_7823dc" fill="#7823DC" fill-rule="evenodd" clip-rule="evenodd"/><path d="M15.73 24.17C15.73 24.07 15.63 23.67 15.53 23.27 14.73 19.58 13.84 15.69 13.14 14.6 11.25 11.51 7.86 9.62 4.18 9.62 2.69 9.62 1.19 9.92 0 10.52L0 11.22C1.29 10.62 2.69 10.22 4.18 10.22 7.67 10.22 10.75 12.01 12.54 14.9 13.34 16.1 14.43 21.28 14.83 23.37 14.93 23.87 15.03 24.17 15.03 24.37L15.13 24.77 11.94 24.77 11.64 23.97 11.64 23.97 14.53 23.97 14.43 23.57C13.73 20.48 12.84 16.19 12.14 15.2 10.45 12.51 7.56 10.81 4.27 10.81 2.68 10.81 1.28 11.21-0.01 12.01L-0.01 12.71C1.28 11.91 2.78 11.51 4.37 11.51 7.36 11.51 10.05 13.01 11.64 15.6 12.24 16.5 13.13 20.48 13.73 23.37L10.74 23.37 10.84 23.67 10.94 23.87 11.54 25.27 16.02 25.27 15.73 24.17 15.73 24.17 15.73 24.17Z" class="MsftOfcResponsive_Fill_7823dc" fill="#7823DC" fill-rule="evenodd" clip-rule="evenodd"/><path d="M11.94 31.52 5.56 31.52 5.56 30.13 10.55 30.13 10.55 23.66 11.94 23.66 11.94 31.52Z" class="MsftOfcResponsive_Fill_7823dc" fill="#7823DC" fill-rule="evenodd" clip-rule="evenodd"/><path d="M10.21 23.45 10.21 29.97 5.24 29.97 5.24 31.98 12.2 31.98 12.2 23.36 10.21 23.36 10.21 23.45 10.21 23.45ZM11.6 31.37 5.83 31.37 5.83 30.57 10.8 30.57 10.8 23.95 11.6 23.95 11.6 31.37 11.6 31.37 11.6 31.37Z" class="MsftOfcResponsive_Fill_7823dc" fill="#7823DC" fill-rule="evenodd" clip-rule="evenodd"/><path d="M16.55 24.27C16.75 23.47 18.14 16.27 19.14 14.67 20.93 11.67 24.22 9.87 27.81 9.87 29.31 9.87 30.8 10.17 32 10.77L32 12.37C30.7 11.57 29.21 11.17 27.71 11.17 27.61 11.17 27.61 11.17 27.61 11.17 24.52 11.17 21.73 12.77 20.13 15.37 19.53 16.37 18.54 20.57 17.94 23.67L20.83 23.67 20.73 23.97 20.43 24.87 20.33 25.07 16.34 25.07 16.55 24.27 16.55 24.27 16.55 24.27Z" class="MsftOfcResponsive_Fill_7823dc" fill="#7823DC" fill-rule="evenodd" clip-rule="evenodd"/><path d="M16.27 24.17C16.27 24.07 16.37 23.67 16.47 23.27 17.27 19.58 18.16 15.69 18.86 14.6 20.75 11.51 24.14 9.62 27.82 9.62 29.31 9.62 30.81 9.92 32 10.52L32 11.22C30.71 10.62 29.31 10.22 27.82 10.22 24.33 10.22 21.25 12.01 19.46 14.9 18.66 16.1 17.57 21.28 17.17 23.37 17.07 23.87 16.97 24.17 16.97 24.37L16.87 24.77 20.06 24.77 20.36 23.97 20.36 23.97 17.47 23.97 17.57 23.57C18.27 20.48 19.16 16.19 19.86 15.2 21.55 12.51 24.44 10.81 27.73 10.81 29.32 10.81 30.72 11.21 32.01 12.01L32.01 12.71C30.72 11.91 29.22 11.51 27.63 11.51 24.64 11.51 21.95 13.01 20.36 15.6 19.76 16.5 18.87 20.48 18.27 23.37L21.26 23.37 21.16 23.67 21.06 23.87 20.46 25.27 15.98 25.27 16.27 24.17 16.27 24.17 16.27 24.17Z" class="MsftOfcResponsive_Fill_7823dc" fill="#7823DC" fill-rule="evenodd" clip-rule="evenodd"/><path d="M20.06 31.52 26.38 31.52 26.38 30.13 21.44 30.13 21.44 23.66 20.06 23.66 20.06 31.52Z" class="MsftOfcResponsive_Fill_7823dc" fill="#7823DC" fill-rule="evenodd" clip-rule="evenodd"/><path d="M21.73 23.45 21.73 29.97 26.7 29.97 26.7 31.98 19.74 31.98 19.74 23.36 21.73 23.36 21.73 23.45 21.73 23.45ZM20.33 31.37 26.1 31.37 26.1 30.57 21.13 30.57 21.13 23.95 20.33 23.95 20.33 31.37 20.33 31.37 20.33 31.37Z" class="MsftOfcResponsive_Fill_7823dc" fill="#7823DC" fill-rule="evenodd" clip-rule="evenodd"/><path d="M19.15 0 11.3 0 11.3 8.99 13.98 8.99 13.98 12.31 20.46 8.99 23.22 8.99 23.22 3.91 19.15 0ZM21.22 6.99 20.13 6.99 16.06 8.81 16.06 6.99 13.28 6.99 13.28 2 21.22 2 21.22 6.99Z" class="MsftOfcResponsive_Fill_7823dc" fill="#7823DC"/></g><g id="Layer_2"></g></svg>