<svg viewBox="0 0 31.93 31.9" xmlns="http://www.w3.org/2000/svg" xmlns:xlink="http://www.w3.org/1999/xlink" id="Outline_Final_icon" overflow="hidden"><defs></defs><path d="M27.74 17.1 31.93 15.77 29.75 8.46 25.34 9.68 24.64 8.76 27.01 4.49 20.02 0.74 17.71 4.44 16.73 4.16 15.47 0 7.5 2.23 8.57 6.49 7.67 7.28 3.64 5.32 0 12.43 4.15 14.61 5.08 12.84 2.68 11.58 4.52 7.98 7.98 9.65 10.8 7.2 9.91 3.63 14.13 2.45 15.13 5.78 18.6 6.79 20.73 3.39 24.28 5.29 22.26 8.93 24.57 11.97 28.39 10.91 29.45 14.46 25.98 15.56 25.28 19.41 28.61 21.14 26.91 24.81 23.97 23.49 23.15 25.31 27.9 27.45 31.23 20.25 27.51 18.32 27.74 17.1Z" fill="#7823DC"/><rect x="6.18" y="29.9" width="13.39" height="2" fill="#7823DC"/><path d="M20.27 14.25 19.52 12.26 15.81 10.7 15.64 8.09 13.76 8.09 7.56 13.1 5.56 19.48 6.98 28.79 18.52 28.79 18.72 24.41 15.89 19.83 18.04 19.71 21.93 21.25 24.13 16.45 20.26 14.26ZM20.91 18.69 18.37 17.69 16.23 17.81 15.22 17.29 13.21 19.3 16.69 24.95 16.61 26.8 8.7 26.8 7.61 19.64 9.29 14.28 13.8 10.63 13.89 12.07 17.95 13.78 18.65 15.64 21.55 17.28 20.9 18.69Z" fill="#7823DC"/></svg>