<svg viewBox="0 0 32.02 32" xmlns="http://www.w3.org/2000/svg" xmlns:xlink="http://www.w3.org/1999/xlink" id="Layer_1" overflow="hidden"><style>
.MsftOfcResponsive_Fill_7823dc {
 fill:#7823DC; 
}
</style>
<defs></defs><path d="M26.02 0 23.97 0C23.97 4.42 27.55 8 31.97 8L32.02 8 32.02 6C28.7 6 26.02 3.31 26.02 0Z" class="MsftOfcResponsive_Fill_7823dc" fill="#7823DC"/><rect x="6" y="28" width="25.98" height="2" class="MsftOfcResponsive_Fill_7823dc" fill="#7823DC"/><rect x="7.15" y="24" width="24.83" height="2" class="MsftOfcResponsive_Fill_7823dc" fill="#7823DC"/><rect x="27.98" y="28" width="2" height="4" class="MsftOfcResponsive_Fill_7823dc" fill="#7823DC"/><rect x="24" y="28" width="2" height="4" class="MsftOfcResponsive_Fill_7823dc" fill="#7823DC"/><rect x="6" y="28" width="2" height="4" class="MsftOfcResponsive_Fill_7823dc" fill="#7823DC"/><rect x="10" y="28" width="2" height="4" class="MsftOfcResponsive_Fill_7823dc" fill="#7823DC"/><rect x="27.98" y="6.68" width="2" height="3.32" class="MsftOfcResponsive_Fill_7823dc" fill="#7823DC"/><rect x="22.81" y="1.17" width="2" height="3.66" class="MsftOfcResponsive_Fill_7823dc" fill="#7823DC" transform="matrix(6.12323e-17 1 -1 6.12323e-17 26.81 -20.81)"/><rect x="24.3" y="4.82" width="2" height="3.72" class="MsftOfcResponsive_Fill_7823dc" fill="#7823DC" transform="matrix(0.707107 0.707107 -0.707107 0.707107 12.13 -15.93)"/><rect x="13.87" y="3.79" width="2" height="8.78" class="MsftOfcResponsive_Fill_7823dc" fill="#7823DC" transform="matrix(0.707107 0.707107 -0.707107 0.707107 10.14 -8.12)"/><rect x="6.23" y="3.89" width="2" height="8.66" class="MsftOfcResponsive_Fill_7823dc" fill="#7823DC" transform="matrix(0.707107 -0.707107 0.707107 0.707107 -3.7 7.52)"/><rect x="10" y="0" width="2" height="25.24" class="MsftOfcResponsive_Fill_7823dc" fill="#7823DC"/><path d="M11.05 4C15.24 4 18.77 6.55 19.77 10L2.34 10C3.34 6.55 6.87 4 11.05 4M11.05 2C4.98 2 0.06 6.47 0.06 12L22.06 12C22.06 6.47 17.14 2 11.05 2L11.05 2Z" class="MsftOfcResponsive_Fill_7823dc" fill="#7823DC"/><rect x="2.72" y="22.06" width="2" height="8.47" class="MsftOfcResponsive_Fill_7823dc" fill="#7823DC" transform="matrix(0.707107 -0.707107 0.707107 0.707107 -17.51 10.33)"/><rect x="3.57" y="17.35" width="2" height="9.29" class="MsftOfcResponsive_Fill_7823dc" fill="#7823DC" transform="matrix(0.707107 -0.707107 0.707107 0.707107 -14.21 9.68)"/><rect x="0" y="18" width="2" height="6" class="MsftOfcResponsive_Fill_7823dc" fill="#7823DC"/><rect x="30" y="24" width="2" height="6" class="MsftOfcResponsive_Fill_7823dc" fill="#7823DC"/></svg>