<svg viewBox="0 0 32 31.98" xmlns="http://www.w3.org/2000/svg" xmlns:xlink="http://www.w3.org/1999/xlink" id="Layer_1" overflow="hidden"><style>
.MsftOfcResponsive_Fill_7823dc {
 fill:#7823DC; 
}
</style>
<defs></defs><path d="M10 9.02 10 6 22.02 6 22.02 10 24.02 10 24.02 4 21.39 4 21.39 0 11.33 0 11.33 4 8 4 8 10.53 0 16.54 0 31.98 24 31.98 24 29.98 10 29.98 10 9.02ZM13.33 2 19.39 2 19.39 4 13.33 4 13.33 2ZM8 29.98 2 29.98 2 17.54 8 13.03 8 29.98Z" class="MsftOfcResponsive_Fill_7823dc" fill="#7823DC"/><rect x="12" y="8.02" width="4" height="1.97" class="MsftOfcResponsive_Fill_7823dc" fill="#7823DC"/><rect x="12" y="12.52" width="4" height="1.97" class="MsftOfcResponsive_Fill_7823dc" fill="#7823DC"/><rect x="12" y="17.02" width="4" height="1.97" class="MsftOfcResponsive_Fill_7823dc" fill="#7823DC"/><rect x="12" y="21.52" width="4" height="1.97" class="MsftOfcResponsive_Fill_7823dc" fill="#7823DC"/><rect x="12" y="26.02" width="4" height="1.97" class="MsftOfcResponsive_Fill_7823dc" fill="#7823DC"/><rect x="4" y="17.02" width="2" height="1.97" class="MsftOfcResponsive_Fill_7823dc" fill="#7823DC"/><rect x="4" y="21.52" width="2" height="1.97" class="MsftOfcResponsive_Fill_7823dc" fill="#7823DC"/><rect x="4" y="26.02" width="2" height="1.97" class="MsftOfcResponsive_Fill_7823dc" fill="#7823DC"/><path d="M31.23 10.72 30.98 9.95 30.17 10.04C29.88 10.07 22.95 10.87 19.87 15.62 16.78 20.37 18.87 27.02 18.96 27.3L19.21 28.07 20.02 27.98C20.31 27.95 27.24 27.15 30.32 22.4 33.41 17.65 31.32 11 31.23 10.72ZM20.47 19.34 21.07 23.36 20.38 24.42C20.17 23.02 20.06 21.15 20.47 19.34ZM22.75 24.45 26.74 23.31C25.23 24.45 23.45 25.12 22.06 25.51L22.75 24.45ZM29.06 20.57 24.41 21.9 25.47 20.27 29.63 19.04C29.49 19.57 29.3 20.08 29.06 20.58ZM29.98 16.84 27.16 17.68 29.82 13.58C29.96 14.51 30.05 15.65 29.98 16.84ZM25.47 16.6 25.08 13.69C26.15 13.13 27.22 12.75 28.14 12.5L25.47 16.6ZM23.22 14.89 23.79 19.17 22.71 20.83 22.01 16.11C22.37 15.66 22.77 15.25 23.22 14.89Z" class="MsftOfcResponsive_Fill_7823dc" fill="#7823DC"/></svg>