<svg viewBox="0 0 32.03 32" xmlns="http://www.w3.org/2000/svg" xmlns:xlink="http://www.w3.org/1999/xlink" id="Layer_1" overflow="hidden"><style>
.MsftOfcResponsive_Fill_7823dc {
 fill:#7823DC; 
}
</style>
<path d="M3.44 11.21C2.54 11.21 1.66 10.9 1.02 10.28L0.98 10.24C-0.31 8.85-0.31 6.84 0.98 5.45L2.55 4.05 6.78 0 12.56 5.41C13.9 6.85 13.88 9.02 12.56 10.28 11.09 11.53 8.89 11.51 7.6 10.28L6.79 9.5 5.98 10.28C5.25 10.9 4.33 11.21 3.44 11.21ZM6.79 6.73 8.98 8.83C9.53 9.36 10.58 9.34 11.22 8.79 11.7 8.32 11.68 7.4 11.13 6.8L9.67 5.4 6.79 2.74 3.89 5.52 2.36 6.87C1.87 7.4 1.87 8.24 2.41 8.85 2.97 9.36 3.99 9.33 4.63 8.79L6.78 6.73Z" class="MsftOfcResponsive_Fill_7823dc" fill="#7823DC"/><path d="M25.25 14.02 20.93 9.15 19.45 7.55C18.09 6.03 18.11 3.6 19.48 2.24 20.19 1.53 21.17 1.14 22.12 1.17 23.05 1.2 23.9 1.59 24.51 2.28L25.26 3.09 26.03 2.26C26.76 1.52 27.72 1.13 28.7 1.16 29.63 1.19 30.48 1.58 31.09 2.27L31.12 2.31C32.33 3.82 32.33 6.09 31.12 7.6L25.25 14.01ZM22.01 3.17C21.6 3.17 21.2 3.34 20.89 3.66 20.22 4.33 20.37 5.58 20.93 6.21L22.42 7.81 25.28 11.03 29.62 6.3C30.2 5.57 30.21 4.38 29.59 3.59 29.35 3.33 29.01 3.18 28.65 3.17 28.24 3.14 27.81 3.33 27.48 3.66L25.27 6.04 23.04 3.63C22.78 3.34 22.44 3.18 22.07 3.17 22.06 3.17 22.04 3.17 22.03 3.17Z" class="MsftOfcResponsive_Fill_7823dc" fill="#7823DC"/><rect x="4.03" y="12.68" width="5.52" height="2" class="MsftOfcResponsive_Fill_7823dc" fill="#7823DC"/><rect x="5.79" y="9.07" width="2" height="4.62" class="MsftOfcResponsive_Fill_7823dc" fill="#7823DC"/><rect x="22.03" y="30" width="6.46" height="2" class="MsftOfcResponsive_Fill_7823dc" fill="#7823DC"/><rect x="24.26" y="26.38" width="2" height="4.62" class="MsftOfcResponsive_Fill_7823dc" fill="#7823DC"/><path d="M28.03 28.53C26.93 28.53 25.91 28.04 25.2 27.26 24.49 28.04 23.47 28.53 22.37 28.53 20.19 28.53 18.48 26.82 18.48 24.64 18.48 22.79 19.71 21.29 21.41 20.87 21.38 20.68 21.37 20.47 21.37 20.26 21.37 18.08 23.08 16.37 25.26 16.37 27.44 16.37 29.15 18.08 29.15 20.26 29.15 20.48 29.13 20.68 29.09 20.87 29.81 21.05 30.46 21.42 30.96 21.95 31.65 22.7 32 23.68 31.92 24.71 31.92 26.82 30.22 28.52 28.04 28.52ZM24.31 24.23 26.09 24.23 26.24 25.05C26.39 25.88 27.18 26.54 28.03 26.54 29.09 26.54 29.92 25.71 29.92 24.65 29.96 24.1 29.8 23.66 29.49 23.32 29.15 22.96 28.68 22.76 28.15 22.76L26.07 22.76 26.79 21.31C26.99 20.91 27.15 20.6 27.15 20.26 27.15 19.2 26.32 18.37 25.26 18.37 24.2 18.37 23.37 19.2 23.37 20.26 23.37 20.67 23.44 20.9 23.63 21.16L24.83 22.76 22.37 22.76C21.31 22.76 20.48 23.59 20.48 24.65 20.48 25.71 21.31 26.54 22.37 26.54 23.22 26.54 24.01 25.89 24.16 25.05L24.31 24.23Z" class="MsftOfcResponsive_Fill_7823dc" fill="#7823DC"/><path d="M6.96 31.97 0 24.39 6.96 16.82 13.92 24.39 6.96 31.96ZM2.72 24.39 6.96 29.01 11.2 24.39 6.96 19.77 2.72 24.39Z" class="MsftOfcResponsive_Fill_7823dc" fill="#7823DC"/></svg>