<svg viewBox="0 0 32 32" xmlns="http://www.w3.org/2000/svg" xmlns:xlink="http://www.w3.org/1999/xlink" id="Layer_1" overflow="hidden"><style>
.MsftOfcResponsive_Fill_7823dc {
 fill:#7823DC; 
}
</style>
<path d="M29.9 27.4C29.5 25.9 28.1 24.8 26.4 24.8 24.8 24.8 23.5 25.8 23 27.2 23 27.2 23 27.2 23 27.3 22.9 27.6 22.8 28 22.8 28.4 22.8 28.7 22.8 29.1 22.9 29.4 23.3 30.9 24.7 32 26.4 32 28 32 29.4 30.9 29.9 29.4 30 29.1 30 28.7 30 28.4 30 28 30 27.7 29.9 27.4ZM26.4 30C25.9 30 25.4 29.8 25.2 29.4 25 29.1 24.8 28.8 24.8 28.4 24.8 28 24.9 27.7 25.2 27.4 25.5 27 25.9 26.8 26.4 26.8 26.9 26.8 27.3 27 27.6 27.4 27.8 27.7 28 28 28 28.4 28 28.8 27.9 29.1 27.6 29.4 27.3 29.8 26.9 30 26.4 30Z" class="MsftOfcResponsive_Fill_7823dc" fill="#7823DC"/><path d="M11.9 27.4C11.5 25.9 10.1 24.8 8.4 24.8 6.8 24.8 5.4 25.9 4.9 27.4 4.8 27.7 4.8 28 4.8 28.4 4.8 28.7 4.8 29.1 4.9 29.4 5.4 30.9 6.8 32 8.4 32 10 32 11.4 30.9 11.9 29.4 12 29.1 12 28.7 12 28.4 12 28 12 27.7 11.9 27.4ZM8.4 30C7.5 30 6.8 29.3 6.8 28.4 6.8 27.5 7.5 26.8 8.4 26.8 9.3 26.8 10 27.5 10 28.4 10 29.3 9.3 30 8.4 30Z" class="MsftOfcResponsive_Fill_7823dc" fill="#7823DC"/><path d="M23 29.4 11.1 29.4 11.1 27.4 21 27.4 21 24 2 24 2 27.4 5.1 27.4 5.1 29.4 0 29.4 0 22 23 22Z" class="MsftOfcResponsive_Fill_7823dc" fill="#7823DC"/><path d="M16.5 6 13.5 10 0 10 0 19.2 2.4 24 17.8 24 18.3 22 20 15.2 20 11 24 11 24 6 16.5 6ZM22 9 18 9 18 14.9 16.2 22 3.6 22 2 18.8 2 12 14.5 12 17.5 8 22 8 22 9Z" class="MsftOfcResponsive_Fill_7823dc" fill="#7823DC"/><path d="M29.7 12.4 21 12.4 21 29.4 25.2 29.4C25 29.1 24.8 28.8 24.8 28.4 24.8 28 24.9 27.7 25.2 27.4L23 27.4 23 14.4 28.3 14.4 28.5 15 29.2 17 29.9 19 30.1 19.6 30.1 27.4 27.7 27.4C27.9 27.7 28.1 28 28.1 28.4 28.1 28.8 28 29.1 27.7 29.4L32 29.4 32 19.2 29.7 12.4Z" class="MsftOfcResponsive_Fill_7823dc" fill="#7823DC"/><path d="M31 21 25 21 25 15 30 15 30 17 27 17 27 19 31 19Z" class="MsftOfcResponsive_Fill_7823dc" fill="#7823DC"/><rect x="4.3" y="13" width="2" height="7.9" class="MsftOfcResponsive_Fill_7823dc" fill="#7823DC"/><rect x="8.8" y="13" width="2" height="7.9" class="MsftOfcResponsive_Fill_7823dc" fill="#7823DC"/><rect x="13.3" y="13" width="2" height="7.9" class="MsftOfcResponsive_Fill_7823dc" fill="#7823DC"/></svg>