<svg viewBox="0 0 32 32" xmlns="http://www.w3.org/2000/svg" xmlns:xlink="http://www.w3.org/1999/xlink" id="Graphic" overflow="hidden"><defs></defs><path d="M17.64 4C17.64 1.72 20.73 0 24.82 0 28.91 0 32 1.72 32 4 32 6.28 28.91 8 24.82 8 20.73 8 17.64 6.28 17.64 4ZM19.64 4C19.64 4.8 21.71 6 24.82 6 27.93 6 30 4.8 30 4 30 3.2 27.93 2 24.82 2 21.71 2 19.64 3.2 19.64 4Z" fill="#7823DC"/><path d="M24.82 12C28.91 12 32 10.28 32 8L30 8C30 8.8 27.93 10 24.82 10 21.71 10 19.64 8.8 19.64 8L17.64 8C17.64 10.28 20.73 12 24.82 12Z" fill="#7823DC"/><path d="M24.82 16C28.91 16 32 14.28 32 12L30 12C30 12.8 27.93 14 24.82 14 21.71 14 19.64 12.8 19.64 12L17.64 12C17.64 14.28 20.73 16 24.82 16Z" fill="#7823DC"/><path d="M24.82 20C28.91 20 32 18.28 32 16L30 16C30 16.8 27.93 18 24.82 18 21.71 18 19.64 16.8 19.64 16L17.64 16C17.64 18.28 20.73 20 24.82 20Z" fill="#7823DC"/><path d="M24.82 24C28.91 24 32 22.28 32 20L30 20C30 20.8 27.93 22 24.82 22 21.71 22 19.64 20.8 19.64 20L17.64 20C17.64 22.28 20.73 24 24.82 24Z" fill="#7823DC"/><path d="M24.82 28C28.91 28 32 26.28 32 24L30 24C30 24.8 27.93 26 24.82 26 21.71 26 19.64 24.8 19.64 24L17.64 24C17.64 26.28 20.73 28 24.82 28Z" fill="#7823DC"/><path d="M24.82 32C28.91 32 32 30.28 32 28L30 28C30 28.8 27.93 30 24.82 30 21.71 30 19.64 28.8 19.64 28L17.64 28C17.64 30.28 20.73 32 24.82 32Z" fill="#7823DC"/><rect x="30" y="4" width="2" height="24.2" fill="#7823DC" transform="matrix(-1 -1.22465e-16 1.22465e-16 -1 62 32.2)"/><rect x="17.64" y="4" width="2" height="24.2" fill="#7823DC" transform="matrix(-1 -1.22465e-16 1.22465e-16 -1 37.29 32.2)"/><path d="M0 8C0 5.72 3.09 4 7.18 4 11.27 4 14.36 5.72 14.36 8 14.36 10.28 11.27 12 7.18 12 3.09 12 0 10.28 0 8ZM2 8C2 8.8 4.07 10 7.18 10 10.29 10 12.36 8.8 12.36 8 12.36 7.2 10.29 6 7.18 6 4.07 6 2 7.2 2 8Z" fill="#7823DC"/><path d="M7.18 16C11.27 16 14.36 14.28 14.36 12L12.36 12C12.36 12.8 10.29 14 7.18 14 4.07 14 2 12.8 2 12L0 12C0 14.28 3.09 16 7.18 16Z" fill="#7823DC"/><path d="M7.18 20C11.27 20 14.36 18.28 14.36 16L12.36 16C12.36 16.8 10.29 18 7.18 18 4.07 18 2 16.8 2 16L0 16C0 18.28 3.09 20 7.18 20Z" fill="#7823DC"/><path d="M7.18 24C11.27 24 14.36 22.28 14.36 20L12.36 20C12.36 20.8 10.29 22 7.18 22 4.07 22 2 20.8 2 20L0 20C0 22.28 3.09 24 7.18 24Z" fill="#7823DC"/><path d="M7.18 28C11.27 28 14.36 26.28 14.36 24L12.36 24C12.36 24.8 10.29 26 7.18 26 4.07 26 2 24.8 2 24L0 24C0 26.28 3.09 28 7.18 28Z" fill="#7823DC"/><path d="M7.18 32C11.27 32 14.36 30.28 14.36 28L12.36 28C12.36 28.8 10.29 30 7.18 30 4.07 30 2 28.8 2 28L0 28C0 30.28 3.09 32 7.18 32Z" fill="#7823DC"/><rect x="12.36" y="8" width="2" height="20.12" fill="#7823DC" transform="matrix(-1 -1.22465e-16 1.22465e-16 -1 26.71 36.12)"/><rect x="0" y="8" width="2" height="20.12" fill="#7823DC" transform="matrix(-1 -1.22465e-16 1.22465e-16 -1 2 36.12)"/></svg>