<svg viewBox="0 0 52.59 52.73" xmlns="http://www.w3.org/2000/svg" xmlns:xlink="http://www.w3.org/1999/xlink" id="Grid" overflow="hidden"><defs></defs><path d="M52.59 52.73 0 52.73 0 0 52.59 0 52.59 52.73ZM3.28 49.43 49.3 49.43 49.3 3.3 3.29 3.3 3.29 49.44Z" stroke-width="0" fill="#7823DC"/><path d="M47.13 42.76 5.47 42.76 5.47 5.58 47.13 5.58 47.13 42.77ZM8.76 39.46 43.85 39.46 43.85 8.87 8.75 8.87 8.75 39.46Z" stroke-width="0" fill="#7823DC"/><path d="M8.43 38.66 5.79 36.71 17.64 20.52 26.03 28.75 37.17 12.13 46.72 23.09 44.24 25.25 37.51 17.53 26.56 33.87 18.05 25.53 8.43 38.66Z" stroke-width="0" fill="#7823DC"/><path d="M23.3 18.34C22.95 18.34 22.61 18.27 22.28 18.12 21.68 17.85 21.22 17.35 20.99 16.73 20.51 15.45 21.16 14.02 22.43 13.54 23.7 13.06 25.13 13.71 25.61 14.99 25.84 15.61 25.82 16.28 25.55 16.88 25.28 17.48 24.79 17.94 24.17 18.18 23.89 18.29 23.6 18.34 23.3 18.34Z" stroke-width="0" fill="#7823DC"/></svg>