<svg width="36.5" height="36.5" viewBox="0 0 36.5 36.5" xmlns="http://www.w3.org/2000/svg" xmlns:xlink="http://www.w3.org/1999/xlink" overflow="hidden"><defs></defs><g><g><defs><path d="M0 36.5 36.5 36.5 36.5 0 0 0 0 36.5Z" id="SVGID_1_" fill="#7823DC"/></defs><clipPath id="SVGID_2_"><use width="100%" height="100%" xlink:href="#SVGID_1_"></use></clipPath><g clip-path="url(#SVGID_2_)"><defs><path d="M0 36.5 36.5 36.5 36.5 0 0 0 0 36.5Z" id="SVGID_3_" fill="#7823DC"/></defs><clipPath id="SVGID_4_"><use width="100%" height="100%" xlink:href="#SVGID_3_"></use></clipPath><path d="M30.8 13.1C29.9 13.1 29.1 13.9 29.1 14.8 29.1 15.7 29.9 16.5 30.8 16.5 31.7 16.5 32.5 15.7 32.5 14.8 32.5 13.9 31.7 13.1 30.8 13.1L30.8 13.1Z" fill="#7823DC" clip-path="url(#SVGID_4_)"/><path d="M30.8 18.9C29.9 18.9 29.1 19.7 29.1 20.6 29.1 21.5 29.9 22.3 30.8 22.3 31.7 22.3 32.5 21.5 32.5 20.6 32.5 19.7 31.7 18.9 30.8 18.9L30.8 18.9Z" fill="#7823DC" clip-path="url(#SVGID_4_)"/><path d="M19.6 1.1 16 4.8 12.3 1.1 9.1 1.1 16 8 22.8 1.1 19.6 1.1 19.6 1.1Z" fill="#7823DC" clip-path="url(#SVGID_4_)"/><path d="M34.2 33.1 2.3 33.1 2.3 10.3 34.2 10.3 31.9 8 0 8 0 35.4 36.5 35.4 36.5 12.6 34.2 10.3 34.2 33.1 34.2 33.1Z" fill="#7823DC" clip-path="url(#SVGID_4_)"/><path d="M27.4 30.9 4.6 30.9 4.6 12.6 27.4 12.6 27.4 30.9ZM6.8 28.6 25 28.6 25 14.9 6.8 14.9 6.8 28.6Z" fill="#7823DC" clip-path="url(#SVGID_4_)"/></g></g></g></svg>