<svg viewBox="0 0 32 32" xmlns="http://www.w3.org/2000/svg" xmlns:xlink="http://www.w3.org/1999/xlink" id="Layer_1" xml:space="preserve" overflow="hidden"><g><path d="M20 15.1 20 17-0.2 17-0.2 15.1 20 15.1 20 15.1 20 15.1 20 15.1Z" fill="#7823DC" fill-rule="evenodd" clip-rule="evenodd"/><path d="M1.8 10.3 1.8 16.1-0.2 16.1-0.2 10.3 1.8 10.3 1.8 10.3 1.8 10.3 1.8 10.3Z" fill="#7823DC" fill-rule="evenodd" clip-rule="evenodd"/><path d="M9.8 10.3 9.8 16.1 7.9 16.1 7.9 10.3 9.8 10.3 9.8 10.3 9.8 10.3 9.8 10.3Z" fill="#7823DC" fill-rule="evenodd" clip-rule="evenodd"/><path d="M3.8 10.3 5.8 12.2 5.8 15.1 3.8 15.1 3.8 10.3 3.8 10.3 3.8 10.3 3.8 10.3 3.8 10.3Z" fill="#7823DC" fill-rule="evenodd" clip-rule="evenodd"/><path d="M25.7 21.9C25.7 21.9 25.6 21.9 25.6 21.8 25.5 21.8 25.5 21.8 25.5 21.8L25.5 21.7C24.9 21.4 23.4 20.7 22.2 19.7 21.3 18.9 20.6 18.1 20.1 17.3 20 17.2 20 17.1 19.9 17L19.7 16.7C19.2 15.8 18.9 14.8 18.9 13.8 18.9 12.8 19.3 11.8 20 11.1 20.9 10.3 21.9 10 22.8 10 23.6 10 24.2 10.2 25 10.7 25.2 10.8 25.3 11 25.5 11.1 25.6 11 25.8 10.9 25.9 10.8 26.5 10.5 27.2 10.1 28.2 10.1 29.3 10.1 30.3 10.5 31 11.2 31.7 11.9 32.1 12.9 32.1 13.9 32.1 14.9 31.9 15.8 31.4 16.8L31.2 17.1C31.2 17.2 31.1 17.3 31 17.4 30.5 18.2 29.8 19 28.9 19.8 27.7 20.8 26.3 21.5 25.7 21.8L25.7 21.9ZM21.5 16.2 21.6 16.3C22 17 22.6 17.6 23.3 18.3 24 18.9 24.9 19.4 25.5 19.7 26.1 19.4 26.9 18.9 27.7 18.3 28.5 17.6 29 17 29.4 16.3L29.5 16.2C29.6 16.1 29.6 16 29.8 15.8 30.1 15.1 30.3 14.5 30.3 13.9 30.3 13.4 30.1 12.9 29.7 12.5 29.3 12.1 28.8 11.9 28.2 11.9 27.8 11.9 27.4 12 27 12.3 26.7 12.5 26.5 12.8 26.4 13.1L25.5 14.8 24.6 13.1C24.5 12.9 24.3 12.5 23.9 12.3 23 11.8 22.1 11.9 21.2 12.6 20.9 12.9 20.7 13.4 20.7 13.9 20.7 14.6 20.9 15.2 21.2 15.8L21.2 15.8C21.4 16 21.4 16.1 21.5 16.2ZM31.1 17.2 31.1 17.2C31.1 17.2 31.1 17.2 31.1 17.2Z" fill="#7823DC"/></g></svg>