<svg viewBox="0 0 32 32" xmlns="http://www.w3.org/2000/svg" xmlns:xlink="http://www.w3.org/1999/xlink" id="Graphic" overflow="hidden"><defs></defs><rect x="0" y="16.05" width="2" height="2" fill="#7823DC"/><path d="M29 6.02 26.17 6.02 28.17 8.02 18 8.02 18 8.04 17.77 8.04 5.71 16.07 4.1 16.07 4.1 18.07 6.31 18.07 18.37 10.04 18.94 10.04 18.94 10.02 28.17 10.02 26.17 12.02 29 12.02 32 9.02 29 6.02Z" fill="#7823DC"/><path d="M28.94 24.01 26.11 24.01 28.12 26.02 18.94 26.02 18.94 26.01 18.61 26.01 3.01 1.98 0.62 1.98 17.53 28.01 18.16 28.01 18.16 28.02 28.12 28.02 26.12 30.02 28.95 30.02 31.94 27.02 28.94 24.01Z" fill="#7823DC"/></svg>