<svg viewBox="0 0 31.89 32.01" xmlns="http://www.w3.org/2000/svg" xmlns:xlink="http://www.w3.org/1999/xlink" id="a" overflow="hidden"><defs><clipPath id="b"><path d="M0.01 32 31.88 32 31.88 0 0.01 0 0.01 32 0.01 32Z" fill="none" clip-rule="evenodd"/></clipPath><clipPath id="c"><path d="M0.01 32 31.88 32 31.88 0 0.01 0 0.01 32 0.01 32Z" fill="none" clip-rule="evenodd"/></clipPath><clipPath id="d"><path d="M0.01 32 31.88 32 31.88 0 0.01 0 0.01 32 0.01 32Z" fill="none" clip-rule="evenodd"/></clipPath><clipPath id="e"><path d="M0.01 32 31.88 32 31.88 0 0.01 0 0.01 32 0.01 32Z" fill="none" clip-rule="evenodd"/></clipPath><clipPath id="f"><path d="M0.01 32 31.88 32 31.88 0 0.01 0 0.01 32 0.01 32Z" fill="none" clip-rule="evenodd"/></clipPath></defs><path d="M5.98 32.01C2.68 32.01 0 29.31 0 26 0 22.69 2.68 19.99 5.98 19.99 9.28 19.99 11.96 22.69 11.96 26 11.96 29.31 9.28 32.01 5.98 32.01ZM5.98 21.98C3.78 21.98 2 23.78 2 25.99 2 28.2 3.79 30 5.98 30 8.17 30 9.96 28.2 9.96 25.99 9.96 23.78 8.17 21.98 5.98 21.98Z" fill="#7823DC"/><g clip-path="url(#b)"><path d="M9.91 0 11.95 0 11.95 25.93 9.91 25.93 9.91 0 9.91 0Z" fill="#7823DC" fill-rule="evenodd"/><g clip-path="url(#c)"><path d="M31.88 0 31.88 1.98 11.12 1.98 11.12 0 31.88 0 31.88 0Z" fill="#7823DC" fill-rule="evenodd"/><g clip-path="url(#d)"><path d="M25.91 32.01C22.61 32.01 19.93 29.31 19.93 26 19.93 22.69 22.61 19.99 25.91 19.99 29.21 19.99 31.89 22.69 31.89 26 31.89 29.31 29.21 32.01 25.91 32.01ZM25.91 21.98C23.71 21.98 21.93 23.78 21.93 25.99 21.93 28.2 23.72 30 25.91 30 28.1 30 29.89 28.2 29.89 25.99 29.89 23.78 28.1 21.98 25.91 21.98Z" fill="#7823DC"/><g clip-path="url(#e)"><path d="M29.9 0.51 31.88 0.51 31.88 25.93 29.9 25.93 29.9 0.51 29.9 0.51Z" fill="#7823DC" fill-rule="evenodd"/><g clip-path="url(#f)"><path d="M31.69 3.96 31.69 5.94 10.93 5.94 10.93 3.96 31.69 3.96 31.69 3.96Z" fill="#7823DC" fill-rule="evenodd"/></g></g></g></g></g></svg>