<svg viewBox="0 0 32.14 32.14" xmlns="http://www.w3.org/2000/svg" xmlns:xlink="http://www.w3.org/1999/xlink" id="Layer_1" overflow="hidden"><style>
.MsftOfcThm_Text2_lumMod_100_Fill_v2 {
 fill:#7823DC; 
}
</style>
<defs></defs><path d="M29.14 13.07C27.84 13.07 26.74 13.91 26.32 15.07L24 15.07C23.82 13.61 23.24 12.28 22.38 11.17L24.03 9.52C24.44 9.71 24.87 9.82 25.31 9.82 26.08 9.82 26.85 9.53 27.43 8.94L27.43 8.94C28.6 7.77 28.6 5.87 27.43 4.7 26.26 3.53 24.36 3.53 23.19 4.7 22.27 5.62 22.08 6.99 22.61 8.11L20.96 9.76C19.85 8.9 18.52 8.32 17.06 8.14L17.06 5.82C18.22 5.41 19.06 4.31 19.06 3 19.06 1.35 17.71 4.44089e-16 16.06 4.44089e-16 14.41 4.44089e-16 13.06 1.35 13.06 3 13.06 4.3 13.9 5.4 15.06 5.82L15.06 8.14C13.6 8.32 12.27 8.9 11.16 9.76L9.51 8.11C10.04 7 9.85 5.63 8.93 4.7 7.8 3.57 5.82 3.57 4.69 4.7 3.52 5.87 3.52 7.77 4.69 8.94 5.26 9.51 6.01 9.82 6.81 9.82 7.26 9.82 7.7 9.71 8.1 9.52L9.74 11.16C8.88 12.27 8.3 13.6 8.12 15.06L5.8 15.06C5.39 13.9 4.29 13.06 2.98 13.06 1.33 13.06-0.02 14.41-0.02 16.06-0.02 17.71 1.33 19.06 2.98 19.06 4.28 19.06 5.38 18.22 5.8 17.06L8.12 17.06C8.3 18.52 8.88 19.85 9.74 20.96L8.08 22.61C6.97 22.11 5.57 22.29 4.68 23.18L4.68 23.18C3.51 24.35 3.51 26.25 4.68 27.42 5.25 27.99 6 28.3 6.8 28.3 7.6 28.3 8.36 27.99 8.92 27.42 9.84 26.5 10.03 25.13 9.5 24.01L11.15 22.36C12.26 23.22 13.59 23.8 15.05 23.98L15.05 26.3C13.89 26.71 13.05 27.81 13.05 29.12 13.05 30.77 14.4 32.12 16.05 32.12 17.7 32.12 19.05 30.77 19.05 29.12 19.05 27.82 18.21 26.72 17.05 26.3L17.05 23.98C18.51 23.8 19.84 23.22 20.95 22.36L22.6 24.01C22.07 25.12 22.26 26.5 23.18 27.42 23.76 28 24.53 28.3 25.3 28.3 26.07 28.3 26.84 28.01 27.42 27.42 28.59 26.25 28.59 24.35 27.42 23.18 26.5 22.26 25.13 22.08 24.02 22.6L22.37 20.95C23.23 19.84 23.81 18.51 23.99 17.05L26.31 17.05C26.72 18.21 27.82 19.05 29.13 19.05 30.78 19.05 32.13 17.7 32.13 16.05 32.13 14.4 30.78 13.05 29.13 13.05ZM3 17.07C2.45 17.07 2 16.62 2 16.07 2 15.52 2.45 15.07 3 15.07 3.55 15.07 4 15.52 4 16.07 4 16.62 3.55 17.07 3 17.07ZM17.07 20.06C17.41 20.12 17.76 20.21 18.1 20.33 18.57 20.5 19.02 20.73 19.45 21.02 18.75 21.5 17.94 21.83 17.07 21.97L17.07 20.06ZM15.07 21.98C14.2 21.83 13.4 21.51 12.7 21.03 13.13 20.74 13.58 20.51 14.06 20.34 14.39 20.22 14.73 20.13 15.08 20.07L15.08 21.98ZM15.07 18.05C14.49 18.12 13.92 18.26 13.37 18.46 12.62 18.72 11.91 19.12 11.24 19.61 10.7 18.87 10.32 18.01 10.16 17.06L15.07 17.06 15.07 18.04ZM10.16 15.07C10.32 14.13 10.7 13.26 11.24 12.53 11.91 13.02 12.62 13.42 13.35 13.68 13.91 13.89 14.48 14.02 15.07 14.1L15.07 15.08 10.16 15.08ZM17.07 10.16C17.94 10.31 18.75 10.64 19.45 11.11 19.02 11.4 18.57 11.63 18.1 11.8 17.76 11.92 17.42 12.01 17.07 12.07L17.07 10.15ZM15.07 12.07C14.72 12.01 14.38 11.92 14.04 11.79 13.58 11.63 13.13 11.4 12.7 11.11 13.4 10.63 14.21 10.31 15.07 10.16L15.07 12.07ZM17.07 14.09C17.64 14.02 18.21 13.88 18.77 13.68 19.53 13.41 20.23 13.01 20.9 12.52 21.44 13.26 21.82 14.12 21.98 15.06L17.07 15.06 17.07 14.08ZM24.6 6.12C24.8 5.92 25.05 5.83 25.31 5.83 25.57 5.83 25.82 5.93 26.02 6.12 26.41 6.51 26.41 7.14 26.02 7.53 25.63 7.92 25 7.92 24.61 7.53 24.22 7.14 24.22 6.51 24.61 6.12ZM16.07 2C16.62 2 17.07 2.45 17.07 3 17.07 3.55 16.62 4 16.07 4 15.52 4 15.07 3.55 15.07 3 15.07 2.45 15.52 2 16.07 2ZM6.12 7.54C5.73 7.15 5.73 6.52 6.12 6.13 6.31 5.94 6.56 5.84 6.83 5.84 7.1 5.84 7.35 5.94 7.54 6.13 7.93 6.52 7.93 7.15 7.54 7.54 7.16 7.92 6.5 7.92 6.13 7.54ZM7.53 26.02C7.15 26.4 6.5 26.4 6.12 26.02 5.73 25.63 5.73 25 6.12 24.61 6.5 24.23 7.16 24.23 7.53 24.61 7.92 25 7.92 25.63 7.53 26.03ZM16.07 30.14C15.52 30.14 15.07 29.69 15.07 29.14 15.07 28.59 15.52 28.14 16.07 28.14 16.62 28.14 17.07 28.59 17.07 29.14 17.07 29.69 16.62 30.14 16.07 30.14ZM26.02 24.6C26.41 24.99 26.41 25.62 26.02 26.01 25.63 26.4 25 26.4 24.61 26.01 24.22 25.62 24.22 24.99 24.61 24.6 24.81 24.4 25.06 24.31 25.32 24.31 25.58 24.31 25.83 24.41 26.03 24.6ZM20.9 19.61C20.24 19.12 19.53 18.72 18.77 18.45 18.21 18.25 17.64 18.12 17.07 18.05L17.07 17.07 21.98 17.07C21.82 18.01 21.44 18.87 20.9 19.61ZM29.14 17.07C28.59 17.07 28.14 16.62 28.14 16.07 28.14 15.52 28.59 15.07 29.14 15.07 29.69 15.07 30.14 15.52 30.14 16.07 30.14 16.62 29.69 17.07 29.14 17.07Z" class="MsftOfcThm_Text2_lumMod_100_Fill_v2" stroke-width="0" fill="#7823DC"/></svg>