<svg viewBox="0 0 32 32" xmlns="http://www.w3.org/2000/svg" xmlns:xlink="http://www.w3.org/1999/xlink" id="Graphic" overflow="hidden"><defs></defs><path d="M18.88 20.18C18.88 18.52 17.58 17.2 15.94 17.2 14.3 17.2 13 18.51 13 20.18 13 21.85 14.3 23.16 15.94 23.16 17.58 23.16 18.88 21.85 18.88 20.18ZM15.94 21.14C15.42 21.14 14.99 20.7 14.99 20.18 14.99 19.66 15.42 19.22 15.94 19.22 16.46 19.22 16.89 19.66 16.89 20.18 16.89 20.7 16.46 21.14 15.94 21.14Z" fill="#7823DC"/><path d="M8.56 31.93 10.66 31.93 12.7 25.46 11.92 31.93 13.93 31.93 14.98 23.28 11.3 23.28 8.56 31.93Z" fill="#7823DC"/><path d="M16.96 23.28 18.01 31.93 20 31.93 19.23 25.46 21.27 31.93 23.38 31.93 20.63 23.28 16.96 23.28Z" fill="#7823DC"/><path d="M9.98 22.22C9.98 20.56 8.67 19.24 7 19.24 5.33 19.24 4.02 20.55 4.02 22.22 4.02 23.89 5.33 25.2 7 25.2 8.67 25.2 9.98 23.89 9.98 22.22ZM7 23.18C6.47 23.18 5.95 22.74 5.95 22.22 5.95 21.7 6.48 21.26 7 21.26 7.52 21.26 7.96 21.7 7.96 22.22 7.96 22.74 7.52 23.18 7 23.18Z" fill="#7823DC"/><path d="M27.91 22.22C27.91 20.56 26.6 19.24 24.93 19.24 23.26 19.24 21.95 20.55 21.95 22.22 21.95 23.89 23.26 25.2 24.93 25.2 26.6 25.2 27.91 23.89 27.91 22.22ZM24.93 23.27C24.4 23.27 23.97 22.83 23.97 22.31 23.97 21.79 24.41 21.35 24.93 21.35 25.45 21.35 25.89 21.79 25.89 22.31 25.89 22.75 25.45 23.27 24.93 23.27Z" fill="#7823DC"/><path d="M0.22 31.93 2.28 31.93 3.7 27.38 3.16 31.93 5.15 31.93 5.95 25.2 2.31 25.2 0.22 31.93Z" fill="#7823DC"/><path d="M25.99 25.2 26.8 31.93 28.81 31.93 28.26 27.38 29.7 31.93 31.78 31.93 29.66 25.2 25.99 25.2Z" fill="#7823DC"/><path d="M2.51 19.85C2.29 19.08 2.14 18.28 2.06 17.46 2.07 15.92 4.97 14.26 9.43 13.4 9.38 14.19 9.34 14.99 9.33 15.78 9.98 15.59 10.64 15.42 11.34 15.28 11.36 14.53 11.39 13.79 11.44 13.07 12.86 12.89 14.38 12.79 16 12.79 17.62 12.79 19.14 12.9 20.56 13.07 20.62 13.78 20.65 14.52 20.66 15.28 21.35 15.42 22.02 15.58 22.67 15.78 22.67 14.99 22.63 14.19 22.57 13.4 27.03 14.27 29.93 15.93 29.94 17.47 29.86 18.29 29.71 19.08 29.49 19.85 30.09 20.57 30.54 21.34 30.8 22.15 31.57 20.28 32.02 18.23 32.02 16.08 32.02 7.25 24.83 0.07 16 0.07 7.17 0.07-0.02 7.25-0.02 16.09-0.02 18.24 0.42 20.28 1.2 22.16 1.46 21.35 1.91 20.58 2.51 19.86ZM16 10.79C14.55 10.79 13.09 10.87 11.67 11.03 12.42 5.67 14.29 2.06 16 2.06 17.71 2.06 19.58 5.67 20.33 11.03 18.91 10.87 17.45 10.79 16 10.79ZM29.86 14.05C28.11 12.77 25.41 11.87 22.37 11.34 21.94 7.87 21.04 4.67 19.69 2.58 24.99 4.03 29.04 8.52 29.86 14.05ZM12.3 2.58C10.95 4.67 10.06 7.87 9.62 11.34 6.59 11.87 3.88 12.78 2.13 14.05 2.95 8.52 7 4.03 12.3 2.58Z" fill="#7823DC"/></svg>