<svg viewBox="0 0 32 32" xmlns="http://www.w3.org/2000/svg" xmlns:xlink="http://www.w3.org/1999/xlink" id="Graphic" overflow="hidden"><defs></defs><path d="M23.18 1.93C23.666 1.93 24.06 2.32399 24.06 2.81L24.06 29C24.06 29.4877 23.6676 29.8845 23.18 29.89L9 29.89C8.50924 29.9176 8.08902 29.5422 8.0614 29.0514 8.06044 29.0343 8.05997 29.0171 8.06 29L8.06 2.81C8.05887 2.32399 8.45194 1.92909 8.93795 1.92795 8.95865 1.92791 8.97935 1.92859 9 1.93L23.18 1.93M23.18-0.07 9-0.07C7.40977-0.103137 6.09376 1.15914 6.06063 2.74937 6.0602 2.76958 6.06 2.78979 6.06 2.81L6.06 29C6.03767 30.5959 7.31333 31.9078 8.90928 31.9302 8.93952 31.9306 8.96976 31.9305 9 31.93L23.18 31.93C24.7761 31.9246 26.0656 30.6264 26.0603 29.0303 26.0602 29.0202 26.0601 29.0101 26.06 29L26.06 2.81C26.06 1.21942 24.7706-0.0700001 23.18-0.0700001Z" fill="#7823DC"/><path d="M20.08 1.91 12.04 1.91 12.04 3.91 20.08 3.91 20.08 1.91 20.08 1.91Z" fill="#7823DC"/></svg>