<svg viewBox="0 0 31.98 31.64" xmlns="http://www.w3.org/2000/svg" xmlns:xlink="http://www.w3.org/1999/xlink" id="Layer_1" overflow="hidden"><style>
.MsftOfcResponsive_Fill_7823dc {
 fill:#7823DC; 
}
</style>
<defs></defs><path d="M22.22 14.26C22.22 13.17 21.79 12.15 21.02 11.37 19.69 10.04 17.49 9.83 15.95 10.8 14.4 9.82 12.2 10.04 10.88 11.37 10.11 12.14 9.68 13.17 9.68 14.26 9.68 15.35 10.11 16.38 10.88 17.15L15.96 22.23 21.02 17.16C21.8 16.39 22.22 15.37 22.22 14.26ZM19.61 15.74 15.95 19.4 12.29 15.74C11.9 15.35 11.68 14.82 11.68 14.27 11.68 13.72 11.9 13.19 12.29 12.8 12.68 12.41 13.21 12.19 13.77 12.19 14.33 12.19 14.85 12.41 15.25 12.8L15.96 13.51 16.67 12.8C17.44 12.02 18.82 12.01 19.61 12.8 20.01 13.2 20.22 13.72 20.22 14.27 20.22 14.82 20 15.35 19.61 15.75Z" class="MsftOfcResponsive_Fill_7823dc" fill="#7823DC"/><path d="M8.72 9.12C9.77 8.01 11.08 7.18 12.51 6.65 13.26 7.71 14.47 8.42 15.86 8.45 15.89 8.45 15.93 8.45 15.96 8.45 17.05 8.45 18.08 8.04 18.87 7.28 19.08 7.08 19.26 6.86 19.42 6.63 20.75 7.12 21.99 7.88 23.02 8.9L23.71 9.59 28.05 5.43 27.33 4.71C24.4 1.77 20.5 0.1 16.34 0 16.23 0 16.14 0 16.09 0 16.08 0 16.07 0 16.06 0 16.03 0 15.99 0 15.96 0 15.92 0 15.88 0.01 15.84 0.01 11.55 0.04 7.53 1.74 4.51 4.83L3.84 5.52 8 9.89 8.72 9.12ZM17.49 5.84C17.06 6.25 16.47 6.49 15.9 6.45 14.67 6.42 13.7 5.4 13.73 4.17 13.76 3 14.68 2.08 15.82 2.01 15.89 2.01 15.95 2.01 16.02 2.01L16.02 2.01C17.24 2.05 18.2 3.06 18.17 4.28 18.16 4.87 17.91 5.43 17.48 5.84ZM23.71 6.83C22.64 5.93 21.42 5.23 20.12 4.76 20.14 4.62 20.17 4.48 20.17 4.33 20.18 3.69 20.05 3.09 19.8 2.54 21.76 3.1 23.59 4.08 25.16 5.44L23.7 6.84ZM12.08 2.56C11.87 3.04 11.75 3.57 11.73 4.13 11.73 4.35 11.75 4.56 11.78 4.78 10.4 5.3 9.12 6.04 8.02 7.02L6.64 5.57C8.22 4.16 10.07 3.14 12.08 2.56Z" class="MsftOfcResponsive_Fill_7823dc" fill="#7823DC"/><path d="M9.21 23.33C9.31 23.14 9.41 22.96 9.48 22.76 9.86 21.7 9.8 20.55 9.32 19.53 8.69 18.2 7.45 17.36 6.1 17.16 5.93 15.75 6.06 14.3 6.51 12.92L6.81 11.99 1.15 9.98 0.83 10.95C-0.48 14.9-0.22 19.14 1.57 22.9 1.62 23 1.66 23.08 1.68 23.13 1.68 23.13 1.68 23.14 1.68 23.15 1.7 23.18 1.72 23.21 1.74 23.24 3.68 27.11 7.03 29.96 11.18 31.29L12.1 31.58 14.13 25.91 13.12 25.61C11.66 25.17 10.33 24.38 9.21 23.34ZM7.51 20.38C7.76 20.92 7.8 21.52 7.6 22.08 7.4 22.64 6.99 23.09 6.46 23.34 5.92 23.59 5.32 23.63 4.76 23.42 4.26 23.24 3.85 22.89 3.59 22.43 3.56 22.37 3.52 22.31 3.49 22.24 3.25 21.71 3.22 21.12 3.42 20.58 3.62 20.02 4.03 19.57 4.56 19.32 5.67 18.79 7 19.27 7.52 20.38ZM2.44 12.56 4.34 13.23C4.01 14.59 3.94 15.99 4.1 17.37 3.96 17.42 3.82 17.45 3.69 17.52L3.69 17.52C3.12 17.79 2.64 18.18 2.26 18.65 1.88 16.65 1.93 14.57 2.44 12.56ZM10.88 29.06C8.9 28.28 7.16 27.08 5.74 25.54 6.28 25.51 6.81 25.39 7.31 25.16 7.51 25.07 7.69 24.95 7.87 24.83 8.95 25.83 10.19 26.64 11.56 27.18L10.88 29.07Z" class="MsftOfcResponsive_Fill_7823dc" fill="#7823DC"/><path d="M29.79 23.91C31.96 20.2 32.55 15.86 31.42 11.68L31.17 10.75 25.3 12.11 25.59 13.12C26.01 14.59 26.07 16.14 25.79 17.64 25.58 17.66 25.37 17.67 25.16 17.72 24.06 17.98 23.13 18.65 22.53 19.6 21.93 20.56 21.75 21.69 22 22.79 22.07 23.07 22.16 23.34 22.28 23.6 21.18 24.5 19.9 25.18 18.49 25.55L17.55 25.8 18.92 31.65 19.91 31.4C23.94 30.36 27.36 27.86 29.55 24.33 29.61 24.24 29.65 24.16 29.68 24.1 29.68 24.1 29.69 24.08 29.7 24.07 29.73 24.02 29.75 23.96 29.78 23.91ZM29.71 13.14C30.12 15.22 30.06 17.33 29.53 19.35 29.21 18.92 28.82 18.55 28.35 18.26 28.16 18.14 27.97 18.06 27.77 17.97 28.03 16.52 28.03 15.04 27.75 13.6L29.7 13.15ZM24.23 20.67C24.54 20.17 25.03 19.81 25.61 19.68 25.78 19.64 25.95 19.62 26.12 19.62 26.53 19.62 26.93 19.73 27.29 19.96 27.79 20.27 28.15 20.76 28.28 21.34 28.4 21.85 28.33 22.37 28.09 22.84 28.05 22.91 28.01 22.99 27.97 23.06 27.65 23.54 27.18 23.88 26.61 24.02 26.03 24.15 25.44 24.06 24.93 23.74L24.93 23.74C24.43 23.43 24.07 22.93 23.94 22.36 23.8 21.78 23.9 21.18 24.22 20.68ZM20.4 29.17 19.94 27.21C21.26 26.75 22.48 26.05 23.55 25.17 23.66 25.26 23.77 25.36 23.89 25.43 24.42 25.76 25.01 25.96 25.61 26.03 24.13 27.43 22.36 28.5 20.4 29.16Z" class="MsftOfcResponsive_Fill_7823dc" fill="#7823DC"/></svg>