<svg viewBox="0 0 32 32" xmlns="http://www.w3.org/2000/svg" xmlns:xlink="http://www.w3.org/1999/xlink" id="Graphic" overflow="hidden"><defs></defs><rect x="13.5754" y="24.0001" width="14.8492" height="1.99979" fill="#7823DC" transform="matrix(0.707107 -0.707107 0.707107 0.707107 -11.5269 22.1716)"/><path d="M25 32C23.3431 32 22 30.6569 22 29 22 27.3431 23.3431 26 25 26 26.6569 26 28 27.3431 28 29 27.9982 30.6561 26.6561 31.9982 25 32ZM25 28C24.4477 28 24 28.4477 24 29 24 29.5523 24.4477 30 25 30 25.5523 30 26 29.5523 26 29 25.9994 28.4479 25.5521 28.0006 25 28Z" fill="#7823DC"/><path d="M18 24C16.3431 24 15 22.6569 15 21 15 19.3431 16.3431 18 18 18 19.6569 18 21 19.3431 21 21 20.9982 22.6561 19.6561 23.9982 18 24ZM18 20C17.4477 20 17 20.4477 17 21 17 21.5523 17.4477 22 18 22 18.5523 22 19 21.5523 19 21 18.9994 20.4479 18.5521 20.0006 18 20Z" fill="#7823DC"/><path d="M32 20.066 26.125 14.138 22.138 18.161 20.718 16.752 26.125 11.297 30 15.207 30 1.944 16.873 1.944 20.757 5.863 9.023 17.701 7.604 16.293 17.94 5.863 12.074-0.056 32-0.056 32 20.066Z" fill="#7823DC"/><rect x="5.006" y="18.2594" width="2.07784" height="1.9998" fill="#7823DC" transform="matrix(0.704171 -0.710031 0.710031 0.704171 -11.8864 9.98954)"/><rect x="2.006" y="21.2594" width="2.07784" height="1.9998" fill="#7823DC" transform="matrix(0.704171 -0.710031 0.710031 0.704171 -14.904 8.74693)"/><rect x="0.27757" y="10.8634" width="14.1421" height="1.99979" fill="#7823DC" transform="matrix(0.707107 -0.707107 0.707107 0.707107 -6.23624 8.67094)"/></svg>