<svg viewBox="0 0 32 32" xmlns="http://www.w3.org/2000/svg" xmlns:xlink="http://www.w3.org/1999/xlink" id="Layer_2_00000144328325245699140920000014890284756443101063_" xml:space="preserve" overflow="hidden"><path d="M30 21.9 30 24C30 27.3 27.3 30 24 30L8 30C4.7 30 2 27.3 2 24L2 21.9 30 21.9M32 19.9 0 19.9 0 24C0 28.4 3.6 32 8 32L24 32C28.4 32 32 28.4 32 24L32 19.9 32 19.9Z" fill="#7823DC"/><g><g><path d="M7 2.7 12.4 8C12.6 8.2 12.6 8.5 12.4 8.7L8.9 12.2C8.8 12.3 8.6 12.3 8.5 12.3 8.4 12.3 8.3 12.3 8.1 12.2L2.8 6.8 7 2.7M7-0.2 0 6.8 6.8 13.6C7.3 14.1 7.9 14.3 8.6 14.3 9.2 14.3 9.9 14.1 10.4 13.6L13.9 10.1C14.9 9.1 14.9 7.5 13.9 6.6L7-0.2 7-0.2Z" fill="#7823DC"/><path d="M13 10.7 14.1 11.8 11.9 14 10.8 12.9 13 10.7M13 7.8 8 12.8 11.9 16.7 16.9 11.7 13 7.8 13 7.8Z" fill="#7823DC"/></g></g><path d="M19 19C18.4 19 18 19.4 18 20 18 20.6 18.4 21 19 21 19.6 21 20 20.6 20 20 20 19.4 19.6 19 19 19L19 19Z" fill="#7823DC"/><path d="M19 10C18.4 10 18 10.4 18 11 18 11.6 18.4 12 19 12 19.6 12 20 11.6 20 11 20 10.4 19.6 10 19 10L19 10Z" fill="#7823DC"/><path d="M20 16C19.4 16 19 16.4 19 17 19 17.6 19.4 18 20 18 20.6 18 21 17.6 21 17 21 16.4 20.6 16 20 16L20 16Z" fill="#7823DC"/><path d="M23 11C22.4 11 22 11.4 22 12 22 12.6 22.4 13 23 13 23.6 13 24 12.6 24 12 24 11.4 23.6 11 23 11L23 11Z" fill="#7823DC"/><path d="M23 14C22.4 14 22 14.4 22 15 22 15.6 22.4 16 23 16 23.6 16 24 15.6 24 15 24 14.4 23.6 14 23 14L23 14Z" fill="#7823DC"/><path d="M17 14C16.4 14 16 14.4 16 15 16 15.6 16.4 16 17 16 17.6 16 18 15.6 18 15 18 14.4 17.6 14 17 14L17 14Z" fill="#7823DC"/><path d="M14 17C13.4 17 13 17.4 13 18 13 18.6 13.4 19 14 19 14.6 19 15 18.6 15 18 15 17.4 14.6 17 14 17L14 17Z" fill="#7823DC"/><path d="M24 17C23.4 17 23 17.4 23 18 23 18.6 23.4 19 24 19 24.6 19 25 18.6 25 18 25 17.4 24.6 17 24 17L24 17Z" fill="#7823DC"/><g><g><path d="M28.8 6.3C28.7 6.4 28.6 6.4 28.5 6.4 28.5 6.4 28.5 6.4 28.4 6.4 28.3 6.4 28.2 6.4 28.1 6.3L24.6 2.8C24.5 2.7 24.4 2.5 24.5 2.4 24.5 2.3 24.6 2.2 24.6 2.1L26.8 0 24 0 23.3 0.7C22.6 1.4 22.4 2.4 22.7 3.3 22.8 3.6 23 4 23.3 4.2L26.8 7.7C27.1 8 27.4 8.2 27.7 8.3 28 8.4 28.2 8.4 28.5 8.4 29.1 8.4 29.8 8.2 30.3 7.7L32 5.9 32 3.1 28.8 6.3Z" fill="#7823DC"/><path d="M24 1.9 20.1 5.8 25.1 10.8 29 6.9 24 1.9ZM25.1 8 22.9 5.8 23.8 4.9 24 4.8 26.2 7 26 7.1 25.1 8Z" fill="#7823DC"/></g></g></svg>