<svg viewBox="0 0 32 32" xmlns="http://www.w3.org/2000/svg" xmlns:xlink="http://www.w3.org/1999/xlink" overflow="hidden"><defs></defs><g id="Graphic"><path d="M29.3988 18.0588 20.8 20.769 20.8 17.3081 18.5762 17.5585 15.3032 17.927 10.1393 16.0828 9.30409 15.7845 8.52223 16.2034 5.29292 17.9334 0 17.9334 0 27.9664 5.32281 27.9664 15.1631 31.9564 30.9445 23.7293 32 23.1637 32 17.2389ZM30 21.9663 15.0667 29.7391 5.73334 25.9663 2 25.9663 2 19.9333 5.79486 19.9333 9.46667 17.9663 15.0667 19.9663 18.8 19.546 18.8 21.546 17.7167 21.8971 13.9537 22.6588 13.9537 24.5146 17.9065 23.7866 17.9072 23.7778 30 19.9663Z" fill="#7823DC"/><path d="M26.9083 8.58528C26.9083 7.48828 26.2468 7.15785 24.9443 6.92407L24.9443 4.53453C25.599 4.54003 26.156 5.01327 26.2672 5.65853L26.7316 5.65853C26.6085 4.77303 25.8378 4.12265 24.9443 4.15017L24.9443 3.61288 24.4912 3.61288 24.4912 4.13665C23.5779 4.09397 22.7952 4.7831 22.722 5.69445 22.722 6.59362 23.1592 6.99825 24.4912 7.268L24.4912 9.88008C23.7147 9.86521 23.0718 9.27256 22.9938 8.49986L22.5271 8.49986C22.6192 9.51275 23.4742 10.2849 24.4911 10.2735L24.4911 10.8062 24.9442 10.8062 24.9442 10.2847C26.1584 10.242 26.9083 9.59909 26.9083 8.58528ZM23.1614 5.672C23.1614 5.02684 23.6892 4.58175 24.4911 4.52556L24.4911 6.8364C23.585 6.64083 23.1614 6.37108 23.1614 5.672ZM24.9442 9.90708 24.9442 7.36016C25.9591 7.56248 26.4439 7.82548 26.4439 8.63249 26.4439 9.40352 25.9002 9.8576 24.9442 9.90706Z" fill="#7823DC"/><path d="M25.4443 11.3058 23.9912 11.3058 23.9912 10.7023C22.9199 10.5213 22.1103 9.63255 22.0298 8.549L21.9756 8.00017 23.4233 8.00017 23.4878 8.42498C23.5137 8.75844 23.702 9.05783 23.9912 9.22576L23.9912 7.66616C22.9146 7.38784 22.2222 6.89858 22.2222 5.69448 22.2513 4.68988 22.9969 3.85092 23.9912 3.70425L23.9912 3.11245 25.4443 3.11245 25.4443 3.71792C26.3841 3.87496 27.1085 4.63159 27.2246 5.57729L27.3208 6.15835 25.8657 6.15835 25.7788 5.76675C25.7442 5.54386 25.6243 5.34317 25.4443 5.20718L25.4443 6.51382C26.4565 6.7394 27.4082 7.18082 27.4082 8.58511 27.4173 9.7056 26.561 10.6436 25.4443 10.7365ZM25.4443 8.00307 25.4443 9.31557C25.755 9.24028 25.9661 8.95186 25.9438 8.63296 25.9438 8.35171 25.9155 8.16714 25.4443 8.00307ZM23.9912 5.16323C23.7899 5.25214 23.6605 5.45195 23.6616 5.67202 23.6616 5.85854 23.6616 6.0187 23.9912 6.16714Z" fill="#7823DC"/></g><g id="Layer_3"><path d="M24.7442 2.05471C27.6469 2.05471 30 4.40781 30 7.31051 30 10.2132 27.6469 12.5663 24.7442 12.5663 21.8415 12.5663 19.4884 10.2132 19.4884 7.31057 19.4917 4.40922 21.8428 2.05801 24.7442 2.05471M24.7442 0.05471C20.7369 0.05471 17.4884 3.30324 17.4884 7.31051 17.4884 11.3178 20.7369 14.5663 24.7442 14.5663 28.7514 14.5663 32 11.3178 32 7.31057 32 3.30329 28.7515 0.0547319 24.7442 0.0547098Z" fill="#7823DC"/><path d="M18.0068 12.3927C15.2001 11.7023 13.4844 8.86727 14.1748 6.06051 14.6399 4.16979 16.1161 2.69355 18.0068 2.22848L18.0068 0.17319C14.065 0.87191 11.4359 4.63385 12.1346 8.57572 12.6656 11.5716 15.011 13.9169 18.0068 14.448Z" fill="#7823DC"/><path d="M11.9836 12.3629C9.17161 11.6879 7.43921 8.86119 8.11417 6.0492 8.57377 4.13441 10.0688 2.63939 11.9836 2.17978L11.9836 0.12924C8.03912 0.810661 5.3939 4.56068 6.07532 8.50515 6.59716 11.5258 8.9629 13.8916 11.9836 14.4134Z" fill="#7823DC"/></g></svg>