<svg viewBox="0 0 32 32.03" xmlns="http://www.w3.org/2000/svg" xmlns:xlink="http://www.w3.org/1999/xlink" id="Layer_1" overflow="hidden"><style>
.MsftOfcResponsive_Fill_7823dc {
 fill:#7823DC; 
}
</style>
<defs></defs><path d="M16 2C24.49 2 29.21 4.05 29.95 5 29.22 5.95 24.5 8 16 8 7.5 8 2.79 5.95 2.05 5 2.78 4.05 7.5 2 16 2M16 0C7.16 0 0 2.24 0 5 0 7.76 7.16 10 16 10 24.84 10 32 7.76 32 5 32 2.24 24.84 0 16 0L16 0Z" class="MsftOfcResponsive_Fill_7823dc" fill="#7823DC"/><path d="M15.89 14C15.13 14 14.37 13.98 13.6 13.95L13.69 11.95C18.28 12.15 22.62 11.73 25.61 10.77L26.22 12.68C23.53 13.54 19.86 14 15.9 14Z" class="MsftOfcResponsive_Fill_7823dc" fill="#7823DC"/><path d="M7.25 6.18 6.76 4.24C9.16 3.63 11.92 3.2 14.72 3L14.86 5C12.17 5.2 9.53 5.6 7.24 6.18Z" class="MsftOfcResponsive_Fill_7823dc" fill="#7823DC"/><path d="M14.85 26.04C7.44 26.04 1.85 23.46 1.85 20.04 1.85 17.96 3.9 16.13 7.49 15.04L8.07 16.95C5.51 17.73 3.85 18.94 3.85 20.03 3.85 21.92 8.55 24.03 14.85 24.03 18.06 24.03 21.13 23.47 23.27 22.5L24.1 24.32C21.67 25.42 18.39 26.03 14.85 26.03Z" class="MsftOfcResponsive_Fill_7823dc" fill="#7823DC"/><path d="M15 32.03 13 31.96C13.02 31.48 12.22 30.64 11.38 29.76 9.59 27.87 6.88 25.01 6.31 20.04 6.25 19.54 6.22 18.99 6.19 18.4 6.04 15.46 5.84 11.44 1.08 6.83L2.47 5.39C7.8 10.56 8.04 15.22 8.19 18.3 8.22 18.85 8.24 19.35 8.29 19.81 8.79 24.12 11.12 26.59 12.83 28.39 14.06 29.69 15.04 30.72 14.99 32.04Z" class="MsftOfcResponsive_Fill_7823dc" fill="#7823DC"/><path d="M15 32 13 32C13 26.03 14.23 23.88 19.58 20.48 20.41 19.95 20.99 19.62 21.52 19.32 22.18 18.94 22.76 18.61 23.67 17.98 26.85 15.78 28.98 11.38 29.99 4.9L31.97 5.21C30.87 12.26 28.46 17.11 24.81 19.63 23.82 20.31 23.19 20.67 22.51 21.06 22 21.35 21.44 21.67 20.65 22.17 15.84 25.22 15 26.69 15 32Z" class="MsftOfcResponsive_Fill_7823dc" fill="#7823DC"/></svg>