<svg viewBox="0 0 32 32" xmlns="http://www.w3.org/2000/svg" xmlns:xlink="http://www.w3.org/1999/xlink" id="Layer_1" overflow="hidden"><path d="M30 2 30 30 2 30 2 2 30 2M32 0 0 0 0 32 32 32 32 0 32 0Z" fill="#7823DC"/><path d="M9 2 9 9 2 9 2 2 9 2M11 0 0 0 0 11 11 11 11 0 11 0Z" fill="#7823DC"/><path d="M30 2 30 9 23 9 23 2 30 2M32 0 21 0 21 11 32 11 32 0 32 0Z" fill="#7823DC"/><path d="M9 23 9 30 2 30 2 23 9 23M11 21 0 21 0 32 11 32 11 21 11 21Z" fill="#7823DC"/><path d="M30 23 30 30 23 30 23 23 30 23M32 21 21 21 21 32 32 32 32 21 32 21Z" fill="#7823DC"/><rect x="15" y="3" width="2" height="5" fill="#7823DC"/><rect x="15" y="10" width="2" height="5" fill="#7823DC"/><rect x="15" y="17" width="2" height="5" fill="#7823DC"/><rect x="15" y="24" width="2" height="5" fill="#7823DC"/><rect x="0" y="15" width="5" height="2" fill="#7823DC"/><rect x="7" y="15" width="5" height="2" fill="#7823DC"/><rect x="20" y="15" width="5" height="2" fill="#7823DC"/><rect x="27" y="15" width="5" height="2" fill="#7823DC"/></svg>