<svg viewBox="0 0 32 32" xmlns="http://www.w3.org/2000/svg" xmlns:xlink="http://www.w3.org/1999/xlink" id="Graphic" overflow="hidden"><style>
.MsftOfcResponsive_Fill_7823dc {
 fill:#7823DC; 
}
</style>
<path d="M16 7.7 14 7.7 14 21.6 16 21.6 16 7.7Z" class="MsftOfcResponsive_Fill_7823dc" fill="#7823DC"/><path d="M25.2 13 0 13 0 15 28.2 15 28.2 13.6 25.2 13Z" class="MsftOfcResponsive_Fill_7823dc" fill="#7823DC"/><path d="M30 16.1 28 16.1 28 18.1 30 18.1 30 16.1Z" class="MsftOfcResponsive_Fill_7823dc" fill="#7823DC"/><path d="M24.1 20C24.7 20 25.1 20.4 25.1 21 25.1 21.6 24.7 22 24.1 22 23.5 22 23.1 21.6 23.1 21 23.1 20.4 23.6 20 24.1 20M24.1 18C22.4 18 21.1 19.3 21.1 21 21.1 22.7 22.4 24 24.1 24 25.8 24 27.1 22.7 27.1 21 27.1 19.3 25.8 18 24.1 18Z" class="MsftOfcResponsive_Fill_7823dc" fill="#7823DC"/><path d="M6.2 20C6.8 20 7.2 20.4 7.2 21 7.2 21.6 6.8 22 6.2 22 5.6 22 5.2 21.6 5.2 21 5.2 20.4 5.6 20 6.2 20M6.2 18C4.5 18 3.2 19.3 3.2 21 3.2 22.7 4.5 24 6.2 24 7.9 24 9.2 22.7 9.2 21L9.2 21C9.1 19.3 7.8 18 6.2 18Z" class="MsftOfcResponsive_Fill_7823dc" fill="#7823DC"/><rect x="8" y="20.1" width="14.4" height="2" class="MsftOfcResponsive_Fill_7823dc" fill="#7823DC"/><rect x="25.6" y="20.1" width="5.6" height="2" class="MsftOfcResponsive_Fill_7823dc" fill="#7823DC"/><path d="M2 20.1 2 13.7 0 13.7 0 18.1 4 22.1 5 22.1 5 20.1Z" class="MsftOfcResponsive_Fill_7823dc" fill="#7823DC"/><path d="M25.7 12.1 21.8 6 6.8 6 2.3 13.3 4 14.4 7.8 8 20.8 8 24.6 13.9 30 15.5 30 22.1 32 22.1 32 14.1Z" class="MsftOfcResponsive_Fill_7823dc" fill="#7823DC"/></svg>