<svg viewBox="0 0 32 32" xmlns="http://www.w3.org/2000/svg" xmlns:xlink="http://www.w3.org/1999/xlink" xml:space="preserve" overflow="hidden"><style>
.MsftOfcResponsive_Fill_7823dc {
 fill:#7823DC; 
}
</style>
<g id="Layer_3"></g><g id="Layer_1"></g><g id="Layer_2"></g><g id="Layer_4"></g><g id="Layer_5"><path d="M32.02 32 30.02 32 30.02 10.06 28.26 10.06 28.26 8.06 32.02 8.06Z" class="st0 MsftOfcResponsive_Fill_7823dc" fill="#7823DC"/><path d="M1.97 32-0.03 32-0.03 8.06 3.73 8.06 3.73 10.06 1.97 10.06Z" class="st0 MsftOfcResponsive_Fill_7823dc" fill="#7823DC"/><g><path d="M6.35 16.79C6.25 16.79 6.21 16.79 6.18 16.79 5.06 16.79 4.38 16.34 4.01 15.96 3.56 15.5 3.31 14.88 3.32 14.23L3.31 2.69C3.31 1.64 4.1 0.07 6.27 0.07 6.38 0.07 7.71 0.04 8.57 0.93 8.9 1.28 9.29 1.91 9.22 2.89L9.22 14.04C9.22 15.07 8.79 15.69 8.42 16.04 7.7 16.72 6.73 16.79 6.35 16.79ZM6.27 14.79C6.49 14.8 6.88 14.76 7.07 14.58 7.11 14.54 7.23 14.43 7.23 14.05L7.23 2.82C7.25 2.45 7.16 2.36 7.14 2.32 6.96 2.15 6.56 2.05 6.3 2.08 5.66 2.08 5.34 2.29 5.31 2.72L5.32 14.27C5.32 14.34 5.33 14.46 5.43 14.57 5.58 14.71 5.87 14.79 6.27 14.79 6.26 14.79 6.26 14.79 6.27 14.79Z" class="st0 MsftOfcResponsive_Fill_7823dc" fill="#7823DC"/><path d="M10.28 16.76C10.18 16.76 10.14 16.76 10.11 16.76 9 16.76 8.31 16.31 7.94 15.93 7.49 15.47 7.24 14.85 7.25 14.2L7.23 2.66C7.23 1.61 8.02 0.04 10.19 0.04 10.3 0.04 11.63 0.01 12.49 0.9 12.83 1.25 13.22 1.87 13.15 2.86L13.15 14.01C13.15 15.04 12.72 15.66 12.35 16.01 11.63 16.69 10.66 16.76 10.28 16.76ZM10.19 14.76C10.41 14.77 10.8 14.73 10.99 14.55 11.03 14.51 11.15 14.4 11.15 14.02L11.15 2.79C11.17 2.42 11.08 2.33 11.06 2.29 10.89 2.11 10.47 2.01 10.22 2.04 9.3 2.04 9.23 2.51 9.23 2.66L9.24 14.23C9.24 14.3 9.25 14.42 9.35 14.53 9.5 14.68 9.8 14.76 10.19 14.76 10.18 14.76 10.19 14.76 10.19 14.76Z" class="st0 MsftOfcResponsive_Fill_7823dc" fill="#7823DC"/><path d="M14.2 16.79C14.1 16.79 14.06 16.79 14.03 16.79 12.92 16.79 12.23 16.34 11.86 15.97 11.41 15.51 11.16 14.89 11.17 14.24L11.16 2.69C11.16 1.64 11.95 0.07 14.12 0.07 14.23 0.07 15.56 0.04 16.42 0.93 16.76 1.28 17.15 1.9 17.08 2.89L17.08 14.04C17.08 15.07 16.65 15.69 16.28 16.04 15.55 16.72 14.58 16.79 14.2 16.79ZM14.11 14.79C14.34 14.8 14.72 14.76 14.91 14.58 14.95 14.54 15.07 14.43 15.07 14.05L15.07 2.82C15.09 2.45 15 2.36 14.98 2.32 14.81 2.14 14.41 2.04 14.14 2.07 13.5 2.07 13.18 2.28 13.15 2.71L13.16 14.26C13.16 14.33 13.17 14.45 13.27 14.56 13.43 14.71 13.72 14.79 14.11 14.79 14.11 14.79 14.11 14.79 14.11 14.79Z" class="st0 MsftOfcResponsive_Fill_7823dc" fill="#7823DC"/><path d="M18.12 16.76C18.02 16.76 17.98 16.76 17.95 16.76 16.84 16.76 16.15 16.31 15.78 15.93 15.33 15.47 15.08 14.85 15.09 14.2L15.08 2.66C15.08 1.61 15.87 0.04 18.04 0.04 18.16 0.04 19.48 0.01 20.34 0.9 20.68 1.25 21.07 1.87 21 2.86L21 14.01C21 15.04 20.57 15.66 20.2 16.01 19.47 16.69 18.5 16.76 18.12 16.76ZM18.03 14.76C18.25 14.77 18.64 14.73 18.83 14.55 18.87 14.51 18.99 14.4 18.99 14.02L18.99 2.79C19.01 2.42 18.92 2.33 18.9 2.29 18.73 2.11 18.31 2.01 18.06 2.04 17.42 2.04 17.09 2.25 17.07 2.68L17.08 14.23C17.08 14.3 17.09 14.42 17.19 14.53 17.35 14.68 17.64 14.76 18.03 14.76 18.03 14.76 18.03 14.76 18.03 14.76Z" class="st0 MsftOfcResponsive_Fill_7823dc" fill="#7823DC"/><path d="M22.04 16.76C21.94 16.76 21.9 16.76 21.87 16.76 20.76 16.76 20.07 16.31 19.7 15.93 19.25 15.47 19 14.85 19.01 14.2L19 2.66C19 1.61 19.79 0.04 21.96 0.04 22.08 0.04 23.4 0.01 24.26 0.9 24.6 1.25 24.99 1.87 24.92 2.86L24.92 14.01C24.92 15.04 24.49 15.66 24.12 16.01 23.4 16.69 22.43 16.76 22.04 16.76ZM21.96 14.76C22.18 14.77 22.57 14.73 22.76 14.55 22.8 14.51 22.92 14.4 22.92 14.02L22.92 2.79C22.94 2.42 22.85 2.33 22.83 2.29 22.66 2.11 22.25 2.01 21.99 2.04 21.35 2.04 21.02 2.25 21 2.68L21.01 14.23C21.01 14.3 21.02 14.42 21.12 14.53 21.27 14.68 21.56 14.76 21.96 14.76 21.95 14.76 21.96 14.76 21.96 14.76Z" class="st0 MsftOfcResponsive_Fill_7823dc" fill="#7823DC"/><path d="M25.97 16.79C25.87 16.79 25.83 16.79 25.8 16.79 24.68 16.79 24 16.34 23.63 15.96 23.18 15.5 22.93 14.88 22.94 14.23L22.92 2.69C22.92 1.64 23.71 0.07 25.88 0.07 26 0.07 27.32 0.04 28.18 0.93 28.52 1.28 28.91 1.9 28.84 2.89L28.84 14.04C28.84 15.07 28.41 15.69 28.04 16.04 27.32 16.72 26.35 16.79 25.97 16.79ZM25.88 14.79C26.1 14.8 26.49 14.76 26.68 14.58 26.72 14.54 26.84 14.43 26.84 14.05L26.84 2.82C26.86 2.45 26.77 2.36 26.75 2.32 26.58 2.14 26.15 2.04 25.92 2.07 25 2.07 24.93 2.54 24.93 2.69L24.94 14.26C24.94 14.33 24.95 14.45 25.05 14.56 25.19 14.71 25.49 14.79 25.88 14.79 25.88 14.79 25.88 14.79 25.88 14.79Z" class="st0 MsftOfcResponsive_Fill_7823dc" fill="#7823DC"/></g></g></svg>