<svg viewBox="0 0 32 32" xmlns="http://www.w3.org/2000/svg" xmlns:xlink="http://www.w3.org/1999/xlink" id="Layer_1" xml:space="preserve" overflow="hidden"><path d="M29.8 12 29.8 11.9C29.7 11.3 29.5 10.8 29.3 10.2L29.3 10.1C29.2 9.8 29.1 9.5 29 9.3 26.6 3.8 21.3 0 15.1 0 6.8 0 0 6.9 0 15.5 0 20.9 2.7 25.7 6.9 28.5L8.1 26.9C4.4 24.5 2 20.2 2 15.5 2 8 7.9 2 15.1 2 20.7 2 25.6 5.7 27.4 10.8 27.4 10.9 27.5 11 27.5 11.2 27.6 11.6 27.7 12 27.8 12.4L27.8 12.5C28.4 14.7 29 17.4 29.4 19.3 29.4 19.5 29.5 19.7 29.5 19.8 29.5 19.6 29.6 19.4 29.6 19.3 29.9 18.1 30.1 16.8 30.1 15.5 30.2 14.3 30.1 13.1 29.8 12Z" fill="#7823DC"/><path d="M32 22.3 26.4 22.3 26.4 32 17 32 17 30 24.3 30 24.3 20.3 29.5 20.3C29.5 20.1 29.4 19.9 29.4 19.7 29 17.8 28.3 14.6 27.7 12.2L27.7 12.1C27.6 11.7 27.5 11.3 27.4 10.9 27.4 10.8 27.3 10.6 27.3 10.5 27.2 10.2 27.1 9.8 27 9.6L28.8 8.9 28.8 9.9C28.9 10.2 29 9.5 29.1 9.8L29.1 9.9C29.3 10.4 29.4 11 29.6 11.6L29.6 11.7C30.6 15.5 31.6 20.9 31.7 21.2L32 22.3Z" fill="#7823DC"/><path d="M13.9 23.4C14.5 23.4 14.9 23.6 15.2 24 15.6 24.4 15.8 24.8 15.8 25.3 15.8 25.9 15.6 26.3 15.2 26.6 14.8 27 14.3 27.2 13.9 27.2 13.3 27.2 12.9 27 12.6 26.6 12.2 26.2 12 25.8 12 25.3 12 24.7 12.2 24.3 12.6 24 13 23.7 13.5 23.4 13.9 23.4L13.9 23.4 13.9 23.4 13.9 23.4ZM15.1 5.2C17.2 5.2 18.7 5.8 19.6 6.8 20.6 7.8 20.9 9 20.9 10.3 20.9 11.4 20.5 12.4 19.9 13.2 19.3 14 18.6 14.8 17.8 15.4 17.1 16 16.5 16.7 16 17.5 15.5 18.2 15.1 18.9 15.1 19.9L15.1 21.2 12.8 21.2 12.8 19.6C12.8 18.4 13.2 17.3 13.8 16.5 14.4 15.7 15.1 14.8 16 14.1 16.6 13.5 17.1 12.9 17.6 12.3 18.1 11.7 18.2 11.1 18.2 10.4 18.2 9.4 18 8.7 17.5 8.2 17 7.7 16.2 7.4 15 7.4 13.8 7.4 13 7.6 12.2 8.3 11.5 9 11.1 10 11 11.2L8.5 11.2C8.6 9.4 9.2 7.9 10.5 6.9 11.7 5.8 13.2 5.2 15.1 5.2L15.1 5.2 15.1 5.2 15.1 5.2Z" fill="#7823DC" fill-rule="evenodd" clip-rule="evenodd"/></svg>