<svg viewBox="0 0 32 32" xmlns="http://www.w3.org/2000/svg" xmlns:xlink="http://www.w3.org/1999/xlink" overflow="hidden"><style>
.MsftOfcResponsive_Fill_7823dc {
 fill:#7823DC; 
}
</style>
<g id="Layer_1"><path d="M20.9 19.4 20.5 17.5 30 15.4 29.9 4.1 18.3 2.1 12.7 4.2 12.6 15.5 10.6 15.5 10.7 2.8 18.1 0.1 32 2.3 32 17.1Z" class="st0 MsftOfcResponsive_Fill_7823dc" fill="#7823DC"/><rect x="17.9" y="1.1" width="2" height="14.2" class="st0 MsftOfcResponsive_Fill_7823dc" fill="#7823DC" transform="matrix(1 -0.00206015 0.00206015 1 -0.0168746 0.0390074)"/><path d="M20.9 12.6 20.9 11.7C20.9 9.6 20.9 7.4 20.8 5.4L20.8 4.6 29.1 4.6 29.1 11.5 28.4 11.6C27.3 11.8 26.2 11.9 25.1 12.1 24 12.3 22.9 12.4 21.8 12.6L20.9 12.6ZM22.5 6.1C22.5 7.6 22.5 9.2 22.5 10.7 23.3 10.6 24.1 10.5 24.8 10.3 25.7 10.2 26.5 10 27.4 9.9L27.4 6.1 22.5 6.1Z" class="st0 MsftOfcResponsive_Fill_7823dc" fill="#7823DC"/><rect x="24.2" y="5.3" width="1.6" height="5.9" class="st0 MsftOfcResponsive_Fill_7823dc" fill="#7823DC"/><path d="" class="st1 MsftOfcResponsive_Fill_7823dc" stroke="#FFFFFF" stroke-width="2" stroke-miterlimit="10" fill="#7823DC"/><g><path d="M20.7 21.1 27.8 21.1 27.8 28.3 26.3 28.3 26.3 30.1 29.7 30.1 29.7 22.8 26.1 19.3 20.7 19.3 20.7 21.1 20.7 21.1 20.7 21.1Z" class="st2 MsftOfcResponsive_Fill_7823dc" fill="#7823DC" fill-rule="evenodd" clip-rule="evenodd"/><path d="M3.8 30.1 3.8 28.3 1.9 28.3 1.9 15.5 20.4 15.5 20.4 28.3 7.5 28.3 7.5 30.1 22.2 30.1 22.2 17.3 18.5 13.7 0.1 13.7 0.1 30.1 3.8 30.1 3.8 30.1 3.8 30.1Z" class="st2 MsftOfcResponsive_Fill_7823dc" fill="#7823DC" fill-rule="evenodd" clip-rule="evenodd"/><path d="M24 24.9 28.9 24.9 28.9 26.4 24 26.4 24 24.9Z" class="st2 MsftOfcResponsive_Fill_7823dc" fill="#7823DC" fill-rule="evenodd" clip-rule="evenodd"/><path d="M20.7 28.3 23.7 28.3 23.7 30.1 20.7 30.1 20.7 28.3Z" class="st2 MsftOfcResponsive_Fill_7823dc" fill="#7823DC" fill-rule="evenodd" clip-rule="evenodd"/><path d="M25 32C23.6 32 22.6 30.9 22.6 29.6 22.6 28.2 23.7 27.2 25 27.2 26.3 27.2 27.4 28.3 27.4 29.6 27.5 30.9 26.3 32 25 32L25 32ZM25 28.9C24.7 28.9 24.4 29.1 24.4 29.5 24.4 29.9 24.6 30.1 25 30.1 25.4 30.1 25.6 29.9 25.6 29.5 25.6 29.2 25.3 28.9 25 28.9L25 28.9Z" class="st2 MsftOfcResponsive_Fill_7823dc" fill="#7823DC" fill-rule="evenodd" clip-rule="evenodd"/><path d="M5.9 32C4.5 32 3.5 30.9 3.5 29.6 3.5 28.2 4.6 27.2 5.9 27.2 7.2 27.2 8.3 28.3 8.3 29.6 8.4 30.9 7.3 32 5.9 32L5.9 32ZM5.9 28.9C5.6 28.9 5.3 29.1 5.3 29.5 5.3 29.9 5.5 30.1 5.9 30.1 6.3 30.1 6.5 29.9 6.5 29.5 6.5 29.2 6.2 28.9 5.9 28.9L5.9 28.9Z" class="st2 MsftOfcResponsive_Fill_7823dc" fill="#7823DC" fill-rule="evenodd" clip-rule="evenodd"/><path d="M20.7 20.4 22.5 20.4 22.5 30.1 20.7 30.1 20.7 20.4Z" class="st2 MsftOfcResponsive_Fill_7823dc" fill="#7823DC" fill-rule="evenodd" clip-rule="evenodd"/><path d="M11.3 24.9 3.8 24.9 3.8 17.4 11.2 17.4 11.3 24.9 11.3 24.9 11.3 24.9ZM5.7 23 9.4 23 9.4 19.2 5.7 19.2 5.7 23 5.7 23 5.7 23Z" class="st2 MsftOfcResponsive_Fill_7823dc" fill="#7823DC" fill-rule="evenodd" clip-rule="evenodd"/><path d="M18.8 24.9 13.2 24.9 13.2 19.3 18.7 19.3 18.8 24.9 18.8 24.9 18.8 24.9ZM15 23 16.9 23 16.9 21.1 15 21.1 15 23 15 23 15 23Z" class="st2 MsftOfcResponsive_Fill_7823dc" fill="#7823DC" fill-rule="evenodd" clip-rule="evenodd"/></g></g><g id="Layer_2"></g></svg>