<svg viewBox="0 0 32 32" xmlns="http://www.w3.org/2000/svg" xmlns:xlink="http://www.w3.org/1999/xlink" id="Layer_1" overflow="hidden"><g><path d="M13 2 13 30 2 30 2 2 13 2M15 0 0 0 0 32 15 32 15 0 15 0Z" fill="#7823DC"/><path d="M8.5 5 8.5 19 6.5 19 6.5 5 8.5 5M10.5 3 4.5 3 4.5 21 10.5 21 10.5 3 10.5 3Z" fill="#7823DC"/><path d="M7.5 25C8.1 25 8.5 25.4 8.5 26 8.5 26.6 8.1 27 7.5 27 6.9 27 6.5 26.6 6.5 26 6.5 25.4 6.9 25 7.5 25M7.5 23C5.8 23 4.5 24.3 4.5 26 4.5 27.7 5.8 29 7.5 29 9.2 29 10.5 27.7 10.5 26 10.5 24.3 9.2 23 7.5 23L7.5 23Z" fill="#7823DC"/><rect x="5.5" y="8" width="4" height="2" fill="#7823DC"/></g><g><path d="M30 2 30 30 19 30 19 2 30 2M32 0 17 0 17 32 32 32 32 0 32 0Z" fill="#7823DC"/><path d="M25.5 5 25.5 19 23.5 19 23.5 5 25.5 5M27.5 3 21.5 3 21.5 21 27.5 21 27.5 3 27.5 3Z" fill="#7823DC"/><path d="M24.5 25C25.1 25 25.5 25.4 25.5 26 25.5 26.6 25.1 27 24.5 27 23.9 27 23.5 26.6 23.5 26 23.5 25.4 23.9 25 24.5 25M24.5 23C22.8 23 21.5 24.3 21.5 26 21.5 27.7 22.8 29 24.5 29 26.2 29 27.5 27.7 27.5 26 27.5 24.3 26.2 23 24.5 23L24.5 23Z" fill="#7823DC"/><rect x="22.5" y="8" width="4" height="2" fill="#7823DC"/></g></svg>