<svg width="32" height="32" viewBox="0 0 32 32" xmlns="http://www.w3.org/2000/svg" xmlns:xlink="http://www.w3.org/1999/xlink" overflow="hidden"><defs></defs><g><g><g><defs><rect x="0" y="0" width="32" height="32" id="SVGID_1_" fill="#7823DC"/></defs><clipPath id="SVGID_2_"><use width="100%" height="100%" xlink:href="#SVGID_1_"></use></clipPath><g clip-path="url(#SVGID_2_)"><defs><rect x="0" y="0" width="32" height="32" id="SVGID_3_" fill="#7823DC"/></defs><clipPath id="SVGID_4_"><use width="100%" height="100%" xlink:href="#SVGID_3_"></use></clipPath></g><rect x="9.9" y="10" width="16" height="2" fill="#7823DC" clip-path="url(#SVGID_2_)"/><rect x="5.9" y="10" width="2" height="2" fill="#7823DC" clip-path="url(#SVGID_2_)"/><rect x="9.9" y="14" width="16" height="2" fill="#7823DC" clip-path="url(#SVGID_2_)"/><rect x="5.9" y="14" width="2" height="2" fill="#7823DC" clip-path="url(#SVGID_2_)"/><rect x="9.9" y="18" width="16" height="2" fill="#7823DC" clip-path="url(#SVGID_2_)"/><rect x="5.9" y="18" width="2" height="2" fill="#7823DC" clip-path="url(#SVGID_2_)"/><rect x="9.9" y="22" width="16" height="2" fill="#7823DC" clip-path="url(#SVGID_2_)"/><rect x="5.9" y="22" width="2" height="2" fill="#7823DC" clip-path="url(#SVGID_2_)"/><rect x="9.9" y="26" width="16" height="2" fill="#7823DC" clip-path="url(#SVGID_2_)"/><rect x="5.9" y="26" width="2" height="2" fill="#7823DC" clip-path="url(#SVGID_2_)"/></g></g><path d="M2 0 2 32 30 32 30 0 2 0ZM21.1 2 20.4 3 11.5 3 10.8 2 21.1 2ZM28 30 4 30 4 2 8.5 2 10.5 5 21.6 5 23.6 2 28 2 28 30Z" fill="#7823DC"/></g></svg>