<svg viewBox="0 0 32 32" xmlns="http://www.w3.org/2000/svg" xmlns:xlink="http://www.w3.org/1999/xlink" id="Layer_5" overflow="hidden"><defs></defs><path d="M26 23.21 26 20 16.99 20 16.99 18 14.99 18 14.99 20 6 20 6 23.21 0 23.21 0 34.91 7.01 34.91 7.01 32.19 8.38 32.19 8.38 34.91 15.39 34.91 15.39 23.21 8 23.21 8 22 24 22 24 23.21 16.61 23.21 16.61 34.91 23.62 34.91 23.62 32.19 24.99 32.19 24.99 34.91 32 34.91 32 23.21 26 23.21ZM13.39 32.91 10.38 32.91 10.38 30.19 5.01 30.19 5.01 32.91 2 32.91 2 25.21 13.4 25.21 13.4 32.91ZM30 32.91 26.99 32.91 26.99 30.19 21.62 30.19 21.62 32.91 18.61 32.91 18.61 25.21 30 25.21 30 32.91Z" stroke-width="0" fill="#7823DC"/><rect x="20.19" y="26.68" width="2" height="2" stroke-width="0" fill="#7823DC"/><rect x="23.3" y="26.68" width="2" height="2" stroke-width="0" fill="#7823DC"/><rect x="26.42" y="26.68" width="2" height="2" stroke-width="0" fill="#7823DC"/><rect x="3.58" y="26.68" width="2" height="2" stroke-width="0" fill="#7823DC"/><rect x="6.7" y="26.68" width="2" height="2" stroke-width="0" fill="#7823DC"/><rect x="9.81" y="26.68" width="2" height="2" stroke-width="0" fill="#7823DC"/><path d="M14.99 17 14.99 13.52 17.01 13.52 17.01 18 25 18 25 0 7 0 7 18 14.99 18 14.99 17ZM9 2 23 2 23 16 19.01 16 19.01 11.52 12.99 11.52 12.99 16 9 16 9 2Z" stroke-width="0" fill="#7823DC"/><rect x="18.99" y="4" width="2" height="2" stroke-width="0" fill="#7823DC"/><rect x="14.99" y="4" width="2" height="2" stroke-width="0" fill="#7823DC"/><rect x="10.99" y="4" width="2" height="2" stroke-width="0" fill="#7823DC"/><rect x="18.99" y="8" width="2" height="2" stroke-width="0" fill="#7823DC"/><rect x="14.99" y="8" width="2" height="2" stroke-width="0" fill="#7823DC"/><rect x="10.99" y="8" width="2" height="2" stroke-width="0" fill="#7823DC"/></svg>