<svg viewBox="0 0 28 32" xmlns="http://www.w3.org/2000/svg" xmlns:xlink="http://www.w3.org/1999/xlink" id="Layer_1" overflow="hidden"><style>
.MsftOfcResponsive_Fill_7823dc {
 fill:#7823DC; 
}
</style>
<path d="M8 22C5.76 22 4 19.36 4 16 4 12.64 5.76 10 8 10 10.24 10 12 12.64 12 16 12 19.36 10.24 22 8 22ZM8 12C7.06 12 6 13.71 6 16 6 18.29 7.06 20 8 20 8.94 20 10 18.29 10 16 10 13.71 8.94 12 8 12Z" class="MsftOfcResponsive_Fill_7823dc" fill="#7823DC"/><path d="M18 22C15.76 22 14 19.36 14 16 14 12.64 15.76 10 18 10 20.24 10 22 12.64 22 16 22 19.36 20.24 22 18 22ZM18 12C17.06 12 16 13.71 16 16 16 18.29 17.06 20 18 20 18.94 20 20 18.29 20 16 20 13.71 18.94 12 18 12Z" class="MsftOfcResponsive_Fill_7823dc" fill="#7823DC"/><path d="M23 32C21.31 32 19.82 30.99 18.91 29.45 18.71 29.73 18.49 30 18.24 30.25 17.11 31.38 15.6 32.01 14 32.01 12.4 32.01 10.89 31.39 9.76 30.25 9.51 30 9.29 29.74 9.09 29.45 8.18 30.99 6.69 32 5 32 2.24 32-1.77636e-15 29.31-1.77636e-15 26L-1.77636e-15 14C-1.77636e-15 10.26 1.46 6.75 4.1 4.1 6.74 1.45 10.26 0 14 0 17.74 0 21.25 1.46 23.9 4.1 26.55 6.74 28 10.26 28 14L28 26C28 29.31 25.76 32 23 32ZM20 26C20 28.21 21.35 30 23 30 24.65 30 26 28.21 26 26L26 14C26 10.79 24.75 7.78 22.49 5.51 20.22 3.24 17.21 2 14 2 10.79 2 7.78 3.25 5.51 5.51 3.24 7.78 2 10.79 2 14L2 26C2 28.21 3.35 30 5 30 6.65 30 8 28.21 8 26L10 26C10 27.05 10.43 28.08 11.17 28.83 12.68 30.34 15.32 30.34 16.83 28.83 17.57 28.09 18 27.05 18 26L20 26Z" class="MsftOfcResponsive_Fill_7823dc" fill="#7823DC"/><path d="M6.5 17.5C5.67 17.5 5 16.83 5 16 5 15.17 5.67 14.5 6.5 14.5L6.5 17.5Z" class="MsftOfcResponsive_Fill_7823dc" fill="#7823DC"/><path d="M6.5 17.5 6.5 14.5C7.33 14.5 8 15.17 8 16 8 16.83 7.33 17.5 6.5 17.5Z" class="MsftOfcResponsive_Fill_7823dc" fill="#7823DC"/><path d="M16.5 17.5C15.67 17.5 15 16.83 15 16 15 15.17 15.67 14.5 16.5 14.5L16.5 17.5Z" class="MsftOfcResponsive_Fill_7823dc" fill="#7823DC"/><path d="M16.5 17.5 16.5 14.5C17.33 14.5 18 15.17 18 16 18 16.83 17.33 17.5 16.5 17.5Z" class="MsftOfcResponsive_Fill_7823dc" fill="#7823DC"/></svg>