<svg viewBox="0 0 32 32" xmlns="http://www.w3.org/2000/svg" xmlns:xlink="http://www.w3.org/1999/xlink" overflow="hidden"><style>
.MsftOfcResponsive_Fill_7823dc {
 fill:#7823DC; 
}
</style>
<defs></defs><g id="Layer_3"><path d="M9.9458 26.0488C8.89624 26.0491 8.04519 25.1985 8.04492 24.1489 8.04465 23.0994 8.89526 22.2483 9.94482 22.248 10.9944 22.2478 11.8454 23.0984 11.8457 24.1479 11.8457 24.1481 11.8457 24.1483 11.8457 24.1484 11.8447 25.1974 10.9948 26.0476 9.9458 26.0488ZM9.9458 23.7481C9.72467 23.7478 9.54519 23.9268 9.54492 24.148 9.54465 24.3691 9.72369 24.5486 9.94482 24.5488 10.1659 24.5491 10.3454 24.3701 10.3457 24.1489 10.3457 24.1488 10.3457 24.1486 10.3457 24.1484 10.3456 23.9275 10.1667 23.7484 9.9458 23.748Z" class="MsftOfcResponsive_Fill_7823dc" fill="#7823DC"/><path d="M27.1294 26.4346C26.4299 26.4346 25.8628 25.8675 25.8628 25.168 25.8628 24.4684 26.4299 23.9014 27.1294 23.9014 27.8289 23.9014 28.396 24.4685 28.396 25.168 28.396 25.168 28.396 25.168 28.396 25.168 28.3951 25.8671 27.8285 26.4337 27.1294 26.4346ZM27.1294 24.9014C26.9822 24.9014 26.8628 25.0207 26.8628 25.168 26.8628 25.4629 27.396 25.4629 27.396 25.168 27.396 25.0207 27.2766 24.9014 27.1294 24.9014Z" class="MsftOfcResponsive_Fill_7823dc" fill="#7823DC"/><path d="M24.0039 15.3828C23.4518 15.383 23.0041 14.9355 23.0039 14.3833 23.0039 14.3832 23.0039 14.383 23.0039 14.3828L23.0039 8.043 22.0039 8.043 22.0039 14.3828C22.0039 14.9351 21.5562 15.3828 21.0039 15.3828 20.4516 15.3828 20.0039 14.9351 20.0039 14.3828L20.0039 6.043 25.0039 6.043 25.0039 14.3828C25.004 14.935 24.5565 15.3827 24.0044 15.3828 24.0042 15.3828 24.0041 15.3828 24.0039 15.3828Z" class="MsftOfcResponsive_Fill_7823dc" fill="#7823DC"/><rect x="7.95557" y="8.04297" width="2" height="5.1377" class="MsftOfcResponsive_Fill_7823dc" fill="#7823DC"/><path d="M17.765 15.6 15.468 6.61 14.752 6.043 6.051 6.063 6.051 13.435 4.051 13.435 4.051 4.043 15.448 4.043 17.239 5.462 19.702 15.104 17.765 15.6Z" class="MsftOfcResponsive_Fill_7823dc" fill="#7823DC"/><path d="M9.94678 30.043C6.69132 30.043 4.05225 27.4039 4.05225 24.1485 4.05225 20.893 6.69132 18.2539 9.94678 18.2539 13.2022 18.2539 15.8413 20.893 15.8413 24.1485 15.8371 27.4022 13.2005 30.0388 9.94678 30.043ZM9.94678 20.2539C7.79589 20.2539 6.05225 21.9976 6.05225 24.1485 6.05225 26.2994 7.79589 28.043 9.94678 28.043 12.0977 28.043 13.8413 26.2994 13.8413 24.1485 13.8386 21.9987 12.0965 20.2567 9.94678 20.2539Z" class="MsftOfcResponsive_Fill_7823dc" fill="#7823DC"/><path d="M27.1294 30.043C24.437 30.043 22.2544 27.8604 22.2544 25.168 22.2544 22.4756 24.437 20.293 27.1294 20.293 29.8218 20.293 32.0044 22.4756 32.0044 25.168 32.0017 27.8593 29.8207 30.0403 27.1294 30.043ZM27.1294 22.293C25.5416 22.293 24.2544 23.5802 24.2544 25.168 24.2544 26.7558 25.5416 28.043 27.1294 28.043 28.7172 28.043 30.0044 26.7558 30.0044 25.168 30.0026 23.5809 28.7165 22.2948 27.1294 22.293Z" class="MsftOfcResponsive_Fill_7823dc" fill="#7823DC"/><path d="M23.2549 25.9375 14.7773 25.9375C14.2251 25.9375 13.7773 25.4898 13.7773 24.9375 13.7773 24.3852 14.2251 23.9375 14.7773 23.9375L23.2549 23.9375C23.8072 23.9375 24.2549 24.3852 24.2549 24.9375 24.2549 25.4898 23.8072 25.9375 23.2549 25.9375Z" class="MsftOfcResponsive_Fill_7823dc" fill="#7823DC"/><path d="M5.05078 25.9375 1.61035 25.9375 0.00439 24.332 0.00439 13.665 1.60986 12.0585 7.645 12.0585C8.40863 12.0739 9.16818 12.1741 9.90965 12.3574L15.2056 13.7773C15.7779 13.9153 16.3631 13.9926 16.9516 14.0078L27.79 14.0078 29.396 15.6132 29.396 21.5068C29.396 22.0591 28.9483 22.5068 28.396 22.5068 27.8437 22.5068 27.396 22.0591 27.396 21.5068L27.396 16.4414 26.9619 16.0078 16.9517 16.0078C16.1882 15.9925 15.4288 15.8922 14.6875 15.709L9.3916 14.2891C8.81912 14.151 8.23368 14.0738 7.645 14.0586L2.439 14.0586 2.00443 14.4932 2.00443 23.5039 2.43852 23.9375 5.05082 23.9375C5.6031 23.9375 6.05082 24.3852 6.05082 24.9375 6.05082 25.4898 5.6031 25.9375 5.05082 25.9375Z" class="MsftOfcResponsive_Fill_7823dc" fill="#7823DC"/></g></svg>