<svg viewBox="0 0 32 32" xmlns="http://www.w3.org/2000/svg" xmlns:xlink="http://www.w3.org/1999/xlink" id="Graphic" overflow="hidden"><g><path d="M32 32 21.4 32 21.4 24 32 24 32 26 23.4 26 23.4 30 32 30Z" fill="#7823DC"/><g><defs><path d="M0 32 32 32 32 0 0 0 0 32Z" id="SVGID_1_" fill="#7823DC"/></defs><clipPath id="SVGID_2_"><use width="100%" height="100%" xlink:href="#SVGID_1_" overflow="visible"></use></clipPath><path d="M32 26 27.7 26 27.7 18 32 18 32 20 29.8 20 29.8 24 32 24Z" fill="#7823DC" clip-path="url(#SVGID_2_)"/><g clip-path="url(#SVGID_2_)"><defs><path d="M0 32 32 32 32 0 0 0 0 32Z" id="SVGID_3_" fill="#7823DC"/></defs><clipPath id="SVGID_4_"><use width="100%" height="100%" xlink:href="#SVGID_3_" overflow="visible"></use></clipPath><path d="M4.3 26 0 26 0 24 2.2 24 2.2 20 0 20 0 18 4.3 18Z" fill="#7823DC" clip-path="url(#SVGID_4_)"/><g clip-path="url(#SVGID_4_)"><defs><path d="M0 32 32 32 32 0 0 0 0 32Z" id="SVGID_5_" fill="#7823DC"/></defs><clipPath id="SVGID_6_"><use width="100%" height="100%" xlink:href="#SVGID_5_" overflow="visible"></use></clipPath><path d="M10.6 32 0 32 0 30 8.6 30 8.6 26 0 26 0 24 10.6 24Z" fill="#7823DC" clip-path="url(#SVGID_6_)"/><g clip-path="url(#SVGID_6_)"><defs><path d="M0 32 32 32 32 0 0 0 0 32Z" id="SVGID_7_" fill="#7823DC"/></defs><clipPath id="SVGID_8_"><use width="100%" height="100%" xlink:href="#SVGID_7_" overflow="visible"></use></clipPath><path d="M23.4 32 8.6 32 8.6 24 23.4 24 23.4 32ZM10.6 30 21.3 30 21.3 26 10.6 26 10.6 30Z" fill="#7823DC" clip-path="url(#SVGID_8_)"/><g clip-path="url(#SVGID_8_)"><defs><path d="M0 32 32 32 32 0 0 0 0 32Z" id="SVGID_9_" fill="#7823DC"/></defs><clipPath id="SVGID_10_"><use width="100%" height="100%" xlink:href="#SVGID_9_" overflow="visible"></use></clipPath><path d="M32 20 21.4 20 21.4 11.9 32 11.9 32 14 23.4 14 23.4 18 32 18Z" fill="#7823DC" clip-path="url(#SVGID_10_)"/><g clip-path="url(#SVGID_10_)"><defs><path d="M0 32 32 32 32 0 0 0 0 32Z" id="SVGID_11_" fill="#7823DC"/></defs><clipPath id="SVGID_12_"><use width="100%" height="100%" xlink:href="#SVGID_11_" overflow="visible"></use></clipPath><path d="M32 8 21.4 8 21.4 0 32 0 32 2 23.4 2 23.4 6 32 6Z" fill="#7823DC" clip-path="url(#SVGID_12_)"/><g clip-path="url(#SVGID_12_)"><defs><path d="M0 32 32 32 32 0 0 0 0 32Z" id="SVGID_13_" fill="#7823DC"/></defs><clipPath id="SVGID_14_"><use width="100%" height="100%" xlink:href="#SVGID_13_" overflow="visible"></use></clipPath><path d="M10.6 20 0 20 0 18 8.6 18 8.6 14 0 14 0 11.9 10.6 11.9Z" fill="#7823DC" clip-path="url(#SVGID_14_)"/><g clip-path="url(#SVGID_14_)"><defs><path d="M0 32 32 32 32 0 0 0 0 32Z" id="SVGID_15_" fill="#7823DC"/></defs><clipPath id="SVGID_16_"><use width="100%" height="100%" xlink:href="#SVGID_15_" overflow="visible"></use></clipPath><path d="M23.4 20 8.6 20 8.6 11.9 23.4 11.9 23.4 20ZM10.6 18 21.3 18 21.3 14 10.6 14 10.6 18Z" fill="#7823DC" clip-path="url(#SVGID_16_)"/><g clip-path="url(#SVGID_16_)"><defs><path d="M0 32 32 32 32 0 0 0 0 32Z" id="SVGID_17_" fill="#7823DC"/></defs><clipPath id="SVGID_18_"><use width="100%" height="100%" xlink:href="#SVGID_17_" overflow="visible"></use></clipPath><path d="M29.8 26 14.9 26 14.9 18 29.7 18 29.7 26ZM17 24 27.7 24 27.7 20 17 20 17 24Z" fill="#7823DC" clip-path="url(#SVGID_18_)"/><g clip-path="url(#SVGID_18_)"><defs><path d="M0 32 32 32 32 0 0 0 0 32Z" id="SVGID_19_" fill="#7823DC"/></defs><clipPath id="SVGID_20_"><use width="100%" height="100%" xlink:href="#SVGID_19_" overflow="visible"></use></clipPath><path d="M32 14 27.7 14 27.7 6 32 6 32 8 29.8 8 29.8 11.9 32 11.9Z" fill="#7823DC" clip-path="url(#SVGID_20_)"/><g clip-path="url(#SVGID_20_)"><defs><path d="M0 32 32 32 32 0 0 0 0 32Z" id="SVGID_21_" fill="#7823DC"/></defs><clipPath id="SVGID_22_"><use width="100%" height="100%" xlink:href="#SVGID_21_" overflow="visible"></use></clipPath><path d="M29.8 14 14.9 14 14.9 6 29.7 6 29.7 14ZM17 11.9 27.7 11.9 27.7 8 17 8 17 11.9Z" fill="#7823DC" clip-path="url(#SVGID_22_)"/><g clip-path="url(#SVGID_22_)"><defs><path d="M0 32 32 32 32 0 0 0 0 32Z" id="SVGID_23_" fill="#7823DC"/></defs><clipPath id="SVGID_24_"><use width="100%" height="100%" xlink:href="#SVGID_23_" overflow="visible"></use></clipPath><path d="M17 26 2.2 26 2.2 18 17 18 17 26ZM4.3 24 15 24 15 20 4.3 20 4.3 24Z" fill="#7823DC" clip-path="url(#SVGID_24_)"/></g></g></g></g></g></g></g></g></g></g></g></g></g></svg>