<svg viewBox="0 0 32 32" xmlns="http://www.w3.org/2000/svg" xmlns:xlink="http://www.w3.org/1999/xlink" xml:space="preserve" overflow="hidden"><g id="Graphic"><g><defs><path d="M-1 32 32 32 32 0-1-1-1 32Z" id="SVGID_1_" fill="#7823DC"/></defs><defs><path d="M-1-1 32 0 32 32-1 32-1-1Z" id="SVGID_00000000212670654423253830000000687474335590957475_" fill="#7823DC"/></defs><clipPath id="SVGID_00000122688484549897211110000011024839831479956655_"><use width="100%" height="100%" xlink:href="#SVGID_1_" overflow="visible"></use></clipPath><clipPath id="SVGID_00000055696481190912942090000014180451728882836885_" clip-path="url(#SVGID_00000122688484549897211110000011024839831479956655_)"><use width="100%" height="100%" xlink:href="#SVGID_00000000212670654423253830000000687474335590957475_" overflow="visible"></use></clipPath><g clip-path="url(#SVGID_00000055696481190912942090000014180451728882836885_)"><defs><path d="M-1 32 32 32 32 0-1-1-1 32Z" id="SVGID_00000042711970335170520930000008882786342468575134_" fill="#7823DC"/></defs><clipPath id="SVGID_00000050649091016719946320000006183678783508840603_"><use width="100%" height="100%" xlink:href="#SVGID_00000042711970335170520930000008882786342468575134_" overflow="visible"></use></clipPath><path d="M12 10.6 7.3 10.6 9.8 24.1 13.3 24.1 9.3 25.8 9.3 27.1C8.4 27.5 7.8 28.3 7.8 29.4 7.8 30.7 8.9 31.8 10.3 31.8 11.7 31.8 12.8 30.7 12.8 29.4 12.8 28.4 12.2 27.5 11.3 27.1L11.3 27.1 18.3 24.2 23.9 27.3C23.1 27.7 22.6 28.5 22.6 29.4 22.6 30.7 23.7 31.8 25.1 31.8 26.5 31.8 27.6 30.7 27.6 29.4 27.6 28.3 26.9 27.4 25.9 27.1L25.9 26.2 22.2 24.2 24.2 24.2 27 12.6 27 12.6 27 12.6 27.7 9.7 31.7 8.4 31.1 6.6 26 8.2 25.4 10.7 24 10.7M22.2 10.6 14 10.6M10.3 29.9C10 29.9 9.8 29.7 9.8 29.4 9.8 29.1 10 28.9 10.3 28.9 10.6 28.9 10.8 29.1 10.8 29.4 10.8 29.6 10.6 29.9 10.3 29.9L10.3 29.9ZM25.1 28.8C25.4 28.8 25.6 29 25.6 29.3 25.6 29.6 25.4 29.8 25.1 29.8 24.8 29.8 24.6 29.6 24.6 29.3 24.6 29 24.8 28.8 25.1 28.8L25.1 28.8ZM9.7 12.6 25.1 12.6 24.6 14.5 10 14.5 9.7 12.6 9.7 12.6 9.7 12.6ZM22.7 22.2 18.1 22.2 18.1 22.2 18 22.2 11.5 22.2 11.1 20.3 23.2 20.3 22.7 22.2 22.7 22.2 22.7 22.2ZM23.7 18.3 10.8 18.3 10.4 16.4 24.1 16.4 23.7 18.3 23.7 18.3 23.7 18.3Z" fill="#7823DC" clip-path="url(#SVGID_00000050649091016719946320000006183678783508840603_)"/><path d="M6.7 28.5 6.7 25.8 4.1 28.2 4.1 0 2.2 0 2.2 28 0 25.9 0 28.6 3.3 31.8 6.7 28.5 6.7 28.5Z" fill="#7823DC" clip-path="url(#SVGID_00000050649091016719946320000006183678783508840603_)"/></g></g><path d="M16.7 6.7 16.7 3.9 14.1 6.4 14.1 0 12.2 0 12.2 6.2 10 4.1 10 6.8 13.3 10 16.7 6.7 16.7 6.7Z" fill="#7823DC"/><path d="M25.8 6.7 25.8 3.9 23.3 6.4 23.3 0 21.3 0 21.3 6.2 19.1 4.1 19.1 6.8 22.4 10 25.8 6.7 25.8 6.7Z" fill="#7823DC"/></g><g id="Layer_2" display="none"><g><path d="M15 3C14.9 3 14.7 3 14.6 3 14.4 3 14.2 3 14.1 3 13.4 3 12.7 3.1 12.1 3.2L12.7 3.8 13.8 5C14 5 14.3 5 14.6 5 15.6 5 16.7 5.1 17.7 5.4 21.2 6.3 24.1 8.6 25.7 11.7L28.8 14.8 28.8 14.4C27.4 8 21.8 3.2 15 3ZM25.9 22.9 25.9 22.9C24.3 26.2 21.3 28.7 17.6 29.6 16.6 29.8 15.6 30 14.6 30 13.5 30 12.5 29.9 11.5 29.6 6.4 28.3 2.6 23.9 2.1 18.5 2.1 18.2 2.1 17.8 2.1 17.5 2.1 17.2 2.1 16.8 2.1 16.5 2.4 12.2 5 8.5 8.6 6.5L7.1 5.1C2.9 7.6 0 12.3 0 17.5 0 25.5 6.5 32 14.5 32 20.6 32 25.8 28.2 28 22.9L25.9 22.9Z" fill="#7823DC"/><path d="M21.4 18.5 0.3 18.5 0.3 16.5 23.7 16.5 25.3 18.5" fill="#7823DC"/></g><path d="M18.1 16.5C18.1 16.8 18.1 17.1 18.1 17.5 18.1 17.8 18.1 18.2 18.1 18.5 17.9 26 15.4 29.9 14.6 29.9 13.8 29.9 11.2 26 11 18.5 11 18.2 11 17.8 11 17.5 11 17.2 11 16.8 11 16.5 11.1 13.8 11.4 11.6 11.9 9.9L10.2 8.2C9.5 10.5 9 13.3 9 16.5 9 16.8 9 17.1 9 17.5 9 17.8 9 18.2 9 18.5 9.1 23.2 10.1 27.2 11.5 29.6 12.4 31.1 13.4 32 14.6 32 15.8 32 16.8 31.1 17.7 29.6 19.1 27.2 20.1 23.1 20.2 18.5 20.2 18.2 20.2 17.8 20.2 17.5 20.2 17.2 20.2 16.8 20.2 16.5M19.6 16.5 18.5 16.5M17.6 5.4C16.9 4.1 16 4.2 15 4 14.8 4 14.7 4 14.5 4 14.3 4 14.2 4 14 4 13.5 4.1 13 3.4 12.6 3.8L13.8 5 14 5.2C14.2 5.1 14.4 5 14.5 5 14.9 5 15.7 5.9 16.4 7.6L19 10.2M18.1 16.5C18.1 16.8 18.1 17.1 18.1 17.5 18.1 17.8 18.1 18.2 18.1 18.5L20.2 18.5C20.2 18.2 20.2 17.8 20.2 17.5 20.2 17.2 20.2 16.8 20.2 16.5L19.7 16.5 19 17.1 18.4 16.5" fill="#7823DC"/><path d="M65.9 19.4 65.9 13.9 64.1 12.1 64.1 16.3 55.5 7.9 52.9 10.4 42.6 0 40.1 0 52.9 12.9 55.5 10.4 62.8 17.6 58.5 17.6 60.3 19.4Z" fill="#7823DC"/><g><path d="M32.1 21.4 32.1 15.9 30.2 14.1 30.2 18.3 21.6 9.9 19 12.4 8.7 2 6.2 2 19 14.9 21.6 12.4 29 19.6 24.7 19.6 26.5 21.4Z" fill="#7823DC"/><line x1="18.5" y1="16.5" x2="19.6" y2="16.5" fill="#FFFFFF"/></g></g></svg>