<svg viewBox="0 0 31.92 32" xmlns="http://www.w3.org/2000/svg" xmlns:xlink="http://www.w3.org/1999/xlink" id="Layer_1" overflow="hidden"><style>
.MsftOfcThm_Text2_Fill_v2 {
 fill:#7823DC; 
}
</style>
<path d="M28.68 32 3.23 32 0 14 31.92 14 28.69 32ZM4.91 30 27.01 30 29.53 16 2.39 16 4.91 30Z" class="MsftOfcThm_Text2_Fill_v2" fill="#7823DC"/><path d="M22.8 32 9.12 32 11.12 8.62C9.31 7.72 8.25 6.34 8.25 4.83 8.25 2.12 11.64 8.88178e-16 15.96 8.88178e-16 20.28 8.88178e-16 23.67 2.12 23.67 4.83 23.67 6.34 22.61 7.72 20.8 8.62L22.8 32ZM11.3 30 20.62 30 18.68 7.34 19.38 7.07C20.79 6.52 21.67 5.66 21.67 4.84 21.67 3.5 19.33 2.01 15.96 2.01 12.59 2.01 10.25 3.5 10.25 4.84 10.25 5.66 11.13 6.52 12.54 7.07L13.24 7.34 11.3 30Z" class="MsftOfcThm_Text2_Fill_v2" fill="#7823DC"/></svg>