<svg viewBox="0 0 26.5 28.13" xmlns="http://www.w3.org/2000/svg" xmlns:xlink="http://www.w3.org/1999/xlink" id="Layer_1" overflow="hidden"><style>
.MsftOfcResponsive_Fill_7823dc {
 fill:#7823DC; 
}
</style>
<path d="M30 8.75C29.9161 4.88492 26.7148 1.81968 22.8497 1.90359 19.3909 1.97869 16.5058 4.56924 16.06 8L12 8 10.76 9.25 9.5 8 8.65 8.86 6.65 6.75 6.56 6.83 6.56 6.73 4 6 3.5 7.92 5.56 8.51 7.23 10.25 6.31 11.17 7.57 12.44 6 14 6 14 6 30 26 30 28 28 8 28 8 14.84 12.84 10 28 10 28 28 30 26 30 8.75ZM18.08 8C18.572 5.28276 21.1736 3.47884 23.8908 3.97084 25.9427 4.34235 27.5485 5.94819 27.92 8Z" class="MsftOfcResponsive_Fill_7823dc" fill="#7823DC" transform="translate(-3.5 -1.88)"/><path d="M22.71 18.8C21.5101 16.2569 20.1054 13.8155 18.51 11.5 16.9779 13.7268 15.6173 16.0669 14.44 18.5 14.0056 19.3629 13.7343 20.2986 13.64 21.26 13.6205 21.5965 13.6542 21.934 13.74 22.26 13.9368 22.9477 14.2297 23.6042 14.61 24.21L14.61 24.21C14.69 24.32 14.79 24.43 14.88 24.54 14.9141 24.5791 14.9509 24.6159 14.99 24.65 15.0517 24.7184 15.1186 24.7819 15.19 24.84 17.1905 26.646 20.2764 26.4883 22.0824 24.4877 22.8868 23.5967 23.3345 22.4404 23.34 21.24 23.3503 21.1035 23.3503 20.9665 23.34 20.83 23.2127 20.1304 23.0012 19.4488 22.71 18.8ZM21.23 22.23C20.7243 23.7322 19.0965 24.54 17.5943 24.0343 16.7439 23.748 16.0763 23.0804 15.79 22.23 15.6728 21.9088 15.6054 21.5716 15.59 21.23 15.59 20.42 16.53 18.47 17.73 16.38 17.98 15.95 18.24 15.52 18.51 15.08 18.77 15.52 19.02 15.96 19.26 16.39 20.48 18.54 21.43 20.49 21.43 21.23 21.4146 21.5716 21.3472 21.9088 21.23 22.23Z" class="MsftOfcResponsive_Fill_7823dc" fill="#7823DC" transform="translate(-3.5 -1.88)"/></svg>