<svg width="36.5" height="36.5" viewBox="0 0 36.5 36.5" xmlns="http://www.w3.org/2000/svg" xmlns:xlink="http://www.w3.org/1999/xlink" overflow="hidden"><defs></defs><g><g><defs><path d="M0 36.5 36.5 36.5 36.5 0 0 0 0 36.5Z" id="SVGID_1_" fill="#7823DC"/></defs><clipPath id="SVGID_2_"><use width="100%" height="100%" xlink:href="#SVGID_1_"></use></clipPath><g clip-path="url(#SVGID_2_)"><g><defs><path d="M0 36.5 36.5 36.5 36.5 0 0 0 0 36.5Z" id="SVGID_3_" fill="#7823DC"/></defs><clipPath id="SVGID_4_"><use width="100%" height="100%" xlink:href="#SVGID_3_"></use></clipPath><g clip-path="url(#SVGID_4_)"><defs><path d="M0 36.5 36.5 36.5 36.5 0 0 0 0 36.5Z" id="SVGID_5_" fill="#7823DC"/></defs><clipPath id="SVGID_6_"><use width="100%" height="100%" xlink:href="#SVGID_5_"></use></clipPath><path d="M29.6 25.2 29.6 32.1 27.4 32.1C26.1 32.1 25 31 25 29.7L25 27.6C25 26.3 26.1 25.2 27.4 25.2L29.6 25.2M31.9 22.9 27.4 22.9C24.8 22.9 22.7 25 22.7 27.6L22.7 29.7C22.7 32.3 24.8 34.4 27.4 34.4L31.9 34.4 31.9 22.9 31.9 22.9Z" fill="#7823DC" clip-path="url(#SVGID_6_)"/><path d="M31.9 20.8 29.6 20.8 29.6 36.5 31.9 36.5 31.9 20.8 31.9 20.8 31.9 20.8Z" fill="#7823DC" clip-path="url(#SVGID_6_)"/><path d="M36.5 24.1 30.8 24.1 30.8 26.4 36.5 26.4 36.5 24.1 36.5 24.1 36.5 24.1Z" fill="#7823DC" clip-path="url(#SVGID_6_)"/><path d="M36.5 30.9 30.8 30.9 30.8 33.2 36.5 33.2 36.5 30.9 36.5 30.9 36.5 30.9Z" fill="#7823DC" clip-path="url(#SVGID_6_)"/><path d="M18.3 1.3 16 1.3 16 17.1 18.3 17.1 18.3 1.3 18.3 1.3 18.3 1.3Z" fill="#7823DC" clip-path="url(#SVGID_6_)"/><path d="M28.8 6.9 0 6.9 0 9.2 32.2 9.2 32.2 7.7 28.8 6.9 28.8 6.9 28.8 6.9Z" fill="#7823DC" clip-path="url(#SVGID_6_)"/><path d="M34.2 10.4 31.9 10.4 31.9 12.7 34.2 12.7 34.2 10.4 34.2 10.4 34.2 10.4Z" fill="#7823DC" clip-path="url(#SVGID_6_)"/><path d="M27.5 14.9C28.1 14.9 28.6 15.4 28.6 16 28.6 16.6 28.1 17.1 27.5 17.1 26.9 17.1 26.4 16.6 26.4 16 26.4 15.4 26.9 14.9 27.5 14.9M27.5 12.6C25.6 12.6 24.1 14.1 24.1 16 24.1 17.9 25.6 19.4 27.5 19.4 29.4 19.4 31 18 31 16.1 31 14.2 29.4 12.6 27.5 12.6L27.5 12.6Z" fill="#7823DC" clip-path="url(#SVGID_6_)"/><path d="M7 14.9C7.6 14.9 8.1 15.4 8.1 16 8.1 16.6 7.6 17.1 7 17.1 6.4 17.1 5.9 16.6 5.9 16 5.9 15.4 6.4 14.9 7 14.9M7 12.6C5.1 12.6 3.6 14.1 3.6 16 3.6 17.9 5.1 19.4 7 19.4 8.9 19.4 10.4 17.9 10.4 16L10.4 16C10.4 14.2 8.9 12.6 7 12.6L7 12.6Z" fill="#7823DC" clip-path="url(#SVGID_6_)"/><path d="M9.1 15 25.5 15 25.5 17.3 9.1 17.3 9.1 15Z" fill="#7823DC" clip-path="url(#SVGID_6_)"/><path d="M29.2 15 35.5 15 35.5 17.3 29.2 17.3 29.2 15Z" fill="#7823DC" clip-path="url(#SVGID_6_)"/><path d="M2.3 15 2.3 7.7 0 7.7 0 12.7 0 17.3 4.6 17.3 5.7 17.3 5.7 15 2.3 15 2.3 15Z" fill="#7823DC" clip-path="url(#SVGID_6_)"/><path d="M29.4 5.9 24.7 0.1 7.6 0.1 2.6 7.2 4.5 8.5 8.8 2.4 23.6 2.4 28 7.9 34.2 9.8 34.2 17.3 36.5 17.3 36.5 8.2 29.4 5.9 29.4 5.9Z" fill="#7823DC" clip-path="url(#SVGID_6_)"/><path d="M23.9 29.8 12.3 29.8C6.8 29.8 2.3 25.3 2.3 19.8L2.3 11.4 4.6 11.4 4.6 19.8C4.6 24.1 8.1 27.5 12.3 27.5L24 27.5 24 29.8Z" fill="#7823DC" clip-path="url(#SVGID_6_)"/></g></g></g></g></g></svg>