<svg width="32" height="32" viewBox="0 0 32 32" xmlns="http://www.w3.org/2000/svg" xmlns:xlink="http://www.w3.org/1999/xlink" overflow="hidden"><defs></defs><g><g><defs><rect x="0" y="0" width="32" height="32" id="SVGID_1_" fill="#7823DC"/></defs><clipPath id="SVGID_2_"><use width="100%" height="100%" xlink:href="#SVGID_1_"></use></clipPath><path d="M18.2 26.6 14.9 22.4 12.4 20.8 12.1 19.6 13.5 16 13.2 16 12.2 18.2 10.4 17.4 11.6 14.6 12.5 14 15 14 15.9 15.4 14.2 19.6 16.3 21.1 19.8 25.4Z" fill="#7823DC" clip-path="url(#SVGID_2_)"/><path d="M10.7 26.7 9.3 25.3 11.6 22.8 13.6 19.5 15.6 15.1 17.2 14.8 18.8 16.3 20.7 15.5 21.5 17.3 19.1 18.4 18 18.2 16.8 17.2 15.4 20.5 13.1 24.1Z" fill="#7823DC" clip-path="url(#SVGID_2_)"/><g clip-path="url(#SVGID_2_)"><defs><rect x="0" y="0" width="32" height="32" id="SVGID_3_" fill="#7823DC"/></defs><clipPath id="SVGID_4_"><use width="100%" height="100%" xlink:href="#SVGID_3_"></use></clipPath><path d="M16.5 10.8C15.5 10.8 14.8 11.6 14.8 12.5 14.8 13.5 15.6 14.2 16.5 14.2 17.4 14.2 18.2 13.4 18.2 12.5 18.2 11.5 17.5 10.8 16.5 10.8" fill="#7823DC" clip-path="url(#SVGID_4_)"/><path d="M24 30 22 30 24 26 26 26Z" fill="#7823DC" clip-path="url(#SVGID_4_)"/><path d="M28 30 26 30 28 26 30 26Z" fill="#7823DC" clip-path="url(#SVGID_4_)"/><path d="M20 30 18 30 20 26 22 26Z" fill="#7823DC" clip-path="url(#SVGID_4_)"/><path d="M16 30 14 30 16 26 18 26Z" fill="#7823DC" clip-path="url(#SVGID_4_)"/><path d="M12 30 10 30 12 26 14 26Z" fill="#7823DC" clip-path="url(#SVGID_4_)"/><path d="M8 30 6 30 8 26 10 26Z" fill="#7823DC" clip-path="url(#SVGID_4_)"/><path d="M4 30 2 30 4 26 6 26Z" fill="#7823DC" clip-path="url(#SVGID_4_)"/><path d="M15.9 0 0 25.6 0 29.4 16 3.8 32 29.4 32 25.6Z" fill="#7823DC" clip-path="url(#SVGID_4_)"/><rect x="0" y="30" width="32" height="2" fill="#7823DC" clip-path="url(#SVGID_4_)"/></g></g></g></svg>