<svg viewBox="0 0 32 32" xmlns="http://www.w3.org/2000/svg" xmlns:xlink="http://www.w3.org/1999/xlink" xml:space="preserve" overflow="hidden"><g id="Layer_1"></g><g id="Layer_2"><g><path d="M16 23.3 16 32C16.7 32 17.3 32 18 32L18 23.3 16 23.3Z" fill="#7823DC" fill-rule="evenodd" clip-rule="evenodd"/><path d="M11.1 24.1 9.7 22.7 10.8 21.4 17.2 25.3 18 23.3 10.1 18.9 10.1 18.9 10.1 18.9 10.1 18.9 10.1 19 8.3 21.3 6.8 22.7 8.3 24.1" fill="#7823DC" fill-rule="evenodd" clip-rule="evenodd"/><path d="M5.4 24.1 6.8 22.7 5.3 21.3 3.6 19 3.6 18.9 3.6 18.9 3.6 18.9 3.6 18.9 0 20.4C0 21.2 0 22 0 22.6L2.9 21.4 3.9 22.7 2.5 24.1" fill="#7823DC" fill-rule="evenodd" clip-rule="evenodd"/></g><path d="M30 2 30 9.3 25 9.3 24.3 9.3 23.8 9.7 21.3 11.7 21.3 11.7 21.9 9.2 19.4 9.2 17.9 9.2 17.9 2 30 2M32 0 15.8 0 15.8 11.3 19.3 11.3 18 17 25 11.3 32 11.3 32 0 32 0Z" fill="#7823DC"/><g><rect x="19.9" y="5" width="2" height="3" fill="#7823DC"/><rect x="22.9" y="4" width="2" height="4" fill="#7823DC"/><rect x="25.9" y="3" width="2" height="5" fill="#7823DC"/></g><rect x="5.8" y="26" width="2" height="2" fill="#7823DC" fill-rule="evenodd" clip-rule="evenodd"/><rect x="5.8" y="30" width="2" height="2" fill="#7823DC" fill-rule="evenodd" clip-rule="evenodd"/><path d="M13.3 11C13.1 7.8 10.7 5.1 7.5 4.7 7.2 4.7 6.9 4.6 6.7 4.6 6.1 4.7 5.5 4.8 5 4.9 2.2 5.6 0.2 8.1 0 11L0 11 0 21.2 2 21.2 2 16.1C3.2 17.3 4.8 18 6.7 18 8.6 18 10.1 17.3 11.4 16.1L11.4 21.2 13.4 21.2 13.3 11 13.3 11ZM6.7 16C4.1 16 2 13.9 2 11.3 2 9.5 3.1 7.9 4.6 7.1 5.2 6.8 5.9 6.6 6.6 6.6L6.7 6.6C8.4 6.6 9.9 7.5 10.7 8.9 11.1 9.5 11.3 10.1 11.3 10.9 11.3 11 11.3 11.2 11.3 11.3 11.3 13.9 9.2 16 6.7 16Z" fill="#7823DC"/><path d="M12.8 9.8C12.3 10.3 11.8 10.7 11.3 11 10.7 11.3 10 11.5 9.3 11.5 8.2 11.5 7.2 11.1 6.3 10.3 5.3 9.5 4.7 8.4 4.6 7.2 4.6 7.1 4.6 7 4.6 6.9 4.6 6.2 4.7 5.6 5 5 5.5 4.9 6.1 4.8 6.7 4.8 7 4.8 7.3 4.8 7.5 4.9 6.9 5.3 6.6 6 6.6 6.7 6.6 6.7 6.6 6.8 6.6 6.8 6.6 7.6 6.9 8.3 7.5 8.7 8.5 9.5 9.7 9.6 10.7 8.9 10.9 8.8 11.2 8.6 11.4 8.4L12.8 9.8Z" fill="#7823DC"/></g></svg>