<svg viewBox="0 0 32 32" xmlns="http://www.w3.org/2000/svg" xmlns:xlink="http://www.w3.org/1999/xlink" xml:space="preserve" overflow="hidden"><g id="Layer_1"><path d="M18.3 4 21.4 1.7 22.6 3.2 19.6 5.6 18.3 4 18.3 4Z" fill="#7823DC" fill-rule="evenodd" clip-rule="evenodd"/><path d="M9.2 3.2 10.5 1.7 13.5 4 12.3 5.6 9.2 3.2 9.2 3.2Z" fill="#7823DC" fill-rule="evenodd" clip-rule="evenodd"/><path d="M14.9 0 16.8 0 16.9 3.7 14.9 3.7 14.9 0 14.9 0Z" fill="#7823DC" fill-rule="evenodd" clip-rule="evenodd"/></g><g id="Layer_2"><path d="M16 6.2C14 6.2 12.4 7.8 12.4 9.8 12.4 11.8 14 13.4 16 13.4 18 13.4 19.6 11.8 19.6 9.8 19.6 7.8 18 6.2 16 6.2ZM16 11.5C15.1 11.5 14.3 10.7 14.3 9.8 14.3 8.9 15.1 8.1 16 8.1 16.9 8.1 17.7 8.9 17.7 9.8 17.7 10.7 16.9 11.5 16 11.5Z" fill="#7823DC"/><g><g><g><path d="M-45.3 1.1C-46.8 1.1-47.8 2.4-47.8 4-47.8 5.5-46.5 6.9-45.2 6.9-43.7 6.9-42.6 5.6-42.6 4-42.6 2.3-43.9 1.1-45.3 1.1L-45.3 1.1ZM-44.7 4.5C-45 4.8-45.6 4.9-46 4.5-46.2 4.3-46.2 4.1-46.2 3.8-46.2 3.6-46.1 3.4-46 3.2-45.7 2.9-45.1 2.8-44.7 3.2-44.4 3.5-44.4 4.1-44.7 4.5L-44.7 4.5Z" fill="#7823DC"/><path d="M-48.2 9.4-48.9 15.3-47 15.3-46.1 7.4-49.4 7.4-51.8 15.3-49.9 15.3-48.2 9.4Z" fill="#7823DC"/><path d="M-42.5 9.4-40.9 15.3-39 15.3-41.3 7.4-44.5 7.4-43.6 15.3-41.8 15.3-42.5 9.4Z" fill="#7823DC"/></g></g></g><path d="M22.9 17 18.8 17 21.3 32 19.2 32 16.5 15 21.5 15 23.7 8.8 25.6 9.4Z" fill="#7823DC"/><path d="M15.5 15 12.7 32 10.7 32 13.1 17 9.1 17 6.4 9.4 8.3 8.8 10.5 15Z" fill="#7823DC"/></g></svg>