<svg viewBox="0 0 32 32" xmlns="http://www.w3.org/2000/svg" xmlns:xlink="http://www.w3.org/1999/xlink" id="Layer_2_1_" xml:space="preserve" overflow="hidden"><path d="M32 29.4 32 32 20.4 22.8 21.6 21.2Z" fill="#7823DC"/><line x1="17.7" y1="18.8" x2="17.7" y2="18.8" stroke="#231F20" stroke-width="1.2718" stroke-miterlimit="8" fill="none"/><g><path d="M12.9 2C18.9 2 23.8 6.9 23.8 12.9 23.8 18.9 18.9 23.8 12.9 23.8 6.9 23.8 2 18.9 2 12.9 2 6.9 6.9 2 12.9 2M12.9 0C5.8 0 0 5.8 0 12.9 0 20 5.8 25.8 12.9 25.8 20 25.8 25.8 20 25.8 12.9 25.8 5.8 20 0 12.9 0L12.9 0 12.9 0 12.9 0Z" fill="#7823DC" fill-rule="evenodd" clip-rule="evenodd"/><g><path d="M12.9 23.1 4.2 10 6.7 5.3 19 5.3 21.7 10 12.9 23.1 12.9 23.1 12.9 23.1 12.9 23.1 12.9 23.1ZM6.4 10 12.9 19.5 19.1 10 17.9 7.3 7.7 7.3 6.4 10 6.4 10 6.4 10 6.4 10 6.4 10Z" fill="#7823DC" fill-rule="evenodd" clip-rule="evenodd"/><g><path d="M5.1 9 20.4 9 20.4 11 5.1 11 5.1 9 5.1 9 5.1 9Z" fill="#7823DC" fill-rule="evenodd" clip-rule="evenodd"/><g><path d="M8.9 10.3 10.9 9.8 13.6 21.1 11.8 21.6 8.9 10.3 8.9 10.3 8.9 10.3Z" fill="#7823DC" fill-rule="evenodd" clip-rule="evenodd"/><g><path d="M11.9 21.1 14.7 9.8 16.6 10.3 13.6 21.6 11.9 21.1 11.9 21.1 11.9 21.1Z" fill="#7823DC" fill-rule="evenodd" clip-rule="evenodd"/><g><path d="M9.2 9.6 12.2 5.7 13.6 6.8 10.6 10.5 9.2 9.6 9.2 9.6 9.2 9.6Z" fill="#7823DC" fill-rule="evenodd" clip-rule="evenodd"/><g><path d="M12.2 6.8 13.6 5.7 16.4 9.6 14.9 10.5 12.2 6.8 12.2 6.8 12.2 6.8Z" fill="#7823DC" fill-rule="evenodd" clip-rule="evenodd"/></g></g></g></g></g></g></g></svg>