<svg viewBox="0 0 32 32" xmlns="http://www.w3.org/2000/svg" xmlns:xlink="http://www.w3.org/1999/xlink" id="Layer_1" xml:space="preserve" overflow="hidden"><g><path d="M16 2.1 18.2 2.8C19.6 3.3 21.1 3.5 22.5 3.5 23.6 3.5 24.7 3.3 25.7 3.1L28 2.5C28 6.5 27.8 15.7 27 18.7 25.7 23.9 21.9 26.7 16 29.6 10 26.7 6.3 23.9 5 18.7 4.2 15.7 4.1 6.6 4.1 2.5L6.4 3.1C7.5 3.4 8.5 3.4 9.6 3.4 11.1 3.4 12.5 3.1 13.9 2.7L16 2.1M30 0 25.3 1.2C24.4 1.5 23.5 1.5 22.5 1.5 21.3 1.5 20 1.3 18.8 0.9L16 0 13.2 1C12 1.3 10.8 1.6 9.5 1.6 8.5 1.6 7.7 1.5 6.7 1.3L2 0 2 2C2 2 2 15.2 3 19.2 4.7 25.8 9.5 28.8 15.6 31.7L16 32 16.4 31.7C22.5 28.8 27.3 25.8 29 19.2 30 15.2 30 2 30 2L30 0 30 0 30 0Z" fill="#7823DC" fill-rule="evenodd" clip-rule="evenodd"/><path d="M16 21.9 10.3 14.9 11.8 13.6 15.9 18.6 23.1 7.6 24.8 8.7 16 21.9Z" fill="#7823DC" fill-rule="evenodd" clip-rule="evenodd"/></g></svg>