<svg viewBox="0 0 32 32" xmlns="http://www.w3.org/2000/svg" xmlns:xlink="http://www.w3.org/1999/xlink" xml:space="preserve" overflow="hidden"><style>
.MsftOfcResponsive_Fill_7823dc {
 fill:#7823DC; 
}
</style>
<g id="Layer_3"></g><g id="Layer_1"></g><g id="Layer_2"></g><g id="Layer_4"></g><g id="Layer_5"><path d="M29.4 18.07 20.79 20.79 20.79 17.32 18.56 17.57 15.28 17.94 10.11 16.09 9.27 15.79 8.5 16.21 5.27 17.94-0.03 17.94-0.03 28 5.3 28 15.15 32 30.94 23.76 32 23.19 32 17.25 29.4 18.07 29.4 18.07ZM30 21.99 15.06 29.78 5.71 26 1.98 26 1.98 19.95 5.78 19.95 9.45 17.98 15.05 19.98 18.79 19.56 18.79 21.56 17.71 21.91 13.94 22.67 13.94 24.53 17.9 23.8 17.9 23.79 30 19.99 30 21.99 30 21.99Z" class="st1 MsftOfcResponsive_Fill_7823dc" fill="#7823DC" fill-rule="evenodd" clip-rule="evenodd"/><path d="M27.05 11.12 27.05 8.5 23.3 12.24 23.3 0 21.42 0 21.42 12.24 17.66 8.5 17.66 11.12 22.36 15.79 27.05 11.12Z" class="st1 MsftOfcResponsive_Fill_7823dc" fill="#7823DC" fill-rule="evenodd" clip-rule="evenodd"/></g></svg>