<svg width="36.5" height="36.5" viewBox="0 0 36.5 36.5" xmlns="http://www.w3.org/2000/svg" xmlns:xlink="http://www.w3.org/1999/xlink" overflow="hidden"><defs></defs><g><g><defs><path d="M0 36.5 36.5 36.5 36.5 0 0 0 0 36.5Z" id="SVGID_1_" fill="#7823DC"/></defs><clipPath id="SVGID_2_"><use width="100%" height="100%" xlink:href="#SVGID_1_"></use></clipPath><g clip-path="url(#SVGID_2_)"><defs><path d="M0 36.5 36.5 36.5 36.5 0 0 0 0 36.5Z" id="SVGID_3_" fill="#7823DC"/></defs><clipPath id="SVGID_4_"><use width="100%" height="100%" xlink:href="#SVGID_3_"></use></clipPath><path d="M12.6 20C12.6 20 12.6 20 12.6 20 10.8 20 9.1 19.3 7.8 18 5.1 15.3 5.1 11 7.8 8.3 9.1 7 10.8 6.3 12.6 6.3 14.4 6.3 16.1 7 17.4 8.3 20.1 11 20.1 15.3 17.4 18 16.2 19.3 14.4 20 12.6 20ZM12.6 8.6C11.4 8.6 10.2 9.1 9.4 9.9 7.6 11.7 7.6 14.6 9.4 16.4 10.3 17.3 11.4 17.7 12.6 17.7 13.8 17.7 15 17.2 15.8 16.4 17.6 14.6 17.6 11.7 15.8 9.9 15 9.1 13.8 8.6 12.6 8.6Z" fill="#7823DC" clip-path="url(#SVGID_4_)"/><path d="M11 11.4C10.5 11.4 10.1 11.6 9.8 11.9 9.1 12.6 9.1 13.6 9.8 14.3 9.8 14.3 9.8 14.3 9.8 14.3 10.5 15 11.5 15 12.2 14.3 12.9 13.6 12.9 12.6 12.2 11.9 12.2 11.9 12.2 11.9 12.2 11.9 11.9 11.6 11.4 11.4 11 11.4L11 11.4Z" fill="#7823DC" clip-path="url(#SVGID_4_)"/><path d="M27.9 30.1 31.1 30.1 17.4 16.4 15.8 18 27.9 30.1 27.9 30.1Z" fill="#7823DC" clip-path="url(#SVGID_4_)"/></g></g></g></svg>