<svg viewBox="0 0 32 31.97" xmlns="http://www.w3.org/2000/svg" xmlns:xlink="http://www.w3.org/1999/xlink" id="Layer_1" overflow="hidden"><style>
.MsftOfcResponsive_Fill_7823dc {
 fill:#7823DC; 
}
</style>
<defs></defs><path d="M16 10.74C13.1 10.74 10.74 13.1 10.74 16 10.74 18.9 13.1 21.26 16 21.26 18.9 21.26 21.26 18.9 21.26 16 21.26 13.1 18.9 10.74 16 10.74ZM16 19.26C14.2 19.26 12.74 17.8 12.74 16 12.74 14.2 14.2 12.74 16 12.74 17.8 12.74 19.26 14.2 19.26 16 19.26 17.8 17.8 19.26 16 19.26Z" class="MsftOfcResponsive_Fill_7823dc" fill="#7823DC"/><path d="M31.77 27.3 31.72 27.2C31.35 26.42 30.71 25.83 29.9 25.54 29.09 25.25 28.22 25.29 27.44 25.65L26.27 26.18 24.74 25.88 22.96 22.85C26.13 19.48 27.28 14.62 25.81 10.09L23.85 4.05 22.4 4.05 24.77-1.77636e-15 22.45-1.77636e-15 20.08 4.05 11.93 4.05 9.55 0 7.24 0 9.62 4.05 8.16 4.05 6.2 10.09C4.73 14.62 5.88 19.48 9.05 22.85L7.27 25.88 5.74 26.18 4.58 25.65C3.8 25.29 2.93 25.25 2.12 25.54 1.31 25.83 0.66 26.42 0.3 27.2L0.25 27.3C-0.03 27.9-0.06 28.57 0.16 29.2 0.38 29.82 0.84 30.32 1.44 30.6L3.86 31.73C4.2 31.89 4.57 31.97 4.92 31.97 5.86 31.97 6.77 31.44 7.19 30.53L8.37 28.02 8.37 27.99C8.37 27.99 10.57 24.23 10.57 24.23 10.67 24.31 10.77 24.39 10.88 24.47L16.02 28.2 21.16 24.47C21.27 24.39 21.36 24.31 21.47 24.23L23.68 27.99 23.68 28.02C23.68 28.02 24.85 30.53 24.85 30.53 25.28 31.44 26.18 31.97 27.12 31.97 27.48 31.97 27.84 31.89 28.18 31.73L30.6 30.6C31.84 30.02 32.37 28.54 31.79 27.3ZM5.38 29.68C5.26 29.93 4.96 30.04 4.71 29.92L2.29 28.79C2.13 28.72 2.07 28.59 2.04 28.52 2.01 28.45 1.98 28.31 2.06 28.15L2.11 28.05C2.25 27.75 2.49 27.53 2.8 27.42 2.94 27.37 3.08 27.35 3.22 27.35 3.4 27.35 3.57 27.39 3.74 27.47L5.5 28.28 6.1 28.16 5.38 29.69ZM16.01 25.73 12.05 22.85C8.23 20.08 6.65 15.2 8.11 10.71L9.62 6.05 22.41 6.05 23.92 10.71C25.38 15.2 23.79 20.08 19.98 22.85L16.02 25.73ZM29.73 28.79 27.31 29.92C27.15 30 27 29.96 26.92 29.94 26.79 29.89 26.69 29.8 26.63 29.68L25.91 28.15 26.51 28.27 28.26 27.47 28.26 27.47C28.56 27.33 28.89 27.31 29.2 27.42 29.51 27.53 29.75 27.76 29.89 28.05L29.94 28.15C30.05 28.39 29.94 28.68 29.71 28.79Z" class="MsftOfcResponsive_Fill_7823dc" fill="#7823DC"/></svg>