<svg viewBox="0 0 32 32" xmlns="http://www.w3.org/2000/svg" xmlns:xlink="http://www.w3.org/1999/xlink" overflow="hidden"><defs></defs><g id="Layer_3"><path d="M27.7402 32.0059 23.8018 32.0059 24.7783 27.1231 15.8193 27.9375 14.8027 32.0059 11.0215 32.0059 11.0215 27.7061 0.02148 23.7061 0.02148 18.2266 0.77734 18.0361C3.19657 17.4066 5.26223 15.8331 6.51172 13.668 6.63477 13.4688 6.74902 13.2738 6.85449 13.083 5.63965 11.2305 4.44141 8.17186 6.31449 6.29882 6.55002 6.05702 6.88146 5.9334 7.21781 5.9619 7.76081 5.99511 8.38969 6.24413 10.4668 8.83495 13.1768 8.08295 23.2217 5.79195 28.7285 11.2988 30.5674 13.1377 31.2051 18.0752 31.0176 20.0977 30.75 23.0205 28.083 30.9863 27.9697 31.3242ZM26.2412 30.0059 26.2988 30.0059C26.9531 28.0029 28.8223 22.1416 29.0254 19.915L29.0254 19.913C29.2012 18.0214 28.4746 13.873 27.3145 12.7128 21.9023 7.30078 10.875 10.7852 10.4092 10.9365L9.74418 11.1523 9.31352 10.6016C8.71513 9.81011 8.07181 9.05366 7.38672 8.33594 7.06836 9.63184 8.28027 11.6797 8.82227 12.4072L9.18555 12.8945 8.9209 13.4424C8.70647 13.8806 8.46983 14.3076 8.2119 14.7217 6.82515 17.0936 4.62595 18.8827 2.02147 19.7578L2.02147 22.3057 13.0215 26.3057 13.0215 30.0059 13.2402 30.0059 14.2236 26.0742 27.2646 24.8887Z" fill="#7823DC"/><path d="M10.307 10.964 9.715 9.054 9.891 9.008 10.307 10.964Z" fill="#7823DC"/><rect x="7.02148" y="18.0059" width="2" height="2" fill="#7823DC"/><path d="M29.854 13.561 28.189 12.451 30.021 9.703 30.021 7.006 29.021 7.006 29.021 9.006 27.021 9.006 27.021 5.006 32.021 5.006 32.021 10.309 29.854 13.561Z" fill="#7823DC"/><path d="M12.1953 14.5693C12.1816 14.5488 10.7539 12.4609 9.31055 10.5977L10.8926 9.37305C12.373 11.2852 13.7881 13.3545 13.8476 13.4424Z" fill="#7823DC"/></g></svg>