<svg viewBox="0 0 32 32" xmlns="http://www.w3.org/2000/svg" xmlns:xlink="http://www.w3.org/1999/xlink" id="Layer_2_00000144328325245699140920000014890284756443101063_" xml:space="preserve" overflow="hidden"><path d="M19.1 24C18.3 24 17.5 23.9 16.7 23.9 16.5 24.2 16.3 24.5 16 24.7 15.7 24.4 15.6 24.1 15.3 23.9 14.5 23.9 13.7 23.9 12.9 24 5.6 24.3 0 26 0 27.9 0 30.1 7.2 31.9 16 31.9 24.8 31.9 32 30.1 32 27.9 32 26 26.4 24.3 19.1 24ZM16 30C8.8 30 4.2 28.8 2.5 28 4 27.2 8.1 26.1 14.4 26 14.9 26 15.5 26 16 26 16.5 26 17.1 26 17.6 26 23.9 26.2 28 27.2 29.5 28 27.8 28.8 23.2 30 16 30Z" fill="#7823DC"/><path d="M16 4.8C14.3 4.8 13 6.1 13 7.8 13 9.5 14.3 10.8 16 10.8 17.7 10.8 19 9.5 19 7.8 19 6.1 17.7 4.8 16 4.8ZM16 8.8C15.4 8.8 15 8.4 15 7.8 15 7.2 15.4 6.8 16 6.8 16.6 6.8 17 7.2 17 7.8 17 8.4 16.6 8.8 16 8.8Z" fill="#7823DC" fill-rule="evenodd" clip-rule="evenodd"/><path d="M18 11.3 16 14 14 11.3 12 11.3 12 15.2 14 15.2 18 15.2 20 15.2 20 11.3 18 11.3Z" fill="#7823DC" fill-rule="evenodd" clip-rule="evenodd"/><path d="M16 2C20.5 2 24.1 5.4 24.1 9.5 24.1 12.4 19.7 19.6 16.1 24.6 12.4 19.5 7.9 12.4 7.9 9.5 7.9 5.4 11.5 2 16 2M16 0C10.4 0 5.9 4.3 5.9 9.5 5.9 14.7 16.1 28 16.1 28 16.1 28 26.1 14.7 26.1 9.5 26.1 4.3 21.6 0 16 0L16 0Z" fill="#7823DC"/></svg>