<svg viewBox="0 0 32 32" xmlns="http://www.w3.org/2000/svg" xmlns:xlink="http://www.w3.org/1999/xlink" id="Layer_1" overflow="hidden"><style>
.MsftOfcResponsive_Fill_7823dc {
 fill:#7823DC; 
}
</style>
<path d="M16 25C11.04 25 7 20.96 7 16 7 11.04 11.04 7 16 7 20.96 7 25 11.04 25 16 25 20.96 20.96 25 16 25ZM16 9C12.14 9 9 12.14 9 16 9 19.86 12.14 23 16 23 19.86 23 23 19.86 23 16 23 12.14 19.86 9 16 9Z" class="MsftOfcResponsive_Fill_7823dc" fill="#7823DC"/><path d="M10.57 32 5.28 32C2.37 32-0.01 29.31-0.01 26L-0.01 6C0 2.69 2.37 0 5.29 0L10.58 0 10.58 11.5 8.58 11.5 8.58 2 5.29 2C3.48 2 2 3.79 2 6L2 26C2 28.21 3.47 30 5.29 30L8.58 30 8.58 20.88 10.58 20.88 10.58 32Z" class="MsftOfcResponsive_Fill_7823dc" fill="#7823DC"/><path d="M26.5 32 21 32 21 22 23 22 23 30 26.5 30C28.43 30 30 28.21 30 26L30 6C30 3.79 28.43 2 26.5 2L23 2 23 11.12 21 11.12 21 0 26.5 0C29.53 0 32 2.69 32 6L32 26C32 29.31 29.53 32 26.5 32Z" class="MsftOfcResponsive_Fill_7823dc" fill="#7823DC"/><path d="M23 30 8.57 30 8.57 21.89 10.57 21.89 10.57 28 21 28 21 21.59 23 21.59 23 30Z" class="MsftOfcResponsive_Fill_7823dc" fill="#7823DC"/><path d="M23 10 21 10 21 2 10.57 2 10.57 10 8.57 10 8.57 0 23 0 23 10Z" class="MsftOfcResponsive_Fill_7823dc" fill="#7823DC"/><rect x="4.29" y="21.93" width="2" height="4.07" class="MsftOfcResponsive_Fill_7823dc" fill="#7823DC"/><rect x="25.71" y="21.93" width="2" height="4.07" class="MsftOfcResponsive_Fill_7823dc" fill="#7823DC"/><circle cx="16" cy="16" r="2" class="MsftOfcResponsive_Fill_7823dc" fill="#7823DC"/></svg>