<svg viewBox="0 0 31.97 31.97" xmlns="http://www.w3.org/2000/svg" xmlns:xlink="http://www.w3.org/1999/xlink" id="Layer_1" overflow="hidden"><style>
.MsftOfcResponsive_Fill_7823dc {
 fill:#7823DC; 
}
</style>
<defs></defs><path d="M15.97 22.74C13.51 22.74 11.51 20.74 11.51 18.28 11.51 15.82 13.51 13.82 15.97 13.82 18.43 13.82 20.43 15.82 20.43 18.28 20.43 20.74 18.43 22.74 15.97 22.74ZM15.97 15.82C14.61 15.82 13.51 16.92 13.51 18.28 13.51 19.64 14.61 20.74 15.97 20.74 17.33 20.74 18.43 19.64 18.43 18.28 18.43 16.92 17.33 15.82 15.97 15.82Z" class="MsftOfcResponsive_Fill_7823dc" fill="#7823DC"/><path d="M21.74 22.74C20.3 22.74 18.96 22.05 18.05 20.84 17.72 20.4 17.81 19.77 18.25 19.44 18.69 19.11 19.32 19.2 19.65 19.64 20.17 20.34 20.93 20.74 21.73 20.74 23.13 20.74 24.19 19.68 24.19 18.28 24.19 16.96 23.2 15.9 21.9 15.82 21.35 15.79 20.93 15.31 20.96 14.76 20.99 14.21 21.47 13.79 22.02 13.82 24.4 13.97 26.19 15.89 26.19 18.28 26.19 20.67 24.23 22.74 21.73 22.74Z" class="MsftOfcResponsive_Fill_7823dc" fill="#7823DC"/><path d="M18.89 27.68C18.49 27.68 18.09 27.63 17.7 27.52 16.54 27.21 15.55 26.46 14.98 25.46 14.26 24.17 14.21 22.7 14.82 21.33 15.05 20.83 15.64 20.6 16.14 20.82 16.64 21.04 16.87 21.64 16.65 22.14 16.3 22.93 16.33 23.76 16.73 24.48 17.03 25.01 17.58 25.41 18.22 25.59 18.87 25.76 19.55 25.68 20.09 25.37 21.23 24.72 21.66 23.35 21.08 22.19 20.83 21.7 21.03 21.1 21.53 20.85 22.03 20.6 22.62 20.8 22.87 21.3 23.92 23.39 23.13 25.95 21.09 27.12 20.43 27.5 19.67 27.69 18.9 27.69Z" class="MsftOfcResponsive_Fill_7823dc" fill="#7823DC"/><path d="M13.11 27.71C12.35 27.71 11.57 27.51 10.86 27.11 8.77 25.91 8.01 23.12 9.22 21.01 9.92 19.75 11.21 18.93 12.76 18.78 13.32 18.72 13.8 19.13 13.85 19.68 13.9 20.23 13.5 20.72 12.95 20.77 12.43 20.82 11.48 21.05 10.96 21.99 10.3 23.15 10.72 24.72 11.85 25.37 13.01 26.03 14.39 25.72 15.15 24.63 15.46 24.18 16.09 24.06 16.54 24.38 16.99 24.69 17.11 25.32 16.79 25.77 15.92 27.03 14.53 27.71 13.11 27.71Z" class="MsftOfcResponsive_Fill_7823dc" fill="#7823DC"/><path d="M9.97 22.74C9.97 22.74 9.93 22.74 9.91 22.74 7.53 22.59 5.74 20.67 5.74 18.28 5.74 15.89 7.7 13.82 10.2 13.82 11.64 13.82 12.98 14.51 13.88 15.72 14.21 16.16 14.12 16.79 13.68 17.12 13.24 17.45 12.61 17.36 12.28 16.92 11.76 16.22 11 15.82 10.2 15.82 8.8 15.82 7.74 16.88 7.74 18.28 7.74 19.6 8.73 20.66 10.03 20.74 10.58 20.77 11 21.25 10.97 21.8 10.94 22.33 10.5 22.74 9.97 22.74Z" class="MsftOfcResponsive_Fill_7823dc" fill="#7823DC"/><path d="M16.2 15.82C16.06 15.82 15.93 15.79 15.79 15.73 15.29 15.51 15.06 14.91 15.28 14.41 15.53 13.85 15.72 12.99 15.2 12.07 14.9 11.54 14.35 11.14 13.71 10.96 13.06 10.79 12.38 10.87 11.84 11.18 10.7 11.83 10.27 13.2 10.85 14.36 11.1 14.85 10.9 15.45 10.4 15.7 9.91 15.95 9.3 15.75 9.06 15.25 8.01 13.16 8.8 10.6 10.84 9.43 11.84 8.86 13.07 8.71 14.22 9.01 15.38 9.32 16.37 10.07 16.94 11.07 17.66 12.36 17.71 13.83 17.1 15.2 16.93 15.57 16.57 15.79 16.19 15.79Z" class="MsftOfcResponsive_Fill_7823dc" fill="#7823DC"/><path d="M19.09 17.78C18.58 17.78 18.15 17.4 18.1 16.88 18.05 16.33 18.45 15.84 19 15.79 19.52 15.74 20.47 15.51 20.99 14.57 21.31 14.01 21.39 13.33 21.22 12.69 21.05 12.05 20.64 11.5 20.1 11.19 18.94 10.53 17.56 10.84 16.8 11.93 16.49 12.38 15.86 12.5 15.41 12.18 14.96 11.87 14.84 11.24 15.16 10.79 16.5 8.86 19.05 8.28 21.09 9.45 22.09 10.02 22.84 11.01 23.15 12.17 23.46 13.32 23.3 14.55 22.73 15.55 22.03 16.81 20.74 17.63 19.19 17.78 19.16 17.78 19.12 17.78 19.09 17.78Z" class="MsftOfcResponsive_Fill_7823dc" fill="#7823DC"/><path d="M15.97 31.97C13.47 31.97 11.51 30.01 11.51 27.51 11.51 27.21 11.51 26.7 11.73 26.26 11.98 25.77 12.58 25.57 13.07 25.81 13.56 26.06 13.77 26.66 13.52 27.15 13.51 27.2 13.51 27.42 13.51 27.51 13.51 28.91 14.57 29.97 15.97 29.97 17.37 29.97 18.43 28.91 18.43 27.51 18.43 27.42 18.43 27.2 18.41 27.12 18.16 26.63 18.37 26.04 18.87 25.79 19.36 25.54 19.97 25.76 20.22 26.25 20.44 26.69 20.44 27.2 20.44 27.5 20.44 30 18.48 31.96 15.98 31.96Z" class="MsftOfcResponsive_Fill_7823dc" fill="#7823DC"/><path d="M15.97 12.36C15.42 12.36 14.97 11.91 14.97 11.36 14.97 6.18 22.58 2.28 27.51 2.28 28.06 2.28 28.51 2.73 28.51 3.28 28.51 3.83 28.06 4.28 27.51 4.28 23.44 4.28 16.97 7.52 16.97 11.36 16.97 11.91 16.52 12.36 15.97 12.36Z" class="MsftOfcResponsive_Fill_7823dc" fill="#7823DC"/><path d="M27.51 8.9C26.38 8.9 25.24 8.55 24.3 7.92L25.41 6.26C26.03 6.67 26.77 6.9 27.51 6.9 28.96 6.9 29.97 6.21 29.97 5.59 29.97 4.97 28.96 4.28 27.51 4.28L27.51 2.28C30.01 2.28 31.97 3.73 31.97 5.59 31.97 7.45 30.01 8.9 27.51 8.9Z" class="MsftOfcResponsive_Fill_7823dc" fill="#7823DC"/><path d="M4.89 14.43C1.78 12.92 0.3 8.83 0.24 8.66L0 7.99 0.56 7.55C0.68 7.45 3.24 5.43 6.17 5.12 6.43 2.78 7.58 0.72 7.63 0.62L7.98 -7.77156e-16 8.68 0.12C8.87 0.15 13.4 0.98 15.28 4.12L13.57 5.15C12.6 3.54 10.4 2.63 9.06 2.26 8.68 3.1 8.11 4.61 8.13 6.06L8.13 7.11C8.13 7.11 7.09 7.07 7.09 7.07 5.27 7 3.36 8.06 2.42 8.67 2.92 9.75 4.05 11.79 5.77 12.63L4.89 14.43Z" class="MsftOfcResponsive_Fill_7823dc" fill="#7823DC"/></svg>