<svg viewBox="0 0 29.22 29.22" xmlns="http://www.w3.org/2000/svg" xmlns:xlink="http://www.w3.org/1999/xlink" xml:space="preserve" overflow="hidden"><style>
.MsftOfcResponsive_Fill_7823dc {
 fill:#7823DC; 
}
</style>
<g id="Layer_3"></g><g id="Layer_1"></g><g id="Layer_2"></g><g id="Layer_4"></g><g id="Layer_5"><path d="M6.07 1.39 10.17 7.44 8.61 8.48 4.51 2.43 3.01 3.45 7.11 9.5 5.61 10.52 1.51 4.47 0.01 5.49 4.11 11.54 4.63 12.31 4.87 12.66C6.14 14.55 8.7 15.05 10.59 13.79L10.19 14.06 20.46 29.23 22.65 29.23 11.69 13.03 11.35 13.26C13.22 11.98 13.7 9.42 12.42 7.54L12.18 7.19 11.66 6.42 7.56 0.37 6.07 1.39ZM10.35 11.73 9.6 12.24C8.7 12.85 7.5 12.74 6.72 11.98L11.19 8.95C11.59 9.96 11.25 11.12 10.35 11.73Z" class="MsftOfcResponsive_Fill_7823dc" fill="#7823DC" fill-rule="evenodd" clip-rule="evenodd"/><path d="M26.67 11.6C28.76 7.78 30.23 1.45 28.36 0.16L28.13 0 27.1 1.49 17.72 15.04 7.89 29.22 10.16 29.22 19.45 15.81C20.88 16.15 22.41 15.88 23.65 15 24.94 14.15 25.98 12.98 26.67 11.6ZM22.7 13.44C22.08 13.84 21.36 14.08 20.62 14.12L27.17 4.66C26.78 6.77 26.08 8.82 25.07 10.71 24.53 11.82 23.72 12.76 22.7 13.44Z" class="MsftOfcResponsive_Fill_7823dc" fill="#7823DC" fill-rule="evenodd" clip-rule="evenodd"/></g></svg>