<svg viewBox="0 0 32 32" xmlns="http://www.w3.org/2000/svg" xmlns:xlink="http://www.w3.org/1999/xlink" id="Layer_1" overflow="hidden"><g><path d="M11.7 11.2C12.1 11.2 12.4 11.5 12.4 11.9L12.4 19.8 3.6 19.8 3.6 12C3.6 11.6 3.9 11.3 4.3 11.3L11.7 11.3M11.7 9.2 4.3 9.2C2.8 9.2 1.6 10.4 1.6 11.9L1.6 21.8 14.4 21.8 14.4 12C14.4 10.5 13.2 9.2 11.7 9.2L11.7 9.2Z" fill="#7823DC"/><path d="M14 21.7 14 22.8C14 22.9 13.9 22.9 13.9 22.9L2.1 22.9C2.1 23 2 22.9 2 22.9L2 21.8 14 21.8M14.1 19.7 2 19.7C0.9 19.7 0 20.6 0 21.7L0 22.9C0 24 0.9 25 2.1 25L13.9 25C15.1 25 16 24.1 16 22.9L16 21.7C16 20.6 15.1 19.7 14.1 19.7L14.1 19.7Z" fill="#7823DC"/><rect x="2.7" y="30" width="10.7" height="2" fill="#7823DC"/><rect x="7" y="25" width="2" height="5.2" fill="#7823DC"/><path d="M27.7 11.2C28.1 11.2 28.4 11.5 28.4 11.9L28.4 19.8 19.6 19.8 19.6 12C19.6 11.6 19.9 11.3 20.3 11.3L27.7 11.3M27.7 9.2 20.3 9.2C18.8 9.2 17.6 10.4 17.6 11.9L17.6 21.8 30.4 21.8 30.4 12C30.4 10.5 29.2 9.2 27.7 9.2L27.7 9.2Z" fill="#7823DC"/><path d="M30 21.7 30 22.8C30 22.9 29.9 22.9 29.9 22.9L18.1 22.9C18 23 18 22.9 18 22.9L18 21.8 30 21.8M30 19.7 17.9 19.7C16.8 19.7 15.9 20.6 15.9 21.7L15.9 22.9C15.9 24.1 16.8 25 18 25L29.8 25C31 25 31.9 24.1 31.9 22.9L31.9 21.7C32 20.6 31.1 19.7 30 19.7L30 19.7Z" fill="#7823DC"/><rect x="18.7" y="30" width="10.7" height="2" fill="#7823DC"/><rect x="23" y="25" width="2" height="5.2" fill="#7823DC"/></g></svg>