<svg viewBox="0 0 32 32" xmlns="http://www.w3.org/2000/svg" xmlns:xlink="http://www.w3.org/1999/xlink" id="Layer_1" overflow="hidden"><style>
.MsftOfcResponsive_Fill_7823dc {
 fill:#7823DC; 
}
</style>
<defs></defs><path d="M0 0 0 32 16.04 32 16.04 30 2 30 2 2 30 2 30 16 32 16 32 0 0 0Z" class="MsftOfcResponsive_Fill_7823dc" fill="#7823DC"/><rect x="4" y="26" width="4" height="2" class="MsftOfcResponsive_Fill_7823dc" fill="#7823DC"/><rect x="4" y="22" width="6" height="2" class="MsftOfcResponsive_Fill_7823dc" fill="#7823DC"/><rect x="4" y="18" width="8.06" height="2" class="MsftOfcResponsive_Fill_7823dc" fill="#7823DC"/><path d="M25 17.97C23.38 17.97 21.88 18.53 20.7 19.46L19.98 18.74 19.98 16.02 17.98 16.02 17.98 17.98 16.01 17.98 16.01 19.98 18.4 19.98 19.32 20.9C18.5 22.05 18.01 23.45 18.01 24.96 18.01 28.82 21.15 31.96 25.01 31.96 28.87 31.96 32.01 28.82 32.01 24.96 32.01 21.1 28.87 17.96 25.01 17.96ZM25 29.97C22.24 29.97 20 27.73 20 24.97 20 24.01 20.29 23.12 20.76 22.35L22.07 23.66C21.89 24.06 21.78 24.5 21.78 24.97 21.78 26.74 23.22 28.19 25 28.19 26.78 28.19 28.22 26.75 28.22 24.97 28.22 23.19 26.78 21.75 25 21.75 24.42 21.75 23.89 21.92 23.42 22.18L22.13 20.89C22.94 20.31 23.93 19.97 25 19.97 27.76 19.97 30 22.21 30 24.97 30 27.73 27.76 29.97 25 29.97ZM25 23.75C25.67 23.75 26.22 24.3 26.22 24.97 26.22 25.64 25.67 26.19 25 26.19 24.33 26.19 23.78 25.64 23.78 24.97 23.78 24.3 24.33 23.75 25 23.75Z" class="MsftOfcResponsive_Fill_7823dc" fill="#7823DC"/><path d="M16.46 14.06 16.5 14 26.01 14 26.01 12 17.7 12 21.59 5.51 19.88 4.48 16.25 10.53 11.46 4.38 7.4 12 5.97 12 5.97 3.89 3.97 3.89 3.97 14 16.41 14 16.46 14.06ZM9.67 12 11.78 8.04 14.86 12 9.67 12Z" class="MsftOfcResponsive_Fill_7823dc" fill="#7823DC"/></svg>