<svg width="36.5" height="36.6" viewBox="0 0 36.5 36.6" xmlns="http://www.w3.org/2000/svg" xmlns:xlink="http://www.w3.org/1999/xlink" overflow="hidden"><defs></defs><g><g><defs><path d="M0 36.5 36.5 36.5 36.5 0 0 0 0 36.5Z" id="SVGID_1_" fill="#7823DC"/></defs><clipPath id="SVGID_2_"><use width="100%" height="100%" xlink:href="#SVGID_1_"></use></clipPath><g clip-path="url(#SVGID_2_)"><defs><path d="M0 36.5 36.5 36.5 36.5 0 0 0 0 36.5Z" id="SVGID_3_" fill="#7823DC"/></defs><clipPath id="SVGID_4_"><use width="100%" height="100%" xlink:href="#SVGID_3_"></use></clipPath><path d="M25.2 0 27.4 0 27.4 11.4 25.2 11.4 25.2 0Z" fill="#7823DC" clip-path="url(#SVGID_4_)"/><path d="M28.8 4.6 34.3 10.1 34.3 34.3 18.3 34.3 18.3 10.1 23.9 4.6 28.8 4.6M29.7 2.3 22.9 2.3 16 9.1 16 36.5 36.5 36.5 36.5 9.1 29.7 2.3 29.7 2.3Z" fill="#7823DC" clip-path="url(#SVGID_4_)"/><path d="M26.3 14.8C23.6 14.8 21.4 12.6 21.4 9.9 21.4 7.2 23.6 5 26.3 5 29 5 31.2 7.2 31.2 9.9 31.2 12.6 29 14.8 26.3 14.8ZM26.3 7.3C24.9 7.3 23.7 8.5 23.7 9.9 23.7 11.3 24.9 12.5 26.3 12.5 27.7 12.5 28.9 11.3 28.9 9.9 28.9 8.5 27.7 7.3 26.3 7.3Z" fill="#7823DC" clip-path="url(#SVGID_4_)"/><path d="M15.6 33.4 3.1 25.7 14.9 6.7 21.8 5.1 22.2 5.3 23.3 2.4 13.4 4.7 0 26.5 16.3 36.6 17 35.4 16.7 31.6 15.6 33.4 15.6 33.4Z" fill="#7823DC" clip-path="url(#SVGID_4_)"/></g></g></g></svg>