<svg viewBox="0 0 32 32" xmlns="http://www.w3.org/2000/svg" xmlns:xlink="http://www.w3.org/1999/xlink" xml:space="preserve" overflow="hidden"><style>
.MsftOfcResponsive_Fill_7823dc {
 fill:#7823DC; 
}
</style>
<g id="Layer_3"></g><g id="Layer_1"></g><g id="Layer_2"></g><g id="Layer_4"></g><g id="Layer_5"><g><path d="M14.95 12.64 14.95 2.86 16.92 2.86 16.92 12.64 14.95 12.64 14.95 12.64Z" class="MsftOfcResponsive_Fill_7823dc" fill="#7823DC" fill-rule="evenodd" clip-rule="evenodd"/><path d="M19.78 6.63 19.78 3.95 15.92 0.07 12.16 3.95 12.16 6.73 15.92 2.85 19.78 6.63 19.78 6.63 19.78 6.63Z" class="MsftOfcResponsive_Fill_7823dc" fill="#7823DC" fill-rule="evenodd" clip-rule="evenodd"/></g><path d="M14.98 19.36 14.98 29.2 16.95 29.2 16.95 19.36 14.98 19.36 14.98 19.36Z" class="MsftOfcResponsive_Fill_7823dc" fill="#7823DC" fill-rule="evenodd" clip-rule="evenodd"/><path d="M19.81 25.43 19.81 28.09 15.92 31.93 12.13 28.09 12.13 25.33 15.92 29.17 19.81 25.43 19.81 25.43 19.81 25.43Z" class="MsftOfcResponsive_Fill_7823dc" fill="#7823DC" fill-rule="evenodd" clip-rule="evenodd"/><path d="M19.43 16.95 29.2 16.95 29.2 14.98 19.43 14.98 19.43 16.95Z" class="MsftOfcResponsive_Fill_7823dc" fill="#7823DC" fill-rule="evenodd" clip-rule="evenodd"/><path d="M25.43 12.13 28.12 12.13 32 15.99 28.12 19.74 25.33 19.74 29.21 15.99 25.43 12.13 25.43 12.13 25.43 12.13Z" class="MsftOfcResponsive_Fill_7823dc" fill="#7823DC" fill-rule="evenodd" clip-rule="evenodd"/><path d="M12.64 16.95 2.8 16.95 2.8 14.98 12.64 14.98 12.64 16.95Z" class="MsftOfcResponsive_Fill_7823dc" fill="#7823DC" fill-rule="evenodd" clip-rule="evenodd"/><path d="M6.57 12.13 3.88 12.13 0 15.99 3.88 19.74 6.67 19.74 2.79 15.99 6.57 12.13 6.57 12.13 6.57 12.13Z" class="MsftOfcResponsive_Fill_7823dc" fill="#7823DC" fill-rule="evenodd" clip-rule="evenodd"/><path d="M13.97 16C13.97 14.93 14.85 14.06 15.94 14.06 17.03 14.06 17.9 14.93 17.9 16 17.9 17.07 17.02 17.94 15.93 17.94 14.84 17.94 13.97 17.07 13.97 16L13.97 16Z" class="MsftOfcResponsive_Fill_7823dc" fill="#7823DC" fill-rule="evenodd" clip-rule="evenodd"/></g></svg>