<svg viewBox="0 0 32 32" xmlns="http://www.w3.org/2000/svg" xmlns:xlink="http://www.w3.org/1999/xlink" id="Layer_1" overflow="hidden"><path d="" stroke="#7823DC" stroke-miterlimit="10" fill="#7823DC"/><g><path d="M10.7 8.8 10.7 8.8C12.5 8.8 14 9.5 14.5 10.5 14.6 10.7 14.7 10.9 14.8 11.1 15.1 11.6 15.3 12 15.2 14.8 15.2 15.7 14.9 16.4 14.6 17.1 14.1 18.2 13.6 19.6 14.2 21.3 16.2 26.2 15.7 28.2 15.4 28.7 15.1 29.3 13.8 30.1 12.4 30.1 11.7 30.1 11.2 29.9 10.8 29.5 10.1 28.7 9.7 27.1 9.2 25.1 8.8 23.6 8.4 21.8 7.7 19.8 7.2 18.5 6.8 17.5 6.5 16.6 5.9 15.1 5.6 14.4 5.6 13.5 5.5 11.5 6.8 9.2 9.6 8.7 9.9 8.8 10.3 8.8 10.7 8.8M10.7 6.8C10.2 6.8 9.7 6.8 9.3 6.9 5.5 7.5 3.5 10.7 3.6 13.7 3.7 15.6 4.6 16.9 5.9 20.5 7.6 25.2 7.7 28.7 9.3 30.7 10.1 31.7 11.2 32.1 12.4 32.1 14.4 32.1 16.5 31 17.2 29.6 17.7 28.6 18.3 26.2 16.1 20.5 15.4 18.7 17.1 17.6 17.2 14.8 17.4 10.9 16.9 10.7 16.3 9.6 15.3 7.7 13 6.8 10.7 6.8L10.7 6.8Z" fill="#7823DC"/></g><g><path d="M14.7 2C15.4 2 16 2.6 16 3.2 16 3.9 15.5 4.4 14.8 4.4 14.1 4.4 13.6 3.9 13.6 3.2 13.5 2.6 14.1 2 14.7 2M14.7 0C12.9 0 11.5 1.4 11.5 3.2 11.5 5 12.9 6.4 14.7 6.4 16.5 6.4 18 5 18 3.2 18 1.4 16.5 0 14.7 0L14.7 0Z" fill="#7823DC"/></g><g><path d="M8.3 2.4C8.7 2.4 9 2.8 9 3.1 9 3.5 8.7 3.8 8.3 3.8 7.9 3.8 7.6 3.5 7.6 3.1 7.6 2.8 7.9 2.4 8.3 2.4M8.3 0.4C6.8 0.4 5.6 1.6 5.6 3.1 5.6 4.6 6.8 5.8 8.3 5.8 9.8 5.8 11 4.6 11 3.1 11 1.6 9.8 0.4 8.3 0.4L8.3 0.4Z" fill="#7823DC"/></g><g><path d="M4.1 4.1C3.2 4.1 2.5 4.8 2.5 5.7 2.5 6.6 3.2 7.3 4.1 7.3 5 7.3 5.7 6.6 5.7 5.7 5.7 4.8 5.1 4.1 4.1 4.1L4.1 4.1Z" fill="#7823DC"/></g><g><path d="M2.1 7.5C1.3 7.5 0.7 8.1 0.7 8.9 0.7 9.7 1.3 10.3 2.1 10.3 2.9 10.3 3.5 9.7 3.5 8.9 3.5 8.1 2.9 7.5 2.1 7.5L2.1 7.5Z" fill="#7823DC"/></g><g><path d="M1.5 11.1C0.8 11.1 0.3 11.6 0.3 12.3 0.3 13 0.8 13.5 1.5 13.5 2.2 13.5 2.7 13 2.7 12.3 2.7 11.6 2.2 11.1 1.5 11.1L1.5 11.1Z" fill="#7823DC"/></g><g><path d="M21.4 16.6 21.4 16.7C21.3 17.3 20.9 17.4 20.6 17.4 19.8 17.4 19.6 16.6 19.6 16.1L19.6 16C19.6 15.2 19.9 14.7 20.5 14.7 20.9 14.7 21.2 14.9 21.2 15.4L21.2 15.5 23 15.5 23 15.4C22.9 14.1 22 13.2 20.4 13.2 18.8 13.2 17.6 14.3 17.6 16L17.6 16.1C17.6 17.9 18.6 18.9 20.5 18.9 22 18.9 23 18.1 23.1 16.7L23.1 16.6 21.4 16.6 21.4 16.6 21.4 16.6Z" fill="#7823DC" fill-rule="evenodd" clip-rule="evenodd"/><path d="M26.2 13.1C24.6 13.1 23.3 14.2 23.3 15.9L23.3 16C23.3 17.7 24.4 18.8 26.2 18.8 28 18.8 29.1 17.7 29.1 15.9L29.1 15.8C29.1 14.3 28 13.1 26.2 13.1L26.2 13.1ZM25.1 16.1C25.1 15.3 25.5 14.8 26.1 14.8 26.8 14.8 27.1 15.3 27.1 16.1L27.1 16.2C27.1 17 26.7 17.5 26.1 17.5 25.5 17.4 25.1 16.9 25.1 16.1L25.1 16.1 25.1 16.1 25.1 16.1Z" fill="#7823DC" fill-rule="evenodd" clip-rule="evenodd"/><path d="M31.2 17.8 31.2 17.8C31.6 17.5 31.8 17.2 31.8 16.7 31.8 16.2 31.5 15.7 30.5 15.7 29.7 15.7 29.1 16.1 29.1 16.9L29.1 17 30.2 17 30.2 16.9C30.2 16.6 30.3 16.6 30.4 16.6 30.5 16.6 30.5 16.6 30.5 16.7 30.5 16.9 30.3 17 30.1 17.3L29.2 18.3 29.2 18.6 32 18.6 32 17.7 31.2 17.7 31.2 17.8 31.2 17.8Z" fill="#7823DC" fill-rule="evenodd" clip-rule="evenodd"/></g></svg>