<svg viewBox="0 0 32 32" xmlns="http://www.w3.org/2000/svg" xmlns:xlink="http://www.w3.org/1999/xlink" id="Layer_1" xml:space="preserve" overflow="hidden"><style>
.MsftOfcResponsive_Fill_7823dc {
 fill:#7823DC; 
}
</style>
<g id="Layer_2_00000153672027410828584440000004318808627006363015_"></g><g id="Layer_2_00000103981120671582451330000015814750687241510044_"></g><rect x="0" y="0" width="9" height="2" class="MsftOfcResponsive_Fill_7823dc" fill="#7823DC"/><g><g><path d="M24.8 22.5 24.8 22.5C26.8 20.1 27.6 17.2 27.2 14.2 26.8 11.2 25.3 8.6 22.9 6.8 18.4 3.3 12 3.7 8 7.4 7.5 7.8 7.1 8.2 6.7 8.7 6.5 9.1 6.2 9.4 6 9.8 4.6 11.9 4.1 14.4 4.4 16.9 4.6 18.5 5.2 20 6 21.4 6.6 22.3 7.2 23 8 23.7 8.2 23.9 8.4 24.1 8.7 24.2 13 27.4 19.2 27.3 23.3 23.9L23.4 23.8 23.5 23.9 32.1 31.9 32.1 29 24.8 22.5ZM15.8 24.6C12.5 24.6 9.6 23 8 20.5 7 19 6.4 17.3 6.4 15.4 6.4 13.5 7 11.9 8 10.4 9.7 7.9 12.6 6.3 15.8 6.3 21 6.3 25.3 10.4 25.3 15.4 25.3 20.5 21.1 24.6 15.8 24.6Z" class="MsftOfcResponsive_Fill_7823dc" fill="#7823DC" fill-rule="evenodd" clip-rule="evenodd"/></g></g><path d="M1 0 1 29C1 30.6 2.3 32 4 32L5 32C6.6 32 8 30.7 8 29L8 20.6C7 19.1 6.4 17.4 6.4 15.5 6.4 13.6 7 11.9 8 10.4L8 0 1 0ZM6 29C6 29.5 5.6 30 5 30L4 30C3.5 30 3 29.6 3 29L3 2 6 2 6 29Z" class="MsftOfcResponsive_Fill_7823dc" fill="#7823DC"/><path d="M19.6 16.8 15.6 8 11.6 16.8C10.3 19.7 12.4 23 15.6 23 18.1 23 20 20.9 20 18.6 20 18 19.9 17.4 19.6 16.8ZM17.6 19.9C17.2 20.6 16.4 21 15.6 21 14.8 21 14.1 20.6 13.6 19.9 13.2 19.2 13.1 18.4 13.4 17.7L15.5 13 17.6 17.7C18.1 18.4 18 19.2 17.6 19.9Z" class="MsftOfcResponsive_Fill_7823dc" fill="#7823DC"/><rect x="3" y="5" width="3" height="2" class="MsftOfcResponsive_Fill_7823dc" fill="#7823DC"/></svg>