<svg viewBox="0 0 32 32" xmlns="http://www.w3.org/2000/svg" xmlns:xlink="http://www.w3.org/1999/xlink" id="Layer_1" overflow="hidden"><style>
.MsftOfcResponsive_Fill_7823dc {
 fill:#7823DC; 
}
</style>
<defs></defs><path d="M17.8 30 17.87 29.33C18.05 27.65 19.65 26.24 21.86 25.77L22 25.77 22 23.77 18.29 23.77C23.82 22.7 28 17.83 28 11.99 28 5.37 22.62-0.01 16-0.01 9.38-0.01 4 5.38 4 12 4 17.83 8.19 22.7 13.71 23.78L10 23.78 10 25.78 10.13 25.78C12.34 26.24 13.93 27.66 14.11 29.34L14.18 30.01 0 30.01 0 32.01 32 32.01 32 30.01 17.8 30.01ZM6 12C6 6.49 10.49 2 16 2 21.51 2 26 6.49 26 12 26 17.51 21.51 22 16 22 10.49 22 6 17.51 6 12ZM17.62 25.78C16.89 26.48 16.34 27.31 16.07 28.23L15.93 28.23C15.66 27.31 15.11 26.48 14.38 25.78L17.62 25.78Z" class="MsftOfcResponsive_Fill_7823dc" fill="#7823DC"/><path d="M18.86 15.33C19.59 15.33 20.19 14.74 20.19 14 20.19 13.26 19.6 12.67 18.86 12.67 18.12 12.67 17.53 13.26 17.53 14 17.53 14.74 18.12 15.33 18.86 15.33Z" class="MsftOfcResponsive_Fill_7823dc" fill="#7823DC"/><circle cx="16" cy="18.67" r="1.33" class="MsftOfcResponsive_Fill_7823dc" fill="#7823DC"/><path d="M22 10.65C22.73 10.65 23.33 10.06 23.33 9.32 23.33 8.58 22.74 7.99 22 7.99 21.26 7.99 20.67 8.58 20.67 9.32 20.67 10.06 21.26 10.65 22 10.65Z" class="MsftOfcResponsive_Fill_7823dc" fill="#7823DC"/><circle cx="20.67" cy="17.71" r="1.33" class="MsftOfcResponsive_Fill_7823dc" fill="#7823DC"/><path d="M21.79 13.04C21.79 13.77 22.38 14.37 23.12 14.37 23.86 14.37 24.45 13.78 24.45 13.04 24.45 12.3 23.86 11.71 23.12 11.71 22.38 11.71 21.79 12.3 21.79 13.04Z" class="MsftOfcResponsive_Fill_7823dc" fill="#7823DC"/></svg>