<svg viewBox="0 0 32 32" xmlns="http://www.w3.org/2000/svg" xmlns:xlink="http://www.w3.org/1999/xlink" id="Layer_1" overflow="hidden"><path d="M32 16 32 28.7C32 30.5 26.6 31.9 20 31.9 13.4 31.9 8 30.5 8 28.7L8 15.9 10.1 15.9C10.1 15.9 10.2 16 10.2 16 10.5 16.2 10.9 16.4 11.4 16.6 11.8 16.7 12.4 16.9 13 17.1 13.1 17.2 13.2 17.2 13.3 17.2 13.4 17.2 13.6 17.3 13.7 17.3 14 17.4 14.4 17.4 14.7 17.5 14.9 17.5 15.2 17.6 15.4 17.6 15.6 17.6 15.9 17.7 16.2 17.7 16.5 17.7 16.8 17.8 17.1 17.8 17.4 17.9 17.7 17.9 18 17.9 18.7 18 19.3 18 20 18L10 18 10 28.4C11 29 14.5 30 20 30 25.5 30 29 29 30 28.4L30 18 20 18C25.5 18 28.9 16.7 29.8 16L32 16Z" fill="#7823DC"/><path d="M21.9 3.8 18.6 0.3C17.3-1 12.2 2 7.2 6.9 2.2 11.8-1 16.8 0.3 18.1L4.3 22.2 4.4 19.3 2 16.8C2.3 15.6 4.3 12.3 8.5 8.2 12.7 4.1 16.1 2.2 17.2 1.9L18.9 3.6 21.9 3.8Z" fill="#7823DC"/><g><path d="M13.5 18 10.7 18C11 17.8 11.2 17.6 11.5 17.3L13.5 18Z" fill="#7823DC"/><path d="M17.6 14C18 13.5 18.4 13.1 18.8 12.6L18.9 12.5C19 12.4 19.1 12.2 19.3 12 20.7 10.1 21.7 8.4 22.1 6.9 22.6 5.5 22.6 4.4 22 3.8 21.9 3.7 21.8 3.6 21.7 3.6L21.7 3.6C21.6 3.5 21.5 3.5 21.4 3.5 21.2 3.4 20.9 3.4 20.7 3.4 20.2 3.4 19.7 3.5 19.1 3.7 19 3.7 18.8 3.8 18.7 3.9 16.3 4.8 13.2 7.1 10.2 10.1 7 13.3 4.8 16.6 4 18.9L4 18.9C4 19 3.9 19.1 3.9 19.2 3.5 20.3 3.5 21.3 3.9 21.8 3.9 21.8 3.9 21.8 3.9 21.8L4.1 22C4.1 22 4.2 22.1 4.2 22.1 4.3 22.1 4.3 22.2 4.4 22.2 4.4 22.2 4.4 22.2 4.5 22.2 5.1 22.5 6 22.4 7.1 22 7.4 21.9 7.6 21.8 7.9 21.7 7.9 21.7 7.9 21.7 8 21.7 8 21.7 8 21.7 8 21.7 8.6 21.4 9.3 21.1 9.9 20.6L10 19.9 10 18.4C9.9 18.5 9.8 18.5 9.8 18.5L9.7 18.6C9.2 19 8.6 19.3 8.2 19.5 8.2 19.5 8.2 19.5 8.1 19.5 8.1 19.5 8.1 19.5 8 19.5 7 20 6.3 20.3 5.8 20.4 5.9 19.8 6.6 18.1 8 16 8 16 8 16 8 16 8 16 8 15.9 8.1 15.9 8.5 15.3 8.9 14.7 9.4 14.1L9.4 14.1C10 13.3 10.8 12.4 11.6 11.5 15.7 7.3 19.1 5.6 20.4 5.5 20.3 6.5 19.1 9 16.5 12.1 16.4 12.3 16.2 12.4 16.1 12.6L16 12.8C15.5 13.3 15.1 13.9 14.6 14.4L14.6 14.4 17.6 14Z" fill="#7823DC"/><path d="" stroke="#7823DC" stroke-width="2.0077" stroke-miterlimit="10" fill="#7823DC"/><path d="" stroke="#7823DC" stroke-width="2.0077" stroke-miterlimit="10" fill="#7823DC"/><path d="" stroke="#7823DC" stroke-width="2.0077" stroke-miterlimit="10" fill="#7823DC"/></g><path d="M20 14.4C24.8 14.4 28.1 15.3 29.5 15.9 28.1 16.6 24.9 17.4 20 17.4 15.1 17.4 11.9 16.5 10.5 15.9 11.9 15.3 15.2 14.4 20 14.4M20 12.4C13.4 12.4 8 14 8 16 8 18 13.4 19.5 20 19.5 26.6 19.5 32 17.9 32 16 32 14.1 26.6 12.4 20 12.4L20 12.4Z" fill="#7823DC"/></svg>