<svg width="36.5" height="36.6" viewBox="0 0 36.5 36.6" xmlns="http://www.w3.org/2000/svg" xmlns:xlink="http://www.w3.org/1999/xlink" overflow="hidden"><style>
.MsftOfcResponsive_Fill_7823dc {
 fill:#7823DC; 
}
</style>
<defs></defs><g><g><defs><path d="M0 36.5 36.5 36.5 36.5 0 0 0 0 36.5Z" id="SVGID_1_" class="MsftOfcResponsive_Fill_7823dc" fill="#7823DC"/></defs><clipPath id="SVGID_2_"><use width="100%" height="100%" xlink:href="#SVGID_1_"></use></clipPath><g class="st0" clip-path="url(#SVGID_2_)"><defs><path d="M0 36.5 36.5 36.5 36.5 0 0 0 0 36.5Z" id="SVGID_3_" class="MsftOfcResponsive_Fill_7823dc" fill="#7823DC"/></defs><clipPath id="SVGID_4_"><use width="100%" height="100%" xlink:href="#SVGID_3_"></use></clipPath><path d="M29 2.3C29.3 2.7 29.6 3.1 29.9 3.6 32.8 8 34.3 13.1 34.3 18.3 34.3 23.5 32.8 28.7 29.9 33 29.6 33.5 29.3 33.9 29 34.3L7.5 34.3C7.2 33.9 6.9 33.5 6.6 33 3.7 28.6 2.2 23.5 2.2 18.3 2.3 13 3.8 7.9 6.6 3.5 6.9 3 7.2 2.6 7.5 2.2L29 2.2M30.1 0 6.4 0C5.8 0.7 5.2 1.5 4.7 2.3 1.6 7 0 12.6 0 18.3 0 24 1.6 29.5 4.7 34.3 5.2 35.1 5.8 35.9 6.4 36.6L30.1 36.6C30.7 35.9 31.2 35.1 31.8 34.3 34.9 29.5 36.6 24 36.5 18.3 36.5 12.6 34.9 7.1 31.8 2.3 31.2 1.5 30.7 0.7 30.1 0L30.1 0Z" class="st1 MsftOfcResponsive_Fill_7823dc" fill="#7823DC" clip-path="url(#SVGID_4_)"/><path d="M11.2 36C11 35.6 10.8 35.2 10.6 34.8 8.2 29.7 6.9 23.9 7 18.3 6.9 12.6 8.2 6.9 10.6 1.8 10.8 1.4 11 1 11.2 0.6L13.2 1.7C13 2 12.8 2.4 12.7 2.8 10.4 7.6 9.2 13 9.3 18.3 9.2 23.6 10.4 29 12.7 33.8 12.9 34.2 13.1 34.5 13.3 34.9L11.2 36Z" class="st1 MsftOfcResponsive_Fill_7823dc" fill="#7823DC" clip-path="url(#SVGID_4_)"/><path d="M25.3 36 23.3 34.9C23.5 34.5 23.7 34.2 23.9 33.8 26.2 29 27.4 23.6 27.3 18.3 27.4 12.9 26.2 7.6 23.9 2.8 23.7 2.4 23.5 2.1 23.3 1.7L25.3 0.6C25.5 1 25.7 1.4 25.9 1.8 28.3 6.9 29.6 12.6 29.5 18.3 29.6 24 28.3 29.7 25.9 34.8 25.7 35.2 25.5 35.6 25.3 36Z" class="st1 MsftOfcResponsive_Fill_7823dc" fill="#7823DC" clip-path="url(#SVGID_4_)"/><path d="M19.4 0.2 17.1 0.2 17.1 35.4 19.4 35.4 19.4 0.2 19.4 0.2 19.4 0.2Z" class="st1 MsftOfcResponsive_Fill_7823dc" fill="#7823DC" clip-path="url(#SVGID_4_)"/><path d="M4.5 4.6 32.1 4.6 32.1 6.9 4.5 6.9 4.5 4.6Z" class="st1 MsftOfcResponsive_Fill_7823dc" fill="#7823DC" clip-path="url(#SVGID_4_)"/><path d="M4.2 29.7 31.9 29.7 31.9 32 4.2 32 4.2 29.7Z" class="st1 MsftOfcResponsive_Fill_7823dc" fill="#7823DC" clip-path="url(#SVGID_4_)"/></g></g></g></svg>