<svg viewBox="0 0 32 32" xmlns="http://www.w3.org/2000/svg" xmlns:xlink="http://www.w3.org/1999/xlink" id="Layer_5" overflow="hidden"><defs></defs><path d="M30 2 30 14 23 14 23 10 26 10 26 8 6 8 6 10 9 10 9 14 2 14 2 2 30 2 28 0 0 0 0 16 9 16 9 30 23 30 23 16 32 16 32 4 30 2ZM21 16 21 28 11 28 11 10 21 10 21 16Z" stroke-width="0" fill="#7823DC"/><path d="M17 17.98 17 16 17.42 16C17.77 16.35 17.82 16.78 17.83 16.97L18.83 16.97C18.83 16.97 19.83 17.01 19.83 17.01 19.83 16.93 19.83 16.52 19.67 16 19.54 15.56 19.3 15.05 18.86 14.59 18.63 14.35 18.35 14.16 18.05 14 17.74 13.83 17.39 13.7 17.01 13.61L17.01 13.01 15.01 13.01 15.01 13.55C14.59 13.64 14.22 13.8 13.89 14 13.11 14.47 12.57 15.21 12.36 16 12.29 16.26 12.24 16.52 12.24 16.78 12.24 18.09 13.1 19.41 15.02 19.78L15.02 22.37C14.47 22.16 13.93 21.68 13.9 20.58L11.9 20.63C11.94 22.24 12.8 23.98 15.02 24.44L15.02 24.99 17.02 24.99 17.02 24.49C18.18 24.31 19.12 23.74 19.67 22.85 20.26 21.9 20.29 20.72 19.76 19.75 19.24 18.8 18.26 18.19 17.02 17.98ZM14.22 16.79C14.22 16.51 14.34 16.23 14.55 16L15 16 15 17.73C14.5 17.55 14.22 17.23 14.22 16.79ZM17.95 21.79C17.76 22.1 17.42 22.31 17 22.43L17 20.03C17.46 20.16 17.81 20.39 17.99 20.71 18.18 21.05 18.16 21.45 17.95 21.79Z" stroke-width="0" fill="#7823DC"/></svg>