<svg viewBox="0 0 32 32" xmlns="http://www.w3.org/2000/svg" xmlns:xlink="http://www.w3.org/1999/xlink" id="Layer_2_1_" xml:space="preserve" overflow="hidden"><style>
.MsftOfcResponsive_Fill_7823dc {
 fill:#7823DC; 
}
</style>
<path d="M20.8 17.2C20.6 16.4 20.3 15.7 20 15.1 19.6 14.4 19.2 13.8 18.5 13.2L18.4 13.1C18.1 12.8 17.7 12.5 17.3 12.2L17 12 16.8 12.4C16.7 12.5 16.6 12.7 16.6 12.9 16.1 12.3 15.8 11.7 15.2 11.3 14 10.1 12.8 9.3 11.5 9.1L11 9 11 9.5C11 10.1 11.1 10.7 11.1 11.3 11.1 12 11 12.6 10.8 13.1L10.8 13.2C10.6 13.7 10.3 14.1 10 14.5 9.7 14.1 9.4 13.7 9.2 13.2L9.2 13.1C9.1 12.9 9 12.7 8.9 12.5L8.7 12 8.3 12.3C7.9 12.5 7.6 12.8 7.2 13.1L7.1 13.2C6.5 13.8 6 14.4 5.7 15.1 4.7 16.8 4.5 18.8 5 20.9 5.4 22.7 6.3 24 7.6 25.1 8.8 26.1 10.2 26.7 11.9 26.9L12.3 26.9 12.3 25 11.9 25C11.4 25 10.9 24.8 10.7 24.5 10.4 24.1 10.2 23.6 10.2 23.1 10.6 23.5 11 23.8 11.5 24.2L11.8 24.4 12 24.2C13 23.1 13.7 22.2 13.9 21.3 14.2 21.7 14.4 22.1 14.5 22.6L14.7 23.1 15.4 22.4C15.6 22.9 15.6 23.6 15.3 24.1 15 24.7 14.3 25.1 13.8 25.1L13.5 25.1 13.5 27 13.9 27C15.4 26.9 16.9 26.2 18.1 25.2 18.6 24.8 19.1 24.3 19.4 23.8 20.8 21.7 21.3 19.3 20.8 17.2ZM9.7 16.7 9.9 16.9 10.1 16.7C10.8 16.2 11.3 15.6 11.7 15 12.1 14.4 12.5 13.8 12.5 13.1L12.5 13C12.8 12.5 12.9 12.1 12.9 11.6 13.4 12 13.9 12.4 14.4 13 14.4 13 14.4 13.1 14.5 13.1 15 13.7 15.5 14.3 15.8 15 15.9 15.2 16 15.4 16.1 15.7L16.3 16.2 16.7 15.8C16.9 15.6 17.1 15.3 17.3 15 17.4 14.9 17.5 14.8 17.5 14.7 17.6 14.8 17.7 14.9 17.8 15 18.9 16.3 19.3 17.8 19 19.4 18.8 20.8 18.2 22 17.3 23 17.4 21.6 16.7 20.3 15.5 19.5L15.2 19.3 15.1 19.5C14.5 18.8 13.7 18.2 12.8 18L12.3 18 12.3 18.5C12.4 19.7 12.1 20.8 11.5 21.8 11 21.3 10.4 20.6 10.2 19.9L10 19.5 9.6 19.9C8.6 20.8 8.3 21.9 8.4 23.1 8.2 22.9 8 22.7 7.9 22.5 6.1 20.3 6.2 17.1 8 15 8 14.9 8.1 14.9 8.1 14.8 8.1 14.8 8.2 14.9 8.2 15 8.6 15.6 9.2 16.2 9.7 16.7Z" class="MsftOfcResponsive_Fill_7823dc" fill="#7823DC"/><path d="M13 32C9.7 32 6.5 30.7 4.1 28.3 1.5 25.7 0 22.1 0 18.4L2 18.4C2 21.6 3.3 24.6 5.5 26.8 7.6 28.8 10.2 29.9 13 29.9 19 29.9 23.9 24.7 23.9 18.4L25.9 18.4C25.9 25.9 20.1 32 13 32L13 32Z" class="MsftOfcResponsive_Fill_7823dc" fill="#7823DC"/><path d="M2 19 0 19 0 11.6 9.3 3.3 10.7 4.7 2 12.4Z" class="MsftOfcResponsive_Fill_7823dc" fill="#7823DC"/><path d="M32 13 23.5 13 16.2 4.7 17.8 3.3 24.5 11 32 11Z" class="MsftOfcResponsive_Fill_7823dc" fill="#7823DC"/><rect x="24" y="18" width="8" height="2" class="MsftOfcResponsive_Fill_7823dc" fill="#7823DC"/></svg>