<svg width="60.6" height="32" viewBox="0 0 60.6 32" xmlns="http://www.w3.org/2000/svg" xmlns:xlink="http://www.w3.org/1999/xlink" overflow="hidden"><defs></defs><g><g><g><defs><rect x="28.6" y="0" width="32" height="32" id="SVGID_1_" fill="#7823DC"/></defs><clipPath id="SVGID_2_"><use width="100%" height="100%" xlink:href="#SVGID_1_"></use></clipPath><g clip-path="url(#SVGID_2_)"><defs><rect x="28.6" y="0" width="32" height="32" id="SVGID_3_" fill="#7823DC"/></defs><clipPath id="SVGID_4_"><use width="100%" height="100%" xlink:href="#SVGID_3_"></use></clipPath><g clip-path="url(#SVGID_4_)"><text fill="#7823DC" font-family="Graphik-Regular" font-size="22" transform="translate(0.000488281 23.8594)">9</text></g><path d="M6.7 16.8C4.6 16.8 3.2 15.3 3.2 13.1 3.2 10.9 4.6 9.4 6.7 9.4 8.8 9.4 10.3 10.8 10.3 13.4 10.3 15.5 8.8 16.8 6.7 16.8ZM6.4 24C10.2 24 12.3 21.1 12.3 15.9L12.3 14.9C12.3 10.4 10.4 7.9 6.6 7.9 3.3 7.9 1.2 10 1.2 13.2 1.2 16.2 3.3 18.3 6.4 18.3 8.2 18.3 9.7 17.5 10.5 16.2 10.5 20.4 9 22.4 6.5 22.4 4.5 22.4 3.6 21.5 3.2 19.9L1.3 19.9C1.7 22.5 3.5 24 6.4 24Z" stroke="#6C4D9F" stroke-width="0.3" stroke-miterlimit="10" fill="#7823DC" clip-path="url(#SVGID_4_)"/></g></g></g><path d="M44.6 32C35.8 32 28.6 24.8 28.6 16 28.6 7.2 35.8 0 44.6 0 53.4 0 60.6 7.2 60.6 16 60.6 24.8 53.4 32 44.6 32ZM44.6 2C36.9 2 30.6 8.3 30.6 16 30.6 23.7 36.9 30 44.6 30 52.3 30 58.6 23.7 58.6 16 58.6 8.3 52.3 2 44.6 2Z" fill="#7823DC"/><g><path d="M38.4 16.4 38.4 15.5C38.4 10.9 40.8 7.9 44.6 7.9 48.5 7.9 50.7 11 50.7 15.5L50.7 16.4C50.7 21 48.5 24.1 44.6 24.1 40.9 24.1 38.4 21 38.4 16.4ZM48.8 16.4 48.8 15.5C48.8 11.8 47.3 9.5 44.6 9.5 41.9 9.5 40.4 11.7 40.4 15.6L40.4 16.5C40.4 20.5 42.1 22.6 44.7 22.6 47.4 22.5 48.8 20.4 48.8 16.4Z" fill="#7823DC"/></g></g></svg>