<svg viewBox="0 0 32 32" xmlns="http://www.w3.org/2000/svg" xmlns:xlink="http://www.w3.org/1999/xlink" id="Graphic" overflow="hidden"><defs></defs><path d="M16.689 30.0042 14.1968 29.9959 23.1211 18.0757C23.917 17.1124 25.089 16.5383 26.3379 16.5L26.4624 16.4883C27.557 16.3802 28.5568 15.8204 29.2212 14.9438 29.7955 14.179 30.0682 13.2294 29.9873 12.2764L28.9546 13.6548C27.9865 14.9364 26.1627 15.1905 24.8812 14.2224 23.607 13.2598 23.3473 11.45 24.2993 10.168L25.3325 8.7886C23.2566 9.21143 21.8978 11.2141 22.272 13.2993L22.3052 13.4819C22.6133 14.6808 22.3945 15.9541 21.7041 16.9814L14.9274 26.0329 12.434 26.0046 20.088 15.8032C20.4483 15.2274 20.5416 14.5238 20.3438 13.874L20.3053 13.6675C19.7214 10.4636 21.8453 7.39299 25.0492 6.8091 25.8693 6.65964 26.7117 6.68576 27.521 6.88574L28.0806 8.45605 25.8999 11.3672C25.607 11.7634 25.6876 12.3215 26.0806 12.6187 26.2736 12.7712 26.5207 12.8377 26.7642 12.8027 26.9993 12.7705 27.2117 12.6455 27.354 12.4556L29.5352 9.54443 31.1997 9.64062C32.8378 12.4551 31.8841 16.0646 29.0697 17.7027 28.3536 18.1195 27.5577 18.3807 26.7339 18.4692L26.5054 18.4932C25.8172 18.4843 25.1596 18.7773 24.706 19.2949Z" fill="#7823DC"/><path d="M11.3252 26.0815 9.62012 26.0815 9.08012 22.8994C8.66066 22.7595 8.25174 22.5898 7.85649 22.3916L5.24023 24.269 1.812 20.8403 3.689 18.2261C3.49051 17.8305 3.32064 17.4213 3.1807 17.0015L0 16.46 0 11.6211 3.18066 11.0801C3.31914 10.6642 3.48705 10.2587 3.68311 9.8667L1.813 7.23926 5.2373 3.81738 7.86914 5.68311C8.26739 5.48433 8.67942 5.31445 9.10205 5.1748L9.60205 2 14.4644 2 14.9868 5.17725C15.4068 5.31652 15.8163 5.4854 16.2124 5.68262L18.8242 3.83105 21.5269 6.3833 20.1539 7.8374 18.6436 6.41113 16.3311 8.0498 15.7725 7.71924C15.1743 7.36549 14.5286 7.09928 13.855 6.92871L13.2217 6.76709 12.7661 4 11.3276 4 10.8506 6.76855 10.2261 6.92822C9.55251 7.09975 8.90673 7.36608 8.30807 7.71922L7.75 8.0498 5.457 6.4248 4.42627 7.45508 6.04932 9.752 5.71875 10.3091C5.36737 10.9021 5.10233 11.5422 4.93164 12.21L4.77051 12.8384 2 13.3096 2 14.7715 4.77051 15.2437 4.93164 15.8726C5.10348 16.545 5.37137 17.1892 5.72705 17.7852L6.06348 18.3482 4.42725 20.6275 5.4541 21.6538 7.73242 20.019 8.29492 20.3535C8.89223 20.7085 9.53728 20.9762 10.2105 21.1484L10.8389 21.31 11.4507 24.914 11.3252 24.9355Z" fill="#7823DC"/><path d="M12 18.2769C9.63796 18.2769 7.72314 16.362 7.72314 14 7.72314 11.638 9.63796 9.72314 12 9.72314 14.362 9.72314 16.2769 11.638 16.2769 14 16.2743 16.361 14.361 18.2743 12 18.2769ZM12 11.7231C10.7425 11.7231 9.72314 12.7425 9.72314 14 9.72314 15.2575 10.7425 16.2769 12 16.2769 13.2575 16.2769 14.2769 15.2575 14.2769 14 14.2754 12.7431 13.2569 11.7246 12 11.7231Z" fill="#7823DC"/></svg>