<svg viewBox="0 0 32 32" xmlns="http://www.w3.org/2000/svg" xmlns:xlink="http://www.w3.org/1999/xlink" id="Layer_1" overflow="hidden"><path d="M28.9 7 27.3 26 4.7 26 3.1 7 28.9 7M31.1 5 0.9 5 2.8 28 29.2 28 31.1 5 31.1 5Z" fill="#7823DC"/><path d="M28.5 2 29.4 5 2.7 5 3.6 2 28.5 2M30 0 2 0 0 7 32 7 30 0 30 0Z" fill="#7823DC"/><rect x="5.6" y="7" width="2" height="20" fill="#7823DC"/><rect x="24.4" y="7" width="2" height="20" fill="#7823DC"/><rect x="11.9" y="7" width="2" height="20" fill="#7823DC"/><rect x="18.1" y="7" width="2" height="20" fill="#7823DC"/><path d="M7 28C7.6 28 8 28.4 8 29 8 29.6 7.6 30 7 30 6.4 30 6 29.6 6 29 6 28.4 6.4 28 7 28M7 26C5.3 26 4 27.3 4 29 4 30.7 5.3 32 7 32 8.7 32 10 30.7 10 29 10 27.3 8.7 26 7 26L7 26Z" fill="#7823DC"/><path d="M25 28C25.6 28 26 28.4 26 29 26 29.6 25.6 30 25 30 24.4 30 24 29.6 24 29 24 28.4 24.4 28 25 28M25 26C23.3 26 22 27.3 22 29 22 30.7 23.3 32 25 32 26.7 32 28 30.7 28 29 28 27.3 26.7 26 25 26L25 26Z" fill="#7823DC"/></svg>