<svg viewBox="0 0 32 32" xmlns="http://www.w3.org/2000/svg" xmlns:xlink="http://www.w3.org/1999/xlink" id="Grid" overflow="hidden"><defs></defs><path d="M23.04 4 22 4 22 2.89C22 1.3 20.7 0 19.11 0L12.89 0C11.3 0 10 1.3 10 2.89L10 4 8.97 4C7.33 4 6 5.33 6 6.97L6 23.04C6 24.33 6.84 25.42 8 25.83L8 30.01 10 30.01 10 26.01 12 26.01 12 30.01 15 30.01 15 32.01 17 32.01 17 30.01 20 30.01 20 26.01 22 26.01 22 30.01 24 30.01 24 25.83C25.16 25.43 26 24.34 26 23.04L26 6.97C26 5.33 24.67 4 23.04 4ZM12 2.89C12 2.4 12.4 2 12.89 2L19.11 2C19.6 2 20 2.4 20 2.89L20 4 12 4 12 2.89ZM8.97 6 10 6C10 6 22 6 22 6L22 6C22 6 23.04 6 23.04 6 23.57 6 24 6.44 24 6.97L24 14 22 14 22 11 10 11 10 14 8 14 8 6.97C8 6.43 8.44 6 8.97 6ZM20 13 20 17 12 17 12 13 20 13ZM18 24 18 28 14 28 14 24 8.97 24C8.43 24 8 23.57 8 23.04L8 16 10 16 10 19 22 19 22 16 24 16 24 23.04C24 23.57 23.57 24 23.04 24L18 24Z" stroke-width="0" fill="#7823DC"/></svg>