<svg width="32" height="30.04" viewBox="0 0 32 30.04" xmlns="http://www.w3.org/2000/svg" xmlns:xlink="http://www.w3.org/1999/xlink" overflow="hidden"><style>
.MsftOfcResponsive_Fill_7823dc {
 fill:#7823DC; 
}
</style>
<defs></defs><g><path d="M4 24.04C5.1 24.04 6 24.94 6 26.04 6 27.14 5.1 28.04 4 28.04 2.9 28.04 2 27.14 2 26.04 2 24.94 2.9 24.04 4 24.04M4 22.04C1.79 22.04 0 23.83 0 26.04 0 28.25 1.79 30.04 4 30.04 6.21 30.04 8 28.25 8 26.04 8 23.83 6.21 22.04 4 22.04L4 22.04Z" class="MsftOfcResponsive_Fill_7823dc" fill="#7823DC"/></g><g><path d="M28 24.04C29.1 24.04 30 24.94 30 26.04 30 27.14 29.1 28.04 28 28.04 26.9 28.04 26 27.14 26 26.04 26 24.94 26.9 24.04 28 24.04M28 22.04C25.79 22.04 24 23.83 24 26.04 24 28.25 25.79 30.04 28 30.04 30.21 30.04 32 28.25 32 26.04 32 23.83 30.21 22.04 28 22.04L28 22.04Z" class="MsftOfcResponsive_Fill_7823dc" fill="#7823DC"/></g><g><rect x="6" y="25.01" width="16" height="2" class="MsftOfcResponsive_Fill_7823dc" fill="#7823DC"/></g><g><rect x="14.48" y="3.36" width="10.32" height="2" class="MsftOfcResponsive_Fill_7823dc" fill="#7823DC" transform="matrix(0.7071 -0.7071 0.7071 0.7071 2.6737 15.1649)"/></g><g><g><path d="M26.72 18.12C26.48 18.16 26.23 18.2 26 18.26 22.55 19.15 20 22.28 20 26.01L22 26.01C22 23.4 23.67 21.18 26 20.35 26 20.35 26 20.35 26 20.35 26.47 20.18 26.96 20.08 27.47 20.03 27.47 20.03 27.48 20.03 27.48 20.03L26.72 18.12Z" class="MsftOfcResponsive_Fill_7823dc" fill="#7823DC"/></g></g><g><path d="M20.93 3.64 19.07 4.38 24.79 18.68C25.18 18.51 25.58 18.37 26 18.26 26.24 18.2 26.48 18.16 26.72 18.12L27.48 20.03C27.48 20.03 27.47 20.03 27.47 20.03 26.96 20.07 26.47 20.18 26 20.35 26 20.35 26 20.35 26 20.35 25.84 20.41 25.69 20.48 25.54 20.55L26.76 23.6 28.93 23.63 20.93 3.64Z" class="MsftOfcResponsive_Fill_7823dc" fill="#7823DC"/></g><g><path d="M4 18.01 4 20.01C7.31 20.01 10 22.7 10 26.01L12 26.01C12 21.59 8.42 18.01 4 18.01Z" class="MsftOfcResponsive_Fill_7823dc" fill="#7823DC"/></g></svg>