<svg viewBox="0 0 32.01 32" xmlns="http://www.w3.org/2000/svg" xmlns:xlink="http://www.w3.org/1999/xlink" id="Layer_1" overflow="hidden"><style>
.MsftOfcThm_Text2_Fill_v2 {
 fill:#7823DC; 
}
</style>
<defs></defs><path d="M5.42 32C2.43 32 0 29.57 0 26.57 0 23.57 2.43 21.14 5.42 21.14 8.41 21.14 10.85 23.57 10.85 26.57 10.85 29.57 8.42 32 5.42 32ZM5.42 23.15C3.53 23.15 2 24.69 2 26.58 2 28.47 3.54 30.01 5.42 30.01 7.3 30.01 8.85 28.47 8.85 26.58 8.85 24.69 7.31 23.15 5.42 23.15Z" class="MsftOfcThm_Text2_Fill_v2" stroke-width="0" fill="#7823DC"/><path d="M22.16 32C19.17 32 16.73 29.57 16.73 26.57 16.73 23.57 19.16 21.14 22.16 21.14 25.16 21.14 27.59 23.57 27.59 26.57 27.59 29.57 25.16 32 22.16 32ZM22.16 23.15C20.27 23.15 18.73 24.69 18.73 26.58 18.73 28.47 20.27 30.01 22.16 30.01 24.05 30.01 25.59 28.47 25.59 26.58 25.59 24.69 24.05 23.15 22.16 23.15Z" class="MsftOfcThm_Text2_Fill_v2" stroke-width="0" fill="#7823DC"/><rect x="9.25" y="23.36" width="9.03" height="2" class="MsftOfcThm_Text2_Fill_v2" stroke-width="0" fill="#7823DC"/><path d="M32.01 26.47 26.47 26.47 26.47 24.47 30.01 24.47 30.01 20.07 26.09 15 22.05 15 22.05 22.7 20.05 22.7 20.05 13 27.07 13 32.01 19.39 32.01 26.47Z" class="MsftOfcThm_Text2_Fill_v2" stroke-width="0" fill="#7823DC"/><path d="M31.01 22.27 27.91 22.27C26.3 22.27 24.72 21.4 23.8 20.06L21.05 20.06 21.05 18.06 24.99 18.06 25.27 18.61C25.76 19.59 26.85 20.27 27.92 20.27L31.02 20.27 31.02 22.27Z" class="MsftOfcThm_Text2_Fill_v2" stroke-width="0" fill="#7823DC"/><g><path d="M14.01 16.49C11.93 16.49 9.69 16.02 7.49 15.11 4.45 13.98 1.82 12.07 0.31 9.89L0 9.45 3.72 0.29 4.25 0.19C6.63-0.28 9.61 0.14 13.13 1.45 16.2 2.59 18.83 4.5 20.34 6.69L20.65 7.14 16.93 16.17 16.4 16.27C15.64 16.42 14.84 16.5 14.01 16.5ZM2.27 9.18C3.59 10.84 5.77 12.34 8.22 13.26 10.76 14.31 13.31 14.71 15.49 14.4L18.37 7.4C17.05 5.74 14.87 4.24 12.42 3.33 9.52 2.25 7.09 1.83 5.15 2.07L2.26 9.18Z" class="MsftOfcThm_Text2_Fill_v2" stroke-width="0" fill="#7823DC"/><rect x="2.1" y="6.13" width="10.82" height="2" class="MsftOfcThm_Text2_Fill_v2" stroke-width="0" fill="#7823DC" transform="matrix(0.385584 -0.922673 0.922673 0.385584 -1.97 11.31)"/></g><path d="M2 25.93 0 25.93 0 18 21.05 18 21.05 20 2 20 2 25.93Z" class="MsftOfcThm_Text2_Fill_v2" stroke-width="0" fill="#7823DC"/><rect x="15.01" y="15.49" width="2" height="3.5" class="MsftOfcThm_Text2_Fill_v2" stroke-width="0" fill="#7823DC"/><rect x="4.01" y="12.68" width="2" height="6.32" class="MsftOfcThm_Text2_Fill_v2" stroke-width="0" fill="#7823DC"/></svg>