<svg viewBox="0 0 32.07 32" xmlns="http://www.w3.org/2000/svg" xmlns:xlink="http://www.w3.org/1999/xlink" id="Layer_1" overflow="hidden"><style>
.MsftOfcResponsive_Fill_7823dc {
 fill:#7823DC; 
}
</style>
<defs></defs><path d="M25.07 14C21.21 14 18.07 10.86 18.07 7 18.07 3.14 21.21 0 25.07 0 28.93 0 32.07 3.14 32.07 7 32.07 10.86 28.93 14 25.07 14ZM25.07 2C22.31 2 20.07 4.24 20.07 7 20.07 9.76 22.31 12 25.07 12 27.83 12 30.07 9.76 30.07 7 30.07 4.24 27.83 2 25.07 2Z" class="MsftOfcResponsive_Fill_7823dc" fill="#7823DC"/><g><rect x="21.85" y="5.78" width="2" height="3.49" class="MsftOfcResponsive_Fill_7823dc" fill="#7823DC" transform="matrix(0.706983 -0.70723 0.70723 0.706983 1.37 18.37)"/><rect x="22.4" y="6" width="7.17" height="2" class="MsftOfcResponsive_Fill_7823dc" fill="#7823DC" transform="matrix(0.707107 -0.707107 0.707107 0.707107 2.66 20.43)"/></g><path d="M32 28 7 28C5.99 28 5.05 27.48 4.5 26.61 3.95 25.75 3.87 24.69 4.29 23.78L8.33 14 11 14 11 21.7C11 22.45 11.55 23 12.3 23L18 23 18 18 22.2 18C27.11 18 31.32 21.72 31.99 26.67L31.99 27C31.99 27 31.99 28 31.99 28ZM9 17.62 6.12 24.58C5.91 25.04 6.09 25.4 6.18 25.53 6.37 25.82 6.67 26 7 26L29.83 26C28.93 22.52 25.8 20 22.2 20L20 20 20 25 12.3 25C10.45 25 9 23.55 9 21.7L9 17.62Z" class="MsftOfcResponsive_Fill_7823dc" fill="#7823DC"/><path d="M29 20 17 20 17 19C17 16.76 18.76 15 21 15L25 15C27.24 15 29 16.76 29 19L29 20ZM19.25 18 26.75 18C26.41 17.39 25.77 17 25 17L21 17C20.23 17 19.59 17.39 19.25 18Z" class="MsftOfcResponsive_Fill_7823dc" fill="#7823DC"/><path d="M7 17 4 17 4 11 7 11C8.65 11 10 12.35 10 14 10 15.65 8.65 17 7 17ZM6 15 7 15C7.55 15 8 14.55 8 14 8 13.45 7.55 13 7 13L6 13 6 15Z" class="MsftOfcResponsive_Fill_7823dc" fill="#7823DC"/><rect x="9" y="13" width="3" height="2" class="MsftOfcResponsive_Fill_7823dc" fill="#7823DC"/><path d="M5 32C2.24 32 0 29.76 0 27 0 24.24 2.24 22 5 22L5 24C3.35 24 2 25.35 2 27 2 28.65 3.35 30 5 30 6.65 30 8 28.65 8 27L10 27C10 29.76 7.76 32 5 32Z" class="MsftOfcResponsive_Fill_7823dc" fill="#7823DC"/><path d="M25 32C22.24 32 20 29.76 20 27L22 27C22 28.65 23.35 30 25 30 26.65 30 28 28.65 28 27L30 27C30 29.76 27.76 32 25 32Z" class="MsftOfcResponsive_Fill_7823dc" fill="#7823DC"/><rect x="26" y="23" width="4.1" height="2" class="MsftOfcResponsive_Fill_7823dc" fill="#7823DC"/></svg>