<svg viewBox="0 0 32 32" xmlns="http://www.w3.org/2000/svg" xmlns:xlink="http://www.w3.org/1999/xlink" id="Layer_1" overflow="hidden"><g><rect x="5.2" y="30" width="21.7" height="2" fill="#7823DC"/><g><path d="M6.5 30.3 13.4 0.2 15.6 0.6 8.6 30.7Z" fill="#7823DC"/><path d="M16.3 0.7 18.5 0.2 25.5 30.3 23.3 30.7Z" fill="#7823DC"/></g><rect x="13.5" y="0.1" width="4.8" height="2" fill="#7823DC"/><rect x="6.2" y="5.4" width="19.4" height="2" fill="#7823DC"/><rect x="11.8" y="11.2" width="8.2" height="2" fill="#7823DC"/><rect x="9.9" y="18.4" width="12" height="2" fill="#7823DC"/><path d="M11.1 1.6 20.9 1.6 20.9 3.6 11.1 3.6Z" fill="#7823DC"/><g><path d="M9.2 20.2 10.7 18.7 24.6 29.9 23.2 31.4Z" fill="#7823DC"/><path d="M7.2 29.9 21.1 18.6 22.6 20.1 8.6 31.4Z" fill="#7823DC"/></g><g><path d="M11.4 13.5 12.8 11.9 21.5 18 20.2 19.6Z" fill="#7823DC"/><path d="M10.4 17.9 19.1 12 20.4 13.6 11.7 19.5Z" fill="#7823DC"/></g><g><rect x="6.7" y="6.2" width="2.2" height="2.3" fill="#7823DC"/><rect x="23" y="6.2" width="2.2" height="2.3" fill="#7823DC"/></g></g></svg>