<svg viewBox="0 0 29.22 29.22" xmlns="http://www.w3.org/2000/svg" xmlns:xlink="http://www.w3.org/1999/xlink" xml:space="preserve" overflow="hidden"><g id="Layer_3"></g><g id="Layer_1"></g><g id="Layer_2"></g><g id="Layer_4"></g><g id="Layer_5"><g><path d="M14.63 9.11C16.89 9.11 18.73 7.28 18.73 5.02 18.73 2.76 16.89 0.93 14.63 0.93 12.37 0.93 10.53 2.76 10.53 5.02 10.53 7.28 12.36 9.11 14.63 9.11ZM14.63 2.74C15.89 2.74 16.91 3.76 16.91 5.01 16.91 6.27 15.89 7.28 14.63 7.28 13.37 7.28 12.35 6.26 12.35 5.01 12.35 3.76 13.37 2.74 14.63 2.74Z" fill="#7823DC" fill-rule="evenodd" clip-rule="evenodd"/><path d="M23.75 7.75C25.26 7.75 26.48 6.53 26.48 5.02 26.48 3.51 25.26 2.29 23.75 2.29 22.24 2.29 21.02 3.51 21.02 5.02 21.02 6.52 22.24 7.75 23.75 7.75ZM23.75 4.11C24.25 4.11 24.66 4.52 24.66 5.02 24.66 5.52 24.25 5.93 23.75 5.93 23.25 5.93 22.84 5.52 22.84 5.02 22.84 4.51 23.25 4.11 23.75 4.11Z" fill="#7823DC" fill-rule="evenodd" clip-rule="evenodd"/><path d="M5.52 7.75C7.03 7.75 8.25 6.53 8.25 5.02 8.25 3.51 7.03 2.29 5.52 2.29 4.01 2.29 2.79 3.51 2.79 5.02 2.79 6.52 4.01 7.75 5.52 7.75ZM5.52 4.11C6.02 4.11 6.43 4.52 6.43 5.02 6.43 5.52 6.02 5.93 5.52 5.93 5.02 5.93 4.61 5.52 4.61 5.02 4.61 4.51 5.02 4.11 5.52 4.11Z" fill="#7823DC" fill-rule="evenodd" clip-rule="evenodd"/><path d="M21.93 16.86 21.93 12.29 7.35 12.29 7.34 16.86 9.16 16.86 9.17 14.11 20.1 14.11 20.1 16.86Z" fill="#7823DC" fill-rule="evenodd" clip-rule="evenodd"/><path d="M29.21 15.93 29.21 12.26 25.59 8.65 18.28 8.65 18.28 11.38 20.1 11.38 20.1 10.47 27.39 10.47 27.39 15.93Z" fill="#7823DC" fill-rule="evenodd" clip-rule="evenodd"/><path d="M1.88 10.47 9.17 10.47 9.17 11.38 10.99 11.38 10.99 8.65 3.69 8.65 0.06 12.3 0.06 15.93 1.88 15.93Z" fill="#7823DC" fill-rule="evenodd" clip-rule="evenodd"/><path d="M24.62 18.7 24.62 20.52 26.2 20.52 20.64 26.84 8.05 18.7 0.02 25.47 0.02 27.94 8.14 20.99 20.92 29.22 27.39 21.91 27.39 23.26 29.24 23.26 29.24 18.7Z" fill="#7823DC" fill-rule="evenodd" clip-rule="evenodd"/></g></g></svg>