<svg viewBox="0 0 32 32" xmlns="http://www.w3.org/2000/svg" xmlns:xlink="http://www.w3.org/1999/xlink" id="Layer_1" overflow="hidden"><style>
.MsftOfcResponsive_Fill_7823dc {
 fill:#7823DC; 
}
</style>
<defs></defs><path d="M28.41 0 3.59 0 0 3.59 0 28.42 3.59 32.01 28.42 32.01 32.01 28.42 32.01 3.59 28.42 0ZM20 2 20 4.29C20 6.34 18.33 8 16.29 8L15.72 8C13.67 8 12.01 6.33 12.01 4.29L12.01 2 20.01 2ZM4.41 2 10 2 10 4.29C10 7.44 12.56 10 15.71 10L16.28 10C19.43 10 21.99 7.44 21.99 4.29L21.99 2 27.58 2 29.99 4.41 29.99 15 19.85 15C19.4 13.28 17.85 12 15.99 12 14.13 12 12.58 13.28 12.13 15L2 15 2 4.41 4.41 2ZM18 16C18 17.1 17.1 18 16 18 14.9 18 14 17.1 14 16 14 14.9 14.9 14 16 14 17.1 14 18 14.9 18 16ZM12 30 12 27.71C12 25.66 13.67 24 15.71 24L16.28 24C18.33 24 19.99 25.67 19.99 27.71L19.99 30 11.99 30ZM27.59 30 22 30 22 27.71C22 24.56 19.44 22 16.29 22L15.72 22C12.57 22 10.01 24.56 10.01 27.71L10.01 30 4.42 30 2.01 27.59 2.01 17 12.15 17C12.6 18.72 14.15 20 16.01 20 17.87 20 19.42 18.72 19.87 17L30.01 17 30.01 27.59 27.6 30Z" class="MsftOfcResponsive_Fill_7823dc" fill="#7823DC"/></svg>