<svg viewBox="0 0 32 32" xmlns="http://www.w3.org/2000/svg" xmlns:xlink="http://www.w3.org/1999/xlink" id="Layer_1" xml:space="preserve" overflow="hidden"><g><path d="M24 11.2C27.3 11.2 30 14 30 17.5 30 30 30 30 30 30 12.5 30 12.5 30 12.5 30 12.5 17.5 12.5 17.5 12.5 17.5 12.5 14 15.5 11.2 18.8 11.2 24 11.2 24 11.2 24 11.2M24 9.2C18.7 9.2 18.7 9.2 18.7 9.2 14.4 9.2 10.4 13 10.4 17.5 10.4 32 10.4 32 10.4 32 32 32 32 32 32 32 32 17.5 32 17.5 32 17.5 32 13 28.2 9.2 24 9.2L24 9.2Z" fill="#7823DC" fill-rule="evenodd" clip-rule="evenodd"/><path d="M26.3 7.7 16.8 7.7 16.8 10.8 26.3 10.8 26.3 7.7 26.3 7.7 26.3 7.7 26.3 7.7Z" fill="#7823DC" fill-rule="evenodd" clip-rule="evenodd"/><path d="M22 7.2 22 7.2 21.3 7.2 21.3 7.2 22 7.2 22 7.2 22 7.2 22 7.2ZM24 5.2 19.2 5.2 19.2 9.2 24 9.2 24 5.2 24 5.2 24 5.2 24 5.2 24 5.2Z" fill="#7823DC" fill-rule="evenodd" clip-rule="evenodd"/><path d="M22.5 5.2 20.5 5.2 20.5 2 8.6 2 8.6 3.7 6.8 3.7 6.8 0 22.5 0 22.5 5.2 22.5 5.2 22.5 5.2Z" fill="#7823DC" fill-rule="evenodd" clip-rule="evenodd"/><path d="M20 24C19.7 22 19.7 22 19.7 22 20.5 22 20.5 22 20.5 22 21 21.7 21.8 21.2 21.8 20.7 22.1 19.4 22.1 19.4 22.1 19.4 21.1 19.7 21.1 19.7 21.1 19.7 20.3 20 19.8 20.5 19.8 21.2 19.5 22 19.5 22 19.5 22 17.7 21.7 17.7 21.7 17.7 21.7 17.7 20.9 17.7 20.9 17.7 20.9 18 19.4 19 18.1 20.5 17.6 24.8 16.6 24.8 16.6 24.8 16.6 23.8 21.1 23.8 21.1 23.8 21.1 23.5 22.4 22 23.6 20.8 23.6L20 24 20 24 20 24Z" fill="#7823DC" fill-rule="evenodd" clip-rule="evenodd"/><path d="M6.2 11.2C6.2 10.9 6.2 10.9 6.2 10.7 6.2 10.7 6.2 10.7 6.2 10.4L6.2 10.4C6.2 10.4 6.2 10.4 6.2 10.1L6.2 10.1 6.2 10.1C6.2 9.8 6.2 9.8 6.2 9.8L6.2 9.8C5.7 6 5.7 6 5.7 6 2 7.7 2 7.7 2 7.7L2 7.7C1.8 7.7 1.5 8 1.3 8.2 1 8.5 0.8 8.7 0.5 9-0.5 10.5 0 12.5 1.5 13.5 3.2 14.5 5 13.8 6 12.2 6 12 6.2 11.5 6.2 11.2L6.2 11.2 6.2 11.2Z" fill="#7823DC" fill-rule="evenodd" clip-rule="evenodd"/></g></svg>