<svg viewBox="0 0 32 32" xmlns="http://www.w3.org/2000/svg" xmlns:xlink="http://www.w3.org/1999/xlink" id="Layer_1" overflow="hidden"><path d="M32 0 32 1.7 24.5 9.1 29.7 9.1 31.9 11.3 32 11.4 20.6 11.4 20.6 0 20.6 0 22.9 2.3 22.9 7.5 30.4 0 31.9 0" fill="#7823DC" fill-rule="evenodd" clip-rule="evenodd"/><path d="M0 0 0 1.7 7.5 9.1 2.3 9.1 0.1 11.3 0 11.4 11.4 11.4 11.4 0 11.4 0 9.1 2.3 9.1 7.5 1.6 0 0.1 0" fill="#7823DC" fill-rule="evenodd" clip-rule="evenodd"/><path d="M32 32 32 30.3 24.5 22.9 29.7 22.9 31.9 20.7 32 20.6 20.6 20.6 20.6 32 20.6 32 22.9 29.7 22.9 24.5 30.4 32 31.9 32" fill="#7823DC" fill-rule="evenodd" clip-rule="evenodd"/><path d="M0 32 0 30.3 7.5 22.9 2.3 22.9 0.1 20.7 0 20.6 11.4 20.6 11.4 32 11.4 32 9.1 29.7 9.1 24.5 1.6 32 0.1 32" fill="#7823DC" fill-rule="evenodd" clip-rule="evenodd"/></svg>