<svg viewBox="0 0 32 32" xmlns="http://www.w3.org/2000/svg" xmlns:xlink="http://www.w3.org/1999/xlink" overflow="hidden"><style>
.MsftOfcResponsive_Fill_7823dc {
 fill:#7823DC; 
}
</style>
<defs></defs><g id="Layer_3"><path d="M11.4186 25.0611C12.78 25.0612 13.8837 26.1648 13.8837 27.5263 13.8837 28.8877 12.78 29.9913 11.4185 29.9913 10.0571 29.9913 8.95349 28.8877 8.95349 27.5262 8.95502 26.1654 10.0578 25.0627 11.4186 25.0611M11.4186 23.0611C8.95261 23.0611 6.95352 25.0602 6.95351 27.5262 6.9535 29.9922 8.95259 31.9913 11.4186 31.9913 13.8846 31.9913 15.8837 29.9923 15.8837 27.5262 15.8837 25.0603 13.8846 23.0612 11.4186 23.0612Z" class="MsftOfcResponsive_Fill_7823dc" fill="#7823DC"/><path d="M4.47677 25.0611C5.8382 25.0612 6.94185 26.1648 6.94183 27.5263 6.94181 28.8877 5.83814 29.9913 4.47671 29.9913 3.11529 29.9913 2.01165 28.8877 2.01165 27.5262 2.01319 26.1654 3.11596 25.0627 4.47677 25.0611M4.47677 23.0611C2.01077 23.0611 0.0116799 25.0602 0.0116799 27.5262 0.0116799 29.9922 2.01077 31.9913 4.47677 31.9913 6.94277 31.9913 8.94186 29.9922 8.94186 27.5262 8.94188 25.0603 6.94283 23.0612 4.47685 23.0611 4.47682 23.0611 4.4768 23.0611 4.47677 23.0611Z" class="MsftOfcResponsive_Fill_7823dc" fill="#7823DC"/><path d="M7.907 19.0321C9.26843 19.0321 10.3721 20.1357 10.3721 21.4972 10.3721 22.8586 9.26843 23.9622 7.907 23.9622 6.54557 23.9622 5.44191 22.8586 5.44191 21.4972 5.44345 20.1364 6.54621 19.0336 7.907 19.0321M7.907 17.0321C5.441 17.0321 3.44192 19.0312 3.44194 21.4972 3.44196 23.9632 5.44106 25.9623 7.90706 25.9622 10.373 25.9622 12.3721 23.9632 12.3721 21.4972 12.3721 19.0312 10.373 17.0321 7.907 17.0321Z" class="MsftOfcResponsive_Fill_7823dc" fill="#7823DC"/><rect x="5.81197" y="14.0541" width="21.5238" height="1.99606" class="MsftOfcResponsive_Fill_7823dc" fill="#7823DC" transform="matrix(0.537192 -0.84346 0.84346 0.537192 -5.02537 20.9457)"/><path d="M5.713 20.345 0.541 25.438 4.192 18.997 15.625 1.785 17.309 2.857 5.713 20.345Z" class="MsftOfcResponsive_Fill_7823dc" fill="#7823DC"/><path d="M15.127 30.017 13.444 28.945 24.741 11.878 26.425 12.95 15.127 30.017Z" class="MsftOfcResponsive_Fill_7823dc" fill="#7823DC"/><path d="M19.186 0.00881C16.7186 0.0101851 14.7195 2.0115 14.7209 4.47888 14.7212 5.07417 14.8405 5.6634 15.0718 6.21194L17.1057 3.16421C17.1317 3.12307 17.158 3.08303 17.1862 3.0436L17.2506 2.94717 17.2582 2.95644C18.0907 1.88619 19.6332 1.69347 20.7034 2.52597 21.3042 2.99328 21.6542 3.71279 21.6511 4.4739 21.6502 4.94659 21.5104 5.40859 21.2489 5.80239L20.5604 6.93531 21.6003 8.22109C23.673 6.89088 24.2749 4.13229 22.9447 2.05959 22.1234 0.779855 20.7066 0.00683701 19.186 0.00881043Z" class="MsftOfcResponsive_Fill_7823dc" fill="#7823DC"/><path d="M20.2157 8.83376 20.6482 9.13662C21.3958 8.00205 22.9217 7.68839 24.0562 8.43604 25.1908 9.18369 25.5045 10.7095 24.7568 11.8441 24.7315 11.8825 24.7051 11.9202 24.6777 11.9572L26.3147 13.1032C27.7588 11.1142 27.3171 8.3312 25.3281 6.88711 24.0304 5.94487 22.326 5.77372 20.8668 6.43912L18.7496 9.7477Z" class="MsftOfcResponsive_Fill_7823dc" fill="#7823DC"/><path d="M0.774 25.043 4.029 19.273 4.704 19.973 5.169 23.973 0.774 25.043Z" class="MsftOfcResponsive_Fill_7823dc" fill="#7823DC"/></g></svg>