<svg viewBox="0 0 32 32" xmlns="http://www.w3.org/2000/svg" xmlns:xlink="http://www.w3.org/1999/xlink" id="Layer_1" xml:space="preserve" overflow="hidden"><style>
.MsftOfcResponsive_Fill_7823dc {
 fill:#7823DC; 
}
</style>
<path d="M16 0 16 2C15.7 2 15.4 2 15.1 2 7.9 2 2 8 2 15.5 2 20.2 4.4 24.5 8.1 26.9L6.9 28.5C2.7 25.7 0 20.9 0 15.5 0 6.9 6.8 0 15.1 0 15.4 0 15.7 0 16 0Z" class="MsftOfcResponsive_Fill_7823dc" fill="#7823DC"/><path d="M30.1 15.5C30.1 16.8 29.9 18.1 29.6 19.3 29.6 19.4 29.5 19.6 29.5 19.8 29.5 19.7 29.4 19.5 29.4 19.3 29 17.4 28.4 14.7 27.8 12.5L27.8 12.4C27.7 12 27.6 11.6 27.5 11.2 27.5 11 27.4 10.9 27.4 10.8 26.4 8 24.4 5.5 21.9 4L21.9 1.6C25 3.3 27.5 6 29 9.3 29.1 9.5 29.2 9.8 29.3 10.1L29.3 10.2C29.5 10.8 29.7 11.3 29.8 11.9L29.8 12C30.1 13.1 30.2 14.3 30.1 15.5Z" class="MsftOfcResponsive_Fill_7823dc" fill="#7823DC"/><path d="M32 22.3 26.4 22.3 26.4 32 17 32 17 30 24.3 30 24.3 20.3 29.5 20.3C29.5 20.1 29.4 19.9 29.4 19.7 29 17.8 28.3 14.6 27.7 12.2L27.7 12.1C27.6 11.7 27.5 11.3 27.4 10.9 27.4 10.8 27.3 10.6 27.3 10.5 27.2 10.2 27.1 9.8 27 9.6L28.8 8.9 28.8 9.9C28.9 10.2 29 9.5 29.1 9.8L29.1 9.9C29.3 10.4 29.4 11 29.6 11.6L29.6 11.7C30.6 15.5 31.6 20.9 31.7 21.2L32 22.3Z" class="MsftOfcResponsive_Fill_7823dc" fill="#7823DC"/><g><defs><path d="M-1.9 32 31 32 31-0.9-1.9-0.9-1.9 32Z" id="SVGID_1_" class="MsftOfcResponsive_Fill_7823dc" fill="#7823DC"/></defs><defs><path d="M-1.9-0.9 31-0.9 31 32-1.9 32-1.9-0.9Z" id="SVGID_00000114773420232824602710000014236965078025851558_" class="MsftOfcResponsive_Fill_7823dc" fill="#7823DC"/></defs><clipPath id="SVGID_00000124850462708933187770000014023116165135943838_"><use width="100%" height="100%" xlink:href="#SVGID_1_" overflow="visible"></use></clipPath><clipPath id="SVGID_00000048481269580498926990000015462658356228554902_" clip-path="url(#SVGID_00000124850462708933187770000014023116165135943838_)"><use width="100%" height="100%" xlink:href="#SVGID_00000114773420232824602710000014236965078025851558_" overflow="visible"></use></clipPath><g clip-path="url(#SVGID_00000048481269580498926990000015462658356228554902_)"><defs><path d="M-1.9 32 31 32 31-0.9-1.9-0.9-1.9 32Z" id="SVGID_00000016754597093578578450000010835539151879069864_" class="MsftOfcResponsive_Fill_7823dc" fill="#7823DC"/></defs><clipPath id="SVGID_00000010300167820357915180000007831871344724796601_"><use width="100%" height="100%" xlink:href="#SVGID_00000016754597093578578450000010835539151879069864_" overflow="visible"></use></clipPath><path d="M9.9 31.9 9.9 23.8 15.1 18.6 7.5 18.6 5.8 14.4 20 0.1 20 8.2 15.4 12.8 23 12.8 24.7 17 9.9 31.9 9.9 31.9 9.9 31.9ZM11.8 24.5 11.8 27 22.4 16.4 21.7 14.7 10.7 14.7 18.1 7.3 18.1 4.8 8.1 14.7 8.8 16.4 19.9 16.4 11.8 24.5 11.8 24.5 11.8 24.5Z" class="MsftOfcResponsive_Fill_7823dc" fill="#7823DC" clip-path="url(#SVGID_00000010300167820357915180000007831871344724796601_)"/></g></g></svg>