<svg viewBox="0 0 32 31.97" xmlns="http://www.w3.org/2000/svg" xmlns:xlink="http://www.w3.org/1999/xlink" id="Layer_1" overflow="hidden"><style>
.MsftOfcResponsive_Fill_7823dc {
 fill:#7823DC; 
}
</style>
<defs></defs><path d="M16 31.97C7.18 31.97 0 24.03 0 14.26 0 7.95 2.92 2.16 6.95 0.5 9.72-0.65 12.74 0.21 15.46 2.93 19.79 7.26 23.27 7.1 26.07 6.97 27.73 6.89 29.29 6.82 30.44 7.91 31.54 8.96 32.01 10.86 32.01 14.27 32.01 21.1 24.69 31.98 16.01 31.98ZM9.41 2C8.86 2 8.3 2.1 7.72 2.34 4.46 3.69 2.01 8.81 2.01 14.26 2.01 22.92 8.29 29.97 16.01 29.97 23.73 29.97 30.01 20.18 30.01 14.26 30.01 11.56 29.7 9.95 29.06 9.34 28.56 8.86 27.68 8.88 26.17 8.95 23.32 9.08 19.01 9.29 14.06 4.33 12.91 3.18 11.27 1.99 9.42 1.99Z" class="MsftOfcResponsive_Fill_7823dc" fill="#7823DC"/><path d="M11.18 21.97C7.87 21.97 5.18 19.28 5.18 15.97 5.18 12.66 7.87 9.97 11.18 9.97 14.49 9.97 17.18 12.66 17.18 15.97 17.18 19.28 14.49 21.97 11.18 21.97ZM11.18 11.97C8.97 11.97 7.18 13.76 7.18 15.97 7.18 18.18 8.97 19.97 11.18 19.97 13.39 19.97 15.18 18.18 15.18 15.97 15.18 13.76 13.39 11.97 11.18 11.97Z" class="MsftOfcResponsive_Fill_7823dc" fill="#7823DC"/><ellipse cx="12.74" cy="14.38" rx="0.82" ry="1.41" class="MsftOfcResponsive_Fill_7823dc" fill="#7823DC" transform="matrix(0.707107 -0.707107 0.707107 0.707107 -6.44 13.22)"/></svg>