<svg viewBox="0 0 32 32" xmlns="http://www.w3.org/2000/svg" xmlns:xlink="http://www.w3.org/1999/xlink" id="Layer_1" xml:space="preserve" overflow="hidden"><g><path d="M20.4 11.1C19.9 11.1 19.5 10.7 19.4 10.3 19.1 7.8 20.1 5.7 21.1 3.8 21.6 2.7 22.3 1.6 23.6 0.9 24.3 0.4 25.1 0.1 26.2 -9.99201e-16 26.2 -9.99201e-16 26.3 -9.99201e-16 26.3 -9.99201e-16L27.3 -9.99201e-16C27.8 -9.99201e-16 28.3 0.4 28.3 1 28.3 1.6 27.9 2 27.3 2L26.4 2C25.7 2.1 25.1 2.3 24.7 2.6 24.7 2.6 24.6 2.7 24.6 2.7 23.9 3.1 23.4 3.6 22.9 4.8 22 6.4 21.1 8.1 21.4 10 21.5 10.5 21.1 11 20.6 11.1 20.5 11.1 20.4 11.1 20.4 11.1Z" fill="#7823DC"/><g><defs><path d="M0.7 32 31.3 32 31.3 0 0.7 0 0.7 32Z" id="SVGID_1_" fill="#7823DC"/></defs><clipPath id="SVGID_00000008866401740651981020000018433902844269342650_"><use width="100%" height="100%" xlink:href="#SVGID_1_" overflow="visible"></use></clipPath><path d="M26.4 17.8C26.4 17.8 26.3 17.8 26.3 17.8 24.5 17.6 21.6 16.7 21.2 16.5 20.7 16.3 20.4 15.8 20.6 15.3 20.8 14.8 21.3 14.5 21.8 14.7 22.3 14.9 24.6 15.6 26.1 15.8 26.1 15.7 26.2 15.6 26.3 15.5 26.4 15.3 26.5 15.1 26.7 14.9 27.4 13.9 27.8 13.2 28.2 12.1 28.2 12.1 28.9 10.2 29.3 7.7 29.4 7.1 29.4 6.4 29.4 6.1L29.4 5C29.1 2.5 28.7 2.4 27.4 1.9L27 1.9C26.5 1.7 26.2 1.2 26.4 0.6 26.6 0.1 27.1-0.2 27.7 -1.11022e-16L28 0.1C29.8 0.7 30.9 1.3 31.3 4.8 31.3 4.8 31.3 4.9 31.3 4.9L31.3 6C31.3 6.3 31.3 7.1 31.2 7.8 30.8 10.5 30 12.6 30 12.7 29.5 13.9 29.1 14.7 28.3 15.8 28.2 16 28.1 16.2 28 16.4 27.5 17.2 27.1 17.8 26.4 17.8Z" fill="#7823DC" clip-path="url(#SVGID_00000008866401740651981020000018433902844269342650_)"/><g clip-path="url(#SVGID_00000008866401740651981020000018433902844269342650_)"><defs><path d="M0.7 32 31.3 32 31.3 0 0.7 0 0.7 32Z" id="SVGID_00000099629119093817998960000005352975928273783726_" fill="#7823DC"/></defs><clipPath id="SVGID_00000096022208997725128750000010682314612542790589_"><use width="100%" height="100%" xlink:href="#SVGID_00000099629119093817998960000005352975928273783726_" overflow="visible"></use></clipPath><path d="M21.8 25.3 21.3 25.3C21.2 25.3 21.2 25.3 21.1 25.3 20 25.1 19.2 24.6 18.6 23.3 18.5 23.2 18.5 23 18.5 22.9 18.5 22.8 18.5 22.4 18.4 22.3 18.4 22.2 18.4 22.1 18.4 22L18.4 21.9C18.3 20.3 19.1 19.1 19.7 18.1L19.8 18.1C20 17.7 20.5 17.5 20.9 17.7 22.2 18 23.5 18.3 24.7 18.5L25.5 18.7C26 18.8 26.3 19.3 26.3 19.8 26.1 21.3 25.5 22.7 24.5 23.9 24.5 23.9 24.5 24 24.4 24 23.6 24.8 22.7 25.3 21.8 25.3ZM21.4 23.3 21.8 23.3C22.2 23.3 22.6 23.1 23 22.6 23.5 21.9 23.9 21.2 24.1 20.4 23.1 20.2 22 20 21 19.7 20.5 20.4 20.3 21 20.3 21.8L20.3 21.8C20.4 22.1 20.4 22.4 20.4 22.6 20.7 23 20.9 23.2 21.4 23.3Z" fill="#7823DC" clip-path="url(#SVGID_00000096022208997725128750000010682314612542790589_)"/><g clip-path="url(#SVGID_00000096022208997725128750000010682314612542790589_)"><defs><path d="M0.7 32 31.3 32 31.3 0 0.7 0 0.7 32Z" id="SVGID_00000098222549385308050680000016633311280023005837_" fill="#7823DC"/></defs><clipPath id="SVGID_00000040563228863358778720000003907614897649777821_"><use width="100%" height="100%" xlink:href="#SVGID_00000098222549385308050680000016633311280023005837_" overflow="visible"></use></clipPath><path d="M21.4 16.5C20.9 16.5 20.5 16.1 20.4 15.6 20.3 14.7 20.1 13.9 19.9 13.1 19.7 12.3 19.5 11.4 19.4 10.4 19.3 9.9 19.7 9.4 20.3 9.3 20.8 9.2 21.3 9.6 21.4 10.2 21.5 11.1 21.7 11.9 21.9 12.7 22.1 13.5 22.3 14.4 22.4 15.4 22.5 15.9 22.1 16.4 21.5 16.5 21.5 16.5 21.5 16.5 21.4 16.5Z" fill="#7823DC" clip-path="url(#SVGID_00000040563228863358778720000003907614897649777821_)"/><g clip-path="url(#SVGID_00000040563228863358778720000003907614897649777821_)"><defs><path d="M0.7 32 31.3 32 31.3 0 0.7 0 0.7 32Z" id="SVGID_00000110448328230998304920000004181062718797298336_" fill="#7823DC"/></defs><clipPath id="SVGID_00000140013184225373641920000004074982518538750086_"><use width="100%" height="100%" xlink:href="#SVGID_00000110448328230998304920000004181062718797298336_" overflow="visible"></use></clipPath><path d="M11.5 17.8C11.5 17.8 11.4 17.8 11.4 17.8 10.9 17.7 10.5 17.2 10.6 16.7 10.9 14.8 10 13.1 9.1 11.5 8.6 10.5 8.1 9.7 7.4 9.4 6.7 8.8 6.2 8.6 5.8 8.6L4.8 8.6C4.3 8.6 3.8 8.2 3.8 7.6 3.8 7 4.2 6.6 4.8 6.6L5.8 6.6C6.9 6.6 7.8 7.1 8.5 7.6 9.5 8.2 10.2 9.2 10.9 10.5 11.9 12.3 12.9 14.5 12.6 16.9 12.4 17.4 12 17.8 11.5 17.8Z" fill="#7823DC" clip-path="url(#SVGID_00000140013184225373641920000004074982518538750086_)"/><g clip-path="url(#SVGID_00000140013184225373641920000004074982518538750086_)"><defs><path d="M0.7 32 31.3 32 31.3 0 0.7 0 0.7 32Z" id="SVGID_00000181084276747905093720000003902325741774777263_" fill="#7823DC"/></defs><clipPath id="SVGID_00000114778581106615019420000000661583802508229249_"><use width="100%" height="100%" xlink:href="#SVGID_00000181084276747905093720000003902325741774777263_" overflow="visible"></use></clipPath><path d="M5.6 24.2C4.8 24.2 4.5 23.6 4.1 22.9 4 22.7 3.9 22.5 3.7 22.3 3 21.2 2.5 20.5 2 19.2 2 19.1 1.2 17.2 0.8 14.5 0.7 13.7 0.7 13 0.7 12.7L0.7 11.6C0.7 11.6 0.7 11.5 0.7 11.5 1.2 8 2.3 7.5 4 6.8L4.3 6.7C4.8 6.5 5.4 6.8 5.6 7.3 5.8 7.8 5.5 8.4 5 8.6L4.7 8.7C3.4 9.2 3 9.3 2.7 11.7L2.7 12.7C2.7 13 2.7 13.6 2.8 14.3 3.2 16.7 3.9 18.5 3.9 18.6 4.3 19.7 4.7 20.3 5.4 21.3 5.6 21.6 5.7 21.8 5.8 22 5.9 22.1 5.9 22.2 6 22.3 7.5 22.1 9.7 21.4 10.3 21.2 10.8 21 11.4 21.3 11.5 21.8 11.7 22.3 11.4 22.9 10.9 23 10.4 23.2 7.6 24 5.8 24.2 5.7 24.2 5.7 24.2 5.6 24.2Z" fill="#7823DC" clip-path="url(#SVGID_00000114778581106615019420000000661583802508229249_)"/><g clip-path="url(#SVGID_00000114778581106615019420000000661583802508229249_)"><defs><path d="M0.7 32 31.3 32 31.3 0 0.7 0 0.7 32Z" id="SVGID_00000042001074752376873130000013728168401261786301_" fill="#7823DC"/></defs><clipPath id="SVGID_00000085209882777420380600000003429855582738487430_"><use width="100%" height="100%" xlink:href="#SVGID_00000042001074752376873130000013728168401261786301_" overflow="visible"></use></clipPath><path d="M10.7 32 10.2 32C9.3 32 8.4 31.6 7.5 30.7 6.5 29.5 5.9 28.2 5.7 26.4 5.6 25.9 6 25.4 6.5 25.3L7.2 25.1C8.5 24.8 9.7 24.6 11 24.3 11.4 24.2 11.9 24.4 12.1 24.8L12.1 24.8C12.8 25.8 13.6 27 13.4 28.6L13.4 28.6C13.4 28.7 13.4 28.8 13.4 28.9 13.4 29.1 13.4 29.4 13.4 29.5 13.4 29.6 13.4 29.8 13.3 29.9 12.7 31.2 11.9 31.6 10.8 31.9 10.8 32 10.8 32 10.7 32ZM7.8 27.1C8 28 8.4 28.7 9 29.4 9.4 29.8 9.9 30.1 10.2 30.1L10.6 30.1C11.1 30 11.3 29.8 11.5 29.5 11.5 29.3 11.5 29 11.6 28.7 11.6 27.9 11.4 27.3 10.9 26.5 9.8 26.7 8.8 26.9 7.8 27.1Z" fill="#7823DC" clip-path="url(#SVGID_00000085209882777420380600000003429855582738487430_)"/><g clip-path="url(#SVGID_00000085209882777420380600000003429855582738487430_)"><defs><path d="M0.7 32 31.3 32 31.3 0 0.7 0 0.7 32Z" id="SVGID_00000100363971886550330480000015433566427367268520_" fill="#7823DC"/></defs><clipPath id="SVGID_00000172421087925618765560000001040130087605272765_"><use width="100%" height="100%" xlink:href="#SVGID_00000100363971886550330480000015433566427367268520_" overflow="visible"></use></clipPath><path d="M10.6 23.1C10.5 23.1 10.5 23.1 10.6 23.1 10 23 9.6 22.6 9.6 22 9.7 21 9.9 20.1 10.1 19.3 10.3 18.5 10.5 17.7 10.6 16.8 10.7 16.3 11.1 15.9 11.7 15.9 12.2 16 12.6 16.4 12.6 17 12.5 18 12.3 18.9 12.1 19.7 11.9 20.5 11.7 21.3 11.6 22.2 11.5 22.8 11.1 23.1 10.6 23.1Z" fill="#7823DC" clip-path="url(#SVGID_00000172421087925618765560000001040130087605272765_)"/></g></g></g></g></g></g></g></g></svg>