<svg viewBox="0 0 32 32" xmlns="http://www.w3.org/2000/svg" xmlns:xlink="http://www.w3.org/1999/xlink" overflow="hidden"><style>
.MsftOfcResponsive_Fill_7823dc {
 fill:#7823DC; 
}
</style>
<defs></defs><g id="Grid"><path d="M26.74 19.36C26.3492 19.3612 25.9599 19.4082 25.58 19.5L23.76 15.71 25.83 15.71 25.32 16.59 27.05 17.59 28.43 15.21 27.57 13.7 21.62 10 19.27 13.68 19.27 13.68 13.88 10 8.43 18.5 7.43 19.84C4.77159 18.6415 1.64499 19.8251 0.44653 22.4835-0.751927 25.1419 0.431595 28.2685 3.09 29.4669 5.74841 30.6654 8.87502 29.4819 10.0735 26.8235 10.3815 26.1403 10.5405 25.3994 10.54 24.65 10.5407 23.289 10.0138 21.9807 9.07 21L9.7 20.15 10.11 20.15 11.87 21.6 10.74 25.11 12.65 25.73 14.19 20.92 13.26 20.15 17.88 20.15 19.64 21.6 18.51 25.11 20.42 25.73 22 20.92 21 20.15 23.65 20.15 23.72 20.3C21.3286 21.9591 20.7349 25.2426 22.394 27.634 24.0531 30.0254 27.3366 30.6191 29.728 28.96 32.1194 27.3009 32.7131 24.0174 31.054 21.626 30.0685 20.2055 28.4489 19.3587 26.72 19.36ZM18 15.71 17.56 16.46 16.84 17.6 15.93 15.71ZM14.49 12.82 15.78 13.71 14.29 13.71 13.39 15.14 14.84 18.14 11 18.14ZM8.55 24.65C8.55 26.467 7.07702 27.94 5.26 27.94 3.44298 27.94 1.97 26.467 1.97 24.65 1.97 22.833 3.44298 21.36 5.26 21.36 5.57573 21.3636 5.88917 21.4141 6.19 21.51L4 24.48 5.6 25.67 7.86 22.67C8.30311 23.2353 8.54582 23.9318 8.55 24.65ZM18.8 18.15 19.16 17.59 19.16 17.59 19.16 17.52 22.16 12.76 23.67 13.7 22.17 13.7 21.27 15.13 22.72 18.13ZM26.74 27.93C24.934 27.9378 23.4637 26.4801 23.4559 24.6742 23.4517 23.6999 23.8821 22.7745 24.63 22.15L26.25 25.51 28.05 24.64 26.49 21.39C26.5732 21.3845 26.6568 21.3845 26.74 21.39 28.5543 21.4901 29.9438 23.0421 29.8437 24.8563 29.7513 26.5307 28.4143 27.8676 26.74 27.96Z" class="MsftOfcResponsive_Fill_7823dc" fill="#7823DC"/><path d="M24.25 9.92C25.5258 9.91448 26.5555 8.87579 26.55 7.60002 26.5445 6.32426 25.5058 5.29452 24.23 5.30004 22.9581 5.30555 21.93 6.33813 21.93 7.61 21.93 8.88578 22.9642 9.92001 24.24 9.92002 24.2433 9.92002 24.2467 9.92001 24.25 9.92Z" class="MsftOfcResponsive_Fill_7823dc" fill="#7823DC"/><path d="M16.47 9.92C17.7458 9.92 18.78 8.88578 18.78 7.61 18.78 6.33422 17.7458 5.3 16.47 5.3 15.1942 5.3 14.16 6.33422 14.16 7.61 14.16 8.88578 15.1942 9.92 16.47 9.92Z" class="MsftOfcResponsive_Fill_7823dc" fill="#7823DC"/></g></svg>