<svg viewBox="0 0 32 32.13" xmlns="http://www.w3.org/2000/svg" xmlns:xlink="http://www.w3.org/1999/xlink" id="Layer_1" overflow="hidden"><style>
.MsftOfcThm_Text2_lumMod_100_Fill_v2 {
 fill:#7823DC; 
}
</style>
<defs></defs><path d="M30 30.13 30 10.64 29.62 11 22.91 17.43 20.06 15.4 18.41 14.22 16.85 13.1 14.27 15.98 13.94 16.35 12.8 17.62 11.41 19.18 10.29 20.42 9.71 21 9.55 21.16 4 26.72 4 30.13 0 30.13 0 32.13 32 32.13 32 30.13 30 30.13ZM10 30.13 6 30.13 6 27.55 10 23.55 10 30.13ZM16 30.13 12 30.13 12 21.52 12.42 21.05 14.79 18.4 15.34 17.79 16 17.05 16 30.13ZM22 30.13 18 30.13 18 16.38 18.99 17.09 22 19.25 22 30.13ZM28 30.13 24 30.13 24 19.16 28 15.32 28 30.13Z" class="MsftOfcThm_Text2_lumMod_100_Fill_v2" stroke-width="0" fill="#7823DC"/><path d="M12.09 15.42 14.4 12.84 17.15 9.77 19.19 11.23 21.03 12.54 23.09 14.02 29.31 8.16 29.31 9.97 29.35 9.97 31.31 8.02 31.31 4.53 28.03 4.53C28.03 4.53 26.04 6.52 26.04 6.52L26.04 6.52C26.04 6.52 27.9 6.52 27.9 6.52L28.13 6.52 22.92 11.44 21.2 10.21C20.99 4.55 16.32 0 10.6 0 4.88 0 0 4.76 0 10.6 0 14.42 2.03 17.78 5.07 19.64L0 24.71 0 27.55 11.75 15.8 12.09 15.42ZM18.98 8.62 16.85 7.1 14.48 9.75C14.45 8.67 14.36 7.45 14.18 6.25L14.18 6.25C15.16 5.89 16.08 5.39 16.92 4.77 17.91 5.84 18.63 7.16 18.98 8.62ZM15.36 3.43C14.87 3.76 14.35 4.04 13.8 4.26 13.64 3.59 13.45 2.96 13.22 2.41 13.99 2.65 14.7 3 15.36 3.43ZM10.58 2C10.88 2.1 11.44 3.02 11.88 4.77 11.04 4.9 10.17 4.9 9.33 4.77 9.76 3.02 10.31 2.1 10.58 2ZM6.53 18.18C5.93 17.86 5.37 17.47 4.86 17.01 3.11 15.43 2 13.14 2 10.6 2 8.35 2.86 6.3 4.28 4.77 5.12 5.39 6.04 5.89 7.02 6.24 6.8 7.77 6.72 9.32 6.72 10.6 6.72 12.13 6.84 14.08 7.18 15.89 7.26 16.35 7.36 16.8 7.48 17.23L6.53 18.18ZM7.41 4.26C6.87 4.04 6.35 3.76 5.86 3.44 6.52 3 7.22 2.65 7.99 2.41 7.76 2.96 7.56 3.59 7.41 4.26ZM9.31 15.4 9.15 15.56C9.15 15.56 9.13 15.47 9.12 15.43 8.88 14.15 8.72 12.55 8.72 10.6 8.72 9.13 8.81 7.84 8.96 6.75L8.96 6.75C9.5 6.82 10.04 6.88 10.6 6.88 11.16 6.88 11.71 6.82 12.25 6.74L12.25 6.74C12.4 7.84 12.49 9.13 12.49 10.6 12.49 11.09 12.49 11.56 12.45 12.01L10.29 14.42 9.31 15.4Z" class="MsftOfcThm_Text2_lumMod_100_Fill_v2" stroke-width="0" fill="#7823DC"/></svg>