<svg viewBox="0 0 32 32" xmlns="http://www.w3.org/2000/svg" xmlns:xlink="http://www.w3.org/1999/xlink" id="Layer_1" xml:space="preserve" overflow="hidden"><g><path d="M312 451.1 307.4 451.1 307.4 440.4 312.7 425.8 309.5 420 313.1 417.1 320.2 423.2 321.2 436.9 327.2 447.6 323.1 449.9 316.7 438.2 316.1 430.1 312 441.3 312 451.1 312 451.1Z" fill="#7823DC" fill-rule="evenodd" clip-rule="evenodd"/><path d="M301.1 405.4C297.1 405.4 293.9 402.2 293.9 398.2 293.9 394.2 297.1 391 301.1 391 305.1 391 308.3 394.2 308.3 398.2 308.3 398.2 308.3 398.2 308.3 398.2 308.3 402.2 305.1 405.4 301.1 405.4L301.1 405.4ZM301.1 395.6C299.7 395.6 298.5 396.7 298.5 398.1 298.5 399.5 299.6 400.7 301 400.7 302.4 400.7 303.6 399.6 303.6 398.2 303.6 398.2 303.6 398.2 303.6 398.2 303.7 396.8 302.5 395.6 301.1 395.6L301.1 395.6Z" fill="#7823DC" fill-rule="evenodd" clip-rule="evenodd"/><path d="M288.3 447.6 283.5 447.6 283.5 442.9 283.7 442.9 283.7 440.2 292.2 416.2 302.5 413.5 305.2 406.6 309.5 408.2 306 417.4 295.8 420.1 288.3 441 288.3 447.6 288.3 447.6Z" fill="#7823DC" fill-rule="evenodd" clip-rule="evenodd"/><path d="M277.1 448.9C272.4 448.9 267.7 447.3 267.7 443.8 267.7 440.3 272.4 438.7 277.1 438.7 281.7 438.7 286.5 440.3 286.5 443.8 286.5 447.3 281.8 448.9 277.1 448.9L277.1 448.9ZM273.7 443.8C274.8 444.1 276 444.2 277.2 444.2 278.4 444.2 279.5 444.1 280.6 443.8 279.5 443.5 278.3 443.4 277.2 443.4 276 443.4 274.8 443.5 273.7 443.8L273.7 443.8Z" fill="#7823DC" fill-rule="evenodd" clip-rule="evenodd"/><path d="M304.5 409 308.7 407.1 313.7 417.9 309.5 419.9 304.5 409Z" fill="#7823DC" fill-rule="evenodd" clip-rule="evenodd"/><path d="M318.5 417.8 327.7 412 318.6 397.5 302.3 407.9 314.6 429.2 318.5 427.1C319.5 426.5 320.3 425.6 320.7 424.5 321.1 423.4 321 422.1 320.4 421.1L318.5 417.8ZM317 403.9 321.2 410.6 319.3 411.8 315.2 405.1 317 403.9 317 403.9ZM308.5 409.3 308.5 409.3 310.3 412.5 308.5 409.3 308.5 409.3Z" fill="#7823DC" fill-rule="evenodd" clip-rule="evenodd"/></g><g><path d="" fill="#7823DC" fill-rule="evenodd" clip-rule="evenodd"/><path d="M-38.1 28.4-38.1 28.4-38.1 28.4-38.8 26.5" fill="#7823DC" fill-rule="evenodd" clip-rule="evenodd"/></g><path d="M14.1 8.2C11.9 8.2 10 6.3 10 4.1 10 1.8 11.8 0 14.1 0 16.3 0 18.2 1.9 18.2 4.1 18.2 6.4 16.4 8.2 14.1 8.2L14.1 8.2 14.1 8.2 14.1 8.2ZM14.1 2C13 2 12 2.9 12 4.1 12 5.3 12.9 6.2 14.1 6.2 15.2 6.2 16.2 5.3 16.2 4.1 16.2 3 15.3 2 14.1 2L14.1 2 14.1 2 14.1 2Z" fill="#7823DC" fill-rule="evenodd" clip-rule="evenodd"/><g><path d="M31.3 28.6 32 26.7 24.3 23.8 20.5 19.1 16.2 9.9 14.4 10.7 18.8 20.2 23 25.5 31.3 28.6 31.3 28.6Z" fill="#7823DC" fill-rule="evenodd" clip-rule="evenodd"/><path d="M14 32 14.7 24 23.4 19.3 17.9 9.2 16.1 10.2 20.7 18.5 12.8 22.7 12 31.8 14 32 14 32Z" fill="#7823DC" fill-rule="evenodd" clip-rule="evenodd"/></g><path d="M9.8 17.6 9.3 15.7 12.6 14.8 13.3 10.1 17.7 8.4 18.4 10.2 15.1 11.6 14.3 16.4Z" fill="#7823DC"/><rect x="2.8" y="21" width="12.4" height="2" fill="#7823DC" transform="matrix(0.2051 -0.9787 0.9787 0.2051 -14.335 26.3135)"/><path d="M4.5 28.4C5.9 28.4 6.8 28.9 7 29.2 6.8 29.5 5.9 30 4.5 30 3.1 30 2.2 29.5 2 29.2 2.2 28.9 3.1 28.4 4.5 28.4M4.5 26.4C2 26.4 0 27.7 0 29.2 0 30.8 2 32 4.5 32 7 32 9 30.8 9 29.2 9 27.7 7 26.4 4.5 26.4L4.5 26.4Z" fill="#7823DC"/><path d="M20.5 9.3 22.7 14.1 21.2 14.8 19 9.9 20.5 9.3M21.5 6.6 16.4 8.9 20.2 17.4 25.3 15.1 21.5 6.6 21.5 6.6Z" fill="#7823DC"/></svg>