<svg viewBox="0 0 32 32" xmlns="http://www.w3.org/2000/svg" xmlns:xlink="http://www.w3.org/1999/xlink" overflow="hidden"><defs></defs><g id="Layer_3"><path d="M16 2.1097 18.18 2.8397C19.5602 3.2986 21.0055 3.5316 22.46 3.5297 23.5654 3.52735 24.6665 3.39307 25.74 3.1297L28 2.5597C28 6.5597 27.81 15.7697 27.06 18.7297 25.74 23.9997 22 26.7797 16 29.6597 10 26.7797 6.26 23.9997 4.94 18.7297 4.19 15.7697 4 6.5397 4 2.5597L6.26 3.1297C7.33352 3.39307 8.43465 3.52735 9.54 3.5297 10.9945 3.5316 12.4398 3.2986 13.82 2.8397L16 2.1097M30-0.0003 25.26 1.1897C24.3441 1.4171 23.4037 1.53129 22.46 1.5297 21.223 1.52821 19.9942 1.32903 18.82 0.9397L16-0.0003 13.18 0.9397C12.0058 1.32903 10.777 1.52821 9.54 1.5297 8.59628 1.53129 7.65592 1.4171 6.74 1.1897L2-0.0003 2 1.9997C2 1.9997 2 15.1797 3 19.2197 4.65 25.7697 9.52 28.8197 15.66 31.7097L16 31.9997 16.34 31.7097C22.48 28.8197 27.34 25.7697 29 19.2197 30 15.1797 30 1.9997 30 1.9997Z" fill="#7823DC"/><path d="M16.007 24.911 14.96 23.863 12.865 25.958 13.912 27.006 16.007 24.911 16.007 24.911Z" fill="#7823DC"/><path d="M16.007 24.911 17.055 23.863 19.15 25.958 18.102 27.006 16.007 24.911 16.007 24.911Z" fill="#7823DC"/><path d="M16.007 27.006 17.055 28.053 19.15 25.958 18.102 24.911 16.007 27.006 16.007 27.006Z" fill="#7823DC"/><path d="M16.007 27.006 14.96 28.053 12.865 25.958 13.912 24.911 16.007 27.006 16.007 27.006Z" fill="#7823DC"/><path d="M16.0068 22.5192C13.0445 22.519 10.6433 20.1173 10.6435 17.155 10.6438 14.1927 13.0455 11.7914 16.0078 11.7917 18.9698 11.792 21.3708 14.193 21.3711 17.155 21.3679 20.1163 18.9681 22.5161 16.0068 22.5192ZM16.0068 13.7917C14.1491 13.792 12.6433 15.2982 12.6435 17.156 12.6438 19.0137 14.15 20.5195 16.0078 20.5192 17.8656 20.519 19.3713 19.0128 19.3711 17.155 19.369 15.298 17.8638 13.7933 16.0068 13.7917Z" fill="#7823DC"/><rect x="13.0253" y="22.3528" width="1.48764" height="2.39511" fill="#7823DC" transform="matrix(0.786664 -0.617382 0.617382 0.786664 -11.6021 13.5249)"/><rect x="17.0386" y="22.8071" width="2.38499" height="1.48136" fill="#7823DC" transform="matrix(0.618546 -0.785749 0.785749 0.618546 -11.5483 23.3075)"/><rect x="7.58947" y="23.3489" width="6.64025" height="2" fill="#7823DC" transform="matrix(0.923626 -0.383295 0.383295 0.923626 -8.49959 6.04121)"/><rect x="15.9104" y="27.5029" width="2.99417" height="2" fill="#7823DC" transform="matrix(6.12323e-17 1 -1 6.12323e-17 45.9104 11.0954)"/><rect x="13.1023" y="27.5029" width="2.99417" height="2" fill="#7823DC" transform="matrix(6.12323e-17 1 -1 6.12323e-17 43.1023 13.9035)"/><rect x="17.7715" y="23.3487" width="6.63919" height="2" fill="#7823DC" transform="matrix(-0.923626 -0.383295 0.383295 -0.923626 31.2386 54.9219)"/><rect x="16.2755" y="24.247" width="2.9721" height="2" fill="#7823DC" transform="matrix(-0.699778 -0.71436 0.71436 -0.699778 12.1552 55.6025)"/><rect x="16.2015" y="25.4874" width="3.47858" height="2" fill="#7823DC" transform="matrix(0.707941 -0.706271 0.706271 0.707941 -13.4675 20.407)"/><rect x="12.7629" y="24.247" width="2.9721" height="2" fill="#7823DC" transform="matrix(0.699778 -0.71436 0.71436 0.699778 -13.7576 17.7586)"/><rect x="12.3304" y="25.4874" width="3.47858" height="2" fill="#7823DC" transform="matrix(-0.707941 -0.706271 0.706271 -0.707941 5.32294 55.1759)"/><path d="M24.4298 4.51333 22.4298 4.51333 22.4298 5.42333C21.1244 5.48057 20.0853 6.53715 20.0498 7.84333 20.0498 9.29333 20.7698 10.0033 22.4298 10.3233L22.4298 11.8833C22.1424 11.6767 21.9684 11.3472 21.9598 10.9933L19.8698 10.9933C19.9 12.4046 21.0197 13.5504 22.4298 13.6133L22.4298 14.5133 24.4298 14.5133 24.4298 13.6233C25.8602 13.6124 27.0109 12.444 26.9999 11.0136L26.9998 11.0033C26.9998 9.46333 25.9998 8.85333 24.4298 8.58333L24.4298 7.09333C24.6718 7.25583 24.8235 7.52235 24.8398 7.81333L26.8898 7.81333C26.8369 6.48717 25.7569 5.43351 24.4298 5.41333ZM22.4298 8.25333C22.2024 8.15453 22.0649 7.92004 22.0898 7.67333 22.0924 7.43602 22.2222 7.21838 22.4298 7.10333ZM24.4298 11.9633 24.4298 10.6433C24.7159 10.7023 24.9157 10.9617 24.8998 11.2533 24.9002 11.563 24.715 11.8427 24.4298 11.9633Z" fill="#7823DC"/></g></svg>