<svg viewBox="0 0 32 32" xmlns="http://www.w3.org/2000/svg" xmlns:xlink="http://www.w3.org/1999/xlink" id="Graphic" overflow="hidden"><defs></defs><rect x="15" y="8.5" width="2" height="7.5" fill="#7823DC"/><path d="M16 14C14.8954 14 14 14.8954 14 16 14 17.1046 14.8954 18 16 18 17.1046 18 18 17.1046 18 16 18 14.8954 17.1046 14 16 14Z" fill="#7823DC"/><path d="M16 32C7.16344 32 0 24.8366 0 16-3.55271e-15 7.16344 7.16344-1.77636e-15 16-1.77636e-15 24.8366-5.32907e-15 32 7.16344 32 16 31.9899 24.8324 24.8324 31.9899 16 32ZM16 2C8.26801 2 2 8.26801 2 16 2 23.732 8.26801 30 16 30 23.732 30 30 23.732 30 16 29.9913 8.2716 23.7284 2.00866 16 2Z" fill="#7823DC"/><rect x="3.5" y="15" width="3.5" height="2" fill="#7823DC"/><rect x="4.94033" y="20.3748" width="3.49972" height="2.00032" fill="#7823DC" transform="matrix(0.866072 -0.49992 0.49992 0.866072 -9.78978 6.20727)"/><rect x="24.3097" y="19.6251" width="2.00032" height="3.49972" fill="#7823DC" transform="matrix(0.500041 -0.866002 0.866002 0.500041 -5.85691 32.605)"/><rect x="25" y="15" width="3.5" height="2" fill="#7823DC"/><rect x="23.56" y="9.62484" width="3.49972" height="2.00032" fill="#7823DC" transform="matrix(0.866072 -0.49992 0.49992 0.866072 -1.92195 14.0759)"/><rect x="19.6251" y="5.69002" width="3.49972" height="2.00032" fill="#7823DC" transform="matrix(0.49992 -0.866072 0.866072 0.49992 4.89504 21.8579)"/><rect x="15" y="3.5" width="2" height="3.5" fill="#7823DC"/><rect x="9.62484" y="4.94033" width="2.00032" height="3.49972" fill="#7823DC" transform="matrix(0.866002 -0.500041 0.500041 0.866002 -1.92164 6.2094)"/><rect x="5.69002" y="8.87514" width="2.00032" height="3.49972" fill="#7823DC" transform="matrix(0.500041 -0.866002 0.866002 0.500041 -5.85645 11.1058)"/></svg>