<svg viewBox="0 0 32 32" xmlns="http://www.w3.org/2000/svg" xmlns:xlink="http://www.w3.org/1999/xlink" id="Layer_1" overflow="hidden"><style>
.MsftOfcResponsive_Fill_7823dc {
 fill:#7823DC; 
}
</style>
<defs></defs><path d="M29.19 20.37 17 20.37 17 18 24.44 18C25.11 18.01 25.75 18.01 26.29 18L26.93 18C29.77 18 31.99 15.86 31.99 13.13 31.99 11.2 30.84 9.49 29.11 8.69 29.16 8.41 29.18 8.14 29.18 7.86 29.18 5.15 26.89 2.94 24.08 2.94 23.63 2.94 23.2 3 22.78 3.11 21.31 1.18 18.94-2.22045e-15 16.41-2.22045e-15 13.24-2.22045e-15 10.39 1.84 9.16 4.59 8.8 4.51 8.42 4.47 8.04 4.47 5.5 4.47 3.38 6.28 3.01 8.64 1.21 9.42 0.01 11.18 0.01 13.13 0.01 15.81 2.32 17.99 5.16 17.99 5.35 17.99 5.48 17.99 5.62 17.99 5.76 17.99 5.9 17.99 6.08 17.99 6.29 17.99 6.57 17.99 6.97 17.96L15 17.96 15 20.34 3.04 20.34 3.04 25.88 1.02 25.88 1.02 31.98 7 31.98 7 25.88 5.03 25.88 5.03 22.34 11 22.34 11 25.88 9.01 25.88 9.01 31.98 14.99 31.98 14.99 25.88 13 25.88 13 22.34 18.99 22.34 18.99 25.88 17 25.88 17 31.98 22.98 31.98 22.98 25.88 20.99 25.88 20.99 22.34 27.19 22.34 27.19 25.88 24.99 25.88 24.99 31.98 30.97 31.98 30.97 25.88 29.18 25.88 29.18 20.34ZM6.94 15.98 6.89 15.98C6.21 16.01 5.94 16 5.67 16 5.52 16 5.37 16 5.15 16 3.41 16 2 14.72 2 13.14 2 11.85 2.91 10.7 4.21 10.34L4.94 10.14 4.94 9.39C4.96 7.79 6.35 6.48 8.04 6.48 8.51 6.48 8.95 6.57 9.34 6.76L10.4 7.25 10.72 6.13C11.42 3.7 13.76 2.01 16.41 2.01 18.52 2.01 20.49 3.09 21.53 4.83L21.99 5.59 22.8 5.23C23.2 5.05 23.64 4.96 24.09 4.96 25.8 4.96 27.19 6.27 27.19 7.88 27.19 8.25 27.12 8.61 26.97 8.97L26.53 10.05 27.67 10.32C29.04 10.64 30 11.8 30 13.15 30 14.76 28.66 16.01 26.94 16.01L26.28 16.01C25.75 16.01 25.12 16.01 24.46 16.01L6.94 15.99ZM5 30 3.02 30 3.02 27.9 5 27.9 5 30ZM12.99 30 11.01 30 11.01 27.9 12.99 27.9 12.99 30ZM20.98 30 19 30 19 27.9 20.98 27.9 20.98 30ZM28.97 30 26.99 30 26.99 27.9 28.97 27.9 28.97 30Z" class="MsftOfcResponsive_Fill_7823dc" fill="#7823DC"/><path d="M10.15 12.55 9.84 12.55C9.09 12.55 8.48 12.01 8.48 11.35 8.48 10.81 8.87 10.33 9.42 10.18L8.89 8.25C7.47 8.64 6.48 9.92 6.48 11.35 6.48 13.11 7.99 14.54 9.84 14.54L10.09 14.54C10.18 14.54 10.26 14.54 10.37 14.54 10.49 14.54 10.64 14.54 10.86 14.53L20 14.53 20 12.54 10.81 12.54C10.44 12.55 10.3 12.54 10.15 12.54Z" class="MsftOfcResponsive_Fill_7823dc" fill="#7823DC"/><path d="M16.24 5.46C17.03 5.46 17.76 5.75 18.31 6.28L19.69 4.83C18.77 3.95 17.54 3.46 16.23 3.46 14.6 3.46 13.08 4.23 12.17 5.53L13.8 6.68C14.34 5.91 15.25 5.45 16.23 5.45Z" class="MsftOfcResponsive_Fill_7823dc" fill="#7823DC"/></svg>