<svg viewBox="0 0 32 32" xmlns="http://www.w3.org/2000/svg" xmlns:xlink="http://www.w3.org/1999/xlink" id="Layer_5" overflow="hidden"><defs></defs><path d="M17.58 22.12 17.58 19.76C17.99 19.96 18.23 20.3 18.35 20.82L18.46 21.33 20.47 21.33 20.35 20.57C20.1 19.04 19.13 18.05 17.59 17.75L17.59 16.83 15.59 16.83 15.59 17.73C13.95 18.06 12.85 19.23 12.85 20.73 12.85 22.56 13.93 23.29 15.59 23.71L15.59 26.45C15.01 26.21 14.67 25.73 14.56 25.02L14.48 24.47 12.48 24.47 12.55 25.18C12.72 26.9 13.84 28.09 15.59 28.45L15.59 29.37 17.59 29.37 17.59 28.5C19.46 28.22 20.64 26.99 20.64 25.25 20.64 23.1 19.2 22.47 17.59 22.12ZM17.58 26.56 17.58 24.16C18.49 24.44 18.61 24.76 18.61 25.32 18.61 25.96 18.27 26.38 17.58 26.56ZM15.58 19.71 15.58 21.66C14.88 21.4 14.82 21.1 14.82 20.7 14.82 20.19 15.15 19.88 15.58 19.71Z" stroke-width="0" fill="#7823DC"/><path d="M26.82 14.06 26.82 12.02 26.82 12.02C26.82 6.46 22.11 2.04 16.46 2.04 10.81 2.04 6.22 6.46 6.22 12.13L6.22 14.06 2.1 14.06 2.1 32.09 26.82 32.09 28.94 30.05 4.22 30.05 4.22 15.99 28.94 15.99 28.94 29.94 31.06 27.9 31.06 14.07 26.82 14.07ZM24.7 14.06 8.22 14.06 8.22 12.02C8.22 7.6 11.99 4.08 16.46 4.08 20.93 4.08 24.7 7.71 24.7 12.02L24.7 14.06 24.7 14.06Z" stroke-width="0" fill="#7823DC"/></svg>