<svg viewBox="0 0 32 32" xmlns="http://www.w3.org/2000/svg" xmlns:xlink="http://www.w3.org/1999/xlink" id="Layer_1" xml:space="preserve" overflow="hidden"><style>
.MsftOfcResponsive_Fill_7823dc {
 fill:#7823DC; 
}
</style>
<path d="M29.8 12 29.8 11.9C29.7 11.3 29.5 10.8 29.3 10.2L29.3 10.1C29.2 9.8 29.1 9.5 29 9.3 26.6 3.8 21.3 0 15.1 0 6.8 0 0 6.9 0 15.5 0 20.9 2.7 25.7 6.9 28.5L8.1 26.9C4.4 24.5 2 20.2 2 15.5 2 8 7.9 2 15.1 2 20.7 2 25.6 5.7 27.4 10.8 27.4 10.9 27.5 11 27.5 11.2 27.6 11.6 27.7 12 27.8 12.4L27.8 12.5C28.4 14.7 29 17.4 29.4 19.3 29.4 19.5 29.5 19.7 29.5 19.8 29.5 19.6 29.6 19.4 29.6 19.3 29.9 18.1 30.1 16.8 30.1 15.5 30.2 14.3 30.1 13.1 29.8 12Z" class="MsftOfcResponsive_Fill_7823dc" fill="#7823DC"/><path d="M32 22.3 26.4 22.3 26.4 32 17 32 17 30 24.3 30 24.3 20.3 29.5 20.3C29.5 20.1 29.4 19.9 29.4 19.7 29 17.8 28.3 14.6 27.7 12.2L27.7 12.1C27.6 11.7 27.5 11.3 27.4 10.9 27.4 10.8 27.3 10.6 27.3 10.5 27.2 10.2 27.1 9.8 27 9.6L28.8 8.9 28.8 9.9C28.9 10.2 29 9.5 29.1 9.8L29.1 9.9C29.3 10.4 29.4 11 29.6 11.6L29.6 11.7C30.6 15.5 31.6 20.9 31.7 21.2L32 22.3Z" class="MsftOfcResponsive_Fill_7823dc" fill="#7823DC"/><g><path d="M14.9 19.4C12.4 19.4 10.4 17.3 10.4 14.8 10.4 12.3 12.5 10.2 14.9 10.2 17.4 10.2 19.4 12.3 19.4 14.8 19.5 17.3 17.4 19.4 14.9 19.4L14.9 19.4ZM14.9 12.2C13.5 12.2 12.3 13.4 12.3 14.8 12.3 16.2 13.5 17.4 14.9 17.4 16.3 17.4 17.5 16.2 17.5 14.8 17.5 13.4 16.3 12.2 14.9 12.2L14.9 12.2Z" class="MsftOfcResponsive_Fill_7823dc" fill="#7823DC" fill-rule="evenodd" clip-rule="evenodd"/><path d="M13.9 5.9 15.9 5.9 15.9 9.4 13.9 9.4 13.9 5.9Z" class="MsftOfcResponsive_Fill_7823dc" fill="#7823DC" fill-rule="evenodd" clip-rule="evenodd"/><path d="M13.9 20.2 15.9 20.2 15.9 23.7 13.9 23.7 13.9 20.2Z" class="MsftOfcResponsive_Fill_7823dc" fill="#7823DC" fill-rule="evenodd" clip-rule="evenodd"/><path d="M6 13.8 9.6 13.8 9.6 15.8 6 15.8 6 13.8Z" class="MsftOfcResponsive_Fill_7823dc" fill="#7823DC" fill-rule="evenodd" clip-rule="evenodd"/><path d="M20.3 13.8 23.9 13.8 23.9 15.8 20.3 15.8 20.3 13.8Z" class="MsftOfcResponsive_Fill_7823dc" fill="#7823DC" fill-rule="evenodd" clip-rule="evenodd"/><path d="M7.9 20.5 10.4 17.9 11.8 19.3 9.3 21.9 7.9 20.5Z" class="MsftOfcResponsive_Fill_7823dc" fill="#7823DC" fill-rule="evenodd" clip-rule="evenodd"/><path d="M22 20.5 19.4 17.9 18 19.3 20.6 21.9 22 20.5Z" class="MsftOfcResponsive_Fill_7823dc" fill="#7823DC" fill-rule="evenodd" clip-rule="evenodd"/><path d="M18 10.3 20.5 7.8 21.9 9.2 19.4 11.7 18 10.3Z" class="MsftOfcResponsive_Fill_7823dc" fill="#7823DC" fill-rule="evenodd" clip-rule="evenodd"/><path d="M7.9 9.2 9.3 7.8 11.8 10.3 10.4 11.7 7.9 9.2Z" class="MsftOfcResponsive_Fill_7823dc" fill="#7823DC" fill-rule="evenodd" clip-rule="evenodd"/></g></svg>