<svg width="32" height="31.87" viewBox="0 0 32 31.87" xmlns="http://www.w3.org/2000/svg" xmlns:xlink="http://www.w3.org/1999/xlink" overflow="hidden"><defs></defs><g><path d="M19.91 31.87 15.91 29.6 16.57 26.27C16.51 26.17 16.45 26.06 16.39 25.96L13.17 24.91 13.14 20.31 16.35 19.22C16.38 19.17 16.41 19.11 16.44 19.06 16.47 19.01 16.5 18.95 16.53 18.9L15.83 15.59 19.8 13.26 22.35 15.5C22.47 15.5 22.59 15.5 22.71 15.5L25.23 13.23 29.23 15.5 28.57 18.83C28.63 18.93 28.7 19.04 28.75 19.14L31.97 20.19 32 24.79 28.79 25.88C28.76 25.93 28.73 25.99 28.7 26.04L28.7 26.04C28.67 26.09 28.64 26.15 28.61 26.2L29.31 29.51 25.34 31.83 22.79 29.59C22.67 29.59 22.55 29.59 22.43 29.59L19.91 31.87ZM18.16 28.57 19.65 29.42 21.73 27.55 22.16 27.59C22.46 27.61 22.76 27.61 23.06 27.59L23.49 27.55 25.59 29.39 27.07 28.52 26.49 25.79 26.73 25.44C26.81 25.32 26.9 25.19 26.97 25.06 27.04 24.93 27.11 24.79 27.17 24.66L27.35 24.27 29.99 23.37 29.98 21.66 27.33 20.79 27.15 20.4C27.03 20.14 26.87 19.88 26.7 19.63L26.45 19.28 26.99 16.54 25.5 15.69 23.42 17.56 22.99 17.52C22.69 17.49 22.39 17.5 22.1 17.52L21.67 17.56 19.57 15.72 18.09 16.59 18.67 19.32 18.42 19.68C18.34 19.8 18.25 19.92 18.18 20.05 18.1 20.18 18.04 20.32 17.98 20.45L17.8 20.84 15.16 21.74 15.17 23.45 17.83 24.32 18 24.71C18.12 24.97 18.27 25.23 18.45 25.48L18.7 25.83 18.16 28.57Z" fill="#7823DC"/></g><g><path d="M5.73 18.65 2.3 16.67 2.88 13.84C2.83 13.76 2.79 13.69 2.75 13.61L0 12.7 0 8.74 2.73 7.83C2.75 7.79 2.78 7.75 2.8 7.71 2.82 7.67 2.84 7.63 2.87 7.6L2.29 4.77 5.72 2.79 7.88 4.7C7.96 4.7 8.05 4.7 8.14 4.7L10.3 2.79 13.73 4.77 13.16 7.6C13.2 7.67 13.25 7.75 13.29 7.83L16.03 8.74 16.03 12.7 13.3 13.61C13.28 13.65 13.26 13.69 13.23 13.73L13.23 13.74C13.21 13.78 13.19 13.82 13.16 13.85L13.74 16.67 10.31 18.65 8.15 16.74C8.06 16.74 7.98 16.74 7.89 16.74L5.73 18.65ZM4.31 15.76 5.5 16.44 7.25 14.88 7.64 14.91C7.89 14.93 8.14 14.93 8.39 14.91L8.78 14.88 10.53 16.43 11.72 15.74 11.25 13.44 11.47 13.12C11.54 13.02 11.61 12.91 11.67 12.81 11.73 12.7 11.79 12.59 11.84 12.48L12 12.15 14.22 11.41 14.22 10.04 12 9.29 11.84 8.94C11.74 8.72 11.61 8.5 11.46 8.29L11.24 7.97 11.71 5.67 10.53 5 8.77 6.55 8.39 6.52C8.14 6.5 7.88 6.5 7.64 6.52L7.25 6.55 5.5 5 4.31 5.68 4.78 7.97 4.56 8.29C4.49 8.39 4.42 8.49 4.36 8.6 4.29 8.72 4.24 8.83 4.19 8.95L4.02 9.3 1.8 10.04 1.8 11.41 4.02 12.15 4.18 12.5C4.28 12.72 4.41 12.94 4.55 13.14L4.77 13.46 4.31 15.76Z" fill="#7823DC"/></g><g><path d="M23.03 4.84C22.87 4.84 22.7 4.88 22.55 4.97 22.08 5.24 21.91 5.84 22.18 6.31 22.36 6.63 22.69 6.81 23.04 6.81 23.2 6.81 23.37 6.77 23.52 6.68 23.99 6.41 24.16 5.81 23.89 5.34 23.71 5.02 23.38 4.84 23.03 4.84L23.03 4.84Z" fill="#7823DC"/></g><g><path d="M23.38 11.66 22.21 10.14 20.56 11.12 18.16 9.04 18.89 7.27 17.22 6.33 17.82 3.21 19.72 2.96 19.7 1.04 22.7 1.77636e-15 23.87 1.52 25.52 0.54 27.92 2.62 27.19 4.39 28.86 5.33 28.26 8.45 26.36 8.7 26.38 10.62 23.38 11.66ZM21.98 7.95 22.4 8.07C22.53 8.11 22.67 8.13 22.81 8.15L23.24 8.19 24.09 9.3 24.36 9.21 24.34 7.81 24.65 7.51C24.75 7.41 24.84 7.31 24.92 7.2L25.17 6.85 26.56 6.67 26.61 6.38 25.39 5.69 25.29 5.27C25.27 5.21 25.26 5.14 25.23 5.08 25.21 5 25.18 4.94 25.15 4.88L24.97 4.49 25.51 3.19 25.29 3 24.08 3.72 23.66 3.6C23.53 3.56 23.4 3.54 23.26 3.52L22.83 3.48 21.97 2.37 21.7 2.46 21.72 3.86 21.41 4.16C21.31 4.25 21.22 4.36 21.14 4.47L20.9 4.82 19.51 5 19.46 5.29 20.68 5.98 20.78 6.4C20.8 6.47 20.81 6.53 20.84 6.6 20.86 6.66 20.89 6.73 20.92 6.79L21.09 7.18 20.56 8.47 20.78 8.66 21.98 7.95Z" fill="#7823DC"/></g><g><path d="M23.43 19.91 20.91 22.89 20.04 21.92 17.33 21.92 20.94 25.92 26.05 19.91Z" fill="#7823DC"/></g><g><path d="" stroke="#7823DC" stroke-width="2" stroke-linecap="round" stroke-linejoin="round" stroke-miterlimit="10" fill="#7823DC"/></g><g><g><circle cx="8.03" cy="8.88" r="1" fill="#7823DC"/></g><g><path d="M6.82 10.33 5.77 13.12 10.22 13.16 9.21 10.35 8.57 10.53 7.46 10.52 6.82 10.33Z" fill="#7823DC"/></g></g></svg>