<svg width="36.5" height="36.6" viewBox="0 0 36.5 36.6" xmlns="http://www.w3.org/2000/svg" xmlns:xlink="http://www.w3.org/1999/xlink" overflow="hidden"><defs></defs><g><g><defs><path d="M0 36.5 36.5 36.5 36.5 0 0 0 0 36.5Z" id="SVGID_1_" fill="#7823DC"/></defs><clipPath id="SVGID_2_"><use width="100%" height="100%" xlink:href="#SVGID_1_"></use></clipPath><g clip-path="url(#SVGID_2_)"><defs><path d="M0 36.5 36.5 36.5 36.5 0 0 0 0 36.5Z" id="SVGID_3_" fill="#7823DC"/></defs><clipPath id="SVGID_4_"><use width="100%" height="100%" xlink:href="#SVGID_3_"></use></clipPath><path d="M18.2 29.7 18.2 32 22.8 32 22.8 29.7 18.2 29.7 18.2 29.7 18.2 29.7Z" fill="#7823DC" clip-path="url(#SVGID_4_)"/><path d="M18.2 25.1 18.2 27.4 22.8 27.4 22.8 25.1 18.2 25.1 18.2 25.1 18.2 25.1Z" fill="#7823DC" clip-path="url(#SVGID_4_)"/><path d="M18.2 20.6 18.2 22.9 22.8 22.9 22.8 20.6 18.2 20.6 18.2 20.6 18.2 20.6Z" fill="#7823DC" clip-path="url(#SVGID_4_)"/><path d="M18.2 36.6C14.4 36.6 11.4 33.5 11.4 29.7L11.4 5.7 13.7 5.7 13.7 29.7C13.7 32.2 15.7 34.3 18.3 34.3 20.9 34.3 22.9 32.2 22.9 29.7L22.9 5.7 25.2 5.7 25.2 29.7C25.1 33.5 22 36.6 18.2 36.6Z" fill="#7823DC" clip-path="url(#SVGID_4_)"/><path d="M28.3 0.5C28.1 0.2 27.7 0 27.3 0L13.3 0 11 2.3 25.6 2.3 24.5 4.6 12.1 4.6 11 2.3 9.3 4 10.7 6.9 25.1 6.9C25.5 6.9 25.9 6.7 26.1 6.3L28.4 1.7C28.6 1.3 28.5 0.9 28.3 0.5L28.3 0.5Z" fill="#7823DC" clip-path="url(#SVGID_4_)"/></g></g></g></svg>