<svg viewBox="0 0 32 32" xmlns="http://www.w3.org/2000/svg" xmlns:xlink="http://www.w3.org/1999/xlink" overflow="hidden"><defs></defs><g id="Layer_3"><rect x="9.99286" y="6.00062" width="2" height="2" fill="#7823DC" transform="matrix(0.707107 -0.707107 0.707107 0.707107 -1.73045 9.82356)"/><rect x="14.9929" y="8.00062" width="2" height="2" fill="#7823DC" transform="matrix(0.707107 -0.707107 0.707107 0.707107 -1.6802 13.9449)"/><rect x="19.9929" y="6.00062" width="2" height="2" fill="#7823DC" transform="matrix(0.707107 -0.707107 0.707107 0.707107 1.19848 16.8946)"/><path d="M19.4128 24.0006 20.1428 23.0006 27.1928 23.0006C28.7367 23.0032 29.9903 21.7537 29.9928 20.2098 29.9928 20.2067 29.9928 20.2036 29.9928 20.2006L29.9928 17.8007C29.9954 16.2568 28.7459 15.0032 27.2021 15.0006 27.199 15.0006 27.1959 15.0006 27.1928 15.0006L4.79284 15.0006C3.24898 14.9981 1.99538 16.2476 1.99284 17.7914 1.99283 17.7945 1.99283 17.7976 1.99284 17.8007L1.99284 20.2006C1.99028 21.7444 3.23974 22.9981 4.7836 23.0006 4.78668 23.0006 4.78976 23.0006 4.79284 23.0006L11.8428 23.0006 12.5729 24.0006-0.00711 24.0006-0.00711 29.2606C-0.00481915 30.7729 1.22058 31.9983 2.73289 32.0006L29.2529 32.0006C30.7652 31.9983 31.9906 30.7729 31.9929 29.2606L31.9929 24.0006ZM27.1928 17.0006C27.6341 17.0019 27.9916 17.3593 27.9928 17.8006L27.9928 20.2005C27.9916 20.6418 27.6342 20.9993 27.1928 21.0006L21.5928 21.0006 24.5028 17.0006ZM4.79284 21.0006C4.35152 20.9993 3.99409 20.6419 3.99284 20.2006L3.99284 17.8007C3.99413 17.3594 4.35155 17.002 4.79284 17.0007L7.48284 17.0007 10.3928 21.0007ZM14.3128 23.0006 9.96284 17.0006 22.0229 17.0006 17.6729 23.0006 16.9429 24.0006 15.9929 25.3006 15.0429 24.0006ZM29.9928 29.2606C29.9937 29.6684 29.6639 29.9997 29.2561 30.0006 29.255 30.0006 29.2539 30.0006 29.2528 30.0006L2.73284 30.0006C2.32505 30.0015 1.99374 29.6717 1.99284 29.2639 1.99284 29.2628 1.99284 29.2617 1.99284 29.2606L1.99284 26.0006 14.0328 26.0006 15.9928 28.7006 17.9528 26.0006 29.9928 26.0006Z" fill="#7823DC"/><path d="M2.01288 14.0006 31.9629 14.0006C31.9702 13.8334 31.9929 13.6693 31.9929 13.5006 31.9929 6.06068 24.8129 0.00062 15.9929 0.00062 7.17288 0.00062-0.00712 6.06068-0.00712 13.5006-0.00712 13.6693 0.01558 13.8334 0.02288 14.0006ZM15.9929 2.00062C23.0929 2.00062 28.9729 6.36062 29.8729 12.0006L2.11288 12.0006C3.01288 6.36061 8.89288 2.00062 15.9929 2.00062Z" fill="#7823DC"/></g></svg>