<svg viewBox="0 0 32 32" xmlns="http://www.w3.org/2000/svg" xmlns:xlink="http://www.w3.org/1999/xlink" id="Space" overflow="hidden"><defs></defs><path d="M-0.08 32 0 32 0 31.84-0.08 32Z" fill="#7823DC"/><path d="M19.17 22.44C21.07 19.84 21.22 16.07 19.64 11.25 21.3 11.2 22.77 10.37 23.69 9.12L29.65 7.48 24.55 4.7C23.97 2.43 21.92 0.74 19.47 0.74 17.7 0.74 16.13 1.63 15.18 2.97L14.85 3.53C14.77 3.69 14.67 3.83 14.6 4L0 31.84 0 32 8.07 32 11.23 26.01C11.57 26.01 12.04 25.98 12.57 25.91L14.01 32.01 16.07 32.01 14.54 25.52C14.85 25.43 15.17 25.33 15.49 25.2L17.58 32.02 19.67 32.02 17.29 24.26C17.98 23.79 18.63 23.2 19.18 22.45ZM16.43 4.81 16.77 4.16C17.36 3.3 18.35 2.74 19.46 2.74 21.26 2.74 22.73 4.21 22.73 6.01 22.73 7.81 21.26 9.28 19.46 9.28 17.66 9.28 16.19 7.81 16.19 6.01 16.19 5.59 16.28 5.19 16.42 4.82ZM10.69 24.01 10.05 23.97 6.86 30.01 3.22 30.01 14.68 8.16C15.22 9.35 16.18 10.31 17.38 10.83 19.11 15.51 19.18 19.02 17.56 21.25 15.38 24.24 10.73 24.01 10.69 24.01Z" fill="#7823DC"/><path d="M19.47 4.75C18.78 4.75 18.22 5.31 18.22 6 18.22 6.69 18.78 7.25 19.47 7.25 20.16 7.25 20.72 6.69 20.72 6 20.72 5.31 20.16 4.75 19.47 4.75Z" fill="#7823DC"/></svg>