<svg width="36.5" height="36.5" viewBox="0 0 36.5 36.5" xmlns="http://www.w3.org/2000/svg" xmlns:xlink="http://www.w3.org/1999/xlink" overflow="hidden"><defs></defs><g><g><defs><path d="M0 36.5 36.5 36.5 36.5 0 0 0 0 36.5Z" id="SVGID_1_" fill="#7823DC"/></defs><clipPath id="SVGID_2_"><use width="100%" height="100%" xlink:href="#SVGID_1_"></use></clipPath><g clip-path="url(#SVGID_2_)"><defs><path d="M0 36.5 36.5 36.5 36.5 0 0 0 0 36.5Z" id="SVGID_3_" fill="#7823DC"/></defs><clipPath id="SVGID_4_"><use width="100%" height="100%" xlink:href="#SVGID_3_"></use></clipPath><path d="M29 36.2 12.2 19.4 5.8 19.4 0 13.6 2.7 8.2 4.6 10.1 8.6 12.7 10.5 10.8 7.9 6.8 5.9 5 11.3 2.3 17.1 8.1 17.1 14.6 33.9 31.4 29 36.2ZM6.7 17.1 13.2 17.1 29 33 30.6 31.4 14.8 15.5 14.8 9 10.9 5.1 9.7 5.6 13.3 11.1 8.8 15.7 3.4 12 2.8 13.1 6.7 17.1Z" fill="#7823DC" clip-path="url(#SVGID_4_)"/><path d="M23.7 19.8 18.9 15 22.1 11.8 26.1 6 32 2.2 36.5 6.8 32.7 12.6 27 16.7 23.7 19.8ZM22.1 15 23.7 16.6 25.5 14.8 31 10.9 33.6 7 31.7 5.1 27.8 7.7 23.8 13.3 22.1 15Z" fill="#7823DC" clip-path="url(#SVGID_4_)"/><path d="M7.7 35.8 2.9 31 12.7 21.2 17.5 26 7.7 35.8ZM6.1 31 7.7 32.6 14.3 26 12.7 24.4 6.1 31Z" fill="#7823DC" clip-path="url(#SVGID_4_)"/></g></g></g></svg>