<svg viewBox="0 0 29.72 32.06" xmlns="http://www.w3.org/2000/svg" xmlns:xlink="http://www.w3.org/1999/xlink" xml:space="preserve" overflow="hidden"><style>
.MsftOfcResponsive_Fill_7823dc {
 fill:#7823DC; 
}
</style>
<g id="Layer_3"></g><g id="Layer_1"></g><g id="Layer_2"></g><g id="Layer_4"></g><g id="Layer_5"><path d="M14.86 28.38 4.96 19.77 9.29 19.77 9.29 3.08 20.43 3.08 20.43 19.77 24.76 19.77 14.86 28.38M14.86 30.84 14.86 30.84 29.72 17.91 22.29 17.91 22.29 1.22 7.43 1.22 7.43 17.91 0 17.91 14.86 30.84 14.86 30.84Z" class="st0 MsftOfcResponsive_Fill_7823dc" fill="#7823DC"/><g><path d="M18.52 18.23C18.16 17.87 17.67 17.69 17.06 17.69 16.66 17.69 16.3 17.77 15.99 17.94 15.67 18.11 15.44 18.36 15.29 18.67 15.15 18.97 15.07 19.3 15.07 19.63 15.07 19.96 15.14 20.29 15.29 20.59 15.44 20.91 15.68 21.15 15.99 21.32 16.3 21.49 16.66 21.57 17.06 21.57 17.67 21.57 18.16 21.39 18.52 21.03 18.88 20.67 19.06 20.2 19.06 19.62 19.06 19.07 18.88 18.59 18.52 18.23ZM17.33 19.65C17.33 20.03 17.26 20.21 17.2 20.29 17.18 20.32 17.15 20.34 17.07 20.34 16.98 20.34 16.96 20.31 16.94 20.29 16.88 20.21 16.81 20.03 16.81 19.64 16.81 19.26 16.88 19.08 16.94 18.99 16.96 18.96 16.98 18.94 17.06 18.94 17.14 18.94 17.17 18.97 17.19 18.99 17.26 19.09 17.33 19.27 17.33 19.65Z" class="st0 MsftOfcResponsive_Fill_7823dc" fill="#7823DC"/><path d="M13.88 17.57C14.24 17.21 14.42 16.74 14.42 16.16 14.42 15.58 14.24 15.11 13.88 14.75 13.52 14.4 13.03 14.22 12.43 14.22 12.02 14.22 11.66 14.3 11.36 14.47 11.05 14.64 10.81 14.89 10.66 15.2 10.51 15.5 10.44 15.82 10.44 16.16 10.44 16.5 10.51 16.83 10.66 17.12 10.81 17.44 11.05 17.68 11.36 17.85 11.66 18.02 12.02 18.1 12.43 18.1 13.03 18.11 13.52 17.93 13.88 17.57ZM12.17 16.17C12.17 15.79 12.24 15.61 12.3 15.53 12.32 15.5 12.35 15.48 12.43 15.48 12.51 15.48 12.54 15.51 12.55 15.53 12.61 15.62 12.68 15.8 12.68 16.18 12.68 16.56 12.61 16.74 12.55 16.83 12.53 16.86 12.51 16.88 12.43 16.88 12.35 16.88 12.32 16.85 12.3 16.82 12.24 16.73 12.17 16.55 12.17 16.17Z" class="st0 MsftOfcResponsive_Fill_7823dc" fill="#7823DC"/><path d="M16 14.22 12.02 21.6 13.51 21.6 17.5 14.22Z" class="st0 MsftOfcResponsive_Fill_7823dc" fill="#7823DC"/></g></g></svg>