<svg viewBox="0 0 32 32" xmlns="http://www.w3.org/2000/svg" xmlns:xlink="http://www.w3.org/1999/xlink" id="Layer_1" overflow="hidden"><style>
.MsftOfcResponsive_Fill_7823dc {
 fill:#7823DC; 
}
</style>
<path d="M24.5 18.8C27.6 18.8 30.1 21.3 30.1 24.4 30.1 27.5 27.6 30 24.5 30 21.4 30 18.9 27.5 18.9 24.4 18.9 21.3 21.4 18.8 24.5 18.8M24.5 16.8C20.3 16.8 16.9 20.2 16.9 24.4 16.9 28.6 20.3 32 24.5 32 28.7 32 32.1 28.6 32.1 24.4 32.1 20.2 28.7 16.8 24.5 16.8L24.5 16.8Z" class="MsftOfcResponsive_Fill_7823dc" fill="#7823DC"/><g><path d="M7.6 7.7C10.7 7.7 13.2 10.2 13.2 13.3 13.2 16.4 10.7 18.9 7.6 18.9 4.5 18.9 2 16.4 2 13.3 2 10.2 4.5 7.7 7.6 7.7M7.6 5.7C3.4 5.7 0 9.1 0 13.3 0 17.5 3.4 20.9 7.6 20.9 11.8 20.9 15.2 17.5 15.2 13.3 15.2 9.1 11.8 5.7 7.6 5.7L7.6 5.7Z" class="MsftOfcResponsive_Fill_7823dc" fill="#7823DC"/><rect x="6.6" y="19.9" width="2" height="12.1" class="MsftOfcResponsive_Fill_7823dc" fill="#7823DC"/><rect x="2.5" y="25.9" width="10.1" height="2" class="MsftOfcResponsive_Fill_7823dc" fill="#7823DC"/></g><rect x="23.5" y="6.7" width="2" height="12.1" class="MsftOfcResponsive_Fill_7823dc" fill="#7823DC"/><g><path d="M25.5 9.4 29.3 13.2 29.3 10.5 24.5 5.7 19.7 10.5 19.7 10.5 19.7 13.2 23.5 9.4" class="st0 MsftOfcResponsive_Fill_7823dc" fill="#7823DC" fill-rule="evenodd" clip-rule="evenodd"/></g><g><path d="M63.5 17.8C66.6 17.8 69.1 20.3 69.1 23.4 69.1 26.5 66.6 29 63.5 29 60.4 29 57.9 26.5 57.9 23.4 57.9 20.3 60.4 17.8 63.5 17.8M63.5 15.8C59.3 15.8 55.9 19.2 55.9 23.4 55.9 27.6 59.3 31 63.5 31 67.7 31 71.1 27.6 71.1 23.4 71.1 19.2 67.7 15.8 63.5 15.8L63.5 15.8Z" class="MsftOfcResponsive_Fill_7823dc" fill="#7823DC"/></g><g><g><path d="M46.6 6.7C49.7 6.7 52.2 9.2 52.2 12.3 52.2 15.4 49.7 17.9 46.6 17.9 43.5 17.9 41 15.4 41 12.3 41 9.2 43.5 6.7 46.6 6.7M46.6 4.7C42.4 4.7 39 8.1 39 12.3 39 16.5 42.4 19.9 46.6 19.9 50.8 19.9 54.2 16.5 54.2 12.3 54.2 8.1 50.8 4.7 46.6 4.7L46.6 4.7Z" class="MsftOfcResponsive_Fill_7823dc" fill="#7823DC"/></g><g><line x1="46.6" y1="18.9" x2="46.6" y2="31" class="st1" stroke="#000000" stroke-width="2" stroke-miterlimit="10" fill="none"/></g><line x1="41.5" y1="25.9" x2="51.6" y2="25.9" class="st1" stroke="#000000" stroke-width="2" stroke-miterlimit="10" fill="none"/></g><g><line x1="63.5" y1="5.7" x2="63.5" y2="17.9" class="st1" stroke="#000000" stroke-width="2" stroke-miterlimit="10" fill="none"/></g><g><path d="M64.5 8.4 68.3 12.2 68.3 9.5 63.5 4.7 58.7 9.5 58.7 9.5 58.7 12.2 62.5 8.4" class="st0 MsftOfcResponsive_Fill_7823dc" fill="#7823DC" fill-rule="evenodd" clip-rule="evenodd"/></g></svg>