<svg viewBox="0 0 32 32" xmlns="http://www.w3.org/2000/svg" xmlns:xlink="http://www.w3.org/1999/xlink" id="Layer_1" xml:space="preserve" overflow="hidden"><style>
.MsftOfcResponsive_Fill_7823dc {
 fill:#7823DC; 
}
</style>
<g id="Layer_2_00000153672027410828584440000004318808627006363015_"></g><g id="Layer_2_00000103981120671582451330000015814750687241510044_"></g><path d="M18.7 32 2.6 32 2.6 14.6 0 10 18.7 10 18.7 32ZM4.6 30 16.7 30 16.7 12 3.4 12 4.6 14.1 4.6 30Z" class="MsftOfcResponsive_Fill_7823dc" fill="#7823DC"/><g><rect x="4" y="16" width="4" height="2" class="MsftOfcResponsive_Fill_7823dc" fill="#7823DC"/><rect x="4" y="20" width="4" height="2" class="MsftOfcResponsive_Fill_7823dc" fill="#7823DC"/><rect x="4" y="24" width="4" height="2" class="MsftOfcResponsive_Fill_7823dc" fill="#7823DC"/></g><rect x="16.7" y="2.8" width="10" height="2" class="st0 MsftOfcResponsive_Fill_7823dc" fill="#7823DC" transform="matrix(0.7951 -0.6065 0.6065 0.7951 2.1175 13.9226)"/><path d="M32 14.7 32 11.4 23.9 0.8 18.2 5.2 32 23.3 32 20 21 5.6 23.5 3.7 32 14.7Z" class="st0 MsftOfcResponsive_Fill_7823dc" fill="#7823DC"/><rect x="23.9" y="9.2" width="6" height="2" class="st0 MsftOfcResponsive_Fill_7823dc" fill="#7823DC" transform="matrix(0.9968 -0.0804294 0.0804294 0.9968 -0.7362 2.1991)"/><path d="M13 3C13.6 3 14 3.4 14 4 14 4.6 13.6 5 13 5 12.4 5 12 4.6 12 4 12 3.4 12.4 3 13 3M13 1C11.3 1 10 2.3 10 4 10 5.7 11.3 7 13 7 14.7 7 16 5.7 16 4 16 2.3 14.7 1 13 1L13 1Z" class="MsftOfcResponsive_Fill_7823dc" fill="#7823DC"/><path d="M7 8C7.6 8 8 8.4 8 9 8 9.6 7.6 10 7 10 6.4 10 6 9.6 6 9 6 8.4 6.4 8 7 8L7 8ZM7 6C5.3 6 4 7.3 4 9 4 10.7 5.3 12 7 12 8.7 12 10 10.7 10 9 10 7.3 8.7 6 7 6L7 6Z" class="MsftOfcResponsive_Fill_7823dc" fill="#7823DC"/></svg>