<svg width="32" height="32.02" viewBox="0 0 32 32.02" xmlns="http://www.w3.org/2000/svg" xmlns:xlink="http://www.w3.org/1999/xlink" overflow="hidden"><defs></defs><g><rect x="1.17" y="4.02" width="15.82" height="2" fill="#7823DC"/></g><g><rect x="24.98" y="4.02" width="5.02" height="2" fill="#7823DC"/></g><g><path d="M30 2.02 30 26.07 30 28.05 30 30.02 27.96 30.02 2 30.02 2 2.02 30 2.02M32 0.02 0 0.02 0 32.02 27.96 32.02 32 28.05 32 26.07 32 0.02 32 0.02Z" fill="#7823DC"/></g><g><path d="" stroke="#7823DC" stroke-width="2" stroke-miterlimit="10" fill="#7823DC"/></g><g><path d="" stroke="#7823DC" stroke-width="2" stroke-miterlimit="10" fill="#7823DC"/></g><g><path d="M22.98 2 22.98 5.99 18.99 5.99 18.99 2 22.98 2M24.98 0 22.98 0 18.99 0 16.99 0 16.99 2 16.99 5.99 16.99 7.99 18.99 7.99 22.98 7.99 24.98 7.99 24.98 5.99 24.98 2 24.98 0 24.98 0Z" fill="#7823DC"/></g><g><rect x="19.98" y="5.99" width="2" height="4.03" fill="#7823DC"/></g><g><rect x="19.99" y="12.02" width="1.99" height="1.99" fill="#7823DC"/></g><g><path d="M17.99 18.02 17.99 26 10.01 26 10.01 18.02 17.99 18.02M19.99 16.02 8.01 16.02 8.01 28 19.99 28 19.99 16.02 19.99 16.02Z" fill="#7823DC"/></g><g><path d="M15.98 14.02 15.98 16.02 15.98 18.02 17.98 18.02 21.8 18.02 21.83 23.19 19.14 26 10.02 26 10.02 16.86 12.86 14.03 15.98 14.03M17.98 12.02 12.03 12.02 8.01 16.02 8.01 28 19.99 28 23.84 23.99 23.79 16.02 17.98 16.03 17.98 12.02 17.98 12.02Z" fill="#7823DC"/></g><g><path d="M9.24 15.81 12.5 13.02 16.5 13.02 17.33 17.11 10.22 17.11Z" fill="#7823DC" fill-rule="evenodd" clip-rule="evenodd"/></g><g><path d="M19.24 17.49 19.24 26.37 20.98 25.3 22.98 23.21 22.98 17.49 18.99 16.56Z" fill="#7823DC" fill-rule="evenodd" clip-rule="evenodd"/></g></svg>