<svg viewBox="0 0 29.22 29.22" xmlns="http://www.w3.org/2000/svg" xmlns:xlink="http://www.w3.org/1999/xlink" xml:space="preserve" overflow="hidden"><style>
.MsftOfcResponsive_Fill_7823dc {
 fill:#7823DC; 
}
</style>
<g id="Layer_3"></g><g id="Layer_1"></g><g id="Layer_2"></g><g id="Layer_4"></g><g id="Layer_5"><path d="M0 0 0 29.21 29.21 29.21 29.21 0 0 0ZM27.22 8.92 20.22 8.92 20.22 2 27.22 2 27.22 8.92ZM10.82 18.31 10.82 10.92 18.21 10.92 18.21 18.31 10.82 18.31ZM18.21 20.31 18.21 27.21 10.82 27.21 10.82 20.31 18.21 20.31ZM8.82 18.31 2 18.31 2 10.92 8.82 10.92 8.82 18.31ZM10.82 8.92 10.82 2 18.21 2 18.21 8.92 10.82 8.92ZM20.21 10.92 27.21 10.92 27.21 18.31 20.21 18.31 20.21 10.92ZM8.82 2 8.82 8.92 2 8.92 2 2 8.82 2ZM2 20.31 8.82 20.31 8.82 27.21 2 27.21 2 20.31ZM20.21 27.21 20.21 20.31 27.21 20.31 27.21 27.21 20.21 27.21Z" class="st0 MsftOfcResponsive_Fill_7823dc" fill="#7823DC"/></g></svg>