<svg viewBox="0 0 32.3 32" xmlns="http://www.w3.org/2000/svg" xmlns:xlink="http://www.w3.org/1999/xlink" id="Layer_1" overflow="hidden"><style>
.MsftOfcThm_Text2_Fill_v2 {
 fill:#7823DC; 
}
</style>
<path d="M20 28 16 28 16 4 20 4 20 6 18 6 18 26 20 26 20 28Z" class="MsftOfcThm_Text2_Fill_v2" fill="#7823DC"/><rect x="14" y="15" width="3" height="2" class="MsftOfcThm_Text2_Fill_v2" fill="#7823DC"/><path d="M26 8C25.47 8 24.96 7.9 24.47 7.7 23.98 7.5 23.54 7.21 23.17 6.83 22.8 6.45 22.51 6.02 22.3 5.53 22.1 5.04 22 4.53 22 4 22 3.47 22.1 2.96 22.3 2.47 22.5 1.98 22.79 1.54 23.17 1.17 23.54 0.8 23.98 0.51 24.47 0.3 25.45-0.1 26.56-0.1 27.53 0.3 28.02 0.5 28.45 0.79 28.83 1.17 29.21 1.55 29.49 1.98 29.7 2.47 29.9 2.96 30 3.47 30 4 30 4.53 29.9 5.04 29.7 5.53 29.5 6.02 29.21 6.45 28.83 6.83 28.46 7.2 28.02 7.5 27.53 7.7 27.04 7.9 26.53 8 26 8ZM26 2C25.74 2 25.48 2.05 25.23 2.15 24.99 2.25 24.77 2.4 24.58 2.58 24.39 2.76 24.25 2.98 24.15 3.23 24.05 3.47 24 3.73 24 3.99 24 4.25 24.05 4.51 24.15 4.76 24.25 5 24.4 5.22 24.58 5.41 24.76 5.6 24.99 5.74 25.23 5.84 25.72 6.04 26.27 6.04 26.76 5.84 27 5.74 27.22 5.59 27.41 5.41 27.6 5.22 27.74 5 27.84 4.76 27.94 4.52 27.99 4.26 27.99 3.99 27.99 3.72 27.94 3.47 27.84 3.22 27.74 2.98 27.59 2.76 27.41 2.57 27.23 2.38 27 2.24 26.76 2.14 26.52 2.04 26.26 1.99 25.99 1.99Z" class="MsftOfcThm_Text2_Fill_v2" fill="#7823DC"/><path d="M32.3 13 19.7 13 20.04 11.74C20.39 10.43 21.17 9.24 22.22 8.4 23.29 7.54 24.59 7.06 25.96 7 27.39 7.05 28.72 7.55 29.78 8.4 30.85 9.26 31.61 10.42 31.96 11.74L32.3 13ZM22.53 11 29.47 11C29.21 10.61 28.9 10.25 28.53 9.96 27.8 9.38 26.89 9.04 25.96 9 25.09 9.04 24.21 9.37 23.47 9.96 23.1 10.25 22.78 10.61 22.53 11Z" class="MsftOfcThm_Text2_Fill_v2" fill="#7823DC"/><path d="M26 27C25.47 27 24.96 26.9 24.47 26.7 23.98 26.5 23.54 26.21 23.17 25.83 22.8 25.45 22.51 25.02 22.3 24.53 22.1 24.04 22 23.53 22 23 22 22.47 22.1 21.96 22.3 21.47 22.5 20.98 22.79 20.54 23.17 20.17 23.54 19.8 23.98 19.51 24.47 19.3 25.45 18.9 26.56 18.9 27.53 19.3 28.02 19.5 28.45 19.79 28.83 20.17 29.21 20.55 29.49 20.98 29.7 21.47 29.9 21.96 30 22.47 30 23 30 23.53 29.9 24.04 29.7 24.53 29.5 25.02 29.21 25.45 28.83 25.83 28.46 26.2 28.02 26.5 27.53 26.7 27.04 26.9 26.53 27 26 27ZM26 21C25.74 21 25.48 21.05 25.23 21.15 24.99 21.25 24.77 21.4 24.58 21.58 24.39 21.76 24.25 21.98 24.15 22.23 24.05 22.47 24 22.73 24 22.99 24 23.25 24.05 23.51 24.15 23.76 24.25 24 24.4 24.22 24.58 24.41 24.76 24.6 24.99 24.74 25.23 24.84 25.72 25.04 26.27 25.04 26.76 24.84 27 24.74 27.22 24.59 27.41 24.41 27.6 24.22 27.74 24 27.84 23.76 27.94 23.52 27.99 23.26 27.99 22.99 27.99 22.72 27.94 22.47 27.84 22.22 27.74 21.98 27.59 21.76 27.41 21.57 27.23 21.38 27 21.24 26.76 21.14 26.52 21.04 26.26 20.99 25.99 20.99Z" class="MsftOfcThm_Text2_Fill_v2" fill="#7823DC"/><path d="M32.3 32 19.7 32 20.04 30.74C20.4 29.41 21.15 28.26 22.22 27.4 23.28 26.55 24.61 26.06 25.96 26 27.41 26.05 28.71 26.54 29.78 27.4 30.84 28.25 31.61 29.44 31.96 30.74L32.3 32ZM22.52 30 29.47 30C29.21 29.61 28.9 29.25 28.53 28.96 27.79 28.37 26.9 28.04 25.96 28 25.11 28.04 24.19 28.38 23.47 28.96 23.1 29.26 22.78 29.61 22.53 30Z" class="MsftOfcThm_Text2_Fill_v2" fill="#7823DC"/><g><path d="M7 17C5.66 17 4.41 16.48 3.46 15.54 2.52 14.6 2 13.34 2 12 2 10.66 2.52 9.41 3.46 8.46 4.4 7.51 5.66 7 7 7 8.34 7 9.59 7.52 10.54 8.46 11.48 9.4 12 10.66 12 12 12 13.34 11.48 14.59 10.54 15.54 9.6 16.49 8.34 17 7 17ZM7 9C6.2 9 5.45 9.31 4.88 9.88 4.31 10.45 4 11.2 4 12 4 12.8 4.31 13.56 4.88 14.12 6.01 15.25 8 15.24 9.12 14.12 9.69 13.55 10 12.8 10 12 10 11.2 9.68 10.44 9.12 9.88 8.55 9.31 7.8 9 7 9Z" class="MsftOfcThm_Text2_Fill_v2" fill="#7823DC"/><path d="M14 25 0 25 0 24C0 22.13 0.73 20.37 2.05 19.05 3.37 17.73 5.13 17 7 17 8.87 17 10.63 17.73 11.95 19.05 13.27 20.37 14 22.13 14 24L14 25ZM2.1 23 11.9 23C11.71 22.05 11.24 21.17 10.54 20.46 9.6 19.52 8.34 19 7 19 5.66 19 4.41 19.52 3.46 20.46 2.76 21.16 2.29 22.04 2.1 23Z" class="MsftOfcThm_Text2_Fill_v2" fill="#7823DC"/></g></svg>