<svg viewBox="0 0 32 32" xmlns="http://www.w3.org/2000/svg" xmlns:xlink="http://www.w3.org/1999/xlink" id="Layer_2_00000144328325245699140920000014890284756443101063_" xml:space="preserve" overflow="hidden"><g><path d="M23.2 17.6C23 17.2 22.7 16.8 22.3 16.4L22.3 16.4 16.9 20.9 16 21.7 11.7 26 16 30.3 22.4 23.9C24 22.2 24.3 19.6 23.2 17.6ZM20.8 22.5 15.8 27.5 14.4 26.1 21.5 19C22 20.2 21.8 21.6 20.8 22.5Z" fill="#7823DC" fill-rule="evenodd" clip-rule="evenodd"/><path d="M14.3 8.9C12.3 7.8 9.7 8.1 8 9.8L1.6 16.2 6 20.4 10.3 16 11.1 15.2 15.6 9.8C15.2 9.4 14.8 9.1 14.3 8.9ZM4.5 16.1 9.5 11.1C10.4 10.2 11.8 9.9 13 10.4L6 17.6 4.5 16.1Z" fill="#7823DC" fill-rule="evenodd" clip-rule="evenodd"/><path d="M27.1 6.9C27.1 5.8 26.2 4.9 25.1 4.9 24 4.9 23.1 5.8 23.1 6.9 23.1 8 24 8.9 25.1 8.9 26.2 8.9 27.1 8 27.1 6.9L27.1 6.9Z" fill="#7823DC" fill-rule="evenodd" clip-rule="evenodd"/><path d="M32 4.4C31.9 3.1 31.7 1.8 31.4 0.6 30.1 0.3 28.8 0.1 27.6 5.55112e-16 23.3-0.2 19.3 1.8 16.9 5.4 16.6 5.9 15.6 7.3 14.4 8.9 12.3 11.8 9.7 15.3 9.7 15.3L10.4 16 16.1 21.7 16.8 22.4C16.8 22.4 20.4 19.7 23.3 17.6 24.9 16.4 26.3 15.4 26.8 15.1 30 12.8 32 9 32 5 32 4.8 32 4.6 32 4.4ZM25.5 13.5C24.4 14.2 19.4 18 16.9 19.8L12.2 15.1C14 12.6 17.8 7.6 18.5 6.5 20.5 3.5 23.8 1.8 27.4 2 28.3 2.1 29 2.2 29.7 2.3 29.8 2.9 29.9 3.7 30 4.6 30.1 8.1 28.5 11.5 25.5 13.5Z" fill="#7823DC" fill-rule="evenodd" clip-rule="evenodd"/></g><path d="M12.3 21.1 1.4 32 0 32 0 30.6 10.9 19.7Z" fill="#7823DC"/><path d="M4.4 21.8 0 26.2 0 23.3 3 20.3Z" fill="#7823DC"/><path d="M11.7 29 8.7 32 5.8 32 10.2 27.6Z" fill="#7823DC"/></svg>