<svg viewBox="0 0 32 32" xmlns="http://www.w3.org/2000/svg" xmlns:xlink="http://www.w3.org/1999/xlink" overflow="hidden"><defs></defs><g id="Layer_3"><path d="M16.0896 5.09831C15.476 5.09833 14.9785 5.59579 14.9786 6.20943 14.9786 6.82307 15.476 7.32051 16.0897 7.32049 16.7033 7.32047 17.2007 6.82303 17.2007 6.2094 17.2007 5.59576 16.7033 5.09831 16.0896 5.09831 16.0896 5.09831 16.0896 5.09831 16.0896 5.09831Z" fill="#7823DC"/><path d="M17.7869 12.419 14.3924 12.419 13.701 10.3457 11.5604 10.7842 9.86355 7.84375 11.3128 6.209 9.86306 4.57422 11.5603 1.63477 13.7014 2.07227 14.3924 0 17.7869 0 18.4783 2.07324 20.6184 1.63477 22.3162 4.57422 20.8665 6.209 22.3157 7.84375 20.6189 10.7842 18.4783 10.3457ZM15.8338 10.419 16.3455 10.419 16.8577 8.88384 17.2478 8.7022C17.3948 8.63417 17.5353 8.55311 17.6677 8.46L18.0213 8.211 19.6072 8.53619 19.8636 8.09186 18.7918 6.88386 18.8279 6.45612C18.8347 6.37507 18.8411 6.29304 18.8411 6.20905 18.8411 6.12605 18.8347 6.04305 18.8279 5.96105L18.7923 5.53429 19.8631 4.32629 19.6077 3.88293 18.0213 4.20813 17.6677 3.95913C17.5353 3.86603 17.3948 3.78498 17.2478 3.71695L16.8577 3.53531 16.3455 2 15.8338 2 15.3216 3.53516 14.9314 3.7168C14.7837 3.78552 14.6423 3.86687 14.5086 3.95996L14.156 4.20605 12.572 3.88281 12.3162 4.32617 13.3889 5.53617 13.3508 5.96488C13.3435 6.04594 13.3382 6.12699 13.3382 6.20902 13.3382 6.29302 13.3445 6.37502 13.3513 6.45609L13.3875 6.88383 12.3157 8.0918 12.572 8.53613 14.158 8.21094 14.5115 8.45994C14.644 8.55305 14.7845 8.6341 14.9314 8.70213L15.3216 8.88377Z" fill="#7823DC"/><rect x="15.0898" y="12.419" width="2" height="15.581" fill="#7823DC"/><rect x="27.1211" y="19.3672" width="2" height="5.71777" fill="#7823DC"/><rect x="3.08984" y="19.3672" width="2" height="5.71777" fill="#7823DC"/><rect x="6.08936" y="15" width="20.0005" height="2" fill="#7823DC"/><rect x="6.08936" y="27" width="20.0005" height="2" fill="#7823DC"/><path d="M6.07387 14 6.07387 18 2.13687 18 2.13687 14 6.07387 14M8.07387 12 0.13686 12 0.13686 20 8.07386 20 8.07386 12Z" fill="#7823DC"/><path d="M30.0896 14 30.0896 18 26.1526 18 26.1526 14 30.0896 14M32.0896 12 24.1526 12 24.1526 20 32.0896 20 32.0896 12Z" fill="#7823DC"/><path d="M6.07387 26 6.07387 30 2.13687 30 2.13687 26 6.07387 26M8.07387 24 0.13686 24 0.13686 32 8.07386 32 8.07386 24Z" fill="#7823DC"/><path d="M30.0896 26 30.0896 30 26.1526 30 26.1526 26 30.0896 26M32.0896 24 24.1526 24 24.1526 32 32.0896 32 32.0896 24Z" fill="#7823DC"/></g></svg>