<svg viewBox="0 0 32 32" xmlns="http://www.w3.org/2000/svg" xmlns:xlink="http://www.w3.org/1999/xlink" overflow="hidden"><defs></defs><g id="Layer_5"><path d="M23.21 28.08 23.09 28.08 7 26C6.72284 25.9657 6.47266 25.817 6.31 25.59 4.14 22.62 0.44 17.49 0.18 17-0.321216 15.9201-0.0619043 14.6398 0.82 13.84 1.54088 13.3021 2.56122 13.4498 3.1 14.17 3.18559 14.2654 3.28305 14.3494 3.39 14.42 4.0562 14.8479 4.38065 15.6491 4.2 16.42 4.3331 16.5416 4.49477 16.6276 4.67 16.67 4.67 16.67 4.82 16.67 5 16.54 6.08369 15.5351 7.67553 15.3043 9 15.96 9.3432 15.9013 9.67866 15.804 10 15.67 10.1993 15.5825 10.4071 15.5155 10.62 15.47 11.1357 15.4273 11.6506 15.5613 12.08 15.85 12.2388 15.933 12.4024 16.0064 12.57 16.07L12.75 16.07C13.3493 16.0495 13.9478 16.1306 14.52 16.31 15.2776 16.3877 16.025 16.0888 16.52 15.51 16.8511 14.8278 17.592 14.4451 18.34 14.57L18.43 14.57C18.4475 14.1709 18.5644 13.7825 18.77 13.44 18.8539 13.3072 18.9053 13.1564 18.92 13 18.9795 12.6808 19.0631 12.3666 19.17 12.06 19.5493 11.3162 20.1905 10.7391 20.97 10.44 21.1699 10.3383 21.3636 10.2247 21.55 10.1 21.8289 9.79475 22.1699 9.55267 22.55 9.39 22.7143 9.27752 22.8653 9.14668 23 9 23.0409 8.32502 23.2888 7.67905 23.71 7.15 23.7931 7.04333 23.8668 6.92956 23.93 6.81 24.216 6.22973 24.708 5.77691 25.31 5.54L25.64 5.35C25.7872 5.07796 25.9687 4.8259 26.18 4.6 26.5647 4.21995 26.8468 3.74862 27 3.23 27.1756 2.12624 28.1224 1.31051 29.24 1.3 30.0768 1.35251 30.7468 2.01395 30.81 2.85 30.8732 3.63908 30.771 4.43266 30.51 5.18L30.7 5.18C30.992 5.18786 31.2661 5.32303 31.45 5.55 31.635 5.77633 31.7118 6.07228 31.66 6.36 31.5219 7.23862 31.5592 8.13591 31.77 9 32.35 11.19 31.24 12 30.26 12.62L30.16 12.69C29.7848 12.9779 29.2981 13.0775 28.84 12.96 28.5593 12.8775 28.3111 12.7098 28.13 12.48 28.0819 12.8562 28.0016 13.2275 27.89 13.59 27.89 13.67 27.84 13.75 27.83 13.82 27.9766 14.0774 28.0972 14.3487 28.19 14.63 28.8508 14.8794 29.3935 15.3685 29.71 16 30.03 16.6071 30.03 17.3329 29.71 17.94 29.2 18.82 27.96 18.86 26.71 18.61 26.71 18.92 26.71 19.23 26.71 19.46 26.71 20.07 26.08 21.54 24.83 23.83L24.83 26.73C24.83 27.43 24.24 27.94 23.33 28.04ZM7.7 24.1 22.82 26 22.82 23.6C22.8192 23.4325 22.8604 23.2674 22.94 23.12 23.6302 21.9421 24.219 20.7076 24.7 19.43 24.7 18.78 24.7 17.33 24.7 17.33 24.7132 16.7779 25.1714 16.341 25.7236 16.3541 25.8174 16.3564 25.9105 16.3718 26 16.4 26.5814 16.5881 27.1817 16.7121 27.79 16.77 27.6346 16.6022 27.4263 16.4928 27.2 16.46 26.7849 16.397 26.4534 16.0815 26.37 15.67 26.3079 15.3906 26.2069 15.1213 26.07 14.87 25.56 14.39 25.74 13.73 25.92 13.08 26.014 12.8049 26.0744 12.5195 26.1 12.23 25.8732 11.388 26.0546 10.4883 26.59 9.8 26.9564 9.42671 27.489 9.26806 28 9.38 28.708 9.54483 29.2708 10.0809 29.47 10.78 30.06 10.36 30.04 10.25 29.85 9.54 29.6511 8.72569 29.567 7.88759 29.6 7.05 29.2104 6.96372 28.8595 6.75314 28.6 6.45 28.3674 6.14944 28.2829 5.75994 28.37 5.39 28.37 5.24 28.46 5.05 28.53 4.85L28.53 4.76C28.2825 5.17425 27.9945 5.56283 27.67 5.92 27.59 6.0008 27.5164 6.08773 27.45 6.18 27.2091 6.69164 26.7788 7.08965 26.25 7.29 26.1 7.38 25.86 7.51 25.75 7.59 25.6402 7.83808 25.5027 8.07291 25.34 8.29 25.1294 8.52391 24.9966 8.81741 24.96 9.13 24.8536 10.0304 24.2387 10.7892 23.38 11.08 23.2459 11.1458 23.1157 11.2192 22.99 11.3 22.6615 11.652 22.2629 11.9313 21.82 12.12 21.5107 12.2596 21.2241 12.445 20.97 12.67 20.8923 12.8814 20.8321 13.0988 20.79 13.32 20.7337 13.7274 20.5868 14.1169 20.36 14.46 20.36 14.46 20.36 14.62 20.36 14.72 20.3713 15.4063 19.9802 16.0359 19.36 16.33 19.0059 16.4623 18.6266 16.5136 18.25 16.48L18.16 16.48C17.2136 17.7957 15.5947 18.4496 14 18.16 13.6191 18.0379 13.2197 17.9837 12.82 18 12.6372 18.0191 12.4528 18.0191 12.27 18 11.8809 17.9218 11.5065 17.7835 11.16 17.59 11.0564 17.5307 10.9496 17.4773 10.84 17.43L10.69 17.49C9.9 17.78 8.82 18.19 8 17.66 7.41061 17.4157 6.73209 17.5498 6.28 18 5.70718 18.5064 4.92453 18.7039 4.18 18.53 3.93516 18.4733 3.69952 18.3824 3.48 18.26 4.69 20 6.39 22.3 7.7 24.1ZM1.93 15.77C1.93078 15.8836 1.95459 15.9959 2 16.1L2.2 16.41C2.2 16.32 2.2 16.24 2.2 16.16 2.2 16.08 2.2 16.06 2.2 16 2.10438 15.9302 2.01413 15.8533 1.93 15.77ZM27.45 13.39 27.45 13.39ZM27.5 6.06 27.5 6.06Z" fill="#7823DC"/></g></svg>