<svg width="36.5" height="36.6" viewBox="0 0 36.5 36.6" xmlns="http://www.w3.org/2000/svg" xmlns:xlink="http://www.w3.org/1999/xlink" overflow="hidden"><defs></defs><g><g><defs><path d="M0 36.5 36.5 36.5 36.5 0 0 0 0 36.5Z" id="SVGID_1_" fill="#7823DC"/></defs><clipPath id="SVGID_2_"><use width="100%" height="100%" xlink:href="#SVGID_1_"></use></clipPath><g clip-path="url(#SVGID_2_)"><defs><path d="M0 36.5 36.5 36.5 36.5 0 0 0 0 36.5Z" id="SVGID_3_" fill="#7823DC"/></defs><clipPath id="SVGID_4_"><use width="100%" height="100%" xlink:href="#SVGID_3_"></use></clipPath><path d="M19.4 11.4C21.3 11.4 22.8 12.9 22.8 14.8 22.8 16.7 21.3 18.2 19.4 18.2 17.5 18.2 16 16.7 16 14.9 16 13 17.5 11.4 19.4 11.4M19.4 9.1C16.3 9.1 13.7 11.7 13.7 14.8 13.7 18 16.3 20.5 19.4 20.5 22.5 20.5 25.1 17.9 25.1 14.8 25.1 11.7 22.5 9.1 19.4 9.1L19.4 9.1Z" fill="#7823DC" clip-path="url(#SVGID_4_)"/><path d="M4.6 2.3C5.9 2.3 6.9 3.3 6.9 4.6 6.9 5.9 5.9 6.9 4.6 6.9 3.3 6.9 2.3 5.9 2.3 4.6 2.3 3.3 3.3 2.3 4.6 2.3M4.6 0C2 0 0 2 0 4.6 0 7.2 2 9.2 4.6 9.2 7.2 9.2 9.2 7.2 9.2 4.6 9.2 2 7.1 0 4.6 0L4.6 0Z" fill="#7823DC" clip-path="url(#SVGID_4_)"/><path d="M25.1 29.7C26.4 29.7 27.4 30.7 27.4 32 27.4 33.3 26.4 34.3 25.1 34.3 23.8 34.3 22.8 33.3 22.8 32 22.8 30.7 23.8 29.7 25.1 29.7M25.1 27.4C22.6 27.4 20.5 29.4 20.5 32 20.5 34.5 22.5 36.6 25.1 36.6 27.7 36.6 29.7 34.6 29.7 32 29.6 29.5 27.6 27.4 25.1 27.4L25.1 27.4Z" fill="#7823DC" clip-path="url(#SVGID_4_)"/><path d="M33.1 16C33.7 16 34.2 16.5 34.2 17.1 34.2 17.7 33.7 18.2 33.1 18.2 32.5 18.2 32 17.7 32 17.1 31.9 16.5 32.4 16 33.1 16M33.1 13.7C31.2 13.7 29.7 15.2 29.7 17.1 29.7 19 31.2 20.5 33.1 20.5 35 20.5 36.5 19 36.5 17.1 36.5 15.2 35 13.7 33.1 13.7L33.1 13.7Z" fill="#7823DC" clip-path="url(#SVGID_4_)"/><path d="M21.7 2.3C22.3 2.3 22.8 2.8 22.8 3.4 22.8 4 22.3 4.5 21.7 4.5 21.1 4.5 20.6 4 20.6 3.4 20.5 2.8 21 2.3 21.7 2.3M21.7 0C19.8 0 18.3 1.5 18.3 3.4 18.3 5.3 19.8 6.8 21.7 6.8 23.6 6.8 25.1 5.3 25.1 3.4 25.1 1.5 23.6 0 21.7 0L21.7 0Z" fill="#7823DC" clip-path="url(#SVGID_4_)"/><path d="M6.8 25.1C9.3 25.1 11.4 27.1 11.4 29.7 11.4 32.2 9.4 34.3 6.8 34.3 4.2 34.3 2.2 32.3 2.2 29.7 2.3 27.2 4.3 25.1 6.8 25.1M6.8 22.9C3 22.9 0 26 0 29.8 0 33.6 3.1 36.7 6.8 36.7 10.5 36.7 13.6 33.6 13.6 29.8 13.7 25.9 10.6 22.9 6.8 22.9L6.8 22.9Z" fill="#7823DC" clip-path="url(#SVGID_4_)"/><rect x="10.2" y="4.4" width="2.3" height="10.7" fill="#7823DC" clip-path="url(#SVGID_4_)" transform="matrix(0.5384 -0.8427 0.8427 0.5384 -2.9518 14.0035)"/><rect x="8.5" y="20.5" width="9.4" height="2.3" fill="#7823DC" clip-path="url(#SVGID_4_)" transform="matrix(0.6622 -0.7493 0.7493 0.6622 -11.7244 17.222)"/><rect x="21.2" y="18.9" width="2.3" height="10.2" fill="#7823DC" clip-path="url(#SVGID_4_)" transform="matrix(0.9396 -0.3424 0.3424 0.9396 -6.8648 9.1016)"/><rect x="26.2" y="13.1" width="2.3" height="6.9" fill="#7823DC" clip-path="url(#SVGID_4_)" transform="matrix(0.1647 -0.9863 0.9863 0.1647 6.5165 40.8332)"/><rect x="18.5" y="7" width="4.9" height="2.3" fill="#7823DC" clip-path="url(#SVGID_4_)" transform="matrix(0.1598 -0.9871 0.9871 0.1598 9.5384 27.4906)"/></g></g></g></svg>