<svg viewBox="0 0 32 32" xmlns="http://www.w3.org/2000/svg" xmlns:xlink="http://www.w3.org/1999/xlink" id="Graphic" xml:space="preserve" overflow="hidden"><g><path d="M20.6 0 22.9 2.3 28.1 2.3 19.8 10.6 21.4 12.3 29.7 3.9 29.7 9.2 32 11.5 32 0 20.6 0 20.6 0Z" fill="#7823DC" fill-rule="evenodd" clip-rule="evenodd"/><path d="M29.7 28.1 21.4 19.7 19.8 21.4 28.1 29.7 22.9 29.7 20.6 32 32 32 32 20.5 29.7 22.9 29.7 28.1 29.7 28.1Z" fill="#7823DC" fill-rule="evenodd" clip-rule="evenodd"/><path d="M9.2 2.3 11.5 0 0.1 0 0.1 11.5 2.4 9.2 2.4 3.9 10.7 12.3 12.3 10.6 4 2.3 9.2 2.3 9.2 2.3Z" fill="#7823DC" fill-rule="evenodd" clip-rule="evenodd"/><path d="M10.7 19.7 2.4 28.1 2.4 22.8 0.1 20.5 0.1 32 11.5 32 9.2 29.7 4 29.7 12.3 21.4 10.7 19.7 10.7 19.7Z" fill="#7823DC" fill-rule="evenodd" clip-rule="evenodd"/></g></svg>