<svg viewBox="0 0 32 32" xmlns="http://www.w3.org/2000/svg" xmlns:xlink="http://www.w3.org/1999/xlink" id="Layer_1" overflow="hidden"><style>
.MsftOfcResponsive_Fill_7823dc {
 fill:#7823DC; 
}
</style>
<path d="M2 4.8 27.2 30 2 30 2 4.8M0 0 0 32 32 32 0 0 0 0Z" class="MsftOfcResponsive_Fill_7823dc" fill="#7823DC"/><path d="M6 16.8 15.2 26 6 26 6 16.8M4 12 4 28 20 28 4 12 4 12Z" class="MsftOfcResponsive_Fill_7823dc" fill="#7823DC"/><g><rect x="3.9" y="7.5" width="2.8" height="2" class="MsftOfcResponsive_Fill_7823dc" fill="#7823DC" transform="matrix(0.7071 -0.7071 0.7071 0.7071 -4.4381 6.264)"/><rect x="6.9" y="10.5" width="2.8" height="2" class="MsftOfcResponsive_Fill_7823dc" fill="#7823DC" transform="matrix(0.7071 -0.7071 0.7071 0.7071 -5.6807 9.264)"/><rect x="9.9" y="13.5" width="2.8" height="2" class="MsftOfcResponsive_Fill_7823dc" fill="#7823DC" transform="matrix(0.7071 -0.7071 0.7071 0.7071 -6.9234 12.264)"/><rect x="12.9" y="16.5" width="2.8" height="2" class="MsftOfcResponsive_Fill_7823dc" fill="#7823DC" transform="matrix(0.7071 -0.7071 0.7071 0.7071 -8.166 15.264)"/><rect x="15.9" y="19.5" width="2.8" height="2" class="MsftOfcResponsive_Fill_7823dc" fill="#7823DC" transform="matrix(0.7072 -0.707 0.707 0.7072 -9.4082 18.2595)"/><rect x="18.9" y="22.5" width="2.8" height="2" class="MsftOfcResponsive_Fill_7823dc" fill="#7823DC" transform="matrix(0.7071 -0.7071 0.7071 0.7071 -10.6512 21.2644)"/><rect x="21.9" y="25.5" width="2.8" height="2" class="MsftOfcResponsive_Fill_7823dc" fill="#7823DC" transform="matrix(0.7071 -0.7071 0.7071 0.7071 -11.8938 24.2644)"/></g><g><path d="" class="st0 MsftOfcResponsive_Fill_7823dc" stroke="#000000" stroke-width="2" stroke-miterlimit="10" fill="#7823DC"/><path d="" class="st0 MsftOfcResponsive_Fill_7823dc" stroke="#000000" stroke-width="2" stroke-miterlimit="10" fill="#7823DC"/><rect x="13.3" y="4.3" width="2.9" height="2" class="MsftOfcResponsive_Fill_7823dc" fill="#7823DC" transform="matrix(0.7061 -0.7081 0.7081 0.7061 0.5939 11.9442)"/><rect x="16.3" y="7.3" width="2.9" height="2" class="MsftOfcResponsive_Fill_7823dc" fill="#7823DC" transform="matrix(0.7064 -0.7078 0.7078 0.7064 -0.6687 14.9764)"/><rect x="19.3" y="10.3" width="2.9" height="2" class="MsftOfcResponsive_Fill_7823dc" fill="#7823DC" transform="matrix(0.7061 -0.7081 0.7081 0.7061 -1.9266 18.021)"/><rect x="22.3" y="13.4" width="2.9" height="2" class="MsftOfcResponsive_Fill_7823dc" fill="#7823DC" transform="matrix(0.7061 -0.7081 0.7081 0.7061 -3.1869 21.0589)"/><rect x="25.4" y="16.4" width="2.9" height="2" class="MsftOfcResponsive_Fill_7823dc" fill="#7823DC" transform="matrix(0.7061 -0.7081 0.7081 0.7061 -4.4474 24.0973)"/><path d="" class="st0 MsftOfcResponsive_Fill_7823dc" stroke="#000000" stroke-width="2" stroke-miterlimit="10" fill="#7823DC"/><path d="" class="st0 MsftOfcResponsive_Fill_7823dc" stroke="#000000" stroke-width="2" stroke-miterlimit="10" fill="#7823DC"/></g><path d="M27.2 25 7.1 4.9 11.9 0 32 20.2 27.2 25ZM9.9 4.9 27.2 22.2 29.2 20.2 11.9 2.9 9.9 4.9Z" class="MsftOfcResponsive_Fill_7823dc" fill="#7823DC"/></svg>