<svg width="36.5" height="36.6" viewBox="0 0 36.5 36.6" xmlns="http://www.w3.org/2000/svg" xmlns:xlink="http://www.w3.org/1999/xlink" overflow="hidden"><defs></defs><g><g><defs><path d="M0 36.5 36.5 36.5 36.5 0 0 0 0 36.5Z" id="SVGID_1_" fill="#7823DC"/></defs><clipPath id="SVGID_2_"><use width="100%" height="100%" xlink:href="#SVGID_1_"></use></clipPath><g clip-path="url(#SVGID_2_)"><defs><path d="M0 36.5 36.5 36.5 36.5 0 0 0 0 36.5Z" id="SVGID_3_" fill="#7823DC"/></defs><clipPath id="SVGID_4_"><use width="100%" height="100%" xlink:href="#SVGID_3_"></use></clipPath><path d="M18.2 0 7.9 14.5 6.2 13.1 15.5 0 18.2 0 18.2 0Z" fill="#7823DC" clip-path="url(#SVGID_4_)"/><path d="M18.2 0 28.6 14.5 30.3 13.1 21 0 18.2 0 18.2 0Z" fill="#7823DC" clip-path="url(#SVGID_4_)"/><path d="M18.3 36.6C17.5 36.6 16.7 36.5 15.9 36.4 12 35.8 8.6 33.6 6.3 30.4 2.6 25.3 2.6 18.4 6.2 13.2L6.3 13.1 8 14.4 8 14.5C5 18.9 5 24.7 8.1 29 10.1 31.7 13 33.5 16.3 34.1 19.6 34.6 22.9 33.9 25.6 31.9 31.2 27.9 32.5 20 28.5 14.4L30.4 13.1C35.2 19.8 33.6 29.1 27 33.8 24.3 35.6 21.4 36.6 18.3 36.6Z" fill="#7823DC" clip-path="url(#SVGID_4_)"/><path d="M13.4 16 18.2 9.1 15.5 9.1 10.6 16 13.4 16 13.4 16Z" fill="#7823DC" clip-path="url(#SVGID_4_)"/></g></g></g></svg>