<svg viewBox="0 0 32 32" xmlns="http://www.w3.org/2000/svg" xmlns:xlink="http://www.w3.org/1999/xlink" id="Layer_1" overflow="hidden"><style>
.MsftOfcResponsive_Fill_7823dc {
 fill:#7823DC; 
}
</style>
<path d="M32 28 0 28 0 18 32 18 32 28ZM2 26 30 26 30 20 2 20 2 26Z" class="MsftOfcResponsive_Fill_7823dc" fill="#7823DC"/><rect x="16" y="11" width="2" height="8" class="MsftOfcResponsive_Fill_7823dc" fill="#7823DC"/><path d="M17 12C15.4 12 13.89 11.38 12.76 10.24 11.63 9.11 11 7.6 11 6 11 4.4 11.62 2.89 12.76 1.76 13.89 0.63 15.4 -2.22045e-16 17 -2.22045e-16 18.6 -2.22045e-16 20.11 0.62 21.24 1.76 22.37 2.89 23 4.4 23 6 23 7.6 22.38 9.11 21.24 10.24 20.11 11.37 18.6 12 17 12ZM17 2C15.93 2 14.93 2.42 14.17 3.17 13.41 3.93 13 4.93 13 6 13 7.07 13.42 8.07 14.17 8.83 15.68 10.34 18.31 10.34 19.83 8.83 20.59 8.07 21 7.07 21 6 21 4.93 20.58 3.93 19.83 3.17 19.08 2.41 18.07 2 17 2Z" class="MsftOfcResponsive_Fill_7823dc" fill="#7823DC"/><path d="M10 19 8 19 8 17.41 6.59 16 5.41 16 4 17.41 4 19 2 19 2 16.59 4.59 14 7.41 14 10 16.59 10 19Z" class="MsftOfcResponsive_Fill_7823dc" fill="#7823DC"/><path d="M26.44 32 5.56 32C4.89 32 4.24 31.77 3.71 31.36 3.18 30.95 2.81 30.37 2.65 29.72L1.72 25.99 30.28 25.99 29.35 29.72C29.19 30.37 28.81 30.95 28.29 31.36 27.77 31.77 27.11 32 26.44 32ZM4.28 28 4.59 29.24C4.64 29.45 4.77 29.65 4.94 29.78 5.11 29.92 5.33 29.99 5.56 29.99L26.44 29.99C26.66 29.99 26.88 29.91 27.06 29.78 27.23 29.64 27.36 29.45 27.41 29.23L27.72 27.99 4.28 27.99Z" class="MsftOfcResponsive_Fill_7823dc" fill="#7823DC"/><rect x="26" y="16.44" width="2" height="2.56" class="MsftOfcResponsive_Fill_7823dc" fill="#7823DC"/><rect x="22" y="16.44" width="2" height="2.56" class="MsftOfcResponsive_Fill_7823dc" fill="#7823DC"/></svg>