<svg viewBox="0 0 32 32" xmlns="http://www.w3.org/2000/svg" xmlns:xlink="http://www.w3.org/1999/xlink" id="Layer_1" xml:space="preserve" overflow="hidden"><g id="Layer_2_00000153672027410828584440000004318808627006363015_"></g><g id="Layer_2_00000103981120671582451330000015814750687241510044_"></g><g id="Layer_2_00000130625076427418092810000005903251686592157099_"></g><g id="Layer_2_00000085964347954184681000000000355649944892313477_"></g><g id="Layer_2_00000018946082797421151980000008836874802702089886_"></g><g id="Layer_2_00000021804689057827181820000005630892102603028366_"></g><g id="Layer_2_00000093156637026916537620000011911187392566796989_"></g><g id="Layer_2_00000031185290306875418530000018357049157785389234_"></g><g><path d="M19.2 28 12.8 28C12.6 28 12.4 28 12.3 27.9 7.8 25.2 5 20.3 5 15 5 14.5 5.4 14 6 14L26 14C26.5 14 27 14.4 27 15 27 20.2 24.2 25.1 19.7 27.8 19.6 27.9 19.4 28 19.2 28L19.2 28ZM13.1 26 19 26C22.5 23.8 24.7 20.1 25 16L7 16C7.4 20.1 9.6 23.8 13.1 26L13.1 26Z" fill="#7823DC" fill-rule="evenodd" clip-rule="evenodd"/><path d="M16 32C12.7 32 9.3 31.9 6.4 31.4 3.4 30.8 0 29.8 0 27L0 26 32 26 32 27C32 29.8 28.6 30.9 25.6 31.4 22.5 32 18.7 32 16 32L16 32ZM2.7 28C3.3 28.5 4.6 29 6.9 29.4 9.8 30 13.5 30 16 30 18.6 30 22.3 30 25.2 29.4 27.3 29 28.7 28.5 29.4 28L2.7 28 2.7 28 2.7 28Z" fill="#7823DC" fill-rule="evenodd" clip-rule="evenodd"/><path d="M23.1 25C22.6 25 22.1 24.6 22.1 24.1 22 23.5 22.4 23 23 23 27 22.6 29.3 20.9 29.9 19.4 30.1 19 30.1 18.3 29.6 17.8 29.4 17.6 29.1 17.5 28.9 17.5 28 17.5 26.9 18.6 26.4 19.2 26 19.6 25.4 19.7 25 19.3 24.6 19 24.5 18.3 24.9 17.9 25.1 17.7 26.9 15.6 28.9 15.5 29.8 15.5 30.5 15.8 31.1 16.4 32.1 17.4 32.3 18.7 31.8 20.1 31 22 28.4 24.5 23.1 25 23.1 25 23.1 25 23.1 25L23.1 25Z" fill="#7823DC" fill-rule="evenodd" clip-rule="evenodd"/><path d="M14.5 9.9 13.3 8.3C14.2 7.6 14.3 7.1 14.3 7.1L14.3 6 16.3 6 16.3 7C16.3 7.4 16.2 8.6 14.5 9.9L14.5 9.9Z" fill="#7823DC" fill-rule="evenodd" clip-rule="evenodd"/><path d="M13.5 12 11.5 12 11.5 11.1C11.5 10.9 11.6 9.5 13.4 8.2L14.6 9.8C13.6 10.5 13.5 11.2 13.5 11.2L13.5 12 13.5 12 13.5 12Z" fill="#7823DC" fill-rule="evenodd" clip-rule="evenodd"/><path d="M18.7 9.9 17.5 8.3C18.4 7.6 18.5 7.1 18.5 7.1L18.5 6 20.5 6 20.5 7C20.5 7.4 20.4 8.6 18.7 9.9L18.7 9.9Z" fill="#7823DC" fill-rule="evenodd" clip-rule="evenodd"/><path d="M17.6 12 15.6 12 15.6 11.1C15.6 10.9 15.7 9.5 17.5 8.2L18.7 9.8C17.7 10.5 17.6 11.2 17.6 11.2L17.6 12 17.6 12 17.6 12Z" fill="#7823DC" fill-rule="evenodd" clip-rule="evenodd"/></g></svg>