<svg viewBox="0 0 32 32" xmlns="http://www.w3.org/2000/svg" xmlns:xlink="http://www.w3.org/1999/xlink" id="Layer_2_00000144328325245699140920000014890284756443101063_" xml:space="preserve" overflow="hidden"><g><path d="M21.9 32C20.8 32 19.7 31.6 18.9 30.8 18 30 17.5 28.8 17.5 27.6 17.5 26.3 17.9 25.1 18.8 24.2 19.4 23.5 20.2 23.1 21.1 22.9 20.5 22.8 20 22.5 19.6 22 18.9 21.3 18.5 20.4 18.5 19.5 18.5 18.5 18.8 17.6 19.5 16.9 19.9 16.5 20.4 16.2 21 16 20.6 15.8 20.2 15.6 20 15.2 19.5 14.7 19.3 14 19.4 13.3 19.5 12.2 20.1 11.5 20.9 11.1L20.9 7 22.2 7.4C22.4 7.5 23.2 7.6 23.8 6.9 24.7 5.8 24.7 3.3 23.8 2.5 23.4 2.1 23.1 2 22.7 2 22.6 2 22.3 2.1 22.2 2.2 22.1 2.3 22.1 2.4 22 2.6 21.9 3 21.7 3.5 21.3 4 20.6 4.7 19.5 4.6 18.8 4.5 18.7 4.5 18.6 4.5 18.6 4.5L18.6 2.5C18.7 2.5 18.8 2.5 18.9 2.5 19.1 2.5 19.7 2.5 19.9 2.5 20 2.4 20.1 2.2 20.2 2 20.3 1.7 20.4 1.4 20.7 1.1 21.2 0.5 21.8 0.1 22.6 0.1 23.5 8.32667e-17 24.4 0.4 25.1 1 26.8 2.7 26.7 6.3 25.3 8.1 24.6 9 23.7 9.4 22.9 9.4L22.9 11.1C23.3 11.2 23.6 11.4 23.9 11.7 24.4 12.2 24.7 12.9 24.7 13.6 24.7 14.3 24.4 15 23.9 15.5 23.7 15.7 23.4 15.9 23.1 16 23.6 16.2 24.1 16.5 24.5 16.9 25.1 17.6 25.5 18.5 25.5 19.4L25.5 19.4C25.5 21.1 24.4 22.5 22.9 22.9 23.8 23.1 24.5 23.5 25.2 24.2 26 25.1 26.5 26.2 26.5 27.4L26.5 27.4C26.4 29.9 24.5 31.9 21.9 32 21.9 32 21.9 32 21.9 32L21.9 32ZM22.1 24.8 22.1 24.8C21.4 24.8 20.7 25.1 20.2 25.6 19.7 26.1 19.5 26.8 19.5 27.5 19.5 28.2 19.8 28.9 20.3 29.3 20.8 29.7 21.3 30 22 30 23.5 30 24.6 28.8 24.5 27.4L24.5 27.4C24.5 26.7 24.2 26 23.8 25.5 23.3 25 22.7 24.8 22.1 24.8L22.1 24.8ZM22.1 17.8 22.1 17.8C21.6 17.8 21.2 18 21 18.3 20.7 18.6 20.6 19 20.6 19.5 20.6 19.9 20.8 20.3 21.1 20.6 21.4 20.9 21.7 21 22.1 21 23 21 23.6 20.3 23.6 19.4L23.6 19.4C23.6 19 23.4 18.6 23.2 18.3 22.8 18 22.4 17.8 22.1 17.8L22.1 17.8ZM22 12.9 22 12.9C21.7 12.9 21.4 13 21.3 13.6 21.3 13.7 21.4 13.8 21.4 13.9 21.5 14.1 21.7 14.1 21.9 14.1L21.9 14.1C22.1 14.1 22.2 14 22.4 13.9 22.5 13.8 22.6 13.6 22.6 13.5 22.6 13.3 22.5 13.2 22.4 13 22.3 13 22.2 12.9 22 12.9L22 12.9ZM19.9 2.5 19.9 2.5 19.9 2.5 19.9 2.5Z" fill="#7823DC" fill-rule="evenodd" clip-rule="evenodd"/><path d="M10 32C8.9 32 7.8 31.6 7 30.8 6.1 30 5.6 28.8 5.6 27.6 5.6 26.3 6 25.1 6.9 24.2 7.5 23.5 8.3 23.1 9.2 22.9 8.6 22.8 8.1 22.5 7.7 22 7 21.3 6.6 20.4 6.6 19.5 6.6 18.5 6.9 17.6 7.6 16.9 8 16.5 8.5 16.2 9.1 16 8.7 15.8 8.3 15.6 8.1 15.2 7.6 14.7 7.4 14 7.5 13.3 7.6 12.2 8.2 11.5 9 11.1L9 7 10.3 7.4C10.5 7.5 11.3 7.6 11.9 6.9 12.8 5.8 12.8 3.3 11.9 2.5 11.6 2.1 11.2 2 10.9 2 10.8 2 10.5 2.1 10.4 2.2 10.3 2.3 10.3 2.4 10.2 2.6 10.1 3.1 9.9 3.5 9.4 4 8.8 4.6 7.6 4.6 6.9 4.5 6.8 4.5 6.7 4.5 6.7 4.5L6.7 2.5C6.8 2.5 6.9 2.5 7 2.5 7.2 2.5 7.8 2.5 8 2.5 8.2 2.4 8.2 2.2 8.3 2 8.4 1.7 8.5 1.4 8.8 1.1 9.3 0.5 10 0.1 10.8 0.1 11.7 8.32667e-17 12.6 0.4 13.3 1 15 2.6 14.8 6.3 13.4 8 12.7 8.9 11.8 9.3 11 9.3L11 11C11.4 11.1 11.7 11.3 12 11.6 12.5 12.1 12.8 12.8 12.8 13.5 12.8 14.2 12.5 14.9 12 15.4 11.8 15.6 11.5 15.8 11.2 15.9 11.7 16.1 12.2 16.4 12.6 16.8 13.2 17.5 13.6 18.4 13.6 19.3L13.6 19.3C13.6 21 12.5 22.4 11 22.8 11.9 23 12.6 23.4 13.3 24.1 14.1 25 14.6 26.1 14.6 27.3L14.6 27.3C14.6 29.9 12.7 31.9 10 32 10.1 32 10 32 10 32L10 32ZM10.2 24.8 10.2 24.8C9.5 24.8 8.8 25.1 8.3 25.6 7.8 26.1 7.6 26.8 7.6 27.5 7.6 28.2 7.9 28.9 8.4 29.3 8.9 29.7 9.4 30 10.1 30 10.1 30 10.1 30 10.1 30 11.6 30 12.7 28.8 12.7 27.4L12.7 27.4C12.7 26.7 12.4 26 12 25.5 11.4 25 10.8 24.8 10.2 24.8L10.2 24.8ZM10.2 17.8 10.2 17.8C9.7 17.8 9.3 18 9 18.3 8.7 18.6 8.5 19 8.6 19.5 8.6 19.9 8.8 20.3 9.1 20.6 9.4 20.9 9.8 21 10.1 21 11 21 11.7 20.3 11.6 19.4L11.6 19.4C11.6 19 11.4 18.6 11.1 18.3 10.9 18 10.6 17.9 10.2 17.8L10.2 17.8ZM10.2 12.9 10.2 12.9C9.9 12.9 9.6 13 9.5 13.6 9.5 13.7 9.6 13.8 9.6 13.9 9.7 14.1 9.9 14.1 10.1 14.1L10.1 14.1C10.3 14.1 10.4 14 10.6 13.9 10.7 13.8 10.8 13.6 10.8 13.5 10.8 13.3 10.7 13.2 10.6 13 10.4 13 10.3 12.9 10.2 12.9L10.2 12.9ZM8 2.6 8 2.6 8 2.6 8 2.6Z" fill="#7823DC" fill-rule="evenodd" clip-rule="evenodd"/></g></svg>