<svg viewBox="0 0 32 32" xmlns="http://www.w3.org/2000/svg" xmlns:xlink="http://www.w3.org/1999/xlink" id="Layer_1" overflow="hidden"><g><g><defs><path d="M2 32 30 32 30 0 2 0 2 32Z" id="SVGID_1_" fill="#7823DC"/></defs><defs><path d="M2 0 30 0 30 32 2 32 2 0Z" id="SVGID_00000127013125229404165200000005186922864969490347_" fill="#7823DC"/></defs><clipPath id="SVGID_00000062902166124304893510000004132560193023428520_"><use width="100%" height="100%" xlink:href="#SVGID_1_" overflow="visible"></use></clipPath><clipPath id="SVGID_00000180367520933561538800000010790055768904141217_" clip-path="url(#SVGID_00000062902166124304893510000004132560193023428520_)"><use width="100%" height="100%" xlink:href="#SVGID_00000127013125229404165200000005186922864969490347_" overflow="visible"></use></clipPath><g clip-path="url(#SVGID_00000180367520933561538800000010790055768904141217_)"><defs><path d="M2 32 30 32 30 0 2 0 2 32Z" id="SVGID_00000170270837727590574810000014308933043326920578_" fill="#7823DC"/></defs><clipPath id="SVGID_00000053541214235939220260000009113866865176334248_"><use width="100%" height="100%" xlink:href="#SVGID_00000170270837727590574810000014308933043326920578_" overflow="visible"></use></clipPath><path d="M16.6 16.8C20.1 16.8 23 14.1 23.3 10.6L24.6 10.6 24.6 8.6 24.1 8.6C23.8 6.1 22.2 3.9 19.9 2.7L19.9 6.2 18 6.2 18 1.1C17.1 0.9 16.1 0.9 15.1 1.1L15.1 6.2 13.2 6.2 13.2 2.8C11 3.9 9.4 6.1 9.1 8.6L8.3 8.6 8.3 10.5 9.8 10.5C10.1 14.1 13 16.8 16.6 16.8L16.6 16.8ZM16.6 14.9C14.1 14.9 12.1 13 11.8 10.6L21.4 10.6C21.1 13 19 14.9 16.6 14.9L16.6 14.9Z" fill="#7823DC" clip-path="url(#SVGID_00000053541214235939220260000009113866865176334248_)"/><path d="M25 17.4 16.4 25.9 7.8 17.4 3 17.4 3 31.8 4.9 31.8 4.9 17.4 6.6 18.9 6.6 18.9 16.4 28.6 26.3 18.9 26.3 18.9 27.9 17.4 27.9 31.8 29.9 31.8 29.9 17.4 25 17.4 25 17.4Z" fill="#7823DC" clip-path="url(#SVGID_00000053541214235939220260000009113866865176334248_)"/></g></g></g></svg>