<svg viewBox="0 0 32 32" xmlns="http://www.w3.org/2000/svg" xmlns:xlink="http://www.w3.org/1999/xlink" id="Graphic" overflow="hidden"><path d="M20.3 28.3C19.7 29.2 18.6 29.8 17.5 29.8 15.2 29.8 13.5 27.2 13.5 24 13.5 20.8 15.3 18.2 17.5 18.2 18.6 18.2 19.7 18.8 20.3 19.7L20.5 20 23 20 22.4 19.1C21.5 17.3 19.6 16.2 17.5 16 14.1 16 11.3 19.5 11.3 24 11.3 28.5 14.1 32 17.5 32 19.5 31.8 21.5 30.8 22.4 28.9L23 28 20.5 28 20.3 28.3 20.3 28.3Z" fill="#7823DC" fill-rule="evenodd" clip-rule="evenodd"/><g><g><path d="M3.8 9.6 5.6 11.5 5.6 8.8 2.8 6 0 8.8 0 11.4 1.8 9.6" fill="#7823DC" fill-rule="evenodd" clip-rule="evenodd"/></g><rect x="1.8" y="9.3" width="2" height="22.7" fill="#7823DC"/></g><g><g><path d="M30.2 9.6 32 11.5 32 8.8 29.2 6 26.4 8.8 26.4 11.4 28.2 9.6" fill="#7823DC" fill-rule="evenodd" clip-rule="evenodd"/></g><rect x="28.2" y="9.3" width="2" height="22.7" fill="#7823DC"/></g><g><g><path d="M12.6 3.6 14.4 5.5 14.4 2.8 11.6 0 8.8 2.8 8.8 5.4 10.6 3.6" fill="#7823DC" fill-rule="evenodd" clip-rule="evenodd"/></g><rect x="10.6" y="3.3" width="2" height="10.7" fill="#7823DC"/></g><g><g><path d="M21.4 3.6 23.2 5.5 23.2 2.8 20.4 0 17.6 2.8 17.6 5.4 19.4 3.6" fill="#7823DC" fill-rule="evenodd" clip-rule="evenodd"/></g><rect x="19.4" y="3.3" width="2" height="10.7" fill="#7823DC"/></g><rect x="9.1" y="20.4" width="8.8" height="2" fill="#7823DC"/><rect x="9.1" y="24.7" width="8.8" height="2" fill="#7823DC"/></svg>