<svg viewBox="0 0 32 32" xmlns="http://www.w3.org/2000/svg" xmlns:xlink="http://www.w3.org/1999/xlink" id="Layer_2_00000144328325245699140920000014890284756443101063_" xml:space="preserve" overflow="hidden"><g><path d="M15.9 0C7.1 0 0 7.2 0 16 0 24.8 7.1 32 15.9 32 24.7 32 31.8 24.8 31.8 16 31.8 7.2 24.6 0 15.9 0L15.9 0ZM29.6 16C29.6 18.9 28.7 21.6 27.2 23.8L17 15.5 17 2.2C24 2.8 29.6 8.8 29.6 16L29.6 16ZM14.8 2.2 14.8 13.7 14.8 15.5 4.6 23.8C3.1 21.6 2.2 18.9 2.2 16 2.2 8.8 7.7 2.8 14.8 2.2L14.8 2.2ZM6 25.5 14.8 18.3 14.8 29.8C11.3 29.5 8.2 27.9 6 25.5L6 25.5ZM17 29.8 17 18.3 25.8 25.5C23.5 27.9 20.4 29.5 17 29.8L17 29.8Z" fill="#7823DC" fill-rule="evenodd" clip-rule="evenodd"/></g></svg>