<svg viewBox="0 0 32 32" xmlns="http://www.w3.org/2000/svg" xmlns:xlink="http://www.w3.org/1999/xlink" id="Layer_5" overflow="hidden"><defs></defs><g><path d="M15.98 2.1C16.5 2.1 16.93 2.54 16.93 3.06 16.93 3.58 16.5 4.02 15.98 4.02 15.46 4.02 15.03 3.58 15.03 3.06 15.03 2.54 15.46 2.1 15.98 2.1M15.98 0.1C14.34 0.1 13.04 1.41 13.04 3.07 13.04 4.73 14.33 6.04 15.98 6.04 17.63 6.04 18.92 4.73 18.92 3.07 18.92 1.41 17.62 0.1 15.98 0.1L15.98 0.1Z" fill="#7823DC" fill-rule="evenodd"/><path d="M6.92 20.17 8.84 20.78 12.76 8.33 9.89 32 11.89 32 15.03 6.16 11.37 6.16 6.92 20.17 6.92 20.17 6.92 20.17 6.92 20.17Z" fill="#7823DC" fill-rule="evenodd"/><path d="M25.11 20.17 23.19 20.78 19.27 8.33 22.06 32 20.14 32 17.01 6.16 20.66 6.16 25.11 20.17 25.11 20.17 25.11 20.17 25.11 20.17Z" fill="#7823DC" fill-rule="evenodd"/><path d="M6.03 8.07 2.4 8.07 0.16 15.29 0.16 21.91 3.79 10.25 1.2 32 3.18 32 6.03 8.07 6.03 8.07 6.03 8.07 6.03 8.07Z" fill="#7823DC" fill-rule="evenodd"/><path d="M28.27 10.25 31.94 21.82 31.94 15.29 29.67 8.07 26 8.07 28.88 32 30.89 32 28.27 10.25 28.27 10.25 28.27 10.25 28.27 10.25Z" fill="#7823DC" fill-rule="evenodd"/><path d="M15.98 2.1C16.5 2.1 16.93 2.54 16.93 3.06 16.93 3.58 16.5 4.02 15.98 4.02 15.46 4.02 15.03 3.58 15.03 3.06 15.03 2.54 15.46 2.1 15.98 2.1M15.98 0.1C14.34 0.1 13.04 1.41 13.04 3.07 13.04 4.73 14.33 6.04 15.98 6.04 17.63 6.04 18.92 4.73 18.92 3.07 18.92 1.41 17.62 0.1 15.98 0.1L15.98 0.1Z" fill="#7823DC" fill-rule="evenodd"/><path d="M6.92 20.17 8.84 20.78 12.76 8.33 9.89 32 11.89 32 15.03 6.16 11.37 6.16 6.92 20.17 6.92 20.17 6.92 20.17 6.92 20.17Z" fill="#7823DC" fill-rule="evenodd"/><path d="M25.11 20.17 23.19 20.78 19.27 8.33 22.06 32 20.14 32 17.01 6.16 20.66 6.16 25.11 20.17 25.11 20.17 25.11 20.17 25.11 20.17Z" fill="#7823DC" fill-rule="evenodd"/><path d="M6.03 8.07 2.4 8.07 0.16 15.29 0.16 21.91 3.79 10.25 1.2 32 3.18 32 6.03 8.07 6.03 8.07 6.03 8.07 6.03 8.07Z" fill="#7823DC" fill-rule="evenodd"/><path d="M28.27 10.25 31.94 21.82 31.94 15.29 29.67 8.07 26 8.07 28.88 32 30.89 32 28.27 10.25 28.27 10.25 28.27 10.25 28.27 10.25Z" fill="#7823DC" fill-rule="evenodd"/></g><path d="M24.66 8.87 20.28 4.49 24.7-0.07 29.03 4.39 24.66 8.86ZM23.09 4.47 24.64 6.03 26.24 4.4 24.7 2.81 23.09 4.47Z" fill="#7823DC"/><path d="M7.62 8.94 2.93 0.37 12.3 0.37 7.62 8.94ZM6.31 2.37 7.62 4.77 8.93 2.37 6.3 2.37Z" fill="#7823DC"/></svg>