<svg viewBox="0 0 32 32" xmlns="http://www.w3.org/2000/svg" xmlns:xlink="http://www.w3.org/1999/xlink" overflow="hidden"><style>
.MsftOfcResponsive_Fill_7823dc {
 fill:#7823DC; 
}
</style>
<defs></defs><g id="Layer_3"><path d="M16.0061 10.0393C14.3492 10.0393 13.0061 11.3825 13.0061 13.0393 13.0061 14.6962 14.3492 16.0393 16.0061 16.0393 17.6629 16.0393 19.0061 14.6962 19.0061 13.0393 19.0043 11.3832 17.6622 10.0411 16.0061 10.0393ZM16.0061 14.0393C15.4538 14.0393 15.0061 13.5916 15.0061 13.0393 15.0061 12.487 15.4538 12.0393 16.0061 12.0393 16.5584 12.0393 17.0061 12.487 17.0061 13.0393 17.0055 13.5914 16.5581 14.0388 16.0061 14.0393Z" class="MsftOfcResponsive_Fill_7823dc" fill="#7823DC"/><rect x="10.3437" y="16.5394" width="2" height="2.46069" class="MsftOfcResponsive_Fill_7823dc" fill="#7823DC"/><rect x="19.8437" y="16.5394" width="2" height="2.46069" class="MsftOfcResponsive_Fill_7823dc" fill="#7823DC"/><path d="M17.427 16.539 16.034 18.6 14.72 16.539 12.344 16.539 13.982 19 18.127 19 19.844 16.539 17.427 16.539Z" class="MsftOfcResponsive_Fill_7823dc" fill="#7823DC"/><path d="M28.094 7 4.094 7 4.094 21 10.344 21 10.344 19 6.094 19 6.094 9 26.094 9 26.094 19 21.844 19 21.844 21 28.094 21 28.094 7Z" class="MsftOfcResponsive_Fill_7823dc" fill="#7823DC"/><path d="M12.344 19 12.344 21 15.314 21 13.982 19 12.344 19Z" class="MsftOfcResponsive_Fill_7823dc" fill="#7823DC"/><path d="M18.127 19 16.731 21 19.844 21 19.844 19 18.127 19Z" class="MsftOfcResponsive_Fill_7823dc" fill="#7823DC"/><rect x="10.3437" y="19.0001" width="2" height="2" class="MsftOfcResponsive_Fill_7823dc" fill="#7823DC"/><rect x="19.8437" y="19.0001" width="2" height="2" class="MsftOfcResponsive_Fill_7823dc" fill="#7823DC"/><path d="M13.982 19 15.314 21 16.731 21 18.127 19 13.982 19Z" class="MsftOfcResponsive_Fill_7823dc" fill="#7823DC"/><path d="M19.508 26 12.68 26 11.68 25 0.094 25 0.094 23 12.508 23 13.508 24 18.68 24 19.68 23 32.094 23 32.094 25 20.508 25 19.508 26Z" class="MsftOfcResponsive_Fill_7823dc" fill="#7823DC"/><path d="M28.1567 29 28.1567 28.9999 32.0937 25.0695 32.0937 3 0.09365 3 0.09365 25.0695 4.03065 28.9999 4.03065 29ZM2.09365 27 2.09365 5 30.0937 5 30.0937 27Z" class="MsftOfcResponsive_Fill_7823dc" fill="#7823DC"/></g></svg>