<svg viewBox="0 0 32 32" xmlns="http://www.w3.org/2000/svg" xmlns:xlink="http://www.w3.org/1999/xlink" id="Layer_1" overflow="hidden"><style>
.MsftOfcResponsive_Fill_7823dc {
 fill:#7823DC; 
}
</style>
<image width="376" height="380" xlink:href="F7A7372E.jpg" overflow="visible" transform="matrix(0.0856511 0 0 0.0868421 34.7952 0)"></image><path d="M8.7 2 8.7 8.3 2 8.3 2 2 8.7 2M10.7 0 0 0 0 10.3 10.7 10.3 10.7 0 10.7 0Z" class="MsftOfcResponsive_Fill_7823dc" fill="#7823DC"/><path d="M30 2 30 8.3 23.3 8.3 23.3 2 30 2M32 0 21.3 0 21.3 10.3 32 10.3 32 0 32 0Z" class="MsftOfcResponsive_Fill_7823dc" fill="#7823DC"/><path d="M27.7 4.1 25.6 4.1 25.6 6.2 27.7 6.2 27.7 4.1Z" class="MsftOfcResponsive_Fill_7823dc" fill="#7823DC"/><path d="M8.7 23.7 8.7 30 2 30 2 23.7 8.7 23.7M10.7 21.7 0 21.7 0 32 10.7 32 10.7 21.7 10.7 21.7Z" class="MsftOfcResponsive_Fill_7823dc" fill="#7823DC"/><path d="M6.4 25.8 4.3 25.8 4.3 27.9 6.4 27.9 6.4 25.8Z" class="MsftOfcResponsive_Fill_7823dc" fill="#7823DC"/><g><path d="M14.9 12.4 12.8 12.4 12.8 14.5 14.9 14.5 14.9 12.4Z" class="MsftOfcResponsive_Fill_7823dc" fill="#7823DC"/><path d="M19.1 14.5 17.1 14.5 17.1 10.3 12.8 10.3 12.8 8.3 19.1 8.3Z" class="MsftOfcResponsive_Fill_7823dc" fill="#7823DC"/></g><g><path d="M27.8 20.9 25.7 20.9 25.7 23 27.8 23 27.8 20.9Z" class="MsftOfcResponsive_Fill_7823dc" fill="#7823DC"/><path d="M32 23 30 23 30 18.8 25.7 18.8 25.7 16.8 32 16.8Z" class="MsftOfcResponsive_Fill_7823dc" fill="#7823DC"/></g><path d="M23.5 12.4 21.3 12.4 21.3 14.5 23.5 14.5 23.5 12.4Z" class="MsftOfcResponsive_Fill_7823dc" fill="#7823DC"/><path d="M19.2 17 17.1 17 17.1 19.1 19.2 19.1 19.2 17Z" class="MsftOfcResponsive_Fill_7823dc" fill="#7823DC"/><path d="M6.4 4.1 4.3 4.1 4.3 6.2 6.4 6.2 6.4 4.1Z" class="MsftOfcResponsive_Fill_7823dc" fill="#7823DC"/><path d="M15 30 12.8 30 12.8 32 15 32 15 30Z" class="MsftOfcResponsive_Fill_7823dc" fill="#7823DC"/><path d="M23.5 25.8 21.3 25.8 21.3 27.9 23.5 27.9 23.5 25.8Z" class="MsftOfcResponsive_Fill_7823dc" fill="#7823DC"/><path d="M14.9 21 12.8 21 12.8 23 14.9 23 14.9 21Z" class="MsftOfcResponsive_Fill_7823dc" fill="#7823DC"/><path d="M2 17 0 17 0 19 2 19 2 17Z" class="MsftOfcResponsive_Fill_7823dc" fill="#7823DC"/><path d="M19.2 0 17.1 0 17.1 2.1 19.2 2.1 19.2 0Z" class="MsftOfcResponsive_Fill_7823dc" fill="#7823DC"/><path d="M6.3 19.1 4.3 19.1 4.3 14.9 0 14.9 0 12.9 6.3 12.9Z" class="MsftOfcResponsive_Fill_7823dc" fill="#7823DC"/><path d="M19.3 32 17.3 32 17.3 27.8 12.9 27.8 12.9 25.8 19.3 25.8Z" class="MsftOfcResponsive_Fill_7823dc" fill="#7823DC"/><path d="M14.9 19.1 8.6 19.1 8.6 12.9 10.6 12.9 10.6 17.1 14.9 17.1Z" class="MsftOfcResponsive_Fill_7823dc" fill="#7823DC"/><path d="M27.7 32 21.3 32 21.3 30 25.7 30 25.7 25.8 27.7 25.8Z" class="MsftOfcResponsive_Fill_7823dc" fill="#7823DC"/><path d="M23.4 23 17.1 23 17.1 21.1 21.4 21.1 21.4 17 23.4 17Z" class="MsftOfcResponsive_Fill_7823dc" fill="#7823DC"/><path d="M19.2 6.2 12.9 6.2 12.9 0 14.9 0 14.9 4.2 19.2 4.2Z" class="MsftOfcResponsive_Fill_7823dc" fill="#7823DC"/><rect x="30.1" y="25.8" width="2" height="6.2" class="MsftOfcResponsive_Fill_7823dc" fill="#7823DC"/><rect x="25.6" y="12.4" width="6.4" height="2" class="MsftOfcResponsive_Fill_7823dc" fill="#7823DC"/></svg>