<svg viewBox="0 0 32 32" xmlns="http://www.w3.org/2000/svg" xmlns:xlink="http://www.w3.org/1999/xlink" overflow="hidden"><defs></defs><g id="Layer_3"><g id="Graphic-2"><path d="M14.9 31.821 12.9 31.821 12.9 20.821 14.9 22.821 14.9 31.821Z" fill="#7823DC"/><path d="M19 31.821 17 31.821 17 22.821 19 20.821 19 31.821Z" fill="#7823DC"/><path d="M16 19.521 14.6 18.121 11.8 21.021 13.2 22.421 16 19.521Z" fill="#7823DC"/><path d="M16 19.521 17.4 18.121 20.3 21.021 18.8 22.421 16 19.521Z" fill="#7823DC"/><path d="M16 22.421 17.4 23.821 20.3 21.021 18.8 19.521 16 22.421Z" fill="#7823DC"/><path d="M16 22.421 14.6 23.821 11.8 21.021 13.2 19.521 16 22.421Z" fill="#7823DC"/><path d="M16 16.0216C11.5817 16.0216 8 12.4398 8 8.02157 8 3.60329 11.5817 0.0215702 16 0.0215702 20.4183 0.0215702 24 3.60329 24 8.02157 23.995 12.4378 20.4162 16.0165 16 16.0216ZM16 2.02157C12.6863 2.02157 10 4.70786 10 8.02157 10 11.3353 12.6863 14.0216 16 14.0216 19.3137 14.0216 22 11.3353 22 8.02157 21.9964 4.70936 19.3122 2.02519 16 2.02157Z" fill="#7823DC"/><rect x="2" y="20.2212" width="2" height="11.6" fill="#7823DC"/><path d="M13.5 17.721 2.8 22.121 2 20.321 12.8 15.821 13.1 16.521 13.5 17.721Z" fill="#7823DC"/><rect x="28" y="20.2212" width="2" height="11.6" fill="#7823DC"/><rect x="23.2084" y="13.1576" width="1.99995" height="11.6997" fill="#7823DC" transform="matrix(0.38161 -0.924324 0.924324 0.38161 -2.59885 34.1304)"/><rect x="11.9987" y="16.1139" width="2.00008" height="3.20013" fill="#7823DC" transform="matrix(0.786669 -0.617375 0.617375 0.786669 -8.16316 11.804)"/><rect x="17.4063" y="16.7293" width="3.19979" height="1.99987" fill="#7823DC" transform="matrix(0.618541 -0.785752 0.785752 0.618541 -6.68073 21.6971)"/></g><g id="Layer_3-2"><path d="M17 3.02115 15 3.02115 15 3.92115C13.7125 4.00865 12.6875 5.03365 12.6 6.32115 12.6 7.72115 13.3 8.52115 15 8.82115L15 10.3211C14.6876 10.129 14.4981 9.78787 14.5 9.42115L12.4 9.42115C12.39 10.8471 13.5377 12.0111 14.9637 12.0212 14.9758 12.0212 14.9879 12.0212 15 12.0212L15 12.9212 17 12.9212 17 12.0211C18.4253 11.9958 19.5747 10.8465 19.6 9.42115L19.6 9.42115C19.6 7.82115 18.6 7.22115 17 7.02115L17 5.52115C17.2245 5.68902 17.3694 5.94249 17.4 6.22115L19.4 6.22115C19.3736 4.92441 18.3009 3.89462 17.0042 3.92106 17.0028 3.92109 17.0014 3.92112 17 3.92115ZM15 6.72115C14.7621 6.61505 14.6064 6.38157 14.6 6.12115 14.5938 5.88365 14.7063 5.65865 14.9 5.52115L15 6.72115ZM17 10.4212 17 9.12115C17.2847 9.18249 17.491 9.43002 17.5 9.72115 17.4964 10.0362 17.2968 10.3156 17 10.4212Z" fill="#7823DC"/></g></g></svg>