<svg viewBox="0 0 32 32" xmlns="http://www.w3.org/2000/svg" xmlns:xlink="http://www.w3.org/1999/xlink" id="Layer_3" overflow="hidden"><g><path d="M7.3 19.4C10.2 19.4 12.6 21.8 12.6 24.7 12.6 27.6 10.2 30 7.3 30 4.4 30 2 27.6 2 24.7 2 21.8 4.4 19.4 7.3 19.4M7.3 17.4C3.3 17.4 0 20.7 0 24.7 0 28.7 3.3 32 7.3 32 11.3 32 14.6 28.7 14.6 24.7 14.6 20.7 11.4 17.4 7.3 17.4L7.3 17.4Z" fill="#7823DC"/><path d="M14.5 23 12.5 22.8 13.2 15C12.8 14.4 11.7 13 9.4 12.5 6.5 11.9 5.1 13.4 4.7 13.8L3.4 20.7 1.4 20.3 2.8 13 2.9 12.8C3 12.7 4.9 9.5 9.8 10.4 13.6 11.2 15.1 14.1 15.1 14.2L15.2 14.5 14.5 23Z" fill="#7823DC"/><path d="M13 12.2 11 12 11.3 9.1C11.1 8.9 10.7 8.5 10 8.4 9 8.2 8.4 8.5 8.2 8.7L7.5 11.4 5.6 10.9 6.4 7.8 6.5 7.7C7 7 8.2 6.1 10.3 6.4 11.9 6.7 12.9 7.8 13.2 8.4L13.3 8.7 13 12.2Z" fill="#7823DC"/></g><rect x="14.6" y="15.8" width="2.7" height="2" fill="#7823DC"/><rect x="14.2" y="19.4" width="3.6" height="2" fill="#7823DC"/><g><path d="M24.7 19.4C27.6 19.4 30 21.8 30 24.7 30 27.6 27.6 30 24.7 30 21.8 30 19.4 27.6 19.4 24.7 19.4 21.8 21.8 19.4 24.7 19.4M24.7 17.4C20.7 17.4 17.4 20.7 17.4 24.7 17.4 28.7 20.7 32 24.7 32 28.7 32 32 28.7 32 24.7 32 20.7 28.7 17.4 24.7 17.4L24.7 17.4Z" fill="#7823DC"/><path d="M17.5 23 16.7 14.6 16.8 14.3C16.9 14.2 18.3 11.3 22.1 10.5 26.9 9.5 28.9 12.7 29 12.9L29.1 13.1 30.5 20.4 28.5 20.8 27.2 13.9C26.9 13.5 25.5 12 22.5 12.6 20.2 13.1 19.1 14.5 18.7 15.1L19.4 22.9 17.5 23Z" fill="#7823DC"/><path d="M19 12.2 18.7 8.7 18.8 8.4C19.1 7.8 20.1 6.7 21.7 6.4 23.8 6.1 25 7 25.5 7.6L25.6 7.7 26.4 10.8 24.5 11.3 23.8 8.6C23.6 8.5 23 8.2 22 8.4 21.3 8.5 20.9 8.9 20.7 9.1L21 12 19 12.2Z" fill="#7823DC"/></g></svg>