<svg width="32" height="32" viewBox="0 0 32 32" xmlns="http://www.w3.org/2000/svg" xmlns:xlink="http://www.w3.org/1999/xlink" overflow="visible"><style>
.MsftOfcResponsive_Fill_7823dc {
 fill:#7823DC; 
}
</style>
<defs></defs><g><defs><path d="M0 32 32 32 32 0 0 0 0 32Z" id="SVGID_3_" class="MsftOfcResponsive_Fill_7823dc" fill="#7823DC"/></defs><defs><path d="M0 0 32 0 32 32 0 32 0 0Z" id="SVGID_1_" class="MsftOfcResponsive_Fill_7823dc" fill="#7823DC"/></defs><clipPath id="SVGID_4_"><use width="100%" height="100%" xlink:href="#SVGID_3_" overflow="visible"></use></clipPath><clipPath id="SVGID_5_" class="st0" clip-path="url(#SVGID_4_)"><use width="100%" height="100%" xlink:href="#SVGID_1_" overflow="visible"></use></clipPath><g class="st1" clip-path="url(#SVGID_5_)"><defs><path d="M0 32 32 32 32 0 0 0 0 32Z" id="SVGID_2_" class="MsftOfcResponsive_Fill_7823dc" fill="#7823DC"/></defs><clipPath id="SVGID_6_"><use width="100%" height="100%" xlink:href="#SVGID_2_" overflow="visible"></use></clipPath><path d="M31.9 29.9 1 29.9 1 20.2 31.9 20.2 31.9 29.9 31.9 29.9ZM2.9 28 30 28 30 22.2 2.9 22.2 2.9 28 2.9 28Z" class="st2 MsftOfcResponsive_Fill_7823dc" fill="#7823DC" clip-path="url(#SVGID_6_)"/><path d="M1 2.9 2.9 2.9 2.9 16.4 1 16.4 1 2.9Z" class="st2 MsftOfcResponsive_Fill_7823dc" fill="#7823DC" clip-path="url(#SVGID_6_)"/><path d="M4.8 20.2 6.8 20.2 6.8 24.1 4.8 24.1 4.8 20.2Z" class="st2 MsftOfcResponsive_Fill_7823dc" fill="#7823DC" clip-path="url(#SVGID_6_)"/><path d="M9.1 20.2 11 20.2 11 26 9.1 26 9.1 20.2Z" class="st2 MsftOfcResponsive_Fill_7823dc" fill="#7823DC" clip-path="url(#SVGID_6_)"/><path d="M13.3 20.2 15.3 20.2 15.3 24.1 13.3 24.1 13.3 20.2Z" class="st2 MsftOfcResponsive_Fill_7823dc" fill="#7823DC" clip-path="url(#SVGID_6_)"/><path d="M17.6 20.2 19.5 20.2 19.5 24.1 17.6 24.1 17.6 20.2Z" class="st2 MsftOfcResponsive_Fill_7823dc" fill="#7823DC" clip-path="url(#SVGID_6_)"/><path d="M21.8 20.2 23.8 20.2 23.8 26 21.8 26 21.8 20.2Z" class="st2 MsftOfcResponsive_Fill_7823dc" fill="#7823DC" clip-path="url(#SVGID_6_)"/><path d="M26.1 20.2 28 20.2 28 24.1 26.1 24.1 26.1 20.2Z" class="st2 MsftOfcResponsive_Fill_7823dc" fill="#7823DC" clip-path="url(#SVGID_6_)"/><rect x="30" y="3.8" width="1.9" height="11.6" class="st3 MsftOfcResponsive_Fill_7823dc" fill="#7823DC" clip-path="url(#SVGID_6_)"/><path d="M5.5 8.7 27.2 8.7 27.2 10.6 5.5 10.6 5.5 8.7Z" class="st2 MsftOfcResponsive_Fill_7823dc" fill="#7823DC" clip-path="url(#SVGID_6_)"/><path d="M23.4 13.5 26.1 13.5 30 9.6 26.1 5.8 23.3 5.8 27.2 9.6 23.4 13.5 23.4 13.5Z" class="st2 MsftOfcResponsive_Fill_7823dc" fill="#7823DC" clip-path="url(#SVGID_6_)"/><path d="M9.4 13.5 6.6 13.5 2.8 9.6 6.6 5.8 9.4 5.8 5.5 9.6 9.4 13.5 9.4 13.5Z" class="st2 MsftOfcResponsive_Fill_7823dc" fill="#7823DC" clip-path="url(#SVGID_6_)"/></g></g></svg>