<svg viewBox="0 0 29.22 29.22" xmlns="http://www.w3.org/2000/svg" xmlns:xlink="http://www.w3.org/1999/xlink" id="Layer_5" overflow="hidden"><defs></defs><path d="M15.49 3.79 15.49 0 13.73 0 13.73 3.79 12.05 2.2 12.05 4.58 14.61 7.05 17.17 4.58 17.17 2.11 15.49 3.79Z" stroke-width="0" fill="#7823DC" fill-rule="evenodd"/><path d="M14.6 22.17 12.04 24.64 12.04 27.1 13.72 25.43 13.72 29.22 15.48 29.22 15.48 25.43 17.16 27.01 17.16 24.64 14.6 22.17Z" stroke-width="0" fill="#7823DC" fill-rule="evenodd"/><path d="M29.22 13.73 23.66 13.73 25.33 12.05 22.86 12.05 20.39 14.61 22.86 17.16 25.42 17.16 23.66 15.49 29.22 15.49 29.22 13.73Z" stroke-width="0" fill="#7823DC" fill-rule="evenodd"/><path d="M6.36 12.05 3.8 12.05 5.56 13.73 0 13.73 0 15.49 5.56 15.49 3.88 17.16 6.36 17.16 8.83 14.61 6.36 12.05Z" stroke-width="0" fill="#7823DC" fill-rule="evenodd"/><path d="M22.93 7.63 26.24 4.33 25 3.1 21.69 6.4 21.65 6.36 21.74 3.98 20.06 5.74 20.06 9.26 23.59 9.26 25.27 7.68 22.97 7.68 22.93 7.63Z" stroke-width="0" fill="#7823DC" fill-rule="evenodd"/><path d="M5.58 20.26 3.9 21.85 6.2 21.85 6.24 21.89 2.93 25.19 4.17 26.43 7.48 23.12 7.52 23.17 7.43 25.55 9.11 23.78 9.11 20.26 5.58 20.26Z" stroke-width="0" fill="#7823DC" fill-rule="evenodd"/><path d="M7.39 3.98 7.47 6.36 7.43 6.4 4.12 3.1 2.88 4.33 6.19 7.63 6.15 7.68 3.86 7.68 5.53 9.26 9.06 9.26 9.06 5.74 7.39 3.98Z" stroke-width="0" fill="#7823DC" fill-rule="evenodd"/><path d="M25.05 26.43 26.29 25.19 22.98 21.89 23.02 21.85 25.32 21.85 23.64 20.26 20.11 20.26 20.11 23.78 21.78 25.55 21.7 23.17 21.74 23.12 25.05 26.43Z" stroke-width="0" fill="#7823DC" fill-rule="evenodd"/><path d="M19.56 11.96 19.56 11.96C19.56 11.96 14.63 9.24 14.63 9.24L9.53 11.96 9.52 11.96C9.52 11.96 9.52 11.96 9.52 11.96L9.52 11.96 9.52 17.73 14.61 20.69 19.6 17.72 19.6 11.95 19.56 11.95ZM14.62 11.52 15.77 12.15 14.62 12.95 13.43 12.16 14.63 11.52ZM11.52 13.3 13.63 14.7 13.63 17.82 11.52 16.59 11.52 13.3ZM15.63 17.77 15.63 14.69 17.6 13.33 17.6 16.6 15.63 17.77Z" stroke-width="0" fill="#7823DC"/></svg>