<svg viewBox="0 0 32 32" xmlns="http://www.w3.org/2000/svg" xmlns:xlink="http://www.w3.org/1999/xlink" id="Layer_3" overflow="hidden"><defs></defs><g><path d="M15.9207 21.6493C14.1283 21.6493 12.3358 20.9667 10.971 19.6024 8.56429 17.1962 8.23177 13.4286 10.1805 10.6444L11.8083 11.7833C10.5312 13.8247 10.6658 16.4686 12.3851 18.1884 14.3348 20.1386 17.5067 20.1366 19.4564 18.1884 21.1986 16.4462 21.4207 13.7323 19.9837 11.7362L21.6068 10.5682C23.6195 13.3641 23.3099 17.163 20.8704 19.6024 19.5057 20.9667 17.7132 21.6493 15.9207 21.6493Z" fill="#7823DC"/><g><path d="M9.96078 10.9793 11.6795 11.9901 15.9967 5.61972 15.9838 1.97174 9.96078 10.9793Z" fill="#7823DC"/><path d="M15.9967 5.61972 20.3089 12.2518 22.0326 11.2381 15.9838 1.97174 15.9967 5.61972Z" fill="#7823DC"/></g></g><path d="M31.6841 25.3541C31.2334 24.7916 30.5528 23.941 29.2407 23.941 27.9287 23.941 27.2476 24.7906 26.7969 25.3541 26.3721 25.8834 26.2237 26.0172 25.9131 26.0172 25.6021 26.0172 25.4536 25.8834 25.0288 25.3531 24.5777 24.7906 23.896 23.941 22.584 23.941 21.272 23.941 20.5904 24.7906 20.1392 25.3531 19.7144 25.8834 19.566 26.0172 19.2549 26.0172 18.9453 26.0172 18.7974 25.8834 18.3731 25.3541 17.9224 24.7916 17.2412 23.941 15.9297 23.941 14.6177 23.941 13.9361 24.7906 13.4849 25.3531 13.0601 25.8834 12.9116 26.0172 12.6006 26.0172 12.2896 26.0172 12.1411 25.8834 11.7163 25.3541 11.2652 24.7906 10.5835 23.941 9.27102 23.941 7.95852 23.941 7.27688 24.7906 6.82571 25.3531 6.40042 25.8834 6.25198 26.0172 5.94094 26.0172 5.62795 26.0172 5.47903 25.8834 5.05276 25.3531 4.6011 24.7906 3.91848 23.941 2.60501 23.941 1.29202 23.941 0.6094 24.7906 0.15774 25.3531 0.08047 25.4492 0.02029 25.5189-0.04136 25.5905L-0.04136 27.9223C0.83248 27.6912 1.35317 27.0585 1.71731 26.6051 2.14358 26.0748 2.29251 25.941 2.60501 25.941 2.918 25.941 3.06692 26.0748 3.49319 26.6051 3.94485 27.1676 4.62747 28.0172 5.94094 28.0172 7.25344 28.0172 7.93508 27.1676 8.38625 26.6051 8.81154 26.0748 8.95998 25.941 9.27102 25.941 9.58206 25.941 9.73049 26.0748 10.1558 26.6051 10.607 27.1676 11.2886 28.0172 12.6006 28.0172 13.9126 28.0172 14.5943 27.1676 15.0454 26.6051 15.4702 26.0748 15.6187 25.941 15.9297 25.941 16.2393 25.941 16.3872 26.0748 16.8116 26.6041 17.2622 27.1666 17.9434 28.0172 19.2549 28.0172 20.5669 28.0172 21.2486 27.1676 21.6997 26.6051 22.1245 26.0748 22.273 25.941 22.584 25.941 22.8951 25.941 23.0435 26.0748 23.4683 26.6051 23.9195 27.1676 24.6011 28.0172 25.9131 28.0172 27.2251 28.0172 27.9068 27.1666 28.3575 26.6041 28.7822 26.0748 28.9307 25.941 29.2407 25.941 29.5508 25.941 29.6988 26.0748 30.1236 26.6041 30.497 27.0702 31.0343 27.7269 31.9517 27.9408L31.9517 25.6739C31.8745 25.5879 31.788 25.4835 31.6841 25.3541Z" fill="#7823DC"/></svg>