<svg viewBox="0 0 32.22 32" xmlns="http://www.w3.org/2000/svg" xmlns:xlink="http://www.w3.org/1999/xlink" id="Outline_Final_icon" overflow="hidden"><defs></defs><path d="M11.19 8.79C13.62 8.79 15.58 6.82 15.58 4.4 15.58 1.98 13.61 0 11.19 0 8.77 0 6.8 1.97 6.8 4.39 6.8 6.81 8.77 8.78 11.19 8.78ZM11.19 2C12.51 2 13.58 3.07 13.58 4.39 13.58 5.71 12.51 6.78 11.19 6.78 9.87 6.78 8.8 5.71 8.8 4.39 8.8 3.07 9.87 2 11.19 2Z" fill="#7823DC"/><path d="M23.39 11.14C25.46 11.14 27.13 9.46 27.13 7.4 27.13 5.34 25.45 3.66 23.39 3.66 21.33 3.66 19.65 5.34 19.65 7.4 19.65 9.46 21.33 11.14 23.39 11.14ZM23.39 5.65C24.35 5.65 25.13 6.43 25.13 7.39 25.13 8.35 24.35 9.13 23.39 9.13 22.43 9.13 21.65 8.35 21.65 7.39 21.65 6.43 22.43 5.65 23.39 5.65Z" fill="#7823DC"/><path d="M16.48 24.47C18.17 24.47 19.55 23.1 19.55 21.4 19.55 19.7 18.18 18.33 16.48 18.33 14.78 18.33 13.41 19.7 13.41 21.4 13.41 23.1 14.78 24.47 16.48 24.47ZM16.48 20.34C17.07 20.34 17.55 20.82 17.55 21.41 17.55 22 17.07 22.48 16.48 22.48 15.89 22.48 15.41 22 15.41 21.41 15.41 20.82 15.89 20.34 16.48 20.34Z" fill="#7823DC"/><path d="M32.22 20.79 27.75 12.24 18.79 12.24 16.11 16.2 17.76 17.32 19.85 14.24 26.54 14.24 29.91 20.68 26.72 25.62 25.34 24.61 27.72 20.88 25.87 17.19 24.08 18.08 25.42 20.76 22.65 25.12 24.18 26.24 24.18 32 26.18 32 26.18 27.7 27.25 28.49 32.22 20.79Z" fill="#7823DC"/><path d="M13.12 25.88 11.35 28.01 11.35 32 13.35 32 13.35 28.74 14.06 27.88 19.08 27.88 19.99 28.79 19.99 32 21.99 32 21.99 27.96 19.91 25.88 13.12 25.88Z" fill="#7823DC"/><path d="M7.53 19.75 9.13 16.55 7.34 15.66 5.23 19.87 8.02 24.26 6.16 25.62 2.31 19.65 6.32 12 14.32 12 16.13 14.31 17.31 12.57 15.29 10 5.11 10 0 19.76 5.63 28.49 7.07 27.43 7.07 32 9.07 32 9.07 25.97 10.71 24.77 7.53 19.75Z" fill="#7823DC"/></svg>