<svg viewBox="0 0 32 32" xmlns="http://www.w3.org/2000/svg" xmlns:xlink="http://www.w3.org/1999/xlink" id="Graphic" overflow="hidden"><g><path d="M4.9 22.8C3.3 22.8 2 21.5 2 19.9 2 18.8 2.6 17.8 3.6 17.3L3.6 14.6C2.6 14.1 2 13.1 2 12 2 10.4 3.3 9.1 4.9 9.1 6.4 9.1 7.6 10.2 7.8 11.6L9.8 11.6C9.6 9.2 7.5 7.2 4.9 7.2 2.2 7.2 0 9.4 0 12.1 0 13.7 0.8 15.1 2 16 0.8 16.9 0 18.3 0 19.9 0 22.6 2.2 24.8 4.9 24.8 7.5 24.8 9.6 22.8 9.8 20.3L7.8 20.3C7.6 21.7 6.4 22.8 4.9 22.8Z" fill="#7823DC"/><g><rect x="7.8" y="11.7" width="16.4" height="2" fill="#7823DC"/><rect x="7.8" y="18.3" width="16.4" height="2" fill="#7823DC"/></g></g><g><path d="M27.1 22.8C28.7 22.8 30 21.5 30 19.9 30 18.8 29.4 17.8 28.4 17.3L28.4 14.6C29.4 14.1 30 13.1 30 12 30 10.4 28.7 9.1 27.1 9.1 25.6 9.1 24.4 10.2 24.2 11.6L22.2 11.6C22.4 9.1 24.5 7.1 27.1 7.1 29.8 7.1 32 9.3 32 12 32 13.6 31.2 15 30 15.9 31.2 16.8 32 18.2 32 19.8 32 22.5 29.8 24.7 27.1 24.7 24.5 24.7 22.4 22.7 22.2 20.2L24.2 20.2C24.4 21.7 25.6 22.8 27.1 22.8Z" fill="#7823DC"/></g></svg>