<svg width="36.5" height="36.6" viewBox="0 0 36.5 36.6" xmlns="http://www.w3.org/2000/svg" xmlns:xlink="http://www.w3.org/1999/xlink" overflow="hidden"><defs></defs><g><g><defs><path d="M0 36.5 36.5 36.5 36.5 0 0 0 0 36.5Z" id="SVGID_1_" fill="#7823DC"/></defs><clipPath id="SVGID_2_"><use width="100%" height="100%" xlink:href="#SVGID_1_"></use></clipPath><g clip-path="url(#SVGID_2_)"><defs><path d="M0 36.5 36.5 36.5 36.5 0 0 0 0 36.5Z" id="SVGID_3_" fill="#7823DC"/></defs><clipPath id="SVGID_4_"><use width="100%" height="100%" xlink:href="#SVGID_3_"></use></clipPath><path d="M21.7 14.9 21.7 8 14.9 8 14.9 14.9 8 14.9 8 21.8 14.8 21.8 14.8 28.7 21.6 28.7 21.6 21.8 28.4 21.8 28.4 14.9 21.7 14.9 21.7 14.9ZM26.2 19.4 19.4 19.4 19.4 26.3 17.1 26.3 17.1 19.4 10.3 19.4 10.3 17.1 17.1 17.1 17.1 10.2 19.4 10.2 19.4 17.1 26.2 17.1 26.2 19.4 26.2 19.4Z" fill="#7823DC" clip-path="url(#SVGID_4_)"/><path d="M18.2 0C8.2 0 0 8.2 0 18.3 0 28.4 8.2 36.6 18.2 36.6 28.3 36.6 36.4 28.4 36.4 18.3 36.5 8.2 28.3 0 18.2 0L18.2 0ZM18.2 34.3C9.4 34.3 2.2 27.1 2.2 18.3 2.2 9.5 9.3 2.3 18.2 2.3 27 2.3 34.2 9.5 34.2 18.3 34.2 27.1 27.1 34.3 18.2 34.3L18.2 34.3Z" fill="#7823DC" clip-path="url(#SVGID_4_)"/></g></g></g></svg>