<svg viewBox="0 0 31.9 32.13" xmlns="http://www.w3.org/2000/svg" xmlns:xlink="http://www.w3.org/1999/xlink" id="Layer_1" overflow="hidden"><style>
.MsftOfcThm_Text2_Fill_v2 {
 fill:#7823DC; 
}
</style>
<defs></defs><rect x="15.58" y="2.37" width="6.75" height="2" class="MsftOfcThm_Text2_Fill_v2" fill="#7823DC" transform="matrix(6.12323e-17 1 -1 6.12323e-17 22.32 -15.58)"/><path d="M18.95 8.09 14.94 4.07 16.35 2.66 18.95 5.26 21.55 2.66 22.97 4.07 18.95 8.09Z" class="MsftOfcThm_Text2_Fill_v2" fill="#7823DC"/><path d="M28.55 27.42 7.45 27.42 4.59 16.09 0 16.09 0 10.09 5.14 10.09 9 25.42 28.54 25.42 28.54 27.42ZM2 14.09 4.09 14.09 3.59 12.09 2.01 12.09 2.01 14.09Z" class="MsftOfcThm_Text2_Fill_v2" fill="#7823DC"/><path d="M26.43 24.09 11.54 24.09 6.99 8.39 8.91 7.83 13.04 22.09 24.92 22.09 28.99 7.84 30.91 8.39 26.43 24.09Z" class="MsftOfcThm_Text2_Fill_v2" fill="#7823DC"/><path d="M28.55 32.13C26.7 32.13 25.2 30.63 25.2 28.78 25.2 26.93 26.7 25.43 28.55 25.43 30.4 25.43 31.9 26.93 31.9 28.78 31.9 30.63 30.4 32.13 28.55 32.13ZM28.55 27.42C27.8 27.42 27.2 28.03 27.2 28.77 27.2 29.51 27.81 30.12 28.55 30.12 29.29 30.12 29.9 29.51 29.9 28.77 29.9 28.03 29.29 27.42 28.55 27.42Z" class="MsftOfcThm_Text2_Fill_v2" fill="#7823DC"/><path d="M9.35 32.13C7.5 32.13 6 30.63 6 28.78 6 26.93 7.5 25.43 9.35 25.43 11.2 25.43 12.7 26.93 12.7 28.78 12.7 30.63 11.2 32.13 9.35 32.13ZM9.35 27.42C8.6 27.42 8 28.03 8 28.77 8 29.51 8.61 30.12 9.35 30.12 10.09 30.12 10.7 29.51 10.7 28.77 10.7 28.03 10.09 27.42 9.35 27.42Z" class="MsftOfcThm_Text2_Fill_v2" fill="#7823DC"/><rect x="11.16" y="18.11" width="15.59" height="2" class="MsftOfcThm_Text2_Fill_v2" fill="#7823DC"/><rect x="10.18" y="14.11" width="17.54" height="2" class="MsftOfcThm_Text2_Fill_v2" fill="#7823DC"/><rect x="8.98" y="10.09" width="19.94" height="2" class="MsftOfcThm_Text2_Fill_v2" fill="#7823DC"/></svg>