<svg viewBox="0 0 32 32" xmlns="http://www.w3.org/2000/svg" xmlns:xlink="http://www.w3.org/1999/xlink" id="Layer_1" overflow="hidden"><style>
.MsftOfcResponsive_Fill_7823dc {
 fill:#7823DC; 
}
</style>
<g><path d="M1.5 14.3 3.6 14.3 3.6 32 1.5 32Z" class="st0 MsftOfcResponsive_Fill_7823dc" fill="#7823DC"/><path d="M28.5 14.3 30.5 14.3 30.5 32 28.5 32Z" class="st0 MsftOfcResponsive_Fill_7823dc" fill="#7823DC"/><path d="M30.5 17 16 2.9 1.5 17 0 15.5 16 0.1 32 15.5 30.5 17Z" class="st0 MsftOfcResponsive_Fill_7823dc" fill="#7823DC"/><path d="M1.5 30 30.5 30 30.5 32 1.5 32Z" class="st0 MsftOfcResponsive_Fill_7823dc" fill="#7823DC"/></g><path d="M26 29 3 29 3 27 26 27 27 28Z" class="MsftOfcResponsive_Fill_7823dc" fill="#7823DC"/><path d="M22 26 3 26 3 24 22 24 23 25Z" class="MsftOfcResponsive_Fill_7823dc" fill="#7823DC"/><path d="M18 23 3 23 3 21 18 21 19 22Z" class="MsftOfcResponsive_Fill_7823dc" fill="#7823DC"/><path d="" class="MsftOfcResponsive_Fill_7823dc" fill="#7823DC"/><path d="" class="MsftOfcResponsive_Fill_7823dc" fill="#7823DC"/><g><path d="M18.5 13.7 13.8 14.5 13.5 12.5 18.2 11.7" class="st1 MsftOfcResponsive_Fill_7823dc" fill="#7823DC" fill-rule="evenodd" clip-rule="evenodd"/><path d="M17.4 7 13.5 12.5 15 13.7 17.9 9.7" class="st1 MsftOfcResponsive_Fill_7823dc" fill="#7823DC" fill-rule="evenodd" clip-rule="evenodd"/><path d="M18.5 13.7 17 12.5 14.1 16.6 14.6 19.2" class="st1 MsftOfcResponsive_Fill_7823dc" fill="#7823DC" fill-rule="evenodd" clip-rule="evenodd"/><line x1="14.6" y1="19.2" x2="18.5" y2="13.7" class="st1" fill="#7823DC" fill-rule="evenodd" clip-rule="evenodd"/></g></svg>