<svg viewBox="0 0 32 32" xmlns="http://www.w3.org/2000/svg" xmlns:xlink="http://www.w3.org/1999/xlink" id="Layer_1" overflow="hidden"><style>
.MsftOfcThm_Text2_Fill_v2 {
 fill:#7823DC; 
}
</style>
<path d="M13 32C11.28 32 9.61 31.67 8.02 31.01 6.44 30.35 5.02 29.41 3.8 28.19 2.58 26.97 1.64 25.56 0.98 23.97 0.32 22.38-0.01 20.71-0.01 18.99-0.01 17.27 0.32 15.6 0.98 14.01 1.64 12.43 2.58 11.01 3.8 9.79 5.02 8.57 6.43 7.63 8.02 6.97 11.19 5.66 14.8 5.66 17.97 6.97 19.55 7.63 20.97 8.57 22.19 9.79 23.41 11.01 24.35 12.42 25.01 14.01 25.67 15.6 26 17.27 26 18.99 26 20.71 25.67 22.38 25.01 23.97 24.35 25.55 23.41 26.97 22.19 28.19 20.97 29.41 19.56 30.35 17.97 31.01 16.38 31.67 14.71 32 12.99 32ZM13 8C11.55 8 10.13 8.28 8.79 8.84 7.45 9.4 6.25 10.2 5.22 11.22 4.19 12.25 3.39 13.45 2.84 14.79 2.29 16.13 2 17.55 2 19 2 20.45 2.28 21.87 2.84 23.21 3.4 24.55 4.2 25.75 5.22 26.78 6.25 27.81 7.45 28.61 8.79 29.16 11.47 30.27 14.53 30.27 17.21 29.16 18.55 28.6 19.75 27.8 20.78 26.78 21.81 25.75 22.61 24.55 23.16 23.21 23.71 21.87 24 20.45 24 19 24 17.55 23.72 16.13 23.16 14.79 22.6 13.45 21.8 12.25 20.78 11.22 19.75 10.19 18.55 9.39 17.21 8.84 15.87 8.29 14.45 8 13 8Z" class="MsftOfcThm_Text2_Fill_v2" fill="#7823DC"/><path d="M14.02 31.84 12.98 30.13C16.03 28.27 18 23.9 18 19 18 14.1 16.02 9.72 12.97 7.87L14.01 6.16C17.65 8.37 20.01 13.41 20.01 19 20.01 24.59 17.66 29.62 14.03 31.84Z" class="MsftOfcThm_Text2_Fill_v2" fill="#7823DC"/><rect x="12" y="0" width="2" height="7" class="MsftOfcThm_Text2_Fill_v2" fill="#7823DC"/><path d="M11.98 31.84C8.35 29.62 6 24.58 6 19 6 13.42 8.35 8.36 12 6.15L13.04 7.86C9.98 9.71 8 14.09 8 19 8 23.91 9.97 28.27 13.02 30.13L11.98 31.84Z" class="MsftOfcThm_Text2_Fill_v2" fill="#7823DC"/><rect x="22" y="0" width="2" height="6" class="MsftOfcThm_Text2_Fill_v2" fill="#7823DC"/><rect x="20" y="2" width="6" height="2" class="MsftOfcThm_Text2_Fill_v2" fill="#7823DC"/><rect x="28" y="6" width="2" height="6" class="MsftOfcThm_Text2_Fill_v2" fill="#7823DC"/><rect x="26" y="8" width="6" height="2" class="MsftOfcThm_Text2_Fill_v2" fill="#7823DC"/><path d="M13 24C11.37 24 9.78 23.89 8.27 23.69 6.75 23.48 5.38 23.17 4.2 22.78 2.97 22.37 1.99 21.87 1.29 21.31 0.23 20.45 -8.88178e-16 19.58 -8.88178e-16 19 -8.88178e-16 18.42 0.22 17.55 1.29 16.69 1.99 16.13 2.97 15.63 4.2 15.22 5.38 14.83 6.75 14.52 8.27 14.31 11.29 13.89 14.71 13.89 17.73 14.31 19.25 14.52 20.62 14.83 21.8 15.22 23.03 15.63 24.01 16.13 24.71 16.69 25.77 17.55 26 18.42 26 19 26 19.58 25.78 20.45 24.71 21.31 24.01 21.87 23.03 22.37 21.8 22.78 20.62 23.17 19.25 23.48 17.73 23.69 16.22 23.9 14.63 24 13 24ZM13 16C11.46 16 9.96 16.1 8.54 16.3 7.14 16.49 5.89 16.77 4.83 17.12 3.84 17.45 3.05 17.84 2.54 18.25 2.2 18.53 2 18.8 2 19 2 19.2 2.2 19.48 2.54 19.75 3.05 20.16 3.84 20.55 4.83 20.88 5.89 21.23 7.14 21.51 8.54 21.7 11.38 22.09 14.61 22.09 17.45 21.7 18.85 21.51 20.1 21.23 21.16 20.88 22.15 20.55 22.94 20.16 23.45 19.75 23.79 19.47 23.99 19.2 23.99 19 23.99 18.8 23.79 18.52 23.45 18.25 22.94 17.84 22.15 17.45 21.16 17.12 20.1 16.77 18.85 16.49 17.45 16.3 16.03 16.1 14.53 16 12.99 16Z" class="MsftOfcThm_Text2_Fill_v2" fill="#7823DC"/></svg>