<svg viewBox="0 0 31.99 32.02" xmlns="http://www.w3.org/2000/svg" xmlns:xlink="http://www.w3.org/1999/xlink" id="Layer_1" overflow="hidden"><style>
.MsftOfcResponsive_Fill_7823dc {
 fill:#7823DC; 
}
</style>
<defs></defs><path d="M31.99 22.08 23.92 17.84C24.37 17.42 24.78 17.03 25.15 16.65L25.45 16.35C26.43 15.35 27.26 14.37 27.91 13.44 27.99 13.33 28.13 13.1 28.17 12.97 28.42 12.43 28.62 11.85 28.74 11.26L28.74 11.23C28.93 10.52 29.03 9.76 29.03 8.95 29.03 6.33 28.02 3.91 26.25 2.23L26.25 2.2 25.91 1.9C24.48 0.65 22.75-0.01 20.93-0.01 20.68-0.01 20.43 0.01 20.19 0.03 20.11 0.03 20.03 0.05 19.95 0.06 19.78 0.08 19.62 0.11 19.46 0.14 19.37 0.16 19.28 0.18 19.19 0.2 19.04 0.24 18.89 0.28 18.74 0.32 18.65 0.35 18.56 0.38 18.47 0.41 18.32 0.46 18.17 0.52 18.03 0.58 17.95 0.62 17.86 0.65 17.78 0.69 17.62 0.77 17.45 0.85 17.29 0.94 17.23 0.97 17.17 1 17.11 1.04 16.9 1.17 16.69 1.3 16.49 1.45 16.43 1.49 16.38 1.54 16.32 1.58 16.2 1.67 16.08 1.76 15.97 1.86 15.85 1.76 15.73 1.66 15.6 1.57 15.55 1.53 15.5 1.49 15.44 1.45 15.24 1.3 15.03 1.16 14.81 1.04 14.76 1.01 14.7 0.98 14.65 0.95 14.49 0.86 14.32 0.77 14.15 0.69 14.07 0.65 13.99 0.62 13.91 0.59 13.76 0.53 13.61 0.47 13.46 0.41 13.37 0.38 13.28 0.35 13.19 0.32 13.04 0.27 12.89 0.23 12.74 0.2 12.65 0.18 12.56 0.16 12.47 0.14 12.31 0.11 12.14 0.08 11.97 0.06 11.89 0.05 11.81 0.04 11.73 0.03 11.48 0.01 11.24-0.01 10.99-0.01 10.74-0.01 10.49-3.7071e-15 10.24 0.03 8.5 0.21 6.86 1.01 5.56 2.32 5.56 2.32 5.56 2.32 5.56 2.32 5.56 2.32 5.56 2.32 5.56 2.32L5.26 2.62 5.26 2.65C3.77 4.31 2.91 6.57 2.91 8.95 2.91 9.73 3 10.48 3.18 11.17L3.21 11.28C3.9 14.2 5.87 16.46 8.35 17.41L6.18 18.56 5.32907e-15 22.02 3.73 32 4.76 31.38C4.81 31.35 10.11 28.14 15.79 24.2L28.5 32.02 31.98 22.09ZM17.8 12.48 17.8 12.48C17.54 12.56 16.92 12.69 16.51 12.73 16.3 12.76 16.08 12.78 15.76 12.78 15.62 12.78 15.49 12.78 15.33 12.77 14.92 12.75 14.51 12.69 14.1 12.59L13.96 12.56C11.84 12.04 9.19 10.66 8.03 7.1 9.78 5.98 11.98 5.9 13.79 6.98 14.32 7.29 14.8 7.68 15.22 8.14L15.96 8.95 16.7 8.14C18.51 6.16 21.27 5.69 23.5 6.88 22.45 9.64 20.33 11.76 17.8 12.49ZM15.22 3.95 15.96 4.76 16.7 3.95C17.85 2.69 19.35 2 20.93 2 21.25 2 21.56 2.03 21.86 2.09 21.96 2.11 22.06 2.14 22.16 2.16 22.37 2.21 22.57 2.26 22.77 2.33 22.88 2.37 22.99 2.42 23.1 2.47 23.28 2.55 23.46 2.64 23.64 2.74 23.75 2.8 23.85 2.87 23.96 2.94 24.06 3.01 24.15 3.08 24.25 3.15 24.24 3.74 24.18 4.32 24.08 4.88 23.09 4.42 22.03 4.18 20.94 4.18 19.12 4.18 17.39 4.84 15.97 6.06 15.61 5.75 15.23 5.48 14.82 5.24 13.66 4.54 12.34 4.18 11.01 4.18 9.77 4.18 8.58 4.48 7.5 5.07 7.4 4.55 7.33 4 7.3 3.45 7.31 3.44 7.33 3.42 7.34 3.41 7.57 3.21 7.82 3.03 8.07 2.87 8.11 2.84 8.16 2.81 8.2 2.79 8.45 2.64 8.72 2.51 8.99 2.4 9.03 2.38 9.08 2.37 9.13 2.35 9.41 2.25 9.69 2.16 9.98 2.1 10.01 2.1 10.05 2.1 10.08 2.08 10.39 2.03 10.7 1.99 11.01 1.99 12.59 1.99 14.09 2.68 15.24 3.94ZM10.99 15.91C8.29 15.91 5.92 13.87 5.17 10.93L5.13 10.78C4.98 10.23 4.9 9.61 4.9 8.96 4.9 7.84 5.14 6.75 5.58 5.78 5.67 6.17 5.76 6.56 5.89 6.93L5.89 6.93C5.89 6.93 5.89 6.93 5.89 6.94 5.89 6.96 5.89 6.97 5.9 6.99L6.02 7.35C7.12 11.08 9.78 13.62 13.6 14.52L13.68 14.54C13.68 14.54 13.72 14.54 13.74 14.55L11.19 15.9C11.12 15.9 11.05 15.9 10.99 15.9ZM4.75 29.03 2.47 22.93 7.13 20.32 16.31 15.45 18.7 14.28 18.7 14.28C21.58 13.32 23.93 11.05 25.2 8.01L25.2 8.01 25.67 6.72C25.82 6.22 25.94 5.7 26.03 5.17 26.66 6.28 27.01 7.59 27.01 8.94 27.01 9.59 26.93 10.2 26.78 10.76L26.74 10.92C26.63 11.39 26.47 11.84 26.26 12.26 25.74 13.02 25.08 13.82 24.29 14.64L23.98 14.95C23.31 15.65 22.52 16.4 21.51 17.29 20.48 18.18 19.38 19.07 18.23 19.94 17.25 20.69 16.22 21.44 15.17 22.16 10.83 25.19 6.63 27.84 4.74 29.01ZM17.56 22.94C18.2 22.48 18.84 22.01 19.45 21.54 20.44 20.79 21.39 20.02 22.3 19.25L29.52 23.04 27.43 29 17.56 22.93Z" class="MsftOfcResponsive_Fill_7823dc" fill="#7823DC"/></svg>