<svg viewBox="0 0 32 32" xmlns="http://www.w3.org/2000/svg" xmlns:xlink="http://www.w3.org/1999/xlink" id="Graphic" overflow="hidden"><defs></defs><path d="M21.34 2.78C23.2401 4.67986 24.9919 6.72251 26.58 8.89L26.64 8.97C27.6247 10.3028 28.4692 11.7337 29.16 13.24 29.2083 13.3977 29.2685 13.5514 29.34 13.7 29.42 13.93 29.47 14.12 29.53 14.34 29.8366 15.4577 29.9946 16.611 30 17.77 30.0116 18.1547 29.9881 18.5396 29.93 18.92 29.509 23.9528 26.1614 28.2647 21.39 29.92 17.1819 28.4673 14.0383 24.9218 13.1 20.57L13.1 20.38C13.0763 20.251 13.0429 20.124 13 20L13 19.8C12.94 19.48 12.89 19.18 12.86 18.88 12.85 18.8305 12.85 18.7795 12.86 18.73L12.86 17.73C12.8387 16.5726 12.9801 15.418 13.28 14.3 13.34 14.08 13.4 13.87 13.47 13.66 13.5183 13.488 13.5819 13.3207 13.66 13.16 14.3017 11.7158 15.0856 10.339 16 9.05L16.06 9 16.11 8.92C17.6945 6.74947 19.443 4.70348 21.34 2.8M21.34 0 21.34 0 20.89 0.44C18.5598 2.67255 16.4222 5.09782 14.5 7.69L14.36 7.89C13.3281 9.30095 12.4403 10.8118 11.71 12.4 11.62 12.6 11.53 12.83 11.45 13.07 11.37 13.31 11.29 13.57 11.22 13.83 10.8809 15.1357 10.7194 16.4811 10.74 17.83L10.74 19.16 10.74 19.16C10.766 19.5789 10.833 19.9942 10.94 20.4 10.9383 20.6016 10.9585 20.8027 11 21 12.1674 26.2792 16.126 30.4986 21.32 32L21.32 32C27.1537 30.2953 31.3429 25.1847 31.87 19.13 31.87 18.69 31.94 18.24 31.95 17.8 31.9628 16.4509 31.7981 15.1061 31.46 13.8 31.39 13.54 31.32 13.28 31.24 13.04 31.16 12.8 31.07 12.57 30.98 12.37 30.2317 10.7536 29.3239 9.21596 28.27 7.78L28.19 7.66C26.2655 5.07283 24.128 2.65106 21.8 0.42L21.35 0Z" fill="#7823DC"/><path d="M22.34 1.98 20.34 1.98 20.34 30.62 22.34 30.62 22.34 1.98 22.34 1.98Z" fill="#7823DC"/><path d="M21.33 27.26 11.16 19.04 12.42 17.48 21.34 24.7 30.28 17.57 31.52 19.14 21.33 27.26Z" fill="#7823DC"/><path d="M21.33 21.59 11.71 13.81 12.97 12.26 21.34 19.03 29.51 12.52 30.75 14.08 21.33 21.59Z" fill="#7823DC"/><path d="M21.33 15.92 14.05 10.03 15.3 8.48 21.34 13.36 27.62 8.35 28.87 9.92 21.33 15.92Z" fill="#7823DC"/><path d="M21.33 10.54 16.34 6.5 17.6 4.95 21.34 7.97 25.25 4.85 26.5 6.42 21.33 10.54Z" fill="#7823DC"/><path d="M8.82 28 14.31 27.4C13.8222 26.807 13.3841 26.1749 13 25.51L6.59 26.2C5.90018 25.5342 5.28335 24.7967 4.75 24L11.88 23.23C11.6318 22.5958 11.4312 21.944 11.28 21.28L3.8 22.09C3.52148 21.3217 3.29104 20.5369 3.11 19.74L10.11 18.99 11.11 19.99C11.0839 19.738 11.0438 19.4876 10.99 19.24L10.99 19.24 10.99 18.7C10.99 18.54 10.99 18.13 10.99 17.84 10.9694 16.4911 11.1309 15.1457 11.47 13.84 11.54 13.58 11.62 13.32 11.7 13.08 11.78 12.84 11.87 12.61 11.96 12.41 12.05 12.21 12.18 11.94 12.3 11.71L12.43 10.55 12.85 10.66C13.19 10.06 13.55 9.47 13.94 8.88 12.8631 8.57032 11.7676 8.32983 10.66 8.16L10.52 8.16C7.2735 7.67616 3.99143 7.47208 0.71 7.55L0.06 7.55 0.06 8.18C-0.00184388 11.419 0.212263 14.6574 0.7 17.86L0.7 18.1C0.963472 19.8258 1.39898 21.5209 2 23.16 2.08 23.37 2.18 23.59 2.29 23.82 2.4 24.05 2.54 24.28 2.68 24.52 3.36709 25.6752 4.20813 26.7315 5.18 27.66 5.39 27.86 5.61 28.04 5.83 28.23L6.18 28.54 6.18 28.54C6.52 28.81 6.86 29.04 7.18 29.28 7.34 29.39 7.5 29.52 7.66 29.62 11.2068 31.9421 15.5958 32.5858 19.66 31.38 18.7285 30.9641 17.8379 30.4619 17 29.88 14.1374 30.2284 11.2432 29.5632 8.82 28ZM8.12 9.9C8.76 9.97 9.42 10.05 10.12 10.16L10.35 10.16 9.73 15.7 7.73 13.7ZM6.12 9.71 5.87 12 3.49 9.56C4.28 9.59 5.17 9.63 6.12 9.69ZM2.22 13.6C2.15 12.67 2.1 11.79 2.08 11L4.45 13.36ZM2.71 17.76 2.71 17.56C2.61 16.9 2.52 16.24 2.44 15.56L6.31 15.15 8.31 17.15Z" fill="#7823DC"/></svg>