<svg viewBox="0 0 32 32" xmlns="http://www.w3.org/2000/svg" xmlns:xlink="http://www.w3.org/1999/xlink" id="Graphic" overflow="hidden"><defs></defs><path d="M15.9927 9.01668C13.5112 9.01668 11.4927 6.99813 11.4927 4.51668 11.4927 2.03523 13.5112 0.01668 15.9927 0.01668 18.4741 0.01668 20.4927 2.03523 20.4927 4.51668 20.4927 6.99813 18.4741 9.01668 15.9927 9.01668ZM15.9927 2.01668C14.6143 2.01668 13.4927 3.13777 13.4927 4.51668 13.4927 5.89559 14.6143 7.01668 15.9927 7.01668 17.3711 7.01668 18.4927 5.89559 18.4927 4.51668 18.4927 3.13777 17.3711 2.01668 15.9927 2.01668Z" fill="#7823DC"/><path d="M26.0024 7.51668C24.3481 7.51668 23.0024 6.17098 23.0024 4.51668 23.0024 2.86238 24.3481 1.51668 26.0024 1.51668 27.6567 1.51668 29.0024 2.86238 29.0024 4.51668 29.0024 6.17098 27.6567 7.51668 26.0024 7.51668ZM26.0024 3.51668C25.4512 3.51668 25.0024 3.96492 25.0024 4.51668 25.0024 5.06844 25.4512 5.51668 26.0024 5.51668 26.5537 5.51668 27.0024 5.06844 27.0024 4.51668 27.0024 3.96492 26.5537 3.51668 26.0024 3.51668Z" fill="#7823DC"/><path d="M5.99316 7.51668C4.33886 7.51668 2.99316 6.17098 2.99316 4.51668 2.99316 2.86238 4.33886 1.51668 5.99316 1.51668 7.64746 1.51668 8.99316 2.86238 8.99316 4.51668 8.99316 6.17098 7.64746 7.51668 5.99316 7.51668ZM5.99316 3.51668C5.44189 3.51668 4.99316 3.96492 4.99316 4.51668 4.99316 5.06844 5.44189 5.51668 5.99316 5.51668 6.54443 5.51668 6.99316 5.06844 6.99316 4.51668 6.99316 3.96492 6.54443 3.51668 5.99316 3.51668Z" fill="#7823DC"/><path d="M24.0024 17.5402 22.0024 17.5402 22.0024 14.5169 10.0024 14.5169 10.0024 20.0069 8.00237 20.0069 8.00237 12.5169 24.0024 12.5169 24.0024 17.5402Z" fill="#7823DC"/><path d="M28.0273 8.51694 20.0024 8.51694 20.0024 11.5169 22.0024 11.5169 22.0024 10.5169 30.0024 10.5169 30.0024 16.5169 32.0024 16.5169 32.0024 12.4773 28.0273 8.51694Z" fill="#7823DC"/><path d="M3.99059 8.51694 0.00237 12.5263 0.00237 16.5169 2.00237 16.5169 2.00237 10.5169 10.0024 10.5169 10.0024 11.5169 12.0024 11.5169 12.0024 8.51694 3.99059 8.51694Z" fill="#7823DC"/><path d="M10.8281 26.0401 11.9783 24.8957 11.9783 22.0744 8 26.0322 11.9783 30.0297 11.9783 27.1957 10.8281 26.0401Z" fill="#7823DC"/><path d="M21.1525 26.064 20.0024 27.2084 20.0024 30.0297 23.9806 26.0718 20.0024 22.0744 20.0024 24.9083 21.1525 26.064Z" fill="#7823DC"/><path d="M16.8152 20.0069 12.8798 32 14.9846 32 18.9201 20.0069 16.8152 20.0069Z" fill="#7823DC"/></svg>