<svg viewBox="0 0 31.89 32.01" xmlns="http://www.w3.org/2000/svg" xmlns:xlink="http://www.w3.org/1999/xlink" id="Outline_Final_icon" overflow="hidden"><defs></defs><rect x="9.87" y="4.18" width="16.61" height="2" fill="#7823DC"/><path d="M25.23 12.66 23.89 11.18 16.09 18.22 14.89 16.97 11.43 18.17 11.43 16.26 0 16.26 0 18.26 9.43 18.26 9.43 20.99 14.34 19.28 15.96 20.96 9.19 23.83 6.85 23.83 6.85 25.83 9.14 25.83 9.14 32.01 11.14 32.01 11.14 25.18 19.42 21.67 17.48 19.66 25.23 12.66Z" fill="#7823DC"/><rect x="9.87" y="8.11" width="10.94" height="2" fill="#7823DC"/><path d="M4.85 15.16C6.89 15.16 8.55 13.5 8.55 11.46 8.55 9.42 6.89 7.76 4.85 7.76 2.81 7.76 1.15 9.42 1.15 11.46 1.15 13.5 2.81 15.16 4.85 15.16ZM4.85 9.76C5.79 9.76 6.55 10.52 6.55 11.46 6.55 12.4 5.79 13.16 4.85 13.16 3.91 13.16 3.15 12.4 3.15 11.46 3.15 10.52 3.91 9.76 4.85 9.76Z" fill="#7823DC"/><path d="M28.15 0 4.45 0 4.45 6.15 6.45 6.15 6.45 2 29.89 2 29.89 17.4 21.9 17.4 21.9 19.4 31.89 19.4 31.89 3.74 28.15 0Z" fill="#7823DC"/></svg>