<svg viewBox="0 0 32 32" xmlns="http://www.w3.org/2000/svg" xmlns:xlink="http://www.w3.org/1999/xlink" id="Layer_1" xml:space="preserve" overflow="hidden"><style>
.MsftOfcResponsive_Fill_7823dc {
 fill:#7823DC; 
}
</style>
<g id="Layer_2_00000013912985461116041430000015904895619479836035_" display="none"><g><path d="M15 3C14.9 3 14.7 3 14.6 3 14.4 3 14.2 3 14.1 3 13.4 3 12.7 3.1 12.1 3.2L12.7 3.8 13.8 5C14 5 14.3 5 14.6 5 15.6 5 16.7 5.1 17.7 5.4 21.2 6.3 24.1 8.6 25.7 11.7L28.8 14.8 28.8 14.4C27.4 8 21.8 3.2 15 3ZM25.9 22.9 25.9 22.9C24.3 26.2 21.3 28.7 17.6 29.6 16.6 29.8 15.6 30 14.6 30 13.5 30 12.5 29.9 11.5 29.6 6.4 28.3 2.6 23.9 2.1 18.5 2.1 18.2 2.1 17.8 2.1 17.5 2.1 17.2 2.1 16.8 2.1 16.5 2.4 12.2 5 8.5 8.6 6.5L7.1 5.1C2.9 7.6 0 12.3 0 17.5 0 25.5 6.5 32 14.5 32 20.6 32 25.8 28.2 28 22.9L25.9 22.9Z" class="MsftOfcResponsive_Fill_7823dc" fill="#7823DC"/><path d="M21.4 18.5 0.3 18.5 0.3 16.5 23.7 16.5 25.3 18.5" class="MsftOfcResponsive_Fill_7823dc" fill="#7823DC"/></g><path d="M18.1 16.5C18.1 16.8 18.1 17.1 18.1 17.5 18.1 17.8 18.1 18.2 18.1 18.5 17.9 26 15.4 29.9 14.6 29.9 13.8 29.9 11.2 26 11 18.5 11 18.2 11 17.8 11 17.5 11 17.2 11 16.8 11 16.5 11.1 13.8 11.4 11.6 11.9 9.9L10.2 8.2C9.5 10.5 9 13.3 9 16.5 9 16.8 9 17.1 9 17.5 9 17.8 9 18.2 9 18.5 9.1 23.2 10.1 27.2 11.5 29.6 12.4 31.1 13.4 32 14.6 32 15.8 32 16.8 31.1 17.7 29.6 19.1 27.2 20.1 23.1 20.2 18.5 20.2 18.2 20.2 17.8 20.2 17.5 20.2 17.2 20.2 16.8 20.2 16.5M19.6 16.5 18.5 16.5M17.6 5.4C16.9 4.1 16 4.2 15 4 14.8 4 14.7 4 14.5 4 14.3 4 14.2 4 14 4 13.5 4.1 13 3.4 12.6 3.8L13.8 5 14 5.2C14.2 5.1 14.4 5 14.5 5 14.9 5 15.7 5.9 16.4 7.6L19 10.2M18.1 16.5C18.1 16.8 18.1 17.1 18.1 17.5 18.1 17.8 18.1 18.2 18.1 18.5L20.2 18.5C20.2 18.2 20.2 17.8 20.2 17.5 20.2 17.2 20.2 16.8 20.2 16.5L19.7 16.5 19 17.1 18.4 16.5" class="MsftOfcResponsive_Fill_7823dc" fill="#7823DC"/><path d="M65.9 19.4 65.9 13.9 64.1 12.1 64.1 16.3 55.5 7.9 52.9 10.4 42.6 0 40.1 0 52.9 12.9 55.5 10.4 62.8 17.6 58.5 17.6 60.3 19.4Z" class="MsftOfcResponsive_Fill_7823dc" fill="#7823DC"/><g><path d="M32.1 21.4 32.1 15.9 30.2 14.1 30.2 18.3 21.6 9.9 19 12.4 8.7 2 6.2 2 19 14.9 21.6 12.4 29 19.6 24.7 19.6 26.5 21.4Z" class="MsftOfcResponsive_Fill_7823dc" fill="#7823DC"/><line x1="18.5" y1="16.5" x2="19.6" y2="16.5" fill="none"/></g></g><path d="M10.5 15.9C9.1 15.9 8 14.8 8 13.4 8 12 9.1 10.9 10.5 10.9 11.9 10.9 13 12 13 13.4 13 14.8 11.9 15.9 10.5 15.9ZM10.5 12.9C10.2 12.9 10 13.1 10 13.4 10 13.7 10.2 13.9 10.5 13.9 10.8 13.9 11 13.7 11 13.4 11 13.1 10.8 12.9 10.5 12.9Z" class="MsftOfcResponsive_Fill_7823dc" fill="#7823DC"/><path d="M21.5 16C20.1 16 19 14.9 19 13.5 19 12.1 20.1 11 21.5 11 22.9 11 24 12.1 24 13.5 24 14.9 22.9 16 21.5 16ZM21.5 12.9C21.2 12.9 21 13.1 21 13.4 21 13.7 21.2 13.9 21.5 13.9 21.8 13.9 22 13.7 22 13.4 22 13.2 21.8 12.9 21.5 12.9Z" class="MsftOfcResponsive_Fill_7823dc" fill="#7823DC"/><circle cx="16" cy="2.5" r="2.5" class="MsftOfcResponsive_Fill_7823dc" fill="#7823DC" fill-rule="evenodd" clip-rule="evenodd"/><rect x="15" y="3.5" width="2" height="5.3" class="MsftOfcResponsive_Fill_7823dc" fill="#7823DC"/><path d="M16 20.8C12.8 20.8 10.3 19.1 10.3 17L12.3 17C12.3 17.8 13.9 18.8 16 18.8 18.1 18.8 19.7 17.8 19.7 17L21.7 17C21.8 19.1 19.2 20.8 16 20.8Z" class="MsftOfcResponsive_Fill_7823dc" fill="#7823DC"/><path d="M29 10.8 30.5 10.8C31.3 10.8 32 11.2 32 11.8L32 18.6C32 19.2 31.3 19.6 30.5 19.6L29 19.6 29 10.8Z" class="MsftOfcResponsive_Fill_7823dc" fill="#7823DC"/><path d="M3 10.8 1.5 10.8C0.7 10.8 0 11.2 0 11.8L0 18.6C0 19.2 0.7 19.6 1.5 19.6L3 19.6 3 10.8Z" class="MsftOfcResponsive_Fill_7823dc" fill="#7823DC"/><path d="M27 9C27.6 9 28.1 9.4 28.1 10L28.1 21.9C28.1 22.4 27.6 22.9 27 22.9L15 22.9 14.1 22.9 13.5 23.6 9.9 27.8 8.9 24.3 8.5 22.8 7 22.8 5.1 22.8C4.5 22.8 4 22.4 4 21.8L4 10C4 9.5 4.5 9 5.1 9L27 9M27 7 5.1 7C3.4 7 2 8.3 2 10L2 21.9C2 23.6 3.4 24.9 5.1 24.9L7 24.9 9 32 15 24.9 27 24.9C28.7 24.9 30.1 23.6 30.1 21.9L30.1 10C30 8.3 28.6 7 27 7L27 7Z" class="MsftOfcResponsive_Fill_7823dc" fill="#7823DC"/></svg>