<svg viewBox="0 0 32 32" xmlns="http://www.w3.org/2000/svg" xmlns:xlink="http://www.w3.org/1999/xlink" overflow="hidden"><style>
.MsftOfcResponsive_Fill_7823dc {
 fill:#7823DC; 
}
</style>
<defs></defs><g id="Layer_5"><path d="M30 16 18.18 8.2C19.4173 7.01668 19.4611 5.05435 18.2778 3.81703 18.1905 3.72578 18.0977 3.63994 18 3.56L18 2 20 2 20 0 13.9 0 13.9 2 16 2 16 2.79 16 2.79 16 4.79C16.6103 4.68783 17.1878 5.09973 17.29 5.71 17.3922 6.32027 16.9803 6.89783 16.37 7L16.05 6.78 15.7 7C15.2424 6.87408 14.9138 6.47341 14.88 6L12.88 6C12.8869 6.85912 13.2488 7.67713 13.88 8.26L1.78 16ZM8.55 14 16 9.18 23.33 14Z" class="MsftOfcResponsive_Fill_7823dc" fill="#7823DC"/><path d="M2 18 2 32 22 32 22 20 28 20 28 32 30 32 30 18ZM20 30 4 30 4 20 20 20Z" class="MsftOfcResponsive_Fill_7823dc" fill="#7823DC"/><path d="M18 22 10 22 10 28 18 28ZM16 26 12 26 12 24 16 24Z" class="MsftOfcResponsive_Fill_7823dc" fill="#7823DC"/></g></svg>