<svg viewBox="0 0 32 32" xmlns="http://www.w3.org/2000/svg" xmlns:xlink="http://www.w3.org/1999/xlink" id="Layer_1" overflow="hidden"><style>
.MsftOfcResponsive_Fill_7823dc {
 fill:#7823DC; 
}
</style>
<defs></defs><path d="M11 11.74 11 9.74C9.54 9.74 8.36 8.56 8.36 7.1 8.36 5.64 9.55 4.46 11 4.46 11.36 4.46 11.72 4.53 12.06 4.68L13.14 5.15 13.43 4C13.72 2.82 14.78 1.99 16 1.99 17.22 1.99 18.28 2.82 18.57 4L18.86 5.17 19.96 4.68C20.29 4.53 20.65 4.46 21.02 4.46 22.48 4.46 23.66 5.65 23.66 7.1 23.66 8.55 22.47 9.74 21.02 9.74L21.02 11.74C23.58 11.74 25.66 9.66 25.66 7.1 25.66 4.54 23.58 2.46 21.02 2.46 20.73 2.46 20.44 2.49 20.15 2.54 19.38 1 17.79 -8.88178e-16 16.01 -8.88178e-16 14.23 -8.88178e-16 12.65 1.01 11.87 2.54 11.59 2.49 11.3 2.46 11.02 2.46 8.46 2.46 6.38 4.54 6.38 7.1 6.38 9.66 8.46 11.74 11.02 11.74Z" class="MsftOfcResponsive_Fill_7823dc" fill="#7823DC"/><path d="M20.6 7.77C19.42 6.6 17.8 5.87 16.01 5.87 14.22 5.87 12.59 6.6 11.42 7.77L12.54 8.9C13.43 8.02 14.65 7.46 16.01 7.46 17.37 7.46 18.58 8.02 19.47 8.9L20.6 7.77Z" class="MsftOfcResponsive_Fill_7823dc" fill="#7823DC"/><path d="M18.98 9.38C18.21 8.62 17.17 8.14 16 8.14 14.83 8.14 13.78 8.62 13.01 9.37L13.57 9.93 14.13 10.49C14.61 10.02 15.26 9.72 15.99 9.72 16.72 9.72 17.37 10.02 17.85 10.49L18.97 9.37Z" class="MsftOfcResponsive_Fill_7823dc" fill="#7823DC"/><rect x="6.35" y="24.33" width="1.97" height="1.97" class="MsftOfcResponsive_Fill_7823dc" fill="#7823DC"/><rect x="6.35" y="27.23" width="1.97" height="1.97" class="MsftOfcResponsive_Fill_7823dc" fill="#7823DC"/><rect x="23.69" y="24.33" width="1.97" height="1.97" class="MsftOfcResponsive_Fill_7823dc" fill="#7823DC"/><rect x="23.69" y="27.23" width="1.97" height="1.97" class="MsftOfcResponsive_Fill_7823dc" fill="#7823DC"/><rect x="15.02" y="19.48" width="1.97" height="1.97" class="MsftOfcResponsive_Fill_7823dc" fill="#7823DC"/><rect x="15.02" y="23.35" width="1.97" height="1.97" class="MsftOfcResponsive_Fill_7823dc" fill="#7823DC"/><rect x="15.02" y="27.21" width="1.97" height="1.97" class="MsftOfcResponsive_Fill_7823dc" fill="#7823DC"/><path d="M30 30 30 22.7 21.33 19.56 21.33 16.66 19 16.66 19 13.49 13 13.49 13 16.66 10.67 16.66 10.67 21.24 2 21.24 2 30 0 30 0 32 32 32 32 30 30 30ZM15 15.48 17 15.48 17 16.54 15 16.54 15 15.48ZM4 30 4 23.24 10.67 23.24 10.67 30 4 30ZM12.67 30 12.67 18.66 19.34 18.66 19.34 30 12.67 30ZM21.34 30 21.34 21.69 28.01 24.11 28.01 30.01 21.34 30.01Z" class="MsftOfcResponsive_Fill_7823dc" fill="#7823DC"/><path d="M14.64 11.01 16 12.59 17.36 11.01C17.01 10.66 16.54 10.45 16 10.45 15.46 10.45 14.99 10.66 14.64 11.01Z" class="MsftOfcResponsive_Fill_7823dc" fill="#7823DC"/></svg>