<svg viewBox="0 0 32 32" xmlns="http://www.w3.org/2000/svg" xmlns:xlink="http://www.w3.org/1999/xlink" id="Layer_1" overflow="hidden"><style>
.MsftOfcResponsive_Fill_7823dc {
 fill:#7823DC; 
}
</style>
<defs></defs><path d="M16 2C24.49 2 29.21 4.05 29.95 5 29.22 5.95 24.5 8 16 8 7.5 8 2.79 5.95 2.05 5 2.78 4.05 7.5 2 16 2M16 0C7.16 0 0 2.24 0 5 0 7.76 7.16 10 16 10 24.84 10 32 7.76 32 5 32 2.24 24.84 0 16 0L16 0Z" class="MsftOfcResponsive_Fill_7823dc" fill="#7823DC"/><path d="M18.01 6C25.59 6 29.65 8.14 30 9 29.65 9.86 25.59 12 18.01 12 10.43 12 6.37 9.86 6.02 9 6.37 8.14 10.43 6 18.01 6M18.01 4C10.28 4 4.02 6.24 4.02 9 4.02 11.76 10.29 14 18.01 14 25.73 14 32 11.76 32 9 32 6.24 25.73 4 18.01 4L18.01 4Z" class="MsftOfcResponsive_Fill_7823dc" fill="#7823DC"/><path d="M17.99 18.7C10.2 18.7 6.32 15.66 5.31 14.73L6.67 13.26C7.54 14.07 10.93 16.7 17.99 16.7 25.05 16.7 28.44 14.07 29.31 13.26L30.67 14.73C29.66 15.66 25.77 18.7 17.99 18.7Z" class="MsftOfcResponsive_Fill_7823dc" fill="#7823DC"/><path d="M17.99 23.14C12.34 23.14 9.24 21.39 7.41 20.08L8.57 18.45C10.18 19.6 12.91 21.14 17.99 21.14 23.07 21.14 25.8 19.61 27.41 18.45L28.57 20.08C26.73 21.39 23.64 23.14 17.99 23.14Z" class="MsftOfcResponsive_Fill_7823dc" fill="#7823DC"/><path d="M17.99 27.57C13.52 27.57 11.23 26.16 9.71 25.23L9.47 25.09 10.51 23.38 10.75 23.53C12.16 24.39 14.08 25.57 17.99 25.57 21.9 25.57 23.82 24.39 25.23 23.53L25.47 23.38 26.51 25.09 26.27 25.23C24.75 26.16 22.46 27.57 17.99 27.57Z" class="MsftOfcResponsive_Fill_7823dc" fill="#7823DC"/><path d="M17.99 32C14.72 32 13.14 31.15 11.86 30.47L11.48 30.27 12.4 28.5 12.8 28.71C13.99 29.35 15.21 30 17.98 30 20.75 30 22.07 29.3 23.21 28.68L23.55 28.5 24.49 30.27 24.16 30.44C22.94 31.1 21.28 32 17.98 32Z" class="MsftOfcResponsive_Fill_7823dc" fill="#7823DC"/></svg>