<svg viewBox="0 0 32 32" xmlns="http://www.w3.org/2000/svg" xmlns:xlink="http://www.w3.org/1999/xlink" id="Layer_1" overflow="hidden"><g><g><path d="M20 2 20 18 12 18 12 2 20 2M21 0 11 0C10.4 0 10 0.4 10 1L10 19C10 19.6 10.4 20 11 20L21 20C21.6 20 22 19.6 22 19L22 1C22 0.5 21.5 0 21 0L21 0Z" fill="#7823DC"/></g><g><path d="M20 20 20 29.1 12 29.1 12 20 20 20M21 18 11 18C10.4 18 10 18.4 10 19L10 30.1C10 30.7 10.4 31.1 11 31.1L21 31.1C21.6 31.1 22 30.7 22 30.1L22 19C22 18.4 21.5 18 21 18L21 18Z" fill="#7823DC"/></g><g><rect x="13" y="13.9" width="2" height="3.1" fill="#7823DC"/></g><g><rect x="13" y="20.9" width="2" height="3" fill="#7823DC"/></g><rect x="19" y="30" width="2" height="2" fill="#7823DC"/><rect x="11" y="30" width="2" height="2" fill="#7823DC"/></g></svg>