<svg viewBox="0 0 32 32" xmlns="http://www.w3.org/2000/svg" xmlns:xlink="http://www.w3.org/1999/xlink" xml:space="preserve" overflow="hidden"><style>
.MsftOfcResponsive_Fill_7823dc {
 fill:#7823DC; 
}
</style>
<g id="Layer_3"></g><g id="Layer_1"><rect x="14.83" y="10.88" width="2" height="21.12" class="MsftOfcResponsive_Fill_7823dc" fill="#7823DC"/><rect x="14.98" y="13.96" width="6.44" height="2" class="MsftOfcResponsive_Fill_7823dc" fill="#7823DC" transform="matrix(0.6828 -0.7306 0.7306 0.6828 -5.1569 18.0416)"/><rect x="12.1" y="15.06" width="2" height="6.19" class="MsftOfcResponsive_Fill_7823dc" fill="#7823DC" transform="matrix(0.6523 -0.758 0.758 0.6523 -9.2088 16.2399)"/><path d="M19.94 27.23C18.39 27.23 16.91 26.66 15.76 25.63 14.63 26.57 13.22 27.1 11.74 27.1 8.59 27.1 5.95 24.77 5.5 21.69 3.08 20.24 1.6 17.65 1.6 14.8 1.6 10.92 4.32 7.66 8.04 6.92 8.65 3.06 11.99 0.14 15.98 0.14 19.96 0.14 23.3 3.05 23.91 6.91 27.67 7.63 30.41 10.89 30.41 14.8 30.41 17.76 28.77 20.48 26.18 21.88 25.71 24.92 23.07 27.23 19.94 27.23ZM15.81 22.63 16.57 23.58C17.41 24.63 18.64 25.23 19.94 25.23 22.22 25.23 24.11 23.44 24.24 21.16L24.28 20.56 24.83 20.31C27 19.33 28.4 17.17 28.4 14.8 28.4 11.65 26.04 9.07 22.9 8.78L22.05 8.7 22 7.84C21.82 4.64 19.17 2.14 15.97 2.14 12.77 2.14 10.12 4.65 9.94 7.85L9.9 8.7 9.05 8.78C5.94 9.08 3.6 11.67 3.6 14.79 3.6 17.07 4.86 19.13 6.9 20.17L7.41 20.43 7.44 21C7.57 23.29 9.46 25.09 11.74 25.09 12.99 25.09 14.19 24.53 15.02 23.55L15.81 22.63Z" class="MsftOfcResponsive_Fill_7823dc" fill="#7823DC"/></g><g id="Layer_2"></g></svg>