<svg viewBox="0 0 32 32" xmlns="http://www.w3.org/2000/svg" xmlns:xlink="http://www.w3.org/1999/xlink" id="Layer_1" overflow="hidden"><path d="M20.8 14.5C20.5 13.5 19.9 12.6 19.1 12 18.5 11.5 17.8 11.2 17 11L17 11C16.8 11 16.7 10.9 16.5 10.9 16.3 10.9 16.2 10.9 16 10.9 15.5 10.9 15 11 14.5 11.1 13.5 11.4 12.6 12 12 12.8 11.5 13.4 11.2 14.1 11 14.9L11 14.9C11 15.1 10.9 15.2 10.9 15.4 10.9 15.6 10.9 15.7 10.9 15.9 10.9 16.4 11 16.9 11.1 17.4 11.4 18.4 12 19.3 12.8 19.9 13.4 20.4 14.1 20.7 14.9 20.9L14.9 20.9C15.1 20.9 15.2 21 15.4 21 15.6 21 15.7 21 15.9 21 16.4 21 16.9 20.9 17.4 20.8 18.4 20.5 19.3 19.9 19.9 19.1 20.4 18.5 20.7 17.8 20.9 17L20.9 17C20.9 16.8 21 16.7 21 16.5 21 16.3 21 16.2 21 16 21.1 15.5 21 15 20.8 14.5ZM17.5 18.7C17 18.9 16.5 19.1 16 19.1 15.8 19.1 15.7 19.1 15.5 19.1 15.5 19.1 15.4 19.1 15.3 19.1 15 19 14.8 18.9 14.6 18.8 14.1 18.5 13.6 18.1 13.3 17.6 13.1 17.1 12.9 16.6 12.9 16.1 12.9 15.9 12.9 15.8 12.9 15.6 12.9 15.6 12.9 15.5 12.9 15.4 13 15.1 13.1 14.9 13.2 14.7 13.5 14.2 13.9 13.7 14.4 13.4 14.9 13.2 15.4 13 15.9 13 16.1 13 16.2 13 16.4 13 16.4 13 16.5 13 16.6 13 16.9 13.1 17.1 13.2 17.3 13.3 17.8 13.6 18.3 14 18.6 14.5 18.8 15 19 15.5 19 16 19 16.2 19 16.3 19 16.5 19 16.5 19 16.6 19 16.7 18.9 17 18.8 17.2 18.7 17.4 18.5 17.9 18 18.4 17.5 18.7Z" fill="#7823DC"/><g><path d="M0 0 8.1 11 9.3 12.6 11 15 11 15 11.4 15.5 12.9 17.5 14 19 15.3 19C15 18.9 14.8 18.8 14.6 18.7 14.1 18.4 13.6 18 13.3 17.5 13.1 17 12.9 16.5 12.9 16 12.9 15.8 12.9 15.7 12.9 15.5L12.9 15.5 12.9 15.3C13 15 13.1 14.8 13.2 14.6L13 14.3 12 12.9 4 2 14.5 2 14.5 13.3C15 13.1 15.5 12.9 16 12.9 16.2 12.9 16.3 12.9 16.5 12.9L16.5 0 0 0Z" fill="#7823DC"/><rect x="17.3" y="-0.2" width="2" height="10.9" fill="#7823DC" transform="matrix(0.8699 -0.4933 0.4933 0.8699 -0.207 9.7125)"/></g><g><path d="M18.7 17.4C18.4 17.9 18 18.4 17.5 18.7 17 18.9 16.5 19.1 16 19.1 15.8 19.1 15.7 19.1 15.5 19.1L15.5 19.1 15.3 19.1C15 19 14.8 18.9 14.6 18.8L14.3 19 12.9 20 2 28 2 17.5 13.3 17.5C13.1 17 12.9 16.5 12.9 16 12.9 15.8 12.9 15.7 12.9 15.5L0 15.5 0 32 11 23.9 12.6 22.7 15 21 15 21 15.5 20.6 17.5 19.1 19 18 19 16.7C18.9 16.9 18.8 17.2 18.7 17.4Z" fill="#7823DC"/><rect x="-0.2" y="12.7" width="10.9" height="2" fill="#7823DC" transform="matrix(0.87 -0.4931 0.4931 0.87 -6.0701 4.3685)"/></g><g><path d="M23.9 21 22.7 19.4 21 17 21 17 20.6 16.5 19.1 14.5 18 13 16.7 13C17 13.1 17.2 13.2 17.4 13.3 17.9 13.6 18.4 14 18.7 14.5 18.9 15 19.1 15.5 19.1 16 19.1 16.2 19.1 16.3 19.1 16.5L19.1 16.5 19.1 16.7C19 17 18.9 17.2 18.8 17.4L19.1 17.8 20.1 19.2 28 30 17.5 30 17.5 18.7C17 18.9 16.5 19.1 16 19.1 15.8 19.1 15.7 19.1 15.5 19.1L15.5 32.1 32 32.1 23.9 21Z" fill="#7823DC"/><rect x="12.7" y="21.3" width="2" height="10.9" fill="#7823DC" transform="matrix(0.8699 -0.4933 0.4933 0.8699 -11.4137 10.2359)"/></g><g><path d="M21 8.1 19.4 9.3 17 11 17 11 16.5 11.4 14.5 12.9 13 14 13 15.3C13.1 15 13.2 14.8 13.3 14.6 13.6 14.1 14 13.6 14.5 13.3 15 13.1 15.5 12.9 16 12.9 16.2 12.9 16.3 12.9 16.5 12.9L16.5 12.9 16.7 12.9C17 13 17.2 13.1 17.4 13.2L17.8 12.9 19.2 11.9 30 4 30 14.5 18.7 14.5C18.9 15 19.1 15.5 19.1 16 19.1 16.2 19.1 16.3 19.1 16.5L32.1 16.5 32.1 0 21 8.1Z" fill="#7823DC"/><rect x="21.3" y="17.3" width="10.9" height="2" fill="#7823DC" transform="matrix(0.87 -0.4931 0.4931 0.87 -5.5481 15.5709)"/></g></svg>