<svg viewBox="0 0 29.22 29.22" xmlns="http://www.w3.org/2000/svg" xmlns:xlink="http://www.w3.org/1999/xlink" id="Layer_5" overflow="hidden"><defs></defs><path d="M23.47 18.17 19.96 12.66 19.92 12.6 6.21 12.6 2.3 18.96 1.83 18.96 1.83 12.45C1.83 9 4.63 6.27 7.99 6.27L8.74 6.27C8.79 8.31 10.44 9.94 12.49 9.94L16.08 9.94 16.08 8.99 19.75 8.99 19.75 7.15 16.08 7.15 16.08 3.54 19.75 3.54 19.75 1.7 16.08 1.7 16.08 0.75 12.49 0.75C10.44 0.75 8.79 2.38 8.74 4.42L7.99 4.42C3.6 4.44 0 8.05 0 12.46L0 19.2 0 19.2 0 23.78 2.93 26.72C3.1 28.17 4.27 29.21 5.73 29.21 6.9 29.21 7.91 28.54 8.35 27.48L19.32 27.48C19.75 28.53 20.77 29.21 21.94 29.21 23.11 29.21 24.12 28.54 24.56 27.48L29.22 27.48 29.22 19.99 23.47 18.16ZM10.58 4.53C10.58 3.49 11.46 2.61 12.5 2.61L14.26 2.61 14.26 8.12 12.5 8.12C11.46 8.12 10.58 7.24 10.58 6.2L10.58 4.52ZM14.73 14.67 18.88 14.67 21.64 18.97 14.73 18.97 14.73 14.67ZM5.74 27.15C5.27 27.15 4.96 26.84 4.96 26.36 4.96 25.88 5.27 25.57 5.74 25.57 6.21 25.57 6.52 25.88 6.52 26.36 6.52 26.84 6.21 27.15 5.74 27.15ZM12.67 25.42 8.37 25.42C7.94 24.26 6.92 23.51 5.74 23.51 4.49 23.51 3.45 24.26 3.06 25.42L2.06 25.42 2.06 21.03 12.67 21.03 12.67 25.42ZM12.67 18.97 4.71 18.97 7.25 14.67 12.67 14.67 12.67 18.97ZM21.94 27.15C21.47 27.15 21.16 26.84 21.16 26.36 21.16 25.88 21.57 25.57 21.94 25.57 22.41 25.57 22.72 25.88 22.72 26.36 22.72 26.84 22.41 27.15 21.94 27.15ZM27.16 21.79 25.35 21.79 25.35 23.86 27.16 23.86 27.16 25.43 24.62 25.43C24.23 24.27 23.19 23.52 21.94 23.52 20.69 23.52 19.65 24.27 19.26 25.43L14.73 25.43 14.73 21.04 25.69 21.04C25.69 21.04 27.15 21.46 27.15 21.46L27.15 21.79Z" stroke-width="0" fill="#7823DC"/><path d="M24.66 5.46 26.43 5.45 26.43 3.26 28.1 4.93 28.1 2.47 25.54 0 22.98 2.47 22.98 4.85 24.66 3.26 24.66 5.46Z" stroke-width="0" fill="#7823DC"/><path d="M21.38 12.28 22.35 12.28C22.48 12.99 22.86 13.64 23.46 14.22 24.07 14.8 25 15.09 26.27 15.09 27.05 15.09 27.72 14.9 28.28 14.52L28.28 12.53C27.61 13.03 26.9 13.28 26.13 13.28 25.43 13.28 24.98 12.95 24.77 12.28L26.38 12.28 26.61 11.31 24.63 11.31 24.63 11.03C24.63 10.9 24.63 10.79 24.63 10.72L26.51 10.72 26.74 9.75 24.82 9.75C25.06 9.13 25.53 8.82 26.22 8.82 26.75 8.82 27.25 9.04 27.73 9.49L28.21 7.56C27.51 7.2 26.83 7.02 26.15 7.02 24.08 7.02 22.81 7.93 22.35 9.76L21.77 9.76 21.52 10.73 22.23 10.73C22.23 10.79 22.22 10.9 22.22 11.04 22.22 11.18 22.22 11.27 22.23 11.32L21.64 11.32 21.38 12.29Z" stroke-width="0" fill="#7823DC"/></svg>