<svg viewBox="0 0 32 32" xmlns="http://www.w3.org/2000/svg" xmlns:xlink="http://www.w3.org/1999/xlink" id="Layer_1" overflow="hidden"><style>
.MsftOfcThm_Text2_Fill_v2 {
 fill:#7823DC; 
}
</style>
<path d="M27.41 32 0 32 0 8 8 8 8 10 2 10 2 30 26.59 30 30 26.59 30 10 14 10 14 8 32 8 32 27.41 27.41 32Z" class="MsftOfcThm_Text2_Fill_v2" fill="#7823DC"/><rect x="16" y="17" width="11" height="2" class="MsftOfcThm_Text2_Fill_v2" fill="#7823DC"/><rect x="9" y="23" width="18" height="2" class="MsftOfcThm_Text2_Fill_v2" fill="#7823DC"/><path d="M9 19C8.17 19 7.38 18.61 6.81 17.92 6.29 17.28 6 16.45 6 15.57L6 11.93 8 11.93 8 15.57C8 15.98 8.13 16.38 8.36 16.65 8.73 17.1 9.28 17.1 9.64 16.65 9.87 16.37 10 15.98 10 15.57L10 4.64C10 3.91 9.76 3.2 9.35 2.7 8.6 1.79 7.4 1.79 6.65 2.7 6.24 3.2 6 3.91 6 4.64L6 6 4 6 4 4.64C4 3.43 4.39 2.29 5.11 1.43 5.86 0.52 6.91 -2.22045e-16 8 -2.22045e-16 9.09 -2.22045e-16 10.14 0.52 10.89 1.43 11.6 2.3 12 3.44 12 4.64L12 15.57C12 16.45 11.71 17.29 11.19 17.92 10.63 18.6 9.83 19 9 19Z" class="MsftOfcThm_Text2_Fill_v2" fill="#7823DC"/></svg>