<svg viewBox="0 0 32 32" xmlns="http://www.w3.org/2000/svg" xmlns:xlink="http://www.w3.org/1999/xlink" id="Layer_1" overflow="hidden"><path d="M30 20 30 30 2 30 2 20 30 20M32 18 0 18 0 32 32 32 32 18 32 18Z" fill="#7823DC"/><path d="M30 1.9 30 5.1 2 5.1 2 1.9 30 1.9M32-0.1 0-0.1 0 7.1 32 7.1 32-0.1 32-0.1Z" fill="#7823DC"/><rect x="8" y="20" width="2" height="10" fill="#7823DC"/><rect x="22" y="20" width="2" height="10" fill="#7823DC"/><rect x="2" y="22" width="6" height="2" fill="#7823DC"/><rect x="24" y="22" width="6" height="2" fill="#7823DC"/><path d="M19 23 19 24 13 24 13 23 19 23M21 21 11 21 11 26 21 26 21 21 21 21Z" fill="#7823DC"/><rect x="13" y="27" width="6" height="2" fill="#7823DC"/><path d="M9 18 4 18C2.9 18 2 17.1 2 16L2 13 11 13 11 16C11 17.1 10.1 18 9 18ZM4 15 4 16 9 16 9 15 4 15Z" fill="#7823DC"/><path d="M27 12.2C26.7 10.8 25.4 9.8 24.1 10 23.1 10.1 22 10.9 22 11.9L20 11.9C20 9.8 22 8.3 23.9 8 26.3 7.7 28.5 9.3 29 11.8L27 12.2Z" fill="#7823DC"/><rect x="17.4" y="14.4" width="7.2" height="2" fill="#7823DC" transform="matrix(0.00488275 -1 1 0.00488275 5.4952 36.359)"/><rect x="21.6" y="14.4" width="1.6" height="2" fill="#7823DC"/><rect x="15" y="0.7" width="2" height="4.8" fill="#7823DC"/></svg>