<svg viewBox="0 0 32 32" xmlns="http://www.w3.org/2000/svg" xmlns:xlink="http://www.w3.org/1999/xlink" id="Layer_1" overflow="hidden"><style>
.MsftOfcResponsive_Fill_7823dc {
 fill:#7823DC; 
}
</style>
<defs></defs><path d="M25.85 20.81C25.6 20.81 23.35 20.78 21.76 19.72 19.88 18.57 19.32 17.14 19.2 16.15 19.02 14.72 19.6 13.23 20.84 11.96 22.67 10.08 27.92 8.71 30 8.22L30 6.25 26.72 7.05C19.67 8.94 13.21 13 8.55 18.49L7.03 17.2C11.95 11.4 18.77 7.11 26.23 5.11L32 3.71 32 9.83 31.21 10C29.23 10.42 23.76 11.83 22.28 13.35 21.47 14.18 21.09 15.08 21.19 15.89 21.29 16.69 21.86 17.43 22.84 18.03 23.81 18.67 25.34 18.81 25.86 18.81L25.86 20.81Z" class="MsftOfcResponsive_Fill_7823dc" fill="#7823DC"/><path d="M5 11.57 3 11.57 3 7.1C3 5.4 4.32 4.02 5.95 4.02L10.42 4.02 10.42 7.33 8.42 7.33 8.42 6.02 5.95 6.02C5.42 6.02 5 6.49 5 7.1L5 11.57Z" class="MsftOfcResponsive_Fill_7823dc" fill="#7823DC"/><path d="M14.21 9.08 12.21 9.08 12.21 2.73C12.21 2.4 11.81 2 11.32 2 10.83 2 10.42 2.4 10.42 2.73L10.42 8.92 8.42 8.92 8.42 2.73C8.42 1.25 9.75 0 11.32 0 12.89 0 14.21 1.25 14.21 2.73L14.21 9.08Z" class="MsftOfcResponsive_Fill_7823dc" fill="#7823DC"/><path d="M18 9.26 16 9.26 16 5.03C16 4.7 15.6 4.3 15.1 4.3 14.6 4.3 14.21 4.7 14.21 5.03L14.21 9.07 12.21 9.07 12.21 5.03C12.21 3.55 13.54 2.3 15.1 2.3 16.66 2.3 18 3.55 18 5.03L18 9.26Z" class="MsftOfcResponsive_Fill_7823dc" fill="#7823DC"/><path d="M19.76 32C11.89 32 0 26.35 0 17.85 0 11.98 5.14 7.73 12.23 7.73 13.88 7.73 15.62 7.93 17.42 8.33L16.99 10.28C15.33 9.91 13.73 9.73 12.23 9.73 6.21 9.73 2 13.07 2 17.85 2 25.39 13.5 30 19.76 30 22.71 30 24.63 29.2 25.47 27.62 27.49 23.83 23.61 16.23 21.27 12.75L22.93 11.64C23.69 12.77 30.27 22.88 27.23 28.57 26.01 30.85 23.5 32.01 19.75 32.01Z" class="MsftOfcResponsive_Fill_7823dc" fill="#7823DC"/></svg>