<svg viewBox="0 0 32.02 32.01" xmlns="http://www.w3.org/2000/svg" xmlns:xlink="http://www.w3.org/1999/xlink" id="Outline_Final_icon" overflow="hidden"><defs></defs><rect x="18.21" y="12.48" width="1.82" height="6.84" fill="#7823DC"/><path d="M12.81 12.48 10.98 19.32 12.86 19.32 13.23 17.94 15.24 17.94 15.6 19.32 17.48 19.32 15.68 12.48 12.81 12.48ZM13.72 16.12 14.21 14.29 14.29 14.29 14.77 16.12 13.72 16.12Z" fill="#7823DC"/><path d="M28.53 11.84 32.02 8.35 32.02 5.52 27.71 9.83 22.52 9.83C21.62 8.88 20.52 8.14 19.29 7.65L20.56 5.77 23.1 5.77C23.47 6.23 24.03 6.52 24.66 6.52 25.78 6.52 26.68 5.61 26.68 4.5 26.68 3.39 25.77 2.48 24.66 2.48 23.8 2.48 23.07 3.02 22.78 3.78L19.5 3.78 17.24 7.12C16.95 7.08 16.65 7.06 16.35 7.04L16.35 3.87 14.35 3.87 14.35 7.19C13.39 7.37 12.48 7.71 11.65 8.17L11.65 3.44 7.78 0 4.77 0 9.63 4.34 9.63 9.72C8.71 10.65 8.01 11.78 7.56 13.04L5.21 11.45 5.21 9.2C5.75 8.84 6.1 8.22 6.1 7.52 6.1 6.4 5.19 5.5 4.08 5.5 2.97 5.5 2.06 6.41 2.06 7.52 2.06 8.32 2.53 9.01 3.22 9.34L3.22 12.51 7.1 15.13C7.07 15.42 7.06 15.7 7.06 16 7.06 16.02 7.06 16.04 7.06 16.07L4.26 16.07 4.26 18.07 7.31 18.07C7.49 18.82 7.76 19.54 8.11 20.21L3.54 20.21 0 23.61 0 26.38 4.35 22.21 9.57 22.21C10.37 23.04 11.33 23.72 12.39 24.19L10.84 26.49 8.93 26.49C8.59 25.86 7.93 25.43 7.16 25.43 6.04 25.43 5.14 26.34 5.14 27.45 5.14 28.56 6.05 29.47 7.16 29.47 7.9 29.47 8.54 29.07 8.89 28.48L11.9 28.48 14.39 24.8C14.91 24.9 15.44 24.95 15.98 24.95L15.98 27.44 17.98 27.44 17.98 24.73C18.66 24.58 19.32 24.34 19.93 24.04L19.93 28.17 23.76 32 26.59 32 21.93 27.34 21.93 22.71C22.84 21.91 23.59 20.92 24.11 19.81L26.17 21.21 26.17 23.6C25.62 23.96 25.25 24.58 25.25 25.29 25.25 26.41 26.16 27.31 27.27 27.31 28.38 27.31 29.29 26.4 29.29 25.29 29.29 24.5 28.83 23.81 28.16 23.48L28.16 20.14 24.77 17.84C24.86 17.42 24.91 16.99 24.94 16.55L27.7 16.55 27.7 14.55 24.84 14.55C24.68 13.58 24.38 12.66 23.94 11.82L28.52 11.82ZM16.02 22.96C12.18 22.96 9.06 19.84 9.06 16 9.06 12.16 12.18 9.04 16.02 9.04 19.86 9.04 22.98 12.16 22.98 16 22.98 19.84 19.86 22.96 16.02 22.96Z" fill="#7823DC"/></svg>