<svg viewBox="0 0 32 32" xmlns="http://www.w3.org/2000/svg" xmlns:xlink="http://www.w3.org/1999/xlink" id="Layer_5" overflow="hidden"><style>
.MsftOfcResponsive_Fill_7823dc {
 fill:#7823DC; 
}
</style>
<defs></defs><path d="M4.89 32 11.1 32 13.87 22 2.4 22 4.89 32ZM11.24 24 9.58 30 6.45 30 4.96 24 11.24 24Z" class="MsftOfcResponsive_Fill_7823dc" fill="#7823DC"/><path d="M32 13.28 32 10.41C29.83 8.92 26.53 8.49 23.23 8.35 22.28 7.82 21.23 7.42 20.11 7.14 20.7 6.6 21.07 5.9 21.07 5.13 21.07 3.37 19.27 2 16.96 2 14.65 2 12.85 3.38 12.85 5.13 12.85 5.86 13.17 6.51 13.7 7.04 11.16 7.56 9 8.74 7.4 10.42L5.24 5.42-0.01 5.79-0.01 8.19 4.55 19.49C4.57 19.66 4.59 19.83 4.62 19.99L6.65 19.99C6.51 19.35 6.43 18.68 6.43 17.98 6.43 16.16 6.93 14.52 7.82 13.13 9.36 14.8 13.02 15.67 16.65 15.67 20.28 15.67 23.94 14.8 25.48 13.13 26.36 14.52 26.87 16.16 26.87 17.98 26.87 23.34 22.57 27.23 16.65 27.23 15.91 27.23 15.2 27.17 14.52 27.05L13.98 28.99C14.83 29.14 15.72 29.23 16.64 29.23 21.13 29.23 24.83 27.33 26.95 24.27 29.08 23.73 30.76 22.91 31.98 21.79L31.98 18.26C31.36 19.85 30.13 21 28.22 21.78 28.63 20.61 28.87 19.34 28.87 17.98 28.87 15.07 27.84 12.52 26.07 10.58 29.29 10.98 31.16 11.82 31.98 13.28ZM16.96 4C18.17 4 19.07 4.6 19.07 5.13 19.07 5.66 18.17 6.26 16.96 6.26 15.75 6.26 14.85 5.66 14.85 5.13 14.85 4.6 15.75 4 16.96 4ZM3.98 7.52 6.02 12.24C5.52 13.06 5.14 13.96 4.87 14.91L1.94 7.66 3.97 7.51ZM16.67 13.69C12.34 13.69 9.57 12.41 9.14 11.56 10.97 9.8 13.6 8.74 16.67 8.74 19.74 8.74 22.38 9.8 24.2 11.56 23.77 12.41 20.99 13.69 16.67 13.69Z" class="MsftOfcResponsive_Fill_7823dc" fill="#7823DC"/></svg>