<svg viewBox="0 0 32 32" xmlns="http://www.w3.org/2000/svg" xmlns:xlink="http://www.w3.org/1999/xlink" id="Graphic" overflow="hidden"><defs></defs><path d="M15.91 3.87C22.5374 3.87 27.91 9.24258 27.91 15.87 27.91 22.4974 22.5374 27.87 15.91 27.87 9.28258 27.87 3.91 22.4974 3.91 15.87 3.91 9.24258 9.28258 3.87 15.91 3.87M15.91 1.87C8.17801 1.87 1.91 8.13801 1.91 15.87 1.91 23.602 8.17801 29.87 15.91 29.87 23.642 29.87 29.91 23.602 29.91 15.87 29.91 8.13801 23.642 1.87 15.91 1.87Z" fill="#7823DC"/><path d="M26.48 2C28.424 2 30 3.57596 30 5.52 30.006 5.85861 29.9588 6.19607 29.86 6.52L25.51 2.14C25.8348 2.04524 26.1717 1.99809 26.51 2M26.51 0C24.9448 0.00309098 23.4559 0.676562 22.42 1.85L30.18 9.61C32.45 7.5916 32.6539 4.11517 30.6356 1.84518 29.5813 0.659549 28.0665-0.0130862 26.48-3.95598e-07Z" fill="#7823DC"/><path d="M5.52 2C5.85835 1.99809 6.19519 2.04524 6.52 2.14L2.14 6.5C2.0412 6.17607 1.99395 5.83861 2 5.5 2.011 3.56377 3.58374 1.99997 5.52 2M5.52 0C2.48245-0.00838227 0.0132257 2.44725 0.00484347 5.4848 0.000494671 7.06071 0.672354 8.56278 1.85 9.61L9.61 1.85C8.57415 0.676562 7.08523 0.003091 5.52 2.38419e-08Z" fill="#7823DC"/><path d="M24.17 26.96 22.37 27.61 23.95 32 25.99 32 24.17 26.96 24.17 26.96Z" fill="#7823DC"/><path d="M7.83 26.96 6.01 32 8.05 32 9.63 27.61 7.83 26.96 7.83 26.96Z" fill="#7823DC"/><path d="M20.82 12 17.99 12 14 15.99 20.41 22.33 23.24 22.33 16.83 16 20.82 12Z" fill="#7823DC"/><path d="M17.02 2.16 14.98 2.16 14.98 5.92 17.02 5.92 17.02 2.16 17.02 2.16Z" fill="#7823DC"/><path d="M17.02 26 14.98 26 14.98 29.76 17.02 29.76 17.02 26 17.02 26Z" fill="#7823DC"/><path d="M29.83 15 26.08 15 26.08 17.04 29.83 17.04 29.83 15 29.83 15Z" fill="#7823DC"/><path d="M5.74 15 1.98 15 1.98 17.04 5.74 17.04 5.74 15 5.74 15Z" fill="#7823DC"/></svg>