<svg viewBox="0 0 32 32" xmlns="http://www.w3.org/2000/svg" xmlns:xlink="http://www.w3.org/1999/xlink" id="Layer_1" overflow="hidden"><style>
.MsftOfcResponsive_Fill_7823dc {
 fill:#7823DC; 
}
</style>
<g><path d="" class="st0 MsftOfcResponsive_Fill_7823dc" stroke="#000000" stroke-width="2" stroke-miterlimit="10" fill="#7823DC"/><path d="" class="st0 MsftOfcResponsive_Fill_7823dc" stroke="#000000" stroke-width="2" stroke-miterlimit="10" fill="#7823DC"/><path d="M26 9.9 26 3.9 24.1 3.9C23 3.9 22 4.9 22 6L22 7.9C22 9 23 10 24.1 10L26 10M28 12 24.1 12C21.8 12 20 10.2 20 7.9L20 6C20 3.7 21.8 1.9 24.1 1.9L28 1.9 28 12 28 12 28 12 28 12Z" class="st1 MsftOfcResponsive_Fill_7823dc" fill="#7823DC" fill-rule="evenodd" clip-rule="evenodd"/><path d="M28 13.8 26 13.8 26 0 28 0 28 13.8 28 13.8 28 13.8Z" class="st1 MsftOfcResponsive_Fill_7823dc" fill="#7823DC" fill-rule="evenodd" clip-rule="evenodd"/><path d="M32 10.9 27 10.9 27 8.9 32 8.9 32 10.9 32 10.9 32 10.9Z" class="st1 MsftOfcResponsive_Fill_7823dc" fill="#7823DC" fill-rule="evenodd" clip-rule="evenodd"/><path d="M32 5 27 5 27 2.9 32 2.9 32 5 32 5 32 5Z" class="st1 MsftOfcResponsive_Fill_7823dc" fill="#7823DC" fill-rule="evenodd" clip-rule="evenodd"/></g><g><path d="M22 16.6 22 16.6 20.1 16.6 20.1 16.6 17.9 16.6C16.3 16.6 15.1 17.9 15.1 19.5 15.1 20.6 15.7 21.6 16.6 22L14.8 26.2 9.5 26.2 11.1 14 13.1 14 13.1 12.1 5.8 12.1 5.4 14 3.2 14 3.2 16 5.1 16 3.9 22.5C1.7 22.9 0 24.8 0 27.2 0 29.8 2.1 32 4.7 32 7 32 8.9 30.3 9.3 28.2L16.5 28.2C16.9 30.4 18.8 32 21.1 32 23.4 32 25.3 30.3 25.7 28.2L27.7 28.2 27.7 27.2C27.7 25.3 26.9 23.6 25.7 22.4L28.9 22.4 28.9 18.6 28.9 18.6 28.9 16.7M4.7 30.1C3.2 30.1 1.9 28.8 1.9 27.2 1.9 25.6 3.2 24.3 4.7 24.3 6.2 24.3 7.5 25.6 7.5 27.2 7.5 28.8 6.2 30.1 4.7 30.1ZM8 23.8C7.4 23.2 6.7 22.8 5.8 22.6L7.4 14.2 9.3 14.2 8 23.8ZM21 30.1C19.8 30.1 18.7 29.3 18.4 28.2L23.7 28.2C23.3 29.3 22.3 30.1 21 30.1ZM16.9 26.2 18.6 22.4 21 22.4C23.3 22.4 25.2 24.1 25.6 26.2L16.9 26.2ZM27 20.5 17.9 20.5C17.4 20.5 17 20.1 17 19.5 17 19 17.4 18.5 17.9 18.5L27 18.5 27 20.5Z" class="st2 MsftOfcResponsive_Fill_7823dc" fill="#7823DC" fill-rule="evenodd" clip-rule="evenodd"/></g><path d="M9.4 13 7.4 13 7.4 10.7C7.4 7.9 9.6 5.7 12.4 5.7L20.9 5.7 20.9 7.7 12.4 7.7C10.7 7.7 9.4 9 9.4 10.7L9.4 13Z" class="MsftOfcResponsive_Fill_7823dc" fill="#7823DC"/></svg>