<svg viewBox="0 0 32.19 32.13" xmlns="http://www.w3.org/2000/svg" xmlns:xlink="http://www.w3.org/1999/xlink" id="a" overflow="hidden"><style>
.MsftOfcResponsive_Fill_7823dc {
 fill:#7823DC; 
}
</style>
<path d="M6 2 6 14 2 14 2 2 6 2M8 0 0 0 0 16 8 16 8 0 8 0Z" class="MsftOfcResponsive_Fill_7823dc" fill="#7823DC"/><rect x="3" y="15" width="2" height="17" class="MsftOfcResponsive_Fill_7823dc" fill="#7823DC"/><path d="M18 2 18 14 14 14 14 2 18 2M20 0 12 0 12 16 20 16 20 0 20 0Z" class="MsftOfcResponsive_Fill_7823dc" fill="#7823DC"/><rect x="15" y="15" width="2" height="17" class="MsftOfcResponsive_Fill_7823dc" fill="#7823DC"/><rect x="15.1" y="-15.1" width="2" height="32.19" class="MsftOfcResponsive_Fill_7823dc" fill="#7823DC" transform="matrix(6.12323e-17 1 -1 6.12323e-17 17.1 -15.1)"/><rect x="15.1" y="15.04" width="2" height="32.19" class="MsftOfcResponsive_Fill_7823dc" fill="#7823DC" transform="matrix(6.12323e-17 1 -1 6.12323e-17 47.23 15.04)"/><path d="M30 2 30 14 26 14 26 2 30 2M32 0 24 0 24 16 32 16 32 0 32 0Z" class="MsftOfcResponsive_Fill_7823dc" fill="#7823DC"/><rect x="27" y="15" width="2" height="17" class="MsftOfcResponsive_Fill_7823dc" fill="#7823DC"/></svg>