<svg viewBox="0 0 32 32" xmlns="http://www.w3.org/2000/svg" xmlns:xlink="http://www.w3.org/1999/xlink" id="Layer_2_1_" xml:space="preserve" overflow="hidden"><g><path d="M8.5 27.6 8.7 27.3 9.7 25.7 9.7 25.7 11.9 22.3 12.6 22.7 15.1 24.1 22.6 19.9 22.6 11.5 15.1 7.3 7.6 11.5 7.6 19.9 9.5 21 10.2 21.4 8.1 24.7 7.1 26.3 6.9 26.6C6.5 26.5 6.1 26.5 5.7 26.6 4.2 26.9 3.2 28.4 3.6 29.9 3.8 30.6 4.2 31.3 4.8 31.7 5.3 32 6 32.1 6.6 32 6.7 32 6.8 32 6.9 32 8.4 31.7 9.4 30.2 9 28.7 8.9 28.3 8.7 27.9 8.5 27.6L8.5 27.6ZM9.4 18.8 9.4 12.6 15.1 9.5 20.8 12.6 20.8 18.8 15.1 21.9 9.4 18.8 9.4 18.8 9.4 18.8ZM6.5 30.2C6.3 30.2 6 30.2 5.8 30.1 5.6 30 5.5 29.8 5.4 29.5 5.3 29 5.6 28.6 6.1 28.5 6.1 28.5 6.2 28.5 6.2 28.5 6.6 28.5 7.1 28.8 7.2 29.2 7.3 29.6 7 30.1 6.5 30.2L6.5 30.2Z" fill="#7823DC" fill-rule="evenodd" clip-rule="evenodd"/><path d="M18.9 15.7C18.9 13.6 17.2 11.9 15.1 11.9 13 11.9 11.3 13.6 11.3 15.7 11.3 17.8 13 19.5 15.1 19.5 17.2 19.5 18.9 17.8 18.9 15.7L18.9 15.7ZM13.1 15.7C13.1 14.6 14 13.8 15 13.8 16.1 13.8 16.9 14.7 16.9 15.7 16.9 16.8 16 17.6 15 17.6 14 17.6 13.1 16.8 13.1 15.7L13.1 15.7Z" fill="#7823DC" fill-rule="evenodd" clip-rule="evenodd"/><path d="M6.4 25.7 6.4 25.7 7.5 24.1C5.2 22 3.7 19 3.7 15.7 3.7 12.4 5.2 9.3 7.5 7.2L7 6.4 7 6.4C6.6 6.4 6.3 6.4 5.9 6.2 5.9 6.2 5.8 6.2 5.8 6.2 3.4 8.6 1.8 12 1.8 15.7 1.8 19.7 3.6 23.3 6.4 25.7L6.4 25.7Z" fill="#7823DC" fill-rule="evenodd" clip-rule="evenodd"/><path d="M28.3 14.7C28.1 12.1 27.2 9.6 25.5 7.5 25.3 7.2 25.1 7 24.9 6.8 24.9 6.8 24.8 6.8 24.7 6.8 24.5 6.8 24.4 6.8 24.3 6.8 24.2 6.8 24 6.8 23.9 6.8L23.2 7.7C23.5 8 23.8 8.3 24 8.6 25.4 10.4 26.2 12.4 26.4 14.6L24.5 14.6 24.5 16.5 26.4 16.5C26.2 18.9 25.3 21.2 23.7 23 23.2 22.7 22.7 22.5 22.1 22.5 20.4 22.5 19 23.9 19 25.6 19 25.8 19 26 19.1 26.2 17.9 26.7 16.5 26.9 15.2 26.9 13.5 26.9 11.9 26.5 10.5 25.9L9.5 27.4C9.5 27.5 9.6 27.5 9.6 27.6 11.3 28.4 13.2 28.8 15.2 28.8 16.8 28.8 18.5 28.5 20 27.9 20.6 28.4 21.3 28.8 22.2 28.8 23.9 28.8 25.3 27.4 25.3 25.7 25.3 25.3 25.2 24.8 25 24.4 27 22.2 28.2 19.4 28.3 16.5L30.2 16.5 30.2 14.6 28.3 14.6 28.3 14.7 28.3 14.7ZM22.1 27.1C21.4 27.1 20.8 26.5 20.8 25.8 20.8 25.1 21.4 24.5 22.1 24.5 22.8 24.5 23.3 25.1 23.3 25.8 23.3 26.5 22.8 27.1 22.1 27.1L22.1 27.1Z" fill="#7823DC" fill-rule="evenodd" clip-rule="evenodd"/><path d="M6.2 5.4C6.3 5.4 6.5 5.5 6.6 5.5 6.7 5.5 6.9 5.5 7 5.5 7.2 5.5 7.3 5.5 7.5 5.5L8.2 6.7 9.2 8.4 10.8 7.5 9.8 5.8 9.1 4.6C9.3 4.3 9.5 4 9.7 3.6L9.7 3.6C10.1 2.1 9.3 0.6 7.9 0.1 7.1-0.1 6.4 0 5.7 0.3 5.1 0.7 4.6 1.2 4.4 2 4.1 2.7 4.2 3.4 4.6 4.1 4.9 4.7 5.5 5.2 6.2 5.4L6.2 5.4ZM6.2 2.5C6.2 2.3 6.4 2.1 6.6 2 6.8 1.9 7.1 1.9 7.3 1.9 7.5 2 7.7 2.2 7.8 2.4 7.9 2.6 7.9 2.8 7.9 3 7.7 3.5 7.2 3.8 6.8 3.6 6.5 3.6 6.3 3.4 6.2 3.2 6.1 3 6.1 2.7 6.2 2.5L6.2 2.5Z" fill="#7823DC" fill-rule="evenodd" clip-rule="evenodd"/><path d="M15.1 4.3C16.6 4.3 18.1 4.6 19.4 5.2 19.7 5.3 20 5.5 20.4 5.7L21 4.7C20.8 4.4 20.7 4 20.7 3.7 20.5 3.6 20.3 3.5 20.1 3.4 18.5 2.7 16.8 2.4 15 2.4 13.4 2.4 11.9 2.7 10.5 3.2 10.5 3.4 10.4 3.6 10.4 3.8 10.3 4.1 10.2 4.3 10 4.6L10.4 5.3C11.9 4.7 13.4 4.3 15.1 4.3L15.1 4.3Z" fill="#7823DC" fill-rule="evenodd" clip-rule="evenodd"/><path d="M20 7.4 21.5 8.5 22.5 7.1 23.4 5.8C23.7 6 23.9 6 24.1 6 24.2 6 24.2 6 24.3 6 24.4 6 24.5 6 24.7 6 26.2 5.8 27.3 4.4 27.1 2.9 27 2.2 26.6 1.5 26 1.1 25.4 0.6 24.7 0.4 23.9 0.5 23.2 0.6 22.5 1 22 1.5 21.5 2.1 21.3 2.8 21.4 3.5 21.4 3.7 21.5 3.9 21.6 4.1 21.7 4.3 21.8 4.5 21.9 4.7L21 5.9 20 7.4 20 7.4 20 7.4ZM23.6 2.7C23.7 2.5 24 2.4 24.2 2.4 24.4 2.4 24.7 2.4 24.9 2.6 25.1 2.7 25.2 3 25.2 3.2 25.3 3.7 24.9 4.1 24.4 4.2 23.9 4.3 23.5 3.9 23.4 3.4 23.4 3.2 23.4 2.9 23.6 2.7L23.6 2.7Z" fill="#7823DC" fill-rule="evenodd" clip-rule="evenodd"/></g></svg>