<svg viewBox="0 0 32 32" xmlns="http://www.w3.org/2000/svg" xmlns:xlink="http://www.w3.org/1999/xlink" overflow="hidden"><defs></defs><g id="Layer_3"><path d="M17.012 8.991 14.994 8.991 14.994 11.991 17.012 11.991 17.012 8.991 17.012 8.991Z" fill="#7823DC"/><path d="M15.9922 12.5818 25.4629 20.5098 32.003 25.9845-0.01863 25.9845 6.5215 20.5098 15.9922 12.5817M15.9922 9.9797 5.24075 18.9797-0.00525 23.3711-0.00489 27.9797 31.9818 27.9797 31.9984 23.3785 26.7436 18.9797 15.9922 9.9797Z" fill="#7823DC"/><path d="M15 9.93862 15 7.93862C16.1046 7.93862 17 7.04319 17 5.93862 17 4.83405 16.1046 3.93862 15 3.93862 13.8954 3.93862 13 4.83405 13 5.93862L11 5.93862C11 3.72948 12.7909 1.93862 15 1.93862 17.2091 1.93862 19 3.72948 19 5.93862 19 8.14776 17.2091 9.93862 15 9.93862Z" fill="#7823DC"/></g></svg>