<svg viewBox="0 0 32 32" xmlns="http://www.w3.org/2000/svg" xmlns:xlink="http://www.w3.org/1999/xlink" id="Layer_1" overflow="hidden"><style>
.MsftOfcResponsive_Fill_7823dc {
 fill:#7823DC; 
}
</style>
<path d="" class="st0 MsftOfcResponsive_Fill_7823dc" stroke="#7823DC" stroke-width="2" stroke-miterlimit="10" fill="#7823DC"/><path d="" class="st0 MsftOfcResponsive_Fill_7823dc" stroke="#7823DC" stroke-width="2" stroke-miterlimit="10" fill="#7823DC"/><path d="M16 3.8 25.5 19.4 22.5 22.4 21.9 23 21.9 23.8 21.9 26 10.6 26 10.6 23.9 10.6 23 9.9 22.4 6.6 19.4 16 3.8M16 0 4 19.7 8.6 23.8 8.6 28 23.9 28 23.9 23.9 28 19.8 16 0 16 0Z" class="MsftOfcResponsive_Fill_7823dc" fill="#7823DC"/><path d="M16 17C14.3 17 13 15.7 13 14 13 12.3 14.4 11 16 11 17.7 11 19 12.3 19 14 19 15.7 17.7 17 16 17ZM16 13C15.4 13 15 13.4 15 14 15 14.6 15.5 15 16 15 16.5 15 17 14.6 17 14 17 13.4 16.6 13 16 13Z" class="MsftOfcResponsive_Fill_7823dc" fill="#7823DC"/><path d="M25.2 28 25.2 30 7.1 30 7.1 28 25.2 28M25.2 26 7 26C5.9 26 5.1 26.9 5.1 27.9L5.1 32 27.2 32 27.2 27.9C27.2 26.9 26.3 26 25.2 26L25.2 26Z" class="MsftOfcResponsive_Fill_7823dc" fill="#7823DC"/><rect x="15" y="3" width="2" height="9" class="MsftOfcResponsive_Fill_7823dc" fill="#7823DC"/></svg>