<svg viewBox="0 0 32 32" xmlns="http://www.w3.org/2000/svg" xmlns:xlink="http://www.w3.org/1999/xlink" overflow="hidden"><style>
.MsftOfcResponsive_Fill_7823dc {
 fill:#7823DC; 
}
</style>
<defs></defs><g id="Layer_3"><path d="M12 14 12 30 4 30 4 14 12 14M14 12 2 12 2 32 14 32 14 12Z" class="MsftOfcResponsive_Fill_7823dc" fill="#7823DC"/><path d="M28 14 28 30 20 30 20 14 28 14M30 12 18 12 18 32 30 32 30 12Z" class="MsftOfcResponsive_Fill_7823dc" fill="#7823DC"/><path d="M12 8 12 12 2 12 2 8 12 8M14 6 0 6 0 14 14 14 14 6Z" class="MsftOfcResponsive_Fill_7823dc" fill="#7823DC"/><path d="M30 8 30 12 20 12 20 8 30 8M32 6 18 6 18 14 32 14 32 6Z" class="MsftOfcResponsive_Fill_7823dc" fill="#7823DC"/><path d="M18 8 18 30 14 30 14 8 18 8M20 6 12 6 12 32 20 32 20 6Z" class="MsftOfcResponsive_Fill_7823dc" fill="#7823DC"/><path d="M9.99756 7.99316C7.79058 7.99342 6.00126 6.20453 6.00099 3.99755 6.00073 1.79057 7.78963 0.0012435 9.9966 0.000979919 11.0254 0.000857048 12.0146 0.397522 12.7583 1.1084L16.9531 5.30273 15.5391 6.7168 11.3599 2.53809C10.9914 2.19102 10.5037 1.99874 9.99756 2.001 8.89515 2.001 8.00147 2.89468 8.00147 3.99709 8.00147 5.0995 8.89515 5.99318 9.99756 5.99318Z" class="MsftOfcResponsive_Fill_7823dc" fill="#7823DC"/><path d="M22.0059 7.99316 22.0059 5.99316C23.1083 5.99364 24.0023 5.10035 24.0028 3.99794 24.0033 2.89553 23.11 2.00146 22.0076 2.00098 21.4937 2.00076 20.9995 2.19874 20.6279 2.55371L16.4639 6.7168 15.0498 5.30273 19.2295 1.124C20.8164-0.409515 23.346-0.366223 24.8795 1.2207 26.4131 2.80761 26.3698 5.33722 24.7828 6.87074 24.0377 7.59078 23.042 7.99322 22.0059 7.99314Z" class="MsftOfcResponsive_Fill_7823dc" fill="#7823DC"/></g></svg>