<svg viewBox="0 0 32 32" xmlns="http://www.w3.org/2000/svg" xmlns:xlink="http://www.w3.org/1999/xlink" id="Layer_1" overflow="hidden"><g><g><g><defs><path d="M32.5 32.7 32.5-0.7-0.8-0.7-0.8 32.7-0.8 32.7" id="SVGID_1_" fill="#7823DC"/></defs><clipPath id="SVGID_2_"><use width="100%" height="100%" xlink:href="#SVGID_1_" overflow="visible"></use></clipPath></g><g><defs><path d="M32.5 32.7 32.5-0.7-0.8-0.7-0.8 32.7-0.8 32.7" id="SVGID_3_" fill="#7823DC"/></defs><defs><path d="M-0.8 32.7-0.8-0.7-0.8-0.7 32.5-0.7 32.5 32.7" id="SVGID_4_" fill="#7823DC"/></defs><clipPath id="SVGID_5_"><use width="100%" height="100%" xlink:href="#SVGID_3_" overflow="visible"></use></clipPath><clipPath id="SVGID_6_" clip-path="url(#SVGID_5_)"><use width="100%" height="100%" xlink:href="#SVGID_4_" overflow="visible"></use></clipPath><g clip-path="url(#SVGID_6_)"><g><defs><path d="M32.5 32.7 32.5-0.7-0.8-0.7-0.8 32.7-0.8 32.7" id="SVGID_7_" fill="#7823DC"/></defs><clipPath id="SVGID_8_"><use width="100%" height="100%" xlink:href="#SVGID_7_" overflow="visible"></use></clipPath><line x1="26.4" y1="30.5" x2="26.4" y2="30.5" fill="none" clip-path="url(#SVGID_8_)"/></g><g><defs><path d="M32.5 32.7 32.5-0.7-0.8-0.7-0.8 32.7-0.8 32.7" id="SVGID_9_" fill="#7823DC"/></defs><clipPath id="SVGID_10_"><use width="100%" height="100%" xlink:href="#SVGID_9_" overflow="visible"></use></clipPath><path d="M25.4 20.4 29.7 20.4C28.7 15.9 27.3 9.7 26.4 8.3 24 4.4 19.8 2.1 15.3 2.1 15.3 2.1 15.3 2.1 15.2 2.1 8 2.2 2.1 8.2 2.1 15.4L2.1 15.5C2.1 20 4.4 24.2 8.2 26.6L7.1 28.3C2.7 25.5 0 20.7 0 15.5L0 15.4C0 7.1 6.7 0.2 15.1 0.2 20.4 0.2 25.2 2.9 27.9 7.3 29.3 9.6 31.4 20.1 31.7 21.3L32 22.5 26.2 22.5" fill="#7823DC" clip-path="url(#SVGID_10_)"/></g></g></g></g></g><g><path d="M15.2 7.8 16.9 11.3 17.4 12.2 18.4 12.4 22.3 13 19.5 15.7 18.7 16.4 18.9 17.4 19.6 21.2 16.1 19.4 15.2 19 14.3 19.5 10.8 21.3 11.5 17.5 11.7 16.5 10.9 15.8 8.1 13 12 12.4 13 12.2 13.5 11.3 15.2 7.8M15.2 3.3 11.7 10.4 3.8 11.5 9.5 17.1 8.1 25 15.1 21.3 22.1 25 20.8 17.2 26.5 11.6 18.6 10.5 15.2 3.3 15.2 3.3Z" fill="#7823DC"/></g><path d="M26.5 32 17.1 32 17.1 30 24.5 30 24.5 20.4 26.5 20.4Z" fill="#7823DC"/></svg>