<svg viewBox="0 0 32 32" xmlns="http://www.w3.org/2000/svg" xmlns:xlink="http://www.w3.org/1999/xlink" id="Layer_1" overflow="hidden"><path d="M32 20.2 32 20.2C32 20.1 32 20.1 32 20 32 20 32 20 32 19.9 32 18.7 29.8 18 26.8 17.5L27.2 10.2C27.3 8.4 26.8 6.8 25.9 5.7L26.3 2.6C26.4 1.6 25.6 0.7 24.5 0.6L20.5 0.1C19.4 -8.04912e-16 18.4 0.6 18.3 1.6L18 4.7 18 4.7C16.9 5.5 16 6.9 15.6 8.7L13.9 17C12 17 10.1 17.1 8.3 17.2 8.1 16.7 7.9 16.2 7.7 15.8 7.4 15.1 6.9 14.1 6.3 13 6.3 13 6.3 13 6.3 13L11.5 10.4 6.6 0.6 5.9 1 5.9 1 1.2 2.9C0.2 3.3-0.3 4.5 0.2 5.6 0.2 5.7 4.7 14 5.8 16.6 5.9 16.8 6 17.1 6.1 17.4 2.6 17.8 0 18.6 0 19.9 0 19.9 0 19.9 0 20 0 20 0 20 0 20L0 20 0 20.1 0 20.1 3 32 5 32 2.5 21.7C2.8 21.8 3.2 21.9 3.6 22 4.9 22.3 6.4 22.4 8 22.6 8.7 22.7 9.4 22.7 10.2 22.7 11 22.7 11.9 22.8 12.7 22.8 13.4 22.8 14.1 22.8 14.7 22.8 15.1 22.8 15.6 22.8 16 22.8 18.8 22.8 21.8 22.7 24.5 22.5 25.2 22.4 25.9 22.4 26.5 22.3 27.2 22.2 27.8 22.1 28.4 22 28.8 21.9 29.2 21.8 29.6 21.7L27.1 32 29.1 32 32 20.2 32 20.2C31.9 20.2 31.9 20.2 32 20.2ZM5.7 3.3 5.7 3.3 8.8 9.6 5.3 11.3C3.8 8.2 2.1 5 2 4.8L5.7 3.3ZM20.3 2 24.3 2.5 24 4.5C24 4.5 24 4.5 24 4.5 23.9 4.5 23.8 4.5 23.7 4.5L20.3 4C20.2 4 20.1 4 20 4L20.3 2ZM13.5 19 13.3 20 13.1 20.8C12.1 20.8 11.3 20.7 10.4 20.7 10.1 20.7 9.8 20.7 9.5 20.7 9.4 20.5 9.3 20.3 9.3 20.1 9.1 19.7 9 19.5 9 19.2 10.3 19.1 11.8 19.1 13.5 19ZM3.7 20C3.6 20 3.4 20 3.3 19.9 4.2 19.7 5.4 19.5 6.9 19.4 7 19.6 7 19.8 7.1 20 7.2 20.2 7.2 20.3 7.3 20.5L7.3 20.5 7.3 20.5C5.8 20.3 4.6 20.2 3.7 20ZM24.5 20.5C23.9 20.6 23.2 20.6 22.5 20.7 22.3 20.7 22 20.7 21.8 20.7 20.1 20.8 18.2 20.9 16.1 20.9 15.8 20.9 15.5 20.9 15.2 20.9L15.2 20.9 15.4 20.1 15.6 19.1 16 17.1 17.6 9.2C17.9 7.2 19.1 6 20 6 20 6 20.1 6 20.1 6L23.5 6.4C24.4 6.5 25.3 8 25.2 10.1L24.8 17.3 24.7 19.3 24.7 19.9 24.7 20.4C24.5 20.5 24.5 20.5 24.5 20.5ZM28.3 20C27.8 20.1 27.2 20.2 26.6 20.3L26.6 20.3 26.6 20.1 26.6 19.7C27.4 19.8 28.1 19.9 28.7 20 28.6 20 28.5 20 28.3 20Z" fill="#7823DC"/></svg>