<svg viewBox="0 0 32 31.93" xmlns="http://www.w3.org/2000/svg" xmlns:xlink="http://www.w3.org/1999/xlink" id="Layer_1" overflow="hidden"><style>
.MsftOfcResponsive_Fill_7823dc {
 fill:#7823DC; 
}
</style>
<defs></defs><path d="M27.33 31.93 12.66 31.93C10.09 31.93 7.99 29.84 7.99 27.26L7.99 12.59C7.99 10.02 10.08 7.92 12.66 7.92L27.33 7.92C29.9 7.92 32 10.01 32 12.59L32 27.26C32 29.83 29.91 31.93 27.33 31.93ZM12.67 9.93C11.2 9.93 10 11.13 10 12.6L10 27.27C10 28.74 11.2 29.94 12.67 29.94L27.34 29.94C28.81 29.94 30.01 28.74 30.01 27.27L30.01 12.6C30.01 11.13 28.81 9.93 27.34 9.93L12.67 9.93Z" class="MsftOfcResponsive_Fill_7823dc" fill="#7823DC"/><path d="M26.5 23.93 13.49 23.93C12.66 23.93 11.99 23.26 11.99 22.43L11.99 13.42C11.99 12.59 12.66 11.92 13.49 11.92L26.5 11.92C27.33 11.92 28 12.59 28 13.42L28 22.43C28 23.26 27.33 23.93 26.5 23.93ZM14 21.93 26 21.93 26 13.93 14 13.93 14 21.93Z" class="MsftOfcResponsive_Fill_7823dc" fill="#7823DC"/><path d="M7.21 29.45C6.8 29.45 6.39 29.34 6.02 29.13 5.43 28.79 4.99 28.2 4.82 27.51L0.08 8.36C-0.26 7 0.52 5.58 1.82 5.21L19.55 0.09C20.18-0.09 20.84-0.01 21.4 0.32 21.99 0.66 22.43 1.25 22.6 1.94L24.74 8.21 22.85 8.85 20.69 2.5C20.63 2.26 20.53 2.12 20.41 2.05 20.31 1.99 20.21 1.98 20.11 2.01L2.37 7.14C2.1 7.22 1.94 7.56 2.02 7.89L6.76 27.04C6.8 27.2 6.89 27.33 7.02 27.41 7.12 27.47 7.22 27.48 7.32 27.45L8.75 27.04 9.3 28.96 7.87 29.37C7.65 29.43 7.43 29.46 7.21 29.46Z" class="MsftOfcResponsive_Fill_7823dc" fill="#7823DC"/><rect x="2.09" y="12.62" width="7.49" height="2" class="MsftOfcResponsive_Fill_7823dc" fill="#7823DC" transform="matrix(0.95877 -0.284183 0.284183 0.95877 -3.63 2.22)"/></svg>