<svg viewBox="0 0 32 32" xmlns="http://www.w3.org/2000/svg" xmlns:xlink="http://www.w3.org/1999/xlink" id="Layer_1" overflow="hidden"><style>
.MsftOfcResponsive_Fill_7823dc {
 fill:#7823DC; 
}
</style>
<g><g><defs><path d="M0 25 32 25 32 7 0 7 0 25Z" id="SVGID_1_" class="MsftOfcResponsive_Fill_7823dc" fill="#7823DC"/></defs><defs><path d="M0 7 32 7 32 25 0 25 0 7Z" id="SVGID_00000037663901902515982460000007288302529816807604_" class="MsftOfcResponsive_Fill_7823dc" fill="#7823DC"/></defs><clipPath id="SVGID_00000062871940343208622230000001898212155995320509_"><use width="100%" height="100%" xlink:href="#SVGID_1_" overflow="visible"></use></clipPath><clipPath id="SVGID_00000058587507786657783060000010811508589239187604_" clip-path="url(#SVGID_00000062871940343208622230000001898212155995320509_)"><use width="100%" height="100%" xlink:href="#SVGID_00000037663901902515982460000007288302529816807604_" overflow="visible"></use></clipPath><g clip-path="url(#SVGID_00000058587507786657783060000010811508589239187604_)"><defs><path d="M0 25 32 25 32 7 0 7 0 25Z" id="SVGID_00000099662224892912312890000015961297320952133045_" class="MsftOfcResponsive_Fill_7823dc" fill="#7823DC"/></defs><clipPath id="SVGID_00000155849032368515003530000011373519307696714175_"><use width="100%" height="100%" xlink:href="#SVGID_00000099662224892912312890000015961297320952133045_" overflow="visible"></use></clipPath><path d="M32 15 28.1 11.1 22.1 11.1 22.1 17 20.6 17 20.6 8.2 18.6 8.2 18.6 9.8 10.3 9.8 6.3 7.2 6.3 7.2 4.3 7.2 4.3 14.3 2.1 14.3 2.1 16.3 6.2 16.3 6.2 9.4 17.9 17 0.1 17 0.1 19 3.5 19C1.9 19.3 0.8 20.9 1.1 22.5 1.4 24.2 3 25.3 4.6 25 5.6 24.8 6.5 24.1 6.8 23.1L23.2 23.1C23.7 24.6 25.4 25.5 27 24.9 27.8 24.6 28.5 24 28.8 23.2L32 23.2 32 15 32 15ZM30 13.1 30 17 26 17 26 19C25.3 19 24.6 19.3 24 19.8L24 13.1 30 13.1 30 13.1ZM22.1 21 16.1 21 16.1 19.1 22.1 19.1 22.1 21 22.1 21ZM14.1 21 10.1 21 10.1 19.1 14.1 19.1 14.1 21 14.1 21ZM18.6 11.7 18.6 15.1 13.4 11.7 18.6 11.7 18.6 11.7ZM8.1 19.1 8.1 21 6.9 21C6.6 20 5.7 19.3 4.7 19.1L8.1 19.1ZM4.1 23C3.5 23 3.1 22.6 3.1 22 3.1 21.4 3.5 21 4.1 21 4.7 21 5.1 21.4 5.1 22 5.1 22 5.1 22 5.1 22 5.1 22.6 4.6 23 4.1 23L4.1 23 4.1 23ZM26.1 23C25.5 23 25.1 22.6 25.1 22 25.1 21.4 25.5 21 26.1 21 26.7 21 27.1 21.4 27.1 22 27.1 22 27.1 22 27.1 22 27.1 22.6 26.6 23 26.1 23L26.1 23ZM28.9 21.1C28.6 20.1 27.7 19.3 26.7 19.1L30 19.1 30 21.1 28.9 21.1 28.9 21.1Z" class="MsftOfcResponsive_Fill_7823dc" fill="#7823DC" fill-rule="evenodd" clip-rule="evenodd" clip-path="url(#SVGID_00000155849032368515003530000011373519307696714175_)"/></g></g></g></svg>