<svg viewBox="0 0 32 32" xmlns="http://www.w3.org/2000/svg" xmlns:xlink="http://www.w3.org/1999/xlink" id="Layer_2_1_" overflow="hidden"><style>
.MsftOfcResponsive_Fill_7823dc {
 fill:#7823DC; 
}
</style>
<g><path d="M28.2 16C28.2 15.7 28.2 15.3 28.2 15L32.1 10.6 29.1 5.4 23.4 6.6C22.8 6.2 22.3 5.9 21.6 5.6L19.8 0 13.9 0 12 5.6C11.4 5.9 10.8 6.2 10.2 6.6L4.5 5.4 1.5 10.6 4 13.5 6.6 13.5 4 10.3 5.5 7.6 9.8 8.5 10.6 8.7 11.3 8.2C11.8 7.9 12.2 7.6 12.7 7.4L13.6 7 13.8 6.2 15.2 2 18.3 2 19.7 6.2 20 7 20.8 7.4C21.3 7.6 21.8 7.9 22.2 8.2L22.9 8.7 23.7 8.5 28 7.6 29.5 10.3 26.6 13.6 26 14.2 26.1 15.1 26.1 16.8 26 17.7 26.6 18.3 29.5 21.6 28 24.3 23.7 23.4 22.9 23.2 22.2 23.7C21.7 24 21.3 24.3 20.8 24.5L20 24.9 19.7 25.7 18.3 30 15.2 30 13.8 25.8 13.6 25 12.8 24.6C12.3 24.4 11.8 24.1 11.4 23.8L10.7 23.3 9.9 23.5 5.6 24.4 4 21.6 6.7 18.5 4.1 18.5 1.6 21.4 4.6 26.6 10.3 25.4C10.9 25.8 11.4 26.1 12.1 26.4L13.9 32 19.8 32 21.6 26.4C22.2 26.1 22.8 25.8 23.4 25.4L29.1 26.6 32.1 21.4 28.1 17C28.1 16.6 28.2 16.3 28.2 16Z" class="st0 MsftOfcResponsive_Fill_7823dc" fill="#7823DC" fill-rule="evenodd" clip-rule="evenodd"/></g><g><g><path d="M15.4 15 13.8 13.2 16 13.2 18.2 16 16 18.8 13.9 18.8 15.4 17" class="st1 MsftOfcResponsive_Fill_7823dc" fill="#7823DC" fill-rule="evenodd" clip-rule="evenodd"/></g></g><rect x="0" y="14.9" width="15.6" height="2.1" class="MsftOfcResponsive_Fill_7823dc" fill="#7823DC"/></svg>