<svg width="512" height="512" viewBox="0 0 512 512" xmlns="http://www.w3.org/2000/svg" xmlns:xlink="http://www.w3.org/1999/xlink" id="Capa_1" overflow="hidden"><g><path d="M49.559 421.859C48.05 421.953 46.517 422 45 422 20.187 422 0 442.187 0 467 0 491.813 20.187 512 45 512 45.109 512 179.261 511.968 179.261 511.968 212.852 511.081 239.959 484.131 240.973 450.614L240.985 450.222 240.976 449.83C240.475 427.036 232.032 409.024 224.582 393.133 217.597 378.234 211 364.161 211 347L211 332 181 332.021 181 238.42C198.458 232.228 210.999 215.556 211 196.003 229.719 181.95 241 159.777 241 136L241 5.68434e-14 151 5.68434e-14 151 15C151 23.271 144.271 30 136 30L91 30 91 136C91 159.777 102.281 181.949 121 196.003 121.001 215.556 133.542 232.228 151 238.42L151 332.043 117.704 332.067 118.188 347.514C119.396 386.087 88.609 419.439 49.559 421.859ZM166 211C157.729 211 151 204.271 151 196 151 187.729 157.729 181 166 181 174.271 181 181 187.729 181 196 181 204.271 174.271 211 166 211ZM121 60 136 60C155.557 60 172.239 47.461 178.43 30L211 30 211 136C211 147.239 206.798 157.882 199.521 166.019 191.275 156.809 179.305 151 166 151 152.695 151 140.725 156.809 132.479 166.019 125.202 157.882 121 147.239 121 136ZM120.871 418.833C135.728 402.852 144.91 383.06 147.48 361.993L182.161 361.97C184.786 378.89 191.414 393.06 197.418 405.867 204.152 420.232 210.516 433.805 210.973 450.082 210.251 467.477 196.14 481.45 178.647 482.004L45 482.03C36.729 482.03 30 475.271 30 467 30 458.729 36.729 452 45 452 47.132 452 49.29 451.934 51.412 451.802 77.966 450.156 102.635 438.447 120.871 418.833Z" fill="#7823DC"/><path d="M467 422C465.483 422 463.95 421.953 462.441 421.859 423.389 419.439 392.603 386.087 393.811 347.513L394.295 332.066 361 332.043 361 238.42C378.458 232.228 390.999 215.556 391 196.003 409.719 181.95 421 159.777 421 136L421 30 376 30C367.729 30 361 23.271 361 15L361-5.68434e-14 271-5.68434e-14 271 136C271 159.777 282.281 181.949 301 196.003 301.001 215.556 313.542 232.228 331 238.42L331 332.022 301 332 301 347C301 364.161 294.403 378.234 287.418 393.133 279.969 409.025 271.525 427.036 271.024 449.83L271.015 450.222 271.027 450.614C272.041 484.131 299.148 511.081 332.739 511.968 332.891 511.968 466.89 512 467 512 491.813 512 512 491.813 512 467 512 442.187 491.813 422 467 422ZM346 211C337.729 211 331 204.271 331 196 331 187.729 337.729 181 346 181 354.271 181 361 187.729 361 196 361 204.271 354.271 211 346 211ZM301 30 333.57 30C339.76 47.461 356.443 60 376 60L391 60 391 136C391 147.239 386.798 157.882 379.521 166.019 371.275 156.809 359.305 151 346 151 332.695 151 320.725 156.809 312.479 166.019 305.202 157.882 301 147.239 301 136ZM467 482.03C466.89 482.03 333.505 482.003 333.354 482.003 315.861 481.449 301.75 467.476 301.028 450.081 301.485 433.804 307.848 420.231 314.583 405.866 320.587 393.059 327.215 378.889 329.84 361.969L364.521 361.992C367.091 383.059 376.273 402.851 391.13 418.832 409.366 438.446 434.034 450.155 460.588 451.801 462.71 451.933 464.869 451.999 467.001 451.999 475.272 451.999 482.001 458.728 482.001 466.999 482.001 475.27 475.271 482.03 467 482.03Z" fill="#7823DC"/></g></svg>