<svg viewBox="0 0 29.22 29.22" xmlns="http://www.w3.org/2000/svg" xmlns:xlink="http://www.w3.org/1999/xlink" xml:space="preserve" overflow="hidden"><g id="Layer_3"></g><g id="Layer_1"></g><g id="Layer_2"></g><g id="Layer_4"></g><g id="Layer_5"><g><path d="M29.24 25.26 29.53 24.97 24.82 29.66 25.28 29.21Z" fill="#7823DC"/><path d="M-0.01 29.21 25.28 29.21 29.24 25.26 29.24 0.04-0.01 0.04-0.01 29.21ZM1.99 2.04 27.24 2.04 27.24 27.22 1.99 27.22 1.99 2.04Z" fill="#7823DC"/><path d="M25.38 9.07C25.38 6.23 23.06 3.92 20.21 3.92 17.36 3.92 15.04 6.23 15.04 9.07 15.04 11.91 17.36 14.22 20.21 14.22 23.06 14.22 25.38 11.92 25.38 9.07ZM23.38 9.07C23.38 10.81 21.96 12.23 20.21 12.23 18.46 12.23 17.04 10.81 17.04 9.07 17.04 7.33 18.46 5.91 20.21 5.91 21.96 5.91 23.38 7.33 23.38 9.07Z" fill="#7823DC"/><path d="M14.18 9.07C14.18 6.23 11.86 3.92 9.01 3.92 6.16 3.92 3.84 6.23 3.84 9.07 3.84 11.91 6.16 14.22 9.01 14.22 11.87 14.23 14.18 11.92 14.18 9.07ZM12.18 9.07C12.18 10.81 10.76 12.23 9.01 12.23 7.26 12.23 5.84 10.81 5.84 9.07 5.84 7.33 7.26 5.91 9.01 5.91 10.76 5.91 12.18 7.33 12.18 9.07Z" fill="#7823DC"/><path d="M25.38 20.18C25.38 17.34 23.06 15.03 20.21 15.03 17.36 15.03 15.04 17.34 15.04 20.18 15.04 23.02 17.36 25.33 20.21 25.33 23.06 25.33 25.38 23.02 25.38 20.18ZM23.38 20.18C23.38 21.92 21.96 23.34 20.21 23.34 18.46 23.34 17.04 21.92 17.04 20.18 17.04 18.44 18.46 17.02 20.21 17.02 21.96 17.02 23.38 18.44 23.38 20.18Z" fill="#7823DC"/><path d="M14.18 20.18C14.18 17.34 11.86 15.03 9.01 15.03 6.16 15.03 3.84 17.34 3.84 20.18 3.84 23.02 6.16 25.33 9.01 25.33 11.87 25.33 14.18 23.02 14.18 20.18ZM12.18 20.18C12.18 21.92 10.76 23.34 9.01 23.34 7.26 23.34 5.84 21.92 5.84 20.18 5.84 18.44 7.26 17.02 9.01 17.02 10.76 17.02 12.18 18.44 12.18 20.18Z" fill="#7823DC"/></g></g></svg>