<svg viewBox="0 0 32 32" xmlns="http://www.w3.org/2000/svg" xmlns:xlink="http://www.w3.org/1999/xlink" id="Layer_2_1_" xml:space="preserve" overflow="hidden"><style>
.MsftOfcResponsive_Fill_7823dc {
 fill:#7823DC; 
}
</style>
<g><path d="M18.7 0 16.7 0C15.4 1 12.6 1.6 9.4 1.6 8 1.6 6.6 1.5 5.2 1.2 5.1 1.2 5.1 1.2 5 1.2 4.7 1.1 4.5 1.1 4.2 1 4 0.9 3.8 0.9 3.6 0.8 3.6 0.8 3.5 0.8 3.5 0.8 3.1 0.6 2.6 0.4 2.2 0.1 2.1 0.1 2.1 0 2 0L0 0 0 1.3C0 1.6 0 9.8 0.7 12.4 1.8 16.9 5.4 19 9 20.6L9.3 21 9.7 20.6C13.3 18.9 16.8 16.9 18 12.4 18.6 9.8 18.7 1.6 18.7 1.3L18.7 0 18.7 0 18.7 0 18.7 0ZM9.3 3.6C11.8 3.7 14.3 3.2 16.6 2.2 16.6 5.4 16.5 8.7 16 11.9 15.2 15.1 12.9 16.8 9.2 18.6 5.5 16.8 3.3 15.1 2.4 11.9 2.2 8.7 2 5.5 2 2.3 4.3 3.2 6.8 3.7 9.3 3.6L9.3 3.6Z" class="st0 MsftOfcResponsive_Fill_7823dc" fill="#7823DC" fill-rule="evenodd" clip-rule="evenodd"/><path d="M9.4 16C7.1 16 5.3 14.2 5.3 11.9L7.3 11.9C7.3 13.1 8.3 14 9.4 14 10.6 14 11.5 13.1 11.5 11.9L13.5 11.9C13.5 14.2 11.6 16 9.4 16Z" class="st1 MsftOfcResponsive_Fill_7823dc" fill="#7823DC"/><g><defs><path d="M0 32 32 32 32 0 0 0 0 32Z" id="SVGID_1_" class="MsftOfcResponsive_Fill_7823dc" fill="#7823DC"/></defs><clipPath id="SVGID_2_"><use width="100%" height="100%" xlink:href="#SVGID_1_" overflow="visible"></use></clipPath><path d="M13.4 8.8C13.4 8.5 13.2 8.3 12.9 8.3 12.9 8.3 12.9 8.3 12.9 8.3 12.7 8.3 12.6 8.4 12.6 8.4 12.5 8.5 12.5 8.6 12.5 8.7L10.5 8.7C10.5 8 10.8 7.4 11.2 7 11.7 6.5 12.3 6.3 12.9 6.3 12.9 6.3 12.9 6.3 12.9 6.3 14.3 6.3 15.4 7.4 15.4 8.8L13.4 8.8Z" class="st2 MsftOfcResponsive_Fill_7823dc" fill="#7823DC" clip-path="url(#SVGID_2_)"/><g class="st3" clip-path="url(#SVGID_2_)"><defs><path d="M0 32 32 32 32 0 0 0 0 32Z" id="SVGID_3_" class="MsftOfcResponsive_Fill_7823dc" fill="#7823DC"/></defs><clipPath id="SVGID_4_"><use width="100%" height="100%" xlink:href="#SVGID_3_" overflow="visible"></use></clipPath><path d="M5.4 8.8 3.4 8.8C3.4 8.1 3.7 7.5 4.1 7.1 4.6 6.6 5.2 6.4 5.8 6.4 5.8 6.4 5.8 6.4 5.8 6.4 7.2 6.4 8.3 7.5 8.3 8.9L6.3 8.9C6.3 8.6 6.1 8.4 5.8 8.4 5.6 8.4 5.5 8.5 5.5 8.5 5.5 8.5 5.4 8.7 5.4 8.8Z" class="st4 MsftOfcResponsive_Fill_7823dc" fill="#7823DC" clip-path="url(#SVGID_4_)"/><g class="st5" clip-path="url(#SVGID_4_)"><defs><path d="M0 32 32 32 32 0 0 0 0 32Z" id="SVGID_5_" class="MsftOfcResponsive_Fill_7823dc" fill="#7823DC"/></defs><clipPath id="SVGID_6_"><use width="100%" height="100%" xlink:href="#SVGID_5_" overflow="visible"></use></clipPath><path d="M19.2 20.4C17.8 20.4 16.7 19.3 16.7 17.9L18.7 17.9C18.7 18.2 18.9 18.4 19.2 18.4 19.4 18.4 19.5 18.3 19.5 18.3 19.6 18.2 19.6 18.1 19.6 18L21.6 18C21.6 18.7 21.3 19.3 20.9 19.7 20.5 20.2 19.8 20.4 19.2 20.4 19.2 20.4 19.2 20.4 19.2 20.4Z" class="st6 MsftOfcResponsive_Fill_7823dc" fill="#7823DC" clip-path="url(#SVGID_6_)"/><g class="st7" clip-path="url(#SVGID_6_)"><defs><path d="M0 32 32 32 32 0 0 0 0 32Z" id="SVGID_7_" class="MsftOfcResponsive_Fill_7823dc" fill="#7823DC"/></defs><clipPath id="SVGID_8_"><use width="100%" height="100%" xlink:href="#SVGID_7_" overflow="visible"></use></clipPath><path d="M26.2 20.4C24.8 20.4 23.7 19.3 23.7 17.9L25.7 17.9C25.7 18.2 25.9 18.4 26.2 18.4 26.4 18.4 26.5 18.3 26.5 18.3 26.6 18.2 26.6 18.1 26.6 18L28.6 18C28.6 18.7 28.3 19.3 27.9 19.7 27.5 20.2 26.8 20.4 26.2 20.4 26.2 20.4 26.2 20.4 26.2 20.4Z" class="st8 MsftOfcResponsive_Fill_7823dc" fill="#7823DC" clip-path="url(#SVGID_8_)"/><g class="st9" clip-path="url(#SVGID_8_)"><defs><path d="M0 32 32 32 32 0 0 0 0 32Z" id="SVGID_9_" class="MsftOfcResponsive_Fill_7823dc" fill="#7823DC"/></defs><clipPath id="SVGID_10_"><use width="100%" height="100%" xlink:href="#SVGID_9_" overflow="visible"></use></clipPath><path d="M26.8 26 24.8 26C24.8 24.8 23.8 23.9 22.7 23.9 21.6 23.9 20.6 24.8 20.6 26L18.6 26C18.6 23.8 20.4 21.9 22.7 21.9 25 21.9 26.8 23.7 26.8 26Z" class="st10 MsftOfcResponsive_Fill_7823dc" fill="#7823DC" clip-path="url(#SVGID_10_)"/><g class="st11" clip-path="url(#SVGID_10_)"><defs><path d="M0 32 32 32 32 0 0 0 0 32Z" id="SVGID_11_" class="MsftOfcResponsive_Fill_7823dc" fill="#7823DC"/></defs><clipPath id="SVGID_12_"><use width="100%" height="100%" xlink:href="#SVGID_11_" overflow="visible"></use></clipPath><path d="M32 11 30 11C28.7 12 25.9 12.6 22.7 12.6 21.8 12.6 20.9 12.5 20 12.4L20 14.4C20.9 14.5 21.8 14.6 22.7 14.6 25.2 14.7 27.7 14.2 30 13.2 30 16.4 29.9 19.7 29.4 22.9 28.6 26.1 26.3 27.8 22.7 29.6 19 27.8 16.8 26.1 16 22.9 15.9 22.3 15.8 21.6 15.7 21L13.7 21C13.8 21.8 13.9 22.6 14 23.4 15.1 27.9 18.7 30 22.3 31.6L22.7 32 23.1 31.6C26.7 29.9 30.2 27.9 31.4 23.4 32 20.8 32 12.6 32 12.3L32 11 32 11 32 11 32 11 32 11Z" class="st12 MsftOfcResponsive_Fill_7823dc" fill="#7823DC" fill-rule="evenodd" clip-rule="evenodd" clip-path="url(#SVGID_12_)"/></g></g></g></g></g></g></g></svg>