<svg viewBox="0 0 32 32" xmlns="http://www.w3.org/2000/svg" xmlns:xlink="http://www.w3.org/1999/xlink" overflow="hidden"><defs></defs><g id="Layer_3"><path d="M29.83 14.45 29.54 14 23.98 14C23.77 5.27 22.24 0.87 22.17 0.67L21.94 0 2.06 0 1.83 0.67C1.75 0.88 0 5.94 0 16 0 26.06 1.75 31.12 1.83 31.33L2.06 32 29.54 32 29.83 31.55C31.3273 28.9544 32.0783 25.9955 32 23 32.0783 20.0045 31.3273 17.0456 29.83 14.45ZM3.51 30C2.40694 25.4176 1.89942 20.7122 2 16 1.89941 11.2878 2.40693 6.58235 3.51 2L20.49 2C21.4498 5.92855 21.9466 9.95596 21.97 14L18.46 14 18.17 14.45C16.6727 17.0456 15.9217 20.0045 16 23 15.9809 25.4018 16.4468 27.7827 17.37 30ZM28.42 30 19.58 30C18.5128 27.8225 17.9716 25.4248 18 23 17.9701 20.575 18.5114 18.177 19.58 16L28.42 16C29.4872 18.1775 30.0284 20.5752 30 23 30.0284 25.4248 29.4872 27.8225 28.42 30Z" fill="#7823DC"/><rect x="2" y="26" width="16" height="2" fill="#7823DC"/><path d="M17.39 8.74 17.28 7.93 16.45 7.88C16.3 7.87 12.7 7.7 10.67 9.9 10.3299 10.2714 10.0437 10.6888 9.82 11.14 8.71377 10.9164 7.57757 10.8826 6.46 11.04L5.65 11.18 5.63 12C5.63 12.16 5.57 15.77 7.84 17.72 9.14645 18.7237 10.7638 19.2369 12.41 19.17 12.8819 19.1734 13.3533 19.1399 13.82 19.07L14.63 18.93 14.65 18.11C14.6494 17.3316 14.5554 16.556 14.37 15.8 14.9242 15.5147 15.4249 15.1358 15.85 14.68 17.88 12.47 17.41 8.89 17.39 8.74ZM9.9 16.69C9.63952 16.5714 9.39713 16.4165 9.18 16.23 9.17 16.23 9.16 16.22 9.15 16.21 8.29362 15.3258 7.77661 14.1679 7.69 12.94 8.203 12.9339 8.71539 12.9774 9.22 13.07 9.90728 13.1734 10.5574 13.4485 11.11 13.87L11.11 13.88C11.12 13.88 11.13 13.89 11.14 13.9 11.3653 14.1001 11.5637 14.3287 11.73 14.58 12.091 15.1627 12.3418 15.8067 12.47 16.48 12.5301 16.73 12.56 16.96 12.5901 17.17 11.6692 17.2064 10.7514 17.0427 9.9 16.69ZM14.38 13.32C14.1669 13.5514 13.921 13.7502 13.65 13.91 13.341 13.3349 12.9312 12.8201 12.44 12.39 12.2123 12.1957 11.9681 12.0217 11.71 11.87 11.8256 11.6484 11.9702 11.4433 12.14 11.26 13.0488 10.4325 14.2217 9.95415 15.45 9.91 15.5034 11.1369 15.1247 12.3436 14.38 13.32Z" fill="#7823DC"/><rect x="22" y="18" width="2" height="2" fill="#7823DC"/><rect x="26" y="22" width="2" height="2" fill="#7823DC"/><rect x="21" y="25" width="2" height="2" fill="#7823DC"/></g></svg>