<svg viewBox="0 0 32 32" xmlns="http://www.w3.org/2000/svg" xmlns:xlink="http://www.w3.org/1999/xlink" id="Graphic" overflow="hidden"><defs></defs><rect x="3" y="2" width="2" height="11" fill="#7823DC"/><rect x="3" y="19" width="2" height="11" fill="#7823DC"/><path d="M12.5 16 7.5 16 7.5 10 12.5 10ZM9.5 14 10.5 14 10.5 12 9.5 12Z" fill="#7823DC"/><path d="M18.5 23 13.5 23 13.5 17 18.5 17ZM15.5 21 16.5 21 16.5 19 15.5 19" fill="#7823DC"/><path d="M24.5 19 19.5 19 19.5 13 24.5 13ZM21.5 17 22.5 17 22.5 15 21.5 15Z" fill="#7823DC"/><path d="M30.5 16 25.5 16 25.5 10 30.5 10ZM27.5 14 28.5 14 28.5 12 27.5 12Z" fill="#7823DC"/><path d="M1.5 13 1.5 19 6.5 19 6.5 13ZM4.5 17 3.5 17 3.5 15 4.5 15Z" fill="#7823DC"/><rect x="9" y="2" width="2" height="8" fill="#7823DC"/><rect x="9" y="16" width="2" height="14" fill="#7823DC"/><rect x="15" y="2" width="2" height="15" fill="#7823DC"/><rect x="15" y="23" width="2" height="7" fill="#7823DC"/><rect x="21" y="2" width="2" height="11" fill="#7823DC"/><rect x="21" y="19" width="2" height="11" fill="#7823DC"/><rect x="27" y="2" width="2" height="8" fill="#7823DC"/><rect x="27" y="16" width="2" height="14" fill="#7823DC"/></svg>