<svg viewBox="0 0 32 32" xmlns="http://www.w3.org/2000/svg" xmlns:xlink="http://www.w3.org/1999/xlink" id="Layer_1" overflow="hidden"><style>
.MsftOfcThm_Text2_Fill_v2 {
 fill:#7823DC; 
}
</style>
<path d="M18 32 0 32 0 15.12 18.36 15.12 18.36 17.12 2 17.12 2 30 18 30 18 32Z" class="MsftOfcThm_Text2_Fill_v2" fill="#7823DC"/><rect x="9.89" y="1.13" width="2" height="13.45" class="MsftOfcThm_Text2_Fill_v2" fill="#7823DC" transform="matrix(0.921998 -0.387194 0.387194 0.921998 -2.19 4.83)"/><path d="M6.86 16.12 4.86 16.12C4.86 10.92 8.67 8.18 10.69 7.45L11.37 9.33C11.19 9.4 6.86 11.05 6.86 16.11Z" class="MsftOfcThm_Text2_Fill_v2" fill="#7823DC"/><rect x="10.41" y="16.12" width="2" height="14.88" class="MsftOfcThm_Text2_Fill_v2" fill="#7823DC"/><path d="M27.9 8.2C25.64 8.2 23.8 6.36 23.8 4.1 23.8 1.84 25.64 0 27.9 0 30.16 0 32 1.84 32 4.1 32 6.36 30.16 8.2 27.9 8.2ZM27.9 2C26.74 2 25.8 2.94 25.8 4.1 25.8 5.26 26.74 6.2 27.9 6.2 29.06 6.2 30 5.26 30 4.1 30 2.94 29.06 2 27.9 2Z" class="MsftOfcThm_Text2_Fill_v2" fill="#7823DC"/><path d="M32 32 25.47 32 25.47 16.91C24.79 17.05 24.07 17.12 23.3 17.12L18.36 17.12 18.38 10.99 20.41 10.99C22.47 11.01 24.41 11.02 25.35 10.45L27.03 9.47C27.94 8.85 29.2 8.76 30.21 9.28 31.32 9.72 32 10.75 32 11.98L32 31.99ZM27.47 30 30 30 30 11.99C30 11.58 29.8 11.27 29.45 11.14L29.31 11.08C28.89 10.85 28.39 10.96 28.09 11.17L26.37 12.17C24.96 13.03 22.84 13.02 20.39 13L20.37 13 20.37 15.13 23.29 15.13C24.36 15.13 25.25 14.98 26.1 14.65L27.46 14.12 27.46 30.02Z" class="MsftOfcThm_Text2_Fill_v2" fill="#7823DC"/></svg>