<svg width="32" height="30" viewBox="0 0 32 30" xmlns="http://www.w3.org/2000/svg" xmlns:xlink="http://www.w3.org/1999/xlink" overflow="hidden"><defs></defs><g><path d="M27.1 12 5.1 12C4.5 12 4.1 12.4 4.1 13 4.1 13.6 4.5 14 5.1 14L27.1 14C27.7 14 28.1 13.6 28.1 13 28.1 12.4 27.7 12 27.1 12" fill="#7823DC"/><path d="M27.1 20 5.1 20C4.5 20 4.1 20.4 4.1 21 4.1 21.6 4.5 22 5.1 22L27.1 22C27.7 22 28.1 21.6 28.1 21 28.1 20.4 27.7 20 27.1 20" fill="#7823DC"/><path d="M27.1 24 5.1 24C4.5 24 4.1 24.4 4.1 25 4.1 25.6 4.5 26 5.1 26L27.1 26C27.7 26 28.1 25.6 28.1 25 28.1 24.4 27.7 24 27.1 24" fill="#7823DC"/><path d="M27.1 16 5.1 16C4.5 16 4.1 16.4 4.1 17 4.1 17.6 4.5 18 5.1 18L27.1 18C27.7 18 28.1 17.6 28.1 17 28.1 16.4 27.7 16 27.1 16" fill="#7823DC"/><path d="M30 8 30 28 2 28 2 8 30 8 28 6 24 6 24 5.2C24 2.3 21.7 0 18.8 0L13.2 0C10.3 0 8 2.3 8 5.2L8 6 0 6 0 30 32 30 32 10 30 8ZM10 5.2C10 3.4 11.4 2 13.2 2L18.8 2C20.6 2 22 3.4 22 5.2L22 6 10 6 10 5.2Z" fill="#7823DC"/></g></svg>