<svg viewBox="0 0 32 32" xmlns="http://www.w3.org/2000/svg" xmlns:xlink="http://www.w3.org/1999/xlink" id="Graphic" xml:space="preserve" overflow="hidden"><path d="M29.2 18 20.6 20.8 20.6 19.6 20.6 17.3 18.4 17.6 15.3 18 10.4 16 9.5 15.7 8.7 16.2 5.5 18 2.3 18 0.3 18 0.3 20 0.3 26 0.3 28 2.3 28 5.5 28 15.3 32 30.7 23.7 31.7 23.2 31.7 22 31.7 20 31.7 17.2 29.2 18 29.2 18 29.2 18 29.2 18 29.2 18ZM29.8 22 15 29.8 5.9 26 2.3 26 2.3 20 6 20 9.7 18 15.1 20 18.8 19.5 18.8 21.5 17.8 22 14.1 22.8 14.1 24.5 18 23.8 18 23.8 29.8 20 29.8 22 29.8 22 29.8 22 29.8 22 29.8 22Z" fill="#7823DC" fill-rule="evenodd" clip-rule="evenodd"/><g><g><path d="M16.5 14C16.4 14 16.4 14 16.3 14 16.1 13.9 11.2 11.6 9.8 7 9.3 5.2 9.4 3.5 10.2 2.3 10.8 1.4 11.7 0.8 12.9 0.7 14 0.4 15 0.7 15.7 1.3 16 1.6 16.3 1.9 16.5 2.4 16.7 2 17 1.6 17.3 1.3 18 0.7 19 0.4 20.1 0.6 21.3 0.8 22.2 1.3 22.8 2.2 23.6 3.4 23.7 5.2 23.2 6.9 21.8 11.5 16.9 13.8 16.7 13.9 16.7 14 16.6 14 16.5 14L16.5 14ZM13.5 1.4C13.3 1.4 13.1 1.4 13 1.4 12.1 1.6 11.4 1.9 11 2.7 10.4 3.7 10.3 5.2 10.7 6.7 11.8 10.5 15.6 12.6 16.5 13.1 17.4 12.6 21.2 10.5 22.3 6.7 22.8 5.2 22.7 3.7 22 2.7 21.6 2 20.9 1.6 20 1.4 19.1 1.3 18.4 1.4 17.9 1.9 17.3 2.5 17 3.4 17 4.6 17 4.8 16.8 5 16.5 5 16.3 5 16.1 4.8 16.1 4.6 16.1 3.4 15.8 2.5 15.2 2 14.7 1.6 14.2 1.4 13.5 1.4L13.5 1.4Z" fill="#7823DC" fill-rule="evenodd" clip-rule="evenodd"/><path d="M16.7 14.5 16.5 14.5C16.4 14.5 16.2 14.5 16.1 14.4 16.1 14.4 10.8 12 9.3 7.1 8.7 5.1 8.9 3.2 9.8 1.9 10.5 0.9 11.5 0.2 12.9 0.1 14.2-0.1 15.3 0.2 16.1 0.9 16.3 1 16.4 1.2 16.5 1.3 16.6 1.1 16.8 1 16.9 0.9 17.8 0.2 18.9-0.1 20.1 0.1 21.4 0.3 22.4 0.9 23.1 2 24 3.3 24.1 5.2 23.6 7.2 22.4 11.3 18.5 13.7 16.9 14.5L16.8 14.6 16.7 14.5ZM13.5 1.9C13.4 1.9 13.2 1.9 13.1 1.9 12.3 2 11.7 2.4 11.4 2.9 10.8 3.8 10.8 5.1 11.2 6.5 11.9 8.7 13.7 10.8 16.5 12.4 17.8 11.7 20.9 9.7 21.8 6.5 22.2 5.1 22.1 3.8 21.6 2.9 21.3 2.4 20.7 2 19.9 1.9 19.4 1.8 18.7 1.8 18.2 2.3 17.6 2.9 17.4 3.8 17.4 4.5 17.4 5 17 5.5 16.4 5.5 15.9 5.5 15.4 5.1 15.4 4.5 15.4 3.5 15.1 2.7 14.7 2.3 14.4 2.1 14 1.9 13.5 1.9Z" fill="#7823DC"/></g></g></svg>