<svg viewBox="0 0 32 32" xmlns="http://www.w3.org/2000/svg" xmlns:xlink="http://www.w3.org/1999/xlink" id="Layer_1" overflow="hidden"><style>
.MsftOfcResponsive_Fill_7823dc {
 fill:#7823DC; 
}
</style>
<path d="M16 32C7.18 32 0 24.82 0 16 0 7.18 7.18 0 16 0 24.82 0 32 7.18 32 16 32 24.82 24.82 32 16 32ZM16 2C8.28 2 2 8.28 2 16 2 23.72 8.28 30 16 30 23.72 30 30 23.72 30 16 30 8.28 23.72 2 16 2Z" class="MsftOfcResponsive_Fill_7823dc" fill="#7823DC"/><path d="M16 27C9.93 27 5 22.07 5 16 5 9.93 9.93 5 16 5 22.07 5 27 9.93 27 16 27 22.07 22.07 27 16 27ZM16 7C11.04 7 7 11.04 7 16 7 20.96 11.04 25 16 25 20.96 25 25 20.96 25 16 25 11.04 20.96 7 16 7Z" class="MsftOfcResponsive_Fill_7823dc" fill="#7823DC"/><path d="M13.5 25.38C12.96 25.38 12.52 24.95 12.5 24.41 12.39 20.53 9.71 17.11 5.99 16.1 5.46 15.95 5.14 15.4 5.29 14.87 5.44 14.34 5.98 14.02 6.52 14.17 11.09 15.41 14.37 19.6 14.51 24.36 14.53 24.91 14.09 25.37 13.54 25.39L13.51 25.39Z" class="MsftOfcResponsive_Fill_7823dc" fill="#7823DC"/><path d="M18.5 25.38 18.47 25.38C17.92 25.36 17.48 24.9 17.5 24.35 17.63 19.52 20.84 15.43 25.49 14.16 26.02 14.01 26.57 14.33 26.72 14.86 26.87 15.39 26.55 15.94 26.02 16.09 22.23 17.12 19.62 20.46 19.51 24.4 19.49 24.94 19.05 25.37 18.51 25.37Z" class="MsftOfcResponsive_Fill_7823dc" fill="#7823DC"/><path d="M24.75 13.25C24.66 13.25 24.57 13.24 24.48 13.21 18.93 11.64 13.07 11.64 7.52 13.21 6.99 13.36 6.44 13.05 6.29 12.52 6.14 11.99 6.45 11.44 6.98 11.29 12.88 9.62 19.12 9.62 25.02 11.29 25.55 11.44 25.86 11.99 25.71 12.52 25.59 12.96 25.18 13.25 24.75 13.25Z" class="MsftOfcResponsive_Fill_7823dc" fill="#7823DC"/><path d="M16 19C14.35 19 13 17.65 13 16 13 14.35 14.35 13 16 13 17.65 13 19 14.35 19 16 19 17.65 17.65 19 16 19ZM16 15C15.45 15 15 15.45 15 16 15 16.55 15.45 17 16 17 16.55 17 17 16.55 17 16 17 15.45 16.55 15 16 15Z" class="MsftOfcResponsive_Fill_7823dc" fill="#7823DC"/></svg>