<svg viewBox="0 0 31.99 32" xmlns="http://www.w3.org/2000/svg" xmlns:xlink="http://www.w3.org/1999/xlink" id="Grid" overflow="hidden"><style>
.MsftOfcResponsive_Fill_7823dc {
 fill:#7823DC; 
}
</style>
<defs></defs><path d="M31.99 0 31.99 2 2 2 2 0 31.99 0 31.99 0Z" class="MsftOfcResponsive_Fill_7823dc" fill="#7823DC"/><path d="M31.99 30 31.99 32 2 32 2 30 31.99 30 31.99 30Z" class="MsftOfcResponsive_Fill_7823dc" fill="#7823DC"/><path d="M24 16 24 18 6 18 6 16 24 16 24 16Z" class="MsftOfcResponsive_Fill_7823dc" fill="#7823DC"/><path d="M20 20 20 22 6 22 6 20 20 20 20 20Z" class="MsftOfcResponsive_Fill_7823dc" fill="#7823DC"/><path d="M16 24 16 26 6 26 6 24 16 24 16 24Z" class="MsftOfcResponsive_Fill_7823dc" fill="#7823DC"/><path d="M0 14.12 1.99 14.12 1.99 32 0 32 0 14.12 0 14.12Z" class="MsftOfcResponsive_Fill_7823dc" fill="#7823DC"/><path d="M0 0 1.99 0 1.99 3.97 0 3.97 0 0 0 0Z" class="MsftOfcResponsive_Fill_7823dc" fill="#7823DC"/><path d="M30 0 31.99 0 31.99 31.88 30 31.88 30 0 30 0Z" class="MsftOfcResponsive_Fill_7823dc" fill="#7823DC"/><path d="M15.97 9 12.98 6 10.16 6 12.15 8 0.02 8 0.02 10 12.15 10 10.16 12 12.98 12 15.97 9 15.97 9 15.97 9Z" class="MsftOfcResponsive_Fill_7823dc" fill="#7823DC"/><path d="M25.43 31.74 24.08 30.27 30.56 24.31 31.91 25.78 25.43 31.74 25.43 31.74Z" class="MsftOfcResponsive_Fill_7823dc" fill="#7823DC"/></svg>