<svg viewBox="0 0 32 32" xmlns="http://www.w3.org/2000/svg" xmlns:xlink="http://www.w3.org/1999/xlink" id="Outline_Final_icon" overflow="hidden"><defs></defs><rect x="3.97" y="3.95" width="5.95" height="2" fill="#7823DC"/><path d="M27.8 6.38C27.8 5.4 27 4.6 26.02 4.6 25.04 4.6 24.24 5.4 24.24 6.38 24.24 6.67 24.32 6.95 24.45 7.19L19.19 16.73 12.94 10.89C12.97 10.76 12.99 10.63 12.99 10.5 12.99 9.52 12.19 8.72 11.21 8.72 10.23 8.72 9.43 9.52 9.43 10.5 9.43 10.74 9.48 10.97 9.57 11.18L6.27 14.32C6.15 14.29 6.03 14.28 5.9 14.28 4.92 14.28 4.12 15.08 4.12 16.06 4.12 17.04 4.92 17.84 5.9 17.84 6.88 17.84 7.68 17.04 7.68 16.06 7.68 15.96 7.67 15.87 7.65 15.77L11.33 12.27C11.33 12.27 11.42 12.27 11.47 12.26L17.68 18.06C17.63 18.22 17.6 18.38 17.6 18.56 17.6 19.54 18.4 20.34 19.38 20.34 20.36 20.34 21.16 19.54 21.16 18.56 21.16 18.26 21.08 17.98 20.95 17.73L26.23 8.15C27.12 8.05 27.81 7.31 27.81 6.39Z" fill="#7823DC"/><path d="M32 23.98 32 4.08 30 2.08 30 21.98 2 21.98 2 2 29.92 2 27.92 0 0 0 0 23.98 15 23.98 15 27.17 7.92 27.17 7.89 27.15 4.93 32 7.28 32 9 29.17 23 29.17 24.72 32 27.07 32 24.11 27.15 24.05 27.19 24.05 27.17 17 27.17 17 23.98 32 23.98Z" fill="#7823DC"/></svg>