<svg viewBox="0 0 32 32" xmlns="http://www.w3.org/2000/svg" xmlns:xlink="http://www.w3.org/1999/xlink" id="Graphic" overflow="hidden"><defs></defs><path d="M4 0 4 32 30 32 30 0ZM28 30 6 30 6 2 28 2 28 30Z" fill="#7823DC"/><rect x="4.02" y="17.98" width="2" height="6" fill="#7823DC" transform="matrix(6.12323e-17 -1 1 6.12323e-17 -15.97 26)"/><rect x="4.02" y="21.95" width="2" height="6" fill="#7823DC" transform="matrix(6.12323e-17 -1 1 6.12323e-17 -19.94 29.97)"/><rect x="4.02" y="13.98" width="2" height="6" fill="#7823DC" transform="matrix(6.12323e-17 -1 1 6.12323e-17 -11.97 22)"/><rect x="4.02" y="9.98" width="2" height="6" fill="#7823DC" transform="matrix(6.12323e-17 -1 1 6.12323e-17 -7.97 18)"/><rect x="4.02" y="5.98" width="2" height="6" fill="#7823DC" transform="matrix(6.12323e-17 -1 1 6.12323e-17 -3.97 14)"/><rect x="4.02" y="2.02" width="2" height="6" fill="#7823DC" transform="matrix(6.12323e-17 -1 1 6.12323e-17 0 10.03)"/><rect x="24.03" y="0.03" width="2" height="31.94" fill="#7823DC"/></svg>