<svg viewBox="0 0 32 32" xmlns="http://www.w3.org/2000/svg" xmlns:xlink="http://www.w3.org/1999/xlink" id="Layer_3" overflow="hidden"><defs></defs><path d="M24.56 8 7.44 8C3.34 8 0 11.34 0 15.44L0 24.56C0 28.66 3.34 32 7.44 32L24.56 32C28.66 32 32 28.66 32 24.56L32 15.44C32 11.34 28.66 8 24.56 8ZM8 30 7.44 30C4.44 30 2 27.56 2 24.56L2 15.44C2 12.44 4.44 10 7.44 10L8 10 8 30ZM10 30 10 27.34 12.66 30 10 30ZM15.5 30 10 24.5 10 21.34 18.66 30 15.5 30ZM22 30 21.5 30 10 18.5 10 15.34 22 27.34 22 30ZM22 24.5 10 12.5 10 10 10.66 10 22 21.34 22 24.5ZM22 18.5 13.5 10 16.74 10 22 15.26 22 18.5ZM22 12.42 19.58 10 22 10 22 12.42ZM30 24.56C30 27.56 27.56 30 24.56 30L24 30 24 10 24.56 10C27.56 10 30 12.44 30 15.44L30 24.56Z" stroke-width="0" fill="#7823DC"/><path d="M8.3 3.03 5.82 6 3.21 6 4.89 3.99 0 3.99 0 2 4.85 2 3.2 0 5.79 0 8.3 3.03Z" stroke-width="0" fill="#7823DC"/><path d="M32 3.03 29.52 6 26.91 6 28.59 3.99 23.7 3.99 23.7 2 28.55 2 26.9 0 29.49 0 32 3.03Z" stroke-width="0" fill="#7823DC"/></svg>