<svg viewBox="0 0 32 32" xmlns="http://www.w3.org/2000/svg" xmlns:xlink="http://www.w3.org/1999/xlink" id="Graphic" overflow="hidden"><style>
.MsftOfcResponsive_Fill_7823dc {
 fill:#7823DC; 
}
</style>
<defs></defs><path d="M16.5 2C20.6337 2.01096 23.9835 5.35633 24 9.49L24 17.89C24.011 20.1488 22.1889 21.9889 19.93 22 19.9234 22 19.9167 22 19.91 22L12.09 22C9.83116 22 7.99998 20.1689 7.99995 17.91 7.99995 17.9034 7.99997 17.8967 8 17.89L8 9.36C8.0165 5.29423 11.3142 2.00547 15.38 2L16.5 2M16.5 0 15.38 0C10.2074-1.17581e-05 6.01103 4.18738 6 9.36L6 17.89C5.98895 21.2534 8.70657 23.9889 12.07 24 12.0766 24 12.0833 24 12.09 24L19.91 24C23.2734 24 26 21.2734 26 17.91 26 17.9034 26 17.8967 26 17.89L26 9.49C25.989 4.24949 21.7405 0.00549873 16.5-2.28882e-07Z" class="MsftOfcResponsive_Fill_7823dc" fill="#7823DC"/><path d="M18.15 6C19.714 6.00538 20.9836 7.26608 21 8.83L21 9.93C20.9785 10.5274 20.4877 11.0004 19.89 11L12.31 11C11.7025 11.0055 11.2056 10.5175 11.2 9.91005 11.2 9.9067 11.2 9.90335 11.2 9.9L11.2 8.77C11.211 7.23303 12.463 5.99445 14 6L18.17 6M18.17 4 14 4C11.3584 3.99446 9.21102 6.12846 9.2 8.77L9.2 9.93C9.21648 11.6343 10.6057 13.0056 12.31 13L19.89 13C21.5943 13.0056 22.9835 11.6343 23 9.93L23 8.83C22.989 6.15923 20.8208 3.99998 18.15 4Z" class="MsftOfcResponsive_Fill_7823dc" fill="#7823DC"/><path d="M12 21C10.3431 21 9 19.6569 9 18 9 16.3431 10.3431 15 12 15 13.6569 15 15 16.3431 15 18 15 19.6569 13.6569 21 12 21ZM12 17C11.4477 17 11 17.4477 11 18 11 18.5523 11.4477 19 12 19 12.5523 19 13 18.5523 13 18 13 17.4477 12.5523 17 12 17Z" class="MsftOfcResponsive_Fill_7823dc" fill="#7823DC"/><path d="M20 21C18.3431 21 17 19.6569 17 18 17 16.3431 18.3431 15 20 15 21.6569 15 23 16.3431 23 18 23 19.6569 21.6569 21 20 21ZM20 17C19.4477 17 19 17.4477 19 18 19 18.5523 19.4477 19 20 19 20.5523 19 21 18.5523 21 18 21 17.4477 20.5523 17 20 17Z" class="MsftOfcResponsive_Fill_7823dc" fill="#7823DC"/><path d="M32.1 32.02-0.1 32.02 8.53 21.37 10.08 22.63 4.1 30.02 27.9 30.02 21.92 22.64 23.47 21.38 32.1 32.02Z" class="MsftOfcResponsive_Fill_7823dc" fill="#7823DC"/><rect x="5.54" y="26.02" width="21.03" height="2" class="MsftOfcResponsive_Fill_7823dc" fill="#7823DC"/></svg>