<svg viewBox="0 0 32 32" xmlns="http://www.w3.org/2000/svg" xmlns:xlink="http://www.w3.org/1999/xlink" xml:space="preserve" overflow="hidden"><style>
.MsftOfcResponsive_Fill_7823dc {
 fill:#7823DC; 
}
</style>
<g id="Layer_3"></g><g id="Layer_1"><rect x="0.06" y="19.37" width="14.52" height="2" class="st1 MsftOfcResponsive_Fill_7823dc" fill="#7823DC"/><path d="M10 24.24C9.67 24.24 9.34 24.07 9.15 23.77 8.86 23.3 9 22.68 9.47 22.39L12.7 20.37 9.47 18.35C9 18.06 8.86 17.44 9.15 16.97 9.44 16.5 10.06 16.36 10.53 16.65L16.47 20.37 10.52 24.08C10.36 24.19 10.18 24.24 10 24.24Z" class="st1 MsftOfcResponsive_Fill_7823dc" fill="#7823DC"/><rect x="17.69" y="0" width="2" height="10.03" class="st1 MsftOfcResponsive_Fill_7823dc" fill="#7823DC"/><rect x="17.71" y="22.03" width="2" height="10.04" class="st1 MsftOfcResponsive_Fill_7823dc" fill="#7823DC"/><rect x="0.06" y="11.3" width="14.52" height="2" class="st1 MsftOfcResponsive_Fill_7823dc" fill="#7823DC"/><path d="M10 16.16C9.67 16.16 9.34 15.99 9.15 15.69 8.86 15.23 9 14.61 9.47 14.32L12.7 12.3 9.47 10.28C9 9.98 8.86 9.37 9.15 8.9 9.44 8.43 10.06 8.29 10.53 8.58L16.47 12.3 10.52 16.02C10.36 16.12 10.18 16.16 10 16.16Z" class="st1 MsftOfcResponsive_Fill_7823dc" fill="#7823DC"/><path d="M22.83 16.54 22.49 16.49 21.69 16.33 21.69 3.73 22.83 3.52C26.47 3.52 29.44 6.44 29.44 10.03 29.44 13.62 26.48 16.54 22.83 16.54ZM23.69 5.61 23.69 14.47C25.82 14.08 27.44 12.24 27.44 10.04 27.44 7.84 25.82 6 23.69 5.61Z" class="st1 MsftOfcResponsive_Fill_7823dc" fill="#7823DC"/><path d="M22.83 27.67 22.49 27.62 21.69 27.46 21.69 14.75 22.83 14.54C26.47 14.54 29.44 17.49 29.44 21.11 29.44 24.73 26.48 27.67 22.83 27.67ZM23.69 16.62 23.69 25.6C25.82 25.2 27.44 23.34 27.44 21.11 27.44 18.88 25.82 17.02 23.69 16.62Z" class="st1 MsftOfcResponsive_Fill_7823dc" fill="#7823DC"/><path d="M23.16 21.97 22.82 21.92 22.02 21.76 22.02 9.04 23.17 8.83C26.88 8.83 29.9 11.78 29.9 15.4 29.9 19.02 26.86 21.97 23.16 21.97ZM24.01 10.91 24.01 19.9C26.21 19.51 27.88 17.64 27.88 15.41 27.88 13.16 26.21 11.3 24.01 10.91Z" class="st1 MsftOfcResponsive_Fill_7823dc" fill="#7823DC"/></g><g id="Layer_2"></g></svg>