<svg width="36.5" height="36.6" viewBox="0 0 36.5 36.6" xmlns="http://www.w3.org/2000/svg" xmlns:xlink="http://www.w3.org/1999/xlink" overflow="hidden"><defs></defs><g><g><defs><path d="M0 36.5 36.5 36.5 36.5 0 0 0 0 36.5Z" id="SVGID_1_" fill="#7823DC"/></defs><clipPath id="SVGID_2_"><use width="100%" height="100%" xlink:href="#SVGID_1_"></use></clipPath><g clip-path="url(#SVGID_2_)"><defs><path d="M0 36.5 36.5 36.5 36.5 0 0 0 0 36.5Z" id="SVGID_3_" fill="#7823DC"/></defs><clipPath id="SVGID_4_"><use width="100%" height="100%" xlink:href="#SVGID_3_"></use></clipPath><path d="M14.3 1.7C13.8 1.7 13.4 1.9 13.1 2.2 12.4 2.9 12.4 3.9 13.1 4.6 13.1 4.6 13.1 4.6 13.1 4.6 13.8 5.3 14.8 5.3 15.5 4.6 16.2 3.9 16.2 2.9 15.5 2.2 15.5 2.2 15.5 2.2 15.5 2.2 15.1 1.9 14.7 1.7 14.3 1.7L14.3 1.7Z" fill="#7823DC" clip-path="url(#SVGID_4_)"/><path d="M25.1 16.6C23.5 16.6 22.2 15.3 22.2 13.7 22.2 12.1 23.5 10.8 25.1 10.8 26.7 10.8 28 12.1 28 13.7 28 15.3 26.7 16.6 25.1 16.6ZM25.1 13.2C24.8 13.2 24.5 13.5 24.5 13.8 24.5 14.1 24.8 14.4 25.1 14.4 25.4 14.4 25.7 14.1 25.7 13.8 25.7 13.5 25.4 13.2 25.1 13.2Z" fill="#7823DC" clip-path="url(#SVGID_4_)"/><path d="M9.1 4.6C7.2 4.6 5.7 6.1 5.7 8 5.7 9.9 7.2 11.4 9.1 11.4 11 11.4 12.5 9.9 12.5 8 12.5 6.1 11 4.6 9.1 4.6L9.1 4.6ZM9.1 9.1C8.5 9.1 8 8.6 8 8 8 7.4 8.5 6.9 9.1 6.9 9.7 6.9 10.2 7.4 10.2 8 10.2 8.6 9.8 9.1 9.1 9.1L9.1 9.1Z" fill="#7823DC" clip-path="url(#SVGID_4_)"/><path d="M27.4 6.3C26.5 6.3 25.7 7.1 25.7 8 25.7 8.9 26.5 9.7 27.4 9.7 28.3 9.7 29.1 9 29.1 8 29.1 7 28.3 6.3 27.4 6.3L27.4 6.3Z" fill="#7823DC" clip-path="url(#SVGID_4_)"/><path d="M30.8 3.4C30.5 3.4 30.2 3.5 30 3.7 29.6 4.1 29.5 4.9 30 5.3 30 5.3 30 5.3 30 5.3 30.2 5.5 30.5 5.6 30.8 5.6 31.1 5.6 31.4 5.5 31.6 5.3 32 4.9 32.1 4.1 31.6 3.7 31.6 3.7 31.6 3.7 31.6 3.7 31.4 3.5 31.1 3.4 30.8 3.4L30.8 3.4Z" fill="#7823DC" clip-path="url(#SVGID_4_)"/><path d="M21.8 36.6 16.8 14.9 7.3 14.9 2.4 36.6 0.1 36.6 5.5 12.6 18.6 12.6 24.2 36.6 21.8 36.6 21.8 36.6Z" fill="#7823DC" clip-path="url(#SVGID_4_)"/><path d="M34.1 36.6 30.2 19.5 24.6 19.5 23.1 25.1 21.9 20.7 22.9 17.2 32 17.2 36.5 36.6 34.1 36.6 34.1 36.6Z" fill="#7823DC" clip-path="url(#SVGID_4_)"/></g></g></g></svg>