<svg viewBox="0 0 32 32" xmlns="http://www.w3.org/2000/svg" xmlns:xlink="http://www.w3.org/1999/xlink" id="Layer_1" xml:space="preserve" overflow="hidden"><g><path d="M8.3 11.3 14.5 11.3 14.5 32 8.3 32 8.3 11.3 8.3 11.3 8.3 11.3ZM12.4 13.3 10.3 13.3 10.3 29.9 12.4 29.9 12.4 13.3 12.4 13.3 12.4 13.3Z" fill="#7823DC" fill-rule="evenodd" clip-rule="evenodd"/><path d="M0 5 6.2 5 6.2 32 0 32 0 5 0 5 0 5ZM4.2 7.1 2.1 7.1 2.1 29.9 4.2 29.9 4.2 7.1 4.2 7.1 4.2 7.1Z" fill="#7823DC" fill-rule="evenodd" clip-rule="evenodd"/><path d="M16.6 19.5 22.8 19.5 22.8 32 16.6 32 16.6 19.5 16.6 19.5 16.6 19.5ZM20.7 21.6 18.6 21.6 18.6 29.9 20.7 29.9 20.7 21.6 20.7 21.6 20.7 21.6Z" fill="#7823DC" fill-rule="evenodd" clip-rule="evenodd"/><path d="M11.4 2.6 28.4 19.5 25.5 19.5 27.5 21.6 32 21.6 32 17.3 29.9 15.2 29.9 18.1 12.8 1.1 11.4 2.6Z" fill="#7823DC" fill-rule="evenodd" clip-rule="evenodd"/><path d="M29 29.9 26.9 29.9 26.9 25.8 29 25.8 26.9 23.7 24.8 23.7 24.8 32 31.1 32 31.1 27.9 29 25.8 29 29.9Z" fill="#7823DC" fill-rule="evenodd" clip-rule="evenodd"/></g></svg>