<svg viewBox="0 0 32 32" xmlns="http://www.w3.org/2000/svg" xmlns:xlink="http://www.w3.org/1999/xlink" id="Layer_5" overflow="hidden"><defs></defs><g><path d="M15.7 30.85 6.53 21.67 3.7 21.67 13.91 31.89 17.48 31.89 27.7 21.67 24.88 21.67 15.7 30.85Z" fill="#7823DC"/><rect x="1.7" y="21.67" width="2" height="10.22" fill="#7823DC"/><rect x="27.7" y="21.67" width="2" height="10.22" fill="#7823DC"/></g><path d="M29.26 6.29 15.76 0.81 2.74 6.25 8.4 8.96C7.53 10.29 7.05 11.85 7.05 13.47 7.05 18.02 10.75 21.71 15.29 21.71 19.83 21.71 23.54 18.01 23.54 13.47 23.54 11.91 23.09 10.38 22.26 9.07L24.81 8.06 24.81 14.03 26.81 14.03 26.81 7.27 29.26 6.3ZM21.55 13.46C21.55 16.9 18.75 19.7 15.3 19.7 11.85 19.7 9.06 16.9 9.06 13.46 9.06 12.15 9.49 10.89 10.25 9.84L14.81 12.02 20.36 9.82C21.12 10.88 21.56 12.15 21.56 13.46ZM14.88 9.84 7.64 6.37 15.77 2.97 23.89 6.27 14.88 9.84Z" fill="#7823DC"/></svg>