<svg viewBox="0 0 32.01 31.97" xmlns="http://www.w3.org/2000/svg" xmlns:xlink="http://www.w3.org/1999/xlink" id="Layer_1" overflow="hidden"><style>
.MsftOfcResponsive_Fill_7823dc {
 fill:#7823DC; 
}
</style>
<defs></defs><path d="M6.48 15.18 5.79 14.26C3.14 10.73 3.49 5.72 6.61 2.6 9.73-0.52 14.74-0.87 18.27 1.78L19.19 2.47 6.48 15.18ZM12.92 2C11.13 2 9.36 2.68 8.02 4.01 5.88 6.15 5.42 9.44 6.76 12.06L16.08 2.75C15.09 2.24 14 1.99 12.92 1.99Z" class="MsftOfcResponsive_Fill_7823dc" fill="#7823DC"/><path d="M13.44 18.34C11.56 18.34 9.68 17.76 8.09 16.56L7.17 15.87 19.88 3.16 20.57 4.08C23.22 7.61 22.87 12.62 19.75 15.74 18.03 17.46 15.74 18.34 13.44 18.34ZM10.29 15.59C12.92 16.94 16.21 16.47 18.34 14.33 20.48 12.19 20.94 8.9 19.6 6.28L10.29 15.59Z" class="MsftOfcResponsive_Fill_7823dc" fill="#7823DC"/><path d="M27.8 26.63C27.41 26.63 27.04 26.51 26.72 26.27L15.31 17.61 16.52 16.02 27.85 24.61C28.08 24.54 28.45 24.17 28.52 23.94L19.96 12.52 21.56 11.32 30.18 22.82C30.8 23.64 30.6 24.82 29.66 25.75 29.09 26.32 28.42 26.62 27.8 26.62ZM28.58 24.03C28.58 24.03 28.58 24.03 28.58 24.03L28.58 24.03Z" class="MsftOfcResponsive_Fill_7823dc" fill="#7823DC"/><path d="M25.78 31.97C23.95 31.97 21.75 31.61 19.21 30.75L19.85 28.86C25.65 30.82 29.21 29.88 29.89 28.59 30.27 27.87 29.7 26.84 28.37 25.85L29.56 24.24C31.75 25.87 32.54 27.84 31.66 29.51 30.92 30.92 28.9 31.97 25.78 31.97Z" class="MsftOfcResponsive_Fill_7823dc" fill="#7823DC"/><path d="M19.33 30.79C15.83 29.52 12.54 27.74 9.57 25.49L6.84 23.41C6.33 22.9 5.44 22.9 4.93 23.41 4.6 23.74 4.33 24.27 4.05 24.84 3.38 26.17 2.46 27.99 0.02 27.99L0.02 25.99C1.17 25.99 1.6 25.25 2.26 23.94 2.6 23.26 2.96 22.55 3.51 22 4.76 20.75 6.93 20.73 8.2 21.95L10.78 23.9C13.6 26.03 16.7 27.72 20.02 28.92L19.34 30.8Z" class="MsftOfcResponsive_Fill_7823dc" fill="#7823DC"/></svg>