<svg viewBox="0 0 32.01 32" xmlns="http://www.w3.org/2000/svg" xmlns:xlink="http://www.w3.org/1999/xlink" id="Layer_1" overflow="hidden"><style>
.MsftOfcResponsive_Fill_7823dc {
 fill:#7823DC; 
}
</style>
<defs></defs><path d="M16.01 10C13.25 10 11.01 7.76 11.01 5 11.01 2.24 13.25 0 16.01 0 18.77 0 21.01 2.24 21.01 5 21.01 7.76 18.77 10 16.01 10ZM16.01 2C14.36 2 13.01 3.35 13.01 5 13.01 6.65 14.36 8 16.01 8 17.66 8 19.01 6.65 19.01 5 19.01 3.35 17.66 2 16.01 2Z" class="MsftOfcResponsive_Fill_7823dc" fill="#7823DC"/><path d="M27.74 9.26C25.39 9.26 23.48 7.35 23.48 5 23.48 2.65 25.39 0.74 27.74 0.74 30.09 0.74 32 2.65 32 5 32 7.35 30.09 9.26 27.74 9.26ZM27.74 2.73C26.49 2.73 25.48 3.75 25.48 4.99 25.48 6.23 26.5 7.25 27.74 7.25 28.98 7.25 30 6.23 30 4.99 30 3.75 28.98 2.73 27.74 2.73Z" class="MsftOfcResponsive_Fill_7823dc" fill="#7823DC"/><path d="M4.27 9.26C1.92 9.26 0 7.35 0 5 0 2.65 1.92 0.74 4.27 0.74 6.62 0.74 8.53 2.65 8.53 5 8.53 7.35 6.62 9.26 4.27 9.26ZM4.27 2.73C3.02 2.73 2.01 3.75 2.01 4.99 2.01 6.23 3.03 7.25 4.27 7.25 5.51 7.25 6.53 6.23 6.53 4.99 6.53 3.75 5.51 2.73 4.27 2.73Z" class="MsftOfcResponsive_Fill_7823dc" fill="#7823DC"/><path d="M22.01 32 20.01 32 20.01 16.19 30.01 14.73 30.01 13 2 13 2 14.73 12.01 16.19 12.01 32 10.01 32 10.01 17.92 0 16.47 0 11 32.01 11 32.01 16.47 22.01 17.92 22.01 32Z" class="MsftOfcResponsive_Fill_7823dc" fill="#7823DC"/><rect x="15.01" y="21" width="2" height="11" class="MsftOfcResponsive_Fill_7823dc" fill="#7823DC"/><rect x="24.01" y="21" width="2" height="11" class="MsftOfcResponsive_Fill_7823dc" fill="#7823DC"/><rect x="6.01" y="21" width="2" height="11" class="MsftOfcResponsive_Fill_7823dc" fill="#7823DC"/><rect x="28.01" y="18.88" width="2" height="13.12" class="MsftOfcResponsive_Fill_7823dc" fill="#7823DC"/><rect x="2.01" y="18.88" width="2" height="13.12" class="MsftOfcResponsive_Fill_7823dc" fill="#7823DC"/></svg>