<svg viewBox="0 0 32 32" xmlns="http://www.w3.org/2000/svg" xmlns:xlink="http://www.w3.org/1999/xlink" xml:space="preserve" overflow="hidden"><style>
.MsftOfcResponsive_Fill_7823dc {
 fill:#7823DC; 
}
</style>
<g id="Layer_3"></g><g id="Layer_1"></g><g id="Layer_2"></g><g id="Layer_4"></g><g id="Layer_5"><path d="M8.58 5.36C8.09 5.36 7.7 5.81 7.7 6.38 7.7 6.95 8.09 7.4 8.58 7.4L9.73 7.4 9.73 5.36 8.58 5.36Z" class="MsftOfcResponsive_Fill_7823dc" fill="#7823DC"/><path d="M19.58 32.05 5.32 32.05 5.05 31.84C3.68 30.77 2.53 29.4 1.74 27.86 0.85 26.15 0.41 24.3 0.41 22.36 0.41 17.28 3.64 12.73 8.45 11.03L8.61 10.97 16.31 10.97 16.47 11.03C21.28 12.73 24.51 17.28 24.51 22.36 24.51 24.3 24.06 26.15 23.18 27.86 22.39 29.4 21.24 30.77 19.87 31.84L19.58 32.05ZM6.01 30.05 18.88 30.05C19.91 29.19 20.77 28.12 21.38 26.94 22.12 25.52 22.49 23.97 22.49 22.36 22.49 18.18 19.87 14.43 15.94 12.97L8.95 12.97C5.03 14.43 2.4 18.18 2.4 22.36 2.4 23.98 2.77 25.52 3.51 26.94 4.12 28.12 4.98 29.19 6.01 30.05Z" class="MsftOfcResponsive_Fill_7823dc" fill="#7823DC"/><path d="M16.43 12.97 8.46 12.97 8.46 9.43C8.46 8.69 9.06 8.09 9.8 8.09L15.1 8.09C15.84 8.09 16.44 8.69 16.44 9.43L16.44 12.97ZM10.46 10.97 14.43 10.97 14.43 10.1 10.46 10.1 10.46 10.97Z" class="MsftOfcResponsive_Fill_7823dc" fill="#7823DC"/><path d="M15.22 10.08 9.68 10.08 9.68 4.89C9.68 4.15 10.28 3.55 11.02 3.55L13.88 3.55C14.62 3.55 15.22 4.15 15.22 4.89L15.22 10.08ZM11.68 8.08 13.22 8.08 13.22 5.56 11.68 5.56 11.68 8.08Z" class="MsftOfcResponsive_Fill_7823dc" fill="#7823DC"/><path d="M27.43 17.01C26.2 17.01 24.86 16.65 23.59 15.91 22.18 15.09 21.08 13.91 20.49 12.59 19.85 11.16 19.87 9.73 20.55 8.56 21.23 7.39 22.47 6.67 24.03 6.52 25.46 6.38 27.04 6.76 28.45 7.58 31.52 9.36 32.85 12.59 31.49 14.93 30.68 16.3 29.16 17.01 27.43 17.01ZM24.61 8.49C24.47 8.49 24.34 8.5 24.2 8.51 23.3 8.6 22.61 8.97 22.26 9.57 21.91 10.17 21.93 10.95 22.3 11.78 22.72 12.72 23.53 13.58 24.58 14.19 26.61 15.37 28.97 15.25 29.74 13.93 30.51 12.61 29.45 10.49 27.42 9.31 26.51 8.78 25.53 8.49 24.61 8.49Z" class="MsftOfcResponsive_Fill_7823dc" fill="#7823DC"/><path d="M21.68 9.67C21.61 9.58 19.94 7.37 15.2 7.37 15.2 7.37 15.2 7.37 15.2 7.37L15.2 5.37C15.2 5.37 15.2 5.37 15.2 5.37 21.06 5.37 23.22 8.39 23.31 8.51L21.68 9.67Z" class="MsftOfcResponsive_Fill_7823dc" fill="#7823DC"/></g></svg>