<svg viewBox="0 0 32 32" xmlns="http://www.w3.org/2000/svg" xmlns:xlink="http://www.w3.org/1999/xlink" id="Layer_1" overflow="hidden"><style>
.MsftOfcResponsive_Fill_7823dc {
 fill:#7823DC; 
}
</style>
<g><path d="" class="st0 MsftOfcResponsive_Fill_7823dc" fill="#7823DC"/></g><path d="" class="st1 MsftOfcResponsive_Fill_7823dc" stroke="#FF0000" stroke-width="2" stroke-miterlimit="10" fill="#7823DC"/><path d="M17 3.7 18.9 5.6 18.9 2.8 16 0 13.1 2.8 13.1 5.5 15 3.7" class="st2 MsftOfcResponsive_Fill_7823dc" fill="#7823DC" fill-rule="evenodd" clip-rule="evenodd"/><path d="M15 3.4 17 3.4 17 8 15 8 15 3.4Z" class="st2 MsftOfcResponsive_Fill_7823dc" fill="#7823DC" fill-rule="evenodd" clip-rule="evenodd"/><path d="M15 28.3 13.1 26.4 13.1 29.2 16 32 18.9 29.2 18.9 26.5 17 28.3" class="st2 MsftOfcResponsive_Fill_7823dc" fill="#7823DC" fill-rule="evenodd" clip-rule="evenodd"/><path d="M17 28.6 15 28.6 15 24 17 24 17 28.6Z" class="st2 MsftOfcResponsive_Fill_7823dc" fill="#7823DC" fill-rule="evenodd" clip-rule="evenodd"/><path d="M28.3 17 26.4 18.9 29.2 18.9 32 16 29.2 13.1 26.5 13.1 28.3 15" class="st2 MsftOfcResponsive_Fill_7823dc" fill="#7823DC" fill-rule="evenodd" clip-rule="evenodd"/><path d="M28.6 15 28.6 17 22 17 22 15 28.6 15Z" class="st2 MsftOfcResponsive_Fill_7823dc" fill="#7823DC" fill-rule="evenodd" clip-rule="evenodd"/><path d="M3.7 15 5.6 13.1 2.8 13.1 0 16 2.8 18.9 5.5 18.9 3.7 17" class="st2 MsftOfcResponsive_Fill_7823dc" fill="#7823DC" fill-rule="evenodd" clip-rule="evenodd"/><path d="M3.4 17 3.4 15 10 15 10 17 3.4 17Z" class="st2 MsftOfcResponsive_Fill_7823dc" fill="#7823DC" fill-rule="evenodd" clip-rule="evenodd"/><path d="M25.5 8 25.4 10.7 27.3 8.7 27.3 4.7 23.3 4.7 21.4 6.5 24 6.5" class="st2 MsftOfcResponsive_Fill_7823dc" fill="#7823DC" fill-rule="evenodd" clip-rule="evenodd"/><path d="M24.2 6.4 25.6 7.8 21.7 11.7 20.3 10.3 24.2 6.4Z" class="st2 MsftOfcResponsive_Fill_7823dc" fill="#7823DC" fill-rule="evenodd" clip-rule="evenodd"/><path d="M6.5 24 6.6 21.3 4.7 23.3 4.7 27.3 8.7 27.3 10.6 25.5 8 25.5" class="st2 MsftOfcResponsive_Fill_7823dc" fill="#7823DC" fill-rule="evenodd" clip-rule="evenodd"/><path d="M7.8 25.6 6.4 24.2 10.3 20.3 11.7 21.7 7.8 25.6Z" class="st2 MsftOfcResponsive_Fill_7823dc" fill="#7823DC" fill-rule="evenodd" clip-rule="evenodd"/><path d="M6.5 8 6.6 10.7 4.7 8.7 4.7 4.7 8.7 4.7 10.6 6.5 8 6.5" class="st2 MsftOfcResponsive_Fill_7823dc" fill="#7823DC" fill-rule="evenodd" clip-rule="evenodd"/><path d="M7.8 6.4 6.4 7.8 10.3 11.7 11.7 10.3 7.8 6.4Z" class="st2 MsftOfcResponsive_Fill_7823dc" fill="#7823DC" fill-rule="evenodd" clip-rule="evenodd"/><path d="M25.5 24 25.4 21.3 27.3 23.3 27.3 27.3 23.3 27.3 21.4 25.5 24 25.5" class="st2 MsftOfcResponsive_Fill_7823dc" fill="#7823DC" fill-rule="evenodd" clip-rule="evenodd"/><path d="M24.2 25.6 25.6 24.2 21.7 20.3 20.3 21.7 24.2 25.6Z" class="st2 MsftOfcResponsive_Fill_7823dc" fill="#7823DC" fill-rule="evenodd" clip-rule="evenodd"/><g><path d="M16 16C14.3 16 13 14.7 13 13 13 11.3 14.3 10 16 10 17.7 10 19 11.3 19 13 19 14.7 17.7 16 16 16ZM16 12C15.4 12 15 12.4 15 13 15 13.6 15.4 14 16 14 16.6 14 17 13.6 17 13 17 12.4 16.6 12 16 12Z" class="st0 MsftOfcResponsive_Fill_7823dc" fill="#7823DC"/></g><path d="M18 16.5 16 19.2 14 16.5 12 16.5 12 20.5 14 20.5 18 20.5 20 20.5 20 16.5Z" class="st3 MsftOfcResponsive_Fill_7823dc" fill="#7823DC" fill-rule="evenodd" clip-rule="evenodd"/></svg>