<svg viewBox="0 0 32 32" xmlns="http://www.w3.org/2000/svg" xmlns:xlink="http://www.w3.org/1999/xlink" id="Layer_1" overflow="hidden"><g><rect x="11.3" y="6.7" width="2" height="18.5" fill="#7823DC"/><path d="M16.7 17 12.9 17 12.9 15 16.7 15C18.6 15 20.3 13.5 20.3 11.7L20.3 11C20.3 9.4 18.8 8 17 8L10.7 8 10.7 6 17 6C19.9 6 22.3 8.2 22.3 11L22.3 11.6C22.3 14.6 19.8 17 16.7 17Z" fill="#7823DC"/><path d="M17 26 10.7 26 10.7 24 17 24C18.8 24 20.2 22.7 20.2 21L20.2 20.4C20.2 18.6 18.6 17.1 16.6 17.1L12.8 17.1 12.8 15.1 16.6 15.1C19.6 15.1 22.2 17.5 22.2 20.4L22.2 21C22.2 23.7 19.9 26 17 26Z" fill="#7823DC"/><rect x="13" y="4.6" width="2" height="2.4" fill="#7823DC"/><rect x="16.4" y="4.6" width="2" height="2.4" fill="#7823DC"/><rect x="13" y="25" width="2" height="2.4" fill="#7823DC"/><rect x="16.4" y="25" width="2" height="2.4" fill="#7823DC"/></g><path d="M16 2C23.7 2 30 8.3 30 16 30 23.7 23.7 30 16 30 8.3 30 2 23.7 2 16 2 8.3 8.3 2 16 2M16 0C7.2 0 0 7.2 0 16 0 24.8 7.2 32 16 32 24.8 32 32 24.8 32 16 32 7.2 24.8 0 16 0L16 0Z" fill="#7823DC"/><g><line x1="51.3" y1="6.7" x2="51.3" y2="25.3" stroke="#7823DC" stroke-width="2" stroke-miterlimit="10" fill="none"/><path d="M49.6 7 56 7C58.4 7 60.3 8.8 60.3 11L60.3 11.6C60.3 14 58.2 15.9 55.7 15.9L51.9 15.9" stroke="#7823DC" stroke-width="2" stroke-miterlimit="10" fill="#7823DC"/><path d="M49.6 25 56 25C58.4 25 60.2 23.2 60.2 21L60.2 20.4C60.2 18 58.1 16.1 55.6 16.1L51.8 16.1" stroke="#7823DC" stroke-width="2" stroke-miterlimit="10" fill="#7823DC"/><line x1="52.9" y1="4.6" x2="52.9" y2="7" stroke="#7823DC" stroke-width="2" stroke-miterlimit="10" fill="none"/><line x1="55.3" y1="4.6" x2="55.3" y2="7" stroke="#7823DC" stroke-width="2" stroke-miterlimit="10" fill="none"/><line x1="52.9" y1="25" x2="52.9" y2="27.4" stroke="#7823DC" stroke-width="2" stroke-miterlimit="10" fill="none"/><line x1="55.3" y1="25" x2="55.3" y2="27.4" stroke="#7823DC" stroke-width="2" stroke-miterlimit="10" fill="none"/></g><g><path d="M54.9 2C62.6 2 68.9 8.3 68.9 16 68.9 23.7 62.6 30 54.9 30 47.2 30 40.9 23.7 40.9 16 40.9 8.3 47.2 2 54.9 2M54.9 0C46.1 0 38.9 7.2 38.9 16 38.9 24.8 46.1 32 54.9 32 63.7 32 70.9 24.8 70.9 16 70.9 7.2 63.8 0 54.9 0L54.9 0Z" fill="#7823DC"/></g></svg>