<svg viewBox="0 0 32 32" xmlns="http://www.w3.org/2000/svg" xmlns:xlink="http://www.w3.org/1999/xlink" id="Layer_2_00000144328325245699140920000014890284756443101063_" xml:space="preserve" overflow="hidden"><g><path d="M27.4 14.1C24.9 14.1 22.8 12.4 22.8 10.3L24.8 10.3C24.8 11.3 26 12.1 27.4 12.1 28.8 12.1 30 11.3 30 10.3 30 9.3 28.8 8.5 27.5 8.5L27.5 8.5C25 8.5 23 6.9 23 4.8 23 2.7 25 1 27.6 1 30 0.8 32 2.5 32 4.7L30 4.7C30 3.7 28.8 2.9 27.4 2.9 26 2.9 24.8 3.7 24.8 4.7 24.8 5.7 25.9 6.5 27.3 6.5L27.3 6.5C29.8 6.5 31.9 8.2 31.9 10.3 31.9 12.4 29.9 14.1 27.4 14.1L27.4 14.1 27.4 14.1 27.4 14.1Z" fill="#7823DC" fill-rule="evenodd" clip-rule="evenodd"/><path d="M26.4 0.1 28.4 0.1 28.4 14.8 26.4 14.8 26.4 0.1Z" fill="#7823DC" fill-rule="evenodd" clip-rule="evenodd"/><path d="M5.1 20.9 26.1 20.9 26.1 23 5.1 23 6.1 20.9 5.1 20.9Z" fill="#7823DC" fill-rule="evenodd" clip-rule="evenodd"/><path d="M19.7 26 23.7 26 23.7 28 19.7 28 19.7 26Z" fill="#7823DC" fill-rule="evenodd" clip-rule="evenodd"/><path d="M12.9 2.2 11.6 3.7C12 4.1 12.4 4.7 12.6 5.2L14 3.6C13.7 3.1 13.3 2.6 12.9 2.2L12.9 2.2 12.9 2.2 12.9 2.2ZM14.8 5.3 13.1 7.1 13.1 7.5C13.1 10.5 10.6 13 7.6 13 4.6 13 2 10.5 2 7.5 2 4.5 4.5 2 7.5 2 8.5 2 9.4 2.3 10.2 2.7L11.6 1.2C10.4 0.4 9 0 7.5 0 3.4 0 0 3.4 0 7.5 0 11.6 3.4 15 7.5 15 11.6 15 15 11.6 15 7.5 15.1 6.7 15 6 14.8 5.3L14.8 5.3 14.8 5.3 14.8 5.3Z" fill="#7823DC" fill-rule="evenodd" clip-rule="evenodd"/><path d="M15.4 2.1 14 3.6 12.6 5.3 8.9 9.6 6.2 7.2 6.6 6.8 7.8 8.1 11.6 3.7 12.9 2.3 13.1 2.1 15.4 2.1 15.4 2.1 15.4 2.1Z" fill="#FFFFFF" fill-rule="evenodd" clip-rule="evenodd"/><path d="M15.4 2.1 14 3.6 12.6 5.3 8.9 9.6 7.8 10.8 3.7 6.2 6 6.2 6.6 6.8 7.8 8.1 11.6 3.7 12.9 2.3 13.1 2.1 15.4 2.1 15.4 2.1 15.4 2.1Z" fill="#7823DC" fill-rule="evenodd" clip-rule="evenodd"/><path d="M28.1 32 4.1 32 4.1 17.1 28.2 17.1 28.2 32 28.1 32 28.1 32ZM6 30 26.1 30 26.1 19 6 19 6 30 6 30 6 30Z" fill="#7823DC" fill-rule="evenodd" clip-rule="evenodd"/></g></svg>