<svg viewBox="0 0 32 32" xmlns="http://www.w3.org/2000/svg" xmlns:xlink="http://www.w3.org/1999/xlink" id="Layer_5" overflow="hidden"><defs></defs><path d="M26.15 28.52C25.45 28.52 25.03 28.29 24.71 28.12 24.52 28.02 24.39 27.95 24.17 27.89 23.89 27.82 23.38 28.13 23.21 28.27L21.91 26.75C22.05 26.63 23.26 25.62 24.63 25.94 25.11 26.05 25.43 26.23 25.67 26.36 25.94 26.51 26 26.54 26.33 26.51 26.59 26.48 26.75 26.4 27.01 26.25 27.44 26.02 28.03 25.69 29.08 25.69 30.13 25.69 30.7 26.05 31.08 26.29 31.16 26.34 31.26 26.41 31.3 26.42 31.45 26.4 31.62 26.29 31.84 26.16 32.35 25.85 33.04 25.42 34.21 25.48 35.2 25.53 35.74 25.89 36.14 26.16 36.43 26.36 36.52 26.42 36.8 26.4L36.91 28.4C35.97 28.46 35.42 28.09 35.02 27.82 34.73 27.62 34.55 27.5 34.12 27.48 33.55 27.45 33.28 27.63 32.88 27.87 32.55 28.07 32.13 28.32 31.59 28.4 30.83 28.5 30.34 28.19 30.02 27.98 29.74 27.81 29.56 27.69 29.1 27.69 28.56 27.69 28.33 27.81 27.98 28 27.64 28.19 27.22 28.42 26.57 28.49 26.43 28.51 26.3 28.51 26.17 28.51Z" stroke-width="0" fill="#7823DC"/><path d="M24.84 25.04C24.14 25.04 23.72 24.81 23.4 24.64 23.21 24.54 23.08 24.47 22.86 24.41 22.58 24.34 22.07 24.65 21.91 24.79L20.61 23.27C20.75 23.15 21.97 22.14 23.33 22.46 23.81 22.57 24.13 22.75 24.37 22.88 24.64 23.03 24.7 23.07 25.03 23.03 25.29 23 25.45 22.92 25.71 22.77 26.14 22.54 26.73 22.21 27.78 22.21 28.83 22.21 29.4 22.57 29.78 22.81 29.86 22.86 29.96 22.93 30 22.94 30.15 22.92 30.32 22.81 30.54 22.68 31.05 22.37 31.74 21.94 32.91 22 33.9 22.05 34.44 22.41 34.84 22.68 35.13 22.88 35.22 22.93 35.5 22.92L35.61 24.92C34.67 24.97 34.11 24.61 33.72 24.34 33.43 24.14 33.25 24.02 32.82 24 32.26 23.97 31.98 24.15 31.58 24.39 31.25 24.59 30.83 24.84 30.29 24.92 29.53 25.02 29.04 24.71 28.72 24.5 28.45 24.33 28.26 24.21 27.8 24.21 27.26 24.21 27.03 24.33 26.68 24.52 26.34 24.71 25.92 24.94 25.27 25.01 25.13 25.03 25 25.03 24.87 25.03Z" stroke-width="0" fill="#7823DC"/><path d="M24.26 32 12 32 12 4 17.8 4 24.26 32ZM14 30 21.74 30 16.2 6 14 6 14 30Z" stroke-width="0" fill="#7823DC"/><rect x="-0.18" y="30" width="12.18" height="2" stroke-width="0" fill="#7823DC"/><rect x="-0.18" y="26" width="12.18" height="2" stroke-width="0" fill="#7823DC"/><rect x="-0.18" y="22" width="12.18" height="2" stroke-width="0" fill="#7823DC"/><rect x="-0.18" y="18" width="12.18" height="2" stroke-width="0" fill="#7823DC"/><rect x="-0.18" y="14" width="12.18" height="2" stroke-width="0" fill="#7823DC"/><rect x="-0.18" y="10" width="12.18" height="2" stroke-width="0" fill="#7823DC"/><rect x="-0.18" y="6" width="12.18" height="2" stroke-width="0" fill="#7823DC"/></svg>