<svg viewBox="0 0 32 32" xmlns="http://www.w3.org/2000/svg" xmlns:xlink="http://www.w3.org/1999/xlink" id="Layer_2_1_" overflow="hidden"><style>
.MsftOfcResponsive_Fill_7823dc {
 fill:#7823DC; 
}
</style>
<g><path d="M28.2 13.2 26.1 18.5 25.5 18 24.4 17.1 23.6 18.3 22.5 20 19.6 21.8 19.1 22.1 19 22.7 18.6 24.9 17.3 26.5 16.5 27.5 17.5 28.3 20.4 30.7 21.4 31.5 22.2 30.5 23.5 28.9 29.3 25.7 31.6 14.7 31.7 14 31.1 13.5 30.1 12.7 28.8 11.6 28.2 13.2 28.2 13.2ZM30.3 14.4 28.2 24.9 22.7 27.9 21.2 29.7 18.3 27.3 19.8 25.5 20.3 23 23.5 21.1 24.8 19.1 25.8 19.9 25.5 20.6 24.4 22.7 25.3 23.4 26.5 21.2 26.5 21.2 29.4 13.8 30.3 14.4 30.3 14.4Z" class="st0 MsftOfcResponsive_Fill_7823dc" fill="#7823DC" fill-rule="evenodd" clip-rule="evenodd"/><path d="M21.5 31.9 16.2 27.6 18.4 24.9 18.9 22.1 22.3 20 24.3 16.9 25.9 18.2 28.6 11.3 31.9 13.9 31.8 14.8 29.6 26 23.7 29.2 21.5 31.9ZM16.9 27.5 21.4 31.2 23.4 28.8 29.1 25.6 31.4 14 28.9 12 26.2 18.9 24.5 17.5 22.7 20.3 19.4 22.3 18.8 25.1 16.9 27.5ZM21.3 30.2 18 27.4 19.6 25.4 20.1 22.8 23.3 20.8 24.7 18.6 26 19.7 25.7 20.5 24.7 22.5 25.2 22.9 26.2 21 29.2 13.3 30.6 14.4 28.5 25 22.9 28.1 21.3 30.2ZM18.7 27.3 21.3 29.3 22.7 27.6 28.1 24.6 30.1 14.4 29.5 13.9 26.8 20.9 26.8 20.9 26.7 21.1 25.4 23.6 24.1 22.6 25.3 20.3 25.5 19.8 24.9 19.3 23.7 21.1 20.6 23 20 25.7 18.7 27.3Z" class="st1 MsftOfcResponsive_Fill_7823dc" fill="#7823DC"/></g><g><path d="M3.3 11.6 2 12.7 1 13.5 0.4 14 0.5 14.7 2.7 25.7 8.5 29 9.8 30.6 10.6 31.6 11.6 30.8 14.5 28.4 15.5 27.6 14.7 26.6 13.4 25 13 22.8 12.9 22.3 12.4 21.9 9.5 20 8.4 18.3 7.6 17.1 6.5 18 6 18.5 3.9 13.2 3.3 11.6 3.3 11.6ZM2.7 13.6 5.6 21 5.6 21 6.8 23.2 7.7 22.5 6.6 20.4 6.4 19.8 7.4 19 8.7 21 11.9 22.9 12.4 25.4 13.9 27.2 11 29.8 9.4 28 3.9 25 1.8 14.4 2.7 13.6 2.7 13.6Z" class="st0 MsftOfcResponsive_Fill_7823dc" fill="#7823DC" fill-rule="evenodd" clip-rule="evenodd"/><path d="M10.6 31.9 8.4 29.2 2.5 26 0.1 13.8 3.4 11.2 6.1 18.1 7.7 16.8 9.7 19.9 13.1 22 13.6 24.8 15.8 27.5 10.6 31.9ZM2.9 25.5 8.7 28.7 10.6 31.1 15.1 27.4 13.1 24.9 12.6 22.2 9.2 20.1 7.5 17.4 5.8 18.8 3.1 11.9 0.6 13.9 0.7 14.5 2.9 25.5ZM10.8 30.2 9.2 28.2 3.6 25 1.5 14.3 2.9 13.2 5.9 21 6.9 22.9 7.4 22.5 6.4 20.6 6.1 19.7 7.4 18.6 8.8 20.8 12 22.8 12.5 25.4 14.1 27.4 10.8 30.2ZM4.1 24.7 9.6 27.7 10.9 29.3 13.5 27.3 12 25.6 11.5 23.2 8.3 21.2 7.2 19.5 6.6 20 6.8 20.5 8 22.7 6.7 23.7 5.3 21 5.3 21 2.6 14 2 14.5 4.1 24.7Z" class="st1 MsftOfcResponsive_Fill_7823dc" fill="#7823DC"/></g><path d="M21.6 2.4C23.3 2.4 24.2 2.8 25.5 3.7 26.2 4.2 27.3 5.1 28.2 5.9 27.3 6.7 26.2 7.7 25.5 8.1 24.2 8.9 23.2 9.4 21.6 9.4 21.5 9.4 21.4 9.4 21.4 9.4 20.8 9.4 18.1 9.1 16.7 5.9 18 2.6 20.8 2.4 21.3 2.4 21.4 2.4 21.5 2.4 21.6 2.4M21.6 0.5C21.5 0.5 21.4 0.5 21.3 0.5 19.3 0.5 16 1.7 14.6 5.9 16 10.1 19.3 11.3 21.3 11.3 21.4 11.3 21.5 11.3 21.6 11.3 23.7 11.3 25 10.7 26.6 9.7 28.2 8.6 31.1 5.8 31.1 5.8 31.1 5.8 28.2 3.1 26.6 2 25 1 23.7 0.5 21.6 0.5L21.6 0.5 21.6 0.5 21.6 0.5Z" class="st2 MsftOfcResponsive_Fill_7823dc" fill="#7823DC"/><path d="M11.3 5.6 11.3 5.6 11.5 5.6C11.9 5.6 13.7 5.8 14.6 7.9 13.6 10 11.9 10.2 11.5 10.2L11.3 10.2C10.1 10.2 9.4 9.9 8.5 9.3 8 9 7.4 8.4 6.8 7.9 7.4 7.3 8 6.8 8.5 6.5 9.4 5.9 10.1 5.6 11.3 5.6M11.3 3.7C9.7 3.7 8.7 4.1 7.4 4.9 6.1 5.7 4 7.9 4 7.9 4 7.9 6.2 10.1 7.4 10.9 8.6 11.7 9.6 12.1 11.3 12.1 11.4 12.1 11.4 12.1 11.5 12.1 13 12.1 15.6 11.1 16.6 7.9 15.5 4.7 13 3.7 11.5 3.7 11.4 3.7 11.3 3.7 11.3 3.7L11.3 3.7 11.3 3.7 11.3 3.7Z" class="st2 MsftOfcResponsive_Fill_7823dc" fill="#7823DC"/><rect x="15" y="7.4" width="2" height="16.3" class="MsftOfcResponsive_Fill_7823dc" fill="#7823DC"/></svg>