<svg viewBox="0 0 32 32" xmlns="http://www.w3.org/2000/svg" xmlns:xlink="http://www.w3.org/1999/xlink" id="Layer_2" overflow="hidden"><path d="M50 2.1 50 1.1 47.3 1.1 47.3 0 43 0 43 9.6 47.3 9.6 47.3 8.5 50 8.5 50 7.5 47.3 7.5 47.3 2.1 50 2.1 50 2.1ZM44.1 8.5 44.1 1.1 46.2 1.1 46.2 8.6 44.1 8.6 44.1 8.5Z" fill="#7823DC" fill-rule="evenodd" clip-rule="evenodd"/><path d="M17.1 4.3 19.2 15.7 12.8 15.7 14.9 4.3 17.1 4.3M19 2 13 2 10 18 22 18 19 2 19 2Z" fill="#7823DC"/><g><path d="M26.7 31.6C25.6 31.6 24.5 31.2 23.7 30.4 22.4 29.1 20.3 29.1 19 30.4 17.3 32 14.7 32 13 30.4 11.7 29.1 9.6 29.1 8.3 30.4 6.6 32 4 32 2.3 30.4 1.7 29.8 0.8 29.4 8.88178e-16 29.4L8.88178e-16 28.3C1.1 28.3 2.2 28.7 3 29.5 4.3 30.8 6.4 30.8 7.7 29.5 9.4 27.9 12 27.9 13.7 29.5 15 30.8 17.1 30.8 18.4 29.5 20.1 27.9 22.7 27.9 24.4 29.5 25.7 30.8 27.8 30.8 29.1 29.5 29.9 28.7 31 28.3 32.1 28.3L32.1 29.4C31.2 29.4 30.4 29.7 29.8 30.4 28.9 31.2 27.8 31.6 26.7 31.6L26.7 31.6Z" fill="#7823DC" fill-rule="evenodd" clip-rule="evenodd"/><path d="M26.6 32C25.4 32 24.2 31.5 23.4 30.7 22.2 29.5 20.4 29.5 19.3 30.7 17.5 32.4 14.6 32.4 12.8 30.7 11.6 29.5 9.8 29.5 8.7 30.7 6.9 32.4 4 32.4 2.2 30.7 1.7 30.1 0.9 29.8 0.1 29.8 0.1 29.8 0.1 29.8 0.1 29.8L-0.3 29.8-0.3 28 0 28C1.2 28 2.4 28.5 3.3 29.3 4.5 30.5 6.3 30.5 7.4 29.3 9.2 27.6 12.1 27.6 13.9 29.3 15.1 30.5 16.9 30.5 18 29.3 19.8 27.6 22.7 27.6 24.5 29.3 25.7 30.5 27.5 30.5 28.6 29.3 29.5 28.4 30.6 28 31.9 28L32.3 28 32.3 29.8 31.9 29.8C31.9 29.8 31.9 29.8 31.9 29.8 31.1 29.8 30.4 30.1 29.9 30.7 29 31.5 27.9 32 26.6 32 26.7 32 26.7 32 26.6 32ZM21.3 29.1C22.2 29.1 23.2 29.5 23.9 30.2 24.6 30.9 25.6 31.3 26.6 31.3L26.6 31.3C26.6 31.3 26.6 31.3 26.6 31.3 27.6 31.3 28.6 30.9 29.3 30.2 29.9 29.6 30.7 29.2 31.5 29.1L31.5 28.8C30.6 28.9 29.8 29.3 29.1 29.9 27.6 31.3 25.4 31.3 23.9 29.9 22.4 28.4 20 28.4 18.4 29.9 17 31.3 14.6 31.3 13.2 29.9 11.7 28.4 9.3 28.4 7.7 29.9 6.3 31.3 3.9 31.3 2.5 29.9 1.9 29.3 1 28.9 0.1 28.8L0.1 29.1C0.9 29.2 1.7 29.6 2.3 30.2 3.8 31.7 6.2 31.7 7.8 30.2 9.2 28.8 11.6 28.8 13 30.2 14.5 31.7 16.9 31.7 18.5 30.2 19.5 29.4 20.4 29.1 21.3 29.1Z" fill="#7823DC"/></g><g><path d="M26.7 28.4C25.6 28.4 24.5 28 23.7 27.2 22.4 25.9 20.3 25.9 19 27.2 17.3 28.8 14.7 28.8 13 27.2 11.7 25.9 9.6 25.9 8.3 27.2 6.6 28.8 4 28.8 2.3 27.2 1.7 26.6 0.8 26.3 8.88178e-16 26.3L8.88178e-16 25.2C1.1 25.2 2.2 25.6 3 26.4 4.3 27.7 6.4 27.7 7.7 26.4 9.4 24.8 12 24.8 13.7 26.4 15 27.7 17.1 27.7 18.4 26.4 20.1 24.8 22.7 24.8 24.4 26.4 25.7 27.7 27.8 27.7 29.1 26.4 29.9 25.6 31 25.2 32.1 25.2L32.1 26.3C31.2 26.3 30.4 26.6 29.8 27.2 28.9 28 27.8 28.4 26.7 28.4L26.7 28.4Z" fill="#7823DC" fill-rule="evenodd" clip-rule="evenodd"/><path d="M26.7 28.8C26.7 28.8 26.7 28.8 26.7 28.8 25.4 28.8 24.3 28.3 23.4 27.5 22.3 26.4 20.4 26.4 19.2 27.5 17.4 29.2 14.5 29.2 12.7 27.5 11.5 26.4 9.7 26.4 8.5 27.5 6.7 29.2 3.8 29.2 2 27.5 1.4 27 0.7 26.7-0.1 26.7L-0.5 26.7-0.5 24.9-0.1 24.9C1.1 24.9 2.3 25.3 3.2 26.2 4.3 27.3 6.2 27.3 7.3 26.2 9.1 24.5 12 24.5 13.8 26.2 14.9 27.3 16.8 27.3 17.9 26.2 19.7 24.5 22.6 24.5 24.4 26.2 25.6 27.3 27.4 27.3 28.6 26.2 29.5 25.4 30.6 24.9 31.8 24.9 31.8 24.9 31.8 24.9 31.8 24.9L32.2 24.9 32.2 26.7 31.8 26.7C31.8 26.7 31.8 26.7 31.8 26.7 31 26.7 30.3 27 29.8 27.5 29 28.3 27.9 28.8 26.7 28.8ZM21.3 25.9C22.2 25.9 23.2 26.3 23.9 27 24.6 27.7 25.6 28.1 26.6 28.1 26.6 28.1 26.6 28.1 26.6 28.1L26.6 28.1C26.6 28.1 26.6 28.1 26.6 28.1 27.6 28.1 28.6 27.7 29.3 27 29.9 26.4 30.7 26.1 31.5 26L31.5 25.7C30.6 25.8 29.8 26.1 29.1 26.8 27.6 28.2 25.4 28.2 23.9 26.8 22.4 25.4 20 25.4 18.4 26.8 17 28.2 14.7 28.2 13.2 26.8 11.7 25.4 9.3 25.4 7.7 26.8 6.3 28.2 4 28.2 2.5 26.8 1.9 26.2 1 25.8 0.1 25.7L0.1 26C0.9 26.1 1.7 26.4 2.3 27 3.8 28.4 6.2 28.4 7.8 27 9.2 25.6 11.5 25.6 13 27 14.5 28.4 16.9 28.4 18.5 27 19.5 26.2 20.4 25.9 21.3 25.9Z" fill="#7823DC"/></g><path d="M26 18 26 19.9 28 19.9 6 19.9 6 18 26 18M28 16 4 16 4 17.9 2 17.9 2 21.9 30 21.9 30 17.9 28 17.9 28 16 28 16Z" fill="#7823DC"/><rect x="15" y="0" width="2" height="16" fill="#7823DC"/><rect x="6.5" y="20" width="2" height="7" fill="#7823DC"/><rect x="9.5" y="20" width="2" height="6" fill="#7823DC"/><rect x="23.5" y="20" width="2" height="6.8" fill="#7823DC"/><rect x="20.5" y="20" width="2" height="6" fill="#7823DC"/></svg>