<svg viewBox="0 0 32 32" xmlns="http://www.w3.org/2000/svg" xmlns:xlink="http://www.w3.org/1999/xlink" xml:space="preserve" overflow="hidden"><style>
.MsftOfcResponsive_Fill_7823dc {
 fill:#7823DC; 
}
</style>
<g id="Layer_3"></g><g id="Layer_1"><path d="M11.96 12.67C10.07 12.67 8.51 11.16 8.47 9.26 8.46 8.32 8.8 7.44 9.44 6.77 10.08 6.1 10.95 5.71 11.88 5.69L11.88 5.69C12.85 5.66 13.7 6.01 14.37 6.65 15.04 7.29 15.43 8.16 15.45 9.09 15.49 11.01 13.96 12.61 12.04 12.66 12.02 12.67 11.99 12.67 11.96 12.67ZM11.97 7.69C11.96 7.69 11.95 7.69 11.93 7.69L11.93 7.69C11.53 7.7 11.16 7.86 10.89 8.15 10.62 8.44 10.47 8.81 10.48 9.21 10.5 10.03 11.15 10.68 12 10.67 12.82 10.65 13.47 9.97 13.45 9.15 13.44 8.75 13.28 8.38 12.99 8.11 12.72 7.83 12.35 7.69 11.97 7.69Z" class="MsftOfcResponsive_Fill_7823dc" fill="#7823DC"/><path d="M20.25 18.95C18.57 18.95 17.18 17.6 17.14 15.91 17.1 14.2 18.46 12.77 20.18 12.73 21.03 12.72 21.8 13.02 22.4 13.59 23 14.16 23.34 14.94 23.36 15.77 23.38 16.6 23.07 17.39 22.5 17.99 21.93 18.59 21.15 18.93 20.32 18.95 20.29 18.95 20.27 18.95 20.25 18.95ZM20.25 14.51C20.24 14.51 20.23 14.51 20.22 14.51 19.49 14.53 18.91 15.14 18.92 15.87 18.94 16.59 19.53 17.17 20.25 17.17 20.26 17.17 20.27 17.17 20.28 17.17 20.63 17.16 20.97 17.02 21.21 16.76 21.45 16.51 21.58 16.17 21.58 15.81 21.57 15.45 21.43 15.12 21.17 14.88 20.92 14.64 20.59 14.51 20.25 14.51Z" class="MsftOfcResponsive_Fill_7823dc" fill="#7823DC"/><path d="M12.73 26.98C10.84 26.98 9.29 25.47 9.24 23.57 9.2 21.65 10.73 20.04 12.65 20 13.61 19.99 14.47 20.32 15.14 20.96 15.81 21.6 16.2 22.47 16.22 23.41 16.24 24.34 15.9 25.23 15.26 25.9 14.62 26.57 13.75 26.96 12.82 26.98 12.78 26.98 12.75 26.98 12.73 26.98ZM12.73 22C12.72 22 12.71 22 12.69 22 11.87 22.02 11.22 22.7 11.23 23.52 11.25 24.33 11.91 24.98 12.72 24.98 12.73 24.98 12.74 24.98 12.75 24.98 13.15 24.97 13.52 24.81 13.79 24.52 14.06 24.23 14.21 23.86 14.2 23.46 14.19 23.06 14.03 22.69 13.74 22.42 13.48 22.15 13.11 22 12.73 22Z" class="MsftOfcResponsive_Fill_7823dc" fill="#7823DC"/></g><g id="Layer_2"></g><g id="Layer_4"></g><g id="Layer_5"><path d="M21.75 25.99C20.37 25.99 19.25 24.87 19.25 23.49 19.25 22.11 20.37 20.99 21.75 20.99 23.13 20.99 24.25 22.11 24.25 23.49 24.25 24.87 23.13 25.99 21.75 25.99ZM21.75 22.99C21.47 22.99 21.25 23.21 21.25 23.49 21.25 23.77 21.47 23.99 21.75 23.99 22.03 23.99 22.25 23.76 22.25 23.49 22.25 23.22 22.03 22.99 21.75 22.99Z" class="MsftOfcResponsive_Fill_7823dc" fill="#7823DC"/><path d="M7.74 19.54C6.36 19.54 5.24 18.42 5.24 17.04 5.24 15.66 6.36 14.54 7.74 14.54 9.12 14.54 10.24 15.66 10.24 17.04 10.24 18.42 9.12 19.54 7.74 19.54ZM7.74 16.54C7.46 16.54 7.24 16.76 7.24 17.04 7.24 17.32 7.46 17.54 7.74 17.54 8.02 17.54 8.24 17.32 8.24 17.04 8.24 16.76 8.02 16.54 7.74 16.54Z" class="MsftOfcResponsive_Fill_7823dc" fill="#7823DC"/><path d="M20.25 19.02C18.47 19.02 17.02 17.57 17.02 15.79 17.02 14.01 18.47 12.56 20.25 12.56 22.03 12.56 23.48 14.01 23.48 15.79 23.48 17.57 22.03 19.02 20.25 19.02ZM20.25 14.57C19.57 14.57 19.02 15.12 19.02 15.8 19.02 16.48 19.57 17.03 20.25 17.03 20.93 17.03 21.48 16.48 21.48 15.8 21.48 15.12 20.92 14.57 20.25 14.57Z" class="MsftOfcResponsive_Fill_7823dc" fill="#7823DC"/><path d="M31.2 11.48 31.02 10.89 29.51 11.08 29.48 11.11C29 11.67 28.31 11.97 27.6 11.95 26.42 11.91 25.43 10.99 25.31 9.81L25.27 9.47 24.23 8.87 23.95 8.98C23.5 9.15 23.06 9.23 22.59 9.22 21.65 9.19 20.78 8.8 20.14 8.11 19.5 7.43 19.16 6.53 19.19 5.59 19.22 4.67 19.6 3.82 20.25 3.2L20.25 0.74C19 0.39 17.74 0.19 16.49 0.15 12.28 0.02 8.22 1.55 5.13 4.45 2.04 7.35 0.27 11.29 0.14 15.52 0.01 19.76 1.54 23.79 4.44 26.88 7.34 29.97 11.28 31.74 15.51 31.87 15.68 31.87 15.84 31.88 16.01 31.88 24.54 31.88 31.6 25.08 31.87 16.5 31.92 14.83 31.69 13.14 31.2 11.48ZM15.57 29.88C11.87 29.77 8.43 28.22 5.89 25.52 3.35 22.82 2.02 19.29 2.13 15.59 2.25 11.88 3.8 8.44 6.5 5.9 9.09 3.46 12.45 2.14 15.99 2.14 16.14 2.14 16.28 2.14 16.43 2.15 17.06 2.17 17.7 2.24 18.34 2.35 17.64 3.25 17.23 4.36 17.19 5.54 17.15 7.01 17.68 8.42 18.68 9.49 19.69 10.56 21.06 11.18 22.53 11.23 22.9 11.24 23.24 11.22 23.6 11.16 24.22 12.77 25.77 13.91 27.55 13.97 28.26 13.99 29 13.83 29.64 13.51 29.83 14.49 29.9 15.48 29.87 16.46 29.63 24.09 23.18 30.12 15.57 29.88Z" class="MsftOfcResponsive_Fill_7823dc" fill="#7823DC"/></g></svg>