<svg viewBox="0 0 32 32" xmlns="http://www.w3.org/2000/svg" xmlns:xlink="http://www.w3.org/1999/xlink" id="Layer_1" overflow="hidden"><path d="M32.1 32 30.1 32 30.1 26.2C30.1 24.2 28.8 22.5 27.1 22.5L4 22.5C2.9 22.5 2 23.6 2 25L2 32 0 32 0 25C0 22.5 1.8 20.5 4 20.5L27.1 20.5C29.9 20.5 32.1 23 32.1 26.2L32.1 32Z" fill="#7823DC"/><rect x="1" y="27.5" width="30" height="2" fill="#7823DC"/><path d="M29 22 27 22 27 10 5 10 5 21 3 21 3 8 29 8Z" fill="#7823DC"/><g><path d="M15 22 13 22 13 17.7C13 17.3 12.5 17 12 17L9.1 17C8.6 17 8.1 17.3 8.1 17.7L8.1 21.5 6.1 21.5 6.1 17.7C6.1 16.2 7.4 15 9.1 15L12 15C13.7 15 15 16.2 15 17.7L15 22Z" fill="#7823DC"/><path d="M26 22 24 22 24 17.7C24 17.3 23.5 17 23 17L20 17C19.5 17 19 17.3 19 17.7L19 21.5 17 21.5 17 17.7C17 16.2 18.3 15 20 15L23 15C24.7 15 26 16.2 26 17.7L26 22Z" fill="#7823DC"/></g></svg>