<svg viewBox="0 0 32 32" xmlns="http://www.w3.org/2000/svg" xmlns:xlink="http://www.w3.org/1999/xlink" id="Layer_1" overflow="hidden"><style>
.MsftOfcResponsive_Fill_7823dc {
 fill:#7823DC; 
}
</style>
<defs></defs><path d="M32 8 30 8 30 5C30 3.7 29.16 2.6 28 2.18L28 0 26 0 26 2.18C24.84 2.59 24 3.69 24 5L24 8 22 8 22 14 23.97 14 23.97 16 21 16 21 12 20 12 20 9.5C20 7.29 18.21 5.5 16 5.5 13.79 5.5 12 7.29 12 9.5L12 12 11 12 11 16 8 16 8 14 10 14 10 8 8 8 8 5C8 3.7 7.16 2.6 6 2.18L6 0 4 0 4 2.18C2.84 2.59 2 3.69 2 5L2 8 0 8 0 14 1.97 14 1.97 32 8 32 8 18 23.97 18 23.97 32 30 32 30 14 32 14 32 8ZM4 5C4 4.45 4.45 4 5 4 5.55 4 6 4.45 6 5L6 8 4 8 4 5ZM2 10 8 10 8 12 2 12 2 10ZM6 30 3.97 30 3.97 14 6 14 6 30ZM14 9.5C14 8.4 14.9 7.5 16 7.5 17.1 7.5 18 8.4 18 9.5L18 12 14 12 14 9.5ZM13 16 13 14 19 14 19 16 13 16ZM26 5C26 4.45 26.45 4 27 4 27.55 4 28 4.45 28 5L28 8 26 8 26 5ZM28 30 25.97 30 25.97 14 28 14 28 30ZM30 12 24 12 24 10 30 10 30 12Z" class="MsftOfcResponsive_Fill_7823dc" fill="#7823DC"/><path d="M16.37 19.07 16 18.92 15.63 19.07C12.21 20.44 10 23.7 10 27.38L10 32 22 32 22 27.38C22 23.7 19.79 20.43 16.37 19.07ZM20 30 12 30 12 27.38C12 24.66 13.56 22.23 16 21.09 18.44 22.23 20 24.66 20 27.38L20 30Z" class="MsftOfcResponsive_Fill_7823dc" fill="#7823DC"/><path d="M16 5.03C17.39 5.03 18.51 3.9 18.51 2.51L16.51 2.51C16.51 2.79 16.28 3.03 16 3.03 15.72 3.03 15.48 2.8 15.48 2.51 15.48 2.22 15.71 2 16 2L16 0C14.61 0 13.48 1.13 13.48 2.51 13.48 3.89 14.61 5.03 16 5.03Z" class="MsftOfcResponsive_Fill_7823dc" fill="#7823DC"/></svg>