<svg viewBox="0 0 32 32" xmlns="http://www.w3.org/2000/svg" xmlns:xlink="http://www.w3.org/1999/xlink" id="Layer_1" overflow="hidden"><g><path d="M26.4 32.3 32 28 26.4 23.6 25.2 25.3 28.7 28 25.2 30.6Z" fill="#7823DC"/></g><g><path d="M7.3 15.2 7.3 22.3 14.2 20.5 13.6 18.5 9.4 19.6 9.3 15.3Z" fill="#7823DC"/></g><rect x="0" y="27" width="4.1" height="2" fill="#7823DC"/><rect x="8.1" y="27" width="20.9" height="2" fill="#7823DC"/><path d="M16 29C16 29 16 29 16 29L16 27C16 27 16 27 16 27 17.5 27 18.9 26.4 19.9 25.3 20.9 24.2 21.5 22.8 21.5 21.3 21.4 18.4 19.1 16 16.3 16 13.9 15.9 11.7 17.6 10.9 20.1L9 19.5C10 16.2 13 13.9 16.3 14 20.2 14.1 23.4 17.4 23.5 21.3 23.5 23.3 22.8 25.3 21.3 26.7 19.9 28.2 18 29 16 29Z" fill="#7823DC"/><path d="M16.4 16C13.1 16 10.1 14 9.7 11.3 9.5 10 10 8.6 11 7.4 12.3 5.8 14.5 4.9 16.8 5L16.8 7C15.1 7 13.6 7.6 12.6 8.7 12 9.4 11.7 10.2 11.8 11 12 12.5 14 14.1 16.7 14L16.7 16C16.5 16 16.5 16 16.4 16Z" fill="#7823DC"/><g><path d="M15 10.7 20 5.7 13.9 2.1 12.9 3.9 16.7 6.1 13.6 9.2Z" fill="#7823DC"/></g><path d="M27 2C28.7 2 30 3.3 30 5 30 6.7 28.7 8 27 8 25.3 8 24 6.7 24 5 24 3.3 25.3 2 27 2M27 0C24.2 0 22 2.2 22 5 22 7.8 24.2 10 27 10 29.8 10 32 7.8 32 5 32 2.2 29.7 0 27 0L27 0Z" fill="#7823DC"/><path d="M2.1 24 2.1 32 10.1 32 10.1 24 2.1 24ZM8.1 30 4.1 30 4.1 26 8.1 26 8.1 30Z" fill="#7823DC"/></svg>