<svg viewBox="0 0 32 32" xmlns="http://www.w3.org/2000/svg" xmlns:xlink="http://www.w3.org/1999/xlink" id="Graphic" overflow="hidden"><defs></defs><path d="M19 30C13.49 30 9 23.75 9 16 9 8.25 13.49 2 19 2 21.8428 2.1232 24.4506 3.61336 26 6L28.37 6C26.16 2.37 22.79 0 19 0 12.37 0 7 7.19 7 16 7 24.81 12.37 32 19 32 22.79 32 26.16 29.65 28.36 26L26 26C24.4506 28.3866 21.8428 29.8768 19 30Z" fill="#7823DC"/><rect x="2" y="12" width="16" height="2" fill="#7823DC"/><rect x="2" y="17.97" width="16" height="2" fill="#7823DC"/></svg>