<svg viewBox="0 0 32 32" xmlns="http://www.w3.org/2000/svg" xmlns:xlink="http://www.w3.org/1999/xlink" id="Layer_1" overflow="hidden"><path d="M22.9 25.5 22.9 28 22.9 28C22.6 28.6 20.2 30 15.9 30 11.6 30 9.2 28.6 8.9 28L8.9 28 8.9 25.5C7.7 26.2 6.9 27.1 6.9 28 6.9 30.2 10.9 32 15.9 32 20.9 32 24.9 30.2 24.9 28 24.9 27 24.1 26.2 22.9 25.5Z" fill="#7823DC"/><path d="M22.9 21.5 22.9 24 22.9 24C22.6 24.6 20.2 26 15.9 26 11.6 26 9.2 24.6 8.9 24L8.9 24 8.9 21.5C7.7 22.2 6.9 23.1 6.9 24 6.9 24.9 7.7 25.8 8.9 26.5 10.5 27.4 13.1 28 15.9 28 18.7 28 21.3 27.4 22.9 26.5 24.1 25.8 24.9 24.9 24.9 24 24.9 23.1 24.1 22.2 22.9 21.5Z" fill="#7823DC"/><path d="M22.9 17.5 22.9 20 22.9 20C22.6 20.6 20.2 22 15.9 22 11.6 22 9.2 20.6 8.9 20L8.9 20 8.9 17.5C7.7 18.2 6.9 19.1 6.9 20 6.9 20.9 7.7 21.8 8.9 22.5 10.5 23.4 13.1 24 15.9 24 18.7 24 21.3 23.4 22.9 22.5 24.1 21.8 24.9 20.9 24.9 20 24.9 19.1 24.1 18.2 22.9 17.5Z" fill="#7823DC"/><path d="M24.8 9.4C24.4 8.2 23 7.3 21 6.7 21.5 7.1 21.8 7.4 22.1 7.7 21 7.5 19.5 7 17.7 6.1 17.7 6.1 17.7 6.1 17.7 6.1 17.1 6 16.5 6 15.9 6 15.1 6 14.4 6 13.7 6.1 9.8 6.5 6.9 8.1 6.9 10 6.9 11 7.7 11.8 8.9 12.5 10.5 13.4 13.1 14 15.9 14 18.7 14 21.3 13.4 22.9 12.5 24.1 11.8 24.9 10.9 24.9 10 24.9 9.8 24.8 9.6 24.8 9.4ZM8.9 10C9.2 9.4 11.6 8 15.9 8 16.3 8 16.8 8 17.2 8 20.3 8.2 22.2 9.2 22.8 9.8 22.9 9.9 22.9 9.9 23 10 22.7 10.6 20.3 12 16 12 11.6 12 9.2 10.6 8.9 10Z" fill="#7823DC"/><path d="M18.3 2.5C14.7 0.6 11.3-0.4 9.8 0.1 9.4 0.2 9.2 0.4 9.1 0.6 8.5 1.7 10.5 4 13.7 6.1 14.3 6.5 15 6.9 15.7 7.3 16.2 7.6 16.7 7.8 17.2 8.1 20.3 8.3 22.2 9.3 22.8 9.9 23.4 10 23.9 9.9 24.2 9.8 24.5 9.7 24.7 9.6 24.8 9.4 24.8 9.4 24.9 9.3 24.9 9.3 25.6 7.9 22.6 4.9 18.3 2.5ZM17.7 6.1C17.7 6.1 17.7 6.1 17.7 6.1 17.3 5.9 17 5.7 16.6 5.6 14.3 4.4 12.8 3.1 11.8 2.2 13.1 2.5 15 3.1 17.2 4.3 18.8 5.1 20 6 21 6.7 21.5 7.1 21.8 7.4 22.1 7.7 21 7.5 19.5 7 17.7 6.1Z" fill="#7823DC"/><path d="M8.9 10 6.9 10 6.9 28 8.9 28 8.9 12 15.9 12C11.6 12 9.2 10.6 8.9 10ZM22.9 10C22.6 10.6 20.2 12 15.9 12L22.9 12 22.9 28 24.9 28 24.9 10 22.9 10Z" fill="#7823DC"/></svg>