<svg viewBox="0 0 32 32" xmlns="http://www.w3.org/2000/svg" xmlns:xlink="http://www.w3.org/1999/xlink" xml:space="preserve" overflow="hidden"><style>
.MsftOfcResponsive_Fill_7823dc {
 fill:#7823DC; 
}
</style>
<g id="Layer_3"></g><g id="Layer_1"><path d="M26.55 25.85 25.63 25.41C16.13 20.83 6.47 25.17 6.38 25.21L5.47 25.63 0.04 13.85 0.63 13.36C0.77 13.24 14.89 1.79 31.36 13.31L32.04 13.79 26.55 25.85ZM16.11 21.29C19.01 21.29 22.27 21.77 25.57 23.19L29.53 14.49C16.46 5.83 5.21 12.56 2.52 14.44L6.47 23.01C8.09 22.4 11.68 21.29 16.11 21.29Z" class="st1 MsftOfcResponsive_Fill_7823dc" fill="#7823DC"/><path d="M17.49 20.46 17.49 17.45 20.5 17.45 20.5 14.46 17.5 14.45 17.5 11.46 14.49 11.46 14.5 14.46 11.5 14.45 11.5 17.45 14.46 17.46 14.49 20.46Z" class="st1 MsftOfcResponsive_Fill_7823dc" fill="#7823DC"/></g><g id="Layer_2"></g></svg>