<svg viewBox="0 0 32 32" xmlns="http://www.w3.org/2000/svg" xmlns:xlink="http://www.w3.org/1999/xlink" overflow="hidden"><style>
.MsftOfcResponsive_Fill_7823dc {
 fill:#7823DC; 
}
</style>
<defs></defs><g id="a"></g><g id="b"><g id="c"></g><g><path d="M11.9867 9.91672 11.9867 29.9355 1.98042 29.9355 1.98042 9.91672 11.9867 9.91672M13.9879 7.91484-0.02083 7.91484-0.02083 31.9374 13.9879 31.9374 13.9879 7.91485Z" class="MsftOfcResponsive_Fill_7823dc" fill="#7823DC"/><path d="M7.98418-0.06263 5.98293-0.06263 5.98293 4.49164 7.98418 4.49164 7.98418-0.06263 7.98418-0.06263Z" class="MsftOfcResponsive_Fill_7823dc" fill="#7823DC"/><path d="M9.98543 11.8986 7.98418 11.8986 7.98418 15.9023 9.98543 15.9023 9.98543 11.8986 9.98543 11.8986Z" class="MsftOfcResponsive_Fill_7823dc" fill="#7823DC"/><path d="M9.98543 17.9042 7.98418 17.9042 7.98418 21.908 9.98543 21.908 9.98543 17.9042 9.98543 17.9042Z" class="MsftOfcResponsive_Fill_7823dc" fill="#7823DC"/><path d="M9.98543 23.9098 7.98418 23.9098 7.98418 27.9136 9.98543 27.9136 9.98543 23.9098 9.98543 23.9098Z" class="MsftOfcResponsive_Fill_7823dc" fill="#7823DC"/><path d="M5.98293 11.8986 3.98167 11.8986 3.98167 15.9023 5.98293 15.9023 5.98293 11.8986 5.98293 11.8986Z" class="MsftOfcResponsive_Fill_7823dc" fill="#7823DC"/><path d="M5.98293 17.9042 3.98167 17.9042 3.98167 21.908 5.98293 21.908 5.98293 17.9042 5.98293 17.9042Z" class="MsftOfcResponsive_Fill_7823dc" fill="#7823DC"/><path d="M5.98293 23.9098 3.98167 23.9098 3.98167 27.9136 5.98293 27.9136 5.98293 23.9098 5.98293 23.9098Z" class="MsftOfcResponsive_Fill_7823dc" fill="#7823DC"/><path d="M7.98418 3.91109 1.98042 3.91109 1.98042 9.91672 11.9867 9.91672 11.9867 3.91109 7.98418 3.91109ZM9.98543 7.91484 3.98167 7.91484 3.98167 5.91296 9.98542 5.91296 9.98542 7.91484Z" class="MsftOfcResponsive_Fill_7823dc" fill="#7823DC"/></g><g><path d="M29.9866 9.91672 29.9866 29.9355 19.9804 29.9355 19.9804 9.91672 29.9866 9.91672M31.9879 7.91484 17.9791 7.91484 17.9791 31.9374 31.9879 31.9374 31.9879 7.91485Z" class="MsftOfcResponsive_Fill_7823dc" fill="#7823DC"/><path d="M25.9841-0.06263 23.9829-0.06263 23.9829 4.49164 25.9841 4.49164 25.9841-0.06263 25.9841-0.06263Z" class="MsftOfcResponsive_Fill_7823dc" fill="#7823DC"/><path d="M27.9854 11.8986 25.9841 11.8986 25.9841 15.9023 27.9854 15.9023 27.9854 11.8986 27.9854 11.8986Z" class="MsftOfcResponsive_Fill_7823dc" fill="#7823DC"/><path d="M27.9854 17.9042 25.9841 17.9042 25.9841 21.908 27.9854 21.908 27.9854 17.9042 27.9854 17.9042Z" class="MsftOfcResponsive_Fill_7823dc" fill="#7823DC"/><path d="M27.9854 23.9098 25.9841 23.9098 25.9841 27.9136 27.9854 27.9136 27.9854 23.9098 27.9854 23.9098Z" class="MsftOfcResponsive_Fill_7823dc" fill="#7823DC"/><path d="M23.9829 11.8986 21.9816 11.8986 21.9816 15.9023 23.9829 15.9023 23.9829 11.8986 23.9829 11.8986Z" class="MsftOfcResponsive_Fill_7823dc" fill="#7823DC"/><path d="M23.9829 17.9042 21.9816 17.9042 21.9816 21.908 23.9829 21.908 23.9829 17.9042 23.9829 17.9042Z" class="MsftOfcResponsive_Fill_7823dc" fill="#7823DC"/><path d="M23.9829 23.9098 21.9816 23.9098 21.9816 27.9136 23.9829 27.9136 23.9829 23.9098 23.9829 23.9098Z" class="MsftOfcResponsive_Fill_7823dc" fill="#7823DC"/><path d="M25.9841 3.91109 19.9804 3.91109 19.9804 9.91672 29.9867 9.91672 29.9867 3.91109 25.9841 3.91109ZM27.9854 7.91484 21.9816 7.91484 21.9816 5.91296 27.9854 5.91296 27.9854 7.91484Z" class="MsftOfcResponsive_Fill_7823dc" fill="#7823DC"/></g></g></svg>