<svg width="36.5" height="36.6" viewBox="0 0 36.5 36.6" xmlns="http://www.w3.org/2000/svg" xmlns:xlink="http://www.w3.org/1999/xlink" overflow="hidden"><defs></defs><g><g><defs><path d="M0 36.5 36.5 36.5 36.5 0 0 0 0 36.5Z" id="SVGID_1_" fill="#7823DC"/></defs><clipPath id="SVGID_2_"><use width="100%" height="100%" xlink:href="#SVGID_1_"></use></clipPath><g clip-path="url(#SVGID_2_)"><defs><path d="M0 36.5 36.5 36.5 36.5 0 0 0 0 36.5Z" id="SVGID_3_" fill="#7823DC"/></defs><clipPath id="SVGID_4_"><use width="100%" height="100%" xlink:href="#SVGID_3_"></use></clipPath><path d="M18.2 36.6C8.2 36.6 0 28.4 0 18.3 0 8.2 8.2 0 18.2 0 28.2 0 36.4 8.2 36.4 18.3 36.4 28.4 28.3 36.6 18.2 36.6ZM18.2 2.3C9.4 2.3 2.2 9.5 2.2 18.3 2.2 27.1 9.4 34.3 18.2 34.3 27 34.3 34.2 27.1 34.2 18.3 34.2 9.5 27 2.3 18.2 2.3Z" fill="#7823DC" clip-path="url(#SVGID_4_)"/><path d="M17.6 24.2C18.1 24.2 18.4 24.4 18.7 24.7 19 25 19.2 25.4 19.2 25.8 19.2 26.3 19 26.6 18.7 26.9 18.4 27.2 18 27.4 17.6 27.4 17.1 27.4 16.8 27.2 16.5 26.9 16.2 26.6 16 26.2 16 25.8 16 25.3 16.2 25 16.5 24.7 16.8 24.4 17.2 24.2 17.6 24.2L17.6 24.2ZM18.5 9.1C20.2 9.1 21.4 9.6 22.2 10.4 23 11.2 23.3 12.2 23.3 13.3 23.3 14.2 23 15 22.5 15.7 22 16.4 21.4 17 20.8 17.5 20.2 18 19.7 18.6 19.3 19.2 18.9 19.8 18.6 20.4 18.6 21.2L18.6 22.3 16.7 22.3 16.7 21C16.7 20 17 19.1 17.5 18.4 18 17.7 18.6 17 19.3 16.4 19.8 15.9 20.2 15.4 20.6 14.9 21 14.4 21.1 13.9 21.1 13.3 21.1 12.5 20.9 11.9 20.5 11.5 20.1 11.1 19.4 10.8 18.5 10.8 17.6 10.8 16.8 11.1 16.2 11.7 15.6 12.3 15.3 13.1 15.2 14.1L13.2 14.1C13.3 12.6 13.8 11.4 14.8 10.5 15.8 9.6 17 9.1 18.5 9.1L18.5 9.1Z" fill="#7823DC" fill-rule="evenodd" clip-rule="evenodd" clip-path="url(#SVGID_4_)"/></g></g></g></svg>