<svg viewBox="0 0 32 32" xmlns="http://www.w3.org/2000/svg" xmlns:xlink="http://www.w3.org/1999/xlink" id="Layer_1" overflow="hidden"><style>
.MsftOfcResponsive_Fill_7823dc {
 fill:#7823DC; 
}
</style>
<defs></defs><path d="M26.56 32 14.27 32 14.27 30 26.56 30C28.94 30 30 28.27 30 26.55 30 25.84 29.84 25.21 29.54 24.68L29.48 24.59C29.21 24.15 28.84 23.8 28.38 23.54 27.86 23.26 23.73 21.22 22.18 20.46L21.91 20.33 17.56 12.85 19.29 11.84 23.34 18.8C24 19.13 25.71 19.97 27.15 20.69L20.84 10.12C19.95 8.62 18.92 8.01 17.3 8.01L14.23 8.01 14.23 16.04 12.23 16.04 12.23 3.73 14.23 3.73 14.23 6 17.3 6C19.63 6 21.3 6.98 22.56 9.09L31.08 23.37C31.68 24.25 32 25.34 32 26.55 32 29.26 30.13 32 26.56 32Z" class="MsftOfcResponsive_Fill_7823dc" fill="#7823DC"/><path d="M15.95 7.45C13.9 7.45 12.22 5.78 12.22 3.72 12.22 1.66 13.89-0.01 15.95-0.01 18.01-0.01 19.68 1.66 19.68 3.72 19.68 5.78 18.01 7.45 15.95 7.45ZM15.95 2C15 2 14.22 2.77 14.22 3.73 14.22 4.69 14.99 5.46 15.95 5.46 16.91 5.46 17.68 4.69 17.68 3.73 17.68 2.77 16.91 2 15.95 2Z" class="MsftOfcResponsive_Fill_7823dc" fill="#7823DC"/><path d="M14.33 32 0.38 32 2.93 27.15C1.56 26.41-0.01 24.87-0.01 22.28L-0.01 4.13 1.99 4.13 1.99 6.03 5.06 6.03C7.39 6.03 9.07 7.02 10.32 9.14L18.88 23.57C19.45 24.43 19.76 25.48 19.76 26.64 19.76 29.3 17.89 32 14.32 32ZM3.69 30 14.33 30C16.71 30 17.77 28.31 17.77 26.64 17.77 25.33 17.18 24.26 16.15 23.71 15.63 23.43 11.5 21.43 9.95 20.69L9.68 20.56 5.33 13.22 7.05 12.2 11.09 19.02C11.76 19.34 13.52 20.19 14.97 20.9L8.6 10.16C7.71 8.65 6.68 8.03 5.06 8.03L1.99 8.03 1.99 22.27C1.99 24.68 3.97 25.48 4.47 25.64L13.28 25.64 13.28 27.64 4.94 27.64 3.7 30Z" class="MsftOfcResponsive_Fill_7823dc" fill="#7823DC"/><path d="M3.73 7.45C1.68 7.45 0 5.78 0 3.72 0 1.66 1.67 0 3.73 0 5.79 0 7.46 1.67 7.46 3.73 7.46 5.79 5.79 7.46 3.73 7.46ZM3.73 2C2.78 2 2 2.77 2 3.73 2 4.69 2.77 5.46 3.73 5.46 4.69 5.46 5.46 4.69 5.46 3.73 5.46 2.77 4.69 2 3.73 2Z" class="MsftOfcResponsive_Fill_7823dc" fill="#7823DC"/><rect x="19.12" y="25.55" width="6.04" height="2" class="MsftOfcResponsive_Fill_7823dc" fill="#7823DC"/></svg>