<svg viewBox="0 0 32 30.49" xmlns="http://www.w3.org/2000/svg" xmlns:xlink="http://www.w3.org/1999/xlink" id="Layer_1" overflow="hidden"><style>
.MsftOfcResponsive_Fill_7823dc {
 fill:#7823DC; 
}
</style>
<defs></defs><path d="M0 0 6.4 3.97 17.09 0.45 32 4.42 32 8.61 22.55 9.51 27.09 21.2 24.48 30.49 22.41 30.49 24.99 21.3 20.57 9.95C20.19 10.18 19.75 10.4 19.24 10.61L19.56 15.6C20.25 15.45 20.96 15.58 21.52 16 22.01 16.37 23.08 17.51 22.43 20.18 21.69 23.21 20.25 26.5 20.19 26.64L18.36 25.83C18.36 25.83 19.79 22.56 20.49 19.71 20.81 18.38 20.54 17.76 20.32 17.6 20.13 17.45 19.85 17.59 19.77 17.63 18.9 18.2 16.17 23.73 15.3 27.02 14.99 28.22 14.87 29.45 14.86 30.49L12.85 30.49C12.86 29.32 12.99 27.91 13.36 26.51 13.99 24.12 16.01 19.38 17.65 17.08L17.28 11.26C15.4 11.83 14.04 12.37 12.94 12.81 11.35 13.44 10.19 13.91 8.77 13.91 7.85 13.91 6.81 13.71 5.47 13.23 2.74 12.25 0.96 11.59 5.32907e-15 11.24L5.32907e-15 9.1C0.54 9.31 2.48 10.03 6.14 11.34 8.81 12.3 9.66 11.96 12.2 10.95 13.43 10.46 14.96 9.85 17.18 9.21 19.59 8.51 20.16 7.81 20.29 7.54 20.34 7.43 20.37 7.31 20.29 7.09 20.13 6.69 19.61 6.46 19.1 6.57L11.58 8.23 11.15 6.28 18.67 4.61C20.13 4.3 21.63 5.04 22.15 6.36 22.3 6.74 22.35 7.14 22.32 7.52L30 6.79 30 5.95 17.16 2.54 6.14 6.17 0 2.36 0 0Z" class="MsftOfcResponsive_Fill_7823dc" fill="#7823DC"/></svg>