<svg viewBox="0 0 32 32" xmlns="http://www.w3.org/2000/svg" xmlns:xlink="http://www.w3.org/1999/xlink" overflow="hidden"><defs></defs><g id="Layer_3"><path d="M32.05 31.033 30.05 31.033 30.05 16.032 1.95 16.032 1.95 31.033-0.05 31.033-0.05 14.032 32.05 14.032 32.05 31.033Z" fill="#7823DC"/><rect x="0.9502" y="25.0332" width="30.0996" height="2" fill="#7823DC"/><path d="M22 8.88916C19.8699 8.8889 18.1433 7.16187 18.1435 5.03174 18.1438 2.90161 19.8708 1.17502 22.001 1.17528 24.1309 1.17555 25.8574 2.90228 25.8574 5.03223 25.8549 7.16152 24.1293 8.88696 22 8.88916ZM22 2.88916C20.8164 2.88889 19.8567 3.84816 19.8564 5.03174 19.8562 6.21532 20.8154 7.17503 21.999 7.1753 23.1826 7.17557 24.1423 6.2163 24.1426 5.03272 24.1426 5.03256 24.1426 5.03239 24.1426 5.03223 24.1414 3.84931 23.1829 2.89058 22 2.88916Z" fill="#7823DC"/><path d="M28 16.0522 16 16.0522 16 9.05225 28 9.05225ZM18 14.0522 26 14.0522 26 11.0522 18 11.0522Z" fill="#7823DC"/><path d="M14 11.0322 0 11.0322 0 2.03223 14 2.03223ZM2 9.03223 12 9.03223 12 4.03223 2 4.03223Z" fill="#7823DC"/><path d="M10 16.0522 4 16.0522 4 9.05225 10 9.05225ZM6 14.0522 8 14.0522 8 11.0522 6 11.0522Z" fill="#7823DC"/></g></svg>