<svg viewBox="0 0 32 32" xmlns="http://www.w3.org/2000/svg" xmlns:xlink="http://www.w3.org/1999/xlink" xml:space="preserve" overflow="hidden"><style>
.MsftOfcResponsive_Fill_7823dc {
 fill:#7823DC; 
}
</style>
<g id="Layer_3"></g><g id="Layer_1"><path d="M4.81 20.8C2.17 20.8 0.01 18.65 0.01 16 0.01 13.36 2.16 11.2 4.81 11.2 7.46 11.2 9.61 13.35 9.61 16 9.6 18.65 7.45 20.8 4.81 20.8ZM4.81 13.2C3.27 13.2 2.01 14.45 2.01 16 2.01 17.54 3.26 18.8 4.81 18.8 6.36 18.8 7.61 17.55 7.61 16 7.6 14.46 6.35 13.2 4.81 13.2Z" class="st1 MsftOfcResponsive_Fill_7823dc" fill="#7823DC"/><path d="M27.2 32C24.56 32 22.4 29.85 22.4 27.2 22.4 24.55 24.55 22.4 27.2 22.4 29.85 22.4 32 24.55 32 27.2 32 29.85 29.85 32 27.2 32ZM27.2 24.4C25.66 24.4 24.4 25.65 24.4 27.2 24.4 28.75 25.65 30 27.2 30 28.75 30 30 28.75 30 27.2 30 25.65 28.75 24.4 27.2 24.4Z" class="st1 MsftOfcResponsive_Fill_7823dc" fill="#7823DC"/><path d="M32.06 9.01-0.06 9.01-0.06-0.04 32.05-0.04 32.05 9.01ZM1.94 7.01 30.05 7.01 30.05 1.96 1.94 1.96 1.94 7.01Z" class="st1 MsftOfcResponsive_Fill_7823dc" fill="#7823DC"/><path d="M32 20.52 10.56 20.52 10.56 11.47 32 11.47 32 20.52ZM12.56 18.52 30 18.52 30 13.47 12.56 13.47 12.56 18.52Z" class="st1 MsftOfcResponsive_Fill_7823dc" fill="#7823DC"/><path d="M21.54 32 0.01 32 0.01 22.95 21.54 22.95 21.54 32ZM2.01 30 19.54 30 19.54 24.95 2.01 24.95 2.01 30Z" class="st1 MsftOfcResponsive_Fill_7823dc" fill="#7823DC"/></g><g id="Layer_2"></g></svg>