<svg viewBox="0 0 32 32" xmlns="http://www.w3.org/2000/svg" xmlns:xlink="http://www.w3.org/1999/xlink" overflow="hidden"><defs></defs><g id="Layer_3"><rect x="1" y="28.9688" width="30" height="2" fill="#7823DC"/><rect x="3" y="14.0747" width="2" height="14.894" fill="#7823DC"/><rect x="27" y="14.0747" width="2" height="14.894" fill="#7823DC"/><path d="M26 30.9688 18 30.9688 18 15.9976 26 15.9976ZM20 28.9688 24 28.9688 24 17.9976 20 17.9976Z" fill="#7823DC"/><path d="M17 26.1397 6 26.1397 6 15.9976 17 15.9976ZM8 24.1397 15 24.1397 15 17.9976 8 17.9976Z" fill="#7823DC"/><rect x="20" y="21.9688" width="2" height="2" fill="#7823DC"/><rect x="10.4822" y="19.8898" width="3.53553" height="1.99979" fill="#7823DC" transform="matrix(0.707107 -0.707107 0.707107 0.707107 -11.1833 14.7805)"/><path d="M26.7402 1.00367 5.25977 1.00367 0 9.19612 0 11.075C-0.009216 13.2749 1.76671 15.0658 3.96664 15.075 5.13116 15.0799 6.23951 14.5749 7 13.693 8.41666 15.3499 10.9082 15.5446 12.5651 14.1279 12.7212 13.9945 12.8666 13.8491 13 13.693 14.4167 15.3499 16.9082 15.5446 18.5651 14.1279 18.7212 13.9945 18.8666 13.8491 19 13.693 20.4167 15.3499 22.9082 15.5446 24.5651 14.1279 24.7212 13.9945 24.8666 13.8491 25 13.693 26.4367 15.3591 28.9519 15.545 30.618 14.1084 31.4999 13.3479 32.0049 12.2395 32 11.075L32 9.19612ZM6 11.075C6 12.1796 5.10457 13.075 4 13.075 2.89543 13.075 2 12.1796 2 11.075L2 10.489 6 10.489ZM6.32312 8.489 2.83012 8.489 6.35156 3.00367 8.52148 3.00367 7.42236 5.74635ZM12 11.075C12 12.1796 11.1046 13.075 10 13.075 8.89543 13.075 8 12.1796 8 11.075L8 10.489 12 10.489ZM12.3486 5.74639 12.0898 8.489 8.47852 8.489 9.57764 5.74635 10.6769 3.00367 12.6073 3.00367ZM14.3574 5.74639 14.6162 3.00371 17.3838 3.00371 17.6426 5.74639 17.9013 8.489 14.0988 8.489ZM18 11.075C18 12.1796 17.1046 13.075 16 13.075 14.8954 13.075 14 12.1796 14 11.075L14 10.489 18 10.489ZM19.6514 5.74639 19.3927 3.00367 21.3231 3.00367 22.4224 5.74635 23.5215 8.489 19.9102 8.489ZM24 11.075C24 12.1796 23.1046 13.075 22 13.075 20.8954 13.075 20 12.1796 20 11.075L20 10.489 24 10.489ZM24.5776 5.74639 23.4785 3.00367 25.6484 3.00367 29.1699 8.489 25.6769 8.489ZM30 11.075C30 12.1796 29.1046 13.075 28 13.075 26.8954 13.075 26 12.1796 26 11.075L26 10.489 30 10.489Z" fill="#7823DC"/></g></svg>