<svg viewBox="0 0 32 32" xmlns="http://www.w3.org/2000/svg" xmlns:xlink="http://www.w3.org/1999/xlink" overflow="hidden"><style>
.MsftOfcResponsive_Fill_7823dc {
 fill:#7823DC; 
}
</style>
<defs></defs><g id="Layer_3"><path d="M16.0401 0 0.08962 7.32 0.08962 32 32.0896 32 32.0896 7.32ZM30.0896 30 2.08962 30 2.08962 8.68 16.0401 2.16 30.0896 8.68Z" class="MsftOfcResponsive_Fill_7823dc" fill="#7823DC"/><rect x="14.0896" y="26" width="4" height="2" class="MsftOfcResponsive_Fill_7823dc" fill="#7823DC"/><path d="M6.08962 10 6.08962 30 8.08962 30 8.08962 24 24.0896 24 24.0896 30 26.0896 30 26.0896 10ZM24.0896 22 8.08962 22 8.08962 20 24.0896 20ZM24.0896 18 8.08962 18 8.08962 16 24.0896 16ZM24.0896 14 8.08962 14 8.08962 12 24.0896 12Z" class="MsftOfcResponsive_Fill_7823dc" fill="#7823DC"/></g></svg>