<svg viewBox="0 0 32 32" xmlns="http://www.w3.org/2000/svg" xmlns:xlink="http://www.w3.org/1999/xlink" id="a" overflow="hidden"><style>
.MsftOfcResponsive_Fill_7823dc {
 fill:#7823DC; 
}
</style>
<path d="M16 25.96C10.51 25.96 6.04 21.49 6.04 16 6.04 10.51 10.51 6.04 16 6.04 21.49 6.04 25.96 10.51 25.96 16 25.96 21.49 21.49 25.96 16 25.96ZM16 8.04C11.61 8.04 8.04 11.61 8.04 16 8.04 20.39 11.61 23.96 16 23.96 20.39 23.96 23.96 20.39 23.96 16 23.96 11.61 20.39 8.04 16 8.04Z" class="MsftOfcResponsive_Fill_7823dc" fill="#7823DC"/><path d="M16 2C23.72 2 30 8.28 30 16 30 23.72 23.72 30 16 30 8.28 30 2 23.72 2 16 2 8.28 8.28 2 16 2M16 0C7.16 0 0 7.16 0 16 0 24.84 7.16 32 16 32 24.84 32 32 24.84 32 16 32 7.16 24.84 0 16 0L16 0Z" class="MsftOfcResponsive_Fill_7823dc" fill="#7823DC"/><rect x="14.96" y="3.53" width="7.1" height="2" class="MsftOfcResponsive_Fill_7823dc" fill="#7823DC" transform="matrix(0.707107 -0.707107 0.707107 0.707107 2.22 14.42)"/><rect x="9.96" y="26.48" width="7.1" height="2" class="MsftOfcResponsive_Fill_7823dc" fill="#7823DC" transform="matrix(0.707107 -0.707107 0.707107 0.707107 -15.47 17.6)"/><rect x="3.51" y="9.96" width="2" height="7.1" class="MsftOfcResponsive_Fill_7823dc" fill="#7823DC" transform="matrix(0.707107 -0.707107 0.707107 0.707107 -8.23 7.15)"/><rect x="26.51" y="14.98" width="2" height="7.1" class="MsftOfcResponsive_Fill_7823dc" fill="#7823DC" transform="matrix(0.707107 -0.707107 0.707107 0.707107 -5.05 24.88)"/></svg>