<svg width="32" height="32" viewBox="0 0 32 32" xmlns="http://www.w3.org/2000/svg" xmlns:xlink="http://www.w3.org/1999/xlink" overflow="hidden"><style>
.MsftOfcResponsive_Fill_7823dc {
 fill:#7823DC; 
}
</style>
<defs></defs><g><path d="M32 10 21.38 10 18 0 16 0 20 12 28 12 22 19 25 28.49 16 24 7 28.49 10 19 4 12 12 12 16 0 14 0 10.62 10 0 10 8 19.5 4 32 16 26 28 32 24 19.5Z" class="MsftOfcResponsive_Fill_7823dc" fill="#7823DC"/></g><g><circle cx="16" cy="16.04" r="4" class="MsftOfcResponsive_Fill_7823dc" fill="#7823DC"/></g><g><g><path d="M20.3 23.59 11.7 23.59 6.15 17.3 6.55 15.17 12.3 21.59 19.7 21.59 25.45 15.17 25.85 17.3Z" class="MsftOfcResponsive_Fill_7823dc" fill="#7823DC"/></g></g><g><path d="M8.79 19.84 5.51 29.86 15.52 24.85 20.96 27.34 26.16 29.58 22.63 20.04 19.7 22.18 17.68 22.36 11.51 22.25Z" class="MsftOfcResponsive_Fill_7823dc" fill="#7823DC"/></g></svg>