<svg viewBox="0 0 32 32" xmlns="http://www.w3.org/2000/svg" xmlns:xlink="http://www.w3.org/1999/xlink" overflow="hidden"><defs></defs><g id="a"></g><g id="b"></g><g id="c"></g><g id="d"><g><path d="M29.85 17.94 32.22 17.94 28.87 11.94 3.14 11.94-0.21 17.94 2.15 17.94 2.48 19.94 0 19.94 0 21.94 2.82 21.94 4 29.02 4 31.94 6 31.94 6 29.94 26 29.94 26 31.94 28 31.94 28 29.02 29.18 21.94 32 21.94 32 19.94 29.51 19.94 29.84 17.94ZM27.7 13.94 28.82 15.94 24.26 15.94 23.44 13.94 27.7 13.94ZM21.28 13.94 22.1 15.94 17.04 15.94 17.04 13.94 21.28 13.94ZM15.04 13.94 15.04 15.94 9.98 15.94 10.8 13.94 15.04 13.94ZM8.64 13.94 7.82 15.94 3.2 15.94 4.31 13.94 8.62 13.94ZM27.17 21.94 26.17 27.94 5.85 27.94 4.85 21.94 4.52 19.94 4.19 17.94 27.82 17.94 27.49 19.94 27.16 21.94Z" fill="#7823DC"/><path d="M6.67 11.44C6.09 10.28 6.65 8.71 7.23 7.6 7.93 8.6 9.09 9.95 10.86 11.18L11.23 11.43 12.84 11.43 12.38 10.04C11.79 8.25 13.08 6.03 14.32 4.49 14.5 5.27 14.8 6.09 15.28 6.7 15.98 7.57 16.69 8.17 17.26 8.65 18.31 9.54 18.84 9.98 18.88 11.43L21.83 11.43C23.1 10.48 23.96 9.2 24.51 8.05 24.7 8.47 24.92 8.91 25.18 9.36 25.79 10.45 26.06 10.96 25.74 11.43L27.85 11.43C28.01 10.33 27.41 9.25 26.91 8.36 25.92 6.59 25.44 4.84 25.43 4.82L24.26 0.55 23.48 4.91C23.48 4.91 22.87 8.13 20.64 9.82 20.24 8.55 19.41 7.85 18.55 7.12 17.99 6.65 17.42 6.17 16.84 5.45 16.29 4.76 16.05 3.12 16.04 2.24L16 0.05 14.38 1.51C14.21 1.67 10.88 4.71 10.32 8.13 8.78 6.62 8.18 5.28 8.18 5.26L7.51 3.68 6.46 5.04C6.33 5.21 3.84 8.51 4.53 11.42L6.67 11.42Z" fill="#7823DC"/></g></g></svg>