<svg viewBox="0 0 32 32" xmlns="http://www.w3.org/2000/svg" xmlns:xlink="http://www.w3.org/1999/xlink" overflow="hidden"><style>
.MsftOfcResponsive_Fill_7823dc {
 fill:#7823DC; 
}
</style>
<defs></defs><g id="a"></g><g id="b"></g><g id="c"></g><g id="d"><path d="M16.08 32.08 15.39 31.42C15.29 31.33 5.82 22.28 3.22 19.64 1.13 17.3-0.06 14.23-0.06 11.16-0.06 9.37 0.2 7.96 0.77 6.6 2.47 2.72 6.05 0.31 10.1 0.31 11.77 0.31 13.14 0.59 14.29 1.18 14.85 1.46 15.42 1.75 15.94 2.13 16.43 1.78 16.91 1.48 17.5 1.18 18.91 0.57 20.15 0.31 21.69 0.31 25.74 0.31 29.32 2.72 31.02 6.6L31.02 6.6C31.62 8.04 31.82 9.41 32.03 11.05 32.24 14.21 31.05 17.33 28.76 19.65 26.36 22.27 17.17 31.05 16.78 31.43L16.09 32.09ZM10.1 2.31C6.85 2.31 3.98 4.26 2.6 7.4 2.14 8.48 1.94 9.65 1.94 11.17 1.94 13.75 2.94 16.34 4.68 18.28 6.82 20.45 13.85 27.18 16.08 29.32 18.31 27.18 25.3 20.46 27.3 18.27 29.21 16.33 30.2 13.78 30.03 11.24 29.85 9.81 29.67 8.58 29.17 7.4 27.79 4.26 24.92 2.32 21.68 2.32 20.41 2.32 19.44 2.52 18.34 3 17.68 3.34 17.15 3.7 16.49 4.21L15.79 4.74 15.17 4.11C14.73 3.66 14.07 3.33 13.38 2.98 12.51 2.54 11.44 2.33 10.09 2.33Z" class="e MsftOfcResponsive_Fill_7823dc" fill="#7823DC"/><path d="M16.04 25.22 15.35 24.56C15.14 24.36 10.24 19.68 8.85 18.27 7.64 16.92 6.97 15.17 6.97 13.42 6.97 12.39 7.12 11.59 7.45 10.81 8.44 8.56 10.5 7.17 12.86 7.17 13.83 7.17 14.63 7.34 15.31 7.68 15.52 7.79 15.75 7.9 15.97 8.04 16.16 7.92 16.36 7.8 16.6 7.68 17.44 7.31 18.15 7.17 19.05 7.17 21.4 7.17 23.47 8.56 24.45 10.8L24.45 10.8C24.79 11.63 24.91 12.42 25.02 13.3 25.14 15.15 24.46 16.94 23.14 18.27 21.86 19.67 16.95 24.36 16.74 24.56L16.05 25.22ZM12.85 9.17C11.31 9.17 9.94 10.1 9.28 11.6 9.06 12.12 8.97 12.67 8.97 13.42 8.97 14.68 9.46 15.95 10.31 16.9 11.35 17.95 14.61 21.08 16.04 22.45 17.47 21.08 20.71 17.96 21.68 16.89 22.62 15.94 23.09 14.71 23.01 13.49 22.92 12.77 22.83 12.17 22.59 11.6 21.93 10.1 20.57 9.17 19.02 9.17 18.4 9.17 17.96 9.26 17.43 9.49 17.17 9.62 16.93 9.78 16.54 10.08L15.84 10.61 15.22 9.99C15.03 9.8 14.72 9.64 14.38 9.47 13.99 9.27 13.47 9.17 12.84 9.17Z" class="e MsftOfcResponsive_Fill_7823dc" fill="#7823DC"/></g></svg>