<svg width="36.5" height="36.9" viewBox="0 0 36.5 36.9" xmlns="http://www.w3.org/2000/svg" xmlns:xlink="http://www.w3.org/1999/xlink" overflow="hidden"><style>
.MsftOfcResponsive_Fill_7823dc {
 fill:#7823DC; 
}
</style>
<defs></defs><g><g><defs><path d="M0 36.8 36.5 36.8 36.5 0.3 0 0.3 0 36.8Z" id="SVGID_1_" class="MsftOfcResponsive_Fill_7823dc" fill="#7823DC"/></defs><clipPath id="SVGID_2_"><use width="100%" height="100%" xlink:href="#SVGID_1_"></use></clipPath><g clip-path="url(#SVGID_2_)"><defs><path d="M0 36.8 36.5 36.8 36.5 0.3 0 0.3 0 36.8Z" id="SVGID_3_" class="MsftOfcResponsive_Fill_7823dc" fill="#7823DC"/></defs><clipPath id="SVGID_4_"><use width="100%" height="100%" xlink:href="#SVGID_3_"></use></clipPath><path d="M5.7 22 3.4 22 3.4 24.3 5.7 24.3 5.7 22 5.7 22 5.7 22Z" class="MsftOfcResponsive_Fill_7823dc" fill="#7823DC" clip-path="url(#SVGID_4_)"/><path d="M10.3 22 8 22 8 24.3 10.3 24.3 10.3 22 10.3 22 10.3 22Z" class="MsftOfcResponsive_Fill_7823dc" fill="#7823DC" clip-path="url(#SVGID_4_)"/><path d="M28.5 22 26.2 22 26.2 24.3 28.5 24.3 28.5 22 28.5 22 28.5 22Z" class="MsftOfcResponsive_Fill_7823dc" fill="#7823DC" clip-path="url(#SVGID_4_)"/><path d="M33.1 22 30.8 22 30.8 24.3 33.1 24.3 33.1 22 33.1 22 33.1 22Z" class="MsftOfcResponsive_Fill_7823dc" fill="#7823DC" clip-path="url(#SVGID_4_)"/><path d="M27.5 36.9 9 36.9 13.9 30.8 13.8 24.4 13.8 11.7C13.8 3.6 17.5 0.6 17.7 0.5L18.2 0 18.9 0.5C19.1 0.6 22.8 3.6 22.8 11.7L22.8 24.3 22.6 30.8 27.5 36.9ZM13.7 34.6 22.8 34.6 20.4 31.6 20.6 24.3 20.6 11.7C20.6 7 19.2 4.3 18.3 3.1 17.4 4.3 16 7 16 11.7L16 24.3 16.2 31.5 13.7 34.6Z" class="MsftOfcResponsive_Fill_7823dc" fill="#7823DC" clip-path="url(#SVGID_4_)"/><path d="M15.9 22 0 22 0 16.2 15.9 13.6 15.9 22ZM2.3 19.7 13.7 19.7 13.7 16.3 2.3 18.2 2.3 19.7Z" class="MsftOfcResponsive_Fill_7823dc" fill="#7823DC" clip-path="url(#SVGID_4_)"/><path d="M36.5 22 20.5 22 20.5 13.6 36.4 16.2 36.4 22ZM22.8 19.7 34.2 19.7 34.2 18.2 22.8 16.4 22.8 19.7Z" class="MsftOfcResponsive_Fill_7823dc" fill="#7823DC" clip-path="url(#SVGID_4_)"/></g></g></g></svg>