<svg viewBox="0 0 32 32" xmlns="http://www.w3.org/2000/svg" xmlns:xlink="http://www.w3.org/1999/xlink" overflow="hidden"><style>
.MsftOfcResponsive_Fill_7823dc {
 fill:#7823DC; 
}
</style>
<defs></defs><g id="Layer_3"><path d="M16.0896 0 0.13915 7.32 0.13915 32 32.1391 32 32.1391 7.32ZM30.1392 30 2.13915 30 2.13915 8.68 16.0896 2.16 30.1392 8.68Z" class="MsftOfcResponsive_Fill_7823dc" fill="#7823DC"/><path d="M21.6392 17 21.6392 8 10.6391 8 10.6391 17 6.13915 17 6.13915 28 26.1392 28 26.1392 17ZM12.6391 10 14.6391 10 14.6391 12 17.6392 12 17.6392 10 19.6392 10 19.6392 17 12.6391 17ZM15.1391 26 8.13915 26 8.13915 19 10.1391 19 10.1391 21 13.1391 21 13.1391 19 15.1391 19ZM24.1392 26 17.1392 26 17.1392 19 19.1392 19 19.1392 21 22.1392 21 22.1392 19 24.1392 19Z" class="MsftOfcResponsive_Fill_7823dc" fill="#7823DC"/></g></svg>