<svg width="32" height="32" viewBox="0 0 32 32" xmlns="http://www.w3.org/2000/svg" xmlns:xlink="http://www.w3.org/1999/xlink" overflow="hidden"><defs></defs><g><path d="M22.82 14 19.99 14 16 17.99 22.41 24.33 25.24 24.33 18.83 18Z" fill="#7823DC"/></g><g><g><path d="M19.12 2 17.08 2 17.08 4.07 19.12 4.07 19.12 2Z" fill="#7823DC"/></g></g><g><g><path d="M20.1 0 16.1 0 16.1 2.04 20.1 2.04 20.1 0Z" fill="#7823DC"/></g></g><g><path d="M18.01 4.01C18 4.01 18 4.01 18.01 4.01L18 6C18 6 18 6 18 6 24.61 6 30 11.39 30 18.01 30 24.63 24.62 30 18.01 30 18.01 30 18.01 30 18 30L18 32C18 32 18 32 18.01 32 25.74 32 32 25.74 32 18.01 32 10.28 25.74 4.01 18.01 4.01Z" fill="#7823DC"/></g><g><g><path d="M18 6 2 6 0 4 18 4Z" fill="#7823DC"/></g></g><g><g><path d="M14 10 4 10 2 8 14 8Z" fill="#7823DC"/></g></g><g><g><path d="M14 14 6 14 4 12 14 12Z" fill="#7823DC"/></g></g><g><g><path d="M14 18 8 18 6 16 14 16Z" fill="#7823DC"/></g></g><g><g><path d="M14 22 10 22 8 20 14 20Z" fill="#7823DC"/></g></g><g><g><path d="M14 26 12 26 10 24 14 24Z" fill="#7823DC"/></g></g><g><path d="M14 30 12 28 14 28Z" fill="#7823DC"/></g><g><path d="M18 32 16 32 14 30 18 30Z" fill="#7823DC"/></g></svg>