<svg viewBox="0 0 25 31.9" xmlns="http://www.w3.org/2000/svg" xmlns:xlink="http://www.w3.org/1999/xlink" id="Layer_1" overflow="hidden"><style>
.MsftOfcResponsive_Fill_7823dc {
 fill:#7823DC; 
}
</style>
<defs></defs><path d="M19.73 31.9 5.27 31.9 5 31.7C1.87 29.35 0 25.61 0 21.7 0 14.81 5.61 9.2 12.5 9.2 19.39 9.2 25 14.81 25 21.7 25 25.61 23.13 29.35 20 31.7L19.73 31.9ZM5.94 29.9 19.06 29.9C21.53 27.92 23 24.88 23 21.7 23 15.91 18.29 11.2 12.5 11.2 6.71 11.2 2 15.91 2 21.7 2 24.88 3.47 27.92 5.94 29.9Z" class="MsftOfcResponsive_Fill_7823dc" fill="#7823DC"/><path d="M21.55 13.54 19.55 13.54 19.55 9.05C19.55 5.16 16.39 2 12.5 2 8.61 2 5.45 5.16 5.45 9.05L5.45 13.54 3.45 13.54 3.45 9.05C3.45 4.06 7.51 0 12.5 0 17.49 0 21.55 4.06 21.55 9.05L21.55 13.54Z" class="MsftOfcResponsive_Fill_7823dc" fill="#7823DC"/><path d="M18.1 19.92C17.71 18.66 16.82 17.46 15.76 16.79L16.83 15.1C18.29 16.03 19.48 17.61 20.01 19.33L18.1 19.92Z" class="MsftOfcResponsive_Fill_7823dc" fill="#7823DC"/></svg>