<svg viewBox="0 0 32 32" xmlns="http://www.w3.org/2000/svg" xmlns:xlink="http://www.w3.org/1999/xlink" id="Graphic" overflow="hidden"><style>
.MsftOfcResponsive_Fill_7823dc {
 fill:#7823DC; 
}
</style>
<defs></defs><path d="M16.0062 6.00406C21.522 6.01029 25.9919 10.4801 25.9982 15.9959L27.9982 15.9959C27.9911 9.36903 22.6132 4.00259 15.9863 4.00965 9.36779 4.01671 4.00482 9.38149 4 16L6 16C6.01266 10.4806 10.4869 6.01104 16.0062 6.00406Z" class="MsftOfcResponsive_Fill_7823dc" fill="#7823DC"/><rect x="0.008" y="0" width="31.9918" height="1.98837" class="MsftOfcResponsive_Fill_7823dc" fill="#7823DC"/><rect x="-14.7762" y="15.2238" width="31.5523" height="2" class="MsftOfcResponsive_Fill_7823dc" fill="#7823DC" transform="matrix(6.12323e-17 1 -1 6.12323e-17 17.2238 15.2238)"/><rect x="15.2219" y="15.2296" width="31.5523" height="1.98837" class="MsftOfcResponsive_Fill_7823dc" fill="#7823DC" transform="matrix(6.12323e-17 1 -1 6.12323e-17 47.2219 -14.7742)"/><rect x="0" y="15.9959" width="6" height="16.0041" class="MsftOfcResponsive_Fill_7823dc" fill="#7823DC"/><rect x="26" y="16" width="6.00818" height="16" class="MsftOfcResponsive_Fill_7823dc" fill="#7823DC"/><rect x="15.0786" y="5.13453" width="2" height="26.8655" class="MsftOfcResponsive_Fill_7823dc" fill="#7823DC"/><circle cx="12.0381" cy="22.8989" r="1.09302" class="MsftOfcResponsive_Fill_7823dc" fill="#7823DC"/><circle cx="20.0082" cy="22.8989" r="1.09302" class="MsftOfcResponsive_Fill_7823dc" fill="#7823DC"/></svg>