<svg viewBox="0 0 31.94 31.94" xmlns="http://www.w3.org/2000/svg" xmlns:xlink="http://www.w3.org/1999/xlink" id="Layer_1" overflow="hidden"><style>
.MsftOfcResponsive_Fill_7823dc {
 fill:#7823DC; 
}
</style>
<defs></defs><path d="M15.97 0C7.16 0 0 7.16 0 15.97 0 24.78 7.16 31.94 15.97 31.94 24.78 31.94 31.94 24.78 31.94 15.97 31.94 7.16 24.77 0 15.97 0ZM15.97 1.94C16.28 1.94 16.57 1.97 16.87 1.99 16.83 2.32 16.78 2.64 16.72 2.97L15.31 2.46 14.65 4.28 16.18 4.84C15.98 5.41 15.75 5.97 15.48 6.52L13.81 5.52 12.82 7.18 14.55 8.22C14.24 8.72 13.9 9.2 13.53 9.68L11.92 8.31 10.66 9.78 12.28 11.16C12.11 11.35 11.94 11.54 11.76 11.73 11.52 11.96 11.28 12.18 11.04 12.4L9.66 10.78 8.19 12.04 9.55 13.64C9.07 14 8.58 14.33 8.08 14.64L7.06 12.93 5.4 13.92 6.37 15.55C5.8 15.82 5.24 16.05 4.66 16.25L4.1 14.71 2.28 15.37 2.78 16.75C2.51 16.8 2.23 16.85 1.96 16.88 1.94 16.58 1.91 16.28 1.91 15.98 1.94 8.23 8.23 1.94 15.97 1.94ZM2.22 18.79C2.64 18.74 3.05 18.67 3.47 18.58L4.44 21.25 6.26 20.59 5.34 18.05C6.03 17.81 6.71 17.53 7.39 17.21L8.64 19.3 10.3 18.31 9.09 16.29C9.68 15.93 10.25 15.53 10.82 15.1L12.27 16.8 13.74 15.54 12.31 13.86C12.59 13.61 12.88 13.36 13.15 13.08 13.37 12.86 13.57 12.63 13.77 12.4L15.45 13.83 16.71 12.36 15.02 10.92C15.45 10.36 15.86 9.79 16.23 9.2L18.22 10.39 19.21 8.73 17.17 7.51C17.5 6.84 17.78 6.17 18.02 5.49L20.56 6.41 21.22 4.59 18.56 3.63C18.67 3.16 18.75 2.7 18.81 2.23 24.29 3.35 28.62 7.69 29.74 13.18 29.28 13.24 28.82 13.32 28.36 13.42L27.4 10.76 25.58 11.42 26.5 13.97C25.82 14.21 25.14 14.49 24.48 14.82L23.26 12.78 21.6 13.77 22.79 15.76C22.2 16.12 21.63 16.53 21.07 16.97L19.63 15.28 18.16 16.54 19.59 18.22C19.36 18.43 19.13 18.63 18.9 18.85 18.63 19.12 18.38 19.4 18.13 19.68L16.45 18.25 15.19 19.72 16.89 21.17C16.46 21.74 16.06 22.31 15.7 22.9L13.68 21.69 12.69 23.35 14.78 24.6C14.45 25.27 14.17 25.96 13.94 26.65L11.4 25.73 10.74 27.55 13.41 28.52C13.32 28.93 13.26 29.34 13.21 29.75 7.72 28.64 3.38 24.31 2.26 18.82ZM15.97 30C15.67 30 15.38 29.97 15.09 29.96 15.12 29.69 15.17 29.43 15.22 29.16L16.6 29.66 17.26 27.84 15.72 27.28C15.91 26.71 16.15 26.14 16.42 25.57L18.05 26.54 19.04 24.88 17.33 23.86C17.64 23.36 17.97 22.87 18.33 22.39L19.93 23.75 21.19 22.28 19.57 20.9C19.79 20.66 20 20.42 20.23 20.18 20.42 19.99 20.61 19.83 20.81 19.65L22.19 21.27 23.66 20.01 22.29 18.4C22.77 18.04 23.25 17.69 23.75 17.38L24.78 19.11 26.44 18.12 25.44 16.45C26 16.18 26.56 15.95 27.12 15.75L27.68 17.28 29.5 16.62 28.99 15.21C29.31 15.14 29.63 15.1 29.95 15.06 29.97 15.35 29.99 15.64 29.99 15.94 29.99 23.68 23.7 29.97 15.96 29.97Z" class="MsftOfcResponsive_Fill_7823dc" fill="#7823DC"/></svg>