<svg viewBox="0 0 32 32" xmlns="http://www.w3.org/2000/svg" xmlns:xlink="http://www.w3.org/1999/xlink" overflow="hidden"><defs></defs><g id="Layer_3"><path d="M16 32.0713C9.92487 32.0713 5 27.1464 5 21.0713 5 14.9962 9.92487 10.0713 16 10.0713 22.0751 10.0713 27 14.9962 27 21.0713 26.9931 27.1436 22.0723 32.0644 16 32.0713ZM16 12.0713C11.0294 12.0713 7 16.1007 7 21.0713 7 26.0419 11.0294 30.0713 16 30.0713 20.9706 30.0713 25 26.0419 25 21.0713 24.9944 16.103 20.9682 12.0769 16 12.0713Z" fill="#7823DC"/><path d="M16.9949 16.0814 14.9949 16.0814 14.9949 16.9914C13.692 17.0641 12.6642 18.1267 12.6349 19.4314 12.6349 20.8813 13.3549 21.5914 15.0149 21.9214L15.0149 23.4314C14.7275 23.2247 14.5535 22.8953 14.5449 22.5414L12.4349 22.5413C12.4651 23.9526 13.5848 25.0985 14.9949 25.1614L14.9949 26.0613 16.9949 26.0613 16.9949 25.1714C18.4198 25.1659 19.5705 24.0064 19.5651 22.5816L19.5649 22.5613C19.5649 21.0114 18.5649 20.4014 16.9949 20.1313L16.9949 18.6614C17.2368 18.8239 17.3886 19.0904 17.4049 19.3813L19.4549 19.3813C19.402 18.0552 18.322 17.0015 16.9949 16.9813ZM14.9949 19.8214C14.7596 19.7292 14.6131 19.4931 14.6349 19.2414 14.6375 19.004 14.7673 18.7864 14.9749 18.6714L14.9749 19.8214ZM16.9949 23.5313 16.9949 22.2113C17.281 22.2703 17.4808 22.5297 17.4649 22.8214 17.4737 23.1335 17.2857 23.4176 16.9949 23.5314Z" fill="#7823DC"/><path d="M3.989 24.018 1.989 24.018 1.989 26.018 3.989 24.018Z" fill="#7823DC"/><path d="M3.002 6-0.002 9.003-0.002 11.831 2.002 9.828 2.001 22 4.001 22 4.002 9.828 6.002 11.827 6.002 8.999 3.002 6Z" fill="#7823DC"/><path d="M9.002 0 5.998 3.003 5.998 5.831 8.002 3.828 8.001 14 10.001 14 10.002 3.828 12.002 5.827 12.002 2.999 9.002 0Z" fill="#7823DC"/><path d="M16.002 4 12.998 7.003 12.998 9.831 15.002 7.828 15.001 11 17.001 11 17.002 7.828 19.002 9.827 19.002 6.999 16.002 4Z" fill="#7823DC"/><path d="M28.011 24.018 30.011 24.018 30.011 26.018 28.011 24.018Z" fill="#7823DC"/><path d="M28.998 6 32.002 9.003 32.002 11.831 29.998 9.828 29.999 22 27.999 22 27.998 9.828 25.998 11.827 25.998 8.999 28.998 6Z" fill="#7823DC"/><path d="M22.998 0 26.002 3.003 26.002 5.831 23.998 3.828 23.999 14 21.999 14 21.998 3.828 19.998 5.827 19.998 2.999 22.998 0Z" fill="#7823DC"/></g></svg>