<svg viewBox="0 0 32 32" xmlns="http://www.w3.org/2000/svg" xmlns:xlink="http://www.w3.org/1999/xlink" id="Layer_1" xml:space="preserve" overflow="hidden"><g><path d="M15.3 26.2 7.9 16.4 28.9 0.7 32 4.7 30.2 6 31.1 7.3 27.6 10 28.4 11.1 24.9 13.8 25.7 14.9 22.2 17.6 23 18.7 19.5 21.4 20.4 22.6 15.3 26.2ZM10.7 16.7 15.7 23.3 17.5 21.9 16.6 20.7 20.1 18 19.4 17 22.9 14.3 22.1 13.2 25.6 10.5 24.8 9.4 28.3 6.7 27.3 5.4 29.1 4.1 28.4 3.2 10.7 16.7Z" fill="#7823DC"/><path d="M7.5 32 0.1 22.2 9.5 15.1 16.8 25 7.5 32ZM2.9 22.6 7.9 29.2 14.1 24.6 9.1 17.9 2.9 22.6Z" fill="#7823DC"/><path d="" stroke="#7823DC" stroke-width="2" stroke-miterlimit="10" fill="none"/></g><rect x="7.4" y="20.8" width="2" height="5.3" fill="#7823DC" transform="matrix(0.8098 -0.5868 0.5868 0.8098 -12.1699 9.3916)"/><rect x="-14.2" y="-8.9" width="0.1" height="2" fill="#7823DC" transform="matrix(0.9479 -0.3184 0.3184 0.9479 1.7912 -4.9176)"/></svg>