<svg viewBox="0 0 32 32" xmlns="http://www.w3.org/2000/svg" xmlns:xlink="http://www.w3.org/1999/xlink" overflow="hidden"><defs></defs><g id="Layer_3"><path d="M10.0879 15.6143C9.17532 15.6143 8.43554 14.8745 8.43553 13.9619 8.43552 13.0494 9.1753 12.3096 10.0879 12.3096 11.0004 12.3096 11.7402 13.0493 11.7402 13.9619 11.7393 14.8741 11.0001 15.6133 10.0879 15.6143ZM10.0879 13.6143C9.89588 13.6148 9.74067 13.7709 9.7412 13.9629 9.74174 14.1549 9.89782 14.3101 10.0898 14.3096 10.2815 14.309 10.4365 14.1535 10.4365 13.9619 10.4361 13.7697 10.2801 13.6141 10.0879 13.6143Z" fill="#7823DC"/><path d="M22.0879 15.6143C21.1753 15.6143 20.4355 14.8745 20.4355 13.9619 20.4355 13.0494 21.1753 12.3096 22.0879 12.3096 23.0004 12.3096 23.7402 13.0493 23.7402 13.9619 23.7393 14.8741 23.0001 15.6133 22.0879 15.6143ZM22.0879 13.6143C21.8959 13.6148 21.7407 13.7709 21.7412 13.9629 21.7417 14.1549 21.8978 14.3101 22.0898 14.3096 22.2815 14.309 22.4365 14.1535 22.4365 13.9619 22.4361 13.7697 22.2801 13.6141 22.0879 13.6143Z" fill="#7823DC"/><path d="M15.998 30.9619C9.65527 30.9619 2.24805 27.9502 2.24805 19.4619 2.30934 17.9862 2.61866 16.5312 3.16305 15.1582L3.20113 15.043C2.57677 14.8922 1.97634 14.6556 1.417 14.3398 0.581991 13.9615 0.0325965 13.1436-0.00194006 12.2275-0.0174063 11.2794 0.505431 10.4044 1.34766 9.96875 1.94599 8.9885 2.2579 7.8603 2.24805 6.71191 2.24805 4.42773 4.35059 1.96191 7.74805 1.96191 8.81584 2.04572 9.85177 2.36523 10.7812 2.89746 11.1848 3.10617 11.6077 3.27525 12.044 3.40234 14.6 2.48177 17.3971 2.48177 19.9531 3.40234 20.3892 3.27518 20.8117 3.10576 21.2148 2.89648 22.1448 2.36547 23.1805 2.04635 24.2481 1.96191 27.6455 1.96191 29.7481 4.42773 29.7481 6.71191 29.7407 7.86696 30.0563 9.00107 30.6592 9.98633 31.4976 10.4226 32.0175 11.2952 32.002 12.2402 31.9673 13.1566 31.4175 13.9746 30.582 14.3525 30.0228 14.6673 29.4218 14.9011 28.7969 15.0469 28.8086 15.083 28.8203 15.1182 28.832 15.1533 29.3807 16.5268 29.6905 17.984 29.748 19.4619 29.7481 27.9502 22.3408 30.9619 15.998 30.9619ZM7.74805 3.96191C5.58594 3.96191 4.24805 5.38965 4.24805 6.71191 4.24805 9.29004 3.00391 11.3506 2.49414 11.625 2.06445 11.834 1.99805 11.9775 1.99805 12.2275 1.99805 12.2412 2.00977 12.3721 2.41992 12.6094 3.0907 12.9738 3.83074 13.1927 4.5918 13.252 5.14261 13.2979 5.55191 13.7817 5.50598 14.3325 5.49988 14.4056 5.48576 14.4779 5.46387 14.5479 5.3252 14.9903 5.18945 15.4004 5.06152 15.7872 4.58758 16.9582 4.31263 18.2003 4.24805 19.462 4.24805 26.4737 10.5781 28.962 15.998 28.962 21.418 28.962 27.7481 26.4737 27.7481 19.462 27.6835 18.1989 27.4083 16.9555 26.9336 15.7832 26.8057 15.3975 26.6709 14.9893 26.5322 14.5479 26.3673 14.0203 26.6613 13.459 27.1889 13.2941 27.2589 13.2722 27.3312 13.2581 27.4043 13.252 28.1655 13.1977 28.9067 12.983 29.5791 12.6221 29.9902 12.3838 30.0019 12.254 30.0019 12.2403 30.0019 11.9903 29.9356 11.8467 29.5439 11.6573L29.5439 11.6563C29.0078 11.3789 27.7481 9.35745 27.7481 6.71194 27.7481 5.38968 26.4102 3.96194 24.2481 3.96194 23.4949 4.06069 22.7686 4.30657 22.1104 4.68558 21.459 5.03329 20.7607 5.28461 20.0371 5.43167 19.8497 5.46213 19.6576 5.43947 19.4824 5.36624 17.2414 4.49384 14.7547 4.49384 12.5137 5.36624 12.3395 5.43915 12.1482 5.46148 11.9619 5.43069 11.2373 5.2845 10.5379 5.03349 9.88574 4.68558 9.22757 4.30641 8.5012 4.06052 7.74805 3.96191Z" fill="#7823DC"/><path d="M15.998 26.4619C12.5518 26.4619 9.74805 23.9941 9.74805 20.9619 9.74805 17.9297 12.5518 15.4619 15.998 15.4619 19.4443 15.4619 22.2481 17.9297 22.2481 20.9619 22.2481 23.9941 19.4443 26.4619 15.998 26.4619ZM15.998 17.4619C13.6543 17.4619 11.748 19.0322 11.748 20.9619 11.748 22.8916 13.6543 24.4619 15.998 24.4619 18.3418 24.4619 20.2481 22.8916 20.2481 20.9619 20.2481 19.0322 18.3418 17.4619 15.998 17.4619Z" fill="#7823DC"/><circle cx="13.998" cy="20.9617" r="1" fill="#7823DC"/><circle cx="17.998" cy="20.9617" r="1" fill="#7823DC"/><path d="M4.50879 15.249C3.95651 15.2485 3.50921 14.8003 3.50973 14.2481 3.50991 14.0534 3.56693 13.8629 3.67379 13.7002L6.16211 9.91309C6.46522 9.45141 7.0852 9.32286 7.54688 9.62597 8.00856 9.92908 8.13711 10.5491 7.834 11.0107L5.3457 14.7978C5.16077 15.0799 4.84603 15.2495 4.50879 15.249Z" fill="#7823DC"/><path d="M27.4873 15.249C27.1501 15.2495 26.8353 15.0799 26.6504 14.7978L24.1621 11.0107C23.859 10.549 23.9876 9.92906 24.4492 9.62596 24.9109 9.32286 25.5309 9.45141 25.834 9.91309L28.3223 13.7002C28.6254 14.1619 28.4968 14.7819 28.0352 15.085 27.8724 15.1918 27.682 15.2488 27.4873 15.249Z" fill="#7823DC"/></g></svg>