<svg viewBox="0 0 32 32" xmlns="http://www.w3.org/2000/svg" xmlns:xlink="http://www.w3.org/1999/xlink" id="Layer_2_1_" xml:space="preserve" overflow="hidden"><style>
.MsftOfcResponsive_Fill_7823dc {
 fill:#7823DC; 
}
</style>
<path d="M32 29.4 32 32 20.4 22.8 21.6 21.2Z" class="st0 MsftOfcResponsive_Fill_7823dc" fill="#7823DC"/><g><g><path d="M12.9 2C18.9 2 23.8 6.9 23.8 12.9 23.8 18.9 18.9 23.8 12.9 23.8 6.9 23.8 2 18.9 2 12.9 2 6.9 6.9 2 12.9 2M12.9 0C5.8 0 0 5.8 0 12.9 0 20 5.8 25.8 12.9 25.8 20 25.8 25.8 20 25.8 12.9 25.8 5.8 20 0 12.9 0L12.9 0 12.9 0 12.9 0Z" class="st1 MsftOfcResponsive_Fill_7823dc" fill="#7823DC" fill-rule="evenodd" clip-rule="evenodd"/></g><g><path d="M12.8 6.8C16.2 6.8 18.9 9.5 18.9 12.9 18.9 16.3 16.2 19 12.8 19 9.4 19 6.7 16.3 6.7 12.9 6.7 9.5 9.4 6.8 12.8 6.8M12.8 4.8C8.3 4.8 4.7 8.4 4.7 12.9 4.7 17.4 8.3 21 12.8 21 17.3 21 20.9 17.4 20.9 12.9 20.9 8.4 17.3 4.8 12.8 4.8L12.8 4.8 12.8 4.8 12.8 4.8Z" class="st2 MsftOfcResponsive_Fill_7823dc" fill="#7823DC" fill-rule="evenodd" clip-rule="evenodd"/><path d="M5.9 12.5 5.8 10.8 8.2 10.7 10 8.3 11 8.3 11.2 5.8 12.8 5.9 12.5 9.9 10.7 10 9.1 12.4 5.9 12.5 5.9 12.5Z" class="st2 MsftOfcResponsive_Fill_7823dc" fill="#7823DC" fill-rule="evenodd" clip-rule="evenodd"/><path d="M5.7 12.7 5.6 10.8 8.1 10.6 9.9 8.2 10.9 8.2 11.1 5.7 13 5.9 12.6 10.1 10.8 10.1 9 12.5 8.9 12.5 5.7 12.7 5.7 12.7 5.7 12.7ZM5.8 10.9 5.9 12.3 8.9 12.1 10.7 9.7 12.4 9.6 12.7 5.9 11.3 5.9 11.1 8.4 10 8.4 8.2 10.8 5.8 10.9 5.8 10.9 5.8 10.9Z" class="st2 MsftOfcResponsive_Fill_7823dc" fill="#7823DC" fill-rule="evenodd" clip-rule="evenodd"/><path d="M10.5 20 9.5 18.6 11.5 17.3 12.3 12.2 15.5 12.1 17.5 12.5 19.6 10.7 20.7 11.9 18 14.2 15.3 13.8 13.7 13.9 13.1 18.3 10.5 20 10.5 20Z" class="st2 MsftOfcResponsive_Fill_7823dc" fill="#7823DC" fill-rule="evenodd" clip-rule="evenodd"/><path d="M10.5 20.2 9.3 18.6 11.4 17.2 12.2 12.1 15.5 12 17.5 12.3 19.7 10.5 21 12 18.2 14.4 15.3 13.9 13.8 14 13.2 18.3 10.5 20.2 10.5 20.2 10.5 20.2ZM9.7 18.6 10.6 19.8 13.1 18.1 13.7 13.7 15.4 13.6 18.1 14 20.7 11.8 19.6 10.9 17.5 12.6 15.4 12.3 12.3 12.4 11.5 17.4 11.5 17.4 9.7 18.6 9.7 18.6 9.7 18.6Z" class="st2 MsftOfcResponsive_Fill_7823dc" fill="#7823DC" fill-rule="evenodd" clip-rule="evenodd"/></g></g></svg>