<svg viewBox="0 0 32 32.25" xmlns="http://www.w3.org/2000/svg" xmlns:xlink="http://www.w3.org/1999/xlink" id="Layer_1" overflow="hidden"><style>
.MsftOfcResponsive_Fill_7823dc {
 fill:#7823DC; 
}
</style>
<defs></defs><path d="M32 2 32 0 5.04 0C5.04 0 5.01 0 5 0 2.32 0 0.13 2.13 0.02 4.79L0 4.79 0 32 2 32 2 8.97C2.58 9.41 3.26 9.74 4 9.9L4 32.01 6 32.01 6 8 5 8C3.35 8 2 6.65 2 5 2 3.35 3.35 2 5 2L5 2C5 2 5.04 2 5.04 2 6.67 2.02 8 3.35 8 4.99L8 6 32 6 32 4 9.9 4C9.75 3.26 9.42 2.58 8.98 2L32 2Z" class="MsftOfcResponsive_Fill_7823dc" fill="#7823DC"/><path d="M26.25 13C26.25 11.21 24.79 9.75 23 9.75 21.21 9.75 19.75 11.21 19.75 13 19.75 14.79 21.21 16.25 23 16.25 24.79 16.25 26.25 14.79 26.25 13ZM23 14.25C22.31 14.25 21.75 13.69 21.75 13 21.75 12.31 22.31 11.75 23 11.75 23.69 11.75 24.25 12.31 24.25 13 24.25 13.69 23.69 14.25 23 14.25Z" class="MsftOfcResponsive_Fill_7823dc" fill="#7823DC"/><path d="M17 17.75C15.21 17.75 13.75 19.21 13.75 21 13.75 22.79 15.21 24.25 17 24.25 18.79 24.25 20.25 22.79 20.25 21 20.25 19.21 18.79 17.75 17 17.75ZM17 22.25C16.31 22.25 15.75 21.69 15.75 21 15.75 20.31 16.31 19.75 17 19.75 17.69 19.75 18.25 20.31 18.25 21 18.25 21.69 17.69 22.25 17 22.25Z" class="MsftOfcResponsive_Fill_7823dc" fill="#7823DC"/><path d="M27 25.75C25.21 25.75 23.75 27.21 23.75 29 23.75 30.79 25.21 32.25 27 32.25 28.79 32.25 30.25 30.79 30.25 29 30.25 27.21 28.79 25.75 27 25.75ZM27 30.25C26.31 30.25 25.75 29.69 25.75 29 25.75 28.31 26.31 27.75 27 27.75 27.69 27.75 28.25 28.31 28.25 29 28.25 29.69 27.69 30.25 27 30.25Z" class="MsftOfcResponsive_Fill_7823dc" fill="#7823DC"/></svg>