<svg viewBox="0 0 32 32" xmlns="http://www.w3.org/2000/svg" xmlns:xlink="http://www.w3.org/1999/xlink" id="Layer_1" overflow="hidden"><style>
.MsftOfcResponsive_Fill_7823dc {
 fill:#7823DC; 
}
</style>
<defs></defs><path d="M16 2.65C19.2 5.18 23.08 6.55 27.08 6.55 28.09 6.55 29.06 6.44 29.95 6.27 29.3 21.05 22.99 26.45 16.01 29.79 9.02 26.46 2.71 21.05 2.06 6.27 2.95 6.44 3.91 6.55 4.93 6.55 8.93 6.55 12.8 5.17 16.01 2.65M16.01 0C13.06 2.83 9.12 4.55 4.93 4.55 3.21 4.55 1.61 4.18 0.01 3.69 0.01 20.92 6.78 27.81 16.01 32 25.24 27.82 32.01 20.92 32.01 3.69 30.41 4.18 28.81 4.55 27.09 4.55 22.91 4.55 18.97 2.83 16.01 1.77636e-15L16.01 1.77636e-15Z" class="MsftOfcResponsive_Fill_7823dc" fill="#7823DC"/><path d="M16 9.38C17.61 9.38 18.92 10.69 18.92 12.3 18.92 13.91 17.61 15.22 16 15.22 14.39 15.22 13.08 13.91 13.08 12.3 13.08 10.69 14.39 9.38 16 9.38M16 7.38C13.28 7.38 11.08 9.58 11.08 12.3 11.08 15.02 13.28 17.22 16 17.22 18.72 17.22 20.92 15.02 20.92 12.3 20.92 9.58 18.72 7.38 16 7.38L16 7.38Z" class="MsftOfcResponsive_Fill_7823dc" fill="#7823DC"/><path d="M24.7 25.67C22.59 23.09 19.42 21.61 16 21.61 12.58 21.61 9.41 23.09 7.3 25.67L5.75 24.4C8.25 21.35 11.98 19.6 16 19.6 20.02 19.6 23.76 21.35 26.25 24.4L24.7 25.67Z" class="MsftOfcResponsive_Fill_7823dc" fill="#7823DC"/></svg>