<svg viewBox="0 0 32 32" xmlns="http://www.w3.org/2000/svg" xmlns:xlink="http://www.w3.org/1999/xlink" id="Layer_1" overflow="hidden"><style>
.MsftOfcResponsive_Fill_7823dc {
 fill:#7823DC; 
}
</style>
<path d="M32 9.2 7.5 9.2 7.5 0 32 0 32 9.2ZM9.5 7.2 30 7.2 30 2 9.5 2 9.5 7.2Z" class="MsftOfcResponsive_Fill_7823dc" fill="#7823DC"/><path d="M24.5 16.4 15 16.4 15 0 24.5 0 24.5 16.4ZM17 14.4 22.5 14.4 22.5 2 17 2 17 14.4Z" class="MsftOfcResponsive_Fill_7823dc" fill="#7823DC"/><path d="M9.5 32 0 32 0 22.8 9.5 22.8 9.5 32ZM2 30 7.5 30 7.5 24.8 2 24.8 2 30Z" class="MsftOfcResponsive_Fill_7823dc" fill="#7823DC"/><path d="M9.5 24.8 0 24.8 0 15.6 9.5 15.6 9.5 24.8ZM2 22.8 7.5 22.8 7.5 17.6 2 17.6 2 22.8Z" class="MsftOfcResponsive_Fill_7823dc" fill="#7823DC"/><path d="M17 32 7.5 32 7.5 22.8 17 22.8 17 32ZM9.5 30 15 30 15 24.8 9.5 24.8 9.5 30Z" class="MsftOfcResponsive_Fill_7823dc" fill="#7823DC"/><path d="M24.5 32 15 32 15 22.8 24.5 22.8 24.5 32ZM17 30 22.5 30 22.5 24.8 17 24.8 17 30Z" class="MsftOfcResponsive_Fill_7823dc" fill="#7823DC"/><path d="M32 32 22.5 32 22.5 22.8 32 22.8 32 32ZM24.5 30 30 30 30 24.8 24.5 24.8 24.5 30Z" class="MsftOfcResponsive_Fill_7823dc" fill="#7823DC"/></svg>