<svg viewBox="0 0 28.78 32.05" xmlns="http://www.w3.org/2000/svg" xmlns:xlink="http://www.w3.org/1999/xlink" id="Layer_1" overflow="hidden"><style>
.MsftOfcResponsive_Fill_7823dc {
 fill:#7823DC; 
}
</style>
<defs></defs><path d="M16.07 32.05C24.34 31.33 30.21 22.8 28.46 14.79L28.46 14.79C27.61 11.09 25.36 7.85 22.18 5.75 21.94 6.23 21.42 7.22 21.17 7.69 18.92 4.22 15.8 1 11.67-4.44089e-15 11.98 3.64 12.07 7.87 8.93 10.38 7.72 9.1 6.79 7.58 6.22 5.91-4.63 13.05-0.52 30.77 12.52 32.04M7.38 27.69C6.39 26.97 5.33 26.29 4.59 25.32L4.59 25.32C0.86 20.43 1.29 13.56 5.6 9.17 6.51 10.67 7.67 12.01 9.03 13.14 12.62 10.13 14.06 7.2 13.93 3 17.19 4.95 19.46 8.16 21.11 11.51 21.86 10.72 22.49 9.82 22.98 8.85 25.84 11.43 27.22 15.27 26.64 19.08L26.64 19.08C26.31 22.51 24.54 25.63 21.77 27.68" class="MsftOfcResponsive_Fill_7823dc" fill="#7823DC"/><rect x="6.53" y="15.91" width="2" height="13.31" class="MsftOfcResponsive_Fill_7823dc" fill="#7823DC" transform="matrix(-1 -1.22465e-16 1.22465e-16 -1 15.05 45.14)"/><rect x="7.89" y="19.26" width="2" height="4.27" class="MsftOfcResponsive_Fill_7823dc" fill="#7823DC" transform="matrix(-0.707107 -0.707107 0.707107 -0.707107 0.04 42.8)"/><rect x="5.1" y="16" width="2" height="4.27" class="MsftOfcResponsive_Fill_7823dc" fill="#7823DC" transform="matrix(-0.707107 0.707107 -0.707107 -0.707107 23.23 26.63)"/><rect x="13.46" y="15.91" width="2" height="14" class="MsftOfcResponsive_Fill_7823dc" fill="#7823DC"/><rect x="12.1" y="22.68" width="2" height="4.27" class="MsftOfcResponsive_Fill_7823dc" fill="#7823DC" transform="matrix(0.707107 -0.707107 0.707107 0.707107 -13.71 16.53)"/><rect x="14.89" y="16" width="2" height="4.27" class="MsftOfcResponsive_Fill_7823dc" fill="#7823DC" transform="matrix(0.707107 0.707107 -0.707107 0.707107 17.47 -5.92)"/><rect x="20.46" y="15.91" width="2" height="13.31" class="MsftOfcResponsive_Fill_7823dc" fill="#7823DC"/><rect x="19.1" y="19.26" width="2" height="4.27" class="MsftOfcResponsive_Fill_7823dc" fill="#7823DC" transform="matrix(0.707107 -0.707107 0.707107 0.707107 -9.24 20.48)"/><rect x="21.89" y="16" width="2" height="4.27" class="MsftOfcResponsive_Fill_7823dc" fill="#7823DC" transform="matrix(0.707107 0.707107 -0.707107 0.707107 19.52 -10.87)"/></svg>