<svg viewBox="0 0 32 32" xmlns="http://www.w3.org/2000/svg" xmlns:xlink="http://www.w3.org/1999/xlink" id="Graphic" xml:space="preserve" overflow="hidden"><g><defs><path d="M0 32 32 32 32 0 0 0 0 32Z" id="SVGID_1_" fill="#7823DC"/></defs><defs><path d="M0 0 32 0 32 32 0 32 0 0Z" id="SVGID_00000114769723976213445110000006473665328224945536_" fill="#7823DC"/></defs><clipPath id="SVGID_00000091718005571961982660000006565575265316737922_"><use width="100%" height="100%" xlink:href="#SVGID_1_" overflow="visible"></use></clipPath><clipPath id="SVGID_00000138545692398345728530000013139397023234270348_" clip-path="url(#SVGID_00000091718005571961982660000006565575265316737922_)"><use width="100%" height="100%" xlink:href="#SVGID_00000114769723976213445110000006473665328224945536_" overflow="visible"></use></clipPath><g clip-path="url(#SVGID_00000138545692398345728530000013139397023234270348_)"><defs><path d="M0 32 32 32 32 0 0 0 0 32Z" id="SVGID_00000097497861268694141450000017855091815055817916_" fill="#7823DC"/></defs><clipPath id="SVGID_00000003808414931409829690000013342439694557224340_"><use width="100%" height="100%" xlink:href="#SVGID_00000097497861268694141450000017855091815055817916_" overflow="visible"></use></clipPath><path d="M28 16.6C28 16.3 28 15.9 28 15.6L32 11 28.9 5.6 22.9 6.8C22.3 6.4 21.7 6.1 21.1 5.8L19.1 0 12.9 0 11 5.8C10.4 6.1 9.7 6.4 9.2 6.8L3.2 5.6 0 11 4.1 15.6 4.1 17.7 0 22.2 3.1 27.6 9 26.5 9 24.4 4.2 25.3 2.6 22.5 5.6 19.1 6.2 18.4 6.1 17.5 6.1 15.8 6.2 14.9 5.6 14.2 2.6 10.8 4.2 8 8.7 8.9 9.6 9 10.3 8.5C10.8 8.2 11.3 7.9 11.8 7.6L12.6 7.2 12.8 6.4 14.3 2 17.5 2 19 6.4 19.3 7.3 20.1 7.7C20.6 7.9 21.1 8.2 21.6 8.6L22.4 9 23.2 8.8 27.7 7.9 29.3 10.7 26.3 14.1 25.7 14.8 25.8 15.7 25.8 17.4 25.7 18.3 26.3 19 29.3 22.4 27.7 25.2 23.1 24.3 22.9 24.3 22.9 26.4 28.6 27.6 31.7 22.2 27.6 17.6C27.9 17.3 27.9 17 28 16.6L28 16.6Z" fill="#7823DC" clip-path="url(#SVGID_00000003808414931409829690000013342439694557224340_)"/></g></g><g><defs><path d="M69 38 69 6 37 6 37 38 37 38" id="SVGID_00000017486596522823267240000016749255013432485816_" fill="#7823DC"/></defs><defs><path d="M37 38 37 6 37 6 69 6 69 38" id="SVGID_00000096048842354857791950000009593863399464089224_" fill="#7823DC"/></defs><clipPath id="SVGID_00000116214928006573266200000014620907901507410863_"><use width="100%" height="100%" xlink:href="#SVGID_00000017486596522823267240000016749255013432485816_" overflow="visible"></use></clipPath><clipPath id="SVGID_00000109718286909887926040000011376236669412287618_" clip-path="url(#SVGID_00000116214928006573266200000014620907901507410863_)"><use width="100%" height="100%" xlink:href="#SVGID_00000096048842354857791950000009593863399464089224_" overflow="visible"></use></clipPath><g clip-path="url(#SVGID_00000109718286909887926040000011376236669412287618_)"><defs><path d="M69 38 69 6 37 6 37 38 37 38" id="SVGID_00000068646982855216410300000003749024712733518257_" fill="#7823DC"/></defs><clipPath id="SVGID_00000108999565393476713300000013890952922507534010_"><use width="100%" height="100%" xlink:href="#SVGID_00000068646982855216410300000003749024712733518257_" overflow="visible"></use></clipPath><line x1="45.7" y1="29.4" x2="45.7" y2="26.7" fill="#7823DC" clip-path="url(#SVGID_00000108999565393476713300000013890952922507534010_)"/></g></g><path d="M21.9 24.6 19 21.7 19 19 20.9 21 20.9 10 22.8 10 22.8 21 24.8 19 24.8 21.7 21.9 24.6 21.9 24.6 21.9 24.6 21.9 24.6Z" fill="#7823DC"/><path d="M10.1 24.6 7.2 21.7 7.2 19 9.2 21 9.2 10 11.1 10 11.1 21 13 19 13 21.7 10.1 24.6 10.1 24.6 10.1 24.6 10.1 24.6Z" fill="#7823DC"/><path d="M16 32 13.1 29.1 13.1 26.4 15 28.3 15 18 17 18 17 28.3 18.9 26.4 18.9 29.1 16 32 16 32 16 32 16 32Z" fill="#7823DC"/></svg>