<svg viewBox="0 0 29.72 32.06" xmlns="http://www.w3.org/2000/svg" xmlns:xlink="http://www.w3.org/1999/xlink" xml:space="preserve" overflow="hidden"><style>
.MsftOfcResponsive_Fill_7823dc {
 fill:#7823DC; 
}
</style>
<g id="Layer_3"></g><g id="Layer_1"></g><g id="Layer_2"></g><g id="Layer_4"></g><g id="Layer_5"><path d="M14.86 28.38 4.96 19.77 9.29 19.77 9.29 3.08 20.43 3.08 20.43 19.77 24.76 19.77 14.86 28.38M14.86 30.84 14.86 30.84 29.72 17.91 22.29 17.91 22.29 1.22 7.43 1.22 7.43 17.91 0 17.91 14.86 30.84 14.86 30.84Z" class="st0 MsftOfcResponsive_Fill_7823dc" fill="#7823DC"/><g><path d="M11.28 14.08 13.67 14.08 14.87 16.68 16.05 14.08 18.44 14.08 16.62 17.38 18.17 17.38 18.17 18.54 15.97 18.54 15.97 19.17 18.17 19.17 18.17 20.34 15.97 20.34 15.97 21.74 13.8 21.74 13.8 20.34 11.56 20.34 11.56 19.17 13.8 19.17 13.8 18.54 11.56 18.54 11.56 17.38 13.16 17.38 11.28 14.08Z" class="st0 MsftOfcResponsive_Fill_7823dc" fill="#7823DC"/></g></g></svg>