<svg viewBox="0 0 32 30" xmlns="http://www.w3.org/2000/svg" xmlns:xlink="http://www.w3.org/1999/xlink" id="Grid" overflow="hidden"><defs></defs><rect x="6" y="10" width="20" height="2" fill="#7823DC"/><rect x="22" y="19.98" width="2" height="8.79" fill="#7823DC"/><rect x="17.33" y="19.98" width="2" height="8.79" fill="#7823DC"/><rect x="12.67" y="19.98" width="2" height="8.79" fill="#7823DC"/><rect x="8" y="19.98" width="2" height="8.79" fill="#7823DC"/><path d="M317.84-121.9 301.84-121.9 301.84-128.58 317.84-128.58ZM303.84-123.9 315.84-123.9 315.84-126.58 303.84-126.58Z" fill="#7823DC" transform="translate(-293.84 138.9)"/><path d="M321.84-108.9 297.84-108.9 297.84-123.9 321.84-123.9ZM299.84-110.9 319.84-110.9 319.84-121.9 299.84-121.9Z" fill="#7823DC" transform="translate(-293.84 138.9)"/><path d="M316.43-127.37 314.43-127.37C314.424-129.903 312.373-131.954 309.84-131.96 307.309-131.954 305.26-129.901 305.26-127.37L303.26-127.37C303.26-131.006 306.204-133.954 309.84-133.96 313.477-133.954 316.424-131.007 316.43-127.37Z" fill="#7823DC" transform="translate(-293.84 138.9)"/><path d="M325.84-108.9 319.84-108.9 319.84-119.54 325.84-119.54ZM321.84-110.9 323.84-110.9 323.84-117.54 321.84-117.54Z" fill="#7823DC" transform="translate(-293.84 138.9)"/><path d="M299.84-108.9 293.84-108.9 293.84-119.54 299.84-119.54ZM295.84-110.9 297.84-110.9 297.84-117.54 295.84-117.54Z" fill="#7823DC" transform="translate(-293.84 138.9)"/><rect x="15.01" y="0" width="2" height="5.12" fill="#7823DC"/><rect x="15.26" y="0" width="5.74" height="3.35" fill="#7823DC"/></svg>