<svg viewBox="0 0 32 32" xmlns="http://www.w3.org/2000/svg" xmlns:xlink="http://www.w3.org/1999/xlink" overflow="hidden"><style>
.MsftOfcResponsive_Fill_7823dc {
 fill:#7823DC; 
}
</style>
<defs></defs><g id="Layer_3"><path d="M16.408 2.081 14.408 2.081 14.408 4.078 16.408 4.078 16.408 2.081 16.408 2.081Z" class="MsftOfcResponsive_Fill_7823dc" fill="#7823DC"/><path d="M4.299 15.895 2.303 15.895 2.303 17.895 4.299 17.895 4.299 15.895 4.299 15.895Z" class="MsftOfcResponsive_Fill_7823dc" fill="#7823DC"/><path d="M30.201 14.484 28.205 14.484 28.205 16.484 30.201 16.484 30.201 14.484 30.201 14.484Z" class="MsftOfcResponsive_Fill_7823dc" fill="#7823DC"/><path d="M23.931 22.023 16.758 16.02 20.755 12.023 17.925 12.023 13.93 16.016 21.107 22.023 23.931 22.023Z" class="MsftOfcResponsive_Fill_7823dc" fill="#7823DC"/><path d="M12.027 6.203 14.829 6.203 17.953 3.019 14.905-0.001 12.065-0.001 15.131 3.038 12.027 6.203Z" class="MsftOfcResponsive_Fill_7823dc" fill="#7823DC"/><path d="M25.74 12.059 25.74 14.861 28.925 17.985 31.944 14.937 31.944 12.097 28.905 15.164 25.74 12.059Z" class="MsftOfcResponsive_Fill_7823dc" fill="#7823DC"/><path d="M19.9736 2.58289 19.9736 4.70264C24.3377 6.29275 27.3943 10.2559 27.8236 14.8809L29.8346 14.8809C29.373 9.15023 25.4669 4.27888 19.9736 2.58289Z" class="MsftOfcResponsive_Fill_7823dc" fill="#7823DC"/><path d="M18.14 28.235 16.14 28.235 16.14 30.231 18.14 30.231 18.14 28.235 18.14 28.235Z" class="MsftOfcResponsive_Fill_7823dc" fill="#7823DC"/><path d="M20.564 25.77 17.763 25.77 14.639 28.955 17.686 31.974 20.527 31.974 17.46 28.935 20.564 25.77Z" class="MsftOfcResponsive_Fill_7823dc" fill="#7823DC"/><path d="M30.0408 20.0035 27.921 20.0035C26.3309 24.3676 22.3677 27.4242 17.7428 27.8535L17.7428 29.8645C23.4734 29.4029 28.3448 25.4968 30.0408 20.0035Z" class="MsftOfcResponsive_Fill_7823dc" fill="#7823DC"/><path d="M6.211 19.923 6.211 17.121 3.026 13.997 0.007 17.044 0.007 19.885 3.046 16.818 6.211 19.923Z" class="MsftOfcResponsive_Fill_7823dc" fill="#7823DC"/><path d="M11.9778 29.3991 11.9778 27.2793C7.61363 25.6892 4.557 21.726 4.12776 17.1011L2.1168 17.1011C2.5784 22.8317 6.48443 27.7031 11.9778 29.3991Z" class="MsftOfcResponsive_Fill_7823dc" fill="#7823DC"/><path d="M2.5381 11.9935 4.65828 11.9935C6.2549 7.62524 10.2187 4.56254 14.8484 4.11987L14.8484 2.10887C9.1129 2.58421 4.24114 6.49599 2.5381 11.9935Z" class="MsftOfcResponsive_Fill_7823dc" fill="#7823DC"/></g></svg>