<svg viewBox="0 0 29.22 29.22" xmlns="http://www.w3.org/2000/svg" xmlns:xlink="http://www.w3.org/1999/xlink" id="Layer_5" overflow="hidden"><style>
.MsftOfcThm_Text2_Fill_v2 {
 fill:#7823DC; 
}
</style>
<defs></defs><g><path d="M9.73 9C9.37 8.63 8.94 8.44 8.47 8.44 8 8.44 7.56 8.64 7.24 8.97 6.94 9.28 6.75 9.69 6.73 10.09L6.73 10.19C6.73 10.19 6.63 10.21 6.63 10.21 6.21 10.24 5.85 10.42 5.48 10.76 5.16 11.09 4.99 11.53 4.99 12.02 4.99 12.51 5.18 12.97 5.5 13.3 5.82 13.63 6.18 13.8 6.61 13.83L6.72 13.83C6.72 13.83 6.72 13.95 6.72 13.95 6.75 14.38 6.92 14.78 7.18 15.03 7.53 15.39 7.98 15.59 8.46 15.59 8.94 15.59 9.39 15.39 9.74 15.03 10.02 14.71 10.18 14.32 10.21 13.96L10.21 13.84 10.33 13.84C10.73 13.81 11.12 13.63 11.38 13.34 11.74 12.96 11.91 12.53 11.91 12.04 11.91 11.57 11.72 11.12 11.36 10.73 11.03 10.43 10.68 10.26 10.32 10.24L10.2 10.24 10.2 10.12C10.17 9.73 9.99 9.32 9.72 9.04Z" class="MsftOfcThm_Text2_Fill_v2" stroke-width="0" fill="#7823DC"/><g><ellipse cx="20.63" cy="9.41" rx="1.24" ry="1.28" class="MsftOfcThm_Text2_Fill_v2" stroke-width="0" fill="#7823DC"/><ellipse cx="20.63" cy="14.6" rx="1.24" ry="1.28" class="MsftOfcThm_Text2_Fill_v2" stroke-width="0" fill="#7823DC"/><ellipse cx="18.12" cy="12" rx="1.24" ry="1.28" class="MsftOfcThm_Text2_Fill_v2" stroke-width="0" fill="#7823DC"/><ellipse cx="23.14" cy="12" rx="1.24" ry="1.28" class="MsftOfcThm_Text2_Fill_v2" stroke-width="0" fill="#7823DC"/></g></g><path d="M25.72 23.91C24.37 23.91 22.7 22.71 22.36 22.45 21.33 21.69 19.94 20.38 19.88 20.33 19.21 19.67 18.27 19.17 18.26 19.17 17.11 18.56 15.1 18.47 14.42 18.5 12.95 18.56 11.98 18.76 10.99 19.22 10.18 19.59 9.16 20.55 8.83 20.88 7.82 21.87 6.08 23 6.01 23.05 3.47 24.69 1.76 23.59 1.21 22.77-0.77 20.32 0.67 13.79 0.84 13.05 2.54 4.95 6.33 4.13 6.98 4.05 8.53 3.78 10.54 4.42 10.77 4.5 11.78 4.87 13.26 5.12 13.28 5.12 14.91 5.38 15.97 5.16 15.98 5.16 17.2 4.92 19.96 4.2 19.98 4.19 22.24 3.6 23.41 4.26 23.62 4.4 25.03 5.18 26.08 6.57 26.13 6.63 28.24 9.47 28.89 14.41 28.92 14.62 29.49 19.01 28.98 21.04 28.95 21.13 28.34 23.25 26.81 23.86 25.99 23.9 25.9 23.91 25.8 23.92 25.71 23.92ZM21.25 18.88C21.25 18.88 22.6 20.14 23.54 20.84 24.27 21.39 25.38 21.95 25.81 21.89 25.95 21.88 26.68 21.76 27.02 20.58L27.02 20.58C27.02 20.58 27.44 18.78 26.93 14.86 26.93 14.81 26.31 10.23 24.52 7.82 24.52 7.82 23.68 6.71 22.59 6.11 22.56 6.09 21.9 5.75 20.48 6.12 20.37 6.15 17.64 6.87 16.38 7.11 16.35 7.11 15 7.41 12.95 7.09 12.88 7.08 11.26 6.81 10.1 6.39 9.64 6.24 8.18 5.87 7.29 6.03L7.22 6.03C7.07 6.07 4.2 6.7 2.76 13.48 2.2 15.91 1.72 20.24 2.79 21.57 2.91 21.73 3.47 22.28 4.9 21.36 4.91 21.36 6.55 20.29 7.39 19.46 7.51 19.33 8.83 17.99 10.13 17.39 11.37 16.82 12.59 16.56 14.33 16.49 14.46 16.49 17.31 16.41 19.17 17.39 19.22 17.42 20.38 18.03 21.24 18.88L21.24 18.88Z" class="MsftOfcThm_Text2_Fill_v2" stroke-width="0" fill="#7823DC"/></svg>