<svg viewBox="0 0 32 32" xmlns="http://www.w3.org/2000/svg" xmlns:xlink="http://www.w3.org/1999/xlink" id="Layer_5" overflow="hidden"><defs></defs><path d="M20.75 9.27 20.04 6.65 17.5 7.34C17.28 6.54 16.66 4.92 15.08 3.87 13.58 2.87 11.66 2.64 9.36 3.21L9.83 5.15C11.55 4.73 12.94 4.85 13.95 5.52 15 6.21 15.42 7.35 15.56 7.86L13.41 8.44 14.13 11.12C10.92 13.22 8.95 16.81 8.95 20.68 8.95 26.97 14.07 32.08 20.36 32.08 26.65 32.08 31.76 26.97 31.76 20.68 31.76 14.39 26.85 9.47 20.73 9.28ZM20.38 30.07C15.19 30.07 10.97 25.85 10.97 20.67 10.97 17.26 12.82 14.11 15.8 12.45L16.48 12.07 15.88 9.84 18.64 9.09 19.24 11.32 20.06 11.26C20.16 11.26 20.27 11.26 20.38 11.26 25.56 11.26 29.78 15.48 29.78 20.67 29.78 25.86 25.56 30.07 20.38 30.07Z" fill="#7823DC"/><path d="M8.1 8.19 11.32 8.82 8.83 6.74 11.91 5.57 8.29 5.06 10.05 1.79 7.32 3.56 7.11 0.28 5.73 3.22 3.82 0.54 4.2 3.77 1.16 2.51 3.19 5.05-0.06 5.58 3.01 6.66 0.53 8.83 3.71 8.13 2.75 11.29 5.08 9.01 5.93 12.19 6.7 9.03 9.11 11.28 8.1 8.19Z" fill="#7823DC"/></svg>