<svg viewBox="0 0 32 31.89" xmlns="http://www.w3.org/2000/svg" xmlns:xlink="http://www.w3.org/1999/xlink" id="Layer_1" overflow="hidden"><style>
.MsftOfcResponsive_Fill_7823dc {
 fill:#7823DC; 
}
</style>
<path d="M16.56 31.89 5.44 31.89C2.44 31.89 0 29.38 0 26.29L0 5.6C0 2.51 2.44 0 5.44 0L16.55 0C19.55 0 21.99 2.51 21.99 5.6L21.99 26.29C21.99 29.38 19.55 31.89 16.55 31.89ZM5.44 2C3.54 2 2 3.61 2 5.6L2 26.29C2 28.27 3.54 29.89 5.44 29.89L16.55 29.89C18.45 29.89 19.99 28.28 19.99 26.29L19.99 5.6C19.99 3.62 18.45 2 16.55 2L5.44 2Z" class="MsftOfcResponsive_Fill_7823dc" fill="#7823DC"/><path d="M21.81 27.45 20.19 26.28 28.93 14.1C29.53 13.32 29.73 12.43 29.52 11.57 29.29 10.61 28.55 9.76 27.5 9.26L20.55 5.81 21.44 4.02 28.38 7.47C29.96 8.23 31.09 9.56 31.47 11.11 31.82 12.56 31.49 14.05 30.54 15.29L21.81 27.45Z" class="MsftOfcResponsive_Fill_7823dc" fill="#7823DC"/><path d="M21.51 28.64 20.48 26.93 28.15 22.33C29.14 21.72 29.8 20.8 29.96 19.81 30.1 18.94 29.85 18.11 29.25 17.4L28.57 16.59 30.1 15.31 30.77 16.11C31.74 17.26 32.15 18.69 31.92 20.12 31.67 21.69 30.67 23.12 29.18 24.04L21.5 28.64Z" class="MsftOfcResponsive_Fill_7823dc" fill="#7823DC"/><rect x="4" y="4" width="2" height="4" class="MsftOfcResponsive_Fill_7823dc" fill="#7823DC"/><rect x="16" y="23.99" width="2" height="4.01" class="MsftOfcResponsive_Fill_7823dc" fill="#7823DC"/><path d="M13.53 18.39C12.76 18.39 12.03 18.09 11.49 17.54L11.01 17.06 10.53 17.54C9.43 18.64 7.54 18.64 6.44 17.54L6.44 17.54C5.9 17 5.59 16.23 5.59 15.42 5.59 14.61 5.9 13.84 6.44 13.3L7.63 12.11 11.01 8.54 15.58 13.3C16.12 13.84 16.43 14.61 16.43 15.42 16.43 16.23 16.12 17 15.58 17.54 15.04 18.08 14.31 18.39 13.54 18.39ZM11 14.23 12.9 16.13C13.24 16.47 13.82 16.47 14.16 16.13 14.33 15.96 14.42 15.71 14.42 15.43 14.42 15.15 14.32 14.89 14.16 14.73L12.97 13.54 11 11.46 7.84 14.72C7.67 14.89 7.58 15.14 7.58 15.42 7.58 15.7 7.68 15.96 7.84 16.12L7.84 16.12C8.18 16.46 8.76 16.46 9.1 16.12L11 14.22Z" class="MsftOfcResponsive_Fill_7823dc" fill="#7823DC"/><rect x="8.66" y="19.4" width="4.69" height="2" class="MsftOfcResponsive_Fill_7823dc" fill="#7823DC"/><rect x="10" y="16.05" width="2" height="4.35" class="MsftOfcResponsive_Fill_7823dc" fill="#7823DC"/></svg>