<svg viewBox="0 0 32 32" xmlns="http://www.w3.org/2000/svg" xmlns:xlink="http://www.w3.org/1999/xlink" id="Layer_1" overflow="hidden"><style>
.MsftOfcResponsive_Fill_7823dc {
 fill:#7823DC; 
}
</style>
<defs></defs><path d="M14.51 32C12.64 32 10.76 31.46 9.16 30.37 6.64 28.52 5.18 25.92 5.01 23 4.95 21.78 4.5 20.72 3.71 19.93L3.26 19.47C2.06 18.27 1.42 16.61 1.51 14.92 1.6 13.23 2.38 11.7 3.72 10.63 6.03 8.67 9.62 8.9 11.88 11.16L12.18 11.46C12.9 12.18 14.04 12.69 15.24 12.84 17.51 13.01 19.76 14.03 21.36 15.63 23.37 17.64 24.37 20.44 24.09 23.29 23.81 26.16 22.26 28.73 19.85 30.36 18.27 31.44 16.4 31.99 14.53 31.99ZM7.42 11.33C6.53 11.33 5.67 11.61 4.99 12.19 4.09 12.92 3.57 13.93 3.51 15.05 3.45 16.17 3.87 17.28 4.68 18.08L5.14 18.54C6.28 19.68 6.93 21.19 7.02 22.91 7.16 25.21 8.33 27.29 10.33 28.75 12.84 30.44 16.22 30.45 18.73 28.73 20.66 27.43 21.89 25.39 22.11 23.12 22.33 20.86 21.54 18.65 19.96 17.06 18.7 15.8 16.91 14.99 15.06 14.85 14.23 14.75 12.26 14.36 10.79 12.89 10.79 12.89 10.79 12.89 10.79 12.89L10.49 12.59C9.66 11.76 8.54 11.34 7.45 11.34Z" class="MsftOfcResponsive_Fill_7823dc" fill="#7823DC"/><path d="M3.33 12.43 2.42 11.52C0.86 9.96 0 7.88 0 5.66L2 5.66C2 7.35 2.65 8.93 3.83 10.11L4.74 11.02 3.32 12.43Z" class="MsftOfcResponsive_Fill_7823dc" fill="#7823DC"/><path d="M4.59 8.07C4.45 8.07 4.37 8.07 4.35 8.07L3.45 8.02 3.4 7.12C3.4 6.98 3.25 3.77 5.21 1.81 7.17-0.15 10.39 0 10.52 0L11.42 0.05 11.47 0.95C11.47 1.09 11.62 4.3 9.66 6.26 7.98 7.94 5.39 8.07 4.59 8.07ZM9.42 2.05C8.59 2.15 7.41 2.44 6.63 3.22 5.85 4 5.56 5.18 5.46 6.01 6.29 5.91 7.47 5.62 8.25 4.84 9.03 4.06 9.32 2.88 9.42 2.05Z" class="MsftOfcResponsive_Fill_7823dc" fill="#7823DC"/><path d="M25.23 3.73C24.24 3.73 23.32 4.23 22.74 4.64 22.24 5.05 21.91 5.39 21.91 5.39 21.91 5.39 21.58 5.06 21.08 4.64 20.5 4.23 19.59 3.73 18.59 3.73 16.77 3.73 15.28 5.39 15.28 5.39 15.28 5.39 16.77 7.05 18.59 7.05 19.25 7.05 19.83 6.88 20.33 6.64 20.25 6.72 20.25 6.89 20.25 7.05 20.25 8.87 21.91 10.36 21.91 10.36 21.91 10.36 23.57 8.87 23.57 7.05 23.57 6.88 23.57 6.72 23.49 6.64 23.99 6.89 24.57 7.05 25.23 7.05 27.05 7.05 28.54 5.39 28.54 5.39 28.54 5.39 27.05 3.73 25.23 3.73L25.23 3.73Z" class="MsftOfcResponsive_Fill_7823dc" fill="#7823DC"/><rect x="20.92" y="12.05" width="2" height="1.66" class="MsftOfcResponsive_Fill_7823dc" fill="#7823DC"/><rect x="25.06" y="9.99" width="2" height="1.66" class="MsftOfcResponsive_Fill_7823dc" fill="#7823DC"/><rect x="16.78" y="9.99" width="2" height="1.66" class="MsftOfcResponsive_Fill_7823dc" fill="#7823DC"/><rect x="20.92" y="0" width="2" height="5.78" class="MsftOfcResponsive_Fill_7823dc" fill="#7823DC"/><path d="M23.69 24.55C23.45 24.55 23.21 24.52 22.96 24.47 22.42 24.35 22.08 23.82 22.2 23.28 22.32 22.74 22.85 22.4 23.39 22.52 24.14 22.69 24.74 22.18 25.18 21.02L25.45 20.4C26.15 18.69 27.2 16.96 28.65 15.12 29.56 14.06 30.01 12.88 30.01 11.6 30.01 9.5 28.63 7.46 26.4 6.27 25.91 6.01 25.73 5.4 25.99 4.92 26.25 4.43 26.85 4.25 27.34 4.51 30.22 6.05 32.01 8.77 32.01 11.61 32.01 13.36 31.38 15.02 30.2 16.4 28.89 18.06 27.93 19.63 27.3 21.18L27.04 21.78C26.37 23.56 25.15 24.57 23.7 24.57Z" class="MsftOfcResponsive_Fill_7823dc" fill="#7823DC"/><path d="M12.75 13.42C12.29 13.42 11.87 13.1 11.77 12.63 11.11 9.51 13.7 5.98 16.47 4.5 16.96 4.24 17.56 4.42 17.82 4.91 18.08 5.4 17.9 6 17.41 6.26 15.31 7.38 13.27 10.1 13.72 12.21 13.83 12.75 13.49 13.28 12.95 13.4 12.88 13.42 12.81 13.42 12.74 13.42Z" class="MsftOfcResponsive_Fill_7823dc" fill="#7823DC"/></svg>