<svg width="36.5" height="36.6" viewBox="0 0 36.5 36.6" xmlns="http://www.w3.org/2000/svg" xmlns:xlink="http://www.w3.org/1999/xlink" overflow="hidden"><defs></defs><g><g><defs><path d="M0 36.5 36.5 36.5 36.5 0 0 0 0 36.5Z" id="SVGID_1_" fill="#7823DC"/></defs><clipPath id="SVGID_2_"><use width="100%" height="100%" xlink:href="#SVGID_1_"></use></clipPath><g clip-path="url(#SVGID_2_)"><defs><path d="M0 36.5 36.5 36.5 36.5 0 0 0 0 36.5Z" id="SVGID_3_" fill="#7823DC"/></defs><clipPath id="SVGID_4_"><use width="100%" height="100%" xlink:href="#SVGID_3_"></use></clipPath><path d="M17 36.6 14.7 36.6 14.7 24 17 26.2 17 36.6 17 36.6Z" fill="#7823DC" clip-path="url(#SVGID_4_)"/><path d="M21.7 36.6 19.4 36.6 19.4 26.2 21.7 24 21.7 36.6 21.7 36.6Z" fill="#7823DC" clip-path="url(#SVGID_4_)"/><path d="M18.3 22.5 16.6 20.9 13.4 24.2 15 25.8 18.3 22.5 18.3 22.5 18.3 22.5Z" fill="#7823DC" clip-path="url(#SVGID_4_)"/><path d="M18.3 22.5 19.9 20.9 23.1 24.2 21.5 25.8 18.3 22.5 18.3 22.5 18.3 22.5Z" fill="#7823DC" clip-path="url(#SVGID_4_)"/><path d="M18.3 25.8 19.9 27.4 23.1 24.2 21.5 22.5 18.3 25.8 18.3 25.8 18.3 25.8Z" fill="#7823DC" clip-path="url(#SVGID_4_)"/><path d="M18.3 25.8 16.6 27.4 13.4 24.2 15 22.5 18.3 25.8 18.3 25.8 18.3 25.8Z" fill="#7823DC" clip-path="url(#SVGID_4_)"/><path d="M18.3 18.5C13.3 18.5 9.2 14.4 9.2 9.4 9.2 4.4 13.3 0.3 18.3 0.3 23.3 0.3 27.4 4.4 27.4 9.4 27.4 14.4 23.3 18.5 18.3 18.5ZM18.3 2.5C14.5 2.5 11.5 5.6 11.5 9.4 11.5 13.2 14.6 16.3 18.3 16.3 22 16.3 25.1 13.2 25.1 9.4 25.1 5.6 22 2.5 18.3 2.5Z" fill="#7823DC" clip-path="url(#SVGID_4_)"/><path d="M2.3 23.3 4.6 23.3 4.6 36.6 2.3 36.6 2.3 23.3Z" fill="#7823DC" clip-path="url(#SVGID_4_)"/><path d="M15.4 20.4 3.1 25.5 2.3 23.4 14.6 18.3 14.9 19.1 15.4 20.4 15.4 20.4Z" fill="#7823DC" clip-path="url(#SVGID_4_)"/><path d="M31.9 23.3 34.2 23.3 34.2 36.6 31.9 36.6 31.9 23.3Z" fill="#7823DC" clip-path="url(#SVGID_4_)"/><path d="M21 20.4 21.9 18.3 34.2 23.4 33.3 25.5 21 20.4Z" fill="#7823DC" clip-path="url(#SVGID_4_)"/><path d="M12.8 19.7 14.6 18.3 16.8 21.2 15 22.6 12.8 19.7Z" fill="#7823DC" clip-path="url(#SVGID_4_)"/><path d="M19.7 21.2 21.9 18.3 23.7 19.7 21.4 22.6 19.7 21.2Z" fill="#7823DC" clip-path="url(#SVGID_4_)"/></g></g></g></svg>