<svg viewBox="0 0 32 32" xmlns="http://www.w3.org/2000/svg" xmlns:xlink="http://www.w3.org/1999/xlink" id="Layer_1" xml:space="preserve" overflow="hidden"><g><g><defs><path d="M1.6 32 30.4 32 30.4 0 1.6 0 1.6 32Z" id="SVGID_1_" fill="#7823DC"/></defs><defs><path d="M1.6 0 30.4 0 30.4 32 1.6 32 1.6 0Z" id="SVGID_00000133513108029398270030000017949188498110995594_" fill="#7823DC"/></defs><clipPath id="SVGID_00000021840366192507363050000002251369241915780025_"><use width="100%" height="100%" xlink:href="#SVGID_1_" overflow="visible"></use></clipPath><clipPath id="SVGID_00000106125002039940910630000005616045969821032626_" clip-path="url(#SVGID_00000021840366192507363050000002251369241915780025_)"><use width="100%" height="100%" xlink:href="#SVGID_00000133513108029398270030000017949188498110995594_" overflow="visible"></use></clipPath><g clip-path="url(#SVGID_00000106125002039940910630000005616045969821032626_)"><defs><path d="M1.6 32 30.4 32 30.4 0 1.6 0 1.6 32Z" id="SVGID_00000091706676971828894180000013300391474041043606_" fill="#7823DC"/></defs><clipPath id="SVGID_00000174592565887781782670000010439423439165481916_"><use width="100%" height="100%" xlink:href="#SVGID_00000091706676971828894180000013300391474041043606_" overflow="visible"></use></clipPath><path d="M24.7 12.5C26.5 12.5 28 11.1 28 9.3 28 7.5 26.5 6 24.7 6 22.9 6 21.4 7.4 21.4 9.2 21.4 11 22.8 12.5 24.7 12.5L24.7 12.5ZM24.7 8C25.4 8 26 8.5 26 9.3 26 10 25.4 10.6 24.7 10.6 24 10.6 23.4 10 23.4 9.3 23.4 9.3 23.4 9.3 23.4 9.3 23.3 8.5 23.9 8 24.7 8 24.6 8 24.7 8 24.7 8L24.7 8Z" fill="#7823DC" clip-path="url(#SVGID_00000174592565887781782670000010439423439165481916_)"/><path d="M8.2 12.5C10 12.5 11.5 11.1 11.5 9.3 11.5 7.5 10 6.1 8.2 6.1 6.4 6 4.9 7.5 4.9 9.2 4.9 9.2 4.9 9.2 4.9 9.2 4.9 11 6.4 12.5 8.2 12.5L8.2 12.5ZM8.2 8C8.9 8 9.5 8.6 9.5 9.3 9.5 10 8.9 10.6 8.2 10.6 7.5 10.6 6.9 10 6.9 9.3 6.9 9.3 6.9 9.3 6.9 9.3 6.9 8.5 7.5 8 8.2 8L8.2 8Z" fill="#7823DC" clip-path="url(#SVGID_00000174592565887781782670000010439423439165481916_)"/><path d="M27.1 15 28.1 18.2 28.2 22.8 30.2 22.7 30 18.1 28.5 12.9 25.1 12.9 25.1 21.4 27.3 31.8 29.2 31.5 27.1 21.3 27.1 15 27.1 15Z" fill="#7823DC" clip-path="url(#SVGID_00000174592565887781782670000010439423439165481916_)"/><path d="M16.6 6.2 16.6 6.2 16.6 6.2 12.4 11 8.1 13.1 8.6 21.6 10.3 31.8 12.3 31.5 10.5 21.5 10.1 14.2 13.6 12.5 16.6 9.1 19.6 12.8 22.7 14.3 22.3 21.5 20.6 31.5 22.6 31.8 24.3 21.7 24.8 13.1 20.9 11.2 16.6 6.2 16.6 6.2Z" fill="#7823DC" clip-path="url(#SVGID_00000174592565887781782670000010439423439165481916_)"/><path d="M2.9 17.8 2.7 22.7 4.6 22.8 4.8 18.2 5.8 15 5.8 21.3 3.7 31.5 5.6 31.8 7.8 21.6 7.8 12.9 4.4 12.9 2.9 17.8 2.9 17.8Z" fill="#7823DC" clip-path="url(#SVGID_00000174592565887781782670000010439423439165481916_)"/><path d="M17.8 4.9 20.7 2.6 21.9 4.1 19 6.4 17.8 4.9Z" fill="#7823DC" clip-path="url(#SVGID_00000174592565887781782670000010439423439165481916_)"/><path d="M10.9 4.1 12.2 2.6 15.1 4.9 13.9 6.4 10.9 4.1Z" fill="#7823DC" clip-path="url(#SVGID_00000174592565887781782670000010439423439165481916_)"/><path d="M15.4 1 17.3 1 17.4 4.6 15.4 4.6 15.4 1Z" fill="#7823DC" clip-path="url(#SVGID_00000174592565887781782670000010439423439165481916_)"/></g></g></g></svg>