<svg viewBox="0 0 32 32" xmlns="http://www.w3.org/2000/svg" xmlns:xlink="http://www.w3.org/1999/xlink" id="Graphic" overflow="hidden"><defs></defs><path d="M16.98 15.89 16.98 32 14.98 32 14.98 15.77 12.39 18.35 10.98 16.94 16 12 20.86 16.94 19.45 18.35 16.98 15.89Z" fill="#7823DC"/><path d="M26.46 10.42C26.46 10.36 26.46 10.3 26.46 10.23 26.4339 4.58019 21.8326 0.0213066 16.1828 0.047455 11.6278 0.068536 7.63554 3.09862 6.39 7.48 1.88635 8.52202-0.919856 13.0177 0.122162 17.5213 0.977064 21.2162 4.20953 23.8746 8 24L12 24 12 22 8.4 22 8.09 22C4.57332 21.9018 1.8021 18.9713 1.9003 15.4547 1.98152 12.5465 4.02269 10.063 6.86 9.42L8 9.14 8.31 8C9.52603 3.62038 14.0622 1.05579 18.4418 2.27182 22.0037 3.2608 24.4692 6.50335 24.47 10.2 24.465 10.2599 24.465 10.3201 24.47 10.38L24.47 12.06 26.12 12.38C28.7489 12.8934 30.4639 15.4407 29.9506 18.0696 29.508 20.3359 27.529 21.9759 25.22 21.99L20 21.99 20 23.99 25.15 23.99C28.9331 23.98 31.9919 20.9051 31.9819 17.122 31.9733 13.8576 29.6624 11.0529 26.46 10.42Z" fill="#7823DC"/></svg>