<svg viewBox="0 0 32 32" xmlns="http://www.w3.org/2000/svg" xmlns:xlink="http://www.w3.org/1999/xlink" id="Layer_2_1_" overflow="hidden"><g><path d="M28.1 17 32.1 21.4 29.1 26.6 23.4 25.4C22.8 25.8 22.2 26.1 21.6 26.4L19.8 32 13.9 32 12.1 26.4C11.4 26.1 10.9 25.8 10.3 25.4L4.6 26.6 1.6 21.4 3.5 19.2 3.7 19 3.8 18.9 4.1 18.5 5.6 18.5C5.8 18.7 6.1 18.8 6.3 18.9L6.1 19.1 6 19.3 5.4 20 5.3 20.1 5 20.4 4 21.6 5.6 24.4 9.9 23.5 10.7 23.3 11.4 23.8C11.8 24.1 12.3 24.4 12.8 24.6L13.6 25 13.8 25.8 15.2 30 18.3 30 19.7 25.7 20 24.9 20.8 24.5C21.3 24.3 21.7 24 22.2 23.7L22.9 23.2 23.7 23.4 28 24.3 29.5 21.6 26.6 18.3 26 17.7 26.1 16.8 26.1 15.1 26 14.2 26.6 13.6 29.5 10.3 28 7.6 23.7 8.5 22.9 8.7 22.2 8.2C21.8 7.9 21.3 7.6 20.8 7.4L20 7 19.7 6.2 18.3 2 15.2 2 13.8 6.2 13.6 7 12.7 7.4C12.2 7.6 11.8 7.9 11.3 8.2L10.6 8.7 9.8 8.5 5.5 7.6 4 10.3 5 11.5 5.3 11.8 5.3 11.8 5.9 12.5 6 12.8 6.2 13C6 13.1 5.7 13.3 5.5 13.5L4 13.5 3.5 13 3.5 13 3.2 12.7 1.4 10.6 4.4 5.4 10.1 6.6C10.7 6.2 11.3 5.9 11.9 5.6L13.9 0 19.8 0 21.6 5.6C22.3 5.9 22.8 6.2 23.4 6.6L29.1 5.4 32.1 10.6 28.2 15 28.2 16C28.2 16.3 28.1 16.6 28.1 17Z" fill="#7823DC" fill-rule="evenodd" clip-rule="evenodd"/></g><path d="M10.5 12.1C13.7 12.1 16.7 14.5 18.3 16 16.7 17.5 13.8 19.9 10.5 19.9 7.3 19.9 4.3 17.5 2.7 16 4.3 14.5 7.3 12.1 10.5 12.1M10.5 10.1C4.7 10.1 0 16 0 16 0 16 4.7 21.9 10.5 21.9 16.3 21.9 21 16 21 16 21 16 16.3 10.1 10.5 10.1L10.5 10.1Z" fill="#7823DC"/><rect x="1.8" y="15" width="17.3" height="2" fill="#7823DC"/><rect x="5.8" y="12.5" width="5.7" height="2" fill="#7823DC" transform="matrix(0.4805 -0.877 0.877 0.4805 -7.3334 14.6203)"/><rect x="7.7" y="15.6" width="2" height="5.7" fill="#7823DC" transform="matrix(0.877 -0.4805 0.4805 0.877 -7.8219 6.4428)"/><rect x="11.3" y="12.8" width="4.8" height="2" fill="#7823DC" transform="matrix(0.5649 -0.8252 0.8252 0.5649 -5.4762 17.3095)"/><rect x="12.2" y="15.6" width="2" height="4.8" fill="#7823DC" transform="matrix(0.8251 -0.565 0.565 0.8251 -7.8541 10.6279)"/></svg>