<svg viewBox="0 0 32 32" xmlns="http://www.w3.org/2000/svg" xmlns:xlink="http://www.w3.org/1999/xlink" id="Layer_1" overflow="hidden"><style>
.MsftOfcResponsive_Fill_7823dc {
 fill:#7823DC; 
}
</style>
<defs></defs><path d="M13 6 13 10 2 10 2 6 13 6M15 4 0 4 0 12 15 12 15 4 15 4Z" class="MsftOfcResponsive_Fill_7823dc" fill="#7823DC"/><path d="M30 16 30 20 19 20 19 16 30 16M32 14 17 14 17 22 32 22 32 14 32 14Z" class="MsftOfcResponsive_Fill_7823dc" fill="#7823DC"/><path d="M17 2.01 17 30 15 30 15 2 16.99 2 14.99 0 13 0 13 32 19 32 19 4.01 17 2.01Z" class="MsftOfcResponsive_Fill_7823dc" fill="#7823DC"/><path d="M23 32 9 32C9 29.79 10.79 28 13 28L19 28C21.21 28 23 29.79 23 32L23 32Z" class="MsftOfcResponsive_Fill_7823dc" fill="#7823DC"/><path d="M17 2 17 2.01 16.99 2 17 2Z" class="MsftOfcResponsive_Fill_7823dc" fill="#7823DC"/></svg>