<svg viewBox="0 0 32 32" xmlns="http://www.w3.org/2000/svg" xmlns:xlink="http://www.w3.org/1999/xlink" id="Graphic" overflow="hidden"><defs></defs><path d="M24.98 2.05 24.98 4.05 28.98 4.05 28.98 27.95 3.02 27.95 3.02 4.05 7.02 4.05 7.02 2.05 1.02 2.05 1.02 26.02 4.96 29.95 30.98 29.95 30.98 2.05 24.98 2.05Z" fill="#7823DC"/><rect x="9.02" y="2.05" width="2" height="4" fill="#7823DC"/><rect x="13.02" y="2.05" width="2" height="4" fill="#7823DC"/><rect x="17.02" y="2.05" width="2" height="4" fill="#7823DC"/><rect x="21.02" y="2.05" width="2" height="4" fill="#7823DC"/><rect x="5.02" y="10.03" width="4" height="4" fill="#7823DC"/><rect x="11.02" y="10.03" width="4" height="4" fill="#7823DC"/><rect x="17.02" y="10.03" width="4" height="4" fill="#7823DC"/><rect x="5.02" y="16.05" width="4" height="4" fill="#7823DC"/><rect x="11.02" y="16.05" width="4" height="4" fill="#7823DC"/><rect x="17.02" y="16.05" width="4" height="4" fill="#7823DC"/><rect x="5.02" y="22.05" width="4" height="4" fill="#7823DC"/><rect x="11.02" y="22.05" width="4" height="4" fill="#7823DC"/><rect x="17.02" y="22.05" width="4" height="4" fill="#7823DC"/><rect x="23.02" y="10.04" width="4" height="4" fill="#7823DC"/><rect x="23.02" y="16.06" width="4" height="4" fill="#7823DC"/><rect x="23.02" y="22.06" width="4" height="4" fill="#7823DC"/></svg>