<svg viewBox="0 0 31.98 32.01" xmlns="http://www.w3.org/2000/svg" xmlns:xlink="http://www.w3.org/1999/xlink" id="Layer_1" overflow="hidden"><style>
.MsftOfcThm_Text2_Fill_v2 {
 fill:#7823DC; 
}
</style>
<defs></defs><path d="M27.06 32.01 17.46 32.01 12.54 23.62 17.46 15.22 27.06 15.22 31.98 23.62 27.06 32.01ZM18.61 30.01 25.92 30.01 29.67 23.62 25.92 17.22 18.61 17.22 14.86 23.62 18.61 30.01Z" class="MsftOfcThm_Text2_Fill_v2" stroke-width="0" fill="#7823DC"/><path d="M22.26 21.39C23.49 21.39 24.49 22.39 24.49 23.62 24.49 24.85 23.49 25.85 22.26 25.85 21.03 25.85 20.03 24.85 20.03 23.62 20.03 22.39 21.03 21.39 22.26 21.39M22.26 19.39C19.93 19.39 18.03 21.28 18.03 23.62 18.03 25.96 19.92 27.85 22.26 27.85 24.6 27.85 26.49 25.96 26.49 23.62 26.49 21.28 24.6 19.39 22.26 19.39L22.26 19.39Z" class="MsftOfcThm_Text2_Fill_v2" stroke-width="0" fill="#7823DC"/><path d="M14.52 16.79 4.92 16.79 0 8.4 4.92 0 14.52 0 19.44 8.4 14.52 16.79ZM6.06 14.79 13.36 14.79 17.11 8.4 13.36 2 6.06 2 2.31 8.4 6.06 14.79Z" class="MsftOfcThm_Text2_Fill_v2" stroke-width="0" fill="#7823DC"/><path d="M9.72 6.17C10.95 6.17 11.95 7.17 11.95 8.4 11.95 9.63 10.95 10.63 9.72 10.63 8.49 10.63 7.49 9.63 7.49 8.4 7.49 7.17 8.49 6.17 9.72 6.17M9.72 4.17C7.39 4.17 5.49 6.06 5.49 8.4 5.49 10.74 7.38 12.63 9.72 12.63 12.06 12.63 13.95 10.74 13.95 8.4 13.95 6.06 12.06 4.17 9.72 4.17L9.72 4.17Z" class="MsftOfcThm_Text2_Fill_v2" stroke-width="0" fill="#7823DC"/></svg>