<svg viewBox="0 0 32 32" xmlns="http://www.w3.org/2000/svg" xmlns:xlink="http://www.w3.org/1999/xlink" id="Layer_1" overflow="hidden"><g><path d="M24.3 3C24.3 3 24.2 3 24.3 3 23.8 2.1 23.3 1.5 23 1.2L22.8 1 22.7 1.1 21.4 2.1 21.8 2.5C22.1 2.8 23.4 4.4 23.5 8.8 23.5 9.5 23.4 10.3 23.3 11.1 23.3 11.2 23.2 11.4 23.2 11.5L21.7 14.8C21.5 15.1 21.3 15.4 21.1 15.7 21.1 15.7 21.1 15.7 21.1 15.8 21 16 20.9 16.1 20.7 16.3 20.7 16.3 20.7 16.3 20.7 16.3 20.6 16.4 20.5 16.6 20.4 16.7 20 17.2 19.6 17.7 19.1 18.2 19.8 18.1 20.6 18.3 21.4 18.6 21.4 18.6 21.5 18.6 21.5 18.5 21.8 18.1 22.2 17.7 22.5 17.2 22.6 17.1 22.6 17 22.7 17 22.8 16.9 22.8 16.9 22.8 16.8 22.9 16.7 22.9 16.6 23 16.6 23 16.5 23.1 16.5 23.1 16.4 24.1 14.9 24.8 13.3 25.2 11.8 25.2 11.7 25.2 11.7 25.2 11.6 25.2 11.4 25.3 11.2 25.3 11 25.4 10.3 25.5 9.6 25.5 8.9 25.4 6 24.9 4.2 24.3 3ZM23.7 14.6C23.3 15 22.8 15.2 22.5 15.2 22.4 15.2 22.3 15.2 22.2 15.1 22.1 15 22.1 14.7 22.1 14.7 22.1 14.3 22.3 14 22.6 13.6 22.8 13.4 23.4 13.2 24.1 13.1 24.1 13.8 23.9 14.4 23.7 14.6Z" fill="#7823DC"/><path d="M18.9 29C18.3 29.4 18.2 29.5 17.4 29.8 16.1 30.3 14.4 30.8 12.1 31.2 11.3 31.3 10.6 31.4 9.9 31.4 6.5 31.4 3.7 30 2.2 29.1 1.2 28.5 0.7 28 0.7 28L0.3 27.6 0.5 24.3 1.6 24.3C2.1 24.3 3.7 24.3 4.5 24.3 4.7 24.3 9.2 24.3 13.5 22.2 14.3 21.8 15 21.4 15.8 20.8 15.6 21.3 15.5 22 15.5 22.6 15.5 22.8 15.5 23.1 15.5 23.3 14.9 23.7 14.2 24 13.6 24.3 9.1 26.3 4.7 26.3 4.5 26.3 3.9 26.3 3 26.3 2.3 26.3L2.3 26.3 2.3 26.8C2.5 27 2.8 27.2 3.2 27.5 4.8 28.5 7.9 30 11.7 29.4 13.3 29.1 14.6 28.8 15.7 28.5 16.5 28.3 16.8 28.1 17.4 27.8 17.9 28 18.3 28.6 18.9 29Z" fill="#7823DC"/><path d="M24.2 0C24.3 0.1 25 1.1 25.6 1.7 25.6 1.7 25.7 1.9 25.9 1.9 26.1 2 26.4 2.2 26.7 2.3 27.1 2.5 27.5 2.7 27.9 3 28.3 3.3 28.7 3.5 29 3.8 30.7 5.3 32.3 8.4 31.9 12.8 31.7 14.3 31.1 16 30.1 17.6 29.8 18.2 29.4 18.8 29 19.3 28.7 18.9 28.4 18.6 28 18.4 27.8 18.3 27.6 18.2 27.4 18.2 27.8 17.6 28.1 17 28.5 16.5 29.3 15.1 29.8 13.7 30 12.5 30.4 8.9 29.1 6.4 27.8 5.3 27.6 5.1 27.3 4.9 27 4.7 26.6 4.5 26.2 4.3 25.9 4.1 25.6 4 25.3 3.9 25 3.7 24.6 3.5 24.4 3.2 24.2 3 22.7 1.2 22.6 1.3 22.6 1.2L24.2 0Z" fill="#7823DC"/></g><path d="M32 22.8C32 28.1 27.1 32 22.7 32L22.7 30C26.1 30 30 26.9 30 22.8 30 21.5 29.7 20.5 29.1 19.7 28.8 19.3 28.5 19 28.1 18.8 27.9 18.7 27.7 18.6 27.5 18.6 26.4 18.3 25.1 18.5 23.7 19.3 23.6 19.4 23.5 19.5 23.3 19.5L22.7 18.7 22.1 17.9C22.3 17.8 22.4 17.7 22.6 17.6L22.7 17.6C24.7 16.4 26.8 16.2 28.5 16.9 28.7 17 28.8 17 29 17.1 29.4 17.3 29.8 17.6 30.2 18 31.3 19 32 20.8 32 22.8Z" fill="#7823DC"/><path d="M23.5 17.9 23.2 18.3 22.9 18.8 22.3 19.6C22 19.4 21.6 19.2 21.3 19L21.3 19C21.3 19 21.2 19 21.1 18.9 20.3 18.6 19.5 18.4 18.8 18.5 18.3 18.5 17.9 18.7 17.5 18.9 16.9 19.3 16.3 19.8 16 20.6 15.9 20.8 15.9 20.9 15.8 21.1 15.6 21.6 15.5 22.3 15.5 22.9 15.5 23.1 15.5 23.4 15.5 23.6 15.5 23.7 15.5 23.8 15.5 23.9 15.7 25.4 16.5 26.8 17.6 27.8 18.1 28.3 18.7 28.8 19.4 29.1 20.4 29.7 21.6 30 22.7 30L22.7 32C20.8 32 18.9 31.3 17.3 30.1 16.7 29.7 16.2 29.1 15.7 28.6 15.1 27.9 14.5 27 14.2 26.1 14 25.6 13.8 25 13.7 24.5 13.6 24 13.5 23.4 13.5 22.8 13.5 22.6 13.5 22.5 13.5 22.3 13.6 20.5 14.2 19 15.2 18 15.6 17.6 16 17.2 16.5 17 17.5 16.5 18.6 16.3 19.8 16.4L19.8 16.4C20 16.4 20.2 16.5 20.4 16.5 21.1 16.6 21.7 16.9 22.4 17.2 22.5 17.3 22.6 17.3 22.7 17.4 22.7 17.4 22.8 17.4 22.8 17.5 23.1 17.7 23.3 17.8 23.5 17.9Z" fill="#7823DC"/><rect x="19.8" y="11" width="2" height="9.8" fill="#7823DC" transform="matrix(0.8696 -0.4937 0.4937 0.8696 -5.1349 12.3184)"/><rect x="4.9" y="0.5" width="2" height="6.7" fill="#7823DC" transform="matrix(0.891 -0.4541 0.4541 0.891 -1.0986 3.1046)"/><g><g><g><g><g><g><g><path d="M8 7.5C9.6 7.5 11.5 10.5 11.5 12.5 11.5 15 12.3 16.8 13 18.1 13.1 18.2 13.1 18.4 13.2 18.5 13.2 18.6 13.3 18.7 13.3 18.8 13.5 19.3 13.7 19.8 13.8 20.2L13.8 20.3C13.6 20.9 13.5 21.5 13.5 22.2L12.8 22.5C8.7 24.3 4.6 24.3 4.5 24.3 4.1 24.3 3.6 24.3 3.2 24.3 3 24 2.8 23.7 2.6 23.4 2.2 22.8 2 22.1 2 21.3 2 20.1 2.4 19.3 2.9 18.3 3.5 17 4.3 15.3 4.5 12.6 4.6 10.4 6.4 7.5 8 7.5M8 5.5C5 5.5 2.6 9.6 2.5 12.5 2.4 14.8 1.7 16.1 1.1 17.4 0.5 18.6 0 19.7 0 21.3 0 22.4 0.3 23.5 0.8 24.4 1.2 25.1 1.6 25.4 2.2 26 2.8 26 3.9 26 4.4 26 4.6 26 9.3 26 13.7 24 13.8 24.6 14.1 25.4 14.3 25.9 14.9 25.2 15.1 24.5 15.4 23.6 15.4 23.5 15.4 23.4 15.4 23.3 15.4 23.1 15.4 22.8 15.4 22.6 15.4 21.9 15.5 21.3 15.7 20.8 15.8 20.6 15.8 20.4 15.9 20.3 15.8 19.4 15.5 18.6 15.1 17.8 15 17.6 14.9 17.4 14.8 17.1 14.2 15.8 13.5 14.4 13.5 12.3 13.5 9.7 11 5.5 8 5.5L8 5.5Z" fill="#7823DC"/></g></g></g></g></g></g></g><path d="M26.4 10.8C26.3 10.8 25.9 10.8 25.3 10.9 24.7 10.9 24 11 23.3 11.2 22.5 11.4 21.7 11.7 21.3 12.2 20 13.5 19.8 15.3 20.7 16.4 20.7 16.4 20.8 16.5 20.8 16.5 21.3 17 21.9 17.2 22.5 17.2 22.5 17.2 22.5 17.2 22.5 17.2 23.4 17.2 24.3 16.8 25.1 16.1 26.4 14.7 26.4 10.8 26.4 10.8 26.4 10.8 26.4 10.8 26.4 10.8ZM22.2 15C22.1 14.9 22.1 14.6 22.1 14.6 22.1 14.2 22.3 13.9 22.6 13.5 22.8 13.3 23.4 13.1 24.1 13 24 13.7 23.8 14.3 23.6 14.5 23.2 14.9 22.7 15.1 22.4 15.1 22.4 15.1 22.3 15.1 22.2 15Z" fill="#7823DC"/></svg>