<svg viewBox="0 0 32 32" xmlns="http://www.w3.org/2000/svg" xmlns:xlink="http://www.w3.org/1999/xlink" id="Layer_3" overflow="hidden"><defs></defs><rect x="1.86035" y="14.3691" width="2" height="10.419" fill="#7823DC"/><rect x="27.8604" y="14.3691" width="2" height="10.4512" fill="#7823DC"/><path d="M29.8345 17.04 15.8603 3.06543 1.88672 17.04 0.47266 15.626 15.8603 0.2373 31.2485 15.626 29.8345 17.04Z" fill="#7823DC"/><path d="M29.875 17.0713 23.8716 11.0684 23.8477 4.36914 29.8491 4.36914 29.875 17.0713ZM25.8687 10.2363 27.8652 12.2334 27.853 6.36914 25.8545 6.36914 25.8686 10.2363Z" fill="#7823DC"/><path d="M31.7305 24.8584C31.2798 24.2959 30.5991 23.4453 29.2871 23.4453 27.9751 23.4453 27.2939 24.2949 26.8433 24.8584 26.4185 25.3877 26.27 25.5215 25.9595 25.5215 25.6484 25.5215 25.5 25.3877 25.0752 24.8574 24.624 24.2949 23.9424 23.4453 22.6304 23.4453 21.3184 23.4453 20.6367 24.2949 20.1856 24.8574 19.7607 25.3877 19.6123 25.5215 19.3013 25.5215 18.9917 25.5215 18.8438 25.3877 18.4194 24.8584 17.9688 24.2959 17.2876 23.4453 15.9761 23.4453 14.6641 23.4453 13.9824 24.2949 13.5312 24.8574 13.1065 25.3877 12.958 25.5215 12.647 25.5215 12.3359 25.5215 12.1875 25.3877 11.7627 24.8584 11.3115 24.2949 10.6299 23.4453 9.31738 23.4453 8.00488 23.4453 7.32324 24.2949 6.87207 24.8574 6.44678 25.3877 6.29834 25.5215 5.9873 25.5215 5.67431 25.5215 5.52539 25.3877 5.09912 24.8574 4.64746 24.2949 3.96484 23.4453 2.65137 23.4453 1.33838 23.4453 0.65576 24.2949 0.2041 24.8574 0.12683 24.9535 0.06665 25.0232 0.005 25.0948L0.005 27.4266C0.87884 27.1956 1.39953 26.5629 1.76367 26.1094 2.18994 25.5791 2.33887 25.4453 2.65137 25.4453 2.96436 25.4453 3.11328 25.5791 3.53955 26.1094 3.99121 26.6719 4.67383 27.5215 5.9873 27.5215 7.2998 27.5215 7.98144 26.6719 8.43261 26.1094 8.8579 25.5791 9.00634 25.4453 9.31738 25.4453 9.62842 25.4453 9.77685 25.5791 10.2022 26.1094 10.6533 26.6719 11.335 27.5215 12.647 27.5215 13.959 27.5215 14.6406 26.6719 15.0918 26.1094 15.5166 25.5791 15.665 25.4453 15.9761 25.4453 16.2856 25.4453 16.4336 25.5791 16.8579 26.1084 17.3086 26.6709 17.9897 27.5215 19.3013 27.5215 20.6133 27.5215 21.2949 26.6719 21.7461 26.1094 22.1709 25.5791 22.3193 25.4453 22.6304 25.4453 22.9414 25.4453 23.0898 25.5791 23.5147 26.1094 23.9658 26.6719 24.6475 27.5215 25.9595 27.5215 27.2715 27.5215 27.9531 26.6709 28.4038 26.1084 28.8286 25.5791 28.9771 25.4453 29.2871 25.4453 29.5972 25.4453 29.7451 25.5791 30.1699 26.1084 30.5433 26.5745 31.0807 27.2312 31.9981 27.4451L31.9981 25.1782C31.9209 25.0922 31.8344 24.9879 31.7305 24.8584Z" fill="#7823DC"/><path d="M31.7305 29.3366C31.2798 28.7741 30.5991 27.9235 29.2871 27.9235 27.9751 27.9235 27.2939 28.7732 26.8433 29.3366 26.4185 29.8659 26.27 29.9997 25.9595 29.9997 25.6484 29.9997 25.5 29.8659 25.0752 29.3357 24.624 28.7732 23.9424 27.9236 22.6304 27.9236 21.3184 27.9236 20.6367 28.7732 20.1856 29.3357 19.7607 29.8659 19.6123 29.9997 19.3013 29.9997 18.9917 29.9997 18.8438 29.8659 18.4194 29.3366 17.9688 28.7741 17.2876 27.9235 15.9761 27.9235 14.6641 27.9235 13.9824 28.7732 13.5312 29.3357 13.1065 29.8659 12.958 29.9997 12.647 29.9997 12.3359 29.9997 12.1875 29.8659 11.7627 29.3366 11.3115 28.7731 10.6299 27.9235 9.31738 27.9235 8.00488 27.9235 7.32324 28.7731 6.87207 29.3356 6.44678 29.8659 6.29834 29.9997 5.9873 29.9997 5.67431 29.9997 5.52539 29.8659 5.09912 29.3356 4.64746 28.7731 3.96484 27.9235 2.65137 27.9235 1.33838 27.9235 0.65576 28.7731 0.2041 29.3356 0.12683 29.4318 0.06665 29.5015 0.005 29.5731L0.005 31.9049C0.87884 31.6738 1.39953 31.0411 1.76367 30.5876 2.18994 30.0573 2.33887 29.9235 2.65137 29.9235 2.96436 29.9235 3.11328 30.0573 3.53955 30.5876 3.99121 31.1501 4.67383 31.9997 5.9873 31.9997 7.2998 31.9997 7.98144 31.1501 8.43261 30.5876 8.8579 30.0573 9.00634 29.9235 9.31738 29.9235 9.62842 29.9235 9.77685 30.0573 10.2022 30.5876 10.6533 31.1501 11.335 31.9997 12.647 31.9997 13.959 31.9997 14.6406 31.1501 15.0918 30.5876 15.5166 30.0573 15.665 29.9235 15.9761 29.9235 16.2856 29.9235 16.4336 30.0573 16.8579 30.5866 17.3086 31.1491 17.9897 31.9997 19.3013 31.9997 20.6133 31.9997 21.2949 31.1501 21.7461 30.5876 22.1709 30.0574 22.3193 29.9236 22.6304 29.9236 22.9414 29.9236 23.0898 30.0574 23.5147 30.5876 23.9658 31.1501 24.6475 31.9997 25.9595 31.9997 27.2715 31.9997 27.9531 31.1491 28.4038 30.5866 28.8286 30.0573 28.9771 29.9235 29.2871 29.9235 29.5972 29.9235 29.7451 30.0573 30.1699 30.5866 30.5433 31.0527 31.0807 31.7094 31.9981 31.9234L31.9981 29.6565C31.9209 29.5705 31.8344 29.4661 31.7305 29.3366Z" fill="#7823DC"/><rect x="14.8557" y="8.88221" width="2" height="9.61855" fill="#7823DC"/><path d="M11.8562 14.5246 11.8552 17.3322 15.849 21.3322 19.8479 17.3322 19.8562 14.4826 15.8618 18.5008 11.8562 14.5246Z" fill="#7823DC"/></svg>