<svg viewBox="0 0 29.22 29.22" xmlns="http://www.w3.org/2000/svg" xmlns:xlink="http://www.w3.org/1999/xlink" id="Layer_5" overflow="hidden"><defs></defs><path d="M14.7 0.1C10.15 0.1 5.9 2.26 3.16 5.88L-0.02 5.88-0.02 23.33 3.15 23.33C5.89 26.95 10.18 29.12 14.7 29.12 22.7 29.12 29.21 22.61 29.21 14.61 29.21 6.61 22.71 0.1 14.7 0.1ZM27.17 13.61 17.32 13.64 17.32 5.88 15.62 5.88 15.62 2.14C21.77 2.58 26.69 7.48 27.18 13.61ZM13.61 2.16 13.61 5.88 5.79 5.88C7.87 3.75 10.64 2.42 13.61 2.16ZM1.98 7.88 15.31 7.88 15.31 21.33 1.98 21.33 1.98 7.88ZM14.7 27.12C11.33 27.12 8.12 25.72 5.78 23.33L17.31 23.33 17.31 15.64 27.16 15.61C26.65 22.04 21.26 27.12 14.7 27.12Z" stroke-width="0" fill="#7823DC"/><path d="M10.64 10.36C10.31 10.27 9.62 10.23 8.55 10.23L5.64 10.23 5.64 19.07 7.62 19.07 7.62 15.83 8.63 15.83C9.42 15.83 10.03 15.79 10.46 15.7 10.78 15.63 11.1 15.49 11.4 15.27 11.71 15.05 11.97 14.76 12.17 14.38 12.37 14 12.47 13.54 12.47 12.99 12.47 12.28 12.29 11.69 11.95 11.24 11.61 10.79 11.16 10.49 10.65 10.35ZM10.25 13.62C10.13 13.79 9.97 13.91 9.77 14 9.55 14.08 9.11 14.13 8.44 14.13L7.62 14.13 7.62 11.94 8.33 11.94C8.94 11.94 9.36 11.96 9.56 12 9.82 12.05 10.02 12.16 10.19 12.34 10.35 12.52 10.43 12.75 10.43 13.03 10.43 13.26 10.37 13.46 10.26 13.63Z" stroke-width="0" fill="#7823DC"/></svg>