<svg viewBox="0 0 32 32" xmlns="http://www.w3.org/2000/svg" xmlns:xlink="http://www.w3.org/1999/xlink" xml:space="preserve" overflow="hidden"><style>
.MsftOfcResponsive_Fill_7823dc {
 fill:#7823DC; 
}
</style>
<g id="Layer_3"></g><g id="Layer_1"><path d="M5.68 32C2.54 32-0.02 29.44-0.02 26.3-0.02 23.16 2.54 20.6 5.68 20.6 8.82 20.6 11.38 23.16 11.38 26.3 11.38 29.45 8.82 32 5.68 32ZM5.68 22.6C3.64 22.6 1.98 24.26 1.98 26.3 1.98 28.34 3.64 30 5.68 30 7.72 30 9.38 28.34 9.38 26.3 9.38 24.26 7.72 22.6 5.68 22.6Z" class="st1 MsftOfcResponsive_Fill_7823dc" fill="#7823DC"/><path d="M16 21.66C12.86 21.66 10.3 19.1 10.3 15.96 10.3 12.82 12.86 10.26 16 10.26 19.14 10.26 21.7 12.82 21.7 15.96 21.7 19.1 19.14 21.66 16 21.66ZM16 12.26C13.96 12.26 12.3 13.92 12.3 15.96 12.3 18 13.96 19.66 16 19.66 18.04 19.66 19.7 18 19.7 15.96 19.7 13.92 18.04 12.26 16 12.26Z" class="st1 MsftOfcResponsive_Fill_7823dc" fill="#7823DC"/><path d="M26.35 11.46C23.21 11.46 20.65 8.9 20.65 5.76 20.65 2.62 23.21 0.06 26.35 0.06 29.49 0.06 32.05 2.62 32.05 5.76 32.05 8.9 29.5 11.46 26.35 11.46ZM26.35 2.06C24.31 2.06 22.65 3.72 22.65 5.76 22.65 7.8 24.31 9.46 26.35 9.46 28.39 9.46 30.05 7.8 30.05 5.76 30.05 3.72 28.39 2.06 26.35 2.06Z" class="st1 MsftOfcResponsive_Fill_7823dc" fill="#7823DC"/></g><g id="Layer_2"></g></svg>