<svg viewBox="0 0 31.89 32.21" xmlns="http://www.w3.org/2000/svg" xmlns:xlink="http://www.w3.org/1999/xlink" id="Layer_1" overflow="hidden"><style>
.MsftOfcResponsive_Fill_7823dc {
 fill:#7823DC; 
}
</style>
<defs></defs><path d="M28.44 18.65C28.49 18.38 28.51 18.1 28.51 17.82 28.51 17.07 28.33 16.37 28.02 15.74L28.03 15.74 27.96 9.17 25.96 9.19 26 13.6C25.38 13.25 24.68 13.03 23.92 12.98L23.92 10.06 27.85 6.25C28.12 6.32 28.39 6.37 28.68 6.37 30.44 6.37 31.87 4.94 31.87 3.18 31.87 1.42 30.44-0.01 28.68-0.01 26.92-0.01 25.49 1.42 25.49 3.18 25.49 3.9 25.74 4.57 26.15 5.1L21.91 9.21 21.91 12.51C21.34 11.89 20.68 11.37 19.94 10.97L19.94 9.19 17.94 9.19 17.94 10.22C17.42 10.11 16.89 10.04 16.34 10.04 16.2 10.04 16.07 10.06 15.94 10.07L15.94 9.33 17.54 6.52C17.66 6.53 17.77 6.56 17.89 6.56 19.65 6.56 21.08 5.13 21.08 3.37 21.08 1.61 19.68 0.19 17.92 0.19 16.16 0.19 14.73 1.62 14.73 3.38 14.73 4.29 15.12 5.11 15.74 5.7L13.98 8.8 13.95 10.47C13.24 10.71 12.57 11.06 11.96 11.5L11.94 7.19 9.94 7.19 9.97 13.6C9.78 13.91 9.6 14.24 9.46 14.57 9.13 14.5 8.79 14.46 8.44 14.46 8.29 14.46 8.14 14.49 7.99 14.5L7.99 9.14 5.62 5.19C6.08 4.64 6.36 3.94 6.36 3.17 6.36 1.41 4.93-0.02 3.17-0.02 1.41-0.02 0 1.43 0 3.19 0 4.95 1.43 6.38 3.19 6.38 3.45 6.38 3.7 6.34 3.94 6.28L6 9.71 6 15.11 6.07 15.11C5.17 15.62 4.46 16.41 4.03 17.35L3.99 13.19 1.99 13.21 2.06 19.76 2.08 19.76C1.28 20.64 0.8 21.79 0.8 23.03 0.8 25.7 3.32 28.21 5.99 28.21L14.98 28.21 14.98 30.21 4.02 30.21 4.02 32.21 27.94 32.21 27.94 30.21 16.98 30.21 16.98 28.21 24.51 28.21C24.76 28.23 24.98 28.24 25.18 28.24 25.38 28.24 25.54 28.24 25.71 28.23 25.87 28.23 26.03 28.22 26.22 28.22 28.86 28.22 31.17 25.8 31.17 23.04 31.17 21.14 30.09 19.46 28.44 18.66ZM28.7 2C29.35 2 29.89 2.53 29.89 3.19 29.89 3.85 29.36 4.38 28.7 4.38 28.04 4.38 27.51 3.85 27.51 3.19 27.51 2.53 28.04 2 28.7 2ZM17.92 2.19C18.57 2.19 19.11 2.72 19.11 3.38 19.11 4.04 18.58 4.57 17.92 4.57 17.26 4.57 16.73 4.04 16.73 3.38 16.73 2.72 17.26 2.19 17.92 2.19ZM2 3.19C2 2.54 2.53 2 3.19 2 3.85 2 4.38 2.53 4.38 3.19 4.38 3.85 3.85 4.38 3.19 4.38 2.53 4.38 2 3.85 2 3.19ZM26.22 26.21C26.01 26.21 25.82 26.21 25.63 26.22 25.32 26.23 25.06 26.24 24.6 26.21L5.98 26.21C4.4 26.21 2.79 24.6 2.79 23.03 2.79 21.76 3.64 20.63 4.85 20.28L5.57 20.07 5.57 19.32C5.59 17.75 6.88 16.47 8.45 16.47 8.88 16.47 9.28 16.56 9.64 16.73L10.72 17.25 11.04 16.1C11.7 13.72 13.89 12.05 16.37 12.05 18.34 12.05 20.18 13.11 21.15 14.81L21.61 15.61 22.44 15.22C22.81 15.05 23.21 14.96 23.62 14.96 25.21 14.96 26.5 16.25 26.5 17.83 26.5 18.2 26.43 18.56 26.29 18.91L25.87 19.97 26.98 20.24C28.26 20.55 29.15 21.7 29.15 23.02 29.15 24.66 27.72 26.2 26.2 26.2Z" class="MsftOfcResponsive_Fill_7823dc" fill="#7823DC"/><path d="M11.55 17.33 13.48 17.87C13.85 16.53 15.09 15.59 16.48 15.59 17.06 15.59 17.63 15.75 18.13 16.06L19.19 14.36C18.38 13.86 17.45 13.59 16.49 13.59 14.2 13.59 12.17 15.13 11.56 17.34Z" class="MsftOfcResponsive_Fill_7823dc" fill="#7823DC"/></svg>