<svg viewBox="0 0 32 32" xmlns="http://www.w3.org/2000/svg" xmlns:xlink="http://www.w3.org/1999/xlink" id="Layer_1" overflow="hidden"><style>
.MsftOfcResponsive_Fill_7823dc {
 fill:#7823DC; 
}
</style>
<defs></defs><path d="M16 29C15.85 29 15.7 28.97 15.57 28.9L0.57 21.69C0.12 21.47-0.1 20.95 0.05 20.47 0.21 19.99 0.71 19.71 1.19 19.8 10.04 21.53 21.94 21.5 30.8 19.73 31.29 19.63 31.78 19.91 31.94 20.39 32.1 20.87 31.88 21.39 31.43 21.61L16.43 28.89C16.29 28.96 16.14 28.99 15.99 28.99ZM7.26 22.69 16 26.89 24.74 22.65C19.09 23.22 12.91 23.23 7.26 22.69Z" class="MsftOfcResponsive_Fill_7823dc" fill="#7823DC"/><rect x="8" y="0" width="2" height="3.24" class="MsftOfcResponsive_Fill_7823dc" fill="#7823DC"/><rect x="30" y="20" width="2" height="12" class="MsftOfcResponsive_Fill_7823dc" fill="#7823DC"/><rect x="0" y="20.12" width="2" height="11.88" class="MsftOfcResponsive_Fill_7823dc" fill="#7823DC"/><path d="M1.47 21.47 0 20.12 5.08 14.59 5.05 10.8 7.05 10.78 7.09 15.36 1.47 21.47Z" class="MsftOfcResponsive_Fill_7823dc" fill="#7823DC"/><path d="M30.53 21.35 24.91 15.24 24.95 10.67 26.95 10.68 26.92 14.47 32 20 30.53 21.35Z" class="MsftOfcResponsive_Fill_7823dc" fill="#7823DC"/><rect x="15" y="16.99" width="2.01" height="2.01" class="MsftOfcResponsive_Fill_7823dc" fill="#7823DC"/><path d="M16.8 28.7 16 29.74 14.26 32 11.75 32 15.21 27.49 16.01 28.1 16.8 28.7Z" class="MsftOfcResponsive_Fill_7823dc" fill="#7823DC"/><path d="M20.25 32 17.73 32 16 29.74 15.21 28.7 16.01 28.1 16.8 27.49 20.25 32Z" class="MsftOfcResponsive_Fill_7823dc" fill="#7823DC"/><path d="M9 3.68 12.32 8.8 5.68 8.8 9 3.68M9 0 2 10.8 16 10.8 9 0 9 0Z" class="MsftOfcResponsive_Fill_7823dc" fill="#7823DC"/><rect x="22" y="0" width="2" height="3.24" class="MsftOfcResponsive_Fill_7823dc" fill="#7823DC"/><path d="M23 3.68 26.32 8.8 19.68 8.8 23 3.68M23 0 16 10.79 30 10.79 23 0 23 0Z" class="MsftOfcResponsive_Fill_7823dc" fill="#7823DC"/><rect x="13.91" y="8.8" width="5.09" height="1.99" class="MsftOfcResponsive_Fill_7823dc" fill="#7823DC"/></svg>