<svg viewBox="0 0 32 32" xmlns="http://www.w3.org/2000/svg" xmlns:xlink="http://www.w3.org/1999/xlink" id="Layer_1" overflow="hidden"><style>
.MsftOfcResponsive_Fill_7823dc {
 fill:#7823DC; 
}
</style>
<g><path d="M26.17 32C25.58 32 24.99 31.91 24.4 31.73L5.56 25.62C3.41 24.95 1.63 23.37 0.7 21.29-0.24 19.19-0.24 16.77 0.72 14.65 1.68 12.53 3.5 10.92 5.73 10.24 7.93 9.57 10.31 9.88 12.26 11.09L29.2 21.18C31.71 22.65 32.69 25.83 31.47 28.56 30.52 30.7 28.41 32 26.16 32ZM8.05 11.89C7.47 11.89 6.88 11.97 6.31 12.15 4.64 12.66 3.26 13.87 2.54 15.47 1.82 17.06 1.81 18.89 2.52 20.47 3.22 22.02 4.54 23.2 6.16 23.71L25 29.82C26.89 30.42 28.84 29.54 29.64 27.75 30.45 25.92 29.84 23.88 28.18 22.91L11.22 12.8C10.25 12.2 9.16 11.89 8.05 11.89Z" class="MsftOfcResponsive_Fill_7823dc" fill="#7823DC"/><path d="M8.49 21.67C6.56 21.67 5 20.1 5 18.18 5 16.26 6.57 14.69 8.49 14.69 10.41 14.69 11.98 16.26 11.98 18.18 11.98 20.1 10.41 21.67 8.49 21.67ZM8.49 16.68C7.67 16.68 7 17.35 7 18.17 7 18.99 7.67 19.66 8.49 19.66 9.31 19.66 9.98 18.99 9.98 18.17 9.98 17.35 9.31 16.68 8.49 16.68Z" class="MsftOfcResponsive_Fill_7823dc" fill="#7823DC"/></g><path d="M26.06 11.89C22.78 11.89 20.12 9.22 20.12 5.95 20.12 2.68 22.78 0 26.06 0 29.34 0 32 2.67 32 5.94 32 9.21 29.33 11.88 26.06 11.88ZM26.06 2C23.89 2 22.12 3.77 22.12 5.94 22.12 8.11 23.89 9.88 26.06 9.88 28.23 9.88 30 8.11 30 5.94 30 3.77 28.23 2 26.06 2Z" class="MsftOfcResponsive_Fill_7823dc" fill="#7823DC"/></svg>