<svg viewBox="0 0 32 32" xmlns="http://www.w3.org/2000/svg" xmlns:xlink="http://www.w3.org/1999/xlink" id="Layer_1" overflow="hidden"><g><path d="M19.5 28.5C16.4 28.5 13.4 27.3 11.1 25.2 10.3 24.5 9.6 23.7 9 22.8 7.7 20.8 7 18.4 7 16 7 14 7.5 12 8.4 10.2 9.1 8.9 10 7.8 11 6.8 13.3 4.7 16.3 3.5 19.5 3.5 26.4 3.5 32 9.1 32 16 32 22.9 26.4 28.5 19.5 28.5L19.5 28.5ZM19.5 5.5C16.8 5.5 14.3 6.5 12.4 8.3 11.5 9.1 10.8 10.1 10.2 11.1 9.4 12.6 9 14.3 9 16 9 18 9.6 20 10.7 21.7 11.2 22.5 11.8 23.1 12.4 23.7 14.3 25.5 16.9 26.4 19.5 26.4 25.3 26.5 30 21.8 30 16 30 10.2 25.3 5.5 19.5 5.5L19.5 5.5Z" fill="#7823DC" fill-rule="evenodd" clip-rule="evenodd"/><path d="M9.6 23.7 9 22.8C7.7 20.8 7 18.4 7 16 7 14 7.5 12 8.4 10.2L8.9 9.3 9.8 9.8C12.2 11.2 13.8 13.8 13.8 16.6 13.8 19.2 12.6 21.6 10.5 23L9.6 23.7 9.6 23.7 9.6 23.7ZM9.7 12.2C9.2 13.4 9 14.7 9 16 9 17.7 9.4 19.3 10.1 20.7 11.1 19.6 11.8 18.1 11.8 16.6 11.8 14.9 11 13.3 9.7 12.2L9.7 12.2Z" fill="#7823DC" fill-rule="evenodd" clip-rule="evenodd"/><path d="M11.6 25.8 11.1 25.3C10.3 24.6 9.6 23.8 9 22.9 7.7 20.9 7 18.5 7 16.1 7 14.1 7.5 12.1 8.4 10.3 9.1 9 10 7.8 11 6.9L11.5 6.4 12.1 6.8C15.5 8.7 17.6 12.3 17.6 16.2 17.6 20 15.5 23.6 12.2 25.5L11.6 25.8 11.6 25.8 11.6 25.8ZM11.8 8.9C11.2 9.6 10.6 10.4 10.2 11.2 9.4 12.7 9 14.3 9 16 9 18 9.6 20 10.7 21.7 11.1 22.2 11.5 22.7 11.9 23.2 14.2 21.6 15.7 18.9 15.7 16 15.7 13.2 14.2 10.5 11.8 8.9L11.8 8.9Z" fill="#7823DC" fill-rule="evenodd" clip-rule="evenodd"/><path d="M6.3 28.2C2.2 24.5 0.2 20.4 0.3 16.2 0.4 9.6 6.1 4.9 6.3 4.7L7.8 5.9C4.1 14.4 6.2 21.7 7.4 25.6 7.6 26.3 7.8 26.8 7.9 27.3L6.3 28.2 6.3 28.2 6.3 28.2ZM4.4 9.8C3.3 11.5 2.3 13.8 2.2 16.3 2.1 18.8 3 21.3 4.8 23.8 4 20.4 3.1 15.5 4.4 9.8L4.4 9.8Z" fill="#7823DC" fill-rule="evenodd" clip-rule="evenodd"/></g></svg>