<svg viewBox="0 0 32 32" xmlns="http://www.w3.org/2000/svg" xmlns:xlink="http://www.w3.org/1999/xlink" id="Graphic" overflow="hidden"><g><path d="M25.2 31C22.9 31 20.5 30.5 19.1 29.4 17.4 28 17.6 25.2 17.8 22.5 18 21.3 18.1 20 18 19L20 18.9C20.1 20.1 20 21.5 19.8 22.7 19.6 24.9 19.4 27.1 20.3 27.9 21.4 28.9 24.3 29.3 27 28.9 28.4 28.7 29.9 28 29.8 27.3 29.8 27.3 29.8 27.3 29.8 27.3 29.8 27.3 29.8 27.2 29.8 27.1 29 17 27 9.7 24.8 9.2 24.3 9.1 22.7 9.4 20 14.5L18.2 13.6C20.7 8.8 22.9 6.8 25.2 7.2 29.7 8.1 31.2 19.9 31.8 26.9L31.8 27.1C32 29.3 29.5 30.6 27.2 30.9 26.7 30.9 26 31 25.2 31Z" fill="#7823DC"/><path d="M6.8 31C6.1 31 5.4 31 4.7 30.9 2.4 30.6-0.1 29.3 0.1 27.2L0.1 27C0.6 20 2.2 8.2 6.7 7.3 8.9 6.8 11.2 8.9 13.7 13.7L11.9 14.6C9.2 9.4 7.6 9.1 7.1 9.2 4.9 9.6 2.9 17 2.1 27.1 2.1 27.3 2.1 27.4 2.1 27.4 2.1 28 3.6 28.7 5 28.9 7.7 29.3 10.5 28.8 11.7 27.9 12.6 27.1 12.4 24.9 12.2 22.7 12.1 21.4 12 20.1 12 18.9L14 19C13.9 20.1 14 21.3 14.2 22.5 14.4 25.2 14.7 27.9 12.9 29.4 11.5 30.5 9.1 31 6.8 31Z" fill="#7823DC"/><g><g><path d="" stroke="#787878" stroke-width="2" stroke-miterlimit="10" fill="#7823DC"/></g></g><path d="M22.4 17.6C21.9 17.1 21.2 16.7 20.5 16.3 19 15.4 17.3 14.4 16.5 12.1L16.5 11.8 16.5 2 18.5 2 18.5 11.6C19 13.1 20.2 13.8 21.5 14.6 22.3 15 23 15.5 23.7 16.1L22.4 17.6Z" fill="#7823DC"/><path d="M9.7 17.6 8.4 16.1C9.1 15.5 9.9 15 10.6 14.6 11.9 13.8 13.1 13.1 13.6 11.6L13.6 2 15.6 2 15.6 12.1C14.9 14.5 13.1 15.5 11.6 16.3 10.9 16.7 10.3 17.1 9.7 17.6Z" fill="#7823DC"/><path d="M23.7 22C21 22 19.5 20.7 18.1 19.5 17.5 19 16.9 18.4 16.2 18.1 16.2 18.1 16.1 18.1 16.1 18.1 15.4 18.5 14.7 19 14.1 19.5 12.3 20.9 10.3 22.5 6.7 21.7L7.1 19.7C9.8 20.2 11.3 19.1 12.9 17.9 13.6 17.3 14.4 16.7 15.3 16.3 15.9 16 16.7 16 17.3 16.3 18.1 16.8 18.8 17.4 19.5 18 21 19.4 22.3 20.4 25.1 19.9L25.5 21.9C24.7 22 24.2 22 23.7 22Z" fill="#7823DC"/><path d="M21.4 16 20.4 14.3C22.1 13.4 23.1 12.3 23 11.4L25 11.3C25.1 12.9 23.8 14.6 21.4 16Z" fill="#7823DC"/><path d="M10.5 16C8.1 14.6 6.8 12.9 6.9 11.2L8.9 11.3C8.8 12.2 9.8 13.3 11.5 14.2L10.5 16Z" fill="#7823DC"/><path d="M25.6 26.8C23.8 26.6 21.3 24.2 21.1 21.6L23.1 21.4C23.3 23.1 25.1 24.7 25.8 24.8L25.6 26.8Z" fill="#7823DC"/><path d="M6.2 26.8 6 24.8C6.8 24.7 8.5 23.1 8.7 21.4L10.7 21.6C10.4 24.2 7.9 26.6 6.2 26.8Z" fill="#7823DC"/></g></svg>