<svg viewBox="0 0 31.86 32" xmlns="http://www.w3.org/2000/svg" xmlns:xlink="http://www.w3.org/1999/xlink" id="Layer_1" overflow="hidden"><style>
.MsftOfcResponsive_Fill_7823dc {
 fill:#7823DC; 
}
</style>
<defs></defs><path d="M7.7 32 2.86 32 2.86 30 4.19 30 4.19 29.96C2.56 25.35 1.67 22.81 1.67 19.27L1.67 12.96C1.11 12.29-0.01 10.68-0.01 8.38 0 4.71 3.65 2.01 5.03 1.12L5.03 0 7.03 0 7.03 1.12C8.41 2.01 12.06 4.7 12.06 8.37 12.06 10.61 10.93 12.26 10.38 12.93L10.38 17.51C11.82 18.1 14.87 19.64 14.87 22.16 14.87 24.68 10.16 25.24 7.63 25.33 8.1 28.12 8.68 30.71 8.69 30.76L8.96 31.98 7.71 31.98ZM6.32 30 6.47 30C5.99 27.71 5.03 22.78 5.03 20.11L7.03 20.11C7.03 20.98 7.15 22.13 7.32 23.37 11.1 23.28 12.72 22.44 12.89 22.12 12.88 20.87 10.32 19.59 9.08 19.18L8.39 18.95 8.39 12.16C8.39 12.16 8.68 11.87 8.68 11.87 8.69 11.86 10.06 10.43 10.06 8.39 10.06 5.79 7.2 3.64 6.03 2.88 4.86 3.65 2 5.8 2 8.39 2 10.51 3.31 11.8 3.36 11.85L3.67 12.15 3.67 12.58C3.67 12.58 3.67 19.28 3.67 19.28 3.67 22.48 4.47 24.77 6.07 29.31L6.32 30.01ZM6.03 11.89C4.53 11.89 3.36 10.35 3.36 8.38 3.36 6.41 4.53 4.87 6.03 4.87 7.53 4.87 8.71 6.41 8.71 8.38 8.71 10.35 7.53 11.89 6.03 11.89ZM6.03 6.86C5.8 6.86 5.36 7.45 5.36 8.37 5.36 9.29 5.8 9.88 6.03 9.88 6.26 9.88 6.71 9.29 6.71 8.37 6.71 7.45 6.27 6.86 6.03 6.86Z" class="MsftOfcResponsive_Fill_7823dc" stroke-width="0" fill="#7823DC"/><path d="M24.7 32 19.86 32 19.86 30 21.19 30 21.19 29.96C19.56 25.35 18.67 22.81 18.67 19.27L18.67 12.96C18.11 12.29 16.99 10.68 16.99 8.38 16.99 4.71 20.64 2.02 22.02 1.13L22.02 0 24.02 0 24.02 1.12C25.4 2.01 29.05 4.7 29.05 8.37 29.05 10.61 27.92 12.26 27.37 12.93L27.37 17.51C28.81 18.1 31.86 19.64 31.86 22.16 31.86 24.68 27.15 25.24 24.62 25.33 25.09 28.12 25.67 30.71 25.68 30.76L25.95 31.98 24.7 31.98ZM23.32 30 23.47 30C22.99 27.71 22.03 22.78 22.03 20.11L24.03 20.11C24.03 20.98 24.15 22.13 24.32 23.37 28.1 23.28 29.72 22.44 29.89 22.12 29.88 20.87 27.32 19.59 26.08 19.18L25.39 18.95 25.39 12.16C25.39 12.16 25.68 11.87 25.68 11.87 25.69 11.86 27.06 10.43 27.06 8.39 27.06 5.79 24.2 3.64 23.03 2.88 21.86 3.65 19 5.8 19 8.39 19 10.51 20.31 11.8 20.36 11.85L20.67 12.15 20.67 12.58C20.67 12.58 20.67 19.28 20.67 19.28 20.67 22.48 21.47 24.77 23.07 29.31L23.32 30.01ZM23.03 11.89C21.53 11.89 20.36 10.35 20.36 8.38 20.36 6.41 21.53 4.87 23.03 4.87 24.53 4.87 25.71 6.41 25.71 8.38 25.71 10.35 24.53 11.89 23.03 11.89ZM23.03 6.86C22.8 6.86 22.36 7.45 22.36 8.37 22.36 9.29 22.8 9.88 23.03 9.88 23.26 9.88 23.71 9.29 23.71 8.37 23.71 7.45 23.27 6.86 23.03 6.86Z" class="MsftOfcResponsive_Fill_7823dc" stroke-width="0" fill="#7823DC"/></svg>