<svg viewBox="0 0 32 32" xmlns="http://www.w3.org/2000/svg" xmlns:xlink="http://www.w3.org/1999/xlink" id="Layer_5" overflow="hidden"><defs></defs><path d="M12.77 29.59C12.64 29.59 12.51 29.57 12.36 29.53 11.51 29.28 11.28 28.48 11.16 28.06 11.14 28 11.12 27.92 11.1 27.86 10.49 27.52 10.14 26.73 9.68 25.53 9.59 25.31 9.48 25.02 9.41 24.87 9.37 24.84 9.32 24.81 9.27 24.77 8.51 24.2 6.94 23.01 6.4 21.7 6.13 21.03 6.09 20.32 6.06 19.62 6.02 18.86 5.99 18.14 5.63 17.79 5.38 17.55 5.18 17.37 5 17.21 4.33 16.61 3.98 16.27 3.38 15.11 3.1 14.56 2.3 13.78 1.65 13.15 0.66 12.17 0 11.53-0.04 10.79-0.04 10.72-0.04 10.65-0.03 10.59 0.25 8.8 0.4 7.81 1.41 7.81 1.45 7.81 1.54 7.81 1.66 7.83 2.32 7.89 2.62 7.88 2.75 7.85 2.79 7.79 2.86 7.7 2.9 7.64 3.14 7.28 3.51 6.75 4.23 6.64 4.26 6.64 4.29 6.64 4.32 6.63 4.17 6.49 3.99 6.36 3.85 6.29 3.51 6.11 3.29 5.75 3.31 5.36 3.32 4.97 3.56 4.63 3.91 4.48 4.93 4.05 6.74 3.32 7.5 3.32 8.2 3.32 10.89 3.83 12.02 5.01 13.2 6.24 15.47 8.02 16.09 8.09 18.79 8 19.93 8.21 20.29 8.95 21.53 8.85 22.01 9.97 22.3 10.64 22.45 11 22.61 11.37 22.81 11.56 23.78 12.46 23.92 13.2 24.02 13.69 24.04 13.79 24.05 13.88 24.09 13.97 24.17 14.18 24.25 14.48 24.33 14.79 24.37 14.94 24.42 15.16 24.47 15.33 24.86 15.54 25.22 15.98 25.7 16.57 25.95 16.88 26.4 17.43 26.64 17.63 27.52 17.67 30.41 17.89 31.06 18.55 31.42 18.91 31.81 19.49 31.85 19.56 32.02 19.82 32.07 20.15 31.96 20.44L30.81 23.75C30.71 24.03 30.49 24.26 30.21 24.36 27.96 25.18 25.14 26.17 24.53 26.2 24.43 26.2 24.27 26.2 24.07 26.21 21.87 26.24 21.28 26.48 21.13 26.62 20.97 26.85 20.83 27.15 20.69 27.45 20.41 28.05 19.91 29.16 18.73 28.85 18.44 28.77 18.23 28.68 18.03 28.59 17.97 28.56 17.88 28.52 17.85 28.51 17.49 28.54 17.03 28.47 16.5 28.4 16.12 28.35 15.61 28.28 15.4 28.29 15.03 28.31 14.61 28.33 14.19 28.26 13.99 28.76 13.58 29.61 12.75 29.61ZM17.87 26.49C18.29 26.49 18.59 26.61 18.83 26.72 18.85 26.68 18.87 26.63 18.89 26.59 19.05 26.25 19.24 25.83 19.53 25.42 20.3 24.34 22.27 24.22 24.05 24.19 24.21 24.19 24.34 24.19 24.41 24.19 24.78 24.13 27 23.37 29.08 22.62L29.91 20.25C29.85 20.18 29.8 20.1 29.74 20.04 29.14 19.85 27 19.58 26.5 19.6 25.66 19.67 24.98 18.84 24.14 17.81 23.97 17.61 23.74 17.32 23.59 17.16 22.81 16.98 22.54 15.93 22.37 15.26 22.32 15.04 22.27 14.83 22.21 14.69 22.12 14.47 22.08 14.26 22.04 14.04 21.97 13.69 21.93 13.46 21.44 13.01 20.93 12.54 20.66 11.91 20.44 11.41 20.38 11.27 20.3 11.08 20.23 10.95 19.71 11 18.87 10.98 18.54 10.14 18.13 10.08 17.32 10.03 16.12 10.08L16.07 10.08C14.18 10.08 10.6 6.42 10.56 6.38 10.02 5.82 8.06 5.31 7.49 5.31 7.3 5.32 6.77 5.5 6.15 5.72 6.33 5.99 6.48 6.31 6.54 6.67 6.65 7.33 6.44 7.76 6.24 8 5.79 8.55 5.12 8.58 4.72 8.59L4.65 8.59C4.61 8.64 4.57 8.71 4.53 8.76 4.37 8.99 4.17 9.28 3.87 9.5 3.45 9.81 2.85 9.88 2.11 9.85 2.06 10.08 2.02 10.35 1.97 10.61 2.17 10.88 2.68 11.37 3.03 11.71 3.82 12.48 4.71 13.35 5.14 14.19 5.59 15.07 5.77 15.24 6.31 15.72 6.5 15.89 6.72 16.09 6.99 16.35 7.92 17.25 7.98 18.51 8.03 19.52 8.06 20.07 8.08 20.58 8.22 20.93 8.55 21.73 9.93 22.77 10.45 23.16 10.61 23.28 10.72 23.37 10.78 23.42 11.07 23.67 11.21 24.02 11.51 24.79 11.65 25.15 11.93 25.88 12.11 26.13 12.37 26.26 12.56 26.45 12.7 26.65 12.84 26.44 13.02 26.25 13.29 26.14 13.59 26.02 13.91 26.03 14.21 26.17 14.46 26.29 14.79 26.29 15.28 26.26 15.69 26.23 16.22 26.31 16.78 26.39 17.09 26.43 17.54 26.49 17.69 26.49 17.75 26.49 17.8 26.49 17.86 26.49ZM11.99 26.07 11.99 26.07ZM26.42 17.6C26.42 17.6 26.47 17.6 26.5 17.6 26.47 17.6 26.43 17.6 26.39 17.6L26.41 17.6Z" fill="#7823DC"/></svg>