<svg viewBox="0 0 32 32" xmlns="http://www.w3.org/2000/svg" xmlns:xlink="http://www.w3.org/1999/xlink" id="Layer_5" overflow="hidden"><defs></defs><path d="M18.25 30.34 16.01 25.57 16.09 24.81 14.68 23.03-0.76 21.28 0.69 19.81C2.6 17.88 4.83 15.52 5.09 15.08 5.33 14.5 7.01 11.14 7.2 10.76 8.75 7.03 9.28 6.65 9.48 6.5 10 6.13 12.75 4.5 13.06 4.32L13.31 4.17 19.67 4.38 24.43 6.38 24.29 8.89 24.91 10.02 25.65 10.65 27.28 13.82 26.39 15.68 25.51 15.29C24.82 14.99 23.97 14.64 23.68 14.54 23.45 14.54 22.99 14.57 22.68 14.59L21.23 15.59 21.29 15.59 21.56 15.94 23.34 15.08 24.08 15.65 25.6 15.53 27.27 22.44 28.71 23.27 28.77 24.69 30.28 25.38 30.77 30.17 18.25 30.34ZM18.06 25.22 19.52 28.32 28.56 28.2 28.41 26.72 26.83 25.99 26.76 24.44 25.53 23.73 24.06 17.66 23.48 17.71 23.1 17.42 20.97 18.45 20.34 17.64 18.09 17.74 17.65 15.63 21.99 12.62 22.27 12.62C22.27 12.62 23.54 12.54 23.76 12.54 23.87 12.54 23.99 12.54 24.44 12.7L24.04 11.92 23.32 11.3 22.26 9.34 22.35 7.67 19.23 6.36 13.82 6.18C12.72 6.84 11.12 7.8 10.69 8.08 10.39 8.46 9.59 10.17 9.01 11.58 8.47 12.66 7.1 15.42 6.89 15.91 6.71 16.35 5.58 17.64 3.53 19.75L15.71 21.13 18.14 24.2 18.03 25.22ZM10.73 8.06 10.73 8.06ZM10.73 8.06 10.73 8.06Z" fill="#7823DC"/><path d="M24.34 6.29 23.7 3.89 24.97 3.4 28.06 3.86 24.34 6.29Z" fill="#7823DC"/><path d="M27.96 13.97 26.77 11.95 25.76 10.03 24.43 8.69 25.03 7.61 24.38 6.76 26.85 4.88 29.48 5.71 30.67 7.77 31.92 8.14 31.54 11.26 27.97 13.98ZM27.66 9.36 28.54 11.02 29.66 10.17 29.73 9.57 29.34 9.46 28.54 8.08 28.59 9.55 27.66 9.36Z" fill="#7823DC"/><path d="M30.03 16.51 29.37 15.98 28.09 15.82 28.41 14.13 30.18 13.07 31.94 15.39 30.03 16.51Z" fill="#7823DC"/></svg>