<svg viewBox="0 0 32 32" xmlns="http://www.w3.org/2000/svg" xmlns:xlink="http://www.w3.org/1999/xlink" id="Layer_3" overflow="hidden"><defs></defs><rect x="1.90723" y="14.3691" width="2" height="10.419" fill="#7823DC"/><rect x="27.9072" y="14.3691" width="2" height="10.4512" fill="#7823DC"/><path d="M1.93262 17.04 0.51855 15.626 15.9072 0.2373 31.2949 15.626 29.8809 17.04 15.9072 3.06543 1.93262 17.04Z" fill="#7823DC"/><path d="M29.9209 17.0713 23.917 11.0684 23.8936 4.36914 29.8955 4.36914 29.9209 17.0713ZM25.915 10.2363 27.9111 12.2334 27.8994 6.36914 25.9014 6.36914 25.915 10.2363Z" fill="#7823DC"/><path d="M31.7768 24.8584C31.3262 24.2959 30.6455 23.4453 29.3335 23.4453 28.0215 23.4453 27.3403 24.2949 26.8896 24.8584 26.4648 25.3877 26.3164 25.5215 26.0058 25.5215 25.6948 25.5215 25.5464 25.3877 25.1215 24.8574 24.6704 24.2949 23.9887 23.4453 22.6767 23.4453 21.3647 23.4453 20.6831 24.2949 20.2319 24.8574 19.8071 25.3877 19.6587 25.5215 19.3476 25.5215 19.0381 25.5215 18.8901 25.3877 18.4658 24.8584 18.0151 24.2959 17.334 23.4453 16.0224 23.4453 14.7104 23.4453 14.0288 24.2949 13.5776 24.8574 13.1528 25.3877 13.0044 25.5215 12.6933 25.5215 12.3823 25.5215 12.2339 25.3877 11.809 24.8584 11.3579 24.2949 10.6762 23.4453 9.36374 23.4453 8.05124 23.4453 7.3696 24.2949 6.91843 24.8574 6.49314 25.3877 6.3447 25.5215 6.03366 25.5215 5.72067 25.5215 5.57175 25.3877 5.14548 24.8574 4.69382 24.2949 4.0112 23.4453 2.69773 23.4453 1.38474 23.4453 0.70212 24.2949 0.25046 24.8574 0.17319 24.9535 0.11301 25.0232 0.05136 25.0948L0.05136 27.4266C0.9252 27.1956 1.44589 26.5629 1.81003 26.1094 2.2363 25.5791 2.38523 25.4453 2.69773 25.4453 3.01072 25.4453 3.15964 25.5791 3.58591 26.1094 4.03757 26.6719 4.72019 27.5215 6.03366 27.5215 7.34616 27.5215 8.0278 26.6719 8.47897 26.1094 8.90426 25.5791 9.0527 25.4453 9.36374 25.4453 9.67478 25.4453 9.82321 25.5791 10.2485 26.1094 10.6997 26.6719 11.3813 27.5215 12.6933 27.5215 14.0053 27.5215 14.687 26.6719 15.1382 26.1094 15.563 25.5791 15.7114 25.4453 16.0224 25.4453 16.332 25.4453 16.4799 25.5791 16.9043 26.1084 17.3549 26.6709 18.0361 27.5215 19.3476 27.5215 20.6596 27.5215 21.3413 26.6719 21.7924 26.1094 22.2173 25.5791 22.3657 25.4453 22.6767 25.4453 22.9878 25.4453 23.1362 25.5791 23.561 26.1094 24.0122 26.6719 24.6938 27.5215 26.0058 27.5215 27.3178 27.5215 27.9995 26.6709 28.4502 26.1084 28.875 25.5791 29.0234 25.4453 29.3335 25.4453 29.6435 25.4453 29.7915 25.5791 30.2163 26.1084 30.5897 26.5745 31.1271 27.2312 32.0445 27.4451L32.0445 25.1782C31.9673 25.0922 31.8807 24.9879 31.7768 24.8584Z" fill="#7823DC"/><path d="M31.7768 29.3366C31.3262 28.7741 30.6455 27.9235 29.3335 27.9235 28.0215 27.9235 27.3403 28.7732 26.8896 29.3366 26.4648 29.8659 26.3164 29.9997 26.0058 29.9997 25.6948 29.9997 25.5464 29.8659 25.1215 29.3357 24.6704 28.7732 23.9887 27.9236 22.6767 27.9236 21.3647 27.9236 20.6831 28.7732 20.2319 29.3357 19.8071 29.8659 19.6587 29.9997 19.3476 29.9997 19.0381 29.9997 18.8901 29.8659 18.4658 29.3366 18.0151 28.7741 17.334 27.9235 16.0224 27.9235 14.7104 27.9235 14.0288 28.7732 13.5776 29.3357 13.1528 29.8659 13.0044 29.9997 12.6933 29.9997 12.3823 29.9997 12.2339 29.8659 11.809 29.3366 11.3579 28.7731 10.6762 27.9235 9.36374 27.9235 8.05124 27.9235 7.3696 28.7731 6.91843 29.3356 6.49314 29.8659 6.3447 29.9997 6.03366 29.9997 5.72067 29.9997 5.57175 29.8659 5.14548 29.3356 4.69382 28.7731 4.0112 27.9235 2.69773 27.9235 1.38474 27.9235 0.70212 28.7731 0.25046 29.3356 0.17319 29.4318 0.11301 29.5015 0.05136 29.5731L0.05136 31.9049C0.9252 31.6738 1.44589 31.0411 1.81003 30.5876 2.2363 30.0573 2.38523 29.9235 2.69773 29.9235 3.01072 29.9235 3.15964 30.0573 3.58591 30.5876 4.03757 31.1501 4.72019 31.9997 6.03366 31.9997 7.34616 31.9997 8.0278 31.1501 8.47897 30.5876 8.90426 30.0573 9.0527 29.9235 9.36374 29.9235 9.67478 29.9235 9.82321 30.0573 10.2485 30.5876 10.6997 31.1501 11.3813 31.9997 12.6933 31.9997 14.0053 31.9997 14.687 31.1501 15.1382 30.5876 15.563 30.0573 15.7114 29.9235 16.0224 29.9235 16.332 29.9235 16.4799 30.0573 16.9043 30.5866 17.3549 31.1491 18.0361 31.9997 19.3476 31.9997 20.6596 31.9997 21.3413 31.1501 21.7924 30.5876 22.2173 30.0574 22.3657 29.9236 22.6767 29.9236 22.9878 29.9236 23.1362 30.0574 23.561 30.5876 24.0122 31.1501 24.6938 31.9997 26.0058 31.9997 27.3178 31.9997 27.9995 31.1491 28.4502 30.5866 28.875 30.0573 29.0234 29.9235 29.3335 29.9235 29.6435 29.9235 29.7915 30.0573 30.2163 30.5866 30.5897 31.0527 31.1271 31.7094 32.0445 31.9234L32.0445 29.6565C31.9673 29.5705 31.8807 29.4661 31.7768 29.3366Z" fill="#7823DC"/></svg>