<svg viewBox="0 0 32 32" xmlns="http://www.w3.org/2000/svg" xmlns:xlink="http://www.w3.org/1999/xlink" xml:space="preserve" overflow="hidden"><style>
.MsftOfcResponsive_Fill_7823dc {
 fill:#7823DC; 
}
</style>
<g id="Layer_3"></g><g id="Layer_1"></g><g id="Layer_2"></g><g id="Layer_4"></g><g id="Layer_5"><g id="g3922"><path d="M32.06 32.06-0.06 32.06-0.06-0.06 32.06-0.06 32.06 32.06ZM1.94 30.06 30.06 30.06 30.06 1.94 1.94 1.94 1.94 30.06Z" class="MsftOfcResponsive_Fill_7823dc" fill="#7823DC"/><g id="g3930" transform="translate(15 76.2525)"><rect x="-14.06" y="-50.02" width="30.12" height="2" class="MsftOfcResponsive_Fill_7823dc" fill="#7823DC"/></g><g id="g3934" transform="translate(15 379.569)"><rect x="-14.06" y="-372.29" width="30.12" height="2" class="MsftOfcResponsive_Fill_7823dc" fill="#7823DC"/></g></g><g id="g3938" transform="translate(359.183 439.111)"><rect x="-336.73" y="-435.56" width="1.88" height="2" class="MsftOfcResponsive_Fill_7823dc" fill="#7823DC"/></g><g id="g3942" transform="translate(419.503 439.111)"><rect x="-393.28" y="-435.56" width="1.88" height="2" class="MsftOfcResponsive_Fill_7823dc" fill="#7823DC"/></g><g id="g3946" transform="translate(60.001 439.111)"><rect x="-56.25" y="-435.56" width="6.5" height="2" class="MsftOfcResponsive_Fill_7823dc" fill="#7823DC"/></g><path d="M19.52 12.67 12.47 12.67 12.47 7.27 19.52 7.27 19.52 12.67ZM14.48 10.67 17.53 10.67 17.53 9.27 14.48 9.27 14.48 10.67Z" class="MsftOfcResponsive_Fill_7823dc" fill="#7823DC"/><g id="g3952" transform="translate(256 325.215)"><rect x="-241" y="-313.54" width="2" height="2.73" class="MsftOfcResponsive_Fill_7823dc" fill="#7823DC"/></g><g id="g3958"><g id="g3964" transform="translate(318.572 140.176)"><path d="M-302.57-111.94C-305.42-111.94-307.73-114.26-307.73-117.1-307.73-119.94-305.41-122.26-302.57-122.26-299.73-122.26-297.41-119.94-297.41-117.1-297.41-114.26-299.73-111.94-302.57-111.94ZM-302.57-120.26C-304.31-120.26-305.73-118.84-305.73-117.1-305.73-115.36-304.31-113.94-302.57-113.94-300.83-113.94-299.41-115.36-299.41-117.1-299.41-118.84-300.83-120.26-302.57-120.26Z" class="MsftOfcResponsive_Fill_7823dc" fill="#7823DC"/></g></g></g></svg>