<svg viewBox="0 0 32.09 32.19" xmlns="http://www.w3.org/2000/svg" xmlns:xlink="http://www.w3.org/1999/xlink" id="Outline_Final_icon" overflow="hidden"><defs></defs><path d="M31.09 14.01C28.99 14.01 26.62 12.88 25.97 12.55L22.42 8.09 21.67 7.78 23.61 4.88C24.05 4.23 24.21 3.44 24.06 2.66 23.91 1.87 23.46 1.19 22.8 0.76L22.42 0.5C21.75 0.06 20.95-0.1 20.17 0.05 19.38 0.21 18.7 0.66 18.26 1.32L15.41 5.57 10.67 6.3 4.14 14.54C3.18 15.71 1.91 18.18 3.24 19.96 3.7 20.58 4.34 20.82 5.06 20.82 5.11 20.82 5.16 20.81 5.2 20.8L5.01 21.08 5.46 21.38 5.14 26.46 9.83 24.3 10.34 24.64 12.32 21.68 18.12 21.68C18.76 22.44 20.24 23.9 22.3 23.9 24.25 23.9 25.77 23.38 26.32 23.17L32.07 23.17 32.07 13.98 31.07 13.98ZM4.84 18.77C4.35 18.11 5.01 16.63 5.69 15.8L11.75 8.17 13.9 7.84 7.05 18.06C6.09 18.68 5 19 4.84 18.78ZM9.8 21.89 7.78 20.54 19.92 2.44C20.07 2.22 20.29 2.07 20.55 2.02 20.81 1.97 21.08 2.02 21.29 2.16L21.66 2.42C21.88 2.57 22.03 2.79 22.08 3.05 22.13 3.3 22.08 3.56 21.94 3.76L13.73 16.01C12.32 15.9 11.4 16.11 10.79 16.66 10.03 17.33 10.03 18.28 10.03 18.85 10.03 19.04 10.06 19.24 10.11 19.43 10.12 19.48 10.14 19.54 10.15 19.59 10.2 19.74 10.26 19.89 10.33 20.04 10.35 20.08 10.36 20.12 10.38 20.16 10.46 20.31 10.56 20.45 10.67 20.59L9.79 21.9ZM30.09 21.2 25.92 21.2C25.92 21.2 25.73 21.29 25.73 21.29 25.72 21.29 24.27 21.93 22.32 21.93 20.68 21.93 19.47 20.17 19.46 20.16L19.16 19.71 12.63 19.71 12.59 19.67C12.46 19.57 12.04 19.21 12.04 18.85 12.04 18.67 12.04 18.23 12.12 18.16 12.16 18.13 12.51 17.87 14.11 18.06L14.29 18.08C14.29 18.08 14.38 18.09 14.44 18.1L14.67 18.14 14.7 18.14C14.7 18.14 14.73 18.14 14.73 18.14L14.73 18.14C14.73 18.14 14.89 18.08 14.89 18.08 15.52 17.88 16.11 17.53 16.69 17.18 18.19 16.28 18.68 16.12 19.3 16.75L20.72 15.34C19.46 14.07 18.14 14.24 17.01 14.73L20.53 9.48 21.17 9.75 24.65 14.12 24.83 14.22C24.95 14.28 27.45 15.65 30.08 15.95L30.08 21.2Z" fill="#7823DC"/><path d="M16.12 29.27 14.09 27.18 12.34 29.14 10.56 27.17 8.8 29.16 6.86 27.14 5.3 29.07 3.67 27.18 1.52 29.32 0 28.22 0 30.69 1.72 31.95 3.55 30.12 5.35 32.19 6.99 30.16 8.86 32.11 10.57 30.17 12.35 32.13 14.15 30.12 15.98 32 19.07 29.42 17.79 27.88 16.12 29.27Z" fill="#7823DC"/></svg>