<svg width="36.5" height="36.5" viewBox="0 0 36.5 36.5" xmlns="http://www.w3.org/2000/svg" xmlns:xlink="http://www.w3.org/1999/xlink" overflow="hidden"><defs></defs><g><g><defs><path d="M0 36.5 36.5 36.5 36.5 0 0 0 0 36.5Z" id="SVGID_1_" fill="#7823DC"/></defs><clipPath id="SVGID_2_"><use width="100%" height="100%" xlink:href="#SVGID_1_"></use></clipPath><g clip-path="url(#SVGID_2_)"><defs><path d="M0 36.5 36.5 36.5 36.5 0 0 0 0 36.5Z" id="SVGID_3_" fill="#7823DC"/></defs><clipPath id="SVGID_4_"><use width="100%" height="100%" xlink:href="#SVGID_3_"></use></clipPath><path d="M23.9 20C22.1 20 20.4 19.3 19.1 18 16.4 15.3 16.4 11 19.1 8.3 20.4 7 22.1 6.3 23.9 6.3 23.9 6.3 23.9 6.3 23.9 6.3 25.7 6.3 27.4 7 28.7 8.3 31.4 11 31.4 15.3 28.7 18 27.4 19.3 25.7 20 23.9 20ZM23.9 8.6C22.7 8.6 21.5 9.1 20.7 9.9 18.9 11.7 18.9 14.6 20.7 16.4 21.6 17.3 22.7 17.7 23.9 17.7 25.1 17.7 26.3 17.2 27.1 16.4 28.9 14.6 28.9 11.7 27.1 9.9 26.2 9.1 25.1 8.6 23.9 8.6L23.9 8.6Z" fill="#7823DC" clip-path="url(#SVGID_4_)"/><path d="M25.5 11.4C25 11.4 24.6 11.6 24.3 11.9 23.6 12.6 23.6 13.6 24.3 14.3 24.3 14.3 24.3 14.3 24.3 14.3 25 15 26 15 26.7 14.3 27.4 13.6 27.4 12.6 26.7 11.9 26.7 11.9 26.7 11.9 26.7 11.9 26.4 11.6 26 11.4 25.5 11.4L25.5 11.4Z" fill="#7823DC" clip-path="url(#SVGID_4_)"/><path d="M8.6 30.1 5.4 30.1 19 16.4 20.7 18 8.6 30.1 8.6 30.1Z" fill="#7823DC" clip-path="url(#SVGID_4_)"/></g></g></g></svg>