<svg viewBox="0 0 32 32" xmlns="http://www.w3.org/2000/svg" xmlns:xlink="http://www.w3.org/1999/xlink" xml:space="preserve" overflow="hidden"><style>
.MsftOfcResponsive_Fill_7823dc {
 fill:#7823DC; 
}
</style>
<g id="Layer_3"></g><g id="Layer_1"></g><g id="Layer_2"></g><g id="Layer_4"></g><g id="Layer_5"><path d="M6.42 15.92C3.82 15.92 1.71 13.81 1.71 11.21 1.71 8.61 3.83 6.5 6.42 6.5 9.01 6.5 11.13 8.61 11.13 11.21 11.13 13.81 9.02 15.92 6.42 15.92ZM6.42 8.5C4.93 8.5 3.71 9.71 3.71 11.21 3.71 12.71 4.93 13.92 6.42 13.92 7.91 13.92 9.13 12.7 9.13 11.21 9.13 9.72 7.92 8.5 6.42 8.5Z" class="MsftOfcResponsive_Fill_7823dc" fill="#7823DC"/><path d="M25.92 19.5C23.32 19.5 21.21 17.39 21.21 14.79 21.21 12.19 23.32 10.08 25.92 10.08 28.52 10.08 30.63 12.19 30.63 14.79 30.63 17.39 28.51 19.5 25.92 19.5ZM25.92 12.09C24.43 12.09 23.21 13.31 23.21 14.8 23.21 16.29 24.42 17.51 25.92 17.51 27.42 17.51 28.63 16.3 28.63 14.8 28.63 13.3 27.41 12.09 25.92 12.09Z" class="MsftOfcResponsive_Fill_7823dc" fill="#7823DC"/><path d="M22.38 31.99 9.84 31.99 16.11 21.13 22.38 31.99ZM13.31 29.99 18.92 29.99 16.12 25.13 13.31 29.99Z" class="MsftOfcResponsive_Fill_7823dc" fill="#7823DC"/><path d="M31.99 22.05 0 16.43 0 18.46 31.99 24.02C32 23.9 31.99 22.05 31.99 22.05Z" class="MsftOfcResponsive_Fill_7823dc" fill="#7823DC"/><path d="M31.99 24.02C32 23.9 32 22.05 32 22.05L-0.13 16.4" class="MsftOfcResponsive_Fill_7823dc" fill="#7823DC"/><path d="M32 24.03C32 23.9 32 22.06 32 22.06L-0.13 16.41" class="MsftOfcResponsive_Fill_7823dc" fill="#7823DC"/></g></svg>