<svg viewBox="0 0 32.13 32" xmlns="http://www.w3.org/2000/svg" xmlns:xlink="http://www.w3.org/1999/xlink" id="Layer_1" overflow="hidden"><style>
.MsftOfcThm_Text2_Fill_v2 {
 fill:#7823DC; 
}
</style>
<path d="M27.95 32 25.95 32 25.95 29.81C25.95 28.89 25.76 28.18 25.37 27.66 24.92 27.06 24.25 26.64 23.5 26.47L17.65 25.21 17.65 16.66C17.65 16.26 17.49 15.88 17.19 15.59 16.59 15.01 15.51 15.01 14.91 15.59 14.61 15.88 14.45 16.26 14.45 16.66L14.45 31.02 10.82 28.38C10.6 28.22 10.33 28.14 10.05 28.16 9.78 28.18 9.52 28.29 9.33 28.48 9.13 28.67 9.02 28.89 9.02 29.07L9.02 31.98 7.02 31.98 7.02 29.07C7.02 28.34 7.35 27.62 7.94 27.04 8.47 26.52 9.17 26.21 9.92 26.16 10.67 26.11 11.4 26.32 12 26.75L12.46 27.08 12.46 16.64C12.46 15.71 12.85 14.79 13.52 14.14 14.88 12.82 17.24 12.82 18.59 14.14 19.27 14.8 19.65 15.71 19.65 16.64L19.65 23.57 23.92 24.49C25.14 24.75 26.23 25.44 26.97 26.43 27.63 27.31 27.95 28.41 27.95 29.78L27.95 31.97Z" class="MsftOfcThm_Text2_Fill_v2" fill="#7823DC"/><path d="M16.1 9.07C15.49 9.07 14.9 8.96 14.33 8.73 13.76 8.5 13.26 8.17 12.83 7.75 12.39 7.33 12.05 6.83 11.82 6.28 11.58 5.72 11.46 5.14 11.46 4.53 11.46 3.92 11.58 3.34 11.82 2.78 12.06 2.23 12.4 1.73 12.83 1.31 13.26 0.89 13.77 0.56 14.34 0.33 15.46-0.12 16.75-0.12 17.87 0.33 18.43 0.56 18.94 0.89 19.37 1.31 19.81 1.73 20.15 2.23 20.38 2.78 20.62 3.34 20.74 3.92 20.74 4.53 20.74 5.14 20.62 5.72 20.38 6.28 20.14 6.83 19.8 7.33 19.37 7.75 18.94 8.17 18.43 8.5 17.87 8.73 17.31 8.96 16.71 9.07 16.1 9.07ZM16.1 2C15.75 2 15.41 2.07 15.08 2.2 14.76 2.33 14.47 2.52 14.22 2.76 13.98 3 13.79 3.27 13.65 3.58 13.52 3.89 13.45 4.21 13.45 4.54 13.45 4.87 13.52 5.19 13.65 5.5 13.78 5.81 13.97 6.09 14.22 6.32 14.47 6.56 14.75 6.75 15.08 6.88 15.73 7.14 16.47 7.14 17.12 6.88 17.44 6.75 17.73 6.56 17.98 6.32 18.22 6.08 18.41 5.81 18.55 5.5 18.68 5.19 18.75 4.87 18.75 4.54 18.75 4.21 18.68 3.88 18.55 3.58 18.42 3.27 18.23 2.99 17.98 2.76 17.73 2.52 17.45 2.33 17.12 2.2 16.8 2.07 16.45 2 16.1 2Z" class="MsftOfcThm_Text2_Fill_v2" fill="#7823DC"/><path d="M18.74 11.39C17.95 10.9 17.04 10.65 16.11 10.64L16.09 10.64C15.16 10.64 14.26 10.89 13.47 11.37L12.43 9.66C13.53 8.99 14.79 8.64 16.09 8.64L16.11 8.64C17.41 8.64 18.69 9.01 19.79 9.69L18.74 11.39Z" class="MsftOfcThm_Text2_Fill_v2" fill="#7823DC"/><path d="M6.08 18.17C5.47 18.17 4.88 18.05 4.31 17.83 3.75 17.6 3.24 17.27 2.81 16.85 2.37 16.43 2.03 15.93 1.8 15.38 1.56 14.82 1.44 14.24 1.44 13.63 1.44 13.02 1.56 12.44 1.8 11.88 2.04 11.33 2.38 10.83 2.81 10.41 3.24 9.99 3.75 9.66 4.31 9.43 5.44 8.98 6.72 8.98 7.84 9.43 8.4 9.66 8.91 9.99 9.34 10.41 9.78 10.83 10.12 11.33 10.35 11.88 10.59 12.44 10.71 13.02 10.71 13.63 10.71 14.24 10.59 14.82 10.35 15.38 10.11 15.93 9.77 16.43 9.34 16.85 8.91 17.27 8.4 17.6 7.84 17.83 7.28 18.06 6.68 18.17 6.07 18.17ZM6.08 11.1C5.73 11.1 5.39 11.17 5.06 11.3 4.74 11.43 4.45 11.62 4.2 11.86 3.96 12.1 3.76 12.37 3.63 12.68 3.5 12.99 3.43 13.31 3.43 13.64 3.43 13.97 3.5 14.29 3.63 14.6 3.76 14.91 3.95 15.19 4.2 15.42 4.45 15.66 4.74 15.85 5.06 15.98 5.71 16.24 6.45 16.24 7.1 15.98 7.42 15.85 7.71 15.66 7.96 15.42 8.2 15.18 8.4 14.91 8.53 14.6 8.66 14.29 8.73 13.97 8.73 13.64 8.73 13.31 8.66 12.99 8.53 12.68 8.4 12.37 8.21 12.09 7.96 11.86 7.71 11.62 7.42 11.43 7.1 11.3 6.78 11.17 6.43 11.1 6.08 11.1Z" class="MsftOfcThm_Text2_Fill_v2" fill="#7823DC"/><path d="M1.75 22.27 0 21.31C0.85 19.76 2.27 18.61 3.99 18.07 5.7 17.54 7.54 17.68 9.15 18.46L8.28 20.26C7.13 19.7 5.82 19.6 4.59 19.98 3.37 20.36 2.36 21.17 1.76 22.27Z" class="MsftOfcThm_Text2_Fill_v2" fill="#7823DC"/><rect x="22.42" y="5.05" width="3.96" height="2" class="MsftOfcThm_Text2_Fill_v2" fill="#7823DC"/><rect x="22.35" y="0.5" width="4.09" height="2" class="MsftOfcThm_Text2_Fill_v2" fill="#7823DC" transform="matrix(0.968886 -0.247506 0.247506 0.968886 0.39 6.09)"/><g><rect x="5.76" y="5.05" width="3.96" height="2" class="MsftOfcThm_Text2_Fill_v2" fill="#7823DC"/><rect x="6.74" y="-0.54" width="2" height="4.09" class="MsftOfcThm_Text2_Fill_v2" fill="#7823DC" transform="matrix(0.247337 -0.968929 0.968929 0.247337 4.37 8.63)"/></g><path d="M26.06 18.17C25.45 18.17 24.86 18.05 24.29 17.83 23.73 17.6 23.22 17.27 22.79 16.85 22.35 16.43 22.01 15.93 21.78 15.38 21.54 14.82 21.42 14.24 21.42 13.63 21.42 13.02 21.54 12.44 21.78 11.88 22.02 11.33 22.36 10.83 22.79 10.41 23.22 9.99 23.73 9.66 24.29 9.43 25.42 8.98 26.7 8.98 27.82 9.43 28.38 9.66 28.89 9.99 29.32 10.41 29.76 10.83 30.1 11.33 30.33 11.88 30.57 12.44 30.69 13.02 30.69 13.63 30.69 14.24 30.57 14.82 30.33 15.38 30.09 15.94 29.75 16.43 29.32 16.85 28.89 17.27 28.38 17.6 27.82 17.83 27.26 18.06 26.66 18.17 26.05 18.17ZM26.06 11.1C25.71 11.1 25.37 11.17 25.04 11.3 24.72 11.43 24.43 11.62 24.18 11.86 23.94 12.1 23.74 12.37 23.61 12.68 23.48 12.99 23.41 13.31 23.41 13.64 23.41 13.97 23.48 14.29 23.61 14.6 23.74 14.91 23.93 15.19 24.18 15.42 24.43 15.66 24.71 15.85 25.04 15.98 25.69 16.24 26.43 16.24 27.08 15.98 27.4 15.85 27.69 15.66 27.94 15.42 28.18 15.18 28.37 14.91 28.51 14.6 28.64 14.29 28.71 13.97 28.71 13.64 28.71 13.31 28.64 12.98 28.51 12.68 28.38 12.37 28.19 12.1 27.94 11.86 27.69 11.62 27.4 11.43 27.08 11.3 26.75 11.17 26.41 11.1 26.06 11.1Z" class="MsftOfcThm_Text2_Fill_v2" fill="#7823DC"/><path d="M30.38 22.27C29.78 21.17 28.77 20.36 27.55 19.98 26.32 19.6 25.01 19.7 23.86 20.26L22.99 18.46C24.6 17.68 26.43 17.54 28.15 18.07 29.87 18.6 31.29 19.75 32.14 21.31L30.39 22.27Z" class="MsftOfcThm_Text2_Fill_v2" fill="#7823DC"/></svg>