<svg viewBox="0 0 32 32.06" xmlns="http://www.w3.org/2000/svg" xmlns:xlink="http://www.w3.org/1999/xlink" id="Layer_1" overflow="hidden"><style>
.MsftOfcResponsive_Fill_7823dc {
 fill:#7823DC; 
}
</style>
<defs></defs><path d="M27 2.06 27 0 25 0 25 2.06 23 2.06 23 0 21 0 21 2.06 18.18 2.06C17.04 2.06 16.11 2.94 16.01 4.06L15.95 4.06C15.76 2.93 14.78 2.06 13.59 2.06L10.99 2.06 10.99 0 8.99 0 8.99 2.06 6.99 2.06 6.99 0 4.99 0 4.99 2.06 0 2.06 0 32.06 13.78 32.06C14.93 32.06 15.87 31.18 15.98 30.06L16.03 30.06C16.14 31.18 17.08 32.06 18.23 32.06L32.01 32.06 32.01 2.06 27.01 2.06ZM30 30.06 18.22 30.06C18.1 30.06 18 29.96 18 29.84L18 28.06 14 28.06 14 29.84C14 29.96 13.9 30.06 13.78 30.06L2 30.06 2 4.06 5 4.06 5 6.12 7 6.12 7 4.06 9 4.06 9 6.12 11 6.12 11 4.06 13.6 4.06C13.82 4.06 14 4.24 14 4.46L14 6.06 18 6.06 18 4.24C18 4.14 18.08 4.06 18.18 4.06L21 4.06 21 6.12 23 6.12 23 4.06 25 4.06 25 6.12 27 6.12 27 4.06 30 4.06 30 30.06Z" class="MsftOfcResponsive_Fill_7823dc" fill="#7823DC"/><rect x="15" y="24.06" width="2" height="2" class="MsftOfcResponsive_Fill_7823dc" fill="#7823DC"/><rect x="15" y="20.06" width="2" height="2" class="MsftOfcResponsive_Fill_7823dc" fill="#7823DC"/><rect x="15" y="16.06" width="2" height="2" class="MsftOfcResponsive_Fill_7823dc" fill="#7823DC"/><rect x="15" y="12.06" width="2" height="2" class="MsftOfcResponsive_Fill_7823dc" fill="#7823DC"/><rect x="15" y="8.06" width="2" height="2" class="MsftOfcResponsive_Fill_7823dc" fill="#7823DC"/><path d="M5.25 14.21 5.25 16.34 6.74 15.45 6.74 21.03 9.32 21.03 9.32 12.92 7.11 12.92 5.25 14.21Z" class="MsftOfcResponsive_Fill_7823dc" fill="#7823DC"/><path d="M22.49 12.83C20.32 12.83 18.66 14.26 18.66 16.85L18.66 17.17C18.66 19.75 20.11 21.21 22.45 21.21 24.79 21.21 26.34 19.71 26.34 17.11L26.34 16.8C26.34 14.11 24.65 12.83 22.5 12.83ZM23.78 17.15C23.78 18.56 23.43 19.22 22.52 19.22 21.61 19.22 21.21 18.57 21.21 17.16L21.21 16.84C21.21 15.43 21.58 14.78 22.5 14.78 23.42 14.78 23.78 15.44 23.78 16.86L23.78 17.15Z" class="MsftOfcResponsive_Fill_7823dc" fill="#7823DC"/></svg>