<svg viewBox="0 0 32 32" xmlns="http://www.w3.org/2000/svg" xmlns:xlink="http://www.w3.org/1999/xlink" id="Layer_1" overflow="hidden"><g><path d="M14.3 32C8.8 32 4.3 27.5 4.3 22 4.3 16.5 8.8 12 14.3 12 19.8 12 24.3 16.5 24.3 22 24.3 27.5 19.9 32 14.3 32L14.3 32ZM14.3 13.9C9.9 13.9 6.3 17.5 6.3 21.9 6.3 26.3 9.9 29.9 14.3 29.9 18.7 29.9 22.3 26.3 22.3 21.9 22.4 17.5 18.8 13.9 14.3 13.9L14.3 13.9Z" fill="#7823DC" fill-rule="evenodd" clip-rule="evenodd"/><path d="M14.2 32C11.1 32 9.5 27 9.5 22 9.5 17 11.1 12 14.2 12 17.3 12 18.9 17 18.9 22 18.9 27 17.3 32 14.2 32L14.2 32ZM14.2 13.9C13.1 13.9 11.5 17.1 11.5 21.9 11.5 26.7 13.1 29.9 14.2 29.9 15.3 29.9 16.9 26.7 16.9 21.9 16.9 17.1 15.3 13.9 14.2 13.9L14.2 13.9Z" fill="#7823DC" fill-rule="evenodd" clip-rule="evenodd"/><path d="M5.2 21 23.4 21 23.4 23 5.2 23 5.2 21Z" fill="#7823DC" fill-rule="evenodd" clip-rule="evenodd"/><path d="M19.6 9.5C19.3 9.5 19 9.5 18.6 9.4 16.6 9 14.9 7.6 13.5 5L13.2 4.5 13.4 4C13.5 3.9 15.3 0.5 18.8 0 21.6-0.3 24.5 1 27.5 4L28.2 4.8 27.3 5.7C25.9 6.8 22.9 9.5 19.6 9.5L19.6 9.5ZM15.5 4.5C16.5 6.2 17.7 7.2 19 7.4 21.3 7.8 23.8 5.9 25.3 4.6 23.1 2.6 21 1.7 19.2 2 17.3 2.3 16 3.8 15.5 4.5L15.5 4.5Z" fill="#7823DC" fill-rule="evenodd" clip-rule="evenodd"/><path d="M10.4 10.1C7.9 10.1 5.7 8.1 4.7 7.2L3.8 6.4 4.6 5.6C6.8 3.4 8.9 2.4 11 2.7 13.7 3.1 15.1 5.6 15.1 5.8L15.4 6.3 15.1 6.8C14 8.7 12.7 9.9 11.1 10.1 10.9 10.1 10.7 10.1 10.4 10.1L10.4 10.1ZM6.7 6.3C7.7 7.2 9.4 8.3 10.8 8.1 11.6 8 12.4 7.3 13.1 6.3 12.7 5.8 11.9 4.9 10.7 4.7 9.5 4.5 8.2 5.1 6.7 6.3L6.7 6.3Z" fill="#7823DC" fill-rule="evenodd" clip-rule="evenodd"/><path d="M13.6 5 15.7 5 15.7 13.6 13.6 13.6 13.6 5Z" fill="#7823DC" fill-rule="evenodd" clip-rule="evenodd"/></g></svg>