<svg width="32" height="32" viewBox="0 0 32 32" xmlns="http://www.w3.org/2000/svg" xmlns:xlink="http://www.w3.org/1999/xlink" overflow="hidden"><defs></defs><g><g><defs><rect x="0" y="0" width="32" height="32" id="SVGID_1_" fill="#7823DC"/></defs><clipPath id="SVGID_2_"><use width="100%" height="100%" xlink:href="#SVGID_1_"></use></clipPath><path d="M2 4 30 4 30 20 2 20 2 4ZM0 2 0 22 32 22 32 6 28 2 0 2Z" fill="#7823DC" clip-path="url(#SVGID_2_)"/><path d="M18 28 14 28 14 22 18 22 18 28ZM20 20 12 20 12 30 20 30 20 20Z" fill="#7823DC" clip-path="url(#SVGID_2_)"/><rect x="6" y="28" width="20" height="2" fill="#7823DC" clip-path="url(#SVGID_2_)"/><path d="M23.3 9.6 16 5.9 8.7 9.6 8.8 9.6 8.8 15 16 19 23.3 14.9 23.3 9.6 23.3 9.6ZM16 8.1 18.9 9.5 16 11 13.1 9.6 16 8.1ZM10.8 10.6 15.1 12.7 15.1 16.1 10.8 13.7 10.8 10.6ZM21.3 13.8 17 16.2 17 12.8 21.3 10.7 21.3 13.8Z" fill="#7823DC" clip-path="url(#SVGID_2_)"/></g></g></svg>