<svg viewBox="0 0 32 32" xmlns="http://www.w3.org/2000/svg" xmlns:xlink="http://www.w3.org/1999/xlink" id="Graphic" overflow="hidden"><defs></defs><path d="M12.0298 25 6.02979 25 6.02979 7 12.0298 7ZM8.02979 23 10.0298 23 10.0298 9 8.02979 9Z" fill="#7823DC"/><path d="M22.0147 19 10.0147 19 10.0147 13 22.0147 13ZM12.0147 17 20.0147 17 20.0147 15 12.0147 15Z" fill="#7823DC"/><path d="M8.02979 22 2.02979 22 2.02979 10 8.02979 10ZM4.02979 20 6.02979 20 6.02979 12 4.02979 12Z" fill="#7823DC"/><rect x="0.02979" y="13" width="2" height="6" fill="#7823DC"/><path d="M26 25 20 25 20 7 26 7ZM22 23 24 23 24 9 22 9Z" fill="#7823DC"/><path d="M30 22 24 22 24 10 30 10ZM26 20 28 20 28 12 26 12Z" fill="#7823DC"/><rect x="30" y="13" width="2" height="6" fill="#7823DC"/></svg>