<svg viewBox="0 0 32 32" xmlns="http://www.w3.org/2000/svg" xmlns:xlink="http://www.w3.org/1999/xlink" id="Layer_5" overflow="hidden"><defs></defs><path d="M14.4 2 17.58 2 19.01 6.19 19.29 7.01 20.09 7.37C20.62 7.61 21.12 7.9 21.58 8.21L22.31 8.71 23.18 8.54 27.6 7.66 29.19 10.36 26.2 13.66 25.62 14.3 25.7 15.16C25.73 15.51 25.74 15.77 25.74 16 25.74 16.23 25.73 16.5 25.7 16.84L25.63 17.7 26.21 18.34 29.2 21.64 27.62 24.33 23.21 23.44 22.34 23.27 21.61 23.77C21.16 24.08 20.66 24.36 20.12 24.61L19.32 24.97 19.04 25.79 17.62 29.98 14.44 29.98 13.01 25.79 12.73 24.97 11.93 24.61C11.4 24.37 10.9 24.08 10.44 23.77L9.71 23.27 8.84 23.44 4.42 24.32 2.83 21.62 5.82 18.32 6.4 17.68 6.32 16.82C6.29 16.47 6.28 16.21 6.28 15.98 6.28 15.75 6.29 15.48 6.32 15.14L6.4 14.28 5.82 13.64 2.83 10.34 4.41 7.65 8.82 8.54 9.68 8.7 10.41 8.2C10.86 7.89 11.36 7.61 11.9 7.36L12.7 7 12.98 6.18 14.4 2M12.93 8.88178e-16 11.04 5.56C10.41 5.84 9.8 6.18 9.23 6.57L3.38 5.39 0.31 10.59 4.28 14.97C4.25 15.31 4.23 15.64 4.23 15.99 4.23 16.34 4.25 16.67 4.28 17.01L0.31 21.39 3.38 26.58 9.24 25.41C9.8 25.8 10.4 26.14 11.04 26.43L12.94 31.99 19.07 31.99 20.96 26.43C21.59 26.14 22.2 25.81 22.76 25.42L28.62 26.6 31.69 21.41 27.72 17.03C27.75 16.69 27.77 16.36 27.77 16.01 27.77 15.66 27.75 15.33 27.72 14.99L31.68 10.61 28.61 5.42 22.75 6.59C22.19 6.2 21.59 5.86 20.95 5.57L19.05 0.01 12.93 0.01Z" stroke-width="0" fill="#7823DC"/><path d="M17.61 16.37 22.8 11.99 19.7 11.99 16.06 15.06 12.42 11.99 9.32 11.99 14.51 16.37 9.22 20.83 12.33 20.83 16.06 17.68 19.8 20.83 22.9 20.83 17.61 16.37Z" stroke-width="0" fill="#7823DC"/></svg>