<svg viewBox="0 0 32 32" xmlns="http://www.w3.org/2000/svg" xmlns:xlink="http://www.w3.org/1999/xlink" id="Graphic" overflow="hidden"><defs></defs><path d="M16.05 14.76C16.7348 14.76 17.29 15.3152 17.29 16 17.29 16.6848 16.7348 17.24 16.05 17.24 15.3652 17.24 14.81 16.6848 14.81 16L14.81 16C14.8154 15.3174 15.3674 14.7654 16.05 14.76M16.05 12.76C14.2606 12.76 12.81 14.2106 12.81 16 12.81 17.7894 14.2606 19.24 16.05 19.24 17.8394 19.24 19.29 17.7894 19.29 16L19.29 16C19.29 14.2106 17.8394 12.76 16.05 12.76Z" fill="#7823DC"/><path d="M16.05 8C20.4683 8 24.05 11.5817 24.05 16 24.05 20.4183 20.4683 24 16.05 24 11.6317 24 8.05 20.4183 8.05 16 8.05 11.5817 11.6317 8 16.05 8M16.05 6C10.5272 6 6.05 10.4772 6.05 16 6.05 21.5228 10.5272 26 16.05 26 21.5728 26 26.05 21.5228 26.05 16 26.05 10.4772 21.5728 6 16.05 6Z" fill="#7823DC"/><path d="M16.05 2C23.782 2 30.05 8.26801 30.05 16 30.05 23.732 23.782 30 16.05 30 8.31801 30 2.05 23.732 2.05 16 2.05 8.26801 8.31801 2 16.05 2M16.05 0C7.21344 0 0.0499992 7.16344 0.0499992 16 0.0499992 24.8366 7.21344 32 16.05 32 24.8866 32 32.05 24.8366 32.05 16 32.05 7.16344 24.8866 0 16.05 0Z" fill="#7823DC"/><path d="M17 6.16 15 6.16 15 14.38 17 14.38 17 6.16 17 6.16Z" fill="#7823DC"/><path d="M9.79 8.31 8.38 9.72 14.19 15.54 15.61 14.12 9.79 8.31 9.79 8.31Z" fill="#7823DC"/><path d="M6.22 14.93 6.22 16.93 14.44 16.93 14.44 14.93 6.22 14.93 6.22 14.93Z" fill="#7823DC"/><path d="M8.37 22.13 9.79 23.55 15.6 17.74 14.18 16.32 8.37 22.13 8.37 22.13Z" fill="#7823DC"/><path d="M14.99 25.71 16.99 25.71 16.99 17.49 14.99 17.49 14.99 25.71 14.99 25.71Z" fill="#7823DC"/><path d="M22.19 23.56 23.61 22.14 17.8 16.33 16.38 17.75 22.19 23.56 22.19 23.56Z" fill="#7823DC"/><path d="M25.77 16.94 25.77 14.94 17.55 14.94 17.55 16.94 25.77 16.94 25.77 16.94Z" fill="#7823DC"/><path d="M23.62 9.73 22.2 8.32 16.39 14.13 17.8 15.55 23.62 9.73 23.62 9.73Z" fill="#7823DC"/></svg>