<svg viewBox="0 0 32 32" xmlns="http://www.w3.org/2000/svg" xmlns:xlink="http://www.w3.org/1999/xlink" overflow="hidden"><g id="Graphic" display="none"><rect x="-52.7" y="-13.5" width="2" height="20.9" fill="#7823DC" transform="matrix(0.6899 -0.7239 0.7239 0.6899 -13.8597 -38.3952)"/><path d="" stroke="#7823DC" stroke-width="2" stroke-miterlimit="10" fill="#7823DC"/><path d="" stroke="#7823DC" stroke-width="2" stroke-miterlimit="10" fill="#7823DC"/><path d="" stroke="#7823DC" stroke-width="2" stroke-miterlimit="10" fill="#7823DC"/><circle cx="-64.9" cy="-16" r="8.1" stroke="#7823DC" stroke-width="2" stroke-miterlimit="10" fill="#7823DC"/><line x1="-84" y1="-32" x2="-52" y2="-32" stroke="#7823DC" stroke-width="2" stroke-miterlimit="10" fill="none"/><line x1="-84" y1="-28.1" x2="-52" y2="-28.1" stroke="#7823DC" stroke-width="2" stroke-miterlimit="10" fill="none"/><line x1="-84" y1="-24.1" x2="-72" y2="-24.1" stroke="#7823DC" stroke-width="2" stroke-miterlimit="10" fill="none"/><line x1="-84" y1="-20.1" x2="-75" y2="-20.1" stroke="#7823DC" stroke-width="2" stroke-miterlimit="10" fill="none"/><line x1="-84" y1="-16.1" x2="-76" y2="-16.1" stroke="#7823DC" stroke-width="2" stroke-miterlimit="10" fill="none"/><line x1="-84" y1="-12.1" x2="-75" y2="-12.1" stroke="#7823DC" stroke-width="2" stroke-miterlimit="10" fill="none"/><line x1="-69" y1="-12.1" x2="-61" y2="-12.1" stroke="#7823DC" stroke-width="2" stroke-miterlimit="10" fill="none"/><line x1="-84" y1="-8.1" x2="-72" y2="-8.1" stroke="#7823DC" stroke-width="2" stroke-miterlimit="10" fill="none"/><line x1="-84" y1="-4.1" x2="-56.9" y2="-4.1" stroke="#7823DC" stroke-width="2" stroke-miterlimit="10" fill="none"/><line x1="-58" y1="-24.1" x2="-52" y2="-24.1" stroke="#7823DC" stroke-width="2" stroke-miterlimit="10" fill="none"/><line x1="-69" y1="-20.1" x2="-61" y2="-20.1" stroke="#7823DC" stroke-width="2" stroke-miterlimit="10" fill="none"/><line x1="-70" y1="-16.1" x2="-60" y2="-16.1" stroke="#7823DC" stroke-width="2" stroke-miterlimit="10" fill="none"/><line x1="-55" y1="-20.1" x2="-52" y2="-20.1" stroke="#7823DC" stroke-width="2" stroke-miterlimit="10" fill="none"/><line x1="-55" y1="-16.1" x2="-52" y2="-16.1" stroke="#7823DC" stroke-width="2" stroke-miterlimit="10" fill="none"/><line x1="-55" y1="-12.1" x2="-52" y2="-12.1" stroke="#7823DC" stroke-width="2" stroke-miterlimit="10" fill="none"/><line x1="-54" y1="-9.1" x2="-52" y2="-9.1" stroke="#7823DC" stroke-width="2" stroke-miterlimit="10" fill="none"/><g><defs><path d="M72 33 39 33 39 0 72 0 72 33Z" id="SVGID_1_" fill="#7823DC"/></defs><defs><path d="M72 0 39 0 39 33 72 33 72 0Z" id="SVGID_2_" fill="#7823DC"/></defs><clipPath id="SVGID_3_"><use width="100%" height="100%" xlink:href="#SVGID_1_" overflow="visible"></use></clipPath><clipPath id="SVGID_4_" clip-path="url(#SVGID_3_)"><use width="100%" height="100%" xlink:href="#SVGID_2_" overflow="visible"></use></clipPath><g clip-path="url(#SVGID_4_)"><defs><path d="M72 33 39 33 39 0 72 0 72 33Z" id="SVGID_5_" fill="#7823DC"/></defs><clipPath id="SVGID_6_"><use width="100%" height="100%" xlink:href="#SVGID_5_" overflow="visible"></use></clipPath></g></g><image width="225" height="225" xlink:href="../../images.png" overflow="visible" transform="scale(0.1422 0.1422)"></image></g><g id="Layer_2"><path d="M26.7 2.9 29.2 8 5.7 17.7 4.7 15.7 26.7 2.9M27.6 0.1 3.1 14.3C2.6 14.6 2.4 15.3 2.7 15.9L4.2 19.1C4.4 19.6 4.9 19.9 5.4 19.9 5.5 19.9 5.7 19.9 5.8 19.8L32 9.1 27.6 0.1 27.6 0.1Z" fill="#7823DC"/><rect x="16" y="14" width="2" height="21.9" fill="#7823DC"/><g><path d="" stroke="#231F20" stroke-width="2" stroke-miterlimit="10" fill="#7823DC"/></g><rect x="4.6" y="27.5" width="16.7" height="2" fill="#7823DC" transform="matrix(0.4824 -0.8759 0.8759 0.4824 -18.2831 26.128)"/><rect x="20" y="20.2" width="2" height="16.7" fill="#7823DC" transform="matrix(0.876 -0.4824 0.4824 0.876 -11.1545 13.6867)"/><rect x="24.2" y="3.8" width="2" height="7.1" fill="#7823DC" transform="matrix(0.8944 -0.4472 0.4472 0.8944 -0.6315 12.0309)"/><rect x="1.2" y="15.4" width="2" height="5.7" fill="#7823DC" transform="matrix(0.9034 -0.4289 0.4289 0.9034 -7.6288 2.7061)"/></g></svg>