<svg viewBox="0 0 32 32" xmlns="http://www.w3.org/2000/svg" xmlns:xlink="http://www.w3.org/1999/xlink" id="Layer_2_1_" overflow="hidden"><style>
.MsftOfcResponsive_Fill_7823dc {
 fill:#7823DC; 
}
</style>
<g><g><defs><path d="M0 32 32 32 32 0 0 0 0 32Z" id="SVGID_1_" class="MsftOfcResponsive_Fill_7823dc" fill="#7823DC"/></defs><defs><path d="M0 0 32 0 32 32 0 32 0 0Z" id="SVGID_2_" class="MsftOfcResponsive_Fill_7823dc" fill="#7823DC"/></defs><clipPath id="SVGID_3_"><use width="100%" height="100%" xlink:href="#SVGID_1_" overflow="visible"></use></clipPath><clipPath id="SVGID_4_" clip-path="url(#SVGID_3_)"><use width="100%" height="100%" xlink:href="#SVGID_2_" overflow="visible"></use></clipPath><g clip-path="url(#SVGID_4_)"><defs><path d="M0 32 32 32 32 0 0 0 0 32Z" id="SVGID_5_" class="MsftOfcResponsive_Fill_7823dc" fill="#7823DC"/></defs><clipPath id="SVGID_6_"><use width="100%" height="100%" xlink:href="#SVGID_5_" overflow="visible"></use></clipPath><path d="M26.3 29.9 21.5 29.9 21.5 28 24.4 28 24.4 20.3 29.5 20.3C28.6 16 27.2 10 26.4 8.7 24 5.1 20.1 2.9 15.7 2.9 15.7 2.9 15.7 2.9 15.7 2.9 12.3 2.9 9.2 4.2 6.8 6.6 4.4 9 3.1 12.1 3.1 15.5L3.1 15.6C3.1 19.9 5.3 23.8 8.9 26.1L7.9 27.7C3.7 25 1.2 20.5 1.2 15.5L1.2 15.4C1.2 11.6 2.7 7.9 5.5 5.2 8.2 2.5 11.9 1 15.7 1 15.7 1 15.7 1 15.7 1 20.7 1 25.3 3.5 27.9 7.7 29.3 9.9 31.3 19.9 31.6 21.1L31.8 22.3 26.3 22.3 26.3 29.9Z" class="MsftOfcResponsive_Fill_7823dc" fill="#7823DC" clip-path="url(#SVGID_6_)"/><path d="M14.4 20.3 16.5 20.3 16.5 26.4 14.4 26.4 14.4 20.3Z" class="MsftOfcResponsive_Fill_7823dc" fill="#7823DC" clip-path="url(#SVGID_6_)"/><path d="M15.5 6.8C15.6 6.8 15.6 6.8 15.7 6.8L15.9 6.8 16.1 6.8C16.2 6.8 16.3 6.8 16.4 6.8L16.5 6.8 16.5 6.8C16.7 6.8 16.9 6.9 17.2 6.9L17.3 6.9C17.5 6.9 17.7 7 17.9 7.1 18 7.1 18 7.1 18.1 7.2 18.3 7.3 18.4 7.3 18.6 7.4L18.7 7.4C18.8 7.4 18.8 7.4 18.9 7.5 19 7.6 19.2 7.6 19.3 7.7 19.5 7.8 19.6 7.9 19.8 8L19.9 8.1C19.9 8.1 20 8.2 20 8.2 20.1 8.3 20.2 8.4 20.3 8.5 20.4 8.6 20.4 8.6 20.5 8.7 20.6 8.8 20.7 8.9 20.8 9 20.8 9 20.9 9.1 20.9 9.1L20.9 9.1 20.9 9.1C21 9.2 21.1 9.3 21.2 9.4 21.3 9.5 21.4 9.6 21.4 9.7L21.4 9.7C21.5 9.8 21.6 9.9 21.7 10.1 21.8 10.2 21.9 10.4 22 10.5 22 10.6 22.1 10.6 22.1 10.7L22.1 10.7C22.2 10.9 22.3 11 22.4 11.2L22.4 11.3 22.4 11.4C22.6 11.9 22.8 12.3 22.9 12.8L22.9 12.8C22.9 13 23 13.1 23 13.3 23 13.4 23 13.4 23 13.5 23 13.8 23.1 14 23.1 14.3 23.1 14.4 23.1 14.4 23.1 14.5L23.1 14.5C23.1 14.6 23.1 14.7 23.1 14.8 23.1 15.1 23.1 15.4 23 15.6 23 15.7 23 15.7 23 15.8L23 16C23 16.2 22.9 16.5 22.9 16.7 22.9 16.8 22.8 16.9 22.8 17L22.8 17.1C22.7 17.3 22.6 17.5 22.6 17.7 22.5 17.8 22.5 18 22.4 18.1 22.3 18.3 22.2 18.5 22.1 18.6 22 18.7 22 18.8 21.9 19 21.8 19.1 21.7 19.3 21.5 19.5L21.4 19.6C21.3 19.7 21.3 19.7 21.2 19.8 21.1 20 20.9 20.1 20.7 20.3 20.6 20.3 20.6 20.4 20.5 20.4 20.5 20.4 20.4 20.5 20.4 20.5 20.4 20.5 20.3 20.6 20.3 20.6 18.6 22 17.6 24 17.4 26.1L13.5 26.1C13.3 23.9 12.3 22 10.6 20.6 10.6 20.6 10.5 20.5 10.5 20.5 10.5 20.5 10.4 20.4 10.4 20.4 10.3 20.4 10.3 20.3 10.2 20.3 10 20.1 9.8 20 9.7 19.8 9.6 19.7 9.6 19.7 9.5 19.6L9.4 19.5C9.2 19.3 9.1 19.1 9 19 9 18.8 9 18.7 8.9 18.6 8.8 18.4 8.7 18.2 8.6 18.1 8.5 18 8.5 17.8 8.4 17.7 8.3 17.5 8.3 17.3 8.2 17.1L8.2 17C8.2 16.9 8.1 16.8 8.1 16.7 8 16.5 7.9 16.2 7.9 16L7.9 15.8C7.9 15.7 7.9 15.7 7.9 15.6 7.9 15.3 7.8 15 7.8 14.8 7.8 14.7 7.8 14.6 7.8 14.6 7.8 14.5 7.8 14.5 7.8 14.4 7.8 14.1 7.8 13.9 7.9 13.6 7.9 13.5 7.9 13.5 7.9 13.4 7.9 13.2 8 13.1 8 12.9L8 12.9C8.1 12.4 8.3 11.9 8.5 11.5L8.5 11.4 8.5 11.3C8.6 11.1 8.7 11 8.8 10.8L8.8 10.8 8.8 10.8C8.8 10.7 8.9 10.7 8.9 10.6 9 10.5 9.1 10.3 9.2 10.2 9.2 10 9.3 9.9 9.4 9.8L9.4 9.7C9.5 9.6 9.5 9.5 9.6 9.4 9.7 9.3 9.8 9.2 9.9 9.1L9.9 9.1 9.9 9.1C9.9 9.1 10 9 10 9 10.1 8.9 10.2 8.8 10.3 8.7 10.4 8.6 10.4 8.6 10.5 8.5 10.6 8.4 10.7 8.3 10.8 8.2 10.8 8.2 10.9 8.1 10.9 8.1L11 8C11.2 7.9 11.3 7.8 11.5 7.7 11.6 7.6 11.8 7.5 11.9 7.5 12 7.5 12 7.5 12.1 7.4L12.2 7.4C12.4 7.3 12.5 7.3 12.7 7.2 12.8 7.2 12.8 7.2 12.9 7.1 13.1 7 13.3 7 13.5 6.9L13.6 6.9C13.8 6.8 14.1 6.8 14.3 6.8L14.3 6.8 14.4 6.8C14.5 6.8 14.6 6.8 14.7 6.8L14.9 6.8 15.1 6.8C15.3 6.8 15.4 6.8 15.5 6.8M15.5 4.9C15.3 4.9 15.2 4.9 15 4.9 14.8 4.9 14.6 4.9 14.4 4.9 14.4 4.9 14.4 4.9 14.4 4.9 14.1 4.9 13.8 5 13.5 5.1 13.4 5.1 13.4 5.1 13.4 5.1 13.1 5.2 12.9 5.2 12.7 5.3 12.6 5.3 12.5 5.4 12.4 5.4 12.2 5.5 12 5.5 11.8 5.6 11.7 5.6 11.6 5.7 11.5 5.7 11.2 5.9 11 6 10.8 6.1 10.6 6.2 10.4 6.3 10.2 6.5 10.1 6.5 10 6.6 9.9 6.7 9.7 6.8 9.6 6.9 9.5 7 9.4 7.1 9.3 7.1 9.2 7.2 9.1 7.3 8.9 7.4 8.8 7.6 8.7 7.6 8.7 7.7 8.6 7.8 8.4 7.9 8.3 8 8.2 8.2 8.1 8.3 8 8.5 7.9 8.6 7.7 8.8 7.6 8.9 7.5 9.1 7.4 9.2 7.3 9.4 7.2 9.6 7.1 9.7 7.1 9.7 7 9.8 6.9 10 6.8 10.2 6.7 10.4 6.7 10.5 6.6 10.5 6.6 10.6 6.3 11.2 6.1 11.8 6 12.4L6 12.4C6 12.6 5.9 12.8 5.9 13.1 5.9 13.2 5.9 13.2 5.9 13.3 5.9 13.6 5.8 13.9 5.8 14.3 5.8 14.4 5.8 14.4 5.8 14.5 5.8 14.5 5.8 14.5 5.8 14.5 5.8 14.6 5.8 14.7 5.8 14.8 5.8 15.2 5.8 15.5 5.9 15.9 5.9 16 6 16.2 6 16.4 6.1 16.7 6.1 17 6.2 17.2 6.2 17.4 6.3 17.5 6.4 17.7 6.5 18 6.6 18.2 6.7 18.4 6.8 18.6 6.9 18.7 6.9 18.9 7 19.1 7.1 19.4 7.3 19.6 7.4 19.7 7.5 19.9 7.6 20 7.8 20.2 7.9 20.4 8.1 20.6 8.2 20.7 8.3 20.9 8.4 21 8.6 21.2 8.8 21.4 9 21.6 9.1 21.7 9.2 21.8 9.3 21.9 9.3 21.9 9.3 21.9 9.4 22 10.8 23.1 11.6 24.8 11.7 26.6L11.7 28 19.5 28 19.5 26.6C19.5 24.8 20.3 23.1 21.7 22 21.7 22 21.7 22 21.8 21.9 21.9 21.8 22 21.7 22.1 21.6 22.3 21.4 22.5 21.2 22.7 21 22.8 20.9 22.9 20.7 23 20.6 23.2 20.4 23.3 20.2 23.5 20 23.6 19.9 23.7 19.7 23.8 19.6 23.9 19.4 24.1 19.2 24.2 18.9 24.3 18.7 24.4 18.6 24.4 18.4 24.5 18.2 24.6 17.9 24.7 17.7 24.8 17.5 24.8 17.4 24.9 17.2 25 16.9 25 16.6 25.1 16.4 25.1 16.2 25.2 16.1 25.2 15.9 25.2 15.5 25.3 15.2 25.3 14.8 25.3 14.7 25.3 14.6 25.3 14.5 25.3 14.5 25.3 14.5 25.3 14.5 25.3 14.4 25.3 14.4 25.3 14.3 25.3 14 25.3 13.7 25.2 13.3 25.2 13.2 25.2 13.2 25.2 13.1 25.2 12.9 25.1 12.6 25.1 12.4L25.1 12.4C25 11.8 24.8 11.2 24.5 10.6 24.5 10.5 24.4 10.5 24.4 10.4 24.3 10.2 24.2 10 24.1 9.8 24.1 9.7 24 9.6 24 9.5 23.9 9.3 23.8 9.2 23.7 9 23.6 8.8 23.5 8.7 23.4 8.5 23.3 8.4 23.2 8.2 23.1 8.1 23 8 22.9 7.8 22.7 7.7 22.6 7.6 22.5 7.5 22.5 7.5 22.4 7.4 22.2 7.3 22.1 7.1 22 7 21.9 7 21.8 6.9 21.7 6.8 21.5 6.7 21.4 6.6 21.3 6.5 21.2 6.5 21.1 6.4 20.9 6.3 20.7 6.1 20.5 6 20.3 5.9 20.2 5.8 20 5.7 19.9 5.7 19.8 5.6 19.7 5.6 19.5 5.5 19.3 5.4 19.1 5.4 19 5.4 18.9 5.3 18.8 5.3 18.6 5.2 18.3 5.2 18.1 5.1 18 5.1 18 5.1 17.9 5.1 17.2 5.1 16.9 5 16.6 5 16.6 5 16.6 5 16.6 5 16.4 5 16.2 5 16 5 15.8 4.9 15.6 4.9 15.5 4.9L15.5 4.9Z" class="MsftOfcResponsive_Fill_7823dc" fill="#7823DC" clip-path="url(#SVGID_6_)"/><path d="M17.4 20.2 13.5 20.2 11.6 18.2 19.3 18.2 17.4 20.2 17.4 20.2Z" class="MsftOfcResponsive_Fill_7823dc" fill="#7823DC" clip-path="url(#SVGID_6_)"/><path d="M19.3 29.9 11.6 29.9 11.6 31.8 19.3 31.8 19.3 29.9 19.3 29.9 19.3 29.9Z" class="MsftOfcResponsive_Fill_7823dc" fill="#7823DC" clip-path="url(#SVGID_6_)"/></g></g></g></svg>