<svg viewBox="0 0 29.22 29.22" xmlns="http://www.w3.org/2000/svg" xmlns:xlink="http://www.w3.org/1999/xlink" xml:space="preserve" overflow="hidden"><g id="Layer_3"></g><g id="Layer_1"></g><g id="Layer_2"></g><g id="Layer_4"></g><g id="Layer_5"><g><path d="M0 17.82 0 25.19 29.22 25.19 29.22 17.82 0 17.82ZM1.99 19.82 4.57 19.82 4.57 23.19 1.99 23.19 1.99 19.82ZM27.22 23.19 6.57 23.19 6.57 19.82 27.23 19.82 27.23 23.19Z" fill="#7823DC"/><path d="M6.02 10.37C4.6 12.03 4.57 15.73 4.57 16.15L6.57 16.14C6.57 14.84 6.83 12.47 7.54 11.66L7.6 11.58C7.63 11.54 8.38 10.56 10.32 10.07 10.73 10 12.91 9.54 13.74 7.55 13.9 7.23 14.47 5.87 14.47 3.17L12.47 3.17C12.47 5.59 11.95 6.66 11.95 6.66L11.9 6.76C11.46 7.87 10 8.1 9.99 8.1L9.89 8.12C7.38 8.73 6.25 10.05 6.02 10.37Z" fill="#7823DC"/><path d="M2.93 10.68 2.98 10.56C2.98 10.55 3.46 9.25 4.64 8.68 4.75 8.63 7.32 7.39 7.32 4.87L7.32 3.17 5.32 3.17 5.32 4.87C5.32 6.12 3.8 6.87 3.78 6.88 2.01 7.74 1.26 9.46 1.12 9.83 0.39 11.36 0.36 15.35 0.36 16.14L2.36 16.14C2.36 14.34 2.53 11.46 2.93 10.68Z" fill="#7823DC"/></g></g></svg>