<svg viewBox="0 0 32 31.94" xmlns="http://www.w3.org/2000/svg" xmlns:xlink="http://www.w3.org/1999/xlink" id="Layer_3" overflow="hidden"><defs></defs><path d="M32 15.94 32 17.94 28 17.94 28 22.87C28 23.03 27.99 23.18 27.98 23.34 27.67 28.13 23.67 31.94 18.8 31.94L13.2 31.94C8.2 31.94 4.11 27.92 4 22.94L4.01 22.94C4.01 22.94 4 22.89 4 22.87L4 17.94 0 17.94 0 15.94 6 15.94 6 22.82C6 22.94 6.01 23.06 6.02 23.17 6.12 25 6.91 26.64 8.13 27.85 9.44 29.14 11.23 29.94 13.2 29.94L18.8 29.94C20.77 29.94 22.56 29.14 23.87 27.85 25.09 26.64 25.88 25 25.98 23.17 26 23.03 26 22.89 26 22.74L26 15.94 32 15.94Z" stroke-width="0" fill="#7823DC"/><path d="M27.99 11.94C27.86 9.71 26 7.94 23.74 7.94L17 7.94 17 5.94 18.86 5.94C20.04 5.94 21 4.98 21 3.8L21 2.14C21 0.96 20.04 -4.44089e-16 18.86 -4.44089e-16L13.14 -4.44089e-16C11.96 -4.44089e-16 11 0.96 11 2.14L11 3.8C11 4.98 11.96 5.94 13.14 5.94L15 5.94 15 7.94 8.26 7.94C6 7.94 4.14 9.71 4.01 11.94L0 11.94 0 13.94 6 13.94 6 13.06C6 12.66 6.07 12.29 6.21 11.94 6.65 10.81 7.73 9.99 9 9.95 9.04 9.94 9.08 9.94 9.12 9.94L15 9.94 15 21.31C13.65 20.68 11.9 19.94 11.06 19.94 9.4 19.94 8.06 21.29 8.06 22.94 8.06 24.59 9.4 25.94 11.06 25.94 12.13 25.94 14.7 24.73 16 24.09 17.3 24.73 19.87 25.94 20.94 25.94 22.6 25.94 23.94 24.59 23.94 22.94 23.94 21.29 22.6 19.94 20.94 19.94 20.1 19.94 18.35 20.68 17 21.31L17 9.94 22.88 9.94C24.2 9.94 25.34 10.77 25.79 11.94 25.93 12.29 26 12.66 26 13.06L26 13.94 32 13.94 32 11.94 27.99 11.94ZM11.06 23.94C10.5 23.94 10.06 23.49 10.06 22.94 10.06 22.39 10.5 21.94 11.05 21.94 11.41 21.95 12.53 22.38 13.76 22.94 12.53 23.5 11.41 23.93 11.06 23.94ZM20.94 21.94C21.5 21.94 21.94 22.39 21.94 22.94 21.94 23.49 21.5 23.94 20.95 23.94 20.59 23.93 19.47 23.5 18.24 22.94 19.47 22.38 20.59 21.95 20.94 21.94ZM13.14 3.94C13.06 3.94 13 3.88 13 3.8L13 2.14C13 2.07 13.06 2 13.14 2L18.86 2C18.94 2 19 2.07 19 2.14L19 3.8C19 3.88 18.94 3.94 18.86 3.94L13.14 3.94Z" stroke-width="0" fill="#7823DC"/></svg>