<svg width="36.5" height="36.6" viewBox="0 0 36.5 36.6" xmlns="http://www.w3.org/2000/svg" xmlns:xlink="http://www.w3.org/1999/xlink" overflow="hidden"><defs></defs><g><g><defs><path d="M0 36.5 36.5 36.5 36.5 0 0 0 0 36.5Z" id="SVGID_1_" fill="#7823DC"/></defs><clipPath id="SVGID_2_"><use width="100%" height="100%" xlink:href="#SVGID_1_"></use></clipPath><g clip-path="url(#SVGID_2_)"><defs><path d="M0 36.5 36.5 36.5 36.5 0 0 0 0 36.5Z" id="SVGID_3_" fill="#7823DC"/></defs><clipPath id="SVGID_4_"><use width="100%" height="100%" xlink:href="#SVGID_3_"></use></clipPath><path d="M36.5 0.1 36.5 3.2 26.1 12.7 24.6 11.1 36.5 0.1 36.5 0.1Z" fill="#7823DC" clip-path="url(#SVGID_4_)"/><path d="M20.9 5.1 28.7 5.4 32 9.1 31.7 16.9 14 33.3 3.2 21.5 20.9 5.1M20.1 2.8 0 21.4 13.9 36.6 34 17.9 34.4 8.2 29.8 3.2 20.1 2.8 20.1 2.8 20.1 2.8Z" fill="#7823DC" clip-path="url(#SVGID_4_)"/><path d="M26.5 15.7C23.8 15.7 21.6 13.5 21.6 10.8 21.6 8.1 23.8 6 26.5 6 29.2 6 31.4 8.2 31.4 10.9 31.4 13.6 29.2 15.7 26.5 15.7ZM26.5 8.3C25.1 8.3 23.9 9.5 23.9 10.9 23.9 12.3 25.1 13.5 26.5 13.5 27.9 13.5 29.1 12.3 29.1 10.9 29.1 9.5 27.9 8.3 26.5 8.3Z" fill="#7823DC" clip-path="url(#SVGID_4_)"/></g></g></g></svg>