<svg viewBox="0 0 32 32" xmlns="http://www.w3.org/2000/svg" xmlns:xlink="http://www.w3.org/1999/xlink" id="Layer_3" overflow="hidden"><defs></defs><rect x="1.81396" y="14.3691" width="2" height="5.59668" fill="#7823DC"/><rect x="27.814" y="14.3691" width="2" height="5.61426" fill="#7823DC"/><path d="M1.83984 17.04 0.42578 15.626 15.814 0.2373 31.2017 15.626 29.7876 17.04 15.814 3.06543 1.83984 17.04Z" fill="#7823DC"/><path d="M29.8286 17.0713 23.8252 11.0684 23.8003 4.36914 29.8022 4.36914 29.8286 17.0713ZM25.8223 10.2363 27.8188 12.2334 27.8061 6.36914 25.8081 6.36914 25.8223 10.2363Z" fill="#7823DC"/><path d="M31.6839 24.8584C31.2332 24.2959 30.5525 23.4453 29.2405 23.4453 27.9285 23.4453 27.2474 24.2949 26.7967 24.8584 26.3719 25.3877 26.2234 25.5215 25.9129 25.5215 25.6018 25.5215 25.4534 25.3877 25.0286 24.8574 24.5774 24.2949 23.8958 23.4453 22.5838 23.4453 21.2718 23.4453 20.5901 24.2949 20.139 24.8574 19.7142 25.3877 19.5657 25.5215 19.2547 25.5215 18.9451 25.5215 18.7972 25.3877 18.3728 24.8584 17.9222 24.2959 17.241 23.4453 15.9295 23.4453 14.6175 23.4453 13.9358 24.2949 13.4847 24.8574 13.0599 25.3877 12.9114 25.5215 12.6004 25.5215 12.2893 25.5215 12.1409 25.3877 11.7161 24.8584 11.2649 24.2949 10.5833 23.4453 9.27079 23.4453 7.95829 23.4453 7.27665 24.2949 6.82548 24.8574 6.40019 25.3877 6.25175 25.5215 5.94071 25.5215 5.62772 25.5215 5.4788 25.3877 5.05253 24.8574 4.60087 24.2949 3.91825 23.4453 2.60478 23.4453 1.29179 23.4453 0.60917 24.2949 0.15751 24.8574 0.08024 24.9535 0.02006 25.0232-0.04159 25.0948L-0.04159 27.4266C0.83225 27.1956 1.35294 26.5629 1.71708 26.1094 2.14335 25.5791 2.29228 25.4453 2.60478 25.4453 2.91777 25.4453 3.06669 25.5791 3.49296 26.1094 3.94462 26.6719 4.62724 27.5215 5.94071 27.5215 7.25321 27.5215 7.93485 26.6719 8.38602 26.1094 8.81131 25.5791 8.95975 25.4453 9.27079 25.4453 9.58183 25.4453 9.73026 25.5791 10.1556 26.1094 10.6067 26.6719 11.2884 27.5215 12.6004 27.5215 13.9124 27.5215 14.594 26.6719 15.0452 26.1094 15.47 25.5791 15.6184 25.4453 15.9295 25.4453 16.239 25.4453 16.387 25.5791 16.8113 26.1084 17.262 26.6709 17.9432 27.5215 19.2547 27.5215 20.5667 27.5215 21.2483 26.6719 21.6995 26.1094 22.1243 25.5791 22.2727 25.4453 22.5838 25.4453 22.8948 25.4453 23.0432 25.5791 23.4681 26.1094 23.9192 26.6719 24.6009 27.5215 25.9129 27.5215 27.2249 27.5215 27.9065 26.6709 28.3572 26.1084 28.782 25.5791 28.9305 25.4453 29.2405 25.4453 29.5506 25.4453 29.6985 25.5791 30.1233 26.1084 30.4967 26.5745 31.0341 27.2312 31.9515 27.4451L31.9515 25.1782C31.8743 25.0922 31.7878 24.9879 31.6839 24.8584Z" fill="#7823DC"/><path d="M31.6839 20.3235C31.2332 19.761 30.5525 18.9104 29.2405 18.9104 27.9285 18.9104 27.2474 19.76 26.7967 20.3235 26.3719 20.8528 26.2234 20.9866 25.9129 20.9866 25.6018 20.9866 25.4534 20.8528 25.0286 20.3225 24.5774 19.76 23.8958 18.9104 22.5838 18.9104 21.2718 18.9104 20.5901 19.76 20.139 20.3225 19.7142 20.8528 19.5657 20.9866 19.2547 20.9866 18.9451 20.9866 18.7972 20.8528 18.3728 20.3235 17.9222 19.761 17.241 18.9104 15.9295 18.9104 14.6175 18.9104 13.9358 19.76 13.4847 20.3225 13.0599 20.8528 12.9114 20.9866 12.6004 20.9866 12.2893 20.9866 12.1409 20.8528 11.7161 20.3235 11.2649 19.76 10.5833 18.9104 9.27079 18.9104 7.95829 18.9104 7.27665 19.76 6.82548 20.3225 6.40019 20.8528 6.25175 20.9866 5.94071 20.9866 5.62772 20.9866 5.4788 20.8528 5.05253 20.3225 4.60087 19.76 3.91825 18.9104 2.60478 18.9104 1.29179 18.9104 0.60917 19.76 0.15751 20.3225 0.08024 20.4187 0.02006 20.4884-0.04159 20.56L-0.04159 22.8918C0.83225 22.6607 1.35294 22.028 1.71708 21.5745 2.14335 21.0442 2.29228 20.9104 2.60478 20.9104 2.91777 20.9104 3.06669 21.0442 3.49296 21.5745 3.94462 22.137 4.62724 22.9866 5.94071 22.9866 7.25321 22.9866 7.93485 22.137 8.38602 21.5745 8.81131 21.0442 8.95975 20.9104 9.27079 20.9104 9.58183 20.9104 9.73026 21.0442 10.1556 21.5745 10.6067 22.137 11.2884 22.9866 12.6004 22.9866 13.9124 22.9866 14.594 22.137 15.0452 21.5745 15.47 21.0442 15.6184 20.9104 15.9295 20.9104 16.239 20.9104 16.387 21.0442 16.8113 21.5735 17.262 22.136 17.9432 22.9866 19.2547 22.9866 20.5667 22.9866 21.2483 22.137 21.6995 21.5745 22.1243 21.0442 22.2727 20.9104 22.5838 20.9104 22.8948 20.9104 23.0432 21.0442 23.4681 21.5745 23.9192 22.137 24.6009 22.9866 25.9129 22.9866 27.2249 22.9866 27.9065 22.136 28.3572 21.5735 28.782 21.0442 28.9305 20.9104 29.2405 20.9104 29.5506 20.9104 29.6985 21.0442 30.1233 21.5735 30.4967 22.0396 31.0341 22.6963 31.9515 22.9102L31.9515 20.6433C31.8743 20.5573 31.7878 20.453 31.6839 20.3235Z" fill="#7823DC"/><path d="M31.6839 29.3366C31.2332 28.7741 30.5525 27.9235 29.2405 27.9235 27.9285 27.9235 27.2474 28.7732 26.7967 29.3366 26.3719 29.8659 26.2234 29.9997 25.9129 29.9997 25.6018 29.9997 25.4534 29.8659 25.0286 29.3357 24.5774 28.7732 23.8958 27.9236 22.5838 27.9236 21.2718 27.9236 20.5901 28.7732 20.139 29.3357 19.7142 29.8659 19.5657 29.9997 19.2547 29.9997 18.9451 29.9997 18.7972 29.8659 18.3728 29.3366 17.9222 28.7741 17.241 27.9235 15.9295 27.9235 14.6175 27.9235 13.9358 28.7732 13.4847 29.3357 13.0599 29.8659 12.9114 29.9997 12.6004 29.9997 12.2893 29.9997 12.1409 29.8659 11.7161 29.3366 11.2649 28.7731 10.5833 27.9235 9.27079 27.9235 7.95829 27.9235 7.27665 28.7731 6.82548 29.3356 6.40019 29.8659 6.25175 29.9997 5.94071 29.9997 5.62772 29.9997 5.4788 29.8659 5.05253 29.3356 4.60087 28.7731 3.91825 27.9235 2.60478 27.9235 1.29179 27.9235 0.60917 28.7731 0.15751 29.3356 0.08024 29.4318 0.02006 29.5015-0.04159 29.5731L-0.04159 31.9049C0.83225 31.6738 1.35294 31.0411 1.71708 30.5876 2.14335 30.0573 2.29228 29.9235 2.60478 29.9235 2.91777 29.9235 3.06669 30.0573 3.49296 30.5876 3.94462 31.1501 4.62724 31.9997 5.94071 31.9997 7.25321 31.9997 7.93485 31.1501 8.38602 30.5876 8.81131 30.0573 8.95975 29.9235 9.27079 29.9235 9.58183 29.9235 9.73026 30.0573 10.1556 30.5876 10.6067 31.1501 11.2884 31.9997 12.6004 31.9997 13.9124 31.9997 14.594 31.1501 15.0452 30.5876 15.47 30.0573 15.6184 29.9235 15.9295 29.9235 16.239 29.9235 16.387 30.0573 16.8113 30.5866 17.262 31.1491 17.9432 31.9997 19.2547 31.9997 20.5667 31.9997 21.2483 31.1501 21.6995 30.5876 22.1243 30.0574 22.2727 29.9236 22.5838 29.9236 22.8948 29.9236 23.0432 30.0574 23.4681 30.5876 23.9192 31.1501 24.6009 31.9997 25.9129 31.9997 27.2249 31.9997 27.9065 31.1491 28.3572 30.5866 28.782 30.0573 28.9305 29.9235 29.2405 29.9235 29.5506 29.9235 29.6985 30.0573 30.1233 30.5866 30.4967 31.0527 31.0341 31.7094 31.9515 31.9234L31.9515 29.6565C31.8743 29.5705 31.7878 29.4661 31.6839 29.3366Z" fill="#7823DC"/><rect x="14.8091" y="10.7834" width="2" height="9.61855" fill="#7823DC"/><path d="M19.8087 14.7596 19.8096 11.952 15.8159 7.95198 11.8169 11.952 11.8087 14.8016 15.803 10.7833 19.8087 14.7596Z" fill="#7823DC"/></svg>