<svg viewBox="0 0 32 32" xmlns="http://www.w3.org/2000/svg" xmlns:xlink="http://www.w3.org/1999/xlink" id="Layer_1" overflow="hidden"><path d="M32 32 30 32 30 14 2 14 2 32 0 32 0 12 32 12Z" fill="#7823DC"/><g><path d="M5.4 8.5 4.7 14 6.6 14 7.5 6.6 4 6.6 1.6 14 3.5 14 5.4 8.5Z" fill="#7823DC"/><path d="M11.3 8.5 13 14 15 14 12.6 6.6 9.3 6.6 10.2 14 12 14 11.3 8.5Z" fill="#7823DC"/></g><path d="M8.3 2C8.9 2 9.3 2.4 9.3 3 9.3 3.6 8.9 4 8.3 4 7.7 4 7.3 3.6 7.3 3 7.3 2.4 7.7 2 8.3 2M8.3 0C6.6 0 5.3 1.3 5.3 3 5.3 4.7 6.6 6 8.3 6 10 6 11.3 4.7 11.3 3 11.3 1.3 9.9 0 8.3 0L8.3 0Z" fill="#7823DC"/><rect x="4.4" y="17" width="23.4" height="2" fill="#7823DC"/><rect x="4.4" y="21" width="23.4" height="2" fill="#7823DC"/><rect x="4.4" y="25" width="23.4" height="2" fill="#7823DC"/><rect x="4.4" y="29" width="23.4" height="2" fill="#7823DC"/><path d="M29 5 29 9 20.2 9 20.2 5 29 5M31 3 18.2 3 18.2 11 31 11 31 3 31 3Z" fill="#7823DC"/><rect x="23.6" y="10" width="2" height="3" fill="#7823DC"/></svg>