<svg viewBox="0 0 32 32" xmlns="http://www.w3.org/2000/svg" xmlns:xlink="http://www.w3.org/1999/xlink" id="Layer_5" overflow="hidden"><defs></defs><path d="M6 12 16 12 16 4 6 4 6 12ZM8 6 14 6 14 10 8 10 8 6Z" stroke-width="0" fill="#7823DC"/><path d="M28.3 8.97 24.38 5.27 23.01 6.73 25.82 9.38C24.42 9.74 23.38 11 23.38 12.51 23.38 14.3 24.84 15.75 26.62 15.75 27.11 15.75 27.57 15.63 27.99 15.43L27.99 27.92C27.99 27.92 27.96 28 27.91 28L26.06 28C26.06 28 25.98 27.97 25.98 27.92L25.98 19C25.98 17.35 24.63 16 22.98 16L19.98 16 19.98 4.1C20 1.84 18.16 0 15.91 0L6.1 0C3.84 0 2 1.84 2 4.1L2 32 20 32 20 18 23 18C23.55 18 24 18.45 24 19L24 27.92C24 29.06 24.93 30 26.08 30L27.93 30C29.07 30 30.01 29.07 30.01 27.92L30.01 12.9C30.01 11.42 29.39 9.98 28.31 8.97ZM18 30 4 30 4 4.1C4 2.94 4.94 2 6.1 2L15.91 2C17.07 2 18 2.94 18 4.1L18 30ZM26.63 13.75C25.94 13.75 25.39 13.19 25.39 12.51 25.39 11.83 25.95 11.27 26.63 11.27 27.31 11.27 27.87 11.83 27.87 12.51 27.87 13.19 27.31 13.75 26.63 13.75Z" stroke-width="0" fill="#7823DC"/></svg>