<svg viewBox="0 0 32 32" xmlns="http://www.w3.org/2000/svg" xmlns:xlink="http://www.w3.org/1999/xlink" id="Graphic" overflow="hidden"><defs></defs><path d="M24.53 2 21.62 2 19.26 4.39 17 4.41 15.9 4.75 14.34 5.75 14 6 13.48 6.52 9 11.06 9 14C10.5833 15.5804 13.0806 15.7755 14.89 14.46L17.89 12.3 22.47 11.93 21.16 10 17.16 10.24 13.66 12.79C13.2337 13.1026 12.7186 13.2708 12.19 13.27 11.5302 13.2675 10.8979 13.0052 10.43 12.54L15 8 15.52 7.48 17.08 6.48 20.08 6.48 20.13 6.48 23.13 3.48 30.59 10.93 27.59 13.93 27.59 13.93 26.59 15.93 28 17.84 29.3 15.13 32 12.4 32 9.49Z" fill="#7823DC"/><path d="M29 19.34C28.993 18.2402 28.5465 17.1888 27.76 16.42L23.67 12.42 23.17 11.92 21.17 9.98 19 10.61 21.73 13.35 22.25 13.86 26.34 17.86C27.1684 18.6717 27.182 20.0013 26.3703 20.8297 26.3603 20.8399 26.3502 20.85 26.34 20.86L20.75 15.37 19.32 16.8 25.26 22.75C25.6688 23.1691 25.6604 23.8402 25.2414 24.249 25.0481 24.4375 24.79 24.5452 24.52 24.55 24.2396 24.546 23.9714 24.4351 23.77 24.24L17.83 18.29 16.3 19.76 21.51 25C21.9179 25.4129 21.9179 26.0771 21.51 26.49 21.3086 26.6851 21.0404 26.796 20.76 26.8 20.482 26.7987 20.2159 26.6872 20.02 26.49L14.82 21.28 13.33 22.77 17.79 27.23 17.52 27.5C16.8429 28.1658 15.7571 28.1658 15.08 27.5L11.84 24.26 11.33 23.74 4.41 16.78 4.41 13.84 4.41 13.79 1.41 10.79 8.83 3.44 11.83 6.44 11.83 6.44 14.78 6.44 15.13 6.8 17.37 6.15 16.2 5 14.78 4.4 12.65 4.4 10.27 2 7.4 2 0 9.38 0 12.26 2.33 14.59 2.33 16.8 3 18.22 9.92 25.14 10.43 25.66 13.68 28.9C15.1426 30.3663 17.517 30.3693 18.9833 28.9067 18.9855 28.9045 18.9878 28.9022 18.99 28.9L19.26 28.63 19.26 28.39C20.7346 29.2379 22.6174 28.7298 23.4653 27.2552 23.605 27.0123 23.7109 26.7515 23.78 26.48 24.0199 26.5318 24.2646 26.5586 24.51 26.56 25.3275 26.5622 26.1121 26.2383 26.69 25.66 27.5766 24.7726 27.8411 23.4385 27.36 22.28L27.77 22.28C28.5549 21.5028 28.9976 20.4446 29 19.34Z" fill="#7823DC"/></svg>