<svg viewBox="0 0 32 32" xmlns="http://www.w3.org/2000/svg" xmlns:xlink="http://www.w3.org/1999/xlink" id="Layer_1" overflow="hidden"><style>
.MsftOfcResponsive_Fill_7823dc {
 fill:#7823DC; 
}
</style>
<path d="M22 10 2 10 2 30 22 30 22 10 22 10 22 10ZM24 32 0 32 0 8 24 8 24 32 24 32 24 32Z" class="MsftOfcResponsive_Fill_7823dc" fill="#7823DC" fill-rule="evenodd" clip-rule="evenodd"/><path d="M31.7 1.7 30.3 0.3 22.3 8.3 23.7 9.7Z" class="MsftOfcResponsive_Fill_7823dc" fill="#7823DC" fill-rule="evenodd" clip-rule="evenodd"/><path d="M9.4 1.5 8 0.1 0 8.1 1.4 9.5Z" class="MsftOfcResponsive_Fill_7823dc" fill="#7823DC" fill-rule="evenodd" clip-rule="evenodd"/><path d="M32 24 30.6 22.6 22.6 30.6 24 32Z" class="MsftOfcResponsive_Fill_7823dc" fill="#7823DC" fill-rule="evenodd" clip-rule="evenodd"/><path d="M32 24 30 24 30 2 8 2 8 0 32 0Z" class="MsftOfcResponsive_Fill_7823dc" fill="#7823DC"/><path d="" class="MsftOfcResponsive_Fill_7823dc" stroke="#7823DC" stroke-width="2" stroke-miterlimit="10" stroke-dasharray="2" fill="#7823DC"/><rect x="8" y="1" width="2.1" height="2" class="MsftOfcResponsive_Fill_7823dc" fill="#7823DC"/><rect x="8" y="5" width="2.1" height="2" class="MsftOfcResponsive_Fill_7823dc" fill="#7823DC"/><rect x="8" y="10" width="2.1" height="2" class="MsftOfcResponsive_Fill_7823dc" fill="#7823DC"/><rect x="8" y="14" width="2.1" height="2" class="MsftOfcResponsive_Fill_7823dc" fill="#7823DC"/><rect x="8" y="18" width="2.1" height="2" class="MsftOfcResponsive_Fill_7823dc" fill="#7823DC"/><rect x="8" y="22" width="2.1" height="2" class="MsftOfcResponsive_Fill_7823dc" fill="#7823DC"/><rect x="12" y="22" width="2.1" height="2" class="MsftOfcResponsive_Fill_7823dc" fill="#7823DC"/><rect x="16" y="22" width="2.1" height="2" class="MsftOfcResponsive_Fill_7823dc" fill="#7823DC"/><rect x="19.9" y="22" width="2.1" height="2" class="MsftOfcResponsive_Fill_7823dc" fill="#7823DC"/><rect x="25" y="22" width="2.1" height="2" class="MsftOfcResponsive_Fill_7823dc" fill="#7823DC"/><rect x="29" y="22" width="1.5" height="2" class="MsftOfcResponsive_Fill_7823dc" fill="#7823DC"/><rect x="0" y="30" width="2.1" height="2" class="MsftOfcResponsive_Fill_7823dc" fill="#7823DC"/><rect x="2.6" y="27.3" width="2.1" height="2" class="MsftOfcResponsive_Fill_7823dc" fill="#7823DC"/><rect x="5.3" y="24.7" width="2.1" height="2" class="MsftOfcResponsive_Fill_7823dc" fill="#7823DC"/></svg>