<svg viewBox="0 0 32 32" xmlns="http://www.w3.org/2000/svg" xmlns:xlink="http://www.w3.org/1999/xlink" id="Layer_1" overflow="hidden"><style>
.MsftOfcResponsive_Fill_7823dc {
 fill:#7823DC; 
}
</style>
<defs></defs><path d="M16 2C23.72 2 30 8.28 30 16 30 23.72 23.72 30 16 30 8.28 30 2 23.72 2 16 2 8.28 8.28 2 16 2M16 0C7.16 0 0 7.16 0 16 0 24.84 7.16 32 16 32 24.84 32 32 24.84 32 16 32 7.16 24.84 0 16 0L16 0Z" class="MsftOfcResponsive_Fill_7823dc" fill="#7823DC"/><path d="M11 15 1 15 1 17 11 17 11 15 11 15Z" class="MsftOfcResponsive_Fill_7823dc" fill="#7823DC"/><path d="M30.95 15 21 15 21 17 30.95 17 30.95 15 30.95 15Z" class="MsftOfcResponsive_Fill_7823dc" fill="#7823DC"/><path d="M20.73 19.26 19.31 20.67 26.33 27.7 27.75 26.28 20.73 19.26 20.73 19.26Z" class="MsftOfcResponsive_Fill_7823dc" fill="#7823DC"/><path d="M5.67 4.74 4.26 6.16 11.06 12.96 12.48 11.55 5.67 4.74 5.67 4.74Z" class="MsftOfcResponsive_Fill_7823dc" fill="#7823DC"/><path d="M16 15C16.55 15 17 15.45 17 16 17 16.55 16.55 17 16 17 15.45 17 15 16.55 15 16 15 15.45 15.45 15 16 15M16 13C14.34 13 13 14.34 13 16 13 17.66 14.34 19 16 19 17.66 19 19 17.66 19 16 19 14.34 17.66 13 16 13L16 13Z" class="MsftOfcResponsive_Fill_7823dc" fill="#7823DC"/></svg>