<svg viewBox="0 0 32 32" xmlns="http://www.w3.org/2000/svg" xmlns:xlink="http://www.w3.org/1999/xlink" id="Grid" overflow="hidden"><defs></defs><path d="M120.37 210.28 114 210.28 114 209C115.754 208.448 116.729 206.578 116.176 204.824 115.624 203.069 113.754 202.095 112 202.647 110.246 203.2 109.271 205.069 109.824 206.824 110.15 207.861 110.963 208.673 112 209L112 210.28 105.58 210.28 103.26 224 122.65 224ZM113 204.53C113.729 204.536 114.315 205.131 114.31 205.86 114.304 206.589 113.709 207.175 112.98 207.17 112.255 207.164 111.67 206.575 111.67 205.85 111.675 205.119 112.269 204.53 113 204.53ZM105.62 222 107.24 212.24 118.67 212.24 120.29 222Z" fill="#7823DC" transform="translate(-90.65 -192.11)"/><path d="M17.43 21.17 16.99 23.85 17.77 28.93 19.79 28.93 18.6 21.17 17.43 21.17Z" fill="#7823DC"/><path d="M0 32 11.58 32 11.62 31.76 11.91 30 0 30 0 32Z" fill="#7823DC"/><path d="M106.62 209.28 108.62 209.28 107.62 202.53 97.62 202.53 97.62 201.13C100.083 200.578 101.632 198.134 101.079 195.671 100.527 193.208 98.0828 191.659 95.62 192.212 93.1572 192.764 91.6085 195.208 92.1608 197.671 92.5476 199.396 93.8949 200.743 95.62 201.13L95.62 202.53 90.62 202.53 90.62 204.53 105.86 204.53ZM94.08 196.68C94.08 195.261 95.2306 194.11 96.65 194.11 98.0694 194.11 99.22 195.261 99.22 196.68 99.22 198.099 98.0694 199.25 96.65 199.25 95.2306 199.25 94.08 198.099 94.08 196.68Z" fill="#7823DC" transform="translate(-90.65 -192.11)"/></svg>