<svg viewBox="0 0 32 32" xmlns="http://www.w3.org/2000/svg" xmlns:xlink="http://www.w3.org/1999/xlink" id="Layer_1" overflow="hidden"><g><path d="M14 15.6 16 15.6 16 29.6 14 29.6Z" fill="#7823DC" fill-rule="evenodd" clip-rule="evenodd"/><path d="M25.1 21 0 21 0 23 30 23 28.1 21.6 25.1 21Z" fill="#7823DC" fill-rule="evenodd" clip-rule="evenodd"/><path d="M28 24 30 24 30 26 28 26Z" fill="#7823DC" fill-rule="evenodd" clip-rule="evenodd"/><path d="M24 28C24.6 28 25 28.4 25 29 25 29.6 24.6 30 24 30 23.4 30 23 29.6 23 29 23 28.4 23.5 28 24 28M24 26C22.3 26 21 27.3 21 29 21 30.7 22.3 32 24 32 25.7 32 27 30.7 27 29 27 27.3 25.7 26 24 26L24 26Z" fill="#7823DC" fill-rule="evenodd" clip-rule="evenodd"/><path d="M6.2 28C6.8 28 7.2 28.4 7.2 29 7.2 29.6 6.8 30 6.2 30 5.6 30 5.2 29.6 5.2 29 5.2 28.4 5.6 28 6.2 28M6.2 26C4.5 26 3.2 27.3 3.2 29 3.2 30.7 4.5 32 6.2 32 7.9 32 9.2 30.7 9.2 29L9.2 29C9.1 27.3 7.8 26 6.2 26L6.2 26Z" fill="#7823DC" fill-rule="evenodd" clip-rule="evenodd"/><path d="M8 28.1 22.3 28.1 22.3 30.1 8 30.1Z" fill="#7823DC" fill-rule="evenodd" clip-rule="evenodd"/><path d="M25.5 28.1 31.1 28.1 31.1 30.1 25.5 30.1Z" fill="#7823DC" fill-rule="evenodd" clip-rule="evenodd"/><path d="M2 28.1 2 21.7 0 21.7 0 26.1 3.9 30.1 4.9 30.1 4.9 28.1Z" fill="#7823DC" fill-rule="evenodd" clip-rule="evenodd"/><path d="M25.7 20 21.8 13.9 6.8 13.9 2.3 21.2 4 22.4 7.8 15.9 20.8 15.9 24.6 21.8 29.9 23.5 29.9 30.1 31.9 30.1 31.9 22.1Z" fill="#7823DC" fill-rule="evenodd" clip-rule="evenodd"/></g><g><path d="M20.5 9 23 10.2 23 11 5 11 5 10.2 7.5 9 20.5 9M21 7 7 7 3 9 3 13 25 13 25 9 21 7 21 7Z" fill="#7823DC"/></g><g><rect x="8" y="11" width="2" height="3" fill="#7823DC"/></g><g><rect x="19" y="11" width="2" height="3" fill="#7823DC"/></g></svg>