<svg viewBox="0 0 32 32" xmlns="http://www.w3.org/2000/svg" xmlns:xlink="http://www.w3.org/1999/xlink" id="Graphic" xml:space="preserve" overflow="hidden"><path d="M3.7 20.1 6.7 17 15 26C15.1 26.1 15.1 26.1 15.2 26.2L15.2 26.2 15.2 26.2C15.3 26.3 15.4 26.4 15.5 26.5L12.4 29.2 13.7 30.6 17.3 27.5C18.9 28 20.7 27.5 21.9 26.2L21.9 26.2 28.8 19C30.2 17.8 31 16 31.1 14L31.1 14C31.1 12 30.3 10.2 28.9 9L22.9 2.5C20.8-0.3 17-0.8 14.4 1.4 13.6 2.1 13 3 12.6 4 10.2 3.2 8.2 5.4 8.2 5.4L5.3 8.3 5.3 8.3C3.5 10.2 3.4 13.2 5.1 15.3L5.1 15.3 5.2 15.4C5.3 15.5 5.3 15.5 5.4 15.6L5.4 15.6 1 20.1 1.2 20.4 1.2 20.4 12 32 13.6 30.6M18 2.1C19.2 2.1 20.3 2.6 21.1 3.5L21.1 3.5 24.1 6.7 24.1 6.7 24.9 7.5 24.9 7.5 28.3 11.2 28.3 11.2C28.9 12 29.2 13 29.2 14 29.2 16.4 27.3 18.3 25 18.3 24.1 18.3 23.1 17.9 22.4 17.3L22.4 17.3 18.7 13.3C19.3 11.7 19 9.9 18 8.6L18 8.6 17.9 8.5C17.8 8.4 17.8 8.4 17.7 8.3L15.2 5.6C15 5.4 14.8 5.1 14.6 4.9L14.6 4.9 14.6 4.9C14.5 4.8 14.4 4.7 14.2 4.6 14.8 3.1 16.3 2.1 18 2.1L18 2.1ZM23.2 21.9 23.2 21.9 20.5 24.7 20.5 24.7C19.4 25.9 17.7 25.9 16.5 24.8L16.5 24.8 16.5 24.8 16.5 24.8 16.5 24.8 6.4 13.8 6.3 13.9 6.3 13.9 6.4 13.8C5.5 12.6 5.6 10.8 6.6 9.7L6.6 9.7 6.6 9.7 6.6 9.7 9.6 6.5 9.6 6.5C9.6 6.5 11.3 4.8 13.2 6.6L16.5 10.1C17.3 11.2 17.2 12.7 16.2 13.6 15.3 14.4 14 14.4 13.2 13.5L11 11.1 9.6 12.5 11.8 14.9 11.8 14.9C13.4 16.5 15.8 16.5 17.5 15L21 18.8 21 18.8C22 19.8 23.3 20.3 24.7 20.4L23.2 21.9Z" fill="#7823DC" fill-rule="evenodd" clip-rule="evenodd"/></svg>