<svg viewBox="0 0 32 32" xmlns="http://www.w3.org/2000/svg" xmlns:xlink="http://www.w3.org/1999/xlink" overflow="hidden"><style>
.MsftOfcResponsive_Fill_7823dc {
 fill:#7823DC; 
}
</style>
<defs></defs><g id="Layer_3"><path d="M8.23013 7.219 8.23 7.219C9.48671 7.26941 10.7189 7.58283 11.8469 8.139 10.4579 8.61373 9.1011 9.12057 7.78694 9.65585 6.19416 10.3047 4.62052 11.011 3.03923 11.7876 3.82371 9.83981 5.01523 8.15768 6.57417 7.52267 7.10128 7.31516 7.66369 7.21202 8.23013 7.219M8.22934 5.219C7.40441 5.21136 6.58592 5.36474 5.81973 5.67053 2.221 7.13638 0.43439 12.0199 0.0322 15.6282 5.25259 12.6756 10.812 10.3676 16.5886 8.75466 14.3951 7.00832 11.2128 5.21865 8.22934 5.219Z" class="MsftOfcResponsive_Fill_7823dc" fill="#7823DC"/><path d="M8.53126 2.00983 8.5312 2.00983C9.14776 2.0005 9.7601 2.11283 10.3332 2.3404 11.8574 2.97199 12.9438 4.59357 13.655 6.4881 12.3312 5.8481 11.0115 5.25543 9.696 4.7101 8.13142 4.06183 6.50276 3.454 4.8239 2.89142 5.98801 2.35177 7.24884 2.05196 8.53126 2.00983M8.53102 0.00983C5.48063 0.00983 2.16777 1.73774-0.0175 3.50544 3.02529 4.3372 6.01364 5.3566 8.9304 6.5578 11.5499 7.64791 14.1067 8.88285 16.589 10.2569 16.1648 6.70148 14.6424 1.96112 11.0989 0.49274 10.2832 0.163926 9.41043-0.000197614 8.531 0.00983001Z" class="MsftOfcResponsive_Fill_7823dc" fill="#7823DC"/><path d="M23.1436 3.59267C24.8881 3.75826 26.5104 4.56086 27.7004 5.84707 26.2397 5.86001 24.7854 5.91384 23.3678 6.00784 21.6762 6.1199 19.9448 6.2969 18.1883 6.53677 19.5471 4.93435 21.2089 3.71242 22.8893 3.6011 22.9743 3.59548 23.0592 3.59267 23.1436 3.59267M23.1436 1.59267C23.0153 1.59267 22.8862 1.59695 22.757 1.60549 18.8797 1.86233 15.6449 5.93386 14.126 9.23135 17.2224 8.62899 20.353 8.2189 23.5001 8.00344 25.1385 7.89477 26.7669 7.84167 28.3853 7.84414 29.5977 7.84414 30.8042 7.87161 32.0049 7.92654 30.1154 5.02822 26.8168 1.59267 23.1436 1.59267Z" class="MsftOfcResponsive_Fill_7823dc" fill="#7823DC"/><path d="M24.202 8.01553 24.202 8.01553C25.172 7.98154 26.1329 8.21327 26.9807 8.68569 28.3937 9.53738 29.2262 11.3028 29.6469 13.2823 28.4337 12.4522 27.2171 11.6694 25.9973 10.9339 24.5239 10.0457 23.0156 9.20705 21.4465 8.40456 22.3448 8.15868 23.2708 8.02797 24.202 8.01556M24.2019 6.01556C21.5075 6.12208 18.8834 6.90588 16.5719 8.29456 19.4567 9.5706 22.2597 11.0241 24.9648 12.6467 27.3925 14.1152 29.7366 15.7175 31.9864 17.4463 32.0969 13.8672 31.2982 8.95288 28.0132 6.97278 26.854 6.31158 25.5359 5.98051 24.2019 6.01551Z" class="MsftOfcResponsive_Fill_7823dc" fill="#7823DC"/><path d="M19.054 9.9493C21.0674 10.3479 22.9625 11.1847 23.9009 12.6434 24.7935 14.031 24.7623 15.9825 24.2671 17.9447 23.5441 16.6647 22.7974 15.4257 22.0269 14.2277 21.1091 12.8008 20.1181 11.3746 19.054 9.9493M15.9954 7.65682C15.5594 7.65682 15.1359 7.67269 14.7312 7.7026 16.7577 10.1199 18.6326 12.6605 20.345 15.3096 21.8764 17.6981 23.2737 20.1699 24.5306 22.7135 26.208 19.5501 27.6582 14.7871 25.583 11.5613 23.7156 8.6586 19.4606 7.65677 15.9954 7.65677Z" class="MsftOfcResponsive_Fill_7823dc" fill="#7823DC"/><path d="M12.3554 10.189C11.2508 10.189 10.3554 11.0844 10.3554 12.189 10.3554 13.2936 11.2508 14.189 12.3554 14.189 13.46 14.189 14.3554 13.2936 14.3554 12.189 14.3554 11.0844 13.46 10.189 12.3554 10.189Z" class="MsftOfcResponsive_Fill_7823dc" fill="#7823DC"/><path d="M23.9978 27.9994C22.8933 27.9994 21.9978 28.8948 21.9978 29.9994 21.9978 31.104 22.8933 31.9994 23.9978 31.9994 25.1024 31.9994 25.9978 31.104 25.9978 29.9994 25.9978 28.8948 25.1024 27.9994 23.9978 27.9994Z" class="MsftOfcResponsive_Fill_7823dc" fill="#7823DC"/><path d="M16.7973 6.20066C15.7426 6.15991 14.8546 6.98182 14.8139 8.03644 14.7731 9.09107 15.595 9.97906 16.6497 10.0198 17.7043 10.0606 18.5923 9.23865 18.633 8.18402 18.634 8.15944 18.6345 8.13485 18.6345 8.11025 18.6541 7.07575 17.8317 6.22101 16.7972 6.20066Z" class="MsftOfcResponsive_Fill_7823dc" fill="#7823DC"/><path d="M19.7567 31.9878C16.3867 24.6481 15.3992 16.4375 16.9326 8.508L14.9775 8.09C13.3704 16.1316 14.2685 24.4726 17.5505 31.9878Z" class="MsftOfcResponsive_Fill_7823dc" fill="#7823DC"/></g></svg>