<svg viewBox="0 0 32 32" xmlns="http://www.w3.org/2000/svg" xmlns:xlink="http://www.w3.org/1999/xlink" overflow="hidden"><style>
.MsftOfcResponsive_Fill_7823dc {
 fill:#7823DC; 
}
</style>
<defs></defs><g id="Graphic"><path d="M16.0118 19.6861C14.9072 19.6861 14.0118 18.7906 14.0118 17.6861 14.0118 16.5815 14.9072 15.6861 16.0118 15.6861 17.1164 15.6861 18.0118 16.5815 18.0118 17.6861 18.0105 18.7901 17.1159 19.6848 16.0118 19.6861Z" class="MsftOfcResponsive_Fill_7823dc" fill="#7823DC"/><path d="M16.0116 16.6861C16.5622 16.6878 17.0072 17.1355 17.0055 17.6861 17.0038 18.2367 16.5561 18.6816 16.0055 18.6799 15.4549 18.6782 15.0099 18.2305 15.0116 17.6799 15.012 17.5684 15.031 17.4577 15.068 17.3524 15.2098 16.953 15.5877 16.686 16.0116 16.6861M16.0116 14.6861C14.3548 14.6861 13.0116 16.0292 13.0116 17.6861 13.0116 19.3429 14.3548 20.6861 16.0116 20.6861 17.6685 20.6861 19.0116 19.3429 19.0116 17.6861 19.011 16.0295 17.6682 14.6867 16.0116 14.6861Z" class="MsftOfcResponsive_Fill_7823dc" fill="#7823DC"/><path d="M16.012 12.719 18.43 15.911 13.593 15.911 16.012 12.719Z" class="MsftOfcResponsive_Fill_7823dc" fill="#7823DC"/></g><g id="Layer_3"><path d="M23.9298 4.07019 23.9298 29.9298 8.0702 29.9298 8.0702 4.07019 23.9298 4.07019M26 2 6 2 6 32 26 32 26 2Z" class="MsftOfcResponsive_Fill_7823dc" fill="#7823DC"/><rect x="8.47207" y="0" width="5.52793" height="2" class="MsftOfcResponsive_Fill_7823dc" fill="#7823DC"/><rect x="4" y="2" width="24" height="2" class="MsftOfcResponsive_Fill_7823dc" fill="#7823DC"/><rect x="4" y="30" width="24" height="2" class="MsftOfcResponsive_Fill_7823dc" fill="#7823DC"/><rect x="8" y="8" width="16" height="2" class="MsftOfcResponsive_Fill_7823dc" fill="#7823DC"/><rect x="8" y="24" width="16" height="2" class="MsftOfcResponsive_Fill_7823dc" fill="#7823DC"/></g></svg>