<svg viewBox="0 0 32 32" xmlns="http://www.w3.org/2000/svg" xmlns:xlink="http://www.w3.org/1999/xlink" id="Layer_2_00000144328325245699140920000014890284756443101063_" xml:space="preserve" overflow="hidden"><g><path d="M10.7 32C10.1 32 9.6 31.8 9 31.5 7.9 30.8 7.4 29.6 7.7 28.3 8 27 8.6 25.8 9.2 24.6 9.4 24.3 9.5 23.9 9.7 23.5L10.4 21.9C9.4 21.9 8.4 21.5 7.7 20.8 6.9 20 6.5 19 6.4 17.9 6.4 16.7 6.8 15.6 7.6 14.8 8.4 14 9.4 13.6 10.6 13.5 11.7 13.5 12.7 13.9 13.5 14.7 14.3 15.5 14.7 16.5 14.7 17.6L14.7 17.6C14.7 19.9 13 21.7 10.8 21.8L11.5 23.4C11.7 23.8 11.9 24.2 12.1 24.6 12.7 25.8 13.2 26.9 13.5 28.2 13.8 29.5 13.4 30.6 12.2 31.4 11.8 31.8 11.3 32 10.7 32L10.7 32ZM10.7 26.3C10.3 27.2 9.9 28 9.7 28.8 9.6 29.3 9.7 29.5 10.1 29.8 10.5 30.1 10.8 30.1 11.2 29.8 11.6 29.5 11.7 29.3 11.6 28.8 11.5 28 11.1 27.2 10.7 26.3L10.7 26.3ZM10.8 15.6 10.8 15.6C10.2 15.6 9.6 15.8 9.2 16.3 8.8 16.7 8.6 17.3 8.6 17.9 8.6 18.5 8.8 19 9.3 19.4 9.7 19.8 10.2 20 10.7 20 10.7 20 10.7 20 10.7 20 12 20 12.9 19 12.9 17.8L12.9 17.8C12.9 17.2 12.7 16.6 12.3 16.2 11.8 15.8 11.3 15.6 10.8 15.6L10.8 15.6ZM10.7 13.6 10.7 13.6C9.9 13.6 9.2 13.2 8.7 12.6 8.2 12.1 8 11.4 8.1 10.7 8.2 9.6 8.8 8.9 9.6 8.5L9.6 5.3 10.8 5.6C10.9 5.6 11.9 5.8 12.5 5.2 12.9 4.8 13.1 4.2 13 3.6 13 3.1 12.8 2.6 12.4 2.4 12 1.9 11.1 2 10.9 2.2 10.9 2.2 10.8 2.3 10.8 2.5 10.7 2.8 10.5 3.2 10 3.6 9.3 4 8.4 4 7.5 3.9L7.3 3.9 7.3 1.9C7.4 1.9 7.5 1.9 7.6 1.9 8.2 1.9 8.6 1.9 8.8 1.9 8.8 1.9 8.9 1.8 9 1.6 9.1 1.4 9.2 1.1 9.5 0.8 10.5-0.2 12.4-0.3 13.7 0.7 14.5 1.3 15 2.3 15.1 3.4 15.2 4.6 14.8 5.8 14 6.6 13.3 7.3 12.5 7.5 11.7 7.6L11.7 8.5C12.1 8.6 12.4 8.8 12.7 9.1 13.2 9.6 13.5 10.3 13.5 11 13.5 11.7 13.2 12.4 12.7 12.9 12.1 13.3 11.4 13.6 10.7 13.6L10.7 13.6ZM10.8 10.3 10.8 10.3C10.5 10.3 10.2 10.4 10.1 11 10.1 11.1 10.2 11.2 10.2 11.3 10.3 11.5 10.5 11.5 10.7 11.5L10.7 11.5C10.8 11.5 11 11.4 11.2 11.3 11.3 11.2 11.4 11 11.4 10.9 11.4 10.7 11.3 10.6 11.2 10.4 11 10.4 10.9 10.3 10.8 10.3L10.8 10.3Z" fill="#7823DC" fill-rule="evenodd" clip-rule="evenodd"/><path d="M21 32C20.4 32 19.9 31.8 19.3 31.5 18.2 30.8 17.7 29.6 18 28.3 18.3 27 18.9 25.8 19.5 24.6 19.7 24.3 19.8 23.9 20 23.5L20.7 21.9C19.7 21.9 18.7 21.5 18 20.8 17.2 20 16.8 19 16.7 17.8 16.7 16.6 17.1 15.5 17.9 14.7 18.7 13.9 19.7 13.5 20.9 13.4 21.9 13.4 22.9 13.8 23.7 14.5 24.5 15.3 25 16.4 25 17.5 25 19.8 23.3 21.6 21.1 21.7L21.8 23.3C22 23.7 22.2 24.1 22.4 24.5 23 25.7 23.5 26.8 23.8 28.1 24.1 29.4 23.7 30.5 22.5 31.3 22.2 31.8 21.6 32 21 32L21 32ZM21 26.3C20.6 27.2 20.2 28 20 28.8 19.9 29.2 19.9 29.5 20.4 29.8 20.8 30.1 21.1 30.1 21.5 29.8 21.9 29.5 22 29.3 21.9 28.8 21.8 28 21.5 27.2 21 26.3L21 26.3ZM21.1 15.6 21.1 15.6C20.5 15.6 19.9 15.8 19.5 16.3 19.1 16.7 18.9 17.3 18.9 17.9 18.9 18.5 19.1 19 19.6 19.4 20 19.8 20.4 20 21 20 22.3 20 23.2 19 23.2 17.8L23.2 17.8C23.2 17.2 23 16.6 22.5 16.2 22.1 15.8 21.6 15.6 21.1 15.6L21.1 15.6ZM21 13.6 21 13.6C20.2 13.6 19.4 13.2 19 12.6 18.5 12.1 18.3 11.4 18.4 10.7 18.5 9.6 19.1 8.9 19.9 8.5L19.9 5.3 21.1 5.6C21.2 5.6 22.2 5.8 22.8 5.2 23.2 4.8 23.4 4.2 23.4 3.6 23.4 3.1 23.2 2.6 22.8 2.4 22.3 2 21.4 2.1 21.2 2.3 21.2 2.3 21.1 2.4 21 2.6 20.9 2.9 20.7 3.3 20.2 3.7 19.6 4 18.8 4 17.8 3.9L17.6 3.9 17.6 1.9C17.7 1.9 17.8 1.9 17.9 1.9 18.5 1.9 18.9 1.9 19.1 1.9 19.1 1.9 19.2 1.8 19.3 1.6 19.4 1.4 19.5 1.1 19.8 0.8 20.8-0.2 22.7-0.3 24 0.7 24.8 1.3 25.3 2.3 25.4 3.4 25.5 4.6 25.1 5.8 24.3 6.6 23.6 7.3 22.7 7.5 22 7.6L22 8.5C22.4 8.6 22.7 8.8 23 9.1 23.5 9.6 23.8 10.3 23.8 11 23.8 11.7 23.5 12.4 23 12.9 22.4 13.3 21.7 13.6 21 13.6L21 13.6ZM21.1 10.3 21.1 10.3C20.8 10.3 20.5 10.4 20.4 11 20.4 11.1 20.5 11.2 20.5 11.3 20.6 11.5 20.8 11.5 21 11.5L21 11.5C21.2 11.5 21.3 11.4 21.5 11.3 21.6 11.2 21.7 11 21.7 10.9 21.7 10.7 21.6 10.6 21.5 10.4 21.4 10.3 21.2 10.3 21.1 10.3L21.1 10.3Z" fill="#7823DC" fill-rule="evenodd" clip-rule="evenodd"/></g></svg>