<svg viewBox="0 0 32 32" xmlns="http://www.w3.org/2000/svg" xmlns:xlink="http://www.w3.org/1999/xlink" id="Layer_5" overflow="hidden"><style>
.MsftOfcResponsive_Fill_7823dc {
 fill:#7823DC; 
}
</style>
<defs></defs><path d="M31.17 20.03 31.17 16.03 29 16.03 29 4.23 30 4.23 30 5.45 32 5.45 32 1.01 30 1.01 30 2.23 29 2.23 29 0.03 1.97 0 1.97 8.31C0.81 8.82-0.01 9.98-0.01 11.33L-0.01 26.72C-0.01 26.77-1.1189e-15 26.82 0.01 26.87L0 26.87 0 28.02 0 28.02 0 30.02 32 30.02 32 20.02 31.17 20.02ZM29.17 20.03 26.84 20.03 26.84 18.03 29.17 18.03 29.17 20.03ZM27 16.03 24.83 16.03 24.83 20.03 24 20.03 24 24.14 21.93 24.14 21.93 11.33C21.93 9.91 21.03 8.71 19.77 8.24L19.77 2.02 27 2.02 27 16.03ZM10.97 10.03C11.69 10.03 12.27 10.61 12.27 11.33L12.27 11.58 9.67 11.58 9.67 11.33C9.67 10.61 10.25 10.03 10.97 10.03ZM11.96 8.2 11.96 2.01 17.78 2.01 17.78 8.16C16.38 8.54 15.34 9.81 15.34 11.34L15.34 24.15 14.27 24.15 14.27 11.34C14.27 9.86 13.29 8.63 11.96 8.2ZM17.34 11.34C17.34 10.62 17.92 10.04 18.64 10.04 19.36 10.04 19.94 10.62 19.94 11.34L19.94 11.59 17.34 11.59 17.34 11.34ZM9.95 2.01 9.95 8.21C8.63 8.64 7.67 9.87 7.67 11.34L7.67 24.15 6.6 24.15 6.6 11.34C6.6 9.75 5.47 8.42 3.98 8.11L3.98 2 9.96 2ZM3.3 10.03C4.02 10.03 4.6 10.61 4.6 11.33L4.6 11.58 2 11.58 2 11.33C2 10.61 2.58 10.03 3.3 10.03ZM3.3 28.03C2.58 28.03 2 27.45 2 26.73L2 13.59 4.6 13.59 4.6 26.73C4.6 27.45 4.02 28.03 3.3 28.03ZM6.33 28.03C6.5 27.63 6.6 27.19 6.6 26.73L6.6 26.14 7.67 26.14 7.67 26.73C7.67 27.19 7.77 27.63 7.94 28.03L6.33 28.03ZM10.97 28.03C10.25 28.03 9.67 27.45 9.67 26.73L9.67 13.59 12.27 13.59 12.27 26.73C12.27 27.45 11.69 28.03 10.97 28.03ZM14 28.03C14.17 27.63 14.27 27.19 14.27 26.73L14.27 26.14 15.34 26.14 15.34 26.73C15.34 27.19 15.44 27.63 15.61 28.03L14 28.03ZM18.64 28.03C17.92 28.03 17.34 27.45 17.34 26.73L17.34 13.59 19.94 13.59 19.94 26.73C19.94 27.45 19.36 28.03 18.64 28.03ZM21.67 28.03C21.84 27.63 21.94 27.19 21.94 26.73L21.94 26.14 24.01 26.14 24.01 28.03 21.67 28.03ZM30.01 28.03 26.01 28.03 26.01 22.03 30.01 22.03 30.01 28.03Z" class="MsftOfcResponsive_Fill_7823dc" fill="#7823DC"/></svg>