<svg width="36.5" height="36.5" viewBox="0 0 36.5 36.5" xmlns="http://www.w3.org/2000/svg" xmlns:xlink="http://www.w3.org/1999/xlink" overflow="hidden"><defs></defs><g><g><defs><path d="M0 36.5 36.5 36.5 36.5 0 0 0 0 36.5Z" id="SVGID_1_" fill="#7823DC"/></defs><clipPath id="SVGID_2_"><use width="100%" height="100%" xlink:href="#SVGID_1_"></use></clipPath><g clip-path="url(#SVGID_2_)"><defs><path d="M0 36.5 36.5 36.5 36.5 0 0 0 0 36.5Z" id="SVGID_3_" fill="#7823DC"/></defs><clipPath id="SVGID_4_"><use width="100%" height="100%" xlink:href="#SVGID_3_"></use></clipPath><path d="M28.5 4.6 28.5 18.3 22.8 18.3C20.3 18.3 18.2 16.3 18.2 13.7L18.2 9.1C18.2 6.6 20.2 4.5 22.8 4.5L28.5 4.5M30.8 2.3 22.8 2.3C19 2.3 16 5.4 16 9.1L16 13.7C16 17.5 19.1 20.6 22.8 20.6L30.8 20.6 30.8 2.3 30.8 2.3Z" fill="#7823DC" clip-path="url(#SVGID_4_)"/><path d="M30.8 0 28.5 0 28.5 22.9 30.8 22.9 30.8 0 30.8 0 30.8 0Z" fill="#7823DC" clip-path="url(#SVGID_4_)"/><path d="M36.5 6.9 28.5 6.9 28.5 9.1 36.5 9.1 36.5 6.9 36.5 6.9 36.5 6.9Z" fill="#7823DC" clip-path="url(#SVGID_4_)"/><path d="M36.5 13.7 28.5 13.7 28.5 16 36.5 16 36.5 13.7 36.5 13.7 36.5 13.7Z" fill="#7823DC" clip-path="url(#SVGID_4_)"/><path d="M36.5 33.1 4.6 33.1C2 33.1 0 31.1 0 28.6 0 26.1 2 24 4.6 24L11.4 24C12.7 24 13.7 23 13.7 21.7 13.7 20.4 12.7 19.4 11.4 19.4L4.6 19.4C2.1 19.4 0 17.4 0 14.8 0 12.2 2 10.2 4.6 10.2L16 10.2 16 12.5 4.6 12.5C3.3 12.5 2.3 13.5 2.3 14.8 2.3 16.1 3.3 17.1 4.6 17.1L11.4 17.1C13.9 17.1 16 19.1 16 21.7 16 24.3 14 26.3 11.4 26.3L4.6 26.3C3.3 26.3 2.3 27.3 2.3 28.6 2.3 29.9 3.3 30.9 4.6 30.9L36.5 30.9 36.5 33.1Z" fill="#7823DC" clip-path="url(#SVGID_4_)"/></g></g></g></svg>