<svg viewBox="0 0 32 32" xmlns="http://www.w3.org/2000/svg" xmlns:xlink="http://www.w3.org/1999/xlink" id="Layer_2_1_" overflow="hidden"><g><path d="M13.2 9.1 18.6 7.4 18.6 8.2 18.6 9.6 20 9.5 22 9.3 25.2 10.4 25.7 10.6 26.2 10.3 28.2 9.2 30.3 9.2 31.6 9.2 31.6 7.9 31.7 4.1 31.7 2.8 30.4 2.8 28.3 2.8 22.2 0.3 12.2 5.4 11.6 5.8 11.6 6.6 11.6 7.9 11.6 9.6 13.2 9.1 13.2 9.1ZM12.8 6.7 22.3 1.8 28.1 4.2 30.4 4.2 30.4 8 28.1 8 25.8 9.2 22.3 7.9 19.9 8 19.9 6.7 20.6 6.5 23 6.1 23 5 20.5 5.4 20.5 5.4 12.9 7.8 12.8 6.7 12.8 6.7Z" fill="#7823DC" fill-rule="evenodd" clip-rule="evenodd"/><path d="M32 2.6 32 9.4 28.5 9.4 26 10.8 22.2 9.5 18.5 9.9 18.5 7.8 11.5 10 11.5 5.8 12.3 5.3 22.3 0 28.5 2.6 32 2.6ZM31.4 8.9 31.5 3.1 28.4 3 22.3 0.6 11.8 6.1 11.8 9.3 18.9 7.1 18.9 9.3 22.2 9 25.8 10.3 28.4 9 31.4 8.9ZM30.8 3.8 30.7 8.1 28.1 8.1 25.8 9.3 22.2 8.1 19.6 8.4 19.6 6.7 20.4 6.4 22.6 6 22.6 5.4 20.5 5.8 12.6 8.3 12.6 6.5 22.2 1.5 28.1 3.9 30.8 3.8ZM30.1 7.7 30 4.4 27.8 4.4 22.2 2 13 6.8 13 7.6 20.1 5.3 20.1 5.3 20.3 5.3 23.1 4.7 23.1 6.3 20.6 6.8 20 7.1 20 7.9 22.2 7.7 25.6 8.9 28.1 7.7 30.1 7.7Z" fill="#7823DC"/></g><g><path d="M18.8 22.9 13.4 24.6 13.4 23.8 13.4 22.4 12 22.5 10 22.7 6.8 21.6 6.3 21.4 5.8 21.7 3.8 22.8 1.7 22.8 0.4 22.8 0.4 24.1 0.3 27.9 0.3 29.2 1.6 29.2 3.7 29.2 9.8 31.7 19.8 26.6 20.4 26.2 20.4 25.4 20.4 24.1 20.4 22.4 18.8 22.9 18.8 22.9ZM19.2 25.3 9.7 30.2 3.9 27.8 1.6 27.8 1.6 24 3.9 24 6.2 22.8 9.7 24.1 12.1 23.9 12.1 25.2 11.4 25.4 9 25.9 9 27 11.5 26.6 11.5 26.6 19.1 24.2 19.2 25.3 19.2 25.3Z" fill="#7823DC" fill-rule="evenodd" clip-rule="evenodd"/><path d="M0 29.4 0 22.6 3.5 22.6 6 21.2 9.8 22.5 13.5 22.1 13.5 24.2 20.6 22 20.6 26.2 19.8 26.7 9.7 32 3.5 29.4 0 29.4ZM0.6 23.1 0.5 28.9 3.6 29 9.7 31.4 20.2 25.9 20.2 22.7 13.1 24.9 13.1 22.7 9.8 23 6.2 21.7 3.6 23 0.6 23.1ZM1.2 28.2 1.3 23.9 3.9 23.9 6.2 22.7 9.8 23.9 12.4 23.6 12.4 25.3 11.6 25.6 9.4 26 9.4 26.6 11.5 26.2 19.4 23.7 19.4 25.5 9.8 30.5 3.9 28.1 1.2 28.2ZM1.9 24.3 2 27.6 4.2 27.6 9.8 30 19 25.2 19 24.4 11.9 26.7 11.9 26.7 11.7 26.7 8.9 27.3 8.9 25.7 11.4 25.2 11.9 25 11.9 24.2 9.7 24.4 6.3 23.2 3.8 24.4 1.9 24.3Z" fill="#7823DC"/></g><path d="M24.1 13.3 24.1 18.8 7.9 18.8 7.9 13.3 24.1 13.3M26.1 11.3 5.9 11.3 5.9 20.8 26.2 20.8 26.2 11.3 26.1 11.3Z" fill="#7823DC"/><g><path d="M16 15.5C16.2 15.5 16.4 15.7 16.4 15.9 16.4 16.1 16.2 16.3 16 16.3 15.8 16.3 15.6 16.1 15.6 15.9 15.6 15.7 15.8 15.5 16 15.5M16 13.5C14.7 13.5 13.6 14.6 13.6 15.9 13.6 17.2 14.7 18.3 16 18.3 17.3 18.3 18.4 17.2 18.4 15.9 18.4 14.6 17.3 13.5 16 13.5L16 13.5Z" fill="#7823DC"/><path d="M25.2 15.8C22.8 15.8 21.2 14.2 20.8 11.5L22.8 11.2C23.1 14 25 13.8 25.6 13.7L25.8 15.7C25.5 15.8 25.3 15.8 25.2 15.8Z" fill="#7823DC"/><path d="M6.8 15.9C6.6 15.9 6.4 15.9 6.2 15.9L6.4 13.9C7 14 8.8 14.1 9.2 11.4L11.2 11.7C10.8 14.3 9.2 15.9 6.8 15.9Z" fill="#7823DC"/><path d="M22.8 20.7 20.8 20.4C21.2 17.5 23 15.9 25.7 16.1L25.5 18.1C24.9 18.1 23.1 18 22.8 20.7Z" fill="#7823DC"/><path d="M9.2 20.7C8.9 17.9 7 18.1 6.4 18.2L6.2 16.2C8.9 15.9 10.8 17.5 11.1 20.5L9.2 20.7Z" fill="#7823DC"/></g><rect x="0" y="22.6" width="2" height="6.8" fill="#7823DC"/></svg>