<svg viewBox="0 0 32 32" xmlns="http://www.w3.org/2000/svg" xmlns:xlink="http://www.w3.org/1999/xlink" id="Graphic" overflow="hidden"><defs></defs><path d="M6.08 2 24.57 2C27.5909 2.02201 30.022 4.48879 30 7.50971 30 7.5098 30 7.5099 30 7.51L30 11.56C29.9837 14.5537 27.5637 16.9782 24.57 17L9.57 17C6.549 16.9999 4.09993 19.4489 4.09985 22.4699 4.09985 22.4832 4.0999 22.4966 4.1 22.51L4.1 22.51C4.08895 25.531 6.52899 27.9889 9.54996 28 9.55664 28 9.56332 28 9.57 28L26.08 28 26.08 30 7.55 30C4.52739 29.9945 2.08 27.5426 2.08 24.52L2.08 20.52C2.05239 17.4991 4.4789 15.0278 7.49977 15.0002 7.51651 15.0001 7.53326 15 7.55 15L22.55 15C25.5593 14.989 27.9945 12.5493 28 9.54L28 9.54C28.0055 6.51901 25.561 4.06553 22.54 4.06001 22.5367 4.06 22.5333 4.06 22.53 4.06L6.08 4 6.08 2M4.08 0 4.08 6 6.08 6 22.55 6C24.483 6 26.05 7.567 26.05 9.5 26.05 11.433 24.483 13 22.55 13L7.55 13C3.4212 13.011 0.0799855 16.3612 0.0800002 20.49L0.08 24.49C0.0689396 28.6266 3.41335 31.9889 7.54995 32L28.08 32 28.08 26 9.57 26C7.65081 25.897 6.17849 24.2577 6.28148 22.3385 6.37675 20.5633 7.79476 19.1453 9.57 19.05L24.57 19.05C28.6855 19.0225 32.0056 15.6755 32 11.56L32 7.51C32.0166 3.38666 28.6933 0.0275293 24.57 2.28882e-07L6.08 0Z" fill="#7823DC"/><rect x="0.08" y="0.01" width="4.15" height="1.98" fill="#7823DC"/><rect x="0" y="4.02" width="4.15" height="1.98" fill="#7823DC"/><rect x="27.92" y="26.01" width="4.15" height="1.98" fill="#7823DC"/><rect x="27.85" y="30.02" width="4.15" height="1.98" fill="#7823DC"/></svg>