<svg viewBox="0 0 32 32" xmlns="http://www.w3.org/2000/svg" xmlns:xlink="http://www.w3.org/1999/xlink" id="Layer_1" overflow="hidden"><style>
.MsftOfcResponsive_Fill_7823dc {
 fill:#7823DC; 
}
</style>
<path d="" class="st0 MsftOfcResponsive_Fill_7823dc" stroke="#000000" stroke-width="2" stroke-miterlimit="10" fill="#7823DC"/><path d="" class="st0 MsftOfcResponsive_Fill_7823dc" stroke="#000000" stroke-width="2" stroke-miterlimit="10" fill="#7823DC"/><path d="" class="st0 MsftOfcResponsive_Fill_7823dc" stroke="#000000" stroke-width="2" stroke-miterlimit="10" fill="#7823DC"/><path d="M25.9 10 25.9 4 24 4C22.9 4 21.9 5 21.9 6.1L21.9 8C21.9 9.1 22.9 10.1 24 10.1L25.9 10.1M27.9 12.1 24 12.1C21.7 12.1 19.9 10.3 19.9 8L19.9 6.1C19.9 3.8 21.7 2 24 2L27.9 2 27.9 12.1 27.9 12.1 27.9 12.1 27.9 12.1Z" class="st1 MsftOfcResponsive_Fill_7823dc" fill="#7823DC" fill-rule="evenodd" clip-rule="evenodd"/><path d="M27.9 13.9 25.9 13.9 25.9 0.1 27.9 0.1 27.9 13.9 27.9 13.9 27.9 13.9Z" class="st1 MsftOfcResponsive_Fill_7823dc" fill="#7823DC" fill-rule="evenodd" clip-rule="evenodd"/><path d="M31.9 11 26.9 11 26.9 9 31.9 9 31.9 11 31.9 11 31.9 11Z" class="st1 MsftOfcResponsive_Fill_7823dc" fill="#7823DC" fill-rule="evenodd" clip-rule="evenodd"/><path d="M31.9 5.1 26.9 5.1 26.9 3 31.9 3 31.9 5.1 31.9 5.1 31.9 5.1Z" class="st1 MsftOfcResponsive_Fill_7823dc" fill="#7823DC" fill-rule="evenodd" clip-rule="evenodd"/><path d="M20.9 6 10.7 6C5.9 6 2 10 2 14.8L2 21 4 21 4 14.8C4 11 7.1 8 10.7 8L21 8 20.9 6 20.9 6 20.9 6Z" class="st1 MsftOfcResponsive_Fill_7823dc" fill="#7823DC" fill-rule="evenodd" clip-rule="evenodd"/><path d="M30.3 20.8 25.3 20.1C25.1 20.1 25 20 24.8 19.9L20.5 15C20.1 14.7 19.7 14.6 19.3 14.6L11 14.6 11 20 1 20C0.5 20 0 20.5 0 21L0 28 4.5 28C4.6 27.1 5.3 26.4 6.3 26.4 7.2 26.4 8 27.1 8.1 28L23.5 28C23.6 27.1 24.3 26.4 25.3 26.4 26.2 26.4 27 27.1 27.1 28L32.1 28 32.1 22.7C32 21.7 31.3 20.9 30.3 20.8ZM30 26 2 26 2 22 13 22 13 16.6 19.3 16.6 23.3 21.2 23.4 21.3 23.5 21.4C23.9 21.7 24.4 21.9 25 22L30 22.7 30 26Z" class="MsftOfcResponsive_Fill_7823dc" fill="#7823DC"/><path d="M10 28C10 27.2 9.7 26.6 9.3 26 8.6 25 7.5 24.4 6.2 24.4 5 24.4 3.9 25 3.2 26 2.8 26.6 2.5 27.2 2.5 28 2.5 28.1 2.5 28.1 2.5 28.2 2.5 30.3 4.2 32 6.3 32 8.4 32 10.1 30.3 10.1 28.2 10.1 28.1 10.1 28.1 10 28ZM6.3 30C5.3 30 4.5 29.2 4.5 28.2 4.5 28.1 4.5 28.1 4.5 28 4.6 27.1 5.3 26.4 6.3 26.4 7.2 26.4 8 27.1 8.1 28 8.1 28.1 8.1 28.1 8.1 28.2 8.1 29.2 7.3 30 6.3 30Z" class="MsftOfcResponsive_Fill_7823dc" fill="#7823DC"/><path d="M29 28C29 27.2 28.7 26.6 28.3 26 27.6 25 26.5 24.4 25.2 24.4 23.9 24.4 22.8 25 22.1 26 21.7 26.6 21.4 27.2 21.4 28 21.4 28.1 21.4 28.1 21.4 28.2 21.4 30.3 23.1 32 25.2 32 27.3 32 29 30.3 29 28.2 29 28.1 29 28.1 29 28ZM25.2 30C24.2 30 23.4 29.2 23.4 28.2 23.4 28.1 23.4 28.1 23.4 28 23.5 27.1 24.2 26.4 25.2 26.4 26.1 26.4 26.9 27.1 27 28 27 28.1 27 28.1 27 28.2 27 29.2 26.2 30 25.2 30Z" class="MsftOfcResponsive_Fill_7823dc" fill="#7823DC"/><rect x="12" y="20" width="13" height="2" class="MsftOfcResponsive_Fill_7823dc" fill="#7823DC"/><rect x="15" y="16" width="2" height="5" class="MsftOfcResponsive_Fill_7823dc" fill="#7823DC"/></svg>