<svg viewBox="0 0 31.98 32" xmlns="http://www.w3.org/2000/svg" xmlns:xlink="http://www.w3.org/1999/xlink" id="Layer_1" overflow="hidden"><style>
.MsftOfcResponsive_Fill_7823dc {
 fill:#7823DC; 
}
</style>
<defs></defs><path d="M0 16 0 32 31.98 32 31.98 16M30 30 2 30 2 18 30 18 30 30Z" class="MsftOfcResponsive_Fill_7823dc" fill="#7823DC"/><rect x="4.37" y="21" width="3.75" height="2" class="MsftOfcResponsive_Fill_7823dc" fill="#7823DC"/><rect x="9.99" y="21" width="3.75" height="2" class="MsftOfcResponsive_Fill_7823dc" fill="#7823DC"/><rect x="15.62" y="21" width="3.75" height="2" class="MsftOfcResponsive_Fill_7823dc" fill="#7823DC"/><rect x="21.24" y="21" width="3.75" height="2" class="MsftOfcResponsive_Fill_7823dc" fill="#7823DC"/><rect x="4.5" y="25" width="3.75" height="1.99" class="MsftOfcResponsive_Fill_7823dc" fill="#7823DC"/><rect x="10.12" y="25" width="6.25" height="1.99" class="MsftOfcResponsive_Fill_7823dc" fill="#7823DC"/><rect x="18.24" y="25" width="3.75" height="1.99" class="MsftOfcResponsive_Fill_7823dc" fill="#7823DC"/><rect x="23.86" y="25" width="3.75" height="1.99" class="MsftOfcResponsive_Fill_7823dc" fill="#7823DC"/><path d="M8.22 16.74 6.22 16.74C6.22 13.76 7.49 10.91 9.71 8.91 11.86 6.97 14.6 6.07 17.43 6.37 18.59 6.49 19.85 6.85 21.4 7.5 22.69 8.04 23.71 8.05 24.51 7.51 26.56 6.15 27.01 1.62 27.01-0.01L29.01-0.01C29.01 0.7 28.91 6.99 25.61 9.18 24.23 10.1 22.55 10.15 20.62 9.34 19.26 8.77 18.18 8.45 17.22 8.35 14.97 8.11 12.78 8.84 11.05 10.39 9.26 12.01 8.23 14.32 8.23 16.73Z" class="MsftOfcResponsive_Fill_7823dc" fill="#7823DC"/></svg>