<svg viewBox="0 0 32 32" xmlns="http://www.w3.org/2000/svg" xmlns:xlink="http://www.w3.org/1999/xlink" xml:space="preserve" overflow="hidden"><style>
.MsftOfcResponsive_Fill_7823dc {
 fill:#7823DC; 
}
</style>
<g id="Layer_3"></g><g id="Layer_1"></g><g id="Layer_2"></g><g id="Layer_4"></g><g id="Layer_5"><path d="M17.56 18.81C17.76 18.71 17.96 18.61 18.15 18.61 19.24 18.31 20.52 18.51 21.91 19.3 22.01 19.4 22.11 19.5 22.31 19.5L22.9 18.71 23.49 17.92C23.29 17.82 23.19 17.72 23 17.62L22.9 17.62C20.92 16.43 18.84 16.23 17.16 16.93 16.96 17.03 16.86 17.03 16.67 17.13 16.27 17.33 15.88 17.63 15.48 18.02 14.39 19.01 13.7 20.8 13.7 22.78 13.7 28.03 18.55 31.9 22.9 31.9L22.9 29.92C19.54 29.92 15.68 26.85 15.68 22.78 15.68 21.49 15.98 20.5 16.57 19.71 16.86 19.31 17.16 19.01 17.56 18.81ZM19.51 29.96C17.51 29.96 17.51 26.96 15.51 26.96 17.51 26.96 17.51 29.96 19.51 29.96ZM14.51 19.96C15.51 17.96 16.51 16.96 18.51 16.96 16.51 16.96 15.51 17.96 14.51 19.96Z" class="st0 MsftOfcResponsive_Fill_7823dc" fill="#7823DC"/><path d="M22.11 17.92 22.41 18.32 22.71 18.82 23.3 19.61C23.6 19.41 23.99 19.21 24.29 19.02L24.29 19.02C24.29 19.02 24.39 19.02 24.49 18.92 25.28 18.62 26.07 18.42 26.77 18.52 27.26 18.52 27.66 18.72 28.06 18.92 28.65 19.32 29.25 19.81 29.54 20.61 29.64 20.81 29.64 20.91 29.74 21.11 29.94 21.61 30.04 22.3 30.04 22.89 30.04 23.09 30.04 23.39 30.04 23.58 30.04 23.68 30.04 23.78 30.04 23.88 29.84 25.37 29.05 26.76 27.96 27.75 27.47 28.25 26.87 28.74 26.18 29.04 25.19 29.63 24 29.93 22.92 29.93L22.92 31.91C24.8 31.91 26.68 31.22 28.26 30.03 28.85 29.63 29.35 29.04 29.84 28.54 30.43 27.85 31.03 26.95 31.32 26.06 31.52 25.56 31.72 24.97 31.81 24.47 31.91 23.97 32.01 23.38 32.01 22.78 32.01 22.58 32.01 22.48 32.01 22.28 31.91 20.5 31.32 19.01 30.33 18.02 29.93 17.62 29.54 17.23 29.04 17.03 28.05 16.53 26.96 16.34 25.78 16.44L25.78 16.44C25.58 16.44 25.38 16.54 25.19 16.54 24.5 16.64 23.9 16.94 23.21 17.23 23.11 17.33 23.01 17.33 22.91 17.43 22.91 17.43 22.81 17.43 22.81 17.53 22.5 17.72 22.3 17.82 22.11 17.92L22.11 17.92Z" class="st0 MsftOfcResponsive_Fill_7823dc" fill="#7823DC"/><path d="M28.03 12.18 26.31 11.2 21.52 19.65 23.24 20.63 28.03 12.18Z" class="st0 MsftOfcResponsive_Fill_7823dc" fill="#7823DC"/><path d="M19.24 10.88 19.24 10.88C19.24 10.88 19.24 14.75 20.53 16.13 21.32 16.82 22.21 17.22 23.1 17.22L23.1 17.22C23.69 17.22 24.29 17.02 24.78 16.53L24.88 16.43C25.77 15.34 25.57 13.55 24.29 12.27 23.89 11.77 23.1 11.48 22.31 11.28 21.62 11.08 20.92 10.98 20.33 10.98 19.73 10.88 19.34 10.88 19.24 10.88L19.24 10.88ZM23.39 15.05C23.29 15.15 23.19 15.15 23.19 15.15 22.89 15.15 22.4 14.95 22 14.56 21.8 14.36 21.6 13.77 21.51 13.07 22.2 13.17 22.8 13.37 22.99 13.57 23.29 13.97 23.48 14.26 23.48 14.66 23.49 14.65 23.49 14.95 23.39 15.05L23.39 15.05Z" class="st0 MsftOfcResponsive_Fill_7823dc" fill="#7823DC"/><g><path d="M15.75 26.99C15.75 29.91 15.75 29.91 15.75 29.91 3.51 29.91 3.51 29.91 3.51 29.91 3.51 12.24 3.51 12.24 3.51 12.24 3.76 11 6.32 7.51 8.61 4.77 10.65 4.77 10.65 4.77 10.65 4.77 12.95 7.51 15.5 10.99 15.75 12.24 15.75 14.45 15.75 16.39 15.75 18.08 16.3 17.5 16.95 17.14 17.79 17.01 17.79 11.99 17.79 11.98 17.79 11.98 17.79 9.99 11.67 2.77 11.67 2.77 7.59 2.77 7.59 2.77 7.59 2.77 7.59 2.77 1.46 10 1.46 11.99 1.46 31.9 1.46 31.9 1.46 31.9 17.79 31.9 17.79 31.9 17.79 31.9 17.79 30.83 17.79 29.82 17.79 28.86 17.22 28.07 16.76 27.12 15.75 26.99Z" class="st1 MsftOfcResponsive_Fill_7823dc" fill="#7823DC" fill-rule="evenodd" clip-rule="evenodd"/><path d="M5.58 0.1 13.74 0.1 13.74 4.28 5.58 4.28 5.58 0.1Z" class="st1 MsftOfcResponsive_Fill_7823dc" fill="#7823DC" fill-rule="evenodd" clip-rule="evenodd"/><path d="M11.7 2.05 11.7 2.32 7.62 2.32 7.62 2.05 11.7 2.05 11.7 2.05 11.7 2.05ZM13.74 0.1 5.58 0.1 5.58 4.28 13.74 4.28 13.74 0.1 13.74 0.1 13.74 0.1 13.74 0.1Z" class="st1 MsftOfcResponsive_Fill_7823dc" fill="#7823DC" fill-rule="evenodd" clip-rule="evenodd"/><path d="M11.7 2.05 11.7 2.32 7.62 2.32 7.62 2.05 11.7 2.05M13.74 0.1 5.58 0.1 5.58 4.28 13.74 4.28 13.74 0.1 13.74 0.1" class="st1 MsftOfcResponsive_Fill_7823dc" fill="#7823DC" fill-rule="evenodd" clip-rule="evenodd"/><path d="M2.77 12.25 16.29 12.25 16.29 14.2 2.77 14.2 2.77 12.25Z" class="st1 MsftOfcResponsive_Fill_7823dc" fill="#7823DC" fill-rule="evenodd" clip-rule="evenodd"/><path d="M2.77 22.95 2.77 24.97 14.82 24.97C14.62 24.35 14.55 23.66 14.53 22.95L2.77 22.95Z" class="st1 MsftOfcResponsive_Fill_7823dc" fill="#7823DC" fill-rule="evenodd" clip-rule="evenodd"/></g></g></svg>