<svg viewBox="0 0 32 32" xmlns="http://www.w3.org/2000/svg" xmlns:xlink="http://www.w3.org/1999/xlink" id="Outline_Final_icon" overflow="hidden"><defs></defs><path d="M16 8.13C18.25 8.13 20.07 6.31 20.07 4.06 20.07 1.81 18.25-0.01 16-0.01 13.75-0.01 11.93 1.81 11.93 4.06 11.93 6.31 13.75 8.13 16 8.13ZM16 2C17.14 2 18.07 2.93 18.07 4.07 18.07 5.21 17.14 6.14 16 6.14 14.86 6.14 13.93 5.21 13.93 4.07 13.93 2.93 14.86 2 16 2Z" fill="#7823DC"/><path d="M28.63 4.07C26.77 4.07 25.26 5.58 25.26 7.44 25.26 9.3 26.77 10.81 28.63 10.81 30.49 10.81 32 9.3 32 7.44 32 5.58 30.49 4.07 28.63 4.07ZM28.63 8.82C27.87 8.82 27.26 8.2 27.26 7.45 27.26 6.7 27.88 6.08 28.63 6.08 29.38 6.08 30 6.7 30 7.45 30 8.2 29.38 8.82 28.63 8.82Z" fill="#7823DC"/><path d="M6.75 7.44C6.75 5.58 5.24 4.07 3.38 4.07 1.52 4.07 0 5.58 0 7.44 0 9.3 1.51 10.81 3.37 10.81 5.23 10.81 6.74 9.3 6.74 7.44ZM2 7.44C2 6.68 2.62 6.07 3.37 6.07 4.12 6.07 4.74 6.69 4.74 7.44 4.74 8.19 4.12 8.81 3.37 8.81 2.62 8.81 2 8.19 2 7.44Z" fill="#7823DC"/><rect x="6.69" y="18.42" width="18.62" height="2" fill="#7823DC"/><path d="M3.73 14.88 4.71 16.01 7.35 16.01 4.43 12.63 3.73 12.63 2.2 12.63 1.73 12.63 1.73 25.04 9.3 25.04 9.3 32 11.3 32 11.3 23.04 3.73 23.04 3.73 14.88Z" fill="#7823DC"/><path d="M18.24 9.92 20.48 12.16 20.48 16.01 22.48 16.01 22.48 11.34 19.66 8.51 18.24 9.92Z" fill="#7823DC"/><path d="M11.52 12.16 13.76 9.92 12.34 8.51 9.52 11.34 9.52 16.01 11.52 16.01 11.52 12.16Z" fill="#7823DC"/><path d="M28.27 12.63 27.57 12.63 24.65 16.01 27.25 16.01 27.25 16.06 28.27 14.88 28.27 23.04 20.7 23.04 20.7 32 22.7 32 22.7 25.04 30.27 25.04 30.27 12.63 29.8 12.63 28.27 12.63Z" fill="#7823DC"/><path d="M26.01 17.49 26.01 17.5 26.01 17.49 26.01 17.49Z" fill="#7823DC"/><path d="M5.99 17.49 5.99 17.49 5.99 17.5 5.99 17.49Z" fill="#7823DC"/></svg>