<svg viewBox="0 0 32 32.08" xmlns="http://www.w3.org/2000/svg" xmlns:xlink="http://www.w3.org/1999/xlink" id="Layer_1" overflow="hidden"><style>
.MsftOfcThm_Text2_lumMod_100_Fill_v2 {
 fill:#7823DC; 
}
</style>
<defs></defs><path d="M30 10.95 25.65 10.95 25.65 4 26.19 4C26.6 5.16 27.7 6 29 6 30.66 6 32 4.65 32 3 32 1.35 30.66 -8.88178e-16 29 -8.88178e-16 27.7 -8.88178e-16 26.6 0.84 26.19 2L23.65 2 23.65 10.95 23.29 10.95 23.29 10.32 22 9.86 21.75 9.27 22.34 8.03 19.97 5.66 18.73 6.25 18.14 6 17.68 4.71 14.33 4.71 13.87 6 13.27 6.25 12.03 5.66 9.66 8.03 10.25 9.27 10.01 9.86 8.71 10.32 8.71 10.95 8.36 10.95 8.36 2 5.82 2C5.4 0.84 4.3 0 3 0 1.35 0 0 1.35 0 3 0 4.65 1.35 6 3 6 4.3 6 5.4 5.16 5.82 4L6.36 4 6.36 10.95 2 10.95 2 24 0 24 0 32.08 27.87 32.08 29.87 30.08 2 30.08 2 26 9.72 26 11.57 28 20.42 28 22.42 26 30 26 30 29.95 32 27.95 32 24 30 24 30 10.95ZM29 2C29.55 2 30 2.45 30 3 30 3.55 29.55 4 29 4 28.45 4 28 3.55 28 3 28 2.45 28.45 2 29 2ZM3 4C2.45 4 2 3.55 2 3 2 2.45 2.45 2 3 2 3.55 2 4 2.45 4 3 4 3.55 3.55 4 3 4ZM10.71 11.74 11.51 11.45 12.44 9.22 12.07 8.45 12.45 8.07 13.22 8.44 15.45 7.51 15.74 6.71 16.27 6.71 16.55 7.51 18.79 8.44 19.56 8.07 19.93 8.45 19.57 9.22 20.49 11.45 21.29 11.74 21.29 12.27 20.49 12.55 19.57 14.79 19.93 15.55 19.56 15.93 18.79 15.56 16.55 16.49 16.27 17.29 15.74 17.29 15.45 16.49 13.22 15.56 12.45 15.93 12.07 15.55 12.44 14.78 11.51 12.55 10.71 12.27 10.71 11.74ZM28 24 21.59 24 19.59 26 12.44 26 10.59 24 4 24 4 12.95 8.71 12.95 8.71 13.68 10.01 14.14 10.25 14.73 9.66 15.97 12.03 18.34 13.27 17.75 13.87 18 14.33 19.29 17.68 19.29 18.14 18 18.73 17.75 19.97 18.34 22.34 15.97 21.75 14.73 22 14.14 23.29 13.68 23.29 12.95 28 12.95 28 24Z" class="MsftOfcThm_Text2_lumMod_100_Fill_v2" stroke-width="0" fill="#7823DC"/><path d="M16 8.95C14.35 8.95 13 10.3 13 11.95 13 13.6 14.35 14.95 16 14.95 17.65 14.95 19 13.61 19 11.95 19 10.29 17.66 8.95 16 8.95ZM16 12.95C15.45 12.95 15 12.5 15 11.95 15 11.4 15.45 10.95 16 10.95 16.55 10.95 17 11.4 17 11.95 17 12.5 16.55 12.95 16 12.95Z" class="MsftOfcThm_Text2_lumMod_100_Fill_v2" stroke-width="0" fill="#7823DC"/><rect x="6" y="20" width="12" height="2" class="MsftOfcThm_Text2_lumMod_100_Fill_v2" stroke-width="0" fill="#7823DC"/><rect x="24" y="20" width="2" height="2" class="MsftOfcThm_Text2_lumMod_100_Fill_v2" stroke-width="0" fill="#7823DC"/><rect x="20" y="20" width="2" height="2" class="MsftOfcThm_Text2_lumMod_100_Fill_v2" stroke-width="0" fill="#7823DC"/></svg>