<svg viewBox="0 0 32 32.01" xmlns="http://www.w3.org/2000/svg" xmlns:xlink="http://www.w3.org/1999/xlink" id="Layer_1" overflow="hidden"><style>
.MsftOfcResponsive_Fill_7823dc {
 fill:#7823DC; 
}
</style>
<defs></defs><path d="M16 32.01C8.89 32.01 3.05 30.84 2.8 30.79L2 30.63 2 22.81 3 22.81C15.65 22.81 22.26 20.35 23.27 6.93L23.27 0C23.27 0 31.18 0 31.18 0L31.18 6.95 31.64 11.19C32.67 17.4 31.45 22.94 28.2 26.79 25.31 30.21 21.09 32.01 16 32.01ZM4 28.98C5.83 29.3 10.59 30.01 16 30.01 20.48 30.01 24.18 28.45 26.68 25.49 29.55 22.1 30.61 17.12 29.67 11.49L29.67 11.43C29.67 11.43 29.18 7 29.18 7L29.18 2 25.27 2 25.27 7C24.18 21.52 16.66 24.65 4 24.8L4 28.97Z" class="MsftOfcResponsive_Fill_7823dc" fill="#7823DC"/><path d="M2 20.01 0 20.01 0 15.32 1.09 15.41C14.72 16.59 17.94 14.18 23.47 3.93L25.23 4.88C19.18 16.07 14.93 18.48 2 17.49L2 20.01Z" class="MsftOfcResponsive_Fill_7823dc" fill="#7823DC"/></svg>