<svg viewBox="0 0 32 32" xmlns="http://www.w3.org/2000/svg" xmlns:xlink="http://www.w3.org/1999/xlink" overflow="hidden"><defs></defs><g id="Layer_3"><path d="M17.9951 30.0039-0.00488 30.0039-0.00488 8.00391 17.9951 8.00391ZM1.99512 28.0039 15.9951 28.0039 15.9951 10.0039 1.99512 10.0039Z" fill="#7823DC"/><rect x="1.99521" y="30.004" width="2" height="2" fill="#7823DC"/><rect x="13.9952" y="30.004" width="2" height="2" fill="#7823DC"/><path d="M13.9951 10.0039 3.99512 10.0039 3.99512 0.00391 13.9951 0.00391ZM5.99512 8.00391 11.9951 8.00391 11.9951 2.00391 5.99512 2.00391Z" fill="#7823DC"/><path d="M31.9951 30.0039 15.9951 30.0039 15.9951 18.0039 31.9951 18.0039ZM17.9951 28.0039 29.9951 28.0039 29.9951 20.0039 17.9951 20.0039Z" fill="#7823DC"/><rect x="17.9952" y="30.004" width="2" height="2" fill="#7823DC"/><rect x="27.9952" y="30.004" width="2" height="2" fill="#7823DC"/><path d="M28.0142 20.0039 19.9952 20.0039 19.9952 14.0039 28.0142 14.0039ZM21.9952 18.0039 26.0142 18.0039 26.0142 16.0039 21.9952 16.0039Z" fill="#7823DC"/></g></svg>