<svg viewBox="0 0 32 32.05" xmlns="http://www.w3.org/2000/svg" xmlns:xlink="http://www.w3.org/1999/xlink" id="Layer_1" overflow="hidden"><style>
.MsftOfcThm_Text2_lumMod_100_Fill_v2 {
 fill:#7823DC; 
}
</style>
<defs></defs><path d="M2 24.75C2 22.92 3.49 21.44 5.31 21.44 7.13 21.44 8.62 22.92 8.62 24.75L8.62 24.77 10.62 24.77C10.62 24.77 16.49 24.77 16.49 24.77L14.51 27.08 14.53 27.1 17.12 27.1 19.97 23.77 17.07 20.41 14.44 20.41C14.44 20.41 16.47 22.77 16.47 22.77L10.23 22.77C9.44 20.82 7.54 19.44 5.31 19.44 2.38 19.44 6.21725e-15 21.82 6.21725e-15 24.75L6.21725e-15 32.01 8.63 32.01 8.63 30.01 2 30.01 2 24.75Z" class="MsftOfcThm_Text2_lumMod_100_Fill_v2" stroke-width="0" fill="#7823DC"/><path d="M26.69 19.44C23.76 19.44 21.38 21.82 21.38 24.75L21.38 24.77 23.38 24.77 23.38 24.75C23.38 22.92 24.86 21.44 26.69 21.44 28.52 21.44 30 22.92 30 24.75L30 30.01 23.38 30.01 23.38 27.71 23.38 27.71C23.38 27.71 22.39 27.71 22.39 27.71L21.38 27.71C21.38 27.71 13.29 27.72 13.29 27.72L15.32 25.37 15.31 25.37C15.31 25.37 12.69 25.37 12.69 25.37L9.79 28.73 12.64 32.06 15.23 32.06 15.25 32.04 13.27 29.73 21.38 29.73C21.38 29.73 21.38 30.02 21.38 30.02L21.38 32.02 32 32.02 32 24.76C32 21.83 29.62 19.45 26.69 19.45Z" class="MsftOfcThm_Text2_lumMod_100_Fill_v2" stroke-width="0" fill="#7823DC"/><path d="M23.26 15.84C23.26 17.74 24.8 19.28 26.7 19.28 28.6 19.28 30.14 17.74 30.14 15.84 30.14 13.94 28.6 12.4 26.7 12.4 24.8 12.4 23.26 13.94 23.26 15.84ZM28.13 15.84C28.13 16.63 27.49 17.28 26.69 17.28 25.89 17.28 25.25 16.64 25.25 15.84 25.25 15.04 25.89 14.4 26.69 14.4 27.49 14.4 28.13 15.05 28.13 15.84Z" class="MsftOfcThm_Text2_lumMod_100_Fill_v2" stroke-width="0" fill="#7823DC"/><path d="M1.87 15.84C1.87 17.74 3.41 19.28 5.31 19.28 7.21 19.28 8.75 17.74 8.75 15.84 8.75 13.94 7.21 12.4 5.31 12.4 3.41 12.4 1.87 13.94 1.87 15.84ZM6.75 15.84C6.75 16.63 6.11 17.28 5.31 17.28 4.51 17.28 3.87 16.64 3.87 15.84 3.87 15.04 4.51 14.4 5.31 14.4 6.11 14.4 6.75 15.04 6.75 15.84Z" class="MsftOfcThm_Text2_lumMod_100_Fill_v2" stroke-width="0" fill="#7823DC"/><path d="M14.79 13.23 17.64 10.15 32.01 10.15 32.01 0 0 0 0 10.15 12.33 10.15 14.79 13.23ZM2 2 30 2 30 8.15 16.76 8.15 14.9 10.16 13.29 8.15 2 8.15 2 2Z" class="MsftOfcThm_Text2_lumMod_100_Fill_v2" stroke-width="0" fill="#7823DC"/><rect x="4" y="4" width="12" height="2" class="MsftOfcThm_Text2_lumMod_100_Fill_v2" stroke-width="0" fill="#7823DC"/><rect x="18" y="4" width="6" height="2" class="MsftOfcThm_Text2_lumMod_100_Fill_v2" stroke-width="0" fill="#7823DC"/><rect x="26" y="4" width="2" height="2" class="MsftOfcThm_Text2_lumMod_100_Fill_v2" stroke-width="0" fill="#7823DC"/></svg>