<svg viewBox="0 0 32 32" xmlns="http://www.w3.org/2000/svg" xmlns:xlink="http://www.w3.org/1999/xlink" id="Layer_3" overflow="hidden"><defs></defs><path d="M26.7794 2.00055C27.7676 2.00055 28.7533 2.09311 29.7224 2.2764 30.6776 7.34253 29.0834 12.6145 25.4254 16.2725 22.4763 19.2216 18.551 20.8458 14.3727 20.8458 13.3845 20.8458 12.3989 20.7532 11.4297 20.5699 10.4746 15.5038 12.0687 10.2318 15.7267 6.57382 18.6758 3.62471 22.6011 2.00055 26.7794 2.00055M26.7794 0.00055C22.2666 0.00055 17.7581 1.71397 14.3125 5.15961 9.68558 9.7865 8.18207 16.3305 9.75703 22.2271L9.77212 22.2422C11.2776 22.6443 12.8255 22.8458 14.3727 22.8458 18.8855 22.8458 23.394 21.1323 26.8396 17.6867 31.4665 13.0598 32.9701 6.51579 31.3951 0.61922L31.38 0.60413C29.8745 0.20203 28.3266 0.00055 26.7794 0.00055L26.7794 0.00055Z" fill="#7823DC"/><path d="M24 4C22.8954 4 22 4.89543 22 6 22 7.10457 22.8954 8 24 8 25.1046 8 26 7.10457 26 6 26 4.89543 25.1046 4 24 4L24 4Z" fill="#7823DC"/><path d="M28 14C22.486 14 18 9.51404 18 4L16 4C16 10.6274 21.3726 16 28 16L28 14Z" fill="#7823DC"/><path d="M10.0132 20.1309 6.27343 21.134-1e-05 22.8168 4.59405 27.4084 9.18804 32 10.8675 25.7256 11.8683 21.9867C10.8704 21.9205 10.0789 21.1288 10.0132 20.1309ZM8.93548 25.2085 8.15173 28.1365 6.00787 25.9938 3.86401 23.851 6.79162 23.0657 9.71923 22.2805 8.93548 25.2085Z" fill="#7823DC"/></svg>