<svg viewBox="0 0 32 32" xmlns="http://www.w3.org/2000/svg" xmlns:xlink="http://www.w3.org/1999/xlink" overflow="hidden"><style>
.MsftOfcResponsive_Fill_7823dc {
 fill:#7823DC; 
}
</style>
<defs></defs><g id="a"></g><g id="b"></g><g id="c"><g><path d="M31.97 11.41 22 16.99 22 12 21.16 12C22.46 10.73 23.27 8.95 23.27 6.99 23.27 3.12 20.13-0.02 16.26-0.02 12.69-0.02 9.74 2.66 9.31 6.11 8.46 4.6 6.84 3.58 4.99 3.58 2.24 3.58 0 5.82 0 8.57 0 9.9 0.52 11.11 1.38 12L0 12 0 26 2 28 2 14 20 14 20 20.4 22 19.28 29.97 14.81 30 27.32 22 22.39 20 21.15 20 28 2 28 4 30 22 30 22 24.73 32.01 30.9 31.97 11.41ZM16.26 1.98C19.02 1.98 21.27 4.23 21.27 6.99 21.27 9.75 19.02 12 16.26 12 13.5 12 11.25 9.75 11.25 6.99 11.25 4.23 13.5 1.98 16.26 1.98ZM4.99 5.58C6.63 5.58 7.97 6.92 7.97 8.57 7.97 10.22 6.63 11.55 4.99 11.55 3.35 11.55 2 10.21 2 8.57 2 6.93 3.34 5.58 4.99 5.58ZM8.59 12C9.18 11.39 9.61 10.62 9.82 9.76 10.18 10.61 10.71 11.37 11.36 12L8.59 12Z" class="MsftOfcResponsive_Fill_7823dc" fill="#7823DC"/><path d="M6.95 26.38 15.51 21.11 6.97 16.33 6.95 26.38ZM8.96 19.73 11.56 21.19 8.96 22.8 8.96 19.73Z" class="MsftOfcResponsive_Fill_7823dc" fill="#7823DC"/><path d="M2 28 2 28 2 28 2 28Z" class="MsftOfcResponsive_Fill_7823dc" fill="#7823DC"/></g></g><g id="d"></g></svg>