<svg viewBox="0 0 512 512" xmlns="http://www.w3.org/2000/svg" xmlns:xlink="http://www.w3.org/1999/xlink" id="Capa_1" overflow="hidden"><g><g><path d="M394.802 482 384.802 362 356 362 356 105C356 47.103 308.897 0 251 0L86 0 86 15C86 56.355 119.645 90 161 90 197.219 90 227.523 64.19 234.493 30L251 30C292.355 30 326 63.645 326 105L326 362 297.198 362 287.198 482 256 482 256 512 426 512 426 482 394.802 482ZM161 60C141.443 60 124.761 47.461 118.57 30L203.429 30C197.239 47.461 180.557 60 161 60ZM317.302 482 324.802 392 357.198 392 364.698 482 317.302 482Z" fill="#7823DC"/></g></g><g></g><g></g><g></g><g></g><g></g><g></g><g></g><g></g><g></g><g></g><g></g><g></g><g></g><g></g><g></g></svg>