<svg viewBox="0 0 32 32" xmlns="http://www.w3.org/2000/svg" xmlns:xlink="http://www.w3.org/1999/xlink" id="Layer_1" overflow="hidden"><style>
.MsftOfcResponsive_Fill_7823dc {
 fill:#7823DC; 
}
</style>
<g><path d="" class="st0 MsftOfcResponsive_Fill_7823dc" fill="#7823DC"/></g><path d="" class="st1 MsftOfcResponsive_Fill_7823dc" stroke="#FF0000" stroke-width="2" stroke-miterlimit="10" fill="#7823DC"/><path d="M2 4.8 27.2 30 2 30 2 4.8M0 0 0 32 32 32 0 0 0 0Z" class="st0 MsftOfcResponsive_Fill_7823dc" fill="#7823DC"/><path d="M8 17.3 15.7 25 8 25 8 17.3M6 12.5 6 27 20.5 27 6 12.5 6 12.5Z" class="st0 MsftOfcResponsive_Fill_7823dc" fill="#7823DC"/><rect x="3" y="29" width="2" height="2" class="st0 MsftOfcResponsive_Fill_7823dc" fill="#7823DC"/><rect x="7" y="29" width="2" height="2" class="st0 MsftOfcResponsive_Fill_7823dc" fill="#7823DC"/><rect x="11" y="29" width="2" height="2" class="st0 MsftOfcResponsive_Fill_7823dc" fill="#7823DC"/><rect x="15" y="29" width="2" height="2" class="st0 MsftOfcResponsive_Fill_7823dc" fill="#7823DC"/><rect x="19" y="29" width="2" height="2" class="st0 MsftOfcResponsive_Fill_7823dc" fill="#7823DC"/><rect x="23" y="29" width="2" height="2" class="st0 MsftOfcResponsive_Fill_7823dc" fill="#7823DC"/><rect x="1" y="26" width="2" height="2" class="st0 MsftOfcResponsive_Fill_7823dc" fill="#7823DC"/><rect x="1" y="22" width="2" height="2" class="st0 MsftOfcResponsive_Fill_7823dc" fill="#7823DC"/><rect x="1" y="18" width="2" height="2" class="st0 MsftOfcResponsive_Fill_7823dc" fill="#7823DC"/><rect x="1" y="14" width="2" height="2" class="st0 MsftOfcResponsive_Fill_7823dc" fill="#7823DC"/><rect x="1" y="10" width="2" height="2" class="st0 MsftOfcResponsive_Fill_7823dc" fill="#7823DC"/><rect x="1" y="6" width="2" height="2" class="st0 MsftOfcResponsive_Fill_7823dc" fill="#7823DC"/></svg>