<svg viewBox="0 0 32.02 32" xmlns="http://www.w3.org/2000/svg" xmlns:xlink="http://www.w3.org/1999/xlink" id="Layer_1" overflow="hidden"><style>
.MsftOfcResponsive_Fill_7823dc {
 fill:#7823DC; 
}
</style>
<defs></defs><path d="M15.3 32 13.3 32C13.3 30.75 13.3 24.39 13.45 22.05L13.45 22.05C13.46 21.79 13.48 21.53 13.5 21.27 13.58 20.25 13.44 19.46 13.08 18.91 12.8 18.48 11.79 18 10.79 18L10.79 16C12.17 16 13.98 16.63 14.75 17.82 15.35 18.74 15.6 19.96 15.49 21.42 15.48 21.58 15.47 21.75 15.46 21.91 15.95 22.89 16.56 23.76 17.1 24.49 17.67 25.27 18.29 25.93 18.93 26.45 20.79 27.95 22.33 28.04 24.92 28.02L32 27.96 32.02 29.96 24.93 30.02C22.37 30.01 20.17 30.02 17.67 28 16.89 27.37 16.16 26.58 15.49 25.67 15.44 25.61 15.4 25.54 15.35 25.48 15.31 28.11 15.3 31.17 15.3 32Z" class="MsftOfcResponsive_Fill_7823dc" stroke-width="0" fill="#7823DC"/><path d="M2.01 32 0 32 0 31.23C-0.01 29.65-0.03 27.85 0.27 26.47 0.53 25.25 0.75 24.25 1.4 23.14L0.65 20.84C-0.85 13.99 0.22 9.65 4.01 7.19 6.57 5.53 9.98 5.09 13.28 4.87 15.6 4.71 17.5 4.55 19.27 4.35 20.17 4.25 21.07 4.16 21.96 4.07L22.24 4.04C23.9 3.88 25.46 3.72 27.04 3.5 28.28 3.32 29.12 2.97 29.55 2.47 29.85 2.11 30 1.28 30 4.44089e-16L32 4.44089e-16C32 1.24 31.9 2.78 31.08 3.76 30.32 4.67 29.09 5.23 27.32 5.49 25.7 5.72 24.04 5.89 22.43 6.04L22.15 6.07C21.26 6.16 20.37 6.25 19.48 6.34 17.68 6.54 15.75 6.7 13.4 6.87 10.37 7.08 7.26 7.46 5.08 8.87 3.19 10.09 0.88 12.62 2.59 20.41L2.62 20.51 3.59 23.41 3.32 23.82C2.67 24.8 2.5 25.58 2.22 26.88 1.97 28.05 1.98 29.73 1.99 31.21L1.99 32Z" class="MsftOfcResponsive_Fill_7823dc" stroke-width="0" fill="#7823DC"/><path d="M24.49 24.99C23.67 24.99 23.01 24.33 23.01 23.51 23.01 22.69 23.68 22.03 24.49 22.03 25.3 22.03 25.97 22.7 25.97 23.51 25.97 24.32 25.31 24.99 24.49 24.99Z" class="MsftOfcResponsive_Fill_7823dc" stroke-width="0" fill="#7823DC"/><path d="M24.49 22.99C24.2 22.99 23.97 23.22 23.97 23.51 23.97 23.8 24.2 24.03 24.49 24.03 24.78 24.03 25.01 23.8 25.01 23.51 25.01 23.22 24.78 22.99 24.49 22.99Z" class="MsftOfcResponsive_Fill_7823dc" stroke-width="0" fill="#7823DC"/></svg>