<svg viewBox="0 0 32 32" xmlns="http://www.w3.org/2000/svg" xmlns:xlink="http://www.w3.org/1999/xlink" id="Layer_1" overflow="hidden"><g><rect x="-1.1" y="4.3" width="13.1" height="2.1" fill="#7823DC" transform="matrix(0.7261 -0.6876 0.6876 0.7261 -2.152 5.2098)"/></g><g><rect x="0.8" y="9.4" width="18.8" height="2.1" fill="#7823DC" transform="matrix(0.7261 -0.6876 0.6876 0.7261 -4.3696 9.8488)"/></g><g><rect x="9.7" y="2.8" width="2.1" height="6.5" fill="#7823DC" transform="matrix(0.7277 -0.6859 0.6859 0.7277 -1.2234 8.977)"/></g><g><rect x="4.8" y="7.4" width="2.1" height="6.5" fill="#7823DC" transform="matrix(0.7277 -0.6859 0.6859 0.7277 -5.6748 6.9106)"/></g><g><path d="M24.4 26 16.9 25.8 5.4 13.6 13.8 5.7 25.3 17.9 24.4 26ZM17.8 23.8 22.5 23.9 23.2 18.6 13.8 8.6 8.4 13.7 17.8 23.8Z" fill="#7823DC"/></g><g><path d="M11.1 17.8 9.7 16.3 12.8 13.3 15.3 13.7Z" fill="#7823DC"/></g><g><path d="M15 21.7 13.6 20.2 16.7 17.2 19.1 17.6Z" fill="#7823DC"/></g><path d="M29.4 29.7 29.4 29.7 23.7 23.7 22.2 25.1 26 29.1 27.9 31.1 28.3 31.6 30.1 32 29.8 30.1Z" fill="#7823DC"/></svg>