<svg viewBox="0 0 32 32" xmlns="http://www.w3.org/2000/svg" xmlns:xlink="http://www.w3.org/1999/xlink" overflow="hidden"><defs></defs><g id="Layer_3"><path d="M26.6211 30.9951 23.6533 30.9951 24.875 26.1113 24.3164 24.9951 14.7812 24.9951 13.7812 30.9951 11.1533 30.9951 9.03125 22.5068 6.22754 19.7022 7.6416 18.2881 10.8379 21.4834 12.3389 27.4883 13.0879 22.9951 25.5527 22.9951 26.6846 25.2588 29.9307 16.8193C29.8857 15.751 29.4307 13.9951 27.9346 13.9951L8.93457 13.9951 8.93457 11.9951 27.9346 11.9951C30.5606 11.9951 31.9346 14.5107 31.9346 16.9951L31.9346 17.1807Z" fill="#7823DC"/><rect x="22.9345" y="18.8494" width="2.00021" height="5.38516" fill="#7823DC" transform="matrix(0.928477 -0.371391 0.371391 0.928477 -6.28862 10.4298)"/><rect x="29.9346" y="17.042" width="2" height="9" fill="#7823DC"/><rect x="-0.00195" y="9.99852" width="11.998" height="2" fill="#7823DC"/><path d="M8.804 20.042 3.092 20.042 1.66 11.722 3.631 11.382 4.777 18.042 7.065 18.042 7.959 11.708 9.939 11.987 8.804 20.042Z" fill="#7823DC"/><path d="M9.98529 5.97656C9.98541 5.98993 9.98929 6.00226 9.98929 6.01562 9.99278 8.21613 8.21174 10.0028 6.01123 10.0063 3.81072 10.0098 2.02403 8.22875 2.02054 6.02824 2.02053 6.02404 2.02053 6.01983 2.02054 6.01562 2.02054 6.00226 2.02438 5.98993 2.02454 5.97656L0.02246 5.97656C0.0224 5.98975 0.02046 6.00244 0.02046 6.01562 0.0161876 9.3207 2.69202 12.0035 5.9971 12.0077 9.30218 12.012 11.9849 9.33617 11.9892 6.03109 11.9892 6.02593 11.9892 6.02078 11.9892 6.01562 11.9892 6.00244 11.9873 5.98975 11.9872 5.97656Z" fill="#7823DC"/></g></svg>