<svg width="32.1" height="32.7" viewBox="0 0 32.1 32.7" xmlns="http://www.w3.org/2000/svg" xmlns:xlink="http://www.w3.org/1999/xlink" overflow="visible"><defs></defs><g><g id="Layer_3_1_"><rect x="1.2" y="15" width="10" height="2" fill="#7823DC"/><rect x="1.7" y="18.7" width="9" height="2" fill="#7823DC"/><rect x="1.4" y="11.4" width="9.6" height="2" fill="#7823DC"/><rect x="1.2" y="28.1" width="10" height="2" fill="#7823DC"/><rect x="1.2" y="1.8" width="10" height="2" fill="#7823DC"/></g><g id="Layer_2_1_"><path d="M7.8 7.8C7.6 8 7.3 8.2 7.1 8.4 6.8 8.6 6.5 8.8 6.2 9.1 4.1 10.9 2.2 12.7 2 15.2 2 15.5 2 15.7 2 16 2 16.3 2 16.5 2.1 16.8L2 16.8 0.1 17.1C0.1 16.8 0 16.4 0 16.1-0.2 12.4 2.2 9.9 4.6 7.8 5 7.5 5.4 7.2 5.8 6.8 6 6.7 6.1 6.6 6.2 6.5 8.6 4.5 10.7 2.7 10.4 0L12.4 0C12.7 3.4 10.2 5.8 7.8 7.8Z" fill="#7823DC"/><g><path d="M12.4 32 10.4 32C10.6 29.4 8.6 27.6 6.2 25.6 6.1 25.5 5.9 25.4 5.8 25.3 5.4 25 5 24.7 4.6 24.3 2.1 22.2-0.2 19.8 0 16.1 0 15.7 0.1 15.3 0.1 14.9L2 15.2 2.1 15.2C2.1 15.5 2 15.8 2 16L2 16C2 16.3 2 16.5 2 16.8 2.2 19.3 4.1 21.1 6.2 22.9 6.5 23.1 6.8 23.4 7.1 23.6 7.3 23.8 7.6 24 7.8 24.2 10.2 26.3 12.7 28.6 12.4 32Z" fill="#7823DC"/><path d="M12.4 16.1C12.4 16.5 12.3 16.9 12.3 17.3L10.4 17 10.3 17C10.3 16.7 10.4 16.4 10.4 16.2 10.4 15.9 10.4 15.6 10.4 15.4 10.2 12.9 8.3 11.1 6.2 9.3 5.9 8.9 5.7 8.6 5.4 8.4 5.1 8.2 4.9 8 4.7 7.8 2.2 5.8-0.2 3.4 0.1 0L2.1 0C1.8 2.7 3.8 4.5 6.2 6.5 6.3 6.6 6.5 6.7 6.6 6.8 7 7.1 7.4 7.4 7.8 7.8 10.3 9.9 12.6 12.3 12.4 16.1Z" fill="#7823DC"/></g><path d="M7.8 24.3C7.4 24.6 7 25 6.6 25.3 6.5 25.4 6.3 25.5 6.2 25.6 3.8 27.6 1.8 29.4 2 32L0 32C-0.2 28.6 2.2 26.3 4.6 24.3 4.8 24.1 5.1 23.9 5.3 23.7 5.6 23.5 5.9 23.2 6.2 23 8.3 21.2 10.2 19.4 10.4 16.9 10.4 16.6 10.4 16.4 10.4 16.1L10.4 16.1C10.4 15.8 10.4 15.6 10.3 15.3L10.4 15.3 12.3 15C12.4 15.4 12.4 15.8 12.4 16.2 12.6 19.8 10.3 22.2 7.8 24.3Z" fill="#7823DC"/><path d="" stroke="#231F20" stroke-width="2" stroke-miterlimit="10" fill="#7823DC"/></g></g><path d="M23.1 13.6 17.6 13.6 14.8 8.8 17.6 4 23.1 4 25.9 8.8 23.1 13.6ZM18.7 11.6 22 11.6 23.6 8.8 22 6 18.8 6 17.2 8.8 18.7 11.6Z" fill="#7823DC"/><path d="M29.3 17.5 23.8 17.5 21 12.7 23.8 7.9 29.3 7.9 32.1 12.7 29.3 17.5ZM24.9 15.5 28.1 15.5 29.7 12.7 28.1 9.9 24.9 9.9 23.3 12.7 24.9 15.5Z" fill="#7823DC"/><path d="M29.3 25.1 23.8 25.1 21 20.3 23.8 15.5 29.3 15.5 32.1 20.3 29.3 25.1ZM24.9 23.1 28.1 23.1 29.7 20.3 28.1 17.5 24.9 17.5 23.3 20.3 24.9 23.1Z" fill="#7823DC"/><path d="M23.1 29 17.6 29 14.8 24.2 17.6 19.4 23.1 19.4 25.9 24.2 23.1 29ZM18.7 27 22 27 23.6 24.2 22 21.4 18.8 21.4 17.2 24.2 18.7 27Z" fill="#7823DC"/><rect x="15.4" y="15.3" width="8.5" height="2" fill="#7823DC"/><path d="M12.9 19.8 12.9 17.8C13.7 17.8 14.4 17.1 14.4 16.3 14.4 15.5 13.7 14.8 12.9 14.8L12.9 12.8C14.8 12.8 16.4 14.4 16.4 16.3 16.4 18.2 14.9 19.8 12.9 19.8Z" fill="#7823DC"/></svg>