<svg viewBox="0 0 32 32" xmlns="http://www.w3.org/2000/svg" xmlns:xlink="http://www.w3.org/1999/xlink" overflow="hidden"><style>
.MsftOfcResponsive_Fill_7823dc {
 fill:#7823DC; 
}
</style>
<defs></defs><g id="a"></g><g id="b"></g><g id="c"></g><g id="d"><g><path d="M30 20.78 30 22.78 18.91 22.78 18.91 21.04C23.29 19.77 26.5 15.74 26.5 10.96 26.5 5.18 21.79 0.46 16 0.46 10.21 0.46 5.5 5.18 5.5 10.96 5.5 15.68 8.63 19.67 12.91 21L12.91 22.78 0.03 22.78 0.03 24.78 14.92 24.78 14.92 21.41C15.28 21.45 15.64 21.47 16.01 21.47 16.32 21.47 16.62 21.45 16.92 21.42L16.92 24.78 30.01 24.78 30.01 26.78 0.03 26.78 0.03 28.78 30 28.78 30 30.78 32 30.78 32 20.78 30 20.78ZM16 19.46C11.31 19.46 7.5 15.65 7.5 10.96 7.5 6.27 11.32 2.46 16 2.46 20.68 2.46 24.5 6.27 24.5 10.96 24.5 15.65 20.69 19.46 16 19.46Z" class="MsftOfcResponsive_Fill_7823dc" fill="#7823DC"/><path d="M22.76 11.96 22.76 9.97 22.66 9.97 22.66 9.97 22.4 9.97 18.13 9.97 18.13 9.97 16.1 9.97 16.1 9.98 16 9.98 16 11.96 16.02 11.96 22.74 11.96 22.76 11.96Z" class="MsftOfcResponsive_Fill_7823dc" fill="#7823DC"/><path d="M19.65 7.96 22.02 7.96C20.91 5.75 18.63 4.22 16 4.22 12.32 4.22 9.3 7.21 9.26 10.89L11.26 10.91C11.29 8.33 13.41 6.22 16 6.22 17.47 6.22 18.78 6.9 19.65 7.96Z" class="MsftOfcResponsive_Fill_7823dc" fill="#7823DC"/></g></g></svg>