<svg viewBox="0 0 32 32" xmlns="http://www.w3.org/2000/svg" xmlns:xlink="http://www.w3.org/1999/xlink" id="Layer_1" xml:space="preserve" overflow="hidden"><path d="M30 2 30 6 10 6 10 2 30 2M32 0 8 0 8 8 32 8 32 0 32 0Z" fill="#7823DC"/><path d="M25 14 25 18 10 18 10 14 25 14M27 12 8 12 8 20 27 20 27 12 27 12Z" fill="#7823DC"/><path d="M20 26 20 30 10 30 10 26 20 26M22 24 8 24 8 32 22 32 22 24 22 24Z" fill="#7823DC"/><g><path d="M2 28.2 0 26.2 0 29 0 29 0 29 3 32 5.9 29 5.9 26.2 4 28.2" fill="#7823DC" fill-rule="evenodd" clip-rule="evenodd"/><rect x="2" y="0" width="2" height="28.7" fill="#7823DC"/></g></svg>