<svg viewBox="0 0 32 32" xmlns="http://www.w3.org/2000/svg" xmlns:xlink="http://www.w3.org/1999/xlink" id="Graphic" overflow="hidden"><defs></defs><path d="M16 2C20.13 2 23 9.36 23 16 23 22.64 20.13 30 16 30 11.87 30 9 22.6 9 16 9 9.4 11.87 2 16 2M16 0C11 0 7 7.19 7 16 7 24.81 11 32 16 32 21 32 25 24.85 25 16 25 7.15 21 0 16 0Z" fill="#7823DC"/><path d="M9.26 6.85 9.26 6.85C12.8794 6.99922 16.4022 8.06224 19.5 9.94 22.6411 11.6563 25.2994 14.1359 27.23 17.15 28.59 19.44 28.9 21.57 28.09 22.98 27.28 24.39 25.34 25.15 22.74 25.15 19.1206 25.0008 15.5978 23.9378 12.5 22.06 6.78 18.76 1.85 12.59 3.91 9 4.71 7.62 6.66 6.83 9.26 6.83M9.26 4.83C6 4.85 3.4 5.9 2.18 8-0.3 12.33 3.87 19.39 11.5 23.79 14.898 25.852 18.7678 27.0088 22.74 27.15 25.99 27.15 28.6 26.15 29.82 23.98 32.3 19.67 28.13 12.61 20.5 8.21 17.102 6.14804 13.2322 4.99125 9.26 4.85Z" fill="#7823DC"/><path d="M22.74 6.85C25.34 6.85 27.29 7.64 28.09 9.02 30.15 12.59 25.22 18.76 19.5 22.02 16.406 23.9118 12.883 24.9887 9.26 25.15 6.66 25.15 4.71 24.36 3.91 22.98 3.11 21.6 3.41 19.44 4.77 17.15 6.70057 14.1359 9.35895 11.6563 12.5 9.94 15.5978 8.06224 19.1206 6.99922 22.74 6.85M22.74 4.85C18.7678 4.99125 14.898 6.14804 11.5 8.21 3.87 12.61-0.3 19.67 2.18 24 3.4 26.1 6 27.15 9.26 27.15 13.2322 27.0088 17.102 25.852 20.5 23.79 28.13 19.39 32.3 12.33 29.82 8 28.6 5.9 26 4.85 22.74 4.85Z" fill="#7823DC"/></svg>