<svg viewBox="0 0 32 32" xmlns="http://www.w3.org/2000/svg" xmlns:xlink="http://www.w3.org/1999/xlink" id="Layer_1" overflow="hidden"><style>
.MsftOfcResponsive_Fill_7823dc {
 fill:#7823DC; 
}
</style>
<path d="M16 4 29.2 27.4C25 29.1 20.5 30 16 30 11.5 30 7.1 29.1 2.8 27.5L16 4M16-0.1 0 28.4 0 28.4C5.2 30.8 10.6 32 16 32 21.4 32 26.9 30.8 32 28.4L16-0.1 16-0.1Z" class="MsftOfcResponsive_Fill_7823dc" fill="#7823DC"/><path d="M16 26.1C12 26.1 8 25.4 4.1 24L4.8 22.1C12.1 24.7 19.8 24.7 27.1 22.2L27.8 24.1C23.9 25.4 19.9 26.1 16 26.1Z" class="MsftOfcResponsive_Fill_7823dc" fill="#7823DC"/><circle cx="14" cy="14" r="1" class="MsftOfcResponsive_Fill_7823dc" fill="#7823DC"/><circle cx="16" cy="10" r="1" class="MsftOfcResponsive_Fill_7823dc" fill="#7823DC"/><circle cx="19" cy="16" r="1" class="MsftOfcResponsive_Fill_7823dc" fill="#7823DC"/><circle cx="12" cy="18" r="1" class="MsftOfcResponsive_Fill_7823dc" fill="#7823DC"/><circle cx="10" cy="21" r="1" class="MsftOfcResponsive_Fill_7823dc" fill="#7823DC"/><circle cx="16" cy="21" r="1" class="MsftOfcResponsive_Fill_7823dc" fill="#7823DC"/><circle cx="21" cy="21" r="1" class="MsftOfcResponsive_Fill_7823dc" fill="#7823DC"/></svg>