<svg viewBox="0 0 31.96 31.96" xmlns="http://www.w3.org/2000/svg" xmlns:xlink="http://www.w3.org/1999/xlink" id="Layer_1" overflow="hidden"><style>
.MsftOfcResponsive_Fill_7823dc {
 fill:#7823DC; 
}
</style>
<defs></defs><path d="M2.72 19.3C1.92 19.3 1.25 19.07 0.74 18.56-1.53 16.29 1.77 10.62 6.2 6.19 10.62 1.77 16.29-1.53 18.56 0.74 20.83 3.01 17.53 8.68 13.1 13.11 9.66 16.55 5.48 19.3 2.71 19.3ZM16.55 1.98C15.12 1.98 11.66 3.55 7.61 7.61 2.76 12.46 1.46 16.45 2.15 17.15 2.84 17.84 6.84 16.54 11.69 11.69 16.54 6.84 17.84 2.85 17.15 2.15 17.04 2.04 16.84 1.98 16.56 1.98Z" class="MsftOfcResponsive_Fill_7823dc" fill="#7823DC"/><path d="M27.14 31.96 22.91 27.73 1.73 19.16 2.48 17.31 24.04 26.03 27.14 29.13 29.13 27.14 26.03 24.04 17.31 2.49 19.16 1.74 27.73 22.91 31.96 27.14 27.14 31.96Z" class="MsftOfcResponsive_Fill_7823dc" fill="#7823DC"/><path d="M17.34 29.61 5.11 24.69 10.14 21.18 11.28 22.82 9.29 24.22 17.02 27.32 19.72 25.21 20.95 26.78 17.34 29.61Z" class="MsftOfcResponsive_Fill_7823dc" fill="#7823DC"/></svg>