<svg viewBox="0 0 32 32" xmlns="http://www.w3.org/2000/svg" xmlns:xlink="http://www.w3.org/1999/xlink" xml:space="preserve" overflow="hidden"><style>
.MsftOfcResponsive_Fill_7823dc {
 fill:#7823DC; 
}
</style>
<g id="Layer_3"></g><g id="Layer_1"><path d="M3.08 31.79 1.1 31.55C1.85 25.24 0.67 20.65 0.65 20.61 0.07 18.89 0.07 16.9 0.07 16.82 0.15 8.25 17.43 0.32 18.16-0.01L18.99 1.81C14.3 3.93 2.13 10.78 2.07 16.82 2.07 16.83 2.08 18.56 2.57 20.03 2.64 20.29 3.88 25.07 3.08 31.79Z" class="st1 MsftOfcResponsive_Fill_7823dc" fill="#7823DC"/><path d="M18.77 19.1 17.79 17.36C21.53 15.27 26.45 9.84 26.49 9.78L27.98 11.12C27.77 11.35 22.79 16.85 18.77 19.1Z" class="st1 MsftOfcResponsive_Fill_7823dc" fill="#7823DC"/><path d="M16.84 32.07 15.01 31.26C17.44 25.76 14.68 20.65 14.66 20.6L16.41 19.63C16.54 19.87 19.68 25.64 16.84 32.07Z" class="st1 MsftOfcResponsive_Fill_7823dc" fill="#7823DC"/><path d="M9.74 14.21C11.47 17.23 8.88 20.61 8.77 20.75L7.19 19.52C7.21 19.5 9.06 17.06 8 15.21L9.74 14.21Z" class="st1 MsftOfcResponsive_Fill_7823dc" fill="#7823DC"/></g><g id="Layer_2"></g></svg>