<svg viewBox="0 0 32 31.99" xmlns="http://www.w3.org/2000/svg" xmlns:xlink="http://www.w3.org/1999/xlink" id="Layer_1" overflow="hidden"><style>
.MsftOfcResponsive_Fill_7823dc {
 fill:#7823DC; 
}
</style>
<defs></defs><path d="M26.29 31.99 8.7 31.99C3.9 31.99 0 28.4 0 23.98 0 21.62 1.15 19.4 3.16 17.89 5.49 16.14 8.62 15.59 11.51 16.43L28.09 21.67C30.43 22.42 32.01 24.45 32.01 26.7 32.01 29.67 29.5 31.99 26.3 31.99ZM8.79 18.04C7.19 18.04 5.63 18.54 4.36 19.49 2.84 20.63 2 22.23 2 23.98 2 27.29 5.01 29.99 8.7 29.99L26.29 29.99C28.37 29.99 30 28.54 30 26.7 30 25.31 28.99 24.06 27.48 23.57L10.93 18.34C10.23 18.14 9.51 18.04 8.79 18.04Z" class="MsftOfcResponsive_Fill_7823dc" fill="#7823DC"/><path d="M12.45 28.85C10 28.85 8 26.99 8 24.71 8 22.43 10 20.57 12.45 20.57 14.9 20.57 16.9 22.43 16.9 24.71 16.9 26.99 14.9 28.85 12.45 28.85ZM12.45 22.57C11.1 22.57 10 23.53 10 24.71 10 25.89 11.1 26.85 12.45 26.85 13.8 26.85 14.9 25.89 14.9 24.71 14.9 23.53 13.8 22.57 12.45 22.57Z" class="MsftOfcResponsive_Fill_7823dc" fill="#7823DC"/><path d="M11.34 10.01 7.66 10.01C5.34 10.01 3.14 9.17 1.47 7.66L2.82 6.18C4.12 7.36 5.84 8.01 7.66 8.01L11.34 8.01 11.34 10.01Z" class="MsftOfcResponsive_Fill_7823dc" fill="#7823DC"/><rect x="9.19" y="8.42" width="2" height="9.55" class="MsftOfcResponsive_Fill_7823dc" fill="#7823DC" transform="matrix(0.876475 -0.481448 0.481448 0.876475 -5.09 6.54)"/><rect x="16.46" y="11.15" width="17.36" height="2" class="MsftOfcResponsive_Fill_7823dc" fill="#7823DC" transform="matrix(0.264715 -0.964327 0.964327 0.264715 6.76 33.17)"/><path d="M21.69 5.83 21.69 3.83C24.97 3.83 28.12 2.4 30.12 0L31.66 1.28C29.28 4.13 25.56 5.82 21.7 5.82Z" class="MsftOfcResponsive_Fill_7823dc" fill="#7823DC"/><rect x="12.45" y="23.71" width="6.9" height="2" class="MsftOfcResponsive_Fill_7823dc" fill="#7823DC"/></svg>