<svg viewBox="0 0 32.12 31.94" xmlns="http://www.w3.org/2000/svg" xmlns:xlink="http://www.w3.org/1999/xlink" id="Layer_1" overflow="hidden"><style>
.MsftOfcThm_Text2_Fill_v2 {
 fill:#7823DC; 
}
</style>
<g><rect x="1.27" y="11.36" width="3.81" height="2" class="MsftOfcThm_Text2_Fill_v2" fill="#7823DC" transform="matrix(0.823136 -0.567844 0.567844 0.823136 -6.46 3.99)"/><rect x="1.05" y="5.46" width="2" height="3.81" class="MsftOfcThm_Text2_Fill_v2" fill="#7823DC" transform="matrix(0.180347 -0.983603 0.983603 0.180347 -5.56 8.05)"/><rect x="5.54" y="14.18" width="3.81" height="2" class="MsftOfcThm_Text2_Fill_v2" fill="#7823DC" transform="matrix(0.180176 -0.983634 0.983634 0.180176 -8.83 19.77)"/></g><rect x="21.63" y="20.86" width="9.58" height="2" class="MsftOfcThm_Text2_Fill_v2" fill="#7823DC" transform="matrix(0.447291 -0.894389 0.894389 0.447291 -4.94 35.71)"/><path d="M29.33 18.76C28.59 18.76 27.87 18.46 27.35 17.94 26.82 17.41 26.53 16.71 26.53 15.96 26.53 15.21 26.83 14.5 27.35 13.98 28.39 12.94 30.26 12.94 31.3 13.98 31.82 14.5 32.12 15.22 32.12 15.96 32.12 16.7 31.83 17.41 31.3 17.94 30.78 18.46 30.06 18.76 29.32 18.76ZM29.33 15.17C29.12 15.17 28.92 15.25 28.77 15.4 28.62 15.55 28.54 15.75 28.54 15.96 28.54 16.17 28.62 16.38 28.77 16.52 29.07 16.82 29.6 16.82 29.89 16.52 30.04 16.37 30.12 16.17 30.12 15.96 30.12 15.75 30.04 15.55 29.89 15.4 29.74 15.25 29.54 15.17 29.33 15.17Z" class="MsftOfcThm_Text2_Fill_v2" fill="#7823DC"/><g><rect x="22.35" y="3.76" width="2" height="13.25" class="MsftOfcThm_Text2_Fill_v2" fill="#7823DC" transform="matrix(0.636213 -0.771514 0.771514 0.636213 0.48 21.79)"/><path d="M12.67 14.34 5.38 2.93 5.83 2.37C7.21 0.65 9.53 0.02 11.59 0.79L13.1 1.36 14.16 0.68C14.56 0.4 15.05 0.19 15.57 0.08 16.09-0.03 16.62-0.03 17.14 0.08 17.66 0.18 18.15 0.39 18.59 0.69 19.03 0.99 19.4 1.37 19.69 1.82 19.98 2.27 20.17 2.76 20.26 3.28 20.35 3.8 20.33 4.33 20.21 4.85 20.09 5.37 19.86 5.85 19.54 6.27 19.23 6.7 18.83 7.05 18.37 7.32L17.34 7.98 17.22 9.59C17.06 11.79 15.51 13.63 13.37 14.17L12.67 14.35ZM7.88 3.13 13.54 11.97C14.49 11.48 15.14 10.53 15.23 9.43L15.23 9.43C15.23 9.43 15.42 6.82 15.42 6.82L17.32 5.6C17.58 5.45 17.77 5.27 17.92 5.07 18.08 4.86 18.19 4.62 18.25 4.37 18.31 4.12 18.32 3.86 18.28 3.6 18.24 3.34 18.14 3.1 18 2.88 17.86 2.66 17.68 2.47 17.46 2.33 17.24 2.18 17 2.08 16.75 2.03 16.49 1.98 16.23 1.98 15.98 2.03 15.72 2.08 15.49 2.19 15.27 2.34L13.33 3.57 10.88 2.65C9.85 2.26 8.71 2.46 7.87 3.12Z" class="MsftOfcThm_Text2_Fill_v2" fill="#7823DC"/></g><path d="M31.99 31.94 11.99 31.94 11.99 25.15 31.99 25.15 31.99 31.94ZM13.99 29.94 29.99 29.94 29.99 27.15 13.99 27.15 13.99 29.94Z" class="MsftOfcThm_Text2_Fill_v2" fill="#7823DC"/><path d="M9.46 12.02C9.13 12.02 8.79 11.98 8.46 11.89 7.47 11.63 6.65 10.99 6.13 10.11 5.07 8.28 5.7 5.94 7.53 4.88L8.53 6.61C7.66 7.11 7.36 8.23 7.86 9.11 8.36 9.98 9.49 10.28 10.36 9.78L11.36 11.51C10.77 11.85 10.12 12.02 9.45 12.02Z" class="MsftOfcThm_Text2_Fill_v2" fill="#7823DC"/></svg>