<svg viewBox="0 0 32 32" xmlns="http://www.w3.org/2000/svg" xmlns:xlink="http://www.w3.org/1999/xlink" id="Layer_1" xml:space="preserve" overflow="hidden"><g><path d="M28.5 32 26.5 32 26.5 12.2 22.6 12.2 22.6 10.2 28.5 10.2 28.5 32 28.5 32Z" fill="#7823DC" fill-rule="evenodd" clip-rule="evenodd"/><path d="M3.5 3.9 25 3.9 25 6 3.5 6 3.5 3.9Z" fill="#7823DC" fill-rule="evenodd" clip-rule="evenodd"/><path d="M3.5 17.1 25 17.1 25 19.2 3.5 19.2 3.5 17.1Z" fill="#7823DC" fill-rule="evenodd" clip-rule="evenodd"/><path d="M22.1 32 20.1 32 20.1 23.1 8.7 23.1 8.7 32 6.7 32 6.7 21.1 22.1 21.1 22.1 32 22.1 32Z" fill="#7823DC" fill-rule="evenodd" clip-rule="evenodd"/><path d="M23.5 23.1 5 23.1 5 0 23.5 0 23.5 23.1 23.5 23.1ZM6.9 21.1 21.5 21.1 21.5 2 6.9 2 6.9 21.1 6.9 21.1Z" fill="#7823DC" fill-rule="evenodd" clip-rule="evenodd"/><path d="M6.9 23.4 7.8 21.6 21.5 28.8 20.5 30.6 6.9 23.4Z" fill="#7823DC" fill-rule="evenodd" clip-rule="evenodd"/><path d="M7.2 28.8 20.6 21.8 21.5 23.5 8.1 30.6 7.2 28.8Z" fill="#7823DC" fill-rule="evenodd" clip-rule="evenodd"/><path d="M14.2 16.6C12.1 16.6 10.4 14.9 10.4 12.8 10.4 12.1 10.6 11.4 11 10.8L14.2 6.2 17.4 10.8C18.5 12.6 18 14.9 16.2 16 15.7 16.4 15 16.6 14.2 16.6L14.2 16.6ZM14.2 9.7 12.6 11.9C12.4 12.2 12.3 12.5 12.3 12.8 12.3 13.8 13.1 14.6 14.1 14.6 15.1 14.6 15.9 13.8 15.9 12.8 15.9 12.5 15.8 12.1 15.6 11.9L14.2 9.7Z" fill="#7823DC" fill-rule="evenodd" clip-rule="evenodd"/></g></svg>