<svg viewBox="0 0 32 32" xmlns="http://www.w3.org/2000/svg" xmlns:xlink="http://www.w3.org/1999/xlink" id="Layer_3" overflow="hidden"><style>
.MsftOfcResponsive_Fill_7823dc {
 fill:#7823DC; 
}
</style>
<defs></defs><rect x="0" y="0" width="2" height="24" class="MsftOfcResponsive_Fill_7823dc" fill="#7823DC"/><rect x="4" y="0" width="2" height="24" class="MsftOfcResponsive_Fill_7823dc" fill="#7823DC"/><rect x="20.0295" y="0" width="2" height="24" class="MsftOfcResponsive_Fill_7823dc" fill="#7823DC"/><rect x="24.059" y="0" width="2" height="24" class="MsftOfcResponsive_Fill_7823dc" fill="#7823DC"/><rect x="8" y="0" width="4" height="24" class="MsftOfcResponsive_Fill_7823dc" fill="#7823DC"/><rect x="13.966" y="0" width="4" height="24" class="MsftOfcResponsive_Fill_7823dc" fill="#7823DC"/><rect x="28" y="0" width="4" height="24" class="MsftOfcResponsive_Fill_7823dc" fill="#7823DC"/><rect x="8" y="26" width="2" height="2" class="MsftOfcResponsive_Fill_7823dc" fill="#7823DC"/><rect x="8" y="30" width="2" height="2" class="MsftOfcResponsive_Fill_7823dc" fill="#7823DC"/><rect x="6" y="26" width="2" height="6" class="MsftOfcResponsive_Fill_7823dc" fill="#7823DC"/><rect x="9.98301" y="26" width="2" height="6" class="MsftOfcResponsive_Fill_7823dc" fill="#7823DC"/><rect x="20.0179" y="26" width="2" height="2" class="MsftOfcResponsive_Fill_7823dc" fill="#7823DC"/><rect x="1.98301" y="26" width="2" height="6" class="MsftOfcResponsive_Fill_7823dc" fill="#7823DC"/><rect x="0" y="26" width="2" height="2" class="MsftOfcResponsive_Fill_7823dc" fill="#7823DC"/><rect x="22.0009" y="26" width="2" height="6" class="MsftOfcResponsive_Fill_7823dc" fill="#7823DC"/><rect x="26" y="26" width="2" height="2" class="MsftOfcResponsive_Fill_7823dc" fill="#7823DC"/><rect x="28" y="26" width="2" height="4" class="MsftOfcResponsive_Fill_7823dc" fill="#7823DC"/><rect x="26.0063" y="30" width="5.99372" height="2" class="MsftOfcResponsive_Fill_7823dc" fill="#7823DC"/><rect x="14" y="26" width="2" height="2" class="MsftOfcResponsive_Fill_7823dc" fill="#7823DC"/><rect x="16" y="26" width="2" height="4" class="MsftOfcResponsive_Fill_7823dc" fill="#7823DC"/><rect x="14.0063" y="30" width="5.99372" height="2" class="MsftOfcResponsive_Fill_7823dc" fill="#7823DC"/></svg>