<svg viewBox="0 0 32 32" xmlns="http://www.w3.org/2000/svg" xmlns:xlink="http://www.w3.org/1999/xlink" id="Layer_1" xml:space="preserve" overflow="hidden"><g><path d="M0 3.8 32 3.8 32 5.9 0 5.9 0 3.8Z" fill="#7823DC" fill-rule="evenodd" clip-rule="evenodd"/><path d="M0 7.9 32 7.9 32 10 0 10 0 7.9Z" fill="#7823DC" fill-rule="evenodd" clip-rule="evenodd"/><path d="M24 7.9 26 7.9 26 20 24 20 24 7.9Z" fill="#7823DC" fill-rule="evenodd" clip-rule="evenodd"/><path d="M24-0.1 26-0.1 26 5 24 5 24-0.1Z" fill="#7823DC" fill-rule="evenodd" clip-rule="evenodd"/><path d="M28-0.1 30-0.1 30 5 28 5 28-0.1Z" fill="#7823DC" fill-rule="evenodd" clip-rule="evenodd"/><path d="M28 8.8 30 8.8 30 20 28 20 28 8.8Z" fill="#7823DC" fill-rule="evenodd" clip-rule="evenodd"/><path d="M24.1 17.9 29.9 17.9 29.9 20 24.1 20 24.1 17.9Z" fill="#7823DC" fill-rule="evenodd" clip-rule="evenodd"/><path d="M24.1-0.1 30-0.1 30 2 24.1 2 24.1-0.1Z" fill="#7823DC" fill-rule="evenodd" clip-rule="evenodd"/><path d="M16.7-0.1 18.7-0.1 18.7 5.9 16.7 5.9 16.7-0.1Z" fill="#7823DC" fill-rule="evenodd" clip-rule="evenodd"/><path d="M16.7 7.9 18.7 7.9 18.7 24 16.7 24 16.7 7.9Z" fill="#7823DC" fill-rule="evenodd" clip-rule="evenodd"/><path d="M20.7-0.1 22.7-0.1 22.7 5.9 20.7 5.9 20.7-0.1Z" fill="#7823DC" fill-rule="evenodd" clip-rule="evenodd"/><path d="M20.7 7.9 22.7 7.9 22.7 24 20.7 24 20.7 7.9Z" fill="#7823DC" fill-rule="evenodd" clip-rule="evenodd"/><path d="M16.8 21.9 22.5 21.9 22.5 24 16.8 24 16.8 21.9Z" fill="#7823DC" fill-rule="evenodd" clip-rule="evenodd"/><path d="M16.7-0.1 22.5-0.1 22.5 2 16.7 2 16.7-0.1Z" fill="#7823DC" fill-rule="evenodd" clip-rule="evenodd"/><path d="M13.3-0.1 15.3-0.1 15.3 5.9 13.3 5.9 13.3-0.1Z" fill="#7823DC" fill-rule="evenodd" clip-rule="evenodd"/><path d="M9.3-0.1 11.3-0.1 11.3 5.9 9.3 5.9 9.3-0.1Z" fill="#7823DC" fill-rule="evenodd" clip-rule="evenodd"/><path d="M9.3 7.9 11.3 7.9 11.3 27.9 9.3 27.9 9.3 7.9Z" fill="#7823DC" fill-rule="evenodd" clip-rule="evenodd"/><path d="M13.3 7.9 15.3 7.9 15.3 27.9 13.3 27.9 13.3 7.9Z" fill="#7823DC" fill-rule="evenodd" clip-rule="evenodd"/><path d="M9.5 25.9 15.2 25.9 15.2 28 9.5 28 9.5 25.9Z" fill="#7823DC" fill-rule="evenodd" clip-rule="evenodd"/><path d="M9.4-0.1 15.1-0.1 15.1 2 9.4 2 9.4-0.1Z" fill="#7823DC" fill-rule="evenodd" clip-rule="evenodd"/><path d="M2 8.8 4 8.8 4 31.9 2 31.9 2 8.8Z" fill="#7823DC" fill-rule="evenodd" clip-rule="evenodd"/><path d="M6-0.1 8-0.1 8 5.9 6 5.9 6-0.1Z" fill="#7823DC" fill-rule="evenodd" clip-rule="evenodd"/><path d="M2-0.1 4-0.1 4 5.9 2 5.9 2-0.1Z" fill="#7823DC" fill-rule="evenodd" clip-rule="evenodd"/><path d="M6 7.9 8 7.9 8 31.9 6 31.9 6 7.9Z" fill="#7823DC" fill-rule="evenodd" clip-rule="evenodd"/><path d="M2 29.9 7.7 29.9 7.7 32 2 32 2 29.9Z" fill="#7823DC" fill-rule="evenodd" clip-rule="evenodd"/><path d="M2.1-0.1 7.8-0.1 7.8 2 2.1 2 2.1-0.1Z" fill="#7823DC" fill-rule="evenodd" clip-rule="evenodd"/><path d="M29.9 3.9 32 3.9 32 9.7 29.9 9.7 29.9 3.9Z" fill="#7823DC" fill-rule="evenodd" clip-rule="evenodd"/><path d="M0 3.9 2.1 3.9 2.1 9.7 0 9.7 0 3.9Z" fill="#7823DC" fill-rule="evenodd" clip-rule="evenodd"/></g></svg>