<svg viewBox="0 0 32 31.95" xmlns="http://www.w3.org/2000/svg" xmlns:xlink="http://www.w3.org/1999/xlink" id="Layer_1" overflow="hidden"><style>
.MsftOfcThm_Text2_lumMod_100_Fill_v2 {
 fill:#7823DC; 
}
</style>
<defs></defs><path d="M8.07 27.95 24 27.95 24 17.95 8.07 17.95 8.07 27.95ZM10.07 25.95 10.07 23.95 22 23.95 22 25.95 10.07 25.95ZM22 19.95 22 21.95 10.07 21.95 10.07 19.95 22 19.95Z" class="MsftOfcThm_Text2_lumMod_100_Fill_v2" stroke-width="0" fill="#7823DC"/><path d="M28 8.95 32 8.95 32 0 0 0 0 8.95 4 8.95 4 13.95 0 13.95 0 15.94 0 15.94 0 24.74C0 26.51 1.44 27.95 3.21 27.95L4 27.95 4 28.74C4 30.51 5.44 31.95 7.21 31.95L24.8 31.95C26.57 31.95 28.01 30.51 28.01 28.74L28.01 27.95 28.8 27.95C30.57 27.95 32.01 26.51 32.01 24.74L32.01 15.95 32.01 15.95 32.01 13.95 28.01 13.95 28.01 8.95ZM30 6.95 24 6.95 24 2 30 2 30 6.95ZM10 6.95 10 2 22 2 22 6.95 10 6.95ZM2 6.95 2 2 8 2 8 6.95 2 6.95ZM26 8.95 26 10.71C26 12.49 24.55 13.95 22.76 13.95L22.07 13.95 22.07 11.95 20.07 11.95 20.07 13.95 11.92 13.95 11.92 11.95 9.92 11.95 9.92 13.95 9.23 13.95C7.45 13.95 5.99 12.5 5.99 10.71L5.99 8.95 25.99 8.95ZM3.21 25.95C2.54 25.95 2 25.41 2 24.74L2 15.95 4 15.95 4 25.95 3.21 25.95ZM24.79 29.95 7.21 29.95C6.54 29.95 6 29.41 6 28.74L6 14.79C6.89 15.5 8.01 15.94 9.24 15.94L9.93 15.94 9.93 17.19 11.93 17.19 11.93 15.94 20.08 15.94 20.08 17.19 22.08 17.19 22.08 15.94 22.77 15.94C24 15.94 25.11 15.5 26.01 14.79L26.01 28.74C26.01 29.41 25.47 29.95 24.8 29.95ZM30 15.95 30 24.74C30 25.41 29.46 25.95 28.79 25.95L28 25.95 28 15.95 30 15.95Z" class="MsftOfcThm_Text2_lumMod_100_Fill_v2" stroke-width="0" fill="#7823DC"/></svg>