<svg viewBox="0 0 32 32" xmlns="http://www.w3.org/2000/svg" xmlns:xlink="http://www.w3.org/1999/xlink" overflow="hidden"><defs></defs><g id="Layer_3"><path d="M6.02029 13.5671C7.61723 13.5678 9.05937 14.5222 9.684 15.9919L12.2536 15.9919C12.8213 14.4044 14.3231 13.343 16.009 13.3376 17.6589 13.4017 19.1102 14.4472 19.6934 15.9919L22.2975 15.9919C22.8809 14.4472 24.3322 13.4018 25.9822 13.3376 27.6438 13.3778 29.1115 14.4308 29.6819 15.9919L31.9796 15.9919C31.9719 11.7574 30.3002 7.6956 27.325 4.68237 21.0971-1.57157 10.9786-1.59266 4.72461 4.63525 1.7051 7.6422 0.0115754 11.7306 0.0203588 15.9919L2.36063 15.9919C2.98518 14.524 4.42501 13.57 6.02029 13.5671ZM6.09158 6.09644C11.5341 0.623479 20.3828 0.598776 25.8557 6.04126 27.667 7.84243 28.95 10.1056 29.5652 12.5847 28.5431 11.7815 27.2821 11.3426 25.9822 11.3376 23.9552 11.3648 22.0791 12.4144 20.9954 14.1276 19.2617 11.3496 15.6043 10.5029 12.8262 12.2366 12.062 12.7134 11.4165 13.3582 10.9388 14.1218 9.0301 11.4058 5.28111 10.7514 2.56515 12.66 2.49811 12.7071 2.43205 12.7556 2.367 12.8054 2.95784 10.2652 4.24806 7.94119 6.09158 6.09644Z" fill="#7823DC"/><rect x="15" y="11.9919" width="2" height="20" fill="#7823DC"/><rect x="12" y="26.9922" width="2" height="4.9997" fill="#7823DC"/><path d="M5 18.9922C6.65685 18.9922 8 20.3354 8 21.9922 8 23.6491 6.65685 24.9922 5 24.9922 3.34315 24.9922 2 23.6491 2 21.9922 2 20.3354 3.34315 18.9922 5 18.9922M5 16.9922C2.23858 16.9922 8.88178e-16 19.2308 1.77636e-15 21.9922 1.77636e-15 24.7537 2.23858 26.9922 5 26.9922 7.76142 26.9922 10 24.7537 10 21.9922 10 19.2308 7.76142 16.9922 5 16.9922Z" fill="#7823DC"/><rect x="30" y="20.4572" width="2" height="8.17172" fill="#7823DC" transform="matrix(-1 -1.22465e-16 1.22465e-16 -1 62 49.0861)"/><rect x="18" y="20.4572" width="2" height="8.20994" fill="#7823DC" transform="matrix(-1 -1.22465e-16 1.22465e-16 -1 38 49.1243)"/><path d="M25 23.9919C21.5215 23.9919 18 22.7897 18 20.4919 18 18.194 21.5215 16.9919 25 16.9919 28.4785 16.9919 32 18.194 32 20.4919 32 22.7897 28.4785 23.9919 25 23.9919ZM25 18.9919C21.7188 18.9919 20 20.1061 20 20.4919 20 20.8776 21.7188 21.9919 25 21.9919 28.2812 21.9919 30 20.8776 30 20.4919 30 20.1061 28.2812 18.9919 25 18.9919Z" fill="#7823DC"/><path d="M25 25.9572C21.7192 25.9572 20 24.8429 20 24.4572L18 24.4572C18 26.755 21.5215 27.9572 25 27.9572 28.4785 27.9572 32 26.755 32 24.4572L30 24.4572C30 24.8429 28.2808 25.9572 25 25.9572Z" fill="#7823DC"/><path d="M25 29.9922C21.7192 29.9922 20 28.878 20 28.4922L18 28.4922C18 30.7901 21.5215 31.9922 25 31.9922 28.4785 31.9922 32 30.7901 32 28.4922L30 28.4922C30 28.878 28.2808 29.9922 25 29.9922Z" fill="#7823DC"/><path d="M7 31.992 12 26.992 9.17 26.992 5 31.162 0.83 26.992 0 26.992 0 28.992 3 31.992 7 31.992Z" fill="#7823DC"/></g></svg>