<svg viewBox="0 0 32 32" xmlns="http://www.w3.org/2000/svg" xmlns:xlink="http://www.w3.org/1999/xlink" id="Layer_2_00000144328325245699140920000014890284756443101063_" xml:space="preserve" overflow="hidden"><g><path d="M16 32C9.1 32 3.5 26.4 3.5 19.5 3.5 12.6 9.1 7 16 7 22.9 7 28.5 12.6 28.5 19.5 28.5 26.4 22.9 32 16 32L16 32ZM16 9C10.2 9 5.5 13.7 5.5 19.5 5.5 25.3 10.2 30 16 30 21.8 30 26.5 25.3 26.5 19.5 26.5 13.7 21.8 9 16 9L16 9Z" fill="#7823DC" fill-rule="evenodd" clip-rule="evenodd"/><path d="M15.9 8.3 11 2.9 12.5 0 19.5 0 20.9 2.9 15.9 8.3 15.9 8.3 15.9 8.3ZM13.4 2.6 15.9 5.4 18.5 2.6 18.3 2 13.7 2 13.4 2.6 13.4 2.6 13.4 2.6Z" fill="#7823DC" fill-rule="evenodd" clip-rule="evenodd"/></g></svg>