<svg viewBox="0 0 32 32" xmlns="http://www.w3.org/2000/svg" xmlns:xlink="http://www.w3.org/1999/xlink" id="Graphic" overflow="hidden"><defs></defs><rect x="7" y="23" width="2" height="2" fill="#7823DC"/><path d="M10 22 6 22 6 26 10 26 10 22 10 22Z" fill="#7823DC"/><rect x="3" y="27" width="2" height="2" fill="#7823DC"/><path d="M6 26 2 26 2 30 6 30 6 26 6 26Z" fill="#7823DC"/><rect x="15" y="23" width="2" height="2" fill="#7823DC"/><path d="M18 22 14 22 14 26 18 26 18 22 18 22Z" fill="#7823DC"/><rect x="11" y="27" width="2" height="2" fill="#7823DC"/><path d="M14 26 10 26 10 30 14 30 14 26 14 26Z" fill="#7823DC"/><rect x="23" y="23" width="2" height="2" fill="#7823DC"/><path d="M26 22 22 22 22 26 26 26 26 22 26 22Z" fill="#7823DC"/><rect x="19" y="27" width="2" height="2" fill="#7823DC"/><path d="M22 26 18 26 18 30 22 30 22 26 22 26Z" fill="#7823DC"/><rect x="27" y="27" width="2" height="2" fill="#7823DC"/><path d="M30 26 26 26 26 30 30 30 30 26 30 26Z" fill="#7823DC"/><rect x="7" y="15" width="2" height="2" fill="#7823DC"/><path d="M10 14 6 14 6 18 10 18 10 14 10 14Z" fill="#7823DC"/><rect x="3" y="19" width="2" height="2" fill="#7823DC"/><path d="M6 18 2 18 2 22 6 22 6 18 6 18Z" fill="#7823DC"/><rect x="15" y="15" width="2" height="2" fill="#7823DC"/><path d="M18 14 14 14 14 18 18 18 18 14 18 14Z" fill="#7823DC"/><rect x="11" y="19" width="2" height="2" fill="#7823DC"/><path d="M14 18 10 18 10 22 14 22 14 18 14 18Z" fill="#7823DC"/><rect x="23" y="15" width="2" height="2" fill="#7823DC"/><path d="M26 14 22 14 22 18 26 18 26 14 26 14Z" fill="#7823DC"/><rect x="19" y="19" width="2" height="2" fill="#7823DC"/><path d="M22 18 18 18 18 22 22 22 22 18 22 18Z" fill="#7823DC"/><rect x="27" y="19" width="2" height="2" fill="#7823DC"/><path d="M30 18 26 18 26 22 30 22 30 18 30 18Z" fill="#7823DC"/><rect x="7" y="7" width="2" height="2" fill="#7823DC"/><path d="M10 6 6 6 6 10 10 10 10 6 10 6Z" fill="#7823DC"/><rect x="3" y="11" width="2" height="2" fill="#7823DC"/><path d="M6 10 2 10 2 14 6 14 6 10 6 10Z" fill="#7823DC"/><rect x="15" y="7" width="2" height="2" fill="#7823DC"/><path d="M18 6 14 6 14 10 18 10 18 6 18 6Z" fill="#7823DC"/><rect x="11" y="11" width="2" height="2" fill="#7823DC"/><path d="M14 10 10 10 10 14 14 14 14 10 14 10Z" fill="#7823DC"/><rect x="23" y="7" width="2" height="2" fill="#7823DC"/><path d="M26 6 22 6 22 10 26 10 26 6 26 6Z" fill="#7823DC"/><rect x="19" y="11" width="2" height="2" fill="#7823DC"/><path d="M22 10 18 10 18 14 22 14 22 10 22 10Z" fill="#7823DC"/><rect x="27" y="11" width="2" height="2" fill="#7823DC"/><path d="M30 10 26 10 26 14 30 14 30 10 30 10Z" fill="#7823DC"/><rect x="3" y="3" width="2" height="2" fill="#7823DC"/><path d="M6 2 2 2 2 6 6 6 6 2 6 2Z" fill="#7823DC"/><rect x="11" y="3" width="2" height="2" fill="#7823DC"/><path d="M14 2 10 2 10 6 14 6 14 2 14 2Z" fill="#7823DC"/><rect x="19" y="3" width="2" height="2" fill="#7823DC"/><path d="M22 2 18 2 18 6 22 6 22 2 22 2Z" fill="#7823DC"/><rect x="27" y="3" width="2" height="2" fill="#7823DC"/><path d="M30 2 26 2 26 6 30 6 30 2 30 2Z" fill="#7823DC"/><path d="M4 0 0 3.94 0 32 32 32 32 4 32 4 32 0ZM2 30 2 2 30 2 30 30Z" fill="#7823DC"/></svg>