<svg viewBox="0 0 32 32" xmlns="http://www.w3.org/2000/svg" xmlns:xlink="http://www.w3.org/1999/xlink" overflow="hidden"><defs></defs><g id="Layer_3"><path d="M12.2663 2.37991 23.4703 7.99013 5.53871 7.99013 12.2663 2.37991M11.9893-0.00925-0.01643 10.0025 31.9835 10.0025 11.9894-0.00925Z" fill="#7823DC"/><path d="M13.9177 10.0571 13.9177 29.8959 10.0659 29.8959 10.0659 10.0571 13.9177 10.0571M15.9835 7.99136 8 7.99136 8 31.9617 15.9835 31.9617 15.9835 7.99136Z" fill="#7823DC"/><path d="M6 11.973 0 11.973 0 13.991 6 13.991 6 11.973 6 11.973Z" fill="#7823DC"/><path d="M30.018 9.991 28 9.991 28 15.991 30.018 15.991 30.018 9.991 30.018 9.991Z" fill="#7823DC"/><path d="M15.105 10.439 12 4.228 8.895 10.439 7.105 9.544 12-0.245 16.895 9.544 15.105 10.439Z" fill="#7823DC"/><path d="M14.066 29.472 8.586 23.991 12.586 19.991 8.586 15.991 14.154 10.423 15.568 11.837 11.414 15.991 15.414 19.991 11.414 23.991 15.48 28.058 14.066 29.472Z" fill="#7823DC"/><path d="M28 20.9914C26.3439 20.9896 25.0018 19.6475 25 17.9914L27 17.9914C27 18.5436 27.4477 18.9914 28 18.9914 28.5523 18.9914 29 18.5436 29 17.9914 29 17.4391 28.5523 16.9914 28 16.9914L28 14.9914C29.6569 14.9914 31 16.3345 31 17.9914 31 19.6482 29.6569 20.9914 28 20.9914Z" fill="#7823DC"/></g></svg>