<svg viewBox="0 0 32 32" xmlns="http://www.w3.org/2000/svg" xmlns:xlink="http://www.w3.org/1999/xlink" overflow="hidden"><defs></defs><g id="Layer_3"><path d="M14.063 19C14.063 20.1046 13.1676 21 12.063 21 10.9584 21 10.063 20.1046 10.063 19L14.063 19M16.063 17 8.063 17 8.063 19C8.063 21.2091 9.85386 23 12.063 23L12.063 23C14.2721 23 16.063 21.2091 16.063 19L16.063 17Z" fill="#7823DC"/><path d="M22.063 19C22.063 20.1046 21.1676 21 20.063 21 18.9584 21 18.063 20.1046 18.063 19L22.063 19M24.063 17 16.063 17 16.063 19C16.063 21.2091 17.8539 23 20.063 23 22.2721 23 24.063 21.2091 24.063 19L24.063 17Z" fill="#7823DC"/><path d="M22.063 14 10.063 14 10.063 16 22.063 16 22.063 14 22.063 14Z" fill="#7823DC"/><path d="M20.063 11 12.063 11 12.063 13 20.063 13 20.063 11 20.063 11Z" fill="#7823DC"/><path d="M16.063 8.83337C21.1256 8.8334 25.2296 12.9375 25.2296 18 25.2296 23.0626 21.1255 27.1667 16.0629 27.1666 11.0003 27.1666 6.89632 23.0626 6.89632 18 6.90204 12.9398 11.0028 8.83906 16.063 8.83337M16.063 7C9.98787 7 5.063 11.9249 5.063 18 5.063 24.0751 9.98787 29 16.063 29 22.1381 29 27.063 24.0751 27.063 18 27.063 11.9249 22.1381 7 16.063 7Z" fill="#7823DC"/><path d="M16.063 2C17.1676 2 18.063 2.89543 18.063 4 18.063 5.10457 17.1676 6 16.063 6 14.9584 6 14.063 5.10457 14.063 4 14.0643 2.89595 14.959 2.00126 16.063 2M16.063 0C13.8539 0 12.063 1.79086 12.063 4 12.063 6.20914 13.8539 8 16.063 8 18.2721 8 20.063 6.20914 20.063 4 20.063 1.79086 18.2721 -8.88178e-16 16.063 -8.88178e-16Z" fill="#7823DC"/><rect x="6.5631" y="14.3787" width="1.99979" height="4.24264" fill="#7823DC" transform="matrix(0.707107 -0.707107 0.707107 0.707107 -9.45211 10.1806)"/><rect x="22.4417" y="15.5001" width="4.24264" height="1.99979" fill="#7823DC" transform="matrix(0.707107 -0.707107 0.707107 0.707107 -4.47293 22.2014)"/><path d="M0.047 31.915 11.394 27.944 10.732 26.056 0.047 29.796 0.047 31.915Z" fill="#7823DC"/><path d="M32 29.814 21.397 26.058 20.729 27.942 32 31.935 32 29.814Z" fill="#7823DC"/></g></svg>