<svg viewBox="0 0 32 32.08" xmlns="http://www.w3.org/2000/svg" xmlns:xlink="http://www.w3.org/1999/xlink" overflow="hidden"><style>
.MsftOfcResponsive_Fill_7823dc {
 fill:#7823DC; 
}
</style>
<defs></defs><g id="Text"><path d="M13 8.09C10.77 8.09 8.96 6.28 8.96 4.05 8.96 1.82 10.77 0 13 0 15.23 0 17.04 1.81 17.04 4.04 17.04 6.27 15.23 8.08 13 8.08ZM13 2C11.87 2 10.96 2.92 10.96 4.04 10.96 5.16 11.88 6.08 13 6.08 14.12 6.08 15.04 5.16 15.04 4.04 15.04 2.92 14.12 2 13 2Z" class="MsftOfcResponsive_Fill_7823dc" stroke-width="0" fill="#7823DC"/><path d="M20.3 18.08 16.49 18.08 16.49 16.08 20.3 16.08C22.6 16.08 24.5 14.29 24.52 12.08L26.52 12.1C26.48 15.39 23.69 18.08 20.3 18.08Z" class="MsftOfcResponsive_Fill_7823dc" stroke-width="0" fill="#7823DC"/><path d="M22.45 26.88 10 26.88 10 24.88 21.94 24.88 30 20.47 30 16.6 18.64 7.51 20.93 4.3 22.56 5.46 21.37 7.13 32 15.64 32 21.66 22.45 26.88Z" class="MsftOfcResponsive_Fill_7823dc" stroke-width="0" fill="#7823DC"/><path d="M12.75 26.91 2.35 20.78C1.39 20.31 0.6 19.38 0.23 18.26-0.14 17.14-0.06 15.93 0.47 14.87L3.27 10.4C3.77 9.41 4.68 8.64 5.77 8.28 6.89 7.91 8.09 7.99 9.15 8.52 10.05 8.97 17.17 12.86 17.48 13.03L16.52 14.78C16.23 14.62 9.12 10.74 8.26 10.31 7.68 10.02 7.02 9.97 6.41 10.18 5.8 10.38 5.3 10.81 5.04 11.34L4.99 11.43 2.21 15.85C1.97 16.35 1.92 17.01 2.13 17.63 2.33 18.24 2.76 18.75 3.31 19.02L13.77 25.19 12.75 26.91Z" class="MsftOfcResponsive_Fill_7823dc" stroke-width="0" fill="#7823DC"/><rect x="21" y="25.37" width="2" height="5.37" class="MsftOfcResponsive_Fill_7823dc" stroke-width="0" fill="#7823DC"/><path d="M11.82 32.04 0 32.04 0 24.87 11.82 24.87C13.8 24.87 15.4 26.48 15.4 28.45 15.4 30.42 13.79 32.03 11.82 32.03ZM2 30.04 11.82 30.04C12.69 30.04 13.4 29.33 13.4 28.46 13.4 27.59 12.69 26.88 11.82 26.88L2 26.88 2 30.05Z" class="MsftOfcResponsive_Fill_7823dc" stroke-width="0" fill="#7823DC"/></g><g id="Layer_1"><path d="M26.48 32.08 18 32.08 18 30.08 26.48 30.08C28.68 30.08 30 28.57 30 26.04L32 26.04C32 30.21 29.23 32.08 26.48 32.08Z" class="MsftOfcResponsive_Fill_7823dc" stroke-width="0" fill="#7823DC"/></g></svg>