<svg viewBox="0 0 32 32" xmlns="http://www.w3.org/2000/svg" xmlns:xlink="http://www.w3.org/1999/xlink" id="Graphic" overflow="hidden"><style>
.MsftOfcResponsive_Fill_7823dc {
 fill:#7823DC; 
}
</style>
<defs></defs><path d="M22 4 22 28 10 28 10 4 22 4M24 2 8 2 8 30 24 30 24 2Z" class="MsftOfcResponsive_Fill_7823dc" fill="#7823DC"/><path d="M30 8 30 28 24 28 24 8 30 8M32 6 22 6 22 30 32 30 32 6Z" class="MsftOfcResponsive_Fill_7823dc" fill="#7823DC"/><path d="M8 8 8 28 2 28 2 8 8 8M10 6 0 6 0 30 10 30 10 6Z" class="MsftOfcResponsive_Fill_7823dc" fill="#7823DC"/><path d="M17 6 15 6 15 12 17 12 17 6 17 6Z" class="MsftOfcResponsive_Fill_7823dc" fill="#7823DC"/><path d="M19 8 13 8 13 10 19 10 19 8 19 8Z" class="MsftOfcResponsive_Fill_7823dc" fill="#7823DC"/><path d="M28 10 26 10 26 12 28 12 28 10 28 10Z" class="MsftOfcResponsive_Fill_7823dc" fill="#7823DC"/><path d="M28 14 26 14 26 16 28 16 28 14 28 14Z" class="MsftOfcResponsive_Fill_7823dc" fill="#7823DC"/><path d="M28 22 26 22 26 24 28 24 28 22 28 22Z" class="MsftOfcResponsive_Fill_7823dc" fill="#7823DC"/><path d="M28 18 26 18 26 20 28 20 28 18 28 18Z" class="MsftOfcResponsive_Fill_7823dc" fill="#7823DC"/><path d="M6 10 4 10 4 12 6 12 6 10 6 10Z" class="MsftOfcResponsive_Fill_7823dc" fill="#7823DC"/><path d="M6 14 4 14 4 16 6 16 6 14 6 14Z" class="MsftOfcResponsive_Fill_7823dc" fill="#7823DC"/><path d="M6 22 4 22 4 24 6 24 6 22 6 22Z" class="MsftOfcResponsive_Fill_7823dc" fill="#7823DC"/><path d="M6 18 4 18 4 20 6 20 6 18 6 18Z" class="MsftOfcResponsive_Fill_7823dc" fill="#7823DC"/><path d="M14 24 12 24 12 28 14 28 14 24 14 24Z" class="MsftOfcResponsive_Fill_7823dc" fill="#7823DC"/><path d="M20 24 18 24 18 28 20 28 20 24 20 24Z" class="MsftOfcResponsive_Fill_7823dc" fill="#7823DC"/><path d="M22 22 10 22 10 24 22 24 22 22 22 22Z" class="MsftOfcResponsive_Fill_7823dc" fill="#7823DC"/></svg>