<svg viewBox="0 0 32 32" xmlns="http://www.w3.org/2000/svg" xmlns:xlink="http://www.w3.org/1999/xlink" overflow="hidden"><defs></defs><g id="a"></g><g id="b"></g><g id="c"></g><g id="d"><g><path d="M1.98 30.04 1.98 30.04 1.98 30.04 1.98 30.04Z" fill="#7823DC"/><path d="M22 22.05 22 10.05 9.99 10.05 9.99 16.05-0.03 16.05-0.03 28.03 1.97 30.03 1.97 18.04 9.99 18.04 9.99 30.03 1.98 30.03 3.98 32.03 32.02 32.03 32.02 22.04 22.01 22.04ZM20 30.05 11.99 30.05 11.99 12.05 20 12.05 20 30.04ZM30.01 30.05 22 30.05 22 24.05 30.01 24.05 30.01 30.05Z" fill="#7823DC"/><path d="M16.24 8.72 17.89 8.72 17.89 0.1 16.55 0.1C16.36 0.62 16.02 1.08 15.51 1.47 15.01 1.86 14.54 2.13 14.11 2.27L14.11 3.76C14.93 3.49 15.64 3.07 16.24 2.51L16.24 8.71Z" fill="#7823DC"/><path d="M4.67 10.35C3.75 11.2 3.13 11.89 2.82 12.41 2.51 12.93 2.32 13.47 2.26 14.05L8.04 14.05 8.04 12.52 4.77 12.52C4.86 12.37 4.97 12.22 5.11 12.06 5.25 11.9 5.58 11.59 6.1 11.11 6.62 10.63 6.98 10.27 7.18 10.01 7.48 9.63 7.7 9.26 7.84 8.91 7.98 8.56 8.05 8.19 8.05 7.81 8.05 7.13 7.81 6.56 7.32 6.11 6.84 5.65 6.17 5.42 5.32 5.42 4.55 5.42 3.9 5.62 3.38 6.01 2.86 6.4 2.56 7.05 2.46 7.96L4.1 8.12C4.13 7.64 4.25 7.3 4.45 7.09 4.65 6.88 4.93 6.78 5.27 6.78 5.61 6.78 5.89 6.88 6.09 7.08 6.29 7.28 6.39 7.56 6.39 7.93 6.39 8.26 6.28 8.6 6.05 8.94 5.88 9.19 5.43 9.65 4.68 10.35Z" fill="#7823DC"/><path d="M26.99 18.83C26.67 18.83 26.4 18.72 26.18 18.51 25.96 18.3 25.82 17.98 25.77 17.58L24.17 17.77C24.25 18.49 24.55 19.08 25.06 19.52 25.57 19.97 26.22 20.19 27 20.19 27.82 20.19 28.51 19.92 29.06 19.39 29.61 18.86 29.89 18.22 29.89 17.46 29.89 16.94 29.74 16.5 29.45 16.13 29.15 15.76 28.76 15.53 28.27 15.42 29.1 14.97 29.51 14.37 29.51 13.62 29.51 13.09 29.31 12.61 28.91 12.19 28.42 11.67 27.77 11.42 26.96 11.42 26.49 11.42 26.06 11.51 25.68 11.69 25.3 11.87 25 12.11 24.79 12.42 24.58 12.73 24.42 13.15 24.31 13.66L25.83 13.92C25.87 13.55 25.99 13.26 26.19 13.07 26.39 12.87 26.63 12.78 26.91 12.78 27.19 12.78 27.42 12.87 27.6 13.04 27.78 13.21 27.86 13.44 27.86 13.73 27.86 14.07 27.74 14.34 27.51 14.55 27.28 14.75 26.93 14.85 26.49 14.84L26.31 16.18C26.6 16.1 26.85 16.06 27.07 16.06 27.39 16.06 27.66 16.18 27.89 16.42 28.11 16.66 28.22 16.99 28.22 17.4 28.22 17.84 28.1 18.18 27.87 18.44 27.64 18.7 27.35 18.83 27.01 18.83Z" fill="#7823DC"/></g></g></svg>