<svg viewBox="0 0 32.49 32.01" xmlns="http://www.w3.org/2000/svg" xmlns:xlink="http://www.w3.org/1999/xlink" id="a" overflow="hidden"><defs><clipPath id="b"><path d="M0 32 32.49 32 32.49 0 0 0 0 32 0 32Z" fill="none" clip-rule="evenodd"/></clipPath><clipPath id="c"><path d="M0 32 32.49 32 32.49 0 0 0 0 32 0 32Z" fill="none" clip-rule="evenodd"/></clipPath><clipPath id="d"><path d="M0 32 32.49 32 32.49 0 0 0 0 32 0 32Z" fill="none" clip-rule="evenodd"/></clipPath><clipPath id="e"><path d="M0 32 32.49 32 32.49 0 0 0 0 32 0 32Z" fill="none" clip-rule="evenodd"/></clipPath><clipPath id="f"><path d="M0 32 32.49 32 32.49 0 0 0 0 32 0 32Z" fill="none" clip-rule="evenodd"/></clipPath><clipPath id="g"><path d="M0 32 32.49 32 32.49 0 0 0 0 32 0 32Z" fill="none" clip-rule="evenodd"/></clipPath><clipPath id="h"><path d="M0 32 32.49 32 32.49 0 0 0 0 32 0 32Z" fill="none" clip-rule="evenodd"/></clipPath></defs><path d="M0.49 9.9 2.57 9.9 2.57 20.01 0.49 20.01 0.49 9.9 0.49 9.9Z" fill="#7823DC" fill-rule="evenodd"/><path d="M6.1 9.9 8.11 9.9 8.11 20.01 6.1 20.01 6.1 9.9 6.1 9.9Z" fill="#7823DC" fill-rule="evenodd"/><path d="M12.19 3.8 14.2 3.8 14.2 26.11 12.19 26.11 12.19 3.8 12.19 3.8Z" fill="#7823DC" fill-rule="evenodd"/><path d="M8.11 9.9 8.11 11.91 2.08 11.91 2.08 9.9 8.11 9.9 8.11 9.9Z" fill="#7823DC" fill-rule="evenodd"/><path d="M8.11 18 8.11 20.01 2.08 20.01 2.08 18 8.11 18 8.11 18Z" fill="#7823DC" fill-rule="evenodd"/><rect x="5.74" y="6.75" width="8.63" height="2" fill="#7823DC" transform="matrix(0.668482 -0.743728 0.743728 0.668482 -2.43 10.05)"/><g clip-path="url(#b)"><rect x="9.05" y="17.87" width="2" height="8.52" fill="#7823DC" transform="matrix(0.735151 -0.677903 0.677903 0.735151 -12.34 12.68)"/><g clip-path="url(#c)"><path d="M20.3 4.01 20.3 6.83 25.81 1.41 24.39 0 20.3 4.01 20.3 4.01 20.3 4.01Z" fill="#7823DC" fill-rule="evenodd"/><g clip-path="url(#d)"><path d="M28.41 18.02C26.16 18.02 24.33 16.23 24.33 14.02 24.33 11.81 26.16 10.02 28.41 10.02 30.66 10.02 32.49 11.82 32.49 14.02 32.49 16.22 30.66 18.02 28.41 18.02ZM28.41 12.02C27.26 12.02 26.33 12.92 26.33 14.02 26.33 15.12 27.26 16.02 28.41 16.02 29.56 16.02 30.49 15.12 30.49 14.02 30.49 12.92 29.56 12.02 28.41 12.02Z" fill="#7823DC"/><g clip-path="url(#e)"><path d="M26.4 13.54 24.32 13.54 24.32 0 26.4 0 26.4 13.54 26.4 13.54Z" fill="#7823DC" fill-rule="evenodd"/><g clip-path="url(#f)"><path d="M16.28 18.01 16.28 20.82 21.79 15.4 20.37 13.99 16.28 18.01 16.28 18.01 16.28 18.01Z" fill="#7823DC" fill-rule="evenodd"/><g clip-path="url(#g)"><path d="M24.36 32.01C22.13 32.01 20.31 30.22 20.31 28.01 20.31 25.8 22.13 24.01 24.36 24.01 26.59 24.01 28.41 25.8 28.41 28.01 28.41 30.22 26.59 32.01 24.36 32.01ZM24.36 26.01C23.23 26.01 22.31 26.91 22.31 28.01 22.31 29.11 23.23 30.01 24.36 30.01 25.49 30.01 26.41 29.11 26.41 28.01 26.41 26.91 25.49 26.01 24.36 26.01Z" fill="#7823DC"/><g clip-path="url(#h)"><path d="M22.31 27.59 20.3 27.59 20.3 13.99 22.31 13.99 22.31 27.59 22.31 27.59Z" fill="#7823DC" fill-rule="evenodd"/></g></g></g></g></g></g></g></svg>