<svg viewBox="0 0 32 32" xmlns="http://www.w3.org/2000/svg" xmlns:xlink="http://www.w3.org/1999/xlink" id="Layer_1" overflow="hidden"><path d="M20.3 2 22.6 14.4 9.4 14.4 11.7 2 20.3 2M21.2 0 10.8 0C10.3 0 9.9 0.3 9.8 0.8L7.4 14.2C7.2 15.4 8.1 16.5 9.4 16.5L22.6 16.5C23.8 16.5 24.8 15.4 24.6 14.2L22.1 0.8C22.1 0.3 21.6 0 21.2 0L21.2 0Z" fill="#7823DC"/><path d="M22.9 20C23.8 20 24.6 20.6 24.8 21.5L25.4 24 6.6 24 7.2 21.5C7.4 20.6 8.2 20 9.1 20L22.9 20M22.9 18 9.1 18C7.3 18 5.7 19.2 5.2 21L4.6 23.5C4.3 24.8 5.3 26 6.6 26L25.5 26C26.8 26 27.8 24.8 27.4 23.5L26.8 21C26.3 19.2 24.7 18 22.9 18L22.9 18Z" fill="#7823DC"/><rect x="15" y="25" width="2" height="7" fill="#7823DC"/><rect x="8" y="30" width="16" height="2" fill="#7823DC"/><path d="M24.7 21.1C23.7 19.7 23.8 17.8 24.7 16.5 25.2 15.8 26 15.4 26.9 15.4 27.9 15.4 28.7 15.7 29.3 16.4L27.8 17.7C27.5 17.4 27.1 17.4 27 17.4 26.7 17.4 26.4 17.5 26.3 17.7 25.8 18.3 25.8 19.4 26.3 20L24.7 21.1Z" fill="#7823DC"/><path d="M7.3 21.1 5.7 20C6.2 19.3 6.2 18.3 5.7 17.7 5.6 17.5 5.3 17.4 5 17.4 4.8 17.4 4.4 17.4 4.2 17.7L2.7 16.4C3.3 15.7 4.2 15.3 5.1 15.4 6 15.4 6.9 15.9 7.3 16.5 8.3 17.8 8.3 19.7 7.3 21.1Z" fill="#7823DC"/></svg>