<svg viewBox="0 0 32 32" xmlns="http://www.w3.org/2000/svg" xmlns:xlink="http://www.w3.org/1999/xlink" xml:space="preserve" overflow="hidden"><style>
.MsftOfcResponsive_Fill_7823dc {
 fill:#7823DC; 
}
</style>
<g id="Layer_3"></g><g id="Layer_1"></g><g id="Layer_2"></g><g id="Layer_4"></g><g id="Layer_5"><g><path d="M26.88 29.78 5.33 29.78C3.9 29.78 2.77 29.35 1.96 28.51 0.78 27.26 0.82 25.63 0.83 25.44L0.83 15.17C1.06 12.65 2.59 11.55 3.85 11.17L3.85 5.43C3.74 1.37 6.81 0.14 8.45 0.07L23.18 0.07C24.81 0.11 27.88 1.14 28.05 4.81L28.05 11.19C28.81 11.35 29.46 11.71 29.96 12.24 31.24 13.6 31.17 15.6 31.15 15.82L31.15 24.97C31.18 26.43 30.77 27.62 29.93 28.48 28.71 29.74 27.07 29.78 26.88 29.78ZM23.15 2.07 8.5 2.07C8.08 2.1 5.77 2.39 5.86 5.41L5.86 12.99 4.89 13.02C4.59 13.03 3.03 13.22 2.84 15.27L2.84 25.49C2.84 25.54 2.81 26.5 3.43 27.14 3.84 27.56 4.48 27.78 5.34 27.78L26.89 27.78C26.89 27.78 27.87 27.75 28.52 27.08 28.96 26.62 29.18 25.92 29.16 25L29.16 15.77C29.18 15.34 29.1 14.24 28.51 13.62 28.18 13.27 27.7 13.1 27.07 13.1 27.07 13.1 27.06 13.1 27.06 13.1L26.06 13.1 26.06 4.86C25.93 2.24 23.44 2.08 23.15 2.07Z" class="st0 MsftOfcResponsive_Fill_7823dc" fill="#7823DC"/><path d="M7.5 23.79 7.5 15.88 24.48 15.88 24.48 23.7 7.5 23.79ZM9.5 17.88 9.5 21.78 22.48 21.71 22.48 17.88 9.5 17.88Z" class="st0 MsftOfcResponsive_Fill_7823dc" fill="#7823DC"/><path d="M9.49 16.81 7.49 16.68C7.58 15.27 7.32 14.25 6.72 13.65 6 12.94 4.95 13.01 4.94 13.01L4.76 11.02C4.84 11.01 6.71 10.85 8.1 12.2 9.16 13.22 9.63 14.77 9.49 16.81Z" class="st0 MsftOfcResponsive_Fill_7823dc" fill="#7823DC"/><path d="M24.47 23.79 8.5 23.79 8.5 21.79 22.48 21.79 22.48 16.88C22.36 14.96 22.82 13.44 23.82 12.39 25.08 11.09 26.69 11.09 26.86 11.09L26.81 13.09 26.83 12.09 26.82 13.09 26.82 13.09C26.78 13.09 25.89 13.1 25.24 13.79 24.65 14.41 24.39 15.43 24.47 16.81L24.47 23.79Z" class="st0 MsftOfcResponsive_Fill_7823dc" fill="#7823DC"/></g><rect x="7.5" y="28.78" width="2" height="3.22" class="st0 MsftOfcResponsive_Fill_7823dc" fill="#7823DC"/><rect x="22.47" y="28.78" width="2" height="3.22" class="st0 MsftOfcResponsive_Fill_7823dc" fill="#7823DC"/></g></svg>