<svg viewBox="0 0 32 32" xmlns="http://www.w3.org/2000/svg" xmlns:xlink="http://www.w3.org/1999/xlink" id="Graphic" overflow="hidden"><defs></defs><path d="M30 14.73C29.1502 11.0412 26.9165 7.81953 23.76 5.73 23.52 6.21 23 7.19 22.76 7.66 20.52 4.2 17.42 1 13.32 0 13.63 3.63 13.72 7.84 10.6 10.34 9.39296 9.06798 8.47532 7.54994 7.91 5.89-2.9 13 1.18 30.64 14.15 31.91L14.15 29.91C11.22 29.91 9.96 26.59 10.42 24.07 11.4271 25.2158 12.5803 26.2244 13.85 27.07 15.9 24.83 17.46 22.42 17.56 20.29 18.5133 21.4003 19.2372 22.6884 19.69 24.08L20.83 23 20.83 23C22.63 25.62 21.01 29.77 17.68 29.92L17.68 31.92C25.9 31.2 31.74 22.71 30 14.73ZM28.19 19C27.8602 22.4123 26.1019 25.5256 23.35 27.57 24.2542 24.6482 23.1569 21.4777 20.64 19.74L20.28 20.3C19.325 18.6457 17.7355 17.4536 15.88 17 16.1452 19.6505 15.3547 22.2986 13.68 24.37 12.3472 23.2307 11.2645 21.828 10.5 20.25 8.56063 22.2291 7.92701 25.1445 8.87 27.75 7.88214 27.037 7.00587 26.181 6.27 25.21L6.27 25.21C2.56689 20.3445 2.99259 13.4992 7.27 9.13 8.17867 10.6274 9.33121 11.9625 10.68 13.08 14.25 10.08 15.68 7.16 15.55 2.98 18.79 4.92 21.05 8.12 22.69 11.46 23.4317 10.6686 24.0578 9.77649 24.55 8.81 27.3977 11.3798 28.765 15.2076 28.19 19Z" fill="#7823DC"/></svg>