<svg viewBox="0 0 31.99 32" xmlns="http://www.w3.org/2000/svg" xmlns:xlink="http://www.w3.org/1999/xlink" id="Layer_1" overflow="hidden"><style>
.MsftOfcResponsive_Fill_7823dc {
 fill:#7823DC; 
}
</style>
<defs></defs><path d="M12.05 25.11 0 25.11 0 20.78C0 18.14 1.82 15.78 4.42 15.06L12.48 12.57C15.58 11.5 15.58 9.31 15.58 6.99L15.58 0 17.58 0 17.58 4.09 28.28 4.09 28.28 10.76 28.49 11.12C29.98 13.28 30.65 15.84 30.65 19.36L30.65 20.1 15.67 24.59C14.65 24.93 13.42 25.11 12.05 25.11ZM2 23.11 12.05 23.11C13.19 23.11 14.23 22.96 15.06 22.69L28.63 18.62C28.55 15.88 27.98 13.93 26.8 12.2L26.27 11.32 26.27 6.1 17.57 6.1 17.57 7C17.57 9.37 17.57 12.94 13.09 14.48L4.98 16.99C3.19 17.49 2 19.01 2 20.79L2 23.12Z" class="MsftOfcResponsive_Fill_7823dc" fill="#7823DC"/><path d="M30.65 25.11 20.33 25.11 20.33 22.09 22.33 22.09 22.33 23.11 28.65 23.11 28.65 19.35 30.65 19.35 30.65 25.11Z" class="MsftOfcResponsive_Fill_7823dc" fill="#7823DC"/><path d="M31.99 32 6.96 32C3.06 32 0 28.95 0 25.06L2 25.06C2 27.83 4.18 30 6.96 30L31.99 30 31.99 32Z" class="MsftOfcResponsive_Fill_7823dc" fill="#7823DC"/><rect x="23.89" y="24.11" width="2" height="5.94" class="MsftOfcResponsive_Fill_7823dc" fill="#7823DC"/><rect x="9.63" y="25.06" width="2" height="5.94" class="MsftOfcResponsive_Fill_7823dc" fill="#7823DC"/><rect x="15.6" y="0" width="12.68" height="2" class="MsftOfcResponsive_Fill_7823dc" fill="#7823DC"/><rect x="26.27" y="0.04" width="2" height="5.23" class="MsftOfcResponsive_Fill_7823dc" fill="#7823DC"/><rect x="10.82" y="14.11" width="2" height="3.36" class="MsftOfcResponsive_Fill_7823dc" fill="#7823DC" transform="matrix(0.70723 -0.706983 0.706983 0.70723 -7.7 12.98)"/><rect x="15.57" y="11.73" width="2" height="3.36" class="MsftOfcResponsive_Fill_7823dc" fill="#7823DC" transform="matrix(0.707107 -0.707107 0.707107 0.707107 -4.63 15.65)"/></svg>