<svg viewBox="0 0 32 32" xmlns="http://www.w3.org/2000/svg" xmlns:xlink="http://www.w3.org/1999/xlink" xml:space="preserve" overflow="hidden"><g id="Graphic"><g><defs><path d="" id="SVGID_1_" fill="#7823DC"/></defs><defs><line x1="-1" y1="-1" x2="-1" y2="-1" id="SVGID_00000005240556686724394080000008399714820394933678_"/></defs><clipPath id="SVGID_00000142863188705898696910000006017249378972258688_"><use width="100%" height="100%" xlink:href="#SVGID_1_" overflow="visible"></use></clipPath><clipPath id="SVGID_00000180338450942833743160000011959842900879828624_" clip-path="url(#SVGID_00000142863188705898696910000006017249378972258688_)"><use width="100%" height="100%" xlink:href="#SVGID_00000005240556686724394080000008399714820394933678_" overflow="visible"></use></clipPath><g clip-path="url(#SVGID_00000180338450942833743160000011959842900879828624_)"><defs><path d="" id="SVGID_00000097483846483851906190000004728058092963947922_" fill="#7823DC"/></defs><clipPath id="SVGID_00000094584704852197955930000001265770001440275126_"><use width="100%" height="100%" xlink:href="#SVGID_00000097483846483851906190000004728058092963947922_" overflow="visible"></use></clipPath></g></g><g><g><path d="M17 3.3 18.9 1.4 18.9 4.2 16 7 13.1 4.2 13.1 1.5 15 3.3" fill="#7823DC" fill-rule="evenodd" clip-rule="evenodd"/><path d="M15 3.6 17 3.6 17 0 15 0 15 3.6Z" fill="#7823DC" fill-rule="evenodd" clip-rule="evenodd"/></g><g><path d="M15 28.7 13.1 30.6 13.1 27.8 16 25 18.9 27.8 18.9 30.5 17 28.7" fill="#7823DC" fill-rule="evenodd" clip-rule="evenodd"/><path d="M15 32 17 32 17 28.4 15 28.4 15 32Z" fill="#7823DC" fill-rule="evenodd" clip-rule="evenodd"/></g><g><path d="M27.7 17 29.6 18.9 26.8 18.9 24 16 26.8 13.1 29.5 13.1 27.7 15" fill="#7823DC" fill-rule="evenodd" clip-rule="evenodd"/><path d="M32 15 27.4 15 27.4 17 32 17 32 15Z" fill="#7823DC" fill-rule="evenodd" clip-rule="evenodd"/></g><g><path d="M4.3 15 2.4 13.1 5.2 13.1 8 16 5.2 18.9 2.5 18.9 4.3 17" fill="#7823DC" fill-rule="evenodd" clip-rule="evenodd"/><path d="M4.6 15 0 15 0 17 4.6 17 4.6 15Z" fill="#7823DC" fill-rule="evenodd" clip-rule="evenodd"/></g><g><path d="M23.5 5.9 23.6 3.3 21.7 5.2 21.7 9.2 25.7 9.2 27.6 7.4 25 7.4" fill="#7823DC" fill-rule="evenodd" clip-rule="evenodd"/><path d="M24.8 7.5 23.4 6.1 26.6 2.9 28.1 4.4 24.8 7.5 24.8 7.5Z" fill="#7823DC" fill-rule="evenodd" clip-rule="evenodd"/></g><g><path d="M8.5 26 8.4 28.7 10.3 26.7 10.3 22.7 6.3 22.7 4.4 24.5 7 24.5" fill="#7823DC" fill-rule="evenodd" clip-rule="evenodd"/><path d="M7.2 24.4 8.6 25.8 5.4 29.1 3.9 27.6 7.2 24.4 7.2 24.4Z" fill="#7823DC" fill-rule="evenodd" clip-rule="evenodd"/></g><g><path d="M8.4 5.9 8.3 3.3 10.2 5.2 10.2 9.2 6.2 9.2 4.3 7.4 6.9 7.4" fill="#7823DC" fill-rule="evenodd" clip-rule="evenodd"/><path d="M7.1 7.5 8.5 6.1 5.3 2.9 3.8 4.4 7.1 7.5 7.1 7.5Z" fill="#7823DC" fill-rule="evenodd" clip-rule="evenodd"/></g><g><path d="M23.5 26 23.6 28.7 21.7 26.7 21.7 22.8 25.7 22.8 27.6 24.5 25 24.5" fill="#7823DC" fill-rule="evenodd" clip-rule="evenodd"/><path d="M24.8 23.4 23.5 25.8 26.6 29.2 28.1 26.7 24.8 23.4 24.8 23.4Z" fill="#7823DC" fill-rule="evenodd" clip-rule="evenodd"/></g></g><path d="M18.1 24.9 13.7 24.9 12.7 21.8C12.6 21.7 12.5 21.7 12.4 21.6L9.2 22.2 7.1 18.6 9.3 16.2C9.3 16.1 9.3 16.1 9.3 16 9.3 15.9 9.3 15.9 9.3 15.8L7.1 13.4 9.3 9.7 12.5 10.4C12.6 10.3 12.7 10.3 12.8 10.2L13.8 7.1 18.2 7.1 19.2 10.2C19.3 10.3 19.4 10.3 19.5 10.4L22.7 9.8 24.9 13.5 22.7 15.9C22.7 16 22.7 16 22.7 16.1L22.7 16.1C22.7 16.2 22.7 16.2 22.7 16.3L24.8 18.7 22.6 22.4 19.4 21.7C19.3 21.8 19.2 21.8 19.1 21.9L18.1 24.9 18.1 24.9 18.1 24.9 18.1 24.9 18.1 24.9 18.1 24.9 18.1 24.9ZM15.1 23 16.7 23 17.6 20.5 18 20.3C18.3 20.2 18.5 20 18.7 19.9L19 19.7 21.6 20.2 22.4 18.8 20.6 16.8 20.6 16.4C20.6 16.3 20.6 16.1 20.6 16 20.6 15.9 20.6 15.7 20.6 15.6L20.6 15.2 22.4 13.2 21.5 12 19 12.4 18.7 12.2C18.5 12 18.2 11.9 18 11.8L17.6 11.6 16.8 9.1 15.2 9.1 14.3 11.6 14 11.8C13.7 11.9 13.5 12.1 13.3 12.2L13 12.4 10.4 11.9 9.4 13.3 11.2 15.3 11.2 15.7C11.2 15.8 11.2 16 11.2 16.1 11.2 16.2 11.2 16.4 11.2 16.5L11.2 16.9 9.4 18.9 10.2 20.3 12.8 19.8 13.1 20C13.3 20.2 13.6 20.3 13.8 20.4L14.2 20.6 15.1 23 15.1 23 15.1 23 15.1 23 15.1 23 15.1 23 15.1 23Z" fill="#7823DC" fill-rule="evenodd" clip-rule="evenodd"/><path d="M15.9 19.2C14.1 19.2 12.7 17.8 12.7 16.1 12.7 15.2 13 14.4 13.6 13.8 14.2 13.2 15 12.8 15.9 12.8 16.8 12.8 17.6 13.1 18.2 13.7 18.8 14.3 19.2 15.1 19.2 16L19.2 16C19.1 17.6 17.7 19.1 15.9 19.2L15.9 19.2 15.9 19.2 15.9 19.2 15.9 19.2ZM15.9 14.8 15.9 14.8C15.5 14.8 15.2 14.9 15 15.2 14.8 15.4 14.6 15.8 14.7 16.1 14.7 16.8 15.3 17.3 16 17.3 16.7 17.3 17.2 16.7 17.2 16L17.2 16C17.2 15.7 17.1 15.4 16.8 15.1 16.4 14.9 16.1 14.8 15.9 14.8L15.9 14.8 15.9 14.8 15.9 14.8Z" fill="#7823DC" fill-rule="evenodd" clip-rule="evenodd"/></g><g id="Layer_2" display="none"><g><path d="M15 3C14.9 3 14.7 3 14.6 3 14.4 3 14.2 3 14.1 3 13.4 3 12.7 3.1 12.1 3.2L12.7 3.8 13.8 5C14 5 14.3 5 14.6 5 15.6 5 16.7 5.1 17.7 5.4 21.2 6.3 24.1 8.6 25.7 11.7L28.8 14.8 28.8 14.4C27.4 8 21.8 3.2 15 3ZM25.9 22.9 25.9 22.9C24.3 26.2 21.3 28.7 17.6 29.6 16.6 29.8 15.6 30 14.6 30 13.5 30 12.5 29.9 11.5 29.6 6.4 28.3 2.6 23.9 2.1 18.5 2.1 18.2 2.1 17.8 2.1 17.5 2.1 17.2 2.1 16.8 2.1 16.5 2.4 12.2 5 8.5 8.6 6.5L7.1 5.1C2.9 7.6 0 12.3 0 17.5 0 25.5 6.5 32 14.5 32 20.6 32 25.8 28.2 28 22.9L25.9 22.9Z" fill="#7823DC"/><path d="M21.4 18.5 0.3 18.5 0.3 16.5 23.7 16.5 25.3 18.5" fill="#7823DC"/></g><path d="M18.1 16.5C18.1 16.8 18.1 17.1 18.1 17.5 18.1 17.8 18.1 18.2 18.1 18.5 17.9 26 15.4 29.9 14.6 29.9 13.8 29.9 11.2 26 11 18.5 11 18.2 11 17.8 11 17.5 11 17.2 11 16.8 11 16.5 11.1 13.8 11.4 11.6 11.9 9.9L10.2 8.2C9.5 10.5 9 13.3 9 16.5 9 16.8 9 17.1 9 17.5 9 17.8 9 18.2 9 18.5 9.1 23.2 10.1 27.2 11.5 29.6 12.4 31.1 13.4 32 14.6 32 15.8 32 16.8 31.1 17.7 29.6 19.1 27.2 20.1 23.1 20.2 18.5 20.2 18.2 20.2 17.8 20.2 17.5 20.2 17.2 20.2 16.8 20.2 16.5M19.6 16.5 18.5 16.5M17.6 5.4C16.9 4.1 16 4.2 15 4 14.8 4 14.7 4 14.5 4 14.3 4 14.2 4 14 4 13.5 4.1 13 3.4 12.6 3.8L13.8 5 14 5.2C14.2 5.1 14.4 5 14.5 5 14.9 5 15.7 5.9 16.4 7.6L19 10.2M18.1 16.5C18.1 16.8 18.1 17.1 18.1 17.5 18.1 17.8 18.1 18.2 18.1 18.5L20.2 18.5C20.2 18.2 20.2 17.8 20.2 17.5 20.2 17.2 20.2 16.8 20.2 16.5L19.7 16.5 19 17.1 18.4 16.5" fill="#7823DC"/><path d="M65.9 19.4 65.9 13.9 64.1 12.1 64.1 16.3 55.5 7.9 52.9 10.4 42.6 0 40.1 0 52.9 12.9 55.5 10.4 62.8 17.6 58.5 17.6 60.3 19.4Z" fill="#7823DC"/><g><path d="M32.1 21.4 32.1 15.9 30.2 14.1 30.2 18.3 21.6 9.9 19 12.4 8.7 2 6.2 2 19 14.9 21.6 12.4 29 19.6 24.7 19.6 26.5 21.4Z" fill="#7823DC"/><line x1="18.5" y1="16.5" x2="19.6" y2="16.5" fill="#FFFFFF"/></g></g></svg>