<svg viewBox="0 0 32 32" xmlns="http://www.w3.org/2000/svg" xmlns:xlink="http://www.w3.org/1999/xlink" id="Layer_1" xml:space="preserve" overflow="hidden"><style>
.MsftOfcResponsive_Fill_7823dc {
 fill:#7823DC; 
}
</style>
<g><path d="M20.2 21.1 28.2 2.2 23.7 2.2 13.7 19.4 13.7 6.2 3.6 6.2 0 19.8 3.1 26 5.3 26 5.3 24 4.3 24 2.2 19.5 2.5 18.4 9.4 18.4 9.4 8.4 5.1 8.4 5.2 8.1 11.9 8.1 11.9 26 23.8 26 23.8 24 13.9 24 13.9 23.1 32 23.1 32 21.1 20.2 21.1 20.2 21.1ZM24.9 4.3 25.2 4.3 25.1 4.5 24.5 5 24.9 4.3 24.9 4.3ZM7.4 10.4 7.4 16.4 3 16.4 4.6 10.4 7.4 10.4 7.4 10.4ZM23.5 8.2 22.9 9.7 22.7 8.8 23.5 8.2 23.5 8.2ZM21.1 10.9 21.3 12 19.7 13.2 21.1 10.9 21.1 10.9ZM15.2 21.1 16.6 18.7 17.6 21.1 15.2 21.1 15.2 21.1ZM18.1 17.1 20.6 15.1 18.9 19.2 18.1 17.1 18.1 17.1Z" class="MsftOfcResponsive_Fill_7823dc" fill="#7823DC" fill-rule="evenodd" clip-rule="evenodd"/><path d="M30.4 24 32 24 32 26 30.4 26 30.4 24Z" class="MsftOfcResponsive_Fill_7823dc" fill="#7823DC" fill-rule="evenodd" clip-rule="evenodd"/><path d="M27.2 5.6 27.2 12.5 27.2 12.5 27.2 14.5C27.8 14.5 28.3 15 28.3 15.7 28.3 16.3 27.8 16.8 27.1 16.8 26.5 16.8 26 16.3 26 15.7L24 15.7C24 17.4 25.4 18.8 27.1 18.8 28.8 18.8 30.2 17.4 30.2 15.7 30.2 14.8 29.8 13.9 29.1 13.3L29.1 5.6 27.2 5.6 27.2 5.6Z" class="MsftOfcResponsive_Fill_7823dc" fill="#7823DC" fill-rule="evenodd" clip-rule="evenodd"/><path d="M27 23.4C25.3 23.4 23.9 24.8 23.9 26.5 23.9 28.2 25.3 29.6 27 29.6 28.7 29.6 30.1 28.2 30.1 26.5 30.1 26.5 30.1 26.5 30.1 26.5 30.2 24.8 28.8 23.5 27 23.4L27 23.4ZM27 27.7C26.4 27.7 25.9 27.2 25.9 26.6 25.9 26 26.4 25.5 27 25.5 27.6 25.5 28.1 26 28.1 26.6 28.1 26.6 28.1 26.6 28.1 26.6 28.2 27.2 27.7 27.7 27 27.7L27 27.7Z" class="MsftOfcResponsive_Fill_7823dc" fill="#7823DC" fill-rule="evenodd" clip-rule="evenodd"/><path d="M8.5 23.4C6.8 23.4 5.4 24.8 5.4 26.5 5.4 28.2 6.8 29.6 8.5 29.6 10.2 29.6 11.6 28.2 11.6 26.5 11.6 26.5 11.6 26.5 11.6 26.5 11.6 24.8 10.2 23.5 8.5 23.4L8.5 23.4ZM8.5 27.7C7.9 27.7 7.4 27.2 7.4 26.6 7.4 26 7.9 25.5 8.5 25.5 9.1 25.5 9.6 26 9.6 26.6 9.6 26.6 9.6 26.6 9.6 26.6 9.6 27.2 9.1 27.7 8.5 27.7L8.5 27.7Z" class="MsftOfcResponsive_Fill_7823dc" fill="#7823DC" fill-rule="evenodd" clip-rule="evenodd"/></g></svg>