<svg viewBox="0 0 32 32" xmlns="http://www.w3.org/2000/svg" xmlns:xlink="http://www.w3.org/1999/xlink" id="Layer_1" overflow="hidden"><style>
.MsftOfcThm_Text2_Fill_v2 {
 fill:#7823DC; 
}
</style>
<defs></defs><path d="M11.38 32 0 32 0 14.06 0.76 13.87C3.07 13.29 4.62 11.32 4.62 8.95L4.62 0 9.65 0 17.01 12.26 17.01 26.38C17.01 29.48 14.49 32 11.39 32ZM2 30 11.38 30C13.37 30 15 28.38 15 26.38L15 12.81 8.51 2 6.61 2 6.61 8.96C6.61 11.94 4.75 14.56 1.99 15.58L1.99 30Z" class="MsftOfcThm_Text2_Fill_v2" stroke-width="0" fill="#7823DC"/><path d="M32 32 20.62 32C17.52 32 15 29.48 15 26.38L15 12.26 22.36 0 27.39 0 27.39 8.96C27.39 11.32 28.94 13.3 31.25 13.88L32.01 14.07 32.01 32.01ZM17 12.82 17 26.39C17 28.38 18.62 30.01 20.62 30.01L30 30.01 30 15.59C27.25 14.57 25.38 11.95 25.38 8.97L25.38 2 23.48 2 16.99 12.82Z" class="MsftOfcThm_Text2_Fill_v2" stroke-width="0" fill="#7823DC"/><path d="M16 5.01C13.75 5.01 11.5 4.42 9.41 3.23L10.4 1.49C13.96 3.51 18.05 3.51 21.61 1.49L22.6 3.23C20.51 4.42 18.26 5.01 16.01 5.01Z" class="MsftOfcThm_Text2_Fill_v2" stroke-width="0" fill="#7823DC"/><path d="M10.23 27.38 6.77 27.38C4.95 27.38 3.46 25.9 3.46 24.07L3.46 18.45 13.54 18.45 13.54 24.07C13.54 25.89 12.06 27.38 10.23 27.38ZM5.46 20.46 5.46 24.08C5.46 24.8 6.05 25.39 6.77 25.39L10.23 25.39C10.95 25.39 11.54 24.8 11.54 24.08L11.54 20.46 5.46 20.46Z" class="MsftOfcThm_Text2_Fill_v2" stroke-width="0" fill="#7823DC"/><path d="M25.23 27.38 21.77 27.38C19.95 27.38 18.46 25.9 18.46 24.07L18.46 18.45 28.54 18.45 28.54 24.07C28.54 25.89 27.06 27.38 25.23 27.38ZM20.46 20.46 20.46 24.08C20.46 24.8 21.05 25.39 21.77 25.39L25.23 25.39C25.95 25.39 26.54 24.8 26.54 24.08L26.54 20.46 20.46 20.46Z" class="MsftOfcThm_Text2_Fill_v2" stroke-width="0" fill="#7823DC"/><rect x="1" y="15" width="30" height="2" class="MsftOfcThm_Text2_Fill_v2" stroke-width="0" fill="#7823DC"/><rect x="1" y="21.92" width="3.46" height="2" class="MsftOfcThm_Text2_Fill_v2" stroke-width="0" fill="#7823DC"/><rect x="12.54" y="21.92" width="6.92" height="2" class="MsftOfcThm_Text2_Fill_v2" stroke-width="0" fill="#7823DC"/><rect x="27.54" y="21.92" width="3.46" height="2" class="MsftOfcThm_Text2_Fill_v2" stroke-width="0" fill="#7823DC"/></svg>