<svg viewBox="0 0 32 32" xmlns="http://www.w3.org/2000/svg" xmlns:xlink="http://www.w3.org/1999/xlink" id="Layer_1" overflow="hidden"><style>
.MsftOfcResponsive_Fill_7823dc {
 fill:#7823DC; 
}
</style>
<defs></defs><path d="M32 32 17.12 32C13.33 32 10 28.07 8.2 21.49 7.34 18.35 6.92 14.97 6.95 11.43 7.02 2.2 1.53 2 1.29 2L1.29 0C1.4 0 3.88 0.02 6 2.16 7.99 4.17 8.99 7.29 8.95 11.45 8.92 14.8 9.32 18 10.13 20.96 11.65 26.53 14.33 30 17.12 30L32 30 32 32Z" class="MsftOfcResponsive_Fill_7823dc" fill="#7823DC"/><rect x="23" y="6.05" width="2" height="3.95" class="MsftOfcResponsive_Fill_7823dc" fill="#7823DC"/><path d="M25.95 8.59 24 6.64 22.05 8.59 20.63 7.18 24 3.81 27.37 7.18 25.95 8.59Z" class="MsftOfcResponsive_Fill_7823dc" fill="#7823DC"/><rect x="12.37" y="6.05" width="2" height="3.95" class="MsftOfcResponsive_Fill_7823dc" fill="#7823DC"/><path d="M15.33 8.59 13.37 6.64 11.42 8.59 10 7.18 13.37 3.81 16.74 7.18 15.33 8.59Z" class="MsftOfcResponsive_Fill_7823dc" fill="#7823DC"/><path d="M30 2 30 30 2 30 2 2 30 2M32 0 0 0 0 32 32 32 32 0 32 0Z" class="MsftOfcResponsive_Fill_7823dc" fill="#7823DC"/><path d="M10.2 26.63C10.65 27.19 11.33 28.04 12.64 28.04 13.95 28.04 14.63 27.19 15.08 26.63 15.5 26.1 15.65 25.97 15.96 25.97 16.27 25.97 16.42 26.1 16.84 26.63 17.29 27.19 17.97 28.04 19.28 28.04 20.59 28.04 21.27 27.19 21.72 26.63 22.14 26.1 22.29 25.97 22.6 25.97 22.91 25.97 23.06 26.1 23.48 26.63 23.93 27.19 24.61 28.04 25.92 28.04 27.23 28.04 27.91 27.19 28.36 26.63 28.78 26.1 28.93 25.97 29.24 25.97 29.55 25.97 29.7 26.1 30.12 26.63 30.49 27.1 31.03 27.75 31.95 27.97L31.95 25.7C31.87 25.61 31.79 25.51 31.68 25.38 31.23 24.82 30.55 23.97 29.24 23.97 27.93 23.97 27.25 24.82 26.8 25.38 26.38 25.91 26.23 26.04 25.92 26.04 25.61 26.04 25.46 25.91 25.04 25.38 24.59 24.82 23.91 23.97 22.6 23.97 21.29 23.97 20.61 24.82 20.16 25.38 19.74 25.91 19.59 26.04 19.28 26.04 18.97 26.04 18.82 25.91 18.4 25.38 17.95 24.82 17.27 23.97 15.96 23.97 14.65 23.97 13.97 24.82 13.52 25.38 13.1 25.91 12.95 26.04 12.64 26.04 12.33 26.04 12.18 25.91 11.76 25.38" class="MsftOfcResponsive_Fill_7823dc" fill="#7823DC"/><path d="M9.32 20C9.63 20 9.78 20.13 10.2 20.66 10.65 21.22 11.33 22.07 12.64 22.07 13.95 22.07 14.63 21.22 15.08 20.66 15.5 20.13 15.65 20 15.96 20 16.27 20 16.42 20.13 16.84 20.66 17.29 21.22 17.97 22.07 19.28 22.07 20.59 22.07 21.27 21.22 21.72 20.66 22.14 20.13 22.29 20 22.6 20 22.91 20 23.06 20.13 23.48 20.66 23.93 21.22 24.61 22.07 25.92 22.07 27.23 22.07 27.91 21.22 28.36 20.66 28.78 20.13 28.93 20 29.24 20 29.55 20 29.7 20.13 30.12 20.66 30.49 21.13 31.03 21.78 31.95 22L31.95 19.73C31.87 19.64 31.79 19.54 31.68 19.41 31.23 18.85 30.55 18 29.24 18 27.93 18 27.25 18.85 26.8 19.41 26.38 19.94 26.23 20.07 25.92 20.07 25.61 20.07 25.46 19.94 25.04 19.41 24.59 18.85 23.91 18 22.6 18 21.29 18 20.61 18.85 20.16 19.41 19.74 19.94 19.59 20.07 19.28 20.07 18.97 20.07 18.82 19.94 18.4 19.41 17.95 18.85 17.27 18 15.96 18 14.65 18 13.97 18.85 13.52 19.41 13.1 19.94 12.95 20.07 12.64 20.07 12.33 20.07 12.18 19.94 11.76 19.41 11.31 18.85 10.63 18 9.31 18" class="MsftOfcResponsive_Fill_7823dc" fill="#7823DC"/><path d="M8.43 14.63C8.86 14.1 9 13.97 9.31 13.97 9.62 13.97 9.77 14.1 10.19 14.63 10.64 15.19 11.32 16.04 12.63 16.04 13.94 16.04 14.62 15.19 15.07 14.63 15.49 14.1 15.64 13.97 15.95 13.97 16.26 13.97 16.41 14.1 16.83 14.63 17.28 15.19 17.96 16.04 19.27 16.04 20.58 16.04 21.26 15.19 21.71 14.63 22.13 14.1 22.28 13.97 22.59 13.97 22.9 13.97 23.05 14.1 23.47 14.63 23.92 15.19 24.6 16.04 25.91 16.04 27.22 16.04 27.9 15.19 28.35 14.63 28.77 14.1 28.92 13.97 29.23 13.97 29.54 13.97 29.69 14.1 30.11 14.63 30.48 15.1 31.02 15.75 31.94 15.97L31.94 13.7C31.86 13.61 31.78 13.51 31.67 13.38 31.22 12.82 30.54 11.97 29.23 11.97 27.92 11.97 27.24 12.82 26.79 13.38 26.37 13.91 26.22 14.04 25.91 14.04 25.6 14.04 25.45 13.91 25.03 13.38 24.58 12.82 23.9 11.97 22.59 11.97 21.28 11.97 20.6 12.82 20.15 13.38 19.73 13.91 19.58 14.04 19.27 14.04 18.96 14.04 18.81 13.91 18.39 13.38 17.94 12.82 17.26 11.97 15.95 11.97 14.64 11.97 13.96 12.82 13.51 13.38 13.09 13.91 12.94 14.04 12.63 14.04 12.32 14.04 12.17 13.91 11.75 13.38 11.3 12.82 10.62 11.97 9.3 11.97 8.81 11.97 8.4 12.09 8.07 12.27" class="MsftOfcResponsive_Fill_7823dc" fill="#7823DC"/></svg>