<svg viewBox="0 0 32 32" xmlns="http://www.w3.org/2000/svg" xmlns:xlink="http://www.w3.org/1999/xlink" id="Layer_1" xml:space="preserve" overflow="hidden"><path d="M29.8 12 29.8 11.9C29.7 11.3 29.5 10.8 29.3 10.2L29.3 10.1C29.2 9.8 29.1 9.5 29 9.3 26.6 3.8 21.3 0 15.1 0 6.8 0 0 6.9 0 15.5 0 20.9 2.7 25.7 6.9 28.5L8.1 26.9C4.4 24.5 2 20.2 2 15.5 2 8 7.9 2 15.1 2 20.7 2 25.6 5.7 27.4 10.8 27.4 10.9 27.5 11 27.5 11.2 27.6 11.6 27.7 12 27.8 12.4L27.8 12.5C28.4 14.7 29 17.4 29.4 19.3 29.4 19.5 29.5 19.7 29.5 19.8 29.5 19.6 29.6 19.4 29.6 19.3 29.9 18.1 30.1 16.8 30.1 15.5 30.2 14.3 30.1 13.1 29.8 12Z" fill="#7823DC"/><path d="M32 22.3 26.4 22.3 26.4 32 17 32 17 30 24.3 30 24.3 20.3 29.5 20.3C29.5 20.1 29.4 19.9 29.4 19.7 29 17.8 28.3 14.6 27.7 12.2L27.7 12.1C27.6 11.7 27.5 11.3 27.4 10.9 27.4 10.8 27.3 10.6 27.3 10.5 27.2 10.2 27.1 9.8 27 9.6L28.8 8.9 28.8 9.9C28.9 10.2 29 9.5 29.1 9.8L29.1 9.9C29.3 10.4 29.4 11 29.6 11.6L29.6 11.7C30.6 15.5 31.6 20.9 31.7 21.2L32 22.3Z" fill="#7823DC"/><path d="M16.9 23.8 12.4 23.8 11.5 20.8C11.4 20.8 11.3 20.7 11.3 20.7L8.2 21.3 6 17.3 8.1 15C8.1 14.9 8.1 14.8 8.1 14.7L6 12.5 8.2 8.5 11.3 9.1C11.4 9.1 11.5 9 11.5 9L12.5 6 17 6 18 9.1C18.1 9.1 18.2 9.2 18.2 9.2L21.3 8.6 23.5 12.5 21.4 14.9 21.4 15C21.4 15.1 21.4 15.1 21.4 15.2L23.5 17.5 21.3 21.5 18.2 20.9C18.1 20.9 18 21 18 21L16.9 23.8 16.9 23.8 16.9 23.8ZM14 21.8 15.5 21.8 16.3 19.3 16.8 19.1C17.1 19 17.3 18.8 17.4 18.7L17.8 18.4 20.4 19 21.1 17.7 19.5 15.9 19.5 15.4C19.5 15.2 19.5 15 19.5 14.9L19.5 14 21.1 12.2 20.3 11 17.7 11.6 17.3 11.2C17.1 11 16.8 10.9 16.7 10.8L16.2 10.6 15.4 8.1 14 8.1 13.2 10.6 12.8 10.7C12.5 10.8 12.3 11 12.1 11.1L11.7 11.4 9.2 10.8 8.5 12.1 10.2 14 10.1 14.5C10.1 14.8 10.1 15.1 10.1 15.2L10.2 15.7 8.5 17.6 9.2 18.9 11.7 18.3 12.1 18.6C12.3 18.8 12.6 18.9 12.8 19L13.3 19.2 14 21.8 14 21.8 14 21.8Z" fill="#7823DC" fill-rule="evenodd" clip-rule="evenodd"/><path d="M14.7 18C13 18 11.6 16.6 11.6 14.9 11.6 13.1 13 11.8 14.7 11.8 16.4 11.8 17.8 13.2 17.8 14.9 17.8 16.6 16.5 18 14.7 18L14.7 18ZM14.7 13.8C14.2 13.8 13.7 14.3 13.7 14.8 13.7 15.4 14.2 15.8 14.7 15.8 15.2 15.8 15.7 15.3 15.7 14.8 15.7 14.3 15.3 13.8 14.7 13.8L14.7 13.8Z" fill="#7823DC" fill-rule="evenodd" clip-rule="evenodd"/></svg>