<svg viewBox="0 0 32 32" xmlns="http://www.w3.org/2000/svg" xmlns:xlink="http://www.w3.org/1999/xlink" xml:space="preserve" overflow="hidden"><style>
.MsftOfcResponsive_Fill_7823dc {
 fill:#7823DC; 
}
</style>
<g id="Layer_3"></g><g id="Layer_1"></g><g id="Layer_2"></g><g id="Layer_4"></g><g id="Layer_5"><g id="g2791" transform="translate(291.446 114.8)"><path d="M-265.05-82.74C-266.57-82.74-267.99-83.33-269.06-84.4L-274.63-89.97-266.61-97.99-261.04-92.42C-258.83-90.21-258.83-86.61-261.04-84.4-262.11-83.33-263.54-82.74-265.05-82.74ZM-271.81-89.97-267.65-85.81C-266.22-84.38-263.89-84.38-262.46-85.81-261.03-87.24-261.03-89.57-262.46-91L-266.62-95.16-271.81-89.97Z" class="MsftOfcResponsive_Fill_7823dc" fill="#7823DC"/></g><g id="g2795" transform="translate(220.554 114.8)"><path d="M-214.93-82.74C-216.38-82.74-217.83-83.29-218.94-84.4-221.15-86.61-221.15-90.21-218.94-92.42L-213.37-97.99-205.35-89.97-210.92-84.4C-212.03-83.29-213.48-82.74-214.93-82.74ZM-213.37-95.16-217.53-91C-218.96-89.57-218.96-87.24-217.53-85.81-216.84-85.12-215.91-84.73-214.93-84.73L-214.93-84.73C-213.95-84.73-213.03-85.11-212.33-85.81L-208.17-89.97-213.37-95.16Z" class="MsftOfcResponsive_Fill_7823dc" fill="#7823DC"/></g><g id="g2799" transform="translate(256 245.887)"><path d="M-239.99-228.25C-243.71-228.25-246.74-231.28-246.74-235L-246.74-236-245.74-236C-243.06-236-241.09-235.04-239.99-233.26-238.89-235.03-236.92-236-234.24-236L-233.24-236-233.24-235C-233.24-231.28-236.27-228.25-239.99-228.25ZM-235.36-233.92C-237.45-233.63-238.62-232.46-238.92-230.37-237.16-230.78-235.77-232.17-235.36-233.92ZM-244.62-233.92C-244.21-232.16-242.82-230.77-241.07-230.37-241.36-232.46-242.53-233.63-244.62-233.92Z" class="MsftOfcResponsive_Fill_7823dc" fill="#7823DC"/></g><g id="g2803" transform="translate(256 373.355)"><path d="M-239.99-363.68C-243.71-363.68-246.74-366.71-246.74-370.43L-246.74-371.43-245.74-371.43C-243.06-371.43-241.09-370.47-239.99-368.69-238.89-370.46-236.92-371.43-234.24-371.43L-233.24-371.43-233.24-370.43C-233.24-366.71-236.27-363.68-239.99-363.68ZM-235.36-369.36C-237.45-369.07-238.62-367.9-238.92-365.81-237.16-366.21-235.77-367.6-235.36-369.36ZM-244.62-369.36C-244.21-367.6-242.82-366.21-241.07-365.81-241.36-367.89-242.53-369.06-244.62-369.36Z" class="MsftOfcResponsive_Fill_7823dc" fill="#7823DC"/></g><g id="g2807" transform="translate(256 179.296)"><rect x="-240.99" y="-171.62" width="2" height="14.12" class="MsftOfcResponsive_Fill_7823dc" fill="#7823DC"/></g><g id="g2811" transform="translate(227.106 446.753)"><path d="M-212.9-441.66C-212.95-441.66-213.01-441.66-213.06-441.67-213.6-441.76-213.98-442.27-213.89-442.82-213.68-444.14-213.03-445.28-211.81-446.51L-211.1-447.22-210.39-446.51C-209.13-445.25-208.49-444.17-208.25-442.89-208.15-442.35-208.5-441.82-209.05-441.72-209.59-441.62-210.12-441.97-210.22-442.52-210.34-443.14-210.6-443.69-211.1-444.31-211.56-443.71-211.82-443.14-211.92-442.51-212-442.01-212.42-441.66-212.9-441.66Z" class="MsftOfcResponsive_Fill_7823dc" fill="#7823DC"/></g></g></svg>