<svg viewBox="0 0 32 32" xmlns="http://www.w3.org/2000/svg" xmlns:xlink="http://www.w3.org/1999/xlink" id="Layer_1" overflow="hidden"><style>
.MsftOfcResponsive_Fill_7823dc {
 fill:#7823DC; 
}
</style>
<defs></defs><rect x="27.17" y="19.84" width="2" height="12.14" class="MsftOfcResponsive_Fill_7823dc" fill="#7823DC"/><path d="M30.59 23.24 28.17 20.83 25.76 23.24 24.34 21.83 28.17 18 32 21.83 30.59 23.24Z" class="MsftOfcResponsive_Fill_7823dc" fill="#7823DC"/><rect x="2.83" y="3.9" width="2" height="12.09" class="MsftOfcResponsive_Fill_7823dc" fill="#7823DC"/><path d="M6.24 7.24 3.83 4.83 1.41 7.24 0 5.83 3.83 2 7.66 5.83 6.24 7.24Z" class="MsftOfcResponsive_Fill_7823dc" fill="#7823DC"/><path d="M20 0 20 4 12 4 12 0 10 0 10 32 12 32 12 30 20 30 20 32 22 32 22 0 20 0ZM20 6 20 10 12 10 12 6 20 6ZM12 16 12 12 20 12 20 16 12 16ZM20 18 20 22 12 22 12 18 20 18ZM12 28 12 24 20 24 20 28 12 28Z" class="MsftOfcResponsive_Fill_7823dc" fill="#7823DC"/></svg>