<svg viewBox="0 0 32 32" xmlns="http://www.w3.org/2000/svg" xmlns:xlink="http://www.w3.org/1999/xlink" xml:space="preserve" overflow="hidden"><style>
.MsftOfcResponsive_Fill_7823dc {
 fill:#7823DC; 
}
</style>
<g id="Layer_3"></g><g id="Layer_1"></g><g id="Layer_2"></g><g id="Layer_4"></g><g id="Layer_5"><path d="M14.94 32.02C14.93 31.41 14.43 17.2 0.46 16.91 0.16 16.91-0.02 16.9-0.03 16.9L0.04 14.9C0.27 14.9 0.5 14.9 0.72 14.91 3.3 14.85 12.96 13.71 15.02-0.06L17 0.01C17.06 0.61 18.57 14.81 32.01 14.91L32.07 16.91C31.44 16.95 16.94 18.04 16.94 32L14.94 32.02ZM6.01 15.81C11.8 17.74 14.53 22.41 15.81 26.24 17.79 20.28 22.74 17.44 26.64 16.09 20.26 14.03 17.33 8.5 16.02 4.55 13.87 11.37 9.61 14.44 6.01 15.81Z" class="MsftOfcResponsive_Fill_7823dc" fill="#7823DC"/></g></svg>