<svg viewBox="0 0 32 32" xmlns="http://www.w3.org/2000/svg" xmlns:xlink="http://www.w3.org/1999/xlink" id="Graphic" overflow="hidden"><path d="M16 14.1C16.5 14.1 17 14.5 17 15.1 17 15.6 16.6 16.1 16 16.1 15.5 16.1 15 15.7 15 15.1 15.1 14.5 15.5 14.1 16 14.1M16 12C14.3 12 13 13.3 13 15 13 16.7 14.3 18 16 18 17.7 18 19 16.7 19 15 19 13.4 17.7 12 16 12L16 12 16 12 16 12Z" fill="#7823DC" fill-rule="evenodd" clip-rule="evenodd"/><path d="M31.3 4C31.3 2.3 30 1 28.3 1 26.6 1 25.3 2.3 25.3 4 25.3 5.7 26.6 7 28.3 7 29.9 7 31.3 5.7 31.3 4L31.3 4 31.3 4 31.3 4ZM28.3 5.1C27.8 5.1 27.3 4.7 27.3 4.1 27.3 3.6 27.7 3.1 28.3 3.1 28.8 3.1 29.3 3.5 29.3 4.1 29.2 4.5 28.8 5.1 28.3 5.1L28.3 5.1 28.3 5.1 28.3 5.1Z" fill="#7823DC" fill-rule="evenodd" clip-rule="evenodd"/><g><path d="M25.5 10.2 21.8 21 21.8 15.2 24.1 8 27.8 8 24.9 32 22.9 32 25.5 10.2 25.5 10.2 25.5 10.2Z" fill="#7823DC" fill-rule="evenodd" clip-rule="evenodd"/><path d="M31.1 10.2 34.8 21.8 34.8 15.2 32.5 8 28.8 8 31.7 32 33.7 32 31.1 10.2 31.1 10.2 31.1 10.2Z" fill="#7823DC" fill-rule="evenodd" clip-rule="evenodd"/></g><path d="M6.7 4C6.7 2.3 5.4 1 3.7 1 2 1 0.7 2.3 0.7 4 0.7 5.7 2 7 3.7 7 5.4 7 6.7 5.7 6.7 4L6.7 4 6.7 4 6.7 4ZM3.7 5.1C3.2 5.1 2.7 4.7 2.7 4.1 2.7 3.6 3.1 3.1 3.7 3.1 4.2 3.1 4.7 3.5 4.7 4.1 4.7 4.5 4.3 5.1 3.7 5.1L3.7 5.1 3.7 5.1 3.7 5.1Z" fill="#7823DC" fill-rule="evenodd" clip-rule="evenodd"/><g><path d="M0.9 10.2-2.7 21-2.7 15.2-0.5 8 3.2 8 0.3 32-1.7 32 0.9 10.2 0.9 10.2 0.9 10.2Z" fill="#7823DC" fill-rule="evenodd" clip-rule="evenodd"/><path d="M6.5 10.2 10.2 20.8 10.2 15.2 7.9 8 4.3 8 7.1 32 9.2 32 6.5 10.2 6.5 10.2 6.5 10.2Z" fill="#7823DC" fill-rule="evenodd" clip-rule="evenodd"/></g><g><path d="M20 46.1 16.7 19 21.9 19 21.9 21 19 21 22 45.9Z" fill="#7823DC"/><path d="M12 46.1 10 45.9 13 21 10.1 21 10.1 19 15.3 19Z" fill="#7823DC"/></g></svg>