<svg viewBox="0 0 32 32" xmlns="http://www.w3.org/2000/svg" xmlns:xlink="http://www.w3.org/1999/xlink" id="Layer_1" overflow="hidden"><path d="M17.1 2C19.2 2 21 3.8 21 5.9L21 17.1C21 19.3 19.2 21 17.1 21L14.9 21C12.7 21 11 19.2 11 17.1L11 5.9C11 3.8 12.8 2 14.9 2L17.1 2M17.1 0 14.9 0C11.6 0 9 2.6 9 5.9L9 17.1C9 20.4 11.6 23 14.9 23L17.1 23C20.4 23 23 20.4 23 17.1L23 5.9C23 2.6 20.4 0 17.1 0L17.1 0Z" fill="#7823DC"/><path d="M6.6 8.1C8 8.1 9.1 9.2 9.1 10.6L9.1 18.5C9.1 19.9 8 21 6.6 21L4.5 21C3.1 21 2 19.8 2 18.5L2 10.6C2 9.2 3.1 8.1 4.5 8.1L6.6 8.1M6.6 6.1 4.5 6.1C2 6.1 0 8.1 0 10.6L0 18.5C0 21 2 23 4.5 23L6.6 23C9.1 23 11.1 21 11.1 18.5L11.1 10.6C11.1 8.1 9.1 6.1 6.6 6.1L6.6 6.1Z" fill="#7823DC"/><path d="M27.5 8.2C28.9 8.2 30 9.3 30 10.7L30 18.6C30 20 28.9 21.1 27.5 21.1L25.5 21.1C24.1 21.1 23 20 23 18.6L23 10.7C23 9.3 24.1 8.2 25.5 8.2L27.5 8.2M27.5 6.2 25.5 6.2C23 6.2 21 8.2 21 10.7L21 18.6C21 21.1 23 23.1 25.5 23.1L27.5 23.1C30 23.1 32 21.1 32 18.6L32 10.7C32 8.2 30 6.2 27.5 6.2L27.5 6.2Z" fill="#7823DC"/><rect x="15" y="4" width="2" height="28" fill="#7823DC"/><rect x="25.5" y="14" width="2" height="18" fill="#7823DC"/><rect x="4.5" y="18" width="2" height="14" fill="#7823DC"/><rect x="0" y="30" width="32" height="2" fill="#7823DC"/><rect x="13" y="5.8" width="2" height="4.5" fill="#7823DC" transform="matrix(0.4472 -0.8944 0.8944 0.4472 0.5836 16.9443)"/><rect x="14.1" y="12" width="6.7" height="2" fill="#7823DC" transform="matrix(0.4472 -0.8944 0.8944 0.4472 -1.9538 22.8387)"/><rect x="9.8" y="26" width="2" height="5" fill="#7823DC"/><rect x="20.2" y="26" width="2" height="5" fill="#7823DC"/></svg>