<svg viewBox="0 0 32 32" xmlns="http://www.w3.org/2000/svg" xmlns:xlink="http://www.w3.org/1999/xlink" id="Layer_5" overflow="hidden"><defs></defs><path d="M7.27 8.45C9.59 6.11 12.69 4.82 16 4.82 19.27 4.79 22.41 6.09 24.74 8.41L25.01 8.67 26.44 7.24 26.17 6.98C20.55 1.39 11.43 1.41 5.84 7.03L5.58 7.3 7.01 8.73 7.27 8.46Z" stroke-width="0" fill="#7823DC"/><path d="M22.31 11.38 23.74 9.95 23.47 9.69C19.35 5.58 12.65 5.6 8.54 9.73L8.28 10 9.71 11.43 9.97 11.16C11.57 9.55 13.72 8.66 16 8.65L16.02 8.65C18.29 8.65 20.43 9.53 22.04 11.13L22.31 11.39Z" stroke-width="0" fill="#7823DC"/><path d="M16.01 10.43C14.21 10.43 12.52 11.14 11.25 12.41L10.99 12.68 12.42 14.11 12.68 13.84C14.51 12 17.5 11.99 19.34 13.82L19.61 14.08 21.04 12.65 20.77 12.39C19.5 11.13 17.81 10.43 16.02 10.43L16 10.43Z" stroke-width="0" fill="#7823DC"/><path d="M32 18 24.94 18 31.97 0.77 30.12 0.01 22.78 18 9.21 18 1.87 0 0.02 0.76 7.06 18 0 18 0 30 4 30 4 32 6 32 6 30 26 30 26 32 28 32 28 30 32 30 32 18ZM30 28 2 28 2 20 30 20 30 28Z" stroke-width="0" fill="#7823DC"/><rect x="4" y="22" width="2" height="4" stroke-width="0" fill="#7823DC"/><rect x="8" y="22" width="2" height="4" stroke-width="0" fill="#7823DC"/><rect x="12" y="22" width="2" height="4" stroke-width="0" fill="#7823DC"/></svg>