<svg width="32" height="32" viewBox="0 0 32 32" xmlns="http://www.w3.org/2000/svg" xmlns:xlink="http://www.w3.org/1999/xlink" overflow="hidden"><style>
.MsftOfcResponsive_Fill_7823dc {
 fill:#7823DC; 
}
</style>
<defs></defs><g><g><g><path d="M29.4 18.1 20.8 20.81 20.8 19.59 20.8 17.35 18.58 17.6 15.31 17.97 10.15 16.13 9.31 15.83 8.53 16.25 5.3 17.98 2 17.98 0 17.98 0 19.98 0 26.01 0 28.01 2 28.01 5.32 28.01 15.16 32 30.94 23.77 32 23.21 32 22.01 32 20.01 32 17.28 29.4 18.1ZM30 22.01 15.07 29.78 5.74 26.01 2 26.01 2 19.98 5.79 19.98 9.46 18.01 15.06 20.01 18.79 19.59 18.79 21.59 17.71 21.94 13.95 22.7 13.95 24.56 17.9 23.83 17.9 23.82 30 20.01 30 22.01Z" class="MsftOfcResponsive_Fill_7823dc" fill="#7823DC"/></g></g></g><g><path d="M22.23 2C23.96 2 24.96 2.44 26.31 3.31 27.06 3.79 28.17 4.76 29.11 5.63 28.17 6.5 27.06 7.47 26.31 7.95 24.96 8.82 23.96 9.26 22.23 9.26 22.15 9.26 22.07 9.26 21.99 9.26 21.4 9.24 18.57 9 17.18 5.63 18.57 2.26 21.4 2.02 21.98 2 22.07 2 22.15 2 22.23 2M22.23 0C22.14 0 22.04 0 21.94 0 19.89 0.05 16.46 1.28 15.05 5.62 16.46 9.96 19.89 11.2 21.94 11.24 22.04 11.24 22.13 11.24 22.23 11.24 24.4 11.24 25.76 10.66 27.39 9.61 29.09 8.51 32 5.61 32 5.61 32 5.61 29.1 2.71 27.39 1.61 25.76 0.58 24.4 0 22.23 0L22.23 0Z" class="MsftOfcResponsive_Fill_7823dc" fill="#7823DC"/></g><g><path d="M11.55 5.3 11.55 5.3 11.73 5.3C12.12 5.31 13.97 5.47 14.96 7.65 13.97 9.83 12.12 9.99 11.73 10L11.55 10C10.32 10 9.63 9.7 8.64 9.06 8.2 8.78 7.55 8.23 6.91 7.65 7.55 7.08 8.2 6.53 8.64 6.24 9.63 5.61 10.32 5.3 11.55 5.3M11.55 3.3C9.88 3.3 8.82 3.75 7.56 4.56 6.24 5.41 4 7.65 4 7.65 4 7.65 6.24 9.89 7.56 10.74 8.82 11.55 9.87 12 11.55 12 11.62 12 11.7 12 11.77 12 13.35 11.96 16 11.01 17.09 7.65 16 4.29 13.35 3.34 11.77 3.3 11.7 3.3 11.62 3.3 11.55 3.3L11.55 3.3Z" class="MsftOfcResponsive_Fill_7823dc" fill="#7823DC"/></g><g><rect x="15.04" y="5.97" width="2" height="12.35" class="MsftOfcResponsive_Fill_7823dc" fill="#7823DC"/></g></svg>