<svg viewBox="0 0 32 32" xmlns="http://www.w3.org/2000/svg" xmlns:xlink="http://www.w3.org/1999/xlink" id="Layer_1" overflow="hidden"><style>
.MsftOfcResponsive_Fill_7823dc {
 fill:#7823DC; 
}
</style>
<path d="M10.81 32 2.73 32C1.25 32 0 30.75 0 29.27 0 27.79 1.25 26.54 2.73 26.54L10.81 26.54C12.29 26.54 13.54 27.79 13.54 29.27 13.54 30.75 12.29 32 10.81 32ZM2.73 28.54C2.36 28.54 2 28.9 2 29.27 2 29.64 2.36 30 2.73 30L10.81 30C11.18 30 11.54 29.64 11.54 29.27 11.54 28.9 11.18 28.54 10.81 28.54L2.73 28.54Z" class="MsftOfcResponsive_Fill_7823dc" fill="#7823DC"/><path d="M16 22.77C14.18 22.77 12.69 21.29 12.69 19.46 12.69 17.63 14.17 16.15 16 16.15 17.83 16.15 19.31 17.63 19.31 19.46 19.31 21.29 17.83 22.77 16 22.77ZM16 18.15C15.28 18.15 14.69 18.74 14.69 19.46 14.69 20.18 15.28 20.77 16 20.77 16.72 20.77 17.31 20.18 17.31 19.46 17.31 18.74 16.72 18.15 16 18.15Z" class="MsftOfcResponsive_Fill_7823dc" fill="#7823DC"/><path d="M9.5 5.46 0 5.46 0 0 9.5 0 9.5 5.46ZM2 3.46 7.5 3.46 7.5 2 2 2 2 3.46Z" class="MsftOfcResponsive_Fill_7823dc" fill="#7823DC"/><path d="M17 5.46 7.5 5.46 7.5 0 17 0 17 5.46ZM9.5 3.46 15 3.46 15 2 9.5 2 9.5 3.46Z" class="MsftOfcResponsive_Fill_7823dc" fill="#7823DC"/><path d="M24.5 5.46 15 5.46 15 0 24.5 0 24.5 5.46ZM17 3.46 22.5 3.46 22.5 2 17 2 17 3.46Z" class="MsftOfcResponsive_Fill_7823dc" fill="#7823DC"/><path d="M32 5.46 22.5 5.46 22.5 0 32 0 32 5.46ZM24.5 3.46 30 3.46 30 2 24.5 2 24.5 3.46Z" class="MsftOfcResponsive_Fill_7823dc" fill="#7823DC"/><path d="M9.5 8.92 0 8.92 0 3.46 9.5 3.46 9.5 8.92ZM2 6.92 7.5 6.92 7.5 5.46 2 5.46 2 6.92Z" class="MsftOfcResponsive_Fill_7823dc" fill="#7823DC"/><path d="M17 8.92 7.5 8.92 7.5 3.46 17 3.46 17 8.92ZM9.5 6.92 15 6.92 15 5.46 9.5 5.46 9.5 6.92Z" class="MsftOfcResponsive_Fill_7823dc" fill="#7823DC"/><path d="M24.5 8.92 15 8.92 15 3.46 24.5 3.46 24.5 8.92ZM17 6.92 22.5 6.92 22.5 5.46 17 5.46 17 6.92Z" class="MsftOfcResponsive_Fill_7823dc" fill="#7823DC"/><path d="M32 8.92 22.5 8.92 22.5 3.46 32 3.46 32 8.92ZM24.5 6.92 30 6.92 30 5.46 24.5 5.46 24.5 6.92Z" class="MsftOfcResponsive_Fill_7823dc" fill="#7823DC"/><path d="M32 12.38 22.5 12.38 22.5 6.92 32 6.92 32 12.38ZM24.5 10.38 30 10.38 30 8.92 24.5 8.92 24.5 10.38Z" class="MsftOfcResponsive_Fill_7823dc" fill="#7823DC"/><path d="M32 15.85 22.5 15.85 22.5 10.39 32 10.39 32 15.85ZM24.5 13.85 30 13.85 30 12.39 24.5 12.39 24.5 13.85Z" class="MsftOfcResponsive_Fill_7823dc" fill="#7823DC"/><path d="M17 12.38 7.5 12.38 7.5 6.92 17 6.92 17 12.38ZM9.5 10.38 15 10.38 15 8.92 9.5 8.92 9.5 10.38Z" class="MsftOfcResponsive_Fill_7823dc" fill="#7823DC"/></svg>