<svg viewBox="0 0 32 32" xmlns="http://www.w3.org/2000/svg" xmlns:xlink="http://www.w3.org/1999/xlink" id="Layer_1" xml:space="preserve" overflow="hidden"><rect x="16.1" y="14.9" width="10.1" height="2" fill="#7823DC" transform="matrix(0.6711 -0.7414 0.7414 0.6711 -4.8218 20.9406)"/><g><path d="M8.9 0.1C8.6 0 8.2 0 7.9 0 7.6 0 7.2 0 6.9 0.1 5.8 0.2 4.8 0.6 3.9 1.2L5.3 2.7C6.1 2.3 7 2 7.9 2 11.2 2 13.8 4.7 13.8 8.1 13.8 8.2 13.8 8.3 13.8 8.5 14.5 8.4 15.1 8.3 15.8 8.3L15.8 8.1C15.8 3.9 12.8 0.5 8.9 0.1ZM2 8.1C2 7.2 2.2 6.4 2.5 5.7L1.1 4.1C0.4 5.2 0 6.6 0 8.1 0 11.5 2.1 14.4 5 15.6 5.3 15 5.6 14.4 5.9 13.8 3.6 12.9 2 10.7 2 8.1Z" fill="#7823DC"/><rect x="2.8" y="0.2" width="2" height="7.5" fill="#7823DC" transform="matrix(0.7258 -0.6879 0.6879 0.7258 -1.6685 3.6729)"/><path d="M7.9 10.6C6.3 10.6 5.1 9.3 5.1 7.8 5.1 6.2 6.4 5 7.9 5 9.4 5 10.7 6.3 10.7 7.8 10.7 9.3 9.5 10.6 7.9 10.6ZM7.9 7C7.5 7 7.1 7.4 7.1 7.8 7.1 8.2 7.5 8.6 7.9 8.6 8.3 8.6 8.7 8.2 8.7 7.8 8.7 7.4 8.4 7 7.9 7Z" fill="#7823DC"/></g><g><path d="M23 0C23.4 0 23.7 0 24 0 24.3 0 24.7 0 25 0.1 26.1 0.2 27.2 0.6 28.1 1.2L26.7 2.7C25.9 2.2 25 2 24 2 20.7 2 18.1 4.7 18.1 8.1 18.1 8.2 18.1 8.3 18.1 8.5 17.4 8.4 16.8 8.3 16.1 8.3L16.1 8.1C16.1 4 19.1 0.5 23 0ZM29.9 8.1C29.9 7.2 29.7 6.4 29.4 5.6L30.9 4C31.6 5.2 32 6.6 32 8.1 32 11.5 29.9 14.5 27 15.7 26.7 15.1 26.4 14.5 26.1 13.9 28.3 13 29.9 10.8 29.9 8.1Z" fill="#7823DC"/><rect x="24.4" y="3" width="7.5" height="2" fill="#7823DC" transform="matrix(0.6857 -0.7278 0.7278 0.6857 5.9347 21.7629)"/><path d="M24 10.7C22.4 10.7 21.2 9.4 21.2 7.9 21.2 6.4 22.5 5 24 5 25.6 5 26.8 6.3 26.8 7.8 26.8 9.3 25.6 10.7 24 10.7ZM24 7C23.6 7 23.2 7.4 23.2 7.8 23.2 8.2 23.6 8.6 24 8.6 24.4 8.6 24.8 8.2 24.8 7.8 24.8 7.4 24.5 7 24 7Z" fill="#7823DC"/></g><g><path d="M24.8 14.9 23.4 16.4C24.3 17.8 24.8 19.4 24.8 21.1 24.8 26 20.8 29.9 16 29.9 11.1 29.9 7.2 25.9 7.2 21.1 7.2 16.3 11.1 12.3 16 12.3 17.7 12.3 19.3 12.8 20.6 13.6L22 12.1C20.3 10.9 18.2 10.3 16 10.3 10 10.3 5.2 15.1 5.2 21.1 5.2 27.1 10 31.9 16 31.9 22 31.9 26.8 27.1 26.8 21.1 26.8 18.8 26.1 16.7 24.8 14.9Z" fill="#7823DC"/><rect x="15" y="13.5" width="2" height="3.5" fill="#7823DC"/><rect x="8.5" y="20.1" width="3.5" height="2" fill="#7823DC"/><rect x="19.9" y="20.1" width="3.5" height="2" fill="#7823DC"/><path d="M16 24C14.5 24 13.2 22.7 13.2 21.2 13.2 19.7 14.5 18.4 16 18.4 17.5 18.4 18.8 19.7 18.8 21.2 18.8 22.7 17.5 24 16 24ZM16 20.4C15.6 20.4 15.2 20.8 15.2 21.2 15.2 21.6 15.5 22 16 22 16.5 22 16.8 21.6 16.8 21.2 16.8 20.8 16.4 20.4 16 20.4Z" fill="#7823DC"/><path d="M20 31.1 12.2 31.1 13.8 25.7 18.4 25.7 20 31.1ZM14.8 29.1 17.3 29.1 16.9 27.7 15.2 27.7 14.8 29.1Z" fill="#7823DC"/></g></svg>