<svg viewBox="0 0 32 32" xmlns="http://www.w3.org/2000/svg" xmlns:xlink="http://www.w3.org/1999/xlink" id="Layer_1" overflow="hidden"><style>
.MsftOfcResponsive_Fill_7823dc {
 fill:#7823DC; 
}
</style>
<defs></defs><path d="M11.34 22.69C5.09 22.69 0 17.6 0 11.35 0 5.1 5.09 0 11.34 0 17.59 0 22.68 5.09 22.68 11.35 22.68 17.61 17.59 22.69 11.34 22.69ZM11.34 2C6.19 2 2 6.19 2 11.35 2 16.51 6.19 20.69 11.34 20.69 16.49 20.69 20.68 16.5 20.68 11.35 20.68 6.2 16.5 2 11.34 2Z" class="MsftOfcResponsive_Fill_7823dc" fill="#7823DC"/><path d="M11.34 15.45C9.08 15.45 7.24 13.61 7.24 11.35 7.24 9.09 9.08 7.25 11.34 7.25 13.6 7.25 15.44 9.09 15.44 11.35 15.44 13.61 13.6 15.45 11.34 15.45ZM11.34 9.24C10.18 9.24 9.24 10.18 9.24 11.34 9.24 12.5 10.18 13.44 11.34 13.44 12.5 13.44 13.44 12.5 13.44 11.34 13.44 10.18 12.5 9.24 11.34 9.24Z" class="MsftOfcResponsive_Fill_7823dc" fill="#7823DC"/><path d="M28.93 14.41C27.24 14.41 25.86 13.03 25.86 11.34 25.86 9.65 27.24 8.27 28.93 8.27 30.62 8.27 32 9.65 32 11.34 32 13.03 30.62 14.41 28.93 14.41ZM28.93 10.27C28.34 10.27 27.86 10.75 27.86 11.34 27.86 11.93 28.34 12.41 28.93 12.41 29.52 12.41 30 11.93 30 11.34 30 10.75 29.52 10.27 28.93 10.27Z" class="MsftOfcResponsive_Fill_7823dc" fill="#7823DC"/><path d="M16.67 8.2C16.08 7.11 15.04 6.2 13.74 5.65L14.53 3.81C16.24 4.55 17.63 5.77 18.43 7.26L16.67 8.21Z" class="MsftOfcResponsive_Fill_7823dc" fill="#7823DC"/><path d="M18.55 32 4.14 32 4.14 19.5 6.14 19.5 6.14 30 16.55 30 16.55 19.5 18.55 19.5 18.55 32Z" class="MsftOfcResponsive_Fill_7823dc" fill="#7823DC"/><rect x="9.28" y="23.79" width="4.14" height="2" class="MsftOfcResponsive_Fill_7823dc" fill="#7823DC"/><rect x="9.28" y="26.9" width="4.14" height="2" class="MsftOfcResponsive_Fill_7823dc" fill="#7823DC"/><path d="M19.62 28.9 19.62 26.9C24.2 26.9 27.93 23.17 27.93 18.59L27.93 13.42 29.93 13.42 29.93 18.59C29.93 24.28 25.3 28.9 19.62 28.9Z" class="MsftOfcResponsive_Fill_7823dc" fill="#7823DC"/><rect x="18.31" y="26.9" width="1.32" height="2" class="MsftOfcResponsive_Fill_7823dc" fill="#7823DC"/></svg>