<svg viewBox="0 0 32 32" xmlns="http://www.w3.org/2000/svg" xmlns:xlink="http://www.w3.org/1999/xlink" id="Graphic" xml:space="preserve" overflow="hidden"><style>
.MsftOfcThm_Text2_Fill_v2 {
 fill:#7823DC; 
}
</style>
<path d="M27 10.1C26.7 9.6 26.5 9.1 26.1 8.6L27.8 7.5C28.2 8.1 28.5 8.6 28.8 9.2L27 10.1ZM25.1 7.3C24.7 6.9 24.3 6.5 23.9 6.1L25.2 4.6C25.7 5 26.2 5.5 26.6 6L25.1 7.3ZM22.5 5C22 4.7 21.5 4.4 21 4.1L21.9 2.3C22.5 2.6 23.1 2.9 23.6 3.3L22.5 5ZM19.4 3.5C18.9 3.3 18.3 3.2 17.7 3.1L18.1 1.1C18.7 1.2 19.4 1.4 20 1.6L19.4 3.5Z" class="MsftOfcThm_Text2_Fill_v2" fill="#7823DC"/><path d="M16 2.8C15.7 2.8 15.4 2.8 15.1 2.8L15.1 0.8C15.4 0.8 15.8 0.8 16.1 0.8L16 2.8Z" class="MsftOfcThm_Text2_Fill_v2" fill="#7823DC"/><path d="M15.3 31.2C6.9 31.2 0 24.4 0 16 0 7.6 6.8 0.8 15.2 0.8L16.2 0.8 16.2 2.8 15.2 2.8C8 2.8 2 8.7 2 16 2 23.3 7.9 29.2 15.2 29.2 22.5 29.2 28.5 23.3 28.5 16L28.5 15 30.5 15 30.5 16C30.5 24.4 23.7 31.2 15.3 31.2Z" class="MsftOfcThm_Text2_Fill_v2" fill="#7823DC"/><path d="M17.5 14.9 21.1 11.2 18.1 11.2 14.4 14.9 21.4 21.9 24.5 21.9Z" class="MsftOfcThm_Text2_Fill_v2" fill="#7823DC"/><path d="M29.5 14.3C28.2 13.6 26 12.6 24.7 11.9L25.5 10.1C26.3 10.4 27.6 11.2 28.5 11.5 29 10.8 29.6 9.4 30 8.5L31.9 9.4C31.2 10.7 30.1 12.9 29.5 14.3L29.5 14.3Z" class="MsftOfcThm_Text2_Fill_v2" fill="#7823DC" fill-rule="evenodd" clip-rule="evenodd"/></svg>