<svg viewBox="0 0 32 32" xmlns="http://www.w3.org/2000/svg" xmlns:xlink="http://www.w3.org/1999/xlink" xml:space="preserve" overflow="hidden"><style>
.MsftOfcResponsive_Fill_7823dc {
 fill:#7823DC; 
}
</style>
<g id="Layer_3"></g><g id="Layer_1"></g><g id="Layer_2"></g><g id="Layer_4"></g><g id="Layer_5"><path d="M18.77 10.79 12.9 10.79 8.51 3.98 12.46 0.05 19.26 0.05 23.46 3.98 18.77 10.79ZM13.99 8.79 17.73 8.79 20.85 4.26 18.48 2.05 13.29 2.05 11.07 4.26 13.99 8.79Z" class="MsftOfcResponsive_Fill_7823dc" fill="#7823DC"/><rect x="9.79" y="3.12" width="12.29" height="2" class="MsftOfcResponsive_Fill_7823dc" fill="#7823DC"/><path d="M20.04 14.33 11.71 14.33 11.71 8.79 20.04 8.79 20.04 14.33ZM13.72 12.33 18.05 12.33 18.05 10.79 13.72 10.79 13.72 12.33Z" class="MsftOfcResponsive_Fill_7823dc" fill="#7823DC"/><path d="M19.72 31.95 11.89 31.95C9.72 31.95 8.67 29.96 8.38 28.78L5.66 20.96C4.73 18.27 5.84 15.49 8.62 13.53 10.63 12.11 12.74 12.33 12.82 12.34L12.59 14.33C12.59 14.33 11.13 14.2 9.77 15.16 8.57 16.01 6.68 17.81 7.54 20.31L10.29 28.22C10.32 28.33 10.74 29.95 11.88 29.95L19.71 29.95C20.84 29.95 21.27 28.32 21.27 28.31L24.04 20.31C24.9 17.81 23.01 16.02 21.81 15.16 20.44 14.19 19 14.33 18.99 14.33L18.76 12.34C18.85 12.33 20.96 12.11 22.96 13.53 25.74 15.5 26.85 18.28 25.92 20.96L23.17 28.88C22.94 29.96 21.88 31.95 19.72 31.95Z" class="MsftOfcResponsive_Fill_7823dc" fill="#7823DC"/></g></svg>