<svg viewBox="0 0 32 32" xmlns="http://www.w3.org/2000/svg" xmlns:xlink="http://www.w3.org/1999/xlink" id="Graphic" overflow="hidden"><defs></defs><path d="M30 2 30 30 2 30 2 2 30 2M28 0 0 0 0 32 32 32 32 4Z" fill="#7823DC"/><rect x="1.5" y="7.98" width="29.5" height="2.05" fill="#7823DC"/><rect x="4" y="4" width="2" height="2" fill="#7823DC"/><rect x="8" y="4" width="2" height="2" fill="#7823DC"/><rect x="12" y="4" width="2" height="2" fill="#7823DC"/><rect x="16" y="4" width="12" height="2" fill="#7823DC"/><rect x="16" y="12" width="12" height="2" fill="#7823DC"/><rect x="16" y="16" width="12" height="2" fill="#7823DC"/><rect x="16" y="20" width="12" height="2" fill="#7823DC"/><rect x="16" y="24" width="12" height="2" fill="#7823DC"/><path d="M12 14 12 20 6 20 6 14 12 14M14 12 4 12 4 22 14 22 14 12Z" fill="#7823DC"/></svg>