<svg viewBox="0 0 32 32" xmlns="http://www.w3.org/2000/svg" xmlns:xlink="http://www.w3.org/1999/xlink" id="Layer_5" overflow="hidden"><defs></defs><path d="M29.69 26.09 27.59 6.55 21.15 0 10.85 0 4.41 6.55 2.31 26.09C0.99 26.4 0 27.59 0 29 0 30.65 1.35 32 3 32L29 32C30.65 32 32 30.65 32 29 32 27.59 31.01 26.4 29.69 26.09ZM6.32 7.45 11.69 2 20.31 2 25.68 7.45 27.67 26 4.33 26 6.32 7.45ZM29 30 3 30C2.45 30 2 29.55 2 29 2 28.45 2.45 28 3 28L29 28C29.55 28 30 28.45 30 29 30 29.55 29.55 30 29 30Z" fill="#7823DC"/><path d="M11.4 21.3C12.26 21.96 13.3 22.29 14.43 22.29 15 22.29 15.6 22.2 16.21 22.03 17.91 21.54 19.5 20.41 20.7 18.84 23.24 15.51 23.2 11.2 20.61 9.22 18.02 7.25 13.85 8.35 11.31 11.68 10.11 13.25 9.44 15.09 9.42 16.85 9.4 18.73 10.1 20.3 11.4 21.29ZM19.11 17.63C18.17 18.86 16.95 19.74 15.66 20.11 14.79 20.36 13.98 20.34 13.3 20.08 13.5 19.14 14.31 16.41 16.88 15.58 18.99 14.9 20 13.59 20.41 12.32 20.88 13.83 20.45 15.87 19.12 17.62ZM12.91 12.9C14.21 11.2 16.01 10.23 17.56 10.23 17.93 10.23 18.28 10.29 18.62 10.4 18.69 10.83 18.87 12.84 16.27 13.68 13.55 14.56 12.28 16.84 11.7 18.45 11.52 17.99 11.42 17.46 11.43 16.88 11.45 15.54 11.97 14.13 12.91 12.9Z" fill="#7823DC"/></svg>