<svg viewBox="0 0 32 32" xmlns="http://www.w3.org/2000/svg" xmlns:xlink="http://www.w3.org/1999/xlink" id="Graphic" overflow="hidden"><defs></defs><path d="M25.67 22.12C25.67 17.24 22.75 15.77 17 14.73L17 4.1C20.25 4.42 22.18 6.1 22.84 9.1L24.89 9.1C24.07 4.1 20.38 2.65 17 2.39L17 0 15 0 15 2.33C11 2.61 7.19 5 7.19 9.26 7.19 13.26 9.12 15.06 15 16.26L15 27.88C10.32 27.38 8.79 24.39 8.39 21.74L6.33 21.74C6.78 26.31 10 29.18 15 29.63L15 32 17 32 17 29.68C22.36 29.49 25.67 26.63 25.67 22.12ZM9.13 9.16C9.13 6.29 11.46 4.31 15 4.06L15 14.34C11 13.47 9.13 12.27 9.13 9.16ZM17 28 17 16.67C21.48 17.57 23.62 18.74 23.62 22.33 23.62 25.76 21.22 27.78 17 28Z" fill="#7823DC"/></svg>