<svg viewBox="0 0 32 32" xmlns="http://www.w3.org/2000/svg" xmlns:xlink="http://www.w3.org/1999/xlink" id="Layer_5" overflow="hidden"><defs></defs><path d="M31.16 20C30.76 18.67 30.18 17.32 29.47 15.97 30.18 14.62 30.76 13.27 31.16 11.94 31.98 9.23 32.05 6.82 31.42 4.87 31.81 4.36 32.05 3.73 32.05 3.03 32.05 1.36 30.68-0.01 29-0.01 28.34-0.01 27.73 0.21 27.23 0.56 25.24-0.14 22.76-0.1 19.96 0.75 18.63 1.15 17.28 1.73 15.93 2.44 14.58 1.73 13.23 1.15 11.9 0.75 9.15-0.09 6.7-0.14 4.73 0.53 4.23 0.19 3.64-0.01 3-0.01 1.32-0.01-0.05 1.36-0.05 3.04-0.05 3.68 0.15 4.27 0.49 4.76-0.54 7.77 0.17 11.8 2.38 15.97 0.15 20.18-0.55 24.25 0.52 27.26 0.19 27.75 0 28.33 0 28.96 0 30.64 1.37 32.01 3.05 32.01 3.7 32.01 4.3 31.8 4.8 31.45 5.66 31.73 6.62 31.88 7.65 31.88 8.96 31.88 10.39 31.65 11.91 31.19 13.24 30.79 14.59 30.21 15.94 29.5 17.29 30.21 18.64 30.79 19.97 31.19 21.49 31.65 22.92 31.88 24.23 31.88 25.29 31.88 26.27 31.72 27.15 31.42 27.65 31.78 28.26 32 28.92 32 30.6 32 31.97 30.63 31.97 28.95 31.97 28.28 31.75 27.67 31.38 27.17 32.05 25.2 31.99 22.75 31.16 20ZM29 1.99C29.58 1.99 30.05 2.46 30.05 3.04 30.05 3.62 29.58 4.09 29 4.09 28.92 4.09 28.86 4.06 28.79 4.05 28.38 3.96 28.07 3.65 27.99 3.24 27.98 3.17 27.95 3.11 27.95 3.04 27.95 2.46 28.42 1.99 29 1.99ZM20.54 2.67C21.88 2.27 23.11 2.07 24.22 2.07 24.88 2.07 25.49 2.17 26.05 2.31 25.99 2.55 25.95 2.79 25.95 3.05 25.95 4.73 27.32 6.1 29 6.1 29.23 6.1 29.45 6.07 29.66 6.02 29.99 7.5 29.87 9.31 29.24 11.37 28.99 12.21 28.65 13.05 28.26 13.9 27 11.94 25.45 10.02 23.67 8.23 21.88 6.44 19.96 4.9 18 3.64 18.85 3.25 19.7 2.92 20.53 2.66ZM3 1.99C3.58 1.99 4.05 2.46 4.05 3.04 4.05 3.07 4.04 3.09 4.03 3.12 3.99 3.64 3.58 4.05 3.06 4.08 3.04 4.08 3.02 4.09 3 4.09 2.42 4.09 1.95 3.62 1.95 3.04 1.95 2.46 2.42 1.99 3 1.99ZM2.21 5.98C2.46 6.05 2.72 6.1 3 6.1 4.68 6.1 6.05 4.73 6.05 3.05 6.05 2.78 6 2.53 5.94 2.28 6.47 2.16 7.03 2.07 7.65 2.07 8.76 2.07 9.99 2.27 11.33 2.67 12.17 2.92 13.01 3.26 13.86 3.65 11.9 4.91 9.98 6.46 8.19 8.24 6.37 10.06 4.85 11.97 3.61 13.88 2.25 10.92 1.72 8.11 2.21 5.98ZM3.05 30.02C2.47 30.02 2 29.55 2 28.97 2 28.39 2.47 27.92 3.05 27.92 3.07 27.92 3.08 27.92 3.1 27.93 3.63 27.96 4.06 28.38 4.09 28.91 4.09 28.93 4.1 28.95 4.1 28.97 4.1 29.55 3.63 30.02 3.05 30.02ZM11.33 29.29C9.28 29.91 7.47 30.04 6 29.71 6.06 29.47 6.1 29.22 6.1 28.96 6.1 27.28 4.73 25.91 3.05 25.91 2.76 25.91 2.49 25.96 2.23 26.04 1.72 23.9 2.24 21.07 3.61 18.08 4.85 20 6.37 21.91 8.19 23.72 9.98 25.51 11.9 27.05 13.86 28.31 13.01 28.7 12.16 29.03 11.33 29.29ZM9.61 22.31C7.6 20.3 5.96 18.13 4.71 15.98 5.96 13.83 7.61 11.66 9.61 9.65 11.6 7.66 13.76 6 15.94 4.73 18.12 6 20.28 7.66 22.27 9.65 24.26 11.64 25.92 13.8 27.19 15.98 25.92 18.16 24.26 20.32 22.27 22.31 20.28 24.3 18.12 25.96 15.94 27.23 13.76 25.96 11.6 24.3 9.61 22.31ZM25.87 28.96C25.87 29.21 25.91 29.46 25.97 29.69 24.48 30.04 22.64 29.92 20.54 29.29 19.7 29.04 18.86 28.7 18.01 28.31 19.97 27.05 21.89 25.5 23.68 23.72 25.47 21.93 27.01 20.01 28.27 18.05 28.66 18.9 28.99 19.75 29.25 20.58 29.88 22.67 30.01 24.52 29.65 26 29.41 25.94 29.17 25.9 28.92 25.9 27.24 25.9 25.87 27.27 25.87 28.95ZM28.92 30.01C28.34 30.01 27.87 29.54 27.87 28.96 27.87 28.9 27.89 28.85 27.9 28.8 27.97 28.36 28.31 28.02 28.75 27.95 28.81 27.95 28.86 27.92 28.91 27.92 29.49 27.92 29.96 28.39 29.96 28.97 29.96 29.55 29.49 30.02 28.91 30.02Z" stroke-width="0" fill="#7823DC"/><path d="M18.31 16.47 23.91 19.5 23.91 15.95 18.3 11.41C18.26 9.32 17.87 7.97 17.11 7.27 16.66 6.85 16.21 6.81 15.98 6.8 15.78 6.83 15.31 6.86 14.85 7.27 14.1 7.97 13.71 9.32 13.66 11.41L8.05 15.95 8.05 19.5 13.65 16.47 13.65 18.62 12.33 20.33 12.33 23.85 15.96 21.76 19.59 23.85 19.59 20.33 18.27 18.62 18.27 16.47Z" stroke-width="0" fill="#7823DC"/></svg>