<svg width="31.9" height="31.7" viewBox="0 0 31.9 31.7" xmlns="http://www.w3.org/2000/svg" xmlns:xlink="http://www.w3.org/1999/xlink" overflow="hidden"><defs></defs><g><path d="M14 31.7C6.3 31.7 0 25.4 0 17.7 0 10 6.3 3.7 14 3.7L15 3.7 15 16.7 28 16.7 28 17.7C28 25.4 21.7 31.7 14 31.7M13 5.8C6.8 6.3 2 11.5 2 17.8 2 24.4 7.4 29.8 14 29.8 20.3 29.8 25.4 24.9 26 18.8L13 18.8 13 5.8Z" fill="#7823DC"/><path d="M20.7 0 16.9 3.8 16.9 14.8 31.9 14.8 31.9 13.8C31.9 7 27.1 1.3 20.7 0M18.9 12.7 18.9 1.7C24.7 2.2 29.4 6.8 29.9 12.7L18.9 12.7Z" fill="#7823DC"/></g></svg>