<svg viewBox="0 0 32 32" xmlns="http://www.w3.org/2000/svg" xmlns:xlink="http://www.w3.org/1999/xlink" id="Layer_1" overflow="hidden"><style>
.MsftOfcResponsive_Fill_7823dc {
 fill:#7823DC; 
}
</style>
<g><defs><line x1="-2.9" y1="32.1" x2="-2.9" y2="-1" id="SVGID_1_"/></defs><defs><line x1="-2.9" y1="-1" x2="-2.9" y2="32.1" id="SVGID_00000023975436347578304220000008044292508676938161_"/></defs><clipPath id="SVGID_00000053536628435192053920000018038789399416006589_"><use width="100%" height="100%" xlink:href="#SVGID_1_" overflow="visible"></use></clipPath><clipPath id="SVGID_00000023970198963933145140000010934152911505812407_" clip-path="url(#SVGID_00000053536628435192053920000018038789399416006589_)"><use width="100%" height="100%" xlink:href="#SVGID_00000023975436347578304220000008044292508676938161_" overflow="visible"></use></clipPath><g clip-path="url(#SVGID_00000023970198963933145140000010934152911505812407_)"><defs><line x1="-2.9" y1="32.1" x2="-2.9" y2="-1" id="SVGID_00000057848662217492217640000013137221417211718588_"/></defs><clipPath id="SVGID_00000120538696076560039260000007809323460206204826_"><use width="100%" height="100%" xlink:href="#SVGID_00000057848662217492217640000013137221417211718588_" overflow="visible"></use></clipPath><path d="M-5 2-5 30M-3 32-3 4-7 0-7 0" class="MsftOfcResponsive_Fill_7823dc" fill="#7823DC" clip-path="url(#SVGID_00000120538696076560039260000007809323460206204826_)"/><line x1="-4" y1="8" x2="-4" y2="10" fill="#7823DC" clip-path="url(#SVGID_00000120538696076560039260000007809323460206204826_)"/></g></g><g><path d="M30 2 30 30 2 30 2 2 30 2M28 0 0 0 0 32 32 32 32 4 28 0 28 0Z" class="MsftOfcResponsive_Fill_7823dc" fill="#7823DC"/><path d="M1.5 8 31 8 31 10 1.5 10 1.5 8Z" class="MsftOfcResponsive_Fill_7823dc" fill="#7823DC"/><path d="M4 4 6 4 6 6 4 6 4 4Z" class="MsftOfcResponsive_Fill_7823dc" fill="#7823DC"/><path d="M8 4 10 4 10 6 8 6 8 4Z" class="MsftOfcResponsive_Fill_7823dc" fill="#7823DC"/><path d="M12 4 14 4 14 6 12 6 12 4Z" class="MsftOfcResponsive_Fill_7823dc" fill="#7823DC"/></g><path d="M20.9 13.5 22.3 14.9 10.1 27.1 8.8 27.1 8.7 25.7 20.9 13.5M20.9 10.7 6.7 24.9 6.9 29 10.9 29.1 25.1 14.9 20.9 10.7 20.9 10.7Z" class="MsftOfcResponsive_Fill_7823dc" fill="#7823DC"/><g><rect x="9.4" y="23.9" width="2" height="3.1" class="MsftOfcResponsive_Fill_7823dc" fill="#7823DC" transform="matrix(0.708 -0.7063 0.7063 0.708 -14.9367 14.7411)"/><rect x="18.3" y="14.9" width="2" height="3.1" class="MsftOfcResponsive_Fill_7823dc" fill="#7823DC" transform="matrix(0.7078 -0.7064 0.7064 0.7078 -6.003 18.4759)"/></g></svg>