<svg viewBox="0 0 32 32" xmlns="http://www.w3.org/2000/svg" xmlns:xlink="http://www.w3.org/1999/xlink" id="Layer_1" xml:space="preserve" overflow="hidden"><path d="M29.8 12 29.8 11.9C29.7 11.3 29.5 10.8 29.3 10.2L29.3 10.1C29.2 9.8 29.1 9.5 29 9.3 26.6 3.8 21.3 0 15.1 0 6.8 0 0 6.9 0 15.5 0 20.9 2.7 25.7 6.9 28.5L8.1 26.9C4.4 24.5 2 20.2 2 15.5 2 8 7.9 2 15.1 2 20.7 2 25.6 5.7 27.4 10.8 27.4 10.9 27.5 11 27.5 11.2 27.6 11.6 27.7 12 27.8 12.4L27.8 12.5C28.4 14.7 29 17.4 29.4 19.3 29.4 19.5 29.5 19.7 29.5 19.8 29.5 19.6 29.6 19.4 29.6 19.3 29.9 18.1 30.1 16.8 30.1 15.5 30.2 14.3 30.1 13.1 29.8 12Z" fill="#7823DC"/><path d="M32 22.3 26.4 22.3 26.4 32 17 32 17 30 24.3 30 24.3 20.3 29.5 20.3C29.5 20.1 29.4 19.9 29.4 19.7 29 17.8 28.3 14.6 27.7 12.2L27.7 12.1C27.6 11.7 27.5 11.3 27.4 10.9 27.4 10.8 27.3 10.6 27.3 10.5 27.2 10.2 27.1 9.8 27 9.6L28.8 8.9 28.8 9.9C28.9 10.2 29 9.5 29.1 9.8L29.1 9.9C29.3 10.4 29.4 11 29.6 11.6L29.6 11.7C30.6 15.5 31.6 20.9 31.7 21.2L32 22.3Z" fill="#7823DC"/><g><path d="M10.7 10.8 21.3 10.8 21.3 12.9 10.7 12.9 10.7 10.8Z" fill="#7823DC" fill-rule="evenodd" clip-rule="evenodd"/><path d="M17.1 15 17.1 24.4C17.1 25 16.7 25.4 16 25.4 15.4 25.4 14.9 25 14.9 24.4L14.9 15 17.1 15M19.2 12.9 12.9 12.9 12.9 24.3C12.9 26.1 14.3 27.4 16.1 27.4 17.9 27.4 19.3 26 19.3 24.3L19.3 12.9 19.2 12.9 19.2 12.9Z" fill="#7823DC" fill-rule="evenodd" clip-rule="evenodd"/><path d="M16.6 9.7C16.6 10.3 16.1 10.8 15.5 10.8 14.9 10.8 14.4 10.3 14.4 9.7 14.4 9.1 14.9 8.6 15.5 8.6 16.2 8.6 16.6 9.1 16.6 9.7L16.6 9.7Z" fill="#7823DC" fill-rule="evenodd" clip-rule="evenodd"/><path d="M18.8 7.6C18.8 8.2 18.3 8.6 17.7 8.6 17.1 8.6 16.6 8.1 16.6 7.6 16.6 7 17.1 6.6 17.7 6.6 18.3 6.6 18.8 7 18.8 7.6L18.8 7.6Z" fill="#7823DC" fill-rule="evenodd" clip-rule="evenodd"/><path d="M16.6 5.6C16.6 6.2 16.1 6.6 15.5 6.6 14.9 6.6 14.4 6.1 14.4 5.6 14.4 5 14.9 4.6 15.5 4.6 16.2 4.5 16.6 5 16.6 5.6L16.6 5.6Z" fill="#7823DC" fill-rule="evenodd" clip-rule="evenodd"/></g></svg>