<svg viewBox="0 0 32 32" xmlns="http://www.w3.org/2000/svg" xmlns:xlink="http://www.w3.org/1999/xlink" id="Layer_1" xml:space="preserve" overflow="hidden"><path d="M18.8 25 18.8 30 13.3 30 13.3 25 18.8 25M20.8 23 11.3 23 11.3 32 20.8 32 20.8 23 20.8 23Z" fill="#7823DC"/><g><path d="M18.8 2 18.8 7 13.3 7 13.3 2 18.8 2M20.8 0 11.3 0 11.3 9 20.8 9 20.8 0 20.8 0Z" fill="#7823DC"/></g><path d="M7.5 25 7.5 30 2 30 2 25 7.5 25M9.5 23 0 23 0 32 9.5 32 9.5 23 9.5 23Z" fill="#7823DC"/><path d="M30 25 30 30 24.5 30 24.5 25 30 25M32 23 22.5 23 22.5 32 32 32 32 23 32 23Z" fill="#7823DC"/><rect x="15" y="8" width="2" height="16" fill="#7823DC"/><rect x="3.8" y="15" width="2" height="8.7" fill="#7823DC"/><rect x="26.3" y="15" width="2" height="8.7" fill="#7823DC"/><rect x="4" y="15" width="24" height="2" fill="#7823DC"/></svg>