<svg viewBox="0 0 32 32" xmlns="http://www.w3.org/2000/svg" xmlns:xlink="http://www.w3.org/1999/xlink" xml:space="preserve" overflow="hidden"><style>
.MsftOfcResponsive_Fill_7823dc {
 fill:#7823DC; 
}
</style>
<g id="Layer_3"></g><g id="Layer_1"><path d="M16 29.17C13.91 29.17 11.87 28.6 10.08 27.53L11.11 25.82C13.11 27.03 15.55 27.45 17.85 26.99L18.24 28.95C17.51 29.1 16.75 29.17 16 29.17Z" class="MsftOfcResponsive_Fill_7823dc" fill="#7823DC"/><path d="M16 25.71C14.59 25.71 13.21 25.34 12 24.64L13 22.91C13.91 23.43 14.95 23.71 16 23.71L16 25.71Z" class="MsftOfcResponsive_Fill_7823dc" fill="#7823DC"/><g><path d="M27.47 17.7 25.47 17.7C25.47 15.76 24.89 13.89 23.79 12.31L25.43 11.17C26.77 13.09 27.47 15.35 27.47 17.7Z" class="MsftOfcResponsive_Fill_7823dc" fill="#7823DC"/><path d="M24.01 17.7 22.01 17.7C22.01 16.61 21.72 15.55 21.16 14.62L22.87 13.59C23.61 14.83 24.01 16.25 24.01 17.7Z" class="MsftOfcResponsive_Fill_7823dc" fill="#7823DC"/></g><g><path d="M5.25 11.81 7.14 12.46C7.77 10.62 8.93 9.05 10.49 7.91L9.31 6.3C7.42 7.68 6.02 9.59 5.25 11.81Z" class="MsftOfcResponsive_Fill_7823dc" fill="#7823DC"/><path d="M8.53 12.94 10.42 13.59C10.77 12.56 11.4 11.65 12.23 10.95L10.94 9.42C9.83 10.35 9 11.57 8.53 12.94Z" class="MsftOfcResponsive_Fill_7823dc" fill="#7823DC"/></g></g><g id="Layer_2"><path d="M23.13 32.06 17.42 22.16 18.28 21.66C19.51 20.95 20.33 19.74 20.53 18.35L20.53 18.35C20.56 18.13 20.57 17.91 20.57 17.7L20.57 16.7 32 16.7 32 17.7C32 18.56 31.95 19.28 31.86 19.97 31.16 24.86 28.29 29.08 24 31.56L23.13 32.06ZM20.11 22.83 23.84 29.3C27.13 27.08 29.3 23.63 29.87 19.69 29.91 19.38 29.95 19.05 29.97 18.7L22.5 18.7C22.25 20.35 21.4 21.81 20.11 22.83Z" class="MsftOfcResponsive_Fill_7823dc" fill="#7823DC"/><path d="M8.86 32.07 8 31.57C3.06 28.72-0.01 23.4 0 17.7L0 16.7 11.43 16.7 11.43 17.7C11.43 19.33 12.3 20.85 13.72 21.66L14.59 22.16 8.86 32.07ZM2.03 18.7C2.33 22.97 4.6 26.9 8.15 29.3L11.89 22.82C10.61 21.79 9.76 20.31 9.51 18.69L2.03 18.69Z" class="MsftOfcResponsive_Fill_7823dc" fill="#7823DC"/><path d="M12.85 14.24 7.14 4.34 8 3.84C10.42 2.44 13.18 1.7 15.99 1.7 15.99 1.7 16 1.7 16 1.7 16.86 1.7 17.58 1.75 18.27 1.85 20.29 2.13 22.22 2.8 24 3.83L24.87 4.33 19.15 14.24 18.28 13.74C17.77 13.45 17.22 13.25 16.64 13.17 16.42 13.14 16.19 13.13 15.99 13.13 15.19 13.13 14.4 13.34 13.71 13.74L12.85 14.24ZM9.89 5.1 13.63 11.58C14.38 11.29 15.19 11.14 16 11.14 16 11.14 16 11.14 16.01 11.14 16.32 11.14 16.63 11.15 16.94 11.2 17.44 11.27 17.92 11.4 18.39 11.58L22.13 5.1C20.82 4.46 19.43 4.03 18 3.83 17.4 3.75 16.73 3.73 16 3.7 13.87 3.7 11.78 4.18 9.89 5.1Z" class="MsftOfcResponsive_Fill_7823dc" fill="#7823DC"/><path d="M16 20.88C15.45 20.88 14.91 20.73 14.41 20.45 13.43 19.88 12.82 18.83 12.82 17.7 12.82 16.57 13.43 15.52 14.42 14.95 15.4 14.38 16.61 14.38 17.59 14.95 18.57 15.52 19.19 16.57 19.19 17.7 19.19 18.82 18.58 19.88 17.6 20.45L17.6 20.45C17.09 20.74 16.56 20.88 16 20.88ZM16 16.52C15.8 16.52 15.61 16.58 15.42 16.69 15.04 16.91 14.82 17.29 14.82 17.71 14.82 18.13 15.04 18.51 15.42 18.73 15.8 18.95 16.21 18.95 16.59 18.73 16.96 18.51 17.19 18.13 17.19 17.71 17.19 17.29 16.97 16.91 16.59 16.69 16.4 16.58 16.2 16.52 16 16.52Z" class="MsftOfcResponsive_Fill_7823dc" fill="#7823DC"/></g></svg>