<svg viewBox="0 0 32 32" xmlns="http://www.w3.org/2000/svg" xmlns:xlink="http://www.w3.org/1999/xlink" id="Layer_5" overflow="hidden"><defs></defs><path d="M28.2 6.98 28.16 6.94 23.02 6.94 23.02 1.81 21.24 0.03 21.2-0.01 8.85-0.01 8.85 14.5C5.5 15.69 3.1 18.88 3.1 22.62 3.1 24.21 3.54 25.69 4.29 26.97L-11.35 36.74-10.14 38.33 5.49 28.56C7.06 30.2 9.27 31.24 11.72 31.24 14.43 31.24 16.85 29.98 18.43 28.02L29.97 28.02 29.97 8.75 28.19 6.98ZM5.1 22.62C5.1 20 6.64 17.73 8.85 16.66 9.47 16.36 10.13 16.16 10.84 16.06 11.13 16.02 11.42 15.99 11.72 15.99 12.93 15.99 14.06 16.32 15.03 16.89 15.88 17.39 16.62 18.06 17.18 18.88 17.91 19.95 18.34 21.23 18.34 22.62 18.34 23.87 17.99 25.04 17.38 26.03 16.93 26.78 16.33 27.43 15.63 27.94L15.63 25.37 7.53 25.37 7.53 27.73C6.05 26.51 5.11 24.67 5.11 22.61ZM9.52 28.86 9.52 27.38 13.64 27.38 13.64 28.96C13.03 29.14 12.39 29.25 11.72 29.25 10.95 29.25 10.21 29.11 9.52 28.87ZM27.98 26.03 19.64 26.03C20.09 24.98 20.35 23.83 20.35 22.62 20.35 21.28 20.03 20.01 19.48 18.88L20.67 18.88 20.67 16.89 18.16 16.89C17.65 16.32 17.08 15.82 16.44 15.4L24.76 15.4 24.76 13.41 12.33 13.41 12.33 14.02C12.13 14.01 11.93 13.99 11.72 13.99 11.42 13.99 11.13 14.01 10.84 14.03L10.84 1.98 21.03 1.98 21.03 5.38 24.55 8.89 24.59 8.93 28 8.93 28 26.04Z" stroke-width="0" fill="#7823DC"/><rect x="12.33" y="9.95" width="12.43" height="1.99" stroke-width="0" fill="#7823DC"/><path d="M10.85 24.64C11.15 24.73 11.47 24.8 11.8 24.8 13.63 24.8 15.11 23.31 15.11 21.49 15.11 20.43 14.6 19.49 13.82 18.88 13.39 18.55 12.89 18.32 12.34 18.23 12.16 18.2 11.99 18.18 11.8 18.18 11.47 18.18 11.15 18.24 10.85 18.34 9.98 18.6 9.27 19.21 8.86 20.01 8.63 20.46 8.49 20.96 8.49 21.5 8.49 22.04 8.63 22.54 8.86 22.99 9.27 23.79 9.98 24.39 10.85 24.66ZM10.85 20.59C11.09 20.33 11.42 20.17 11.8 20.17 12.52 20.17 13.11 20.76 13.11 21.48 13.11 22.2 12.52 22.79 11.8 22.79 11.42 22.79 11.09 22.62 10.85 22.37 10.63 22.14 10.49 21.83 10.49 21.48 10.49 21.13 10.63 20.82 10.85 20.59Z" stroke-width="0" fill="#7823DC"/></svg>