<svg width="512" height="512" viewBox="0 0 512 512" xmlns="http://www.w3.org/2000/svg" xmlns:xlink="http://www.w3.org/1999/xlink" id="Слой_1" overflow="hidden"><style>
.MsftOfcThm_Text2_Fill_v2 {
 fill:#7823DC; 
}
</style>
<g><g><path d="M372.425 485.156 29.003 485.156 29.003 26.844 283.709 26.844 353.826 98.147 299.83 98.147 299.83 76.481 272.987 76.481 272.987 124.99 372.425 124.99 372.425 167.294 399.268 167.294 399.268 106.077 294.954-1.42109e-14 2.159-1.42109e-14 2.159 512 399.268 512 399.268 328.709 372.425 328.709Z" class="MsftOfcThm_Text2_Fill_v2" fill="#7823DC"/><path d="M71.985 413.958 208.536 413.958 208.536 440.802 71.985 440.802Z" class="MsftOfcThm_Text2_Fill_v2" fill="#7823DC"/><path d="M71.985 346.993 208.536 346.993 208.536 373.837 71.985 373.837Z" class="MsftOfcThm_Text2_Fill_v2" fill="#7823DC"/></g><g><g><path d="M319.562 300.403 335.932 300.409 298.428 245.685 333.213 194.494 316.969 194.555 290.295 233.787 263.479 194.555 247.227 194.555 282.183 245.718 244.981 300.471 261.149 300.471 290.315 257.616Z" class="MsftOfcThm_Text2_Fill_v2" fill="#7823DC"/></g><path d="M363.903 286.912 363.903 194.545 350.481 194.545 350.481 300.334 424.098 300.334 424.098 286.912Z" class="MsftOfcThm_Text2_Fill_v2" fill="#7823DC"/><path d="M479.993 240.611 472.184 240.611C463.181 240.611 455.854 233.284 455.854 224.281 455.854 215.278 463.181 207.951 472.184 207.951L501.709 207.951 501.709 194.433 470.125 194.433 470.125 194.499C454.627 195.568 442.336 208.519 442.336 224.281 442.336 240.743 455.729 254.129 472.184 254.129L479.993 254.129C488.996 254.129 496.323 261.456 496.323 270.459 496.323 279.462 488.996 286.789 479.993 286.789L446.165 286.789 446.165 300.307 482.046 300.307 482.046 300.241C497.551 299.185 509.841 286.221 509.841 270.459 509.841 253.997 496.448 240.611 479.993 240.611Z" class="MsftOfcThm_Text2_Fill_v2" fill="#7823DC"/></g></g></svg>