<svg viewBox="0 0 32 31.89" xmlns="http://www.w3.org/2000/svg" xmlns:xlink="http://www.w3.org/1999/xlink" id="Layer_1" overflow="hidden"><style>
.MsftOfcResponsive_Fill_7823dc {
 fill:#7823DC; 
}
</style>
<defs></defs><path d="M16 1.99C23.73 1.99 30 8.24 30 15.94 30 23.64 23.73 29.89 16 29.89 8.27 29.89 2 23.65 2 15.94 2 8.23 8.27 1.99 16 1.99M16 0C7.16 0 0 7.14 0 15.94 0 24.74 7.16 31.88 16 31.88 24.84 31.88 32 24.74 32 15.94 32 7.14 24.84 0 16 0L16 0Z" class="MsftOfcResponsive_Fill_7823dc" fill="#7823DC"/><rect x="14.99" y="0.42" width="2.09" height="31.05" class="MsftOfcResponsive_Fill_7823dc" fill="#7823DC" transform="matrix(0.707107 0.707107 -0.707107 0.707107 15.97 -6.66)"/><path d="M16 25.94C13.95 25.94 11.9 25.18 10.33 23.66 7.7 21.1 7.28 17.03 9.32 13.77L16.13 4.01 22.69 13.82C24.82 16.96 24.41 21.01 21.67 23.67L21.67 23.67C20.11 25.19 18.05 25.95 16 25.95ZM16.09 7.56 10.99 14.88C9.46 17.34 9.75 20.31 11.73 22.24 14.08 24.53 17.92 24.53 20.28 22.24L20.28 22.24C22.31 20.27 22.62 17.27 21.04 14.95L16.1 7.57Z" class="MsftOfcResponsive_Fill_7823dc" fill="#7823DC"/></svg>