<svg viewBox="0 0 31.91 31.95" xmlns="http://www.w3.org/2000/svg" xmlns:xlink="http://www.w3.org/1999/xlink" id="Layer_1" overflow="hidden"><style>
.MsftOfcResponsive_Fill_7823dc {
 fill:#7823DC; 
}
</style>
<defs></defs><path d="M30.5 17.37 15.96 2.83 1.41 17.37 0 15.96 15.96 0 31.91 15.96 30.5 17.37Z" class="MsftOfcResponsive_Fill_7823dc" fill="#7823DC"/><path d="M27.51 31.95 4.4 31.95 4.4 11.69 6.4 11.69 6.4 29.95 25.51 29.95 25.51 11.69 27.51 11.69 27.51 31.95Z" class="MsftOfcResponsive_Fill_7823dc" fill="#7823DC"/><path d="M22.82 27.91 9.09 27.91 9.09 16.53 22.82 16.53 22.82 27.91ZM11.09 25.91 20.82 25.91 20.82 18.53 11.09 18.53 11.09 25.91Z" class="MsftOfcResponsive_Fill_7823dc" fill="#7823DC"/><path d="M20.96 18.53 10.96 18.53 10.96 15.58C10.96 12.88 13.2 10.68 15.96 10.68 18.72 10.68 20.96 12.88 20.96 15.58L20.96 18.53ZM12.96 16.53 18.96 16.53 18.96 15.58C18.96 13.98 17.61 12.68 15.96 12.68 14.31 12.68 12.96 13.98 12.96 15.58L12.96 16.53Z" class="MsftOfcResponsive_Fill_7823dc" fill="#7823DC"/><rect x="14.96" y="21.91" width="2" height="2" class="MsftOfcResponsive_Fill_7823dc" fill="#7823DC"/><rect x="17.96" y="21.91" width="2" height="2" class="MsftOfcResponsive_Fill_7823dc" fill="#7823DC"/><rect x="11.96" y="21.91" width="2" height="2" class="MsftOfcResponsive_Fill_7823dc" fill="#7823DC"/></svg>