<svg viewBox="0 0 32 32" xmlns="http://www.w3.org/2000/svg" xmlns:xlink="http://www.w3.org/1999/xlink" id="Layer_1" overflow="hidden"><g id="Layer_1_1_" display="none"><path d="" fill="#7823DC"/><g><path d="M27.6 9C21.3 6.4 17.1 3.3 16.6 3.1 16.4 3 16.3 2.9 16.1 2.9L12.2 2.9C11.7 2.9 11.3 3.3 11.3 3.8L11.3 5.7C11.3 6.2 10.9 6.6 10.4 6.6L6.6 6.6C6 6.7 5.6 6.3 5.6 5.8 5.6 4.2 4.3 3 2.8 3L0.9 3C0.4 2.9 0 3.3 0 3.9L0 19.1C0 19.6 0.4 20 0.9 20L31 20C31.5 20 31.9 19.6 31.9 19.1L31.9 14.1C32 10 28 9.3 27.6 9L27.6 9ZM2.8 4.8C3.3 4.8 3.7 5.2 3.7 5.7 3.7 7.3 5 8.5 6.5 8.5L10.2 8.5C11.8 8.5 13 7.2 13 5.7L13 4.8 15.7 4.8C16 5 16.3 5.2 16.8 5.5L15.4 7C15 7.4 15 8 15.4 8.3 15.8 8.7 16.4 8.7 16.7 8.3L18.5 6.5C19.1 6.9 19.8 7.2 20.4 7.6L19.2 8.8C18.8 9.2 18.8 9.8 19.2 10.1 19.6 10.5 20.2 10.5 20.5 10.1L22.1 8.5C22.8 8.8 23.4 9.2 24.1 9.5L22.9 10.7C22.5 11.1 22.5 11.7 22.9 12 23.3 12.4 23.9 12.4 24.2 12L25.9 10.3C26.8 10.7 27 10.7 28.3 11.3 29.4 11.7 30.1 12.8 30.1 13.9L30.1 14.2 7.4 14.2C7 12 5.1 10.4 2.8 10.4L1.9 10.4 1.9 4.8 2.8 4.8 2.8 4.8ZM1.9 12.4 2.8 12.4C4 12.4 5.1 13.2 5.5 14.3L1.9 14.3 1.9 12.4 1.9 12.4ZM1.9 18.1 1.9 16.2 30.2 16.2 30.2 18.1 1.9 18.1 1.9 18.1Z" fill="#7823DC" fill-rule="evenodd" clip-rule="evenodd"/></g></g><g><path d="M12.8 31.9C9.7 31.9 7.1 29.5 6.1 25.5L8 25.1C8.8 28.3 10.8 30.1 13.1 29.9 14.8 29.8 16.9 28.7 17.6 27.6 17.8 27.3 18 26.4 18.2 25.5 18.7 23.4 19.4 20.2 21.4 17.1 24.6 11.9 24.7 11 24.8 10L24.8 9.8C24.9 9 25.1 6.6 23.3 4.7 21 2.2 17 2 15.4 2.1 11.1 2.2 8.4 4.5 7.2 9 7.1 9.2 7 9.3 7 9.4L5.2 8.6 6.1 9 5.2 8.6C5.2 8.6 5.2 8.5 5.3 8.4 7 1.7 11.7 0.1 15.3 0.1 17.2 0 21.9 0.3 24.8 3.4 26.4 5.1 27 7.3 26.8 10L26.8 10.1C26.7 11.4 26.6 12.6 23.1 18.1 21.3 20.9 20.7 23.8 20.2 25.9 19.9 27.1 19.7 28 19.3 28.6 18.2 30.4 15.4 31.7 13.3 31.8 13.2 31.9 13 31.9 12.8 31.9Z" fill="#7823DC"/><path d="M8.1 19.5C7.1 12.7 9.4 6.7 13.5 5.4 15.4 4.8 18.9 4.8 20.8 7.4 22.2 9.4 22.2 12.2 20.9 14.6L19.2 13.6C20.2 11.9 20.2 9.9 19.3 8.6 18 6.8 15.6 6.9 14.3 7.3 11.6 8.2 9.3 12.7 10.2 19.3L8.1 19.5Z" fill="#7823DC"/><path d="M11.3 24.3 10.8 22.4C13.8 21.6 15.7 19.1 15.3 16.5 14.9 14.3 12.8 12.4 10.1 12L10.4 10C14 10.6 16.8 13 17.3 16.2 17.9 19.7 15.3 23.2 11.3 24.3Z" fill="#7823DC"/></g></svg>