<svg viewBox="0 0 32 32" xmlns="http://www.w3.org/2000/svg" xmlns:xlink="http://www.w3.org/1999/xlink" id="Layer_2_00000144328325245699140920000014890284756443101063_" xml:space="preserve" overflow="hidden"><g><path d="M12 21 0 5 24.1 5 12 21 12 21 12 21ZM4 7 12 17.7 20 7 4 7 4 7 4 7Z" fill="#7823DC" fill-rule="evenodd" clip-rule="evenodd"/><path d="M6.3 30 17.8 30 17.8 32 6.3 32 6.3 30Z" fill="#7823DC" fill-rule="evenodd" clip-rule="evenodd"/><path d="M5 9.3 18.5 9.3 18.5 11.3 5 11.3 5 9.3Z" fill="#7823DC" fill-rule="evenodd" clip-rule="evenodd"/><path d="M11 18 13 18 13 31 11 31 11 18Z" fill="#7823DC" fill-rule="evenodd" clip-rule="evenodd"/><path d="M22.4 11.3C22.2 11.3 21.9 11.3 21.7 11.3L22 9.3C23.8 9.5 25.4 8.4 25.9 6.7 26.2 5.8 26.1 4.8 25.6 3.9 25.1 3 24.4 2.4 23.4 2.1 21.7 1.6 19.9 2.4 19.1 3.9L17.4 3C18.7 0.6 21.4-0.5 24 0.2 25.4 0.6 26.6 1.6 27.3 2.9 28 4.2 28.2 5.8 27.7 7.2 27 9.7 24.8 11.3 22.4 11.3L22.4 11.3Z" fill="#7823DC" fill-rule="evenodd" clip-rule="evenodd"/></g></svg>