<svg viewBox="0 0 32 32" xmlns="http://www.w3.org/2000/svg" xmlns:xlink="http://www.w3.org/1999/xlink" xml:space="preserve" overflow="hidden"><style>
.MsftOfcResponsive_Fill_7823dc {
 fill:#7823DC; 
}
</style>
<g id="Layer_3"></g><g id="Layer_1"></g><g id="Layer_2"></g><g id="Layer_4"></g><g id="Layer_5"><g><path d="M10.75 9.55C8.14 9.55 6.02 7.43 6.02 4.82 6.02 2.21 8.14 0.1 10.75 0.1 13.36 0.1 15.48 2.22 15.48 4.83 15.48 7.44 13.36 9.55 10.75 9.55ZM10.75 2.1C9.25 2.1 8.02 3.32 8.02 4.83 8.02 6.34 9.24 7.56 10.75 7.56 12.26 7.56 13.48 6.34 13.48 4.83 13.48 3.32 12.25 2.1 10.75 2.1Z" class="st0 MsftOfcResponsive_Fill_7823dc" fill="#7823DC"/><path d="M18.03 31.95C15.32 31.95 13.23 31.17 11.77 29.62 9.57 27.28 9.74 24.06 9.75 23.93L9.75 8.55 11.75 8.55 11.75 23.99C11.75 24.07 11.63 26.56 13.24 28.26 14.3 29.38 15.91 29.95 18.01 29.95 18.23 29.95 23.92 29.75 24.01 24.09L24.01 18.71 22.64 20.79 20.97 19.69 26.01 12.02 26.01 24.1C25.92 30.21 20.75 31.9 18.03 31.95Z" class="st0 MsftOfcResponsive_Fill_7823dc" fill="#7823DC"/></g></g></svg>