<svg viewBox="0 0 32 32" xmlns="http://www.w3.org/2000/svg" xmlns:xlink="http://www.w3.org/1999/xlink" xml:space="preserve" overflow="hidden"><style>
.MsftOfcResponsive_Fill_7823dc {
 fill:#7823DC; 
}
</style>
<g id="Layer_3"></g><g id="Layer_1"></g><g id="Layer_2"></g><g id="Layer_4"></g><g id="Layer_5"><path d="M17 3.69 18.9 5.59 18.9 2.79 16 0 13.1 2.79 13.1 5.49 15 3.69" class="st1 MsftOfcResponsive_Fill_7823dc" fill="#7823DC" fill-rule="evenodd" clip-rule="evenodd"/><path d="M15 3.39 17 3.39 17 7.99 15 7.99 15 3.39 15 3.39Z" class="st1 MsftOfcResponsive_Fill_7823dc" fill="#7823DC" fill-rule="evenodd" clip-rule="evenodd"/><path d="M15 28.25 13.1 26.35 13.1 29.15 16 31.94 18.9 29.15 18.9 26.45 17 28.25" class="st1 MsftOfcResponsive_Fill_7823dc" fill="#7823DC" fill-rule="evenodd" clip-rule="evenodd"/><path d="M17 28.55 15 28.55 15 23.96 17 23.96 17 28.55 17 28.55Z" class="st1 MsftOfcResponsive_Fill_7823dc" fill="#7823DC" fill-rule="evenodd" clip-rule="evenodd"/><path d="M28.3 16.97 26.4 18.87 29.2 18.87 32 15.97 29.2 13.08 26.5 13.08 28.3 14.97" class="st1 MsftOfcResponsive_Fill_7823dc" fill="#7823DC" fill-rule="evenodd" clip-rule="evenodd"/><path d="M28.6 14.97 28.6 16.97 22 16.97 22 14.97 28.6 14.97 28.6 14.97Z" class="st1 MsftOfcResponsive_Fill_7823dc" fill="#7823DC" fill-rule="evenodd" clip-rule="evenodd"/><path d="M3.7 14.97 5.6 13.08 2.8 13.08 0 15.97 2.8 18.87 5.5 18.87 3.7 16.97" class="st1 MsftOfcResponsive_Fill_7823dc" fill="#7823DC" fill-rule="evenodd" clip-rule="evenodd"/><path d="M3.4 16.97 3.4 14.97 10 14.97 10 16.97 3.4 16.97 3.4 16.97Z" class="st1 MsftOfcResponsive_Fill_7823dc" fill="#7823DC" fill-rule="evenodd" clip-rule="evenodd"/><path d="M25.5 7.99 25.4 10.68 27.3 8.68 27.3 4.69 23.3 4.69 21.4 6.49 24 6.49" class="st1 MsftOfcResponsive_Fill_7823dc" fill="#7823DC" fill-rule="evenodd" clip-rule="evenodd"/><path d="M24.2 6.39 25.6 7.79 21.7 11.68 20.3 10.28 24.2 6.39 24.2 6.39Z" class="st1 MsftOfcResponsive_Fill_7823dc" fill="#7823DC" fill-rule="evenodd" clip-rule="evenodd"/><path d="M6.5 23.96 6.6 21.26 4.7 23.26 4.7 27.25 8.7 27.25 10.6 25.45 8 25.45" class="st1 MsftOfcResponsive_Fill_7823dc" fill="#7823DC" fill-rule="evenodd" clip-rule="evenodd"/><path d="M7.8 25.55 6.4 24.16 10.3 20.26 11.7 21.66 7.8 25.55 7.8 25.55Z" class="st1 MsftOfcResponsive_Fill_7823dc" fill="#7823DC" fill-rule="evenodd" clip-rule="evenodd"/><path d="M6.5 7.99 6.6 10.68 4.7 8.68 4.7 4.69 8.7 4.69 10.6 6.49 8 6.49" class="st1 MsftOfcResponsive_Fill_7823dc" fill="#7823DC" fill-rule="evenodd" clip-rule="evenodd"/><path d="M7.8 6.39 6.4 7.79 10.3 11.68 11.7 10.28 7.8 6.39 7.8 6.39Z" class="st1 MsftOfcResponsive_Fill_7823dc" fill="#7823DC" fill-rule="evenodd" clip-rule="evenodd"/><path d="M25.5 23.96 25.4 21.26 27.3 23.26 27.3 27.25 23.3 27.25 21.4 25.45 24 25.45" class="st1 MsftOfcResponsive_Fill_7823dc" fill="#7823DC" fill-rule="evenodd" clip-rule="evenodd"/><path d="M24.2 25.55 25.6 24.16 21.7 20.26 20.3 21.66 24.2 25.55 24.2 25.55Z" class="st1 MsftOfcResponsive_Fill_7823dc" fill="#7823DC" fill-rule="evenodd" clip-rule="evenodd"/><g><path d="M16.02 16.4 10.9 13.01 16.02 10.29 20.95 13 16.02 16.4ZM14.8 13.2 16 13.99 17.15 13.19 16 12.56 14.8 13.2Z" class="st0 MsftOfcResponsive_Fill_7823dc" fill="#7823DC"/><path d="M15.99 21.74 10.9 18.78 10.9 13 12.9 13 12.9 17.63 15.98 19.42 18.98 17.63 18.98 13 20.98 13 20.98 18.77Z" class="st0 MsftOfcResponsive_Fill_7823dc" fill="#7823DC"/><rect x="15.01" y="15.64" width="2" height="4.94" class="st0 MsftOfcResponsive_Fill_7823dc" fill="#7823DC"/></g></g></svg>