<svg viewBox="0 0 32 32" xmlns="http://www.w3.org/2000/svg" xmlns:xlink="http://www.w3.org/1999/xlink" xml:space="preserve" overflow="hidden"><style>
.MsftOfcResponsive_Fill_7823dc {
 fill:#7823DC; 
}
</style>
<g id="Layer_3"></g><g id="Layer_1"></g><g id="Layer_2"><path d="M27.5 22.87 4.68 22.87 4.68 4.57 27.5 4.57 27.5 22.87ZM6.96 20.58 25.22 20.58 25.22 6.86 6.96 6.86 6.96 20.58Z" class="MsftOfcResponsive_Fill_7823dc" fill="#7823DC"/><rect x="6.93" y="25.11" width="2.29" height="2.29" class="MsftOfcResponsive_Fill_7823dc" fill="#7823DC"/><rect x="14.95" y="25.11" width="2.29" height="2.29" class="MsftOfcResponsive_Fill_7823dc" fill="#7823DC"/><rect x="22.94" y="25.11" width="2.29" height="2.29" class="MsftOfcResponsive_Fill_7823dc" fill="#7823DC"/><path d="M0.11-0.04 0.11 27.28 2.39 29.63 2.39 2.25 29.81 2.25 29.81 29.66 2.43 29.66 4.66 31.95 32.09 31.95 32.09-0.04Z" class="MsftOfcResponsive_Fill_7823dc" fill="#7823DC"/><path d="M9.62 11.34C9.62 10.81 9.81 10.36 10.18 9.98 10.55 9.61 11 9.42 11.53 9.42 12.06 9.42 12.51 9.61 12.88 9.98 13.25 10.35 13.44 10.8 13.44 11.33 13.44 11.86 13.25 12.31 12.88 12.68 12.51 13.05 12.06 13.24 11.53 13.24 11 13.24 10.55 13.05 10.18 12.68 9.81 12.32 9.62 11.87 9.62 11.34ZM10.62 11.34C10.62 11.59 10.71 11.81 10.89 11.99 11.07 12.17 11.29 12.26 11.54 12.26 11.79 12.26 12.01 12.17 12.19 11.99 12.37 11.81 12.46 11.59 12.46 11.34 12.46 11.09 12.37 10.87 12.19 10.69 12.01 10.51 11.79 10.42 11.54 10.42 11.29 10.42 11.07 10.51 10.89 10.69 10.71 10.87 10.62 11.09 10.62 11.34Z" class="MsftOfcResponsive_Fill_7823dc" stroke-width="0.25" stroke-miterlimit="10" fill="#7823DC"/><path d="M20.66 15.14 22.38 15.69C22.12 16.65 21.68 17.36 21.06 17.83 20.45 18.3 19.67 18.53 18.72 18.53 17.55 18.53 16.59 18.13 15.84 17.33 15.09 16.53 14.71 15.44 14.71 14.06 14.71 12.6 15.09 11.46 15.84 10.65 16.6 9.84 17.59 9.44 18.82 9.44 19.9 9.44 20.77 9.76 21.44 10.39 21.84 10.77 22.14 11.31 22.34 12.01L20.58 12.43C20.48 11.97 20.26 11.61 19.93 11.35 19.6 11.09 19.2 10.95 18.73 10.95 18.08 10.95 17.55 11.18 17.14 11.65 16.73 12.12 16.53 12.88 16.53 13.92 16.53 15.03 16.73 15.82 17.13 16.29 17.53 16.76 18.05 17 18.69 17 19.16 17 19.57 16.85 19.91 16.55 20.27 16.25 20.51 15.78 20.66 15.14Z" class="MsftOfcResponsive_Fill_7823dc" stroke-width="0.25" stroke-miterlimit="10" fill="#7823DC"/></g></svg>