<svg viewBox="0 0 32 32" xmlns="http://www.w3.org/2000/svg" xmlns:xlink="http://www.w3.org/1999/xlink" id="Layer_1" overflow="hidden"><style>
.MsftOfcResponsive_Fill_7823dc {
 fill:#7823DC; 
}
</style>
<defs></defs><path d="M16 21.95C16.94 21.95 17.69 21.19 17.69 20.26 17.69 19.33 16.93 18.57 16 18.57 15.07 18.57 14.31 19.33 14.31 20.26 14.31 21.19 15.07 21.95 16 21.95Z" class="MsftOfcResponsive_Fill_7823dc" fill="#7823DC"/><path d="M32 16C32 7.18 24.82 0 16 0 7.18 0 0 7.18 0 16L0 18.47 12.05 28.51C12.3 30.47 13.97 32 16 32 18.03 32 19.7 30.47 19.95 28.5L32 17.88 32 16.01ZM9.44 19.07 13.33 15.03C14.09 15.5 14.97 15.73 15.89 15.73 16.81 15.71 17.68 15.44 18.42 14.94L22.46 18.83C21.99 19.59 21.75 20.47 21.76 21.39 21.78 22.21 22.02 22.98 22.42 23.66L19.54 26.2C18.88 24.91 17.54 24.01 15.99 24.01 14.44 24.01 13.08 24.92 12.42 26.24L9.64 23.92C10.02 23.22 10.23 22.43 10.22 21.61 10.2 20.69 9.93 19.82 9.43 19.08ZM16 30C14.9 30 14 29.1 14 28 14 26.9 14.9 26 16 26 17.1 26 18 26.9 18 28 18 29.1 17.1 30 16 30ZM30 16.97 23.96 22.29C23.84 21.99 23.77 21.67 23.76 21.34 23.75 20.62 24.01 19.93 24.51 19.42L25.2 18.7 18.43 12.18 17.74 12.9C17.24 13.42 16.57 13.71 15.85 13.73 15.13 13.78 14.44 13.48 13.93 12.98L13.21 12.29 6.69 19.06 7.41 19.75C7.93 20.25 8.22 20.92 8.24 21.64 8.24 21.97 8.19 22.29 8.08 22.6L2.01 17.54 2.01 16.01C2.01 8.29 8.29 2.01 16.01 2.01 23.73 2.01 30.01 8.29 30.01 16.01L30.01 16.98Z" class="MsftOfcResponsive_Fill_7823dc" fill="#7823DC"/></svg>