<svg width="36.5" height="36.6" viewBox="0 0 36.5 36.6" xmlns="http://www.w3.org/2000/svg" xmlns:xlink="http://www.w3.org/1999/xlink" overflow="hidden"><defs></defs><g><g><defs><path d="M0 36.5 36.5 36.5 36.5 0 0 0 0 36.5Z" id="SVGID_1_" fill="#7823DC"/></defs><clipPath id="SVGID_2_"><use width="100%" height="100%" xlink:href="#SVGID_1_"></use></clipPath><g clip-path="url(#SVGID_2_)"><defs><path d="M0 36.5 36.5 36.5 36.5 0 0 0 0 36.5Z" id="SVGID_3_" fill="#7823DC"/></defs><clipPath id="SVGID_4_"><use width="100%" height="100%" xlink:href="#SVGID_3_"></use></clipPath><path d="M35.7 18.3 0 18.3 0 36.6 36.5 36.6 36.5 18.3 35.7 18.3 35.7 18.3ZM2.3 20.6 4.9 20.6C4.8 21.9 3.7 23 2.3 23L2.3 23 2.3 20.6 2.3 20.6ZM2.3 34.3 2.3 31.9 2.3 31.9C3.7 31.9 4.8 32.9 4.9 34.3L2.3 34.3ZM34.2 34.3 31.6 34.3C31.7 32.9 32.8 31.9 34.2 31.9L34.2 31.9 34.2 34.3 34.2 34.3ZM34.2 25.4 34.2 29.5 34.2 29.5C31.6 29.5 29.4 31.6 29.3 34.2L7.2 34.2C7.1 31.6 4.9 29.5 2.3 29.5L2.3 29.5 2.3 25.1 2.3 25.1C4.9 25.1 7.1 23.1 7.2 20.4L29.4 20.4C29.5 23 31.7 25.1 34.3 25.1L34.3 25.1 34.3 25.4 34.2 25.4ZM34.2 22.9 34.2 22.9C32.9 22.9 31.7 21.9 31.6 20.5L34.2 20.5 34.2 22.9 34.2 22.9Z" fill="#7823DC" clip-path="url(#SVGID_4_)"/><path d="M18.2 21.7C15.1 21.7 12.5 24.3 12.5 27.4 12.5 30.6 15.1 33.1 18.2 33.1 21.3 33.1 23.9 30.5 23.9 27.4 23.9 24.3 21.4 21.7 18.2 21.7L18.2 21.7ZM18.2 30.9C16.3 30.9 14.8 29.4 14.8 27.5 14.8 25.6 16.3 24.1 18.2 24.1 20.1 24.1 21.6 25.6 21.6 27.5 21.7 29.3 20.1 30.9 18.2 30.9L18.2 30.9Z" fill="#7823DC" clip-path="url(#SVGID_4_)"/><path d="M6.7 16.4 6.7 16.4C8.4 14.5 8.4 11.5 6.5 9.6L6.5 9.6 6.7 9.5 9.4 6.7 9.5 6.6 9.5 6.6C11.4 8.4 14.3 8.5 16.2 6.7L16.2 6.7 28 18.3 31.2 18.3 17.6 4.7 17.5 4.6 15.6 2.7 15.4 2.5 13.7 0.8 13.5 0.6 12.8 0 12.2 0.6 12.1 0.8 10.6 2.3 10.5 2.4 8.5 4.5 8.2 4.7 4.6 8.3 4.5 8.5 2.5 10.5 2.3 10.7 0.8 12.2 0.6 12.4 0 13 0.5 13.5 0.7 13.7 2.4 15.4 2.6 15.6 4.5 17.5 4.6 17.6 5.1 18.1 8.3 18.1 6.7 16.4 6.7 16.4ZM12.9 3.2 14.7 5C13.7 5.9 12.2 5.8 11.2 4.9L11.2 4.9 12.9 3.2 12.9 3.2ZM5.1 14.9 3.2 13 4.9 11.3 4.9 11.3C5.9 12.3 6 13.8 5.1 14.9L5.1 14.9Z" fill="#7823DC" clip-path="url(#SVGID_4_)"/><path d="M16.9 17C18.2 15.7 20.4 15.7 21.7 17 21.7 17 21.7 17 21.7 17 22.1 17.4 22.4 17.8 22.5 18.3L25 18.3C24.4 15.2 21.4 13.2 18.3 13.8 17.2 14 16.2 14.6 15.4 15.4 14.6 16.2 14.1 17.2 13.9 18.3L16.3 18.3C16.3 17.8 16.6 17.3 16.9 17L16.9 17Z" fill="#7823DC" clip-path="url(#SVGID_4_)"/></g></g></g></svg>