<svg viewBox="0 0 31.99 32" xmlns="http://www.w3.org/2000/svg" xmlns:xlink="http://www.w3.org/1999/xlink" id="Layer_1" overflow="hidden"><style>
.MsftOfcResponsive_Fill_7823dc {
 fill:#7823DC; 
}
</style>
<defs></defs><path d="M26.99 32C24.23 32 21.99 29.76 21.99 27 21.99 24.24 24.23 22 26.99 22 29.75 22 31.99 24.24 31.99 27 31.99 29.76 29.75 32 26.99 32ZM26.99 24C25.34 24 23.99 25.35 23.99 27 23.99 28.65 25.34 30 26.99 30 28.64 30 29.99 28.65 29.99 27 29.99 25.35 28.64 24 26.99 24Z" class="MsftOfcResponsive_Fill_7823dc" stroke-width="0" fill="#7823DC"/><path d="M0.6 31.99 0.01 30.08 25.99 22.03 25.99 4.66C25.99 2.09 28.08 0 30.65 0L31.99 0 31.99 2 30.65 2C29.18 2 27.99 3.19 27.99 4.66L27.99 23.51 0.6 31.99Z" class="MsftOfcResponsive_Fill_7823dc" stroke-width="0" fill="#7823DC"/><path d="M4.51 26.68 0 11.83 16.54 6.57 21.28 21.47 4.52 26.68ZM2.49 13.14 5.84 24.17 18.76 20.15 15.24 9.07 2.49 13.14Z" class="MsftOfcResponsive_Fill_7823dc" stroke-width="0" fill="#7823DC"/><rect x="7.28" y="14.27" width="5.57" height="2" class="MsftOfcResponsive_Fill_7823dc" stroke-width="0" fill="#7823DC" transform="matrix(0.952821 -0.303534 0.303534 0.952821 -4.16 3.78)"/></svg>