<svg viewBox="0 0 32 32" xmlns="http://www.w3.org/2000/svg" xmlns:xlink="http://www.w3.org/1999/xlink" id="Layer_1" overflow="hidden"><style>
.MsftOfcResponsive_Fill_7823dc {
 fill:#7823DC; 
}
</style>
<g><g><defs><path d="M0 29 32 29 32 3 0 3 0 29Z" id="SVGID_1_" class="MsftOfcResponsive_Fill_7823dc" fill="#7823DC"/></defs><defs><path d="M0 3 32 3 32 29 0 29 0 3Z" id="SVGID_00000149345747988585324600000013162931242116642972_" class="MsftOfcResponsive_Fill_7823dc" fill="#7823DC"/></defs><clipPath id="SVGID_00000016046165010887145770000018400825362139165075_"><use width="100%" height="100%" xlink:href="#SVGID_1_" overflow="visible"></use></clipPath><clipPath id="SVGID_00000025405708336697677020000004217098326307705772_" clip-path="url(#SVGID_00000016046165010887145770000018400825362139165075_)"><use width="100%" height="100%" xlink:href="#SVGID_00000149345747988585324600000013162931242116642972_" overflow="visible"></use></clipPath><g clip-path="url(#SVGID_00000025405708336697677020000004217098326307705772_)"><defs><path d="M0 29 32 29 32 3 0 3 0 29Z" id="SVGID_00000110466497510323764340000010321336260850031289_" class="MsftOfcResponsive_Fill_7823dc" fill="#7823DC"/></defs><clipPath id="SVGID_00000118395009663263562370000005226863574691125395_"><use width="100%" height="100%" xlink:href="#SVGID_00000110466497510323764340000010321336260850031289_" overflow="visible"></use></clipPath><path d="M25.2 15 25 15 25 10.9C25 10.4 24.6 9.9 24 9.9L21.9 9.9 21.9 8.3C21.9 7.1 22.9 6.1 24.2 6.1L25.2 6.1 25.2 4.2 24.2 4.2C21.9 4.2 20 6 20 8.3L20 9.9 18.4 9.9C16.8 9.9 15.5 11.2 15.5 12.8L15.5 13.8 17.4 13.8 17.4 12.8C17.4 12.3 17.8 11.8 18.4 11.8L23 11.8 23 15.9C23 16.4 23.4 16.9 24 16.9L25.2 16.9C27.8 16.9 29.9 19 29.9 21.6 29.9 24.2 27.8 26.3 25.2 26.3L15.4 26.3C14.9 26.3 14.3 26.1 13.9 25.8L11.9 24.5 10.8 26.1 12.8 27.4C13.6 27.9 14.5 28.2 15.4 28.2L25.2 28.2C28.9 28.2 31.8 25.2 31.8 21.6 31.9 17.9 28.9 14.9 25.2 15L25.2 15Z" class="MsftOfcResponsive_Fill_7823dc" fill="#7823DC" clip-path="url(#SVGID_00000118395009663263562370000005226863574691125395_)"/><path d="M13.3 16.9 21.3 16.9 21.3 15 13.3 15C12.2 15 11 15.4 10.1 16.1L8.1 17.6 6.3 16.4C5.8 16 5.2 16 4.7 16.2 4.2 16.5 3.9 17 3.9 17.6L3.9 19.5 3.2 19.5C3 19.5 2.9 19.3 2.9 19.2L2.9 13.8 1 13.8 1 19.2C1 20.4 2 21.5 3.3 21.5L4.9 21.5C5.4 21.5 5.9 21.1 5.9 20.5L5.9 18.3 7.3 19.3 7.3 25.7 5.4 26.7 5.4 24.4 3.4 24.4 3.4 27.2C3.4 27.8 3.7 28.3 4.2 28.6 4.5 28.8 4.7 28.8 5 28.8 5.3 28.8 5.5 28.7 5.7 28.6L8.3 27.3C8.8 27 9.2 26.5 9.2 25.9L9.2 19.3 11.4 17.6C11.9 17.1 12.6 16.9 13.3 16.9L13.3 16.9Z" class="MsftOfcResponsive_Fill_7823dc" fill="#7823DC" clip-path="url(#SVGID_00000118395009663263562370000005226863574691125395_)"/><path d="M28 21.5C28 20.1 26.8 18.9 25.4 18.9 24 18.9 22.8 20.1 22.8 21.5 22.8 22.9 24 24.1 25.4 24.1 26.8 24.1 28 22.9 28 21.5L28 21.5ZM24.7 21.5C24.7 21.1 25 20.8 25.4 20.8 25.8 20.8 26.1 21.1 26.1 21.5 26.1 21.9 25.8 22.2 25.4 22.2 25 22.2 24.7 21.8 24.7 21.5L24.7 21.5Z" class="MsftOfcResponsive_Fill_7823dc" fill="#7823DC" clip-path="url(#SVGID_00000118395009663263562370000005226863574691125395_)"/><path d="M17 21.5C17 22.9 18.2 24.1 19.6 24.1 21 24.1 22.2 22.9 22.2 21.5 22.2 20.1 21 18.9 19.6 18.9 18.2 18.8 17 20 17 21.5L17 21.5ZM20.3 21.5C20.3 21.9 20 22.2 19.6 22.2 19.2 22.2 18.9 21.9 18.9 21.5 18.9 21.1 19.2 20.8 19.6 20.8 20 20.8 20.3 21.1 20.3 21.5L20.3 21.5Z" class="MsftOfcResponsive_Fill_7823dc" fill="#7823DC" clip-path="url(#SVGID_00000118395009663263562370000005226863574691125395_)"/><path d="M11.2 21.5C11.2 22.9 12.4 24.1 13.8 24.1 15.2 24.1 16.4 22.9 16.4 21.5 16.4 20.1 15.2 18.9 13.8 18.9 12.4 18.9 11.2 20 11.2 21.5L11.2 21.5ZM14.5 21.5C14.5 21.9 14.2 22.2 13.8 22.2 13.4 22.2 13.1 21.9 13.1 21.5 13.1 21.1 13.4 20.8 13.8 20.8 14.2 20.8 14.5 21.1 14.5 21.5L14.5 21.5Z" class="MsftOfcResponsive_Fill_7823dc" fill="#7823DC" clip-path="url(#SVGID_00000118395009663263562370000005226863574691125395_)"/><path d="M1 24.3 2.9 24.3 2.9 28.8 1 28.8 1 24.3Z" class="MsftOfcResponsive_Fill_7823dc" fill="#7823DC" clip-path="url(#SVGID_00000118395009663263562370000005226863574691125395_)"/></g></g></g></svg>