<svg viewBox="0 0 32 32" xmlns="http://www.w3.org/2000/svg" xmlns:xlink="http://www.w3.org/1999/xlink" overflow="hidden"><defs></defs><g id="Layer_3"><path d="M15.707 21.0195C11.2887 21.0195 7.707 17.4378 7.707 13.0195 7.707 8.60125 11.2887 5.01953 15.707 5.01953L15.707 7.01953C12.3933 7.01953 9.707 9.70582 9.707 13.0195 9.707 16.3332 12.3933 19.0195 15.707 19.0195 19.0207 19.0195 21.707 16.3332 21.707 13.0195L23.707 13.0195C23.7019 17.4357 20.1232 21.0145 15.707 21.0195Z" fill="#7823DC"/><path d="M15.707 17.2871C13.3504 17.2871 11.4399 15.3767 11.4399 13.02 11.4399 10.6634 13.3504 8.75293 15.707 8.75293L15.707 10.7529C14.4549 10.7527 13.4397 11.7675 13.4394 13.0195 13.4391 14.2716 14.4539 15.2868 15.706 15.2871 16.9581 15.2874 17.9733 14.2726 17.9736 13.0205 17.9736 13.0202 17.9736 13.0199 17.9736 13.0195L19.9736 13.0195C19.9713 15.3751 18.0626 17.2843 15.707 17.2871Z" fill="#7823DC"/><path d="M25.71 9.022 19.715 9.022 19.71 3.022 17.71 5.022 17.71 11.024 23.71 11.016 25.71 9.022Z" fill="#7823DC"/><path d="M18.71 8.609 15.707 11.612 15.707 13.02 17.126 13.02 20.123 10.023 18.71 8.609Z" fill="#7823DC"/><path d="M3.99451 0.005 0 4.005 0 26.005 14.1732 26.005 26.0225 32.005 26.0225 26.005 32 26.005 32 0.005ZM30 24.005 24.0225 24.005 24.0225 26.005 24.0182 28.7231 14.768 24.005 2 24.005 2 2.005 30 2.005Z" fill="#7823DC"/></g></svg>