<svg viewBox="0 0 32 31.99" xmlns="http://www.w3.org/2000/svg" xmlns:xlink="http://www.w3.org/1999/xlink" id="Layer_1" overflow="hidden"><style>
.MsftOfcResponsive_Fill_7823dc {
 fill:#7823DC; 
}
</style>
<defs></defs><path d="M18.99 9.99 4 9.99C1.79 9.99 0 8.2 0 5.99 0 3.78 1.79 1.99 4 1.99L18.54 1.99 20.49 0.44C20.82 0.16 21.27 -5.55112e-17 21.73 -5.55112e-17L25.98 -5.55112e-17 25.98 2C25.98 2 23.38 7.41 23.38 7.41 22.44 9.03 20.77 9.99 18.99 9.99ZM4 3.99C2.92 3.99 2 4.91 2 5.99 2 7.07 2.92 7.99 4 7.99L18.99 7.99C20.06 7.99 21.07 7.41 21.62 6.48L23.76 2 21.73 2 19.24 3.99 4 3.99Z" class="MsftOfcResponsive_Fill_7823dc" fill="#7823DC" fill-rule="evenodd"/><g><path d="M16 18C13.31 18 11.23 20.45 11.67 23.11L12.01 25.14C12.01 25.14 12.02 25.18 12.02 25.21 12.04 25.28 12.07 25.36 12.1 25.43L12.1 25.43C12.1 25.43 12.12 25.47 12.13 25.48 12.14 25.5 12.15 25.52 12.16 25.54L15 30.26 15 30.99C15 31.54 15.44 31.99 16 31.99 16.56 31.99 17 31.54 17 30.99L17 30.26 19.84 25.52C19.84 25.52 19.9 25.41 19.93 25.35 19.93 25.33 19.94 25.32 19.94 25.31 19.94 25.3 19.94 25.31 19.94 25.29 19.94 25.27 19.94 25.27 19.95 25.25L19.95 25.23C19.95 25.23 19.96 25.21 19.96 25.19 19.96 25.19 19.96 25.18 19.97 25.18L19.97 25.16 20.31 23.11C20.75 20.45 18.68 18 15.99 18ZM16 28.05 14.76 25.99 17.23 25.99 16 28.05ZM18.35 22.78 18.15 23.99 13.85 23.99 13.64 22.78C13.4 21.3 14.5 20 16 20 17.5 20 18.59 21.3 18.35 22.78Z" class="MsftOfcResponsive_Fill_7823dc" fill="#7823DC" fill-rule="evenodd"/><rect x="15" y="30.49" width="2" height="1.49" class="MsftOfcResponsive_Fill_7823dc" fill="#7823DC"/></g><g><path d="M4.39 12C1.7 12-0.38 14.45 0.06 17.11L0.4 19.14C0.4 19.14 0.41 19.18 0.41 19.21 0.43 19.28 0.46 19.36 0.49 19.43L0.49 19.43C0.49 19.43 0.51 19.47 0.52 19.48 0.53 19.5 0.54 19.52 0.55 19.54L3.39 24.26 3.39 24.99C3.39 25.54 3.83 25.99 4.39 25.99 4.95 25.99 5.39 25.54 5.39 24.99L5.39 24.26 8.23 19.52C8.23 19.52 8.29 19.41 8.32 19.35 8.32 19.33 8.33 19.32 8.33 19.31 8.33 19.3 8.33 19.31 8.33 19.29 8.33 19.27 8.33 19.27 8.34 19.25L8.34 19.23C8.34 19.23 8.35 19.21 8.35 19.19 8.35 19.19 8.35 19.18 8.36 19.18L8.36 19.16 8.7 17.11C9.14 14.45 7.07 12 4.38 12ZM4.39 22.05 3.15 19.99 5.62 19.99 4.39 22.05ZM6.74 16.78 6.54 17.99 2.24 17.99 2.03 16.78C1.79 15.3 2.89 14 4.39 14 5.89 14 6.98 15.3 6.74 16.78Z" class="MsftOfcResponsive_Fill_7823dc" fill="#7823DC" fill-rule="evenodd"/><rect x="3.39" y="24.49" width="2" height="1.49" class="MsftOfcResponsive_Fill_7823dc" fill="#7823DC"/></g><g><path d="M27.62 8C24.93 8 22.85 10.45 23.29 13.11L23.63 15.14C23.63 15.14 23.64 15.18 23.64 15.21 23.66 15.28 23.69 15.36 23.72 15.43L23.72 15.43C23.72 15.43 23.74 15.47 23.75 15.48 23.76 15.5 23.77 15.52 23.78 15.54L26.62 20.26 26.62 20.99C26.62 21.54 27.06 21.99 27.62 21.99 28.18 21.99 28.62 21.54 28.62 20.99L28.62 20.26 31.46 15.52C31.46 15.52 31.52 15.41 31.55 15.35 31.55 15.33 31.56 15.32 31.56 15.31 31.56 15.3 31.56 15.31 31.56 15.29 31.56 15.27 31.56 15.27 31.57 15.25L31.57 15.23C31.57 15.23 31.58 15.21 31.58 15.19 31.58 15.19 31.58 15.18 31.59 15.18L31.59 15.16 31.93 13.11C32.37 10.45 30.3 8 27.61 8ZM27.62 18.05 26.38 15.99 28.85 15.99 27.62 18.05ZM29.97 12.78 29.77 13.99 25.47 13.99 25.26 12.78C25.02 11.3 26.12 10 27.62 10 29.12 10 30.21 11.3 29.97 12.78Z" class="MsftOfcResponsive_Fill_7823dc" fill="#7823DC" fill-rule="evenodd"/><rect x="26.62" y="20.49" width="2" height="1.49" class="MsftOfcResponsive_Fill_7823dc" fill="#7823DC"/></g></svg>