<svg viewBox="0 0 28 28" xmlns="http://www.w3.org/2000/svg" xmlns:xlink="http://www.w3.org/1999/xlink" id="Grid" overflow="hidden"><style>
.MsftOfcResponsive_Fill_7823dc {
 fill:#7823DC; 
}
</style>
<defs></defs><path d="M14 0C6.28 0 0 6.28 0 14 0 21.72 6.28 28 14 28 21.72 28 28 21.72 28 14 28 6.28 21.72 0 14 0ZM3.96 20.56C2.72 18.67 2 16.42 2 14 2 11.58 2.73 9.33 3.96 7.44 6.89 7.88 9.15 10.65 9.15 14 9.15 17.35 6.88 20.12 3.96 20.56ZM14 26C10.6 26 7.53 24.57 5.34 22.29 8.69 21.26 11.15 17.94 11.15 14 11.15 10.06 8.69 6.74 5.34 5.71 7.53 3.43 10.6 2 14 2 17.4 2 20.47 3.43 22.66 5.71 19.31 6.74 16.85 10.06 16.85 14 16.85 17.94 19.31 21.26 22.66 22.29 20.47 24.57 17.4 26 14 26ZM18.84 14C18.84 10.65 21.11 7.88 24.03 7.44 25.27 9.33 25.99 11.58 25.99 14 25.99 16.42 25.26 18.67 24.03 20.56 21.1 20.12 18.84 17.35 18.84 14Z" class="MsftOfcResponsive_Fill_7823dc" stroke-width="0" fill="#7823DC"/></svg>