<svg viewBox="0 0 32 32" xmlns="http://www.w3.org/2000/svg" xmlns:xlink="http://www.w3.org/1999/xlink" id="Layer_1" overflow="hidden"><style>
.MsftOfcResponsive_Fill_7823dc {
 fill:#7823DC; 
}
</style>
<defs></defs><path d="M27.73 6.41 14.93 6.41 14.93 4.27 25.6 4.27 27.73 6.41Z" class="MsftOfcResponsive_Fill_7823dc" fill="#7823DC"/><rect x="0" y="19.2" width="14.1" height="2.13" class="MsftOfcResponsive_Fill_7823dc" fill="#7823DC"/><rect x="151.28" y="11.85" width="8.46" height="2.13" class="MsftOfcResponsive_Fill_7823dc" fill="#7823DC" transform="matrix(0.707107 -0.707107 0.707107 0.707107 -92.97 113.74)"/><rect x="0" y="0" width="11.53" height="2.13" class="MsftOfcResponsive_Fill_7823dc" fill="#7823DC"/><rect x="141.54" y="-0.26" width="2.13" height="6.92" class="MsftOfcResponsive_Fill_7823dc" fill="#7823DC" transform="matrix(0.707107 -0.707107 0.707107 0.707107 -89.88 101.78)"/><rect x="0" y="8.53" width="11.53" height="2.13" class="MsftOfcResponsive_Fill_7823dc" fill="#7823DC"/><rect x="139.15" y="6.4" width="6.92" height="2.13" class="MsftOfcResponsive_Fill_7823dc" fill="#7823DC" transform="matrix(0.707107 -0.707107 0.707107 0.707107 -92.9 103.03)"/><path d="M148.58 14.8C151.01 14.7945 152.984 16.7599 152.99 19.19 152.996 21.62 151.03 23.5945 148.6 23.6 146.17 23.6055 144.196 21.64 144.19 19.21 144.19 19.2067 144.19 19.2033 144.19 19.2 144.195 16.7761 146.156 14.811 148.58 14.8M148.58 12.8C145.045 12.8 142.18 15.6654 142.18 19.2 142.18 22.7346 145.045 25.6 148.58 25.6 152.115 25.6 154.98 22.7346 154.98 19.2 154.98 15.6654 152.115 12.8 148.58 12.8Z" class="MsftOfcResponsive_Fill_7823dc" fill="#7823DC" transform="translate(-129.38 0)"/><path d="M29.87 8.54 29.87 10.67 27.73 10.67 27.73 6.41 29.87 8.54Z" class="MsftOfcResponsive_Fill_7823dc" fill="#7823DC"/><rect x="0" y="27.73" width="12.8" height="2.13" class="MsftOfcResponsive_Fill_7823dc" fill="#7823DC"/><rect x="21.33" y="29.87" width="10.67" height="2.13" class="MsftOfcResponsive_Fill_7823dc" fill="#7823DC"/><rect x="27.73" y="23.47" width="4.27" height="2.13" class="MsftOfcResponsive_Fill_7823dc" fill="#7823DC"/><rect x="2.14" y="23.47" width="6.4" height="2.13" class="MsftOfcResponsive_Fill_7823dc" fill="#7823DC"/></svg>