<svg viewBox="0 0 32.09 31.93" xmlns="http://www.w3.org/2000/svg" xmlns:xlink="http://www.w3.org/1999/xlink" id="Outline_Final_icon" overflow="hidden"><defs></defs><g><circle cx="8.28" cy="25.7" r="1.21" fill="#7823DC"/><circle cx="12.38" cy="25.7" r="1.21" fill="#7823DC"/><circle cx="16.47" cy="25.7" r="1.21" fill="#7823DC"/></g><path d="M11.37 8.12 9.16 10.6 6.91 8.16C6.62 7.9 6.44 7.51 6.44 7.09 6.44 6.28 7.1 5.62 7.91 5.62 8.33 5.62 8.72 5.8 8.98 6.09 9.03 6.14 9.08 6.2 9.12 6.26 9.17 6.19 9.23 6.12 9.29 6.05 9.55 5.79 9.92 5.62 10.32 5.62 11.13 5.62 11.79 6.28 11.79 7.09 11.79 7.5 11.62 7.86 11.36 8.12Z" fill="#7823DC"/><g><path d="M26.14 12.05C26.14 12.19 26.14 12.34 26.14 12.48 26.14 13.64 26.51 14.61 27.43 15.31 27.49 15.35 27.53 15.46 27.53 15.54 27.53 16.5 27.53 17.46 27.53 18.42 27.53 18.49 27.51 18.59 27.46 18.62 27.22 18.76 27 18.94 26.69 18.93 25.8 18.91 24.91 18.89 24.02 18.93 23.43 18.96 23.22 18.65 23.18 18.14 23.18 18.07 23.16 17.96 23.11 17.93 22.77 17.73 22.79 17.43 22.84 17.09 22.85 17.01 22.8 16.9 22.73 16.84 22.47 16.62 22.4 16.42 22.56 16.12 22.65 15.95 22.64 15.84 22.56 15.67 22.31 15.2 22.44 14.88 22.92 14.7 23.02 14.66 23.13 14.62 23.23 14.62 23.78 14.61 24.33 14.59 24.88 14.6 25.16 14.6 25.19 14.6 25.16 14.32 25.13 14.12 25.1 13.93 25.08 13.73 25.04 13.3 25.05 12.88 25.21 12.48 25.36 12.12 25.81 11.88 26.13 12.02Z" fill="#7823DC"/><path d="M26.14 12.05C25.82 11.91 25.37 12.14 25.22 12.51 25.06 12.91 25.05 13.34 25.09 13.76 25.11 13.96 25.14 14.15 25.17 14.35 25.21 14.63 25.17 14.64 24.89 14.63 24.34 14.62 23.79 14.63 23.24 14.65 23.14 14.65 23.03 14.7 22.93 14.73 22.45 14.91 22.32 15.23 22.57 15.7 22.66 15.86 22.66 15.98 22.57 16.15 22.41 16.45 22.47 16.65 22.74 16.87 22.8 16.92 22.86 17.04 22.85 17.12 22.8 17.45 22.78 17.76 23.12 17.96 23.17 17.99 23.18 18.09 23.19 18.17 23.24 18.69 23.44 18.99 24.03 18.96 24.92 18.92 25.81 18.94 26.7 18.96 27.01 18.96 27.23 18.79 27.47 18.65 27.52 18.62 27.54 18.52 27.54 18.45 27.54 17.49 27.54 16.53 27.54 15.57 27.54 15.49 27.5 15.38 27.44 15.34 26.52 14.64 26.15 13.67 26.15 12.51 26.15 12.36 26.15 12.22 26.15 12.08Z" fill="#7823DC"/></g><path d="M21.52 31.93 3.28 31.93 3.28 18.23 12.4 18.23 12.4 20.23 5.28 20.23 5.28 29.93 19.52 29.93 19.52 28.58 22.19 27.26 19.52 25.65 19.52 23.67 21.52 23.67 21.52 24.52 26.36 27.44 21.52 29.82 21.52 31.93Z" fill="#7823DC"/><path d="M32.09 22.47 13.86 22.47 13.86 17.34 15.86 17.34 15.86 20.47 30.09 20.47 30.09 10.77 28.15 10.77 25.82 8.8 23.78 10.77 19.08 10.77 19.08 8.77 22.97 8.77 25.73 6.11 28.88 8.77 32.09 8.77 32.09 22.47Z" fill="#7823DC"/><path d="M3.97 0 0 3.97 0 16.22 18.24 16.22 18.24 0 3.97 0ZM16.24 14.22 2 14.22 2 2 16.24 2 16.24 14.22Z" fill="#7823DC"/></svg>