<svg viewBox="0 0 32 32" xmlns="http://www.w3.org/2000/svg" xmlns:xlink="http://www.w3.org/1999/xlink" id="Layer_1" overflow="hidden"><g><defs><path d="M1.8 32 29.2 32 29.2 4.5 1.8 4.5 1.8 32Z" id="SVGID_1_" fill="#7823DC"/></defs><defs><path d="M1.8 4.5 29.2 4.5 29.2 32 1.8 32 1.8 4.5Z" id="SVGID_2_" fill="#7823DC"/></defs><clipPath id="SVGID_3_"><use width="100%" height="100%" xlink:href="#SVGID_1_" overflow="visible"></use></clipPath><clipPath id="SVGID_4_" clip-path="url(#SVGID_3_)"><use width="100%" height="100%" xlink:href="#SVGID_2_" overflow="visible"></use></clipPath><g clip-path="url(#SVGID_4_)"><defs><path d="M1.8 32 29.2 32 29.2 4.5 1.8 4.5 1.8 32Z" id="SVGID_5_" fill="#7823DC"/></defs><clipPath id="SVGID_6_"><use width="100%" height="100%" xlink:href="#SVGID_5_" overflow="visible"></use></clipPath></g></g><g><path d="M26 8.7 26 8.5C26 3.9 21.6 0.2 16.1 0.2 16.1 0.2 16.1 0.2 16.1 0.2 11.7 0.2 7.8 2.7 6.6 6.2 2.2 7-0.5 10.7 0.5 14.3 1.3 17.3 4.5 19.4 8.1 19.5L15.4 19.5 15.4 18 8.2 18C4.8 17.9 2.1 15.6 2.2 12.7 2.3 10.4 4.2 8.4 7 7.9L8.1 7.7 8.4 6.8C9.4 3.9 12.5 2 16.1 2 20.5 2 24.1 5 24.1 8.6L24.1 10 25.7 10.3C28.2 10.7 29.9 12.8 29.4 14.9 29.2 15.8 28.7 16.5 27.9 17.1L27.9 19C30 18.1 31.4 16.2 31.4 14.1 31.3 11.4 29.1 9.2 26 8.7Z" fill="#7823DC"/><path d="M15.6 19.9 8.1 19.9C4.3 19.8 1.1 17.6 0.2 14.5-0.3 12.9 -7.21645e-16 11.2 0.9 9.7 2 7.8 4 6.6 6.3 6.1 7.6 2.5 11.6 0 16.1 0 21.7 0 26.2 3.8 26.3 8.5 29.4 9.1 31.6 11.4 31.6 14.1 31.6 16.2 30.2 18.2 28 19.2L27.6 19.4 27.6 17 27.7 16.9C28.4 16.4 28.9 15.7 29.1 14.9 29.3 14.1 29.1 13.2 28.6 12.4 28 11.4 26.9 10.8 25.6 10.6L23.8 10.3 23.8 8.5C23.8 5 20.3 2.1 16.1 2.1 12.7 2.1 9.6 4 8.7 6.8L8.3 7.8 7 8.1C4.4 8.6 2.5 10.5 2.4 12.7 2.4 13.8 2.8 14.9 3.6 15.8 4.7 17 6.3 17.6 8.1 17.7L15.5 17.7 15.5 19.9ZM16.1 0.5C11.8 0.5 7.9 2.9 6.8 6.4L6.8 6.5 6.7 6.5C4.3 7 2.4 8.2 1.4 9.9 0.6 11.3 0.3 12.8 0.7 14.3 1.5 17.2 4.5 19.2 8.1 19.3L15.1 19.3 15.1 18.2 8.2 18.2C6.3 18.2 4.5 17.4 3.3 16.2 2.4 15.2 1.9 14 1.9 12.7 2 10.2 4 8.1 6.9 7.6L7.9 7.4 8.2 6.6C9.2 3.7 12.5 1.6 16.1 1.6 20.6 1.6 24.3 4.7 24.3 8.5L24.3 9.8 25.7 10C27.1 10.2 28.4 11 29.1 12 29.7 12.9 29.9 13.9 29.6 14.9 29.4 15.8 28.9 16.6 28.1 17.2L28.1 18.6C30 17.6 31.1 16 31.1 14.1 31.1 11.6 28.9 9.4 26 8.9L25.8 8.9 25.8 8.5C25.7 4.1 21.4 0.5 16.1 0.5Z" fill="#7823DC"/></g><path d="M17.5 15 24.7 15 24.7 17 17.5 17 17.5 15 17.5 15Z" fill="#7823DC"/><path d="M19.5 19.4 26.4 19.4 26.4 21.3 19.5 21.3 19.5 19.4 19.5 19.4Z" fill="#7823DC"/><path d="M20.9 23.8 27.6 23.8 27.6 25.6 20.9 25.6 20.9 23.8 20.9 23.8Z" fill="#7823DC"/><path d="M21.8 28.1 29.3 28.1 29.3 30 21.8 30 21.8 28.1Z" fill="#7823DC"/><path d="M23.7 32 21.8 32 14.8 11.5 16.8 11.5Z" fill="#7823DC"/><path d="M31.3 32 29.3 32 22.3 11.5 24.2 11.5Z" fill="#7823DC"/></svg>