<svg viewBox="0 0 32 32" xmlns="http://www.w3.org/2000/svg" xmlns:xlink="http://www.w3.org/1999/xlink" id="Layer_1" overflow="hidden"><path d="M28.4 32 25.7 32 7.2 13.6 2.7 18.1 0 18.1 7.2 10.8Z" fill="#7823DC"/><path d="M17.4 7.2 7.5 7.2 7.5 5.2 14.1 5.2 13.4 3.9 14.1 2.7 7.5 2.7 7.5 0.7 17.4 0.7 15.6 3.9Z" fill="#7823DC"/><rect x="6.1" y="0" width="2" height="12.2" fill="#7823DC"/><path d="M32 24 32 26.8 24.1 18.7 18.3 24.7 16.9 23.4 24.1 16Z" fill="#7823DC"/><path d="M9.9 30.8 7.9 32 4 32 6.8 30.3 3.2 26.2 7.2 20.2 6.2 17.7 8 17 9.5 20.5 5.8 26.1Z" fill="#7823DC"/></svg>