<svg viewBox="0 0 32 32" xmlns="http://www.w3.org/2000/svg" xmlns:xlink="http://www.w3.org/1999/xlink" id="Graphic" xml:space="preserve" overflow="hidden"><g><path d="M31 13.4C29.3 13.4 28 12 28 10.4L28 4.2C28 2.1 26.3 0.4 24.2 0.4 22.1 0.4 20.4 2.1 20.4 4.2L20.4 4.4C20.4 6.8 18.4 8.7 16.1 8.7L15.1 8.7 15.1 13.6C14.7 13.8 14.3 14 13.9 14.4 12.6 15.7 12.6 17.8 13.9 19.2 14.2 19.5 14.7 19.8 15.1 20L15.1 22.7C14.7 22.9 14.3 23.1 13.9 23.5 12.6 24.8 12.6 26.9 13.9 28.3 14.2 28.6 14.7 28.9 15.1 29.1L15.1 30 2 30 2 15.2C4.3 14.7 6 12.7 6 10.3L6 4.2C6 3.2 6.8 2.4 7.8 2.4 8.8 2.4 9.6 3.2 9.6 4.2L9.6 7.2C9.6 9.2 11.2 10.8 13.2 10.8L14.2 10.8 14.2 8.8 13.2 8.8C12.3 8.8 11.6 8.1 11.6 7.2L11.6 4.2C11.6 2.1 9.9 0.4 7.8 0.4 5.7 0.4 4 2.1 4 4.2L4 10.3C4 12 2.6 13.3 1 13.3L0 13.3 0 32 17 32 17 29C17.6 28.9 18.1 28.6 18.6 28.1 19.9 26.8 19.9 24.7 18.6 23.3 18.2 22.9 17.6 22.6 17 22.4L17 20C17.6 19.9 18.1 19.6 18.6 19.1 19.9 17.8 19.9 15.7 18.6 14.3 18.2 13.9 17.6 13.6 17 13.4L17 10.5C20 10 22.3 7.4 22.3 4.3L22.3 4.2C22.3 3.2 23.1 2.4 24.1 2.4 25.1 2.4 26 3.2 26 4.2L26 10.3C26 12.7 27.7 14.8 30 15.2L30 30 17.7 30 17.7 32 32 32 32 13.4 31 13.4 31 13.4 31 13.4ZM17.2 26.7C16.7 27.2 15.8 27.2 15.2 26.7 14.7 26.2 14.7 25.3 15.2 24.8 15.5 24.5 15.8 24.4 16.2 24.4 16.6 24.4 16.9 24.5 17.2 24.8 17.7 25.3 17.7 26.2 17.2 26.7L17.2 26.7ZM17.2 17.8C16.7 18.3 15.8 18.3 15.2 17.8 14.7 17.3 14.7 16.4 15.2 15.9 15.5 15.6 15.8 15.5 16.2 15.5 16.6 15.5 16.9 15.6 17.2 15.9 17.7 16.3 17.7 17.2 17.2 17.8L17.2 17.8Z" fill="#7823DC"/><path d="M21.3 15.9 28.1 15.9 28.1 17.9 21.3 17.9 21.3 15.9Z" fill="#7823DC"/><path d="M21.3 19.9 28.1 19.9 28.1 21.9 21.3 21.9 21.3 19.9Z" fill="#7823DC"/><path d="M21.3 23.8 28.1 23.8 28.1 25.8 21.3 25.8 21.3 23.8Z" fill="#7823DC"/><path d="M4.1 15.9 10.9 15.9 10.9 17.9 4.1 17.9 4.1 15.9Z" fill="#7823DC"/><path d="M4.1 19.9 10.9 19.9 10.9 21.9 4.1 21.9 4.1 19.9Z" fill="#7823DC"/><path d="M4.1 23.8 10.9 23.8 10.9 25.8 4.1 25.8 4.1 23.8Z" fill="#7823DC"/></g></svg>