<svg width="60.7" height="32" viewBox="0 0 60.7 32" xmlns="http://www.w3.org/2000/svg" xmlns:xlink="http://www.w3.org/1999/xlink" overflow="hidden"><defs></defs><g><g><g><defs><rect x="28.7" y="0" width="32" height="32" id="SVGID_1_" fill="#7823DC"/></defs><clipPath id="SVGID_2_"><use width="100%" height="100%" xlink:href="#SVGID_1_"></use></clipPath><g clip-path="url(#SVGID_2_)"><defs><rect x="28.7" y="0" width="32" height="32" id="SVGID_3_" fill="#7823DC"/></defs><clipPath id="SVGID_4_"><use width="100%" height="100%" xlink:href="#SVGID_3_"></use></clipPath><g clip-path="url(#SVGID_4_)"><text fill="#7823DC" font-family="Graphik-Regular" font-size="22" transform="matrix(1 0 0 1 0 23.8594)">8</text></g><path d="M6.8 14.6C5.2 14.6 3.8 13.7 3.8 12 3.8 10.4 5.1 9.4 6.7 9.4 8.3 9.4 9.6 10.5 9.6 12 9.6 13.7 8.4 14.6 6.8 14.6ZM6.7 22.5C4.9 22.5 3.2 21.4 3.2 19.3 3.2 17.2 4.9 16.1 6.7 16.1 8.6 16.1 10.1 17.2 10.1 19.2 10.1 21.4 8.6 22.5 6.7 22.5ZM6.7 24.1C9.4 24.1 12.1 22.5 12.1 19.4 12.1 17.4 10.9 16 9.1 15.4 10.6 14.8 11.5 13.7 11.5 12.1 11.5 9.6 9.1 8.1 6.7 8.1 4.3 8.1 1.9 9.6 1.9 12.2 1.9 13.7 2.8 14.9 4.3 15.5 2.6 16.1 1.3 17.5 1.3 19.6 1.3 22.5 4.1 24.1 6.7 24.1Z" stroke="#6C4D9F" stroke-width="0.3" stroke-miterlimit="10" fill="#7823DC" clip-path="url(#SVGID_4_)"/></g></g></g><path d="M44.7 32C35.9 32 28.7 24.8 28.7 16 28.7 7.2 35.9 0 44.7 0 53.5 0 60.7 7.2 60.7 16 60.7 24.8 53.5 32 44.7 32ZM44.7 2C37 2 30.7 8.3 30.7 16 30.7 23.7 37 30 44.7 30 52.4 30 58.7 23.7 58.7 16 58.7 8.3 52.4 2 44.7 2Z" fill="#7823DC"/><g><path d="M39.5 20 41.3 20C41.7 21.5 42.5 22.5 44.6 22.5 47.1 22.5 48.6 20.4 48.6 16.3 47.9 17.6 46.3 18.4 44.5 18.4 41.4 18.4 39.3 16.2 39.3 13.3 39.3 10.2 41.4 8 44.7 8 48.4 8 50.4 10.5 50.4 15L50.4 16C50.4 21.2 48.2 24.1 44.5 24.1 41.6 24 39.9 22.5 39.5 20ZM48.4 13.4C48.4 10.8 46.9 9.4 44.8 9.4 42.7 9.4 41.3 10.9 41.3 13.1 41.3 15.4 42.7 16.8 44.8 16.8 46.9 16.8 48.4 15.5 48.4 13.4Z" fill="#7823DC"/></g></g></svg>