<svg viewBox="0 0 32 32" xmlns="http://www.w3.org/2000/svg" xmlns:xlink="http://www.w3.org/1999/xlink" id="Graphic" xml:space="preserve" overflow="hidden"><path d="M3.9 13.2 1.9 12.8C2 12.2 2.2 11.5 2.4 10.9L4.3 11.5C4.1 12.1 4 12.6 3.9 13.2ZM5 9.9 3.2 9.1C3.5 8.5 3.8 7.9 4.2 7.4L5.9 8.5C5.5 8.9 5.2 9.4 5 9.9ZM6.9 7.1 5.4 5.8C5.8 5.3 6.3 4.8 6.8 4.4L8.1 5.9C7.7 6.2 7.3 6.6 6.9 7.1ZM9.5 4.8 8.4 3.1C9 2.7 9.5 2.4 10.1 2.1L11 3.9C10.5 4.2 10 4.5 9.5 4.8ZM12.6 3.3 12 1.4C12.6 1.2 13.3 1 13.9 0.9L14.3 2.9C13.7 2.9 13.1 3.1 12.6 3.3Z" fill="#7823DC"/><path d="M25.2 23.5 17.2 15.5 21.2 11.5 18.4 11.5 14.4 15.5 22.4 23.5Z" fill="#7823DC"/><path d="M2.7 18.7C4.1 19.3 6.2 20.2 7.6 20.9L6.7 22.7C5.9 22.4 4.6 21.7 3.7 21.5 3.3 22.3 2.7 23.7 2.3 24.5L0.4 23.6C1.1 22.3 2.1 19.9 2.7 18.7L2.7 18.7Z" fill="#7823DC" fill-rule="evenodd" clip-rule="evenodd"/><path d="M16.8 0.8 15.8 0.8 15.8 2.8 16.8 2.8C24.1 2.8 30 8.7 30 16 30 23.3 24.1 29.2 16.8 29.2 11.1 29.2 6.3 25.6 4.4 20.6 3.9 21.1 3.5 21.6 2.7 21.9 5 27.4 10.4 31.2 16.7 31.2 25.2 31.2 32 24.4 32 16 32 7.6 25.2 0.8 16.8 0.8Z" fill="#7823DC"/><path d="M3.7 16.5 1.7 16.5C1.7 15.9 1.7 15.2 1.8 14.5L3.8 14.7C3.7 15.3 3.7 15.9 3.7 16.5Z" fill="#7823DC"/></svg>