<svg viewBox="0 0 32 32" xmlns="http://www.w3.org/2000/svg" xmlns:xlink="http://www.w3.org/1999/xlink" overflow="hidden"><defs></defs><g id="Layer_3"><rect x="30" y="17.0684" width="2" height="9" fill="#7823DC"/><path d="M26.6865 30.9463 23.7188 30.9463 24.9404 26.0625 24.3818 24.9463 14.8467 24.9463 13.8467 30.9463 11.2188 30.9463 9.09668 22.458 6.293 19.6533 7.707 18.2393 10.9033 21.4346 12.4043 27.4394 13.1533 22.9463 25.6182 22.9463 26.75 25.21 29.9961 16.7705C29.9512 15.7022 29.4961 13.9463 28 13.9463L9 13.9463 9 11.9463 28 11.9463C30.626 11.9463 32 14.462 32 16.9463L32 17.1319Z" fill="#7823DC"/><rect x="22.9999" y="18.7537" width="2.00021" height="5.38516" fill="#7823DC" transform="matrix(0.928477 -0.371391 0.371391 0.928477 -6.24839 10.4473)"/><rect x="0" y="10" width="12" height="2" fill="#7823DC"/><path d="M8.869 19.946 3.134 19.946 1.995 11.946 1.995 5.977 3.995 5.977 3.995 11.875 4.866 17.946 7.131 17.946 7.987 11.876 7.987 5.977 9.987 5.977 9.978 12.086 8.869 19.946Z" fill="#7823DC"/><path d="M22 27.9346 20 27.9346C18.896 27.9331 18.0014 27.0385 18 25.9346L18 22.9346 24 22.9346 24 25.9346C23.9986 27.0385 23.104 27.9331 22 27.9346ZM20 24.9346 20 25.9346 22.001 25.9346 22.001 24.9346Z" fill="#7823DC"/></g></svg>