<svg viewBox="0 0 32.06 31.98" xmlns="http://www.w3.org/2000/svg" xmlns:xlink="http://www.w3.org/1999/xlink" id="Layer_1" overflow="hidden"><style>
.MsftOfcResponsive_Fill_7823dc {
 fill:#7823DC; 
}
</style>
<defs></defs><path d="M0.06 16.28C0.06 13.1 1.58 10.15 4.23 8.18L4.64 7.88C6.37 6.62 7.16 6.04 7.76 1.3 7.78 1.13 7.84 0.98 7.94 0.84 8.48 0.09 9.86-0.2 11.03 0.17 11.97 0.47 13.55 1.44 13.55 4.54 13.55 5.82 13.03 7.47 12.59 8.64L28.86 8.64C30.43 8.64 31.79 9.76 32.03 11.25 32.18 12.17 31.92 13.1 31.32 13.8 30.73 14.49 29.87 14.89 28.96 14.89L21.4 14.89C21.55 15.42 21.57 16 21.42 16.56 21.18 17.51 20.48 18.26 19.58 18.63 19.87 19.93 19.24 21.33 18.12 21.99 18.05 23.29 17.16 24.43 15.91 24.81 15.58 24.94 15.23 25.01 14.89 25.01L7.41 25.01C7.24 25.01 7.06 25 6.89 24.97 2.99 24.32 0.06 20.59 0.06 16.28ZM9.68 2.03C9 6.97 7.93 7.95 5.82 9.49L5.42 9.79C3.28 11.38 2.06 13.75 2.06 16.29 2.06 19.63 4.27 22.51 7.21 23 7.28 23.01 7.34 23.01 7.4 23.01L14.88 23.01C14.98 23.01 15.08 22.99 15.18 22.94 15.22 22.92 15.26 22.91 15.3 22.9 15.78 22.77 16.12 22.32 16.12 21.82 16.12 21.75 16.11 21.66 16.09 21.57 15.97 21.05 16.29 20.52 16.82 20.38 17.31 20.25 17.66 19.81 17.66 19.3 17.66 18.98 17.52 18.74 17.4 18.59 17.19 18.33 17.12 17.97 17.22 17.65 17.35 17.24 17.76 16.88 18.2 16.88 18.79 16.88 19.35 16.6 19.49 16.07 19.65 15.45 19.32 15 18.98 14.8 18.6 14.57 18.42 14.11 18.53 13.68 18.65 13.25 19.06 12.89 19.51 12.89L28.95 12.89C29.27 12.89 29.58 12.75 29.79 12.5 30.01 12.24 30.1 11.91 30.04 11.57 29.96 11.05 29.43 10.64 28.84 10.64L11.09 10.64C10.75 10.64 10.43 10.47 10.25 10.18 10.07 9.89 10.04 9.53 10.18 9.22 10.56 8.39 11.55 5.94 11.55 4.54 11.55 3.69 11.39 2.58 10.64 2.17 10.3 1.98 9.93 1.99 9.69 2.04ZM9.47 2.1 9.47 2.1Z" class="MsftOfcResponsive_Fill_7823dc" fill="#7823DC"/><rect x="0" y="27" width="29.26" height="2" class="MsftOfcResponsive_Fill_7823dc" fill="#7823DC"/><path d="M24.61 30.3 28.16 28 24.61 25.69 25.7 24.01 31.84 28 25.7 31.98 24.61 30.3Z" class="MsftOfcResponsive_Fill_7823dc" fill="#7823DC"/></svg>