<svg viewBox="0 0 32 32" xmlns="http://www.w3.org/2000/svg" xmlns:xlink="http://www.w3.org/1999/xlink" overflow="hidden"><defs></defs><g id="Layer_3"><path d="M24.0783 2.00867 24.0783 30.0096 3.9794 30.0096 3.9794 2.00867 24.0783 2.00867M26.0783 0.00867 1.9794 0.00867 1.9794 32.0096 26.0783 32.0096 26.0783 0.00867Z" fill="#7823DC"/><path d="M18.515 5.009 7.444 5.009 5.147 1.563 6.812 0.453 8.515 3.009 17.444 3.009 19.147 0.453 20.812 1.563 18.515 5.009Z" fill="#7823DC"/><rect x="5.97946" y="10.0087" width="16" height="2" fill="#7823DC" transform="matrix(-1 -1.22465e-16 1.22465e-16 -1 27.9589 22.0174)"/><rect x="5.97946" y="14.0087" width="16" height="2" fill="#7823DC" transform="matrix(-1 -1.22465e-16 1.22465e-16 -1 27.9589 30.0174)"/><rect x="5.97946" y="18.0087" width="16" height="2" fill="#7823DC" transform="matrix(-1 -1.22465e-16 1.22465e-16 -1 27.9589 38.0174)"/><rect x="5.97946" y="22.0087" width="16" height="2" fill="#7823DC" transform="matrix(-1 -1.22465e-16 1.22465e-16 -1 27.9589 46.0174)"/><rect x="5.97946" y="25.9772" width="12.1084" height="2" fill="#7823DC" transform="matrix(-1 -1.22465e-16 1.22465e-16 -1 24.0673 53.9544)"/><path d="M28.995 0.01 27.995 4.933 27.995 32.009 29.995 32.009 29.995 4.933 28.995 0.01 28.995 0.01Z" fill="#7823DC"/></g></svg>