<svg viewBox="0 0 32 32" xmlns="http://www.w3.org/2000/svg" xmlns:xlink="http://www.w3.org/1999/xlink" id="Layer_1" overflow="hidden"><style>
.MsftOfcResponsive_Fill_7823dc {
 fill:#7823DC; 
}
</style>
<defs></defs><path d="M26 16 26 10.92 26.26 10.92 26.26 8.92 23.74 8.92 23.74 10.92 24 10.92 24 18 30 18 30 30 28 30 28 20 22 20 22 30 20 30 20 7.51 16 7.51 16 5 11 5 11 0 9 0 9 5 4 5 4 7.51 0 7.51 0 32 24 32 24 22 26 22 26 32 32 32 32 16 26 16ZM11 27 11 13 14 13 14 30 6 30 6 13 9 13 9 27 11 27ZM18 30 16 30 16 11 4 11 4 30 2 30 2 9.51 6 9.51 6 7 14 7 14 9.51 18 9.51 18 30Z" class="MsftOfcResponsive_Fill_7823dc" fill="#7823DC"/><path d="M24.94 8.22C26.66 8.22 28.06 6.82 28.06 5.1L28.06 1.98 27.48 1.98 27.48 0 25.48 0 25.48 1.98 24.39 1.98 24.39 0 22.39 0 22.39 1.98 21.82 1.98 21.82 5.1C21.82 6.82 23.22 8.22 24.94 8.22ZM26.06 5.1C26.06 5.72 25.56 6.22 24.94 6.22 24.32 6.22 23.82 5.72 23.82 5.1L23.82 3.98 26.06 3.98 26.06 5.1Z" class="MsftOfcResponsive_Fill_7823dc" fill="#7823DC"/></svg>