<svg viewBox="0 0 32 32" xmlns="http://www.w3.org/2000/svg" xmlns:xlink="http://www.w3.org/1999/xlink" id="Layer_1" xml:space="preserve" overflow="hidden"><g><g><defs><path d="M-0.1 29.5 32.1 29.5 32.1 2.5-0.1 2.5-0.1 29.5Z" id="SVGID_1_" fill="#7823DC"/></defs><defs><path d="M-0.1 2.5 32.1 2.5 32.1 29.5-0.1 29.5-0.1 2.5Z" id="SVGID_00000088099814965026399710000003126916126541108670_" fill="#7823DC"/></defs><clipPath id="SVGID_00000059280645035523276910000014740923807363611271_"><use width="100%" height="100%" xlink:href="#SVGID_1_" overflow="visible"></use></clipPath><clipPath id="SVGID_00000025408403939239247330000001573796281748172190_" clip-path="url(#SVGID_00000059280645035523276910000014740923807363611271_)"><use width="100%" height="100%" xlink:href="#SVGID_00000088099814965026399710000003126916126541108670_" overflow="visible"></use></clipPath><g clip-path="url(#SVGID_00000025408403939239247330000001573796281748172190_)"><defs><path d="M-0.1 29.5 32.1 29.5 32.1 2.5-0.1 2.5-0.1 29.5Z" id="SVGID_00000083780124187437727560000011145325322870766754_" fill="#7823DC"/></defs><clipPath id="SVGID_00000161597149141560409530000011005351158754403519_"><use width="100%" height="100%" xlink:href="#SVGID_00000083780124187437727560000011145325322870766754_" overflow="visible"></use></clipPath><path d="M30.7 29.4 16.9 29.4 16.9 20.6C16.9 17.4 17.2 14.8 17.8 12.9 18.5 10.9 19.7 9.1 21.4 7.6 23.1 6.1 25.3 4.9 27.9 4L28.8 3.7 32 10 30.8 10.4C28.8 11 27.2 12 26.4 13 25.7 13.8 25.3 15 25.1 16.5L30.6 16.5 30.6 29.4 30.7 29.4 30.7 29.4ZM19.1 27.3 28.4 27.3 28.4 18.6 22.8 18.6 22.8 17.6C22.9 15.3 23.5 13.3 24.6 11.9 25.6 10.5 27.1 9.6 29 8.8L27.7 6.3C25.7 7 24.2 7.9 22.9 9 21.4 10.3 20.4 11.8 19.9 13.4 19.3 15.1 19.1 17.5 19.1 20.5L19.1 27.3 19.1 27.3 19.1 27.3Z" fill="#7823DC" clip-path="url(#SVGID_00000161597149141560409530000011005351158754403519_)"/><path d="M14.8 29.4 1 29.4 1 20.6C1 17.4 1.3 14.7 1.9 12.9 2.6 10.9 3.8 9.1 5.5 7.7 7.1 6 9.4 4.9 12 4L12.9 3.6 16.1 10 14.9 10.4C12.9 11 11.4 11.9 10.5 13 9.8 13.8 9.4 15 9.2 16.5L14.7 16.5 14.7 29.4 14.8 29.4 14.8 29.4ZM3.2 27.3 12.5 27.3 12.5 18.6 6.9 18.6 6.9 17.6C7 15.2 7.6 13.3 8.7 11.8 9.6 10.5 11.1 9.6 13.1 8.9L11.8 6.3C9.9 7 8.4 7.9 7 9 5.5 10.3 4.5 11.8 4 13.4 3.6 15.1 3.2 17.5 3.2 20.5L3.2 27.3 3.2 27.3 3.2 27.3Z" fill="#7823DC" clip-path="url(#SVGID_00000161597149141560409530000011005351158754403519_)"/></g></g></g></svg>