<svg viewBox="0 0 32 32" xmlns="http://www.w3.org/2000/svg" xmlns:xlink="http://www.w3.org/1999/xlink" id="Layer_2_00000081623391199903519980000001376657812883862445_" overflow="hidden"><style>
.MsftOfcResponsive_Fill_7823dc {
 fill:#7823DC; 
}
</style>
<path d="M15.8 18.6 15.7 18.5 14.3 19.9 14.4 20C14.8 20.4 14.8 21 14.4 21.4L6.1 29.7C5.7 30.1 5.1 30.1 4.7 29.7L2.3 27.3C1.9 26.9 1.9 26.3 2.3 25.9L10.6 17.6C11 17.2 11.6 17.2 12 17.6L12.1 17.7 13.5 16.3 13.4 16.2C12.2 15 10.3 15 9.2 16.2L0.9 24.5C-0.3 25.7-0.3 27.6 0.9 28.7L3.3 31.1C4.5 32.3 6.4 32.3 7.5 31.1L15.8 22.8C17 21.6 17 19.7 15.8 18.6Z" class="st0 MsftOfcResponsive_Fill_7823dc" fill="#7823DC"/><path d="M16.2 13.4 16.3 13.5 17.7 12.1 17.6 12C17.2 11.6 17.2 11 17.6 10.6L25.9 2.3C26.3 1.9 26.9 1.9 27.3 2.3L29.7 4.7C30.1 5.1 30.1 5.7 29.7 6.1L21.4 14.4C21 14.8 20.4 14.8 20 14.4L19.9 14.3 18.5 15.7 18.6 15.8C19.8 17 21.7 17 22.8 15.8L31.1 7.5C32.3 6.3 32.3 4.4 31.1 3.3L28.7 0.9C27.5-0.3 25.6-0.3 24.5 0.9L16.2 9.2C15 10.4 15 12.3 16.2 13.4Z" class="st0 MsftOfcResponsive_Fill_7823dc" fill="#7823DC"/><g><rect x="6.8" y="4.6" width="2" height="6.4" class="st0 MsftOfcResponsive_Fill_7823dc" fill="#7823DC" transform="matrix(0.7071 -0.7071 0.7071 0.7071 -3.2102 7.75)"/><rect x="11" y="2.6" width="2" height="6.4" class="st0 MsftOfcResponsive_Fill_7823dc" fill="#7823DC"/><rect x="2.6" y="11" width="6.4" height="2" class="st0 MsftOfcResponsive_Fill_7823dc" fill="#7823DC"/></g><g><rect x="23.3" y="21.1" width="2" height="6.4" class="st0 MsftOfcResponsive_Fill_7823dc" fill="#7823DC" transform="matrix(0.7071 -0.7071 0.7071 0.7071 -10.0447 24.2501)"/><rect x="19" y="23" width="2" height="6.4" class="st0 MsftOfcResponsive_Fill_7823dc" fill="#7823DC"/><rect x="23" y="19" width="6.4" height="2" class="st0 MsftOfcResponsive_Fill_7823dc" fill="#7823DC"/></g></svg>