<svg viewBox="0 0 32 32" xmlns="http://www.w3.org/2000/svg" xmlns:xlink="http://www.w3.org/1999/xlink" overflow="hidden"><style>
.MsftOfcResponsive_Fill_7823dc {
 fill:#7823DC; 
}
</style>
<defs></defs><g id="Layer_3"><path d="M14.1431 20.0205C12.7624 20.0205 11.6431 18.9012 11.6431 17.5205 11.6431 16.1398 12.7624 15.0205 14.1431 15.0205 15.5238 15.0205 16.6431 16.1398 16.6431 17.5205 16.6415 18.9006 15.5231 20.0189 14.1431 20.0205ZM14.1431 17.0205C13.8669 17.0205 13.6431 17.2444 13.6431 17.5205 13.6431 17.7967 13.8669 18.0205 14.1431 18.0205 14.4192 18.0205 14.6431 17.7967 14.6431 17.5205 14.6429 17.2444 14.4191 17.0207 14.1431 17.0205Z" class="MsftOfcResponsive_Fill_7823dc" fill="#7823DC"/><path d="M11.601 19.52 10.143 19.52 10.143 26.02 12.143 26.02 12.143 22.864 10.343 20.464 11.601 19.52Z" class="MsftOfcResponsive_Fill_7823dc" fill="#7823DC"/><path d="M16.143 19.52 16.143 19.531 16.151 19.52 16.143 19.52Z" class="MsftOfcResponsive_Fill_7823dc" fill="#7823DC"/><path d="M16.685 19.52 17.943 20.464 16.143 22.864 16.143 26.02 18.143 26.02 18.143 19.52 16.685 19.52Z" class="MsftOfcResponsive_Fill_7823dc" fill="#7823DC"/><path d="M14.143 22.197 12.143 19.531 12.143 22.864 14.143 25.531 16.143 22.864 16.143 19.531 14.143 22.197Z" class="MsftOfcResponsive_Fill_7823dc" fill="#7823DC"/><path d="M12.135 19.52 11.601 19.52 10.343 20.464 12.143 22.864 12.143 19.531 12.135 19.52Z" class="MsftOfcResponsive_Fill_7823dc" fill="#7823DC"/><path d="M16.685 19.52 16.151 19.52 16.143 19.531 16.143 22.864 17.943 20.464 16.685 19.52Z" class="MsftOfcResponsive_Fill_7823dc" fill="#7823DC"/><path d="M23.209 2.03961C23.6974 2.04016 24.0931 2.4359 24.0937 2.92423L24.0937 29.155C24.0931 29.6433 23.6974 30.0391 23.2091 30.0396L8.97828 30.0396C8.48995 30.0391 8.09421 29.6433 8.09366 29.155L8.09366 2.92423C8.09421 2.4359 8.48995 2.04016 8.97828 2.03961L23.209 2.03961M23.209 0.03961 8.97828 0.03961C7.38515 0.03961 6.09366 1.3311 6.09366 2.92423L6.09366 29.155C6.09367 30.7481 7.38515 32.0396 8.97828 32.0396L23.209 32.0396C24.8022 32.0396 26.0937 30.7481 26.0937 29.155L26.0937 2.92423C26.0937 1.3311 24.8022 0.0396211 23.2091 0.0396101Z" class="MsftOfcResponsive_Fill_7823dc" fill="#7823DC"/><path d="M18.3193 15.8862 15.727 13.5361C15.1304 13.4977 14.5372 13.4179 13.9517 13.2974 13.2987 13.1376 12.6726 12.8833 12.0933 12.5425 11.554 12.2312 11.0858 11.8106 10.7188 11.3076 9.95101 10.2715 9.95121 8.85522 10.7192 7.81934 11.086 7.31666 11.5539 6.89621 12.0928 6.585 12.6721 6.24443 13.298 5.99013 13.9507 5.83012 15.3909 5.4766 16.8952 5.4766 18.3355 5.83012 18.988 5.99004 19.6138 6.24434 20.1929 6.585 20.7322 6.89624 21.2004 7.31687 21.5674 7.81986 22.335 8.85576 22.335 10.2718 21.5674 11.3077 21.237 11.709 20.8561 12.066 20.4341 12.3697ZM16.1431 7.56348C15.57 7.56107 14.9989 7.62996 14.4429 7.76855 13.979 7.88059 13.5339 8.05955 13.1216 8.2998 12.8226 8.46952 12.5613 8.69828 12.3535 8.97217 12.0731 9.31644 12.0729 9.81028 12.353 10.1548 12.561 10.429 12.8227 10.6579 13.122 10.8276 13.5341 11.068 13.9791 11.2469 14.4428 11.3589 15.0252 11.4655 15.6138 11.5345 16.205 11.5654L16.5551 11.5874 17.8594 12.77 18.9263 10.9961 19.0903 10.8764C19.3939 10.6635 19.6762 10.4216 19.9331 10.1543 20.2132 9.80996 20.213 9.31624 19.9326 8.97215 19.7248 8.69814 19.4633 8.46936 19.1641 8.29978 18.752 8.05945 18.307 7.88048 17.8433 7.76853 17.2872 7.62995 16.7161 7.56107 16.1431 7.56348Z" class="MsftOfcResponsive_Fill_7823dc" fill="#7823DC"/></g></svg>