<svg viewBox="0 0 32 32" xmlns="http://www.w3.org/2000/svg" xmlns:xlink="http://www.w3.org/1999/xlink" id="Layer_5" overflow="hidden"><defs></defs><path d="M10.98 14 2 14 2 28.31 5.69 28.31 5.69 32 28 32 28 14 10.98 14ZM9.44 16 12.15 26.31 8.91 26.31 8.91 16 9.44 16ZM13.48 23.47 14.93 23.47 14.93 26.31 14.23 26.31 13.48 23.47ZM4 16 6.91 16 6.91 26.31 4 26.31 4 16ZM26 30 23.18 30 23.18 20 21.18 20 21.18 30 7.69 30 7.69 28.31 14.75 28.31C14.75 28.31 14.75 28.31 14.75 28.31L16.92 28.31 16.92 21.47 12.95 21.47 11.51 16 26 16 26 30Z" stroke-width="0" fill="#7823DC"/><path d="M16.85 13C20.4 13 23.29 10.11 23.29 6.56 23.29 3.01 20.4 0.11 16.85 0.11 13.3 0.11 10.41 3 10.41 6.55 10.41 10.1 13.3 12.99 16.85 12.99ZM16.85 11C14.4 11 12.41 9.01 12.41 6.56 12.41 5.95 12.53 5.37 12.76 4.84L21.07 7.89C20.5 9.68 18.84 11 16.85 11ZM20.6 4.2C20.91 4.69 21.12 5.23 21.22 5.82L19.02 5.01 20.6 4.2ZM19.08 2.73 16.47 4.07 14 3.16C14.77 2.51 15.76 2.1 16.84 2.1 17.66 2.1 18.41 2.34 19.07 2.72Z" stroke-width="0" fill="#7823DC"/></svg>