<svg viewBox="0 0 32 32" xmlns="http://www.w3.org/2000/svg" xmlns:xlink="http://www.w3.org/1999/xlink" id="Layer_1" overflow="hidden"><style>
.MsftOfcResponsive_Fill_7823dc {
 fill:#7823DC; 
}
</style>
<defs></defs><path d="M16 0C7.18 0 0 7.18 0 16 0 24.82 7.18 32 16 32 24.82 32 32 24.82 32 16 32 7.18 24.82 0 16 0ZM2 16C2 10 5.8 4.86 11.12 2.88L11.12 29.12C5.8 27.14 2 22 2 16ZM17 29.96C16.67 29.99 16.34 30 16 30 15.66 30 15.33 29.99 15 29.96 14.36 29.92 13.73 29.83 13.12 29.71L13.12 2.29C13.73 2.17 14.36 2.08 15 2.04 15.33 2.01 15.66 2 16 2 16.34 2 16.67 2.01 17 2.04 17.64 2.08 18.26 2.17 18.87 2.29L18.87 29.71C18.26 29.83 17.64 29.92 17 29.96ZM20.87 29.13 20.87 2.87C26.2 4.86 30 9.99 30 16 30 22.01 26.2 27.14 20.87 29.13Z" class="MsftOfcResponsive_Fill_7823dc" fill="#7823DC"/><rect x="15" y="5" width="2" height="2" class="MsftOfcResponsive_Fill_7823dc" fill="#7823DC"/><rect x="15" y="9" width="2" height="2" class="MsftOfcResponsive_Fill_7823dc" fill="#7823DC"/><rect x="15" y="13" width="2" height="2" class="MsftOfcResponsive_Fill_7823dc" fill="#7823DC"/><rect x="15" y="17" width="2" height="2" class="MsftOfcResponsive_Fill_7823dc" fill="#7823DC"/><rect x="15" y="21" width="2" height="2" class="MsftOfcResponsive_Fill_7823dc" fill="#7823DC"/><rect x="15" y="25" width="2" height="2" class="MsftOfcResponsive_Fill_7823dc" fill="#7823DC"/></svg>