<svg viewBox="0 0 32 32" xmlns="http://www.w3.org/2000/svg" xmlns:xlink="http://www.w3.org/1999/xlink" xml:space="preserve" overflow="hidden"><style>
.MsftOfcResponsive_Fill_7823dc {
 fill:#7823DC; 
}
</style>
<g id="Layer_3"></g><g id="Layer_1"></g><g id="Layer_2"><g><path d="M17.85 17.44 13.99 17.44 13.2 14.84C13.12 14.84 13.04 14.76 13.04 14.76L10.36 15.31 8.47 11.93 10.28 9.96C10.28 9.88 10.28 9.8 10.28 9.72L8.48 7.77 10.37 4.39 13.05 4.94C13.13 4.94 13.21 4.86 13.21 4.86L14.08 2.26 17.94 2.26 18.81 4.93C18.89 4.93 18.97 5.01 18.97 5.01L21.65 4.46 23.54 7.76 21.73 9.8 21.73 9.9C21.73 9.98 21.73 9.98 21.73 10.06L23.54 12.03 21.65 15.41 18.97 14.86C18.89 14.86 18.81 14.94 18.81 14.94L17.85 17.44 17.85 17.44 17.85 17.44ZM15.33 15.71 16.59 15.71 17.3 13.59 17.69 13.43C17.93 13.35 18.08 13.19 18.24 13.12L18.56 12.88 20.77 13.35 21.4 12.25 19.98 10.68 19.98 10.29C19.98 10.13 19.98 9.98 19.98 9.9L19.98 9.11 21.4 7.54 20.77 6.52 18.56 6.99 18.24 6.68C18.08 6.52 17.85 6.44 17.69 6.37L17.3 6.2 16.59 4.08 15.33 4.08 14.62 6.2 14.3 6.28C14.06 6.36 13.91 6.52 13.67 6.59L13.35 6.83 11.22 6.36 10.59 7.46 12.09 9.11 12.02 9.5C12.02 9.74 12.02 9.97 12.02 10.13L12.1 10.52 10.6 12.17 11.23 13.27 13.36 12.8 13.68 13.04C13.84 13.2 14.07 13.28 14.31 13.35L14.7 13.51 15.33 15.71 15.33 15.71 15.33 15.71Z" class="MsftOfcResponsive_Fill_7823dc" fill="#7823DC"/><path d="M15.96 12.57C14.46 12.57 13.28 11.39 13.28 9.9 13.28 8.41 14.46 7.23 15.96 7.23 17.46 7.23 18.64 8.41 18.64 9.9 18.64 11.31 17.46 12.57 15.96 12.57L15.96 12.57ZM15.96 8.95C15.49 8.95 15.09 9.34 15.09 9.82 15.09 10.29 15.48 10.69 15.96 10.69 16.43 10.69 16.83 10.3 16.83 9.82 16.83 9.34 16.43 8.95 15.96 8.95L15.96 8.95Z" class="MsftOfcResponsive_Fill_7823dc" fill="#7823DC"/></g><path d="M28.05 13.37 26 18.59 25.41 18.11 24.32 17.24 23.57 18.41 22.47 20.14 19.56 21.92 19.09 22.21 18.99 22.75 18.57 24.99 17.28 26.58 16.5 27.55 17.47 28.33 20.4 30.69 21.37 31.47 22.15 30.5 23.45 28.89 29.23 25.68 31.41 14.83 31.55 14.1 30.97 13.63 30 12.86 28.68 11.8 28.05 13.37 28.05 13.37ZM30.18 14.61 28.11 24.88 22.63 27.93 21.17 29.74 18.24 27.38 19.72 25.54 20.2 22.99 23.36 21.06 24.62 19.09 25.59 19.87 25.34 20.53 24.24 22.65 25.14 23.37 26.33 21.17 26.33 21.17 29.21 13.83 30.18 14.61 30.18 14.61Z" class="MsftOfcResponsive_Fill_7823dc" fill="#7823DC"/><path d="M21.42 32 15.97 27.61 18.22 24.83 18.76 21.98 22.21 19.87 24.24 16.69 25.85 17.98 28.52 11.18 31.97 13.95 31.79 14.9 29.57 25.93 23.7 29.18 21.42 32 21.42 32ZM17.02 27.5 21.3 30.95 23.26 28.57 28.89 25.45 31.13 14.26 28.83 12.41 26.16 19.21 24.41 17.8 22.66 20.47 19.42 22.45 18.85 25.23 17.02 27.5 17.02 27.5ZM21.23 30.25 17.72 27.42 19.38 25.36 19.88 22.74 23.11 20.77 24.55 18.52 26.06 19.73 25.71 20.65 24.73 22.54 25.04 22.79 26 21.03 29.07 13.21 30.62 14.45 28.47 25.11 22.9 28.2 21.23 30.25 21.23 30.25ZM18.77 27.31 21.11 29.2 22.44 27.59 27.77 24.63 29.76 14.76 29.37 14.44 26.76 21.08 26.78 21.1 26.65 21.35 25.24 23.94 23.75 22.74 25.13 19.98 24.7 19.63 23.55 21.37 20.53 23.21 20 25.76 18.77 27.31 18.77 27.31Z" class="MsftOfcResponsive_Fill_7823dc" fill="#7823DC"/><path d="M3.28 11.79 1.96 12.85 0.99 13.63 0.41 14.1 0.55 14.83 2.73 25.68 8.51 28.89 9.81 30.5 10.59 31.47 11.56 30.69 14.49 28.33 15.46 27.55 14.68 26.58 13.39 24.99 12.97 22.75 12.87 22.21 12.4 21.92 9.49 20.14 8.39 18.41 7.64 17.24 6.55 18.11 5.96 18.59 3.9 13.37 3.28 11.79 3.28 11.79ZM2.74 13.82 5.62 21.16 5.62 21.16 6.81 23.36 7.71 22.64 6.61 20.52 6.36 19.86 7.33 19.08 8.59 21.05 11.75 22.98 12.23 25.53 13.71 27.37 10.78 29.73 9.32 27.92 3.84 24.87 1.77 14.61 2.74 13.82 2.74 13.82Z" class="MsftOfcResponsive_Fill_7823dc" fill="#7823DC"/><path d="M10.54 32 8.27 29.19 2.4 25.93 0 13.95 3.45 11.18 6.12 17.98 7.73 16.69 9.76 19.87 13.21 21.98 13.75 24.83 16 27.61 10.54 32 10.54 32ZM3.06 25.45 8.8 28.67 10.65 30.96 14.93 27.51 13.02 25.07 12.52 22.45 9.16 20.35 7.54 17.8 5.79 19.2 3.12 12.4 0.82 14.25 0.92 14.76 3.06 25.45 3.06 25.45ZM10.73 30.25 9.08 28.21 3.51 25.12 1.36 14.46 2.91 13.22 5.99 21.06 6.94 22.81 7.25 22.56 6.28 20.7 5.91 19.74 7.42 18.53 8.85 20.78 12.08 22.75 12.58 25.37 14.24 27.43 10.73 30.25 10.73 30.25ZM4.18 24.63 9.62 27.68 10.84 29.2 13.18 27.31 11.85 25.6 11.4 23.22 8.26 21.26 7.23 19.64 6.8 19.99 6.96 20.4 8.19 22.75 6.7 23.95 5.16 21.1 5.19 21.07 2.58 14.43 2.19 14.75 4.18 24.63 4.18 24.63Z" class="MsftOfcResponsive_Fill_7823dc" fill="#7823DC"/></g></svg>