<svg viewBox="0 0 32 32" xmlns="http://www.w3.org/2000/svg" xmlns:xlink="http://www.w3.org/1999/xlink" id="Graphic" overflow="hidden"><defs></defs><path d="M16 19.16 5.37 7.09 11.37 1.79 22 13.86ZM8.19 7.26 16.19 16.33 19.19 13.68 11.19 4.61Z" fill="#7823DC"/><path d="M7.45 7.93 4 4 8.46 0 11.94 4ZM6.79 4.17 7.62 5.1 9.12 3.78 8.29 2.84Z" fill="#7823DC"/><rect x="18" y="21.99" width="10" height="2" fill="#7823DC"/><rect x="6" y="29.99" width="20" height="2" fill="#7823DC"/><path d="M16 31C9.37258 31.0025 3.99796 25.632 3.99545 19.0046 3.99403 15.2724 5.72917 11.7521 8.69 9.48L9.91 11.07C7.43809 12.9563 5.99127 15.8906 6 19 5.9133 24.5222 10.3196 29.0691 15.8418 29.1558 20.0861 29.2224 23.91 26.6022 25.38 22.62L27.25 23.34C25.4252 27.9584 20.9658 30.9948 16 31Z" fill="#7823DC"/></svg>