<svg viewBox="0 0 32 32" xmlns="http://www.w3.org/2000/svg" xmlns:xlink="http://www.w3.org/1999/xlink" id="Layer_5" overflow="hidden"><style>
.MsftOfcResponsive_Fill_7823dc {
 fill:#7823DC; 
}
</style>
<defs></defs><path d="M26 0 26 2 6 2 6 0 0 0 0 32 32 32 32 0 26 0ZM23.53 14 26 14 26 16.86 23.53 14ZM26 12 6 12 6 10 26 10 26 12ZM6 14.53 8.42 17.34C7.56 17.37 6.73 17.6 6 18.01L6 14.53ZM6 22.49 8.06 22.49C8.2 22.49 8.32 22.61 8.32 22.75 8.32 22.89 8.2 23.01 8.06 23.01L6 23.01 6 22.5ZM6.24 25 8.06 25C9.3 25 10.32 23.99 10.32 22.74 10.32 21.49 9.31 20.48 8.06 20.48L6.06 20.48C6.88 19.52 8.18 19.1 9.47 19.42 10.62 19.71 11.57 20.67 11.84 21.83 12.09 22.88 11.86 23.91 11.22 24.72 10.58 25.53 9.63 25.99 8.6 25.99 7.7 25.99 6.87 25.62 6.25 24.99ZM13.79 21.38C13.59 20.52 13.17 19.75 12.6 19.11L12.6 19.11C12.6 19.11 8.19 14 8.19 14L20.89 14 26.41 20.4C26.79 20.82 27.06 21.31 27.18 21.84 27.43 22.89 27.2 23.92 26.56 24.73 25.92 25.53 24.97 26 23.94 26L12.76 26C12.76 26 12.77 25.98 12.78 25.98 13.8 24.69 14.17 23.02 13.78 21.39ZM26 4 26 8 6 8 6 4 26 4ZM4 30 2 30 2 2 4 2 4 19.94C4 19.94 4 19.94 4 19.94L4 19.94 4 29.99ZM6 30 6 28 26 28 26 30 6 30ZM30 30 28 30 28 26.12C28 26.12 28.09 26.03 28.13 25.97 29.15 24.68 29.52 23.01 29.13 21.38 28.94 20.57 28.55 19.82 28 19.18L28 2 30 2 30 30Z" class="MsftOfcResponsive_Fill_7823dc" fill="#7823DC"/><rect x="20.04" y="5" width="3.45" height="2" class="MsftOfcResponsive_Fill_7823dc" fill="#7823DC"/><rect x="14.28" y="5" width="3.45" height="2" class="MsftOfcResponsive_Fill_7823dc" fill="#7823DC"/><rect x="8.51" y="5" width="3.45" height="2" class="MsftOfcResponsive_Fill_7823dc" fill="#7823DC"/></svg>