<svg viewBox="0 0 32 32" xmlns="http://www.w3.org/2000/svg" xmlns:xlink="http://www.w3.org/1999/xlink" id="Layer_1" overflow="hidden"><g><path d="M8.3 18.9 10.2 20.8 10.3 20.9 14.9 20.9 16.9 18.9 8.3 18.9ZM3.9 18.9 3.9 32 32 32 32 18.9 3.9 18.9ZM30 30 5.9 30 5.9 20.9 30 20.9 30 30ZM8.3 18.9 10.2 20.8 10.3 20.9 14.9 20.9 16.9 18.9 8.3 18.9Z" fill="#7823DC"/><rect x="8.5" y="20.8" width="2" height="7.5" fill="#7823DC"/><rect x="13.2" y="21.6" width="15" height="2" fill="#7823DC"/><rect x="13.2" y="25.4" width="7.5" height="2" fill="#7823DC"/><rect x="24.5" y="25.4" width="3.8" height="2" fill="#7823DC"/></g><g><path d="M14.2 21.6 13.3 22.5 13.3 23.6 14.9 23.6 16.9 21.6 14.2 21.6ZM19.9 0 0 19.9 5.9 25.8 5.9 23.1 2.7 19.9 4.7 17.9 6 16.6 19.9 2.7 26.5 9.3 16.9 18.9 14.9 20.9 17.6 20.9 29.2 9.3 19.9 0ZM8.5 25.7 8.5 28.2 10.2 28.2 10.5 27.9 10.5 25.2 9.3 26.4 8.5 25.7Z" fill="#7823DC"/><path d="M10.5 21.1 10.5 22.6 9.9 23.2 8.5 21.8 8.5 20.9 7.6 20.9 4.6 17.9 6 16.6 8.3 18.9 10.1 20.8Z" fill="#7823DC"/><rect x="7.1" y="9.7" width="15" height="1.9" fill="#7823DC" transform="matrix(0.707 -0.7072 0.7072 0.707 -3.2277 13.4224)"/><rect x="10.8" y="15" width="7.5" height="1.9" fill="#7823DC" transform="matrix(0.7071 -0.7071 0.7071 0.7071 -6.9785 14.9723)"/><rect x="19.3" y="8.3" width="3.7" height="1.9" fill="#7823DC" transform="matrix(0.7071 -0.7071 0.7071 0.7071 -0.3492 17.7184)"/></g></svg>