<svg viewBox="0 0 32 32" xmlns="http://www.w3.org/2000/svg" xmlns:xlink="http://www.w3.org/1999/xlink" overflow="hidden"><defs></defs><g id="Layer_3"><path d="M15.9539 2C16.0329 2 16.1129 2.00714 16.1931 2.01263 16.2759 2.01837 16.3587 2.02386 16.4383 2.02777L16.6579 2.03711C16.7786 2.04181 16.8993 2.04486 17.0222 2.05835 17.0557 2.06189 17.0889 2.06464 17.1221 2.06665 17.3815 2.09747 17.6636 2.14565 18.0004 2.21832L18.1281 2.24969C18.384 2.30853 18.6353 2.37708 18.8783 2.45447 18.9682 2.48291 19.0567 2.51355 19.1399 2.54247 19.3401 2.61284 19.5366 2.69024 19.7362 2.77562L19.835 2.81725C19.9044 2.84636 19.974 2.87499 20.0373 2.90447 20.218 2.98931 20.3932 3.08373 20.5726 3.18194 20.7721 3.29046 20.9798 3.41494 21.2039 3.55999L21.3335 3.6433C21.3965 3.68358 21.46 3.7233 21.5231 3.76775 21.6727 3.8731 21.8152 3.98668 21.9581 4.09984 22.0429 4.1671 22.1275 4.23418 22.21 4.30419 22.3507 4.42351 22.4881 4.54552 22.6226 4.67327 22.6845 4.73205 22.744 4.79308 22.8038 4.85393L22.8541 4.90502 22.901 4.95263C23.0121 5.06542 23.1238 5.1773 23.2305 5.29839 23.3387 5.42101 23.4392 5.55016 23.5405 5.6787L23.5738 5.72106C23.6936 5.87365 23.8092 6.02862 23.9227 6.19262 24.0389 6.35943 24.1527 6.52752 24.255 6.69597 24.2963 6.76452 24.3351 6.8344 24.3743 6.90429L24.4064 6.96148C24.5201 7.16248 24.6264 7.36754 24.7234 7.57183L24.7568 7.64232 24.815 7.76726C25.0733 8.34136 25.2731 8.94 25.4113 9.55413L25.4121 9.55864 25.423 9.60912C25.4672 9.81347 25.5091 10.0189 25.5403 10.2278 25.544 10.301 25.5496 10.3748 25.5596 10.4554 25.5997 10.7785 25.6235 11.1035 25.6309 11.4291 25.6327 11.5011 25.6373 11.5737 25.6446 11.652L25.6449 11.6695C25.6345 11.7687 25.626 11.868 25.6231 11.9698 25.6166 12.3252 25.5909 12.68 25.5459 13.0326 25.5342 13.1175 25.5153 13.1999 25.4979 13.2828L25.4515 13.5113C25.398 13.7916 25.3382 14.0868 25.2643 14.3459 25.2256 14.4814 25.1787 14.6126 25.1327 14.7445L25.0977 14.8452C24.9952 15.1417 24.9041 15.3778 24.8109 15.5886 24.7386 15.7522 24.6609 15.9112 24.5797 16.0702 24.463 16.2989 24.3373 16.5217 24.1953 16.7516 24.1028 16.9016 24.0108 17.0504 23.9105 17.1946 23.7831 17.3779 23.6328 17.5729 23.423 17.8272L23.3127 17.9622C23.2439 18.0468 23.1761 18.1321 23.1023 18.2127 22.9258 18.4057 22.7251 18.5956 22.4779 18.8213 22.4162 18.8778 22.3559 18.9356 22.2959 18.9936 22.2545 19.0336 22.2143 19.0748 22.1684 19.1131 22.1289 19.1463 22.0906 19.1808 22.0521 19.2175 20.0081 20.8841 18.7771 23.3474 18.6712 25.9827L13.2702 25.9826C13.1525 23.3429 11.9095 20.8801 9.85585 19.2175 9.81802 19.1816 9.77921 19.1465 9.73885 19.1127 9.69421 19.0754 9.65362 19.0339 9.61185 18.9936 9.55132 18.9352 9.49057 18.8769 9.42902 18.8207 9.18192 18.5948 8.98129 18.405 8.80515 18.2125 8.73154 18.1321 8.664 18.0471 8.5954 17.9626L8.4845 17.8268C8.27417 17.5718 8.12399 17.3769 7.99744 17.1949 7.89673 17.0502 7.80456 16.9008 7.71177 16.7505 7.56982 16.5205 7.44442 16.2981 7.32817 16.0704 7.24683 15.9112 7.16898 15.7515 7.09637 15.5873 7.00371 15.3778 6.91277 15.1421 6.81003 14.8453L6.77525 14.7453C6.72915 14.6131 6.68217 14.4816 6.6434 14.3457 6.56959 14.087 6.50989 13.7922 6.45625 13.5117L6.41 13.2838C6.39254 13.2005 6.37358 13.1175 6.36176 13.0325 6.31681 12.681 6.29115 12.3273 6.28489 11.973 6.28233 11.8855 6.27562 11.7993 6.26472 11.6899L6.2649 11.6478C6.27024 11.5755 6.27479 11.503 6.27653 11.4338 6.28403 11.1042 6.30822 10.7753 6.34901 10.4482 6.35784 10.3768 6.36327 10.3065 6.36731 10.2283 6.39855 10.0193 6.44081 9.81187 6.48959 9.58586L6.49087 9.57951C6.62974 8.95541 6.83188 8.34709 7.09417 7.764L7.15334 7.63729 7.18266 7.57546C7.28166 7.36678 7.38761 7.16246 7.50437 6.95614L7.53228 6.90633C7.57171 6.8359 7.61078 6.76546 7.64903 6.70205 7.7545 6.52852 7.86797 6.3608 7.98684 6.19005 8.10055 6.02581 8.21966 5.86657 8.34002 5.71374L8.39025 5.65014C8.48396 5.53148 8.57691 5.41214 8.67905 5.29644 8.78518 5.17589 8.89838 5.06255 9.01105 4.94823L9.053 4.9057 9.10674 4.85107C9.16546 4.79138 9.22382 4.73145 9.28588 4.67255 9.41967 4.54535 9.55734 4.42322 9.69836 4.30365 9.78079 4.23376 9.86528 4.16681 9.94868 4.10065 10.0921 3.98706 10.2347 3.87329 10.3864 3.76648 10.4474 3.72333 10.5109 3.68378 10.5739 3.64348L10.7014 3.56164C10.9285 3.41464 11.1359 3.29033 11.3398 3.17937 11.5145 3.08373 11.6896 2.98931 11.8655 2.90673 11.9336 2.87499 12.0032 2.84636 12.0726 2.81725L12.1768 2.77337C12.3711 2.69024 12.5676 2.61284 12.7626 2.5443 12.851 2.51354 12.9392 2.48308 13.0324 2.4536 13.2736 2.37682 13.5252 2.30822 13.7784 2.24999L13.9291 2.21245C14.2398 2.14645 14.5163 2.09911 14.7771 2.06774L14.8103 2.06652 14.89 2.05786C15.0084 2.04486 15.1291 2.04186 15.2498 2.03711L15.4665 2.02789C15.549 2.02389 15.6318 2.01837 15.7146 2.01263 15.7947 2.00714 15.8748 2 15.9539 2M15.9539 0C15.7613 0 15.5645 0.02081 15.3699 0.03021 15.1369 0.04181 14.9017 0.04462 14.6724 0.0697 14.6542 0.0717 14.6366 0.0707 14.6184 0.0727 14.2444 0.11415 13.8769 0.17884 13.5133 0.25611 13.4522 0.26905 13.3928 0.28645 13.332 0.30037 13.0254 0.370863 12.7233 0.45334 12.4258 0.5478 12.3179 0.58192 12.2113 0.61842 12.1048 0.65553 11.8628 0.74055 11.6246 0.833527 11.3902 0.93446 11.2665 0.98695 11.1421 1.0373 11.0205 1.09394 10.8023 1.19636 10.5903 1.30952 10.3794 1.425 10.1175 1.56752 9.8638 1.72126 9.61438 1.8827 9.48681 1.9657 9.35692 2.04493 9.2327 2.13264 9.05221 2.25978 8.8797 2.39589 8.70687 2.53273 8.60508 2.61348 8.50373 2.69429 8.40463 2.77833 8.23476 2.92233 8.0689 3.06977 7.90755 3.22322 7.81246 3.31349 7.72155 3.40742 7.62942 3.50074 7.47608 3.65651 7.32216 3.81086 7.1777 3.97499 7.03601 4.13545 6.90451 4.30464 6.77163 4.47255 6.62288 4.66145 6.47945 4.85355 6.34234 5.05165 6.20284 5.25203 6.06683 5.45436 5.93985 5.66328 5.87759 5.76649 5.81942 5.87178 5.76037 5.97694 5.62327 6.21919 5.49498 6.46637 5.37549 6.71846 5.33887 6.79609 5.30149 6.87287 5.26657 6.95146 4.9452 7.66647 4.69875 8.41284 4.53118 9.17863L4.53 9.1861C4.47139 9.45691 4.41736 9.72943 4.37863 10.0066 4.36938 10.0726 4.37237 10.1365 4.36421 10.2024 4.31555 10.5936 4.28654 10.987 4.27727 11.3811 4.27509 11.4679 4.26351 11.5564 4.26315 11.6428 4.26308 11.6594 4.26053 11.6753 4.26053 11.6919 4.26053 11.8074 4.28244 11.9169 4.28579 12.0315 4.29436 12.4582 4.32607 12.8841 4.38079 13.3073 4.40817 13.5045 4.45491 13.6939 4.49204 13.8878 4.55704 14.2279 4.62638 14.5654 4.72023 14.8944 4.77892 15.1002 4.85064 15.2988 4.92023 15.4998 5.02559 15.8042 5.13801 16.1038 5.26732 16.3962 5.35506 16.5947 5.44884 16.7878 5.54713 16.9802 5.69057 17.2612 5.845 17.5338 6.00992 17.801 6.12192 17.9825 6.23403 18.1622 6.35555 18.3369 6.53918 18.601 6.73744 18.8518 6.94167 19.0994 7.07026 19.2553 7.1936 19.414 7.32997 19.563 7.56646 19.8214 7.82115 20.0606 8.07977 20.297 8.20617 20.4124 8.32354 20.5362 8.45489 20.6462 8.48227 20.6691 8.50564 20.6964 8.53324 20.7191 10.2262 22.0668 11.231 24.0984 11.2748 26.2619L11.2748 27.9826 20.6666 27.9828 20.6667 26.262C20.6976 24.103 21.6906 22.0704 23.3747 20.719 23.4024 20.6963 23.4258 20.6689 23.4533 20.6459 23.5843 20.5363 23.7013 20.4129 23.8272 20.2978 24.0862 20.0611 24.3412 19.8216 24.578 19.5628 24.7141 19.4141 24.8374 19.2556 24.9658 19.1 25.1704 18.8521 25.3689 18.6007 25.5528 18.3363 25.6739 18.1619 25.7858 17.9829 25.8974 17.8018 26.0628 17.5341 26.2174 17.261 26.3612 16.9793 26.4592 16.7873 26.5528 16.5949 26.6403 16.397 26.7698 16.1041 26.8824 15.804 26.9879 15.499 27.0574 15.2984 27.129 15.1 27.1877 14.8944 27.2816 14.5652 27.351 14.2273 27.4161 13.8868 27.4531 13.6934 27.4997 13.5044 27.5271 13.3077 27.5821 12.8829 27.6139 12.4553 27.6224 12.027 27.6256 11.9139 27.6474 11.8058 27.6474 11.6918 27.6474 11.6755 27.6448 11.6597 27.6448 11.6434 27.6445 11.5557 27.6327 11.466 27.6304 11.3779 27.6211 10.9849 27.5922 10.5926 27.5437 10.2025 27.5355 10.1365 27.5385 10.0727 27.5293 10.0066 27.4905 9.72938 27.4365 9.45686 27.3779 9.18605L27.3766 9.17866C27.2089 8.41253 26.9624 7.66583 26.6408 6.95051 26.6063 6.87275 26.5691 6.79658 26.5329 6.71974 26.413 6.46693 26.2845 6.21927 26.1473 5.97674 26.0883 5.87163 26.0302 5.76647 25.9681 5.66344 25.8407 5.45373 25.7042 5.25072 25.5642 5.04967 25.4309 4.85717 25.2917 4.67022 25.1474 4.48626 25.0109 4.31326 24.8755 4.13952 24.7297 3.97448 24.5858 3.81109 24.4324 3.65734 24.2798 3.50225 24.187 3.40819 24.0954 3.31353 23.9996 3.22259 23.8386 3.06959 23.6732 2.92259 23.5037 2.7788 23.4044 2.69457 23.3028 2.61358 23.2007 2.53264 23.0279 2.39564 22.8552 2.25957 22.6747 2.13244 22.5511 2.04522 22.4218 1.96624 22.2949 1.88366 22.0451 1.72191 21.7909 1.5678 21.5284 1.42504 21.3175 1.30956 21.1054 1.1964 20.8872 1.09398 20.7657 1.03734 20.6412 0.98698 20.5176 0.9345 20.2827 0.83404 20.0445 0.741063 19.803 0.65557 19.6964 0.61846 19.59 0.5819 19.4821 0.54772 19.1847 0.452987 18.8828 0.37059 18.5764 0.30053 18.5154 0.28653 18.4557 0.26922 18.3944 0.25615 18.0309 0.17888 17.6634 0.11415 17.2895 0.07274 17.2713 0.07067 17.2536 0.07165 17.2355 0.06974 17.006 0.04462 16.7708 0.04181 16.5377 0.03021 16.3432 0.02081 16.1464 0 15.9539 0Z" fill="#7823DC"/><path d="M20.542 30.015 11.394 30.015 11.394 32 20.542 32 20.542 30.015 20.542 30.015Z" fill="#7823DC"/><path d="M15.9673 15.4453C14.0772 15.445 12.5451 13.9126 12.5454 12.0225 12.5457 10.1323 14.0782 8.60032 15.9683 8.60059 17.8584 8.60086 19.3904 10.1333 19.3901 12.0234 19.3879 13.9127 17.8566 15.4436 15.9673 15.4453ZM15.9673 10.6006C15.1817 10.6009 14.5451 11.2379 14.5454 12.0234 14.5457 12.809 15.1827 13.4456 15.9683 13.4453 16.7534 13.445 17.3899 12.8086 17.3901 12.0234 17.3892 11.238 16.7527 10.6015 15.9673 10.6006Z" fill="#7823DC"/><path d="M24 9.83734C20.8672 5.4054 14.7348 4.35223 10.3029 7.48501 9.40652 8.11861 8.62266 8.8979 7.98383 9.79053L7.98383 14.2636C11.1503 18.6716 17.2906 19.678 21.6985 16.5116 22.5901 15.8712 23.368 15.0859 24 14.1884ZM15.9675 16.3369C12.9756 16.3161 10.2352 14.6591 8.8269 12.0192 10.2145 9.36007 12.9681 7.69565 15.9675 7.70312 18.9594 7.72391 21.6999 9.38096 23.1082 12.0208 21.7206 14.68 18.9669 16.3444 15.9675 16.3369Z" fill="#7823DC"/></g></svg>