<svg viewBox="0 0 32 32" xmlns="http://www.w3.org/2000/svg" xmlns:xlink="http://www.w3.org/1999/xlink" id="Graphic" overflow="hidden"><defs></defs><path d="M16 2C16.5523 2 17 2.44772 17 3 17 3.55228 16.5523 4 16 4 15.4477 4 15 3.55228 15 3 15 2.44772 15.4477 2 16 2M16 0C14.3431 0 13 1.34315 13 3 13 4.65685 14.3431 6 16 6 17.6569 6 19 4.65685 19 3 19 1.34315 17.6569 0 16 0Z" fill="#7823DC"/><path d="M14 28C14 29.1046 14.8954 30 16 30 17.1046 30 18 29.1046 18 28 18 26.8954 17.1046 26 16 26L16 26C14.8954 26 14 26.8954 14 28Z" fill="#7823DC"/><path d="M28 25.18C27.999 23.9842 27.5778 22.8268 26.81 21.91 26.2763 21.2478 25.9899 20.4204 26 19.57L26 14.34C26.0833 8.97976 22.0106 4.4662 16.67 4 16.44 4 16.22 4 16 4 10.4772 4 6 8.47715 6 14L6 19.57C6.01008 20.4204 5.72367 21.2478 5.19 21.91 4.42224 22.8268 4.00104 23.9842 4 25.18L4 28 12 28C12 30.2091 13.7909 32 16 32 18.2091 32 20 30.2091 20 28L28 28ZM18 28C18 29.1046 17.1046 30 16 30 14.8954 30 14 29.1046 14 28L18 28ZM26 26 6 26 6 25.18C5.99959 24.4481 6.25819 23.7396 6.73 23.18 7.55816 22.1598 8.00699 20.884 8 19.57L8 14C8 9.58172 11.5817 6 16 6L16.54 6C20.8318 6.38793 24.0911 10.0317 24 14.34L24 19.57C23.9907 20.8874 24.4396 22.1671 25.27 23.19 25.7418 23.7496 26.0004 24.4581 26 25.19Z" fill="#7823DC"/><path d="M16 24 16 24Z" fill="#7823DC"/><path d="M16 26 16 26Z" fill="#7823DC"/></svg>