<svg viewBox="0 0 32 32.01" xmlns="http://www.w3.org/2000/svg" xmlns:xlink="http://www.w3.org/1999/xlink" id="Layer_1" overflow="hidden"><style>
.MsftOfcThm_Text2_Fill_v2 {
 fill:#7823DC; 
}
</style>
<defs></defs><path d="M22.95 23.95 8.23 9.13 28.19 0.09C29.17-0.16 30.17 0.09 30.93 0.79 31.75 1.53 32.13 2.64 31.96 3.76L31.88 4.02 22.95 23.94ZM11.68 9.76 22.32 20.47 30 3.35C30.03 2.94 29.88 2.54 29.59 2.28 29.45 2.15 29.16 1.96 28.76 2.02L11.69 9.77Z" class="MsftOfcThm_Text2_Fill_v2" stroke-width="0" fill="#7823DC"/><rect x="12.88" y="16.17" width="3.94" height="2" class="MsftOfcThm_Text2_Fill_v2" stroke-width="0" fill="#7823DC" transform="matrix(0.705129 -0.709079 0.709079 0.705129 -7.79 15.59)"/><path d="M4.74 32.01C3.51 32.01 2.32 31.55 1.43 30.72L1.4 30.69C0.45 29.74-0.05 28.49 0 27.19 0.05 25.87 0.65 24.65 1.69 23.76L11.58 15.38 16.62 20.45 8.3 30.39C7.5 31.34 6.31 31.93 5.03 32 4.93 32 4.83 32 4.73 32ZM2.8 29.27C3.36 29.78 4.14 30.06 4.91 30.01 5.66 29.96 6.32 29.64 6.77 29.11L13.91 20.57 11.46 18.11 2.99 25.29C2.38 25.81 2.03 26.52 2 27.28 1.97 28.01 2.25 28.72 2.8 29.28Z" class="MsftOfcThm_Text2_Fill_v2" stroke-width="0" fill="#7823DC"/></svg>