<svg viewBox="0 0 31.91 31.99" xmlns="http://www.w3.org/2000/svg" xmlns:xlink="http://www.w3.org/1999/xlink" id="Layer_1" overflow="hidden"><style>
.MsftOfcResponsive_Fill_7823dc {
 fill:#7823DC; 
}
</style>
<defs></defs><path d="M31.91 16C31.91 19.89 30.61 23.57 28.21 26.56L25.54 26.56C28.36 23.74 29.91 19.99 29.91 16 29.91 12.01 28.36 8.27 25.54 5.45L28.21 5.45C30.61 8.43 31.91 12.12 31.91 16Z" class="MsftOfcResponsive_Fill_7823dc" fill="#7823DC"/><g><path d="M1.43 21.48 0 20.08 4.39 15.58 4.39 0 13.4 9.22 6.39 16.4 6.39 16.99 5.81 16.99 1.43 21.48ZM6.39 4.91 6.39 13.54 10.6 9.23 6.39 4.92Z" class="MsftOfcResponsive_Fill_7823dc" fill="#7823DC"/><path d="M4.39 31.99 4.39 16.41 0 11.9 1.43 10.5 5.81 14.99 6.39 14.99 6.39 15.58 13.4 22.76 4.39 31.98ZM6.39 18.45 6.39 27.08 10.6 22.77 6.39 18.46Z" class="MsftOfcResponsive_Fill_7823dc" fill="#7823DC"/></g><path d="M18.26 16C18.26 16.93 18.04 17.83 17.62 18.63L15.18 18.63C16.63 17.18 16.63 14.82 15.18 13.37L17.62 13.37C18.04 14.18 18.26 15.07 18.26 16Z" class="MsftOfcResponsive_Fill_7823dc" fill="#7823DC"/><path d="M25.09 16C25.09 18.42 24.35 20.71 22.96 22.62L20.35 22.62C22.12 20.85 23.09 18.5 23.09 16 23.09 13.5 22.12 11.15 20.35 9.39L22.97 9.39C24.35 11.3 25.09 13.6 25.09 16Z" class="MsftOfcResponsive_Fill_7823dc" fill="#7823DC"/></svg>