<svg viewBox="0 0 32 32" xmlns="http://www.w3.org/2000/svg" xmlns:xlink="http://www.w3.org/1999/xlink" xml:space="preserve" overflow="hidden"><style>
.MsftOfcResponsive_Fill_7823dc {
 fill:#7823DC; 
}
</style>
<g id="Layer_3"></g><g id="Layer_1"></g><g id="Layer_2"></g><g id="Layer_4"></g><g id="Layer_5"><path d="M9.6 6.73C7.79 6.73 6.31 5.26 6.31 3.44 6.31 1.62 7.78 0.15 9.6 0.15 11.42 0.15 12.89 1.62 12.89 3.44 12.89 5.26 11.41 6.73 9.6 6.73ZM9.6 2.15C8.89 2.15 8.31 2.73 8.31 3.44 8.31 4.15 8.89 4.73 9.6 4.73 10.31 4.73 10.89 4.15 10.89 3.44 10.89 2.73 10.31 2.15 9.6 2.15Z" class="MsftOfcResponsive_Fill_7823dc" fill="#7823DC"/><path d="M18.6 13.51 17.15 9.21 13.1 8.19 7.99 9.66 0.09 2.8 1.4 1.29 8.48 7.43 13.06 6.11 18.69 7.54 20.49 12.87Z" class="MsftOfcResponsive_Fill_7823dc" fill="#7823DC"/><path d="M13.1 26.82 7.01 21.18 10.45 15.8 12.13 16.87 9.6 20.85 14.46 25.35Z" class="MsftOfcResponsive_Fill_7823dc" fill="#7823DC"/><path d="M20.04 28.42 14.37 16.93 11.37 17.48 11.01 15.51 15.5 14.69 21.84 27.53Z" class="MsftOfcResponsive_Fill_7823dc" fill="#7823DC"/><rect x="8.49" y="6.97" width="6.39" height="10.36" class="MsftOfcResponsive_Fill_7823dc" fill="#7823DC" transform="matrix(0.9704 -0.2414 0.2414 0.9704 -2.5882 3.1787)"/><path d="M1.52 31.92 2.96 29.41C3.89 27.79 4.4 24.12 4.52 22.85 5.1 13.26 8.9 10.76 9.06 10.65L10.14 12.33C10.11 12.35 7.03 14.54 6.52 23 6.5 23.18 6.23 26.08 5.49 28.46 7.25 28.18 10.12 28.05 14 28.92 14.08 28.94 21.38 30.54 27.46 27.22 26.31 26.62 24.9 25.56 23.78 23.68 23.74 23.62 18.96 16.11 13.55 13.8L14.34 11.96C20.33 14.51 25.28 22.3 25.49 22.63 27.22 25.54 29.75 25.96 29.86 25.97L32.23 26.34 30.31 27.77C23.24 33 13.95 30.95 13.56 30.86 7.55 29.5 4.25 30.8 4.22 30.81L1.52 31.92Z" class="MsftOfcResponsive_Fill_7823dc" fill="#7823DC"/></g></svg>