<svg viewBox="0 0 32.01 30.8" xmlns="http://www.w3.org/2000/svg" xmlns:xlink="http://www.w3.org/1999/xlink" id="Layer_1" overflow="hidden"><style>
.MsftOfcResponsive_Fill_7823dc {
 fill:#7823DC; 
}
</style>
<defs></defs><path d="M24.19 17.26 16.04 22.22 7.89 17.3 5.38 21.77 16.05 28.08 26.72 21.73 24.2 17.26ZM16.04 25.75 8.08 21.04 8.62 20.08 16.04 24.56 23.41 20.08 23.95 21.04 16.04 25.75Z" class="MsftOfcResponsive_Fill_7823dc" stroke-width="0" fill="#7823DC"/><path d="M20.87 11.36 16.04 2.79 11.18 11.38 16.04 14.24 20.87 11.36ZM16.04 6.87 18.15 10.66 16.04 11.92 13.89 10.66 16.04 6.87Z" class="MsftOfcResponsive_Fill_7823dc" stroke-width="0" fill="#7823DC"/><path d="M16.04 21.23 23.82 16.6 21.31 12.14 16.04 15.29 10.76 12.18 8.25 16.64 16.04 21.24ZM11.61 15 16.04 17.61 20.41 15 20.96 15.97 16.04 18.9 11.06 15.97 11.61 15Z" class="MsftOfcResponsive_Fill_7823dc" stroke-width="0" fill="#7823DC"/><path d="M7.37 14.09 8.39 12.37 3.87 9.69 3.87 6.72C5.09 6.34 5.99 5.21 5.99 3.87 5.99 2.22 4.64 0.87 2.99 0.87 1.34 0.87 0 2.21 0 3.87 0 5.13 0.78 6.2 1.88 6.65L1.88 10.83 7.38 14.09ZM3 2.87C3.55 2.87 4 3.32 4 3.87 4 4.42 3.55 4.87 3 4.87 2.45 4.87 2 4.42 2 3.87 2 3.32 2.45 2.87 3 2.87Z" class="MsftOfcResponsive_Fill_7823dc" stroke-width="0" fill="#7823DC"/><path d="M29.01 24.8C27.66 24.8 26.53 25.7 26.16 26.92L23.58 26.92 23.12 26.16 21.41 27.19 22.45 28.92 26.24 28.92C26.69 30.02 27.76 30.8 29.02 30.8 30.67 30.8 32.02 29.45 32.02 27.8 32.02 26.15 30.67 24.8 29.02 24.8ZM29.01 28.8C28.46 28.8 28.01 28.35 28.01 27.8 28.01 27.25 28.46 26.8 29.01 26.8 29.56 26.8 30.01 27.25 30.01 27.8 30.01 28.35 29.56 28.8 29.01 28.8Z" class="MsftOfcResponsive_Fill_7823dc" stroke-width="0" fill="#7823DC"/><path d="M23.27 3.88 26.15 3.88C26.53 5.1 27.66 6 29 6 30.65 6 32 4.65 32 3 32 1.35 30.65 0 29 0 27.74 0 26.67 0.78 26.22 1.88L22.73 1.88 19 4 19.99 5.74 23.26 3.88ZM29.01 2C29.56 2 30.01 2.45 30.01 3 30.01 3.55 29.56 4 29.01 4 28.46 4 28.01 3.55 28.01 3 28.01 2.45 28.46 2 29.01 2Z" class="MsftOfcResponsive_Fill_7823dc" stroke-width="0" fill="#7823DC"/></svg>