<svg viewBox="0 0 32 32" xmlns="http://www.w3.org/2000/svg" xmlns:xlink="http://www.w3.org/1999/xlink" id="Layer_2_00000144328325245699140920000014890284756443101063_" xml:space="preserve" overflow="hidden"><style>
.MsftOfcResponsive_Fill_7823dc {
 fill:#7823DC; 
}
</style>
<g><path d="M29.4 30.1C28.9 23.3 23 17.9 15.9 17.9 8.8 17.9 3 23.2 2.5 30L0 30 0 32 31.9 32 31.9 30.1 29.4 30.1 29.4 30.1 29.4 30.1ZM27.4 30.1 24 30.1C24 30 24 29.9 24 29.9 24 28.1 23.6 26.3 22.9 24.7 23.5 24.4 24 24 24.5 23.6 26.1 25.3 27.2 27.6 27.4 30.1L27.4 30.1ZM10 29.8C10 28.3 10.3 26.8 10.9 25.5 12.5 26.1 14.2 26.5 16 26.5 17.8 26.5 19.5 26.2 21.1 25.5 21.7 26.9 22 28.3 22 29.8 22 29.9 22 30 22 30L10 30C10 30 10 29.9 10 29.8L10 29.8ZM22 22.9C21.5 22.1 20.8 21.3 20.1 20.6 21.2 21 22.2 21.5 23 22.2 22.7 22.5 22.3 22.7 22 22.9L22 22.9ZM16 20C16 20.1 16.1 20.1 16 20 17.8 20.9 19.1 22.2 20.1 23.8 18.8 24.3 17.4 24.5 16 24.5 14.6 24.5 13.1 24.2 11.8 23.8 12.9 22.3 14.3 21 16 20 16 20.1 16 20 16 20L16 20ZM10 22.9C9.6 22.7 9.3 22.5 8.9 22.2 9.8 21.5 10.8 21 11.9 20.6 11.2 21.3 10.6 22.1 10 22.9L10 22.9ZM7.5 23.5C8 24 8.5 24.3 9.1 24.6 8.4 26.3 8 28 8 29.8 8 29.9 8 30 8 30L4.5 30C4.7 27.6 5.8 25.3 7.5 23.5L7.5 23.5Z" class="MsftOfcResponsive_Fill_7823dc" fill="#7823DC" fill-rule="evenodd" clip-rule="evenodd"/></g><g><g><path d="M2.7 11.9 4.3 7.1 0 4.4 12.5 0 15.2 7.5 2.7 11.9ZM4.6 4.9 6.7 6.2 5.9 8.6 12.5 6.3 11.2 2.6 4.6 4.9Z" class="MsftOfcResponsive_Fill_7823dc" fill="#7823DC"/></g><line x1="10.9" y1="1.6" x2="12.8" y2="0.9" fill="#7823DC"/><rect x="14.1" y="0.5" width="2" height="19.2" class="MsftOfcResponsive_Fill_7823dc" fill="#7823DC" transform="matrix(0.9373 -0.3484 0.3484 0.9373 -2.5673 5.902)"/></g><g><g><path d="M29.3 11.9 27.7 7.1 32 4.4 19.5 0 16.8 7.5 29.3 11.9ZM27.4 4.9 25.3 6.2 26.1 8.6 19.5 6.3 20.8 2.6 27.4 4.9Z" class="MsftOfcResponsive_Fill_7823dc" fill="#7823DC"/></g><line x1="21.1" y1="1.6" x2="19.2" y2="0.9" fill="#7823DC"/><rect x="7.3" y="9.1" width="19.2" height="2" class="MsftOfcResponsive_Fill_7823dc" fill="#7823DC" transform="matrix(0.3484 -0.9373 0.9373 0.3484 1.5395 22.3914)"/></g></svg>