<svg viewBox="0 0 32 32" xmlns="http://www.w3.org/2000/svg" xmlns:xlink="http://www.w3.org/1999/xlink" id="Layer_5" overflow="hidden"><defs></defs><path d="M16.68 28 32 28 32 12.35 18.34 2 11 2 11 0 1 0 1 8 5 8 5 8.83 3.17 8.83 3.17 10.83 5 10.83 5 13.06 3.17 13.06 3.17 15.06 5 15.06 5 17.29 3.17 17.29 3.17 19.29 5 19.29 5 20 0 20 0 26 3.36 26 4.31 32 7.69 32 8.64 26 12 26 12 24 14.52 24C14.52 24 16 24 16 24L16 26.12C15.15 26.41 14.52 27.21 14.52 28.16L14.52 29.84C14.52 31.03 15.49 32 16.68 32L32 32 32 30 16.68 30C16.59 30 16.52 29.93 16.52 29.84L16.52 28.16C16.52 28.07 16.59 28 16.68 28ZM16.52 22 16.52 20 22.98 20 22.98 15.71 16.52 15.71 16.52 13.72 25 13.72 25 22 16.52 22ZM30 26 18 26 18 24 30 24 30 26ZM30 22 27 22 27 16 30 16 30 22ZM3 6 3 2 9 2 9 6 3 6ZM10 24 2 24 2 22 10 22 10 24ZM14.52 11.72 14.52 22 12 22 12 20 7 20 7 19.29 8.83 19.29 8.83 17.29 7 17.29 7 15.06 8.83 15.06 8.83 13.06 7 13.06 7 10.83 8.83 10.83 8.83 8.83 7 8.83 7 8 11 8 11 4 17.66 4 30.87 14 27 14 27 11.72 14.52 11.72Z" fill="#7823DC"/></svg>