<svg viewBox="0 0 31.98 32.06" xmlns="http://www.w3.org/2000/svg" xmlns:xlink="http://www.w3.org/1999/xlink" id="Layer_1" overflow="hidden"><style>
.MsftOfcResponsive_Fill_7823dc {
 fill:#7823DC; 
}
</style>
<defs></defs><path d="M24.96 6.88C24.99 7.05 25 7.23 25 7.4L25 14.88C25 15.22 24.93 15.57 24.8 15.9 24.42 17.16 23.29 18.04 21.98 18.11 21.32 19.23 19.92 19.86 18.62 19.57 18.25 20.47 17.5 21.17 16.55 21.41 15.98 21.55 15.41 21.54 14.88 21.39L14.88 28.95C14.88 29.86 14.48 30.72 13.79 31.31 13.09 31.91 12.17 32.16 11.24 32.02 9.75 31.78 8.63 30.42 8.63 28.85L8.63 12.58C7.46 13.02 5.81 13.54 4.53 13.54 1.44 13.54 0.47 11.96 0.16 11.02-0.22 9.86 0.08 8.47 0.83 7.93 0.97 7.83 1.12 7.77 1.29 7.75 6.03 7.15 6.61 6.36 7.87 4.63L8.17 4.22C10.15 1.58 13.1 0.06 16.28 0.06 20.59 0.06 24.32 3 24.96 6.88ZM2.16 10.63C2.57 11.38 3.67 11.54 4.53 11.54 5.93 11.54 8.38 10.55 9.21 10.17 9.52 10.03 9.88 10.05 10.17 10.24 10.46 10.42 10.63 10.74 10.63 11.08L10.63 28.84C10.63 29.43 11.04 29.95 11.56 30.04 11.91 30.09 12.24 30 12.49 29.79 12.74 29.58 12.88 29.27 12.88 28.95L12.88 19.51C12.88 19.06 13.23 18.65 13.67 18.53 14.1 18.41 14.56 18.59 14.79 18.98 14.99 19.31 15.44 19.64 16.06 19.49 16.59 19.35 16.87 18.79 16.87 18.2 16.87 17.76 17.22 17.36 17.64 17.22 17.96 17.12 18.31 17.18 18.58 17.4 18.73 17.52 18.97 17.66 19.29 17.66 19.8 17.66 20.25 17.32 20.37 16.82 20.5 16.3 21.03 15.97 21.56 16.09 21.66 16.11 21.74 16.12 21.81 16.12 22.31 16.12 22.75 15.78 22.89 15.3 22.9 15.26 22.92 15.22 22.93 15.18 22.97 15.08 23 14.97 23 14.88L23 7.4C23 7.34 23 7.27 22.99 7.21 22.51 4.27 19.63 2.06 16.28 2.06 13.74 2.06 11.37 3.29 9.78 5.42L9.48 5.82C7.94 7.92 6.95 8.99 2.02 9.68 1.97 9.92 1.97 10.29 2.15 10.63ZM2.1 9.47 2.1 9.47Z" class="MsftOfcResponsive_Fill_7823dc" fill="#7823DC"/><rect x="13.37" y="13.63" width="29.26" height="2" class="MsftOfcResponsive_Fill_7823dc" fill="#7823DC" transform="matrix(6.12323e-17 1 -1 6.12323e-17 42.63 -13.37)"/><path d="M30.3 24.61 28 28.16 25.69 24.61 24.01 25.7 28 31.84 31.98 25.7 30.3 24.61Z" class="MsftOfcResponsive_Fill_7823dc" fill="#7823DC"/></svg>