<svg viewBox="0 0 32 32" xmlns="http://www.w3.org/2000/svg" xmlns:xlink="http://www.w3.org/1999/xlink" id="Layer_1" overflow="hidden"><style>
.MsftOfcResponsive_Fill_7823dc {
 fill:#7823DC; 
}
</style>
<defs></defs><g id="layer1"><g id="path58"><path d="M0 16.37C0 16.47 0 16.58 0.01 16.68 0.19 20.94 2.04 24.76 4.91 27.53 7.79 30.3 11.7 32 15.99 32 24.59 32 31.62 25.19 31.97 16.68 31.99 16.58 32 16.48 31.98 16.38 31.99 16.25 31.99 16.13 31.99 16 32 7.17 24.83 0 16 0 13.85 0 11.79 0.43 9.92 1.2 9.12 1.53 8.35 1.92 7.62 2.38 8.06 2.4 8.5 2.57 8.83 2.9 9.06 3.13 9.22 3.41 9.3 3.71 9.89 3.38 10.5 3.1 11.13 2.87 12.65 2.31 14.29 2 16 2 23.38 2 29.41 7.69 29.96 14.92 29.38 14.7 28.72 14.5 28 14.5 27.12 14.5 26.47 14.87 26.02 15.12 25.57 15.37 25.32 15.5 25 15.5 24.68 15.5 24.44 15.37 23.99 15.12 23.54 14.87 22.88 14.5 22 14.5 21.94 14.5 21.87 14.5 21.81 14.52 21.15 11.93 18.79 10 16 10 13.21 10 10.86 11.93 10.2 14.52 10.13 14.51 10.07 14.5 10 14.5 9.12 14.5 8.47 14.87 8.02 15.12 7.57 15.37 7.33 15.5 7 15.5 6.67 15.5 6.44 15.37 5.99 15.12 5.54 14.87 4.88 14.5 4.01 14.5 3.29 14.5 2.63 14.7 2.05 14.93 2.13 13.92 2.31 12.95 2.6 12.01 2.78 11.36 3.02 10.73 3.3 10.13 2.86 10.11 2.44 9.91 2.13 9.6 1.92 9.39 1.77 9.13 1.68 8.86 1.32 9.57 1.02 10.31 0.78 11.07 0.27 12.62 -1.11022e-16 14.28 -1.11022e-16 16 -1.11022e-16 16.12 -1.11022e-16 16.24 -1.11022e-16 16.37ZM15.99 12C18.21 12 19.99 13.78 19.99 16 19.99 18.22 18.21 20 15.99 20 13.77 20 11.99 18.22 11.99 16 11.99 13.78 13.77 12 15.99 12ZM2.43 16.92C2.97 16.69 3.67 16.5 4 16.5 4.33 16.5 4.56 16.62 5.01 16.87 5.46 17.12 6.11 17.5 6.99 17.5 7.87 17.5 8.53 17.12 8.98 16.87 9.43 16.62 9.67 16.5 9.99 16.5L10.02 16.5C10.28 19.57 12.86 22 15.99 22 19.12 22 21.71 19.57 21.97 16.5L21.99 16.5C22.31 16.5 22.56 16.62 23.01 16.87 23.45 17.12 24.11 17.5 24.99 17.5 25.87 17.5 26.53 17.12 26.98 16.87 27.43 16.62 27.67 16.5 27.99 16.5 28.31 16.5 29.01 16.69 29.56 16.92 29.71 16.99 29.82 17.04 29.94 17.1 29.39 24.33 23.37 30 15.99 30 8.61 30 2.61 24.32 2.05 17.1 2.18 17.04 2.28 16.99 2.44 16.92ZM5.03 7.3C5.03 7.3 5.06 7.26 5.07 7.24" class="MsftOfcResponsive_Fill_7823dc" fill="#7823DC" fill-rule="evenodd"/></g></g><path d="M5.04 7.3C5.48 8.02 5.39 8.98 4.77 9.6 4.42 9.95 3.95 10.15 3.45 10.15 3.4 10.15 3.35 10.15 3.3 10.13 2.86 10.11 2.44 9.91 2.13 9.6 1.92 9.39 1.77 9.13 1.68 8.86 1.32 9.57 1.02 10.31 0.78 11.07 1.3 11.56 1.93 11.88 2.6 12.01 3.86 12.29 5.25 11.95 6.19 11.01 6.99 10.21 7.36 9.14 7.3 8.08 7.26 7.27 6.97 6.46 6.41 5.8 5.93 6.25 5.49 6.73 5.08 7.24M5.04 7.3C5.04 7.3 5.07 7.26 5.08 7.24" class="MsftOfcResponsive_Fill_7823dc" fill="#7823DC"/><path d="M6.41 5.8C5.93 6.25 5.49 6.73 5.08 7.24 5.73 7.77 6.5 8.04 7.3 8.08 8.35 8.14 9.43 7.77 10.24 6.96 11.34 5.86 11.64 4.25 11.13 2.87 10.94 2.37 10.64 1.89 10.24 1.49 10.14 1.39 10.03 1.29 9.92 1.2 9.12 1.53 8.35 1.92 7.62 2.38 8.06 2.4 8.5 2.57 8.83 2.9 9.06 3.13 9.22 3.41 9.3 3.71 9.49 4.34 9.33 5.04 8.83 5.54 8.47 5.91 7.99 6.09 7.51 6.09 7.14 6.09 6.77 5.98 6.45 5.76" class="MsftOfcResponsive_Fill_7823dc" fill="#7823DC"/><rect x="25.55" y="18.33" width="2.09" height="2.4" class="MsftOfcResponsive_Fill_7823dc" fill="#7823DC" transform="matrix(-1 1.22465e-16 -1.22465e-16 -1 53.2 39.05)"/><rect x="22.03" y="21.26" width="2.09" height="2.4" class="MsftOfcResponsive_Fill_7823dc" fill="#7823DC" transform="matrix(-1 1.22465e-16 -1.22465e-16 -1 46.14 44.92)"/><rect x="14.96" y="23" width="2.09" height="2.4" class="MsftOfcResponsive_Fill_7823dc" fill="#7823DC" transform="matrix(-1 1.22465e-16 -1.22465e-16 -1 32 48.4)"/><rect x="10.96" y="25.16" width="2.09" height="2.4" class="MsftOfcResponsive_Fill_7823dc" fill="#7823DC" transform="matrix(-1 1.22465e-16 -1.22465e-16 -1 24 52.72)"/><rect x="7.9" y="21.26" width="2.09" height="2.4" class="MsftOfcResponsive_Fill_7823dc" fill="#7823DC" transform="matrix(-1 1.22465e-16 -1.22465e-16 -1 17.88 44.92)"/><rect x="4.51" y="18.33" width="2.09" height="2.4" class="MsftOfcResponsive_Fill_7823dc" fill="#7823DC" transform="matrix(-1 1.22465e-16 -1.22465e-16 -1 11.11 39.05)"/><rect x="18.86" y="25.16" width="2.09" height="2.4" class="MsftOfcResponsive_Fill_7823dc" fill="#7823DC" transform="matrix(-1 1.22465e-16 -1.22465e-16 -1 39.81 52.72)"/></svg>