<svg viewBox="0 0 32 32" xmlns="http://www.w3.org/2000/svg" xmlns:xlink="http://www.w3.org/1999/xlink" id="Layer_1" xml:space="preserve" overflow="hidden"><g><path d="M18 9.9 18 11.9 30 11.9 30 30 2 30 2 11.9 14 11.9 14 9.9 0 9.9 0 32 32 32 32 9.9 18 9.9 18 9.9Z" fill="#7823DC" fill-rule="evenodd" clip-rule="evenodd"/><path d="M16 15.9 28 15.9 28 18 16 18 16 15.9Z" fill="#7823DC" fill-rule="evenodd" clip-rule="evenodd"/><path d="M16 20 28 20 28 21.9 16 21.9 16 20Z" fill="#7823DC" fill-rule="evenodd" clip-rule="evenodd"/><path d="M16 24 28 24 28 26 16 26 16 24Z" fill="#7823DC" fill-rule="evenodd" clip-rule="evenodd"/></g><g><g><g><path d="M2.9 21.6 4.7 21.6 4.7 26 2.9 26 2.9 21.6Z" fill="#7823DC"/><path d="M12 21.6 13.8 21.6 13.8 26 12 26 12 21.6Z" fill="#7823DC"/><path d="M12 21.6 9.4 21.6 8.3 22.7 7.3 21.6 4.7 21.6 7 24 7 24 8.3 25.3 8.3 25.3 8.3 25.3 9.6 24 9.6 24 12 21.6 12 21.6Z" fill="#7823DC"/><path d="M8.3 16.9C8.8 16.9 9.2 17.3 9.2 17.8 9.2 18.3 8.8 18.7 8.3 18.7 7.8 18.7 7.4 18.3 7.4 17.8 7.4 17.3 7.8 16.9 8.3 16.9M8.3 15.1C6.8 15.1 5.6 16.3 5.6 17.8 5.6 19.3 6.8 20.5 8.3 20.5 9.8 20.5 11 19.3 11 17.8 11.1 16.3 9.8 15.1 8.3 15.1L8.3 15.1Z" fill="#7823DC"/><path d="" stroke="#7823DC" stroke-width="1.8152" stroke-miterlimit="10" fill="#7823DC"/></g></g></g><rect x="15" y="4" width="2" height="8" fill="#7823DC"/></svg>