<svg viewBox="0 0 32 32" xmlns="http://www.w3.org/2000/svg" xmlns:xlink="http://www.w3.org/1999/xlink" id="Layer_1" overflow="hidden"><g><path d="M12.5 2 12.5 30 5.5 30 5.5 2 12.5 2M14.5 0 3.5 0 3.5 32 14.5 32 14.5 0 14.5 0Z" fill="#7823DC"/><path d="M26.5 2 26.5 30 14.5 30 14.5 2 26.5 2M28.5 0 12.5 0 12.5 32 28.5 32 28.5 0 28.5 0Z" fill="#7823DC"/><rect x="15.5" y="11" width="2" height="9" fill="#7823DC"/><rect x="16.5" y="27" width="8" height="2" fill="#7823DC"/><path d="M9.5 13 9.5 15 8.5 15 8.5 13 9.5 13M11.5 11 6.5 11 6.5 17 11.5 17 11.5 11 11.5 11Z" fill="#7823DC"/></g></svg>