<svg viewBox="0 0 32.01 31.91" xmlns="http://www.w3.org/2000/svg" xmlns:xlink="http://www.w3.org/1999/xlink" id="Layer_1" overflow="hidden"><style>
.MsftOfcThm_Text2_Fill_v2 {
 fill:#7823DC; 
}
</style>
<path d="M23.14 31.91C21.28 31.91 19.47 31.25 18.04 30.06 16.94 29.24 15.12 29.2 13.93 30.09 12.53 31.27 10.67 31.91 8.81 31.91 6.93 31.9 5.11 31.21 3.68 29.98 0.81 27.21-0.46 22.83 0.17 17.94L0.32 16.81 6.36 18.42C7.82 18.77 9.33 18.97 10.85 19.01 12.1 19.01 13.34 19.36 14.41 20.03 15.02 20.41 15.56 20.87 16.01 21.41 16.47 20.87 17.01 20.4 17.61 20.03 18.68 19.37 19.91 19.02 21.17 19.01 22.68 18.98 24.2 18.78 25.68 18.42L31.7 16.81 31.85 17.94C32.48 22.84 31.21 27.22 28.36 29.95 26.9 31.21 25.08 31.9 23.19 31.91L23.13 31.91ZM16.01 27.4C17.18 27.4 18.35 27.79 19.28 28.49 20.39 29.42 21.74 29.91 23.13 29.91L23.17 29.91C24.58 29.91 25.94 29.39 27 28.47 29.13 26.42 30.2 23.13 29.96 19.34L26.17 20.35C24.53 20.75 22.87 20.97 21.21 21 20.28 21 19.41 21.25 18.66 21.72 17.91 22.19 17.29 22.86 16.9 23.65L16 25.44 15.11 23.65C14.71 22.86 14.1 22.19 13.35 21.72 12.6 21.25 11.73 21 10.84 21 9.14 20.96 7.48 20.75 5.86 20.35L2.04 19.33C1.8 23.11 2.87 26.41 5.03 28.49 6.06 29.38 7.42 29.89 8.83 29.9 10.25 29.94 11.61 29.42 12.69 28.51 13.67 27.77 14.83 27.39 16.01 27.39Z" class="MsftOfcThm_Text2_Fill_v2" fill="#7823DC"/><path d="M9.19 28.25C8.5 28.25 7.8 28.07 7.18 27.71 6.27 27.18 4.73 25.82 4.74 22.56L4.74 21.04C4.74 21.04 6.78 21.93 6.78 21.93 7.19 22.11 7.84 22.14 8.47 22.16 9.95 22.23 12.42 22.34 12.45 25.28 12.46 26.31 11.94 27.22 11.02 27.76 10.47 28.08 9.83 28.24 9.18 28.24ZM6.89 24.03C7.1 24.94 7.54 25.61 8.17 25.98 8.85 26.37 9.58 26.29 10.01 26.04 10.31 25.86 10.46 25.62 10.45 25.31 10.44 24.42 10.27 24.24 8.38 24.16 7.88 24.14 7.38 24.12 6.89 24.03Z" class="MsftOfcThm_Text2_Fill_v2" fill="#7823DC"/><path d="M22.82 28.25C22.17 28.25 21.53 28.09 20.98 27.77 20.06 27.23 19.54 26.32 19.55 25.29 19.59 22.34 22.06 22.23 23.54 22.17 24.17 22.14 24.82 22.11 25.23 21.94L25.23 21.94C25.23 21.94 27.26 21.06 27.26 21.06L27.26 22.58C27.28 25.83 25.74 27.2 24.83 27.73 24.21 28.09 23.51 28.27 22.82 28.27ZM25.12 24.03C24.63 24.12 24.13 24.14 23.63 24.16 21.73 24.24 21.57 24.43 21.56 25.31 21.56 25.62 21.71 25.86 22 26.04 22.43 26.29 23.16 26.37 23.84 25.98 24.47 25.62 24.91 24.95 25.12 24.03Z" class="MsftOfcThm_Text2_Fill_v2" fill="#7823DC"/><path d="M22.03 20.04 20.03 19.98C20.04 19.59 20.04 19.21 20.04 18.82 19.91 13.64 18.52 8.51 16 3.91 13.48 8.51 12.09 13.64 11.96 18.85 11.96 19.22 11.96 19.6 11.97 20L9.97 20.05C9.97 19.64 9.96 19.25 9.96 18.83 10.11 12.69 11.91 6.67 15.15 1.4L16 0.02 16.85 1.4C20.09 6.67 21.88 12.69 22.04 18.8 22.04 19.24 22.04 19.64 22.03 20.05Z" class="MsftOfcThm_Text2_Fill_v2" fill="#7823DC"/><path d="M7.81 20.53C3.57 16.2 0.86 10.49 0.17 4.47L0 2.98 1.44 3.4C4.38 4.25 7.2 5.45 9.84 6.99L8.83 8.72C6.79 7.53 4.62 6.55 2.38 5.79 3.27 10.8 5.67 15.49 9.23 19.13L7.8 20.53Z" class="MsftOfcThm_Text2_Fill_v2" fill="#7823DC"/><path d="M10.4 15.61C9.15 13.88 7.63 12.39 5.87 11.18L7.01 9.53C8.95 10.87 10.64 12.52 12.02 14.44L10.4 15.61Z" class="MsftOfcThm_Text2_Fill_v2" fill="#7823DC"/><path d="M24.2 20.53 22.77 19.13C26.33 15.48 28.73 10.8 29.62 5.79 27.38 6.55 25.22 7.53 23.17 8.72L22.16 6.99C24.8 5.45 27.62 4.24 30.56 3.4L32 2.98 31.83 4.47C31.14 10.49 28.43 16.19 24.19 20.52Z" class="MsftOfcThm_Text2_Fill_v2" fill="#7823DC"/><path d="M21.62 15.61 20 14.44C21.38 12.53 23.07 10.88 25.01 9.53L26.14 11.18C24.38 12.39 22.86 13.88 21.61 15.61Z" class="MsftOfcThm_Text2_Fill_v2" fill="#7823DC"/><circle cx="16.01" cy="9.91" r="1" class="MsftOfcThm_Text2_Fill_v2" fill="#7823DC"/><circle cx="16.01" cy="13.91" r="1" class="MsftOfcThm_Text2_Fill_v2" fill="#7823DC"/><circle cx="16.01" cy="17.91" r="1" class="MsftOfcThm_Text2_Fill_v2" fill="#7823DC"/></svg>