<svg viewBox="0 0 32 32" xmlns="http://www.w3.org/2000/svg" xmlns:xlink="http://www.w3.org/1999/xlink" id="Layer_1" overflow="hidden"><g><path d="M26.4 19.6 32 15.2 26.4 10.9 25.2 12.6 28.7 15.2 25.2 17.9Z" fill="#7823DC"/></g><path d="M24.1 32 4.8 32 4.8 6.7 20 6.7 20 14.1 22.1 14.1 22.1 2.1 3.5 2.1 3.5 26.3 0 26.3 0 24.2 1.5 24.2 1.5 0 24.1 0 24.1 14.1 29 14.1 29 16.2 24.1 16.2 24.1 32ZM6.8 29.9 22.1 29.9 22.1 16.2 20 16.2 20 27.3 9.2 27.3 9.2 14.1 18 14.1 18 8.7 6.8 8.7 6.8 29.9ZM11.2 25.2 18 25.2 18 16.2 11.2 16.2 11.2 25.2Z" fill="#7823DC"/></svg>