<svg viewBox="0 0 32 32" xmlns="http://www.w3.org/2000/svg" xmlns:xlink="http://www.w3.org/1999/xlink" id="Layer_1" overflow="hidden"><style>
.MsftOfcThm_Text2_Fill_v2 {
 fill:#7823DC; 
}
</style>
<defs></defs><circle cx="7" cy="27.5" r="1" class="MsftOfcThm_Text2_Fill_v2" stroke-width="0" fill="#7823DC"/><circle cx="13" cy="27.5" r="1" class="MsftOfcThm_Text2_Fill_v2" stroke-width="0" fill="#7823DC"/><circle cx="25" cy="27.5" r="1" class="MsftOfcThm_Text2_Fill_v2" stroke-width="0" fill="#7823DC"/><circle cx="19" cy="27.5" r="1" class="MsftOfcThm_Text2_Fill_v2" stroke-width="0" fill="#7823DC"/><path d="M27.54 32 4.46 32C2 32 0 29.98 0 27.5 0 25.02 2 23 4.46 23L27.54 23C30 23 32 25.02 32 27.5 32 29.98 30.04 32 27.54 32ZM4.46 25C3.1 25 2 26.12 2 27.5 2 28.88 3.1 30 4.46 30L27.54 30C28.94 30 30 28.92 30 27.5 30 26.08 28.9 25 27.54 25L4.46 25Z" class="MsftOfcThm_Text2_Fill_v2" stroke-width="0" fill="#7823DC"/><path d="M28.54 21 3.46 21 3.46 20C3.46 17.03 5.98 14.61 9.08 14.61L17.31 14.61 17.31 6.92 23.39 6.92 28.54 13.04 28.54 20.99ZM5.62 19 26.54 19 26.54 13.78 22.46 8.93 19.31 8.93 19.31 16.62 9.08 16.62C7.46 16.62 6.08 17.63 5.62 19.01Z" class="MsftOfcThm_Text2_Fill_v2" stroke-width="0" fill="#7823DC"/><path d="M10.23 16.37C9.87 16.37 9.54 16.18 9.36 15.86L1.88 2.66 3.62 1.67 9.79 12.57 10.4 9.64 12.36 10.05 11.21 15.58C11.13 15.99 10.8 16.3 10.39 16.36 10.34 16.36 10.29 16.37 10.24 16.37Z" class="MsftOfcThm_Text2_Fill_v2" stroke-width="0" fill="#7823DC"/><rect x="8.83" y="-3.13" width="2" height="22.39" class="MsftOfcThm_Text2_Fill_v2" stroke-width="0" fill="#7823DC" transform="matrix(0.65276 -0.757565 0.757565 0.65276 -2.7 10.25)"/><rect x="0" y="0" width="2" height="12" class="MsftOfcThm_Text2_Fill_v2" stroke-width="0" fill="#7823DC"/><path d="M27.54 15.85 24.77 15.85C23.17 15.85 21.65 14.95 20.81 13.54L18.31 13.54 18.31 11.54 22.09 11.54 22.35 12.16C22.77 13.16 23.76 13.85 24.77 13.85L27.54 13.85 27.54 15.85Z" class="MsftOfcThm_Text2_Fill_v2" stroke-width="0" fill="#7823DC"/></svg>