<svg viewBox="0 0 32 32" xmlns="http://www.w3.org/2000/svg" xmlns:xlink="http://www.w3.org/1999/xlink" overflow="hidden"><defs></defs><g id="a"></g><g id="b"><g id="c"></g><path d="M30.0464 17.9948 30.0464 30 2.04643 30 2.04643 17.9948 30.0464 17.9948M32.0464 15.9948 0.04643 15.9948 0.04643 32 32.0464 32 32.0464 15.9948 32.0464 15.9948Z" fill="#7823DC"/><path d="M15.9835 11.1001C14.879 11.1001 13.9835 11.9955 13.9835 13.1001 13.9835 14.2047 14.879 15.1001 15.9835 15.1001 17.0881 15.1001 17.9835 14.2047 17.9835 13.1001 17.9835 11.9955 17.0881 11.1001 15.9835 11.1001L15.9835 11.1001Z" fill="#7823DC"/><path d="M15.9138 7.9373 23.8556 15.9954 7.96029 15.9948 15.9138 7.9373M15.9149 5.0892 14.4904 6.5323 6.53693 14.5898 3.17609 17.9946 7.96022 17.9948 23.8555 17.9954 28.635 17.9956 25.2801 14.5915 17.3382 6.5334 15.9149 5.0892 15.9149 5.0892Z" fill="#7823DC"/><path d="M6 20 4 20 4 24 6 24 6 20 6 20Z" fill="#7823DC"/><path d="M10 20 8 20 8 24 10 24 10 20 10 20Z" fill="#7823DC"/><path d="M14 20 12 20 12 24 14 24 14 20 14 20Z" fill="#7823DC"/><path d="M20 20 18 20 18 24 20 24 20 20 20 20Z" fill="#7823DC"/><path d="M24 20 22 20 22 24 24 24 24 20 24 20Z" fill="#7823DC"/><path d="M28 20 26 20 26 24 28 24 28 20 28 20Z" fill="#7823DC"/><path d="M6 26 4 26 4 30 6 30 6 26 6 26Z" fill="#7823DC"/><path d="M10 26 8 26 8 30 10 30 10 26 10 26Z" fill="#7823DC"/><path d="M14 26 12 26 12 30 14 30 14 26 14 26Z" fill="#7823DC"/><path d="M20 26 18 26 18 30 20 30 20 26 20 26Z" fill="#7823DC"/><path d="M24 26 22 26 22 30 24 30 24 26 24 26Z" fill="#7823DC"/><path d="M28 26 26 26 26 30 28 30 28 26 28 26Z" fill="#7823DC"/><path d="M7.21611 16 11.2626 12 4 12 0.04643 15.9948 7.21611 16Z" fill="#7823DC"/><path d="M24.8138 16 20.7673 12 28.0299 12 31.9835 15.9948 24.8138 16Z" fill="#7823DC"/></g></svg>