<svg width="36.5" height="36.6" viewBox="0 0 36.5 36.6" xmlns="http://www.w3.org/2000/svg" xmlns:xlink="http://www.w3.org/1999/xlink" overflow="hidden"><defs></defs><g><g><defs><path d="M0 36.5 36.5 36.5 36.5 0 0 0 0 36.5Z" id="SVGID_1_" fill="#7823DC"/></defs><clipPath id="SVGID_2_"><use width="100%" height="100%" xlink:href="#SVGID_1_"></use></clipPath><g clip-path="url(#SVGID_2_)"><defs><path d="M0 36.5 36.5 36.5 36.5 0 0 0 0 36.5Z" id="SVGID_3_" fill="#7823DC"/></defs><clipPath id="SVGID_4_"><use width="100%" height="100%" xlink:href="#SVGID_3_"></use></clipPath><path d="M18.3 23.2C15.6 23.2 13.4 21 13.4 18.3 13.4 15.6 15.6 13.4 18.3 13.4 21 13.4 23.2 15.6 23.2 18.3 23.2 21 21 23.2 18.3 23.2ZM18.3 15.6C16.8 15.6 15.7 16.8 15.7 18.2 15.7 19.6 16.9 20.8 18.3 20.8 19.7 20.8 20.9 19.6 20.9 18.2 20.9 16.8 19.7 15.6 18.3 15.6Z" fill="#7823DC" clip-path="url(#SVGID_4_)"/><path d="M17.1 21 19.4 21 19.4 36.6 17.1 36.6 17.1 21Z" fill="#7823DC" clip-path="url(#SVGID_4_)"/><path d="M2.3 18.3C2.3 11.2 7 5 13.7 3L13.7 0.6C4 3.1-1.9 13.1 0.6 22.8 2.2 29.3 7.3 34.4 13.7 36L13.7 33.6C7 31.6 2.3 25.4 2.3 18.3L2.3 18.3Z" fill="#7823DC" clip-path="url(#SVGID_4_)"/><path d="M36.5 18.3C36.5 10 30.9 2.7 22.8 0.6L22.8 3C31.2 5.5 36 14.5 33.5 22.9 32 28 28 32.1 22.8 33.6L22.8 36C30.9 33.9 36.5 26.6 36.5 18.3L36.5 18.3Z" fill="#7823DC" clip-path="url(#SVGID_4_)"/><path d="M4.7 18.3C4.7 24 8.3 29.2 13.7 31.1L13.7 28.6C8 26 5.5 19.3 8 13.6 9.1 11 11.2 9 13.7 7.9L13.7 5.4C8.3 7.4 4.7 12.5 4.7 18.3L4.7 18.3Z" fill="#7823DC" clip-path="url(#SVGID_4_)"/><path d="M29.6 18.3C29.6 22.8 26.9 26.8 22.9 28.6L22.9 31C29.9 28.5 33.6 20.7 31.1 13.6 29.7 9.8 26.7 6.8 22.9 5.4L22.9 7.8C26.9 9.7 29.6 13.8 29.6 18.3L29.6 18.3Z" fill="#7823DC" clip-path="url(#SVGID_4_)"/></g></g></g></svg>