<svg viewBox="0 0 32 32" xmlns="http://www.w3.org/2000/svg" xmlns:xlink="http://www.w3.org/1999/xlink" xml:space="preserve" overflow="hidden"><style>
.MsftOfcResponsive_Fill_7823dc {
 fill:#7823DC; 
}
</style>
<g id="Layer_3"></g><g id="Layer_1"><path d="M29.7 6.9 29.7 25.12 2.28 25.12 2.28 6.88 29.68 6.88 27.39 4.6 0 4.6 0 27.4 31.98 27.4 31.98 9.18 29.7 6.9 29.7 6.9Z" class="MsftOfcResponsive_Fill_7823dc" fill="#7823DC"/></g><g id="Layer_2"><path d="M8.49 12.71C8.49 12 8.74 11.41 9.23 10.91 9.72 10.42 10.32 10.17 11.02 10.17 11.72 10.17 12.32 10.42 12.81 10.91 13.31 11.41 13.55 12 13.55 12.7 13.55 13.4 13.3 14 12.81 14.49 12.32 14.99 11.72 15.23 11.02 15.23 10.32 15.23 9.73 15 9.24 14.5 8.74 14.01 8.49 13.41 8.49 12.71ZM9.81 12.71C9.81 13.04 9.93 13.33 10.17 13.57 10.41 13.81 10.69 13.93 11.03 13.93 11.37 13.93 11.65 13.81 11.89 13.57 12.13 13.33 12.25 13.05 12.25 12.71 12.25 12.38 12.13 12.09 11.89 11.85 11.65 11.61 11.37 11.49 11.03 11.49 10.69 11.49 10.41 11.61 10.17 11.85 9.93 12.09 9.81 12.38 9.81 12.71Z" class="MsftOfcResponsive_Fill_7823dc" stroke-width="0.25" stroke-miterlimit="10" fill="#7823DC"/><path d="M15.52 22.02 15.52 10.37 23.51 10.37 23.51 12.34 17.87 12.34 17.87 15.1 22.73 15.1 22.73 17.07 17.87 17.07 17.87 22.02 15.52 22.02Z" class="MsftOfcResponsive_Fill_7823dc" fill="#7823DC"/></g></svg>