<svg viewBox="0 0 32 32" xmlns="http://www.w3.org/2000/svg" xmlns:xlink="http://www.w3.org/1999/xlink" id="Layer_1" xml:space="preserve" overflow="hidden"><g id="Layer_2_00000153672027410828584440000004318808627006363015_"></g><g id="Layer_2_00000103981120671582451330000015814750687241510044_"></g><g id="Layer_2_00000130625076427418092810000005903251686592157099_"></g><g id="Layer_2_00000085964347954184681000000000355649944892313477_"></g><path d="M22 28 22 30 2 30 2 28 22 28M24 26 0 26 0 32 24 32 24 26 24 26Z" fill="#7823DC"/><g id="Layer_2_00000018946082797421151980000008836874802702089886_"></g><g id="Layer_2_00000021804689057827181820000005630892102603028366_"></g><g id="Layer_2_00000093156637026916537620000011911187392566796989_"></g><g id="Layer_2_00000031185290306875418530000018357049157785389234_"></g><rect x="0" y="19" width="24" height="2" fill="#7823DC"/><path d="M13.5 21 13.5 26 10.5 26 10.5 21 13.5 21M15.5 19 8.5 19 8.5 28 15.5 28 15.5 19 15.5 19Z" fill="#7823DC"/><path d="M14.2 6 14.2 8 9.8 8 9.8 6 14.2 6M16.2 4 7.8 4 7.8 10 16.3 10 16.2 4 16.2 4Z" fill="#7823DC"/><g><path d="M17.4 15.2C16 16.6 14.1 17.4 12 17.4 9.9 17.4 8 16.5 6.6 15.2L7.9 13.9C8.9 14.9 10.4 15.6 12 15.6 13.6 15.6 15 14.9 16.1 13.9L17.4 15.2 17.4 15.2 17.4 15.2Z" fill="#7823DC"/><path d="M15.5 13.3C14.6 14.2 13.4 14.8 12 14.8 10.6 14.8 9.4 14.2 8.5 13.4L9.2 12.7 9.8 12C10.4 12.6 11.1 12.9 12 12.9 12.9 12.9 13.6 12.5 14.2 12L15.5 13.3 15.5 13.3 15.5 13.3Z" fill="#7823DC"/></g><path d="M32 32 26.1 32 26.1 6 0 6 0 0 32 0 32 32ZM28.1 30 30 30 30 2 2 2 2 4 28.1 4 28.1 30Z" fill="#7823DC"/></svg>