<svg viewBox="0 0 32 32" xmlns="http://www.w3.org/2000/svg" xmlns:xlink="http://www.w3.org/1999/xlink" id="Layer_5" overflow="hidden"><defs></defs><path d="M16.58 32 13.01 28.37 8.22 30.18 6.91 25.14 2.31 23.99 3.63 19.16 0 15.81 3.49 12.41 2.01 7.74 6.84 6.74 7.47 2.11 12.66 3.31 16.4-0.04 19.59 3.3 24.24 2.08 25.58 6.65 30.29 7.53 28.95 12.12 32.02 15.67 28.96 18.94 29.93 23.43 25.76 24.64 25.14 29.39 19.66 28.09 16.57 32.01ZM13.53 26.04 16.42 28.98 18.89 25.84 23.46 26.93 23.97 23.08 27.6 22.02 26.8 18.33 29.35 15.61 26.74 12.6 27.76 9.09 24.01 8.39 22.87 4.51 18.96 5.53 16.3 2.74 13.23 5.5 9.16 4.56 8.63 8.42 4.59 9.26 5.77 12.99 2.91 15.77 5.88 18.5 4.78 22.54 8.55 23.48 9.6 27.52 13.52 26.04Z" stroke-width="0" fill="#7823DC"/><g><rect x="7.97" y="14.9" width="16.18" height="2" stroke-width="0" fill="#7823DC" transform="matrix(0.708093 -0.706119 0.706119 0.708093 -6.54 15.98)"/><path d="M20.27 23.98C18.19 23.98 16.5 22.29 16.5 20.21 16.5 18.13 18.19 16.44 20.27 16.44 22.35 16.44 24.04 18.13 24.04 20.21 24.04 22.29 22.35 23.98 20.27 23.98ZM20.27 18.44C19.29 18.44 18.5 19.23 18.5 20.21 18.5 21.19 19.29 21.98 20.27 21.98 21.25 21.98 22.04 21.19 22.04 20.21 22.04 19.23 21.25 18.44 20.27 18.44Z" stroke-width="0" fill="#7823DC"/><path d="M11.73 15.56C9.65 15.56 7.96 13.87 7.96 11.79 7.96 9.71 9.65 8.02 11.73 8.02 13.81 8.02 15.5 9.71 15.5 11.79 15.5 13.87 13.81 15.56 11.73 15.56ZM11.73 10.02C10.75 10.02 9.96 10.81 9.96 11.79 9.96 12.77 10.75 13.56 11.73 13.56 12.71 13.56 13.5 12.77 13.5 11.79 13.5 10.81 12.71 10.02 11.73 10.02Z" stroke-width="0" fill="#7823DC"/></g></svg>