<svg viewBox="0 0 32 32" xmlns="http://www.w3.org/2000/svg" xmlns:xlink="http://www.w3.org/1999/xlink" id="Layer_1" overflow="hidden"><g><path d="M17 4.7C19.3 7.5 21.9 11 22.1 12.2 22.1 30 22.1 30 22.1 30 9.8 30 9.8 30 9.8 30 9.8 12.2 9.8 12.2 9.8 12.2 10.1 10.9 12.6 7.4 14.9 4.7 17 4.7 17 4.7 17 4.7M18.1 2.7C14 2.7 14 2.7 14 2.7 14 2.7 7.8 10 7.8 12 7.8 32 7.8 32 7.8 32 24.2 32 24.2 32 24.2 32 24.2 12 24.2 12 24.2 12 24.2 10 18.1 2.7 18.1 2.7L18.1 2.7Z" fill="#7823DC" fill-rule="evenodd" clip-rule="evenodd"/><path d="M11.9 0 20.1 0 20.1 4.2 11.9 4.2 11.9 0Z" fill="#7823DC" fill-rule="evenodd" clip-rule="evenodd"/><path d="M18.1 2 18.1 2.3 14 2.3 14 2 18.1 2 18.1 2 18.1 2ZM20.1 0 11.9 0 11.9 4.2 20.1 4.2 20.1 0 20.1 0 20.1 0 20.1 0Z" fill="#7823DC" fill-rule="evenodd" clip-rule="evenodd"/><path d="M18.1 2 18.1 2.3 14 2.3 14 2 18.1 2M20.1 0 11.9 0 11.9 4.2 20.1 4.2 20.1 0 20.1 0" fill="#7823DC" fill-rule="evenodd" clip-rule="evenodd"/><path d="M9.1 12.2 22.7 12.2 22.7 14.2 9.1 14.2 9.1 12.2Z" fill="#7823DC" fill-rule="evenodd" clip-rule="evenodd"/><path d="M9.1 23 22.7 23 22.7 25 9.1 25 9.1 23Z" fill="#7823DC" fill-rule="evenodd" clip-rule="evenodd"/></g></svg>