<svg viewBox="0 0 32 32" xmlns="http://www.w3.org/2000/svg" xmlns:xlink="http://www.w3.org/1999/xlink" id="Graphic" overflow="hidden"><defs></defs><rect x="15" y="5.98" width="2" height="26.02" fill="#7823DC"/><rect x="12" y="30" width="8" height="2" fill="#7823DC"/><rect x="10" y="8" width="12" height="2" fill="#7823DC"/><rect x="10" y="16" width="12" height="2" fill="#7823DC"/><path d="M10 2 10 22 7.84 22 6.18 2 10 2M12 0 4 0 6 24 12 24 12 0Z" fill="#7823DC"/><path d="M25.83 2 24.16 22 22 22 22 2 25.83 2M28 0 20 0 20 24 26 24 28 0Z" fill="#7823DC"/><path d="M3.64 16.38C1.56212 14.426 1.45047 11.1614 3.39 9.07 3.5787 8.87716 3.7827 8.69992 4 8.54L4 6.18C3.22231 6.55923 2.52071 7.0778 1.93 7.71-0.762911 10.5982-0.604621 15.1225 2.28355 17.8154 2.79473 18.2921 3.37303 18.6912 4 19L4 16.66Z" fill="#7823DC"/><path d="M28.36 16.38C30.4433 14.4285 30.5551 11.1593 28.61 9.07 28.4235 8.87487 28.2193 8.69745 28 8.54L28 6.18C31.5401 7.9044 33.0121 12.1722 31.2877 15.7123 30.5899 17.1448 29.4325 18.3022 28 19L28 16.66C28.12 16.57 28.25 16.48 28.36 16.38Z" fill="#7823DC"/></svg>