<svg viewBox="0 0 32 32" xmlns="http://www.w3.org/2000/svg" xmlns:xlink="http://www.w3.org/1999/xlink" overflow="hidden"><style>
.MsftOfcResponsive_Fill_7823dc {
 fill:#7823DC; 
}
</style>
<defs></defs><g id="Layer_3"><path d="M7.023 13.85 5.609 15.264 15.36 25.016 16.775 23.602 7.023 13.85 7.023 13.85Z" class="MsftOfcResponsive_Fill_7823dc" fill="#7823DC"/><path d="M12.02 13.19 8.484 16.726 9.899 18.14 13.434 14.604 12.02 13.19 12.02 13.19Z" class="MsftOfcResponsive_Fill_7823dc" fill="#7823DC"/><path d="M16.02 17.19 12.484 20.726 13.899 22.14 17.434 18.604 16.02 17.19 16.02 17.19Z" class="MsftOfcResponsive_Fill_7823dc" fill="#7823DC"/><path d="M8.36324 18.0187 12.6059 22.2614 11.2533 23.614C10.4383 24.4291 9.11672 24.4291 8.30162 23.614 8.30159 23.614 8.30157 23.614 8.30154 23.6139L7.01071 22.3231C6.19558 21.508 6.19556 20.1865 7.01066 19.3713 7.01068 19.3713 7.01069 19.3713 7.01071 19.3713L8.36324 18.0187M8.36324 15.1903 5.59648 17.9571C4.00032 19.5533 4.00032 22.1411 5.59648 23.7373L6.88734 25.0281C8.48347 26.6243 11.0713 26.6243 12.6675 25.0282 12.6675 25.0282 12.6675 25.0282 12.6676 25.0281L15.4343 22.2614 8.36324 15.1903Z" class="MsftOfcResponsive_Fill_7823dc" fill="#7823DC"/><path d="M20.8076 6.43878C21.3615 6.43726 21.8929 6.65737 22.2835 7.05005L23.5744 8.341C24.3895 9.15607 24.3895 10.4776 23.5744 11.2927 23.5744 11.2927 23.5744 11.2927 23.5744 11.2927L22.2218 12.6453 17.9792 8.40265 19.3317 7.05011C19.7223 6.6574 20.2537 6.43726 20.8076 6.43878M20.8076 4.43878C19.7233 4.43735 18.6832 4.86817 17.9175 5.63586L15.1508 8.40265 22.2218 15.4736 24.9886 12.707C26.5847 11.1108 26.5847 8.52295 24.9886 6.92679L23.6977 5.63589C22.932 4.86819 21.8919 4.43736 20.8076 4.43878Z" class="MsftOfcResponsive_Fill_7823dc" fill="#7823DC"/><path d="M15.225 5.648 13.81 7.062 23.562 16.814 24.976 15.4 15.225 5.648 15.225 5.648Z" class="MsftOfcResponsive_Fill_7823dc" fill="#7823DC"/><path d="M5.684 23.476 0.01 29.15 0.01 32.08 7.149 24.94 5.684 23.476 5.684 23.476Z" class="MsftOfcResponsive_Fill_7823dc" fill="#7823DC"/><path d="M32.024 0.066 29.094 0.066 23.436 5.724 24.901 7.189 32.024 0.066 32.024 0.066Z" class="MsftOfcResponsive_Fill_7823dc" fill="#7823DC"/></g></svg>