<svg viewBox="0 0 32 32" xmlns="http://www.w3.org/2000/svg" xmlns:xlink="http://www.w3.org/1999/xlink" overflow="hidden"><defs></defs><g id="Layer_3"><path d="M7.337 2C7.88928 2 8.337 2.44772 8.337 3 8.337 3.55228 7.88928 4 7.337 4 6.78472 4 6.337 3.55228 6.337 3 6.337 2.44772 6.78472 2 7.337 2M7.337 0C5.68015 0 4.337 1.34315 4.337 3 4.337 4.65685 5.68015 6 7.337 6 8.99385 6 10.337 4.65685 10.337 3 10.3351 1.34392 8.99308 0.00186821 7.337 4.44089e-16Z" fill="#7823DC"/><path d="M2.631 6.066 0.032 14.28 0.032 20.682 0.096 20.703 4.049 8.215 1.193 32 3.208 32 6.33 6.066 2.631 6.066Z" fill="#7823DC"/><path d="M7.337 2C7.88928 2 8.337 2.44772 8.337 3 8.337 3.55228 7.88928 4 7.337 4 6.78472 4 6.337 3.55228 6.337 3 6.337 2.44772 6.78472 2 7.337 2M7.337 0C5.68015 0 4.337 1.34315 4.337 3 4.337 4.65685 5.68015 6 7.337 6 8.99385 6 10.337 4.65685 10.337 3 10.3351 1.34392 8.99308 0.00186821 7.337 4.44089e-16Z" fill="#7823DC"/><path d="M16.484 20.099 14.578 20.703 10.625 8.215 13.481 32 11.466 32 8.344 6.066 12.043 6.066 16.484 20.099Z" fill="#7823DC"/><path d="M32.0312 31.9997 18.0312 31.9997 18.0312 17.9997 32.0312 17.9997ZM20.0312 29.9997 30.0312 29.9997 30.0312 19.9997 20.0312 19.9997Z" fill="#7823DC"/><path d="M29.0312 19.9997 21.0312 19.9997 21.0312 13.9997 29.0312 13.9997ZM23.0312 17.9997 27.0312 17.9997 27.0312 15.9997 23.0312 15.9997Z" fill="#7823DC"/></g></svg>