<svg width="30.78" height="31.75" viewBox="0 0 30.78 31.75" xmlns="http://www.w3.org/2000/svg" xmlns:xlink="http://www.w3.org/1999/xlink" overflow="hidden"><style>
.MsftOfcResponsive_Fill_7823dc {
 fill:#7823DC; 
}
</style>
<defs></defs><g><rect x="1.39" y="14.13" width="2" height="17.62" class="MsftOfcResponsive_Fill_7823dc" fill="#7823DC"/></g><g><rect x="27.39" y="14.13" width="2" height="17.62" class="MsftOfcResponsive_Fill_7823dc" fill="#7823DC"/></g><g><path d="M29.36 16.8 15.39 2.83 1.41 16.8 0 15.39 15.39 0 30.78 15.39Z" class="MsftOfcResponsive_Fill_7823dc" fill="#7823DC"/></g><g><path d="M29.4 16.83 23.4 10.83 23.38 4.13 29.38 4.13 29.4 16.83ZM25.4 10 27.4 12 27.39 6.14 25.39 6.14 25.4 10Z" class="MsftOfcResponsive_Fill_7823dc" fill="#7823DC"/></g><g><rect x="1.39" y="29.75" width="28" height="2" class="MsftOfcResponsive_Fill_7823dc" fill="#7823DC"/></g><g><g><rect x="13.41" y="11.76" width="9.98" height="2" class="MsftOfcResponsive_Fill_7823dc" fill="#7823DC"/></g></g><g><g><rect x="3.39" y="21.76" width="9.98" height="2" class="MsftOfcResponsive_Fill_7823dc" fill="#7823DC" transform="matrix(-1.83697e-16 1 -1 -1.83697e-16 31.1402 14.3718)"/></g></g><g><g><path d="M19.38 25.76 7.38 25.76 7.38 19.76 15.38 19.76 15.38 11.76 21.38 11.76 21.38 23.76 19.38 25.76ZM9.38 23.76 19.38 23.76 19.38 13.76 17.38 13.76 17.38 19.76 15.41 21.75 9.38 21.76 9.38 23.76Z" class="MsftOfcResponsive_Fill_7823dc" fill="#7823DC"/></g></g></svg>