<svg viewBox="0 0 32 32" xmlns="http://www.w3.org/2000/svg" xmlns:xlink="http://www.w3.org/1999/xlink" id="Layer_2_00000144328325245699140920000014890284756443101063_" xml:space="preserve" overflow="hidden"><path d="M21.8 2 30 10.2 30 21.8 21.8 30 10.2 30 2 21.8 2 10.2 10.2 2 21.8 2M22.6 0 9.4 0 0 9.4 0 22.7 9.4 32 22.7 32 32.1 22.6 32.1 9.4 22.6 0 22.6 0Z" fill="#7823DC"/><path d="M24.5 7.2C23.9 6.6 23 6.4 22.2 6.5 22 6.5 21.9 6.6 21.7 6.7 21.4 5.4 20.3 4.5 19 4.5 18.5 4.5 18.1 4.6 17.7 4.9 17.2 4.1 16.3 3.5 15.4 3.5 14.1 3.5 13 4.4 12.7 5.7 12.5 5.6 12.4 5.6 12.2 5.5 11.4 5.4 10.5 5.6 9.9 6.2 9.3 6.8 8.9 7.6 8.9 8.5L8.9 18 8.1 17.3C7.6 16.7 6.8 16.5 6.1 16.5 5.3 16.5 4.6 16.9 4.1 17.5 3.1 18.7 3.1 20.6 4.2 21.7L7.4 25C9.6 27.3 12.5 28.6 15.6 28.6L17.8 28.6C22.1 28.6 25.6 24.8 25.6 20.1L25.6 9.5C25.5 8.6 25.1 7.7 24.5 7.2ZM17.7 26.6 15.5 26.6C12.9 26.6 10.5 25.5 8.7 23.6L5.6 20.3C5.2 19.9 5.2 19.2 5.6 18.8 5.8 18.6 6 18.5 6.2 18.5 6.2 18.5 6.2 18.5 6.2 18.5 6.4 18.5 6.6 18.6 6.9 18.8L10.9 22.3 10.9 8.4C10.9 8.1 11 7.8 11.2 7.6 11.4 7.4 11.6 7.3 11.9 7.4 12.3 7.5 12.6 8 12.6 8.5L12.6 15.4 14.5 15.4 14.5 6.4C14.5 5.8 14.9 5.4 15.4 5.4 15.9 5.4 16.3 5.9 16.3 6.4L16.3 15.5 18.2 15.5 18.2 7.5C18.2 6.9 18.6 6.5 19.1 6.5 19.6 6.5 20 7 20 7.5L20 15.5 21.9 15.5 21.9 9.6C21.9 9.1 22.2 8.6 22.6 8.5 22.9 8.5 23.1 8.5 23.3 8.7 23.5 8.9 23.6 9.2 23.6 9.5L23.6 20.1C23.6 23.7 20.9 26.6 17.7 26.6Z" fill="#7823DC"/></svg>