<svg width="28.8" height="28" viewBox="0 0 28.8 28" xmlns="http://www.w3.org/2000/svg" xmlns:xlink="http://www.w3.org/1999/xlink" overflow="hidden"><defs></defs><path d="M25.9 0.4C24.6-0.2 23.1-0.1 21.6 0.7 21.2 0.9 20.5 1.5 20 2 19.7 2.3 19.3 2.7 19.1 3.1L14.4 10.4 9.7 3.1C9.4 2.7 9.1 2.3 8.7 2 8.3 1.5 7.6 0.9 7.1 0.7 5.6-0.1 4.1-0.2 2.8 0.4 0.2 1.6-0.8 5.2 0.7 8.4 1.9 11.1 4.5 12.8 6.8 12.5 7.2 12.5 7.7 12.3 8.1 12.2 9.4 11.6 10.4 10.4 10.7 8.9 10.7 8.8 10.7 8.7 10.7 8.7L13.1 12.4 5.6 23.9 5.2 28 14.4 14.1 23.6 28 23.1 23.9 15.6 12.3 18 8.6C18 8.7 18 8.8 18 8.8 18.4 10.4 19.3 11.6 20.6 12.1 21 12.3 21.4 12.4 21.9 12.4 24.2 12.7 26.8 11 28 8.3 29.5 5.1 28.6 1.5 25.9 0.4ZM8.8 8.3C8.6 9.3 8 10 7.3 10.3 5.6 11 3.5 9.8 2.5 7.6 1.5 5.3 2 2.9 3.6 2.2 3.8 2.1 4.1 2 4.3 2 4.9 2 5.5 2.1 6.1 2.4 6.6 2.7 7.1 3.1 7.5 3.6 7.9 4 8.4 5 8.4 5 8.9 6.1 9 7.3 8.8 8.3ZM14.4 13.1C14 13.1 13.6 12.8 13.6 12.3 13.6 11.8 13.9 11.5 14.4 11.5 14.9 11.5 15.2 11.8 15.2 12.3 15.2 12.8 14.8 13.1 14.4 13.1ZM26.3 7.6C25.3 9.8 23.2 11.1 21.6 10.4 20.9 10.1 20.3 9.4 20.1 8.4 19.8 7.4 20 6.2 20.5 5.1 20.5 5.1 21 4.1 21.3 3.7 21.7 3.2 22.2 2.8 22.7 2.5 23.3 2.1 23.9 2 24.4 2 24.6 2 24.9 2.1 25.1 2.2 26.8 2.9 27.3 5.3 26.3 7.6Z" fill="#7823DC"/></svg>