<svg viewBox="0 0 32.03 32.03" xmlns="http://www.w3.org/2000/svg" xmlns:xlink="http://www.w3.org/1999/xlink" id="Layer_1" overflow="hidden"><style>
.MsftOfcResponsive_Fill_7823dc {
 fill:#7823DC; 
}
</style>
<defs></defs><path d="M25.55 6.48C17.16-1.91 1.8 0.21 1.15 0.31L0.41 0.42 0.3 1.16C0.21 1.81-1.92 17.17 6.47 25.56 11.96 31.05 20.44 32.04 25.82 32.04 28.66 32.04 30.64 31.77 30.86 31.73L31.6 31.62 31.71 30.88C31.8 30.23 33.93 14.87 25.54 6.48ZM2.2 2.2C3.13 2.11 4.86 1.99 7 2.04L2.04 7C1.99 4.87 2.11 3.13 2.2 2.2ZM2.18 9.68 9.67 2.19C14.42 2.6 20.21 3.98 24.13 7.9 28.05 11.82 29.43 17.61 29.84 22.37L22.36 29.85C17.6 29.44 11.81 28.06 7.89 24.14 3.97 20.22 2.6 14.44 2.18 9.68ZM29.82 29.83C28.89 29.92 27.16 30.04 25.04 29.99L29.99 25.04C30.03 27.17 29.92 28.89 29.83 29.82Z" class="MsftOfcResponsive_Fill_7823dc" fill="#7823DC"/><path d="M19.66 25.55 21.9 23.31 23.31 24.72 24.72 23.31 23.31 21.9 25.55 19.66 24.14 18.25 21.9 20.49 19.39 17.98 21.63 15.74 20.21 14.33 17.98 16.56 15.46 14.05 17.7 11.81 16.29 10.4 14.05 12.64 11.54 10.13 13.78 7.89 12.36 6.48 10.13 8.71 8.72 7.31 7.31 8.72 8.71 10.13 6.48 12.36 7.89 13.78 10.13 11.54 12.64 14.05 10.4 16.29 11.81 17.7 14.05 15.47 16.56 17.98 14.32 20.21 15.74 21.63 17.98 19.39 20.49 21.9 18.25 24.14 19.66 25.55Z" class="MsftOfcResponsive_Fill_7823dc" fill="#7823DC"/></svg>