<svg viewBox="0 0 32 32" xmlns="http://www.w3.org/2000/svg" xmlns:xlink="http://www.w3.org/1999/xlink" id="Layer_1" overflow="hidden"><style>
.MsftOfcResponsive_Fill_7823dc {
 fill:#7823DC; 
}
</style>
<path d="M28.4 12.9C29.3 12.9 30 13.6 30 14.5 30 15.4 29.3 16.1 28.4 16.1 27.5 16.1 26.8 15.4 26.8 14.5 26.8 13.6 27.6 12.9 28.4 12.9M28.4 10.9C26.4 10.9 24.8 12.5 24.8 14.5 24.8 16.5 26.4 18.1 28.4 18.1 30.4 18.1 32 16.5 32 14.5 32 12.5 30.4 10.9 28.4 10.9L28.4 10.9Z" class="MsftOfcResponsive_Fill_7823dc" fill="#7823DC"/><path d="M5 18.6 5 30 2 30 2 18.6 5 18.6M7 16.6 0 16.6 0 32 7 32 7 16.6 7 16.6Z" class="MsftOfcResponsive_Fill_7823dc" fill="#7823DC"/><rect x="9.5" y="19.4" width="2" height="11" class="MsftOfcResponsive_Fill_7823dc" fill="#7823DC" transform="matrix(0.0101202 -0.9999 0.9999 0.0101202 -14.5493 35.1914)"/><path d="M24.3 31.8 19.2 31.8C16.4 31.8 14 29.7 14 27.1L14 25.3 16 25.3 16 27.1C16 28.6 17.4 29.8 19.2 29.8L24.3 29.8C26 29.8 27.5 28.6 27.5 27.1L27.5 17 29.5 17 29.5 27.1C29.4 29.7 27.1 31.8 24.3 31.8Z" class="MsftOfcResponsive_Fill_7823dc" fill="#7823DC"/></svg>