<svg width="36.5" height="36.6" viewBox="0 0 36.5 36.6" xmlns="http://www.w3.org/2000/svg" xmlns:xlink="http://www.w3.org/1999/xlink" overflow="hidden"><style>
.MsftOfcResponsive_Fill_7823dc {
 fill:#7823DC; 
}
</style>
<defs></defs><g><g><defs><path d="M0 36.5 36.5 36.5 36.5 0 0 0 0 36.5Z" id="SVGID_1_" class="MsftOfcResponsive_Fill_7823dc" fill="#7823DC"/></defs><clipPath id="SVGID_2_"><use width="100%" height="100%" xlink:href="#SVGID_1_"></use></clipPath><g clip-path="url(#SVGID_2_)"><defs><path d="M0 36.5 36.5 36.5 36.5 0 0 0 0 36.5Z" id="SVGID_3_" class="MsftOfcResponsive_Fill_7823dc" fill="#7823DC"/></defs><clipPath id="SVGID_4_"><use width="100%" height="100%" xlink:href="#SVGID_3_"></use></clipPath><path d="M21.4 9.1C24.3 9 26.9 10.7 28.2 13.3L30.8 19.4 5.8 19.4 8.4 13.3C9.6 10.7 12.3 9.1 15.2 9.1L21.4 9.1M21.4 6.9 15.2 6.9C11.3 6.8 7.9 9 6.3 12.4L2.3 21.7 34.2 21.7 30.2 12.4C28.6 9 25.2 6.8 21.4 6.9L21.4 6.9Z" class="MsftOfcResponsive_Fill_7823dc" fill="#7823DC" clip-path="url(#SVGID_4_)"/><path d="M32.2 21.7C33.3 21.7 34.2 22.6 34.2 23.7L34.2 27.7C34.2 28.8 33.3 29.7 32.2 29.7L4.3 29.7C3.2 29.7 2.3 28.8 2.3 27.7 2.3 27.7 2.3 27.7 2.3 27.7L2.3 23.7C2.3 22.6 3.2 21.7 4.3 21.7 4.3 21.7 4.3 21.7 4.3 21.7L32.2 21.7M32.2 19.4 4.3 19.4C1.9 19.4 0 21.3 0 23.7 0 23.7 0 23.7 0 23.7L0 27.7C0 30.1 1.9 32 4.3 32 4.3 32 4.3 32 4.3 32L32.2 32C34.6 32 36.5 30.1 36.5 27.7L36.5 23.7C36.5 21.4 34.6 19.4 32.2 19.4L32.2 19.4Z" class="MsftOfcResponsive_Fill_7823dc" fill="#7823DC" clip-path="url(#SVGID_4_)"/><path d="M6.9 29.1C5 29.1 3.5 27.6 3.5 25.7 3.5 23.8 5 22.3 6.9 22.3 8.8 22.3 10.3 23.8 10.3 25.7 10.3 27.6 8.8 29.1 6.9 29.1ZM6.9 24.6C6.3 24.6 5.8 25.1 5.8 25.7 5.8 26.3 6.3 26.8 6.9 26.8 7.5 26.8 8 26.3 8 25.7 8 25.1 7.5 24.6 6.9 24.6Z" class="MsftOfcResponsive_Fill_7823dc" fill="#7823DC" clip-path="url(#SVGID_4_)"/><path d="M29.7 29.1C27.8 29.1 26.3 27.6 26.3 25.7 26.3 23.8 27.8 22.3 29.7 22.3 31.6 22.3 33.1 23.8 33.1 25.7 33.1 27.6 31.6 29.1 29.7 29.1ZM29.7 24.6C29.1 24.6 28.6 25.1 28.6 25.7 28.6 26.3 29.1 26.8 29.7 26.8 30.3 26.8 30.8 26.3 30.8 25.7 30.8 25.1 30.3 24.6 29.7 24.6Z" class="MsftOfcResponsive_Fill_7823dc" fill="#7823DC" clip-path="url(#SVGID_4_)"/><path d="M24.2 9.1 12.4 9.1 15.3 4.6 21.2 4.6 24.2 9.1 24.2 9.1Z" class="MsftOfcResponsive_Fill_7823dc" fill="#7823DC" clip-path="url(#SVGID_4_)"/><path d="M7.1 30C8.1 30 8.9 30.8 8.9 31.8L8.9 34.8C8.9 35.8 8.1 36.6 7.1 36.6L4 36.6C3 36.6 2.2 35.8 2.2 34.8L2.2 31.8C2.2 30.8 3 30 4 30L7.1 30Z" class="MsftOfcResponsive_Fill_7823dc" fill="#7823DC" clip-path="url(#SVGID_4_)"/><path d="M32.4 30C33.4 30 34.2 30.8 34.2 31.8L34.2 34.7C34.2 35.7 33.4 36.5 32.4 36.5L29.2 36.5C28.2 36.5 27.4 35.7 27.4 34.7L27.4 31.8C27.4 30.8 28.2 30 29.2 30L32.4 30Z" class="MsftOfcResponsive_Fill_7823dc" fill="#7823DC" clip-path="url(#SVGID_4_)"/><path d="M22.8 25.1 22.8 29.7 13.7 29.7 13.7 25.1 22.8 25.1M25.1 22.9 11.4 22.9 11.4 32 25.1 32 25.1 22.9 25.1 22.9 25.1 22.9Z" class="MsftOfcResponsive_Fill_7823dc" fill="#7823DC" clip-path="url(#SVGID_4_)"/></g></g></g></svg>