<svg viewBox="0 0 32 32" xmlns="http://www.w3.org/2000/svg" xmlns:xlink="http://www.w3.org/1999/xlink" id="Layer_2_1_" xml:space="preserve" overflow="hidden"><style>
.MsftOfcResponsive_Fill_7823dc {
 fill:#7823DC; 
}
</style>
<g><path d="M29.9 27.4C29.5 25.9 28.1 24.8 26.4 24.8 24.8 24.8 23.5 25.8 23 27.2L23 27.3C22.9 27.6 22.8 28 22.8 28.4 22.8 28.7 22.8 29.1 22.9 29.4 23.3 30.9 24.7 32 26.4 32 28 32 29.4 30.9 29.9 29.4 30 29.1 30 28.7 30 28.4 30 28 30 27.7 29.9 27.4L29.9 27.4ZM26.4 30C25.9 30 25.4 29.8 25.2 29.4 25 29.1 24.8 28.8 24.8 28.4 24.8 28 24.9 27.7 25.2 27.4 25.5 27 25.9 26.8 26.4 26.8 26.9 26.8 27.3 27 27.6 27.4 27.8 27.7 28 28 28 28.4 28 28.8 27.9 29.1 27.6 29.4 27.3 29.8 26.9 30 26.4 30L26.4 30Z" class="st0 MsftOfcResponsive_Fill_7823dc" fill="#7823DC" fill-rule="evenodd" clip-rule="evenodd"/><path d="M11.9 27.4C11.5 25.9 10.1 24.8 8.4 24.8 6.8 24.8 5.4 25.9 4.9 27.4 4.8 27.7 4.8 28 4.8 28.4 4.8 28.7 4.8 29.1 4.9 29.4 5.5 30.9 6.9 32 8.5 32 10.1 32 11.5 30.9 12 29.4 12.1 29.1 12.1 28.7 12.1 28.4 12 28 12 27.7 11.9 27.4L11.9 27.4ZM8.5 30C7.6 30 6.9 29.3 6.9 28.4 6.9 27.5 7.6 26.8 8.5 26.8 9.4 26.8 10.1 27.5 10.1 28.4 10.1 29.3 9.4 30 8.5 30L8.5 30Z" class="st0 MsftOfcResponsive_Fill_7823dc" fill="#7823DC" fill-rule="evenodd" clip-rule="evenodd"/><path d="M23 29.4 11.2 29.4 11.2 27.4 21 27.4 21 24 2.1 24 2.1 27.4 5.2 27.4 5.2 29.4 0.1 29.4 0.1 22 23 22 23 29.4Z" class="st0 MsftOfcResponsive_Fill_7823dc" fill="#7823DC" fill-rule="evenodd" clip-rule="evenodd"/><path d="M29.7 12.4 21 12.4 21 29.4 25.2 29.4C25 29.1 24.8 28.8 24.8 28.4 24.8 28 24.9 27.7 25.2 27.4L23 27.4 23 14.4 28.3 14.4 28.5 15 29.2 17 29.9 19 30.1 19.6 30.1 27.4 27.7 27.4C27.9 27.7 28.1 28 28.1 28.4 28.1 28.8 28 29.1 27.7 29.4L32 29.4 32 19.2 29.7 12.4 29.7 12.4 29.7 12.4Z" class="st0 MsftOfcResponsive_Fill_7823dc" fill="#7823DC" fill-rule="evenodd" clip-rule="evenodd"/><path d="M31 21 25 21 25 15 30 15 30 17 27 17 27 19 31 19 31 21Z" class="st0 MsftOfcResponsive_Fill_7823dc" fill="#7823DC" fill-rule="evenodd" clip-rule="evenodd"/><path d="M21 9.1 21 22.1 2.1 22.1 2.1 9.1 21 9.1M23 7.1 0.1 7.1 0.1 24.1 23 24.1 23 7.1 23 7.1 23 7.1 23 7.1Z" class="st0 MsftOfcResponsive_Fill_7823dc" fill="#7823DC" fill-rule="evenodd" clip-rule="evenodd"/><path d="M7.9 19.4 15.3 12 16.7 13.4 9.3 20.8 7.9 19.4Z" class="st0 MsftOfcResponsive_Fill_7823dc" fill="#7823DC" fill-rule="evenodd" clip-rule="evenodd"/><path d="M10.3 19.8 7.9 17.4C6.6 16.1 6.6 14 7.9 12.7L8.7 11.9C10 10.6 12.1 10.6 13.4 11.9L15.8 14.3 10.3 19.8 10.3 19.8 10.3 19.8ZM11.2 12.9C10.9 12.9 10.5 13 10.3 13.3L9.5 14.1C9 14.6 9 15.5 9.5 16L10.4 16.9 13.1 14.2 12.1 13.3C11.8 13 11.5 12.9 11.2 12.9L11.2 12.9Z" class="st0 MsftOfcResponsive_Fill_7823dc" fill="#7823DC" fill-rule="evenodd" clip-rule="evenodd"/><path d="M10.4 18.2 11.8 16.8 14.3 19.3 12.9 20.7 10.4 18.2Z" class="st0 MsftOfcResponsive_Fill_7823dc" fill="#7823DC" fill-rule="evenodd" clip-rule="evenodd"/><path d="M12.9 15.7 14.3 14.3 16.8 16.8 15.3 18.2 12.9 15.7Z" class="st0 MsftOfcResponsive_Fill_7823dc" fill="#7823DC" fill-rule="evenodd" clip-rule="evenodd"/><path d="M9.9 12.4 8.3 13.6C7.2 12.1 6.4 10.4 5.8 8.6 4.8 5.4 5 2.4 5.5 0.1L7.6 0.1C7 2.1 6.8 5 7.7 8.1 8.2 9.7 8.9 11.1 9.9 12.4L9.9 12.4Z" class="st0 MsftOfcResponsive_Fill_7823dc" fill="#7823DC" fill-rule="evenodd" clip-rule="evenodd"/></g></svg>