<svg width="36.5" height="36.6" viewBox="0 0 36.5 36.6" xmlns="http://www.w3.org/2000/svg" xmlns:xlink="http://www.w3.org/1999/xlink" overflow="hidden"><defs></defs><g><g><defs><path d="M0 36.5 36.5 36.5 36.5 0 0 0 0 36.5Z" id="SVGID_1_" fill="#7823DC"/></defs><clipPath id="SVGID_2_"><use width="100%" height="100%" xlink:href="#SVGID_1_"></use></clipPath><g clip-path="url(#SVGID_2_)"><defs><path d="M0 36.5 36.5 36.5 36.5 0 0 0 0 36.5Z" id="SVGID_3_" fill="#7823DC"/></defs><clipPath id="SVGID_4_"><use width="100%" height="100%" xlink:href="#SVGID_3_"></use></clipPath><path d="M14.7 0 12.5 0 0 33.7 0 36.6 1.4 36.6 13.6 3.7 25.8 36.6 28.2 36.6 14.7 0 14.7 0Z" fill="#7823DC" clip-path="url(#SVGID_4_)"/><path d="M24 0 21.8 0 8.3 36.6 10.7 36.6 22.9 3.7 35.1 36.6 36.5 36.6 36.5 33.7 24 0 24 0Z" fill="#7823DC" clip-path="url(#SVGID_4_)"/><path d="M1.9 29.8 11.4 29.8 11.4 31.9 1.9 31.9 1.9 29.8Z" fill="#7823DC" clip-path="url(#SVGID_4_)"/><path d="M3.5 25.2 13 25.2 13 27.4 3.5 27.4 3.5 25.2Z" fill="#7823DC" clip-path="url(#SVGID_4_)"/><path d="M5.5 20.6 15 20.6 15 22.8 5.5 22.8 5.5 20.6Z" fill="#7823DC" clip-path="url(#SVGID_4_)"/><path d="M7.4 16 16.9 16 16.9 18.2 7.4 18.2 7.4 16Z" fill="#7823DC" clip-path="url(#SVGID_4_)"/><path d="M25.4 32 34.8 32 34.8 34.2 25.4 34.2 25.4 32Z" fill="#7823DC" clip-path="url(#SVGID_4_)"/><path d="M8.3 11.4 27.4 11.4 27.4 13.6 8.3 13.6 8.3 11.4Z" fill="#7823DC" clip-path="url(#SVGID_4_)"/></g></g></g></svg>