<svg viewBox="0 0 32 32" xmlns="http://www.w3.org/2000/svg" xmlns:xlink="http://www.w3.org/1999/xlink" xml:space="preserve" overflow="hidden"><style>
.MsftOfcResponsive_Fill_7823dc {
 fill:#7823DC; 
}
</style>
<g id="Layer_3"></g><g id="Layer_1"></g><g id="Layer_2"></g><g id="Layer_4"></g><g id="Layer_5"><g><path d="M21.97 9.01C20.16 9.01 18.68 7.54 18.68 5.72 18.68 3.9 20.15 2.43 21.97 2.43 23.79 2.43 25.26 3.9 25.26 5.72 25.26 7.54 23.78 9.01 21.97 9.01ZM21.97 4.44C21.26 4.44 20.68 5.02 20.68 5.73 20.68 6.44 21.26 7.02 21.97 7.02 22.68 7.02 23.26 6.44 23.26 5.73 23.26 5.02 22.68 4.44 21.97 4.44Z" class="MsftOfcResponsive_Fill_7823dc" fill="#7823DC"/><path d="M12.97 15.8 11.08 15.15 12.87 9.83 18.51 8.4 23.09 9.72 30.17 3.58 31.48 5.09 23.58 11.94 18.47 10.48 14.42 11.5Z" class="MsftOfcResponsive_Fill_7823dc" fill="#7823DC"/><path d="M18.47 29.11 17.11 27.64 21.97 23.14 19.44 19.16 21.12 18.09 24.56 23.47Z" class="MsftOfcResponsive_Fill_7823dc" fill="#7823DC"/><path d="M11.53 30.71 9.73 29.82 16.07 16.97 20.56 17.8 20.2 19.76 17.2 19.21Z" class="MsftOfcResponsive_Fill_7823dc" fill="#7823DC"/><rect x="16.69" y="9.26" width="6.39" height="10.36" class="MsftOfcResponsive_Fill_7823dc" fill="#7823DC" transform="matrix(-0.9704 -0.2414 0.2414 -0.9704 35.7037 33.2568)"/></g><path d="M11.19 22.48 10.62 21.1C9.62 18.69 7.2 18.52 7.09 18.51L6.96 18.5C-0.62 17.1 0.14 10.63 0.15 10.57L0.31 9.39 1.45 9.75C4.72 10.78 8.04 8.58 8.08 8.55L8.19 8.48C14.23 5.44 18.86 8.48 19.05 8.61L17.94 10.25 18.49 9.43 17.94 10.26C16.81 16.83 12.44 21.24 12.25 21.42L11.19 22.48ZM7.28 16.52C7.76 16.56 10.16 16.87 11.72 19 13 17.4 15.31 14.03 16 9.74L17.38 9.96C16.15 9.37 13.03 8.3 9.14 10.24 8.65 10.56 5.62 12.41 2.16 11.94 2.35 13.39 3.29 15.77 7.28 16.52Z" class="MsftOfcResponsive_Fill_7823dc" fill="#7823DC"/></g></svg>