<svg viewBox="0 0 32 32" xmlns="http://www.w3.org/2000/svg" xmlns:xlink="http://www.w3.org/1999/xlink" id="Layer_1" xml:space="preserve" overflow="hidden"><g id="Layer_2_00000013912985461116041430000015904895619479836035_" display="none"><g><path d="M15 3C14.9 3 14.7 3 14.6 3 14.4 3 14.2 3 14.1 3 13.4 3 12.7 3.1 12.1 3.2L12.7 3.8 13.8 5C14 5 14.3 5 14.6 5 15.6 5 16.7 5.1 17.7 5.4 21.2 6.3 24.1 8.6 25.7 11.7L28.8 14.8 28.8 14.4C27.4 8 21.8 3.2 15 3ZM25.9 22.9 25.9 22.9C24.3 26.2 21.3 28.7 17.6 29.6 16.6 29.8 15.6 30 14.6 30 13.5 30 12.5 29.9 11.5 29.6 6.4 28.3 2.6 23.9 2.1 18.5 2.1 18.2 2.1 17.8 2.1 17.5 2.1 17.2 2.1 16.8 2.1 16.5 2.4 12.2 5 8.5 8.6 6.5L7.1 5.1C2.9 7.6 0 12.3 0 17.5 0 25.5 6.5 32 14.5 32 20.6 32 25.8 28.2 28 22.9L25.9 22.9Z" fill="#7823DC"/><path d="M21.4 18.5 0.3 18.5 0.3 16.5 23.7 16.5 25.3 18.5" fill="#7823DC"/></g><path d="M18.1 16.5C18.1 16.8 18.1 17.1 18.1 17.5 18.1 17.8 18.1 18.2 18.1 18.5 17.9 26 15.4 29.9 14.6 29.9 13.8 29.9 11.2 26 11 18.5 11 18.2 11 17.8 11 17.5 11 17.2 11 16.8 11 16.5 11.1 13.8 11.4 11.6 11.9 9.9L10.2 8.2C9.5 10.5 9 13.3 9 16.5 9 16.8 9 17.1 9 17.5 9 17.8 9 18.2 9 18.5 9.1 23.2 10.1 27.2 11.5 29.6 12.4 31.1 13.4 32 14.6 32 15.8 32 16.8 31.1 17.7 29.6 19.1 27.2 20.1 23.1 20.2 18.5 20.2 18.2 20.2 17.8 20.2 17.5 20.2 17.2 20.2 16.8 20.2 16.5M19.6 16.5 18.5 16.5M17.6 5.4C16.9 4.1 16 4.2 15 4 14.8 4 14.7 4 14.5 4 14.3 4 14.2 4 14 4 13.5 4.1 13 3.4 12.6 3.8L13.8 5 14 5.2C14.2 5.1 14.4 5 14.5 5 14.9 5 15.7 5.9 16.4 7.6L19 10.2M18.1 16.5C18.1 16.8 18.1 17.1 18.1 17.5 18.1 17.8 18.1 18.2 18.1 18.5L20.2 18.5C20.2 18.2 20.2 17.8 20.2 17.5 20.2 17.2 20.2 16.8 20.2 16.5L19.7 16.5 19 17.1 18.4 16.5" fill="#7823DC"/><path d="M65.9 19.4 65.9 13.9 64.1 12.1 64.1 16.3 55.5 7.9 52.9 10.4 42.6 0 40.1 0 52.9 12.9 55.5 10.4 62.8 17.6 58.5 17.6 60.3 19.4Z" fill="#7823DC"/><g><path d="M32.1 21.4 32.1 15.9 30.2 14.1 30.2 18.3 21.6 9.9 19 12.4 8.7 2 6.2 2 19 14.9 21.6 12.4 29 19.6 24.7 19.6 26.5 21.4Z" fill="#7823DC"/><line x1="18.5" y1="16.5" x2="19.6" y2="16.5" fill="none"/></g></g><g><path d="M16 32C7.2 32 0 24.8 0 16 0 7.1 7.2 0 16 0 24.8 0 32 7.2 32 16 32 24.8 24.9 32 16 32L16 32 16 32 16 32ZM16 2C8.3 2 2 8.3 2 16 2 23.7 8.3 30 16 30 23.7 30 30 23.7 30 16 30 8.3 23.8 2 16 2L16 2 16 2 16 2Z" fill="#7823DC" fill-rule="evenodd" clip-rule="evenodd"/><path d="M25.3 19C24.7 22.7 20.7 25.5 15.9 25.5 11.1 25.5 7.2 22.7 6.6 19L6.4 17.8 25.5 17.8 25.3 19 25.3 19 25.3 19ZM9 19.9C10 22 12.8 23.5 16 23.5 19.2 23.5 22 22 23 19.9L9 19.9 9 19.9 9 19.9 9 19.9Z" fill="#7823DC" fill-rule="evenodd" clip-rule="evenodd"/><path d="M21.1 10.9C19.1 10.9 17.7 12 17.7 13.6L19.7 13.6C19.7 12.9 21 12.9 21 12.9 21 12.9 22.3 12.9 22.3 13.6L24.3 13.6C24.4 12 23.1 10.9 21.1 10.9L21.1 10.9 21.1 10.9 21.1 10.9Z" fill="#7823DC" fill-rule="evenodd" clip-rule="evenodd"/><path d="M10.9 10.9C8.9 10.9 7.5 12 7.5 13.6L9.5 13.6C9.5 12.9 10.8 12.9 10.8 12.9 10.8 12.9 12.1 12.9 12.1 13.6L14.1 13.6C14.3 12 12.9 10.9 10.9 10.9L10.9 10.9 10.9 10.9 10.9 10.9Z" fill="#7823DC" fill-rule="evenodd" clip-rule="evenodd"/></g></svg>