<svg viewBox="0 0 32 32" xmlns="http://www.w3.org/2000/svg" xmlns:xlink="http://www.w3.org/1999/xlink" id="Layer_1" xml:space="preserve" overflow="hidden"><g id="Layer_3"></g><g id="Layer_1_00000140009191074082967000000007609328942049071281_"><g><path d="M5 32 7 32 7 23 5 21Z" fill="#7823DC"/><path d="M9.1 23 9.1 32 11.1 32 11.1 21Z" fill="#7823DC"/><path d="M3.8 21.1 6.7 18.2 8.1 19.6 5.2 22.5Z" fill="#7823DC"/><path d="M8.1 19.7 9.5 18.2 12.4 21.1 10.9 22.5Z" fill="#7823DC"/><path d="M8.1 22.5 10.9 19.7 12.3 21.1 9.5 23.9Z" fill="#7823DC"/><path d="M3.7 20.9 5.1 19.4 7.9 22.3 6.5 23.8Z" fill="#7823DC"/><path d="M8.1 16.1C3.7 16.1 0 12.5 0 8 0 3.5 3.7 0 8.1 0 12.5 0 16.2 3.6 16.2 8.1 16.2 12.5 12.6 16.1 8.1 16.1L8.1 16.1ZM8.1 2C4.8 2 2 4.7 2 8 2 11.3 4.7 14.1 8.1 14.1 11.5 14.1 14.2 11.4 14.2 8 14.2 4.7 11.4 2 8.1 2L8.1 2Z" fill="#7823DC"/><path d="M5.6 17.7 0 20 0 17.9 4.9 15.9 5.2 16.6Z" fill="#7823DC"/><path d="M20 20.2 22 20.2 22 32 20 32Z" fill="#7823DC"/><path d="M10.4 17.6 11.1 15.7 22 20.3 21.2 22.1Z" fill="#7823DC"/><path d="M3.3 17.2 4.9 15.9 6.9 18.5 5.3 19.7Z" fill="#7823DC"/><path d="M9.4 18.5 11.4 15.9 12.9 17.2 10.9 19.7Z" fill="#7823DC"/><g><path d="M23 6.7 23.8 4.9 24.9 5.2 20.6 14.5 20.6 14.5 18.9 15.7 23 6.7" fill="#7823DC"/><path d="M17.8 17 23.6 4.3 25.5 4.9 21 14.8 17.8 17ZM23.5 6.9 20.1 14.3 20.3 14.2 24.2 5.5 24.1 5.5 23.5 6.9Z" fill="#7823DC"/></g><g><path d="M29.2 14.3 30.9 15.4 26 4.7 25 5Z" fill="#7823DC"/><path d="M32 16.8 28.8 14.6 24.3 4.7 26.2 4.1 32 16.8ZM29.6 14 29.8 14.1 25.8 5.2 25.7 5.2 29.6 14Z" fill="#7823DC"/></g><circle cx="25" cy="3.7" r="2.5" fill="#7823DC"/><rect x="24" y="0" width="2" height="1.8" fill="#7823DC"/><path d="M25 11C23.3 11 22 9.6 22 8L24 8C24 8.6 24.5 9 25 9 25.5 9 26 8.5 26 8L28 8C28 9.7 26.6 11 25 11Z" fill="#7823DC"/></g></g><g id="Layer_2_00000026147374701496537360000003744909667788906908_"></g></svg>