<svg viewBox="0 0 32 32" xmlns="http://www.w3.org/2000/svg" xmlns:xlink="http://www.w3.org/1999/xlink" id="Layer_1" xml:space="preserve" overflow="hidden"><g><path d="M13.9 0 16.7 18 17.2 19.9 19.2 19.9 18.7 18 16.2 2 29.8 2 25.7 26.2 20.2 26.2 20 24.7 20 28.2 27.5 28.2 32 0 13.9 0 13.9 0 13.9 0 13.9 0Z" fill="#7823DC" fill-rule="evenodd" clip-rule="evenodd"/><path d="M0 18 0 32 22 32 22 18 0 18 0 18 0 18 0 18 0 18ZM20 30 2 30 2 20 20 20 20 30 20 30 20 30 20 30 20 30Z" fill="#7823DC" fill-rule="evenodd" clip-rule="evenodd"/><path d="M27 27 27 32 19 32 19 30 20 30 20 27 21 27 21 30 25 30 25 27 27 27 27 27 27 27 27 27Z" fill="#7823DC" fill-rule="evenodd" clip-rule="evenodd"/><path d="M14.9 19.9 12.9 19.9 12.9 17 9 17 9 19.9 6.9 19.9 6.9 14.9 14.9 14.9 14.9 19.9 14.9 19.9Z" fill="#7823DC" fill-rule="evenodd" clip-rule="evenodd"/><path d="M21.7 12.5C21.7 10.5 21.7 10.5 21.7 10.5 22.4 10.5 22.4 10.5 22.4 10.5 22.9 10.5 23.6 9.7 23.6 9.2 24 8 24 8 24 8 23 8.5 23 8.5 23 8.5 22.3 8.5 21.8 9.3 21.8 9.8 21.6 10.6 21.6 10.6 21.6 10.6 19.6 10.3 19.6 10.3 19.6 10.3 19.8 9.5 19.8 9.5 19.8 9.5 19.8 8 21 6.7 22.5 6.5 26.7 5.5 26.7 5.5 26.7 5.5 25.7 9.8 25.7 9.8 25.7 9.8 25.2 11.3 24 12.3 22.7 12.6L21.7 12.6 21.7 12.5 21.7 12.5Z" fill="#7823DC" fill-rule="evenodd" clip-rule="evenodd"/><path d="M9.7 28.5C9.4 26.5 9.4 26.5 9.4 26.5 10.4 26.2 10.4 26.2 10.4 26.2 10.9 26.2 11.4 25.7 11.7 24.9 12 23.9 12 23.9 12 23.9 10.7 24.2 10.7 24.2 10.7 24.2 10.2 24.5 9.7 25 9.7 25.5 9.4 26.3 9.4 26.3 9.4 26.3 7.4 26.3 7.4 26.3 7.4 26.3 7.7 25.3 7.7 25.3 7.7 25.3 7.7 24 9 22.8 10.5 22.3 14.8 21.3 14.8 21.3 14.8 21.3 13.8 25.6 13.8 25.6 13.8 25.6 13.3 27.1 12 28.4 10.5 28.4L9.7 28.5 9.7 28.5 9.7 28.5Z" fill="#7823DC" fill-rule="evenodd" clip-rule="evenodd"/></g></svg>