<svg width="36.5" height="36.5" viewBox="0 0 36.5 36.5" xmlns="http://www.w3.org/2000/svg" xmlns:xlink="http://www.w3.org/1999/xlink" overflow="hidden"><defs></defs><g><defs><path d="M0 36.5 36.5 36.5 36.5 0 0 0 0 36.5Z" id="SVGID_1_" fill="#7823DC"/></defs><clipPath id="SVGID_2_"><use width="100%" height="100%" xlink:href="#SVGID_1_"></use></clipPath><g clip-path="url(#SVGID_2_)"><defs><path d="M0 36.5 36.5 36.5 36.5 0 0 0 0 36.5Z" id="SVGID_3_" fill="#7823DC"/></defs><clipPath id="SVGID_4_"><use width="100%" height="100%" xlink:href="#SVGID_3_"></use></clipPath><path d="M22.8 29.7 20.5 27.4 18.2 27.4C18.2 27.4 18.2 27.5 18.2 27.5 18.2 28.3 17.9 29 17.4 29.6L20.5 29.6 20.5 32 9.1 32 9.1 29.7 12.1 29.7C11.6 29.1 11.3 28.3 11.3 27.6 11.3 27.6 11.3 27.5 11.3 27.5L9.1 27.5 6.8 29.8 4.6 32 4.6 34.3 25.1 34.3 25.1 32 22.8 29.7 22.8 29.7Z" fill="#7823DC" clip-path="url(#SVGID_4_)"/><path d="M18.2 27.4C18.2 25.5 16.7 24 14.8 24 12.9 24 11.4 25.5 11.4 27.4 11.4 27.5 11.4 27.5 11.4 27.6 11.4 29.5 13 31 14.9 31 15.9 31 16.8 30.5 17.5 29.8 18 29.2 18.3 28.4 18.3 27.7 18.2 27.5 18.2 27.4 18.2 27.4L18.2 27.4ZM14.8 26.4C15.4 26.4 15.9 26.8 15.9 27.4 15.9 27.5 15.9 27.5 15.9 27.6 15.9 28.2 15.4 28.7 14.8 28.7 14.2 28.7 13.7 28.2 13.7 27.6 13.7 27.5 13.7 27.5 13.7 27.4 13.8 26.8 14.2 26.4 14.8 26.4L14.8 26.4Z" fill="#7823DC" clip-path="url(#SVGID_4_)"/><path d="M14.6 12.2C14.6 10.3 13.1 8.8 11.2 8.8 9.3 8.8 7.8 10.3 7.8 12.2 7.8 12.2 7.8 12.3 7.8 12.3 7.8 14.2 9.3 15.7 11.2 15.7 13.1 15.7 14.6 14.2 14.6 12.3 14.6 12.3 14.6 12.2 14.6 12.2L14.6 12.2ZM11.2 11.2C11.8 11.2 12.3 11.6 12.3 12.2 12.3 12.2 12.3 12.3 12.3 12.3 12.3 12.9 11.8 13.4 11.2 13.4 10.6 13.4 10.1 12.9 10.1 12.3 10.1 12.3 10.1 12.2 10.1 12.2 10.1 11.6 10.6 11.2 11.2 11.2L11.2 11.2Z" fill="#7823DC" clip-path="url(#SVGID_4_)"/><path d="M15.4 25.2 12.8 14.2 14.5 11.4 18.2 27 15.4 25.2 15.4 25.2Z" fill="#7823DC" clip-path="url(#SVGID_4_)"/><path d="M11.5 28.6 7.9 13 10.6 14.8 13.2 25.8 11.5 28.6 11.5 28.6Z" fill="#7823DC" clip-path="url(#SVGID_4_)"/><path d="M23.7 6.3 13.1 10.4 10.1 9.1 25 3.4 23.7 6.3 23.7 6.3Z" fill="#7823DC" clip-path="url(#SVGID_4_)"/><path d="M27.4 9.8 12.5 15.5 13.9 12.5 24.5 8.5 27.4 9.8 27.4 9.8Z" fill="#7823DC" clip-path="url(#SVGID_4_)"/><path d="M22.9 4.2 25 3.4 27.4 9.8 25.3 10.6 22.9 4.2Z" fill="#7823DC" clip-path="url(#SVGID_4_)"/><path d="M27.9 4.7 32.2 3.1 29.3 1.7 27.1 2.6 25.8 5.5 26.6 7.7 29.6 9 31.7 8.1 33 5.2 28.8 6.8 27.9 4.7 27.9 4.7Z" fill="#7823DC" clip-path="url(#SVGID_4_)"/></g></g></svg>