<svg width="36.5" height="36.6" viewBox="0 0 36.5 36.6" xmlns="http://www.w3.org/2000/svg" xmlns:xlink="http://www.w3.org/1999/xlink" overflow="hidden"><defs></defs><g><g><defs><path d="M0 36.5 36.5 36.5 36.5 0 0 0 0 36.5Z" id="SVGID_1_" fill="#7823DC"/></defs><clipPath id="SVGID_2_"><use width="100%" height="100%" xlink:href="#SVGID_1_"></use></clipPath><g clip-path="url(#SVGID_2_)"><defs><path d="M0 36.5 36.5 36.5 36.5 0 0 0 0 36.5Z" id="SVGID_3_" fill="#7823DC"/></defs><clipPath id="SVGID_4_"><use width="100%" height="100%" xlink:href="#SVGID_3_"></use></clipPath><path d="M36.5 2.3 36.5 0 2.3 0 2.3 13.7 4.6 13.7 4.6 2.3 36.5 2.3 36.5 2.3Z" fill="#7823DC" clip-path="url(#SVGID_4_)"/><path d="M13.7 20.6 36.5 20.6 36.5 22.9 13.7 22.9 13.7 20.6Z" fill="#7823DC" clip-path="url(#SVGID_4_)"/><path d="M22.8 22.8 27.3 36.6 29.7 36.6 24.4 20.6 21.1 20.6 15.8 36.6 18.2 36.6 22.8 22.8 22.8 22.8Z" fill="#7823DC" clip-path="url(#SVGID_4_)"/><path d="M13.7 26.3 16 26.3 16 36.6 13.7 36.6 13.7 26.3Z" fill="#7823DC" clip-path="url(#SVGID_4_)"/><path d="M5.7 17.1C7.6 17.1 9.1 18.6 9.1 20.5 9.1 22.4 7.6 24 5.7 24 3.8 24 2.3 22.5 2.3 20.6 2.3 18.7 3.8 17.1 5.7 17.1M5.7 14.9C2.6 14.9 0 17.5 0 20.6 0 23.7 2.6 26.3 5.7 26.3 8.8 26.3 11.4 23.7 11.4 20.6 11.4 17.5 8.9 14.9 5.7 14.9L5.7 14.9Z" fill="#7823DC" clip-path="url(#SVGID_4_)"/><path d="M13.7 26.3 10.5 26.3 5.7 31 0.9 26.3 0 26.3 0 28.6 5.7 34.3 13.7 26.3 13.7 26.3Z" fill="#7823DC" clip-path="url(#SVGID_4_)"/></g></g></g></svg>