<svg viewBox="0 0 32 32" xmlns="http://www.w3.org/2000/svg" xmlns:xlink="http://www.w3.org/1999/xlink" overflow="hidden"><defs></defs><g id="Layer_3"><path d="M27.8428 31.959 23.9043 31.959 24.8809 27.0762 15.9219 27.8906 14.9053 31.959 11.124 31.959 11.124 27.6592 0.124 23.6592 0.124 18.1797 0.87986 17.9893C3.29896 17.3589 5.36444 15.7852 6.61424 13.6201 6.73631 13.4238 6.85056 13.2288 6.95701 13.0351 5.74219 11.1836 4.544 8.125 6.417 6.252 6.65449 6.01321 6.98445 5.89011 7.32031 5.915 7.86331 5.9482 8.49121 6.19723 10.5674 8.78609 11.7335 8.46299 12.917 8.20671 14.1123 8.01851L14.4268 9.99312C13.1022 10.1976 11.7942 10.4972 10.5127 10.8896L9.8477 11.1054 9.416 10.5547C8.81763 9.76324 8.17433 9.00678 7.48926 8.28906 7.1709 9.58496 8.38281 11.6328 8.9248 12.3603L9.28906 12.8486 9.02246 13.3975C8.80792 13.8348 8.57163 14.2611 8.31446 14.6748 6.92706 17.0462 4.72808 18.8351 2.124 19.7109L2.124 22.2588 13.124 26.2588 13.124 29.959 13.3427 29.959 14.3261 26.0274 27.3671 24.8418 26.3438 29.959 26.4014 29.959C27.0557 27.9561 28.9248 22.0947 29.1279 19.8682 29.3037 17.9736 28.5762 13.8252 27.417 12.666 26.1602 11.4515 24.6031 10.5927 22.9053 10.1778L23.4209 8.24611C25.4592 8.74982 27.3266 9.78734 28.8311 11.252 30.668 13.0889 31.3066 18.0284 31.1201 20.0508 30.8525 22.9727 28.1856 30.9395 28.0723 31.2774Z" fill="#7823DC"/><path d="M10.409 10.917 9.817 9.007 9.993 8.961 10.409 10.917Z" fill="#7823DC"/><rect x="7.12402" y="17.959" width="2" height="2" fill="#7823DC"/><path d="M29.956 13.514 28.292 12.404 30.124 9.656 30.124 6.959 29.124 6.959 29.124 8.959 27.124 8.959 27.124 4.959 32.124 4.959 32.124 10.262 29.956 13.514Z" fill="#7823DC"/><path d="M19.0469 13.959C15.9896 13.9593 13.511 11.4811 13.5107 8.42388 13.5104 5.36663 15.9886 2.88801 19.0458 2.88772 22.1031 2.88743 24.5817 5.36559 24.582 8.42284 24.5786 11.4786 22.1026 13.955 19.0469 13.959ZM19.0469 4.88772C17.0942 4.88743 15.511 6.47016 15.5107 8.42284 15.5104 10.3755 17.0932 11.9587 19.0458 11.959 20.9985 11.9593 22.5817 10.3766 22.582 8.42388 22.582 8.42354 22.582 8.42319 22.582 8.42285 22.5796 6.47144 20.9983 4.89009 19.0469 4.8877Z" fill="#7823DC"/><rect x="14" y="11.9976" width="9.99735" height="2.03256" fill="#7823DC"/></g></svg>