<svg width="32.34" height="35.48" viewBox="0 0 32.34 35.48" xmlns="http://www.w3.org/2000/svg" xmlns:xlink="http://www.w3.org/1999/xlink" overflow="hidden"><style>
.MsftOfcResponsive_Fill_7823dc {
 fill:#7823DC; 
}
</style>
<defs></defs><g><g><path d="M20.16 24.37C13.44 24.37 7.98 18.9 7.98 12.19 7.98 5.48 13.44 0 20.16 0 26.88 0 32.34 5.47 32.34 12.18 32.34 18.89 26.87 24.37 20.16 24.37ZM20.16 2C14.54 2 9.97 6.57 9.97 12.18 9.97 17.79 14.54 22.36 20.15 22.36 25.76 22.36 30.33 17.79 30.33 12.18 30.33 6.57 25.77 2 20.16 2Z" class="MsftOfcResponsive_Fill_7823dc" fill="#7823DC"/></g><g><path d="M17.16 16.06 15.33 10.12 20.05 6.79 24.78 10.12 23.04 15.67 17.16 16.06ZM17.68 10.92 18.62 13.96 21.56 13.77 22.45 10.92 20.07 9.24 17.68 10.92Z" class="MsftOfcResponsive_Fill_7823dc" fill="#7823DC"/></g><g><path d="M20.39 5.25 15.97 2.46 17.04 0.77 20.22 2.78 23 0.42 24.29 1.95Z" class="MsftOfcResponsive_Fill_7823dc" fill="#7823DC"/></g><g><rect x="18.18" y="5.01" width="4.01" height="2" class="MsftOfcResponsive_Fill_7823dc" fill="#7823DC" transform="matrix(0.0596 -0.9982 0.9982 0.0596 12.9762 25.8012)"/></g><g><g><path d="M30.72 12.97 26.15 9.38 27.57 4.49 29.49 5.05 28.45 8.64 31.96 11.4Z" class="MsftOfcResponsive_Fill_7823dc" fill="#7823DC"/></g><g><rect x="23.47" y="8.77" width="3.98" height="2" class="MsftOfcResponsive_Fill_7823dc" fill="#7823DC" transform="matrix(0.9255 -0.3788 0.3788 0.9255 -1.8023 10.3716)"/></g></g><g><g><path d="M23.91 22.82 22.05 22.08 24.2 16.68 29.29 16.66 29.3 18.66 25.56 18.67Z" class="MsftOfcResponsive_Fill_7823dc" fill="#7823DC"/></g><g><rect x="22.64" y="14.14" width="2" height="3.98" class="MsftOfcResponsive_Fill_7823dc" fill="#7823DC" transform="matrix(0.7809 -0.6246 0.6246 0.7809 -4.8931 18.2995)"/></g></g><g><g><path d="M16.34 22.8 15.12 18.74 10.68 18.32 10.87 16.33 16.65 16.87 18.26 22.23Z" class="MsftOfcResponsive_Fill_7823dc" fill="#7823DC"/></g><g><rect x="15.04" y="15.18" width="3.98" height="2" class="MsftOfcResponsive_Fill_7823dc" fill="#7823DC" transform="matrix(0.5729 -0.8196 0.8196 0.5729 -5.9855 20.8629)"/></g></g><g><g><path d="M10.07 12.46 8.98 10.79 12.12 8.74 11.26 4.37 13.22 3.98 14.34 9.68Z" class="MsftOfcResponsive_Fill_7823dc" fill="#7823DC"/></g><g><rect x="14.11" y="7.86" width="2" height="3.98" class="MsftOfcResponsive_Fill_7823dc" fill="#7823DC" transform="matrix(0.318 -0.9481 0.9481 0.318 0.9726 21.0415)"/></g></g><g><rect x="0.73" y="18.34" width="10.15" height="2" class="MsftOfcResponsive_Fill_7823dc" fill="#7823DC" transform="matrix(0.6901 -0.7238 0.7238 0.6901 -12.2006 10.1931)"/></g><g><rect x="11.8" y="24.88" width="7.89" height="2" class="MsftOfcResponsive_Fill_7823dc" fill="#7823DC" transform="matrix(0.686 -0.7276 0.7276 0.686 -13.8886 19.5795)"/></g><g><path d="" class="MsftOfcResponsive_Fill_7823dc" stroke="#7823DC" stroke-width="2" stroke-miterlimit="10" fill="#7823DC"/></g><g><rect x="10.89" y="29.18" width="1.58" height="2" class="MsftOfcResponsive_Fill_7823dc" fill="#7823DC" transform="matrix(0.686 -0.7276 0.7276 0.686 -18.2903 17.972)"/></g><g><rect x="-1.24" y="25.69" width="13.05" height="2" class="MsftOfcResponsive_Fill_7823dc" fill="#7823DC" transform="matrix(0.7012 -0.7129 0.7129 0.7012 -17.4486 11.7445)"/></g></g></svg>