<svg viewBox="0 0 32 32" xmlns="http://www.w3.org/2000/svg" xmlns:xlink="http://www.w3.org/1999/xlink" id="Layer_2_00000144328325245699140920000014890284756443101063_" xml:space="preserve" overflow="hidden"><g><path d="M16.3 0C16.2 0 16.1 0 16 0 15.9 0 15.8 0 15.7 0 7.1 0.1 0 7.3 0 16.1 0 17.3 0.1 18.5 0.4 19.7 0.7 20.8 1 21.9 1.5 23 1.7 23.3 1.8 23.6 2 23.9 2.2 24.3 2.4 24.7 2.7 25L5.1 25C4.6 24.4 4.1 23.7 3.7 23L2 23 2 21 2.8 21C2.6 20.4 2.4 19.7 2.2 19 2.1 18.4 2 17.7 2 17 2 16.7 2 16.4 2 16.1 2 15.7 2 15.4 2 15 2.4 9.1 6.6 4.2 12.1 2.6 13.3 2.2 14.6 2 16 2 17.4 2 18.7 2.2 19.9 2.6 25.4 4.2 29.6 9.1 30 15 30 15.3 30 15.7 30 16.1 30 16.4 30 16.7 30 17 29.6 23 25.5 27.9 19.9 29.6L19.9 29.6C18.7 29.9 17.4 30.1 16.1 30.2 16.1 30.2 16 30.2 15.9 30.2 15.2 30.2 14.4 30.1 13.7 30L8 30C9.7 31 11.6 31.7 13.5 32L18.5 32C26.2 30.8 32.1 24.1 32 16.1 32 7.3 24.9 0.1 16.3 0Z" fill="#7823DC" fill-rule="evenodd" clip-rule="evenodd"/><path d="M1 15 31.2 15 31.2 17 1 17Z" fill="#7823DC" fill-rule="evenodd" clip-rule="evenodd"/><path d="M12.4 31C13.1 32 14 31.6 14.9 31.9L17.2 31.9C18.2 31.6 19.2 30.7 20 29.5L20 29.5 20 29.5C21.8 26.8 23 22.3 23.1 16.9 23.1 16.6 23.1 16.3 23.1 16 23 15.7 23 15.4 23 15 22.9 9.7 21.7 5.2 19.9 2.6 18.9 1.1 17.6 0.1 16.2 -4.44089e-16 16.1 -4.44089e-16 16 -4.44089e-16 15.9 -4.44089e-16 15.8 -4.44089e-16 15.7 -4.44089e-16 15.6 -4.44089e-16 14.2 0.1 13 1 11.9 2.6 10.3 5.2 9.1 9.7 9 15 9 15.4 9 15.7 9 16.1 9 16.4 9 16.7 9 17 9 17.7 9 18.3 9.1 19 9.1 19.7 9.2 20.4 9.3 21L11.3 21C11.2 20.4 11.1 19.7 11.1 19 11.1 18.4 11 17.7 11 17 11 16.7 11 16.4 11 16.1 11 15.7 11 15.4 11 15 11.2 7.3 13.7 2 16 2 18.3 2 20.8 7.3 21 15 21 15.4 21 15.7 21 16.1 21 16.4 21 16.7 21 17 20.9 19.9 20.5 22.5 19.9 24.5 19.4 26.4 19.8 27.9 19 28.9L18 30 16.7 31C16.5 31.1 16.3 30 16.2 30.1 16.2 30.1 16.1 30.1 16 30.1M12.9 27 12 27 12 29 14.1 29C13.7 28.5 13.3 27.8 12.9 27ZM11.7 23 9.6 23C9.7 23.7 9.9 24.4 10.1 25L12.2 25C12 24.4 11.8 23.7 11.7 23Z" fill="#7823DC" fill-rule="evenodd" clip-rule="evenodd"/></g><path d="M51.1 19 44.1 19C44.2 19.7 44.2 20.4 44.3 21L49.9 21C50.4 21 50.9 21.4 50.9 22L50.9 29C51.7 28 52.4 26.5 52.9 24.6L52.9 20.8C52.9 19.8 52.1 19 51.1 19ZM48.3 30C48.5 30.1 48.8 30.2 49 30.2 49.1 30.2 49.1 30.2 49.2 30.2 49.4 30.2 49.6 30.1 49.7 30L48.3 30ZM51.1 19 44.1 19C44.2 19.7 44.2 20.4 44.3 21L50.9 21 50.9 29C51.7 28 52.4 26.5 52.9 24.6L52.9 20.8C52.9 19.8 52.1 19 51.1 19ZM49 30.2C49.1 30.2 49.1 30.2 49.2 30.2 49.4 30.2 49.6 30.1 49.7 30L48.3 30C48.5 30.1 48.8 30.2 49 30.2ZM51.1 19 34.8 19C34.2 19 33.7 19.3 33.4 19.7 33.2 20 33 20.4 33 20.8L33 30.2C33 31.2 33.8 32 34.8 32L51.2 32C52.2 32 53 31.2 53 30.2L53 20.8C52.9 19.8 52.1 19 51.1 19ZM50.9 30 35 30 35 22C35 21.5 35.4 21 36 21L50.9 21 50.9 30ZM48.3 30C48.5 30.1 48.8 30.2 49 30.2 49.1 30.2 49.1 30.2 49.2 30.2 49.4 30.2 49.6 30.1 49.7 30L48.3 30ZM51.1 19 44.1 19C44.2 19.7 44.2 20.4 44.3 21L50.9 21 50.9 29C51.7 28 52.4 26.5 52.9 24.6L52.9 20.8C52.9 19.8 52.1 19 51.1 19ZM48.3 30C48.5 30.1 48.8 30.2 49 30.2 49.1 30.2 49.1 30.2 49.2 30.2 49.4 30.2 49.6 30.1 49.7 30L48.3 30ZM51.1 19 44.1 19C44.2 19.7 44.2 20.4 44.3 21L50.9 21 50.9 29C51.7 28 52.4 26.5 52.9 24.6L52.9 20.8C52.9 19.8 52.1 19 51.1 19Z" fill="#7823DC"/><rect x="1" y="23" width="18" height="2" fill="#7823DC"/><rect x="12" y="27" width="4" height="2" fill="#7823DC"/><path d="M18 21 18 30 2 30 2 21 18 21M20 19 0 19 0 32 20 32 20 19 20 19Z" fill="#7823DC"/></svg>