<svg width="36.5" height="36.6" viewBox="0 0 36.5 36.6" xmlns="http://www.w3.org/2000/svg" xmlns:xlink="http://www.w3.org/1999/xlink" overflow="hidden"><defs></defs><g><g><defs><path d="M0 36.5 36.5 36.5 36.5 0 0 0 0 36.5Z" id="SVGID_1_" fill="#7823DC"/></defs><clipPath id="SVGID_2_"><use width="100%" height="100%" xlink:href="#SVGID_1_"></use></clipPath><g clip-path="url(#SVGID_2_)"><defs><path d="M0 36.5 36.5 36.5 36.5 0 0 0 0 36.5Z" id="SVGID_3_" fill="#7823DC"/></defs><clipPath id="SVGID_4_"><use width="100%" height="100%" xlink:href="#SVGID_3_"></use></clipPath><path d="M18.2 36.6C8.2 36.6 0 28.4 0 18.3 0 8.2 8.2 0 18.2 0 28.2 0 36.4 8.2 36.4 18.3 36.4 28.4 28.3 36.6 18.2 36.6ZM18.2 2.3C9.4 2.3 2.2 9.5 2.2 18.3 2.2 27.1 9.4 34.3 18.2 34.3 27 34.3 34.2 27.1 34.2 18.3 34.2 9.5 27 2.3 18.2 2.3Z" fill="#7823DC" clip-path="url(#SVGID_4_)"/><path d="M12.5 17.1C11.2 17.1 10.2 16.1 10.2 14.8 10.2 13.5 11.2 12.5 12.5 12.5 13.8 12.5 14.8 13.5 14.8 14.8 14.8 16.1 13.8 17.1 12.5 17.1ZM12.5 14.9 12.5 14.9 12.5 14.9Z" fill="#7823DC" clip-path="url(#SVGID_4_)"/><path d="M23.9 17.1C22.6 17.1 21.6 16.1 21.6 14.8 21.6 13.5 22.6 12.5 23.9 12.5 25.2 12.5 26.2 13.5 26.2 14.8 26.2 16.1 25.2 17.1 23.9 17.1ZM23.9 14.9 23.9 14.9 23.9 14.9Z" fill="#7823DC" clip-path="url(#SVGID_4_)"/><path d="M18.2 28.6C14 28.6 10.2 24.8 10.2 21.7L12.5 21.7C12.5 23.2 15 26.3 18.2 26.3 21.4 26.3 23.9 23.3 23.9 21.7L26.2 21.7C26.2 24.7 22.5 28.6 18.2 28.6Z" fill="#7823DC" clip-path="url(#SVGID_4_)"/></g></g></g></svg>