<svg width="32" height="32" viewBox="0 0 32 32" xmlns="http://www.w3.org/2000/svg" xmlns:xlink="http://www.w3.org/1999/xlink" overflow="hidden"><defs></defs><g><g><g><defs><rect x="0" y="0" width="32" height="32" id="SVGID_1_" fill="#7823DC"/></defs><clipPath id="SVGID_2_"><use width="100%" height="100%" xlink:href="#SVGID_1_"></use></clipPath><g clip-path="url(#SVGID_2_)"><defs><rect x="0" y="0" width="32" height="32" id="SVGID_3_" fill="#7823DC"/></defs><clipPath id="SVGID_4_"><use width="100%" height="100%" xlink:href="#SVGID_3_"></use></clipPath></g></g></g><path d="M24.8 24 16.8 16 20.8 12 18 12 14 16 22 24Z" fill="#7823DC"/><path d="M16 32C7.2 32 0 24.8 0 16 0 7.2 7.2 0 16 0 24.8 0 32 7.2 32 16 32 24.8 24.8 32 16 32ZM16 2C8.3 2 2 8.3 2 16 2 23.7 8.3 30 16 30 23.7 30 30 23.7 30 16 30 8.3 23.7 2 16 2Z" fill="#7823DC"/></g></svg>