<svg viewBox="0 0 32 32" xmlns="http://www.w3.org/2000/svg" xmlns:xlink="http://www.w3.org/1999/xlink" id="Layer_1" xml:space="preserve" overflow="hidden"><g><path d="M32 23.7 32 27 16 3.5 0 27 0 23.7 16 0.3 32 23.7 32 23.7Z" fill="#7823DC" fill-rule="evenodd" clip-rule="evenodd"/><path d="M17.7 22.5 14.2 22.5 13.2 10.1 18.7 10.1 17.7 22.5 17.7 22.5 17.7 22.5ZM16 20.6 16 20.6 16.7 12.1 15.3 12.1 16 20.6 16 20.6 16 20.6Z" fill="#7823DC" fill-rule="evenodd" clip-rule="evenodd"/><path d="M13.9 25.9C13.9 24.8 14.8 23.9 15.9 23.9 17 23.9 17.9 24.8 17.9 25.9 17.9 27 17 27.9 15.9 27.9 14.8 27.9 13.9 27 13.9 25.9L13.9 25.9Z" fill="#7823DC" fill-rule="evenodd" clip-rule="evenodd"/><path d="M13.9 0 14 0 14 0.1 13.9 0.1 13.9 0Z" fill="#7823DC" fill-rule="evenodd" clip-rule="evenodd"/></g><rect x="0" y="29.9" width="32" height="2.1" fill="#7823DC" fill-rule="evenodd" clip-rule="evenodd"/></svg>