<svg width="36.5" height="36.5" viewBox="0 0 36.5 36.5" xmlns="http://www.w3.org/2000/svg" xmlns:xlink="http://www.w3.org/1999/xlink" overflow="hidden"><defs></defs><g><g><defs><path d="M0 36.5 36.5 36.5 36.5 0 0 0 0 36.5Z" id="SVGID_1_" fill="#7823DC"/></defs><clipPath id="SVGID_2_"><use width="100%" height="100%" xlink:href="#SVGID_1_"></use></clipPath><g clip-path="url(#SVGID_2_)"><defs><path d="M0 36.5 36.5 36.5 36.5 0 0 0 0 36.5Z" id="SVGID_3_" fill="#7823DC"/></defs><clipPath id="SVGID_4_"><use width="100%" height="100%" xlink:href="#SVGID_3_"></use></clipPath><path d="M27.4 2.3 29.6 2.3 29.6 4.6 27.4 4.6 27.4 2.3Z" fill="#7823DC" clip-path="url(#SVGID_4_)"/><path d="M22.8 2.3 25.1 2.3 25.1 4.6 22.8 4.6 22.8 2.3Z" fill="#7823DC" clip-path="url(#SVGID_4_)"/><path d="M11.4 2.3 13.7 2.3 13.7 4.6 11.4 4.6 11.4 2.3Z" fill="#7823DC" clip-path="url(#SVGID_4_)"/><path d="M6.8 2.3 9.1 2.3 9.1 4.6 6.8 4.6 6.8 2.3Z" fill="#7823DC" clip-path="url(#SVGID_4_)"/><path d="M25.1 6.9 22.8 6.9 22.8 22.9C22.8 25.4 20.8 27.5 18.2 27.5 15.6 27.5 13.6 25.5 13.6 22.9L13.6 6.9 11.3 6.9 6.7 11.5 6.7 22.9C6.7 29.2 11.8 34.3 18.1 34.3 24.4 34.3 29.5 29.2 29.5 22.9L29.5 11.4 25.1 6.9 25.1 6.9ZM9.1 9.1 11.4 9.1 11.4 11.4 9.1 11.4 9.1 9.1 9.1 9.1ZM27.4 22.9C27.4 27.9 23.3 32 18.3 32 13.3 32 9.2 27.9 9.2 22.9L9.2 13.8 11.5 13.8 11.5 22.9C11.5 26.7 14.6 29.8 18.3 29.8 22 29.8 25.1 26.7 25.1 22.9L25.1 13.8 27.4 13.8 27.4 22.9 27.4 22.9ZM27.4 11.4 25.1 11.4 25.1 9.1 27.4 9.1 27.4 11.4 27.4 11.4Z" fill="#7823DC" clip-path="url(#SVGID_4_)"/></g></g></g></svg>