<svg viewBox="0 0 32 32" xmlns="http://www.w3.org/2000/svg" xmlns:xlink="http://www.w3.org/1999/xlink" id="Layer_1" overflow="hidden"><path d="M26.9 14.5 26.9 15.9 26.9 17.9 28.9 17.9 30 17.9 30 20.1 28.9 20.1 26.9 20.1 26.9 22.1 26.9 23.5 18.1 23.5 23 14.5 26.9 14.5M5 14.5 4.7 15.2 3.4 18 6.5 18 13.4 18 13.4 23.5 2 23.5 2 14.5 5 14.5M28.9 12.5 21.8 12.5 15.5 24.2 15.5 16 6.5 16 8 12.5 0 12.5 0 25.5 28.9 25.5 28.9 22.1 32 22.1 32 15.9 28.9 15.9 28.9 12.5 28.9 12.5Z" fill="#7823DC"/><path d="M17.4 10 23.4 0 11.4 0 5.8 12.5 3.4 18 13.4 18 13.4 32 17 25.5 24.1 12.5 25.5 10 17.4 10ZM15.4 24.2 15.4 16 6.5 16 8 12.5 12.7 2 19.9 2 15.7 9 13.9 12 22 12 21.7 12.5 15.4 24.2Z" fill="#7823DC"/></svg>