<svg viewBox="0 0 32 32" xmlns="http://www.w3.org/2000/svg" xmlns:xlink="http://www.w3.org/1999/xlink" id="Layer_2_00000144328325245699140920000014890284756443101063_" xml:space="preserve" overflow="hidden"><g><path d="M16.1 12.1 10 3.9 12.4 0 19.7 0 22.1 3.8 16.1 12.1 16.1 12.1 16.1 12.1ZM12.4 3.8 16 8.7 19.6 3.8 18.5 2.1 13.5 2.1 12.4 3.8 12.4 3.8Z" fill="#7823DC" fill-rule="evenodd" clip-rule="evenodd"/><path d="M19.2 8.9 17.9 10.6C22.4 11.5 25.7 15.4 25.7 20.2 25.7 25.6 21.3 30 16 30 10.6 30 6.3 25.6 6.3 20.2 6.3 15.4 9.5 11.3 14.1 10.6 14.1 10.6 14.1 10.6 14.1 10.6L12.9 8.9C7.7 10 4.2 14.7 4.2 20.2 4.2 26.7 9.5 32 16 32 22.5 32 27.7 26.7 27.7 20.2 27.8 14.8 24.2 10.2 19.2 8.9L19.2 8.9Z" fill="#7823DC" fill-rule="evenodd" clip-rule="evenodd"/></g></svg>