<svg viewBox="0 0 32 32" xmlns="http://www.w3.org/2000/svg" xmlns:xlink="http://www.w3.org/1999/xlink" id="Layer_1" overflow="hidden"><style>
.MsftOfcResponsive_Fill_7823dc {
 fill:#7823DC; 
}
</style>
<g><path d="M63.5 17.8C66.6 17.8 69.1 20.3 69.1 23.4 69.1 26.5 66.6 29 63.5 29 60.4 29 57.9 26.5 57.9 23.4 57.9 20.3 60.4 17.8 63.5 17.8M63.5 15.8C59.3 15.8 55.9 19.2 55.9 23.4 55.9 27.6 59.3 31 63.5 31 67.7 31 71.1 27.6 71.1 23.4 71.1 19.2 67.7 15.8 63.5 15.8L63.5 15.8Z" class="MsftOfcResponsive_Fill_7823dc" fill="#7823DC"/></g><g><path d="M16 2C20 2 23.2 5.2 23.2 9.2 23.2 13.2 20 16.5 16 16.5 12 16.5 8.8 13.3 8.8 9.3 8.8 5.3 12 2 16 2M16 0C10.9 0 6.8 4.1 6.8 9.2 6.8 14.3 10.9 18.4 16 18.4 21.1 18.4 25.2 14.3 25.2 9.2 25.2 4.1 21.1 0 16 0L16 0Z" class="MsftOfcResponsive_Fill_7823dc" fill="#7823DC"/><rect x="15" y="17.2" width="2" height="14.8" class="MsftOfcResponsive_Fill_7823dc" fill="#7823DC"/><rect x="9.8" y="24.8" width="12.3" height="2" class="MsftOfcResponsive_Fill_7823dc" fill="#7823DC"/></g><g><line x1="63.5" y1="5.7" x2="63.5" y2="17.9" stroke="#000000" stroke-width="2" stroke-miterlimit="10" fill="none"/></g><g><path d="M64.5 8.4 68.3 12.2 68.3 9.5 63.5 4.7 58.7 9.5 58.7 9.5 58.7 12.2 62.5 8.4" class="MsftOfcResponsive_Fill_7823dc" fill="#7823DC" fill-rule="evenodd" clip-rule="evenodd"/></g></svg>