<svg width="36.5" height="36.5" viewBox="0 0 36.5 36.5" xmlns="http://www.w3.org/2000/svg" xmlns:xlink="http://www.w3.org/1999/xlink" overflow="hidden"><defs></defs><g><g><defs><path d="M0 36.5 36.5 36.5 36.5 0 0 0 0 36.5Z" id="SVGID_1_" fill="#7823DC"/></defs><clipPath id="SVGID_2_"><use width="100%" height="100%" xlink:href="#SVGID_1_"></use></clipPath><g clip-path="url(#SVGID_2_)"><defs><path d="M0 36.5 36.5 36.5 36.5 0 0 0 0 36.5Z" id="SVGID_3_" fill="#7823DC"/></defs><clipPath id="SVGID_4_"><use width="100%" height="100%" xlink:href="#SVGID_3_"></use></clipPath><path d="M9.1 14.9 6.8 14.9 6.8 11.5C6.8 5.1 12 0 18.2 0 24.4 0 29.6 5.1 29.6 11.4L27.3 11.4C27.3 6.4 23.2 2.3 18.2 2.3 13.2 2.3 9.1 6.4 9.1 11.4L9.1 14.9Z" fill="#7823DC" clip-path="url(#SVGID_4_)"/><path d="M19.4 27.4 17.1 27.4 17.1 22.9 16 22.9 16 20.6 19.4 20.6Z" fill="#7823DC" clip-path="url(#SVGID_4_)"/><path d="M2.3 13.7 2.3 34.3 29.6 34.3 31.9 32 4.6 32 4.6 16 31.9 16 31.9 32 34.2 29.7 34.2 13.7 2.3 13.7 2.3 13.7Z" fill="#7823DC" clip-path="url(#SVGID_4_)"/></g></g></g></svg>