<svg viewBox="0 0 30 32" xmlns="http://www.w3.org/2000/svg" xmlns:xlink="http://www.w3.org/1999/xlink" id="Layer_1" overflow="hidden"><style>
.MsftOfcResponsive_Fill_7823dc {
 fill:#7823DC; 
}
</style>
<defs></defs><path d="M13.94 22.03C13.27 22.03 12.73 21.5 12.73 20.85L10.73 20.85C10.73 22.6 12.17 24.03 13.94 24.03 15.71 24.03 17.15 22.6 17.15 20.85L15.15 20.85C15.15 21.5 14.61 22.03 13.94 22.03Z" class="MsftOfcResponsive_Fill_7823dc" fill="#7823DC"/><path d="M26 8C28.21 8 30 6.21 30 4 30 1.79 28.21 0 26 0 25.06 0 24.2 0.34 23.52 0.89 17.36-0.56 9.36-0.36 4.81 8.08 3.62 8.36 2.73 9.42 2.73 10.69 2.73 10.97 2.78 11.23 2.86 11.48 1.53 11.88 0.44 12.94 0.1 14.37-0.15 15.4 0.03 16.47 0.59 17.37 1.04 18.11 1.71 18.65 2.5 18.97 2.42 19.36 2.29 19.72 2.14 20.13 1.84 20.94 1.49 21.86 1.58 23.12 1.67 24.43 2.41 25.76 3.59 26.78 4.92 27.91 6.63 28.48 8.29 28.35 8.43 28.48 8.65 28.79 8.81 29.03 9.58 30.11 10.74 31.75 13.35 32L14.42 32C16.93 31.76 18.09 30.12 18.86 29.03 19.03 28.79 19.25 28.48 19.38 28.35 21.03 28.49 22.75 27.92 24.08 26.78 25.27 25.76 26 24.43 26.09 23.12 26.18 21.86 25.83 20.94 25.53 20.13 25.39 19.75 25.26 19.41 25.19 19.06 26.1 18.76 26.88 18.18 27.39 17.36 27.95 16.45 28.12 15.39 27.88 14.36 27.51 12.81 26.26 11.69 24.77 11.38 24.83 11.16 24.87 10.92 24.87 10.68 24.87 10.13 24.7 9.62 24.42 9.19L25.36 7.92C25.56 7.95 25.77 7.98 25.98 7.98ZM26 2C27.1 2 28 2.9 28 4 28 5.1 27.1 6 26 6 24.9 6 24 5.1 24 4 24 2.9 24.9 2 26 2ZM2.05 14.83C2.18 14.27 2.55 13.82 3.03 13.56 2.78 14.41 2.53 15.49 2.48 16.56 2.41 16.48 2.35 16.4 2.29 16.32 2.01 15.87 1.93 15.34 2.05 14.84ZM22.79 25.27C21.88 26.05 20.72 26.45 19.59 26.37 18.46 26.17 17.78 27.12 17.24 27.88 16.58 28.81 15.84 29.86 14.33 30L13.45 30C11.85 29.85 11.11 28.8 10.45 27.88 9.96 27.19 9.36 26.34 8.4 26.34 8.3 26.34 8.2 26.34 8.1 26.37 6.97 26.45 5.81 26.05 4.9 25.27 4.13 24.61 3.63 23.76 3.58 22.99 3.52 22.16 3.75 21.55 4.02 20.84 4.35 19.95 4.73 18.94 4.51 17.52 4.31 16.24 4.81 14.44 5.19 13.39L6.12 13.39 6.12 17.51 6.28 17.76C7.61 19.8 9.74 20.46 11.57 19.4 11.7 19.32 11.83 19.24 11.96 19.17 12.62 18.77 13.1 18.48 13.98 18.48 14.86 18.48 15.34 18.77 16 19.18L16.39 19.41C16.97 19.75 17.58 19.91 18.19 19.91 19.49 19.91 20.77 19.16 21.68 17.77L21.84 17.52 21.84 13.4 22.5 13.4C22.87 14.45 23.37 16.25 23.18 17.53 22.96 18.95 23.34 19.96 23.67 20.85 23.94 21.56 24.17 22.18 24.11 23 24.06 23.76 23.57 24.62 22.79 25.28ZM8.12 13.38 19.84 13.38 19.84 16.88C19.43 17.42 18.52 18.3 17.39 17.65L17.04 17.44C16.28 16.98 15.42 16.45 13.98 16.45 12.54 16.45 11.68 16.97 10.92 17.44L10.57 17.65C9.45 18.3 8.54 17.41 8.12 16.88L8.12 13.38ZM25.94 14.83C26.06 15.34 25.98 15.87 25.7 16.32 25.57 16.53 25.41 16.7 25.22 16.85 25.22 15.63 24.9 14.35 24.61 13.41 25.25 13.62 25.77 14.14 25.94 14.84ZM22.78 8.07C22.58 8.02 22.38 8 22.17 8L16.56 8 16.56 10 22.17 10C22.56 10 22.88 10.31 22.88 10.69 22.88 11.07 22.56 11.38 22.17 11.38L5.45 11.38C5.06 11.38 4.74 11.07 4.74 10.69 4.74 10.31 5.06 10 5.45 10L9.73 10 9.73 8 7.18 8C10.32 3.04 15.39 1.25 22.25 2.65 22.1 3.07 22 3.52 22 4 22 5.26 22.6 6.37 23.51 7.11L22.79 8.08Z" class="MsftOfcResponsive_Fill_7823dc" fill="#7823DC"/><circle cx="18.11" cy="15.38" r="1" class="MsftOfcResponsive_Fill_7823dc" fill="#7823DC"/><circle cx="10" cy="15.38" r="1" class="MsftOfcResponsive_Fill_7823dc" fill="#7823DC"/></svg>