<svg viewBox="0 0 32 32" xmlns="http://www.w3.org/2000/svg" xmlns:xlink="http://www.w3.org/1999/xlink" id="Layer_1" overflow="hidden"><path d="M22.4 26.2 22.4 24.4C22.4 23.3 23.3 22.4 24.4 22.4L26.2 22.4C27.3 22.4 28.2 23.3 28.2 24.4L28.2 26.2 22.4 26.2M20.4 28.1 30 28.1 30 24.4C30 22.2 28.2 20.4 26 20.4L24.3 20.4C22.1 20.4 20.3 22.2 20.3 24.4L20.3 28.1 20.4 28.1 20.4 28.1Z" fill="#7823DC"/><path d="M18.5 28.1 32 28.1 32 26.2 18.5 26.2 18.5 28.1 18.5 28.1 18.5 28.1 18.5 28.1Z" fill="#7823DC"/><path d="M27.2 32 29.1 32 29.1 27.2 27.2 27.2 27.2 32 27.2 32 27.2 32 27.2 32Z" fill="#7823DC"/><path d="M21.4 32 23.3 32 23.3 27.2 21.4 27.2 21.4 32 21.4 32 21.4 32 21.4 32Z" fill="#7823DC"/><path d="M1 24C5.4 24 9 20.4 9 16 9 11.6 5.4 8 1 8-3.4 8-7 11.6-7 16-6.9 20.4-3.4 24 1 24L1 24ZM1 10C4.3 10 7 12.7 7 16 7 19.3 4.3 22 1 22-2.3 22-5 19.3-5 16-4.9 12.7-2.3 10 1 10L1 10Z" fill="#7823DC"/><path d="M24.1 20.7C24.1 20.7 24 13.8 24 9 24 8 23.8 7.4 23.5 7.1 23.1 6.7 22.1 6.6 20.7 6.7L20.6 4.7C22.3 4.6 23.8 4.7 24.9 5.7 25.6 6.4 26 7.5 26 9 26.1 13.8 26.1 20.7 26.1 20.7L24.1 20.7Z" fill="#7823DC"/><g><path d="M14.3 4.7 19.1 4.7 19.1 6.7 14.3 6.7Z" fill="#7823DC" fill-rule="evenodd" clip-rule="evenodd"/><path d="M19.1-0.1 14.3 4.7 15.6 6.1 19.1 2.6 19.1-0.1" fill="#7823DC" fill-rule="evenodd" clip-rule="evenodd"/><path d="M14.3 11.5 19.1 6.7 17.8 5.3 14.3 8.8 14.3 11.5" fill="#7823DC" fill-rule="evenodd" clip-rule="evenodd"/></g><rect x="0" y="0" width="2" height="6.2" fill="#7823DC"/><rect x="0" y="25.8" width="2" height="6.3" fill="#7823DC"/><rect x="10.5" y="15" width="6.3" height="2" fill="#7823DC"/><rect x="9.3" y="21.9" width="2" height="6.3" fill="#7823DC" transform="matrix(0.7072 -0.707 0.707 0.7072 -14.7073 14.5855)"/><rect x="7.1" y="5.8" width="6.3" height="2" fill="#7823DC" transform="matrix(0.7071 -0.7071 0.7071 0.7071 -1.773 9.2302)"/></svg>