<svg viewBox="0 0 29.22 29.22" xmlns="http://www.w3.org/2000/svg" xmlns:xlink="http://www.w3.org/1999/xlink" id="Layer_5" overflow="hidden"><defs></defs><path d="M17.4 20.81 17.29 20.86C16.8 21.08 16.4 21.19 16.1 21.19 15.98 21.19 15.72 21.16 15.12 21.01 14.82 20.93 14.67 20.9 14.61 20.89 14.34 20.85 14 20.85 13.74 20.91 13.98 20.61 14.14 20.35 14.24 20.14 14.37 19.85 14.43 19.54 14.43 19.2 14.43 19.15 14.43 19.1 14.43 19.06L16.04 19.06 16.04 17.46 14.1 17.46C14.03 17.25 13.97 17.03 13.92 16.79 13.86 16.52 13.83 16.3 13.83 16.14 13.83 15.84 13.92 15.6 14.12 15.41 14.31 15.22 14.55 15.12 14.84 15.12 15.11 15.12 15.34 15.2 15.52 15.37 15.7 15.54 15.83 15.83 15.9 16.24L15.92 16.36 17.82 16.08 17.8 15.96C17.69 15.18 17.38 14.56 16.88 14.14 16.38 13.72 15.71 13.5 14.88 13.5 14.34 13.5 13.83 13.61 13.37 13.83 12.91 14.05 12.54 14.38 12.29 14.8 12.04 15.22 11.91 15.67 11.91 16.13 11.91 16.59 11.98 17.02 12.11 17.46L11.2 17.46 11.2 19.06 12.48 19.06C12.48 19.14 12.49 19.21 12.49 19.28 12.49 19.6 12.39 19.93 12.2 20.28 12.01 20.63 11.69 20.97 11.25 21.29L11.17 21.35 11.92 23.06 12.04 22.98C12.53 22.64 13.02 22.47 13.49 22.47 13.77 22.47 14.21 22.56 14.81 22.72 15.43 22.9 15.93 22.98 16.31 22.98 16.6 22.98 16.91 22.94 17.22 22.86 17.53 22.78 17.81 22.67 18.05 22.54L18.15 22.49 17.39 20.82Z" stroke-width="0" fill="#7823DC"/><path d="M21.6 7.28 16.69 7.28 21.9-0.04 7.22-0.04 12.76 7.28 7.25 7.28 0 21.18 5.21 29.21 24.49 29.21 29.19 21.23 21.6 7.29ZM18.02 1.96 15.53 5.47 13.89 5.47 11.24 1.96 18.03 1.96ZM23.34 27.21 6.29 27.21 2.31 21.07 8.46 9.28 20.41 9.28 26.89 21.18 23.34 27.2Z" stroke-width="0" fill="#7823DC"/></svg>