<svg width="36.5" height="36.6" viewBox="0 0 36.5 36.6" xmlns="http://www.w3.org/2000/svg" xmlns:xlink="http://www.w3.org/1999/xlink" overflow="hidden"><defs></defs><g><g><defs><path d="M0 36.6 36.5 36.6 36.5 0 0 0 0 36.6Z" id="SVGID_1_" fill="#7823DC"/></defs><clipPath id="SVGID_2_"><use width="100%" height="100%" xlink:href="#SVGID_1_"></use></clipPath><g clip-path="url(#SVGID_2_)"><g><defs><path d="M0 36.5 36.5 36.5 36.5 0 0 0 0 36.5Z" id="SVGID_3_" fill="#7823DC"/></defs><clipPath id="SVGID_4_"><use width="100%" height="100%" xlink:href="#SVGID_3_"></use></clipPath><g clip-path="url(#SVGID_4_)"><defs><path d="M0 36.5 36.5 36.5 36.5 0 0 0 0 36.5Z" id="SVGID_5_" fill="#7823DC"/></defs><clipPath id="SVGID_6_"><use width="100%" height="100%" xlink:href="#SVGID_5_"></use></clipPath><path d="M28.5 4.6 28.5 18.3 22.8 18.3C20.3 18.3 18.2 16.3 18.2 13.7L18.2 9.1C18.2 6.6 20.2 4.5 22.8 4.5L28.5 4.5M30.8 2.3 22.8 2.3C19 2.3 16 5.4 16 9.1L16 13.7C16 17.5 19.1 20.6 22.8 20.6L30.8 20.6 30.8 2.3 30.8 2.3Z" fill="#7823DC" clip-path="url(#SVGID_6_)"/><path d="M30.8 0 28.5 0 28.5 22.9 30.8 22.9 30.8 0 30.8 0 30.8 0Z" fill="#7823DC" clip-path="url(#SVGID_6_)"/><path d="M36.5 6.9 28.5 6.9 28.5 9.1 36.5 9.1 36.5 6.9 36.5 6.9 36.5 6.9Z" fill="#7823DC" clip-path="url(#SVGID_6_)"/><path d="M36.5 13.7 28.5 13.7 28.5 16 36.5 16 36.5 13.7 36.5 13.7 36.5 13.7Z" fill="#7823DC" clip-path="url(#SVGID_6_)"/><path d="M2.3 36.6 0 36.6 0 24.2C0 15.9 6.7 9.1 15 9.1L18.2 9.1 18.2 11.4 15 11.4C8 11.4 2.3 17.2 2.3 24.2L2.3 36.6Z" fill="#7823DC" clip-path="url(#SVGID_6_)"/></g></g></g></g></g></svg>