<svg viewBox="0 0 32 32" xmlns="http://www.w3.org/2000/svg" xmlns:xlink="http://www.w3.org/1999/xlink" id="Layer_1" overflow="hidden"><style>
.MsftOfcResponsive_Fill_7823dc {
 fill:#7823DC; 
}
</style>
<path d="M19 32 13 32 13 26 19 26 19 32ZM15 30 17 30 17 28 15 28 15 30Z" class="MsftOfcResponsive_Fill_7823dc" fill="#7823DC"/><path d="M32 22 26 22 26 18 19 18 19 22 13 22 13 18 6 18 6 22 0 22 0 8 4 8 4 4 8 4 8 0 24 0 24 4 28 4 28 8 32 8 32 22ZM28 20 30 20 30 10 26 10 26 6 22 6 22 2 10 2 10 6 6 6 6 10 2 10 2 20 4 20 4 16 15 16 15 20 17 20 17 16 28 16 28 20Z" class="MsftOfcResponsive_Fill_7823dc" fill="#7823DC"/><path d="M14 14 8 14 8 8 14 8 14 14ZM10 12 12 12 12 10 10 10 10 12Z" class="MsftOfcResponsive_Fill_7823dc" fill="#7823DC"/><path d="M24 14 18 14 18 8 24 8 24 14ZM20 12 22 12 22 10 20 10 20 12Z" class="MsftOfcResponsive_Fill_7823dc" fill="#7823DC"/></svg>