<svg viewBox="0 0 32 32" xmlns="http://www.w3.org/2000/svg" xmlns:xlink="http://www.w3.org/1999/xlink" xml:space="preserve" overflow="hidden"><g id="Layer_1"></g><g id="Layer_2"><g><path d="M16 23.3 16 32C16.7 32 17.3 32 18 32L18 23.3 16 23.3Z" fill="#7823DC" fill-rule="evenodd" clip-rule="evenodd"/><path d="M9.9 25.3 11.1 24.1 9.7 22.7 10.7 21.4 17.2 25.3 18 23.3 10.1 18.9 10.1 18.9 10.1 18.9 10.1 18.9 10.1 19 8.3 21.2 6.8 22.6 8.2 24 6.8 25.4 7.9 26.5 7.9 32C8.6 32 9.2 32 9.9 32L9.9 25.3Z" fill="#7823DC" fill-rule="evenodd" clip-rule="evenodd"/><path d="M5.7 26.6 6.8 25.5 5.4 24.1 6.8 22.7 5.3 21.3 3.6 19 3.6 18.9 3.6 18.9 3.6 18.9 3.6 18.9 0 20.4C0 21.2 0 22 0 22.6L2.9 21.4 3.9 22.7 2.5 24.1 3.7 25.3 3.7 32C4.4 32 5 32 5.7 32L5.7 26.6Z" fill="#7823DC" fill-rule="evenodd" clip-rule="evenodd"/></g><path d="M30 2 30 9.3 25 9.3 24.3 9.3 23.8 9.7 21.3 11.7 21.3 11.7 21.9 9.2 19.4 9.2 17.9 9.2 17.9 2 30 2M32 0 15.8 0 15.8 11.3 19.3 11.3 18 17 25 11.3 32 11.3 32 0 32 0Z" fill="#7823DC"/><g><rect x="19.9" y="5" width="2" height="3" fill="#7823DC"/><rect x="22.9" y="4" width="2" height="4" fill="#7823DC"/><rect x="25.9" y="3" width="2" height="5" fill="#7823DC"/></g><path d="M6.7 6.4C9.3 6.4 11.4 8.5 11.4 11.1 11.4 13.7 9.3 15.8 6.7 15.8 4.1 15.8 2 13.6 2 11 2 8.4 4.1 6.4 6.7 6.4M6.7 4.4C3 4.4 0 7.3 0 11 0 14.7 3 17.7 6.7 17.7 10.4 17.7 13.4 14.7 13.4 11 13.4 7.3 10.3 4.4 6.7 4.4L6.7 4.4Z" fill="#7823DC"/></g></svg>