<svg viewBox="0 0 32 32" xmlns="http://www.w3.org/2000/svg" xmlns:xlink="http://www.w3.org/1999/xlink" overflow="hidden"><defs></defs><g id="Layer_3"><path d="M22.02 14.003 30 14.003 30 22.055 28.27 22.055 28.27 24.067 32 24.067 32 15.944 28.06 11.991 22.05 11.991 22.02 14.003Z" fill="#7823DC"/><path d="M22.542 21.997 6 21.997 6 23.997 24 23.997 22.542 21.997Z" fill="#7823DC"/><rect x="26.0201" y="18.0065" width="5" height="2" fill="#7823DC"/><path d="M4 25.9961C2.34315 25.9961 1 24.6529 1 22.9961 1 21.3392 2.34315 19.9961 4 19.9961 5.65685 19.9961 7 21.3392 7 22.9961 6.99819 24.6522 5.65611 25.9943 4 25.9961ZM4 21.9961C3.44772 21.9961 3 22.4438 3 22.9961 3 23.5484 3.44772 23.9961 4 23.9961 4.55228 23.9961 5 23.5484 5 22.9961 4.99945 22.444 4.55206 21.9966 4 21.9961Z" fill="#7823DC"/><path d="M26.02 25.9961C24.3631 25.9961 23.02 24.6529 23.02 22.9961 23.02 21.3392 24.3631 19.9961 26.02 19.9961 27.6769 19.9961 29.02 21.3392 29.02 22.9961 29.0182 24.6522 27.6761 25.9943 26.02 25.9961ZM26.02 21.9961C25.4677 21.9961 25.02 22.4438 25.02 22.9961 25.02 23.5484 25.4677 23.9961 26.02 23.9961 26.5723 23.9961 27.02 23.5484 27.02 22.9961 27.0194 22.444 26.5721 21.9966 26.02 21.9961Z" fill="#7823DC"/><rect x="21.9901" y="11.9909" width="2.01" height="12.0056" fill="#7823DC"/><rect x="0.00011" y="17.9965" width="21.99" height="2.02" fill="#7823DC"/><rect x="8.00011" y="19.7465" width="2" height="3.26" fill="#7823DC"/><rect x="18.0001" y="19.6765" width="2" height="3.26" fill="#7823DC"/><path d="M20 14.008 0 14.008 0 16.008 20 16.008 20 14.008 20 14.008Z" fill="#7823DC"/><path d="M20 10.061 0 10.061 0 12.061 20 12.061 20 10.061 20 10.061Z" fill="#7823DC"/><path d="M20 5.997 0 5.997 0 7.997 20 7.997 20 5.997 20 5.997Z" fill="#7823DC"/></g></svg>