<svg viewBox="0 0 32 32" xmlns="http://www.w3.org/2000/svg" xmlns:xlink="http://www.w3.org/1999/xlink" id="Layer_1" xml:space="preserve" overflow="hidden"><style>
.MsftOfcResponsive_Fill_7823dc {
 fill:#7823DC; 
}
</style>
<g><path d="M5.1 13.4C5 13.5 4.9 13.5 4.8 13.6 4.8 13.6 4.6 13.7 4.5 13.8 4.2 14 4.1 14.2 3.8 14.5 3.1 15.3 2.8 16.3 2.8 17.6 2.8 19.8 3.9 21.8 5.6 23.1 6.5 23.9 7.6 24.4 8.8 24.7 8.2 24.8 7.6 24.8 7.1 24.9L6.4 25C5.8 25.1 5.4 25.1 5.1 25.2 4.4 24.8 3.8 24.2 3.3 23.6 1.8 22 0.8 19.9 0.8 17.6 0.8 15.6 1.5 13.8 2.6 12.8 3 12.4 3.4 12.1 3.8 11.9 4 11.8 4.3 11.7 4.5 11.6L4.5 11.6C5.2 11.3 5.9 11.1 6.8 10.9 7 10.9 7.1 10.8 7.3 10.8 7.8 10.7 8.4 10.8 9 10.9L9 10.9C9.2 11 9.5 11 9.7 11.1 9.7 11.2 9.8 11.2 9.8 11.2 9.9 11.3 10 11.3 10.1 11.4L9.9 11.8 9.9 11.8 9.5 12.5 9.3 12.9 9.2 13.1C7.8 12.3 6.7 12.9 5.6 13.2" class="st0 MsftOfcResponsive_Fill_7823dc" fill="#7823DC"/><path d="M14 12.9C14.2 12.9 14.2 13 14.3 13 14.3 13 14.5 13.1 14.6 13.1 14.9 13.2 15 13.4 15.4 13.6 16.2 14.2 16.7 15 16.9 16.2 17.3 18.2 16.7 20.2 15.3 21.7 14.6 22.6 13.7 23.3 12.6 23.8 13.2 23.8 13.8 23.6 14.2 23.6L14.9 23.5C15.5 23.5 15.9 23.4 16.2 23.4 16.8 22.9 17.2 22.2 17.6 21.6 18.7 19.9 19.2 17.8 18.8 15.7 18.4 13.9 17.4 12.4 16.2 11.7 15.7 11.4 15.3 11.2 14.9 11.1 14.7 11.1 14.4 11 14.2 11L14.2 11C13.5 10.9 12.8 10.8 11.9 10.8 11.7 10.8 11.6 10.8 11.4 10.8 10.9 10.8 10.4 11 9.8 11.2L9.8 11.2C9.6 11.3 9.3 11.4 9.2 11.5 9.2 11.6 9.1 11.6 9.1 11.6 9.1 12 9 12.1 8.9 12.2L9.2 12.5 9.2 12.5 9.7 13 10 13.3 10.1 13.5C11.3 12.5 12.4 12.8 13.5 12.9" class="st0 MsftOfcResponsive_Fill_7823dc" fill="#7823DC"/></g><g><path d="M25.9 26 26.1 26C28 25.8 31 23.2 31 23.2L31.2 23.1 32 25.1 31.9 25.2C29.8 27 26.4 27.3 26.3 27.3L26.1 27.3 26.1 27.1C26.1 26.6 26 26.4 26 26.4L25.9 26Z" class="st0 MsftOfcResponsive_Fill_7823dc" fill="#7823DC"/></g><g><path d="M25.9 28 26.1 28C28 28.2 31 30.8 31 30.8L31.2 30.9 32 28.9 31.9 28.8C29.8 27 26.4 26.7 26.3 26.7L26.1 26.7 26.1 26.9C26.1 27.4 26 27.6 26 27.6L25.9 28Z" class="st0 MsftOfcResponsive_Fill_7823dc" fill="#7823DC"/></g><g><path d="M20.5 23.2C20.3 23.1 20.2 23 20.1 22.8L20 22.7C19.7 22.3 19.4 21.8 19.2 21.3 19 20.9 19 20.4 19 19.9L19 8.8C19 8 19.3 7.3 19.7 6.7 20.2 6.1 20.9 5.7 21.7 5.6L24.1 5.6 24.1 5.6C24.9 5.6 25.6 6 26.1 6.7 26.4 7.2 26.7 7.8 26.7 8.5L26.7 19.3C26.7 20.3 26.4 21.3 25.9 22.1 25.7 22.4 25.5 22.6 25.2 22.9 25 23.1 24.9 23.2 24.6 23.4L25.4 24.4C25.4 24.5 25.4 24.8 25.4 24.9L25.4 25.1C25.6 25 25.5 24.9 25.6 24.8 25.6 24.8 25.6 24.8 25.7 24.8 26.1 24.5 26.4 24.2 26.7 23.8 27 23.3 27.3 22.8 27.6 22.3 27.7 22 27.8 21.6 27.9 21.3 28 20.7 28.1 20.1 28.1 19.5L28.1 8.5C28.1 8.2 28.1 7.8 28 7.5 27.9 7 27.7 6.5 27.5 6.1 27.3 5.6 27 5.2 26.6 4.9 26.3 4.6 25.9 4.3 25.4 4.1 24.9 3.9 24.4 3.8 23.9 3.8L21.6 3.8C21 3.8 20.5 3.9 20 4.1 19.8 4.3 19.4 4.5 19 4.8 18.6 5.2 18.2 5.6 18 6.1 17.8 6.6 17.6 7.1 17.4 7.6 17.3 7.9 17.3 8.3 17.3 8.7L17.3 19.8C17.3 20.3 17.4 20.8 17.5 21.3 17.5 21.3 17.5 21.3 17.5 21.4 17.5 21.6 17.6 21.9 17.7 22.1" class="st0 MsftOfcResponsive_Fill_7823dc" fill="#7823DC"/><path d="M25.7 24.7 25.5 24.3 25.5 24.1 25.6 24.8C25.7 24.1 25.5 24.9 25.5 24.7L25.5 24.6 24.2 23.6 24.5 23.5C24.7 23.4 24.7 23.3 24.8 23.2 24.8 23.2 24.9 23.1 25 23 25.2 22.8 25.4 22.5 25.6 22.3 26.1 21.5 26.4 20.6 26.4 19.7L26.4 8.7C26.4 8.1 26.2 7.5 25.9 7.1 25.5 6.5 24.8 6.1 24.1 6.1L21.7 6.1C21 6.1 20.3 6.5 19.8 7.1 19.4 7.6 19.1 8.3 19.1 9L19.1 20.1C19.1 20.5 19.2 21 19.3 21.4 19.5 21.9 19.7 22.3 20 22.7L20.1 22.8C20.2 22.9 20.4 23 20.5 23.2L20.2 23.6C20 23.5 19.9 23.3 19.7 23.2L19.6 23.1C19.2 22.7 19 22.2 18.8 21.6 18.6 21.1 18.6 20.6 18.6 20.1L18.6 9C18.6 8.2 18.9 7.4 19.4 6.7 20 6 20.8 5.6 21.6 5.5L24 5.5C24.9 5.5 25.7 5.9 26.2 6.7 26.6 7.3 26.8 7.9 26.8 8.6L26.8 19.4C26.8 20.5 26.5 21.5 25.9 22.3 25.7 22.6 25.5 22.9 25.2 23.1 25.1 23.2 25.1 23.2 25 23.3 24.9 23.4 24.9 23.4 24.8 23.5L25.5 24.3C25.5 24.4 25.5 24.4 25.5 24.5 25.9 24.2 26.2 23.9 26.5 23.6 26.8 23.2 27.1 22.7 27.4 22.2 27.5 21.9 27.6 21.6 27.7 21.2 27.8 20.6 27.9 20 27.9 19.4L27.9 8.7C28 8.3 28 8 28 7.7 27.9 7.2 27.8 6.7 27.5 6.3 27.3 5.9 27 5.5 26.6 5.1 26.3 4.8 25.9 4.5 25.5 4.4 25.1 4.2 24.6 4.1 24.1 4.1L21.8 4.1C21.3 4.1 20.8 4.2 20.3 4.4 19.9 4.6 19.5 4.8 19.1 5.1 18.7 5.5 18.4 5.9 18.1 6.3 17.9 6.8 17.7 7.3 17.6 7.8 17.5 8.1 17.5 8.5 17.5 8.8L17.5 19.9C17.5 20.4 17.6 20.9 17.7 21.3L17.7 21.4C17.7 21.6 17.8 21.8 17.9 22L17.4 22.2C17.3 22 17.2 21.7 17.2 21.5 17.2 21.5 17.2 21.5 17.2 21.4 17.1 21 17 20.5 17 19.9L17 9C17 8.6 17 8.2 17.1 7.9 17.2 7.3 17.4 6.8 17.7 6.3 18 5.8 18.3 5.3 18.8 4.9 19.2 4.6 19.6 4.3 20.1 4.1 20.6 3.9 21.2 3.8 21.8 3.8L24.1 3.8C24.7 3.8 25.2 3.9 25.7 4.1 26.1 4.3 26.6 4.6 26.9 4.9 27.3 5.3 27.6 5.7 27.9 6.2 28.2 6.7 28.3 7.2 28.4 7.7 28.5 8 28.5 8.4 28.5 8.7L28.5 19.5C28.5 20.1 28.4 20.8 28.3 21.4 28.2 21.8 28.1 22.1 27.9 22.4 27.7 23 27.3 23.5 27 24 26.7 24.4 26.3 24.7 25.9 25.1L25.8 25.2C25.8 25.3 25.8 25 25.7 25.1 25.7 25.1 25.7 24.7 25.7 24.7ZM25.7 24.7 25.8 24.8 25.7 24.7 25.7 24.7Z" class="st0 MsftOfcResponsive_Fill_7823dc" fill="#7823DC"/></g><path d="M27.6 4.3C27.5 4.3 27.3 4.3 27.2 4.3L24.5 4.3C24 4.3 23.5 4.4 23.1 4.5 22.6 4.6 22.1 4.8 21.7 5.1L24.5 5.1 24.5 5.1C25.4 5.1 26.3 5.5 26.8 6.2L27.2 6.2C27.4 6.2 27.6 6.2 27.7 6.2 28.3 6.3 28.8 6.6 29.3 7 29.9 7.5 30.2 8.3 30.2 9.1L30.2 18.1C30.2 19.2 29.8 20.3 29.1 21.1 28.7 21.6 28.3 22 27.7 22.3 27.3 22.5 26.8 22.7 26.3 22.8 26.1 22.8 25.9 22.9 25.7 22.9 25.3 23.2 25.4 23.4 24.9 23.6L25.5 24.4C25.6 24.4 25.7 24.7 25.8 24.7 26 24.7 25.6 24.9 25.8 24.9 26 24.9 26.3 24.9 26.5 24.8 26.7 24.8 27 24.7 27.2 24.7 30.1 23.9 32.2 21.3 32.2 18.2L32.2 9.2C32.1 6.6 30.1 4.5 27.6 4.3Z" class="st0 MsftOfcResponsive_Fill_7823dc" fill="#7823DC"/><path d="M22.9 4.5C22.5 4.4 22 4.3 21.5 4.3L18.9 4.3C18.7 4.3 18.5 4.3 18.3 4.3 15.6 4.6 13.6 6.8 13.6 9.5L13.6 12.4C13.8 12.5 14.1 12.5 14.3 12.6 14.4 12.6 14.5 12.9 14.6 13 14.8 12.6 15 12.9 15.1 13 15.3 13.1 15.4 13.1 15.5 13.2L15.5 9.5C15.5 8.6 15.8 7.8 16.4 7.3 16.8 6.9 17.3 6.6 17.8 6.4 18.1 6.3 18.5 6.3 18.8 6.3L19 6.3C19.6 5.6 20.5 5.2 21.4 5.2L24.2 5.2C23.9 4.8 23.4 4.6 22.9 4.5Z" class="st0 MsftOfcResponsive_Fill_7823dc" fill="#7823DC"/><rect x="21" y="1.8" width="4.8" height="2" class="st0 MsftOfcResponsive_Fill_7823dc" fill="#7823DC" transform="matrix(0.1905 -0.9817 0.9817 0.1905 16.205 25.1744)"/><path d="M23.1 23.3C24.4 23.3 25.5 24.8 25.5 26.5L25.5 26.7C25.5 28.4 24.4 29.9 23.1 29.9L23 29.9 3 27.4 2.9 27.4 2.8 27.4C2.2 27.4 2 27.3 1.9 27.2 1.9 27.2 1.9 27.1 1.9 26.9 1.9 26.3 1.9 25.9 3.4 25.8L3.5 25.8 3.6 25.8 23.1 23.3C23 23.3 23.1 23.3 23.1 23.3M23.1 21.3C23 21.3 22.9 21.3 22.8 21.3L3.3 23.8C1.5 24 0 24.8 0 27L0 27C0 28.8 1.2 29.3 2.8 29.4L22.8 32C22.9 32 23 32 23.1 32 25.5 32 27.5 29.7 27.5 26.8L27.5 26.6C27.5 23.6 25.5 21.3 23.1 21.3L23.1 21.3Z" class="st0 MsftOfcResponsive_Fill_7823dc" fill="#7823DC"/><rect x="8.3" y="7.9" width="2" height="6.5" class="st0 MsftOfcResponsive_Fill_7823dc" fill="#7823DC" transform="matrix(0.9656 -0.2602 0.2602 0.9656 -2.5709 2.7998)"/><g><line x1="21.2" y1="23.1" x2="21.6" y2="26.3" class="st0" fill="#231F20"/><rect x="20.4" y="23" width="2" height="3.3" class="MsftOfcResponsive_Fill_7823dc" fill="#7823DC" transform="matrix(0.9911 -0.1332 0.1332 0.9911 -3.0997 3.069)"/></g><g><line x1="17.4" y1="26.7" x2="17.8" y2="30" class="st0" fill="#231F20"/><rect x="16.6" y="26.7" width="2" height="3.3" class="MsftOfcResponsive_Fill_7823dc" fill="#7823DC" transform="matrix(0.9911 -0.1332 0.1332 0.9911 -3.621 2.5991)"/></g><g><line x1="12.6" y1="23.9" x2="13" y2="27.2" class="st0" fill="#231F20"/><rect x="11.8" y="23.9" width="2" height="3.3" class="MsftOfcResponsive_Fill_7823dc" fill="#7823DC" transform="matrix(0.9911 -0.1332 0.1332 0.9911 -3.2863 1.9289)"/></g><g><line x1="7.2" y1="26.5" x2="7.5" y2="29.6" class="st0" fill="#231F20"/><rect x="6.3" y="26.5" width="2" height="3.1" class="MsftOfcResponsive_Fill_7823dc" fill="#7823DC" transform="matrix(0.9939 -0.1104 0.1104 0.9939 -3.0492 0.9823)"/></g></svg>