<svg viewBox="0 0 32 32" xmlns="http://www.w3.org/2000/svg" xmlns:xlink="http://www.w3.org/1999/xlink" id="Graphic" overflow="hidden"><defs></defs><path d="M19 12 19 13.9C19 15.0559 18.0659 15.9945 16.91 16L15.09 16C13.9341 15.9945 13 15.0559 13 13.9L13 12 19 12M21 10 11 10 11 13.9C10.9945 16.1588 12.8211 17.9945 15.08 18 15.0833 18 15.0867 18 15.09 18L16.91 18C19.1688 18 21 16.1689 21 13.91 21 13.9067 21 13.9033 21 13.9L21 10Z" fill="#7823DC"/><path d="M22.9 9.99 9.1 9.99 9.1 11.99 22.9 11.99 22.9 9.99 22.9 9.99Z" fill="#7823DC"/><path d="M13 5.99 11 5.99 11 10.99 13 10.99 13 5.99 13 5.99Z" fill="#7823DC"/><path d="M21 5.99 19 5.99 19 10.99 21 10.99 21 5.99 21 5.99Z" fill="#7823DC"/><path d="M17.04 17.74 14.96 17.74 14.96 30.99 17.04 30.99 17.04 17.74 17.04 17.74Z" fill="#7823DC"/><path d="M6 24.08C7.10457 24.08 8 24.9754 8 26.08 8 27.1846 7.10457 28.08 6 28.08 4.89543 28.08 4 27.1846 4 26.08 4 24.9754 4.89543 24.08 6 24.08M6 22.08C3.79086 22.08 2 23.8709 2 26.08 2 28.2891 3.79086 30.08 6 30.08 8.20914 30.08 10 28.2891 10 26.08 10 23.8709 8.20914 22.08 6 22.08Z" fill="#7823DC"/><path d="M16 0C7.16345 0.00730026 0.00592349 7.17666 0.0132238 16.0132 0.0163818 19.8359 1.38808 23.5311 3.88 26.43L3.88 23 3.88 23C0.0140072 16.3039 2.30826 7.74164 9.00436 3.87564 15.7005 0.00965181 24.2627 2.3039 28.1287 9 31.9947 15.6961 29.7005 24.2584 23.0044 28.1244 20.8748 29.3539 18.459 30.0008 16 30 15.65 30 15.31 30 15 29.95L15 31.95C15.35 31.95 15.69 32 16 32 24.8366 32 32 24.8366 32 16 32 7.16344 24.8366 0 16 0Z" fill="#7823DC"/></svg>