<svg viewBox="0 0 31.61 32.1" xmlns="http://www.w3.org/2000/svg" xmlns:xlink="http://www.w3.org/1999/xlink" id="Layer_1" overflow="hidden"><style>
.MsftOfcResponsive_Fill_7823dc {
 fill:#7823DC; 
}
</style>
<defs></defs><path d="M31.61 28.22 24.51 21.03 26.59 18.92 22.82 15.11 24.8 13.11 21.27 9.53 22.74 8.05 15.81 0 8.87 8.04 10.33 9.52 6.8 13.1 8.78 15.1 5.01 18.91 7.09 21.02 0 28.22 12.88 28.22 12.88 32.11 18.88 32.11 18.88 28.22 31.61 28.22ZM4.78 26.22 9.9 21.03 7.82 18.92 11.59 15.11 9.61 13.11 13.14 9.53 11.59 7.95 15.81 3.06 20.03 7.95 18.47 9.53 22 13.11 20.02 15.11 23.79 18.92 21.71 21.03 26.83 26.22 4.79 26.22ZM16.88 30.11 14.88 30.11 14.88 28.22 16.88 28.22 16.88 30.11Z" class="MsftOfcResponsive_Fill_7823dc" fill="#7823DC"/></svg>