<svg viewBox="0 0 32 32" xmlns="http://www.w3.org/2000/svg" xmlns:xlink="http://www.w3.org/1999/xlink" overflow="hidden"><style>
.MsftOfcResponsive_Fill_7823dc {
 fill:#7823DC; 
}
</style>
<defs></defs><g id="Layer_3"><path d="M17 0.04643 17 4.09643C16.67 4.06643 16.34 4.04643 16 4.04643 10.5331 4.05556 5.76162 7.75437 4.39 13.0464L2.33 13.0464C3.67152 6.9955 8.81938 2.53833 15 2.07639L15 0.04639Z" class="MsftOfcResponsive_Fill_7823dc" fill="#7823DC"/><path d="M13 27.6564 13 29.7164C6.94906 28.3749 2.4919 23.227 2.03 17.0464L0 17.0464 0 15.0464 4.05 15.0464C4.02 15.3764 4 15.7064 4 16.0464 4.00919 21.5133 7.70797 26.2847 13 27.6564Z" class="MsftOfcResponsive_Fill_7823dc" fill="#7823DC"/><path d="M29.67 19.0464C28.3285 25.0973 23.1806 29.5545 17 30.0164L17 32.0464 15 32.0464 15 27.9964C15.33 28.0264 15.66 28.0464 16 28.0464 21.4669 28.0372 26.2384 24.3384 27.61 19.0464Z" class="MsftOfcResponsive_Fill_7823dc" fill="#7823DC"/><path d="M32 15.0464 32 17.0464 27.95 17.0464C27.98 16.7164 28 16.3864 28 16.0464 27.9908 10.5795 24.292 5.80807 19 4.43643L19 2.37638C25.0509 3.71792 29.5081 8.86581 29.97 15.0464Z" class="MsftOfcResponsive_Fill_7823dc" fill="#7823DC"/><path d="M17 6 15 6 15 7.996 17 7.996 17 6 17 6Z" class="MsftOfcResponsive_Fill_7823dc" fill="#7823DC"/><path d="M7.996 15 6 15 6 17 7.996 17 7.996 15 7.996 15Z" class="MsftOfcResponsive_Fill_7823dc" fill="#7823DC"/><path d="M17 24.004 15 24.004 15 26 17 26 17 24.004 17 24.004Z" class="MsftOfcResponsive_Fill_7823dc" fill="#7823DC"/><path d="M26 15 24.004 15 24.004 17 26 17 26 15 26 15Z" class="MsftOfcResponsive_Fill_7823dc" fill="#7823DC"/><path d="M24 22 16.827 15.996 20.824 12 17.994 12 14 15.993 21.176 22 24 22Z" class="MsftOfcResponsive_Fill_7823dc" fill="#7823DC"/></g></svg>