<svg viewBox="0 0 32 32" xmlns="http://www.w3.org/2000/svg" xmlns:xlink="http://www.w3.org/1999/xlink" id="Layer_5" overflow="hidden"><defs></defs><path d="M12.23 32.01C11.67 32.01 11.11 31.93 10.56 31.84 8.7 31.52 8.07 29.62 7.77 28.71 7.72 28.56 7.68 28.44 7.65 28.35 7.25 27.71 7.55 26.94 7.79 26.31 7.84 26.18 7.91 26 7.94 25.88 7.87 25.73 7.75 25.52 7.67 25.37 7.5 25.06 7.36 24.82 7.29 24.6 6.95 24.25 6.38 23.55 6.73 22.56 6.9 22.08 6.78 21.54 6.67 21.31 6.42 20.8 6.52 20.31 6.58 19.99 6.64 19.68 6.66 19.54 6.56 19.33 6.04 18.28 5.85 13.43 6.19 12.74L6.39 12.34 6.9 12.17C7.07 12.13 7.23 12.12 7.38 12.15 7.37 12.09 7.36 12.03 7.34 11.96 7.19 11.17 7.57 10.77 7.74 10.63 8.08 10.35 8.49 10.32 8.86 10.37 8.85 10.04 8.81 9.6 8.74 9.05 8.72 8.86 8.7 8.71 8.69 8.61 8.65 8.03 8.78 7.32 9.58 6.95 9.58 6.87 9.58 6.78 9.58 6.72L9.58 6.52C9.77 4.6 10.68 3.5 11.17 2.91 11.23 2.84 11.29 2.77 11.33 2.71 11.47 1.99 12.12 1.56 12.48 1.38 12.77 1.11 13.47 0.54 14.52 0.15 15.14-0.08 15.81-0.02 16.4 0.31 17.48 0.92 18.07 2.24 18.27 3.27 18.41 4.03 18.58 4.15 19.41 4.12 20.19 4.08 20.89 4.47 21.35 5.19 21.78 5.86 22.04 6.93 21.72 7.55 21.68 7.64 21.45 8.15 21.56 9.15 21.69 10.3 21.36 10.85 20.95 11.55 20.8 11.8 20.63 12.1 20.42 12.51 19.84 13.67 20.4 15.47 20.59 16.05 20.59 16.05 20.85 16.23 21.01 16.35 21.65 16.84 22.85 17.74 22.51 19.27 22.21 20.57 22.4 21.78 22.51 22.43 22.66 23.42 21.99 24.27 21.35 25.09 21.11 25.4 20.86 25.71 20.71 25.98 20.52 26.31 20.28 26.94 20.06 27.49 19.58 28.74 19.28 29.51 18.72 29.82 18.63 30.01 18.52 30.37 18.46 30.54 18.33 30.94 18.26 31.18 18.04 31.4L17.55 31.89 16.88 31.61C16.39 31.39 16.09 30.7 15.93 30.11 15.84 30.13 15.76 30.17 15.72 30.2 14.69 31.62 13.48 32.01 12.24 32.01ZM9.47 27.54C9.54 27.69 9.6 27.87 9.67 28.08 9.95 28.93 10.28 29.76 10.9 29.87 12.47 30.14 13.3 30.14 14.15 28.97 14.76 28.17 16.19 27.89 16.98 28.18 17.1 28.23 17.22 28.29 17.32 28.36 17.41 28.27 17.5 28.19 17.61 28.13 17.76 27.86 18.01 27.21 18.19 26.77 18.44 26.12 18.7 25.44 18.97 24.98 19.19 24.59 19.49 24.22 19.77 23.86 20.04 23.51 20.5 22.93 20.53 22.71 20.42 22.02 20.19 20.51 20.57 18.83 20.62 18.62 20.46 18.43 19.82 17.95 19.36 17.6 18.88 17.24 18.69 16.65 18.44 15.87 17.7 13.5 18.64 11.61 18.87 11.15 19.07 10.81 19.23 10.53 19.58 9.93 19.63 9.85 19.57 9.36 19.43 8.11 19.66 7.26 19.85 6.8 19.83 6.62 19.73 6.3 19.58 6.15 19.53 6.1 19.51 6.1 19.48 6.1 17.68 6.17 16.63 5.36 16.3 3.63 16.15 2.83 15.73 2.21 15.42 2.04 15.32 1.98 15.27 1.99 15.22 2.01 14.31 2.35 13.79 2.88 13.79 2.88L13.64 3.03 13.44 3.12C13.44 3.12 13.32 3.18 13.27 3.21 13.19 3.57 12.95 3.86 12.71 4.15 12.29 4.65 11.73 5.34 11.58 6.6 11.66 7.67 11.35 8.4 10.71 8.65 10.71 8.69 10.72 8.74 10.73 8.79 10.93 10.43 11.01 11.72 10.23 12.31 10.01 12.48 9.73 12.57 9.47 12.56 9.59 13.54 9.51 14.12 9.05 14.49 8.76 14.73 8.37 14.8 8.01 14.69 8.03 16.05 8.14 17.98 8.34 18.42 8.76 19.25 8.61 19.95 8.53 20.37 8.52 20.42 8.51 20.47 8.5 20.52 8.77 21.14 8.95 22.14 8.63 23.12 8.66 23.15 8.7 23.19 8.72 23.22 8.87 23.37 9.11 23.62 9.18 23.99 9.23 24.1 9.31 24.24 9.4 24.39 9.58 24.72 9.78 25.06 9.88 25.37 10.06 25.92 9.85 26.48 9.64 27.02 9.58 27.17 9.5 27.39 9.46 27.54ZM15.79 29.24C15.79 29.29 15.79 29.34 15.79 29.39 15.79 29.33 15.79 29.28 15.79 29.24ZM17.55 28.22 17.55 28.22ZM17.93 28 17.93 28ZM9.21 24.18 9.21 24.18ZM9.17 23.95 9.17 23.95ZM8.45 20.42 8.45 20.42ZM19.85 6.89 19.85 6.89ZM19.92 6.66 19.92 6.66Z" fill="#7823DC"/></svg>