<svg viewBox="0 0 29.22 29.22" xmlns="http://www.w3.org/2000/svg" xmlns:xlink="http://www.w3.org/1999/xlink" xml:space="preserve" overflow="hidden"><g id="Layer_3"></g><g id="Layer_1"></g><g id="Layer_2"></g><g id="Layer_4"></g><g id="Layer_5"><g><path d="M26.59 0.12C26.12 0.12 25.66 0.24 25.26 0.47 25.26 0.47 25.26 0.47 25.26 0.47L11.1 8.66 9.26 8.66 6.99 10.93 6.99 13.72 0.2 13.72 0.2 19.09 3.63 19.09 3.63 20.58C1.67 21.03 0.2 22.76 0.2 24.83 0.2 27.24 2.19 29.2 4.63 29.2L14.74 29.2C17.15 29.2 19.11 27.24 19.11 24.83 19.11 22.77 17.67 21.04 15.74 20.59L15.74 19.09 17.43 19.09 17.43 11.23 23.91 7.47 23.91 12.57C22.9 13.19 22.22 14.3 22.22 15.56L22.22 18.77 20.53 18.77 20.53 20.77 22.22 20.77 23.22 20.77 24.91 20.77C27.32 20.77 29.28 18.81 29.28 16.4L29.28 15.56 29.28 2.8C29.27 1.32 28.07 0.12 26.59 0.12ZM24.42 4.85 16.14 9.65 15.15 8.66 15.09 8.66 24.01 3.51C24.13 3.97 24.36 4.38 24.69 4.7L24.54 4.79C24.5 4.8 24.46 4.83 24.42 4.85ZM12.36 10.66 14.32 10.66 15.42 11.76 15.42 13.72 12.36 13.72 12.36 10.66ZM27.27 2.8C27.27 3.18 26.96 3.49 26.59 3.49 26.22 3.49 25.9 3.18 25.9 2.8 25.9 2.55 26.03 2.33 26.25 2.2L26.25 2.2 26.25 2.2C26.35 2.14 26.47 2.11 26.59 2.11 26.97 2.12 27.27 2.42 27.27 2.8ZM2.2 15.71 9 15.71 9 11.75 10.1 10.65 10.37 10.65 10.37 15.71 15.43 15.71 15.43 17.08 2.2 17.08 2.2 15.71ZM17.11 24.83C17.11 26.14 16.05 27.2 14.74 27.2L4.62 27.2C3.3 27.2 2.19 26.11 2.19 24.83 2.19 23.55 3.3 22.46 4.62 22.46L14.73 22.46C16.04 22.45 17.11 23.52 17.11 24.83ZM13.74 20.45 5.62 20.45 5.62 19.08 13.73 19.08 13.73 20.45ZM27.27 5.51 27.27 12.39C26.85 12.19 26.39 12.07 25.9 12.04L25.9 6.3 27.27 5.51ZM27.27 16.4C27.27 17.71 26.21 18.77 24.9 18.77L24.21 18.77 24.21 15.56C24.21 14.72 24.9 14.03 25.74 14.03 26.58 14.03 27.27 14.72 27.27 15.56L27.27 16.4Z" fill="#7823DC"/><rect x="3.59" y="23.76" width="1.71" height="2" fill="#7823DC"/><rect x="7.06" y="23.76" width="1.71" height="2" fill="#7823DC"/><rect x="10.53" y="23.76" width="1.71" height="2" fill="#7823DC"/><rect x="14.01" y="23.76" width="1.71" height="2" fill="#7823DC"/></g></g></svg>