<svg viewBox="0 0 32 32" xmlns="http://www.w3.org/2000/svg" xmlns:xlink="http://www.w3.org/1999/xlink" overflow="hidden"><style>
.MsftOfcResponsive_Fill_7823dc {
 fill:#7823DC; 
}
</style>
<defs></defs><g id="a"></g><g id="b"></g><g id="c"><g><path d="M30.07 28.23 28.07 28.23 28.07 26.23 25.98 26.23 23.96 10.46C23.92 9.22 22.86 8.23 21.57 8.23L10.58 8.23C9.28 8.23 8.23 9.22 8.19 10.46L6.17 26.23 4.08 26.23 4.08 28.23 2.07 28.23 2.07 30.23 0.07 30.23 0.07 32.23 32.07 32.23 32.07 30.23 30.07 30.23 30.07 28.23ZM8.18 26.23 10.18 10.66 10.18 10.53C10.18 10.36 10.37 10.22 10.58 10.22L21.57 10.22C21.78 10.22 21.97 10.36 21.97 10.53L23.97 26.22 8.18 26.22Z" class="e MsftOfcResponsive_Fill_7823dc" fill="#7823DC"/><rect x="27.08" y="14.23" width="4.99" height="2" class="e MsftOfcResponsive_Fill_7823dc" fill="#7823DC"/><rect x="0.3" y="14.23" width="4.99" height="2" class="e MsftOfcResponsive_Fill_7823dc" fill="#7823DC"/><rect x="3.75" y="2.95" width="2" height="4.99" class="e MsftOfcResponsive_Fill_7823dc" fill="#7823DC" transform="matrix(0.621148 -0.783693 0.783693 0.621148 -2.47 5.78)"/><rect x="24.9" y="4.45" width="4.99" height="2" class="e MsftOfcResponsive_Fill_7823dc" fill="#7823DC" transform="matrix(0.783693 -0.621148 0.621148 0.783693 2.54 18.2)"/><rect x="13.58" y="1.73" width="4.99" height="2" class="e MsftOfcResponsive_Fill_7823dc" fill="#7823DC" transform="matrix(0.0078539 -0.999969 0.999969 0.0078539 13.22 18.78)"/><path d="M18.11 13.23 19.51 24.23 21.53 24.23 20.12 13.23 18.11 13.23Z" class="e MsftOfcResponsive_Fill_7823dc" fill="#7823DC"/></g></g><g id="d"></g></svg>