<svg viewBox="0 0 32 32" xmlns="http://www.w3.org/2000/svg" xmlns:xlink="http://www.w3.org/1999/xlink" overflow="hidden"><defs></defs><g id="Layer_3"><rect x="9.98633" y="17.0173" width="2" height="7" fill="#7823DC"/><rect x="19.9863" y="17.0173" width="2" height="7" fill="#7823DC"/><path d="M23.9863 19.0173 7.98633 19.0173 7.98633 6.01728 23.9863 6.01728ZM9.98633 17.0173 21.9863 17.0173 21.9863 8.01728 9.98633 8.01728Z" fill="#7823DC"/><path d="M20.9863 8.01728 10.9863 8.01728 10.9863 0.01728 20.9863 0.01728ZM12.9863 6.01728 18.9863 6.01728 18.9863 2.01728 12.9863 2.01728Z" fill="#7823DC"/><path d="M18.9863 15.5173 12.9863 15.5173 12.9863 9.51728 18.9863 9.51728ZM14.9863 13.5173 16.9863 13.5173 16.9863 11.5173 14.9863 11.5173Z" fill="#7823DC"/><rect x="26.0758" y="10.4165" width="2.00024" height="8.02868" fill="#7823DC" transform="matrix(0.893403 -0.449256 0.449256 0.893403 -3.59694 13.7023)"/><path d="M29.9646 19.9914C29.9736 19.9563 29.9808 19.9208 29.9861 19.885 29.9861 19.2736 29.4905 18.778 28.8792 18.778 28.2679 18.778 27.7723 19.2736 27.7723 19.885 27.7776 19.9208 27.7848 19.9563 27.7938 19.9914L25.783 19.9914C25.7817 19.9553 25.7723 19.9214 25.7723 19.885 25.7723 18.1691 27.1633 16.778 28.8792 16.778 30.5951 16.778 31.9861 18.1691 31.9861 19.885 31.9861 19.9214 31.9767 19.9553 31.9754 19.9914Z" fill="#7823DC"/><path d="M23.9861 8.03843C24.0212 8.02938 24.0567 8.02219 24.0926 8.01689 24.7039 8.01689 25.1995 8.51248 25.1995 9.12382 25.1995 9.73516 24.7039 10.2308 24.0926 10.2308 24.0567 10.2255 24.0212 10.2183 23.9861 10.2092L23.9861 12.22C24.0223 12.2213 24.0561 12.2307 24.0926 12.2307 25.8085 12.2307 27.1995 10.8397 27.1995 9.12381 27.1995 7.4079 25.8085 6.01688 24.0926 6.01688 24.0561 6.01688 24.0223 6.02634 23.9861 6.02762Z" fill="#7823DC"/><rect x="0.88239" y="13.4307" width="8.02868" height="2.00024" fill="#7823DC" transform="matrix(0.449165 -0.893449 0.893449 0.449165 -10.1959 12.324)"/><path d="M2.00807 19.9914C1.99902 19.9563 1.99183 19.9208 1.98653 19.885 1.98837 19.2736 2.48545 18.7795 3.09679 18.7814 3.70554 18.7832 4.19857 19.2762 4.2004 19.885 4.1951 19.9208 4.1879 19.9563 4.17885 19.9914L6.18965 19.9914C6.19094 19.9553 6.2004 19.9214 6.2004 19.885 6.19732 18.1691 4.8038 16.7805 3.08789 16.7836 1.37633 16.7867-0.0103995 18.1734-0.0134701 19.885-0.01347 19.9214-0.00401 19.9553-0.00273 19.9914Z" fill="#7823DC"/><path d="M7.98653 8.03843C7.95145 8.02938 7.91592 8.02219 7.88008 8.01689 7.26874 8.01689 6.77315 8.51248 6.77315 9.12382 6.77315 9.73516 7.26874 10.2308 7.88008 10.2308 7.91592 10.2255 7.95145 10.2183 7.98653 10.2092L7.98653 12.22C7.9504 12.2213 7.91653 12.2307 7.88008 12.2307 6.16417 12.2307 4.77315 10.8397 4.77315 9.12381 4.77315 7.4079 6.16417 6.01688 7.88008 6.01688 7.91652 6.01688 7.9504 6.02634 7.98653 6.02762Z" fill="#7823DC"/><path d="M13.9863 32.0173 7.98633 32.0173 7.98633 23.0173 13.9863 23.0173ZM9.98633 30.0173 11.9863 30.0173 11.9863 25.0173 9.98633 25.0173Z" fill="#7823DC"/><path d="M23.9863 32.0173 17.9863 32.0173 17.9863 23.0173 23.9863 23.0173ZM19.9863 30.0173 21.9863 30.0173 21.9863 25.0173 19.9863 25.0173Z" fill="#7823DC"/></g></svg>