<svg viewBox="0 0 32.05 31.98" xmlns="http://www.w3.org/2000/svg" xmlns:xlink="http://www.w3.org/1999/xlink" id="Layer_1" overflow="hidden"><style>
.MsftOfcResponsive_Fill_7823dc {
 fill:#7823DC; 
}
</style>
<defs></defs><path d="M2 31.97 0 31.97 0 18.94C0 12.89 5.01 7.97 11.17 7.97L32 7.97 32 9.97 11.17 9.97C6.11 9.97 2 13.99 2 18.94L2 31.97Z" class="MsftOfcResponsive_Fill_7823dc" fill="#7823DC"/><path d="M2 31.96 1.09 30.18C1.65 29.89 2.32 29.44 3.08 28.91 6.01 26.9 10.92 23.53 20.99 22.31 25.94 21.81 28.9 17.62 30.07 9.52L32.05 9.81C30.75 18.83 27.1 23.71 21.21 24.31 11.64 25.47 7.17 28.54 4.21 30.57 3.39 31.14 2.67 31.63 1.99 31.97Z" class="MsftOfcResponsive_Fill_7823dc" fill="#7823DC"/><path d="M15.63 25.65 14.17 24.29C17.88 20.31 19.03 14.44 17.03 9.69L18.87 8.92C21.17 14.38 19.86 21.11 15.63 25.66Z" class="MsftOfcResponsive_Fill_7823dc" fill="#7823DC"/><path d="M18.95 9.92 13.56 9.92 13.56 0 18.95 1.72 18.95 9.93ZM15.56 7.92 16.95 7.92 16.95 3.18 15.56 2.74 15.56 7.93Z" class="MsftOfcResponsive_Fill_7823dc" fill="#7823DC"/><path d="M26 9.92 20.61 9.92 20.61 3.75 26 1.98 26 9.93ZM22.61 7.92 24 7.92 24 4.73 22.61 5.19 22.61 7.92Z" class="MsftOfcResponsive_Fill_7823dc" fill="#7823DC"/><path d="M10.73 31.98C8.5 31.98 6.28 30.84 5.5 29.03L7.34 28.24C7.88 29.51 10.35 30.44 12.22 29.7 14.25 28.94 15.01 26.9 14.69 25.35L16.65 24.95C17.13 27.31 15.99 30.42 12.94 31.56 12.24 31.84 11.48 31.97 10.73 31.97Z" class="MsftOfcResponsive_Fill_7823dc" fill="#7823DC"/></svg>