<svg viewBox="0 0 32 32" xmlns="http://www.w3.org/2000/svg" xmlns:xlink="http://www.w3.org/1999/xlink" id="Layer_1" overflow="hidden"><g><path d="M3 14.8 0 17.8 0 20.6 2 18.6 4 18.6 6 20.6 6 17.8 3 14.8 3 14.8Z" fill="#7823DC" fill-rule="evenodd" clip-rule="evenodd"/><path d="M17.2 3 14.2 0 11.3 0 13.3 2 13.3 4 11.3 6 14.2 6 17.2 3 17.2 3Z" fill="#7823DC" fill-rule="evenodd" clip-rule="evenodd"/><path d="M29 17.2 32 14.2 32 11.3 30 13.4 28 13.4 26 11.3 26 14.2 29 17.2 29 17.2Z" fill="#7823DC" fill-rule="evenodd" clip-rule="evenodd"/><path d="M14.8 29 17.8 32 20.6 32 18.6 30 18.6 28 20.6 26 17.8 26 14.8 29 14.8 29Z" fill="#7823DC" fill-rule="evenodd" clip-rule="evenodd"/><path d="M18.4 28.2 18.4 30.2C23.9 29.4 28.5 25.4 30 20L27.9 20C26.5 24.3 22.8 27.4 18.4 28.2L18.4 28.2Z" fill="#7823DC" fill-rule="evenodd" clip-rule="evenodd"/><path d="M3.8 18.4 1.8 18.4C2.5 23.9 6.6 28.5 12 30L12 27.9C7.7 26.5 4.5 22.8 3.8 18.4L3.8 18.4Z" fill="#7823DC" fill-rule="evenodd" clip-rule="evenodd"/><path d="M2 12 4.1 12C5.5 7.7 9.2 4.5 13.6 3.8L13.6 1.8C8 2.5 3.5 6.6 2 12L2 12Z" fill="#7823DC" fill-rule="evenodd" clip-rule="evenodd"/><path d="M20 2 20 4.1C24.3 5.5 27.5 9.2 28.2 13.7L30.2 13.7C29.4 8.1 25.4 3.5 20 2L20 2Z" fill="#7823DC" fill-rule="evenodd" clip-rule="evenodd"/></g><path d="M7.9 16C7.9 18 9.1 19.2 11.1 19.2 12.8 19.2 13.9 18.2 14 16.7L14 16.6 12 16.6 12 16.6 12 16.6 12 16.7C11.9 17.4 11.4 17.5 11.1 17.5 10.2 17.5 9.9 16.5 9.9 15.9" fill="#7823DC" fill-rule="evenodd" clip-rule="evenodd"/><path d="M10 16C10 15 10.3 14.4 11 14.4 11.5 14.4 11.8 14.6 11.8 15.2L11.8 15.3 14 15.3 14 15.2C13.9 13.6 12.8 12.7 11.1 12.7 9.2 12.7 8 14 8 15.9" fill="#7823DC" fill-rule="evenodd" clip-rule="evenodd"/><path d="M17.6 12.8C15.7 12.8 14.3 14.1 14.3 16L14.3 16.1C14.3 18 15.6 19.3 17.6 19.3 19.6 19.3 20.9 18 20.9 16L20.9 15.9C20.8 14.1 19.5 12.8 17.6 12.8L17.6 12.8ZM16.3 16.1C16.3 15.2 16.8 14.6 17.5 14.6 18.3 14.6 18.7 15.2 18.7 16.1L18.7 16.2C18.7 17.1 18.2 17.7 17.5 17.7 16.7 17.6 16.3 17 16.3 16.1L16.3 16.1 16.3 16.1 16.3 16.1Z" fill="#7823DC" fill-rule="evenodd" clip-rule="evenodd"/><path d="M23.1 18.1 23.1 18.1C23.6 17.7 23.8 17.4 23.8 16.8 23.8 16.2 23.4 15.6 22.4 15.6 21.5 15.6 20.9 16.1 20.9 17L20.9 17.1 22.2 17.1 22.2 17C22.2 16.6 22.3 16.6 22.4 16.6 22.5 16.6 22.5 16.6 22.5 16.7 22.5 16.9 22.3 17.1 22 17.4L21 18.6 21 19 24.1 19 24.1 17.9 23.2 17.9 23.2 18.1 23.1 18.1Z" fill="#7823DC" fill-rule="evenodd" clip-rule="evenodd"/></svg>