<svg viewBox="0 0 32 31.99" xmlns="http://www.w3.org/2000/svg" xmlns:xlink="http://www.w3.org/1999/xlink" id="Layer_1" overflow="hidden"><style>
.MsftOfcResponsive_Fill_7823dc {
 fill:#7823DC; 
}
</style>
<defs></defs><path d="M29.48 2.52C25.75-1.21 19.21-0.74 14.9 3.57 11.7 6.77 10.62 11.2 11.8 14.79 12.05 16.39 12.06 18.52 10.88 19.7L9.31 21.27 10.72 22.68 12.29 21.11 12.29 21.11C13.46 19.94 15.58 19.94 17.18 20.19 18.11 20.5 19.11 20.67 20.16 20.67 20.44 20.67 20.71 20.66 21 20.64 23.72 20.42 26.36 19.16 28.43 17.1 32.74 12.79 33.21 6.25 29.48 2.52ZM29.91 10 28.45 8.54 29.82 7.17C30.02 8.07 30.05 9.03 29.91 10ZM29.01 5.15 27.03 7.13 24.86 4.96 26.83 2.99C27.27 3.25 27.68 3.57 28.05 3.94 28.42 4.31 28.74 4.72 29 5.16ZM19.87 14.29 17.7 12.12 19.87 9.95 22.04 12.12 19.87 14.29ZM23.45 13.54 26.27 16.36C25.44 17.05 24.52 17.6 23.56 17.99L21.28 15.71 23.45 13.54ZM13.41 10.66 14.87 12.12 13.57 13.42C13.49 13.06 13.41 12.79 13.36 12.65 13.29 12 13.31 11.33 13.41 10.66ZM15.26 16.73C14.89 16.36 14.57 15.95 14.31 15.51L16.29 13.53 18.46 15.7 16.48 17.68C16.04 17.41 15.63 17.1 15.26 16.73ZM21.28 8.54 23.45 6.37 25.62 8.54 23.45 10.71 21.28 8.54ZM19.87 7.13 17.05 4.31C17.89 3.61 18.81 3.07 19.76 2.69L22.04 4.97 19.87 7.14ZM24.81 2.19 23.45 3.55 21.99 2.09C22.38 2.04 22.76 2 23.14 2 23.71 2 24.27 2.07 24.81 2.19ZM15.63 5.73 18.45 8.55 16.28 10.72 14.01 8.45C14.39 7.5 14.93 6.58 15.64 5.74ZM13.75 18.24C13.76 18.19 13.77 18.14 13.78 18.09 13.8 18.11 13.82 18.13 13.84 18.15 13.86 18.17 13.88 18.19 13.9 18.21 13.85 18.21 13.8 18.23 13.75 18.24ZM20.83 18.65C20.31 18.69 19.81 18.68 19.32 18.63 19.18 18.59 18.91 18.51 18.56 18.43L19.86 17.13 21.32 18.59C21.16 18.61 20.99 18.64 20.83 18.65ZM27.67 14.95 24.85 12.13 27.02 9.96 29.3 12.24C28.92 13.19 28.38 14.11 27.67 14.95Z" class="MsftOfcResponsive_Fill_7823dc" fill="#7823DC"/><rect x="-0.85" y="26.52" width="10.63" height="2.01" class="MsftOfcResponsive_Fill_7823dc" fill="#7823DC" transform="matrix(0.707107 -0.707107 0.707107 0.707107 -18.15 11.22)"/></svg>