<svg viewBox="0 0 32 32" xmlns="http://www.w3.org/2000/svg" xmlns:xlink="http://www.w3.org/1999/xlink" id="Layer_1" overflow="hidden"><style>
.MsftOfcResponsive_Fill_7823dc {
 fill:#7823DC; 
}
</style>
<g><image width="131" height="126" xlink:href="F6DBE53F.jpg" overflow="visible" transform="matrix(0.1864 0 0 -0.1861 36 29.4522)"></image></g><path d="M16 2C23.7 2 30 8.3 30 16 30 23.7 23.7 30 16 30 8.3 30 2 23.7 2 16 2 8.3 8.3 2 16 2M16 0C7.2 0 0 7.2 0 16 0 24.8 7.2 32 16 32 24.8 32 32 24.8 32 16 32 7.2 24.8 0 16 0L16 0Z" class="st0 MsftOfcResponsive_Fill_7823dc" fill="#7823DC"/><path d="M19 6.5 19 8.6C21.9 9.8 24 12.7 24 16 24 20.4 20.4 24 16 24 11.6 24 8 20.4 8 16 8 12.7 10.1 9.8 13 8.6L13 6.5C8.9 7.7 6 11.5 6 16 6 21.5 10.5 26 16 26 21.5 26 26 21.5 26 16 26 11.5 23.1 7.7 19 6.5Z" class="MsftOfcResponsive_Fill_7823dc" fill="#7823DC"/><rect x="15" y="5" width="2" height="7" class="MsftOfcResponsive_Fill_7823dc" fill="#7823DC"/></svg>