<svg viewBox="0 0 32.01 32" xmlns="http://www.w3.org/2000/svg" xmlns:xlink="http://www.w3.org/1999/xlink" id="a" overflow="hidden"><defs><clipPath id="b"><path d="M0 32 32 32 32 0 0 0 0 32 0 32Z" fill="none" clip-rule="evenodd"/></clipPath><clipPath id="c"><path d="M0 32 32 32 32 0 0 0 0 32 0 32Z" fill="none" clip-rule="evenodd"/></clipPath><clipPath id="d"><path d="M0 32 32 32 32 0 0 0 0 32 0 32Z" fill="none" clip-rule="evenodd"/></clipPath><clipPath id="e"><path d="M0 32 32 32 32 0 0 0 0 32 0 32Z" fill="none" clip-rule="evenodd"/></clipPath></defs><path d="M5.15 2.23C5.32 3 5.38 4.67 4.58 7.01 3.78 9.36 2.72 10.65 2.11 11.15 1.94 10.38 1.88 8.71 2.68 6.37 3.48 4.02 4.54 2.73 5.15 2.23M5.45-1.33227e-15C3.92 0 1.92 2.4 0.78 5.72-0.46 9.37-0.2 12.77 1.37 13.3 1.51 13.35 1.66 13.37 1.81 13.37 3.34 13.37 5.33 10.97 6.47 7.65 7.72 3.99 7.46 0.6 5.89 0.07 5.75 0.02 5.6 0 5.45 0L5.45 0Z" fill="#7823DC" fill-rule="evenodd"/><path d="M8.01 21.89 24.53 27.51 23.89 29.4 7.36 23.78 8.01 21.89 8.01 21.89Z" fill="#7823DC" fill-rule="evenodd"/><path d="M25.6 24.18C24.52 24.18 23.38 24 22.23 23.61L9.24 18.12C8.23 17.78 7.07 18.33 6.72 19.37 6.37 20.41 6.95 21.55 8.03 21.92L7.38 23.81C5.27 23.09 4.12 20.81 4.83 18.73 5.54 16.65 7.83 15.53 9.95 16.25L22.94 21.74C25.96 22.76 29.16 21.91 29.86 19.87 30.18 18.92 29.94 17.83 29.19 16.78 28.36 15.63 27.03 14.7 25.45 14.16L11.31 8.29C11.23 8.27 7.69 7.05 4.75 1.47L6.52 0.54C9.04 5.33 11.97 6.41 12 6.42L26.15 12.3C28.06 12.95 29.73 14.13 30.8 15.61 31.95 17.2 32.28 18.94 31.75 20.52 30.96 22.84 28.52 24.19 25.6 24.19Z" fill="#7823DC"/><g clip-path="url(#b)"><path d="M25.7 27.96C25.81 27.96 25.92 27.98 26.02 28.01 26.54 28.19 26.82 28.76 26.65 29.29 26.49 29.76 26.06 29.97 25.69 29.97 25.58 29.97 25.47 29.95 25.37 29.92 25.03 29.8 24.86 29.55 24.79 29.42 24.72 29.28 24.62 29 24.74 28.66 24.9 28.19 25.33 27.98 25.7 27.98M25.7 25.97C24.44 25.97 23.27 26.76 22.84 28.02 22.31 29.6 23.15 31.31 24.73 31.85 25.05 31.96 25.38 32.01 25.71 32.01 26.97 32.01 28.14 31.22 28.57 29.96 29.1 28.38 28.26 26.67 26.68 26.13 26.36 26.02 26.03 25.97 25.7 25.97L25.7 25.97Z" fill="#7823DC" fill-rule="evenodd"/><g clip-path="url(#c)"><path d="M23.1 16.22 20.65 22.22 18.8 21.46 21.25 15.46 23.1 16.22 23.1 16.22Z" fill="#7823DC" fill-rule="evenodd"/><g clip-path="url(#d)"><path d="M19.49 14.48 17.1 20.34 15.25 19.58 17.64 13.73 19.49 14.48 19.49 14.48Z" fill="#7823DC" fill-rule="evenodd"/><g clip-path="url(#e)"><path d="M23.57 23.84C23.13 23.84 22.69 23.77 22.26 23.62L22.91 21.73C23.42 21.9 23.97 21.87 24.46 21.63 24.94 21.39 25.3 20.99 25.47 20.48 25.82 19.43 25.25 18.28 24.19 17.92L10 12 10 12C10 12 7.02 11.09 2.12 13.36L1.28 11.54C7.02 8.89 10.57 10.08 10.71 10.13L24.89 16.05C26.92 16.74 28.06 19.03 27.35 21.12 27.01 22.13 26.29 22.95 25.33 23.42 24.77 23.7 24.16 23.84 23.56 23.84Z" fill="#7823DC"/></g></g></g></g></svg>