<svg viewBox="0 0 32 32" xmlns="http://www.w3.org/2000/svg" xmlns:xlink="http://www.w3.org/1999/xlink" id="Layer_1" xml:space="preserve" overflow="hidden"><style>
.MsftOfcResponsive_Fill_7823dc {
 fill:#7823DC; 
}
</style>
<g id="Layer_2_00000153672027410828584440000004318808627006363015_"></g><g id="Layer_2_00000103981120671582451330000015814750687241510044_"></g><path d="M27.4 13.7 27.4 2 29 2 29 0 19 0 19 2 20.6 2 20.6 13.7C17.9 15 16 17.8 16 21 16 21.1 16 21.2 16 21.2L16 21.3C16.1 22.8 16.6 24.2 17.4 25.4L17.7 25.7 19.5 27.5 19.7 27.7C20.7 28.3 21.8 28.7 23.1 28.9 23.1 28.9 23.1 28.9 23.2 28.9 23.5 28.9 23.7 28.9 24 28.9 28.4 28.9 32 25.3 32 20.9 32 17.8 30.2 15 27.4 13.7ZM24 26.9C22.9 26.9 21.9 26.6 21 26.1 20.9 26 20.8 26 20.7 25.9L20.7 25.9C20.1 25.5 19.6 25 19.2 24.4 19.1 24.3 19.1 24.2 19 24.1 18.4 23.2 18.1 22.1 18.1 20.9 18.1 18.4 19.7 16.2 22 15.3L22.7 15.1 22.7 2.1 25.3 2.1 25.3 15.2 26 15.4C28.4 16.2 30 18.5 30 21 29.9 24.2 27.3 26.9 24 26.9Z" class="MsftOfcResponsive_Fill_7823dc" fill="#7823DC"/><path d="M23.2 28.9 23.2 28.9C23.1 28.3 22.8 27.8 22.4 27.4L21 26C20.9 25.9 20.8 25.9 20.7 25.8L20.7 25.8C20.1 25.4 19.6 24.9 19.2 24.3 19.1 24.2 19.1 24.1 19 24L16.1 21.2 16 21.2 15.2 20.4 15.2 5.9 16.6 5.9 16.6 3.9 6.6 3.9 6.6 5.9 8 5.9 8 20.5 0.9 27.4C0.1 28.2-0.1 29.3 0.3 30.3 0.7 31.3 1.7 32 2.9 32L20.6 32C21.8 32 22.8 31.3 23.2 30.3 23.2 29.8 23.3 29.3 23.2 28.9ZM21.1 29.5C21.1 29.6 20.9 29.9 20.4 29.9L2.8 29.9C2.3 29.9 2.2 29.6 2.1 29.5 2 29.4 2 29.1 2.3 28.8L10.1 21.3 10.1 6 13.2 6 13.2 21.4 17.4 25.5 17.7 25.8 19.5 27.6 19.7 27.8 20.9 29C21.2 29.1 21.2 29.4 21.1 29.5Z" class="MsftOfcResponsive_Fill_7823dc" fill="#7823DC"/><rect x="4" y="25" width="15" height="2" class="MsftOfcResponsive_Fill_7823dc" fill="#7823DC"/><rect x="17" y="19.6" width="14" height="2" class="MsftOfcResponsive_Fill_7823dc" fill="#7823DC"/></svg>