<svg viewBox="0 0 32 32" xmlns="http://www.w3.org/2000/svg" xmlns:xlink="http://www.w3.org/1999/xlink" id="Graphic" overflow="hidden"><defs></defs><rect x="11" y="0.01" width="2" height="4" fill="#7823DC"/><rect x="6" y="1.35" width="2" height="4" fill="#7823DC" transform="matrix(0.866025 -0.5 0.5 0.866025 -0.74 3.95)"/><rect x="2.34" y="5.01" width="2" height="4" fill="#7823DC" transform="matrix(0.5 -0.866025 0.866025 0.5 -4.41 6.4)"/><rect x="0" y="11.02" width="4" height="2" fill="#7823DC"/><rect x="1.34" y="16.02" width="4" height="2" fill="#7823DC" transform="matrix(0.866025 -0.5 0.5 0.866025 -8.06 3.95)"/><rect x="18.66" y="6.01" width="4" height="2" fill="#7823DC" transform="matrix(0.866025 -0.5 0.5 0.866025 -0.74 11.27)"/><rect x="15" y="2.35" width="4" height="2" fill="#7823DC" transform="matrix(0.5 -0.866025 0.866025 0.5 5.59 16.4)"/><path d="M26.46 20.39C26.46 20.33 26.46 20.27 26.46 20.21 26.4777 14.9863 22.5607 10.5866 17.37 10 16.282 7.03419 12.9958 5.51189 10.03 6.59986 7.76704 7.42999 6.26733 9.58963 6.28 12 6.27462 13.1506 6.62379 14.2749 7.28 15.22 6.88503 15.9155 6.57929 16.658 6.37 17.43 1.8785 18.5232-0.876352 23.0505 0.216858 27.542 0.641891 29.2883 1.61773 30.8513 3 32L30 32C32.6889 29.331 32.705 24.9875 30.036 22.2986 29.0703 21.3256 27.8352 20.6643 26.49 20.4ZM8.28 12C8.24698 9.95681 9.87655 8.27372 11.9197 8.2407 13.2253 8.21961 14.4453 8.8882 15.13 10 12.5977 10.2723 10.26 11.4858 8.58 13.4 8.38675 12.9583 8.28471 12.4821 8.28 12ZM29.06 30 3.77 30C1.3341 27.4617 1.41712 23.4293 3.95544 20.9934 4.76615 20.2154 5.76823 19.6657 6.86 19.4L8 19.11 8.31 18C9.52597 13.6204 14.0621 11.0557 18.4417 12.2717 21.9966 13.2587 24.4603 16.4907 24.47 20.18 24.4648 20.2432 24.4648 20.3068 24.47 20.37L24.47 22.05 26.12 22.37C28.7508 22.8738 30.475 25.4149 29.9712 28.0456 29.8359 28.7522 29.5452 29.4197 29.12 30Z" fill="#7823DC"/></svg>