<svg viewBox="0 0 32 32" xmlns="http://www.w3.org/2000/svg" xmlns:xlink="http://www.w3.org/1999/xlink" id="Layer_1" overflow="hidden"><style>
.MsftOfcResponsive_Fill_7823dc {
 fill:#7823DC; 
}
</style>
<image width="64" height="64" xlink:href="13E36CF8.jpg" overflow="visible" transform="translate(-7232 -7652)"></image><g><path d="M29.4 32 2.6 32 2.6 16 4.6 16 4.6 30 27.4 30 27.4 16 29.4 16Z" class="MsftOfcResponsive_Fill_7823dc" fill="#7823DC"/><path d="M27.8 17.2 24.6 13.2 24.6 2 23.7 2 23.8 10.6 23.1 10.8C22.2 11.1 17.6 12.8 15.9 12.8 13.9 12.8 9.2 11 8.6 10.8L8 10.6 8 2 7.4 2 7.4 13.3 4.2 17.3 2.6 16 5.4 12.6 5.4 0 10.2 0 10.2 9.3C12.2 10 15 10.9 16.1 10.9 17 10.9 19.9 10 21.9 9.3L21.8 0 26.7 0 26.7 12.6 29.5 16 27.8 17.2Z" class="MsftOfcResponsive_Fill_7823dc" fill="#7823DC"/><path d="" class="st0 MsftOfcResponsive_Fill_7823dc" stroke="#000000" stroke-width="2" stroke-miterlimit="10" fill="#7823DC"/><path d="M22.1 20C20.4 20 19.1 18.7 19.1 17 19.1 15.3 20.4 14 22.1 14 23.8 14 25.1 15.3 25.1 17 25.1 18.7 23.8 20 22.1 20ZM22.1 16C21.5 16 21.1 16.4 21.1 17 21.1 17.6 21.5 18 22.1 18 22.7 18 23.1 17.6 23.1 17 23.1 16.4 22.7 16 22.1 16Z" class="MsftOfcResponsive_Fill_7823dc" fill="#7823DC"/><rect x="6.5" y="27" width="19" height="2" class="MsftOfcResponsive_Fill_7823dc" fill="#7823DC"/><rect x="6.5" y="23" width="19" height="2" class="MsftOfcResponsive_Fill_7823dc" fill="#7823DC"/></g></svg>