<svg viewBox="0 0 32 32" xmlns="http://www.w3.org/2000/svg" xmlns:xlink="http://www.w3.org/1999/xlink" id="Layer_1" overflow="hidden"><style>
.MsftOfcResponsive_Fill_7823dc {
 fill:#7823DC; 
}
</style>
<path d="M18.1 6 26.1 14.1 10.9 29.5C10.6 29.8 10.2 30 9.8 30 9.4 30 9 29.8 8.7 29.5L2.2 22.8C2 22.6 2 22.3 2.2 22.2L18.1 6M18.1 3.1 0.7 20.8C-0.2 21.7-0.2 23.3 0.7 24.2L7.2 30.9C8 31.6 8.9 32 9.8 32 10.7 32 11.6 31.6 12.3 30.9L28.8 14.1 18.1 3.1 18.1 3.1Z" class="MsftOfcResponsive_Fill_7823dc" fill="#7823DC"/><path d="M24.8 2.9 29.2 7.4 25.7 10.9 21.3 6.4 24.8 2.9M24.8 0 18.5 6.4 25.7 13.7 32 7.3 24.8 0 24.8 0Z" class="MsftOfcResponsive_Fill_7823dc" fill="#7823DC"/><rect x="24.9" y="4.5" width="3.4" height="2" class="MsftOfcResponsive_Fill_7823dc" fill="#7823DC" transform="matrix(0.7012 -0.7129 0.7129 0.7012 4.0401 20.6092)"/><path d="M9 22C9.6 22 10 22.4 10 23 10 23.6 9.6 24 9 24 8.4 24 8 23.6 8 23 8 22.4 8.4 22 9 22M9 20C7.3 20 6 21.3 6 23 6 24.7 7.3 26 9 26 10.7 26 12 24.7 12 23 12 21.3 10.7 20 9 20L9 20Z" class="MsftOfcResponsive_Fill_7823dc" fill="#7823DC"/><path d="M10.7 22.7 9.3 21.3 13.9 16.7 12.9 12.7 17.3 8.3 18.7 9.7 15.1 13.3 16.1 17.3Z" class="MsftOfcResponsive_Fill_7823dc" fill="#7823DC"/><rect x="13.2" y="15" width="5.7" height="2" class="MsftOfcResponsive_Fill_7823dc" fill="#7823DC" transform="matrix(0.7071 -0.7071 0.7071 0.7071 -6.6274 16)"/><path d="M16 21.1 12.7 19.9 13.3 18.1 16 18.9 18.7 18.1 19.3 19.9Z" class="MsftOfcResponsive_Fill_7823dc" fill="#7823DC"/></svg>