<svg viewBox="0 0 32 32" xmlns="http://www.w3.org/2000/svg" xmlns:xlink="http://www.w3.org/1999/xlink" id="Layer_1" overflow="hidden"><style>
.MsftOfcResponsive_Fill_7823dc {
 fill:#7823DC; 
}
</style>
<rect x="0" y="30" width="32" height="2" class="MsftOfcResponsive_Fill_7823dc" fill="#7823DC"/><rect x="0" y="27" width="32" height="2" class="MsftOfcResponsive_Fill_7823dc" fill="#7823DC"/><g><g><path d="M10.7 24.5 9.1 23C11.2 20.7 13.4 18.4 13.4 16.2 13.4 15.3 12.3 14.1 11.3 13 10 11.5 8.7 10 8.7 8.3 8.7 5.3 11.2 2.6 13.7 0L15.3 1.5C13.2 3.8 11 6.1 11 8.3 11 9.2 12.1 10.4 13.1 11.5 14.4 13 15.7 14.5 15.7 16.2 15.7 19.2 13.2 21.9 10.7 24.5Z" class="st0 MsftOfcResponsive_Fill_7823dc" fill="#7823DC"/><line x1="15.3" y1="24.5" x2="15.3" y2="0" class="st1" fill="none" fill-rule="evenodd" clip-rule="evenodd"/><line x1="15.3" y1="24.5" x2="15.3" y2="0" class="st1" fill="none" fill-rule="evenodd" clip-rule="evenodd"/></g><g><path d="M18.4 24.5 16.7 23C18.8 20.7 21 18.4 21 16.2 21 15.3 19.9 14.1 18.9 13 17.6 11.5 16.3 10 16.3 8.3 16.3 5.3 18.8 2.6 21.3 0L23 1.5C20.9 3.8 18.6 6.1 18.6 8.3 18.6 9.2 19.7 10.4 20.7 11.5 22 13 23.3 14.5 23.3 16.2 23.3 19.2 20.8 21.9 18.4 24.5Z" class="st0 MsftOfcResponsive_Fill_7823dc" fill="#7823DC"/><line x1="22.9" y1="24.5" x2="22.9" y2="0" class="st1" fill="none" fill-rule="evenodd" clip-rule="evenodd"/><line x1="22.9" y1="24.5" x2="22.9" y2="0" class="st1" fill="none" fill-rule="evenodd" clip-rule="evenodd"/></g><g><path d="M26 24.5 24.3 23C26.4 20.7 28.6 18.4 28.6 16.2 28.6 15.3 27.5 14.1 26.5 13 25.2 11.5 23.9 10 23.9 8.3 23.9 5.3 26.4 2.6 28.9 0L30.5 1.5C28.4 3.8 26.1 6.1 26.1 8.3 26.1 9.2 27.2 10.4 28.2 11.5 29.5 13 30.8 14.5 30.8 16.2 30.9 19.2 28.4 21.9 26 24.5Z" class="st0 MsftOfcResponsive_Fill_7823dc" fill="#7823DC"/><line x1="30.5" y1="24.5" x2="30.5" y2="0" class="st1" fill="none" fill-rule="evenodd" clip-rule="evenodd"/><line x1="30.5" y1="24.5" x2="30.5" y2="0" class="st1" fill="none" fill-rule="evenodd" clip-rule="evenodd"/></g><g><path d="M3.1 24.5 1.5 23C3.6 20.7 5.8 18.4 5.8 16.2 5.8 15.3 4.7 14.1 3.7 13 2.4 11.5 1.1 10 1.1 8.3 1.1 5.3 3.6 2.6 6.1 0L7.7 1.5C5.6 3.8 3.4 6.1 3.4 8.3 3.4 9.2 4.5 10.4 5.5 11.5 6.7 13 8 14.5 8 16.2 8.1 19.2 5.6 21.9 3.1 24.5Z" class="st0 MsftOfcResponsive_Fill_7823dc" fill="#7823DC"/><line x1="7.7" y1="24.5" x2="7.7" y2="0" class="st1" fill="none" fill-rule="evenodd" clip-rule="evenodd"/><line x1="7.7" y1="24.5" x2="7.7" y2="0" class="st1" fill="none" fill-rule="evenodd" clip-rule="evenodd"/></g></g></svg>