<svg viewBox="0 0 32 32" xmlns="http://www.w3.org/2000/svg" xmlns:xlink="http://www.w3.org/1999/xlink" id="Layer_2_1_" xml:space="preserve" overflow="hidden"><g><g><defs><path d="M-1 32 32 32 32 2.4-1 2.4-1 32Z" id="SVGID_1_" fill="#7823DC"/></defs><defs><path d="M-1 2.4 32 2.4 32 32-1 32-1 2.4Z" id="SVGID_00000074423284948645952630000009017599969030359709_" fill="#7823DC"/></defs><clipPath id="SVGID_00000091715135454630383500000010822428374890377900_"><use width="100%" height="100%" xlink:href="#SVGID_1_" overflow="visible"></use></clipPath><clipPath id="SVGID_00000163063838323944213930000000659730866380805281_" clip-path="url(#SVGID_00000091715135454630383500000010822428374890377900_)"><use width="100%" height="100%" xlink:href="#SVGID_00000074423284948645952630000009017599969030359709_" overflow="visible"></use></clipPath><g clip-path="url(#SVGID_00000163063838323944213930000000659730866380805281_)"><defs><path d="M-1 32 32 32 32 2.4-1 2.4-1 32Z" id="SVGID_00000070120406052623384760000013942418355967208334_" fill="#7823DC"/></defs><clipPath id="SVGID_00000009558667320622687890000017526018709829051053_"><use width="100%" height="100%" xlink:href="#SVGID_00000070120406052623384760000013942418355967208334_" overflow="visible"></use></clipPath><path d="M1 16.6C0.5 16.6 0 17.1 0 17.6L0 17.6 0 30.8C0 31.4 0.4 31.8 1 31.8L30.9 31.8C31.4 31.8 31.9 31.3 31.9 30.8L31.9 17.6C31.9 17 31.5 16.6 30.9 16.6L1 16.6 1 16.6 1 16.6ZM2 18.6 29.9 18.6 29.9 29.8 2 29.8 2 18.6 2 18.6 2 18.6Z" fill="#7823DC" fill-rule="evenodd" clip-rule="evenodd" clip-path="url(#SVGID_00000009558667320622687890000017526018709829051053_)"/><path d="M22 7.8C21.9 7.8 21.7 7.8 21.6 7.9L16.2 10.2C15.7 10.4 15.5 11 15.7 11.5 15.9 12 16.5 12.3 17 12.1L17 12.1 22 10C26.2 10.7 29.6 13.7 29.9 17.8 29.9 18.4 30.4 18.8 31 18.7 31.5 18.7 32 18.2 31.9 17.6L31.9 17.6C31.5 12.3 27.1 8.6 22.1 7.9 22 7.8 22 7.8 22 7.8L22 7.8 22 7.8 22 7.8ZM11.4 12.2C11.3 12.2 11.1 12.2 11 12.3L0.7 16.7C0.2 16.9 0 17.5 0.2 18L0.2 18C0.4 18.5 1 18.8 1.5 18.5L11.8 14.1C12.3 13.9 12.5 13.3 12.3 12.8L12.3 12.8C12.1 12.5 11.8 12.3 11.4 12.2L11.4 12.2 11.4 12.2 11.4 12.2Z" fill="#7823DC" fill-rule="evenodd" clip-rule="evenodd" clip-path="url(#SVGID_00000009558667320622687890000017526018709829051053_)"/><path d="M1 23.2C0.5 23.2 0 23.7 0 24.2 0 24.8 0.4 25.2 1 25.2L30.9 25.2C31.4 25.2 31.9 24.7 31.9 24.2L31.9 24.2C31.9 23.6 31.5 23.2 30.9 23.2L1 23.2 1 23.2 1 23.2Z" fill="#7823DC" fill-rule="evenodd" clip-rule="evenodd" clip-path="url(#SVGID_00000009558667320622687890000017526018709829051053_)"/><path d="M13.6 7.4C11.6 7.4 9.9 9.1 9.9 11.2 9.9 13.3 11.6 15 13.6 15 15.6 15 17.3 13.3 17.3 11.2 17.3 9.1 15.6 7.4 13.6 7.4L13.6 7.4ZM13.6 9.4C14.6 9.4 15.3 10.2 15.3 11.2 15.3 12.2 14.5 13 13.6 13 12.7 13 11.9 12.2 11.9 11.2 11.8 10.2 12.6 9.4 13.6 9.4L13.6 9.4Z" fill="#7823DC" fill-rule="evenodd" clip-rule="evenodd" clip-path="url(#SVGID_00000009558667320622687890000017526018709829051053_)"/><path d="M14.4 8.7 12.5 8.3C12.8 7.1 13.2 5 15.2 3.4L16.4 5C15.1 6 14.7 7.3 14.4 8.7L14.4 8.7Z" fill="#7823DC" clip-path="url(#SVGID_00000009558667320622687890000017526018709829051053_)"/><path d="M0 29.8 31.9 29.8 31.9 31.8 0 31.8 0 29.8Z" fill="#7823DC" clip-path="url(#SVGID_00000009558667320622687890000017526018709829051053_)"/></g></g></g></svg>