<svg viewBox="0 0 32 32" xmlns="http://www.w3.org/2000/svg" xmlns:xlink="http://www.w3.org/1999/xlink" overflow="hidden"><defs></defs><g id="a"></g><g id="b"><g id="c"></g><path d="M15.9999 20 13.9999 20 13.9999 24 15.9999 24 15.9999 20 15.9999 20Z" fill="#7823DC"/><path d="M20 20 18 20 18 24 20 24 20 20 20 20Z" fill="#7823DC"/><path d="M24 20 22 20 22 24 24 24 24 20 24 20Z" fill="#7823DC"/><path d="M28 20 26 20 26 24 28 24 28 20 28 20Z" fill="#7823DC"/><path d="M15.9999 26 13.9999 26 13.9999 30 15.9999 30 15.9999 26 15.9999 26Z" fill="#7823DC"/><path d="M8 26 6 26 6 30 8 30 8 26 8 26Z" fill="#7823DC"/><path d="M20 26 18 26 18 30 20 30 20 26 20 26Z" fill="#7823DC"/><path d="M24 26 22 26 22 30 24 30 24 26 24 26Z" fill="#7823DC"/><path d="M28 26 26 26 26 30 28 30 28 26 28 26Z" fill="#7823DC"/><rect x="9.75391" y="2.7589" width="4.97461" height="1.99979" fill="#7823DC" transform="matrix(0.707107 -0.707107 0.707107 0.707107 0.9275 9.75677)"/><path d="M30 16 30 30 2 30 2 21.3188 14.4105 16 30 16M32 14 14 14 0 20 0 32 32 32 32 14 32 14Z" fill="#7823DC"/><path d="M2.10107 10.7674C2.03521 10.4442 2 10.1098 2 9.76744 2 7.01042 4.24298 4.76744 7 4.76744 9.75702 4.76744 12 7.01042 12 9.76744 12 10.1098 11.9648 10.4442 11.8989 10.7674L13.9205 10.7674C13.9675 10.44 14 10.1079 14 9.76744 14 5.90141 10.866 2.76744 7.00001 2.76744 3.13398 2.76744 0 5.90141 0 9.76744 0 10.1079 0.03253 10.44 0.07953 10.7674L2.10107 10.7674Z" fill="#7823DC"/><path d="M12 12 12 14.7584 2 19.2255 2 12 12 12M14 10 0 10 0 22.3094 14 16.0555 14 10 14 10Z" fill="#7823DC"/><circle cx="31" cy="1" r="1" fill="#7823DC"/><circle cx="19" cy="5" r="1" fill="#7823DC"/><circle cx="26" cy="6" r="2" fill="#7823DC"/></g></svg>