<svg viewBox="0 0 30 29.88" xmlns="http://www.w3.org/2000/svg" xmlns:xlink="http://www.w3.org/1999/xlink" id="Grid" overflow="hidden"><style>
.MsftOfcResponsive_Fill_7823dc {
 fill:#7823DC; 
}
</style>
<defs></defs><path d="M29.98 14.8C29.41 14.99 28.7 15.16 27.87 15.29 26.36 15.53 24.47 15.53 22.44 14.86 21.09 14.42 19.98 13.77 19.02 13.03 19.6 12.18 19.94 11.15 19.94 10.18 19.94 9.78 19.94 8.58 17.9 4.82 17.03 3.21 15.43 0.67 15.11 0.17L15 8.04912e-16 14.88 0.18C14.57 0.67 12.97 3.2 12.09 4.82 10.05 8.58 10.05 9.79 10.05 10.18 10.05 11.21 10.38 12.2 10.97 13.03 10.03 13.76 8.9 14.42 7.55 14.86 5.51 15.52 3.63 15.51 2.12 15.28 1.28 15.15 0.58 14.97 0.01 14.79L-0.02 14.79C-0.02 15.56 0.06 16.32 0.17 17.07 0.26 17.63 0.38 18.17 0.52 18.71 0.78 19.65 1.13 20.56 1.56 21.42 2.92 24.16 5.1 26.43 7.77 27.91 7.72 28.19 7.67 28.48 7.67 28.76L7.67 29.88 22.26 29.88 22.26 28.76C22.26 28.47 22.22 28.18 22.16 27.91 24.83 26.44 27.01 24.17 28.37 21.42 28.8 20.55 29.15 19.66 29.41 18.71 29.56 18.18 29.68 17.63 29.76 17.07 29.88 16.32 29.95 15.56 29.95 14.78L29.92 14.78 29.92 14.8 29.93 14.8ZM15 4.3C16.25 6.44 17.68 9.23 17.68 10.21 17.68 10.64 17.55 11.09 17.34 11.5 17.34 11.5 17.33 11.49 17.32 11.48 16.91 11.02 16.57 10.57 16.27 10.14 15.55 9.08 15.15 8.2 15.01 7.85L15.01 7.85C14.87 8.19 14.47 9.09 13.75 10.14 13.46 10.57 13.11 11.03 12.7 11.48 12.7 11.48 12.69 11.49 12.68 11.5 12.47 11.1 12.34 10.67 12.34 10.21 12.34 9.23 13.77 6.44 15.02 4.3L15.02 4.3ZM21.32 25.98C21.32 25.98 21.29 26 21.27 26.01 21.25 26.02 21.24 26.03 21.22 26.04 20.61 26.38 19.96 26.66 19.28 26.89 19.26 26.89 19.24 26.9 19.22 26.91 19.2 26.91 19.18 26.92 19.15 26.93 17.85 27.38 16.46 27.64 15.01 27.64 13.56 27.64 12.17 27.37 10.87 26.93 10.85 26.93 10.83 26.92 10.8 26.91 10.78 26.91 10.76 26.9 10.74 26.89 10.06 26.65 9.42 26.38 8.8 26.04 8.78 26.04 8.77 26.02 8.75 26.01 8.73 26.01 8.72 25.99 8.7 25.98 6.96 25 5.46 23.63 4.35 21.98 4.82 22.02 5.31 22.05 5.82 22.05 10.06 22.02 13.18 20.06 15.01 18.47 16.85 20.06 19.97 22.02 24.2 22.05 24.71 22.05 25.2 22.02 25.67 21.98 24.56 23.63 23.06 24.99 21.32 25.98L21.34 25.98ZM26.96 19.6C26.12 19.79 25.21 19.92 24.23 19.91 20.75 19.88 18.11 18.25 16.55 16.95 15.76 16.29 15.23 15.7 15.02 15.45L15.02 15.45C14.81 15.7 14.29 16.28 13.49 16.95 11.93 18.25 9.29 19.88 5.81 19.91 4.82 19.91 3.91 19.79 3.08 19.6 2.8 18.93 2.59 18.22 2.44 17.49 2.93 17.54 3.46 17.58 4.02 17.58 5.33 17.58 6.77 17.4 8.28 16.91 10.87 16.07 12.77 14.6 14.14 13.12 14.46 12.77 14.77 12.41 15.04 12.06 15.31 12.41 15.62 12.77 15.94 13.12 17.31 14.61 19.21 16.07 21.8 16.91 23.31 17.4 24.76 17.58 26.06 17.58 26.61 17.58 27.13 17.55 27.62 17.49 27.46 18.22 27.25 18.92 26.98 19.6L26.97 19.6Z" class="MsftOfcResponsive_Fill_7823dc" stroke-width="0" fill="#7823DC" fill-rule="evenodd"/><path d="M15 20.28C14.71 20.28 14.43 20.4 14.21 20.61 14.02 20.8 13.91 21.05 13.92 21.31 13.94 21.88 14.42 22.32 15 22.32 15.29 22.32 15.57 22.2 15.79 21.99 15.98 21.8 16.09 21.55 16.08 21.29 16.06 20.72 15.58 20.28 15 20.28L15 20.28Z" class="MsftOfcResponsive_Fill_7823dc" stroke-width="0" fill="#7823DC" fill-rule="evenodd"/></svg>