<svg viewBox="0 0 32 32" xmlns="http://www.w3.org/2000/svg" xmlns:xlink="http://www.w3.org/1999/xlink" id="Layer_1" xml:space="preserve" overflow="hidden"><g><g><defs><path d="M4 32 28 32 28 0 4 0 4 32Z" id="SVGID_1_" fill="#7823DC"/></defs><defs><path d="M4 0 28 0 28 32 4 32 4 0Z" id="SVGID_00000052100820139264700120000009512567880312316591_" fill="#7823DC"/></defs><clipPath id="SVGID_00000132767327328033891510000010370901734896658323_"><use width="100%" height="100%" xlink:href="#SVGID_1_" overflow="visible"></use></clipPath><clipPath id="SVGID_00000137101113231145875160000015782438093122135685_" clip-path="url(#SVGID_00000132767327328033891510000010370901734896658323_)"><use width="100%" height="100%" xlink:href="#SVGID_00000052100820139264700120000009512567880312316591_" overflow="visible"></use></clipPath><g clip-path="url(#SVGID_00000137101113231145875160000015782438093122135685_)"><defs><path d="M4 32 28 32 28 0 4 0 4 32Z" id="SVGID_00000098904130315984830560000006390345106494100412_" fill="#7823DC"/></defs><clipPath id="SVGID_00000059288854810934450090000000564344024332536968_"><use width="100%" height="100%" xlink:href="#SVGID_00000098904130315984830560000006390345106494100412_" overflow="visible"></use></clipPath><path d="M27.8 26.3 27.9 9.9 26.6 6.4C27.3 5.9 27.8 5.1 27.8 4.2L27.8 3.6C27.8 2.2 26.6 1 25.2 1L7.6 1C6.2 1 5 2.1 5 3.6L5 4.2C5 5.1 5.5 6 6.2 6.4L5 10 5 26 5.4 27.3C5.2 27.7 5 28.2 5 28.7L5 29.3C5 30.7 6.2 31.9 7.6 31.9L25.3 31.9C26.7 31.9 27.9 30.7 27.9 29.3L27.9 28.7C27.9 28.2 27.8 27.8 27.6 27.4L27.8 26.3 27.8 26.3 27.8 26.3ZM26 29.2C26 29.6 25.7 29.9 25.3 29.9L7.6 29.9C7.2 29.9 6.9 29.6 6.9 29.2L6.9 28.6C6.9 28.2 7.2 27.9 7.6 27.9L18.4 27.9 18.4 26 7.6 26C7.4 26 7.2 26 7 26.1L6.9 25.9 6.9 10.3 8.2 6.7 12.7 6.7 12.7 4.8 7.7 4.8C7.3 4.8 7 4.5 7 4.1L7 3.6C7 3.2 7.3 2.9 7.7 2.9L25.4 2.9C25.8 2.9 26.1 3.2 26.1 3.6L26.1 4.2C26.1 4.6 25.8 4.9 25.4 4.9L14.5 4.9 14.5 6.8 24.7 6.8 26 10.3 26 26 25.9 26.2C25.7 26.2 25.5 26.1 25.3 26.1L20.3 26.1 20.3 28 25.3 28C25.7 28 26 28.3 26 28.7L26 29.2 26 29.2 26 29.2Z" fill="#7823DC" clip-path="url(#SVGID_00000059288854810934450090000000564344024332536968_)"/><path d="M16.9 15.4 18.3 8.7 12.3 17.3 15.7 17.5 14.5 24.1 20.6 15.4 16.9 15.4 16.9 15.4Z" fill="#7823DC" clip-path="url(#SVGID_00000059288854810934450090000000564344024332536968_)"/></g></g></g></svg>