<svg viewBox="0 0 32 32" xmlns="http://www.w3.org/2000/svg" xmlns:xlink="http://www.w3.org/1999/xlink" id="Layer_1" overflow="hidden"><style>
.MsftOfcResponsive_Fill_7823dc {
 fill:#7823DC; 
}
</style>
<g><path d="M18.9 16 18.9 24 13 24 13 16 18.9 16M20.9 14 11 14 11 26 20.9 26 20.9 14 20.9 14Z" class="MsftOfcResponsive_Fill_7823dc" fill="#7823DC"/><path d="M17 15.1 14.8 15.1 14.8 18.8 17 18.8 17 15.1Z" class="MsftOfcResponsive_Fill_7823dc" fill="#7823DC"/><path d="M27 16 27 24 21.1 24 21.1 16 27 16M29 14 19.1 14 19.1 26 29 26 29 14 29 14Z" class="MsftOfcResponsive_Fill_7823dc" fill="#7823DC"/><path d="M25.2 15.1 23 15.1 23 18.8 25.2 18.8 25.2 15.1Z" class="MsftOfcResponsive_Fill_7823dc" fill="#7823DC"/><path d="M10.9 16 10.9 24 5 24 5 16 10.9 16M12.9 14 3 14 3 26 12.9 26 12.9 14 12.9 14Z" class="MsftOfcResponsive_Fill_7823dc" fill="#7823DC"/><path d="M9 15.1 6.8 15.1 6.8 18.8 9 18.8 9 15.1Z" class="MsftOfcResponsive_Fill_7823dc" fill="#7823DC"/></g><g><path d="M14.9 6 14.9 14 9.1 14 9.1 6 14.9 6M16.9 4 7.1 4 7.1 16 17 16 17 4 16.9 4Z" class="MsftOfcResponsive_Fill_7823dc" fill="#7823DC"/><path d="M13.1 5.1 10.9 5.1 10.9 8.8 13.1 8.8 13.1 5.1Z" class="MsftOfcResponsive_Fill_7823dc" fill="#7823DC"/><path d="M22.9 6 22.9 14 17 14 17 6 22.9 6M24.9 4 15 4 15 16 24.9 16 24.9 4 24.9 4Z" class="MsftOfcResponsive_Fill_7823dc" fill="#7823DC"/><path d="M21.1 5.1 18.9 5.1 18.9 8.8 21.1 8.8 21.1 5.1Z" class="MsftOfcResponsive_Fill_7823dc" fill="#7823DC"/></g><path d="M29.2 32 23 32 23 28 25.5 28 25.5 30 26.8 30 26.8 28 29.2 28Z" class="MsftOfcResponsive_Fill_7823dc" fill="#7823DC"/><path d="M9.2 32 3 32 3 28 5.5 28 5.5 30 6.8 30 6.8 28 9.2 28Z" class="MsftOfcResponsive_Fill_7823dc" fill="#7823DC"/><path d="M19.1 32 12.9 32 12.9 28 15.3 28 15.3 30 16.7 30 16.7 28 19.1 28Z" class="MsftOfcResponsive_Fill_7823dc" fill="#7823DC"/><path d="M30 26 30 27 2 27 2 26 30 26M32 24 0 24 0 29 32 29 32 24 32 24Z" class="MsftOfcResponsive_Fill_7823dc" fill="#7823DC"/></svg>