<svg viewBox="0 0 32 32" xmlns="http://www.w3.org/2000/svg" xmlns:xlink="http://www.w3.org/1999/xlink" id="Layer_1" xml:space="preserve" overflow="hidden"><g><path d="M29.5 18 20.8 20.8 20.8 19.6 20.8 17.3 18.6 17.6 15.3 18 10.3 16 9.4 15.7 8.6 16.2 5.3 18 2 18 0 18 0 20 0 26 0 28 2 28 5.3 28 15.3 32 31 23.7 32 23.2 32 22 32 20 32 17.2 29.5 18 29.5 18 29.5 18 29.5 18 29.5 18ZM30 22 15 29.8 5.8 26 2 26 2 20 5.7 20 9.4 18 14.9 20 18.7 19.5 18.7 21.5 17.7 22 14 22.8 14 24.5 18 23.8 18 23.8 30 20 30 22 30 22 30 22 30 22 30 22Z" fill="#7823DC" fill-rule="evenodd" clip-rule="evenodd"/><path d="M16.8 9.8 15.3 9.8 14.8 3.3 17.3 3.3 16.8 9.8 16.8 9.8 16.8 9.8 16.8 9.8Z" fill="#7823DC" fill-rule="evenodd" clip-rule="evenodd"/><path d="M16 2C19.2 2 22 4.7 22 8 22 11.3 19.2 13.7 16 13.7 12.8 13.7 10 11.2 10 8 10 4.8 12.8 2 16 2M16 0C11.8 0 8 3.5 8 8 8 12.2 11.8 15.7 16 15.7 20.2 15.7 24 12.2 24 8 24 3.5 20.2 0 16 0L16 0Z" fill="#7823DC" fill-rule="evenodd" clip-rule="evenodd"/><path d="M15 11.8C15 11.2 15.5 10.8 16 10.8 16.6 10.8 17 11.3 17 11.8 17 12.4 16.5 12.8 16 12.8 15.5 12.8 15 12.3 15 11.8L15 11.8Z" fill="#7823DC" fill-rule="evenodd" clip-rule="evenodd"/></g></svg>