<svg viewBox="0 0 32 32" xmlns="http://www.w3.org/2000/svg" xmlns:xlink="http://www.w3.org/1999/xlink" id="Layer_1" overflow="hidden"><g><g><path d="M26.3 5.8 25.2 5.9 24.9 6 23.8 6.1 21.2 6.3 21 4.4 22.6 4.2 23.8 4.1 24.1 4 24.1 3.7 24 2.6 23.8 0.9 25.8 0.7 26.1 3.7 26.2 4.4 26.2 4.9Z" fill="#7823DC"/><g><path d="M26.2 4.9 25.2 5.9 25 5.9C24.7 5.6 24.3 5.2 23.9 5 23.5 4.7 23.1 4.4 22.7 4.2 17.4 0.9 10.5 1.6 6 6.1 0.7 11.4 0.7 19.9 6 25.2L4.6 26.6C-1.4 20.6-1.4 10.7 4.6 4.7 9.8-0.6 18-1.3 24 2.6 24.5 2.9 25 3.3 25.4 3.7 25.7 3.9 25.9 4.1 26.2 4.4L26.2 4.9Z" fill="#7823DC"/><path d="" stroke="#7823DC" stroke-width="2" stroke-miterlimit="10" fill="#7823DC"/></g></g><path d="M6.2 31.3 5.7 26.2 10.8 25.7 11.1 27.7 7.9 28 8.2 31.1Z" fill="#7823DC"/><g><path d="M27.5 27.3C24.5 30.3 20.5 31.8 16.5 31.8 12.9 31.8 9.3 30.6 6.5 28.1L7.8 27.8 8.1 26.8C13.4 31.1 21.2 30.8 26.1 25.8 31.4 20.5 31.4 12 26.1 6.7L27.5 5.3C33.5 11.4 33.5 21.3 27.5 27.3Z" fill="#7823DC"/><path d="" stroke="#7823DC" stroke-width="2" stroke-miterlimit="10" fill="#7823DC"/></g><path d="" stroke="#7823DC" stroke-width="2" stroke-miterlimit="10" fill="#7823DC"/><path d="" stroke="#7823DC" stroke-width="2" stroke-miterlimit="10" fill="#7823DC"/><path d="M13.1 15.9C11.6 15.9 10.4 14.7 10.4 13.2 10.4 11.7 11.6 10.5 13.1 10.5 14.6 10.5 15.8 11.7 15.8 13.2 15.8 14.6 14.6 15.9 13.1 15.9ZM13.1 12.4C12.7 12.4 12.4 12.7 12.4 13.1 12.4 13.5 12.7 13.8 13.1 13.8 13.5 13.8 13.8 13.5 13.8 13.1 13.8 12.7 13.5 12.4 13.1 12.4Z" fill="#7823DC"/><path d="M19.2 21.9C17.7 21.9 16.5 20.7 16.5 19.2 16.5 17.7 17.7 16.5 19.2 16.5 20.7 16.5 21.9 17.7 21.9 19.2 21.9 20.7 20.7 21.9 19.2 21.9ZM19.2 18.4C18.8 18.4 18.5 18.7 18.5 19.1 18.5 19.5 18.8 19.8 19.2 19.8 19.6 19.8 19.9 19.5 19.9 19.1 19.9 18.7 19.6 18.4 19.2 18.4Z" fill="#7823DC"/><rect x="9.4" y="15.1" width="13.5" height="2" fill="#7823DC" transform="matrix(0.7071 -0.7071 0.7071 0.7071 -6.6679 16.1091)"/><path d="M26.2 4.9 26.2 4.4 26.1 3.7 23.9 3.7 23.9 6.1 24.9 6 25.1 6 26.2 5.9 26.2 4.9Z" fill="#7823DC"/></g><path d="M16 26.3C10.3 26.3 5.7 21.7 5.7 16 5.7 10.3 10.3 5.7 16 5.7 21.7 5.7 26.3 10.3 26.3 16 26.3 21.7 21.7 26.3 16 26.3ZM16 7.7C11.4 7.7 7.7 11.4 7.7 16 7.7 20.6 11.4 24.3 16 24.3 20.6 24.3 24.3 20.6 24.3 16 24.3 11.4 20.6 7.7 16 7.7Z" fill="#7823DC"/></svg>