<svg viewBox="0 0 32 32" xmlns="http://www.w3.org/2000/svg" xmlns:xlink="http://www.w3.org/1999/xlink" id="Layer_1" overflow="hidden"><style>
.MsftOfcResponsive_Fill_7823dc {
 fill:#7823DC; 
}
</style>
<path d="M19 32 13 32 13 26 19 26 19 32ZM15 30 17 30 17 28 15 28 15 30Z" class="MsftOfcResponsive_Fill_7823dc" fill="#7823DC"/><rect x="6" y="4" width="2" height="2" class="MsftOfcResponsive_Fill_7823dc" fill="#7823DC"/><rect x="8" y="2" width="2" height="2" class="MsftOfcResponsive_Fill_7823dc" fill="#7823DC"/><rect x="10" y="0" width="12" height="2" class="MsftOfcResponsive_Fill_7823dc" fill="#7823DC"/><rect x="22" y="2" width="2" height="2" class="MsftOfcResponsive_Fill_7823dc" fill="#7823DC"/><rect x="24" y="4" width="2" height="2" class="MsftOfcResponsive_Fill_7823dc" fill="#7823DC"/><rect x="26" y="6" width="2" height="2" class="MsftOfcResponsive_Fill_7823dc" fill="#7823DC"/><rect x="28" y="8" width="2" height="2" class="MsftOfcResponsive_Fill_7823dc" fill="#7823DC"/><rect x="30" y="10" width="2" height="10" class="MsftOfcResponsive_Fill_7823dc" fill="#7823DC"/><rect x="0" y="10" width="2" height="10" class="MsftOfcResponsive_Fill_7823dc" fill="#7823DC"/><rect x="28" y="20" width="2" height="2" class="MsftOfcResponsive_Fill_7823dc" fill="#7823DC"/><rect x="26" y="18" width="2" height="2" class="MsftOfcResponsive_Fill_7823dc" fill="#7823DC"/><rect x="19" y="16" width="7" height="2" class="MsftOfcResponsive_Fill_7823dc" fill="#7823DC"/><rect x="17" y="18" width="2" height="2" class="MsftOfcResponsive_Fill_7823dc" fill="#7823DC"/><rect x="15" y="20" width="2" height="2" class="MsftOfcResponsive_Fill_7823dc" fill="#7823DC"/><rect x="13" y="18" width="2" height="2" class="MsftOfcResponsive_Fill_7823dc" fill="#7823DC"/><rect x="6" y="16" width="7" height="2" class="MsftOfcResponsive_Fill_7823dc" fill="#7823DC"/><rect x="4" y="18" width="2" height="2" class="MsftOfcResponsive_Fill_7823dc" fill="#7823DC"/><rect x="2" y="20" width="2" height="2" class="MsftOfcResponsive_Fill_7823dc" fill="#7823DC"/><rect x="2" y="8" width="2" height="2" class="MsftOfcResponsive_Fill_7823dc" fill="#7823DC"/><rect x="4" y="6" width="2" height="2" class="MsftOfcResponsive_Fill_7823dc" fill="#7823DC"/><path d="M14 14 8 14 8 8 14 8 14 14ZM10 12 12 12 12 10 10 10 10 12Z" class="MsftOfcResponsive_Fill_7823dc" fill="#7823DC"/><path d="M24 14 18 14 18 8 24 8 24 14ZM20 12 22 12 22 10 20 10 20 12Z" class="MsftOfcResponsive_Fill_7823dc" fill="#7823DC"/></svg>