<svg viewBox="0 0 32 32" xmlns="http://www.w3.org/2000/svg" xmlns:xlink="http://www.w3.org/1999/xlink" id="Layer_1" overflow="hidden"><style>
.MsftOfcResponsive_Fill_7823dc {
 fill:#7823DC; 
}
</style>
<defs></defs><path d="M26.91 17.71 24.23 4.8 26.07 4.8C27.4 4.8 28.47 3.72 28.47 2.4 28.47 1.08 27.39 8.88178e-16 26.07 8.88178e-16L4.62 8.88178e-16C3.29 8.88178e-16 2.22 1.08 2.22 2.4 2.22 3.51 2.98 4.44 4 4.71L4 19.67 1.71 19.67 0 21.96 0 29 3.01 29C3.53 30.73 5.11 32 7 32 8.89 32 10.48 30.73 10.99 29L20.9 29C21.42 30.73 23 32 24.89 32 26.78 32 28.37 30.73 28.88 29L32 29 32 24.39C32 21.2 29.84 18.52 26.91 17.71ZM24.82 17.47C24.15 17.49 23.5 17.61 22.89 17.82L20.68 15.47 21.71 14.44 20.3 13.03 17.05 16.28 18.46 17.69 19.26 16.89 21.03 18.77C19.54 19.85 18.49 21.5 18.21 23.4L16 23.4 16 19.61 10 19.61 10 4.81 22.19 4.81 24.82 17.47ZM4.62 2 26.07 2C26.29 2 26.47 2.19 26.47 2.4 26.47 2.61 26.28 2.8 26.07 2.8L4.62 2.8C4.4 2.8 4.22 2.61 4.22 2.4 4.22 2.19 4.41 2 4.62 2ZM6 4.81 8 4.81 8 16.42 6 16.42 6 4.81ZM7 30C5.8 30 4.82 29.02 4.82 27.82 4.82 26.62 5.8 25.64 7 25.64 8.2 25.64 9.18 26.62 9.18 27.82 9.18 29.02 8.2 30 7 30ZM14 27 11.1 27C10.72 25.08 9.03 23.63 7 23.63 4.97 23.63 3.28 25.08 2.9 27L2 27 2 22.63 2.71 21.68 6 21.68 6 18.43 8 18.43 8 21.61 14 21.61 14 27.01ZM24.89 30C23.69 30 22.71 29.02 22.71 27.82 22.71 26.62 23.69 25.64 24.89 25.64 26.09 25.64 27.07 26.62 27.07 27.82 27.07 29.02 26.09 30 24.89 30ZM30 27 28.99 27C28.61 25.08 26.92 23.63 24.89 23.63 22.86 23.63 21.17 25.08 20.79 27L16 27 16 25.39 20.13 25.39 20.13 24.39C20.13 21.67 22.34 19.46 25.06 19.46 27.78 19.46 29.99 21.67 29.99 24.39L29.99 27Z" class="MsftOfcResponsive_Fill_7823dc" fill="#7823DC"/></svg>