<svg viewBox="0 0 32 32" xmlns="http://www.w3.org/2000/svg" xmlns:xlink="http://www.w3.org/1999/xlink" id="Layer_1" overflow="hidden"><path d="M20.1 2 23.3 5.6 23.7 6.1 24.3 6.2 28.9 7.3 29.7 9.3 26.8 12.6 26.3 13.2 26.3 14 26.3 18.2 26.3 19 26.8 19.6 29.7 22.8 28.7 24.8 23 27.4 22.4 27.7 21.8 28.3 20 30 12.1 30 11.1 28.2 10.7 27.6 10 27.3 3.3 24.8 2.3 22.8 5.2 19.4 5.7 18.8 5.7 18 5.7 13.8 5.7 13 5.2 12.4 2.4 9.4 3.3 7.3 8 6.1 8.6 6 9 5.5 12.2 2 15.1 2 20.1 2M21 0 15.1 0 11.3 0 7.5 4.2 1.9 5.6 0 9.7 3.8 13.9 3.8 18.1 0 22.2 1.9 26.5 9.4 29.3 11 32 20.7 32 23.6 29.3 30.1 26.4 32 22.2 28.2 18 28.2 13.8 32 9.7 30.4 5.6 24.8 4.2 21 0 21 0Z" fill="#7823DC"/><rect x="15" y="2" width="2" height="2" fill="#7823DC"/><rect x="15" y="5" width="2" height="2" fill="#7823DC"/><rect x="15" y="8" width="2" height="2" fill="#7823DC"/><rect x="15" y="11" width="2" height="2" fill="#7823DC"/><rect x="15" y="14" width="2" height="2" fill="#7823DC"/><rect x="15" y="17" width="2" height="2" fill="#7823DC"/><rect x="15" y="20" width="2" height="2" fill="#7823DC"/><rect x="15" y="23" width="2" height="2" fill="#7823DC"/><rect x="15" y="26" width="2" height="2" fill="#7823DC"/><rect x="15" y="29" width="2" height="2" fill="#7823DC"/></svg>