<svg width="36.5" height="36.6" viewBox="0 0 36.5 36.6" xmlns="http://www.w3.org/2000/svg" xmlns:xlink="http://www.w3.org/1999/xlink" overflow="hidden"><defs></defs><g><g><defs><path d="M0 36.5 36.5 36.5 36.5 0 0 0 0 36.5Z" id="SVGID_1_" fill="#7823DC"/></defs><clipPath id="SVGID_2_"><use width="100%" height="100%" xlink:href="#SVGID_1_"></use></clipPath><g clip-path="url(#SVGID_2_)"><defs><path d="M0 36.5 36.5 36.5 36.5 0 0 0 0 36.5Z" id="SVGID_3_" fill="#7823DC"/></defs><clipPath id="SVGID_4_"><use width="100%" height="100%" xlink:href="#SVGID_3_"></use></clipPath><path d="M34.2 36.6 2.3 36.6 2.3 18.3 4.6 18.3 4.6 34.3 31.9 34.3 31.9 18.3 34.2 18.3Z" fill="#7823DC" clip-path="url(#SVGID_4_)"/><path d="M20.5 25.1 20.5 34.2 16 34.2 16 25.1 20.5 25.1M22.8 22.9 13.7 22.9 13.7 36.6 22.8 36.6 22.8 22.9 22.8 22.9 22.8 22.9Z" fill="#7823DC" clip-path="url(#SVGID_4_)"/><path d="M34.2 21.3 18.2 5.4 2.3 21.3 0.7 19.7 18.2 2.1 35.8 19.7Z" fill="#7823DC" clip-path="url(#SVGID_4_)"/><path d="M34.2 21.4 27.3 14.5 27.3 6.8 34.1 6.8 34.2 21.4ZM29.7 13.6 32 15.9 32 9.2 29.7 9.2 29.7 13.6Z" fill="#7823DC" clip-path="url(#SVGID_4_)"/></g></g></g></svg>