<svg viewBox="0 0 32 32" xmlns="http://www.w3.org/2000/svg" xmlns:xlink="http://www.w3.org/1999/xlink" id="Layer_1" xml:space="preserve" overflow="hidden"><style>
.MsftOfcResponsive_Fill_7823dc {
 fill:#7823DC; 
}
</style>
<path d="M26.7 2 26.7 2C27.3 2 27.9 2.2 28.3 2.7L29.3 3.7C29.7 4.1 30 4.7 30 5.4 30 6 29.8 6.6 29.3 7.1L25.6 10.9 21.3 6.7 25 2.8C25.5 2.3 26.1 2 26.7 2M26.7 0C25.6 0 24.4 0.4 23.6 1.3L18.5 6.5 25.7 13.6 30.8 8.4C32.5 6.7 32.5 3.9 30.7 2.2L29.7 1.2C28.9 0.4 27.8 0 26.7 0L26.7 0Z" class="MsftOfcResponsive_Fill_7823dc" fill="#7823DC"/><path d="M4.1 31.5C3.3 31.5 2.6 31.2 2 30.6 1.4 30.1 1.1 29.3 1.1 28.6 1.1 27.8 1.3 27.1 1.9 26.5L4.3 24.1 6.1 20.1C6.5 19.3 7 18.6 7.6 17.9L19.8 5.4 20.5 6.1 20.6 6 26.9 12.1 14.7 24.6C13.9 25.4 13.1 26 12.1 26.5L8.4 28.3 6 30.7C5.6 31.2 4.9 31.5 4.1 31.5ZM19.9 8.1 9 19.4C8.5 19.9 8.2 20.4 7.9 21L6 25.3 3.4 28C3.2 28.2 3.2 28.4 3.2 28.5 3.2 28.7 3.3 29 3.5 29.2 3.9 29.6 4.4 29.6 4.7 29.3L7.3 26.6 11.3 24.7C12.1 24.3 12.8 23.8 13.3 23.2L24.1 12.2 19.9 8.1Z" class="MsftOfcResponsive_Fill_7823dc" fill="#7823DC"/><rect x="21.7" y="2.2" width="2" height="14.2" class="MsftOfcResponsive_Fill_7823dc" fill="#7823DC" transform="matrix(0.7071 -0.7071 0.7071 0.7071 0.0628627 18.7786)"/></svg>