<svg viewBox="0 0 32 32" xmlns="http://www.w3.org/2000/svg" xmlns:xlink="http://www.w3.org/1999/xlink" xml:space="preserve" overflow="hidden"><style>
.MsftOfcResponsive_Fill_7823dc {
 fill:#7823DC; 
}
</style>
<g id="Layer_3"></g><g id="Layer_1"></g><g id="Layer_2"></g><g id="Layer_4"></g><g id="Layer_5"><g><path d="M15.4 27.58C15.23 27.58 15.13 27.58 15.1 27.57 4.89 27.31 1.54 17.64 0.45 11.91 0 9.55-0.06 7.88-0.06 7.81L-0.14 5.6 1.57 7C6.91 11.38 14.25 8.59 14.32 8.57 17.97 7.36 19.2 6.48 20.24 5.61 20.72 5.2 21.59 4.21 21.89 3.86 23.31 1.93 25.16 1.82 25.77 1.79 28.34 1.63 29.47 3.73 29.52 3.82L32.12 8.73 27.81 10.81C30.81 17.24 25.69 22.78 25.64 22.83 21.8 27.28 16.69 27.58 15.4 27.58ZM2.13 9.8C2.2 10.31 2.29 10.9 2.41 11.54 3.39 16.69 6.34 25.35 15.18 25.58 15.26 25.59 20.45 25.79 24.14 21.5 24.36 21.26 28.81 16.4 25.57 10.87L25.02 9.93 29.37 7.83 27.74 4.75C27.68 4.65 27.1 3.72 25.87 3.78 25.12 3.82 24.24 4.01 23.45 5.09 23.29 5.28 22.22 6.54 21.52 7.13 20.09 8.33 18.56 9.25 15 10.44 14.73 10.55 8.04 13.11 2.13 9.8Z" class="MsftOfcResponsive_Fill_7823dc" fill="#7823DC"/><path d="M7.29 14.89C6.46 14.89 2.21 14.78 0.61 12.48L2.25 11.34C3.16 12.64 6.28 12.89 7.36 12.9L7.38 14.9C7.36 14.89 7.33 14.89 7.29 14.89Z" class="MsftOfcResponsive_Fill_7823dc" fill="#7823DC"/><path d="M7.3 18.74C6.61 18.74 3.1 18.65 1.85 16.77L3.51 15.66C4.02 16.42 6.06 16.75 7.35 16.74L7.38 18.74C7.36 18.74 7.34 18.74 7.3 18.74Z" class="MsftOfcResponsive_Fill_7823dc" fill="#7823DC"/><path d="M24.74 15.96C24.42 15.96 24.11 15.92 23.79 15.85 22.23 15.49 21.21 14.3 20.73 13.59 19.49 13.53 18.47 13.11 17.7 12.34 16.19 10.83 16.27 8.54 16.27 8.44L18.27 8.52C18.27 8.54 18.23 10.05 19.12 10.93 19.61 11.42 20.32 11.63 21.25 11.59L21.9 11.56 22.19 12.14C22.2 12.15 22.95 13.6 24.26 13.9 25.08 14.08 26.02 13.78 27.05 12.98L28.27 14.56C27.07 15.49 25.89 15.96 24.74 15.96Z" class="MsftOfcResponsive_Fill_7823dc" fill="#7823DC"/><path d="M20.35 31.97 12.38 31.97 12.38 29.97 14.3 29.97 12.03 26.92 13.64 25.72 16.79 29.97 20.35 29.97Z" class="MsftOfcResponsive_Fill_7823dc" fill="#7823DC"/><rect x="20.8" y="2.46" width="2" height="2.35" class="MsftOfcResponsive_Fill_7823dc" fill="#7823DC" transform="matrix(0.4382 -0.8989 0.8989 0.4382 8.9803 21.6331)"/><rect x="22.84" y="0.3" width="2" height="2.89" class="MsftOfcResponsive_Fill_7823dc" fill="#7823DC" transform="matrix(0.796 -0.6053 0.6053 0.796 3.807 14.7829)"/><rect x="25.74" y="0" width="2" height="2.89" class="MsftOfcResponsive_Fill_7823dc" fill="#7823DC"/></g></g></svg>