<svg viewBox="0 0 32 31.99" xmlns="http://www.w3.org/2000/svg" xmlns:xlink="http://www.w3.org/1999/xlink" id="Layer_1" overflow="hidden"><style>
.MsftOfcResponsive_Fill_7823dc {
 fill:#7823DC; 
}
</style>
<defs></defs><path d="M10.57 5.46 7.57 5.46C5.99 5.46 4.61 4.08 4.61 2.5L4.61 1 6.61 1 6.61 2.5C6.61 2.98 7.09 3.46 7.57 3.46L10.57 3.46C11.06 3.46 11.53 2.98 11.53 2.5L11.53 1 13.53 1 13.53 2.5C13.53 4.08 12.15 5.46 10.57 5.46Z" class="MsftOfcResponsive_Fill_7823dc" stroke-width="0" fill="#7823DC"/><path d="M14.71 31.99 3.29 31.99C1.48 31.99 0 30.51 0 28.68L0 3.31C0 1.48 1.47 0 3.29 0L14.72 0C16.53 0 18.01 1.48 18.01 3.31L18.01 5.62 16.01 5.62 16.01 3.31C16.01 2.59 15.43 2 14.72 2L3.29 2C2.58 2 2 2.59 2 3.31L2 28.69C2 29.41 2.58 30 3.29 30L14.72 30C15.43 30 16.01 29.41 16.01 28.69L16.01 26.38 18.01 26.38 18.01 28.69C18.01 30.51 16.54 32 14.72 32Z" class="MsftOfcResponsive_Fill_7823dc" stroke-width="0" fill="#7823DC"/><rect x="5.61" y="23.99" width="6.92" height="2" class="MsftOfcResponsive_Fill_7823dc" stroke-width="0" fill="#7823DC"/><path d="M22.5 25.49C17.26 25.49 13 21.23 13 15.99 13 10.75 17.26 6.49 22.5 6.49 27.74 6.49 32 10.75 32 15.99 32 21.23 27.74 25.49 22.5 25.49ZM22.5 8.49C18.36 8.49 15 11.85 15 15.99 15 20.13 18.36 23.49 22.5 23.49 26.64 23.49 30 20.13 30 15.99 30 11.85 26.64 8.49 22.5 8.49Z" class="MsftOfcResponsive_Fill_7823dc" stroke-width="0" fill="#7823DC"/><path d="M21.5 17.39 21.5 10.32 23.5 10.32 23.5 14.59 27.13 13.34 27.78 15.23 21.5 17.39Z" class="MsftOfcResponsive_Fill_7823dc" stroke-width="0" fill="#7823DC"/></svg>