<svg viewBox="0 0 32 32" xmlns="http://www.w3.org/2000/svg" xmlns:xlink="http://www.w3.org/1999/xlink" xml:space="preserve" overflow="hidden"><g id="Graphic"><g><defs><path d="" id="SVGID_1_" fill="#7823DC"/></defs><defs><line x1="-1" y1="-1" x2="-1" y2="-1" id="SVGID_00000119800564967049675930000012681505586946856871_"/></defs><clipPath id="SVGID_00000121992107516763474700000000413126796801784510_"><use width="100%" height="100%" xlink:href="#SVGID_1_" overflow="visible"></use></clipPath><clipPath id="SVGID_00000073713445453362630750000010105821126979731373_" clip-path="url(#SVGID_00000121992107516763474700000000413126796801784510_)"><use width="100%" height="100%" xlink:href="#SVGID_00000119800564967049675930000012681505586946856871_" overflow="visible"></use></clipPath><g clip-path="url(#SVGID_00000073713445453362630750000010105821126979731373_)"><defs><path d="" id="SVGID_00000003809085362766642650000011991189068509023920_" fill="#7823DC"/></defs><clipPath id="SVGID_00000125603291080459343490000003041900235843344039_"><use width="100%" height="100%" xlink:href="#SVGID_00000003809085362766642650000011991189068509023920_" overflow="visible"></use></clipPath></g></g><g><path d="M16 9.9C19.4 9.9 22.1 12.6 22.1 16 22.1 19.4 19.4 22.1 16 22.1 12.6 22.1 9.9 19.4 9.9 16 9.9 12.6 12.6 9.9 16 9.9M16 7.9C11.5 7.9 7.9 11.5 7.9 16 7.9 20.5 11.5 24.1 16 24.1 20.5 24.1 24.1 20.5 24.1 16 24.1 11.5 20.5 7.9 16 7.9L16 7.9 16 7.9 16 7.9Z" fill="#7823DC" fill-rule="evenodd" clip-rule="evenodd"/><path d="M9 15.6 8.9 13.9 11.3 13.8 13.1 11.4 14.2 11.4 14.4 8.9 16 9 15.7 13 13.9 13.1 12.2 15.5 9 15.6 9 15.6Z" fill="#7823DC" fill-rule="evenodd" clip-rule="evenodd"/><path d="M8.9 15.8 8.8 13.9 11.3 13.7 13.1 11.3 14.1 11.3 14.3 8.8 16.2 9 15.8 13.2 14 13.2 12.2 15.6 12.1 15.6 8.9 15.8 8.9 15.8 8.9 15.8ZM9 14 9.1 15.4 12.1 15.2 13.9 12.8 15.6 12.7 15.9 9 14.5 9 14.3 11.5 13.2 11.5 11.4 13.9 9 14 9 14 9 14Z" fill="#7823DC" fill-rule="evenodd" clip-rule="evenodd"/><path d="M13.7 23.1 12.7 21.7 14.7 20.4 15.5 15.3 18.7 15.2 20.7 15.6 22.8 13.8 23.9 15 21.2 17.3 18.5 16.9 16.9 17 16.3 21.4 13.7 23.1 13.7 23.1Z" fill="#7823DC" fill-rule="evenodd" clip-rule="evenodd"/><path d="M13.7 23.3 12.5 21.7 14.6 20.3 15.4 15.2 18.7 15.1 20.7 15.4 22.9 13.6 24 15.2 21.4 17.5 18.5 17 17 17.1 16.4 21.4 13.7 23.3 13.7 23.3 13.7 23.3ZM12.9 21.7 13.8 22.9 16.3 21.2 16.9 16.8 18.6 16.7 21.3 17.1 23.9 14.9 22.8 14 20.7 15.7 18.6 15.4 15.5 15.5 14.7 20.5 14.7 20.5 12.9 21.7 12.9 21.7 12.9 21.7Z" fill="#7823DC" fill-rule="evenodd" clip-rule="evenodd"/><g><path d="M17 4.3 18.9 2.4 18.9 5.2 16 8 13.1 5.2 13.1 2.5 15 4.3" fill="#7823DC" fill-rule="evenodd" clip-rule="evenodd"/><path d="M15 4.6 17 4.6 17 0 15 0 15 4.6Z" fill="#7823DC" fill-rule="evenodd" clip-rule="evenodd"/></g><g><path d="M15 27.7 13.1 29.6 13.1 26.8 16 24 18.9 26.8 18.9 29.5 17 27.7" fill="#7823DC" fill-rule="evenodd" clip-rule="evenodd"/><path d="M15 32 17 32 17 27.4 15 27.4 15 32Z" fill="#7823DC" fill-rule="evenodd" clip-rule="evenodd"/></g><g><path d="M27.7 17 29.6 18.9 26.8 18.9 24 16 26.8 13.1 29.5 13.1 27.7 15" fill="#7823DC" fill-rule="evenodd" clip-rule="evenodd"/><path d="M32 15 27.4 15 27.4 17 32 17 32 15Z" fill="#7823DC" fill-rule="evenodd" clip-rule="evenodd"/></g><g><path d="M4.3 15 2.4 13.1 5.2 13.1 8 16 5.2 18.9 2.5 18.9 4.3 17" fill="#7823DC" fill-rule="evenodd" clip-rule="evenodd"/><path d="M4.6 15 0 15 0 17 4.6 17 4.6 15Z" fill="#7823DC" fill-rule="evenodd" clip-rule="evenodd"/></g><g><path d="M23.5 6.9 23.6 4.3 21.7 6.2 21.7 10.2 25.7 10.2 27.6 8.4 25 8.4" fill="#7823DC" fill-rule="evenodd" clip-rule="evenodd"/><path d="M24.8 8.5 23.4 7.1 26.6 3.9 28.1 5.4 24.8 8.5 24.8 8.5Z" fill="#7823DC" fill-rule="evenodd" clip-rule="evenodd"/></g><g><path d="M8.5 25 8.4 27.7 10.3 25.7 10.3 21.7 6.3 21.7 4.4 23.5 7 23.5" fill="#7823DC" fill-rule="evenodd" clip-rule="evenodd"/><path d="M7.2 23.4 8.6 24.8 5.4 28.1 3.9 26.6 7.2 23.4 7.2 23.4Z" fill="#7823DC" fill-rule="evenodd" clip-rule="evenodd"/></g><g><path d="M8.4 6.9 8.3 4.3 10.2 6.2 10.2 10.2 6.2 10.2 4.3 8.4 6.9 8.4" fill="#7823DC" fill-rule="evenodd" clip-rule="evenodd"/><path d="M7.1 8.5 8.5 7.1 5.3 3.9 3.8 5.4 7.1 8.5 7.1 8.5Z" fill="#7823DC" fill-rule="evenodd" clip-rule="evenodd"/></g><g><path d="M23.5 25 23.6 27.7 21.7 25.7 21.7 21.8 25.7 21.8 27.6 23.5 25 23.5" fill="#7823DC" fill-rule="evenodd" clip-rule="evenodd"/><path d="M24.8 23.4 23.5 24.8 26.6 28.2 28.1 26.7 24.8 23.4 24.8 23.4Z" fill="#7823DC" fill-rule="evenodd" clip-rule="evenodd"/></g></g></g><g id="Layer_2" display="none"><g><path d="M15 3C14.9 3 14.7 3 14.6 3 14.4 3 14.2 3 14.1 3 13.4 3 12.7 3.1 12.1 3.2L12.7 3.8 13.8 5C14 5 14.3 5 14.6 5 15.6 5 16.7 5.1 17.7 5.4 21.2 6.3 24.1 8.6 25.7 11.7L28.8 14.8 28.8 14.4C27.4 8 21.8 3.2 15 3ZM25.9 22.9 25.9 22.9C24.3 26.2 21.3 28.7 17.6 29.6 16.6 29.8 15.6 30 14.6 30 13.5 30 12.5 29.9 11.5 29.6 6.4 28.3 2.6 23.9 2.1 18.5 2.1 18.2 2.1 17.8 2.1 17.5 2.1 17.2 2.1 16.8 2.1 16.5 2.4 12.2 5 8.5 8.6 6.5L7.1 5.1C2.9 7.6 0 12.3 0 17.5 0 25.5 6.5 32 14.5 32 20.6 32 25.8 28.2 28 22.9L25.9 22.9Z" fill="#7823DC"/><path d="M21.4 18.5 0.3 18.5 0.3 16.5 23.7 16.5 25.3 18.5" fill="#7823DC"/></g><path d="M18.1 16.5C18.1 16.8 18.1 17.1 18.1 17.5 18.1 17.8 18.1 18.2 18.1 18.5 17.9 26 15.4 29.9 14.6 29.9 13.8 29.9 11.2 26 11 18.5 11 18.2 11 17.8 11 17.5 11 17.2 11 16.8 11 16.5 11.1 13.8 11.4 11.6 11.9 9.9L10.2 8.2C9.5 10.5 9 13.3 9 16.5 9 16.8 9 17.1 9 17.5 9 17.8 9 18.2 9 18.5 9.1 23.2 10.1 27.2 11.5 29.6 12.4 31.1 13.4 32 14.6 32 15.8 32 16.8 31.1 17.7 29.6 19.1 27.2 20.1 23.1 20.2 18.5 20.2 18.2 20.2 17.8 20.2 17.5 20.2 17.2 20.2 16.8 20.2 16.5M19.6 16.5 18.5 16.5M17.6 5.4C16.9 4.1 16 4.2 15 4 14.8 4 14.7 4 14.5 4 14.3 4 14.2 4 14 4 13.5 4.1 13 3.4 12.6 3.8L13.8 5 14 5.2C14.2 5.1 14.4 5 14.5 5 14.9 5 15.7 5.9 16.4 7.6L19 10.2M18.1 16.5C18.1 16.8 18.1 17.1 18.1 17.5 18.1 17.8 18.1 18.2 18.1 18.5L20.2 18.5C20.2 18.2 20.2 17.8 20.2 17.5 20.2 17.2 20.2 16.8 20.2 16.5L19.7 16.5 19 17.1 18.4 16.5" fill="#7823DC"/><path d="M65.9 19.4 65.9 13.9 64.1 12.1 64.1 16.3 55.5 7.9 52.9 10.4 42.6 0 40.1 0 52.9 12.9 55.5 10.4 62.8 17.6 58.5 17.6 60.3 19.4Z" fill="#7823DC"/><g><path d="M32.1 21.4 32.1 15.9 30.2 14.1 30.2 18.3 21.6 9.9 19 12.4 8.7 2 6.2 2 19 14.9 21.6 12.4 29 19.6 24.7 19.6 26.5 21.4Z" fill="#7823DC"/><line x1="18.5" y1="16.5" x2="19.6" y2="16.5" fill="#FFFFFF"/></g></g></svg>