<svg viewBox="0 0 32 32" xmlns="http://www.w3.org/2000/svg" xmlns:xlink="http://www.w3.org/1999/xlink" id="Layer_1" xml:space="preserve" overflow="hidden"><g><path d="M5.6 12C5 13.4 4.6 14.9 4.6 16.6 4.6 17.3 4.7 17.8 4.8 18.4L3.2 20.2C2.9 19.1 2.7 18 2.7 16.7 2.7 14.7 3.3 12.8 4.2 11" fill="#7823DC" fill-rule="evenodd" clip-rule="evenodd"/><path d="M16.7 28.5C16.3 28.5 16 28.4 15.6 28.4L19.1 31.9 16.4 31.9 11.6 27.2 16.4 22.5 19.1 22.5 15.1 26.4C15.7 26.5 16.2 26.5 16.7 26.5 22.6 26.5 27.4 21.8 27.4 16 27.4 11.4 24.3 7.3 20 6L20 4.1C25.3 5.5 29.3 10.3 29.3 16.1 29.3 22.9 23.7 28.6 16.7 28.5Z" fill="#7823DC" fill-rule="evenodd" clip-rule="evenodd"/></g><path d="M13.1 13 11.4 11.5 9.7 13 6.7 11.2 7.2 9 5 8.3 5 4.7 7.2 4 6.7 1.8 9.7 0 11.4 1.5 13.1 0 16.2 1.8 15.8 4 18 4.6 18 8.2 15.8 8.9 15.8 8.9 16.3 11.2 13.1 13 13.1 13 13.1 13ZM12.1 9.3 13.4 10.4 13.9 10.1 13.5 8.5 13.8 8.1C13.9 7.9 14 7.8 14 7.7L14.2 7.2 15.8 6.7 15.8 6.1 14.4 5.6 14.2 5.4C14.1 5.3 14 5.1 14 5L14.9 4.5 14 5 13.5 4.4 13.9 2.8 13.4 2.5 12.1 3.6 11.6 3.6C11.4 3.6 11.2 3.6 11.1 3.6L10.6 3.6 9.5 2.5 9.1 2.8 9.5 4.4 9.2 4.8C9.1 4.9 9 5 8.9 5.2L8.7 5.7 7.2 6.2 7.2 6.7 8.7 7.2 9.2 8.1 9.5 8.5 9.1 10.1 9.6 10.4 10.9 9.3 11.4 9.3C11.6 9.3 11.8 9.3 11.9 9.3L12.1 9.3 12.1 9.3 12.1 9.3Z" fill="#7823DC" fill-rule="evenodd" clip-rule="evenodd"/><circle cx="11.5" cy="6.5" r="1" fill="#7823DC" fill-rule="evenodd" clip-rule="evenodd"/></svg>