<svg viewBox="0 0 32 32" xmlns="http://www.w3.org/2000/svg" xmlns:xlink="http://www.w3.org/1999/xlink" id="Graphic" overflow="hidden"><defs></defs><path d="M20.01 22.97 18.01 22.97 18.01 24.97 20.01 24.97 20.01 22.97 20.01 22.97Z" fill="#7823DC"/><path d="M24.01 22.97 22.01 22.97 22.01 24.97 24.01 24.97 24.01 22.97 24.01 22.97Z" fill="#7823DC"/><path d="M28.01 22.97 26.01 22.97 26.01 24.97 28.01 24.97 28.01 22.97 28.01 22.97Z" fill="#7823DC"/><path d="M26 3 26 17 28 17 30 18.88 30 29 10 29 10 17 24 17 24 3 26 3M28 1 22 1 22 15 8 15 8 31 32 31 32 18 31.38 17.41 29.38 15.53 28.81 15 28 15 28 1Z" fill="#7823DC"/><path d="M8 27 8 29 2 29 2 27 8 27M10 25 0 25 0 31 10 31 10 25Z" fill="#7823DC"/><path d="M14.17 5 15.05 15.55 17.05 15.78 16 3 4 3 2 27 8.7 27 8.86 25 4.18 25 5.85 5 14.17 5" fill="#7823DC"/><path d="M18.17 7 18.88 15.54 20.88 15.65 20 5 15.3 5 15.53 7 18.16 7" fill="#7823DC"/></svg>