<svg width="26.6" height="30.3" viewBox="0 0 26.6 30.3" xmlns="http://www.w3.org/2000/svg" xmlns:xlink="http://www.w3.org/1999/xlink" overflow="hidden"><style>
.MsftOfcResponsive_Fill_7823dc {
 fill:#7823DC; 
}
</style>
<defs></defs><path d="M26.6 13.3C26.6 6 20.7 0 13.3 0 5.9 0 0 6 0 13.3 0 14.6 0.2 15.9 0.6 17.1L2.2 15.2C2.1 14.6 2 14 2 13.3 2 7.1 7.1 2 13.3 2 19.5 2 24.6 7.1 24.6 13.3 24.6 19.5 19.5 24.6 13.3 24.6 12.7 24.6 12.2 24.5 11.7 24.5L15.8 20.3 13 20.3 8 25.3 13 30.3 15.8 30.3 12 26.5C12.4 26.5 12.8 26.6 13.2 26.6 20.7 26.6 26.6 20.7 26.6 13.3Z" class="MsftOfcResponsive_Fill_7823dc" fill="#7823DC"/></svg>