<svg viewBox="0 0 32 32" xmlns="http://www.w3.org/2000/svg" xmlns:xlink="http://www.w3.org/1999/xlink" id="Layer_1" overflow="hidden"><path d="M16 21.9C12.7 21.9 10 19.2 10 15.9 10 12.6 12.7 9.9 16 9.9 19.3 9.9 22 12.6 22 15.9 22 19.3 19.3 21.9 16 21.9L16 21.9ZM16 12C13.8 12 12 13.8 12 16 12 18.2 13.8 20 16 20 18.2 20 20 18.2 20 16 20 13.8 18.3 12 16 12L16 12Z" fill="#7823DC" fill-rule="evenodd" clip-rule="evenodd"/><path d="M32 12.5C28.4 7.3 22.4 4.2 16 4.1 9.5 4.1 3.6 7.3 0 12.5L0 16C4.3 7.2 15 3.6 23.8 7.8 27.4 9.5 30.3 12.4 32 16L32 12.5 32 12.5 32 12.5Z" fill="#7823DC" fill-rule="evenodd" clip-rule="evenodd"/><path d="M0.1 19.5C3.7 24.7 9.7 27.8 16.1 27.9 22.5 27.8 28.5 24.7 32.1 19.5L32.1 16C27.8 24.8 17.1 28.4 8.3 24.2 4.6 22.4 1.8 19.6 0 16L0.1 19.5 0.1 19.5 0.1 19.5Z" fill="#7823DC" fill-rule="evenodd" clip-rule="evenodd"/><path d="M0 7 2 7 2 2 7 2 7 0 0 0Z" fill="#7823DC"/><path d="M32 7 30 7 30 2 25 2 25 0 32 0Z" fill="#7823DC"/><path d="M0 25 2 25 2 30 7 30 7 32 0 32Z" fill="#7823DC"/><path d="M32 25 30 25 30 30 25 30 25 32 32 32Z" fill="#7823DC"/></svg>