<svg viewBox="0 0 32 32" xmlns="http://www.w3.org/2000/svg" xmlns:xlink="http://www.w3.org/1999/xlink" xml:space="preserve" overflow="hidden"><style>
.MsftOfcResponsive_Fill_7823dc {
 fill:#7823DC; 
}
</style>
<g id="Layer_3"></g><g id="Layer_1"><path d="M26.53 28.93 25.61 28.49C16.11 23.91 6.45 28.25 6.36 28.29L5.45 28.71 0.01 16.92 0.6 16.43C0.74 16.31 14.86 4.86 31.33 16.38L32.01 16.86 26.53 28.93ZM16.08 24.36C18.98 24.36 22.24 24.84 25.54 26.26L29.5 17.55C16.43 8.91 5.18 15.64 2.49 17.52L6.44 26.09C8.07 25.48 11.65 24.36 16.08 24.36Z" class="st1 MsftOfcResponsive_Fill_7823dc" fill="#7823DC"/><path d="M26.39 14.32 24.57 13.49 26.16 9.99C16.66 3.83 8.49 8.43 6.24 9.96L7.76 13.25 5.94 14.09 3.76 9.36 4.35 8.87C4.46 8.78 15.33-0.04 27.99 8.82L28.67 9.3 26.39 14.32Z" class="st1 MsftOfcResponsive_Fill_7823dc" fill="#7823DC"/><path d="M17.46 23.54 17.46 20.53 20.47 20.53 20.47 17.54 17.48 17.53 17.47 14.53 14.47 14.54 14.47 17.53 11.47 17.53 11.47 20.53 14.44 20.54 14.47 23.54Z" class="st1 MsftOfcResponsive_Fill_7823dc" fill="#7823DC"/></g><g id="Layer_2"></g></svg>