<svg viewBox="0 0 32 32" xmlns="http://www.w3.org/2000/svg" xmlns:xlink="http://www.w3.org/1999/xlink" id="Layer_1" overflow="hidden"><style>
.MsftOfcResponsive_Fill_7823dc {
 fill:#7823DC; 
}
</style>
<path d="M28.5 2.3 29.8 10.1 7.3 13.7 6.1 5.9 28.5 2.3M30.1 0 3.8 4.3 5.7 16 32 11.7 30.1 0 30.1 0Z" class="MsftOfcResponsive_Fill_7823dc" fill="#7823DC"/><path d="M4.6 7.4 5.4 12.5 3.1 12.9 2.3 7.8 4.6 7.4M6.2 5.2C6.2 5.2 6.1 5.2 6.2 5.2L0.1 6.2C0 6.2 0 6.2 0 6.3L1.4 15.1C1.4 15.2 1.5 15.2 1.5 15.2 1.5 15.2 1.5 15.2 1.5 15.2L7.5 14.2C7.6 14.2 7.6 14.1 7.6 14.1L6.3 5.3C6.3 5.2 6.2 5.2 6.2 5.2L6.2 5.2Z" class="MsftOfcResponsive_Fill_7823dc" fill="#7823DC"/><path d="M32 22 23.2 22 17.3 13.5 18.9 12.4 24.2 20 32 20Z" class="MsftOfcResponsive_Fill_7823dc" fill="#7823DC"/><rect x="30" y="15" width="2" height="12" class="MsftOfcResponsive_Fill_7823dc" fill="#7823DC"/><path d="M23.7 23C22.4 23 21.3 21.9 21.3 20.6 21.3 19.3 22.4 18.2 23.7 18.2 25 18.2 26.1 19.3 26.1 20.6 26.1 21.9 25 23 23.7 23ZM23.7 20.2C23.5 20.2 23.3 20.4 23.3 20.6 23.3 20.8 23.5 21 23.7 21 23.9 21 24.1 20.8 24.1 20.6 24.1 20.4 23.9 20.2 23.7 20.2Z" class="MsftOfcResponsive_Fill_7823dc" fill="#7823DC"/></svg>