<svg width="36.5" height="36.6" viewBox="0 0 36.5 36.6" xmlns="http://www.w3.org/2000/svg" xmlns:xlink="http://www.w3.org/1999/xlink" overflow="hidden"><defs></defs><g><g><defs><path d="M0 36.5 36.5 36.5 36.5 0 0 0 0 36.5Z" id="SVGID_1_" fill="#7823DC"/></defs><clipPath id="SVGID_2_"><use width="100%" height="100%" xlink:href="#SVGID_1_"></use></clipPath><g clip-path="url(#SVGID_2_)"><defs><path d="M0 36.5 36.5 36.5 36.5 0 0 0 0 36.5Z" id="SVGID_3_" fill="#7823DC"/></defs><clipPath id="SVGID_4_"><use width="100%" height="100%" xlink:href="#SVGID_3_"></use></clipPath><path d="M4.6 16 4.6 11.4 2.3 13.7 2.3 16 4.6 16 4.6 16ZM13.7 16 13.7 13.7 11.4 11.4 11.4 16 13.7 16 13.7 16Z" fill="#7823DC" clip-path="url(#SVGID_4_)"/><path d="M9.1 9.1 6.8 9.1 4.5 11.4 11.4 11.4 9.1 9.1 9.1 9.1Z" fill="#7823DC" clip-path="url(#SVGID_4_)"/><path d="M0 32 31.2 32 33 32 36.5 32 36.5 32 36.5 32 33.9 29.7 33 29.7 31.2 29.7 5.3 29.7 2.6 29.7 0 32 0 32 0 32 0 32Z" fill="#7823DC" clip-path="url(#SVGID_4_)"/><path d="M36.5 34.3 5.3 34.3 3.5 34.3 0 34.3 0 34.3 0 34.3 2.6 36.6 3.5 36.6 5.3 36.6 31.2 36.6 33.9 36.6 36.5 34.3 36.5 34.3 36.5 34.3 36.5 34.3Z" fill="#7823DC" clip-path="url(#SVGID_4_)"/><path d="M11.4 20.6 4.6 20.6 4.6 13.7 11.4 13.7 11.4 20.6ZM6.8 18.3 9.1 18.3 9.1 16 6.8 16 6.8 18.3Z" fill="#7823DC" clip-path="url(#SVGID_4_)"/><path d="M31.9 29.7 25.1 29.7 25.1 22.8 31.9 22.8 31.9 29.7ZM27.4 27.4 29.7 27.4 29.7 25.1 27.4 25.1 27.4 27.4Z" fill="#7823DC" clip-path="url(#SVGID_4_)"/><path d="M20.5 29.8 13.7 29.8 13.7 22.9 20.5 22.9 20.5 29.8ZM16 27.5 18.3 27.5 18.3 25.2 16 25.2 16 27.5Z" fill="#7823DC" clip-path="url(#SVGID_4_)"/><path d="M6.8 0 9.1 0 9.1 9.2 6.8 9.2 6.8 0Z" fill="#7823DC" clip-path="url(#SVGID_4_)"/><path d="M10.3 33.1C10.3 33.7 9.8 34.2 9.2 34.2 8.6 34.2 8.1 33.7 8.1 33.1 8 32.5 8.5 32 9.1 32 9.8 32 10.3 32.5 10.3 33.1L10.3 33.1Z" fill="#7823DC" clip-path="url(#SVGID_4_)"/><path d="M14.8 33.1C14.8 33.7 14.3 34.2 13.7 34.2 13.1 34.2 12.6 33.7 12.6 33.1 12.6 32.5 13.1 32 13.7 32 14.3 32 14.8 32.5 14.8 33.1L14.8 33.1Z" fill="#7823DC" clip-path="url(#SVGID_4_)"/><path d="M5.7 33.1C5.7 33.7 5.2 34.2 4.6 34.2 4 34.2 3.5 33.7 3.5 33.1 3.5 32.5 4 32 4.6 32 5.2 32 5.7 32.5 5.7 33.1L5.7 33.1Z" fill="#7823DC" clip-path="url(#SVGID_4_)"/><path d="M19.4 33.1C19.4 33.7 18.9 34.2 18.3 34.2 17.7 34.2 17.2 33.7 17.2 33.1 17.2 32.5 17.7 32 18.3 32 18.9 32 19.4 32.5 19.4 33.1L19.4 33.1Z" fill="#7823DC" clip-path="url(#SVGID_4_)"/><path d="M23.9 33.1C23.9 33.7 23.4 34.2 22.8 34.2 22.2 34.2 21.7 33.7 21.7 33.1 21.7 32.5 22.2 32 22.8 32 23.4 32 23.9 32.5 23.9 33.1L23.9 33.1Z" fill="#7823DC" clip-path="url(#SVGID_4_)"/><path d="M28.5 33.1C28.5 33.7 28 34.2 27.4 34.2 26.8 34.2 26.3 33.7 26.3 33.1 26.3 32.5 26.8 32 27.4 32 28 32 28.5 32.5 28.5 33.1L28.5 33.1Z" fill="#7823DC" clip-path="url(#SVGID_4_)"/><path d="M33.1 33.1C33.1 33.7 32.6 34.2 32 34.2 31.4 34.2 30.9 33.7 30.9 33.1 30.9 32.5 31.4 32 32 32 32.5 32 33.1 32.5 33.1 33.1L33.1 33.1Z" fill="#7823DC" clip-path="url(#SVGID_4_)"/></g></g></g></svg>