<svg width="36.5" height="36.6" viewBox="0 0 36.5 36.6" xmlns="http://www.w3.org/2000/svg" xmlns:xlink="http://www.w3.org/1999/xlink" overflow="hidden"><defs></defs><g><g><defs><path d="M0 36.6 36.5 36.6 36.5 0 0 0 0 36.6Z" id="SVGID_1_" fill="#7823DC"/></defs><clipPath id="SVGID_2_"><use width="100%" height="100%" xlink:href="#SVGID_1_"></use></clipPath><g clip-path="url(#SVGID_2_)"><defs><path d="M0 36.6 36.5 36.6 36.5 0 0 0 0 36.6Z" id="SVGID_3_" fill="#7823DC"/></defs><clipPath id="SVGID_4_"><use width="100%" height="100%" xlink:href="#SVGID_3_"></use></clipPath><path d="M25.5 35 24.6 33C28.3 31.4 31.2 28.4 32.8 24.7 36.3 16.6 32.6 7.2 24.6 3.6 20.7 1.9 16.4 1.8 12.4 3.4 8.5 5 5.3 8 3.6 11.9 0.1 20 3.8 29.4 11.9 33L10.9 35C1.7 31-2.5 20.2 1.5 11 3.5 6.5 7 3.1 11.6 1.3 16.1-0.5 21.1-0.4 25.6 1.6 34.8 5.6 39 16.4 35 25.7 33.1 29.8 29.8 33.2 25.5 35Z" fill="#7823DC" clip-path="url(#SVGID_4_)"/><path d="M18.2 23.2C15.5 23.2 13.3 21 13.3 18.3 13.3 15.6 15.5 13.4 18.2 13.4 20.9 13.4 23.1 15.6 23.1 18.3 23.1 21 21 23.2 18.2 23.2ZM18.2 15.7C16.7 15.7 15.6 16.9 15.6 18.3 15.6 19.8 16.8 20.9 18.2 20.9 19.6 20.9 20.8 19.7 20.8 18.3 20.9 16.8 19.7 15.7 18.2 15.7Z" fill="#7823DC" clip-path="url(#SVGID_4_)"/><path d="M17.1 21 19.4 21 19.4 36.6 17.1 36.6 17.1 21Z" fill="#7823DC" clip-path="url(#SVGID_4_)"/><path d="M13.7 34.3 22.8 34.3 22.8 36.6 13.7 36.6 13.7 34.3Z" fill="#7823DC" clip-path="url(#SVGID_4_)"/><path d="M13.3 31.3C6.2 28.6 2.5 20.6 5.2 13.5 6.5 10 9.1 7.3 12.4 5.8 15.8 4.3 19.5 4.1 22.9 5.4 30.1 8 33.7 16 31.1 23.2 29.7 26.8 26.9 29.8 23.3 31.2L22.4 29C25.4 27.8 27.8 25.4 28.9 22.3 31.1 16.3 28.1 9.7 22.2 7.4 19.3 6.3 16.2 6.4 13.4 7.7 10.6 9 8.5 11.3 7.4 14.2 5.2 20.2 8.2 26.8 14.1 29.1L13.3 31.3Z" fill="#7823DC" clip-path="url(#SVGID_4_)"/></g></g></g></svg>