<svg viewBox="0 0 32 32" xmlns="http://www.w3.org/2000/svg" xmlns:xlink="http://www.w3.org/1999/xlink" xml:space="preserve" overflow="hidden"><style>
.MsftOfcResponsive_Fill_7823dc {
 fill:#7823DC; 
}
</style>
<g id="Layer_3"></g><g id="Layer_1"><path d="M26.61 25.93C26.58 25.93 26.56 25.93 26.55 25.93L15.79 25.93 15.79 23.64 26.58 23.64C26.61 23.64 27.93 23.65 28.8 22.71 29.51 21.95 29.8 20.74 29.67 19.11 29.65 18.76 29.04 11.08 19.02 11.08L12.83 11.08 12.83 8.8 19.02 8.8C31.25 8.8 31.95 18.86 31.95 18.96 32.14 21.25 31.63 23.06 30.44 24.31 28.98 25.86 26.98 25.93 26.61 25.93Z" class="MsftOfcResponsive_Fill_7823dc" fill="#7823DC"/><path d="M5.36 25.93C5.03 25.93 3.02 25.86 1.54 24.31 0.35 23.06-0.15 21.25 0.03 18.93 0.03 18.86 0.73 8.88 12.83 8.8L12.97 8.8 12.97 11.09 12.84 11.09C2.94 11.15 2.34 18.77 2.32 19.09 2.19 20.74 2.48 21.95 3.18 22.71 4.05 23.64 5.35 23.64 5.37 23.64L16.2 23.64 16.2 25.93 5.41 25.93C5.4 25.93 5.39 25.93 5.36 25.93Z" class="MsftOfcResponsive_Fill_7823dc" fill="#7823DC"/><rect x="10.29" y="9.91" width="2.29" height="6.89" class="MsftOfcResponsive_Fill_7823dc" fill="#7823DC"/><rect x="14.88" y="9.91" width="2.29" height="6.89" class="MsftOfcResponsive_Fill_7823dc" fill="#7823DC"/><rect x="19.46" y="9.91" width="2.29" height="6.89" class="MsftOfcResponsive_Fill_7823dc" fill="#7823DC"/></g><g id="Layer_2"></g></svg>