<svg viewBox="0 0 32 32" xmlns="http://www.w3.org/2000/svg" xmlns:xlink="http://www.w3.org/1999/xlink" overflow="hidden"><defs></defs><g id="Layer_3"><path d="M22.0005 32.0319 10.0005 32.0319 10.0005 26.0319 22.0005 26.0319ZM12.0005 30.0319 20.0005 30.0319 20.0005 28.0319 12.0005 28.0319Z" fill="#7823DC"/><path d="M28.0005 28.0319 4.00049 28.0319 4.00049 9.03193 28.0005 9.03193ZM6.00049 26.0319 26.0005 26.0319 26.0005 11.0319 6.00049 11.0319Z" fill="#7823DC"/><path d="M11.5005 20.0319C9.56749 20.0319 8.00049 18.4649 8.00049 16.5319 8.00049 14.5989 9.56749 13.0319 11.5005 13.0319 13.4335 13.0319 15.0005 14.5989 15.0005 16.5319 14.9982 18.464 13.4325 20.0296 11.5005 20.0319ZM11.5005 15.0319C10.6721 15.0319 10.0005 15.7035 10.0005 16.5319 10.0005 17.3604 10.6721 18.0319 11.5005 18.0319 12.3289 18.0319 13.0005 17.3604 13.0005 16.5319 12.9996 15.7039 12.3285 15.0328 11.5005 15.0319Z" fill="#7823DC"/><path d="M20.5005 20.0319C18.5675 20.0319 17.0005 18.4649 17.0005 16.5319 17.0005 14.5989 18.5675 13.0319 20.5005 13.0319 22.4335 13.0319 24.0005 14.5989 24.0005 16.5319 23.9982 18.464 22.4325 20.0296 20.5005 20.0319ZM20.5005 15.0319C19.6721 15.0319 19.0005 15.7035 19.0005 16.5319 19.0005 17.3604 19.6721 18.0319 20.5005 18.0319 21.3289 18.0319 22.0005 17.3604 22.0005 16.5319 21.9996 15.7039 21.3285 15.0328 20.5005 15.0319Z" fill="#7823DC"/><rect x="12.0005" y="22.0319" width="8" height="2" fill="#7823DC"/><path d="M32.0005 23.0319 26.0005 23.0319 26.0005 14.0319 32.0005 14.0319ZM28.0005 21.0319 30.0005 21.0319 30.0005 16.0319 28.0005 16.0319Z" fill="#7823DC"/><path d="M6.00049 23.0319 0.00049 23.0319 0.00049 14.0319 6.00049 14.0319ZM2.00049 21.0319 4.00049 21.0319 4.00049 16.0319 2.00049 16.0319Z" fill="#7823DC"/><rect x="15.0005" y="6.03193" width="2" height="4" fill="#7823DC"/><path d="M16.0005 7.03193C14.0675 7.03193 12.5005 5.46493 12.5005 3.53193 12.5005 1.59893 14.0675 0.03193 16.0005 0.03193 17.9335 0.03193 19.5005 1.59893 19.5005 3.53193 19.4982 5.46396 17.9325 7.02959 16.0005 7.03193ZM16.0005 2.03193C15.1721 2.03193 14.5005 2.7035 14.5005 3.53193 14.5005 4.36036 15.1721 5.03193 16.0005 5.03193 16.8289 5.03193 17.5005 4.36036 17.5005 3.53193 17.4996 2.70388 16.8285 2.03283 16.0005 2.03193Z" fill="#7823DC"/></g></svg>