<svg viewBox="0 0 32 32" xmlns="http://www.w3.org/2000/svg" xmlns:xlink="http://www.w3.org/1999/xlink" id="Graphic" xml:space="preserve" overflow="hidden"><g><path d="M27.9 13.6C27.9 13.6 29.9 14.6 30 17.7L30 30 27.8 30 26.9 21.8C20.5 25.6 18.7 30 18.7 30L2.1 30C2.1 30 2 28.6 3 27 3.4 26.4 4 25.8 4.9 25.2L10.5 21.8C10.5 21.8 12.3 22.2 14.2 22.2 15.6 22.2 17 22 17.7 21.3L27.9 13.6M27.7 11.3 26.7 12 16.4 19.7 16.3 19.8 16.2 19.9C16.1 20 15.5 20.3 14 20.3 12.4 20.3 10.8 20 10.7 20L9.9 19.8 9.2 20.2 3.6 23.6 3.6 23.6 3.6 23.6C2.6 24.3 1.8 25.1 1.2 26-0.2 28.1-0.1 30.1-0.1 30.3L0.3 32 2.1 32 18.7 32 20 32 20.5 30.8C20.5 30.8 21.7 28.1 25.2 25.3L25.8 30.2 26 32 27.8 32 30 32 32 32 32 30 32 17.7C32 14.3 30 12.4 28.8 11.8L27.7 11.3 27.7 11.3Z" fill="#7823DC"/></g></svg>