<svg viewBox="0 0 32 32" xmlns="http://www.w3.org/2000/svg" xmlns:xlink="http://www.w3.org/1999/xlink" xml:space="preserve" overflow="hidden"><style>
.MsftOfcResponsive_Fill_7823dc {
 fill:#7823DC; 
}
</style>
<g id="Layer_3"></g><g id="Layer_1"></g><g id="Layer_2"></g><g id="Layer_4"></g><g id="Layer_5"><g><path d="M16.08 7.21 10.96 3.82 16.08 1.1 21.01 3.81 16.08 7.21ZM14.86 4 16.05 4.79 17.21 4 16.06 3.37 14.86 4Z" class="MsftOfcResponsive_Fill_7823dc" fill="#7823DC"/><path d="M16.05 12.54 10.96 9.58 10.96 3.81 12.96 3.81 12.96 8.43 16.04 10.22 19.04 8.44 19.04 3.81 21.04 3.81 21.04 9.57Z" class="MsftOfcResponsive_Fill_7823dc" fill="#7823DC"/><rect x="15.07" y="6.44" width="2" height="4.94" class="MsftOfcResponsive_Fill_7823dc" fill="#7823DC"/></g><g><path d="M7.36 16.39 2.24 13 7.36 10.28 12.29 12.99 7.36 16.39ZM6.14 13.19 7.33 13.98 8.48 13.18 7.33 12.55 6.14 13.19Z" class="MsftOfcResponsive_Fill_7823dc" fill="#7823DC"/><path d="M7.33 21.73 2.24 18.76 2.24 12.99 4.24 12.99 4.24 17.61 7.32 19.41 10.32 17.62 10.32 12.99 12.32 12.99 12.32 18.76Z" class="MsftOfcResponsive_Fill_7823dc" fill="#7823DC"/><rect x="6.35" y="15.63" width="2" height="4.94" class="MsftOfcResponsive_Fill_7823dc" fill="#7823DC"/></g><g><path d="M24.58 16.39 19.46 13 24.58 10.28 29.51 12.99 24.58 16.39ZM23.36 13.19 24.55 13.98 25.7 13.18 24.55 12.55 23.36 13.19Z" class="MsftOfcResponsive_Fill_7823dc" fill="#7823DC"/><path d="M24.55 21.73 19.46 18.76 19.46 12.99 21.46 12.99 21.46 17.61 24.54 19.41 27.54 17.62 27.54 12.99 29.54 12.99 29.54 18.76Z" class="MsftOfcResponsive_Fill_7823dc" fill="#7823DC"/><rect x="23.57" y="15.63" width="2" height="4.94" class="MsftOfcResponsive_Fill_7823dc" fill="#7823DC"/></g><g><path d="M16.07 25.84 10.95 22.45 16.07 19.73 21 22.44 16.07 25.84ZM14.85 22.63 16.04 23.42 17.19 22.62 16.04 21.99 14.85 22.63Z" class="MsftOfcResponsive_Fill_7823dc" fill="#7823DC"/><path d="M16.04 31.17 10.95 28.21 10.95 22.44 12.95 22.44 12.95 27.06 16.03 28.85 19.02 27.07 19.02 22.44 21.02 22.44 21.02 28.2Z" class="MsftOfcResponsive_Fill_7823dc" fill="#7823DC"/><rect x="15.05" y="25.07" width="2" height="4.94" class="MsftOfcResponsive_Fill_7823dc" fill="#7823DC"/></g><path d="M6.27 11.44C6.18 10 6.59 8.81 7.46 7.9 9.1 6.19 11.82 6.21 11.93 6.21L11.9 8.21C11.9 8.21 9.94 8.19 8.89 9.29 8.41 9.79 8.21 10.46 8.25 11.33L6.27 11.44Z" class="MsftOfcResponsive_Fill_7823dc" fill="#7823DC"/><path d="M25.57 11.39 23.57 11.38C23.57 10.4 23.32 9.67 22.79 9.14 21.85 8.2 20.34 8.2 20.35 8.21L20.32 6.21C20.41 6.21 22.65 6.19 24.18 7.7 25.11 8.62 25.57 9.86 25.57 11.39Z" class="MsftOfcResponsive_Fill_7823dc" fill="#7823DC"/><path d="M20.49 25.8C20.12 25.8 19.87 25.77 19.84 25.76L20.09 23.78C20.11 23.78 21.84 23.98 22.84 23.04 23.4 22.51 23.65 21.66 23.57 20.5L25.57 20.37C25.69 22.15 25.23 23.54 24.2 24.5 23.01 25.63 21.38 25.8 20.49 25.8Z" class="MsftOfcResponsive_Fill_7823dc" fill="#7823DC"/><path d="M11.87 26.07C9.81 25.98 8.27 25.32 7.29 24.1 5.86 22.32 6.25 20.04 6.27 19.95L8.24 20.31 7.26 20.13 8.25 20.3C8.25 20.31 8.01 21.8 8.87 22.87 9.47 23.62 10.52 24.02 11.97 24.08L11.87 26.07Z" class="MsftOfcResponsive_Fill_7823dc" fill="#7823DC"/></g></svg>