<svg viewBox="0 0 32 32" xmlns="http://www.w3.org/2000/svg" xmlns:xlink="http://www.w3.org/1999/xlink" id="Layer_1" overflow="hidden"><path d="M16 7.3C11 7.3 7 11.3 7 16.3L7 16.4 9 16.4C9 16.4 9 16.3 9 16.3 9 12.4 12.1 9.3 16 9.3 19.9 9.3 23 12.4 23 16.3 23 16.3 23 16.4 23 16.4L25 16.4 25 16.3C25 11.3 21 7.3 16 7.3Z" fill="#7823DC"/><rect x="15" y="5" width="2" height="3" fill="#7823DC"/><rect x="5" y="12.6" width="3" height="2" fill="#7823DC"/><rect x="23.8" y="12.6" width="3" height="2" fill="#7823DC"/><path d="M16 6C14.3 6 13 4.7 13 3 13 1.3 14.3 0 16 0 17.7 0 19 1.3 19 3 19 4.7 17.7 6 16 6L16 6ZM16 2C15.4 2 15 2.4 15 3 15 3.6 15.4 4 16 4 16.6 4 17 3.6 17 3 17 2.4 16.6 2 16 2L16 2Z" fill="#7823DC" fill-rule="evenodd" clip-rule="evenodd"/><path d="M3 16.6C1.3 16.6 0 15.3 0 13.6 0 11.9 1.3 10.6 3 10.6 4.7 10.6 6 11.9 6 13.6 6 15.3 4.7 16.6 3 16.6L3 16.6ZM3 12.6C2.4 12.6 2 13 2 13.6 2 14.2 2.4 14.6 3 14.6 3.6 14.6 4 14.2 4 13.6 4 13 3.6 12.6 3 12.6L3 12.6Z" fill="#7823DC" fill-rule="evenodd" clip-rule="evenodd"/><path d="M29 16.6C27.3 16.6 26 15.3 26 13.6 26 11.9 27.3 10.6 29 10.6 30.7 10.6 32 11.9 32 13.6 32 15.3 30.7 16.6 29 16.6L29 16.6ZM29 12.6C28.4 12.6 28 13 28 13.6 28 14.2 28.4 14.6 29 14.6 29.6 14.6 30 14.2 30 13.6 30 13 29.6 12.6 29 12.6L29 12.6Z" fill="#7823DC" fill-rule="evenodd" clip-rule="evenodd"/><g><rect x="7.8" y="7.6" width="2" height="3" fill="#7823DC" transform="matrix(0.7071 -0.7071 0.7071 0.7071 -3.8477 8.8722)"/><rect x="21.7" y="8.1" width="3" height="2" fill="#7823DC" transform="matrix(0.7071 -0.7071 0.7071 0.7071 0.3457 19.0787)"/><path d="M6.6 9.8C8.3 9.8 9.6 8.5 9.6 6.8 9.6 5.1 8.3 3.8 6.6 3.8 4.9 3.8 3.6 5.1 3.6 6.8 3.5 8.6 4.9 9.8 6.6 9.8L6.6 9.8ZM6.6 5.9C7.2 5.9 7.6 6.3 7.6 6.9 7.6 7.5 7.2 7.9 6.6 7.9 6 7.9 5.6 7.5 5.6 6.9 5.6 6.3 6 5.9 6.6 5.9L6.6 5.9Z" fill="#7823DC" fill-rule="evenodd" clip-rule="evenodd"/><path d="M25.4 9.8C27.1 9.8 28.4 8.5 28.4 6.8 28.4 5.1 27.1 3.8 25.4 3.8 23.7 3.8 22.4 5.1 22.4 6.8 22.4 8.6 23.7 9.8 25.4 9.8L25.4 9.8ZM25.4 5.9C26 5.9 26.4 6.3 26.4 6.9 26.4 7.5 26 7.9 25.4 7.9 24.8 7.9 24.4 7.5 24.4 6.9 24.4 6.3 24.8 5.9 25.4 5.9L25.4 5.9Z" fill="#7823DC" fill-rule="evenodd" clip-rule="evenodd"/></g><path d="M16 14.7C17.4 14.7 18.5 15.8 18.5 17.2 18.5 18.6 17.4 19.7 16 19.7 14.6 19.7 13.5 18.6 13.5 17.2 13.5 15.8 14.6 14.7 16 14.7M16 12.7C13.5 12.7 11.5 14.7 11.5 17.2 11.5 19.7 13.5 21.7 16 21.7 18.5 21.7 20.5 19.7 20.5 17.2 20.5 14.7 18.5 12.7 16 12.7L16 12.7Z" fill="#7823DC"/><g><path d="M24.2 32.1 22.2 32.1 22.2 25.7 18.6 24.1 18.4 24.3 19.2 25.5 18.5 26.5 18.8 27 18.8 32 16.8 32 16.8 27.5 16.1 26.5 16.8 25.5 15.9 24.2 18 21.6 24.2 24.4Z" fill="#7823DC"/><path d="M9.8 32.1 7.8 32.1 7.8 24.4 14 21.6 16.1 24.2 15.2 25.5 15.9 26.5 15.2 27.5 15.2 32 13.2 32 13.2 27 13.5 26.5 12.8 25.5 13.6 24.3 13.4 24.1 9.8 25.7Z" fill="#7823DC"/></g></svg>