<svg width="36.5" height="36.6" viewBox="0 0 36.5 36.6" xmlns="http://www.w3.org/2000/svg" xmlns:xlink="http://www.w3.org/1999/xlink" overflow="hidden"><defs></defs><g><g><defs><path d="M0 36.6 36.5 36.6 36.5 0 0 0 0 36.6Z" id="SVGID_1_" fill="#7823DC"/></defs><clipPath id="SVGID_2_"><use width="100%" height="100%" xlink:href="#SVGID_1_"></use></clipPath><g clip-path="url(#SVGID_2_)"><g><defs><path d="M0 36.5 36.5 36.5 36.5 0 0 0 0 36.5Z" id="SVGID_3_" fill="#7823DC"/></defs><clipPath id="SVGID_4_"><use width="100%" height="100%" xlink:href="#SVGID_3_"></use></clipPath><g clip-path="url(#SVGID_4_)"><defs><path d="M0 36.5 36.5 36.5 36.5 0 0 0 0 36.5Z" id="SVGID_5_" fill="#7823DC"/></defs><clipPath id="SVGID_6_"><use width="100%" height="100%" xlink:href="#SVGID_5_"></use></clipPath><rect x="17.2" y="18.7" width="2.3" height="16.8" fill="#7823DC" clip-path="url(#SVGID_6_)"/><path d="M18.3 36.6 3.3 34.3 3.7 32 18.3 34.3 32.9 32 33.2 34.3Z" fill="#7823DC" clip-path="url(#SVGID_6_)"/><rect x="2.3" y="25.2" width="2.3" height="9.1" fill="#7823DC" clip-path="url(#SVGID_6_)"/><rect x="31.9" y="25.2" width="2.3" height="9.1" fill="#7823DC" clip-path="url(#SVGID_6_)"/><rect x="17.2" y="13.8" width="2.3" height="6.8" fill="#7823DC" clip-path="url(#SVGID_6_)"/><rect x="7" y="13.8" width="2.3" height="6.8" fill="#7823DC" clip-path="url(#SVGID_6_)" transform="matrix(0.7078 -0.7064 0.7064 0.7078 -9.7776 10.7793)"/><rect x="25.1" y="16.1" width="6.8" height="2.3" fill="#7823DC" clip-path="url(#SVGID_6_)" transform="matrix(0.7073 -0.7069 0.7069 0.7073 -3.82 25.1925)"/><path d="M32.4 20.6 33.6 24.4 21.9 26 19.6 20.6 32.4 20.6M34.2 18.3 16 18.3 20.6 28.6 36.6 26.3 34.2 18.3 34.2 18.3Z" fill="#7823DC" clip-path="url(#SVGID_6_)"/><path d="M4.3 20.6 17.1 20.6 14.8 26 3 24.4 4.3 20.6M0.2 26.3 16.2 28.6 20.8 18.3 2.5 18.3 0.2 26.3 0.2 26.3Z" fill="#7823DC" clip-path="url(#SVGID_6_)"/><path d="M9.2 11.4 0.1 11.4 0.1 2.3 9.2 2.3 9.2 11.4ZM2.3 9.1 6.9 9.1 6.9 4.6 2.3 4.6 2.3 9.1Z" fill="#7823DC" clip-path="url(#SVGID_6_)"/><path d="M36.5 11.4 27.4 11.4 27.4 2.3 36.5 2.3 36.5 11.4ZM29.6 9.1 34.2 9.1 34.2 4.6 29.6 4.6 29.6 9.1Z" fill="#7823DC" clip-path="url(#SVGID_6_)"/><path d="M22.9 9.1 13.8 9.1 13.8 0 22.9 0 22.9 9.1ZM16.1 6.9 20.7 6.9 20.7 2.3 16.1 2.3 16.1 6.9Z" fill="#7823DC" clip-path="url(#SVGID_6_)"/></g></g></g></g></g></svg>