<svg viewBox="0 0 32 32" xmlns="http://www.w3.org/2000/svg" xmlns:xlink="http://www.w3.org/1999/xlink" id="Layer_1" overflow="hidden"><style>
.MsftOfcResponsive_Fill_7823dc {
 fill:#7823DC; 
}
</style>
<path d="M30 17 30 30 2 30 2 17 30 17M32 15 0 15 0 32 32 32 32 15 32 15Z" class="MsftOfcResponsive_Fill_7823dc" fill="#7823DC"/><path d="M23 2 23 2.7 9 2.7 9 2 23 2M25 0 7 0 7 4.7 25 4.7 25 0 25 0Z" class="MsftOfcResponsive_Fill_7823dc" fill="#7823DC"/><rect x="3" y="19" width="2" height="9" class="MsftOfcResponsive_Fill_7823dc" fill="#7823DC"/><rect x="7" y="19" width="2" height="9" class="MsftOfcResponsive_Fill_7823dc" fill="#7823DC"/><rect x="11" y="19" width="2" height="9" class="MsftOfcResponsive_Fill_7823dc" fill="#7823DC"/><rect x="15" y="19" width="2" height="9" class="MsftOfcResponsive_Fill_7823dc" fill="#7823DC"/><rect x="19" y="19" width="2" height="9" class="MsftOfcResponsive_Fill_7823dc" fill="#7823DC"/><rect x="23" y="19" width="2" height="9" class="MsftOfcResponsive_Fill_7823dc" fill="#7823DC"/><rect x="27" y="19" width="2" height="9" class="MsftOfcResponsive_Fill_7823dc" fill="#7823DC"/><path d="M16 13C14.3 13 13 11.7 13 10 13 8.3 14.3 7 16 7 17.7 7 19 8.3 19 10 19 11.7 17.7 13 16 13ZM16 9C15.4 9 15 9.4 15 10 15 10.6 15.4 11 16 11 16.6 11 17 10.6 17 10 17 9.4 16.6 9 16 9Z" class="MsftOfcResponsive_Fill_7823dc" fill="#7823DC"/><rect x="15" y="4" width="2" height="4" class="MsftOfcResponsive_Fill_7823dc" fill="#7823DC"/><rect x="-0.1" y="12.5" width="16.3" height="2" class="MsftOfcResponsive_Fill_7823dc" fill="#7823DC" transform="matrix(0.9829 -0.1841 0.1841 0.9829 -2.3484 1.7034)"/><rect x="23" y="5.4" width="2" height="16.3" class="MsftOfcResponsive_Fill_7823dc" fill="#7823DC" transform="matrix(0.1843 -0.9829 0.9829 0.1843 6.3082 34.6009)"/></svg>