<svg viewBox="0 0 49.23 51.25" xmlns="http://www.w3.org/2000/svg" xmlns:xlink="http://www.w3.org/1999/xlink" id="Grid" overflow="hidden"><style>
.MsftOfcResponsive_Fill_7823dc {
 fill:#7823DC; 
}
</style>
<defs></defs><path d="M36.89 51.25 18.76 51.25 9.9 15.03 45.82 15.03 36.89 51.24ZM21.33 47.95 34.31 47.95 41.62 18.33 14.09 18.33 21.33 47.95Z" class="MsftOfcResponsive_Fill_7823dc" stroke-width="0" fill="#7823DC"/><path d="M9.31 25.01C4.57 24.68 0.69 21.01 0.08 16.28-0.62 10.79 3.26 5.76 8.73 5.05 13.61 4.44 18.17 7.39 19.58 12.11L16.43 13.06C15.48 9.9 12.42 7.89 9.14 8.33 7.36 8.56 5.78 9.47 4.68 10.89 3.58 12.31 3.1 14.08 3.33 15.87 3.74 19.05 6.34 21.51 9.52 21.73L9.29 25.02Z" class="MsftOfcResponsive_Fill_7823dc" stroke-width="0" fill="#7823DC"/><path d="M23.98 49.9 20.75 49.3 28.82 5.47 48.2 0.3 49.04 3.49 31.67 8.12 23.98 49.9Z" class="MsftOfcResponsive_Fill_7823dc" stroke-width="0" fill="#7823DC"/><path d="M47.82 0.4 49.23 0 49.23 3.44 48.46 3.64 47.82 0.4Z" class="MsftOfcResponsive_Fill_7823dc" stroke-width="0" fill="#7823DC"/><rect x="14.53" y="28.18" width="26.64" height="3.3" class="MsftOfcResponsive_Fill_7823dc" stroke-width="0" fill="#7823DC"/></svg>