<svg width="32" height="32.04" viewBox="0 0 32 32.04" xmlns="http://www.w3.org/2000/svg" xmlns:xlink="http://www.w3.org/1999/xlink" overflow="hidden"><style>
.MsftOfcResponsive_Fill_7823dc {
 fill:#7823DC; 
}
</style>
<defs></defs><g><rect x="15" y="0" width="2" height="32" class="MsftOfcResponsive_Fill_7823dc" fill="#7823DC"/></g><g><g><path d="M27.29 2C27.84 2 28.29 2.45 28.29 3 28.29 3.55 27.84 4 27.29 4 26.74 4 26.29 3.55 26.29 3 26.29 2.45 26.74 2 27.29 2M27.29 0C25.64 0 24.29 1.35 24.29 3 24.29 4.65 25.64 6 27.29 6 28.94 6 30.29 4.65 30.29 3 30.29 1.35 28.95 0 27.29 0L27.29 0Z" class="MsftOfcResponsive_Fill_7823dc" fill="#7823DC"/></g><g><g><g><path d="M18 20.14 19.91 20.74 23.86 8.26 21 32.04 23.02 32.04 26.25 6 22.55 6Z" class="MsftOfcResponsive_Fill_7823dc" fill="#7823DC"/></g></g></g></g><g><path d="M32 23.42 30.17 8.22 32 13.98 32 6.94 31.7 5.96 28 5.96 31.02 32 32 32Z" class="MsftOfcResponsive_Fill_7823dc" fill="#7823DC"/></g><g><path d="M4.71 2C5.26 2 5.71 2.45 5.71 3 5.71 3.55 5.26 4 4.71 4 4.16 4 3.71 3.55 3.71 3 3.71 2.45 4.15 2 4.71 2M4.71 0C3.06 0 1.71 1.35 1.71 3 1.71 4.65 3.06 6 4.71 6 6.36 6 7.71 4.65 7.71 3 7.71 1.35 6.36 0 4.71 0L4.71 0Z" class="MsftOfcResponsive_Fill_7823dc" fill="#7823DC"/></g><g><g><g><path d="M14 20.14 12.09 20.74 8.14 8.26 11 32.04 8.98 32.04 5.75 6 9.45 6Z" class="MsftOfcResponsive_Fill_7823dc" fill="#7823DC"/></g></g></g><g><path d="M0 23.42 1.83 8.22 0 13.98 0 6.94 0.3 5.96 4 5.96 0.98 32 0 32Z" class="MsftOfcResponsive_Fill_7823dc" fill="#7823DC"/></g></svg>