<svg viewBox="0 0 32 32.14" xmlns="http://www.w3.org/2000/svg" xmlns:xlink="http://www.w3.org/1999/xlink" id="Layer_1" overflow="hidden"><style>
.MsftOfcResponsive_Fill_7823dc {
 fill:#7823DC; 
}
</style>
<path d="M28.15 32.14 3.85 32.14C2.86 32.14 1.91 31.8 1.18 31.17L1.15 31.15C0.41 30.47 2.22045e-16 29.57 2.22045e-16 28.62L2.22045e-16 28.49C2.22045e-16 28.49 0.76 18.97 0.76 18.97 0.85 17.81 1.57 16.85 2.68 16.39 3.85 15.91 5.21 16.13 6.14 16.94 6.73 17.44 7.1 18.15 7.18 18.93L7.71 25.07C7.82 25.07 7.97 25.08 8.19 25.08L28.14 25.08C29.8 25.08 31.22 26.01 31.77 27.46 32.27 28.77 31.91 30.19 30.82 31.15 30.07 31.79 29.12 32.14 28.13 32.14ZM2.49 29.66C2.86 29.97 3.34 30.14 3.85 30.14L28.15 30.14C28.66 30.14 29.15 29.97 29.52 29.65 30.14 29.1 30.03 28.49 29.91 28.17 29.72 27.67 29.14 27.08 28.14 27.08L8.19 27.08C7.57 27.08 7.07 27.04 6.64 26.85 5.85 26.48 5.78 25.8 5.75 25.5L5.75 25.38C5.75 25.38 5.19 19.11 5.19 19.11 5.16 18.86 5.04 18.62 4.84 18.45 4.38 18.05 3.8 18.09 3.44 18.24 3.2 18.34 2.8 18.58 2.75 19.12L1.99 28.64C1.99 29.09 2.26 29.44 2.48 29.65Z" class="MsftOfcResponsive_Fill_7823dc" fill="#7823DC"/><path d="M28.45 26.9 27.31 25.26C27.86 24.88 28.11 24.34 27.96 23.86 27.8 23.35 27.22 23.04 26.41 23.04L7.25 23.04 7.25 21.04 26.41 21.04C28.11 21.04 29.43 21.89 29.86 23.26 30.28 24.58 29.72 26.01 28.45 26.9Z" class="MsftOfcResponsive_Fill_7823dc" fill="#7823DC"/><path d="M25.71 22.83 24.49 21.24C24.79 21.01 25.12 20.62 24.95 20.12 24.77 19.6 24.08 19.03 22.97 19.03L5.75 19.03 5.75 17.03 22.98 17.03C24.8 17.03 26.36 18.01 26.85 19.47 27.26 20.68 26.83 21.97 25.71 22.82Z" class="MsftOfcResponsive_Fill_7823dc" fill="#7823DC"/><path d="M27.27 4.68 23 4.68 23 2.68 26.53 2.68 28.63 0.89 29.93 2.41 27.27 4.68Z" class="MsftOfcResponsive_Fill_7823dc" fill="#7823DC"/><path d="M28.63 6.47 26.53 4.68 23 4.68 23 2.68 27.27 2.68 29.93 4.95 28.63 6.47Z" class="MsftOfcResponsive_Fill_7823dc" fill="#7823DC"/><path d="M19.54 19.04 12.48 19.04C10.95 19.04 9.62 18.18 9.16 16.91 8.76 15.8 9.12 14.61 10.09 13.81 10.74 13.28 11.59 12.98 12.47 12.98L19.53 12.98C21.05 12.98 22.38 13.84 22.84 15.12 23.24 16.24 22.88 17.43 21.9 18.22 21.28 18.75 20.44 19.04 19.53 19.04ZM12.48 14.98C12.05 14.98 11.66 15.11 11.36 15.35 11.04 15.62 10.93 15.91 11.04 16.23 11.18 16.63 11.68 17.04 12.47 17.04L19.53 17.04C19.95 17.04 20.35 16.91 20.62 16.68 20.96 16.4 21.07 16.11 20.96 15.79 20.82 15.39 20.32 14.98 19.54 14.98L12.48 14.98Z" class="MsftOfcResponsive_Fill_7823dc" fill="#7823DC"/><path d="M17.86 14.98 14.31 14.98C13.35 14.98 12.57 14.18 12.57 13.19L12.57 3.46C12.57 1.55 14.06 0 15.9 0L20.63 0C21.96 0 23.13 0.79 23.69 2.06 24.27 3.39 24.02 4.93 23.05 5.98 22.37 6.68 21.52 7.05 20.64 7.05L19.61 7.05 19.61 13.2C19.61 14.19 18.83 14.99 17.87 14.99ZM14.57 12.98 17.59 12.98 17.59 5.04 20.62 5.04C20.96 5.04 21.3 4.88 21.59 4.59 22.09 4.05 22.06 3.33 21.85 2.85 21.76 2.65 21.41 1.99 20.63 1.99L15.9 1.99C15.17 1.99 14.57 2.65 14.57 3.45L14.57 12.97Z" class="MsftOfcResponsive_Fill_7823dc" fill="#7823DC"/></svg>