<svg viewBox="0 0 32 32" xmlns="http://www.w3.org/2000/svg" xmlns:xlink="http://www.w3.org/1999/xlink" overflow="hidden"><defs></defs><g id="Layer_3"><path d="M14.4034 2.01193 17.518 2.01321 18.9172 6.20468 19.1896 7.0206 19.9693 7.38406C20.4786 7.62017 20.9662 7.90072 21.4263 8.22244L22.1319 8.71878 22.9771 8.54623 27.3026 7.66311 28.8613 10.3606 25.9359 13.6587 25.3642 14.3033 25.4398 15.1615C25.4703 15.507 25.4839 15.7674 25.484 16.0055 25.4841 16.2441 25.4707 16.5044 25.4405 16.8495L25.3655 17.707 25.9368 18.3509 28.8661 21.6529 27.3114 24.3461 22.9866 23.4596 22.1409 23.2863 21.4347 23.7828C20.9751 24.104 20.488 24.384 19.9791 24.6195L19.1978 24.9831 18.9256 25.8007 17.5308 29.9881 14.4162 29.9868 13.017 25.7953 12.7446 24.9793 11.9649 24.6158C11.4556 24.3798 10.9681 24.0993 10.5081 23.7777L9.80246 23.2812 8.95716 23.4537 4.63169 24.3368 3.073 21.6394 5.99836 18.3413 6.57004 17.6967 6.49439 16.8385C6.46393 16.4932 6.45032 16.2328 6.4502 15.9943 6.45011 15.7551 6.46348 15.4949 6.49363 15.1507L6.56873 14.293 5.99735 13.649 3.06814 10.3471 4.62289 7.6539 8.94775 8.54031 9.79339 8.71359 10.4995 8.21719C10.9591 7.89599 11.4461 7.61605 11.955 7.38064L12.7363 7.01699 13.0087 6.19937 14.4034 2.01193M12.9617 0.01132 11.1112 5.56732C10.4951 5.85246 9.90548 6.19168 9.34933 6.581L3.61172 5.405 0.61523 10.5959 4.50128 14.9762C4.47183 15.3125 4.45007 15.6511 4.45022 15.9951 4.45037 16.3391 4.47247 16.6778 4.50213 17.0141L0.61975 21.3913 3.6206 26.5846 9.35723 25.4134C9.91368 25.8031 10.5035 26.1429 11.1199 26.4286L12.9752 31.9862 18.9725 31.9887 20.823 26.4327C21.4392 26.1475 22.0288 25.8083 22.585 25.4189L28.3226 26.5949 31.3191 21.4041 27.433 17.0236C27.4624 16.6874 27.4842 16.3488 27.4841 16.0049 27.4839 15.6608 27.4618 15.3222 27.4321 14.9859L31.3146 10.6088 28.3137 5.41543 22.577 6.58664C22.0205 6.19687 21.4307 5.85713 20.8143 5.57138L18.9591 0.01382 12.9617 0.01132Z" fill="#7823DC"/><path d="M15.981 23.247 14.933 22.199 12.838 24.294 13.886 25.342 15.981 23.247 15.981 23.247Z" fill="#7823DC"/><path d="M15.981 23.247 17.028 22.199 19.123 24.294 18.075 25.342 15.981 23.247 15.981 23.247Z" fill="#7823DC"/><path d="M15.9668 20.2041C13.4575 20.2038 11.4236 18.1694 11.4238 15.6602 11.4241 13.1509 13.4585 11.1169 15.9678 11.1172 18.4767 11.1174 20.5105 13.1513 20.5107 15.6602 20.5082 18.1687 18.4753 20.2016 15.9668 20.2041ZM15.9668 13.1172C14.5621 13.1175 13.4236 14.2564 13.4238 15.6611 13.4241 17.0658 14.563 18.2044 15.9678 18.2041 17.3725 18.2038 18.511 17.0649 18.5107 15.6602 18.5093 14.256 17.371 13.1181 15.9668 13.1172Z" fill="#7823DC"/><path d="M14.151 21.855 6.166 25.151 5.604 23.781 13.588 20.485 13.81 21.026 14.151 21.855Z" fill="#7823DC"/><rect x="21.3281" y="18.5027" width="1.48136" height="8.63634" fill="#7823DC" transform="matrix(0.381554 -0.924346 0.924346 0.381554 -7.44604 34.5127)"/><rect x="10.366" y="23.2482" width="3.47858" height="2" fill="#7823DC" transform="matrix(-0.707941 -0.706271 0.706271 -0.707941 3.54936 49.9642)"/><rect x="18.1123" y="22.583" width="3.47858" height="2" fill="#7823DC" transform="matrix(-0.707941 -0.706271 0.706271 -0.707941 17.2494 54.299)"/><path d="M15.981 23.247 14.955 22.227 13.588 20.485 13.57 20.499 13.566 20.489 3.906 24.498 4.672 26.345 11.838 23.371 11.838 27.103 13.146 27.103 13.146 31.401 15.572 31.401 15.572 29.983 15.02 29.983 15.02 25.925 15.981 25.925 14.641 24.586 15.981 23.247Z" fill="#7823DC"/><path d="M26.941 26.206 27.708 24.359 18.382 20.489 18.376 20.501 18.36 20.489 16.95 22.28 15.981 23.247 17.32 24.586 15.981 25.925 16.914 25.925 16.914 29.983 16.38 29.983 16.38 31.401 18.38 31.401 18.38 28.015 20.887 25.515 19.765 24.39 19.852 24.303 19.196 23.646 18.4 22.833 18.501 22.704 26.941 26.206Z" fill="#7823DC"/></g></svg>