<svg viewBox="0 0 31.95 31.93" xmlns="http://www.w3.org/2000/svg" xmlns:xlink="http://www.w3.org/1999/xlink" id="Layer_1" overflow="hidden"><style>
.MsftOfcResponsive_Fill_7823dc {
 fill:#7823DC; 
}
</style>
<defs></defs><path d="M15.97 23.98C15.14 23.98 14.46 24.65 14.46 25.48L14.46 25.48C14.46 26.31 15.13 26.99 15.97 26.99 16.8 26.99 17.48 26.32 17.48 25.49 17.48 24.66 16.81 23.98 15.98 23.98L15.98 23.98Z" class="MsftOfcResponsive_Fill_7823dc" stroke-width="0" fill="#7823DC"/><path d="M20.99 23.98C20.16 23.98 19.48 24.65 19.48 25.48L19.48 25.48C19.48 26.31 20.15 26.99 20.99 26.99 21.82 26.99 22.49 26.32 22.49 25.49 22.49 24.66 21.82 23.98 20.99 23.98Z" class="MsftOfcResponsive_Fill_7823dc" stroke-width="0" fill="#7823DC"/><path d="M26.01 23.98C25.18 23.98 24.5 24.65 24.5 25.48L24.5 25.48C24.5 26.31 25.17 26.99 26.01 26.99 26.84 26.99 27.51 26.32 27.51 25.49 27.51 24.66 26.84 23.98 26.01 23.98Z" class="MsftOfcResponsive_Fill_7823dc" stroke-width="0" fill="#7823DC"/><g><g id="path371"><path d="M26.96 21.98 6.02 21.98C2.7 21.98 0 19.21 0 15.81 0 12.94 1.96 10.51 4.62 9.86 4.62 9.79 4.62 9.72 4.62 9.65 4.62 4.67 8.3 0.57 13 0.06L13-1.27676e-15 14-1.27676e-15C18.17-1.27676e-15 21.83 2.93 22.95 7.06 25.51 7.56 27.57 9.46 28.33 12.03 30.47 12.65 31.95 14.58 31.95 16.86 31.95 18.21 31.43 19.49 30.5 20.46 29.55 21.43 28.3 21.97 26.96 21.97ZM14.14 2 14 2C9.93 2 6.62 5.42 6.62 9.63 6.62 9.82 6.66 10.01 6.69 10.21 6.71 10.33 6.73 10.45 6.75 10.57L6.89 11.63 5.82 11.69C3.69 11.82 2.01 13.62 2.01 15.8 2.01 18.1 3.81 19.97 6.03 19.97L26.97 19.97C27.76 19.97 28.51 19.65 29.07 19.07 29.64 18.48 29.96 17.7 29.96 16.87 29.96 15.35 28.87 14.09 27.37 13.87L26.67 13.77 26.53 13.08C26.07 10.81 24.28 9.15 22.05 8.96L21.3 8.89 21.15 8.15C20.46 4.64 17.52 2.07 14.14 2Z" class="MsftOfcResponsive_Fill_7823dc" stroke-width="0" fill="#7823DC"/></g><path d="M5.93 23.98C5.1 23.98 4.43 24.65 4.43 25.49 4.43 26.32 5.1 26.99 5.93 26.99 6.76 26.99 7.44 26.32 7.44 25.49 7.44 24.66 6.77 23.98 5.94 23.98L5.94 23.98Z" class="MsftOfcResponsive_Fill_7823dc" stroke-width="0" fill="#7823DC"/><path d="M10.95 23.98C10.12 23.98 9.45 24.65 9.45 25.49 9.45 26.32 10.12 26.99 10.95 26.99 11.78 26.99 12.46 26.32 12.46 25.49 12.46 24.66 11.79 23.98 10.96 23.98L10.96 23.98Z" class="MsftOfcResponsive_Fill_7823dc" stroke-width="0" fill="#7823DC"/><path d="M8.44 28.92C7.61 28.92 6.93 29.59 6.93 30.43 6.93 31.26 7.6 31.93 8.44 31.93 9.27 31.93 9.94 31.26 9.94 30.43 9.94 29.6 9.27 28.92 8.44 28.92Z" class="MsftOfcResponsive_Fill_7823dc" stroke-width="0" fill="#7823DC"/></g><path d="M13.46 28.92C12.63 28.92 11.95 29.59 11.95 30.43 11.95 31.26 12.62 31.93 13.46 31.93 14.29 31.93 14.96 31.26 14.96 30.43 14.96 29.6 14.29 28.92 13.46 28.92Z" class="MsftOfcResponsive_Fill_7823dc" stroke-width="0" fill="#7823DC"/><path d="M18.48 28.92C17.65 28.92 16.97 29.59 16.97 30.43 16.97 31.26 17.64 31.93 18.48 31.93 19.31 31.93 19.98 31.26 19.98 30.43 19.98 29.6 19.31 28.92 18.48 28.92Z" class="MsftOfcResponsive_Fill_7823dc" stroke-width="0" fill="#7823DC"/><path d="M23.5 28.92C22.67 28.92 22 29.59 22 30.43 22 31.26 22.67 31.93 23.5 31.93 24.33 31.93 25.01 31.26 25.01 30.43 25.01 29.6 24.34 28.92 23.5 28.92Z" class="MsftOfcResponsive_Fill_7823dc" stroke-width="0" fill="#7823DC"/></svg>