<svg viewBox="0 0 32 32" xmlns="http://www.w3.org/2000/svg" xmlns:xlink="http://www.w3.org/1999/xlink" id="Layer_2_1_" xml:space="preserve" overflow="hidden"><style>
.MsftOfcResponsive_Fill_7823dc {
 fill:#7823DC; 
}
</style>
<path d="M32 29.4 32 32 20.4 22.8 21.6 21.2Z" class="st0 MsftOfcResponsive_Fill_7823dc" fill="#7823DC"/><g><g><path d="M12.9 2C18.9 2 23.8 6.9 23.8 12.9 23.8 18.9 18.9 23.8 12.9 23.8 6.9 23.8 2 18.9 2 12.9 2 6.9 6.9 2 12.9 2M12.9 0C5.8 0 0 5.8 0 12.9 0 20 5.8 25.8 12.9 25.8 20 25.8 25.8 20 25.8 12.9 25.8 5.8 20 0 12.9 0L12.9 0 12.9 0 12.9 0Z" class="st1 MsftOfcResponsive_Fill_7823dc" fill="#7823DC" fill-rule="evenodd" clip-rule="evenodd"/></g><g><path d="M10.1 10.1C12.4 7.8 16.2 7.4 18.4 7.3 18.3 9.5 18 13.2 15.6 15.6 13.3 17.9 9.5 18.3 7.3 18.4 7.5 16.2 7.9 12.4 10.1 10.1M8.7 8.7C4.6 12.8 5.4 20.3 5.4 20.3 5.4 20.3 12.9 21.1 17 17 21.1 12.9 20.3 5.4 20.3 5.4 20.3 5.4 12.8 4.6 8.7 8.7L8.7 8.7 8.7 8.7 8.7 8.7Z" class="st2 MsftOfcResponsive_Fill_7823dc" fill="#7823DC" fill-rule="evenodd" clip-rule="evenodd"/><path d="M6 18.3 18.2 6.1 19.7 7.6 7.5 19.8 6 18.3Z" class="st2 MsftOfcResponsive_Fill_7823dc" fill="#7823DC" fill-rule="evenodd" clip-rule="evenodd"/><path d="M9.7 15.5 8.1 10 10 9.4 11.6 14.9 9.7 15.5Z" class="st2 MsftOfcResponsive_Fill_7823dc" fill="#7823DC" fill-rule="evenodd" clip-rule="evenodd"/><path d="M10.3 16.1 10.9 14.2 16.4 15.8 15.8 17.7 10.3 16.1Z" class="st2 MsftOfcResponsive_Fill_7823dc" fill="#7823DC" fill-rule="evenodd" clip-rule="evenodd"/><path d="M13 11.7 12.2 6.9 14.1 6.6 15 11.3 13 11.7Z" class="st2 MsftOfcResponsive_Fill_7823dc" fill="#7823DC" fill-rule="evenodd" clip-rule="evenodd"/><path d="M13.7 13 14.1 11 18.8 11.9 18.4 13.8 13.7 13Z" class="st2 MsftOfcResponsive_Fill_7823dc" fill="#7823DC" fill-rule="evenodd" clip-rule="evenodd"/></g></g></svg>