<svg viewBox="0 0 32 32" xmlns="http://www.w3.org/2000/svg" xmlns:xlink="http://www.w3.org/1999/xlink" id="Graphic" overflow="hidden"><style>
.MsftOfcResponsive_Fill_7823dc {
 fill:#7823DC; 
}
</style>
<defs></defs><path d="M27.2408 28.6012 23.0815 28.601C22.1306 28.6011 21.3597 27.8302 21.3597 26.8793 21.3597 26.8792 21.3597 26.8791 21.3597 26.879L21.3596 26.4957 27.4326 26.4959 27.4326 24.3964 20.3099 24.3963C19.7285 24.3963 19.2572 23.9251 19.2572 23.3437 19.2572 22.7624 19.7285 22.2911 20.3099 22.2911L28.3047 22.2911 28.3047 20.1916 19.2587 20.1916C18.6773 20.1916 18.206 19.7203 18.206 19.1389 18.206 18.5575 18.6773 18.0862 19.2587 18.0862L28.828 18.0863 28.828 16.0584 19.8349 15.9867C19.8348 14.835 20.7685 13.9013 21.9203 13.9012 21.9268 13.9012 21.9334 13.9013 21.94 13.9013L27.5026 13.9531 26.3512 11.9174 21.9592 11.8658C20.8589 11.8521 19.7995 12.2822 19.02 13.0589 18.2139 14.0015 17.7676 15.1991 17.7602 16.4393L18.0899 16.2803C16.5105 16.9289 15.756 18.7351 16.4046 20.3145 16.6539 20.9216 17.09 21.4336 17.6496 21.7763 16.7839 23.2471 17.2744 25.1413 18.7451 26.007 18.9802 26.1454 19.2325 26.252 19.4955 26.3241L19.3153 26.2691 19.324 26.879C19.324 28.9543 21.0062 30.6366 23.0815 30.6367L25.2349 30.6368Z" class="MsftOfcResponsive_Fill_7823dc" fill="#7823DC"/><path d="M26.2192 28.6012 25.0662 28.601C26.0171 28.6011 26.788 27.8302 26.788 26.8793 26.788 26.8792 26.788 26.8791 26.788 26.879L26.7881 26.4957 26.0274 26.4959 26.0274 24.3964 27.8378 24.3963C28.4192 24.3963 28.8904 23.9251 28.8904 23.3437 28.8904 22.7624 28.4192 22.2911 27.8378 22.2911L25.1553 22.2911 25.1553 20.1916 28.889 20.1916C29.4704 20.1916 29.9417 19.7203 29.9417 19.1389 29.9417 18.5575 29.4704 18.0862 28.889 18.0862L24.632 18.0863 24.632 16.0584 28.3128 15.9867C28.3129 14.835 27.3792 13.9013 26.2274 13.9012 26.2208 13.9012 26.2143 13.9013 26.2077 13.9013L25.889 13.8789 25.1553 11.9174 26.2204 11.9174C27.3047 11.885 28.3551 12.2974 29.1277 13.0589 29.922 13.9963 30.355 15.1868 30.3485 16.4154L30.0578 16.2803C31.6372 16.9289 32.3917 18.7351 31.7431 20.3145 31.4937 20.9216 31.0577 21.4336 30.498 21.7763 31.3638 23.2471 30.8733 25.1413 29.4025 26.007 29.1675 26.1454 28.9152 26.252 28.6521 26.3241L28.8279 26.2705 28.8237 26.8791C28.8237 28.9543 27.1414 30.6366 25.0662 30.6367L25.1553 30.6368Z" class="MsftOfcResponsive_Fill_7823dc" fill="#7823DC"/><path d="M9.227 16 7.203 15.196 21.324 1.074 22.739 2.489 9.227 16Z" class="MsftOfcResponsive_Fill_7823dc" fill="#7823DC"/><rect x="6.68498" y="13.4576" width="2" height="3.07457" class="MsftOfcResponsive_Fill_7823dc" fill="#7823DC" transform="matrix(6.12323e-17 1 -1 6.12323e-17 22.6799 7.30995)"/><path d="M20.643 28.6 19.916 28.6 9.981 28.597 7.975 26.587 2.013 26.587 2.013 15.995 8.032 15.991 10.131 13.954 10.638 13.954 11.041 13.222 9.563 13.222 8.773 13.998 2.013 13.998-0.022 16.034-0.022 26.587 2.013 28.623 7.128 28.623 9.056 30.594 19.916 30.636 20.643 30.636 23.773 30.636 23.773 28.6 20.643 28.6Z" class="MsftOfcResponsive_Fill_7823dc" fill="#7823DC"/><path d="M22.4347 2.18464 21.0292 2.26173 21.0292 3.75337 21.0619 3.71681C21.9744 4.53415 22.156 5.89414 21.4899 6.92225L19.1358 10.5568 19.1134 14.5501 21.2395 12.5646 21.2265 11.1131 23.2167 8.0406C24.4333 6.16229 24.1015 3.67785 22.4347 2.1846Z" class="MsftOfcResponsive_Fill_7823dc" fill="#7823DC"/></svg>