<svg viewBox="0 0 32 32" xmlns="http://www.w3.org/2000/svg" xmlns:xlink="http://www.w3.org/1999/xlink" id="Layer_1" overflow="hidden"><style>
.MsftOfcResponsive_Fill_7823dc {
 fill:#7823DC; 
}
</style>
<g><path d="" class="st0 MsftOfcResponsive_Fill_7823dc" fill="#7823DC"/></g><path d="M32 7-0.1 7-0.1 0 1.9 0 1.9 5 30 5 30 0 32 0Z" class="MsftOfcResponsive_Fill_7823dc" fill="#7823DC"/><rect x="12" y="6" width="2" height="5" class="MsftOfcResponsive_Fill_7823dc" fill="#7823DC"/><path d="M7.4 9C8.2 9 8.9 9.7 8.9 10.5 8.9 11.3 8.2 12 7.4 12 6.6 12 5.9 11.3 5.9 10.5 5.9 9.7 6.5 9 7.4 9M7.4 7C5.5 7 3.9 8.6 3.9 10.5 3.9 12.4 5.4 14 7.4 14 9.4 14 10.9 12.4 10.9 10.5 10.9 8.6 9.3 7 7.4 7L7.4 7Z" class="MsftOfcResponsive_Fill_7823dc" fill="#7823DC"/><path d="M8.5 17.2C9.3 17.2 10 17.9 10 18.7 10 19.5 9.3 20.2 8.5 20.2 7.7 20.2 7 19.5 7 18.7 7 17.9 7.7 17.2 8.5 17.2M8.5 15.2C6.6 15.2 5 16.8 5 18.7 5 20.6 6.6 22.2 8.5 22.2 10.4 22.2 12 20.6 12 18.7 12 16.8 10.4 15.2 8.5 15.2L8.5 15.2Z" class="MsftOfcResponsive_Fill_7823dc" fill="#7823DC"/><path d="M14.6 22.9C15.4 22.9 16.1 23.6 16.1 24.4 16.1 25.2 15.4 25.9 14.6 25.9 13.8 25.9 13.1 25.2 13.1 24.4 13.1 23.6 13.8 22.9 14.6 22.9M14.6 20.9C12.7 20.9 11.1 22.5 11.1 24.4 11.1 26.3 12.7 27.9 14.6 27.9 16.5 27.9 18.1 26.3 18.1 24.4 18.1 22.5 16.5 20.9 14.6 20.9L14.6 20.9Z" class="MsftOfcResponsive_Fill_7823dc" fill="#7823DC"/><path d="M22.6 24.6C23.4 24.6 24.1 25.3 24.1 26.1 24.1 26.9 23.4 27.6 22.6 27.6 21.8 27.6 21.1 26.9 21.1 26.1 21.1 25.3 21.8 24.6 22.6 24.6M22.6 22.6C20.7 22.6 19.1 24.2 19.1 26.1 19.1 28 20.7 29.6 22.6 29.6 24.5 29.6 26.1 28 26.1 26.1 26.1 24.2 24.5 22.6 22.6 22.6L22.6 22.6Z" class="MsftOfcResponsive_Fill_7823dc" fill="#7823DC"/><path d="M30.8 25C31.3 25 31.7 25.2 32 25.6L32 23.2C31.6 23.1 31.2 23 30.8 23 28.9 23 27.3 24.6 27.3 26.5 27.3 28.4 28.9 30 30.8 30 31.2 30 31.6 29.9 32 29.8L32 27.4C31.7 27.8 31.3 28 30.8 28 29.9 28 29.3 27.3 29.3 26.5 29.3 25.7 30 25 30.8 25Z" class="MsftOfcResponsive_Fill_7823dc" fill="#7823DC"/><g><path d="M30.3 32C24.6 32 14 31.4 8.4 27.3 1.6 22.4 1.7 14 1.9 6.6L3.9 6.6C3.8 13.6 3.6 21.4 9.5 25.7 15.4 30 28.1 30.1 31.9 30L31.9 32C31.5 32 30.9 32 30.3 32Z" class="st1 MsftOfcResponsive_Fill_7823dc" fill="#7823DC"/></g></svg>