<svg viewBox="0 0 32 32" xmlns="http://www.w3.org/2000/svg" xmlns:xlink="http://www.w3.org/1999/xlink" id="Graphic" overflow="hidden"><style>
.MsftOfcResponsive_Fill_7823dc {
 fill:#7823DC; 
}
</style>
<defs></defs><path d="M19.971 32 0 32 0 26 6.687 26 6.687 28 2 28 2 30 17.971 30 17.971 28 9.1 28 9.1 26 19.971 26 19.971 32Z" class="MsftOfcResponsive_Fill_7823dc" fill="#7823DC"/><rect x="3.03781" y="17.7411" width="7.93562" height="1.99979" class="MsftOfcResponsive_Fill_7823dc" fill="#7823DC" transform="matrix(0.142105 -0.989852 0.989852 0.142105 -12.5407 23.0123)"/><rect x="11.7745" y="12.7875" width="1.99976" height="9.93873" class="MsftOfcResponsive_Fill_7823dc" fill="#7823DC" transform="matrix(0.98838 -0.152006 0.152006 0.98838 -2.55069 2.14812)"/><path d="M9.98633 11.3472C8.60488 11.3467 7.48537 10.2264 7.48584 8.84498 7.4859 8.68095 7.50209 8.51731 7.53418 8.35645L9.49512 8.751C9.45176 9.03384 9.64591 9.29827 9.92875 9.34163 9.94782 9.34455 9.96705 9.34641 9.98633 9.34719 10.2625 9.34719 10.4863 9.12333 10.4863 8.84719 10.4863 8.57105 10.2625 8.34719 9.98633 8.34719 9.94749 8.34269 9.90813 8.34685 9.87109 8.35939L9.44141 6.40625C9.62012 6.35702 9.80563 6.33707 9.99072 6.34717 11.3714 6.34838 12.4897 7.46865 12.4885 8.84937 12.4873 10.2301 11.367 11.3484 9.98633 11.3472Z" class="MsftOfcResponsive_Fill_7823dc" fill="#7823DC"/><path d="M16.6836 27.1235 14.6836 27.1235C14.6831 24.5285 12.5789 22.4253 9.98392 22.4258 7.9781 22.4262 6.19371 23.6999 5.5415 25.5967L3.6499 24.9463C4.853 21.4477 8.66449 19.5868 12.1631 20.7899 14.8674 21.7198 16.6831 24.2639 16.6836 27.1235Z" class="MsftOfcResponsive_Fill_7823dc" fill="#7823DC"/><rect x="26.4922" y="9.75391" width="2" height="3.96436" class="MsftOfcResponsive_Fill_7823dc" fill="#7823DC"/><path d="M27.4922 17.6592C26.1158 17.6595 24.9998 16.5439 24.9995 15.1675 24.9992 13.7911 26.1148 12.6751 27.4912 12.6748 28.8676 12.6745 29.9836 13.7901 29.9839 15.1665 29.9839 15.1668 29.9839 15.1672 29.9839 15.1675 29.9824 16.543 28.8677 17.6577 27.4922 17.6592ZM27.4922 14.6748C27.2204 14.6745 26.9998 14.8947 26.9995 15.1665 26.9992 15.4383 27.2194 15.6589 27.4912 15.6592 27.763 15.6595 27.9836 15.4393 27.9839 15.1675 27.9837 14.8958 27.7638 14.6755 27.4922 14.6748Z" class="MsftOfcResponsive_Fill_7823dc" fill="#7823DC"/><path d="M24.936 20.657 22.936 20.657 22.936 17.547 25.373 15.292 26.731 16.76 24.936 18.421 24.936 20.657Z" class="MsftOfcResponsive_Fill_7823dc" fill="#7823DC"/><path d="M32.048 20.657 30.048 20.657 30.048 18.421 28.253 16.76 29.611 15.292 32.048 17.547 32.048 20.657Z" class="MsftOfcResponsive_Fill_7823dc" fill="#7823DC"/><path d="M25.179 10.856 25.179 7.653 27.179 7.653 27.179 8.856 27.804 8.855 27.804 5.884 29.804 5.884 29.804 10.855 25.179 10.856Z" class="MsftOfcResponsive_Fill_7823dc" fill="#7823DC"/><path d="M9.98633 14.3018C6.97371 14.3058 4.52819 11.8669 4.52411 8.85431 4.52003 5.84169 6.95894 3.39617 9.97156 3.39209 9.97648 3.39208 9.98141 3.39208 9.98633 3.39209 10.9927 3.38941 11.9798 3.66776 12.8364 4.1958L23.9375 2.47217C24.5487 0.594641 26.5662-0.431924 28.4437 0.179271 30.3213 0.790467 31.3478 2.80798 30.7366 4.68551 30.1254 6.56304 28.1079 7.5896 26.2304 6.9784 25.9353 6.88235 25.654 6.74828 25.3935 6.57959L15.3003 10.0801C14.7237 12.5502 12.5229 14.2987 9.98633 14.3018ZM9.98633 5.39209C8.08084 5.39452 6.53811 6.9412 6.54055 8.84668 6.54298 10.7522 8.08965 12.2949 9.99514 12.2925 11.9006 12.29 13.4434 10.7434 13.4409 8.83787 13.4405 8.53831 13.4011 8.24007 13.3237 7.95068L15.2554 7.43115C15.3003 7.59863 15.3372 7.76839 15.3662 7.94043L25.8203 4.31443 26.2612 4.72898C26.4538 4.9105 26.6897 5.03976 26.9463 5.10447 27.7898 5.32165 28.6496 4.81393 28.8668 3.97046 29.0839 3.12698 28.5762 2.26715 27.7328 2.04997 26.8893 1.8328 26.0295 2.34051 25.8123 3.18399 25.8122 3.18435 25.8121 3.1847 25.812 3.18506 25.7916 3.2693 25.7779 3.35502 25.771 3.44141L25.7026 4.22217 12.3501 6.29541 12.0161 6.05176C11.4271 5.62119 10.7159 5.39006 9.98633 5.39209Z" class="MsftOfcResponsive_Fill_7823dc" fill="#7823DC"/></svg>