<svg viewBox="0 0 32 32" xmlns="http://www.w3.org/2000/svg" xmlns:xlink="http://www.w3.org/1999/xlink" id="Layer_1" overflow="hidden"><rect x="8.8" y="17" width="2" height="2" fill="#7823DC"/><rect x="19.6" y="17" width="2" height="2" fill="#7823DC"/><rect x="4" y="15" width="22.8" height="2" fill="#7823DC"/><path d="M11.5 6.5C11.4 6.3 11.2 6.2 11 6 10.7 5.7 10.3 5.5 9.9 5.4 9.3 5.1 8.7 5 8 5 5.2 5 3 7.2 3 10 3 12.8 5.2 15 8 15 10.8 15 13 12.8 13 10 13 8.6 12.4 7.4 11.5 6.5ZM8 13C6.3 13 5 11.7 5 10 5 8.3 6.3 7 8 7 8.2 7 8.5 7 8.7 7.1 9.4 7.3 9.9 7.7 10.4 8.2 10.8 8.7 11 9.3 11 10 11 11.7 9.7 13 8 13Z" fill="#7823DC"/><path d="M22 5C21.5 5 21 5.1 20.5 5.2 20 5.4 19.4 5.7 19 6 18.9 6.1 18.8 6.1 18.8 6.2 17.7 7.1 17 8.5 17 10 17 12.8 19.2 15 22 15 24.8 15 27 12.8 27 10 27 7.2 24.8 5 22 5ZM22 13C20.3 13 19 11.7 19 10 19 9.2 19.3 8.5 19.8 8 20.2 7.5 20.8 7.1 21.5 7 21.7 7 21.8 7 22 7 23.7 7 25 8.3 25 10 25 11.7 23.7 13 22 13Z" fill="#7823DC"/><path d="M21.1 10.5 16.1 1.5 17 0 23 0 23.9 1.3 22.9 4.3 21.1 3.7 21.6 2 18.7 2 22.9 9.5Z" fill="#7823DC"/><rect x="11" y="4" width="8" height="2" fill="#7823DC"/><rect x="6.4" y="6" width="7.2" height="2" fill="#7823DC" transform="matrix(0.5547 -0.8321 0.8321 0.5547 -1.3714 11.4376)"/><rect x="9" y="2" width="4" height="2" fill="#7823DC"/><path d="M32 28.3 32 32 30 32 30 29.7 28.3 29 28.4 29 28.4 27 24.9 27 21.9 21 16 21 16 20 14 20 14 21 8.5 21 5.3 27 3 27 7.3 19 23.2 19 26.7 26.2Z" fill="#7823DC"/><path d="M5.3 27 4.2 29 2 29 2 32 0 32 0 27Z" fill="#7823DC"/><rect x="14" y="20" width="2" height="1" fill="#7823DC"/><path d="M24.9 27 28.4 27 28.4 29 28.3 29 25.2 27.8Z" fill="#7823DC"/><rect x="0" y="27" width="28.4" height="2" fill="#7823DC"/><rect x="14" y="20" width="2" height="12" fill="#7823DC"/><rect x="30" y="32" width="2" height="0" fill="#7823DC" fill-rule="evenodd" clip-rule="evenodd"/></svg>