<svg viewBox="0 0 32 32" xmlns="http://www.w3.org/2000/svg" xmlns:xlink="http://www.w3.org/1999/xlink" overflow="hidden"><defs></defs><g id="Graphic"><path d="M8 12 8 10C8 5.58172 11.5817 2 16 2 20.4183 2 24 5.58172 24 10L26 10C26 4.47715 21.5228-1.77636e-15 16-1.77636e-15 10.4772-3.55271e-15 6 4.47715 6 10L6 12 2 12 2 32 26 32 28 30 17 30 17 28.2C19.3108 27.8784 21.0615 25.951 21.16 23.62L21.16 16 19.16 16 19.16 22.64 17 22.64 17 16 15 16 15 22.64 12.83 22.64C12.83 20.58 12.83 16 12.83 16L10.83 16C10.83 16 10.83 23.19 10.83 23.62 10.9333 25.9527 12.6872 27.8791 15 28.2L15 30 4 30 4 14 28 14 28 30 30 28 30 12ZM13.07 24.64 18.93 24.64C18.3392 25.6951 17.2085 26.3318 16 26.29 14.7915 26.3318 13.6608 25.6951 13.07 24.64Z" fill="#7823DC"/></g></svg>