<svg viewBox="0 0 32 32" xmlns="http://www.w3.org/2000/svg" xmlns:xlink="http://www.w3.org/1999/xlink" id="Graphic" overflow="hidden"><defs></defs><path d="M30 2 30 10 2 10 2 2 30 2M28 0 0 0 0 12 32 12 32 3.9Z" fill="#7823DC"/><path d="M30 12 30 19.87 2 19.87 2 12 30 12M32 10 0 10 0 21.86 32 21.86 32 10Z" fill="#7823DC"/><path d="M30 22 30 30 2 30 2 22 30 22M32 20 0 20 0 32 32 32 32 20Z" fill="#7823DC"/><path d="M6 4 4 4 4 8 6 8 6 4 6 4Z" fill="#7823DC"/><path d="M10 4 8 4 8 8 10 8 10 4 10 4Z" fill="#7823DC"/><path d="M14 4 12 4 12 8 14 8 14 4 14 4Z" fill="#7823DC"/><path d="M6 14 4 14 4 18 6 18 6 14 6 14Z" fill="#7823DC"/><path d="M10 14 8 14 8 18 10 18 10 14 10 14Z" fill="#7823DC"/><path d="M14 14 12 14 12 18 14 18 14 14 14 14Z" fill="#7823DC"/><path d="M6 24 4 24 4 28 6 28 6 24 6 24Z" fill="#7823DC"/><path d="M10 24 8 24 8 28 10 28 10 24 10 24Z" fill="#7823DC"/><path d="M14 24 12 24 12 28 14 28 14 24 14 24Z" fill="#7823DC"/><path d="M18 4 16 4 16 8 18 8 18 4 18 4Z" fill="#7823DC"/><path d="M18 14 16 14 16 18 18 18 18 14 18 14Z" fill="#7823DC"/><path d="M18 24 16 24 16 28 18 28 18 24 18 24Z" fill="#7823DC"/><path d="M28 4 24 4 24 8 28 8 28 4 28 4Z" fill="#7823DC"/><path d="M28 14 24 14 24 18 28 18 28 14 28 14Z" fill="#7823DC"/><path d="M28 24 24 24 24 28 28 28 28 24 28 24Z" fill="#7823DC"/></svg>