<svg viewBox="0 0 32 32" xmlns="http://www.w3.org/2000/svg" xmlns:xlink="http://www.w3.org/1999/xlink" overflow="hidden"><defs></defs><g id="Grid"><rect x="11.65" y="17.07" width="2" height="5.53" fill="#7823DC"/><path d="M18.45 32C16.2409 32 14.45 30.2091 14.45 28 14.45 25.7909 16.2409 24 18.45 24 20.6591 24 22.45 25.7909 22.45 28 22.45 30.2091 20.6591 32 18.45 32ZM18.45 25.95C17.3454 25.95 16.45 26.8454 16.45 27.95 16.45 29.0546 17.3454 29.95 18.45 29.95 19.5546 29.95 20.45 29.0546 20.45 27.95 20.4229 26.865 19.5353 25.9997 18.45 26Z" fill="#7823DC"/><path d="M7.27 32C5.22105 31.989 3.56901 30.319 3.58005 28.2701 3.5911 26.2211 5.26105 24.5691 7.31 24.5801 9.35112 24.5911 11 26.2489 11 28.29 11 30.339 9.33903 32 7.29005 32.0001 7.28337 32.0001 7.27668 32 7.27 32ZM7.27 26.59C6.32566 26.6011 5.56908 27.3756 5.58015 28.3199 5.59121 29.2643 6.36572 30.0208 7.31006 30.0098 8.25044 29.9988 9.00543 29.2304 9 28.29 9.00015 27.3511 8.23915 26.5899 7.30026 26.5897 7.29018 26.5897 7.28009 26.5898 7.27 26.59Z" fill="#7823DC"/><rect x="9.96" y="27.44" width="5.35" height="2" fill="#7823DC"/><rect x="0" y="27.44" width="5.19" height="2" fill="#7823DC"/><rect x="23.02" y="5.7" width="0.78" height="0.83" fill="#7823DC" transform="matrix(0.551209 0.834367 -0.834367 0.551209 15.61 -16.79)"/><path d="M4.38 23.45 0 16.82 10.66 9.82 15 16.41ZM2.77 17.39 4.94 20.68 12.26 15.84 10.09 12.55Z" fill="#7823DC"/><path d="M12.91 16.82 9.44 11.57 16.78 6.72 20.25 12ZM12.21 12.14 13.48 14.05 17.48 11.41 16.21 9.5Z" fill="#7823DC"/><path d="M25.35 8.46 22 3.41 27 0.1 30.33 5.1ZM24.79 4 25.91 5.71 27.6 4.57 26.47 2.87Z" fill="#7823DC"/><rect x="16" y="5.49" width="10.19" height="4.3" fill="#7823DC" transform="matrix(0.834367 -0.551209 0.551209 0.834367 -0.72 12.9)"/><path d="M0 23.4 0 25.42 24.31 22.39 24.31 27.88 20.9 27.88 20.9 29.88 26.31 29.88 26.31 20.14 0 23.4Z" fill="#7823DC"/></g></svg>