<svg viewBox="0 0 32 32" xmlns="http://www.w3.org/2000/svg" xmlns:xlink="http://www.w3.org/1999/xlink" id="Layer_2_00000144328325245699140920000014890284756443101063_" xml:space="preserve" overflow="hidden"><g><path d="M11.1 10 9.2 9.5 10.2 6.1 22.2 6.1 23.1 9.5 21.1 10 20.6 8.1 11.7 8.1 11.1 10 11.1 10Z" fill="#7823DC" fill-rule="evenodd" clip-rule="evenodd"/><path d="M26.7 14.5 5.3 14.5 6.6 9 25.8 9 26.7 14.5 26.7 14.5 26.7 14.5ZM7.8 12.5 24.4 12.5 24.2 11 8.2 11 7.8 12.5 7.8 12.5 7.8 12.5Z" fill="#7823DC" fill-rule="evenodd" clip-rule="evenodd"/><path d="M20.8 32 11.7 32 7.8 14.9 9.7 14.5 13.2 30 19.2 30 22.4 14.5 24.4 14.9 20.8 32 20.8 32Z" fill="#7823DC" fill-rule="evenodd" clip-rule="evenodd"/><path d="M9.6 20.1 22.1 20.1 22.1 22 9.6 22 9.6 20.1Z" fill="#7823DC" fill-rule="evenodd" clip-rule="evenodd"/><path d="M10.7 25.6 21.3 25.6 21.3 27.6 10.7 27.6 10.7 25.6Z" fill="#7823DC" fill-rule="evenodd" clip-rule="evenodd"/><path d="M13.6 2.3 15.6 2.3 15.6 6 13.6 6 13.6 2.3Z" fill="#7823DC" fill-rule="evenodd" clip-rule="evenodd"/><path d="M16.5 0.1 18.5 0.1 18.5 6 16.5 6 16.5 0.1Z" fill="#7823DC" fill-rule="evenodd" clip-rule="evenodd"/><path d="M9.7 14.5 7.6 14.5 7.8 15.1" fill="#7823DC" fill-rule="evenodd" clip-rule="evenodd"/><path d="M22.4 14.5 24.5 14.5 24.3 15.2" fill="#7823DC" fill-rule="evenodd" clip-rule="evenodd"/></g></svg>