<svg viewBox="0 0 32 32" xmlns="http://www.w3.org/2000/svg" xmlns:xlink="http://www.w3.org/1999/xlink" overflow="hidden"><style>
.MsftOfcResponsive_Fill_7823dc {
 fill:#7823DC; 
}
</style>
<defs></defs><g id="Layer_3"><path d="M15.9505 0 0 7.32 0 32 32 32 32 7.32ZM30 30 2 30 2 8.68 15.9505 2.16 30 8.68Z" class="MsftOfcResponsive_Fill_7823dc" fill="#7823DC"/><rect x="14" y="26" width="4" height="2" class="MsftOfcResponsive_Fill_7823dc" fill="#7823DC"/><path d="M6 10 6 30 8 30 8 24 24 24 24 30 26 30 26 10ZM24 22 8 22 8 20 24 20ZM24 18 8 18 8 16 24 16ZM24 14 8 14 8 12 24 12Z" class="MsftOfcResponsive_Fill_7823dc" fill="#7823DC"/></g></svg>