<svg viewBox="0 0 32 32" xmlns="http://www.w3.org/2000/svg" xmlns:xlink="http://www.w3.org/1999/xlink" overflow="hidden"><defs></defs><g id="Layer_3"><path d="M5 22.1436C3.61929 22.1436 2.5 21.0243 2.5 19.6436 2.5 18.2628 3.61929 17.1436 5 17.1436 6.38071 17.1436 7.5 18.2628 7.5 19.6436 7.49838 21.0236 6.38004 22.1419 5 22.1436ZM5 19.1436C4.72386 19.1436 4.5 19.3674 4.5 19.6436 4.5 19.9197 4.72386 20.1436 5 20.1436 5.27614 20.1436 5.5 19.9197 5.5 19.6436 5.49981 19.3675 5.27606 19.1437 5 19.1436Z" fill="#7823DC"/><path d="M5.12793 15.6138 3.14746 15.3364C3.61974 11.9846 5.37422 8.94687 8.04146 6.86279L9.271 8.43994C7.01348 10.2048 5.52834 12.7764 5.12793 15.6138Z" fill="#7823DC"/><path d="M15.9258 30 15.9214 30C14.2446 30.002 12.5832 29.679 11.0293 29.0488L11.7803 27.1953C13.096 27.7286 14.5027 28.0018 15.9224 28L15.9258 28C17.3441 28.0019 18.7494 27.729 20.064 27.1963L20.815 29.0498C19.2619 29.6794 17.6016 30.0021 15.9258 30Z" fill="#7823DC"/><path d="M26.7681 15.6445C26.3684 12.8071 24.8839 10.2352 22.627 8.46973L23.8575 6.89258C26.5239 8.97774 28.2774 12.0162 28.7486 15.3682Z" fill="#7823DC"/><path d="M4 23.643 3.992 23.643 4 23.654 4 23.643Z" fill="#7823DC"/><path d="M2.458 21.643 1 21.643 1 28.143 3 28.143 3 24.987 1.2 22.587 2.458 21.643Z" fill="#7823DC"/><path d="M7 21.643 7 21.654 7.008 21.643 7 21.643Z" fill="#7823DC"/><path d="M7.542 21.643 8.8 22.587 7 24.987 7 28.143 9 28.143 9 21.643 7.542 21.643Z" fill="#7823DC"/><path d="M5 24.32 3 21.654 3 24.987 5 27.654 7 24.987 7 21.654 5 24.32Z" fill="#7823DC"/><path d="M2.992 21.643 2.458 21.643 1.2 22.587 3 24.987 3 21.654 2.992 21.643Z" fill="#7823DC"/><path d="M7.542 21.643 7.008 21.643 7 21.654 7 24.987 8.8 22.587 7.542 21.643Z" fill="#7823DC"/><path d="M27.0088 22.1436C25.6281 22.1436 24.5088 21.0243 24.5088 19.6436 24.5088 18.2628 25.6281 17.1436 27.0088 17.1436 28.3895 17.1436 29.5088 18.2628 29.5088 19.6436 29.5072 21.0236 28.3888 22.1419 27.0088 22.1436ZM27.0088 19.1436C26.7326 19.1436 26.5088 19.3674 26.5088 19.6436 26.5088 19.9197 26.7326 20.1436 27.0088 20.1436 27.2849 20.1436 27.5088 19.9197 27.5088 19.6436 27.5086 19.3675 27.2849 19.1437 27.0088 19.1436Z" fill="#7823DC"/><path d="M24.467 21.643 23.009 21.643 23.009 28.143 25.009 28.143 25.009 24.987 23.209 22.587 24.467 21.643Z" fill="#7823DC"/><path d="M29.009 21.643 29.009 21.654 29.017 21.643 29.009 21.643Z" fill="#7823DC"/><path d="M29.55 21.643 30.808 22.587 29.009 24.987 29.009 28.143 31.009 28.143 31.009 21.643 29.55 21.643Z" fill="#7823DC"/><path d="M27.009 24.32 25.009 21.654 25.009 24.987 27.009 27.654 29.009 24.987 29.009 21.654 27.009 24.32Z" fill="#7823DC"/><path d="M25.001 21.643 24.467 21.643 23.209 22.587 25.009 24.987 25.009 21.654 25.001 21.643Z" fill="#7823DC"/><path d="M29.55 21.643 29.017 21.643 29.009 21.654 29.009 24.987 30.808 22.587 29.55 21.643Z" fill="#7823DC"/><path d="M16 7C14.6193 7 13.5 5.88071 13.5 4.5 13.5 3.11929 14.6193 2 16 2 17.3807 2 18.5 3.11929 18.5 4.5 18.4984 5.88004 17.38 6.99838 16 7ZM16 4C15.7239 4 15.5 4.22386 15.5 4.5 15.5 4.77614 15.7239 5 16 5 16.2761 5 16.5 4.77614 16.5 4.5 16.4998 4.22394 16.2761 4.00019 16 4Z" fill="#7823DC"/><path d="M13.458 6.5 12 6.5 12 13 14 13 14 9.843 12.2 7.443 13.458 6.5Z" fill="#7823DC"/><path d="M18 6.5 18 6.511 18.008 6.5 18 6.5Z" fill="#7823DC"/><path d="M18.542 6.5 19.8 7.443 18 9.843 18 13 20 13 20 6.5 18.542 6.5Z" fill="#7823DC"/><path d="M16 9.177 14 6.511 14 9.843 16 12.511 18 9.843 18 6.511 16 9.177Z" fill="#7823DC"/><path d="M13.992 6.5 13.458 6.5 12.2 7.443 14 9.843 14 6.511 13.992 6.5Z" fill="#7823DC"/><path d="M18.542 6.5 18.008 6.5 18 6.511 18 9.843 19.8 7.443 18.542 6.5Z" fill="#7823DC"/></g></svg>