<svg width="32.01" height="32" viewBox="0 0 32.01 32" xmlns="http://www.w3.org/2000/svg" xmlns:xlink="http://www.w3.org/1999/xlink" overflow="hidden"><style>
.MsftOfcResponsive_Fill_7823dc {
 fill:#7823DC; 
}
</style>
<defs></defs><g><g><g><path d="M29.4 18.1 20.8 20.81 20.8 19.59 20.8 17.35 18.58 17.6 15.31 17.97 10.15 16.13 9.31 15.83 8.53 16.25 5.3 17.98 2 17.98 0 17.98 0 19.98 0 26.01 0 28.01 2 28.01 5.32 28.01 15.16 32 30.94 23.77 32 23.21 32 22.01 32 20.01 32 17.28 29.4 18.1ZM30 22.01 15.07 29.78 5.74 26.01 2 26.01 2 19.98 5.79 19.98 9.46 18.01 15.06 20.01 18.79 19.59 18.79 21.59 17.71 21.94 13.95 22.7 13.95 24.56 17.9 23.83 17.9 23.82 30 20.01 30 22.01Z" class="MsftOfcResponsive_Fill_7823dc" fill="#7823DC"/></g></g></g><g><g><path d="M25 16.03C23.21 16.03 21.42 15.35 20.05 13.98 17.64 11.57 17.31 7.81 19.26 5.02L20.89 6.16C19.61 8.2 19.75 10.85 21.47 12.57 23.42 14.52 26.59 14.52 28.54 12.57 30.28 10.83 30.5 8.11 29.07 6.12L30.69 4.95C32.7 7.75 32.39 11.54 29.95 13.98 28.58 15.35 26.79 16.03 25 16.03Z" class="MsftOfcResponsive_Fill_7823dc" fill="#7823DC"/></g></g><g><path d="" class="MsftOfcResponsive_Fill_7823dc" fill="#7823DC"/></g><g><path d="" class="MsftOfcResponsive_Fill_7823dc" stroke="#7823DC" stroke-width="2" stroke-miterlimit="10" fill="#7823DC"/></g><g><g><path d="M19.04 5.36 20.76 6.37 25.07 0 22.51 0Z" class="MsftOfcResponsive_Fill_7823dc" fill="#7823DC"/></g><g><path d="M25.07 0 29.39 6.63 31.11 5.62 27.52 0Z" class="MsftOfcResponsive_Fill_7823dc" fill="#7823DC"/></g></g></svg>