<svg viewBox="0 0 32 32" xmlns="http://www.w3.org/2000/svg" xmlns:xlink="http://www.w3.org/1999/xlink" id="Layer_1" overflow="hidden"><path d="M23 8 23 30 9 30 9 8 23 8M25 6 7 6 7 32 25 32 25 6 25 6Z" fill="#7823DC"/><path d="M30 12 30 30 25 30 25 12 30 12M32 10 23 10 23 32 32 32 32 10 32 10Z" fill="#7823DC"/><path d="M16 29 16 30 16 29M18 27 14 27 14 32 18 32 18 27 18 27Z" fill="#7823DC"/><path d="M5.5 14 3.5 14 3.5 16 5.5 16 5.5 14Z" fill="#7823DC"/><path d="M5.5 18 3.5 18 3.5 20 5.5 20 5.5 18Z" fill="#7823DC"/><path d="M5.5 22 3.5 22 3.5 24 5.5 24 5.5 22Z" fill="#7823DC"/><path d="M28.5 14 26.5 14 26.5 16 28.5 16 28.5 14Z" fill="#7823DC"/><path d="M13 10 11 10 11 12 13 12 13 10Z" fill="#7823DC"/><path d="M17 10 15 10 15 12 17 12 17 10Z" fill="#7823DC"/><path d="M21 10 19 10 19 12 21 12 21 10Z" fill="#7823DC"/><path d="M13 14 11 14 11 16 13 16 13 14Z" fill="#7823DC"/><path d="M17 14 15 14 15 16 17 16 17 14Z" fill="#7823DC"/><path d="M21 14 19 14 19 16 21 16 21 14Z" fill="#7823DC"/><path d="M13 18 11 18 11 20 13 20 13 18Z" fill="#7823DC"/><path d="M17 18 15 18 15 20 17 20 17 18Z" fill="#7823DC"/><path d="M21 18 19 18 19 20 21 20 21 18Z" fill="#7823DC"/><path d="M13 22 11 22 11 24 13 24 13 22Z" fill="#7823DC"/><path d="M17 22 15 22 15 24 17 24 17 22Z" fill="#7823DC"/><path d="M21 22 19 22 19 24 21 24 21 22Z" fill="#7823DC"/><path d="M28.5 18 26.5 18 26.5 20 28.5 20 28.5 18Z" fill="#7823DC"/><path d="M28.5 22 26.5 22 26.5 24 28.5 24 28.5 22Z" fill="#7823DC"/><path d="M7 12 7 30 2 30 2 12 7 12M9 10 0 10 0 32 9 32 9 10 9 10Z" fill="#7823DC"/><path d="M16 0 16.6 1.3 18 1.5 17 2.6 17.2 4 16 3.3 14.8 4 15 2.6 14 1.5 15.4 1.3Z" fill="#7823DC"/><path d="M22.5 1 23 2 24 2.1 23.2 2.9 23.4 4 22.5 3.5 21.6 4 21.8 2.9 21 2.1 22 2Z" fill="#7823DC"/><path d="M27.5 3 28 4 29 4.1 28.2 4.9 28.4 6 27.5 5.5 26.6 6 26.8 4.9 26 4.1 27 4Z" fill="#7823DC"/><path d="M9.5 1 10 2 11 2.1 10.2 2.9 10.4 4 9.5 3.5 8.6 4 8.8 2.9 8 2.1 9 2Z" fill="#7823DC"/><path d="M4.5 3 5 4 6 4.1 5.2 4.9 5.4 6 4.5 5.5 3.6 6 3.8 4.9 3 4.1 4 4Z" fill="#7823DC"/></svg>