<svg viewBox="0 0 32 32" xmlns="http://www.w3.org/2000/svg" xmlns:xlink="http://www.w3.org/1999/xlink" id="Layer_5" overflow="hidden"><style>
.MsftOfcResponsive_Fill_7823dc {
 fill:#7823DC; 
}
</style>
<defs></defs><path d="M26.49 12.02 26.49 10.75 27.38 10.75C28.83 10.75 30 9.57 30 8.13L30 4.63C30 3.6 29.4 2.71 28.53 2.28L28.53 0 24 0 24 2 20.53 2 20.53 0 16 0 16 2.08C14.85 2.36 14 3.39 14 4.62L14 6 10 6 10 4 4 4 4 10 6 10 6 12 5.9 12C2.64 12 0 14.64 0 17.9L0 22.11C0 25.36 2.64 28 5.9 28L6 28 6 32 11.83 32 11.83 28 19.72 28C20.32 30.29 22.39 32 24.87 32 27.82 32 30.22 29.6 30.22 26.65 30.22 26.54 30.19 26.44 30.19 26.33 31.3 25.26 32 23.77 32 22.1L32 17.89C32 14.77 29.56 12.21 26.49 12.01ZM24.49 12 19.51 12 19.51 10.75 24.49 10.75 24.49 12ZM23.72 5.37 20.28 5.37 20.28 4 23.72 4 23.72 5.37ZM20.28 7.37 23.72 7.37 23.72 8.75 20.28 8.75 20.28 7.37ZM28 8.12C28 8.46 27.72 8.74 27.38 8.74L25.72 8.74 25.72 4 27.38 4C27.72 4 28 4.28 28 4.62L28 8.12ZM16 4.62C16 4.28 16.28 4 16.62 4L18.28 4 18.28 8.75 16.62 8.75C16.28 8.75 16 8.47 16 8.13L16 4.63ZM6 6 8 6 8 8 6 8 6 6ZM8 10 10 10 10 8 14 8 14 8.13C14 9.58 15.18 10.75 16.62 10.75L17.51 10.75 17.51 12 8 12 8 10ZM2 22.1 2 17.89C2 16.43 2.81 15.18 4 14.51L4 25.48C2.81 24.81 2 23.55 2 22.1ZM9.83 30 8 30 8 28 9.83 28 9.83 30ZM19.59 26 6 26 6 14 26 14 26 21.43C25.64 21.35 25.26 21.31 24.88 21.31 22.16 21.31 19.93 23.37 19.6 26ZM24.87 30C23.02 30 21.52 28.5 21.52 26.65 21.52 24.8 23.02 23.3 24.87 23.3 26.72 23.3 28.22 24.8 28.22 26.65 28.22 28.5 26.72 30 24.87 30ZM27.99 22.33 27.99 14.51C29.18 15.18 29.99 16.44 29.99 17.89L29.99 22.1C29.99 22.79 29.79 23.43 29.48 23.99 29.1 23.34 28.6 22.77 27.99 22.33Z" class="MsftOfcResponsive_Fill_7823dc" fill="#7823DC"/><rect x="8" y="16" width="16" height="2" class="MsftOfcResponsive_Fill_7823dc" fill="#7823DC"/><rect x="8" y="20" width="13.38" height="2" class="MsftOfcResponsive_Fill_7823dc" fill="#7823DC"/><path d="M24.88 25.38C24.13 25.38 23.52 25.99 23.52 26.74 23.52 27.49 24.13 28.1 24.88 28.1 25.63 28.1 26.24 27.49 26.24 26.74 26.24 25.99 25.63 25.38 24.88 25.38Z" class="MsftOfcResponsive_Fill_7823dc" fill="#7823DC"/></svg>