<svg viewBox="0 0 32.06 31.98" xmlns="http://www.w3.org/2000/svg" xmlns:xlink="http://www.w3.org/1999/xlink" id="Layer_1" overflow="hidden"><style>
.MsftOfcResponsive_Fill_7823dc {
 fill:#7823DC; 
}
</style>
<defs></defs><path d="M25.17 24.96C25 24.99 24.82 25 24.65 25L17.17 25C16.83 25 16.48 24.93 16.15 24.8 14.89 24.42 14.01 23.29 13.94 21.98 12.82 21.32 12.19 19.92 12.48 18.62 11.58 18.25 10.88 17.5 10.64 16.55 10.5 15.98 10.51 15.41 10.66 14.88L3.11 14.88C2.2 14.88 1.34 14.48 0.75 13.79 0.15 13.09-0.1 12.17 0.04 11.24 0.28 9.75 1.64 8.63 3.21 8.63L19.48 8.63C19.04 7.46 18.52 5.81 18.52 4.53 18.52 1.44 20.1 0.47 21.04 0.16 22.2-0.22 23.59 0.08 24.13 0.83 24.23 0.97 24.29 1.12 24.31 1.29 24.91 6.03 25.7 6.61 27.43 7.87L27.84 8.17C30.49 10.14 32.01 13.09 32.01 16.27 32.01 20.58 29.07 24.31 25.19 24.95ZM21.42 2.16C20.67 2.57 20.51 3.67 20.51 4.53 20.51 5.93 21.5 8.38 21.88 9.21 22.02 9.52 22 9.88 21.81 10.17 21.63 10.46 21.31 10.63 20.97 10.63L3.21 10.63C2.62 10.63 2.1 11.04 2.01 11.56 1.96 11.91 2.05 12.24 2.26 12.49 2.47 12.74 2.78 12.88 3.1 12.88L12.54 12.88C12.99 12.88 13.4 13.23 13.52 13.67 13.64 14.1 13.46 14.56 13.07 14.79 12.74 14.99 12.41 15.44 12.56 16.06 12.7 16.59 13.26 16.87 13.85 16.87 14.29 16.87 14.69 17.22 14.83 17.64 14.93 17.96 14.87 18.31 14.65 18.58 14.53 18.73 14.39 18.97 14.39 19.29 14.39 19.8 14.73 20.25 15.23 20.37 15.75 20.5 16.08 21.03 15.96 21.56 15.94 21.66 15.93 21.74 15.93 21.81 15.93 22.31 16.27 22.75 16.75 22.89 16.79 22.9 16.83 22.92 16.87 22.93 16.97 22.97 17.08 23 17.17 23L24.65 23C24.71 23 24.78 23 24.84 22.99 27.78 22.51 29.99 19.63 29.99 16.28 29.99 13.74 28.76 11.37 26.63 9.78L26.23 9.48C24.13 7.94 23.06 6.95 22.37 2.02 22.13 1.97 21.76 1.97 21.42 2.15ZM22.58 2.1 22.58 2.1Z" class="MsftOfcResponsive_Fill_7823dc" fill="#7823DC"/><rect x="2.8" y="27" width="29.26" height="2" class="MsftOfcResponsive_Fill_7823dc" fill="#7823DC" transform="matrix(-1 -1.22465e-16 1.22465e-16 -1 34.86 55.99)"/><path d="M7.45 30.3 3.9 28 7.45 25.69 6.36 24.01 0.22 28 6.36 31.98 7.45 30.3Z" class="MsftOfcResponsive_Fill_7823dc" fill="#7823DC"/></svg>