<svg viewBox="0 0 32 32" xmlns="http://www.w3.org/2000/svg" xmlns:xlink="http://www.w3.org/1999/xlink" id="Layer_2" overflow="hidden"><style>
.MsftOfcResponsive_Fill_7823dc {
 fill:#7823DC; 
}
</style>
<defs></defs><path d="M11.49 19C11.49 21.48 13.5 23.49 15.99 23.49 18.47 23.49 20.49 21.48 20.49 19 20.49 16.52 18.48 14.51 15.99 14.51 13.5 14.51 11.49 16.52 11.49 19ZM15.99 16.5C17.37 16.5 18.49 17.62 18.49 19 18.49 20.38 17.37 21.5 15.99 21.5 14.61 21.5 13.49 20.38 13.49 19 13.49 17.62 14.61 16.5 15.99 16.5Z" class="MsftOfcResponsive_Fill_7823dc" fill="#7823DC"/><path d="M23 19C23 20.65 24.34 21.99 26 21.99 27.66 21.99 29 20.65 29 19 29 17.35 27.66 16.01 26 16.01 24.34 16.01 23 17.35 23 19ZM27 19C27 19.55 26.55 20 26 20 25.45 20 25 19.55 25 19 25 18.45 25.45 18 26 18 26.55 18 27 18.45 27 19Z" class="MsftOfcResponsive_Fill_7823dc" fill="#7823DC"/><path d="M5.99 22C7.65 22 8.99 20.66 8.99 19.01 8.99 17.36 7.65 16.02 5.99 16.02 4.33 16.02 2.99 17.36 2.99 19.01 2.99 20.66 4.33 22 5.99 22ZM5.99 18.01C6.54 18.01 6.99 18.46 6.99 19.01 6.99 19.56 6.54 20.01 5.99 20.01 5.44 20.01 4.99 19.56 4.99 19.01 4.99 18.46 5.44 18.01 5.99 18.01Z" class="MsftOfcResponsive_Fill_7823dc" fill="#7823DC"/><path d="M8 31.97 10 31.97 10 28.98 22 28.98 22 32 24 32 24 26.99 8 26.99 8 31.97Z" class="MsftOfcResponsive_Fill_7823dc" fill="#7823DC"/><path d="M28.03 22.99 20 22.99 20 25.99 22 25.99 22 24.99 30 24.99 30 30.98 32 30.98 32 26.95 28.03 22.99Z" class="MsftOfcResponsive_Fill_7823dc" fill="#7823DC"/><path d="M10 25.99 12 25.99 12 22.99 3.99 22.99 0 27 0 30.98 2 30.98 2 24.99 10 24.99 10 25.99Z" class="MsftOfcResponsive_Fill_7823dc" fill="#7823DC"/><path d="M8.18 11.47 6.43 13.11 8.04 15.89 9.77 14.89 8.96 13.48 10.42 12.11 10.25 11.52C10.14 11.14 10.07 10.73 10.04 10.32L10 9.71 8.15 8.92 8.29 8.1 10.29 7.99 10.54 7.43C10.71 7.06 10.91 6.71 11.15 6.37L11.51 5.88 10.6 4.09 11.24 3.55 12.84 4.76 13.39 4.49C13.75 4.31 14.14 4.17 14.53 4.07L15.12 3.92 15.57 1.96 16.4 1.96 16.85 3.92 17.44 4.07C17.83 4.17 18.22 4.31 18.58 4.49L19.13 4.76 20.73 3.55 21.37 4.08 20.46 5.87 20.82 6.37C21.06 6.7 21.27 7.06 21.43 7.43L21.68 7.99 23.68 8.1 23.82 8.92 21.97 9.71 21.93 10.32C21.9 10.73 21.83 11.13 21.72 11.52L21.55 12.11 23.01 13.48 22.2 14.89 23.93 15.89 25.54 13.11 23.79 11.47C23.81 11.35 23.84 11.22 23.86 11.09L26.07 10.15 25.37 6.2 22.97 6.07C22.91 5.96 22.84 5.85 22.78 5.74L23.87 3.6 20.8 1.02 18.88 2.46C18.76 2.41 18.64 2.37 18.52 2.33L17.98-0.01 13.97-0.01 13.43 2.33C13.31 2.37 13.19 2.41 13.07 2.46L11.15 1.02 8.08 3.6 9.17 5.74C9.1 5.85 9.04 5.96 8.98 6.07L6.58 6.2 5.88 10.15 8.09 11.09C8.11 11.22 8.13 11.34 8.16 11.47Z" class="MsftOfcResponsive_Fill_7823dc" fill="#7823DC"/><path d="M19.14 9.84C19.14 8.11 17.73 6.7 16 6.7 14.27 6.7 12.86 8.11 12.86 9.84 12.86 11.57 14.27 12.98 16 12.98 17.73 12.98 19.14 11.57 19.14 9.84ZM14.86 9.84C14.86 9.21 15.37 8.7 16 8.7 16.63 8.7 17.14 9.21 17.14 9.84 17.14 10.47 16.63 10.98 16 10.98 15.37 10.98 14.86 10.47 14.86 9.84Z" class="MsftOfcResponsive_Fill_7823dc" fill="#7823DC"/></svg>