<svg viewBox="0 0 32 32" xmlns="http://www.w3.org/2000/svg" xmlns:xlink="http://www.w3.org/1999/xlink" id="Graphic" overflow="hidden"><defs></defs><path d="M26.73 8.11 24.73 11.94 24.27 12.84 24.71 13.74 26.76 17.89 18 17.89 18 8.11 26.73 8.11M30.01 6.11 16 6.11 16 19.89 30 19.89 26.53 12.89 30 6.11Z" fill="#7823DC"/><path d="M4 18 2.02 18 2.02 32 4 32 4 18 4 18Z" fill="#7823DC"/><path d="M4 0 2 0 2 5 4 5 4 0 4 0Z" fill="#7823DC"/><path d="M16 6 16 16 4 16 4 6 16 6M18 4 2 4 2 18 18 18 18 4Z" fill="#7823DC"/></svg>