<svg viewBox="0 0 32 32" xmlns="http://www.w3.org/2000/svg" xmlns:xlink="http://www.w3.org/1999/xlink" id="Layer_1" overflow="hidden"><style>
.MsftOfcResponsive_Fill_7823dc {
 fill:#7823DC; 
}
</style>
<path d="M16 10C13.24 10 11 7.76 11 5 11 2.24 13.24 0 16 0 18.76 0 21 2.24 21 5 21 7.76 18.76 10 16 10ZM16 2C14.35 2 13 3.35 13 5 13 6.65 14.35 8 16 8 17.65 8 19 6.65 19 5 19 3.35 17.65 2 16 2Z" class="MsftOfcResponsive_Fill_7823dc" fill="#7823DC"/><path d="M32 32 0 32 0 17 13.28 17 13.28 19 2 19 2 30 30 30 30 19 18.72 19 18.72 17 32 17 32 32Z" class="MsftOfcResponsive_Fill_7823dc" fill="#7823DC"/><rect x="5.52" y="22.66" width="2" height="4.68" class="MsftOfcResponsive_Fill_7823dc" fill="#7823DC"/><rect x="4" y="24" width="5.04" height="2" class="MsftOfcResponsive_Fill_7823dc" fill="#7823DC"/><circle cx="23" cy="25" r="1" class="MsftOfcResponsive_Fill_7823dc" fill="#7823DC"/><circle cx="27.01" cy="25" r="1" class="MsftOfcResponsive_Fill_7823dc" fill="#7823DC"/><circle cx="25" cy="23" r="1" class="MsftOfcResponsive_Fill_7823dc" fill="#7823DC"/><circle cx="25" cy="27" r="1" class="MsftOfcResponsive_Fill_7823dc" fill="#7823DC"/><path d="M16 26.01C14.35 26.01 13 24.66 13 23.01L13 9 15 9 15 23.01C15 23.56 15.45 24.01 16 24.01 16.55 24.01 17 23.56 17 23.01L17 9 19 9 19 23.01C19 24.66 17.65 26.01 16 26.01Z" class="MsftOfcResponsive_Fill_7823dc" fill="#7823DC"/></svg>