<svg viewBox="0 0 32 32" xmlns="http://www.w3.org/2000/svg" xmlns:xlink="http://www.w3.org/1999/xlink" id="Layer_1" xml:space="preserve" overflow="hidden"><path d="M4.6 0.4 4.6 7.5 2.6 7.5 2.6 2.9C2.3 3.1 2 3.3 1.7 3.5 1.4 3.7 1 3.8 0.6 3.9L0.6 2.3C1.3 2.1 1.8 1.8 2.1 1.5 2.5 1.2 2.7 0.9 3 0.4L4.6 0.4 4.6 0.4 4.6 0.4Z" fill="#7823DC" fill-rule="evenodd" clip-rule="evenodd"/><path d="M5.8 19.6 0 19.6C0.1 19 0.3 18.5 0.6 18 0.9 17.5 1.6 16.9 2.5 16.2 3.1 15.8 3.4 15.4 3.6 15.2 3.8 15 3.8 14.8 3.8 14.6 3.8 14.4 3.7 14.2 3.6 14 3.4 13.8 3.2 13.8 3 13.8 2.8 13.8 2.5 13.9 2.4 14 2.2 14.2 2.1 14.4 2.1 14.8L0.2 14.6C0.3 14 0.4 13.6 0.6 13.3 0.8 13 1.1 12.8 1.5 12.6 1.9 12.4 2.4 12.4 3 12.4 3.7 12.4 4.2 12.5 4.6 12.6 5 12.8 5.3 13 5.5 13.4 5.7 13.7 5.8 14.1 5.8 14.5 5.8 14.9 5.7 15.3 5.4 15.7 5.1 16.1 4.7 16.5 4 17 3.6 17.3 3.4 17.5 3.2 17.6 3.1 17.7 3 17.8 2.8 18L5.8 18 5.8 19.6 5.8 19.6 5.8 19.6Z" fill="#7823DC" fill-rule="evenodd" clip-rule="evenodd"/><path d="M2.1 26.5 0.3 26.2C0.4 25.6 0.8 25.2 1.2 24.9 1.6 24.6 2.3 24.4 3 24.4 3.9 24.4 4.6 24.6 5 24.9 5.4 25.2 5.6 25.7 5.6 26.2 5.6 26.5 5.5 26.8 5.4 27 5.2 27.2 5 27.5 4.7 27.6 5 27.7 5.2 27.7 5.3 27.8 5.5 27.9 5.7 28.1 5.8 28.4 5.9 28.6 6 28.9 6 29.2 6 29.6 5.9 30 5.7 30.4 5.5 30.8 5.2 31.1 4.8 31.3 4.4 31.5 3.9 31.6 3.2 31.6 2.6 31.6 2.1 31.5 1.7 31.4 1.3 31.3 1 31 0.8 30.7 0.6 30.4 0.4 30.1 0.2 29.6L2.1 29.3C2.2 29.7 2.3 30 2.5 30.1 2.7 30.3 2.9 30.3 3.1 30.3 3.4 30.3 3.6 30.2 3.7 30 3.9 30 4 29.7 4 29.4 4 29.1 3.9 28.8 3.7 28.6 3.5 28.4 3.3 28.3 3 28.3 2.9 28.3 2.6 28.3 2.4 28.4L2.5 27C2.6 27 2.7 27 2.8 27 3.1 27 3.3 26.9 3.4 26.8 3.6 26.6 3.7 26.4 3.7 26.2 3.7 26 3.6 25.8 3.5 25.7 3.4 25.6 3.2 25.5 3 25.5 2.8 25.5 2.6 25.6 2.4 25.7 2.2 25.9 2.1 26.2 2.1 26.5L2.1 26.5Z" fill="#7823DC" fill-rule="evenodd" clip-rule="evenodd"/><path d="M30 2 30 6 10 6 10 2 30 2M32 0 8 0 8 8 32 8 32 0 32 0Z" fill="#7823DC"/><path d="M25 14 25 18 10 18 10 14 25 14M27 12 8 12 8 20 27 20 27 12 27 12Z" fill="#7823DC"/><path d="M20 26 20 30 10 30 10 26 20 26M22 24 8 24 8 32 22 32 22 24 22 24Z" fill="#7823DC"/></svg>