<svg width="36.5" height="36.6" viewBox="0 0 36.5 36.6" xmlns="http://www.w3.org/2000/svg" xmlns:xlink="http://www.w3.org/1999/xlink" overflow="hidden"><defs></defs><g><g><defs><path d="M0 36.5 36.5 36.5 36.5 0 0 0 0 36.5Z" id="SVGID_1_" fill="#7823DC"/></defs><clipPath id="SVGID_2_"><use width="100%" height="100%" xlink:href="#SVGID_1_"></use></clipPath><g clip-path="url(#SVGID_2_)"><defs><path d="M0 36.5 36.5 36.5 36.5 0 0 0 0 36.5Z" id="SVGID_3_" fill="#7823DC"/></defs><clipPath id="SVGID_4_"><use width="100%" height="100%" xlink:href="#SVGID_3_"></use></clipPath><path d="M29.7 2.3 29.7 16 6.9 16 6.9 2.3 29.7 2.3M27.5 0 4.7 0 4.7 18.3 32 18.3 32 4.6 27.5 0 27.5 0Z" fill="#7823DC" clip-path="url(#SVGID_4_)"/><path d="M12.5 19.8C10.6 19.8 9.1 21.3 9.1 23.2 9.1 25.1 10.6 26.6 12.5 26.6 14.4 26.6 15.9 25.1 15.9 23.2 16 21.3 14.4 19.8 12.5 19.8L12.5 19.8ZM12.5 24.4C11.9 24.4 11.4 23.9 11.4 23.3 11.4 22.7 11.9 22.2 12.5 22.2 13.1 22.2 13.6 22.7 13.6 23.3 13.7 23.8 13.2 24.4 12.5 24.4L12.5 24.4Z" fill="#7823DC" clip-path="url(#SVGID_4_)"/><path d="M24 19.8C22.1 19.8 20.6 21.3 20.6 23.2 20.6 25.1 22.1 26.6 24 26.6 25.9 26.6 27.4 25.1 27.4 23.2 27.5 21.3 25.9 19.8 24 19.8L24 19.8ZM24 24.4C23.4 24.4 22.9 23.9 22.9 23.3 22.9 22.7 23.4 22.2 24 22.2 24.6 22.2 25.1 22.7 25.1 23.3 25.2 23.8 24.7 24.4 24 24.4L24 24.4Z" fill="#7823DC" clip-path="url(#SVGID_4_)"/><path d="M11.1 14.3 25.6 14.3C26.6 14.3 27.5 13.5 27.5 12.4L27.5 7.1C27.5 6.1 26.7 5.2 25.6 5.2L11.1 5.2C10.1 5.2 9.2 6 9.2 7.1 9.2 7.1 9.2 7.1 9.2 7.1L9.2 12.4C9.2 13.4 10 14.3 11.1 14.3L11.1 14.3ZM25.1 12 19.3 12 19.3 7.4 25.1 7.4 25.1 12 25.1 12ZM11.5 7.4 17.1 7.4 17.1 12 11.5 12 11.5 7.4 11.5 7.4Z" fill="#7823DC" clip-path="url(#SVGID_4_)"/><path d="M4.6 16 4.6 27C4.6 28.5 5.8 29.7 7.3 29.7L10 29.7 7.2 36.6 9.7 36.6 10.6 34.3 26 34.3 26.9 36.6 29.4 36.6 26.6 29.7 29.3 29.7C30.8 29.7 32 28.5 32 26.9L32 16M25.1 32 11.6 32 12.6 29.7 24.2 29.7 25.1 32 25.1 32ZM29.3 27.4 7.4 27.4C7.1 27.4 6.9 27.2 6.9 26.9L6.9 18.2 29.7 18.2 29.7 27C29.7 27.2 29.5 27.4 29.3 27.4L29.3 27.4Z" fill="#7823DC" clip-path="url(#SVGID_4_)"/></g></g></g></svg>