<svg viewBox="0 0 32 32" xmlns="http://www.w3.org/2000/svg" xmlns:xlink="http://www.w3.org/1999/xlink" xml:space="preserve" overflow="hidden"><style>
.MsftOfcResponsive_Fill_7823dc {
 fill:#7823DC; 
}
</style>
<g id="Layer_3"></g><g id="Layer_1"><rect x="0.06" y="19.39" width="14.53" height="2" class="st1 MsftOfcResponsive_Fill_7823dc" fill="#7823DC"/><path d="M10 24.26C9.67 24.26 9.34 24.09 9.15 23.79 8.86 23.32 9 22.7 9.47 22.41L12.71 20.39 9.47 18.37C9 18.08 8.86 17.46 9.15 16.99 9.44 16.52 10.06 16.38 10.53 16.67L16.48 20.39 10.53 24.11C10.37 24.21 10.18 24.26 10 24.26Z" class="st1 MsftOfcResponsive_Fill_7823dc" fill="#7823DC"/><rect x="17.72" y="0.06" width="2" height="9.95" class="st1 MsftOfcResponsive_Fill_7823dc" fill="#7823DC"/><rect x="17.72" y="22.02" width="2" height="9.98" class="st1 MsftOfcResponsive_Fill_7823dc" fill="#7823DC"/><rect x="0.06" y="11.31" width="14.53" height="2" class="st1 MsftOfcResponsive_Fill_7823dc" fill="#7823DC"/><path d="M10 16.17C9.67 16.17 9.34 16 9.15 15.7 8.86 15.23 9 14.62 9.47 14.32L12.71 12.3 9.47 10.28C9.01 9.99 8.86 9.37 9.16 8.91 9.45 8.44 10.07 8.3 10.54 8.59L16.49 12.31 10.54 16.03C10.37 16.13 10.18 16.17 10 16.17Z" class="st1 MsftOfcResponsive_Fill_7823dc" fill="#7823DC"/><path d="M22.87 18.84 22.53 18.79 21.73 18.63 21.73 5.9 22.87 5.69C26.51 5.69 29.48 8.64 29.48 12.26 29.47 15.89 26.51 18.84 22.87 18.84ZM23.72 7.77 23.72 16.75C25.85 16.35 27.47 14.49 27.47 12.26 27.47 10.03 25.85 8.17 23.72 7.77Z" class="st1 MsftOfcResponsive_Fill_7823dc" fill="#7823DC"/><path d="M22.87 26.31 22.53 26.26 21.72 26.1 21.72 13.38 22.86 13.17C26.5 13.17 29.47 16.12 29.47 19.74 29.47 23.36 26.51 26.31 22.87 26.31ZM23.72 15.24 23.72 24.22C25.85 23.82 27.47 21.96 27.47 19.73 27.47 17.5 25.85 15.64 23.72 15.24Z" class="st1 MsftOfcResponsive_Fill_7823dc" fill="#7823DC"/></g><g id="Layer_2"></g></svg>