<svg width="36.5" height="36.6" viewBox="0 0 36.5 36.6" xmlns="http://www.w3.org/2000/svg" xmlns:xlink="http://www.w3.org/1999/xlink" overflow="hidden"><defs></defs><g><g><defs><path d="M0 36.5 36.5 36.5 36.5 0 0 0 0 36.5Z" id="SVGID_1_" fill="#7823DC"/></defs><clipPath id="SVGID_2_"><use width="100%" height="100%" xlink:href="#SVGID_1_"></use></clipPath><g clip-path="url(#SVGID_2_)"><defs><path d="M0 36.5 36.5 36.5 36.5 0 0 0 0 36.5Z" id="SVGID_3_" fill="#7823DC"/></defs><clipPath id="SVGID_4_"><use width="100%" height="100%" xlink:href="#SVGID_3_"></use></clipPath><path d="M17.1 29.8 19.4 29.8 19.4 32 17.1 32 17.1 29.8Z" fill="#7823DC" clip-path="url(#SVGID_4_)"/><path d="M17.1 34.3 19.4 34.3 19.4 36.6 17.1 36.6 17.1 34.3Z" fill="#7823DC" clip-path="url(#SVGID_4_)"/><path d="M15.4 20.4 13.2 20.4 13.2 25 15.4 25 15.4 20.4 15.4 20.4 15.4 20.4Z" fill="#7823DC" clip-path="url(#SVGID_4_)"/><path d="M14.8 23.4 13.2 25 16.4 28.2 18 26.6 14.8 23.4 14.8 23.4 14.8 23.4Z" fill="#7823DC" clip-path="url(#SVGID_4_)"/><path d="M23.3 25 21.7 23.4 18.5 26.6 20.1 28.2 23.3 25 23.3 25 23.3 25Z" fill="#7823DC" clip-path="url(#SVGID_4_)"/><path d="M23.3 20.4 21 20.4 21 25 23.3 25 23.3 20.4 23.3 20.4 23.3 20.4Z" fill="#7823DC" clip-path="url(#SVGID_4_)"/><path d="M9.1 9.1 11.4 9.1 11.4 20.8 9.1 20.8 9.1 9.1Z" fill="#7823DC" clip-path="url(#SVGID_4_)"/><path d="M25.1 9.1 27.4 9.1 27.4 20.8 25.1 20.8 25.1 9.1Z" fill="#7823DC" clip-path="url(#SVGID_4_)"/><path d="M18.3 18.5C13.3 18.5 9.2 14.4 9.2 9.4 9.2 4.4 13.3 0.3 18.3 0.3 23.3 0.3 27.4 4.4 27.4 9.4 27.4 14.4 23.3 18.5 18.3 18.5ZM18.3 2.5C14.5 2.5 11.5 5.6 11.5 9.4 11.5 13.2 14.6 16.3 18.3 16.3 22 16.3 25.1 13.2 25.1 9.4 25.1 5.6 22 2.5 18.3 2.5Z" fill="#7823DC" clip-path="url(#SVGID_4_)"/><path d="M2.3 23.3 4.6 23.3 4.6 36.6 2.3 36.6 2.3 23.3Z" fill="#7823DC" clip-path="url(#SVGID_4_)"/><path d="M15.4 20.4 3.1 25.5 2.3 23.4 14.6 18.3 14.9 19.1 15.4 20.4 15.4 20.4Z" fill="#7823DC" clip-path="url(#SVGID_4_)"/><path d="M31.9 23.3 34.2 23.3 34.2 36.6 31.9 36.6 31.9 23.3Z" fill="#7823DC" clip-path="url(#SVGID_4_)"/><path d="M21 20.4 21.9 18.3 34.2 23.4 33.3 25.5 21 20.4Z" fill="#7823DC" clip-path="url(#SVGID_4_)"/><path d="M26.2 10.3C22.4 10.3 19.8 9.3 18.2 7.3 16.1 4.6 17 1.2 17.1 1.1L19.3 1.7C19.3 1.7 18.7 4.2 20 6 21.2 7.3 23.2 8 26.2 8L26.2 10.3Z" fill="#7823DC" clip-path="url(#SVGID_4_)"/></g></g></g></svg>