<svg viewBox="0 0 32 32" xmlns="http://www.w3.org/2000/svg" xmlns:xlink="http://www.w3.org/1999/xlink" id="Graphic" overflow="hidden"><style>
.MsftOfcResponsive_Fill_7823dc {
 fill:#7823DC; 
}
</style>
<defs></defs><path d="M22 20C23.2023 20.5152 23.9868 21.692 24 23L24 30 22 30 22 20M20.68 17.73 20 24.73 20 32 26 32 26 23C26 20.0618 23.6182 17.68 20.68 17.68Z" class="MsftOfcResponsive_Fill_7823dc" fill="#7823DC"/><path d="M10 20 10 30 8 30 8 23C8.01573 21.6928 8.79939 20.5173 10 20M11.32 17.73C8.40126 17.7299 6.02743 20.0814 6 23L6 32 12 32 12 24.72 11.32 17.72Z" class="MsftOfcResponsive_Fill_7823dc" fill="#7823DC"/><path d="M16 8C14.8954 8 14 8.89543 14 10 14 11.1046 14.8954 12 16 12 17.1046 12 18 11.1046 18 10 18 8.89543 17.1046 8 16 8Z" class="MsftOfcResponsive_Fill_7823dc" fill="#7823DC"/><path d="M16 2.47C16.5 2.82 17.14 3.3 17.81 3.85 20.4167 6.23817 21.5946 9.80967 20.92 13.28 20.66 14.57 19.75 20.78 19.3 23.85L12.7 23.85C12.25 20.78 11.34 14.58 11.09 13.3 10.4096 9.82524 11.5836 6.24654 14.19 3.85 14.86 3.3 15.5 2.85 16 2.47M16 0.05C14.9165 0.752238 13.8748 1.51686 12.88 2.34 9.71959 5.19995 8.29216 9.50882 9.12 13.69 9.45 15.33 11 25.85 11 25.85L21 25.85C21 25.85 22.52 15.33 22.85 13.67L22.85 13.67C23.6839 9.50028 22.2678 5.19889 19.12 2.34 18.1252 1.51686 17.0835 0.752238 16 0.0500002Z" class="MsftOfcResponsive_Fill_7823dc" fill="#7823DC"/></svg>