<svg viewBox="0 0 32 32" xmlns="http://www.w3.org/2000/svg" xmlns:xlink="http://www.w3.org/1999/xlink" id="Graphic" overflow="hidden"><defs></defs><path d="M12.49 2C15.3674 2.0086 17.693 4.34816 17.6844 7.22555 17.683 7.69702 17.6176 8.16612 17.49 8.62L12.15 26.42C11.4745 28.5732 9.46653 30.0284 7.21 30 6.69964 30.0068 6.19099 29.9394 5.7 29.8 3.11227 29.0256 1.55684 26.3896 2.13 23.75L2.19 23.51 2.44 22.67 7.34 6.35 7.58 5.55 7.68 5.28C8.45456 3.3002 10.3641 1.99808 12.49 2M12.49 0C9.52404-0.00293617 6.86512 1.82806 5.81 4.6L5.81 4.6 5.44 5.8 0.52 22.1 0.16 23.3 0.16 23.3C-0.861727 27.1356 1.41938 31.0733 5.255 32.095 9.09062 33.1167 13.0283 30.8356 14.05 27L19.4 9.16C20.4825 5.33373 18.2582 1.35439 14.4319 0.271896 13.8001 0.0931291 13.1467 0.00164897 12.49-1.63944e-07Z" fill="#7823DC"/><path d="M3.41 12.95 2.8 14.99 15.82 18.9 16.43 16.86 3.41 12.95 3.41 12.95Z" fill="#7823DC"/><path d="M23 15.87C26.866 15.87 30 19.004 30 22.87 30 26.736 26.866 29.87 23 29.87 19.134 29.87 16 26.736 16 22.87 16 19.004 19.134 15.87 23 15.87M23 13.87C18.0294 13.87 14 17.8994 14 22.87 14 27.8406 18.0294 31.87 23 31.87 27.9706 31.87 32 27.8406 32 22.87 32 17.8994 27.9706 13.87 23 13.87Z" fill="#7823DC"/><path d="M29.49 19.43 15.28 24.62 15.97 26.5 30.18 21.31 29.49 19.43 29.49 19.43Z" fill="#7823DC"/></svg>