<svg viewBox="0 0 32 32" xmlns="http://www.w3.org/2000/svg" xmlns:xlink="http://www.w3.org/1999/xlink" id="Graphic" overflow="hidden"><defs></defs><path d="M5.23 2 4.49 2 3.24 3.32 2.52 4C2.25 4.27 2.01 4.53 1.84 4.73L1.56 5.02 1.56 5.02C-0.0429821 7.11204-0.423121 9.89466 0.56 12.34 1.08766 14.0003 1.86308 15.5713 2.86 17 4.49297 19.2513 6.34173 21.3378 8.38 23.23L8.38 23.23 9.15 23.98 9.15 23.98C11.0953 25.9681 13.2286 27.7632 15.52 29.34 16.9615 30.2915 18.535 31.026 20.19 31.52 22.6618 32.4317 25.4309 31.9759 27.48 30.32L27.48 30.32 27.77 30.03C27.96 29.85 28.21 29.61 28.48 29.33 28.75 29.05 28.95 28.85 29.18 28.59L31.18 26.59 31.18 26.59C32.2167 25.5259 32.1945 23.8228 31.1304 22.7861 30.9876 22.647 30.8299 22.5242 30.66 22.42L26.81 20C25.5418 19.2304 23.911 19.4332 22.87 20.49 22.7393 20.6275 22.6189 20.7746 22.51 20.93L21.16 22.93 21.05 23.06C20.2214 23.7632 18.9983 23.7374 18.2 23L13.61 18.63 9.11 14.15C8.38363 13.3655 8.33694 12.1687 9 11.33L9.13 11.22 11.13 9.81C11.279 9.70089 11.4194 9.58054 11.55 9.45 12.5866 8.38603 12.7485 6.74615 11.94 5.5L9.59 2 5.23 2ZM10.23 6.58C10.5325 7.04765 10.4702 7.66256 10.08 8.06 10.0314 8.11186 9.97785 8.15876 9.92 8.2L8 9.61 7.93 9.61 7.87 9.67 7.74 9.78 7.67 9.84 7.55 10C6.11199 11.6258 6.18197 14.0885 7.71 15.63L12.24 20.14 16.83 24.52C18.4173 26.0035 20.8827 26.0035 22.47 24.52L22.54 24.45 22.6 24.37 22.71 24.24 22.76 24.18 22.76 24.11 24.11 22.11C24.1512 22.0522 24.1981 21.9986 24.25 21.95 24.6392 21.5504 25.2525 21.4716 25.73 21.76L29.61 24.14C29.7955 24.2519 29.9177 24.4445 29.94 24.66 29.9693 24.8741 29.8951 25.0894 29.74 25.24L27.74 27.3 27.07 28.01C26.83 28.25 26.61 28.48 26.43 28.64L26.43 28.64 26.43 28.64 26.35 28.73C24.8868 29.9572 22.891 30.3359 21.08 29.73L20.95 29.67 20.81 29.67C19.3412 29.2328 17.9459 28.5789 16.67 27.73 14.486 26.2235 12.4532 24.5088 10.6 22.61L9.82 21.85C7.85805 20.0365 6.0764 18.0371 4.5 15.88 3.63578 14.6225 2.96185 13.2443 2.5 11.79L2.5 11.68 2.43 11.55C1.77033 9.75223 2.08405 7.74139 3.26 6.23L3.34 6.15 3.34 6.15 3.34 6.15 3.95 5.49 4.68 4.76 7.25 2Z" fill="#7823DC"/></svg>