<svg viewBox="0 0 32 32" xmlns="http://www.w3.org/2000/svg" xmlns:xlink="http://www.w3.org/1999/xlink" overflow="hidden"><style>
.MsftOfcResponsive_Fill_7823dc {
 fill:#7823DC; 
}
</style>
<defs></defs><g id="Layer_3"><path d="M27.0011 9.99335C24.2397 9.99335 22.0011 7.75477 22.0011 4.99335 22.0011 2.23193 24.2397-0.00664997 27.0011-0.00664997 29.7625-0.00664997 32.0011 2.23193 32.0011 4.99335 31.9979 7.75343 29.7612 9.9901 27.0011 9.99335ZM27.0011 1.99335C25.3443 1.99335 24.0011 3.3365 24.0011 4.99335 24.0011 6.6502 25.3443 7.99335 27.0011 7.99335 28.658 7.99335 30.0011 6.6502 30.0011 4.99335 29.9993 3.33725 28.6572 1.99516 27.0011 1.99335Z" class="MsftOfcResponsive_Fill_7823dc" fill="#7823DC"/><rect x="26.0016" y="8.99335" width="2" height="23" class="MsftOfcResponsive_Fill_7823dc" fill="#7823DC"/><rect x="26.5748" y="29.9936" width="5.37982" height="2" class="MsftOfcResponsive_Fill_7823dc" fill="#7823DC"/><rect x="26.5748" y="21.9936" width="5.37982" height="2" class="MsftOfcResponsive_Fill_7823dc" fill="#7823DC"/><path d="M31.955 27.994 29.955 25.994 26.955 25.994 26.955 27.994 31.955 27.994Z" class="MsftOfcResponsive_Fill_7823dc" fill="#7823DC"/><path d="M10.94 31.99 8.94 31.99 8.94 20.903 10.94 22.903 10.94 31.99Z" class="MsftOfcResponsive_Fill_7823dc" fill="#7823DC"/><path d="M15.064 31.99 13.064 31.99 13.064 22.903 15.064 20.903 15.064 31.99Z" class="MsftOfcResponsive_Fill_7823dc" fill="#7823DC"/><path d="M12.061 19.661 10.647 18.247 7.819 21.075 9.233 22.489 12.061 19.661 12.061 19.661Z" class="MsftOfcResponsive_Fill_7823dc" fill="#7823DC"/><path d="M12.061 19.661 13.476 18.247 16.304 21.075 14.89 22.489 12.061 19.661 12.061 19.661Z" class="MsftOfcResponsive_Fill_7823dc" fill="#7823DC"/><path d="M12.061 22.489 13.476 23.903 16.304 21.075 14.89 19.661 12.061 22.489 12.061 22.489Z" class="MsftOfcResponsive_Fill_7823dc" fill="#7823DC"/><path d="M12.061 22.489 10.647 23.903 7.819 21.075 9.233 19.661 12.061 22.489 12.061 22.489Z" class="MsftOfcResponsive_Fill_7823dc" fill="#7823DC"/><path d="M12.0612 16.01C7.6429 16.01 4.06118 12.4283 4.06118 8.01 4.06118 3.59172 7.6429 0.0100002 12.0612 0.0100002 16.4795 0.0100002 20.0612 3.59172 20.0612 8.01 20.0561 12.4262 16.4774 16.0049 12.0612 16.01ZM12.0612 2.01C8.74747 2.01 6.06118 4.69629 6.06118 8.01 6.06118 11.3237 8.74747 14.01 12.0612 14.01 15.3749 14.01 18.0612 11.3237 18.0612 8.01 18.0576 4.69779 15.3734 2.01362 12.0612 2.01Z" class="MsftOfcResponsive_Fill_7823dc" fill="#7823DC"/><rect x="0.00214" y="20.3321" width="2" height="11.6581" class="MsftOfcResponsive_Fill_7823dc" fill="#7823DC"/><path d="M9.591 17.782 0.767 22.185 0.007 20.335 8.831 15.932 9.131 16.662 9.591 17.782Z" class="MsftOfcResponsive_Fill_7823dc" fill="#7823DC"/><rect x="21.9809" y="20.3321" width="2" height="11.6581" class="MsftOfcResponsive_Fill_7823dc" fill="#7823DC"/><path d="M14.392 17.782 23.216 22.185 23.976 20.335 15.152 15.932 14.852 16.662 14.392 17.782Z" class="MsftOfcResponsive_Fill_7823dc" fill="#7823DC"/><rect x="8.03535" y="16.2072" width="2.00848" height="3.23366" class="MsftOfcResponsive_Fill_7823dc" fill="#7823DC" transform="matrix(0.786664 -0.617382 0.617382 0.786664 -9.07575 9.38339)"/><rect x="13.4537" y="16.8206" width="3.22" height="2" class="MsftOfcResponsive_Fill_7823dc" fill="#7823DC" transform="matrix(0.618546 -0.785749 0.785749 0.618546 -8.2564 18.6341)"/></g></svg>