<svg viewBox="0 0 32 32" xmlns="http://www.w3.org/2000/svg" xmlns:xlink="http://www.w3.org/1999/xlink" overflow="hidden"><defs></defs><g id="Layer_3"><path d="M6 26.1397 17 26.1397 17 15.9976 6 15.9976ZM8 17.9976 15 17.9976 15 24.1397 8 24.1397Z" fill="#7823DC"/><rect x="10.4822" y="19.8898" width="3.53553" height="1.99979" fill="#7823DC" transform="matrix(0.707107 -0.707107 0.707107 0.707107 -11.1833 14.7805)"/><path d="M26.7402 1.00366 5.25977 1.00366 0 9.19611 0 11.075C0.0052426 12.894 1.2384 14.4798 3 14.933L3 28.9688 1 28.9688 1 30.9688 31 30.9688 31 28.9688 29 28.9688 29 14.933C30.7616 14.4798 31.9948 12.894 32 11.075L32 9.19611ZM25.6484 3.00366 29.1699 8.489 25.6769 8.489 24.5776 5.74634 23.4785 3.00366ZM21.3231 3.00366 22.4224 5.74634 23.5215 8.489 19.9102 8.489 19.6514 5.74633 19.3927 3.00366ZM24 10.489 24 11.075C24 12.1796 23.1046 13.075 22 13.075 20.8954 13.075 20 12.1796 20 11.075L20 10.489 24 10.489ZM14.3574 5.74634 14.6162 3.00366 17.3838 3.00366 17.6426 5.74634 17.9013 8.489 14.0988 8.489ZM14 10.489 18 10.489 18 11.075C18 12.1796 17.1046 13.075 16 13.075 14.8954 13.075 14 12.1796 14 11.075ZM9.57764 5.74634 10.6769 3.00366 12.6073 3.00366 12.3486 5.74634 12.0898 8.489 8.47852 8.489ZM12 10.489 12 11.075C12 12.1796 11.1046 13.075 10 13.075 8.89543 13.075 8 12.1796 8 11.075L8 10.489 12 10.489ZM6.35156 3.00366 8.52148 3.00366 7.42236 5.74634 6.32312 8.489 2.83012 8.489ZM2 11.075 2 10.489 6 10.489 6 11.075C6 12.1796 5.10457 13.075 4 13.075 2.89543 13.075 2 12.1796 2 11.075ZM20 28.9688 20 23.9688 22 23.9688 22 21.9688 20 21.9688 20 17.9976 24 17.9976 24 28.9688ZM26 28.9688 26 15.9976 18 15.9976 18 28.9688 5 28.9688 5 14.9327C5.77528 14.7279 6.47171 14.2962 7 13.6929 8.41666 15.3498 10.9082 15.5445 12.5651 14.1279 12.7212 13.9944 12.8666 13.849 13 13.6929 14.4167 15.3498 16.9082 15.5445 18.5651 14.1279 18.7212 13.9944 18.8666 13.849 19 13.6929 20.4167 15.3498 22.9082 15.5445 24.5651 14.1279 24.7212 13.9944 24.8666 13.849 25 13.6929 25.5283 14.2962 26.2247 14.7279 27 14.9327L27 28.9688ZM30 11.075C30 12.1796 29.1046 13.075 28 13.075 26.8954 13.075 26 12.1796 26 11.075L26 10.489 30 10.489Z" fill="#7823DC"/></g></svg>