<svg viewBox="0 0 32 32" xmlns="http://www.w3.org/2000/svg" xmlns:xlink="http://www.w3.org/1999/xlink" id="Layer_1" overflow="hidden"><style>
.MsftOfcResponsive_Fill_7823dc {
 fill:#7823DC; 
}
</style>
<g><path d="M17.4 4.1 19 4.1C19.4 4.1 19.8 3.8 19.8 3.3 19.8 2.9 19.5 2.5 19 2.5 19 2.5 19 2.5 18.9 2.5L17.2 2.5C16.8 2.5 16.4 2.8 16.4 3.3 16.5 3.7 16.9 4.1 17.4 4.1 17.3 4.1 17.4 4.1 17.4 4.1L17.4 4.1Z" class="MsftOfcResponsive_Fill_7823dc" fill="#7823DC" fill-rule="evenodd" clip-rule="evenodd"/><path d="M23.2 3.3C23.2 3.7 22.9 4.1 22.4 4.1 22 4.1 21.6 3.7 21.6 3.3 21.6 2.9 21.9 2.5 22.4 2.5 22.8 2.5 23.2 2.8 23.2 3.3L23.2 3.3Z" class="MsftOfcResponsive_Fill_7823dc" fill="#7823DC" fill-rule="evenodd" clip-rule="evenodd"/><path d="M19.9 22.4C19.5 22.4 19.1 22.7 19.1 23.2 19.1 23.6 19.5 24 19.9 24 20.3 24 20.7 23.7 20.7 23.2 20.7 22.8 20.3 22.4 19.9 22.4L19.9 22.4Z" class="MsftOfcResponsive_Fill_7823dc" fill="#7823DC" fill-rule="evenodd" clip-rule="evenodd"/><path d="M26.5 1.8 24.8 0 14 0C12.7 0 11.6 1.1 11.6 2.4L11.6 11 11.6 11 11.6 11 5.4 17.3C5.2 17.4 5.1 17.6 4.9 17.8 4.2 18.6 3.9 19.7 3.9 20.7L3.9 20.7 3.9 32 5.9 32 5.9 24.2C5.9 22.7 5.9 20.6 5.9 20.6 5.9 20.6 5.9 20.6 5.9 20.6 5.9 20.1 6.1 19.6 6.4 19.1L6.4 19.1 11.7 13.8 11.7 19.6 9.5 21.8 10.9 23.2 19.7 14.4C20.4 13.8 21.4 13.9 22 14.5 22.6 15.2 22.5 16.2 21.9 16.8 21.9 16.8 21.9 16.8 21.8 16.9L21.8 16.9 21.5 17 21.5 17 19.5 19 19.5 19 16.5 22C16.5 22 16.5 22 16.5 22L15.2 23.3 15.2 23.4C15.8 24.2 16.1 25.2 16.1 26.4 16.1 28.2 15.3 29.7 14.2 30.4L15.3 32C16.9 31 18 29 18.1 26.7L21 26.7C21.1 27.1 21.2 27.6 21.2 28.1 21.2 29.9 20.4 31.4 19.3 32.1L22 32.1C22.7 31 23.2 29.6 23.1 28 23.1 27.6 23 27.2 23 26.8L23 26.8 23 26.7 25.7 26.7C27 26.7 28.1 25.6 28.1 24.3L28.3 3.8 26.5 1.8 26.5 1.8ZM26.3 24.1 26.3 24.1C26.3 24.6 25.9 24.6 25.6 24.6L22.1 24.6 17.7 24.6C17.6 24.3 17.5 24 17.4 23.7L22.8 18.3C24.3 17 24.5 14.8 23.2 13.3 21.9 11.8 19.7 11.6 18.2 12.9 18.1 12.9 18.1 13 18 13L18 13 13.4 17.6 13.4 15.4 13.4 10.8 13.4 10.8 13.4 6.5 26.4 6.5 26.3 24.1 26.3 24.1ZM26.4 5 13.4 5 13.4 2.4C13.4 2 13.6 1.9 14 1.9L26.5 1.9 26.4 5 26.4 5Z" class="MsftOfcResponsive_Fill_7823dc" fill="#7823DC" fill-rule="evenodd" clip-rule="evenodd"/></g></svg>