<svg viewBox="0 0 32 32" xmlns="http://www.w3.org/2000/svg" xmlns:xlink="http://www.w3.org/1999/xlink" overflow="hidden"><defs></defs><g><g id="Layer_1"><g id="Layer_2"><path d="M25.7 18.1 28 24.2 16.8 24.2 16.8 18.1 25.7 18.1M27.1 16.3 14.8 16.3 14.8 26.1 31 26.1" fill="#7823DC"/><path d="M3.1 30.4 2.4 26.1 29.8 26.1C29.5 27.6 28.9 28.8 28 29.9L27.7 30.3C28.5 30.5 29.4 30.4 30.1 30L30.4 29.8C31.4 28.1 32 26 31.9 24.1L0.1 24.1 1.1 29.8 1.4 30C1.9 30.3 5.5 30.4 6.1 30.4L3.1 30.4Z" fill="#7823DC"/><path d="M22.9 0 21 0 21 15.6 22.9 15.6 22.9 0 22.9 0 22.9 0 22.9 0Z" fill="#7823DC"/><path d="M0.5 31.4C2.1 32.2 4 32.2 5.6 31.4 6.7 30.9 7.9 30.9 8.9 31.4L9 31.4C10.6 32.2 12.4 32.2 14 31.4L14.1 31.4C15.2 30.8 16.4 30.8 17.4 31.3 19.1 32.1 20.9 32.1 22.6 31.3 23.7 30.8 24.9 30.8 25.9 31.3 27.5 32.1 29.4 32.1 31 31.3L31.9 30.9 31.9 28.8 30.1 29.6C29 30.1 27.8 30.1 26.7 29.6 25.1 28.8 23.2 28.8 21.6 29.6 20.5 30.1 19.3 30.1 18.3 29.6 16.7 28.8 14.8 28.8 13.2 29.6L13.1 29.6C12 30.2 10.8 30.2 9.8 29.7L9.7 29.7C8.1 28.8 6.2 28.8 4.6 29.6 3.5 30.1 2.3 30.1 1.3 29.6L0.1 29 0.1 31.2 0.5 31.4 0.5 31.4Z" fill="#7823DC"/><path d="M16.8 26.1 10.5 26.1 10.5 20.2 16.8 20.2 16.8 26.1ZM12.5 24.1 14.8 24.1 14.8 22.2 12.5 22.2 12.5 24.1Z" fill="#7823DC"/><path d="M12.5 25.9 6.3 25.9 6.3 20.1 12.6 20.1 12.6 25.9 12.5 25.9ZM8.3 23.9 10.6 23.9 10.6 22.1 8.3 22.1 8.3 23.9Z" fill="#7823DC"/><path d="M8.3 26.1 2 26.1 2 20.2 8.3 20.2 8.3 26.1ZM4 24.1 6.3 24.1 6.3 22.2 4 22.2 4 24.1Z" fill="#7823DC"/><path d="M8.3 22.1 2 22.1 2 16.3 8.3 16.3 8.3 22.1ZM4 20.1 6.3 20.1 6.3 18.3 4 18.3 4 20.1Z" fill="#7823DC"/><path d="M16.8 22.1 10.5 22.1 10.5 16.3 16.8 16.3 16.8 22.1ZM12.5 20.1 14.8 20.1 14.8 18.3 12.5 18.3 12.5 20.1Z" fill="#7823DC"/><path d="M12.5 22.1 6.3 22.1 6.3 16.3 12.6 16.3 12.6 22.1 12.5 22.1ZM8.3 20.1 10.6 20.1 10.6 18.3 8.3 18.3 8.3 20.1Z" fill="#7823DC"/><path d="M11.5 18.3 5.2 18.3 5.2 12.5 11.5 12.5 11.5 18.3ZM7.2 16.3 9.5 16.3 9.5 14.5 7.2 14.5 7.2 16.3Z" fill="#7823DC"/><path d="M15.8 18.3 9.5 18.3 9.5 12.5 15.8 12.5 15.8 18.3ZM11.5 16.3 13.8 16.3 13.8 14.5 11.5 14.5 11.5 16.3Z" fill="#7823DC"/><path d="M13.6 14.5 7.4 14.5 7.4 8.7 13.7 8.7 13.7 14.5 13.6 14.5ZM9.4 12.5 11.7 12.5 11.7 10.7 9.4 10.7 9.4 12.5Z" fill="#7823DC"/><rect x="11" y="0" width="11.3" height="1.9" fill="#7823DC"/><path d="M12.2 2.9 12.2 0 10.3 0 10.3 4.1 10.5 4.1C10.8 4.1 11.1 4.4 11.1 4.7 11.1 5 10.8 5.3 10.5 5.3 10.2 5.3 9.9 5 9.9 4.7L9.9 4.5 7.9 4.5 7.9 4.7C7.9 6.1 9 7.3 10.5 7.3 12 7.3 13.1 6.2 13.1 4.7 13.1 3.2 12.8 3.4 12.2 2.9Z" fill="#7823DC"/><rect x="19.6" y="14.6" width="4.7" height="1.9" fill="#7823DC"/></g><rect x="18.8" y="20.1" width="1.9" height="1.9" fill="#7823DC"/><rect x="22.8" y="20.1" width="1.9" height="1.9" fill="#7823DC"/></g></g></svg>