<svg viewBox="0 0 32 32" xmlns="http://www.w3.org/2000/svg" xmlns:xlink="http://www.w3.org/1999/xlink" xml:space="preserve" overflow="hidden"><style>
.MsftOfcResponsive_Fill_7823dc {
 fill:#7823DC; 
}
</style>
<g id="Layer_3"></g><g id="Layer_1"></g><g id="Layer_2"><path d="M27.54 17.8 19.48 20.33 19.48 19.19 19.48 17.1 17.4 17.33 14.34 17.68 9.51 15.96 8.72 15.68 7.99 16.07 4.96 17.69 1.87 17.69 0 17.69 0 19.56 0 25.2 0 27.07 1.87 27.07 4.98 27.07 14.2 30.8 28.98 23.11 29.97 22.59 29.97 21.47 29.97 19.6 29.97 17.05 27.54 17.8 27.54 17.8 27.54 17.8ZM28.1 21.46 14.12 28.72 5.38 25.2 1.88 25.2 1.88 19.56 5.43 19.56 8.87 17.72 14.12 19.59 17.61 19.2 17.61 21.07 16.6 21.4 13.08 22.11 13.08 23.85 16.78 23.17 16.78 23.16 28.11 19.6 28.11 21.46 28.1 21.46 28.1 21.46Z" class="MsftOfcResponsive_Fill_7823dc" fill="#7823DC"/><path d="M29.77 4.02 24.72 4.02 24.04 2.02 22.16 2.02 23.44 5.83 25.97 5.83 24.05 8.07 25 11.08 22.16 9.66 19.32 11.08 20.28 8.07 18.35 5.83 20.89 5.83 22.16 2.02 20.29 2.02 19.61 4.02 14.56 4.02 18.34 8.5 16.43 14.46 22.16 11.6 27.9 14.46 25.99 8.5Z" class="MsftOfcResponsive_Fill_7823dc" fill="#7823DC"/></g></svg>