<svg viewBox="0 0 32 32" xmlns="http://www.w3.org/2000/svg" xmlns:xlink="http://www.w3.org/1999/xlink" id="Layer_1" overflow="hidden"><g><path d="M20.2 4.4 16 10 11.8 4.4 13.4 3.2 16 6.7 18.6 3.2Z" fill="#7823DC"/><rect x="15" y="0" width="2" height="7" fill="#7823DC"/></g><rect x="0" y="15" width="32" height="2" fill="#7823DC"/><path d="M32 20.9 32 22.9C29.1 22.5 19.5 21 16 21 12.5 21 2.9 22.5 0 22.9L0 20.9C3.3 20.4 12.4 19 16 19 19.6 19 28.7 20.4 32 20.9Z" fill="#7823DC"/><path d="M32 9.1 32 11.1C28.7 11.6 19.6 13 16 13 12.4 13 3.3 11.6 0 11.1L0 9.1C2.9 9.5 12.5 11 16 11 19.5 11 29.1 9.5 32 9.1Z" fill="#7823DC"/><g><path d="M20.2 27.6 16 22 11.8 27.6 13.4 28.8 16 25.3 18.6 28.8Z" fill="#7823DC"/><rect x="15" y="25" width="2" height="7" fill="#7823DC"/></g></svg>