<svg viewBox="0 0 32 32" xmlns="http://www.w3.org/2000/svg" xmlns:xlink="http://www.w3.org/1999/xlink" id="Layer_1" xml:space="preserve" overflow="hidden"><g><path d="M15.9 8.8C15.3 8.8 14.8 9.3 14.8 9.9 14.8 10.5 15.3 11 15.9 11 16.5 11 17 10.5 17 9.9 17 9.3 16.5 8.8 15.9 8.8L15.9 8.8 15.9 8.8 15.9 8.8Z" fill="#7823DC" fill-rule="evenodd" clip-rule="evenodd"/><path d="M15.9 11.9C15.3 11.9 14.8 12.4 14.8 13 14.8 13.6 15.3 14.1 15.9 14.1 16.5 14.1 17 13.6 17 13 17 12.4 16.5 11.9 15.9 11.9L15.9 11.9 15.9 11.9 15.9 11.9Z" fill="#7823DC" fill-rule="evenodd" clip-rule="evenodd"/><path d="M30.8 32 1.2 32 1.2 2.4 9.1 2.4 9.1 4.4 3.2 4.4 3.2 30 28.8 30 28.8 4.4 22.9 4.4 22.9 2.4 30.8 2.4Z" fill="#7823DC"/><g><defs><path d="M1.2 32 30.8 32 30.8 0 1.2 0 1.2 32Z" id="SVGID_1_" fill="#7823DC"/></defs><clipPath id="SVGID_00000032609537220924028780000008011154286537598869_"><use width="100%" height="100%" xlink:href="#SVGID_1_" overflow="visible"></use></clipPath><rect x="20.6" y="10.9" width="4.6" height="2" fill="#7823DC" clip-path="url(#SVGID_00000032609537220924028780000008011154286537598869_)"/><g clip-path="url(#SVGID_00000032609537220924028780000008011154286537598869_)"><defs><path d="M1.2 32 30.8 32 30.8 0 1.2 0 1.2 32Z" id="SVGID_00000129199830767036947320000012499316224264407698_" fill="#7823DC"/></defs><clipPath id="SVGID_00000036228960889235454570000002833572548477226928_"><use width="100%" height="100%" xlink:href="#SVGID_00000129199830767036947320000012499316224264407698_" overflow="visible"></use></clipPath><path d="M17.8 2 16 3.3 14.2 2 17.8 2M24 0 8 0 16 5.7 24 0 24 0 24 0 24 0Z" fill="#7823DC" fill-rule="evenodd" clip-rule="evenodd" clip-path="url(#SVGID_00000036228960889235454570000002833572548477226928_)"/><g clip-path="url(#SVGID_00000036228960889235454570000002833572548477226928_)"><defs><path d="M1.2 32 30.8 32 30.8 0 1.2 0 1.2 32Z" id="SVGID_00000183953160341982557450000014893356675280371107_" fill="#7823DC"/></defs><clipPath id="SVGID_00000154421172753333202640000016774975587484953014_"><use width="100%" height="100%" xlink:href="#SVGID_00000183953160341982557450000014893356675280371107_" overflow="visible"></use></clipPath><path d="M12 9.3 6.9 5.1 7.9 0 9.9 0.4 9.1 4.3 12 6.7 15.1 4 16.4 5.5Z" fill="#7823DC" clip-path="url(#SVGID_00000154421172753333202640000016774975587484953014_)"/><g clip-path="url(#SVGID_00000154421172753333202640000016774975587484953014_)"><defs><path d="M1.2 32 30.8 32 30.8 0 1.2 0 1.2 32Z" id="SVGID_00000021814596485252810580000008859802030143842225_" fill="#7823DC"/></defs><clipPath id="SVGID_00000129915542613832982360000003729240486708616616_"><use width="100%" height="100%" xlink:href="#SVGID_00000021814596485252810580000008859802030143842225_" overflow="visible"></use></clipPath><path d="M20 9.3 15.6 5.5 16.9 4 20 6.7 22.9 4.3 22.1 0.4 24.1 0 25.1 5.1Z" fill="#7823DC" clip-path="url(#SVGID_00000129915542613832982360000003729240486708616616_)"/></g></g></g></g></g></svg>