<svg viewBox="0 0 32 32" xmlns="http://www.w3.org/2000/svg" xmlns:xlink="http://www.w3.org/1999/xlink" id="Layer_1" overflow="hidden"><style>
.MsftOfcResponsive_Fill_7823dc {
 fill:#7823DC; 
}
</style>
<g><path d="M25.4 20.3 29.7 20.3C28.7 15.8 27.3 9.5 26.4 8.1 24 4.2 19.8 1.9 15.3 1.9 15.3 1.9 15.3 1.9 15.2 1.9 8 2 2.1 8.1 2.1 15.3L2.1 15.4C2.1 19.9 4.4 24.2 8.2 26.6L7.1 28.3C2.7 25.5 0 20.6 0 15.4L0 15.3C0 6.9 6.7 0 15.1 0 20.4 0 25.2 2.7 27.9 7.1 29.3 9.4 31.4 20 31.7 21.2L32 22.4 26.2 22.4" class="MsftOfcResponsive_Fill_7823dc" fill="#7823DC" fill-rule="evenodd" clip-rule="evenodd"/><path d="M26.5 32 17.2 32 17.2 30 24.5 30 24.5 20.3 26.5 20.3Z" class="MsftOfcResponsive_Fill_7823dc" fill="#7823DC" fill-rule="evenodd" clip-rule="evenodd"/></g><path d="" class="MsftOfcResponsive_Fill_7823dc" stroke="#000000" stroke-width="2" stroke-miterlimit="10" fill="#7823DC"/><path d="" class="MsftOfcResponsive_Fill_7823dc" stroke="#000000" stroke-width="2" stroke-miterlimit="10" fill="#7823DC"/><path d="M15 23.8C9.8 23.8 5.6 19.6 5.6 14.4 5.6 9.2 9.8 5 15 5 15.6 5 16.3 5.1 16.9 5.2 21.3 6.1 24.4 10 24.4 14.4 24.4 19.6 20.2 23.8 15 23.8ZM15 7C10.9 7 7.6 10.3 7.6 14.4 7.6 18.5 10.9 21.8 15 21.8 19.1 21.8 22.4 18.5 22.4 14.4 22.4 10.9 19.9 7.8 16.5 7.1 16 7.1 15.5 7 15 7Z" class="MsftOfcResponsive_Fill_7823dc" fill="#7823DC"/><path d="M6.6 14.1 6.5 12.1 9.4 11.9 11.5 9.1 12.8 9.1 13 6.1 15 6.3 14.6 11 12.5 11.1 10.4 13.9Z" class="MsftOfcResponsive_Fill_7823dc" fill="#7823DC"/><path d="M12.2 23 11 21.3 13.4 19.7 14.3 13.7 18.1 13.6 20.5 14 23 11.9 24.3 13.4 21.1 16.1 17.9 15.6 16 15.7 15.3 20.9Z" class="MsftOfcResponsive_Fill_7823dc" fill="#7823DC"/></svg>