<svg viewBox="0 0 32 32" xmlns="http://www.w3.org/2000/svg" xmlns:xlink="http://www.w3.org/1999/xlink" id="Layer_1" overflow="hidden"><style>
.MsftOfcResponsive_Fill_7823dc {
 fill:#7823DC; 
}
</style>
<path d="" class="st0 MsftOfcResponsive_Fill_7823dc" stroke="#7823DC" stroke-width="2" stroke-miterlimit="10" fill="#7823DC"/><path d="" class="st0 MsftOfcResponsive_Fill_7823dc" stroke="#7823DC" stroke-width="2" stroke-miterlimit="10" fill="#7823DC"/><path d="M16 3.8 25.5 19.4 22.5 22.4 21.9 23 21.9 23.8 21.9 26 10.6 26 10.6 23.9 10.6 23 9.9 22.4 6.6 19.4 16 3.8M16 0 4 19.7 8.6 23.8 8.6 28 23.9 28 23.9 23.9 28 19.8 16 0 16 0Z" class="MsftOfcResponsive_Fill_7823dc" fill="#7823DC"/><path d="M16 17C14.3 17 13 15.7 13 14 13 12.3 14.4 11 16 11 17.7 11 19 12.3 19 14 19 15.7 17.7 17 16 17ZM16 13C15.4 13 15 13.4 15 14 15 14.6 15.5 15 16 15 16.5 15 17 14.6 17 14 17 13.4 16.6 13 16 13Z" class="MsftOfcResponsive_Fill_7823dc" fill="#7823DC"/><path d="M3 13C1.3 13 0 11.7 0 10 0 8.3 1.4 7 3 7 4.7 7 6 8.3 6 10 6 11.7 4.7 13 3 13ZM3 9C2.4 9 2 9.4 2 10 2 10.6 2.5 11 3 11 3.5 11 4 10.6 4 10 4 9.4 3.6 9 3 9Z" class="MsftOfcResponsive_Fill_7823dc" fill="#7823DC"/><path d="M29 13C27.3 13 26 11.7 26 10 26 8.3 27.4 7 29 7 30.7 7 32 8.3 32 10 32 11.7 30.6 13 29 13ZM29 9C28.4 9 28 9.4 28 10 28 10.6 28.5 11 29 11 29.5 11 30 10.6 30 10 30 9.4 29.5 9 29 9Z" class="MsftOfcResponsive_Fill_7823dc" fill="#7823DC"/><path d="M25.2 28 25.2 30 7.1 30 7.1 28 25.2 28M25.2 26 7 26C5.9 26 5.1 26.9 5.1 27.9L5.1 32 27.2 32 27.2 27.9C27.2 26.9 26.3 26 25.2 26L25.2 26Z" class="MsftOfcResponsive_Fill_7823dc" fill="#7823DC"/><rect x="15" y="3" width="2" height="9" class="MsftOfcResponsive_Fill_7823dc" fill="#7823DC"/><path d="M3.9 9.3 2.1 8.6C4.1 3.4 9.7 0 16 0 22.3 0 27.9 3.4 29.9 8.6L28 9.3C26.3 4.9 21.5 2 16 2 10.5 2 5.7 4.9 3.9 9.3Z" class="MsftOfcResponsive_Fill_7823dc" fill="#7823DC"/></svg>