<svg viewBox="0 0 32 32" xmlns="http://www.w3.org/2000/svg" xmlns:xlink="http://www.w3.org/1999/xlink" id="Graphic" xml:space="preserve" overflow="hidden"><g><defs><path d="M0 32 32 32 32 0 0 0 0 32Z" id="SVGID_1_" fill="#7823DC"/></defs><defs><path d="M0 0 32 0 32 32 0 32 0 0Z" id="SVGID_00000101824912250847807090000010943984095047355280_" fill="#7823DC"/></defs><clipPath id="SVGID_00000057850971174167345890000013291760914136237198_"><use width="100%" height="100%" xlink:href="#SVGID_1_" overflow="visible"></use></clipPath><clipPath id="SVGID_00000144305549228124094050000007086089764730656941_" clip-path="url(#SVGID_00000057850971174167345890000013291760914136237198_)"><use width="100%" height="100%" xlink:href="#SVGID_00000101824912250847807090000010943984095047355280_" overflow="visible"></use></clipPath><g clip-path="url(#SVGID_00000144305549228124094050000007086089764730656941_)"><defs><path d="M0 32 32 32 32 0 0 0 0 32Z" id="SVGID_00000115495050689032936360000000190313965161771670_" fill="#7823DC"/></defs><clipPath id="SVGID_00000075140668768057543030000016464051400202786994_"><use width="100%" height="100%" xlink:href="#SVGID_00000115495050689032936360000000190313965161771670_" overflow="visible"></use></clipPath><path d="M28 16.6C28 16.3 28 15.9 28 15.6L32 11 28.9 5.6 22.9 6.8C22.3 6.4 21.7 6.1 21.1 5.8L19.1 0 12.9 0 11 5.8C10.4 6.1 9.7 6.4 9.2 6.8L3.2 5.6 0 11 4.1 15.6 4.1 17.7 0 22.2 3.1 27.6 8.5 26.5 8.5 24.4 4.2 25.3 2.6 22.5 5.6 19.1 6.2 18.4 6.1 17.5 6.1 15.8 6.2 14.9 5.6 14.2 2.6 10.8 4.2 8 8.7 8.9 9.6 9 10.3 8.5C10.8 8.2 11.3 7.9 11.8 7.6L12.6 7.2 12.8 6.4 14.3 2 17.5 2 19 6.4 19.3 7.3 20.1 7.7C20.6 7.9 21.1 8.2 21.6 8.6L22.4 9 23.2 8.8 27.7 7.9 29.3 10.7 26.3 14.1 25.7 14.8 25.8 15.7 25.8 17.4 25.7 18.3 26.3 19 29.3 22.4 27.7 25.2 23.1 24.3 22.9 24.3 22.9 26.4 28.6 27.6 31.7 22.2 27.6 17.6C27.9 17.3 27.9 17 28 16.6L28 16.6Z" fill="#7823DC" clip-path="url(#SVGID_00000075140668768057543030000016464051400202786994_)"/><path d="M21.2 16.4 18.4 19.3 18.4 22 20.3 20 20.3 32 22.2 32 22.2 20 24.1 22 24.1 19.3 21.2 16.4 21.2 16.4 21.2 16.4 21.2 16.4Z" fill="#7823DC" clip-path="url(#SVGID_00000075140668768057543030000016464051400202786994_)"/><path d="M11.6 16.4 8.7 19.3 8.7 22 10.7 20 10.7 32 12.6 32 12.6 20 14.5 22 14.5 19.3 11.6 16.4 11.6 16.4 11.6 16.4 11.6 16.4Z" fill="#7823DC" clip-path="url(#SVGID_00000075140668768057543030000016464051400202786994_)"/><path d="M16.4 10.7 13.5 13.6 13.5 16.3 15.5 14.4 15.5 26 17.4 26 17.4 14.4 19.3 16.3 19.3 13.6 16.4 10.7 16.4 10.7 16.4 10.7 16.4 10.7Z" fill="#7823DC" clip-path="url(#SVGID_00000075140668768057543030000016464051400202786994_)"/></g></g></svg>