<svg width="36.6" height="36.7" viewBox="0 0 36.6 36.7" xmlns="http://www.w3.org/2000/svg" xmlns:xlink="http://www.w3.org/1999/xlink" overflow="hidden"><style>
.MsftOfcResponsive_Fill_7823dc {
 fill:#7823DC; 
}
</style>
<defs></defs><g><g><defs><path d="M0 36.5 36.5 36.5 36.5 0 0 0 0 36.5Z" id="SVGID_1_" class="MsftOfcResponsive_Fill_7823dc" fill="#7823DC"/></defs><clipPath id="SVGID_2_"><use width="100%" height="100%" xlink:href="#SVGID_1_"></use></clipPath><g class="st0" clip-path="url(#SVGID_2_)"><g><defs><path d="M0.1 36.6 36.6 36.6 36.6 0.1 0.1 0.1 0.1 36.6Z" id="SVGID_3_" class="MsftOfcResponsive_Fill_7823dc" fill="#7823DC"/></defs><clipPath id="SVGID_4_"><use width="100%" height="100%" xlink:href="#SVGID_3_"></use></clipPath><g class="st1" clip-path="url(#SVGID_4_)"><defs><path d="M0.1 36.6 36.6 36.6 36.6 0.1 0.1 0.1 0.1 36.6Z" id="SVGID_5_" class="MsftOfcResponsive_Fill_7823dc" fill="#7823DC"/></defs><clipPath id="SVGID_6_"><use width="100%" height="100%" xlink:href="#SVGID_5_"></use></clipPath><path d="M0.1 23 2.4 23 2.4 36.7 0.1 36.7 0.1 23Z" class="st2 MsftOfcResponsive_Fill_7823dc" fill="#7823DC" clip-path="url(#SVGID_6_)"/><path d="M18.3 23 20.6 23 20.6 36.7 18.3 36.7 18.3 23Z" class="st2 MsftOfcResponsive_Fill_7823dc" fill="#7823DC" clip-path="url(#SVGID_6_)"/><path d="M10.3 27.7 5.6 23 2.4 23 10.3 31 18.3 23 15.1 23 10.3 27.7 10.3 27.7Z" class="st2 MsftOfcResponsive_Fill_7823dc" fill="#7823DC" clip-path="url(#SVGID_6_)"/><path d="M10.3 13.8C12.2 13.8 13.7 15.3 13.7 17.2 13.7 19.1 12.2 20.6 10.3 20.6 8.4 20.6 6.9 19.1 6.9 17.2 6.9 15.4 8.5 13.8 10.3 13.8M10.3 11.5C7.2 11.5 4.6 14.1 4.6 17.2 4.6 20.3 7.2 23 10.3 23 13.4 23 16 20.4 16 17.3 16 14.2 13.5 11.5 10.3 11.5L10.3 11.5Z" class="st2 MsftOfcResponsive_Fill_7823dc" fill="#7823DC" clip-path="url(#SVGID_6_)"/><path d="M25.2 9.2 34.3 9.2 34.3 18.3 32.3 18.3 32.3 20.6 36.6 20.6 36.6 11.4 32.1 7 25.2 7 25.2 9.2 25.2 9.2Z" class="st2 MsftOfcResponsive_Fill_7823dc" fill="#7823DC" clip-path="url(#SVGID_6_)"/><path d="M2.4 20.6 2.4 2.4 25.2 2.4 25.2 18.3 18.3 18.3 18.3 20.6 27.4 20.6 27.4 4.6 23 0.1 0.1 0.1 0.1 20.6 2.4 20.6 2.4 20.6Z" class="st2 MsftOfcResponsive_Fill_7823dc" fill="#7823DC" clip-path="url(#SVGID_6_)"/><path d="M29.8 13.7 35.5 13.7 35.5 16 29.8 16 29.8 13.7Z" class="st2 MsftOfcResponsive_Fill_7823dc" fill="#7823DC" clip-path="url(#SVGID_6_)"/><path d="M25.2 18.3 29.1 18.3 29.1 20.6 25.2 20.6 25.2 18.3Z" class="st2 MsftOfcResponsive_Fill_7823dc" fill="#7823DC" clip-path="url(#SVGID_6_)"/><path d="M30.6 22.9C28.9 22.9 27.6 21.5 27.6 19.9 27.6 18.3 29 16.9 30.6 16.9 32.2 16.9 33.6 18.3 33.6 19.9 33.6 21.5 32.3 22.9 30.6 22.9ZM30.6 19.1C30.2 19.1 29.8 19.4 29.8 19.9 29.8 20.4 30.1 20.7 30.6 20.7 31.1 20.7 31.4 20.4 31.4 19.9 31.4 19.4 31.1 19.1 30.6 19.1Z" class="st2 MsftOfcResponsive_Fill_7823dc" fill="#7823DC" clip-path="url(#SVGID_6_)"/></g></g></g></g></g></svg>