<svg width="32" height="32" viewBox="0 0 32 32" xmlns="http://www.w3.org/2000/svg" xmlns:xlink="http://www.w3.org/1999/xlink" overflow="hidden"><defs></defs><g><g><g><defs><rect x="0" y="0" width="32" height="32" id="SVGID_1_" fill="#7823DC"/></defs><clipPath id="SVGID_2_"><use width="100%" height="100%" xlink:href="#SVGID_1_"></use></clipPath><g clip-path="url(#SVGID_2_)"><defs><rect x="0" y="0" width="32" height="32" id="SVGID_3_" fill="#7823DC"/></defs><clipPath id="SVGID_4_"><use width="100%" height="100%" xlink:href="#SVGID_3_"></use></clipPath></g></g></g><path d="M16 32C7.2 32 0 24.8 0 16 0 7.2 7.2 0 16 0 24.8 0 32 7.2 32 16 32 24.8 24.8 32 16 32ZM16 2C8.3 2 2 8.3 2 16 2 23.7 8.3 30 16 30 23.7 30 30 23.7 30 16 30 8.3 23.7 2 16 2Z" fill="#7823DC"/><g><path d="M10.3 23.4 16.5 16.8C17.9 15.3 18.8 13.9 18.8 12.2 18.8 10.4 17.8 9.4 16 9.4 14.2 9.4 13 10.4 12.7 12.9L10.9 12.9C11.1 9.8 13 7.9 16 7.9 18.9 7.9 20.8 9.6 20.8 12.3 20.8 14.2 19.6 16.1 17.6 18L13.3 22.2 20.9 22.2 20.9 23.8 10.3 23.8 10.3 23.4Z" fill="#7823DC"/></g></g></svg>