<svg viewBox="0 0 32.05 31.89" xmlns="http://www.w3.org/2000/svg" xmlns:xlink="http://www.w3.org/1999/xlink" id="Layer_1" overflow="hidden"><style>
.MsftOfcResponsive_Fill_7823dc {
 fill:#7823DC; 
}
</style>
<defs></defs><path d="M22.77 8.5C21.41 8.5 20.15 7.94 19.31 6.96 18.48 5.86 17.27 5.25 15.96 5.25L13.55 5.25 16.23 2.57C17.75 1.04 19.9 0.13 22.28 0 24.6-0.14 26.68 1.37 27.1 3.51 27.3 4.8 26.97 6 26.15 6.95 25.32 7.93 24.08 8.49 22.76 8.49ZM18.04 3.61C19.15 4.01 20.13 4.73 20.86 5.71 21.28 6.2 21.98 6.5 22.77 6.5 23.5 6.5 24.18 6.19 24.64 5.66 25.07 5.16 25.24 4.53 25.14 3.87 24.92 2.76 23.7 1.93 22.4 2.01L22.4 2.01C20.72 2.1 19.2 2.67 18.05 3.62Z" class="MsftOfcResponsive_Fill_7823dc" fill="#7823DC"/><path d="M7 31.89C3.14 31.89 0 28.75 0 24.89 0 21.03 3.14 17.89 7 17.89 10.86 17.89 14 21.03 14 24.89 14 28.75 10.86 31.89 7 31.89ZM7 19.89C4.24 19.89 2 22.13 2 24.89 2 27.65 4.24 29.89 7 29.89 9.76 29.89 12 27.65 12 24.89 12 22.13 9.76 19.89 7 19.89Z" class="MsftOfcResponsive_Fill_7823dc" fill="#7823DC"/><path d="M25.03 31.89C21.16 31.89 18 28.76 18 24.91 18 21.06 21.15 17.93 25.03 17.93 28.91 17.93 32.06 21.06 32.06 24.91 32.06 28.76 28.91 31.89 25.03 31.89ZM25.03 19.93C22.26 19.93 20 22.16 20 24.91 20 27.66 22.25 29.89 25.03 29.89 27.81 29.89 30.06 27.66 30.06 24.91 30.06 22.16 27.81 19.93 25.03 19.93Z" class="MsftOfcResponsive_Fill_7823dc" fill="#7823DC"/><path d="M16.56 26.05 14.64 25.49 16.29 19.86 10.13 16.15C9.36 15.64 8.9 14.87 8.85 14.02 8.8 13.19 9.13 12.39 9.77 11.83L13.56 8.58C15.08 7.19 17.55 7.26 19.03 8.74L22.2 11.91 28.79 11.91 28.79 13.91 21.37 13.91 17.62 10.16C16.88 9.42 15.66 9.39 14.89 10.08L11.08 13.35C10.92 13.49 10.83 13.69 10.84 13.89 10.86 14.11 10.98 14.32 11.2 14.46L18.64 18.95 16.56 26.05Z" class="MsftOfcResponsive_Fill_7823dc" fill="#7823DC"/><rect x="11.16" y="12.18" width="9.05" height="2" class="MsftOfcResponsive_Fill_7823dc" fill="#7823DC" transform="matrix(0.753334 -0.657638 0.657638 0.753334 -4.8 13.56)"/><circle cx="25.03" cy="24.91" r="1" class="MsftOfcResponsive_Fill_7823dc" fill="#7823DC"/><circle cx="7" cy="24.89" r="1" class="MsftOfcResponsive_Fill_7823dc" fill="#7823DC"/></svg>