<svg viewBox="0 0 32.12 32.11" xmlns="http://www.w3.org/2000/svg" xmlns:xlink="http://www.w3.org/1999/xlink" id="Layer_1" overflow="hidden"><style>
.MsftOfcThm_Text2_Fill_v2 {
 fill:#7823DC; 
}
</style>
<defs></defs><path d="M26.22 20.31C26.17 20.31 26.11 20.31 26.06 20.32 26.29 19.89 26.5 19.45 26.69 19 27.35 17.35 27.68 15.61 27.68 13.84 27.68 6.21 21.47 0 13.84 0 6.21 0 0 6.21 0 13.84 0 18.05 1.97 22.06 5.26 24.67 5.13 25.16 5.05 25.68 5.05 26.21 5.05 29.46 7.7 32.11 10.95 32.11 12.11 32.11 13.26 31.76 14.21 31.12L14.53 30.9C14.72 30.75 14.9 30.59 15.06 30.44 15.08 30.42 15.1 30.4 15.12 30.38 15.12 30.38 15.12 30.38 15.13 30.37 15.16 30.34 15.19 30.31 15.22 30.28 15.34 30.15 15.46 30.02 15.58 29.88 15.61 29.84 15.64 29.81 15.67 29.77 15.73 29.69 15.78 29.61 15.83 29.54 15.88 29.47 15.93 29.4 15.98 29.32 16.03 29.25 16.07 29.17 16.11 29.09 16.15 29.02 16.18 28.96 16.22 28.89 16.26 28.82 16.29 28.74 16.33 28.66 16.35 28.61 16.38 28.57 16.4 28.52 17.71 27.65 19.58 27.7 20.86 28.67 20.9 28.75 20.94 28.82 20.98 28.9 21.02 28.98 21.06 29.07 21.11 29.15 21.18 29.27 21.25 29.38 21.33 29.5 21.38 29.58 21.43 29.65 21.48 29.73 21.52 29.78 21.56 29.83 21.6 29.88 21.64 29.93 21.69 29.98 21.73 30.03 21.74 30.04 21.76 30.06 21.77 30.07 21.82 30.13 21.87 30.19 21.92 30.25 22.06 30.4 22.21 30.54 22.37 30.68 22.37 30.68 22.37 30.68 22.37 30.68 22.37 30.68 22.37 30.68 22.37 30.68 22.38 30.68 22.39 30.7 22.4 30.71L22.4 30.71C22.45 30.76 22.51 30.81 22.54 30.83 23.57 31.65 24.87 32.1 26.2 32.1 29.45 32.1 32.1 29.45 32.1 26.2 32.1 22.95 29.45 20.3 26.2 20.3ZM6.15 22.81C3.8 20.79 2.33 17.92 2.06 14.84L5.63 14.84 5.63 12.84 2.05 12.84C2.53 7.11 7.11 2.53 12.84 2.05L12.84 5.63 14.84 5.63 14.84 2.05C20.57 2.53 25.15 7.11 25.63 12.84L22.05 12.84 22.05 14.84 25.64 14.84C25.54 16.01 25.28 17.16 24.84 18.25 24.41 19.31 23.82 20.31 23.1 21.22 22.33 21.7 21.69 22.34 21.23 23.09 21.17 23.14 21.11 23.18 21.05 23.23 19.5 22.5 17.62 22.51 16.05 23.23 15.01 21.45 13.1 20.31 10.97 20.31 9.03 20.31 7.26 21.27 6.17 22.81ZM10.95 30.11C8.8 30.11 7.05 28.36 7.05 26.21 7.05 25.68 7.15 25.18 7.35 24.71 7.96 23.25 9.38 22.31 10.95 22.31 12.63 22.31 14.11 23.37 14.65 24.97 14.79 25.36 14.86 25.77 14.86 26.21 14.86 26.65 14.78 27.09 14.64 27.5L14.64 27.54C14.64 27.54 14.63 27.54 14.63 27.54 14.54 27.78 14.42 28.02 14.28 28.24 14.26 28.27 14.24 28.3 14.22 28.33 14.07 28.55 13.91 28.76 13.72 28.96 13.6 29.08 13.47 29.19 13.33 29.3L13.27 29.34C12.61 29.84 11.79 30.11 10.95 30.11ZM18.52 25.88C17.95 25.88 17.39 25.97 16.86 26.13 16.86 25.77 16.81 25.42 16.75 25.09 17.87 24.52 19.24 24.51 20.43 25.17 20.37 25.5 20.33 25.84 20.33 26.18 19.75 25.99 19.14 25.88 18.52 25.88ZM26.22 30.11C25.34 30.11 24.48 29.81 23.81 29.28L23.71 29.18C23.71 29.18 23.69 29.16 23.68 29.15 23.47 28.97 23.29 28.77 23.13 28.56 23.08 28.49 23.03 28.41 22.98 28.34 22.84 28.13 22.71 27.91 22.61 27.67L22.61 27.67C22.42 27.18 22.33 26.69 22.33 26.2 22.33 25.79 22.39 25.39 22.52 25 22.59 24.76 22.7 24.52 22.85 24.27 23.18 23.67 23.69 23.17 24.3 22.82 24.9 22.48 25.57 22.3 26.23 22.3 28.38 22.3 30.13 24.05 30.13 26.2 30.13 28.35 28.38 30.1 26.23 30.1Z" class="MsftOfcThm_Text2_Fill_v2" stroke-width="0" fill="#7823DC"/><path d="M26.22 23.26C25.71 23.26 25.21 23.39 24.76 23.65 24.29 23.91 23.91 24.3 23.66 24.74 23.55 24.92 23.47 25.11 23.41 25.31 23.32 25.6 23.27 25.9 23.27 26.21 23.27 26.52 23.32 26.81 23.41 27.11L23.47 27.28C23.52 27.42 23.58 27.55 23.64 27.63 23.81 27.93 24.03 28.21 24.3 28.44L24.39 28.52C24.91 28.93 25.56 29.16 26.22 29.16 27.85 29.16 29.17 27.84 29.17 26.21 29.17 24.58 27.85 23.26 26.22 23.26ZM26.22 27.16C26 27.16 25.8 27.09 25.68 27L25.61 26.93C25.52 26.85 25.45 26.77 25.36 26.61L25.34 26.56C25.29 26.44 25.27 26.32 25.27 26.2 25.27 26.1 25.29 26 25.32 25.9 25.34 25.85 25.36 25.79 25.4 25.72 25.48 25.58 25.6 25.46 25.75 25.37 26.38 25.01 27.17 25.51 27.17 26.19 27.17 26.72 26.74 27.14 26.22 27.14Z" class="MsftOfcThm_Text2_Fill_v2" stroke-width="0" fill="#7823DC"/><path d="M10.96 23.26C10.45 23.26 9.94 23.4 9.5 23.65 9.03 23.91 8.65 24.3 8.4 24.74 8.29 24.93 8.2 25.12 8.15 25.31 8.06 25.6 8.01 25.9 8.01 26.21 8.01 26.52 8.06 26.81 8.15 27.11L8.21 27.28C8.26 27.42 8.32 27.55 8.38 27.63 8.55 27.93 8.77 28.21 9.04 28.44L9.13 28.52C9.65 28.93 10.3 29.16 10.96 29.16 12.59 29.16 13.91 27.84 13.91 26.21 13.91 24.58 12.59 23.26 10.96 23.26ZM10.39 26.98 10.34 26.94C10.25 26.86 10.18 26.78 10.09 26.62L10.07 26.57C10.02 26.45 10 26.33 10 26.21 10 26.11 10.01 26.01 10.05 25.91 10.06 25.86 10.09 25.81 10.13 25.74 10.21 25.6 10.33 25.48 10.48 25.39 11.1 25.04 11.9 25.53 11.9 26.21 11.9 26.93 11.04 27.44 10.38 26.98Z" class="MsftOfcThm_Text2_Fill_v2" stroke-width="0" fill="#7823DC"/><path d="M20.05 8.63 11.36 10.89 7.63 19.06 16.32 16.8 20.05 8.63ZM15.35 14.09 13.85 12.31 16.48 11.63 15.35 14.1ZM12.32 13.59 13.82 15.37 11.2 16.05 12.33 13.59Z" class="MsftOfcThm_Text2_Fill_v2" stroke-width="0" fill="#7823DC"/></svg>