<svg viewBox="0 0 32 32" xmlns="http://www.w3.org/2000/svg" xmlns:xlink="http://www.w3.org/1999/xlink" id="Graphic" overflow="hidden"><defs></defs><rect x="6.96969" y="26.0452" width="2" height="2" fill="#7823DC"/><rect x="6.96969" y="30.0098" width="2" height="2" fill="#7823DC"/><path d="M5.51 17.79 3.51 17.79 3.51 21.79 5.51 21.79 5.51 17.79 5.51 17.79Z" fill="#7823DC"/><path d="M4.924 20.376 3.51 21.79 6.338 24.618 7.752 23.204 4.924 20.376 4.924 20.376Z" fill="#7823DC"/><path d="M12.429 21.79 11.015 20.376 8.186 23.204 9.601 24.618 12.429 21.79 12.429 21.79Z" fill="#7823DC"/><path d="M12.429 17.79 10.429 17.79 10.429 21.79 12.429 21.79 12.429 17.79 12.429 17.79Z" fill="#7823DC"/><rect x="-0.03014" y="7.94007" width="2" height="10.18" fill="#7823DC"/><rect x="13.9699" y="7.94007" width="2" height="10.18" fill="#7823DC"/><path d="M7.97958 16.0898C3.5613 16.0898-0.0204201 12.5081-0.0204201 8.08978-0.0204201 3.6715 3.5613 0.0897808 7.97958 0.0897808 12.3979 0.0897808 15.9796 3.6715 15.9796 8.08978 15.9745 12.506 12.3958 16.0847 7.97958 16.0898ZM7.97958 2.08978C4.66587 2.08978 1.97958 4.77607 1.97958 8.08978 1.97958 11.4035 4.66587 14.0898 7.97958 14.0898 11.2933 14.0898 13.9796 11.4035 13.9796 8.08978 13.976 4.77757 11.2918 2.0934 7.97958 2.08978Z" fill="#7823DC"/><path d="M5.51 17.79-0.03 20.06-0.03 17.973 4.75 15.94 5.05 16.67 5.51 17.79Z" fill="#7823DC"/><rect x="19.9992" y="20.3696" width="2" height="11.6" fill="#7823DC"/><rect x="15.1995" y="13.2638" width="2" height="11.66" fill="#7823DC" transform="matrix(0.381554 -0.924346 0.924346 0.381554 -7.63073 26.7825)"/><path d="M14.9796 8.94037C11.6778 8.94037 9.3243 8.04583 7.98251 6.28119 6.89196 4.68451 6.53984 2.69629 7.01571 0.82219L8.94344 1.35735 7.97958 1.08977 8.94442 1.35246C8.6332 2.63092 8.86472 3.98118 9.58407 5.08293 10.5294 6.31536 12.3448 6.94036 14.9796 6.94036Z" fill="#7823DC"/><path d="M24.9904 2.02975C27.9378 2.02975 29.9918 3.60653 29.9918 5.02157 29.9918 5.9183 29.1892 6.83651 27.8971 7.41794L27.4982 7.59982 20.9566 10.4718 21.4348 8.61606 21.7381 7.43918 20.8363 6.6246C20.3436 6.23104 20.0367 5.65038 19.989 5.0216 19.989 3.6066 22.043 2.02978 24.9904 2.02978M24.9904 0.0216C21.1191 0.0216 17.9808 2.26013 17.9808 5.0216 18.0171 6.22141 18.5668 7.3479 19.4902 8.11486L17.9808 13.9715 28.7209 9.25619 28.7212 9.24919C30.6888 8.36386 32 6.80368 32 5.02157 32 2.2601 28.8617 0.02157 24.9904 0.02157Z" fill="#7823DC"/></svg>