<svg viewBox="0 0 32 32" xmlns="http://www.w3.org/2000/svg" xmlns:xlink="http://www.w3.org/1999/xlink" id="Layer_1" overflow="hidden"><style>
.MsftOfcResponsive_Fill_7823dc {
 fill:#7823DC; 
}
</style>
<defs></defs><path d="M8 0 8 6 10 6 10 2 30 2 28 0 8 0Z" class="MsftOfcResponsive_Fill_7823dc" stroke-width="0" fill="#7823DC"/><path d="M30 2 30 28.58 24.82 23.41C25.93 22 26.59 20.23 26.59 18.3 26.59 13.73 22.87 10.01 18.3 10.01 15.44 10.01 12.91 11.47 11.42 13.68L7 8.67 7 16.59 5 14.59 1.59 18 0 18 0 20 2.41 20 5 17.41 9 21.41 9 13.95 10.46 15.61C10.17 16.45 10.01 17.35 10.01 18.29 10.01 22.86 13.73 26.58 18.3 26.58 20.23 26.58 22 25.91 23.41 24.81L28.59 29.99 10 29.99 10 25.99 8 25.99 8 31.99 32 31.99 32 3.99 30 2ZM18.3 24.59C14.83 24.59 12.01 21.77 12.01 18.3 12.01 18.01 12.04 17.73 12.07 17.45L14.32 20.01 19.99 20.01 19.99 18.01 15.22 18.01 12.79 15.25C13.87 13.32 15.93 12.01 18.29 12.01 21.76 12.01 24.58 14.83 24.58 18.3 24.58 21.77 21.76 24.59 18.29 24.59Z" class="MsftOfcResponsive_Fill_7823dc" stroke-width="0" fill="#7823DC"/><rect x="14" y="4" width="12" height="2" class="MsftOfcResponsive_Fill_7823dc" stroke-width="0" fill="#7823DC"/><rect x="22" y="8" width="4.11" height="2" class="MsftOfcResponsive_Fill_7823dc" stroke-width="0" fill="#7823DC"/></svg>