<svg width="32" height="32" viewBox="0 0 32 32" xmlns="http://www.w3.org/2000/svg" xmlns:xlink="http://www.w3.org/1999/xlink" overflow="hidden"><defs></defs><g><path d="M30 8 30 30 4 30 4 26 10 26 10 20 16 20 16 14 22 14 22 8 30 8M32 6 20 6 20 12 14 12 14 18 8 18 8 24 2 24 2 30 0 30 0 32 32 32 32 6Z" fill="#7823DC"/></g><g><path d="M0 16.58 15.91 0.67 17.32 2.08 0 19.41Z" fill="#7823DC"/></g><g><path d="M16.01 9.05 18 7.07 18 0 10.93 0 8.91 2.01 15.99 1.99Z" fill="#7823DC"/></g><g><rect x="25.66" y="22.42" width="2" height="8.49" fill="#7823DC" transform="matrix(0.7071 -0.7071 0.7071 0.7071 -11.0442 26.6631)"/></g><g><rect x="20.24" y="19.83" width="2" height="2.83" fill="#7823DC" transform="matrix(0.7071 -0.7071 0.7071 0.7071 -8.7996 21.2441)"/></g><g><rect x="17.17" y="26.01" width="2.83" height="2" fill="#7823DC"/></g><g><rect x="25.98" y="18" width="2" height="2" fill="#7823DC"/></g><g><circle cx="29.33" cy="29.33" r="2.02" fill="#7823DC"/></g><g><path d="M18.84 32C18.3 30.77 18 29.42 18 28 18 22.49 22.49 18 28 18 29.42 18 30.77 18.3 32 18.84L32 16.7C30.75 16.26 29.4 16 28 16 21.37 16 16 21.37 16 28 16 29.4 16.25 30.75 16.7 32L18.84 32Z" fill="#7823DC"/></g></svg>