<svg viewBox="0 0 32 32" xmlns="http://www.w3.org/2000/svg" xmlns:xlink="http://www.w3.org/1999/xlink" overflow="hidden"><defs></defs><g id="Layer_3"><path d="M13.9473 32.0195-0.00781 32.0195-0.00781 6.01953C-0.00600229 4.36342 1.33609 3.02134 2.99219 3.01953L10.9473 3.01953C12.6034 3.02134 13.9455 4.36343 13.9473 6.01953ZM1.99219 30.0195 11.9473 30.0195 11.9473 6.01953C11.9469 5.4674 11.4994 5.01991 10.9473 5.01953L2.99219 5.01953C2.44006 5.0199 1.99256 5.4674 1.99219 6.01953Z" fill="#7823DC"/><path d="M10.9473 5.01953 2.94727 5.01953 2.94727 0.01953 10.9473 0.01953ZM4.94727 3.01953 8.94727 3.01953 8.94727 2.01953 4.94727 2.01953Z" fill="#7823DC"/><rect x="0.94727" y="7.01953" width="12" height="2" fill="#7823DC"/><path d="M31.9473 32.0195 17.9473 32.0195 17.9473 14.0195 31.9473 14.0195ZM19.9473 30.0195 29.9473 30.0195 29.9473 16.0195 19.9473 16.0195Z" fill="#7823DC"/><path d="M28.9473 23.0195 20.9473 23.0195 20.9473 17.0195 28.9473 17.0195ZM22.9473 21.0195 26.9473 21.0195 26.9473 19.0195 22.9473 19.0195Z" fill="#7823DC"/><rect x="20.9473" y="25.0195" width="2" height="2" fill="#7823DC"/><rect x="23.9473" y="25.0195" width="2" height="2" fill="#7823DC"/><rect x="26.9473" y="25.0195" width="2" height="2" fill="#7823DC"/><rect x="12.9473" y="18.0195" width="5" height="2" fill="#7823DC"/></g></svg>