<svg viewBox="0 0 32 32" xmlns="http://www.w3.org/2000/svg" xmlns:xlink="http://www.w3.org/1999/xlink" id="Graphic" overflow="hidden"><defs></defs><rect x="0" y="16.07" width="2" height="16" fill="#7823DC"/><path d="M14 15.93C18.4183 15.93 22 12.3483 22 7.93 22 3.51172 18.4183-0.0699997 14-0.0699997 9.58172-0.0699997 6 3.51172 6 7.93 6 12.3483 9.58172 15.93 14 15.93ZM14 1.93C17.3137 1.93 20 4.61629 20 7.93 20 11.2437 17.3137 13.93 14 13.93 10.6863 13.93 8 11.2437 8 7.93 8 4.61629 10.6863 1.93 14 1.93Z" fill="#7823DC"/><path d="M14 25.24 4.83 16.07 2 16.07 13.99 28.07 14.01 28.05 14.01 25.23 14 25.24Z" fill="#7823DC"/><path d="M30 18.07 30 30.07 16 30.07 16 18.07 30 18.07M32 16.07 14 16.07 14 32.07 32 32.07 32 16.07Z" fill="#7823DC"/><rect x="20" y="16.32" width="6" height="5.75" fill="#7823DC"/><rect x="7" y="6.07" width="21" height="2" fill="#7823DC"/></svg>