<svg viewBox="0 0 32 32.01" xmlns="http://www.w3.org/2000/svg" xmlns:xlink="http://www.w3.org/1999/xlink" id="Layer_1" overflow="hidden"><style>
.MsftOfcThm_Text2_Fill_v2 {
 fill:#7823DC; 
}
</style>
<path d="M9.5 13.23C8.67 13.23 8 12.56 8 11.73 8 10.9 8.67 10.23 9.5 10.23L9.5 13.23Z" class="MsftOfcThm_Text2_Fill_v2" fill="#7823DC"/><path d="M9.5 13.23 9.5 10.23C10.33 10.23 11 10.9 11 11.73 11 12.56 10.33 13.23 9.5 13.23Z" class="MsftOfcThm_Text2_Fill_v2" fill="#7823DC"/><path d="M16.01 26.79C14.04 26.79 12.11 26.25 10.43 25.24 8.75 24.22 7.38 22.77 6.46 21.03L8.23 20.1C8.98 21.52 10.09 22.7 11.46 23.53 12.83 24.36 14.4 24.79 16 24.8 16.36 24.8 16.74 24.77 17.1 24.73L17.35 26.71C16.91 26.77 16.45 26.79 16.01 26.8Z" class="MsftOfcThm_Text2_Fill_v2" fill="#7823DC"/><path d="M16.67 32.01 16 32.01C12.85 32.01 9.8 31.09 7.18 29.36 4.55 27.63 2.51 25.18 1.28 22.29 0.05 19.39-0.3 16.23 0.26 13.13 0.82 10.03 2.27 7.2 4.45 4.93 6.63 2.66 9.4 1.09 12.47 0.4 15.54-0.3 18.72-0.08 21.66 1.03 24.6 2.14 27.13 4.07 28.98 6.62 30.82 9.17 31.87 12.18 32 15.32L30 15.4C29.88 12.65 28.97 10.02 27.35 7.79 25.74 5.56 23.52 3.87 20.95 2.9 18.38 1.93 15.6 1.74 12.91 2.35 10.23 2.96 7.8 4.33 5.89 6.32 3.99 8.31 2.72 10.79 2.22 13.5 1.73 16.21 2.04 18.98 3.12 21.51 4.2 24.04 5.99 26.18 8.28 27.7 10.58 29.22 13.25 30.02 16 30.02L16.67 30.02 16.67 32.02Z" class="MsftOfcThm_Text2_Fill_v2" fill="#7823DC"/><path d="M23.64 12.64C23.45 12.34 23.19 12.1 22.89 11.93 22.27 11.59 21.49 11.59 20.88 11.93 20.57 12.1 20.31 12.35 20.12 12.64L18.43 11.58C18.8 11 19.31 10.51 19.91 10.18 21.11 9.51 22.65 9.51 23.85 10.18 24.45 10.51 24.96 11 25.33 11.58L23.64 12.64Z" class="MsftOfcThm_Text2_Fill_v2" fill="#7823DC"/><path d="M16.67 32C16.55 32 16.43 31.98 16.31 31.93 15.93 31.78 15.67 31.41 15.67 31L15.67 29.67C15.67 25.58 17.28 21.74 20.17 18.85 23.06 15.96 26.91 14.37 31 14.37 31.4 14.37 31.76 14.6 31.92 14.97 32.08 15.33 32.01 15.76 31.74 16.05L17.42 31.68C17.23 31.89 16.96 32 16.68 32ZM28.51 16.6C25.9 17.09 23.5 18.35 21.58 20.26 19.38 22.46 18.04 25.3 17.73 28.35L28.5 16.59Z" class="MsftOfcThm_Text2_Fill_v2" fill="#7823DC"/></svg>