<svg viewBox="0 0 32 32" xmlns="http://www.w3.org/2000/svg" xmlns:xlink="http://www.w3.org/1999/xlink" id="Layer_1" overflow="hidden"><g><path d="M16.1 25.5 20.1 25.5 20.1 27.5 16.1 27.5 16.1 25.5 16.1 25.5 16.1 25.5ZM26.5 25 29.5 24.5 29.8 26.5 26.8 27 26.5 25 26.5 25 26.5 25ZM2 23.5 6 23.5 6 27.5 2 27.5 2 23.5 2 23.5 2 23.5ZM16.1 16.5 20.1 16.5 20.1 23.5 16.1 23.5 16.1 16.5 16.1 16.5 16.1 16.5ZM16.1 12.5 20.1 12.5 20.1 14.5 16.1 14.5 16.1 12.5 16.1 12.5 16.1 12.5ZM2 9.5 6 9.5 6 21.5 2 21.5 2 9.5 2 9.5 2 9.5ZM8.1 9.5 14.1 9.5 14.1 10.5 14.1 27.5 8.1 27.5 8.1 9.5 8.1 9.5 8.1 9.5ZM23.8 9.3 26.8 8.8 29.2 22.6 26.2 23.1 23.8 9.3 23.8 9.3 23.8 9.3ZM2 5.5 6 5.5 6 7.5 2 7.5 2 5.5 2 5.5 2 5.5ZM23.1 5.3 26.1 4.8 26.4 6.8 23.4 7.3 23.1 5.3 23.1 5.3 23.1 5.3ZM20.8 3.7 22 10.5 16.2 10.5 16.2 7.5 8.1 7.5 8.1 3.5 3 3.5 0 6.7 0 29.5 6 29.5 8 29.5 14 29.5 16 29.5 22 29.5 22 12 25 29.3 32 28.1 27.7 2.5 20.8 3.7 20.8 3.7 20.8 3.7Z" fill="#7823DC" fill-rule="evenodd" clip-rule="evenodd"/><path d="M10.1 11.5 12.1 11.5 12.1 13.5 10.1 13.5 10.1 11.5Z" fill="#7823DC" fill-rule="evenodd" clip-rule="evenodd"/><path d="M10.1 23.5 12.1 23.5 12.1 25.5 10.1 25.5 10.1 23.5Z" fill="#7823DC" fill-rule="evenodd" clip-rule="evenodd"/><path d="M10.1 19.5 12.1 19.5 12.1 21.5 10.1 21.5 10.1 19.5Z" fill="#7823DC" fill-rule="evenodd" clip-rule="evenodd"/><path d="M10.1 15.5 12.1 15.5 12.1 17.5 10.1 17.5 10.1 15.5Z" fill="#7823DC" fill-rule="evenodd" clip-rule="evenodd"/></g></svg>