<svg viewBox="0 0 32 32" xmlns="http://www.w3.org/2000/svg" xmlns:xlink="http://www.w3.org/1999/xlink" overflow="hidden"><style>
.MsftOfcResponsive_Fill_7823dc {
 fill:#7823DC; 
}
</style>
<defs></defs><g id="Layer_3"><path d="M15.9997 12.3569C24.0125 12.3569 29.9997 15.5246 29.9997 18.3569 29.9997 21.1891 24.0125 24.3569 15.9997 24.3569 7.98693 24.3569 1.99971 21.1891 1.99971 18.3569 1.99971 15.5246 7.98693 12.3569 15.9997 12.3569M15.9997 10.3569C7.16315 10.3569-0.00029 13.9386-0.00029 18.3569-0.00029 22.7751 7.16315 26.3569 15.9997 26.3569 24.8363 26.3569 31.9997 22.7752 31.9997 18.3569 31.9997 13.9386 24.8363 10.3569 15.9997 10.3569Z" class="MsftOfcResponsive_Fill_7823dc" fill="#7823DC"/><rect x="29.9997" y="18.3569" width="2" height="5.47836" class="MsftOfcResponsive_Fill_7823dc" fill="#7823DC"/><rect x="-0.00029" y="18.3569" width="2" height="5.47836" class="MsftOfcResponsive_Fill_7823dc" fill="#7823DC"/><path d="M15.9997 29.6902C7.98696 29.6902 1.99971 26.5224 1.99971 23.6902L-0.00029 23.6902C-0.00029 28.1084 7.16317 31.6902 15.9997 31.6902 24.8363 31.6902 31.9997 28.1084 31.9997 23.6902L29.9997 23.6902C29.9997 26.5224 24.0125 29.6902 15.9997 29.6902Z" class="MsftOfcResponsive_Fill_7823dc" fill="#7823DC"/><path d="M16.3829 13.3187 14.3829 13.3187 14.3829 14.2287C13.08 14.3015 12.0522 15.3641 12.0229 16.6687 12.0229 18.1187 12.7429 18.8287 14.4029 19.1587L14.4029 20.6687C14.1155 20.4621 13.9415 20.1326 13.9329 19.7787L11.8229 19.7787C11.8531 21.19 12.9728 22.3358 14.3829 22.3987L14.3829 23.2987 16.3829 23.2987 16.3829 22.4087C17.8078 22.4033 18.9585 21.2438 18.9531 19.8189L18.9529 19.7987C18.9529 18.2487 17.9529 17.6387 16.3829 17.3687L16.3829 15.8987C16.6249 16.0612 16.7766 16.3277 16.7929 16.6187L18.8429 16.6187C18.79 15.2926 17.71 14.2389 16.3829 14.2187ZM14.3829 17.0587C14.1476 16.9666 14.0011 16.7305 14.0229 16.4787 14.0255 16.2414 14.1554 16.0238 14.3629 15.9087L14.3629 17.0587ZM16.3829 20.7687 16.3829 19.4487C16.669 19.5077 16.8689 19.7671 16.8529 20.0587 16.8618 20.3708 16.6737 20.6549 16.3829 20.7687Z" class="MsftOfcResponsive_Fill_7823dc" fill="#7823DC"/></g></svg>