<svg viewBox="0 0 32 32" xmlns="http://www.w3.org/2000/svg" xmlns:xlink="http://www.w3.org/1999/xlink" id="Graphic" overflow="hidden"><defs></defs><path d="M22 6.06C23.6569 6.06 25 7.40315 25 9.06L25 23C25 24.6569 23.6569 26 22 26L8.05 26C6.39315 26 5.05 24.6569 5.05 23L5.05 9.09C5.05 7.43315 6.39315 6.09 8.05 6.09L22 6.09M22 4.09 8.05 4.09C5.28858 4.09 3.05 6.32858 3.05 9.09L3.05 23C3.05 25.7614 5.28858 28 8.05 28L22 28C24.7614 28 27 25.7614 27 23L27 9.09C27 6.32858 24.7614 4.09 22 4.09Z" fill="#7823DC"/><path d="M18.31 2 19.08 4 10.93 4 11.71 2 18.31 2M19.67 0 10.34 0 8 6 22 6 19.67 0Z" fill="#7823DC"/><path d="M19.08 28 18.31 30 11.71 30 10.93 28 19.08 28M22 26 8 26 10.33 32 19.66 32 22 26Z" fill="#7823DC"/><path d="M27.05 8.92 25 8.92 25 14.87 27 14.87C28.0652 14.9087 28.9601 14.0765 28.9988 13.0113 28.9997 12.9842 29.0002 12.9571 29 12.93L29 10.85C29.0055 9.78963 28.1504 8.92554 27.0901 8.92 27.0834 8.91996 27.0767 8.91996 27.07 8.92Z" fill="#7823DC"/><path d="M19.82 12 16.99 12 13 15.99 19.41 22.33 22.24 22.33 15.83 16 19.82 12Z" fill="#7823DC"/><path d="M16.02 5.16 13.98 5.16 13.98 8.92 16.02 8.92 16.02 5.16 16.02 5.16Z" fill="#7823DC"/><path d="M16.02 23 13.98 23 13.98 26.76 16.02 26.76 16.02 23 16.02 23Z" fill="#7823DC"/><path d="M25.83 15 22.08 15 22.08 17.04 25.83 17.04 25.83 15 25.83 15Z" fill="#7823DC"/><path d="M7.74 15 3.98 15 3.98 17.04 7.74 17.04 7.74 15 7.74 15Z" fill="#7823DC"/></svg>