<svg width="32" height="32" viewBox="0 0 32 32" xmlns="http://www.w3.org/2000/svg" xmlns:xlink="http://www.w3.org/1999/xlink" overflow="hidden"><defs></defs><g><path d="M19 15.06 19 21.07 13 21.07 13 15.06 19 15.06M21 13.06 11 13.06 11 23.07 21 23.07 21 13.06 21 13.06Z" fill="#7823DC"/></g><g><path d="M6.23 12.96C6.85 12.96 7.35 13.46 7.35 14.08 7.35 14.7 6.85 15.2 6.23 15.2 5.61 15.2 5.11 14.7 5.11 14.08 5.12 13.46 5.62 12.96 6.23 12.96M6.23 11.16C4.62 11.16 3.31 12.47 3.31 14.08 3.31 15.69 4.62 17 6.23 17 7.84 17 9.15 15.69 9.15 14.08 9.15 12.46 7.84 11.16 6.23 11.16L6.23 11.16Z" fill="#7823DC"/></g><g><path d="M25.66 12.95C26.28 12.95 26.78 13.45 26.78 14.07 26.78 14.69 26.28 15.19 25.66 15.19 25.04 15.19 24.54 14.69 24.54 14.07 24.55 13.45 25.05 12.95 25.66 12.95M25.66 11.15C24.05 11.15 22.74 12.46 22.74 14.07 22.74 15.68 24.05 16.99 25.66 16.99 27.27 16.99 28.58 15.68 28.58 14.07 28.58 12.45 27.27 11.15 25.66 11.15L25.66 11.15Z" fill="#7823DC"/></g><g><rect x="8.68" y="13.06" width="14.52" height="2" fill="#7823DC"/></g><g><rect x="5.23" y="6.09" width="2" height="6.1" fill="#7823DC"/></g><g><rect x="24.66" y="6.07" width="2" height="6.1" fill="#7823DC"/></g><g><rect x="2.01" y="30" width="10.5" height="2" fill="#7823DC"/></g><g><rect x="19.49" y="30" width="10.5" height="2" fill="#7823DC"/></g><path d="M32 1.42C32 1.42 32 1.42 32 1.42 30.44 0.55 28.1 0 25.5 0 20.8 0 17 1.79 17 3.99 17 6.19 20.8 7.98 25.5 7.98 28.11 7.98 30.44 7.43 32 6.56 32 6.56 32 6.56 32.01 6.56L32.01 1.42ZM25.5 5.98C21.29 5.98 19.12 4.46 19 4 19.11 3.52 21.29 2 25.5 2 29.71 2 31.88 3.52 32 3.98 31.88 4.46 29.71 5.98 25.5 5.98Z" fill="#7823DC"/><path d="M6.5 0C3.89 0 1.56 0.55 0 1.43L0 6.57C1.56 7.44 3.89 8 6.5 8 11.19 7.99 15 6.2 15 3.99 15 1.78 11.19 0 6.5 0ZM6.5 5.98C2.29 5.98 0.12 4.46 0 4 0.12 3.52 2.29 2 6.5 2 10.71 2 12.88 3.52 13 3.98 12.88 4.46 10.71 5.98 6.5 5.98Z" fill="#7823DC"/><g><path d="M20.24 22.02 15.97 22.02 15.97 23.07C20.47 23.07 24.13 26.73 24.13 31.24L26.13 31.24C26.13 27.15 23.71 23.64 20.24 22.02Z" fill="#7823DC"/></g><g><path d="M11.77 22.02C8.29 23.64 5.87 27.15 5.87 31.23L7.87 31.23C7.87 26.73 11.53 23.06 16.03 23.06L16.03 22.01 11.77 22.01Z" fill="#7823DC"/></g></svg>