<svg viewBox="0 0 32 32" xmlns="http://www.w3.org/2000/svg" xmlns:xlink="http://www.w3.org/1999/xlink" id="Graphic" overflow="hidden"><defs></defs><path d="M8.2 9.5 8.2 13 10.2 13 10.2 10.2C10.5 10.2 10.7 10.2 11 10.2 11.3 10.2 11.6 10.2 11.8 10.2L11.8 13 13.8 13 13.8 9.5C15.2 8.6 16.1 7 16.1 5.2 16.1 2.4 13.8 0 10.9 0 8 0 5.7 2.3 5.7 5.1 5.7 7.9 6.6 8.5 8 9.4L8 9.4ZM8.5 4.3 10.1 4.1 10.8 2.7C10.9 2.5 11.2 2.5 11.3 2.7L12 4.1 13.6 4.3C13.8 4.3 13.9 4.6 13.8 4.7L12.6 5.8 12.9 7.4C12.9 7.6 12.7 7.8 12.5 7.7L11.1 7 9.7 7.7C9.5 7.7 9.3 7.7 9.3 7.4L9.6 5.8 8.4 4.7C8.2 4.6 8.4 4.3 8.6 4.3L8.6 4.3Z" fill="#7823DC" fill-rule="evenodd"/><path d="M13.9 28.3 11.9 28.3 11.9 30 10.2 30 10.2 28.3 8.2 28.3 8.2 30 3.7 30 3.7 32 18.3 32 18.3 30 13.9 30 13.9 28.3 13.9 28.3 13.9 28.3Z" fill="#7823DC" fill-rule="evenodd"/><path d="M23.4 12.7 23.4 15.1 22.4 15.1C21.5 15.1 19.4 15 19.1 14 18.7 12.7 18 11.9 17.1 11.4 16 10.9 14.9 11.2 14.8 11.2L14.1 11.5 14.1 13.7 3.7 13.7C2.7 14.1 2 15 2 16.2 2 17.4 2.4 17.9 3.1 18.4 3.1 18.7 3 18.9 3 19.2 3 19.9 3.3 20.6 3.7 21.1 3.6 21.4 3.5 21.7 3.5 22.1 3.5 23 3.9 23.8 4.6 24.2 4.6 24.5 4.5 24.8 4.5 25 4.5 26.4 5.5 27.5 6.8 27.5L15.5 27.5 15.8 27.1C15.8 27.1 17.2 25.5 19 25.3L23.3 25.3 23.3 27.2 29.9 27.2 29.9 12.6 23.3 12.6ZM19.1 23.2 19 23.2C16.9 23.5 15.3 24.8 14.7 25.4L14.7 25.4C14.7 25.4 14.6 25.4 14.5 25.4L7.2 25.4C7.2 25.4 7 25.4 7 25.4 7 25.4 7 25.4 7 25.4 6.9 25.4 6.8 25.2 6.8 25 6.8 24.7 7 24.5 7.3 24.5L7.3 24.5 7.3 22.6 6.1 22.6C5.9 22.6 5.8 22.4 5.8 22.1 5.8 21.8 5.8 21.8 5.9 21.7L5.9 21.7C5.9 21.7 5.9 21.7 6 21.7L6.4 21.7 6.4 19.8 5.4 19.8C5.2 19.8 5.1 19.6 5.1 19.3 5.1 19 5.2 18.8 5.4 18.8L5.9 18.8 5.9 16.8 4.5 16.8C4.5 16.8 4.4 16.8 4.3 16.8L4.3 16.8C4.1 16.8 4 16.5 4 16.3 4 16 4.2 15.8 4.5 15.8L16.2 15.8 16.2 13.3C16.6 13.5 16.9 14 17.1 14.7 17.8 17 20.8 17.2 22 17.2 23.2 17.2 22.4 17.2 22.5 17.2L23.4 17.2 23.4 23.3 19.1 23.3 19.1 23.3ZM28 25.2 25.4 25.2 25.4 14.6 28 14.6 28 25.2 28 25.2Z" fill="#7823DC" fill-rule="evenodd"/></svg>