<svg viewBox="0 0 32 32" xmlns="http://www.w3.org/2000/svg" xmlns:xlink="http://www.w3.org/1999/xlink" id="Layer_1" xml:space="preserve" overflow="hidden"><path d="M29.8 12 29.8 11.9C29.7 11.3 29.5 10.8 29.3 10.2L29.3 10.1C29.2 9.8 29.1 9.5 29 9.3 26.6 3.8 21.3 0 15.1 0 6.8 0 0 6.9 0 15.5 0 20.9 2.7 25.7 6.9 28.5L8.1 26.9C4.4 24.5 2 20.2 2 15.5 2 8 7.9 2 15.1 2 20.7 2 25.6 5.7 27.4 10.8 27.4 10.9 27.5 11 27.5 11.2 27.6 11.6 27.7 12 27.8 12.4L27.8 12.5C28.4 14.7 29 17.4 29.4 19.3 29.4 19.5 29.5 19.7 29.5 19.8 29.5 19.6 29.6 19.4 29.6 19.3 29.9 18.1 30.1 16.8 30.1 15.5 30.2 14.3 30.1 13.1 29.8 12Z" fill="#7823DC"/><path d="M32 22.3 26.4 22.3 26.4 32 17 32 17 30 24.3 30 24.3 20.3 29.5 20.3C29.5 20.1 29.4 19.9 29.4 19.7 29 17.8 28.3 14.6 27.7 12.2L27.7 12.1C27.6 11.7 27.5 11.3 27.4 10.9 27.4 10.8 27.3 10.6 27.3 10.5 27.2 10.2 27.1 9.8 27 9.6L28.8 8.9 28.8 9.9C28.9 10.2 29 9.5 29.1 9.8L29.1 9.9C29.3 10.4 29.4 11 29.6 11.6L29.6 11.7C30.6 15.5 31.6 20.9 31.7 21.2L32 22.3Z" fill="#7823DC"/><g><path d="M10 17.6 19.7 7.9 21.1 9.3 11.4 19 10 17.6Z" fill="#7823DC" fill-rule="evenodd" clip-rule="evenodd"/><g><path d="M19 16C19.6 16 20 16.4 20 17 20 17.6 19.6 18 19 18 18.4 18 18 17.6 18 17 18 16.4 18.4 16 19 16M19 14C17.3 14 16 15.3 16 17 16 18.7 17.3 20 19 20 20.7 20 22 18.7 22 17 22 15.3 20.7 14 19 14L19 14Z" fill="#7823DC"/></g><g><path d="M12 9C12.6 9 13 9.4 13 10 13 10.6 12.6 11 12 11 11.4 11 11 10.6 11 10 11 9.4 11.4 9 12 9M12 7C10.3 7 9 8.3 9 10 9 11.7 10.3 13 12 13 13.7 13 15 11.7 15 10 15 8.3 13.7 7 12 7L12 7Z" fill="#7823DC"/></g></g></svg>