<svg viewBox="0 0 32 32" xmlns="http://www.w3.org/2000/svg" xmlns:xlink="http://www.w3.org/1999/xlink" id="Layer_1" xml:space="preserve" overflow="hidden"><g><path d="M3.8 11.8C3.3 13 3 14.5 3 16 1 16 1 16 1 16 1 14 1.5 12 2.2 10.2L3.8 11.8 3.8 11.8 3.8 11.8Z" fill="#7823DC" fill-rule="evenodd" clip-rule="evenodd"/><path d="M31 16C29 16 29 16 29 16 29 8.7 23.3 3 16 3 14.5 3 13 3.3 11.8 3.8 10.3 2.3 10.3 2.3 10.3 2.3 12 1.5 14 1 16 1 24.3 1 31 7.8 31 16L31 16Z" fill="#7823DC" fill-rule="evenodd" clip-rule="evenodd"/><path d="M21.8 29.8C20 30.5 18 31 16 31 7.8 31 1 24.3 1 16 3 16 3 16 3 16 3 23.3 8.7 29 16 29 17.5 29 19 28.7 20.2 28.2L21.8 29.8 21.8 29.8 21.8 29.8Z" fill="#7823DC" fill-rule="evenodd" clip-rule="evenodd"/><path d="M31 16C31 18 30.5 20 29.8 21.8 28.3 20.3 28.3 20.3 28.3 20.3 28.8 19 29 17.5 29 16L31 16 31 16 31 16Z" fill="#7823DC" fill-rule="evenodd" clip-rule="evenodd"/><path d="M32 27.8 32 32 30.5 32 30.5 29.5 28.8 31 27.5 31 25.5 29.5 25.5 32 24 32 24 27.8 26 27.8 28 29.5 30 27.8 32 27.8 32 27.8 32 27.8Z" fill="#7823DC" fill-rule="evenodd" clip-rule="evenodd"/><path d="M28 24.8C28.5 24.8 28.8 25.1 28.8 25.3 28.8 25.6 28.5 26.1 28 26.1 27.5 26.1 27.5 25.6 27.5 25.3 27.5 25 27.5 24.8 28 24.8M28 23.3C26.7 23.3 25.7 24.3 25.7 25.3 25.7 26.6 26.7 27.6 28 27.6 29.3 27.6 30.3 26.6 30.3 25.3 30.3 24.3 29.3 23.3 28 23.3L28 23.3Z" fill="#7823DC" fill-rule="evenodd" clip-rule="evenodd"/><path d="M8.3 4.5 8.3 8.8 6.5 8.8 6.5 6.3 4.8 8 3.5 8 1.7 6.3 1.7 8.8 0 8.8 0 4.5 2 4.5 4 6.3 6 4.5 8.3 4.5 8.3 4.5 8.3 4.5Z" fill="#7823DC" fill-rule="evenodd" clip-rule="evenodd"/><path d="M4 1.5C4.5 1.5 4.8 2 4.8 2 4.8 2.5 4.6 2.8 4.1 2.8 3.8 2.8 3.5 2.5 3.5 2 3.5 2 3.8 1.5 4 1.5M4 0C3 0 2 1 2 2 2 3.3 3 4.3 4 4.3 5.2 4.3 6.2 3.3 6.2 2 6.2 1 5.2 0 4 0L4 0Z" fill="#7823DC" fill-rule="evenodd" clip-rule="evenodd"/><path d="M20 20.8 20 25 18.5 25 18.5 22.5 16.7 24.3 15.5 24.3 13.5 22.5 13.5 25 12 25 12 20.8 14 20.8 16 22.5 18 20.8 20 20.8 20 20.8 20 20.8Z" fill="#7823DC" fill-rule="evenodd" clip-rule="evenodd"/><path d="M16.1 17.8C16.6 17.8 16.9 18.3 16.9 18.3 16.9 18.8 16.6 19.1 16.1 19.1 15.8 19.1 15.6 18.8 15.6 18.3 15.6 18.3 15.8 17.8 16.1 17.8M16.1 16.3C14.8 16.3 13.8 17.3 13.8 18.3 13.8 19.6 14.8 20.6 16.1 20.6 17.4 20.6 18.4 19.6 18.4 18.3 18.3 17.3 17.3 16.3 16.1 16.3L16.1 16.3Z" fill="#7823DC" fill-rule="evenodd" clip-rule="evenodd"/><path d="M16 6.7C10.8 6.7 6.5 11 6.5 16 6.5 19 8 21.8 10.2 23.3 10.2 20.5 10.2 20.5 10.2 20.5 9.2 19.2 8.5 17.7 8.5 16 8.5 12 12 8.7 16 8.7 20.2 8.7 23.5 12 23.5 16 23.5 17.8 22.8 19.3 21.8 20.5 21.8 23.3 21.8 23.3 21.8 23.3 24 21.8 25.5 19 25.5 16 25.5 11 21.3 6.7 16 6.7L16 6.7Z" fill="#7823DC" fill-rule="evenodd" clip-rule="evenodd"/></g></svg>