<svg viewBox="0 0 32 32" xmlns="http://www.w3.org/2000/svg" xmlns:xlink="http://www.w3.org/1999/xlink" id="a" overflow="hidden"><style>
.MsftOfcResponsive_Fill_7823dc {
 fill:#7823DC; 
}
</style>
<path d="M1.71 25.78 0.3 24.37 5.42 19.25C6.02 18.65 6.81 18.35 7.63 18.35 8.43 18.37 9.2 18.7 9.79 19.29 11.04 20.54 11.06 22.47 9.85 23.68L8.44 22.27C8.87 21.84 8.84 21.17 8.38 20.71 8.16 20.49 7.88 20.36 7.59 20.36 7.31 20.34 7.05 20.46 6.83 20.68L1.71 25.78Z" class="MsftOfcResponsive_Fill_7823dc" fill="#7823DC"/><path d="M7.6 32C6.82 32 6.05 31.7 5.45 31.1L0.32 25.98 1.73 24.57 6.85 29.69C7.29 30.13 7.93 30.11 8.39 29.65 8.62 29.42 8.75 29.14 8.76 28.84 8.76 28.64 8.72 28.35 8.45 28.08L9.86 26.67C11.08 27.89 11.05 29.81 9.8 31.06 9.18 31.68 8.38 32 7.58 32Z" class="MsftOfcResponsive_Fill_7823dc" fill="#7823DC"/><path d="M11.18 29.13C8.98 29.13 7.19 27.34 7.19 25.14 7.19 22.94 8.98 21.15 11.18 21.15 13.38 21.15 15.17 22.94 15.17 25.14 15.17 27.34 13.38 29.13 11.18 29.13ZM11.18 23.14C10.08 23.14 9.19 24.03 9.19 25.13 9.19 26.23 10.08 27.12 11.18 27.12 12.28 27.12 13.17 26.23 13.17 25.13 13.17 24.03 12.28 23.14 11.18 23.14Z" class="MsftOfcResponsive_Fill_7823dc" fill="#7823DC"/><path d="M18.54 25.78 17.13 24.37 22.25 19.25C22.85 18.65 23.63 18.35 24.46 18.35 25.26 18.37 26.03 18.7 26.62 19.29 27.87 20.54 27.89 22.47 26.68 23.68L25.27 22.27C25.7 21.84 25.67 21.17 25.21 20.71 24.99 20.49 24.71 20.36 24.42 20.36 24.15 20.34 23.88 20.46 23.66 20.68L18.54 25.8Z" class="MsftOfcResponsive_Fill_7823dc" fill="#7823DC"/><path d="M24.43 32C23.65 32 22.88 31.7 22.28 31.1L17.16 25.98 18.57 24.57 23.69 29.69C24.13 30.13 24.77 30.11 25.23 29.65 25.46 29.42 25.59 29.14 25.6 28.84 25.6 28.64 25.56 28.35 25.29 28.08L26.7 26.67C27.92 27.89 27.89 29.81 26.64 31.06 26.02 31.68 25.22 32 24.42 32Z" class="MsftOfcResponsive_Fill_7823dc" fill="#7823DC"/><path d="M28.01 29.13C25.81 29.13 24.02 27.34 24.02 25.14 24.02 22.94 25.81 21.15 28.01 21.15 30.21 21.15 32 22.94 32 25.14 32 27.34 30.21 29.13 28.01 29.13ZM28.01 23.14C26.91 23.14 26.02 24.03 26.02 25.13 26.02 26.23 26.91 27.12 28.01 27.12 29.11 27.12 30 26.23 30 25.13 30 24.03 29.11 23.14 28.01 23.14Z" class="MsftOfcResponsive_Fill_7823dc" fill="#7823DC"/><path d="M24.43 13.66C23.64 13.66 22.84 13.35 22.21 12.72 20.96 11.47 20.94 9.54 22.15 8.33L23.56 9.74C23.13 10.17 23.16 10.84 23.62 11.3 24.08 11.76 24.73 11.77 25.16 11.34L30.28 6.22 31.69 7.63 26.57 12.75C25.97 13.35 25.19 13.65 24.42 13.65Z" class="MsftOfcResponsive_Fill_7823dc" fill="#7823DC"/><path d="M30.27 7.44 25.15 2.32C24.94 2.11 24.67 1.99 24.39 2 24.11 2 23.83 2.13 23.6 2.35 23.14 2.81 23.11 3.48 23.54 3.91L22.13 5.32C20.91 4.1 20.94 2.18 22.19 0.93 22.78 0.35 23.55 0.02 24.35 0 25.18-0.01 25.96 0.3 26.56 0.9L31.68 6.02 30.27 7.43Z" class="MsftOfcResponsive_Fill_7823dc" fill="#7823DC"/><path d="M20.83 10.85C18.63 10.85 16.84 9.06 16.84 6.86 16.84 4.66 18.63 2.87 20.83 2.87 23.03 2.87 24.82 4.66 24.82 6.86 24.82 9.06 23.03 10.85 20.83 10.85ZM20.83 4.86C19.73 4.86 18.84 5.75 18.84 6.85 18.84 7.95 19.73 8.84 20.83 8.84 21.93 8.84 22.82 7.95 22.82 6.85 22.82 5.75 21.93 4.86 20.83 4.86Z" class="MsftOfcResponsive_Fill_7823dc" fill="#7823DC"/><path d="M7.6 13.66C6.81 13.66 6.01 13.35 5.38 12.72 4.13 11.47 4.11 9.54 5.32 8.33L6.73 9.74C6.3 10.17 6.33 10.84 6.79 11.3 7.25 11.76 7.9 11.77 8.33 11.34L13.45 6.22 14.86 7.63 9.74 12.75C9.14 13.35 8.36 13.65 7.59 13.65Z" class="MsftOfcResponsive_Fill_7823dc" fill="#7823DC"/><path d="M13.44 7.44 8.31 2.32C8.1 2.11 7.84 1.99 7.55 2 7.27 2 6.99 2.13 6.76 2.35 6.3 2.81 6.27 3.48 6.7 3.91L5.29 5.32C4.07 4.1 4.1 2.18 5.35 0.93 5.95 0.35 6.72 0.02 7.52 0 8.35-0.01 9.13 0.3 9.73 0.9L14.85 6.02 13.44 7.43Z" class="MsftOfcResponsive_Fill_7823dc" fill="#7823DC"/><path d="M4 10.85C1.79 10.85 0 9.06 0 6.86 0 4.66 1.79 2.87 4 2.87 6.21 2.87 7.99 4.66 7.99 6.86 7.99 9.06 6.2 10.85 4 10.85ZM4 4.86C2.9 4.86 2.01 5.75 2.01 6.85 2.01 7.95 2.9 8.84 4 8.84 5.1 8.84 5.99 7.95 5.99 6.85 5.99 5.75 5.1 4.86 4 4.86Z" class="MsftOfcResponsive_Fill_7823dc" fill="#7823DC"/><rect x="0" y="15" width="32" height="2" class="MsftOfcResponsive_Fill_7823dc" fill="#7823DC"/></svg>