<svg viewBox="0 0 32 32" xmlns="http://www.w3.org/2000/svg" xmlns:xlink="http://www.w3.org/1999/xlink" overflow="hidden"><style>
.MsftOfcResponsive_Fill_7823dc {
 fill:#7823DC; 
}
</style>
<defs></defs><g id="Layer_3"><path d="M9 32.037C4.02944 32.037 0 28.0076 0 23.037-1.77636e-15 18.0664 4.02944 14.037 9 14.037 13.9706 14.037 18 18.0664 18 23.037 17.9944 28.0052 13.9682 32.0314 9 32.037ZM9 16.037C5.13401 16.037 2 19.171 2 23.037 2 26.903 5.13401 30.037 9 30.037 12.866 30.037 16 26.903 16 23.037 15.9955 19.1729 12.8641 16.0415 9 16.037Z" class="MsftOfcResponsive_Fill_7823dc" fill="#7823DC"/><path d="M25 32.037C22.7909 32.037 21 30.2461 21 28.037 21 25.8279 22.7909 24.037 25 24.037 27.2091 24.037 29 25.8279 29 28.037 28.9977 30.2452 27.2082 32.0346 25 32.037ZM25 26.037C23.8954 26.037 23 26.9324 23 28.037 23 29.1416 23.8954 30.037 25 30.037 26.1046 30.037 27 29.1416 27 28.037 26.9987 26.933 26.104 26.0383 25 26.037Z" class="MsftOfcResponsive_Fill_7823dc" fill="#7823DC"/><rect x="27" y="27.037" width="5" height="2" class="MsftOfcResponsive_Fill_7823dc" fill="#7823DC"/><rect x="5.05101" y="-0.25819" width="2.00003" height="15.8637" class="MsftOfcResponsive_Fill_7823dc" fill="#7823DC" transform="matrix(0.928317 -0.371789 0.371789 0.928317 -2.41923 2.79977)"/><rect x="0" y="0.03695" width="4" height="2" class="MsftOfcResponsive_Fill_7823dc" fill="#7823DC"/><rect x="15.1211" y="17.037" width="9.87891" height="2" class="MsftOfcResponsive_Fill_7823dc" fill="#7823DC"/><path d="M22.007 10.037 7.398 10.037 7.398 12.037 24 12.037 24 25.037 26 25.037 26 14.037 22.007 10.037Z" class="MsftOfcResponsive_Fill_7823dc" fill="#7823DC"/><rect x="8" y="22.037" width="2" height="2" class="MsftOfcResponsive_Fill_7823dc" fill="#7823DC"/></g></svg>