<svg viewBox="0 0 32 32" xmlns="http://www.w3.org/2000/svg" xmlns:xlink="http://www.w3.org/1999/xlink" overflow="hidden"><style>
.MsftOfcResponsive_Fill_7823dc {
 fill:#7823DC; 
}
</style>
<g id="Layer_1"><g><path d="" class="st0 MsftOfcResponsive_Fill_7823dc" stroke="#000000" stroke-width="2" stroke-miterlimit="10" fill="#7823DC"/><path d="M32 32 23.7 31.9 23.6 20.7 8.4 20.7 8.3 32 0 31.9 0 15.7C0 12.8 1.8 10.6 4.1 10.5L13.1 10.3 13.1 4.7 18.9 4.7 18.9 10.3 28 10.6C30.3 10.7 32.1 13 32.1 15.8L32.1 32ZM25.7 30 30.1 30 30.1 15.8C30.1 14.1 29.1 12.6 27.9 12.6L16.9 12.3 16.9 6.7 15.1 6.7 15.1 12.3 4.1 12.5C3 12.5 2 14 2 15.7L2 29.9 6.4 29.9 6.5 18.7 25.7 18.7 25.7 30Z" class="MsftOfcResponsive_Fill_7823dc" fill="#7823DC"/><g><path d="M22.5 21.5C21.9 21.5 21.5 21.1 21.5 20.5L21.5 10.2C21.5 9.6 21.9 9.2 22.5 9.2 23.1 9.2 23.5 9.6 23.5 10.2L23.5 20.5C23.5 21.1 23 21.5 22.5 21.5Z" class="MsftOfcResponsive_Fill_7823dc" fill="#7823DC"/><path d="M9.6 21.5C9 21.5 8.6 21.1 8.6 20.5L8.6 10.2C8.6 9.6 9 9.2 9.6 9.2 10.2 9.2 10.6 9.6 10.6 10.2L10.6 20.5C10.6 21.1 10.1 21.5 9.6 21.5Z" class="MsftOfcResponsive_Fill_7823dc" fill="#7823DC"/></g><path d="M21.4 2.1 10.6 2.1C10 2.1 9.6 1.7 9.6 1.1 9.6 0.5 10 0.1 10.6 0.1L21.3 0.1C21.9 0.1 22.3 0.5 22.3 1.1 22.3 1.7 21.9 2.1 21.4 2.1Z" class="MsftOfcResponsive_Fill_7823dc" fill="#7823DC"/><rect x="15" y="1.4" width="2" height="5.4" class="MsftOfcResponsive_Fill_7823dc" fill="#7823DC"/></g></g><g id="Layer_2" class="st1" display="none"><g class="st2"><path d="M31.9 21.2C31.9 19.6 31.5 18.2 30.7 17.2 29.9 16.2 28.8 15.7 27.6 15.7 27.3 15.7 27 15.7 26.7 15.7L26.7 15.7C26.5 15.1 26.3 15 25.6 15L24.9 15C24.2 15 23.9 15.1 23.7 15.7L23.1 15.7C22 15.7 20.8 15.7 19.6 15.7 19.6 15.1 19.6 14.3 19.6 13.7L19.6 13.6C20 13.4 20.2 13 20.2 12.2L20.2 12 20.2 11C20.2 10 19.9 9.6 19.1 9.6L18.1 9.6 18.1 8.6 18.4 8.6C18.5 8.6 18.5 8.6 18.6 8.6 18.8 8.7 19.2 8.7 19.5 8.6 19.7 8.5 19.8 8.5 20.2 8.6 20.3 8.6 20.5 8.6 20.6 8.7 20.8 8.7 20.9 8.7 21.2 8.8 21.4 8.8 21.6 8.9 21.9 8.9 22.7 8.8 23.6 7.9 23.6 6.7 23.7 5.5 22.9 4.5 21.9 4.2 21.7 4.2 21.5 4.2 21.2 4.2L19.4 4.4 19.3 4.4 19.1 4.4C18.9 4.4 18.7 4.3 18.4 4.3 18.2 4.3 18 4.3 17.7 4.4 17.5 4.4 17.3 4.5 17.1 4.5 16.2 4.5 14.4 4.5 14.3 4.5 14.2 4.5 14.1 4.4 13.9 4.4 13.6 4.4 13.3 4.4 13 4.4 12.9 4.4 12.8 4.4 12.7 4.5L12.6 4.5C12.2 4.5 11.7 4.4 11.4 4.3L11 4.2C10.3 4.1 9.7 4.3 9.3 4.9 8.8 5.5 8.5 6.3 8.7 6.9 8.7 7.5 8.9 8.1 9.3 8.5 9.7 9 10.3 9.1 10.9 9L11.3 8.9C11.6 8.8 12.1 8.8 12.4 8.8 12.4 8.8 12.5 8.8 12.6 8.8 12.7 8.8 12.8 8.9 12.9 8.9 13.2 8.9 13.5 8.9 13.8 8.9 13.9 8.9 14 8.9 14.1 8.8L14.1 9.7 13 9.7C12.7 9.7 12.4 9.8 12.3 10.1 12.2 10.2 12.1 10.6 12.1 11L12.1 12.2C12.1 13.1 12.2 13.4 12.7 13.7L12.7 13.9C12.7 14.5 12.7 15 12.7 15.8 11.8 15.8 10.8 15.8 9.9 15.8L8.5 15.8C8.3 15.2 8.1 15.1 7.4 15.1L6.8 15.1C6.1 15.1 5.8 15.2 5.6 15.8L5.6 15.8C5.3 15.8 4.9 15.8 4.5 15.8 2.3 15.9 0.4 18.1 0.4 21 0.4 23 0.4 24.8 0.4 26.8 0.4 28 0.4 29.4 0.4 30.6 0.4 30.7 0.4 31.2 0.6 31.5 0.8 31.9 1.2 31.9 1.3 31.9 2.9 31.9 4.5 31.9 6.1 31.9L6.1 31.9C6.2 31.9 6.5 31.9 6.8 31.5 7 31 7 30.6 7 30.4 7 28.9 7 27.3 7 25.8 7 25.7 7 25.6 7 25.4 7 25.3 7 25.2 7 25 7.1 25 7.2 25 7.3 25L7.5 25C7.7 25 8.2 25 8.4 24.6 8.5 24.5 8.5 24.4 8.6 24.2L23.6 24.2C23.8 24.7 24 24.9 24.7 24.9L25 24.9C25.1 24.9 25.2 24.9 25.3 24.9 25.3 25.8 25.3 26.5 25.3 27.4 25.3 28.4 25.3 29.3 25.3 30.2 25.3 30.3 25.3 30.8 25.5 31.2 25.7 31.4 26.1 31.4 26.3 31.6 27.4 31.6 28.5 31.6 29.7 31.6L31 31.6C31.9 31.6 32.1 31.2 32.1 30.2L32.1 27.1C31.9 25.2 31.9 23.2 31.9 21.2L31.9 21.2ZM20 6.6C20.4 6.5 20.9 6.5 21.5 6.4L21.7 6.4C21.7 6.4 21.8 6.4 21.9 6.4 22.1 6.4 22.2 6.6 22.2 6.6 22.2 6.6 22.2 6.7 22.1 6.7 22.1 6.7 22 6.8 21.9 6.8 21.3 6.8 20.8 6.7 20.2 6.6L20 6.6C20 6.7 20 6.7 20 6.6L20 6.6ZM12.2 6.7 12 6.7C11.6 6.8 11 6.8 10.4 6.9 10.3 6.9 10.3 6.9 10.2 6.8L10.1 6.7C10.1 6.7 10.1 6.6 10.2 6.6 10.2 6.6 10.3 6.5 10.4 6.5L10.4 6.5C11.1 6.5 11.7 6.6 12.2 6.7L12.2 6.7 12.2 6.7ZM3.6 29.6C3 29.6 2.4 29.6 1.8 29.6 1.8 28.2 1.8 26.9 1.8 25.5 1.8 24 1.8 22.5 1.8 21.2 1.8 19.1 2.8 17.7 4.5 17.6 4.8 17.6 5.2 17.6 5.4 17.6L5.4 20.3C5.4 23.4 5.4 26.4 5.4 29.6 4.9 29.6 4.2 29.6 3.6 29.6L3.6 29.6ZM7.5 23.6C7.5 23.8 7.4 24.1 7.2 24.1L6.9 24.1C6.7 24.1 6.6 23.9 6.6 23.6L6.6 16.9C6.6 16.7 6.7 16.4 6.9 16.4L7.2 16.4C7.4 16.4 7.5 16.6 7.5 16.9L7.5 23.6 7.5 23.6 7.5 23.6ZM15.9 8.7 16.3 8.7 16.3 9.6 15.9 9.6 15.9 8.7 15.9 8.7 15.9 8.7ZM13.1 11.4C13.1 11.2 13.2 11 13.4 11L18.8 11C18.9 11 19.1 11.1 19.1 11.4L19.1 11.9C19.1 12.1 19 12.3 18.8 12.3L13.4 12.3C13.3 12.3 13.1 12.2 13.1 11.9L13.1 11.4 13.1 11.4 13.1 11.4ZM13.6 22.5 8.8 22.5 8.8 17.8 13.3 17.8C14.2 17.8 14.4 17.4 14.4 16.3L14.4 13.8 18.1 13.8 18.1 16.4C18.1 17.5 18.3 17.8 19.2 17.8L23.7 17.8 23.7 19.2C23.7 20.3 23.7 21.4 23.7 22.5 20.2 22.5 16.8 22.5 13.6 22.5L13.6 22.5ZM25.7 23.3C25.7 23.5 25.6 23.8 25.4 23.8L25 23.8C24.8 23.8 24.7 23.6 24.7 23.3L24.7 16.6C24.7 16.4 24.8 16.1 25 16.1L25.3 16.1C25.5 16.1 25.6 16.3 25.6 16.6L25.6 23.3 25.7 23.3 25.7 23.3ZM30.4 29.6 26.7 29.6 26.7 17.6C27.1 17.6 27.5 17.6 27.9 17.6 29.4 17.7 30.2 19.1 30.4 20.9 30.4 23 30.4 25.1 30.4 27.2L30.4 29.6 30.4 29.6 30.4 29.6Z" class="st3 MsftOfcResponsive_Fill_7823dc" fill="#7823DC" fill-rule="evenodd" clip-rule="evenodd"/></g></g></svg>