<svg viewBox="0 0 32 32" xmlns="http://www.w3.org/2000/svg" xmlns:xlink="http://www.w3.org/1999/xlink" overflow="hidden"><defs></defs><g id="Grid"><path d="M29.768 24.876 19.199 20.502 17.46 22.79 17.446 22.776 16.044 24.176 17.446 25.62 16.077 27.029 15.967 26.986 14.598 25.62 16.044 24.176 14.554 22.776 14.54 22.79 12.801 20.502 2.232 24.876 2.021 24.876 2.021 24.964 2.021 32.026 4.037 32.026 4.037 26.257 12.123 22.91 13.115 24.215 11.749 25.663 14.554 28.463 15.036 28.01 15.036 32.026 17.052 32.026 17.052 28.069 17.446 28.463 20.251 25.663 18.848 24.176 18.827 24.198 18.819 24.19 19.825 22.925 27.963 26.293 27.963 32.026 29.979 32.026 29.979 24.964 29.979 24.876 29.768 24.876Z" fill="#7823DC"/><rect x="20.0011" y="28.0259" width="6" height="2" fill="#7823DC"/><path d="M14.38 4.8857C14.5945 5.33628 14.9819 5.68118 15.4542 5.8422L15.8712 6.0331 16.2882 5.8417C16.7604 5.68084 17.1475 5.33585 17.3614 4.8852L17.5059 4.4462 17.4229 4.2748 17.4229 2.977 14.3181 2.977 14.3181 4.3027 14.2381 4.4892Z" fill="#7823DC"/><path d="M8.0232 8.8C8.06773 9.45333 8.47015 10.0284 9.0687 10.294 7.4954 14.1229 9.32394 18.5023 13.1528 20.0756 16.9818 21.6488 21.3611 19.8203 22.9344 15.9914 23.6843 14.1663 23.6843 12.1191 22.9344 10.294 23.5328 10.0283 23.935 9.45324 23.9793 8.8 23.9775 8.53625 23.9035 8.27802 23.7654 8.0533L27.1638 3.6033 16.0008-0.0259 4.8387 3.6035 8.244 8.0635C8.10243 8.28327 8.02589 8.53859 8.0232 8.8ZM16.0008 9.4685C14.1629 9.52427 12.3272 9.29884 10.5574 8.8 12.3272 8.30121 14.1629 8.07581 16.0008 8.1316 17.8355 8.0807 19.6673 8.30719 21.4344 8.8034 19.6674 9.2994 17.8353 9.52374 16.0008 9.4687ZM21.4969 13.1418C21.5035 16.177 19.0484 18.6429 16.0132 18.6495 12.978 18.6561 10.5122 16.201 10.5055 13.1658 10.5039 12.4144 10.6563 11.6707 10.9535 10.9805 12.6144 11.318 14.306 11.4816 16.0008 11.4685 17.6962 11.4817 19.3883 11.318 21.0498 10.9803 21.3432 11.6633 21.4953 12.3986 21.4969 13.142ZM16.0008 2.0776 23.8608 4.6328 22.1108 6.9245C20.1269 6.34834 18.0661 6.08097 16.0008 6.1318 13.937 6.09012 11.8786 6.35906 9.8948 6.9296L8.1414 4.6328Z" fill="#7823DC"/></g></svg>