<svg viewBox="0 0 32 32" xmlns="http://www.w3.org/2000/svg" xmlns:xlink="http://www.w3.org/1999/xlink" id="Layer_1" xml:space="preserve" overflow="hidden"><path d="M27.2 16.8 22.9 13.7 27.8 7 32.1 10.1 27.2 16.8ZM25.7 13.2 26.8 14 29.3 10.6 28.2 9.8 25.7 13.2Z" fill="#7823DC"/><path d="M21.8 12.8 14.2 7.3 8.2 2.5 10 0.1 18.8 0.6 26.6 6.3 21.8 12.8ZM10.9 2.2 15.4 5.8 21.3 10.1 23.8 6.7 18.1 2.5 10.9 2.2 10.9 2.2Z" fill="#7823DC"/><path d="M25.3 14 20.7 10.7 24.2 5.8 28.8 9.1 25.3 14ZM23.5 10.3 24.8 11.3 26 9.6 24.7 8.6 23.5 10.3Z" fill="#7823DC"/><rect x="13.4" y="3" width="6.4" height="2" fill="#7823DC" transform="matrix(0.5878 -0.809 0.809 0.5878 3.5981 15.1075)"/><path d="M16.8 16 12.1 12.6 15.2 5.8 23.7 11.8 16.8 16ZM14.7 11.9 17 13.5 20.2 11.6 16.2 8.8 14.7 11.9Z" fill="#7823DC"/><path d="M5.1 32 0 28.3 13.2 10.8 18.3 14.5 5.1 32ZM2.8 27.9 4.7 29.2 15.5 15 13.6 13.7 2.8 27.9Z" fill="#7823DC"/></svg>