<svg viewBox="0 0 31.89 31.88" xmlns="http://www.w3.org/2000/svg" xmlns:xlink="http://www.w3.org/1999/xlink" id="Layer_1" overflow="hidden"><defs></defs><path d="M26.04 0 26.04 3.74 23.71 3.74C23.34 2.36 22.08 1.34 20.58 1.34L7.4 1.34C5.77 1.34 4.41 2.55 4.19 4.13L3.24 4.13C1.45 4.13 0 5.58 0 7.37 0 9.16 1.45 10.61 3.24 10.61L4.41 10.61C4.66 12.29 5.89 13.68 7.57 14.11L8.05 14.23C8.39 14.32 8.74 14.36 9.08 14.36 10.06 14.36 11.03 14.02 11.8 13.38L12.14 13.1C12.94 12.43 14.13 12.41 14.96 13.06L15.27 13.3C16.16 14 17.31 14.31 18.43 14.16L19.56 14.01C21.39 13.77 22.83 12.37 23.18 10.62L26.05 10.62 26.05 13.75 28.05 13.75 28.05 2 29.89 2 29.89 25.01C29.89 28.35 26.81 29.88 23.95 29.88 21.09 29.88 18.01 28.36 18.01 25.01L18.01 19.89 16.01 19.89 16.01 20.75 15.52 20.75C15 20.75 14.57 20.32 14.57 19.8 14.57 19.28 15 18.85 15.52 18.85L20.45 18.85C21.33 18.85 22.05 19.57 22.05 20.45L22.05 21.74 24.05 21.74 24.05 20.45C24.05 18.47 22.44 16.85 20.45 16.85L15.52 16.85C13.89 16.85 12.57 18.17 12.57 19.8 12.57 21.43 13.89 22.75 15.52 22.75L16.01 22.75 16.01 25.01C16.01 29.52 20 31.88 23.95 31.88 27.9 31.88 31.89 29.52 31.89 25.01L31.89 0 26.05 0ZM26.04 8.6 22.45 8.6C21.8 8.6 21.27 9.13 21.27 9.78 21.27 10.9 20.43 11.86 19.32 12.01L18.19 12.16C17.6 12.23 16.99 12.07 16.52 11.7L16.21 11.46C14.65 10.24 12.41 10.28 10.88 11.54L10.54 11.82C9.99 12.28 9.25 12.44 8.56 12.27L8.08 12.15C7.08 11.9 6.38 11 6.38 9.97L6.38 8.59 3.24 8.59C2.56 8.59 2 8.03 2 7.35 2 6.67 2.56 6.11 3.24 6.11L6.16 6.11 6.16 4.56C6.16 3.88 6.72 3.32 7.4 3.32L20.59 3.32C21.27 3.32 21.81 3.86 21.82 4.54L21.82 6.86 23.82 6.86 23.82 5.72 26.04 5.72 26.04 8.58Z" fill="#7823DC"/><path d="M19.47 19.89 19.47 23.44C19.46 26.36 21.63 27.88 23.78 27.88 25.93 27.88 28.1 26.35 28.1 23.44L28.1 15.73 26.1 15.73 26.1 23.44C26.1 25.13 24.93 25.88 23.78 25.88 22.63 25.88 21.45 25.13 21.45 23.44L21.45 19.89 19.46 19.89Z" fill="#7823DC"/></svg>