<svg width="29.3" height="31.3" viewBox="0 0 29.3 31.3" xmlns="http://www.w3.org/2000/svg" xmlns:xlink="http://www.w3.org/1999/xlink" overflow="hidden"><style>
.MsftOfcResponsive_Fill_7823dc {
 fill:#7823DC; 
}
</style>
<defs></defs><path d="M5.8 17.4C5.8 16.9 6 16.4 6.3 16 6 16.3 5.8 16.8 5.8 17.4L5.8 17.4 5.8 17.4 5.8 17.4Z" class="MsftOfcResponsive_Fill_7823dc" fill="#7823DC" fill-rule="evenodd" clip-rule="evenodd"/><path d="M6.3 16C6.5 15.7 6.9 15.5 7.2 15.5 6.8 15.5 6.6 15.7 6.3 16L6.3 16 6.3 16 6.3 16Z" class="MsftOfcResponsive_Fill_7823dc" fill="#7823DC" fill-rule="evenodd" clip-rule="evenodd"/><path d="M5.8 17.4C5.8 17.7 6 18.1 6.3 18.3 6 18 5.8 17.7 5.8 17.4L5.8 17.4 5.8 17.4 5.8 17.4Z" class="MsftOfcResponsive_Fill_7823dc" fill="#7823DC" fill-rule="evenodd" clip-rule="evenodd"/><path d="M7.2 19.2C6.9 19.2 6.5 19 6.3 18.7 6.6 19 6.8 19.2 7.2 19.2L7.2 19.2 7.2 19.2 7.2 19.2Z" class="MsftOfcResponsive_Fill_7823dc" fill="#7823DC" fill-rule="evenodd" clip-rule="evenodd"/><g><rect x="13.5" y="19.8" width="2.1" height="11.4" class="MsftOfcResponsive_Fill_7823dc" fill="#7823DC"/></g><g><rect x="2.7" y="29.8" width="23.8" height="1.5" class="MsftOfcResponsive_Fill_7823dc" fill="#7823DC"/></g><g><rect x="1.5" y="24.7" width="2.1" height="6.6" class="MsftOfcResponsive_Fill_7823dc" fill="#7823DC"/></g><g><rect x="25.5" y="24.7" width="1.9" height="6.6" class="MsftOfcResponsive_Fill_7823dc" fill="#7823DC"/></g><g><path d="M7.7 20.9 3.9 17.9 5.2 16.9 9 19.9Z" class="MsftOfcResponsive_Fill_7823dc" fill="#7823DC"/></g><g><path d="M21.6 20.9 20.3 19.9 24.1 16.9 25.4 17.9Z" class="MsftOfcResponsive_Fill_7823dc" fill="#7823DC"/></g><path d="M26 21.1 26.9 24 17.5 24 15.7 21.1 26 21.1M27.4 19.6 12.8 19.6 16.5 25.4 29.4 25.4 27.4 19.6 27.4 19.6Z" class="MsftOfcResponsive_Fill_7823dc" fill="#7823DC"/><path d="M13.6 21.1 11.7 24 2.4 24 3.3 21.1 13.6 21.1M16.5 19.6 1.8 19.6 0 25.5 12.9 25.5 16.5 19.6 16.5 19.6Z" class="MsftOfcResponsive_Fill_7823dc" fill="#7823DC"/><path d="M15.4 17.1 13.8 17.1 13.8 19.1 15.4 19.1 15.4 17.1Z" class="MsftOfcResponsive_Fill_7823dc" fill="#7823DC"/><rect x="14.4" y="10.8" width="0.2" height="2.3" class="MsftOfcResponsive_Fill_7823dc" fill="#7823DC"/><rect x="13.4" y="9.4" width="2.2" height="5.1" class="MsftOfcResponsive_Fill_7823dc" fill="#7823DC"/><path d="M11.7 7.8 13.4 9.6 15.7 9.6 17.4 7.8Z" class="MsftOfcResponsive_Fill_7823dc" fill="#7823DC"/><g><rect x="3.4" y="6.3" width="4.2" height="1.9" class="MsftOfcResponsive_Fill_7823dc" fill="#7823DC"/><rect x="4.2" y="11.3" width="4.2" height="1.9" class="MsftOfcResponsive_Fill_7823dc" fill="#7823DC" transform="matrix(0.8313 -0.5558 0.5558 0.8313 -5.7474 5.5489)"/><rect x="4.2" y="1" width="4.2" height="1.9" class="MsftOfcResponsive_Fill_7823dc" fill="#7823DC" transform="matrix(-0.8313 -0.5558 0.5558 -0.8313 10.3869 7.0775)"/></g><g><rect x="21.6" y="6.3" width="4.2" height="1.9" class="MsftOfcResponsive_Fill_7823dc" fill="#7823DC" transform="matrix(-1 -4.5001e-11 4.5001e-11 -1 47.3589 14.5492)"/><rect x="20.8" y="11.3" width="4.2" height="1.9" class="MsftOfcResponsive_Fill_7823dc" fill="#7823DC" transform="matrix(-0.8313 -0.5558 0.5558 -0.8313 35.1598 35.1568)"/><rect x="20.8" y="1" width="4.2" height="1.9" class="MsftOfcResponsive_Fill_7823dc" fill="#7823DC" transform="matrix(0.8313 -0.5558 0.5558 0.8313 2.7749 13.0676)"/></g><path d="M19.9 4.1C18.6 1.1 15-0.3 11.9 1.1 10.1 1.9 8.9 3.4 8.5 5.3 8.1 7.2 8.6 9.1 9.9 10.6 10 10.8 10.2 11 10.3 11.2 10.7 11.9 11 12.8 11.3 13.9 11.3 13.9 11.4 14.2 11.4 14.3L11.4 15.7 17.6 15.7 17.6 14 17.6 14C17.6 14 17.6 13.9 17.6 13.9 17.6 13.6 17.6 13.3 17.7 13 18 12 18.6 11.1 19.2 10.3 20.7 8.4 20.9 6.3 19.9 4.1ZM17.8 9.2C16.9 10.3 16.4 11.3 16.1 12.3 16 12.5 16 12.6 16 12.8L15.3 12.8C14.5 12.8 13.7 12.8 12.9 12.8 12.6 11.8 12.3 10.9 11.8 10.1 11.6 9.8 11.5 9.6 11.3 9.4 10.4 8.3 10.1 7 10.4 5.7 10.7 4.4 11.6 3.3 12.9 2.8 13.5 2.6 14.1 2.4 14.7 2.4 15.4 2.4 16 2.6 16.7 2.9 17.8 3.5 18.6 4.4 18.9 5.6 19 6.8 18.7 8.1 17.8 9.2Z" class="MsftOfcResponsive_Fill_7823dc" fill="#7823DC"/></svg>