<svg viewBox="0 0 32 32" xmlns="http://www.w3.org/2000/svg" xmlns:xlink="http://www.w3.org/1999/xlink" overflow="hidden"><defs></defs><g id="Layer_3"><path d="M11.875 31.9228C9.27368 31.9342 6.89157 30.4675 5.73047 28.1397L7.51562 27.2432C8.73361 29.6517 11.6735 30.6169 14.0821 29.3989 14.4127 29.2317 14.7233 29.0274 15.0078 28.79L15.0078 3.37793C13.5868 1.75202 11.1168 1.58591 9.49092 3.00689 9.00838 3.42862 8.6369 3.96249 8.40918 4.56152L8.16992 5.18752 7.501 5.2041C5.37676 5.23191 3.66968 6.96249 3.6709 9.08691 3.67677 9.44433 3.73334 9.7991 3.8389 10.1406L4.02054 10.7783 3.50296 11.1933C1.83246 12.5007 1.53808 14.9147 2.84544 16.5852 2.86728 16.6131 2.88951 16.6407 2.91211 16.668L1.36911 17.9375C0.505496 16.886 0.0327496 15.5677 0.03125 14.207 0.0332131 12.6503 0.658954 11.1592 1.76855 10.0674 1.70573 9.74429 1.67369 9.41599 1.67285 9.08688 1.66396 6.12487 3.86736 3.62223 6.80664 3.25588 8.29574 0.351894 11.857-0.795102 14.761 0.693992 15.5661 1.10681 16.2656 1.69896 16.8056 2.42482L17.0058 2.69143 17.0058 29.6484 16.709 29.9414C15.4231 31.2152 13.685 31.9277 11.875 31.9228Z" fill="#7823DC"/><path d="M7.376 28.8887C3.34092 28.8981 0.0621961 25.6347 0.0527547 21.5996 0.0433133 17.5645 3.30673 14.2858 7.34181 14.2764 7.35321 14.2763 7.3646 14.2763 7.376 14.2764L7.376 16.2744C4.44442 16.2866 2.07777 18.6729 2.08995 21.6045 2.10213 24.5361 4.48853 26.9028 7.42011 26.8906 8.4167 26.8864 9.392 26.6018 10.2344 26.0693 10.5007 25.9016 10.752 25.7111 10.9854 25.5L12.3272 26.9785C10.9732 28.2111 9.20703 28.8925 7.376 28.8887Z" fill="#7823DC"/><path d="M8.02539 18.0996C5.8875 17.1328 4.93813 14.616 5.90489 12.4781 6.4174 11.3448 7.40083 10.493 8.5957 10.1475L9.15625 12.0655C8.52488 12.2483 8.00396 12.6962 7.72852 13.293 7.2109 14.4215 7.70615 15.756 8.8347 16.2736 8.8403 16.2762 8.8459 16.2788 8.85152 16.2813Z" fill="#7823DC"/><path d="M10.044 12.8027C8.25946 12.8119 6.80538 11.3727 6.7962 9.58815 6.79298 8.96093 6.97237 8.34634 7.3125 7.81934L8.99023 8.90527C8.79624 9.20423 8.74205 9.57285 8.8418 9.915 9.03813 10.5751 9.73243 10.9512 10.3926 10.7548L10.9473 12.6748C10.6537 12.7597 10.3496 12.8028 10.044 12.8027Z" fill="#7823DC"/><path d="M12.6162 27.2217C10.8317 27.2297 9.37848 25.7896 9.37041 24.0051 9.36758 23.3785 9.54696 22.7647 9.88672 22.2383L11.5645 23.3242C11.3703 23.6232 11.3164 23.992 11.417 24.334 11.6162 24.9908 12.3067 25.3652 12.9658 25.1739L13.5225 27.0919C13.2281 27.1778 12.9229 27.2216 12.6162 27.2217Z" fill="#7823DC"/><path d="M20.1494 31.9228C18.3398 31.9275 16.602 31.215 15.3164 29.9414L15.0185 29.6484 15.0185 2.69141 15.2188 2.4248C16.3299 0.923469 18.0883 0.0393972 19.9561 0.0429999 22.1704 0.0524938 24.1965 1.29013 25.2158 3.25589 28.1564 3.62066 30.3615 6.12381 30.3525 9.08689 30.3516 9.41568 30.3195 9.74363 30.2568 10.0664 31.3661 11.1589 31.9917 12.6501 31.9941 14.207 31.9923 15.5674 31.5196 16.8852 30.6563 17.9365L29.1133 16.6689C30.4666 15.0346 30.2388 12.6127 28.6045 11.2594 28.5774 11.237 28.5501 11.215 28.5224 11.1933L28.0058 10.7793 28.1865 10.1426C28.806 8.12767 27.6748 5.99209 25.6599 5.37261 25.2917 5.25942 24.9086 5.20261 24.5234 5.2041L23.8535 5.1875 23.6152 4.5615C22.8479 2.54309 20.5896 1.52887 18.5712 2.29619 17.9722 2.52391 17.4383 2.89539 17.0166 3.37793L17.0166 28.79C19.0892 30.5193 22.1713 30.2411 23.9006 28.1685 24.1377 27.8844 24.3417 27.5742 24.5088 27.2441L26.2939 28.1386C25.1337 30.4674 22.7512 31.9347 20.1494 31.9228Z" fill="#7823DC"/><path d="M24.6484 28.8887C22.8171 28.8917 21.0508 28.21 19.6963 26.9775L21.042 25.501C23.1972 27.5015 26.566 27.3762 28.5665 25.221 30.5671 23.0658 30.4417 19.697 28.2865 17.6965 27.2978 16.7787 25.9975 16.2704 24.6485 16.2744L24.6485 14.2764C28.6835 14.2543 31.9726 17.5074 31.9947 21.5425 32.0168 25.5776 28.7637 28.8666 24.7286 28.8887 24.7019 28.8889 24.6752 28.8889 24.6485 28.8887Z" fill="#7823DC"/><path d="M23.999 18.0996 23.1728 16.2812C24.3062 15.7723 24.8124 14.4408 24.3034 13.3074 24.3012 13.3026 24.299 13.2978 24.2968 13.293 24.0207 12.6963 23.4996 12.2485 22.8681 12.0654L23.4287 10.1474C24.6151 10.4932 25.5935 11.3359 26.1113 12.458 27.0899 14.5885 26.1561 17.1089 24.0256 18.0875 24.0167 18.0916 24.0079 18.0956 23.999 18.0996Z" fill="#7823DC"/><path d="M21.9805 12.8027C21.6748 12.8028 21.3707 12.7597 21.0772 12.6748L21.6318 10.7549C22.292 10.951 22.9861 10.575 23.1826 9.915 23.2828 9.57287 23.2286 9.20405 23.0342 8.90523L24.7119 7.8193C25.2225 8.60685 25.3638 9.57811 25.0986 10.4785 24.6882 11.8579 23.4197 12.8034 21.9805 12.8027Z" fill="#7823DC"/><path d="M19.4082 27.2217C19.1015 27.2215 18.7964 27.1778 18.5019 27.0918L19.0586 25.1738C19.7179 25.3649 20.4085 24.9907 20.6084 24.334 20.7087 23.9919 20.6545 23.623 20.46 23.3242L22.1377 22.2383C22.6484 23.0258 22.7896 23.9971 22.5244 24.8975 22.1146 26.2765 20.8469 27.222 19.4082 27.2217Z" fill="#7823DC"/></g></svg>