<svg viewBox="0 0 32 32" xmlns="http://www.w3.org/2000/svg" xmlns:xlink="http://www.w3.org/1999/xlink" id="Layer_1" xml:space="preserve" overflow="hidden"><g><path d="M26.3 30 31.8 25.7 26.3 21.4 25.1 23.1 28.6 25.7 25.1 28.3 26.3 30Z" fill="#7823DC" fill-rule="evenodd" clip-rule="evenodd"/><path d="M0.2 7.2 1.4 14.2 7.8 11.3 6.9 9.4 3 11.3 2.2 7 0.2 7.2Z" fill="#7823DC" fill-rule="evenodd" clip-rule="evenodd"/><path d="M0.2 24.7 28.9 24.7 28.9 26.7 0.2 26.7 0.2 24.7Z" fill="#7823DC" fill-rule="evenodd" clip-rule="evenodd"/><path d="M13.8 26.7 13.8 26.7 13.8 24.7 13.8 24.7C16.6 24.7 19.2 23.6 21.2 21.5 23.2 19.5 24.3 16.8 24.2 14 24.1 8.6 19.7 4 14.3 3.9 9.7 3.9 5.6 7 4.2 11.7L2.3 11.1C3.9 5.7 8.8 1.8 14.4 2 20.7 2.2 26 7.6 26.1 14.1 26.2 17.4 24.9 20.6 22.5 23 20.2 25.4 17 26.7 13.8 26.7L13.8 26.7Z" fill="#7823DC" fill-rule="evenodd" clip-rule="evenodd"/></g></svg>