<svg viewBox="0 0 31.92 31.99" xmlns="http://www.w3.org/2000/svg" xmlns:xlink="http://www.w3.org/1999/xlink" id="Layer_1" overflow="hidden"><style>
.MsftOfcResponsive_Fill_7823dc {
 fill:#7823DC; 
}
</style>
<defs></defs><path d="M31.92 25.98 28.05 19.91 31.23 19.91 25.99 13.99 31.77 14.18 15.98 0 0 14.19 5.8 13.99 0.57 19.91 17.85 19.91 17.85 17.9 5.01 17.9 10.38 11.84 5.47 12 15.98 2.68 26.36 12 21.43 11.83 26.8 17.9 24.41 17.9 28.29 23.98 6.9 24.07 6.9 26.07 11.9 26.05 11.9 29.56C11.9 30.89 12.98 31.97 14.31 31.97L17.49 31.97C18.82 31.97 19.9 30.89 19.9 29.56L19.9 26.02 31.92 25.97ZM17.9 29.58C17.9 29.81 17.72 29.99 17.49 29.99L14.31 29.99C14.08 29.99 13.9 29.81 13.9 29.58L13.9 26.09 17.9 26.09 17.9 29.58Z" class="MsftOfcResponsive_Fill_7823dc" fill="#7823DC"/><circle cx="21.9" cy="18.99" r="1" class="MsftOfcResponsive_Fill_7823dc" fill="#7823DC"/></svg>