<svg viewBox="0 0 32 32" xmlns="http://www.w3.org/2000/svg" xmlns:xlink="http://www.w3.org/1999/xlink" xml:space="preserve" overflow="hidden"><style>
.MsftOfcResponsive_Fill_7823dc {
 fill:#7823DC; 
}
</style>
<g id="Layer_3"></g><g id="Layer_1"><path d="M10.42 32-0.03 32-0.03 21.55 10.43 21.55 10.43 32ZM1.97 30 8.43 30 8.43 23.54 1.97 23.54 1.97 30Z" class="st1 MsftOfcResponsive_Fill_7823dc" fill="#7823DC"/><path d="M21.23 21.19 10.77 21.19 10.77 10.73 21.23 10.73 21.23 21.19ZM12.77 19.19 19.23 19.19 19.23 12.73 12.77 12.73 12.77 19.19Z" class="st1 MsftOfcResponsive_Fill_7823dc" fill="#7823DC"/><path d="M32.03 10.42 21.58 10.42 21.58-0.04 32.04-0.04 32.04 10.42ZM23.58 8.42 30.04 8.42 30.04 1.96 23.58 1.96 23.58 8.42Z" class="st1 MsftOfcResponsive_Fill_7823dc" fill="#7823DC"/></g><g id="Layer_2"></g></svg>