<svg viewBox="0 0 32 32" xmlns="http://www.w3.org/2000/svg" xmlns:xlink="http://www.w3.org/1999/xlink" xml:space="preserve" overflow="hidden"><style>
.MsftOfcResponsive_Fill_7823dc {
 fill:#7823DC; 
}
</style>
<g id="Layer_3"></g><g id="Layer_1"></g><g id="Layer_2"></g><g id="Layer_4"></g><g id="Layer_5"><path d="M23.99 18.96C21.76 18.96 20.58 18.37 19.55 17.85 18.59 17.37 17.76 16.96 16 16.96 14.24 16.96 13.41 17.37 12.46 17.85 11.42 18.37 10.25 18.96 8.02 18.96 5.79 18.96 4.61 18.37 3.58 17.85 2.62 17.37 1.79 16.96 0.03 16.96L0.03 14.96C2.26 14.96 3.44 15.55 4.47 16.07 5.43 16.55 6.26 16.96 8.02 16.96 9.78 16.96 10.61 16.55 11.56 16.07 12.6 15.55 13.77 14.96 16 14.96 18.23 14.96 19.41 15.55 20.44 16.07 21.4 16.55 22.23 16.96 23.99 16.96 25.75 16.96 26.58 16.55 27.54 16.07 28.58 15.55 29.75 14.96 31.98 14.96L31.98 16.96C30.22 16.96 29.39 17.37 28.43 17.85 27.39 18.37 26.22 18.96 23.99 18.96Z" class="MsftOfcResponsive_Fill_7823dc" fill="#7823DC"/><path d="M11.28 28.78C11.24 28.78 11.2 28.78 11.16 28.78 8.8 28.78 7.91 26.99 7.89 25.78L7.89 0 9.89 0 9.89 25.76C9.91 26.12 10.1 26.78 11.2 26.78 11.21 26.78 11.22 26.78 11.23 26.78 11.6 26.78 12.36 26.67 12.51 25.69L12.51 24.23 14.51 24.23 14.5 25.88C14.22 28.18 12.32 28.78 11.28 28.78Z" class="MsftOfcResponsive_Fill_7823dc" fill="#7823DC"/><g><path d="M22.37 29.26C22.31 29.26 22.26 29.26 22.2 29.26 22.15 29.25 19.18 29.24 17.41 26.56L17.01 25.95 17.46 25.38C17.54 25.28 19.5 22.85 22.21 22.75 22.3 22.74 25.13 22.59 27.03 25.45L27.42 26.04 27 26.61C26.92 26.72 24.99 29.26 22.37 29.26ZM19.57 26.06C20.72 27.22 22.18 27.25 22.25 27.25 23.32 27.29 24.32 26.52 24.89 25.96 23.72 24.71 22.37 24.75 22.3 24.75 21.17 24.79 20.16 25.53 19.57 26.06Z" class="MsftOfcResponsive_Fill_7823dc" fill="#7823DC"/><rect x="26.63" y="22.97" width="2" height="6.07" class="MsftOfcResponsive_Fill_7823dc" fill="#7823DC"/></g></g></svg>