<svg viewBox="0 0 32 32" xmlns="http://www.w3.org/2000/svg" xmlns:xlink="http://www.w3.org/1999/xlink" id="Layer_1" overflow="hidden"><g><path d="M29.4 18 20.8 20.7 20.8 19.5 20.8 17.3 18.6 17.5 15.3 17.9 10.1 16.1 9.3 15.8 8.5 16.2 5.3 17.9 2 17.9 0 17.9 0 19.9 0 25.9 0 27.9 2 27.9 5.3 27.9 15.1 31.9 30.9 23.7 32 23.1 32 21.9 32 19.9 32 17.2 29.4 18 29.4 18 29.4 18ZM30 21.9 15.1 29.7 5.8 25.9 2 25.9 2 19.9 5.8 19.9 9.5 17.9 15.1 19.9 18.8 19.5 18.8 21.5 17.7 21.8 14 22.6 14 24.5 17.9 23.8 17.9 23.8 30 19.9 30 21.9 30 21.9 30 21.9Z" fill="#7823DC" fill-rule="evenodd" clip-rule="evenodd"/></g><path d="M23.4 2C24 2 24.5 2.3 25 2.8 25.3 3.1 25.8 3.9 25.7 5 25.5 6.6 24.5 10.7 23.9 13 23.8 12.9 23.8 12.8 23.7 12.6 23 11.6 22.1 9 20.3 9 18.5 9 17.6 11.6 17 12.7 16.9 12.8 16.9 12.9 16.8 13.1 16.2 10.8 15.2 6.6 15 5.1 14.9 4 15.4 3.3 15.7 2.9 16.1 2.4 16.7 2.1 17.3 2.1 18.9 3.9 19.7 4.1 20.4 4.1 21 4 21.8 3.8 23.4 2M23.3 0C23 0 22.7 0 22.4 0.1 22.4 0.1 20.9 2 20.3 2 19.7 2 18.2 0.1 18.2 0.1 18 0 17.7 0 17.4 0 15 0 12.7 2.3 13 5.2 13.3 7.6 15.1 14.5 15.1 14.5 15.2 15.4 15.9 16 16.6 16 17 16 17.4 15.8 17.7 15.4 18.9 13.8 19.4 11 20.4 11 21.4 11 21.9 13.9 23.1 15.4 23.4 15.8 23.8 16 24.2 16 24.9 16 25.5 15.4 25.7 14.5 25.7 14.5 27.5 7.6 27.8 5.2 28 2.3 25.7 0 23.3 0L23.3 0Z" fill="#7823DC"/></svg>