<svg viewBox="0 0 30.28 32" xmlns="http://www.w3.org/2000/svg" xmlns:xlink="http://www.w3.org/1999/xlink" id="Layer_1" overflow="hidden"><style>
.MsftOfcResponsive_Fill_7823dc {
 fill:#7823DC; 
}
</style>
<defs></defs><path d="M20.28 26C20.28 25.66 20.25 25.33 20.19 25 20.08 24.28 19.83 23.61 19.47 23 18.43 21.21 16.49 20 14.28 20 12.51 20 10.91 20.77 9.82 22 9.54 22.31 9.29 22.64 9.09 23 8.73 23.61 8.48 24.28 8.37 25 8.31 25.33 8.28 25.66 8.28 26 8.28 27.53 8.86 28.93 9.82 30L3.29 30 3.98 32 24.58 32 25.27 30 18.74 30C19.7 28.93 20.28 27.53 20.28 26ZM10.28 26C10.28 25.65 10.32 25.32 10.41 25 10.61 24.22 11.04 23.53 11.63 23 12.33 22.38 13.26 22 14.28 22 15.3 22 16.21 22.38 16.92 23 17.51 23.52 17.95 24.21 18.15 25 18.24 25.32 18.28 25.65 18.28 26 18.28 28.21 16.48 30 14.28 30 12.08 30 10.28 28.21 10.28 26Z" class="MsftOfcResponsive_Fill_7823dc" fill="#7823DC"/><path d="M13.8 26.8 11.8 26.8C11.8 27.96 12.75 28.91 13.91 28.91L13.91 26.91C13.85 26.91 13.8 26.86 13.8 26.8Z" class="MsftOfcResponsive_Fill_7823dc" fill="#7823DC"/><path d="M16.38 26.8 14.38 26.8C14.38 27.96 15.33 28.91 16.49 28.91L16.49 26.91C16.43 26.91 16.38 26.86 16.38 26.8Z" class="MsftOfcResponsive_Fill_7823dc" fill="#7823DC"/><path d="M15.2 24.33C15.14 24.33 15.09 24.28 15.09 24.22L13.09 24.22C13.09 25.38 14.04 26.33 15.2 26.33L15.2 24.33Z" class="MsftOfcResponsive_Fill_7823dc" fill="#7823DC"/><path d="M6.4 24.64C6.49 24.08 6.65 23.52 6.89 22.96 5.95 22.86 5.09 22.52 4.36 22L7.36 22C7.36 22 7.37 21.99 7.37 21.98 7.6 21.56 7.93 21.11 8.33 20.66 8.54 20.43 8.76 20.21 8.99 20L2.61 20C2.29 19.39 2.09 18.72 2.03 18L16.28 18 16.28 16 2.01 16C2.05 15.31 2.19 14.64 2.42 14L12.37 14 12.37 12 3.54 12C3.54 12 3.54 12 3.54 12 3.97 11.48 4.47 11.01 5.05 10.63 6.63 9.56 8.76 9.51 10.42 10.45L23.2 18.83 28.88 0 26.8 0 22.06 15.69 11.47 8.75C9.09 7.4 6.13 7.48 3.93 8.97 1.47 10.63-4.88498e-15 13.39-4.88498e-15 16.36L-4.88498e-15 17.49C-4.88498e-15 21.23 2.76 24.35 6.36 24.9 6.37 24.81 6.38 24.73 6.4 24.64Z" class="MsftOfcResponsive_Fill_7823dc" fill="#7823DC"/><path d="M25.55 23 21.69 23C21.92 23.55 22.08 24.12 22.17 24.7 22.19 24.8 22.2 24.9 22.22 25L27 25 30.28 15.13 30.28 8.78 25.55 23Z" class="MsftOfcResponsive_Fill_7823dc" fill="#7823DC"/></svg>