<svg viewBox="0 0 32 31.99" xmlns="http://www.w3.org/2000/svg" xmlns:xlink="http://www.w3.org/1999/xlink" id="Layer_1" overflow="hidden"><style>
.MsftOfcResponsive_Fill_7823dc {
 fill:#7823DC; 
}
</style>
<defs></defs><path d="M16 17.99C13.92 17.99 11.9 18.16 10 18.48L10 20.51 10.18 20.48C12.01 20.16 13.98 19.99 16 19.99 24.25 19.99 30 22.63 30 24.99 30 27.35 24.25 29.99 16 29.99 7.75 29.99 2 27.36 2 24.99 2 24.14 2.73 23.29 4 22.53L4 20.28C1.45 21.52 0 23.17 0 24.99 0 28.98 6.88 31.99 16 31.99 25.12 31.99 32 28.98 32 24.99 32 21 25.12 17.99 16 17.99Z" class="MsftOfcResponsive_Fill_7823dc" fill="#7823DC"/><path d="M10 27.99C12.32 27.99 14 26.94 14 25.49 14 24.04 12.32 22.99 10 22.99 9.25 22.99 8.58 23.11 8 23.31L8 8.96C9.83 9.42 11.61 9.02 13.22 8.65 15.17 8.2 16.85 7.81 18.52 8.71L19.99 9.5 19.99 0.9 19.43 0.63C17.09-0.5 14.77 0.14 12.72 0.72 10.85 1.24 9.09 1.74 7.43 0.93L5.99 0.23 5.99 25.42 6 25.42C6 25.42 5.99 25.47 5.99 25.49 5.99 26.94 7.67 27.99 9.99 27.99ZM10 24.99C11.04 24.99 11.71 25.3 11.94 25.49 11.71 25.68 11.04 25.99 10 25.99 8.96 25.99 8.29 25.68 8.06 25.49 8.29 25.3 8.96 24.99 10 24.99ZM8 3.21C9.85 3.59 11.64 3.09 13.27 2.63 14.93 2.17 16.51 1.72 18 2.19L18 6.36C16.18 5.91 14.39 6.32 12.78 6.69 11.03 7.09 9.5 7.44 8 6.87L8 3.2Z" class="MsftOfcResponsive_Fill_7823dc" fill="#7823DC"/></svg>