<svg viewBox="0 0 32 32" xmlns="http://www.w3.org/2000/svg" xmlns:xlink="http://www.w3.org/1999/xlink" overflow="hidden"><defs></defs><g id="Layer_3"><path d="M26 5.7065 26 0.04659 6 0.04659 6 5.66659 2 10.4565 2 32.0466 30 32.0466 30 10.6965ZM26.92 10.0466 23.12 10.0466 25.04 7.7065ZM8 2.04659 24 2.04659 24 5.04659 8 5.05659ZM20 30.0466 4 30.0466 4 12.0466 20 12.0466ZM4.95 10.0466 7.45 7.05659 23 7.04659 20.53 10.0466ZM28 30.0466 22 30.0466 22 12.0466 28 12.0466Z" fill="#7823DC"/><path d="M11.5 29.0466C8.46243 29.0466 6 26.5842 6 23.5466 6 20.509 8.46243 18.0466 11.5 18.0466 14.5376 18.0466 17 20.509 17 23.5466 16.9962 26.5826 14.536 29.0428 11.5 29.0466ZM11.5 20.0466C9.567 20.0466 8 21.6136 8 23.5466 8 25.4796 9.567 27.0466 11.5 27.0466 13.433 27.0466 15 25.4796 15 23.5466 14.9977 21.6146 13.432 20.0489 11.5 20.0466Z" fill="#7823DC"/><path d="M13.8828 19.5437C13.3099 19.5429 12.7465 19.3982 12.2441 19.1228L11.9873 18.9821 11.8467 18.7253C11.2698 17.6723 11.2887 16.3936 11.8965 15.3581L11.9365 15.2419 12.0654 15.1013C12.1258 15.005 12.1965 14.9156 12.2763 14.8347L12.291 14.82C12.332 14.7702 12.374 14.7253 12.418 14.6813 12.6326 14.4616 12.8753 14.2712 13.1397 14.1149L13.3164 14.0192C13.3806 13.9871 13.4465 13.9584 13.5137 13.9333 13.8476 13.8093 14.1931 13.719 14.5449 13.6637 15.139 13.5748 15.7393 13.5352 16.3399 13.5456L17.4043 13.5554 17.4248 14.6325C17.4361 15.2139 17.3995 15.7953 17.3155 16.3708 17.2612 16.7352 17.1699 17.0932 17.043 17.4391 17.0196 17.4997 16.9922 17.5641 16.961 17.6286L16.8673 17.8063C16.7077 18.0784 16.5126 18.328 16.2872 18.5485 16.2423 18.5915 16.1993 18.6286 16.1563 18.6647L16.0684 18.7438C15.4568 19.2595 14.6828 19.5428 13.8828 19.5437ZM13.4844 17.4841C13.9358 17.6169 14.4237 17.5142 14.7832 17.2107L14.7803 17.2126C14.8081 17.1853 14.8375 17.1596 14.8682 17.1355 14.9727 17.0388 15.0628 16.9276 15.1357 16.8054 15.2298 16.5785 15.2963 16.3411 15.334 16.0984 15.3594 15.9226 15.3799 15.7488 15.3945 15.5759 15.2246 15.5906 15.0547 15.6111 14.8848 15.6355 14.6566 15.6694 14.4325 15.7263 14.2158 15.8054 14.081 15.878 13.9576 15.9702 13.8496 16.0788L13.6494 16.324C13.4292 16.6686 13.369 17.0917 13.4844 17.4841Z" fill="#7823DC"/><rect x="9.73222" y="13.949" width="1.99942" height="5.58962" fill="#7823DC" transform="matrix(0.965098 -0.26189 0.26189 0.965098 -4.01048 3.39499)"/></g></svg>