<svg viewBox="0 0 32 32" xmlns="http://www.w3.org/2000/svg" xmlns:xlink="http://www.w3.org/1999/xlink" id="Layer_5" overflow="hidden"><defs></defs><path d="M25.18 22.39C25.18 21.24 24.46 20.26 23.45 19.86 23.14 19.74 22.81 19.67 22.45 19.67 22.09 19.67 21.76 19.74 21.45 19.86 20.44 20.26 19.72 21.24 19.72 22.39 19.72 23.89 20.94 25.12 22.45 25.12 23.96 25.12 25.18 23.9 25.18 22.39ZM22.45 23.12C22.05 23.12 21.72 22.79 21.72 22.39 21.72 21.99 22.05 21.66 22.45 21.66 22.85 21.66 23.18 21.99 23.18 22.39 23.18 22.79 22.85 23.12 22.45 23.12Z" stroke-width="0" fill="#7823DC"/><path d="M30 21.12 32.02 18.85 30 15.36 30 4 8.73 4 5.21 8 0 8 0 27.86 14.15 27.86 14.71 28.82 18.27 28.09C18.39 28.17 18.77 28.54 18.9 28.61L20.22 31.99 24.42 31.99 25.57 28.55C25.85 28.42 26.11 28.26 26.37 28.1L29.93 28.83 32.03 25.2 30.01 22.91 30.01 21.13ZM2 10 6.12 10 9.64 6 28.01 6 28.01 15.61 26.37 15.94C26.11 15.77 25.84 15.62 25.57 15.49L24.42 12.04 20.22 12.04 19.59 15.21 17.88 16.25 14.72 15.2 13.19 17.85 2 17.85 2 9.99ZM2 25.86 2 19.86 13.5 19.86 15.02 21.58 15.02 22.45 12.6 25.19 12.99 25.86 2 25.86ZM22.94 29.95 21.68 29.95 21.06 28.14 20.96 27.86 20.92 27.76 20.73 27.09 20.1 26.79C19.95 26.72 19.82 26.63 19.68 26.55 19.55 26.48 19.41 26.41 19.29 26.33L18.72 25.92 15.75 26.53 15.36 25.87 15.11 25.45 17.1 23.18 17.04 21.56 17.1 20.87 16.22 19.87 15.1 18.6 15.52 17.87 15.72 17.52 17.45 17.87 18.71 18.13 18.79 18.07 19.07 17.87 19.27 17.73C19.53 17.55 19.8 17.4 20.08 17.26L20.52 17.05 20.72 16.96 21.67 14.1 22.93 14.1 23.91 16.98 24.54 17.27C24.82 17.41 25.1 17.56 25.35 17.73L25.56 17.88 25.92 18.14 27.16 17.88 27.99 17.71 28.86 17.53 29.06 17.88 29.48 18.61 28.37 19.88 27.99 20.32 27.5 20.88 27.57 22.5 27.5 23.2 27.99 23.75 29.51 25.47 28.89 26.55 25.88 25.94 25.32 26.34C25.06 26.52 24.78 26.68 24.51 26.81L23.88 27.1 23.62 27.89 22.93 29.98Z" stroke-width="0" fill="#7823DC"/></svg>