<svg viewBox="0 0 32 32" xmlns="http://www.w3.org/2000/svg" xmlns:xlink="http://www.w3.org/1999/xlink" id="Layer_5" overflow="hidden"><defs></defs><path d="M8.9 25.33 8.9 24.44C10.33 24.43 11.48 23.26 11.47 21.84L11.47 21.84C11.47 20.3 10.47 19.69 8.9 19.42L8.9 17.92C9.15 18.08 9.3 18.35 9.31 18.64L11.31 18.64C11.26 17.33 10.21 16.29 8.9 16.24L8.9 15.34 6.9 15.34 6.9 16.25C5.59 16.31 4.56 17.36 4.52 18.67 4.52 20.12 5.24 20.83 6.9 21.15L6.9 22.71C6.62 22.5 6.44 22.17 6.43 21.82L4.36 21.82C4.39 23.22 5.5 24.36 6.9 24.43L6.9 25.33 8.9 25.33ZM8.9 21.47C9.19 21.52 9.39 21.79 9.37 22.08 9.37 22.39 9.19 22.67 8.9 22.79L8.9 21.47ZM6.56 18.51C6.58 18.29 6.71 18.1 6.9 17.99L6.9 19.09C6.68 18.99 6.54 18.76 6.56 18.51Z" stroke-width="0" fill="#7823DC"/><path d="M29.53 22.34C29.53 22.23 29.55 22.12 29.55 22.02 29.55 21.87 29.55 21.72 29.54 21.56L31.94 18.86 29.84 15.22 26.28 15.94C26.02 15.77 25.75 15.62 25.48 15.49L24.33 12.04 20.13 12.04 19.23 14.75 15.59 8 9.9 8 15.57 0.02-0.3 0.02 5.9 8-3.24 8-11.08 23.17-11.18 23.17-5.63 32 23.71 32C23.7 31.93 23.68 31.87 23.67 31.8 23.64 31.62 23.64 31.43 23.65 31.25 23.65 30.87 23.67 30.5 23.67 30.12 23.67 30.12 23.67 30.12 23.67 30.12 23.67 30.08 23.66 30.04 23.66 30L-4.48 30-8.69 23.37-8.69 22.91-2.02 10 14.39 10 17.51 15.8 14.62 15.22 12.52 18.85 14.94 21.59 14.94 22.46 12.52 25.2 14.62 28.84 18.18 28.11C18.3 28.19 18.43 28.25 18.56 28.32L18.56 28.32C18.56 28.32 18.56 28.34 18.57 28.34L20.13 32.01 24.33 32.01 25.48 28.57C25.76 28.44 26.02 28.28 26.28 28.12L29.84 28.85 31.94 25.22 29.52 22.48C29.52 22.48 29.52 22.4 29.52 22.36ZM6.9 6 3.8 2.01 11.7 2.01 8.9 6 6.9 6ZM28.82 26.53 25.81 25.92 25.25 26.32C24.99 26.5 24.71 26.66 24.44 26.79L23.81 27.08 22.86 29.96 21.6 29.96 20.98 28.15 20.85 27.76 20.66 27.09 20.03 26.79C19.88 26.72 19.75 26.63 19.61 26.55 19.48 26.48 19.34 26.41 19.22 26.33L18.65 25.92 15.68 26.53 15.05 25.45 17.04 23.18 16.98 21.56 17.04 20.87 15.05 18.6 15.67 17.52 18.66 18.13 18.74 18.07 19.22 17.73C19.48 17.55 19.75 17.4 20.03 17.26L20.47 17.05 20.67 16.96 21.62 14.1 22.88 14.1 23.86 16.98 24.49 17.27C24.77 17.41 25.05 17.56 25.3 17.73L25.87 18.14 28.81 17.53 29.43 18.61 27.45 20.88 27.52 22.5 27.45 23.2 29.46 25.47 28.84 26.55Z" stroke-width="0" fill="#7823DC"/><path d="M22.37 19.67C20.87 19.67 19.64 20.89 19.64 22.4 19.64 23.91 20.86 25.13 22.37 25.13 23.88 25.13 25.1 23.91 25.1 22.4 25.1 20.89 23.88 19.67 22.37 19.67ZM22.37 23.13C21.97 23.13 21.64 22.8 21.64 22.4 21.64 22 21.97 21.67 22.37 21.67 22.77 21.67 23.1 22 23.1 22.4 23.1 22.8 22.77 23.13 22.37 23.13Z" stroke-width="0" fill="#7823DC"/></svg>