<svg viewBox="0 0 32 32" xmlns="http://www.w3.org/2000/svg" xmlns:xlink="http://www.w3.org/1999/xlink" id="Layer_5" overflow="hidden"><defs></defs><path d="M30.21 8.7C29.79 7.87 29.3 7.09 28.75 6.35 28.32 5.78 27.87 5.23 27.37 4.72 26.72 4.05 26 3.45 25.24 2.9 22.62 1.03 19.43-0.08 15.96-0.08 7.15-0.08-0.01 7.08-0.01 15.89-0.01 24.7 7.16 31.86 15.96 31.86 24.76 31.86 31.93 24.69 31.93 15.89 31.93 13.3 31.3 10.87 30.2 8.7ZM27.76 8.42C27.46 8.6 27.11 8.7 26.74 8.7 25.61 8.7 24.7 7.78 24.7 6.65 24.7 6.16 24.88 5.72 25.16 5.37 26.17 6.25 27.04 7.27 27.77 8.41ZM15.96 29.86C10.78 29.86 6.27 27.03 3.85 22.83 3.87 22.83 3.88 22.83 3.89 22.83 5.7 22.83 7.18 21.35 7.18 19.54 7.18 17.73 5.7 16.25 3.89 16.25 3.2 16.25 2.56 16.47 2.03 16.83 2.01 16.51 1.98 16.2 1.98 15.88 1.99 8.18 8.26 1.92 15.96 1.92 18.76 1.92 21.37 2.76 23.56 4.19 23.02 4.88 22.68 5.73 22.68 6.67 22.68 8.9 24.49 10.72 26.72 10.72 27.44 10.72 28.1 10.52 28.69 10.19 29.48 11.94 29.92 13.87 29.92 15.9 29.92 23.61 23.65 29.87 15.95 29.87ZM2.61 19.55C2.61 18.84 3.19 18.26 3.9 18.26 4.61 18.26 5.19 18.84 5.19 19.55 5.19 20.26 4.61 20.84 3.9 20.84 3.19 20.84 2.61 20.26 2.61 19.55Z" fill="#7823DC"/><path d="M13.94 11.78C12.33 11.78 11.02 13.09 11.02 14.7 11.02 16.31 12.33 17.62 13.94 17.62 15.55 17.62 16.86 16.31 16.86 14.7 16.86 13.09 15.55 11.78 13.94 11.78ZM13.94 15.61C13.44 15.61 13.02 15.2 13.02 14.69 13.02 14.18 13.43 13.77 13.94 13.77 14.45 13.77 14.86 14.18 14.86 14.69 14.86 15.2 14.45 15.61 13.94 15.61Z" fill="#7823DC"/><circle cx="7.99" cy="8.1" r="1.09" fill="#7823DC"/><circle cx="16.55" cy="6.69" r="1.09" fill="#7823DC"/><path d="M25.24 13.22C24.35 13.22 23.62 13.95 23.62 14.84 23.62 15.73 24.35 16.46 25.24 16.46 26.13 16.46 26.86 15.73 26.86 14.84 26.86 13.95 26.13 13.22 25.24 13.22Z" fill="#7823DC"/><path d="M13 21.23C11.31 21.23 9.94 22.6 9.94 24.29 9.94 25.98 11.31 27.35 13 27.35 14.69 27.35 16.06 25.98 16.06 24.29 16.06 22.6 14.69 21.23 13 21.23ZM13 25.36C12.41 25.36 11.94 24.88 11.94 24.3 11.94 23.72 12.42 23.24 13 23.24 13.58 23.24 14.06 23.72 14.06 24.3 14.06 24.88 13.58 25.36 13 25.36Z" fill="#7823DC"/><path d="M23.58 19.26C22.14 19.26 20.96 20.44 20.96 21.88 20.96 23.32 22.14 24.5 23.58 24.5 25.02 24.5 26.2 23.32 26.2 21.88 26.2 20.44 25.03 19.26 23.58 19.26ZM23.58 22.5C23.24 22.5 22.96 22.22 22.96 21.88 22.96 21.54 23.24 21.26 23.58 21.26 23.92 21.26 24.2 21.54 24.2 21.88 24.2 22.22 23.92 22.5 23.58 22.5Z" fill="#7823DC"/><path d="M21.71 8.48C22 8.48 22.23 8.25 22.23 7.96 22.23 7.67 22 7.44 21.71 7.44 21.42 7.44 21.19 7.67 21.19 7.96 21.19 8.25 21.42 8.48 21.71 8.48Z" fill="#7823DC"/><path d="M19.17 26.8C18.8 26.8 18.49 27.1 18.49 27.48 18.49 27.86 18.79 28.16 19.17 28.16 19.55 28.16 19.85 27.86 19.85 27.48 19.85 27.1 19.55 26.8 19.17 26.8Z" fill="#7823DC"/><circle cx="7.63" cy="12.12" r="0.69" fill="#7823DC"/></svg>