<svg viewBox="0 0 32 32" xmlns="http://www.w3.org/2000/svg" xmlns:xlink="http://www.w3.org/1999/xlink" overflow="hidden"><style>
.MsftOfcResponsive_Fill_7823dc {
 fill:#7823DC; 
}
</style>
<defs></defs><g id="Layer_3"><path d="M29.9672 4 29.9672 22.01 1.96724 22.01 1.96724 4 29.9672 4M28.0172 2-0.03276 2-0.03276 24.01 31.9672 24.01 31.9672 6Z" class="MsftOfcResponsive_Fill_7823dc" fill="#7823DC"/><path d="M17.9672 24.01 17.9672 30.01 13.9672 30.01 13.9672 24.01 17.9672 24.01M19.9672 22.01 11.9672 22.01 11.9672 32.01 19.9672 32.01Z" class="MsftOfcResponsive_Fill_7823dc" fill="#7823DC"/><path d="M25.947 30.01 5.947 30.01 5.947 32.01 25.947 32.01 25.947 30.01 25.947 30.01Z" class="MsftOfcResponsive_Fill_7823dc" fill="#7823DC"/><path d="M24.199 17.952 9.559 17.959 9.56 15.961 24.062 15.961 24.199 17.952Z" class="MsftOfcResponsive_Fill_7823dc" fill="#7823DC"/><rect x="9.00371" y="11.9641" width="15.6438" height="2" class="MsftOfcResponsive_Fill_7823dc" fill="#7823DC"/><path d="M24.342 9.961 24.332 9.961 24.34 9.97 24.342 9.961Z" class="MsftOfcResponsive_Fill_7823dc" fill="#7823DC"/><path d="M22.717 7.961 7.964 7.961 8.175 9.961 24.332 9.961 22.717 7.961Z" class="MsftOfcResponsive_Fill_7823dc" fill="#7823DC"/><path d="M24.635 17.959 25.947 11.961 24.34 9.97 22.589 17.959 24.635 17.959Z" class="MsftOfcResponsive_Fill_7823dc" fill="#7823DC"/><path d="M9.56 17.964 11.603 17.964 8.86 5.962 4.065 5.962 4.065 7.962 7.207 7.962 9.56 17.964Z" class="MsftOfcResponsive_Fill_7823dc" fill="#7823DC"/><circle cx="12.0869" cy="19.4796" r="1.52033" class="MsftOfcResponsive_Fill_7823dc" fill="#7823DC"/><circle cx="22.0287" cy="19.4796" r="1.52033" class="MsftOfcResponsive_Fill_7823dc" fill="#7823DC"/></g></svg>