<svg viewBox="0 0 32 32" xmlns="http://www.w3.org/2000/svg" xmlns:xlink="http://www.w3.org/1999/xlink" id="Layer_1" overflow="hidden"><style>
.MsftOfcResponsive_Fill_7823dc {
 fill:#7823DC; 
}
</style>
<defs></defs><path d="M27.1 8 26.13 17.1 24.95 16.25 20.84 22 18.39 22 16 24.54 13.61 22 11.16 22 7.05 16.25 5.87 17.1 4.9 8 0 8 0 22.76 8 29.48 8 32 10 32 10 28.55 2 21.83 2 10 3.1 10 4 18.45 2.85 19.28 7.18 25.4 8.82 24.25 5.63 19.74 6.59 19.05 10.13 24 12.75 24 15 26.4 15 32 17 32 17 26.4 19.25 24 21.87 24 25.41 19.05 26.37 19.74 23.18 24.25 24.82 25.4 29.15 19.28 28 18.45 28.9 10 30 10 30 21.83 22 28.55 22 32 24 32 24 29.48 32 22.76 32 8 27.1 8Z" class="MsftOfcResponsive_Fill_7823dc" fill="#7823DC"/><path d="M12.4 17.42 16 21.02 19.6 17.42C20 17.02 20.26 16.53 20.39 16L24 16 24 4 21 4 21 0 11 0 11 4 8 4 8 16 11.62 16C11.74 16.52 12 17.02 12.4 17.42ZM18.19 16.01 16 18.2 13.81 16.01C13.43 15.63 13.43 15.02 13.81 14.64 13.99 14.46 14.23 14.36 14.48 14.36L14.51 14.36C14.79 14.36 15.05 14.49 15.24 14.71L15.99 15.57 16.75 14.71C17.18 14.22 17.7 14.37 17.84 14.42 17.99 14.47 18.46 14.7 18.47 15.32 18.47 15.58 18.37 15.82 18.18 16ZM13 2 19 2 19 4 13 4 13 2ZM11 6 22 6 22 7.9 19.3 9.18 12.74 9.18 10 7.77 10 6.01 11 6.01ZM10 10.01 12.26 11.17 19.75 11.17 22 10.11 22 14 20.16 14C19.83 13.35 19.27 12.82 18.55 12.56 17.69 12.24 16.76 12.33 16 12.78 15.57 12.53 15.09 12.39 14.58 12.37 13.76 12.35 12.97 12.65 12.39 13.24 12.16 13.47 11.99 13.73 11.85 14.01L9.99 14.01 9.99 10.02Z" class="MsftOfcResponsive_Fill_7823dc" fill="#7823DC"/></svg>