<svg width="36.5" height="36.6" viewBox="0 0 36.5 36.6" xmlns="http://www.w3.org/2000/svg" xmlns:xlink="http://www.w3.org/1999/xlink" overflow="hidden"><defs></defs><g><g><defs><path d="M0 36.5 36.5 36.5 36.5 0 0 0 0 36.5Z" id="SVGID_1_" fill="#7823DC"/></defs><clipPath id="SVGID_2_"><use width="100%" height="100%" xlink:href="#SVGID_1_"></use></clipPath><g clip-path="url(#SVGID_2_)"><defs><path d="M0 36.5 36.5 36.5 36.5 0 0 0 0 36.5Z" id="SVGID_3_" fill="#7823DC"/></defs><clipPath id="SVGID_4_"><use width="100%" height="100%" xlink:href="#SVGID_3_"></use></clipPath><path d="M0 29.8 34.9 29.8 34.9 32.1 0 32.1 0 29.8Z" fill="#7823DC" clip-path="url(#SVGID_4_)"/><path d="M29.2 34.9 34.1 30.1 35.7 31.7 30.8 36.6 29.2 34.9Z" fill="#7823DC" clip-path="url(#SVGID_4_)"/><path d="M29.2 26.9 30.8 25.2 36.5 30.9 34.9 32.5 29.2 26.9Z" fill="#7823DC" clip-path="url(#SVGID_4_)"/><path d="M25.5 13.7 18.2 22.5 11 13.7 8 13.7 18.2 26.3 28.5 13.7 25.5 13.7 25.5 13.7Z" fill="#7823DC" clip-path="url(#SVGID_4_)"/><path d="M5.7 13.7 8 13.7 8 28.6 5.7 28.6 5.7 13.7Z" fill="#7823DC" clip-path="url(#SVGID_4_)"/><path d="M28.5 13.7 30.8 13.7 30.8 24 28.5 24 28.5 13.7Z" fill="#7823DC" clip-path="url(#SVGID_4_)"/><path d="M18.3 13.7C14.5 13.7 11.5 10.6 11.5 6.8 11.5 3 14.5 0 18.3 0 22.1 0 25.1 3.1 25.1 6.9 25.1 10.7 22 13.7 18.3 13.7ZM18.3 2.3C15.8 2.3 13.7 4.4 13.7 6.9 13.7 9.4 15.7 11.5 18.3 11.5 20.9 11.5 22.9 9.4 22.9 6.9 22.9 4.4 20.8 2.3 18.3 2.3Z" fill="#7823DC" clip-path="url(#SVGID_4_)"/></g></g></g></svg>