<svg viewBox="0 0 32 32" xmlns="http://www.w3.org/2000/svg" xmlns:xlink="http://www.w3.org/1999/xlink" id="Layer_1" xml:space="preserve" overflow="hidden"><style>
.MsftOfcResponsive_Fill_7823dc {
 fill:#7823DC; 
}
</style>
<path d="M16 9.3C18.6 9.3 20.8 7.2 20.8 4.6 20.8 2 18.6 0 16 0 13.4 0 11.2 2.1 11.2 4.7 11.2 7.3 13.4 9.3 16 9.3ZM16 1.9C17.5 1.9 18.8 3.1 18.8 4.6 18.8 6.1 17.5 7.4 16 7.4 14.5 7.4 13.2 6.2 13.2 4.7 13.2 3.2 14.5 1.9 16 1.9Z" class="MsftOfcResponsive_Fill_7823dc" fill="#7823DC"/><path d="M24.9 18 24.9 13.8 7.1 13.8 7.1 18 9.1 18 9.1 15.7 22.9 15.7 22.9 18Z" class="MsftOfcResponsive_Fill_7823dc" fill="#7823DC"/><path d="M29.5 30.1C29 23.3 23.1 17.9 16 17.9 8.9 17.9 3 23.2 2.5 30L0 30 0 32 32 32 32 30.1 29.5 30.1ZM27.5 30.1 24 30.1C24 30 24 29.9 24 29.9 24 28.1 23.6 26.3 22.9 24.7 23.5 24.4 24 24 24.5 23.6 26.2 25.3 27.3 27.6 27.5 30.1ZM10 29.8C10 28.3 10.3 26.8 10.9 25.5 12.5 26.1 14.2 26.5 16 26.5 17.8 26.5 19.5 26.2 21.1 25.5 21.7 26.9 22 28.3 22 29.8 22 29.9 22 30 22 30L10 30C10 30 10 29.9 10 29.8ZM22 22.9C21.5 22.1 20.8 21.3 20.1 20.6 21.2 21 22.2 21.5 23 22.2 22.7 22.5 22.3 22.7 22 22.9ZM16 20C16 20.1 16.1 20.1 16 20 17.8 20.9 19.1 22.2 20.1 23.8 18.8 24.3 17.4 24.5 16 24.5 14.6 24.5 13.1 24.2 11.8 23.8 12.9 22.3 14.3 21 16 20 16 20.1 16 20 16 20ZM10 22.9C9.6 22.7 9.3 22.5 8.9 22.2 9.8 21.5 10.8 21 11.9 20.6 11.2 21.3 10.6 22.1 10 22.9ZM7.5 23.5C8 24 8.5 24.3 9.1 24.6 8.4 26.3 8 28 8 29.8 8 29.9 8 30 8 30L4.5 30C4.7 27.6 5.8 25.3 7.5 23.5Z" class="MsftOfcResponsive_Fill_7823dc" fill="#7823DC"/><path d="M5.9 8C7.7 8 9.1 6.6 9.1 4.9 9.1 3.2 7.7 1.8 5.9 1.8 4.1 1.8 2.7 3.2 2.7 4.9 2.7 6.6 4.1 8 5.9 8ZM5.9 3.7C6.6 3.7 7.1 4.2 7.1 4.9 7.1 5.6 6.6 6.1 5.9 6.1 5.2 6.1 4.7 5.6 4.7 4.9 4.7 4.2 5.2 3.7 5.9 3.7Z" class="MsftOfcResponsive_Fill_7823dc" fill="#7823DC"/><path d="M2 17 0 17 0 9 11.7 9 11.7 12.4 9.7 12.4 9.7 11 2 11Z" class="MsftOfcResponsive_Fill_7823dc" fill="#7823DC"/><path d="M26.1 8C24.3 8 22.9 6.6 22.9 4.9 22.9 3.2 24.3 1.8 26.1 1.8 27.9 1.8 29.3 3.2 29.3 4.9 29.3 6.6 27.9 8 26.1 8ZM26.1 3.7C25.4 3.7 24.9 4.2 24.9 4.9 24.9 5.6 25.4 6.1 26.1 6.1 26.8 6.1 27.3 5.6 27.3 4.9 27.3 4.2 26.8 3.7 26.1 3.7Z" class="MsftOfcResponsive_Fill_7823dc" fill="#7823DC"/><path d="M30 17 32 17 32 9 20.3 9 20.3 12.4 22.3 12.4 22.3 11 30 11Z" class="MsftOfcResponsive_Fill_7823dc" fill="#7823DC"/></svg>