<svg viewBox="0 0 32.13 32.14" xmlns="http://www.w3.org/2000/svg" xmlns:xlink="http://www.w3.org/1999/xlink" id="Layer_1" overflow="hidden"><style>
.MsftOfcResponsive_Fill_7823dc {
 fill:#7823DC; 
}
</style>
<defs></defs><path d="M11.79 23.47C16.48 23.47 20.85 20.64 22.67 16.18 25.11 10.19 22.22 3.32 16.21 0.87 10.2-1.58 3.32 1.3 0.88 7.29-1.15 12.26 0.43 17.88 4.7 21.09L1.28 29.46 6.86 31.74 10.28 23.37C10.78 23.44 11.29 23.48 11.78 23.48ZM11.07 21.44 11.68 19.95 14.46 21.09C13.37 21.4 12.23 21.53 11.07 21.44ZM2.27 13.95C1.82 12.04 1.94 9.98 2.73 8.04 4.76 3.08 10.47 0.69 15.45 2.73 20.44 4.77 22.84 10.46 20.81 15.43 20.02 17.36 18.66 18.91 16.98 19.96L2.27 13.95ZM3.28 16.52 6.1 17.67 5.49 19.16C4.58 18.4 3.85 17.5 3.28 16.52ZM5.77 29.12 3.89 28.35 7.94 18.42 9.82 19.19 5.77 29.12Z" class="MsftOfcResponsive_Fill_7823dc" fill="#7823DC"/><path d="M30.39 21.47C31.93 19.16 32.47 16.39 31.92 13.67 31.37 10.95 29.8 8.61 27.49 7.06 26.43 6.35 25.25 5.85 24.03 5.57 24.43 6.34 24.75 7.15 24.99 7.98 25.47 8.18 25.94 8.43 26.38 8.73 28.25 9.97 29.52 11.87 29.96 14.07 30.4 16.26 29.96 18.5 28.72 20.36 27.74 21.83 26.35 22.9 24.78 23.5L21.57 21.36C20.21 22.74 18.56 23.83 16.75 24.54L13.53 29.36 12.27 28.52 14.48 25.21C13.64 25.38 12.77 25.47 11.89 25.48L11.08 26.69 9.49 29.07 9.98 29.39 14.08 32.14 18.48 25.54C19.55 25.89 20.65 26.07 21.73 26.07 25.13 26.07 28.42 24.41 30.39 21.47ZM19.64 23.8 20.25 22.89 22.02 24.07C21.23 24.09 20.43 24 19.64 23.8Z" class="MsftOfcResponsive_Fill_7823dc" fill="#7823DC"/><path d="M30.14 26.22C28.62 25.6 26.88 26.33 26.25 27.85 25.63 29.37 26.36 31.11 27.88 31.73 28.24 31.88 28.63 31.95 29.01 31.95 29.39 31.95 29.79 31.87 30.16 31.72 30.89 31.41 31.46 30.84 31.76 30.1 32.06 29.36 32.06 28.55 31.75 27.82 31.44 27.09 30.87 26.52 30.13 26.22ZM29.92 29.35C29.82 29.59 29.63 29.78 29.39 29.88 29.15 29.98 28.88 29.98 28.64 29.88 28.14 29.68 27.9 29.1 28.1 28.6 28.26 28.22 28.62 27.99 29.01 27.99 29.13 27.99 29.26 28.01 29.38 28.06 29.62 28.16 29.81 28.35 29.91 28.59 30.01 28.83 30.01 29.1 29.91 29.34Z" class="MsftOfcResponsive_Fill_7823dc" fill="#7823DC"/></svg>