<svg viewBox="0 0 31.97 31.99" xmlns="http://www.w3.org/2000/svg" xmlns:xlink="http://www.w3.org/1999/xlink" id="Layer_1" overflow="hidden"><style>
.MsftOfcThm_Text2_Fill_v2 {
 fill:#7823DC; 
}
</style>
<defs></defs><rect x="3.15" y="2.5" width="2" height="3.34" class="MsftOfcThm_Text2_Fill_v2" stroke-width="0" fill="#7823DC" transform="matrix(0.707107 -0.707107 0.707107 0.707107 -1.74 4.15)"/><path d="M27.16 31.99C25.94 31.99 24.73 31.52 23.78 30.57L15.92 22.74 22.68 16 30.53 23.83C31.41 24.64 31.93 25.8 31.96 27.06 31.99 28.36 31.47 29.64 30.53 30.57 29.58 31.51 28.37 31.99 27.15 31.99ZM18.76 22.74 25.19 29.15C26.31 30.27 28 30.27 29.12 29.15L29.12 29.15C29.67 28.6 29.97 27.86 29.96 27.1 29.95 26.39 29.66 25.74 29.15 25.27L22.68 18.82 18.75 22.74Z" class="MsftOfcThm_Text2_Fill_v2" stroke-width="0" fill="#7823DC"/><rect x="13.05" y="19.07" width="13.95" height="2" class="MsftOfcThm_Text2_Fill_v2" stroke-width="0" fill="#7823DC" transform="matrix(0.708093 -0.706119 0.706119 0.708093 -8.33 20)"/><path d="M18.21 23.29 7.72 12.82 3.19 10.09 0 4.7 4.57 0 10 3.19 12.74 7.82 23.24 18.28 18.22 23.28ZM4.66 8.64 9.05 11.32 18.22 20.46 20.41 18.28 11.09 8.95 8.55 4.66 4.92 2.53 2.51 5.01 4.67 8.65Z" class="MsftOfcThm_Text2_Fill_v2" stroke-width="0" fill="#7823DC"/></svg>