<svg viewBox="0 0 32 32" xmlns="http://www.w3.org/2000/svg" xmlns:xlink="http://www.w3.org/1999/xlink" id="Layer_5" overflow="hidden"><defs></defs><rect x="0" y="15" width="0" height="6" fill="#7823DC"/><path d="M20.08 32 30.17 25.84C31.65 25.22 32.39 23.52 31.81 22 31.66 21.61 31.44 21.27 31.17 20.99L32.01 20.99 32.01 14.99 29.85 14.99C28.92 8.54 23.59 3.51 17.01 3.04L17.01 2 20.01 2 20.01 0 12 0 12 2 15 2 15 3.05C8.42 3.52 3.09 8.55 2.16 15L0 15 0 21 6.57 21 9.37 24 16.71 24C17.26 24 17.71 24.45 17.71 25 17.71 25.55 17.26 26 16.71 26L9.81 26 9.81 28 19.78 28 28.74 22.11C29.23 21.98 29.76 22.23 29.95 22.72 30.15 23.24 29.89 23.81 29.37 24.01L19.53 30 4.44 30 0 25.15 0 28.11 3.56 32 20.08 32ZM16 5C21.93 5 26.86 9.33 27.82 15L4.18 15C5.14 9.33 10.06 5 16 5ZM19.6 25.72C19.66 25.49 19.7 25.25 19.7 25 19.7 23.35 18.35 22 16.7 22L10.23 22 9.3 21 26.82 21 19.61 25.72ZM2 19 2 17 30 17 30 19 2 19Z" fill="#7823DC"/></svg>