<svg viewBox="0 0 32 32" xmlns="http://www.w3.org/2000/svg" xmlns:xlink="http://www.w3.org/1999/xlink" id="Layer_1" xml:space="preserve" overflow="hidden"><g><path d="M21.1 21.3 21.1 23.5C21.8 23.7 22.5 23.9 23.3 24L23.3 22C22.3 21.8 21.6 21.6 21.1 21.3ZM0 0 0 32 23.3 32 23.3 29.9C22.4 29.8 21.6 29.6 21.1 29.3L21.1 29.8 2.2 29.8 2.2 2.2 21.1 2.2 21.1 19.7C21.6 19.5 22.4 19.2 23.3 19.1L23.3 0 0 0ZM21.1 27.4C21.8 27.6 22.5 27.8 23.3 27.8L23.3 25.8C22.4 25.7 21.6 25.5 21.1 25.2L21.1 27.4Z" fill="#7823DC" fill-rule="evenodd" clip-rule="evenodd"/><path d="M3.9 4 3.9 12.3 19.4 12.3 19.4 4 3.9 4ZM17.2 10.2 6.1 10.2 6.1 6.2 17.2 6.2 17.2 10.2Z" fill="#7823DC" fill-rule="evenodd" clip-rule="evenodd"/><g><path d="M8.3 21.5 10.5 21.5 10.5 23.7 8.3 23.7 8.3 21.5Z" fill="#7823DC" fill-rule="evenodd" clip-rule="evenodd"/><path d="M12.7 21.5 14.9 21.5 14.9 23.7 12.7 23.7 12.7 21.5Z" fill="#7823DC" fill-rule="evenodd" clip-rule="evenodd"/><path d="M17.2 21.5 19.4 21.5 19.4 23.7 17.2 23.7 17.2 21.5Z" fill="#7823DC" fill-rule="evenodd" clip-rule="evenodd"/><path d="M3.9 21.5 6 21.5 6 23.7 3.9 23.7 3.9 21.5Z" fill="#7823DC" fill-rule="evenodd" clip-rule="evenodd"/><path d="M8.3 17 10.5 17 10.5 19.2 8.3 19.2 8.3 17Z" fill="#7823DC" fill-rule="evenodd" clip-rule="evenodd"/><path d="M12.8 17 14.9 17 14.9 19.2 12.8 19.2 12.8 17Z" fill="#7823DC" fill-rule="evenodd" clip-rule="evenodd"/><path d="M17.2 17 19.4 17 19.4 19.2 17.2 19.2 17.2 17Z" fill="#7823DC" fill-rule="evenodd" clip-rule="evenodd"/><path d="M3.9 17 6 17 6 19.2 3.9 19.2 3.9 17Z" fill="#7823DC" fill-rule="evenodd" clip-rule="evenodd"/><path d="M8.3 21.4 10.5 21.4 10.5 23.6 8.3 23.6 8.3 21.4Z" fill="#7823DC" fill-rule="evenodd" clip-rule="evenodd"/><path d="M12.7 21.4 14.9 21.4 14.9 23.6 12.7 23.6 12.7 21.4Z" fill="#7823DC" fill-rule="evenodd" clip-rule="evenodd"/><path d="M17.2 21.4 19.4 21.4 19.4 23.6 17.2 23.6 17.2 21.4Z" fill="#7823DC" fill-rule="evenodd" clip-rule="evenodd"/><path d="M3.9 21.4 6 21.4 6 23.6 3.9 23.6 3.9 21.4Z" fill="#7823DC" fill-rule="evenodd" clip-rule="evenodd"/><path d="M8.3 25.8 10.5 25.8 10.5 28 8.3 28 8.3 25.8Z" fill="#7823DC" fill-rule="evenodd" clip-rule="evenodd"/><path d="M12.8 25.8 14.9 25.8 14.9 28 12.8 28 12.8 25.8Z" fill="#7823DC" fill-rule="evenodd" clip-rule="evenodd"/><path d="M17.2 25.8 19.4 25.8 19.4 28 17.2 28 17.2 25.8Z" fill="#7823DC" fill-rule="evenodd" clip-rule="evenodd"/><path d="M3.9 25.8 6 25.8 6 28 3.9 28 3.9 25.8Z" fill="#7823DC" fill-rule="evenodd" clip-rule="evenodd"/></g></g><g><defs><path d="M0 32 0 32 32 32 32 0 0 0" id="SVGID_1_" fill="#7823DC"/></defs><defs><path d="M0 0 0 0 32 0 32 32 0 32" id="SVGID_00000141420483636107613550000008688528132940578991_" fill="#7823DC"/></defs><clipPath id="SVGID_00000128449232666201033010000010684349670563653546_"><use width="100%" height="100%" xlink:href="#SVGID_1_" overflow="visible"></use></clipPath><clipPath id="SVGID_00000169525307691789447310000000449453290749498759_" clip-path="url(#SVGID_00000128449232666201033010000010684349670563653546_)"><use width="100%" height="100%" xlink:href="#SVGID_00000141420483636107613550000008688528132940578991_" overflow="visible"></use></clipPath><g clip-path="url(#SVGID_00000169525307691789447310000000449453290749498759_)"><defs><path d="M0 32 0 32 32 32 32 0 0 0" id="SVGID_00000110443911285498421880000006584690498436244367_" fill="#7823DC"/></defs><clipPath id="SVGID_00000005232020909638115770000017149433619445238710_"><use width="100%" height="100%" xlink:href="#SVGID_00000110443911285498421880000006584690498436244367_" overflow="visible"></use></clipPath></g></g><g><path d="M32 28.7 30 28.7 30 20.5 32 20.5 32 28.7Z" fill="#7823DC" fill-rule="evenodd" clip-rule="evenodd"/><path d="M20 28.7 18 28.7 18 20.5 20 20.5 20 28.7Z" fill="#7823DC" fill-rule="evenodd" clip-rule="evenodd"/><path d="M25 17C24.4 17 23.8 17 23.3 17.1 22.5 17.2 21.8 17.3 21.1 17.6 20.5 17.8 19.9 18.1 19.4 18.4 19 18.6 18.7 18.9 18.5 19.2 18.2 19.5 18 20 18 20.5L18 20.6C18 20.9 18.1 21.2 18.2 21.5 18.2 21.5 18.2 21.6 18.2 21.6 18.4 22.1 18.8 22.5 19.3 22.8 19.5 22.9 19.7 23 19.9 23.1 20.2 23.3 20.6 23.4 21 23.5 21.7 23.7 22.4 23.9 23.2 24 23.8 24 24.4 24 25 24 26.8 24 28.7 23.7 30 23 31.2 22.4 32 21.6 32 20.5L32 20.4C31.9 18.2 28.5 17 25 17ZM25 22C24.4 22 23.8 22 23.3 21.9 22.4 21.8 21.6 21.6 21.1 21.3 20.4 21 20 20.7 20 20.5 20 20.3 20.4 20 21.1 19.7 21.6 19.5 22.4 19.2 23.3 19.1 23.8 19 24.4 19 25 19 28.3 19 30 20.1 30 20.5 30 20.9 28.3 22 25 22Z" fill="#7823DC" fill-rule="evenodd" clip-rule="evenodd"/><path d="M32 24.5C32 25.6 31.2 26.4 30 27 28.7 27.6 26.8 28 25 28 24.4 28 23.8 28 23.3 27.9 22.5 27.8 21.8 27.7 21.1 27.5 20.7 27.4 20.4 27.3 20 27.1 19.8 27 19.6 26.9 19.4 26.8 19 26.6 18.7 26.3 18.4 25.9 18.2 25.4 18 25 18 24.5L20 24.5C20 24.7 20.4 25 21.1 25.3 21.6 25.5 22.4 25.7 23.3 25.9 23.8 26 24.4 26 25 26 28.3 26 30 24.9 30 24.5L32 24.5Z" fill="#7823DC" fill-rule="evenodd" clip-rule="evenodd"/><path d="M32 28.5C32 28.5 32 28.6 32 28.6 31.9 30.8 28.4 31.9 25 31.9 24.4 31.9 23.8 31.9 23.3 31.8 21.2 31.6 19.3 30.8 18.5 29.7 18.3 29.4 18.1 29 18.1 28.6 18.1 28.5 18.1 28.5 18.1 28.4L20.1 28.4C20.1 28.6 20.5 28.9 21.2 29.2 21.7 29.4 22.5 29.6 23.4 29.8 23.8 30 24.4 30 25 30 28.3 30 30 28.9 30 28.5L32 28.5Z" fill="#7823DC" fill-rule="evenodd" clip-rule="evenodd"/></g></svg>