<svg viewBox="0 0 31.55 31.72" xmlns="http://www.w3.org/2000/svg" xmlns:xlink="http://www.w3.org/1999/xlink" id="Outline_Final_icon" overflow="hidden"><defs></defs><path d="M15.76 12.92C17.26 12.92 18.48 14.14 18.48 15.64 18.48 17.14 17.26 18.36 15.76 18.36 14.26 18.36 13.04 17.14 13.04 15.64 13.04 14.14 14.26 12.92 15.76 12.92M15.76 10.92C13.15 10.92 11.04 13.03 11.04 15.64 11.04 18.25 13.15 20.36 15.76 20.36 18.37 20.36 20.48 18.25 20.48 15.64 20.48 13.03 18.37 10.92 15.76 10.92L15.76 10.92Z" fill="#7823DC"/><path d="M2.96 26.74 0 21.77 3.84 16.89 3.82 14.88 0 10.59 2.86 5.29 8.68 6.3 10.74 5.22 12.55 0 18.78 0 20.81 5.23 22.61 6.4 28.35 5.28 31.55 10.28 27.89 14.6 27.8 17.11 31.5 21.11 28.93 26.62 26.2 26.07 26.59 24.11 27.78 24.35 29.12 21.48 25.77 17.87 25.91 13.84 29.07 10.11 27.4 7.51 22.19 8.52 19.18 6.55 17.41 2 13.97 2 12.37 6.62 9.01 8.39 3.94 7.5 2.43 10.31 5.81 14.12 5.85 17.57 2.42 21.93 3.94 24.48 5.38 24.17 5.8 26.13 2.96 26.74Z" fill="#7823DC"/><path d="M9.57 31.72 11.69 24.97 19.87 24.97 21.91 31.72 24 31.72 21.35 22.97 10.22 22.97 7.47 31.72 9.57 31.72Z" fill="#7823DC"/></svg>