<svg viewBox="0 0 29.22 29.22" xmlns="http://www.w3.org/2000/svg" xmlns:xlink="http://www.w3.org/1999/xlink" id="Layer_5" overflow="hidden"><defs></defs><path d="M26.84 16.51 18.99 18.99 18.99 15.83 16.96 16.06 13.97 16.4 9.26 14.71 8.5 14.44 7.79 14.82 4.84 16.4 0 16.4 0 25.57 4.86 25.57 13.84 29.22 28.25 21.7 29.21 21.18 29.21 15.76 26.84 16.51 26.84 16.51ZM27.39 20.08 13.76 27.19 5.24 23.74 1.83 23.74 1.83 18.22 5.29 18.22 8.64 16.42 13.75 18.25 17.16 17.87 17.16 19.7 16.17 20.02 12.73 20.72 12.73 22.42 16.34 21.75 16.34 21.75C16.34 21.75 27.38 18.26 27.38 18.26L27.38 20.09 27.38 20.09Z" stroke-width="0" fill="#7823DC" fill-rule="evenodd"/><path d="M18.38 10.8 19.33 12.89C19 13.07 18.61 13.22 18.17 13.33 17.73 13.44 17.31 13.5 16.9 13.5 16.37 13.5 15.67 13.38 14.79 13.13 13.91 12.88 13.26 12.76 12.84 12.76 12.13 12.76 11.4 13.01 10.65 13.52L9.71 11.39C10.37 10.92 10.85 10.41 11.14 9.87 11.43 9.33 11.57 8.82 11.57 8.34 11.57 8.18 11.56 8.01 11.53 7.84L9.7 7.84 9.7 5.9 11.08 5.9C10.84 5.21 10.72 4.51 10.72 3.8 10.72 3.16 10.89 2.55 11.24 1.97 11.59 1.39 12.08 0.95 12.72 0.65 13.36 0.35 14.06 0.2 14.81 0.2 15.96 0.2 16.88 0.49 17.57 1.07 18.26 1.65 18.67 2.49 18.83 3.58L16.45 3.93C16.34 3.3 16.14 2.85 15.84 2.58 15.54 2.31 15.18 2.17 14.74 2.17 14.27 2.17 13.88 2.33 13.57 2.64 13.26 2.95 13.1 3.35 13.1 3.82 13.1 4.07 13.14 4.39 13.23 4.8 13.31 5.2 13.42 5.57 13.54 5.91L16.28 5.91 16.28 7.85 13.94 7.85C13.96 7.98 13.97 8.11 13.97 8.24 13.97 8.7 13.88 9.13 13.71 9.52 13.54 9.91 13.17 10.43 12.63 11.07 12.95 10.91 13.36 10.82 13.84 10.82 14.05 10.82 14.23 10.83 14.39 10.86 14.47 10.87 14.71 10.93 15.11 11.03 15.82 11.21 16.3 11.3 16.56 11.3 17.02 11.3 17.61 11.14 18.35 10.81Z" stroke-width="0" fill="#7823DC"/></svg>