<svg viewBox="0 0 32 31.93" xmlns="http://www.w3.org/2000/svg" xmlns:xlink="http://www.w3.org/1999/xlink" id="Layer_1" overflow="hidden"><style>
.MsftOfcThm_Text2_Fill_v2 {
 fill:#7823DC; 
}
</style>
<defs></defs><circle cx="5.62" cy="27.55" r="1" class="MsftOfcThm_Text2_Fill_v2" stroke-width="0" fill="#7823DC"/><circle cx="11.38" cy="27.55" r="1" class="MsftOfcThm_Text2_Fill_v2" stroke-width="0" fill="#7823DC"/><circle cx="17.15" cy="27.55" r="1" class="MsftOfcThm_Text2_Fill_v2" stroke-width="0" fill="#7823DC"/><path d="M18.31 31.93 4.46 31.93C1.96 31.93 0 30.01 0 27.55 0 25.09 1.96 23.17 4.46 23.17L18.31 23.17C20.81 23.17 22.77 25.09 22.77 27.55 22.77 30.01 20.81 31.93 18.31 31.93ZM4.46 25.17C3.06 25.17 2 26.19 2 27.55 2 28.91 3.06 29.93 4.46 29.93L18.31 29.93C19.71 29.93 20.77 28.91 20.77 27.55 20.77 26.19 19.71 25.17 18.31 25.17L4.46 25.17Z" class="MsftOfcThm_Text2_Fill_v2" stroke-width="0" fill="#7823DC"/><path d="M12.38 21.55 0 21.55 0 9.17 12.38 9.17 12.38 21.55ZM2 19.55 10.38 19.55 10.38 11.17 2 11.17 2 19.55Z" class="MsftOfcThm_Text2_Fill_v2" stroke-width="0" fill="#7823DC"/><rect x="11.38" y="19.55" width="4.62" height="2" class="MsftOfcThm_Text2_Fill_v2" stroke-width="0" fill="#7823DC"/><path d="M12.08 10.93 11.95 8.93 21.87 8.31 23.05 3.68 24.98 4.18 23.44 10.22 12.08 10.93Z" class="MsftOfcThm_Text2_Fill_v2" stroke-width="0" fill="#7823DC"/><path d="M11.98 18.73 10.79 17.13 29.12 3.43 28.3 2.5 11.84 11.05 10.92 9.27 28.77 0 32 3.69 11.98 18.73Z" class="MsftOfcThm_Text2_Fill_v2" stroke-width="0" fill="#7823DC"/><path d="M28.69 23.85 28.01 23.85C26.19 23.85 24.7 22.37 24.7 20.54L24.7 18.39 28.01 18.39 28.01 20.39 26.7 20.39 26.7 20.54C26.7 21.26 27.29 21.85 28.01 21.85L28.69 21.85C29.41 21.85 30 21.26 30 20.54L30 3.69 32 3.69 32 20.55C32 22.37 30.52 23.86 28.69 23.86Z" class="MsftOfcThm_Text2_Fill_v2" stroke-width="0" fill="#7823DC"/></svg>