<svg viewBox="0 0 32 32" xmlns="http://www.w3.org/2000/svg" xmlns:xlink="http://www.w3.org/1999/xlink" overflow="hidden"><style>
.MsftOfcResponsive_Fill_7823dc {
 fill:#7823DC; 
}
</style>
<defs></defs><g id="Grid"><path d="M20.81 0 4 0 4 30.14C3.98894 31.1561 4.80372 31.9889 5.81986 31.9999 5.82324 32 5.82662 32 5.83 32L26.17 32C27.1862 31.9945 28.0055 31.1663 28.0001 30.1501 28.0001 30.1468 28 30.1434 28 30.14L28 7.21ZM26 30 6 30 6 2 20 2 26 8Z" class="MsftOfcResponsive_Fill_7823dc" fill="#7823DC"/><path d="M8 14.14 8 25.85C8.00547 27.0351 8.96486 27.9945 10.15 28L21.87 28C23.0496 27.989 24.0001 27.0296 24 25.85L24 14.14C23.9946 12.9643 23.0457 12.0109 21.87 12L10.15 12C8.96873 12.0054 8.01093 12.9588 8 14.14ZM10.15 14 12.59 14 12.59 15.7 10 15.7 10 14.14C10.0053 14.0611 10.0709 13.9998 10.15 14ZM14.59 15.71 14.59 14 17.43 14 17.43 15.7ZM10 25.85 10 23.62 13 23.62 13 26 10.15 26C10.0693 25.9951 10.0049 25.9307 10 25.85ZM18.18 26 15 26 15 23.62 18.1 23.62C18.1449 23.6374 18.1733 23.682 18.17 23.73ZM21.88 26 20.18 26 20.18 23.73C20.1856 22.5779 19.262 21.6364 18.11 21.62L10 21.62 10 17.7 22 17.7 22 25.85C22.0007 25.9256 21.945 25.9899 21.87 26ZM22 14.14 22 15.7 19.43 15.7 19.43 14 21.87 14C21.9413 14.0095 21.9958 14.0682 22 14.14Z" class="MsftOfcResponsive_Fill_7823dc" fill="#7823DC"/></g></svg>