<svg viewBox="0 0 32 32" xmlns="http://www.w3.org/2000/svg" xmlns:xlink="http://www.w3.org/1999/xlink" id="Layer_1" overflow="hidden"><g><defs><path d="M0 32 32 32 32 0 0 0 0 32Z" id="SVGID_1_" fill="#7823DC"/></defs><defs><path d="M0 0 32 0 32 32 0 32 0 0Z" id="SVGID_00000126297819318498332050000008607957743918618258_" fill="#7823DC"/></defs><clipPath id="SVGID_00000119808513981061918080000014713326287437169301_"><use width="100%" height="100%" xlink:href="#SVGID_1_" overflow="visible"></use></clipPath><clipPath id="SVGID_00000117648583137255757570000007890233353303750313_" clip-path="url(#SVGID_00000119808513981061918080000014713326287437169301_)"><use width="100%" height="100%" xlink:href="#SVGID_00000126297819318498332050000008607957743918618258_" overflow="visible"></use></clipPath><g clip-path="url(#SVGID_00000117648583137255757570000007890233353303750313_)"><defs><path d="M0 32 32 32 32 0 0 0 0 32Z" id="SVGID_00000098915865046639291590000016067418323718065808_" fill="#7823DC"/></defs><clipPath id="SVGID_00000179647810534395518690000014645435359362400955_"><use width="100%" height="100%" xlink:href="#SVGID_00000098915865046639291590000016067418323718065808_" overflow="visible"></use></clipPath><path d="M15.3 31.9 13.4 31.9 13.4 21.2 15.3 23.1 15.3 31.9 15.3 31.9 15.3 31.9Z" fill="#7823DC" clip-path="url(#SVGID_00000179647810534395518690000014645435359362400955_)"/><path d="M19.3 31.9 17.4 31.9 17.4 23.1 19.3 21.2 19.3 31.9 19.3 31.9 19.3 31.9Z" fill="#7823DC" clip-path="url(#SVGID_00000179647810534395518690000014645435359362400955_)"/><path d="M16.4 19.9 15 18.6 12.3 21.4 13.6 22.7 16.4 19.9 16.4 19.9 16.4 19.9 16.4 19.9Z" fill="#7823DC" clip-path="url(#SVGID_00000179647810534395518690000014645435359362400955_)"/><path d="M16.4 19.9 17.8 18.6 20.5 21.4 19.2 22.7 16.4 19.9 16.4 19.9 16.4 19.9 16.4 19.9Z" fill="#7823DC" clip-path="url(#SVGID_00000179647810534395518690000014645435359362400955_)"/><path d="M16.4 22.7 17.8 24.1 20.5 21.4 19.2 19.9 16.4 22.7 16.4 22.7 16.4 22.7 16.4 22.7Z" fill="#7823DC" clip-path="url(#SVGID_00000179647810534395518690000014645435359362400955_)"/><path d="M16.4 22.7 15 24.1 12.3 21.4 13.6 19.9 16.4 22.7 16.4 22.7 16.4 22.7 16.4 22.7Z" fill="#7823DC" clip-path="url(#SVGID_00000179647810534395518690000014645435359362400955_)"/><path d="M2.8 20.6 4.8 20.6 4.8 31.9 2.8 31.9 2.8 20.6 2.8 20.6Z" fill="#7823DC" clip-path="url(#SVGID_00000179647810534395518690000014645435359362400955_)"/><path d="M14 18.1 3.5 22.5 2.8 20.7 13.3 16.4 13.5 17 14 18.1 14 18.1 14 18.1Z" fill="#7823DC" clip-path="url(#SVGID_00000179647810534395518690000014645435359362400955_)"/><path d="M28 20.6 29.9 20.6 29.9 31.9 28 31.9 28 20.6 28 20.6Z" fill="#7823DC" clip-path="url(#SVGID_00000179647810534395518690000014645435359362400955_)"/><path d="M18.7 18.1 19.5 16.4 29.9 20.7 29.2 22.5 18.7 18.1 18.7 18.1Z" fill="#7823DC" clip-path="url(#SVGID_00000179647810534395518690000014645435359362400955_)"/><path d="M11.8 17.5 13.3 16.4 15.2 18.8 13.6 20 11.8 17.5 11.8 17.5Z" fill="#7823DC" clip-path="url(#SVGID_00000179647810534395518690000014645435359362400955_)"/><path d="M17.6 18.8 19.5 16.4 21 17.5 19.1 20 17.6 18.8 17.6 18.8Z" fill="#7823DC" clip-path="url(#SVGID_00000179647810534395518690000014645435359362400955_)"/></g></g><path d="M14.1 15.1 10.8 13.2 11.4 10.5C11.4 10.4 11.3 10.4 11.3 10.3L8.6 9.5 8.6 5.7 11.2 4.8C11.2 4.8 11.2 4.7 11.3 4.7 11.3 4.7 11.3 4.6 11.4 4.6L10.8 1.9 14.1 0 16.2 1.8C16.3 1.8 16.4 1.8 16.4 1.8L18.4 0 21.7 1.9 21.2 4.6C21.2 4.7 21.3 4.7 21.3 4.8L23.9 5.7 23.9 9.5 21.3 10.4C21.3 10.4 21.3 10.5 21.2 10.5L21.2 10.5C21.2 10.5 21.2 10.6 21.1 10.6L21.7 13.3 18.4 15.2 16.3 13.4C16.2 13.4 16.1 13.4 16.1 13.4L14.1 15.1 14.1 15.1 14.1 15.1ZM12.7 12.4 13.8 13 15.5 11.5 15.9 11.5C16.1 11.5 16.4 11.5 16.6 11.5L17 11.5 18.7 13 19.8 12.3 19.4 10.1 19.6 9.8C19.7 9.7 19.7 9.6 19.8 9.5 19.9 9.4 19.9 9.3 20 9.2L20.2 8.9 22.3 8.2 22.3 6.9 20.2 6.2 20 5.9C19.9 5.7 19.8 5.5 19.6 5.3L19.4 5 19.8 2.8 18.7 2.2 17 3.6 16.6 3.6C16.4 3.6 16.1 3.6 15.9 3.6L15.5 3.6 13.8 2.1 12.7 2.7 13.1 4.9 12.9 5.2C12.8 5.3 12.8 5.4 12.7 5.5 12.6 5.6 12.6 5.7 12.5 5.8L12.3 6.1 10.2 6.8 10.2 8.1 12.3 8.8 12.5 9.1C12.6 9.3 12.7 9.5 12.9 9.7L13.1 10 12.7 12.4 12.7 12.4 12.7 12.4Z" fill="#7823DC"/><circle cx="16.2" cy="7.5" r="1.5" fill="#7823DC"/></svg>