<svg width="36.5" height="36.5" viewBox="0 0 36.5 36.5" xmlns="http://www.w3.org/2000/svg" xmlns:xlink="http://www.w3.org/1999/xlink" overflow="hidden"><defs></defs><g><g><defs><path d="M0 36.5 36.5 36.5 36.5 0 0 0 0 36.5Z" id="SVGID_1_" fill="#7823DC"/></defs><clipPath id="SVGID_2_"><use width="100%" height="100%" xlink:href="#SVGID_1_"></use></clipPath><g clip-path="url(#SVGID_2_)"><defs><path d="M0 36.5 36.5 36.5 36.5 0 0 0 0 36.5Z" id="SVGID_3_" fill="#7823DC"/></defs><clipPath id="SVGID_4_"><use width="100%" height="100%" xlink:href="#SVGID_3_"></use></clipPath><path d="M25.1 27.4 25.1 22.8 22.8 25.1 22.8 27.4 25.1 27.4 25.1 27.4ZM34.2 27.4 34.2 25.1 31.9 22.8 31.9 27.4 34.2 27.4 34.2 27.4Z" fill="#7823DC" clip-path="url(#SVGID_4_)"/><path d="M29.7 20.5 27.4 20.5 25.1 22.8 31.9 22.8 29.7 20.5 29.7 20.5Z" fill="#7823DC" clip-path="url(#SVGID_4_)"/><path d="M13.7 27.4C13.7 27.5 13.7 27.5 13.7 27.6 13.7 28.4 13.4 29.1 12.9 29.7L18.2 29.7 18.2 32 4.6 32 4.6 29.7 7.6 29.7C7.1 29.1 6.8 28.3 6.8 27.6 6.8 27.5 6.8 27.5 6.8 27.5L2.3 27.5 2.3 34.4 20.5 34.4 20.5 32 16 27.4 13.7 27.4 13.7 27.4Z" fill="#7823DC" clip-path="url(#SVGID_4_)"/><path d="M13.7 27.4C13.7 25.5 12.2 24 10.3 24 8.4 24 6.9 25.5 6.9 27.4 6.9 27.5 6.9 27.5 6.9 27.6 6.9 29.5 8.4 31 10.3 31 12.2 31 13.7 29.5 13.7 27.6 13.7 27.5 13.7 27.4 13.7 27.4L13.7 27.4ZM10.3 26.4C10.9 26.4 11.4 26.8 11.4 27.4 11.4 27.5 11.4 27.5 11.4 27.6 11.4 28.2 10.9 28.7 10.3 28.7 9.7 28.7 9.2 28.2 9.2 27.6 9.2 27.5 9.2 27.5 9.2 27.4 9.2 26.8 9.7 26.4 10.3 26.4L10.3 26.4Z" fill="#7823DC" clip-path="url(#SVGID_4_)"/><path d="M9.1 12.5C9.1 13.1 8.6 13.6 8 13.6 7.4 13.6 6.9 13.1 6.9 12.5 6.9 11.9 7.4 11.4 8 11.4 8.6 11.4 9.1 11.9 9.1 12.5L9.1 12.5Z" fill="#7823DC" clip-path="url(#SVGID_4_)"/><path d="M29.6 6.9C29.6 7.5 29.1 8 28.5 8 27.9 8 27.4 7.5 27.4 6.9 27.4 6.3 27.9 5.8 28.5 5.8 29.1 5.8 29.6 6.2 29.6 6.9L29.6 6.9Z" fill="#7823DC" clip-path="url(#SVGID_4_)"/><path d="M11 25.6 13.7 27.4 11.1 13.3 4.4 14.5 7 28.7 8.8 26 7 16.4 9.3 15.9 11 25.6Z" fill="#7823DC" clip-path="url(#SVGID_4_)"/><path d="M3.3 10.1 28 2.3 28.7 4.5 3.9 12.2 3.3 10.1Z" fill="#7823DC" clip-path="url(#SVGID_4_)"/><path d="M27.4 9.1 29.6 9.1 29.6 20.7 27.4 20.7 27.4 9.1Z" fill="#7823DC" clip-path="url(#SVGID_4_)"/></g></g></g></svg>