<svg viewBox="0 0 31.98 32.06" xmlns="http://www.w3.org/2000/svg" xmlns:xlink="http://www.w3.org/1999/xlink" id="Layer_1" overflow="hidden"><style>
.MsftOfcResponsive_Fill_7823dc {
 fill:#7823DC; 
}
</style>
<defs></defs><path d="M16.28 32C13.1 32 10.15 30.48 8.18 27.83L7.88 27.42C6.62 25.69 6.04 24.9 1.3 24.3 1.13 24.28 0.98 24.22 0.84 24.12 0.09 23.58-0.2 22.2 0.17 21.03 0.47 20.09 1.44 18.51 4.54 18.51 5.82 18.51 7.47 19.03 8.64 19.47L8.64 3.21C8.64 1.64 9.76 0.28 11.25 0.04 12.17-0.11 13.1 0.15 13.8 0.75 14.49 1.34 14.89 2.2 14.89 3.11L14.89 10.67C15.42 10.52 16 10.5 16.56 10.65 17.51 10.89 18.26 11.59 18.63 12.49 19.93 12.2 21.33 12.83 21.99 13.95 23.29 14.02 24.43 14.91 24.81 16.16 24.94 16.49 25.01 16.84 25.01 17.18L25.01 24.66C25.01 24.83 25 25.01 24.97 25.18 24.33 29.07 20.6 32 16.29 32ZM2.03 22.38C6.97 23.06 7.95 24.13 9.49 26.24L9.79 26.64C11.38 28.78 13.75 30 16.29 30 19.63 30 22.51 27.79 23 24.85 23.01 24.78 23.01 24.72 23.01 24.66L23.01 17.18C23.01 17.08 22.99 16.98 22.94 16.88 22.92 16.84 22.91 16.8 22.9 16.76 22.77 16.28 22.32 15.94 21.82 15.94 21.75 15.94 21.66 15.95 21.57 15.97 21.05 16.09 20.52 15.77 20.38 15.24 20.25 14.75 19.81 14.4 19.3 14.4 18.98 14.4 18.74 14.54 18.59 14.66 18.33 14.87 17.97 14.94 17.65 14.84 17.24 14.71 16.88 14.3 16.88 13.86 16.88 13.27 16.6 12.71 16.07 12.57 15.45 12.41 15 12.74 14.8 13.08 14.57 13.46 14.11 13.64 13.68 13.53 13.25 13.41 12.89 13 12.89 12.55L12.89 3.11C12.89 2.79 12.75 2.48 12.5 2.27 12.24 2.05 11.91 1.96 11.57 2.02 11.05 2.1 10.64 2.63 10.64 3.22L10.64 20.98C10.64 21.32 10.47 21.64 10.18 21.82 9.89 22 9.53 22.03 9.22 21.89 8.39 21.51 5.94 20.52 4.54 20.52 3.69 20.52 2.58 20.68 2.17 21.43 1.98 21.77 1.99 22.14 2.04 22.38ZM2.1 22.59 2.1 22.59Z" class="MsftOfcResponsive_Fill_7823dc" fill="#7823DC"/><rect x="13.37" y="16.43" width="29.26" height="2" class="MsftOfcResponsive_Fill_7823dc" fill="#7823DC" transform="matrix(6.12323e-17 -1 1 6.12323e-17 10.57 45.43)"/><path d="M30.3 7.45 28 3.9 25.69 7.45 24.01 6.36 28 0.22 31.98 6.36 30.3 7.45Z" class="MsftOfcResponsive_Fill_7823dc" fill="#7823DC"/></svg>