<svg viewBox="0 0 32 32" xmlns="http://www.w3.org/2000/svg" xmlns:xlink="http://www.w3.org/1999/xlink" id="Layer_1" xml:space="preserve" overflow="hidden"><rect x="0" y="30" width="32" height="2" fill="#7823DC" fill-rule="evenodd" clip-rule="evenodd"/><path d="M29.6 24.6C29.4 24.6 29.1 24.6 28.9 24.6 27.8 24.6 26.3 24.4 24.8 23.6 22.4 22.3 21.7 21.6 19.9 21.6 19 21.6 17.6 22.1 16 24.8 14.4 22.1 13 21.6 12.1 21.6 10.4 21.6 9.6 22.3 7.2 23.6 5.7 24.4 4.2 24.6 3.1 24.6 2.8 24.6 2.6 24.6 2.4 24.6L0 30 0.1 30C1.6 30 8.6 28.9 10.4 27.9 10.8 27.7 11.1 27.6 11.5 27.6 13.3 27.6 14.6 30 16 30 17.4 30 18.7 27.6 20.5 27.6 20.8 27.6 21.2 27.7 21.6 27.9 23.4 28.9 30.3 30 31.9 30 32 30 32 30 32 30L29.6 24.6ZM14 26.5C13.3 26 12.5 25.7 11.5 25.7 10.8 25.7 10.1 25.9 9.5 26.2 8.6 26.7 5.7 27.3 3.3 27.7L3.8 26.7C5.4 26.6 6.9 26.2 8.3 25.4 8.8 25.1 9.2 24.9 9.5 24.7 10.9 23.8 11.2 23.6 12.1 23.6 12.4 23.6 13.1 24 14 25.4L14 26.5ZM22.6 26.2C21.9 25.8 21.3 25.7 20.6 25.7 19.6 25.7 18.8 26.1 18.1 26.5L18.1 25.4C18.9 24 19.6 23.6 19.9 23.6 20.7 23.6 21.1 23.8 22.6 24.7 23 24.9 23.4 25.1 23.8 25.4 25.2 26.2 26.7 26.6 28.3 26.7L28.8 27.7C26.4 27.3 23.5 26.7 22.6 26.2Z" fill="#7823DC"/><g><path d="M15 21.9C15.3 19.3 17.1 12.6 19.1 8.6 20.5 5.9 22.2 3.5 24.3 1.4L25.7 0.1 26 2.5C26.4 8.4 26.6 12.7 24.7 14.7 23.7 15.7 20.4 17.1 18.2 16.2 17.6 18.2 17.3 19.5 17.2 20.6M18.8 14.4C19.9 15 23.3 13.3 23.3 13.3 23.3 13.3 24.4 8.7 24.2 4.5 22.9 6 21.8 7.7 20.9 9.5 20.1 11 19.4 12.7 18.8 14.4Z" fill="#7823DC"/><rect x="21.9" y="9.5" width="3.2" height="2" fill="#7823DC" transform="matrix(0.9486 -0.3164 0.3164 0.9486 -2.1146 7.9748)"/></g></svg>