<svg viewBox="0 0 32 32" xmlns="http://www.w3.org/2000/svg" xmlns:xlink="http://www.w3.org/1999/xlink" id="Layer_1" overflow="hidden"><style>
.MsftOfcResponsive_Fill_7823dc {
 fill:#7823DC; 
}
</style>
<path d="M23 32 9 32C4.04 32 0 28.64 0 24.5 0 20.36 4.04 17 9 17L23 17C27.96 17 32 20.36 32 24.5 32 28.64 27.96 32 23 32ZM9 19C5.14 19 2 21.47 2 24.5 2 27.53 5.14 30 9 30L23 30C26.86 30 30 27.53 30 24.5 30 21.47 26.86 19 23 19L9 19Z" class="MsftOfcResponsive_Fill_7823dc" fill="#7823DC"/><path d="M22 28.5 10 28.5 10 20.5 22 20.5 22 28.5ZM12 26.5 20 26.5 20 22.5 12 22.5 12 26.5Z" class="MsftOfcResponsive_Fill_7823dc" fill="#7823DC"/><rect x="5.48" y="21.99" width="2" height="4.68" class="MsftOfcResponsive_Fill_7823dc" fill="#7823DC"/><rect x="3.96" y="23.34" width="5.04" height="2" class="MsftOfcResponsive_Fill_7823dc" fill="#7823DC"/><circle cx="24.5" cy="24.5" r="1" class="MsftOfcResponsive_Fill_7823dc" fill="#7823DC"/><circle cx="27.5" cy="24.5" r="1" class="MsftOfcResponsive_Fill_7823dc" fill="#7823DC"/><circle cx="26" cy="23" r="1" class="MsftOfcResponsive_Fill_7823dc" fill="#7823DC"/><circle cx="26" cy="26" r="1" class="MsftOfcResponsive_Fill_7823dc" fill="#7823DC"/><g><path d="M23 15 9 15C4.04 15 0 11.64 0 7.5 0 3.36 4.04 0 9 0L23 0C27.96 0 32 3.36 32 7.5 32 11.64 27.96 15 23 15ZM9 2C5.14 2 2 4.47 2 7.5 2 10.53 5.14 13 9 13L23 13C26.86 13 30 10.53 30 7.5 30 4.47 26.86 2 23 2L9 2Z" class="MsftOfcResponsive_Fill_7823dc" fill="#7823DC"/><path d="M22 11.5 10 11.5 10 3.5 22 3.5 22 11.5ZM12 9.5 20 9.5 20 5.5 12 5.5 12 9.5Z" class="MsftOfcResponsive_Fill_7823dc" fill="#7823DC"/><rect x="24.52" y="4.99" width="2" height="4.68" class="MsftOfcResponsive_Fill_7823dc" fill="#7823DC"/><rect x="23" y="6.34" width="5.04" height="2" class="MsftOfcResponsive_Fill_7823dc" fill="#7823DC"/><circle cx="7.5" cy="7.5" r="1" class="MsftOfcResponsive_Fill_7823dc" fill="#7823DC"/><circle cx="4.5" cy="7.5" r="1" class="MsftOfcResponsive_Fill_7823dc" fill="#7823DC"/><circle cx="6" cy="6" r="1" class="MsftOfcResponsive_Fill_7823dc" fill="#7823DC"/><circle cx="6" cy="9" r="1" class="MsftOfcResponsive_Fill_7823dc" fill="#7823DC"/></g></svg>