<svg viewBox="0 0 32 32" xmlns="http://www.w3.org/2000/svg" xmlns:xlink="http://www.w3.org/1999/xlink" id="Layer_1" xml:space="preserve" overflow="hidden"><path d="M29.8 12 29.8 11.9C29.7 11.3 29.5 10.8 29.3 10.2L29.3 10.1C29.2 9.8 29.1 9.5 29 9.3 26.6 3.8 21.3 0 15.1 0 6.8 0 0 6.9 0 15.5 0 20.9 2.7 25.7 6.9 28.5L8.1 26.9C4.4 24.5 2 20.2 2 15.5 2 8 7.9 2 15.1 2 20.7 2 25.6 5.7 27.4 10.8 27.4 10.9 27.5 11 27.5 11.2 27.6 11.6 27.7 12 27.8 12.4L27.8 12.5C28.4 14.7 29 17.4 29.4 19.3 29.4 19.5 29.5 19.7 29.5 19.8 29.5 19.6 29.6 19.4 29.6 19.3 29.9 18.1 30.1 16.8 30.1 15.5 30.2 14.3 30.1 13.1 29.8 12Z" fill="#7823DC"/><path d="M32 22.3 26.4 22.3 26.4 32 17 32 17 30 24.3 30 24.3 20.3 29.5 20.3C29.5 20.1 29.4 19.9 29.4 19.7 29 17.8 28.3 14.6 27.7 12.2L27.7 12.1C27.6 11.7 27.5 11.3 27.4 10.9 27.4 10.8 27.3 10.6 27.3 10.5 27.2 10.2 27.1 9.8 27 9.6L28.8 8.9 28.8 9.9C28.9 10.2 29 9.5 29.1 9.8L29.1 9.9C29.3 10.4 29.4 11 29.6 11.6L29.6 11.7C30.6 15.5 31.6 20.9 31.7 21.2L32 22.3Z" fill="#7823DC"/><path d="M13.9 19.5 16 19.5 16 25.5 13.9 25.5 13.9 19.5Z" fill="#7823DC" fill-rule="evenodd" clip-rule="evenodd"/><path d="M15 6.1C15.1 6.1 15.1 6.1 15.2 6.1L15.4 6.1 15.6 6.1C15.7 6.1 15.8 6.1 15.9 6.1L16 6.1 16 6.1C16.2 6.1 16.4 6.2 16.7 6.2L16.8 6.2C17 6.2 17.2 6.3 17.4 6.4 17.5 6.4 17.5 6.4 17.6 6.5 17.8 6.6 17.9 6.6 18.1 6.7L18.2 6.7C18.3 6.7 18.3 6.7 18.4 6.8 18.5 6.9 18.7 6.9 18.8 7 19 7.1 19.1 7.2 19.3 7.3L19.4 7.4 19.5 7.5C19.6 7.6 19.7 7.7 19.8 7.8 19.9 7.9 19.9 7.9 20 8 20.1 8.1 20.2 8.2 20.3 8.3L20.4 8.4 20.4 8.4 20.4 8.4C20.5 8.5 20.6 8.6 20.7 8.7 20.8 8.8 20.9 8.9 20.9 9L20.9 9C21 9.1 21.1 9.2 21.2 9.4 21.3 9.5 21.4 9.7 21.5 9.8 21.5 9.9 21.6 9.9 21.6 10L21.6 10C21.7 10.2 21.8 10.3 21.9 10.5L21.9 10.6 21.9 10.7C22.1 11.2 22.3 11.6 22.4 12.1L22.4 12.1C22.4 12.3 22.5 12.4 22.5 12.6 22.5 12.7 22.5 12.7 22.5 12.8 22.5 13.1 22.6 13.3 22.6 13.6 22.6 13.7 22.6 13.7 22.6 13.8L22.6 13.8C22.6 13.9 22.6 14 22.6 14.1 22.6 14.4 22.6 14.7 22.5 14.9 22.5 15 22.5 15 22.5 15.1L22.5 15.3C22.5 15.5 22.4 15.8 22.4 16 22.4 16.1 22.3 16.2 22.3 16.3L22.3 16.4C22.2 16.6 22.1 16.8 22.1 17 22 17.1 22 17.3 21.9 17.4 21.8 17.6 21.7 17.8 21.6 17.9 21.5 18 21.5 18.1 21.4 18.3 21.3 18.4 21.2 18.6 21 18.8L20.9 18.9C20.8 19 20.8 19 20.7 19.1 20.6 19.3 20.4 19.4 20.2 19.6 20.1 19.6 20.1 19.7 20 19.7L19.9 19.8 19.8 19.9C18.1 21.3 17.1 23.3 16.9 25.3L13 25.3C12.8 23.1 11.8 21.3 10.1 19.9L10 19.7 9.9 19.6C9.8 19.6 9.8 19.5 9.7 19.5 9.5 19.3 9.3 19.2 9.2 19 9.1 18.9 9.1 18.9 9 18.8L8.9 18.7C8.7 18.5 8.6 18.3 8.5 18.2 8.5 18 8.5 17.9 8.4 17.8 8.3 17.6 8.2 17.4 8.1 17.3 8 17.2 8 17 7.9 16.9 7.8 16.7 7.8 16.5 7.7 16.3L7.7 16.2C7.7 16.1 7.6 16 7.6 15.9 7.5 15.7 7.4 15.4 7.4 15.2L7.4 15C7.4 14.9 7.4 14.9 7.4 14.8 7.4 14.5 7.3 14.2 7.3 14 7.3 13.9 7.3 13.8 7.3 13.8 7.3 13.7 7.3 13.7 7.3 13.6 7.3 13.3 7.3 13.1 7.4 12.8 7.4 12.7 7.4 12.7 7.4 12.6 7.4 12.4 7.5 12.3 7.5 12.1L7.5 12.1C7.6 11.6 7.8 11.1 8 10.7L8 10.6 8 10.5C8.1 10.3 8.2 10.2 8.3 10L8.3 10 8.3 10C8.3 9.9 8.4 9.9 8.4 9.8 8.5 9.7 8.6 9.5 8.7 9.4 8.7 9.2 8.8 9.1 8.9 9L8.9 9C9 8.9 9 8.8 9.1 8.7 9.2 8.6 9.3 8.5 9.4 8.4L9.4 8.4 9.4 8.4 9.5 8.3C9.6 8.2 9.7 8.1 9.8 8 9.9 7.9 9.9 7.9 10 7.8 10.1 7.7 10.2 7.6 10.3 7.5L10.4 7.4 10.5 7.3C10.7 7.2 10.8 7.1 11 7 11.1 6.9 11.3 6.8 11.4 6.8 11.5 6.8 11.5 6.8 11.6 6.7L11.7 6.7C11.9 6.6 12 6.6 12.2 6.5 12.3 6.5 12.3 6.5 12.4 6.4 12.6 6.3 12.8 6.3 13 6.2L13.1 6.2C13.3 6.1 13.6 6.1 13.8 6.1L13.8 6.1 13.9 6.1C14 6.1 14.1 6.1 14.2 6.1L14.4 6.1 14.6 6.1C14.8 6.1 14.9 6.1 15 6.1M15 4.3C14.8 4.3 14.7 4.3 14.5 4.3 14.3 4.3 14.1 4.3 13.9 4.3L13.9 4.3C13.6 4.3 13.3 4.4 13 4.5 12.9 4.5 12.9 4.5 12.9 4.5 12.6 4.6 12.4 4.6 12.2 4.7 12.1 4.7 12 4.8 11.9 4.8 11.7 4.9 11.5 4.9 11.3 5 11.2 4.9 11.1 5 11 5 10.7 5.2 10.5 5.3 10.3 5.4 10.1 5.5 9.9 5.6 9.7 5.8 9.6 5.8 9.5 5.9 9.4 6 9.2 6.1 9.1 6.2 9 6.3 8.9 6.4 8.8 6.4 8.7 6.5 8.6 6.6 8.4 6.7 8.3 6.9 8.2 6.9 8.2 7 8.1 7.1 7.9 7.2 7.8 7.3 7.7 7.5 7.6 7.6 7.5 7.8 7.4 7.9 7.2 8.1 7.1 8.2 7 8.4 6.9 8.5 6.8 8.7 6.7 8.9 6.6 9 6.6 9 6.5 9.1 6.4 9.3 6.3 9.5 6.2 9.7 6.2 9.8 6.1 9.8 6.1 9.9 5.8 10.5 5.6 11.1 5.5 11.7L5.5 11.7C5.5 11.9 5.4 12.1 5.4 12.4 5.4 12.5 5.4 12.5 5.4 12.6 5.4 12.9 5.3 13.2 5.3 13.6 5.3 13.7 5.3 13.7 5.3 13.8L5.3 13.8C5.3 13.9 5.3 14 5.3 14.1 5.3 14.5 5.3 14.8 5.4 15.2 5.4 15.3 5.5 15.5 5.5 15.7 5.6 16 5.6 16.3 5.7 16.5 5.7 16.7 5.8 16.8 5.9 17 6 17.3 6.1 17.5 6.2 17.7 6.3 17.9 6.4 18 6.4 18.2 6.5 18.4 6.6 18.7 6.8 18.9 6.9 19 7 19.2 7.1 19.3 7.3 19.5 7.4 19.7 7.6 19.9 7.7 20 7.8 20.2 7.9 20.3 8.1 20.5 8.3 20.7 8.5 20.9 8.6 21 8.7 21.1 8.8 21.2 8.8 21.2 8.8 21.2 8.9 21.3 10.3 22.4 11.1 24.1 11.2 25.8L11.2 27.2 19 27.2 19 25.8C19 24 19.8 22.3 21.2 21.3 21.2 21.3 21.2 21.3 21.3 21.2 21.4 21.1 21.5 21 21.6 20.9 21.8 20.7 22 20.5 22.2 20.3 22.3 20.2 22.4 20 22.5 19.9 22.7 19.7 22.8 19.5 23 19.3 23.1 19.2 23.2 19 23.3 18.9 23.4 18.7 23.6 18.5 23.7 18.2 23.8 18 23.9 17.9 23.9 17.7 24 17.5 24.1 17.2 24.2 17 24.3 16.8 24.3 16.7 24.4 16.5 24.5 16.2 24.5 15.9 24.6 15.7 24.6 15.5 24.7 15.4 24.7 15.2 24.7 14.8 24.8 14.5 24.8 14.1 24.8 14 24.8 13.9 24.8 13.8L24.8 13.8C24.8 13.7 24.8 13.7 24.8 13.6 24.8 13.3 24.8 13 24.7 12.6 24.7 12.5 24.7 12.5 24.7 12.4 24.7 12.2 24.6 11.9 24.6 11.7L24.6 11.7C24.5 11.1 24.3 10.5 24 9.9 24 9.8 23.9 9.8 23.9 9.7 23.8 9.5 23.7 9.3 23.6 9.1 23.6 9 23.5 8.9 23.5 8.8 23.4 8.6 23.3 8.5 23.2 8.3 23 8.1 22.9 8 22.8 7.8 22.7 7.7 22.6 7.5 22.5 7.4 22.4 7.3 22.3 7.1 22.1 7 22 6.9 21.9 6.8 21.9 6.8 21.8 6.7 21.6 6.6 21.5 6.4 21.4 6.3 21.3 6.3 21.2 6.2 21.1 6.1 21 6 20.9 5.9 20.8 5.8 20.7 5.8 20.6 5.7 20.4 5.6 20.2 5.4 20 5.3 19.8 5.2 19.7 5.1 19.5 5 19.4 5 19.3 4.9 19.2 4.9 19 4.8 18.8 4.7 18.6 4.7 18.5 4.7 18.4 4.6 18.3 4.6 18.1 4.5 17.8 4.5 17.6 4.4 17.5 4.4 17.5 4.4 17.4 4.4 16.7 4.4 16.4 4.3 16.1 4.3L16.1 4.3C15.9 4.3 15.7 4.3 15.5 4.3 15.3 4.3 15.1 4.3 15 4.3L15 4.3 15 4.3 15 4.3Z" fill="#7823DC" fill-rule="evenodd" clip-rule="evenodd"/><path d="M16.9 19.4 13 19.4 11.1 17.4 18.8 17.4 16.9 19.4 16.9 19.4 16.9 19.4Z" fill="#7823DC" fill-rule="evenodd" clip-rule="evenodd"/></svg>