<svg width="36.5" height="36.6" viewBox="0 0 36.5 36.6" xmlns="http://www.w3.org/2000/svg" xmlns:xlink="http://www.w3.org/1999/xlink" overflow="hidden"><defs></defs><g><g><defs><path d="M0 36.5 36.5 36.5 36.5 0 0 0 0 36.5Z" id="SVGID_1_" fill="#7823DC"/></defs><clipPath id="SVGID_2_"><use width="100%" height="100%" xlink:href="#SVGID_1_"></use></clipPath><g clip-path="url(#SVGID_2_)"><defs><path d="M0 36.5 36.5 36.5 36.5 0 0 0 0 36.5Z" id="SVGID_3_" fill="#7823DC"/></defs><clipPath id="SVGID_4_"><use width="100%" height="100%" xlink:href="#SVGID_3_"></use></clipPath><path d="M18.2 36.6 7.9 22 6.2 23.5 15.5 36.6 18.2 36.6 18.2 36.6Z" fill="#7823DC" clip-path="url(#SVGID_4_)"/><path d="M18.2 36.6 28.6 22 30.3 23.5 21 36.6 18.2 36.6 18.2 36.6Z" fill="#7823DC" clip-path="url(#SVGID_4_)"/><path d="M30.3 23.5 28.4 22.2C32.4 16.6 31.1 8.7 25.5 4.7 22.8 2.7 19.5 2 16.2 2.5 12.9 3 10 4.8 8.1 7.5 5 11.9 4.9 17.7 8 22.1L8 22.2 6.1 23.5 6 23.4C2.5 18.2 2.5 11.3 6.2 6.2 8.5 3 11.9 0.8 15.8 0.2 19.7-0.4 23.6 0.5 26.8 2.8 33.5 7.6 35.1 16.9 30.3 23.5Z" fill="#7823DC" clip-path="url(#SVGID_4_)"/><path d="M18.2 22.9C13.8 22.9 10.2 19.3 10.2 14.9 10.2 10.5 13.8 6.9 18.2 6.9 22.6 6.9 26.2 10.5 26.2 14.9 26.2 19.3 22.6 22.9 18.2 22.9ZM18.2 9.1C15.1 9.1 12.5 11.7 12.5 14.8 12.5 17.9 15.1 20.5 18.2 20.5 21.3 20.5 23.9 17.9 23.9 14.8 23.9 11.7 21.4 9.1 18.2 9.1Z" fill="#7823DC" clip-path="url(#SVGID_4_)"/></g></g></g></svg>