<svg viewBox="0 0 32 32" xmlns="http://www.w3.org/2000/svg" xmlns:xlink="http://www.w3.org/1999/xlink" xml:space="preserve" overflow="hidden"><style>
.MsftOfcResponsive_Fill_7823dc {
 fill:#7823DC; 
}
</style>
<g id="Layer_3"></g><g id="Layer_1"><path d="M0.01 0.01 0.01 27.33 2.29 29.67 2.29 2.29 29.71 2.29 29.71 29.71 2.33 29.71 4.56 31.99 31.99 31.99 31.99 0.01Z" class="st1 MsftOfcResponsive_Fill_7823dc" fill="#7823DC"/><path d="M16 27.34C9.68 27.34 4.53 22.19 4.53 15.87 4.53 9.55 9.68 4.4 16 4.4 22.33 4.4 27.47 9.55 27.47 15.87 27.47 22.2 22.32 27.34 16 27.34ZM16 6.4C10.78 6.4 6.53 10.65 6.53 15.87 6.53 21.09 10.78 25.34 16 25.34 21.22 25.34 25.47 21.09 25.47 15.87 25.47 10.65 21.22 6.4 16 6.4Z" class="st1 MsftOfcResponsive_Fill_7823dc" fill="#7823DC"/><path d="M16 23.48C11.8 23.48 8.39 20.07 8.39 15.87 8.39 11.67 11.8 8.27 16 8.27 20.2 8.27 23.61 11.68 23.61 15.88 23.61 20.08 20.2 23.48 16 23.48ZM16 10.27C12.91 10.27 10.39 12.79 10.39 15.88 10.39 18.97 12.91 21.49 16 21.49 19.09 21.49 21.61 18.97 21.61 15.88 21.61 12.79 19.09 10.27 16 10.27Z" class="st1 MsftOfcResponsive_Fill_7823dc" fill="#7823DC"/><path d="M16 19.95C13.75 19.95 11.93 18.12 11.93 15.88 11.93 13.64 13.75 11.8 16 11.8 18.25 11.8 20.07 13.63 20.07 15.87 20.07 18.11 18.25 19.95 16 19.95ZM16 13.8C14.86 13.8 13.93 14.73 13.93 15.87 13.93 17.01 14.86 17.94 16 17.94 17.14 17.94 18.07 17.01 18.07 15.87 18.07 14.73 17.14 13.8 16 13.8Z" class="st1 MsftOfcResponsive_Fill_7823dc" fill="#7823DC"/><rect x="5.53" y="14.87" width="20.94" height="2" class="st1 MsftOfcResponsive_Fill_7823dc" fill="#7823DC"/><rect x="15" y="4.88" width="2" height="21.43" class="st1 MsftOfcResponsive_Fill_7823dc" fill="#7823DC"/></g><g id="Layer_2"></g></svg>