<svg viewBox="0 0 32 32" xmlns="http://www.w3.org/2000/svg" xmlns:xlink="http://www.w3.org/1999/xlink" id="Layer_1" overflow="hidden"><style>
.MsftOfcResponsive_Fill_7823dc {
 fill:#7823DC; 
}
</style>
<g><path d="M16 13.1C13.4 13.1 11.4 15.2 11.4 17.7 11.4 20.3 13.5 22.3 16 22.3 18.6 22.3 20.6 20.2 20.6 17.7 20.6 15.2 18.5 13.1 16 13.1L16 13.1ZM16 20.3C14.6 20.3 13.5 19.2 13.5 17.8 13.5 16.4 14.6 15.3 16 15.3 17.4 15.3 18.5 16.4 18.5 17.8 18.5 19.2 17.4 20.3 16 20.3L16 20.3Z" class="MsftOfcResponsive_Fill_7823dc" fill="#7823DC" fill-rule="evenodd" clip-rule="evenodd"/><path d="M11.3 6.2 11.3 7.4 5.6 7.4 5.6 9.4 7.4 9.4 7.4 17.7C7.4 18.7 7.6 19.6 7.9 20.5L6 20.5 6 20.5 6 20.5 3.9 26.8 3.9 26.8 3.6 27.8 7.1 29 4.3 31.8 7.1 31.8 9.2 29.7 16 32 16 32 16 32 22.8 29.7 24.9 31.8 27.7 31.8 24.8 29 28.4 27.8 28.4 27.8 28.4 27.8 27.8 25.9 27.8 25.9 26 20.5 26 20.5 26 20.5 23.9 20.5C24.2 19.6 24.4 18.7 24.4 17.7 24.4 17.5 24.4 17.4 24.4 17.2L24.4 17.2 24.4 9.4 26.5 9.4 26.5 7.4 20.8 7.4 20.8 6.2M18.8 6.2 18.8 9.8C17.9 9.5 16.9 9.3 15.9 9.3 15 9.3 14.1 9.4 13.3 9.7L13.3 6.2 18.8 6.2 18.8 6.2 18.8 6.2ZM9.4 27.7 6.1 26.6 7.5 22.6 9 22.6C9.1 22.8 9.3 23 9.4 23.1L9.4 27.7 9.4 27.7 9.4 27.7ZM9.5 9.4 11.3 9.4 11.3 10.7C10.6 11.1 10 11.7 9.5 12.3L9.5 9.4 9.5 9.4 9.5 9.4ZM15 29.6 11.4 28.4 11.4 24.9C12.5 25.6 13.7 26 15 26.2L15 29.6 15 29.6 15 29.6ZM20.5 28.3 16.9 29.5 16.9 26C18.2 25.8 19.4 25.4 20.5 24.7L20.5 28.3 20.5 28.3 20.5 28.3ZM15.9 24.1C12.4 24.1 9.5 21.2 9.5 17.7 9.5 14.2 12.4 11.3 15.9 11.3 19.4 11.3 22.3 14.2 22.3 17.7 22.3 21.3 19.5 24.1 15.9 24.1L15.9 24.1ZM22.4 12.3C21.9 11.8 21.4 11.3 20.8 10.8L20.8 9.4 22.4 9.4 22.4 12.3 22.4 12.3 22.4 12.3ZM22.5 27.6 22.5 22.9C22.6 22.8 22.7 22.6 22.8 22.5L24.5 22.5 25.9 26.5 22.5 27.6 22.5 27.6 22.5 27.6Z" class="MsftOfcResponsive_Fill_7823dc" fill="#7823DC" fill-rule="evenodd" clip-rule="evenodd"/></g><path d="M21 2 21 4.2 11 4.2 11 2 21 2M23 0 9 0 9 6.2 23 6.2 23 0 23 0Z" class="MsftOfcResponsive_Fill_7823dc" fill="#7823DC"/></svg>