<svg viewBox="0 0 32.08 31.97" xmlns="http://www.w3.org/2000/svg" xmlns:xlink="http://www.w3.org/1999/xlink" id="Layer_1" overflow="hidden"><style>
.MsftOfcThm_Text2_Fill_v2 {
 fill:#7823DC; 
}
</style>
<path d="M21.08 16.07 11 16.07 11 15.07C11 13.72 11.52 12.46 12.48 11.51 13.43 10.56 14.7 10.03 16.05 10.03 17.4 10.03 18.66 10.55 19.61 11.51 20.56 12.46 21.09 13.73 21.09 15.07L21.09 16.07ZM13.16 14.07 18.91 14.07C18.76 13.64 18.52 13.25 18.19 12.92 17.06 11.79 15.02 11.79 13.89 12.92 13.56 13.25 13.32 13.64 13.17 14.07Z" class="MsftOfcThm_Text2_Fill_v2" fill="#7823DC"/><path d="M16.04 12.03C14.96 12.03 13.95 11.61 13.19 10.85 12.43 10.09 12.01 9.08 12.01 8 12.01 6.92 12.43 5.91 13.19 5.15 14.71 3.63 17.37 3.63 18.89 5.15 19.65 5.91 20.07 6.92 20.07 8 20.07 9.08 19.65 10.09 18.89 10.85 18.13 11.61 17.12 12.03 16.04 12.03ZM16.04 5.97C15.5 5.97 14.99 6.18 14.6 6.57 14.21 6.96 14.01 7.46 14.01 8.01 14.01 8.56 14.22 9.06 14.61 9.45 15.38 10.22 16.71 10.22 17.48 9.45 17.86 9.07 18.07 8.56 18.07 8.01 18.07 7.46 17.86 6.96 17.48 6.57 17.1 6.19 16.59 5.98 16.04 5.98Z" class="MsftOfcThm_Text2_Fill_v2" fill="#7823DC"/><path d="M5.93 28.03C4.85 28.03 3.84 27.61 3.08 26.85 2.32 26.09 1.9 25.08 1.9 24 1.9 22.92 2.32 21.91 3.08 21.15 3.84 20.39 4.85 19.97 5.93 19.97 7.01 19.97 8.02 20.39 8.78 21.15 9.54 21.91 9.96 22.92 9.96 24 9.96 25.08 9.54 26.09 8.78 26.85 8.02 27.61 7.01 28.03 5.93 28.03ZM5.93 21.97C5.39 21.97 4.88 22.18 4.49 22.56 4.11 22.94 3.9 23.45 3.9 24 3.9 24.55 4.11 25.05 4.49 25.44 5.26 26.21 6.59 26.21 7.36 25.44 7.74 25.06 7.96 24.55 7.96 24 7.96 23.45 7.75 22.95 7.36 22.56 6.98 22.18 6.47 21.97 5.92 21.97Z" class="MsftOfcThm_Text2_Fill_v2" fill="#7823DC"/><path d="M10.16 31.97C9.76 31.21 9.15 30.58 8.41 30.14 6.93 29.26 4.99 29.26 3.51 30.14 2.77 30.58 2.17 31.21 1.76 31.97L-2.22045e-16 31.02C0.58 29.94 1.44 29.05 2.49 28.42 4.59 27.17 7.34 27.17 9.44 28.42 10.49 29.05 11.35 29.95 11.93 31.02L10.17 31.97Z" class="MsftOfcThm_Text2_Fill_v2" fill="#7823DC"/><path d="M26.14 28.03C25.06 28.03 24.05 27.61 23.29 26.85 22.53 26.09 22.11 25.08 22.11 24 22.11 22.92 22.53 21.91 23.29 21.15 24.05 20.39 25.06 19.97 26.14 19.97 27.22 19.97 28.23 20.39 28.99 21.15 29.75 21.91 30.17 22.92 30.17 24 30.17 25.08 29.75 26.09 28.99 26.85 28.23 27.61 27.22 28.03 26.14 28.03ZM26.14 21.97C25.6 21.97 25.09 22.18 24.7 22.56 24.32 22.94 24.1 23.45 24.1 24 24.1 24.55 24.31 25.05 24.7 25.44 25.47 26.21 26.8 26.21 27.57 25.44 27.95 25.06 28.16 24.55 28.16 24 28.16 23.45 27.95 22.95 27.56 22.56 27.17 22.17 26.67 21.97 26.12 21.97Z" class="MsftOfcThm_Text2_Fill_v2" fill="#7823DC"/><path d="M30.31 31.97C29.91 31.21 29.31 30.58 28.57 30.14 27.1 29.26 25.18 29.26 23.71 30.14 22.98 30.58 22.37 31.21 21.97 31.97L20.21 31.03C20.78 29.95 21.64 29.05 22.68 28.43 24.77 27.18 27.51 27.18 29.6 28.43 30.64 29.06 31.5 29.96 32.07 31.03L30.31 31.97Z" class="MsftOfcThm_Text2_Fill_v2" fill="#7823DC"/><path d="M16.04 28.03C14.96 28.03 13.95 27.61 13.19 26.85 12.43 26.09 12.01 25.08 12.01 24 12.01 22.92 12.43 21.91 13.19 21.15 14.72 19.63 17.37 19.63 18.89 21.15 19.65 21.91 20.07 22.92 20.07 24 20.07 25.08 19.65 26.09 18.89 26.85 18.13 27.61 17.12 28.03 16.04 28.03ZM16.04 21.97C15.5 21.97 14.99 22.18 14.6 22.57 14.21 22.96 14.01 23.46 14.01 24.01 14.01 24.56 14.22 25.06 14.6 25.45 15.37 26.22 16.71 26.22 17.47 25.45 17.85 25.07 18.06 24.56 18.06 24.01 18.06 23.46 17.85 22.96 17.46 22.57 17.07 22.18 16.57 21.98 16.02 21.98Z" class="MsftOfcThm_Text2_Fill_v2" fill="#7823DC"/><path d="M20.21 31.97C19.81 31.21 19.21 30.58 18.48 30.14 17.02 29.26 15.11 29.26 13.65 30.14 12.92 30.58 12.32 31.21 11.92 31.97L10.15 31.03C10.72 29.95 11.57 29.05 12.61 28.43 14.69 27.17 17.42 27.17 19.5 28.43 20.54 29.06 21.39 29.96 21.96 31.03L20.19 31.97Z" class="MsftOfcThm_Text2_Fill_v2" fill="#7823DC"/><path d="M28.04 17 4.04 17 4.04 0 28.04 0 28.04 17ZM6.04 15 26.04 15 26.04 2 6.04 2 6.04 15Z" class="MsftOfcThm_Text2_Fill_v2" fill="#7823DC"/><rect x="20.21" y="31.47" width="1.77" height="0.5" class="MsftOfcThm_Text2_Fill_v2" fill="#7823DC"/><rect x="10.15" y="31.47" width="1.77" height="0.5" class="MsftOfcThm_Text2_Fill_v2" fill="#7823DC"/></svg>