<svg viewBox="0 0 32 32" xmlns="http://www.w3.org/2000/svg" xmlns:xlink="http://www.w3.org/1999/xlink" overflow="hidden"><style>
.MsftOfcResponsive_Fill_7823dc {
 fill:#7823DC; 
}
</style>
<defs></defs><g id="a"></g><g id="b"></g><g id="c"></g><g id="d"><path d="M32 10.01 17.99 10.01 17.99 0.01 32 0.01 32 10.01ZM19.99 8.01 30 8.01 30 2.01 19.99 2.01 19.99 8.01Z" class="e MsftOfcResponsive_Fill_7823dc" fill="#7823DC"/><path d="M13.98 10.01-0.04 10.01-0.04 0.01 13.98 0.01 13.98 10.01ZM1.96 8.01 11.98 8.01 11.98 2.01 1.96 2.01 1.96 8.01Z" class="e MsftOfcResponsive_Fill_7823dc" fill="#7823DC"/><g><rect x="-0.04" y="12.01" width="0.04" height="10" class="e MsftOfcResponsive_Fill_7823dc" fill="#7823DC"/><path d="M17.99 15.46C18.74 15.75 19.41 16.19 19.99 16.72L19.99 14 30 14 30 20 21.88 20C22.94 20.4 23.85 21.1 24.51 22L32 22 32 12.01 17.99 12.01 17.99 15.46Z" class="e MsftOfcResponsive_Fill_7823dc" fill="#7823DC"/><path d="M32 30.65 26.46 24.01 25.45 24.01C25.57 24.46 25.64 24.93 25.64 25.41 25.64 25.58 25.63 25.72 25.55 26.05L28.85 30.01 24.58 30.01C24.48 30.41 24.36 30.85 24.23 31.34L24.05 32 31.99 32 31.99 30.65Z" class="e MsftOfcResponsive_Fill_7823dc" fill="#7823DC"/><path d="M3.1 30.01 5.72 26.87C5.7 26.81 5.69 26.76 5.68 26.71 5.58 26.3 5.53 25.87 5.53 25.41 5.53 24.92 5.61 24.46 5.72 24.01L5.5 24.01 0 30.61 0 32 7.07 32 6.55 30.01 3.1 30.01Z" class="e MsftOfcResponsive_Fill_7823dc" fill="#7823DC"/><path d="M9.3 20.01 1.96 20.01 1.96 14.01 11.98 14.01 11.98 16.34C12.57 15.88 13.25 15.54 13.98 15.32L13.98 12 0 12 0 22 6.65 22C7.31 21.09 8.24 20.4 9.3 20Z" class="e MsftOfcResponsive_Fill_7823dc" fill="#7823DC"/><path d="M23.24 27.09C23.25 27.02 23.65 25.54 23.65 25.41 23.65 23.36 22 21.69 19.95 21.64 19.96 21.52 19.99 21.39 19.99 21.27 19.99 18.94 18.1 17.05 15.77 17.05 13.44 17.05 11.55 18.94 11.55 21.27 11.55 21.39 11.57 21.51 11.58 21.64L11.32 21.64C9.23 21.64 7.54 23.34 7.54 25.42 7.54 25.72 7.57 26 7.64 26.26 7.66 26.33 7.68 26.42 7.72 26.57L9.15 32.01 11.22 32.01 9.58 25.78C9.56 25.71 9.54 25.6 9.54 25.42 9.54 24.44 10.34 23.64 11.32 23.64L19.87 23.64C20.83 23.64 21.62 24.4 21.65 25.35 21.62 25.52 21.52 25.89 21.39 26.39L19.92 32 21.99 32 22.3 30.83C22.79 28.97 23.24 27.09 23.24 27.09ZM17.95 21.63 13.57 21.63C13.55 21.51 13.54 21.39 13.54 21.26 13.54 20.04 14.54 19.04 15.76 19.04 16.98 19.04 17.98 20.04 17.98 21.26 17.98 21.38 17.96 21.5 17.94 21.63Z" class="e MsftOfcResponsive_Fill_7823dc" fill="#7823DC"/></g></g></svg>