<svg width="512" height="512" viewBox="0 0 512 512" xmlns="http://www.w3.org/2000/svg" xmlns:xlink="http://www.w3.org/1999/xlink" id="Capa_1" overflow="hidden"><path d="M462.571 275.429 443.143 275.429 443.143 221.572C443.143 180.455 413.388 146.179 374.286 139.085L374.286 68.857 339.857 68.857 339.857 49.429C339.857 22.174 317.684-1.42109e-14 290.429-1.42109e-14L152.714-1.42109e-14C125.459-1.42109e-14 103.285 22.174 103.285 49.429L103.285 137.715 68.857 137.715 68.857 207.942C29.755 215.036 8.52651e-14 249.311 8.52651e-14 290.428L8.52651e-14 512 512 512 512 324.857C512 297.602 489.826 275.429 462.571 275.429ZM411.002 206.571 238.713 206.571C245.226 184.153 265.937 167.714 290.429 167.714L359.286 167.714C383.777 167.714 404.488 184.153 411.002 206.571ZM344.286 413.143 305.429 413.143 305.429 374.286 344.286 374.286ZM344.286 344.286 305.429 344.286 305.429 305.429 344.286 305.429ZM344.286 275.429 305.429 275.429 305.429 236.572 344.286 236.572ZM344.286 137.714 305.429 137.714 305.429 98.857 344.286 98.857ZM133.286 49.429C133.286 38.716 142.002 30 152.715 30L290.429 30C301.142 30 309.857 38.716 309.857 49.429L309.857 68.857 275.429 68.857 275.429 139.085C236.326 146.179 206.572 180.455 206.572 221.572L206.572 226.219C195.636 217.031 182.329 210.594 167.715 207.943L167.715 137.716 133.286 137.716ZM137.714 167.714 137.714 206.571 98.857 206.571 98.857 167.714ZM83.857 236.571 152.714 236.571C177.205 236.571 197.916 253.009 204.43 275.428L32.141 275.428C38.655 253.01 59.366 236.571 83.857 236.571ZM133.286 482 133.286 443.143 153.81 443.143 153.81 413.143 84.952 413.143 84.952 443.143 103.285 443.143 103.285 482 30 482 30 305.428 206.571 305.428 206.571 482ZM236.571 482 236.571 290.428 236.571 236.571 275.428 236.571 275.428 462.571 305.428 462.571 305.428 443.143 344.285 443.143 344.285 462.571 374.285 462.571 374.285 236.571 413.142 236.571 413.142 482ZM443.143 482 443.143 305.429 462.571 305.429C473.284 305.429 482 314.144 482 324.857L482 482Z" fill="#7823DC"/></svg>