<svg viewBox="0 0 32 32" xmlns="http://www.w3.org/2000/svg" xmlns:xlink="http://www.w3.org/1999/xlink" id="Layer_5" overflow="hidden"><style>
.MsftOfcResponsive_Fill_7823dc {
 fill:#7823DC; 
}
</style>
<defs></defs><path d="M16.37 15.28C18.38 15.28 20.39 15.22 22.39 15.1L23.86 15.01 23.74 13.01 22.27 13.1C18.27 13.35 14.21 13.34 10.22 13.08L9.08 13.01 8.95 15.01 10.09 15.08C12.18 15.21 14.28 15.28 16.38 15.28Z" class="cls-1 MsftOfcResponsive_Fill_7823dc" fill="#7823DC"/><path d="M22.11 11.1C22.16 11.1 22.21 11.1 22.26 11.1L22.62 11.08C22.62 11.08 22.62 11.08 22.62 11.08L22.67 11.08 22.67 6.95 21.67 6.95 21.67 0 19.67 0 19.67 6.94 17.4 6.94 17.4 0 15.4 0 15.4 6.94 13.13 6.94 13.13 0 11.13 0 11.13 6.94 10.13 6.94 10.13 11.07C13.62 11.5 20.25 11.2 22.11 11.1Z" class="cls-1 MsftOfcResponsive_Fill_7823dc" fill="#7823DC"/><path d="M23.98 16.91C18.95 17.42 13.85 17.42 8.82 16.91L7.72 16.8 7.72 32 9.72 32 9.72 19.01C14.16 19.4 18.64 19.4 23.08 19.01L23.08 32 25.08 32 25.08 16.8 23.98 16.91Z" class="cls-1 MsftOfcResponsive_Fill_7823dc" fill="#7823DC"/></svg>