<svg viewBox="0 0 32 32" xmlns="http://www.w3.org/2000/svg" xmlns:xlink="http://www.w3.org/1999/xlink" id="Layer_1" xml:space="preserve" overflow="hidden"><style>
.MsftOfcResponsive_Fill_7823dc {
 fill:#7823DC; 
}
</style>
<g id="Layer_2_00000153672027410828584440000004318808627006363015_"></g><g id="Layer_2_00000103981120671582451330000015814750687241510044_"></g><path d="M4 16 4 28 28 28 28 16 4 16ZM26.1 26.1 5.9 26.1 5.9 17.9 26.1 17.9 26.1 26.1Z" class="MsftOfcResponsive_Fill_7823dc" fill="#7823DC"/><g><g><rect x="16.9" y="0" width="9" height="2" class="MsftOfcResponsive_Fill_7823dc" fill="#7823DC"/><path d="M17.8 0 17.8 13 19.8 13 19.8 1.6 23 1.6 23 13 25 13 25 0 17.8 0ZM23 16 23 22.2C23 22.9 22.3 23.4 21.4 23.4 20.5 23.4 19.8 22.9 19.8 22.2L19.8 16 17.8 16 17.8 22.2C17.8 23.8 19.4 25 21.4 25 23.4 25 25 23.8 25 22.2L25 16 23 16Z" class="MsftOfcResponsive_Fill_7823dc" fill="#7823DC"/><rect x="19.7" y="6" width="4" height="2" class="MsftOfcResponsive_Fill_7823dc" fill="#7823DC"/></g><g><rect x="6.1" y="0" width="9" height="2" class="MsftOfcResponsive_Fill_7823dc" fill="#7823DC"/><path d="M7 0 7 13 9 13 9 1.6 12.2 1.6 12.2 13 14.2 13 14.2 0 7 0ZM12.2 16 12.2 22.2C12.2 22.9 11.5 23.4 10.6 23.4 9.7 23.4 9 22.9 9 22.2L9 16 7 16 7 22.2C7 23.8 8.6 25 10.6 25 12.6 25 14.2 23.8 14.2 22.2L14.2 16 12.2 16Z" class="MsftOfcResponsive_Fill_7823dc" fill="#7823DC"/><rect x="8.8" y="6" width="4" height="2" class="MsftOfcResponsive_Fill_7823dc" fill="#7823DC"/></g></g><path d="M29.8 13.2 29.8 29.8 2.2 29.8 2.2 13.2 29.8 13.2M32 11 0 11 0 32 32 32 32 11 32 11Z" class="MsftOfcResponsive_Fill_7823dc" fill="#7823DC"/></svg>