<svg viewBox="0 0 32 32" xmlns="http://www.w3.org/2000/svg" xmlns:xlink="http://www.w3.org/1999/xlink" id="Layer_1" overflow="hidden"><style>
.MsftOfcResponsive_Fill_7823dc {
 fill:#7823DC; 
}
</style>
<defs></defs><path d="M0 19.37 7.18 0 9.85 0 17.5 19.37 14.68 19.37 12.5 13.5 4.68 13.5 2.63 19.37 0 19.37ZM5.4 11.42 11.74 11.42 9.79 6.06C9.2 4.43 8.75 3.09 8.46 2.04 8.22 3.28 7.89 4.51 7.45 5.74L5.4 11.42Z" class="MsftOfcResponsive_Fill_7823dc" fill="#7823DC"/><path d="M29.14 17.32C28.29 18.07 27.47 18.6 26.68 18.9 25.89 19.21 25.05 19.36 24.15 19.36 22.66 19.36 21.52 18.98 20.72 18.23 19.92 17.48 19.52 16.52 19.52 15.34 19.52 14.65 19.67 14.03 19.97 13.46 20.27 12.89 20.67 12.44 21.16 12.09 21.65 11.75 22.2 11.49 22.81 11.31 23.26 11.19 23.94 11.07 24.85 10.95 26.7 10.72 28.07 10.45 28.94 10.13 28.94 9.8 28.95 9.6 28.95 9.51 28.95 8.54 28.73 7.86 28.3 7.46 27.71 6.92 26.84 6.65 25.68 6.65 24.6 6.65 23.8 6.85 23.29 7.24 22.78 7.63 22.4 8.33 22.15 9.32L19.9 9C20.1 8 20.44 7.2 20.91 6.59 21.38 5.98 22.05 5.51 22.94 5.18 23.82 4.85 24.85 4.68 26.02 4.68 27.19 4.68 28.12 4.82 28.84 5.1 29.56 5.38 30.09 5.74 30.43 6.16 30.77 6.59 31.01 7.13 31.14 7.78 31.22 8.19 31.25 8.92 31.25 9.97L31.25 13.14C31.25 15.35 31.3 16.75 31.4 17.33 31.5 17.92 31.69 18.48 31.98 19.01L29.58 19.01C29.34 18.52 29.19 17.94 29.12 17.28ZM28.95 12.01C28.12 12.36 26.87 12.66 25.2 12.91 24.26 13.05 23.59 13.21 23.2 13.39 22.81 13.57 22.51 13.82 22.29 14.16 22.08 14.5 21.97 14.88 21.97 15.29 21.97 15.92 22.2 16.45 22.67 16.87 23.14 17.29 23.81 17.5 24.71 17.5 25.61 17.5 26.38 17.3 27.07 16.9 27.76 16.5 28.26 15.95 28.59 15.26 28.84 14.72 28.96 13.93 28.96 12.88L28.96 12.01Z" class="MsftOfcResponsive_Fill_7823dc" fill="#7823DC"/><rect x="0" y="22" width="2" height="2" class="MsftOfcResponsive_Fill_7823dc" fill="#7823DC"/><rect x="4" y="22" width="2" height="2" class="MsftOfcResponsive_Fill_7823dc" fill="#7823DC"/><rect x="8" y="22" width="2" height="2" class="MsftOfcResponsive_Fill_7823dc" fill="#7823DC"/><rect x="12" y="22" width="2" height="2" class="MsftOfcResponsive_Fill_7823dc" fill="#7823DC"/><rect x="16" y="22" width="2" height="2" class="MsftOfcResponsive_Fill_7823dc" fill="#7823DC"/><rect x="14" y="30" width="2" height="2" class="MsftOfcResponsive_Fill_7823dc" fill="#7823DC"/><rect x="18" y="30" width="2" height="2" class="MsftOfcResponsive_Fill_7823dc" fill="#7823DC"/><rect x="22" y="30" width="2" height="2" class="MsftOfcResponsive_Fill_7823dc" fill="#7823DC"/><rect x="26" y="30" width="2" height="2" class="MsftOfcResponsive_Fill_7823dc" fill="#7823DC"/><rect x="30" y="30" width="2" height="2" class="MsftOfcResponsive_Fill_7823dc" fill="#7823DC"/><rect x="0" y="26" width="18" height="2" class="MsftOfcResponsive_Fill_7823dc" fill="#7823DC"/></svg>