<svg viewBox="0 0 29.72 32.06" xmlns="http://www.w3.org/2000/svg" xmlns:xlink="http://www.w3.org/1999/xlink" xml:space="preserve" overflow="hidden"><style>
.MsftOfcResponsive_Fill_7823dc {
 fill:#7823DC; 
}
</style>
<g id="Layer_3"></g><g id="Layer_1"></g><g id="Layer_2"></g><g id="Layer_4"></g><g id="Layer_5"><path d="M4.91 32.06 6.93 32.06 6.93 22.99 4.91 20.98 4.91 32.06Z" class="MsftOfcResponsive_Fill_7823dc" fill="#7823DC" fill-rule="evenodd" clip-rule="evenodd"/><path d="M9.07 22.99 9.07 32.06 11.08 32.06 11.08 20.98 9.07 22.99Z" class="MsftOfcResponsive_Fill_7823dc" fill="#7823DC" fill-rule="evenodd" clip-rule="evenodd"/><path d="M3.76 21.1 6.61 18.25 8.04 19.67 5.19 22.52 3.76 21.1Z" class="MsftOfcResponsive_Fill_7823dc" fill="#7823DC" fill-rule="evenodd" clip-rule="evenodd"/><path d="M8.01 19.7 9.44 18.28 12.29 21.13 10.86 22.56 8.01 19.7Z" class="MsftOfcResponsive_Fill_7823dc" fill="#7823DC" fill-rule="evenodd" clip-rule="evenodd"/><path d="M8 22.54 10.85 19.69 12.28 21.12 9.42 23.97 8 22.54Z" class="MsftOfcResponsive_Fill_7823dc" fill="#7823DC" fill-rule="evenodd" clip-rule="evenodd"/><path d="M3.75 21.09 5.18 19.66 8.03 22.51 6.6 23.94 3.75 21.09Z" class="MsftOfcResponsive_Fill_7823dc" fill="#7823DC" fill-rule="evenodd" clip-rule="evenodd"/><path d="M8.06 16.13C3.63 16.13 0 12.5 0 8.07 0 3.64 3.63 0.01 8.06 0.01 12.49 0.01 16.12 3.64 16.12 8.07 16.12 12.5 12.49 16.13 8.06 16.13L8.06 16.13ZM8.06 2.02C4.74 2.02 2.02 4.74 2.02 8.06 2.02 11.38 4.74 14.1 8.06 14.1 11.38 14.1 14.1 11.38 14.1 8.06 14.1 4.74 11.38 2.02 8.06 2.02L8.06 2.02Z" class="MsftOfcResponsive_Fill_7823dc" fill="#7823DC" fill-rule="evenodd" clip-rule="evenodd"/><path d="M5.54 17.76 0 20.09 0 17.97 4.84 15.94 5.14 16.65 5.54 17.76Z" class="MsftOfcResponsive_Fill_7823dc" fill="#7823DC" fill-rule="evenodd" clip-rule="evenodd"/><path d="M20.15 20.41 22.16 20.41 22.16 32.06 20.15 32.06 20.15 20.41Z" class="MsftOfcResponsive_Fill_7823dc" fill="#7823DC" fill-rule="evenodd" clip-rule="evenodd"/><path d="M10.49 17.83 11.26 15.97 22.17 20.47 21.4 22.34 10.49 17.83Z" class="MsftOfcResponsive_Fill_7823dc" fill="#7823DC" fill-rule="evenodd" clip-rule="evenodd"/><path d="M3.23 17.21 4.82 15.96 6.81 18.5 5.23 19.74 3.23 17.21Z" class="MsftOfcResponsive_Fill_7823dc" fill="#7823DC" fill-rule="evenodd" clip-rule="evenodd"/><path d="M9.3 18.51 11.29 15.97 12.88 17.22 10.88 19.76 9.3 18.51Z" class="MsftOfcResponsive_Fill_7823dc" fill="#7823DC" fill-rule="evenodd" clip-rule="evenodd"/><path d="M23.59 3.92 17.54 7.37 17.54 14.27 19.27 15.25 23.59 17.73 27.91 15.25 29.64 14.27 29.64 7.37 23.59 3.92 23.59 3.92ZM23.59 5.91 26.18 7.38 23.59 8.85 21 7.38 23.59 5.91 23.59 5.91ZM19.27 8.35 22.73 10.34 22.73 15.26 19.27 13.27 19.27 8.35 19.27 8.35ZM27.91 13.27 24.45 15.25 24.45 10.33 27.91 8.35 27.91 13.27 27.91 13.27Z" class="MsftOfcResponsive_Fill_7823dc" stroke="#6C4D9F" stroke-width="0.25" stroke-miterlimit="10" fill="#7823DC"/></g></svg>