<svg width="30.4" height="31.4" viewBox="0 0 30.4 31.4" xmlns="http://www.w3.org/2000/svg" xmlns:xlink="http://www.w3.org/1999/xlink" overflow="hidden"><style>
.MsftOfcResponsive_Fill_7823dc {
 fill:#7823DC; 
}
</style>
<defs></defs><path d="M26.5 29.4 16.2 29.4 16.2 14 16.2 14 16.2 31.4 28.5 31.4 28.5 14 26.5 14Z" class="MsftOfcResponsive_Fill_7823dc" fill="#7823DC"/><path d="M14.2 14 14.2 29.4 3.9 29.4 3.9 14 1.9 14 1.9 31.4 14.2 31.4 14.2 14Z" class="MsftOfcResponsive_Fill_7823dc" fill="#7823DC"/><path d="M16.2 14.2 0 14.2 0 7.7 16.2 7.7 16.2 14.2ZM1.8 12.4 14.4 12.4 14.4 9.5 1.8 9.5 1.8 12.4Z" class="MsftOfcResponsive_Fill_7823dc" fill="#7823DC"/><path d="M30.4 14.2 14.2 14.2 14.2 7.7 30.4 7.7 30.4 14.2ZM16.1 12.4 28.7 12.4 28.7 9.5 16.1 9.5 16.1 12.4Z" class="MsftOfcResponsive_Fill_7823dc" fill="#7823DC"/><path d="M11.3 2C8.4 0.2 4.7-0.9 3.5 1 3.1 1.7 2.9 2.8 4.2 4.5 5 5.5 6.3 6.6 7.8 7.6 9.3 8.5 10.9 9.2 12.2 9.4 12.6 9.5 13 9.5 13.4 9.5 14.7 9.5 15.3 9 15.6 8.5 16.8 6.6 14.2 3.8 11.3 2ZM13.6 7.3C13.1 7.3 11.3 7 9 5.6 6.8 4.2 5.7 2.8 5.5 2.3 6 2.2 7.8 2.5 10.1 3.9 12.4 5.3 13.4 6.7 13.6 7.3Z" class="MsftOfcResponsive_Fill_7823dc" fill="#7823DC"/><path d="M14.5 8.5C14.8 9 15.4 9.5 16.7 9.5 17 9.5 17.4 9.5 17.9 9.4 19.2 9.1 20.8 8.5 22.3 7.6 23.8 6.7 25.1 5.6 25.9 4.5 27.2 2.8 27 1.7 26.6 1 25.4-0.9 21.7 0.1 18.8 1.9 15.9 3.8 13.3 6.6 14.5 8.5ZM20 3.9C22.3 2.5 24 2.2 24.6 2.3 24.4 2.8 23.4 4.3 21.1 5.7 18.8 7.1 17.1 7.4 16.5 7.3 16.7 6.7 17.8 5.3 20 3.9Z" class="MsftOfcResponsive_Fill_7823dc" fill="#7823DC"/><rect x="14.2" y="14" width="1.9" height="17.4" class="MsftOfcResponsive_Fill_7823dc" fill="#7823DC"/></svg>