<svg viewBox="0 0 32 31.62" xmlns="http://www.w3.org/2000/svg" xmlns:xlink="http://www.w3.org/1999/xlink" id="Layer_1" overflow="hidden"><style>
.MsftOfcResponsive_Fill_7823dc {
 fill:#7823DC; 
}
</style>
<defs></defs><path d="M32 18.03 31.41 18.03C31.15 18.03 30.89 18 30.63 17.98 30.44 17.96 30.25 17.94 30.07 17.94L29.9 17.94C27.54 17.53 25.69 16.57 24.09 14.89L24 14.79C23.91 14.7 23.82 14.6 23.74 14.5 23.2 13.97 22.65 13.26 22.06 12.34 21.99 12.24 21.89 12.1 21.81 11.95 21.61 11.63 21.44 11.36 21.27 11.09L20.99 10.64 20.51 9.73C20.21 9.27 19.86 8.71 19.51 8.15 19.19 7.63 18.87 7.12 18.55 6.62 17.71 5.39 16.69 4.39 15.52 3.65 13.74 2.53 11.24 1.94 8.68 2.01 7.43 2.05 6.51 2.26 5.81 2.69 5.2 3.06 4.69 3.58 4.06 4.48 3.52 5.24 3.04 6.36 2.66 7.72L2.55 8.1C2.14 9.51 1.96 10.47 1.98 10.96 2.44 10.76 3.22 10.28 4.32 9.55 4.65 9.33 4.89 9.18 4.97 9.14 7.16 8.1 8.6 9.44 10.26 11 10.54 11.26 11.32 12.02 11.65 12.31L10.23 13.72C9.89 13.42 9.19 12.73 8.9 12.46 7.19 10.87 6.71 10.53 5.83 10.95 5.79 10.98 5.63 11.08 5.43 11.22 3.15 12.75 1.98 13.36 1.09 12.96-0.71 12.16 0.09 9.39 0.61 7.55L0.71 7.19C1.15 5.59 1.72 4.29 2.4 3.33 2.99 2.5 3.68 1.64 4.74 0.99 5.78 0.36 7 0.05 8.62 0 11.59-0.09 14.48 0.62 16.58 1.95 17.98 2.83 19.2 4.03 20.21 5.5 20.55 6.02 20.88 6.55 21.21 7.08 21.55 7.63 21.89 8.18 22.23 8.7L22.97 10.02C23.13 10.28 23.3 10.55 23.47 10.82 23.57 10.98 23.64 11.09 23.72 11.21 24.26 12.05 24.72 12.64 25.21 13.13 25.33 13.27 25.41 13.35 25.48 13.42L25.56 13.51C26.81 14.83 28.28 15.6 30.16 15.93 30.39 15.93 30.62 15.96 30.84 15.98 31.03 16 31.22 16.02 31.41 16.02L32 16.02 32 18.02Z" class="MsftOfcResponsive_Fill_7823dc" fill="#7823DC"/><path d="M11.95 23.5C11.88 23.63 11.8 23.75 11.72 23.87 11.3 24.49 10.82 25.04 10.27 25.5 10.14 25.63 10.01 25.74 9.88 25.84 9.83 25.88 9.78 25.92 9.72 25.95L9.72 23.5 11.95 23.5Z" class="MsftOfcResponsive_Fill_7823dc" fill="#7823DC" fill-rule="evenodd"/><path d="M23.64 22.12 13.72 12.91 3.8 22.12 2.44 20.65 13.72 10.18 25 20.65 23.64 22.12Z" class="MsftOfcResponsive_Fill_7823dc" fill="#7823DC"/><rect x="21.72" y="19.55" width="2" height="9.3" class="MsftOfcResponsive_Fill_7823dc" fill="#7823DC"/><rect x="9.72" y="23.5" width="2" height="5.65" class="MsftOfcResponsive_Fill_7823dc" fill="#7823DC"/><rect x="15.72" y="23.51" width="2" height="5.65" class="MsftOfcResponsive_Fill_7823dc" fill="#7823DC"/><rect x="3.72" y="19.54" width="2" height="10.68" class="MsftOfcResponsive_Fill_7823dc" fill="#7823DC"/><rect x="10.15" y="23.5" width="7.38" height="2" class="MsftOfcResponsive_Fill_7823dc" fill="#7823DC"/><path d="M31.73 28.96C31.28 28.4 30.6 27.55 29.29 27.55 27.98 27.55 27.3 28.4 26.85 28.96 26.43 29.49 26.28 29.62 25.97 29.62 25.66 29.62 25.51 29.49 25.09 28.96 24.64 28.4 23.96 27.55 22.65 27.55 21.34 27.55 20.66 28.4 20.21 28.96 19.79 29.49 19.64 29.62 19.33 29.62 19.02 29.62 18.87 29.49 18.45 28.96 18 28.4 17.32 27.55 16.01 27.55 14.7 27.55 14.02 28.4 13.57 28.96 13.15 29.49 13 29.62 12.69 29.62 12.38 29.62 12.23 29.49 11.81 28.96 11.36 28.4 10.68 27.55 9.36 27.55 8.04 27.55 7.37 28.4 6.91 28.96 6.48 29.49 6.34 29.62 6.03 29.62 5.72 29.62 5.57 29.49 5.14 28.96 4.69 28.4 4.01 27.55 2.69 27.55 1.38 27.55 0.69 28.4 0.24 28.96 0.16 29.06 0.1 29.13 0.04 29.2L0.04 31.53C0.91 31.3 1.43 30.67 1.8 30.21 2.23 29.68 2.38 29.55 2.69 29.55 3 29.55 3.15 29.68 3.58 30.21 4.03 30.77 4.71 31.62 6.03 31.62 7.35 31.62 8.02 30.77 8.48 30.21 8.91 29.68 9.05 29.55 9.36 29.55 9.67 29.55 9.82 29.68 10.24 30.21 10.69 30.77 11.37 31.62 12.68 31.62 13.99 31.62 14.67 30.77 15.12 30.21 15.54 29.68 15.69 29.55 16 29.55 16.31 29.55 16.46 29.68 16.88 30.21 17.33 30.77 18.01 31.62 19.32 31.62 20.63 31.62 21.31 30.77 21.76 30.21 22.18 29.68 22.33 29.55 22.64 29.55 22.95 29.55 23.1 29.68 23.52 30.21 23.97 30.77 24.65 31.62 25.96 31.62 27.27 31.62 27.95 30.77 28.4 30.21 28.82 29.68 28.97 29.55 29.28 29.55 29.59 29.55 29.74 29.68 30.16 30.21 30.53 30.68 31.07 31.33 31.99 31.55L31.99 29.28C31.91 29.19 31.83 29.09 31.72 28.96Z" class="MsftOfcResponsive_Fill_7823dc" fill="#7823DC"/></svg>