<svg viewBox="0 0 32 31.98" xmlns="http://www.w3.org/2000/svg" xmlns:xlink="http://www.w3.org/1999/xlink" id="Layer_2" overflow="hidden"><style>
.MsftOfcResponsive_Fill_7823dc {
 fill:#7823DC; 
}
</style>
<defs></defs><path d="M15.99 14.49C13.5 14.49 11.49 16.5 11.49 18.98 11.49 21.46 13.5 23.47 15.99 23.47 18.47 23.47 20.49 21.46 20.49 18.98 20.49 16.5 18.48 14.49 15.99 14.49ZM15.99 21.48C14.61 21.48 13.49 20.36 13.49 18.98 13.49 17.6 14.61 16.48 15.99 16.48 17.37 16.48 18.49 17.6 18.49 18.98 18.49 20.36 17.37 21.48 15.99 21.48Z" class="MsftOfcResponsive_Fill_7823dc" fill="#7823DC"/><path d="M26 21.98C27.66 21.98 29 20.64 29 18.99 29 17.34 27.66 16 26 16 24.34 16 23 17.34 23 18.99 23 20.64 24.34 21.98 26 21.98ZM26 17.99C26.55 17.99 27 18.44 27 18.99 27 19.54 26.55 19.99 26 19.99 25.45 19.99 25 19.54 25 18.99 25 18.44 25.45 17.99 26 17.99Z" class="MsftOfcResponsive_Fill_7823dc" fill="#7823DC"/><path d="M2.99 18.98C2.99 20.63 4.33 21.97 5.99 21.97 7.65 21.97 8.99 20.63 8.99 18.98 8.99 17.33 7.65 15.99 5.99 15.99 4.33 15.99 2.99 17.33 2.99 18.98ZM6.99 18.98C6.99 19.53 6.54 19.98 5.99 19.98 5.44 19.98 4.99 19.53 4.99 18.98 4.99 18.43 5.44 17.98 5.99 17.98 6.54 17.98 6.99 18.43 6.99 18.98Z" class="MsftOfcResponsive_Fill_7823dc" fill="#7823DC"/><path d="M8 31.96 10 31.96 10 28.97 22 28.97 22 31.98 24 31.98 24 26.97 8 26.97 8 31.96Z" class="MsftOfcResponsive_Fill_7823dc" fill="#7823DC"/><path d="M28.03 22.98 20 22.98 20 25.97 22 25.97 22 24.97 30 24.97 30 30.96 32 30.96 32 26.93 28.03 22.98Z" class="MsftOfcResponsive_Fill_7823dc" fill="#7823DC"/><path d="M10 25.97 12 25.97 12 22.98 3.99 22.98 0 26.98 0 30.96 2 30.96 2 24.97 10 24.97 10 25.97Z" class="MsftOfcResponsive_Fill_7823dc" fill="#7823DC"/><path d="M24.52 12.68 24.55 12.68 26.86 10.37 27.52 5.59 22.51 6.14 20.25 8.41 23.62 8.03 19.68 11.96 12.01 6.56 4.69 13.69 6.09 15.12 12.22 9.15 19.9 14.57 24.96 9.53 24.52 12.68Z" class="MsftOfcResponsive_Fill_7823dc" fill="#7823DC"/><path d="M2 2 30 2 30 22 32 22 32 0 0 0 0 22 2 22 2 2Z" class="MsftOfcResponsive_Fill_7823dc" fill="#7823DC"/><rect x="4" y="2.77" width="6" height="2" class="MsftOfcResponsive_Fill_7823dc" fill="#7823DC"/><rect x="4" y="5.35" width="4" height="2" class="MsftOfcResponsive_Fill_7823dc" fill="#7823DC"/><rect x="4" y="7.82" width="2" height="2" class="MsftOfcResponsive_Fill_7823dc" fill="#7823DC"/></svg>