<svg viewBox="0 0 32 32" xmlns="http://www.w3.org/2000/svg" xmlns:xlink="http://www.w3.org/1999/xlink" id="Layer_1" overflow="hidden"><style>
.MsftOfcResponsive_Fill_7823dc {
 fill:#7823DC; 
}
</style>
<defs></defs><path d="M16 32C7.18 32 0 24.82 0 16 0 7.18 7.18 0 16 0 24.82 0 32 7.18 32 16 32 24.82 24.82 32 16 32ZM8.79 4C4.73 6.45 2 10.91 2 16 2 23.72 8.28 30 16 30 19.58 30 22.5 27.08 22.5 23.5 22.5 19.92 19.58 17 16 17 11.31 17 7.5 13.19 7.5 8.5 7.5 6.85 7.97 5.31 8.79 4ZM16 2C12.42 2 9.5 4.92 9.5 8.5 9.5 12.08 12.42 15 16 15 20.69 15 24.5 18.81 24.5 23.5 24.5 25.15 24.03 26.69 23.21 28 27.27 25.55 30 21.09 30 16 30 8.28 23.72 2 16 2ZM16 26.38C14.42 26.38 13.12 25.09 13.12 23.5 13.12 21.91 14.41 20.62 16 20.62 17.59 20.62 18.88 21.91 18.88 23.5 18.88 25.09 17.59 26.38 16 26.38ZM16 22.62C15.52 22.62 15.12 23.01 15.12 23.5 15.12 23.99 15.51 24.38 16 24.38 16.49 24.38 16.88 23.99 16.88 23.5 16.88 23.01 16.49 22.62 16 22.62ZM16 11.38C14.42 11.38 13.12 10.09 13.12 8.5 13.12 6.91 14.41 5.62 16 5.62 17.59 5.62 18.88 6.91 18.88 8.5 18.88 10.09 17.59 11.38 16 11.38ZM16 7.62C15.52 7.62 15.12 8.01 15.12 8.5 15.12 8.99 15.51 9.38 16 9.38 16.49 9.38 16.88 8.99 16.88 8.5 16.88 8.01 16.49 7.62 16 7.62Z" class="MsftOfcResponsive_Fill_7823dc" stroke-width="0" fill="#7823DC"/></svg>