<svg width="32" height="32.5" viewBox="0 0 32 32.5" xmlns="http://www.w3.org/2000/svg" xmlns:xlink="http://www.w3.org/1999/xlink" overflow="hidden"><defs></defs><g><g><defs><rect x="0" y="0" width="32" height="32" id="SVGID_1_" fill="#7823DC"/></defs><clipPath id="SVGID_2_"><use width="100%" height="100%" xlink:href="#SVGID_1_"></use></clipPath><path d="M6 2 26 2 26 30 6 30 6 2ZM4 0 4 32 28 32 28 4 24 0 4 0Z" fill="#7823DC" clip-path="url(#SVGID_2_)"/><g clip-path="url(#SVGID_2_)"><defs><rect x="0" y="0" width="32" height="32" id="SVGID_3_" fill="#7823DC"/></defs><clipPath id="SVGID_4_"><use width="100%" height="100%" xlink:href="#SVGID_3_"></use></clipPath><path d="M14 16C13.2 16 12.5 16.7 12.5 17.5 12.5 18.3 13.2 19 14 19 14.8 19 15.5 18.3 15.5 17.5 15.5 16.7 14.8 16 14 16" fill="#7823DC" clip-path="url(#SVGID_4_)"/><path d="M4 32.5 4 0.7 19 5.3 19 26.7 4 32.5ZM6 3.4 6 29.6 17 25.4 17 6.8 6 3.4Z" fill="#7823DC" clip-path="url(#SVGID_4_)"/></g></g></g></svg>