<svg viewBox="0 0 32 32" xmlns="http://www.w3.org/2000/svg" xmlns:xlink="http://www.w3.org/1999/xlink" overflow="hidden"><defs></defs><g id="Layer_3"><path d="M31.9807 29.1837 23.7964 21.1819C27.1993 16.829 26.4292 10.5418 22.0764 7.13886 17.7235 3.73596 11.4363 4.50603 8.03338 8.85886 4.63048 13.2117 5.40056 19.499 9.75339 22.9019 13.5015 25.832 18.7946 25.7172 22.4122 22.6274L31.9807 32.0118ZM15.9333 23.0244C11.515 23.0244 7.93328 19.4427 7.93328 15.0244 7.93328 10.6062 11.515 7.02444 15.9333 7.02444 20.3516 7.02444 23.9333 10.6062 23.9333 15.0244 23.9282 19.4406 20.3495 23.0194 15.9333 23.0244Z" fill="#7823DC"/><rect x="0.00018" y="-3e-05" width="31.9924" height="2.04295" fill="#7823DC"/><path d="M8.54913 5.58517 0.00018 5.58517 0.00018 7.62817 6.50305 7.62817C7.10083 6.86772 7.78778 6.18181 8.54913 5.58517Z" fill="#7823DC"/><path d="M23.3174 5.58517C24.0788 6.18181 24.7657 6.86772 25.3635 7.62817L31.9925 7.62817 31.9925 5.58517Z" fill="#7823DC"/><path d="M6.44318 22.3409 0.00018 22.3409 0.00018 24.3839 8.44218 24.3839C7.69741 23.7843 7.02639 23.0986 6.44318 22.3409Z" fill="#7823DC"/><path d="M27.863 22.341 29.969 24.384 31.993 24.384 31.993 22.341 27.863 22.341Z" fill="#7823DC"/><path d="M4.5799 11.1705-0.04889 11.1705-0.04889 13.2134 4.085 13.2134C4.1893 12.5191 4.35492 11.8355 4.5799 11.1705Z" fill="#7823DC"/><path d="M24.98 27.926 0 27.926 0 29.969 27.074 29.969 24.98 27.926Z" fill="#7823DC"/><path d="M10.0231 14.0282 21.8435 14.0282C21.564 12.3766 20.6075 10.9169 19.2048 10.0014L12.6618 10.0014C11.2591 10.9169 10.3025 12.3766 10.0231 14.0282Z" fill="#7823DC"/><path d="M21.8435 16 10.0231 16C10.3026 17.6515 11.2591 19.1112 12.6618 20.0267L19.2048 20.0267C20.6075 19.1112 21.564 17.6515 21.8435 16Z" fill="#7823DC"/><path d="M27.7291 16.7557C27.6079 17.4518 27.4241 18.1356 27.18 18.7987L32 18.7987 32 16.7557Z" fill="#7823DC"/><path d="M27.3113 11.2375C27.5313 11.903 27.6921 12.5867 27.7918 13.2805L31.9925 13.2805 31.9925 11.2375Z" fill="#7823DC"/><path d="M4.07281 16.7557-0.04144 16.7557-0.04144 18.7987 4.55056 18.7987C4.33148 18.1331 4.17161 17.4494 4.07281 16.7557Z" fill="#7823DC"/></g></svg>