<svg viewBox="0 0 32 32" xmlns="http://www.w3.org/2000/svg" xmlns:xlink="http://www.w3.org/1999/xlink" id="Layer_1" xml:space="preserve" overflow="hidden"><path d="M27.6 32 4.4 32 4.4 0 27.7 0 27.7 32 27.6 32 27.6 32ZM6.6 29.8 25.5 29.8 25.5 2.2 6.6 2.2 6.6 29.8 6.6 29.8 6.6 29.8Z" fill="#7823DC" fill-rule="evenodd" clip-rule="evenodd"/><path d="M23.8 12.4 8.2 12.4 8.2 4 23.7 4 23.7 12.4 23.8 12.4 23.8 12.4ZM10.4 10.2 21.5 10.2 21.5 6.2 10.4 6.2 10.4 10.2 10.4 10.2 10.4 10.2Z" fill="#7823DC" fill-rule="evenodd" clip-rule="evenodd"/><g><path d="M12.7 21.5 14.9 21.5 14.9 23.7 12.7 23.7 12.7 21.5Z" fill="#7823DC" fill-rule="evenodd" clip-rule="evenodd"/><path d="M17.1 21.5 19.3 21.5 19.3 23.7 17.1 23.7 17.1 21.5Z" fill="#7823DC" fill-rule="evenodd" clip-rule="evenodd"/><path d="M21.5 21.5 23.8 21.5 23.8 23.7 21.5 23.7 21.5 21.5Z" fill="#7823DC" fill-rule="evenodd" clip-rule="evenodd"/><path d="M8.2 21.5 10.4 21.5 10.4 23.7 8.2 23.7 8.2 21.5Z" fill="#7823DC" fill-rule="evenodd" clip-rule="evenodd"/><path d="M12.7 17 14.9 17 14.9 19.2 12.7 19.2 12.7 17Z" fill="#7823DC" fill-rule="evenodd" clip-rule="evenodd"/><path d="M17.1 17 19.3 17 19.3 19.2 17.1 19.2 17.1 17Z" fill="#7823DC" fill-rule="evenodd" clip-rule="evenodd"/><path d="M21.5 17 23.8 17 23.8 19.2 21.5 19.2 21.5 17Z" fill="#7823DC" fill-rule="evenodd" clip-rule="evenodd"/><path d="M8.2 17 10.4 17 10.4 19.2 8.2 19.2 8.2 17Z" fill="#7823DC" fill-rule="evenodd" clip-rule="evenodd"/><path d="M12.7 21.4 14.9 21.4 14.9 23.6 12.7 23.6 12.7 21.4Z" fill="#7823DC" fill-rule="evenodd" clip-rule="evenodd"/><path d="M17.1 21.4 19.3 21.4 19.3 23.6 17.1 23.6 17.1 21.4Z" fill="#7823DC" fill-rule="evenodd" clip-rule="evenodd"/><path d="M21.5 21.4 23.8 21.4 23.8 23.6 21.5 23.6 21.5 21.4Z" fill="#7823DC" fill-rule="evenodd" clip-rule="evenodd"/><path d="M8.2 21.4 10.4 21.4 10.4 23.6 8.2 23.6 8.2 21.4Z" fill="#7823DC" fill-rule="evenodd" clip-rule="evenodd"/><path d="M12.7 25.8 14.9 25.8 14.9 28 12.7 28 12.7 25.8Z" fill="#7823DC" fill-rule="evenodd" clip-rule="evenodd"/><path d="M17.1 25.8 19.3 25.8 19.3 28 17.1 28 17.1 25.8Z" fill="#7823DC" fill-rule="evenodd" clip-rule="evenodd"/><path d="M21.5 25.8 23.8 25.8 23.8 28 21.5 28 21.5 25.8Z" fill="#7823DC" fill-rule="evenodd" clip-rule="evenodd"/><path d="M8.2 25.8 10.4 25.8 10.4 28 8.2 28 8.2 25.8Z" fill="#7823DC" fill-rule="evenodd" clip-rule="evenodd"/></g></svg>