<svg viewBox="0 0 32 32" xmlns="http://www.w3.org/2000/svg" xmlns:xlink="http://www.w3.org/1999/xlink" xml:space="preserve" overflow="hidden"><style>
.MsftOfcResponsive_Fill_7823dc {
 fill:#7823DC; 
}
</style>
<g id="Layer_3"></g><g id="Layer_1"></g><g id="Layer_2"></g><g id="Layer_4"></g><g id="Layer_5"><path d="M23.09 23.02 8.95 23.02 8.95 8.89 23.09 8.89 23.09 23.02ZM10.95 21.02 21.09 21.02 21.09 10.89 10.95 10.89 10.95 21.02Z" class="MsftOfcResponsive_Fill_7823dc" fill="#7823DC"/><path d="M19.58 19.58 12.42 19.58 12.42 12.42 19.58 12.42 19.58 19.58ZM14.42 17.58 17.58 17.58 17.58 14.42 14.42 14.42 14.42 17.58Z" class="MsftOfcResponsive_Fill_7823dc" fill="#7823DC"/><rect x="15" y="24.04" width="2" height="3.99" class="MsftOfcResponsive_Fill_7823dc" fill="#7823DC"/><rect x="15" y="3.76" width="2" height="4.2" class="MsftOfcResponsive_Fill_7823dc" fill="#7823DC"/><rect x="3.89" y="15" width="4.06" height="2" class="MsftOfcResponsive_Fill_7823dc" fill="#7823DC"/><rect x="24.09" y="15" width="3.95" height="2" class="MsftOfcResponsive_Fill_7823dc" fill="#7823DC"/><path d="M7.95 12.93 4.87 12.93 1.89 10.29 3.21 8.79 5.63 10.93 7.95 10.93Z" class="MsftOfcResponsive_Fill_7823dc" fill="#7823DC"/><path d="M27.11 12.93 24.09 12.93 24.09 10.93 26.36 10.93 28.8 8.79 30.12 10.29Z" class="MsftOfcResponsive_Fill_7823dc" fill="#7823DC"/><path d="M28.81 23.2 26.28 21.05 24.09 21.05 24.09 19.05 27.01 19.05 30.1 21.67Z" class="MsftOfcResponsive_Fill_7823dc" fill="#7823DC"/><path d="M3.22 23.36 1.88 21.88 4.99 19.05 7.95 19.05 7.95 21.05 5.77 21.05Z" class="MsftOfcResponsive_Fill_7823dc" fill="#7823DC"/><path d="M10.38 30.04 8.88 28.73 11.02 26.29 11.02 24.04 13.02 24.04 13.02 27.04Z" class="MsftOfcResponsive_Fill_7823dc" fill="#7823DC"/><path d="M21.89 30.3 18.99 27.14 18.99 24.04 20.99 24.04 20.99 26.36 23.36 28.95Z" class="MsftOfcResponsive_Fill_7823dc" fill="#7823DC"/><path d="M21.01 7.96 19.01 7.96 19.01 5.01 21.69 1.92 23.21 3.23 21.01 5.76Z" class="MsftOfcResponsive_Fill_7823dc" fill="#7823DC"/><path d="M13.05 7.96 11.05 7.96 11.05 5.66 8.84 3.25 10.31 1.89 13.05 4.88Z" class="MsftOfcResponsive_Fill_7823dc" fill="#7823DC"/><g><circle cx="8.86" cy="1.8" r="0.84" class="MsftOfcResponsive_Fill_7823dc" fill="#7823DC"/><path d="M8.87 3.64C8.11 3.64 7.4 3.17 7.13 2.41 6.79 1.46 7.3 0.41 8.25 0.07 9.2-0.27 10.26 0.24 10.59 1.19 10.93 2.15 10.42 3.2 9.47 3.54 9.28 3.61 9.07 3.64 8.87 3.64ZM8.86 1.64C8.84 1.64 8.82 1.64 8.81 1.65 8.73 1.68 8.68 1.77 8.71 1.86 8.74 1.94 8.83 1.99 8.92 1.96 9 1.93 9.05 1.84 9.02 1.75 8.99 1.68 8.93 1.64 8.86 1.64Z" class="MsftOfcResponsive_Fill_7823dc" fill="#7823DC"/></g><g><circle cx="23.16" cy="1.8" r="0.84" class="MsftOfcResponsive_Fill_7823dc" fill="#7823DC"/><path d="M23.16 3.64C22.89 3.64 22.62 3.58 22.37 3.46 21.93 3.25 21.59 2.88 21.43 2.41 21.09 1.45 21.6 0.4 22.55 0.06 23.01-0.1 23.51-0.08 23.95 0.13 24.39 0.34 24.73 0.71 24.89 1.18 25.23 2.14 24.72 3.19 23.77 3.53 23.57 3.61 23.36 3.64 23.16 3.64ZM23.16 1.64C23.14 1.64 23.12 1.64 23.11 1.65 23.03 1.68 22.98 1.77 23.01 1.86 23.04 1.94 23.13 1.99 23.22 1.96 23.3 1.93 23.35 1.84 23.32 1.76 23.29 1.68 23.22 1.64 23.16 1.64Z" class="MsftOfcResponsive_Fill_7823dc" fill="#7823DC"/></g><g><circle cx="30.18" cy="8.82" r="0.84" class="MsftOfcResponsive_Fill_7823dc" fill="#7823DC"/><path d="M30.18 10.66C29.91 10.66 29.64 10.6 29.39 10.48 28.95 10.27 28.61 9.9 28.45 9.43 28.11 8.47 28.62 7.42 29.57 7.08 30.03 6.92 30.53 6.94 30.98 7.15 31.42 7.36 31.76 7.73 31.92 8.2 32.26 9.16 31.75 10.21 30.8 10.54L30.8 10.54C30.6 10.63 30.39 10.66 30.18 10.66ZM30.13 8.67C30.05 8.7 30 8.79 30.03 8.87 30.06 8.96 30.15 9 30.24 8.97 30.32 8.94 30.37 8.85 30.34 8.76 30.31 8.68 30.21 8.64 30.13 8.67Z" class="MsftOfcResponsive_Fill_7823dc" fill="#7823DC"/></g><g><circle cx="30.18" cy="23.08" r="0.84" class="MsftOfcResponsive_Fill_7823dc" fill="#7823DC"/><path d="M30.18 24.92C29.91 24.92 29.64 24.86 29.39 24.74 28.95 24.53 28.61 24.16 28.45 23.69 28.29 23.23 28.31 22.73 28.53 22.28 28.74 21.84 29.11 21.5 29.58 21.34 30.04 21.18 30.54 21.2 30.99 21.41 31.43 21.62 31.77 21.99 31.93 22.46 32.27 23.42 31.76 24.47 30.81 24.8 30.6 24.88 30.39 24.92 30.18 24.92ZM30.18 22.91C30.16 22.91 30.14 22.91 30.13 22.92 30.05 22.95 30 23.04 30.03 23.12 30.06 23.19 30.16 23.25 30.24 23.22 30.32 23.19 30.37 23.1 30.34 23.01 30.31 22.96 30.25 22.91 30.18 22.91Z" class="MsftOfcResponsive_Fill_7823dc" fill="#7823DC"/></g><g><circle cx="23.08" cy="30.14" r="0.84" class="MsftOfcResponsive_Fill_7823dc" fill="#7823DC"/><path d="M23.08 31.98C22.81 31.98 22.54 31.92 22.29 31.8 21.85 31.59 21.51 31.22 21.35 30.75 21.01 29.79 21.52 28.74 22.47 28.4 23.42 28.06 24.48 28.57 24.82 29.52 24.98 29.98 24.96 30.48 24.75 30.93 24.54 31.38 24.17 31.71 23.7 31.87 23.5 31.94 23.29 31.98 23.08 31.98ZM23.07 29.98C23.06 29.98 23.04 29.98 23.03 29.99 22.96 30.01 22.91 30.12 22.93 30.2 22.96 30.28 23.05 30.33 23.13 30.3 23.22 30.27 23.26 30.18 23.23 30.1 23.21 30.03 23.14 29.98 23.07 29.98Z" class="MsftOfcResponsive_Fill_7823dc" fill="#7823DC"/></g><g><circle cx="8.76" cy="30.14" r="0.84" class="MsftOfcResponsive_Fill_7823dc" fill="#7823DC"/><path d="M8.77 31.98C8.01 31.98 7.3 31.51 7.04 30.75 6.88 30.29 6.9 29.79 7.11 29.34 7.32 28.89 7.69 28.56 8.16 28.4 9.12 28.06 10.17 28.57 10.5 29.52 10.66 29.98 10.64 30.48 10.43 30.93 10.22 31.38 9.85 31.71 9.38 31.87L9.38 31.87C9.17 31.94 8.97 31.98 8.77 31.98ZM8.71 29.99C8.64 30.02 8.59 30.12 8.61 30.2 8.64 30.28 8.73 30.33 8.81 30.3 8.9 30.27 8.94 30.18 8.91 30.09 8.89 30.01 8.78 29.96 8.71 29.99L8.71 29.99Z" class="MsftOfcResponsive_Fill_7823dc" fill="#7823DC"/></g><g><circle cx="1.8" cy="23.45" r="0.84" class="MsftOfcResponsive_Fill_7823dc" fill="#7823DC"/><path d="M1.8 25.29C1.53 25.29 1.26 25.23 1.01 25.11 0.57 24.9 0.23 24.53 0.07 24.06-0.09 23.6-0.07 23.1 0.15 22.65 0.36 22.21 0.73 21.87 1.2 21.71 1.66 21.55 2.16 21.57 2.61 21.78 3.06 21.99 3.39 22.36 3.55 22.83 3.71 23.29 3.69 23.79 3.47 24.24 3.26 24.68 2.89 25.02 2.42 25.18L2.42 25.18C2.22 25.26 2.01 25.29 1.8 25.29ZM1.75 23.3C1.68 23.33 1.63 23.43 1.65 23.51 1.68 23.58 1.78 23.64 1.86 23.61 1.94 23.58 1.99 23.49 1.96 23.4 1.93 23.33 1.82 23.27 1.75 23.3Z" class="MsftOfcResponsive_Fill_7823dc" fill="#7823DC"/></g><g><circle cx="1.8" cy="8.92" r="0.84" class="MsftOfcResponsive_Fill_7823dc" fill="#7823DC"/><path d="M1.81 10.76C1.05 10.76 0.34 10.29 0.07 9.53-0.27 8.57 0.24 7.52 1.19 7.18 1.65 7.02 2.15 7.05 2.6 7.26 3.04 7.47 3.37 7.84 3.54 8.3 3.88 9.26 3.37 10.31 2.42 10.65L2.42 10.65C2.21 10.72 2.01 10.76 1.81 10.76ZM1.75 8.76C1.67 8.79 1.62 8.88 1.65 8.96 1.68 9.03 1.78 9.08 1.86 9.06L1.75 8.76ZM1.8 8.76C1.78 8.76 1.76 8.76 1.75 8.77L1.86 9.07C1.94 9.04 1.99 8.95 1.96 8.86 1.93 8.8 1.87 8.76 1.8 8.76Z" class="MsftOfcResponsive_Fill_7823dc" fill="#7823DC"/></g></g></svg>