<svg viewBox="0 0 32 32" xmlns="http://www.w3.org/2000/svg" xmlns:xlink="http://www.w3.org/1999/xlink" id="Graphic" overflow="hidden"><style>
.MsftOfcResponsive_Fill_7823dc {
 fill:#7823DC; 
}
</style>
<defs></defs><path d="M16.7778 6.959 16.7778 3.05371C17.6705 3.24858 18.3492 3.97589 18.4819 4.87988L18.5737 5.29588 20.5913 5.29588 20.4888 4.67869C20.2553 2.76652 18.6994 1.28803 16.7778 1.15232L16.7778-0.02051 14.7749-0.02051 14.7749 1.12695C12.9194 1.41995 11.0933 2.64453 11.0933 4.84082 11.0933 7.16699 12.4907 8.02246 14.7749 8.54297L14.7749 12.9209C13.649 12.6886 12.8101 11.7432 12.7134 10.5977L12.644 10.1475 10.6333 10.1475 10.6909 10.7305C10.8727 12.91 12.5963 14.6428 14.7749 14.8359L14.7749 32 16.7778 32 16.7778 14.8867C19.312 14.626 20.8638 13.1152 20.8638 10.8555 20.8638 8.11133 18.979 7.39062 16.7778 6.959ZM16.7778 13.0196 16.7778 8.96582C18.3774 9.35645 18.8374 9.83982 18.8374 10.9531 18.8374 12.3457 17.8159 12.8584 16.7778 13.0195ZM14.7749 3.01562 14.7749 6.541C13.3413 6.1367 13.0679 5.62889 13.0679 4.79393 13.1094 3.85651 13.84 3.09541 14.7749 3.01562Z" class="MsftOfcResponsive_Fill_7823dc" fill="#7823DC"/><path d="M22.9128 18.0785C23.1163 18.0785 23.3248 18.0835 23.54 18.0922 24.748 18.198 25.9467 18.3919 27.1265 18.6722 26.7981 19.8395 26.3849 20.9813 25.8901 22.0884 25.2865 23.5184 24.2022 24.6925 22.8247 25.4077 22.0838 25.8018 21.2562 26.0048 20.4169 25.9983 19.1174 25.98 17.8609 25.5295 16.8458 24.7178 16.4148 22.5688 17.3247 20.3723 19.1491 19.1576 20.259 18.411 21.576 18.0334 22.9128 18.0785M22.9128 16.0785C21.2041 16.0339 19.5228 16.5151 18.0964 17.457 15.3676 19.2733 14.1213 22.642 15.0109 25.797 16.4739 27.1816 18.4029 27.9671 20.4169 27.9983 21.5972 28.004 22.76 27.7138 23.7992 27.1543 25.524 26.243 26.8901 24.7752 27.6755 22.9895 28.4682 21.1136 29.1178 19.1803 29.6188 17.2064 27.6502 16.6848 25.6449 16.3128 23.6202 16.0937 23.3777 16.084 23.1424 16.0785 22.9128 16.0785Z" class="MsftOfcResponsive_Fill_7823dc" fill="#7823DC"/><path d="M8.647 18.0785C9.98378 18.0334 11.3007 18.411 12.4105 19.1576 14.235 20.3723 15.1449 22.5688 14.7138 24.7178 13.6988 25.5295 12.4423 25.98 11.1428 25.9983 10.3035 26.0048 9.47589 25.8018 8.73492 25.4077 7.35738 24.6925 6.27311 23.5183 5.66961 22.0883 5.17502 20.9812 4.76186 19.8395 4.43342 18.6723 5.6132 18.3919 6.81187 18.198 8.01987 18.0922 8.23481 18.0835 8.44339 18.0785 8.647 18.0785M8.64683 16.0785C8.4173 16.0785 8.18198 16.084 7.93951 16.0938 5.91477 16.3128 3.90951 16.6848 1.94089 17.2064 2.44188 19.1804 3.09148 21.1136 3.88415 22.9895 4.66954 24.7752 6.03561 26.243 7.76047 27.1543 8.79966 27.7138 9.96249 28.004 11.1427 27.9983 13.1567 27.9671 15.0858 27.1816 16.5487 25.797 17.4384 22.642 16.1921 19.2733 13.4632 17.457 12.0368 16.5151 10.3556 16.0339 8.6468 16.0785Z" class="MsftOfcResponsive_Fill_7823dc" fill="#7823DC"/></svg>