<svg viewBox="0 0 32 32" xmlns="http://www.w3.org/2000/svg" xmlns:xlink="http://www.w3.org/1999/xlink" id="Layer_1" xml:space="preserve" overflow="hidden"><g><path d="" fill="#7823DC"/><path d="M16 16.2 14 16.2 14 30 16 30 16 16.2 16 16.2 16 16.2Z" fill="#7823DC" fill-rule="evenodd" clip-rule="evenodd"/><path d="M25.2 21.1 0.1 21.1 0.1 23.1 28.2 23.1 28.2 21.8 25.2 21.1 25.2 21.1 25.2 21.1Z" fill="#7823DC" fill-rule="evenodd" clip-rule="evenodd"/><path d="M29.9 24.2 27.9 24.2 27.9 26.2 29.9 26.2 29.9 24.2 29.9 24.2 29.9 24.2Z" fill="#7823DC" fill-rule="evenodd" clip-rule="evenodd"/><path d="M24.1 28.1C24.6 28.1 25.1 28.5 25.1 29.1 25.1 29.6 24.7 30.1 24.1 30.1 23.6 30.1 23.1 29.7 23.1 29.1 23.1 28.5 23.6 28.1 24.1 28.1M24.1 26.1C22.4 26.1 21.1 27.4 21.1 29.1 21.1 30.8 22.4 32.1 24.1 32.1 25.8 32.1 27.1 30.9 27.1 29.2 27.1 27.5 25.8 26.1 24.1 26.1L24.1 26.1 24.1 26.1 24.1 26.1Z" fill="#7823DC" fill-rule="evenodd" clip-rule="evenodd"/><path d="M6.2 28.1C6.7 28.1 7.2 28.5 7.2 29.1 7.2 29.6 6.8 30.1 6.2 30.1 5.7 30.1 5.2 29.7 5.2 29.1 5.3 28.5 5.7 28.1 6.2 28.1M6.2 26.1C4.5 26.1 3.2 27.4 3.2 29.1 3.2 30.8 4.5 32.1 6.2 32.1 7.9 32.1 9.2 30.8 9.2 29.1L9.2 29.1C9.2 27.5 7.9 26.1 6.2 26.1L6.2 26.1 6.2 26.1 6.2 26.1Z" fill="#7823DC" fill-rule="evenodd" clip-rule="evenodd"/><path d="M8 28.2 22.4 28.2 22.4 30.2 8 30.2Z" fill="#7823DC" fill-rule="evenodd" clip-rule="evenodd"/><path d="M25.6 28.2 31.1 28.2 31.1 30.2 25.6 30.2Z" fill="#7823DC" fill-rule="evenodd" clip-rule="evenodd"/><path d="M2.1 28.2 2.1 21.8 0.1 21.8 0.1 26.1 0.1 30.2 4.1 30.2 5.1 30.2 5.1 28.2 2.1 28.2 2.1 28.2Z" fill="#7823DC" fill-rule="evenodd" clip-rule="evenodd"/></g><path d="M25.7 20.2 21.6 15.2 6.7 15.2 2.4 21.4 4 22.5 7.8 17.2 20.7 17.2 24.5 22 29.9 23.6 29.9 30.2 31.9 30.2 31.9 22.2 25.7 20.2 25.7 20.2Z" fill="#7823DC" fill-rule="evenodd" clip-rule="evenodd"/><g><path d="M31.3 11.5 30.3 11.5C30.3 6.1 25.9 1.6 20.5 1.6L20.5 0.6C26.4 0.7 31.3 5.5 31.3 11.5L31.3 11.5Z" fill="#7823DC" fill-rule="evenodd" clip-rule="evenodd"/><path d="M31.8 12 29.8 12 29.8 11.5C29.8 6.3 25.6 2.1 20.5 2.1L20 2.1 20 0.1 20.5 0.1C26.7 0.2 31.8 5.3 31.8 11.5L31.8 12ZM30.8 11 30.8 11C30.7 8.6 29.8 6.4 28.3 4.7 29.7 6.4 30.7 8.6 30.8 11ZM21 1.1C22.1 1.1 23.1 1.4 24.1 1.7 23.1 1.4 22.1 1.2 21 1.1L21 1.1Z" fill="#7823DC"/></g><g><path d="M28.3 11.5 27.3 11.5C27.3 7.7 24.2 4.6 20.4 4.6L20.4 3.6C24.8 3.6 28.3 7.2 28.3 11.5L28.3 11.5Z" fill="#7823DC" fill-rule="evenodd" clip-rule="evenodd"/><path d="M28.8 12 26.8 12 26.8 11.5C26.8 8 23.9 5.1 20.4 5.1L19.9 5.1 19.9 3.1 20.4 3.1C25 3.1 28.8 6.9 28.8 11.5L28.8 12ZM27.8 11 27.8 11C27.6 7.3 24.6 4.3 20.9 4.1L20.9 4.1C24.6 4.4 27.5 7.3 27.8 11Z" fill="#7823DC"/></g><g><path d="M25.4 11.5 24.4 11.5C24.4 9.3 22.6 7.6 20.5 7.6L20.5 6.6C23.2 6.6 25.4 8.8 25.4 11.5L25.4 11.5Z" fill="#7823DC" fill-rule="evenodd" clip-rule="evenodd"/><path d="M25.9 12 23.9 12 23.9 11.5C23.9 9.6 22.4 8.1 20.5 8.1L20 8.1 20 6.1 20.5 6.1C23.5 6.1 25.9 8.5 25.9 11.5L25.9 12ZM24.9 11 24.9 11C24.7 9 23 7.3 21 7.1L21 7.1C23 7.4 24.6 9 24.9 11Z" fill="#7823DC"/></g><g><path d="M20.4 13.5C19.3 13.5 18.4 12.6 18.4 11.5 18.4 10.4 19.3 9.5 20.4 9.5 21.5 9.5 22.4 10.4 22.4 11.5 22.4 12.6 21.5 13.5 20.4 13.5L20.4 13.5ZM20.4 10.5C19.8 10.5 19.4 10.9 19.4 11.5 19.4 12.1 19.8 12.5 20.4 12.5 21 12.5 21.4 12.1 21.4 11.5 21.4 11 20.9 10.5 20.4 10.5L20.4 10.5Z" fill="#7823DC" fill-rule="evenodd" clip-rule="evenodd"/><path d="M20.4 14C19 14 17.9 12.9 17.9 11.5 17.9 10.1 19 9 20.4 9 21.8 9 22.9 10.1 22.9 11.5 22.9 12.9 21.8 14 20.4 14ZM20.4 10C19.6 10 18.9 10.7 18.9 11.5 18.9 12.3 19.6 13 20.4 13 21.2 13 21.9 12.3 21.9 11.5 21.9 10.7 21.2 10 20.4 10ZM20.4 13C19.5 13 18.9 12.4 18.9 11.5 18.9 10.6 19.5 10 20.4 10 21.2 10 21.9 10.7 21.9 11.5 21.9 12.4 21.3 13 20.4 13ZM20.4 11C20.1 11 19.9 11.2 19.9 11.5 19.9 11.8 20.1 12 20.4 12 20.7 12 20.9 11.8 20.9 11.5 20.9 11.3 20.6 11 20.4 11Z" fill="#7823DC"/></g><path d="" fill="#7823DC" fill-rule="evenodd" clip-rule="evenodd"/></svg>