<svg viewBox="0 0 32 32" xmlns="http://www.w3.org/2000/svg" xmlns:xlink="http://www.w3.org/1999/xlink" id="Layer_1" xml:space="preserve" overflow="hidden"><style>
.MsftOfcResponsive_Fill_7823dc {
 fill:#7823DC; 
}
</style>
<g><g id="Layer_2_00000153672027410828584440000004318808627006363015_"></g><g id="Layer_2_00000103981120671582451330000015814750687241510044_"></g><path d="M22.3 28.1 10.5 28.1 10.5 5.3 6.8-0.1 22.3-0.1 22.3 28.1ZM12.8 25.9 20 25.9 20 2.1 11 2.1 12.7 4.6 12.7 25.9Z" class="MsftOfcResponsive_Fill_7823dc" fill="#7823DC"/><path d="M24.3 32 8.6 32 8.6 26 24.2 26 24.3 32ZM10.6 30 22.2 30 22.2 28.1 10.6 28.1 10.6 30Z" class="MsftOfcResponsive_Fill_7823dc" fill="#7823DC"/><rect x="7.2" y="29.9" width="18.2" height="2.1" class="MsftOfcResponsive_Fill_7823dc" fill="#7823DC"/><rect x="12.2" y="5.9" width="3" height="2.3" class="MsftOfcResponsive_Fill_7823dc" fill="#7823DC"/><rect x="12.2" y="9.9" width="3" height="2.3" class="MsftOfcResponsive_Fill_7823dc" fill="#7823DC"/><rect x="12.2" y="13.9" width="3" height="2.3" class="MsftOfcResponsive_Fill_7823dc" fill="#7823DC"/></g></svg>