<svg viewBox="0 0 32 32" xmlns="http://www.w3.org/2000/svg" xmlns:xlink="http://www.w3.org/1999/xlink" id="Graphic" overflow="hidden"><defs></defs><path d="M7.10645 28.2754C2.77024 25.5246 0.147329 20.7425 0.1582 15.6074L0.16406 15.4814C0.194489 7.18726 6.9429 0.488189 15.2371 0.518618 20.3492 0.537373 25.1007 3.15535 27.8477 7.4668 28.6084 8.65723 29.6367 12.1562 30.9043 17.8662L28.9512 18.2998C27.2978 10.8447 26.4502 8.99316 26.1621 8.54297 22.2989 2.47853 14.251 0.694074 8.18652 4.55728 4.43432 6.94753 2.16238 11.0883 2.16211 15.5371L2.15625 15.6631C2.16324 20.0965 4.43665 24.2186 8.18262 26.5898Z" fill="#7823DC"/><circle cx="21.1602" cy="13.5173" r="1.99977" fill="#7823DC"/><path d="M25.6856 30.5093 16.9122 30.5093 14.9122 28.5093 14.9122 17.1284 30.7472 17.1284 31.7267 21.7349ZM16.9122 28.5093 24.6348 28.5093 29.5918 21.3091 29.128 19.1284 16.9122 19.1284Z" fill="#7823DC"/><rect x="9.1754" y="4.27886" width="1.99979" height="16.2255" fill="#7823DC" transform="matrix(0.707077 -0.707137 0.707137 0.707077 -5.78198 10.8251)"/></svg>