<svg viewBox="0 0 32 32" xmlns="http://www.w3.org/2000/svg" xmlns:xlink="http://www.w3.org/1999/xlink" id="Layer_1" overflow="hidden"><style>
.MsftOfcResponsive_Fill_7823dc {
 fill:#7823DC; 
}
</style>
<g><path d="M25.4 20.2 29.7 20.2C28.7 15.7 27.3 9.5 26.4 8.1 24 4.2 19.8 1.9 15.3 1.9 15.3 1.9 15.3 1.9 15.2 1.9 8 2 2.1 8 2.1 15.2L2.1 15.3C2.1 19.8 4.4 24 8.2 26.4L7.1 28.1C2.7 25.3 0 20.5 0 15.3L0 15.2C0 6.9 6.7 0 15.1 0 20.4 0 25.2 2.7 27.9 7.1 29.3 9.4 31.4 19.9 31.7 21.1L32 22.3 26.2 22.3" class="MsftOfcResponsive_Fill_7823dc" fill="#7823DC" fill-rule="evenodd" clip-rule="evenodd"/><path d="M26.5 31.8 17.2 31.8 17.2 29.8 24.5 29.8 24.5 20.2 26.5 20.2 26.5 31.8Z" class="MsftOfcResponsive_Fill_7823dc" fill="#7823DC" fill-rule="evenodd" clip-rule="evenodd"/></g><path d="M12.4 12.9 13.5 15.3 11.1 16.4 10 14 12.4 12.9M13.4 10.2 7.4 13.1 10.2 19.2 16.2 16.3 13.4 10.2 13.4 10.2 13.4 10.2Z" class="MsftOfcResponsive_Fill_7823dc" fill="#7823DC" fill-rule="evenodd" clip-rule="evenodd"/><path d="M16.7 7.9 20.2 15.3 15.7 15.2 13.9 11.4 16.7 7.9M17.1 4.1 11.6 11.1 14.4 17.1 23.3 17.3 17.1 4.1 17.1 4.1 17.1 4.1Z" class="MsftOfcResponsive_Fill_7823dc" fill="#7823DC" fill-rule="evenodd" clip-rule="evenodd"/><rect x="7" y="14" width="2" height="5" class="MsftOfcResponsive_Fill_7823dc" fill="#7823DC" transform="matrix(0.9034 -0.4287 0.4287 0.9034 -6.3099 5.0175)"/><path d="M18.3 23.1 14.2 25 10.4 16.9 14.5 15 18.3 23.1ZM15.2 22.3 15.7 22.1 13.6 17.6 13 17.9 15.2 22.3Z" class="MsftOfcResponsive_Fill_7823dc" fill="#7823DC"/></svg>