<svg viewBox="0 0 32.03 32" xmlns="http://www.w3.org/2000/svg" xmlns:xlink="http://www.w3.org/1999/xlink" id="Layer_1" overflow="hidden"><style>
.MsftOfcResponsive_Fill_7823dc {
 fill:#7823DC; 
}
</style>
<path d="M12.75 9.41C10.5 7.7 7.14 7.7 4.89 9.41L3.68 7.82C5.15 6.7 6.98 6.09 8.82 6.09 10.66 6.09 12.49 6.7 13.96 7.82L12.75 9.41Z" class="MsftOfcResponsive_Fill_7823dc" fill="#7823DC"/><path d="M16.4 6.53C14.23 4.9 11.53 4 8.82 4 6.11 4 3.41 4.9 1.24 6.53L0.04 4.92C2.56 3.03 5.68 2 8.82 2 11.96 2 15.08 3.04 17.6 4.92L16.4 6.52Z" class="MsftOfcResponsive_Fill_7823dc" fill="#7823DC"/><path d="M10.25 12.48C9.33 11.84 8.32 11.84 7.4 12.48L6.24 10.85C7.87 9.72 9.79 9.72 11.39 10.85L10.25 12.49Z" class="MsftOfcResponsive_Fill_7823dc" fill="#7823DC"/><rect x="26" y="8" width="2" height="6" class="MsftOfcResponsive_Fill_7823dc" fill="#7823DC"/><path d="M32.03 32 26.6 32 23.11 29.17 24.37 27.61 27.31 30 30.02 30 29.99 2 25.87 2 22 5.11 22 15.92 20 15.92 20 4.15 25.17 0 31.99 0 32.03 32Z" class="MsftOfcResponsive_Fill_7823dc" fill="#7823DC"/><circle cx="27" cy="5" r="1" class="MsftOfcResponsive_Fill_7823dc" fill="#7823DC"/><path d="M21.57 29.78C20.11 29.78 18.61 29.32 17.39 28.49L11.58 28.49C10.22 29.34 8.82 29.78 7.43 29.78 3.26 29.78 1.77636e-15 26.52 1.77636e-15 22.35 1.77636e-15 18.18 3.26 14.92 7.43 14.92 8.89 14.92 10.39 15.38 11.61 16.21L17.42 16.21C18.78 15.36 20.18 14.92 21.57 14.92 25.74 14.92 29 18.18 29 22.35 29 26.52 25.74 29.78 21.57 29.78ZM10.98 26.49 18.04 26.49 18.31 26.69C19.22 27.37 20.43 27.77 21.57 27.77 24.61 27.77 27 25.39 27 22.34 27 19.29 24.62 16.91 21.57 16.91 20.48 16.91 19.4 17.28 18.27 18.03L18.02 18.2 10.96 18.2 10.69 18C9.78 17.32 8.57 16.92 7.43 16.92 4.39 16.92 2 19.3 2 22.35 2 25.4 4.38 27.78 7.43 27.78 8.52 27.78 9.6 27.41 10.73 26.66L10.98 26.49Z" class="MsftOfcResponsive_Fill_7823dc" fill="#7823DC"/><rect x="6.18" y="19.78" width="2" height="5.14" class="MsftOfcResponsive_Fill_7823dc" fill="#7823DC"/><rect x="4.61" y="21.35" width="5.14" height="2" class="MsftOfcResponsive_Fill_7823dc" fill="#7823DC"/><circle cx="24.2" cy="22.35" r="1.2" class="MsftOfcResponsive_Fill_7823dc" fill="#7823DC"/><circle cx="22.2" cy="20" r="1.2" class="MsftOfcResponsive_Fill_7823dc" fill="#7823DC"/><circle cx="22.2" cy="24.78" r="1.2" class="MsftOfcResponsive_Fill_7823dc" fill="#7823DC"/><circle cx="20.2" cy="22.35" r="1.2" class="MsftOfcResponsive_Fill_7823dc" fill="#7823DC"/></svg>