<svg viewBox="0 0 32 32" xmlns="http://www.w3.org/2000/svg" xmlns:xlink="http://www.w3.org/1999/xlink" id="Layer_2_1_" xml:space="preserve" overflow="hidden"><g><path d="M15.4 10.8 6.4 10.8 6.4 0 15.4 0 15.4 10.8 15.4 10.8 15.4 10.8ZM8.3 8.8 13.4 8.8 13.4 2 8.3 2 8.3 8.8 8.3 8.8 8.3 8.8Z" fill="#7823DC" fill-rule="evenodd" clip-rule="evenodd"/><path d="M8.5 18.2C8.3 18.2 8.2 18.2 8 18.1 7.7 17.9 7.5 17.6 7.5 17.2L7.5 8.8 14.1 8.8 14.1 17.2C14.1 17.6 13.9 17.9 13.6 18.1 13.3 18.3 12.9 18.2 12.6 18 11.6 17.3 10.1 17.3 9.1 18 9 18.1 8.8 18.2 8.5 18.2L8.5 18.2ZM10.8 15.5C11.3 15.5 11.7 15.6 12.1 15.7L12.1 10.9 9.5 10.9 9.5 15.7C10 15.5 10.4 15.5 10.8 15.5L10.8 15.5Z" fill="#7823DC" fill-rule="evenodd" clip-rule="evenodd"/><path d="M10.8 25.5C9.5 25.5 8.2 25 7.3 24 5.7 22.4 5.4 20.1 6.4 18 6.8 17.2 7.5 16.5 8.3 16.1 10.4 15.1 12.8 15.4 14.4 17 16 18.6 16.3 20.9 15.3 23 14.9 23.8 14.2 24.5 13.4 24.9L13.4 24.9C12.5 25.3 11.7 25.5 10.8 25.5L10.8 25.5ZM10.8 17.5C9.9 17.5 9.1 17.9 8.6 18.4 7.9 19.1 7.3 20.5 8.1 22 8.4 22.5 8.8 22.9 9.3 23.2 10.8 23.9 12.2 23.4 12.9 22.7 13.6 22 14.2 20.6 13.4 19.1 13.1 18.6 12.7 18.2 12.2 17.9L12.2 17.9C11.8 17.6 11.3 17.5 10.8 17.5L10.8 17.5Z" fill="#7823DC" fill-rule="evenodd" clip-rule="evenodd"/><path d="M17.5 32C17.1 32 16.7 32 16.3 31.9 15.1 31.8 14.3 31.5 13.7 31.3 12.5 30.9 11.5 30.5 8.2 31.1 7 31.3 6 30.9 5.3 29.8 4.4 28.4 4.4 26 5.4 24.6 5.8 24 6.1 23.1 6.3 21.9 6.3 21.6 6.5 21.4 6.7 21.3 6.9 21.1 7.2 21.1 7.4 21.1 7.7 21.1 7.9 21.3 8 21.5 8.2 21.7 8.2 22 8.2 22.2 8 23.9 7.6 25 7 25.9 6.5 26.6 6.5 28.1 7 28.9 7.2 29.2 7.5 29.4 7.8 29.3 11.6 28.6 13 29.1 14.3 29.6 15 29.8 15.5 30 16.4 30.1 18.1 30.2 19.3 30 20.5 29.8 21.7 29.6 23 29.4 24.6 29.5 24.9 29.5 25.2 29.4 25.3 29.3 25.3 29.3 25.4 29.2 25.3 29.1 25.2 28.9 24.7 28.6 23.9 28.6 23.7 28.6 23.5 28.6 23.3 28.6 22.6 28.6 21.8 28.6 21.2 28.5 20.6 28.4 19 28 17.4 27.1 15.3 26 14 24.4 13.4 22.5 13.2 22 13.5 21.4 14.1 21.3 14.4 21.2 14.6 21.2 14.9 21.4 15.1 21.5 15.3 21.7 15.4 22 16.5 25.5 20.8 26.5 21.6 26.6 22 26.7 22.7 26.7 23.2 26.6 23.5 26.6 23.7 26.6 23.9 26.6 25.4 26.6 26.5 27.2 27 28.1 27.4 28.8 27.4 29.7 26.9 30.3 26.4 31.1 25.5 31.5 24.4 31.4 23 31.3 21.9 31.5 20.7 31.7 19.9 31.8 18.8 32 17.5 32L17.5 32ZM14.3 22.3 14.3 22.3 14.3 22.3 14.3 22.3Z" fill="#7823DC" fill-rule="evenodd" clip-rule="evenodd"/></g></svg>