<svg viewBox="0 0 31.95 31.92" xmlns="http://www.w3.org/2000/svg" xmlns:xlink="http://www.w3.org/1999/xlink" id="Layer_1" overflow="hidden"><style>
.MsftOfcResponsive_Fill_7823dc {
 fill:#7823DC; 
}
</style>
<defs></defs><path d="M24.47 13.49 24.47 4.9 15.98 0 7.49 4.9 7.49 13.49 0 17.08 0 26.98 8.49 31.91 15.98 27.56 23.47 31.91 31.96 26.98 31.96 17.08 24.47 13.49ZM9.49 6.05 15.98 2.3 22.47 6.05 22.47 13.54 20.61 14.61 19.3 10.77 12.72 10.77 11.37 14.62 9.49 13.54 9.49 6.05ZM15.98 17.29 13.13 15.64 14.14 12.77 17.87 12.77 18.84 15.63 15.98 17.28ZM5.55 27.89 6.61 25.33 10.44 25.33 11.5 27.85 8.49 29.6 5.55 27.89ZM13.24 26.84 11.76 23.33 5.27 23.33 3.81 26.88 2.01 25.83 2.01 18.34 8.46 15.25 14.99 19.02 14.99 25.83 13.25 26.84ZM20.53 27.89 21.59 25.33 25.42 25.33 26.48 27.85 23.48 29.59 20.54 27.88ZM29.96 25.83 28.22 26.84 26.74 23.33 20.25 23.33 18.79 26.88 16.99 25.83 16.99 19.02 23.52 15.25 29.97 18.34 29.97 25.83Z" class="MsftOfcResponsive_Fill_7823dc" stroke-width="0" fill="#7823DC"/><path d="M15.98 9.81C17.45 9.81 18.65 8.61 18.65 7.14 18.65 5.67 17.45 4.47 15.98 4.47 14.51 4.47 13.31 5.67 13.31 7.14 13.31 8.61 14.51 9.81 15.98 9.81ZM15.98 6.47C16.35 6.47 16.65 6.77 16.65 7.14 16.65 7.51 16.35 7.81 15.98 7.81 15.61 7.81 15.31 7.51 15.31 7.14 15.31 6.77 15.61 6.47 15.98 6.47Z" class="MsftOfcResponsive_Fill_7823dc" stroke-width="0" fill="#7823DC"/><path d="M23.47 17.34C22 17.34 20.8 18.54 20.8 20.01 20.8 21.48 22 22.68 23.47 22.68 24.94 22.68 26.14 21.48 26.14 20.01 26.14 18.54 24.94 17.34 23.47 17.34ZM23.47 20.68C23.1 20.68 22.8 20.38 22.8 20.01 22.8 19.64 23.1 19.34 23.47 19.34 23.84 19.34 24.14 19.64 24.14 20.01 24.14 20.38 23.84 20.68 23.47 20.68Z" class="MsftOfcResponsive_Fill_7823dc" stroke-width="0" fill="#7823DC"/><path d="M8.49 17.34C7.02 17.34 5.82 18.54 5.82 20.01 5.82 21.48 7.02 22.68 8.49 22.68 9.96 22.68 11.16 21.48 11.16 20.01 11.16 18.54 9.96 17.34 8.49 17.34ZM8.49 20.68C8.12 20.68 7.82 20.38 7.82 20.01 7.82 19.64 8.12 19.34 8.49 19.34 8.86 19.34 9.16 19.64 9.16 20.01 9.16 20.38 8.86 20.68 8.49 20.68Z" class="MsftOfcResponsive_Fill_7823dc" stroke-width="0" fill="#7823DC"/></svg>