<svg viewBox="0 0 32 32" xmlns="http://www.w3.org/2000/svg" xmlns:xlink="http://www.w3.org/1999/xlink" id="Layer_1" overflow="hidden"><style>
.MsftOfcThm_Text2_Fill_v2 {
 fill:#7823DC; 
}
</style>
<path d="M19.28 22.87C17.32 22.87 14.82 21.64 12.59 19.41 9.27 16.09 8.17 12.18 10.03 10.32 11.89 8.46 15.8 9.56 19.12 12.88 22.44 16.2 23.54 20.1 21.68 21.97L21.68 21.97C21.07 22.58 20.24 22.87 19.28 22.87ZM12.43 11.43C11.99 11.43 11.65 11.54 11.45 11.74 10.68 12.51 11.28 15.27 14.01 18 16.74 20.73 19.49 21.33 20.27 20.56 21.04 19.79 20.44 17.03 17.71 14.3 15.7 12.29 13.67 11.43 12.43 11.43Z" class="MsftOfcThm_Text2_Fill_v2" fill="#7823DC"/><path d="M3.06 32C2.88 32 2.71 31.98 2.53 31.95 1.91 31.84 1.35 31.55 0.9 31.1 0.45 30.65 0.16 30.09 0.05 29.47-0.06 28.85 0.02 28.22 0.29 27.65L9.3 11.84 11.04 12.83 2.06 28.56C2.01 28.68 1.98 28.9 2.02 29.12 2.06 29.34 2.16 29.53 2.32 29.69 2.48 29.84 2.67 29.95 2.89 29.99 3.11 30.03 3.33 29.99 3.53 29.91L19.19 20.98 20.18 22.72 4.45 31.69C3.98 31.91 3.53 32.01 3.08 32.01Z" class="MsftOfcThm_Text2_Fill_v2" fill="#7823DC"/><path d="M17.91 8.04 16 7.45C16.69 5.21 16.69 2.88 16.69 0.4L16.69 -5.55112e-16 18.69 -5.55112e-16 18.69 0.4C18.69 3.03 18.69 5.52 17.91 8.04Z" class="MsftOfcThm_Text2_Fill_v2" fill="#7823DC"/><rect x="20.57" y="2.72" width="3.72" height="2" class="MsftOfcThm_Text2_Fill_v2" fill="#7823DC" transform="matrix(0.195775 -0.980649 0.980649 0.195775 14.39 24.99)"/><path d="M24.55 16.01 23.96 14.1C26.48 13.32 28.73 13.31 31.56 13.32L32 13.32 32 15.32 31.56 15.32C28.79 15.31 26.78 15.32 24.55 16.01Z" class="MsftOfcThm_Text2_Fill_v2" fill="#7823DC"/><rect x="26.41" y="8.57" width="3.73" height="2" class="MsftOfcThm_Text2_Fill_v2" fill="#7823DC" transform="matrix(0.980546 -0.196288 0.196288 0.980546 -1.33 5.74)"/><path d="M11.1 7.07C10.26 7.07 9.58 6.39 9.58 5.55 9.58 4.71 10.26 4.03 11.1 4.03L11.1 7.06Z" class="MsftOfcThm_Text2_Fill_v2" fill="#7823DC"/><path d="M11.1 7.07 11.1 4.04C11.94 4.04 12.62 4.72 12.62 5.56 12.62 6.4 11.94 7.08 11.1 7.08Z" class="MsftOfcThm_Text2_Fill_v2" fill="#7823DC"/><path d="M21.33 11.45C20.49 11.45 19.81 10.77 19.81 9.93 19.81 9.09 20.49 8.41 21.33 8.41L21.33 11.44Z" class="MsftOfcThm_Text2_Fill_v2" fill="#7823DC"/><path d="M21.33 11.45 21.33 8.42C22.17 8.42 22.85 9.1 22.85 9.94 22.85 10.78 22.17 11.46 21.33 11.46Z" class="MsftOfcThm_Text2_Fill_v2" fill="#7823DC"/><path d="M27.18 5.61C26.34 5.61 25.66 4.93 25.66 4.09 25.66 3.25 26.34 2.57 27.18 2.57L27.18 5.6Z" class="MsftOfcThm_Text2_Fill_v2" fill="#7823DC"/><path d="M27.18 5.61 27.18 2.58C28.02 2.58 28.7 3.26 28.7 4.1 28.7 4.94 28.02 5.62 27.18 5.62Z" class="MsftOfcThm_Text2_Fill_v2" fill="#7823DC"/><path d="M27.18 20.22C26.34 20.22 25.66 19.54 25.66 18.7 25.66 17.86 26.34 17.18 27.18 17.18L27.18 20.21Z" class="MsftOfcThm_Text2_Fill_v2" fill="#7823DC"/><path d="M27.18 20.22 27.18 17.19C28.02 17.19 28.7 17.87 28.7 18.71 28.7 19.55 28.02 20.23 27.18 20.23Z" class="MsftOfcThm_Text2_Fill_v2" fill="#7823DC"/></svg>