<svg viewBox="0 0 32 32" xmlns="http://www.w3.org/2000/svg" xmlns:xlink="http://www.w3.org/1999/xlink" id="Layer_1" overflow="hidden"><style>
.MsftOfcResponsive_Fill_7823dc {
 fill:#7823DC; 
}
</style>
<path d="M0 14 0 29.9 7.2 29.9 7.2 14 0 14ZM5.2 27.8 2.1 27.8 2.1 16.1 5.2 16.1 5.2 27.8Z" class="MsftOfcResponsive_Fill_7823dc" fill="#7823DC"/><rect x="5.2" y="12" width="2" height="20" class="MsftOfcResponsive_Fill_7823dc" fill="#7823DC"/><path d="M20.6 10.5 20.6 12.5 20.6 14.1C20.6 19.7 16 24.3 10.3 24.3L7.2 24.3 7.2 22.3 10.3 22.3C14.9 22.3 18.6 18.6 18.6 14.1L18.6 12 18.6 10.1 19.2 10.1 20.6 10.5Z" class="MsftOfcResponsive_Fill_7823dc" fill="#7823DC"/><path d="M23.7 9.7 23.7 14.6C23.7 21.9 17.7 27.8 10.3 27.8L6.2 27.8 6.2 25.8 10.3 25.8C16.6 25.8 21.7 20.8 21.7 14.6L21.7 10.5C22.4 10.4 23.1 10.2 23.7 9.7Z" class="MsftOfcResponsive_Fill_7823dc" fill="#7823DC"/><path d="M21.1 0C17.7 0 15 2.8 15 6.2 15 8.7 16.5 10.9 18.6 11.8 19.2 12.1 19.9 12.3 20.6 12.3 20.8 12.3 21 12.3 21.1 12.3 21.3 12.3 21.5 12.3 21.6 12.3 22.3 12.2 23 12.1 23.6 11.8 25.8 10.8 27.2 8.7 27.2 6.2 27.3 2.8 24.5 0 21.1 0ZM23.7 9.5C23.1 9.9 22.5 10.2 21.7 10.3 21.5 10.3 21.3 10.3 21.2 10.3 21 10.3 20.8 10.3 20.7 10.3 20.2 10.2 19.7 10.1 19.3 9.8 17.9 9.2 17 7.8 17 6.2 17 3.9 18.8 2 21.1 2 23.4 2 25.3 3.9 25.3 6.2 25.3 7.5 24.7 8.7 23.7 9.5Z" class="MsftOfcResponsive_Fill_7823dc" fill="#7823DC"/></svg>