<svg viewBox="0 0 32 32" xmlns="http://www.w3.org/2000/svg" xmlns:xlink="http://www.w3.org/1999/xlink" id="Layer_1" overflow="hidden"><style>
.MsftOfcResponsive_Fill_7823dc {
 fill:#7823DC; 
}
</style>
<defs></defs><path d="M32 0 0 0 0 2 13.18 2C13.07 2.31 13 2.65 13 3 13 4.05 13.55 4.98 14.37 5.51L12.53 8 10.21 8C8.99 8 8 8.99 8 10.21L8 29.8C8 31.02 8.99 32.01 10.21 32.01L21.8 32.01C23.02 32.01 24.01 31.02 24.01 29.8L24.01 10.21C24.01 8.99 23.02 8 21.8 8L19.38 8 17.62 5.53C18.46 5 19.02 4.07 19.02 3 19.02 2.65 18.95 2.31 18.84 2L32.02 2 32.02 0ZM16 4C15.45 4 15 3.55 15 3 15 2.45 15.45 2 16 2 16.55 2 17 2.45 17 3 17 3.55 16.55 4 16 4ZM10 16 22 16 22 26 10 26 10 16ZM21.79 30 10.2 30C10.09 30 9.99 29.91 9.99 29.79L9.99 28 21.99 28 21.99 29.79C21.99 29.9 21.9 30 21.78 30ZM22 10.21 22 14 10 14 10 10.21C10 10.1 10.09 10 10.21 10L21.8 10C21.91 10 22.01 10.09 22.01 10.21ZM15.02 8 15.98 6.7 16.91 8 15.02 8Z" class="MsftOfcResponsive_Fill_7823dc" fill="#7823DC"/></svg>