<svg viewBox="0 0 32 32" xmlns="http://www.w3.org/2000/svg" xmlns:xlink="http://www.w3.org/1999/xlink" id="Layer_1" overflow="hidden"><style>
.MsftOfcThm_Text2_lumMod_100_Fill_v2 {
 fill:#7823DC; 
}
</style>
<defs></defs><path d="M32 19.02 32 12.98 29.25 12 28.19 9.45 29.44 6.82 25.17 2.55 22.54 3.8 19.99 2.74 19.01-0.01 12.97-0.01 11.99 2.74 9.44 3.8 6.81 2.55 2.55 6.82 3.8 9.45 2.74 12-0.01 12.98-0.01 19.02 2.74 20 3.8 22.55 2.55 25.18 6.82 29.45 9.45 28.2 12 29.26 12.98 32.01 19.02 32.01 20 29.26 22.55 28.2 25.18 29.45 29.45 25.18 28.2 22.55 29.26 20 32.01 19.02ZM27.75 18.41 26.01 22.6 27.04 24.76 24.77 27.03 22.61 26 18.42 27.74 17.62 29.99 14.4 29.99 13.6 27.74 9.41 26 7.25 27.03 4.97 24.76 6 22.6 4.26 18.41 2.01 17.61 2.01 14.39 4.26 13.59 6 9.4 4.97 7.24 7.25 4.97 9.41 6 13.6 4.26 14.4 2.01 17.62 2.01 18.42 4.26 22.61 6 24.77 4.97 27.04 7.24 26.01 9.4 27.75 13.59 30 14.39 30 17.61 27.75 18.41Z" class="MsftOfcThm_Text2_lumMod_100_Fill_v2" stroke-width="0" fill="#7823DC"/><path d="M16 7.01C11.04 7.01 7 11.05 7 16.01 7 20.97 11.04 25.01 16 25.01 20.96 25.01 25 20.97 25 16.01 25 11.05 20.96 7.01 16 7.01ZM16 23.01C12.14 23.01 9 19.87 9 16.01 9 12.15 12.14 9.01 16 9.01 19.86 9.01 23 12.15 23 16.01 23 19.87 19.86 23.01 16 23.01Z" class="MsftOfcThm_Text2_lumMod_100_Fill_v2" stroke-width="0" fill="#7823DC"/><path d="M15 16.07 12 16.07 12 18.07 17 18.07 17 13.07 15 13.07 15 16.07Z" class="MsftOfcThm_Text2_lumMod_100_Fill_v2" stroke-width="0" fill="#7823DC"/></svg>