<svg viewBox="0 0 32 32" xmlns="http://www.w3.org/2000/svg" xmlns:xlink="http://www.w3.org/1999/xlink" id="a" overflow="hidden"><defs><clipPath id="b"><path d="M0 32 32 32 32 0 0 0 0 32 0 32Z" fill="none" clip-rule="evenodd"/></clipPath><clipPath id="c"><path d="M0 32 32 32 32 0 0 0 0 32 0 32Z" fill="none" clip-rule="evenodd"/></clipPath><clipPath id="d"><path d="M0 32 32 32 32 0 0 0 0 32 0 32Z" fill="none" clip-rule="evenodd"/></clipPath><clipPath id="e"><path d="M0 32 32 32 32 0 0 0 0 32 0 32Z" fill="none" clip-rule="evenodd"/></clipPath></defs><path d="M16 2C23.72 2 30 8.28 30 16 30 23.72 23.72 30 16 30 8.28 30 2 23.72 2 16 2 8.28 8.28 2 16 2M16 0C7.16 0 0 7.16 0 16 0 24.84 7.16 32 16 32 24.84 32 32 24.84 32 16 32 7.16 24.84 0 16 0L16 0Z" fill="#7823DC" fill-rule="evenodd"/><path d="M15.97 13.97C17.07 13.97 17.97 14.87 17.97 15.97 17.97 17.07 17.07 17.97 15.97 17.97 14.87 17.97 13.97 17.07 13.97 15.97 13.97 14.87 14.87 13.97 15.97 13.97M15.97 11.97C13.76 11.97 11.97 13.76 11.97 15.97 11.97 18.18 13.76 19.97 15.97 19.97 18.18 19.97 19.97 18.18 19.97 15.97 19.97 13.76 18.18 11.97 15.97 11.97L15.97 11.97Z" fill="#7823DC" fill-rule="evenodd"/><path d="M16.03 24.01C11.6 24.01 7.99 20.43 7.99 16.03L9.99 16.03C9.99 19.32 12.7 22.01 16.03 22.01L16.03 24.01Z" fill="#7823DC"/><g clip-path="url(#b)"><path d="M16.03 27.98C9.41 27.98 4.02 22.62 4.02 16.04L6.02 16.04C6.02 21.52 10.51 25.98 16.03 25.98L16.03 27.98Z" fill="#7823DC"/><g clip-path="url(#c)"><path d="M29.95 0 32 0 32 15.94 29.95 15.94 29.95 0 29.95 0Z" fill="#7823DC" fill-rule="evenodd"/><g clip-path="url(#d)"><path d="M31.3 0 31.3 1.98 16 1.98 16 0 31.3 0 31.3 0Z" fill="#7823DC" fill-rule="evenodd"/><g clip-path="url(#e)"><rect x="17.93" y="6.01" width="14.12" height="2" fill="#7823DC" transform="matrix(0.707107 -0.707107 0.707107 0.707107 2.36 19.72)"/></g></g></g></g></svg>