<svg viewBox="0 0 32 32" xmlns="http://www.w3.org/2000/svg" xmlns:xlink="http://www.w3.org/1999/xlink" id="Layer_1" overflow="hidden"><g><path d="M30 21.5 30 3.1C30 1.3 28.6-0.1 26.8-0.1L25.2-0.1C23.6-0.1 22.3 1 22.1 2.6 22.1 2.8 22.1 2.9 22.1 3.1L22.1 21.6C21.3 22.3 20.7 23.2 20.4 24.3 20.3 24.5 20.3 24.7 20.2 24.9 20.1 25.2 20.1 25.4 20.1 25.7 20.1 25.8 20.1 25.9 20.1 26 20.1 26.2 20.1 26.4 20.1 26.6 20.4 29.6 23 32 26.1 32 29.4 32 32.1 29.3 32.1 26 32 24.2 31.2 22.6 30 21.5ZM26 30C23.8 30 22 28.2 22 26 22 25.8 22 25.6 22 25.5 22.1 24.6 22.6 23.7 23.3 23.1L24 22.5 24 3.1C24 2.4 24.5 1.9 25.2 1.9L26.8 1.9C27.4 1.9 28 2.4 28 3.1L28 22.5 28.7 23.1C29.5 23.9 30 24.9 30 26.1 30 28.2 28.2 30 26 30Z" fill="#7823DC"/><path d="M26 24.1C24.9 24.1 24.1 25 24.1 26 24.1 27 25 27.9 26 27.9 27 27.9 27.9 27 27.9 26 27.9 25 27.1 24.1 26 24.1L26 24.1Z" fill="#7823DC"/><rect x="25" y="15.9" width="2" height="10" fill="#7823DC"/></g><g><path d="M25.8 15.9C25.6 16.9 25.4 17.9 25 18.8L25 22.7C25.8 21.7 26.5 20.5 27 19.2L27 15.9 25.8 15.9ZM14 0C6.3 0 0 6.3 0 14 0 21.7 6.3 28 14 28 16.2 28 18.2 27.5 20 26.6 20.7 26.3 21.4 25.9 22 25.4 22.1 24.5 22.6 23.6 23.3 23L24 22.4 24 20.6C23 22.1 21.8 23.3 20.3 24.2 20.1 24.3 20 24.4 19.9 24.5 19.3 24.8 18.7 25.1 18 25.4 16.8 25.8 15.4 26.1 14 26.1 11 26.1 8.3 25 6.2 23.2 5.6 22.7 5.1 22.2 4.7 21.6 3 19.5 2 16.8 2 14 2 12.1 2.4 10.3 3.2 8.7 3.5 8.1 3.9 7.5 4.3 7 6.5 4 10 2 14 2 14.5 2 15 2 15.6 2.1 16.3 2.2 16.9 2.3 17.6 2.5 19.2 3 20.7 3.9 22 5.1 22.8 5.8 23.4 6.6 24 7.4L24 4.2C23.4 3.6 22.8 3 22 2.5 19.8 0.9 17 0 14 0Z" fill="#7823DC"/><path d="M6.1 23.2 4.3 22.4 6.2 17.6 5.2 13.5 5.7 10.9 2.4 8 3.8 6.5 7.8 10.2 7.2 13.4 8.3 17.8Z" fill="#7823DC"/><path d="M18.9 26.6 14.4 20.9 16.4 16.9 11.1 12.7 14.6 6.9 15.6 1.9 17.6 2.3 16.5 7.6 13.8 12.2 18.9 16.3 16.7 20.6 20.5 25.3Z" fill="#7823DC"/></g><g><g><path d="M60.8 12C61.4 12 62 12.5 62 13.2L62 31.7 62 32.6 62.7 33.2C63.5 34 64 35 64 36.2 64 38.4 62.2 40.2 60 40.2 57.8 40.2 56 38.4 56 36.2 56 35.1 56.5 34 57.3 33.2L58 32.6 58 31.7 58 13.2C58 12.6 58.5 12 59.2 12L60.8 12M60.8 10 59.2 10C57.4 10 56 11.4 56 13.2L56 31.7C54.8 32.8 54 34.4 54 36.2 54 39.5 56.7 42.2 60 42.2 63.3 42.2 66 39.5 66 36.2 66 34.4 65.2 32.8 64 31.7L64 13.2C64 11.4 62.6 10 60.8 10L60.8 10Z" fill="#7823DC"/></g><g><path d="M60 34.2C58.9 34.2 58.1 35.1 58.1 36.1 58.1 37.2 59 38 60 38 61 38 61.9 37.1 61.9 36.1 61.9 35 61.1 34.2 60 34.2L60 34.2Z" fill="#7823DC"/></g><g><line x1="60" y1="26" x2="60" y2="36" stroke="#7823DC" stroke-width="2" stroke-miterlimit="10" fill="none"/></g></g><g><g><path d="M48 12.1C54.6 12.1 60 17.5 60 24.1 60 30.7 54.6 36.1 48 36.1 41.4 36.1 36 30.7 36 24.1 36 17.5 41.4 12.1 48 12.1M48 10.1C40.3 10.1 34 16.4 34 24.1 34 31.8 40.3 38.1 48 38.1 55.7 38.1 62 31.8 62 24.1 62 16.4 55.7 10.1 48 10.1L48 10.1Z" fill="#7823DC"/></g><path d="M37.1 17.4 40.7 20.7 40.2 23.6 41.3 27.8 39.2 32.9" stroke="#7823DC" stroke-width="2" stroke-miterlimit="10" fill="#7823DC"/><path d="M50.6 12.2 49.6 17.4 46.4 22.6 51.6 26.7 49.6 30.9 53.7 36" stroke="#7823DC" stroke-width="2" stroke-miterlimit="10" fill="#7823DC"/></g></svg>