<svg viewBox="0 0 32 32" xmlns="http://www.w3.org/2000/svg" xmlns:xlink="http://www.w3.org/1999/xlink" id="Graphic" overflow="hidden"><style>
.MsftOfcResponsive_Fill_7823dc {
 fill:#7823DC; 
}
</style>
<defs></defs><path d="M27.2406 3.25446 23.0813 3.25458C22.1304 3.25454 21.3595 4.02538 21.3595 4.9763 21.3595 4.97639 21.3595 4.97649 21.3595 4.97658L21.3594 5.35995 27.4324 5.35976 27.4324 7.45923 20.3097 7.45929C19.7283 7.4575 19.2556 7.92732 19.2538 8.50866 19.252 9.09 19.7218 9.56273 20.3032 9.56452 20.3054 9.56453 20.3075 9.56453 20.3097 9.56452L28.3045 9.56452 28.3045 11.6641 19.2585 11.6641C18.6771 11.6659 18.2073 12.1386 18.2091 12.72 18.2109 13.2988 18.6797 13.7676 19.2585 13.7694L28.8278 13.7694 28.8278 15.7972 19.8347 15.8689C19.8347 17.0207 20.7683 17.9544 21.9201 17.9544 21.9267 17.9544 21.9333 17.9544 21.9398 17.9543L27.5024 17.9025 26.3511 19.9382 21.9591 19.9899C20.8588 20.0035 19.7994 19.5735 19.0199 18.7968 18.2138 17.8542 17.7674 16.6566 17.76 15.4163L18.0897 15.5754C16.5103 14.9268 15.7558 13.1206 16.4044 11.5412 16.6537 10.9341 17.0898 10.4221 17.6495 10.0793 16.7837 8.60851 17.2742 6.71436 18.745 5.84861 18.98 5.71025 19.2323 5.60363 19.4954 5.5315L19.3151 5.58658 19.3238 4.97658C19.3238 2.90135 21.0061 1.21903 23.0813 1.21896L25.2348 1.21883Z" class="MsftOfcResponsive_Fill_7823dc" fill="#7823DC"/><path d="M26.219 3.25446 25.066 3.25458C26.0169 3.25454 26.7878 4.02538 26.7879 4.9763 26.7879 4.97639 26.7879 4.97649 26.7879 4.97658L26.7879 5.35995 26.0272 5.35976 26.0272 7.45923 27.8377 7.45929C28.419 7.46108 28.8888 7.93381 28.887 8.51515 28.8853 9.09396 28.4165 9.56274 27.8377 9.56452L25.1551 9.56452 25.1551 11.6641 28.8889 11.6641C29.4702 11.6659 29.9401 12.1386 29.9383 12.72 29.9365 13.2988 29.4677 13.7676 28.8889 13.7694L24.6319 13.7694 24.6319 15.7972 28.3127 15.8689C28.3127 17.0207 27.379 17.9544 26.2273 17.9544 26.2207 17.9544 26.2141 17.9544 26.2075 17.9543L25.8888 17.9767 25.1551 19.9382 26.2202 19.9382C27.3045 19.9707 28.3549 19.5582 29.1275 18.7968 29.9218 17.8593 30.3548 16.6689 30.3484 15.4402L30.0576 15.5754C31.637 14.9268 32.3916 13.1206 31.7429 11.5412 31.4936 10.9341 31.0575 10.4221 30.4979 10.0793 31.3636 8.60851 30.8732 6.71437 29.4024 5.84861 29.1673 5.71025 28.915 5.60363 28.652 5.5315L28.8278 5.58508 28.8236 4.97656C28.8236 2.90131 27.1413 1.21897 25.066 1.21894L25.1551 1.21881Z" class="MsftOfcResponsive_Fill_7823dc" fill="#7823DC"/><path d="M9.227 15.856 7.203 16.66 21.324 30.781 22.738 29.367 9.227 15.856Z" class="MsftOfcResponsive_Fill_7823dc" fill="#7823DC"/><rect x="6.6848" y="15.3234" width="2" height="3.07457" class="MsftOfcResponsive_Fill_7823dc" fill="#7823DC" transform="matrix(6.12323e-17 -1 1 6.12323e-17 -9.1759 24.5455)"/><path d="M20.643 3.256 19.915 3.256 9.981 3.259 7.975 5.269 2.013 5.269 2.013 15.861 8.031 15.864 10.131 17.902 10.638 17.902 11.041 18.634 9.563 18.634 8.773 17.857 2.013 17.857-0.023 15.822-0.023 5.269 2.013 3.233 7.128 3.233 9.056 1.262 19.915 1.22 20.643 1.22 23.773 1.22 23.773 3.256 20.643 3.256Z" class="MsftOfcResponsive_Fill_7823dc" fill="#7823DC"/><path d="M22.4345 29.671 21.029 29.5939 21.029 28.1023 21.0618 28.1388C21.9742 27.3215 22.1558 25.9615 21.4898 24.9334L19.1357 21.2988 19.1133 17.3056 21.2394 19.291 21.2264 20.7425 23.2165 23.815C24.4331 25.6933 24.1014 28.1778 22.4345 29.671Z" class="MsftOfcResponsive_Fill_7823dc" fill="#7823DC"/></svg>