<svg viewBox="0 0 32 32" xmlns="http://www.w3.org/2000/svg" xmlns:xlink="http://www.w3.org/1999/xlink" overflow="hidden"><style>
.MsftOfcResponsive_Fill_7823dc {
 fill:#7823DC; 
}
</style>
<defs></defs><g id="Grid"><path d="M28 8 22 8 24 10 28 10 28 30 8 30 8 24.08 22.5 24.08 22.5 11.92 8 11.92 8 2 20 2 20 6 22 8 22 2 20 0 6 0 6 11.92 2 11.92 2 24.08 6 24.08 6 32 30 32 30 10 30 10ZM4 13.92 20.52 13.92 20.52 22.08 4 22.08Z" class="MsftOfcResponsive_Fill_7823dc" fill="#7823DC"/><path d="M6.68 14.52C6.15427 14.5171 5.62918 14.5572 5.11 14.64L4.79 14.64 4.79 21.38 6.33 21.38 6.33 19C7.20428 19.0908 8.07617 18.8075 8.73 18.22 9.12357 17.7941 9.33216 17.2295 9.31 16.65 9.33193 16.0579 9.09021 15.4866 8.65 15.09 8.08552 14.6647 7.38436 14.4618 6.68 14.52ZM7.77 16.72C7.77 17.33 7.38 17.65 6.61 17.65L6.33 17.65 6.33 15.91 6.7 15.91C7.77 15.89 7.77 16.51 7.77 16.72Z" class="MsftOfcResponsive_Fill_7823dc" fill="#7823DC"/><path d="M11.67 14.52C11.0909 14.5189 10.5125 14.5624 9.94 14.65L9.62 14.65 9.62 21.32 9.96 21.32C10.4483 21.3709 10.9391 21.3943 11.43 21.39 12.5228 21.4657 13.6012 21.1062 14.43 20.39 15.1094 19.6791 15.4704 18.7225 15.43 17.74 15.4703 16.8107 15.1055 15.9095 14.43 15.27 13.6404 14.6749 12.6522 14.4063 11.67 14.52ZM13.81 17.88C13.9397 18.9769 13.1557 19.9713 12.0588 20.1011 11.8997 20.1199 11.739 20.1195 11.58 20.1L11.16 20.1 11.16 15.92C11.3 15.92 11.49 15.92 11.71 15.92 12.2979 15.8726 12.8796 16.0677 13.32 16.46 13.6684 16.8477 13.8451 17.3599 13.81 17.88Z" class="MsftOfcResponsive_Fill_7823dc" fill="#7823DC"/><path d="M15.67 21.43 17.21 21.43 17.21 18.66 19.52 18.66 19.52 17.26 17.21 17.26 17.21 15.97 19.71 15.97 19.71 14.56 15.67 14.56 15.67 21.43Z" class="MsftOfcResponsive_Fill_7823dc" fill="#7823DC"/></g></svg>