<svg viewBox="0 0 32 32" xmlns="http://www.w3.org/2000/svg" xmlns:xlink="http://www.w3.org/1999/xlink" id="Layer_1" overflow="hidden"><style>
.MsftOfcResponsive_Fill_7823dc {
 fill:#7823DC; 
}
</style>
<g><path d="M73.7 24.3 73.4 24.3 73.4 24.6 73.7 24.6 73.7 24.3Z" class="MsftOfcResponsive_Fill_7823dc" fill="#7823DC"/></g><path d="M17 10C19.8 10 22 12.2 22 15L22 30 8 30 8 15C8 12.2 10.2 10 13 10L17 10M17 8 13 8C9.1 8 6 11.1 6 15L6 32 24 32 24 15C24 11.1 20.9 8 17 8L17 8Z" class="MsftOfcResponsive_Fill_7823dc" fill="#7823DC"/><path d="M16 2 16 8 14 8 14 2 16 2M18 0 12 0 12 10 18 10 18 0 18 0Z" class="MsftOfcResponsive_Fill_7823dc" fill="#7823DC"/><path d="M26 2.4 26 6.7 18 5.4 18 3.7 26 2.4M28 0 16 2 16 7 28 9 28 0 28 0Z" class="MsftOfcResponsive_Fill_7823dc" fill="#7823DC"/><path d="M10.5 2C11.3 2 12 2.7 12 3.5 12 4.3 11.3 5 10.5 5 9.7 5 9 4.3 9 3.5 9 2.7 9.7 2 10.5 2M10.5 0C8.6 0 7 1.6 7 3.5 7 5.4 8.6 7 10.5 7 12.4 7 14 5.4 14 3.5 14 1.6 12.4 0 10.5 0L10.5 0Z" class="MsftOfcResponsive_Fill_7823dc" fill="#7823DC"/><path d="M5 9.3 3 8.7 4 5.3 8.6 3.1 9.4 4.9 5.7 6.7Z" class="MsftOfcResponsive_Fill_7823dc" fill="#7823DC"/></svg>