<svg viewBox="0 0 32.75 32" xmlns="http://www.w3.org/2000/svg" xmlns:xlink="http://www.w3.org/1999/xlink" id="Layer_1" overflow="hidden"><style>
.MsftOfcThm_Text2_lumMod_100_Fill_v2 {
 fill:#7823DC; 
}
</style>
<defs></defs><path d="M29.32 28.43C25.89 24.86 23.22 20.72 21.4 16.11L19.81 12 11.51 12C11.51 12 11.28 12.69 11.28 12.69 10.02 16.45 8.34 20.03 6.29 23.4L6.29 16.22C8.4 15.7 9.97 13.8 9.97 11.54L9.97 4.85C9.96 2.17 7.79 0 5.12 0 2.45 0 0.28 2.17 0.28 4.84L0.28 11.53C0.28 13.91 2.01 15.89 4.28 16.29L4.28 26.44C3.8 27.12 3.3 27.8 2.78 28.46L4.44089e-16 32.01 32.75 32.01 29.31 28.44ZM2.28 11.53 2.28 4.84C2.28 3.27 3.55 2 5.12 2 6.69 2 7.96 3.27 7.96 4.84L7.96 11.53C7.96 12.68 7.27 13.67 6.28 14.12L6.28 10.01 4.28 10.01 4.28 14.23C3.13 13.87 2.28 12.8 2.28 11.53ZM4.11 30 4.36 29.69C8.07 24.95 10.96 19.68 12.94 14.01L19.18 14.01C19.18 14.01 18.95 14.73 18.95 14.73 17.28 20.03 14.36 24.95 10.49 28.95L9.47 30.01 4.11 30.01ZM18.94 20.18 18.94 30 12.25 30C14.98 27.11 17.24 23.77 18.94 20.18ZM20.94 30 20.94 19.97C22.74 23.58 25.05 26.88 27.87 29.81L28.05 30 20.94 30Z" class="MsftOfcThm_Text2_lumMod_100_Fill_v2" stroke-width="0" fill="#7823DC"/><path d="M23.34 12.59C23.01 14.43 24.24 16.2 26.08 16.54 26.28 16.58 26.49 16.59 26.69 16.59 28.3 16.59 29.73 15.44 30.03 13.8 30.19 12.91 30 12 29.48 11.26 28.96 10.51 28.19 10.01 27.29 9.85 25.45 9.51 23.68 10.74 23.34 12.59ZM26.93 11.82C27.3 11.89 27.62 12.09 27.83 12.4 28.04 12.71 28.12 13.08 28.06 13.45 27.92 14.21 27.2 14.71 26.44 14.58 25.68 14.44 25.18 13.71 25.31 12.96 25.43 12.29 26.02 11.81 26.68 11.81 26.76 11.81 26.85 11.81 26.93 11.83Z" class="MsftOfcThm_Text2_lumMod_100_Fill_v2" stroke-width="0" fill="#7823DC"/><path d="M13.11 9.94C13.63 10.03 14.13 9.69 14.22 9.17 14.31 8.65 13.97 8.15 13.45 8.06 12.93 7.97 12.43 8.31 12.34 8.83 12.25 9.35 12.59 9.85 13.11 9.94Z" class="MsftOfcThm_Text2_lumMod_100_Fill_v2" stroke-width="0" fill="#7823DC"/><path d="M29.11 5.94C29.63 6.03 30.13 5.69 30.22 5.17 30.31 4.65 29.97 4.15 29.45 4.06 28.93 3.97 28.43 4.31 28.34 4.83 28.25 5.35 28.59 5.85 29.11 5.94Z" class="MsftOfcThm_Text2_lumMod_100_Fill_v2" stroke-width="0" fill="#7823DC"/><path d="M15.84 7.94 24.38 7.94 24.5 7.91C26.22 7.47 27.26 5.93 27.03 4.17 26.83 2.59 25.68 1.45 24.17 1.24 23.37 0.3 22.11-0.12 20.83 0.18 19.77 0.43 18.94 1.1 18.51 2.01 17.37 1.89 16.25 2.35 15.49 3.32 14.47 4.62 14.49 6.34 15.54 7.59L15.84 7.95ZM17.07 4.55C17.41 4.11 18.04 3.78 18.77 4.14L20.08 4.79 20.2 3.33C20.26 2.62 20.8 2.24 21.29 2.13 21.78 2.02 22.42 2.11 22.78 2.72L23.07 3.21 23.64 3.21C23.64 3.21 23.64 3.21 23.65 3.21 24.56 3.21 24.97 3.84 25.04 4.44 25.11 4.99 24.9 5.7 24.11 5.96L16.84 5.96C16.61 5.44 16.78 4.92 17.06 4.57Z" class="MsftOfcThm_Text2_lumMod_100_Fill_v2" stroke-width="0" fill="#7823DC"/></svg>