<svg viewBox="0 0 32 32" xmlns="http://www.w3.org/2000/svg" xmlns:xlink="http://www.w3.org/1999/xlink" xml:space="preserve" overflow="hidden"><style>
.MsftOfcResponsive_Fill_7823dc {
 fill:#7823DC; 
}
</style>
<g id="Layer_3"></g><g id="Layer_1"></g><g id="Layer_2"></g><g id="Layer_4"></g><g id="Layer_5"><path d="M23.18 21C23.21 11.85 24.84 7.85 24.86 7.8L24.81 7.78 23.18 6.98C19.69 13.53 18.78 15.84 16.9 21L14.24 21C14.27 11.85 15.9 7.85 15.92 7.8L15.87 7.78 14.24 6.98C10.75 13.53 9.84 15.84 7.96 21L0 21 0 32 32 32 32 21 23.18 21ZM21.65 14.19C21.36 16.82 21.2 20.37 21.37 24.63 21.37 25.6 20.58 26.38 19.62 26.38 18.65 26.38 17.87 25.59 17.87 24.63 17.88 23.74 19.3 19.36 21.65 14.19ZM12.72 14.19C12.43 16.82 12.27 20.37 12.44 24.63 12.44 25.6 11.65 26.38 10.69 26.38 9.73 26.38 8.94 25.59 8.94 24.63 8.94 23.74 10.37 19.36 12.72 14.19ZM30.13 30.12 1.88 30.12 1.88 22.87 7.39 22.87C7.2 23.58 7.07 24.21 7.07 24.62 7.07 26.62 8.7 28.25 10.7 28.25 12.78 28.26 14.45 26.48 14.32 24.4 14.3 23.88 14.29 23.37 14.28 22.87L16.34 22.87C16.13 23.59 16 24.21 16 24.62 16 26.62 17.63 28.25 19.63 28.25 21.71 28.26 23.38 26.48 23.25 24.4 23.23 23.88 23.22 23.37 23.21 22.87L30.14 22.87 30.13 30.12Z" class="MsftOfcResponsive_Fill_7823dc" fill="#7823DC"/><path d="M4.91 3.69 6.81 5.59 6.81 2.79 3.91 0 1.01 2.79 1.01 5.49 2.91 3.69" class="MsftOfcResponsive_Fill_7823dc" fill="#7823DC" fill-rule="evenodd" clip-rule="evenodd"/><path d="M2.91 3.39 4.91 3.39 4.91 8.05 2.91 8.05 2.91 3.39 2.91 3.39Z" class="MsftOfcResponsive_Fill_7823dc" fill="#7823DC" fill-rule="evenodd" clip-rule="evenodd"/><path d="M29.17 3.69 31.07 5.59 31.07 2.79 28.17 0 25.27 2.79 25.27 5.49 27.17 3.69" class="MsftOfcResponsive_Fill_7823dc" fill="#7823DC" fill-rule="evenodd" clip-rule="evenodd"/><path d="M27.17 3.39 29.17 3.39 29.17 8.05 27.17 8.05 27.17 3.39 27.17 3.39Z" class="MsftOfcResponsive_Fill_7823dc" fill="#7823DC" fill-rule="evenodd" clip-rule="evenodd"/></g></svg>