<svg viewBox="0 0 32 32" xmlns="http://www.w3.org/2000/svg" xmlns:xlink="http://www.w3.org/1999/xlink" id="Layer_3" overflow="hidden"><style>
.MsftOfcResponsive_Fill_7823dc {
 fill:#7823DC; 
}
</style>
<defs></defs><rect x="4" y="4" width="2" height="24" class="MsftOfcResponsive_Fill_7823dc" fill="#7823DC"/><rect x="8" y="4" width="4" height="24" class="MsftOfcResponsive_Fill_7823dc" fill="#7823DC"/><rect x="14" y="4" width="4" height="24" class="MsftOfcResponsive_Fill_7823dc" fill="#7823DC"/><rect x="20" y="4" width="2" height="24" class="MsftOfcResponsive_Fill_7823dc" fill="#7823DC"/><rect x="24" y="4" width="4" height="24" class="MsftOfcResponsive_Fill_7823dc" fill="#7823DC"/><rect x="0" y="0" width="2" height="10" class="MsftOfcResponsive_Fill_7823dc" fill="#7823DC"/><rect x="4" y="-4" width="2" height="10" class="MsftOfcResponsive_Fill_7823dc" fill="#7823DC" transform="matrix(6.12323e-17 1 -1 6.12323e-17 6 -4)"/><rect x="4" y="26" width="2" height="10" class="MsftOfcResponsive_Fill_7823dc" fill="#7823DC" transform="matrix(6.12323e-17 1 -1 6.12323e-17 36 26)"/><rect x="26" y="26" width="2" height="10" class="MsftOfcResponsive_Fill_7823dc" fill="#7823DC" transform="matrix(6.12323e-17 1 -1 6.12323e-17 58 4)"/><rect x="26" y="-4" width="2" height="10" class="MsftOfcResponsive_Fill_7823dc" fill="#7823DC" transform="matrix(6.12323e-17 1 -1 6.12323e-17 28 -26)"/><rect x="30" y="0" width="2" height="10" class="MsftOfcResponsive_Fill_7823dc" fill="#7823DC"/><rect x="30" y="22" width="2" height="10" class="MsftOfcResponsive_Fill_7823dc" fill="#7823DC"/><rect x="0" y="22" width="2" height="10" class="MsftOfcResponsive_Fill_7823dc" fill="#7823DC"/></svg>