<svg viewBox="0 0 32.03 32" xmlns="http://www.w3.org/2000/svg" xmlns:xlink="http://www.w3.org/1999/xlink" id="Layer_1" overflow="hidden"><style>
.MsftOfcResponsive_Fill_7823dc {
 fill:#7823DC; 
}
</style>
<defs></defs><path d="M4.03 0 2.03 2 30.03 2 30.03 30 2.03 30 2.03 2 0.03 4 0.03 32 32.03 32 32.03 0 4.03 0Z" class="MsftOfcResponsive_Fill_7823dc" fill="#7823DC"/><path d="M19.83 25.56 7.93 13.66 1.41 20.18 2.22045e-16 18.77 7.93 10.84 19.78 22.69C21.2 21.17 24.29 17.88 24.9 17.27L25.63 16.54 31.53 22.81 30.07 24.18 25.6 19.42C24 21.1 20.58 24.76 20.54 24.81L19.83 25.57Z" class="MsftOfcResponsive_Fill_7823dc" fill="#7823DC"/><path d="M9.39 20C7.75 20 6.42 21.37 6.42 23.04 6.42 24.36 7.24 25.48 8.39 25.9 8.7 26.02 9.04 26.08 9.39 26.08 9.74 26.08 10.08 26.02 10.39 25.9 11.54 25.48 12.36 24.36 12.36 23.04 12.36 21.37 11.03 20 9.39 20ZM9.39 22C9.92 22 10.36 22.47 10.36 23.04 10.36 23.61 9.92 24.08 9.39 24.08 8.86 24.08 8.42 23.62 8.42 23.04 8.42 22.46 8.86 22 9.39 22Z" class="MsftOfcResponsive_Fill_7823dc" fill="#7823DC"/><path d="M11.41 31.66 9.66 30.68 10.15 29.81C10.29 29.56 13.6 23.81 21.12 23.81 28.64 23.81 31.03 29.53 31.13 29.77L31.49 30.7 29.62 31.42 29.26 30.49C29.18 30.28 27.32 25.8 21.12 25.8 14.92 25.8 11.92 30.73 11.9 30.78L11.41 31.65Z" class="MsftOfcResponsive_Fill_7823dc" fill="#7823DC"/><rect x="8.39" y="25.15" width="2" height="6.4" class="MsftOfcResponsive_Fill_7823dc" fill="#7823DC"/><path d="M7.56 31.81 4.88 27.73 0.11 27.11 0.37 25.13 6.05 25.87 9.23 30.72 7.56 31.81Z" class="MsftOfcResponsive_Fill_7823dc" fill="#7823DC"/><path d="M23.97 21.09 19.71 16.79 15.87 20.26 14.53 18.78 19.79 14.03 25.39 19.68 23.97 21.09Z" class="MsftOfcResponsive_Fill_7823dc" fill="#7823DC"/><path d="M24 4C21.81 4 20.03 5.79 20.03 7.98 20.03 10.17 21.81 11.96 24 11.96 26.19 11.96 27.98 10.17 27.98 7.98 27.98 5.79 26.2 4 24 4ZM24 9.96C22.91 9.96 22.03 9.07 22.03 7.98 22.03 6.89 22.91 6 24 6 25.09 6 25.98 6.89 25.98 7.98 25.98 9.07 25.1 9.96 24 9.96Z" class="MsftOfcResponsive_Fill_7823dc" fill="#7823DC"/></svg>