<svg viewBox="0 0 29.22 29.22" xmlns="http://www.w3.org/2000/svg" xmlns:xlink="http://www.w3.org/1999/xlink" id="Layer_5" overflow="hidden"><defs></defs><path d="M29.21 19.06C29.21 18.58 29.02 18.16 28.7 17.79 28.7 17.79 28.7 17.79 28.7 17.79 28.92 16.76 29.05 15.7 29.03 14.61 29.04 6.61 22.54 0.11 14.6 0.11 6.66 0.11 0.16 6.61 0.16 14.61 0.16 22.61 6.67 29.11 14.6 29.11 16.09 29.11 17.53 28.88 18.88 28.47 20.03 28.97 21.54 29.22 23.04 29.22 26.05 29.22 29.08 28.2 29.21 26.26L29.22 26.26 29.22 19.06 29.22 19.06ZM27.1 16.72C25.96 16.25 24.5 16.01 23.04 16.01 22.31 16.01 21.59 16.07 20.9 16.19 20.9 15.96 20.93 15.73 20.93 15.49L27.25 15.49C27.22 15.91 27.17 16.32 27.1 16.72 27.1 16.72 27.1 16.72 27.1 16.72ZM27.25 13.66 20.93 13.66C20.81 8.88 19.77 4.84 18.16 2.46 23.13 3.92 26.85 8.35 27.25 13.66ZM14.6 1.94C16.65 1.94 18.91 6.73 19.1 13.66L10.09 13.66C10.28 6.73 12.55 1.94 14.59 1.94ZM11.04 2.46C9.43 4.85 8.39 8.88 8.27 13.66L1.95 13.66C2.35 8.34 6.07 3.92 11.04 2.46ZM1.95 15.48 8.27 15.48C8.38 20.3 9.43 24.36 11.04 26.76 6.05 25.29 2.32 20.83 1.95 15.48ZM14.6 27.29C12.54 27.29 10.27 22.46 10.09 15.49L19.1 15.49C19.09 15.9 19.07 16.3 19.05 16.69 17.77 17.2 16.88 17.99 16.86 19.06L16.86 19.06 16.86 25.43C16.15 26.62 15.36 27.29 14.6 27.29ZM19.94 16.39C19.94 16.39 19.94 16.39 19.94 16.39 19.94 16.39 19.94 16.39 19.94 16.39ZM27.45 26.13C27.45 26.47 25.93 27.45 23.04 27.45 20.15 27.45 18.63 26.47 18.63 26.13L18.63 24.79C19.81 25.36 21.43 25.66 23.04 25.66 24.65 25.66 26.27 25.36 27.45 24.79L27.45 26.13ZM27.45 22.58C27.45 22.92 25.93 23.9 23.04 23.9 20.15 23.9 18.63 22.92 18.63 22.58L18.63 21.3C19.81 21.87 21.43 22.17 23.04 22.17 24.65 22.17 26.27 21.87 27.45 21.3L27.45 22.58ZM23.04 20.41C20.14 20.41 18.63 19.43 18.63 19.09 18.63 18.75 20.15 17.77 23.04 17.77 25.93 17.77 27.45 18.75 27.45 19.09 27.45 19.43 25.93 20.41 23.04 20.41Z" stroke-width="0" fill="#7823DC"/></svg>