<svg viewBox="0 0 32 32" xmlns="http://www.w3.org/2000/svg" xmlns:xlink="http://www.w3.org/1999/xlink" id="Layer_5" overflow="hidden"><defs></defs><path d="M29.89 30.66 28.59 21.79 31.87 17.6 27.09 13.29 25.32 13.29 27.72 29.68 20.97 26.6 20.48 23.37 24.35 21.8 23.41 13.3 21.34 13.3 19.08 15.27 13.96 13.16 13.96 12.99C13.96 12.99 13.96 12.99 13.96 12.99L13.96 5.83 23.12 5.83 21.44 2.91 23.12-0.01 11.94-0.01 11.94 23.29 0 26.85 0 28.94 12.87 25.1 19.15 27.96 21.32 28.95 28.01 32 32 32 32 31.62 29.89 30.66ZM29.15 17.84 28.19 19.06 27.84 16.66 29.15 17.84ZM19.64 2 19.11 2.92 19.64 3.84 13.94 3.84 13.94 2.01 19.64 2.01ZM13.94 23.39 13.94 15.64C13.94 15.64 13.94 15.64 13.94 15.65L13.94 15.32 19.45 17.58 21.65 15.66 22.2 20.64 18.28 22.24 18.79 25.61 13.94 23.4Z" fill="#7823DC"/><path d="M21.37 9.8C21.37 11.44 22.71 12.78 24.35 12.78 25.99 12.78 27.33 11.44 27.33 9.8 27.33 8.16 25.99 6.82 24.35 6.82 22.71 6.82 21.37 8.16 21.37 9.8ZM24.35 8.82C24.89 8.82 25.33 9.26 25.33 9.8 25.33 10.34 24.89 10.78 24.35 10.78 23.81 10.78 23.37 10.34 23.37 9.8 23.37 9.26 23.81 8.82 24.35 8.82Z" fill="#7823DC"/></svg>