<svg viewBox="0 0 32 32.02" xmlns="http://www.w3.org/2000/svg" xmlns:xlink="http://www.w3.org/1999/xlink" id="Layer_1" overflow="hidden"><style>
.MsftOfcResponsive_Fill_7823dc {
 fill:#7823DC; 
}
</style>
<defs></defs><path d="M22.19 15.09 0 15.09 0 0 22.19 0 22.19 4.51 20.19 4.51 20.19 2 2 2 2 13.09 20.19 13.09 20.19 10.51 22.19 10.51 22.19 15.09Z" class="MsftOfcResponsive_Fill_7823dc" fill="#7823DC"/><path d="M11.09 10.53 1.33 1.74C0.92 1.37 0.89 0.74 1.26 0.33 1.63-0.08 2.26-0.11 2.67 0.26L11.09 7.84 19.52 0.26C19.93-0.11 20.56-0.08 20.93 0.33 21.3 0.74 21.27 1.37 20.86 1.74L11.1 10.52Z" class="MsftOfcResponsive_Fill_7823dc" fill="#7823DC"/><path d="M2 15.09C1.74 15.09 1.47 14.99 1.27 14.78 0.89 14.38 0.91 13.75 1.31 13.37L8.2 6.83C8.6 6.45 9.23 6.47 9.61 6.87 9.99 7.27 9.97 7.9 9.57 8.28L2.68 14.82C2.49 15 2.24 15.09 1.99 15.09Z" class="MsftOfcResponsive_Fill_7823dc" fill="#7823DC"/><path d="M20.19 15.09C19.95 15.09 19.71 15.01 19.52 14.83L12.24 8.29C11.83 7.92 11.8 7.29 12.17 6.88 12.54 6.47 13.17 6.44 13.58 6.81L20.86 13.35C21.27 13.72 21.3 14.35 20.93 14.76 20.73 14.98 20.46 15.09 20.19 15.09Z" class="MsftOfcResponsive_Fill_7823dc" fill="#7823DC"/><path d="M32 32.02 9.81 32.02 9.81 27.44 11.81 27.44 11.81 30.02 30 30.02 30 18.93 11.81 18.93 11.81 21.44 9.81 21.44 9.81 16.93 32 16.93 32 32.02Z" class="MsftOfcResponsive_Fill_7823dc" fill="#7823DC"/><path d="M20.91 27.46 11.15 18.68C10.74 18.31 10.71 17.68 11.08 17.27 11.45 16.86 12.08 16.83 12.49 17.2L20.92 24.78 29.35 17.2C29.76 16.83 30.39 16.86 30.76 17.27 31.13 17.68 31.1 18.31 30.69 18.68L20.93 27.46Z" class="MsftOfcResponsive_Fill_7823dc" fill="#7823DC"/><path d="M30 32.02C29.75 32.02 29.5 31.93 29.31 31.75L22.42 25.21C22.02 24.83 22 24.2 22.38 23.8 22.76 23.4 23.39 23.38 23.79 23.76L30.68 30.3C31.08 30.68 31.1 31.31 30.72 31.71 30.52 31.92 30.26 32.02 29.99 32.02Z" class="MsftOfcResponsive_Fill_7823dc" fill="#7823DC"/><path d="M11.81 32.02C11.54 32.02 11.26 31.91 11.07 31.69 10.7 31.28 10.73 30.65 11.14 30.28L18.42 23.74C18.83 23.37 19.46 23.4 19.83 23.81 20.2 24.22 20.17 24.85 19.76 25.22L12.48 31.76C12.29 31.93 12.05 32.02 11.81 32.02Z" class="MsftOfcResponsive_Fill_7823dc" fill="#7823DC"/><rect x="22.19" y="6.55" width="8.47" height="2" class="MsftOfcResponsive_Fill_7823dc" fill="#7823DC"/><path d="M32 7.55 27.98 11.56 26.57 10.15 29.17 7.55 26.57 4.95 27.98 3.53 32 7.55Z" class="MsftOfcResponsive_Fill_7823dc" fill="#7823DC"/><rect x="1.34" y="23.44" width="8.47" height="2" class="MsftOfcResponsive_Fill_7823dc" fill="#7823DC" transform="matrix(-1 1.22465e-16 -1.22465e-16 -1 11.16 48.88)"/><path d="M0 24.44 4.02 20.42 5.43 21.84 2.83 24.44 5.43 27.04 4.02 28.46 0 24.44Z" class="MsftOfcResponsive_Fill_7823dc" fill="#7823DC"/></svg>