<svg viewBox="0 0 32 32" xmlns="http://www.w3.org/2000/svg" xmlns:xlink="http://www.w3.org/1999/xlink" overflow="hidden"><defs></defs><g id="Layer_3"><path d="M11.8467 31.9228C9.24494 31.9347 6.86242 30.4674 5.70215 28.1387L7.4873 27.2441C8.70615 29.6526 11.6467 30.617 14.0551 29.3981 14.3853 29.2311 14.6954 29.0271 14.9795 28.79L14.9795 3.37793C13.5585 1.75202 11.0885 1.58591 9.4626 3.00689 8.98006 3.42862 8.60858 3.96249 8.38086 4.56152L8.14258 5.18752 7.47266 5.20412C5.3647 5.19594 3.64924 6.89814 3.64106 9.0061 3.63956 9.39126 3.69638 9.77444 3.80957 10.1426L3.99023 10.7793 3.47363 11.1934C1.80316 12.5008 1.50881 14.9148 2.8162 16.5853 2.83802 16.6132 2.86023 16.6407 2.88281 16.668L1.33981 17.9375C0.476214 16.886 0.0034855 15.5677 0.00200001 14.207 0.00440158 12.6501 0.630059 11.1589 1.73931 10.0664 1.67663 9.74362 1.64458 9.41567 1.6436 9.08688 1.63465 6.1238 3.83976 3.62065 6.78032 3.25588 7.79965 1.29015 9.82572 0.052526 12.04 0.0430006 13.9077 0.0398446 15.6659 0.923834 16.7773 2.42483L16.9775 2.69144 16.9775 29.6484 16.6796 29.9414C15.3941 31.2151 13.6563 31.9275 11.8467 31.9228Z" fill="#7823DC"/><path d="M7.34766 28.8887C3.31258 28.9002 0.0321361 25.6385 0.0205728 21.6035 0.00900944 17.5684 3.27071 14.2879 7.30579 14.2764 7.31974 14.2763 7.3337 14.2763 7.34766 14.2764L7.34766 16.2744C6.54207 16.2722 5.74645 16.4525 5.02051 16.8017 3.17169 17.6749 1.99449 19.5384 2 21.583 2.02722 24.5414 4.44755 26.9176 7.40595 26.8904 8.39764 26.8812 9.36732 26.597 10.207 26.0693 10.4725 25.9013 10.7231 25.7109 10.956 25.5L12.2978 26.9785C11.9786 27.2684 11.6349 27.5301 11.2705 27.7607 10.0952 28.4987 8.73541 28.8897 7.34766 28.8887Z" fill="#7823DC"/><path d="M6.53125 16.0772C4.3931 15.1101 3.4437 12.5929 4.41071 10.4548 4.92327 9.32143 5.9067 8.46961 7.10156 8.124L7.66211 10.042C7.03092 10.2252 6.51012 10.673 6.23438 11.2695 5.98381 11.8104 5.96059 12.4292 6.16992 12.9873 6.37926 13.5532 6.80712 14.0113 7.35742 14.2588Z" fill="#7823DC"/><path d="M20.1211 31.9228C18.3111 31.9277 16.5729 31.2152 15.2871 29.9414L14.9902 29.6484 14.9902 2.69141 15.1904 2.42578C17.1376-0.19275 20.8388-0.736996 23.4573 1.21017 24.1838 1.75037 24.7764 2.45028 25.1894 3.25586 28.1287 3.62221 30.3321 6.12485 30.3232 9.08686 30.3224 9.41597 30.2903 9.74427 30.2275 10.0673 31.3371 11.1592 31.9628 12.6502 31.9648 14.207 31.9633 15.5677 31.4906 16.8859 30.627 17.9375L29.084 16.668C30.4371 15.0343 30.2096 12.6131 28.5759 11.26 28.5487 11.2374 28.5211 11.2152 28.4932 11.1934L27.9756 10.7784 28.1572 10.1407C28.2628 9.79917 28.3194 9.4444 28.3252 9.08698 28.3265 6.96252 26.6194 5.2319 24.4951 5.2041L23.8262 5.1875 23.5869 4.5615C22.8196 2.54308 20.5613 1.52886 18.5429 2.29617 17.9439 2.52389 17.41 2.89537 16.9883 3.37791L16.9883 28.79C19.0606 30.5192 22.1423 30.2412 23.8716 28.1689 24.109 27.8844 24.3133 27.5738 24.4805 27.2431L26.2656 28.1396C25.1045 30.4675 22.7224 31.9342 20.1211 31.9228Z" fill="#7823DC"/><path d="M24.6201 28.8887C22.7891 28.8925 21.023 28.2111 19.669 26.9785L21.0107 25.5C21.2441 25.7111 21.4954 25.9016 21.7617 26.0693 24.2659 27.6433 27.5718 26.8893 29.1457 24.3851 29.6737 23.5452 29.958 22.5751 29.9668 21.583 29.9534 18.6418 27.5613 16.2667 24.6201 16.2744L24.6201 14.2764C28.6552 14.2553 31.9434 17.5092 31.9645 21.5443 31.9856 25.5794 28.7316 28.8676 24.6966 28.8887 24.6711 28.8888 24.6456 28.8888 24.6201 28.8887Z" fill="#7823DC"/><path d="M25.4941 16.0654 24.668 14.2471C25.2178 13.9996 25.6452 13.5419 25.8545 12.9766 26.0647 12.4183 26.0418 11.799 25.791 11.2578 25.5153 10.6612 24.9945 10.2135 24.3633 10.0303L24.9239 8.11227C26.1104 8.45796 27.0887 9.30122 27.6055 10.4238 28.5839 12.5553 27.6491 15.0764 25.5175 16.0548 25.5098 16.0583 25.502 16.0619 25.4942 16.0654Z" fill="#7823DC"/><circle cx="11.2965" cy="5.29651" r="1.29651" fill="#7823DC"/><circle cx="11.9477" cy="9.06394" r="1.29651" fill="#7823DC"/><circle cx="21.0639" cy="6.92441" r="1.29651" fill="#7823DC"/><circle cx="20.2267" cy="14.9709" r="1.29651" fill="#7823DC"/><circle cx="11.9477" cy="16.1802" r="1.29651" fill="#7823DC"/><circle cx="20.1337" cy="18.9244" r="1.29651" fill="#7823DC"/><circle cx="27.0639" cy="22.9709" r="1.29651" fill="#7823DC"/><circle cx="18.8314" cy="22.5988" r="1.29651" fill="#7823DC"/><circle cx="5.09976" cy="20.9586" r="1.29651" fill="#7823DC"/><rect x="9.47154" y="17.668" width="4.96389" height="2" fill="#7823DC" transform="matrix(6.12323e-17 1 -1 6.12323e-17 30.6215 6.7145)"/><rect x="12.0465" y="8.09302" width="4" height="2" fill="#7823DC"/><rect x="11.9535" y="4.32558" width="4" height="2" fill="#7823DC"/><rect x="16.6046" y="5.95349" width="4" height="2" fill="#7823DC"/><rect x="16" y="14" width="4" height="2" fill="#7823DC"/><rect x="20.4651" y="17.9767" width="3.60103" height="2" fill="#7823DC"/><rect x="20.224" y="20.1346" width="5.68423" height="2" fill="#7823DC" transform="matrix(6.12323e-17 1 -1 6.12323e-17 44.2008 -1.93152)"/><rect x="23.0697" y="21.9767" width="3.60103" height="2" fill="#7823DC"/><rect x="15.2558" y="21.6279" width="4" height="2" fill="#7823DC"/><rect x="5.3256" y="20.0465" width="7.62788" height="2" fill="#7823DC"/></g></svg>