<svg viewBox="0 0 32 32" xmlns="http://www.w3.org/2000/svg" xmlns:xlink="http://www.w3.org/1999/xlink" id="Layer_2_1_" xml:space="preserve" overflow="hidden"><path d="M32 29.4 32 32 20.4 22.8 21.6 21.2Z" fill="#7823DC"/><path d="M25.8 13.7 23.8 13.7 23.8 13.9C23.8 14.5 23.7 15.1 23.6 15.7L25.6 15.7C25.7 15.1 25.7 14.5 25.7 13.9 25.8 13.8 25.8 13.8 25.8 13.7ZM12.9 24.8C7.7 24.8 3.3 21.1 2.3 16.2 2.2 15.5 2.1 14.9 2.1 14.2 2.1 14.1 2.1 14 2.1 13.9 2 7.9 6.9 3 12.9 3 18.2 3 22.6 6.8 23.6 11.7L25.6 11.7C24.5 5.6 19.2 1 12.9 1 5.8 1 0 6.8 0 13.9 0 14 0 14.2 0 14.3 0 14.5 0 14.6 0 14.8 0 15.3 0.1 15.8 0.2 16.3 1.3 22.3 6.6 26.8 12.9 26.8 18.7 26.8 23.6 23 25.2 17.7L23.1 17.7C21.5 21.9 17.6 24.8 12.9 24.8Z" fill="#7823DC" fill-rule="evenodd" clip-rule="evenodd"/><g><path d="M32 13.7 32 15.7 21.3 15.7 15.6 20.3 9.2 10.8 4.7 16.2 2.2 16.3 0.2 16.3 0.1 16.4 0 14.8 0 14.3 0 14.3 2 14.3 3.8 14.2 9.4 7.5 16 17.3 20.5 13.7Z" fill="#7823DC" fill-rule="evenodd" clip-rule="evenodd"/></g><rect x="22" y="13.7" width="6" height="2" fill="#7823DC" fill-rule="evenodd" clip-rule="evenodd"/></svg>