<svg width="60.1" height="32" viewBox="0 0 60.1 32" xmlns="http://www.w3.org/2000/svg" xmlns:xlink="http://www.w3.org/1999/xlink" overflow="hidden"><defs></defs><g><g><g><defs><rect x="28.1" y="0" width="32" height="32" id="SVGID_1_" fill="#7823DC"/></defs><clipPath id="SVGID_2_"><use width="100%" height="100%" xlink:href="#SVGID_1_"></use></clipPath><g clip-path="url(#SVGID_2_)"><defs><rect x="28.1" y="0" width="32" height="32" id="SVGID_3_" fill="#7823DC"/></defs><clipPath id="SVGID_4_"><use width="100%" height="100%" xlink:href="#SVGID_3_"></use></clipPath><g clip-path="url(#SVGID_4_)"><text fill="#7823DC" font-family="Graphik-Regular" font-size="22" transform="matrix(1 0 0 1 0 23.8594)">2</text></g><path d="M0.4 23.9 11 23.9 11 22.3 3.4 22.3 7.7 18.1C9.6 16.2 10.9 14.3 10.9 12.4 10.9 9.7 9.1 8 6.1 8 3.1 8 1.2 10 1 13L2.8 13C3.1 10.5 4.3 9.5 6.1 9.5 7.9 9.5 8.9 10.6 8.9 12.3 8.9 13.9 8.1 15.3 6.6 16.9L0.4 23.5 0.4 23.9Z" stroke="#6C4D9F" stroke-width="0.3" stroke-miterlimit="10" fill="#7823DC" clip-path="url(#SVGID_4_)"/></g></g></g><path d="M44.1 32C35.3 32 28.1 24.8 28.1 16 28.1 7.2 35.3 0 44.1 0 52.9 0 60.1 7.2 60.1 16 60.1 24.8 52.9 32 44.1 32ZM44.1 2C36.4 2 30.1 8.3 30.1 16 30.1 23.7 36.4 30 44.1 30 51.8 30 58.1 23.7 58.1 16 58.1 8.3 51.8 2 44.1 2Z" fill="#7823DC"/><g><path d="M38.3 19.2 40.1 19.2C40.3 21.1 41.4 22.5 43.9 22.5 46.4 22.5 47.5 21.3 47.5 19.5 47.5 17.5 46.4 16.4 44.2 16.4L43 16.4 43 14.8 44.1 14.8C46.1 14.8 47 13.8 47 12.1 47 10.6 46.1 9.5 44.1 9.5 42.1 9.5 40.8 10.7 40.6 12.5L39 12.5C39.1 10 41.2 8 44.1 8 47 8 48.8 10 48.8 12.2 48.8 14 47.7 15 46.3 15.6 48.1 16.1 49.3 17.4 49.3 19.6 49.3 22.5 47 24.2 43.7 24.2 40.5 24.1 38.4 22 38.3 19.2Z" fill="#7823DC"/></g></g></svg>