<svg viewBox="0 0 32 32" xmlns="http://www.w3.org/2000/svg" xmlns:xlink="http://www.w3.org/1999/xlink" id="Layer_1" xml:space="preserve" overflow="hidden"><g><path d="M19.4 6C20.5 4.1 19.9 1.7 18 0.5 16.1-0.6 13.6 0 12.5 1.9 12.2 2.6 12 3.3 12 4 12 4.7 12.2 5.4 12.5 6L4 6 4 15 6.3 15C6.9 14 8.1 13.7 9 14.3 9.6 14.7 10 15.3 10 16 10 17.1 9.1 18 8 18 7.3 18 6.6 17.6 6.3 17L4 17 4 26 12.6 26C11.5 27.9 12.1 30.4 14 31.5 15.9 32.6 18.4 32 19.5 30.1 20.2 28.9 20.2 27.3 19.5 26.1L28 26.1 28 17.1 25.7 17.1C25.1 18 23.9 18.3 22.9 17.7 22 17.1 21.7 16 22.2 15.1 22.6 14.5 23.2 14.1 23.9 14.1 24.6 14.1 25.3 14.5 25.6 15.1L28 15.1 28 6 19.4 6 19.4 6ZM26 12.6C24.1 11.5 21.6 12.2 20.5 14.1 19.4 16 20.1 18.5 22 19.6 23.2 20.3 24.8 20.3 26 19.6L26 24 17 24 17 26.3C18 26.9 18.3 28.1 17.7 29 17.1 30 15.9 30.3 15 29.7 14 29.1 13.7 27.9 14.3 27 14.3 27 14.3 27 14.3 27 14.5 26.7 14.7 26.4 15 26.3L15 24 6 24 6 19.4C6.6 19.8 7.3 20 8 20 10.2 20 12 18.2 12 16 12 13.8 10.2 12 8 12 7.3 12 6.6 12.2 6 12.5L6 8 15 8 15 5.7C14 5.2 13.7 4 14.3 3 14.9 2 16.1 1.7 17 2.3 18 2.9 18.3 4.1 17.7 5 17.7 5 17.7 5 17.7 5 17.5 5.3 17.3 5.6 17 5.7L17 8 26 8 26 12.6 26 12.6Z" fill="#7823DC" fill-rule="evenodd" clip-rule="evenodd"/></g></svg>