<svg width="32" height="32" viewBox="0 0 32 32" xmlns="http://www.w3.org/2000/svg" xmlns:xlink="http://www.w3.org/1999/xlink" overflow="hidden"><defs></defs><g><path d="M24 12 24 20 8.02 20 8.02 12 24 12M26 10 6.02 10 6.02 22 26 22 26 10 26 10Z" fill="#7823DC"/></g><g><path d="M18 8 18 10 13.89 10 13.89 8 18 8M20 6 11.89 6 11.89 12 20 12 20 6 20 6Z" fill="#7823DC"/></g><g><rect x="6" y="14" width="20" height="2" fill="#7823DC"/></g><g><rect x="14" y="16" width="4" height="2" fill="#7823DC"/></g><path d="M22 0 24 2 28.59 2 22.59 8 25.41 8 30 3.41 30 8 32 10 32 0Z" fill="#7823DC"/><path d="M9.42 8 3.41 2 8 2 10 0 0 0 0 10 2 8 2 3.41 6.59 8Z" fill="#7823DC"/><path d="M3.41 30 9.42 24 6.59 24 2 28.59 2 24 0 22 0 32 10 32 8 30Z" fill="#7823DC"/><path d="M30 24.1 30 28.59 25.41 24 22.59 24 28.59 30 24.04 30 22 32 32 32 32 22Z" fill="#7823DC"/></svg>