<svg viewBox="0 0 32 31.98" xmlns="http://www.w3.org/2000/svg" xmlns:xlink="http://www.w3.org/1999/xlink" id="Layer_1" overflow="hidden"><style>
.MsftOfcResponsive_Fill_7823dc {
 fill:#7823DC; 
}
</style>
<defs></defs><path d="M32 14.39 6.45 14.39 6.45 0 32 0 32 14.39ZM8.45 12.39 30 12.39 30 2 8.45 2 8.45 12.39Z" class="MsftOfcResponsive_Fill_7823dc" fill="#7823DC"/><rect x="21.09" y="3.72" width="4.92" height="2" class="MsftOfcResponsive_Fill_7823dc" fill="#7823DC"/><rect x="14.89" y="15.98" width="9.92" height="2" class="MsftOfcResponsive_Fill_7823dc" fill="#7823DC"/><rect x="30" y="23.31" width="2" height="8.68" class="MsftOfcResponsive_Fill_7823dc" fill="#7823DC"/><path d="M30.59 29.06 21.91 25.22C20.08 24.46 18.84 22.59 18.84 20.59L18.84 17.99 20.84 17.99 20.84 20.59C20.84 21.8 21.59 22.92 22.7 23.38L31.4 27.23 30.59 29.06Z" class="MsftOfcResponsive_Fill_7823dc" fill="#7823DC"/><path d="M6.44 4.98 6.44 9.42 2 9.42 2 4.98 6.44 4.98M8.44 2.98 0 2.98 0 11.42 8.44 11.42 8.44 2.98 8.44 2.98Z" class="MsftOfcResponsive_Fill_7823dc" fill="#7823DC"/></svg>