<svg viewBox="0 0 32 32" xmlns="http://www.w3.org/2000/svg" xmlns:xlink="http://www.w3.org/1999/xlink" id="Layer_1" overflow="hidden"><style>
.MsftOfcResponsive_Fill_7823dc {
 fill:#7823DC; 
}
</style>
<g><path d="M21.7 17.5 21.1 4C21.1 2.6 20 1.6 18.1 0.9 16.2 0.3 13.7 0 10.9 0 5.2 0 0.7 1.1 0.7 4 0.7 4 0.7 4 0.7 4L0 17.9 0 18C0 19.1 0.8 20.1 2 20.8L2.5 24.8 2.6 24.8 2.6 24.9C3.1 25.1 3.6 25.3 4.2 25.5L2.8 32 4.8 32 6 26C7.4 26.3 9 26.4 10.7 26.4 12.3 26.4 13.8 26.3 15.2 26L16.4 32 18.4 32 17.5 27.5 17.1 25.6C17.8 25.4 18.4 25.2 18.9 24.9 18.9 24.8 18.9 24.7 18.9 24.5 18.9 23.7 19.1 22.9 19.4 22.2L19.6 20.9C20.9 20.1 21.7 19.2 21.7 18L21.7 18 21.7 18 21.7 17.5ZM10.9 2C14.1 2 16.9 2.3 18.2 3L14.9 15.1C14.7 15.6 14.3 16.1 13.6 16.4 12.9 16.7 12 16.9 11 16.9 9 16.9 7.4 16.1 7 15.1L3.6 3C5 2.3 7.7 2 10.9 2ZM2 18.1C2 18 2 18 2 17.9L2 17.9 2.5 6.5 4.9 15.1C4.9 15.3 5 15.6 5.1 15.8L5.2 16 5.2 16C6 17.8 8.3 19 10.9 19 13.6 19 15.8 17.8 16.6 16.1L16.6 16.1 16.7 15.8C16.8 15.6 16.8 15.5 16.8 15.3L19.1 6.9 19.6 17.9 19.6 17.9C19.6 18 19.6 18 19.6 18.1 19.6 19.7 15.7 20.7 10.8 20.7 6.1 20.7 2 19.7 2 18.1ZM17.3 23.6C17.2 23.6 17.1 23.7 17 23.7 15.4 24.2 13.2 24.4 10.7 24.4 8.2 24.4 6 24.1 4.3 23.6L4.1 21.7C6 22.3 8.3 22.6 10.9 22.6 13.4 22.6 15.7 22.3 17.5 21.7 17.5 21.7 17.5 21.7 17.5 21.7L17.3 23.6Z" class="MsftOfcResponsive_Fill_7823dc" fill="#7823DC" fill-rule="evenodd" clip-rule="evenodd"/></g><g><path d="M41.3 20.4C41.3-3.5 60.3-22.9 83.8-22.9 107.3-22.9 126.3-3.5 126.3 20.4 126.3 44.3 107.3 63.7 83.8 63.7 60.3 63.7 41.3 44.3 41.3 20.4L41.3 20.4Z" class="MsftOfcResponsive_Fill_7823dc" fill="#7823DC" fill-rule="evenodd" clip-rule="evenodd"/><path d="M41.3 20.4C41.3-3.5 60.3-22.9 83.8-22.9 107.3-22.9 126.3-3.5 126.3 20.4 126.3 44.3 107.3 63.7 83.8 63.7 60.3 63.7 41.3 44.3 41.3 20.4L41.3 20.4Z" class="MsftOfcResponsive_Fill_7823dc" stroke="#7823DC" stroke-width="10.5" stroke-miterlimit="8" fill="#7823DC"/><g><defs><path d="M36 69 131.6 69 131.6-51.1 36-51.1 36 69Z" id="SVGID_1_" class="MsftOfcResponsive_Fill_7823dc" fill="#7823DC"/></defs><clipPath id="SVGID_00000183246879975210897180000001317260523858318738_"><use width="100%" height="100%" xlink:href="#SVGID_1_" overflow="visible"></use></clipPath><line x1="83.8" y1="-40.8" x2="83.8" y2="-23" stroke="#7823DC" stroke-width="13" stroke-miterlimit="8" fill="none" clip-path="url(#SVGID_00000183246879975210897180000001317260523858318738_)"/><g clip-path="url(#SVGID_00000183246879975210897180000001317260523858318738_)"><defs><path d="M36 69 131.6 69 131.6-51.1 36-51.1 36 69Z" id="SVGID_00000051369212501899919050000012556386704173405370_" class="MsftOfcResponsive_Fill_7823dc" fill="#7823DC"/></defs><clipPath id="SVGID_00000163760605034018445180000006019619776649020081_"><use width="100%" height="100%" xlink:href="#SVGID_00000051369212501899919050000012556386704173405370_" overflow="visible"></use></clipPath><line x1="69.6" y1="-44.6" x2="99.7" y2="-44.6" stroke="#7823DC" stroke-width="13" stroke-miterlimit="8" fill="none" clip-path="url(#SVGID_00000163760605034018445180000006019619776649020081_)"/><g clip-path="url(#SVGID_00000163760605034018445180000006019619776649020081_)"><defs><path d="M36 69 131.6 69 131.6-51.1 36-51.1 36 69Z" id="SVGID_00000005245804251993871970000010451441444203791762_" class="MsftOfcResponsive_Fill_7823dc" fill="#7823DC"/></defs><clipPath id="SVGID_00000059302214449894010870000000974352296382682241_"><use width="100%" height="100%" xlink:href="#SVGID_00000005245804251993871970000010451441444203791762_" overflow="visible"></use></clipPath><line x1="81" y1="20.4" x2="113.9" y2="51" stroke="#7823DC" stroke-width="13" stroke-miterlimit="8" fill="none" clip-path="url(#SVGID_00000059302214449894010870000000974352296382682241_)"/></g></g></g></g><path d="M25.5 17.1C25.2 17.1 24.8 17 24.5 17 24.2 17 23.8 17 23.5 17.1 22.9 17.2 22.3 17.3 21.7 17.6 19.8 18.4 18.2 19.9 17.5 21.9 17.3 22.5 17.1 23.1 17 23.7 17 24 17 24.2 17 24.5 17 25.6 17.2 26.6 17.6 27.5 18.8 30.2 21.4 32 24.5 32 28.6 32 32 28.6 32 24.5 32 20.7 29.2 17.6 25.5 17.1ZM29 27.6C28.6 28.2 28.1 28.6 27.6 29 26.7 29.6 25.6 30 24.5 30 21.6 30 19.2 27.7 19 24.9 19 24.8 19 24.7 19 24.5 19 23.7 19.2 22.9 19.5 22.2 20.4 20.3 22.3 19 24.5 19 27.5 19 30 21.5 30 24.5 30 25.7 29.6 26.7 29 27.6Z" class="MsftOfcResponsive_Fill_7823dc" fill="#7823DC"/><rect x="23.5" y="15" width="2" height="3" class="MsftOfcResponsive_Fill_7823dc" fill="#7823DC"/><rect x="22.5" y="14" width="4" height="2" class="MsftOfcResponsive_Fill_7823dc" fill="#7823DC"/><rect x="26" y="24.2" width="2" height="5.7" class="MsftOfcResponsive_Fill_7823dc" fill="#7823DC" transform="matrix(0.7071 -0.7071 0.7071 0.7071 -11.1838 27)"/></svg>