<svg viewBox="0 0 32 32" xmlns="http://www.w3.org/2000/svg" xmlns:xlink="http://www.w3.org/1999/xlink" id="Layer_1" overflow="hidden"><g><g><g><defs><rect x="0.03" y="0" width="31.97" height="32" id="SVGID_1_" fill="#7823DC"/></defs><clipPath id="SVGID_2_"><use width="100%" height="100%" xlink:href="#SVGID_1_"></use></clipPath><g clip-path="url(#SVGID_2_)"><g><defs><rect x="0.03" y="0" width="31.97" height="32" id="SVGID_3_" fill="#7823DC"/></defs><clipPath id="SVGID_4_"><use width="100%" height="100%" xlink:href="#SVGID_3_"></use></clipPath><path d="M29.99 4 29.99 20.01 2.03 20.01 2.03 4 29.99 4M27.99 2 0.03 2 0.03 22.01 31.99 22.01 31.99 6 27.99 2 27.99 2 27.99 2Z" fill="#7823DC" clip-path="url(#SVGID_4_)"/></g><g><defs><rect x="0.03" y="0" width="31.97" height="32" id="SVGID_5_" fill="#7823DC"/></defs><clipPath id="SVGID_6_"><use width="100%" height="100%" xlink:href="#SVGID_5_"></use></clipPath><path d="M18 22.01 18 28.01 14 28.01 14 22.01 18 22.01M20 20.01 12.01 20.01 12.01 30.01 20 30.01 20 20.01 20 20.01 20 20.01Z" fill="#7823DC" clip-path="url(#SVGID_6_)"/></g><g><defs><rect x="0.03" y="0" width="31.97" height="32" id="SVGID_7_" fill="#7823DC"/></defs><clipPath id="SVGID_8_"><use width="100%" height="100%" xlink:href="#SVGID_7_"></use></clipPath><path d="M26 28.01 6.03 28.01 6.03 30.01 26 30.01 26 28.01Z" fill="#7823DC" clip-path="url(#SVGID_8_)"/></g></g></g></g></g><g><path d="M12.7 6C9.94 6 7.7 8.24 7.7 11 7.7 13.76 9.94 16 12.69 16 15.44 16 17.68 13.76 17.68 11 17.68 8.24 15.46 6 12.7 6ZM12.7 14.33C10.86 14.33 9.37 12.84 9.37 11 9.37 9.16 10.86 7.67 12.7 7.67 14.54 7.67 16.03 9.16 16.03 11 16.03 12.84 14.54 14.33 12.7 14.33Z" fill="#7823DC"/><path d="M24.33 16.68 24.33 18.99 15.7 14 16.7 12.27Z" fill="#7823DC"/></g></svg>