<svg viewBox="0 0 32 32" xmlns="http://www.w3.org/2000/svg" xmlns:xlink="http://www.w3.org/1999/xlink" id="Graphic" xml:space="preserve" overflow="hidden"><g><g><defs><path d="M-1 32.2 32.2 32.2 32.2-0.9-1-0.9-1 32.2Z" id="SVGID_1_" fill="#7823DC"/></defs><defs><path d="M-1-0.9 32.2-0.9 32.2 32.2-1 32.2-1-0.9Z" id="SVGID_00000108309434966925616850000005705761702586753726_" fill="#7823DC"/></defs><clipPath id="SVGID_00000163781845482366610100000015665325589878248119_"><use width="100%" height="100%" xlink:href="#SVGID_1_" overflow="visible"></use></clipPath><clipPath id="SVGID_00000021798935658762630120000011618502005930462111_" clip-path="url(#SVGID_00000163781845482366610100000015665325589878248119_)"><use width="100%" height="100%" xlink:href="#SVGID_00000108309434966925616850000005705761702586753726_" overflow="visible"></use></clipPath><g clip-path="url(#SVGID_00000021798935658762630120000011618502005930462111_)"><defs><path d="M-1 32.2 32.2 32.2 32.2-0.9-1-0.9-1 32.2Z" id="SVGID_00000033355916126951187900000011189727384370466697_" fill="#7823DC"/></defs><clipPath id="SVGID_00000142892587375983812430000006711862182469024941_"><use width="100%" height="100%" xlink:href="#SVGID_00000033355916126951187900000011189727384370466697_" overflow="visible"></use></clipPath><path d="M32.1 17.4 32.1 13.9C32.1 13.5 31.9 13 31.5 12.8 28.2 10 28.3 2.2 28.3 2.2L28.3 2.1 28.2 1.9C27.9 0.8 26.8 0.1 25.7 0.1L21.4 0.1C20.3 0.1 19.3 0.7 18.9 1.7L16.7 6.8 16.6 16.6 15.3 16.6 15.4 6.9 13.3 1.7C12.9 0.7 11.9 0.1 10.8 0.1L6.6 0.1C5.4 0.1 4.4 0.7 4 1.7L3.9 1.9 3.9 2.1C3.9 4.3 3.3 10.5 0.5 12.7 0.3 12.9 0.1 13.1 0.1 13.4L0 13.6 0 17.3 12.6 17.4 12.6 17.9 0 17.9 0 22.4 12.6 22.4 12.6 22.9 0 22.8 0 29.7C0.1 31.1 1.3 32.2 2.7 32.1L6 32.1C10.4 32.1 14.1 29.5 15.1 25.7L15.4 23.6 16.5 23.6 16.8 25.6 16.8 25.7C17.8 29.5 21.6 32.1 26 32.1L29.3 32.1C30.7 32.2 31.9 31.1 32 29.7L32 22.8 19.4 22.9 19.4 22.4 32 22.4 32 17.9 19.6 17.9 19.6 17.4 32.1 17.4 32.1 17.4ZM18.8 7.2 20.8 2.4C20.9 2.2 21.2 2 21.5 2.1L25.8 2.1C26 2.1 26.2 2.2 26.4 2.4 26.4 3.8 26.6 11.1 30.2 14.3L30.2 15.5 18.8 15.4 18.8 7.2 18.8 7.2ZM2 14.1C5.6 11 5.9 3.8 5.9 2.3 6.1 2.1 6.3 2 6.5 2L10.8 2C11.1 2 11.3 2.1 11.5 2.3L13.5 7.1 13.5 15.2 2 15.3 2 14.1 2 14.1ZM13.2 25.2C12.4 28 9.4 30.1 6 30.1L2.6 30C2.2 30 1.9 29.8 1.9 29.5L1.9 24.7 13.2 24.8 13.2 25.2 13.2 25.2ZM30.1 29.6C30.1 29.8 29.8 30.1 29.4 30.1L26.1 30.1C22.7 30.1 19.7 28.1 18.9 25.2L18.8 24.8 30.1 24.8 30.1 29.6 30.1 29.6ZM30.1 19.8 30.1 20.3 17.5 20.3 17.5 21.6 14.5 21.6 14.5 20.3 2 20.3 2 19.8 14.6 19.8 14.6 18.5 17.6 18.5 17.6 19.8 30.1 19.8 30.1 19.8Z" fill="#7823DC" clip-path="url(#SVGID_00000142892587375983812430000006711862182469024941_)"/></g></g></g></svg>