<svg viewBox="0 0 32 32" xmlns="http://www.w3.org/2000/svg" xmlns:xlink="http://www.w3.org/1999/xlink" id="Layer_2_00000144328325245699140920000014890284756443101063_" xml:space="preserve" overflow="hidden"><g><path d="M4 5.3 0 15.5 2.2 15.5 3.1 13.2 7.2 13.2 8.1 15.5 10.4 15.5 6.2 5.3 4 5.3 4 5.3 4 5.3ZM3.7 11.5 5.1 7.7 6.5 11.5 3.7 11.5 3.7 11.5 3.7 11.5Z" fill="#7823DC" fill-rule="evenodd" clip-rule="evenodd"/><path d="M32 17.4 28.9 16.4 26.7 15.7C27.6 15.6 28.3 15.4 28.9 14.9 29.6 14.4 30.1 13.5 30.4 12.4L28.4 11.8C28.2 12.5 27.9 13.1 27.5 13.5 27.1 13.8 26.6 14 26.1 14 25.4 14 24.7 13.7 24.3 13.2 23.8 12.6 23.6 11.7 23.6 10.4 23.6 9.2 23.8 8.3 24.3 7.7 24.8 7.2 25.4 6.9 26.2 6.9 26.8 6.9 27.2 7.1 27.6 7.4 28 7.7 28.2 8.1 28.4 8.7L30.5 8.2C30.3 7.4 29.9 6.7 29.4 6.3 28.6 5.6 27.6 5.2 26.3 5.2 24.9 5.2 23.7 5.7 22.8 6.6 21.9 7.5 21.5 8.9 21.5 10.6 21.5 12.2 21.9 13.5 22.8 14.4 22.9 14.5 23 14.6 23.1 14.7L19.8 13.7C19.9 13.4 20 13 20 12.7 20 12.1 19.8 11.6 19.5 11.2 19.2 10.8 18.7 10.5 18.1 10.3 18.5 10.1 18.9 9.8 19.2 9.4 19.5 9 19.6 8.6 19.6 8.1 19.6 7.7 19.5 7.3 19.3 6.9 19 6.3 18.7 6 18.4 5.8 18.1 5.6 17.7 5.4 17.3 5.4 16.9 5.3 16.3 5.3 15.5 5.3L11.4 5.3 11.4 15.6 14.9 15.6C16.2 15.6 17.1 15.6 17.4 15.5 17.9 15.4 18.4 15.3 18.7 15L22.4 26.8 24.6 22.6 27.6 25.6 30.6 22.6 27.6 19.6 32 17.4 32 17.4 32 17.4ZM13.5 7 14.7 7C15.7 7 16.3 7 16.5 7 16.8 7 17.1 7.2 17.3 7.4 17.5 7.6 17.6 7.9 17.6 8.2 17.6 8.5 17.5 8.8 17.3 9 17.1 9.2 16.8 9.3 16.5 9.4 16.3 9.4 15.8 9.4 15 9.4L13.6 9.4 13.5 7 13.5 7 13.5 7ZM17.6 13.4C17.4 13.6 17.2 13.8 16.8 13.8 16.6 13.8 16.1 13.9 15.4 13.9L13.5 13.9 13.5 11.2 15.2 11.2C16.1 11.2 16.8 11.3 17 11.3 17.3 11.4 17.5 11.6 17.6 11.8 17.7 12 17.8 12.3 17.8 12.6 17.9 12.9 17.8 13.2 17.6 13.4L17.6 13.4ZM28.2 22.6 28 22.9 27.8 23.1 24.3 19.6 23 22 21 15.9 27.1 17.8 27.2 17.8 24.7 19.1 28.2 22.6 28.2 22.6 28.2 22.6Z" fill="#7823DC" fill-rule="evenodd" clip-rule="evenodd"/></g></svg>