<svg viewBox="0 0 32 31.89" xmlns="http://www.w3.org/2000/svg" xmlns:xlink="http://www.w3.org/1999/xlink" id="Layer_1" overflow="hidden"><style>
.MsftOfcResponsive_Fill_7823dc {
 fill:#7823DC; 
}
</style>
<defs></defs><path d="M11.92 7.31C11.72 7.48 11.46 7.55 11.2 7.53 10.93 7.51 10.69 7.38 10.53 7.18L9.89 6.4 8.07 7.89 1.46 0 0 0 0 1.37 6.53 9.16 4.54 10.79 5.18 11.56C5.35 11.77 5.42 12.02 5.4 12.28 5.37 12.55 5.24 12.78 5.04 12.95L4.27 13.59 19.27 31.89 27.7 24.99 12.69 6.68 11.92 7.31ZM19.55 29.08 6.97 13.73C7.2 13.36 7.34 12.93 7.39 12.48 7.43 12.03 7.39 11.59 7.23 11.17L9.75 9.11C10.52 9.57 11.46 9.66 12.31 9.36L24.89 24.71 19.55 29.08Z" class="MsftOfcResponsive_Fill_7823dc" fill="#7823DC"/><path d="M20.46 22.46 19.16 20.88 17.29 23.17 18.58 24.75 20.46 22.46Z" class="MsftOfcResponsive_Fill_7823dc" fill="#7823DC"/><path d="M12.44 29.08 7.11 24.71 8.95 22.46 7.66 20.88 4.29 24.99 12.72 31.89 14.7 29.48 13.41 27.9 12.44 29.08Z" class="MsftOfcResponsive_Fill_7823dc" fill="#7823DC"/><path d="M12.83 17.73 14.71 15.44 13.41 13.86 11.54 16.15 12.83 17.73Z" class="MsftOfcResponsive_Fill_7823dc" fill="#7823DC"/><path d="M32 0 30.53 0 23.92 7.89 22.1 6.4 21.47 7.18C21.3 7.38 21.06 7.51 20.8 7.53 20.53 7.56 20.28 7.48 20.07 7.31L19.3 6.68 17.29 9.13 18.58 10.71 19.69 9.36C20.53 9.66 21.48 9.57 22.25 9.11L24.77 11.17C24.62 11.59 24.56 12.03 24.61 12.48 24.65 12.93 24.79 13.36 25.02 13.73L23.04 16.15 24.33 17.73 27.73 13.59 26.95 12.95C26.53 12.61 26.47 11.98 26.82 11.56L27.45 10.79 25.47 9.16 32 1.36 32 0Z" class="MsftOfcResponsive_Fill_7823dc" fill="#7823DC"/></svg>