<svg viewBox="0 0 32 32" xmlns="http://www.w3.org/2000/svg" xmlns:xlink="http://www.w3.org/1999/xlink" id="Layer_1" xml:space="preserve" overflow="hidden"><g><path d="M15 18.4 17 18.4 17 26.8 15 26.8 15 18.4Z" fill="#7823DC" fill-rule="evenodd" clip-rule="evenodd"/><path d="M17.9 19 14 19 13.2 16.5 13.1 16.5 10.5 17 8.6 13.7 10.3 11.7C10.3 11.7 10.3 11.7 10.3 11.6 10.3 11.6 10.3 11.6 10.3 11.5L8.6 9.5 10.5 6.2 13.1 6.7 13.2 6.7 14 4.2 17.8 4.2 18.7 6.9 18.8 6.9 21.4 6.4 23.3 9.7 21.6 11.7C21.6 11.7 21.6 11.7 21.6 11.8 21.6 11.8 21.6 11.8 21.6 11.9L23.3 13.9 21.3 17 18.7 16.5 18.6 16.5 17.9 19 17.9 19 17.9 19 17.9 19 17.9 19ZM15.5 17 16.4 17 17 15.1 17.4 14.9C17.6 14.8 17.8 14.7 17.9 14.6L18.3 14.3 20.3 14.7 20.8 13.9 19.5 12.4 19.5 12C19.5 11.9 19.5 11.8 19.5 11.7 19.5 11.6 19.5 11.5 19.5 11.4L19.5 11 20.8 9.5 20.3 8.7 18.3 9.1 18 8.9C17.8 8.8 17.6 8.7 17.5 8.6L17.1 8.4 16.5 6.5 15.6 6.5 15 8.4 14.6 8.6C14.4 8.7 14.2 8.8 14.1 8.9L13.5 9 11.5 8.6 11 9.4 12.3 10.9 12.3 11.3C12.3 11.4 12.3 11.5 12.3 11.6 12.3 11.7 12.3 11.8 12.3 11.9L12.3 12.3 11.1 14 11.6 14.8 13.6 14.4 14 14.7C14.2 14.8 14.4 14.9 14.5 15L14.9 15.2 15.5 17 15.5 17 15.5 17 15.5 17 15.5 17Z" fill="#7823DC" fill-rule="evenodd" clip-rule="evenodd"/><path d="M15.9 14.4C14.4 14.4 13.2 13.2 13.2 11.7 13.2 10.2 14.4 9 15.9 9 17.4 9 18.6 10.2 18.6 11.7 18.6 13.2 17.4 14.4 15.9 14.4L15.9 14.4 15.9 14.4 15.9 14.4ZM15.9 11C15.5 11 15.2 11.3 15.2 11.7 15.2 12.1 15.5 12.4 15.9 12.4 16.3 12.4 16.6 12.1 16.6 11.7 16.6 11.4 16.3 11 15.9 11L15.9 11 15.9 11 15.9 11Z" fill="#7823DC" fill-rule="evenodd" clip-rule="evenodd"/></g><g><path d="M16 2C21.9 1.9 26.8 7.7 25.5 13.5 24.8 18.6 18.5 20.5 18.7 26L13.3 26C13.5 20.5 7 18.5 6.4 13.3 5.3 7.6 10.2 1.9 16 2M16 0C8.3-0.2 2.2 8.2 5 15.5 6.5 20.2 12.5 22.4 11.3 28L20.7 28C19.6 22.4 25.5 20.2 27 15.5 29.8 8.2 23.7-0.2 16 0L16 0Z" fill="#7823DC" fill-rule="evenodd" clip-rule="evenodd"/><path d="M20.6 30 11.4 30 11.4 32 20.6 32 20.6 30 20.6 30 20.6 30Z" fill="#7823DC" fill-rule="evenodd" clip-rule="evenodd"/></g></svg>