<svg viewBox="0 0 32 32" xmlns="http://www.w3.org/2000/svg" xmlns:xlink="http://www.w3.org/1999/xlink" id="Layer_1" overflow="hidden"><path d="M28.1 2C28.6 2 29 2.4 29 2.9L29 30 2.9 30 2.9 2.9C2.9 2.4 3.3 2 3.8 2L28.1 2M28.1 0 3.8 0C2.2 0 0.9 1.3 0.9 2.9L0.9 32 31 32 31 2.9C31 1.3 29.7 0 28.1 0L28.1 0Z" fill="#7823DC"/><path d="M15.9 13C19.8 13 22.9 16.1 22.9 20 22.9 23.9 19.7 27 15.9 27 12.1 27 8.9 23.9 8.9 20 8.9 16.1 12.1 13 15.9 13M15.9 11C10.9 11 6.9 15 6.9 20 6.9 25 10.9 29 15.9 29 20.9 29 24.9 25 24.9 20 24.9 15 20.9 11 15.9 11L15.9 11Z" fill="#7823DC"/><rect x="2" y="7" width="29" height="2" fill="#7823DC"/><rect x="20" y="1" width="2" height="6" fill="#7823DC"/><rect x="4" y="3.6" width="15" height="2" fill="#7823DC"/><rect x="23" y="3.6" width="5" height="2" fill="#7823DC"/><path d="M13.2 24.1C13 24.1 12.8 24.1 12.6 24 12 23.8 11.7 23.4 11.6 23.1 11.6 23 11.5 23 11.5 22.9L11.5 22.9C11.5 22.9 11 22.7 9.5 23.8L8.3 22.2C8.9 21.7 10.8 20.3 12.4 21.1 12.9 21.4 13.1 21.7 13.3 22 13.3 22 13.3 22 13.3 22 13.4 21.9 13.6 21.8 13.7 21.7 14.2 21.3 15 20.9 16 20.9 16.8 21 17.3 21.4 17.6 21.6 17.8 21.8 17.9 21.8 18.1 21.9 18.4 21.9 18.6 21.8 19 21.6 19.5 21.3 20.1 20.9 21 20.9 21.9 20.9 22.8 21.4 23.7 22.2L22.3 23.6C21.8 23.1 21.4 22.9 21 22.9 20.7 22.9 20.5 23 20 23.3 19.5 23.6 18.8 24 17.9 23.9 17.1 23.8 16.6 23.4 16.3 23.1 16 23 16 23 15.9 23 15.6 23 15.3 23.1 14.9 23.4 14.4 23.7 13.9 24.1 13.2 24.1Z" fill="#7823DC"/></svg>