<svg viewBox="0 0 32 32" xmlns="http://www.w3.org/2000/svg" xmlns:xlink="http://www.w3.org/1999/xlink" id="Layer_5" overflow="hidden"><defs></defs><path d="M27.64 21.52C27.75 20.9 27.92 19.9 28.08 18.63 29.13 17.75 32 15.4 32 15.4L30.8 13.93 28.38 15.93C28.47 14.91 28.55 13.74 28.58 12.61L31.78 9.67 30.49 8.27 28.59 9.98C28.57 8.96 28.5 8.06 28.38 7.07L30.12 4.62 28.55 3.56 27.9 4.42C27.62 3.29 27.23 2.25 26.72 1.36L24.88 2.09C25.33 2.78 25.68 3.62 25.94 4.55L25.09 3.91 23.94 5.42 26.46 7.32C26.56 8.17 26.61 9.05 26.64 9.94L24.83 8.14 23.48 9.48 26.62 12.62C26.58 13.66 26.51 14.69 26.43 15.65L24.47 13.2 22.99 14.38 26.14 18.31C26.14 18.39 26.12 18.46 26.11 18.53L24.75 17.68C23.78 17.07 22.91 16.34 22.14 15.51 21.32 14.64 20.1 14.47 18.84 15.04 17.97 15.44 17.12 16.2 16.59 17.19 15.81 16.26 14.79 15.36 13.75 14.43 12.89 13.67 12.03 12.91 11.23 12.08 10.31 11.13 9.59 10.05 8.92 8.91 8.79 8.7 8.67 8.48 8.54 8.27 8.51 8.23 8.49 8.18 8.46 8.14 8.37 7.99 8.28 7.84 8.19 7.69 8.19 7.69 6.08 11.44 5.97 11.7L4.83 9.18 3.92 10.88C3.81 11.1 1.12 16.17 2.43 20.36 2.82 21.6 3.52 22.63 4.51 23.45 3.45 23.59 2.42 23.54 1.33 23.25L-0.05 22.88 0.14 24.28C0.26 25.2 1 29.79 3.48 30.38L3.77 30.45 4.48 30.17C7.04 29.17 7.89 28.83 10.49 30.15 11.14 30.48 11.9 30.64 12.73 30.64 14.09 30.64 15.63 30.21 17.12 29.39 19.85 27.87 21.66 25.45 21.86 23.05 22.15 19.65 24.07 19.44 24.27 19.43L26 19.39C25.79 20.83 25.61 21.75 25.6 21.79L27.52 22.17C27.52 22.17 27.53 22.11 27.54 22.07L27.58 22.07C27.6 21.9 27.62 21.71 27.64 21.53ZM4.21 19.79C3.57 17.75 4.16 15.32 4.75 13.67L5.02 14.26C4.37 16.54 4.2 19.22 5.78 22.05 5.02 21.46 4.5 20.71 4.21 19.79ZM19.98 22.88 19.96 22.88C19.78 25.01 17.9 26.78 16.19 27.73 14.36 28.74 12.45 29.03 11.34 28.46 9.83 27.69 8.68 27.4 7.63 27.4 6.35 27.4 5.22 27.85 3.77 28.41L3.69 28.44C3.15 28.06 2.6 26.75 2.26 25.35 4.25 25.6 6.2 25.24 8.28 24.24L9.39 23.71 8.6 22.77C5.04 18.55 6.69 14.74 8.02 11.67 8.07 11.56 8.12 11.45 8.16 11.34 9.34 13.05 10.98 14.5 12.48 15.83 14.15 17.31 15.73 18.71 16.07 19.98L17.93 19.64C17.8 18.38 18.69 17.18 19.63 16.75 19.91 16.63 20.43 16.46 20.74 16.79 21.22 17.3 21.72 17.78 22.26 18.22 21.2 18.96 20.17 20.38 19.96 22.88Z" fill="#7823DC"/></svg>