<svg viewBox="0 0 32 32" xmlns="http://www.w3.org/2000/svg" xmlns:xlink="http://www.w3.org/1999/xlink" id="Layer_1" overflow="hidden"><style>
.MsftOfcResponsive_Fill_7823dc {
 fill:#7823DC; 
}
</style>
<g><path d="M10.1 2 10.1 30 1.9 30 1.9 2 10.1 2M12.1 0-0.1 0-0.1 32 12.1 32 12.1 0 12.1 0Z" class="MsftOfcResponsive_Fill_7823dc" fill="#7823DC"/><rect x="3" y="3" width="6" height="2" class="MsftOfcResponsive_Fill_7823dc" fill="#7823DC"/><rect x="3" y="6" width="6" height="2" class="MsftOfcResponsive_Fill_7823dc" fill="#7823DC"/><rect x="3" y="24" width="6" height="2" class="MsftOfcResponsive_Fill_7823dc" fill="#7823DC"/><rect x="3" y="27" width="6" height="2" class="MsftOfcResponsive_Fill_7823dc" fill="#7823DC"/><rect x="7" y="13.3" width="2" height="5" class="MsftOfcResponsive_Fill_7823dc" fill="#7823DC"/></g><g><path d="M20.1 2 20.1 30 11.9 30 11.9 2 20.1 2M22.1 0 9.8 0 9.8 32 22 32 22 0 22.1 0Z" class="MsftOfcResponsive_Fill_7823dc" fill="#7823DC"/><rect x="13" y="3" width="6" height="2" class="MsftOfcResponsive_Fill_7823dc" fill="#7823DC"/><rect x="13" y="6" width="6" height="2" class="MsftOfcResponsive_Fill_7823dc" fill="#7823DC"/><rect x="13" y="24" width="6" height="2" class="MsftOfcResponsive_Fill_7823dc" fill="#7823DC"/><rect x="13" y="27" width="6" height="2" class="MsftOfcResponsive_Fill_7823dc" fill="#7823DC"/><rect x="16.9" y="13.3" width="2" height="5" class="MsftOfcResponsive_Fill_7823dc" fill="#7823DC"/></g><g><path d="M30 2 30 30 21.8 30 21.8 2 30 2M32 0 19.8 0 19.8 32 32 32 32 0 32 0Z" class="MsftOfcResponsive_Fill_7823dc" fill="#7823DC"/><rect x="22.9" y="3" width="6" height="2" class="MsftOfcResponsive_Fill_7823dc" fill="#7823DC"/><rect x="22.9" y="6" width="6" height="2" class="MsftOfcResponsive_Fill_7823dc" fill="#7823DC"/><rect x="22.9" y="24" width="6" height="2" class="MsftOfcResponsive_Fill_7823dc" fill="#7823DC"/><rect x="22.9" y="27" width="6" height="2" class="MsftOfcResponsive_Fill_7823dc" fill="#7823DC"/><rect x="26.9" y="13.3" width="2" height="5" class="MsftOfcResponsive_Fill_7823dc" fill="#7823DC"/></g></svg>