<svg viewBox="0 0 31.9 31.99" xmlns="http://www.w3.org/2000/svg" xmlns:xlink="http://www.w3.org/1999/xlink" id="Layer_1" overflow="hidden"><style>
.MsftOfcThm_Text2_Fill_v2 {
 fill:#7823DC; 
}
</style>
<defs></defs><path d="M30 31.98 20.56 2.24 11.13 31.98 9.23 31.37 19.18 0 21.95 0 31.9 31.37 30 31.98Z" class="MsftOfcThm_Text2_Fill_v2" stroke-width="0" fill="#7823DC"/><rect x="17.83" y="13.84" width="2" height="18.3" class="MsftOfcThm_Text2_Fill_v2" stroke-width="0" fill="#7823DC" transform="matrix(0.948986 -0.315318 0.315318 0.948986 -6.29 7.11)"/><rect x="-10.37" y="15" width="33.03" height="2" class="MsftOfcThm_Text2_Fill_v2" stroke-width="0" fill="#7823DC" transform="matrix(0.31449 -0.949261 0.949261 0.31449 -10.98 16.8)"/><rect x="2.1" y="28.26" width="8.6" height="2" class="MsftOfcThm_Text2_Fill_v2" stroke-width="0" fill="#7823DC"/><rect x="3.35" y="23.44" width="9.14" height="2" class="MsftOfcThm_Text2_Fill_v2" stroke-width="0" fill="#7823DC"/><rect x="5.56" y="18.62" width="8.08" height="2" class="MsftOfcThm_Text2_Fill_v2" stroke-width="0" fill="#7823DC"/><rect x="6.72" y="13.79" width="9.23" height="2" class="MsftOfcThm_Text2_Fill_v2" stroke-width="0" fill="#7823DC"/><rect x="8.45" y="8.97" width="8.65" height="2" class="MsftOfcThm_Text2_Fill_v2" stroke-width="0" fill="#7823DC"/><rect x="7.58" y="9" width="9.23" height="2" class="MsftOfcThm_Text2_Fill_v2" stroke-width="0" fill="#7823DC"/><rect x="9.31" y="4.18" width="8.65" height="2" class="MsftOfcThm_Text2_Fill_v2" stroke-width="0" fill="#7823DC"/><rect x="25.33" y="28.26" width="5.45" height="2" class="MsftOfcThm_Text2_Fill_v2" stroke-width="0" fill="#7823DC"/><rect x="23.83" y="23.44" width="4.27" height="2" class="MsftOfcThm_Text2_Fill_v2" stroke-width="0" fill="#7823DC"/><rect x="22.33" y="18.62" width="4.62" height="2" class="MsftOfcThm_Text2_Fill_v2" stroke-width="0" fill="#7823DC"/><rect x="20.84" y="13.79" width="4.34" height="2" class="MsftOfcThm_Text2_Fill_v2" stroke-width="0" fill="#7823DC"/><rect x="19.34" y="9" width="4.97" height="2" class="MsftOfcThm_Text2_Fill_v2" stroke-width="0" fill="#7823DC"/></svg>