<svg width="36.5" height="36.6" viewBox="0 0 36.5 36.6" xmlns="http://www.w3.org/2000/svg" xmlns:xlink="http://www.w3.org/1999/xlink" overflow="hidden"><defs></defs><g><g><defs><path d="M0 36.6 36.5 36.6 36.5 0.1 0 0.1 0 36.6Z" id="SVGID_1_" fill="#7823DC"/></defs><clipPath id="SVGID_2_"><use width="100%" height="100%" xlink:href="#SVGID_1_"></use></clipPath><g clip-path="url(#SVGID_2_)"><defs><path d="M0 36.6 36.5 36.6 36.5 0.1 0 0.1 0 36.6Z" id="SVGID_3_" fill="#7823DC"/></defs><clipPath id="SVGID_4_"><use width="100%" height="100%" xlink:href="#SVGID_3_"></use></clipPath><path d="M28.7 22.9 18.2 33.4 7.8 22.9 4.6 22.9 18.2 36.6 31.9 22.9 28.7 22.9 28.7 22.9Z" fill="#7823DC" clip-path="url(#SVGID_4_)"/><path d="M2.3 22.9 4.6 22.9 4.6 36.6 2.3 36.6 2.3 22.9Z" fill="#7823DC" clip-path="url(#SVGID_4_)"/><path d="M31.9 22.9 34.2 22.9 34.2 36.6 31.9 36.6 31.9 22.9Z" fill="#7823DC" clip-path="url(#SVGID_4_)"/><path d="M18.3 22.9C13.3 22.9 9.2 18.8 9.2 13.8 9.2 8.8 13.3 4.7 18.3 4.7 23.3 4.7 27.4 8.8 27.4 13.8 27.4 18.8 23.3 22.9 18.3 22.9ZM18.3 6.9C14.5 6.9 11.5 10 11.5 13.8 11.5 17.6 14.6 20.7 18.3 20.7 22.1 20.7 25.1 17.6 25.1 13.8 25.1 10 22 6.9 18.3 6.9Z" fill="#7823DC" clip-path="url(#SVGID_4_)"/><path d="M6.8 9.2 11.4 9.2 11.4 18.4 6.8 18.4 6.8 9.2Z" fill="#7823DC" clip-path="url(#SVGID_4_)"/><path d="M25.1 9.2 29.6 9.2 29.6 18.4 25.1 18.4 25.1 9.2Z" fill="#7823DC" clip-path="url(#SVGID_4_)"/><path d="M18.2 2.4C22.1 2.4 25.3 5.4 25.6 9.3L27.9 9.3C27.6 3.9 23.1-0.2 17.8 0 12.8 0.2 8.9 4.2 8.6 9.2L10.9 9.2C11.2 5.4 14.4 2.4 18.2 2.4L18.2 2.4Z" fill="#7823DC" clip-path="url(#SVGID_4_)"/></g></g></g></svg>