<svg viewBox="0 0 32 32" xmlns="http://www.w3.org/2000/svg" xmlns:xlink="http://www.w3.org/1999/xlink" id="Layer_1" overflow="hidden"><style>
.MsftOfcResponsive_Fill_7823dc {
 fill:#7823DC; 
}
</style>
<rect x="0" y="30" width="32" height="2" class="st0 MsftOfcResponsive_Fill_7823dc" fill="#7823DC"/><path d="M16.9 32 14.9 32 15 23.1 17 23.3Z" class="st0 MsftOfcResponsive_Fill_7823dc" fill="#7823DC"/><g><path d="M32 32 30 32 30 24 15 24 15 22 32 22Z" class="st0 MsftOfcResponsive_Fill_7823dc" fill="#7823DC"/><g><rect x="20.1" y="23.4" width="2" height="8.6" class="st0 MsftOfcResponsive_Fill_7823dc" fill="#7823DC"/><rect x="24.9" y="23.2" width="2" height="8.8" class="st0 MsftOfcResponsive_Fill_7823dc" fill="#7823DC"/></g></g><g><rect x="8.1" y="0" width="2" height="3.4" class="st0 MsftOfcResponsive_Fill_7823dc" fill="#7823DC"/><g><rect x="5.7" y="16.7" width="2" height="14.5" class="st0 MsftOfcResponsive_Fill_7823dc" fill="#7823DC"/><rect x="10.9" y="16.6" width="2" height="14.5" class="st0 MsftOfcResponsive_Fill_7823dc" fill="#7823DC"/></g><rect x="0" y="6.3" width="18.7" height="2" class="st0 MsftOfcResponsive_Fill_7823dc" fill="#7823DC"/><path d="M16.1 8.2 2.6 8.2 4.4 1.5 14.2 1.5 16.1 8.2ZM5.2 6.4 13.6 6.4 12.7 3.4 6 3.4 5.2 6.4Z" class="st0 MsftOfcResponsive_Fill_7823dc" fill="#7823DC"/><path d="M15 17 2.7 17 0 8.3 1.9 7.7 4.2 15 13.7 15 16.8 7.6 18.7 8.3Z" class="st0 MsftOfcResponsive_Fill_7823dc" fill="#7823DC"/></g></svg>