<svg viewBox="0 0 32 32" xmlns="http://www.w3.org/2000/svg" xmlns:xlink="http://www.w3.org/1999/xlink" id="Layer_1" overflow="hidden"><g><defs><path d="M5 32 27 32 27 0 5 0 5 32Z" id="SVGID_1_" fill="#7823DC"/></defs><defs><path d="M5 0 27 0 27 32 5 32 5 0Z" id="SVGID_00000051382503745171827490000016707670835933824388_" fill="#7823DC"/></defs><clipPath id="SVGID_00000123426536511733617700000012139011961236872871_"><use width="100%" height="100%" xlink:href="#SVGID_1_" overflow="visible"></use></clipPath><clipPath id="SVGID_00000041994993744105894160000003103850513011107746_" clip-path="url(#SVGID_00000123426536511733617700000012139011961236872871_)"><use width="100%" height="100%" xlink:href="#SVGID_00000051382503745171827490000016707670835933824388_" overflow="visible"></use></clipPath><g clip-path="url(#SVGID_00000041994993744105894160000003103850513011107746_)"><defs><path d="M5 32 27 32 27 0 5 0 5 32Z" id="SVGID_00000078758201464993019140000006149100486438019519_" fill="#7823DC"/></defs><clipPath id="SVGID_00000018958834741519696690000009460381281046644631_"><use width="100%" height="100%" xlink:href="#SVGID_00000078758201464993019140000006149100486438019519_" overflow="visible"></use></clipPath><path d="M20.6 2.2C18.1 1.1 15.3 1 12.7 2 10.1 3 8 5.1 6.9 7.7 4.6 13.1 7 19.5 12.3 21.8L13 20.1C8.7 18.1 6.7 13 8.6 8.4 9.5 6.2 11.2 4.6 13.3 3.8 15.5 3 17.9 3 20 4 24.4 5.9 26.3 11.1 24.5 15.6 23.6 17.7 22.1 19.3 20 20.1L20.7 21.8C23 20.8 25 18.8 26.1 16.2 28.2 10.9 25.9 4.5 20.6 2.2L20.6 2.2Z" fill="#7823DC" clip-path="url(#SVGID_00000018958834741519696690000009460381281046644631_)"/><path d="M18.1 16.4 18.8 18.1C20.5 17.3 21.9 16 22.4 14.2 23.7 10.7 21.9 6.8 18.6 5.6 16.9 4.9 15.2 5 13.6 5.8 12 6.6 10.8 7.9 10.2 9.6 8.8 13 10.5 17 14 18.2L14.7 16.7C12.2 15.8 11.1 13 11.9 10.4 12.4 9 13.2 8.1 14.3 7.6 15.4 7.1 16.8 7 18 7.4 20.5 8.3 21.6 11.1 20.8 13.7 20.4 14.8 19.4 16 18.1 16.4L18.1 16.4Z" fill="#7823DC" clip-path="url(#SVGID_00000018958834741519696690000009460381281046644631_)"/><path d="M17.5 25.8 17.5 14.8C18.5 14.4 19.3 13.4 19.3 12.1 19.3 10.5 18.1 9.2 16.4 9.2 14.8 9.2 13.6 10.4 13.6 12.1 13.6 13.3 14.3 14.3 15.3 14.8L15.3 25.9 12.8 25.9 10.9 31.6 22 31.6 20.1 25.9 17.5 25.8 17.5 25.8 17.5 25.8ZM16.5 11.3C17 11.3 17.2 11.6 17.2 12.1 17.2 12.6 16.9 12.9 16.5 12.9 16 12.9 15.8 12.6 15.8 12.1 15.7 11.6 16.1 11.3 16.5 11.3L16.5 11.3ZM13.4 29.6 14.1 27.7 18.7 27.7 19.4 29.6 13.4 29.6 13.4 29.6 13.4 29.6Z" fill="#7823DC" clip-path="url(#SVGID_00000018958834741519696690000009460381281046644631_)"/></g></g></svg>