<svg viewBox="0 0 32 32" xmlns="http://www.w3.org/2000/svg" xmlns:xlink="http://www.w3.org/1999/xlink" id="Layer_2_00000144328325245699140920000014890284756443101063_" xml:space="preserve" overflow="hidden"><g><path d="M16 17.9 17.7 17.9 17.7 19.2 16.2 19.2C16.2 19.5 16.1 19.8 16 20.1 15.9 20.3 15.8 20.5 15.6 20.7 15.8 20.7 16 20.6 16.1 20.6 16.3 20.6 16.5 20.6 16.9 20.7 17.3 20.8 17.7 20.8 17.9 20.8 18.1 20.8 18.3 20.8 18.4 20.7 18.6 20.7 18.7 20.6 19 20.5L19.8 22.2C19.4 22.4 19.1 22.5 18.8 22.6 18.5 22.7 18.2 22.7 17.9 22.7 17.6 22.7 17.1 22.6 16.7 22.5 16.1 22.3 15.7 22.2 15.6 22.2 15.5 22.2 15.3 22.2 15.1 22.2 14.6 22.2 14.1 22.4 13.5 22.7L12.8 21.1C13.6 20.5 14 20 14 19.4 14 19.4 14 19.3 14 19.1L12.8 19.1 12.8 17.8 13.6 17.8C13.5 17.3 13.4 17 13.4 16.9 13.4 16.8 13.4 16.6 13.4 16.5 13.4 16 13.5 15.6 13.8 15.2 14.1 14.8 14.4 14.6 14.8 14.4 15.2 14.2 15.8 14.1 16.4 14.1 17 14.1 17.6 14.2 17.9 14.3 18.3 14.4 18.6 14.7 18.9 15 19.2 15.3 19.3 15.7 19.4 16.2L17.2 16.5C17.1 16.1 17 15.8 16.8 15.7 16.7 15.6 16.5 15.5 16.3 15.5 16.1 15.5 15.9 15.6 15.8 15.7 15.7 15.8 15.6 16 15.6 16.3 15.6 16.4 15.6 16.6 15.6 16.7 15.8 17.1 15.9 17.4 16 17.9L16 17.9Z" fill="#7823DC" fill-rule="evenodd" clip-rule="evenodd"/><path d="M32 24 32 18.7 32 18.7C32 14.3 24.8 10.7 16 10.7 7.2 10.7 0 14.3 0 18.7L0 24.2 0 24.2C0.2 28.5 7.3 32 16 32 24.7 32 31.8 28.5 32 24.2L32 24.2 32 24 32 24 32 24 32 24ZM16 12.7C24 12.7 30 15.9 30 18.7 30 21.5 24 24.7 16 24.7 8 24.7 2 21.5 2 18.7 2 15.9 8 12.7 16 12.7L16 12.7ZM16 30C8 30 2 26.8 2 24L2 22.5C4.7 25 10 26.6 16 26.6 22 26.6 27.3 24.9 30 22.5L30 24C30 26.9 24 30 16 30L16 30Z" fill="#7823DC" fill-rule="evenodd" clip-rule="evenodd"/></g></svg>