<svg viewBox="0 0 32 32" xmlns="http://www.w3.org/2000/svg" xmlns:xlink="http://www.w3.org/1999/xlink" id="Graphic" overflow="hidden"><defs></defs><path d="M16 8.18C8.33777 8.17937 2.09851 14.3384 2 22L0 22 0 24 32.06 24 32.06 22 30 22C29.9015 14.3384 23.6622 8.17937 16 8.18ZM4 22C4 15.3726 9.37258 10 16 10 22.6274 10 28 15.3726 28 22Z" fill="#7823DC"/><path d="M30.06 28 30.06 30 2 30 2 28 30.06 28M32.06 26 0 26 0 32 32.06 32 32.06 26Z" fill="#7823DC"/><path d="M17.01 3.97 14.99 3.97 14.99 9.34 17.01 9.34 17.01 3.97 17.01 3.97Z" fill="#7823DC"/><path d="M20 3.97 12 3.97 12 5.99 20 5.99 20 3.97 20 3.97Z" fill="#7823DC"/></svg>