<svg viewBox="0 0 32 32" xmlns="http://www.w3.org/2000/svg" xmlns:xlink="http://www.w3.org/1999/xlink" id="Layer_1" overflow="hidden"><style>
.MsftOfcResponsive_Fill_7823dc {
 fill:#7823DC; 
}
</style>
<g><path d="M20.2 25C19.5 24.7 18.7 24.3 17.9 23.7 18.3 24.9 18.4 25.6 18.2 25.9 18.2 25.9 18.1 26 17.9 26 17.9 26 17.9 26 17.9 26L17.8 26C15.9 26 11.9 23.8 8 19.7 3.4 14.9 1.9 10.7 2.1 9.5 2 9.4 2 9.3 2.1 9.2 2.1 9.2 2.2 9.1 2.5 9.1 3 9.1 3.6 9.3 4.4 9.5 3.8 8.7 3.4 7.9 3.2 7.2 3 7.2 2.7 7.2 2.5 7.2 2 7.2 1.5 7.3 1.1 7.5 1 7.6 0.8 7.7 0.7 7.8-1.3 9.7 1.2 15.7 6.4 21.1 10.5 25.4 15 28.1 17.7 28.1 18.4 28.1 19.1 27.9 19.5 27.5 19.6 27.4 19.7 27.3 19.8 27.1L19.8 27.1C20.1 26.6 20.2 25.9 20.2 25Z" class="MsftOfcResponsive_Fill_7823dc" fill="#7823DC"/><g><path d="M16.2 11.8C15.9 11.5 15.5 11.1 15.2 10.8 14.6 10.1 13.9 9.5 13.2 9 12.9 8.7 12.6 8.4 12.2 8.2 12.2 8.2 12.2 8.2 12.2 8.2 11.9 7.9 11.6 7.7 11.2 7.4 10.6 6.9 9.9 6.4 9.3 6 9.3 6 9.3 6 9.3 6 9.2 5.7 8.9 5.5 8.6 5.3L8.6 5.3C8.3 5.1 8 4.9 7.7 4.7 7.6 4.7 7.4 4.6 7.3 4.5 7 4.3 6.7 4.2 6.5 4 5 3.3 3.7 2.9 2.7 2.9 2 2.9 1.5 3 1.2 3.4 0.4 4.1 0.4 5.6 1.1 7.5 1.3 8.1 1.6 8.8 2 9.5 3.4 12.3 5.8 15.6 8.9 18.8 9.2 19.1 9.6 19.5 9.9 19.8 10.2 20.1 10.5 20.4 10.9 20.7 13.3 23 15.7 24.8 17.9 26.1 17.9 26.1 17.9 26.1 17.9 26.1 18.6 26.5 19.3 26.8 19.9 27.1 20 27.1 20.1 27.2 20.3 27.2 21.2 27.5 21.9 27.7 22.5 27.7 22.7 27.7 22.8 27.7 23 27.7 23.2 27.7 23.4 27.6 23.6 27.5 23.8 27.4 23.9 27.3 24.1 27.2 26 25.2 22.5 18.3 16.2 11.8ZM22.5 25.7 22.5 25.7C21.9 25.7 21.1 25.5 20.1 25 19.4 24.7 18.6 24.3 17.8 23.7 15.6 22.3 13 20.2 10.3 17.3 7.4 14.3 5.5 11.6 4.3 9.5 3.8 8.7 3.4 7.9 3.2 7.2 2.7 6.1 2.6 5.2 2.6 4.8L2.7 4.8C4.7 4.8 9.7 7.7 14.8 13.1 20.8 19.5 22.7 24.5 22.5 25.7Z" class="MsftOfcResponsive_Fill_7823dc" fill="#7823DC"/><path d="M16.2 11.8C15.9 11.5 15.5 11.1 15.2 10.8 14.6 10.1 13.9 9.5 13.2 9 12.9 8.7 12.6 8.4 12.2 8.2 12.2 8.2 12.2 8.2 12.2 8.2 11.9 7.9 11.6 7.7 11.2 7.4 10.6 6.9 9.9 6.4 9.3 6 9.3 6 9.3 6 9.3 6 9.2 5.7 8.9 5.5 8.6 5.3L8.6 5.3C8.3 5.1 8 4.9 7.7 4.7 7.6 4.7 7.4 4.6 7.3 4.5 7 4.3 6.7 4.2 6.5 4 5 3.3 3.7 2.9 2.7 2.9 2 2.9 1.5 3 1.2 3.4 0.4 4.1 0.4 5.6 1.1 7.5 1.3 8.1 1.6 8.8 2 9.5 3.4 12.3 5.8 15.6 8.9 18.8 9.2 19.1 9.6 19.5 9.9 19.8 10.2 20.1 10.5 20.4 10.9 20.7 13.3 23 15.7 24.8 17.9 26.1 17.9 26.1 17.9 26.1 17.9 26.1 18.6 26.5 19.3 26.8 19.9 27.1L19.9 27.1C20 27.1 20.1 27.2 20.3 27.2 21.2 27.5 21.9 27.7 22.5 27.7 22.7 27.7 22.8 27.7 23 27.7 23.2 27.7 23.4 27.6 23.6 27.5 23.8 27.4 23.9 27.3 24.1 27.2 26 25.2 22.5 18.3 16.2 11.8ZM22.5 25.7 22.5 25.7C21.9 25.7 21.1 25.5 20.1 25 19.4 24.7 18.6 24.3 17.8 23.7 15.6 22.3 13 20.2 10.3 17.3 7.4 14.3 5.5 11.6 4.3 9.5 3.8 8.7 3.4 7.9 3.2 7.2 2.7 6.1 2.6 5.2 2.6 4.8L2.7 4.8C4.7 4.8 9.7 7.7 14.8 13.1 20.8 19.5 22.7 24.5 22.5 25.7Z" class="MsftOfcResponsive_Fill_7823dc" fill="#7823DC"/></g></g><g><rect x="5.7" y="19.7" width="2" height="11.3" class="MsftOfcResponsive_Fill_7823dc" fill="#7823DC"/><rect x="10.3" y="24.4" width="2" height="6.6" class="MsftOfcResponsive_Fill_7823dc" fill="#7823DC"/></g><rect x="0" y="30" width="18.1" height="2" class="MsftOfcResponsive_Fill_7823dc" fill="#7823DC"/><path d="" class="MsftOfcResponsive_Fill_7823dc" stroke="#7823DC" stroke-width="2" stroke-miterlimit="10" fill="#7823DC"/><g><g><path d="M27.5 9.6C26.7 9.5 26.7 9.5 26.7 9.5 26.8 5.1 23.4 1.4 18.9 1.3 19 0.5 19 0.5 19 0.5 23.9 0.9 27.6 4.8 27.5 9.6L27.5 9.6Z" class="MsftOfcResponsive_Fill_7823dc" fill="#7823DC" fill-rule="evenodd" clip-rule="evenodd"/><path d="M27.6 9.7 26.5 9.6 26.5 9.5C26.6 5.1 23.2 1.5 18.8 1.4L18.7 1.4 18.8 0.3 18.9 0.3C24 0.8 27.7 4.7 27.6 9.5L27.6 9.7ZM26.8 9.4 27.4 9.4C27.4 4.8 23.9 1 19.1 0.5L19.1 1.1C23.4 1.3 26.8 4.9 26.8 9.4Z" class="MsftOfcResponsive_Fill_7823dc" fill="#7823DC"/></g><g><path d="M27.9 10C26.3 10 26.3 10 26.3 10 26.3 9.6 26.3 9.6 26.3 9.6 26.4 5.3 23.2 1.8 18.9 1.7 18.4 1.7 18.4 1.7 18.4 1.7 18.4 0.1 18.4 0.1 18.4 0.1 18.9 0.1 18.9 0.1 18.9 0.1 24 0.4 28 4.5 27.9 9.6L27.9 10 27.9 10 27.9 10ZM27.1 9.3 27.1 9.3C27.1 7.5 26.4 5.6 25.2 4.2 26.4 5.6 27.2 7.4 27.1 9.3L27.1 9.3ZM19.3 1.2C20.1 1.3 21 1.4 21.7 1.7 20.9 1.5 20.1 1.2 19.3 1.1L19.3 1.2 19.3 1.2 19.3 1.2Z" class="MsftOfcResponsive_Fill_7823dc" fill="#7823DC" fill-rule="evenodd" clip-rule="evenodd"/><path d="M28.1 10.2 26.2 10.2 26.2 9.7C26.2 7.7 25.5 5.8 24.2 4.3 22.8 2.8 21 2 18.9 1.9L18.3 1.9 18.3 0 19 0C24.2 0.3 28.2 4.6 28.1 9.6L28.1 10.2ZM26.5 9.9 27.9 9.9 27.9 9.6C27.9 4.7 24 0.6 19 0.3L18.7 0.3 18.7 1.7 19 1.7C23.3 1.8 26.6 5.3 26.5 9.7L26.5 9.9ZM27.2 9.3 27 9.3C27 7.5 26.3 5.7 25.1 4.2L25.3 4C26.6 5.6 27.3 7.5 27.2 9.3ZM21.7 1.8C21.5 1.7 21.3 1.7 21.1 1.6 21.1 1.6 21.1 1.6 21.1 1.6 20.5 1.5 19.9 1.4 19.3 1.3L19.2 1.3 19.1 0.9 19.3 0.9C19.9 1 20.5 1.2 21.1 1.4 21.3 1.5 21.5 1.5 21.7 1.6L21.7 1.8Z" class="MsftOfcResponsive_Fill_7823dc" fill="#7823DC"/></g><g><path d="M25.1 9.6C24.3 9.5 24.3 9.5 24.3 9.5 24.4 6.4 22 3.8 18.9 3.7 19 2.9 19 2.9 19 2.9 22.4 3 25.1 6.1 25.1 9.6L25.1 9.6Z" class="MsftOfcResponsive_Fill_7823dc" fill="#7823DC" fill-rule="evenodd" clip-rule="evenodd"/><path d="M25.2 9.7 24.1 9.6 24.1 9.5C24.2 6.5 21.8 3.9 18.8 3.8L18.7 3.8 18.8 2.7 18.9 2.7C22.3 2.8 25.2 5.9 25.2 9.5L25.2 9.7ZM24.4 9.4 25 9.4C25 6.1 22.3 3.2 19.1 3L19.1 3.6C22 3.7 24.4 6.3 24.4 9.4Z" class="MsftOfcResponsive_Fill_7823dc" fill="#7823DC"/></g><g><path d="M25.5 10C23.9 10 23.9 10 23.9 10 23.9 9.6 23.9 9.6 23.9 9.6 23.9 6.8 21.8 4.3 18.9 4.2 18.4 4.2 18.4 4.2 18.4 4.2 18.4 2.6 18.4 2.6 18.4 2.6 18.9 2.6 18.9 2.6 18.9 2.6 22.6 2.7 25.6 5.9 25.5 9.7L25.5 10 25.5 10 25.5 10ZM24.7 9.2 24.7 9.2C24.5 6.2 22.2 3.7 19.2 3.4 19.2 3.6 19.2 3.6 19.2 3.6 22.1 3.8 24.6 6.1 24.7 9.2L24.7 9.2Z" class="MsftOfcResponsive_Fill_7823dc" fill="#7823DC" fill-rule="evenodd" clip-rule="evenodd"/><path d="M25.6 10.2 23.7 10.2 23.7 9.7C23.7 6.9 21.5 4.5 18.8 4.4L18.2 4.4 18.2 2.5 18.8 2.5C20.6 2.5 22.3 3.3 23.6 4.7 24.9 6.1 25.6 7.8 25.5 9.7L25.6 10.2ZM24 9.9 25.4 9.9 25.4 9.6C25.4 7.8 24.8 6.1 23.5 4.8 22.3 3.5 20.6 2.7 18.8 2.7L18.5 2.7 18.5 4.1 18.8 4.1C21.7 4.2 24 6.7 24 9.6L24 9.9ZM24.6 9.2C24.4 6.3 22.2 4 19.3 3.7L19.2 3.7 19.1 3.3 19.3 3.3C22.3 3.6 24.7 6.1 24.9 9.2 24.9 9.2 24.9 9.2 24.9 9.2L24.6 9.2Z" class="MsftOfcResponsive_Fill_7823dc" fill="#7823DC"/></g><g><path d="M22.8 9.5C22 9.5 22 9.5 22 9.5 22 7.7 20.4 6.2 18.8 6.2 18.9 5.4 18.9 5.4 18.9 5.4 21.1 5.4 22.8 7.3 22.8 9.5L22.8 9.5Z" class="MsftOfcResponsive_Fill_7823dc" fill="#7823DC" fill-rule="evenodd" clip-rule="evenodd"/><path d="M22.9 9.7 21.8 9.6 21.8 9.5C21.8 7.8 20.4 6.3 18.7 6.3L18.6 6.3 18.7 5.2 18.8 5.2C21.2 5.3 22.9 7.2 22.9 9.5L22.9 9.7ZM22.1 9.4 22.7 9.4C22.7 7.3 21.1 5.6 19 5.5L19 6.1C20.6 6.1 22.1 7.6 22.1 9.4Z" class="MsftOfcResponsive_Fill_7823dc" fill="#7823DC"/></g><g><path d="M23.2 10C21.6 10 21.6 10 21.6 10 21.6 9.5 21.6 9.5 21.6 9.5 21.6 7.9 20.4 6.6 18.7 6.6 18.2 6.6 18.2 6.6 18.2 6.6 18.2 5 18.2 5 18.2 5 18.7 5 18.7 5 18.7 5 21.2 5.1 23.2 7.1 23.2 9.6L23.2 10 23.2 10 23.2 10ZM22.3 9.2C22.5 9.2 22.5 9.2 22.5 9.2 22.4 7.6 21 6.1 19.3 5.9 19.3 6.1 19.3 6.1 19.3 6.1 20.8 6 22.3 7.5 22.3 9.2L22.3 9.2Z" class="MsftOfcResponsive_Fill_7823dc" fill="#7823DC" fill-rule="evenodd" clip-rule="evenodd"/><path d="M23.4 10.1 21.5 10.1 21.5 9.5C21.5 8.7 21.2 8 20.7 7.5 20.2 7 19.5 6.7 18.7 6.7L18.1 6.7 18.1 4.8 18.7 4.8C21.2 4.9 23.3 7 23.3 9.5L23.4 10.1ZM21.7 9.9 23.1 9.9 23.1 9.6C23.1 7.2 21.1 5.2 18.7 5.2L18.4 5.2 18.4 6.6 18.7 6.6C19.6 6.6 20.3 6.9 20.9 7.5 21.4 8.1 21.7 8.8 21.7 9.7L21.7 9.9ZM22.2 9.3 22.2 9.2C22.2 7.7 20.8 6.2 19.3 6.2L19.2 6.2 19.1 5.8 19.3 5.8C21 6 22.5 7.5 22.6 9.2L22.6 9.3 22.2 9.3Z" class="MsftOfcResponsive_Fill_7823dc" fill="#7823DC"/></g></g><rect x="11" y="12.2" width="8" height="2" class="MsftOfcResponsive_Fill_7823dc" fill="#7823DC" transform="matrix(0.7071 -0.7071 0.7071 0.7071 -4.9077 14.4769)"/><path d="M17.8 12.3C16.7 12.3 15.9 11.4 15.9 10.4 15.9 9.3 16.8 8.5 17.8 8.5 18.8 8.5 19.7 9.4 19.7 10.4 19.8 11.4 18.9 12.3 17.8 12.3ZM17.8 10.3 17.8 10.3C17.7 10.4 17.8 10.4 17.8 10.4L17.8 10.3Z" class="MsftOfcResponsive_Fill_7823dc" fill="#7823DC"/></svg>