<svg viewBox="0 0 32 32" xmlns="http://www.w3.org/2000/svg" xmlns:xlink="http://www.w3.org/1999/xlink" overflow="hidden"><defs></defs><g id="Layer_3"><path d="M0.475 31.3865C2.08913 32.1963 3.99087 32.1963 5.605 31.3865 6.64482 30.8719 7.86518 30.8719 8.905 31.3865L9.005 31.3865C10.5841 32.1505 12.4259 32.1505 14.005 31.3865L14.125 31.3265C15.1648 30.8119 16.3852 30.8119 17.425 31.3265 19.0496 32.1514 20.9704 32.1514 22.595 31.3265 23.6547 30.7917 24.9053 30.7917 25.965 31.3265 27.5686 32.1214 29.4514 32.1214 31.055 31.3265L31.975 30.8665 31.975 28.6865 30.155 29.5965C29.0918 30.1314 27.8382 30.1314 26.775 29.5965 25.1598 28.7914 23.2602 28.7914 21.645 29.5965 20.5993 30.1162 19.3707 30.1162 18.325 29.5965 16.7238 28.8064 14.8462 28.8064 13.245 29.5965L13.115 29.6665C12.0834 30.1713 10.8766 30.1713 9.845 29.6665L9.745 29.6165C8.12976 28.8114 6.23024 28.8114 4.615 29.6165 3.57628 30.1358 2.35372 30.1358 1.315 29.6165L0.025 28.9265 0.025 31.1665Z" fill="#7823DC"/><path d="M26.956 30.294 25.044 29.706 26.578 24.722 2 28.363 2 30 0 30 0 26.637 29.422 22.278 26.956 30.294Z" fill="#7823DC"/><path d="M18.0317 5.919 28.429 19.4289 18.1121 20.9412 18.0317 5.919M16-0.00013 16.1244 23.254 32.0948 20.9128 16-0.00013Z" fill="#7823DC"/><path d="M3.21484 24.6826 13.0322 5.69434 13.0322 0 15.0322 0 15.0322 22.9321ZM13.0322 10.0493 6.78516 22.1318 13.0322 21.2065Z" fill="#7823DC"/><path d="M12.032 0 6.032 4 12.032 4 12.032 0 12.032 0Z" fill="#7823DC"/></g></svg>