<svg viewBox="0 0 32 32" xmlns="http://www.w3.org/2000/svg" xmlns:xlink="http://www.w3.org/1999/xlink" id="Layer_1" xml:space="preserve" overflow="hidden"><style>
.MsftOfcResponsive_Fill_7823dc {
 fill:#7823DC; 
}
</style>
<g><path d="M25.9 2C26 2 26 2 25.9 2L25.9 30 25.9 30 6.1 30 6.1 30 6 2 6 2 25.9 2M25.9 0 6.1 0C5 0 4.1 0.9 4.1 2L4.1 30C4.1 31.1 5 32 6.1 32L25.9 32C27 32 27.9 31.1 27.9 30L27.9 2C27.9 0.9 27 0 25.9 0L25.9 0 25.9 0 25.9 0Z" class="MsftOfcResponsive_Fill_7823dc" fill="#7823DC" fill-rule="evenodd" clip-rule="evenodd"/><path d="M19.4 5 12.7 5C12.1 5 11.7 4.6 11.7 4 11.7 3.4 12.1 3 12.7 3L19.4 3C20 3 20.4 3.4 20.4 4 20.4 4.6 19.9 5 19.4 5L19.4 5Z" class="MsftOfcResponsive_Fill_7823dc" fill="#7823DC" fill-rule="evenodd" clip-rule="evenodd"/><path d="M16 29.7C15.9 29.7 15.7 29.7 15.6 29.6 15.5 29.6 15.4 29.5 15.3 29.4 15.1 29.2 15 29 15 28.7 15 28.6 15 28.4 15.1 28.3 15.1 28.2 15.2 28.1 15.3 28 15.7 27.6 16.3 27.6 16.7 28 16.8 28.1 16.9 28.2 16.9 28.3 17 28.4 17 28.5 17 28.7 17 29 16.9 29.2 16.7 29.4 16.5 29.6 16.3 29.7 16 29.7L16 29.7Z" class="MsftOfcResponsive_Fill_7823dc" fill="#7823DC" fill-rule="evenodd" clip-rule="evenodd"/></g></svg>