<svg viewBox="0 0 32 32" xmlns="http://www.w3.org/2000/svg" xmlns:xlink="http://www.w3.org/1999/xlink" overflow="hidden"><defs></defs><g id="Layer_5"><path d="M29.51 25.55C34.2442 18.0886 32.0334 8.20216 24.572 3.46797 17.1106-1.26623 7.22416 0.944588 2.48997 8.40596 0.859581 10.9756-0.00418799 13.9568-2.08817e-07 17 0.00318322 20.0434 0.881408 23.0218 2.53 25.58L0.05 32 5.63 32 9.26 27.33 22.81 27.33 26.44 32 32 32ZM28.57 23.13 26.57 18 30 18C29.864 19.7872 29.3781 21.5302 28.57 23.13ZM30 16 23 16C22.87 10.68 21.71 6.21 19.93 3.57 25.5564 5.19877 29.5741 10.1581 30 16ZM16 3C18.27 3 20.78 8.29 21 16L19.18 16 17.36 18.33 14.71 18.33 12.89 16 11 16C11.24 8.29 13.75 3 16 3ZM12.12 3.57C10.33 6.21 9.12 10.68 9.04 16L2.04 16C2.47018 10.1499 6.50175 5.18827 12.14 3.57ZM2.07 18 5.5 18 3.5 23.15C2.69227 21.5429 2.2065 19.7935 2.07 18ZM23.79 25.33 8.28 25.33 4.65 30 3 30 7.64 18 11.91 18 13.73 20.33 18.34 20.33 20.16 18 24.43 18 29.1 30 27.42 30Z" fill="#7823DC"/><rect x="22" y="19.76" width="2" height="1.68" fill="#7823DC"/><rect x="19.34" y="21.94" width="2" height="1.68" fill="#7823DC"/><rect x="22.52" y="22.79" width="2" height="1.68" fill="#7823DC"/><path d="M11 19.76 9 19.76 9 21.34 7.52 21.34 7.52 23.34 9 23.34 9 24.72 11 24.72 11 23.34 12.48 23.34 12.48 21.34 11 21.34 11 19.76Z" fill="#7823DC"/></g></svg>