<svg width="32" height="32" viewBox="0 0 32 32" xmlns="http://www.w3.org/2000/svg" xmlns:xlink="http://www.w3.org/1999/xlink" overflow="hidden"><style>
.MsftOfcResponsive_Fill_7823dc {
 fill:#7823DC; 
}
</style>
<defs></defs><g><g><g><defs><rect x="0" y="0" width="32" height="32" id="SVGID_1_" class="MsftOfcResponsive_Fill_7823dc" fill="#7823DC"/></defs><clipPath id="SVGID_2_"><use width="100%" height="100%" xlink:href="#SVGID_1_"></use></clipPath><g class="st0" clip-path="url(#SVGID_2_)"><defs><rect x="0" y="0" width="32" height="32" id="SVGID_3_" class="MsftOfcResponsive_Fill_7823dc" fill="#7823DC"/></defs><clipPath id="SVGID_4_"><use width="100%" height="100%" xlink:href="#SVGID_3_"></use></clipPath><path d="M18.8 5C21.4 5 23.8 6.5 24.7 8.7L27 14 5.1 14 7.4 8.7C8.3 6.5 10.7 5 13.3 5L18.8 5M18.8 3 13.3 3C9.9 3 6.8 4.9 5.5 7.9L2 16 30 16 26.5 7.9C25.3 4.9 22.2 3 18.8 3" class="st1 MsftOfcResponsive_Fill_7823dc" fill="#7823DC" clip-path="url(#SVGID_4_)"/><path d="M27.3 16C28.3 16 29.1 16.8 29.1 17.8L29.1 18 29.1 18.2 30.1 24.5C30 25.4 29.3 26.1 28.3 26.1L3.8 26.1C2.9 26.1 2.1 25.4 2 24.5L3 18.2 3 18 3 17.8C3 16.8 3.8 16 4.8 16L27.3 16M27.3 14 4.8 14C2.7 14 1 15.7 1 17.8L0 24.3C0 26.3 1.7 28 3.8 28L28.3 28C30.4 28 32.1 26.3 32.1 24.2L31.1 17.7C31 15.7 29.3 14 27.3 14" class="st1 MsftOfcResponsive_Fill_7823dc" fill="#7823DC" clip-path="url(#SVGID_4_)"/><path d="M6.2 32 3.5 32C2.7 32 2 31.3 2 30.5L2 27.9C2 27 2.7 26.4 3.5 26.4L6.1 26.4C7 26.4 7.6 27.1 7.6 27.9L7.6 30.5C7.7 31.3 7 32 6.2 32" class="st1 MsftOfcResponsive_Fill_7823dc" fill="#7823DC" clip-path="url(#SVGID_4_)"/><path d="M28.4 32 25.6 32C24.7 32 24 31.3 24 30.4L24 27.8C24 26.9 24.7 26.2 25.6 26.2L28.4 26.2C29.3 26.2 30 26.9 30 27.8L30 30.4C30 31.3 29.3 32 28.4 32" class="st1 MsftOfcResponsive_Fill_7823dc" fill="#7823DC" clip-path="url(#SVGID_4_)"/><path d="M19.3 20 19.6 22 12.3 22 12.6 20 19.3 20ZM21 18 11 18 10 24 22 24 21 18Z" class="st1 MsftOfcResponsive_Fill_7823dc" fill="#7823DC" clip-path="url(#SVGID_4_)"/></g></g></g><path d="M15.5 14.3 13.5 14.3C13.5 13.2 12.6 12.3 11.5 12.3 10.4 12.3 9.5 13.2 9.5 14.3L7.5 14.3C7.5 12.1 9.3 10.3 11.5 10.3 13.7 10.3 15.5 12.1 15.5 14.3Z" class="st2 MsftOfcResponsive_Fill_7823dc" fill="#7823DC"/><path d="M6 23.5C4.3 23.5 3 22.2 3 20.5 3 18.8 4.3 17.5 6 17.5 7.7 17.5 9 18.8 9 20.5 9 22.2 7.7 23.5 6 23.5ZM6 19.5C5.4 19.5 5 19.9 5 20.5 5 21.1 5.4 21.5 6 21.5 6.6 21.5 7 21.1 7 20.5 7 19.9 6.6 19.5 6 19.5Z" class="st2 MsftOfcResponsive_Fill_7823dc" fill="#7823DC"/><path d="M26 23.5C24.3 23.5 23 22.2 23 20.5 23 18.8 24.3 17.5 26 17.5 27.7 17.5 29 18.8 29 20.5 29 22.2 27.7 23.5 26 23.5ZM26 19.5C25.4 19.5 25 19.9 25 20.5 25 21.1 25.4 21.5 26 21.5 26.6 21.5 27 21.1 27 20.5 27 19.9 26.6 19.5 26 19.5Z" class="st2 MsftOfcResponsive_Fill_7823dc" fill="#7823DC"/><rect x="7" y="6" width="18" height="2" class="st2 MsftOfcResponsive_Fill_7823dc" fill="#7823DC"/></g></svg>