<svg viewBox="0 0 32 32" xmlns="http://www.w3.org/2000/svg" xmlns:xlink="http://www.w3.org/1999/xlink" id="Layer_5" overflow="hidden"><defs></defs><path d="M16 11.49C13.51 11.49 11.49 13.51 11.49 16 11.49 18.49 13.51 20.51 16 20.51 18.49 20.51 20.51 18.49 20.51 16 20.51 13.51 18.49 11.49 16 11.49ZM16 18.52C14.61 18.52 13.49 17.39 13.49 16.01 13.49 14.63 14.62 13.5 16 13.5 17.38 13.5 18.51 14.63 18.51 16.01 18.51 17.39 17.38 18.52 16 18.52Z" stroke-width="0" fill="#7823DC"/><path d="M28.78 25.56C28.27 25.56 27.8 25.69 27.37 25.9L25.24 23.49 27.62 23.64 25.9 21.7 22.24 21.48C23.53 20.02 24.31 18.1 24.31 16.01 24.31 13.92 23.52 12 22.24 10.54L25.9 10.32 27.62 8.38 25.24 8.53 27.37 6.12C27.8 6.33 28.27 6.46 28.78 6.46 30.55 6.46 32 5.02 32 3.24 32 1.46 30.56 0 28.78 0 27 0 25.56 1.44 25.56 3.22 25.56 3.82 25.73 4.37 26.02 4.85L23.86 7.29 23.72 4.91 22 6.85 22.22 10.51C20.7 8.79 18.48 7.7 16 7.7 13.52 7.7 11.31 8.79 9.78 10.52L10 6.86 8.28 4.92 8.14 7.3 5.98 4.86C6.26 4.38 6.44 3.83 6.44 3.23 6.44 1.44 4.99 0 3.22 0 1.45 0 0 1.44 0 3.22 0 5 1.44 6.44 3.22 6.44 3.73 6.44 4.2 6.31 4.63 6.1L6.76 8.51 4.38 8.36 6.1 10.3 9.76 10.52C8.47 11.98 7.69 13.9 7.69 15.99 7.69 18.08 8.48 20 9.76 21.46L6.1 21.68 4.38 23.62 6.76 23.47 4.63 25.88C4.2 25.67 3.73 25.54 3.22 25.54 1.44 25.56 0 27.01 0 28.78 0 30.55 1.44 32 3.22 32 5 32 6.44 30.56 6.44 28.78 6.44 28.18 6.27 27.63 5.98 27.15L8.14 24.71 8.28 27.09 10 25.15 9.78 21.49C11.3 23.21 13.52 24.31 16 24.31 18.48 24.31 20.69 23.22 22.22 21.5L22 25.16 23.72 27.1 23.86 24.72 26.02 27.16C25.74 27.64 25.56 28.19 25.56 28.79 25.56 30.56 27 32.01 28.78 32.01 30.56 32.01 32 30.57 32 28.79 32 27.01 30.56 25.57 28.78 25.57ZM28.78 2C29.45 2 30 2.55 30 3.22 30 3.89 29.45 4.44 28.78 4.44 28.11 4.44 27.56 3.89 27.56 3.22 27.56 2.55 28.11 2 28.78 2ZM2 3.22C2 2.55 2.55 2 3.22 2 3.89 2 4.44 2.55 4.44 3.22 4.44 3.89 3.89 4.44 3.22 4.44 2.55 4.44 2 3.89 2 3.22ZM3.22 30C2.55 30 2 29.45 2 28.78 2 28.11 2.55 27.56 3.22 27.56 3.89 27.56 4.44 28.11 4.44 28.78 4.44 29.45 3.89 30 3.22 30ZM16 22.31C12.52 22.31 9.69 19.48 9.69 16 9.69 12.52 12.52 9.69 16 9.69 19.48 9.69 22.31 12.52 22.31 16 22.31 19.48 19.48 22.31 16 22.31ZM28.78 30C28.11 30 27.56 29.45 27.56 28.78 27.56 28.11 28.11 27.56 28.78 27.56 29.45 27.56 30 28.11 30 28.78 30 29.45 29.45 30 28.78 30Z" stroke-width="0" fill="#7823DC"/></svg>