<svg viewBox="0 0 32 32" xmlns="http://www.w3.org/2000/svg" xmlns:xlink="http://www.w3.org/1999/xlink" id="Layer_2_00000144328325245699140920000014890284756443101063_" xml:space="preserve" overflow="hidden"><g><g><defs><path d="M2.4 32 29.6 32 29.6 0 2.4 0 2.4 32Z" id="SVGID_1_"/></defs><defs><path d="M2.4 0 29.6 0 29.6 32 2.4 32 2.4 0Z" id="SVGID_00000117637308829261358980000003266552033361977524_"/></defs><clipPath id="SVGID_00000005968338124649806010000012193425430111633798_"><use width="100%" height="100%" xlink:href="#SVGID_1_" overflow="visible"></use></clipPath><clipPath id="SVGID_00000063624925241686693790000006153458132032222651_" clip-path="url(#SVGID_00000005968338124649806010000012193425430111633798_)"><use width="100%" height="100%" xlink:href="#SVGID_00000117637308829261358980000003266552033361977524_" overflow="visible"></use></clipPath><g clip-path="url(#SVGID_00000063624925241686693790000006153458132032222651_)"><defs><path d="M2.4 32 29.6 32 29.6 0 2.4 0 2.4 32Z" id="SVGID_00000101075716582094245880000008844498904603927471_"/></defs><clipPath id="SVGID_00000008114100478147562130000009645475686450344870_"><use width="100%" height="100%" xlink:href="#SVGID_00000101075716582094245880000008844498904603927471_" overflow="visible"></use></clipPath><path d="M4.5 17.7 6.9 9.4 4.4 31.9 6.1 31.9 8.8 7.3 5.7 7.3 3 16.7" fill="#7823DC" fill-rule="evenodd" clip-rule="evenodd" clip-path="url(#SVGID_00000008114100478147562130000009645475686450344870_)"/><path d="M17 20.5 12.6 9.4 15.1 31.9 13.4 31.9 10.7 7.3 13.8 7.3 18.4 19.4" fill="#7823DC" fill-rule="evenodd" clip-rule="evenodd" clip-path="url(#SVGID_00000008114100478147562130000009645475686450344870_)"/><path d="M7.7 17.8 6.5 19.3 3 16.6 4.2 15.1 7.7 17.8 7.7 17.8Z" fill="#7823DC" fill-rule="evenodd" clip-rule="evenodd" clip-path="url(#SVGID_00000008114100478147562130000009645475686450344870_)"/><path d="M18.7 20.5 20.4 14.8 18.4 31.9 20.2 31.9 20.6 28.3 22.3 12.7 19.2 12.7 17 20.5" fill="#7823DC" fill-rule="evenodd" clip-rule="evenodd" clip-path="url(#SVGID_00000008114100478147562130000009645475686450344870_)"/><path d="M29.5 20.5 27.3 12.7 24.2 12.7 26.3 31.9 26.3 31.9 28 31.9 27.6 28.3 26.1 14.8 27.8 20.5" fill="#7823DC" fill-rule="evenodd" clip-rule="evenodd" clip-path="url(#SVGID_00000008114100478147562130000009645475686450344870_)"/><path d="M23.2 8.5C23.7 8.5 24.2 8.9 24.2 9.5 24.2 10.1 23.8 10.5 23.2 10.5 22.7 10.5 22.2 10.1 22.2 9.5 22.2 8.9 22.6 8.5 23.2 8.5M23.2 6.6C21.6 6.6 20.3 7.9 20.3 9.5 20.3 11.1 21.6 12.4 23.2 12.4 24.8 12.4 26.1 11.1 26.1 9.5 26 7.9 24.7 6.6 23.2 6.6L23.2 6.6 23.2 6.6 23.2 6.6Z" fill="#7823DC" clip-path="url(#SVGID_00000008114100478147562130000009645475686450344870_)"/><path d="M9.7 2.7C10.2 2.7 10.7 3.1 10.7 3.7 10.7 4.2 10.3 4.7 9.7 4.7 9.1 4.7 8.7 4.3 8.7 3.7 8.7 3.1 9.1 2.7 9.7 2.7M9.7 0.7C8.1 0.7 6.8 2 6.8 3.6 6.8 5.2 8.1 6.5 9.7 6.5 11.3 6.5 12.6 5.2 12.6 3.6 12.6 2 11.3 0.7 9.7 0.7L9.7 0.7 9.7 0.7 9.7 0.7Z" fill="#7823DC" clip-path="url(#SVGID_00000008114100478147562130000009645475686450344870_)"/></g></g></g></svg>