<svg viewBox="0 0 32 32" xmlns="http://www.w3.org/2000/svg" xmlns:xlink="http://www.w3.org/1999/xlink" xml:space="preserve" overflow="hidden"><style>
.MsftOfcResponsive_Fill_7823dc {
 fill:#7823DC; 
}
</style>
<g id="Layer_3"></g><g id="Layer_1"><path d="M2.29 6.9 2.29 25.12 29.71 25.12 29.71 6.88 2.32 6.88 4.6 4.6 31.99 4.6 31.99 27.4 0.01 27.4 0.01 9.18 2.29 6.9 2.29 6.9Z" class="MsftOfcResponsive_Fill_7823dc" fill="#7823DC"/><path d="M1.91 27.15 0.76 25.51 16 14.78 31.13 25.51 29.97 27.14 16 17.22Z" class="MsftOfcResponsive_Fill_7823dc" fill="#7823DC"/></g><g id="Layer_2"><path d="M23.6 16.58C21.47 16.58 19.74 14.85 19.74 12.72 19.74 10.59 21.47 8.86 23.6 8.86 25.73 8.86 27.47 10.59 27.47 12.72 27.47 14.85 25.73 16.58 23.6 16.58ZM23.6 10.85C22.57 10.85 21.74 11.69 21.74 12.71 21.74 13.74 22.58 14.57 23.6 14.57 24.62 14.57 25.47 13.73 25.47 12.71 25.46 11.68 24.63 10.85 23.6 10.85Z" class="MsftOfcResponsive_Fill_7823dc" fill="#7823DC"/></g><g id="Layer_4"></g><g id="Layer_5"></g></svg>