<svg viewBox="0 0 32 32" xmlns="http://www.w3.org/2000/svg" xmlns:xlink="http://www.w3.org/1999/xlink" id="Graphic" overflow="hidden"><g><path d="M6 2C7.1 2 8 2.9 8 4 8 5.1 7.1 6 6 6 4.9 6 4 5.1 4 4 4 2.9 4.9 2 6 2M6 0C3.8 0 2 1.8 2 4 2 6.2 3.8 8 6 8 8.2 8 10 6.2 10 4 10 1.8 8.2 0 6 0L6 0Z" fill="#7823DC" fill-rule="evenodd" clip-rule="evenodd"/><path d="M12.6 7.4C13.2 7.4 13.6 7.8 13.6 8.4 13.6 8.9 13.2 9.4 12.6 9.4 12 9.4 11.6 9 11.6 8.4 11.6 7.9 12 7.4 12.6 7.4M12.6 5.5C10.9 5.5 9.6 6.8 9.6 8.5 9.6 10.1 10.9 11.5 12.6 11.5 14.3 11.5 15.6 10.2 15.6 8.5 15.6 6.8 14.2 5.5 12.6 5.5L12.6 5.5Z" fill="#7823DC" fill-rule="evenodd" clip-rule="evenodd"/><path d="M19.5 7.4C20 7.4 20.5 7.8 20.5 8.4 20.5 8.9 20.1 9.4 19.5 9.4 18.9 9.4 18.5 9 18.5 8.4 18.5 7.9 19 7.4 19.5 7.4M19.5 5.5C17.8 5.5 16.5 6.8 16.5 8.5 16.5 10.1 17.8 11.5 19.5 11.5 21.2 11.5 22.5 10.2 22.5 8.5 22.5 6.8 21.2 5.5 19.5 5.5L19.5 5.5Z" fill="#7823DC" fill-rule="evenodd" clip-rule="evenodd"/><path d="M16.1 26.7C15.6 26.7 15.1 26.6 14.6 26.5 12.3 25.9 10.5 24.1 10 21.8L11.9 21.4C12.2 23 13.5 24.2 15 24.6 16.1 24.9 17.2 24.7 18.2 24.1 19.2 23.5 19.8 22.6 20.1 21.5L22 22C21.6 23.6 20.6 25 19.2 25.8 18.3 26.4 17.2 26.7 16.1 26.7Z" fill="#7823DC"/><g><defs><path d="M0 32 32 32 32 0 0 0 0 32Z" id="SVGID_1_" fill="#7823DC"/></defs><clipPath id="SVGID_2_"><use width="100%" height="100%" xlink:href="#SVGID_1_" overflow="visible"></use></clipPath><path d="M18.3 19.8 16.1 17.1 13.9 19.8 11.8 15.7 10.5 16.9 9.1 15.5 12.3 12.3 14.2 16.2 16.1 14 17.9 16.2 19.8 12.3 23 15.6 21.6 17 20.3 15.7Z" fill="#7823DC" clip-path="url(#SVGID_2_)"/><g clip-path="url(#SVGID_2_)"><defs><path d="M0 32 32 32 32 0 0 0 0 32Z" id="SVGID_3_" fill="#7823DC"/></defs><clipPath id="SVGID_4_"><use width="100%" height="100%" xlink:href="#SVGID_3_" overflow="visible"></use></clipPath><path d="M8.7 9.9 3.2 9.9 0 23.4 0 32 4.8 11.9 7.2 11.9 10 22.1 12 21.6 8.7 9.9 8.7 9.9Z" fill="#7823DC" fill-rule="evenodd" clip-rule="evenodd" clip-path="url(#SVGID_4_)"/><g clip-path="url(#SVGID_4_)"><defs><path d="M0 32 32 32 32 0 0 0 0 32Z" id="SVGID_5_" fill="#7823DC"/></defs><clipPath id="SVGID_6_"><use width="100%" height="100%" xlink:href="#SVGID_5_" overflow="visible"></use></clipPath><path d="M10.5 31.9 7 17.6 5 18.1 8.5 31.9 10.5 31.9 10.5 31.9Z" fill="#7823DC" fill-rule="evenodd" clip-rule="evenodd" clip-path="url(#SVGID_6_)"/><g clip-path="url(#SVGID_6_)"><defs><path d="M0 32 32 32 32 0 0 0 0 32Z" id="SVGID_7_" fill="#7823DC"/></defs><clipPath id="SVGID_8_"><use width="100%" height="100%" xlink:href="#SVGID_7_" overflow="visible"></use></clipPath><path d="M26 2C27.1 2 28 2.9 28 4 28 5.1 27.1 6 26 6 24.9 6 24 5.1 24 4 24 2.9 24.9 2 26 2M26 0C23.8 0 22 1.8 22 4 22 6.2 23.8 8 26 8 28.2 8 30 6.2 30 4 30 1.8 28.2 0 26 0L26 0Z" fill="#7823DC" fill-rule="evenodd" clip-rule="evenodd" clip-path="url(#SVGID_8_)"/><g clip-path="url(#SVGID_8_)"><defs><path d="M0 32 32 32 32 0 0 0 0 32Z" id="SVGID_9_" fill="#7823DC"/></defs><clipPath id="SVGID_10_"><use width="100%" height="100%" xlink:href="#SVGID_9_" overflow="visible"></use></clipPath><path d="M23.3 9.9 28.8 9.9 32 23.4 32 32 27.2 11.9 24.8 11.9 22 22.1 20.1 21.6 23.3 9.9 23.3 9.9Z" fill="#7823DC" fill-rule="evenodd" clip-rule="evenodd" clip-path="url(#SVGID_10_)"/><g clip-path="url(#SVGID_10_)"><defs><path d="M0 32 32 32 32 0 0 0 0 32Z" id="SVGID_11_" fill="#7823DC"/></defs><clipPath id="SVGID_12_"><use width="100%" height="100%" xlink:href="#SVGID_11_" overflow="visible"></use></clipPath><path d="M21.5 31.9 25 17.6 27 18.1 23.5 31.9 21.5 31.9 21.5 31.9Z" fill="#7823DC" fill-rule="evenodd" clip-rule="evenodd" clip-path="url(#SVGID_12_)"/></g></g></g></g></g></g></g></svg>