<svg viewBox="0 0 32 32" xmlns="http://www.w3.org/2000/svg" xmlns:xlink="http://www.w3.org/1999/xlink" id="Layer_2_1_" xml:space="preserve" overflow="hidden"><style>
.MsftOfcResponsive_Fill_7823dc {
 fill:#7823DC; 
}
</style>
<path d="M32 29.4 32 32 20.4 22.8 21.6 21.2Z" class="MsftOfcResponsive_Fill_7823dc" fill="#7823DC"/><g><path d="M12.9 2C18.9 2 23.8 6.9 23.8 12.9 23.8 18.9 18.9 23.8 12.9 23.8 6.9 23.8 2 18.9 2 12.9 2 6.9 6.9 2 12.9 2M12.9 0C5.8 0 0 5.8 0 12.9 0 20 5.8 25.8 12.9 25.8 20 25.8 25.8 20 25.8 12.9 25.8 5.8 20 0 12.9 0L12.9 0 12.9 0 12.9 0Z" class="MsftOfcResponsive_Fill_7823dc" fill="#7823DC" fill-rule="evenodd" clip-rule="evenodd"/><g><rect x="4.9" y="17.1" width="16" height="1.9" class="MsftOfcResponsive_Fill_7823dc" fill="#7823DC"/><path d="M9.9 8 9.9 17 7.9 17 7.9 8 9.9 8M11.9 6 5.9 6 5.9 19 11.9 19 11.9 6 11.9 6Z" class="MsftOfcResponsive_Fill_7823dc" fill="#7823DC"/><path d="M13.9 14 13.9 17 11.9 17 11.9 14 13.9 14M15.9 12 9.9 12 9.9 19 15.9 19 15.9 12 15.9 12Z" class="MsftOfcResponsive_Fill_7823dc" fill="#7823DC"/><path d="M17.9 11 17.9 17 15.9 17 15.9 11 17.9 11M19.9 9 13.9 9 13.9 19 19.9 19 19.9 9 19.9 9Z" class="MsftOfcResponsive_Fill_7823dc" fill="#7823DC"/></g></g></svg>