<svg viewBox="0 0 32 32" xmlns="http://www.w3.org/2000/svg" xmlns:xlink="http://www.w3.org/1999/xlink" id="Layer_1" overflow="hidden"><g><path d="M0.8 24.3 5.3 24.3C4.2 26.1 4.8 28.5 6.6 29.5 8.4 30.6 10.8 30 11.8 28.2 12.5 27 12.5 25.5 11.8 24.3L21 24.3C19.9 26.1 20.5 28.5 22.3 29.5 24.1 30.6 26.5 30 27.5 28.2 28.2 27 28.2 25.5 27.5 24.3L32 24.3 32 22.4 0.8 22.4 0.8 24.3 0.8 24.3ZM24.3 24.5C25.3 24.5 26.1 25.3 26.1 26.3 26.1 27.3 25.3 28.1 24.3 28.1 23.3 28.1 22.5 27.3 22.5 26.3 22.5 25.3 23.3 24.5 24.3 24.5 24.3 24.5 24.3 24.5 24.3 24.5L24.3 24.5ZM8.5 24.5C9.5 24.5 10.3 25.3 10.3 26.3 10.3 27.3 9.5 28.1 8.5 28.1 7.5 28.1 6.7 27.3 6.7 26.3 6.7 25.3 7.5 24.5 8.5 24.5 8.5 24.5 8.5 24.5 8.5 24.5L8.5 24.5Z" fill="#7823DC" fill-rule="evenodd" clip-rule="evenodd"/><path d="M8.6 22.1 23.5 22.1C28.2 22.1 32 18.2 32 13.5 32 8.9 28.2 5.1 23.5 5.1L15 5.1 15 1.9 8.7 1.9 8.7 5 8.6 5C3.9 5 0 8.7 0 13.5 0 18.2 3.7 22.1 8.5 22.1 8.5 22.1 8.6 22.1 8.6 22.1L8.6 22.1ZM24.2 7C27.8 7.4 30.4 10.7 30 14.3 29.7 17.4 27.2 19.8 24.2 20.1L24.2 7ZM19.2 7 22.2 7 22.2 7.8 19.2 7.8 19.2 7 19.2 7ZM19.2 9.7 22.2 9.7 22.2 11 19.2 11 19.2 9.7 19.2 9.7ZM19.2 13 22.2 13 22.2 14.3 19.2 14.3 19.2 13 19.2 13ZM19.2 16.2 22.2 16.2 22.2 17.5 19.2 17.5 19.2 16.2 19.2 16.2ZM19.2 19.4 22.2 19.4 22.2 20.1 19.2 20.1 19.2 19.4 19.2 19.4ZM10.6 3.8 13 3.8 13 5 10.6 5 10.6 3.8 10.6 3.8ZM8.6 7 8.6 7 10.6 7 10.6 7 17.3 7 17.3 20.2 8.7 20.2 8.7 20.2 8.6 20.2C5 20.2 2 17.2 2.1 13.5 2.2 9.9 5 7 8.6 7L8.6 7Z" fill="#7823DC" fill-rule="evenodd" clip-rule="evenodd"/></g></svg>