<svg viewBox="0 0 32 31.99" xmlns="http://www.w3.org/2000/svg" xmlns:xlink="http://www.w3.org/1999/xlink" id="Layer_1" overflow="hidden"><style>
.MsftOfcResponsive_Fill_7823dc {
 fill:#7823DC; 
}
</style>
<defs></defs><path d="M16 31.99C11.54 31.99 7.92 28.36 7.92 23.91L7.92 12.07C7.92 7.61 11.55 3.99 16 3.99 20.45 3.99 24.08 7.62 24.08 12.07L24.08 23.9C24.08 28.36 20.45 31.98 16 31.98ZM16 5.99C12.64 5.99 9.92 8.72 9.92 12.07L9.92 23.9C9.92 27.26 12.65 29.98 16 29.98 19.35 29.98 22.08 27.25 22.08 23.9L22.08 12.07C22.08 8.72 19.35 5.99 16 5.99Z" class="MsftOfcResponsive_Fill_7823dc" fill="#7823DC"/><rect x="8.6" y="10.92" width="7.84" height="2" class="MsftOfcResponsive_Fill_7823dc" fill="#7823DC" transform="matrix(0.707107 0.707107 -0.707107 0.707107 12.09 -5.36)"/><rect x="2.15" y="16.47" width="7.84" height="2" class="MsftOfcResponsive_Fill_7823dc" fill="#7823DC" transform="matrix(0.707107 0.707107 -0.707107 0.707107 14.13 0.82)"/><path d="M5.42 15.41 0 20.82 0 18 4 13.99 5.42 15.41Z" class="MsftOfcResponsive_Fill_7823dc" fill="#7823DC"/><rect x="1.98" y="22.88" width="9.01" height="2" class="MsftOfcResponsive_Fill_7823dc" fill="#7823DC" transform="matrix(0.707107 0.707107 -0.707107 0.707107 18.79 2.41)"/><path d="M5.42 21.41 0 26.82 0 24 4 19.99 5.42 21.41Z" class="MsftOfcResponsive_Fill_7823dc" fill="#7823DC"/><path d="M5.42 9.41 0 14.82 0 12 4 7.99 5.42 9.41Z" class="MsftOfcResponsive_Fill_7823dc" fill="#7823DC"/><rect x="2.15" y="10.47" width="7.84" height="2" class="MsftOfcResponsive_Fill_7823dc" fill="#7823DC" transform="matrix(0.707107 0.707107 -0.707107 0.707107 9.89 -0.93)"/><g><rect x="22.01" y="16.47" width="7.84" height="2" class="MsftOfcResponsive_Fill_7823dc" fill="#7823DC" transform="matrix(-0.707107 0.707107 -0.707107 -0.707107 56.61 11.49)"/><path d="M32 18.01 32 20.83 27.99 16.82 26.58 15.41 27.99 13.99 29.4 15.41 32 18.01Z" class="MsftOfcResponsive_Fill_7823dc" fill="#7823DC"/><rect x="21.01" y="22.88" width="9.01" height="2" class="MsftOfcResponsive_Fill_7823dc" fill="#7823DC" transform="matrix(-0.707107 0.707107 -0.707107 -0.707107 60.44 22.73)"/><path d="M32 24.01 32 26.83 27.99 22.82 26.58 21.41 27.99 19.99 29.4 21.41 32 24.01Z" class="MsftOfcResponsive_Fill_7823dc" fill="#7823DC"/><path d="M32 12.01 32 14.83 27.99 10.82 26.58 9.41 27.99 7.99 29.4 9.41 32 12.01Z" class="MsftOfcResponsive_Fill_7823dc" fill="#7823DC"/><rect x="22.01" y="10.47" width="7.84" height="2" class="MsftOfcResponsive_Fill_7823dc" fill="#7823DC" transform="matrix(-0.707107 0.707107 -0.707107 -0.707107 52.37 1.25)"/></g><rect x="13.85" y="11.63" width="9.85" height="2" class="MsftOfcResponsive_Fill_7823dc" fill="#7823DC" transform="matrix(-0.707107 0.707107 -0.707107 -0.707107 40.97 8.28)"/><rect x="7.86" y="21.8" width="16.28" height="2" class="MsftOfcResponsive_Fill_7823dc" fill="#7823DC" transform="matrix(6.12323e-17 1 -1 6.12323e-17 38.8 6.8)"/><path d="M11.99 6.92C11.71 6.7 11.6 6.42 11.36 5.87 10.3 3.35 8.91 1.19 5.85 2.34 5.12 2.62 4.29 3.1 3.5 3.56 2.18 4.33 1.04 5 -4.44089e-16 5L-4.44089e-16 2.99C0.49 2.99 1.6 2.34 2.49 1.83 3.36 1.32 4.26 0.8 5.15 0.47 10.43-1.52 12.52 3.46 13.21 5.1 13.29 5.3 13.35 5.45 13.41 5.54 13.41 5.54 13.35 5.44 13.23 5.34L12 6.92Z" class="MsftOfcResponsive_Fill_7823dc" fill="#7823DC"/><path d="M20.01 6.92 18.78 5.34C18.66 5.44 18.6 5.53 18.6 5.54 18.65 5.45 18.71 5.29 18.8 5.1 19.49 3.46 21.59-1.52 26.86 0.47 27.75 0.8 28.65 1.33 29.51 1.83 30.4 2.35 31.51 2.99 32 2.99L32 4.99C30.96 4.99 29.82 4.32 28.5 3.55 27.7 3.09 26.88 2.61 26.15 2.33 23.09 1.18 21.69 3.35 20.64 5.86 20.41 6.42 20.29 6.69 20.01 6.91Z" class="MsftOfcResponsive_Fill_7823dc" fill="#7823DC"/></svg>