<svg viewBox="0 0 31.72 31.73" xmlns="http://www.w3.org/2000/svg" xmlns:xlink="http://www.w3.org/1999/xlink" id="Outline_Final_icon" overflow="hidden"><defs></defs><path d="M20.61 22.47 20.61 18.98 15.9 20.02 9.4 18.1 5.13 20.33 -8.88178e-16 20.44 -8.88178e-16 28.38 4.45 28.38 14.81 31.72 31.72 24.65 31.72 19.22 20.61 22.46ZM29.72 23.33 14.72 29.6 4.91 26.43 1.99 26.38 1.99 22.4 5.63 22.32 9.6 20.25 15.82 22.08 18.6 21.47 18.6 23.06 15.5 23.96 16.06 25.88 18.61 25.14 18.61 25.14C18.61 25.14 29.72 21.9 29.72 21.9L29.72 23.33Z" fill="#7823DC"/><path d="M6.03 17.59 5.2 16.54 10.58 7.81 16.52 7.81 16.57 7.87 16.62 7.81 21.79 7.81 27.55 16.45 26.53 18.14 28.24 19.17 29.91 16.4 22.85 5.81 18.13 5.81 22.53 0 10.19 0 14.9 5.81 9.46 5.81 2.76 16.68 4.46 18.83 6.03 17.59ZM18.51 2 16.52 4.63 14.38 2 18.51 2Z" fill="#7823DC"/><path d="M17.02 18.16 17.02 17.51C18.38 17.27 19.22 16.34 19.22 15.06 19.22 13.44 18.13 12.95 17.02 12.7L17.02 11.32C17.19 11.46 17.3 11.66 17.33 11.89L17.43 12.36 19.12 12.36 19.01 11.68C18.88 10.6 18.07 9.74 17.02 9.54L17.02 8.87 15.33 8.87 15.33 9.55C14.35 9.79 13.35 10.49 13.35 11.81 13.35 13.31 14.33 13.8 15.33 14.06L15.33 15.74C15.05 15.55 14.86 15.24 14.83 14.89L14.75 14.39 13.07 14.39 13.13 15.04C13.23 16.27 14.13 17.27 15.33 17.5L15.33 18.17 17.02 18.17ZM15.03 11.79C15.03 11.57 15.16 11.36 15.34 11.24L15.34 12.29C15.03 12.14 15.03 11.98 15.03 11.79ZM17.52 15.11C17.52 15.47 17.36 15.71 17.02 15.84L17.02 14.45C17.46 14.61 17.52 14.8 17.52 15.12Z" fill="#7823DC"/></svg>