<svg viewBox="0 0 32 32" xmlns="http://www.w3.org/2000/svg" xmlns:xlink="http://www.w3.org/1999/xlink" xml:space="preserve" overflow="hidden"><style>
.MsftOfcResponsive_Fill_7823dc {
 fill:#7823DC; 
}
</style>
<g id="Layer_3"></g><g id="Layer_1"></g><g id="Layer_2"></g><g id="Layer_4"></g><g id="Layer_5"><path d="M27.29 17.25C24.69 17.25 22.58 15.14 22.58 12.54 22.58 9.94 24.69 7.83 27.29 7.83 29.89 7.83 32 9.95 32 12.54 32 15.13 29.89 17.25 27.29 17.25ZM27.29 9.83C25.8 9.83 24.58 11.05 24.58 12.54 24.58 14.03 25.79 15.25 27.29 15.25 28.79 15.25 30 14.04 30 12.54 30 11.04 28.78 9.83 27.29 9.83Z" class="st0 MsftOfcResponsive_Fill_7823dc" fill="#7823DC"/><path d="M4.71 17.25C2.11 17.25 0 15.14 0 12.54 0 9.94 2.11 7.83 4.71 7.83 7.31 7.83 9.42 9.94 9.42 12.54 9.42 15.14 7.31 17.25 4.71 17.25ZM4.71 9.83C3.21 9.83 2 11.05 2 12.54 2 14.03 3.21 15.25 4.71 15.25 6.21 15.25 7.42 14.04 7.42 12.54 7.42 11.04 6.2 9.83 4.71 9.83Z" class="st0 MsftOfcResponsive_Fill_7823dc" fill="#7823DC"/><path d="M22.27 31.99 9.73 31.99 16 21.13 22.27 31.99ZM13.2 29.99 18.81 29.99 16 25.13 13.2 29.99Z" class="st0 MsftOfcResponsive_Fill_7823dc" fill="#7823DC"/><rect x="0" y="19.18" width="32" height="2" class="st0 MsftOfcResponsive_Fill_7823dc" fill="#7823DC"/></g></svg>