<svg viewBox="0 0 31.93 31.94" xmlns="http://www.w3.org/2000/svg" xmlns:xlink="http://www.w3.org/1999/xlink" id="Layer_1" overflow="hidden"><style>
.MsftOfcResponsive_Fill_7823dc {
 fill:#7823DC; 
}
</style>
<defs></defs><path d="M31.89 15.29C31.87 14.57 31.29 14.01 30.58 14.01L30.54 14.01C30.12 10.83 28.7 7.89 26.4 5.58 26.21 5.39 25.92 5.29 25.68 5.29 25.41 5.29 25.15 5.41 24.96 5.61L18.77 11.83C17.96 11.27 16.98 10.94 15.93 10.94 14.94 10.94 14.01 11.24 13.23 11.74L7.71 6.22C10.01 4.28 12.89 3.22 15.93 3.22 17.62 3.22 19.26 3.55 20.79 4.17L22.29 2.67C20.91 2 19.43 1.57 17.91 1.36 17.91 1.33 17.92 1.31 17.92 1.28 17.9 0.56 17.3-0.02 16.57 -2.22045e-16L15.28 0.04C14.57 0.06 14 0.65 14 1.36 12.41 1.56 10.88 2.02 9.45 2.72 8.03 3.41 6.71 4.34 5.55 5.49 5.36 5.68 5.25 5.94 5.25 6.21 5.26 6.48 5.37 6.74 5.56 6.92L11.79 13.13C11.79 13.13 11.74 13.2 11.72 13.24 11.2 14.03 10.9 14.97 10.9 15.97 10.9 16.97 11.21 17.95 11.74 18.74L11.76 18.77C11.76 18.77 11.78 18.8 11.79 18.81L6.31 24.3C5.4 23.25 4.67 22.07 4.15 20.81 3.51 19.29 3.18 17.65 3.18 15.97 3.18 14.29 3.5 12.66 4.14 11.14L2.62 9.62C1.96 11 1.52 12.48 1.31 14.01L1.28 14.01C0.55 14.03-0.02 14.64 0 15.37L0.04 16.65C0.06 17.35 0.62 17.86 1.33 17.92 1.75 21.1 3.2 24.06 5.54 26.41 5.74 26.61 6 26.71 6.25 26.71 6.5 26.71 6.73 26.62 6.92 26.45L13.21 20.22 13.22 20.22 13.22 20.2C14.01 20.7 14.93 21 15.93 21 16.71 21 17.45 20.82 18.1 20.5 18.34 20.39 18.56 20.26 18.77 20.11L24.57 25.91 25.03 26.35C25.22 26.53 25.47 26.63 25.72 26.63 25.97 26.63 26.24 26.53 26.43 26.33 28.71 24.02 30.13 21.08 30.54 17.91 30.58 17.91 30.61 17.93 30.65 17.93 31.38 17.91 31.95 17.3 31.93 16.57L31.89 15.29ZM15.93 19C14.26 19 12.9 17.64 12.9 15.97 12.9 14.3 14.26 12.94 15.93 12.94 17.6 12.94 18.96 14.3 18.96 15.97 18.96 17.64 17.6 19 15.93 19ZM25.68 24.19 20.16 18.67C20.26 18.51 20.36 18.34 20.45 18.16 20.77 17.5 20.96 16.76 20.96 15.97 20.96 14.97 20.66 14.05 20.16 13.27L25.68 7.75C27.62 10.05 28.68 12.93 28.68 15.97 28.68 19.01 27.62 21.89 25.68 24.19Z" class="MsftOfcResponsive_Fill_7823dc" fill="#7823DC"/><path d="M22.28 29.29C20.9 29.94 19.44 30.37 17.92 30.58 17.88 31.3 17.36 31.87 16.65 31.9L15.36 31.94C14.63 31.96 14.03 31.38 14 30.66L14 30.62C14 30.62 14.01 30.6 14.01 30.59 12.41 30.39 10.86 29.91 9.41 29.2L10 28.61 10.91 27.69C12.49 28.37 14.2 28.72 15.93 28.72 17.66 28.72 19.24 28.4 20.76 27.77L21.54 28.55 22.28 29.29Z" class="MsftOfcResponsive_Fill_7823dc" fill="#7823DC"/></svg>