<svg viewBox="0 0 32.08 31.99" xmlns="http://www.w3.org/2000/svg" xmlns:xlink="http://www.w3.org/1999/xlink" id="Graphic" overflow="hidden"><style>
.MsftOfcResponsive_Fill_7823dc {
 fill:#7823DC; 
}
</style>
<defs></defs><rect x="10.13" y="0" width="1.91" height="9.25" class="MsftOfcResponsive_Fill_7823dc" fill="#7823DC"/><path d="M37.94 120.13C37.9408 120.406 37.9106 120.681 37.85 120.95 37.6844 121.629 37.339 122.251 36.85 122.75 36.7057 122.484 36.5312 122.236 36.33 122.01 36.2096 122.594 35.9487 123.14 35.57 123.6 35.57 123.6 35.57 123.6 35.57 123.6 35.5077 123.695 35.4338 123.783 35.35 123.86 35.0884 124.109 34.796 124.325 34.48 124.5 34.5289 124.29 34.559 124.076 34.57 123.86 34.5791 123.807 34.5791 123.753 34.57 123.7L34.57 123.62C34.5617 122.818 34.303 122.038 33.83 121.39 33.4119 121.723 33.0708 122.143 32.83 122.62 32.4445 122.176 32.1673 121.649 32.02 121.08 31.926 120.755 31.8822 120.418 31.89 120.08L31.89 120C31.9319 119.051 32.328 118.152 33 117.48 33.5218 116.962 34.1874 116.614 34.91 116.48L34.91 116.48C36.6632 116.815 37.9334 118.345 37.94 120.13Z" class="MsftOfcResponsive_Fill_7823dc" fill="#7823DC" transform="translate(-23.86 -106.16)"/><rect x="0" y="4.04" width="3.85" height="1.93" class="MsftOfcResponsive_Fill_7823dc" fill="#7823DC"/><rect x="23.81" y="25.64" width="6.73" height="1.93" class="MsftOfcResponsive_Fill_7823dc" fill="#7823DC"/><path d="M32.08 26.68 28.64 30.02 25.89 30.03 29.35 26.65 25.91 23.17 28.64 23.19 32.08 26.68Z" class="MsftOfcResponsive_Fill_7823dc" fill="#7823DC"/><path d="M16.05 21.88 16.05 25.64 23.61 25.64 23.61 23.71 17.98 23.71 17.98 22.9 19.99 21.53 19.99 12.5 16.08 8.65 16.08 2.04 5.35 2.04 3.09 2.04 3.09 3.39 3.1 3.39 3.1 7.92 6.12 7.92 6.12 8.68 2.12 12.67 2.12 21.26 4.06 22.82 4.06 31.99 18.02 31.99 18.02 29.49 23.61 29.49 23.61 27.57 16.09 27.57 16.09 30.07 5.99 30.07 5.99 21.95 4.04 20.39 4.04 13.47 8.04 9.47 8.04 6 5.02 6 5.03 3.99 14.08 3.97 14.08 9.5 18.06 13.34 18.06 20.51 16.05 21.88Z" class="MsftOfcResponsive_Fill_7823dc" fill="#7823DC"/></svg>