<svg viewBox="0 0 32 32" xmlns="http://www.w3.org/2000/svg" xmlns:xlink="http://www.w3.org/1999/xlink" xml:space="preserve" overflow="hidden"><style>
.MsftOfcResponsive_Fill_7823dc {
 fill:#7823DC; 
}
</style>
<g id="Layer_2"></g><g id="Layer_1"><path d="M-38.4 31.8-38.4 31.6-38.5 31.8-38.4 31.8-38.4 31.8Z" class="MsftOfcResponsive_Fill_7823dc" fill="#7823DC" fill-rule="evenodd" clip-rule="evenodd"/><path d="M15.4 31.9C13.9 31.9 12.4 31.2 11.3 29.9L4.8 24C3.4 22.8 2.3 21.2 1.7 19.5 0.7 16.8 -2.22045e-16 13.2 -2.22045e-16 10.4L-2.22045e-16 0 2.3 0 2.3 10.4C2.3 13 2.9 16.3 3.8 18.7 4.3 20 5.2 21.3 6.3 22.3L13 28.3C13.7 29.1 14.5 29.5 15.4 29.5L16 29.5 16 31.8" class="MsftOfcResponsive_Fill_7823dc" fill="#7823DC"/><path d="M32.1 0 32.1 10.8C32.1 12.7 31.8 15 31.3 17.1L28.9 17.1C29.4 15.1 29.8 12.7 29.8 10.8L29.8 0 32.1 0Z" class="MsftOfcResponsive_Fill_7823dc" fill="#7823DC"/><g><path d="M19.8 4.6 18 3.6C18.5 2.8 19.8 0.7 22.4 0.2 24.5-0.2 26.2 0.6 27.1 1.1L26.1 2.8C25.5 2.4 24.2 1.9 22.8 2.2 21.1 2.5 20.1 4 19.8 4.6Z" class="MsftOfcResponsive_Fill_7823dc" fill="#7823DC"/></g><g><path d="M12.9 4.6C12.6 4 11.6 2.6 9.9 2.2 8.5 1.9 7.2 2.5 6.6 2.8L5.6 1.1C6.5 0.6 8.2-0.2 10.3 0.2 12.9 0.7 14.2 2.7 14.7 3.6L12.9 4.6Z" class="MsftOfcResponsive_Fill_7823dc" fill="#7823DC"/></g><g><g><path d="M16 18C14.4 18 13.4 16.9 13 16.4L14.5 15.1C14.7 15.4 15.4 16 16.1 15.9 16.8 15.8 17.3 15.4 17.5 15.1L19 16.4C18.6 16.9 17.6 17.8 16.2 17.9 16.2 18 16.1 18 16 18Z" class="MsftOfcResponsive_Fill_7823dc" fill="#7823DC"/></g><g><g><path d="M9.5 12C7.2 12 5.6 11.2 5 10.9L6 9.2C6.5 9.5 7.9 10.2 9.8 10.1 11.4 10 12.5 9.5 13 9.2L14 10.9C13.3 11.3 11.9 12 9.9 12 9.8 12 9.6 12 9.5 12Z" class="MsftOfcResponsive_Fill_7823dc" fill="#7823DC"/></g><g><path d="M22.5 12C20.2 12 18.6 11.2 18 10.9L19 9.2C19.5 9.5 20.9 10.2 22.8 10.1 24.4 10 25.5 9.5 26 9.2L27 10.9C26.3 11.3 24.9 12 22.9 12 22.8 12 22.6 12 22.5 12Z" class="MsftOfcResponsive_Fill_7823dc" fill="#7823DC"/></g></g><g><path d="M16 23.7C13.6 23.7 11.9 22.1 11.2 21.4L12.7 20.1C13.2 20.6 14.5 21.9 16.2 21.7 17.6 21.6 18.7 20.6 19.2 20.1L20.7 21.4C20 22.2 18.5 23.6 16.4 23.7 16.3 23.7 16.1 23.7 16 23.7Z" class="MsftOfcResponsive_Fill_7823dc" fill="#7823DC"/></g></g><path d="M21.9 32 22.9 29 25.8 27.8 22.8 26.8 21.7 23.9 20.7 26.9 17.8 28 20.8 29 21.9 32 21.9 32Z" class="MsftOfcResponsive_Fill_7823dc" fill="#7823DC" fill-rule="evenodd" clip-rule="evenodd"/><path d="M28 27 29 23.9 32 22.8 29 21.8 27.8 18.9 26.9 21.9 23.9 23 26.9 24 28 27 28 27Z" class="MsftOfcResponsive_Fill_7823dc" fill="#7823DC" fill-rule="evenodd" clip-rule="evenodd"/><path d="M35.8 0 35.8 9.5C35.8 11.8 36.4 15 37.4 17.5 38 18.9 39 20.2 40.2 21.2L46.8 26.6C47.7 27.6 48.9 28.1 50.1 28.1L52.3 28.1C53.6 28.1 54.9 27.5 55.8 26.4L61.5 21.3C62.7 20.2 63.6 18.9 64.2 17.3 65.1 14.9 65.5 12 65.5 9.9L65.5 0" class="MsftOfcResponsive_Fill_7823dc" stroke="#401617" stroke-width="2.2238" stroke-miterlimit="10" fill="#7823DC"/><g><path d="M48.2 14C48.4 14.2 49.4 15.1 50.9 15 52.1 14.9 52.9 14.3 53.2 14" class="MsftOfcResponsive_Fill_7823dc" stroke="#401617" stroke-width="1.5591" stroke-miterlimit="10" fill="#7823DC" fill-rule="evenodd" clip-rule="evenodd"/></g><g><g><path d="M40.2 7C40.6 7.2 42.2 8.1 44.6 8 46.5 7.9 47.8 7.2 48.2 7" class="MsftOfcResponsive_Fill_7823dc" stroke="#401617" stroke-width="2" stroke-miterlimit="10" fill="#7823DC" fill-rule="evenodd" clip-rule="evenodd"/></g><g><path d="M53.2 7C53.6 7.2 55.2 8.1 57.6 8 59.5 7.9 60.8 7.2 61.2 7" class="MsftOfcResponsive_Fill_7823dc" stroke="#401617" stroke-width="2" stroke-miterlimit="10" fill="#7823DC" fill-rule="evenodd" clip-rule="evenodd"/></g></g><rect x="50.7" y="17.1" width="16" height="14.7" class="MsftOfcResponsive_Fill_7823dc" fill="#7823DC"/><g><path d="M46.7 19C47.1 19.4 48.7 21.2 51.1 21 53 20.8 54.3 19.5 54.7 19" class="MsftOfcResponsive_Fill_7823dc" stroke="#401617" stroke-width="2" stroke-miterlimit="10" fill="#7823DC" fill-rule="evenodd" clip-rule="evenodd"/></g><path d="M63.5 24.7 64.3 22.1 66.8 21.2 64.3 20.3 63.3 17.8 62.5 20.4 60 21.3 62.5 22.2 63.5 24.7 63.5 24.7Z" class="MsftOfcResponsive_Fill_7823dc" fill="#7823DC" fill-rule="evenodd" clip-rule="evenodd"/><path d="M57.3 20.8 56 24.7 52.2 26.1 56.1 27.4 57.5 31.2 58.8 27.3 62.6 25.9 58.7 24.6 57.3 20.8 57.3 20.8Z" class="MsftOfcResponsive_Fill_7823dc" fill="#7823DC" fill-rule="evenodd" clip-rule="evenodd"/></g></svg>