<svg viewBox="0 0 32 32" xmlns="http://www.w3.org/2000/svg" xmlns:xlink="http://www.w3.org/1999/xlink" id="Text" overflow="hidden"><style>
.MsftOfcResponsive_Fill_7823dc {
 fill:#7823DC; 
}
</style>
<defs></defs><path d="M19.99 2 0 2 0 0 18 0 19.99 2Z" class="MsftOfcResponsive_Fill_7823dc" fill="#7823DC"/><path d="M32 0 32 2 28 2 30 0 32 0Z" class="MsftOfcResponsive_Fill_7823dc" fill="#7823DC"/><path d="M21.99 4.01 21.99 32 19.99 32 19.99 2.01 21.99 4.01Z" class="MsftOfcResponsive_Fill_7823dc" fill="#7823DC"/><path d="M28 2 28 32 26 32 26 4 28 2Z" class="MsftOfcResponsive_Fill_7823dc" fill="#7823DC"/><rect x="13.99" y="6" width="4" height="6" class="MsftOfcResponsive_Fill_7823dc" fill="#7823DC"/><path d="M17.99 14 15.99 16 13.99 16 13.99 14 17.99 14Z" class="MsftOfcResponsive_Fill_7823dc" fill="#7823DC"/><rect x="29.99" y="6" width="2" height="6" class="MsftOfcResponsive_Fill_7823dc" fill="#7823DC"/><rect x="29.99" y="14" width="2" height="2" class="MsftOfcResponsive_Fill_7823dc" fill="#7823DC"/><rect x="29.99" y="20" width="2" height="6" class="MsftOfcResponsive_Fill_7823dc" fill="#7823DC"/><rect x="29.99" y="28" width="2" height="2" class="MsftOfcResponsive_Fill_7823dc" fill="#7823DC"/><rect x="13.99" y="20" width="4" height="6" class="MsftOfcResponsive_Fill_7823dc" fill="#7823DC"/><path d="M17.99 28 15.99 30 13.99 30 13.99 28 17.99 28Z" class="MsftOfcResponsive_Fill_7823dc" fill="#7823DC"/><rect x="3.99" y="6" width="4" height="6" class="MsftOfcResponsive_Fill_7823dc" fill="#7823DC"/><path d="M7.99 14 5.99 16 3.99 16 3.99 14 7.99 14Z" class="MsftOfcResponsive_Fill_7823dc" fill="#7823DC"/><rect x="3.99" y="20" width="4" height="6" class="MsftOfcResponsive_Fill_7823dc" fill="#7823DC"/><path d="M7.99 28 5.99 30 3.99 30 3.99 28 7.99 28Z" class="MsftOfcResponsive_Fill_7823dc" fill="#7823DC"/></svg>