<svg viewBox="0 0 32 32" xmlns="http://www.w3.org/2000/svg" xmlns:xlink="http://www.w3.org/1999/xlink" id="Layer_1" overflow="hidden"><style>
.MsftOfcThm_Text2_Fill_v2 {
 fill:#7823DC; 
}
</style>
<defs></defs><path d="M10.23 6.62 3.31 6.62C1.49 6.62 0 5.14 0 3.31L0 0 13.54 0 13.54 3.31C13.54 5.13 12.06 6.62 10.23 6.62ZM2 2 2 3.31C2 4.03 2.59 4.62 3.31 4.62L10.23 4.62C10.95 4.62 11.54 4.03 11.54 3.31L11.54 2 2 2Z" class="MsftOfcThm_Text2_Fill_v2" stroke-width="0" fill="#7823DC"/><path d="M17.15 21.62 14.84 21.62C13.59 21.62 12.69 20.71 12.69 19.47L12.69 12.55C12.69 11.3 13.6 10.4 14.84 10.4L17.15 10.4C18.4 10.4 19.3 11.31 19.3 12.55L19.3 19.47C19.3 20.72 18.39 21.62 17.15 21.62ZM14.85 12.38C14.77 12.38 14.73 12.4 14.72 12.4 14.71 12.4 14.7 12.44 14.7 12.53L14.7 19.45C14.7 19.59 14.71 19.6 14.85 19.6L17.16 19.6C17.24 19.6 17.28 19.58 17.29 19.58 17.3 19.58 17.31 19.54 17.31 19.45L17.31 12.53C17.31 12.45 17.29 12.41 17.29 12.4 17.29 12.39 17.25 12.38 17.16 12.38L14.85 12.38Z" class="MsftOfcThm_Text2_Fill_v2" stroke-width="0" fill="#7823DC"/><path d="M32 32 18.46 32 18.46 28.69C18.46 26.87 19.94 25.38 21.77 25.38L28.69 25.38C30.51 25.38 32 26.86 32 28.69L32 32ZM20.46 30 30 30 30 28.69C30 27.97 29.41 27.38 28.69 27.38L21.77 27.38C21.05 27.38 20.46 27.97 20.46 28.69L20.46 30Z" class="MsftOfcThm_Text2_Fill_v2" stroke-width="0" fill="#7823DC"/><path d="M13.69 20.46 10.23 20.46C5.86 20.46 2.31 16.91 2.31 12.54L2.31 4.62 11.23 4.62 11.23 11.16C11.23 11.4 11.46 11.54 11.61 11.54L13.69 11.54 13.69 13.54 11.61 13.54C10.32 13.54 9.23 12.45 9.23 11.16L9.23 6.62 4.31 6.62 4.31 12.54C4.31 15.81 6.97 18.46 10.23 18.46L13.69 18.46 13.69 20.46Z" class="MsftOfcThm_Text2_Fill_v2" stroke-width="0" fill="#7823DC"/><path d="M29.69 27.38 20.77 27.38 20.77 20.84C20.77 20.6 20.54 20.46 20.39 20.46L18.31 20.46 18.31 18.46 20.39 18.46C21.68 18.46 22.77 19.55 22.77 20.84L22.77 25.38 27.69 25.38 27.69 19.46C27.69 16.19 25.03 13.54 21.77 13.54L18.31 13.54 18.31 11.54 21.77 11.54C26.14 11.54 29.69 15.09 29.69 19.46L29.69 27.38Z" class="MsftOfcThm_Text2_Fill_v2" stroke-width="0" fill="#7823DC"/></svg>