<svg viewBox="0 0 32 32" xmlns="http://www.w3.org/2000/svg" xmlns:xlink="http://www.w3.org/1999/xlink" overflow="hidden"><defs></defs><g id="Layer_3"><rect x="-0.01465" y="30.0039" width="32" height="2" fill="#7823DC"/><path d="M24.4853 23.0039 7.48535 23.0039C3.34509 22.9994-0.0101306 19.6442-0.0146499 15.5039L-0.01465 13.5039C-0.0101307 9.36365 3.34509 6.00843 7.48535 6.00391L24.4853 6.00391C28.6256 6.00843 31.9808 9.36365 31.9853 13.5039L31.9853 15.5039C31.9808 19.6442 28.6256 22.9994 24.4853 23.0039ZM7.48535 8.00391C4.44935 8.00768 1.98912 10.4679 1.98535 13.5039L1.98535 15.5039C1.98912 18.5399 4.44935 21.0001 7.48535 21.0039L24.4853 21.0039C27.5214 21.0001 29.9816 18.5399 29.9853 15.5039L29.9853 13.5039C29.9816 10.4679 27.5214 8.00768 24.4853 8.00391Z" fill="#7823DC"/><rect x="23.9854" y="7.00391" width="2" height="15" fill="#7823DC"/><rect x="5.98535" y="7.00391" width="2" height="15" fill="#7823DC"/><rect x="9.98535" y="22.0039" width="2" height="9" fill="#7823DC"/><rect x="19.9854" y="22.0039" width="2" height="9" fill="#7823DC"/></g></svg>