<svg viewBox="0 0 32 31.99" xmlns="http://www.w3.org/2000/svg" xmlns:xlink="http://www.w3.org/1999/xlink" id="Layer_1" overflow="hidden"><style>
.MsftOfcThm_Text2_Fill_v2 {
 fill:#7823DC; 
}
</style>
<defs></defs><path d="M7.13 31.99C6.25 31.99 5.38 31.83 4.55 31.51L3.12 30.95 6.77 27.3 6.33 25.68 4.72 25.24 1.07 28.89 0.51 27.46C-0.56 24.7 0.09 21.57 2.12 19.67 4.05 17.86 6.77 17.2 9.22 17.89L17.88 9.21C17.13 6.62 17.82 3.81 19.71 2.05 21.81 0.08 24.85-0.53 27.45 0.48L28.87 1.04 25.23 4.69 25.67 6.31 27.28 6.75 30.93 3.1 31.49 4.53C32.56 7.29 31.91 10.42 29.88 12.32 27.95 14.13 25.23 14.79 22.78 14.1L14.12 22.78C14.87 25.37 14.18 28.18 12.29 29.94 10.86 31.28 9 31.99 7.14 31.99ZM6.91 29.99C8.35 30.06 9.79 29.53 10.92 28.48 12.36 27.13 12.81 24.88 12.03 22.87L11.79 22.26 22.25 11.78 22.86 12.02C24.75 12.76 26.96 12.3 28.5 10.86 29.56 9.87 30.08 8.39 29.98 6.87L27.87 8.98 24.03 7.93 22.98 4.09 25.07 2C23.63 1.94 22.18 2.47 21.07 3.51 19.63 4.86 19.18 7.11 19.96 9.12L20.2 9.73 9.74 20.21 9.13 19.97C7.21 19.23 5.05 19.67 3.49 21.13 2.43 22.12 1.91 23.6 2.01 25.12L4.12 23.01 7.96 24.06 9.01 27.9 6.91 30Z" class="MsftOfcThm_Text2_Fill_v2" stroke-width="0" fill="#7823DC"/></svg>