<svg viewBox="0 0 32 32" xmlns="http://www.w3.org/2000/svg" xmlns:xlink="http://www.w3.org/1999/xlink" id="Layer_1" overflow="hidden"><path d="M49.9 10.5 49.9 10.5 49.9 10.5C51.4 10.5 52.9 11.2 54 12.4 55.1 13.6 55.7 15.2 55.6 17.1 55.4 18.6 54.7 21.6 54.1 24.1 53.5 26.7 52.9 28.9 52.9 28.9 52.8 29.5 52.5 29.9 52.2 30.3 51.9 30.6 51.5 30.8 51 30.8 50.7 30.8 50.5 30.7 50.3 30.6 50.1 30.5 49.8 30.3 49.7 30 48.9 29 48.4 27.7 47.9 26.5 47.4 25.3 46.9 24.4 46.3 24.4 45.7 24.4 45.2 25.3 44.7 26.4 44.2 27.5 43.7 28.9 42.9 29.9 42.7 30.2 42.5 30.3 42.3 30.5 42.1 30.6 41.8 30.7 41.6 30.7 41.2 30.7 40.7 30.5 40.4 30.2 40.1 29.9 39.8 29.4 39.7 28.8 39.7 28.8 39.1 26.6 38.5 24 37.9 21.4 37.2 18.5 37 17 36.8 15.2 37.4 13.5 38.5 12.3 39.6 11.1 41.1 10.4 42.6 10.4 42.8 10.4 43 10.4 43.2 10.4 43.4 10.4 43.5 10.4 43.7 10.5 43.7 10.5 44.2 11.1 44.7 11.7 45.3 12.3 45.9 12.9 46.3 12.9 46.7 12.9 47.3 12.3 47.9 11.7 48.5 11.1 48.9 10.5 48.9 10.5 49.1 10.4 49.3 10.4 49.5 10.4 49.7 10.4 49.7 10.5 49.9 10.5Z" stroke="#7823DC" stroke-width="2" stroke-miterlimit="10" fill="#7823DC"/><rect x="15" y="0" width="2" height="7.3" fill="#7823DC"/><path d="M20.8 32C20.4 32 20 31.9 19.6 31.7 19.2 31.5 18.9 31.2 18.6 30.8 17.9 29.9 17.4 28.7 16.9 27.6L16.7 27.1C16.4 26.3 16.1 25.9 16 25.7 15.9 25.9 15.6 26.3 15.3 27L15 27.6C14.5 28.6 14 29.8 13.3 30.8 13 31.2 12.7 31.5 12.3 31.7 11.3 32.2 10 32 9.2 31.2 8.7 30.7 8.3 30 8.2 29.3 8.1 28.9 7.6 26.9 7 24.6 6.2 21.2 5.7 18.8 5.5 17.5 5.3 15.5 5.9 13.5 7.3 12 8.6 10.6 10.3 9.7 12.1 9.7 12.3 9.7 12.5 9.7 12.7 9.7 13 9.7 13.3 9.8 13.5 9.9 13.5 9.9 13.7 10 13.7 10 13.7 10 13.8 10.2 13.8 10.2 13.8 10.2 14.3 10.8 14.8 11.3 15.3 11.8 15.5 12 15.7 12.1 15.9 12 16.1 11.8 16.6 11.3 17.1 10.7 17.6 10.2 17.6 10.2 17.6 10.2 17.7 10 17.8 10 17.9 10 18.1 9.9 18.1 9.9 18.3 9.8 18.6 9.8 18.9 9.7 20.9 9.5 22.9 10.3 24.4 11.9 25.7 13.4 26.4 15.3 26.3 17.3 26.1 18.7 25.6 21.1 24.8 24.5 24.2 27.1 23.6 29.3 23.6 29.3 23.4 30 23.1 30.7 22.6 31.1 22.2 31.7 21.5 32 20.8 32ZM16 23.7C17.4 23.7 18 25.2 18.5 26.4L18.7 26.9C19.1 27.9 19.6 28.9 20.1 29.7 20.2 29.9 20.3 30 20.4 30 20.7 30.1 20.9 30.1 21.2 29.8 21.4 29.6 21.6 29.3 21.6 28.9 21.6 28.9 22.2 26.7 22.8 24.1 23.6 20.8 24.1 18.4 24.3 17.2 24.4 15.8 23.9 14.4 22.9 13.3 22 12.3 20.7 11.7 19.5 11.7 19.4 11.7 19.2 11.7 19.1 11.7 19.1 11.7 19 11.7 19 11.7 18.8 11.9 18.5 12.3 18.1 12.7 17.1 13.8 16.4 14.2 15.8 14.2 15.2 14.2 14.5 13.8 13.5 12.7 13.1 12.3 12.8 11.9 12.6 11.7 12.5 11.7 12.3 11.7 12.2 11.7 11 11.7 9.8 12.3 8.9 13.3 7.9 14.4 7.5 15.8 7.6 17.2 7.7 18.4 8.3 20.8 9.1 24.1 9.7 26.7 10.3 28.8 10.3 28.8L10.3 28.9C10.3 29.2 10.5 29.5 10.7 29.7 10.9 29.9 11.2 30 11.5 29.9 11.6 29.8 11.7 29.7 11.8 29.6 12.4 28.9 12.8 27.8 13.2 26.8L13.5 26.2C14 25.2 14.6 23.7 16 23.7Z" fill="#7823DC"/><g><rect x="18.3" y="3.7" width="7.3" height="2" fill="#7823DC" transform="matrix(0.4252 -0.9051 0.9051 0.4252 8.378 22.5118)"/><rect x="9.1" y="1" width="2" height="7.3" fill="#7823DC" transform="matrix(0.9051 -0.4252 0.4252 0.9051 -1.0241 4.7308)"/></g></svg>