<svg viewBox="0 0 31.94 31.94" xmlns="http://www.w3.org/2000/svg" xmlns:xlink="http://www.w3.org/1999/xlink" id="Layer_1" overflow="hidden"><style>
.MsftOfcResponsive_Fill_7823dc {
 fill:#7823DC; 
}
</style>
<defs></defs><path d="M27.26 4.68C24.24 1.66 20.23 0 15.97 0 11.71 0 7.69 1.66 4.68 4.68 1.67 7.7 0 11.7 0 15.97 0 20.24 1.66 24.24 4.68 27.26 7.7 30.28 11.71 31.94 15.97 31.94 20.23 31.94 24.25 30.28 27.26 27.26 30.27 24.24 31.94 20.23 31.94 15.97 31.94 11.71 30.28 7.69 27.26 4.68ZM29.86 14.16C26.05 14.23 22.39 15.65 19.53 18.17L17.33 15.97 26.53 6.77C28.4 8.92 29.5 11.49 29.85 14.16ZM14.15 29.87C11.49 29.53 8.91 28.42 6.76 26.55L15.96 17.35 18.16 19.55C15.64 22.4 14.22 26.06 14.15 29.88ZM19.53 20.91 25.16 26.54C22.56 28.8 19.33 29.96 16.08 29.99 16.12 26.64 17.34 23.42 19.53 20.91ZM6.77 5.4C9.37 3.14 12.6 1.98 15.85 1.95 15.82 5.29 14.61 8.51 12.42 11.04L6.77 5.39ZM17.78 2.08C20.45 2.42 23.03 3.53 25.18 5.41L15.98 14.61 13.79 12.42C16.31 9.56 17.73 5.89 17.78 2.08ZM5.4 6.77 11.05 12.42C8.53 14.62 5.31 15.85 1.95 15.88 1.97 12.62 3.13 9.38 5.4 6.77ZM2.08 17.82C5.89 17.76 9.55 16.33 12.42 13.79L14.61 15.98 5.41 25.18C3.55 23.04 2.44 20.47 2.09 17.82ZM26.54 25.18 20.91 19.55C23.43 17.36 26.65 16.13 29.99 16.1 29.96 19.35 28.81 22.58 26.54 25.18Z" class="MsftOfcResponsive_Fill_7823dc" fill="#7823DC"/></svg>