<svg width="32" height="28" viewBox="0 0 32 28" xmlns="http://www.w3.org/2000/svg" xmlns:xlink="http://www.w3.org/1999/xlink" overflow="hidden"><style>
.MsftOfcResponsive_Fill_7823dc {
 fill:#7823DC; 
}
</style>
<defs></defs><g><path d="M30 2 30 18 2 18 2 2 30 2M28.05 0 0 0 0 20 32 20 32 4 28.05 0Z" class="MsftOfcResponsive_Fill_7823dc" fill="#7823DC"/></g><g><path d="M18 20 18 26 14 26 14 20 18 20M20 18 12 18 12 28 20 28 20 18Z" class="MsftOfcResponsive_Fill_7823dc" fill="#7823DC"/></g><g><path d="M25.98 26 5.98 26 5.98 28 25.98 28 25.98 26Z" class="MsftOfcResponsive_Fill_7823dc" fill="#7823DC"/></g><g><path d="" class="MsftOfcResponsive_Fill_7823dc" stroke="#7823DC" stroke-width="2" stroke-linejoin="round" stroke-miterlimit="10" fill="#7823DC"/></g><g><g><circle cx="8.26" cy="5" r="1" class="MsftOfcResponsive_Fill_7823dc" fill="#7823DC"/></g><g><path d="M7.06 6.45 6 9.24 10.45 9.28 9.44 6.47 8.8 6.65 7.69 6.64 7.06 6.45Z" class="MsftOfcResponsive_Fill_7823dc" fill="#7823DC"/></g></g><g><path d="" class="MsftOfcResponsive_Fill_7823dc" stroke="#7823DC" stroke-width="2" stroke-linejoin="round" stroke-miterlimit="10" fill="#7823DC"/></g><g><g><circle cx="16.04" cy="5" r="1" class="MsftOfcResponsive_Fill_7823dc" fill="#7823DC"/></g><g><path d="M14.83 6.45 13.78 9.24 18.22 9.28 17.22 6.47 16.58 6.65 15.47 6.64 14.83 6.45Z" class="MsftOfcResponsive_Fill_7823dc" fill="#7823DC"/></g></g><g><path d="" class="MsftOfcResponsive_Fill_7823dc" stroke="#7823DC" stroke-width="2" stroke-linejoin="round" stroke-miterlimit="10" fill="#7823DC"/></g><g><g><circle cx="23.81" cy="5" r="1" class="MsftOfcResponsive_Fill_7823dc" fill="#7823DC"/></g><g><path d="M22.61 6.45 21.55 9.24 26 9.28 24.99 6.47 24.36 6.65 23.24 6.64 22.61 6.45Z" class="MsftOfcResponsive_Fill_7823dc" fill="#7823DC"/></g></g><g><g><circle cx="8.26" cy="11.72" r="1" class="MsftOfcResponsive_Fill_7823dc" fill="#7823DC"/></g><g><path d="M7.06 13.17 6 15.96 10.45 16 9.44 13.19 8.8 13.37 7.69 13.36 7.06 13.17Z" class="MsftOfcResponsive_Fill_7823dc" fill="#7823DC"/></g></g><g><g><circle cx="16.04" cy="11.72" r="1" class="MsftOfcResponsive_Fill_7823dc" fill="#7823DC"/></g><g><path d="M14.83 13.17 13.78 15.96 18.22 16 17.22 13.19 16.58 13.37 15.47 13.36 14.83 13.17Z" class="MsftOfcResponsive_Fill_7823dc" fill="#7823DC"/></g></g><g><g><circle cx="23.81" cy="11.72" r="1" class="MsftOfcResponsive_Fill_7823dc" fill="#7823DC"/></g><g><path d="M22.61 13.17 21.55 15.96 26 16 24.99 13.19 24.36 13.37 23.24 13.36 22.61 13.17Z" class="MsftOfcResponsive_Fill_7823dc" fill="#7823DC"/></g></g></svg>