<svg width="32" height="32" viewBox="0 0 32 32" xmlns="http://www.w3.org/2000/svg" xmlns:xlink="http://www.w3.org/1999/xlink" overflow="hidden"><defs></defs><g><g><g><defs><rect x="0" y="0" width="32" height="32" id="SVGID_1_" fill="#7823DC"/></defs><clipPath id="SVGID_2_"><use width="100%" height="100%" xlink:href="#SVGID_1_"></use></clipPath><g clip-path="url(#SVGID_2_)"><defs><rect x="0" y="0" width="32" height="32" id="SVGID_3_" fill="#7823DC"/></defs><clipPath id="SVGID_4_"><use width="100%" height="100%" xlink:href="#SVGID_3_"></use></clipPath><path d="M16 5.8C22.6 5.8 28 11.2 28 17.8 28 24.4 22.6 29.8 16 29.8 9.4 29.8 4 24.4 4 17.8 4 11.2 9.4 5.8 16 5.8M16 3.8C8.3 3.8 2 10.1 2 17.8 2 25.5 8.3 31.8 16 31.8 23.7 31.8 30 25.5 30 17.8 30 10.1 23.7 3.8 16 3.8" fill="#7823DC" clip-path="url(#SVGID_4_)"/><rect x="15" y="4.2" width="2" height="3.8" fill="#7823DC" clip-path="url(#SVGID_4_)"/><rect x="15" y="28" width="2" height="3.5" fill="#7823DC" clip-path="url(#SVGID_4_)"/><rect x="26" y="17" width="3.8" height="2" fill="#7823DC" clip-path="url(#SVGID_4_)"/><rect x="2.2" y="17" width="3.8" height="2" fill="#7823DC" clip-path="url(#SVGID_4_)"/><path d="M16 2.2C17.4 2.2 18.6 3.3 18.6 4.7L20.6 4.8C20.6 2.3 18.5 0.2 16 0.2 13.5 0.2 11.4 2.3 11.4 4.8 11.4 4.8 12.8 5.4 13.4 4.8 13.4 3.3 14.6 2.2 16 2.2" fill="#7823DC" clip-path="url(#SVGID_4_)"/></g></g></g><path d="M22 9.8 13.3 15.3 13 15.7 8.6 25.4 10 26.7 18.8 21.1 19.2 20.7 23.5 11.1 22 9.8ZM14.1 17.9 16.6 20 11.8 23.1 14.1 17.9ZM17.9 18.6 15.3 16.4 20.3 13.3 17.9 18.6Z" fill="#7823DC"/></g></svg>