<svg viewBox="0 0 29.22 29.22" xmlns="http://www.w3.org/2000/svg" xmlns:xlink="http://www.w3.org/1999/xlink" xml:space="preserve" overflow="hidden"><style>
.MsftOfcResponsive_Fill_7823dc {
 fill:#7823DC; 
}
</style>
<g id="Layer_3"></g><g id="Layer_1"></g><g id="Layer_2"></g><g id="Layer_4"></g><g id="Layer_5"><g><path d="M25.86 15.67 25.86 5.31 17.2 5.31 15.49 12.14 10.09 12.14 10.09 15.68C8.46 16.06 7.18 17.34 6.8 18.97L5.27 18.97 5.27 14 3.27 14 3.27 19.97C3.27 21.3 2.19 22.38 0.86 22.38L0 22.38 0 24.38 0.85 24.38C2.94 24.38 4.68 22.92 5.14 20.97L6.8 20.97C7.26 22.92 9 24.38 11.09 24.38L24.86 24.38C27.29 24.38 29.27 22.4 29.27 19.97 29.28 17.87 27.81 16.13 25.86 15.67ZM18.76 7.31 20.39 7.31 20.39 12.14 17.55 12.14 18.76 7.31ZM22.39 14.13 22.39 7.31 23.86 7.31 23.86 15.55 12.09 15.55 12.09 14.14 22.39 14.14ZM24.86 22.38 11.09 22.38C10.12 22.38 9.28 21.8 8.9 20.97L15.41 20.97 15.41 18.97 8.9 18.97C9.28 18.14 10.12 17.56 11.09 17.56L24.86 17.56C26.19 17.56 27.27 18.64 27.27 19.97 27.27 21.3 26.19 22.38 24.86 22.38Z" class="MsftOfcResponsive_Fill_7823dc" fill="#7823DC"/><rect x="17.13" y="18.96" width="1.71" height="2" class="MsftOfcResponsive_Fill_7823dc" fill="#7823DC"/><rect x="20.54" y="18.96" width="1.71" height="2" class="MsftOfcResponsive_Fill_7823dc" fill="#7823DC"/><rect x="23.95" y="18.96" width="1.71" height="2" class="MsftOfcResponsive_Fill_7823dc" fill="#7823DC"/></g></g></svg>