<svg width="32" height="32" viewBox="0 0 32 32" xmlns="http://www.w3.org/2000/svg" xmlns:xlink="http://www.w3.org/1999/xlink" overflow="hidden"><defs></defs><g><g><g><g><path d="M14.57 22.56C14.57 21.77 15.21 21.15 15.98 21.15 16.75 21.15 17.39 21.77 17.39 22.56 17.39 23.35 16.75 23.97 15.98 23.97 15.21 23.97 14.57 23.35 14.57 22.56ZM14.99 8.13 17.01 8.13 16.7 19.42 15.29 19.42 14.99 8.13Z" fill="#7823DC"/></g><g><path d="M15.98 24.12C15.12 24.12 14.42 23.42 14.42 22.56 14.42 21.7 15.12 21 15.98 21 16.84 21 17.54 21.7 17.54 22.56 17.54 23.42 16.84 24.12 15.98 24.12ZM15.98 21.3C15.29 21.3 14.72 21.86 14.72 22.56 14.72 23.26 15.28 23.82 15.98 23.82 16.68 23.82 17.24 23.26 17.24 22.56 17.24 21.86 16.67 21.3 15.98 21.3ZM16.85 19.56 15.15 19.56 14.83 7.98 17.16 7.98 16.85 19.56ZM15.44 19.27 16.56 19.27 16.86 8.28 15.14 8.28 15.44 19.27Z" fill="#7823DC"/></g></g></g><g><g><path d="M16 32C7.18 32 0 24.82 0 16 0 7.18 7.18 0 16 0 24.82 0 32 7.18 32 16 32 24.82 24.82 32 16 32ZM16 2C8.28 2 2 8.28 2 16 2 23.72 8.28 30 16 30 23.72 30 30 23.72 30 16 30 8.28 23.72 2 16 2Z" fill="#7823DC"/></g></g></g></svg>