<svg viewBox="0 0 32 32" xmlns="http://www.w3.org/2000/svg" xmlns:xlink="http://www.w3.org/1999/xlink" id="Layer_1" overflow="hidden"><style>
.MsftOfcThm_Text2_Fill_v2 {
 fill:#7823DC; 
}
</style>
<path d="M16 32 2 32 2 0 16 0 16 32ZM4 30 14 30 14 2 4 2 4 30Z" class="MsftOfcThm_Text2_Fill_v2" fill="#7823DC"/><rect x="0" y="0" width="18" height="2" class="MsftOfcThm_Text2_Fill_v2" fill="#7823DC"/><rect x="0" y="30" width="18" height="2" class="MsftOfcThm_Text2_Fill_v2" fill="#7823DC"/><path d="M27 25 14 25 14 7 32 7 32 19.29 30 19.29C29.22 19.29 28.49 19.64 27.92 20.29 27.33 20.96 27 21.9 27 22.86L27 25ZM16 23 25 23 25 22.86C25 21.4 25.5 20.02 26.42 18.97 27.35 17.9 28.66 17.29 30 17.29L30 9 16 9 16 23Z" class="MsftOfcThm_Text2_Fill_v2" fill="#7823DC"/><rect x="3" y="4" width="12" height="2" class="MsftOfcThm_Text2_Fill_v2" fill="#7823DC"/><rect x="3" y="26" width="12" height="2" class="MsftOfcThm_Text2_Fill_v2" fill="#7823DC"/><rect x="6" y="1" width="2" height="4" class="MsftOfcThm_Text2_Fill_v2" fill="#7823DC"/><rect x="10" y="1" width="2" height="4" class="MsftOfcThm_Text2_Fill_v2" fill="#7823DC"/><rect x="6" y="27" width="2" height="4" class="MsftOfcThm_Text2_Fill_v2" fill="#7823DC"/><rect x="10" y="27" width="2" height="4" class="MsftOfcThm_Text2_Fill_v2" fill="#7823DC"/></svg>