<svg viewBox="0 0 32 32" xmlns="http://www.w3.org/2000/svg" xmlns:xlink="http://www.w3.org/1999/xlink" id="Layer_2_00000144328325245699140920000014890284756443101063_" xml:space="preserve" overflow="hidden"><style>
.MsftOfcResponsive_Fill_7823dc {
 fill:#7823DC; 
}
</style>
<g><path d="M16 20.5C16.8 20.4 17.7 18.8 17.9 18 18.4 16.5 18.6 15.9 18.6 14.3L18.6 13.5 23.5 8.6 23.5 4.8 18.6 7.3 18.6 5.7 20.2 3.3 20.2 0.8 19.4 0 16 1.9 12.6 0 11.7 0.8 11.7 3.3 13.3 5.7 13.3 7.1 8.2 4.8 8.2 8.7 13.5 13.6 13.5 14.5C13.5 16.1 13.7 16.7 14.2 18.2 14.5 18.9 15.2 20.4 16 20.5L16 20.5ZM15.8 18.4C15.4 17.1 15.2 15.7 15.2 14.3L15.2 12.8 9.9 8 9.9 7.7 15.2 10.4 15.1 5.1 13.5 2.7 13.5 2.4 13.5 2.4 13.5 2.4 16 4 18.3 2.4 18.3 2.7 16.8 5.1 16.9 10.4 21.8 7.6 21.8 7.9 16.8 12.9 16.8 14.4C16.8 15.8 16.6 17.2 16.2 18.5 16.2 18.6 16.1 18.7 16.1 18.7L16 18.7C15.9 18.6 15.9 18.5 15.8 18.4L15.8 18.4 15.8 18.4 15.8 18.4Z" class="MsftOfcResponsive_Fill_7823dc" fill="#7823DC" fill-rule="evenodd" clip-rule="evenodd"/><path d="M4 0 6 0 6 32 4 32 4 0Z" class="MsftOfcResponsive_Fill_7823dc" fill="#7823DC" fill-rule="evenodd" clip-rule="evenodd"/><path d="M30 0 32 0 32 32 30 32 30 0Z" class="MsftOfcResponsive_Fill_7823dc" fill="#7823DC" fill-rule="evenodd" clip-rule="evenodd"/><path d="M0 0 2 0 2 32 0 32 0 0Z" class="MsftOfcResponsive_Fill_7823dc" fill="#7823DC" fill-rule="evenodd" clip-rule="evenodd"/><path d="M26 0 28 0 28 32 26 32 26 0Z" class="MsftOfcResponsive_Fill_7823dc" fill="#7823DC" fill-rule="evenodd" clip-rule="evenodd"/><path d="M15 30 17 30 17 32 15 32 15 30Z" class="MsftOfcResponsive_Fill_7823dc" fill="#7823DC" fill-rule="evenodd" clip-rule="evenodd"/><path d="M15 26.9 17 26.9 17 29 15 29 15 26.9Z" class="MsftOfcResponsive_Fill_7823dc" fill="#7823DC" fill-rule="evenodd" clip-rule="evenodd"/><path d="M15 24 17 24 17 25.9 15 25.9 15 24Z" class="MsftOfcResponsive_Fill_7823dc" fill="#7823DC" fill-rule="evenodd" clip-rule="evenodd"/><path d="M15 21 17 21 17 22.9 15 22.9 15 21Z" class="MsftOfcResponsive_Fill_7823dc" fill="#7823DC" fill-rule="evenodd" clip-rule="evenodd"/></g></svg>