<svg width="36.5" height="36.5" viewBox="0 0 36.5 36.5" xmlns="http://www.w3.org/2000/svg" xmlns:xlink="http://www.w3.org/1999/xlink" overflow="hidden"><defs></defs><g><g><defs><path d="M0 36.5 36.5 36.5 36.5 0 0 0 0 36.5Z" id="SVGID_1_" fill="#7823DC"/></defs><clipPath id="SVGID_2_"><use width="100%" height="100%" xlink:href="#SVGID_1_"></use></clipPath><g clip-path="url(#SVGID_2_)"><defs><path d="M0 36.5 36.5 36.5 36.5 0 0 0 0 36.5Z" id="SVGID_3_" fill="#7823DC"/></defs><clipPath id="SVGID_4_"><use width="100%" height="100%" xlink:href="#SVGID_3_"></use></clipPath><path d="M8 21.7C9.3 21.7 10.3 20.7 10.3 19.4 10.3 18.1 9.3 17.1 8 17.1 6.7 17.1 5.7 18.1 5.7 19.4 5.7 20.7 6.7 21.7 8 21.7L8 21.7Z" fill="#7823DC" clip-path="url(#SVGID_4_)"/><path d="M28.1 22.9 20.5 22.9 20.5 25.1 25.3 25.1 24.1 36.5 24.2 36.5 26.6 36.5 28.1 22.9 28.1 22.9Z" fill="#7823DC" clip-path="url(#SVGID_4_)"/><path d="M28.9 22.9 36.5 22.9 36.5 25.1 31.7 25.1 32.9 36.5 32.8 36.5 30.4 36.5 28.9 22.9 28.9 22.9Z" fill="#7823DC" clip-path="url(#SVGID_4_)"/><rect x="13.1" y="27.4" width="10.3" height="2.3" fill="#7823DC" clip-path="url(#SVGID_4_)"/><rect x="6.6" y="11.4" width="8" height="2.3" fill="#7823DC" clip-path="url(#SVGID_4_)" transform="matrix(0.4991 -0.8666 0.8666 0.4991 -5.6089 15.4365)"/><rect x="24.8" y="8.6" width="2.3" height="8" fill="#7823DC" clip-path="url(#SVGID_4_)" transform="matrix(0.8664 -0.4994 0.4994 0.8664 -2.8109 14.6336)"/><path d="M7.6 22.9 0 22.9 0 25.1 4.8 25.1 3.6 36.5 3.7 36.5 6.1 36.5 7.6 22.9 7.6 22.9Z" fill="#7823DC" clip-path="url(#SVGID_4_)"/><path d="M8.4 22.9 16 22.9 16 25.1 11.2 25.1 12.4 36.5 12.3 36.5 9.9 36.5 8.4 22.9 8.4 22.9Z" fill="#7823DC" clip-path="url(#SVGID_4_)"/><path d="M28.5 21.7C29.8 21.7 30.8 20.7 30.8 19.4 30.8 18.1 29.8 17.1 28.5 17.1 27.2 17.1 26.2 18.1 26.2 19.4 26.2 20.7 27.2 21.7 28.5 21.7L28.5 21.7Z" fill="#7823DC" clip-path="url(#SVGID_4_)"/><path d="M18.2 4.6C19.5 4.6 20.5 3.6 20.5 2.3 20.5 1 19.5 0 18.2 0 17 0 16 1 16 2.3 16 3.5 17 4.6 18.2 4.6L18.2 4.6Z" fill="#7823DC" clip-path="url(#SVGID_4_)"/><path d="M17.8 5.7 10.3 5.7 10.3 8 15.1 8 13.9 19.4 14 19.4 16.3 19.4 17.8 5.7 17.8 5.7Z" fill="#7823DC" clip-path="url(#SVGID_4_)"/><path d="M18.7 5.7 26.2 5.7 26.2 8 21.4 8 22.6 19.4 22.5 19.4 20.1 19.4 18.7 5.7 18.7 5.7Z" fill="#7823DC" clip-path="url(#SVGID_4_)"/></g></g></g></svg>