<svg width="27.1" height="26.5" viewBox="0 0 27.1 26.5" xmlns="http://www.w3.org/2000/svg" xmlns:xlink="http://www.w3.org/1999/xlink" overflow="hidden"><style>
.MsftOfcResponsive_Fill_7823dc {
 fill:#7823DC; 
}
</style>
<defs></defs><g><path d="M21.3 6.6C19.5 6.6 18 5.1 18 3.3 18 1.5 19.5 0 21.3 0 23.1 0 24.6 1.5 24.6 3.3 24.6 5.1 23.1 6.6 21.3 6.6ZM21.3 2C20.6 2 20 2.6 20 3.3 20 4 20.6 4.6 21.3 4.6 22 4.6 22.6 4 22.6 3.3 22.6 2.6 22 2 21.3 2Z" class="MsftOfcResponsive_Fill_7823dc" fill="#7823DC"/><path d="M26.3 6.3 21 8.8 16.4 4.7 11.4 4.8 6.7 9 8 10.5 12.2 6.8 15.7 6.7 15.7 6.7 5.8 17.5 0 17.3 1.4 19.4 6.7 19.5 11 14.8 15.6 19.2 14.5 25.7 16.4 26.5 17.7 18.5 13.3 14.3 18.3 9 20.6 11.2 27.1 8.1Z" class="MsftOfcResponsive_Fill_7823dc" fill="#7823DC"/></g></svg>