<svg viewBox="0 0 31.96 31.98" xmlns="http://www.w3.org/2000/svg" xmlns:xlink="http://www.w3.org/1999/xlink" id="Layer_1" overflow="hidden"><style>
.MsftOfcResponsive_Fill_7823dc {
 fill:#7823DC; 
}
</style>
<defs></defs><path d="M27.25 31.98 21.26 31.98 20.96 31.67C16.78 27.27 12.09 22.52 10.48 21.14 9.35 22.63 6.51 27.25 4.06 31.48L3.77 31.98 0 31.98 0.31 30.74C0.44 30.23 3.46 18.1 5.43 14.28 7.36 10.54 9.95 9.62 18.62 9.62 19.33 9.62 19.89 9.43 20.24 9.08 20.54 8.77 20.7 8.35 20.7 7.81L20.7 7.81 20.72 0.01 22.72 0.01C22.72 0.01 22.7 9.62 22.7 9.62 24.07 9.61 26.54 9.58 28.18 9.58 30.27 9.58 31.96 11.28 31.96 13.36 31.96 15.44 30.26 17.14 28.18 17.14L25.4 17.14C21.77 17.14 21.2 14.15 20.76 11.14 20.15 11.45 19.43 11.62 18.62 11.62 9.92 11.62 8.52 12.66 7.21 15.2 5.7 18.13 3.4 26.75 2.57 29.98L2.62 29.98C9.09 18.85 9.74 18.85 10.37 18.85 10.85 18.85 11.52 18.85 22.12 29.98L23.24 29.98 14.74 16.99 16.59 16.99C17.16 16.99 17.68 16.99 18.15 16.99 22.07 16.97 23.53 16.95 24.01 20.29 24.16 21.36 25.18 27.68 25.55 29.98L27.25 29.98 27.25 31.98ZM18.43 18.98 22.84 25.73C22.47 23.45 22.11 21.19 22.03 20.57 21.81 19 21.79 18.96 18.43 18.99ZM22.86 11.61C23.38 14.65 23.97 15.14 25.4 15.14L28.18 15.14C29.16 15.14 29.96 14.34 29.96 13.36 29.96 12.38 29.16 11.58 28.18 11.58 26.6 11.58 24.25 11.6 22.86 11.61Z" class="MsftOfcResponsive_Fill_7823dc" stroke-width="0" fill="#7823DC"/></svg>