<svg viewBox="0 0 26 32" xmlns="http://www.w3.org/2000/svg" xmlns:xlink="http://www.w3.org/1999/xlink" id="Layer_1" overflow="hidden"><style>
.MsftOfcResponsive_Fill_7823dc {
 fill:#7823DC; 
}
</style>
<defs></defs><path d="M10 32C4.21 32 0 27.24 0 20.68 0 17.95 0.72 15.36 2.07 13.19 3.21 11.26 3.99 8.98 4.33 6.62L4.44 5.46C4.87 2.28 7.21 -8.88178e-16 10 -8.88178e-16 12.79 -8.88178e-16 15.09 2.21 15.66 5.38L15.79 6.64C16.13 8.99 16.91 11.27 18.06 13.22 19.33 15.48 20 18.06 20 20.69 20 27.25 15.79 32.01 10 32.01ZM10 2C8.22 2 6.72 3.55 6.43 5.7L6.31 6.86C5.93 9.52 5.06 12.05 3.78 14.23 2.61 16.1 2 18.33 2 20.68 2 26.17 5.29 30 10 30 14.71 30 18 26.17 18 20.68 18 17.79 17.09 15.57 16.33 14.21 15.06 12.05 14.19 9.52 13.81 6.9L13.81 6.86C13.81 6.86 13.68 5.66 13.68 5.66 13.29 3.54 11.77 2 10 2Z" class="MsftOfcResponsive_Fill_7823dc" fill="#7823DC"/><path d="M10.6 32 10.6 30C18.36 30 24 25.88 24 20.2 24 16.76 22.75 14.65 20.86 11.44 19.65 9.39 18.28 7.06 16.88 3.79L18.72 3C20.07 6.15 21.41 8.42 22.59 10.42 24.5 13.66 26 16.21 26 20.19 26 27.03 19.52 31.99 10.6 31.99Z" class="MsftOfcResponsive_Fill_7823dc" fill="#7823DC"/><path d="M10 26C7.13 26 4.8 23.4 4.8 20.2 4.8 17 7.12 13.08 10 13.08 12.88 13.08 15.2 16.98 15.2 20.2 15.2 23.42 12.87 26 10 26ZM10 15.08C8.53 15.08 6.8 17.86 6.8 20.2 6.8 22.26 8.27 24 10 24 11.73 24 13.2 22.26 13.2 20.2 13.2 17.86 11.47 15.08 10 15.08Z" class="MsftOfcResponsive_Fill_7823dc" fill="#7823DC"/></svg>