<svg viewBox="0 0 32 32" xmlns="http://www.w3.org/2000/svg" xmlns:xlink="http://www.w3.org/1999/xlink" xml:space="preserve" overflow="hidden"><style>
.MsftOfcResponsive_Fill_7823dc {
 fill:#7823DC; 
}
</style>
<g id="Layer_3"></g><g id="Layer_1"></g><g id="Layer_2"><path d="M15.99 28.32C14.46 28.32 12.92 28.03 11.46 27.44 10.97 27.24 10.47 27 9.91 26.67L9.04 26.17 13.56 18.34 14.43 18.84C14.56 18.91 14.69 18.98 14.83 19.04L14.83 19.04C15.73 19.4 16.74 19.33 17.58 18.84L18.45 18.34 22.97 26.16 22.1 26.66C20.2 27.77 18.1 28.32 15.99 28.32ZM11.79 25.41C11.93 25.48 12.07 25.53 12.2 25.59 14.81 26.63 17.67 26.56 20.2 25.4L17.67 21C16.59 21.37 15.43 21.37 14.34 21L11.79 25.41Z" class="st1 MsftOfcResponsive_Fill_7823dc" fill="#7823DC"/><path d="M28.2 17.12 19.16 17.12 19.16 16.12C19.16 15 18.55 13.95 17.58 13.39L16.71 12.89 21.22 5.07 22.09 5.57C25.85 7.74 28.19 11.78 28.19 16.13L28.19 17.12ZM21.06 15.12 26.15 15.12C25.86 12.21 24.32 9.54 21.94 7.84L19.4 12.24C20.25 12.98 20.84 14 21.06 15.12Z" class="st1 MsftOfcResponsive_Fill_7823dc" fill="#7823DC"/><path d="M12.84 17.11 3.8 17.11 3.8 16.11C3.8 14.54 4.09 13.01 4.67 11.57 4.86 11.08 5.11 10.59 5.44 10.02 6.51 8.16 8.05 6.62 9.9 5.55L10.77 5.05 15.29 12.87 14.42 13.37C13.94 13.65 13.54 14.04 13.27 14.52 13.19 14.65 13.13 14.78 13.07 14.93 12.92 15.3 12.85 15.69 12.85 16.1L12.85 17.11ZM5.85 15.11 10.94 15.11C11 14.8 11.09 14.49 11.21 14.19 11.3 13.96 11.42 13.74 11.54 13.53 11.82 13.04 12.18 12.6 12.61 12.23L10.07 7.83C8.89 8.67 7.9 9.76 7.17 11.02 6.89 11.51 6.69 11.92 6.53 12.32 6.17 13.22 5.94 14.15 5.85 15.11Z" class="st1 MsftOfcResponsive_Fill_7823dc" fill="#7823DC"/><path d="M16.81 17.52C17.05 17.38 17.26 17.19 17.41 16.93 17.56 16.67 17.62 16.39 17.62 16.12 17.62 15.56 17.33 15.01 16.81 14.71 16.29 14.41 15.67 14.44 15.19 14.72 14.95 14.86 14.74 15.05 14.59 15.31 14.44 15.57 14.38 15.85 14.38 16.12 14.38 16.68 14.67 17.23 15.19 17.53 15.71 17.83 16.32 17.8 16.81 17.52Z" class="st1 MsftOfcResponsive_Fill_7823dc" fill="#7823DC"/><path d="M16.01 31.99C9.42 31.99 3.24 27.88 0.92 21.32-0.5 17.29-0.26 12.95 1.58 9.1 3.42 5.25 6.66 2.34 10.68 0.92 14.71-0.5 19.05-0.27 22.9 1.57 26.75 3.41 29.66 6.65 31.08 10.67L31.08 10.67C34.01 18.98 29.64 28.13 21.32 31.06 19.57 31.69 17.78 31.99 16.01 31.99ZM16.01 2.01C14.44 2.01 12.87 2.28 11.35 2.81 7.82 4.05 5 6.59 3.38 9.96 1.77 13.33 1.56 17.13 2.81 20.65 5.38 27.92 13.38 31.75 20.65 29.19 27.92 26.62 31.75 18.62 29.19 11.35 27.94 7.82 25.4 5 22.03 3.38 20.12 2.47 18.07 2.01 16.01 2.01Z" class="st1 MsftOfcResponsive_Fill_7823dc" fill="#7823DC"/></g></svg>