<svg width="36.5" height="36.6" viewBox="0 0 36.5 36.6" xmlns="http://www.w3.org/2000/svg" xmlns:xlink="http://www.w3.org/1999/xlink" overflow="hidden"><defs></defs><g><g><defs><path d="M0 36.5 36.5 36.5 36.5 0 0 0 0 36.5Z" id="SVGID_1_" fill="#7823DC"/></defs><clipPath id="SVGID_2_"><use width="100%" height="100%" xlink:href="#SVGID_1_"></use></clipPath><g clip-path="url(#SVGID_2_)"><defs><path d="M0 36.5 36.5 36.5 36.5 0 0 0 0 36.5Z" id="SVGID_3_" fill="#7823DC"/></defs><clipPath id="SVGID_4_"><use width="100%" height="100%" xlink:href="#SVGID_3_"></use></clipPath><path d="M27.4 22.9C28.7 22.9 29.7 23.9 29.7 25.2 29.7 26.5 28.7 27.5 27.4 27.5 26.1 27.5 25.1 26.5 25.1 25.2 25.1 23.9 26.1 22.9 27.4 22.9M27.4 20.6C24.9 20.6 22.8 22.6 22.8 25.2 22.8 27.7 24.8 29.8 27.4 29.8 30 29.8 32 27.8 32 25.2 31.9 22.6 29.9 20.6 27.4 20.6L27.4 20.6Z" fill="#7823DC" clip-path="url(#SVGID_4_)"/><path d="M31.8 0 0 0 0 27.4 25.1 27.4 25.1 25.1 2.3 25.1 2.3 2.3 34.2 2.3 34.2 25.1 29.7 25.1 29.7 27.4 36.5 27.4 36.5 4.5 31.8 0 31.8 0Z" fill="#7823DC" clip-path="url(#SVGID_4_)"/><path d="M16 20.6 20.5 20.6 20.5 22.9 16 22.9 16 20.6Z" fill="#7823DC" clip-path="url(#SVGID_4_)"/><path d="M22.8 6.9 27.4 6.9 27.4 9.1 22.8 9.1 22.8 6.9Z" fill="#7823DC" clip-path="url(#SVGID_4_)"/><path d="M9.1 6.9 13.6 6.9 13.6 9.1 9.1 9.1 9.1 6.9Z" fill="#7823DC" clip-path="url(#SVGID_4_)"/><path d="M6.8 16 29.5 16 29.5 18.3 6.8 18.3 6.8 16Z" fill="#7823DC" clip-path="url(#SVGID_4_)"/><path d="M4.5 11.4 31.9 11.4 31.9 13.7 4.5 13.7 4.5 11.4Z" fill="#7823DC" clip-path="url(#SVGID_4_)"/><path d="M27 29.7 27.7 29.7 30.3 36.6 32.7 36.6 29.3 27.4 25.4 27.4 22 36.6 24.4 36.6 27 29.7 27 29.7Z" fill="#7823DC" clip-path="url(#SVGID_4_)"/><path d="M20.5 6.9C20.5 8.2 19.5 9.2 18.2 9.2 16.9 9.2 16 8.1 16 6.9 16 5.6 17 4.6 18.3 4.6 19.6 4.6 20.5 5.6 20.5 6.9L20.5 6.9Z" fill="#7823DC" clip-path="url(#SVGID_4_)"/></g></g></g></svg>