<svg viewBox="0 0 32 31.97" xmlns="http://www.w3.org/2000/svg" xmlns:xlink="http://www.w3.org/1999/xlink" id="Layer_1" overflow="hidden"><style>
.MsftOfcResponsive_Fill_7823dc {
 fill:#7823DC; 
}
</style>
<defs></defs><rect x="26" y="4.22" width="2" height="8" class="MsftOfcResponsive_Fill_7823dc" fill="#7823DC"/><path d="M29.41 7.22 27 4.81 24.59 7.22 23.17 5.81 27 1.98 30.83 5.81 29.41 7.22Z" class="MsftOfcResponsive_Fill_7823dc" fill="#7823DC"/><path d="M32 31.97 28.18 31.97C25.83 31.95 23.64 30.9 22.09 29.07 21.16 27.98 19.29 26.13 17.22 26.04 16 25.99 14.85 26.54 13.71 27.67 10.63 30.75 4.3 30.96 4.03 30.96L0 30.96C0 30.96 0 28.96 0 28.96L4 28.96C4 28.96 9.78 28.76 12.29 26.25 13.83 24.71 15.53 23.96 17.29 24.03 19.99 24.14 22.21 26.12 23.61 27.76 24.78 29.14 26.42 29.94 28.11 29.95L32 29.95 32 31.95Z" class="MsftOfcResponsive_Fill_7823dc" fill="#7823DC"/><path d="M32 24.47C29.55 24.47 27.24 23.51 25.31 21.69 22.82 19.34 18.95 17.27 14.62 20.74 10.87 23.74 5.25 23.95 5.01 23.96L0 23.96C0 23.96 0 21.96 0 21.96L4.99 21.96C4.99 21.96 10.16 21.76 13.37 19.18 17.57 15.82 22.42 16.2 26.68 20.23 27.76 21.25 29.56 22.46 31.99 22.46L31.99 24.46Z" class="MsftOfcResponsive_Fill_7823dc" fill="#7823DC"/><path d="M1.83 14.63 0.04 13.72 7.03 0 21.23 5.94 20.46 7.79 7.97 2.56 1.83 14.63Z" class="MsftOfcResponsive_Fill_7823dc" fill="#7823DC"/><rect x="20.23" y="5.24" width="2" height="14.64" class="MsftOfcResponsive_Fill_7823dc" fill="#7823DC" transform="matrix(0.938674 -0.344807 0.344807 0.938674 -3.03 8.09)"/><rect x="2.8" y="11.54" width="2" height="11.56" class="MsftOfcResponsive_Fill_7823dc" fill="#7823DC" transform="matrix(0.938674 -0.344807 0.344807 0.938674 -5.74 2.37)"/><rect x="14.65" y="11.01" width="2" height="7.54" class="MsftOfcResponsive_Fill_7823dc" fill="#7823DC" transform="matrix(0.938674 -0.344807 0.344807 0.938674 -4.14 6.3)"/><rect x="9.11" y="13.06" width="2" height="8.11" class="MsftOfcResponsive_Fill_7823dc" fill="#7823DC" transform="matrix(0.938674 -0.344807 0.344807 0.938674 -5.28 4.54)"/><rect x="10.87" y="9.22" width="2" height="8" class="MsftOfcResponsive_Fill_7823dc" fill="#7823DC" transform="matrix(0.344807 0.938674 -0.938674 0.344807 20.18 -2.49)"/></svg>