<svg viewBox="0 0 32 32" xmlns="http://www.w3.org/2000/svg" xmlns:xlink="http://www.w3.org/1999/xlink" id="Layer_1" xml:space="preserve" overflow="hidden"><g><path d="M30 11.1 28.3 11.1C28.3 10.5 28 9.8 27.4 9 26.5 7.8 26 6.5 25.7 5.9L25.4 5.4 25.2 5.9C25.1 6.3 24.3 9 21.8 10.5L20.9 11 20.5 10.1C20.2 9.3 19.4 8.8 18.6 8.3 18 7.9 17.3 7.5 16.6 6.8 15.7 6 15.5 4.3 15.5 3.5L15.5 3.3 15.1 3.6C13.5 4.8 11.5 6.8 11.1 8.6L10.8 9.9 9.7 9C8.7 8.2 7.5 7.1 7.2 6.3L7.2 6.3 7 6.1 6.7 6.4C5.3 7.8 3.8 9.7 3.8 11.1L2 11.1C2 8.7 4.4 6.2 5.4 5.2L7.4 3.2 8.7 5.6C8.8 5.7 9.1 6.2 9.8 6.9 10.9 4.6 13.2 2.8 14.1 2.2L17.2 0 17.3 3.4C17.3 4.1 17.6 5.2 17.9 5.5 18.5 6 19 6.4 19.6 6.8 20.3 7.3 21.1 7.8 21.6 8.5 23.1 7.3 23.5 5.5 23.5 5.5L23.5 5.4 25 1.3 27.3 5.3C27.5 5.7 28 6.9 28.8 8 29.4 8.8 30 9.9 30 11.1L30 11.1Z" fill="#7823DC" fill-rule="evenodd" clip-rule="evenodd"/><path d="M11.2 28.6 3.8 28.6 3.8 21.2C3.8 16.9 7.4 13.4 11.9 13.4L15.2 13.4 15.2 24.8C15.1 26.9 13.4 28.6 11.2 28.6L11.2 28.6ZM5.5 27 11.2 27C12.4 27 13.4 26.1 13.4 24.9L13.4 15.2 11.9 15.2C8.4 15.2 5.6 18 5.6 21.3L5.6 27 5.5 27 5.5 27Z" fill="#7823DC" fill-rule="evenodd" clip-rule="evenodd"/><path d="M8.4 20.2 10.2 20.2 10.2 32 8.4 32 8.4 20.2Z" fill="#7823DC" fill-rule="evenodd" clip-rule="evenodd"/><path d="M6.3 24.2 7.5 22.9 10 25.5 8.8 26.7 6.3 24.2Z" fill="#7823DC" fill-rule="evenodd" clip-rule="evenodd"/><path d="M11.3 20.1 12.5 21.3 9.9 24 8.7 22.8 11.3 20.1Z" fill="#7823DC" fill-rule="evenodd" clip-rule="evenodd"/><path d="M24.3 28.6 16.9 28.6 16.9 21.2C16.9 16.9 20.5 13.4 25 13.4L28.3 13.4 28.3 24.8C28.2 26.9 26.5 28.6 24.3 28.6L24.3 28.6ZM18.6 27 24.3 27C25.5 27 26.5 26.1 26.5 24.9L26.5 15.2 25 15.2C21.5 15.2 18.7 18 18.7 21.3L18.7 27 18.6 27 18.6 27Z" fill="#7823DC" fill-rule="evenodd" clip-rule="evenodd"/><path d="M21.6 20.2 23.3 20.2 23.3 32 21.6 32 21.6 20.2Z" fill="#7823DC" fill-rule="evenodd" clip-rule="evenodd"/><path d="M19.3 24.2 20.6 22.9 23.1 25.5 21.9 26.7 19.3 24.2Z" fill="#7823DC" fill-rule="evenodd" clip-rule="evenodd"/><path d="M24.4 20.1 25.6 21.3 22.9 24 21.7 22.8 24.4 20.1Z" fill="#7823DC" fill-rule="evenodd" clip-rule="evenodd"/></g></svg>