<svg viewBox="0 0 32.07 32.04" xmlns="http://www.w3.org/2000/svg" xmlns:xlink="http://www.w3.org/1999/xlink" id="Layer_1" overflow="hidden"><style>
.MsftOfcResponsive_Fill_7823dc {
 fill:#7823DC; 
}
</style>
<defs></defs><path d="M8.15 14.86 10.12 15.2C10.54 12.74 12.44 10.62 14.62 10.15L14.2 8.19C11.25 8.83 8.71 11.64 8.15 14.86Z" class="MsftOfcResponsive_Fill_7823dc" fill="#7823DC"/><path d="M13.77 6.24 13.35 4.28C8.8 5.27 5.04 9.34 4.21 14.18L6.18 14.52C6.88 10.46 10 7.05 13.77 6.23Z" class="MsftOfcResponsive_Fill_7823dc" fill="#7823DC"/><path d="M27 22 27 17.56 31.84 17.56 31.84 16.56C31.84 11.4 29.59 6.63 25.67 3.47 21.91 0.45 17.24-0.65 12.49 0.38 6.3 1.72 1.38 7 0.26 13.51-0.63 18.67 0.77 23.83 4.1 27.66L4.4 28 8.14 28C8.63 30.3 10.67 32.04 13.12 32.04 15.57 32.04 17.61 30.31 18.1 28L25 28 25 32 26.58 32C29.61 32 32.07 29.46 32.07 26.33L32.07 22 27 22ZM30.07 24 30.07 26 27 26 27 24 30.07 24ZM25 22 22.4 22 22.4 19.73C22.4 18.53 23.32 17.56 24.44 17.56L25 17.56 25 22ZM13.12 30.04C11.41 30.04 10.03 28.65 10.03 26.95 10.03 25.25 11.42 23.86 13.12 23.86 14.82 23.86 16.21 25.25 16.21 26.95 16.21 28.65 14.82 30.04 13.12 30.04ZM20.18 26 18.12 26C17.68 23.64 15.61 21.85 13.12 21.85 10.63 21.85 8.57 23.64 8.12 26L5.32 26C2.59 22.66 1.47 18.26 2.23 13.84 3.22 8.13 7.51 3.51 12.92 2.33 17.06 1.43 21.14 2.39 24.41 5.02 27.61 7.6 29.54 11.4 29.81 15.56L24.44 15.56C22.21 15.56 20.4 17.43 20.4 19.73L20.4 26 20.18 26ZM22.4 26 22.4 24 25 24 25 26 22.4 26ZM27 29.97 27 28 29.67 28C29.15 29.06 28.17 29.83 27 29.97Z" class="MsftOfcResponsive_Fill_7823dc" fill="#7823DC"/></svg>