<svg viewBox="0 0 32 32" xmlns="http://www.w3.org/2000/svg" xmlns:xlink="http://www.w3.org/1999/xlink" id="Layer_1" overflow="hidden"><style>
.MsftOfcResponsive_Fill_7823dc {
 fill:#7823DC; 
}
</style>
<path d="M30 25.2 30 29.2 2 29.2 2 25.2 30 25.2M32 23.2 0 23.2 0 31.2 32 31.2 32 23.2 32 23.2Z" class="MsftOfcResponsive_Fill_7823dc" fill="#7823DC"/><g><rect x="2" y="30.3" width="28" height="1.7" class="MsftOfcResponsive_Fill_7823dc" fill="#7823DC"/></g><path d="" class="st0 MsftOfcResponsive_Fill_7823dc" stroke="#000000" stroke-width="2" stroke-miterlimit="10" fill="#7823DC"/><g><path d="M19.2 21.9 19.2 23.1 12.8 23.1 12.8 21.9 19.2 21.9M21.2 19.9 10.8 19.9 10.8 25.1 21.2 25.1 21.2 19.9 21.2 19.9Z" class="MsftOfcResponsive_Fill_7823dc" fill="#7823DC"/><g><path d="M16 0C13.2 0 11 2.3 11 5L11 5.1 11 5.1C11 5.2 11 5.2 11 5.3L11 5.6C11.2 7.1 12.1 8.5 13.3 9.3L13 5.4 13 5C13 3.3 14.4 2 16 2 17.7 2 19.1 3.4 19.1 5L19.1 5.4 18.8 9.3C20 8.5 20.8 7.2 21 5.7L21 5.4 21 5.2 21 5C21.1 2.3 18.8 0 16 0Z" class="MsftOfcResponsive_Fill_7823dc" fill="#7823DC"/><path d="M14.2 20.1 12.2 20.3 11 5.7 11 5.3 11 5.1 11 5.1 12.9 5 12.9 5 13 5.4 13.3 9.3Z" class="MsftOfcResponsive_Fill_7823dc" fill="#7823DC"/><path d="" class="st1 MsftOfcResponsive_Fill_7823dc" stroke="#000000" stroke-width="2" stroke-miterlimit="10" fill="#7823DC"/><path d="M21 5.1 21 5.3 21 5.7 19.8 20.3 17.8 20.1 18.7 9.3 19.1 5.4 19.1 5 19.1 5Z" class="MsftOfcResponsive_Fill_7823dc" fill="#7823DC"/></g></g></svg>