<svg viewBox="0 0 32 32" xmlns="http://www.w3.org/2000/svg" xmlns:xlink="http://www.w3.org/1999/xlink" id="Graphic" xml:space="preserve" overflow="hidden"><path d="M15.2 0C15 0 14.8 0 14.6 0 14.4 0 14.2 0 14 0 6.3 0.3 0.1 6.7 0.1 14.5 0.1 20.2 3.4 25.1 8.2 27.5L9.6 26C5.4 24.2 2.4 20.2 2 15.4 2 15.1 2 14.8 2 14.4 2 14.1 2 13.8 2 13.4 2.4 8 6.3 3.5 11.4 2.2 12.3 2 13.3 1.8 14.3 1.8 14.4 1.8 14.5 1.8 14.6 1.8 14.7 1.8 14.8 1.8 14.9 1.8 15.9 1.8 16.8 2 17.8 2.2 21.9 3.3 25.3 6.4 26.6 10.5L28.6 10.5C26.9 4.7 21.6 0.3 15.2 0ZM25.7 20.4C24.1 23.5 21.2 25.8 17.8 26.7 16.9 26.9 15.9 27.1 14.9 27.1 14.8 27.1 14.7 27.1 14.6 27.1 14.5 27.1 14.4 27.1 14.3 27.1 14.2 27.1 14 27.1 13.9 27.1L12.7 28.3 12.2 28.8C12.8 28.9 13.4 29 14.1 29 14.3 29 14.5 29 14.7 29 14.9 29 15.1 29 15.3 29 22.1 28.7 27.7 23.8 28.9 17.3L25.7 20.4Z" fill="#7823DC"/><path d="M24.4 16.4 1 16.4 1 14.5 26.4 14.5" fill="#7823DC"/><path d="M11.1 13.5 9.1 13.5C9.1 13.8 9.1 14.1 9.1 14.5 9.1 14.8 9.1 15.1 9.1 15.5L11 15.5C11 15.2 11 14.9 11 14.5 11 14.2 11 13.9 11.1 13.5ZM14.3 1.9C13.3 1.9 12.4 2.1 11.4 2.3 10 4.9 9.2 9.2 9.1 13.5 9.1 13.8 9.1 14.1 9.1 14.5 9.1 14.8 9.1 15.1 9.1 15.5 9.2 19 9.7 22.5 10.7 25L12.2 23.5C11.6 21.5 11.1 18.8 11.1 15.5 11.1 15.2 11.1 14.9 11.1 14.5 11.1 14.2 11.1 13.9 11.1 13.5 11.2 6.9 12.9 2.5 14.3 1.9ZM18.9 16.6 19.9 17.6C19.9 16.9 20 16.1 20 15.4 20 15.1 20 14.8 20 14.4 20 14.1 20 13.8 20 13.4 20 9.2 19.2 4.9 17.8 2.3 17.1 1 16.2 0.2 15.2 0 15 0 14.8-0.1 14.6-0.1 14.4-0.1 14.2 0 14 0 13 0.2 12.1 1.1 11.4 2.3 10 4.9 9.2 9.2 9.1 13.5 9.1 13.8 9.1 14.1 9.1 14.5 9.1 14.8 9.1 15.1 9.1 15.5 9.2 19 9.7 22.5 10.7 25L12.2 23.5C11.6 21.5 11.1 18.8 11.1 15.5 11.1 15.2 11.1 14.9 11.1 14.5 11.1 14.2 11.1 13.9 11.1 13.5 11.2 6.8 13 2.5 14.3 1.9 14.4 1.9 14.5 1.8 14.6 1.8 14.7 1.8 14.8 1.8 14.9 1.9 16.3 2.5 18 6.8 18.1 13.5 18.1 13.8 18.1 14.1 18.1 14.5 18.1 14.8 18.1 15.1 18.1 15.5M19 21.9 16.8 24.1C16.2 25.8 15.5 26.8 14.9 27.1 14.8 27.1 14.7 27.2 14.6 27.2 14.5 27.2 14.4 27.2 14.3 27.1 14.2 27.1 14.1 27 14 26.9L13.9 27 12.7 28.2C13.1 28.6 13.6 27.9 14 28 14.2 28.1 14.4 28.1 14.6 28.1 14.8 28.1 15 28.1 15.2 28 16.2 27.8 17.1 27.9 17.8 26.6 18.5 25.4 19 23.9 19.4 22.2L19 21.9ZM11.4 2.3C10 4.9 9.2 9.2 9.1 13.5 9.1 13.8 9.1 14.1 9.1 14.5 9.1 14.8 9.1 15.1 9.1 15.5L11 15.5C11 15.2 11 14.9 11 14.5 11 14.2 11 13.9 11 13.5 11.1 6.8 12.9 2.5 14.2 1.9 13.3 2 12.4 2.1 11.4 2.3Z" fill="#7823DC"/><path d="M32 11.6 32 17.1 30.2 18.8 30.2 14.6 21.6 23.1 19 20.5 8.7 30.9 6.2 30.9 19 18 21.6 20.6 28.9 13.4 24.6 13.4 26.4 11.6Z" fill="#7823DC"/></svg>