<svg viewBox="0 0 32 32" xmlns="http://www.w3.org/2000/svg" xmlns:xlink="http://www.w3.org/1999/xlink" id="Layer_1" overflow="hidden"><style>
.MsftOfcResponsive_Fill_7823dc {
 fill:#7823DC; 
}
</style>
<g><path d="M8.9 21.2 7 20.7 8.1 16.6 9.2 9.7 14 9.8 19.5 11.2 21.7 9.4 22.9 11 19.9 13.4 13.6 11.7 10.9 11.7 10 17Z" class="MsftOfcResponsive_Fill_7823dc" fill="#7823DC"/><path d="M5.4 9.1 1.6 7 2.3 5.2 5.3 6.9 8.7 4.6 11.3 3.9 11.2 0.8 12.9 0.7 13.1 5.5 9.2 6.5Z" class="MsftOfcResponsive_Fill_7823dc" fill="#7823DC"/><path d="M18 19 18 19C18 19 18 19 18 19L18 19ZM11.7 0C5.2 0 0 5.2 0 11.7 0 18.2 5.2 23.4 11.7 23.4 12.3 23.4 12.9 23.4 13.5 23.3 14.3 23.2 15.1 23 15.8 22.7 16 22.2 16.3 21.6 16.5 21.2L16.8 22.3C17.4 22 18 21.6 18.6 21.2L18 19C17.5 19.5 16.9 19.9 16.3 20.2 15.7 20.5 15 20.8 14.3 21 13.5 21.2 12.6 21.4 11.7 21.4 10.7 21.4 9.8 21.3 9 21 8.4 20.8 7.8 20.6 7.2 20.2 4.2 18.6 2.1 15.4 2.1 11.7 2.1 10.3 2.4 8.9 3 7.7L3 7.7C3.3 7.1 3.6 6.6 3.9 6.1 5.6 3.8 8.3 2.2 11.3 2.1 11.5 2.1 11.6 2.1 11.8 2.1 12.2 2.1 12.7 2.1 13.1 2.2 17.2 2.7 20.6 5.9 21.3 9.9 21.4 10.5 21.5 11.1 21.5 11.8 21.5 12 21.5 12.2 21.5 12.3 21.5 13 21.3 13.7 21.1 14.4 20.9 15.1 20.6 15.7 20.3 16.4 20.3 16.5 20.2 16.5 20.2 16.6 19.8 17 19.4 17.6 19 18 19.4 17.6 19.9 17.3 20.3 17L20.9 18.8C21.4 18.1 21.9 17.4 22.3 16.6L22.1 16C22.3 15.9 22.5 15.8 22.6 15.8 22.9 15.1 23.1 14.3 23.2 13.5 23.3 12.9 23.3 12.3 23.3 11.7 23.4 5.2 18.1 0 11.7 0ZM18 19 18 19C18 19 18 19 18 19L18 19ZM18 19 18 19C18 19 18 19 18 19L18 19ZM20.1 16.5C19.8 17 19.4 17.6 19 18 19.4 17.6 19.9 17.3 20.3 17L20.1 16.5ZM18 19 18 19C18 19 18 19 18 19L18 19Z" class="MsftOfcResponsive_Fill_7823dc" fill="#7823DC"/></g><g><path d="M26.9 13C25.6 13 24.4 13.2 23.2 13.5 22.4 13.7 21.7 14 21 14.3 18.1 15.7 15.7 18.1 14.3 21 14 21.7 13.7 22.5 13.5 23.2 13.2 24.4 13 25.6 13 26.9L13 32 18.1 32C25.8 32 32 25.8 32 18.1L32 13 26.9 13ZM26 27C25.4 27.6 24.7 28.1 23.9 28.5 22.2 29.5 20.2 30 18 30L15 30 15 26.9C15 25.4 15.3 23.9 15.8 22.6 16 22.1 16.3 21.5 16.5 21.1 16.9 20.4 17.4 19.7 18 19 18 19 18 19 18 19 18 19 18 19 18 19 18.3 18.7 18.6 18.4 18.9 18.1 19.3 17.7 19.8 17.4 20.2 17.1 20.8 16.7 21.4 16.4 22 16.1 22.2 16 22.4 15.9 22.5 15.9 23.8 15.4 25.3 15.1 26.8 15.1L30 15.1 30 18.2C30 19.8 29.7 21.4 29.1 22.8 28.8 23.4 28.5 24 28.1 24.6 27.5 25.4 26.8 26.2 26 27Z" class="MsftOfcResponsive_Fill_7823dc" fill="#7823DC"/><rect x="11.7" y="21" width="22.6" height="2" class="MsftOfcResponsive_Fill_7823dc" fill="#7823DC" transform="matrix(0.7071 -0.7071 0.7071 0.7071 -8.8198 22.7071)"/><path d="M20 25.7 18 26.3 17.9 25.7 16.9 22.2 16.5 21.1 16.3 20.2 16 19.3 18 18.7 18 19 18 19 18.6 21.1 19.5 24.1 19.8 25.2Z" class="MsftOfcResponsive_Fill_7823dc" fill="#7823DC"/><path d="M24 21.7 22 22.3 21.8 21.7 20.9 18.9 20.3 17 20.1 16.5 20 16.3 20.2 16.3 22 15.7 22.3 16.6 23.4 20.1 23.8 21.2Z" class="MsftOfcResponsive_Fill_7823dc" fill="#7823DC"/><rect x="21.5" y="23.4" width="2" height="7.3" class="MsftOfcResponsive_Fill_7823dc" fill="#7823DC" transform="matrix(0.2747 -0.9615 0.9615 0.2747 -9.6424 41.2168)"/><rect x="25.5" y="19.4" width="2" height="7.3" class="MsftOfcResponsive_Fill_7823dc" fill="#7823DC" transform="matrix(0.2747 -0.9615 0.9615 0.2747 -2.8952 42.1618)"/></g></svg>