<svg viewBox="0 0 32 32" xmlns="http://www.w3.org/2000/svg" xmlns:xlink="http://www.w3.org/1999/xlink" id="Layer_1" overflow="hidden"><g><path d="M5.4 0C2.5 0 0.1 2.3 0 5.2 0 5.3 0 5.3 0 5.4 0 6.1 0.3 7 0.8 8 1.8 10.1 3.5 12.5 4.6 13.9 4.6 13.9 4.6 13.9 4.6 13.9 5.1 14.6 5.4 15 5.4 15 5.4 15 5.9 14.4 6.5 13.5 8.1 11.4 10.7 7.4 10.7 5.3 10.8 2.4 8.4 0 5.4 0ZM5.8 11.2C5.7 11.4 5.6 11.6 5.4 11.7 4.1 9.9 3 8 2.4 6.7 2.1 6.2 2 5.7 2 5.4 2 3.5 3.5 2 5.4 2 7.3 2 8.8 3.5 8.8 5.4 8.8 6.4 7.4 8.8 5.8 11.2Z" fill="#7823DC"/><path d="M5.4 3C3.9 3 2.8 4.2 2.8 5.6 2.8 7 3.9 8.2 5.4 8.2 6.8 8.2 8 7 8 5.6 7.9 4.2 6.8 3 5.4 3ZM5.4 6.1C5 6.1 4.8 5.9 4.8 5.6 4.8 5.2 5 5 5.4 5 5.7 5 6 5.2 6 5.6 5.9 5.9 5.7 6.1 5.4 6.1Z" fill="#7823DC"/></g><g><path d="M23.2 26C24.3 26 25.2 26.9 25.2 28 25.2 29.1 24.3 30 23.2 30 22.1 30 21.2 29.1 21.2 28 21.2 26.9 22.1 26 23.2 26M23.2 24C21 24 19.2 25.8 19.2 28 19.2 30.2 21 32 23.2 32 25.4 32 27.2 30.2 27.2 28 27.2 25.8 25.4 24 23.2 24L23.2 24Z" fill="#7823DC"/><rect x="22.2" y="18" width="2" height="7" fill="#7823DC"/><path d="M24.2 14.4 27.8 16.4 24.2 18.4 24.2 14.4M22.2 11 22.2 21.7 32 16.4 22.2 11 22.2 11Z" fill="#7823DC"/></g><path d="M19.7 29C7.5 25.5 4.9 24.3 5 21.9 5.2 19.4 9.2 18.6 13.1 17.7 14.2 17.5 15.6 17.2 16.5 16.9 14.8 16.2 10.4 15.1 5.4 14.9L5.5 12.9C5.6 12.9 18.7 13.6 19 16.8 19.1 18.4 17 18.9 13.5 19.6 11.6 20 7 21 7 21.9 6.9 23.1 16.6 25.8 20.3 26.9L19.7 29Z" fill="#7823DC"/></svg>