<svg viewBox="0 0 32 32" xmlns="http://www.w3.org/2000/svg" xmlns:xlink="http://www.w3.org/1999/xlink" id="Layer_1" xml:space="preserve" overflow="hidden"><g><path d="M19.6 0.5 19.7 0.5 19.7 0.6 19.6 0.6 19.6 0.5Z" fill="#7823DC" fill-rule="evenodd" clip-rule="evenodd"/><path d="M22 20C23 20.8 23.5 21.8 23.5 23 23.5 24.3 23 25.3 21.7 26 20.9 26.8 19.9 27 18.7 27 16.4 27 14.9 26 13.7 24.2 15.2 22.9 15.2 22.9 15.2 22.9 16 24.4 17.2 25.2 18.7 25.2 19.7 25.2 20.2 24.9 20.7 24.4 21 23.9 21.2 23.6 21.2 22.9 21.2 22.4 20.9 21.6 20.2 21.4 19.9 21.1 19.2 20.9 18.2 20.4 16.4 19.9 15.4 19.4 14.7 18.9 13.4 18.1 12.7 17.1 12.7 15.6 12.7 14.1 13.7 13.1 15.2 12.3 14.4 11.5 13.9 10.5 13.9 9.3 13.9 8 14.4 7 15.4 6.3 16.4 5.5 17.4 5.3 18.4 5.3 20.7 5.3 22.4 6.1 23.4 7.8 22 9.3 22 9.3 22 9.3 21 8 20 7.3 18.5 7.3 17.7 7.3 17 7.6 16.5 8.1 16.2 8.6 16 8.9 16 9.4 16 10.2 16.5 10.9 17 11.2 17.5 11.5 18.3 11.7 19.3 12.2 20.8 12.7 22.1 13 22.6 13.5 24.1 14.3 24.6 15.5 24.6 17 24.5 18.3 23.7 19.3 22 20L22 20ZM20.2 19C21.7 18.7 22.2 18 22.2 16.7 22.2 15.9 21.7 15.2 20.4 14.7 19.6 14.2 18.4 13.9 16.9 13.4 15.6 13.7 14.9 14.4 14.9 15.7 14.9 16.5 15.4 17.2 16.4 17.7 17.2 18 18.4 18.5 20.2 19L20.2 19Z" fill="#7823DC" fill-rule="evenodd" clip-rule="evenodd"/><path d="M7.3 0 3.3 4.8 3.3 32 28.7 32 28.7 0 7.3 0 7.3 0 7.3 0 7.3 0ZM9.6 2.5 9.6 7 5.3 7 5.3 2.5 9.6 2.5 9.6 2.5 9.6 2.5 9.6 2.5ZM26.4 29.8 5.3 29.8 5.3 9.3 11.6 9.3 11.6 2.5 26.4 2.5 26.4 29.8 26.4 29.8 26.4 29.8 26.4 29.8Z" fill="#7823DC" fill-rule="evenodd" clip-rule="evenodd"/></g></svg>