<svg viewBox="0 0 32 32" xmlns="http://www.w3.org/2000/svg" xmlns:xlink="http://www.w3.org/1999/xlink" id="Layer_1" overflow="hidden"><style>
.MsftOfcResponsive_Fill_7823dc {
 fill:#7823DC; 
}
</style>
<defs></defs><path d="M32 10 32 0 8 0 8 4 0 4 0 32 27.99 32 29.99 30 2 30 2 6 8 6 8 10 11.2 10 14.64 13.62 16.93 10 22 10 22 27.97 24 25.97 24 18 30 18 30 29.99 32 27.99 32 16 24 16 24 10 32 10ZM15.83 8 14.32 10.38 12.05 8 10 8 10 2 30 2 30 8 15.83 8Z" class="MsftOfcResponsive_Fill_7823dc" fill="#7823DC"/><path d="M5.37 18.05 4.02 18.05 4.02 21.84 5.08 21.84 5.08 19.57 6.35 21.84 7.5 21.84 7.5 18.05 6.44 18.05 6.44 20.05 5.37 18.05Z" class="MsftOfcResponsive_Fill_7823dc" fill="#7823DC"/><path d="M10.92 18.97 10.92 18.05 8.22 18.05 8.22 21.84 11 21.84 11 20.92 9.42 20.92 9.42 20.35 10.61 20.35 10.61 19.51 9.42 19.51 9.42 18.97 10.92 18.97Z" class="MsftOfcResponsive_Fill_7823dc" fill="#7823DC"/><path d="M14.4 18.05 13.35 18.05 12.9 20.31 12.46 18.05 11.25 18.05 12.13 21.84 13.33 21.84 13.86 19.58 14.4 21.84 15.61 21.84 16.49 18.05 15.38 18.05 14.92 20.34 14.4 18.05Z" class="MsftOfcResponsive_Fill_7823dc" fill="#7823DC"/><path d="M18.3 21.06C17.91 21.06 17.79 20.86 17.77 20.62L16.63 20.62C16.66 21.47 17.23 21.91 18.3 21.91 19.37 21.91 19.87 21.33 19.87 20.62 19.87 19.78 19.34 19.53 18.38 19.43 17.96 19.38 17.85 19.29 17.85 19.11 17.85 18.95 17.98 18.83 18.23 18.83 18.48 18.83 18.62 18.96 18.65 19.2L19.76 19.2C19.7 18.37 19.17 17.99 18.23 17.99 17.29 17.99 16.71 18.5 16.71 19.2 16.71 19.98 17.08 20.3 18.18 20.42 18.59 20.48 18.72 20.54 18.72 20.74 18.72 20.93 18.58 21.05 18.3 21.05Z" class="MsftOfcResponsive_Fill_7823dc" fill="#7823DC"/><rect x="15" y="4" width="2" height="2" class="MsftOfcResponsive_Fill_7823dc" fill="#7823DC"/><rect x="19" y="3.97" width="2" height="2" class="MsftOfcResponsive_Fill_7823dc" fill="#7823DC"/><rect x="23" y="3.97" width="2" height="2" class="MsftOfcResponsive_Fill_7823dc" fill="#7823DC"/></svg>