<svg viewBox="0 0 29.22 29.22" xmlns="http://www.w3.org/2000/svg" xmlns:xlink="http://www.w3.org/1999/xlink" xml:space="preserve" overflow="hidden"><g id="Layer_3"></g><g id="Layer_1"></g><g id="Layer_2"></g><g id="Layer_4"></g><g id="Layer_5"><g><path d="M29.25 25.22 29.54 24.93 24.84 29.62 25.29 29.17Z" fill="#7823DC"/><path d="M-0.04 29.22 25.25 29.22 29.21 25.27 29.21 0.05-0.04 0.05-0.04 29.22ZM1.96 2.04 27.21 2.04 27.21 27.22 1.96 27.22 1.96 2.04Z" fill="#7823DC"/><path d="M25.22 24.82 4.05 24.82 4.05 12.15 25.22 12.15 25.22 24.82ZM6.05 22.82 23.22 22.82 23.22 14.15 6.05 14.15 6.05 22.82Z" fill="#7823DC"/><rect x="4.04" y="4.14" width="2" height="2" fill="#7823DC"/><rect x="10.41" y="4.14" width="2" height="2" fill="#7823DC"/><rect x="16.78" y="4.14" width="2" height="2" fill="#7823DC"/><rect x="23.15" y="4.14" width="2" height="2" fill="#7823DC"/><rect x="4.04" y="8.16" width="21.2" height="1.99" fill="#7823DC"/></g></g></svg>