<svg viewBox="0 0 32.21 31.88" xmlns="http://www.w3.org/2000/svg" xmlns:xlink="http://www.w3.org/1999/xlink" id="Outline_Final_icon" overflow="hidden"><defs></defs><g><rect x="13.62" y="10.1" width="2" height="7.53" fill="#7823DC"/><path d="M5.67 17.63 7.74 17.63 8.14 16.11 10.36 16.11 10.76 17.63 12.83 17.63 10.85 10.1 7.69 10.1 5.68 17.63ZM9.22 12.1 9.31 12.1 9.84 14.11 8.68 14.11 9.22 12.1Z" fill="#7823DC"/></g><path d="M16.96 20.52C16.96 22.6 18.66 24.3 20.74 24.3 22.82 24.3 24.52 22.6 24.52 20.52 24.52 18.44 22.82 16.74 20.74 16.74 18.66 16.74 16.96 18.44 16.96 20.52ZM22.52 20.52C22.52 21.5 21.72 22.3 20.74 22.3 19.76 22.3 18.96 21.5 18.96 20.52 18.96 19.54 19.76 18.74 20.74 18.74 21.72 18.74 22.52 19.54 22.52 20.52Z" fill="#7823DC"/><path d="M6.39 24.5 6.39 22.79 14.88 22.79 14.88 20.79 2 20.79 2 6.84 19.29 6.84 19.29 14.76 21.29 14.76 21.29 4.84 17.32 4.84 17.32 3.2C17.78 2.88 18.08 2.36 18.08 1.76 18.08 0.79 17.29 2.22045e-16 16.32 2.22045e-16 15.35 2.22045e-16 14.56 0.79 14.56 1.76 14.56 2.36 14.86 2.88 15.32 3.2L15.32 4.84 12.33 4.84 12.33 2.81 10.33 2.81 10.33 4.84 6.39 4.84 6.39 3.2C6.85 2.88 7.15 2.36 7.15 1.76 7.15 0.79 6.36 2.22045e-16 5.39 2.22045e-16 4.42 2.22045e-16 3.63 0.79 3.63 1.76 3.63 2.36 3.93 2.88 4.39 3.2L4.39 4.84 0 4.84 0 22.79 4.39 22.79 4.39 24.5C3.93 24.82 3.63 25.34 3.63 25.94 3.63 26.91 4.42 27.7 5.39 27.7 6.36 27.7 7.15 26.91 7.15 25.94 7.15 25.34 6.85 24.82 6.39 24.5Z" fill="#7823DC"/><path d="M29.6 18.93 32.21 15.86 29.62 11.94 25.23 12.67 23.21 11.48 22.2 13.21 24.84 14.76 28.67 14.12 29.71 15.71 27.58 18.22 27.65 21.31 29.56 23.74 28.98 25.86 25.34 25.25 22.75 26.47 21.3 29.88 19.67 29.88 18.12 26.85 15.89 25.23 12.49 25.87 11.91 23.89 9.99 24.46 11.09 28.17 15.41 27.35 16.55 28.19 18.44 31.88 22.62 31.88 24.29 27.96 25.63 27.33 30.43 28.12 31.75 23.3 29.63 20.6 29.6 18.93Z" fill="#7823DC"/></svg>