<svg width="32" height="32" viewBox="0 0 32 32" xmlns="http://www.w3.org/2000/svg" xmlns:xlink="http://www.w3.org/1999/xlink" overflow="visible"><defs></defs><path d="M18.9 2.3 21 5.9 18.9 9.5 14.7 9.5 12.6 5.9 14.7 2.3 18.9 2.3M20.3 0 13.4 0 10 5.9 13.4 11.8 20.3 11.8 23.7 5.9 20.3 0 20.3 0Z" fill="#7823DC"/><path d="M27.2 7.5 29.3 11.1 27.2 14.7 23 14.7 21 11.1 23 7.5 27.2 7.5M28.6 5.2 21.7 5.2 18.3 11.1 21.7 17 28.6 17 32 11.1 28.6 5.2 28.6 5.2Z" fill="#7823DC"/><path d="M16.4 20.6C17.1 20.6 17.7 21.2 17.7 21.9 17.7 22.6 17.1 23.2 16.4 23.2 15.7 23.2 15.1 22.6 15.1 21.9 15.1 21.2 15.7 20.6 16.4 20.6M16.4 18.6C14.6 18.6 13.1 20.1 13.1 21.9 13.1 23.7 14.6 25.2 16.4 25.2 18.2 25.2 19.7 23.7 19.7 21.9 19.7 20 18.2 18.6 16.4 18.6L16.4 18.6Z" fill="#7823DC"/><path d="M23.4 27.4C24.1 27.4 24.7 28 24.7 28.7 24.7 29.4 24.1 30 23.4 30 22.7 30 22 29.5 22 28.7 22 28 22.6 27.4 23.4 27.4M23.4 25.4C21.6 25.4 20.1 26.9 20.1 28.7 20.1 30.5 21.6 32 23.4 32 25.2 32 26.7 30.5 26.7 28.7 26.7 26.9 25.2 25.4 23.4 25.4L23.4 25.4Z" fill="#7823DC"/><path d="M3.3 2C4 2 4.6 2.6 4.6 3.3 4.6 4 4.1 4.7 3.3 4.7 2.5 4.7 2 4.1 2 3.3 2 2.5 2.6 2 3.3 2M3.3 0C1.5 0 0 1.5 0 3.3 0 5.1 1.5 6.6 3.3 6.6 5.1 6.6 6.6 5.1 6.6 3.3 6.7 1.5 5.2 0 3.3 0L3.3 0Z" fill="#7823DC"/><rect x="17" y="17.1" width="6.2" height="2" fill="#7823DC" transform="matrix(0.7071 -0.7071 0.7071 0.7071 -6.9318 19.5494)"/><rect x="7.4" y="1.7" width="2" height="6.2" fill="#7823DC" transform="matrix(0.3566 -0.9343 0.9343 0.3566 0.926 10.9975)"/><rect x="19.1" y="22.8" width="2" height="5" fill="#7823DC" transform="matrix(0.6925 -0.7214 0.7214 0.6925 -12.0747 22.2423)"/></svg>