<svg viewBox="0 0 32 32" xmlns="http://www.w3.org/2000/svg" xmlns:xlink="http://www.w3.org/1999/xlink" overflow="hidden"><defs></defs><g><g id="Layer_1"><g id="Layer_1-2"><path d="M17.3 4 20.4 1.7 21.6 3.2 18.6 5.6 17.3 4 17.3 4Z" fill="#7823DC" fill-rule="evenodd"/><path d="M10.2 3.2 11.5 1.7 14.5 4 13.3 5.6 10.2 3.2 10.2 3.2Z" fill="#7823DC" fill-rule="evenodd"/><path d="M14.9 0 16.8 0 16.9 3.7 14.9 3.7 14.9 0 14.9 0Z" fill="#7823DC" fill-rule="evenodd"/></g><g id="Layer_2"><path d="M25 5.1C23 5.1 21.4 6.7 21.4 8.7 21.4 10.7 23 12.3 25 12.3 27 12.3 28.6 10.7 28.6 8.7 28.6 6.7 26.9 5.1 25 5.1ZM25 10.4C24.1 10.4 23.3 9.6 23.3 8.7 23.3 7.8 24 7 25 7 26 7 26.7 7.8 26.7 8.7 26.7 9.6 25.9 10.4 25 10.4Z" fill="#7823DC"/><path d="M6.6 4.6C4.6 4.6 3 6.2 3 8.2 3 10.2 4.6 11.8 6.6 11.8 8.6 11.8 10.2 10.2 10.2 8.2 10.2 6.2 8.5 4.6 6.6 4.6ZM6.6 9.8C5.7 9.8 4.9 9 4.9 8.1 4.9 7.2 5.7 6.4 6.6 6.4 7.5 6.4 8.3 7.1 8.3 8.1 8.3 9.1 7.5 9.8 6.6 9.8Z" fill="#7823DC"/><path d="M24.1 32 22 32 20 22.7 21.2 15.6 16 9.9 10.8 15.6 11.8 22.6 10 32 7.9 32 9.8 22.6 8.7 14.9 16 6.9 23.3 14.9 22.1 22.6 24.1 32Z" fill="#7823DC"/></g><path d="M30 33.2 24 22.3 25.2 15.4 30.1 11.8 30.1 6.5 32.1 6.5 32.1 12.8 27 16.6 26 22 31.7 32.2 30 33.2Z" fill="#7823DC"/><path d="M2.2 33.2 8.2 22.3 6.9 15.4 2 11.8 2 6.5 0 6.5 0 12.8 5.1 16.6 6.1 22 0.4 32.2 2.2 33.2Z" fill="#7823DC"/></g></g></svg>