<svg viewBox="0 0 31.95 31.72" xmlns="http://www.w3.org/2000/svg" xmlns:xlink="http://www.w3.org/1999/xlink" id="Grid" overflow="hidden"><defs></defs><path d="M29.26 17.92 20.7 20.61 20.7 17.17 18.49 17.42 15.24 17.79 10.1 15.96 9.26 15.66 8.48 16.08 5.27 17.8 0 17.8 0 27.76 5.29 27.76 15.08 31.72 30.78 23.54 31.83 22.98 31.83 17.09 29.24 17.9 29.24 17.9ZM29.86 21.8 15 29.52 5.72 25.78 1.99 25.78 1.99 19.79 5.76 19.79 9.41 17.83 14.98 19.82 18.69 19.4 18.69 21.39 17.62 21.74 13.88 22.49 13.88 24.34 17.81 23.61 17.81 23.61C17.81 23.61 29.85 19.82 29.85 19.82L29.85 21.81 29.85 21.81Z" fill="#7823DC"/><path d="M30.05 2.87 22.69 13.96 22.69 13.96 17.5 7.64 16.15 6 18.72 6 22.52 10.63 29.54 0 31.95 0" fill="#7823DC" fill-rule="evenodd"/></svg>