<svg viewBox="0 0 32 32" xmlns="http://www.w3.org/2000/svg" xmlns:xlink="http://www.w3.org/1999/xlink" id="Layer_1" xml:space="preserve" overflow="hidden"><g><path d="M289.2-28 284.9-14.9 297.8 12.6 298.3 10.1 289.2-28 289.2-28Z" fill="#7823DC" fill-rule="evenodd" clip-rule="evenodd"/><path d="M306.4-28 297.2 10.1 297.8 12.6 310.7-14.9 306.4-28 306.4-28Z" fill="#7823DC" fill-rule="evenodd" clip-rule="evenodd"/><line x1="289.3" y1="-26" x2="306.4" y2="-26" stroke="#7823DC" stroke-width="3.7031" stroke-miterlimit="8" fill="none"/><g><defs><path d="M272 32 323.4 32 323.4-28 272-28 272 32Z" id="SVGID_1_" fill="#7823DC"/></defs><clipPath id="SVGID_00000138537579871578749850000010814723386425369016_"><use width="100%" height="100%" xlink:href="#SVGID_1_" overflow="visible"></use></clipPath><line x1="297.9" y1="30.1" x2="297.9" y2="5.7" stroke="#7823DC" stroke-width="3.7031" stroke-miterlimit="8" fill="none" clip-path="url(#SVGID_00000138537579871578749850000010814723386425369016_)"/><g clip-path="url(#SVGID_00000138537579871578749850000010814723386425369016_)"><defs><path d="M272 32 323.4 32 323.4-28 272-28 272 32Z" id="SVGID_00000097484159203941218480000012234122960897133971_" fill="#7823DC"/></defs><clipPath id="SVGID_00000068676652044633146020000004349740433864095914_"><use width="100%" height="100%" xlink:href="#SVGID_00000097484159203941218480000012234122960897133971_" overflow="visible"></use></clipPath><line x1="309.7" y1="17.4" x2="302.9" y2="17.4" stroke="#7823DC" stroke-width="3.7031" stroke-miterlimit="8" fill="none" clip-path="url(#SVGID_00000068676652044633146020000004349740433864095914_)"/><g clip-path="url(#SVGID_00000068676652044633146020000004349740433864095914_)"><defs><path d="M272 32 323.4 32 323.4-28 272-28 272 32Z" id="SVGID_00000024691314262835548070000014658702228907173310_" fill="#7823DC"/></defs><clipPath id="SVGID_00000031901410020195851490000016556615638241099953_"><use width="100%" height="100%" xlink:href="#SVGID_00000024691314262835548070000014658702228907173310_" overflow="visible"></use></clipPath><line x1="292.9" y1="17.4" x2="286.1" y2="17.4" stroke="#7823DC" stroke-width="3.7031" stroke-miterlimit="8" fill="none" clip-path="url(#SVGID_00000031901410020195851490000016556615638241099953_)"/><g clip-path="url(#SVGID_00000031901410020195851490000016556615638241099953_)"><defs><path d="M272 32 323.4 32 323.4-28 272-28 272 32Z" id="SVGID_00000078728370700342914400000015707012095285113241_" fill="#7823DC"/></defs><clipPath id="SVGID_00000001647576694845059470000016893080922162834848_"><use width="100%" height="100%" xlink:href="#SVGID_00000078728370700342914400000015707012095285113241_" overflow="visible"></use></clipPath><line x1="290.3" y1="-15.2" x2="287.2" y2="-15.2" stroke="#7823DC" stroke-width="3.7031" stroke-miterlimit="8" fill="none" clip-path="url(#SVGID_00000001647576694845059470000016893080922162834848_)"/><g clip-path="url(#SVGID_00000001647576694845059470000016893080922162834848_)"><defs><path d="M272 32 323.4 32 323.4-28 272-28 272 32Z" id="SVGID_00000083773323272718708630000008241393609105792945_" fill="#7823DC"/></defs><clipPath id="SVGID_00000178174390627941322820000010366749178515649945_"><use width="100%" height="100%" xlink:href="#SVGID_00000083773323272718708630000008241393609105792945_" overflow="visible"></use></clipPath><line x1="308" y1="-15.2" x2="304.6" y2="-15.2" stroke="#7823DC" stroke-width="3.7031" stroke-miterlimit="8" fill="none" clip-path="url(#SVGID_00000178174390627941322820000010366749178515649945_)"/><g clip-path="url(#SVGID_00000178174390627941322820000010366749178515649945_)"><defs><path d="M272 32 323.4 32 323.4-28 272-28 272 32Z" id="SVGID_00000122683420483598446400000002564535098843943308_" fill="#7823DC"/></defs><clipPath id="SVGID_00000116936846498904893350000016031925861550510767_"><use width="100%" height="100%" xlink:href="#SVGID_00000122683420483598446400000002564535098843943308_" overflow="visible"></use></clipPath><path d="M305.5-22.5 313.9-22.5C320.8-22.5 321-16.1 321-16.1 321.7-8.6 321.6 24.1 321.6 24.1L314.7 24.1" stroke="#7823DC" stroke-width="3.7031" stroke-miterlimit="8" fill="#7823DC" clip-path="url(#SVGID_00000116936846498904893350000016031925861550510767_)"/><g clip-path="url(#SVGID_00000116936846498904893350000016031925861550510767_)"><defs><path d="M272 32 323.4 32 323.4-28 272-28 272 32Z" id="SVGID_00000017503342818631442770000002733257895648920984_" fill="#7823DC"/></defs><clipPath id="SVGID_00000078733517516726897380000009262235089880282783_"><use width="100%" height="100%" xlink:href="#SVGID_00000017503342818631442770000002733257895648920984_" overflow="visible"></use></clipPath><path d="M279.5 24 273.9 24C273.9 24 273.7-8.7 274.5-16.2 274.5-16.2 274.5-22.6 281.6-22.6L288.9-22.6" stroke="#7823DC" stroke-width="3.7031" stroke-miterlimit="8" fill="#7823DC" clip-path="url(#SVGID_00000078733517516726897380000009262235089880282783_)"/><g clip-path="url(#SVGID_00000078733517516726897380000009262235089880282783_)"><defs><path d="M272 32 323.4 32 323.4-28 272-28 272 32Z" id="SVGID_00000062906023069349753740000009318974823054726835_" fill="#7823DC"/></defs><clipPath id="SVGID_00000093169504070480610380000001314789141326418608_"><use width="100%" height="100%" xlink:href="#SVGID_00000062906023069349753740000009318974823054726835_" overflow="visible"></use></clipPath><path d="M285.1-22.5C285.1-22.5 279.1-14.7 281-6.6L282.5-1.2C284 7.6 282.5 12.4 282.5 12.4L279.5 25.8C279.5 25.8 292.4 30.5 297.6 30.1 302.8 29.9 307.3 28.8 316.1 25.8L313.1 12.4C313.1 12.4 311.6 7.7 313.1-1.2L314.6-6.6C316.5-14.6 310.5-22.5 310.5-22.5" stroke="#7823DC" stroke-width="3.7031" stroke-miterlimit="8" fill="#7823DC" clip-path="url(#SVGID_00000093169504070480610380000001314789141326418608_)"/></g></g></g></g></g></g></g></g></g><g><path d="M11.4 0 9.2 7 16 21.6 16.3 20.3 11.4 0 11.4 0Z" fill="#7823DC" fill-rule="evenodd" clip-rule="evenodd"/><path d="M20.6 0 15.7 20.3 16 21.6 22.9 7 20.6 0 20.6 0Z" fill="#7823DC" fill-rule="evenodd" clip-rule="evenodd"/><rect x="11.5" y="0.1" width="9.2" height="2" fill="#7823DC"/><g><defs><path d="M2.3 32 29.7 32 29.7 0 2.3 0 2.3 32Z" id="SVGID_00000024001958928238959820000011537021756331963562_" fill="#7823DC"/></defs><clipPath id="SVGID_00000060737626086432982710000016636750406302467260_"><use width="100%" height="100%" xlink:href="#SVGID_00000024001958928238959820000011537021756331963562_" overflow="visible"></use></clipPath><rect x="15.1" y="18" width="2" height="13.1" fill="#7823DC" clip-path="url(#SVGID_00000060737626086432982710000016636750406302467260_)"/><g clip-path="url(#SVGID_00000060737626086432982710000016636750406302467260_)"><defs><path d="M2.3 32 29.7 32 29.7 0 2.3 0 2.3 32Z" id="SVGID_00000071525118191831818600000012903371538113157804_" fill="#7823DC"/></defs><clipPath id="SVGID_00000145031542197260344050000015072621228506024075_"><use width="100%" height="100%" xlink:href="#SVGID_00000071525118191831818600000012903371538113157804_" overflow="visible"></use></clipPath><rect x="18.8" y="23.2" width="3.6" height="2" fill="#7823DC" clip-path="url(#SVGID_00000145031542197260344050000015072621228506024075_)"/><g clip-path="url(#SVGID_00000145031542197260344050000015072621228506024075_)"><defs><path d="M2.3 32 29.7 32 29.7 0 2.3 0 2.3 32Z" id="SVGID_00000000191319908720769670000000783904172173124738_" fill="#7823DC"/></defs><clipPath id="SVGID_00000181052980398790218030000017836310749800165031_"><use width="100%" height="100%" xlink:href="#SVGID_00000000191319908720769670000000783904172173124738_" overflow="visible"></use></clipPath><rect x="9.8" y="23.2" width="3.6" height="2" fill="#7823DC" clip-path="url(#SVGID_00000181052980398790218030000017836310749800165031_)"/><g clip-path="url(#SVGID_00000181052980398790218030000017836310749800165031_)"><defs><path d="M2.3 32 29.7 32 29.7 0 2.3 0 2.3 32Z" id="SVGID_00000111886899998161165730000005106397831662585261_" fill="#7823DC"/></defs><clipPath id="SVGID_00000036234697810268909370000014893735346908947610_"><use width="100%" height="100%" xlink:href="#SVGID_00000111886899998161165730000005106397831662585261_" overflow="visible"></use></clipPath><rect x="10.4" y="5.8" width="1.7" height="2" fill="#7823DC" clip-path="url(#SVGID_00000036234697810268909370000014893735346908947610_)"/><g clip-path="url(#SVGID_00000036234697810268909370000014893735346908947610_)"><defs><path d="M2.3 32 29.7 32 29.7 0 2.3 0 2.3 32Z" id="SVGID_00000068646149837403236800000014663738353045440953_" fill="#7823DC"/></defs><clipPath id="SVGID_00000093877526447153955150000007451513235113390249_"><use width="100%" height="100%" xlink:href="#SVGID_00000068646149837403236800000014663738353045440953_" overflow="visible"></use></clipPath><rect x="19.7" y="5.8" width="1.8" height="2" fill="#7823DC" clip-path="url(#SVGID_00000093877526447153955150000007451513235113390249_)"/><g clip-path="url(#SVGID_00000093877526447153955150000007451513235113390249_)"><defs><path d="M2.3 32 29.7 32 29.7 0 2.3 0 2.3 32Z" id="SVGID_00000150791064386179715900000014401466405511222429_" fill="#7823DC"/></defs><clipPath id="SVGID_00000106851708279116663650000009147547905604509083_"><use width="100%" height="100%" xlink:href="#SVGID_00000150791064386179715900000014401466405511222429_" overflow="visible"></use></clipPath><path d="M29.7 28.7 25 28.7 25 26.7 27.7 26.7C27.7 23 27.7 9.7 27.4 6.3 27.4 5.8 27.2 3.8 24.6 3.8L20.1 3.8 20.1 1.8 24.6 1.8C28.3 1.8 29.3 4.6 29.4 6.1 29.8 10 29.7 26.9 29.7 27.6L29.7 28.7Z" fill="#7823DC" clip-path="url(#SVGID_00000106851708279116663650000009147547905604509083_)"/><g clip-path="url(#SVGID_00000106851708279116663650000009147547905604509083_)"><defs><path d="M2.3 32 29.7 32 29.7 0 2.3 0 2.3 32Z" id="SVGID_00000065055850204040368900000017414127051083653809_" fill="#7823DC"/></defs><clipPath id="SVGID_00000055701567061767648710000015532027518204164518_"><use width="100%" height="100%" xlink:href="#SVGID_00000065055850204040368900000017414127051083653809_" overflow="visible"></use></clipPath><path d="M6.3 28.7 2.3 28.7 2.3 27.7C2.3 27 2.2 10.1 2.6 6.2 2.6 5.1 3.5 1.9 7.4 1.9L11.3 1.9 11.3 3.9 7.4 3.9C4.7 3.9 4.6 6.1 4.6 6.3 4.3 9.7 4.3 23 4.3 26.8L6.3 26.8 6.3 28.7Z" fill="#7823DC" clip-path="url(#SVGID_00000055701567061767648710000015532027518204164518_)"/><g clip-path="url(#SVGID_00000055701567061767648710000015532027518204164518_)"><defs><path d="M2.3 32 29.7 32 29.7 0 2.3 0 2.3 32Z" id="SVGID_00000029732653665223119060000009876122476843293838_" fill="#7823DC"/></defs><clipPath id="SVGID_00000016769756544469737830000004368416619268564118_"><use width="100%" height="100%" xlink:href="#SVGID_00000029732653665223119060000009876122476843293838_" overflow="visible"></use></clipPath><path d="M15.6 32C12.6 32 6.7 29.9 6 29.6L5.2 29.3 7 21.3C7 21.2 7.7 18.8 7 14.4L6.2 11.6C5.1 6.9 8.4 2.5 8.5 2.3L10.1 3.5C10.1 3.5 7.2 7.4 8.1 11.1L8.8 14C9.6 19 8.8 21.7 8.8 21.8L7.4 28C9.7 28.8 14 30.1 15.8 29.9 18.2 29.8 20.4 29.3 24.6 27.9L23.2 21.6C23.2 21.6 22.4 18.9 23.2 14L23.2 13.9 24 11C24.9 7.3 22 3.4 22 3.4L23.6 2.2C23.7 2.4 27.1 6.8 26 11.5L25.2 14.4C24.5 18.8 25.2 21.1 25.2 21.2L27 29.3 26.2 29.6C21.2 31.3 18.9 31.8 16.1 31.9 15.9 32 15.7 32 15.6 32Z" fill="#7823DC" clip-path="url(#SVGID_00000016769756544469737830000004368416619268564118_)"/></g></g></g></g></g></g></g></g></g></svg>