<svg viewBox="0 0 32 32" xmlns="http://www.w3.org/2000/svg" xmlns:xlink="http://www.w3.org/1999/xlink" id="Layer_1" overflow="hidden"><style>
.MsftOfcResponsive_Fill_7823dc {
 fill:#7823DC; 
}
</style>
<path d="M18 24.1 18 30 14 30 14 24.1 18 24.1M20 22.1 12 22.1 12 32 20 32 20 22.1 20 22.1 20 22.1Z" class="MsftOfcResponsive_Fill_7823dc" fill="#7823DC"/><path d="M26 30 6 30 6 32 26 32 26 30 26 30Z" class="MsftOfcResponsive_Fill_7823dc" fill="#7823DC"/><path d="M6 13.5C4.4 13.5 3.2 12.2 3.2 10.7 3.2 9.2 4.4 7.8 6 7.8 7.6 7.8 8.8 9.1 8.8 10.6 8.8 12.1 7.6 13.5 6 13.5ZM6 9.8C5.5 9.8 5.2 10.2 5.2 10.6 5.2 11 5.6 11.4 6 11.4 6.4 11.4 6.8 11 6.8 10.6 6.8 10.2 6.5 9.8 6 9.8Z" class="MsftOfcResponsive_Fill_7823dc" fill="#7823DC"/><path d="M10.2 19.1C8.6 19.1 7.4 17.8 7.4 16.3 7.4 14.7 8.7 13.5 10.2 13.5 11.7 13.5 13 14.8 13 16.3 13 17.9 11.7 19.1 10.2 19.1ZM10.2 15.5C9.7 15.5 9.4 15.9 9.4 16.3 9.4 16.8 9.8 17.1 10.2 17.1 10.7 17.1 11 16.7 11 16.3 11 15.8 10.6 15.5 10.2 15.5Z" class="MsftOfcResponsive_Fill_7823dc" fill="#7823DC"/><path d="M20.2 20.4C18.6 20.4 17.4 19.1 17.4 17.6 17.4 16.1 18.7 14.8 20.2 14.8 21.7 14.8 23 16 23 17.5 23 19 21.7 20.4 20.2 20.4ZM20.2 16.7C19.7 16.7 19.4 17.1 19.4 17.5 19.4 17.9 19.8 18.3 20.2 18.3 20.6 18.3 21 18 21 17.5 21 17 20.6 16.7 20.2 16.7Z" class="MsftOfcResponsive_Fill_7823dc" fill="#7823DC"/><path d="M26.2 13C24.6 13 23.4 11.7 23.4 10.2 23.4 8.7 24.7 7.4 26.2 7.4 27.7 7.4 29 8.6 29 10.2 29 11.8 27.7 13 26.2 13ZM26.2 9.3C25.7 9.3 25.4 9.7 25.4 10.1 25.4 10.6 25.8 10.9 26.2 10.9 26.6 10.9 27 10.5 27 10.1 27 9.7 26.6 9.3 26.2 9.3Z" class="MsftOfcResponsive_Fill_7823dc" fill="#7823DC"/><path d="M30 2 30 22.1 2 22.1 2 2 30 2 28 0 0 0 0 24.1 32 24.1 32 4 30 2Z" class="MsftOfcResponsive_Fill_7823dc" fill="#7823DC"/><rect x="11" y="0" width="2" height="5" class="MsftOfcResponsive_Fill_7823dc" fill="#7823DC"/><rect x="15" y="0" width="2" height="5" class="MsftOfcResponsive_Fill_7823dc" fill="#7823DC"/><rect x="19" y="0" width="2" height="5" class="MsftOfcResponsive_Fill_7823dc" fill="#7823DC"/><rect x="7" y="0" width="2" height="5" class="MsftOfcResponsive_Fill_7823dc" fill="#7823DC"/><path d="M7.9 9.3 6.1 8.7 7 5.8 7 4 9 4 9 6.2Z" class="MsftOfcResponsive_Fill_7823dc" fill="#7823DC"/><path d="M11.9 14.3 10.1 13.7 11 10.8 11 4 13 4 13 11.2Z" class="MsftOfcResponsive_Fill_7823dc" fill="#7823DC"/><path d="M18.2 16.6 15 12.3 15 4 17 4 17 11.7 19.8 15.4Z" class="MsftOfcResponsive_Fill_7823dc" fill="#7823DC"/><path d="M24.6 10.9 19 8.7 19 4 21 4 21 7.3 25.4 9.1Z" class="MsftOfcResponsive_Fill_7823dc" fill="#7823DC"/></svg>