<svg viewBox="0 0 32 32" xmlns="http://www.w3.org/2000/svg" xmlns:xlink="http://www.w3.org/1999/xlink" overflow="hidden"><defs></defs><g id="Layer_3"><path d="M23.6025 30.0059 8.39746 30.0059 5 23.5811 5 9.8418 10.5723 4.00586 21.4277 4.00586 27 9.8418 27 23.5811ZM9.60254 28.0059 22.3975 28.0059 25 23.085 25 10.6426 20.5723 6.00586 11.4277 6.00586 7 10.6426 7 23.085Z" fill="#7823DC"/><rect x="14" y="20.0059" width="4" height="2" fill="#7823DC"/><path d="M1.17 30.25-0.006 14.973 1.097 7.259 10.554 4.008 11.204 5.898 2.903 8.753 2.006 15.039 2.83 25.762 5.293 23.299 6.707 24.713 1.17 30.25Z" fill="#7823DC"/><path d="M30.826 30.246 25.293 24.713 26.707 23.299 29.174 25.766 29.989 15.428 28.168 8.756 20.704 5.868 21.426 4.003 29.832 7.256 32.011 15.238 30.826 30.246Z" fill="#7823DC"/><rect x="10" y="14.0059" width="2" height="2" fill="#7823DC"/><rect x="20" y="14.0059" width="2" height="2" fill="#7823DC"/><path d="M20.293 29.713 16 25.42 11.707 29.713 10.293 28.299 16 22.592 21.707 28.299 20.293 29.713Z" fill="#7823DC"/><rect x="15" y="21.0059" width="2" height="3" fill="#7823DC"/></g></svg>