<svg viewBox="0 0 32 32" xmlns="http://www.w3.org/2000/svg" xmlns:xlink="http://www.w3.org/1999/xlink" id="Layer_1" overflow="hidden"><style>
.MsftOfcResponsive_Fill_7823dc {
 fill:#7823DC; 
}
</style>
<defs></defs><path d="M0 0 0 32 32 32 32 0 0 0ZM21.65 2C20.82 4.34 18.57 6 16.01 6 13.45 6 11.2 4.34 10.37 2L21.66 2ZM8.27 2C9.16 5.47 12.34 8 16 8 19.66 8 22.84 5.47 23.73 2L29.99 2 29.99 15 20.89 15C20.43 12.72 18.41 11 15.99 11 13.57 11 11.56 12.72 11.09 15L2 15 2 2 8.27 2ZM19 16C19 17.65 17.65 19 16 19 14.35 19 13 17.65 13 16 13 14.35 14.35 13 16 13 17.65 13 19 14.35 19 16ZM10.09 30C10.57 27.17 13.03 25 16 25 18.97 25 21.43 27.17 21.91 30L10.09 30ZM23.93 30C23.44 26.06 20.07 23 16 23 11.93 23 8.56 26.06 8.07 30L2 30 2 17 11.1 17C11.56 19.28 13.58 21 16 21 18.42 21 20.43 19.28 20.9 17L30 17 30 30 23.93 30Z" class="MsftOfcResponsive_Fill_7823dc" fill="#7823DC"/></svg>