<svg viewBox="0 0 32 32" xmlns="http://www.w3.org/2000/svg" xmlns:xlink="http://www.w3.org/1999/xlink" id="Layer_1" overflow="hidden"><path d="M24.8 5.3 24.8 13.3 18.9 13.3 18.9 5.3 24.8 5.3M26.8 3.3 16.9 3.3 16.9 15.3 26.8 15.3 26.8 3.3 26.8 3.3Z" fill="#7823DC"/><path d="M22.9 4.4 20.7 4.4 20.7 8.1 22.9 8.1 22.9 4.4Z" fill="#7823DC"/><path d="M13.1 5.3 13.1 13.3 7.2 13.3 7.2 5.3 13.1 5.3M15.1 3.3 5.2 3.3 5.2 15.3 15.1 15.3 15.1 3.3 15.1 3.3Z" fill="#7823DC"/><path d="M11.3 4.4 9.1 4.4 9.1 8.1 11.3 8.1 11.3 4.4Z" fill="#7823DC"/><path d="M27 23 27 26 25 26 25 23 27 23M29 21 23 21 23 28 29 28 29 21 29 21Z" fill="#7823DC"/><path d="M7 23 7 26 5 26 5 23 7 23M9 21 3 21 3 28 9 28 9 21 9 21Z" fill="#7823DC"/><path d="M28 15.4C29.1 15.4 30 16.3 30 17.4L30 19C30 20.1 29.1 21 28 21L4 21C2.9 21 2 20.1 2 19L2 17.4C2 16.3 2.9 15.4 4 15.4L28 15.4M28 13.4 4 13.4C1.8 13.4 0 15.2 0 17.4L0 19C0 21.2 1.8 23 4 23L28 23C30.2 23 32 21.2 32 19L32 17.4C32 15.2 30.2 13.4 28 13.4L28 13.4Z" fill="#7823DC"/><rect x="6.5" y="17" width="19" height="2" fill="#7823DC"/><circle cx="28" cy="18" r="1" fill="#7823DC"/><circle cx="4" cy="18" r="1" fill="#7823DC"/><path d="M30 28 30 30 2 30 2 28 30 28M32 26 0 26 0 32 32 32 32 26 32 26Z" fill="#7823DC"/></svg>