<svg viewBox="0 0 32 32" xmlns="http://www.w3.org/2000/svg" xmlns:xlink="http://www.w3.org/1999/xlink" id="Layer_1" overflow="hidden"><style>
.MsftOfcThm_Text2_lumMod_100_Fill_v2 {
 fill:#7823DC; 
}
</style>
<defs></defs><path d="M32 19.02 32 12.98 29.25 12 28.19 9.45 29.44 6.82 25.17 2.55 22.54 3.8 19.99 2.74 19.01-0.01 12.97-0.01 11.99 2.74 9.44 3.8 6.81 2.55 2.55 6.82 3.8 9.45 2.74 12-0.01 12.98-0.01 19.02 2.74 20 3.8 22.55 2.55 25.18 6.82 29.45 9.45 28.2 12 29.26 12.98 32.01 19.02 32.01 20 29.26 22.55 28.2 25.18 29.45 29.45 25.18 28.2 22.55 29.26 20 32.01 19.02ZM27.75 18.41 26.01 22.6 27.04 24.76 24.77 27.03 22.61 26 18.42 27.74 17.62 29.99 14.4 29.99 13.6 27.74 9.41 26 7.25 27.03 4.97 24.76 6 22.6 4.26 18.41 2.01 17.61 2.01 14.39 4.26 13.59 6 9.4 4.97 7.24 7.25 4.97 9.41 6 13.6 4.26 14.4 2.01 17.62 2.01 18.42 4.26 22.61 6 24.77 4.97 27.04 7.24 26.01 9.4 27.75 13.59 30 14.39 30 17.61 27.75 18.41Z" class="MsftOfcThm_Text2_lumMod_100_Fill_v2" stroke-width="0" fill="#7823DC"/><path d="M21.28 10.63 19.53 5.69 13.88 11.27 13.17 11.52 13.17 11.52 12.78 11.66 11.29 12.19 11.29 12.19C11.29 12.19 9.18 12.94 9.18 12.94 6.97 13.72 5.82 16.15 6.6 18.36 6.98 19.43 7.75 20.28 8.77 20.77 9.35 21.05 9.97 21.19 10.59 21.19 10.78 21.19 10.98 21.17 11.17 21.14L13.3 27.15 18.01 25.48 15.91 19.56 16.63 19.31 24.55 19.87 22.87 15.12 25.46 14.2 23.87 9.72 21.28 10.64ZM9.63 18.96C9.09 18.7 8.68 18.25 8.48 17.68 8.07 16.51 8.68 15.23 9.85 14.82L11.96 14.07 12.71 16.18 13.46 18.29 11.35 19.04C10.79 19.24 10.18 19.21 9.64 18.95ZM14.51 24.59 13.08 20.56 13.12 20.56C13.12 20.56 14.03 20.23 14.03 20.23L15.46 24.26 14.52 24.59ZM21.64 17.65 16.35 17.28 15.34 17.64 14.59 15.53 13.84 13.42 14.97 13.02 18.7 9.34 19.4 11.31 19.4 11.31C19.4 11.31 20.99 15.79 20.99 15.79L20.99 15.79C20.99 15.79 21.65 17.66 21.65 17.66ZM22.19 13.22 21.94 12.51 22.65 12.26 22.9 12.97 22.19 13.22Z" class="MsftOfcThm_Text2_lumMod_100_Fill_v2" stroke-width="0" fill="#7823DC"/></svg>