<svg viewBox="0 0 32 32" xmlns="http://www.w3.org/2000/svg" xmlns:xlink="http://www.w3.org/1999/xlink" id="Graphic" overflow="hidden"><defs></defs><path d="M6.874 32 4.874 32 4.874 20.971 6.874 22.971 6.874 32Z" fill="#7823DC"/><path d="M10.998 32 8.998 32 8.998 22.971 10.998 20.971 10.998 32Z" fill="#7823DC"/><path d="M7.996 19.729 6.581 18.314 3.753 21.143 5.167 22.557 7.996 19.729 7.996 19.729Z" fill="#7823DC"/><path d="M7.996 19.729 9.41 18.314 12.238 21.143 10.824 22.557 7.996 19.729 7.996 19.729Z" fill="#7823DC"/><path d="M7.996 22.557 9.41 23.971 12.238 21.143 10.824 19.729 7.996 22.557 7.996 22.557Z" fill="#7823DC"/><path d="M7.996 22.557 6.581 23.971 3.753 21.143 5.167 19.729 7.996 22.557 7.996 22.557Z" fill="#7823DC"/><path d="M7.99574 16.0216C3.57746 16.0216-0.00426006 12.4398-0.00426006 8.02157-0.00426006 3.60329 3.57746 0.0215702 7.99574 0.0215702 12.414 0.0215702 15.9957 3.60329 15.9957 8.02157 15.9907 12.4378 12.4119 16.0165 7.99574 16.0216ZM7.99574 2.02157C4.68203 2.02157 1.99574 4.70786 1.99574 8.02157 1.99574 11.3353 4.68203 14.0216 7.99574 14.0216 11.3094 14.0216 13.9957 11.3353 13.9957 8.02157 13.9921 4.70936 11.3079 2.02519 7.99574 2.02157Z" fill="#7823DC"/><path d="M5.526 17.85-0.015 20.15-0.015 17.989 4.766 16 5.066 16.73 5.526 17.85Z" fill="#7823DC"/><rect x="19.9857" y="20.4358" width="2" height="11.6" fill="#7823DC"/><rect x="15.2155" y="13.3237" width="2" height="11.66" fill="#7823DC" transform="matrix(0.381554 -0.924346 0.924346 0.381554 -7.67624 26.8343)"/><rect x="3.96962" y="16.2751" width="2.00848" height="3.23366" fill="#7823DC" transform="matrix(0.786664 -0.617382 0.617382 0.786664 -9.98503 6.88776)"/><rect x="9.38802" y="16.8885" width="3.22" height="2" fill="#7823DC" transform="matrix(0.618546 -0.785749 0.785749 0.618546 -9.86062 15.4653)"/><path d="M25.0137 2.02975C27.9611 2.02975 30.0151 3.60653 30.0151 5.02157 30.0151 5.9183 29.2125 6.83651 27.9205 7.41794L27.5215 7.59982 20.9799 10.4718 21.4582 8.61606 21.7614 7.43918 20.8596 6.6246C20.3669 6.23104 20.06 5.65038 20.0124 5.0216 20.0124 3.6066 22.0664 2.02978 25.0137 2.02978M25.0137 0.0216C21.1425 0.0216 18.0042 2.26013 18.0042 5.0216 18.0404 6.22141 18.5901 7.34788 19.5135 8.11483L18.0042 13.9715 28.7443 9.25619 28.7445 9.24919C30.7122 8.36382 32.0233 6.80364 32.0233 5.02153 32.0233 2.26006 28.885 0.02153 25.0137 0.02153Z" fill="#7823DC"/></svg>