<svg viewBox="0 0 32 32" xmlns="http://www.w3.org/2000/svg" xmlns:xlink="http://www.w3.org/1999/xlink" id="Layer_1" overflow="hidden"><path d="M32 19.2C30.2 19.2 28.5 18.3 27.1 16.7L28.6 15.4C29.6 16.6 30.7 17.2 31.9 17.2L31.9 19.2Z" fill="#7823DC"/><g><defs><path d="M0 32 32 32 32 0 0 0 0 32Z" id="SVGID_1_" fill="#7823DC"/></defs><clipPath id="SVGID_00000112620813584066994040000007730822205553864581_"><use width="100%" height="100%" xlink:href="#SVGID_1_" overflow="visible"></use></clipPath><path d="M7.8 25.4C6.6 25.4 5.5 25.1 4.4 24.4 3.6 23.8 2.7 23.4 1.8 22.9 1.4 22.6 0.9 22.5 0.1 22.5L0.1 20.5C1.3 20.5 2.1 20.7 2.8 21.1 3.8 21.6 4.6 22.1 5.6 22.7 6.7 23.4 7.8 23.6 9 23.3 10.5 22.9 11.7 21.7 12.4 19.8 13.2 17.6 13.2 15.3 12.4 13.5 11.7 11.9 11.1 11.8 10.5 11.8 10.2 11.9 9.5 12.7 9.1 13.1 8.3 14 7.8 14.5 7.1 14.5 5.7 14.5 3.8 10.5 3.7 8.4 3.6 6.3 4.2 4.4 5.4 2.9 6.7 1.2 8.4 0.3 10.5 0.1 12.6-0.1 14.7 0.2 16.7 1.1 18.8 2.1 20.5 3.7 22 6L20.3 7.1C19 5.1 17.6 3.7 15.9 2.9 14.2 2.1 12.5 1.8 10.7 2 9.1 2.1 7.9 2.8 7 4 6 5.2 5.6 6.6 5.6 8.2 5.7 9.6 6.6 11.3 7.1 12.1 7.2 12 7.4 11.8 7.5 11.7 8.5 10.6 9.3 9.9 10.1 9.8 12.9 9.6 13.8 11.9 14.2 12.7 15.2 15 15.2 17.8 14.2 20.5 13.3 22.9 11.5 24.6 9.4 25.2 8.9 25.3 8.4 25.4 7.8 25.4Z" fill="#7823DC" clip-path="url(#SVGID_00000112620813584066994040000007730822205553864581_)"/><g clip-path="url(#SVGID_00000112620813584066994040000007730822205553864581_)"><defs><path d="M0 32 32 32 32 0 0 0 0 32Z" id="SVGID_00000055670628312323622560000018061786233045056423_" fill="#7823DC"/></defs><clipPath id="SVGID_00000083059088556186284040000011014449481956025751_"><use width="100%" height="100%" xlink:href="#SVGID_00000055670628312323622560000018061786233045056423_" overflow="visible"></use></clipPath><path d="M19 32 19 14C19 6.8 23 1.2 23.2 1L24-0.1 24.8 1C25 1.3 29 6.9 29 14L29 32 24 29.5 19 32ZM24 27.3 27 28.8 27 14C27 9.4 25.1 5.4 24 3.5 22.9 5.5 21 9.4 21 14L21 28.7 24 27.3Z" fill="#7823DC" clip-path="url(#SVGID_00000083059088556186284040000011014449481956025751_)"/><g clip-path="url(#SVGID_00000083059088556186284040000011014449481956025751_)"><defs><path d="M0 32 32 32 32 0 0 0 0 32Z" id="SVGID_00000075856261857807592510000008843817348106596541_" fill="#7823DC"/></defs><clipPath id="SVGID_00000056416414882978629540000013426936741262928797_"><use width="100%" height="100%" xlink:href="#SVGID_00000075856261857807592510000008843817348106596541_" overflow="visible"></use></clipPath><rect x="19.6" y="23.2" width="8.7" height="2" fill="#7823DC" clip-path="url(#SVGID_00000056416414882978629540000013426936741262928797_)" transform="matrix(0.8944 -0.4472 0.4472 0.8944 -8.3006 13.2532)"/><g clip-path="url(#SVGID_00000056416414882978629540000013426936741262928797_)"><defs><path d="M0 32 32 32 32 0 0 0 0 32Z" id="SVGID_00000179607462453161165000000013377679609212773803_" fill="#7823DC"/></defs><clipPath id="SVGID_00000084512035239301005990000002712045666942458514_"><use width="100%" height="100%" xlink:href="#SVGID_00000179607462453161165000000013377679609212773803_" overflow="visible"></use></clipPath><path d="M4.8 30.2 0 30.2 0 28.2 4.7 28.2C6 28.2 7.3 28.2 8.7 27.6 9.8 27.1 10.7 26.7 11.7 26.5 14 25.8 16.6 26 19.3 27.1L20.4 27.5 19.7 29.4 18.5 29C16.2 28 14.1 27.8 12.2 28.4 11.3 28.6 10.5 28.9 9.5 29.4 7.8 30.2 6.2 30.2 4.8 30.2Z" fill="#7823DC" clip-path="url(#SVGID_00000084512035239301005990000002712045666942458514_)"/><g clip-path="url(#SVGID_00000084512035239301005990000002712045666942458514_)"><defs><path d="M0 32 32 32 32 0 0 0 0 32Z" id="SVGID_00000179623108097988177610000009462734351590237078_" fill="#7823DC"/></defs><clipPath id="SVGID_00000002383962822521814240000012344728681474380954_"><use width="100%" height="100%" xlink:href="#SVGID_00000179623108097988177610000009462734351590237078_" overflow="visible"></use></clipPath><path d="M28.2 28.7 27.4 26.9C27.8 26.7 28.2 26.6 28.6 26.5 29.6 26.1 30.6 26 31.9 26L31.9 28C30.8 28 30 28.1 29.2 28.4 28.9 28.5 28.5 28.6 28.2 28.7Z" fill="#7823DC" clip-path="url(#SVGID_00000002383962822521814240000012344728681474380954_)"/><g clip-path="url(#SVGID_00000002383962822521814240000012344728681474380954_)"><defs><path d="M0 32 32 32 32 0 0 0 0 32Z" id="SVGID_00000137812232363436085840000015952340289922684581_" fill="#7823DC"/></defs><clipPath id="SVGID_00000061431593255698945570000008374729454277151923_"><use width="100%" height="100%" xlink:href="#SVGID_00000137812232363436085840000015952340289922684581_" overflow="visible"></use></clipPath><rect x="23" y="1.6" width="2" height="22.8" fill="#7823DC" clip-path="url(#SVGID_00000061431593255698945570000008374729454277151923_)"/></g></g></g></g></g></g></svg>