<svg viewBox="0 0 32 32" xmlns="http://www.w3.org/2000/svg" xmlns:xlink="http://www.w3.org/1999/xlink" xml:space="preserve" overflow="hidden"><style>
.MsftOfcResponsive_Fill_7823dc {
 fill:#7823DC; 
}
</style>
<g id="Layer_3"></g><g id="Layer_1"><path d="M21.97 25.49C19.68 25.49 17.49 24.55 15.91 22.93 14.32 24.55 12.13 25.49 9.85 25.49 5.17 25.49 1.36 21.68 1.36 17 1.36 13.16 3.9 9.86 7.52 8.84 7.52 8.72 7.51 8.61 7.51 8.5 7.51 3.81 11.32 0 16 0 20.68 0 24.49 3.81 24.49 8.49 24.49 8.62 24.49 8.75 24.48 8.88 28 9.97 30.47 13.25 30.47 17 30.47 21.68 26.66 25.49 21.97 25.49ZM15.91 19.68 16.72 20.8C17.94 22.48 19.91 23.49 21.97 23.49 25.55 23.49 28.46 20.58 28.46 17 28.46 13.89 26.25 11.21 23.2 10.63L22.25 10.45 22.4 9.5C22.46 9.12 22.48 8.81 22.48 8.5 22.49 4.91 19.58 2 16 2 12.42 2 9.51 4.91 9.51 8.49 9.51 8.78 9.54 9.1 9.59 9.46L9.74 10.43 8.77 10.6C5.64 11.13 3.36 13.82 3.36 17 3.36 20.58 6.27 23.49 9.85 23.49 11.92 23.49 13.88 22.48 15.1 20.8L15.91 19.68Z" class="MsftOfcResponsive_Fill_7823dc" fill="#7823DC"/><rect x="15" y="10.88" width="2" height="21.12" class="MsftOfcResponsive_Fill_7823dc" fill="#7823DC"/><rect x="15.15" y="13.64" width="6.44" height="2" class="MsftOfcResponsive_Fill_7823dc" fill="#7823DC" transform="matrix(0.6828 -0.7306 0.7306 0.6828 -4.8715 18.0691)"/><rect x="12.65" y="14.35" width="2" height="6.19" class="MsftOfcResponsive_Fill_7823dc" fill="#7823DC" transform="matrix(0.6524 -0.7579 0.7579 0.6524 -8.4791 16.4141)"/></g><g id="Layer_2"></g></svg>