<svg width="36.5" height="36.6" viewBox="0 0 36.5 36.6" xmlns="http://www.w3.org/2000/svg" xmlns:xlink="http://www.w3.org/1999/xlink" overflow="hidden"><defs></defs><g><g><defs><path d="M0 36.5 36.5 36.5 36.5 0 0 0 0 36.5Z" id="SVGID_1_" fill="#7823DC"/></defs><clipPath id="SVGID_2_"><use width="100%" height="100%" xlink:href="#SVGID_1_"></use></clipPath><g clip-path="url(#SVGID_2_)"><defs><path d="M0 36.5 36.5 36.5 36.5 0 0 0 0 36.5Z" id="SVGID_3_" fill="#7823DC"/></defs><clipPath id="SVGID_4_"><use width="100%" height="100%" xlink:href="#SVGID_3_"></use></clipPath><path d="M18.2 36.6C8.2 36.6 0 28.4 0 18.3 0 8.2 8.2 0 18.2 0 28.3 0 36.4 8.2 36.4 18.3 36.4 28.4 28.3 36.6 18.2 36.6ZM18.2 2.3C9.4 2.3 2.2 9.5 2.2 18.3 2.2 27.1 9.4 34.3 18.2 34.3 27 34.3 34.2 27.1 34.2 18.3 34.2 9.5 27 2.3 18.2 2.3Z" fill="#7823DC" clip-path="url(#SVGID_4_)"/><path d="M12.5 17.1C11.2 17.1 10.2 16.1 10.2 14.8 10.2 13.5 11.2 12.5 12.5 12.5 13.8 12.5 14.8 13.5 14.8 14.8 14.8 16.1 13.8 17.1 12.5 17.1ZM12.5 14.9 12.5 14.9 12.5 14.9Z" fill="#7823DC" clip-path="url(#SVGID_4_)"/><path d="M23.9 17.1C22.6 17.1 21.6 16.1 21.6 14.8 21.6 13.5 22.6 12.5 23.9 12.5 25.2 12.5 26.2 13.5 26.2 14.8 26.2 16.1 25.2 17.1 23.9 17.1ZM23.9 14.9 23.9 14.9 23.9 14.9Z" fill="#7823DC" clip-path="url(#SVGID_4_)"/><g clip-path="url(#SVGID_4_)"><defs><path d="M0 36.6 36.5 36.6 36.5 0 0 0 0 36.6Z" id="SVGID_5_" fill="#7823DC"/></defs><defs><path d="M20.5 22.9 20.5 19.4 8 19.4 8 25.1 16 25.1 16 28.6 28.5 28.6 28.5 22.9 20.5 22.9 20.5 22.9Z" id="SVGID_6_" fill="#7823DC"/></defs><clipPath id="SVGID_7_"><use width="100%" height="100%" xlink:href="#SVGID_5_"></use></clipPath><clipPath id="SVGID_8_" clip-path="url(#SVGID_7_)"><use width="100%" height="100%" xlink:href="#SVGID_6_"></use></clipPath><path d="M9.5 27.6C8.5 25 9.7 22 12.3 20.9 13.6 20.3 15 20.2 16.4 20.7 17.7 21.2 18.8 22.2 19.4 23.5 20.1 24.9 21.7 25.6 23.2 25.1 24.8 24.5 25.6 22.8 25 21.2L27.1 20.4C28.1 23.1 26.7 26.2 24 27.3 21.4 28.3 18.5 27.1 17.3 24.5 17 23.8 16.4 23.2 15.6 22.9 14.8 22.6 14 22.7 13.3 23 11.9 23.7 11.2 25.3 11.7 26.8L9.5 27.6Z" fill="#7823DC" clip-path="url(#SVGID_8_)"/></g></g></g></g></svg>