<svg viewBox="0 0 31.97 31.97" xmlns="http://www.w3.org/2000/svg" xmlns:xlink="http://www.w3.org/1999/xlink" id="Layer_1" overflow="hidden"><style>
.MsftOfcResponsive_Fill_7823dc {
 fill:#7823DC; 
}
</style>
<defs></defs><g><path d="M23.69 30.97 21.69 30.97 21.69 28.08C21.69 21.61 18.52 15.67 13.42 12.56L14.46 10.85C20.15 14.32 23.69 20.92 23.69 28.08L23.69 30.97Z" class="MsftOfcResponsive_Fill_7823dc" fill="#7823DC"/><path d="M23.69 30.97 21.69 30.97 21.69 28.08C21.69 20.92 25.23 14.32 30.92 10.85L31.96 12.56C26.86 15.67 23.69 21.62 23.69 28.08L23.69 30.97Z" class="MsftOfcResponsive_Fill_7823dc" fill="#7823DC"/><path d="M22.69 31.97C18.92 31.97 15.85 28.64 15.85 24.55L15.85 13.95 17.85 13.95 17.85 24.55C17.85 27.54 20.02 29.97 22.69 29.97 25.36 29.97 27.52 27.54 27.52 24.55L27.52 13.95 29.52 13.95 29.52 24.55C29.52 28.64 26.45 31.97 22.69 31.97Z" class="MsftOfcResponsive_Fill_7823dc" fill="#7823DC"/><path d="M26.56 15C25.78 5.81 23.66 2 22.69 2 21.72 2 19.6 5.81 18.82 15L16.83 14.83C17.12 11.35 18.42 0 22.69 0 26.96 0 28.25 11.35 28.55 14.83L26.56 15Z" class="MsftOfcResponsive_Fill_7823dc" fill="#7823DC"/></g><g><path d="M7.95 30.97 5.95 30.97 5.95 29.03C5.95 24.76 3.73 20.98 0 18.92L0.97 17.17C5.27 19.55 7.95 24.1 7.95 29.03L7.95 30.97Z" class="MsftOfcResponsive_Fill_7823dc" fill="#7823DC"/><path d="M7.95 30.97 5.95 30.97 5.95 29.03C5.95 24.1 8.62 19.55 12.93 17.17L13.9 18.92C10.18 20.98 7.95 24.76 7.95 29.03L7.95 30.97Z" class="MsftOfcResponsive_Fill_7823dc" fill="#7823DC"/><path d="M6.95 31.97C4.02 31.97 1.64 29.59 1.64 26.66L1.64 19.55 3.64 19.55 3.64 26.66C3.64 28.48 5.12 29.97 6.95 29.97 8.78 29.97 10.26 28.49 10.26 26.66L10.26 19.55 12.26 19.55 12.26 26.66C12.26 29.59 9.88 31.97 6.95 31.97Z" class="MsftOfcResponsive_Fill_7823dc" fill="#7823DC"/><path d="M9.54 20.29C8.99 14.37 7.46 11.86 6.95 11.86 6.44 11.86 4.91 14.37 4.36 20.29L2.37 20.1C2.59 17.7 3.59 9.86 6.96 9.86 10.33 9.86 11.32 17.7 11.55 20.1L9.56 20.29Z" class="MsftOfcResponsive_Fill_7823dc" fill="#7823DC"/></g></svg>