<svg viewBox="0 0 32 31.94" xmlns="http://www.w3.org/2000/svg" xmlns:xlink="http://www.w3.org/1999/xlink" id="Layer_1" overflow="hidden"><defs></defs><path d="M16 31.94 12.6 28.44 0 28.44 0 26.44 13.4 26.44 16 29.14 18.6 26.54 32 26.54 32 28.54 19.4 28.54 16 31.94Z" fill="#7823DC"/><circle cx="10" cy="11.94" r="1" fill="#7823DC"/><circle cx="16" cy="15.94" r="1" fill="#7823DC"/><circle cx="18.1" cy="23.54" r="1" fill="#7823DC"/><circle cx="22.1" cy="23.84" r="1" fill="#7823DC"/><circle cx="13" cy="13.94" r="1" fill="#7823DC"/><circle cx="13" cy="17.94" r="1" fill="#7823DC"/><circle cx="16" cy="11.94" r="1" fill="#7823DC"/><circle cx="15" cy="25.34" r="1" fill="#7823DC"/><circle cx="11.4" cy="23.94" r="1" fill="#7823DC"/><circle cx="8" cy="23.94" r="1" fill="#7823DC"/><path d="M21.2 21.9 7.1 21.9 6.4 21.6 4.6 19.9 1 19.9 0 18.9 0 8.9 0.8 7.9 4.6 6.9 7.4 5.1 9.4 3.1 9.7 2.9 16.23 0.14C16.5677 0.00812596 16.9503 0.0693449 17.23 0.3L17.69 0.7C17.9772 0.946022 18.101 1.33298 18.01 1.7L17.2 5.1 16.7 5.7 13.9 7.6 12 10.4 10.3 9.3 12.3 6.3 12.6 6 15.3 4.2 15.7 2.6 10.7 4.7 8.6 6.7 5.6 8.7 5.3 8.8 2 9.6 2 17.9 5.1 17.9 5.8 18.1 7.5 19.9 21.2 19.9Z" fill="#7823DC" transform="matrix(1 0 0 1 0 -0.06)"/><path d="" stroke="#7823DC" stroke-width="2" stroke-linejoin="bevel" fill="#7823DC" transform="matrix(1 0 0 1 0 -0.06)"/><path d="M25.9 10.6 19.2 10.6 19.2 8.6 25.4 8.6C25.4 8.6 26.31 8.02 26.3 7.7 26.29 7.38 25.4 6.9 25.4 6.9L19.2 6.9 19.2 4.9 25.9 4.9 26.6 5.2 28.11 6.71C28.2947 6.89626 28.3989 7.14766 28.4 7.41L28.4 8C28.4017 8.25609 28.305 8.50306 28.13 8.69L26.6 10.3Z" fill="#7823DC" transform="matrix(1 0 0 1 0 -0.06)"/><path d="M29.3 14.4 21.8 14.4 21.8 12.4 28.9 12.4C28.9 12.4 29.9 11.84 29.9 11.5 29.9 11.16 29.19 10.86 29.19 10.86 29.0066 10.6933 28.7678 10.6006 28.52 10.6L21.8 10.6 21.8 8.6 29.3 8.6 30 8.9 31.67 10.4C31.8821 10.5914 32.0022 10.8643 32 11.15L32 11.77C32.0017 12.0457 31.8895 12.3098 31.69 12.5L30 14.1Z" fill="#7823DC" transform="matrix(1 0 0 1 0 -0.06)"/><path d="M26.8 18.1 19.2 18.1 19.2 16.1 26.5 16.1C26.5 16.1 27.41 15.52 27.4 15.2 27.39 14.88 26.5 14.4 26.5 14.4L19.2 14.4 19.2 12.4 26.8 12.4 27.5 12.6 29.27 14.2C29.4795 14.3891 29.5993 14.6578 29.6 14.94L29.6 15.54C29.6 15.8323 29.4721 16.11 29.25 16.3L27.5 17.8Z" fill="#7823DC" transform="matrix(1 0 0 1 0 -0.06)"/><path d="M25.1 21.9 19.2 21.9 19.2 19.9 24.6 19.9C24.6 19.9 25.3 19.29 25.3 19 25.3 18.71 24.6 18.1 24.6 18.1L19.2 18.1 19.2 16.1 25.1 16.1 25.9 16.5 27.17 18C27.3191 18.1799 27.4005 18.4063 27.4 18.64L27.4 19.23C27.3987 19.4556 27.3212 19.6741 27.18 19.85L25.9 21.5Z" fill="#7823DC" transform="matrix(1 0 0 1 0 -0.06)"/><rect x="14.5" y="4.84" width="11.1" height="2" fill="#7823DC"/></svg>