<svg viewBox="0 0 32 32" xmlns="http://www.w3.org/2000/svg" xmlns:xlink="http://www.w3.org/1999/xlink" overflow="hidden"><defs></defs><g id="Layer_3"><path d="M31.843 16.074 28.845 19.072 26.016 19.072 27.975 17.113-0.021 17.113-0.021 15.119 28.017 15.119 28.017 15.077 26.016 13.076 28.845 13.076 31.843 16.074Z" fill="#7823DC"/><path d="M15.948 3.989 13.948 3.989 13.948 5.989 15.948 5.989 15.948 3.989 15.948 3.989Z" fill="#7823DC"/><path d="M17.948 25.989 15.948 25.989 15.948 27.989 17.948 27.989 17.948 25.989 17.948 25.989Z" fill="#7823DC"/><path d="M13.971 22.012 11.971 22.012 11.971 24.012 13.971 24.012 13.971 22.012 13.971 22.012Z" fill="#7823DC"/><path d="M5.948 5.989 3.948 5.989 3.948 7.989 5.948 7.989 5.948 5.989 5.948 5.989Z" fill="#7823DC"/><path d="M3.948 13.128 3.948 3.989 27.948 3.989 27.948 11.156 29.948 11.156 29.948 1.989 1.948 1.989 1.948 13.128 3.948 13.128Z" fill="#7823DC"/><rect x="27.948" y="15.1281" width="2" height="1.97668" fill="#7823DC"/><path d="M27.948 20.935 27.948 27.989 3.948 27.989 3.948 19.105 1.948 19.105 1.948 29.989 29.948 29.989 29.948 20.935 27.948 20.935Z" fill="#7823DC"/><rect x="1.948" y="15.1281" width="2" height="1.97668" fill="#7823DC"/><path d="M27.948 23.993 25.948 23.993 25.948 25.993 27.948 25.993 27.948 23.993 27.948 23.993Z" fill="#7823DC"/><path d="M19.948 7.989 17.948 7.989 17.948 9.989 19.948 9.989 19.948 7.989 19.948 7.989Z" fill="#7823DC"/><rect x="23.948" y="15.1212" width="2" height="1.9884" fill="#7823DC"/><path d="M7.948 13.121 7.948 7.989 23.948 7.989 23.948 11.179 25.948 11.179 25.948 5.989 5.948 5.989 5.948 13.121 7.948 13.121Z" fill="#7823DC"/><path d="M23.948 20.94 23.948 23.989 7.948 23.989 7.948 19.11 5.948 19.11 5.948 25.989 25.948 25.989 25.948 20.94 23.948 20.94Z" fill="#7823DC"/><rect x="5.948" y="15.1212" width="2" height="1.9884" fill="#7823DC"/><path d="M11.948 13.127 11.948 11.989 19.948 11.989 19.948 13.127 21.948 13.127 21.948 9.989 9.948 9.989 9.948 13.127 11.948 13.127Z" fill="#7823DC"/><rect x="19.948" y="15.1271" width="2" height="1.9884" fill="#7823DC"/><path d="M19.948 19.115 19.948 19.989 11.948 19.989 11.948 19.115 9.948 19.115 9.948 21.989 21.948 21.989 21.948 19.115 19.948 19.115Z" fill="#7823DC"/><rect x="9.948" y="15.1271" width="2" height="1.9884" fill="#7823DC"/></g></svg>