<svg viewBox="0 0 30.42 28.52" xmlns="http://www.w3.org/2000/svg" xmlns:xlink="http://www.w3.org/1999/xlink" id="Layer_1" overflow="hidden"><style>
.MsftOfcResponsive_Fill_7823dc {
 fill:#7823DC; 
}
</style>
<defs></defs><path d="M26.22 28.52 23.75 20.98 26.83 17.13 25.87 20.12 28.34 28.52 30.42 28.52 27.96 20.14 29.66 14.86 25.51 4.5 21.02 7.42 16.77 5.96 16.6 6.44 15.85 6.19C15.94 5.29 15.41 4.42 14.51 4.12 13.47 3.77 12.35 4.33 12 5.37 11.65 6.41 12.21 7.53 13.25 7.88 14.14 8.18 15.09 7.81 15.57 7.04L16.31 7.29 16.12 7.85 21.29 9.62 22.92 8.57 21.73 10.45 18.85 9.69 18.34 11.62 22.63 12.75 24.57 9.7 25.76 15.27 21.52 20.58 24.12 28.52 26.22 28.52Z" class="MsftOfcResponsive_Fill_7823dc" fill="#7823DC"/><path d="M22.63 5.27C24.08 5.27 25.26 4.09 25.26 2.64 25.26 1.19 24.08 0.01 22.63 0.01 21.18 0.01 20 1.19 20 2.64 20 4.09 21.18 5.27 22.63 5.27ZM22.63 2C22.98 2 23.26 2.28 23.26 2.63 23.26 2.98 22.98 3.26 22.63 3.26 22.28 3.26 22 2.97 22 2.63 22 2.29 22.28 2 22.63 2Z" class="MsftOfcResponsive_Fill_7823dc" fill="#7823DC"/><path d="M9.42 8.6C10.01 8.6 10.5 8.12 10.5 7.52 10.5 6.92 10.02 6.44 9.42 6.44 8.82 6.44 8.34 6.92 8.34 7.52 8.34 8.12 8.82 8.6 9.42 8.6Z" class="MsftOfcResponsive_Fill_7823dc" fill="#7823DC"/><path d="M0 5.58C2.67 5.92 4.26 7.91 5.03 9.21L7.07 7.71 8.26 9.33 6.59 10.55 10.63 10.55 10.63 12.55 0 12.55 0 10.55 3.49 10.55C3.04 9.68 1.93 7.99 0 7.6L0 5.58Z" class="MsftOfcResponsive_Fill_7823dc" fill="#7823DC"/></svg>