<svg viewBox="0 0 29.22 29.22" xmlns="http://www.w3.org/2000/svg" xmlns:xlink="http://www.w3.org/1999/xlink" id="Layer_5" overflow="hidden"><defs></defs><path d="M21.61 7.31 16.71 7.31 21.91-0.02 7.23-0.02 12.77 7.3 7.26 7.3 0 21.2 5.21 29.23 24.49 29.23 29.19 21.25 21.6 7.31ZM18.04 1.98 15.55 5.49 13.91 5.49 11.26 1.98 18.05 1.98ZM23.36 27.23 6.3 27.23 2.32 21.09 8.47 9.3 20.42 9.3 26.9 21.21 23.35 27.23Z" stroke-width="0" fill="#7823DC"/><g><path d="M24.71 20.92C24.82 19.76 24.44 18.78 23.58 17.99L23.08 17.52 21.75 19.02 22.17 19.46C22.86 20.2 22.7 20.78 22.5 21.27 22.3 21.76 21.97 22.17 21.53 22.47 20.73 23.02 20.16 22.95 19.38 22.62L18.76 22.33 18.71 22.39 17.66 23.77 18.14 24.18C18.72 24.68 19.52 24.97 20.33 24.97L20.49 24.97C22.55 24.88 24.52 22.98 24.71 20.9Z" stroke-width="0" fill="#7823DC"/><path d="M17.16 23.26 18.26 21.36 16.35 20.26 15.26 22.17 17.16 23.26Z" stroke-width="0" fill="#7823DC"/><path d="M12.62 23.73 14.52 24.82 15.62 22.92 13.72 21.82 12.62 23.73Z" stroke-width="0" fill="#7823DC"/><path d="M4.95 19.38C4.83 20.86 5.73 22.02 7.25 22.34 7.71 22.43 8.27 22.45 8.76 22.39 10.72 22.15 12.04 20.51 11.82 18.58 11.76 18.04 11.69 17.5 11.61 16.97L11.42 15.58 11.63 14.49C11.66 14.3 11.69 14.1 11.7 13.91 11.72 13.47 11.39 13.17 11.32 13.11 11.12 12.94 10.92 12.77 10.69 12.58L9.76 11.82 9.4 12.63C9.2 13.08 8.99 13.69 9.13 14.46 9.34 15.67 9.51 16.97 9.66 18.11L9.69 18.33C9.73 18.62 9.78 19.01 9.72 19.3 9.65 19.65 9.42 19.96 9.09 20.16 8.67 20.41 8.14 20.47 7.64 20.33 7.16 20.19 6.95 19.85 7.03 19.39 7.1 19.03 7.23 18.67 7.37 18.29 7.43 18.12 7.49 17.95 7.55 17.78 7.55 17.76 7.57 17.73 7.58 17.71L7.6 17.67 7.92 17 6.16 16.03 5.83 16.62C5.5 17.22 5.04 18.17 4.94 19.41Z" stroke-width="0" fill="#7823DC"/><path d="M18.92 18.49C18.95 18.24 18.97 17.97 18.95 17.69 18.92 17.3 18.85 16.11 17.79 15.31L17.18 14.85 16.19 16.58 16.54 16.94C16.7 17.1 16.79 17.29 16.84 17.54L16.87 17.69 16.65 17.69C16.35 17.69 16.05 17.71 15.76 17.69 15.62 17.68 15.49 17.67 15.36 17.67L15.25 17.67C15.25 17.67 15.24 17.51 15.24 17.51L15.19 17.15C15.1 16.5 15.03 15.85 14.96 15.14 14.91 14.66 14.86 14.17 14.8 13.69 14.76 13.32 14.68 12.96 14.62 12.63L14.42 11.57 13.34 11.75C13.2 11.99 12.63 13.09 12.75 13.97L12.82 14.7C12.9 15.49 12.97 16.15 13.05 16.81 13.11 17.32 13.22 17.89 13.38 18.61 13.51 19.18 13.91 19.58 14.44 19.66 15.69 19.85 16.78 19.87 17.79 19.72 18.49 19.62 18.86 19.23 18.93 18.51Z" stroke-width="0" fill="#7823DC"/></g></svg>