<svg viewBox="0 0 32 32" xmlns="http://www.w3.org/2000/svg" xmlns:xlink="http://www.w3.org/1999/xlink" xml:space="preserve" overflow="hidden"><style>
.MsftOfcResponsive_Fill_7823dc {
 fill:#7823DC; 
}
</style>
<g id="Layer_3"></g><g id="Layer_1"></g><g id="Layer_2"><g><path d="M3.99 13.16 5.76 13.16 5.76 17.48 8.52 17.48 8.52 18.89 3.99 18.89 3.99 13.16Z" class="MsftOfcResponsive_Fill_7823dc" fill="#7823DC"/><path d="M8.97 16.02C8.97 15.09 9.23 14.36 9.75 13.84 10.27 13.32 11 13.06 11.93 13.06 12.88 13.06 13.62 13.32 14.13 13.83 14.64 14.34 14.9 15.06 14.9 15.98 14.9 16.65 14.79 17.2 14.56 17.63 14.33 18.06 14.01 18.39 13.58 18.63 13.15 18.87 12.62 18.99 11.99 18.99 11.34 18.99 10.81 18.89 10.39 18.68 9.97 18.47 9.62 18.15 9.36 17.7 9.1 17.25 8.97 16.69 8.97 16.02ZM10.74 16.03C10.74 16.61 10.85 17.02 11.06 17.28 11.27 17.54 11.57 17.66 11.94 17.66 12.32 17.66 12.61 17.54 12.82 17.29 13.03 17.04 13.13 16.6 13.13 15.96 13.13 15.42 13.02 15.03 12.8 14.78 12.58 14.53 12.29 14.41 11.92 14.41 11.56 14.41 11.28 14.54 11.06 14.79 10.84 15.04 10.74 15.45 10.74 16.03Z" class="MsftOfcResponsive_Fill_7823dc" fill="#7823DC"/><path d="M18.73 16.81 18.73 15.62 21.46 15.62 21.46 18.06C20.94 18.42 20.47 18.66 20.07 18.79 19.67 18.92 19.19 18.98 18.64 18.98 17.96 18.98 17.41 18.86 16.98 18.63 16.55 18.4 16.22 18.05 15.98 17.59 15.74 17.13 15.63 16.61 15.63 16.01 15.63 15.39 15.76 14.84 16.02 14.38 16.28 13.92 16.66 13.57 17.15 13.33 17.54 13.15 18.06 13.05 18.72 13.05 19.35 13.05 19.83 13.11 20.14 13.22 20.45 13.33 20.71 13.51 20.92 13.75 21.13 13.99 21.28 14.3 21.39 14.67L19.68 14.97C19.61 14.75 19.49 14.59 19.32 14.47 19.15 14.35 18.94 14.3 18.68 14.3 18.29 14.3 17.98 14.43 17.75 14.7 17.52 14.97 17.4 15.4 17.4 15.98 17.4 16.6 17.52 17.04 17.75 17.31 17.98 17.58 18.31 17.71 18.72 17.71 18.92 17.71 19.11 17.68 19.29 17.62 19.47 17.56 19.68 17.46 19.91 17.33L19.91 16.79 18.73 16.79Z" class="MsftOfcResponsive_Fill_7823dc" fill="#7823DC"/><path d="M22.29 16.02C22.29 15.09 22.55 14.36 23.07 13.84 23.59 13.32 24.32 13.06 25.25 13.06 26.2 13.06 26.94 13.32 27.45 13.83 27.96 14.34 28.22 15.06 28.22 15.98 28.22 16.65 28.11 17.2 27.88 17.63 27.65 18.06 27.33 18.39 26.9 18.63 26.47 18.87 25.94 18.99 25.31 18.99 24.66 18.99 24.13 18.89 23.71 18.68 23.29 18.47 22.94 18.15 22.68 17.7 22.42 17.25 22.29 16.69 22.29 16.02ZM24.06 16.03C24.06 16.61 24.17 17.02 24.38 17.28 24.59 17.54 24.89 17.66 25.26 17.66 25.64 17.66 25.93 17.54 26.14 17.29 26.35 17.04 26.45 16.6 26.45 15.96 26.45 15.42 26.34 15.03 26.12 14.78 25.9 14.53 25.61 14.41 25.24 14.41 24.88 14.41 24.6 14.54 24.38 14.79 24.16 15.04 24.06 15.45 24.06 16.03Z" class="MsftOfcResponsive_Fill_7823dc" fill="#7823DC"/></g><path d="M16 32.01C7.17 32.01-0.01 24.83-0.01 16-0.01 7.17 7.17-0.01 16-0.01 24.83-0.01 32.01 7.17 32.01 16 32.01 24.83 24.83 32.01 16 32.01ZM16 1.99C8.28 1.99 1.99 8.28 1.99 16 1.99 23.72 8.28 30.01 16 30.01 23.72 30.01 30.01 23.72 30.01 16 30.01 8.28 23.72 1.99 16 1.99Z" class="MsftOfcResponsive_Fill_7823dc" fill="#7823DC"/></g></svg>