<svg viewBox="0 0 32 32" xmlns="http://www.w3.org/2000/svg" xmlns:xlink="http://www.w3.org/1999/xlink" overflow="hidden"><defs></defs><g id="Layer_3"><rect x="0" y="12.0088" width="2" height="12" fill="#7823DC"/><rect x="1" y="17.0088" width="5" height="2" fill="#7823DC"/><rect x="13" y="5.00879" width="2" height="4" fill="#7823DC"/><rect x="8" y="4.00879" width="12" height="2" fill="#7823DC"/><path d="M30 12.044 30 24.008 28 24.008 28 20.008 22 20.008 22 26.008 10.5 26.008 7.5 22.008 6 22.008 6 14.008 10 14.008 10 10.008 18.586 10.008 24.586 16.008 28 16.008 28 12.008 29.964 12.008 27.964 10.008 26 10.008 26 14.008 25.414 14.008 19.414 8.008 8 8.008 8 12.008 4 12.008 4 24.008 6.5 24.008 9.5 28.008 24 28.008 24 22.008 26 22.008 26 26.008 32 26.008 32 14.044 30 12.044Z" fill="#7823DC"/></g></svg>