<svg viewBox="0 0 32 32" xmlns="http://www.w3.org/2000/svg" xmlns:xlink="http://www.w3.org/1999/xlink" id="Graphic" xml:space="preserve" overflow="hidden"><g><path d="M12 0 9.1 0 13.2 4.6 0 4.6 0 6.9 13.2 6.9 9.1 11.5 12 11.5 17 5.7 12 0Z" fill="#7823DC" fill-rule="evenodd" clip-rule="evenodd"/><path d="M27 10.3 24.2 10.3 28.2 14.9 0 14.9 0 17.1 28.2 17.1 24.2 21.7 27 21.7 32 16 27 10.3Z" fill="#7823DC" fill-rule="evenodd" clip-rule="evenodd"/><path d="M18 20.5 15.2 20.5 19.2 25.1 0 25.1 0 27.4 19.2 27.4 15.2 32 18 32 23 26.3 18 20.5Z" fill="#7823DC" fill-rule="evenodd" clip-rule="evenodd"/></g></svg>