<svg viewBox="0 0 32.03 31.98" xmlns="http://www.w3.org/2000/svg" xmlns:xlink="http://www.w3.org/1999/xlink" id="Layer_1" overflow="hidden"><style>
.MsftOfcResponsive_Fill_7823dc {
 fill:#7823DC; 
}
</style>
<defs></defs><path d="M25.56 31.98C23.93 31.98 22.3 31.36 21.06 30.12L12.2 21.27 21.3 12.18 30.16 21.03C31.37 22.24 32.03 23.84 32.03 25.55 32.03 27.26 31.36 28.86 30.16 30.07 28.88 31.35 27.21 31.99 25.56 31.99ZM15.04 21.27 22.48 28.7C24.19 30.41 26.97 30.41 28.69 28.7 29.58 27.81 30.03 26.71 30.03 25.54 30.03 24.37 29.57 23.27 28.74 22.44L21.3 15.01 15.03 21.27Z" class="MsftOfcResponsive_Fill_7823dc" fill="#7823DC"/><path d="M5.83 14.9 1.87 10.94C0.66 9.73 0 8.13 0 6.42 0 4.71 0.66 3.12 1.87 1.92 4.42-0.62 8.47-0.63 10.97 1.86L14.93 5.82 5.83 14.9ZM6.45 1.99C5.33 1.99 4.2 2.42 3.34 3.27 2.45 4.16 2 5.26 2 6.43 2 7.6 2.46 8.7 3.29 9.53L5.84 12.07 12.11 5.81 9.56 3.27C8.7 2.42 7.58 1.99 6.46 1.99Z" class="MsftOfcResponsive_Fill_7823dc" fill="#7823DC"/><path d="M15.27 20.63C15.01 20.63 14.76 20.53 14.56 20.34L8.88 14.67 14.68 8.88 20.36 14.55C20.75 14.94 20.75 15.57 20.36 15.96 19.97 16.35 19.34 16.35 18.94 15.96L14.68 11.7 11.71 14.66 15.97 18.91C16.36 19.3 16.36 19.93 15.97 20.32 15.77 20.52 15.52 20.61 15.26 20.61Z" class="MsftOfcResponsive_Fill_7823dc" fill="#7823DC"/><rect x="12.72" y="12.16" width="2" height="3.31" class="MsftOfcResponsive_Fill_7823dc" fill="#7823DC" transform="matrix(0.70686 -0.707354 0.707354 0.70686 -5.75 13.76)"/><rect x="25.04" y="25.02" rx="0.97" ry="0.97" width="1.94" height="1.94" class="MsftOfcResponsive_Fill_7823dc" fill="#7823DC"/></svg>