<svg viewBox="0 0 32 32" xmlns="http://www.w3.org/2000/svg" xmlns:xlink="http://www.w3.org/1999/xlink" overflow="hidden"><style>
.MsftOfcResponsive_Fill_7823dc {
 fill:#7823DC; 
}
</style>
<defs></defs><g id="Layer_3"><path d="M24 31.9678 0 31.9678 0 25.9678 24 25.9678ZM2 29.9678 22 29.9678 22 27.9678 2 27.9678Z" class="MsftOfcResponsive_Fill_7823dc" fill="#7823DC"/><path d="M22 27.9678 2 27.9678 2-0.03223 22-0.03223ZM4 25.9678 20 25.9678 20 1.96777 4 1.96777Z" class="MsftOfcResponsive_Fill_7823dc" fill="#7823DC"/><path d="M18 9.96777 6 9.96777 6 3.96777 18 3.96777ZM8 7.96777 16 7.96777 16 5.96777 8 5.96777Z" class="MsftOfcResponsive_Fill_7823dc" fill="#7823DC"/><path d="M32 13.9678 26 13.9678 26 5.96777 32 5.96777ZM28 11.9678 30 11.9678 30 7.96777 28 7.96777Z" class="MsftOfcResponsive_Fill_7823dc" fill="#7823DC"/><path d="M17.4604 18.7275C16.8904 15.3275 12.8404 11.6875 12.6603 11.5375L12.0304 10.9775 12.0004 10.9975 11.9704 10.9775 11.3404 11.5375C11.1604 11.6875 7.11043 15.3275 6.54043 18.7275 6.21798 20.2663 6.6075 21.8685 7.60043 23.0875 8.72186 24.326 10.3305 25.0096 12.0004 24.9575 13.6704 25.0096 15.279 24.326 16.4004 23.0875 17.3933 21.8685 17.7828 20.2663 17.4604 18.7275ZM14.8804 21.7875C14.1386 22.5813 13.0855 23.0091 12.0004 22.9575 10.9152 23.0091 9.86212 22.5813 9.12036 21.7875 8.52011 21.014 8.29644 20.0129 8.51036 19.0575 8.82036 17.2075 10.7604 14.9175 12.0004 13.6675 13.2404 14.9175 15.1804 17.2075 15.4904 19.0575 15.7043 20.0129 15.4806 21.014 14.8803 21.7875Z" class="MsftOfcResponsive_Fill_7823dc" fill="#7823DC"/><rect x="21" y="19.9678" width="8" height="2" class="MsftOfcResponsive_Fill_7823dc" fill="#7823DC"/><rect x="28" y="12.9678" width="2" height="9" class="MsftOfcResponsive_Fill_7823dc" fill="#7823DC"/><path d="M27.414-0.033 24.586-0.033 28 3.382 28 6.967 30 6.967 30 2.553 27.414-0.033Z" class="MsftOfcResponsive_Fill_7823dc" fill="#7823DC"/></g></svg>