<svg viewBox="0 0 32 32" xmlns="http://www.w3.org/2000/svg" xmlns:xlink="http://www.w3.org/1999/xlink" xml:space="preserve" overflow="hidden"><style>
.MsftOfcResponsive_Fill_7823dc {
 fill:#7823DC; 
}
</style>
<g id="Layer_3"></g><g id="Layer_1"></g><g id="Layer_2"><path d="M27.41 22.91 4.58 22.91 4.58 4.62 27.41 4.62 27.41 22.91ZM6.86 20.63 25.12 20.63 25.12 6.9 6.86 6.9 6.86 20.63Z" class="st0 MsftOfcResponsive_Fill_7823dc" fill="#7823DC"/><path d="M0.01 0.01 0.01 27.33 2.29 29.67 2.29 2.29 29.71 2.29 29.71 29.71 2.33 29.71 4.56 31.99 31.99 31.99 31.99 0.01Z" class="st0 MsftOfcResponsive_Fill_7823dc" fill="#7823DC"/><path d="M25.81 22.8 16 16.24 6.28 22.8 5.16 21.14 15.99 13.83 26.92 21.14Z" class="st0 MsftOfcResponsive_Fill_7823dc" fill="#7823DC"/><path d="M20.48 14.41C18.8 14.41 17.43 13.04 17.43 11.36 17.43 9.68 18.8 8.31 20.48 8.31 22.16 8.31 23.53 9.68 23.53 11.36 23.53 13.04 22.16 14.41 20.48 14.41ZM20.48 10.31C19.9 10.31 19.43 10.78 19.43 11.36 19.43 11.94 19.9 12.41 20.48 12.41 21.06 12.41 21.53 11.94 21.53 11.36 21.53 10.78 21.06 10.31 20.48 10.31Z" class="st0 MsftOfcResponsive_Fill_7823dc" fill="#7823DC"/></g><g id="Layer_4"></g><g id="Layer_5"></g></svg>