<svg viewBox="0 0 29.72 32.06" xmlns="http://www.w3.org/2000/svg" xmlns:xlink="http://www.w3.org/1999/xlink" xml:space="preserve" overflow="hidden"><style>
.MsftOfcResponsive_Fill_7823dc {
 fill:#7823DC; 
}
</style>
<g id="Layer_3"></g><g id="Layer_1"></g><g id="Layer_2"></g><g id="Layer_4"></g><g id="Layer_5"><path d="M29.51 15.53C29.51 7.48 22.96 0.92 14.9 0.92 6.84 0.92 0.3 7.48 0.3 15.53 0.3 17.19 0.59 18.78 1.1 20.26L1.1 30.14 10.24 30.14 14.91 30.14 19.47 30.14 28.72 30.14 28.72 20.26C29.22 18.78 29.51 17.19 29.51 15.53ZM14.9 2.92C21.85 2.92 27.51 8.58 27.51 15.53 27.51 20.87 24.16 25.44 19.46 27.27L19.46 23.56C21.03 23.09 22.19 21.65 22.19 19.92L22.19 18.13 21.68 18.13C22 17.3 22.19 16.42 22.19 15.52 22.19 11.5 18.92 8.23 14.9 8.23 10.88 8.23 7.61 11.5 7.61 15.52 7.61 16.43 7.8 17.3 8.12 18.13L7.62 18.13 7.62 19.92C7.62 21.6 8.72 23.02 10.24 23.52L10.24 27.22C5.59 25.36 2.3 20.82 2.3 15.52 2.3 8.58 7.95 2.92 14.9 2.92ZM9.63 20.15 20.18 20.15C20.07 21.05 19.31 21.75 18.38 21.75L11.43 21.75C10.5 21.74 9.74 21.04 9.63 20.15ZM9.62 15.53C9.62 12.62 11.99 10.24 14.91 10.24 17.83 10.24 20.2 12.61 20.2 15.53 20.2 16.46 19.95 17.35 19.49 18.14L10.34 18.14C9.87 17.35 9.62 16.46 9.62 15.53ZM3.1 24.1C4.29 25.74 5.81 27.12 7.56 28.14L3.1 28.14 3.1 24.1ZM12.23 27.85 12.23 23.74 17.46 23.74 17.46 27.88C16.63 28.05 15.78 28.14 14.9 28.14 13.99 28.14 13.1 28.04 12.23 27.85ZM26.71 28.14 22.25 28.14C24 27.11 25.52 25.74 26.71 24.1L26.71 28.14Z" class="MsftOfcResponsive_Fill_7823dc" fill="#7823DC"/></g></svg>