<svg viewBox="0 0 366.88 365.83" xmlns="http://www.w3.org/2000/svg" xmlns:xlink="http://www.w3.org/1999/xlink" id="Layer_2" overflow="hidden"><defs></defs><path d="M427.71 248.07C382.48 192.42 327.36 161.22 299.93 174.36L299.7 174.01 270 193.43C268.042 194.322 266.204 195.458 264.53 196.81 243.18 214.09 253.28 262.95 286.13 313.52L250.53 277.92 251.02 277.39 238.83 266.22 236.43 263.82 236.32 263.93 236.02 263.65 184.28 197.05 166.21 211.05 218.77 278.7 216.66 281 152.71 224.66 137.59 241.8 201.21 297.8 199.41 299.8 126.5 251.38 113.84 270.44 183.77 316.88 183.55 317.12 199.34 331.59 207.21 338.95C184.02 348.65 169.59 362.18 169.08 377.55 169.009 380.225 169.346 382.896 170.08 385.47L169.34 385.64 179.26 429C179.449 430.131 179.706 431.25 180.03 432.35L180.22 433.16 180.27 433.16C189.34 461.16 242.93 483.62 307.78 484.98 325.009 485.388 342.237 484.149 359.23 481.28L410.29 529 410.4 528.87C423.749 540.656 444.124 539.389 455.91 526.04 467.696 512.691 466.429 492.316 453.08 480.53L425.8 453.25C428.998 450.223 431.698 446.71 433.8 442.84L433.8 442.84 433.8 442.68C435.91 438.61 435.72 436.92 437.05 431.32 437.331 430.449 437.555 429.56 437.72 428.66L441.29 411.33 468.52 393.56 468.4 393.37C468.76 393.1 469.12 392.83 469.47 392.55 494.7 372.11 476 307.42 427.71 248.07ZM410.12 262.69C450.31 312.12 470.49 362.26 455.21 374.69 439.93 387.12 394.96 357.11 354.77 307.69 314.58 258.27 294.41 208.11 309.69 195.69 324.97 183.27 369.94 213.25 410.12 262.69ZM279.43 214.92C280.742 213.872 282.263 213.115 283.89 212.7 286.19 242.2 305.11 283.28 336.66 322.09 365.74 357.86 398.91 383.53 426.18 393.81 426.03 393.94 425.89 394.08 425.74 394.2L425.5 394.38 424.04 395.38C407.24 404.58 363.76 374.93 324.76 327.13 284.36 277.59 264.06 227.36 279.43 214.92ZM215.86 315.71 235 294.81 265.27 325.08C254.075 326.255 242.973 328.189 232.04 330.87ZM309 346.37 310.68 346.43C336.04 376.32 364.06 398.59 388.46 409.93 367.39 415.69 338.46 418.72 306.63 417.66 242.96 415.55 191.88 397.87 192.53 378.19 193.18 358.51 245.29 344.25 309 346.37ZM308.15 462.18C252.22 461 207.73 445.81 202.6 427.93L202.51 427.99 199.78 416.07C224.78 429.85 262.78 439.36 305.57 440.78 349.74 442.25 389.36 434.78 415.16 421.99L411.55 437.73 411.4 437.73C399.55 452.67 358.36 463.23 308.11 462.18ZM438.7 498.49C440.398 500.224 441.349 502.553 441.35 504.98 441.306 510.212 437.032 514.419 431.8 514.38 429.652 514.394 427.562 513.69 425.86 512.38L425.92 512.32 385.87 474.85C393.008 472.621 399.954 469.818 406.64 466.47Z" fill="#7823DC" transform="translate(-113.84 -171.37)"/></svg>