<svg viewBox="0 0 32 31.98" xmlns="http://www.w3.org/2000/svg" xmlns:xlink="http://www.w3.org/1999/xlink" id="Layer_1" overflow="hidden"><style>
.MsftOfcThm_Text2_Fill_v2 {
 fill:#7823DC; 
}
</style>
<defs></defs><path d="M32 31.98 0 31.98 0 27.23C0 25.3 1.67 23.73 3.73 23.73L28.28 23.73C30.34 23.73 32.01 25.3 32.01 27.23L32.01 31.98ZM2 29.98 30 29.98 30 27.23C30 26.4 29.22 25.73 28.27 25.73L3.73 25.73C2.78 25.73 2 26.4 2 27.23L2 29.98Z" class="MsftOfcThm_Text2_Fill_v2" stroke-width="0" fill="#7823DC"/><g><path d="M28.61 25.73 3.39 25.73 11.52 0 20.48 0 28.61 25.73ZM6.12 23.73 25.88 23.73 19.01 2 12.98 2 6.12 23.73Z" class="MsftOfcThm_Text2_Fill_v2" stroke-width="0" fill="#7823DC"/><rect x="15.62" y="9.17" width="2" height="17.89" class="MsftOfcThm_Text2_Fill_v2" stroke-width="0" fill="#7823DC" transform="matrix(0.209619 -0.977783 0.977783 0.209619 -4.57 30.57)"/><rect x="15.78" y="3.24" width="2" height="12.31" class="MsftOfcThm_Text2_Fill_v2" stroke-width="0" fill="#7823DC" transform="matrix(0.206546 -0.978437 0.978437 0.206546 4.12 23.87)"/></g></svg>