<svg viewBox="0 0 32 32" xmlns="http://www.w3.org/2000/svg" xmlns:xlink="http://www.w3.org/1999/xlink" id="Layer_5" overflow="hidden"><defs></defs><path d="M16 15.55C20.29 15.55 23.78 12.06 23.78 7.77 23.78 3.48 20.29 0 16 0 11.71 0 8.22 3.49 8.22 7.78 8.22 12.07 11.71 15.56 16 15.56ZM16 2C19.19 2 21.78 4.59 21.78 7.78 21.78 10.97 19.19 13.56 16 13.56 12.81 13.56 10.22 10.97 10.22 7.78 10.22 4.59 12.81 2 16 2Z" stroke-width="0" fill="#7823DC"/><path d="M19.26 16 16 22.23 12.71 16.02 1.73 20.31 1.73 32.29 3.73 32.29 3.73 21.67 11.78 18.53 14.47 23.62 17.53 23.62 20.2 18.52 28.27 21.67 28.27 32.29 30.27 32.29 30.27 20.31 19.26 16Z" stroke-width="0" fill="#7823DC"/><path d="M17.48 25.62 17.48 30.1 14.52 30.1 14.52 25.62 15.53 25.62 14.47 23.62 12.52 23.62 12.52 32.1 19.48 32.1 19.48 23.62 17.53 23.62 16.48 25.62 17.48 25.62Z" stroke-width="0" fill="#7823DC"/><path d="M15.53 25.62 16.48 25.62 17.53 23.62 14.47 23.62 15.53 25.62Z" stroke-width="0" fill="#7823DC"/></svg>