<svg width="36.5" height="36.6" viewBox="0 0 36.5 36.6" xmlns="http://www.w3.org/2000/svg" xmlns:xlink="http://www.w3.org/1999/xlink" overflow="hidden"><defs></defs><g><g><defs><path d="M0 36.5 36.5 36.5 36.5 0 0 0 0 36.5Z" id="SVGID_1_" fill="#7823DC"/></defs><clipPath id="SVGID_2_"><use width="100%" height="100%" xlink:href="#SVGID_1_"></use></clipPath><g clip-path="url(#SVGID_2_)"><defs><path d="M0 36.5 36.5 36.5 36.5 0 0 0 0 36.5Z" id="SVGID_3_" fill="#7823DC"/></defs><clipPath id="SVGID_4_"><use width="100%" height="100%" xlink:href="#SVGID_3_"></use></clipPath><path d="M22.8 34.3 13.7 34.3 13.7 36.6 22.8 36.6 22.8 34.3 22.8 34.3 22.8 34.3Z" fill="#7823DC" clip-path="url(#SVGID_4_)"/><path d="M18.2 12C20.4 12 22.2 10.2 22.2 8 22.2 5.8 20.4 4 18.2 4 16 4 14.2 5.8 14.2 8 14.2 10.2 16 12 18.2 12L18.2 12ZM18.2 6.3C19.2 6.3 19.9 7.1 19.9 8 19.9 9 19.1 9.7 18.2 9.7 17.2 9.7 16.5 8.9 16.5 8 16.5 8 16.5 8 16.5 8 16.5 7.1 17.2 6.3 18.2 6.3L18.2 6.3Z" fill="#7823DC" clip-path="url(#SVGID_4_)"/><path d="M18.2 21.2C20.4 21.2 22.2 19.4 22.2 17.2 22.2 15 20.4 13.2 18.2 13.2 16 13.2 14.2 15 14.2 17.2 14.2 19.4 16 21.2 18.2 21.2L18.2 21.2ZM18.2 15.4C19.2 15.4 19.9 16.2 19.9 17.1 19.9 18.1 19.1 18.8 18.2 18.8 17.2 18.8 16.5 18 16.5 17.1 16.5 17.1 16.5 17.1 16.5 17.1 16.5 16.2 17.2 15.4 18.2 15.4L18.2 15.4Z" fill="#7823DC" clip-path="url(#SVGID_4_)"/><path d="M26.2 4.6 26.2 6.9 29.1 6.9 27.1 10.3 26.2 10.3 26.2 12.6 28.4 12.6 33.1 4.6 26.2 4.6 26.2 4.6Z" fill="#7823DC" clip-path="url(#SVGID_4_)"/><path d="M26.2 13.7 26.2 16 29.1 16 27.1 19.4 26.2 19.4 26.2 21.7 28.4 21.7 33.1 13.7 26.2 13.7 26.2 13.7Z" fill="#7823DC" clip-path="url(#SVGID_4_)"/><path d="M18.2 30.3C20.4 30.3 22.2 28.5 22.2 26.3 22.2 24.1 20.4 22.3 18.2 22.3 16 22.3 14.2 24.1 14.2 26.3 14.2 28.5 16 30.3 18.2 30.3L18.2 30.3ZM18.2 24.6C19.2 24.6 19.9 25.4 19.9 26.3 19.9 27.3 19.1 28 18.2 28 17.2 28 16.5 27.2 16.5 26.3 16.5 26.3 16.5 26.3 16.5 26.3 16.5 25.3 17.2 24.6 18.2 24.6L18.2 24.6Z" fill="#7823DC" clip-path="url(#SVGID_4_)"/><path d="M26.2 22.9 26.2 25.2 29.1 25.2 27.1 28.6 26.2 28.6 26.2 30.9 28.4 30.9 33.1 22.9 26.2 22.9 26.2 22.9Z" fill="#7823DC" clip-path="url(#SVGID_4_)"/><path d="M10.3 4.6 10.3 6.9 7.4 6.9 9.4 10.3 10.3 10.3 10.3 12.6 8.1 12.6 3.4 4.6 10.3 4.6 10.3 4.6Z" fill="#7823DC" clip-path="url(#SVGID_4_)"/><path d="M10.3 13.7 10.3 16 7.4 16 9.4 19.4 10.3 19.4 10.3 21.7 8.1 21.7 3.4 13.7 10.3 13.7 10.3 13.7Z" fill="#7823DC" clip-path="url(#SVGID_4_)"/><path d="M10.3 22.9 10.3 25.2 7.4 25.2 9.4 28.6 10.3 28.6 10.3 30.9 8.1 30.9 3.4 22.9 10.3 22.9 10.3 22.9Z" fill="#7823DC" clip-path="url(#SVGID_4_)"/><path d="M26.2 34.3 10.2 34.3 10.2 0 26.2 0 26.2 34.3ZM12.5 32 23.9 32 23.9 2.3 12.5 2.3 12.5 32Z" fill="#7823DC" clip-path="url(#SVGID_4_)"/></g></g></g></svg>