<svg viewBox="0 0 32 32" xmlns="http://www.w3.org/2000/svg" xmlns:xlink="http://www.w3.org/1999/xlink" id="Layer_1" overflow="hidden"><path d="M25.3 28 19.9 28 19.9 14.7 25.3 14.7 25.3 28 25.3 28 25.3 28ZM22 25.9 23.3 25.9 23.3 16.7 22 16.7 22 25.9 22 25.9 22 25.9Z" fill="#7823DC" fill-rule="evenodd" clip-rule="evenodd"/><path d="M18.6 28 13.2 28 13.2 17.9 18.6 17.9 18.6 28 18.6 28 18.6 28ZM15.3 25.9 16.6 25.9 16.6 19.9 15.3 19.9 15.3 25.9 15.3 25.9 15.3 25.9Z" fill="#7823DC" fill-rule="evenodd" clip-rule="evenodd"/><path d="M18.6 32 13.2 32 13.2 25.9 18.6 25.9 18.6 32 18.6 32 18.6 32ZM15.3 30 16.6 30 16.6 28 15.3 28 15.3 30 15.3 30 15.3 30Z" fill="#7823DC" fill-rule="evenodd" clip-rule="evenodd"/><path d="M11.9 28 6.6 28 6.6 21 11.9 21 11.9 28 11.9 28 11.9 28ZM8.6 26 9.9 26 9.9 23 8.6 23 8.6 26 8.6 26 8.6 26Z" fill="#7823DC" fill-rule="evenodd" clip-rule="evenodd"/><path d="M7.9 30 24 30 24 32 7.9 32 7.9 30Z" fill="#7823DC" fill-rule="evenodd" clip-rule="evenodd"/><path d="M20.8 11.9 17.5 13.9 26.6 13.9 26.6 25.9 5.4 25.9 5.4 13.9 11.5 13.9 11.5 11.9 3.4 11.9 3.4 28 28.6 28 28.6 15.9 24.6 11.9 20.8 11.9Z" fill="#7823DC" fill-rule="evenodd" clip-rule="evenodd"/><path d="M20.7 6.8 22.2 6.8 22.2 7.3 20.7 7.3 20.7 6.8Z" fill="#7823DC" fill-rule="evenodd" clip-rule="evenodd"/><path d="M15.1 4.3 15.1 4.5C15.1 4.4 15.1 4.3 15.1 4.3L15.1 4.3 15.1 4.3 15.1 4.3Z" fill="#7823DC" fill-rule="evenodd" clip-rule="evenodd"/><path d="M16.6 4.6C16.6 4.6 16.6 4.6 16.6 4.6L16.6 4.6C16.6 4.5 16.6 4.6 16.6 4.6L16.6 4.6Z" fill="#7823DC" fill-rule="evenodd" clip-rule="evenodd"/><path d="M15.1 4.7 15.1 4.5C15.1 4.5 15 4.6 15 4.6 15.1 4.6 15.1 4.7 15.1 4.7L15.1 4.7Z" fill="#7823DC" fill-rule="evenodd" clip-rule="evenodd"/><path d="M13.9 2.6 12.2 4.7 12.2 2.7 10.7 2.7 10.7 8.3 12.2 8.3 12.2 6.5 13.9 8.3 15 7.2 13.4 5.6 15.1 3.6 13.9 2.6Z" fill="#7823DC" fill-rule="evenodd" clip-rule="evenodd"/><path d="M22.8 4 22.8 2.5 20.1 2.5 20.1 4 20.7 4 20.7 6.8 22.2 6.8 22.2 4 22.8 4Z" fill="#7823DC" fill-rule="evenodd" clip-rule="evenodd"/><path d="M20.7 7.3 20.7 6.8 20.1 6.8 20.1 8.3 22.8 8.3 22.8 6.8 22.2 6.8 22.2 7.3 20.7 7.3Z" fill="#7823DC" fill-rule="evenodd" clip-rule="evenodd"/><path d="M17.6 2.4C16.5 2.4 15.5 3.2 15.4 4.3 15.4 4.4 15.4 4.4 15.4 4.5L15.4 4.7 15.4 8.2 16.9 8.2 16.9 6.7C17.1 6.8 17.4 6.8 17.6 6.8 18.8 6.8 19.9 5.8 19.9 4.6 19.8 3.4 18.8 2.4 17.6 2.4L17.6 2.4ZM17.6 5.3C17.2 5.3 16.9 5 16.9 4.6 16.9 4.6 16.9 4.6 16.9 4.5 16.9 4.5 16.9 4.5 16.9 4.4 16.9 4 17.2 3.7 17.6 3.7 18 3.7 18.3 4 18.3 4.4 18.3 5 18 5.3 17.6 5.3L17.6 5.3Z" fill="#7823DC" fill-rule="evenodd" clip-rule="evenodd"/><path d="M11.9 16.7 20.9 11.4 25.3 11.4 25.3 4 21.3 0 7.9 0 7.9 11.3 11.9 11.3 11.9 16.7 11.9 16.7 11.9 16.7ZM9.9 9.3 9.9 2 23.3 2 23.3 9.3 20.3 9.3 14 13.1 14 9.3 9.9 9.3 9.9 9.3 9.9 9.3Z" fill="#7823DC" fill-rule="evenodd" clip-rule="evenodd"/></svg>