<svg viewBox="0 0 32 32" xmlns="http://www.w3.org/2000/svg" xmlns:xlink="http://www.w3.org/1999/xlink" id="Layer_1" xml:space="preserve" overflow="hidden"><path d="M29.8 12 29.8 11.9C29.7 11.3 29.5 10.8 29.3 10.2L29.3 10.1C29.2 9.8 29.1 9.5 29 9.3 26.6 3.8 21.3 0 15.1 0 6.8 0 0 6.9 0 15.5 0 20.9 2.7 25.7 6.9 28.5L8.1 26.9C4.4 24.5 2 20.2 2 15.5 2 8 7.9 2 15.1 2 20.7 2 25.6 5.7 27.4 10.8 27.4 10.9 27.5 11 27.5 11.2 27.6 11.6 27.7 12 27.8 12.4L27.8 12.5C28.4 14.7 29 17.4 29.4 19.3 29.4 19.5 29.5 19.7 29.5 19.8 29.5 19.6 29.6 19.4 29.6 19.3 29.9 18.1 30.1 16.8 30.1 15.5 30.2 14.3 30.1 13.1 29.8 12Z" fill="#7823DC"/><path d="M32 22.3 26.4 22.3 26.4 32 17 32 17 30 24.3 30 24.3 20.3 29.5 20.3C29.5 20.1 29.4 19.9 29.4 19.7 29 17.8 28.3 14.6 27.7 12.2L27.7 12.1C27.6 11.7 27.5 11.3 27.4 10.9 27.4 10.8 27.3 10.6 27.3 10.5 27.2 10.2 27.1 9.8 27 9.6L28.8 8.9 28.8 9.9C28.9 10.2 29 9.5 29.1 9.8L29.1 9.9C29.3 10.4 29.4 11 29.6 11.6L29.6 11.7C30.6 15.5 31.6 20.9 31.7 21.2L32 22.3Z" fill="#7823DC"/><g><path d="M12.8 24 10.4 19.3 7.5 19.3 7.5 8.2 22.5 8.2 22.5 19.3 16.5 19.3 12.8 24 12.8 24 12.8 24ZM9.5 17.3 11.6 17.3 13.2 20.3 15.5 17.3 20.5 17.3 20.5 10.2 9.5 10.2 9.5 17.3 9.5 17.3 9.5 17.3Z" fill="#7823DC" fill-rule="evenodd" clip-rule="evenodd"/><g><path d="M12.6 13.9C12.6 14.5 12.2 14.9 11.6 14.9 11 14.9 10.6 14.5 10.6 13.9 10.6 13.3 11 12.9 11.6 12.9 12.2 12.9 12.6 13.4 12.6 13.9L12.6 13.9Z" fill="#7823DC" fill-rule="evenodd" clip-rule="evenodd"/><path d="M16.1 13.9C16.1 14.5 15.7 14.9 15.1 14.9 14.5 14.9 14.1 14.5 14.1 13.9 14.1 13.3 14.5 12.9 15.1 12.9 15.7 12.9 16.1 13.4 16.1 13.9L16.1 13.9Z" fill="#7823DC" fill-rule="evenodd" clip-rule="evenodd"/><path d="M19.6 13.9C19.6 14.5 19.2 14.9 18.6 14.9 18 14.9 17.6 14.5 17.6 13.9 17.6 13.3 18 12.9 18.6 12.9 19.2 12.9 19.6 13.4 19.6 13.9L19.6 13.9Z" fill="#7823DC" fill-rule="evenodd" clip-rule="evenodd"/></g></g></svg>