<svg width="36.6" height="36.5" viewBox="0 0 36.6 36.5" xmlns="http://www.w3.org/2000/svg" xmlns:xlink="http://www.w3.org/1999/xlink" overflow="hidden"><style>
.MsftOfcResponsive_Fill_7823dc {
 fill:#7823DC; 
}
</style>
<defs></defs><g><g><defs><path d="M0 36.5 36.5 36.5 36.5 0 0 0 0 36.5Z" id="SVGID_1_" class="MsftOfcResponsive_Fill_7823dc" fill="#7823DC"/></defs><clipPath id="SVGID_2_"><use width="100%" height="100%" xlink:href="#SVGID_1_"></use></clipPath><g class="st0" clip-path="url(#SVGID_2_)"><defs><path d="M0 36.5 36.5 36.5 36.5 0 0 0 0 36.5Z" id="SVGID_3_" class="MsftOfcResponsive_Fill_7823dc" fill="#7823DC"/></defs><clipPath id="SVGID_4_"><use width="100%" height="100%" xlink:href="#SVGID_3_"></use></clipPath><path d="M25.2 20.9 34.3 20.9 34.3 29.9 32.3 29.9 32.3 32.2 36.6 32.2 36.6 23.1 32.1 18.6 25.2 18.6 25.2 20.9 25.2 20.9Z" class="st1 MsftOfcResponsive_Fill_7823dc" fill="#7823DC" clip-path="url(#SVGID_4_)"/><path d="M24.9 29.9 6.9 29.9 6.9 32.2 27.4 32.2 24.9 29.9 24.9 29.9Z" class="st1 MsftOfcResponsive_Fill_7823dc" fill="#7823DC" clip-path="url(#SVGID_4_)"/><path d="M29.7 25.3 35.4 25.3 35.4 27.6 29.7 27.6 29.7 25.3Z" class="st1 MsftOfcResponsive_Fill_7823dc" fill="#7823DC" clip-path="url(#SVGID_4_)"/><path d="M4.6 34.5C2.7 34.5 1.2 33 1.2 31.1 1.2 29.2 2.7 27.7 4.6 27.7 6.5 27.7 8 29.2 8 31.1 8.1 32.9 6.5 34.5 4.6 34.5ZM4.6 29.9C4 29.9 3.5 30.4 3.5 31 3.5 31.6 4 32.1 4.6 32.1 5.2 32.1 5.7 31.6 5.7 31 5.8 30.4 5.3 29.9 4.6 29.9Z" class="st1 MsftOfcResponsive_Fill_7823dc" fill="#7823DC" clip-path="url(#SVGID_4_)"/><path d="M29.7 34.5C27.8 34.5 26.3 33 26.3 31.1 26.3 29.2 27.8 27.7 29.7 27.7 31.6 27.7 33.1 29.2 33.1 31.1 33.2 32.9 31.6 34.5 29.7 34.5ZM29.7 29.9C29.1 29.9 28.6 30.4 28.6 31 28.6 31.6 29.1 32.1 29.7 32.1 30.3 32.1 30.8 31.6 30.8 31 30.9 30.4 30.4 29.9 29.7 29.9Z" class="st1 MsftOfcResponsive_Fill_7823dc" fill="#7823DC" clip-path="url(#SVGID_4_)"/><path d="M25.1 18.6 27.4 18.6 27.4 32.2 25.1 32.2 25.1 18.6Z" class="st1 MsftOfcResponsive_Fill_7823dc" fill="#7823DC" clip-path="url(#SVGID_4_)"/><path d="M0.1 25.3 25.1 25.3 25.1 27.6 0.1 27.6 0.1 25.3Z" class="st1 MsftOfcResponsive_Fill_7823dc" fill="#7823DC" clip-path="url(#SVGID_4_)"/><path d="M13.8 16.2 13.8 25.3 4.6 25.3 4.6 16.2 13.8 16.2M16 13.9 2.3 13.9 2.3 27.6 16 27.6 16 13.9 16 13.9Z" class="st1 MsftOfcResponsive_Fill_7823dc" fill="#7823DC" clip-path="url(#SVGID_4_)"/><path d="M19.5 4.7 19.5 13.8 10.4 13.8 10.4 4.7 19.5 4.7M21.7 2.4 8.1 2.4 8.1 16.1 21.8 16.1 21.8 2.4 21.7 2.4Z" class="st1 MsftOfcResponsive_Fill_7823dc" fill="#7823DC" clip-path="url(#SVGID_4_)"/><path d="M25.2 16.2 25.2 25.3 16 25.3 16 16.2 25.2 16.2M27.4 13.9 13.8 13.9 13.8 27.6 27.5 27.6 27.5 13.9 27.4 13.9Z" class="st1 MsftOfcResponsive_Fill_7823dc" fill="#7823DC" clip-path="url(#SVGID_4_)"/><path d="M9.2 27.3 11.5 27.3 11.5 31.1 9.2 31.1 9.2 27.3Z" class="st1 MsftOfcResponsive_Fill_7823dc" fill="#7823DC" clip-path="url(#SVGID_4_)"/><path d="M20.6 27.3 22.9 27.3 22.9 31 20.6 31 20.6 27.3Z" class="st1 MsftOfcResponsive_Fill_7823dc" fill="#7823DC" clip-path="url(#SVGID_4_)"/></g></g></g></svg>