<svg viewBox="0 0 31.98 32" xmlns="http://www.w3.org/2000/svg" xmlns:xlink="http://www.w3.org/1999/xlink" id="Layer_1" overflow="hidden"><style>
.MsftOfcResponsive_Fill_7823dc {
 fill:#7823DC; 
}
</style>
<defs></defs><path d="M31.98 32 26 32 26 23.94C24.53 23.85 21.6 23.74 19.51 24 17.46 24.25 9.33 28.95 4.68 31.86L4.44 32.01 0 32.01 1.31 30.38C1.48 30.17 5.64 25.04 14.37 17.26 14.97 16.72 15.66 16 16.03 15.61 16.03 14.53 16.03 13.63 16.03 13L14.05 13C11.85 13 10.06 11.21 10.06 9 10.06 6.79 11.85 5 14.05 5L18.03 5 18.03 7 14.05 7C12.95 7 12.06 7.9 12.06 9 12.06 10.1 12.95 11 14.05 11L18.05 11 18.05 12.01C18.05 12.01 18.03 13.61 18.05 15.99L18.05 16.38C18.05 16.38 17.79 16.67 17.79 16.67 17.75 16.72 16.67 17.88 15.73 18.74 10.45 23.44 6.83 27.2 4.81 29.42 8.08 27.42 16.58 22.34 19.27 22.01 22.37 21.63 26.9 21.99 27.09 22.01L28.01 22.09 28.01 30.01 29.16 30.01C29.46 27.25 29.99 22.11 29.99 21.01 29.99 20.56 29.87 20.12 29.03 19.93 26.07 19.26 22.93 18.88 22.9 18.88L21.63 18.73 22.08 17.53C22.44 16.58 23.01 14.79 23.01 14.01 23.01 12.89 23.01 11.73 20.7 10.96L20.02 10.73 20.02 0 22.02 0 22.02 9.31C25.01 10.6 25.01 12.87 25.01 14 25.01 14.85 24.66 16.11 24.36 17.05 25.58 17.22 27.53 17.54 29.46 17.97 31.06 18.33 31.98 19.43 31.98 21 31.98 22.27 31.41 27.64 31.16 30L31.98 30 31.98 32Z" class="MsftOfcResponsive_Fill_7823dc" stroke-width="0" fill="#7823DC"/></svg>