<svg width="36.5" height="36.5" viewBox="0 0 36.5 36.5" xmlns="http://www.w3.org/2000/svg" xmlns:xlink="http://www.w3.org/1999/xlink" overflow="hidden"><defs></defs><g><g><defs><path d="M0 36.5 36.5 36.5 36.5 0 0 0 0 36.5Z" id="SVGID_1_" fill="#7823DC"/></defs><clipPath id="SVGID_2_"><use width="100%" height="100%" xlink:href="#SVGID_1_"></use></clipPath><g clip-path="url(#SVGID_2_)"><defs><path d="M0 36.5 36.5 36.5 36.5 0 0 0 0 36.5Z" id="SVGID_3_" fill="#7823DC"/></defs><clipPath id="SVGID_4_"><use width="100%" height="100%" xlink:href="#SVGID_3_"></use></clipPath><path d="M18.8 29.6 7.5 18.3 12.3 13.5 23.6 24.8 18.8 29.6ZM10.8 18.3 18.9 26.4 20.5 24.8 12.4 16.7 10.8 18.3Z" fill="#7823DC" clip-path="url(#SVGID_4_)"/><path d="M20.6 25 12.2 16.6 23.8 8.9 28.3 13.5 20.6 25ZM15.8 16.9 20.3 21.4 25.4 13.7 23.5 11.8 15.8 16.9Z" fill="#7823DC" clip-path="url(#SVGID_4_)"/><path d="M29.2 17.6 19.5 7.9 24.4 3 34.1 12.7 29.2 17.6ZM22.8 7.9 29.3 14.4 30.9 12.8 24.4 6.3 22.8 7.9Z" fill="#7823DC" clip-path="url(#SVGID_4_)"/><path d="M5.9 32.9 2.7 32.9 13.2 22.4 14.8 24 5.9 32.9 5.9 32.9Z" fill="#7823DC" clip-path="url(#SVGID_4_)"/></g></g></g></svg>