<svg viewBox="0 0 32 32" xmlns="http://www.w3.org/2000/svg" xmlns:xlink="http://www.w3.org/1999/xlink" id="Graphic" overflow="hidden"><path d="M32 0 0 0 0 32 2 32 2 30 2 2 30 2 30 30 30 32 32 32Z" fill="#7823DC"/><path d="M22 2 22 8 10 8 10 2 22 2M24 0 8 0 8 10 24 10 24 0Z" fill="#7823DC"/><path d="M18 2 18 4 14 4 14 2 18 2M20 0 12 0 12 6 20 6 20 0Z" fill="#7823DC"/><path d="M6 1.9C6 1.2 5.8 0.6 5.6 0L3.1 0C3.7 0.5 4 1.2 4 1.9 4 3.3 2.9 4.4 1.5 4.4 1 4.4 0.4 4.2 0 3.8L0 6.1C0.5 6.3 1 6.4 1.5 6.4 4 6.4 6 4.4 6 1.9Z" fill="#7823DC"/><path d="M26 1.9C26 1.2 26.2 0.6 26.5 0L29 0C27.9 0.8 27.8 2.4 28.6 3.4 29.4 4.4 31 4.6 32 3.8L32 3.8 32 6.1C31.5 6.3 31 6.4 30.5 6.4 28 6.4 26 4.4 26 1.9Z" fill="#7823DC"/><circle cx="16" cy="29" r="2.9" fill="#7823DC"/><rect x="15" y="14" width="2" height="10" fill="#7823DC"/><rect x="17.1" y="13.1" width="2" height="6" fill="#7823DC" transform="matrix(0.7071 -0.7071 0.7071 0.7071 -6.0925 17.5356)"/><rect x="10.7" y="14.8" width="7" height="2" fill="#7823DC" transform="matrix(0.7071 -0.7071 0.7071 0.7071 -6.9815 14.6823)"/></svg>