<svg viewBox="0 0 31.93 31.93" xmlns="http://www.w3.org/2000/svg" xmlns:xlink="http://www.w3.org/1999/xlink" id="Layer_1" overflow="hidden"><style>
.MsftOfcResponsive_Fill_7823dc {
 fill:#7823DC; 
}
</style>
<defs></defs><path d="M25.69 3.31C22.31 0.71 18.12-0.42 13.89 0.14 9.66 0.69 5.9 2.86 3.3 6.25 0.71 9.63-0.42 13.82 0.14 18.05 0.7 22.28 2.86 26.04 6.25 28.63 9.14 30.85 12.56 31.93 15.95 31.93 20.75 31.93 25.49 29.78 28.63 25.69 33.99 18.71 32.67 8.66 25.69 3.3ZM4.89 7.47C7.16 4.51 10.45 2.61 14.15 2.13 14.24 2.12 14.33 2.12 14.41 2.11 15.06 5.87 14.14 9.71 11.79 12.76 9.44 15.82 5.96 17.7 2.16 18.04 2.15 17.96 2.13 17.88 2.11 17.79 1.62 14.09 2.61 10.42 4.88 7.47ZM2.61 20.01C6.86 19.56 10.74 17.42 13.38 13.98 16.02 10.55 17.09 6.25 16.43 2.03 19.33 2.12 22.13 3.1 24.48 4.9 26.88 6.74 28.5 9.21 29.31 11.9 25.02 12.39 21.24 14.51 18.58 17.97 15.92 21.44 14.85 25.64 15.49 29.91 12.68 29.82 9.87 28.89 7.47 27.05 5.12 25.25 3.45 22.79 2.62 20.01ZM27.04 24.48C24.63 27.62 21.14 29.44 17.49 29.84 16.87 26.03 17.79 22.28 20.16 19.19 22.53 16.11 25.91 14.25 29.75 13.86 30.31 17.49 29.45 21.34 27.04 24.48Z" class="MsftOfcResponsive_Fill_7823dc" fill="#7823DC"/></svg>