<svg viewBox="0 0 32 32" xmlns="http://www.w3.org/2000/svg" xmlns:xlink="http://www.w3.org/1999/xlink" id="Layer_1" overflow="hidden"><style>
.MsftOfcResponsive_Fill_7823dc {
 fill:#7823DC; 
}
</style>
<defs></defs><path d="M20.1 30.7 18.9 27.26 21 24.02 21 21.08 22 17.03 24 17.44 23 21.39 23 24.63 21.1 27.46 21.9 30.1 20.1 30.7 20.1 30.7Z" class="MsftOfcResponsive_Fill_7823dc" fill="#7823DC"/><path d="M20.45 28.36 17.2 26.8 16.43 23.06 14.38 21.01 12.27 17.48 13.96 16.35 16.01 19.81 18.27 22.07 18.9 25.39 21.3 26.66 20.45 28.36 20.45 28.36Z" class="MsftOfcResponsive_Fill_7823dc" fill="#7823DC"/><path d="M4.96 30.13 8.5 25.18 11.96 24.97 13.85 23.33 17.11 21.83 18.16 23.57 14.96 25.01 12.88 26.82 9.81 26.96 7.28 30.39 4.97 30.11 4.96 30.13Z" class="MsftOfcResponsive_Fill_7823dc" fill="#7823DC"/><path d="M20.1 25.51 21.74 22.92 25.12 23.14 27.11 21.78 30.41 20.71 31.27 22.55 28.04 23.56 25.85 25.07 22.85 24.83 21.53 26.71 20.1 25.51 20.1 25.51Z" class="MsftOfcResponsive_Fill_7823dc" fill="#7823DC"/><path d="M8.26 17.03 9.95 19.27 8.37 22.03 8.81 24.15 8.43 27.28 6.41 30.65 6.8 24.34 6.32 22 7.76 19.57 6.59 17.83 8.26 17.03 8.26 17.03Z" class="MsftOfcResponsive_Fill_7823dc" fill="#7823DC"/><path d="M7.96 24.91 4.91 24.52 3.59 24.79 2.57 25 1.95 24.63 1.14 24.16C0.81 23.37 0.55 22.54 0.37 21.69L1.94 22.58 2.6 22.96 2.75 22.93 4.71 22.53 7.83 22.91 7.95 24.93Z" class="MsftOfcResponsive_Fill_7823dc" fill="#7823DC"/><path d="M30 18 30 30 2 30 2 18 30 18M32 16 0 16 0 32 32 32 32 16 32 16Z" class="MsftOfcResponsive_Fill_7823dc" fill="#7823DC"/><g><path d="M14.99 3.02 14.99 3.02 16.99 3.02 16.99 3.02 14.99 3.02Z" class="MsftOfcResponsive_Fill_7823dc" fill="#7823DC"/><path d="M14.99 3.02 14.99 3.02 14.99 16.98 16.99 16.98 16.99 3.02 14.99 3.02 14.99 3.02Z" class="MsftOfcResponsive_Fill_7823dc" fill="#7823DC"/><path d="M13.97 0C12.3 0 10.95 1.35 10.95 3.02L12.95 3.02C12.95 2.46 13.41 2 13.97 2 14.53 2 14.99 2.46 14.99 3.02L16.99 3.02C16.99 3.02 16.99 3.02 16.99 3.02 16.99 1.35 15.64 0 13.97 0Z" class="MsftOfcResponsive_Fill_7823dc" fill="#7823DC"/></g><path d="M16.99 3.02 16.99 3.02 14.99 3.02 14.99 3.02 16.99 3.02Z" class="MsftOfcResponsive_Fill_7823dc" fill="#7823DC"/><path d="M16.99 8.02 14.99 8.02C14.99 5.81 16.79 4.01 19 4.01L19 6.01C17.89 6.01 16.99 6.91 16.99 8.02Z" class="MsftOfcResponsive_Fill_7823dc" fill="#7823DC"/><path d="M9.29 11.6 8.96 9.49C8.93 9.32 8.31 5.31 8.98 3.02L8.98 3.02C9.35 1.77 10.69 1.18 12.2 1.62 13.7 2.06 14.52 3.28 14.16 4.53 13.5 6.79 10.82 9.86 10.71 9.99L9.3 11.6ZM10.9 3.58C10.66 4.4 10.64 5.62 10.7 6.75 11.36 5.82 12 4.77 12.24 3.97 12.27 3.88 12.02 3.65 11.64 3.54 11.26 3.43 10.93 3.49 10.9 3.58L10.9 3.58Z" class="MsftOfcResponsive_Fill_7823dc" fill="#7823DC"/><path d="M26.29 10.13 24.24 9.55C23.88 9.45 20.63 8.49 19.07 7.13L19.07 7.13C18.56 6.69 18.33 6.04 18.42 5.35 18.49 4.84 18.74 4.32 19.12 3.88 19.5 3.44 19.98 3.13 20.48 2.99 21.15 2.8 21.82 2.95 22.33 3.39 23.87 4.74 25.27 7.84 25.43 8.18L26.3 10.13ZM20.4 5.63C20.88 6.04 21.66 6.44 22.44 6.78 21.99 6.03 21.48 5.3 21.01 4.89 21.01 4.9 20.82 4.97 20.62 5.19 20.45 5.38 20.4 5.56 20.39 5.63Z" class="MsftOfcResponsive_Fill_7823dc" fill="#7823DC"/><path d="M17 12.89 15 12.89C15 10.68 16.8 8.88 19.01 8.88L19.01 10.88C17.9 10.88 17 11.78 17 12.89Z" class="MsftOfcResponsive_Fill_7823dc" fill="#7823DC"/><path d="M16.99 16.01 14.99 16.01C14.99 14.9 14.09 14 12.98 14L12.98 12C15.19 12 16.99 13.8 16.99 16.01Z" class="MsftOfcResponsive_Fill_7823dc" fill="#7823DC"/></svg>