<svg viewBox="0 0 32 32" xmlns="http://www.w3.org/2000/svg" xmlns:xlink="http://www.w3.org/1999/xlink" id="Graphic" overflow="hidden"><defs></defs><path d="M16.08 22.48C20.03 22.48 23.24 19.27 23.24 15.32 23.24 11.37 20.03 8.16 16.08 8.16 12.13 8.16 8.92 11.37 8.92 15.32 8.92 19.27 12.13 22.48 16.08 22.48ZM11.07 16.51 12.98 16.51C13.05 17.69 13.24 18.83 13.54 19.79 12.31 19.09 11.4 17.92 11.06 16.51ZM17.19 14.51 14.97 14.51C15.09 11.99 15.73 10.53 16.08 10.2 16.43 10.54 17.07 12 17.19 14.51ZM17.17 16.51C17.01 18.79 16.42 20.11 16.08 20.43 15.74 20.11 15.15 18.78 14.99 16.51L17.17 16.51ZM18.61 19.79C18.92 18.83 19.1 17.69 19.17 16.51L21.08 16.51C20.74 17.92 19.83 19.09 18.6 19.79ZM21.16 14.51 19.19 14.51C19.14 13.19 18.94 11.91 18.61 10.84 19.95 11.6 20.91 12.93 21.16 14.51ZM13.55 10.84C13.21 11.91 13.02 13.19 12.97 14.51L11 14.51C11.25 12.93 12.21 11.6 13.55 10.84Z" stroke-width="0" fill="#7823DC"/><rect x="9.4" y="24.98" width="13.16" height="2" stroke-width="0" fill="#7823DC"/><path d="M25.96 2.01 24 0 4 0 4 32 27.95 32 27.95 4.05 27.95 4.05C27.95 4.05 25.96 2.01 25.96 2.01ZM25.95 30 6 30 6 6.05 25.95 6.05 25.95 30ZM6 4.05 6 2 25.95 2 25.95 4.05 6 4.05Z" stroke-width="0" fill="#7823DC"/></svg>