<svg viewBox="0 0 29.33 32" xmlns="http://www.w3.org/2000/svg" xmlns:xlink="http://www.w3.org/1999/xlink" id="Layer_1" overflow="hidden"><style>
.MsftOfcResponsive_Fill_7823dc {
 fill:#7823DC; 
}
</style>
<g><path d="M14.5 10.74C13.74 10.74 13.13 10.12 13.13 9.37 13.13 8.62 13.75 8 14.5 8L14.5 10.74Z" class="MsftOfcResponsive_Fill_7823dc" fill="#7823DC"/><path d="M14.5 10.74 14.5 8C15.26 8 15.87 8.62 15.87 9.37 15.87 10.12 15.25 10.74 14.5 10.74Z" class="MsftOfcResponsive_Fill_7823dc" fill="#7823DC"/></g><path d="M16 32C7.18 32 0 24.82 0 16 0 7.18 7.18 0 16 0 20.94 0 25.53 2.23 28.59 6.12L29.33 7.09 28.71 7.71C28.36 8.06 27.88 8.5 27.2 9.11 25.82 10.36 23.56 12.41 19.98 15.96L29.17 25.15 28.63 25.85C25.57 29.76 20.97 32.01 16.01 32.01ZM16 2C8.28 2 2 8.28 2 16 2 23.72 8.28 30 16 30 20.05 30 23.82 28.29 26.48 25.29L17.15 15.96 17.86 15.25C21.89 11.23 24.38 8.97 25.86 7.63 26.16 7.36 26.42 7.12 26.65 6.91 23.99 3.79 20.14 2 16 2Z" class="MsftOfcResponsive_Fill_7823dc" fill="#7823DC"/></svg>