<svg viewBox="0 0 32 32" xmlns="http://www.w3.org/2000/svg" xmlns:xlink="http://www.w3.org/1999/xlink" id="Layer_2_1_" overflow="hidden"><rect x="0" y="0" width="2" height="32" fill="#7823DC"/><rect x="30" y="0" width="2" height="32" fill="#7823DC"/><g><g><g><path d="M26.4 17 24.5 18.8 27.2 18.8 30 16 27.2 13.2 24.6 13.2 26.4 15" fill="#7823DC" fill-rule="evenodd" clip-rule="evenodd"/></g></g><g><g><path d="M5.6 17 7.5 18.8 4.8 18.8 2 16 4.8 13.2 7.4 13.2 5.6 15" fill="#7823DC" fill-rule="evenodd" clip-rule="evenodd"/></g></g><rect x="5" y="15.2" width="22" height="2" fill="#7823DC"/></g><g><g><rect x="2" y="5.5" width="1.5" height="2" fill="#7823DC"/><path d="M25.7 7.5 22.9 7.5 22.9 5.5 25.7 5.5 25.7 7.5ZM20.2 7.5 17.4 7.5 17.4 5.5 20.2 5.5 20.2 7.5ZM14.6 7.5 11.8 7.5 11.8 5.5 14.6 5.5 14.6 7.5ZM9.1 7.5 6.3 7.5 6.3 5.5 9.1 5.5 9.1 7.5Z" fill="#7823DC"/><rect x="28.5" y="5.5" width="1.5" height="2" fill="#7823DC"/></g><g><rect x="2" y="24.5" width="1.5" height="2" fill="#7823DC"/><path d="M25.7 26.5 22.9 26.5 22.9 24.5 25.7 24.5 25.7 26.5ZM20.2 26.5 17.4 26.5 17.4 24.5 20.2 24.5 20.2 26.5ZM14.6 26.5 11.8 26.5 11.8 24.5 14.6 24.5 14.6 26.5ZM9.1 26.5 6.3 26.5 6.3 24.5 9.1 24.5 9.1 26.5Z" fill="#7823DC"/><rect x="28.5" y="24.5" width="1.5" height="2" fill="#7823DC"/></g></g></svg>